<svg xmlns="http://www.w3.org/2000/svg" width="367pt" height="274pt" viewBox="0 0 367 274"><defs><path d="M2.125-2.3437H.3438v.5469H2.125zm0 0" id="c"/><path d="M1.6563-2.4375h.3594c.734375 0 1.109375.328125 1.109375.953125C3.125-.8125 2.703125-.40625 2.015625-.40625 1.296875-.40625.9375-.765625.90625-1.546875H.2344C.265625-1.125.34375-.84375.46875-.59375.75-.09375 1.265625.171875 2 .171875c1.09375 0 1.796875-.65625 1.796875-1.65625 0-.671875-.265625-1.046875-.90625-1.265625.5-.203125.75-.578125.75-1.109375 0-.90625-.609375-1.453125-1.625-1.453125C.9375-5.3125.375-4.734375.359375-3.59375h.6563c0-.328125.03125-.515625.109375-.671875.15625-.296875.484375-.46875.90625-.46875.578125 0 .9375.34375.9375.90625 0 .375-.140625.59375-.4375.71875C2.359375-3.03125 2.125-3 1.65625-3zm0 0" id="d"/><path d="M3.7969-.6562H1c.0625-.4375.3125-.703125.953125-1.09375l.75-.4062c.75-.40625 1.125-.953125 1.125-1.59375 0-.453125-.171875-.859375-.484375-1.140625C3.015625-5.1875 2.625-5.3125 2.125-5.3125c-.671875 0-1.171875.234375-1.46875.6875-.1875.28125-.265625.609375-.28125 1.15625h.6563c.03125-.359375.078125-.578125.15625-.75.171875-.328125.515625-.515625.921875-.515625.59375 0 1.046875.421875 1.046875.984375 0 .421875-.25.78125-.71875 1.0625l-.6875.3906C.640625-1.671875.3125-1.171875.25 0h3.5469zm0 0" id="e"/><path d="M1.9375-3.7812V0h.6719v-5.3125h-.4375c-.2344.8125-.39065.921875-1.406275 1.046875v.4844zm0 0" id="f"/><path d="M2.0625-5.3125c-.5 0-.9375.21875-1.21875.578125C.5-4.265625.328125-3.5625.328125-2.578125c0 1.796875.59375 2.75 1.734375 2.75 1.125 0 1.734375-.953125 1.734375-2.703125 0-1.03125-.15625-1.71875-.515625-2.203125C3-5.109375 2.5625-5.3125 2.0625-5.3125zm0 .5781c.71875 0 1.0625.71875 1.0625 2.140625C3.125-1.078125 2.78125-.375 2.046875-.375 1.34375-.375 1-1.109375 1-2.5625c0-1.453125.34375-2.171875 1.0625-2.171875zm0 0" id="g"/><clipPath id="h"><path d="M183 8.5h2v255h-2zm0 0"/></clipPath><clipPath id="i"><use href="#a"/></clipPath><clipPath id="j"><path d="M14 8.5h1v255h-1zm0 0"/></clipPath><clipPath id="k"><path d="M70 8.5h1v255h-1zm0 0"/></clipPath><clipPath id="l"><path d="M127 8.5h1v255h-1zm0 0"/></clipPath><clipPath id="m"><path d="M183 8.5h2v255h-2zm0 0"/></clipPath><clipPath id="n"><path d="M240 8.5h1v255h-1zm0 0"/></clipPath><clipPath id="o"><path d="M297 8.5h1v255h-1zm0 0"/></clipPath><clipPath id="p"><path d="M353 8.5h1v255h-1zm0 0"/></clipPath><clipPath id="q"><path d="M14 263h340v.5H14zm0 0"/></clipPath><clipPath id="r"><path d="M14 220h340v2H14zm0 0"/></clipPath><clipPath id="s"><path d="M14 178h340v1H14zm0 0"/></clipPath><clipPath id="t"><use href="#a"/></clipPath><clipPath id="u"><path d="M14 93h340v1H14zm0 0"/></clipPath><clipPath id="v"><path d="M14 50h340v2H14zm0 0"/></clipPath><clipPath id="w"><path d="M14 8.5h340V9H14zm0 0"/></clipPath><clipPath id="x"><path d="M83 8.5h203v255H83zm0 0"/></clipPath><clipPath id="y"><use href="#a"/></clipPath><path id="a" d="M14 135h340v2H14zm0 0"/><path id="b" d="M140 1380h3400"/></defs><path fill="#fff" d="M14 263.5h340V8.5H14zm0 0"/><g clip-path="url(#h)"><path d="M1840 105v2550" class="e"/></g><g clip-path="url(#i)"><use href="#b" class="e"/></g><g clip-path="url(#j)"><path d="M140 105v2550" class="a"/></g><g clip-path="url(#k)"><path d="M706.679688 105v2550" class="a"/></g><g clip-path="url(#l)"><path d="M1273.320312 105v2550" class="a"/></g><g clip-path="url(#m)"><path d="M1840 105v2550" class="a"/></g><g clip-path="url(#n)"><path d="M2406.679688 105v2550" class="a"/></g><g clip-path="url(#o)"><path d="M2973.320312 105v2550" class="a"/></g><g clip-path="url(#p)"><path d="M3540 105v2550" class="a"/></g><g clip-path="url(#q)"><path d="M140 105h3400" class="a"/></g><g clip-path="url(#r)"><path d="M140 530h3400" class="a"/></g><g clip-path="url(#s)"><path d="M140 955h3400" class="a"/></g><g clip-path="url(#t)"><use href="#b" class="a"/></g><g clip-path="url(#u)"><path d="M140 1805h3400" class="a"/></g><g clip-path="url(#v)"><path d="M140 2230h3400" class="a"/></g><g clip-path="url(#w)"><path d="M140 2655h3400" class="a"/></g><g class="b"><path d="M140 105h3400" class="c"/><g class="d"><path d="M140 105v50"/><path d="M196.679688 105v25"/><path d="M253.320312 105v25"/><path d="M310 105v25"/><path d="M366.679688 105v25"/><path d="M423.320312 105v25"/><path d="M480 105v25"/><path d="M536.679688 105v25"/><path d="M593.320312 105v25"/><path d="M650 105v25"/><path d="M706.679688 105v50"/><path d="M763.320312 105v25"/><path d="M820 105v25"/><path d="M876.679688 105v25"/><path d="M933.320312 105v25"/><path d="M990 105v25"/><path d="M1046.679688 105v25"/><path d="M1103.320312 105v25"/><path d="M1160 105v25"/><path d="M1216.679688 105v25"/><path d="M1273.320312 105v50"/><path d="M1330 105v25"/><path d="M1386.679688 105v25"/><path d="M1443.320312 105v25"/><path d="M1500 105v25"/><path d="M1556.679688 105v25"/><path d="M1613.320312 105v25"/><path d="M1670 105v25"/><path d="M1726.679688 105v25"/><path d="M1783.320312 105v25"/><path d="M1840 105v50"/><path d="M1896.679688 105v25"/><path d="M1953.320312 105v25"/><path d="M2010 105v25"/><path d="M2066.679688 105v25"/><path d="M2123.320312 105v25"/><path d="M2180 105v25"/><path d="M2236.679688 105v25"/><path d="M2293.320312 105v25"/><path d="M2350 105v25"/><path d="M2406.679688 105v50"/><path d="M2463.320312 105v25"/><path d="M2520 105v25"/><path d="M2576.679688 105v25"/><path d="M2633.320312 105v25"/><path d="M2690 105v25"/><path d="M2746.679688 105v25"/><path d="M2803.320312 105v25"/><path d="M2860 105v25"/><path d="M2916.679688 105v25"/><path d="M2973.320312 105v50"/><path d="M3030 105v25"/><path d="M3086.679688 105v25"/><path d="M3143.320312 105v25"/><path d="M3200 105v25"/><path d="M3256.679688 105v25"/><path d="M3313.320312 105v25"/><path d="M3370 105v25"/><path d="M3426.679688 105v25"/><path d="M3483.320312 105v25"/><path d="M3540 105v50"/></g></g><use x="10.0414" y="273.5" href="#c"/><use x="12.5389" y="273.5" href="#d"/><use x="66.9164" y="273.5" href="#c"/><use x="69.4139" y="273.5" href="#e"/><use x="123.7914" y="273.5" href="#c"/><use x="126.2889" y="273.5" href="#f"/><use x="181.9152" y="273.5" href="#g"/><use x="238.1652" y="273.5" href="#f"/><use x="295.0401" y="273.5" href="#e"/><use x="351.9151" y="273.5" href="#d"/><g class="b"><path d="M140 2655h3400" class="c"/><g class="d"><path d="M140 2655v-50"/><path d="M196.679688 2655v-25"/><path d="M253.320312 2655v-25"/><path d="M310 2655v-25"/><path d="M366.679688 2655v-25"/><path d="M423.320312 2655v-25"/><path d="M480 2655v-25"/><path d="M536.679688 2655v-25"/><path d="M593.320312 2655v-25"/><path d="M650 2655v-25"/><path d="M706.679688 2655v-50"/><path d="M763.320312 2655v-25"/><path d="M820 2655v-25"/><path d="M876.679688 2655v-25"/><path d="M933.320312 2655v-25"/><path d="M990 2655v-25"/><path d="M1046.679688 2655v-25"/><path d="M1103.320312 2655v-25"/><path d="M1160 2655v-25"/><path d="M1216.679688 2655v-25"/><path d="M1273.320312 2655v-50"/><path d="M1330 2655v-25"/><path d="M1386.679688 2655v-25"/><path d="M1443.320312 2655v-25"/><path d="M1500 2655v-25"/><path d="M1556.679688 2655v-25"/><path d="M1613.320312 2655v-25"/><path d="M1670 2655v-25"/><path d="M1726.679688 2655v-25"/><path d="M1783.320312 2655v-25"/><path d="M1840 2655v-50"/><path d="M1896.679688 2655v-25"/><path d="M1953.320312 2655v-25"/><path d="M2010 2655v-25"/><path d="M2066.679688 2655v-25"/><path d="M2123.320312 2655v-25"/><path d="M2180 2655v-25"/><path d="M2236.679688 2655v-25"/><path d="M2293.320312 2655v-25"/><path d="M2350 2655v-25"/><path d="M2406.679688 2655v-50"/><path d="M2463.320312 2655v-25"/><path d="M2520 2655v-25"/><path d="M2576.679688 2655v-25"/><path d="M2633.320312 2655v-25"/><path d="M2690 2655v-25"/><path d="M2746.679688 2655v-25"/><path d="M2803.320312 2655v-25"/><path d="M2860 2655v-25"/><path d="M2916.679688 2655v-25"/><path d="M2973.320312 2655v-50"/><path d="M3030 2655v-25"/><path d="M3086.679688 2655v-25"/><path d="M3143.320312 2655v-25"/><path d="M3200 2655v-25"/><path d="M3256.679688 2655v-25"/><path d="M3313.320312 2655v-25"/><path d="M3370 2655v-25"/><path d="M3426.679688 2655v-25"/><path d="M3483.320312 2655v-25"/><path d="M3540 2655v-50"/></g></g><use x="10.0414" y="5.375" href="#c"/><use x="12.5389" y="5.375" href="#d"/><use x="66.9164" y="5.375" href="#c"/><use x="69.4139" y="5.375" href="#e"/><use x="123.7914" y="5.375" href="#c"/><use x="126.2889" y="5.375" href="#f"/><use x="181.9152" y="5.375" href="#g"/><use x="238.1652" y="5.375" href="#f"/><use x="295.0401" y="5.375" href="#e"/><use x="351.9151" y="5.375" href="#d"/><g class="b"><path d="M140 105v2550" class="c"/><g class="d"><path d="M140 105h50"/><path d="M140 147.5h25"/><path d="M140 190h25"/><path d="M140 232.5h25"/><path d="M140 275h25"/><path d="M140 317.5h25"/><path d="M140 360h25"/><path d="M140 402.5h25"/><path d="M140 445h25"/><path d="M140 487.5h25"/><path d="M140 530h50"/><path d="M140 572.5h25"/><path d="M140 615h25"/><path d="M140 657.5h25"/><path d="M140 700h25"/><path d="M140 742.5h25"/><path d="M140 785h25"/><path d="M140 827.5h25"/><path d="M140 870h25"/><path d="M140 912.5h25"/><path d="M140 955h50"/><path d="M140 997.5h25"/><path d="M140 1040h25"/><path d="M140 1082.5h25"/><path d="M140 1125h25"/><path d="M140 1167.5h25"/><path d="M140 1210h25"/><path d="M140 1252.5h25"/><path d="M140 1295h25"/><path d="M140 1337.5h25"/><path d="M140 1380h50"/><path d="M140 1422.5h25"/><path d="M140 1465h25"/><path d="M140 1507.5h25"/><path d="M140 1550h25"/><path d="M140 1592.5h25"/><path d="M140 1635h25"/><path d="M140 1677.5h25"/><path d="M140 1720h25"/><path d="M140 1762.5h25"/><path d="M140 1805h50"/><path d="M140 1847.5h25"/><path d="M140 1890h25"/><path d="M140 1932.5h25"/><path d="M140 1975h25"/><path d="M140 2017.5h25"/><path d="M140 2060h25"/><path d="M140 2102.5h25"/><path d="M140 2145h25"/><path d="M140 2187.5h25"/><path d="M140 2230h50"/><path d="M140 2272.5h25"/><path d="M140 2315h25"/><path d="M140 2357.5h25"/><path d="M140 2400h25"/><path d="M140 2442.5h25"/><path d="M140 2485h25"/><path d="M140 2527.5h25"/><path d="M140 2570h25"/><path d="M140 2612.5h25"/><path d="M140 2655h50"/></g></g><use x=".4578" y="267.25" href="#c"/><use x="2.9553" y="267.25" href="#d"/><use x=".4578" y="224.125" href="#c"/><use x="2.9553" y="224.125" href="#e"/><use x=".4578" y="182.25" href="#c"/><use x="2.9553" y="182.25" href="#f"/><use x="2.9551" y="139.125" href="#g"/><use x="2.9551" y="97.25" href="#f"/><use x="2.9551" y="54.125" href="#e"/><use x="2.9551" y="11.625" href="#d"/><g class="b"><path d="M3540 105v2550" class="c"/><g class="d"><path d="M3540 105h-50"/><path d="M3540 147.5h-25"/><path d="M3540 190h-25"/><path d="M3540 232.5h-25"/><path d="M3540 275h-25"/><path d="M3540 317.5h-25"/><path d="M3540 360h-25"/><path d="M3540 402.5h-25"/><path d="M3540 445h-25"/><path d="M3540 487.5h-25"/><path d="M3540 530h-50"/><path d="M3540 572.5h-25"/><path d="M3540 615h-25"/><path d="M3540 657.5h-25"/><path d="M3540 700h-25"/><path d="M3540 742.5h-25"/><path d="M3540 785h-25"/><path d="M3540 827.5h-25"/><path d="M3540 870h-25"/><path d="M3540 912.5h-25"/><path d="M3540 955h-50"/><path d="M3540 997.5h-25"/><path d="M3540 1040h-25"/><path d="M3540 1082.5h-25"/><path d="M3540 1125h-25"/><path d="M3540 1167.5h-25"/><path d="M3540 1210h-25"/><path d="M3540 1252.5h-25"/><path d="M3540 1295h-25"/><path d="M3540 1337.5h-25"/><path d="M3540 1380h-50"/><path d="M3540 1422.5h-25"/><path d="M3540 1465h-25"/><path d="M3540 1507.5h-25"/><path d="M3540 1550h-25"/><path d="M3540 1592.5h-25"/><path d="M3540 1635h-25"/><path d="M3540 1677.5h-25"/><path d="M3540 1720h-25"/><path d="M3540 1762.5h-25"/><path d="M3540 1805h-50"/><path d="M3540 1847.5h-25"/><path d="M3540 1890h-25"/><path d="M3540 1932.5h-25"/><path d="M3540 1975h-25"/><path d="M3540 2017.5h-25"/><path d="M3540 2060h-25"/><path d="M3540 2102.5h-25"/><path d="M3540 2145h-25"/><path d="M3540 2187.5h-25"/><path d="M3540 2230h-50"/><path d="M3540 2272.5h-25"/><path d="M3540 2315h-25"/><path d="M3540 2357.5h-25"/><path d="M3540 2400h-25"/><path d="M3540 2442.5h-25"/><path d="M3540 2485h-25"/><path d="M3540 2527.5h-25"/><path d="M3540 2570h-25"/><path d="M3540 2612.5h-25"/><path d="M3540 2655h-50"/></g></g><use x="360.25" y="267.25" href="#c"/><use x="362.7475" y="267.25" href="#d"/><use x="360.25" y="224.125" href="#c"/><use x="362.7475" y="224.125" href="#e"/><use x="360.25" y="182.25" href="#c"/><use x="362.7475" y="182.25" href="#f"/><use x="360.25" y="139.125" href="#g"/><use x="360.25" y="97.25" href="#f"/><use x="360.25" y="54.125" href="#e"/><use x="360.25" y="11.625" href="#d"/><g style="fill:none;stroke-width:6.25;stroke-linecap:round;stroke:#00f;stroke-miterlimit:10;transform:matrix(.1,0,0,-.1,0,274)"><path d="M203.125 120.546875l35.664062 90.351563"/><path d="M238.789062 210.898438h0"/><path d="M202.304688 242.304688l37.304687 89.6875"/><path d="M239.609375 331.992188h0"/><path d="M201.367188 364.140625l39.179687 88.867187"/><path d="M240.546875 453.007812h0"/><path d="M200.234375 486.054688l41.445313 87.890624"/><path d="M241.679688 573.945312h0"/><path d="M198.90625 608.164062l44.101562 86.5625"/><path d="M243.007812 694.726562h0"/><path d="M197.304688 730.429688l47.304687 84.84375"/><path d="M244.609375 815.273438h0"/><path d="M195.234375 853.085938l51.40625 82.421874"/><path d="M246.640625 935.507812h0"/><path d="M192.578125 976.289062l56.757813 78.828126"/><path d="M249.335938 1055.117188h0"/><path d="M188.828125 1100.703125l64.257813 72.851563"/><path d="M253.085938 1173.554688h0"/><path d="M183.046875 1228.203125l75.820313 60.742187"/><path d="M258.867188 1288.945312h0"/><path d="M172.382812 1380h97.148438"/><path d="M269.53125 1380h0"/><path d="M183.046875 1471.054688l75.820313 60.742187"/><path d="M258.867188 1531.796875h0"/><path d="M188.828125 1586.445312l64.257813 72.851563"/><path d="M253.085938 1659.296875h0"/><path d="M192.578125 1704.882812l56.757813 78.828126"/><path d="M249.335938 1783.710938h0"/><path d="M195.234375 1824.492188l51.40625 82.421874"/><path d="M246.640625 1906.914062h0"/><path d="M197.304688 1944.726562l47.304687 84.84375"/><path d="M244.609375 2029.570312h0"/><path d="M198.90625 2065.273438l44.101562 86.601562"/><path d="M243.007812 2151.875h0"/><path d="M200.234375 2186.054688l41.445313 87.890624"/><path d="M241.679688 2273.945312h0"/><path d="M201.367188 2306.992188l39.179687 88.867187"/><path d="M240.546875 2395.859375h0"/><path d="M202.304688 2428.007812l37.304687 89.6875"/><path d="M239.609375 2517.695312h0"/><path d="M203.125 2549.101562l35.664062 90.351563"/><path d="M238.789062 2639.453125h0"/><path d="M365.039062 120.546875l35.625 90.351563"/><path d="M400.664062 210.898438h0"/><path d="M364.21875 242.304688l37.304688 89.6875"/><path d="M401.523438 331.992188h0"/><path d="M363.28125 364.140625l39.179688 88.867187"/><path d="M402.460938 453.007812h0"/><path d="M362.148438 486.054688l41.40625 87.890624"/><path d="M403.554688 573.945312h0"/><path d="M360.820312 608.164062l44.0625 86.5625"/><path d="M404.882812 694.726562h0"/><path d="M359.179688 730.429688l47.34375 84.84375"/><path d="M406.523438 815.273438h0"/><path d="M357.148438 853.085938l51.40625 82.421874"/><path d="M408.554688 935.507812h0"/><path d="M354.492188 976.289062 411.25 1055.117188"/><path d="M411.25 1055.117188h0"/><path d="M350.742188 1100.703125 415 1173.554688"/><path d="M415 1173.554688h0"/><path d="M344.960938 1228.203125l75.78125 60.742187"/><path d="M420.742188 1288.945312h0"/><path d="M334.296875 1380h97.148437"/><path d="M431.445312 1380h0"/><path d="M344.960938 1471.054688l75.78125 60.742187"/><path d="M420.742188 1531.796875h0"/><path d="M350.742188 1586.445312 415 1659.296875"/><path d="M415 1659.296875h0"/><path d="M354.492188 1704.882812 411.25 1783.710938"/><path d="M411.25 1783.710938h0"/><path d="M357.148438 1824.492188l51.40625 82.421874"/><path d="M408.554688 1906.914062h0"/><path d="M359.179688 1944.726562l47.34375 84.84375"/><path d="M406.523438 2029.570312h0"/><path d="M360.820312 2065.273438l44.0625 86.601562"/><path d="M404.882812 2151.875h0"/><path d="M362.148438 2186.054688l41.40625 87.890624"/><path d="M403.554688 2273.945312h0"/><path d="M363.28125 2306.992188l39.179688 88.867187"/><path d="M402.460938 2395.859375h0"/><path d="M364.21875 2428.007812l37.304688 89.6875"/><path d="M401.523438 2517.695312h0"/><path d="M365.039062 2549.101562l35.625 90.351563"/><path d="M400.664062 2639.453125h0"/><path d="M526.953125 120.546875l35.625 90.351563"/><path d="M562.578125 210.898438h0"/><path d="M526.132812 242.304688l37.265626 89.6875"/><path d="M563.398438 331.992188h0"/><path d="M525.15625 364.140625l39.179688 88.867187"/><path d="M564.335938 453.007812h0"/><path d="M524.0625 486.054688l41.40625 87.890624"/><path d="M565.46875 573.945312h0"/><path d="M522.734375 608.164062l44.0625 86.5625"/><path d="M566.796875 694.726562h0"/><path d="M521.09375 730.429688l47.34375 84.84375"/><path d="M568.4375 815.273438h0"/><path d="M519.0625 853.085938l51.40625 82.421874"/><path d="M570.46875 935.507812h0"/><path d="M516.367188 976.289062l56.796874 78.828126"/><path d="M573.164062 1055.117188h0"/><path d="M512.65625 1100.703125l64.21875 72.851563"/><path d="M576.875 1173.554688h0"/><path d="M506.875 1228.203125l75.78125 60.742187"/><path d="M582.65625 1288.945312h0"/><path d="M496.171875 1380h97.148437"/><path d="M593.320312 1380h0"/><path d="M506.875 1471.054688l75.78125 60.742187"/><path d="M582.65625 1531.796875h0"/><path d="M512.65625 1586.445312l64.21875 72.851563"/><path d="M576.875 1659.296875h0"/><path d="M516.367188 1704.882812l56.796874 78.828126"/><path d="M573.164062 1783.710938h0"/><path d="M519.0625 1824.492188l51.40625 82.421874"/><path d="M570.46875 1906.914062h0"/><path d="M521.09375 1944.726562l47.34375 84.84375"/><path d="M568.4375 2029.570312h0"/><path d="M522.734375 2065.273438l44.0625 86.601562"/><path d="M566.796875 2151.875h0"/><path d="M524.0625 2186.054688l41.40625 87.890624"/><path d="M565.46875 2273.945312h0"/><path d="M525.15625 2306.992188l39.179688 88.867187"/><path d="M564.335938 2395.859375h0"/><path d="M526.132812 2428.007812l37.265626 89.6875"/><path d="M563.398438 2517.695312h0"/><path d="M526.953125 2549.101562l35.625 90.351563"/><path d="M562.578125 2639.453125h0"/><path d="M688.828125 120.546875l35.664063 90.351563"/><path d="M724.492188 210.898438h0"/><path d="M688.007812 242.304688l37.304688 89.6875"/><path d="M725.3125 331.992188h0"/><path d="M687.070312 364.140625 726.25 453.007812"/><path d="M726.25 453.007812h0"/><path d="M685.9375 486.054688l41.445312 87.890624"/><path d="M727.382812 573.945312h0"/><path d="M684.609375 608.164062l44.101563 86.5625"/><path d="M728.710938 694.726562h0"/><path d="M683.007812 730.429688l47.304688 84.84375"/><path d="M730.3125 815.273438h0"/><path d="M680.976562 853.085938l51.40625 82.421874"/><path d="M732.382812 935.507812h0"/><path d="M678.28125 976.289062l56.757812 78.828126"/><path d="M735.039062 1055.117188h0"/><path d="M674.53125 1100.703125l64.257812 72.851563"/><path d="M738.789062 1173.554688h0"/><path d="M668.789062 1228.203125l75.78125 60.742187"/><path d="M744.570312 1288.945312h0"/><path d="M658.085938 1380h97.148437"/><path d="M755.234375 1380h0"/><path d="M668.789062 1471.054688l75.78125 60.742187"/><path d="M744.570312 1531.796875h0"/><path d="M674.53125 1586.445312l64.257812 72.851563"/><path d="M738.789062 1659.296875h0"/><path d="M678.28125 1704.882812l56.757812 78.828126"/><path d="M735.039062 1783.710938h0"/><path d="M680.976562 1824.492188l51.40625 82.421874"/><path d="M732.382812 1906.914062h0"/><path d="M683.007812 1944.726562l47.304688 84.84375"/><path d="M730.3125 2029.570312h0"/><path d="M684.609375 2065.273438l44.101563 86.601562"/><path d="M728.710938 2151.875h0"/><path d="M685.9375 2186.054688l41.445312 87.890624"/><path d="M727.382812 2273.945312h0"/><path d="M687.070312 2306.992188 726.25 2395.859375"/><path d="M726.25 2395.859375h0"/><path d="M688.007812 2428.007812l37.304688 89.6875"/><path d="M725.3125 2517.695312h0"/><path d="M688.828125 2549.101562l35.664063 90.351563"/><path d="M724.492188 2639.453125h0"/><path d="M850.742188 120.546875l35.664062 90.351563"/><path d="M886.40625 210.898438h0"/><path d="M849.921875 242.304688l37.304687 89.6875"/><path d="M887.226562 331.992188h0"/><path d="M848.984375 364.140625l39.179687 88.867187"/><path d="M888.164062 453.007812h0"/><path d="M847.851562 486.054688l41.445313 87.890624"/><path d="M889.296875 573.945312h0"/><path d="M846.523438 608.164062l44.101562 86.5625"/><path d="M890.625 694.726562h0"/><path d="M844.921875 730.429688l47.304687 84.84375"/><path d="M892.226562 815.273438h0"/><path d="M842.851562 853.085938l51.40625 82.421874"/><path d="M894.257812 935.507812h0"/><path d="M840.195312 976.289062l56.757813 78.828126"/><path d="M896.953125 1055.117188h0"/><path d="M836.445312 1100.703125l64.257813 72.851563"/><path d="M900.703125 1173.554688h0"/><path d="M830.664062 1228.203125l75.820313 60.742187"/><path d="M906.484375 1288.945312h0"/><path d="M820 1380h97.148438"/><path d="M917.148438 1380h0"/><path d="M830.664062 1471.054688l75.820313 60.742187"/><path d="M906.484375 1531.796875h0"/><path d="M836.445312 1586.445312l64.257813 72.851563"/><path d="M900.703125 1659.296875h0"/><path d="M840.195312 1704.882812l56.757813 78.828126"/><path d="M896.953125 1783.710938h0"/><path d="M842.851562 1824.492188l51.40625 82.421874"/><path d="M894.257812 1906.914062h0"/><path d="M844.921875 1944.726562l47.304687 84.84375"/><path d="M892.226562 2029.570312h0"/><path d="M846.523438 2065.273438 890.625 2151.875"/><path d="M890.625 2151.875h0"/><path d="M847.851562 2186.054688l41.445313 87.890624"/><path d="M889.296875 2273.945312h0"/><path d="M848.984375 2306.992188l39.179687 88.867187"/><path d="M888.164062 2395.859375h0"/><path d="M849.921875 2428.007812l37.304687 89.6875"/><path d="M887.226562 2517.695312h0"/><path d="M850.742188 2549.101562l35.664062 90.351563"/><path d="M886.40625 2639.453125h0"/><path d="M1012.65625 120.546875l35.625 90.351563"/><path d="M1048.28125 210.898438h0"/><path d="M1011.835938 242.304688l37.265624 89.6875"/><path d="M1049.101562 331.992188h0"/><path d="M1010.898438 364.140625l39.179687 88.867187"/><path d="M1050.078125 453.007812h0"/><path d="M1009.765625 486.054688l41.40625 87.890624"/><path d="M1051.171875 573.945312h0"/><path d="M1008.4375 608.164062l44.0625 86.5625"/><path d="M1052.5 694.726562h0"/><path d="M1006.835938 730.429688l47.304687 84.84375"/><path d="M1054.140625 815.273438h0"/><path d="M1004.765625 853.085938l51.40625 82.421874"/><path d="M1056.171875 935.507812h0"/><path d="M1002.109375 976.289062l56.757813 78.828126"/><path d="M1058.867188 1055.117188h0"/><path d="M998.359375 1100.703125l64.257813 72.851563"/><path d="M1062.617188 1173.554688h0"/><path d="M992.578125 1228.203125l75.78125 60.742187"/><path d="M1068.359375 1288.945312h0"/><path d="M981.914062 1380h97.148438"/><path d="M1079.0625 1380h0"/><path d="M992.578125 1471.054688l75.78125 60.742187"/><path d="M1068.359375 1531.796875h0"/><path d="M998.359375 1586.445312l64.257813 72.851563"/><path d="M1062.617188 1659.296875h0"/><path d="M1002.109375 1704.882812l56.757813 78.828126"/><path d="M1058.867188 1783.710938h0"/><path d="M1004.765625 1824.492188l51.40625 82.421874"/><path d="M1056.171875 1906.914062h0"/><path d="M1006.835938 1944.726562l47.304687 84.84375"/><path d="M1054.140625 2029.570312h0"/><path d="M1008.4375 2065.273438 1052.5 2151.875"/><path d="M1052.5 2151.875h0"/><path d="M1009.765625 2186.054688l41.40625 87.890624"/><path d="M1051.171875 2273.945312h0"/><path d="M1010.898438 2306.992188l39.179687 88.867187"/><path d="M1050.078125 2395.859375h0"/><path d="M1011.835938 2428.007812l37.265624 89.6875"/><path d="M1049.101562 2517.695312h0"/><path d="M1012.65625 2549.101562l35.625 90.351563"/><path d="M1048.28125 2639.453125h0"/><path d="M1174.570312 120.546875l35.625 90.351563"/><path d="M1210.195312 210.898438h0"/><path d="M1173.75 242.304688l37.265625 89.6875"/><path d="M1211.015625 331.992188h0"/><path d="M1172.773438 364.140625l39.21875 88.867187"/><path d="M1211.992188 453.007812h0"/><path d="M1171.679688 486.054688l41.40625 87.890624"/><path d="M1213.085938 573.945312h0"/><path d="M1170.351562 608.164062l44.0625 86.5625"/><path d="M1214.414062 694.726562h0"/><path d="M1168.710938 730.429688l47.34375 84.84375"/><path d="M1216.054688 815.273438h0"/><path d="M1166.679688 853.085938l51.40625 82.421874"/><path d="M1218.085938 935.507812h0"/><path d="M1163.984375 976.289062l56.757813 78.828126"/><path d="M1220.742188 1055.117188h0"/><path d="M1160.273438 1100.703125l64.21875 72.851563"/><path d="M1224.492188 1173.554688h0"/><path d="M1154.492188 1228.203125l75.78125 60.742187"/><path d="M1230.273438 1288.945312h0"/><path d="M1143.828125 1380h97.109375"/><path d="M1240.9375 1380h0"/><path d="M1154.492188 1471.054688l75.78125 60.742187"/><path d="M1230.273438 1531.796875h0"/><path d="M1160.273438 1586.445312l64.21875 72.851563"/><path d="M1224.492188 1659.296875h0"/><path d="M1163.984375 1704.882812l56.757813 78.828126"/><path d="M1220.742188 1783.710938h0"/><path d="M1166.679688 1824.492188l51.40625 82.421874"/><path d="M1218.085938 1906.914062h0"/><path d="M1168.710938 1944.726562l47.34375 84.84375"/><path d="M1216.054688 2029.570312h0"/><path d="M1170.351562 2065.273438l44.0625 86.601562"/><path d="M1214.414062 2151.875h0"/><path d="M1171.679688 2186.054688l41.40625 87.890624"/><path d="M1213.085938 2273.945312h0"/><path d="M1172.773438 2306.992188l39.21875 88.867187"/><path d="M1211.992188 2395.859375h0"/><path d="M1173.75 2428.007812l37.265625 89.6875"/><path d="M1211.015625 2517.695312h0"/><path d="M1174.570312 2549.101562l35.625 90.351563"/><path d="M1210.195312 2639.453125h0"/><path d="M1336.445312 120.546875l35.664063 90.351563"/><path d="M1372.109375 210.898438h0"/><path d="M1335.625 242.304688l37.304688 89.6875"/><path d="M1372.929688 331.992188h0"/><path d="M1334.6875 364.140625l39.179688 88.867187"/><path d="M1373.867188 453.007812h0"/><path d="M1333.554688 486.054688 1375 573.945312"/><path d="M1375 573.945312h0"/><path d="M1332.226562 608.164062l44.101563 86.5625"/><path d="M1376.328125 694.726562h0"/><path d="M1330.625 730.429688l47.34375 84.84375"/><path d="M1377.96875 815.273438h0"/><path d="M1328.59375 853.085938 1380 935.507812"/><path d="M1380 935.507812h0"/><path d="M1325.898438 976.289062l56.757812 78.828126"/><path d="M1382.65625 1055.117188h0"/><path d="M1322.148438 1100.703125l64.257812 72.851563"/><path d="M1386.40625 1173.554688h0"/><path d="M1316.40625 1228.203125l75.78125 60.742187"/><path d="M1392.1875 1288.945312h0"/><path d="M1305.703125 1380h97.148437"/><path d="M1402.851562 1380h0"/><path d="M1316.40625 1471.054688l75.78125 60.742187"/><path d="M1392.1875 1531.796875h0"/><path d="M1322.148438 1586.445312l64.257812 72.851563"/><path d="M1386.40625 1659.296875h0"/><path d="M1325.898438 1704.882812l56.757812 78.828126"/><path d="M1382.65625 1783.710938h0"/><path d="M1328.59375 1824.492188 1380 1906.914062"/><path d="M1380 1906.914062h0"/><path d="M1330.625 1944.726562l47.34375 84.84375"/><path d="M1377.96875 2029.570312h0"/><path d="M1332.226562 2065.273438l44.101563 86.601562"/><path d="M1376.328125 2151.875h0"/><path d="M1333.554688 2186.054688 1375 2273.945312"/><path d="M1375 2273.945312h0"/><path d="M1334.6875 2306.992188l39.179688 88.867187"/><path d="M1373.867188 2395.859375h0"/><path d="M1335.625 2428.007812l37.304688 89.6875"/><path d="M1372.929688 2517.695312h0"/><path d="M1336.445312 2549.101562l35.664063 90.351563"/><path d="M1372.109375 2639.453125h0"/><path d="M1498.359375 120.546875l35.664063 90.351563"/><path d="M1534.023438 210.898438h0"/><path d="M1497.539062 242.304688l37.304688 89.6875"/><path d="M1534.84375 331.992188h0"/><path d="M1496.601562 364.140625l39.179688 88.867187"/><path d="M1535.78125 453.007812h0"/><path d="M1495.46875 486.054688l41.445312 87.890624"/><path d="M1536.914062 573.945312h0"/><path d="M1494.140625 608.164062l44.101563 86.5625"/><path d="M1538.242188 694.726562h0"/><path d="M1492.539062 730.429688l47.304688 84.84375"/><path d="M1539.84375 815.273438h0"/><path d="M1490.507812 853.085938l51.367188 82.421874"/><path d="M1541.875 935.507812h0"/><path d="M1487.8125 976.289062l56.757812 78.828126"/><path d="M1544.570312 1055.117188h0"/><path d="M1484.0625 1100.703125l64.257812 72.851563"/><path d="M1548.320312 1173.554688h0"/><path d="M1478.28125 1228.203125l75.820312 60.742187"/><path d="M1554.101562 1288.945312h0"/><path d="M1467.617188 1380h97.148437"/><path d="M1564.765625 1380h0"/><path d="M1478.28125 1471.054688l75.820312 60.742187"/><path d="M1554.101562 1531.796875h0"/><path d="M1484.0625 1586.445312l64.257812 72.851563"/><path d="M1548.320312 1659.296875h0"/><path d="M1487.8125 1704.882812l56.757812 78.828126"/><path d="M1544.570312 1783.710938h0"/><path d="M1490.507812 1824.492188l51.367188 82.421874"/><path d="M1541.875 1906.914062h0"/><path d="M1492.539062 1944.726562l47.304688 84.84375"/><path d="M1539.84375 2029.570312h0"/><path d="M1494.140625 2065.273438l44.101563 86.601562"/><path d="M1538.242188 2151.875h0"/><path d="M1495.46875 2186.054688l41.445312 87.890624"/><path d="M1536.914062 2273.945312h0"/><path d="M1496.601562 2306.992188l39.179688 88.867187"/><path d="M1535.78125 2395.859375h0"/><path d="M1497.539062 2428.007812l37.304688 89.6875"/><path d="M1534.84375 2517.695312h0"/><path d="M1498.359375 2549.101562l35.664063 90.351563"/><path d="M1534.023438 2639.453125h0"/><path d="M1660.273438 120.546875l35.664062 90.351563"/><path d="M1695.9375 210.898438h0"/><path d="M1659.453125 242.304688l37.304687 89.6875"/><path d="M1696.757812 331.992188h0"/><path d="M1658.515625 364.140625l39.179687 88.867187"/><path d="M1697.695312 453.007812h0"/><path d="M1657.382812 486.054688l41.40625 87.890624"/><path d="M1698.789062 573.945312h0"/><path d="M1656.054688 608.164062l44.0625 86.5625"/><path d="M1700.117188 694.726562h0"/><path d="M1654.453125 730.429688l47.304687 84.84375"/><path d="M1701.757812 815.273438h0"/><path d="M1652.382812 853.085938l51.40625 82.421874"/><path d="M1703.789062 935.507812h0"/><path d="M1649.726562 976.289062l56.757813 78.828126"/><path d="M1706.484375 1055.117188h0"/><path d="M1645.976562 1100.703125l64.257813 72.851563"/><path d="M1710.234375 1173.554688h0"/><path d="M1640.195312 1228.203125l75.78125 60.742187"/><path d="M1715.976562 1288.945312h0"/><path d="M1629.53125 1380h97.148438"/><path d="M1726.679688 1380h0"/><path d="M1640.195312 1471.054688l75.78125 60.742187"/><path d="M1715.976562 1531.796875h0"/><path d="M1645.976562 1586.445312l64.257813 72.851563"/><path d="M1710.234375 1659.296875h0"/><path d="M1649.726562 1704.882812l56.757813 78.828126"/><path d="M1706.484375 1783.710938h0"/><path d="M1652.382812 1824.492188l51.40625 82.421874"/><path d="M1703.789062 1906.914062h0"/><path d="M1654.453125 1944.726562l47.304687 84.84375"/><path d="M1701.757812 2029.570312h0"/><path d="M1656.054688 2065.273438l44.0625 86.601562"/><path d="M1700.117188 2151.875h0"/><path d="M1657.382812 2186.054688l41.40625 87.890624"/><path d="M1698.789062 2273.945312h0"/><path d="M1658.515625 2306.992188l39.179687 88.867187"/><path d="M1697.695312 2395.859375h0"/><path d="M1659.453125 2428.007812l37.304687 89.6875"/><path d="M1696.757812 2517.695312h0"/><path d="M1660.273438 2549.101562l35.664062 90.351563"/><path d="M1695.9375 2639.453125h0"/><path d="M1822.1875 120.546875l35.625 90.351563"/><path d="M1857.8125 210.898438h0"/><path d="M1821.367188 242.304688l37.265624 89.6875"/><path d="M1858.632812 331.992188h0"/><path d="M1820.390625 364.140625l39.21875 88.867187"/><path d="M1859.609375 453.007812h0"/><path d="M1819.296875 486.054688l41.40625 87.890624"/><path d="M1860.703125 573.945312h0"/><path d="M1817.96875 608.164062l44.0625 86.5625"/><path d="M1862.03125 694.726562h0"/><path d="M1816.328125 730.429688l47.34375 84.84375"/><path d="M1863.671875 815.273438h0"/><path d="M1814.296875 853.085938l51.40625 82.421874"/><path d="M1865.703125 935.507812h0"/><path d="M1811.601562 976.289062l56.796876 78.828126"/><path d="M1868.398438 1055.117188h0"/><path d="M1807.890625 1100.703125l64.21875 72.851563"/><path d="M1872.109375 1173.554688h0"/><path d="M1802.109375 1228.203125l75.78125 60.742187"/><path d="M1877.890625 1288.945312h0"/><path d="M1791.445312 1380h97.109376"/><path d="M1888.554688 1380h0"/><path d="M1802.109375 1471.054688l75.78125 60.742187"/><path d="M1877.890625 1531.796875h0"/><path d="M1807.890625 1586.445312l64.21875 72.851563"/><path d="M1872.109375 1659.296875h0"/><path d="M1811.601562 1704.882812l56.796876 78.828126"/><path d="M1868.398438 1783.710938h0"/><path d="M1814.296875 1824.492188l51.40625 82.421874"/><path d="M1865.703125 1906.914062h0"/><path d="M1816.328125 1944.726562l47.34375 84.84375"/><path d="M1863.671875 2029.570312h0"/><path d="M1817.96875 2065.273438l44.0625 86.601562"/><path d="M1862.03125 2151.875h0"/><path d="M1819.296875 2186.054688l41.40625 87.890624"/><path d="M1860.703125 2273.945312h0"/><path d="M1820.390625 2306.992188l39.21875 88.867187"/><path d="M1859.609375 2395.859375h0"/><path d="M1821.367188 2428.007812l37.265624 89.6875"/><path d="M1858.632812 2517.695312h0"/><path d="M1822.1875 2549.101562l35.625 90.351563"/><path d="M1857.8125 2639.453125h0"/><path d="M1984.0625 120.546875l35.664062 90.351563"/><path d="M2019.726562 210.898438h0"/><path d="M1983.242188 242.304688l37.304687 89.6875"/><path d="M2020.546875 331.992188h0"/><path d="M1982.304688 364.140625l39.179687 88.867187"/><path d="M2021.484375 453.007812h0"/><path d="M1981.210938 486.054688l41.40625 87.890624"/><path d="M2022.617188 573.945312h0"/><path d="M1979.882812 608.164062l44.0625 86.5625"/><path d="M2023.945312 694.726562h0"/><path d="M1978.242188 730.429688l47.304687 84.84375"/><path d="M2025.546875 815.273438h0"/><path d="M1976.210938 853.085938l51.40625 82.421874"/><path d="M2027.617188 935.507812h0"/><path d="M1973.515625 976.289062l56.757813 78.828126"/><path d="M2030.273438 1055.117188h0"/><path d="M1969.765625 1100.703125l64.257813 72.851563"/><path d="M2034.023438 1173.554688h0"/><path d="M1964.023438 1228.203125l75.78125 60.742187"/><path d="M2039.804688 1288.945312h0"/><path d="M1953.320312 1380h97.148438"/><path d="M2050.46875 1380h0"/><path d="M1964.023438 1471.054688l75.78125 60.742187"/><path d="M2039.804688 1531.796875h0"/><path d="M1969.765625 1586.445312l64.257813 72.851563"/><path d="M2034.023438 1659.296875h0"/><path d="M1973.515625 1704.882812l56.757813 78.828126"/><path d="M2030.273438 1783.710938h0"/><path d="M1976.210938 1824.492188l51.40625 82.421874"/><path d="M2027.617188 1906.914062h0"/><path d="M1978.242188 1944.726562l47.304687 84.84375"/><path d="M2025.546875 2029.570312h0"/><path d="M1979.882812 2065.273438l44.0625 86.601562"/><path d="M2023.945312 2151.875h0"/><path d="M1981.210938 2186.054688l41.40625 87.890624"/><path d="M2022.617188 2273.945312h0"/><path d="M1982.304688 2306.992188l39.179687 88.867187"/><path d="M2021.484375 2395.859375h0"/><path d="M1983.242188 2428.007812l37.304687 89.6875"/><path d="M2020.546875 2517.695312h0"/><path d="M1984.0625 2549.101562l35.664062 90.351563"/><path d="M2019.726562 2639.453125h0"/><path d="M2145.976562 120.546875l35.664063 90.351563"/><path d="M2181.640625 210.898438h0"/><path d="M2145.15625 242.304688l37.304688 89.6875"/><path d="M2182.460938 331.992188h0"/><path d="M2144.21875 364.140625l39.179688 88.867187"/><path d="M2183.398438 453.007812h0"/><path d="M2143.085938 486.054688l41.445312 87.890624"/><path d="M2184.53125 573.945312h0"/><path d="M2141.757812 608.164062l44.101563 86.5625"/><path d="M2185.859375 694.726562h0"/><path d="M2140.15625 730.429688l47.304688 84.84375"/><path d="M2187.460938 815.273438h0"/><path d="M2138.125 853.085938l51.367188 82.421874"/><path d="M2189.492188 935.507812h0"/><path d="M2135.429688 976.289062l56.757812 78.828126"/><path d="M2192.1875 1055.117188h0"/><path d="M2131.679688 1100.703125l64.257812 72.851563"/><path d="M2195.9375 1173.554688h0"/><path d="M2125.898438 1228.203125l75.820312 60.742187"/><path d="M2201.71875 1288.945312h0"/><path d="M2115.234375 1380h97.148437"/><path d="M2212.382812 1380h0"/><path d="M2125.898438 1471.054688l75.820312 60.742187"/><path d="M2201.71875 1531.796875h0"/><path d="M2131.679688 1586.445312l64.257812 72.851563"/><path d="M2195.9375 1659.296875h0"/><path d="M2135.429688 1704.882812l56.757812 78.828126"/><path d="M2192.1875 1783.710938h0"/><path d="M2138.125 1824.492188l51.367188 82.421874"/><path d="M2189.492188 1906.914062h0"/><path d="M2140.15625 1944.726562l47.304688 84.84375"/><path d="M2187.460938 2029.570312h0"/><path d="M2141.757812 2065.273438l44.101563 86.601562"/><path d="M2185.859375 2151.875h0"/><path d="M2143.085938 2186.054688l41.445312 87.890624"/><path d="M2184.53125 2273.945312h0"/><path d="M2144.21875 2306.992188l39.179688 88.867187"/><path d="M2183.398438 2395.859375h0"/><path d="M2145.15625 2428.007812l37.304688 89.6875"/><path d="M2182.460938 2517.695312h0"/><path d="M2145.976562 2549.101562l35.664063 90.351563"/><path d="M2181.640625 2639.453125h0"/><path d="M2307.890625 120.546875l35.664063 90.351563"/><path d="M2343.554688 210.898438h0"/><path d="M2307.070312 242.304688l37.304688 89.6875"/><path d="M2344.375 331.992188h0"/><path d="M2306.132812 364.140625l39.179688 88.867187"/><path d="M2345.3125 453.007812h0"/><path d="M2305 486.054688l41.445312 87.890624"/><path d="M2346.445312 573.945312h0"/><path d="M2303.671875 608.164062l44.101563 86.5625"/><path d="M2347.773438 694.726562h0"/><path d="M2302.03125 730.429688l47.34375 84.84375"/><path d="M2349.375 815.273438h0"/><path d="M2300 853.085938l51.40625 82.421874"/><path d="M2351.40625 935.507812h0"/><path d="M2297.34375 976.289062l56.757812 78.828126"/><path d="M2354.101562 1055.117188h0"/><path d="M2293.59375 1100.703125l64.257812 72.851563"/><path d="M2357.851562 1173.554688h0"/><path d="M2287.8125 1228.203125l75.78125 60.742187"/><path d="M2363.59375 1288.945312h0"/><path d="M2277.148438 1380h97.148437"/><path d="M2374.296875 1380h0"/><path d="M2287.8125 1471.054688l75.78125 60.742187"/><path d="M2363.59375 1531.796875h0"/><path d="M2293.59375 1586.445312l64.257812 72.851563"/><path d="M2357.851562 1659.296875h0"/><path d="M2297.34375 1704.882812l56.757812 78.828126"/><path d="M2354.101562 1783.710938h0"/><path d="M2300 1824.492188l51.40625 82.421874"/><path d="M2351.40625 1906.914062h0"/><path d="M2302.03125 1944.726562l47.34375 84.84375"/><path d="M2349.375 2029.570312h0"/><path d="M2303.671875 2065.273438l44.101563 86.601562"/><path d="M2347.773438 2151.875h0"/><path d="M2305 2186.054688l41.445312 87.890624"/><path d="M2346.445312 2273.945312h0"/><path d="M2306.132812 2306.992188l39.179688 88.867187"/><path d="M2345.3125 2395.859375h0"/><path d="M2307.070312 2428.007812l37.304688 89.6875"/><path d="M2344.375 2517.695312h0"/><path d="M2307.890625 2549.101562l35.664063 90.351563"/><path d="M2343.554688 2639.453125h0"/><path d="M2469.804688 120.546875l35.625 90.351563"/><path d="M2505.429688 210.898438h0"/><path d="M2468.984375 242.304688l37.265625 89.6875"/><path d="M2506.25 331.992188h0"/><path d="M2468.007812 364.140625l39.21875 88.867187"/><path d="M2507.226562 453.007812h0"/><path d="M2466.914062 486.054688l41.40625 87.890624"/><path d="M2508.320312 573.945312h0"/><path d="M2465.585938 608.164062l44.0625 86.5625"/><path d="M2509.648438 694.726562h0"/><path d="M2463.945312 730.429688l47.34375 84.84375"/><path d="M2511.289062 815.273438h0"/><path d="M2461.914062 853.085938l51.40625 82.421874"/><path d="M2513.320312 935.507812h0"/><path d="M2459.257812 976.289062l56.757813 78.828126"/><path d="M2516.015625 1055.117188h0"/><path d="M2455.507812 1100.703125l64.21875 72.851563"/><path d="M2519.726562 1173.554688h0"/><path d="M2449.726562 1228.203125l75.78125 60.742187"/><path d="M2525.507812 1288.945312h0"/><path d="M2439.0625 1380h97.109375"/><path d="M2536.171875 1380h0"/><path d="M2449.726562 1471.054688l75.78125 60.742187"/><path d="M2525.507812 1531.796875h0"/><path d="M2455.507812 1586.445312l64.21875 72.851563"/><path d="M2519.726562 1659.296875h0"/><path d="M2459.257812 1704.882812l56.757813 78.828126"/><path d="M2516.015625 1783.710938h0"/><path d="M2461.914062 1824.492188l51.40625 82.421874"/><path d="M2513.320312 1906.914062h0"/><path d="M2463.945312 1944.726562l47.34375 84.84375"/><path d="M2511.289062 2029.570312h0"/><path d="M2465.585938 2065.273438l44.0625 86.601562"/><path d="M2509.648438 2151.875h0"/><path d="M2466.914062 2186.054688l41.40625 87.890624"/><path d="M2508.320312 2273.945312h0"/><path d="M2468.007812 2306.992188l39.21875 88.867187"/><path d="M2507.226562 2395.859375h0"/><path d="M2468.984375 2428.007812l37.265625 89.6875"/><path d="M2506.25 2517.695312h0"/><path d="M2469.804688 2549.101562l35.625 90.351563"/><path d="M2505.429688 2639.453125h0"/><path d="M2631.71875 120.546875l35.625 90.351563"/><path d="M2667.34375 210.898438h0"/><path d="M2630.898438 242.304688l37.265624 89.6875"/><path d="M2668.164062 331.992188h0"/><path d="M2629.921875 364.140625l39.179687 88.867187"/><path d="M2669.101562 453.007812h0"/><path d="M2628.828125 486.054688l41.40625 87.890624"/><path d="M2670.234375 573.945312h0"/><path d="M2627.5 608.164062l44.0625 86.5625"/><path d="M2671.5625 694.726562h0"/><path d="M2625.859375 730.429688l47.304687 84.84375"/><path d="M2673.164062 815.273438h0"/><path d="M2623.828125 853.085938l51.40625 82.421874"/><path d="M2675.234375 935.507812h0"/><path d="M2621.132812 976.289062l56.757813 78.828126"/><path d="M2677.890625 1055.117188h0"/><path d="M2617.382812 1100.703125l64.257813 72.851563"/><path d="M2681.640625 1173.554688h0"/><path d="M2611.640625 1228.203125l75.78125 60.742187"/><path d="M2687.421875 1288.945312h0"/><path d="M2600.9375 1380h97.148438"/><path d="M2698.085938 1380h0"/><path d="M2611.640625 1471.054688l75.78125 60.742187"/><path d="M2687.421875 1531.796875h0"/><path d="M2617.382812 1586.445312l64.257813 72.851563"/><path d="M2681.640625 1659.296875h0"/><path d="M2621.132812 1704.882812l56.757813 78.828126"/><path d="M2677.890625 1783.710938h0"/><path d="M2623.828125 1824.492188l51.40625 82.421874"/><path d="M2675.234375 1906.914062h0"/><path d="M2625.859375 1944.726562l47.304687 84.84375"/><path d="M2673.164062 2029.570312h0"/><path d="M2627.5 2065.273438l44.0625 86.601562"/><path d="M2671.5625 2151.875h0"/><path d="M2628.828125 2186.054688l41.40625 87.890624"/><path d="M2670.234375 2273.945312h0"/><path d="M2629.921875 2306.992188l39.179687 88.867187"/><path d="M2669.101562 2395.859375h0"/><path d="M2630.898438 2428.007812l37.265624 89.6875"/><path d="M2668.164062 2517.695312h0"/><path d="M2631.71875 2549.101562l35.625 90.351563"/><path d="M2667.34375 2639.453125h0"/><path d="M2793.59375 120.546875l35.664062 90.351563"/><path d="M2829.257812 210.898438h0"/><path d="M2792.773438 242.304688l37.304687 89.6875"/><path d="M2830.078125 331.992188h0"/><path d="M2791.835938 364.140625l39.179687 88.867187"/><path d="M2831.015625 453.007812h0"/><path d="M2790.703125 486.054688l41.445313 87.890624"/><path d="M2832.148438 573.945312h0"/><path d="M2789.375 608.164062l44.101562 86.5625"/><path d="M2833.476562 694.726562h0"/><path d="M2787.773438 730.429688l47.304687 84.84375"/><path d="M2835.078125 815.273438h0"/><path d="M2785.742188 853.085938l51.40625 82.421874"/><path d="M2837.148438 935.507812h0"/><path d="M2783.046875 976.289062l56.757813 78.828126"/><path d="M2839.804688 1055.117188h0"/><path d="M2779.296875 1100.703125l64.257813 72.851563"/><path d="M2843.554688 1173.554688h0"/><path d="M2773.515625 1228.203125l75.820313 60.742187"/><path d="M2849.335938 1288.945312h0"/><path d="M2762.851562 1380H2860"/><path d="M2860 1380h0"/><path d="M2773.515625 1471.054688l75.820313 60.742187"/><path d="M2849.335938 1531.796875h0"/><path d="M2779.296875 1586.445312l64.257813 72.851563"/><path d="M2843.554688 1659.296875h0"/><path d="M2783.046875 1704.882812l56.757813 78.828126"/><path d="M2839.804688 1783.710938h0"/><path d="M2785.742188 1824.492188l51.40625 82.421874"/><path d="M2837.148438 1906.914062h0"/><path d="M2787.773438 1944.726562l47.304687 84.84375"/><path d="M2835.078125 2029.570312h0"/><path d="M2789.375 2065.273438l44.101562 86.601562"/><path d="M2833.476562 2151.875h0"/><path d="M2790.703125 2186.054688l41.445313 87.890624"/><path d="M2832.148438 2273.945312h0"/><path d="M2791.835938 2306.992188l39.179687 88.867187"/><path d="M2831.015625 2395.859375h0"/><path d="M2792.773438 2428.007812l37.304687 89.6875"/><path d="M2830.078125 2517.695312h0"/><path d="M2793.59375 2549.101562l35.664062 90.351563"/><path d="M2829.257812 2639.453125h0"/><path d="M2955.507812 120.546875l35.664063 90.351563"/><path d="M2991.171875 210.898438h0"/><path d="M2954.6875 242.304688l37.304688 89.6875"/><path d="M2991.992188 331.992188h0"/><path d="M2953.75 364.140625l39.179688 88.867187"/><path d="M2992.929688 453.007812h0"/><path d="M2952.617188 486.054688l41.40625 87.890624"/><path d="M2994.023438 573.945312h0"/><path d="M2951.289062 608.164062l44.101563 86.5625"/><path d="M2995.390625 694.726562h0"/><path d="M2949.6875 730.429688l47.304688 84.84375"/><path d="M2996.992188 815.273438h0"/><path d="M2947.617188 853.085938l51.40625 82.421874"/><path d="M2999.023438 935.507812h0"/><path d="M2944.960938 976.289062l56.757812 78.828126"/><path d="M3001.71875 1055.117188h0"/><path d="M2941.210938 1100.703125l64.257812 72.851563"/><path d="M3005.46875 1173.554688h0"/><path d="M2935.429688 1228.203125l75.78125 60.742187"/><path d="M3011.210938 1288.945312h0"/><path d="M2924.765625 1380h97.148437"/><path d="M3021.914062 1380h0"/><path d="M2935.429688 1471.054688l75.78125 60.742187"/><path d="M3011.210938 1531.796875h0"/><path d="M2941.210938 1586.445312l64.257812 72.851563"/><path d="M3005.46875 1659.296875h0"/><path d="M2944.960938 1704.882812l56.757812 78.828126"/><path d="M3001.71875 1783.710938h0"/><path d="M2947.617188 1824.492188l51.40625 82.421874"/><path d="M2999.023438 1906.914062h0"/><path d="M2949.6875 1944.726562l47.304688 84.84375"/><path d="M2996.992188 2029.570312h0"/><path d="M2951.289062 2065.273438l44.101563 86.601562"/><path d="M2995.390625 2151.875h0"/><path d="M2952.617188 2186.054688l41.40625 87.890624"/><path d="M2994.023438 2273.945312h0"/><path d="M2953.75 2306.992188l39.179688 88.867187"/><path d="M2992.929688 2395.859375h0"/><path d="M2954.6875 2428.007812l37.304688 89.6875"/><path d="M2991.992188 2517.695312h0"/><path d="M2955.507812 2549.101562l35.664063 90.351563"/><path d="M2991.171875 2639.453125h0"/><path d="M3117.421875 120.546875l35.625 90.351563"/><path d="M3153.046875 210.898438h0"/><path d="M3116.601562 242.304688l37.265626 89.6875"/><path d="M3153.867188 331.992188h0"/><path d="M3115.625 364.140625l39.21875 88.867187"/><path d="M3154.84375 453.007812h0"/><path d="M3114.53125 486.054688l41.40625 87.890624"/><path d="M3155.9375 573.945312h0"/><path d="M3113.203125 608.164062l44.0625 86.5625"/><path d="M3157.265625 694.726562h0"/><path d="M3111.5625 730.429688l47.34375 84.84375"/><path d="M3158.90625 815.273438h0"/><path d="M3109.53125 853.085938l51.40625 82.421874"/><path d="M3160.9375 935.507812h0"/><path d="M3106.875 976.289062l56.757812 78.828126"/><path d="M3163.632812 1055.117188h0"/><path d="M3103.125 1100.703125l64.21875 72.851563"/><path d="M3167.34375 1173.554688h0"/><path d="M3097.34375 1228.203125l75.78125 60.742187"/><path d="M3173.125 1288.945312h0"/><path d="M3086.679688 1380h97.148437"/><path d="M3183.828125 1380h0"/><path d="M3097.34375 1471.054688l75.78125 60.742187"/><path d="M3173.125 1531.796875h0"/><path d="M3103.125 1586.445312l64.21875 72.851563"/><path d="M3167.34375 1659.296875h0"/><path d="M3106.875 1704.882812l56.757812 78.828126"/><path d="M3163.632812 1783.710938h0"/><path d="M3109.53125 1824.492188l51.40625 82.421874"/><path d="M3160.9375 1906.914062h0"/><path d="M3111.5625 1944.726562l47.34375 84.84375"/><path d="M3158.90625 2029.570312h0"/><path d="M3113.203125 2065.273438l44.0625 86.601562"/><path d="M3157.265625 2151.875h0"/><path d="M3114.53125 2186.054688l41.40625 87.890624"/><path d="M3155.9375 2273.945312h0"/><path d="M3115.625 2306.992188l39.21875 88.867187"/><path d="M3154.84375 2395.859375h0"/><path d="M3116.601562 2428.007812l37.265626 89.6875"/><path d="M3153.867188 2517.695312h0"/><path d="M3117.421875 2549.101562l35.625 90.351563"/><path d="M3153.046875 2639.453125h0"/><path d="M3279.335938 120.546875l35.625 90.351563"/><path d="M3314.960938 210.898438h0"/><path d="M3278.515625 242.304688l37.265625 89.6875"/><path d="M3315.78125 331.992188h0"/><path d="M3277.539062 364.140625l39.21875 88.867187"/><path d="M3316.757812 453.007812h0"/><path d="M3276.445312 486.054688l41.40625 87.890624"/><path d="M3317.851562 573.945312h0"/><path d="M3275.117188 608.164062l44.0625 86.5625"/><path d="M3319.179688 694.726562h0"/><path d="M3273.476562 730.429688l47.304688 84.84375"/><path d="M3320.78125 815.273438h0"/><path d="M3271.445312 853.085938l51.40625 82.421874"/><path d="M3322.851562 935.507812h0"/><path d="M3268.75 976.289062l56.757812 78.828126"/><path d="M3325.507812 1055.117188h0"/><path d="M3265.039062 1100.703125l64.21875 72.851563"/><path d="M3329.257812 1173.554688h0"/><path d="M3259.257812 1228.203125l75.78125 60.742187"/><path d="M3335.039062 1288.945312h0"/><path d="M3248.554688 1380h97.148437"/><path d="M3345.703125 1380h0"/><path d="M3259.257812 1471.054688l75.78125 60.742187"/><path d="M3335.039062 1531.796875h0"/><path d="M3265.039062 1586.445312l64.21875 72.851563"/><path d="M3329.257812 1659.296875h0"/><path d="M3268.75 1704.882812l56.757812 78.828126"/><path d="M3325.507812 1783.710938h0"/><path d="M3271.445312 1824.492188l51.40625 82.421874"/><path d="M3322.851562 1906.914062h0"/><path d="M3273.476562 1944.726562l47.304688 84.84375"/><path d="M3320.78125 2029.570312h0"/><path d="M3275.117188 2065.273438l44.0625 86.601562"/><path d="M3319.179688 2151.875h0"/><path d="M3276.445312 2186.054688l41.40625 87.890624"/><path d="M3317.851562 2273.945312h0"/><path d="M3277.539062 2306.992188l39.21875 88.867187"/><path d="M3316.757812 2395.859375h0"/><path d="M3278.515625 2428.007812l37.265625 89.6875"/><path d="M3315.78125 2517.695312h0"/><path d="M3279.335938 2549.101562l35.625 90.351563"/><path d="M3314.960938 2639.453125h0"/><path d="M3441.210938 120.546875l35.664062 90.351563"/><path d="M3476.875 210.898438h0"/><path d="M3440.390625 242.304688l37.304687 89.6875"/><path d="M3477.695312 331.992188h0"/><path d="M3439.453125 364.140625l39.179687 88.867187"/><path d="M3478.632812 453.007812h0"/><path d="M3438.359375 486.054688l41.40625 87.890624"/><path d="M3479.765625 573.945312h0"/><path d="M3436.992188 608.164062l44.101562 86.5625"/><path d="M3481.09375 694.726562h0"/><path d="M3435.390625 730.429688l47.304687 84.84375"/><path d="M3482.695312 815.273438h0"/><path d="M3433.359375 853.085938l51.40625 82.421874"/><path d="M3484.765625 935.507812h0"/><path d="M3430.664062 976.289062l56.757813 78.828126"/><path d="M3487.421875 1055.117188h0"/><path d="M3426.914062 1100.703125l64.257813 72.851563"/><path d="M3491.171875 1173.554688h0"/><path d="M3421.132812 1228.203125l75.820313 60.742187"/><path d="M3496.953125 1288.945312h0"/><path d="M3410.46875 1380h97.148438"/><path d="M3507.617188 1380h0"/><path d="M3421.132812 1471.054688l75.820313 60.742187"/><path d="M3496.953125 1531.796875h0"/><path d="M3426.914062 1586.445312l64.257813 72.851563"/><path d="M3491.171875 1659.296875h0"/><path d="M3430.664062 1704.882812l56.757813 78.828126"/><path d="M3487.421875 1783.710938h0"/><path d="M3433.359375 1824.492188l51.40625 82.421874"/><path d="M3484.765625 1906.914062h0"/><path d="M3435.390625 1944.726562l47.304687 84.84375"/><path d="M3482.695312 2029.570312h0"/><path d="M3436.992188 2065.273438l44.101562 86.601562"/><path d="M3481.09375 2151.875h0"/><path d="M3438.359375 2186.054688l41.40625 87.890624"/><path d="M3479.765625 2273.945312h0"/><path d="M3439.453125 2306.992188l39.179687 88.867187"/><path d="M3478.632812 2395.859375h0"/><path d="M3440.390625 2428.007812l37.304687 89.6875"/><path d="M3477.695312 2517.695312h0"/><path d="M3441.210938 2549.101562l35.664062 90.351563"/><path d="M3476.875 2639.453125h0"/></g><g clip-path="url(#x)"><path d="M842.65625 53.867188l34.023438 88.554687 33.984374 85.46875 34.023438 82.460937 33.984375 79.375 33.984375 76.328126 34.023438 73.242187 33.984374 70.195313 34.023438 67.148437 33.984375 64.0625 33.984375 61.015625 34.023438 57.96875 33.984374 54.921875 34.023438 51.835937 33.984375 48.789063 33.984375 45.703125 34.023438 42.65625 33.984374 39.609375 34.023438 36.523437 33.984375 33.476563 33.984375 30.429687 34.023438 27.34375 33.984374 24.296876 34.023438 21.25 33.984375 18.203124 33.984375 15.078126 34.023438 12.070312 33.984374 9.023438 34.023438 5.9375 33.984375 2.851562 33.984375 1.09375 34.023438 3.476562 33.984374 6.640626 34.023438 9.6875 33.984375 12.734374 33.984375 15.820313 34.023438 18.867187 33.984374 21.914063 34.023438 25 33.984375 28.046875 33.984375 31.09375 34.023438 34.179688 33.984374 37.226562 34.023438 40.3125 33.984375 43.320312 33.984375 46.445313L2406.679688 1805l33.984374 52.539062L2474.6875 1913.125l33.984375 58.632812 33.984375 61.71875 34.023438 64.765626 33.984374 67.851562 34.023438 70.859375 33.984375 73.984375 33.984375 76.992188 34.023438 80.078124 33.984374 83.125 34.023438 86.171876 33.984375 89.257812" class="f"/></g><g clip-path="url(#y)"><use href="#b" class="f"/></g><style>.a{fill:none;stroke:#bfbfbf;stroke-dasharray:12.5,18.75;stroke-linecap:round;stroke-miterlimit:10;stroke-width:6.25;transform:matrix(.1,0,0,-.1,0,274)}.b{fill:none;stroke:#000;stroke-miterlimit:10;transform:matrix(.1,0,0,-.1,0,274)}.c{stroke-linecap:square;stroke-width:12.5}.d{stroke-width:6.25}.e{fill:none;stroke:#bfbfbf;stroke-linecap:round;stroke-miterlimit:10;stroke-width:6.25;transform:matrix(.1,0,0,-.1,0,274)}.f{fill:none;stroke:red;stroke-linecap:round;stroke-linejoin:round;stroke-miterlimit:10;stroke-width:12.5;transform:matrix(.1,0,0,-.1,0,274)}</style></svg>