<svg xmlns="http://www.w3.org/2000/svg" width="382pt" height="274pt" viewBox="0 0 382 274"><defs><path d="M2.0625-5.3125c-.5 0-.9375.21875-1.21875.578125C.5-4.265625.328125-3.5625.328125-2.578125c0 1.796875.59375 2.75 1.734375 2.75 1.125 0 1.734375-.953125 1.734375-2.703125 0-1.03125-.15625-1.71875-.515625-2.203125C3-5.109375 2.5625-5.3125 2.0625-5.3125zm0 .5781c.71875 0 1.0625.71875 1.0625 2.140625C3.125-1.078125 2.78125-.375 2.046875-.375 1.34375-.375 1-1.109375 1-2.5625c0-1.453125.34375-2.171875 1.0625-2.171875zm0 0" id="b"/><path d="M3.5625-5.3125H.8281L.4219-2.4219h.6094c.3125-.375.5625-.5.984375-.5.703125 0 1.15625.484375 1.15625 1.28125 0 .765625-.4375 1.234375-1.15625 1.234375-.578125 0-.9375-.296875-1.09375-.90625h-.6562c.09375.4375.15625.65625.3125.84375.3125.40625.84375.640625 1.453125.640625 1.0625 0 1.8125-.78125 1.8125-1.90625C3.84375-2.78125 3.15625-3.5 2.125-3.5c-.375 0-.671875.09375-.984375.3125l.2188-1.4844H3.5625zm0 0" id="c"/><path d="M1.9375-3.7812V0h.6719v-5.3125h-.4375c-.2344.8125-.39065.921875-1.406275 1.046875v.4844zm0 0" id="e"/><path d="M3.7969-.6562H1c.0625-.4375.3125-.703125.953125-1.09375l.75-.4062c.75-.40625 1.125-.953125 1.125-1.59375 0-.453125-.171875-.859375-.484375-1.140625C3.015625-5.1875 2.625-5.3125 2.125-5.3125c-.671875 0-1.171875.234375-1.46875.6875-.1875.28125-.265625.609375-.28125 1.15625h.6563c.03125-.359375.078125-.578125.15625-.75.171875-.328125.515625-.515625.921875-.515625.59375 0 1.046875.421875 1.046875.984375 0 .421875-.25.78125-.71875 1.0625l-.6875.3906C.640625-1.671875.3125-1.171875.25 0h3.5469zm0 0" id="f"/><path d="M2.125-2.3437H.3438v.5469H2.125zm0 0" id="g"/><path d="M1.4375-.7812H.6563V0h.7813zm0 0" id="d"/><path d="M3.9063-5.3125H.3438v.6406h2.875C1.953125-2.859375 1.4375-1.75 1.03125 0h.7031c.296875-1.703125.96875-3.171875 2.171875-4.765625zm0 0" id="h"/><clipPath id="i"><path d="M21 8.5h1v255h-1zm0 0"/></clipPath><clipPath id="j"><path d="M21 178h340v1H21zm0 0"/></clipPath><clipPath id="k"><path d="M21 8.5h1v255h-1zm0 0"/></clipPath><clipPath id="l"><path d="M105 8.5h2v255h-2zm0 0"/></clipPath><clipPath id="m"><path d="M190 8.5h2v255h-2zm0 0"/></clipPath><clipPath id="n"><path d="M275 8.5h2v255h-2zm0 0"/></clipPath><clipPath id="o"><path d="M360 8.5h1v255h-1zm0 0"/></clipPath><clipPath id="p"><path d="M21 263h340v.5H21zm0 0"/></clipPath><clipPath id="q"><path d="M21 220h340v2H21zm0 0"/></clipPath><clipPath id="r"><path d="M21 178h340v1H21zm0 0"/></clipPath><clipPath id="s"><path d="M21 135h340v2H21zm0 0"/></clipPath><clipPath id="t"><path d="M21 93h340v1H21zm0 0"/></clipPath><clipPath id="u"><path d="M21 50h340v2H21zm0 0"/></clipPath><clipPath id="v"><path d="M21 8.5h340V9H21zm0 0"/></clipPath><clipPath id="w"><path d="M21 8.5h340V95H21zm0 0"/></clipPath><clipPath id="x"><path d="M21 92h340v3H21zm0 0"/></clipPath><clipPath id="y"><path d="M21 177h340v3H21zm0 0"/></clipPath><clipPath id="z"><path d="M21 107h340v73H21zm0 0"/></clipPath><clipPath id="A"><path d="M21 177h270v86.5H21zm0 0"/></clipPath><clipPath id="B"><path d="M21 178h192v85.5H21zm0 0"/></clipPath><clipPath id="C"><path d="M21 94h340v85H21zm0 0"/></clipPath><clipPath id="D"><path d="M21 92h340v81H21zm0 0"/></clipPath><clipPath id="E"><path d="M21 182h79v81.5H21zm0 0"/></clipPath><path id="a" d="M210 105v2550"/></defs><path fill="#fff" d="M21 263.5h340V8.5H21zm0 0"/><g clip-path="url(#i)"><use href="#a" class="f"/></g><g clip-path="url(#j)"><path d="M210 955h3400" class="f"/></g><g clip-path="url(#k)"><use href="#a" class="a"/></g><g clip-path="url(#l)"><path d="M1060 105v2550" class="a"/></g><g clip-path="url(#m)"><path d="M1910 105v2550" class="a"/></g><g clip-path="url(#n)"><path d="M2760 105v2550" class="a"/></g><g clip-path="url(#o)"><path d="M3610 105v2550" class="a"/></g><g clip-path="url(#p)"><path d="M210 105h3400" class="a"/></g><g clip-path="url(#q)"><path d="M210 530h3400" class="a"/></g><g clip-path="url(#r)"><path d="M210 955h3400" class="a"/></g><g clip-path="url(#s)"><path d="M210 1380h3400" class="a"/></g><g clip-path="url(#t)"><path d="M210 1805h3400" class="a"/></g><g clip-path="url(#u)"><path d="M210 2230h3400" class="a"/></g><g clip-path="url(#v)"><path d="M210 2655h3400" class="a"/></g><g class="c"><path d="M210 105h3400" class="d"/><g class="e"><path d="M210 105v50"/><path d="M295 105v25"/><path d="M380 105v25"/><path d="M465 105v25"/><path d="M550 105v25"/><path d="M635 105v25"/><path d="M720 105v25"/><path d="M805 105v25"/><path d="M890 105v25"/><path d="M975 105v25"/><path d="M1060 105v50"/><path d="M1145 105v25"/><path d="M1230 105v25"/><path d="M1315 105v25"/><path d="M1400 105v25"/><path d="M1485 105v25"/><path d="M1570 105v25"/><path d="M1655 105v25"/><path d="M1740 105v25"/><path d="M1825 105v25"/><path d="M1910 105v50"/><path d="M1995 105v25"/><path d="M2080 105v25"/><path d="M2165 105v25"/><path d="M2250 105v25"/><path d="M2335 105v25"/><path d="M2420 105v25"/><path d="M2505 105v25"/><path d="M2590 105v25"/><path d="M2675 105v25"/><path d="M2760 105v50"/><path d="M2845 105v25"/><path d="M2930 105v25"/><path d="M3015 105v25"/><path d="M3100 105v25"/><path d="M3185 105v25"/><path d="M3270 105v25"/><path d="M3355 105v25"/><path d="M3440 105v25"/><path d="M3525 105v25"/><path d="M3610 105v50"/></g></g><use x="18.2902" y="273.5" href="#b"/><use x="103.29" y="273.5" href="#c"/><use x="186.8295" y="273.5" href="#e"/><use x="190.9995" y="273.5" href="#b"/><use x="271.8292" y="273.5" href="#e"/><use x="275.9992" y="273.5" href="#c"/><use x="356.829" y="273.5" href="#f"/><use x="360.999" y="273.5" href="#b"/><g class="c"><path d="M210 2655h3400" class="d"/><g class="e"><path d="M210 2655v-50"/><path d="M295 2655v-25"/><path d="M380 2655v-25"/><path d="M465 2655v-25"/><path d="M550 2655v-25"/><path d="M635 2655v-25"/><path d="M720 2655v-25"/><path d="M805 2655v-25"/><path d="M890 2655v-25"/><path d="M975 2655v-25"/><path d="M1060 2655v-50"/><path d="M1145 2655v-25"/><path d="M1230 2655v-25"/><path d="M1315 2655v-25"/><path d="M1400 2655v-25"/><path d="M1485 2655v-25"/><path d="M1570 2655v-25"/><path d="M1655 2655v-25"/><path d="M1740 2655v-25"/><path d="M1825 2655v-25"/><path d="M1910 2655v-50"/><path d="M1995 2655v-25"/><path d="M2080 2655v-25"/><path d="M2165 2655v-25"/><path d="M2250 2655v-25"/><path d="M2335 2655v-25"/><path d="M2420 2655v-25"/><path d="M2505 2655v-25"/><path d="M2590 2655v-25"/><path d="M2675 2655v-25"/><path d="M2760 2655v-50"/><path d="M2845 2655v-25"/><path d="M2930 2655v-25"/><path d="M3015 2655v-25"/><path d="M3100 2655v-25"/><path d="M3185 2655v-25"/><path d="M3270 2655v-25"/><path d="M3355 2655v-25"/><path d="M3440 2655v-25"/><path d="M3525 2655v-25"/><path d="M3610 2655v-50"/></g></g><use x="18.2902" y="5.375" href="#b"/><use x="103.29" y="5.375" href="#c"/><use x="186.8295" y="5.375" href="#e"/><use x="190.9995" y="5.375" href="#b"/><use x="271.8292" y="5.375" href="#e"/><use x="275.9992" y="5.375" href="#c"/><use x="356.829" y="5.375" href="#f"/><use x="360.999" y="5.375" href="#b"/><g class="c"><use href="#a" class="d"/><g class="e"><path d="M210 105h50"/><path d="M210 147.5h25"/><path d="M210 190h25"/><path d="M210 232.5h25"/><path d="M210 275h25"/><path d="M210 317.5h25"/><path d="M210 360h25"/><path d="M210 402.5h25"/><path d="M210 445h25"/><path d="M210 487.5h25"/><path d="M210 530h50"/><path d="M210 572.5h25"/><path d="M210 615h25"/><path d="M210 657.5h25"/><path d="M210 700h25"/><path d="M210 742.5h25"/><path d="M210 785h25"/><path d="M210 827.5h25"/><path d="M210 870h25"/><path d="M210 912.5h25"/><path d="M210 955h50"/><path d="M210 997.5h25"/><path d="M210 1040h25"/><path d="M210 1082.5h25"/><path d="M210 1125h25"/><path d="M210 1167.5h25"/><path d="M210 1210h25"/><path d="M210 1252.5h25"/><path d="M210 1295h25"/><path d="M210 1337.5h25"/><path d="M210 1380h50"/><path d="M210 1422.5h25"/><path d="M210 1465h25"/><path d="M210 1507.5h25"/><path d="M210 1550h25"/><path d="M210 1592.5h25"/><path d="M210 1635h25"/><path d="M210 1677.5h25"/><path d="M210 1720h25"/><path d="M210 1762.5h25"/><path d="M210 1805h50"/><path d="M210 1847.5h25"/><path d="M210 1890h25"/><path d="M210 1932.5h25"/><path d="M210 1975h25"/><path d="M210 2017.5h25"/><path d="M210 2060h25"/><path d="M210 2102.5h25"/><path d="M210 2145h25"/><path d="M210 2187.5h25"/><path d="M210 2230h50"/><path d="M210 2272.5h25"/><path d="M210 2315h25"/><path d="M210 2357.5h25"/><path d="M210 2400h25"/><path d="M210 2442.5h25"/><path d="M210 2485h25"/><path d="M210 2527.5h25"/><path d="M210 2570h25"/><path d="M210 2612.5h25"/><path d="M210 2655h50"/></g></g><use x="1.2031" y="267.25" href="#g"/><use x="3.7006" y="267.25" href="#c"/><use x="7.8706" y="267.25" href="#d"/><use x="9.9556" y="267.25" href="#b"/><use x="1.2031" y="224.125" href="#g"/><use x="3.7006" y="224.125" href="#f"/><use x="7.8706" y="224.125" href="#d"/><use x="9.9556" y="224.125" href="#c"/><use x="3.7004" y="182.25" href="#b"/><use x="7.8704" y="182.25" href="#d"/><use x="9.9554" y="182.25" href="#b"/><use x="3.7004" y="139.125" href="#f"/><use x="7.8704" y="139.125" href="#d"/><use x="9.9554" y="139.125" href="#c"/><use x="3.7004" y="97.25" href="#c"/><use x="7.8704" y="97.25" href="#d"/><use x="9.9554" y="97.25" href="#b"/><use x="3.7004" y="54.125" href="#h"/><use x="7.8704" y="54.125" href="#d"/><use x="9.9554" y="54.125" href="#c"/><use x="-.4695" y="11.625" href="#e"/><use x="3.7005" y="11.625" href="#b"/><use x="7.8705" y="11.625" href="#d"/><use x="9.9555" y="11.625" href="#b"/><g class="c"><path d="M3610 105v2550" class="d"/><g class="e"><path d="M3610 105h-50"/><path d="M3610 147.5h-25"/><path d="M3610 190h-25"/><path d="M3610 232.5h-25"/><path d="M3610 275h-25"/><path d="M3610 317.5h-25"/><path d="M3610 360h-25"/><path d="M3610 402.5h-25"/><path d="M3610 445h-25"/><path d="M3610 487.5h-25"/><path d="M3610 530h-50"/><path d="M3610 572.5h-25"/><path d="M3610 615h-25"/><path d="M3610 657.5h-25"/><path d="M3610 700h-25"/><path d="M3610 742.5h-25"/><path d="M3610 785h-25"/><path d="M3610 827.5h-25"/><path d="M3610 870h-25"/><path d="M3610 912.5h-25"/><path d="M3610 955h-50"/><path d="M3610 997.5h-25"/><path d="M3610 1040h-25"/><path d="M3610 1082.5h-25"/><path d="M3610 1125h-25"/><path d="M3610 1167.5h-25"/><path d="M3610 1210h-25"/><path d="M3610 1252.5h-25"/><path d="M3610 1295h-25"/><path d="M3610 1337.5h-25"/><path d="M3610 1380h-50"/><path d="M3610 1422.5h-25"/><path d="M3610 1465h-25"/><path d="M3610 1507.5h-25"/><path d="M3610 1550h-25"/><path d="M3610 1592.5h-25"/><path d="M3610 1635h-25"/><path d="M3610 1677.5h-25"/><path d="M3610 1720h-25"/><path d="M3610 1762.5h-25"/><path d="M3610 1805h-50"/><path d="M3610 1847.5h-25"/><path d="M3610 1890h-25"/><path d="M3610 1932.5h-25"/><path d="M3610 1975h-25"/><path d="M3610 2017.5h-25"/><path d="M3610 2060h-25"/><path d="M3610 2102.5h-25"/><path d="M3610 2145h-25"/><path d="M3610 2187.5h-25"/><path d="M3610 2230h-50"/><path d="M3610 2272.5h-25"/><path d="M3610 2315h-25"/><path d="M3610 2357.5h-25"/><path d="M3610 2400h-25"/><path d="M3610 2442.5h-25"/><path d="M3610 2485h-25"/><path d="M3610 2527.5h-25"/><path d="M3610 2570h-25"/><path d="M3610 2612.5h-25"/><path d="M3610 2655h-50"/></g></g><use x="367.25" y="267.25" href="#g"/><use x="369.7475" y="267.25" href="#c"/><use x="373.9175" y="267.25" href="#d"/><use x="376.0025" y="267.25" href="#b"/><use x="367.25" y="224.125" href="#g"/><use x="369.7475" y="224.125" href="#f"/><use x="373.9175" y="224.125" href="#d"/><use x="376.0025" y="224.125" href="#c"/><use x="367.25" y="182.25" href="#b"/><use x="371.42" y="182.25" href="#d"/><use x="373.505" y="182.25" href="#b"/><use x="367.25" y="139.125" href="#f"/><use x="371.42" y="139.125" href="#d"/><use x="373.505" y="139.125" href="#c"/><use x="367.25" y="97.25" href="#c"/><use x="371.42" y="97.25" href="#d"/><use x="373.505" y="97.25" href="#b"/><use x="367.25" y="54.125" href="#h"/><use x="371.42" y="54.125" href="#d"/><use x="373.505" y="54.125" href="#c"/><use x="367.25" y="11.625" href="#e"/><use x="371.42" y="11.625" href="#b"/><use x="375.59" y="11.625" href="#d"/><use x="377.675" y="11.625" href="#b"/><g style="fill:none;stroke-width:6.25;stroke-linecap:round;stroke:#00f;stroke-miterlimit:10;transform:matrix(.1,0,0,-.1,0,274)"><path d="M283.828125 218.515625l22.34375-99.53125"/><path d="M306.171875 118.984375h0"/><path d="M280.78125 345.234375l28.4375-97.96875"/><path d="M309.21875 247.265625h0"/><path d="M276.328125 471.210938l37.34375-94.921876"/><path d="M313.671875 376.289062h0"/><path d="M269.726562 595.546875l50.546876-88.59375"/><path d="M320.273438 506.953125h0"/><path d="M260.273438 716.132812l69.453124-74.765624"/><path d="M329.726562 641.367188h0"/><path d="M249.648438 829.570312l90.703124-46.640624"/><path d="M340.351562 782.929688h0"/><path d="M244.101562 937.03125l101.796876-6.5625"/><path d="M345.898438 930.46875h0"/><path d="M245.820312 1047.8125l98.359376 26.875"/><path d="M344.179688 1074.6875h0"/><path d="M249.335938 1166.015625l91.328124 45.46875"/><path d="M340.664062 1211.484375h0"/><path d="M251.484375 1289.648438l87.03125 53.203124"/><path d="M338.515625 1342.851562h0"/><path d="M251.484375 1417.148438l87.03125 53.203124"/><path d="M338.515625 1470.351562h0"/><path d="M249.335938 1548.515625l91.328124 45.46875"/><path d="M340.664062 1593.984375h0"/><path d="M245.820312 1685.3125l98.359376 26.875"/><path d="M344.179688 1712.1875h0"/><path d="M244.101562 1829.492188l101.796876-6.484376"/><path d="M345.898438 1823.007812h0"/><path d="M249.648438 1977.070312l90.703124-46.640624"/><path d="M340.351562 1930.429688h0"/><path d="M260.273438 2118.632812l69.453124-74.765624"/><path d="M329.726562 2043.867188h0"/><path d="M269.726562 2253.046875l50.546876-88.59375"/><path d="M320.273438 2164.453125h0"/><path d="M276.328125 2383.710938l37.34375-94.921876"/><path d="M313.671875 2288.789062h0"/><path d="M280.78125 2512.734375l28.4375-97.96875"/><path d="M309.21875 2414.765625h0"/><path d="M283.828125 2641.015625l22.34375-99.53125"/><path d="M306.171875 2541.484375h0"/><path d="M453.828125 218.515625l22.34375-99.53125"/><path d="M476.171875 118.984375h0"/><path d="M450.78125 345.234375l28.4375-97.96875"/><path d="M479.21875 247.265625h0"/><path d="M446.328125 471.210938l37.34375-94.921876"/><path d="M483.671875 376.289062h0"/><path d="M439.726562 595.546875l50.546876-88.59375"/><path d="M490.273438 506.953125h0"/><path d="M430.273438 716.132812l69.453124-74.765624"/><path d="M499.726562 641.367188h0"/><path d="M419.648438 829.570312l90.703124-46.640624"/><path d="M510.351562 782.929688h0"/><path d="M414.101562 937.03125l101.796876-6.5625"/><path d="M515.898438 930.46875h0"/><path d="M415.820312 1047.8125l98.359376 26.875"/><path d="M514.179688 1074.6875h0"/><path d="M419.335938 1166.015625l91.328124 45.46875"/><path d="M510.664062 1211.484375h0"/><path d="M421.484375 1289.648438l87.03125 53.203124"/><path d="M508.515625 1342.851562h0"/><path d="M421.484375 1417.148438l87.03125 53.203124"/><path d="M508.515625 1470.351562h0"/><path d="M419.335938 1548.515625l91.328124 45.46875"/><path d="M510.664062 1593.984375h0"/><path d="M415.820312 1685.3125l98.359376 26.875"/><path d="M514.179688 1712.1875h0"/><path d="M414.101562 1829.492188l101.796876-6.484376"/><path d="M515.898438 1823.007812h0"/><path d="M419.648438 1977.070312l90.703124-46.640624"/><path d="M510.351562 1930.429688h0"/><path d="M430.273438 2118.632812l69.453124-74.765624"/><path d="M499.726562 2043.867188h0"/><path d="M439.726562 2253.046875l50.546876-88.59375"/><path d="M490.273438 2164.453125h0"/><path d="M446.328125 2383.710938l37.34375-94.921876"/><path d="M483.671875 2288.789062h0"/><path d="M450.78125 2512.734375l28.4375-97.96875"/><path d="M479.21875 2414.765625h0"/><path d="M453.828125 2641.015625l22.34375-99.53125"/><path d="M476.171875 2541.484375h0"/><path d="M623.828125 218.515625l22.34375-99.53125"/><path d="M646.171875 118.984375h0"/><path d="M620.78125 345.234375l28.4375-97.96875"/><path d="M649.21875 247.265625h0"/><path d="M616.328125 471.210938l37.34375-94.921876"/><path d="M653.671875 376.289062h0"/><path d="M609.726562 595.546875l50.546876-88.59375"/><path d="M660.273438 506.953125h0"/><path d="M600.3125 716.132812l69.375-74.765624"/><path d="M669.6875 641.367188h0"/><path d="M589.648438 829.570312l90.703124-46.640624"/><path d="M680.351562 782.929688h0"/><path d="M584.101562 937.03125l101.796876-6.5625"/><path d="M685.898438 930.46875h0"/><path d="M585.820312 1047.8125l98.359376 26.875"/><path d="M684.179688 1074.6875h0"/><path d="M589.335938 1166.015625l91.328124 45.46875"/><path d="M680.664062 1211.484375h0"/><path d="M591.484375 1289.648438l87.03125 53.203124"/><path d="M678.515625 1342.851562h0"/><path d="M591.484375 1417.148438l87.03125 53.203124"/><path d="M678.515625 1470.351562h0"/><path d="M589.335938 1548.515625l91.328124 45.46875"/><path d="M680.664062 1593.984375h0"/><path d="M585.820312 1685.3125l98.359376 26.875"/><path d="M684.179688 1712.1875h0"/><path d="M584.101562 1829.492188l101.796876-6.484376"/><path d="M685.898438 1823.007812h0"/><path d="M589.648438 1977.070312l90.703124-46.640624"/><path d="M680.351562 1930.429688h0"/><path d="M600.3125 2118.632812l69.375-74.765624"/><path d="M669.6875 2043.867188h0"/><path d="M609.726562 2253.046875l50.546876-88.59375"/><path d="M660.273438 2164.453125h0"/><path d="M616.328125 2383.710938l37.34375-94.921876"/><path d="M653.671875 2288.789062h0"/><path d="M620.78125 2512.734375l28.4375-97.96875"/><path d="M649.21875 2414.765625h0"/><path d="M623.828125 2641.015625l22.34375-99.53125"/><path d="M646.171875 2541.484375h0"/><path d="M793.828125 218.515625l22.34375-99.53125"/><path d="M816.171875 118.984375h0"/><path d="M790.78125 345.234375l28.4375-97.96875"/><path d="M819.21875 247.265625h0"/><path d="M786.328125 471.210938l37.34375-94.921876"/><path d="M823.671875 376.289062h0"/><path d="M779.726562 595.546875l50.546876-88.59375"/><path d="M830.273438 506.953125h0"/><path d="M770.3125 716.132812l69.375-74.765624"/><path d="M839.6875 641.367188h0"/><path d="M759.648438 829.570312l90.703124-46.640624"/><path d="M850.351562 782.929688h0"/><path d="M754.101562 937.03125l101.796876-6.5625"/><path d="M855.898438 930.46875h0"/><path d="M755.820312 1047.8125l98.359376 26.875"/><path d="M854.179688 1074.6875h0"/><path d="M759.335938 1166.015625l91.328124 45.46875"/><path d="M850.664062 1211.484375h0"/><path d="M761.484375 1289.648438l87.03125 53.203124"/><path d="M848.515625 1342.851562h0"/><path d="M761.484375 1417.148438l87.03125 53.203124"/><path d="M848.515625 1470.351562h0"/><path d="M759.335938 1548.515625l91.328124 45.46875"/><path d="M850.664062 1593.984375h0"/><path d="M755.820312 1685.3125l98.359376 26.875"/><path d="M854.179688 1712.1875h0"/><path d="M754.101562 1829.492188l101.796876-6.484376"/><path d="M855.898438 1823.007812h0"/><path d="M759.648438 1977.070312l90.703124-46.640624"/><path d="M850.351562 1930.429688h0"/><path d="M770.3125 2118.632812l69.375-74.765624"/><path d="M839.6875 2043.867188h0"/><path d="M779.726562 2253.046875l50.546876-88.59375"/><path d="M830.273438 2164.453125h0"/><path d="M786.328125 2383.710938l37.34375-94.921876"/><path d="M823.671875 2288.789062h0"/><path d="M790.78125 2512.734375l28.4375-97.96875"/><path d="M819.21875 2414.765625h0"/><path d="M793.828125 2641.015625l22.34375-99.53125"/><path d="M816.171875 2541.484375h0"/><path d="M963.828125 218.515625l22.34375-99.53125"/><path d="M986.171875 118.984375h0"/><path d="M960.78125 345.234375l28.4375-97.96875"/><path d="M989.21875 247.265625h0"/><path d="M956.328125 471.210938l37.34375-94.921876"/><path d="M993.671875 376.289062h0"/><path d="M949.726562 595.546875l50.546876-88.59375"/><path d="M1000.273438 506.953125h0"/><path d="M940.3125 716.132812l69.414062-74.765624"/><path d="M1009.726562 641.367188h0"/><path d="M929.648438 829.570312l90.703124-46.640624"/><path d="M1020.351562 782.929688h0"/><path d="M924.101562 937.03125l101.796876-6.5625"/><path d="M1025.898438 930.46875h0"/><path d="M925.820312 1047.8125l98.398438 26.875"/><path d="M1024.21875 1074.6875h0"/><path d="M929.335938 1166.015625l91.289062 45.46875"/><path d="M1020.625 1211.484375h0"/><path d="M931.484375 1289.648438l87.03125 53.203124"/><path d="M1018.515625 1342.851562h0"/><path d="M931.484375 1417.148438l87.03125 53.203124"/><path d="M1018.515625 1470.351562h0"/><path d="M929.335938 1548.515625l91.289062 45.46875"/><path d="M1020.625 1593.984375h0"/><path d="M925.820312 1685.3125l98.398438 26.875"/><path d="M1024.21875 1712.1875h0"/><path d="M924.101562 1829.492188l101.796876-6.484376"/><path d="M1025.898438 1823.007812h0"/><path d="M929.648438 1977.070312l90.703124-46.640624"/><path d="M1020.351562 1930.429688h0"/><path d="M940.3125 2118.632812l69.414062-74.765624"/><path d="M1009.726562 2043.867188h0"/><path d="M949.726562 2253.046875l50.546876-88.59375"/><path d="M1000.273438 2164.453125h0"/><path d="M956.328125 2383.710938l37.34375-94.921876"/><path d="M993.671875 2288.789062h0"/><path d="M960.78125 2512.734375l28.4375-97.96875"/><path d="M989.21875 2414.765625h0"/><path d="M963.828125 2641.015625l22.34375-99.53125"/><path d="M986.171875 2541.484375h0"/><path d="M1133.828125 218.515625l22.34375-99.53125"/><path d="M1156.171875 118.984375h0"/><path d="M1130.742188 345.234375l28.515624-97.96875"/><path d="M1159.257812 247.265625h0"/><path d="M1126.328125 471.210938l37.34375-94.921876"/><path d="M1163.671875 376.289062h0"/><path d="M1119.726562 595.546875l50.546876-88.59375"/><path d="M1170.273438 506.953125h0"/><path d="M1110.273438 716.132812l69.453124-74.765624"/><path d="M1179.726562 641.367188h0"/><path d="M1099.648438 829.570312l90.703124-46.640624"/><path d="M1190.351562 782.929688h0"/><path d="M1094.101562 937.03125l101.796876-6.5625"/><path d="M1195.898438 930.46875h0"/><path d="M1095.78125 1047.8125l98.4375 26.875"/><path d="M1194.21875 1074.6875h0"/><path d="M1099.375 1166.015625l91.25 45.46875"/><path d="M1190.625 1211.484375h0"/><path d="M1101.484375 1289.648438l87.03125 53.203124"/><path d="M1188.515625 1342.851562h0"/><path d="M1101.484375 1417.148438l87.03125 53.203124"/><path d="M1188.515625 1470.351562h0"/><path d="M1099.375 1548.515625l91.25 45.46875"/><path d="M1190.625 1593.984375h0"/><path d="M1095.78125 1685.3125l98.4375 26.875"/><path d="M1194.21875 1712.1875h0"/><path d="M1094.101562 1829.492188l101.796876-6.484376"/><path d="M1195.898438 1823.007812h0"/><path d="M1099.648438 1977.070312l90.703124-46.640624"/><path d="M1190.351562 1930.429688h0"/><path d="M1110.273438 2118.632812l69.453124-74.765624"/><path d="M1179.726562 2043.867188h0"/><path d="M1119.726562 2253.046875l50.546876-88.59375"/><path d="M1170.273438 2164.453125h0"/><path d="M1126.328125 2383.710938l37.34375-94.921876"/><path d="M1163.671875 2288.789062h0"/><path d="M1130.742188 2512.734375l28.515624-97.96875"/><path d="M1159.257812 2414.765625h0"/><path d="M1133.828125 2641.015625l22.34375-99.53125"/><path d="M1156.171875 2541.484375h0"/><path d="M1303.828125 218.515625l22.34375-99.53125"/><path d="M1326.171875 118.984375h0"/><path d="M1300.742188 345.234375l28.515624-97.96875"/><path d="M1329.257812 247.265625h0"/><path d="M1296.328125 471.210938l37.34375-94.921876"/><path d="M1333.671875 376.289062h0"/><path d="M1289.726562 595.546875l50.546876-88.59375"/><path d="M1340.273438 506.953125h0"/><path d="M1280.273438 716.132812l69.453124-74.765624"/><path d="M1349.726562 641.367188h0"/><path d="M1269.648438 829.570312l90.703124-46.640624"/><path d="M1360.351562 782.929688h0"/><path d="M1264.101562 937.03125l101.796876-6.5625"/><path d="M1365.898438 930.46875h0"/><path d="M1265.78125 1047.8125l98.4375 26.875"/><path d="M1364.21875 1074.6875h0"/><path d="M1269.375 1166.015625l91.25 45.46875"/><path d="M1360.625 1211.484375h0"/><path d="M1271.484375 1289.648438l87.03125 53.203124"/><path d="M1358.515625 1342.851562h0"/><path d="M1271.484375 1417.148438l87.03125 53.203124"/><path d="M1358.515625 1470.351562h0"/><path d="M1269.375 1548.515625l91.25 45.46875"/><path d="M1360.625 1593.984375h0"/><path d="M1265.78125 1685.3125l98.4375 26.875"/><path d="M1364.21875 1712.1875h0"/><path d="M1264.101562 1829.492188l101.796876-6.484376"/><path d="M1365.898438 1823.007812h0"/><path d="M1269.648438 1977.070312l90.703124-46.640624"/><path d="M1360.351562 1930.429688h0"/><path d="M1280.273438 2118.632812l69.453124-74.765624"/><path d="M1349.726562 2043.867188h0"/><path d="M1289.726562 2253.046875l50.546876-88.59375"/><path d="M1340.273438 2164.453125h0"/><path d="M1296.328125 2383.710938l37.34375-94.921876"/><path d="M1333.671875 2288.789062h0"/><path d="M1300.742188 2512.734375l28.515624-97.96875"/><path d="M1329.257812 2414.765625h0"/><path d="M1303.828125 2641.015625l22.34375-99.53125"/><path d="M1326.171875 2541.484375h0"/><path d="M1473.828125 218.515625l22.34375-99.53125"/><path d="M1496.171875 118.984375h0"/><path d="M1470.742188 345.234375l28.515624-97.96875"/><path d="M1499.257812 247.265625h0"/><path d="M1466.328125 471.210938l37.34375-94.921876"/><path d="M1503.671875 376.289062h0"/><path d="M1459.726562 595.546875l50.546876-88.59375"/><path d="M1510.273438 506.953125h0"/><path d="M1450.273438 716.132812l69.453124-74.765624"/><path d="M1519.726562 641.367188h0"/><path d="M1439.648438 829.570312l90.703124-46.640624"/><path d="M1530.351562 782.929688h0"/><path d="M1434.101562 937.03125l101.796876-6.5625"/><path d="M1535.898438 930.46875h0"/><path d="M1435.78125 1047.8125l98.4375 26.875"/><path d="M1534.21875 1074.6875h0"/><path d="M1439.375 1166.015625l91.25 45.46875"/><path d="M1530.625 1211.484375h0"/><path d="M1441.484375 1289.648438l87.03125 53.203124"/><path d="M1528.515625 1342.851562h0"/><path d="M1441.484375 1417.148438l87.03125 53.203124"/><path d="M1528.515625 1470.351562h0"/><path d="M1439.375 1548.515625l91.25 45.46875"/><path d="M1530.625 1593.984375h0"/><path d="M1435.78125 1685.3125l98.4375 26.875"/><path d="M1534.21875 1712.1875h0"/><path d="M1434.101562 1829.492188l101.796876-6.484376"/><path d="M1535.898438 1823.007812h0"/><path d="M1439.648438 1977.070312l90.703124-46.640624"/><path d="M1530.351562 1930.429688h0"/><path d="M1450.273438 2118.632812l69.453124-74.765624"/><path d="M1519.726562 2043.867188h0"/><path d="M1459.726562 2253.046875l50.546876-88.59375"/><path d="M1510.273438 2164.453125h0"/><path d="M1466.328125 2383.710938l37.34375-94.921876"/><path d="M1503.671875 2288.789062h0"/><path d="M1470.742188 2512.734375l28.515624-97.96875"/><path d="M1499.257812 2414.765625h0"/><path d="M1473.828125 2641.015625l22.34375-99.53125"/><path d="M1496.171875 2541.484375h0"/><path d="M1643.828125 218.515625l22.34375-99.53125"/><path d="M1666.171875 118.984375h0"/><path d="M1640.742188 345.234375l28.515624-97.96875"/><path d="M1669.257812 247.265625h0"/><path d="M1636.328125 471.210938l37.34375-94.921876"/><path d="M1673.671875 376.289062h0"/><path d="M1629.726562 595.546875l50.546876-88.59375"/><path d="M1680.273438 506.953125h0"/><path d="M1620.273438 716.132812l69.453124-74.765624"/><path d="M1689.726562 641.367188h0"/><path d="M1609.648438 829.570312l90.703124-46.640624"/><path d="M1700.351562 782.929688h0"/><path d="M1604.101562 937.03125l101.796876-6.5625"/><path d="M1705.898438 930.46875h0"/><path d="M1605.78125 1047.8125l98.4375 26.875"/><path d="M1704.21875 1074.6875h0"/><path d="M1609.375 1166.015625l91.25 45.46875"/><path d="M1700.625 1211.484375h0"/><path d="M1611.484375 1289.648438l87.03125 53.203124"/><path d="M1698.515625 1342.851562h0"/><path d="M1611.484375 1417.148438l87.03125 53.203124"/><path d="M1698.515625 1470.351562h0"/><path d="M1609.375 1548.515625l91.25 45.46875"/><path d="M1700.625 1593.984375h0"/><path d="M1605.78125 1685.3125l98.4375 26.875"/><path d="M1704.21875 1712.1875h0"/><path d="M1604.101562 1829.492188l101.796876-6.484376"/><path d="M1705.898438 1823.007812h0"/><path d="M1609.648438 1977.070312l90.703124-46.640624"/><path d="M1700.351562 1930.429688h0"/><path d="M1620.273438 2118.632812l69.453124-74.765624"/><path d="M1689.726562 2043.867188h0"/><path d="M1629.726562 2253.046875l50.546876-88.59375"/><path d="M1680.273438 2164.453125h0"/><path d="M1636.328125 2383.710938l37.34375-94.921876"/><path d="M1673.671875 2288.789062h0"/><path d="M1640.742188 2512.734375l28.515624-97.96875"/><path d="M1669.257812 2414.765625h0"/><path d="M1643.828125 2641.015625l22.34375-99.53125"/><path d="M1666.171875 2541.484375h0"/><path d="M1813.828125 218.515625l22.34375-99.53125"/><path d="M1836.171875 118.984375h0"/><path d="M1810.742188 345.234375l28.515624-97.96875"/><path d="M1839.257812 247.265625h0"/><path d="M1806.328125 471.210938l37.34375-94.921876"/><path d="M1843.671875 376.289062h0"/><path d="M1799.726562 595.546875l50.546876-88.59375"/><path d="M1850.273438 506.953125h0"/><path d="M1790.273438 716.132812l69.453124-74.765624"/><path d="M1859.726562 641.367188h0"/><path d="M1779.648438 829.570312l90.703124-46.640624"/><path d="M1870.351562 782.929688h0"/><path d="M1774.101562 937.03125l101.796876-6.5625"/><path d="M1875.898438 930.46875h0"/><path d="M1775.78125 1047.8125l98.4375 26.875"/><path d="M1874.21875 1074.6875h0"/><path d="M1779.375 1166.015625l91.25 45.46875"/><path d="M1870.625 1211.484375h0"/><path d="M1781.484375 1289.648438l87.03125 53.203124"/><path d="M1868.515625 1342.851562h0"/><path d="M1781.484375 1417.148438l87.03125 53.203124"/><path d="M1868.515625 1470.351562h0"/><path d="M1779.375 1548.515625l91.25 45.46875"/><path d="M1870.625 1593.984375h0"/><path d="M1775.78125 1685.3125l98.4375 26.875"/><path d="M1874.21875 1712.1875h0"/><path d="M1774.101562 1829.492188l101.796876-6.484376"/><path d="M1875.898438 1823.007812h0"/><path d="M1779.648438 1977.070312l90.703124-46.640624"/><path d="M1870.351562 1930.429688h0"/><path d="M1790.273438 2118.632812l69.453124-74.765624"/><path d="M1859.726562 2043.867188h0"/><path d="M1799.726562 2253.046875l50.546876-88.59375"/><path d="M1850.273438 2164.453125h0"/><path d="M1806.328125 2383.710938l37.34375-94.921876"/><path d="M1843.671875 2288.789062h0"/><path d="M1810.742188 2512.734375l28.515624-97.96875"/><path d="M1839.257812 2414.765625h0"/><path d="M1813.828125 2641.015625l22.34375-99.53125"/><path d="M1836.171875 2541.484375h0"/><path d="M1983.828125 218.515625l22.34375-99.53125"/><path d="M2006.171875 118.984375h0"/><path d="M1980.742188 345.234375l28.515624-97.96875"/><path d="M2009.257812 247.265625h0"/><path d="M1976.328125 471.210938l37.34375-94.921876"/><path d="M2013.671875 376.289062h0"/><path d="M1969.726562 595.546875l50.546876-88.59375"/><path d="M2020.273438 506.953125h0"/><path d="M1960.273438 716.132812l69.453124-74.765624"/><path d="M2029.726562 641.367188h0"/><path d="M1949.648438 829.570312l90.703124-46.640624"/><path d="M2040.351562 782.929688h0"/><path d="M1944.101562 937.03125l101.796876-6.5625"/><path d="M2045.898438 930.46875h0"/><path d="M1945.78125 1047.8125l98.4375 26.875"/><path d="M2044.21875 1074.6875h0"/><path d="M1949.375 1166.015625l91.25 45.46875"/><path d="M2040.625 1211.484375h0"/><path d="M1951.484375 1289.648438l87.03125 53.203124"/><path d="M2038.515625 1342.851562h0"/><path d="M1951.484375 1417.148438l87.03125 53.203124"/><path d="M2038.515625 1470.351562h0"/><path d="M1949.375 1548.515625l91.25 45.46875"/><path d="M2040.625 1593.984375h0"/><path d="M1945.78125 1685.3125l98.4375 26.875"/><path d="M2044.21875 1712.1875h0"/><path d="M1944.101562 1829.492188l101.796876-6.484376"/><path d="M2045.898438 1823.007812h0"/><path d="M1949.648438 1977.070312l90.703124-46.640624"/><path d="M2040.351562 1930.429688h0"/><path d="M1960.273438 2118.632812l69.453124-74.765624"/><path d="M2029.726562 2043.867188h0"/><path d="M1969.726562 2253.046875l50.546876-88.59375"/><path d="M2020.273438 2164.453125h0"/><path d="M1976.328125 2383.710938l37.34375-94.921876"/><path d="M2013.671875 2288.789062h0"/><path d="M1980.742188 2512.734375l28.515624-97.96875"/><path d="M2009.257812 2414.765625h0"/><path d="M1983.828125 2641.015625l22.34375-99.53125"/><path d="M2006.171875 2541.484375h0"/><path d="M2153.828125 218.515625l22.34375-99.53125"/><path d="M2176.171875 118.984375h0"/><path d="M2150.742188 345.234375l28.515624-97.96875"/><path d="M2179.257812 247.265625h0"/><path d="M2146.328125 471.210938l37.34375-94.921876"/><path d="M2183.671875 376.289062h0"/><path d="M2139.726562 595.546875l50.546876-88.59375"/><path d="M2190.273438 506.953125h0"/><path d="M2130.273438 716.132812l69.453124-74.765624"/><path d="M2199.726562 641.367188h0"/><path d="M2119.648438 829.570312l90.703124-46.640624"/><path d="M2210.351562 782.929688h0"/><path d="M2114.101562 937.03125l101.796876-6.5625"/><path d="M2215.898438 930.46875h0"/><path d="M2115.78125 1047.8125l98.4375 26.875"/><path d="M2214.21875 1074.6875h0"/><path d="M2119.375 1166.015625l91.25 45.46875"/><path d="M2210.625 1211.484375h0"/><path d="M2121.484375 1289.648438l87.03125 53.203124"/><path d="M2208.515625 1342.851562h0"/><path d="M2121.484375 1417.148438l87.03125 53.203124"/><path d="M2208.515625 1470.351562h0"/><path d="M2119.375 1548.515625l91.25 45.46875"/><path d="M2210.625 1593.984375h0"/><path d="M2115.78125 1685.3125l98.4375 26.875"/><path d="M2214.21875 1712.1875h0"/><path d="M2114.101562 1829.492188l101.796876-6.484376"/><path d="M2215.898438 1823.007812h0"/><path d="M2119.648438 1977.070312l90.703124-46.640624"/><path d="M2210.351562 1930.429688h0"/><path d="M2130.273438 2118.632812l69.453124-74.765624"/><path d="M2199.726562 2043.867188h0"/><path d="M2139.726562 2253.046875l50.546876-88.59375"/><path d="M2190.273438 2164.453125h0"/><path d="M2146.328125 2383.710938l37.34375-94.921876"/><path d="M2183.671875 2288.789062h0"/><path d="M2150.742188 2512.734375l28.515624-97.96875"/><path d="M2179.257812 2414.765625h0"/><path d="M2153.828125 2641.015625l22.34375-99.53125"/><path d="M2176.171875 2541.484375h0"/><path d="M2323.828125 218.515625l22.34375-99.53125"/><path d="M2346.171875 118.984375h0"/><path d="M2320.742188 345.234375l28.515624-97.96875"/><path d="M2349.257812 247.265625h0"/><path d="M2316.328125 471.210938l37.34375-94.921876"/><path d="M2353.671875 376.289062h0"/><path d="M2309.726562 595.546875l50.546876-88.59375"/><path d="M2360.273438 506.953125h0"/><path d="M2300.273438 716.132812l69.453124-74.765624"/><path d="M2369.726562 641.367188h0"/><path d="M2289.648438 829.570312l90.703124-46.640624"/><path d="M2380.351562 782.929688h0"/><path d="M2284.101562 937.03125l101.796876-6.5625"/><path d="M2385.898438 930.46875h0"/><path d="M2285.78125 1047.8125l98.4375 26.875"/><path d="M2384.21875 1074.6875h0"/><path d="M2289.375 1166.015625l91.25 45.46875"/><path d="M2380.625 1211.484375h0"/><path d="M2291.484375 1289.648438l87.03125 53.203124"/><path d="M2378.515625 1342.851562h0"/><path d="M2291.484375 1417.148438l87.03125 53.203124"/><path d="M2378.515625 1470.351562h0"/><path d="M2289.375 1548.515625l91.25 45.46875"/><path d="M2380.625 1593.984375h0"/><path d="M2285.78125 1685.3125l98.4375 26.875"/><path d="M2384.21875 1712.1875h0"/><path d="M2284.101562 1829.492188l101.796876-6.484376"/><path d="M2385.898438 1823.007812h0"/><path d="M2289.648438 1977.070312l90.703124-46.640624"/><path d="M2380.351562 1930.429688h0"/><path d="M2300.273438 2118.632812l69.453124-74.765624"/><path d="M2369.726562 2043.867188h0"/><path d="M2309.726562 2253.046875l50.546876-88.59375"/><path d="M2360.273438 2164.453125h0"/><path d="M2316.328125 2383.710938l37.34375-94.921876"/><path d="M2353.671875 2288.789062h0"/><path d="M2320.742188 2512.734375l28.515624-97.96875"/><path d="M2349.257812 2414.765625h0"/><path d="M2323.828125 2641.015625l22.34375-99.53125"/><path d="M2346.171875 2541.484375h0"/><path d="M2493.828125 218.515625l22.34375-99.53125"/><path d="M2516.171875 118.984375h0"/><path d="M2490.742188 345.234375l28.515624-97.96875"/><path d="M2519.257812 247.265625h0"/><path d="M2486.328125 471.210938l37.34375-94.921876"/><path d="M2523.671875 376.289062h0"/><path d="M2479.726562 595.546875l50.546876-88.59375"/><path d="M2530.273438 506.953125h0"/><path d="M2470.273438 716.132812l69.453124-74.765624"/><path d="M2539.726562 641.367188h0"/><path d="M2459.648438 829.570312l90.703124-46.640624"/><path d="M2550.351562 782.929688h0"/><path d="M2454.101562 937.03125l101.796876-6.5625"/><path d="M2555.898438 930.46875h0"/><path d="M2455.78125 1047.8125l98.4375 26.875"/><path d="M2554.21875 1074.6875h0"/><path d="M2459.375 1166.015625l91.25 45.46875"/><path d="M2550.625 1211.484375h0"/><path d="M2461.484375 1289.648438l87.03125 53.203124"/><path d="M2548.515625 1342.851562h0"/><path d="M2461.484375 1417.148438l87.03125 53.203124"/><path d="M2548.515625 1470.351562h0"/><path d="M2459.375 1548.515625l91.25 45.46875"/><path d="M2550.625 1593.984375h0"/><path d="M2455.78125 1685.3125l98.4375 26.875"/><path d="M2554.21875 1712.1875h0"/><path d="M2454.101562 1829.492188l101.796876-6.484376"/><path d="M2555.898438 1823.007812h0"/><path d="M2459.648438 1977.070312l90.703124-46.640624"/><path d="M2550.351562 1930.429688h0"/><path d="M2470.273438 2118.632812l69.453124-74.765624"/><path d="M2539.726562 2043.867188h0"/><path d="M2479.726562 2253.046875l50.546876-88.59375"/><path d="M2530.273438 2164.453125h0"/><path d="M2486.328125 2383.710938l37.34375-94.921876"/><path d="M2523.671875 2288.789062h0"/><path d="M2490.742188 2512.734375l28.515624-97.96875"/><path d="M2519.257812 2414.765625h0"/><path d="M2493.828125 2641.015625l22.34375-99.53125"/><path d="M2516.171875 2541.484375h0"/><path d="M2663.828125 218.515625l22.34375-99.53125"/><path d="M2686.171875 118.984375h0"/><path d="M2660.742188 345.234375l28.515624-97.96875"/><path d="M2689.257812 247.265625h0"/><path d="M2656.328125 471.210938l37.34375-94.921876"/><path d="M2693.671875 376.289062h0"/><path d="M2649.726562 595.546875l50.546876-88.59375"/><path d="M2700.273438 506.953125h0"/><path d="M2640.273438 716.132812l69.453124-74.765624"/><path d="M2709.726562 641.367188h0"/><path d="M2629.648438 829.570312l90.703124-46.640624"/><path d="M2720.351562 782.929688h0"/><path d="M2624.101562 937.03125l101.796876-6.5625"/><path d="M2725.898438 930.46875h0"/><path d="M2625.78125 1047.8125l98.4375 26.875"/><path d="M2724.21875 1074.6875h0"/><path d="M2629.375 1166.015625l91.25 45.46875"/><path d="M2720.625 1211.484375h0"/><path d="M2631.484375 1289.648438l87.03125 53.203124"/><path d="M2718.515625 1342.851562h0"/><path d="M2631.484375 1417.148438l87.03125 53.203124"/><path d="M2718.515625 1470.351562h0"/><path d="M2629.375 1548.515625l91.25 45.46875"/><path d="M2720.625 1593.984375h0"/><path d="M2625.78125 1685.3125l98.4375 26.875"/><path d="M2724.21875 1712.1875h0"/><path d="M2624.101562 1829.492188l101.796876-6.484376"/><path d="M2725.898438 1823.007812h0"/><path d="M2629.648438 1977.070312l90.703124-46.640624"/><path d="M2720.351562 1930.429688h0"/><path d="M2640.273438 2118.632812l69.453124-74.765624"/><path d="M2709.726562 2043.867188h0"/><path d="M2649.726562 2253.046875l50.546876-88.59375"/><path d="M2700.273438 2164.453125h0"/><path d="M2656.328125 2383.710938l37.34375-94.921876"/><path d="M2693.671875 2288.789062h0"/><path d="M2660.742188 2512.734375l28.515624-97.96875"/><path d="M2689.257812 2414.765625h0"/><path d="M2663.828125 2641.015625l22.34375-99.53125"/><path d="M2686.171875 2541.484375h0"/><path d="M2833.828125 218.515625l22.34375-99.53125"/><path d="M2856.171875 118.984375h0"/><path d="M2830.742188 345.234375l28.515624-97.96875"/><path d="M2859.257812 247.265625h0"/><path d="M2826.328125 471.210938l37.34375-94.921876"/><path d="M2863.671875 376.289062h0"/><path d="M2819.726562 595.546875l50.546876-88.59375"/><path d="M2870.273438 506.953125h0"/><path d="M2810.273438 716.132812l69.453124-74.765624"/><path d="M2879.726562 641.367188h0"/><path d="M2799.648438 829.570312l90.703124-46.640624"/><path d="M2890.351562 782.929688h0"/><path d="M2794.101562 937.03125l101.796876-6.5625"/><path d="M2895.898438 930.46875h0"/><path d="M2795.78125 1047.8125l98.4375 26.875"/><path d="M2894.21875 1074.6875h0"/><path d="M2799.375 1166.015625l91.25 45.46875"/><path d="M2890.625 1211.484375h0"/><path d="M2801.484375 1289.648438l87.03125 53.203124"/><path d="M2888.515625 1342.851562h0"/><path d="M2801.484375 1417.148438l87.03125 53.203124"/><path d="M2888.515625 1470.351562h0"/><path d="M2799.375 1548.515625l91.25 45.46875"/><path d="M2890.625 1593.984375h0"/><path d="M2795.78125 1685.3125l98.4375 26.875"/><path d="M2894.21875 1712.1875h0"/><path d="M2794.101562 1829.492188l101.796876-6.484376"/><path d="M2895.898438 1823.007812h0"/><path d="M2799.648438 1977.070312l90.703124-46.640624"/><path d="M2890.351562 1930.429688h0"/><path d="M2810.273438 2118.632812l69.453124-74.765624"/><path d="M2879.726562 2043.867188h0"/><path d="M2819.726562 2253.046875l50.546876-88.59375"/><path d="M2870.273438 2164.453125h0"/><path d="M2826.328125 2383.710938l37.34375-94.921876"/><path d="M2863.671875 2288.789062h0"/><path d="M2830.742188 2512.734375l28.515624-97.96875"/><path d="M2859.257812 2414.765625h0"/><path d="M2833.828125 2641.015625l22.34375-99.53125"/><path d="M2856.171875 2541.484375h0"/><path d="M3003.828125 218.515625l22.34375-99.53125"/><path d="M3026.171875 118.984375h0"/><path d="M3000.742188 345.234375l28.515624-97.96875"/><path d="M3029.257812 247.265625h0"/><path d="M2996.328125 471.210938l37.34375-94.921876"/><path d="M3033.671875 376.289062h0"/><path d="M2989.726562 595.546875l50.546876-88.59375"/><path d="M3040.273438 506.953125h0"/><path d="M2980.273438 716.132812l69.453124-74.765624"/><path d="M3049.726562 641.367188h0"/><path d="M2969.648438 829.570312l90.703124-46.640624"/><path d="M3060.351562 782.929688h0"/><path d="M2964.101562 937.03125l101.796876-6.5625"/><path d="M3065.898438 930.46875h0"/><path d="M2965.78125 1047.8125l98.4375 26.875"/><path d="M3064.21875 1074.6875h0"/><path d="M2969.375 1166.015625l91.25 45.46875"/><path d="M3060.625 1211.484375h0"/><path d="M2971.484375 1289.648438l87.03125 53.203124"/><path d="M3058.515625 1342.851562h0"/><path d="M2971.484375 1417.148438l87.03125 53.203124"/><path d="M3058.515625 1470.351562h0"/><path d="M2969.375 1548.515625l91.25 45.46875"/><path d="M3060.625 1593.984375h0"/><path d="M2965.78125 1685.3125l98.4375 26.875"/><path d="M3064.21875 1712.1875h0"/><path d="M2964.101562 1829.492188l101.796876-6.484376"/><path d="M3065.898438 1823.007812h0"/><path d="M2969.648438 1977.070312l90.703124-46.640624"/><path d="M3060.351562 1930.429688h0"/><path d="M2980.273438 2118.632812l69.453124-74.765624"/><path d="M3049.726562 2043.867188h0"/><path d="M2989.726562 2253.046875l50.546876-88.59375"/><path d="M3040.273438 2164.453125h0"/><path d="M2996.328125 2383.710938l37.34375-94.921876"/><path d="M3033.671875 2288.789062h0"/><path d="M3000.742188 2512.734375l28.515624-97.96875"/><path d="M3029.257812 2414.765625h0"/><path d="M3003.828125 2641.015625l22.34375-99.53125"/><path d="M3026.171875 2541.484375h0"/><path d="M3173.828125 218.515625l22.34375-99.53125"/><path d="M3196.171875 118.984375h0"/><path d="M3170.742188 345.234375l28.515624-97.96875"/><path d="M3199.257812 247.265625h0"/><path d="M3166.328125 471.210938l37.34375-94.921876"/><path d="M3203.671875 376.289062h0"/><path d="M3159.726562 595.546875l50.546876-88.59375"/><path d="M3210.273438 506.953125h0"/><path d="M3150.273438 716.132812l69.453124-74.765624"/><path d="M3219.726562 641.367188h0"/><path d="M3139.648438 829.570312l90.703124-46.640624"/><path d="M3230.351562 782.929688h0"/><path d="M3134.101562 937.03125l101.796876-6.5625"/><path d="M3235.898438 930.46875h0"/><path d="M3135.78125 1047.8125l98.4375 26.875"/><path d="M3234.21875 1074.6875h0"/><path d="M3139.375 1166.015625l91.25 45.46875"/><path d="M3230.625 1211.484375h0"/><path d="M3141.484375 1289.648438l87.03125 53.203124"/><path d="M3228.515625 1342.851562h0"/><path d="M3141.484375 1417.148438l87.03125 53.203124"/><path d="M3228.515625 1470.351562h0"/><path d="M3139.375 1548.515625l91.25 45.46875"/><path d="M3230.625 1593.984375h0"/><path d="M3135.78125 1685.3125l98.4375 26.875"/><path d="M3234.21875 1712.1875h0"/><path d="M3134.101562 1829.492188l101.796876-6.484376"/><path d="M3235.898438 1823.007812h0"/><path d="M3139.648438 1977.070312l90.703124-46.640624"/><path d="M3230.351562 1930.429688h0"/><path d="M3150.273438 2118.632812l69.453124-74.765624"/><path d="M3219.726562 2043.867188h0"/><path d="M3159.726562 2253.046875l50.546876-88.59375"/><path d="M3210.273438 2164.453125h0"/><path d="M3166.328125 2383.710938l37.34375-94.921876"/><path d="M3203.671875 2288.789062h0"/><path d="M3170.742188 2512.734375l28.515624-97.96875"/><path d="M3199.257812 2414.765625h0"/><path d="M3173.828125 2641.015625l22.34375-99.53125"/><path d="M3196.171875 2541.484375h0"/><path d="M3343.828125 218.515625l22.34375-99.53125"/><path d="M3366.171875 118.984375h0"/><path d="M3340.742188 345.234375l28.515624-97.96875"/><path d="M3369.257812 247.265625h0"/><path d="M3336.328125 471.210938l37.34375-94.921876"/><path d="M3373.671875 376.289062h0"/><path d="M3329.726562 595.546875l50.546876-88.59375"/><path d="M3380.273438 506.953125h0"/><path d="M3320.273438 716.132812l69.453124-74.765624"/><path d="M3389.726562 641.367188h0"/><path d="M3309.648438 829.570312l90.703124-46.640624"/><path d="M3400.351562 782.929688h0"/><path d="M3304.101562 937.03125l101.796876-6.5625"/><path d="M3405.898438 930.46875h0"/><path d="M3305.78125 1047.8125l98.4375 26.875"/><path d="M3404.21875 1074.6875h0"/><path d="M3309.375 1166.015625l91.25 45.46875"/><path d="M3400.625 1211.484375h0"/><path d="M3311.484375 1289.648438l87.03125 53.203124"/><path d="M3398.515625 1342.851562h0"/><path d="M3311.484375 1417.148438l87.03125 53.203124"/><path d="M3398.515625 1470.351562h0"/><path d="M3309.375 1548.515625l91.25 45.46875"/><path d="M3400.625 1593.984375h0"/><path d="M3305.78125 1685.3125l98.4375 26.875"/><path d="M3404.21875 1712.1875h0"/><path d="M3304.101562 1829.492188l101.796876-6.484376"/><path d="M3405.898438 1823.007812h0"/><path d="M3309.648438 1977.070312l90.703124-46.640624"/><path d="M3400.351562 1930.429688h0"/><path d="M3320.273438 2118.632812l69.453124-74.765624"/><path d="M3389.726562 2043.867188h0"/><path d="M3329.726562 2253.046875l50.546876-88.59375"/><path d="M3380.273438 2164.453125h0"/><path d="M3336.328125 2383.710938l37.34375-94.921876"/><path d="M3373.671875 2288.789062h0"/><path d="M3340.742188 2512.734375l28.515624-97.96875"/><path d="M3369.257812 2414.765625h0"/><path d="M3343.828125 2641.015625l22.34375-99.53125"/><path d="M3366.171875 2541.484375h0"/><path d="M3513.828125 218.515625l22.34375-99.53125"/><path d="M3536.171875 118.984375h0"/><path d="M3510.742188 345.234375l28.515624-97.96875"/><path d="M3539.257812 247.265625h0"/><path d="M3506.328125 471.210938l37.34375-94.921876"/><path d="M3543.671875 376.289062h0"/><path d="M3499.726562 595.546875l50.546876-88.59375"/><path d="M3550.273438 506.953125h0"/><path d="M3490.273438 716.132812l69.453124-74.765624"/><path d="M3559.726562 641.367188h0"/><path d="M3479.648438 829.570312l90.703124-46.640624"/><path d="M3570.351562 782.929688h0"/><path d="M3474.101562 937.03125l101.796876-6.5625"/><path d="M3575.898438 930.46875h0"/><path d="M3475.78125 1047.8125l98.4375 26.875"/><path d="M3574.21875 1074.6875h0"/><path d="M3479.375 1166.015625l91.25 45.46875"/><path d="M3570.625 1211.484375h0"/><path d="M3481.484375 1289.648438l87.03125 53.203124"/><path d="M3568.515625 1342.851562h0"/><path d="M3481.484375 1417.148438l87.03125 53.203124"/><path d="M3568.515625 1470.351562h0"/><path d="M3479.375 1548.515625l91.25 45.46875"/><path d="M3570.625 1593.984375h0"/><path d="M3475.78125 1685.3125l98.4375 26.875"/><path d="M3574.21875 1712.1875h0"/><path d="M3474.101562 1829.492188l101.796876-6.484376"/><path d="M3575.898438 1823.007812h0"/><path d="M3479.648438 1977.070312l90.703124-46.640624"/><path d="M3570.351562 1930.429688h0"/><path d="M3490.273438 2118.632812l69.453124-74.765624"/><path d="M3559.726562 2043.867188h0"/><path d="M3499.726562 2253.046875l50.546876-88.59375"/><path d="M3550.273438 2164.453125h0"/><path d="M3506.328125 2383.710938l37.34375-94.921876"/><path d="M3543.671875 2288.789062h0"/><path d="M3510.742188 2512.734375l28.515624-97.96875"/><path d="M3539.257812 2414.765625h0"/><path d="M3513.828125 2641.015625l22.34375-99.53125"/><path d="M3536.171875 2541.484375h0"/></g><g clip-path="url(#w)"><path d="M210 2653.28125l33.984375-147.265625L278.007812 2393.125l33.984376-88.828125 34.023437-71.445313L380 2174.453125l33.984375-48.4375 34.023437-40.625 33.984376-34.414063 34.023437-29.375L550 1996.367188l33.984375-21.875 34.023437-18.984376 33.984376-16.5625 34.023437-14.53125L720 1911.601562l33.984375-11.25 34.023437-10 33.984376-8.867187 34.023437-7.851563L890 1866.601562l33.984375-6.210937 34.023437-5.585937 33.984376-5 34.023437-4.453126L1060 1841.328125l33.984375-3.59375 34.023437-3.203125 33.984376-2.929688 34.023437-2.578124L1230 1826.679688l33.984375-2.109376 34.023437-1.914062 33.984376-1.679688 34.023437-1.5625L1400 1818.007812l33.984375-1.25 34.023437-1.132812 33.984376-1.015625 34.023437-.9375L1570 1812.851562l33.984375-.742187 34.023437-.703125 33.984376-.625 34.023437-.546875L1740 1809.726562l33.984375-.429687 34.023437-.429687 33.984376-.351563 34.023437-.351563 33.984375-.3125 33.984375-.273437 34.023437-.234375 33.984376-.234375 34.023437-.195313 33.984375-.15625 33.984375-.195312 34.023437-.117188 33.984376-.15625 34.023437-.117187L2250 1806.054688l33.984375-.078126 34.023437-.117187 33.984376-.078125 34.023437-.078125L2420 1805.625l33.984375-.039062 34.023437-.078126 33.984376-.039062 34.023437-.039062 67.96875-.078126 34.023437-.039062 33.984376-.039062h34.023437l67.96875-.078126h68.007813l34.023437-.039062H2930l33.984375-.039062h68.007813l34.023437-.039063h135.976563l34.023437-.039063h407.96875" class="b"/></g><g clip-path="url(#x)"><path d="M210 1805h3433.984375" class="b"/></g><g clip-path="url(#y)"><path d="M210 955h3433.984375" class="b"/></g><g clip-path="url(#z)"><path d="M210 955.15625l33.984375.039062h34.023437l33.984376.039063 34.023437.039063H380l33.984375.039062 34.023437.039062 33.984376.039063 34.023437.039063 67.96875.078124 34.023437.039063 33.984376.078125 34.023437.078125 67.96875.15625 34.023437.078125 33.984376.078125 34.023437.117187L890 956.25l33.984375.15625 34.023437.117188 33.984376.15625 34.023437.195312 67.96875.390625 34.023437.273437 33.984376.234376 34.023437.3125 33.984375.3125 33.984375.351562 34.023437.390625 33.984376.429687 34.023437.507813L1400 960.585938l33.984375.585937 34.023437.664063 33.984376.703124 34.023437.78125L1570 964.179688l33.984375.976562 34.023437 1.015625 33.984376 1.171875 34.023437 1.289062L1740 970.039062l33.984375 1.5625 34.023437 1.679688 33.984376 1.875 34.023437 2.070312L1910 979.492188l33.984375 2.5 34.023437 2.734374 33.984376 3.007813 34.023437 3.320313L2080 994.648438l33.984375 3.984374 34.023437 4.335938 33.984376 4.726562 34.023437 5.15625 33.984375 5.625 33.984375 6.132813 34.023437 6.679687 33.984376 7.226563 34.023437 7.8125L2420 1054.804688l33.984375 9.179687 34.023437 9.84375 33.984376 10.585937 34.023437 11.367188L2590 1107.929688l33.984375 12.929687 34.023437 13.75 33.984376 14.609375 34.023437 15.351562L2760 1180.78125l33.984375 16.953125 34.023437 17.734375 33.984376 18.359375 34.023437 19.0625L2930 1272.539062l33.984375 20.117188 34.023437 20.546875 33.984376 20.859375 34.023437 21.09375 33.984375 21.25 33.984375 21.210938 34.023437 21.171874 33.984376 20.9375 34.023437 20.664063L3270 1480.703125l33.984375 19.804687 34.023437 19.257813 33.984376 18.632813 34.023437 17.929687L3440 1573.554688 3473.984375 1590l34.023437 15.664062 33.984376 14.84375 34.023437 14.023438L3610 1647.773438l33.984375 12.421874" class="b"/></g><g clip-path="url(#A)"><path d="M210 954.84375l33.984375-.039062h34.023437l33.984376-.039063 34.023437-.039063H380l33.984375-.039062 34.023437-.039062 33.984376-.039063 34.023437-.039063 67.96875-.078124 34.023437-.039063 33.984376-.078125 34.023437-.078125 67.96875-.15625 34.023437-.078125 33.984376-.078125 34.023437-.117187L890 953.75l33.984375-.15625 34.023437-.117188 33.984376-.15625 34.023437-.195312L1060 952.929688l33.984375-.234376 34.023437-.234374 33.984376-.273438 34.023437-.273438 67.96875-.703124 34.023437-.390626 33.984376-.46875 34.023437-.46875L1400 949.335938l33.984375-.625 34.023437-.625 33.984376-.742188 34.023437-.820312L1570 945.625l33.984375-1.015625 34.023437-1.09375 33.984376-1.210937 34.023437-1.367188L1740 939.414062l33.984375-1.679687 34.023437-1.835937 33.984376-2.070313 34.023437-2.265625L1910 929.023438l33.984375-2.851563 34.023437-3.125 33.984376-3.515625 34.023437-3.90625L2080 911.289062l33.984375-4.882812 34.023437-5.429688 33.984376-6.09375 34.023437-6.796874L2250 880.429688l33.984375-8.632813 34.023437-9.6875 33.984376-10.976563 34.023437-12.421874L2420 824.609375l33.984375-16.09375 34.023437-18.359375 33.984376-21.132812 34.023437-24.414063L2590 716.25l33.984375-33.125 34.023437-39.0625 33.984376-46.445312 34.023437-55.859376L2760 473.671875l33.984375-84.296875 34.023437-106.523438 33.984376-138.046874 34.023437-185" class="b"/></g><g clip-path="url(#B)"><path d="M210 953.320312l33.984375-.195312 34.023437-.195312 33.984376-.234376 34.023437-.234374 67.96875-.546876 34.023437-.351562 33.984376-.351562 34.023437-.390626 67.96875-.9375 34.023437-.546874 33.984376-.625 34.023437-.664063L720 947.304688l33.984375-.78125 34.023437-.898438 33.984376-1.015625 34.023437-1.09375 33.984375-1.25 33.984375-1.328125 34.023437-1.523438 33.984376-1.679687 34.023437-1.875L1060 933.828125l33.984375-2.304687 34.023437-2.539063 33.984376-2.851563 34.023437-3.125L1230 919.492188l33.984375-3.90625 34.023437-4.335938 33.984376-4.882812 34.023437-5.429688L1400 894.84375l33.984375-6.835938 34.023437-7.65625 33.984376-8.632812 34.023437-9.6875L1570 851.054688l33.984375-12.460938 34.023437-14.101562 33.984376-16.09375 34.023437-18.4375L1740 768.828125l33.984375-24.414063 34.023437-28.398437 33.984376-33.164063 34.023437-39.140624L1910 597.226562l33.984375-55.9375 34.023437-68.203124 33.984376-84.453126 34.023437-106.71875L2080 143.554688 2113.984375-41.875" class="b"/></g><g clip-path="url(#C)"><path d="M210 956.679688l33.984375.195312 34.023437.195312 33.984376.234376 34.023437.234374 67.96875.546876 34.023437.351562 33.984376.351562 34.023437.390626L550 959.609375l33.984375.46875 34.023437.546875 33.984376.585938 34.023437.625L720 962.578125l33.984375.78125 34.023437.859375 33.984376.976562L856.015625 966.25 890 967.382812l33.984375 1.289063 34.023437 1.445313 33.984376 1.523437 34.023437 1.71875L1060 975.273438l33.984375 2.070312 34.023437 2.265625 33.984376 2.5 34.023437 2.773437L1230 987.890625l33.984375 3.320313 34.023437 3.632812 33.984376 3.945312 34.023437 4.375L1400 1007.890625l33.984375 5.195313 34.023437 5.625 33.984376 6.171874 34.023437 6.679688L1570 1038.828125l33.984375 7.890625 34.023437 8.476562 33.984376 9.179688 34.023437 9.882812 33.984375 10.625 33.984375 11.40625 34.023437 12.1875 33.984376 12.96875 34.023437 13.789063L1910 1149.84375l33.984375 15.429688 34.023437 16.210937 33.984376 16.992187 34.023437 17.773438L2080 1234.6875l33.984375 19.0625 34.023437 19.648438 33.984376 20.15625 34.023437 20.546874L2250 1335l33.984375 21.09375 34.023437 21.210938 33.984376 21.25 34.023437 21.171874L2420 1440.664062l33.984375 20.625 34.023437 20.273438 33.984376 19.804688 34.023437 19.21875L2590 1539.179688l33.984375 17.929687 34.023437 17.1875 33.984376 16.40625 34.023437 15.625L2760 1621.132812l33.984375 14.023438 34.023437 13.164062 33.984376 12.382813 34.023437 11.601563L2930 1683.125l33.984375 10.078125 34.023437 9.335937 33.984376 8.671876 34.023437 8.046874L3100 1726.640625l33.984375 6.835937 34.023437 6.289063 33.984376 5.78125 34.023437 5.3125L3270 1755.703125l33.984375 4.453125 34.023437 4.0625 33.984376 3.671875 34.023437 3.398437L3440 1774.375l33.984375 2.851562 34.023437 2.539063 33.984376 2.34375 34.023437 2.148437L3610 1786.171875l33.984375 1.757813" class="b"/></g><g clip-path="url(#D)"><path d="M203.75 1023.085938l33.984375 6.523437 34.023437 7.109375 33.984376 7.65625 34.023437 8.320312L373.75 1061.71875l33.984375 9.648438 34.023437 10.429687 33.984376 11.171875 34.023437 11.953125L543.75 1117.65625l33.984375 13.554688 34.023437 14.375 33.984376 15.195312 34.023437 16.015625L713.75 1193.554688l33.984375 17.539062 34.023437 18.242188 33.984376 18.90625 34.023437 19.492187 33.984375 20 33.984375 20.46875 34.023437 20.78125 33.984376 21.054687 34.023437 21.210938L1053.75 1392.5l33.984375 21.171875 34.023437 21.015625 33.984376 20.78125 34.023437 20.351562 33.984375 19.921876 33.984375 19.414062 34.023437 18.789062 33.984376 18.085938 34.023437 17.421875L1393.75 1586.09375l33.984375 15.859375 34.023437 15.039063 33.984376 14.257812 34.023437 13.398438 33.984375 12.617187 33.984375 11.796875 34.023437 11.054688 33.984376 10.273437 34.023437 9.570313 33.984375 8.867187 33.984375 8.203125 34.023437 7.578125 33.984376 6.992187 34.023437 6.40625 33.984375 5.9375 33.984375 5.429688 34.023437 4.960938 33.984376 4.570312 34.023437 4.179688L2073.75 1766.875l33.984375 3.476562 34.023437 3.203126 33.984376 2.890624 34.023437 2.617188 33.984375 2.421875 33.984375 2.148437 34.023437 1.992188 33.984376 1.835938 34.023437 1.601562 33.984375 1.523438 33.984375 1.328124 34.023437 1.25 33.984376 1.09375 34.023437 1.015626 33.984375.898437 33.984375.859375 34.023437.742188 33.984376.703124 34.023437.585938 33.984375.585938 33.984375.507812 34.023437.429688 33.984376.429687 34.023437.390625 33.984375.351562 33.984375.273438 34.023437.273438 33.984376.273437 34.023437.234375 67.96875.390625 34.023437.195313 33.984376.117187 34.023437.15625 67.96875.234375 34.023437.117188 33.984376.078124 34.023437.117188 33.984375.039062 33.984375.078126 34.023437.078124 33.984376.039063 34.023437.039063 33.984375.039062 33.984375.078125" class="b"/></g><g clip-path="url(#E)"><path d="M177.265625 911.132812 211.25 906.25l33.984375-5.46875 34.023437-6.09375 33.984376-6.875 34.023437-7.65625L381.25 871.484375l33.984375-9.726563 34.023437-11.015624 33.984376-12.460938 34.023437-14.179688L551.25 807.96875l33.984375-18.476562 34.023437-21.25 33.984376-24.53125 34.023437-28.476563L721.25 681.914062l33.984375-39.257812 34.023437-46.71875 33.984376-56.210938 34.023437-68.554687L891.25 386.25l33.984375-107.382812 34.023437-139.335938 33.984376-186.914062" class="b"/></g><style>.a{fill:none;stroke:#bfbfbf;stroke-dasharray:12.5,18.75;stroke-linecap:round;stroke-miterlimit:10;stroke-width:6.25;transform:matrix(.1,0,0,-.1,0,274)}.b{fill:none;stroke:red;stroke-linecap:round;stroke-linejoin:round;stroke-miterlimit:10;stroke-width:12.5;transform:matrix(.1,0,0,-.1,0,274)}.c{fill:none;stroke:#000;stroke-miterlimit:10;transform:matrix(.1,0,0,-.1,0,274)}.d{stroke-linecap:square;stroke-width:12.5}.e{stroke-width:6.25}.f{fill:none;stroke:#bfbfbf;stroke-linecap:round;stroke-miterlimit:10;stroke-width:6.25;transform:matrix(.1,0,0,-.1,0,274)}</style></svg>