<svg xmlns="http://www.w3.org/2000/svg" width="786.923pt" height="274.999pt" viewBox="0 0 786.923 274.999"><defs><use href="#a" id="t"/><use href="#b" id="w"/><use href="#c" id="B"/><use href="#d" id="x"/><use href="#e" id="C"/><use href="#f" id="D"/><use href="#g" id="F"/><use href="#a" id="u"/><use href="#b" id="v"/><use href="#c" id="E"/><use href="#d" id="y"/><use href="#e" id="G"/><use href="#f" id="z"/><use href="#g" id="A"/><clipPath id="H"><use href="#h"/></clipPath><clipPath id="I"><use href="#i"/></clipPath><clipPath id="J"><use href="#h"/></clipPath><clipPath id="K"><path d="M109 9.0117h1v254.9727h-1zm0 0"/></clipPath><clipPath id="L"><path d="M194 9.0117h1v254.9727h-1zm0 0"/></clipPath><clipPath id="M"><path d="M279 9.0117h1v254.9727h-1zm0 0"/></clipPath><clipPath id="N"><path d="M364 9.0117h.4648v254.9727H364zm0 0"/></clipPath><clipPath id="O"><path d="M24.4961 226h339.9688v2H24.4961zm0 0"/></clipPath><clipPath id="P"><use href="#i"/></clipPath><clipPath id="Q"><path d="M24.4961 144h339.9688v1H24.4961zm0 0"/></clipPath><clipPath id="R"><path d="M24.4961 102h339.9688v2H24.4961zm0 0"/></clipPath><clipPath id="S"><path d="M24.4961 61h339.9688v2H24.4961zm0 0"/></clipPath><clipPath id="T"><path d="M24.4961 20h339.9688v1H24.4961zm0 0"/></clipPath><clipPath id="U"><path d="M19 268h11v6.4844H19zm0 0"/></clipPath><clipPath id="V"><path d="M104 268h11v6.4844h-11zm0 0"/></clipPath><clipPath id="W"><path d="M189 268h11v6.4844h-11zm0 0"/></clipPath><clipPath id="X"><path d="M274 268h11v6.4844h-11zm0 0"/></clipPath><clipPath id="Y"><path d="M357 268h15v6.4844h-15zm0 0"/></clipPath><clipPath id="Z"><path d="M24.4961 19h339.9688v235H24.4961zm0 0"/></clipPath><clipPath id="a0"><path d="M24.4961 89h339.9688v155H24.4961zm0 0"/></clipPath><clipPath id="a1"><use href="#j"/></clipPath><clipPath id="a2"><use href="#k"/></clipPath><clipPath id="a3"><use href="#j"/></clipPath><clipPath id="a4"><path d="M512 9.0117h1v254.9727h-1zm0 0"/></clipPath><clipPath id="a5"><path d="M597 9.0117h1v254.9727h-1zm0 0"/></clipPath><clipPath id="a6"><path d="M682 9.0117h1v254.9727h-1zm0 0"/></clipPath><clipPath id="a7"><path d="M767 9.0117h.3477v254.9727H767zm0 0"/></clipPath><clipPath id="a8"><path d="M427.3828 263h339.9648v.9844H427.3828zm0 0"/></clipPath><clipPath id="a9"><path d="M427.3828 221h339.9648v1H427.3828zm0 0"/></clipPath><clipPath id="aa"><path d="M427.3828 178h339.9648v2H427.3828zm0 0"/></clipPath><clipPath id="ab"><path d="M427.3828 136h339.9648v1H427.3828zm0 0"/></clipPath><clipPath id="ac"><use href="#k"/></clipPath><clipPath id="ad"><path d="M427.3828 51h339.9648v1H427.3828zm0 0"/></clipPath><clipPath id="ae"><path d="M427.3828 9.0117h339.9648V10H427.3828zm0 0"/></clipPath><clipPath id="af"><path d="M422 268h11v6.4844h-11zm0 0"/></clipPath><clipPath id="ag"><path d="M507 268h11v6.4844h-11zm0 0"/></clipPath><clipPath id="ah"><path d="M592 268h11v6.4844h-11zm0 0"/></clipPath><clipPath id="ai"><path d="M677 268h11v6.4844h-11zm0 0"/></clipPath><clipPath id="aj"><path d="M760 268h15v6.4844h-15zm0 0"/></clipPath><clipPath id="ak"><path d="M408.3828 262H421v6h-12.6172zm0 0"/></clipPath><clipPath id="al"><path d="M408.3828 219H421v7h-12.6172zm0 0"/></clipPath><clipPath id="am"><path d="M408.3828 177H421v6h-12.6172zm0 0"/></clipPath><clipPath id="an"><path d="M408.3828 134H421v6h-12.6172zm0 0"/></clipPath><clipPath id="ao"><path d="M773 262h13.3477v6H773zm0 0"/></clipPath><clipPath id="ap"><path d="M773 219h13.3477v7H773zm0 0"/></clipPath><clipPath id="aq"><path d="M773 177h13.3477v6H773zm0 0"/></clipPath><clipPath id="ar"><path d="M773 134h13.3477v6H773zm0 0"/></clipPath><clipPath id="as"><path d="M427.3828 49h339.9648v214.9844H427.3828zm0 0"/></clipPath><clipPath id="at"><path d="M436 57h331.3477v206.9844H436zm0 0"/></clipPath><path id="a" d="M2.0625-5.3125c-.5 0-.9375.21875-1.21875.578125C.5-4.265625.328125-3.5625.328125-2.578125c0 1.796875.59375 2.75 1.734375 2.75 1.125 0 1.734375-.953125 1.734375-2.703125 0-1.03125-.15625-1.71875-.515625-2.203125C3-5.109375 2.5625-5.3125 2.0625-5.3125zm0 .5781c.71875 0 1.0625.71875 1.0625 2.140625C3.125-1.078125 2.78125-.375 2.046875-.375 1.34375-.375 1-1.109375 1-2.5625c0-1.453125.34375-2.171875 1.0625-2.171875zm0 0"/><path id="b" d="M1.4375-.7812H.6563V0h.7813zm0 0"/><path id="c" d="M3.7969-.6562H1c.0625-.4375.3125-.703125.953125-1.09375l.75-.4062c.75-.40625 1.125-.953125 1.125-1.59375 0-.453125-.171875-.859375-.484375-1.140625C3.015625-5.1875 2.625-5.3125 2.125-5.3125c-.671875 0-1.171875.234375-1.46875.6875-.1875.28125-.265625.609375-.28125 1.15625h.6563c.03125-.359375.078125-.578125.15625-.75.171875-.328125.515625-.515625.921875-.515625.59375 0 1.046875.421875 1.046875.984375 0 .421875-.25.78125-.71875 1.0625l-.6875.3906C.640625-1.671875.3125-1.171875.25 0h3.5469zm0 0"/><path id="d" d="M3.5625-5.3125H.8281L.4219-2.4219h.6094c.3125-.375.5625-.5.984375-.5.703125 0 1.15625.484375 1.15625 1.28125 0 .765625-.4375 1.234375-1.15625 1.234375-.578125 0-.9375-.296875-1.09375-.90625h-.6562c.09375.4375.15625.65625.3125.84375.3125.40625.84375.640625 1.453125.640625 1.0625 0 1.8125-.78125 1.8125-1.90625C3.84375-2.78125 3.15625-3.5 2.125-3.5c-.375 0-.671875.09375-.984375.3125l.2188-1.4844H3.5625zm0 0"/><path id="e" d="M3.9063-5.3125H.3438v.6406h2.875C1.953125-2.859375 1.4375-1.75 1.03125 0h.7031c.296875-1.703125.96875-3.171875 2.171875-4.765625zm0 0"/><path id="f" d="M1.9375-3.7812V0h.6719v-5.3125h-.4375c-.2344.8125-.39065.921875-1.406275 1.046875v.4844zm0 0"/><path id="g" d="M2.125-2.3437H.3438v.5469H2.125zm0 0"/><path id="h" d="M24.4961 9.0117H25v254.9727h-.5039zm0 0"/><path id="i" d="M24.4961 185h339.9688v2H24.4961zm0 0"/><path id="j" d="M427.3828 9.0117H428v254.9727h-.6172zm0 0"/><path id="k" d="M427.3828 93h339.9648v2H427.3828zm0 0"/><path id="l" d="M299.9849 225.0175v2549.9761"/><path id="m" d="M299.9849 1006.5002h3400.0202"/><path id="n" d="M3700.0051 225.0175v2549.9761"/><path id="o" d="M300.0063 225.0175v2549.9761"/><path id="p" d="M300.0063 1924.9885h3399.9811"/><path id="q" d="M3699.9874 225.0175v2549.9761"/><path id="r" d="M300.0063 225.0175h3399.9811"/><path id="s" d="M300.0063 2774.9935h3399.9811"/></defs><path fill="#fff" d="M24.4961 263.9844h339.9688V9.0117H24.4961zm0 0"/><g clip-path="url(#H)"><use href="#l" class="g"/></g><g clip-path="url(#I)"><use href="#m" class="g"/></g><g clip-path="url(#J)"><use href="#l" class="b"/></g><g clip-path="url(#K)"><path d="M1149.989946 225.017485v2549.976052" class="b"/></g><g clip-path="url(#L)"><path d="M1999.994986 225.017485v2549.976052" class="b"/></g><g clip-path="url(#M)"><path d="M2850.000025 225.017485v2549.976052" class="b"/></g><g clip-path="url(#N)"><use href="#n" class="b"/></g><g clip-path="url(#O)"><path d="M299.984907 593.334771h3400.020157" class="b"/></g><g clip-path="url(#P)"><use href="#m" class="b"/></g><g clip-path="url(#Q)"><path d="M299.984907 1419.626553h3400.020157" class="b"/></g><g clip-path="url(#R)"><path d="M299.984907 1832.791977h3400.020157" class="b"/></g><g clip-path="url(#S)"><path d="M299.984907 2245.957401h3400.020157" class="b"/></g><g clip-path="url(#T)"><path d="M299.984907 2659.083759h3400.020157" class="b"/></g><g class="e"><path d="M299.984907 225.017485h3400.020157" class="c"/><g class="d"><path d="M299.984907 225.017485v49.965826"/><path d="M384.993224 225.017485v24.96338"/><path d="M470.001541 225.017485v24.96338"/><path d="M555.009858 225.017485v24.96338"/><path d="M640.018176 225.017485v24.96338"/><path d="M724.987427 225.017485v24.96338"/><path d="M809.995744 225.017485v24.96338"/><path d="M895.004061 225.017485v24.96338"/><path d="M980.012378 225.017485v24.96338"/><path d="M1064.981629 225.017485v24.96338"/><path d="M1149.989946 225.017485v49.965826"/><path d="M1234.998263 225.017485v24.96338"/><path d="M1320.006581 225.017485v24.96338"/><path d="M1405.014898 225.017485v24.96338"/><path d="M1489.984149 225.017485v24.96338"/><path d="M1574.992466 225.017485v24.96338"/><path d="M1660.000783 225.017485v24.96338"/><path d="M1745.0091 225.017485v24.96338"/><path d="M1830.017418 225.017485v24.96338"/><path d="M1914.986668 225.017485v24.96338"/><path d="M1999.994986 225.017485v49.965826"/><path d="M2085.003303 225.017485v24.96338"/><path d="M2170.01162 225.017485v24.96338"/><path d="M2254.980871 225.017485v24.96338"/><path d="M2339.989188 225.017485v24.96338"/><path d="M2424.997505 225.017485v24.96338"/><path d="M2510.005823 225.017485v24.96338"/><path d="M2595.01414 225.017485v24.96338"/><path d="M2679.983391 225.017485v24.96338"/><path d="M2764.991708 225.017485v24.96338"/><path d="M2850.000025 225.017485v49.965826"/><path d="M2935.008342 225.017485v24.96338"/><path d="M3020.016659 225.017485v24.96338"/><path d="M3104.98591 225.017485v24.96338"/><path d="M3189.994228 225.017485v24.96338"/><path d="M3275.002545 225.017485v24.96338"/><path d="M3360.010862 225.017485v24.96338"/><path d="M3445.019179 225.017485v24.96338"/><path d="M3529.98843 225.017485v24.96338"/><path d="M3614.996747 225.017485v24.96338"/><path d="M3700.005064 225.017485v49.965826"/></g></g><g clip-path="url(#U)"><use x="19.286" y="273.9851" href="#t"/><use x="23.4556" y="273.9851" href="#w"/><use x="25.5404" y="273.9851" href="#t"/></g><g clip-path="url(#V)"><use x="104.2777" y="273.9851" href="#B"/><use x="108.4473" y="273.9851" href="#w"/><use x="110.5321" y="273.9851" href="#x"/></g><g clip-path="url(#W)"><use x="189.2693" y="273.9851" href="#x"/><use x="193.4389" y="273.9851" href="#w"/><use x="195.5237" y="273.9851" href="#t"/></g><g clip-path="url(#X)"><use x="274.261" y="273.9851" href="#C"/><use x="278.4306" y="273.9851" href="#w"/><use x="280.5154" y="273.9851" href="#x"/></g><g clip-path="url(#Y)"><use x="357.1677" y="273.9851" href="#D"/><use x="361.3373" y="273.9851" href="#t"/><use x="365.5069" y="273.9851" href="#w"/><use x="367.5917" y="273.9851" href="#t"/></g><g class="e"><path d="M299.984907 2774.993537h3400.020157" class="c"/><g class="d"><path d="M299.984907 2774.993537v-50.004892"/><path d="M384.993224 2774.993537v-25.002446"/><path d="M470.001541 2774.993537v-25.002446"/><path d="M555.009858 2774.993537v-25.002446"/><path d="M640.018176 2774.993537v-25.002446"/><path d="M724.987427 2774.993537v-25.002446"/><path d="M809.995744 2774.993537v-25.002446"/><path d="M895.004061 2774.993537v-25.002446"/><path d="M980.012378 2774.993537v-25.002446"/><path d="M1064.981629 2774.993537v-25.002446"/><path d="M1149.989946 2774.993537v-50.004892"/><path d="M1234.998263 2774.993537v-25.002446"/><path d="M1320.006581 2774.993537v-25.002446"/><path d="M1405.014898 2774.993537v-25.002446"/><path d="M1489.984149 2774.993537v-25.002446"/><path d="M1574.992466 2774.993537v-25.002446"/><path d="M1660.000783 2774.993537v-25.002446"/><path d="M1745.0091 2774.993537v-25.002446"/><path d="M1830.017418 2774.993537v-25.002446"/><path d="M1914.986668 2774.993537v-25.002446"/><path d="M1999.994986 2774.993537v-50.004892"/><path d="M2085.003303 2774.993537v-25.002446"/><path d="M2170.01162 2774.993537v-25.002446"/><path d="M2254.980871 2774.993537v-25.002446"/><path d="M2339.989188 2774.993537v-25.002446"/><path d="M2424.997505 2774.993537v-25.002446"/><path d="M2510.005823 2774.993537v-25.002446"/><path d="M2595.01414 2774.993537v-25.002446"/><path d="M2679.983391 2774.993537v-25.002446"/><path d="M2764.991708 2774.993537v-25.002446"/><path d="M2850.000025 2774.993537v-50.004892"/><path d="M2935.008342 2774.993537v-25.002446"/><path d="M3020.016659 2774.993537v-25.002446"/><path d="M3104.98591 2774.993537v-25.002446"/><path d="M3189.994228 2774.993537v-25.002446"/><path d="M3275.002545 2774.993537v-25.002446"/><path d="M3360.010862 2774.993537v-25.002446"/><path d="M3445.019179 2774.993537v-25.002446"/><path d="M3529.98843 2774.993537v-25.002446"/><path d="M3614.996747 2774.993537v-25.002446"/><path d="M3700.005064 2774.993537v-50.004892"/></g></g><use x="19.286" y="6.5113" href="#t"/><use x="23.4556" y="6.5113" href="#w"/><use x="25.5404" y="6.5113" href="#t"/><use x="104.2777" y="6.5113" href="#B"/><use x="108.4473" y="6.5113" href="#w"/><use x="110.5321" y="6.5113" href="#x"/><use x="189.2693" y="6.5113" href="#x"/><use x="193.4389" y="6.5113" href="#w"/><use x="195.5237" y="6.5113" href="#t"/><use x="274.261" y="6.5113" href="#C"/><use x="278.4306" y="6.5113" href="#w"/><use x="280.5154" y="6.5113" href="#x"/><use x="357.1677" y="6.5113" href="#D"/><use x="361.3373" y="6.5113" href="#t"/><use x="365.5069" y="6.5113" href="#w"/><use x="367.5917" y="6.5113" href="#t"/><g class="e"><use href="#l" class="c"/><g class="d"><path d="M299.984907 262.833685h25.002446"/><path d="M299.984907 304.126788h25.002446"/><path d="M299.984907 345.458957h25.002446"/><path d="M299.984907 386.752059h25.002446"/><path d="M299.984907 428.084228h25.002446"/><path d="M299.984907 469.377331h25.002446"/><path d="M299.984907 510.7095h25.002446"/><path d="M299.984907 552.041669h25.002446"/><path d="M299.984907 593.334771h50.004892"/><path d="M299.984907 634.66694h25.002446"/><path d="M299.984907 675.960043h25.002446"/><path d="M299.984907 717.292212h25.002446"/><path d="M299.984907 758.585314h25.002446"/><path d="M299.984907 799.917483h25.002446"/><path d="M299.984907 841.210586h25.002446"/><path d="M299.984907 882.542755h25.002446"/><path d="M299.984907 923.835858h25.002446"/><path d="M299.984907 965.168026h25.002446"/><path d="M299.984907 1006.500195h50.004892"/><path d="M299.984907 1047.793298h25.002446"/><path d="M299.984907 1089.125467h25.002446"/><path d="M299.984907 1130.41857h25.002446"/><path d="M299.984907 1171.750739h25.002446"/><path d="M299.984907 1213.043841h25.002446"/><path d="M299.984907 1254.37601h25.002446"/><path d="M299.984907 1295.708179h25.002446"/><path d="M299.984907 1337.001282h25.002446"/><path d="M299.984907 1378.333451h25.002446"/><path d="M299.984907 1419.626553h50.004892"/><path d="M299.984907 1460.958722h25.002446"/><path d="M299.984907 1502.251825h25.002446"/><path d="M299.984907 1543.583994h25.002446"/><path d="M299.984907 1584.916163h25.002446"/><path d="M299.984907 1626.209265h25.002446"/><path d="M299.984907 1667.541434h25.002446"/><path d="M299.984907 1708.834537h25.002446"/><path d="M299.984907 1750.166706h25.002446"/><path d="M299.984907 1791.498875h25.002446"/><path d="M299.984907 1832.791977h50.004892"/><path d="M299.984907 1874.124146h25.002446"/><path d="M299.984907 1915.417249h25.002446"/><path d="M299.984907 1956.749418h25.002446"/><path d="M299.984907 1998.04252h25.002446"/><path d="M299.984907 2039.374689h25.002446"/><path d="M299.984907 2080.667792h25.002446"/><path d="M299.984907 2121.999961h25.002446"/><path d="M299.984907 2163.293063h25.002446"/><path d="M299.984907 2204.625232h25.002446"/><path d="M299.984907 2245.957401h50.004892"/><path d="M299.984907 2287.250504h25.002446"/><path d="M299.984907 2328.582673h25.002446"/><path d="M299.984907 2369.875775h25.002446"/><path d="M299.984907 2411.207944h25.002446"/><path d="M299.984907 2452.501047h25.002446"/><path d="M299.984907 2493.833216h25.002446"/><path d="M299.984907 2535.126319h25.002446"/><path d="M299.984907 2576.458487h25.002446"/><path d="M299.984907 2617.790656h25.002446"/><path d="M299.984907 2659.083759h50.004892"/><path d="M299.984907 2700.415928h25.002446"/><path d="M299.984907 2741.709031h25.002446"/></g></g><use x="1.1581" y="230.8644" href="#F"/><use x="3.6553" y="230.8644" href="#t"/><use x="7.8249" y="230.8644" href="#w"/><use x="9.9097" y="230.8644" href="#B"/><use x="14.0793" y="230.8644" href="#x"/><use x="3.6551" y="188.9935" href="#t"/><use x="7.8247" y="188.9935" href="#w"/><use x="9.9095" y="188.9935" href="#t"/><use x="14.0791" y="188.9935" href="#t"/><use x="3.6551" y="147.7475" href="#t"/><use x="7.8247" y="147.7475" href="#w"/><use x="9.9095" y="147.7475" href="#B"/><use x="14.0791" y="147.7475" href="#x"/><use x="3.6551" y="106.5015" href="#t"/><use x="7.8247" y="106.5015" href="#w"/><use x="9.9095" y="106.5015" href="#x"/><use x="14.0791" y="106.5015" href="#t"/><use x="3.6551" y="65.2556" href="#t"/><use x="7.8247" y="65.2556" href="#w"/><use x="9.9095" y="65.2556" href="#C"/><use x="14.0791" y="65.2556" href="#x"/><use x="3.6551" y="24.0096" href="#D"/><use x="7.8247" y="24.0096" href="#w"/><use x="9.9095" y="24.0096" href="#t"/><use x="14.0791" y="24.0096" href="#t"/><g class="e"><use href="#n" class="c"/><g class="d"><path d="M3700.005064 262.833685h-25.002446"/><path d="M3700.005064 304.126788h-25.002446"/><path d="M3700.005064 345.458957h-25.002446"/><path d="M3700.005064 386.752059h-25.002446"/><path d="M3700.005064 428.084228h-25.002446"/><path d="M3700.005064 469.377331h-25.002446"/><path d="M3700.005064 510.7095h-25.002446"/><path d="M3700.005064 552.041669h-25.002446"/><path d="M3700.005064 593.334771h-50.004892"/><path d="M3700.005064 634.66694h-25.002446"/><path d="M3700.005064 675.960043h-25.002446"/><path d="M3700.005064 717.292212h-25.002446"/><path d="M3700.005064 758.585314h-25.002446"/><path d="M3700.005064 799.917483h-25.002446"/><path d="M3700.005064 841.210586h-25.002446"/><path d="M3700.005064 882.542755h-25.002446"/><path d="M3700.005064 923.835858h-25.002446"/><path d="M3700.005064 965.168026h-25.002446"/><path d="M3700.005064 1006.500195h-50.004892"/><path d="M3700.005064 1047.793298h-25.002446"/><path d="M3700.005064 1089.125467h-25.002446"/><path d="M3700.005064 1130.41857h-25.002446"/><path d="M3700.005064 1171.750739h-25.002446"/><path d="M3700.005064 1213.043841h-25.002446"/><path d="M3700.005064 1254.37601h-25.002446"/><path d="M3700.005064 1295.708179h-25.002446"/><path d="M3700.005064 1337.001282h-25.002446"/><path d="M3700.005064 1378.333451h-25.002446"/><path d="M3700.005064 1419.626553h-50.004892"/><path d="M3700.005064 1460.958722h-25.002446"/><path d="M3700.005064 1502.251825h-25.002446"/><path d="M3700.005064 1543.583994h-25.002446"/><path d="M3700.005064 1584.916163h-25.002446"/><path d="M3700.005064 1626.209265h-25.002446"/><path d="M3700.005064 1667.541434h-25.002446"/><path d="M3700.005064 1708.834537h-25.002446"/><path d="M3700.005064 1750.166706h-25.002446"/><path d="M3700.005064 1791.498875h-25.002446"/><path d="M3700.005064 1832.791977h-50.004892"/><path d="M3700.005064 1874.124146h-25.002446"/><path d="M3700.005064 1915.417249h-25.002446"/><path d="M3700.005064 1956.749418h-25.002446"/><path d="M3700.005064 1998.04252h-25.002446"/><path d="M3700.005064 2039.374689h-25.002446"/><path d="M3700.005064 2080.667792h-25.002446"/><path d="M3700.005064 2121.999961h-25.002446"/><path d="M3700.005064 2163.293063h-25.002446"/><path d="M3700.005064 2204.625232h-25.002446"/><path d="M3700.005064 2245.957401h-50.004892"/><path d="M3700.005064 2287.250504h-25.002446"/><path d="M3700.005064 2328.582673h-25.002446"/><path d="M3700.005064 2369.875775h-25.002446"/><path d="M3700.005064 2411.207944h-25.002446"/><path d="M3700.005064 2452.501047h-25.002446"/><path d="M3700.005064 2493.833216h-25.002446"/><path d="M3700.005064 2535.126319h-25.002446"/><path d="M3700.005064 2576.458487h-25.002446"/><path d="M3700.005064 2617.790656h-25.002446"/><path d="M3700.005064 2659.083759h-50.004892"/><path d="M3700.005064 2700.415928h-25.002446"/><path d="M3700.005064 2741.709031h-25.002446"/></g></g><use x="370.7137" y="230.8644" href="#F"/><use x="373.211" y="230.8644" href="#t"/><use x="377.3806" y="230.8644" href="#w"/><use x="379.4654" y="230.8644" href="#B"/><use x="383.635" y="230.8644" href="#x"/><use x="370.7137" y="188.9935" href="#t"/><use x="374.8833" y="188.9935" href="#w"/><use x="376.9681" y="188.9935" href="#t"/><use x="381.1377" y="188.9935" href="#t"/><use x="370.7137" y="147.7475" href="#t"/><use x="374.8833" y="147.7475" href="#w"/><use x="376.9681" y="147.7475" href="#B"/><use x="381.1377" y="147.7475" href="#x"/><use x="370.7137" y="106.5015" href="#t"/><use x="374.8833" y="106.5015" href="#w"/><use x="376.9681" y="106.5015" href="#x"/><use x="381.1377" y="106.5015" href="#t"/><use x="370.7137" y="65.2556" href="#t"/><use x="374.8833" y="65.2556" href="#w"/><use x="376.9681" y="65.2556" href="#C"/><use x="381.1377" y="65.2556" href="#x"/><use x="370.7137" y="24.0096" href="#D"/><use x="374.8833" y="24.0096" href="#w"/><use x="376.9681" y="24.0096" href="#t"/><use x="381.1377" y="24.0096" href="#t"/><g clip-path="url(#Z)"><path d="M299.984907 2659.083759l6.250611-.117199 6.250612-.429729 6.250611-.703194 6.250612-.976658 6.250612-1.250123 6.250611-1.523586 6.250612-1.836117 6.250611-2.070515 6.250612-2.383046 6.250611-2.617444 6.250612-2.929974 6.250612-3.203438 6.250611-3.476903 6.250612-3.711301 6.250611-4.023831 6.250612-4.297295 6.250611-4.531694 6.250612-4.844224 6.250611-5.078621 6.250612-5.352087 6.250612-5.62555 6.250611-5.899015 6.250612-6.133412 6.250611-6.406877 6.250612-6.680341 6.250611-6.914739 6.250612-7.188204 6.250611-7.422601 6.250612-7.696065 6.250612-7.930464 6.250611-8.203927 6.250612-8.438326 6.250611-8.672723 6.250612-8.907122 6.250611-9.141519 6.250612-9.414984 6.250611-9.649382 6.250612-9.844713 6.250612-10.079111 6.250611-10.313509 6.250612-10.547907 6.250611-10.782305 6.250612-10.977637 6.250611-11.212034 6.250612-11.407366 6.250612-11.602698 6.250611-11.837095 6.250612-12.032428 6.250611-12.266825 6.250612-12.42309 6.250611-12.618422 6.250612-12.85282 6.250611-13.009086 6.250612-13.204417 6.250612-13.399748 6.250611-13.556014 6.211545-13.751345 6.250612-13.907611 6.250611-14.063876 6.250612-14.259208 6.250612-14.415473 6.250611-14.571738 6.250612-14.728003 6.250611-14.884269 6.250612-15.001468 6.250611-15.196799 6.250612-15.313999 6.250612-15.431197 6.250611-15.587462 6.250612-15.704662 6.250611-15.821861 6.250612-15.939059 6.250611-16.095325 6.250612-16.173457 6.250611-16.290657 6.250612-16.368789 6.250612-16.525054 6.250611-16.603187 6.250612-16.681319 6.250611-16.759453 6.250612-16.876651 6.250611-16.915717 6.250612-17.032917 6.250611-17.071983 6.250612-17.189182 6.250612-17.228248 6.250611-17.267314 6.250612-17.345447 6.250611-17.384514 6.250612-17.423579 12.501223-35.003425 6.250611-17.540779 6.250612-17.579845 6.250612-17.618911 6.250611-17.657978 6.250612-17.618911 12.501223-35.315955 6.250611-17.697044 6.250612-17.657978 6.250612-17.697044 12.501223-35.315955 18.751834-52.856734 12.501223-35.081558 6.250612-17.501712 12.501223-34.847159 6.250612-17.345447 6.250611-17.306381 6.250612-17.267315 6.250611-17.189181 6.250612-17.11105 6.250611-17.071982 6.250612-16.954784 6.250612-16.915718 6.211545-16.837585 6.250611-16.720386 6.250612-16.642253 6.250611-16.564121 6.250612-16.446921 6.250612-16.368789 6.250611-16.25159 6.250612-16.173458 6.250611-16.017192 6.250612-15.939059 6.250611-15.821861 6.250612-15.704661 6.250612-15.548397 6.250611-15.431197 6.250612-15.313998 6.250611-15.157733 6.250612-15.040534 6.250611-14.884269 6.250612-14.728004 6.250611-14.610804 6.250612-14.454539 6.250612-14.298274 6.250611-14.142009 6.250612-13.946677 6.250611-13.829478 6.250612-13.634146 6.250611-13.477882 6.250612-13.321616 6.250611-13.126284 6.250612-12.970019 6.250612-12.774687 6.250611-12.618422 6.250612-12.384024 6.250611-12.227759 6.250612-12.032428 6.250611-11.876161 6.250612-11.641765 6.250612-11.446432 6.250611-11.251101 6.250612-11.055769 6.250611-10.860438 6.250612-10.665105 6.250611-10.430709 6.250612-10.235376 6.250611-10.040045 6.250612-9.805647 6.250612-9.610315 6.250611-9.375917 6.250612-9.180586 6.250611-8.946188 6.250612-8.750856 6.250611-8.516458 6.250612-8.282061 6.250611-8.086728 6.250612-7.852331 6.250612-7.617933 6.250611-7.383535 6.250612-7.149137 6.250611-6.953805 6.250612-6.719408 6.250611-6.445943 6.250612-6.250611 6.250611-6.016214 6.250612-5.781816 6.211545-5.547417 6.250612-5.352086 6.250611-5.078622 6.250612-4.844224 6.250612-4.609826 6.250611-4.375428 6.250612-4.180097 6.250611-3.906632 6.250612-3.672234 6.250611-3.437837 6.250612-3.242505 6.250611-2.96904 6.250612-2.734643 6.250612-2.500244 6.250611-2.304913 6.250612-2.031449 6.250611-1.836117 6.250612-1.562653 6.250611-1.367321 6.250612-1.132924 6.250611-.898525 6.250612-.664128 6.250612-.429729 6.250611-.234398 6.250612.039066 6.250611.234398 6.250612.468796 6.250611.664128 6.250612.898525 6.250612 1.132923 6.250611 1.328255 6.250612 1.562653 6.250611 1.757985 6.250612 1.992382 6.250611 2.226781 6.250612 2.383045 6.250611 2.617444 6.250612 2.812775 6.250612 3.047173 6.250611 3.203439 6.250612 3.437836 6.250611 3.633168 6.250612 3.828499 6.250611 4.023832 6.250612 4.219162 6.250611 4.414495 6.250612 4.609826 6.250612 4.766091 6.250611 4.961423 6.250612 5.156755 6.250611 5.313019 6.250612 5.508352 6.250611 5.664617 6.250612 5.859948 6.250611 6.016214 6.250612 6.172478 6.250612 6.367811 6.250611 6.48501 6.250612 6.680341 6.250611 6.836606 6.250612 6.953805 6.250611 7.110071 6.250612 7.266336 6.250612 7.422601 6.211545 7.578867 6.250611 7.696065 6.250612 7.813265 6.250611 7.969529 6.250612 8.086729 6.250612 8.203928 6.250611 8.360193 6.250612 8.438325 6.250611 8.555525 6.250612 8.71179 6.250611 8.789922 6.250612 8.907122 6.250611 8.985254 6.250612 9.102453 6.250612 9.219652 6.250611 9.297785 6.250612 9.375917 6.250611 9.45405 6.250612 9.571249 6.250611 9.649382 6.250612 9.688447 6.250611 9.805647 6.250612 9.844714 6.250612 9.922845 12.501223 20.001957 6.250611 10.118178 6.250612 10.157244 6.250611 10.19631 6.250612 10.235376 6.250612 10.274443 18.751834 31.057726 12.501223 20.861416 12.501223 20.939549 50.004893 84.070725 12.501223 20.939549 12.501223 20.861416 6.250612 10.391642 12.501223 20.705151 12.501223 20.548885 6.250612 10.19631 6.250611 10.157244 6.250612 10.118178 6.250611 10.079111 6.250612 10.000978 6.250611 9.922846 6.250612 9.88378 6.250611 9.844713 6.250612 9.727514 6.211545 9.688448 6.250612 9.610315 6.250611 9.532183 6.250612 9.45405 6.250611 9.375917 6.250612 9.258718 6.250612 9.219653 6.250611 9.102453 6.250612 8.985254 6.250611 8.907121 6.250612 8.828989 6.250611 8.71179 6.250612 8.594591 6.250611 8.516458 6.250612 8.399259 6.250612 8.282061 6.250611 8.164861 6.250612 8.047662 6.250611 7.930464 6.250612 7.852331 6.250611 7.656999 6.250612 7.578866 6.250612 7.422601 6.250611 7.305403 6.250612 7.188203 6.250611 7.071004 6.250612 6.914739 6.250611 6.758474 6.250612 6.641275 6.250611 6.485009 6.250612 6.367811 6.250612 6.172479 6.250611 6.094346 6.250612 5.899015 6.250611 5.781815 6.250612 5.625551 6.250611 5.430219 6.250612 5.352086 6.250611 5.156754 6.250612 5.00049 6.250612 4.844224 6.250611 4.687958 6.250612 4.531694 6.250611 4.375428 6.250612 4.219162 6.250611 4.023832 6.250612 3.867566 6.250611 3.750367 6.250612 3.555035 6.250612 3.39877 6.250611 3.203438 6.250612 3.08624 6.250611 2.890908 6.250612 2.695576 6.250611 2.578377 6.250612 2.383046 6.250612 2.22678 6.250611 2.031449 6.250612 1.91425 6.250611 1.679852 6.250612 1.562652 6.250611 1.367322 6.250612 1.211056 6.250611 1.015724 6.211546.898525 6.250611.703194 6.250612.507862 6.250611.351597 6.250612.234398h6.250611l6.250612-.156265 6.250612-.273464 6.250611-.507862 6.250612-.625062 6.250611-.820392 6.250612-.976658 6.250611-1.132924 6.250612-1.289188 6.250612-1.445454 6.250611-1.640786 6.250612-1.797051 6.250611-1.914249 6.250612-2.109582 6.250611-2.265847 6.250612-2.383045 6.250611-2.578377 6.250612-2.734643 6.250612-2.851842 6.250611-3.047173 6.250612-3.164372 6.250611-3.320637 6.250612-3.476903 6.250611-3.594102 6.250612-3.750366 6.250611-3.906633 6.250612-4.062897 6.250612-4.180097 6.250611-4.297295 6.250612-4.453561 6.250611-4.57076 6.250612-4.727025 6.250611-4.844223 6.250612-4.961423 6.250611-5.078622 6.250612-5.234887 6.250612-5.352087 6.250611-5.469285 6.250612-5.586484 6.250611-5.703683 6.250612-5.781816 6.250611-5.938081 6.250612-6.016213 6.250612-6.133413 6.250611-6.250611 6.250612-6.328745 6.250611-6.445943 6.250612-6.524076 6.250611-6.641274 6.250612-6.758474 6.250611-6.79754 6.250612-6.914739 6.250612-6.953806 6.250611-7.11007 6.250612-7.149137 6.250611-7.22727 6.250612-7.305402 6.250611-7.383535 6.211546-7.422601 6.250611-7.500734 6.250612-7.578867 6.250611-7.656999 6.250612-7.696065 12.501223-15.548396 6.250612-7.852331 12.501223-15.860927 6.250611-8.008596 12.501223-16.095325 12.501223-16.25159 6.250612-8.164861 12.501223-16.407856 12.501223-16.485988 18.751835-24.846181 6.250611-8.321126 6.250612-8.28206 6.250612-8.321127 12.501223-16.564121 6.250611-8.321126 6.250612-8.282061 18.751834-24.728982 12.501224-16.407855 6.250611-8.164861 6.250612-8.125795 12.501223-16.173458 12.501223-16.017192 6.250612-7.96953 6.250611-7.891397 6.250612-7.852331 6.250611-7.813264 6.250612-7.735132 6.250611-7.696065 6.250612-7.656999 6.250611-7.578867 6.250612-7.5398 6.250612-7.461668 6.250611-7.383535 6.250612-7.305402 6.250611-7.266336 6.250612-7.188203 6.250611-7.110071 6.250612-6.992871 6.250611-6.953806 6.250612-6.875673 6.250612-6.758473 6.250611-6.719408 6.250612-6.602208 6.250611-6.48501 6.250612-6.445943 6.211545-6.328744 6.250612-6.211545 6.250611-6.133413 6.250612-6.016213 6.250611-5.938081 6.250612-5.820882 6.250611-5.703684 6.250612-5.62555 6.250612-5.508351 6.250611-5.391153 6.250612-5.273953 6.250611-5.156755 6.250612-5.078622 6.250611-4.922356 6.250612-4.805158 6.250611-4.687959 6.250612-4.609826 6.250612-4.45356 6.250611-4.336362 6.250612-4.180097 6.250611-4.101963 6.250612-3.945699 6.250611-3.8285 6.250612-3.672234 6.250611-3.594102 6.250612-3.437836 6.250612-3.281571 6.250611-3.164372 6.250612-3.047173 6.250611-2.890908 6.250612-2.773709 6.250611-2.65651 6.250612-2.500244 6.250612-2.34398 6.250611-2.22678 6.250612-2.070515 6.250611-1.953316 6.250612-1.797051 6.250611-1.679852 6.250612-1.523587 6.250611-1.406387" style="fill:none;stroke-width:12.5;stroke-linecap:round;stroke-linejoin:round;stroke:#00008b;stroke-miterlimit:10;transform:matrix(.0999902,0,0,-.0999902,-5.499462,286.483922)"/></g><g clip-path="url(#a0)"><path d="M299.984907 1006.500195l6.250611 15.1968 6.250612 15.157733 6.250611 15.196799 12.501224 30.315466 12.501223 30.237334 6.250611 15.0796 6.250612 15.040534 12.501223 30.002936 6.250612 14.923335 6.250611 14.884268 6.250612 14.845203 6.250611 14.806136 6.250612 14.728004 6.250611 14.64987 6.250612 14.610805 6.250611 14.532672 6.250612 14.454539 6.250612 14.415473 6.250611 14.298274 6.250612 14.220141 6.250611 14.142009 6.250612 14.063876 6.250611 13.946677 6.250612 13.868544 6.250611 13.751346 6.250612 13.634146 6.250612 13.556014 6.250611 13.438815 6.250612 13.321616 6.250611 13.204417 6.250612 13.087218 6.250611 12.970019 6.250612 12.813753 6.250611 12.735621 6.250612 12.54029 6.250612 12.462157 6.250611 12.305891 6.250612 12.149626 6.250611 11.993361 6.250612 11.837096 6.250611 11.719896 6.250612 11.563632 6.250612 11.3683 6.250611 11.2511 6.250612 11.05577 6.250611 10.899504 6.250612 10.743238 6.250611 10.586973 6.250612 10.391642 6.250611 10.19631 6.250612 10.040045 6.250612 9.88378 6.250611 9.688448 6.211545 9.45405 6.250612 9.336851 6.250611 9.102453 6.250612 8.907121 6.250612 8.750856 6.250611 8.516459 6.250612 8.321126 6.250611 8.125795 6.250612 7.930464 6.250611 7.774198 6.250612 7.500734 6.250612 7.305402 6.250611 7.110071 6.250612 6.914739 6.250611 6.680341 6.250612 6.485009 6.250611 6.250612 6.250612 6.016213 6.250611 5.820882 6.250612 5.625551 6.250612 5.391152 6.250611 5.156755 6.250612 4.961423 6.250611 4.687958 6.250612 4.531694 6.250611 4.258229 6.250612 4.023831 6.250611 3.8285 6.250612 3.594101 6.250612 3.359704 6.250611 3.164372 6.250612 2.890908 6.250611 2.695576 6.250612 2.422112 6.250611 2.226781 6.250612 1.992382 6.250611 1.797051 6.250612 1.523586 6.250612 1.289189 6.250611 1.054791 6.250612.859459 6.250611.585995 6.250612.390663 6.250611.156265 6.250612-.078132 6.250612-.312531 6.250611-.546929 6.250612-.74226 6.250611-.976658 6.250612-1.250122 6.250611-1.406388 6.250612-1.679852 6.250611-1.914249 6.250612-2.109582 6.250612-2.304913 6.250611-2.578377 6.250612-2.773709 6.250611-3.008107 6.250612-3.203438 6.250611-3.437836 6.250612-3.633168 6.250611-3.867566 6.250612-4.101964 6.250612-4.258229 6.211545-4.531694 6.250611-4.687958 6.250612-4.922357 6.250611-5.078622 6.250612-5.352086 6.250612-5.508351 6.250611-5.74275 6.250612-5.899014 6.250611-6.094347 6.250612-6.328744 6.250611-6.485009 6.250612-6.680342 6.250612-6.875672 6.250611-7.071005 6.250612-7.227269 6.250611-7.422601 6.250612-7.578867 6.250611-7.813264 6.250612-7.930464 6.250611-8.125795 6.250612-8.28206 6.250612-8.438326 6.250611-8.633657 6.250612-8.750856 6.250611-8.946188 6.250612-9.102453 6.250611-9.219652 6.250612-9.375917 6.250611-9.532183 6.250612-9.688448 6.250612-9.844713 6.250611-9.922846 6.250612-10.118177 6.250611-10.196311 6.250612-10.352575 6.250611-10.469774 6.250612-10.62604 6.250612-10.704172 6.250611-10.821372 6.250612-10.93857 6.250611-11.055769 6.250612-11.172968 6.250611-11.251101 6.250612-11.3683 6.250611-11.485498 6.250612-11.524566 6.250612-11.641764 6.250611-11.719896 6.250612-11.837096 6.250611-11.876162 6.250612-11.954294 6.250611-12.032428 6.250612-12.11056 6.250611-12.188692 6.250612-12.227759 6.250612-12.305891 6.250611-12.344958 6.250612-12.384024 12.501223-24.924314 6.250611-12.54029 12.501223-25.158711 6.250612-12.657488 6.211545-12.657489 6.250612-12.657488 6.250611-12.696555 6.250612-12.735621 6.250612-12.696555 6.250611-12.774687 6.250612-12.696555 6.250611-12.774687 18.751835-38.206863 12.501223-25.39311 12.501223-25.314977 12.501223-25.236844 6.250612-12.579356 12.501223-25.002446 6.250611-12.42309 6.250612-12.384024 6.250612-12.344958 6.250611-12.305892 6.250612-12.227759 6.250611-12.188692 12.501223-24.142987 6.250612-11.954295 6.250612-11.915228 6.250611-11.79803 6.250612-11.758963 6.250611-11.641764 6.250612-11.563631 6.250611-11.485499 6.250612-11.407366 6.250611-11.290167 6.250612-11.212034 6.250612-11.094836 6.250611-10.977636 6.250612-10.899504 6.250611-10.782305 6.250612-10.665106 6.250611-10.547907 6.250612-10.430708 6.250611-10.313509 6.250612-10.196311 6.250612-10.079111 6.250611-9.922846 6.250612-9.805646 6.250611-9.688448 6.250612-9.532183 6.250611-9.414984 6.250612-9.258718 6.250611-9.102453 6.250612-8.985254 6.250612-8.828989 6.250611-8.672724 6.250612-8.555524 6.250611-8.360193 6.250612-8.203928 6.250611-8.086728 6.250612-7.930464 6.250612-7.735132 6.211545-7.578866 6.250611-7.422601 6.250612-7.266336 6.250611-7.110071 6.250612-6.914739 6.250612-6.758474 6.250611-6.563142 6.250612-6.406877 6.250611-6.250611 6.250612-6.05528 6.250611-5.859949 6.250612-5.703683 6.250611-5.547417 6.250612-5.352087 6.250612-5.156754 6.250611-5.000489 6.250612-4.766092 6.250611-4.648892 6.250612-4.414494 6.250611-4.25823 6.250612-4.062897 6.250611-3.867566 6.250612-3.672234 6.250612-3.515969 6.250611-3.281571 6.250612-3.125306 6.250611-2.969041 6.250612-2.734642 6.250611-2.539311 6.250612-2.383046 6.250612-2.148647 6.250611-1.992383 6.250612-1.797051 6.250611-1.601719 6.250612-1.445454 6.250611-1.211056 6.250612-1.054791 6.250611-.820392 6.250612-.664128 6.250612-.468796 6.250611-.31253 6.250612-.078133 6.250611.078133 6.250612.273464 6.250611.468796 6.250612.625061 6.250611.820393 6.250612 1.015724 6.250612 1.211056 6.250611 1.367321 6.250612 1.562653 6.250611 1.718919 6.250612 1.914249 6.250611 2.070515 6.250612 2.265847 6.250612 2.422112 6.250611 2.617444 6.250612 2.773709 6.250611 2.96904 6.250612 3.125306 6.250611 3.281571 6.250612 3.437836 6.250611 3.633168 6.250612 3.789433 6.211545 3.906633 6.250612 4.101963 6.250611 4.25823 6.250612 4.414494 6.250611 4.57076 6.250612 4.727025 6.250612 4.844224 6.250611 5.039555 6.250612 5.156755 6.250611 5.31302 6.250612 5.430218 6.250611 5.586484 6.250612 5.703684 6.250611 5.859948 6.250612 6.016213 6.250612 6.094347 6.250611 6.250611 6.250612 6.367811 6.250611 6.524076 6.250612 6.602208 6.250611 6.758474 6.250612 6.836606 6.250612 6.992872 6.250611 7.071004 6.250612 7.188204 6.250611 7.266336 6.250612 7.422601 6.250611 7.500734 6.250612 7.578866 6.250611 7.696066 6.250612 7.774198 6.250612 7.891397 6.250611 7.930463 6.250612 8.047663 6.250611 8.125795 6.250612 8.203927 6.250611 8.282061 6.250612 8.360193 6.250611 8.399259 6.250612 8.516458 6.250612 8.555525 6.250611 8.594591 6.250612 8.672723 12.501223 17.501712 6.250611 8.828989 12.501223 17.814243 6.250612 8.946188 12.501223 18.048641 6.250612 9.063387 12.501223 18.204906 12.501223 18.283039 6.250612 9.180585 6.250611 9.219652 6.250612 9.180586 18.751834 27.658956 6.250612 9.180586 6.250611 9.219652 6.211546 9.180586 6.250611 9.219652 6.250612 9.180586 18.751834 27.424558 6.250612 9.102453 6.250612 9.063387 12.501223 18.048641 6.250611 8.946187 12.501223 17.814243 12.501224 17.657978 12.501223 17.42358 6.250611 8.633657 6.250612 8.555524 6.250611 8.516459 6.250612 8.477392 6.250611 8.360193 6.250612 8.321126 6.250612 8.282061 12.501223 16.25159 6.250611 8.008596 6.250612 7.930463 6.250611 7.852331 6.250612 7.774198 6.250611 7.696065 6.250612 7.578867 6.250612 7.500734 6.250611 7.383535 6.250612 7.305402 6.250611 7.22727 6.250612 7.11007 6.250611 6.992872 6.250612 6.875673 6.250611 6.79754 6.250612 6.680341 6.250612 6.563142 6.250611 6.445943 6.250612 6.367811 6.250611 6.211545 6.250612 6.094346 6.250611 5.977147 6.250612 5.859949 6.250612 5.742749 6.250611 5.625551 6.250612 5.469285 6.250611 5.352086 6.250612 5.234887 6.250611 5.078622 6.250612 5.000489 6.250611 4.805158 6.250612 4.687958 6.250612 4.57076 6.250611 4.414495 6.250612 4.297295 6.250611 4.14103 6.250612 3.984765 6.250611 3.867566 6.211546 3.711301 6.250611 3.594101 6.250612 3.39877 6.250611 3.320638 6.250612 3.125305 6.250611 2.969041 6.250612 2.851841 6.250612 2.695577 6.250611 2.539311 6.250612 2.383045 6.250611 2.265847 6.250612 2.109581 6.250611 1.91425 6.250612 1.836117 6.250611 1.640786 6.250612 1.48452 6.250612 1.328255 6.250611 1.211056 6.250612 1.015724 6.250611.898526 6.250612.74226 6.250611.585995 6.250612.429729 6.250611.273465 6.250612.156265 6.250612-.039066 6.250611-.156266 6.250612-.31253 6.250611-.468796 6.250612-.625061 6.250611-.781327 6.250612-.898525 6.250611-1.054791 6.250612-1.211056 6.250612-1.367321 6.250611-1.48452 6.250612-1.640786 6.250611-1.797051 6.250612-1.91425 6.250611-2.109581 6.250612-2.187714 6.250612-2.343979 6.250611-2.500245 6.250612-2.65651 6.250611-2.734642 6.250612-2.929975 6.250611-3.008106 6.250612-3.164373 6.250611-3.320637 6.250612-3.437836 6.250612-3.555036 6.250611-3.672234 6.250612-3.828499 6.250611-3.945699 6.250612-4.023831 6.250611-4.219163 6.250612-4.258229 6.250611-4.453561 6.250612-4.531693 6.250612-4.648893 6.250611-4.766091 6.250612-4.88329 6.250611-4.961423 6.250612-5.078622 6.211545-5.195821 6.250612-5.31302 6.250611-5.391152 6.250612-5.508352 6.250611-5.62555 6.250612-5.664617 6.250611-5.781815 6.250612-5.899015 6.250612-5.977147 6.250611-6.05528 6.250612-6.133413 6.250611-6.211545 6.250612-6.328744 6.250611-6.367811 6.250612-6.485009 6.250611-6.524076 6.250612-6.602209 6.250612-6.680341 6.250611-6.719407 12.501223-13.673213 6.250612-6.953805 6.250611-6.992872 6.250612-7.031938 6.250611-7.071004 6.250612-7.149137 12.501223-14.45454 6.250612-7.266335 6.250611-7.305403 12.501223-14.76707 6.250612-7.422601 12.501223-14.923335 6.250612-7.5398 6.250611-7.500734 25.002446-30.315466" style="fill:none;stroke-width:12.5;stroke-linecap:round;stroke-linejoin:round;stroke:#006400;stroke-miterlimit:10;transform:matrix(.0999902,0,0,-.0999902,-5.499462,286.483922)"/></g><path fill="#fff" d="M427.3828 263.9844h339.9648V9.0117H427.3828zm0 0"/><g clip-path="url(#a1)"><use href="#o" class="h"/></g><g clip-path="url(#a2)"><use href="#p" class="h"/></g><g clip-path="url(#a3)"><use href="#o" class="a"/></g><g clip-path="url(#a4)"><path d="M1150.011356 225.017485v2549.976052" class="a"/></g><g clip-path="url(#a5)"><path d="M2000.016396 225.017485v2549.976052" class="a"/></g><g clip-path="url(#a6)"><path d="M2849.982369 225.017485v2549.976052" class="a"/></g><g clip-path="url(#a7)"><use href="#q" class="a"/></g><g clip-path="url(#a8)"><use href="#r" class="a"/></g><g clip-path="url(#a9)"><path d="M300.006317 649.980939h3399.981091" class="a"/></g><g clip-path="url(#aa)"><path d="M300.006317 1074.983458h3399.981091" class="a"/></g><g clip-path="url(#ab)"><path d="M300.006317 1499.985978h3399.981091" class="a"/></g><g clip-path="url(#ac)"><use href="#p" class="a"/></g><g clip-path="url(#ad)"><path d="M300.006317 2349.991017h3399.981091" class="a"/></g><g clip-path="url(#ae)"><use href="#s" class="a"/></g><g class="f"><use href="#r" class="c"/><g class="d"><path d="M300.006317 225.017485v49.965826"/><path d="M385.014634 225.017485v24.96338"/><path d="M469.983885 225.017485v24.96338"/><path d="M554.992202 225.017485v24.96338"/><path d="M640.000519 225.017485v24.96338"/><path d="M725.008837 225.017485v24.96338"/><path d="M810.017154 225.017485v24.96338"/><path d="M894.986405 225.017485v24.96338"/><path d="M979.994722 225.017485v24.96338"/><path d="M1065.003039 225.017485v24.96338"/><path d="M1150.011356 225.017485v49.965826"/><path d="M1234.980607 225.017485v24.96338"/><path d="M1319.988924 225.017485v24.96338"/><path d="M1404.997242 225.017485v24.96338"/><path d="M1490.005559 225.017485v24.96338"/><path d="M1575.013876 225.017485v24.96338"/><path d="M1659.983127 225.017485v24.96338"/><path d="M1744.991444 225.017485v24.96338"/><path d="M1829.999761 225.017485v24.96338"/><path d="M1915.008078 225.017485v24.96338"/><path d="M2000.016396 225.017485v49.965826"/><path d="M2084.985647 225.017485v24.96338"/><path d="M2169.993964 225.017485v24.96338"/><path d="M2255.002281 225.017485v24.96338"/><path d="M2340.010598 225.017485v24.96338"/><path d="M2425.018915 225.017485v24.96338"/><path d="M2509.988166 225.017485v24.96338"/><path d="M2594.996483 225.017485v24.96338"/><path d="M2680.004801 225.017485v24.96338"/><path d="M2765.013118 225.017485v24.96338"/><path d="M2849.982369 225.017485v49.965826"/><path d="M2934.990686 225.017485v24.96338"/><path d="M3019.999003 225.017485v24.96338"/><path d="M3105.00732 225.017485v24.96338"/><path d="M3190.015638 225.017485v24.96338"/><path d="M3274.984888 225.017485v24.96338"/><path d="M3359.993206 225.017485v24.96338"/><path d="M3445.001523 225.017485v24.96338"/><path d="M3530.00984 225.017485v24.96338"/><path d="M3615.018157 225.017485v24.96338"/><path d="M3699.987408 225.017485v49.965826"/></g></g><g clip-path="url(#af)"><use x="422.1706" y="273.9851" href="#u"/><use x="426.3402" y="273.9851" href="#v"/><use x="428.425" y="273.9851" href="#u"/></g><g clip-path="url(#ag)"><use x="507.1622" y="273.9851" href="#E"/><use x="511.3318" y="273.9851" href="#v"/><use x="513.4166" y="273.9851" href="#y"/></g><g clip-path="url(#ah)"><use x="592.1539" y="273.9851" href="#y"/><use x="596.3235" y="273.9851" href="#v"/><use x="598.4083" y="273.9851" href="#u"/></g><g clip-path="url(#ai)"><use x="677.1456" y="273.9851" href="#G"/><use x="681.3152" y="273.9851" href="#v"/><use x="683.4" y="273.9851" href="#y"/></g><g clip-path="url(#aj)"><use x="760.0523" y="273.9851" href="#z"/><use x="764.2219" y="273.9851" href="#u"/><use x="768.3915" y="273.9851" href="#v"/><use x="770.4763" y="273.9851" href="#u"/></g><g class="f"><use href="#s" class="c"/><g class="d"><path d="M300.006317 2774.993537v-50.004892"/><path d="M385.014634 2774.993537v-25.002446"/><path d="M469.983885 2774.993537v-25.002446"/><path d="M554.992202 2774.993537v-25.002446"/><path d="M640.000519 2774.993537v-25.002446"/><path d="M725.008837 2774.993537v-25.002446"/><path d="M810.017154 2774.993537v-25.002446"/><path d="M894.986405 2774.993537v-25.002446"/><path d="M979.994722 2774.993537v-25.002446"/><path d="M1065.003039 2774.993537v-25.002446"/><path d="M1150.011356 2774.993537v-50.004892"/><path d="M1234.980607 2774.993537v-25.002446"/><path d="M1319.988924 2774.993537v-25.002446"/><path d="M1404.997242 2774.993537v-25.002446"/><path d="M1490.005559 2774.993537v-25.002446"/><path d="M1575.013876 2774.993537v-25.002446"/><path d="M1659.983127 2774.993537v-25.002446"/><path d="M1744.991444 2774.993537v-25.002446"/><path d="M1829.999761 2774.993537v-25.002446"/><path d="M1915.008078 2774.993537v-25.002446"/><path d="M2000.016396 2774.993537v-50.004892"/><path d="M2084.985647 2774.993537v-25.002446"/><path d="M2169.993964 2774.993537v-25.002446"/><path d="M2255.002281 2774.993537v-25.002446"/><path d="M2340.010598 2774.993537v-25.002446"/><path d="M2425.018915 2774.993537v-25.002446"/><path d="M2509.988166 2774.993537v-25.002446"/><path d="M2594.996483 2774.993537v-25.002446"/><path d="M2680.004801 2774.993537v-25.002446"/><path d="M2765.013118 2774.993537v-25.002446"/><path d="M2849.982369 2774.993537v-50.004892"/><path d="M2934.990686 2774.993537v-25.002446"/><path d="M3019.999003 2774.993537v-25.002446"/><path d="M3105.00732 2774.993537v-25.002446"/><path d="M3190.015638 2774.993537v-25.002446"/><path d="M3274.984888 2774.993537v-25.002446"/><path d="M3359.993206 2774.993537v-25.002446"/><path d="M3445.001523 2774.993537v-25.002446"/><path d="M3530.00984 2774.993537v-25.002446"/><path d="M3615.018157 2774.993537v-25.002446"/><path d="M3699.987408 2774.993537v-50.004892"/></g></g><use x="422.1706" y="6.5113" href="#u"/><use x="426.3402" y="6.5113" href="#v"/><use x="428.425" y="6.5113" href="#u"/><use x="507.1622" y="6.5113" href="#E"/><use x="511.3318" y="6.5113" href="#v"/><use x="513.4166" y="6.5113" href="#y"/><use x="592.1539" y="6.5113" href="#y"/><use x="596.3235" y="6.5113" href="#v"/><use x="598.4083" y="6.5113" href="#u"/><use x="677.1456" y="6.5113" href="#G"/><use x="681.3152" y="6.5113" href="#v"/><use x="683.4" y="6.5113" href="#y"/><use x="760.0523" y="6.5113" href="#z"/><use x="764.2219" y="6.5113" href="#u"/><use x="768.3915" y="6.5113" href="#v"/><use x="770.4763" y="6.5113" href="#u"/><g class="f"><use href="#o" class="c"/><g class="d"><path d="M300.006317 225.017485h50.004892"/><path d="M300.006317 267.482577h25.002446"/><path d="M300.006317 309.986736h25.002446"/><path d="M300.006317 352.490895h25.002446"/><path d="M300.006317 394.995053h25.002446"/><path d="M300.006317 437.499212h25.002446"/><path d="M300.006317 480.003371h25.002446"/><path d="M300.006317 522.507529h25.002446"/><path d="M300.006317 565.011688h25.002446"/><path d="M300.006317 607.515846h25.002446"/><path d="M300.006317 649.980939h50.004892"/><path d="M300.006317 692.485097h25.002446"/><path d="M300.006317 734.989256h25.002446"/><path d="M300.006317 777.493414h25.002446"/><path d="M300.006317 819.997573h25.002446"/><path d="M300.006317 862.501732h25.002446"/><path d="M300.006317 905.00589h25.002446"/><path d="M300.006317 947.510049h25.002446"/><path d="M300.006317 990.014207h25.002446"/><path d="M300.006317 1032.518366h25.002446"/><path d="M300.006317 1074.983458h50.004892"/><path d="M300.006317 1117.487617h25.002446"/><path d="M300.006317 1159.991776h25.002446"/><path d="M300.006317 1202.495934h25.002446"/><path d="M300.006317 1245.000093h25.002446"/><path d="M300.006317 1287.504251h25.002446"/><path d="M300.006317 1330.00841h25.002446"/><path d="M300.006317 1372.512569h25.002446"/><path d="M300.006317 1415.016727h25.002446"/><path d="M300.006317 1457.481819h25.002446"/><path d="M300.006317 1499.985978h50.004892"/><path d="M300.006317 1542.490137h25.002446"/><path d="M300.006317 1584.994295h25.002446"/><path d="M300.006317 1627.498454h25.002446"/><path d="M300.006317 1670.002612h25.002446"/><path d="M300.006317 1712.506771h25.002446"/><path d="M300.006317 1755.01093h25.002446"/><path d="M300.006317 1797.515088h25.002446"/><path d="M300.006317 1840.019247h25.002446"/><path d="M300.006317 1882.484339h25.002446"/><path d="M300.006317 1924.988498h50.004892"/><path d="M300.006317 1967.492656h25.002446"/><path d="M300.006317 2009.996815h25.002446"/><path d="M300.006317 2052.500974h25.002446"/><path d="M300.006317 2095.005132h25.002446"/><path d="M300.006317 2137.509291h25.002446"/><path d="M300.006317 2180.013449h25.002446"/><path d="M300.006317 2222.517608h25.002446"/><path d="M300.006317 2264.9827h25.002446"/><path d="M300.006317 2307.486859h25.002446"/><path d="M300.006317 2349.991017h50.004892"/><path d="M300.006317 2392.495176h25.002446"/><path d="M300.006317 2434.999335h25.002446"/><path d="M300.006317 2477.503493h25.002446"/><path d="M300.006317 2520.007652h25.002446"/><path d="M300.006317 2562.51181h25.002446"/><path d="M300.006317 2605.015969h25.002446"/><path d="M300.006317 2647.481061h25.002446"/><path d="M300.006317 2689.98522h25.002446"/><path d="M300.006317 2732.489379h25.002446"/><path d="M300.006317 2774.993537h50.004892"/></g></g><g clip-path="url(#ak)"><use x="408.2122" y="267.7358" href="#A"/><use x="410.7094" y="267.7358" href="#E"/><use x="414.879" y="267.7358" href="#v"/><use x="416.9638" y="267.7358" href="#u"/></g><g clip-path="url(#al)"><use x="408.2122" y="225.2399" href="#A"/><use x="410.7094" y="225.2399" href="#z"/><use x="414.879" y="225.2399" href="#v"/><use x="416.9638" y="225.2399" href="#y"/></g><g clip-path="url(#am)"><use x="408.2122" y="182.7441" href="#A"/><use x="410.7094" y="182.7441" href="#z"/><use x="414.879" y="182.7441" href="#v"/><use x="416.9638" y="182.7441" href="#u"/></g><g clip-path="url(#an)"><use x="408.2122" y="139.6233" href="#A"/><use x="410.7094" y="139.6233" href="#u"/><use x="414.879" y="139.6233" href="#v"/><use x="416.9638" y="139.6233" href="#y"/></g><use x="410.7092" y="97.7524" href="#u"/><use x="414.8788" y="97.7524" href="#v"/><use x="416.9636" y="97.7524" href="#u"/><use x="410.7092" y="55.2565" href="#u"/><use x="414.8788" y="55.2565" href="#v"/><use x="416.9636" y="55.2565" href="#y"/><use x="410.7092" y="12.7607" href="#z"/><use x="414.8788" y="12.7607" href="#v"/><use x="416.9636" y="12.7607" href="#u"/><g class="f"><use href="#q" class="c"/><g class="d"><path d="M3699.987408 225.017485h-50.004892"/><path d="M3699.987408 267.482577h-25.002446"/><path d="M3699.987408 309.986736h-25.002446"/><path d="M3699.987408 352.490895h-25.002446"/><path d="M3699.987408 394.995053h-25.002446"/><path d="M3699.987408 437.499212h-25.002446"/><path d="M3699.987408 480.003371h-25.002446"/><path d="M3699.987408 522.507529h-25.002446"/><path d="M3699.987408 565.011688h-25.002446"/><path d="M3699.987408 607.515846h-25.002446"/><path d="M3699.987408 649.980939h-50.004892"/><path d="M3699.987408 692.485097h-25.002446"/><path d="M3699.987408 734.989256h-25.002446"/><path d="M3699.987408 777.493414h-25.002446"/><path d="M3699.987408 819.997573h-25.002446"/><path d="M3699.987408 862.501732h-25.002446"/><path d="M3699.987408 905.00589h-25.002446"/><path d="M3699.987408 947.510049h-25.002446"/><path d="M3699.987408 990.014207h-25.002446"/><path d="M3699.987408 1032.518366h-25.002446"/><path d="M3699.987408 1074.983458h-50.004892"/><path d="M3699.987408 1117.487617h-25.002446"/><path d="M3699.987408 1159.991776h-25.002446"/><path d="M3699.987408 1202.495934h-25.002446"/><path d="M3699.987408 1245.000093h-25.002446"/><path d="M3699.987408 1287.504251h-25.002446"/><path d="M3699.987408 1330.00841h-25.002446"/><path d="M3699.987408 1372.512569h-25.002446"/><path d="M3699.987408 1415.016727h-25.002446"/><path d="M3699.987408 1457.481819h-25.002446"/><path d="M3699.987408 1499.985978h-50.004892"/><path d="M3699.987408 1542.490137h-25.002446"/><path d="M3699.987408 1584.994295h-25.002446"/><path d="M3699.987408 1627.498454h-25.002446"/><path d="M3699.987408 1670.002612h-25.002446"/><path d="M3699.987408 1712.506771h-25.002446"/><path d="M3699.987408 1755.01093h-25.002446"/><path d="M3699.987408 1797.515088h-25.002446"/><path d="M3699.987408 1840.019247h-25.002446"/><path d="M3699.987408 1882.484339h-25.002446"/><path d="M3699.987408 1924.988498h-50.004892"/><path d="M3699.987408 1967.492656h-25.002446"/><path d="M3699.987408 2009.996815h-25.002446"/><path d="M3699.987408 2052.500974h-25.002446"/><path d="M3699.987408 2095.005132h-25.002446"/><path d="M3699.987408 2137.509291h-25.002446"/><path d="M3699.987408 2180.013449h-25.002446"/><path d="M3699.987408 2222.517608h-25.002446"/><path d="M3699.987408 2264.9827h-25.002446"/><path d="M3699.987408 2307.486859h-25.002446"/><path d="M3699.987408 2349.991017h-50.004892"/><path d="M3699.987408 2392.495176h-25.002446"/><path d="M3699.987408 2434.999335h-25.002446"/><path d="M3699.987408 2477.503493h-25.002446"/><path d="M3699.987408 2520.007652h-25.002446"/><path d="M3699.987408 2562.51181h-25.002446"/><path d="M3699.987408 2605.015969h-25.002446"/><path d="M3699.987408 2647.481061h-25.002446"/><path d="M3699.987408 2689.98522h-25.002446"/><path d="M3699.987408 2732.489379h-25.002446"/><path d="M3699.987408 2774.993537h-50.004892"/></g></g><g clip-path="url(#ao)"><use x="773.5983" y="267.7358" href="#A"/><use x="776.0956" y="267.7358" href="#E"/><use x="780.2652" y="267.7358" href="#v"/><use x="782.3499" y="267.7358" href="#u"/></g><g clip-path="url(#ap)"><use x="773.5983" y="225.2399" href="#A"/><use x="776.0956" y="225.2399" href="#z"/><use x="780.2652" y="225.2399" href="#v"/><use x="782.3499" y="225.2399" href="#y"/></g><g clip-path="url(#aq)"><use x="773.5983" y="182.7441" href="#A"/><use x="776.0956" y="182.7441" href="#z"/><use x="780.2652" y="182.7441" href="#v"/><use x="782.3499" y="182.7441" href="#u"/></g><g clip-path="url(#ar)"><use x="773.5983" y="139.6233" href="#A"/><use x="776.0956" y="139.6233" href="#u"/><use x="780.2652" y="139.6233" href="#v"/><use x="782.3499" y="139.6233" href="#y"/></g><use x="773.5983" y="97.7524" href="#u"/><use x="777.7679" y="97.7524" href="#v"/><use x="779.8527" y="97.7524" href="#u"/><use x="773.5983" y="55.2565" href="#u"/><use x="777.7679" y="55.2565" href="#v"/><use x="779.8527" y="55.2565" href="#y"/><use x="773.5983" y="12.7607" href="#z"/><use x="777.7679" y="12.7607" href="#v"/><use x="779.8527" y="12.7607" href="#u"/><g clip-path="url(#as)"><path d="M306.256928-300.033886l6.250612 375.661755 6.250612 220.255925 6.250611 156.734085 6.250612 122.004124 6.250611 100.126984 6.250612 85.047383 6.250611 74.030681 6.250612 65.631421 6.250611 59.06828 6.250612 53.716193 6.250612 49.379831 6.250611 45.668531 6.250612 42.543225 6.250611 39.886715 6.250612 37.542735 6.250611 35.472221 6.250612 33.67517 6.250611 32.07345 6.250612 30.627997 6.250612 29.299742 6.211545 28.088685 6.250611 27.072962 6.250612 26.01817 6.250611 25.158712 6.250612 24.299252 6.250612 23.47886 6.250611 22.775666 6.250612 22.111538 6.250611 21.486477 6.250612 20.861417 6.250611 20.275421 6.250612 19.767559 6.250612 19.298763 6.250611 18.751835 6.250612 18.361171 6.250611 17.853309 6.250612 17.462646 6.250611 17.071983 6.250612 16.720386 6.250611 16.329723 6.250612 15.939059 6.250612 15.626529 6.250611 15.313999 6.250612 14.962401 6.250611 14.649871 6.250612 14.33734 6.250611 14.063876 6.250612 13.790412 6.250611 13.477881 6.250612 13.204417 6.250612 12.970019 6.250611 12.696555 6.250612 12.42309 6.250611 12.188693 6.250612 11.915228 6.250611 11.719897 6.250612 11.446432 6.250611 11.212035 6.250612 10.977636 6.250612 10.782305 6.250611 10.508841 6.250612 10.313509 6.250611 10.079111 6.250612 9.883779 6.250611 9.649382 6.250612 9.45405 6.250612 9.219652 6.250611 9.063387 6.250612 8.789922 6.250611 8.633658 6.250612 8.399259 6.250611 8.203928 6.250612 8.008596 6.250611 7.813264 6.250612 7.617933 6.250612 7.422601 6.250611 7.22727 6.250612 7.031938 6.250611 6.836606 6.250612 6.680341 6.250611 6.445943 6.250612 6.289678 6.250611 6.05528 6.250612 5.899015 6.211545 5.742749 6.250612 5.508352 6.250611 5.352086 6.250612 5.156754 6.250612 5.00049 6.250611 4.805157 6.250612 4.609826 6.250611 4.453561 6.250612 4.258229 6.250611 4.101964 6.250612 3.906632 6.250611 3.750367 6.250612 3.555035 6.250612 3.39877 6.250611 3.242505 6.250612 3.047173 6.250611 2.890908 6.250612 2.695576 6.250611 2.539311 6.250612 2.383046 6.250611 2.22678 6.250612 2.031449 6.250612 1.875184 6.250611 1.718918 6.250612 1.562653 6.250611 1.406387 6.250612 1.250123 6.250611 1.093857 6.250612.898525 6.250611.781326 6.250612.585995 6.250612.468796 6.250611.312531 6.250612.156265h6.250611l6.250612-.156265 6.250611-.273464 6.250612-.468796 6.250612-.546929 6.250611-.74226 6.250612-.859459 6.250611-1.015724 6.250612-1.17199 6.250611-1.289189 6.250612-1.406387 6.250611-1.562653 6.250612-1.718918 6.250612-1.836118 6.250611-1.953316 6.250612-2.070515 6.250611-2.22678 6.250612-2.343979 6.250611-2.461179 6.250612-2.578377 6.250611-2.734643 6.250612-2.812775 6.250612-2.96904 6.250611-3.047173 6.250612-3.164373 6.250611-3.320637 6.250612-3.39877 6.250611-3.515969 6.250612-3.633168 6.250612-3.711301 6.211545-3.867565 6.250611-3.906633 6.250612-4.062897 6.250611-4.101964 6.250612-4.258229 6.250612-4.336362 6.250611-4.414494 6.250612-4.492627 6.250611-4.609826 6.250612-4.687959 6.250611-4.766091 6.250612-4.883291 6.250611-4.922356 6.250612-5.00049 6.250612-5.117688 6.250611-5.156754 6.250612-5.234887 6.250611-5.31302 6.250612-5.391153 6.250611-5.469285 6.250612-5.508351 6.250611-5.586484 6.250612-5.664617 6.250612-5.703683 6.250611-5.74275 6.250612-5.820882 6.250611-5.859948 12.501223-11.876162 6.250612-6.016213 12.501223-12.188693 6.250612-6.133413 6.250611-6.172478 6.250612-6.211546 6.250611-6.250611 6.250612-6.289678 12.501223-12.657489 12.501223-12.735621 6.250612-6.445943 6.250611-6.406877 6.250612-6.445943 6.250611-6.485009 6.250612-6.445943 6.250611-6.524076 12.501224-12.970019 6.250611-6.524076 6.250612-6.48501 12.501223-13.048151 6.250611-6.48501 6.250612-6.524076 18.751835-19.455028 12.501223-12.891886 6.250611-6.406877 6.250612-6.445943 12.501223-12.735621 6.211545-6.328745 6.250612-6.328744 6.250611-6.289678 6.250612-6.250611 6.250611-6.211546 12.501224-12.344957 12.501223-12.188693 6.250611-6.016213 12.501223-11.954295 12.501223-11.719897 6.250612-5.820882 6.250612-5.742749 6.250611-5.703683 6.250612-5.625551 6.250611-5.586484 6.250612-5.547417 6.250611-5.469286 6.250612-5.391152 6.250612-5.352086 6.250611-5.273954 12.501223-10.391641 6.250612-5.078622 6.250611-5.00049 6.250612-4.961422 6.250611-4.844224 6.250612-4.805158 6.250612-4.727025 6.250611-4.648892 6.250612-4.57076 6.250611-4.492627 6.250612-4.414495 6.250611-4.336361 6.250612-4.258229 6.250611-4.180097 6.250612-4.101964 6.250612-3.984765 6.250611-3.945698 6.250612-3.8285 6.250611-3.750367 6.250612-3.672234 6.250611-3.555035 6.250612-3.476903 6.250611-3.39877 6.250612-3.320637 6.250612-3.203439 6.250611-3.125306 6.250612-3.008106 6.250611-2.929975 6.250612-2.851841 6.250611-2.734643 6.250612-2.65651 6.250612-2.539311 6.250611-2.461178 6.250612-2.343979 6.250611-2.265847 6.250612-2.187714 6.250611-2.070515 6.250612-1.953316 6.250611-1.875184 6.211546-1.757984 6.250611-1.679852 6.250612-1.562653 6.250611-1.48452 6.250612-1.367321 6.250611-1.289189 6.250612-1.17199 6.250612-1.05479 6.250611-.976658 6.250612-.898526 6.250611-.781326 6.250612-.664128 6.250611-.585995 6.250612-.468795 6.250612-.390664 6.250611-.273464 6.250612-.195332 6.250611-.078132h6.250612l6.250611.117199 6.250612.195331 6.250611.312531 6.250612.390663 6.250612.507862 6.250611.585995 6.250612.703194 6.250611.781326 6.250612.85946 6.250611.976658 6.250612 1.05479 6.250611 1.17199 6.250612 1.211056 6.250612 1.367321 6.250611 1.406388 6.250612 1.523586 6.250611 1.60172 6.250612 1.679851 6.250611 1.757985 6.250612 1.875183 6.250611 1.953317 6.250612 2.031448 6.250612 2.109582 6.250611 2.187714 6.250612 2.265846 6.250611 2.383046 6.250612 2.422112 6.250611 2.500245 6.250612 2.617443 6.250612 2.65651 6.250611 2.734643 6.250612 2.812775 6.250611 2.890908 6.250612 2.96904 6.250611 3.008107 6.250612 3.125306 6.250611 3.164372 6.250612 3.242505 6.250612 3.281571 6.250611 3.359704 6.250612 3.437836 6.250611 3.476903 6.250612 3.555035 6.250611 3.594102 6.250612 3.672234 6.211545 3.7113 6.250612 3.789434 6.250611 3.828499 6.250612 3.867566 6.250611 3.906632 6.250612 3.984765 6.250611 4.023831 12.501224 8.203928 6.250611 4.14103 12.501223 8.438326 12.501223 8.594591 12.501224 8.750856 6.250611 4.414494 6.250612 4.453561 12.501223 8.985254 12.501223 9.063387 6.250611 4.609826 6.250612 4.57076 6.250612 4.648892 6.250611 4.609826 6.250612 4.687959 6.250611 4.648892 6.250612 4.687959 6.250611 4.727025 6.250612 4.687958 37.503669 28.36215 6.250612 4.766092 25.002446 18.9081 31.253058 23.439793 6.250611 4.609826 6.250612 4.648892 6.250612 4.609826 18.751834 13.71228 12.501223 8.985254 12.501223 8.907121 6.250612 4.414495 6.250612 4.375428 6.250611 4.336361 6.250612 4.297296 12.501223 8.516458 6.211545 4.180097 6.250612 4.14103 12.501223 8.203927 6.250611 4.023832 6.250612 3.984764 6.250611 3.945699 6.250612 3.867566 6.250612 3.828499 6.250611 3.789434 6.250612 3.750367 6.250611 3.7113 6.250612 3.633168 12.501223 7.110071 12.501223 6.875673 6.250612 3.359703 6.250611 3.281571 6.250612 3.242505 6.250611 3.164372 6.250612 3.125306 6.250611 3.047173 6.250612 2.969041 6.250611 2.929974 6.250612 2.851841 6.250612 2.812776 6.250611 2.695576 6.250612 2.65651 6.250611 2.617443 6.250612 2.500245 6.250611 2.461178 12.501223 4.687959 6.250612 2.22678 6.250612 2.148648 6.250611 2.109581 6.250612 1.992383 6.250611 1.953316 6.250612 1.875183 6.250611 1.797051 6.250612 1.718918 6.250612 1.640786 6.250611 1.562653 6.250612 1.48452 6.250611 1.406388 6.250612 1.367321 6.250611 1.250122 6.250612 1.17199 6.250611 1.132923 6.250612 1.015725 6.250612.937591 6.250611.898526 6.250612.781326 6.250611.703194 6.250612.664128 6.250611.546928 6.250612.468796 6.250611.390663 6.250612.351597 6.250612.234398 6.250611.156265 6.250612.078133 6.250611.039066 6.211546-.078132 6.250611-.156266 6.250612-.234398 6.250611-.31253 6.250612-.351597 6.250611-.468796 6.250612-.507862 6.250611-.625061 6.250612-.664128 6.250612-.781326 6.250611-.820393 6.250612-.898525 6.250611-.976659 6.250612-1.05479 6.250611-1.132924 6.250612-1.211056 6.250611-1.250122 6.250612-1.367321 6.250612-1.406388 6.250611-1.48452 6.250612-1.562653 6.250611-1.601719 6.250612-1.718918 6.250611-1.757985 6.250612-1.836117 6.250611-1.875183 6.250612-1.953316 6.250612-2.031449 6.250611-2.070515 6.250612-2.148648 6.250611-2.22678 6.250612-2.265847 6.250611-2.304913 12.501224-4.844224 6.250611-2.500245 6.250612-2.578377 6.250611-2.617444 12.501223-5.391152 12.501223-5.62555 6.250612-2.890908 6.250612-2.929974 6.250611-2.969041 12.501223-6.094346 6.250612-3.125306 6.250611-3.164372 6.250612-3.203439 6.250611-3.242504 6.250612-3.281571 6.250612-3.320638 6.250611-3.359703 6.250612-3.39877 6.250611-3.437837 6.250612-3.476903 12.501223-7.031938 12.501223-7.188203 12.501223-7.266336 6.250612-3.672234 6.211545-3.711301 6.250612-3.7113 6.250611-3.750367 18.751835-11.3683 12.501223-7.656999 25.002446-15.470264" style="fill:none;stroke-width:12.5;stroke-linecap:round;stroke-linejoin:round;stroke:#00008b;stroke-miterlimit:10;transform:matrix(.0999902,0,0,-.0999902,397.385116,286.483922)"/></g><g clip-path="url(#at)"><path d="M400.016102-58.994678l6.250611 104.580545 6.250612 92.860648 6.250611 83.094068 6.250612 74.733874 6.250612 67.701936 6.211545 61.529458 6.250611 56.333637 6.250612 51.684744 6.250611 47.699979 6.250612 44.144945 6.250612 41.019638 6.250611 38.245929 6.250612 35.784752 6.250611 33.597037 6.250612 31.604654 6.250611 29.807604 6.250612 28.205885 6.250612 26.799497 6.250611 25.432176 6.250612 24.260186 6.250611 23.205395 6.250612 22.150605 6.250611 21.291146 6.250612 20.470753 6.250611 19.689426 6.250612 18.986233 6.250612 18.361171 6.250611 17.73611 6.250612 17.228248 6.250611 16.720386 6.250612 16.25159 6.250611 15.821861 6.250612 15.392131 6.250611 15.0796 6.250612 14.688937 6.250612 14.415473 6.250611 14.102943 6.250612 13.790411 6.250611 13.556014 6.250612 13.321616 6.250611 13.087218 6.250612 12.930953 6.250611 12.657488 6.250612 12.54029 6.250612 12.344957 6.250611 12.149627 6.250612 12.032427 6.250611 11.876162 6.250612 11.758963 6.250611 11.641764 6.250612 11.485499 6.250612 11.407366 6.250611 11.290167 6.250612 11.172968 6.250611 11.094835 6.250612 11.016703 6.250611 10.899504 6.250612 10.821372 6.250611 10.743238 6.250612 10.665106 6.250612 10.62604 6.250611 10.547907 12.501223 20.861416 6.250612 10.313509 6.250611 10.274443 6.250612 10.235376 6.250611 10.157244 6.250612 10.118177 6.211545 10.040045 6.250612 10.000979 6.250611 9.922846 6.250612 9.883779 6.250612 9.844713 6.250611 9.766581 6.250612 9.727514 6.250611 9.688448 6.250612 9.610315 6.250611 9.571249 6.250612 9.532183 6.250611 9.493116 6.250612 9.414984 6.250612 9.375917 12.501223 18.59557 12.501223 18.361171 6.250611 9.102453 6.250612 9.063387 6.250611 8.985254 6.250612 8.946188 6.250612 8.907121 12.501223 17.579845 6.250611 8.71179 6.250612 8.672724 12.501223 17.111049 12.501223 16.876651 6.250612 8.321127 6.250611 8.28206 6.250612 8.203928 6.250611 8.125795 6.250612 8.086728 6.250611 7.96953 6.250612 7.930463 6.250612 7.891398 6.250611 7.774198 6.250612 7.696065 6.250611 7.656999 6.250612 7.539801 6.250611 7.500733 6.250612 7.383535 6.250611 7.344469 6.250612 7.266336 6.250612 7.149137 6.250611 7.071004 6.250612 6.992872 6.250611 6.914739 6.250612 6.836606 6.250611 6.758474 6.250612 6.641275 6.250611 6.563142 6.250612 6.485009 6.250612 6.367811 6.250611 6.289678 6.250612 6.211545 6.250611 6.094346 6.250612 6.016214 6.250611 5.899015 6.250612 5.820882 6.250612 5.703683 6.211545 5.664616 6.250611 5.508352 6.250612 5.430219 6.250611 5.313019 6.250612 5.195821 6.250612 5.117689 6.250611 5.039555 6.250612 4.922357 6.250611 4.805157 6.250612 4.687959 6.250611 4.609826 6.250612 4.492627 6.250611 4.375428 6.250612 4.258229 6.250612 4.14103 6.250611 4.062898 6.250612 3.945698 6.250611 3.8285 6.250612 3.750367 6.250611 3.633168 6.250612 3.476903 6.250611 3.39877 6.250612 3.281571 6.250612 3.164372 6.250611 3.047173 6.250612 2.929974 6.250611 2.851842 6.250612 2.695576 6.250611 2.617444 6.250612 2.461178 6.250612 2.383045 6.250611 2.265847 6.250612 2.148648 6.250611 2.031449 6.250612 1.875183 6.250611 1.797051 6.250612 1.718918 6.250611 1.523587 6.250612 1.48452 6.250612 1.328255 6.250611 1.211056 6.250612 1.132923 6.250611.976658 6.250612.898526 6.250611.781326 6.250612.625061 6.250611.546929 6.250612.429729 6.250612.351597 6.250611.195332 6.250612.078133h6.250611l6.250612-.117199 6.250611-.234398 6.250612-.351597 6.250611-.468796 6.250612-.546929 6.250612-.703193 6.250611-.742261 6.250612-.898525 6.250611-1.015724 6.250612-1.054791 6.250611-1.211056 6.250612-1.328255 6.211545-1.406388 6.250612-1.48452 6.250611-1.601719 6.250612-1.718918 6.250611-1.836117 6.250612-1.875184 6.250612-2.031449 6.250611-2.070515 6.250612-2.22678 6.250611-2.265847 6.250612-2.422112 6.250611-2.461178 6.250612-2.578377 6.250611-2.65651 6.250612-2.734643 6.250612-2.851841 6.250611-2.890908 6.250612-3.008107 6.250611-3.125306 6.250612-3.164372 6.250611-3.242505 6.250612-3.359703 6.250612-3.39877 6.250611-3.515969 6.250612-3.555036 6.250611-3.633168 6.250612-3.7113 12.501223-7.656999 6.250611-3.945699 6.250612-4.023831 6.250612-4.062898 6.250611-4.14103 6.250612-4.180096 6.250611-4.258229 6.250612-4.297296 12.501223-8.828989 6.250611-4.492627 6.250612-4.531693 6.250612-4.609826 6.250611-4.648893 6.250612-4.687958 6.250611-4.766092 6.250612-4.805157 6.250611-4.844224 6.250612-4.88329 6.250611-4.922357 6.250612-4.961423 6.250612-5.000489 6.250611-5.039556 6.250612-5.078622 12.501223-10.235376 6.250611-5.195821 6.250612-5.156754 12.501223-10.469775 6.250612-5.31302 6.250611-5.273953 12.501223-10.62604 6.250612-5.352086 6.250611-5.391152 6.211546-5.352087 18.751834-16.173457 6.250612-5.430219 6.250611-5.391152 12.501224-10.860438 6.250611-5.391152 6.250612-5.430219 31.253058-26.955762 18.751834-16.056259 6.250612-5.31302 18.751834-15.82186 6.250612-5.234887 6.250612-5.195821 12.501223-10.313509 6.250611-5.117689 12.501223-10.157243 12.501223-10.000979 6.250612-4.961423 12.501223-9.76658 12.501223-9.610316 6.250612-4.727025 6.250611-4.687958 6.250612-4.648893 6.250611-4.609826 6.250612-4.531693 6.250612-4.492627 6.250611-4.453561 6.250612-4.375428 6.250611-4.336362 6.250612-4.258229 6.250611-4.219163 6.250612-4.180096 6.250612-4.101964 6.250611-4.062897 6.250612-3.945699 6.250611-3.906632 6.250612-3.867566 6.250611-3.789433 6.250612-3.711301 6.250611-3.672234 6.250612-3.594102 6.250612-3.515969 6.250611-3.437836 6.250612-3.359704 6.250611-3.320637 6.250612-3.203439 6.250611-3.164372 6.250612-3.086239 6.211545-3.008107 6.250612-2.929974 6.250611-2.851842 6.250612-2.812775 6.250611-2.695576 6.250612-2.617444 6.250611-2.539311 6.250612-2.461178 6.250612-2.383046 6.250611-2.304913 6.250612-2.22678 6.250611-2.109582 6.250612-2.070515 6.250611-1.992382 6.250612-1.875184 6.250612-1.79705 6.250611-1.718919 6.250612-1.640785 6.250611-1.562653 6.250612-1.48452 6.250611-1.367321 6.250612-1.289189 6.250611-1.211056 6.250612-1.132923 6.250612-1.054791 6.250611-.937592 6.250612-.898525 6.250611-.781327 6.250612-.664127 6.250611-.625061 6.250612-.546929 6.250611-.429729 6.250612-.351597 6.250612-.273465 6.250611-.156265 6.250612-.117199h6.250611l6.250612.078133 6.250611.156265 6.250612.234398 6.250612.351597 6.250611.390663 6.250612.507862 6.250611.585995 6.250612.664128 6.250611.74226 6.250612.820393 6.250611.937591 6.250612.976658 6.250612 1.054791 6.250611 1.17199 6.250612 1.211056 6.250611 1.328255 6.250612 1.367321 6.250611 1.48452 6.250612 1.523587 6.250611 1.640785 6.250612 1.679852 6.250612 1.757985 6.250611 1.875183 6.250612 1.91425 6.250611 1.992382 6.250612 2.031449 6.211545 2.148648 6.250612 2.187714 6.250611 2.265847 6.250612 2.343979 6.250611 2.422112 6.250612 2.461178 6.250611 2.539311 6.250612 2.617444 6.250612 2.65651 6.250611 2.734642 6.250612 2.773709 6.250611 2.851842 6.250612 2.929974 6.250611 2.96904 6.250612 3.008107 6.250611 3.08624 6.250612 3.125305 6.250612 3.203439 6.250611 3.242504 6.250612 3.281572 12.501223 6.719407 6.250611 3.437836 12.501223 7.031938 12.501224 7.188204 6.250611 3.672234 12.501223 7.422601 12.501223 7.578867 12.501223 7.735131 6.250612 3.906633 6.250612 3.945698 12.501223 7.96953 6.250611 4.062897 6.250612 4.023832 18.751835 12.305891 6.250611 4.14103 6.250612 4.180097 6.250611 4.14103 6.250612 4.219163 6.250611 4.180096 6.250612 4.219163 6.250611 4.258229 6.250612 4.219163 25.002446 17.032916 6.250612 4.297296 12.501223 8.516458 6.250611 4.297296 25.002447 17.032916 6.250611 4.219163 6.211546 4.258229 6.250611 4.219163 6.250612 4.180096 6.250611 4.219163 6.250612 4.180097 6.250611 4.14103 6.250612 4.180096 18.751835 12.305892 6.250611 4.062897 12.501223 8.047663 6.250612 3.984765 12.501223 7.891397 6.250611 3.906632 6.250612 3.867566 6.250612 3.828499 12.501223 7.578867 6.250611 3.7113 12.501223 7.344469 12.501223 7.188203 12.501224 7.031938 12.501223 6.79754 6.250611 3.359704 6.250612 3.320638 6.250611 3.242504 6.250612 3.203439 6.250612 3.164372 6.250611 3.086239 6.250612 3.047173 6.250611 3.008107 6.250612 2.929974 6.250611 2.890908 6.250612 2.851842 6.250611 2.773709 6.250612 2.695576 6.250612 2.65651 6.250611 2.617443 6.250612 2.539311 6.250611 2.500245 6.250612 2.422112 6.250611 2.343979 6.250612 2.304913 6.250611 2.226781 6.250612 2.187714 6.250612 2.109581 6.250611 2.031449 6.250612 1.953316 6.250611 1.91425 6.250612 1.836117 6.250611 1.797051 6.250612 1.718918 6.250612 1.640785 6.250611 1.562653 6.250612 1.523587 6.250611 1.406387 6.250612 1.367322 6.211545 1.289188 6.250612 1.250123 6.250611 1.171989 6.250612 1.054791 6.250611 1.015724 6.250612.976658 6.250611.85946 6.250612.820392 6.250611.703194 6.250612.664128 6.250612.585994 6.250611.507863" style="fill:none;stroke-width:12.5;stroke-linecap:round;stroke-linejoin:round;stroke:#006400;stroke-miterlimit:10;transform:matrix(.0999902,0,0,-.0999902,397.385116,286.483922)"/></g><style>.a{fill:none;stroke:#bfbfbf;stroke-dasharray:12.5,18.75;stroke-linecap:round;stroke-miterlimit:10;stroke-width:6.25;transform:matrix(.0999902,0,0,-.0999902,397.385116,286.483922)}.b{fill:none;stroke:#bfbfbf;stroke-dasharray:12.5,18.75;stroke-linecap:round;stroke-miterlimit:10;stroke-width:6.25;transform:matrix(.0999902,0,0,-.0999902,-5.499462,286.483922)}.c{stroke-linecap:square;stroke-width:12.5}.d{stroke-width:6.25}.e{fill:none;stroke:#000;stroke-miterlimit:10;transform:matrix(.0999902,0,0,-.0999902,-5.499462,286.483922)}.f{fill:none;stroke:#000;stroke-miterlimit:10;transform:matrix(.0999902,0,0,-.0999902,397.385116,286.483922)}.g{fill:none;stroke:#bfbfbf;stroke-linecap:round;stroke-miterlimit:10;stroke-width:6.25;transform:matrix(.0999902,0,0,-.0999902,-5.499462,286.483922)}.h{fill:none;stroke:#bfbfbf;stroke-linecap:round;stroke-miterlimit:10;stroke-width:6.25;transform:matrix(.0999902,0,0,-.0999902,397.385116,286.483922)}</style></svg>