<svg xmlns="http://www.w3.org/2000/svg" width="352pt" height="260pt" viewBox="0 0 352 260"><defs><path d="M1.9531-2.1406H.3125v.5h1.6406zm0 0" id="g"/><path d="M1.7813-3.4531V0h.5937v-4.8594h-.3906c-.21875.75-.359375.859375-1.28125.96875v.4375zm0 0" id="h"/><path d="M1.8906-4.8594c-.453125 0-.875.203125-1.125.546875-.3125.421875-.46875 1.0625-.46875 1.96875 0 1.640625.546875 2.5 1.59375 2.5 1.03125 0 1.59375-.875 1.59375-2.46875 0-.9375-.15625-1.5625-.484375-2-.25-.34375-.65625-.546875-1.109375-.546875zm0 .5469c.640625 0 .96875.640625.96875 1.953125 0 1.375-.3125 2.015625-.984375 2.015625-.640625 0-.96875-.671875-.96875-2 0-1.328125.328125-1.96875.984375-1.96875zm0 0" id="f"/><path d="M3.2656-4.8594H.75L.3906-2.2031h.5625c.28125-.34375.515625-.453125.890625-.453125.65625 0 1.0625.4375 1.0625 1.15625 0 .703125-.40625 1.125-1.0625 1.125-.53125 0-.859375-.265625-1-.8125H.2344c.09375.390625.15625.578125.296875.765625.281225.35935.7656.5781 1.3281.5781.96875 0 1.65625-.703125 1.65625-1.734375 0-.953125-.640625-1.625-1.5625-1.625-.34375 0-.625.09375-.90625.296875l.1875-1.3437h2.0313zm0 0" id="i"/><clipPath id="j"><use href="#a"/></clipPath><clipPath id="k"><path d="M16 128h320v2H16zm0 0"/></clipPath><clipPath id="l"><path d="M52 7.6602h2v242.25h-2zm0 0"/></clipPath><clipPath id="m"><path d="M114 7.6602h1v242.25h-1zm0 0"/></clipPath><clipPath id="n"><use href="#a"/></clipPath><clipPath id="o"><path d="M237 7.6602h1v242.25h-1zm0 0"/></clipPath><clipPath id="p"><path d="M298 7.6602h2v242.25h-2zm0 0"/></clipPath><clipPath id="q"><path d="M16 249h320v.9102H16zm0 0"/></clipPath><clipPath id="r"><path d="M16 189h320v1H16zm0 0"/></clipPath><clipPath id="s"><path d="M16 128h320v2H16zm0 0"/></clipPath><clipPath id="t"><path d="M16 67h320v2H16zm0 0"/></clipPath><clipPath id="u"><path d="M16 7.6602h320V8H16zm0 0"/></clipPath><path id="a" d="M175 7.6602h2v242.25h-2zm0 0"/><path id="b" d="M1997.5031-211.1628v-2425.5368"/><path id="c" d="M399.5006-1423.9312h3196.005"/><path id="d" d="M399.5006-211.1628h3196.005"/><path id="e" d="M399.5006-2636.6996h3196.005"/></defs><path fill="#fff" d="M16 249.9102h320V7.6602H16zm0 0"/><g clip-path="url(#j)"><use href="#b" class="e"/></g><g clip-path="url(#k)"><use href="#c" class="e"/></g><g clip-path="url(#l)"><path d="M768.258427-211.162813v-2425.536772" class="a"/></g><g clip-path="url(#m)"><path d="M1382.880774-211.162813v-2425.536772" class="a"/></g><g clip-path="url(#n)"><use href="#b" class="a"/></g><g clip-path="url(#o)"><path d="M2612.125468-211.162813v-2425.536772" class="a"/></g><g clip-path="url(#p)"><path d="M3226.747815-211.162813v-2425.536772" class="a"/></g><g clip-path="url(#q)"><use href="#d" class="a"/></g><g clip-path="url(#r)"><path d="M399.500624-817.547006h3196.004994" class="a"/></g><g clip-path="url(#s)"><use href="#c" class="a"/></g><g clip-path="url(#t)"><path d="M399.500624-2030.315392h3196.004994" class="a"/></g><g clip-path="url(#u)"><use href="#e" class="a"/></g><g class="b"><use href="#d" class="c"/><g class="d"><path d="M399.500624-211.162813v-22.841097"/><path d="M460.947253-211.162813v-22.841097"/><path d="M522.432896-211.162813v-22.841097"/><path d="M583.879526-211.162813v-22.841097"/><path d="M645.365169-211.162813v-22.841097"/><path d="M768.258427-211.162813v-45.643083"/><path d="M768.258427-211.162813v-22.841097"/><path d="M829.74407-211.162813v-22.841097"/><path d="M891.190699-211.162813v-22.841097"/><path d="M952.637328-211.162813v-22.841097"/><path d="M1014.122971-211.162813v-22.841097"/><path d="M1075.5696-211.162813v-22.841097"/><path d="M1137.055243-211.162813v-22.841097"/><path d="M1198.501873-211.162813v-22.841097"/><path d="M1259.948502-211.162813v-22.841097"/><path d="M1382.880774-211.162813v-45.643083"/><path d="M1382.880774-211.162813v-22.841097"/><path d="M1444.366417-211.162813v-22.841097"/><path d="M1505.813046-211.162813v-22.841097"/><path d="M1567.259675-211.162813v-22.841097"/><path d="M1628.745318-211.162813v-22.841097"/><path d="M1690.191948-211.162813v-22.841097"/><path d="M1751.638577-211.162813v-22.841097"/><path d="M1813.12422-211.162813v-22.841097"/><path d="M1874.570849-211.162813v-22.841097"/><path d="M1997.503121-211.162813v-45.643083"/><path d="M1997.503121-211.162813v-22.841097"/><path d="M2058.94975-211.162813v-22.841097"/><path d="M2120.435393-211.162813v-22.841097"/><path d="M2181.882022-211.162813v-22.841097"/><path d="M2243.367665-211.162813v-22.841097"/><path d="M2304.814295-211.162813v-22.841097"/><path d="M2366.260924-211.162813v-22.841097"/><path d="M2427.746567-211.162813v-22.841097"/><path d="M2489.193196-211.162813v-22.841097"/><path d="M2612.125468-211.162813v-45.643083"/><path d="M2612.125468-211.162813v-22.841097"/><path d="M2673.572097-211.162813v-22.841097"/><path d="M2735.05774-211.162813v-22.841097"/><path d="M2796.50437-211.162813v-22.841097"/><path d="M2857.950999-211.162813v-22.841097"/><path d="M2919.436642-211.162813v-22.841097"/><path d="M2980.883271-211.162813v-22.841097"/><path d="M3042.368914-211.162813v-22.841097"/><path d="M3103.815543-211.162813v-22.841097"/><path d="M3226.747815-211.162813v-45.643083"/><path d="M3226.747815-211.162813v-22.841097"/><path d="M3288.194444-211.162813v-22.841097"/><path d="M3349.641074-211.162813v-22.841097"/><path d="M3411.126717-211.162813v-22.841097"/><path d="M3472.573346-211.162813v-22.841097"/><path d="M3534.058989-211.162813v-22.841097"/><path d="M3595.505618-211.162813v-22.841097"/></g></g><use x="47.6176" y="259.0301" href="#g"/><use x="49.901" y="259.0301" href="#h"/><use x="53.7136" y="259.0301" href="#f"/><use x="111.2381" y="259.0301" href="#g"/><use x="113.5216" y="259.0301" href="#i"/><use x="174.0942" y="259.0301" href="#f"/><use x="235.2373" y="259.0301" href="#i"/><use x="295.0457" y="259.0301" href="#h"/><use x="298.8583" y="259.0301" href="#f"/><g class="b"><use href="#e" class="c"/><g class="d"><path d="M399.500624-2636.699585v22.841097"/><path d="M460.947253-2636.699585v22.841097"/><path d="M522.432896-2636.699585v22.841097"/><path d="M583.879526-2636.699585v22.841097"/><path d="M645.365169-2636.699585v22.841097"/><path d="M768.258427-2636.699585v45.643082"/><path d="M768.258427-2636.699585v22.841097"/><path d="M829.74407-2636.699585v22.841097"/><path d="M891.190699-2636.699585v22.841097"/><path d="M952.637328-2636.699585v22.841097"/><path d="M1014.122971-2636.699585v22.841097"/><path d="M1075.5696-2636.699585v22.841097"/><path d="M1137.055243-2636.699585v22.841097"/><path d="M1198.501873-2636.699585v22.841097"/><path d="M1259.948502-2636.699585v22.841097"/><path d="M1382.880774-2636.699585v45.643082"/><path d="M1382.880774-2636.699585v22.841097"/><path d="M1444.366417-2636.699585v22.841097"/><path d="M1505.813046-2636.699585v22.841097"/><path d="M1567.259675-2636.699585v22.841097"/><path d="M1628.745318-2636.699585v22.841097"/><path d="M1690.191948-2636.699585v22.841097"/><path d="M1751.638577-2636.699585v22.841097"/><path d="M1813.12422-2636.699585v22.841097"/><path d="M1874.570849-2636.699585v22.841097"/><path d="M1997.503121-2636.699585v45.643082"/><path d="M1997.503121-2636.699585v22.841097"/><path d="M2058.94975-2636.699585v22.841097"/><path d="M2120.435393-2636.699585v22.841097"/><path d="M2181.882022-2636.699585v22.841097"/><path d="M2243.367665-2636.699585v22.841097"/><path d="M2304.814295-2636.699585v22.841097"/><path d="M2366.260924-2636.699585v22.841097"/><path d="M2427.746567-2636.699585v22.841097"/><path d="M2489.193196-2636.699585v22.841097"/><path d="M2612.125468-2636.699585v45.643082"/><path d="M2612.125468-2636.699585v22.841097"/><path d="M2673.572097-2636.699585v22.841097"/><path d="M2735.05774-2636.699585v22.841097"/><path d="M2796.50437-2636.699585v22.841097"/><path d="M2857.950999-2636.699585v22.841097"/><path d="M2919.436642-2636.699585v22.841097"/><path d="M2980.883271-2636.699585v22.841097"/><path d="M3042.368914-2636.699585v22.841097"/><path d="M3103.815543-2636.699585v22.841097"/><path d="M3226.747815-2636.699585v45.643082"/><path d="M3226.747815-2636.699585v22.841097"/><path d="M3288.194444-2636.699585v22.841097"/><path d="M3349.641074-2636.699585v22.841097"/><path d="M3411.126717-2636.699585v22.841097"/><path d="M3472.573346-2636.699585v22.841097"/><path d="M3534.058989-2636.699585v22.841097"/><path d="M3595.505618-2636.699585v22.841097"/></g></g><use x="47.6176" y="5.38" href="#g"/><use x="49.901" y="5.38" href="#h"/><use x="53.7136" y="5.38" href="#f"/><use x="111.2381" y="5.38" href="#g"/><use x="113.5216" y="5.38" href="#i"/><use x="174.0942" y="5.38" href="#f"/><use x="235.2373" y="5.38" href="#i"/><use x="295.0457" y="5.38" href="#h"/><use x="298.8583" y="5.38" href="#f"/><g class="b"><path d="M399.500624-211.162813v-2425.536772" class="c"/><g class="d"><path d="M399.500624-211.162813h45.646068"/><path d="M399.500624-211.162813h22.823034"/><path d="M399.500624-271.785588h22.823034"/><path d="M399.500624-332.447474h22.823034"/><path d="M399.500624-393.070249h22.823034"/><path d="M399.500624-453.732135h22.823034"/><path d="M399.500624-514.35491h22.823034"/><path d="M399.500624-574.977685h22.823034"/><path d="M399.500624-635.639571h22.823034"/><path d="M399.500624-696.262345h22.823034"/><path d="M399.500624-817.547006h45.646068"/><path d="M399.500624-817.547006h22.823034"/><path d="M399.500624-878.169781h22.823034"/><path d="M399.500624-938.831667h22.823034"/><path d="M399.500624-999.454442h22.823034"/><path d="M399.500624-1060.116328h22.823034"/><path d="M399.500624-1120.739103h22.823034"/><path d="M399.500624-1181.361878h22.823034"/><path d="M399.500624-1242.023764h22.823034"/><path d="M399.500624-1302.646538h22.823034"/><path d="M399.500624-1423.931199h45.646068"/><path d="M399.500624-1423.931199h22.823034"/><path d="M399.500624-1484.553974h22.823034"/><path d="M399.500624-1545.21586h22.823034"/><path d="M399.500624-1605.838635h22.823034"/><path d="M399.500624-1666.46141h22.823034"/><path d="M399.500624-1727.123296h22.823034"/><path d="M399.500624-1787.746071h22.823034"/><path d="M399.500624-1848.407957h22.823034"/><path d="M399.500624-1909.030731h22.823034"/><path d="M399.500624-2030.315392h45.646068"/><path d="M399.500624-2030.315392h22.823034"/><path d="M399.500624-2090.938167h22.823034"/><path d="M399.500624-2151.600053h22.823034"/><path d="M399.500624-2212.222828h22.823034"/><path d="M399.500624-2272.884714h22.823034"/><path d="M399.500624-2333.507489h22.823034"/><path d="M399.500624-2394.169375h22.823034"/><path d="M399.500624-2454.79215h22.823034"/><path d="M399.500624-2515.414924h22.823034"/><path d="M399.500624-2636.699585h45.646068"/><path d="M399.500624-2636.699585h22.823034"/></g></g><use x=".3773" y="253.3301" href="#g"/><use x="2.6607" y="253.3301" href="#h"/><use x="6.4733" y="253.3301" href="#f"/><use x="4.1902" y="192.3399" href="#g"/><use x="6.4736" y="192.3399" href="#i"/><use x="6.4734" y="131.92" href="#f"/><use x="6.4734" y="71.5001" href="#i"/><use x="2.6609" y="11.0802" href="#h"/><use x="6.4735" y="11.0802" href="#f"/><g class="b"><path d="M3595.505618-211.162813v-2425.536772" class="c"/><g class="d"><path d="M3595.505618-211.162813h-45.685081"/><path d="M3595.505618-211.162813h-22.823034"/><path d="M3595.505618-271.785588h-22.823034"/><path d="M3595.505618-332.447474h-22.823034"/><path d="M3595.505618-393.070249h-22.823034"/><path d="M3595.505618-453.732135h-22.823034"/><path d="M3595.505618-514.35491h-22.823034"/><path d="M3595.505618-574.977685h-22.823034"/><path d="M3595.505618-635.639571h-22.823034"/><path d="M3595.505618-696.262345h-22.823034"/><path d="M3595.505618-817.547006h-45.685081"/><path d="M3595.505618-817.547006h-22.823034"/><path d="M3595.505618-878.169781h-22.823034"/><path d="M3595.505618-938.831667h-22.823034"/><path d="M3595.505618-999.454442h-22.823034"/><path d="M3595.505618-1060.116328h-22.823034"/><path d="M3595.505618-1120.739103h-22.823034"/><path d="M3595.505618-1181.361878h-22.823034"/><path d="M3595.505618-1242.023764h-22.823034"/><path d="M3595.505618-1302.646538h-22.823034"/><path d="M3595.505618-1423.931199h-45.685081"/><path d="M3595.505618-1423.931199h-22.823034"/><path d="M3595.505618-1484.553974h-22.823034"/><path d="M3595.505618-1545.21586h-22.823034"/><path d="M3595.505618-1605.838635h-22.823034"/><path d="M3595.505618-1666.46141h-22.823034"/><path d="M3595.505618-1727.123296h-22.823034"/><path d="M3595.505618-1787.746071h-22.823034"/><path d="M3595.505618-1848.407957h-22.823034"/><path d="M3595.505618-1909.030731h-22.823034"/><path d="M3595.505618-2030.315392h-45.685081"/><path d="M3595.505618-2030.315392h-22.823034"/><path d="M3595.505618-2090.938167h-22.823034"/><path d="M3595.505618-2151.600053h-22.823034"/><path d="M3595.505618-2212.222828h-22.823034"/><path d="M3595.505618-2272.884714h-22.823034"/><path d="M3595.505618-2333.507489h-22.823034"/><path d="M3595.505618-2394.169375h-22.823034"/><path d="M3595.505618-2454.79215h-22.823034"/><path d="M3595.505618-2515.414924h-22.823034"/><path d="M3595.505618-2636.699585h-45.685081"/><path d="M3595.505618-2636.699585h-22.823034"/></g></g><use x="341.714" y="253.3301" href="#g"/><use x="343.9974" y="253.3301" href="#h"/><use x="347.81" y="253.3301" href="#f"/><use x="341.714" y="192.3399" href="#g"/><use x="343.9974" y="192.3399" href="#i"/><use x="341.714" y="131.92" href="#f"/><use x="341.714" y="71.5001" href="#i"/><use x="341.714" y="11.0802" href="#h"/><use x="345.5266" y="11.0802" href="#f"/><g style="fill:none;stroke-width:11.4143;stroke-linecap:round;stroke-linejoin:round;stroke:#00f;stroke-miterlimit:10;transform:matrix(.100125,0,0,.0998748,-24,271)"><path d="M2058.94975-1423.931199l-.31211-6.062278-.897315-5.984054-1.521536-5.866721-2.106742-5.710274-2.652933-5.436494-3.23814-5.162713-3.706305-4.849822-4.213483-4.419596-4.60362-3.98937-4.993758-3.559144-5.305868-3.011583-5.617977-2.464022-5.85206-1.916462-5.969102-1.32979-6.125156-.743118-6.125156-.117334-6.125156.469338-6.047128 1.095121-5.891074 1.681793-5.735019 2.229353-5.422909 2.816026-5.149812 3.285363-4.798689 3.832924-4.369538 4.26315-3.901374 4.654265-3.433208 5.045379-2.887016 5.31916-2.340824 5.59294-1.794632 5.827608-1.170412 5.944943-.546192 6.062278.039013 6.023166.663234 6.023166 1.287453 5.944943 1.872659 5.788497 2.418852 5.553828 3.004057 5.31916 3.511236 4.967156 3.979401 4.576042 4.447565 4.184927 4.837703 3.754701 5.22784 3.20714 5.500937 2.698692 5.735018 2.15113 5.930088 1.564459 6.047128.977787 6.125156.391114 6.16417-.234668 6.086143-.821341 5.969101-1.408013 5.813046-2.033796 5.53995-2.542246 5.266854-3.128917 4.954744-3.598255 4.525593-4.067593 4.135456-4.497819 3.628277-4.888933 3.121098-5.240937 2.574907-5.475605 1.9897-5.749386 1.443508-5.905832.819289-5.984054.195068-5.045379"/><path d="M2366.260924-1423.931199l-1.833646-36.334554-5.500936-35.943438-9.129213-35.239433-12.64045-34.144311-16.034644-32.77541-19.272784-31.015393-22.315855-28.942486-25.124844-26.595798-27.660737-24.014441-30.00156-21.159304-31.991261-18.069498-33.629838-14.862358-34.956305-11.498772-35.970661-7.939627-36.594882-4.380485-36.867977-.782229-36.750936 2.894248-36.282772 6.492504-35.424469 10.012536-34.254058 13.454345-32.693508 16.778819-30.859863 19.907737-28.675093 22.841097-26.217229 25.539789-23.525281 28.042922-20.560237 30.194053-17.400125 32.032292-14.044944 33.635862-10.611735 34.809206-7.022472 35.70877-3.355181 36.217219.31211 36.373665 3.979401 36.138996 7.646691 35.591435 11.157928 34.65276 14.669164 33.362082 17.946317 31.797623 21.028402 29.84205 23.993445 27.612696 26.685394 25.109562 29.065231 22.37176 31.171972 19.399288 33.005618 16.231259 34.449126 12.867672 35.580525 9.464976 36.399812 5.86672 36.78995 2.268465 36.828964-1.368902 36.516854-5.006267 35.814607-8.565412 34.80025-12.046332 33.395755-15.409918 31.640137-18.617059 29.611423-21.628641 27.309613-24.483779 24.65668-27.026024 21.808676-29.294489 18.726592-31.328286 15.488452-33.010078 12.055243-34.37898 8.504994-35.395878 4.91573-36.021662 1.24844-30.233164"/><path d="M2735.05774-1423.931199l-3.706304-72.629996-11.001873-71.925988-18.258427-70.478865-25.280899-68.327734-32.069288-65.511708-38.506554-61.991676-44.631711-57.924084-50.249688-53.191595-55.3995-48.028883-59.964108-42.279496-63.943508-36.217219-67.298689-29.685604-69.951623-22.958431-71.941323-15.918368-73.189763-8.760968-73.696941-1.525348-73.501873 5.749386-72.526529 12.985007-70.887953 20.025072-68.469101 26.947801-65.42603 33.518528-61.680712 39.815474-57.389201 45.682194-52.434457 51.118688-47.011548 56.007621-41.120474 60.388106-34.80025 64.142807-28.128901 67.232613-21.223471 69.657524-14.00593 71.378428-6.749376 72.434438.62422 72.747329 7.958802 72.317104 15.254369 71.143759 22.393883 69.305521 29.260299 66.763275 35.892635 63.517023 42.134831 59.6841 47.986891 55.264504 53.292759 50.219124 58.130462 44.743519 62.382959 38.798576 65.972222 32.423406 68.937266 25.774457 71.200063 18.890839 72.760611 11.73344 73.579901 4.536931 73.657927-2.737803 73.033708-9.973424 71.629214-17.091712 69.561485-24.131775 66.791511-30.819837 63.319288-37.234117 59.26186-43.296394 54.541199-48.928446 49.352372-54.052048 43.617353-58.62809 37.453184-62.61746 30.93789-66.020157 24.149501-68.718849 17.009987-70.791756 9.792447-72.082435 2.574906-60.466328"/><path d="M3103.815543-1423.931199l-5.53995-108.964549-16.502809-107.869427-27.38764-105.718297-37.921349-102.511157-48.064919-98.208895-57.818352-93.046181-66.947565-86.827458-75.374532-79.826505-83.060237-72.043324-89.965668-63.4388-95.895755-54.286717-100.967541-44.547962-104.946941-34.418091-107.872972-23.897107-109.784644-13.141453-110.564919-2.268465-110.252809 8.604523-108.809301 19.477511-106.273408 30.037607-102.762172 40.402146-98.119538 50.297347-92.540574 59.723211-86.064295 68.562403-78.651685 76.658476-70.536829 84.011432-61.680712 90.582159-52.200375 96.175099-42.212858 100.829363-31.757179 104.505842-21.067416 107.126309-10.14357 108.651657.936329 109.081883 11.977216 108.4561 22.901061 106.735195 33.551811 103.958281 43.929463 100.164468 53.799937 95.275535 63.241261 89.526149 71.941324 82.8772 79.978152 75.328686 87.195693 67.115279 93.554931 58.158752 98.97784 48.693777 103.386392 38.64213 106.819601 28.316703 109.121411 17.639271 110.36985 6.805396 110.486891-4.106704 109.550562-14.979692 107.482834-25.657123 104.322722-36.138996 100.148252-46.229755 94.998439-55.890287 88.873284-64.925036 81.850811-73.373113 73.970038-81.078072 65.465043-87.961691 56.218789-93.945745 46.387329-99.030236 36.16573-103.13694 25.553995-106.109411 14.708177-108.143208 3.823346-90.699493"/></g><style>.a{fill:none;stroke:#bfbfbf;stroke-dasharray:11.4143,17.1214;stroke-linecap:round;stroke-miterlimit:10;stroke-width:5.70714;transform:matrix(.100125,0,0,.0998748,-24,271)}.b{fill:none;stroke:#000;stroke-miterlimit:10;transform:matrix(.100125,0,0,.0998748,-24,271)}.c{stroke-linecap:square;stroke-width:11.4143}.d{stroke-width:5.70714}.e{fill:none;stroke:#bfbfbf;stroke-linecap:round;stroke-miterlimit:10;stroke-width:5.70714;transform:matrix(.100125,0,0,.0998748,-24,271)}</style></svg>