<svg xmlns="http://www.w3.org/2000/svg" width="716.924pt" height="260.999pt" viewBox="0 0 716.924 260.999"><defs><use href="#a" id="j"/><path d="M1.3125-.7187H.5938V0h.7188zm0 0" id="l"/><use href="#b" id="n"/><path d="M3.2656-4.8594H.75L.3906-2.2031h.5625c.28125-.34375.515625-.453125.890625-.453125.65625 0 1.0625.4375 1.0625 1.15625 0 .703125-.40625 1.125-1.0625 1.125-.53125 0-.859375-.265625-1-.8125H.2344c.09375.390625.15625.578125.296875.765625.281225.35935.7656.5781 1.3281.5781.96875 0 1.65625-.703125 1.65625-1.734375 0-.953125-.640625-1.625-1.5625-1.625-.34375 0-.625.09375-.90625.296875l.1875-1.3437h2.0313zm0 0" id="m"/><path d="M3.5625-4.8594h-3.25v.6094h2.625C1.78125-2.609375 1.3125-1.59375.953125 0h.6406c.265625-1.546875.875-2.890625 1.96875-4.34375zm0 0" id="o"/><path d="M1.7813-3.5312V0h.5937v-4.9531h-.3906c-.21875.765625-.359375.875-1.28125.984375v.4375zm0 0" id="p"/><use href="#c" id="u"/><use href="#d" id="v"/><path d="M.3594-1.125C.484375-.328125 1 .15625 1.75.15625c.53125 0 1.015625-.265625 1.296875-.703125.3125-.484375.4375-1.09375.4375-1.984375 0-.828125-.109375-1.359375-.40625-1.796875-.265625-.40625-.6875-.625-1.21875-.625-.9375 0-1.59375.703125-1.59375 1.65625C.265625-2.390625.875-1.75 1.75-1.75c.46875 0 .8125-.15625 1.125-.53125C2.859375-1.046875 2.46875-.375 1.78125-.375c-.421875 0-.71875-.28125-.8125-.75zm1.4844-3.2969c.5625 0 .984375.46875.984375 1.109375 0 .609375-.40625 1.03125-1 1.03125-.59375 0-.953125-.40625-.953125-1.0625 0-.625.40625-1.078125.96875-1.078125zm0 0" id="w"/><use href="#a" id="k"/><use href="#b" id="q"/><path d="M2.25-1.2031V0h.5938v-1.2031h.7188v-.5312h-.7187V-4.953h-.4375L.1877-1.828v.625zm0-.5312H.7188L2.25-3.9219zm0 0" id="r"/><use href="#c" id="s"/><use href="#d" id="t"/><clipPath id="x"><path d="M14.5 8.1719h.5v242.2227h-.5zm0 0"/></clipPath><clipPath id="y"><path d="M78 8.1719h1v242.2227h-1zm0 0"/></clipPath><clipPath id="z"><path d="M142 8.1719h1v242.2227h-1zm0 0"/></clipPath><clipPath id="A"><path d="M206 8.1719h1v242.2227h-1zm0 0"/></clipPath><clipPath id="B"><path d="M270 8.1719h1v242.2227h-1zm0 0"/></clipPath><clipPath id="C"><path d="M334 8.1719h.4648v242.2227H334zm0 0"/></clipPath><clipPath id="D"><path d="M14.5 196h319.9648v1H14.5zm0 0"/></clipPath><clipPath id="E"><path d="M14.5 135h319.9648v1H14.5zm0 0"/></clipPath><clipPath id="F"><path d="M14.5 73h319.9648v2H14.5zm0 0"/></clipPath><clipPath id="G"><path d="M14.5 12h319.9648v2H14.5zm0 0"/></clipPath><clipPath id="H"><path d="M10 .5117h9V7h-9zm0 0"/></clipPath><clipPath id="I"><path d="M73 .5117h10V7H73zm0 0"/></clipPath><clipPath id="J"><path d="M137 .5117h10V7h-10zm0 0"/></clipPath><clipPath id="K"><path d="M264 .5117h13V7h-13zm0 0"/></clipPath><clipPath id="L"><path d="M328 .5117h13V7h-13zm0 0"/></clipPath><clipPath id="M"><path d="M14.5 18h319.9648v222H14.5zm0 0"/></clipPath><clipPath id="N"><path d="M14.5 18h319.9648v2H14.5zm0 0"/></clipPath><clipPath id="O"><path d="M14.5 43h319.9648v2H14.5zm0 0"/></clipPath><clipPath id="P"><path d="M14.5 196h319.9648v2H14.5zm0 0"/></clipPath><clipPath id="Q"><path d="M39 8.1719h2v242.2227h-2zm0 0"/></clipPath><clipPath id="R"><path d="M249 8.1719h2v242.2227h-2zm0 0"/></clipPath><clipPath id="S"><path d="M382.3828 8.1719H383v242.2227h-.6172zm0 0"/></clipPath><clipPath id="T"><path d="M462 8.1719h1v242.2227h-1zm0 0"/></clipPath><clipPath id="U"><path d="M542 8.1719h1v242.2227h-1zm0 0"/></clipPath><clipPath id="V"><path d="M622 8.1719h1v242.2227h-1zm0 0"/></clipPath><clipPath id="W"><path d="M702 8.1719h.3477v242.2227H702zm0 0"/></clipPath><clipPath id="X"><path d="M382.3828 245h319.9648v2H382.3828zm0 0"/></clipPath><clipPath id="Y"><path d="M382.3828 179h319.9648v2H382.3828zm0 0"/></clipPath><clipPath id="Z"><path d="M382.3828 114h319.9648v1H382.3828zm0 0"/></clipPath><clipPath id="a0"><path d="M382.3828 48h319.9648v2H382.3828zm0 0"/></clipPath><clipPath id="a1"><path d="M380 .5117h4V7h-4zm0 0"/></clipPath><clipPath id="a2"><path d="M458 .5117h8V7h-8zm0 0"/></clipPath><clipPath id="a3"><path d="M538 .5117h8V7h-8zm0 0"/></clipPath><clipPath id="a4"><path d="M618 .5117h8V7h-8zm0 0"/></clipPath><clipPath id="a5"><path d="M698 .5117h8V7h-8zm0 0"/></clipPath><clipPath id="a6"><path d="M382.3828 18h319.9648v221H382.3828zm0 0"/></clipPath><clipPath id="a7"><path d="M382.3828 238h319.9648v2H382.3828zm0 0"/></clipPath><path id="a" d="M1.8906-4.9531c-.453125 0-.875.203125-1.125.546875-.3125.4375-.46875 1.09375-.46875 2.015625C.296875-.71875.84375.15625 1.890625.15625c1.03125 0 1.59375-.875 1.59375-2.515625 0-.953125-.15625-1.59375-.484375-2.046875-.25-.34375-.65625-.546875-1.109375-.546875zm0 .5313c.640625 0 .96875.671875.96875 2.015625 0 1.40625-.3125 2.0625-.984375 2.0625-.640625 0-.96875-.6875-.96875-2.046875 0-1.359375.328125-2.03125.984375-2.03125zm0 0"/><path id="b" d="M3.4688-.5937H.9063c.06245-.4063.2812-.671925.890575-1.0313l.6719-.3906C3.15625-2.390625 3.5-2.890625 3.5-3.5c0-.421875-.15625-.796875-.453125-1.0625-.28125-.265625-.640625-.390625-1.09375-.390625-.625 0-1.078125.21875-1.34375.640625-.171875.265625-.25.578125-.265625 1.078125h.6094c.015625-.34375.0625-.53125.140625-.703125.15625-.296875.46875-.484375.828125-.484375.546875 0 .96875.390625.96875.9375 0 .390625-.234375.734375-.65625.984375l-.6406.3594C.578125-1.546875.28125-1.09375.234375 0H3.4688zm0 0"/><path id="c" d="M3.4219-3.6562c-.125-.8125-.640625-1.296875-1.390625-1.296875-.53125 0-1.015625.265625-1.296875.703125-.3125.5-.4375 1.09375-.4375 1.984375 0 .84375.109375 1.375.40625 1.8125.265625.390625.6875.609375 1.21875.609375.9375 0 1.59375-.6875 1.59375-1.65625 0-.90625-.609375-1.546875-1.484375-1.546875-.484375 0-.859375.171875-1.125.53125.015625-1.21875.390625-1.90625 1.09375-1.90625.421875 0 .71875.28125.8125.765625zM1.9532-2.5156c.578125 0 .953125.40625.953125 1.0625 0 .625-.421875 1.078125-.96875 1.078125-.5625 0-.984375-.46875-.984375-1.109375 0-.609375.40625-1.03125 1-1.03125zm0 0"/><path id="d" d="M2.6875-2.6094c.5-.3125.65625-.546875.65625-1.015625 0-.78125-.59375-1.328125-1.453125-1.328125-.859375 0-1.46875.546875-1.46875 1.3125 0 .484375.15625.71875.65625 1.03125C.53125-2.328125.25-1.921875.25-1.375.25-.46875.921875.15625 1.890625.15625c.953125 0 1.625-.625 1.625-1.53125 0-.546875-.265625-.953125-.828125-1.234375zm-.7969-1.8125c.515625 0 .84375.3125.84375.8125 0 .46875-.34375.765625-.84375.765625-.515625 0-.84375-.296875-.84375-.78125 0-.484375.328125-.796875.84375-.796875zm0 2.0938c.59375 0 1.015625.390625 1.015625.96875C2.90625-.765625 2.5-.375 1.875-.375c-.59375 0-1-.40625-1-.984375 0-.578125.40625-.96875 1.015625-.96875zm0 0"/><path id="e" d="M399.516-211.177v-2425.5201"/><path id="f" d="M3595.5086-211.177v-2425.5201"/><path id="g" d="M399.516-749.0558h3195.9926"/><path id="h" d="M399.4941-211.177v-2425.5201"/><path id="i" d="M3595.4868-211.177v-2425.5201"/></defs><path fill="#fff" d="M14.5 250.3945h319.9648V8.1719H14.5zm0 0"/><g style="clip-path:url(#x);fill:none;stroke-width:5.70714;stroke-linecap:round;stroke:#bfbfbf;stroke-miterlimit:10"><g transform="matrix(.100114 0 0 .0998642 -25.497297 271.483554)"><use href="#e"/><use href="#e" class="g"/></g></g><g clip-path="url(#y)"><path d="M1038.7067-211.176982v-2425.52009" class="a"/></g><g clip-path="url(#z)"><path d="M1677.897424-211.176982v-2425.52009" class="a"/></g><g clip-path="url(#A)"><path d="M2317.088147-211.176982v-2425.52009" class="a"/></g><g clip-path="url(#B)"><path d="M2956.317889-211.176982v-2425.52009" class="a"/></g><g clip-path="url(#C)"><use href="#f" class="a"/></g><g clip-path="url(#D)"><use href="#g" class="a"/></g><g clip-path="url(#E)"><path d="M399.515976-1361.958337h3195.992637" class="a"/></g><g clip-path="url(#F)"><path d="M399.515976-1974.860888h3195.992637" class="a"/></g><g clip-path="url(#G)"><path d="M399.515976-2587.724324h3195.992637" class="a"/></g><g class="e"><path d="M399.515976-211.176982h3195.992637" class="b"/><g class="c"><path d="M399.515976-211.176982v-45.647921"/><path d="M399.515976-211.176982v-22.804403"/><path d="M463.427245-211.176982v-22.804403"/><path d="M527.338514-211.176982v-22.804403"/><path d="M591.249783-211.176982v-22.804403"/><path d="M655.161051-211.176982v-22.804403"/><path d="M719.111338-211.176982v-22.804403"/><path d="M783.022607-211.176982v-22.804403"/><path d="M846.933876-211.176982v-22.804403"/><path d="M910.845145-211.176982v-22.804403"/><path d="M1038.7067-211.176982v-45.647921"/><path d="M1038.7067-211.176982v-22.804403"/><path d="M1102.617969-211.176982v-22.804403"/><path d="M1166.529238-211.176982v-22.804403"/><path d="M1230.440506-211.176982v-22.804403"/><path d="M1294.390793-211.176982v-22.804403"/><path d="M1358.302062-211.176982v-22.804403"/><path d="M1422.213331-211.176982v-22.804403"/><path d="M1486.124599-211.176982v-22.804403"/><path d="M1550.074886-211.176982v-22.804403"/><path d="M1677.897424-211.176982v-45.647921"/><path d="M1677.897424-211.176982v-22.804403"/><path d="M1741.808692-211.176982v-22.804403"/><path d="M1805.758979-211.176982v-22.804403"/><path d="M1869.670248-211.176982v-22.804403"/><path d="M1933.581517-211.176982v-22.804403"/><path d="M1997.492786-211.176982v-22.804403"/><path d="M2061.404054-211.176982v-22.804403"/><path d="M2125.354341-211.176982v-22.804403"/><path d="M2189.26561-211.176982v-22.804403"/><path d="M2317.088147-211.176982v-45.647921"/><path d="M2317.088147-211.176982v-22.804403"/><path d="M2381.038434-211.176982v-22.804403"/><path d="M2444.949703-211.176982v-22.804403"/><path d="M2508.860972-211.176982v-22.804403"/><path d="M2572.77224-211.176982v-22.804403"/><path d="M2636.683509-211.176982v-22.804403"/><path d="M2700.633796-211.176982v-22.804403"/><path d="M2764.545065-211.176982v-22.804403"/><path d="M2828.456334-211.176982v-22.804403"/><path d="M2956.317889-211.176982v-45.647921"/><path d="M2956.317889-211.176982v-22.804403"/><path d="M3020.229158-211.176982v-22.804403"/><path d="M3084.140427-211.176982v-22.804403"/><path d="M3148.051695-211.176982v-22.804403"/><path d="M3211.962964-211.176982v-22.804403"/><path d="M3275.913251-211.176982v-22.804403"/><path d="M3339.82452-211.176982v-22.804403"/><path d="M3403.735788-211.176982v-22.804403"/><path d="M3467.647057-211.176982v-22.804403"/><path d="M3595.508613-211.176982v-45.647921"/><path d="M3595.508613-211.176982v-22.804403"/></g></g><use x="9.7334" y="259.5149" href="#j"/><use x="13.5456" y="259.5149" href="#l"/><use x="15.4516" y="259.5149" href="#j"/><use x="73.7268" y="259.5149" href="#n"/><use x="77.539" y="259.5149" href="#l"/><use x="79.4451" y="259.5149" href="#m"/><use x="137.7202" y="259.5149" href="#m"/><use x="141.5324" y="259.5149" href="#l"/><use x="143.4385" y="259.5149" href="#j"/><use x="201.7137" y="259.5149" href="#o"/><use x="205.5258" y="259.5149" href="#l"/><use x="207.4319" y="259.5149" href="#m"/><use x="263.8014" y="259.5149" href="#p"/><use x="267.6136" y="259.5149" href="#j"/><use x="271.4258" y="259.5149" href="#l"/><use x="273.3319" y="259.5149" href="#j"/><use x="327.7948" y="259.5149" href="#p"/><use x="331.607" y="259.5149" href="#n"/><use x="335.4192" y="259.5149" href="#l"/><use x="337.3253" y="259.5149" href="#m"/><g class="e"><path d="M399.515976-2636.697072h3195.992637" class="b"/><g class="c"><path d="M399.515976-2636.697072v45.647921"/><path d="M399.515976-2636.697072v22.843518"/><path d="M463.427245-2636.697072v22.843518"/><path d="M527.338514-2636.697072v22.843518"/><path d="M591.249783-2636.697072v22.843518"/><path d="M655.161051-2636.697072v22.843518"/><path d="M719.111338-2636.697072v22.843518"/><path d="M783.022607-2636.697072v22.843518"/><path d="M846.933876-2636.697072v22.843518"/><path d="M910.845145-2636.697072v22.843518"/><path d="M1038.7067-2636.697072v45.647921"/><path d="M1038.7067-2636.697072v22.843518"/><path d="M1102.617969-2636.697072v22.843518"/><path d="M1166.529238-2636.697072v22.843518"/><path d="M1230.440506-2636.697072v22.843518"/><path d="M1294.390793-2636.697072v22.843518"/><path d="M1358.302062-2636.697072v22.843518"/><path d="M1422.213331-2636.697072v22.843518"/><path d="M1486.124599-2636.697072v22.843518"/><path d="M1550.074886-2636.697072v22.843518"/><path d="M1677.897424-2636.697072v45.647921"/><path d="M1677.897424-2636.697072v22.843518"/><path d="M1741.808692-2636.697072v22.843518"/><path d="M1805.758979-2636.697072v22.843518"/><path d="M1869.670248-2636.697072v22.843518"/><path d="M1933.581517-2636.697072v22.843518"/><path d="M1997.492786-2636.697072v22.843518"/><path d="M2061.404054-2636.697072v22.843518"/><path d="M2125.354341-2636.697072v22.843518"/><path d="M2189.26561-2636.697072v22.843518"/><path d="M2317.088147-2636.697072v45.647921"/><path d="M2317.088147-2636.697072v22.843518"/><path d="M2381.038434-2636.697072v22.843518"/><path d="M2444.949703-2636.697072v22.843518"/><path d="M2508.860972-2636.697072v22.843518"/><path d="M2572.77224-2636.697072v22.843518"/><path d="M2636.683509-2636.697072v22.843518"/><path d="M2700.633796-2636.697072v22.843518"/><path d="M2764.545065-2636.697072v22.843518"/><path d="M2828.456334-2636.697072v22.843518"/><path d="M2956.317889-2636.697072v45.647921"/><path d="M2956.317889-2636.697072v22.843518"/><path d="M3020.229158-2636.697072v22.843518"/><path d="M3084.140427-2636.697072v22.843518"/><path d="M3148.051695-2636.697072v22.843518"/><path d="M3211.962964-2636.697072v22.843518"/><path d="M3275.913251-2636.697072v22.843518"/><path d="M3339.82452-2636.697072v22.843518"/><path d="M3403.735788-2636.697072v22.843518"/><path d="M3467.647057-2636.697072v22.843518"/><path d="M3595.508613-2636.697072v45.647921"/><path d="M3595.508613-2636.697072v22.843518"/></g></g><g clip-path="url(#H)"><use x="9.7334" y="5.8917" href="#j"/><use x="13.5456" y="5.8917" href="#l"/><use x="15.4516" y="5.8917" href="#j"/></g><g clip-path="url(#I)"><use x="73.7268" y="5.8917" href="#n"/><use x="77.539" y="5.8917" href="#l"/><use x="79.4451" y="5.8917" href="#m"/></g><g clip-path="url(#J)"><use x="137.7202" y="5.8917" href="#m"/><use x="141.5324" y="5.8917" href="#l"/><use x="143.4385" y="5.8917" href="#j"/></g><use x="201.7137" y="5.8917" href="#o"/><use x="205.5258" y="5.8917" href="#l"/><use x="207.4319" y="5.8917" href="#m"/><g clip-path="url(#K)"><use x="263.8014" y="5.8917" href="#p"/><use x="267.6136" y="5.8917" href="#j"/><use x="271.4258" y="5.8917" href="#l"/><use x="273.3319" y="5.8917" href="#j"/></g><g clip-path="url(#L)"><use x="327.7948" y="5.8917" href="#p"/><use x="331.607" y="5.8917" href="#n"/><use x="335.4192" y="5.8917" href="#l"/><use x="337.3253" y="5.8917" href="#m"/></g><g class="e"><use href="#e" class="b"/><g class="c"><path d="M399.515976-258.741568h22.825453"/><path d="M399.515976-320.035735h22.825453"/><path d="M399.515976-381.329902h22.825453"/><path d="M399.515976-442.624069h22.825453"/><path d="M399.515976-503.918235h22.825453"/><path d="M399.515976-565.212402h22.825453"/><path d="M399.515976-626.506569h22.825453"/><path d="M399.515976-749.055786h45.650907"/><path d="M399.515976-749.055786h22.825453"/><path d="M399.515976-810.349953h22.825453"/><path d="M399.515976-871.64412h22.825453"/><path d="M399.515976-932.938286h22.825453"/><path d="M399.515976-994.232453h22.825453"/><path d="M399.515976-1055.52662h22.825453"/><path d="M399.515976-1116.820786h22.825453"/><path d="M399.515976-1178.075837h22.825453"/><path d="M399.515976-1239.370004h22.825453"/><path d="M399.515976-1361.958337h45.650907"/><path d="M399.515976-1361.958337h22.825453"/><path d="M399.515976-1423.252504h22.825453"/><path d="M399.515976-1484.546671h22.825453"/><path d="M399.515976-1545.840837h22.825453"/><path d="M399.515976-1607.095888h22.825453"/><path d="M399.515976-1668.429171h22.825453"/><path d="M399.515976-1729.684222h22.825453"/><path d="M399.515976-1790.978388h22.825453"/><path d="M399.515976-1852.272555h22.825453"/><path d="M399.515976-1974.860888h45.650907"/><path d="M399.515976-1974.860888h22.825453"/><path d="M399.515976-2036.155055h22.825453"/><path d="M399.515976-2097.449222h22.825453"/><path d="M399.515976-2158.704273h22.825453"/><path d="M399.515976-2219.99844h22.825453"/><path d="M399.515976-2281.292606h22.825453"/><path d="M399.515976-2342.586773h22.825453"/><path d="M399.515976-2403.88094h22.825453"/><path d="M399.515976-2465.175106h22.825453"/><path d="M399.515976-2587.724324h45.650907"/><path d="M399.515976-2587.724324h22.825453"/></g></g><use x="1.1608" y="199.6713" href="#u"/><use x="4.973" y="199.6713" href="#j"/><use x="1.1608" y="138.6875" href="#o"/><use x="4.973" y="138.6875" href="#j"/><use x="1.1608" y="77.1343" href="#v"/><use x="4.973" y="77.1343" href="#j"/><use x="1.1608" y="16.1505" href="#w"/><use x="4.973" y="16.1505" href="#j"/><g class="e"><use href="#f" class="b"/><g class="c"><path d="M3595.508613-258.741568h-22.825453"/><path d="M3595.508613-320.035735h-22.825453"/><path d="M3595.508613-381.329902h-22.825453"/><path d="M3595.508613-442.624069h-22.825453"/><path d="M3595.508613-503.918235h-22.825453"/><path d="M3595.508613-565.212402h-22.825453"/><path d="M3595.508613-626.506569h-22.825453"/><path d="M3595.508613-749.055786h-45.650907"/><path d="M3595.508613-749.055786h-22.825453"/><path d="M3595.508613-810.349953h-22.825453"/><path d="M3595.508613-871.64412h-22.825453"/><path d="M3595.508613-932.938286h-22.825453"/><path d="M3595.508613-994.232453h-22.825453"/><path d="M3595.508613-1055.52662h-22.825453"/><path d="M3595.508613-1116.820786h-22.825453"/><path d="M3595.508613-1178.075837h-22.825453"/><path d="M3595.508613-1239.370004h-22.825453"/><path d="M3595.508613-1361.958337h-45.650907"/><path d="M3595.508613-1361.958337h-22.825453"/><path d="M3595.508613-1423.252504h-22.825453"/><path d="M3595.508613-1484.546671h-22.825453"/><path d="M3595.508613-1545.840837h-22.825453"/><path d="M3595.508613-1607.095888h-22.825453"/><path d="M3595.508613-1668.429171h-22.825453"/><path d="M3595.508613-1729.684222h-22.825453"/><path d="M3595.508613-1790.978388h-22.825453"/><path d="M3595.508613-1852.272555h-22.825453"/><path d="M3595.508613-1974.860888h-45.650907"/><path d="M3595.508613-1974.860888h-22.825453"/><path d="M3595.508613-2036.155055h-22.825453"/><path d="M3595.508613-2097.449222h-22.825453"/><path d="M3595.508613-2158.704273h-22.825453"/><path d="M3595.508613-2219.99844h-22.825453"/><path d="M3595.508613-2281.292606h-22.825453"/><path d="M3595.508613-2342.586773h-22.825453"/><path d="M3595.508613-2403.88094h-22.825453"/><path d="M3595.508613-2465.175106h-22.825453"/><path d="M3595.508613-2587.724324h-45.650907"/><path d="M3595.508613-2587.724324h-22.825453"/></g></g><use x="340.1779" y="199.6713" href="#u"/><use x="343.9901" y="199.6713" href="#j"/><use x="340.1779" y="138.6875" href="#o"/><use x="343.9901" y="138.6875" href="#j"/><use x="340.1779" y="77.1343" href="#v"/><use x="343.9901" y="77.1343" href="#j"/><use x="340.1779" y="16.1505" href="#w"/><use x="343.9901" y="16.1505" href="#j"/><g clip-path="url(#M)"><path d="M399.554994-2526.391042l9.091164 8.957476 9.208217 9.074822 9.169199 9.074823 9.130181 8.91836 9.091163 8.957475 9.169199 8.957476 9.286253 9.035706 9.013128 8.761898 9.130181 8.879244 9.325271 8.996591 9.091163 8.801013 9.052146 8.722782 9.169199 8.840129 9.247235 8.879244 9.091163 8.683666 9.247235 8.879245 9.091163 8.64455 9.208217 8.801013 9.208217 8.722782 9.091164 8.605435 18.260362 17.289102 9.286253 8.722781 9.013127 8.488089 9.130182 8.527203 9.32527 8.722782 9.130182 8.488088 9.013127 8.448973 18.416434 17.054408 9.091164 8.409857 9.286252 8.566319 9.052146 8.331626 9.208217 8.488088 9.208217 8.448972 9.091163 8.292511 9.130181 8.331625 9.1692 8.370742 9.247234 8.409857 9.013128 8.175163 9.169199 8.253394 9.286253 8.409857 9.130181 8.214279 9.013128 8.136048 9.208217 8.214279 9.208217 8.253394 9.091163 8.136048 9.286253 8.253394 9.052146 8.057817 9.247234 8.175163 9.169199 8.136048 9.130182 8.057816 9.091163 8.018701 9.169199 8.057816 9.247235 8.136048 9.052146 7.901354 9.130181 7.940469 9.286253 8.136048 9.130181 7.94047 9.052145 7.823122 9.1692 7.94047 9.208217 7.979585 9.091163 7.823123 9.286253 7.979585 9.091163 7.784007 9.208217 7.901354 9.169199 7.862239 9.130181 7.744891 9.091164 7.744892 9.169199 7.784007 9.286253 7.862238 9.013127 7.627545 9.130182 7.66666 9.32527 7.862238 9.091164 7.627545 9.052145 7.588429 9.169199 7.66666 9.247235 7.705776 9.091163 7.549314 9.247235 7.705776 9.091164 7.510197 9.208217 7.627545 9.208217 7.588429 9.091163 7.471082 9.130181 7.510198 9.130182 7.471082 9.286252 7.58843 9.013128 7.353735 9.130181 7.431967 9.325271 7.588429 9.091163 7.353735 9.052146 7.31462 9.169199 7.431966 9.247235 7.392851 9.091163 7.31462 9.286253 7.431967 9.052145 7.236388 9.208217 7.353736 9.208217 7.314619 9.091164 7.275505 9.130181 7.197272 9.169199 7.236389 9.247235 7.31462 9.013128 7.119041 9.130181 7.158158 9.325271 7.314619 9.091163 7.119042 9.052145 7.079926 9.208217 7.119042 9.208217 7.197273 9.091164 7.04081 9.286253 7.158158 9.052145 7.001695 9.247235 7.119041 9.169199 7.040811 9.130181 7.001695 9.091164 6.962579 9.169199 7.001695 9.247235 7.04081 9.052145 6.884348 9.130181 6.923464 9.286253 7.04081 9.130181 6.884348 9.052146 6.806117 9.169199 6.884348 9.208217 6.923464 9.091163 6.806116 9.286253 6.923464 9.091164 6.767001 9.208217 6.845233 9.169199 6.806116 9.130181 6.767002 9.091163 6.727885 9.169199 6.727886 9.286253 6.845232 9.013128 6.610539 9.130181 6.68877 9.286253 6.806117 9.130181 6.610538 9.052146 6.610539 9.169199 6.649654 9.247235 6.68877 9.052145 6.532308 9.286253 6.727885 9.091163 6.493192 18.416434 13.221078 9.091164 6.493191 9.130181 6.493192 9.130181 6.532308 9.286253 6.571423 9.013128 6.375845 9.130181 6.454076 9.32527 6.571423 9.091164 6.414961 9.052145 6.336729 18.416434 12.908153 9.091164 6.297614 9.247235 6.493192 9.091163 6.297613 9.208217 6.375845 9.208217 6.33673 9.091163 6.297614 9.130182 6.258498 9.169199 6.297614 9.247235 6.336729 9.013127 6.180267 9.130181 6.219383 9.325271 6.336729 9.130181 6.180267 9.013128 6.141151 18.416434 12.438765 9.091163 6.102036 9.286253 6.258498 9.052146 6.062921 9.208217 6.180267 9.208217 6.141151 9.130181 6.06292 9.091163 6.023804 9.169199 6.102036 9.247235 6.102036 9.052146 5.984689 9.130181 5.984689 9.286253 6.141151 9.130181 5.945573 9.052145 5.945574 9.1692 5.984689 9.208217 6.023804 9.091163 5.867342 9.286253 6.023805 9.091163 5.867342 9.208217 5.945573 9.169199 5.945573 9.130181 5.828227 9.091164 5.867342 9.169199 5.828226 9.286253 5.945573 9.013127 5.749996 9.130182 5.789111 9.286252 5.906457 9.130182 5.789111 9.052145 5.71088 9.169199 5.78911 9.208217 5.789111 9.091164 5.671764 9.286252 5.828227 9.091164 5.671764 9.208217 5.749995 9.208217 5.71088 9.091163 5.632648 9.130181 5.671764 9.130182 5.632648 9.286252 5.71088 9.013128 5.554417 9.130181 5.593533 9.325271 5.710879 9.091163 5.554418 9.052146 5.515301 18.416434 11.187066 9.091163 5.515301 9.286253 5.593533 9.052145 5.476186 9.208217 5.554417 9.208217 5.515301 9.091164 5.437071 9.130181 5.43707 9.130181 5.476186 9.286253 5.515302 9.013128 5.358839 9.169199 5.397954 9.286253 5.515302 9.130181 5.358839 9.013127 5.319723 18.416434 10.79591 9.091164 5.319723 9.286253 5.397955 9.052145 5.280608 9.208217 5.358839 9.208217 5.319723 9.091163 5.280608 9.130182 5.241492 9.169199 5.280608 18.29938 10.482985 9.091164 5.241492 9.32527 5.319723 9.130181 5.163261 9.013128 5.163261 18.416434 10.404754 9.091164 5.124145 9.286252 5.241492 9.091164 5.08503 9.208217 5.163261 9.169199 5.163261 9.130181 5.045914 9.091163 5.08503 9.1692 5.08503 9.286252 5.163261 9.013128 4.967683 9.130181 5.045914 9.325271 5.124145 9.091163 5.006799 9.052146 4.967683 9.169199 5.006798 9.247235 5.045915 9.052145 4.967682 9.286253 5.045915 9.091163 4.889451 9.208217 5.006799 9.208217 4.967683 9.091164 4.889452 9.130181 4.928567 9.130181 4.889452 9.286253 4.967683 9.013128 4.81122 9.130181 4.850336 9.32527 4.967683 9.091164 4.811221 9.052145 4.81122 9.169199 4.850336 9.247235 4.850336 9.052146 4.772105 9.32527 4.889452 9.052146 4.732989 18.416434 9.622441 9.091163 4.732989 9.130182 4.73299 9.169199 4.732989 9.247235 4.772105 9.013127 4.654758 9.130181 4.693873 9.325271 4.772105 9.130181 4.693874 9.013128 4.615642 18.416434 9.387748 9.091163 4.576526 9.286253 4.693874 9.052146 4.615642 9.208217 4.615643 9.208217 4.654758 9.130181 4.576527 9.091163 4.537411 9.169199 4.576527 9.247235 4.654758 9.052146 4.45918 9.130181 4.537411 9.286253 4.615642 9.130181 4.498296 9.052146 4.45918 9.169199 4.537411 9.208217 4.537411 9.091163 4.420065 9.286253 4.537411 9.052145 4.45918 9.247235 4.45918 9.169199 4.45918 9.130182 4.420064 9.091163 4.420064 9.169199 4.420065 9.286253 4.45918 9.013127 4.341833 9.130182 4.341833 9.286252 4.45918 9.130182 4.380949 9.052145 4.302717 9.169199 4.341833 9.247235 4.380949 9.052146 4.302717 9.286252 4.380949 9.091164 4.263602 9.208217 4.341833 9.169199 4.302718 27.390544 12.790805 9.286252 4.302718 9.013128 4.185371 9.130181 4.224486 9.325271 4.263602 9.091163 4.224486 9.052146 4.146255 9.169199 4.224486" style="fill:none;stroke-width:11.4143;stroke-linecap:round;stroke-linejoin:round;stroke:#00008b;stroke-miterlimit:10;transform:matrix(.100114,0,0,.0998642,-25.497297,271.483554)"/></g><g clip-path="url(#N)"><path d="M399.515976-2526.469273h3195.914601" style="fill:none;stroke-width:11.4143;stroke-linecap:round;stroke-linejoin:round;stroke:#006400;stroke-miterlimit:10;transform:matrix(.100114,0,0,.0998642,-25.497297,271.483554)"/></g><g clip-path="url(#O)"><path d="M399.515976-2281.292606h3195.992637" style="fill:none;stroke-width:11.4143;stroke-linecap:round;stroke-linejoin:round;stroke:#8b0000;stroke-miterlimit:10;transform:matrix(.100114,0,0,.0998642,-25.497297,271.483554)"/></g><g clip-path="url(#P)"><use href="#g" style="fill:none;stroke-width:11.4143;stroke-linecap:round;stroke-linejoin:round;stroke:#f0f;stroke-miterlimit:10;transform:matrix(.100114,0,0,.0998642,-25.497297,271.483554)"/></g><g clip-path="url(#Q)"><path d="M655.161051 1763.770354v-4964.397229" class="h"/></g><g clip-path="url(#R)"><path d="M2754.322383 1763.770354v-4964.397229" class="h"/></g><path fill="#fff" d="M382.3828 250.3945h319.9648V8.1719H382.3828zm0 0"/><g style="clip-path:url(#S);fill:none;stroke-width:5.70714;stroke-linecap:round;stroke:#bfbfbf;stroke-miterlimit:10"><g transform="matrix(.100114 0 0 .0998642 342.387704 271.483554)"><use href="#h"/><use href="#h" class="g"/></g></g><g clip-path="url(#T)"><path d="M1198.502029-211.176982v-2425.52009" class="d"/></g><g clip-path="url(#U)"><path d="M1997.509943-211.176982v-2425.52009" class="d"/></g><g clip-path="url(#V)"><path d="M2796.517856-211.176982v-2425.52009" class="d"/></g><g clip-path="url(#W)"><use href="#i" class="d"/></g><g clip-path="url(#X)"><path d="M399.494115-255.612319h3195.992637" class="d"/></g><g clip-path="url(#Y)"><path d="M399.494115-913.810751h3195.992637" class="d"/></g><g clip-path="url(#Z)"><path d="M399.494115-1572.048299h3195.992637" class="d"/></g><g clip-path="url(#a0)"><path d="M399.494115-2230.24673h3195.992637" class="d"/></g><g class="f"><path d="M399.494115-211.176982h3195.992637" class="b"/><g class="c"><path d="M399.494115-211.176982v-45.647921"/><path d="M399.494115-211.176982v-22.804403"/><path d="M479.40271-211.176982v-22.804403"/><path d="M559.311305-211.176982v-22.804403"/><path d="M639.180882-211.176982v-22.804403"/><path d="M719.089477-211.176982v-22.804403"/><path d="M798.998072-211.176982v-22.804403"/><path d="M878.906667-211.176982v-22.804403"/><path d="M958.815262-211.176982v-22.804403"/><path d="M1038.684839-211.176982v-22.804403"/><path d="M1198.502029-211.176982v-45.647921"/><path d="M1198.502029-211.176982v-22.804403"/><path d="M1278.410624-211.176982v-22.804403"/><path d="M1358.319219-211.176982v-22.804403"/><path d="M1438.188796-211.176982v-22.804403"/><path d="M1518.097391-211.176982v-22.804403"/><path d="M1598.005986-211.176982v-22.804403"/><path d="M1677.914581-211.176982v-22.804403"/><path d="M1757.784158-211.176982v-22.804403"/><path d="M1837.692753-211.176982v-22.804403"/><path d="M1997.509943-211.176982v-45.647921"/><path d="M1997.509943-211.176982v-22.804403"/><path d="M2077.418538-211.176982v-22.804403"/><path d="M2157.288115-211.176982v-22.804403"/><path d="M2237.19671-211.176982v-22.804403"/><path d="M2317.105304-211.176982v-22.804403"/><path d="M2397.013899-211.176982v-22.804403"/><path d="M2476.883476-211.176982v-22.804403"/><path d="M2556.792071-211.176982v-22.804403"/><path d="M2636.700666-211.176982v-22.804403"/><path d="M2796.517856-211.176982v-45.647921"/><path d="M2796.517856-211.176982v-22.804403"/><path d="M2876.387433-211.176982v-22.804403"/><path d="M2956.296028-211.176982v-22.804403"/><path d="M3036.204623-211.176982v-22.804403"/><path d="M3116.113218-211.176982v-22.804403"/><path d="M3195.982795-211.176982v-22.804403"/><path d="M3275.89139-211.176982v-22.804403"/><path d="M3355.799985-211.176982v-22.804403"/><path d="M3435.70858-211.176982v-22.804403"/><path d="M3595.486752-211.176982v-45.647921"/><path d="M3595.486752-211.176982v-22.804403"/></g></g><use x="380.4775" y="259.5149" href="#k"/><use x="458.5634" y="259.5149" href="#q"/><use x="462.3756" y="259.5149" href="#k"/><use x="538.5555" y="259.5149" href="#r"/><use x="542.3677" y="259.5149" href="#k"/><use x="617.9764" y="259.5149" href="#s"/><use x="621.7886" y="259.5149" href="#k"/><use x="698.5396" y="259.5149" href="#t"/><use x="702.3517" y="259.5149" href="#k"/><g class="f"><path d="M399.494115-2636.697072h3195.992637" class="b"/><g class="c"><path d="M399.494115-2636.697072v45.647921"/><path d="M399.494115-2636.697072v22.843518"/><path d="M479.40271-2636.697072v22.843518"/><path d="M559.311305-2636.697072v22.843518"/><path d="M639.180882-2636.697072v22.843518"/><path d="M719.089477-2636.697072v22.843518"/><path d="M798.998072-2636.697072v22.843518"/><path d="M878.906667-2636.697072v22.843518"/><path d="M958.815262-2636.697072v22.843518"/><path d="M1038.684839-2636.697072v22.843518"/><path d="M1198.502029-2636.697072v45.647921"/><path d="M1198.502029-2636.697072v22.843518"/><path d="M1278.410624-2636.697072v22.843518"/><path d="M1358.319219-2636.697072v22.843518"/><path d="M1438.188796-2636.697072v22.843518"/><path d="M1518.097391-2636.697072v22.843518"/><path d="M1598.005986-2636.697072v22.843518"/><path d="M1677.914581-2636.697072v22.843518"/><path d="M1757.784158-2636.697072v22.843518"/><path d="M1837.692753-2636.697072v22.843518"/><path d="M1997.509943-2636.697072v45.647921"/><path d="M1997.509943-2636.697072v22.843518"/><path d="M2077.418538-2636.697072v22.843518"/><path d="M2157.288115-2636.697072v22.843518"/><path d="M2237.19671-2636.697072v22.843518"/><path d="M2317.105304-2636.697072v22.843518"/><path d="M2397.013899-2636.697072v22.843518"/><path d="M2476.883476-2636.697072v22.843518"/><path d="M2556.792071-2636.697072v22.843518"/><path d="M2636.700666-2636.697072v22.843518"/><path d="M2796.517856-2636.697072v45.647921"/><path d="M2796.517856-2636.697072v22.843518"/><path d="M2876.387433-2636.697072v22.843518"/><path d="M2956.296028-2636.697072v22.843518"/><path d="M3036.204623-2636.697072v22.843518"/><path d="M3116.113218-2636.697072v22.843518"/><path d="M3195.982795-2636.697072v22.843518"/><path d="M3275.89139-2636.697072v22.843518"/><path d="M3355.799985-2636.697072v22.843518"/><path d="M3435.70858-2636.697072v22.843518"/><path d="M3595.486752-2636.697072v45.647921"/><path d="M3595.486752-2636.697072v22.843518"/></g></g><use x="380.4775" y="5.8917" href="#k" clip-path="url(#a1)"/><g clip-path="url(#a2)"><use x="458.5634" y="5.8917" href="#q"/><use x="462.3756" y="5.8917" href="#k"/></g><g clip-path="url(#a3)"><use x="538.5555" y="5.8917" href="#r"/><use x="542.3677" y="5.8917" href="#k"/></g><g clip-path="url(#a4)"><use x="617.9764" y="5.8917" href="#s"/><use x="621.7886" y="5.8917" href="#k"/></g><g clip-path="url(#a5)"><use x="698.5396" y="5.8917" href="#t"/><use x="702.3517" y="5.8917" href="#k"/></g><g class="f"><use href="#h" class="b"/><g class="c"><path d="M399.494115-255.612319h45.650907"/><path d="M399.494115-255.612319h22.825454"/><path d="M399.494115-321.404782h22.825454"/><path d="M399.494115-387.236359h22.825454"/><path d="M399.494115-453.067937h22.825454"/><path d="M399.494115-518.899515h22.825454"/><path d="M399.494115-584.691977h22.825454"/><path d="M399.494115-650.523555h22.825454"/><path d="M399.494115-716.355133h22.825454"/><path d="M399.494115-782.186711h22.825454"/><path d="M399.494115-913.810751h45.650907"/><path d="M399.494115-913.810751h22.825454"/><path d="M399.494115-979.642329h22.825454"/><path d="M399.494115-1045.473907h22.825454"/><path d="M399.494115-1111.266369h22.825454"/><path d="M399.494115-1177.097947h22.825454"/><path d="M399.494115-1242.929525h22.825454"/><path d="M399.494115-1308.721987h22.825454"/><path d="M399.494115-1374.553565h22.825454"/><path d="M399.494115-1440.385143h22.825454"/><path d="M399.494115-1572.048299h45.650907"/><path d="M399.494115-1572.048299h22.825454"/><path d="M399.494115-1637.840761h22.825454"/><path d="M399.494115-1703.672339h22.825454"/><path d="M399.494115-1769.503917h22.825454"/><path d="M399.494115-1835.335494h22.825454"/><path d="M399.494115-1901.127957h22.825454"/><path d="M399.494115-1966.959535h22.825454"/><path d="M399.494115-2032.791112h22.825454"/><path d="M399.494115-2098.62269h22.825454"/><path d="M399.494115-2230.24673h45.650907"/><path d="M399.494115-2230.24673h22.825454"/><path d="M399.494115-2296.078308h22.825454"/><path d="M399.494115-2361.87077h22.825454"/><path d="M399.494115-2427.702348h22.825454"/><path d="M399.494115-2493.533926h22.825454"/><path d="M399.494115-2559.365504h22.825454"/><path d="M399.494115-2625.197082h22.825454"/></g></g><use x="369.0458" y="249.2558" href="#q"/><use x="372.858" y="249.2558" href="#k"/><use x="369.0458" y="183.1429" href="#r"/><use x="372.858" y="183.1429" href="#k"/><use x="369.0458" y="117.5999" href="#s"/><use x="372.858" y="117.5999" href="#k"/><use x="369.0458" y="52.0568" href="#t"/><use x="372.858" y="52.0568" href="#k"/><g class="f"><use href="#i" class="b"/><g class="c"><path d="M3595.486752-255.612319h-45.650906"/><path d="M3595.486752-255.612319h-22.825453"/><path d="M3595.486752-321.404782h-22.825453"/><path d="M3595.486752-387.236359h-22.825453"/><path d="M3595.486752-453.067937h-22.825453"/><path d="M3595.486752-518.899515h-22.825453"/><path d="M3595.486752-584.691977h-22.825453"/><path d="M3595.486752-650.523555h-22.825453"/><path d="M3595.486752-716.355133h-22.825453"/><path d="M3595.486752-782.186711h-22.825453"/><path d="M3595.486752-913.810751h-45.650906"/><path d="M3595.486752-913.810751h-22.825453"/><path d="M3595.486752-979.642329h-22.825453"/><path d="M3595.486752-1045.473907h-22.825453"/><path d="M3595.486752-1111.266369h-22.825453"/><path d="M3595.486752-1177.097947h-22.825453"/><path d="M3595.486752-1242.929525h-22.825453"/><path d="M3595.486752-1308.721987h-22.825453"/><path d="M3595.486752-1374.553565h-22.825453"/><path d="M3595.486752-1440.385143h-22.825453"/><path d="M3595.486752-1572.048299h-45.650906"/><path d="M3595.486752-1572.048299h-22.825453"/><path d="M3595.486752-1637.840761h-22.825453"/><path d="M3595.486752-1703.672339h-22.825453"/><path d="M3595.486752-1769.503917h-22.825453"/><path d="M3595.486752-1835.335494h-22.825453"/><path d="M3595.486752-1901.127957h-22.825453"/><path d="M3595.486752-1966.959535h-22.825453"/><path d="M3595.486752-2032.791112h-22.825453"/><path d="M3595.486752-2098.62269h-22.825453"/><path d="M3595.486752-2230.24673h-45.650906"/><path d="M3595.486752-2230.24673h-22.825453"/><path d="M3595.486752-2296.078308h-22.825453"/><path d="M3595.486752-2361.87077h-22.825453"/><path d="M3595.486752-2427.702348h-22.825453"/><path d="M3595.486752-2493.533926h-22.825453"/><path d="M3595.486752-2559.365504h-22.825453"/><path d="M3595.486752-2625.197082h-22.825453"/></g></g><use x="708.0629" y="249.2558" href="#q"/><use x="711.8751" y="249.2558" href="#k"/><use x="708.0629" y="183.1429" href="#r"/><use x="711.8751" y="183.1429" href="#k"/><use x="708.0629" y="117.5999" href="#s"/><use x="711.8751" y="117.5999" href="#k"/><use x="708.0629" y="52.0568" href="#t"/><use x="711.8751" y="52.0568" href="#k"/><g clip-path="url(#a6)"><path d="M399.494115-2526.469273l9.208217 31.057797 9.052146 30.158139 9.208217 30.275485 9.208217 29.727866 9.130181 29.180248 9.169199 28.789091 9.208217 28.554398 9.091164 27.850317 9.169199 27.615624 9.169199 27.302698 9.208217 26.950658 9.130181 26.442155 9.052146 25.738074 9.286252 26.12923 9.130182 25.346917 9.052145 24.681952 9.247235 24.877531 9.052146 24.095218 9.247234 24.134333 9.1692 23.704062 9.130181 23.273791 9.169199 22.960865 9.208217 22.804403 9.091163 22.217668 9.169199 22.022091 9.208217 21.787396 9.1692 21.474472 9.169199 21.122432 9.013127 20.535697 9.286253 20.848622 9.169199 20.183657 9.013128 19.714269 9.247235 19.870732 9.091163 19.205766 9.208217 19.244882 9.169199 18.892842 9.169199 18.579916 9.130182 18.345223 9.208217 18.18876 9.130181 17.719373 9.130181 17.562911 9.208217 17.406448 9.169199 17.093523 9.169199 16.85883 9.013128 16.389442 9.325271 16.624136 9.130181 16.115632 9.052145 15.724477 9.208217 15.841824 9.091164 15.33332 9.208217 15.372436 9.208217 15.059512 9.130181 14.824817 9.130181 14.62924 9.247235 14.472777 9.091164 14.159852 9.169199 14.00339 9.169199 13.886043 9.169199 13.651349 9.169199 13.455771 9.052146 13.064615 9.286252 13.260193 9.130182 12.869037 9.052145 12.516996 9.247235 12.673459 9.052145 12.204072 9.208217 12.243187 9.208217 12.047609 9.130182 11.812915 9.169199 11.656453 9.208217 11.578222 9.091163 11.304412 9.169199 11.187065 9.169199 11.069719 9.208217 10.874141 9.130182 10.717678 9.052145 10.443869 9.286253 10.600331 9.130181 10.248291 9.052146 10.013597 9.247235 10.052713 9.052145 9.778903 9.208217 9.778903 9.208217 9.583326 9.130181 9.426863 9.1692 9.309516 9.208217 9.231285 9.130181 8.996591 9.130181 8.91836 9.208217 8.840128 9.169199 8.683667 9.130181 8.566319 9.052146 8.331626 9.286253 8.409857 9.169199 8.214279 9.013127 7.979585 9.247235 8.018701 9.052146 7.784007 9.247235 7.823122 9.169199 7.627545 9.169199 7.549314 9.130181 7.392851 9.208217 7.392851 9.130181 7.158157 9.130182 7.119042 9.208217 7.04081 9.169199 6.962579 9.169199 6.806117 9.013128 6.649654 9.32527 6.727886 9.130181 6.532307 9.052146 6.375845 9.208217 6.414961 9.091163 6.180267 9.208217 6.258498 9.169199 6.102036 9.1692 5.984689 9.130181 5.906458 9.208217 5.906457 9.130181 5.71088 9.130181 5.671764 9.208217 5.632648 9.169199 5.554417 9.1692 5.437071 9.052145 5.280608 9.286253 5.358839 9.130181 5.241492 9.052146 5.08503 9.247234 5.085029 9.052146 4.967683 9.208217 4.967683 9.208217 4.889452 9.130181 4.772105 9.169199 4.732989 9.208217 4.693874 9.091164 4.537411 9.169199 4.537411 9.169199 4.498296 9.169199 4.420064 9.169199 4.341833 9.052146 4.224486 9.286253 4.263602 9.169199 4.185371 9.013127 4.028908 9.247235 4.10714 9.052146 3.911561 9.247235 3.989793 9.169199 3.872445 9.130181 3.833331 9.169199 3.755098 9.208217 3.755099 9.091163 3.637752 9.1692 3.598637 9.208217 3.598636 9.169199 3.520406 9.130181 3.442174 9.052145 3.403058 9.286253 3.403058 9.169199 3.324828 9.013128 3.20748 9.247235 3.285711 9.052145 3.12925 9.247235 3.168364 9.169199 3.090134 9.169199 3.051018 9.130182 3.011902 9.208217 3.011902 9.130181 2.894556 9.130181 2.855439 9.208217 2.85544 9.169199 2.816324 9.169199 2.777209 9.013128 2.698977 9.325271 2.698978 9.130181 2.659861 9.052145 2.581631 9.208217 2.58163 9.091164 2.542515 9.208217 2.503399 18.338398 4.928568 9.130181 2.386052 9.247235 2.386053 9.091164 2.307821 9.169199 2.307821 9.169199 2.268706 18.338398 4.45918 9.052146 2.112243 9.286252 2.190474 9.130182 2.112243 9.052145 2.073128 9.247235 2.073127 9.052146 1.994897 18.416434 3.989792 9.130181 1.955781 9.169199 1.877549 9.208217 1.916665 9.091163 1.838434 18.338399 3.676868 9.208217 1.760203 9.130181 1.760202 9.052145 1.721087 9.286253 1.721087 9.130181 1.721087 9.052146 1.60374 9.247235 1.681972 9.052145 1.60374 9.247235 1.60374 9.169199 1.564625 9.130181 1.564624 9.1692 1.525509 9.208217 1.486393 9.091163 1.486394 9.169199 1.447277 9.169199 1.486394 9.208217 1.408162 9.130181 1.408162 9.052146 1.369046 9.325271 1.369047 9.130181 1.369046 9.013127 1.290816 9.247235 1.329931 9.052146 1.251699 9.247235 1.290815 18.338398 2.5034 9.130181 1.212584 9.208217 1.212584 18.260363 2.346937 9.208217 1.134352 18.338398 2.268706 9.013128 1.095237 9.286252 1.095237 9.169199 1.056122 9.052146 1.056121 9.208217 1.056122 9.091163 1.017006 9.208217 1.017006 9.1692 1.017006 9.169199.97789 9.130181.977891 9.208217.97789 9.130181.938775 9.130181.899659 9.208217.938775 18.338399 1.799318 9.013127.860543 9.325271.899659 9.130181.860544 9.052146.821428 9.208217.821428 9.091163.821428 18.416434 1.642855 9.130181.782313 9.130182.743196 9.247234.782313 9.091164.743196 18.338398 1.486394 9.208217.704081 9.130181.743196 9.052146.664966 9.286253.704081 9.130181.704081 9.052145.664965 9.247235.664966 9.052146.664965 9.247235.62585 9.169199.664965 9.130181.586734 9.169199.62585 9.208217.62585 9.091163.586734 9.1692.586735 9.208217.586734 9.169199.586734 9.130181.586734 9.052146.547619 9.286252.547618 9.169199.547619 9.013128.547619 9.247235.508503 9.052145.547618 9.247235.508503 18.338399 1.017006 9.130181.469387 9.208217.508503 9.091163.469388 9.169199.469387 9.208217.469387 9.169199.469388 9.1692.430272 9.013127.469387 9.325271.430272 9.130181.430271 9.013128.430272 9.247235.430272 9.091163.430272 9.208217.391156 9.169199.430272 9.169199.391156 9.130181.391156 9.208217.391156 9.130182.391156 9.130181.352041 9.208217.391156 18.338398.704081 9.013128.35204 9.32527.352041 9.130182.35204 9.052145.352041 9.247235.35204 9.052146.312925 9.208217.312925 9.208217.352041 9.130181.312925 9.169199.312925 9.208217.312925 9.091163.312924 9.169199.27381 9.1692.312925 9.208217.273809 9.130181.312925 9.052145.273809 9.286253.273809 9.130181.27381 9.052146.273809 9.247235.273809 9.052145.27381 9.208217.273809 9.208217.234694 9.130182.273809 9.169199.234694 9.208217.234693 9.130181.27381 9.130181.234693 9.169199.234694 9.208217.234694 9.130182.234693 9.052145.234694" style="fill:none;stroke-width:11.4143;stroke-linecap:round;stroke-linejoin:round;stroke:#00008b;stroke-miterlimit:10;transform:matrix(.100114,0,0,.0998642,342.387704,271.483554)"/></g><g clip-path="url(#a7)"><path d="M399.494115-321.404782h3195.992637" style="fill:none;stroke-width:11.4143;stroke-linecap:round;stroke-linejoin:round;stroke:#006400;stroke-miterlimit:10;transform:matrix(.100114,0,0,.0998642,342.387704,271.483554)"/></g><style>.a{fill:none;stroke:#bfbfbf;stroke-dasharray:11.4143,17.1214;stroke-linecap:round;stroke-miterlimit:10;stroke-width:5.70714;transform:matrix(.100114,0,0,.0998642,-25.497297,271.483554)}.b{stroke-linecap:square;stroke-width:11.4143}.c{stroke-width:5.70714}.d{fill:none;stroke:#bfbfbf;stroke-dasharray:11.4143,17.1214;stroke-linecap:round;stroke-miterlimit:10;stroke-width:5.70714;transform:matrix(.100114,0,0,.0998642,342.387704,271.483554)}.e{fill:none;stroke:#000;stroke-miterlimit:10;transform:matrix(.100114,0,0,.0998642,-25.497297,271.483554)}.f{fill:none;stroke:#000;stroke-miterlimit:10;transform:matrix(.100114,0,0,.0998642,342.387704,271.483554)}.g{stroke-dasharray:11.4143,17.1214}.h{fill:none;stroke:#000;stroke-linecap:round;stroke-linejoin:round;stroke-miterlimit:10;stroke-width:5.70714;transform:matrix(.100114,0,0,.0998642,-25.497297,271.483554)}</style></svg>