<svg xmlns="http://www.w3.org/2000/svg" width="382pt" height="275pt" viewBox="0 0 382 275"><defs><path d="M2.125-2.3437H.3438v.5469H2.125zm0 0" id="f"/><path d="M3.7969-.6562H1c.0625-.4375.3125-.703125.953125-1.09375l.75-.4062c.75-.40625 1.125-.953125 1.125-1.59375 0-.453125-.171875-.859375-.484375-1.140625C3.015625-5.1875 2.625-5.3125 2.125-5.3125c-.671875 0-1.171875.234375-1.46875.6875-.1875.28125-.265625.609375-.28125 1.15625h.6563c.03125-.359375.078125-.578125.15625-.75.171875-.328125.515625-.515625.921875-.515625.59375 0 1.046875.421875 1.046875.984375 0 .421875-.25.78125-.71875 1.0625l-.6875.3906C.640625-1.671875.3125-1.171875.25 0h3.5469zm0 0" id="c"/><path d="M1.9375-3.7812V0h.6719v-5.3125h-.4375c-.2344.8125-.39065.921875-1.406275 1.046875v.4844zm0 0" id="d"/><path d="M2.0625-5.3125c-.5 0-.9375.21875-1.21875.578125C.5-4.265625.328125-3.5625.328125-2.578125c0 1.796875.59375 2.75 1.734375 2.75 1.125 0 1.734375-.953125 1.734375-2.703125 0-1.03125-.15625-1.71875-.515625-2.203125C3-5.109375 2.5625-5.3125 2.0625-5.3125zm0 .5781c.71875 0 1.0625.71875 1.0625 2.140625C3.125-1.078125 2.78125-.375 2.046875-.375 1.34375-.375 1-1.109375 1-2.5625c0-1.453125.34375-2.171875 1.0625-2.171875zm0 0" id="a"/><path d="M1.4375-.7812H.6563V0h.7813zm0 0" id="b"/><path d="M3.5625-5.3125H.8281L.4219-2.4219h.6094c.3125-.375.5625-.5.984375-.5.703125 0 1.15625.484375 1.15625 1.28125 0 .765625-.4375 1.234375-1.15625 1.234375-.578125 0-.9375-.296875-1.09375-.90625h-.6562c.09375.4375.15625.65625.3125.84375.3125.40625.84375.640625 1.453125.640625 1.0625 0 1.8125-.78125 1.8125-1.90625C3.84375-2.78125 3.15625-3.5 2.125-3.5c-.375 0-.671875.09375-.984375.3125l.2188-1.4844H3.5625zm0 0" id="e"/><path d="M3.9063-5.3125H.3438v.6406h2.875C1.953125-2.859375 1.4375-1.75 1.03125 0h.7031c.296875-1.703125.96875-3.171875 2.171875-4.765625zm0 0" id="g"/><clipPath id="h"><path d="M190 9.5h2v255h-2zm0 0"/></clipPath><clipPath id="i"><path d="M21 242h340v2H21zm0 0"/></clipPath><clipPath id="j"><path d="M21 9.5h1v255h-1zm0 0"/></clipPath><clipPath id="k"><path d="M105 9.5h2v255h-2zm0 0"/></clipPath><clipPath id="l"><path d="M190 9.5h2v255h-2zm0 0"/></clipPath><clipPath id="m"><path d="M275 9.5h2v255h-2zm0 0"/></clipPath><clipPath id="n"><path d="M360 9.5h1v255h-1zm0 0"/></clipPath><clipPath id="o"><path d="M21 242h340v2H21zm0 0"/></clipPath><clipPath id="p"><path d="M21 189h340v2H21zm0 0"/></clipPath><clipPath id="q"><path d="M21 136h340v2H21zm0 0"/></clipPath><clipPath id="r"><path d="M21 83h340v2H21zm0 0"/></clipPath><clipPath id="s"><path d="M21 30h340v2H21zm0 0"/></clipPath><clipPath id="t"><path d="M21 30h340v214H21zm0 0"/></clipPath></defs><g clip-path="url(#h)"><path d="M1910 105v2550" class="e"/></g><g clip-path="url(#i)"><path d="M210 317.5h3400" class="e"/></g><g clip-path="url(#j)"><path d="M210 105v2550" class="a"/></g><g clip-path="url(#k)"><path d="M1060 105v2550" class="a"/></g><g clip-path="url(#l)"><path d="M1910 105v2550" class="a"/></g><g clip-path="url(#m)"><path d="M2760 105v2550" class="a"/></g><g clip-path="url(#n)"><path d="M3610 105v2550" class="a"/></g><g clip-path="url(#o)"><path d="M210 317.5h3400" class="a"/></g><g clip-path="url(#p)"><path d="M210 848.75h3400" class="a"/></g><g clip-path="url(#q)"><path d="M210 1380h3400" class="a"/></g><g clip-path="url(#r)"><path d="M210 1911.25h3400" class="a"/></g><g clip-path="url(#s)"><path d="M210 2442.5h3400" class="a"/></g><g class="b"><path d="M210 105h3400" class="c"/><g class="d"><path d="M210 105v50"/><path d="M295 105v25"/><path d="M380 105v25"/><path d="M465 105v25"/><path d="M550 105v25"/><path d="M635 105v25"/><path d="M720 105v25"/><path d="M805 105v25"/><path d="M890 105v25"/><path d="M975 105v25"/><path d="M1060 105v50"/><path d="M1145 105v25"/><path d="M1230 105v25"/><path d="M1315 105v25"/><path d="M1400 105v25"/><path d="M1485 105v25"/><path d="M1570 105v25"/><path d="M1655 105v25"/><path d="M1740 105v25"/><path d="M1825 105v25"/><path d="M1910 105v50"/><path d="M1995 105v25"/><path d="M2080 105v25"/><path d="M2165 105v25"/><path d="M2250 105v25"/><path d="M2335 105v25"/><path d="M2420 105v25"/><path d="M2505 105v25"/><path d="M2590 105v25"/><path d="M2675 105v25"/><path d="M2760 105v50"/><path d="M2845 105v25"/><path d="M2930 105v25"/><path d="M3015 105v25"/><path d="M3100 105v25"/><path d="M3185 105v25"/><path d="M3270 105v25"/><path d="M3355 105v25"/><path d="M3440 105v25"/><path d="M3525 105v25"/><path d="M3610 105v50"/></g></g><use x="17.0418" y="274.5" href="#f"/><use x="19.5393" y="274.5" href="#c"/><use x="102.0416" y="274.5" href="#f"/><use x="104.5391" y="274.5" href="#d"/><use x="188.9148" y="274.5" href="#a"/><use x="273.9146" y="274.5" href="#d"/><use x="358.9143" y="274.5" href="#c"/><g class="b"><path d="M210 2655h3400" class="c"/><g class="d"><path d="M210 2655v-50"/><path d="M295 2655v-25"/><path d="M380 2655v-25"/><path d="M465 2655v-25"/><path d="M550 2655v-25"/><path d="M635 2655v-25"/><path d="M720 2655v-25"/><path d="M805 2655v-25"/><path d="M890 2655v-25"/><path d="M975 2655v-25"/><path d="M1060 2655v-50"/><path d="M1145 2655v-25"/><path d="M1230 2655v-25"/><path d="M1315 2655v-25"/><path d="M1400 2655v-25"/><path d="M1485 2655v-25"/><path d="M1570 2655v-25"/><path d="M1655 2655v-25"/><path d="M1740 2655v-25"/><path d="M1825 2655v-25"/><path d="M1910 2655v-50"/><path d="M1995 2655v-25"/><path d="M2080 2655v-25"/><path d="M2165 2655v-25"/><path d="M2250 2655v-25"/><path d="M2335 2655v-25"/><path d="M2420 2655v-25"/><path d="M2505 2655v-25"/><path d="M2590 2655v-25"/><path d="M2675 2655v-25"/><path d="M2760 2655v-50"/><path d="M2845 2655v-25"/><path d="M2930 2655v-25"/><path d="M3015 2655v-25"/><path d="M3100 2655v-25"/><path d="M3185 2655v-25"/><path d="M3270 2655v-25"/><path d="M3355 2655v-25"/><path d="M3440 2655v-25"/><path d="M3525 2655v-25"/><path d="M3610 2655v-50"/></g></g><use x="17.0418" y="6.375" href="#f"/><use x="19.5393" y="6.375" href="#c"/><use x="102.0416" y="6.375" href="#f"/><use x="104.5391" y="6.375" href="#d"/><use x="188.9148" y="6.375" href="#a"/><use x="273.9146" y="6.375" href="#d"/><use x="358.9143" y="6.375" href="#c"/><g class="b"><path d="M210 105v2550" class="c"/><g class="d"><path d="M210 105h25"/><path d="M210 158.125h25"/><path d="M210 211.25h25"/><path d="M210 264.375h25"/><path d="M210 317.5h50"/><path d="M210 370.625h25"/><path d="M210 423.75h25"/><path d="M210 476.875h25"/><path d="M210 530h25"/><path d="M210 583.125h25"/><path d="M210 636.25h25"/><path d="M210 689.375h25"/><path d="M210 742.5h25"/><path d="M210 795.625h25"/><path d="M210 848.75h50"/><path d="M210 901.875h25"/><path d="M210 955h25"/><path d="M210 1008.125h25"/><path d="M210 1061.25h25"/><path d="M210 1114.375h25"/><path d="M210 1167.5h25"/><path d="M210 1220.625h25"/><path d="M210 1273.75h25"/><path d="M210 1326.875h25"/><path d="M210 1380h50"/><path d="M210 1433.125h25"/><path d="M210 1486.25h25"/><path d="M210 1539.375h25"/><path d="M210 1592.5h25"/><path d="M210 1645.625h25"/><path d="M210 1698.75h25"/><path d="M210 1751.875h25"/><path d="M210 1805h25"/><path d="M210 1858.125h25"/><path d="M210 1911.25h50"/><path d="M210 1964.375h25"/><path d="M210 2017.5h25"/><path d="M210 2070.625h25"/><path d="M210 2123.75h25"/><path d="M210 2176.875h25"/><path d="M210 2230h25"/><path d="M210 2283.125h25"/><path d="M210 2336.25h25"/><path d="M210 2389.375h25"/><path d="M210 2442.5h50"/><path d="M210 2495.625h25"/><path d="M210 2548.75h25"/><path d="M210 2601.875h25"/><path d="M210 2655h25"/></g></g><use x="-.4691" y="247" href="#a"/><use x="3.7009" y="247" href="#b"/><use x="5.7859" y="247" href="#a"/><use x="9.9559" y="247" href="#a"/><use x="-.4691" y="193.25" href="#a"/><use x="3.7009" y="193.25" href="#b"/><use x="5.7859" y="193.25" href="#c"/><use x="9.9559" y="193.25" href="#e"/><use x="-.4691" y="140.125" href="#a"/><use x="3.7009" y="140.125" href="#b"/><use x="5.7859" y="140.125" href="#e"/><use x="9.9559" y="140.125" href="#a"/><use x="-.4691" y="87" href="#a"/><use x="3.7009" y="87" href="#b"/><use x="5.7859" y="87" href="#g"/><use x="9.9559" y="87" href="#e"/><use x="-.4691" y="33.875" href="#d"/><use x="3.7009" y="33.875" href="#b"/><use x="5.7859" y="33.875" href="#a"/><use x="9.9559" y="33.875" href="#a"/><g class="b"><path d="M3610 105v2550" class="c"/><g class="d"><path d="M3610 105h-25"/><path d="M3610 158.125h-25"/><path d="M3610 211.25h-25"/><path d="M3610 264.375h-25"/><path d="M3610 317.5h-50"/><path d="M3610 370.625h-25"/><path d="M3610 423.75h-25"/><path d="M3610 476.875h-25"/><path d="M3610 530h-25"/><path d="M3610 583.125h-25"/><path d="M3610 636.25h-25"/><path d="M3610 689.375h-25"/><path d="M3610 742.5h-25"/><path d="M3610 795.625h-25"/><path d="M3610 848.75h-50"/><path d="M3610 901.875h-25"/><path d="M3610 955h-25"/><path d="M3610 1008.125h-25"/><path d="M3610 1061.25h-25"/><path d="M3610 1114.375h-25"/><path d="M3610 1167.5h-25"/><path d="M3610 1220.625h-25"/><path d="M3610 1273.75h-25"/><path d="M3610 1326.875h-25"/><path d="M3610 1380h-50"/><path d="M3610 1433.125h-25"/><path d="M3610 1486.25h-25"/><path d="M3610 1539.375h-25"/><path d="M3610 1592.5h-25"/><path d="M3610 1645.625h-25"/><path d="M3610 1698.75h-25"/><path d="M3610 1751.875h-25"/><path d="M3610 1805h-25"/><path d="M3610 1858.125h-25"/><path d="M3610 1911.25h-50"/><path d="M3610 1964.375h-25"/><path d="M3610 2017.5h-25"/><path d="M3610 2070.625h-25"/><path d="M3610 2123.75h-25"/><path d="M3610 2176.875h-25"/><path d="M3610 2230h-25"/><path d="M3610 2283.125h-25"/><path d="M3610 2336.25h-25"/><path d="M3610 2389.375h-25"/><path d="M3610 2442.5h-50"/><path d="M3610 2495.625h-25"/><path d="M3610 2548.75h-25"/><path d="M3610 2601.875h-25"/><path d="M3610 2655h-25"/></g></g><use x="367.25" y="247" href="#a"/><use x="371.42" y="247" href="#b"/><use x="373.505" y="247" href="#a"/><use x="377.675" y="247" href="#a"/><use x="367.25" y="193.25" href="#a"/><use x="371.42" y="193.25" href="#b"/><use x="373.505" y="193.25" href="#c"/><use x="377.675" y="193.25" href="#e"/><use x="367.25" y="140.125" href="#a"/><use x="371.42" y="140.125" href="#b"/><use x="373.505" y="140.125" href="#e"/><use x="377.675" y="140.125" href="#a"/><use x="367.25" y="87" href="#a"/><use x="371.42" y="87" href="#b"/><use x="373.505" y="87" href="#g"/><use x="377.675" y="87" href="#e"/><use x="367.25" y="33.875" href="#d"/><use x="371.42" y="33.875" href="#b"/><use x="373.505" y="33.875" href="#a"/><use x="377.675" y="33.875" href="#a"/><g clip-path="url(#t)"><path d="M210 317.5l850 2125 850-2125 850 2125 850-2125" style="fill:none;stroke-width:12.5;stroke-linecap:round;stroke-linejoin:round;stroke:#00008b;stroke-miterlimit:10;transform:matrix(.1,0,0,-.1,0,275)"/></g><style>.a{fill:none;stroke:#bfbfbf;stroke-dasharray:12.5,18.75;stroke-linecap:round;stroke-miterlimit:10;stroke-width:6.25;transform:matrix(.1,0,0,-.1,0,275)}.b{fill:none;stroke:#000;stroke-miterlimit:10;transform:matrix(.1,0,0,-.1,0,275)}.c{stroke-linecap:square;stroke-width:12.5}.d{stroke-width:6.25}.e{fill:none;stroke:#bfbfbf;stroke-linecap:round;stroke-miterlimit:10;stroke-width:6.25;transform:matrix(.1,0,0,-.1,0,275)}</style></svg>