<svg xmlns="http://www.w3.org/2000/svg" width="365pt" height="275pt" viewBox="0 0 365 275"><defs><path d="M2.0625-5.3125c-.5 0-.9375.21875-1.21875.578125C.5-4.265625.328125-3.5625.328125-2.578125c0 1.796875.59375 2.75 1.734375 2.75 1.125 0 1.734375-.953125 1.734375-2.703125 0-1.03125-.15625-1.71875-.515625-2.203125C3-5.109375 2.5625-5.3125 2.0625-5.3125zm0 .5781c.71875 0 1.0625.71875 1.0625 2.140625C3.125-1.078125 2.78125-.375 2.046875-.375 1.34375-.375 1-1.109375 1-2.5625c0-1.453125.34375-2.171875 1.0625-2.171875zm0 0" id="c"/><path d="M1.9375-3.7812V0h.6719v-5.3125h-.4375c-.2344.8125-.39065.921875-1.406275 1.046875v.4844zm0 0" id="b"/><path d="M3.7969-.6562H1c.0625-.4375.3125-.703125.953125-1.09375l.75-.4062c.75-.40625 1.125-.953125 1.125-1.59375 0-.453125-.171875-.859375-.484375-1.140625C3.015625-5.1875 2.625-5.3125 2.125-5.3125c-.671875 0-1.171875.234375-1.46875.6875-.1875.28125-.265625.609375-.28125 1.15625h.6563c.03125-.359375.078125-.578125.15625-.75.171875-.328125.515625-.515625.921875-.515625.59375 0 1.046875.421875 1.046875.984375 0 .421875-.25.78125-.71875 1.0625l-.6875.3906C.640625-1.671875.3125-1.171875.25 0h3.5469zm0 0" id="d"/><path d="M1.6563-2.4375h.3594c.734375 0 1.109375.328125 1.109375.953125C3.125-.8125 2.703125-.40625 2.015625-.40625 1.296875-.40625.9375-.765625.90625-1.546875H.2344C.265625-1.125.34375-.84375.46875-.59375.75-.09375 1.265625.171875 2 .171875c1.09375 0 1.796875-.65625 1.796875-1.65625 0-.671875-.265625-1.046875-.90625-1.265625.5-.203125.75-.578125.75-1.109375 0-.90625-.609375-1.453125-1.625-1.453125C.9375-5.3125.375-4.734375.359375-3.59375h.6563c0-.328125.03125-.515625.109375-.671875.15625-.296875.484375-.46875.90625-.46875.578125 0 .9375.34375.9375.90625 0 .375-.140625.59375-.4375.71875C2.359375-3.03125 2.125-3 1.65625-3zm0 0" id="e"/><path d="M2.4531-1.2812V0h.6563v-1.2812h.7969v-.5938h-.7969v-3.4375H2.625L.2031-1.9687v.6875zm0-.5937H.7813l1.6719-2.3125zm0 0" id="f"/><path d="M3.5625-5.3125H.8281L.4219-2.4219h.6094c.3125-.375.5625-.5.984375-.5.703125 0 1.15625.484375 1.15625 1.28125 0 .765625-.4375 1.234375-1.15625 1.234375-.578125 0-.9375-.296875-1.09375-.90625h-.6562c.09375.4375.15625.65625.3125.84375.3125.40625.84375.640625 1.453125.640625 1.0625 0 1.8125-.78125 1.8125-1.90625C3.84375-2.78125 3.15625-3.5 2.125-3.5c-.375 0-.671875.09375-.984375.3125l.2188-1.4844H3.5625zm0 0" id="g"/><path d="M2.125-2.3437H.3438v.5469H2.125zm0 0" id="h"/><clipPath id="i"><path d="M13 9.5h1v255h-1zm0 0"/></clipPath><clipPath id="j"><path d="M13 176h340v2H13zm0 0"/></clipPath><clipPath id="k"><path d="M13 9.5h1v255h-1zm0 0"/></clipPath><clipPath id="l"><path d="M80 9.5h2v255h-2zm0 0"/></clipPath><clipPath id="m"><path d="M148 9.5h2v255h-2zm0 0"/></clipPath><clipPath id="n"><path d="M216 9.5h2v255h-2zm0 0"/></clipPath><clipPath id="o"><path d="M284 9.5h2v255h-2zm0 0"/></clipPath><clipPath id="p"><path d="M352 9.5h1v255h-1zm0 0"/></clipPath><clipPath id="q"><path d="M13 228h340v2H13zm0 0"/></clipPath><clipPath id="r"><path d="M13 176h340v2H13zm0 0"/></clipPath><clipPath id="s"><path d="M13 124h340v2H13zm0 0"/></clipPath><clipPath id="t"><path d="M13 72h340v2H13zm0 0"/></clipPath><clipPath id="u"><path d="M13 20h340v2H13zm0 0"/></clipPath><clipPath id="v"><path d="M13 85h340v179.5H13zm0 0"/></clipPath><clipPath id="w"><path d="M13 9.5h340v255H13zm0 0"/></clipPath><clipPath id="x"><path d="M13 123h340v141.5H13zm0 0"/></clipPath><path id="a" d="M130 105v2550"/></defs><g clip-path="url(#i)"><use href="#a" class="e"/></g><g clip-path="url(#j)"><path d="M130 977.734375h3400" class="e"/></g><g clip-path="url(#k)"><use href="#a" class="a"/></g><g clip-path="url(#l)"><path d="M810 105v2550" class="a"/></g><g clip-path="url(#m)"><path d="M1490 105v2550" class="a"/></g><g clip-path="url(#n)"><path d="M2170 105v2550" class="a"/></g><g clip-path="url(#o)"><path d="M2850 105v2550" class="a"/></g><g clip-path="url(#p)"><path d="M3530 105v2550" class="a"/></g><g clip-path="url(#q)"><path d="M130 457.304688h3400" class="a"/></g><g clip-path="url(#r)"><path d="M130 977.734375h3400" class="a"/></g><g clip-path="url(#s)"><path d="M130 1498.203125h3400" class="a"/></g><g clip-path="url(#t)"><path d="M130 2018.632812h3400" class="a"/></g><g clip-path="url(#u)"><path d="M130 2539.101562h3400" class="a"/></g><g class="b"><path d="M130 105h3400" class="c"/><g class="d"><path d="M130 105v50"/><path d="M198.007812 105v25"/><path d="M266.015625 105v25"/><path d="M333.984375 105v25"/><path d="M401.992188 105v25"/><path d="M470 105v25"/><path d="M538.007812 105v25"/><path d="M606.015625 105v25"/><path d="M673.984375 105v25"/><path d="M741.992188 105v25"/><path d="M810 105v50"/><path d="M878.007812 105v25"/><path d="M945.976562 105v25"/><path d="M1013.984375 105v25"/><path d="M1081.992188 105v25"/><path d="M1150 105v25"/><path d="M1218.007812 105v25"/><path d="M1286.015625 105v25"/><path d="M1353.984375 105v25"/><path d="M1421.992188 105v25"/><path d="M1490 105v50"/><path d="M1558.007812 105v25"/><path d="M1626.015625 105v25"/><path d="M1693.984375 105v25"/><path d="M1761.992188 105v25"/><path d="M1830 105v25"/><path d="M1898.007812 105v25"/><path d="M1966.015625 105v25"/><path d="M2033.984375 105v25"/><path d="M2101.992188 105v25"/><path d="M2170 105v50"/><path d="M2238.007812 105v25"/><path d="M2306.015625 105v25"/><path d="M2373.984375 105v25"/><path d="M2441.992188 105v25"/><path d="M2510 105v25"/><path d="M2578.007812 105v25"/><path d="M2646.015625 105v25"/><path d="M2713.984375 105v25"/><path d="M2781.992188 105v25"/><path d="M2850 105v50"/><path d="M2918.007812 105v25"/><path d="M2986.015625 105v25"/><path d="M3053.984375 105v25"/><path d="M3121.992188 105v25"/><path d="M3190 105v25"/><path d="M3258.007812 105v25"/><path d="M3326.015625 105v25"/><path d="M3393.984375 105v25"/><path d="M3461.992188 105v25"/><path d="M3530 105v50"/></g></g><use x="10.2902" y="274.5" href="#c"/><use x="78.4152" y="274.5" href="#b"/><use x="146.5402" y="274.5" href="#d"/><use x="214.6651" y="274.5" href="#e"/><use x="282.7901" y="274.5" href="#f"/><use x="350.9151" y="274.5" href="#g"/><g class="b"><path d="M130 2655h3400" class="c"/><g class="d"><path d="M130 2655v-50"/><path d="M198.007812 2655v-25"/><path d="M266.015625 2655v-25"/><path d="M333.984375 2655v-25"/><path d="M401.992188 2655v-25"/><path d="M470 2655v-25"/><path d="M538.007812 2655v-25"/><path d="M606.015625 2655v-25"/><path d="M673.984375 2655v-25"/><path d="M741.992188 2655v-25"/><path d="M810 2655v-50"/><path d="M878.007812 2655v-25"/><path d="M945.976562 2655v-25"/><path d="M1013.984375 2655v-25"/><path d="M1081.992188 2655v-25"/><path d="M1150 2655v-25"/><path d="M1218.007812 2655v-25"/><path d="M1286.015625 2655v-25"/><path d="M1353.984375 2655v-25"/><path d="M1421.992188 2655v-25"/><path d="M1490 2655v-50"/><path d="M1558.007812 2655v-25"/><path d="M1626.015625 2655v-25"/><path d="M1693.984375 2655v-25"/><path d="M1761.992188 2655v-25"/><path d="M1830 2655v-25"/><path d="M1898.007812 2655v-25"/><path d="M1966.015625 2655v-25"/><path d="M2033.984375 2655v-25"/><path d="M2101.992188 2655v-25"/><path d="M2170 2655v-50"/><path d="M2238.007812 2655v-25"/><path d="M2306.015625 2655v-25"/><path d="M2373.984375 2655v-25"/><path d="M2441.992188 2655v-25"/><path d="M2510 2655v-25"/><path d="M2578.007812 2655v-25"/><path d="M2646.015625 2655v-25"/><path d="M2713.984375 2655v-25"/><path d="M2781.992188 2655v-25"/><path d="M2850 2655v-50"/><path d="M2918.007812 2655v-25"/><path d="M2986.015625 2655v-25"/><path d="M3053.984375 2655v-25"/><path d="M3121.992188 2655v-25"/><path d="M3190 2655v-25"/><path d="M3258.007812 2655v-25"/><path d="M3326.015625 2655v-25"/><path d="M3393.984375 2655v-25"/><path d="M3461.992188 2655v-25"/><path d="M3530 2655v-50"/></g></g><use x="10.2902" y="6.375" href="#c"/><use x="78.4152" y="6.375" href="#b"/><use x="146.5402" y="6.375" href="#d"/><use x="214.6651" y="6.375" href="#e"/><use x="282.7901" y="6.375" href="#f"/><use x="350.9151" y="6.375" href="#g"/><g class="b"><use href="#a" class="c"/><g class="d"><path d="M130 145.039062h25"/><path d="M130 197.070312h25"/><path d="M130 249.101562h25"/><path d="M130 301.171875h25"/><path d="M130 353.203125h25"/><path d="M130 405.234375h25"/><path d="M130 457.304688h50"/><path d="M130 509.335938h25"/><path d="M130 561.367188h25"/><path d="M130 613.4375h25"/><path d="M130 665.46875h25"/><path d="M130 717.5h25"/><path d="M130 769.570312h25"/><path d="M130 821.601562h25"/><path d="M130 873.632812h25"/><path d="M130 925.703125h25"/><path d="M130 977.734375h50"/><path d="M130 1029.804688h25"/><path d="M130 1081.835938h25"/><path d="M130 1133.867188h25"/><path d="M130 1185.9375h25"/><path d="M130 1237.96875h25"/><path d="M130 1290.039062h25"/><path d="M130 1342.070312h25"/><path d="M130 1394.101562h25"/><path d="M130 1446.132812h25"/><path d="M130 1498.203125h50"/><path d="M130 1550.234375h25"/><path d="M130 1602.304688h25"/><path d="M130 1654.335938h25"/><path d="M130 1706.367188h25"/><path d="M130 1758.398438h25"/><path d="M130 1810.46875h25"/><path d="M130 1862.5h25"/><path d="M130 1914.53125h25"/><path d="M130 1966.601562h25"/><path d="M130 2018.632812h50"/><path d="M130 2070.703125h25"/><path d="M130 2122.734375h25"/><path d="M130 2174.765625h25"/><path d="M130 2226.835938h25"/><path d="M130 2278.867188h25"/><path d="M130 2330.898438h25"/><path d="M130 2382.96875h25"/><path d="M130 2435h25"/><path d="M130 2487.03125h25"/><path d="M130 2539.101562h50"/><path d="M130 2591.132812h25"/><path d="M130 2643.164062h25"/></g></g><use x="-.5418" y="232.625" href="#h"/><use x="1.9557" y="232.625" href="#b"/><use x="1.9551" y="180.75" href="#c"/><use x="1.9551" y="128.875" href="#b"/><use x="1.9551" y="76.375" href="#d"/><use x="1.9551" y="24.5" href="#e"/><g class="b"><path d="M3530 105v2550" class="c"/><g class="d"><path d="M3530 145.039062h-25"/><path d="M3530 197.070312h-25"/><path d="M3530 249.101562h-25"/><path d="M3530 301.171875h-25"/><path d="M3530 353.203125h-25"/><path d="M3530 405.234375h-25"/><path d="M3530 457.304688h-50"/><path d="M3530 509.335938h-25"/><path d="M3530 561.367188h-25"/><path d="M3530 613.4375h-25"/><path d="M3530 665.46875h-25"/><path d="M3530 717.5h-25"/><path d="M3530 769.570312h-25"/><path d="M3530 821.601562h-25"/><path d="M3530 873.632812h-25"/><path d="M3530 925.703125h-25"/><path d="M3530 977.734375h-50"/><path d="M3530 1029.804688h-25"/><path d="M3530 1081.835938h-25"/><path d="M3530 1133.867188h-25"/><path d="M3530 1185.9375h-25"/><path d="M3530 1237.96875h-25"/><path d="M3530 1290.039062h-25"/><path d="M3530 1342.070312h-25"/><path d="M3530 1394.101562h-25"/><path d="M3530 1446.132812h-25"/><path d="M3530 1498.203125h-50"/><path d="M3530 1550.234375h-25"/><path d="M3530 1602.304688h-25"/><path d="M3530 1654.335938h-25"/><path d="M3530 1706.367188h-25"/><path d="M3530 1758.398438h-25"/><path d="M3530 1810.46875h-25"/><path d="M3530 1862.5h-25"/><path d="M3530 1914.53125h-25"/><path d="M3530 1966.601562h-25"/><path d="M3530 2018.632812h-50"/><path d="M3530 2070.703125h-25"/><path d="M3530 2122.734375h-25"/><path d="M3530 2174.765625h-25"/><path d="M3530 2226.835938h-25"/><path d="M3530 2278.867188h-25"/><path d="M3530 2330.898438h-25"/><path d="M3530 2382.96875h-25"/><path d="M3530 2435h-25"/><path d="M3530 2487.03125h-25"/><path d="M3530 2539.101562h-50"/><path d="M3530 2591.132812h-25"/><path d="M3530 2643.164062h-25"/></g></g><use x="359.25" y="232.625" href="#h"/><use x="361.7475" y="232.625" href="#b"/><use x="359.25" y="180.75" href="#c"/><use x="359.25" y="128.875" href="#b"/><use x="359.25" y="76.375" href="#d"/><use x="359.25" y="24.5" href="#e"/><g clip-path="url(#v)"><path d="M130 1498.203125l6.25 4.765625 12.5 9.375 12.5 9.21875 6.25 4.53125 6.25 4.492188 6.25 4.453124 12.5 8.75 12.5 8.515626 6.25 4.21875 6.25 4.140624 6.25 4.101563 6.25 4.0625 6.25 4.023437 6.25 3.945313 6.25 3.90625 6.25 3.867187 6.25 3.789063 6.25 3.75 6.25 3.710937 6.25 3.632813 6.25 3.59375 6.25 3.554687 6.25 3.476563 6.25 3.4375 6.25 3.398437 6.25 3.320313 6.25 3.28125 6.25 3.203125 6.25 3.164062 6.25 3.125 6.25 3.046876 6.25 3.007812 6.25 2.929688 6.25 2.890624 6.25 2.8125 6.25 2.773438 6.25 2.734375 6.25 2.65625 12.5 5.15625 6.25 2.460937 6.25 2.421876 6.25 2.382812 6.25 2.304688 6.25 2.265624 6.25 2.1875 6.25 2.148438 6.25 2.070312 6.25 2.03125 6.25 1.953126 6.25 1.875 6.25 1.835937 6.25 1.796875 6.25 1.71875 6.25 1.679688 12.5 3.125 6.25 1.484374 6.25 1.40625 6.25 1.328126 6.25 1.289062 6.25 1.25 6.25 1.171875 6.25 1.132813 12.5 2.03125 6.25.9375 6.25.859374 6.25.78125 6.25.742188 6.25.703125 6.25.625 6.25.546875 6.25.46875 6.25.429688 6.25.390624 6.25.3125 6.25.234376 6.25.195312 6.25.117188 6.25.078124 12.5-.078124 12.5-.3125 6.25-.273438 6.25-.3125 6.25-.390625 6.25-.429687 6.25-.507813 6.25-.546875 6.25-.625 6.25-.664062 12.5-1.5625 12.5-1.796876 6.25-1.015624 6.25-1.054688 6.25-1.132812 6.25-1.171876 6.25-1.25 6.25-1.289062 6.25-1.367188 6.25-1.40625 6.25-1.484374 6.25-1.5625 6.25-1.601563 6.25-1.640625 6.25-1.71875 6.25-1.796875 6.25-1.835937 6.25-1.914063 6.25-1.953125 6.25-2.03125 12.5-4.21875 6.25-2.226562 6.25-2.265626 6.25-2.304687 6.25-2.382813 6.25-2.421874 6.25-2.5 6.25-2.539063 6.25-2.617187 6.25-2.65625 6.25-2.734376 6.25-2.773437 6.25-2.8125 6.25-2.890625 6.25-2.96875 6.25-3.007812 6.25-3.046876 6.25-3.125 6.25-3.164062 12.5-6.484375 6.25-3.359375 12.5-6.796875 6.25-3.515625 6.25-3.554688 6.25-3.59375 6.25-3.632812 6.25-3.710938 6.25-3.75 6.25-3.828124 6.25-3.867188 6.25-3.90625 6.25-3.945312 6.25-4.023438 6.25-4.0625 6.25-4.101562 12.5-8.359376 6.25-4.257812 6.25-4.296875 12.5-8.75 6.25-4.453125 12.5-9.0625 6.25-4.570312 12.5-9.296876 6.25-4.726562 6.25-4.765625 12.5-9.6875 6.25-4.882813 6.25-4.921874 6.25-5 12.5-10.078126 6.25-5.117187 12.5-10.3125 6.25-5.234375 6.25-5.273438 6.25-5.3125 12.5-10.703124 6.25-5.429688 12.5-10.9375 12.5-11.09375 6.25-5.625 6.25-5.585938 12.5-11.40625 12.5-11.484374 6.25-5.78125 18.75-17.578126 6.25-5.9375 12.5-11.953124 12.5-12.03125 18.75-18.28125 12.5-12.34375 12.5-12.421876 12.5-12.5 6.25-6.289062 12.5-12.65625 12.5-12.734375 6.25-6.40625 18.75-19.335937 12.5-12.96875 18.75-19.570313 6.25-6.5625 6.25-6.601563 6.25-6.5625 6.25-6.601562 6.25-6.640625 6.25-6.601563 6.25-6.640624 6.25-6.679688 6.25-6.640625 18.75-20.039063 31.25-33.59375 6.25-6.757812 6.25-6.71875 43.75-47.304688 6.25-6.796874 56.25-60.820313 6.25-6.71875 6.25-6.757813 25-26.875 31.25-33.398437 12.5-13.28125 6.25-6.601563 6.25-6.640624 6.25-6.601563 6.25-6.5625 6.25-6.601563 6.25-6.523437 6.25-6.5625 6.25-6.523437 18.75-19.453126 12.5-12.890624 12.5-12.8125 12.5-12.734376 6.25-6.328124 18.75-18.867188 6.25-6.25 6.25-6.210938 12.5-12.34375 12.5-12.265624 6.25-6.054688 6.25-6.09375 12.5-12.03125 6.25-5.9375 6.25-5.976562 12.5-11.796876 6.25-5.859374 6.25-5.820313 6.25-5.78125 12.5-11.484375 12.5-11.328125 6.25-5.625 6.25-5.585937 12.5-11.09375 6.25-5.46875 12.5-10.859376 12.5-10.703124 12.5-10.546876 12.5-10.390624 6.25-5.117188 12.5-10.15625 6.25-5 6.25-4.960938 12.5-9.84375 12.5-9.609374 6.25-4.765626 12.5-9.375 6.25-4.609374 6.25-4.570313 6.25-4.53125 6.25-4.492187 6.25-4.414063 6.25-4.375 6.25-4.335937 6.25-4.296876 6.25-4.257812 6.25-4.179688 6.25-4.140624 6.25-4.101563 6.25-4.0625 6.25-3.984375 6.25-3.945312 6.25-3.90625 6.25-3.828126 6.25-3.789062 6.25-3.75 6.25-3.710938 6.25-3.632812 6.25-3.59375 6.25-3.515625 6.25-3.476563 6.25-3.4375 6.25-3.359374 6.25-3.320313 6.25-3.242187 6.25-3.203126L2473.75 325l6.25-3.125 12.5-6.015625 6.25-2.929687 12.5-5.703126 12.5-5.46875 6.25-2.65625 6.25-2.578124 6.25-2.539063 6.25-2.460937 6.25-2.421876 6.25-2.34375 6.25-2.304687 6.25-2.265625 12.5-4.296875 6.25-2.070313 6.25-1.992187L2605 271.875l6.25-1.875 6.25-1.835938 6.25-1.757812 6.25-1.71875 6.25-1.640625 6.25-1.601563 6.25-1.523437 6.25-1.445313 6.25-1.40625 6.25-1.367187 12.5-2.5 12.5-2.265625 6.25-1.015625 6.25-.976563 6.25-.9375 12.5-1.640624 6.25-.703126L2736.25 245l6.25-.625 6.25-.546875 6.25-.46875 6.25-.429687 6.25-.351563 6.25-.3125 6.25-.234375 6.25-.15625 6.25-.117188 6.25-.039062h6.25l6.25.078125 6.25.15625 6.25.195313 6.25.273437 6.25.3125 6.25.390625 6.25.46875 6.25.507812 6.25.546876 12.5 1.328124 6.25.78125 6.25.820313 6.25.859375 6.25.976562 6.25 1.015626 6.25 1.054687 6.25 1.132813 6.25 1.171874 6.25 1.25 6.25 1.328126 6.25 1.367187 6.25 1.445313 6.25 1.484374 6.25 1.5625 6.25 1.601563 6.25 1.679687 6.25 1.757813 6.25 1.796875 6.25 1.835938 6.25 1.914062 6.25 1.992188 6.25 2.03125 6.25 2.070312 12.5 4.375 6.25 2.265625 6.25 2.34375 6.25 2.382813 6.25 2.460937 6.25 2.5 6.25 2.539063 6.25 2.617187 6.25 2.695313 6.25 2.734374 6.25 2.773438 6.25 2.851562 6.25 2.890626 6.25 2.96875 6.25 3.007812 6.25 3.085938 6.25 3.125 6.25 3.164062 6.25 3.242188 6.25 3.28125 6.25 3.359374 6.25 3.398438 6.25 3.4375 6.25 3.515625 6.25 3.554687 6.25 3.59375 6.25 3.671876 6.25 3.710937 12.5 7.578125 6.25 3.867188 6.25 3.945312 12.5 7.96875 12.5 8.203125 6.25 4.179687 6.25 4.21875 6.25 4.257813 6.25 4.296875 6.25 4.375 6.25 4.414062 6.25 4.453126 6.25 4.492187 12.5 9.140625 6.25 4.648438 6.25 4.6875 6.25 4.726562 6.25 4.765625 12.5 9.6875 12.5 9.84375 6.25 5 6.25 5.039063 6.25 5.078124 6.25 5.117188 6.25 5.15625 6.25 5.195312 6.25 5.234376 6.25 5.273437 6.25 5.3125L3430 535.3125l6.25 5.429688 6.25 5.46875 6.25 5.507812 12.5 11.09375 12.5 11.25 6.25 5.664062 6.25 5.742188 6.25 5.703125 6.25 5.78125 12.5 11.640625 6.25 5.898438 6.25 5.859374 6.25 5.9375" style="fill:none;stroke-width:12.5;stroke-linecap:round;stroke:#00008b;stroke-miterlimit:10;transform:matrix(.1,0,0,-.1,0,275)"/></g><g clip-path="url(#w)"><path d="M130 2539.101562l6.25-4.765624 6.25-4.726563 6.25-4.6875 12.5-9.21875 6.25-4.570313 6.25-4.53125 18.75-13.359374 6.25-4.375 12.5-8.671876 6.25-4.296874 12.5-8.515626 6.25-4.21875 12.5-8.359374 6.25-4.140626 18.75-12.304687 6.25-4.0625 18.75-12.070313 18.75-11.953124 18.75-11.835938 31.25-19.53125 6.25-3.867188 6.25-3.90625 56.25-34.804687 6.25-3.90625 12.5-7.734375 12.5-7.8125 6.25-3.867188 12.5-7.8125 6.25-3.945312 6.25-3.90625 12.5-7.890625 6.25-3.984375 6.25-3.945312 12.5-7.96875 18.75-12.070313 18.75-12.1875 12.5-8.203125 12.5-8.28125 18.75-12.539062 6.25-4.21875 6.25-4.257813 6.25-4.21875 12.5-8.59375 18.75-13.007813 18.75-13.242187 6.25-4.453125 12.5-8.984375 12.5-9.0625 6.25-4.609375 6.25-4.570312 18.75-13.945313 12.5-9.453125 12.5-9.53125 6.25-4.84375 6.25-4.804688 12.5-9.765624 6.25-4.921876 6.25-4.960937 12.5-10 6.25-5.039063 12.5-10.15625 6.25-5.117187 6.25-5.15625 12.5-10.390625 18.75-15.820312 12.5-10.703126 6.25-5.390624 12.5-10.859376 12.5-11.015624 6.25-5.546876 12.5-11.171874 6.25-5.625 6.25-5.703126 6.25-5.664062 12.5-11.484375 6.25-5.78125 6.25-5.820313 6.25-5.859374 12.5-11.796876 6.25-5.9375 12.5-11.953124 12.5-12.109376 12.5-12.1875 12.5-12.34375 12.5-12.421874 12.5-12.578126 12.5-12.65625 12.5-12.8125 12.5-12.890624 6.25-6.484376 6.25-6.523437 12.5-13.125 6.25-6.601563 12.5-13.28125 6.25-6.71875 6.25-6.679687 12.5-13.515625 12.5-13.59375 6.25-6.835938 12.5-13.75 12.5-13.828124 18.75-20.976563 12.5-14.0625 6.25-7.070313 6.25-7.109374 6.25-7.148438 6.25-7.109375 18.75-21.5625 12.5-14.453125 6.25-7.265625 18.75-21.914063 12.5-14.6875 12.5-14.765624 18.75-22.265626 6.25-7.460937 6.25-7.5 6.25-7.460937 6.25-7.5 6.25-7.539063 6.25-7.5 6.25-7.578125 6.25-7.539062 18.75-22.734376 25-30.46875 25-30.625 37.5-46.171874 12.5-15.46875 6.25-7.695313 37.5-46.40625 6.25-7.773437 25-30.9375 6.25-7.773438 18.75-23.203125 6.25-7.695313 18.75-23.203124 37.5-46.171876 25-30.625 25-30.46875 12.5-15.15625 6.25-7.539062 6.25-7.578125 6.25-7.5 6.25-7.539063 12.5-15 12.5-14.921874 18.75-22.265626 6.25-7.382812 18.75-22.03125 6.25-7.304688 18.75-21.796874 6.25-7.226563 6.25-7.1875 18.75-21.445313 18.75-21.210937 12.5-13.984375 12.5-13.90625 6.25-6.914062 6.25-6.875 12.5-13.671876 6.25-6.796874 6.25-6.757813 6.25-6.71875 12.5-13.359375 6.25-6.640625 6.25-6.601563 6.25-6.5625 6.25-6.523437 12.5-12.96875 12.5-12.8125 12.5-12.65625 6.25-6.289063 6.25-6.25 12.5-12.34375 6.25-6.132812 6.25-6.09375 6.25-6.054688 12.5-11.953124 6.25-5.9375 12.5-11.71875 12.5-11.5625 6.25-5.703126 6.25-5.664062 6.25-5.625 6.25-5.585938 6.25-5.546874 12.5-10.9375 6.25-5.390626 6.25-5.351562 6.25-5.3125 12.5-10.46875 6.25-5.15625 6.25-5.117188 6.25-5.078124 6.25-5 6.25-4.960938 6.25-4.921875 6.25-4.882813 6.25-4.804687 6.25-4.765625 6.25-4.726562 6.25-4.648438 6.25-4.609375 6.25-4.570313 6.25-4.53125 6.25-4.453124 6.25-4.414063 6.25-4.335937 6.25-4.296876 6.25-4.257812 6.25-4.179688 6.25-4.140624 6.25-4.0625 6.25-4.023438 6.25-3.984375 6.25-3.90625 6.25-3.867187 6.25-3.789063 6.25-3.75 6.25-3.671875 6.25-3.632812 6.25-3.59375 6.25-3.515626 12.5-6.875 6.25-3.320312 6.25-3.28125 6.25-3.242188 6.25-3.164062 6.25-3.125 6.25-3.046875 6.25-2.96875 6.25-2.929687 6.25-2.890626 12.5-5.546874 6.25-2.695313 6.25-2.617187 6.25-2.578126 6.25-2.5 12.5-4.84375 6.25-2.304687 6.25-2.265625 6.25-2.1875 6.25-2.148438L2617.5 295l6.25-2.03125 12.5-3.828125 6.25-1.835937 6.25-1.757813 6.25-1.679687 6.25-1.640626 6.25-1.5625 6.25-1.523437 6.25-1.445313 6.25-1.367187L2692.5 275l6.25-1.289062 6.25-1.171876 6.25-1.132812 6.25-1.09375 6.25-.976562 6.25-.9375 6.25-.898438 12.5-1.5625 6.25-.664062 6.25-.625 6.25-.546876 6.25-.507812 6.25-.429688 6.25-.351562 6.25-.3125 6.25-.234375 6.25-.15625 6.25-.117187 6.25-.039063h6.25l6.25.078125 6.25.15625 6.25.195312 12.5.625 6.25.390626 6.25.46875 6.25.546874L2880 265l6.25.664062 6.25.703126 6.25.78125 6.25.859374 6.25.898438 6.25.976562 6.25 1.015626 6.25 1.09375 6.25 1.171874 6.25 1.210938 6.25 1.289062 6.25 1.328126 6.25 1.40625 6.25 1.484374 6.25 1.523438 6.25 1.601562 6.25 1.640626 6.25 1.71875 6.25 1.757812 6.25 1.835938 6.25 1.914062 6.25 1.953125 6.25 2.03125 6.25 2.070313 6.25 2.148437 6.25 2.1875 6.25 2.226563 12.5 4.6875 12.5 4.921874 6.25 2.578126 6.25 2.617187 6.25 2.65625 6.25 2.734375 6.25 2.773438 6.25 2.8125 12.5 5.859374 6.25 3.007813 12.5 6.171875 12.5 6.40625 12.5 6.640625 6.25 3.398437 6.25 3.4375 6.25 3.515626 6.25 3.554687 6.25 3.59375 6.25 3.671875 6.25 3.710938 6.25 3.789062 12.5 7.65625 6.25 3.945312 12.5 7.96875 12.5 8.203126 6.25 4.179687 6.25 4.21875 6.25 4.257813 6.25 4.335937 6.25 4.375 6.25 4.414063 6.25 4.453124 6.25 4.492188 6.25 4.53125 6.25 4.609375 6.25 4.648437 6.25 4.6875 6.25 4.726563 12.5 9.609375 6.25 4.84375 6.25 4.921875 6.25 4.960937 6.25 5 6.25 5.039063 12.5 10.15625 6.25 5.15625 6.25 5.195313 6.25 5.234374 6.25 5.3125 6.25 5.273438 6.25 5.390625 6.25 5.351563 6.25 5.429687 6.25 5.46875 12.5 11.015625 6.25 5.585938 12.5 11.25 6.25 5.664062 6.25 5.703125 6.25 5.742187 12.5 11.5625 12.5 11.71875" style="fill:none;stroke-width:12.5;stroke-linecap:round;stroke:#006400;stroke-miterlimit:10;transform:matrix(.1,0,0,-.1,0,275)"/></g><g clip-path="url(#x)"><path d="M130 457.304688l6.25 14.257812 6.25 14.179688 6.25 14.023437 6.25 13.867187 6.25 13.75 6.25 13.632813 6.25 13.515625 6.25 13.359375 6.25 13.242187 6.25 13.125 6.25 13.007813 6.25 12.851563 6.25 12.734374 6.25 12.617188 6.25 12.460938 6.25 12.34375L236.25 682.5l6.25 12.109375 6.25 11.992187L255 718.4375l6.25 11.71875 6.25 11.601562 6.25 11.484376 6.25 11.367187 6.25 11.25 6.25 11.09375 6.25 10.976563 6.25 10.859374 6.25 10.742188 6.25 10.625 6.25 10.507812 6.25 10.390626 6.25 10.273437 6.25 10.117187 6.25 10.039063 6.25 9.882813 6.25 9.804687 6.25 9.648437 6.25 9.53125 6.25 9.453126 6.25 9.296874 6.25 9.179688 6.25 9.101562 6.25 8.945313 6.25 8.828125 6.25 8.75 6.25 8.59375 6.25 8.515625 6.25 8.359375 6.25 8.28125 6.25 8.125 6.25 8.046875 6.25 7.929687 6.25 7.8125 6.25 7.695313 6.25 7.578125 6.25 7.460938 6.25 7.382812 6.25 7.226562 6.25 7.148438 6.25 7.03125 6.25 6.914062 6.25 6.796876 6.25 6.679687 6.25 6.601563 6.25 6.445312 6.25 6.367188 6.25 6.25 6.25 6.171874 6.25 6.015626 6.25 5.9375 6.25 5.820312 6.25 5.742188 6.25 5.585937 6.25 5.507813 6.25 5.429687 6.25 5.273437 6.25 5.195313 6.25 5.078125 6.25 4.960938 6.25 4.882812 6.25 4.765625 6.25 4.648437 6.25 4.570313 6.25 4.453125 6.25 4.375 6.25 4.257812 6.25 4.140626 6.25 4.0625 6.25 3.945312 6.25 3.867188 6.25 3.75 6.25 3.632812 6.25 3.554688 6.25 3.4375 6.25 3.359374 6.25 3.242188 6.25 3.164062 6.25 3.085938 6.25 2.96875 6.25 2.851562 6.25 2.773438 6.25 2.65625 6.25 2.578125 6.25 2.5 6.25 2.382813 6.25 2.304687 6.25 2.1875 6.25 2.109375 6.25 2.03125 6.25 1.914062 6.25 1.835938 6.25 1.71875 6.25 1.640625 6.25 1.5625 6.25 1.445313 6.25 1.367187 6.25 1.328125 6.25 1.171875 6.25 1.09375 6.25 1.054687 6.25.898438 6.25.859375 6.25.742187 6.25.703126 6.25.585937 6.25.46875 6.25.429687 6.25.3125 6.25.273438 6.25.15625 6.25.078125h6.25l6.25-.078125 6.25-.195312 6.25-.234376 6.25-.351562 6.25-.390625 6.25-.507813 6.25-.546874 6.25-.664063 6.25-.742187 6.25-.78125 6.25-.898438 6.25-.9375 6.25-1.054688 6.25-1.09375 6.25-1.210937 6.25-1.25 6.25-1.328125 6.25-1.40625 6.25-1.484375 6.25-1.5625 6.25-1.640625 6.25-1.679688 6.25-1.796874 6.25-1.835938 6.25-1.914062 6.25-1.953126 6.25-2.03125 6.25-2.148437 6.25-2.1875 6.25-2.226563 6.25-2.304687 12.5-4.84375 6.25-2.539063 6.25-2.578124 6.25-2.617188 6.25-2.734375 6.25-2.773437 6.25-2.8125 6.25-2.890626 6.25-2.96875 6.25-3.007812 6.25-3.085938 6.25-3.125 6.25-3.203124 6.25-3.242188 6.25-3.320312 6.25-3.359376 6.25-3.398437 12.5-7.03125 6.25-3.59375 6.25-3.632813 6.25-3.710937 6.25-3.75 6.25-3.789063 6.25-3.828124 6.25-3.90625 6.25-3.945313 6.25-4.023437 6.25-4.0625 6.25-4.101563 6.25-4.140625 6.25-4.179688 12.5-8.515624 6.25-4.335938 6.25-4.375 12.5-8.90625 6.25-4.492188 12.5-9.140624L1423.75 1145l12.5-9.375 6.25-4.765625L1455 1121.25l12.5-9.765625 12.5-9.921875 6.25-5 6.25-5.039062 6.25-5.078126 6.25-5.117187 12.5-10.3125 6.25-5.195313 6.25-5.234374 12.5-10.546876 6.25-5.3125 6.25-5.351562 12.5-10.78125 6.25-5.429688 18.75-16.40625 6.25-5.546874 6.25-5.507813 18.75-16.757813 6.25-5.625 18.75-16.992187L1655 950.625l6.25-5.742188 6.25-5.703124 6.25-5.742188 6.25-5.78125 6.25-5.742188 6.25-5.820312 6.25-5.78125 18.75-17.460938 6.25-5.859374 6.25-5.820313 12.5-11.71875 6.25-5.898437 6.25-5.859376 31.25-29.492187 6.25-5.9375 18.75-17.695313 6.25-5.9375 12.5-11.796874 6.25-5.9375 37.5-35.390626 12.5-11.71875 6.25-5.898437 6.25-5.820313 12.5-11.71875 18.75-17.460937 18.75-17.34375 18.75-17.226563 18.75-17.109374 6.25-5.664063 6.25-5.625 6.25-5.664063L2023.75 607.5l12.5-11.09375 6.25-5.507812 12.5-10.9375 12.5-10.859376 6.25-5.390624 12.5-10.703126 12.5-10.625 6.25-5.234374 6.25-5.273438 6.25-5.195312 12.5-10.3125 12.5-10.234376 12.5-10.078124 6.25-5 6.25-4.960938 6.25-4.921875 12.5-9.765625 6.25-4.84375 12.5-9.53125 6.25-4.726562 6.25-4.6875 6.25-4.648438 12.5-9.21875 6.25-4.53125 6.25-4.492188 6.25-4.453124 12.5-8.828126 6.25-4.335937 6.25-4.296875 6.25-4.257812 6.25-4.21875 6.25-4.179688 6.25-4.140625 12.5-8.125 6.25-4.023437 6.25-3.945313 6.25-3.90625 6.25-3.867187 6.25-3.828126 6.25-3.789062 6.25-3.75 12.5-7.34375 6.25-3.59375 12.5-7.03125 6.25-3.4375 6.25-3.398438 6.25-3.359374 6.25-3.320313 6.25-3.242187 6.25-3.203126 6.25-3.164062 12.5-6.171875 12.5-5.9375 6.25-2.890625 6.25-2.851562 6.25-2.8125 6.25-2.734376 6.25-2.695312 6.25-2.617188 6.25-2.578124 6.25-2.539063 6.25-2.460937 6.25-2.421876 6.25-2.382812 6.25-2.304688 6.25-2.265624 6.25-2.1875 6.25-2.148438 12.5-4.140625 6.25-1.953125 6.25-1.914062 6.25-1.875 6.25-1.835938 12.5-3.4375 6.25-1.640625 6.25-1.5625 6.25-1.523437 6.25-1.445313 6.25-1.40625 6.25-1.367187 6.25-1.289063 6.25-1.210937 6.25-1.171876 6.25-1.132812 6.25-1.054688L2680 228.75l6.25-.9375 6.25-.898438 6.25-.820312 6.25-.742188 6.25-.703124 6.25-.625 6.25-.585938 6.25-.546875 12.5-.859375 6.25-.3125 6.25-.273438 6.25-.234374 6.25-.15625 6.25-.117188 6.25-.039062 6.25.039062 6.25.078125 6.25.15625 6.25.195313 6.25.273437 6.25.3125 6.25.390625 6.25.429688 6.25.507812 6.25.585938 6.25.625 6.25.664062 6.25.742188 6.25.820312 6.25.859375 6.25.9375 6.25.976563 6.25 1.054687 6.25 1.09375 6.25 1.171875 6.25 1.25 6.25 1.289062 6.25 1.328126 6.25 1.40625 6.25 1.484374 6.25 1.523438 6.25 1.601562 6.25 1.640626 6.25 1.679687 12.5 3.59375 12.5 3.828125 6.25 1.992188 6.25 2.070312 6.25 2.109375 6.25 2.1875 6.25 2.226563 6.25 2.304687 6.25 2.34375 6.25 2.382813 6.25 2.460937 6.25 2.539063 6.25 2.578124 6.25 2.617188 6.25 2.695312 6.25 2.734376 6.25 2.8125 6.25 2.851562 6.25 2.929688 6.25 2.96875L3105 301.25l6.25 3.085938 6.25 3.125 6.25 3.203124 6.25 3.242188 6.25 3.28125 6.25 3.359375 6.25 3.398437 6.25 3.4375 6.25 3.515626 6.25 3.554687 12.5 7.265625 12.5 7.5 6.25 3.828125 6.25 3.867187 12.5 7.890626 6.25 4.023437 6.25 4.0625 6.25 4.140625 12.5 8.359375 12.5 8.59375 6.25 4.375 6.25 4.414063 6.25 4.453124 6.25 4.492188 6.25 4.53125 6.25 4.609375 6.25 4.648437 6.25 4.6875 6.25 4.726563 6.25 4.765625 6.25 4.804688 12.5 9.765624 6.25 4.960938 12.5 10 6.25 5.078125 6.25 5.117187 6.25 5.15625 6.25 5.195313L3392.5 495l6.25 5.273438 6.25 5.3125 6.25 5.351562 6.25 5.390625L3430 527.1875l6.25 5.507812 6.25 5.546876 12.5 11.171874 12.5 11.328126 6.25 5.703124 6.25 5.742188 6.25 5.78125 12.5 11.640625 6.25 5.859375 18.75 17.8125 6.25 6.015625" style="fill:none;stroke-width:12.5;stroke-linecap:round;stroke:#8b0000;stroke-miterlimit:10;transform:matrix(.1,0,0,-.1,0,275)"/></g><style>.a{fill:none;stroke:#bfbfbf;stroke-dasharray:12.5,18.75;stroke-linecap:round;stroke-miterlimit:10;stroke-width:6.25;transform:matrix(.1,0,0,-.1,0,275)}.b{fill:none;stroke:#000;stroke-miterlimit:10;transform:matrix(.1,0,0,-.1,0,275)}.c{stroke-linecap:square;stroke-width:12.5}.d{stroke-width:6.25}.e{fill:none;stroke:#bfbfbf;stroke-linecap:round;stroke-miterlimit:10;stroke-width:6.25;transform:matrix(.1,0,0,-.1,0,275)}</style></svg>