<svg xmlns="http://www.w3.org/2000/svg" width="322pt" height="245pt" viewBox="0 0 322 245"><defs><clipPath id="h"><use href="#a"/></clipPath><clipPath id="i"><path d="M1 122h320v2H1zm0 0"/></clipPath><clipPath id="j"><path d="M1 1.6602h1v242.25H1zm0 0"/></clipPath><clipPath id="k"><path d="M80 1.6602h2v242.25h-2zm0 0"/></clipPath><clipPath id="l"><use href="#a"/></clipPath><clipPath id="m"><path d="M240 1.6602h2v242.25h-2zm0 0"/></clipPath><clipPath id="n"><path d="M320 1.6602h1v242.25h-1zm0 0"/></clipPath><clipPath id="o"><path d="M1 243h320v.9102H1zm0 0"/></clipPath><clipPath id="p"><path d="M1 183h320v1H1zm0 0"/></clipPath><clipPath id="q"><path d="M1 122h320v2H1zm0 0"/></clipPath><clipPath id="r"><path d="M1 61h320v2H1zm0 0"/></clipPath><clipPath id="s"><path d="M1 1.6602h320V2H1zm0 0"/></clipPath><path id="a" d="M160 1.6602h2v242.25h-2zm0 0"/><path id="b" d="M1997.5031-211.1628v-2425.5368"/><path id="c" d="M399.5006-1423.9312h3196.005"/><path id="d" d="M399.5006-211.1628v-2425.5368"/><path id="e" d="M3595.5056-211.1628v-2425.5368"/><path id="f" d="M399.5006-211.1628h3196.005"/><path id="g" d="M399.5006-2636.6996h3196.005"/></defs><path fill="#fff" d="M1 243.9102h320V1.6602H1zm0 0"/><g clip-path="url(#h)"><use href="#b" class="d"/></g><g clip-path="url(#i)"><use href="#c" class="d"/></g><g clip-path="url(#j)"><use href="#d" class="a"/></g><g clip-path="url(#k)"><path d="M1198.501873-211.162813v-2425.536772" class="a"/></g><g clip-path="url(#l)"><use href="#b" class="a"/></g><g clip-path="url(#m)"><path d="M2796.50437-211.162813v-2425.536772" class="a"/></g><g clip-path="url(#n)"><use href="#e" class="a"/></g><g clip-path="url(#o)"><use href="#f" class="a"/></g><g clip-path="url(#p)"><path d="M399.500624-817.547006h3196.004994" class="a"/></g><g clip-path="url(#q)"><use href="#c" class="a"/></g><g clip-path="url(#r)"><path d="M399.500624-2030.315392h3196.004994" class="a"/></g><g clip-path="url(#s)"><use href="#g" class="a"/></g><g fill="none" stroke-miterlimit="10" transform="matrix(.100125 0 0 .0998748 -39 265)"><g stroke="#000"><use href="#f" class="b"/><g class="c"><path d="M399.500624-211.162813v-45.643083"/><path d="M399.500624-211.162813v-22.841097"/><path d="M479.400749-211.162813v-22.841097"/><path d="M559.300874-211.162813v-22.841097"/><path d="M639.200999-211.162813v-22.841097"/><path d="M719.101124-211.162813v-22.841097"/><path d="M799.001248-211.162813v-22.841097"/><path d="M878.901373-211.162813v-22.841097"/><path d="M958.801498-211.162813v-22.841097"/><path d="M1038.701623-211.162813v-22.841097"/><path d="M1198.501873-211.162813v-45.643083"/><path d="M1198.501873-211.162813v-22.841097"/><path d="M1278.401998-211.162813v-22.841097"/><path d="M1358.302122-211.162813v-22.841097"/><path d="M1438.202247-211.162813v-22.841097"/><path d="M1518.102372-211.162813v-22.841097"/><path d="M1598.002497-211.162813v-22.841097"/><path d="M1677.902622-211.162813v-22.841097"/><path d="M1757.802747-211.162813v-22.841097"/><path d="M1837.702871-211.162813v-22.841097"/><path d="M1997.503121-211.162813v-45.643083"/><path d="M1997.503121-211.162813v-22.841097"/><path d="M2077.403246-211.162813v-22.841097"/><path d="M2157.303371-211.162813v-22.841097"/><path d="M2237.203496-211.162813v-22.841097"/><path d="M2317.10362-211.162813v-22.841097"/><path d="M2397.003745-211.162813v-22.841097"/><path d="M2476.90387-211.162813v-22.841097"/><path d="M2556.803995-211.162813v-22.841097"/><path d="M2636.70412-211.162813v-22.841097"/><path d="M2796.50437-211.162813v-45.643083"/><path d="M2796.50437-211.162813v-22.841097"/><path d="M2876.404494-211.162813v-22.841097"/><path d="M2956.304619-211.162813v-22.841097"/><path d="M3036.204744-211.162813v-22.841097"/><path d="M3116.104869-211.162813v-22.841097"/><path d="M3196.004994-211.162813v-22.841097"/><path d="M3275.905119-211.162813v-22.841097"/><path d="M3355.805243-211.162813v-22.841097"/><path d="M3435.705368-211.162813v-22.841097"/><path d="M3595.505618-211.162813v-45.643083"/><path d="M3595.505618-211.162813v-22.841097"/></g><use href="#g" class="b"/><g class="c"><path d="M399.500624-2636.699585v45.643082"/><path d="M399.500624-2636.699585v22.841097"/><path d="M479.400749-2636.699585v22.841097"/><path d="M559.300874-2636.699585v22.841097"/><path d="M639.200999-2636.699585v22.841097"/><path d="M719.101124-2636.699585v22.841097"/><path d="M799.001248-2636.699585v22.841097"/><path d="M878.901373-2636.699585v22.841097"/><path d="M958.801498-2636.699585v22.841097"/><path d="M1038.701623-2636.699585v22.841097"/><path d="M1198.501873-2636.699585v45.643082"/><path d="M1198.501873-2636.699585v22.841097"/><path d="M1278.401998-2636.699585v22.841097"/><path d="M1358.302122-2636.699585v22.841097"/><path d="M1438.202247-2636.699585v22.841097"/><path d="M1518.102372-2636.699585v22.841097"/><path d="M1598.002497-2636.699585v22.841097"/><path d="M1677.902622-2636.699585v22.841097"/><path d="M1757.802747-2636.699585v22.841097"/><path d="M1837.702871-2636.699585v22.841097"/><path d="M1997.503121-2636.699585v45.643082"/><path d="M1997.503121-2636.699585v22.841097"/><path d="M2077.403246-2636.699585v22.841097"/><path d="M2157.303371-2636.699585v22.841097"/><path d="M2237.203496-2636.699585v22.841097"/><path d="M2317.10362-2636.699585v22.841097"/><path d="M2397.003745-2636.699585v22.841097"/><path d="M2476.90387-2636.699585v22.841097"/><path d="M2556.803995-2636.699585v22.841097"/><path d="M2636.70412-2636.699585v22.841097"/><path d="M2796.50437-2636.699585v45.643082"/><path d="M2796.50437-2636.699585v22.841097"/><path d="M2876.404494-2636.699585v22.841097"/><path d="M2956.304619-2636.699585v22.841097"/><path d="M3036.204744-2636.699585v22.841097"/><path d="M3116.104869-2636.699585v22.841097"/><path d="M3196.004994-2636.699585v22.841097"/><path d="M3275.905119-2636.699585v22.841097"/><path d="M3355.805243-2636.699585v22.841097"/><path d="M3435.705368-2636.699585v22.841097"/><path d="M3595.505618-2636.699585v45.643082"/><path d="M3595.505618-2636.699585v22.841097"/></g><use href="#d" class="b"/><g class="c"><path d="M399.500624-211.162813h45.646068"/><path d="M399.500624-211.162813h22.823034"/><path d="M399.500624-271.785588h22.823034"/><path d="M399.500624-332.447474h22.823034"/><path d="M399.500624-393.070249h22.823034"/><path d="M399.500624-453.732135h22.823034"/><path d="M399.500624-514.35491h22.823034"/><path d="M399.500624-574.977685h22.823034"/><path d="M399.500624-635.639571h22.823034"/><path d="M399.500624-696.262345h22.823034"/><path d="M399.500624-817.547006h45.646068"/><path d="M399.500624-817.547006h22.823034"/><path d="M399.500624-878.169781h22.823034"/><path d="M399.500624-938.831667h22.823034"/><path d="M399.500624-999.454442h22.823034"/><path d="M399.500624-1060.116328h22.823034"/><path d="M399.500624-1120.739103h22.823034"/><path d="M399.500624-1181.361878h22.823034"/><path d="M399.500624-1242.023764h22.823034"/><path d="M399.500624-1302.646538h22.823034"/><path d="M399.500624-1423.931199h45.646068"/><path d="M399.500624-1423.931199h22.823034"/><path d="M399.500624-1484.553974h22.823034"/><path d="M399.500624-1545.21586h22.823034"/><path d="M399.500624-1605.838635h22.823034"/><path d="M399.500624-1666.46141h22.823034"/><path d="M399.500624-1727.123296h22.823034"/><path d="M399.500624-1787.746071h22.823034"/><path d="M399.500624-1848.407957h22.823034"/><path d="M399.500624-1909.030731h22.823034"/><path d="M399.500624-2030.315392h45.646068"/><path d="M399.500624-2030.315392h22.823034"/><path d="M399.500624-2090.938167h22.823034"/><path d="M399.500624-2151.600053h22.823034"/><path d="M399.500624-2212.222828h22.823034"/><path d="M399.500624-2272.884714h22.823034"/><path d="M399.500624-2333.507489h22.823034"/><path d="M399.500624-2394.169375h22.823034"/><path d="M399.500624-2454.79215h22.823034"/><path d="M399.500624-2515.414924h22.823034"/><path d="M399.500624-2636.699585h45.646068"/><path d="M399.500624-2636.699585h22.823034"/></g><use href="#e" class="b"/><g class="c"><path d="M3595.505618-211.162813h-45.685081"/><path d="M3595.505618-211.162813h-22.823034"/><path d="M3595.505618-271.785588h-22.823034"/><path d="M3595.505618-332.447474h-22.823034"/><path d="M3595.505618-393.070249h-22.823034"/><path d="M3595.505618-453.732135h-22.823034"/><path d="M3595.505618-514.35491h-22.823034"/><path d="M3595.505618-574.977685h-22.823034"/><path d="M3595.505618-635.639571h-22.823034"/><path d="M3595.505618-696.262345h-22.823034"/><path d="M3595.505618-817.547006h-45.685081"/><path d="M3595.505618-817.547006h-22.823034"/><path d="M3595.505618-878.169781h-22.823034"/><path d="M3595.505618-938.831667h-22.823034"/><path d="M3595.505618-999.454442h-22.823034"/><path d="M3595.505618-1060.116328h-22.823034"/><path d="M3595.505618-1120.739103h-22.823034"/><path d="M3595.505618-1181.361878h-22.823034"/><path d="M3595.505618-1242.023764h-22.823034"/><path d="M3595.505618-1302.646538h-22.823034"/><path d="M3595.505618-1423.931199h-45.685081"/><path d="M3595.505618-1423.931199h-22.823034"/><path d="M3595.505618-1484.553974h-22.823034"/><path d="M3595.505618-1545.21586h-22.823034"/><path d="M3595.505618-1605.838635h-22.823034"/><path d="M3595.505618-1666.46141h-22.823034"/><path d="M3595.505618-1727.123296h-22.823034"/><path d="M3595.505618-1787.746071h-22.823034"/><path d="M3595.505618-1848.407957h-22.823034"/><path d="M3595.505618-1909.030731h-22.823034"/><path d="M3595.505618-2030.315392h-45.685081"/><path d="M3595.505618-2030.315392h-22.823034"/><path d="M3595.505618-2090.938167h-22.823034"/><path d="M3595.505618-2151.600053h-22.823034"/><path d="M3595.505618-2212.222828h-22.823034"/><path d="M3595.505618-2272.884714h-22.823034"/><path d="M3595.505618-2333.507489h-22.823034"/><path d="M3595.505618-2394.169375h-22.823034"/><path d="M3595.505618-2454.79215h-22.823034"/><path d="M3595.505618-2515.414924h-22.823034"/><path d="M3595.505618-2636.699585h-45.685081"/><path d="M3595.505618-2636.699585h-22.823034"/></g></g><g stroke-width="11.4143" stroke-linecap="round" stroke="#00f"><path d="M461.337391-258.096574l166.861735-126.642932"/><path d="M611.267166-350.399638l16.93196-34.339868-37.609238 7.079175"/><path d="M461.337391-501.409014l166.861735-81.038961"/><path d="M604.868914-552.097476l23.330212-30.350499-38.272472-.430226"/><path d="M461.337391-739.636963l166.861735-45.56486"/><path d="M599.680087-759.662034l28.519039-25.539789-37.531211-7.509401"/><path d="M461.337391-972.780421l166.861735-20.25974"/><path d="M596.285893-971.919969l31.913233-21.120192-36.048689-12.867673"/><path d="M461.337391-1200.917611l166.861735-5.04538"/><path d="M594.491261-1187.81527l33.707865-18.147721-34.761236-16.074813"/><path d="M461.337391-1423.931199h166.861735"/><path d="M593.945069-1406.800377l34.254057-17.130822-34.254057-17.130823"/><path d="M461.337391-1641.899408l166.861735-5.084491"/><path d="M594.491261-1628.797066l33.707865-18.186833-34.761236-16.074813"/><path d="M461.337391-1854.822237l166.861735-20.259741"/><path d="M596.285893-1853.922674l31.913233-21.159304-36.048689-12.867672"/><path d="M461.337391-2062.660576l166.861735-45.56486"/><path d="M599.680087-2082.685647l28.519039-25.539789-37.531211-7.509402"/><path d="M461.337391-2265.414424l166.861735-81.038961"/><path d="M604.868914-2316.102886l23.330212-30.350499-38.272472-.469337"/><path d="M461.337391-2463.122892l166.861735-126.642932"/><path d="M611.267166-2555.425956l16.93196-34.339868-37.609238 7.040064"/><path d="M781.913233-258.096574l106.819601-126.642932"/><path d="M879.720662-347.505389l9.012172-37.234117-35.190387 15.136138"/><path d="M781.913233-501.409014l106.819601-81.038961"/><path d="M871.800874-548.108106l16.93196-34.339869-37.648252 7.079176"/><path d="M781.913233-739.636963l106.819601-45.56486"/><path d="M863.959114-756.024668l24.77372-29.177155-38.233458-2.307576"/><path d="M781.913233-972.780421l106.819601-20.25974"/><path d="M858.263109-969.847061l30.469725-23.1931-36.867978-10.442762"/><path d="M781.913233-1200.917611l106.819601-5.04538"/><path d="M855.337079-1187.228598l33.395755-18.734393-35.034332-15.488141"/><path d="M781.913233-1423.931199h106.819601"/><path d="M854.478777-1406.800377l34.254057-17.130822-34.254057-17.130823"/><path d="M781.913233-1641.899408l106.819601-5.084491"/><path d="M855.337079-1628.249506l33.395755-18.734393-35.034332-15.44903"/><path d="M781.913233-1854.822237l106.819601-20.259741"/><path d="M858.263109-1851.888877l30.469725-23.193101-36.867978-10.442761"/><path d="M781.913233-2062.660576l106.819601-45.56486"/><path d="M863.959114-2079.048281l24.77372-29.177155-38.233458-2.307576"/><path d="M781.913233-2265.414424l106.819601-81.038961"/><path d="M871.800874-2312.113516l16.93196-34.339869-37.648252 7.040065"/><path d="M781.913233-2463.122892l106.819601-126.642932"/><path d="M879.720662-2552.570819l9.012172-37.195005-35.190387 15.136138"/><path d="M1095.817728-258.096574l60.081148-126.642932"/><path d="M1156.718165-346.44938l-.819289-38.290126-30.157615 23.584215"/><path d="M1095.817728-501.409014l60.081148-81.038961"/><path d="M1149.266542-544.74452l6.632334-37.703455-34.137016 17.32638"/><path d="M1095.817728-739.636963l60.081148-45.56486"/><path d="M1138.966916-750.861954l16.93196-34.339869-37.648252 7.040064"/><path d="M1095.817728-972.780421l60.081148-20.25974"/><path d="M1128.940387-965.896803l26.958489-27.143358-37.921348-5.280048"/><path d="M1095.817728-1200.917611l60.081148-5.04538"/><path d="M1123.205368-1186.016142l32.693508-19.946849-35.54151-14.197462"/><path d="M1095.817728-1423.931199h60.081148"/><path d="M1121.644819-1406.800377l34.254057-17.130822-34.254057-17.130823"/><path d="M1095.817728-1641.899408l60.081148-5.084491"/><path d="M1123.205368-1627.03705l32.693508-19.946849-35.54151-14.158351"/><path d="M1095.817728-1854.822237l60.081148-20.259741"/><path d="M1128.940387-1847.899508l26.958489-27.18247-37.921348-5.280048"/><path d="M1095.817728-2062.660576l60.081148-45.56486"/><path d="M1138.966916-2073.885567l16.93196-34.339869-37.648252 7.040064"/><path d="M1095.817728-2265.414424l60.081148-81.038961"/><path d="M1149.266542-2308.789041l6.632334-37.664344-34.137016 17.287269"/><path d="M1095.817728-2463.122892l60.081148-126.642932"/><path d="M1156.718165-2551.475698l-.819289-38.290126-30.157615 23.584215"/><path d="M1403.050874-258.096574l26.724407-126.642932"/><path d="M1439.450687-347.700947l-9.675406-37.038559-23.837391 29.959384"/><path d="M1403.050874-501.409014l26.724407-81.038961"/><path d="M1435.315231-544.548963l-5.53995-37.899012-26.997503 27.18247"/><path d="M1403.050874-739.636963l26.724407-45.56486"/><path d="M1427.239388-747.02903l2.535893-38.172793-32.108302 20.885524"/><path d="M1403.050874-972.780421l26.724407-20.25974"/><path d="M1412.843321-958.700293l16.93196-34.339868-37.648252 7.040064"/><path d="M1403.050874-1200.917611l26.724407-5.04538"/><path d="M1399.305556-1182.76989l30.469725-23.193101-36.867978-10.442762"/><path d="M1403.050874-1423.931199h26.724407"/><path d="M1395.521223-1406.800377l34.254058-17.130822-34.254058-17.130823"/><path d="M1403.050874-1641.899408l26.724407-5.084491"/><path d="M1399.305556-1623.751687l30.469725-23.232212-36.867978-10.442762"/><path d="M1403.050874-1854.822237l26.724407-20.259741"/><path d="M1412.843321-1840.742109l16.93196-34.339869-37.648252 7.079176"/><path d="M1403.050874-2062.660576l26.724407-45.56486"/><path d="M1427.239388-2070.052643l2.535893-38.172793-32.108302 20.885524"/><path d="M1403.050874-2265.414424l26.724407-81.038961"/><path d="M1435.315231-2308.593484l-5.53995-37.859901-26.997503 27.143359"/><path d="M1403.050874-2463.122892l26.724407-126.642932"/><path d="M1439.450687-2552.727265l-9.675406-37.038559-23.837391 29.959384"/><path d="M1703.612672-258.096574l6.671348-126.642932"/><path d="M1725.577403-349.65652l-15.293383-35.082986-18.882647 33.283859"/><path d="M1703.612672-501.409014l6.671348-81.038961"/><path d="M1724.524032-546.895651l-14.240012-35.552324-19.85799 32.736298"/><path d="M1703.612672-739.636963l6.671348-45.56486"/><path d="M1722.261236-748.867269l-11.977216-36.334554-21.886704 31.367397"/><path d="M1703.612672-972.780421l6.671348-20.25974"/><path d="M1715.82397-955.180261l-5.53995-37.8599-26.958489 27.143358"/><path d="M1703.612672-1200.917611l6.671348-5.04538"/><path d="M1693.35206-1171.623122l16.93196-34.339869-37.609238 7.079176"/><path d="M1703.612672-1423.931199h6.671348"/><path d="M1676.068976-1406.800377l34.215044-17.130822-34.215044-17.130823"/><path d="M1703.612672-1641.899408l6.671348-5.084491"/><path d="M1693.35206-1612.64403l16.93196-34.339869-37.609238 7.079176"/><path d="M1703.612672-1854.822237l6.671348-20.259741"/><path d="M1715.82397-1837.182966l-5.53995-37.899012-26.958489 27.18247"/><path d="M1703.612672-2062.660576l6.671348-45.56486"/><path d="M1722.261236-2071.890882l-11.977216-36.334554-21.886704 31.406509"/><path d="M1703.612672-2265.414424l6.671348-81.038961"/><path d="M1724.524032-2310.940172l-14.240012-35.513213-19.85799 32.697187"/><path d="M1703.612672-2463.122892l6.671348-126.642932"/><path d="M1725.577403-2554.682838l-15.293383-35.082986-18.882647 33.283859"/><path d="M1997.503121-258.096574v-126.642932"/><path d="M2014.63015-350.477861l-17.127029-34.261645-17.127029 34.261645"/><path d="M1997.503121-501.409014v-81.038961"/><path d="M2014.63015-548.186329l-17.127029-34.261646-17.127029 34.261646"/><path d="M1997.503121-739.636963v-45.56486"/><path d="M2014.63015-750.979289l-17.127029-34.222534-17.127029 34.222534"/><path d="M1997.503121-972.780421v-20.25974"/><path d="M2014.63015-958.817627l-17.127029-34.222534-17.127029 34.222534"/><path d="M1997.503121-1200.917611v-5.04538"/><path d="M2014.63015-1171.701345l-17.127029-34.261646-17.127029 34.261646"/><path d="M1997.503121-1641.899408v-5.084491"/><path d="M2014.63015-1612.722253l-17.127029-34.261646-17.127029 34.261646"/><path d="M1997.503121-1854.822237v-20.259741"/><path d="M2014.63015-1840.820332l-17.127029-34.261646-17.127029 34.261646"/><path d="M1997.503121-2062.660576v-45.56486"/><path d="M2014.63015-2074.002902l-17.127029-34.222534-17.127029 34.222534"/><path d="M1997.503121-2265.414424v-81.038961"/><path d="M2014.63015-2312.230851l-17.127029-34.222534-17.127029 34.222534"/><path d="M1997.503121-2463.122892v-126.642932"/><path d="M2014.63015-2555.54329l-17.127029-34.222534-17.127029 34.222534"/><path d="M2284.722222-258.096574l6.671349-126.642932"/><path d="M2306.686954-349.65652l-15.293383-35.082986-18.921661 33.283859"/><path d="M2284.722222-501.409014l6.671349-81.038961"/><path d="M2305.633583-546.895651l-14.240012-35.552324-19.897004 32.736298"/><path d="M2284.722222-739.636963l6.671349-45.56486"/><path d="M2303.370787-748.867269l-11.977216-36.334554-21.925718 31.367397"/><path d="M2284.722222-972.780421l6.671349-20.25974"/><path d="M2296.933521-955.180261l-5.53995-37.8599-26.997504 27.143358"/><path d="M2284.722222-1200.917611l6.671349-5.04538"/><path d="M2274.46161-1171.623122l16.931961-34.339869-37.648253 7.079176"/><path d="M2284.722222-1423.931199h6.671349"/><path d="M2257.139513-1406.800377l34.254058-17.130822-34.254058-17.130823"/><path d="M2284.722222-1641.899408l6.671349-5.084491"/><path d="M2274.46161-1612.64403l16.931961-34.339869-37.648253 7.079176"/><path d="M2284.722222-1854.822237l6.671349-20.259741"/><path d="M2296.933521-1837.182966l-5.53995-37.899012-26.997504 27.18247"/><path d="M2284.722222-2062.660576l6.671349-45.56486"/><path d="M2303.370787-2071.890882l-11.977216-36.334554-21.925718 31.406509"/><path d="M2284.722222-2265.414424l6.671349-81.038961"/><path d="M2305.633583-2310.940172l-14.240012-35.513213-19.897004 32.697187"/><path d="M2284.722222-2463.122892l6.671349-126.642932"/><path d="M2306.686954-2554.682838l-15.293383-35.082986-18.921661 33.283859"/><path d="M2565.230961-258.096574l26.724407-126.642932"/><path d="M2601.630774-347.700947l-9.675406-37.038559-23.83739 29.959384"/><path d="M2565.230961-501.409014l26.724407-81.038961"/><path d="M2597.495318-544.548963l-5.53995-37.899012-26.997503 27.18247"/><path d="M2565.230961-739.636963l26.724407-45.56486"/><path d="M2589.419476-747.02903l2.535892-38.172793-32.108302 20.885524"/><path d="M2565.230961-972.780421l26.724407-20.25974"/><path d="M2575.023408-958.700293l16.93196-34.339868-37.648252 7.040064"/><path d="M2565.230961-1200.917611l26.724407-5.04538"/><path d="M2561.485643-1182.76989l30.469725-23.193101-36.828964-10.442762"/><path d="M2565.230961-1423.931199h26.724407"/><path d="M2557.701311-1406.800377l34.254057-17.130822-34.254057-17.130823"/><path d="M2565.230961-1641.899408l26.724407-5.084491"/><path d="M2561.485643-1623.751687l30.469725-23.232212-36.828964-10.442762"/><path d="M2565.230961-1854.822237l26.724407-20.259741"/><path d="M2575.023408-1840.742109l16.93196-34.339869-37.648252 7.079176"/><path d="M2565.230961-2062.660576l26.724407-45.56486"/><path d="M2589.419476-2070.052643l2.535892-38.172793-32.108302 20.885524"/><path d="M2565.230961-2265.414424l26.724407-81.038961"/><path d="M2597.495318-2308.593484l-5.53995-37.859901-26.997503 27.143359"/><path d="M2565.230961-2463.122892l26.724407-126.642932"/><path d="M2601.630774-2552.727265l-9.675406-37.038559-23.83739 29.959384"/><path d="M2839.107366-258.096574l60.081148-126.642932"/><path d="M2899.968789-346.44938l-.780275-38.290126-30.157615 23.584215"/><path d="M2839.107366-501.409014l60.081148-81.038961"/><path d="M2892.55618-544.74452l6.632334-37.703455-34.17603 17.32638"/><path d="M2839.107366-739.636963l60.081148-45.56486"/><path d="M2882.256554-750.861954l16.93196-34.339869-37.648252 7.040064"/><path d="M2839.107366-972.780421l60.081148-20.25974"/><path d="M2872.191011-965.896803l26.997503-27.143358-37.921348-5.280048"/><path d="M2839.107366-1200.917611l60.081148-5.04538"/><path d="M2866.495006-1186.016142l32.693508-19.946849-35.580524-14.197462"/><path d="M2839.107366-1423.931199h60.081148"/><path d="M2864.934457-1406.800377l34.254057-17.130822-34.254057-17.130823"/><path d="M2839.107366-1641.899408l60.081148-5.084491"/><path d="M2866.495006-1627.03705l32.693508-19.946849-35.580524-14.158351"/><path d="M2839.107366-1854.822237l60.081148-20.259741"/><path d="M2872.191011-1847.899508l26.997503-27.18247-37.921348-5.280048"/><path d="M2839.107366-2062.660576l60.081148-45.56486"/><path d="M2882.256554-2073.885567l16.93196-34.339869-37.648252 7.040064"/><path d="M2839.107366-2265.414424l60.081148-81.038961"/><path d="M2892.55618-2308.789041l6.632334-37.664344-34.17603 17.287269"/><path d="M2839.107366-2463.122892l60.081148-126.642932"/><path d="M2899.968789-2551.475698l-.780275-38.290126-30.157615 23.584215"/><path d="M3106.273408-258.096574l106.819601-126.642932"/><path d="M3204.080836-347.505389l9.012173-37.234117-35.190387 15.136138"/><path d="M3106.273408-501.409014l106.819601-81.038961"/><path d="M3196.161049-548.108106l16.93196-34.339869-37.648252 7.079176"/><path d="M3106.273408-739.636963l106.819601-45.56486"/><path d="M3188.319288-756.024668l24.773721-29.177155-38.233458-2.307576"/><path d="M3106.273408-972.780421l106.819601-20.25974"/><path d="M3182.623283-969.847061l30.469726-23.1931-36.867978-10.442762"/><path d="M3106.273408-1200.917611l106.819601-5.04538"/><path d="M3179.697253-1187.228598l33.395756-18.734393-35.034332-15.488141"/><path d="M3106.273408-1423.931199h106.819601"/><path d="M3178.838951-1406.800377l34.254058-17.130822-34.254058-17.130823"/><path d="M3106.273408-1641.899408l106.819601-5.084491"/><path d="M3179.697253-1628.249506l33.395756-18.734393-35.034332-15.44903"/><path d="M3106.273408-1854.822237l106.819601-20.259741"/><path d="M3182.623283-1851.888877l30.469726-23.193101-36.867978-10.442761"/><path d="M3106.273408-2062.660576l106.819601-45.56486"/><path d="M3188.319288-2079.048281l24.773721-29.177155-38.233458-2.307576"/><path d="M3106.273408-2265.414424l106.819601-81.038961"/><path d="M3196.161049-2312.113516l16.93196-34.339869-37.648252 7.040065"/><path d="M3106.273408-2463.122892l106.819601-126.642932"/><path d="M3204.080836-2552.570819l9.012173-37.195005-35.190387 15.136138"/><path d="M3366.807116-258.096574l166.861735-126.642932"/><path d="M3516.736891-350.399638l16.93196-34.339868-37.648252 7.079175"/><path d="M3366.807116-501.409014l166.861735-81.038961"/><path d="M3510.338639-552.097476l23.330212-30.350499-38.272471-.430226"/><path d="M3366.807116-739.636963l166.861735-45.56486"/><path d="M3505.149813-759.662034l28.519038-25.539789-37.531211-7.509401"/><path d="M3366.807116-972.780421l166.861735-20.25974"/><path d="M3501.716604-971.919969l31.952247-21.120192-36.048689-12.867673"/><path d="M3366.807116-1200.917611l166.861735-5.04538"/><path d="M3499.960986-1187.81527l33.707865-18.147721-34.761236-16.074813"/><path d="M3366.807116-1423.931199h166.861735"/><path d="M3499.414794-1406.800377l34.254057-17.130822-34.254057-17.130823"/><path d="M3366.807116-1641.899408l166.861735-5.084491"/><path d="M3499.960986-1628.797066l33.707865-18.186833-34.761236-16.074813"/><path d="M3366.807116-1854.822237l166.861735-20.259741"/><path d="M3501.716604-1853.922674l31.952247-21.159304-36.048689-12.867672"/><path d="M3366.807116-2062.660576l166.861735-45.56486"/><path d="M3505.149813-2082.685647l28.519038-25.539789-37.531211-7.509402"/><path d="M3366.807116-2265.414424l166.861735-81.038961"/><path d="M3510.338639-2316.102886l23.330212-30.350499-38.272471-.469337"/><path d="M3366.807116-2463.122892l166.861735-126.642932"/><path d="M3516.736891-2555.425956l16.93196-34.339868-37.648252 7.040064"/></g></g><style>.a{fill:none;stroke:#bfbfbf;stroke-dasharray:11.4143,17.1214;stroke-linecap:round;stroke-miterlimit:10;stroke-width:5.70714;transform:matrix(.100125,0,0,.0998748,-39,265)}.b{stroke-linecap:square;stroke-width:11.4143}.c{stroke-width:5.70714}.d{fill:none;stroke:#bfbfbf;stroke-linecap:round;stroke-miterlimit:10;stroke-width:5.70714;transform:matrix(.100125,0,0,.0998748,-39,265)}</style></svg>