<svg xmlns="http://www.w3.org/2000/svg" width="366pt" height="275pt" viewBox="0 0 366 275"><defs><path d="M2.125-2.3437H.3438v.5469H2.125zm0 0" id="b"/><path d="M1.6563-2.4375h.3594c.734375 0 1.109375.328125 1.109375.953125C3.125-.8125 2.703125-.40625 2.015625-.40625 1.296875-.40625.9375-.765625.90625-1.546875H.2344C.265625-1.125.34375-.84375.46875-.59375.75-.09375 1.265625.171875 2 .171875c1.09375 0 1.796875-.65625 1.796875-1.65625 0-.671875-.265625-1.046875-.90625-1.265625.5-.203125.75-.578125.75-1.109375 0-.90625-.609375-1.453125-1.625-1.453125C.9375-5.3125.375-4.734375.359375-3.59375h.6563c0-.328125.03125-.515625.109375-.671875.15625-.296875.484375-.46875.90625-.46875.578125 0 .9375.34375.9375.90625 0 .375-.140625.59375-.4375.71875C2.359375-3.03125 2.125-3 1.65625-3zm0 0" id="c"/><path d="M3.7969-.6562H1c.0625-.4375.3125-.703125.953125-1.09375l.75-.4062c.75-.40625 1.125-.953125 1.125-1.59375 0-.453125-.171875-.859375-.484375-1.140625C3.015625-5.1875 2.625-5.3125 2.125-5.3125c-.671875 0-1.171875.234375-1.46875.6875-.1875.28125-.265625.609375-.28125 1.15625h.6563c.03125-.359375.078125-.578125.15625-.75.171875-.328125.515625-.515625.921875-.515625.59375 0 1.046875.421875 1.046875.984375 0 .421875-.25.78125-.71875 1.0625l-.6875.3906C.640625-1.671875.3125-1.171875.25 0h3.5469zm0 0" id="d"/><path d="M1.9375-3.7812V0h.6719v-5.3125h-.4375c-.2344.8125-.39065.921875-1.406275 1.046875v.4844zm0 0" id="e"/><path d="M2.0625-5.3125c-.5 0-.9375.21875-1.21875.578125C.5-4.265625.328125-3.5625.328125-2.578125c0 1.796875.59375 2.75 1.734375 2.75 1.125 0 1.734375-.953125 1.734375-2.703125 0-1.03125-.15625-1.71875-.515625-2.203125C3-5.109375 2.5625-5.3125 2.0625-5.3125zm0 .5781c.71875 0 1.0625.71875 1.0625 2.140625C3.125-1.078125 2.78125-.375 2.046875-.375 1.34375-.375 1-1.109375 1-2.5625c0-1.453125.34375-2.171875 1.0625-2.171875zm0 0" id="f"/><clipPath id="g"><path d="M182 9.5h2v255h-2zm0 0"/></clipPath><clipPath id="h"><use href="#a"/></clipPath><clipPath id="i"><path d="M13 9.5h1v255h-1zm0 0"/></clipPath><clipPath id="j"><path d="M69 9.5h1v255h-1zm0 0"/></clipPath><clipPath id="k"><path d="M126 9.5h1v255h-1zm0 0"/></clipPath><clipPath id="l"><path d="M182 9.5h2v255h-2zm0 0"/></clipPath><clipPath id="m"><path d="M239 9.5h1v255h-1zm0 0"/></clipPath><clipPath id="n"><path d="M296 9.5h1v255h-1zm0 0"/></clipPath><clipPath id="o"><path d="M352 9.5h1v255h-1zm0 0"/></clipPath><clipPath id="p"><path d="M13 264h340v.5H13zm0 0"/></clipPath><clipPath id="q"><path d="M13 221h340v2H13zm0 0"/></clipPath><clipPath id="r"><path d="M13 179h340v1H13zm0 0"/></clipPath><clipPath id="s"><use href="#a"/></clipPath><clipPath id="t"><path d="M13 94h340v1H13zm0 0"/></clipPath><clipPath id="u"><path d="M13 51h340v2H13zm0 0"/></clipPath><clipPath id="v"><path d="M13 9.5h340v.5H13zm0 0"/></clipPath><clipPath id="w"><use href="#a"/></clipPath><clipPath id="x"><path d="M13 9.5h340v255H13zm0 0"/></clipPath><clipPath id="y"><path d="M102 9.5h88V155h-88zm0 0"/></clipPath><clipPath id="z"><path d="M148 9.5h141V155H148zm0 0"/></clipPath><clipPath id="A"><path d="M13 119h183v130H13zm0 0"/></clipPath><clipPath id="B"><path d="M13 119h188v145.5H13zm0 0"/></clipPath><clipPath id="C"><path d="M13 136h171v2H13zm0 0"/></clipPath><clipPath id="D"><path d="M168 9.5h185V155H168zm0 0"/></clipPath><clipPath id="E"><path d="M23 119h183v145.5H23zm0 0"/></clipPath><clipPath id="F"><path d="M77 119h141v145.5H77zm0 0"/></clipPath><clipPath id="G"><path d="M176 119h88v145.5h-88zm0 0"/></clipPath><clipPath id="H"><path d="M170 9.5h183V151H170zm0 0"/></clipPath><clipPath id="I"><path d="M188 136h165v2H188zm0 0"/></clipPath><path id="a" d="M13 136h340v2H13zm0 0"/></defs><g clip-path="url(#g)"><path d="M1830 105v2550" class="f"/></g><g clip-path="url(#h)"><path d="M130 1380h3400" class="f"/></g><g clip-path="url(#i)"><path d="M130 105v2550" class="a"/></g><g clip-path="url(#j)"><path d="M696.679688 105v2550" class="a"/></g><g clip-path="url(#k)"><path d="M1263.320312 105v2550" class="a"/></g><g clip-path="url(#l)"><path d="M1830 105v2550" class="a"/></g><g clip-path="url(#m)"><path d="M2396.679688 105v2550" class="a"/></g><g clip-path="url(#n)"><path d="M2963.320312 105v2550" class="a"/></g><g clip-path="url(#o)"><path d="M3530 105v2550" class="a"/></g><g clip-path="url(#p)"><path d="M130 105h3400" class="a"/></g><g clip-path="url(#q)"><path d="M130 530h3400" class="a"/></g><g clip-path="url(#r)"><path d="M130 955h3400" class="a"/></g><g clip-path="url(#s)"><path d="M130 1380h3400" class="a"/></g><g clip-path="url(#t)"><path d="M130 1805h3400" class="a"/></g><g clip-path="url(#u)"><path d="M130 2230h3400" class="a"/></g><g clip-path="url(#v)"><path d="M130 2655h3400" class="a"/></g><g class="c"><path d="M130 105h3400" class="d"/><g class="e"><path d="M130 105v50"/><path d="M186.679688 105v25"/><path d="M243.320312 105v25"/><path d="M300 105v25"/><path d="M356.679688 105v25"/><path d="M413.320312 105v25"/><path d="M470 105v25"/><path d="M526.679688 105v25"/><path d="M583.320312 105v25"/><path d="M640 105v25"/><path d="M696.679688 105v50"/><path d="M753.320312 105v25"/><path d="M810 105v25"/><path d="M866.679688 105v25"/><path d="M923.320312 105v25"/><path d="M980 105v25"/><path d="M1036.679688 105v25"/><path d="M1093.320312 105v25"/><path d="M1150 105v25"/><path d="M1206.679688 105v25"/><path d="M1263.320312 105v50"/><path d="M1320 105v25"/><path d="M1376.679688 105v25"/><path d="M1433.320312 105v25"/><path d="M1490 105v25"/><path d="M1546.679688 105v25"/><path d="M1603.320312 105v25"/><path d="M1660 105v25"/><path d="M1716.679688 105v25"/><path d="M1773.320312 105v25"/><path d="M1830 105v50"/><path d="M1886.679688 105v25"/><path d="M1943.320312 105v25"/><path d="M2000 105v25"/><path d="M2056.679688 105v25"/><path d="M2113.320312 105v25"/><path d="M2170 105v25"/><path d="M2226.679688 105v25"/><path d="M2283.320312 105v25"/><path d="M2340 105v25"/><path d="M2396.679688 105v50"/><path d="M2453.320312 105v25"/><path d="M2510 105v25"/><path d="M2566.679688 105v25"/><path d="M2623.320312 105v25"/><path d="M2680 105v25"/><path d="M2736.679688 105v25"/><path d="M2793.320312 105v25"/><path d="M2850 105v25"/><path d="M2906.679688 105v25"/><path d="M2963.320312 105v50"/><path d="M3020 105v25"/><path d="M3076.679688 105v25"/><path d="M3133.320312 105v25"/><path d="M3190 105v25"/><path d="M3246.679688 105v25"/><path d="M3303.320312 105v25"/><path d="M3360 105v25"/><path d="M3416.679688 105v25"/><path d="M3473.320312 105v25"/><path d="M3530 105v50"/></g></g><use x="9.0418" y="274.5" href="#b"/><use x="11.5393" y="274.5" href="#c"/><use x="65.9168" y="274.5" href="#b"/><use x="68.4143" y="274.5" href="#d"/><use x="122.7918" y="274.5" href="#b"/><use x="125.2893" y="274.5" href="#e"/><use x="180.9152" y="274.5" href="#f"/><use x="237.1652" y="274.5" href="#e"/><use x="294.0402" y="274.5" href="#d"/><use x="350.9151" y="274.5" href="#c"/><g class="c"><path d="M130 2655h3400" class="d"/><g class="e"><path d="M130 2655v-50"/><path d="M186.679688 2655v-25"/><path d="M243.320312 2655v-25"/><path d="M300 2655v-25"/><path d="M356.679688 2655v-25"/><path d="M413.320312 2655v-25"/><path d="M470 2655v-25"/><path d="M526.679688 2655v-25"/><path d="M583.320312 2655v-25"/><path d="M640 2655v-25"/><path d="M696.679688 2655v-50"/><path d="M753.320312 2655v-25"/><path d="M810 2655v-25"/><path d="M866.679688 2655v-25"/><path d="M923.320312 2655v-25"/><path d="M980 2655v-25"/><path d="M1036.679688 2655v-25"/><path d="M1093.320312 2655v-25"/><path d="M1150 2655v-25"/><path d="M1206.679688 2655v-25"/><path d="M1263.320312 2655v-50"/><path d="M1320 2655v-25"/><path d="M1376.679688 2655v-25"/><path d="M1433.320312 2655v-25"/><path d="M1490 2655v-25"/><path d="M1546.679688 2655v-25"/><path d="M1603.320312 2655v-25"/><path d="M1660 2655v-25"/><path d="M1716.679688 2655v-25"/><path d="M1773.320312 2655v-25"/><path d="M1830 2655v-50"/><path d="M1886.679688 2655v-25"/><path d="M1943.320312 2655v-25"/><path d="M2000 2655v-25"/><path d="M2056.679688 2655v-25"/><path d="M2113.320312 2655v-25"/><path d="M2170 2655v-25"/><path d="M2226.679688 2655v-25"/><path d="M2283.320312 2655v-25"/><path d="M2340 2655v-25"/><path d="M2396.679688 2655v-50"/><path d="M2453.320312 2655v-25"/><path d="M2510 2655v-25"/><path d="M2566.679688 2655v-25"/><path d="M2623.320312 2655v-25"/><path d="M2680 2655v-25"/><path d="M2736.679688 2655v-25"/><path d="M2793.320312 2655v-25"/><path d="M2850 2655v-25"/><path d="M2906.679688 2655v-25"/><path d="M2963.320312 2655v-50"/><path d="M3020 2655v-25"/><path d="M3076.679688 2655v-25"/><path d="M3133.320312 2655v-25"/><path d="M3190 2655v-25"/><path d="M3246.679688 2655v-25"/><path d="M3303.320312 2655v-25"/><path d="M3360 2655v-25"/><path d="M3416.679688 2655v-25"/><path d="M3473.320312 2655v-25"/><path d="M3530 2655v-50"/></g></g><use x="9.0418" y="6.375" href="#b"/><use x="11.5393" y="6.375" href="#c"/><use x="65.9168" y="6.375" href="#b"/><use x="68.4143" y="6.375" href="#d"/><use x="122.7918" y="6.375" href="#b"/><use x="125.2893" y="6.375" href="#e"/><use x="180.9152" y="6.375" href="#f"/><use x="237.1652" y="6.375" href="#e"/><use x="294.0402" y="6.375" href="#d"/><use x="350.9151" y="6.375" href="#c"/><g class="c"><path d="M130 105v2550" class="d"/><g class="e"><path d="M130 105h50"/><path d="M130 147.5h25"/><path d="M130 190h25"/><path d="M130 232.5h25"/><path d="M130 275h25"/><path d="M130 317.5h25"/><path d="M130 360h25"/><path d="M130 402.5h25"/><path d="M130 445h25"/><path d="M130 487.5h25"/><path d="M130 530h50"/><path d="M130 572.5h25"/><path d="M130 615h25"/><path d="M130 657.5h25"/><path d="M130 700h25"/><path d="M130 742.5h25"/><path d="M130 785h25"/><path d="M130 827.5h25"/><path d="M130 870h25"/><path d="M130 912.5h25"/><path d="M130 955h50"/><path d="M130 997.5h25"/><path d="M130 1040h25"/><path d="M130 1082.5h25"/><path d="M130 1125h25"/><path d="M130 1167.5h25"/><path d="M130 1210h25"/><path d="M130 1252.5h25"/><path d="M130 1295h25"/><path d="M130 1337.5h25"/><path d="M130 1380h50"/><path d="M130 1422.5h25"/><path d="M130 1465h25"/><path d="M130 1507.5h25"/><path d="M130 1550h25"/><path d="M130 1592.5h25"/><path d="M130 1635h25"/><path d="M130 1677.5h25"/><path d="M130 1720h25"/><path d="M130 1762.5h25"/><path d="M130 1805h50"/><path d="M130 1847.5h25"/><path d="M130 1890h25"/><path d="M130 1932.5h25"/><path d="M130 1975h25"/><path d="M130 2017.5h25"/><path d="M130 2060h25"/><path d="M130 2102.5h25"/><path d="M130 2145h25"/><path d="M130 2187.5h25"/><path d="M130 2230h50"/><path d="M130 2272.5h25"/><path d="M130 2315h25"/><path d="M130 2357.5h25"/><path d="M130 2400h25"/><path d="M130 2442.5h25"/><path d="M130 2485h25"/><path d="M130 2527.5h25"/><path d="M130 2570h25"/><path d="M130 2612.5h25"/><path d="M130 2655h50"/></g></g><use x="-.5418" y="268.25" href="#b"/><use x="1.9557" y="268.25" href="#c"/><use x="-.5418" y="225.125" href="#b"/><use x="1.9557" y="225.125" href="#d"/><use x="-.5418" y="183.25" href="#b"/><use x="1.9557" y="183.25" href="#e"/><use x="1.9551" y="140.125" href="#f"/><use x="1.9551" y="98.25" href="#e"/><use x="1.9551" y="55.125" href="#d"/><use x="1.9551" y="12.625" href="#c"/><g class="c"><path d="M3530 105v2550" class="d"/><g class="e"><path d="M3530 105h-50"/><path d="M3530 147.5h-25"/><path d="M3530 190h-25"/><path d="M3530 232.5h-25"/><path d="M3530 275h-25"/><path d="M3530 317.5h-25"/><path d="M3530 360h-25"/><path d="M3530 402.5h-25"/><path d="M3530 445h-25"/><path d="M3530 487.5h-25"/><path d="M3530 530h-50"/><path d="M3530 572.5h-25"/><path d="M3530 615h-25"/><path d="M3530 657.5h-25"/><path d="M3530 700h-25"/><path d="M3530 742.5h-25"/><path d="M3530 785h-25"/><path d="M3530 827.5h-25"/><path d="M3530 870h-25"/><path d="M3530 912.5h-25"/><path d="M3530 955h-50"/><path d="M3530 997.5h-25"/><path d="M3530 1040h-25"/><path d="M3530 1082.5h-25"/><path d="M3530 1125h-25"/><path d="M3530 1167.5h-25"/><path d="M3530 1210h-25"/><path d="M3530 1252.5h-25"/><path d="M3530 1295h-25"/><path d="M3530 1337.5h-25"/><path d="M3530 1380h-50"/><path d="M3530 1422.5h-25"/><path d="M3530 1465h-25"/><path d="M3530 1507.5h-25"/><path d="M3530 1550h-25"/><path d="M3530 1592.5h-25"/><path d="M3530 1635h-25"/><path d="M3530 1677.5h-25"/><path d="M3530 1720h-25"/><path d="M3530 1762.5h-25"/><path d="M3530 1805h-50"/><path d="M3530 1847.5h-25"/><path d="M3530 1890h-25"/><path d="M3530 1932.5h-25"/><path d="M3530 1975h-25"/><path d="M3530 2017.5h-25"/><path d="M3530 2060h-25"/><path d="M3530 2102.5h-25"/><path d="M3530 2145h-25"/><path d="M3530 2187.5h-25"/><path d="M3530 2230h-50"/><path d="M3530 2272.5h-25"/><path d="M3530 2315h-25"/><path d="M3530 2357.5h-25"/><path d="M3530 2400h-25"/><path d="M3530 2442.5h-25"/><path d="M3530 2485h-25"/><path d="M3530 2527.5h-25"/><path d="M3530 2570h-25"/><path d="M3530 2612.5h-25"/><path d="M3530 2655h-50"/></g></g><use x="359.25" y="268.25" href="#b"/><use x="361.7475" y="268.25" href="#c"/><use x="359.25" y="225.125" href="#b"/><use x="361.7475" y="225.125" href="#d"/><use x="359.25" y="183.25" href="#b"/><use x="361.7475" y="183.25" href="#e"/><use x="359.25" y="140.125" href="#f"/><use x="359.25" y="98.25" href="#e"/><use x="359.25" y="55.125" href="#d"/><use x="359.25" y="12.625" href="#c"/><g style="fill:none;stroke-width:6.25;stroke-linecap:round;stroke:#00f;stroke-miterlimit:10;transform:matrix(.1,0,0,-.1,0,275)"><path d="M263.4375 205.078125l-96.875-72.65625"/><path d="M185.3125 169.921875l-18.75-37.5 41.25 7.5"/><path d="M260.898438 328.75l-91.796876-65"/><path d="M188.867188 300.703125 169.101562 263.75l41.445313 6.367188"/><path d="M258.359375 452.421875l-86.71875-57.34375"/><path d="M192.578125 431.40625l-20.9375-36.328125 41.640625 5.039063"/><path d="M255.78125 576.09375l-81.601562-49.6875"/><path d="M196.484375 561.914062l-22.304687-35.507812 41.796874 3.476562"/><path d="M253.242188 699.804688l-76.484376-42.070313"/><path d="M200.585938 692.226562l-23.828126-34.492187 41.875 1.640625"/><path d="M250.703125 823.476562l-71.40625-34.453124"/><path d="M204.921875 822.226562l-25.625-33.203124 41.914063-.585938"/><path d="M248.164062 947.148438l-66.328124-26.796876"/><path d="M209.609375 951.796875l-27.773437-31.445313 41.796874-3.320312"/><path d="M245.585938 1070.820312l-61.171876-19.140624"/><path d="M214.609375 1080.78125l-30.195313-29.101562 41.367188-6.71875"/><path d="M243.046875 1194.492188l-56.09375-11.484376"/><path d="M219.921875 1208.90625l-32.96875-25.898438 40.507813-10.859374"/><path d="M240.507812 1318.164062l-51.015624-3.828124"/><path d="M225.507812 1335.859375l-36.015624-21.523437 38.789062-15.898438"/><path d="M237.929688 1441.835938l-45.898438 3.828124"/><path d="M230.976562 1461.210938l-38.945312-15.546876 35.820312-21.796874"/><path d="M235.390625 1565.507812l-40.78125 11.484376"/><path d="M235.78125 1584.882812l-41.171875-7.890624 31.015625-28.203126"/><path d="M232.851562 1689.179688l-35.703124 19.140624"/><path d="M239.0625 1707.148438l-41.914062 1.171874 24.21875-34.257812"/><path d="M230.3125 1812.851562l-30.625 26.796876"/><path d="M240.273438 1829.0625l-40.585938 10.585938 15.898438-38.828126"/><path d="M227.734375 1936.523438l-25.46875 34.453124"/><path d="M239.648438 1951.992188l-37.382813 18.984374 7.226563-41.289062"/><path d="M225.195312 2060.195312l-20.390624 42.109376"/><path d="M238.046875 2076.71875l-33.242187 25.585938-.507813-41.953126"/><path d="M222.65625 2183.90625l-15.3125 49.6875"/><path d="M236.289062 2203.28125l-28.945312 30.3125-6.875-41.328125"/><path d="M220.117188 2307.578125l-10.234376 57.34375"/><path d="M234.921875 2331.289062l-25.039063 33.632813-11.875-40.195313"/><path d="M217.539062 2431.25l-5.078124 65.039062"/><path d="M234.0625 2460.351562l-21.601562 35.9375-15.78125-38.867187"/><path d="M215 2554.921875v72.65625"/><path d="M233.75 2590.078125l-18.75 37.5-18.75-37.5"/><path d="M430.898438 205.078125l-91.796876-72.65625"/><path d="M356.875 170.390625l-17.773438-37.96875 41.054688 8.554687"/><path d="M428.359375 328.75l-86.71875-65"/><path d="M360.390625 301.25l-18.75-37.5 41.25 7.5"/><path d="M425.78125 452.421875l-81.601562-57.34375"/><path d="M364.101562 431.992188l-19.921874-36.914063 41.484374 6.210937"/><path d="M423.242188 576.09375l-76.484376-49.6875"/><path d="M367.96875 562.539062l-21.210938-36.132812 41.640626 4.6875"/><path d="M420.703125 699.804688l-71.40625-42.070313"/><path d="M372.070312 692.890625l-22.773437-35.15625 41.835937 2.851563"/><path d="M418.164062 823.476562l-66.328124-34.453124"/><path d="M376.484375 822.96875l-24.648437-33.945312 41.953124.664062"/><path d="M415.585938 947.148438l-61.171876-26.796876"/><path d="M381.25 952.578125l-26.835938-32.226563 41.875-2.148437"/><path d="M413.046875 1070.820312l-56.09375-19.140624"/><path d="M386.40625 1081.523438l-29.453125-29.84375 41.523437-5.625"/><path d="M410.507812 1194.492188l-51.015624-11.484376"/><path d="M391.953125 1209.53125l-32.460937-26.523438 40.703124-10.039062"/><path d="M407.929688 1318.164062l-45.898438-3.828124"/><path d="M397.851562 1336.132812l-35.820312-21.796874 38.945312-15.546876"/><path d="M405.390625 1441.835938l-40.78125 3.828124"/><path d="M403.671875 1460.820312l-39.0625-15.15625 35.585937-22.148437"/><path d="M402.851562 1565.507812l-35.703124 11.484376"/><path d="M408.59375 1583.359375l-41.445312-6.367187 29.960937-29.335938"/><path d="M400.3125 1689.179688l-30.625 19.140624"/><path d="M411.445312 1704.335938l-41.757812 3.984374 21.875-35.78125"/><path d="M397.734375 1812.851562l-25.46875 26.796876"/><path d="M411.679688 1825.390625l-39.414063 14.257813 12.265625-40.117188"/><path d="M395.195312 1936.523438l-20.390624 34.453124"/><path d="M410.039062 1948.28125l-35.234374 22.695312 2.96875-41.835937"/><path d="M392.65625 2060.195312l-15.3125 42.109376"/><path d="M407.773438 2073.4375l-30.429688 28.867188-4.804688-41.679688"/><path d="M390.117188 2183.90625l-10.234376 49.6875"/><path d="M405.820312 2200.625l-25.9375 32.96875L369.0625 2193.125"/><path d="M387.539062 2307.578125l-5.078124 57.34375"/><path d="M404.453125 2329.257812l-21.992187 35.664063-15.351563-38.984375"/><path d="M385 2431.25v65.039062"/><path d="M403.75 2458.789062l-18.75 37.5-18.75-37.5"/><path d="M382.460938 2554.921875l5.078124 72.65625"/><path d="M403.632812 2588.867188l-16.09375 38.710937-21.328124-36.09375"/><path d="M598.359375 205.078125l-86.71875-72.65625"/><path d="M528.359375 170.898438l-16.71875-38.476563 40.78125 9.726563"/><path d="M595.78125 328.75l-81.601562-65"/><path d="M531.835938 301.757812 514.179688 263.75l41.015624 8.710938"/><path d="M593.242188 452.421875l-76.484376-57.34375"/><path d="M535.507812 432.578125l-18.75-37.5 41.25 7.5"/><path d="M590.703125 576.09375l-71.40625-49.6875"/><path d="M539.335938 563.203125l-20.039063-36.796875 41.484375 6.015625"/><path d="M588.164062 699.804688l-66.328124-42.070313"/><path d="M543.476562 693.632812l-21.640624-35.898437 41.71875 4.257813"/><path d="M585.585938 823.476562l-61.171876-34.453124"/><path d="M547.890625 823.75l-23.476563-34.726562 41.875 2.070312"/><path d="M583.046875 947.148438l-56.09375-26.796876"/><path d="M552.734375 953.4375l-25.78125-33.085938 41.914063-.742187"/><path d="M580.507812 1070.820312l-51.015624-19.140624"/><path d="M558.046875 1082.421875l-28.554687-30.742187 41.679687-4.375"/><path d="M577.929688 1194.492188l-45.898438-11.484376"/><path d="M563.867188 1210.3125l-31.835938-27.304688 40.9375-9.101562"/><path d="M575.390625 1318.164062l-40.78125-3.828124"/><path d="M570.195312 1336.523438l-35.585937-22.1875 39.0625-15.15625"/><path d="M572.851562 1441.835938l-35.703124 3.828124"/><path d="M576.445312 1460.3125l-39.296874-14.648438 35.273437-22.617187"/><path d="M570.3125 1565.507812l-30.625 11.484376"/><path d="M581.40625 1581.367188l-41.71875-4.375 28.554688-30.703126"/><path d="M567.734375 1689.179688l-25.507813 19.140624"/><path d="M583.476562 1700.820312l-41.25 7.5 18.75-37.5"/><path d="M565.195312 1812.851562l-20.390624 26.796876"/><path d="M582.421875 1821.171875l-37.617187 18.476563 7.8125-41.210938"/><path d="M562.65625 1936.523438l-15.3125 34.453124"/><path d="M579.726562 1944.296875l-32.382812 26.679687-1.914062-41.914062"/><path d="M560.117188 2060.195312l-10.234376 42.109376"/><path d="M576.953125 2070.273438l-27.070313 32.03125-9.375-40.859376"/><path d="M557.539062 2183.90625l-5.078124 49.6875"/><path d="M574.921875 2198.203125l-22.460937 35.390625-14.84375-39.21875"/><path d="M555 2307.578125v57.34375"/><path d="M573.75 2327.421875l-18.75 37.5-18.75-37.5"/><path d="M552.460938 2431.25l5.078124 65.039062"/><path d="M573.320312 2457.421875l-15.78125 38.867187-21.601562-35.9375"/><path d="M549.882812 2554.921875l10.234376 72.65625"/><path d="M573.4375 2587.851562l-13.320312 39.726563-23.789063-34.53125"/><path d="M765.78125 205.078125l-81.601562-72.65625"/><path d="M699.726562 171.367188l-15.546874-38.945313 40.507812 10.9375"/><path d="M763.242188 328.75l-76.484376-65"/><path d="M703.164062 302.304688 686.757812 263.75l40.703126 10"/><path d="M760.703125 452.421875l-71.40625-57.34375"/><path d="M706.796875 433.164062l-17.5-38.085937 40.976563 8.867187"/><path d="M758.164062 576.09375l-66.328124-49.6875"/><path d="M710.585938 563.90625l-18.75-37.5 41.25 7.5"/><path d="M755.585938 699.804688l-61.171876-42.070313"/><path d="M714.6875 694.414062l-20.273438-36.679687 41.523438 5.78125"/><path d="M753.046875 823.476562l-56.09375-34.453124"/><path d="M719.101562 824.648438l-22.148437-35.625 41.757813 3.632812"/><path d="M750.507812 947.148438l-51.015624-26.796876"/><path d="M723.984375 954.414062l-24.492187-34.0625 41.914062.859376"/><path d="M747.929688 1070.820312l-45.898438-19.140624"/><path d="M729.453125 1083.4375l-27.421875-31.757812 41.835938-2.890626"/><path d="M745.390625 1194.492188l-40.78125-11.484376"/><path d="M735.625 1211.210938l-31.015625-28.203126 41.171875-7.890624"/><path d="M742.851562 1318.164062l-35.703124-3.828124"/><path d="M742.421875 1336.992188l-35.273437-22.65625 39.296874-14.648438"/><path d="M740.3125 1441.835938l-30.625 3.828124"/><path d="M749.21875 1459.609375l-39.53125-13.945313 34.882812-23.242187"/><path d="M737.734375 1565.507812l-25.46875 11.484376"/><path d="M754.140625 1578.710938l-41.875-1.71875 26.484375-32.5"/><path d="M735.195312 1689.179688l-20.390624 19.140624"/><path d="M754.960938 1696.367188l-40.15625 11.953124 14.53125-39.335937"/><path d="M732.65625 1812.851562l-15.3125 26.796876"/><path d="M752.226562 1816.367188l-34.882812 23.28125 2.34375-41.875"/><path d="M730.117188 1936.523438l-10.234376 34.453124"/><path d="M748.515625 1940.3125l-28.632813 30.664062-7.304687-41.289062"/><path d="M727.539062 2060.195312l-5.078124 42.109376"/><path d="M745.585938 2067.304688l-23.125 35-14.101563-39.492188"/><path d="M725 2183.90625v49.6875"/><path d="M743.75 2196.09375l-18.75 37.5-18.75-37.5"/><path d="M722.460938 2307.578125l5.078124 57.34375"/><path d="M742.890625 2325.9375l-15.351563 38.984375-21.992187-35.664063"/><path d="M719.882812 2431.25l10.234376 65.039062"/><path d="M742.8125 2456.328125l-12.695312 39.960937-24.335938-34.179687"/><path d="M717.34375 2554.921875l15.3125 72.65625"/><path d="M743.28125 2587.03125l-10.625 40.546875-26.09375-32.8125"/><path d="M933.242188 205.078125l-76.484376-72.65625"/><path d="M871.015625 171.835938l-14.257813-39.414063 40.078126 12.226563"/><path d="M930.703125 328.75l-71.40625-65"/><path d="M874.414062 302.851562 859.296875 263.75l40.351563 11.367188"/><path d="M928.164062 452.421875l-66.328124-57.34375"/><path d="M877.929688 433.789062l-16.09375-38.710937 40.625 10.351563"/><path d="M925.585938 576.09375l-61.171876-49.6875"/><path d="M881.679688 564.609375l-17.265626-38.203125 40.898438 9.0625"/><path d="M923.046875 699.804688l-56.09375-42.070313"/><path d="M885.703125 695.234375l-18.75-37.5 41.25 7.5"/><path d="M920.507812 823.476562l-51.015624-34.453124"/><path d="M890.078125 825.546875l-20.585937-36.523437 41.5625 5.46875"/><path d="M917.929688 947.148438l-45.898438-26.796876"/><path d="M895 955.46875l-22.96875-35.117188 41.875 2.695313"/><path d="M915.390625 1070.820312l-40.78125-19.140624"/><path d="M900.585938 1084.570312l-25.976563-32.890624 41.914063-1.054688"/><path d="M912.851562 1194.492188l-35.703124-11.484376"/><path d="M907.109375 1212.34375l-29.960937-29.335938 41.445312-6.367187"/><path d="M910.3125 1318.164062l-30.625-3.828124"/><path d="M914.570312 1337.578125l-34.882812-23.242187 39.53125-13.945313"/><path d="M907.734375 1441.835938l-25.46875 3.828124"/><path d="M922.109375 1458.632812l-39.84375-12.96875L916.5625 1421.5625"/><path d="M905.195312 1565.507812l-20.390624 11.484376"/><path d="M926.679688 1574.960938l-41.875 2.03125 23.476562-34.726563"/><path d="M902.65625 1689.179688l-15.3125 19.140624"/><path d="M925.429688 1690.742188l-38.085938 17.578124 8.789062-41.015624"/><path d="M900.117188 1812.851562l-10.234376 26.796876"/><path d="M920.78125 1811.289062l-30.898438 28.359376-4.140624-41.71875"/><path d="M897.539062 1936.523438l-5.078124 34.453124"/><path d="M916.484375 1936.601562l-24.023437 34.375-13.046876-39.84375"/><path d="M895 2060.195312v42.109376"/><path d="M913.75 2064.804688l-18.75 37.5-18.75-37.5"/><path d="M892.460938 2183.90625l5.078124 49.6875"/><path d="M912.382812 2194.375l-14.84375 39.21875-22.460937-35.390625"/><path d="M889.882812 2307.578125l10.234376 57.34375"/><path d="M911.992188 2324.726562l-11.875 40.195313-25.039063-33.632813"/><path d="M887.34375 2431.25l15.3125 65.039062"/><path d="M912.304688 2455.46875l-9.648438 40.820312-26.835938-32.226562"/><path d="M884.804688 2554.921875l20.390624 72.65625"/><path d="M913.125 2586.40625l-7.929688 41.171875-28.164062-31.015625"/><path d="M1100.703125 205.078125l-71.40625-72.65625"/><path d="M1042.1875 172.304688l-12.890625-39.882813 39.648437 13.59375"/><path d="M1098.164062 328.75l-66.328124-65"/><path d="M1045.507812 303.398438 1031.835938 263.75l39.921874 12.851562"/><path d="M1095.585938 452.421875l-61.171876-57.34375"/><path d="M1048.945312 434.375l-14.53125-39.296875 40.15625 11.953125"/><path d="M1093.046875 576.09375l-56.09375-49.6875"/><path d="M1052.578125 565.3125l-15.625-38.90625 40.507813 10.820312"/><path d="M1090.507812 699.804688l-51.015624-42.070313"/><path d="M1056.484375 696.054688l-16.992187-38.320313 40.859374 9.375"/><path d="M1087.96875 823.476562l-45.9375-34.453124"/><path d="M1060.78125 826.523438l-18.75-37.5 41.25 7.5"/><path d="M1085.390625 947.148438l-40.78125-26.796876"/><path d="M1065.664062 956.601562l-21.054687-36.25 41.601563 4.921876"/><path d="M1082.851562 1070.820312l-35.703124-19.140624"/><path d="M1071.367188 1085.9375l-24.21875-34.257812 41.914062 1.171874"/><path d="M1080.3125 1194.492188l-30.625-11.484376"/><path d="M1078.242188 1213.75l-28.554688-30.742188 41.71875-4.375"/><path d="M1077.734375 1318.164062l-25.46875-3.828124"/><path d="M1086.5625 1338.4375l-34.296875-24.101562 39.84375-12.96875"/><path d="M1075.195312 1441.835938l-20.390624 3.828124"/><path d="M1095.117188 1457.1875l-40.3125-11.523438 33.398437-25.351562"/><path d="M1072.65625 1565.507812l-15.3125 11.484376"/><path d="M1098.59375 1569.492188l-41.25 7.5 18.75-37.5"/><path d="M1070.117188 1689.179688l-10.234376 19.140624"/><path d="M1094.101562 1684.0625l-34.21875 24.257812 1.132813-41.914062"/><path d="M1067.539062 1812.851562l-5.078124 26.796876"/><path d="M1087.890625 1806.328125l-25.429687 33.320313-11.40625-40.351563"/><path d="M1065 1936.523438v34.453124"/><path d="M1083.75 1933.476562l-18.75 37.5-18.75-37.5"/><path d="M1062.460938 2060.195312l5.078124 42.109376"/><path d="M1081.640625 2062.8125l-14.101563 39.492188-23.125-35"/><path d="M1059.882812 2183.90625l10.234376 49.6875"/><path d="M1080.9375 2193.125l-10.820312 40.46875-25.898438-32.96875"/><path d="M1057.34375 2307.578125l15.3125 57.34375"/><path d="M1081.09375 2323.867188l-8.4375 41.054687-27.773438-31.367187"/><path d="M1054.804688 2431.25l20.390624 65.039062"/><path d="M1081.875 2454.882812l-6.679688 41.40625-29.101562-30.195312"/><path d="M1052.265625 2554.921875l25.46875 72.65625"/><path d="M1083.007812 2586.015625l-5.273437 41.5625-30.078125-29.179687"/><path d="M1268.164062 205.078125l-66.328124-72.65625"/><path d="M1213.28125 172.734375l-11.445312-40.3125L1240.976562 147.5"/><path d="M1265.585938 328.75l-61.171876-65"/><path d="M1216.445312 303.90625l-12.03125-40.15625L1243.75 278.203125"/><path d="M1263.046875 452.421875l-56.09375-57.34375"/><path d="M1219.765625 435l-12.8125-39.921875 39.609375 13.710937"/><path d="M1260.507812 576.09375l-51.015624-49.6875"/><path d="M1223.242188 565.976562l-13.75-39.570312 39.960937 12.734375"/><path d="M1257.96875 699.804688l-45.9375-42.070313"/><path d="M1227.03125 696.875l-15-39.140625 40.3125 11.484375"/><path d="M1255.390625 823.476562l-40.78125-34.453124"/><path d="M1231.171875 827.539062l-16.5625-38.515624 40.742187 9.882812"/><path d="M1252.851562 947.148438l-35.703124-26.796876"/><path d="M1235.898438 957.851562l-18.75-37.5 41.25 7.5"/><path d="M1250.3125 1070.820312l-30.625-19.140624"/><path d="M1241.5625 1087.460938l-21.875-35.78125 41.757812 3.984374"/><path d="M1247.734375 1194.492188l-25.46875-11.484376"/><path d="M1248.75 1215.507812l-26.484375-32.5 41.875-1.71875"/><path d="M1245.195312 1318.164062l-20.390624-3.828124"/><path d="M1258.203125 1339.6875l-33.398437-25.351562 40.3125-11.523438"/><path d="M1242.65625 1441.835938l-15.3125 3.828124"/><path d="M1268.28125 1454.765625l-40.9375-9.101563 31.835938-27.265624"/><path d="M1240.117188 1565.507812l-10.234376 11.484376"/><path d="M1268.828125 1561.40625l-38.945313 15.585938 10.898438-40.507813"/><path d="M1237.539062 1689.179688l-5.078124 19.140624"/><path d="M1260.234375 1676.914062l-27.773437 31.40625-8.476563-41.054687"/><path d="M1235 1812.851562v26.796876"/><path d="M1253.75 1802.148438l-18.75 37.5-18.75-37.5"/><path d="M1232.460938 1936.523438l5.078124 34.453124"/><path d="M1250.585938 1931.132812l-13.046876 39.84375-24.023437-34.375"/><path d="M1229.882812 2060.195312l10.234376 42.109376"/><path d="M1249.492188 2061.445312l-9.375 40.859376-27.070313-32.03125"/><path d="M1227.34375 2183.90625l15.3125 49.6875"/><path d="M1249.53125 2192.265625l-6.875 41.328125-28.945312-30.3125"/><path d="M1224.804688 2307.578125l20.390624 57.34375"/><path d="M1250.3125 2323.320312l-5.117188 41.601563-30.234374-29.023437"/><path d="M1222.265625 2431.25l25.46875 65.039062"/><path d="M1251.523438 2454.492188l-3.789063 41.796874-31.132813-28.085937"/><path d="M1219.6875 2554.921875l30.625 72.65625"/><path d="M1253.046875 2585.742188l-2.734375 41.835937-31.835938-27.265625"/><path d="M1435.585938 205.078125l-61.171876-72.65625"/><path d="M1384.21875 173.164062l-9.804688-40.742187 38.476563 16.601563"/><path d="M1433.046875 328.75l-56.09375-65"/><path d="M1387.265625 304.375l-10.3125-40.625 38.671875 16.132812"/><path d="M1430.507812 452.421875l-51.015624-57.34375"/><path d="M1390.390625 435.546875l-10.898437-40.46875L1418.4375 410.625"/><path d="M1427.96875 576.09375l-45.9375-49.6875"/><path d="M1393.710938 566.679688l-11.679688-40.273438 39.21875 14.804688"/><path d="M1425.390625 699.804688l-40.78125-42.070313"/><path d="M1397.226562 697.695312l-12.617187-39.960937 39.570313 13.828125"/><path d="M1422.851562 823.476562l-35.703124-34.453124"/><path d="M1401.132812 828.554688l-13.984374-39.53125 40 12.539062"/><path d="M1420.3125 947.148438l-30.625-26.796876"/><path d="M1405.585938 959.179688l-15.898438-38.828126 40.585938 10.585938"/><path d="M1417.734375 1070.820312l-25.46875-19.140624"/><path d="M1411.015625 1089.179688l-18.75-37.5 41.25 7.5"/><path d="M1415.195312 1194.492188l-20.390624-11.484376"/><path d="M1418.28125 1217.734375l-23.476562-34.726563 41.875 2.070313"/><path d="M1412.65625 1318.164062l-15.3125-3.828124"/><path d="M1429.179688 1341.640625l-31.835938-27.304687 40.9375-9.101563"/><path d="M1410.117188 1441.835938l-10.234376 3.828124"/><path d="M1441.601562 1450.039062l-41.71875-4.375 28.554688-30.742187"/><path d="M1407.539062 1565.507812l-5.078124 11.484376"/><path d="M1434.804688 1550.351562l-32.34375 26.640626-1.914063-41.875"/><path d="M1405 1689.179688v19.140624"/><path d="M1423.75 1670.820312l-18.75 37.5-18.75-37.5"/><path d="M1402.460938 1812.851562l5.078124 26.796876"/><path d="M1418.945312 1799.296875l-11.40625 40.351563-25.429687-33.320313"/><path d="M1399.882812 1936.523438l10.234376 34.453124"/><path d="M1417.421875 1929.6875l-7.304687 41.289062-28.632813-30.664062"/><path d="M1397.34375 2060.195312l15.3125 42.109376"/><path d="M1417.460938 2060.625l-4.804688 41.679688-30.429688-28.867188"/><path d="M1394.804688 2183.90625l20.390624 49.6875"/><path d="M1418.320312 2191.796875l-3.125 41.796875-31.5625-27.539062"/><path d="M1392.265625 2307.578125l25.46875 57.34375"/><path d="M1419.648438 2323.046875l-1.914063 41.875-32.34375-26.640625"/><path d="M1389.6875 2431.25l30.625 65.039062"/><path d="M1421.289062 2454.335938l-.976562 41.953124-32.929688-25.976562"/><path d="M1387.148438 2554.921875l35.703124 72.65625"/><path d="M1423.125 2585.664062l-.273438 41.914063-33.359374-25.390625"/><path d="M1603.046875 205.078125l-56.09375-72.65625"/><path d="M1555.039062 173.554688l-8.085937-41.132813L1584.6875 150.625"/><path d="M1600.507812 328.75l-51.015624-65"/><path d="M1557.890625 304.804688 1549.492188 263.75l37.890624 17.929688"/><path d="M1597.96875 452.421875l-45.9375-57.34375"/><path d="M1560.859375 436.054688l-8.828125-40.976563 38.085938 17.539063"/><path d="M1595.390625 576.09375l-40.78125-49.6875"/><path d="M1563.90625 567.265625l-9.296875-40.859375 38.28125 17.070312"/><path d="M1592.851562 699.804688l-35.703124-42.070313"/><path d="M1567.109375 698.4375l-9.960937-40.703125 38.554687 16.445313"/><path d="M1590.3125 823.476562l-30.625-34.453124"/><path d="M1570.585938 829.53125l-10.898438-40.507812 38.945312 15.585937"/><path d="M1587.734375 947.148438l-25.46875-26.796876"/><path d="M1574.53125 960.46875l-12.265625-40.117188 39.414063 14.257813"/><path d="M1585.195312 1070.820312l-20.390624-19.140624"/><path d="M1579.335938 1091.015625l-14.53125-39.335937 40.15625 11.992187"/><path d="M1582.65625 1194.492188l-15.3125-11.484376"/><path d="M1586.09375 1220.507812l-18.75-37.5 41.25 7.5"/><path d="M1580.117188 1318.164062l-10.234376-3.828124"/><path d="M1598.4375 1345.078125l-28.554688-30.742187 41.71875-4.375"/><path d="M1577.539062 1441.835938l-5.078124 3.828124"/><path d="M1613.710938 1438.164062l-41.25 7.5 18.75-37.5"/><path d="M1575 1565.507812v11.484376"/><path d="M1593.75 1539.492188l-18.75 37.5-18.75-37.5"/><path d="M1572.460938 1689.179688l5.078124 19.140624"/><path d="M1586.015625 1667.265625l-8.476563 41.054687-27.773437-31.40625"/><path d="M1569.882812 1812.851562l10.234376 26.796876"/><path d="M1584.257812 1797.929688l-4.140624 41.71875-30.898438-28.359376"/><path d="M1567.34375 1936.523438l15.3125 34.453124"/><path d="M1584.53125 1929.0625l-1.875 41.914062-32.382812-26.679687"/><path d="M1564.804688 2060.195312l20.390624 42.109376"/><path d="M1585.703125 2060.351562l-.507813 41.953126-33.242187-25.585938"/><path d="M1562.265625 2183.90625l25.46875 49.6875"/><path d="M1587.304688 2191.679688l.429687 41.914062-33.789063-24.804688"/><path d="M1559.6875 2307.578125l30.625 57.34375"/><path d="M1589.21875 2323.046875l1.09375 41.875-34.21875-24.257813"/><path d="M1557.148438 2431.25l35.703124 65.039062"/><path d="M1591.210938 2454.375l1.640624 41.914062-34.492187-23.867187"/><path d="M1554.609375 2554.921875l40.78125 72.65625"/><path d="M1593.398438 2585.703125l1.992187 41.875-34.6875-23.515625"/><path d="M1770.507812 205.078125l-51.015624-72.65625"/><path d="M1725.703125 173.867188l-6.210937-41.445313 36.914062 19.921875"/><path d="M1767.96875 328.75l-45.9375-65"/><path d="M1728.359375 305.195312 1722.03125 263.75l36.953125 19.804688"/><path d="M1765.390625 452.421875l-40.78125-57.34375"/><path d="M1731.054688 436.484375l-6.445313-41.40625 36.992187 19.6875"/><path d="M1762.851562 576.09375l-35.703124-49.6875"/><path d="M1733.789062 567.773438l-6.640624-41.367188 37.109374 19.492188"/><path d="M1760.3125 699.804688l-30.625-42.070313"/><path d="M1736.601562 699.0625l-6.914062-41.328125 37.226562 19.296875"/><path d="M1757.734375 823.476562l-25.46875-34.453124"/><path d="M1739.492188 830.3125l-7.226563-41.289062 37.382813 18.984374"/><path d="M1755.195312 947.148438l-20.390624-26.796876"/><path d="M1742.617188 961.5625l-7.8125-41.210938 37.617187 18.476563"/><path d="M1752.65625 1070.820312l-15.3125-19.140624"/><path d="M1746.132812 1092.695312l-8.789062-41.015624 38.085938 17.578124"/><path d="M1750.117188 1194.492188l-10.234376-11.484376"/><path d="M1750.78125 1223.515625l-10.898438-40.507813 38.945313 15.585938"/><path d="M1747.539062 1318.164062l-5.078124-3.828124"/><path d="M1761.210938 1351.835938l-18.75-37.5 41.25 7.5"/><path d="M1745 1441.835938v3.828124"/><path d="M1763.75 1408.164062l-18.75 37.5-18.75-37.5"/><path d="M1742.460938 1565.507812l5.078124 11.484376"/><path d="M1749.453125 1535.117188l-1.914063 41.875-32.34375-26.640626"/><path d="M1739.882812 1689.179688l10.234376 19.140624"/><path d="M1748.984375 1666.40625l1.132813 41.914062-34.21875-24.257812"/><path d="M1737.34375 1812.851562l15.3125 26.796876"/><path d="M1750.3125 1797.773438l2.34375 41.875-34.882812-23.28125"/><path d="M1734.804688 1936.523438l20.390624 34.453124"/><path d="M1752.226562 1929.140625l2.96875 41.835937-35.234374-22.695312"/><path d="M1732.265625 2060.195312l25.46875 42.109376"/><path d="M1754.335938 2060.507812l3.398437 41.796876-35.46875-22.382813"/><path d="M1729.6875 2183.90625l30.625 49.6875"/><path d="M1756.601562 2191.835938l3.710938 41.757812-35.625-22.109375"/><path d="M1727.148438 2307.578125l35.703124 57.34375"/><path d="M1758.945312 2323.203125l3.90625 41.71875-35.742187-21.914063"/><path d="M1724.609375 2431.25l40.78125 65.039062"/><path d="M1761.367188 2454.53125l4.023437 41.757812-35.78125-21.835937"/><path d="M1722.03125 2554.921875l45.9375 72.65625"/><path d="M1763.789062 2585.859375l4.179688 41.71875-35.898438-21.679687"/><path d="M1937.96875 205.078125l-45.9375-72.65625"/><path d="M1896.210938 174.140625l-4.179688-41.71875 35.898438 21.679687"/><path d="M1935.390625 328.75l-40.78125-65"/><path d="M1898.632812 305.46875l-4.023437-41.71875 35.78125 21.796875"/><path d="M1932.851562 452.421875l-35.703124-57.34375"/><path d="M1901.054688 436.796875l-3.90625-41.71875 35.742187 21.914063"/><path d="M1930.3125 576.09375l-30.625-49.6875"/><path d="M1903.398438 568.164062l-3.710938-41.757812 35.625 22.109375"/><path d="M1927.734375 699.804688l-25.46875-42.070313"/><path d="M1905.664062 699.492188l-3.398437-41.757813 35.429687 22.34375"/><path d="M1925.195312 823.476562l-20.390624-34.453124"/><path d="M1907.773438 830.859375l-2.96875-41.835937 35.234374 22.695312"/><path d="M1922.65625 947.148438l-15.3125-26.796876"/><path d="M1909.6875 962.226562l-2.34375-41.875 34.882812 23.28125"/><path d="M1920.117188 1070.820312l-10.234376-19.140624"/><path d="M1911.015625 1093.59375l-1.132813-41.914062 34.21875 24.257812"/><path d="M1917.539062 1194.492188l-5.078124-11.484376"/><path d="M1910.546875 1224.882812l1.914063-41.875 32.34375 26.640626"/><path d="M1915 1318.164062v-3.828124"/><path d="M1896.25 1351.835938l18.75-37.5 18.75 37.5"/><path d="M1912.460938 1441.835938l5.078124 3.828124"/><path d="M1898.789062 1408.164062l18.75 37.5-41.25-7.5"/><path d="M1909.882812 1565.507812l10.234376 11.484376"/><path d="M1909.21875 1536.484375l10.898438 40.507813-38.945313-15.585938"/><path d="M1907.34375 1689.179688l15.3125 19.140624"/><path d="M1913.867188 1667.304688l8.789062 41.015624-38.085938-17.578124"/><path d="M1904.804688 1812.851562l20.390624 26.796876"/><path d="M1917.382812 1798.4375l7.8125 41.210938-37.65625-18.476563"/><path d="M1902.265625 1936.523438l25.46875 34.453124"/><path d="M1920.507812 1929.6875l7.226563 41.289062-37.382813-18.984374"/><path d="M1899.6875 2060.195312l30.625 42.109376"/><path d="M1923.398438 2060.9375l6.914062 41.367188-37.226562-19.296876"/><path d="M1897.148438 2183.90625l35.703124 49.6875"/><path d="M1926.210938 2192.226562l6.640624 41.367188-37.109374-19.492188"/><path d="M1894.609375 2307.578125l40.78125 57.34375"/><path d="M1928.945312 2323.515625l6.445313 41.40625-36.992187-19.6875"/><path d="M1892.03125 2431.25l45.9375 65.039062"/><path d="M1931.640625 2454.804688l6.328125 41.484374-36.953125-19.84375"/><path d="M1889.492188 2554.921875l51.015624 72.65625"/><path d="M1934.296875 2586.132812l6.210937 41.445313-36.914062-19.921875"/><path d="M2105.390625 205.078125l-40.78125-72.65625"/><path d="M2066.601562 174.296875l-1.992187-41.875 34.6875 23.515625"/><path d="M2102.851562 328.75l-35.703124-65"/><path d="M2068.75 305.625l-1.601562-41.875 34.492187 23.828125"/><path d="M2100.3125 452.421875l-30.625-57.34375"/><path d="M2070.78125 436.992188l-1.09375-41.914063 34.21875 24.257813"/><path d="M2097.734375 576.09375l-25.46875-49.6875"/><path d="M2072.65625 568.320312l-.390625-41.914062 33.789063 24.804688"/><path d="M2095.195312 699.804688l-20.390624-42.070313"/><path d="M2074.296875 699.648438l.507813-41.914063 33.242187 25.546875"/><path d="M2092.65625 823.476562l-15.3125-34.453124"/><path d="M2075.429688 830.9375l1.914062-41.914062 32.382812 26.679687"/><path d="M2090.117188 947.148438l-10.234376-26.796876"/><path d="M2075.742188 962.070312l4.140624-41.71875L2110.78125 948.75"/><path d="M2087.539062 1070.820312l-5.078124-19.140624"/><path d="M2073.984375 1092.734375l8.476563-41.054687 27.773437 31.40625"/><path d="M2085 1194.492188v-11.484376"/><path d="M2066.25 1220.507812l18.75-37.5 18.75 37.5"/><path d="M2082.460938 1318.164062l5.078124-3.828124"/><path d="M2046.289062 1321.835938l41.25-7.5-18.75 37.5"/><path d="M2079.882812 1441.835938l10.234376 3.828124"/><path d="M2061.5625 1414.921875l28.554688 30.742187-41.71875 4.375"/><path d="M2077.34375 1565.507812l15.3125 11.484376"/><path d="M2073.90625 1539.492188l18.75 37.5-41.25-7.5"/><path d="M2074.804688 1689.179688l20.390624 19.140624"/><path d="M2080.664062 1668.984375l14.53125 39.335937-40.15625-11.953124"/><path d="M2072.265625 1812.851562l25.46875 26.796876"/><path d="M2085.46875 1799.53125l12.265625 40.117188-39.414063-14.257813"/><path d="M2069.6875 1936.523438l30.625 34.453124"/><path d="M2089.414062 1930.46875l10.898438 40.507812-38.945312-15.585937"/><path d="M2067.148438 2060.195312l35.703124 42.109376"/><path d="M2092.890625 2061.5625l9.960937 40.742188-38.554687-16.484376"/><path d="M2064.609375 2183.90625l40.78125 49.6875"/><path d="M2096.09375 2192.734375l9.296875 40.859375-38.28125-17.070312"/><path d="M2062.03125 2307.578125l45.9375 57.34375"/><path d="M2099.140625 2323.945312l8.828125 40.976563-38.085938-17.539063"/><path d="M2059.492188 2431.25l51.015624 65.039062"/><path d="M2102.109375 2455.195312l8.398437 41.09375-37.890624-17.96875"/><path d="M2056.953125 2554.921875l56.09375 72.65625"/><path d="M2104.960938 2586.445312l8.085937 41.132813-37.773437-18.203125"/><path d="M2272.851562 205.078125l-35.703124-72.65625"/><path d="M2236.875 174.335938l.273438-41.914063 33.359374 25.390625"/><path d="M2270.3125 328.75l-30.625-65"/><path d="M2238.710938 305.664062 2239.6875 263.75l32.929688 25.9375"/><path d="M2267.734375 452.421875l-25.46875-57.34375"/><path d="M2240.351562 436.953125l1.914063-41.875 32.34375 26.640625"/><path d="M2265.195312 576.09375l-20.390624-49.6875"/><path d="M2241.679688 568.203125l3.125-41.796875 31.5625 27.578125"/><path d="M2262.65625 699.804688l-15.3125-42.070313"/><path d="M2242.539062 699.375l4.804688-41.640625 30.429688 28.828125"/><path d="M2260.117188 823.476562l-10.234376-34.453124"/><path d="M2242.578125 830.3125l7.304687-41.289062 28.632813 30.664062"/><path d="M2257.539062 947.148438l-5.078124-26.796876"/><path d="M2241.054688 960.703125l11.40625-40.351563 25.429687 33.359376"/><path d="M2255 1070.820312v-19.140624"/><path d="M2236.25 1089.179688l18.75-37.5 18.75 37.5"/><path d="M2252.460938 1194.492188l5.078124-11.484376"/><path d="M2225.195312 1209.648438l32.34375-26.640626 1.914063 41.875"/><path d="M2249.882812 1318.164062l10.234376-3.828124"/><path d="M2218.398438 1309.960938l41.71875 4.375-28.554688 30.742187"/><path d="M2247.34375 1441.835938l15.3125 3.828124"/><path d="M2230.820312 1418.398438l31.835938 27.265624-40.9375 9.101563"/><path d="M2244.804688 1565.507812l20.390624 11.484376"/><path d="M2241.71875 1542.265625l23.476562 34.726563-41.875-2.03125"/><path d="M2242.265625 1689.179688l25.46875 19.140624"/><path d="M2248.984375 1670.820312l18.75 37.5-41.25-7.5"/><path d="M2239.6875 1812.851562l30.625 26.796876"/><path d="M2254.414062 1800.820312l15.898438 38.828126-40.585938-10.585938"/><path d="M2237.148438 1936.523438l35.703124 34.453124"/><path d="M2258.867188 1931.445312l13.984374 39.53125-40-12.539062"/><path d="M2234.609375 2060.195312l40.78125 42.109376"/><path d="M2262.734375 2062.304688l12.65625 40-39.570313-13.867188"/><path d="M2232.03125 2183.90625l45.9375 49.6875"/><path d="M2266.289062 2193.359375l11.679688 40.234375-39.257812-14.804688"/><path d="M2229.492188 2307.578125l51.015624 57.34375"/><path d="M2269.609375 2324.453125l10.898437 40.46875L2241.5625 2349.375"/><path d="M2226.953125 2431.25l56.09375 65.039062"/><path d="M2272.734375 2455.625l10.3125 40.664062-38.671875-16.171874"/><path d="M2224.414062 2554.921875l61.171876 72.65625"/><path d="M2275.78125 2586.835938l9.804688 40.742187-38.476563-16.601563"/><path d="M2440.3125 205.078125l-30.625-72.65625"/><path d="M2406.953125 174.257812l2.734375-41.835937 31.835938 27.265625"/><path d="M2437.734375 328.75l-25.46875-65"/><path d="M2408.476562 305.507812l3.789063-41.757812 31.132813 28.046875"/><path d="M2435.195312 452.421875l-20.390624-57.34375"/><path d="M2409.6875 436.679688l5.117188-41.601563 30.234374 29.023437"/><path d="M2432.65625 576.09375l-15.3125-49.6875"/><path d="M2410.46875 567.734375l6.875-41.328125 28.945312 30.3125"/><path d="M2430.117188 699.804688l-10.234376-42.070313"/><path d="M2410.507812 698.59375l9.375-40.859375 27.070313 31.992187"/><path d="M2427.539062 823.476562l-5.078124-34.453124"/><path d="M2409.414062 828.867188l13.046876-39.84375 24.023437 34.375"/><path d="M2425 947.148438v-26.796876"/><path d="M2406.25 957.851562l18.75-37.5 18.75 37.5"/><path d="M2422.460938 1070.820312l5.078124-19.140624"/><path d="M2399.765625 1083.085938l27.773437-31.40625 8.476563 41.054687"/><path d="M2419.882812 1194.492188l10.234376-11.484376"/><path d="M2391.171875 1198.59375l38.945313-15.585938-10.898438 40.507813"/><path d="M2417.34375 1318.164062l15.3125-3.828124"/><path d="M2391.71875 1305.234375l40.9375 9.101563-31.835938 27.304687"/><path d="M2414.804688 1441.835938l20.390624 3.828124"/><path d="M2401.796875 1420.3125l33.398437 25.351562-40.3125 11.523438"/><path d="M2412.265625 1565.507812l25.46875 11.484376"/><path d="M2411.25 1544.492188l26.484375 32.5-41.875 1.71875"/><path d="M2409.6875 1689.179688l30.625 19.140624"/><path d="M2418.4375 1672.539062l21.875 35.78125-41.757812-3.984374"/><path d="M2407.148438 1812.851562l35.703124 26.796876"/><path d="M2424.101562 1802.148438l18.75 37.5-41.25-7.5"/><path d="M2404.609375 1936.523438l40.78125 34.453124"/><path d="M2428.828125 1932.460938l16.5625 38.515624-40.742187-9.882812"/><path d="M2402.03125 2060.195312l45.9375 42.109376"/><path d="M2432.96875 2063.125l15 39.179688-40.3125-11.523438"/><path d="M2399.492188 2183.90625l51.015624 49.6875"/><path d="M2436.71875 2194.023438l13.789062 39.570312-39.960937-12.734375"/><path d="M2396.953125 2307.578125l56.09375 57.34375"/><path d="M2440.234375 2325.039062l12.8125 39.882813-39.609375-13.710937"/><path d="M2394.414062 2431.25l61.171876 65.039062"/><path d="M2443.554688 2456.09375l12.03125 40.195312-39.335938-14.492187"/><path d="M2391.835938 2554.921875l66.328124 72.65625"/><path d="M2446.71875 2587.265625l11.445312 40.3125-39.140624-15.039063"/><path d="M2607.734375 205.078125l-25.46875-72.65625"/><path d="M2576.953125 174.023438l5.3125-41.601563 30.078125 29.179687"/><path d="M2605.195312 328.75l-20.390624-65"/><path d="M2578.125 305.117188l6.679688-41.367188 29.101562 30.15625"/><path d="M2602.65625 452.421875l-15.3125-57.34375"/><path d="M2578.90625 436.132812l8.4375-41.054687 27.773438 31.40625"/><path d="M2600.117188 576.09375l-10.234376-49.6875"/><path d="M2579.0625 566.875l10.820312-40.46875 25.898438 32.96875"/><path d="M2597.539062 699.804688l-5.078124-42.070313"/><path d="M2578.359375 697.1875l14.101563-39.453125 23.125 34.960937"/><path d="M2595 823.476562v-34.453124"/><path d="M2576.25 826.523438l18.75-37.5 18.75 37.5"/><path d="M2592.460938 947.148438l5.078124-26.796876"/><path d="M2572.109375 953.710938l25.429687-33.359376 11.40625 40.351563"/><path d="M2589.882812 1070.820312l10.234376-19.140624"/><path d="M2565.898438 1075.9375l34.21875-24.257812-1.132813 41.914062"/><path d="M2587.34375 1194.492188l15.3125-11.484376"/><path d="M2561.40625 1190.507812l41.25-7.5-18.75 37.5"/><path d="M2584.804688 1318.164062l20.390624-3.828124"/><path d="M2564.882812 1302.8125l40.3125 11.523438-33.398437 25.351562"/><path d="M2582.265625 1441.835938l25.46875 3.828124"/><path d="M2573.4375 1421.5625l34.296875 24.101562-39.84375 12.96875"/><path d="M2579.6875 1565.507812l30.625 11.484376"/><path d="M2581.757812 1546.289062l28.554688 30.703126-41.71875 4.375"/><path d="M2577.148438 1689.179688l35.703124 19.140624"/><path d="M2588.632812 1674.0625l24.21875 34.257812-41.914062-1.171874"/><path d="M2574.609375 1812.851562l40.78125 26.796876"/><path d="M2594.335938 1803.398438l21.054687 36.25-41.640625-4.921876"/><path d="M2572.03125 1936.523438l45.9375 34.453124"/><path d="M2599.21875 1933.476562l18.75 37.5-41.25-7.5"/><path d="M2569.492188 2060.195312l51.015624 42.109376"/><path d="M2603.515625 2063.945312l16.992187 38.359376-40.859374-9.414063"/><path d="M2566.953125 2183.90625l56.09375 49.6875"/><path d="M2607.421875 2194.726562l15.625 38.867188-40.507813-10.820312"/><path d="M2564.414062 2307.578125l61.171876 57.34375"/><path d="M2611.054688 2325.625l14.53125 39.296875-40.15625-11.953125"/><path d="M2561.835938 2431.25l66.328124 65.039062"/><path d="M2614.492188 2456.601562l13.671874 39.6875-39.921874-12.890624"/><path d="M2559.296875 2554.921875l71.40625 72.65625"/><path d="M2617.773438 2587.695312l12.929687 39.882813-39.648437-13.59375"/><path d="M2775.195312 205.078125l-20.390624-72.65625"/><path d="M2746.875 173.59375l7.929688-41.171875 28.164062 31.015625"/><path d="M2772.65625 328.75l-15.3125-65"/><path d="M2747.695312 304.53125l9.648438-40.78125 26.835938 32.1875"/><path d="M2770.117188 452.421875l-10.234376-57.34375"/><path d="M2748.007812 435.273438l11.875-40.195313 25.039063 33.632813"/><path d="M2767.539062 576.09375l-5.078124-49.6875"/><path d="M2747.617188 565.625l14.84375-39.21875 22.460937 35.390625"/><path d="M2765 699.804688v-42.070313"/><path d="M2746.25 695.234375l18.75-37.5 18.75 37.5"/><path d="M2762.460938 823.476562l5.078124-34.453124"/><path d="M2743.515625 823.398438l24.023437-34.375 13.046876 39.84375"/><path d="M2759.882812 947.148438l10.234376-26.796876"/><path d="M2739.21875 948.75l30.898438-28.398438 4.140624 41.71875"/><path d="M2757.34375 1070.820312l15.3125-19.140624"/><path d="M2734.570312 1069.257812l38.085938-17.578124-8.789062 41.015624"/><path d="M2754.804688 1194.492188l20.390624-11.484376"/><path d="M2733.320312 1185.078125l41.875-2.070313-23.476562 34.726563"/><path d="M2752.265625 1318.164062l25.46875-3.828124"/><path d="M2737.890625 1301.367188l39.84375 12.96875-34.296875 24.101562"/><path d="M2749.6875 1441.835938l30.625 3.828124"/><path d="M2745.390625 1422.421875l34.921875 23.242187-39.570312 13.945313"/><path d="M2747.148438 1565.507812l35.703124 11.484376"/><path d="M2752.890625 1547.65625l29.960937 29.335938-41.445312 6.367187"/><path d="M2744.609375 1689.179688l40.78125 19.140624"/><path d="M2759.414062 1675.429688l25.976563 32.890624-41.914063 1.054688"/><path d="M2742.03125 1812.851562l45.9375 26.796876"/><path d="M2765 1804.53125l22.96875 35.117188-41.875-2.695313"/><path d="M2739.492188 1936.523438l51.015624 34.453124"/><path d="M2769.921875 1934.453125l20.585937 36.523437-41.601562-5.429687"/><path d="M2736.953125 2060.195312l56.09375 42.109376"/><path d="M2774.296875 2064.804688l18.75 37.5-41.25-7.5"/><path d="M2734.414062 2183.90625l61.171876 49.6875"/><path d="M2778.320312 2195.390625l17.265626 38.203125-40.898438-9.0625"/><path d="M2731.835938 2307.578125l66.328124 57.34375"/><path d="M2782.070312 2326.210938l16.09375 38.710937-40.625-10.351563"/><path d="M2729.296875 2431.25l71.40625 65.039062"/><path d="M2785.585938 2457.148438l15.117187 39.140624-40.351563-11.40625"/><path d="M2726.757812 2554.921875l76.484376 72.65625"/><path d="M2788.984375 2588.164062l14.257813 39.414063-40.078126-12.226563"/><path d="M2942.65625 205.078125l-15.3125-72.65625"/><path d="M2916.71875 172.96875l10.625-40.546875 26.09375 32.8125"/><path d="M2940.117188 328.75l-10.234376-65"/><path d="M2917.1875 303.671875 2929.882812 263.75l24.335938 34.140625"/><path d="M2937.539062 452.421875l-5.078124-57.34375"/><path d="M2917.109375 434.0625l15.351563-38.984375 21.992187 35.664063"/><path d="M2935 576.09375v-49.6875"/><path d="M2916.25 563.90625l18.75-37.5 18.75 37.5"/><path d="M2932.460938 699.804688l5.078124-42.070313"/><path d="M2914.414062 692.695312l23.125-34.960937 14.101563 39.453125"/><path d="M2929.882812 823.476562l10.234376-34.453124"/><path d="M2911.484375 819.6875l28.632813-30.664062 7.304687 41.289062"/><path d="M2927.34375 947.148438l15.3125-26.796876"/><path d="M2907.773438 943.632812l34.882812-23.28125-2.34375 41.875"/><path d="M2924.804688 1070.820312l20.390624-19.140624"/><path d="M2905.039062 1063.671875l40.15625-11.992187-14.53125 39.335937"/><path d="M2922.265625 1194.492188l25.46875-11.484376"/><path d="M2905.859375 1181.289062l41.875 1.71875-26.484375 32.5"/><path d="M2919.6875 1318.164062l30.625-3.828124"/><path d="M2910.742188 1300.390625l39.570312 13.945313-34.921875 23.242187"/><path d="M2917.148438 1441.835938l35.703124 3.828124"/><path d="M2917.578125 1423.046875l35.273437 22.617187-39.296874 14.648438"/><path d="M2914.609375 1565.507812l40.78125 11.484376"/><path d="M2924.375 1548.789062l31.015625 28.203126-41.171875 7.890624"/><path d="M2912.03125 1689.179688l45.9375 19.140624"/><path d="M2930.546875 1676.5625l27.421875 31.757812-41.835938 2.890626"/><path d="M2909.492188 1812.851562l51.015624 26.796876"/><path d="M2936.015625 1805.625l24.492187 34.023438-41.914062-.820313"/><path d="M2906.953125 1936.523438l56.09375 34.453124"/><path d="M2940.898438 1935.351562l22.148437 35.625-41.757813-3.632812"/><path d="M2904.414062 2060.195312l61.171876 42.109376"/><path d="M2945.3125 2065.585938l20.273438 36.71875-41.523438-5.820313"/><path d="M2901.835938 2183.90625l66.328124 49.6875"/><path d="M2949.414062 2196.09375l18.75 37.5-41.25-7.5"/><path d="M2899.296875 2307.578125l71.40625 57.34375"/><path d="M2953.203125 2326.835938l17.5 38.085937-40.976563-8.867187"/><path d="M2896.757812 2431.25l76.484376 65.039062"/><path d="M2956.835938 2457.695312l16.40625 38.59375-40.703126-10"/><path d="M2894.21875 2554.921875l81.5625 72.65625"/><path d="M2960.273438 2588.632812l15.507812 38.945313-40.46875-10.9375"/><path d="M3110.117188 205.078125l-10.234376-72.65625"/><path d="M3086.523438 172.148438l13.359374-39.726563 23.789063 34.53125"/><path d="M3107.539062 328.75l-5.078124-65"/><path d="M3086.679688 302.578125l15.78125-38.828125 21.601562 35.898438"/><path d="M3105 452.421875v-57.34375"/><path d="M3086.25 432.578125l18.75-37.5 18.75 37.5"/><path d="M3102.460938 576.09375l5.078124-49.6875"/><path d="M3085.078125 561.796875l22.460937-35.390625 14.84375 39.21875"/><path d="M3099.882812 699.804688l10.234376-42.070313"/><path d="M3083.046875 689.726562l27.070313-31.992187 9.375 40.859375"/><path d="M3097.34375 823.476562l15.3125-34.453124"/><path d="M3080.273438 815.703125l32.382812-26.679687 1.875 41.914062"/><path d="M3094.804688 947.148438l20.390624-26.796876"/><path d="M3077.539062 938.828125l37.65625-18.476563-7.8125 41.210938"/><path d="M3092.265625 1070.820312l25.46875-19.140624"/><path d="M3076.484375 1059.179688l41.25-7.5-18.75 37.5"/><path d="M3089.6875 1194.492188l30.625-11.484376"/><path d="M3078.59375 1178.632812l41.71875 4.375-28.554688 30.742188"/><path d="M3087.148438 1318.164062l35.703124-3.828124"/><path d="M3083.554688 1299.6875l39.296874 14.648438-35.273437 22.65625"/><path d="M3084.609375 1441.835938l40.78125 3.828124"/><path d="M3089.804688 1423.515625l35.585937 22.148437-39.0625 15.15625"/><path d="M3082.03125 1565.507812l45.9375 11.484376"/><path d="M3096.132812 1549.6875l31.835938 27.304688-40.9375 9.101562"/><path d="M3079.492188 1689.179688l51.015624 19.140624"/><path d="M3101.953125 1677.578125l28.554687 30.742187-41.71875 4.375"/><path d="M3076.953125 1812.851562l56.09375 26.796876"/><path d="M3107.265625 1806.5625l25.78125 33.085938-41.914063.742187"/><path d="M3074.414062 1936.523438l61.171876 34.453124"/><path d="M3112.109375 1936.25l23.476563 34.726562-41.875-2.070312"/><path d="M3071.835938 2060.195312l66.328124 42.109376"/><path d="M3116.523438 2066.367188l21.640624 35.9375-41.71875-4.257813"/><path d="M3069.296875 2183.90625l71.40625 49.6875"/><path d="M3120.625 2196.796875l20.078125 36.796875-41.484375-6.015625"/><path d="M3066.757812 2307.578125l76.484376 57.34375"/><path d="M3124.492188 2327.421875l18.75 37.5-41.25-7.5"/><path d="M3064.21875 2431.25l81.5625 65.039062"/><path d="M3128.164062 2458.242188l17.617188 38.046874-40.976562-8.710937"/><path d="M3061.640625 2554.921875l86.71875 72.65625"/><path d="M3131.640625 2589.140625l16.71875 38.4375-40.78125-9.726563"/><path d="M3277.539062 205.078125l-5.078124-72.65625"/><path d="M3256.367188 171.132812l16.09375-38.710937 21.328124 36.09375"/><path d="M3275 328.75v-65"/><path d="M3256.25 301.25l18.75-37.5 18.75 37.5"/><path d="M3272.460938 452.421875l5.078124-57.34375"/><path d="M3255.546875 430.742188l21.992187-35.664063 15.351563 38.984375"/><path d="M3269.882812 576.09375l10.234376-49.6875"/><path d="M3254.21875 559.375l25.898438-32.96875L3290.9375 566.875"/><path d="M3267.34375 699.804688l15.3125-42.070313"/><path d="M3252.226562 686.5625l30.429688-28.828125 4.804688 41.640625"/><path d="M3264.804688 823.476562l20.390624-34.453124"/><path d="M3249.960938 811.71875l35.234374-22.695312-2.96875 41.835937"/><path d="M3262.265625 947.148438l25.46875-26.796876"/><path d="M3248.320312 934.609375l39.414063-14.257813-12.265625 40.117188"/><path d="M3259.6875 1070.820312l30.625-19.140624"/><path d="M3248.554688 1055.664062l41.757812-3.984374-21.875 35.78125"/><path d="M3257.148438 1194.492188l35.703124-11.484376"/><path d="M3251.40625 1176.640625l41.445312 6.367187-29.960937 29.335938"/><path d="M3254.609375 1318.164062l40.78125-3.828124"/><path d="M3256.328125 1299.179688l39.0625 15.15625-35.585937 22.1875"/><path d="M3252.03125 1441.835938l45.9375 3.828124"/><path d="M3262.148438 1423.867188l35.820312 21.796874-38.945312 15.546876"/><path d="M3249.492188 1565.507812l51.015624 11.484376"/><path d="M3268.046875 1550.46875l32.460937 26.523438-40.703124 10.039062"/><path d="M3246.953125 1689.179688l56.09375 19.140624"/><path d="M3273.59375 1678.476562l29.453125 29.84375-41.5625 5.625"/><path d="M3244.414062 1812.851562l61.171876 26.796876"/><path d="M3278.75 1807.421875l26.835938 32.226563-41.875 2.148437"/><path d="M3241.835938 1936.523438l66.328124 34.453124"/><path d="M3283.515625 1937.03125l24.648437 33.945312-41.953124-.664062"/><path d="M3239.296875 2060.195312l71.40625 42.109376"/><path d="M3287.890625 2067.109375l22.8125 35.195313-41.835937-2.890626"/><path d="M3236.757812 2183.90625l76.484376 49.6875"/><path d="M3292.03125 2197.460938l21.210938 36.132812-41.640626-4.6875"/><path d="M3234.21875 2307.578125l81.5625 57.34375"/><path d="M3295.898438 2328.046875l19.882812 36.875-41.445312-6.210937"/><path d="M3231.640625 2431.25l86.71875 65.039062"/><path d="M3299.609375 2458.789062l18.75 37.5-41.25-7.5"/><path d="M3229.101562 2554.921875l91.796876 72.65625"/><path d="M3303.125 2589.609375l17.773438 37.96875-41.054688-8.554687"/><path d="M3445 205.078125v-72.65625"/><path d="M3426.25 169.921875l18.75-37.5 18.75 37.5"/><path d="M3442.460938 328.75l5.078124-65"/><path d="M3425.9375 299.648438 3447.539062 263.75l15.78125 38.828125"/><path d="M3439.882812 452.421875l10.234376-57.34375"/><path d="M3425.078125 428.710938l25.039063-33.632813 11.875 40.195313"/><path d="M3437.34375 576.09375l15.3125-49.6875"/><path d="M3423.710938 556.71875l28.945312-30.3125 6.875 41.328125"/><path d="M3434.804688 699.804688l20.390624-42.070313"/><path d="M3421.953125 683.28125l33.242187-25.546875.507813 41.914063"/><path d="M3432.265625 823.476562l25.46875-34.453124"/><path d="M3420.351562 808.007812l37.382813-18.984374-7.226563 41.289062"/><path d="M3429.6875 947.148438l30.625-26.796876"/><path d="M3419.726562 930.9375l40.585938-10.585938-15.898438 38.828126"/><path d="M3427.148438 1070.820312l35.703124-19.140624"/><path d="M3420.9375 1052.851562l41.914062-1.171874-24.21875 34.257812"/><path d="M3424.609375 1194.492188l40.78125-11.484376"/><path d="M3424.21875 1175.117188l41.171875 7.890624-31.015625 28.203126"/><path d="M3422.03125 1318.164062l45.9375-3.828124"/><path d="M3429.023438 1298.789062l38.945312 15.546876-35.820312 21.796874"/><path d="M3419.492188 1441.835938l51.015624 3.828124"/><path d="M3434.492188 1424.140625l36.015624 21.523437-38.789062 15.898438"/><path d="M3416.953125 1565.507812l56.09375 11.484376"/><path d="M3440.078125 1551.09375l32.96875 25.898438-40.507813 10.859374"/><path d="M3414.414062 1689.179688l61.171876 19.140624"/><path d="M3445.390625 1679.21875l30.195313 29.101562-41.367188 6.71875"/><path d="M3411.835938 1812.851562l66.328124 26.796876"/><path d="M3450.390625 1808.203125l27.773437 31.445313-41.796874 3.320312"/><path d="M3409.296875 1936.523438l71.40625 34.453124"/><path d="M3455.078125 1937.773438l25.625 33.203124-41.914063.585938"/><path d="M3406.757812 2060.195312l76.484376 42.109376"/><path d="M3459.414062 2067.773438l23.828126 34.53125-41.875-1.679688"/><path d="M3404.21875 2183.90625l81.5625 49.6875"/><path d="M3463.515625 2198.085938l22.265625 35.507812-41.757812-3.476562"/><path d="M3401.640625 2307.578125l86.71875 57.34375"/><path d="M3467.421875 2328.59375l20.9375 36.328125-41.640625-5.039063"/><path d="M3399.101562 2431.25l91.796876 65.039062"/><path d="M3471.132812 2459.296875l19.765626 36.992187-41.445313-6.40625"/><path d="M3396.5625 2554.921875l96.875 72.65625"/><path d="M3474.6875 2590.078125l18.75 37.5-41.25-7.5"/></g><g clip-path="url(#w)"><path d="M-3836.679688 1380H7496.679688" class="g"/></g><g clip-path="url(#x)"><path d="M-3836.679688-2870 7496.679688 5630" class="g"/></g><g style="fill:none;stroke-width:18.75;stroke-linecap:round;stroke:red;stroke-miterlimit:10;transform:matrix(.1,0,0,-.1,0,275)"><path d="M1830 1380h566.679688"/><path d="M2298.75 1336.25l97.929688 43.75-97.929688 50"/><path d="M1830 1380l566.679688 425"/><path d="M2348.75 1711.25l47.929688 93.75L2292.5 1786.25"/></g><g clip-path="url(#y)"><path d="M1716.679688 1384.257812l-5.507813.429688-5.78125.507812-6.015625.546876-6.25.585937-6.601562.664063-6.835938.742187-7.148438.820313-7.460937.898437-7.773437 1.015625-8.085938 1.09375-8.4375 1.210938-8.789062 1.328124-9.140626 1.484376-9.492187 1.640624-9.882813 1.835938-10.273437 1.992188-10.585937 2.226562-11.015626 2.421875-11.40625 2.695313-11.796874 3.007812-12.1875 3.320312-12.578126 3.632813-12.929687 4.023437-13.320313 4.453126-13.710937 4.960937-14.023437 5.429687-14.375 6.015626-14.648438 6.640624-14.960938 7.34375-15.15625 8.125-15.390624 8.984376-15.507813 9.921874-15.625 10.976563-15.585937 12.109375-15.546876 13.398438-15.390624 14.804687-15.078126 16.367187-14.6875 18.046876-14.179687 20-13.4375 22.070312-12.539063 24.414062-11.445312 26.992188-10.078125 29.804688-8.4375 32.929687-6.523437 36.40625-4.257813 40.234375-1.5625 44.453125 1.5625 49.140625 5.15625 54.335938 9.335937 60 14.101563 66.367187 19.648437 73.28125 25.859376 81.054687 33.046874 89.53125 41.171876 98.945313 50.390624 109.375 60.820313 120.898437 72.617187 133.59375 85.976563 147.617188" class="b"/></g><g clip-path="url(#z)"><path d="M1773.320312 1384.257812l-2.578124.429688-2.695313.507812-2.8125.546876-2.929687.585937-3.007813.664063-3.125.742187-3.203125.820313-3.359375.898437-3.4375 1.015625-3.554687 1.09375-3.632813 1.210938-3.75 1.328124-3.828125 1.484376-3.945312 1.640624-4.023438 1.835938-4.101562 1.992188-4.140626 2.226562-4.21875 2.421875-4.257812 2.695313-4.296875 3.007812-4.257813 3.320312-4.296874 3.632813-4.21875 4.023437-4.140626 4.453126-4.0625 4.960937-3.867187 5.429687-3.710937 6.015626-3.476563 6.640624-3.125 7.34375-2.8125 8.125-2.34375 8.984376-1.835937 9.921874-1.210938 10.976563-.46875 12.109375.351562 13.398438 1.328126 14.804687 2.5 16.367187 3.789062 18.046876 5.273438 20 6.953124 22.070312 8.945313 24.414062 11.132813 26.992188L1712.5 1693.242188l16.484375 32.929687 19.6875 36.40625 23.359375 40.234375 27.382812 44.453125 32.03125 49.140625 37.1875 54.335938 43.007813 60 49.492187 66.367187 56.835938 73.28125 65 81.054687 74.140625 89.53125 84.414063 98.945313 95.820312 109.375 108.632812 120.898437 122.851563 133.59375 138.789063 147.617188" class="b"/></g><g clip-path="url(#A)"><path d="M1773.320312 1375.742188l-3.203124-.429688-3.398438-.507812-3.632812-.546876-3.828126-.585937-4.101562-.664063-4.335938-.742187-4.609374-.820313-4.921876-.898437-5.195312-1.015625-5.585938-1.09375-5.9375-1.210938-6.328124-1.328124-6.71875-1.484376-7.1875-1.640624-7.695313-1.835938-8.203125-1.992188-8.789062-2.1875-9.375-2.460937-10.039063-2.695313-10.742187-3.007812-11.523438-3.28125-12.34375-3.671875-13.203125-4.023437-14.21875-4.453126-15.234375-4.921874-16.40625-5.46875-17.617188-6.015626L1530 1310.117188l-20.390625-7.34375-21.992187-8.125-23.710938-8.984376-25.546875-9.921874-27.578125-10.976563-29.765625-12.109375-32.148437-13.398438-34.804688-14.804687-37.617188-16.367187-40.742187-18.046876-44.101563-20-47.8125-22.070312-51.875-24.414062L1035.625 1096.5625l-61.09375-29.765625-66.367188-32.96875-72.148437-36.40625-78.4375-40.234375-85.390625-44.453125-92.929688-49.140625-101.25-54.335938-110.3125-60-120.3125-66.328124-131.25-73.320313-143.242187-81.015625-156.367187-89.570312" class="b"/></g><g clip-path="url(#B)"><path d="M1824.335938 1375.742188l-.625-.429688-.625-.507812-.742188-.546876-.820312-.585937-.859376-.664063-.976562-.742187-1.09375-.820313-1.210938-.898437-1.328124-1.015625-1.445313-1.09375-1.640625-1.210938-1.796875-1.328124-1.953125-1.484376-2.1875-1.640624-2.421875-1.835938-2.695313-1.992188-2.929687-2.1875-6.875-5.15625-3.984375-3.007812-4.414062-3.28125-4.84375-3.671875-5.390626-4.023437-12.5-9.375-7.265624-5.46875-8.046876-6.015626-8.867187-6.640624-9.804687-7.34375-10.820313-8.125-11.953125-8.984376-13.242188-9.921874-14.609374-10.976563-16.171876-12.109375-17.851562-13.398438-19.726562-14.804687-21.835938-16.367187-24.101562-18.046876-26.640626-20-29.414062-22.070312-32.539062-24.414062-35.976563-26.992188-39.726563-29.765625-43.945312-32.96875-48.554688-36.40625L1266.25 957.1875l-59.296875-44.453125-65.507813-49.140625-72.421874-54.335938-80.039063-60-88.4375-66.328124-97.734375-73.320313-108.046875-81.015625-119.414063-89.570312L443.4375 340.078125l-145.859375-109.375L136.40625 109.804688-41.679688-23.75-238.515625-171.40625" class="b"/></g><g clip-path="url(#C)"><path d="M1824.335938 1380H-238.554688" class="b"/></g><g clip-path="url(#D)"><path d="M1858.320312 1384.257812l1.757813.429688 1.875.507812 2.03125.546876 2.148437.585937 2.304688.664063 2.5.742187 2.617188.820313 2.851562.898437 3.085938 1.015625 3.28125 1.09375 3.554687 1.210938 3.789063 1.328124 4.101562 1.484376 4.414062 1.640624 4.765626 1.835938 5.117187 1.992188 5.546875 2.226562 5.976562 2.421875 6.445313 2.695313 6.992187 3.007812 7.578126 3.320312 8.164062 3.632813 8.90625 4.023437 9.609375 4.453126 10.429687 4.960937 11.289063 5.429687 12.304687 6.015626 13.359376 6.640624 14.492187 7.34375 15.78125 8.125 17.1875 8.984376 18.710937 9.921874 20.351563 10.976563 22.226563 12.109375 24.21875 13.398438 26.40625 14.804687 28.867187 16.367187 31.484375 18.046876 34.414062 20 37.617188 22.070312 41.132812 24.414062 44.960938 26.992188 49.257812 29.804688 53.90625 32.929687 59.023438 36.40625 64.648438 40.234375 70.898437 44.453125 77.695313 49.140625 85.234374 54.335938 93.515626 60 102.617187 66.367187 112.617187 73.28125 123.671876 81.054687 135.859374 89.53125 149.21875 98.945313 164.023438 109.375 180.273438 120.898437" class="b"/></g><g clip-path="url(#E)"><path d="M1858.320312 1375.742188l1.171876-.429688 1.171874-.507812 1.210938-.546876 1.210938-.585937 1.210937-.664063 1.289063-.742187 1.25-.820313 1.289062-.898437 1.25-1.015625 1.289062-1.09375 1.25-1.210938 1.210938-1.328124 1.210938-1.484376 1.132812-1.640624 1.09375-1.835938 1.054688-1.992188.898437-2.1875.820313-2.460937.703124-2.695313.507813-3.007812.351563-3.28125.117187-3.671875-.15625-4.023437-.429687-4.453126-.78125-4.921874-1.171876-5.46875-1.640624-6.015626-2.148438-6.640624-2.734375-7.34375-3.398437-8.125-4.140626-8.984376-5.039062-9.921874-5.976562-10.976563-7.070313-12.109375-8.320313-13.398438-9.726562-14.804687-11.25-16.367187-13.007812-18.046876-15-20-17.1875-22.070312-19.648438-24.414062-22.421875-26.992188-25.507813-29.765625-28.945312-32.96875-32.851562-36.40625-37.070313-40.234375-41.914063-44.453125-47.265624-49.140625-53.164063-54.335938-59.84375-60-67.226563-66.328124-75.429687-73.320313-84.53125-81.015625-94.726563-89.570312-106.015624-98.945313-118.554688-109.375-132.5-120.898437L576.210938-23.75l-165.15625-147.65625" class="b"/></g><g clip-path="url(#F)"><path d="M1886.679688 1375.742188l2.578124-.429688 2.695313-.507812 2.8125-.546876 2.929687-.585937 3.007813-.664063 3.125-.742187 3.203125-.820313 3.359375-.898437 3.4375-1.015625 3.554687-1.09375 3.632813-1.210938 3.75-1.328124 3.828125-1.484376 3.945312-1.640624 4.023438-1.835938 4.101562-1.992188 4.140626-2.1875 4.21875-2.460937 4.257812-2.695313 4.296875-3.007812 4.257813-3.28125 4.296874-3.671875 4.21875-4.023437 4.140626-4.453126 4.023437-4.921874 3.90625-5.46875 3.710937-6.015626 3.476563-6.640624 3.125-7.34375 2.8125-8.125 2.34375-8.984376 1.835937-9.921874 1.210938-10.976563.46875-12.109375-.351562-13.398438-1.367188-14.804687-2.460938-16.367187-3.789062-18.046876-5.273438-20-6.992187-22.070312-8.90625-24.414062-11.132813-26.992188L1947.5 1066.796875l-16.484375-32.96875-19.726563-36.40625-23.320312-40.234375-27.382812-44.453125-32.03125-49.140625-37.1875-54.335938-43.007813-60-49.492187-66.328124-56.835938-73.320313-65-81.015625-74.140625-89.570312-84.414063-98.945313-95.820312-109.375-108.632812-120.898437L1091.171875-23.75 952.382812-171.40625" class="b"/></g><g clip-path="url(#G)"><path d="M1943.320312 1375.742188l5.507813-.429688 5.78125-.507812 6.015625-.546876 6.25-.585937 6.5625-.664063 6.875-.742187 7.148438-.820313 7.460937-.898437 7.773437-1.015625 8.085938-1.09375 8.4375-1.210938 8.789062-1.328124 9.140626-1.484376 9.492187-1.640624 9.882813-1.835938 10.234374-1.992188 10.625-2.1875 11.015626-2.460937 11.40625-2.695313 11.796874-3.007812 12.1875-3.28125 12.578126-3.671875 12.929687-4.023437 13.320313-4.453126 13.710937-4.921874 14.023437-5.46875 14.375-6.015626 14.648438-6.640624 14.960938-7.34375 15.15625-8.125 15.390624-8.984376 15.507813-9.921874 15.585937-10.976563 15.625-12.109375 15.546876-13.398438 15.390624-14.804687 15.078126-16.367187 14.6875-18.046876 14.179687-20 13.398437-22.070312 12.578126-24.414062 11.445312-26.992188 10.078125-29.765625 8.4375-32.96875 6.523437-36.40625 4.21875-40.234375 1.601563-44.453125-1.5625-49.140625-5.15625-54.335938-9.335937-60-14.101563-66.328124-19.648437-73.320313-25.859376-81.015625-33.046874-89.570312-41.171876-98.945313-50.390624-109.375-60.820313-120.898437L2121.015625-23.75l-85.9375-147.65625" class="b"/></g><g clip-path="url(#H)"><path d="M1886.679688 1422.5l5.9375 4.453125 6.601562 4.960937 7.265625 5.46875 8.046875 6.015626 8.90625 6.679687 9.804688 7.34375 10.859374 8.164063 11.992188 9.023437 13.28125 9.921875 14.648438 11.015625 16.210937 12.148437 17.890625 13.398438 19.804688 14.84375 21.875 16.40625 24.140624 18.125 56.25 42.1875 32.617188 24.453125 36.054688 27.03125 39.84375 29.882813 44.023437 33.046874 48.671875 36.484376 53.789062 40.351562 59.453126 44.570312 65.703124 49.296876 72.578126 54.453124 80.234374 60.15625 88.710938 66.523438 98.007812 73.476562 108.28125 81.25 119.726563 89.765626 132.265625 99.21875 146.210938 109.6875 161.601562 121.171874 178.554688 133.945313 197.382812 148.007813" class="b"/></g><g clip-path="url(#I)"><path d="M1886.679688 1380H3903.90625" class="b"/></g><style>.a{fill:none;stroke:#bfbfbf;stroke-dasharray:12.5,18.75;stroke-linecap:round;stroke-miterlimit:10;stroke-width:6.25;transform:matrix(.1,0,0,-.1,0,275)}.b{fill:none;stroke:red;stroke-linecap:round;stroke-miterlimit:10;stroke-width:12.5;transform:matrix(.1,0,0,-.1,0,275)}.c{fill:none;stroke:#000;stroke-miterlimit:10;transform:matrix(.1,0,0,-.1,0,275)}.d{stroke-linecap:square;stroke-width:12.5}.e{stroke-width:6.25}.f{fill:none;stroke:#bfbfbf;stroke-linecap:round;stroke-miterlimit:10;stroke-width:6.25;transform:matrix(.1,0,0,-.1,0,275)}.g{fill:none;stroke:#000;stroke-linecap:round;stroke-miterlimit:10;stroke-width:6.25;transform:matrix(.1,0,0,-.1,0,275)}</style></svg>