<svg xmlns="http://www.w3.org/2000/svg" width="366pt" height="275pt" viewBox="0 0 366 275"><defs><path d="M2.125-2.3437H.3438v.5469H2.125zm0 0" id="b"/><path d="M1.6563-2.4375h.3594c.734375 0 1.109375.328125 1.109375.953125C3.125-.8125 2.703125-.40625 2.015625-.40625 1.296875-.40625.9375-.765625.90625-1.546875H.2344C.265625-1.125.34375-.84375.46875-.59375.75-.09375 1.265625.171875 2 .171875c1.09375 0 1.796875-.65625 1.796875-1.65625 0-.671875-.265625-1.046875-.90625-1.265625.5-.203125.75-.578125.75-1.109375 0-.90625-.609375-1.453125-1.625-1.453125C.9375-5.3125.375-4.734375.359375-3.59375h.6563c0-.328125.03125-.515625.109375-.671875.15625-.296875.484375-.46875.90625-.46875.578125 0 .9375.34375.9375.90625 0 .375-.140625.59375-.4375.71875C2.359375-3.03125 2.125-3 1.65625-3zm0 0" id="c"/><path d="M3.7969-.6562H1c.0625-.4375.3125-.703125.953125-1.09375l.75-.4062c.75-.40625 1.125-.953125 1.125-1.59375 0-.453125-.171875-.859375-.484375-1.140625C3.015625-5.1875 2.625-5.3125 2.125-5.3125c-.671875 0-1.171875.234375-1.46875.6875-.1875.28125-.265625.609375-.28125 1.15625h.6563c.03125-.359375.078125-.578125.15625-.75.171875-.328125.515625-.515625.921875-.515625.59375 0 1.046875.421875 1.046875.984375 0 .421875-.25.78125-.71875 1.0625l-.6875.3906C.640625-1.671875.3125-1.171875.25 0h3.5469zm0 0" id="d"/><path d="M1.9375-3.7812V0h.6719v-5.3125h-.4375c-.2344.8125-.39065.921875-1.406275 1.046875v.4844zm0 0" id="e"/><path d="M2.0625-5.3125c-.5 0-.9375.21875-1.21875.578125C.5-4.265625.328125-3.5625.328125-2.578125c0 1.796875.59375 2.75 1.734375 2.75 1.125 0 1.734375-.953125 1.734375-2.703125 0-1.03125-.15625-1.71875-.515625-2.203125C3-5.109375 2.5625-5.3125 2.0625-5.3125zm0 .5781c.71875 0 1.0625.71875 1.0625 2.140625C3.125-1.078125 2.78125-.375 2.046875-.375 1.34375-.375 1-1.109375 1-2.5625c0-1.453125.34375-2.171875 1.0625-2.171875zm0 0" id="f"/><clipPath id="g"><path d="M182 9.5h2v255h-2zm0 0"/></clipPath><clipPath id="h"><use href="#a"/></clipPath><clipPath id="i"><path d="M13 9.5h1v255h-1zm0 0"/></clipPath><clipPath id="j"><path d="M69 9.5h1v255h-1zm0 0"/></clipPath><clipPath id="k"><path d="M126 9.5h1v255h-1zm0 0"/></clipPath><clipPath id="l"><path d="M182 9.5h2v255h-2zm0 0"/></clipPath><clipPath id="m"><path d="M239 9.5h1v255h-1zm0 0"/></clipPath><clipPath id="n"><path d="M296 9.5h1v255h-1zm0 0"/></clipPath><clipPath id="o"><path d="M352 9.5h1v255h-1zm0 0"/></clipPath><clipPath id="p"><path d="M13 264h340v.5H13zm0 0"/></clipPath><clipPath id="q"><path d="M13 221h340v2H13zm0 0"/></clipPath><clipPath id="r"><path d="M13 179h340v1H13zm0 0"/></clipPath><clipPath id="s"><use href="#a"/></clipPath><clipPath id="t"><path d="M13 94h340v1H13zm0 0"/></clipPath><clipPath id="u"><path d="M13 51h340v2H13zm0 0"/></clipPath><clipPath id="v"><path d="M13 9.5h340v.5H13zm0 0"/></clipPath><clipPath id="w"><use href="#a"/></clipPath><clipPath id="x"><path d="M13 9.5h340v255H13zm0 0"/></clipPath><clipPath id="y"><path d="M156 110h111v154.5H156zm0 0"/></clipPath><clipPath id="z"><path d="M184 174h83v90.5h-83zm0 0"/></clipPath><clipPath id="A"><path d="M13 121h217v143.5H13zm0 0"/></clipPath><clipPath id="B"><path d="M13 153h132v111.5H13zm0 0"/></clipPath><clipPath id="C"><path d="M272 129h81v135.5h-81zm0 0"/></clipPath><clipPath id="D"><path d="M165 9.5h188V146H165zm0 0"/></clipPath><clipPath id="E"><path d="M13 9.5h81V145H13zm0 0"/></clipPath><clipPath id="F"><path d="M13 9.5h121V153H13zm0 0"/></clipPath><clipPath id="G"><path d="M136 9.5h217V153H136zm0 0"/></clipPath><clipPath id="H"><path d="M221 9.5h132V121H221zm0 0"/></clipPath><path id="a" d="M13 136h340v2H13zm0 0"/></defs><g clip-path="url(#g)"><path d="M1830 105v2550" class="g"/></g><g clip-path="url(#h)"><path d="M130 1380h3400" class="g"/></g><g clip-path="url(#i)"><path d="M130 105v2550" class="a"/></g><g clip-path="url(#j)"><path d="M696.679688 105v2550" class="a"/></g><g clip-path="url(#k)"><path d="M1263.320312 105v2550" class="a"/></g><g clip-path="url(#l)"><path d="M1830 105v2550" class="a"/></g><g clip-path="url(#m)"><path d="M2396.679688 105v2550" class="a"/></g><g clip-path="url(#n)"><path d="M2963.320312 105v2550" class="a"/></g><g clip-path="url(#o)"><path d="M3530 105v2550" class="a"/></g><g clip-path="url(#p)"><path d="M130 105h3400" class="a"/></g><g clip-path="url(#q)"><path d="M130 530h3400" class="a"/></g><g clip-path="url(#r)"><path d="M130 955h3400" class="a"/></g><g clip-path="url(#s)"><path d="M130 1380h3400" class="a"/></g><g clip-path="url(#t)"><path d="M130 1805h3400" class="a"/></g><g clip-path="url(#u)"><path d="M130 2230h3400" class="a"/></g><g clip-path="url(#v)"><path d="M130 2655h3400" class="a"/></g><g class="c"><path d="M130 105h3400" class="d"/><g class="e"><path d="M130 105v50"/><path d="M186.679688 105v25"/><path d="M243.320312 105v25"/><path d="M300 105v25"/><path d="M356.679688 105v25"/><path d="M413.320312 105v25"/><path d="M470 105v25"/><path d="M526.679688 105v25"/><path d="M583.320312 105v25"/><path d="M640 105v25"/><path d="M696.679688 105v50"/><path d="M753.320312 105v25"/><path d="M810 105v25"/><path d="M866.679688 105v25"/><path d="M923.320312 105v25"/><path d="M980 105v25"/><path d="M1036.679688 105v25"/><path d="M1093.320312 105v25"/><path d="M1150 105v25"/><path d="M1206.679688 105v25"/><path d="M1263.320312 105v50"/><path d="M1320 105v25"/><path d="M1376.679688 105v25"/><path d="M1433.320312 105v25"/><path d="M1490 105v25"/><path d="M1546.679688 105v25"/><path d="M1603.320312 105v25"/><path d="M1660 105v25"/><path d="M1716.679688 105v25"/><path d="M1773.320312 105v25"/><path d="M1830 105v50"/><path d="M1886.679688 105v25"/><path d="M1943.320312 105v25"/><path d="M2000 105v25"/><path d="M2056.679688 105v25"/><path d="M2113.320312 105v25"/><path d="M2170 105v25"/><path d="M2226.679688 105v25"/><path d="M2283.320312 105v25"/><path d="M2340 105v25"/><path d="M2396.679688 105v50"/><path d="M2453.320312 105v25"/><path d="M2510 105v25"/><path d="M2566.679688 105v25"/><path d="M2623.320312 105v25"/><path d="M2680 105v25"/><path d="M2736.679688 105v25"/><path d="M2793.320312 105v25"/><path d="M2850 105v25"/><path d="M2906.679688 105v25"/><path d="M2963.320312 105v50"/><path d="M3020 105v25"/><path d="M3076.679688 105v25"/><path d="M3133.320312 105v25"/><path d="M3190 105v25"/><path d="M3246.679688 105v25"/><path d="M3303.320312 105v25"/><path d="M3360 105v25"/><path d="M3416.679688 105v25"/><path d="M3473.320312 105v25"/><path d="M3530 105v50"/></g></g><use x="9.0418" y="274.5" href="#b"/><use x="11.5393" y="274.5" href="#c"/><use x="65.9168" y="274.5" href="#b"/><use x="68.4143" y="274.5" href="#d"/><use x="122.7918" y="274.5" href="#b"/><use x="125.2893" y="274.5" href="#e"/><use x="180.9152" y="274.5" href="#f"/><use x="237.1652" y="274.5" href="#e"/><use x="294.0402" y="274.5" href="#d"/><use x="350.9151" y="274.5" href="#c"/><g class="c"><path d="M130 2655h3400" class="d"/><g class="e"><path d="M130 2655v-50"/><path d="M186.679688 2655v-25"/><path d="M243.320312 2655v-25"/><path d="M300 2655v-25"/><path d="M356.679688 2655v-25"/><path d="M413.320312 2655v-25"/><path d="M470 2655v-25"/><path d="M526.679688 2655v-25"/><path d="M583.320312 2655v-25"/><path d="M640 2655v-25"/><path d="M696.679688 2655v-50"/><path d="M753.320312 2655v-25"/><path d="M810 2655v-25"/><path d="M866.679688 2655v-25"/><path d="M923.320312 2655v-25"/><path d="M980 2655v-25"/><path d="M1036.679688 2655v-25"/><path d="M1093.320312 2655v-25"/><path d="M1150 2655v-25"/><path d="M1206.679688 2655v-25"/><path d="M1263.320312 2655v-50"/><path d="M1320 2655v-25"/><path d="M1376.679688 2655v-25"/><path d="M1433.320312 2655v-25"/><path d="M1490 2655v-25"/><path d="M1546.679688 2655v-25"/><path d="M1603.320312 2655v-25"/><path d="M1660 2655v-25"/><path d="M1716.679688 2655v-25"/><path d="M1773.320312 2655v-25"/><path d="M1830 2655v-50"/><path d="M1886.679688 2655v-25"/><path d="M1943.320312 2655v-25"/><path d="M2000 2655v-25"/><path d="M2056.679688 2655v-25"/><path d="M2113.320312 2655v-25"/><path d="M2170 2655v-25"/><path d="M2226.679688 2655v-25"/><path d="M2283.320312 2655v-25"/><path d="M2340 2655v-25"/><path d="M2396.679688 2655v-50"/><path d="M2453.320312 2655v-25"/><path d="M2510 2655v-25"/><path d="M2566.679688 2655v-25"/><path d="M2623.320312 2655v-25"/><path d="M2680 2655v-25"/><path d="M2736.679688 2655v-25"/><path d="M2793.320312 2655v-25"/><path d="M2850 2655v-25"/><path d="M2906.679688 2655v-25"/><path d="M2963.320312 2655v-50"/><path d="M3020 2655v-25"/><path d="M3076.679688 2655v-25"/><path d="M3133.320312 2655v-25"/><path d="M3190 2655v-25"/><path d="M3246.679688 2655v-25"/><path d="M3303.320312 2655v-25"/><path d="M3360 2655v-25"/><path d="M3416.679688 2655v-25"/><path d="M3473.320312 2655v-25"/><path d="M3530 2655v-50"/></g></g><use x="9.0418" y="6.375" href="#b"/><use x="11.5393" y="6.375" href="#c"/><use x="65.9168" y="6.375" href="#b"/><use x="68.4143" y="6.375" href="#d"/><use x="122.7918" y="6.375" href="#b"/><use x="125.2893" y="6.375" href="#e"/><use x="180.9152" y="6.375" href="#f"/><use x="237.1652" y="6.375" href="#e"/><use x="294.0402" y="6.375" href="#d"/><use x="350.9151" y="6.375" href="#c"/><g class="c"><path d="M130 105v2550" class="d"/><g class="e"><path d="M130 105h50"/><path d="M130 147.5h25"/><path d="M130 190h25"/><path d="M130 232.5h25"/><path d="M130 275h25"/><path d="M130 317.5h25"/><path d="M130 360h25"/><path d="M130 402.5h25"/><path d="M130 445h25"/><path d="M130 487.5h25"/><path d="M130 530h50"/><path d="M130 572.5h25"/><path d="M130 615h25"/><path d="M130 657.5h25"/><path d="M130 700h25"/><path d="M130 742.5h25"/><path d="M130 785h25"/><path d="M130 827.5h25"/><path d="M130 870h25"/><path d="M130 912.5h25"/><path d="M130 955h50"/><path d="M130 997.5h25"/><path d="M130 1040h25"/><path d="M130 1082.5h25"/><path d="M130 1125h25"/><path d="M130 1167.5h25"/><path d="M130 1210h25"/><path d="M130 1252.5h25"/><path d="M130 1295h25"/><path d="M130 1337.5h25"/><path d="M130 1380h50"/><path d="M130 1422.5h25"/><path d="M130 1465h25"/><path d="M130 1507.5h25"/><path d="M130 1550h25"/><path d="M130 1592.5h25"/><path d="M130 1635h25"/><path d="M130 1677.5h25"/><path d="M130 1720h25"/><path d="M130 1762.5h25"/><path d="M130 1805h50"/><path d="M130 1847.5h25"/><path d="M130 1890h25"/><path d="M130 1932.5h25"/><path d="M130 1975h25"/><path d="M130 2017.5h25"/><path d="M130 2060h25"/><path d="M130 2102.5h25"/><path d="M130 2145h25"/><path d="M130 2187.5h25"/><path d="M130 2230h50"/><path d="M130 2272.5h25"/><path d="M130 2315h25"/><path d="M130 2357.5h25"/><path d="M130 2400h25"/><path d="M130 2442.5h25"/><path d="M130 2485h25"/><path d="M130 2527.5h25"/><path d="M130 2570h25"/><path d="M130 2612.5h25"/><path d="M130 2655h50"/></g></g><use x="-.5418" y="268.25" href="#b"/><use x="1.9557" y="268.25" href="#c"/><use x="-.5418" y="225.125" href="#b"/><use x="1.9557" y="225.125" href="#d"/><use x="-.5418" y="183.25" href="#b"/><use x="1.9557" y="183.25" href="#e"/><use x="1.9551" y="140.125" href="#f"/><use x="1.9551" y="98.25" href="#e"/><use x="1.9551" y="55.125" href="#d"/><use x="1.9551" y="12.625" href="#c"/><g class="c"><path d="M3530 105v2550" class="d"/><g class="e"><path d="M3530 105h-50"/><path d="M3530 147.5h-25"/><path d="M3530 190h-25"/><path d="M3530 232.5h-25"/><path d="M3530 275h-25"/><path d="M3530 317.5h-25"/><path d="M3530 360h-25"/><path d="M3530 402.5h-25"/><path d="M3530 445h-25"/><path d="M3530 487.5h-25"/><path d="M3530 530h-50"/><path d="M3530 572.5h-25"/><path d="M3530 615h-25"/><path d="M3530 657.5h-25"/><path d="M3530 700h-25"/><path d="M3530 742.5h-25"/><path d="M3530 785h-25"/><path d="M3530 827.5h-25"/><path d="M3530 870h-25"/><path d="M3530 912.5h-25"/><path d="M3530 955h-50"/><path d="M3530 997.5h-25"/><path d="M3530 1040h-25"/><path d="M3530 1082.5h-25"/><path d="M3530 1125h-25"/><path d="M3530 1167.5h-25"/><path d="M3530 1210h-25"/><path d="M3530 1252.5h-25"/><path d="M3530 1295h-25"/><path d="M3530 1337.5h-25"/><path d="M3530 1380h-50"/><path d="M3530 1422.5h-25"/><path d="M3530 1465h-25"/><path d="M3530 1507.5h-25"/><path d="M3530 1550h-25"/><path d="M3530 1592.5h-25"/><path d="M3530 1635h-25"/><path d="M3530 1677.5h-25"/><path d="M3530 1720h-25"/><path d="M3530 1762.5h-25"/><path d="M3530 1805h-50"/><path d="M3530 1847.5h-25"/><path d="M3530 1890h-25"/><path d="M3530 1932.5h-25"/><path d="M3530 1975h-25"/><path d="M3530 2017.5h-25"/><path d="M3530 2060h-25"/><path d="M3530 2102.5h-25"/><path d="M3530 2145h-25"/><path d="M3530 2187.5h-25"/><path d="M3530 2230h-50"/><path d="M3530 2272.5h-25"/><path d="M3530 2315h-25"/><path d="M3530 2357.5h-25"/><path d="M3530 2400h-25"/><path d="M3530 2442.5h-25"/><path d="M3530 2485h-25"/><path d="M3530 2527.5h-25"/><path d="M3530 2570h-25"/><path d="M3530 2612.5h-25"/><path d="M3530 2655h-50"/></g></g><use x="359.25" y="268.25" href="#b"/><use x="361.7475" y="268.25" href="#c"/><use x="359.25" y="225.125" href="#b"/><use x="361.7475" y="225.125" href="#d"/><use x="359.25" y="183.25" href="#b"/><use x="361.7475" y="183.25" href="#e"/><use x="359.25" y="140.125" href="#f"/><use x="359.25" y="98.25" href="#e"/><use x="359.25" y="55.125" href="#d"/><use x="359.25" y="12.625" href="#c"/><g style="fill:none;stroke-width:6.25;stroke-linecap:round;stroke:#00f;stroke-miterlimit:10;transform:matrix(.1,0,0,-.1,0,275)"><path d="M263.4375 132.421875l-96.875 72.65625"/><path d="M207.8125 197.578125l-41.25 7.5 18.75-37.5"/><path d="M260.898438 263.75l-91.796876 65"/><path d="M210.546875 322.382812 169.101562 328.75l19.765626-36.953125"/><path d="M258.359375 395.078125l-86.71875 57.34375"/><path d="M213.28125 447.382812l-41.640625 5.039063 20.9375-36.328125"/><path d="M255.78125 526.40625l-81.601562 49.6875"/><path d="M215.976562 572.617188l-41.796874 3.476562 22.304687-35.507812"/><path d="M253.242188 657.734375l-76.484376 42.070313"/><path d="M218.632812 698.164062l-41.875 1.640626 23.828126-34.53125"/><path d="M250.703125 789.023438l-71.40625 34.453124"/><path d="M221.210938 824.0625l-41.914063-.585938 25.625-33.203124"/><path d="M248.164062 920.351562l-66.328124 26.796876"/><path d="M223.632812 950.46875l-41.796874-3.320312 27.773437-31.445313"/><path d="M245.585938 1051.679688l-61.171876 19.140624"/><path d="M225.78125 1077.539062l-41.367188-6.71875 30.195313-29.101562"/><path d="M243.046875 1183.007812l-56.09375 11.484376"/><path d="M227.460938 1205.351562l-40.507813-10.859374 32.96875-25.898438"/><path d="M240.507812 1314.335938l-51.015624 3.828124"/><path d="M228.28125 1334.0625l-38.789062-15.898438 36.015624-21.523437"/><path d="M237.929688 1445.664062l-45.898438-3.828124"/><path d="M227.851562 1463.632812l-35.820312-21.796874 38.945312-15.546876"/><path d="M235.390625 1576.992188l-40.78125-11.484376"/><path d="M225.625 1593.710938l-31.015625-28.203126 41.171875-7.890624"/><path d="M232.851562 1708.320312l-35.703124-19.140624"/><path d="M221.367188 1723.4375l-24.21875-34.257812 41.914062 1.171874"/><path d="M230.3125 1839.648438l-30.625-26.796876"/><path d="M215.585938 1851.679688l-15.898438-38.828126 40.585938 10.585938"/><path d="M227.734375 1970.976562l-25.46875-34.453124"/><path d="M209.492188 1977.8125l-7.226563-41.289062 37.382813 18.984374"/><path d="M225.195312 2102.304688l-20.390624-42.109376"/><path d="M204.296875 2102.148438l.507813-41.953126 33.242187 25.585938"/><path d="M222.65625 2233.59375l-15.3125-49.6875"/><path d="M200.46875 2225.234375l6.875-41.328125 28.945312 30.3125"/><path d="M220.117188 2364.921875l-10.234376-57.34375"/><path d="M198.007812 2347.773438l11.875-40.195313 25.039063 33.632813"/><path d="M217.539062 2496.289062 212.460938 2431.25"/><path d="M196.679688 2470.078125l15.78125-38.828125 21.601562 35.898438"/><path d="M215 2627.578125v-72.65625"/><path d="M196.25 2592.421875l18.75-37.5 18.75 37.5"/><path d="M430.898438 132.421875l-91.796876 72.65625"/><path d="M380.15625 196.523438l-41.054688 8.554687 17.773438-37.96875"/><path d="M428.359375 263.75l-86.71875 65"/><path d="M382.890625 321.25l-41.25 7.5 18.75-37.5"/><path d="M425.78125 395.078125l-81.601562 57.34375"/><path d="M385.664062 446.210938l-41.484374 6.210937 19.921874-36.875"/><path d="M423.242188 526.40625l-76.484376 49.6875"/><path d="M388.398438 571.40625l-41.640626 4.6875 21.210938-36.132812"/><path d="M420.703125 657.734375l-71.40625 42.070313"/><path d="M391.132812 696.914062l-41.835937 2.890626 22.773437-35.195313"/><path d="M418.164062 789.023438l-66.328124 34.453124"/><path d="M393.789062 822.8125l-41.953124.664062 24.648437-33.945312"/><path d="M415.585938 920.351562l-61.171876 26.796876"/><path d="M396.289062 949.296875l-41.875-2.148437L381.25 914.921875"/><path d="M413.046875 1051.679688l-56.09375 19.140624"/><path d="M398.476562 1076.445312l-41.523437-5.625 29.453125-29.84375"/><path d="M410.507812 1183.007812l-51.015624 11.484376"/><path d="M400.195312 1204.53125l-40.703124-10.039062 32.460937-26.523438"/><path d="M407.929688 1314.335938l-45.898438 3.828124"/><path d="M400.976562 1333.710938l-38.945312-15.546876 35.820312-21.796874"/><path d="M405.390625 1445.664062l-40.78125-3.828124"/><path d="M400.195312 1464.023438l-35.585937-22.1875 39.0625-15.15625"/><path d="M402.851562 1576.992188l-35.703124-11.484376"/><path d="M397.109375 1594.84375l-29.960937-29.335938 41.445312-6.367187"/><path d="M400.3125 1708.320312l-30.625-19.140624"/><path d="M391.5625 1724.960938l-21.875-35.78125 41.757812 3.984374"/><path d="M397.734375 1839.648438l-25.46875-26.796876"/><path d="M384.53125 1852.96875l-12.265625-40.117188 39.414063 14.257813"/><path d="M395.195312 1970.976562l-20.390624-34.453124"/><path d="M377.773438 1978.359375l-2.96875-41.835937 35.234374 22.734374"/><path d="M392.65625 2102.304688l-15.3125-42.109376"/><path d="M372.539062 2101.875l4.804688-41.679688 30.429688 28.867188"/><path d="M390.117188 2233.59375l-10.234376-49.6875"/><path d="M369.0625 2224.375l10.820312-40.46875 25.9375 32.96875"/><path d="M387.539062 2364.921875l-5.078124-57.34375"/><path d="M367.109375 2346.5625l15.351563-38.984375 21.992187 35.664063"/><path d="M385 2496.289062V2431.25"/><path d="M366.25 2468.75l18.75-37.5 18.75 37.5"/><path d="M382.460938 2627.578125l5.078124-72.65625"/><path d="M366.210938 2591.015625l21.328124-36.09375 16.09375 38.710937"/><path d="M598.359375 132.421875l-86.71875 72.65625"/><path d="M552.421875 195.351562l-40.78125 9.726563 16.71875-38.4375"/><path d="M595.78125 263.75l-81.601562 65"/><path d="M555.195312 320.078125 514.179688 328.75l17.65625-38.007812"/><path d="M593.242188 395.078125l-76.484376 57.34375"/><path d="M558.007812 444.921875l-41.25 7.5 18.75-37.5"/><path d="M590.703125 526.40625l-71.40625 49.6875"/><path d="M560.78125 570.078125l-41.484375 6.015625 20.039063-36.796875"/><path d="M588.164062 657.734375l-66.328124 42.070313"/><path d="M563.554688 695.507812l-41.71875 4.296876 21.640624-35.9375"/><path d="M585.585938 789.023438l-61.171876 34.453124"/><path d="M566.289062 821.40625l-41.875 2.070312L547.890625 788.75"/><path d="M583.046875 920.351562l-56.09375 26.796876"/><path d="M568.867188 947.890625l-41.914063-.742187 25.78125-33.085938"/><path d="M580.507812 1051.679688l-51.015624 19.140624"/><path d="M571.171875 1075.195312l-41.679687-4.375 28.554687-30.742187"/><path d="M577.929688 1183.007812l-45.898438 11.484376"/><path d="M572.96875 1203.59375l-40.9375-9.101562 31.835938-27.304688"/><path d="M575.390625 1314.335938l-40.78125 3.828124"/><path d="M573.671875 1333.320312l-39.0625-15.15625 35.585937-22.148437"/><path d="M572.851562 1445.664062l-35.703124-3.828124"/><path d="M572.421875 1464.492188l-35.273437-22.65625 39.296874-14.648438"/><path d="M570.3125 1576.992188l-30.625-11.484376"/><path d="M568.242188 1596.25l-28.554688-30.742188 41.71875-4.375"/><path d="M567.734375 1708.320312l-25.507813-19.140624"/><path d="M560.976562 1726.679688l-18.75-37.5 41.25 7.5"/><path d="M565.195312 1839.648438l-20.390624-26.796876"/><path d="M552.617188 1854.0625l-7.8125-41.210938 37.617187 18.476563"/><path d="M562.65625 1970.976562l-15.3125-34.453124"/><path d="M545.429688 1978.4375l1.914062-41.914062 32.382812 26.679687"/><path d="M560.117188 2102.304688l-10.234376-42.109376"/><path d="M540.507812 2101.09375l9.375-40.898438 27.070313 32.03125"/><path d="M557.539062 2233.59375l-5.078124-49.6875"/><path d="M537.617188 2223.125l14.84375-39.21875 22.460937 35.390625"/><path d="M555 2364.921875v-57.34375"/><path d="M536.25 2345.078125l18.75-37.5 18.75 37.5"/><path d="M552.460938 2496.289062l5.078124-65.039062"/><path d="M535.9375 2467.148438 557.539062 2431.25l15.78125 38.828125"/><path d="M549.882812 2627.578125l10.234376-72.65625"/><path d="M536.328125 2589.453125l23.789063-34.53125 13.320312 39.726563"/><path d="M765.78125 132.421875l-81.601562 72.65625"/><path d="M724.6875 194.140625l-40.507812 10.9375 15.546874-38.945313"/><path d="M763.242188 263.75l-76.484376 65"/><path d="M727.460938 318.75l-40.703126 10 16.40625-38.554688"/><path d="M760.703125 395.078125l-71.40625 57.34375"/><path d="M730.273438 443.554688l-40.976563 8.867187 17.5-38.085937"/><path d="M758.164062 526.40625l-66.328124 49.6875"/><path d="M733.085938 568.59375l-41.25 7.5 18.75-37.5"/><path d="M755.585938 657.734375l-61.171876 42.070313"/><path d="M735.9375 693.984375l-41.523438 5.820313 20.273438-36.71875"/><path d="M753.046875 789.023438l-56.09375 34.453124"/><path d="M738.710938 819.84375l-41.757813 3.632812 22.148437-35.625"/><path d="M750.507812 920.351562l-51.015624 26.796876"/><path d="M741.40625 946.328125l-41.914062.820313L723.984375 913.125"/><path d="M747.929688 1051.679688l-45.898438 19.140624"/><path d="M743.867188 1073.710938l-41.835938-2.890626 27.421875-31.757812"/><path d="M745.390625 1183.007812l-40.78125 11.484376"/><path d="M745.78125 1202.382812l-41.171875-7.890624 31.015625-28.203126"/><path d="M742.851562 1314.335938l-35.703124 3.828124"/><path d="M746.445312 1332.8125l-39.296874-14.648438 35.273437-22.617187"/><path d="M740.3125 1445.664062l-30.625-3.828124"/><path d="M744.570312 1465.117188l-34.882812-23.28125 39.53125-13.945313"/><path d="M737.734375 1576.992188l-25.46875-11.484376"/><path d="M738.75 1598.007812l-26.484375-32.5 41.875-1.71875"/><path d="M735.195312 1708.320312l-20.390624-19.140624"/><path d="M729.335938 1728.515625l-14.53125-39.335937 40.15625 11.992187"/><path d="M732.65625 1839.648438l-15.3125-26.796876"/><path d="M719.6875 1854.726562l-2.34375-41.875 34.882812 23.28125"/><path d="M730.117188 1970.976562l-10.234376-34.453124"/><path d="M712.578125 1977.8125l7.304687-41.289062 28.632813 30.664062"/><path d="M727.539062 2102.304688l-5.078124-42.109376"/><path d="M708.359375 2099.6875l14.101563-39.492188 23.125 35"/><path d="M725 2233.59375v-49.6875"/><path d="M706.25 2221.40625l18.75-37.5 18.75 37.5"/><path d="M722.460938 2364.921875l5.078124-57.34375"/><path d="M705.546875 2343.242188l21.992187-35.664063 15.351563 38.984375"/><path d="M719.882812 2496.289062 730.117188 2431.25"/><path d="M705.78125 2465.390625 730.117188 2431.25l12.695312 39.921875"/><path d="M717.34375 2627.578125l15.3125-72.65625"/><path d="M706.5625 2587.734375l26.09375-32.8125 10.625 40.546875"/><path d="M933.242188 132.421875l-76.484376 72.65625"/><path d="M896.835938 192.851562l-40.078126 12.226563 14.257813-39.414063"/><path d="M930.703125 263.75l-71.40625 65"/><path d="M899.648438 317.382812 859.296875 328.75l15.117187-39.101562"/><path d="M928.164062 395.078125l-66.328124 57.34375"/><path d="M902.460938 442.070312l-40.625 10.351563 16.09375-38.710937"/><path d="M925.585938 526.40625l-61.171876 49.6875"/><path d="M905.3125 567.03125l-40.898438 9.0625 17.265626-38.164062"/><path d="M923.046875 657.734375l-56.09375 42.070313"/><path d="M908.203125 692.304688l-41.25 7.5 18.75-37.5"/><path d="M920.507812 789.023438l-51.015624 34.453124"/><path d="M911.054688 818.007812l-41.5625 5.46875 20.585937-36.523437"/><path d="M917.929688 920.351562l-45.898438 26.796876"/><path d="M913.90625 944.453125l-41.875 2.695313L895 912.03125"/><path d="M915.390625 1051.679688l-40.78125 19.140624"/><path d="M916.523438 1071.875l-41.914063-1.054688 25.976563-32.890624"/><path d="M912.851562 1183.007812l-35.703124 11.484376"/><path d="M918.59375 1200.859375l-41.445312-6.367187 29.960937-29.335938"/><path d="M910.3125 1314.335938l-30.625 3.828124"/><path d="M919.21875 1332.109375l-39.53125-13.945313 34.882812-23.242187"/><path d="M907.734375 1445.664062l-25.46875-3.828124"/><path d="M916.5625 1465.9375l-34.296875-24.101562 39.84375-12.96875"/><path d="M905.195312 1576.992188l-20.390624-11.484376"/><path d="M908.28125 1600.234375l-23.476562-34.726563 41.875 2.070313"/><path d="M902.65625 1708.320312l-15.3125-19.140624"/><path d="M896.132812 1730.195312l-8.789062-41.015624 38.085938 17.578124"/><path d="M900.117188 1839.648438l-10.234376-26.796876"/><path d="M885.742188 1854.570312l4.140624-41.71875 30.898438 28.359376"/><path d="M897.539062 1970.976562l-5.078124-34.453124"/><path d="M879.414062 1976.367188l13.046876-39.84375 24.023437 34.375"/><path d="M895 2102.304688v-42.109376"/><path d="M876.25 2097.695312l18.75-37.5 18.75 37.5"/><path d="M892.460938 2233.59375l5.078124-49.6875"/><path d="M875.078125 2219.296875l22.460937-35.390625 14.84375 39.21875"/><path d="M889.882812 2364.921875l10.234376-57.34375"/><path d="M875.078125 2341.210938l25.039063-33.632813 11.875 40.195313"/><path d="M887.34375 2496.289062l15.3125-65.039062"/><path d="M875.820312 2463.4375l26.835938-32.1875 9.648438 40.78125"/><path d="M884.804688 2627.578125l20.390624-72.65625"/><path d="M877.03125 2585.9375l28.164062-31.015625 7.929688 41.171875"/><path d="M1100.703125 132.421875l-71.40625 72.65625"/><path d="M1068.945312 191.484375l-39.648437 13.59375 12.890625-39.882813"/><path d="M1098.164062 263.75l-66.328124 65"/><path d="M1071.757812 315.898438 1031.835938 328.75l13.671874-39.648438"/><path d="M1095.585938 395.078125l-61.171876 57.34375"/><path d="M1074.570312 440.46875l-40.15625 11.953125 14.53125-39.296875"/><path d="M1093.046875 526.40625l-56.09375 49.6875"/><path d="M1077.460938 565.273438l-40.507813 10.820312 15.625-38.90625"/><path d="M1090.507812 657.734375l-51.015624 42.070313"/><path d="M1080.351562 690.390625l-40.859374 9.414063 16.992187-38.320313"/><path d="M1087.96875 789.023438l-45.9375 34.453124"/><path d="M1083.28125 815.976562l-41.25 7.5 18.75-37.5"/><path d="M1085.390625 920.351562l-40.78125 26.796876"/><path d="M1086.210938 942.226562l-41.601563 4.921876 21.054687-36.25"/><path d="M1082.851562 1051.679688l-35.703124 19.140624"/><path d="M1089.0625 1069.648438l-41.914062 1.171874 24.21875-34.257812"/><path d="M1080.3125 1183.007812l-30.625 11.484376"/><path d="M1091.40625 1198.867188l-41.71875-4.375 28.554688-30.703126"/><path d="M1077.734375 1314.335938l-25.46875 3.828124"/><path d="M1092.109375 1331.132812l-39.84375-12.96875 34.296875-24.101562"/><path d="M1075.195312 1445.664062l-20.390624-3.828124"/><path d="M1088.203125 1467.1875l-33.398437-25.351562 40.3125-11.523438"/><path d="M1072.65625 1576.992188l-15.3125-11.484376"/><path d="M1076.09375 1603.007812l-18.75-37.5 41.25 7.5"/><path d="M1070.117188 1708.320312l-10.234376-19.140624"/><path d="M1061.015625 1731.09375l-1.132813-41.914062 34.21875 24.257812"/><path d="M1067.539062 1839.648438l-5.078124-26.796876"/><path d="M1051.054688 1853.203125l11.40625-40.351563 25.429687 33.359376"/><path d="M1065 1970.976562v-34.453124"/><path d="M1046.25 1974.023438l18.75-37.5 18.75 37.5"/><path d="M1062.460938 2102.304688l5.078124-42.109376"/><path d="M1044.414062 2095.195312l23.125-35 14.101563 39.492188"/><path d="M1059.882812 2233.59375l10.234376-49.6875"/><path d="M1044.21875 2216.875l25.898438-32.96875 10.820312 40.46875"/><path d="M1057.34375 2364.921875l15.3125-57.34375"/><path d="M1044.882812 2338.984375l27.773438-31.40625 8.4375 41.054687"/><path d="M1054.804688 2496.289062l20.390624-65.039062"/><path d="M1046.09375 2461.40625l29.101562-30.15625 6.679688 41.367188"/><path d="M1052.265625 2627.578125l25.46875-72.65625"/><path d="M1047.65625 2584.101562l30.078125-29.179687 5.273437 41.601563"/><path d="M1268.164062 132.421875l-66.328124 72.65625"/><path d="M1240.976562 190.039062l-39.140624 15.039063 11.445312-40.3125"/><path d="M1265.585938 263.75l-61.171876 65"/><path d="M1243.75 314.296875 1204.414062 328.75l12.03125-40.15625"/><path d="M1263.046875 395.078125l-56.09375 57.34375"/><path d="M1246.5625 438.75l-39.609375 13.671875 12.8125-39.882813"/><path d="M1260.507812 526.40625l-51.015624 49.6875"/><path d="M1249.453125 563.359375l-39.960937 12.734375 13.75-39.570312"/><path d="M1257.96875 657.734375l-45.9375 42.070313"/><path d="M1252.34375 688.28125l-40.3125 11.523438 15-39.179688"/><path d="M1255.390625 789.023438l-40.78125 34.453124"/><path d="M1255.351562 813.59375l-40.742187 9.882812 16.5625-38.515624"/><path d="M1252.851562 920.351562l-35.703124 26.796876"/><path d="M1258.398438 939.648438l-41.25 7.5 18.75-37.5"/><path d="M1250.3125 1051.679688l-30.625 19.140624"/><path d="M1261.445312 1066.835938l-41.757812 3.984374 21.875-35.78125"/><path d="M1247.734375 1183.007812l-25.46875 11.484376"/><path d="M1264.140625 1196.210938l-41.875-1.71875 26.484375-32.5"/><path d="M1245.195312 1314.335938l-20.390624 3.828124"/><path d="M1265.117188 1329.6875l-40.3125-11.523438 33.398437-25.351562"/><path d="M1242.65625 1445.664062l-15.3125-3.828124"/><path d="M1259.179688 1469.101562l-31.835938-27.265624 40.9375-9.101563"/><path d="M1240.117188 1576.992188l-10.234376-11.484376"/><path d="M1240.78125 1606.015625l-10.898438-40.507813 38.945313 15.585938"/><path d="M1237.539062 1708.320312l-5.078124-19.140624"/><path d="M1223.984375 1730.234375l8.476563-41.054687 27.773437 31.40625"/><path d="M1235 1839.648438v-26.796876"/><path d="M1216.25 1850.351562l18.75-37.5 18.75 37.5"/><path d="M1232.460938 1970.976562l5.078124-34.453124"/><path d="M1213.515625 1970.898438l24.023437-34.375 13.046876 39.84375"/><path d="M1229.882812 2102.304688l10.234376-42.109376"/><path d="M1213.046875 2092.226562l27.070313-32.03125 9.375 40.898438"/><path d="M1227.34375 2233.59375l15.3125-49.6875"/><path d="M1213.710938 2214.21875l28.945312-30.3125 6.875 41.328125"/><path d="M1224.804688 2364.921875l20.390624-57.34375"/><path d="M1214.960938 2336.601562l30.234374-29.023437 5.117188 41.601563"/><path d="M1222.265625 2496.289062l25.46875-65.039062"/><path d="M1216.601562 2459.296875l31.132813-28.046875 3.789063 41.757812"/><path d="M1219.6875 2627.578125l30.625-72.65625"/><path d="M1218.476562 2582.1875l31.835938-27.265625 2.734375 41.835937"/><path d="M1435.585938 132.421875l-61.171876 72.65625"/><path d="M1412.890625 188.476562l-38.476563 16.601563 9.804688-40.742187"/><path d="M1433.046875 263.75l-56.09375 65"/><path d="M1415.625 312.617188 1376.953125 328.75l10.3125-40.625"/><path d="M1430.507812 395.078125l-51.015624 57.34375"/><path d="M1418.4375 436.875l-38.945312 15.546875 10.898437-40.46875"/><path d="M1427.96875 526.40625l-45.9375 49.6875"/><path d="M1421.25 561.289062l-39.21875 14.804688 11.679688-40.234375"/><path d="M1425.390625 657.734375l-40.78125 42.070313"/><path d="M1424.179688 685.9375l-39.570313 13.867188 12.617187-40"/><path d="M1422.851562 789.023438l-35.703124 34.453124"/><path d="M1427.148438 810.9375l-40 12.539062 13.984374-39.53125"/><path d="M1420.3125 920.351562l-30.625 26.796876"/><path d="M1430.273438 936.5625l-40.585938 10.585938 15.898438-38.828126"/><path d="M1417.734375 1051.679688l-25.46875 19.140624"/><path d="M1433.515625 1063.320312l-41.25 7.5 18.75-37.5"/><path d="M1415.195312 1183.007812l-20.390624 11.484376"/><path d="M1436.679688 1192.460938l-41.875 2.03125 23.476562-34.726563"/><path d="M1412.65625 1314.335938l-15.3125 3.828124"/><path d="M1438.28125 1327.265625l-40.9375-9.101563 31.835938-27.265624"/><path d="M1410.117188 1445.664062l-10.234376-3.828124"/><path d="M1428.4375 1472.578125l-28.554688-30.742187 41.71875-4.375"/><path d="M1407.539062 1576.992188l-5.078124-11.484376"/><path d="M1400.546875 1607.382812l1.914063-41.875 32.34375 26.640626"/><path d="M1405 1708.320312v-19.140624"/><path d="M1386.25 1726.679688l18.75-37.5 18.75 37.5"/><path d="M1402.460938 1839.648438l5.078124-26.796876"/><path d="M1382.109375 1846.210938l25.429687-33.359376 11.40625 40.351563"/><path d="M1399.882812 1970.976562l10.234376-34.453124"/><path d="M1381.484375 1967.1875l28.632813-30.664062 7.304687 41.289062"/><path d="M1397.34375 2102.304688l15.3125-42.109376"/><path d="M1382.226562 2089.0625l30.429688-28.867188 4.804688 41.679688"/><path d="M1394.804688 2233.59375l20.390624-49.6875"/><path d="M1383.632812 2211.445312l31.5625-27.539062 3.125 41.796875"/><path d="M1392.265625 2364.921875l25.46875-57.34375"/><path d="M1385.390625 2334.21875l32.34375-26.640625 1.914063 41.875"/><path d="M1389.6875 2496.289062l30.625-65.039062"/><path d="M1387.382812 2457.1875l32.929688-25.9375.976562 41.914062"/><path d="M1387.148438 2627.578125l35.703124-72.65625"/><path d="M1389.492188 2580.3125l33.359374-25.390625.273438 41.914063"/><path d="M1603.046875 132.421875l-56.09375 72.65625"/><path d="M1584.6875 186.875l-37.734375 18.203125 8.085937-41.132813"/><path d="M1600.507812 263.75l-51.015624 65"/><path d="M1587.382812 310.820312 1549.492188 328.75l8.398437-41.054688"/><path d="M1597.96875 395.078125l-45.9375 57.34375"/><path d="M1590.117188 434.882812l-38.085938 17.539063 8.828125-40.976563"/><path d="M1595.390625 526.40625l-40.78125 49.6875"/><path d="M1592.890625 559.023438l-38.28125 17.070312 9.296875-40.859375"/><path d="M1592.851562 657.734375l-35.703124 42.070313"/><path d="M1595.703125 683.320312l-38.554687 16.484376 9.960937-40.742188"/><path d="M1590.3125 789.023438l-30.625 34.453124"/><path d="M1598.632812 807.890625l-38.945312 15.585937 10.898438-40.507812"/><path d="M1587.734375 920.351562l-25.46875 26.796876"/><path d="M1601.679688 932.929688l-39.414063 14.21875 12.265625-40.078126"/><path d="M1585.195312 1051.679688l-20.390624 19.140624"/><path d="M1604.960938 1058.828125l-40.15625 11.992187 14.53125-39.335937"/><path d="M1582.65625 1183.007812l-15.3125 11.484376"/><path d="M1608.59375 1186.992188l-41.25 7.5 18.75-37.5"/><path d="M1580.117188 1314.335938l-10.234376 3.828124"/><path d="M1611.601562 1322.539062l-41.71875-4.375 28.554688-30.742187"/><path d="M1577.539062 1445.664062l-5.078124-3.828124"/><path d="M1591.210938 1479.335938l-18.75-37.5 41.25 7.5"/><path d="M1575 1576.992188v-11.484376"/><path d="M1556.25 1603.007812l18.75-37.5 18.75 37.5"/><path d="M1572.460938 1708.320312l5.078124-19.140624"/><path d="M1549.765625 1720.585938l27.773437-31.40625 8.476563 41.054687"/><path d="M1569.882812 1839.648438l10.234376-26.796876"/><path d="M1549.21875 1841.210938l30.898438-28.359376 4.140624 41.71875"/><path d="M1567.34375 1970.976562l15.3125-34.453124"/><path d="M1550.273438 1963.203125l32.382812-26.679687 1.875 41.914062"/><path d="M1564.804688 2102.304688l20.390624-42.109376"/><path d="M1551.953125 2085.78125l33.242187-25.585938.507813 41.953126"/><path d="M1562.265625 2233.59375l25.46875-49.6875"/><path d="M1553.945312 2208.710938l33.789063-24.804688-.429687 41.914062"/><path d="M1559.6875 2364.921875l30.625-57.34375"/><path d="M1556.09375 2331.835938l34.21875-24.257813-1.09375 41.914063"/><path d="M1557.148438 2496.289062l35.703124-65.039062"/><path d="M1558.359375 2455.078125l34.492187-23.828125-1.640624 41.875"/><path d="M1554.609375 2627.578125l40.78125-72.65625"/><path d="M1560.703125 2578.4375l34.6875-23.515625-1.992187 41.875"/><path d="M1770.507812 132.421875l-51.015624 72.65625"/><path d="M1756.40625 185.15625l-36.914062 19.921875 6.210937-41.445313"/><path d="M1767.96875 263.75l-45.9375 65"/><path d="M1758.984375 308.945312 1722.03125 328.75l6.328125-41.445312"/><path d="M1765.390625 395.078125l-40.78125 57.34375"/><path d="M1761.601562 432.734375l-36.992187 19.6875 6.445313-41.40625"/><path d="M1762.851562 526.40625l-35.703124 49.6875"/><path d="M1764.257812 556.601562l-37.109374 19.492188 6.640624-41.367188"/><path d="M1760.3125 657.734375l-30.625 42.070313"/><path d="M1766.914062 680.46875l-37.226562 19.335938 6.914062-41.367188"/><path d="M1757.734375 789.023438l-25.46875 34.453124"/><path d="M1769.648438 804.492188l-37.382813 18.984374 7.226563-41.289062"/><path d="M1755.195312 920.351562l-20.390624 26.796876"/><path d="M1772.421875 928.671875l-37.617187 18.476563 7.8125-41.210938"/><path d="M1752.65625 1051.679688l-15.3125 19.140624"/><path d="M1775.429688 1053.242188l-38.085938 17.578124 8.789062-41.015624"/><path d="M1750.117188 1183.007812l-10.234376 11.484376"/><path d="M1778.828125 1178.90625l-38.945313 15.585938 10.898438-40.507813"/><path d="M1747.539062 1314.335938l-5.078124 3.828124"/><path d="M1783.710938 1310.664062l-41.25 7.5 18.75-37.5"/><path d="M1745 1445.664062v-3.828124"/><path d="M1726.25 1479.335938l18.75-37.5 18.75 37.5"/><path d="M1742.460938 1576.992188l5.078124-11.484376"/><path d="M1715.195312 1592.148438l32.34375-26.640626 1.914063 41.875"/><path d="M1739.882812 1708.320312l10.234376-19.140624"/><path d="M1715.898438 1713.4375l34.21875-24.257812-1.132813 41.914062"/><path d="M1737.34375 1839.648438l15.3125-26.796876"/><path d="M1717.773438 1836.132812l34.882812-23.28125-2.34375 41.875"/><path d="M1734.804688 1970.976562l20.390624-34.453124"/><path d="M1719.960938 1959.257812l35.234374-22.734374-2.96875 41.835937"/><path d="M1732.265625 2102.304688l25.46875-42.109376"/><path d="M1722.265625 2082.578125l35.46875-22.382813-3.398437 41.796876"/><path d="M1729.6875 2233.59375l30.625-49.6875"/><path d="M1724.6875 2206.015625l35.625-22.109375-3.710938 41.757812"/><path d="M1727.148438 2364.921875l35.703124-57.34375"/><path d="M1727.109375 2329.492188l35.742187-21.914063-3.90625 41.71875"/><path d="M1724.609375 2496.289062l40.78125-65.039062"/><path d="M1729.609375 2453.046875l35.78125-21.796875-4.023437 41.71875"/><path d="M1722.03125 2627.578125l45.9375-72.65625"/><path d="M1732.070312 2576.601562l35.898438-21.679687-4.179688 41.71875"/><path d="M1937.96875 132.421875l-45.9375 72.65625"/><path d="M1927.929688 183.398438l-35.898438 21.679687 4.179688-41.71875"/><path d="M1935.390625 263.75l-40.78125 65"/><path d="M1930.390625 306.953125 1894.609375 328.75l4.023437-41.71875"/><path d="M1932.851562 395.078125l-35.703124 57.34375"/><path d="M1932.890625 430.507812l-35.742187 21.914063 3.90625-41.71875"/><path d="M1930.3125 526.40625l-30.625 49.6875"/><path d="M1935.3125 553.984375l-35.625 22.109375 3.710938-41.757812"/><path d="M1927.734375 657.734375l-25.46875 42.070313"/><path d="M1937.695312 677.421875l-35.429687 22.382813 3.398437-41.796876"/><path d="M1925.195312 789.023438l-20.390624 34.453124"/><path d="M1940.039062 800.78125l-35.234374 22.695312 2.96875-41.835937"/><path d="M1922.65625 920.351562l-15.3125 26.796876"/><path d="M1942.226562 923.867188l-34.882812 23.28125 2.34375-41.875"/><path d="M1920.117188 1051.679688l-10.234376 19.140624"/><path d="M1944.101562 1046.5625l-34.21875 24.257812 1.132813-41.914062"/><path d="M1917.539062 1183.007812l-5.078124 11.484376"/><path d="M1944.804688 1167.851562l-32.34375 26.640626-1.914063-41.875"/><path d="M1915 1314.335938v3.828124"/><path d="M1933.75 1280.664062l-18.75 37.5-18.75-37.5"/><path d="M1912.460938 1445.664062l5.078124-3.828124"/><path d="M1876.289062 1449.335938l41.25-7.5-18.75 37.5"/><path d="M1909.882812 1576.992188l10.234376-11.484376"/><path d="M1881.171875 1581.09375l38.945313-15.585938-10.898438 40.507813"/><path d="M1907.34375 1708.320312l15.3125-19.140624"/><path d="M1884.570312 1706.757812l38.085938-17.578124-8.789062 41.015624"/><path d="M1904.804688 1839.648438l20.390624-26.796876"/><path d="M1887.539062 1831.328125l37.65625-18.476563-7.8125 41.210938"/><path d="M1902.265625 1970.976562l25.46875-34.453124"/><path d="M1890.351562 1955.507812l37.382813-18.984374-7.226563 41.289062"/><path d="M1899.6875 2102.304688l30.625-42.109376"/><path d="M1893.085938 2079.53125l37.226562-19.335938-6.914062 41.367188"/><path d="M1897.148438 2233.59375l35.703124-49.6875"/><path d="M1895.742188 2203.398438l37.109374-19.492188-6.640624 41.367188"/><path d="M1894.609375 2364.921875l40.78125-57.34375"/><path d="M1898.398438 2327.265625l36.992187-19.6875-6.445313 41.40625"/><path d="M1892.03125 2496.289062l45.9375-65.039062"/><path d="M1901.015625 2451.054688 1937.96875 2431.25l-6.328125 41.445312"/><path d="M1889.492188 2627.578125l51.015624-72.65625"/><path d="M1903.59375 2574.84375l36.914062-19.921875-6.210937 41.445313"/><path d="M2105.390625 132.421875l-40.78125 72.65625"/><path d="M2099.296875 181.5625l-34.6875 23.515625 1.992187-41.875"/><path d="M2102.851562 263.75l-35.703124 65"/><path d="M2101.640625 304.921875 2067.148438 328.75l1.601562-41.875"/><path d="M2100.3125 395.078125l-30.625 57.34375"/><path d="M2103.90625 428.164062l-34.21875 24.257813 1.09375-41.914063"/><path d="M2097.734375 526.40625l-25.46875 49.6875"/><path d="M2106.054688 551.289062l-33.789063 24.804688.390625-41.914062"/><path d="M2095.195312 657.734375l-20.390624 42.070313"/><path d="M2108.046875 674.21875l-33.242187 25.585938-.507813-41.953126"/><path d="M2092.65625 789.023438l-15.3125 34.453124"/><path d="M2109.726562 796.796875l-32.382812 26.679687-1.914062-41.914062"/><path d="M2090.117188 920.351562l-10.234376 26.796876"/><path d="M2110.78125 918.789062l-30.898438 28.359376-4.140624-41.71875"/><path d="M2087.539062 1051.679688l-5.078124 19.140624"/><path d="M2110.234375 1039.414062l-27.773437 31.40625-8.476563-41.054687"/><path d="M2085 1183.007812v11.484376"/><path d="M2103.75 1156.992188l-18.75 37.5-18.75-37.5"/><path d="M2082.460938 1314.335938l5.078124 3.828124"/><path d="M2068.789062 1280.664062l18.75 37.5-41.25-7.5"/><path d="M2079.882812 1445.664062l10.234376-3.828124"/><path d="M2048.398438 1437.460938l41.71875 4.375-28.554688 30.742187"/><path d="M2077.34375 1576.992188l15.3125-11.484376"/><path d="M2051.40625 1573.007812l41.25-7.5-18.75 37.5"/><path d="M2074.804688 1708.320312l20.390624-19.140624"/><path d="M2055.039062 1701.171875l40.15625-11.992187-14.53125 39.335937"/><path d="M2072.265625 1839.648438l25.46875-26.796876"/><path d="M2058.320312 1827.109375l39.414063-14.257813-12.265625 40.117188"/><path d="M2069.6875 1970.976562l30.625-34.453124"/><path d="M2061.367188 1952.109375l38.945312-15.585937-10.898438 40.507812"/><path d="M2067.148438 2102.304688l35.703124-42.109376"/><path d="M2064.296875 2076.679688l38.554687-16.484376-9.960937 40.742188"/><path d="M2064.609375 2233.59375l40.78125-49.6875"/><path d="M2067.109375 2200.976562l38.28125-17.070312-9.296875 40.859375"/><path d="M2062.03125 2364.921875l45.9375-57.34375"/><path d="M2069.882812 2325.117188l38.085938-17.539063-8.828125 40.976563"/><path d="M2059.492188 2496.289062l51.015624-65.039062"/><path d="M2072.617188 2449.179688l37.890624-17.929688-8.398437 41.054688"/><path d="M2056.953125 2627.578125l56.09375-72.65625"/><path d="M2075.273438 2573.125l37.773437-18.203125-8.085937 41.132813"/><path d="M2272.851562 132.421875l-35.703124 72.65625"/><path d="M2270.507812 179.6875l-33.359374 25.390625-.273438-41.914063"/><path d="M2270.3125 263.75l-30.625 65"/><path d="M2272.617188 302.8125 2239.6875 328.75l-.976562-41.914062"/><path d="M2267.734375 395.078125l-25.46875 57.34375"/><path d="M2274.609375 425.78125l-32.34375 26.640625-1.914063-41.875"/><path d="M2265.195312 526.40625l-20.390624 49.6875"/><path d="M2276.367188 548.554688l-31.5625 27.539062-3.125-41.796875"/><path d="M2262.65625 657.734375l-15.3125 42.070313"/><path d="M2277.773438 670.9375l-30.429688 28.867188-4.804688-41.679688"/><path d="M2260.117188 789.023438l-10.234376 34.453124"/><path d="M2278.515625 792.8125l-28.632813 30.664062-7.304687-41.289062"/><path d="M2257.539062 920.351562l-5.078124 26.796876"/><path d="M2277.890625 913.828125l-25.429687 33.320313-11.40625-40.351563"/><path d="M2255 1051.679688v19.140624"/><path d="M2273.75 1033.320312l-18.75 37.5-18.75-37.5"/><path d="M2252.460938 1183.007812l5.078124 11.484376"/><path d="M2259.453125 1152.617188l-1.914063 41.875-32.34375-26.640626"/><path d="M2249.882812 1314.335938l10.234376 3.828124"/><path d="M2231.5625 1287.421875l28.554688 30.742187-41.71875 4.375"/><path d="M2247.34375 1445.664062l15.3125-3.828124"/><path d="M2221.71875 1432.734375l40.9375 9.101563-31.835938 27.265624"/><path d="M2244.804688 1576.992188l20.390624-11.484376"/><path d="M2223.320312 1567.578125l41.875-2.070313-23.476562 34.726563"/><path d="M2242.265625 1708.320312l25.46875-19.140624"/><path d="M2226.484375 1696.679688l41.25-7.5-18.75 37.5"/><path d="M2239.6875 1839.648438l30.625-26.796876"/><path d="M2229.726562 1823.4375l40.585938-10.585938-15.898438 38.828126"/><path d="M2237.148438 1970.976562l35.703124-34.453124"/><path d="M2232.851562 1949.0625l40-12.539062-13.984374 39.53125"/><path d="M2234.609375 2102.304688l40.78125-42.109376"/><path d="M2235.820312 2074.0625l39.570313-13.867188-12.65625 40"/><path d="M2232.03125 2233.59375l45.9375-49.6875"/><path d="M2238.710938 2198.710938l39.257812-14.804688-11.679688 40.234375"/><path d="M2229.492188 2364.921875l51.015624-57.34375"/><path d="M2241.5625 2323.125l38.945312-15.546875-10.898437 40.46875"/><path d="M2226.953125 2496.289062l56.09375-65.039062"/><path d="M2244.375 2447.382812l38.671875-16.132812-10.3125 40.625"/><path d="M2224.414062 2627.578125l61.171876-72.65625"/><path d="M2247.109375 2571.523438l38.476563-16.601563-9.804688 40.742187"/><path d="M2440.3125 132.421875l-30.625 72.65625"/><path d="M2441.523438 177.8125l-31.835938 27.265625-2.734375-41.835937"/><path d="M2437.734375 263.75l-25.46875 65"/><path d="M2443.398438 300.703125 2412.265625 328.75l-3.789063-41.757812"/><path d="M2435.195312 395.078125l-20.390624 57.34375"/><path d="M2445.039062 423.398438l-30.234374 29.023437-5.117188-41.601563"/><path d="M2432.65625 526.40625l-15.3125 49.6875"/><path d="M2446.289062 545.78125l-28.945312 30.3125-6.875-41.328125"/><path d="M2430.117188 657.734375l-10.234376 42.070313"/><path d="M2446.953125 667.773438l-27.070313 32.03125-9.375-40.859376"/><path d="M2427.539062 789.023438l-5.078124 34.453124"/><path d="M2446.484375 789.101562l-24.023437 34.375-13.046876-39.84375"/><path d="M2425 920.351562v26.796876"/><path d="M2443.75 909.648438l-18.75 37.5-18.75-37.5"/><path d="M2422.460938 1051.679688l5.078124 19.140624"/><path d="M2436.015625 1029.765625l-8.476563 41.054687-27.773437-31.40625"/><path d="M2419.882812 1183.007812l10.234376 11.484376"/><path d="M2419.21875 1153.984375l10.898438 40.507813-38.945313-15.585938"/><path d="M2417.34375 1314.335938l15.3125 3.828124"/><path d="M2400.820312 1290.898438l31.835938 27.265624-40.9375 9.101563"/><path d="M2414.804688 1445.664062l20.390624-3.828124"/><path d="M2394.882812 1430.3125l40.3125 11.523438-33.398437 25.351562"/><path d="M2412.265625 1576.992188l25.46875-11.484376"/><path d="M2395.859375 1563.789062l41.875 1.71875-26.484375 32.5"/><path d="M2409.6875 1708.320312l30.625-19.140624"/><path d="M2398.554688 1693.164062l41.757812-3.984374-21.875 35.78125"/><path d="M2407.148438 1839.648438l35.703124-26.796876"/><path d="M2401.601562 1820.351562l41.25-7.5-18.75 37.5"/><path d="M2404.609375 1970.976562l40.78125-34.453124"/><path d="M2404.648438 1946.40625l40.742187-9.882812-16.5625 38.515624"/><path d="M2402.03125 2102.304688l45.9375-42.109376"/><path d="M2407.65625 2071.71875l40.3125-11.523438-15 39.179688"/><path d="M2399.492188 2233.59375l51.015624-49.6875"/><path d="M2410.546875 2196.640625l39.960937-12.734375-13.789062 39.609375"/><path d="M2396.953125 2364.921875l56.09375-57.34375"/><path d="M2413.4375 2321.289062l39.609375-13.710937-12.8125 39.882813"/><path d="M2394.414062 2496.289062l61.171876-65.039062"/><path d="M2416.25 2445.703125l39.335938-14.453125-12.03125 40.15625"/><path d="M2391.835938 2627.578125l66.328124-72.65625"/><path d="M2419.023438 2569.960938l39.140624-15.039063-11.445312 40.3125"/><path d="M2607.734375 132.421875l-25.46875 72.65625"/><path d="M2612.34375 175.898438l-30.078125 29.179687-5.3125-41.601563"/><path d="M2605.195312 263.75l-20.390624 65"/><path d="M2613.90625 298.59375 2584.804688 328.75l-6.679688-41.367188"/><path d="M2602.65625 395.078125l-15.3125 57.34375"/><path d="M2615.117188 421.054688l-27.773438 31.367187-8.4375-41.054687"/><path d="M2600.117188 526.40625l-10.234376 49.6875"/><path d="M2615.78125 543.164062l-25.898438 32.929688L2579.0625 535.625"/><path d="M2597.539062 657.734375l-5.078124 42.070313"/><path d="M2615.585938 664.804688l-23.125 35-14.101563-39.492188"/><path d="M2595 789.023438v34.453124"/><path d="M2613.75 785.976562l-18.75 37.5-18.75-37.5"/><path d="M2592.460938 920.351562l5.078124 26.796876"/><path d="M2608.945312 906.796875l-11.40625 40.351563-25.429687-33.320313"/><path d="M2589.882812 1051.679688l10.234376 19.140624"/><path d="M2598.984375 1028.90625l1.132813 41.914062-34.21875-24.257812"/><path d="M2587.34375 1183.007812l15.3125 11.484376"/><path d="M2583.90625 1156.992188l18.75 37.5-41.25-7.5"/><path d="M2584.804688 1314.335938l20.390624 3.828124"/><path d="M2571.796875 1292.8125l33.398437 25.351562-40.3125 11.523438"/><path d="M2582.265625 1445.664062l25.46875-3.828124"/><path d="M2567.890625 1428.867188l39.84375 12.96875-34.296875 24.101562"/><path d="M2579.6875 1576.992188l30.625-11.484376"/><path d="M2568.59375 1561.132812l41.71875 4.375-28.554688 30.742188"/><path d="M2577.148438 1708.320312l35.703124-19.140624"/><path d="M2570.9375 1690.351562l41.914062-1.171874-24.21875 34.257812"/><path d="M2574.609375 1839.648438l40.78125-26.796876"/><path d="M2573.75 1817.773438l41.640625-4.921876-21.054687 36.25"/><path d="M2572.03125 1970.976562l45.9375-34.453124"/><path d="M2576.71875 1944.023438l41.25-7.5-18.75 37.5"/><path d="M2569.492188 2102.304688l51.015624-42.109376"/><path d="M2579.648438 2069.609375l40.859374-9.414063-16.992187 38.359376"/><path d="M2566.953125 2233.59375l56.09375-49.6875"/><path d="M2582.539062 2194.726562l40.507813-10.820312-15.625 38.90625"/><path d="M2564.414062 2364.921875l61.171876-57.34375"/><path d="M2585.429688 2319.53125l40.15625-11.953125-14.53125 39.296875"/><path d="M2561.835938 2496.289062l66.328124-65.039062"/><path d="M2588.242188 2444.101562l39.921874-12.851562-13.671874 39.648438"/><path d="M2559.296875 2627.578125l71.40625-72.65625"/><path d="M2591.054688 2568.515625l39.648437-13.59375-12.929687 39.882813"/><path d="M2775.195312 132.421875l-20.390624 72.65625"/><path d="M2782.96875 174.0625l-28.164062 31.015625-7.929688-41.171875"/><path d="M2772.65625 263.75l-15.3125 65"/><path d="M2784.179688 296.5625 2757.34375 328.75l-9.648438-40.78125"/><path d="M2770.117188 395.078125l-10.234376 57.34375"/><path d="M2784.921875 418.789062l-25.039063 33.632813-11.875-40.195313"/><path d="M2767.539062 526.40625l-5.078124 49.6875"/><path d="M2784.921875 540.703125l-22.460937 35.390625-14.84375-39.179688"/><path d="M2765 657.734375v42.070313"/><path d="M2783.75 662.304688l-18.75 37.5-18.75-37.5"/><path d="M2762.460938 789.023438l5.078124 34.453124"/><path d="M2780.585938 783.632812l-13.046876 39.84375-24.023437-34.375"/><path d="M2759.882812 920.351562l10.234376 26.796876"/><path d="M2774.257812 905.429688l-4.140624 41.71875-30.898438-28.359376"/><path d="M2757.34375 1051.679688l15.3125 19.140624"/><path d="M2763.867188 1029.804688l8.789062 41.015624-38.085938-17.578124"/><path d="M2754.804688 1183.007812l20.390624 11.484376"/><path d="M2751.71875 1159.765625l23.476562 34.726563-41.875-2.03125"/><path d="M2752.265625 1314.335938l25.46875 3.828124"/><path d="M2743.4375 1294.0625l34.296875 24.101562-39.84375 12.96875"/><path d="M2749.6875 1445.664062l30.625-3.828124"/><path d="M2740.742188 1427.890625l39.570312 13.945313-34.921875 23.28125"/><path d="M2747.148438 1576.992188l35.703124-11.484376"/><path d="M2741.40625 1559.140625l41.445312 6.367187-29.960937 29.335938"/><path d="M2744.609375 1708.320312l40.78125-19.140624"/><path d="M2743.476562 1688.125l41.914063 1.054688-25.976563 32.890624"/><path d="M2742.03125 1839.648438l45.9375-26.796876"/><path d="M2746.09375 1815.585938l41.875-2.734376L2765 1847.96875"/><path d="M2739.492188 1970.976562l51.015624-34.453124"/><path d="M2748.90625 1941.992188l41.601562-5.46875-20.585937 36.523437"/><path d="M2736.953125 2102.304688l56.09375-42.109376"/><path d="M2751.796875 2067.695312l41.25-7.5-18.75 37.5"/><path d="M2734.414062 2233.59375l61.171876-49.6875"/><path d="M2754.6875 2192.96875l40.898438-9.0625-17.265626 38.203125"/><path d="M2731.835938 2364.921875l66.328124-57.34375"/><path d="M2757.539062 2317.929688l40.625-10.351563-16.09375 38.710937"/><path d="M2729.296875 2496.289062l71.40625-65.039062"/><path d="M2760.351562 2442.617188l40.351563-11.367188-15.117187 39.101562"/><path d="M2726.757812 2627.578125l76.484376-72.65625"/><path d="M2763.164062 2567.148438l40.078126-12.226563-14.257813 39.414063"/><path d="M2942.65625 132.421875l-15.3125 72.65625"/><path d="M2953.4375 172.265625l-26.09375 32.8125-10.625-40.546875"/><path d="M2940.117188 263.75l-10.234376 65"/><path d="M2954.21875 294.609375 2929.882812 328.75l-12.695312-39.921875"/><path d="M2937.539062 395.078125l-5.078124 57.34375"/><path d="M2954.453125 416.757812l-21.992187 35.664063-15.351563-38.984375"/><path d="M2935 526.40625v49.6875"/><path d="M2953.75 538.59375l-18.75 37.5-18.75-37.5"/><path d="M2932.460938 657.734375l5.078124 42.070313"/><path d="M2951.640625 660.3125l-14.101563 39.492188-23.125-35"/><path d="M2929.882812 789.023438l10.234376 34.453124"/><path d="M2947.421875 782.1875l-7.304687 41.289062-28.632813-30.664062"/><path d="M2927.34375 920.351562l15.3125 26.796876"/><path d="M2940.3125 905.273438l2.34375 41.875-34.882812-23.28125"/><path d="M2924.804688 1051.679688l20.390624 19.140624"/><path d="M2930.664062 1031.484375l14.53125 39.335937-40.15625-11.992187"/><path d="M2922.265625 1183.007812l25.46875 11.484376"/><path d="M2921.25 1161.992188l26.484375 32.5-41.875 1.71875"/><path d="M2919.6875 1314.335938l30.625 3.828124"/><path d="M2915.390625 1294.921875l34.921875 23.242187-39.570312 13.945313"/><path d="M2917.148438 1445.664062l35.703124-3.828124"/><path d="M2913.554688 1427.1875l39.296874 14.648438-35.273437 22.65625"/><path d="M2914.609375 1576.992188l40.78125-11.484376"/><path d="M2914.21875 1557.617188l41.171875 7.890624-31.015625 28.203126"/><path d="M2912.03125 1708.320312l45.9375-19.140624"/><path d="M2916.132812 1686.289062l41.835938 2.890626-27.421875 31.757812"/><path d="M2909.492188 1839.648438l51.015624-26.796876"/><path d="M2918.59375 1813.710938l41.914062-.859376-24.492187 34.023438"/><path d="M2906.953125 1970.976562l56.09375-34.453124"/><path d="M2921.289062 1940.15625l41.757813-3.632812-22.148437 35.625"/><path d="M2904.414062 2102.304688l61.171876-42.109376"/><path d="M2924.0625 2066.015625l41.523438-5.820313-20.273438 36.71875"/><path d="M2901.835938 2233.59375l66.328124-49.6875"/><path d="M2926.914062 2191.40625l41.25-7.5-18.75 37.5"/><path d="M2899.296875 2364.921875l71.40625-57.34375"/><path d="M2929.726562 2316.445312l40.976563-8.867187-17.5 38.085937"/><path d="M2896.757812 2496.289062l76.484376-65.039062"/><path d="M2932.539062 2441.25l40.703126-10-16.40625 38.554688"/><path d="M2894.21875 2627.578125l81.5625-72.65625"/><path d="M2935.3125 2565.859375l40.46875-10.9375-15.507812 38.945313"/><path d="M3110.117188 132.421875l-10.234376 72.65625"/><path d="M3123.671875 170.546875l-23.789063 34.53125-13.359374-39.726563"/><path d="M3107.539062 263.75l-5.078124 65"/><path d="M3124.0625 292.851562 3102.460938 328.75l-15.78125-38.828125"/><path d="M3105 395.078125v57.34375"/><path d="M3123.75 414.921875l-18.75 37.5-18.75-37.5"/><path d="M3102.460938 526.40625l5.078124 49.6875"/><path d="M3122.382812 536.914062l-14.84375 39.179688-22.460937-35.390625"/><path d="M3099.882812 657.734375l10.234376 42.070313"/><path d="M3119.492188 658.945312l-9.375 40.859376-27.070313-32.03125"/><path d="M3097.34375 789.023438l15.3125 34.453124"/><path d="M3114.53125 781.5625l-1.875 41.914062-32.382812-26.679687"/><path d="M3094.804688 920.351562l20.390624 26.796876"/><path d="M3107.382812 905.9375l7.8125 41.210938-37.65625-18.476563"/><path d="M3092.265625 1051.679688l25.46875 19.140624"/><path d="M3098.984375 1033.320312l18.75 37.5-41.25-7.5"/><path d="M3089.6875 1183.007812l30.625 11.484376"/><path d="M3091.757812 1163.789062l28.554688 30.703126-41.71875 4.375"/><path d="M3087.148438 1314.335938l35.703124 3.828124"/><path d="M3087.578125 1295.546875l35.273437 22.617187-39.296874 14.648438"/><path d="M3084.609375 1445.664062l40.78125-3.828124"/><path d="M3086.328125 1426.679688l39.0625 15.15625-35.585937 22.1875"/><path d="M3082.03125 1576.992188l45.9375-11.484376"/><path d="M3087.03125 1556.40625l40.9375 9.101562-31.835938 27.304688"/><path d="M3079.492188 1708.320312l51.015624-19.140624"/><path d="M3088.789062 1684.804688l41.71875 4.375-28.554687 30.742187"/><path d="M3076.953125 1839.648438l56.09375-26.796876"/><path d="M3091.132812 1812.109375l41.914063.742187-25.78125 33.085938"/><path d="M3074.414062 1970.976562l61.171876-34.453124"/><path d="M3093.710938 1938.59375l41.875-2.070312-23.476563 34.765624"/><path d="M3071.835938 2102.304688l66.328124-42.109376"/><path d="M3096.445312 2064.492188l41.71875-4.296876-21.640624 35.9375"/><path d="M3069.296875 2233.59375l71.40625-49.6875"/><path d="M3099.21875 2189.921875l41.484375-6.015625-20.078125 36.796875"/><path d="M3066.757812 2364.921875l76.484376-57.34375"/><path d="M3101.992188 2315.078125l41.25-7.5-18.75 37.5"/><path d="M3064.21875 2496.289062l81.5625-65.039062"/><path d="M3104.804688 2439.960938l40.976562-8.710938-17.617188 38.007812"/><path d="M3061.640625 2627.578125l86.71875-72.65625"/><path d="M3107.578125 2564.648438l40.78125-9.726563-16.71875 38.476563"/><path d="M3277.539062 132.421875l-5.078124 72.65625"/><path d="M3293.789062 168.984375l-21.328124 36.09375-16.09375-38.710937"/><path d="M3275 263.75v65"/><path d="M3293.75 291.25l-18.75 37.5-18.75-37.5"/><path d="M3272.460938 395.078125l5.078124 57.34375"/><path d="M3292.890625 413.4375l-15.351563 38.984375-21.992187-35.664063"/><path d="M3269.882812 526.40625l10.234376 49.6875"/><path d="M3290.9375 535.625l-10.820312 40.46875-25.898438-32.929688"/><path d="M3267.34375 657.734375l15.3125 42.070313"/><path d="M3287.460938 658.125l-4.804688 41.679688-30.429688-28.867188"/><path d="M3264.804688 789.023438l20.390624 34.453124"/><path d="M3282.226562 781.640625l2.96875 41.835937-35.234374-22.695312"/><path d="M3262.265625 920.351562l25.46875 26.796876"/><path d="M3275.46875 907.070312l12.265625 40.078126-39.414063-14.21875"/><path d="M3259.6875 1051.679688l30.625 19.140624"/><path d="M3268.4375 1035.039062l21.875 35.78125-41.757812-3.984374"/><path d="M3257.148438 1183.007812l35.703124 11.484376"/><path d="M3262.890625 1165.15625l29.960937 29.335938-41.445312 6.367187"/><path d="M3254.609375 1314.335938l40.78125 3.828124"/><path d="M3259.804688 1296.015625l35.585937 22.148437-39.0625 15.15625"/><path d="M3252.03125 1445.664062l45.9375-3.828124"/><path d="M3259.023438 1426.289062l38.945312 15.546876-35.820312 21.796874"/><path d="M3249.492188 1576.992188l51.015624-11.484376"/><path d="M3259.804688 1555.46875l40.703124 10.039062-32.460937 26.523438"/><path d="M3246.953125 1708.320312l56.09375-19.140624"/><path d="M3261.484375 1683.554688l41.5625 5.625-29.453125 29.84375"/><path d="M3244.414062 1839.648438l61.171876-26.796876"/><path d="M3263.710938 1810.703125l41.875 2.148437-26.835938 32.226563"/><path d="M3241.835938 1970.976562l66.328124-34.453124"/><path d="M3266.210938 1937.1875l41.953124-.664062-24.648437 33.945312"/><path d="M3239.296875 2102.304688l71.40625-42.109376"/><path d="M3268.867188 2063.085938l41.835937-2.890626-22.8125 35.195313"/><path d="M3236.757812 2233.59375l76.484376-49.6875"/><path d="M3271.601562 2188.59375l41.640626-4.6875-21.210938 36.132812"/><path d="M3234.21875 2364.921875l81.5625-57.34375"/><path d="M3274.335938 2313.789062l41.445312-6.210937-19.882812 36.875"/><path d="M3231.640625 2496.289062l86.71875-65.039062"/><path d="M3277.109375 2438.75l41.25-7.5-18.75 37.5"/><path d="M3229.101562 2627.578125l91.796876-72.65625"/><path d="M3279.84375 2563.476562l41.054688-8.554687-17.773438 37.96875"/><path d="M3445 132.421875v72.65625"/><path d="M3463.75 167.578125l-18.75 37.5-18.75-37.5"/><path d="M3442.460938 263.75l5.078124 65"/><path d="M3463.320312 289.921875 3447.539062 328.75l-21.601562-35.898438"/><path d="M3439.882812 395.078125l10.234376 57.34375"/><path d="M3461.992188 412.226562l-11.875 40.195313-25.039063-33.632813"/><path d="M3437.34375 526.40625l15.3125 49.6875"/><path d="M3459.53125 534.765625l-6.875 41.328125-28.945312-30.3125"/><path d="M3434.804688 657.734375l20.390624 42.070313"/><path d="M3455.703125 657.851562l-.507813 41.953126-33.242187-25.585938"/><path d="M3432.265625 789.023438l25.46875 34.453124"/><path d="M3450.507812 782.1875l7.226563 41.289062-37.382813-18.984374"/><path d="M3429.6875 920.351562l30.625 26.796876"/><path d="M3444.414062 908.320312l15.898438 38.828126-40.585938-10.585938"/><path d="M3427.148438 1051.679688l35.703124 19.140624"/><path d="M3438.632812 1036.5625l24.21875 34.257812-41.914062-1.171874"/><path d="M3424.609375 1183.007812l40.78125 11.484376"/><path d="M3434.375 1166.289062l31.015625 28.203126-41.171875 7.890624"/><path d="M3422.03125 1314.335938l45.9375 3.828124"/><path d="M3432.148438 1296.367188l35.820312 21.796874-38.945312 15.546876"/><path d="M3419.492188 1445.664062l51.015624-3.828124"/><path d="M3431.71875 1425.9375l38.789062 15.898438-36.015624 21.523437"/><path d="M3416.953125 1576.992188l56.09375-11.484376"/><path d="M3432.539062 1554.648438l40.507813 10.859374-32.96875 25.898438"/><path d="M3414.414062 1708.320312l61.171876-19.140624"/><path d="M3434.21875 1682.460938l41.367188 6.71875-30.195313 29.101562"/><path d="M3411.835938 1839.648438l66.328124-26.796876"/><path d="M3436.367188 1809.53125l41.796874 3.320312-27.773437 31.445313"/><path d="M3409.296875 1970.976562l71.40625-34.453124"/><path d="M3438.789062 1935.9375l41.914063.585938-25.625 33.203124"/><path d="M3406.757812 2102.304688l76.484376-42.109376"/><path d="M3441.367188 2061.875l41.875-1.679688-23.828126 34.53125"/><path d="M3404.21875 2233.59375l81.5625-49.6875"/><path d="M3444.023438 2187.382812l41.757812-3.476562-22.265625 35.507812"/><path d="M3401.640625 2364.921875l86.71875-57.34375"/><path d="M3446.71875 2312.617188l41.640625-5.039063-20.9375 36.328125"/><path d="M3399.101562 2496.289062l91.796876-65.039062"/><path d="M3449.453125 2437.617188l41.445313-6.367188-19.765626 36.953125"/><path d="M3396.5625 2627.578125l96.875-72.65625"/><path d="M3452.1875 2562.421875l41.25-7.5-18.75 37.5"/></g><g clip-path="url(#w)"><path d="M-3836.679688 1380H7496.679688" class="h"/></g><g clip-path="url(#x)"><path d="M-3836.679688 14130 7496.679688-11370" class="h"/></g><g class="f"><path d="M1830 1380h566.679688"/><path d="M2298.75 1336.25l97.929688 43.75-97.929688 50"/></g><g clip-path="url(#y)"><path d="M1830 1380l566.679688-1275" class="f"/></g><g clip-path="url(#z)"><path d="M2113.320312 742.5 2396.679688 105" class="f"/></g><path d="M2192.5 680l-79.179688 62.5L2105 642.5" class="f"/><g clip-path="url(#A)"><path d="M2113.320312 105l-41.601562 74.257812-40 69.921876-38.4375 65.859374-36.992188 62.03125L1920.625 435.46875l-34.492188 55-33.359374 51.796875-32.304688 48.789063-31.40625 45.9375-30.546875 43.28125-29.726563 40.742187-29.0625 38.398437-28.4375 36.132813-27.890624 34.023437-27.34375 32.070313-26.953126 30.15625-26.601562 28.4375-26.289062 26.796875-26.015626 25.195312-25.78125 23.75-25.664062 22.382813-25.546875 21.054687-25.546875 19.84375-25.46875 18.671876-25.585938 17.578124-25.625 16.5625-25.742187 15.625-25.9375 14.6875-26.132813 13.828126-26.367187 13.046874-26.679687 12.265626-27.03125 11.5625-27.382813 10.859374-27.773437 10.273438-28.203126 9.648438-28.710937 9.101562-29.21875 8.554688-29.765625 8.085937-30.351562 7.578125-30.976563 7.148438-31.640625 6.71875-32.34375 6.367187-33.085938 5.976563-33.828124 5.625-34.648438 5.273437-35.507812 5-36.40625 4.6875-37.304688 4.453125-38.28125 4.140625-39.257812 3.945313-40.3125 3.710937-41.40625 3.476563-42.5 3.28125-43.710938 3.085937-44.882812 2.890625-46.132813 2.734375-47.460937 2.578125-48.789063 2.421875-50.15625 2.304687-51.640625 2.148438-53.085938 2.03125-54.648437 1.914062-56.25 1.796876-57.851563 1.71875L-150 1354.21875l-61.289062 1.484375" class="b"/></g><g clip-path="url(#B)"><path d="M1263.320312 105l-67.5 74.257812-66.640624 69.921876-65.9375 65.859374-65.3125 62.03125-64.882813 58.398438-64.53125 55-64.375 51.796875-64.257813 48.789063-64.296874 45.9375-64.414063 43.28125-64.726563 40.742187-65.039062 38.398437-65.546875 36.132813-66.132813 34.023437-66.757812 32.070313-67.539062 30.15625-68.4375 28.4375-69.375 26.796875L7.1875 972.226562l-71.5625 23.75-72.851562 22.382813-74.179688 21.054687" class="b"/></g><g clip-path="url(#C)"><path d="M2963.320312 105l-15.742187 74.257812-13.28125 69.921876-10.9375 65.859374-8.671875 62.03125-6.523438 58.398438-4.375 55-2.382812 51.796875-.390625 48.789063 1.523437 45.9375 3.359376 43.28125 5.195312 40.742187 6.953125 38.398437 8.671875 36.132813 10.351562 34.023437 12.03125 32.070313 13.632813 30.15625 15.273437 28.4375 16.835938 26.796875 18.398438 25.195312 19.960937 23.75 21.523437 22.382813 23.007813 21.054687 24.609375 19.84375 26.09375 18.671876 27.617188 17.578124 29.179687 16.5625 30.703125 15.625 32.265625 14.6875 33.828125 13.828126 35.390625 13.046874 36.992187 12.265626 38.632813 11.5625 40.234375 10.859374 41.875 10.273438 43.554688 9.648438 45.273437 9.101562 47.03125 8.554688 48.789063 8.085937 50.585937 7.578125 52.421875 7.148438 54.296875 6.71875 56.210937 6.367187" class="b"/></g><g clip-path="url(#D)"><path d="M1830 2655l50.234375-74.257812 48.867187-69.921876 47.617188-65.859374 46.445312-61.992188 45.390626-58.4375 44.53125-55 43.671874-51.796875 42.96875-48.789063 42.382813-45.9375 41.796875-43.28125 41.40625-40.742187 41.09375-38.359375 40.78125-36.171875 40.625-34.023437 40.507812-32.03125 40.46875-30.195313 40.546876-28.4375 40.625-26.796875 40.820312-25.195312 41.09375-23.75 41.367188-22.382813L2775 1720.585938l42.226562-19.804688 42.695313-18.710938 43.28125-17.578124 43.90625-16.5625 44.570313-15.625 45.3125-14.6875 46.132812-13.828126 46.992188-13.046874 47.890624-12.265626 48.867188-11.5625 49.921875-10.859374 50.976563-10.273438 52.148437-9.648438 53.359375-9.101562 54.648438-8.554688 55.9375-8.085937 57.34375-7.578125L3660 1495.664062l60.273438-6.71875 61.875-6.367187 63.476562-5.976563" class="b"/></g><g clip-path="url(#E)"><path d="M696.679688 2655l15.703124-74.257812 13.320313-69.921876 10.9375-65.859374 8.671875-61.992188 6.523438-58.4375 4.375-55 2.382812-51.796875.390625-48.789063-1.523437-45.9375-3.359376-43.28125-5.195312-40.742187-6.953125-38.359375-8.671875-36.171875-10.351562-34.023437-12.03125-32.03125-13.671876-30.195313-15.234374-28.4375-16.835938-26.796875-18.398438-25.195312-19.960937-23.75-21.523437-22.382813-23.046876-21.054687-24.570312-19.804688-26.09375-18.710938-27.65625-17.578124-29.140625-16.5625-30.703125-15.625-32.304688-14.6875-33.789062-13.828126-35.429688-13.046874-36.992187-12.265626-38.59375-11.5625-40.234375-10.859374-41.875-10.273438-43.554688-9.648438-45.273437-9.101562-47.03125-8.554688-48.789063-8.085937-50.585937-7.578125-52.421875-7.148438-54.296875-6.71875-56.210937-6.367187" class="b"/></g><g clip-path="url(#F)"><path d="M980 2655l24.375-74.257812 22.1875-69.921876 20.078125-65.859374 18.164063-61.992188 16.210937-58.4375 14.414063-55 12.695312-51.796875 11.054688-48.789063 9.453124-45.9375 7.890626-43.28125 6.484374-40.742187 5.039063-38.359375 3.710937-36.171875 2.382813-34.023437 1.09375-32.03125-.078125-30.195313-1.328125-28.4375-2.460937-26.796875-3.59375-25.195312-4.726563-23.75-5.78125-22.382813-6.835937-21.054687-7.890626-19.804688-8.90625-18.710938-9.882812-17.578124-10.898438-16.5625-11.914062-15.625-12.851562-14.6875-13.828126-13.828126-14.804687-13.046874-15.78125-12.265626-16.71875-11.5625-17.695313-10.859374-18.671874-10.273438-19.648438-9.648438-20.625-9.101562-21.601562-8.554688-22.578126-8.085937L862.5 1502.8125l-24.609375-7.148438-25.664063-6.71875-26.679687-6.367187-27.773437-5.976563-28.867188-5.625-29.921875-5.273437-31.09375-5-32.1875-4.6875-33.398437-4.453125-34.53125-4.140625-35.78125-3.945313-37.03125-3.671874-38.320313-3.515626-39.609375-3.28125-40.9375-3.085937-42.304688-2.890625-43.710937-2.734375-45.15625-2.578125-46.640625-2.421875-48.125-2.304687-49.726562-2.148438-51.289063-2.03125-52.929687-1.914062-54.648438-1.796876-56.328125-1.679687-58.164063-1.601563" class="b"/></g><g clip-path="url(#G)"><path d="M1546.679688 2655l41.601562-74.257812 39.960938-69.921876 38.4375-65.859374 37.03125-61.992188 35.664062-58.4375 34.492188-55 33.359374-51.796875 32.304688-48.789063 31.40625-45.9375 30.507812-43.28125 29.765626-40.742187 29.0625-38.359375 28.4375-36.171875 27.890624-34.023437 27.34375-32.03125 26.953126-30.195313 26.601562-28.4375 26.25-26.796875 26.015625-25.195312 25.820313-23.75 25.664062-22.382813 25.546875-21.054687 25.507813-19.804688 25.507812-18.710938 25.546875-17.578124 25.625-16.5625 25.78125-15.625 25.9375-14.6875 26.132813-13.828126 26.367187-13.046874 26.679687-12.265626 27.03125-11.5625 27.34375-10.859374 27.773438-10.273438 28.242188-9.648438 28.710937-9.101562 29.179687-8.554688 29.804688-8.085937 30.351562-7.578125 30.976563-7.148438 31.640625-6.71875 32.34375-6.367187 33.085938-5.976563 33.828124-5.625 34.648438-5.273437 35.507812-5 36.40625-4.6875 37.304688-4.453125 38.242188-4.140625 39.296874-3.945313 40.3125-3.671874 41.40625-3.515626 42.5-3.28125 43.710938-3.085937 44.882812-2.890625 46.132813-2.734375 47.460937-2.578125 48.789063-2.421875 50.15625-2.304687 51.640625-2.148438 53.085938-2.03125 54.648437-1.914062 56.210937-1.796876 57.890626-1.679687L3810 1405.820312l61.289062-1.523437" class="b"/></g><g clip-path="url(#H)"><path d="M2396.679688 2655l67.5-74.257812 66.640624-69.921876 65.9375-65.859374 65.3125-61.992188 64.882813-58.4375 64.53125-55 64.375-51.796875 64.257813-48.789063 64.296874-45.9375 64.414063-43.28125 64.726563-40.742187 65.039062-38.359375 65.546875-36.171875 66.09375-34.023437 66.796875-32.03125 67.539062-30.195313 68.4375-28.4375 69.375-26.796875 70.429688-25.195312 71.5625-23.75 72.851562-22.382813 74.179688-21.054687" class="b"/></g><style>.a{fill:none;stroke:#bfbfbf;stroke-dasharray:12.5,18.75;stroke-linecap:round;stroke-miterlimit:10;stroke-width:6.25;transform:matrix(.1,0,0,-.1,0,275)}.b{fill:none;stroke:red;stroke-linecap:round;stroke-miterlimit:10;stroke-width:12.5;transform:matrix(.1,0,0,-.1,0,275)}.c{fill:none;stroke:#000;stroke-miterlimit:10;transform:matrix(.1,0,0,-.1,0,275)}.d{stroke-linecap:square;stroke-width:12.5}.e{stroke-width:6.25}.f{fill:none;stroke:red;stroke-linecap:round;stroke-miterlimit:10;stroke-width:18.75;transform:matrix(.1,0,0,-.1,0,275)}.g{fill:none;stroke:#bfbfbf;stroke-linecap:round;stroke-miterlimit:10;stroke-width:6.25;transform:matrix(.1,0,0,-.1,0,275)}.h{fill:none;stroke:#000;stroke-linecap:round;stroke-miterlimit:10;stroke-width:6.25;transform:matrix(.1,0,0,-.1,0,275)}</style></svg>