<svg xmlns="http://www.w3.org/2000/svg" width="383pt" height="275pt" viewBox="0 0 383 275"><defs><path d="M1.9375-3.7812V0h.6719v-5.3125h-.4375c-.2344.8125-.39065.921875-1.406275 1.046875v.4844zm0 0" id="g"/><path d="M1.4375-.7812H.6563V0h.7813zm0 0" id="a"/><path d="M3.9063-5.3125H.3438v.6406h2.875C1.953125-2.859375 1.4375-1.75 1.03125 0h.7031c.296875-1.703125.96875-3.171875 2.171875-4.765625zm0 0" id="f"/><path d="M3.5625-5.3125H.8281L.4219-2.4219h.6094c.3125-.375.5625-.5.984375-.5.703125 0 1.15625.484375 1.15625 1.28125 0 .765625-.4375 1.234375-1.15625 1.234375-.578125 0-.9375-.296875-1.09375-.90625h-.6562c.09375.4375.15625.65625.3125.84375.3125.40625.84375.640625 1.453125.640625 1.0625 0 1.8125-.78125 1.8125-1.90625C3.84375-2.78125 3.15625-3.5 2.125-3.5c-.375 0-.671875.09375-.984375.3125l.2188-1.4844H3.5625zm0 0" id="b"/><path d="M3.7969-.6562H1c.0625-.4375.3125-.703125.953125-1.09375l.75-.4062c.75-.40625 1.125-.953125 1.125-1.59375 0-.453125-.171875-.859375-.484375-1.140625C3.015625-5.1875 2.625-5.3125 2.125-5.3125c-.671875 0-1.171875.234375-1.46875.6875-.1875.28125-.265625.609375-.28125 1.15625h.6563c.03125-.359375.078125-.578125.15625-.75.171875-.328125.515625-.515625.921875-.515625.59375 0 1.046875.421875 1.046875.984375 0 .421875-.25.78125-.71875 1.0625l-.6875.3906C.640625-1.671875.3125-1.171875.25 0h3.5469zm0 0" id="c"/><path d="M2.0625-5.3125c-.5 0-.9375.21875-1.21875.578125C.5-4.265625.328125-3.5625.328125-2.578125c0 1.796875.59375 2.75 1.734375 2.75 1.125 0 1.734375-.953125 1.734375-2.703125 0-1.03125-.15625-1.71875-.515625-2.203125C3-5.109375 2.5625-5.3125 2.0625-5.3125zm0 .5781c.71875 0 1.0625.71875 1.0625 2.140625C3.125-1.078125 2.78125-.375 2.046875-.375 1.34375-.375 1-1.109375 1-2.5625c0-1.453125.34375-2.171875 1.0625-2.171875zm0 0" id="d"/><path d="M1.6563-2.4375h.3594c.734375 0 1.109375.328125 1.109375.953125C3.125-.8125 2.703125-.40625 2.015625-.40625 1.296875-.40625.9375-.765625.90625-1.546875H.2344C.265625-1.125.34375-.84375.46875-.59375.75-.09375 1.265625.171875 2 .171875c1.09375 0 1.796875-.65625 1.796875-1.65625 0-.671875-.265625-1.046875-.90625-1.265625.5-.203125.75-.578125.75-1.109375 0-.90625-.609375-1.453125-1.625-1.453125C.9375-5.3125.375-4.734375.359375-3.59375h.6563c0-.328125.03125-.515625.109375-.671875.15625-.296875.484375-.46875.90625-.46875.578125 0 .9375.34375.9375.90625 0 .375-.140625.59375-.4375.71875C2.359375-3.03125 2.125-3 1.65625-3zm0 0" id="e"/><clipPath id="h"><path d="M57 9.5h2v255h-2zm0 0"/></clipPath><clipPath id="i"><path d="M108 9.5h2v255h-2zm0 0"/></clipPath><clipPath id="j"><path d="M159 9.5h1v255h-1zm0 0"/></clipPath><clipPath id="k"><path d="M209 9.5h2v255h-2zm0 0"/></clipPath><clipPath id="l"><path d="M260 9.5h2v255h-2zm0 0"/></clipPath><clipPath id="m"><path d="M311 9.5h1v255h-1zm0 0"/></clipPath><clipPath id="n"><path d="M361 9.5h1v255h-1zm0 0"/></clipPath><clipPath id="o"><path d="M22 236h340v2H22zm0 0"/></clipPath><clipPath id="p"><path d="M22 172h340v2H22zm0 0"/></clipPath><clipPath id="q"><path d="M22 109h340v1H22zm0 0"/></clipPath><clipPath id="r"><path d="M22 45h340v1H22zm0 0"/></clipPath><clipPath id="s"><path d="M22 65h317v199.5H22zm0 0"/></clipPath><clipPath id="t"><path d="M22 136h319v2H22zm0 0"/></clipPath></defs><g clip-path="url(#h)"><path d="M582.851562 105v2550" class="a"/></g><g clip-path="url(#i)"><path d="M1089.023438 105v2550" class="a"/></g><g clip-path="url(#j)"><path d="M1595.234375 105v2550" class="a"/></g><g clip-path="url(#k)"><path d="M2101.40625 105v2550" class="a"/></g><g clip-path="url(#l)"><path d="M2607.617188 105v2550" class="a"/></g><g clip-path="url(#m)"><path d="M3113.789062 105v2550" class="a"/></g><g clip-path="url(#n)"><path d="M3620 105v2550" class="a"/></g><g clip-path="url(#o)"><path d="M220 381.445312h3400" class="a"/></g><g clip-path="url(#p)"><path d="M220 1018.945312h3400" class="a"/></g><g clip-path="url(#q)"><path d="M220 1656.445312h3400" class="a"/></g><g clip-path="url(#r)"><path d="M220 2293.945312h3400" class="a"/></g><g class="b"><path d="M220 105h3400" class="c"/><g class="d"><path d="M228.515625 105v25"/><path d="M279.140625 105v25"/><path d="M329.726562 105v25"/><path d="M380.351562 105v25"/><path d="M430.976562 105v25"/><path d="M481.601562 105v25"/><path d="M532.226562 105v25"/><path d="M582.851562 105v50"/><path d="M633.476562 105v25"/><path d="M684.101562 105v25"/><path d="M734.6875 105v25"/><path d="M785.3125 105v25"/><path d="M835.9375 105v25"/><path d="M886.5625 105v25"/><path d="M937.1875 105v25"/><path d="M987.8125 105v25"/><path d="M1038.4375 105v25"/><path d="M1089.023438 105v50"/><path d="M1139.648438 105v25"/><path d="M1190.273438 105v25"/><path d="M1240.898438 105v25"/><path d="M1291.523438 105v25"/><path d="M1342.148438 105v25"/><path d="M1392.734375 105v25"/><path d="M1443.398438 105v25"/><path d="M1493.984375 105v25"/><path d="M1544.609375 105v25"/><path d="M1595.234375 105v50"/><path d="M1645.859375 105v25"/><path d="M1696.445312 105v25"/><path d="M1747.109375 105v25"/><path d="M1797.695312 105v25"/><path d="M1848.320312 105v25"/><path d="M1898.945312 105v25"/><path d="M1949.570312 105v25"/><path d="M2000.195312 105v25"/><path d="M2050.78125 105v25"/><path d="M2101.40625 105v50"/><path d="M2152.03125 105v25"/><path d="M2202.65625 105v25"/><path d="M2253.28125 105v25"/><path d="M2303.90625 105v25"/><path d="M2354.53125 105v25"/><path d="M2405.15625 105v25"/><path d="M2455.742188 105v25"/><path d="M2506.367188 105v25"/><path d="M2556.992188 105v25"/><path d="M2607.617188 105v50"/><path d="M2658.242188 105v25"/><path d="M2708.867188 105v25"/><path d="M2759.453125 105v25"/><path d="M2810.078125 105v25"/><path d="M2860.703125 105v25"/><path d="M2911.328125 105v25"/><path d="M2961.953125 105v25"/><path d="M3012.578125 105v25"/><path d="M3063.203125 105v25"/><path d="M3113.789062 105v50"/><path d="M3164.414062 105v25"/><path d="M3215.039062 105v25"/><path d="M3265.664062 105v25"/><path d="M3316.289062 105v25"/><path d="M3366.914062 105v25"/><path d="M3417.539062 105v25"/><path d="M3468.125 105v25"/><path d="M3518.75 105v25"/><path d="M3569.375 105v25"/><path d="M3620 105v50"/></g></g><use x="50.9531" y="274.5" href="#g"/><use x="55.1231" y="274.5" href="#a"/><use x="57.2081" y="274.5" href="#f"/><use x="61.3781" y="274.5" href="#b"/><use x="101.5781" y="274.5" href="#c"/><use x="105.7481" y="274.5" href="#a"/><use x="107.8331" y="274.5" href="#d"/><use x="112.0031" y="274.5" href="#d"/><use x="152.2031" y="274.5" href="#c"/><use x="156.3731" y="274.5" href="#a"/><use x="158.4581" y="274.5" href="#c"/><use x="162.6281" y="274.5" href="#b"/><use x="202.8281" y="274.5" href="#c"/><use x="206.9981" y="274.5" href="#a"/><use x="209.0831" y="274.5" href="#b"/><use x="213.2531" y="274.5" href="#d"/><use x="253.4531" y="274.5" href="#c"/><use x="257.6231" y="274.5" href="#a"/><use x="259.7081" y="274.5" href="#f"/><use x="263.8781" y="274.5" href="#b"/><use x="304.0781" y="274.5" href="#e"/><use x="308.2481" y="274.5" href="#a"/><use x="310.3331" y="274.5" href="#d"/><use x="314.5031" y="274.5" href="#d"/><use x="354.7031" y="274.5" href="#e"/><use x="358.8731" y="274.5" href="#a"/><use x="360.9581" y="274.5" href="#c"/><use x="365.1281" y="274.5" href="#b"/><g class="b"><path d="M220 2655h3400" class="c"/><g class="d"><path d="M228.515625 2655v-25"/><path d="M279.140625 2655v-25"/><path d="M329.726562 2655v-25"/><path d="M380.351562 2655v-25"/><path d="M430.976562 2655v-25"/><path d="M481.601562 2655v-25"/><path d="M532.226562 2655v-25"/><path d="M582.851562 2655v-50"/><path d="M633.476562 2655v-25"/><path d="M684.101562 2655v-25"/><path d="M734.6875 2655v-25"/><path d="M785.3125 2655v-25"/><path d="M835.9375 2655v-25"/><path d="M886.5625 2655v-25"/><path d="M937.1875 2655v-25"/><path d="M987.8125 2655v-25"/><path d="M1038.4375 2655v-25"/><path d="M1089.023438 2655v-50"/><path d="M1139.648438 2655v-25"/><path d="M1190.273438 2655v-25"/><path d="M1240.898438 2655v-25"/><path d="M1291.523438 2655v-25"/><path d="M1342.148438 2655v-25"/><path d="M1392.734375 2655v-25"/><path d="M1443.398438 2655v-25"/><path d="M1493.984375 2655v-25"/><path d="M1544.609375 2655v-25"/><path d="M1595.234375 2655v-50"/><path d="M1645.859375 2655v-25"/><path d="M1696.445312 2655v-25"/><path d="M1747.109375 2655v-25"/><path d="M1797.695312 2655v-25"/><path d="M1848.320312 2655v-25"/><path d="M1898.945312 2655v-25"/><path d="M1949.570312 2655v-25"/><path d="M2000.195312 2655v-25"/><path d="M2050.78125 2655v-25"/><path d="M2101.40625 2655v-50"/><path d="M2152.03125 2655v-25"/><path d="M2202.65625 2655v-25"/><path d="M2253.28125 2655v-25"/><path d="M2303.90625 2655v-25"/><path d="M2354.53125 2655v-25"/><path d="M2405.15625 2655v-25"/><path d="M2455.742188 2655v-25"/><path d="M2506.367188 2655v-25"/><path d="M2556.992188 2655v-25"/><path d="M2607.617188 2655v-50"/><path d="M2658.242188 2655v-25"/><path d="M2708.867188 2655v-25"/><path d="M2759.453125 2655v-25"/><path d="M2810.078125 2655v-25"/><path d="M2860.703125 2655v-25"/><path d="M2911.328125 2655v-25"/><path d="M2961.953125 2655v-25"/><path d="M3012.578125 2655v-25"/><path d="M3063.203125 2655v-25"/><path d="M3113.789062 2655v-50"/><path d="M3164.414062 2655v-25"/><path d="M3215.039062 2655v-25"/><path d="M3265.664062 2655v-25"/><path d="M3316.289062 2655v-25"/><path d="M3366.914062 2655v-25"/><path d="M3417.539062 2655v-25"/><path d="M3468.125 2655v-25"/><path d="M3518.75 2655v-25"/><path d="M3569.375 2655v-25"/><path d="M3620 2655v-50"/></g></g><use x="50.9531" y="6.375" href="#g"/><use x="55.1231" y="6.375" href="#a"/><use x="57.2081" y="6.375" href="#f"/><use x="61.3781" y="6.375" href="#b"/><use x="101.5781" y="6.375" href="#c"/><use x="105.7481" y="6.375" href="#a"/><use x="107.8331" y="6.375" href="#d"/><use x="112.0031" y="6.375" href="#d"/><use x="152.2031" y="6.375" href="#c"/><use x="156.3731" y="6.375" href="#a"/><use x="158.4581" y="6.375" href="#c"/><use x="162.6281" y="6.375" href="#b"/><use x="202.8281" y="6.375" href="#c"/><use x="206.9981" y="6.375" href="#a"/><use x="209.0831" y="6.375" href="#b"/><use x="213.2531" y="6.375" href="#d"/><use x="253.4531" y="6.375" href="#c"/><use x="257.6231" y="6.375" href="#a"/><use x="259.7081" y="6.375" href="#f"/><use x="263.8781" y="6.375" href="#b"/><use x="304.0781" y="6.375" href="#e"/><use x="308.2481" y="6.375" href="#a"/><use x="310.3331" y="6.375" href="#d"/><use x="314.5031" y="6.375" href="#d"/><use x="354.7031" y="6.375" href="#e"/><use x="358.8731" y="6.375" href="#a"/><use x="360.9581" y="6.375" href="#c"/><use x="365.1281" y="6.375" href="#b"/><g class="b"><path d="M220 105v2550" class="c"/><g class="d"><path d="M220 126.445312h25"/><path d="M220 190.195312h25"/><path d="M220 253.945312h25"/><path d="M220 317.695312h25"/><path d="M220 381.445312h50"/><path d="M220 445.195312h25"/><path d="M220 508.945312h25"/><path d="M220 572.695312h25"/><path d="M220 636.445312h25"/><path d="M220 700.195312h25"/><path d="M220 763.945312h25"/><path d="M220 827.695312h25"/><path d="M220 891.445312h25"/><path d="M220 955.195312h25"/><path d="M220 1018.945312h50"/><path d="M220 1082.695312h25"/><path d="M220 1146.445312h25"/><path d="M220 1210.195312h25"/><path d="M220 1273.945312h25"/><path d="M220 1337.695312h25"/><path d="M220 1401.445312h25"/><path d="M220 1465.195312h25"/><path d="M220 1528.945312h25"/><path d="M220 1592.695312h25"/><path d="M220 1656.445312h50"/><path d="M220 1720.195312h25"/><path d="M220 1783.945312h25"/><path d="M220 1847.695312h25"/><path d="M220 1911.445312h25"/><path d="M220 1975.195312h25"/><path d="M220 2038.945312h25"/><path d="M220 2102.695312h25"/><path d="M220 2166.445312h25"/><path d="M220 2230.195312h25"/><path d="M220 2293.945312h50"/><path d="M220 2357.695312h25"/><path d="M220 2421.445312h25"/><path d="M220 2485.195312h25"/><path d="M220 2548.945312h25"/><path d="M220 2612.695312h25"/></g></g><use x=".5309" y="240.125" href="#c"/><use x="4.7009" y="240.125" href="#a"/><use x="6.7859" y="240.125" href="#f"/><use x="10.9559" y="240.125" href="#b"/><use x=".5309" y="176.375" href="#e"/><use x="4.7009" y="176.375" href="#a"/><use x="6.7859" y="176.375" href="#d"/><use x="10.9559" y="176.375" href="#d"/><use x=".5309" y="112.625" href="#e"/><use x="4.7009" y="112.625" href="#a"/><use x="6.7859" y="112.625" href="#c"/><use x="10.9559" y="112.625" href="#b"/><use x=".5309" y="48.875" href="#e"/><use x="4.7009" y="48.875" href="#a"/><use x="6.7859" y="48.875" href="#b"/><use x="10.9559" y="48.875" href="#d"/><g class="b"><path d="M3620 105v2550" class="c"/><g class="d"><path d="M3620 126.445312h-25"/><path d="M3620 190.195312h-25"/><path d="M3620 253.945312h-25"/><path d="M3620 317.695312h-25"/><path d="M3620 381.445312h-50"/><path d="M3620 445.195312h-25"/><path d="M3620 508.945312h-25"/><path d="M3620 572.695312h-25"/><path d="M3620 636.445312h-25"/><path d="M3620 700.195312h-25"/><path d="M3620 763.945312h-25"/><path d="M3620 827.695312h-25"/><path d="M3620 891.445312h-25"/><path d="M3620 955.195312h-25"/><path d="M3620 1018.945312h-50"/><path d="M3620 1082.695312h-25"/><path d="M3620 1146.445312h-25"/><path d="M3620 1210.195312h-25"/><path d="M3620 1273.945312h-25"/><path d="M3620 1337.695312h-25"/><path d="M3620 1401.445312h-25"/><path d="M3620 1465.195312h-25"/><path d="M3620 1528.945312h-25"/><path d="M3620 1592.695312h-25"/><path d="M3620 1656.445312h-50"/><path d="M3620 1720.195312h-25"/><path d="M3620 1783.945312h-25"/><path d="M3620 1847.695312h-25"/><path d="M3620 1911.445312h-25"/><path d="M3620 1975.195312h-25"/><path d="M3620 2038.945312h-25"/><path d="M3620 2102.695312h-25"/><path d="M3620 2166.445312h-25"/><path d="M3620 2230.195312h-25"/><path d="M3620 2293.945312h-50"/><path d="M3620 2357.695312h-25"/><path d="M3620 2421.445312h-25"/><path d="M3620 2485.195312h-25"/><path d="M3620 2548.945312h-25"/><path d="M3620 2612.695312h-25"/></g></g><use x="368.25" y="240.125" href="#c"/><use x="372.42" y="240.125" href="#a"/><use x="374.505" y="240.125" href="#f"/><use x="378.675" y="240.125" href="#b"/><use x="368.25" y="176.375" href="#e"/><use x="372.42" y="176.375" href="#a"/><use x="374.505" y="176.375" href="#d"/><use x="378.675" y="176.375" href="#d"/><use x="368.25" y="112.625" href="#e"/><use x="372.42" y="112.625" href="#a"/><use x="374.505" y="112.625" href="#c"/><use x="378.675" y="112.625" href="#b"/><use x="368.25" y="48.875" href="#e"/><use x="372.42" y="48.875" href="#a"/><use x="374.505" y="48.875" href="#b"/><use x="378.675" y="48.875" href="#d"/><g clip-path="url(#s)"><path d="M220 1354.492188l6.25 1.210937 6.25 3.515625 6.25 5.46875 6.25 6.914062 6.25 7.695313 6.25 7.773437 6.25 7.148438 6.25 5.742188 6.25 3.90625 6.25 1.601562 6.25-.78125 6.25-3.125 6.25-5.117188 6.25-6.71875 6.25-7.617187 6.25-7.851563 6.25-7.304687 6.25-6.054687 6.25-4.257813 6.25-2.03125 6.25.351563 6.25 2.734374 6.25 4.804688 6.25 6.484375 6.25 7.539063 6.25 7.851562 6.25 7.460938 6.25 6.328124 6.25 4.648438 6.25 2.460938 6.25.078124 6.25-2.304687 6.25-4.53125 6.25-6.25 6.25-7.421875 6.25-7.851562 6.25-7.617188 6.25-6.601562 6.25-4.960938 6.25-2.890625 6.25-.507813 6.25 1.914063 6.25 4.140625 6.25 5.976562 6.25 7.304688 6.25 7.890625 6.25 7.734375 6.25 6.835938 6.25 5.351562 6.25 3.28125 6.25.9375 6.25-1.484375 6.25-3.789063 6.25-5.703124 6.25-7.148438 6.25-7.890625 6.25-7.851563 6.25-7.109374 6.25-5.664063 6.25-3.710937 6.25-1.367188 6.25 1.054688 6.25 3.4375 6.25 5.429687 6.25 6.992187 6.25 7.851563 6.25 7.96875 6.25 7.304687 6.25 6.015626 6.25 4.101562 6.25 1.835938 6.25-.625 6.25-3.046876 6.25-5.15625 6.25-6.835937 6.25-7.773437 6.25-8.046876 6.25-7.539062 6.25-6.367188 6.25-4.492187 6.25-2.265625 6.25.195312 6.25 2.65625 6.25 4.84375 6.25 6.601563 6.25 7.734375 6.25 8.125 6.25 7.773438 6.25 6.640624 6.25 4.921876 6.25 2.695312 6.25.273438 6.25-2.265626 6.25-4.53125 6.25-6.40625 6.25-7.617187 6.25-8.203125 6.25-7.96875 6.25-6.953125 6.25-5.3125 6.25-3.164063 6.25-.703124 6.25 1.835937 6.25 4.21875 6.25 6.132813 6.25 7.578124 6.25 8.203126 6.25 8.125 6.25 7.265624 6.25 5.742188 6.25 3.59375 6.25 1.171875 6.25-1.40625 6.25-3.828125 6.25-5.9375 6.25-7.421875 6.25-8.242187 6.25-8.320313 6.25-7.578125 6.25-6.09375 6.25-4.0625 6.25-1.601562 6.25.9375 6.25 3.476562 6.25 5.625 6.25 7.304688 6.25 8.28125 6.25 8.476562 6.25 7.8125 6.25 6.523438 6.25 4.492187 6.25 2.109375 6.25-.507812 6.25-3.085938 6.25-5.351562 6.25-7.148438 6.25-8.28125 6.25-8.59375 6.25-8.125 6.25-6.835938 6.25-5 6.25-2.578124 6.25.039062 6.25 2.65625 6.25 5.078125 6.25 6.953125 6.25 8.242188 6.25 8.75 6.25 8.398437 6.25 7.226563 6.25 5.429687 6.25 3.085937 6.25.46875 6.25-2.265624 6.25-4.726563 6.25-6.796875 6.25-8.203125 6.25-8.828125 6.25-8.671875 6.25-7.617187 6.25-5.898438 6.25-3.59375 6.25-.9375 6.25 1.796875 6.25 4.414063 6.25 6.5625 6.25 8.164062 12.5 17.8125 6.25 8.007812 6.25 6.367188 6.25 4.101562 6.25 1.445313 6.25-1.328125 6.25-4.023438 6.25-6.367187 6.25-8.046875 6.25-9.023438 6.25-9.140624 6.25-8.398438 6.25-6.796875 6.25-4.648437 6.25-1.992188 6.25.898438 6.25 3.632812 6.25 6.09375 6.25 7.96875 6.25 9.101562 6.25 9.335938 6.25 8.75 6.25 7.304688 6.25 5.15625 6.25 2.539062 6.25-.390625 6.25-3.203125 6.25-5.820312 6.25-7.851563 6.25-9.140625 6.25-9.570312 6.25-9.140626 6.25-7.773437 6.25-5.703125 6.25-3.085938 6.25-.15625 6.25 2.8125 6.25 5.507813 6.25 7.695313 6.25 9.179687 6.25 9.804687 6.25 9.453126 6.25 8.28125 6.25 6.25 6.25 3.671874 6.25.703126 6.25-2.34375 6.25-5.15625 6.25-7.539063 6.25-9.21875 6.25-10 6.25-9.804687 6.25-8.789063 6.25-6.835937 6.25-4.257813 6.25-1.289063 6.25 1.875 6.25 4.804688 6.25 7.382812 6.25 9.179688 6.25 10.15625 6.25 10.234375 6.25 9.21875 6.25 7.460937 6.25 4.882813 6.25 1.875 6.25-1.328125 6.25-4.453125 6.25-7.148437 6.25-9.179688 6.25-10.351562 6.25-10.546876 6.25-9.765624 6.25-8.046876 6.25-5.507812 6.25-2.5 6.25.78125 6.25 4.023438 6.25 6.914062 6.25 9.101562 6.25 10.546876 6.25 10.898437 6.25 10.273437 6.25 8.632813 6.25 6.25 6.25 3.125 6.25-.195313 6.25-3.554687 6.25-6.640625 6.25-9.0625 6.25-10.664062 6.25-11.289063 6.25-10.78125 6.25-9.296875 6.25-6.914062 6.25-3.867188 6.25-.429688 6.25 3.085938 6.25 6.328125 6.25 9.023437 6.25 10.78125 6.25 11.640626 6.25 11.328124 6.25 9.960938 6.25 7.65625 6.25 4.570312 6.25 1.09375 6.25-2.578124 6.25-5.976563 6.25-8.867187 6.25-10.9375L1970 1378.125l6.25-11.875 6.25-10.664062 6.25-8.398438 6.25-5.390625 6.25-1.757813 6.25 1.992188 6.25 5.585938 6.25 8.75 6.25 11.054687 6.25 12.304687 6.25 12.460938 6.25 11.367188 6.25 9.257812 6.25 6.171875 6.25 2.578125 6.25-1.40625 6.25-5.195312 6.25-8.554688 6.25-11.171875 6.25-12.65625 6.25-13.046875 6.25-12.148438 6.25-10.078124 6.25-7.070313 6.25-3.359375 6.25.703125 6.25 4.726563 6.25 8.359374 6.25 11.25 6.25 13.046876 6.25 13.632812 6.25 12.929688 6.25 11.015624 6.25 8.007813 6.25 4.257813h6.25l6.25-4.21875 6.25-8.125 6.25-11.289063 6.25-13.398437 6.25-14.296876 6.25-13.75 6.25-11.992187 6.25-9.0625 6.25-5.195313 6.25-.820312 6.25 3.671875 6.25 7.851563 6.25 11.328124 6.25 13.789063 6.25 14.921875 6.25 14.6875 6.25 13.046875 6.25 10.117187 6.25 6.25 6.25 1.71875 6.25-3.046874 6.25-7.539063 6.25-11.367187 6.25-14.140626 6.25-15.664062 6.25-15.625 6.25-14.140625 6.25-11.328125 6.25-7.382812 6.25-2.695313 6.25 2.304687 6.25 7.1875 6.25 11.367188 6.25 14.53125 6.25 16.40625 6.25 16.679688 6.25 15.390624 6.25 12.617188 6.25 8.632812 6.25 3.789063 6.25-1.523437 6.25-6.71875 6.25-11.367188 6.25-14.960938 6.25-17.1875 6.25-17.8125 6.25-16.71875L2495 1335.625l6.25-10.039062 6.25-4.960938 6.25.585938 6.25 6.210937 6.25 11.328125 6.25 15.390625 6.25 18.046875 6.25 19.0625 6.25 18.242188 6.25 15.703124 6.25 11.601563 6.25 6.328125 6.25.429688 6.25-5.585938 6.25-11.25 6.25-15.859375 6.25-19.023437 6.25-20.429688 6.25-19.921875 6.25-17.5 6.25-13.398437 6.25-7.929688 6.25-1.640625 6.25 4.960937 6.25 11.09375 6.25 16.367188 6.25 20.078125 6.25 21.992187 6.25 21.835938 6.25 19.609375 6.25 15.429687 6.25 9.726563 6.25 3.046875 6.25-4.101562 6.25-10.976563 6.25-16.875 6.25-21.328125 6.25-23.789062 6.25-24.023438 6.25-22.03125 6.25-17.8125 6.25-11.875 6.25-4.648438 6.25 3.085938 6.25 10.78125 6.25 17.5 6.25 22.695312 6.25 25.898438 6.25 26.601562 6.25 24.84375 6.25 20.664063 6.25 14.414063 6.25 6.640624 6.25-1.875 6.25-10.46875 6.25-18.203124 6.25-24.414063L2857.5 1387.5l6.25-29.726562 6.25-28.28125 6.25-24.101563 6.25-17.5 6.25-9.101563 6.25.429688 6.25 10.078125 6.25 19.0625 6.25 26.40625 6.25 31.40625 6.25 33.554687 6.25 32.539063 6.25 28.398437 6.25 21.367188 6.25 12.148438 6.25 1.523437 6.25-9.609375 6.25-20.078125 6.25-28.945313 6.25-35.273437 6.25-38.4375 6.25-38.007813 6.25-33.90625 6.25-26.40625 6.25-16.132812 6.25-4.023438 6.25 8.90625 6.25 21.40625 6.25 32.265626 6.25 40.390624 6.25 44.921876 6.25 45.3125 6.25 41.328124 6.25 33.242188 6.25 21.601562 6.25 7.5 6.25-7.929687L3095 1510.625l6.25-36.875 6.25-47.539062 6.25-54.0625 6.25-55.703126 6.25-51.953124 6.25-43.085938 6.25-29.570312 6.25-12.617188 6.25 6.445312 6.25 25.859376 6.25 43.75 6.25 58.320312 6.25 68.085938 6.25 71.757812 6.25 68.59375 6.25 58.671875 6.25 42.382813 6.25 20.898437 6.25-4.023437 6.25-30.234376 6.25-55.351562 6.25-76.796875 6.25-92.460937 6.25-100.15625 6.25-98.671876 6.25-87.34375 6.25-66.367187 6.25-36.835937 6.25-.820313 6.25 39.0625 6.25 79.335937 6.25 116.328126 6.25 146.210937 6.25 165.15625 6.25 170.078125 6.25 158.476562 6.25 128.75 6.25 80.546876 6.25 14.6875 6.25-66.796876 6.25-160.664062 6.25-262.8125 6.25-368.320312 6.25-471.757813 6.25-567.8125 6.25-651.171875" style="fill:none;stroke-width:12.5;stroke-linecap:round;stroke-linejoin:round;stroke:#00008b;stroke-miterlimit:10;transform:matrix(.1,0,0,-.1,0,275)"/></g><g clip-path="url(#t)"><path d="M-2960.507812 1380h6361.015624" style="fill:none;stroke-width:12.5;stroke-linecap:round;stroke-linejoin:round;stroke:#006400;stroke-miterlimit:10;transform:matrix(.1,0,0,-.1,0,275)"/></g><style>.a{fill:none;stroke:#bfbfbf;stroke-dasharray:12.5,18.75;stroke-linecap:round;stroke-miterlimit:10;stroke-width:6.25;transform:matrix(.1,0,0,-.1,0,275)}.b{fill:none;stroke:#000;stroke-miterlimit:10;transform:matrix(.1,0,0,-.1,0,275)}.c{stroke-linecap:square;stroke-width:12.5}.d{stroke-width:6.25}</style></svg>