<svg xmlns="http://www.w3.org/2000/svg" width="366pt" height="274pt" viewBox="0 0 366 274"><defs><path d="M2.125-2.3437H.3438v.5469H2.125zm0 0" id="a"/><path d="M3.5625-5.3125H.8281L.4219-2.4219h.6094c.3125-.375.5625-.5.984375-.5.703125 0 1.15625.484375 1.15625 1.28125 0 .765625-.4375 1.234375-1.15625 1.234375-.578125 0-.9375-.296875-1.09375-.90625h-.6562c.09375.4375.15625.65625.3125.84375.3125.40625.84375.640625 1.453125.640625 1.0625 0 1.8125-.78125 1.8125-1.90625C3.84375-2.78125 3.15625-3.5 2.125-3.5c-.375 0-.671875.09375-.984375.3125l.2188-1.4844H3.5625zm0 0" id="d"/><path d="M1.4375-.7812H.6563V0h.7813zm0 0" id="b"/><path d="M2.0625-5.3125c-.5 0-.9375.21875-1.21875.578125C.5-4.265625.328125-3.5625.328125-2.578125c0 1.796875.59375 2.75 1.734375 2.75 1.125 0 1.734375-.953125 1.734375-2.703125 0-1.03125-.15625-1.71875-.515625-2.203125C3-5.109375 2.5625-5.3125 2.0625-5.3125zm0 .5781c.71875 0 1.0625.71875 1.0625 2.140625C3.125-1.078125 2.78125-.375 2.046875-.375 1.34375-.375 1-1.109375 1-2.5625c0-1.453125.34375-2.171875 1.0625-2.171875zm0 0" id="c"/><path d="M3.7969-.6562H1c.0625-.4375.3125-.703125.953125-1.09375l.75-.4062c.75-.40625 1.125-.953125 1.125-1.59375 0-.453125-.171875-.859375-.484375-1.140625C3.015625-5.1875 2.625-5.3125 2.125-5.3125c-.671875 0-1.171875.234375-1.46875.6875-.1875.28125-.265625.609375-.28125 1.15625h.6563c.03125-.359375.078125-.578125.15625-.75.171875-.328125.515625-.515625.921875-.515625.59375 0 1.046875.421875 1.046875.984375 0 .421875-.25.78125-.71875 1.0625l-.6875.3906C.640625-1.671875.3125-1.171875.25 0h3.5469zm0 0" id="e"/><path d="M1.6563-2.4375h.3594c.734375 0 1.109375.328125 1.109375.953125C3.125-.8125 2.703125-.40625 2.015625-.40625 1.296875-.40625.9375-.765625.90625-1.546875H.2344C.265625-1.125.34375-.84375.46875-.59375.75-.09375 1.265625.171875 2 .171875c1.09375 0 1.796875-.65625 1.796875-1.65625 0-.671875-.265625-1.046875-.90625-1.265625.5-.203125.75-.578125.75-1.109375 0-.90625-.609375-1.453125-1.625-1.453125C.9375-5.3125.375-4.734375.359375-3.59375h.6563c0-.328125.03125-.515625.109375-.671875.15625-.296875.484375-.46875.90625-.46875.578125 0 .9375.34375.9375.90625 0 .375-.140625.59375-.4375.71875C2.359375-3.03125 2.125-3 1.65625-3zm0 0" id="f"/><path d="M1.9375-3.7812V0h.6719v-5.3125h-.4375c-.2344.8125-.39065.921875-1.406275 1.046875v.4844zm0 0" id="g"/><clipPath id="h"><path d="M182 8.5h2v255h-2zm0 0"/></clipPath><clipPath id="i"><path d="M13 135h340v2H13zm0 0"/></clipPath><clipPath id="j"><path d="M47 8.5h2v255h-2zm0 0"/></clipPath><clipPath id="k"><path d="M115 8.5h1v255h-1zm0 0"/></clipPath><clipPath id="l"><path d="M182 8.5h2v255h-2zm0 0"/></clipPath><clipPath id="m"><path d="M250 8.5h1v255h-1zm0 0"/></clipPath><clipPath id="n"><path d="M317 8.5h2v255h-2zm0 0"/></clipPath><clipPath id="o"><path d="M13 246h340v2H13zm0 0"/></clipPath><clipPath id="p"><path d="M13 209h340v2H13zm0 0"/></clipPath><clipPath id="q"><path d="M13 172h340v2H13zm0 0"/></clipPath><clipPath id="r"><path d="M13 135h340v2H13zm0 0"/></clipPath><clipPath id="s"><path d="M13 98h340v2H13zm0 0"/></clipPath><clipPath id="t"><path d="M13 61h340v2H13zm0 0"/></clipPath><clipPath id="u"><path d="M13 24h340v2H13zm0 0"/></clipPath><clipPath id="v"><path d="M13 8.5h103V154H13zm0 0"/></clipPath><clipPath id="w"><path d="M80 8.5h206v255H80zm0 0"/></clipPath><clipPath id="x"><path d="M250 118h103v145.5H250zm0 0"/></clipPath></defs><g clip-path="url(#h)"><path d="M1830 105v2550" class="f"/></g><g clip-path="url(#i)"><path d="M130 1380h3400" class="f"/></g><g clip-path="url(#j)"><path d="M477.1875 105v2550" class="a"/></g><g clip-path="url(#k)"><path d="M1153.59375 105v2550" class="a"/></g><g clip-path="url(#l)"><path d="M1830 105v2550" class="a"/></g><g clip-path="url(#m)"><path d="M2506.40625 105v2550" class="a"/></g><g clip-path="url(#n)"><path d="M3182.8125 105v2550" class="a"/></g><g clip-path="url(#o)"><path d="M130 268.59375h3400" class="a"/></g><g clip-path="url(#p)"><path d="M130 639.0625h3400" class="a"/></g><g clip-path="url(#q)"><path d="M130 1009.53125h3400" class="a"/></g><g clip-path="url(#r)"><path d="M130 1380h3400" class="a"/></g><g clip-path="url(#s)"><path d="M130 1750.46875h3400" class="a"/></g><g clip-path="url(#t)"><path d="M130 2120.9375h3400" class="a"/></g><g clip-path="url(#u)"><path d="M130 2491.40625h3400" class="a"/></g><g class="b"><path d="M130 105h3400" class="c"/><g class="d"><path d="M138.984375 105v25"/><path d="M206.601562 105v25"/><path d="M274.257812 105v25"/><path d="M341.914062 105v25"/><path d="M409.53125 105v25"/><path d="M477.1875 105v50"/><path d="M544.804688 105v25"/><path d="M612.460938 105v25"/><path d="M680.117188 105v25"/><path d="M747.734375 105v25"/><path d="M815.390625 105v25"/><path d="M883.007812 105v25"/><path d="M950.664062 105v25"/><path d="M1018.320312 105v25"/><path d="M1085.9375 105v25"/><path d="M1153.59375 105v50"/><path d="M1221.210938 105v25"/><path d="M1288.867188 105v25"/><path d="M1356.523438 105v25"/><path d="M1424.140625 105v25"/><path d="M1491.796875 105v25"/><path d="M1559.414062 105v25"/><path d="M1627.070312 105v25"/><path d="M1694.726562 105v25"/><path d="M1762.34375 105v25"/><path d="M1830 105v50"/><path d="M1897.65625 105v25"/><path d="M1965.273438 105v25"/><path d="M2032.929688 105v25"/><path d="M2100.546875 105v25"/><path d="M2168.203125 105v25"/><path d="M2235.859375 105v25"/><path d="M2303.476562 105v25"/><path d="M2371.132812 105v25"/><path d="M2438.789062 105v25"/><path d="M2506.40625 105v50"/><path d="M2574.0625 105v25"/><path d="M2641.679688 105v25"/><path d="M2709.335938 105v25"/><path d="M2776.953125 105v25"/><path d="M2844.609375 105v25"/><path d="M2912.265625 105v25"/><path d="M2979.882812 105v25"/><path d="M3047.539062 105v25"/><path d="M3115.15625 105v25"/><path d="M3182.8125 105v50"/><path d="M3250.46875 105v25"/><path d="M3318.085938 105v25"/><path d="M3385.742188 105v25"/><path d="M3453.398438 105v25"/><path d="M3521.015625 105v25"/></g></g><use x="40.9145" y="273.5" href="#a"/><use x="43.412" y="273.5" href="#d"/><use x="47.582" y="273.5" href="#b"/><use x="49.667" y="273.5" href="#c"/><use x="108.4145" y="273.5" href="#a"/><use x="110.912" y="273.5" href="#e"/><use x="115.082" y="273.5" href="#b"/><use x="117.167" y="273.5" href="#d"/><use x="177.7879" y="273.5" href="#c"/><use x="181.9579" y="273.5" href="#b"/><use x="184.0429" y="273.5" href="#c"/><use x="245.2879" y="273.5" href="#e"/><use x="249.4579" y="273.5" href="#b"/><use x="251.5429" y="273.5" href="#d"/><use x="312.7879" y="273.5" href="#d"/><use x="316.9579" y="273.5" href="#b"/><use x="319.0429" y="273.5" href="#c"/><g class="b"><path d="M130 2655h3400" class="c"/><g class="d"><path d="M138.984375 2655v-25"/><path d="M206.601562 2655v-25"/><path d="M274.257812 2655v-25"/><path d="M341.914062 2655v-25"/><path d="M409.53125 2655v-25"/><path d="M477.1875 2655v-50"/><path d="M544.804688 2655v-25"/><path d="M612.460938 2655v-25"/><path d="M680.117188 2655v-25"/><path d="M747.734375 2655v-25"/><path d="M815.390625 2655v-25"/><path d="M883.007812 2655v-25"/><path d="M950.664062 2655v-25"/><path d="M1018.320312 2655v-25"/><path d="M1085.9375 2655v-25"/><path d="M1153.59375 2655v-50"/><path d="M1221.210938 2655v-25"/><path d="M1288.867188 2655v-25"/><path d="M1356.523438 2655v-25"/><path d="M1424.140625 2655v-25"/><path d="M1491.796875 2655v-25"/><path d="M1559.414062 2655v-25"/><path d="M1627.070312 2655v-25"/><path d="M1694.726562 2655v-25"/><path d="M1762.34375 2655v-25"/><path d="M1830 2655v-50"/><path d="M1897.65625 2655v-25"/><path d="M1965.273438 2655v-25"/><path d="M2032.929688 2655v-25"/><path d="M2100.546875 2655v-25"/><path d="M2168.203125 2655v-25"/><path d="M2235.859375 2655v-25"/><path d="M2303.476562 2655v-25"/><path d="M2371.132812 2655v-25"/><path d="M2438.789062 2655v-25"/><path d="M2506.40625 2655v-50"/><path d="M2574.0625 2655v-25"/><path d="M2641.679688 2655v-25"/><path d="M2709.335938 2655v-25"/><path d="M2776.953125 2655v-25"/><path d="M2844.609375 2655v-25"/><path d="M2912.265625 2655v-25"/><path d="M2979.882812 2655v-25"/><path d="M3047.539062 2655v-25"/><path d="M3115.15625 2655v-25"/><path d="M3182.8125 2655v-50"/><path d="M3250.46875 2655v-25"/><path d="M3318.085938 2655v-25"/><path d="M3385.742188 2655v-25"/><path d="M3453.398438 2655v-25"/><path d="M3521.015625 2655v-25"/></g></g><use x="40.9145" y="5.375" href="#a"/><use x="43.412" y="5.375" href="#d"/><use x="47.582" y="5.375" href="#b"/><use x="49.667" y="5.375" href="#c"/><use x="108.4145" y="5.375" href="#a"/><use x="110.912" y="5.375" href="#e"/><use x="115.082" y="5.375" href="#b"/><use x="117.167" y="5.375" href="#d"/><use x="177.7879" y="5.375" href="#c"/><use x="181.9579" y="5.375" href="#b"/><use x="184.0429" y="5.375" href="#c"/><use x="245.2879" y="5.375" href="#e"/><use x="249.4579" y="5.375" href="#b"/><use x="251.5429" y="5.375" href="#d"/><use x="312.7879" y="5.375" href="#d"/><use x="316.9579" y="5.375" href="#b"/><use x="319.0429" y="5.375" href="#c"/><g class="b"><path d="M130 105v2550" class="c"/><g class="d"><path d="M130 120.390625h25"/><path d="M130 157.460938h25"/><path d="M130 194.492188h25"/><path d="M130 231.5625h25"/><path d="M130 268.59375h50"/><path d="M130 305.664062h25"/><path d="M130 342.695312h25"/><path d="M130 379.726562h25"/><path d="M130 416.796875h25"/><path d="M130 453.828125h25"/><path d="M130 490.859375h25"/><path d="M130 527.929688h25"/><path d="M130 564.960938h25"/><path d="M130 602.03125h25"/><path d="M130 639.0625h50"/><path d="M130 676.09375h25"/><path d="M130 713.164062h25"/><path d="M130 750.195312h25"/><path d="M130 787.265625h25"/><path d="M130 824.296875h25"/><path d="M130 861.367188h25"/><path d="M130 898.398438h25"/><path d="M130 935.429688h25"/><path d="M130 972.5h25"/><path d="M130 1009.53125h50"/><path d="M130 1046.5625h25"/><path d="M130 1083.632812h25"/><path d="M130 1120.664062h25"/><path d="M130 1157.734375h25"/><path d="M130 1194.765625h25"/><path d="M130 1231.835938h25"/><path d="M130 1268.867188h25"/><path d="M130 1305.898438h25"/><path d="M130 1342.96875h25"/><path d="M130 1380h50"/><path d="M130 1417.03125h25"/><path d="M130 1454.101562h25"/><path d="M130 1491.132812h25"/><path d="M130 1528.203125h25"/><path d="M130 1565.234375h25"/><path d="M130 1602.304688h25"/><path d="M130 1639.335938h25"/><path d="M130 1676.367188h25"/><path d="M130 1713.4375h25"/><path d="M130 1750.46875h50"/><path d="M130 1787.539062h25"/><path d="M130 1824.570312h25"/><path d="M130 1861.601562h25"/><path d="M130 1898.671875h25"/><path d="M130 1935.703125h25"/><path d="M130 1972.734375h25"/><path d="M130 2009.804688h25"/><path d="M130 2046.835938h25"/><path d="M130 2083.90625h25"/><path d="M130 2120.9375h50"/><path d="M130 2157.96875h25"/><path d="M130 2195.039062h25"/><path d="M130 2232.070312h25"/><path d="M130 2269.101562h25"/><path d="M130 2306.171875h25"/><path d="M130 2343.203125h25"/><path d="M130 2380.273438h25"/><path d="M130 2417.304688h25"/><path d="M130 2454.375h25"/><path d="M130 2491.40625h50"/><path d="M130 2528.4375h25"/><path d="M130 2565.507812h25"/><path d="M130 2602.539062h25"/><path d="M130 2639.609375h25"/></g></g><use x="-.5418" y="250.375" href="#a"/><use x="1.9557" y="250.375" href="#f"/><use x="-.5418" y="213.5" href="#a"/><use x="1.9557" y="213.5" href="#e"/><use x="-.5418" y="176.625" href="#a"/><use x="1.9557" y="176.625" href="#g"/><use x="1.9551" y="139.125" href="#c"/><use x="1.9551" y="102.25" href="#g"/><use x="1.9551" y="65.375" href="#e"/><use x="1.9551" y="28.5" href="#f"/><g class="b"><path d="M3530 105v2550" class="c"/><g class="d"><path d="M3530 120.390625h-25"/><path d="M3530 157.460938h-25"/><path d="M3530 194.492188h-25"/><path d="M3530 231.5625h-25"/><path d="M3530 268.59375h-50"/><path d="M3530 305.664062h-25"/><path d="M3530 342.695312h-25"/><path d="M3530 379.726562h-25"/><path d="M3530 416.796875h-25"/><path d="M3530 453.828125h-25"/><path d="M3530 490.859375h-25"/><path d="M3530 527.929688h-25"/><path d="M3530 564.960938h-25"/><path d="M3530 602.03125h-25"/><path d="M3530 639.0625h-50"/><path d="M3530 676.09375h-25"/><path d="M3530 713.164062h-25"/><path d="M3530 750.195312h-25"/><path d="M3530 787.265625h-25"/><path d="M3530 824.296875h-25"/><path d="M3530 861.367188h-25"/><path d="M3530 898.398438h-25"/><path d="M3530 935.429688h-25"/><path d="M3530 972.5h-25"/><path d="M3530 1009.53125h-50"/><path d="M3530 1046.5625h-25"/><path d="M3530 1083.632812h-25"/><path d="M3530 1120.664062h-25"/><path d="M3530 1157.734375h-25"/><path d="M3530 1194.765625h-25"/><path d="M3530 1231.835938h-25"/><path d="M3530 1268.867188h-25"/><path d="M3530 1305.898438h-25"/><path d="M3530 1342.96875h-25"/><path d="M3530 1380h-50"/><path d="M3530 1417.03125h-25"/><path d="M3530 1454.101562h-25"/><path d="M3530 1491.132812h-25"/><path d="M3530 1528.203125h-25"/><path d="M3530 1565.234375h-25"/><path d="M3530 1602.304688h-25"/><path d="M3530 1639.335938h-25"/><path d="M3530 1676.367188h-25"/><path d="M3530 1713.4375h-25"/><path d="M3530 1750.46875h-50"/><path d="M3530 1787.539062h-25"/><path d="M3530 1824.570312h-25"/><path d="M3530 1861.601562h-25"/><path d="M3530 1898.671875h-25"/><path d="M3530 1935.703125h-25"/><path d="M3530 1972.734375h-25"/><path d="M3530 2009.804688h-25"/><path d="M3530 2046.835938h-25"/><path d="M3530 2083.90625h-25"/><path d="M3530 2120.9375h-50"/><path d="M3530 2157.96875h-25"/><path d="M3530 2195.039062h-25"/><path d="M3530 2232.070312h-25"/><path d="M3530 2269.101562h-25"/><path d="M3530 2306.171875h-25"/><path d="M3530 2343.203125h-25"/><path d="M3530 2380.273438h-25"/><path d="M3530 2417.304688h-25"/><path d="M3530 2454.375h-25"/><path d="M3530 2491.40625h-50"/><path d="M3530 2528.4375h-25"/><path d="M3530 2565.507812h-25"/><path d="M3530 2602.539062h-25"/><path d="M3530 2639.609375h-25"/></g></g><use x="359.25" y="250.375" href="#a"/><use x="361.7475" y="250.375" href="#f"/><use x="359.25" y="213.5" href="#a"/><use x="361.7475" y="213.5" href="#e"/><use x="359.25" y="176.625" href="#a"/><use x="361.7475" y="176.625" href="#g"/><use x="359.25" y="139.125" href="#c"/><use x="359.25" y="102.25" href="#g"/><use x="359.25" y="65.375" href="#e"/><use x="359.25" y="28.5" href="#f"/><g clip-path="url(#v)"><path d="M130 1380l850 1163.867188" class="e"/></g><g clip-path="url(#w)"><path d="M980 216.132812l1700 2327.734376" class="e"/></g><g clip-path="url(#x)"><path d="M2680 216.132812 3530 1380" class="e"/></g><style>.a{fill:none;stroke:#bfbfbf;stroke-dasharray:12.5,18.75;stroke-linecap:round;stroke-miterlimit:10;stroke-width:6.25;transform:matrix(.1,0,0,-.1,0,274)}.b{fill:none;stroke:#000;stroke-miterlimit:10;transform:matrix(.1,0,0,-.1,0,274)}.c{stroke-linecap:square;stroke-width:12.5}.d{stroke-width:6.25}.e{fill:none;stroke:#006400;stroke-linecap:round;stroke-miterlimit:10;stroke-width:12.5;transform:matrix(.1,0,0,-.1,0,274)}.f{fill:none;stroke:#bfbfbf;stroke-linecap:round;stroke-miterlimit:10;stroke-width:6.25;transform:matrix(.1,0,0,-.1,0,274)}</style></svg>