<svg xmlns="http://www.w3.org/2000/svg" width="342pt" height="258pt" viewBox="0 0 342 258"><defs><clipPath id="a"><path d="M170 1.5h2v255h-2zm0 0"/></clipPath><clipPath id="b"><path d="M1 128h340v2H1zm0 0"/></clipPath><clipPath id="c"><path d="M1 1.5h1v255H1zm0 0"/></clipPath><clipPath id="d"><path d="M85 1.5h2v255h-2zm0 0"/></clipPath><clipPath id="e"><path d="M170 1.5h2v255h-2zm0 0"/></clipPath><clipPath id="f"><path d="M255 1.5h2v255h-2zm0 0"/></clipPath><clipPath id="g"><path d="M340 1.5h1v255h-1zm0 0"/></clipPath><clipPath id="h"><path d="M1 256h340v.5H1zm0 0"/></clipPath><clipPath id="i"><path d="M1 192h340v2H1zm0 0"/></clipPath><clipPath id="j"><path d="M1 128h340v2H1zm0 0"/></clipPath><clipPath id="k"><path d="M1 64h340v2H1zm0 0"/></clipPath><clipPath id="l"><path d="M1 1.5h340V2H1zm0 0"/></clipPath></defs><path fill="#fff" d="M1 256.5h340V1.5H1zm0 0"/><g clip-path="url(#a)"><path d="M2000 225v2550" class="d"/></g><g clip-path="url(#b)"><path d="M300 1500h3400" class="d"/></g><g clip-path="url(#c)"><path d="M300 225v2550" class="a"/></g><g clip-path="url(#d)"><path d="M1150 225v2550" class="a"/></g><g clip-path="url(#e)"><path d="M2000 225v2550" class="a"/></g><g clip-path="url(#f)"><path d="M2850 225v2550" class="a"/></g><g clip-path="url(#g)"><path d="M3700 225v2550" class="a"/></g><g clip-path="url(#h)"><path d="M300 225h3400" class="a"/></g><g clip-path="url(#i)"><path d="M300 862.5h3400" class="a"/></g><g clip-path="url(#j)"><path d="M300 1500h3400" class="a"/></g><g clip-path="url(#k)"><path d="M300 2137.5h3400" class="a"/></g><g clip-path="url(#l)"><path d="M300 2775h3400" class="a"/></g><g fill="none" stroke-miterlimit="10" transform="matrix(.1 0 0 -.1 -29 279)"><g stroke="#000"><path d="M300 225h3400" class="b"/><g class="c"><path d="M300 225v50"/><path d="M385 225v25"/><path d="M470 225v25"/><path d="M555 225v25"/><path d="M640 225v25"/><path d="M725 225v25"/><path d="M810 225v25"/><path d="M895 225v25"/><path d="M980 225v25"/><path d="M1065 225v25"/><path d="M1150 225v50"/><path d="M1235 225v25"/><path d="M1320 225v25"/><path d="M1405 225v25"/><path d="M1490 225v25"/><path d="M1575 225v25"/><path d="M1660 225v25"/><path d="M1745 225v25"/><path d="M1830 225v25"/><path d="M1915 225v25"/><path d="M2000 225v50"/><path d="M2085 225v25"/><path d="M2170 225v25"/><path d="M2255 225v25"/><path d="M2340 225v25"/><path d="M2425 225v25"/><path d="M2510 225v25"/><path d="M2595 225v25"/><path d="M2680 225v25"/><path d="M2765 225v25"/><path d="M2850 225v50"/><path d="M2935 225v25"/><path d="M3020 225v25"/><path d="M3105 225v25"/><path d="M3190 225v25"/><path d="M3275 225v25"/><path d="M3360 225v25"/><path d="M3445 225v25"/><path d="M3530 225v25"/><path d="M3615 225v25"/><path d="M3700 225v50"/></g><path d="M300 2775h3400" class="b"/><g class="c"><path d="M300 2775v-50"/><path d="M385 2775v-25"/><path d="M470 2775v-25"/><path d="M555 2775v-25"/><path d="M640 2775v-25"/><path d="M725 2775v-25"/><path d="M810 2775v-25"/><path d="M895 2775v-25"/><path d="M980 2775v-25"/><path d="M1065 2775v-25"/><path d="M1150 2775v-50"/><path d="M1235 2775v-25"/><path d="M1320 2775v-25"/><path d="M1405 2775v-25"/><path d="M1490 2775v-25"/><path d="M1575 2775v-25"/><path d="M1660 2775v-25"/><path d="M1745 2775v-25"/><path d="M1830 2775v-25"/><path d="M1915 2775v-25"/><path d="M2000 2775v-50"/><path d="M2085 2775v-25"/><path d="M2170 2775v-25"/><path d="M2255 2775v-25"/><path d="M2340 2775v-25"/><path d="M2425 2775v-25"/><path d="M2510 2775v-25"/><path d="M2595 2775v-25"/><path d="M2680 2775v-25"/><path d="M2765 2775v-25"/><path d="M2850 2775v-50"/><path d="M2935 2775v-25"/><path d="M3020 2775v-25"/><path d="M3105 2775v-25"/><path d="M3190 2775v-25"/><path d="M3275 2775v-25"/><path d="M3360 2775v-25"/><path d="M3445 2775v-25"/><path d="M3530 2775v-25"/><path d="M3615 2775v-25"/><path d="M3700 2775v-50"/></g><path d="M300 225v2550" class="b"/><g class="c"><path d="M300 225h50"/><path d="M300 288.75h25"/><path d="M300 352.5h25"/><path d="M300 416.25h25"/><path d="M300 480h25"/><path d="M300 543.75h25"/><path d="M300 607.5h25"/><path d="M300 671.25h25"/><path d="M300 735h25"/><path d="M300 798.75h25"/><path d="M300 862.5h50"/><path d="M300 926.25h25"/><path d="M300 990h25"/><path d="M300 1053.75h25"/><path d="M300 1117.5h25"/><path d="M300 1181.25h25"/><path d="M300 1245h25"/><path d="M300 1308.75h25"/><path d="M300 1372.5h25"/><path d="M300 1436.25h25"/><path d="M300 1500h50"/><path d="M300 1563.75h25"/><path d="M300 1627.5h25"/><path d="M300 1691.25h25"/><path d="M300 1755h25"/><path d="M300 1818.75h25"/><path d="M300 1882.5h25"/><path d="M300 1946.25h25"/><path d="M300 2010h25"/><path d="M300 2073.75h25"/><path d="M300 2137.5h50"/><path d="M300 2201.25h25"/><path d="M300 2265h25"/><path d="M300 2328.75h25"/><path d="M300 2392.5h25"/><path d="M300 2456.25h25"/><path d="M300 2520h25"/><path d="M300 2583.75h25"/><path d="M300 2647.5h25"/><path d="M300 2711.25h25"/><path d="M300 2775h50"/></g><path d="M3700 225v2550" class="b"/><g class="c"><path d="M3700 225h-50"/><path d="M3700 288.75h-25"/><path d="M3700 352.5h-25"/><path d="M3700 416.25h-25"/><path d="M3700 480h-25"/><path d="M3700 543.75h-25"/><path d="M3700 607.5h-25"/><path d="M3700 671.25h-25"/><path d="M3700 735h-25"/><path d="M3700 798.75h-25"/><path d="M3700 862.5h-50"/><path d="M3700 926.25h-25"/><path d="M3700 990h-25"/><path d="M3700 1053.75h-25"/><path d="M3700 1117.5h-25"/><path d="M3700 1181.25h-25"/><path d="M3700 1245h-25"/><path d="M3700 1308.75h-25"/><path d="M3700 1372.5h-25"/><path d="M3700 1436.25h-25"/><path d="M3700 1500h-50"/><path d="M3700 1563.75h-25"/><path d="M3700 1627.5h-25"/><path d="M3700 1691.25h-25"/><path d="M3700 1755h-25"/><path d="M3700 1818.75h-25"/><path d="M3700 1882.5h-25"/><path d="M3700 1946.25h-25"/><path d="M3700 2010h-25"/><path d="M3700 2073.75h-25"/><path d="M3700 2137.5h-50"/><path d="M3700 2201.25h-25"/><path d="M3700 2265h-25"/><path d="M3700 2328.75h-25"/><path d="M3700 2392.5h-25"/><path d="M3700 2456.25h-25"/><path d="M3700 2520h-25"/><path d="M3700 2583.75h-25"/><path d="M3700 2647.5h-25"/><path d="M3700 2711.25h-25"/><path d="M3700 2775h-50"/></g></g><g stroke-width="12.5" stroke-linecap="round" stroke="#00f"><path d="M432.851562 250.742188l43.359376 180.3125"/><path d="M476.210938 431.054688h0"/><path d="M432.851562 482.578125l43.359376 180.3125"/><path d="M476.210938 662.890625h0"/><path d="M432.851562 714.375l43.359376 180.3125"/><path d="M476.210938 894.6875h0"/><path d="M432.851562 946.210938l43.359376 180.3125"/><path d="M476.210938 1126.523438h0"/><path d="M432.851562 1178.007812l43.359376 180.351563"/><path d="M476.210938 1358.359375h0"/><path d="M432.851562 1409.84375l43.359376 180.3125"/><path d="M476.210938 1590.15625h0"/><path d="M432.851562 1641.640625l43.359376 180.351563"/><path d="M476.210938 1821.992188h0"/><path d="M432.851562 1873.476562l43.359376 180.3125"/><path d="M476.210938 2053.789062h0"/><path d="M432.851562 2105.273438 476.210938 2285.625"/><path d="M476.210938 2285.625h0"/><path d="M432.851562 2337.109375l43.359376 180.3125"/><path d="M476.210938 2517.421875h0"/><path d="M432.851562 2568.945312l43.359376 180.3125"/><path d="M476.210938 2749.257812h0"/><path d="M738.007812 251.796875l51.25 178.242187"/><path d="M789.257812 430.039062h0"/><path d="M738.007812 483.59375l51.25 178.242188"/><path d="M789.257812 661.835938h0"/><path d="M738.007812 715.429688l51.25 178.242187"/><path d="M789.257812 893.671875h0"/><path d="M738.007812 947.265625l51.25 178.203125"/><path d="M789.257812 1125.46875h0"/><path d="M738.007812 1179.0625l51.25 178.242188"/><path d="M789.257812 1357.304688h0"/><path d="M738.007812 1410.898438l51.25 178.203124"/><path d="M789.257812 1589.101562h0"/><path d="M738.007812 1642.695312l51.25 178.242188"/><path d="M789.257812 1820.9375h0"/><path d="M738.007812 1874.53125l51.25 178.203125"/><path d="M789.257812 2052.734375h0"/><path d="M738.007812 2106.328125l51.25 178.242187"/><path d="M789.257812 2284.570312h0"/><path d="M738.007812 2338.164062l51.25 178.242188"/><path d="M789.257812 2516.40625h0"/><path d="M738.007812 2569.960938l51.25 178.242187"/><path d="M789.257812 2748.203125h0"/><path d="M1041.484375 253.59375l62.460937 174.609375"/><path d="M1103.945312 428.203125h0"/><path d="M1041.484375 485.429688l62.460937 174.609374"/><path d="M1103.945312 660.039062h0"/><path d="M1041.484375 717.226562l62.460937 174.609376"/><path d="M1103.945312 891.835938h0"/><path d="M1041.484375 949.0625l62.460937 174.609375"/><path d="M1103.945312 1123.671875h0"/><path d="M1041.484375 1180.898438l62.460937 174.609374"/><path d="M1103.945312 1355.507812h0"/><path d="M1041.484375 1412.695312l62.460937 174.609376"/><path d="M1103.945312 1587.304688h0"/><path d="M1041.484375 1644.492188l62.460937 174.609374"/><path d="M1103.945312 1819.101562h0"/><path d="M1041.484375 1876.328125l62.460937 174.609375"/><path d="M1103.945312 2050.9375h0"/><path d="M1041.484375 2108.125l62.460937 174.648438"/><path d="M1103.945312 2282.773438h0"/><path d="M1041.484375 2339.960938l62.460937 174.609374"/><path d="M1103.945312 2514.570312h0"/><path d="M1041.484375 2571.796875l62.460937 174.609375"/><path d="M1103.945312 2746.40625h0"/><path d="M1342.148438 257.070312l79.335937 167.65625"/><path d="M1421.484375 424.726562h0"/><path d="M1342.148438 488.90625l79.335937 167.65625"/><path d="M1421.484375 656.5625h0"/><path d="M1342.148438 720.742188l79.335937 167.617187"/><path d="M1421.484375 888.359375h0"/><path d="M1342.148438 952.539062l79.335937 167.65625"/><path d="M1421.484375 1120.195312h0"/><path d="M1342.148438 1184.375l79.335937 167.617188"/><path d="M1421.484375 1351.992188h0"/><path d="M1342.148438 1416.171875l79.335937 167.65625"/><path d="M1421.484375 1583.828125h0"/><path d="M1342.148438 1648.007812l79.335937 167.617188"/><path d="M1421.484375 1815.625h0"/><path d="M1342.148438 1879.804688l79.335937 167.65625"/><path d="M1421.484375 2047.460938h0"/><path d="M1342.148438 2111.640625l79.335937 167.617187"/><path d="M1421.484375 2279.257812h0"/><path d="M1342.148438 2343.476562l79.335937 167.617188"/><path d="M1421.484375 2511.09375h0"/><path d="M1342.148438 2575.273438l79.335937 167.617187"/><path d="M1421.484375 2742.890625h0"/><path d="M1637.8125 264.882812l106.210938 152.03125"/><path d="M1744.023438 416.914062h0"/><path d="M1637.8125 496.71875 1744.023438 648.75"/><path d="M1744.023438 648.75h0"/><path d="M1637.8125 728.515625l106.210938 152.070313"/><path d="M1744.023438 880.585938h0"/><path d="M1637.8125 960.351562l106.210938 152.03125"/><path d="M1744.023438 1112.382812h0"/><path d="M1637.8125 1192.148438l106.210938 152.070312"/><path d="M1744.023438 1344.21875h0"/><path d="M1637.8125 1423.984375l106.210938 152.03125"/><path d="M1744.023438 1576.015625h0"/><path d="M1637.8125 1655.78125l106.210938 152.070312"/><path d="M1744.023438 1807.851562h0"/><path d="M1637.8125 1887.617188l106.210938 152.03125"/><path d="M1744.023438 2039.648438h0"/><path d="M1637.8125 2119.414062l106.210938 152.070313"/><path d="M1744.023438 2271.484375h0"/><path d="M1637.8125 2351.25l106.210938 152.03125"/><path d="M1744.023438 2503.28125h0"/><path d="M1637.8125 2583.085938l106.210938 152.03125"/><path d="M1744.023438 2735.117188h0"/><path d="M1925.820312 285.273438 2074.179688 396.5625"/><path d="M2074.179688 396.5625h0"/><path d="M1925.820312 517.109375l148.359376 111.25"/><path d="M2074.179688 628.359375h0"/><path d="M1925.820312 748.90625l148.359376 111.289062"/><path d="M2074.179688 860.195312h0"/><path d="M1925.820312 980.742188l148.359376 111.25"/><path d="M2074.179688 1091.992188h0"/><path d="M1925.820312 1212.539062l148.359376 111.289063"/><path d="M2074.179688 1323.828125h0"/><path d="M1925.820312 1444.375l148.359376 111.25"/><path d="M2074.179688 1555.625h0"/><path d="M1925.820312 1676.171875l148.359376 111.289063"/><path d="M2074.179688 1787.460938h0"/><path d="M1925.820312 1908.007812l148.359376 111.25"/><path d="M2074.179688 2019.257812h0"/><path d="M1925.820312 2139.804688l148.359376 111.289062"/><path d="M2074.179688 2251.09375h0"/><path d="M1925.820312 2371.640625l148.359376 111.25"/><path d="M2074.179688 2482.890625h0"/><path d="M1925.820312 2603.4375l148.359376 111.289062"/><path d="M2074.179688 2714.726562h0"/><path d="M2216.5625 334.609375l185.039062 12.617187"/><path d="M2401.601562 347.226562h0"/><path d="M2216.5625 566.40625l185.039062 12.617188"/><path d="M2401.601562 579.023438h0"/><path d="M2216.5625 798.242188l185.039062 12.617187"/><path d="M2401.601562 810.859375h0"/><path d="M2216.5625 1030.039062l185.039062 12.617188"/><path d="M2401.601562 1042.65625h0"/><path d="M2216.5625 1261.875l185.039062 12.617188"/><path d="M2401.601562 1274.492188h0"/><path d="M2216.5625 1493.710938l185.039062 12.578124"/><path d="M2401.601562 1506.289062h0"/><path d="M2216.5625 1725.507812l185.039062 12.617188"/><path d="M2401.601562 1738.125h0"/><path d="M2216.5625 1957.34375l185.039062 12.617188"/><path d="M2401.601562 1969.960938h0"/><path d="M2216.5625 2189.140625l185.039062 12.617187"/><path d="M2401.601562 2201.757812h0"/><path d="M2216.5625 2420.976562l185.039062 12.617188"/><path d="M2401.601562 2433.59375h0"/><path d="M2216.5625 2652.773438l185.039062 12.617187"/><path d="M2401.601562 2665.390625h0"/><path d="M2539.140625 389.414062l158.085937-96.992187"/><path d="M2697.226562 292.421875h0"/><path d="M2539.140625 621.210938l158.085937-96.992188"/><path d="M2697.226562 524.21875h0"/><path d="M2539.140625 853.046875l158.085937-96.992187"/><path d="M2697.226562 756.054688h0"/><path d="M2539.140625 1084.84375l158.085937-96.992188"/><path d="M2697.226562 987.851562h0"/><path d="M2539.140625 1316.679688l158.085937-96.992188"/><path d="M2697.226562 1219.6875h0"/><path d="M2539.140625 1548.515625l158.085937-97.03125"/><path d="M2697.226562 1451.484375h0"/><path d="M2539.140625 1780.3125l158.085937-96.992188"/><path d="M2697.226562 1683.320312h0"/><path d="M2539.140625 2012.148438l158.085937-96.992188"/><path d="M2697.226562 1915.15625h0"/><path d="M2539.140625 2243.945312l158.085937-96.992187"/><path d="M2697.226562 2146.953125h0"/><path d="M2539.140625 2475.78125l158.085937-96.992188"/><path d="M2697.226562 2378.789062h0"/><path d="M2539.140625 2707.578125l158.085937-96.992187"/><path d="M2697.226562 2610.585938h0"/><path d="M2870.625 414.296875 2983.945312 267.5"/><path d="M2983.945312 267.5h0"/><path d="M2870.625 646.132812l113.320312-146.796874"/><path d="M2983.945312 499.335938h0"/><path d="M2870.625 877.929688l113.320312-146.796876"/><path d="M2983.945312 731.132812h0"/><path d="M2870.625 1109.765625l113.320312-146.796875"/><path d="M2983.945312 962.96875h0"/><path d="M2870.625 1341.5625l113.320312-146.796875"/><path d="M2983.945312 1194.765625h0"/><path d="M2870.625 1573.398438l113.320312-146.796876"/><path d="M2983.945312 1426.601562h0"/><path d="M2870.625 1805.234375l113.320312-146.796875"/><path d="M2983.945312 1658.4375h0"/><path d="M2870.625 2037.03125l113.320312-146.796875"/><path d="M2983.945312 1890.234375h0"/><path d="M2870.625 2268.867188l113.320312-146.835938"/><path d="M2983.945312 2122.03125h0"/><path d="M2870.625 2500.664062l113.320312-146.796874"/><path d="M2983.945312 2353.867188h0"/><path d="M2870.625 2732.5l113.320312-146.796875"/><path d="M2983.945312 2585.703125h0"/><path d="M3194.492188 423.671875l83.710937-165.507813"/><path d="M3278.203125 258.164062h0"/><path d="M3194.492188 655.46875l83.710937-165.507812"/><path d="M3278.203125 489.960938h0"/><path d="M3194.492188 887.304688l83.710937-165.507813"/><path d="M3278.203125 721.796875h0"/><path d="M3194.492188 1119.101562l83.710937-165.46875"/><path d="M3278.203125 953.632812h0"/><path d="M3194.492188 1350.9375l83.710937-165.507812"/><path d="M3278.203125 1185.429688h0"/><path d="M3194.492188 1582.734375l83.710937-165.46875"/><path d="M3278.203125 1417.265625h0"/><path d="M3194.492188 1814.570312l83.710937-165.507812"/><path d="M3278.203125 1649.0625h0"/><path d="M3194.492188 2046.367188l83.710937-165.46875"/><path d="M3278.203125 1880.898438h0"/><path d="M3194.492188 2278.203125l83.710937-165.507813"/><path d="M3278.203125 2112.695312h0"/><path d="M3194.492188 2510.039062l83.710937-165.507812"/><path d="M3278.203125 2344.53125h0"/><path d="M3194.492188 2741.835938l83.710937-165.507813"/><path d="M3278.203125 2576.328125h0"/><path d="M3512.8125 427.695312l65.273438-173.59375"/><path d="M3578.085938 254.101562h0"/><path d="M3512.8125 659.53125l65.273438-173.59375"/><path d="M3578.085938 485.9375h0"/><path d="M3512.8125 891.328125l65.273438-173.59375"/><path d="M3578.085938 717.734375h0"/><path d="M3512.8125 1123.164062l65.273438-173.59375"/><path d="M3578.085938 949.570312h0"/><path d="M3512.8125 1354.960938l65.273438-173.554688"/><path d="M3578.085938 1181.40625h0"/><path d="M3512.8125 1586.796875l65.273438-173.59375"/><path d="M3578.085938 1413.203125h0"/><path d="M3512.8125 1818.59375l65.273438-173.554688"/><path d="M3578.085938 1645.039062h0"/><path d="M3512.8125 2050.429688l65.273438-173.59375"/><path d="M3578.085938 1876.835938h0"/><path d="M3512.8125 2282.265625l65.273438-173.59375"/><path d="M3578.085938 2108.671875h0"/><path d="M3512.8125 2514.0625l65.273438-173.59375"/><path d="M3578.085938 2340.46875h0"/><path d="M3512.8125 2745.898438l65.273438-173.59375"/><path d="M3578.085938 2572.304688h0"/></g></g><style>.a{fill:none;stroke:#bfbfbf;stroke-dasharray:12.5,18.75;stroke-linecap:round;stroke-miterlimit:10;stroke-width:6.25;transform:matrix(.1,0,0,-.1,-29,279)}.b{stroke-linecap:square;stroke-width:12.5}.c{stroke-width:6.25}.d{fill:none;stroke:#bfbfbf;stroke-linecap:round;stroke-miterlimit:10;stroke-width:6.25;transform:matrix(.1,0,0,-.1,-29,279)}</style></svg>