<svg xmlns="http://www.w3.org/2000/svg" width="342pt" height="258pt" viewBox="0 0 342 258"><defs><clipPath id="a"><path d="M170 1.5h2v255h-2zm0 0"/></clipPath><clipPath id="b"><path d="M1 128h340v2H1zm0 0"/></clipPath><clipPath id="c"><path d="M1 1.5h1v255H1zm0 0"/></clipPath><clipPath id="d"><path d="M85 1.5h2v255h-2zm0 0"/></clipPath><clipPath id="e"><path d="M170 1.5h2v255h-2zm0 0"/></clipPath><clipPath id="f"><path d="M255 1.5h2v255h-2zm0 0"/></clipPath><clipPath id="g"><path d="M340 1.5h1v255h-1zm0 0"/></clipPath><clipPath id="h"><path d="M1 256h340v.5H1zm0 0"/></clipPath><clipPath id="i"><path d="M1 192h340v2H1zm0 0"/></clipPath><clipPath id="j"><path d="M1 128h340v2H1zm0 0"/></clipPath><clipPath id="k"><path d="M1 64h340v2H1zm0 0"/></clipPath><clipPath id="l"><path d="M1 1.5h340V2H1zm0 0"/></clipPath></defs><path fill="#fff" d="M1 256.5h340V1.5H1zm0 0"/><g clip-path="url(#a)"><path d="M2000 225v2550" class="d"/></g><g clip-path="url(#b)"><path d="M300 1500h3400" class="d"/></g><g clip-path="url(#c)"><path d="M300 225v2550" class="a"/></g><g clip-path="url(#d)"><path d="M1150 225v2550" class="a"/></g><g clip-path="url(#e)"><path d="M2000 225v2550" class="a"/></g><g clip-path="url(#f)"><path d="M2850 225v2550" class="a"/></g><g clip-path="url(#g)"><path d="M3700 225v2550" class="a"/></g><g clip-path="url(#h)"><path d="M300 225h3400" class="a"/></g><g clip-path="url(#i)"><path d="M300 862.5h3400" class="a"/></g><g clip-path="url(#j)"><path d="M300 1500h3400" class="a"/></g><g clip-path="url(#k)"><path d="M300 2137.5h3400" class="a"/></g><g clip-path="url(#l)"><path d="M300 2775h3400" class="a"/></g><g fill="none" stroke-miterlimit="10" transform="matrix(.1 0 0 -.1 -29 279)"><g stroke="#000"><path d="M300 225h3400" class="b"/><g class="c"><path d="M300 225v50"/><path d="M385 225v25"/><path d="M470 225v25"/><path d="M555 225v25"/><path d="M640 225v25"/><path d="M725 225v25"/><path d="M810 225v25"/><path d="M895 225v25"/><path d="M980 225v25"/><path d="M1065 225v25"/><path d="M1150 225v50"/><path d="M1235 225v25"/><path d="M1320 225v25"/><path d="M1405 225v25"/><path d="M1490 225v25"/><path d="M1575 225v25"/><path d="M1660 225v25"/><path d="M1745 225v25"/><path d="M1830 225v25"/><path d="M1915 225v25"/><path d="M2000 225v50"/><path d="M2085 225v25"/><path d="M2170 225v25"/><path d="M2255 225v25"/><path d="M2340 225v25"/><path d="M2425 225v25"/><path d="M2510 225v25"/><path d="M2595 225v25"/><path d="M2680 225v25"/><path d="M2765 225v25"/><path d="M2850 225v50"/><path d="M2935 225v25"/><path d="M3020 225v25"/><path d="M3105 225v25"/><path d="M3190 225v25"/><path d="M3275 225v25"/><path d="M3360 225v25"/><path d="M3445 225v25"/><path d="M3530 225v25"/><path d="M3615 225v25"/><path d="M3700 225v50"/></g><path d="M300 2775h3400" class="b"/><g class="c"><path d="M300 2775v-50"/><path d="M385 2775v-25"/><path d="M470 2775v-25"/><path d="M555 2775v-25"/><path d="M640 2775v-25"/><path d="M725 2775v-25"/><path d="M810 2775v-25"/><path d="M895 2775v-25"/><path d="M980 2775v-25"/><path d="M1065 2775v-25"/><path d="M1150 2775v-50"/><path d="M1235 2775v-25"/><path d="M1320 2775v-25"/><path d="M1405 2775v-25"/><path d="M1490 2775v-25"/><path d="M1575 2775v-25"/><path d="M1660 2775v-25"/><path d="M1745 2775v-25"/><path d="M1830 2775v-25"/><path d="M1915 2775v-25"/><path d="M2000 2775v-50"/><path d="M2085 2775v-25"/><path d="M2170 2775v-25"/><path d="M2255 2775v-25"/><path d="M2340 2775v-25"/><path d="M2425 2775v-25"/><path d="M2510 2775v-25"/><path d="M2595 2775v-25"/><path d="M2680 2775v-25"/><path d="M2765 2775v-25"/><path d="M2850 2775v-50"/><path d="M2935 2775v-25"/><path d="M3020 2775v-25"/><path d="M3105 2775v-25"/><path d="M3190 2775v-25"/><path d="M3275 2775v-25"/><path d="M3360 2775v-25"/><path d="M3445 2775v-25"/><path d="M3530 2775v-25"/><path d="M3615 2775v-25"/><path d="M3700 2775v-50"/></g><path d="M300 225v2550" class="b"/><g class="c"><path d="M300 225h50"/><path d="M300 288.75h25"/><path d="M300 352.5h25"/><path d="M300 416.25h25"/><path d="M300 480h25"/><path d="M300 543.75h25"/><path d="M300 607.5h25"/><path d="M300 671.25h25"/><path d="M300 735h25"/><path d="M300 798.75h25"/><path d="M300 862.5h50"/><path d="M300 926.25h25"/><path d="M300 990h25"/><path d="M300 1053.75h25"/><path d="M300 1117.5h25"/><path d="M300 1181.25h25"/><path d="M300 1245h25"/><path d="M300 1308.75h25"/><path d="M300 1372.5h25"/><path d="M300 1436.25h25"/><path d="M300 1500h50"/><path d="M300 1563.75h25"/><path d="M300 1627.5h25"/><path d="M300 1691.25h25"/><path d="M300 1755h25"/><path d="M300 1818.75h25"/><path d="M300 1882.5h25"/><path d="M300 1946.25h25"/><path d="M300 2010h25"/><path d="M300 2073.75h25"/><path d="M300 2137.5h50"/><path d="M300 2201.25h25"/><path d="M300 2265h25"/><path d="M300 2328.75h25"/><path d="M300 2392.5h25"/><path d="M300 2456.25h25"/><path d="M300 2520h25"/><path d="M300 2583.75h25"/><path d="M300 2647.5h25"/><path d="M300 2711.25h25"/><path d="M300 2775h50"/></g><path d="M3700 225v2550" class="b"/><g class="c"><path d="M3700 225h-50"/><path d="M3700 288.75h-25"/><path d="M3700 352.5h-25"/><path d="M3700 416.25h-25"/><path d="M3700 480h-25"/><path d="M3700 543.75h-25"/><path d="M3700 607.5h-25"/><path d="M3700 671.25h-25"/><path d="M3700 735h-25"/><path d="M3700 798.75h-25"/><path d="M3700 862.5h-50"/><path d="M3700 926.25h-25"/><path d="M3700 990h-25"/><path d="M3700 1053.75h-25"/><path d="M3700 1117.5h-25"/><path d="M3700 1181.25h-25"/><path d="M3700 1245h-25"/><path d="M3700 1308.75h-25"/><path d="M3700 1372.5h-25"/><path d="M3700 1436.25h-25"/><path d="M3700 1500h-50"/><path d="M3700 1563.75h-25"/><path d="M3700 1627.5h-25"/><path d="M3700 1691.25h-25"/><path d="M3700 1755h-25"/><path d="M3700 1818.75h-25"/><path d="M3700 1882.5h-25"/><path d="M3700 1946.25h-25"/><path d="M3700 2010h-25"/><path d="M3700 2073.75h-25"/><path d="M3700 2137.5h-50"/><path d="M3700 2201.25h-25"/><path d="M3700 2265h-25"/><path d="M3700 2328.75h-25"/><path d="M3700 2392.5h-25"/><path d="M3700 2456.25h-25"/><path d="M3700 2520h-25"/><path d="M3700 2583.75h-25"/><path d="M3700 2647.5h-25"/><path d="M3700 2711.25h-25"/><path d="M3700 2775h-50"/></g></g><g stroke-width="12.5" stroke-linecap="round" stroke="#00f"><path d="M373.867188 295.195312l161.367187 91.40625"/><path d="M535.234375 386.601562h0"/><path d="M370.078125 534.453125l168.945313 76.5625"/><path d="M539.023438 611.015625h0"/><path d="M366.757812 774.6875 542.34375 834.375"/><path d="M542.34375 834.375h0"/><path d="M364.101562 1015.898438 544.960938 1056.875"/><path d="M544.960938 1056.875h0"/><path d="M362.421875 1257.734375l184.257813 20.898437"/><path d="M546.679688 1278.632812h0"/><path d="M361.796875 1500h185.46875"/><path d="M547.265625 1500h0"/><path d="M362.421875 1742.265625l184.257813-20.898437"/><path d="M546.679688 1721.367188h0"/><path d="M364.101562 1984.101562 544.960938 1943.125"/><path d="M544.960938 1943.125h0"/><path d="M366.757812 2225.273438 542.34375 2165.625"/><path d="M542.34375 2165.625h0"/><path d="M370.078125 2465.546875l168.945313-76.5625"/><path d="M539.023438 2388.984375h0"/><path d="M373.867188 2704.804688l161.367187-91.40625"/><path d="M535.234375 2613.398438h0"/><path d="M734.335938 252.929688l58.632812 175.9375"/><path d="M792.96875 428.867188h0"/><path d="M727.96875 487.148438l71.328125 171.171874"/><path d="M799.296875 658.320312h0"/><path d="M718.59375 723.476562l90.078125 162.109376"/><path d="M808.671875 885.585938h0"/><path d="M704.257812 965.117188l118.75 142.5"/><path d="M823.007812 1107.617188h0"/><path d="M684.140625 1220.46875l159.023437 95.429688"/><path d="M843.164062 1315.898438h0"/><path d="M670.898438 1500h185.46875"/><path d="M856.367188 1500h0"/><path d="M684.140625 1779.53125l159.023437-95.429688"/><path d="M843.164062 1684.101562h0"/><path d="M704.257812 2034.882812l118.75-142.5"/><path d="M823.007812 1892.382812h0"/><path d="M718.59375 2276.523438 808.671875 2114.375"/><path d="M808.671875 2114.375h0"/><path d="M727.96875 2512.851562l71.328125-171.171874"/><path d="M799.296875 2341.679688h0"/><path d="M734.335938 2747.070312l58.632812-175.9375"/><path d="M792.96875 2571.132812h0"/><path d="M1044.414062 252.617188l56.601563 176.601562"/><path d="M1101.015625 429.21875h0"/><path d="M1038.242188 486.640625l68.984374 172.148437"/><path d="M1107.226562 658.789062h0"/><path d="M1029.023438 722.734375l87.382812 163.59375"/><path d="M1116.40625 886.328125h0"/><path d="M1014.765625 963.984375l115.9375 144.726563"/><path d="M1130.703125 1108.710938h0"/><path d="M994.0625 1219.101562l157.34375 98.164063"/><path d="M1151.40625 1317.265625h0"/><path d="M980 1500h185.46875"/><path d="M1165.46875 1500h0"/><path d="M994.0625 1780.898438l157.34375-98.164063"/><path d="M1151.40625 1682.734375h0"/><path d="M1014.765625 2036.015625l115.9375-144.726563"/><path d="M1130.703125 1891.289062h0"/><path d="M1029.023438 2277.265625l87.382812-163.59375"/><path d="M1116.40625 2113.671875h0"/><path d="M1038.242188 2513.359375l68.984374-172.148437"/><path d="M1107.226562 2341.210938h0"/><path d="M1044.414062 2747.382812l56.601563-176.601562"/><path d="M1101.015625 2570.78125h0"/><path d="M1310.625 281.484375 1453.007812 400.3125"/><path d="M1453.007812 400.3125h0"/><path d="M1304.726562 521.210938l154.21875 103.007812"/><path d="M1458.945312 624.21875h0"/><path d="M1298.90625 763.007812l165.820312 83.046876"/><path d="M1464.726562 846.054688h0"/><path d="M1293.867188 1006.992188l175.898437 58.75"/><path d="M1469.765625 1065.742188h0"/><path d="M1290.351562 1252.890625l182.929688 30.546875"/><path d="M1473.28125 1283.4375h0"/><path d="M1289.101562 1500h185.429688"/><path d="M1474.53125 1500h0"/><path d="M1290.351562 1747.109375l182.929688-30.546875"/><path d="M1473.28125 1716.5625h0"/><path d="M1293.867188 1993.007812l175.898437-58.75"/><path d="M1469.765625 1934.257812h0"/><path d="M1298.90625 2236.992188l165.820312-83.046876"/><path d="M1464.726562 2153.945312h0"/><path d="M1304.726562 2478.789062l154.21875-103.007812"/><path d="M1458.945312 2375.78125h0"/><path d="M1310.625 2718.515625l142.382812-118.828125"/><path d="M1453.007812 2599.6875h0"/><path d="M1650.976562 424.570312l79.882813-167.34375"/><path d="M1730.859375 257.226562h0"/><path d="M1643.398438 652.34375l95.039062-159.257812"/><path d="M1738.4375 493.085938h0"/><path d="M1633.164062 877.109375l115.46875-145.117187"/><path d="M1748.632812 731.992188h0"/><path d="M1619.84375 1095.9375l142.148438-119.140625"/><path d="M1761.992188 976.796875h0"/><path d="M1605.390625 1304.023438l171.054687-71.679688"/><path d="M1776.445312 1232.34375h0"/><path d="M1598.164062 1500h185.46875"/><path d="M1783.632812 1500h0"/><path d="M1605.390625 1695.976562l171.054687 71.679688"/><path d="M1776.445312 1767.65625h0"/><path d="M1619.84375 1904.0625l142.148438 119.140625"/><path d="M1761.992188 2023.203125h0"/><path d="M1633.164062 2122.890625l115.46875 145.117187"/><path d="M1748.632812 2268.007812h0"/><path d="M1643.398438 2347.65625l95.039062 159.257812"/><path d="M1738.4375 2506.914062h0"/><path d="M1650.976562 2575.390625l79.882813 167.382813"/><path d="M1730.859375 2742.773438h0"/><path d="M1973.90625 429.882812l52.1875-177.96875"/><path d="M2026.09375 251.914062h0"/><path d="M1968.085938 659.804688l63.828124-174.140626"/><path d="M2031.914062 485.664062h0"/><path d="M1959.257812 887.851562 2040.742188 721.25"/><path d="M2040.742188 721.25h0"/><path d="M1945.15625 1111.132812l109.6875-149.53125"/><path d="M2054.84375 961.601562h0"/><path d="M1923.398438 1320.429688l153.203124-104.492188"/><path d="M2076.601562 1215.9375h0"/><path d="M1907.265625 1500h185.46875"/><path d="M2092.734375 1500h0"/><path d="M1923.398438 1679.570312l153.203124 104.492188"/><path d="M2076.601562 1784.0625h0"/><path d="M1945.15625 1888.867188l109.6875 149.53125"/><path d="M2054.84375 2038.398438h0"/><path d="M1959.257812 2112.148438 2040.742188 2278.75"/><path d="M2040.742188 2278.75h0"/><path d="M1968.085938 2340.195312l63.828124 174.140626"/><path d="M2031.914062 2514.335938h0"/><path d="M1973.90625 2570.117188l52.1875 177.96875"/><path d="M2026.09375 2748.085938h0"/><path d="M2269.140625 424.570312l79.882813-167.34375"/><path d="M2349.023438 257.226562h0"/><path d="M2261.5625 652.34375l95.039062-159.257812"/><path d="M2356.601562 493.085938h0"/><path d="M2251.367188 877.109375l115.46875-145.117187"/><path d="M2366.835938 731.992188h0"/><path d="M2238.007812 1095.9375l142.148438-119.140625"/><path d="M2380.15625 976.796875h0"/><path d="M2223.554688 1304.023438l171.054687-71.679688"/><path d="M2394.609375 1232.34375h0"/><path d="M2216.367188 1500h185.46875"/><path d="M2401.835938 1500h0"/><path d="M2223.554688 1695.976562l171.054687 71.679688"/><path d="M2394.609375 1767.65625h0"/><path d="M2238.007812 1904.0625l142.148438 119.140625"/><path d="M2380.15625 2023.203125h0"/><path d="M2251.367188 2122.890625l115.46875 145.117187"/><path d="M2366.835938 2268.007812h0"/><path d="M2261.5625 2347.65625l95.039062 159.257812"/><path d="M2356.601562 2506.914062h0"/><path d="M2269.140625 2575.390625l79.882813 167.382813"/><path d="M2349.023438 2742.773438h0"/><path d="M2546.992188 281.484375 2689.375 400.3125"/><path d="M2689.375 400.3125h0"/><path d="M2541.054688 521.210938l154.21875 103.007812"/><path d="M2695.273438 624.21875h0"/><path d="M2535.273438 763.007812l165.820312 83.046876"/><path d="M2701.09375 846.054688h0"/><path d="M2530.234375 1006.992188l175.898437 58.75"/><path d="M2706.132812 1065.742188h0"/><path d="M2526.71875 1252.890625l182.929688 30.546875"/><path d="M2709.648438 1283.4375h0"/><path d="M2525.46875 1500h185.429688"/><path d="M2710.898438 1500h0"/><path d="M2526.71875 1747.109375l182.929688-30.546875"/><path d="M2709.648438 1716.5625h0"/><path d="M2530.234375 1993.007812l175.898437-58.75"/><path d="M2706.132812 1934.257812h0"/><path d="M2535.273438 2236.992188l165.820312-83.046876"/><path d="M2701.09375 2153.945312h0"/><path d="M2541.054688 2478.789062l154.21875-103.007812"/><path d="M2695.273438 2375.78125h0"/><path d="M2546.992188 2718.515625 2689.375 2599.6875"/><path d="M2689.375 2599.6875h0"/><path d="M2898.984375 252.617188l56.601563 176.601562"/><path d="M2955.585938 429.21875h0"/><path d="M2892.773438 486.640625l68.984374 172.148437"/><path d="M2961.757812 658.789062h0"/><path d="M2883.59375 722.734375l87.382812 163.59375"/><path d="M2970.976562 886.328125h0"/><path d="M2869.296875 963.984375l115.9375 144.726563"/><path d="M2985.234375 1108.710938h0"/><path d="M2848.59375 1219.101562l157.34375 98.164063"/><path d="M3005.9375 1317.265625h0"/><path d="M2834.53125 1500H3020"/><path d="M3020 1500h0"/><path d="M2848.59375 1780.898438l157.34375-98.164063"/><path d="M3005.9375 1682.734375h0"/><path d="M2869.296875 2036.015625l115.9375-144.726563"/><path d="M2985.234375 1891.289062h0"/><path d="M2883.59375 2277.265625l87.382812-163.59375"/><path d="M2970.976562 2113.671875h0"/><path d="M2892.773438 2513.359375l68.984374-172.148437"/><path d="M2961.757812 2341.210938h0"/><path d="M2898.984375 2747.382812l56.601563-176.601562"/><path d="M2955.585938 2570.78125h0"/><path d="M3207.03125 252.929688l58.632812 175.9375"/><path d="M3265.664062 428.867188h0"/><path d="M3200.703125 487.148438l71.328125 171.171874"/><path d="M3272.03125 658.320312h0"/><path d="M3191.328125 723.476562l90.078125 162.109376"/><path d="M3281.40625 885.585938h0"/><path d="M3176.992188 965.117188l118.75 142.5"/><path d="M3295.742188 1107.617188h0"/><path d="M3156.835938 1220.46875l159.0625 95.429688"/><path d="M3315.898438 1315.898438h0"/><path d="M3143.632812 1500h185.46875"/><path d="M3329.101562 1500h0"/><path d="M3156.835938 1779.53125l159.0625-95.429688"/><path d="M3315.898438 1684.101562h0"/><path d="M3176.992188 2034.882812l118.75-142.5"/><path d="M3295.742188 1892.382812h0"/><path d="M3191.328125 2276.523438 3281.40625 2114.375"/><path d="M3281.40625 2114.375h0"/><path d="M3200.703125 2512.851562l71.328125-171.171874"/><path d="M3272.03125 2341.679688h0"/><path d="M3207.03125 2747.070312l58.632812-175.9375"/><path d="M3265.664062 2571.132812h0"/><path d="M3464.765625 295.195312l161.367187 91.40625"/><path d="M3626.132812 386.601562h0"/><path d="M3460.976562 534.453125l168.945313 76.5625"/><path d="M3629.921875 611.015625h0"/><path d="M3457.65625 774.6875l175.585938 59.6875"/><path d="M3633.242188 834.375h0"/><path d="M3455.039062 1015.898438l180.859376 40.976562"/><path d="M3635.898438 1056.875h0"/><path d="M3453.320312 1257.734375l184.257813 20.898437"/><path d="M3637.578125 1278.632812h0"/><path d="M3452.734375 1500h185.429687"/><path d="M3638.164062 1500h0"/><path d="M3453.320312 1742.265625l184.257813-20.898437"/><path d="M3637.578125 1721.367188h0"/><path d="M3455.039062 1984.101562l180.859376-40.976562"/><path d="M3635.898438 1943.125h0"/><path d="M3457.65625 2225.273438l175.585938-59.648438"/><path d="M3633.242188 2165.625h0"/><path d="M3460.976562 2465.546875l168.945313-76.5625"/><path d="M3629.921875 2388.984375h0"/><path d="M3464.765625 2704.804688l161.367187-91.40625"/><path d="M3626.132812 2613.398438h0"/></g></g><style>.a{fill:none;stroke:#bfbfbf;stroke-dasharray:12.5,18.75;stroke-linecap:round;stroke-miterlimit:10;stroke-width:6.25;transform:matrix(.1,0,0,-.1,-29,279)}.b{stroke-linecap:square;stroke-width:12.5}.c{stroke-width:6.25}.d{fill:none;stroke:#bfbfbf;stroke-linecap:round;stroke-miterlimit:10;stroke-width:6.25;transform:matrix(.1,0,0,-.1,-29,279)}</style></svg>