<svg xmlns="http://www.w3.org/2000/svg" xmlns:xlink="http://www.w3.org/1999/xlink" width="217pt" height="86pt" viewBox="0 0 217 86"><defs><path id="g" d="M3.234.031v-.36l-.546-.03c-.407-.016-.438-.11-.438-.86v-4.343l-.11-.047a7.3 7.3 0 0 1-1.859.5v.328H.72c.469 0 .531.078.531.875v2.687c0 .75-.047.844-.453.86L.25-.33v.36c.5-.014 1-.03 1.5-.03s.984.016 1.484.031m-.89-7.64c0-.344-.235-.61-.594-.61-.36 0-.61.25-.61.61 0 .359.25.593.61.593s.594-.234.594-.593m0 0"/><path id="h" d="M6.844.031v-.36l-.5-.03c-.407-.016-.438-.094-.438-.86V-3.53c0-1.39-.656-2.078-2-2.078-.437 0-.687.093-.937.297l-.906.796v-1.046l-.11-.047c-.61.25-1.234.422-1.875.5v.328h.453c.469 0 .516.078.516.875v2.687c0 .75-.031.844-.438.86l-.53.03v.36A45 45 0 0 1 1.546 0c.5 0 1 .016 1.484.031v-.36L2.5-.358c-.406-.016-.437-.11-.437-.86V-3.75c0-.547.78-1.125 1.515-1.125.797 0 1.328.594 1.328 1.516V.03C5.22.016 5.531 0 5.844 0c.343 0 .656.016 1 .031m0 0"/><path id="i" d="m3.813-5.219-1.641.078v-.453c0-.5.047-.937.14-1.703l-.156-.125c-.281.172-.64.328-1.015.453.046.36.046.578.046.938v.843l-.921.422v.25l.906-.046v3.437c0 .89.39 1.266 1.312 1.266.282 0 .563-.063.641-.141l.563-.64-.157-.204c-.297.172-.469.235-.703.235-.469 0-.656-.235-.656-.828v-3.125h1.531Zm0 0"/><path id="j" d="M5.36-3.328c0-1.375-.891-2.281-2.235-2.281-.437 0-.953.156-1.437.453C.703-4.61.313-3.86.313-2.625c0 .766.171 1.406.5 1.86.468.64 1.28 1 2.171 1 .454 0 .891-.094 1.375-.313.329-.125.579-.281.625-.36l.235-.406-.157-.11c-.765.454-1.03.563-1.546.563-.782 0-1.422-.343-1.766-.937-.219-.39-.297-.734-.328-1.422h1.75c.828 0 1.328-.031 2.156-.172.016-.156.031-.265.031-.406m-1.063.14-1.344.032c-.547 0-.86-.016-1.5-.078 0-.563.047-.813.203-1.125a1.47 1.47 0 0 1 1.328-.86c.391 0 .704.157.922.485.266.39.39.734.39 1.547m0 0"/><path id="k" d="M4.469-5.469c-.125-.093-.344-.14-.563-.14-.36 0-.734.187-.984.5l-.672.78v-1.234l-.11-.046a7.3 7.3 0 0 1-1.859.5v.328H.72c.469 0 .531.078.531.875v2.687c0 .75-.047.844-.453.86L.25-.33v.36C.734.016 1.234 0 1.719 0c.578 0 1.14.016 1.719.031v-.36l-.626-.03c-.546-.032-.562-.079-.562-.86V-3.28c0-.719.469-1.313 1.063-1.313.359 0 .609.172.796.547h.25Zm0 0"/><path id="l" d="M6.625-3.234c0-1.328-1.11-2.375-2.484-2.375-.453 0-.875.125-1.063.297l-.984.906v-1.157l-.11-.046a7.3 7.3 0 0 1-1.859.5v.328h.438c.484 0 .53.078.53.875v6.015c0 .75-.046.829-.452.86L.094 3v.36c.5-.032 1-.032 1.5-.032s.984 0 1.484.031V3l-.547-.031c-.406-.031-.437-.11-.437-.86V-.156c.36.219.734.297 1.281.297.344 0 .656-.063.844-.188l1.36-.89c.484-.313 1.046-1.532 1.046-2.297m-1.047.437c0 1.344-.797 2.328-1.875 2.328-.656 0-1.14-.219-1.61-.703v-2.484c0-.172.063-.297.22-.5.343-.453.828-.672 1.421-.672 1.125 0 1.844.781 1.844 2.031m0 0"/><path id="m" d="M8 .031v-.36c-.39-.03-.578-.108-.734-.312l-2.72-3.53c.673-.173.985-.298 1.376-.579.625-.437.969-1.031.969-1.734 0-1.141-.782-1.782-2.344-1.782-.703 0-1.422.032-2.125.032S1.047-8.25.344-8.266v.36l.5.031c.547.031.61.14.61 1.078v5.36c0 .953-.063 1.046-.61 1.078l-.578.03v.36C.844.016 1.422 0 2.016 0c.578 0 1.156.016 1.75.031v-.36l-.578-.03c-.547-.032-.61-.125-.61-1.078v-6.235c.406-.094.766-.14 1.172-.14 1.25 0 1.938.562 1.938 1.578 0 1.109-.875 1.797-2.25 1.797h-.36v.187c.266.297.36.422.563.688C4.53-2.36 5.42-1.156 6.328.03 6.594.016 6.86 0 7.141 0s.562.016.859.031m0 0"/><path id="n" d="M5.625.031v-.36l-.469-.015c-.281-.015-.328-.11-.328-.703v-2.187c0-1.735-.5-2.375-1.89-2.375-.516 0-.985.14-1.438.406l-.64.39v.766l.312.094.156-.375c.234-.563.375-.64.922-.64 1.125 0 1.594.437 1.625 1.53l-1.187.204C1.062-2.922.374-2.36.374-1.328.375-.391.938.14 1.891.14c.218 0 .422-.032.5-.094l1.484-1.03L3.813.03C4.125.016 4.437 0 4.75 0c.297 0 .578.016.875.031m-1.75-1.515c-.344.5-1.11.953-1.562.953-.485 0-.907-.453-.907-.969 0-.437.25-.86.61-1.078.297-.188.953-.344 1.859-.485Zm0 0"/><path id="o" d="M3.234.031v-.36l-.546-.03c-.407-.016-.438-.11-.438-.86v-7.36l-.11-.093c-.53.203-.921.297-1.859.438v.328h.657c.218 0 .312.14.312.5v6.187c0 .75-.047.844-.453.86L.25-.33v.36c.5-.014 1-.03 1.5-.03s.984.016 1.484.031m0 0"/><path id="p" d="m3.734-3.375-.062-.062H.532l-.329.812.063.063h3.109Zm0 0"/><path id="q" d="M9.656-5.156v-.328c-.39.015-.781.03-1.172.03s-.78-.015-1.171-.03v.328l.406.031c.328.016.468.172.468.406 0 .11-.03.235-.078.39a94 94 0 0 1-1.171 3.157L5.563-4.64a7 7 0 0 1-.344-.968h-.282L3.032-1.25l-1-3.297c-.015-.094-.047-.172-.047-.266 0-.187.125-.296.454-.312l.484-.031v-.328c-.485.015-.953.03-1.422.03-.484 0-.953-.015-1.422-.03v.328l.328.031c.328.016.485.219.782 1.188L2.422.077h.547l1.172-2.75c.218-.5.625-1.328.625-1.328L6.39.078h.547l1.64-4.172c.344-.843.5-1.015.766-1.031Zm0 0"/><path id="r" d="M6.14-2.828c0-1.625-1.171-2.781-2.812-2.781C1.594-5.61.375-4.375.375-2.594.375-.906 1.453.234 2.985.234c1.843 0 3.156-1.28 3.156-3.062m-1.109.437c0 1.375-.61 2.235-1.578 2.235C2.281-.156 1.5-1.296 1.5-3c0-1.437.563-2.219 1.625-2.219 1.094 0 1.906 1.203 1.906 2.828m0 0"/><path id="s" d="M6.922.031v-.36l-.547-.03c-.406-.016-.453-.11-.453-.86v-7.36l-.094-.093c-.531.203-.922.297-1.875.438v.328h.672c.219 0 .297.14.297.5v2.187c-.672-.297-1-.39-1.422-.39-.328 0-.61.078-.906.234l-1.047.547C.859-4.468.422-3.594.422-2.578c0 .953.312 1.734.906 2.219.406.343.969.5 1.75.5.235 0 .5-.047.563-.094l1.328-1.11L4.906.032C5.22.016 5.516 0 5.828 0c.36 0 .734.016 1.094.031m-2-2.672c0 .782-.016.891-.172 1.172-.344.563-.922.938-1.484.938-1.047 0-1.813-1.016-1.813-2.438 0-1.312.656-2.078 1.719-2.078.469 0 .937.156 1.36.438.25.172.39.328.39.422Zm0 0"/><path id="t" d="M6.078-3.234c0-1.375-.906-2.375-2.172-2.375-.562 0-1.14.218-1.453.53l-.656.673v-4.172l-.11-.094c-.53.203-.921.297-1.859.438v.328h.656c.22 0 .297.14.297.5v5.578c0 .734 0 1.062-.094 1.906l.204.063.468-.422c.485.312.907.422 1.547.422.469 0 .781-.078 1.031-.266l1.188-.86c.531-.374.953-1.374.953-2.25m-1.047.5c0 1.328-.718 2.265-1.734 2.265-.625 0-1.5-.375-1.5-.64v-2.578c0-.157.11-.376.312-.594a1.78 1.78 0 0 1 1.282-.547c1.015 0 1.64.812 1.64 2.094m0 0"/><path id="u" d="M10.39.031v-.36l-.562-.03c-.406-.016-.437-.11-.437-.86v-2.468c0-1.172-.703-1.922-1.797-1.922-.422 0-.766.109-.985.297l-.906.812C5.313-5.281 4.828-5.61 4-5.61c-.437 0-.766.11-.984.298l-.828.765v-1.016l-.11-.046c-.61.25-1.234.422-1.86.5v.328h.438c.485 0 .532.078.532.875v2.687c0 .75-.047.844-.454.86l-.546.03v.36A49 49 0 0 1 1.703 0c.484 0 .953.016 1.422.031v-.36l-.5-.03c-.406-.016-.437-.11-.437-.86V-3.75c0-.547.78-1.125 1.5-1.125.656 0 1.093.61 1.093 1.516v2.14c0 .75-.031.844-.437.86l-.547.03v.36C4.297.016 4.78 0 5.28 0s1 .016 1.5.031v-.36l-.547-.03c-.406-.016-.453-.11-.453-.86V-3.75c0-.547.797-1.125 1.516-1.125.64 0 1.078.61 1.078 1.516V.03c.314-.014.641-.03.954-.03.36 0 .703.016 1.063.031m0 0"/><path id="v" d="M4.672-1.766c0-.375-.094-.656-.328-.89-.313-.313-.703-.438-1.766-.64-.969-.188-1.297-.438-1.297-.985 0-.594.422-.938 1.14-.938.813 0 1.423.422 1.423.985v.28h.328c.016-.702.031-.983.062-1.358-.64-.204-1.062-.297-1.562-.297-1.375 0-2.234.656-2.234 1.734 0 .578.265.984.812 1.234.328.141.969.329 1.781.516.531.11.766.375.766.828 0 .64-.61 1.094-1.453 1.094-.875 0-1.5-.422-1.5-1.016v-.484h-.36C.484-.891.454-.531.36-.047.984.156 1.453.234 2 .234c1.563 0 2.672-.828 2.672-2m0 0"/><path id="w" d="m4.938-.547-.125-.187c-.438.25-.813.359-1.25.359-1.329 0-2.204-1.031-2.204-2.61 0-1.28.594-2 1.672-2 .531 0 1.11.235 1.313.532l.093.734h.329c0-.547.062-1.031.172-1.469-.485-.28-.891-.421-1.391-.421-.578 0-1.235.234-1.953.687C.75-4.406.313-3.562.313-2.516c0 1.625 1.14 2.75 2.734 2.75.625 0 1.515-.218 1.64-.406Zm0 0"/><path id="x" d="M11.063.031v-.36l-.563-.03c-.562-.032-.61-.125-.61-1.078v-5.36c0-.937.047-1.047.61-1.078l.5-.031v-.36c-.375.016-.75.032-1.11.032-.39 0-.765-.016-1.14-.032L5.625-1.625l-3.156-6.64c-.39.015-.766.03-1.14.03-.391 0-.75-.015-1.141-.03v.359l.53.031c.548.031.61.14.61 1.078v5.36c0 .937-.062 1.046-.61 1.078l-.53.03v.36C.656.016 1.109 0 1.578 0c.484 0 .953.016 1.438.031v-.36l-.532-.03c-.546-.032-.609-.141-.609-1.078v-5.47L5.219.157h.234c.297-.64.39-.984.64-1.515.891-1.844 1.72-3.75 2.657-5.547v5.469c0 .953-.047 1.03-.61 1.078l-.406.03v.36C8.25.016 8.75 0 9.266 0c.593 0 1.203.016 1.797.031m0 0"/><path id="y" d="M6.844.031v-.36l-.5-.03c-.407-.016-.438-.094-.438-.86V-3.53c0-1.39-.656-2.078-2-2.078-.437 0-.687.093-.937.297l-.906.796v-4.062l-.11-.094c-.531.203-.922.297-1.875.438v.328H.75c.219 0 .297.14.297.5v6.187c0 .75-.031.844-.438.86l-.53.03v.36A45 45 0 0 1 1.546 0c.5 0 1 .016 1.484.031v-.36L2.5-.358c-.406-.016-.437-.11-.437-.86V-3.75c0-.547.78-1.125 1.515-1.125.797 0 1.328.594 1.328 1.516V.03C5.22.016 5.531 0 5.844 0c.343 0 .656.016 1 .031m0 0"/><path id="z" d="M6.938.031v-.36l-.485-.03c-.406-.016-.437-.094-.437-.86v-4.343l-.11-.047c-.61.25-1.234.422-1.86.5v.328h.438c.47 0 .532.078.532.875v1.953c0 .25-.172.594-.453.86a1.57 1.57 0 0 1-1.188.515c-.406 0-.75-.14-.937-.36-.172-.203-.25-.562-.25-1.093v-3.531l-.11-.047c-.61.25-1.234.422-1.86.5v.328h.438c.485 0 .532.078.532.875v2c0 .843.062 1.219.28 1.515.266.36.72.532 1.407.532.531 0 1.016-.172 1.328-.47l.813-.733c0 .343-.016.53-.063 1.093.344-.015.672-.031 1-.031s.656.016.984.031m0 0"/><path id="A" d="M6.438-5.156v-.328c-.36.015-.75.03-1.125.03-.36 0-.75-.015-1.11-.03v.328l.484.031c.204.016.297.11.297.313s-.078.468-.234.875l-.5 1.265L3.5-1 2.078-4.453a1 1 0 0 1-.094-.406c0-.157.079-.25.282-.266l.593-.031v-.328c-.468.015-.937.03-1.406.03s-.922-.015-1.375-.03v.328l.406.031c.204.016.25.11.36.39L2.906.079H3.5c.078-.39.25-.765.5-1.297l1.406-3.11c.266-.609.422-.78.672-.796Zm0 0"/><clipPath id="a"><path d="M46 12h38v53H46Zm0 0"/></clipPath><clipPath id="b"><path d="M2.477 86.535h219v-87h-219Zm50.48-27.898-.66-.418 2.7-8.64 4.44 2.757Zm0 0" clip-rule="evenodd"/></clipPath><clipPath id="c"><path d="M78 71h61v1H78Zm0 0"/></clipPath><clipPath id="d"><path d="M2.477 86.535h219v-87h-219Zm136.582-15.719v.84l-7.922 1.742v-4.32Zm0 0" clip-rule="evenodd"/></clipPath><clipPath id="e"><path d="M141 10h34v55h-34Zm0 0"/></clipPath><clipPath id="f"><path d="M2.477 86.535h219v-87h-219Zm145.16-69.476.718-.364 5.102 6.301-3.898 1.922Zm0 0" clip-rule="evenodd"/></clipPath></defs><g clip-path="url(#a)"><g clip-path="url(#b)"><path fill="none" stroke="#000" stroke-miterlimit="10" stroke-width=".45" d="m77.016 18.918-24.18 39.18"/></g></g><path fill-rule="evenodd" stroke="#000" stroke-miterlimit="10" stroke-width=".45" d="m54.996 49.578-1.8 7.918 6.242-5.16Zm0 0"/><g clip-path="url(#c)"><g clip-path="url(#d)"><path fill="none" stroke="#000" stroke-miterlimit="10" stroke-width=".45" d="M78.938 71.238h59.699"/></g></g><path fill-rule="evenodd" stroke="#000" stroke-miterlimit="10" stroke-width=".45" d="m131.137 73.398 6.718-2.16-6.718-2.16Zm0 0"/><g clip-path="url(#e)"><g clip-path="url(#f)"><path fill="none" stroke="#000" stroke-miterlimit="10" stroke-width=".45" d="m168.398 58.098-20.222-40.86"/></g></g><path fill-rule="evenodd" stroke="#000" stroke-miterlimit="10" stroke-width=".45" d="m153.457 22.996-4.922-5.039 1.024 6.961Zm0 0"/><use xlink:href="#g" x="169.821" y="38.836"/><use xlink:href="#h" x="173.3" y="38.836"/><use xlink:href="#i" x="180.258" y="38.836"/><use xlink:href="#j" x="184.155" y="38.836"/><use xlink:href="#k" x="189.882" y="38.836"/><use xlink:href="#l" x="194.783" y="38.836"/><use xlink:href="#k" x="201.969" y="38.836"/><use xlink:href="#j" x="206.691" y="38.836"/><use xlink:href="#i" x="212.417" y="38.836"/><use xlink:href="#m" x="61.083" y="9.136"/><use xlink:href="#j" x="68.83" y="9.136"/><use xlink:href="#n" x="74.557" y="9.136"/><use xlink:href="#o" x="80.534" y="9.136"/><use xlink:href="#p" x="84.013" y="9.136"/><use xlink:href="#q" x="87.994" y="9.136"/><use xlink:href="#r" x="97.487" y="9.136"/><use xlink:href="#k" x="104.014" y="9.136"/><use xlink:href="#o" x="108.378" y="9.136"/><use xlink:href="#s" x="111.857" y="9.136"/><use xlink:href="#l" x="122.15" y="9.136"/><use xlink:href="#k" x="129.335" y="9.136"/><use xlink:href="#r" x="134.058" y="9.136"/><use xlink:href="#t" x="140.585" y="9.136"/><use xlink:href="#o" x="147.196" y="9.136"/><use xlink:href="#j" x="150.675" y="9.136"/><use xlink:href="#u" x="156.402" y="9.136"/><use xlink:href="#n" x="13.517" y="38.836"/><use xlink:href="#t" x="19.495" y="38.836"/><use xlink:href="#v" x="26.106" y="38.836"/><use xlink:href="#i" x="30.996" y="38.836"/><use xlink:href="#k" x="34.893" y="38.836"/><use xlink:href="#n" x="39.436" y="38.836"/><use xlink:href="#w" x="45.413" y="38.836"/><use xlink:href="#i" x="50.722" y="38.836"/><use xlink:href="#x" x=".257" y="72.977"/><use xlink:href="#n" x="11.567" y="72.977"/><use xlink:href="#i" x="17.544" y="72.977"/><use xlink:href="#y" x="21.621" y="72.977"/><use xlink:href="#j" x="28.579" y="72.977"/><use xlink:href="#u" x="34.305" y="72.977"/><use xlink:href="#n" x="44.862" y="72.977"/><use xlink:href="#i" x="50.839" y="72.977"/><use xlink:href="#g" x="54.737" y="72.977"/><use xlink:href="#w" x="58.216" y="72.977"/><use xlink:href="#n" x="63.524" y="72.977"/><use xlink:href="#o" x="69.502" y="72.977"/><use xlink:href="#u" x="19.821" y="85.637"/><use xlink:href="#r" x="30.377" y="85.637"/><use xlink:href="#s" x="36.905" y="85.637"/><use xlink:href="#j" x="44.21" y="85.637"/><use xlink:href="#o" x="49.936" y="85.637"/><use xlink:href="#x" x="144.26" y="71.237"/><use xlink:href="#n" x="155.57" y="71.237"/><use xlink:href="#i" x="161.547" y="71.237"/><use xlink:href="#y" x="165.624" y="71.237"/><use xlink:href="#j" x="172.582" y="71.237"/><use xlink:href="#u" x="178.308" y="71.237"/><use xlink:href="#n" x="188.865" y="71.237"/><use xlink:href="#i" x="194.842" y="71.237"/><use xlink:href="#g" x="198.74" y="71.237"/><use xlink:href="#w" x="202.219" y="71.237"/><use xlink:href="#n" x="207.527" y="71.237"/><use xlink:href="#o" x="213.505" y="71.237"/><use xlink:href="#v" x="159.049" y="85.637"/><use xlink:href="#r" x="164.118" y="85.637"/><use xlink:href="#o" x="170.646" y="85.637"/><use xlink:href="#z" x="174.125" y="85.637"/><use xlink:href="#i" x="181.333" y="85.637"/><use xlink:href="#g" x="185.231" y="85.637"/><use xlink:href="#r" x="188.71" y="85.637"/><use xlink:href="#h" x="195.237" y="85.637"/><use xlink:href="#v" x="95.2" y="64.037"/><use xlink:href="#r" x="100.269" y="64.037"/><use xlink:href="#o" x="106.797" y="64.037"/><use xlink:href="#A" x="110.036" y="64.037"/><use xlink:href="#j" x="116.313" y="64.037"/></svg>