<svg xmlns="http://www.w3.org/2000/svg" xmlns:xlink="http://www.w3.org/1999/xlink" width="276" height="64pt" viewBox="0 0 207 64"><defs><clipPath id="a"><path d="M27 32h2v32h-2Zm0 0"/></clipPath><clipPath id="b"><path d="M.18-.465v65h207v-65Zm31.058 53.563v-8.16h-6.781v8.16l3.422-6.723Zm0 0" clip-rule="evenodd"/></clipPath><clipPath id="c"><path d="M27 0h2v33h-2Zm0 0"/></clipPath><clipPath id="d"><path d="M.18-.465v65h207v-65Zm31.058 17.563v-8.16h-6.781v8.16l3.422-6.723Zm0 0" clip-rule="evenodd"/></clipPath><clipPath id="e"><path d="M50 32h1v32h-1Zm0 0"/></clipPath><clipPath id="f"><path d="M.18-.465v65h207v-65Zm46.777 47.98v8.223h6.781v-8.222l-3.36 6.78Zm0 0" clip-rule="evenodd"/></clipPath><clipPath id="g"><path d="M50 0h1v33h-1Zm0 0"/></clipPath><clipPath id="h"><path d="M.18-.465v65h207v-65Zm46.777 11.98v8.223h6.781v-8.222l-3.36 6.78Zm0 0" clip-rule="evenodd"/></clipPath><clipPath id="i"><path d="M158 32h1v32h-1Zm0 0"/></clipPath><clipPath id="j"><path d="M.18-.465v65h207v-65Zm161.558 53.563v-8.16h-6.781v8.16l3.422-6.723Zm0 0" clip-rule="evenodd"/></clipPath><clipPath id="k"><path d="M158 0h1v33h-1Zm0 0"/></clipPath><clipPath id="l"><path d="M.18-.465v65h207v-65Zm154.777 11.98v8.223h6.781v-8.222l-3.36 6.78Zm0 0" clip-rule="evenodd"/></clipPath><clipPath id="m"><path d="M.18 32H11v1H.18Zm0 0"/></clipPath><clipPath id="n"><path d="M5 0h1v33H5Zm0 0"/></clipPath><clipPath id="o"><path d="M.18-.465v65h207v-65Zm8.558 17.563v-8.16H1.957v8.16l3.422-6.723Zm0 0" clip-rule="evenodd"/></clipPath><clipPath id="p"><path d="M.18 4H16v20H.18Zm0 0"/></clipPath><clipPath id="q"><path d="M5 32h1v32H5Zm0 0"/></clipPath><clipPath id="r"><path d="M.18-.465v65h207v-65Zm1.777 47.98v8.223h6.781v-8.222l-3.36 6.78Zm0 0" clip-rule="evenodd"/></clipPath><clipPath id="s"><path d="M.18 41H16v20H.18Zm0 0"/></clipPath><path id="t" d="M6.938.031v-.36l-.485-.03c-.406-.016-.437-.094-.437-.86v-4.343l-.11-.047c-.61.25-1.234.422-1.86.5v.328h.438c.47 0 .532.078.532.875v1.953c0 .25-.172.594-.453.86a1.57 1.57 0 0 1-1.188.515c-.406 0-.75-.14-.937-.36-.172-.203-.25-.562-.25-1.093v-3.531l-.11-.047c-.61.25-1.234.422-1.86.5v.328h.438c.485 0 .532.078.532.875v2c0 .843.062 1.219.28 1.515.266.36.72.532 1.407.532.531 0 1.016-.172 1.328-.47l.813-.733c0 .343-.016.53-.063 1.093.344-.015.672-.031 1-.031s.656.016.984.031m0 0"/><path id="u" d="M6.844.031v-.36l-.5-.03c-.407-.016-.438-.094-.438-.86V-3.53c0-1.39-.656-2.078-2-2.078-.437 0-.687.093-.937.297l-.906.796v-1.046l-.11-.047c-.61.25-1.234.422-1.875.5v.328h.453c.469 0 .516.078.516.875v2.687c0 .75-.031.844-.438.86l-.53.03v.36A45 45 0 0 1 1.546 0c.5 0 1 .016 1.484.031v-.36L2.5-.358c-.406-.016-.437-.11-.437-.86V-3.75c0-.547.78-1.125 1.515-1.125.797 0 1.328.594 1.328 1.516V.03C5.22.016 5.531 0 5.844 0c.343 0 .656.016 1 .031m0 0"/><path id="v" d="M4.672-1.766c0-.375-.094-.656-.328-.89-.313-.313-.703-.438-1.766-.64-.969-.188-1.297-.438-1.297-.985 0-.594.422-.938 1.14-.938.813 0 1.423.422 1.423.985v.28h.328c.016-.702.031-.983.062-1.358-.64-.204-1.062-.297-1.562-.297-1.375 0-2.234.656-2.234 1.734 0 .578.265.984.812 1.234.328.141.969.329 1.781.516.531.11.766.375.766.828 0 .64-.61 1.094-1.453 1.094-.875 0-1.5-.422-1.5-1.016v-.484h-.36C.484-.891.454-.531.36-.047.984.156 1.453.234 2 .234c1.563 0 2.672-.828 2.672-2m0 0"/><path id="w" d="m3.813-5.219-1.641.078v-.453c0-.5.047-.937.14-1.703l-.156-.125c-.281.172-.64.328-1.015.453.046.36.046.578.046.938v.843l-.921.422v.25l.906-.046v3.437c0 .89.39 1.266 1.312 1.266.282 0 .563-.063.641-.141l.563-.64-.157-.204c-.297.172-.469.235-.703.235-.469 0-.656-.235-.656-.828v-3.125h1.531Zm0 0"/><path id="x" d="M5.625.031v-.36l-.469-.015c-.281-.015-.328-.11-.328-.703v-2.187c0-1.735-.5-2.375-1.89-2.375-.516 0-.985.14-1.438.406l-.64.39v.766l.312.094.156-.375c.234-.563.375-.64.922-.64 1.125 0 1.594.437 1.625 1.53l-1.187.204C1.062-2.922.374-2.36.374-1.328.375-.391.938.14 1.891.14c.218 0 .422-.032.5-.094l1.484-1.03L3.813.03C4.125.016 4.437 0 4.75 0c.297 0 .578.016.875.031m-1.75-1.515c-.344.5-1.11.953-1.562.953-.485 0-.907-.453-.907-.969 0-.437.25-.86.61-1.078.297-.188.953-.344 1.859-.485Zm0 0"/><path id="y" d="M6.078-3.234c0-1.375-.906-2.375-2.172-2.375-.562 0-1.14.218-1.453.53l-.656.673v-4.172l-.11-.094c-.53.203-.921.297-1.859.438v.328h.656c.22 0 .297.14.297.5v5.578c0 .734 0 1.062-.094 1.906l.204.063.468-.422c.485.312.907.422 1.547.422.469 0 .781-.078 1.031-.266l1.188-.86c.531-.374.953-1.374.953-2.25m-1.047.5c0 1.328-.718 2.265-1.734 2.265-.625 0-1.5-.375-1.5-.64v-2.578c0-.157.11-.376.312-.594a1.78 1.78 0 0 1 1.282-.547c1.015 0 1.64.812 1.64 2.094m0 0"/><path id="z" d="M3.234.031v-.36l-.546-.03c-.407-.016-.438-.11-.438-.86v-7.36l-.11-.093c-.53.203-.921.297-1.859.438v.328h.657c.218 0 .312.14.312.5v6.187c0 .75-.047.844-.453.86L.25-.33v.36c.5-.014 1-.03 1.5-.03s.984.016 1.484.031m0 0"/><path id="A" d="M5.36-3.328c0-1.375-.891-2.281-2.235-2.281-.437 0-.953.156-1.437.453C.703-4.61.313-3.86.313-2.625c0 .766.171 1.406.5 1.86.468.64 1.28 1 2.171 1 .454 0 .891-.094 1.375-.313.329-.125.579-.281.625-.36l.235-.406-.157-.11c-.765.454-1.03.563-1.546.563-.782 0-1.422-.343-1.766-.937-.219-.39-.297-.734-.328-1.422h1.75c.828 0 1.328-.031 2.156-.172.016-.156.031-.265.031-.406m-1.063.14-1.344.032c-.547 0-.86-.016-1.5-.078 0-.563.047-.813.203-1.125a1.47 1.47 0 0 1 1.328-.86c.391 0 .704.157.922.485.266.39.39.734.39 1.547m0 0"/></defs><g clip-path="url(#a)"><g clip-path="url(#b)"><path fill="none" stroke="#000" stroke-miterlimit="10" stroke-width=".45" d="M27.879 32.336v31.5-18"/></g></g><path fill-rule="evenodd" d="m31.238 53.098-3.36-6.723-3.421 6.723z"/><path fill="none" stroke="#000" stroke-miterlimit="10" stroke-width=".45" d="m31.238 53.098-3.36-6.723-3.421 6.723Zm0 0"/><g clip-path="url(#c)"><g clip-path="url(#d)"><path fill="none" stroke="#000" stroke-miterlimit="10" stroke-width=".45" d="M27.879.836v31.5-22.5"/></g></g><path fill-rule="evenodd" d="m31.238 17.098-3.36-6.723-3.421 6.723z"/><path fill="none" stroke="#000" stroke-miterlimit="10" stroke-width=".45" d="m31.238 17.098-3.36-6.723-3.421 6.723Zm0 0"/><g clip-path="url(#e)"><g clip-path="url(#f)"><path fill="none" stroke="#000" stroke-miterlimit="10" stroke-width=".45" d="M50.379 63.836v-31.5 22.5"/></g></g><path fill-rule="evenodd" d="m46.957 47.516 3.422 6.78 3.36-6.78z"/><path fill="none" stroke="#000" stroke-miterlimit="10" stroke-width=".45" d="m46.957 47.516 3.422 6.78 3.36-6.78Zm0 0"/><g clip-path="url(#g)"><g clip-path="url(#h)"><path fill="none" stroke="#000" stroke-miterlimit="10" stroke-width=".45" d="M50.379 32.336V.836v18"/></g></g><path fill-rule="evenodd" d="m46.957 11.516 3.422 6.78 3.36-6.78z"/><path fill="none" stroke="#000" stroke-miterlimit="10" stroke-width=".45" d="m46.957 11.516 3.422 6.78 3.36-6.78Zm-1.078 20.82h9m-31.5 0h9"/><g clip-path="url(#i)"><g clip-path="url(#j)"><path fill="none" stroke="#000" stroke-miterlimit="10" stroke-width=".45" d="M158.379 32.336v31.5-18"/></g></g><path fill-rule="evenodd" d="m161.738 53.098-3.36-6.723-3.421 6.723z"/><path fill="none" stroke="#000" stroke-miterlimit="10" stroke-width=".45" d="m161.738 53.098-3.36-6.723-3.421 6.723Zm0 0"/><g clip-path="url(#k)"><g clip-path="url(#l)"><path fill="none" stroke="#000" stroke-miterlimit="10" stroke-width=".45" d="M158.379 32.336V.836v18"/></g></g><path fill-rule="evenodd" d="m154.957 11.516 3.422 6.78 3.36-6.78z"/><path fill="none" stroke="#000" stroke-miterlimit="10" stroke-width=".45" d="m154.957 11.516 3.422 6.78 3.36-6.78Zm-1.078 20.82h9"/><g clip-path="url(#m)"><path fill="none" stroke="#000" stroke-miterlimit="10" stroke-width=".45" d="M.879 32.336h9"/></g><g clip-path="url(#n)"><g clip-path="url(#o)"><path fill="none" stroke="#000" stroke-miterlimit="10" stroke-width=".45" d="M5.379.836v31.5-22.5"/></g></g><path fill-rule="evenodd" d="m8.738 17.098-3.36-6.723-3.421 6.723z"/><g clip-path="url(#p)"><path fill="none" stroke="#000" stroke-miterlimit="10" stroke-width=".45" d="m8.738 17.098-3.36-6.723-3.421 6.723Zm0 0"/></g><g clip-path="url(#q)"><g clip-path="url(#r)"><path fill="none" stroke="#000" stroke-miterlimit="10" stroke-width=".45" d="M5.379 63.836v-31.5 22.5"/></g></g><path fill-rule="evenodd" d="m1.957 47.516 3.422 6.78 3.36-6.78z"/><g clip-path="url(#s)"><path fill="none" stroke="#000" stroke-miterlimit="10" stroke-width=".45" d="m1.957 47.516 3.422 6.78 3.36-6.78Zm0 0"/></g><use xlink:href="#t" x="68.399" y="36.817"/><use xlink:href="#u" x="75.608" y="36.817"/><use xlink:href="#v" x="82.566" y="36.817"/><use xlink:href="#w" x="87.456" y="36.817"/><use xlink:href="#x" x="91.353" y="36.817"/><use xlink:href="#y" x="97.331" y="36.817"/><use xlink:href="#z" x="103.942" y="36.817"/><use xlink:href="#A" x="107.421" y="36.817"/><use xlink:href="#v" x="176.402" y="36.817"/><use xlink:href="#w" x="181.292" y="36.817"/><use xlink:href="#x" x="185.189" y="36.817"/><use xlink:href="#y" x="191.167" y="36.817"/><use xlink:href="#z" x="197.778" y="36.817"/><use xlink:href="#A" x="201.257" y="36.817"/></svg>