<svg xmlns="http://www.w3.org/2000/svg" xmlns:xlink="http://www.w3.org/1999/xlink" width="46pt" height="100pt" viewBox="0 0 46 100"><defs><clipPath id="a"><path d="M4 63h2v37H4Zm0 0"/></clipPath><clipPath id="b"><path d="M-.39-.465v101h46v-101Zm1.78 83.98v8.223h6.778v-8.222l-3.36 6.78Zm0 0" clip-rule="evenodd"/></clipPath><clipPath id="c"><path d="M4 27h2v38H4Zm0 0"/></clipPath><clipPath id="d"><path d="M-.39-.465v101h46v-101Zm8.558 53.563v-8.16H1.391v8.16l3.418-6.723Zm0 0" clip-rule="evenodd"/></clipPath><clipPath id="e"><path d="M4 0h2v29H4Zm0 0"/></clipPath><clipPath id="f"><path d="M-.39-.465v101h46v-101Zm1.78 11.98v8.223h6.778v-8.222l-3.36 6.78Zm0 0" clip-rule="evenodd"/></clipPath><path id="g" d="m5.36-.937-.094-.235c-.438.36-.735.531-.922.531S4-.75 3.89-.984a4.8 4.8 0 0 1-.313-1.032l-.203-1.203.422-.578c.547-.781.875-1.062 1.25-1.062.187 0 .328.109.39.28l.172-.046.172-1.016c-.14-.078-.25-.125-.36-.125-.468 0-.952.438-1.687 1.532l-.453.656-.062-.563c-.14-1.187-.469-1.625-1.172-1.625-.313 0-.578.094-.688.25l-.687 1 .203.11c.36-.407.594-.563.828-.563.39 0 .656.485.86 1.657l.124.75-.468.734C1.703-1.031 1.297-.641.953-.641.781-.64.641-.687.625-.75l-.14-.344-.235.047c0 .234-.016.39-.094.766-.031.156-.031.187-.047.265.172.094.375.141.516.141.39 0 .86-.344 1.234-.906l.907-1.39.125.827C3.063-.328 3.328.125 3.75.125c.266 0 .656-.203 1.031-.547Zm0 0"/><path id="h" d="M.781-4.14H7.22v-.72H.78Zm0 2.53H7.22v-.702H.78Zm0 0"/><path id="i" d="M5.484-3.031c0-1.344-.968-2.297-2.328-2.297-.578 0-1 .156-1.75.594l.11-2.5 3.64.062.063-.062c-.016-.22-.016-.282-.016-.47 0-.187 0-.25.016-.468l-.063-.062s-1.265.062-2.078.062S1-8.234 1-8.234l-.062.062.03 1.64c0 1.048-.03 2.157-.077 2.688l.25.063c.562-.563.875-.719 1.468-.719 1.141 0 1.86.813 1.86 2.094 0 1.328-.766 2.11-2.063 2.11-.656 0-1.25-.22-1.422-.532l-.546-.984-.282.171C.438-.953.578-.578.734-.047c.344.172.813.281 1.329.281.812 0 1.656-.343 2.312-.921.734-.641 1.11-1.454 1.11-2.344m0 0"/><path id="j" d="M5.563-4.375c0-2.625-.782-3.86-2.422-3.86-1.844 0-2.797 1.47-2.797 4.36 0 1.406.25 2.61.672 3.188.422.593 1.093.921 1.828.921 1.812 0 2.719-1.546 2.719-4.609m-1.016.594c0 2.547-.453 3.61-1.547 3.61-1.156 0-1.656-1.22-1.656-4.126 0-2.531.453-3.516 1.578-3.516 1.172 0 1.625 1.172 1.625 4.032m0 0"/></defs><path fill="none" stroke="#000" stroke-miterlimit="10" stroke-width=".45" d="M9.309 68.336h-9m0-36h9"/><g clip-path="url(#a)"><g clip-path="url(#b)"><path fill="none" stroke="#000" stroke-miterlimit="10" stroke-width=".45" d="M4.809 99.836v-36 27"/></g></g><path fill-rule="evenodd" d="m1.39 83.516 3.419 6.78 3.359-6.78z"/><path fill="none" stroke="#000" stroke-miterlimit="10" stroke-width=".45" d="m1.39 83.516 3.419 6.78 3.359-6.78Zm0 0"/><g clip-path="url(#c)"><g clip-path="url(#d)"><path fill="none" stroke="#000" stroke-miterlimit="10" stroke-width=".45" d="M4.809 27.836v36-18"/></g></g><path fill-rule="evenodd" d="m8.168 53.098-3.36-6.723-3.417 6.723z"/><path fill="none" stroke="#000" stroke-miterlimit="10" stroke-width=".45" d="m8.168 53.098-3.36-6.723-3.417 6.723Zm0 0"/><g clip-path="url(#e)"><g clip-path="url(#f)"><path fill="none" stroke="#000" stroke-miterlimit="10" stroke-width=".45" d="M4.809 27.836v-27 18"/></g></g><path fill-rule="evenodd" d="m1.39 11.516 3.419 6.78 3.359-6.78z"/><path fill="none" stroke="#000" stroke-miterlimit="10" stroke-width=".45" d="m1.39 11.516 3.419 6.78 3.359-6.78Zm0 0"/><use xlink:href="#g" x="18.689" y="36.816"/><use xlink:href="#h" x="28.588" y="36.816"/><use xlink:href="#i" x="39.909" y="36.816"/><use xlink:href="#g" x="18.689" y="72.817"/><use xlink:href="#h" x="28.588" y="72.817"/><use xlink:href="#j" x="39.909" y="72.817"/></svg>