<svg xmlns="http://www.w3.org/2000/svg" xmlns:xlink="http://www.w3.org/1999/xlink" width="287pt" height="84" viewBox="0 0 287 63"><defs><path id="e" d="m5.36-.937-.094-.235c-.438.36-.735.531-.922.531S4-.75 3.89-.984a4.8 4.8 0 0 1-.313-1.032l-.203-1.203.422-.578c.547-.781.875-1.062 1.25-1.062.187 0 .328.109.39.28l.172-.046.172-1.016c-.14-.078-.25-.125-.36-.125-.468 0-.952.438-1.687 1.532l-.453.656-.062-.563c-.14-1.187-.469-1.625-1.172-1.625-.313 0-.578.094-.688.25l-.687 1 .203.11c.36-.407.594-.563.828-.563.39 0 .656.485.86 1.657l.124.75-.468.734C1.703-1.031 1.297-.641.953-.641.781-.64.641-.687.625-.75l-.14-.344-.235.047c0 .234-.016.39-.094.766-.031.156-.031.187-.047.265.172.094.375.141.516.141.39 0 .86-.344 1.234-.906l.907-1.39.125.827C3.063-.328 3.328.125 3.75.125c.266 0 .656-.203 1.031-.547Zm0 0"/><path id="f" d="m5.86-5.656-.141-.11c-.344.141-.61.204-.875.235l-.422 1.578c-.14.562-.563 1.437-.953 2.015-.422.61-1 1.141-1.266 1.141-.265 0-.25-.578-.234-.734l.187-2.313c.016-.375.047-.828.047-1.172 0-.53-.094-.75-.297-.75-.156 0-.312.094-.89.485L.03-4.61l.14.203.595-.344c.062-.062.218-.156.297-.156.312 0 .265.61.25.812l-.204 2.907-.015.468c0 .5.218.844.515.844.454 0 1.454-1.016 2.344-2.36L3.375-.187c-.61 2.11-1.219 2.985-2.047 2.985a.737.737 0 0 1-.75-.735c0-.062.016-.156.031-.265L.484 1.75l-.562.406c-.016.078-.016.156-.016.203 0 .516.438.938.985.938 1.265 0 2.578-1.485 3.28-3.688Zm0 0"/><path id="g" d="M6.297-6.422c.031-.75.125-1.36.25-1.812-.266-.032-.594-.032-.797-.032-.937 0-1.875.032-2.812.032-.61 0-1.22-.016-1.813-.032l-.031.329.656.03c.297 0 .422.11.422.313 0 .172-.047.547-.11.907L1.172-1.5C.984-.39.969-.375.484-.328l-.437.031L0 .031A49 49 0 0 1 1.516 0c.547 0 1.109.016 1.656.031l.031-.328-.765-.031c-.329-.016-.422-.11-.422-.36 0-.062 0-.203.015-.25l.438-2.656h1.39c1.5 0 1.204.031 1.579.047l.234-.547-.047-.078L3-4.094h-.437l.546-3.25a1.1 1.1 0 0 1 .11-.375c.234 0-.047.016 1.469-.047.734 0 1.218.11 1.234.282l.094 1.062Zm0 0"/><path id="k" d="m4.86-1.016-.094-.25c-.079.079-.094.079-.157.125-.375.329-.562.438-.734.438q-.187 0-.187-.281c0-.063 0-.094.015-.125l1.11-4.532-.125-.109-.391.219c-.469-.188-.703-.235-1.016-.235-.344 0-.578.063-.906.22-.75.374-1.125.734-1.437 1.312C.422-3.172.046-1.75.046-.781c0 .5.187.906.406.906.25 0 .688-.25 1.14-.625.516-.437.985-1 1.641-1.937L2.891-.923a3 3 0 0 0-.063.61c0 .28.094.437.281.437.266 0 .766-.328 1.75-1.14M3.811-4.953c-.265 1.281-.484 1.906-.89 2.516-.656 1-1.406 1.734-1.797 1.734-.14 0-.219-.156-.219-.485 0-.765.313-2.093.735-3.078.28-.687.578-.906 1.156-.906.281 0 .5.047 1.015.219m0 0"/><path id="h" d="M5.469-3.437c0-2.172-2.813-2.61-2.813-4 0-.5.625-.672 1.031-.672.422 0 .829.125 1.172.359L5-7.828c-.047-.14-.094-.313-.156-.469a4.3 4.3 0 0 0-.89-.094c-.735 0-2.141.313-2.141 1.25 0 .704.843 1.25 1.359 1.594l-.016.078C1.453-5.094.375-3.64.375-1.906.375-.641.906.187 2.265.187c1.876 0 3.204-1.843 3.204-3.624m-.922.218c0 1.14-.563 3.078-1.984 3.078-1 0-1.266-1.046-1.266-1.859 0-1.531.516-2.906 2.11-3.36.734.594 1.14 1.157 1.14 2.141m0 0"/><path id="i" d="M3.64-9.031C1.813-7.844.72-5.797.72-3.234c0 2.343 1.14 4.578 2.875 5.78l.156-.202C2.094.906 1.813-.484 1.813-3.281c0-2.781.312-4.219 1.937-5.547Zm0 0"/><path id="j" d="M7.219-2.875v-.703H.78v.703Zm0 0"/><path id="l" d="m.5-9.031-.125.203C2.015-7.5 2.328-6.063 2.328-3.281c0 2.797-.281 4.187-1.953 5.625l.156.203c1.75-1.203 2.89-3.438 2.89-5.781 0-2.563-1.108-4.61-2.921-5.797m0 0"/><clipPath id="a"><path d="M260 34h27v2h-27Zm0 0"/></clipPath><clipPath id="b"><path d="M-.203-1.465v65h288v-65ZM276.676 37.06h10.742v-4.383h-10.742l8.82 2.222Zm0 0" clip-rule="evenodd"/></clipPath><clipPath id="c"><path d="M12 0h14v63H12Zm0 0"/></clipPath><clipPath id="d"><path d="M-.203-1.465v65h288v-65Zm21.34 11.281-.059-10.68-4.383.06.063 10.679 2.16-8.758Zm0 0" clip-rule="evenodd"/></clipPath></defs><path fill-rule="evenodd" d="M150.496 10.836a4.501 4.501 0 0 1-9 0 4.501 4.501 0 0 1 9 0"/><path fill="none" stroke="#000" stroke-miterlimit="10" stroke-width=".45" d="M150.496 10.836a4.501 4.501 0 0 1-9 0 4.501 4.501 0 0 1 9 0ZM19.457 27.156v8.219"/><g clip-path="url(#a)"><g clip-path="url(#b)"><path fill="none" stroke="#000" stroke-miterlimit="10" stroke-width=".45" d="M260.957 34.898h25.559"/></g></g><path fill="none" stroke="#000" stroke-miterlimit="10" stroke-width=".45" d="m276.676 37.059 8.82-2.16-8.82-2.223"/><g clip-path="url(#c)"><g clip-path="url(#d)"><path fill="none" stroke="#000" stroke-miterlimit="10" stroke-width=".45" d="m18.918.098.539 62.699"/></g></g><path fill="none" stroke="#000" stroke-miterlimit="10" stroke-width=".45" d="m21.137 9.816-2.219-8.699-2.16 8.758m244.078 25.5v-8.219"/><path fill-rule="evenodd" d="m10.156 49.297 9-13.5 9 13.5"/><path fill="none" stroke="#000" stroke-miterlimit="10" stroke-width=".45" d="m10.156 49.297 9-13.5 9 13.5Zm0 0"/><path fill-rule="evenodd" d="m250.938 49.297 9-13.5 9 13.5"/><path fill="none" stroke="#000" stroke-miterlimit="10" stroke-width=".45" d="m250.938 49.297 9-13.5 9 13.5Zm-18.422-13.559H52.938m-34.02-.422H.558"/><path fill-rule="evenodd" d="m136.996 33.336 9 13.5 9-13.5"/><path fill="none" stroke="#000" stroke-miterlimit="10" stroke-width=".45" d="m136.996 33.336 9 13.5 9-13.5Zm0 0"/><path fill-rule="evenodd" stroke="#000" stroke-miterlimit="10" stroke-width=".45" d="M136.996 28.836h18v-13.5h-18Zm0 0"/><path fill="none" stroke="#000" stroke-linejoin="bevel" stroke-miterlimit="10" stroke-width=".45" d="M19.457 27.156h.059l.062.063.18.058.3.059.419.121.539.18.722.18.899.242 1.02.296 1.261.364 1.437.418 1.563.422 1.8.476 1.919.543 2.101.54 2.278.6 2.402.657 2.52.66 2.699.66 2.761.66 2.82.723 3 .719 3 .66 3.118.719 3.18.66 3.3.723 3.301.66 3.418.656 3.48.66 3.602.602 3.66.66 3.782.539 3.84.602 3.956.539 4.082.48 4.2.48 4.379.481 4.5.418 4.62.36 4.802.3 4.917.3 5.043.24 5.16.183 10.438.117 5.461-.059 5.398-.12 5.223-.18 5.098-.239 4.98-.3 4.742-.36 4.559-.36 4.379-.48 4.2-.48 4.023-.54 3.898-.542 3.781-.54 3.598-.6 3.48-.661 3.36-.656 3.3-.66 3.18-.66 3.063-.723 3-.719 2.937-.719 2.82-.722 2.762-.778 2.64-.722 2.579-.72 2.398-.718 2.34-.66 2.223-.723 2.098-.597 1.98-.66 1.8-.54 1.622-.543 1.5-.48 1.32-.477 1.14-.363 1.02-.36.778-.3.722-.18.48-.18.419-.18.238-.058.184-.058.058-.063h.059"/><path fill="none" stroke="#000" stroke-linejoin="bevel" stroke-miterlimit="10" stroke-width=".45" d="M19.457 35.375h.059l.062.063.18.058.3.063.419.117.539.18.722.18.899.3 1.02.3 1.261.36 1.437.422 1.563.48 1.8.477 1.919.543 2.101.598 2.278.601 2.402.66 2.52.72 2.699.66 2.761.718 2.82.723 6 1.437 3.118.723 3.18.777 3.3.66 3.301.723 3.418.719 3.48.66 3.602.66 3.66.602 3.782.597 3.84.602 3.956.597 4.082.48 4.2.54 4.379.48 4.5.422 4.62.36 4.802.36 4.917.3 5.043.238 5.16.184 10.438.117 5.461-.059 5.398-.12 5.223-.18 5.098-.239 4.98-.3 4.742-.422 4.559-.418 4.379-.422 4.2-.54 4.023-.538 3.898-.54 3.781-.601 3.598-.66 3.48-.602 3.36-.718 3.3-.66 3.18-.72 3.063-.722 3-.777 2.937-.723 2.82-.777 2.762-.782 2.64-.718 2.579-.782 2.398-.718 2.34-.782 2.223-.66 2.098-.718 1.98-.602 1.8-.598 1.622-.601 1.5-.48 1.32-.481 1.14-.36 1.02-.359.778-.3.722-.239.48-.18.419-.18.238-.062.184-.059.058-.062h.059"/><use xlink:href="#e" x="265.302" y="29.757"/><use xlink:href="#f" x="2.554" y="9.956"/><use xlink:href="#g" x="157.419" y="15.596"/><use xlink:href="#h" x="164.903" y="15.596"/><use xlink:href="#i" x="171.215" y="15.596"/><use xlink:href="#e" x="175.71" y="15.596"/><use xlink:href="#j" x="184.94" y="15.596"/><use xlink:href="#k" x="196.07" y="15.596"/><use xlink:href="#l" x="201.976" y="15.596"/></svg>