<svg xmlns="http://www.w3.org/2000/svg" xmlns:xlink="http://www.w3.org/1999/xlink" width="289pt" height="108" viewBox="0 0 289 81"><defs><clipPath id="a"><path d="M142 20h2v34h-2Zm0 0"/></clipPath><clipPath id="b"><path d="M-.703-1.465v83h291v-83Zm146 31.563v-10.68h-4.379v10.68l2.219-8.762Zm0 0" clip-rule="evenodd"/></clipPath><clipPath id="c"><path d="M0 53h289v1H0Zm0 0"/></clipPath><clipPath id="d"><path d="M-.703-1.465v83h291v-83Zm279.86 56.942h10.741v-4.38h-10.742l8.82 2.22Zm0 0" clip-rule="evenodd"/></clipPath><clipPath id="e"><path d="M15 0h14v81H15Zm0 0"/></clipPath><clipPath id="f"><path d="M-.703-1.465v83h291v-83Zm25.16 11.223V-.922l-4.379-.062-.062 10.742 2.28-8.762Zm0 0" clip-rule="evenodd"/></clipPath><clipPath id="g"><path d="M242 22h35v56h-35Zm0 0"/></clipPath><clipPath id="h"><path d="M-.703-1.465v83h291v-83Zm248.96 70.621-3.6-10.558-4.38 1.5 3.602 10.558-.781-9.48Zm0 0" clip-rule="evenodd"/></clipPath><path id="i" d="M5.969 0c0-.297.125-1.234.281-1.969h-.375l-.203.735c-.11.39-.203.593-.313.64-.14.063-1.062.125-1.718.125-.672 0-.97-.015-1.703-.078 0-.14 0-.281.015-.422l1.11-6.36c.078-.452.171-.53.609-.577l.5-.032.031-.328c-.469.016-.953.032-1.437.032-.532 0-1.063-.016-1.61-.032l-.031.329.563.03c.28 0 .421.095.421.298 0 .187-.046.53-.109.922L.969-.657C.938-.436.78-.358.25-.28L.188.03C.797.016 1.422 0 2.03 0c.89 0 1.797.031 2.688.031.5 0 .843 0 1.25-.031m0 0"/><path id="j" d="m5.36-.937-.094-.235c-.438.36-.735.531-.922.531S4-.75 3.89-.984a4.8 4.8 0 0 1-.313-1.032l-.203-1.203.422-.578c.547-.781.875-1.062 1.25-1.062.187 0 .328.109.39.28l.172-.046.172-1.016c-.14-.078-.25-.125-.36-.125-.468 0-.952.438-1.687 1.532l-.453.656-.062-.563c-.14-1.187-.469-1.625-1.172-1.625-.313 0-.578.094-.688.25l-.687 1 .203.11c.36-.407.594-.563.828-.563.39 0 .656.485.86 1.657l.124.75-.468.734C1.703-1.031 1.297-.641.953-.641.781-.64.641-.687.625-.75l-.14-.344-.235.047c0 .234-.016.39-.094.766-.031.156-.031.187-.047.265.172.094.375.141.516.141.39 0 .86-.344 1.234-.906l.907-1.39.125.827C3.063-.328 3.328.125 3.75.125c.266 0 .656-.203 1.031-.547Zm0 0"/><path id="k" d="m5.86-5.656-.141-.11c-.344.141-.61.204-.875.235l-.422 1.578c-.14.562-.563 1.437-.953 2.015-.422.61-1 1.141-1.266 1.141-.265 0-.25-.578-.234-.734l.187-2.313c.016-.375.047-.828.047-1.172 0-.53-.094-.75-.297-.75-.156 0-.312.094-.89.485L.03-4.61l.14.203.595-.344c.062-.062.218-.156.297-.156.312 0 .265.61.25.812l-.204 2.907-.015.468c0 .5.218.844.515.844.454 0 1.454-1.016 2.344-2.36L3.375-.187c-.61 2.11-1.219 2.985-2.047 2.985a.737.737 0 0 1-.75-.735c0-.062.016-.156.031-.265L.484 1.75l-.562.406c-.016.078-.016.156-.016.203 0 .516.438.938.985.938 1.265 0 2.578-1.485 3.28-3.688Zm0 0"/><path id="l" d="M5.563-4.375c0-2.625-.782-3.86-2.422-3.86-1.844 0-2.797 1.47-2.797 4.36 0 1.406.25 2.61.672 3.188.422.593 1.093.921 1.828.921 1.812 0 2.719-1.546 2.719-4.609m-1.016.594c0 2.547-.453 3.61-1.547 3.61-1.156 0-1.656-1.22-1.656-4.126 0-2.531.453-3.516 1.578-3.516 1.172 0 1.625 1.172 1.625 4.032m0 0"/></defs><g clip-path="url(#a)"><g clip-path="url(#b)"><path fill="none" stroke="#000" stroke-miterlimit="10" stroke-width=".45" d="M143.137 53.316v-33"/></g></g><path fill="none" stroke="#000" stroke-miterlimit="10" stroke-width=".45" d="m145.297 30.098-2.16-8.762-2.219 8.762"/><g clip-path="url(#c)"><g clip-path="url(#d)"><path fill="none" stroke="#000" stroke-miterlimit="10" stroke-width=".45" d="M.04 53.316h288.956"/></g></g><path fill="none" stroke="#000" stroke-miterlimit="10" stroke-width=".45" d="m279.156 55.477 8.82-2.16-8.82-2.22"/><g clip-path="url(#e)"><g clip-path="url(#f)"><path fill="none" stroke="#000" stroke-miterlimit="10" stroke-width=".45" d="m22.297-.023-.238 80.878"/></g></g><path fill="none" stroke="#000" stroke-miterlimit="10" stroke-width=".45" d="M24.457 9.758 22.297.996l-2.281 8.762m243.121 40.32v6"/><path fill="none" stroke="#000" stroke-linejoin="bevel" stroke-miterlimit="10" stroke-width=".45" d="M22.059 53.316h.058l.059-.058.18-.121.3-.18.48-.18.54-.3.722-.418.957-.48 1.082-.544 1.258-.656 1.442-.723 1.68-.84 1.8-.898 1.98-.961 2.16-1.02 2.282-1.14 2.398-1.078 2.579-1.203 2.64-1.2 2.82-1.199 2.88-1.262 2.94-1.199 3.06-1.258 3.12-1.203 3.243-1.199 3.297-1.2 3.421-1.14 3.481-1.14 3.539-1.078 3.719-1.02 3.781-1.02 3.961-.96 4.078-.961 4.2-.84 4.382-.84 4.5-.719 4.68-.66 4.918-.602 4.98-.539 5.223-.422 5.34-.296 5.398-.18 5.52-.063 5.52.063 5.402.18 5.34.296 5.218.422 4.98.54 4.919.601 4.68.66 4.5.719 4.382.84 4.2.84 4.077.96 3.961.961 3.782 1.02 3.718 1.02 3.54 1.078 3.48 1.14 3.422 1.14 3.3 1.2 3.239 1.2 3.121 1.202 3.059 1.258 3 1.2 2.82 1.261 2.82 1.2 2.64 1.199 2.579 1.203 2.402 1.078 2.278 1.14 2.16 1.02 1.98.961 1.801.898 1.68.84 1.441.723 1.258.656 1.082.543.96.48.72.419.539.3.48.18.301.18.18.12.058.06h.063"/><g clip-path="url(#g)"><g clip-path="url(#h)"><path fill="none" stroke="#000" stroke-linejoin="bevel" stroke-miterlimit="10" stroke-width=".45" d="M244.059 35.738v-.062l.539-1.078.359-.903.422-.777.297-.723.902-1.617.36-.543.359-.539.422-.539.418-.539.422-.54.418-.48.359-.421.422-.418.418-.364.48-.418.48-.359.481-.422.54-.3.421-.298.48-.3.477-.243.543-.238.54-.238.538-.184.602-.238.539-.121.539-.117.543-.121.476-.063.543-.058h1.137l.543.058.598.063.48.12.54.06.48.12.48.18.54.18.542.238.54.3.538.24.961.6.961.72.48.421.54.48.96.962.419.476.422.48.359.481.418.54.422.6.36.661.417.602.363.66.36.597.3.602.297.598.243.601.3.719.297.723.301.718.242.72.239.66.18.66.179.538.121.543.121.598.18.66.12.602.118.66.121.66.059.66.062.66.117.598v.66l.063.66.059.72.058.78v1.622l.063.78-.063.778v1.441l-.058.72-.059.722-.063.719-.058.78-.121.778-.059.782-.12.718-.118.66-.121.66-.121.602-.121.719-.18.719-.18.722-.238.778-.18.722-.242.66-.238.66-.242.598-.239.54-.242.66-.297.66-.36.66-.362.66-.297.602-.364.597-.359.543-.36.48-.359.598-.422.54-.476.542-.961 1.078-.84.84-.48.422-.48.418-.481.36-.54.421-.6.36-.481.3-.54.301-.48.239-1.617.539-1.203.242-.598.058-.543.063h-1.02l-.538-.063-.54-.058-.601-.063-.54-.117-1.077-.36-.48-.12-.481-.243-.961-.476-.54-.3-.48-.36-.48-.301-.418-.3-.422-.302-.719-.718-.422-.36-.359-.422-.36-.359-.359-.422-.36-.418-.3-.36-.3-.421-.301-.418-.36-.48-.3-.481-.301-.539-.36-.48-.238-.481-.242-.422-.238-.476-.243-.422-.238-.54-.18-.48-.242-.539-.36-.96-.179-.423-.18-.539-.238-.66-.781-2.277"/></g></g><path fill="none" stroke="#000" stroke-miterlimit="10" stroke-width=".45" d="m248.258 69.156-5.16-7.98.78 9.48"/><use xlink:href="#i" x="255.862" y="65.817"/><use xlink:href="#j" x="281.243" y="65.817"/><use xlink:href="#k" x="149.238" y="39.536"/><use xlink:href="#k" x="13.275" y="12.236"/><use xlink:href="#l" x="12.677" y="65.817"/></svg>