<svg xmlns="http://www.w3.org/2000/svg" xmlns:xlink="http://www.w3.org/1999/xlink" width="188" height="62pt" viewBox="0 0 141 62"><defs><clipPath id="a"><path d="M.027 27H22v23H.027Zm0 0"/></clipPath><clipPath id="b"><path d="M23 45h28v2H23Zm0 0"/></clipPath><clipPath id="c"><path d="M.027.535v63h141v-63ZM42.43 49.06h8.699v-6.301h-8.7l7.2 3.18Zm0 0" clip-rule="evenodd"/></clipPath><clipPath id="d"><path d="M113 45h28v2h-28Zm0 0"/></clipPath><clipPath id="e"><path d="M.027.535v63h141v-63ZM132.43 49.06h8.699v-6.301h-8.7l7.2 3.18Zm0 0" clip-rule="evenodd"/></clipPath><clipPath id="f"><path d="M.027 9H47v31H.027Zm0 0"/></clipPath><path id="g" d="m5.11-.797-.094-.234-.516.297c-.172.093-.25.109-.36.109s-.202-.062-.296-.266c-.422-.765-.688-1.421-1.156-2.89l.171-.156c.72-.735 1.282-1.032 1.875-1.032.094 0 .22.016.422.063l.203-.75a2.2 2.2 0 0 0-.562-.11c-.797 0-1.781.922-3.281 3.016l1.28-5.875-.14-.14c-.625.312-1.047.421-1.922.5l-.046.25h.578c.28 0 .406.093.406.296 0 .094-.016.203-.016.282l-.578 3.203C.922-3.328.718-2.516.094-.016l.11.125L1-.094l.281-1.484c.11-.578.39-1.11.797-1.516C2.906-.704 3.281.11 3.578.11c.156 0 .453-.156.969-.53Zm0 0"/><path id="h" d="m8.844-1.016-.125-.218-.297.203c-.36.234-.61.36-.735.36-.078 0-.156-.11-.156-.235s.016-.235.078-.485l.907-3.546a2.7 2.7 0 0 0 .078-.485c0-.203-.125-.344-.313-.344-.344 0-.797.22-1.531.735C6-4.5 5.578-4.078 5-3.25l.36-1.64a4 4 0 0 0 .077-.5c0-.235-.125-.376-.312-.376-.36 0-.906.266-1.562.766-.532.406-.766.656-1.547 1.719l.406-1.594c.047-.187.062-.375.062-.516 0-.234-.109-.375-.265-.375-.266 0-.719.25-1.594.891l-.344.234.094.235.375-.25c.438-.282.484-.297.563-.297.14 0 .218.125.218.297 0 .61-.484 2.922-.984 4.625l.031.14.828-.187.25-1.219c.297-1.328.61-2.031 1.266-2.75.515-.547 1.047-.906 1.375-.906.094 0 .14.094.14.25 0 .422-.25 1.781-.75 3.875l-.203.797.063.14.828-.187.25-1.266c.188-.968.594-1.875 1.125-2.453C6.406-4.53 7-4.953 7.39-4.953c.094 0 .157.11.157.297 0 .297-.016.453-.297 1.5l-.516 1.875c-.093.343-.156.64-.156.906 0 .297.125.484.36.484.312 0 .734-.25 1.906-1.125m0 0"/><path id="k" d="m5.36-.937-.094-.235c-.438.36-.735.531-.922.531S4-.75 3.89-.984a4.8 4.8 0 0 1-.313-1.032l-.203-1.203.422-.578c.547-.781.875-1.062 1.25-1.062.187 0 .328.109.39.28l.172-.046.172-1.016c-.14-.078-.25-.125-.36-.125-.468 0-.952.438-1.687 1.532l-.453.656-.062-.563c-.14-1.187-.469-1.625-1.172-1.625-.313 0-.578.094-.688.25l-.687 1 .203.11c.36-.407.594-.563.828-.563.39 0 .656.485.86 1.657l.124.75-.468.734C1.703-1.031 1.297-.641.953-.641.781-.64.641-.687.625-.75l-.14-.344-.235.047c0 .234-.016.39-.094.766-.031.156-.031.187-.047.265.172.094.375.141.516.141.39 0 .86-.344 1.234-.906l.907-1.39.125.827C3.063-.328 3.328.125 3.75.125c.266 0 .656-.203 1.031-.547Zm0 0"/><path id="i" d="M4.11.031c-.032-.187-.032-.281-.032-.406 0-.11 0-.187.031-.39l-3.046.093 1.609-1.687c.844-.907 1.11-1.391 1.11-2.047 0-1.016-.688-1.64-1.798-1.64-.64 0-1.062.187-1.5.624l-.14 1.188h.25l.11-.407c.14-.5.468-.718 1.046-.718.75 0 1.234.468 1.234 1.218 0 .657-.359 1.297-1.359 2.36L.141-.203V.03C.78.016 1.453 0 2.094 0c.672 0 1.344.016 2.015.031m0 0"/><path id="j" d="M3.656.031v-.265l-.453-.032c-.484-.03-.562-.125-.562-.578v-5.203l-.125-.031a15 15 0 0 1-1.985.844l.063.375h.078c.39-.188.781-.36 1.156-.516.063 0 .078.078.078.281v4.25c0 .453-.093.547-.578.578l-.484.032V.03C1.328.016 1.813 0 2.28 0s.922.016 1.375.031m0 0"/></defs><path fill-rule="evenodd" d="M103.508 38.977a4.62 4.62 0 1 1-9.238 0 4.62 4.62 0 1 1 9.238 0"/><path fill="none" stroke="#000" stroke-miterlimit="10" stroke-width=".45" d="M103.508 38.977a4.62 4.62 0 1 1-9.238 0 4.62 4.62 0 1 1 9.238 0Zm0 0"/><path fill-rule="evenodd" d="M15.188 38.977a4.62 4.62 0 1 1-9.238 0 4.62 4.62 0 1 1 9.238 0"/><g clip-path="url(#a)"><path fill="none" stroke="#000" stroke-miterlimit="10" stroke-width=".45" d="M15.188 38.977a4.62 4.62 0 1 1-9.238 0 4.62 4.62 0 1 1 9.238 0Zm0 0"/></g><path fill-rule="evenodd" d="M129.727 38.977a4.62 4.62 0 1 1-9.239 0 4.62 4.62 0 1 1 9.238 0"/><path fill="none" stroke="#000" stroke-miterlimit="10" stroke-width=".45" d="M129.727 38.977a4.62 4.62 0 1 1-9.239 0 4.62 4.62 0 1 1 9.238 0Zm0 0"/><path fill-rule="evenodd" d="M41.348 38.977a4.62 4.62 0 1 1-9.238 0 4.62 4.62 0 1 1 9.238 0"/><path fill="none" stroke="#000" stroke-miterlimit="10" stroke-width=".45" d="M41.348 38.977a4.62 4.62 0 1 1-9.238 0 4.62 4.62 0 1 1 9.238 0Zm5.218-13.079h3.243l3.3-9.84 3.239 16.38 3.3-16.38 3.239 16.38 3.3-16.38 3.243 16.38 3.297-16.38 3.3 16.38 3.243-16.38 3.296 16.38 3.243-9.84h3.3m.001 16.379h45.777V9.516H89.109Zm0 0"/><g clip-path="url(#b)"><g clip-path="url(#c)"><path fill="none" stroke="#000" stroke-miterlimit="10" stroke-width=".45" d="M23.227 45.938h27"/></g></g><path fill="none" stroke="#000" stroke-miterlimit="10" stroke-width=".45" d="m42.43 49.059 7.199-3.121-7.2-3.18m70.798-1.32v9"/><g clip-path="url(#d)"><g clip-path="url(#e)"><path fill="none" stroke="#000" stroke-miterlimit="10" stroke-width=".45" d="M113.227 45.938h27"/></g></g><path fill="none" stroke="#000" stroke-miterlimit="10" stroke-width=".45" d="m132.43 49.059 7.199-3.121-7.2-3.18"/><g clip-path="url(#f)"><path fill="none" stroke="#000" stroke-miterlimit="10" stroke-width=".45" d="M.727 38.977h45.84V9.516H.726Zm0 0"/></g><path fill="none" stroke="#000" stroke-miterlimit="10" stroke-width=".45" d="M23.227 41.438v9"/><use xlink:href="#g" x="63.508" y="9.476"/><use xlink:href="#h" x="102.45" y="25.856"/><use xlink:href="#i" x="111.871" y="27.65"/><use xlink:href="#h" x="14.068" y="25.856"/><use xlink:href="#j" x="23.488" y="27.65"/><use xlink:href="#k" x="19.107" y="59.397"/><use xlink:href="#j" x="25.444" y="61.191"/><use xlink:href="#k" x="109.11" y="59.397"/><use xlink:href="#i" x="115.446" y="61.191"/></svg>