<svg xmlns="http://www.w3.org/2000/svg" width="56pt" height="152" viewBox="0 0 56 114"><defs><clipPath id="a"><path d="M0 72h56v41.535H0Zm0 0"/></clipPath><clipPath id="b"><path d="M4 40h52v73.535H4Zm0 0"/></clipPath></defs><path fill-rule="evenodd" d="M54.238 67.617a5.34 5.34 0 1 1-10.68 0 5.34 5.34 0 0 1 10.68 0"/><path fill="none" stroke="#000" stroke-miterlimit="10" stroke-width="1.8" d="M54.238 67.617a5.34 5.34 0 1 1-10.68 0 5.34 5.34 0 0 1 10.68 0Zm0 0"/><path fill-rule="evenodd" d="M37.078 104.996a7.2 7.2 0 0 1-7.2 7.2 7.2 7.2 0 0 1-7.198-7.2 7.2 7.2 0 1 1 14.399 0"/><g clip-path="url(#a)"><path fill="none" stroke="#000" stroke-miterlimit="10" stroke-width="1.8" d="M37.078 104.996a7.2 7.2 0 0 1-7.2 7.2 7.2 7.2 0 0 1-7.198-7.2 7.2 7.2 0 1 1 14.399 0Zm0 0"/></g><path fill="none" stroke="#000" stroke-miterlimit="10" stroke-width="1.8" d="m1.438 1.137 47.46 66.48"/><g clip-path="url(#b)"><path fill="none" stroke="#000" stroke-miterlimit="10" stroke-width="1.8" d="m48.418 66.238-18 40.5"/></g></svg>