<svg xmlns="http://www.w3.org/2000/svg" xmlns:xlink="http://www.w3.org/1999/xlink" width="228" height="163pt" viewBox="0 0 171 163"><defs><path id="h" d="M7.906-.078c-.718-1.313-1.297-2.766-1.89-4.156-.594-1.328-1.22-2.703-1.688-4.094h-.297C3.438-6.844 2.766-5.375 2.11-3.891 1.531-2.625.984-1.297.33-.078l.077.125C1.672 0 2.938 0 4.22 0c1.202 0 2.42.016 3.624.047Zm-1.484-.36H1.25a129 129 0 0 1 2.547-6.296h.094c.89 2.062 1.75 4.172 2.53 6.297m0 0"/><path id="j" d="M.781-4.14H7.22v-.72H.78Zm0 2.53H7.22v-.702H.78Zm0 0"/><path id="i" d="M6.125-1.016 6-1.234l-.312.203c-.297.187-.579.328-.735.328-.094 0-.14-.078-.14-.203 0-.156.03-.344.062-.485l1-4.265-.078-.11-.813.204-.125.609c-.171.906-.453 1.719-.812 2.266C3.344-1.594 2.39-.703 1.907-.703c-.11 0-.157-.11-.157-.313 0-.171.016-.312.078-.625l.688-3.234q.046-.281.046-.516c0-.234-.093-.375-.25-.375-.25 0-.703.25-1.593.891l-.344.234.094.235.375-.25c.344-.219.469-.266.578-.266.125 0 .203.11.203.234 0 .063-.016.157-.016.22L.844-.923c-.016.125-.047.39-.047.578 0 .266.187.469.422.469.75 0 2.203-1.328 3.203-2.984l-.438 1.703c-.093.297-.14.593-.14.781 0 .297.14.5.36.5.312 0 .75-.281 1.921-1.14m0 0"/><path id="n" d="m2.61-1.297-.172-.172c-.329.11-.532.172-1.172.36C1.187-.203.89.578.188 1.719l.171.14.485-.234c.969-1.25 1.422-2 1.765-2.922m0 0"/><path id="q" d="m5.953-5.11-.031-.062c-.344.078-.578.11-1.219.11-.203-.313-.312-.422-.61-.547a2.5 2.5 0 0 0-.812-.157c-.484 0-1.078.235-1.61.625C1-4.64.657-3.937.657-3.094c0 .922.532 1.469 1.453 1.469.11 0 .235 0 .36-.016l-.485.454c-.187.187-.328.406-.328.562 0 .125.094.25.25.39C1 .079.641.25.188.626a1.64 1.64 0 0 0-.625 1.281c0 .844.828 1.39 2.14 1.39 1.531 0 2.89-.858 2.89-1.843 0-.437-.25-.875-.765-1.281L3.11-.422c-.406-.312-.562-.547-.562-.766 0-.109.078-.234.25-.468.031-.047.047-.047.078-.094 1.172-.281 2.016-1.281 2.016-2.344 0-.11 0-.203-.032-.39l-.015-.032h.406c.203 0 .313-.015.594-.046ZM3.797 1.845c0 .625-.828 1.125-1.813 1.125C1 2.97.328 2.47.328 1.735c0-.453.203-.875.594-1.203.312-.25.578-.36 1.187-.547l.922.704c.547.437.766.765.766 1.156m.234-5.922c0 1.234-.578 2.062-1.406 2.062-.734 0-1.125-.484-1.125-1.421 0-1.141.61-1.922 1.484-1.922.704 0 1.047.437 1.047 1.28m0 0"/><path id="k" d="M5.563-4.375c0-2.625-.782-3.86-2.422-3.86-1.844 0-2.797 1.47-2.797 4.36 0 1.406.25 2.61.672 3.188.422.593 1.093.921 1.828.921 1.812 0 2.719-1.546 2.719-4.609m-1.016.594c0 2.547-.453 3.61-1.547 3.61-1.156 0-1.656-1.22-1.656-4.126 0-2.531.453-3.516 1.578-3.516 1.172 0 1.625 1.172 1.625 4.032m0 0"/><path id="m" d="M5 .031v-.36l-.625-.03c-.656-.032-.781-.172-.781-.782v-7.093l-.156-.063c-.782.406-1.626.766-2.72 1.156l.079.5h.125c.531-.234 1.047-.468 1.578-.703.063 0 .094.11.094.407v5.796c0 .61-.125.75-.781.782l-.672.03v.36C1.813.016 2.469 0 3.125 0c.61 0 1.25.016 1.875.031m0 0"/><path id="l" d="M3.64-9.031C1.813-7.844.72-5.797.72-3.234c0 2.343 1.14 4.578 2.875 5.78l.156-.202C2.094.906 1.813-.484 1.813-3.281c0-2.781.312-4.219 1.937-5.547Zm0 0"/><path id="p" d="m.5-9.031-.125.203C2.015-7.5 2.328-6.063 2.328-3.281c0 2.797-.281 4.187-1.953 5.625l.156.203c1.75-1.203 2.89-3.438 2.89-5.781 0-2.563-1.108-4.61-2.921-5.797m0 0"/><path id="o" d="M6.844-6.031c0-1.36-.39-2.36-1.907-2.36C1.829-8.39.845-4.92.845-2.375.844-.953 1.28.188 2.906.188c2.813 0 3.938-3.97 3.938-6.22m-.875-.157c0 .547-.094 1.094-.188 1.641H2.016c.28-1.25 1.156-3.531 2.703-3.531 1.031 0 1.25 1.078 1.25 1.89m-.25 2.016c-.266 1.344-.922 4.016-2.64 4.016C1.874-.156 1.75-1.5 1.75-2.422c0-.594.11-1.172.203-1.75Zm0 0"/><path id="r" d="M4.469-5.469c-.125-.093-.344-.14-.563-.14-.36 0-.734.187-.984.5l-.672.78v-1.234l-.11-.046a7.3 7.3 0 0 1-1.859.5v.328H.72c.469 0 .531.078.531.875v2.687c0 .75-.047.844-.453.86L.25-.33v.36C.734.016 1.234 0 1.719 0c.578 0 1.14.016 1.719.031v-.36l-.626-.03c-.546-.032-.562-.079-.562-.86V-3.28c0-.719.469-1.313 1.063-1.313.359 0 .609.172.796.547h.25Zm0 0"/><path id="s" d="M5.625.031v-.36l-.469-.015c-.281-.015-.328-.11-.328-.703v-2.187c0-1.735-.5-2.375-1.89-2.375-.516 0-.985.14-1.438.406l-.64.39v.766l.312.094.156-.375c.234-.563.375-.64.922-.64 1.125 0 1.594.437 1.625 1.53l-1.187.204C1.062-2.922.374-2.36.374-1.328.375-.391.938.14 1.891.14c.218 0 .422-.032.5-.094l1.484-1.03L3.813.03C4.125.016 4.437 0 4.75 0c.297 0 .578.016.875.031m-1.75-1.515c-.344.5-1.11.953-1.562.953-.485 0-.907-.453-.907-.969 0-.437.25-.86.61-1.078.297-.188.953-.344 1.859-.485Zm0 0"/><path id="t" d="M6.922.031v-.36l-.547-.03c-.406-.016-.453-.11-.453-.86v-7.36l-.094-.093c-.531.203-.922.297-1.875.438v.328h.672c.219 0 .297.14.297.5v2.187c-.672-.297-1-.39-1.422-.39-.328 0-.61.078-.906.234l-1.047.547C.859-4.468.422-3.594.422-2.578c0 .953.312 1.734.906 2.219.406.343.969.5 1.75.5.235 0 .5-.047.563-.094l1.328-1.11L4.906.032C5.22.016 5.516 0 5.828 0c.36 0 .734.016 1.094.031m-2-2.672c0 .782-.016.891-.172 1.172-.344.563-.922.938-1.484.938-1.047 0-1.813-1.016-1.813-2.438 0-1.312.656-2.078 1.719-2.078.469 0 .937.156 1.36.438.25.172.39.328.39.422Zm0 0"/><path id="u" d="M3.234.031v-.36l-.546-.03c-.407-.016-.438-.11-.438-.86v-4.343l-.11-.047a7.3 7.3 0 0 1-1.859.5v.328H.72c.469 0 .531.078.531.875v2.687c0 .75-.047.844-.453.86L.25-.33v.36c.5-.014 1-.03 1.5-.03s.984.016 1.484.031m-.89-7.64c0-.344-.235-.61-.594-.61-.36 0-.61.25-.61.61 0 .359.25.593.61.593s.594-.234.594-.593m0 0"/><path id="v" d="M6.938.031v-.36l-.485-.03c-.406-.016-.437-.094-.437-.86v-4.343l-.11-.047c-.61.25-1.234.422-1.86.5v.328h.438c.47 0 .532.078.532.875v1.953c0 .25-.172.594-.453.86a1.57 1.57 0 0 1-1.188.515c-.406 0-.75-.14-.937-.36-.172-.203-.25-.562-.25-1.093v-3.531l-.11-.047c-.61.25-1.234.422-1.86.5v.328h.438c.485 0 .532.078.532.875v2c0 .843.062 1.219.28 1.515.266.36.72.532 1.407.532.531 0 1.016-.172 1.328-.47l.813-.733c0 .343-.016.53-.063 1.093.344-.015.672-.031 1-.031s.656.016.984.031m0 0"/><path id="w" d="M4.672-1.766c0-.375-.094-.656-.328-.89-.313-.313-.703-.438-1.766-.64-.969-.188-1.297-.438-1.297-.985 0-.594.422-.938 1.14-.938.813 0 1.423.422 1.423.985v.28h.328c.016-.702.031-.983.062-1.358-.64-.204-1.062-.297-1.562-.297-1.375 0-2.234.656-2.234 1.734 0 .578.265.984.812 1.234.328.141.969.329 1.781.516.531.11.766.375.766.828 0 .64-.61 1.094-1.453 1.094-.875 0-1.5-.422-1.5-1.016v-.484h-.36C.484-.891.454-.531.36-.047.984.156 1.453.234 2 .234c1.563 0 2.672-.828 2.672-2m0 0"/><path id="x" d="M5 .031v-.36l-.625-.03c-.656-.032-.781-.172-.781-.782v-7.093l-.156-.063c-.782.406-1.626.766-2.72 1.156l.079.5h.125c.531-.234 1.047-.468 1.578-.703.063 0 .094.11.094.407v5.796c0 .61-.125.75-.781.782l-.672.03v.36C1.813.016 2.469 0 3.125 0c.61 0 1.25.016 1.875.031m0 0"/><clipPath id="a"><path d="M0 0h168v162.535H0Zm0 0"/></clipPath><clipPath id="b"><path d="M48 90h123v1H48Zm0 0"/></clipPath><clipPath id="c"><path d="M-.273-.465h172v163h-172Zm171.222 90.781v.84l-10.262 2.281 9-2.699-9-2.703Zm0 0" clip-rule="evenodd"/></clipPath><clipPath id="d"><path d="M71 0h1v114h-1Zm0 0"/></clipPath><clipPath id="e"><path d="M-.273-.465h172v163h-172Zm71.382.781h.84l2.278 10.262-2.7-9-2.699 9Zm0 0" clip-rule="evenodd"/></clipPath><clipPath id="f"><path d="M65 84h75v49H65Zm0 0"/></clipPath><clipPath id="g"><path d="M-.273-.465h172v163h-172Zm134.082 126.48-.422.66-8.098-3.058 7.14 2.04-5.402-5.16Zm-62.82-35.16.417-.66 8.102 3.063-7.14-2.04 5.402 5.157Zm0 0" clip-rule="evenodd"/></clipPath></defs><path fill="#e9e9e9" fill-rule="evenodd" d="M141.969 90.738c0 38.903-31.54 70.438-70.442 70.438S1.09 129.64 1.09 90.738s31.535-70.441 70.437-70.441 70.442 31.539 70.442 70.441"/><g clip-path="url(#a)"><path fill="none" stroke="#000" stroke-miterlimit="10" stroke-width="1.8" d="M141.969 90.738c0 38.903-31.54 70.438-70.442 70.438S1.09 129.64 1.09 90.738s31.535-70.441 70.437-70.441 70.442 31.539 70.442 70.441Zm0 0"/></g><g clip-path="url(#b)"><g clip-path="url(#c)"><path fill="none" stroke="#000" stroke-miterlimit="10" stroke-width=".45" d="M49.027 90.738h121.5"/></g></g><path fill="none" stroke="#000" stroke-miterlimit="10" stroke-width=".45" d="m160.688 88.035 9 2.703-9 2.7"/><g clip-path="url(#d)"><g clip-path="url(#e)"><path fill="none" stroke="#000" stroke-miterlimit="10" stroke-width=".45" d="M71.527 113.238V.738"/></g></g><path fill="none" stroke="#000" stroke-miterlimit="10" stroke-width=".45" d="m68.828 10.578 2.7-9 2.699 9"/><g clip-path="url(#f)"><g clip-path="url(#g)"><path fill="none" stroke="#000" stroke-miterlimit="10" stroke-width=".45" d="m71.527 90.738 61.743 35.399"/></g></g><path fill="none" stroke="#000" stroke-miterlimit="10" stroke-width=".45" d="m77.77 96.375-5.403-5.156 7.14 2.039m47.52 27.238 5.403 5.16-7.14-2.039"/><use xlink:href="#h" x="83.19" y="69.295"/><use xlink:href="#i" x="91.547" y="69.295"/><use xlink:href="#j" x="102.115" y="69.295"/><use xlink:href="#k" x="113.437" y="69.295"/><use xlink:href="#i" x="88.89" y="19.674"/><use xlink:href="#l" x="96.135" y="19.674"/><use xlink:href="#m" x="100.271" y="19.674"/><use xlink:href="#n" x="106.608" y="19.674"/><use xlink:href="#o" x="111.952" y="19.674"/><use xlink:href="#p" x="119.651" y="19.674"/><use xlink:href="#j" x="127.099" y="19.674"/><use xlink:href="#q" x="139.257" y="19.674"/><use xlink:href="#l" x="145.833" y="19.674"/><use xlink:href="#o" x="150.089" y="19.674"/><use xlink:href="#p" x="157.788" y="19.674"/><use xlink:href="#r" x="77.31" y="128.037"/><use xlink:href="#s" x="81.853" y="128.037"/><use xlink:href="#t" x="87.831" y="128.037"/><use xlink:href="#u" x="95.135" y="128.037"/><use xlink:href="#v" x="98.614" y="128.037"/><use xlink:href="#w" x="105.823" y="128.037"/><use xlink:href="#x" x="113.881" y="128.037"/></svg>