<svg xmlns="http://www.w3.org/2000/svg" xmlns:xlink="http://www.w3.org/1999/xlink" width="200pt" height="121pt" viewBox="0 0 200 121"><defs><path id="e" d="M3.64-9.031C1.813-7.844.72-5.797.72-3.234c0 2.343 1.14 4.578 2.875 5.78l.156-.202C2.094.906 1.813-.484 1.813-3.281c0-2.781.312-4.219 1.937-5.547Zm0 0"/><path id="h" d="m.5-9.031-.125.203C2.015-7.5 2.328-6.063 2.328-3.281c0 2.797-.281 4.187-1.953 5.625l.156.203c1.75-1.203 2.89-3.438 2.89-5.781 0-2.563-1.108-4.61-2.921-5.797m0 0"/><path id="f" d="M5.563-4.375c0-2.625-.782-3.86-2.422-3.86-1.844 0-2.797 1.47-2.797 4.36 0 1.406.25 2.61.672 3.188.422.593 1.093.921 1.828.921 1.812 0 2.719-1.546 2.719-4.609m-1.016.594c0 2.547-.453 3.61-1.547 3.61-1.156 0-1.656-1.22-1.656-4.126 0-2.531.453-3.516 1.578-3.516 1.172 0 1.625 1.172 1.625 4.032m0 0"/><path id="g" d="m2.61-1.297-.172-.172c-.329.11-.532.172-1.172.36C1.187-.203.89.578.188 1.719l.171.14.485-.234c.969-1.25 1.422-2 1.765-2.922m0 0"/><path id="i" d="m5.625-1.016-.11-.218-.312.203c-.344.234-.61.36-.734.36-.078 0-.157-.11-.157-.235s.016-.219.094-.485l.75-3.062c.078-.297.14-.672.14-.875 0-.266-.14-.438-.343-.438-.406 0-1.14.407-1.89 1.032-.422.343-.61.578-1.172 1.265l-.235.297 1.172-5.453-.156-.14c-.61.312-1.047.421-1.906.5l-.047.25h.578c.281 0 .406.093.406.296 0 .094-.016.203-.031.282l-.5 2.796C.844-2.828.375-.78.125-.03l.078.14.828-.187c.188-1.375.39-2.11.735-2.75.53-.969 1.765-2.125 2.28-2.125.157 0 .25.11.25.266 0 .218-.062.671-.171 1.062l-.61 2.344c-.109.437-.156.703-.156.922 0 .28.125.468.36.468.312 0 .734-.25 1.906-1.125m0 0"/><path id="j" d="M6.125-1.016 6-1.234l-.312.203c-.297.187-.579.328-.735.328-.094 0-.14-.078-.14-.203 0-.156.03-.344.062-.485l1-4.265-.078-.11-.813.204-.125.609c-.171.906-.453 1.719-.812 2.266C3.344-1.594 2.39-.703 1.907-.703c-.11 0-.157-.11-.157-.313 0-.171.016-.312.078-.625l.688-3.234q.046-.281.046-.516c0-.234-.093-.375-.25-.375-.25 0-.703.25-1.593.891l-.344.234.094.235.375-.25c.344-.219.469-.266.578-.266.125 0 .203.11.203.234 0 .063-.016.157-.016.22L.844-.923c-.016.125-.047.39-.047.578 0 .266.187.469.422.469.75 0 2.203-1.328 3.203-2.984l-.438 1.703c-.093.297-.14.593-.14.781 0 .297.14.5.36.5.312 0 .75-.281 1.921-1.14m0 0"/><path id="l" d="M4.938-8.61c-.204-.093-.547-.156-.844-.156a1.1 1.1 0 0 0-.407.094c-.296.125-1.265.86-1.546 1.14-.266.266-.407.626-.532 1.298l-.187.953a10 10 0 0 1-1.031.437l-.063.266h.969l-.11.672C.829-1.578.391.64.125 1.469c-.219.703-.562 1.078-1 1.078-.266 0-.422-.078-.625-.344l-.156.047c-.047.266-.219.844-.282.953a.9.9 0 0 0 .422.094c.485 0 1.141-.375 1.594-.938.735-.859.985-1.671 1.875-5.89.063-.297.156-.656.219-1.047h1.25c.047-.234.125-.5.203-.672l-.047-.078-.094.016c-.28.093-.406.093-1 .093h-.187l.25-1.343c.187-1.032.531-1.485 1.078-1.485.36 0 .672.188.86.469l.124-.047Zm0 0"/><path id="m" d="m5.36-.937-.094-.235c-.438.36-.735.531-.922.531S4-.75 3.89-.984a4.8 4.8 0 0 1-.313-1.032l-.203-1.203.422-.578c.547-.781.875-1.062 1.25-1.062.187 0 .328.109.39.28l.172-.046.172-1.016c-.14-.078-.25-.125-.36-.125-.468 0-.952.438-1.687 1.532l-.453.656-.062-.563c-.14-1.187-.469-1.625-1.172-1.625-.313 0-.578.094-.688.25l-.687 1 .203.11c.36-.407.594-.563.828-.563.39 0 .656.485.86 1.657l.124.75-.468.734C1.703-1.031 1.297-.641.953-.641.781-.64.641-.687.625-.75l-.14-.344-.235.047c0 .234-.016.39-.094.766-.031.156-.031.187-.047.265.172.094.375.141.516.141.39 0 .86-.344 1.234-.906l.907-1.39.125.827C3.063-.328 3.328.125 3.75.125c.266 0 .656-.203 1.031-.547Zm0 0"/><path id="n" d="M8.36-4.594c0-.672-.313-1.172-.75-1.172a.55.55 0 0 0-.391.141l-.594.563.125.234a.55.55 0 0 1 .328-.11c.328 0 .516.282.516.75 0 1.735-1.157 3.72-2.172 3.72-.36 0-.61-.47-.61-1.141a8.2 8.2 0 0 1 .25-1.86l.625-2.203-.078-.094-.89.266-.344 1.781a5.7 5.7 0 0 1-.656 1.86C3.234-.953 2.78-.47 2.422-.47c-.406 0-.688-.468-.688-1.156 0-1.422.485-2.578 1.672-3.922l-.125-.219c-.234.11-.39.141-.719.141-.5 0-.984-.047-1.468-.078-.157-.016-.25.031-.39.078-.173.328-.298.766-.454 1.422h.266l.203-.5c.078-.203.328-.344.61-.344.218 0 .437.031.671.031.25 0 .406-.015.703-.046-.11.156-.234.28-.36.421C1.267-3.375.86-2.516.86-1.5c0 .969.422 1.625 1.047 1.625.766 0 1.39-.656 2.282-2.36-.11.532-.141.829-.141 1.094 0 .766.344 1.266.875 1.266.969 0 2.219-1.203 2.969-2.844.265-.594.468-1.39.468-1.875m0 0"/><path id="k" d="M.781-4.14H7.22v-.72H.78Zm0 2.53H7.22v-.702H.78Zm0 0"/><path id="o" d="M7.906-.078c-.718-1.313-1.297-2.766-1.89-4.156-.594-1.328-1.22-2.703-1.688-4.094h-.297C3.438-6.844 2.766-5.375 2.11-3.891 1.531-2.625.984-1.297.33-.078l.077.125C1.672 0 2.938 0 4.22 0c1.202 0 2.42.016 3.624.047Zm-1.484-.36H1.25a129 129 0 0 1 2.547-6.296h.094c.89 2.062 1.75 4.172 2.53 6.297m0 0"/><clipPath id="a"><path d="M162 101h18v2h-18Zm0 0"/></clipPath><clipPath id="b"><path d="M-1.23-1.465h204v123h-204Zm180.777 103.242v.84l-10.258 2.281 9-2.703-9-2.699Zm0 0" clip-rule="evenodd"/></clipPath><clipPath id="c"><path d="M31 1h2v18h-2Zm0 0"/></clipPath><clipPath id="d"><path d="M-1.23-1.465h204v123h-204Zm32.878 2.98h.84l2.282 10.262-2.704-9-2.699 9Zm0 0" clip-rule="evenodd"/></clipPath></defs><path fill="#e9e9e9" fill-rule="evenodd" stroke="#000" stroke-miterlimit="10" stroke-width="1.8" d="M32.066 102.195h130.32v-83.52H32.067Zm0 0"/><g clip-path="url(#a)"><g clip-path="url(#b)"><path fill="none" stroke="#000" stroke-miterlimit="10" stroke-width=".45" d="M162.387 102.195h16.742"/></g></g><path fill="none" stroke="#000" stroke-miterlimit="10" stroke-width=".45" d="m169.29 99.496 9 2.7-9 2.702"/><g clip-path="url(#c)"><g clip-path="url(#d)"><path fill="none" stroke="#000" stroke-miterlimit="10" stroke-width=".45" d="M32.066 18.676V1.938"/></g></g><path fill="none" stroke="#000" stroke-miterlimit="10" stroke-width=".45" d="m29.367 11.777 2.7-9 2.703 9"/><use xlink:href="#e" x="-.332" y="117.157"/><use xlink:href="#f" x="3.804" y="117.157"/><use xlink:href="#g" x="10.141" y="117.157"/><use xlink:href="#f" x="15.365" y="117.157"/><use xlink:href="#h" x="21.343" y="117.157"/><use xlink:href="#e" x="-.332" y="9.155"/><use xlink:href="#f" x="3.804" y="9.155"/><use xlink:href="#g" x="10.141" y="9.155"/><use xlink:href="#i" x="16.082" y="9.155"/><use xlink:href="#h" x="22.658" y="9.155"/><use xlink:href="#j" x="-.213" y="60.456"/><use xlink:href="#k" x="10.355" y="60.456"/><use xlink:href="#f" x="21.677" y="60.456"/><use xlink:href="#j" x="172.531" y="58.776"/><use xlink:href="#k" x="183.099" y="58.776"/><use xlink:href="#f" x="194.421" y="58.776"/><use xlink:href="#j" x="80.789" y="117.157"/><use xlink:href="#k" x="91.357" y="117.157"/><use xlink:href="#l" x="104.472" y="117.157"/><use xlink:href="#e" x="110.008" y="117.157"/><use xlink:href="#m" x="114.503" y="117.157"/><use xlink:href="#h" x="121.078" y="117.157"/><use xlink:href="#e" x="166.173" y="117.157"/><use xlink:href="#n" x="170.429" y="117.157"/><use xlink:href="#g" x="180.017" y="117.157"/><use xlink:href="#f" x="185.242" y="117.157"/><use xlink:href="#h" x="191.219" y="117.157"/><use xlink:href="#j" x="85.289" y="10.955"/><use xlink:href="#k" x="95.857" y="10.955"/><use xlink:href="#f" x="107.179" y="10.955"/><use xlink:href="#e" x="166.172" y="9.155"/><use xlink:href="#n" x="170.428" y="9.155"/><use xlink:href="#g" x="180.016" y="9.155"/><use xlink:href="#i" x="185.958" y="9.155"/><use xlink:href="#h" x="192.533" y="9.155"/><use xlink:href="#o" x="80.669" y="60.456"/><use xlink:href="#j" x="89.026" y="60.456"/><use xlink:href="#k" x="99.594" y="60.456"/><use xlink:href="#f" x="110.916" y="60.456"/></svg>