<svg xmlns="http://www.w3.org/2000/svg" xmlns:xlink="http://www.w3.org/1999/xlink" width="184pt" height="116pt" viewBox="0 0 184 116"><defs><path id="l" d="M3.64-9.031C1.813-7.844.72-5.797.72-3.234c0 2.343 1.14 4.578 2.875 5.78l.156-.202C2.094.906 1.813-.484 1.813-3.281c0-2.781.312-4.219 1.937-5.547Zm0 0"/><path id="o" d="m.5-9.031-.125.203C2.015-7.5 2.328-6.063 2.328-3.281c0 2.797-.281 4.187-1.953 5.625l.156.203c1.75-1.203 2.89-3.438 2.89-5.781 0-2.563-1.108-4.61-2.921-5.797m0 0"/><path id="u" d="M7.219-2.875v-.703H.78v.703Zm0 0"/><path id="m" d="M5.563-4.375c0-2.625-.782-3.86-2.422-3.86-1.844 0-2.797 1.47-2.797 4.36 0 1.406.25 2.61.672 3.188.422.593 1.093.921 1.828.921 1.812 0 2.719-1.546 2.719-4.609m-1.016.594c0 2.547-.453 3.61-1.547 3.61-1.156 0-1.656-1.22-1.656-4.126 0-2.531.453-3.516 1.578-3.516 1.172 0 1.625 1.172 1.625 4.032m0 0"/><path id="n" d="m2.61-1.297-.172-.172c-.329.11-.532.172-1.172.36C1.187-.203.89.578.188 1.719l.171.14.485-.234c.969-1.25 1.422-2 1.765-2.922m0 0"/><path id="p" d="m3.172-1.187-.125-.22-.531.376c-.36.25-.594.36-.735.36-.093 0-.156-.095-.156-.235 0-.313.14-1.25.516-3.016l.156-.734h1.281l.125-.61c-.453.047-.86.079-1.312.079.187-1.125.328-1.704.53-2.36l-.124-.172c-.235.14-.563.282-.938.422l-.296 2.031c-.516.25-.829.391-1.047.454l-.032.156H1.5L.828-1.281c-.062.297-.156.593-.156.906 0 .297.125.484.36.484.421 0 .827-.234 1.765-1 .219-.156.14-.109.375-.296m0 0"/><path id="q" d="m5.86-5.656-.141-.11c-.344.141-.61.204-.875.235l-.422 1.578c-.14.562-.563 1.437-.953 2.015-.422.61-1 1.141-1.266 1.141-.265 0-.25-.578-.234-.734l.187-2.313c.016-.375.047-.828.047-1.172 0-.53-.094-.75-.297-.75-.156 0-.312.094-.89.485L.03-4.61l.14.203.595-.344c.062-.062.218-.156.297-.156.312 0 .265.61.25.812l-.204 2.907-.015.468c0 .5.218.844.515.844.454 0 1.454-1.016 2.344-2.36L3.375-.187c-.61 2.11-1.219 2.985-2.047 2.985a.737.737 0 0 1-.75-.735c0-.062.016-.156.031-.265L.484 1.75l-.562.406c-.016.078-.016.156-.016.203 0 .516.438.938.985.938 1.265 0 2.578-1.485 3.28-3.688Zm0 0"/><path id="s" d="m5.36-.937-.094-.235c-.438.36-.735.531-.922.531S4-.75 3.89-.984a4.8 4.8 0 0 1-.313-1.032l-.203-1.203.422-.578c.547-.781.875-1.062 1.25-1.062.187 0 .328.109.39.28l.172-.046.172-1.016c-.14-.078-.25-.125-.36-.125-.468 0-.952.438-1.687 1.532l-.453.656-.062-.563c-.14-1.187-.469-1.625-1.172-1.625-.313 0-.578.094-.688.25l-.687 1 .203.11c.36-.407.594-.563.828-.563.39 0 .656.485.86 1.657l.124.75-.468.734C1.703-1.031 1.297-.641.953-.641.781-.64.641-.687.625-.75l-.14-.344-.235.047c0 .234-.016.39-.094.766-.031.156-.031.187-.047.265.172.094.375.141.516.141.39 0 .86-.344 1.234-.906l.907-1.39.125.827C3.063-.328 3.328.125 3.75.125c.266 0 .656-.203 1.031-.547Zm0 0"/><path id="x" d="m7.297-1.234-.125-.079c-1.125.688-1.75.891-2.672.891-1.89 0-2.906-1.14-2.906-3.265 0-1.344.406-2.516 1.125-3.25.562-.579 1.328-.875 2.281-.875.86 0 1.469.171 2.14.609v1h.313c.063-.688.156-1.203.328-1.75-.922-.344-1.593-.484-2.328-.484a5 5 0 0 0-2.797.859C1.25-6.641.531-5.218.531-3.391.531-1.078 1.812.22 4.094.22 5.25.22 6.078-.061 7.172-.796Zm0 0"/><path id="r" d="M.781-4.14H7.22v-.72H.78Zm0 2.53H7.22v-.702H.78Zm0 0"/><path id="t" d="m2.328-.875-.094-.156-.39.281c-.266.188-.438.266-.532.266-.078 0-.125-.079-.125-.188 0-.219.11-.906.375-2.203l.125-.547h.938l.094-.437c-.328.03-.625.062-.969.062.14-.828.234-1.265.39-1.734l-.093-.125a7 7 0 0 1-.672.312l-.234 1.485a5 5 0 0 1-.766.328l-.016.11h.735L.609-.938C.563-.72.484-.5.484-.266c0 .22.11.344.266.344.313 0 .61-.172 1.297-.734.156-.11.11-.078.281-.219m0 0"/><path id="w" d="M3.938-.687 3.859-.86c-.312.265-.53.39-.671.39s-.25-.078-.344-.265a3.5 3.5 0 0 1-.219-.735l-.156-.89.312-.422c.406-.578.64-.781.922-.781.14 0 .235.078.281.203l.125-.032.141-.75a.5.5 0 0 0-.266-.078c-.359 0-.703.313-1.25 1.11l-.328.484-.047-.422C2.25-3.908 2.016-4.22 1.5-4.22c-.234 0-.422.063-.5.172l-.516.734.157.094c.265-.312.437-.422.609-.422.281 0 .484.36.625 1.22l.094.53-.344.547C1.25-.75.953-.469.703-.469c-.14 0-.234-.047-.25-.078L.36-.797l-.171.031c0 .172-.016.282-.079.563-.015.11-.015.14-.03.187a.73.73 0 0 0 .374.11c.297 0 .64-.25.906-.656l.672-1.032.094.61C2.25-.25 2.438.094 2.75.094c.188 0 .469-.14.75-.406Zm0 0"/><path id="v" d="M6.64-4.937c-.109-.172-.187-.375-.28-.547h-.126c-.171.812-.718 1.718-1.156 2.406l-.062-.031c0-.922.25-2.547-1.094-2.547-2.016 0-3.594 2.75-3.594 4.547C.328-.391.563.188 1.375.188c1.094 0 2.188-.954 2.875-1.75l.047.03c0 .391-.078 1.72.531 1.72.563 0 1.36-.829 1.703-1.188v-.094l-.062-.062H6.39c-.22.218-.5.5-.828.5-.532 0-.5-1.547-.5-1.922a16 16 0 0 0 1.578-2.36M4.282-1.953c-.5.61-1.453 1.625-2.312 1.625-.625 0-.766-.516-.766-1.047 0-1.047.844-3.844 2.14-3.844 1.032 0 .938 2.203.938 2.922Zm0 0"/><clipPath id="e"><path d="M34.977 4.438h144v94.5h-144Zm0 0"/></clipPath><clipPath id="c"><path d="M0 0h24v24H0Zm0 0"/></clipPath><clipPath id="b"><path d="M0 0h24v24H0z"/></clipPath><clipPath id="g"><path d="M34 0h2v113h-2Zm0 0"/></clipPath><clipPath id="h"><path d="M20.18 116.535h165v-118h-165ZM34.379-.665h1.258l2.043 11.282-2.703-9-2.7 9Zm0 0" clip-rule="evenodd"/></clipPath><clipPath id="i"><path d="M20.18 0H51v24H20.18Zm0 0"/></clipPath><clipPath id="j"><path d="M21 98h163v2H21Zm0 0"/></clipPath><clipPath id="k"><path d="M20.18 116.535h165v-118h-165Zm163.957-18.2v1.263l-11.34 2.039 9-2.7-9-2.699Zm0 0" clip-rule="evenodd"/></clipPath><pattern id="f" width="24" height="24" x="0" y="0" patternTransform="matrix(.99997 0 0 -.99997 20.178 116.537)" patternUnits="userSpaceOnUse" viewBox="0 0 24 24"><use xlink:href="#a"/></pattern><g id="a" clip-path="url(#b)"><g clip-path="url(#c)"><path fill="none" stroke="#ededed" stroke-miterlimit="10" d="m1-1 24 24M-1 5l20 20M9-1l16 16m-26-2 12 12m6-26 8 8M-1 21l4 4"/></g></g></defs><path fill="#fff" d="M34.977 98.938h144v-94.5h-144Zm0 0"/><g clip-path="url(#e)"><path fill="url(#f)" d="M34.977 98.938h144v-94.5h-144Zm0 0"/></g><path fill="#eee" fill-rule="evenodd" d="M34.977 98.938h139.5v-90h-139.5Zm0 0"/><g clip-path="url(#g)"><g clip-path="url(#h)"><path fill="none" stroke="#000" stroke-miterlimit="10" stroke-width=".9" d="M34.977 112.438V-.062"/></g></g><g clip-path="url(#i)"><path fill="none" stroke="#000" stroke-miterlimit="10" stroke-width=".9" d="m32.277 10.617 2.7-9 2.703 9"/></g><g clip-path="url(#j)"><g clip-path="url(#k)"><path fill="none" stroke="#000" stroke-miterlimit="10" stroke-width=".9" d="M21.477 98.938h162"/></g></g><path fill="none" stroke="#000" stroke-miterlimit="10" stroke-width=".9" d="m172.797 96.238 9 2.7-9 2.699"/><use xlink:href="#l" x="4.691" y="112.397"/><use xlink:href="#m" x="8.827" y="112.397"/><use xlink:href="#n" x="15.164" y="112.397"/><use xlink:href="#m" x="20.388" y="112.397"/><use xlink:href="#o" x="26.366" y="112.397"/><use xlink:href="#p" x="25.8" y="13.395"/><use xlink:href="#q" x="89.203" y="112.397"/><use xlink:href="#r" x="99.102" y="112.397"/><use xlink:href="#m" x="110.423" y="112.397"/><use xlink:href="#s" x="170.355" y="112.397"/><use xlink:href="#q" x="76.362" y="53.896"/><use xlink:href="#t" x="82.546" y="55.689"/><use xlink:href="#r" x="89.811" y="53.896"/><use xlink:href="#u" x="101.133" y="53.896"/><use xlink:href="#v" x="109.489" y="53.896"/><use xlink:href="#q" x="117.559" y="53.896"/><use xlink:href="#w" x="123.916" y="55.689"/><use xlink:href="#q" x=".353" y="53.896"/><use xlink:href="#r" x="10.252" y="53.896"/><use xlink:href="#x" x="21.813" y="53.896"/></svg>