<svg xmlns="http://www.w3.org/2000/svg" xmlns:xlink="http://www.w3.org/1999/xlink" width="544" height="116pt" viewBox="0 0 408 116"><defs><path id="o" d="M3.64-9.031C1.813-7.844.72-5.797.72-3.234c0 2.343 1.14 4.578 2.875 5.78l.156-.202C2.094.906 1.813-.484 1.813-3.281c0-2.781.312-4.219 1.937-5.547Zm0 0"/><path id="r" d="m.5-9.031-.125.203C2.015-7.5 2.328-6.063 2.328-3.281c0 2.797-.281 4.187-1.953 5.625l.156.203c1.75-1.203 2.89-3.438 2.89-5.781 0-2.563-1.108-4.61-2.921-5.797m0 0"/><path id="w" d="M7.219-2.875v-.703H.78v.703Zm0 0"/><path id="x" d="M7.281-2.906v-.672H4.344V-6.5h-.657v2.922H.75v.672h2.938V.03h.656v-2.937Zm0 0"/><path id="p" d="M5.563-4.375c0-2.625-.782-3.86-2.422-3.86-1.844 0-2.797 1.47-2.797 4.36 0 1.406.25 2.61.672 3.188.422.593 1.093.921 1.828.921 1.812 0 2.719-1.546 2.719-4.609m-1.016.594c0 2.547-.453 3.61-1.547 3.61-1.156 0-1.656-1.22-1.656-4.126 0-2.531.453-3.516 1.578-3.516 1.172 0 1.625 1.172 1.625 4.032m0 0"/><path id="y" d="M5 .031v-.36l-.625-.03c-.656-.032-.781-.172-.781-.782v-7.093l-.156-.063c-.782.406-1.626.766-2.72 1.156l.079.5h.125c.531-.234 1.047-.468 1.578-.703.063 0 .094.11.094.407v5.796c0 .61-.125.75-.781.782l-.672.03v.36C1.813.016 2.469 0 3.125 0c.61 0 1.25.016 1.875.031m0 0"/><path id="N" d="M4.672-1.766c0-.375-.094-.656-.328-.89-.313-.313-.703-.438-1.766-.64-.969-.188-1.297-.438-1.297-.985 0-.594.422-.938 1.14-.938.813 0 1.423.422 1.423.985v.28h.328c.016-.702.031-.983.062-1.358-.64-.204-1.062-.297-1.562-.297-1.375 0-2.234.656-2.234 1.734 0 .578.265.984.812 1.234.328.141.969.329 1.781.516.531.11.766.375.766.828 0 .64-.61 1.094-1.453 1.094-.875 0-1.5-.422-1.5-1.016v-.484h-.36C.484-.891.454-.531.36-.047.984.156 1.453.234 2 .234c1.563 0 2.672-.828 2.672-2m0 0"/><path id="O" d="M3.234.031v-.36l-.546-.03c-.407-.016-.438-.11-.438-.86v-4.343l-.11-.047a7.3 7.3 0 0 1-1.859.5v.328H.72c.469 0 .531.078.531.875v2.687c0 .75-.047.844-.453.86L.25-.33v.36c.5-.014 1-.03 1.5-.03s.984.016 1.484.031m-.89-7.64c0-.344-.235-.61-.594-.61-.36 0-.61.25-.61.61 0 .359.25.593.61.593s.594-.234.594-.593m0 0"/><path id="P" d="M6.844.031v-.36l-.5-.03c-.407-.016-.438-.094-.438-.86V-3.53c0-1.39-.656-2.078-2-2.078-.437 0-.687.093-.937.297l-.906.796v-1.046l-.11-.047c-.61.25-1.234.422-1.875.5v.328h.453c.469 0 .516.078.516.875v2.687c0 .75-.031.844-.438.86l-.53.03v.36A45 45 0 0 1 1.546 0c.5 0 1 .016 1.484.031v-.36L2.5-.358c-.406-.016-.437-.11-.437-.86V-3.75c0-.547.78-1.125 1.515-1.125.797 0 1.328.594 1.328 1.516V.03C5.22.016 5.531 0 5.844 0c.343 0 .656.016 1 .031m0 0"/><path id="q" d="m2.61-1.297-.172-.172c-.329.11-.532.172-1.172.36C1.187-.203.89.578.188 1.719l.171.14.485-.234c.969-1.25 1.422-2 1.765-2.922m0 0"/><path id="s" d="m3.172-1.187-.125-.22-.531.376c-.36.25-.594.36-.735.36-.093 0-.156-.095-.156-.235 0-.313.14-1.25.516-3.016l.156-.734h1.281l.125-.61c-.453.047-.86.079-1.312.079.187-1.125.328-1.704.53-2.36l-.124-.172c-.235.14-.563.282-.938.422l-.296 2.031c-.516.25-.829.391-1.047.454l-.032.156H1.5L.828-1.281c-.062.297-.156.593-.156.906 0 .297.125.484.36.484.421 0 .827-.234 1.765-1 .219-.156.14-.109.375-.296m0 0"/><path id="t" d="m5.86-5.656-.141-.11c-.344.141-.61.204-.875.235l-.422 1.578c-.14.562-.563 1.437-.953 2.015-.422.61-1 1.141-1.266 1.141-.265 0-.25-.578-.234-.734l.187-2.313c.016-.375.047-.828.047-1.172 0-.53-.094-.75-.297-.75-.156 0-.312.094-.89.485L.03-4.61l.14.203.595-.344c.062-.062.218-.156.297-.156.312 0 .265.61.25.812l-.204 2.907-.015.468c0 .5.218.844.515.844.454 0 1.454-1.016 2.344-2.36L3.375-.187c-.61 2.11-1.219 2.985-2.047 2.985a.737.737 0 0 1-.75-.735c0-.062.016-.156.031-.265L.484 1.75l-.562.406c-.016.078-.016.156-.016.203 0 .516.438.938.985.938 1.265 0 2.578-1.485 3.28-3.688Zm0 0"/><path id="v" d="m5.36-.937-.094-.235c-.438.36-.735.531-.922.531S4-.75 3.89-.984a4.8 4.8 0 0 1-.313-1.032l-.203-1.203.422-.578c.547-.781.875-1.062 1.25-1.062.187 0 .328.109.39.28l.172-.046.172-1.016c-.14-.078-.25-.125-.36-.125-.468 0-.952.438-1.687 1.532l-.453.656-.062-.563c-.14-1.187-.469-1.625-1.172-1.625-.313 0-.578.094-.688.25l-.687 1 .203.11c.36-.407.594-.563.828-.563.39 0 .656.485.86 1.657l.124.75-.468.734C1.703-1.031 1.297-.641.953-.641.781-.64.641-.687.625-.75l-.14-.344-.235.047c0 .234-.016.39-.094.766-.031.156-.031.187-.047.265.172.094.375.141.516.141.39 0 .86-.344 1.234-.906l.907-1.39.125.827C3.063-.328 3.328.125 3.75.125c.266 0 .656-.203 1.031-.547Zm0 0"/><path id="u" d="M.781-4.14H7.22v-.72H.78Zm0 2.53H7.22v-.702H.78Zm0 0"/><path id="z" d="M3.234.031v-.36l-.546-.03c-.407-.016-.438-.11-.438-.86v-4.343l-.11-.047a7.3 7.3 0 0 1-1.859.5v.328H.72c.469 0 .531.078.531.875v2.687c0 .75-.047.844-.453.86L.25-.33v.36c.5-.014 1-.03 1.5-.03s.984.016 1.484.031m-.89-7.64c0-.344-.235-.61-.594-.61-.36 0-.61.25-.61.61 0 .359.25.593.61.593s.594-.234.594-.593m0 0"/><path id="A" d="M4.672-1.766c0-.375-.094-.656-.328-.89-.313-.313-.703-.438-1.766-.64-.969-.188-1.297-.438-1.297-.985 0-.594.422-.938 1.14-.938.813 0 1.423.422 1.423.985v.28h.328c.016-.702.031-.983.062-1.358-.64-.204-1.062-.297-1.562-.297-1.375 0-2.234.656-2.234 1.734 0 .578.265.984.812 1.234.328.141.969.329 1.781.516.531.11.766.375.766.828 0 .64-.61 1.094-1.453 1.094-.875 0-1.5-.422-1.5-1.016v-.484h-.36C.484-.891.454-.531.36-.047.984.156 1.453.234 2 .234c1.563 0 2.672-.828 2.672-2m0 0"/><path id="B" d="m4.938-.547-.125-.187c-.438.25-.813.359-1.25.359-1.329 0-2.204-1.031-2.204-2.61 0-1.28.594-2 1.672-2 .531 0 1.11.235 1.313.532l.093.734h.329c0-.547.062-1.031.172-1.469-.485-.28-.891-.421-1.391-.421-.578 0-1.235.234-1.953.687C.75-4.406.313-3.562.313-2.516c0 1.625 1.14 2.75 2.734 2.75.625 0 1.515-.218 1.64-.406Zm0 0"/><path id="C" d="M6.14-2.828c0-1.625-1.171-2.781-2.812-2.781C1.594-5.61.375-4.375.375-2.594.375-.906 1.453.234 2.985.234c1.843 0 3.156-1.28 3.156-3.062m-1.109.437c0 1.375-.61 2.235-1.578 2.235C2.281-.156 1.5-1.296 1.5-3c0-1.437.563-2.219 1.625-2.219 1.094 0 1.906 1.203 1.906 2.828m0 0"/><path id="D" d="M6.844.031v-.36l-.5-.03c-.407-.016-.438-.094-.438-.86V-3.53c0-1.39-.656-2.078-2-2.078-.437 0-.687.093-.937.297l-.906.796v-1.046l-.11-.047c-.61.25-1.234.422-1.875.5v.328h.453c.469 0 .516.078.516.875v2.687c0 .75-.031.844-.438.86l-.53.03v.36A45 45 0 0 1 1.546 0c.5 0 1 .016 1.484.031v-.36L2.5-.358c-.406-.016-.437-.11-.437-.86V-3.75c0-.547.78-1.125 1.515-1.125.797 0 1.328.594 1.328 1.516V.03C5.22.016 5.531 0 5.844 0c.343 0 .656.016 1 .031m0 0"/><path id="E" d="m3.813-5.219-1.641.078v-.453c0-.5.047-.937.14-1.703l-.156-.125c-.281.172-.64.328-1.015.453.046.36.046.578.046.938v.843l-.921.422v.25l.906-.046v3.437c0 .89.39 1.266 1.312 1.266.282 0 .563-.063.641-.141l.563-.64-.157-.204c-.297.172-.469.235-.703.235-.469 0-.656-.235-.656-.828v-3.125h1.531Zm0 0"/><path id="F" d="M5.625.031v-.36l-.469-.015c-.281-.015-.328-.11-.328-.703v-2.187c0-1.735-.5-2.375-1.89-2.375-.516 0-.985.14-1.438.406l-.64.39v.766l.312.094.156-.375c.234-.563.375-.64.922-.64 1.125 0 1.594.437 1.625 1.53l-1.187.204C1.062-2.922.374-2.36.374-1.328.375-.391.938.14 1.891.14c.218 0 .422-.032.5-.094l1.484-1.03L3.813.03C4.125.016 4.437 0 4.75 0c.297 0 .578.016.875.031m-1.75-1.515c-.344.5-1.11.953-1.562.953-.485 0-.907-.453-.907-.969 0-.437.25-.86.61-1.078.297-.188.953-.344 1.859-.485Zm0 0"/><path id="G" d="M3.234.031v-.36l-.546-.03c-.407-.016-.438-.11-.438-.86v-7.36l-.11-.093c-.53.203-.921.297-1.859.438v.328h.657c.218 0 .312.14.312.5v6.187c0 .75-.047.844-.453.86L.25-.33v.36c.5-.014 1-.03 1.5-.03s.984.016 1.484.031m0 0"/><path id="H" d="m6.5-5.016-.047-.14-1.703.047c-.437-.36-.86-.5-1.453-.5-.531 0-1.14.172-1.625.453C1-4.766.656-4.188.656-3.453c0 .89.547 1.5 1.438 1.594l-.953.718c-.11.188-.172.344-.172.516 0 .344.219.531.781.703L.719.641c-.172.093-.344.53-.344.906 0 1.078 1.078 1.828 2.594 1.828 1.797 0 3.219-1.125 3.219-2.594 0-.86-.563-1.453-1.407-1.453H2.875c-.625 0-.922-.14-.922-.469 0-.156.11-.28.406-.546.079-.063.11-.079.157-.125.109 0 .187.015.28.015.517 0 1.142-.219 1.642-.562.53-.407.796-.875.796-1.516 0-.234-.03-.39-.125-.64h1.094Zm-2.266 1.5c0 .782-.5 1.313-1.234 1.313-.797 0-1.344-.625-1.344-1.531 0-.922.453-1.47 1.219-1.47.813 0 1.36.673 1.36 1.688M5.25 1.22c0 1.031-.953 1.797-2.203 1.797-1.031 0-1.75-.61-1.75-1.5 0-.532.312-1.016.781-1.235.188-.078.531-.11 1.36-.11C4.78.172 5.25.438 5.25 1.22m0 0"/><path id="I" d="M6.844.031v-.36l-.5-.03c-.407-.016-.438-.094-.438-.86V-3.53c0-1.39-.656-2.078-2-2.078-.437 0-.687.093-.937.297l-.906.796v-4.062l-.11-.094c-.531.203-.922.297-1.875.438v.328H.75c.219 0 .297.14.297.5v6.187c0 .75-.031.844-.438.86l-.53.03v.36A45 45 0 0 1 1.546 0c.5 0 1 .016 1.484.031v-.36L2.5-.358c-.406-.016-.437-.11-.437-.86V-3.75c0-.547.78-1.125 1.515-1.125.797 0 1.328.594 1.328 1.516V.03C5.22.016 5.531 0 5.844 0c.343 0 .656.016 1 .031m0 0"/><path id="J" d="M4.469-5.469c-.125-.093-.344-.14-.563-.14-.36 0-.734.187-.984.5l-.672.78v-1.234l-.11-.046a7.3 7.3 0 0 1-1.859.5v.328H.72c.469 0 .531.078.531.875v2.687c0 .75-.047.844-.453.86L.25-.33v.36C.734.016 1.234 0 1.719 0c.578 0 1.14.016 1.719.031v-.36l-.626-.03c-.546-.032-.562-.079-.562-.86V-3.28c0-.719.469-1.313 1.063-1.313.359 0 .609.172.796.547h.25Zm0 0"/><path id="K" d="M5.36-3.328c0-1.375-.891-2.281-2.235-2.281-.437 0-.953.156-1.437.453C.703-4.61.313-3.86.313-2.625c0 .766.171 1.406.5 1.86.468.64 1.28 1 2.171 1 .454 0 .891-.094 1.375-.313.329-.125.579-.281.625-.36l.235-.406-.157-.11c-.765.454-1.03.563-1.546.563-.782 0-1.422-.343-1.766-.937-.219-.39-.297-.734-.328-1.422h1.75c.828 0 1.328-.031 2.156-.172.016-.156.031-.265.031-.406m-1.063.14-1.344.032c-.547 0-.86-.016-1.5-.078 0-.563.047-.813.203-1.125a1.47 1.47 0 0 1 1.328-.86c.391 0 .704.157.922.485.266.39.39.734.39 1.547m0 0"/><path id="L" d="M6.938.031v-.36l-.485-.03c-.406-.016-.437-.094-.437-.86v-4.343l-.11-.047c-.61.25-1.234.422-1.86.5v.328h.438c.47 0 .532.078.532.875v1.953c0 .25-.172.594-.453.86a1.57 1.57 0 0 1-1.188.515c-.406 0-.75-.14-.937-.36-.172-.203-.25-.562-.25-1.093v-3.531l-.11-.047c-.61.25-1.234.422-1.86.5v.328h.438c.485 0 .532.078.532.875v2c0 .843.062 1.219.28 1.515.266.36.72.532 1.407.532.531 0 1.016-.172 1.328-.47l.813-.733c0 .343-.016.53-.063 1.093.344-.015.672-.031 1-.031s.656.016.984.031m0 0"/><path id="M" d="M6.438-5.156v-.328c-.36.015-.75.03-1.125.03-.36 0-.75-.015-1.11-.03v.328l.484.031c.204.016.297.11.297.313s-.078.468-.234.875l-.5 1.265L3.5-1 2.078-4.453a1 1 0 0 1-.094-.406c0-.157.079-.25.282-.266l.593-.031v-.328c-.468.015-.937.03-1.406.03s-.922-.015-1.375-.03v.328l.406.031c.204.016.25.11.36.39L2.906.079H3.5c.078-.39.25-.765.5-1.297l1.406-3.11c.266-.609.422-.78.672-.796Zm0 0"/><clipPath id="e"><path d="M136.246 4.438h144v94.5h-144Zm0 0"/></clipPath><clipPath id="c"><path d="M0 0h24v24H0Zm0 0"/></clipPath><clipPath id="b"><path d="M0 0h24v24H0z"/></clipPath><clipPath id="g"><path d="M212 79h91v16h-91Zm0 0"/></clipPath><clipPath id="h"><path d="M76.848 116.535h232v-118h-232Zm135.84-21.5-.54-.66 5.7-6.598-4.32 6 6.66-3.242Zm0 0" clip-rule="evenodd"/></clipPath><clipPath id="i"><path d="M82 23h50v5H82Zm0 0"/></clipPath><clipPath id="j"><path d="M76.848 116.535h232v-118h-232Zm55.379-89.957-.122.84-8.757-.063 7.437-.597-6.84-2.942Zm0 0" clip-rule="evenodd"/></clipPath><clipPath id="k"><path d="M135 0h2v113h-2Zm0 0"/></clipPath><clipPath id="l"><path d="M76.848 116.535h232v-118h-232Zm58.8-117.2h1.258l2.04 11.282-2.7-9-2.7 9Zm0 0" clip-rule="evenodd"/></clipPath><clipPath id="m"><path d="M122 98h164v2H122Zm0 0"/></clipPath><clipPath id="n"><path d="M76.848 116.535h232v-118h-232Zm208.558-18.2v1.263l-11.34 2.039 9-2.7-9-2.699Zm0 0" clip-rule="evenodd"/></clipPath><pattern id="f" width="24" height="24" x="0" y="0" patternTransform="matrix(.99997 0 0 -.99997 76.847 116.537)" patternUnits="userSpaceOnUse" viewBox="0 0 24 24"><use xlink:href="#a"/></pattern><g id="a" clip-path="url(#b)"><g clip-path="url(#c)"><path fill="none" stroke="#ededed" stroke-miterlimit="10" d="m1-1 24 24M-1 5l20 20M9-1l16 16m-26-2 12 12m6-26 8 8M-1 21l4 4"/></g></g></defs><path fill="#fff" d="M136.246 98.938h144v-94.5h-144Zm0 0"/><g clip-path="url(#e)"><path fill="url(#f)" d="M136.246 98.938h144v-94.5h-144Zm0 0"/></g><path fill="#eee" fill-rule="evenodd" d="M136.246 98.938h139.5v-90h-139.5Zm0 0"/><path fill-rule="evenodd" d="M138.406 26.938a2.16 2.16 0 1 1-4.32 0 2.16 2.16 0 0 1 4.32 0"/><path fill="none" stroke="#000" stroke-miterlimit="10" stroke-width=".45" d="M138.406 26.938a2.16 2.16 0 1 1-4.32 0 2.16 2.16 0 0 1 4.32 0Zm0 0"/><path fill-rule="evenodd" d="M210.406 98.938a2.16 2.16 0 1 1-4.32 0 2.16 2.16 0 0 1 4.32 0"/><path fill="none" stroke="#000" stroke-miterlimit="10" stroke-width=".45" d="M210.406 98.938a2.16 2.16 0 1 1-4.32 0 2.16 2.16 0 0 1 4.32 0Zm0 0"/><path fill="none" stroke="#000" stroke-miterlimit="10" stroke-width=".9" d="m136.246 26.938 72 72"/><g clip-path="url(#g)"><g clip-path="url(#h)"><path fill="none" stroke="#000" stroke-linejoin="bevel" stroke-miterlimit="10" stroke-width=".45" d="M302.746 80.938h-.418l-.601-.063-.84-.059-1.258-.058-1.563-.063-1.918-.117-2.28-.062-2.583-.118-2.816-.18-3-.12-6.242-.243-3.18-.117-3.121-.12-3.059-.122-2.879-.058-2.82-.063-2.64-.059-2.52-.058h-4.563l-2.039.058h-1.918l-1.8.059-1.743.121-1.558.063-1.5.117-1.442.18-1.379.12-1.32.243-1.8.297-1.739.3-1.68.422-1.558.48-1.563.54-1.5.597-1.558.723-1.5.777-1.563.903-1.558.96-1.559 1.02-1.563 1.078-1.558 1.082-1.442 1.079-1.32 1.02-1.137.901-.902.778-1.5 1.261"/></g></g><path fill="none" stroke="#000" stroke-miterlimit="10" stroke-width=".45" d="m220.188 90.535-6.66 3.242 4.32-6"/><g clip-path="url(#i)"><g clip-path="url(#j)"><path fill="none" stroke="#000" stroke-linejoin="bevel" stroke-miterlimit="10" stroke-width=".45" d="M82.246 26.938h.063l.18-.063.48-.059.84-.18 1.257-.179 1.563-.3 1.738-.302 1.918-.296 1.922-.301 1.8-.301 1.802-.238 1.617-.242 1.5-.18 1.441-.121 1.32-.117 1.32-.063 1.259-.058h2.402l1.14.058 1.2.063 1.258.058 1.382.121 1.438.117 1.562.18 1.739.242 1.8.18 1.918.3 1.98.24 1.981.3 1.922.3 1.739.239 1.5.18 2.52.422"/></g></g><path fill="none" stroke="#000" stroke-miterlimit="10" stroke-width=".45" d="m123.945 23.816 6.84 2.942-7.437.597"/><g clip-path="url(#k)"><g clip-path="url(#l)"><path fill="none" stroke="#000" stroke-miterlimit="10" stroke-width=".9" d="M136.246 112.438V-.062"/></g></g><path fill="none" stroke="#000" stroke-miterlimit="10" stroke-width=".9" d="m133.547 10.617 2.7-9 2.698 9"/><g clip-path="url(#m)"><g clip-path="url(#n)"><path fill="none" stroke="#000" stroke-miterlimit="10" stroke-width=".9" d="M122.746 98.938h162"/></g></g><path fill="none" stroke="#000" stroke-miterlimit="10" stroke-width=".9" d="m274.066 96.238 9 2.7-9 2.699"/><use xlink:href="#o" x="105.941" y="112.397"/><use xlink:href="#p" x="110.077" y="112.397"/><use xlink:href="#q" x="116.414" y="112.397"/><use xlink:href="#p" x="121.638" y="112.397"/><use xlink:href="#r" x="127.616" y="112.397"/><use xlink:href="#s" x="127.05" y="13.395"/><use xlink:href="#t" x="190.453" y="112.397"/><use xlink:href="#u" x="200.352" y="112.397"/><use xlink:href="#p" x="211.673" y="112.397"/><use xlink:href="#v" x="271.605" y="112.397"/><use xlink:href="#s" x="154.369" y="40.396"/><use xlink:href="#u" x="162.391" y="40.396"/><use xlink:href="#w" x="173.713" y="40.396"/><use xlink:href="#v" x="182.069" y="40.396"/><use xlink:href="#x" x="191.299" y="40.396"/><use xlink:href="#y" x="201.951" y="40.396"/><use xlink:href="#t" x="181.847" y="62.896"/><use xlink:href="#z" x="191.411" y="62.896"/><use xlink:href="#A" x="194.89" y="62.896"/><use xlink:href="#B" x="202.948" y="62.896"/><use xlink:href="#C" x="208.256" y="62.896"/><use xlink:href="#D" x="214.784" y="62.896"/><use xlink:href="#A" x="221.742" y="62.896"/><use xlink:href="#E" x="226.631" y="62.896"/><use xlink:href="#F" x="230.529" y="62.896"/><use xlink:href="#D" x="236.506" y="62.896"/><use xlink:href="#E" x="243.464" y="62.896"/><use xlink:href="#F" x="250.35" y="62.896"/><use xlink:href="#G" x="256.328" y="62.896"/><use xlink:href="#C" x="259.807" y="62.896"/><use xlink:href="#D" x="266.334" y="62.896"/><use xlink:href="#H" x="273.292" y="62.896"/><use xlink:href="#E" x="282.928" y="62.896"/><use xlink:href="#I" x="287.005" y="62.896"/><use xlink:href="#z" x="293.963" y="62.896"/><use xlink:href="#A" x="297.442" y="62.896"/><use xlink:href="#B" x="305.5" y="62.896"/><use xlink:href="#I" x="310.808" y="62.896"/><use xlink:href="#F" x="317.766" y="62.896"/><use xlink:href="#J" x="323.743" y="62.896"/><use xlink:href="#F" x="328.286" y="62.896"/><use xlink:href="#B" x="334.264" y="62.896"/><use xlink:href="#E" x="339.572" y="62.896"/><use xlink:href="#K" x="343.469" y="62.896"/><use xlink:href="#J" x="349.196" y="62.896"/><use xlink:href="#z" x="353.918" y="62.896"/><use xlink:href="#A" x="357.397" y="62.896"/><use xlink:href="#E" x="362.287" y="62.896"/><use xlink:href="#z" x="366.184" y="62.896"/><use xlink:href="#B" x="369.663" y="62.896"/><use xlink:href="#B" x="377.96" y="62.896"/><use xlink:href="#L" x="383.268" y="62.896"/><use xlink:href="#J" x="390.477" y="62.896"/><use xlink:href="#M" x="395.439" y="62.896"/><use xlink:href="#K" x="401.715" y="62.896"/><use xlink:href="#t" x=".969" y="31.395"/><use xlink:href="#o" x="7.544" y="31.395"/><use xlink:href="#p" x="11.681" y="31.395"/><use xlink:href="#q" x="18.017" y="31.395"/><use xlink:href="#y" x="23.242" y="31.395"/><use xlink:href="#r" x="29.219" y="31.395"/><use xlink:href="#u" x="36.667" y="31.395"/><use xlink:href="#N" x="47.989" y="31.395"/><use xlink:href="#O" x="53.058" y="31.395"/><use xlink:href="#P" x="56.537" y="31.395"/><use xlink:href="#o" x="63.495" y="31.395"/><use xlink:href="#y" x="67.631" y="31.395"/><use xlink:href="#r" x="73.609" y="31.395"/><use xlink:href="#t" x="307.85" y="85.397"/><use xlink:href="#o" x="314.425" y="85.397"/><use xlink:href="#y" x="318.562" y="85.397"/><use xlink:href="#q" x="324.898" y="85.397"/><use xlink:href="#p" x="330.123" y="85.397"/><use xlink:href="#r" x="336.1" y="85.397"/><use xlink:href="#u" x="343.548" y="85.397"/><use xlink:href="#p" x="354.87" y="85.397"/><use xlink:href="#t" x="81.937" y="58.396"/><use xlink:href="#u" x="91.836" y="58.396"/><use xlink:href="#N" x="103.157" y="58.396"/><use xlink:href="#O" x="108.226" y="58.396"/><use xlink:href="#P" x="111.705" y="58.396"/><use xlink:href="#o" x="118.663" y="58.396"/><use xlink:href="#s" x="122.919" y="58.396"/><use xlink:href="#r" x="127.618" y="58.396"/></svg>