<svg xmlns="http://www.w3.org/2000/svg" xmlns:xlink="http://www.w3.org/1999/xlink" width="281pt" height="108" viewBox="0 0 281 81"><defs><path id="e" d="M5.563-4.375c0-2.625-.782-3.86-2.422-3.86-1.844 0-2.797 1.47-2.797 4.36 0 1.406.25 2.61.672 3.188.422.593 1.093.921 1.828.921 1.812 0 2.719-1.546 2.719-4.609m-1.016.594c0 2.547-.453 3.61-1.547 3.61-1.156 0-1.656-1.22-1.656-4.126 0-2.531.453-3.516 1.578-3.516 1.172 0 1.625 1.172 1.625 4.032m0 0"/><path id="h" d="M3.234.031v-.36l-.546-.03c-.407-.016-.438-.11-.438-.86v-4.343l-.11-.047a7.3 7.3 0 0 1-1.859.5v.328H.72c.469 0 .531.078.531.875v2.687c0 .75-.047.844-.453.86L.25-.33v.36c.5-.014 1-.03 1.5-.03s.984.016 1.484.031m-.89-7.64c0-.344-.235-.61-.594-.61-.36 0-.61.25-.61.61 0 .359.25.593.61.593s.594-.234.594-.593m0 0"/><path id="i" d="M6.844.031v-.36l-.5-.03c-.407-.016-.438-.094-.438-.86V-3.53c0-1.39-.656-2.078-2-2.078-.437 0-.687.093-.937.297l-.906.796v-1.046l-.11-.047c-.61.25-1.234.422-1.875.5v.328h.453c.469 0 .516.078.516.875v2.687c0 .75-.031.844-.438.86l-.53.03v.36A45 45 0 0 1 1.546 0c.5 0 1 .016 1.484.031v-.36L2.5-.358c-.406-.016-.437-.11-.437-.86V-3.75c0-.547.78-1.125 1.515-1.125.797 0 1.328.594 1.328 1.516V.03C5.22.016 5.531 0 5.844 0c.343 0 .656.016 1 .031m0 0"/><path id="j" d="M4.672-1.766c0-.375-.094-.656-.328-.89-.313-.313-.703-.438-1.766-.64-.969-.188-1.297-.438-1.297-.985 0-.594.422-.938 1.14-.938.813 0 1.423.422 1.423.985v.28h.328c.016-.702.031-.983.062-1.358-.64-.204-1.062-.297-1.562-.297-1.375 0-2.234.656-2.234 1.734 0 .578.265.984.812 1.234.328.141.969.329 1.781.516.531.11.766.375.766.828 0 .64-.61 1.094-1.453 1.094-.875 0-1.5-.422-1.5-1.016v-.484h-.36C.484-.891.454-.531.36-.047.984.156 1.453.234 2 .234c1.563 0 2.672-.828 2.672-2m0 0"/><path id="k" d="M6.938.031v-.36l-.485-.03c-.406-.016-.437-.094-.437-.86v-4.343l-.11-.047c-.61.25-1.234.422-1.86.5v.328h.438c.47 0 .532.078.532.875v1.953c0 .25-.172.594-.453.86a1.57 1.57 0 0 1-1.188.515c-.406 0-.75-.14-.937-.36-.172-.203-.25-.562-.25-1.093v-3.531l-.11-.047c-.61.25-1.234.422-1.86.5v.328h.438c.485 0 .532.078.532.875v2c0 .843.062 1.219.28 1.515.266.36.72.532 1.407.532.531 0 1.016-.172 1.328-.47l.813-.733c0 .343-.016.53-.063 1.093.344-.015.672-.031 1-.031s.656.016.984.031m0 0"/><path id="l" d="M3.234.031v-.36l-.546-.03c-.407-.016-.438-.11-.438-.86v-7.36l-.11-.093c-.53.203-.921.297-1.859.438v.328h.657c.218 0 .312.14.312.5v6.187c0 .75-.047.844-.453.86L.25-.33v.36c.5-.014 1-.03 1.5-.03s.984.016 1.484.031m0 0"/><path id="m" d="M5.625.031v-.36l-.469-.015c-.281-.015-.328-.11-.328-.703v-2.187c0-1.735-.5-2.375-1.89-2.375-.516 0-.985.14-1.438.406l-.64.39v.766l.312.094.156-.375c.234-.563.375-.64.922-.64 1.125 0 1.594.437 1.625 1.53l-1.187.204C1.062-2.922.374-2.36.374-1.328.375-.391.938.14 1.891.14c.218 0 .422-.032.5-.094l1.484-1.03L3.813.03C4.125.016 4.437 0 4.75 0c.297 0 .578.016.875.031m-1.75-1.515c-.344.5-1.11.953-1.562.953-.485 0-.907-.453-.907-.969 0-.437.25-.86.61-1.078.297-.188.953-.344 1.859-.485Zm0 0"/><path id="n" d="m3.813-5.219-1.641.078v-.453c0-.5.047-.937.14-1.703l-.156-.125c-.281.172-.64.328-1.015.453.046.36.046.578.046.938v.843l-.921.422v.25l.906-.046v3.437c0 .89.39 1.266 1.312 1.266.282 0 .563-.063.641-.141l.563-.64-.157-.204c-.297.172-.469.235-.703.235-.469 0-.656-.235-.656-.828v-3.125h1.531Zm0 0"/><path id="o" d="M6.14-2.828c0-1.625-1.171-2.781-2.812-2.781C1.594-5.61.375-4.375.375-2.594.375-.906 1.453.234 2.985.234c1.843 0 3.156-1.28 3.156-3.062m-1.109.437c0 1.375-.61 2.235-1.578 2.235C2.281-.156 1.5-1.296 1.5-3c0-1.437.563-2.219 1.625-2.219 1.094 0 1.906 1.203 1.906 2.828m0 0"/><path id="p" d="M5.36-3.328c0-1.375-.891-2.281-2.235-2.281-.437 0-.953.156-1.437.453C.703-4.61.313-3.86.313-2.625c0 .766.171 1.406.5 1.86.468.64 1.28 1 2.171 1 .454 0 .891-.094 1.375-.313.329-.125.579-.281.625-.36l.235-.406-.157-.11c-.765.454-1.03.563-1.546.563-.782 0-1.422-.343-1.766-.937-.219-.39-.297-.734-.328-1.422h1.75c.828 0 1.328-.031 2.156-.172.016-.156.031-.265.031-.406m-1.063.14-1.344.032c-.547 0-.86-.016-1.5-.078 0-.563.047-.813.203-1.125a1.47 1.47 0 0 1 1.328-.86c.391 0 .704.157.922.485.266.39.39.734.39 1.547m0 0"/><path id="q" d="M10.39.031v-.36l-.562-.03c-.406-.016-.437-.11-.437-.86v-2.468c0-1.172-.703-1.922-1.797-1.922-.422 0-.766.109-.985.297l-.906.812C5.313-5.281 4.828-5.61 4-5.61c-.437 0-.766.11-.984.298l-.828.765v-1.016l-.11-.046c-.61.25-1.234.422-1.86.5v.328h.438c.485 0 .532.078.532.875v2.687c0 .75-.047.844-.454.86l-.546.03v.36A49 49 0 0 1 1.703 0c.484 0 .953.016 1.422.031v-.36l-.5-.03c-.406-.016-.437-.11-.437-.86V-3.75c0-.547.78-1.125 1.5-1.125.656 0 1.093.61 1.093 1.516v2.14c0 .75-.031.844-.437.86l-.547.03v.36C4.297.016 4.78 0 5.28 0s1 .016 1.5.031v-.36l-.547-.03c-.406-.016-.453-.11-.453-.86V-3.75c0-.547.797-1.125 1.516-1.125.64 0 1.078.61 1.078 1.516V.03c.314-.014.641-.03.954-.03.36 0 .703.016 1.063.031m0 0"/><path id="r" d="M6.625-3.234c0-1.328-1.11-2.375-2.484-2.375-.453 0-.875.125-1.063.297l-.984.906v-1.157l-.11-.046a7.3 7.3 0 0 1-1.859.5v.328h.438c.484 0 .53.078.53.875v6.015c0 .75-.046.829-.452.86L.094 3v.36c.5-.032 1-.032 1.5-.032s.984 0 1.484.031V3l-.547-.031c-.406-.031-.437-.11-.437-.86V-.156c.36.219.734.297 1.281.297.344 0 .656-.063.844-.188l1.36-.89c.484-.313 1.046-1.532 1.046-2.297m-1.047.437c0 1.344-.797 2.328-1.875 2.328-.656 0-1.14-.219-1.61-.703v-2.484c0-.172.063-.297.22-.5.343-.453.828-.672 1.421-.672 1.125 0 1.844.781 1.844 2.031m0 0"/><path id="s" d="M4.469-5.469c-.125-.093-.344-.14-.563-.14-.36 0-.734.187-.984.5l-.672.78v-1.234l-.11-.046a7.3 7.3 0 0 1-1.859.5v.328H.72c.469 0 .531.078.531.875v2.687c0 .75-.047.844-.453.86L.25-.33v.36C.734.016 1.234 0 1.719 0c.578 0 1.14.016 1.719.031v-.36l-.626-.03c-.546-.032-.562-.079-.562-.86V-3.28c0-.719.469-1.313 1.063-1.313.359 0 .609.172.796.547h.25Zm0 0"/><path id="f" d="M5.969 0c0-.297.125-1.234.281-1.969h-.375l-.203.735c-.11.39-.203.593-.313.64-.14.063-1.062.125-1.718.125-.672 0-.97-.015-1.703-.078 0-.14 0-.281.015-.422l1.11-6.36c.078-.452.171-.53.609-.577l.5-.032.031-.328c-.469.016-.953.032-1.437.032-.532 0-1.063-.016-1.61-.032l-.031.329.563.03c.28 0 .421.095.421.298 0 .187-.046.53-.109.922L.969-.657C.938-.436.78-.358.25-.28L.188.03C.797.016 1.422 0 2.03 0c.89 0 1.797.031 2.688.031.5 0 .843 0 1.25-.031m0 0"/><path id="g" d="m5.36-.937-.094-.235c-.438.36-.735.531-.922.531S4-.75 3.89-.984a4.8 4.8 0 0 1-.313-1.032l-.203-1.203.422-.578c.547-.781.875-1.062 1.25-1.062.187 0 .328.109.39.28l.172-.046.172-1.016c-.14-.078-.25-.125-.36-.125-.468 0-.952.438-1.687 1.532l-.453.656-.062-.563c-.14-1.187-.469-1.625-1.172-1.625-.313 0-.578.094-.688.25l-.687 1 .203.11c.36-.407.594-.563.828-.563.39 0 .656.485.86 1.657l.124.75-.468.734C1.703-1.031 1.297-.641.953-.641.781-.64.641-.687.625-.75l-.14-.344-.235.047c0 .234-.016.39-.094.766-.031.156-.031.187-.047.265.172.094.375.141.516.141.39 0 .86-.344 1.234-.906l.907-1.39.125.827C3.063-.328 3.328.125 3.75.125c.266 0 .656-.203 1.031-.547Zm0 0"/><path id="t" d="M6.125-1.016 6-1.234l-.312.203c-.297.187-.579.328-.735.328-.094 0-.14-.078-.14-.203 0-.156.03-.344.062-.485l1-4.265-.078-.11-.813.204-.125.609c-.171.906-.453 1.719-.812 2.266C3.344-1.594 2.39-.703 1.907-.703c-.11 0-.157-.11-.157-.313 0-.171.016-.312.078-.625l.688-3.234q.046-.281.046-.516c0-.234-.093-.375-.25-.375-.25 0-.703.25-1.593.891l-.344.234.094.235.375-.25c.344-.219.469-.266.578-.266.125 0 .203.11.203.234 0 .063-.016.157-.016.22L.844-.923c-.016.125-.047.39-.047.578 0 .266.187.469.422.469.75 0 2.203-1.328 3.203-2.984l-.438 1.703c-.093.297-.14.593-.14.781 0 .297.14.5.36.5.312 0 .75-.281 1.921-1.14m0 0"/><clipPath id="a"><path d="M254 52h27v2h-27Zm0 0"/></clipPath><clipPath id="b"><path d="M-.531 81.535h283v-83h-283Zm281.719-28.937v.84l-10.262 1.8 8.82-2.222-8.82-2.22Zm0 0" clip-rule="evenodd"/></clipPath><clipPath id="c"><path d="M13 0h2v81h-2Zm0 0"/></clipPath><clipPath id="d"><path d="M-.531 81.535h283v-83h-283ZM13.406-.44h.84l1.8 10.257-2.218-8.82-2.223 8.82Zm0 0" clip-rule="evenodd"/></clipPath></defs><path fill="none" stroke="#000" stroke-miterlimit="10" stroke-width=".45" d="M32.188 53.016c0 6.297-2.876 11.402-6.422 11.402-3.543 0-6.418-5.106-6.418-11.402 0-6.293 2.875-11.399 6.418-11.399 3.547 0 6.422 5.106 6.422 11.399Zm218.039 0c0 6.297-2.875 11.402-6.418 11.402-3.547 0-6.422-5.106-6.422-11.402 0-6.293 2.875-11.399 6.422-11.399 3.543 0 6.418 5.106 6.418 11.399ZM25.766 64.418h218.101M25.766 41.617h218.101m11.039 3.602v14.816"/><g clip-path="url(#a)"><g clip-path="url(#b)"><path fill="none" stroke="#000" stroke-miterlimit="10" stroke-width=".45" d="M254.969 53.016h25.797"/></g></g><path fill="none" stroke="#000" stroke-miterlimit="10" stroke-width=".45" d="m270.926 50.797 8.82 2.219-8.82 2.222"/><path fill="none" stroke="#000" stroke-miterlimit="10" stroke-width="4.5" d="M32.188 53.016H14.547"/><g clip-path="url(#c)"><g clip-path="url(#d)"><path fill="none" stroke="#000" stroke-miterlimit="10" stroke-width=".45" d="M13.828-.023v80.878"/></g></g><path fill="none" stroke="#000" stroke-miterlimit="10" stroke-width=".45" d="m11.605 9.816 2.223-8.82 2.219 8.82"/><path fill="none" stroke="#000" stroke-miterlimit="10" stroke-width="4.5" d="M237.629 53.016h16.68"/><path fill="none" stroke="#000" stroke-linejoin="bevel" stroke-miterlimit="10" stroke-width=".45" d="M13.766 53.016H.148"/><use xlink:href="#e" x="4.507" y="65.817"/><use xlink:href="#f" x="251.652" y="70.317"/><use xlink:href="#g" x="273.016" y="70.317"/><use xlink:href="#h" x="99.009" y="80.037"/><use xlink:href="#i" x="102.488" y="80.037"/><use xlink:href="#j" x="109.446" y="80.037"/><use xlink:href="#k" x="114.515" y="80.037"/><use xlink:href="#l" x="121.724" y="80.037"/><use xlink:href="#m" x="125.203" y="80.037"/><use xlink:href="#n" x="131.18" y="80.037"/><use xlink:href="#h" x="135.078" y="80.037"/><use xlink:href="#o" x="138.557" y="80.037"/><use xlink:href="#i" x="145.084" y="80.037"/><use xlink:href="#n" x="18.547" y="20.216"/><use xlink:href="#p" x="22.444" y="20.216"/><use xlink:href="#q" x="28.171" y="20.216"/><use xlink:href="#r" x="38.488" y="20.216"/><use xlink:href="#p" x="45.673" y="20.216"/><use xlink:href="#s" x="51.4" y="20.216"/><use xlink:href="#m" x="55.943" y="20.216"/><use xlink:href="#n" x="61.92" y="20.216"/><use xlink:href="#k" x="65.818" y="20.216"/><use xlink:href="#s" x="73.027" y="20.216"/><use xlink:href="#p" x="77.749" y="20.216"/><use xlink:href="#t" x="86.584" y="20.216"/></svg>