<svg xmlns="http://www.w3.org/2000/svg" xmlns:xlink="http://www.w3.org/1999/xlink" width="208" height="152" viewBox="0 0 156 114"><defs><path id="f" d="M6.14-2.828c0-1.625-1.171-2.781-2.812-2.781C1.594-5.61.375-4.375.375-2.594.375-.906 1.453.234 2.985.234c1.843 0 3.156-1.28 3.156-3.062m-1.109.437c0 1.375-.61 2.235-1.578 2.235C2.281-.156 1.5-1.296 1.5-3c0-1.437.563-2.219 1.625-2.219 1.094 0 1.906 1.203 1.906 2.828m0 0"/><path id="g" d="M4.469-5.469c-.125-.093-.344-.14-.563-.14-.36 0-.734.187-.984.5l-.672.78v-1.234l-.11-.046a7.3 7.3 0 0 1-1.859.5v.328H.72c.469 0 .531.078.531.875v2.687c0 .75-.047.844-.453.86L.25-.33v.36C.734.016 1.234 0 1.719 0c.578 0 1.14.016 1.719.031v-.36l-.626-.03c-.546-.032-.562-.079-.562-.86V-3.28c0-.719.469-1.313 1.063-1.313.359 0 .609.172.796.547h.25Zm0 0"/><path id="h" d="M5.563-4.375c0-2.625-.782-3.86-2.422-3.86-1.844 0-2.797 1.47-2.797 4.36 0 1.406.25 2.61.672 3.188.422.593 1.093.921 1.828.921 1.812 0 2.719-1.546 2.719-4.609m-1.016.594c0 2.547-.453 3.61-1.547 3.61-1.156 0-1.656-1.22-1.656-4.126 0-2.531.453-3.516 1.578-3.516 1.172 0 1.625 1.172 1.625 4.032m0 0"/><path id="i" d="m3.172-1.187-.125-.22-.531.376c-.36.25-.594.36-.735.36-.093 0-.156-.095-.156-.235 0-.313.14-1.25.516-3.016l.156-.734h1.281l.125-.61c-.453.047-.86.079-1.312.079.187-1.125.328-1.704.53-2.36l-.124-.172c-.235.14-.563.282-.938.422l-.296 2.031c-.516.25-.829.391-1.047.454l-.032.156H1.5L.828-1.281c-.062.297-.156.593-.156.906 0 .297.125.484.36.484.421 0 .827-.234 1.765-1 .219-.156.14-.109.375-.296m0 0"/><path id="j" d="M6.125-1.016 6-1.234l-.312.203c-.297.187-.579.328-.735.328-.094 0-.14-.078-.14-.203 0-.156.03-.344.062-.485l1-4.265-.078-.11-.813.204-.125.609c-.171.906-.453 1.719-.812 2.266C3.344-1.594 2.39-.703 1.907-.703c-.11 0-.157-.11-.157-.313 0-.171.016-.312.078-.625l.688-3.234q.046-.281.046-.516c0-.234-.093-.375-.25-.375-.25 0-.703.25-1.593.891l-.344.234.094.235.375-.25c.344-.219.469-.266.578-.266.125 0 .203.11.203.234 0 .063-.016.157-.016.22L.844-.923c-.016.125-.047.39-.047.578 0 .266.187.469.422.469.75 0 2.203-1.328 3.203-2.984l-.438 1.703c-.093.297-.14.593-.14.781 0 .297.14.5.36.5.312 0 .75-.281 1.921-1.14m0 0"/><path id="l" d="m5.36-.937-.094-.235c-.438.36-.735.531-.922.531S4-.75 3.89-.984a4.8 4.8 0 0 1-.313-1.032l-.203-1.203.422-.578c.547-.781.875-1.062 1.25-1.062.187 0 .328.109.39.28l.172-.046.172-1.016c-.14-.078-.25-.125-.36-.125-.468 0-.952.438-1.687 1.532l-.453.656-.062-.563c-.14-1.187-.469-1.625-1.172-1.625-.313 0-.578.094-.688.25l-.687 1 .203.11c.36-.407.594-.563.828-.563.39 0 .656.485.86 1.657l.124.75-.468.734C1.703-1.031 1.297-.641.953-.641.781-.64.641-.687.625-.75l-.14-.344-.235.047c0 .234-.016.39-.094.766-.031.156-.031.187-.047.265.172.094.375.141.516.141.39 0 .86-.344 1.234-.906l.907-1.39.125.827C3.063-.328 3.328.125 3.75.125c.266 0 .656-.203 1.031-.547Zm0 0"/><path id="m" d="M5.969 0c0-.297.125-1.234.281-1.969h-.375l-.203.735c-.11.39-.203.593-.313.64-.14.063-1.062.125-1.718.125-.672 0-.97-.015-1.703-.078 0-.14 0-.281.015-.422l1.11-6.36c.078-.452.171-.53.609-.577l.5-.032.031-.328c-.469.016-.953.032-1.437.032-.532 0-1.063-.016-1.61-.032l-.031.329.563.03c.28 0 .421.095.421.298 0 .187-.046.53-.109.922L.969-.657C.938-.436.78-.358.25-.28L.188.03C.797.016 1.422 0 2.03 0c.89 0 1.797.031 2.688.031.5 0 .843 0 1.25-.031m0 0"/><path id="o" d="m5.11-.797-.094-.234-.516.297c-.172.093-.25.109-.36.109s-.202-.062-.296-.266c-.422-.765-.688-1.421-1.156-2.89l.171-.156c.72-.735 1.282-1.032 1.875-1.032.094 0 .22.016.422.063l.203-.75a2.2 2.2 0 0 0-.562-.11c-.797 0-1.781.922-3.281 3.016l1.28-5.875-.14-.14c-.625.312-1.047.421-1.922.5l-.046.25h.578c.28 0 .406.093.406.296 0 .094-.016.203-.016.282l-.578 3.203C.922-3.328.718-2.516.094-.016l.11.125L1-.094l.281-1.484c.11-.578.39-1.11.797-1.516C2.906-.704 3.281.11 3.578.11c.156 0 .453-.156.969-.53Zm0 0"/><path id="q" d="M4.938-8.61c-.204-.093-.547-.156-.844-.156a1.1 1.1 0 0 0-.407.094c-.296.125-1.265.86-1.546 1.14-.266.266-.407.626-.532 1.298l-.187.953a10 10 0 0 1-1.031.437l-.063.266h.969l-.11.672C.829-1.578.391.64.125 1.469c-.219.703-.562 1.078-1 1.078-.266 0-.422-.078-.625-.344l-.156.047c-.047.266-.219.844-.282.953a.9.9 0 0 0 .422.094c.485 0 1.141-.375 1.594-.938.735-.859.985-1.671 1.875-5.89.063-.297.156-.656.219-1.047h1.25c.047-.234.125-.5.203-.672l-.047-.078-.094.016c-.28.093-.406.093-1 .093h-.187l.25-1.343c.187-1.032.531-1.485 1.078-1.485.36 0 .672.188.86.469l.124-.047Zm0 0"/><path id="k" d="M.781-4.14H7.22v-.72H.78Zm0 2.53H7.22v-.702H.78Zm0 0"/><path id="n" d="m2.328-.875-.094-.156-.39.281c-.266.188-.438.266-.532.266-.078 0-.125-.079-.125-.188 0-.219.11-.906.375-2.203l.125-.547h.938l.094-.437c-.328.03-.625.062-.969.062.14-.828.234-1.265.39-1.734l-.093-.125a7 7 0 0 1-.672.312l-.234 1.485a5 5 0 0 1-.766.328l-.016.11h.735L.609-.938C.563-.72.484-.5.484-.266c0 .22.11.344.266.344.313 0 .61-.172 1.297-.734.156-.11.11-.078.281-.219m0 0"/><path id="p" d="M3.938-.687 3.859-.86c-.312.265-.53.39-.671.39s-.25-.078-.344-.265a3.5 3.5 0 0 1-.219-.735l-.156-.89.312-.422c.406-.578.64-.781.922-.781.14 0 .235.078.281.203l.125-.032.141-.75a.5.5 0 0 0-.266-.078c-.359 0-.703.313-1.25 1.11l-.328.484-.047-.422C2.25-3.908 2.016-4.22 1.5-4.22c-.234 0-.422.063-.5.172l-.516.734.157.094c.265-.312.437-.422.609-.422.281 0 .484.36.625 1.22l.094.53-.344.547C1.25-.75.953-.469.703-.469c-.14 0-.234-.047-.25-.078L.36-.797l-.171.031c0 .172-.016.282-.079.563-.015.11-.015.14-.03.187a.73.73 0 0 0 .374.11c.297 0 .64-.25.906-.656l.672-1.032.094.61C2.25-.25 2.438.094 2.75.094c.188 0 .469-.14.75-.406Zm0 0"/><path id="r" d="M3.64-9.031C1.813-7.844.72-5.797.72-3.234c0 2.343 1.14 4.578 2.875 5.78l.156-.202C2.094.906 1.813-.484 1.813-3.281c0-2.781.312-4.219 1.937-5.547Zm0 0"/><path id="s" d="m.5-9.031-.125.203C2.015-7.5 2.328-6.063 2.328-3.281c0 2.797-.281 4.187-1.953 5.625l.156.203c1.75-1.203 2.89-3.438 2.89-5.781 0-2.563-1.108-4.61-2.921-5.797m0 0"/><clipPath id="a"><path d="M36 0h2v100h-2Zm0 0"/></clipPath><clipPath id="b"><path d="M21.59-1.465h120v119h-120ZM36.77.22h.84l2.28 10.258-2.703-9-2.699 9Zm0 0" clip-rule="evenodd"/></clipPath><clipPath id="c"><path d="M32 94h109v2H32Zm0 0"/></clipPath><clipPath id="d"><path d="M21.59-1.465h120v119h-120ZM141.11 94.72v.84l-10.262 2.277 9-2.7-9-2.698Zm0 0" clip-rule="evenodd"/></clipPath><clipPath id="e"><path d="M124 86h17.59v19H124Zm0 0"/></clipPath></defs><path fill="#e9e9e9" fill-rule="evenodd" d="M37.188 23.137v72h81v-72l-4.5-9-9 9-9-9-9 9-9-9-9 9-9-9-9 9-9-9"/><path fill="none" stroke="#000" stroke-miterlimit="10" stroke-width="1.8" d="M37.188 23.137v72h81v-72"/><g clip-path="url(#a)"><g clip-path="url(#b)"><path fill="none" stroke="#000" stroke-miterlimit="10" stroke-width=".45" d="M37.188 99.637v-99"/></g></g><path fill="none" stroke="#000" stroke-miterlimit="10" stroke-width=".45" d="m34.488 10.477 2.7-9 2.703 9m78.297 84.66v4.5"/><g clip-path="url(#c)"><g clip-path="url(#d)"><path fill="none" stroke="#000" stroke-miterlimit="10" stroke-width=".45" d="M32.688 95.137h108"/></g></g><g clip-path="url(#e)"><path fill="none" stroke="#000" stroke-miterlimit="10" stroke-width=".45" d="m130.848 92.438 9 2.699-9 2.699"/></g><use xlink:href="#f" x="21.439" y="63.656"/><use xlink:href="#g" x="27.967" y="63.656"/><use xlink:href="#h" x="34.2" y="113.157"/><use xlink:href="#i" x="41.809" y="9.655"/><use xlink:href="#j" x="4.827" y="45.656"/><use xlink:href="#k" x="15.395" y="45.656"/><use xlink:href="#h" x="26.717" y="45.656"/><use xlink:href="#j" x="122.813" y="45.656"/><use xlink:href="#k" x="133.381" y="45.656"/><use xlink:href="#h" x="144.691" y="45.656"/><use xlink:href="#f" x="122.691" y="63.656"/><use xlink:href="#g" x="129.219" y="63.656"/><use xlink:href="#l" x="132.05" y="108.657"/><use xlink:href="#m" x="114.927" y="113.157"/><use xlink:href="#j" x="53.092" y="59.156"/><use xlink:href="#n" x="59.826" y="60.949"/><use xlink:href="#k" x="67.091" y="59.156"/><use xlink:href="#o" x="79.01" y="59.156"/><use xlink:href="#j" x="85.096" y="59.156"/><use xlink:href="#p" x="92.003" y="60.949"/><use xlink:href="#p" x="97.088" y="60.949"/><use xlink:href="#j" x="60.04" y="108.657"/><use xlink:href="#k" x="70.608" y="108.657"/><use xlink:href="#q" x="83.723" y="108.657"/><use xlink:href="#r" x="89.259" y="108.657"/><use xlink:href="#l" x="93.754" y="108.657"/><use xlink:href="#s" x="100.329" y="108.657"/><use xlink:href="#j" x="122.811" y="81.656"/><use xlink:href="#p" x="129.721" y="83.45"/><use xlink:href="#k" x="138.362" y="81.656"/><use xlink:href="#h" x="149.684" y="81.656"/><use xlink:href="#j" x="-.163" y="81.656"/><use xlink:href="#p" x="6.752" y="83.45"/><use xlink:href="#k" x="15.392" y="81.656"/><use xlink:href="#h" x="26.714" y="81.656"/></svg>