<svg xmlns="http://www.w3.org/2000/svg" xmlns:xlink="http://www.w3.org/1999/xlink" width="106pt" height="130pt" viewBox="0 0 106 130"><defs><path id="a" d="M5.484-3.031c0-1.344-.968-2.297-2.328-2.297-.578 0-1 .156-1.75.594l.11-2.5 3.64.062.063-.062c-.016-.22-.016-.282-.016-.47 0-.187 0-.25.016-.468l-.063-.062s-1.265.062-2.078.062S1-8.234 1-8.234l-.062.062.03 1.64c0 1.048-.03 2.157-.077 2.688l.25.063c.562-.563.875-.719 1.468-.719 1.141 0 1.86.813 1.86 2.094 0 1.328-.766 2.11-2.063 2.11-.656 0-1.25-.22-1.422-.532l-.546-.984-.282.171C.438-.953.578-.578.734-.047c.344.172.813.281 1.329.281.812 0 1.656-.343 2.312-.921.734-.641 1.11-1.454 1.11-2.344m0 0"/><path id="c" d="M6.203-8.672h-.719L1.047 1.422h.703Zm0 0"/><path id="g" d="m2.61-1.297-.172-.172c-.329.11-.532.172-1.172.36C1.187-.203.89.578.188 1.719l.171.14.485-.234c.969-1.25 1.422-2 1.765-2.922m0 0"/><path id="h" d="M5.563-4.375c0-2.625-.782-3.86-2.422-3.86-1.844 0-2.797 1.47-2.797 4.36 0 1.406.25 2.61.672 3.188.422.593 1.093.921 1.828.921 1.812 0 2.719-1.546 2.719-4.609m-1.016.594c0 2.547-.453 3.61-1.547 3.61-1.156 0-1.656-1.22-1.656-4.126 0-2.531.453-3.516 1.578-3.516 1.172 0 1.625 1.172 1.625 4.032m0 0"/><path id="i" d="M2.188-.64c0-.344-.329-.688-.704-.688-.359 0-.687.344-.687.687 0 .36.328.704.672.704.39 0 .718-.329.718-.704m0 0"/><path id="j" d="M5 .031v-.36l-.625-.03c-.656-.032-.781-.172-.781-.782v-7.093l-.156-.063c-.782.406-1.626.766-2.72 1.156l.079.5h.125c.531-.234 1.047-.468 1.578-.703.063 0 .094.11.094.407v5.796c0 .61-.125.75-.781.782l-.672.03v.36C1.813.016 2.469 0 3.125 0c.61 0 1.25.016 1.875.031m0 0"/><path id="m" d="M5.516-2.672c0-.578-.235-1.078-.657-1.375-.312-.219-.578-.312-1.171-.422C4.64-5.219 5-5.766 5-6.469c0-1.062-.89-1.765-2.219-1.765-.812 0-1.344.218-1.922.797L.516-5.953H.89l.203-.672c.14-.406.89-.812 1.515-.812.766 0 1.407.64 1.407 1.39 0 .89-.703 1.64-1.547 1.64-.11 0-.563-.03-.563-.03l-.156.64.094.063c.453-.203.672-.266 1-.266 1 0 1.562.64 1.562 1.734 0 1.22-.718 2.016-1.843 2.016a2.04 2.04 0 0 1-1.391-.516C.89-1.03.734-1.296.5-1.953l-.328.125c.266.734.36 1.156.422 1.75.64.219 1.156.312 1.61.312 1.437 0 3.312-1.25 3.312-2.906m0 0"/><path id="n" d="M5.594-2.625C5.594-4 4.766-4.891 3.5-4.891c-.703 0-1.14.282-1.937.938.25-2.172 1.265-3.344 3.406-3.984v-.094l-.438-.203c-1.156.375-1.64.625-2.25 1.14C1.047-6.047.375-4.594.375-2.954c0 1.97.969 3.188 2.5 3.188 1.563 0 2.719-1.218 2.719-2.859m-1.032.422c0 1.25-.609 2.047-1.53 2.047-1.016 0-1.563-.875-1.563-2.469 0-.422.047-.656.187-.86.25-.406.813-.687 1.39-.687.907 0 1.517.797 1.517 1.969m0 0"/><path id="o" d="M7-2.062h-.375l-.14.609c-.11.469-.204.719-.266.766-.157.14-1.203.218-2.625.218-.422 0-.703-.015-1.016-.094v-6.234c0-.953.063-1.047.61-1.078l.578-.031v-.36c-.594.016-1.172.032-1.75.032-.594 0-1.172-.016-1.75-.032v.36l.578.031c.547.031.61.125.61 1.078v5.656c0 .36-.11.61-.313.704l-.36.203V.03C1.171.016 1.563 0 1.953 0c.938 0 1.86.031 2.797.031.5 0 .375 0 2-.031.094-.516.14-.89.25-2.062m0 0"/><path id="p" d="M6.563-.203v-.281c-.282 0-.641-.203-1.016-.563l-1.5-1.5c-.438-.422-.563-.578-.766-.812l1.531-1.203c.563-.438.891-.563 1.297-.563v-.36H4.906c-.765.766-1.328 1.282-1.781 1.657l-.875.703v-5.453l-.11-.094c-.53.203-.921.297-1.859.438v.328h.657c.218 0 .312.14.312.5v6.187c0 .75-.047.844-.453.86L.25-.33v.36c.5-.014 1-.03 1.5-.03s.969.016 1.469.031v-.36l-.531-.03c-.407-.016-.438-.11-.438-.86v-1.656L5.422.141Zm0 0"/><path id="q" d="m6.5-5.016-.047-.14-1.703.047c-.437-.36-.86-.5-1.453-.5-.531 0-1.14.172-1.625.453C1-4.766.656-4.188.656-3.453c0 .89.547 1.5 1.438 1.594l-.953.718c-.11.188-.172.344-.172.516 0 .344.219.531.781.703L.719.641c-.172.093-.344.53-.344.906 0 1.078 1.078 1.828 2.594 1.828 1.797 0 3.219-1.125 3.219-2.594 0-.86-.563-1.453-1.407-1.453H2.875c-.625 0-.922-.14-.922-.469 0-.156.11-.28.406-.546.079-.063.11-.079.157-.125.109 0 .187.015.28.015.517 0 1.142-.219 1.642-.562.53-.407.796-.875.796-1.516 0-.234-.03-.39-.125-.64h1.094Zm-2.266 1.5c0 .782-.5 1.313-1.234 1.313-.797 0-1.344-.625-1.344-1.531 0-.922.453-1.47 1.219-1.47.813 0 1.36.673 1.36 1.688M5.25 1.22c0 1.031-.953 1.797-2.203 1.797-1.031 0-1.75-.61-1.75-1.5 0-.532.312-1.016.781-1.235.188-.078.531-.11 1.36-.11C4.78.172 5.25.438 5.25 1.22m0 0"/><path id="r" d="M4.672-1.766c0-.375-.094-.656-.328-.89-.313-.313-.703-.438-1.766-.64-.969-.188-1.297-.438-1.297-.985 0-.594.422-.938 1.14-.938.813 0 1.423.422 1.423.985v.28h.328c.016-.702.031-.983.062-1.358-.64-.204-1.062-.297-1.562-.297-1.375 0-2.234.656-2.234 1.734 0 .578.265.984.812 1.234.328.141.969.329 1.781.516.531.11.766.375.766.828 0 .64-.61 1.094-1.453 1.094-.875 0-1.5-.422-1.5-1.016v-.484h-.36C.484-.891.454-.531.36-.047.984.156 1.453.234 2 .234c1.563 0 2.672-.828 2.672-2m0 0"/><path id="s" d="M5.625.031v-.36l-.469-.015c-.281-.015-.328-.11-.328-.703v-2.187c0-1.735-.5-2.375-1.89-2.375-.516 0-.985.14-1.438.406l-.64.39v.766l.312.094.156-.375c.234-.563.375-.64.922-.64 1.125 0 1.594.437 1.625 1.53l-1.187.204C1.062-2.922.374-2.36.374-1.328.375-.391.938.14 1.891.14c.218 0 .422-.032.5-.094l1.484-1.03L3.813.03C4.125.016 4.437 0 4.75 0c.297 0 .578.016.875.031m-1.75-1.515c-.344.5-1.11.953-1.562.953-.485 0-.907-.453-.907-.969 0-.437.25-.86.61-1.078.297-.188.953-.344 1.859-.485Zm0 0"/><path id="t" d="M3.234.031v-.36l-.546-.03c-.407-.016-.438-.11-.438-.86v-7.36l-.11-.093c-.53.203-.921.297-1.859.438v.328h.657c.218 0 .312.14.312.5v6.187c0 .75-.047.844-.453.86L.25-.33v.36c.5-.014 1-.03 1.5-.03s.984.016 1.484.031m0 0"/><path id="u" d="m3.813-5.219-1.641.078v-.453c0-.5.047-.937.14-1.703l-.156-.125c-.281.172-.64.328-1.015.453.046.36.046.578.046.938v.843l-.921.422v.25l.906-.046v3.437c0 .89.39 1.266 1.312 1.266.282 0 .563-.063.641-.141l.563-.64-.157-.204c-.297.172-.469.235-.703.235-.469 0-.656-.235-.656-.828v-3.125h1.531Zm0 0"/><path id="b" d="M5.14-1.5h-.28l-.11.438q-.117.492-.187.562c-.125.094-.875.156-1.922.156a3.5 3.5 0 0 1-.75-.062v-4.578c0-.703.046-.766.453-.797l.422-.016v-.266c-.438.016-.86.016-1.297.016-.422 0-.844 0-1.281-.016v.266l.421.016c.407.031.454.093.454.797v4.156c0 .25-.079.437-.22.516l-.28.14v.203C.859.016 1.14 0 1.438 0c.687 0 1.359.031 2.046.031.36 0 .282 0 1.47-.031.062-.375.093-.656.187-1.5m0 0"/><path id="d" d="M7.625.031v-.265l-.422-.032c-.297-.015-.328-.078-.328-.625v-1.812c0-.86-.5-1.406-1.312-1.406-.297 0-.563.078-.72.218l-.655.594c-.282-.578-.641-.812-1.25-.812-.329 0-.579.078-.735.218l-.594.563v-.75l-.078-.031a4.8 4.8 0 0 1-1.375.359v.25h.328c.344 0 .391.063.391.64v1.97c0 .546-.031.609-.328.624L.14-.234V.03C.516.016.89 0 1.25 0s.703.016 1.047.031v-.265l-.375-.032c-.297-.015-.313-.078-.313-.625V-2.75c0-.39.579-.828 1.094-.828.485 0 .797.453.797 1.11v1.577c0 .547-.016.61-.312.625l-.407.032V.03C3.141.016 3.5 0 3.875 0s.734.016 1.094.031v-.265l-.407-.032C4.267-.28 4.25-.344 4.25-.89v-1.86c0-.39.578-.828 1.094-.828.484 0 .797.453.797 1.11v2.5C6.375.015 6.609 0 6.844 0c.25 0 .515.016.781.031m0 0"/><path id="e" d="M2.375.031v-.265l-.406-.032C1.672-.28 1.64-.344 1.64-.89v-3.187l-.079-.031c-.437.187-.89.312-1.359.359v.25H.53c.344 0 .375.063.375.64v1.97c0 .546-.015.609-.312.624l-.406.032V.03C.547.016.906 0 1.28 0c.36 0 .719.016 1.094.031m-.656-5.61c0-.265-.172-.437-.438-.437-.265 0-.437.172-.437.438 0 .25.172.437.437.437a.42.42 0 0 0 .438-.437m0 0"/><path id="f" d="M5.016.031v-.265l-.36-.032C4.36-.28 4.328-.328 4.328-.89v-1.687c0-1.031-.484-1.531-1.469-1.531-.312 0-.5.062-.687.218l-.672.579v-.766l-.078-.031c-.438.187-.89.312-1.36.359v.25h.329c.343 0 .375.063.375.64v1.97c0 .546-.016.609-.313.624l-.406.032V.03C.407.016.78 0 1.14 0c.359 0 .718.016 1.078.031v-.265l-.39-.032C1.53-.28 1.5-.344 1.5-.89v-1.86c0-.39.594-.828 1.125-.828.578 0 .969.437.969 1.11v2.5A10 10 0 0 1 4.28 0c.25 0 .485.016.735.031m0 0"/><path id="k" d="M4.813-.156v-.188c-.204 0-.47-.156-.75-.422L2.968-1.859c-.328-.313-.422-.422-.563-.61l1.125-.875c.406-.312.656-.422.953-.422v-.265H3.61c-.562.562-.984.953-1.328 1.218l-.64.532v-4.016l-.079-.062c-.375.14-.671.218-1.359.312v.25h.485c.156 0 .218.094.218.36v4.546c0 .547-.015.61-.312.625l-.406.032V.03C.547.016.922 0 1.28 0c.361 0 .72.016 1.08.031v-.265l-.39-.032c-.298-.014-.33-.078-.33-.624v-1.218L3.969.109Zm0 0"/><path id="l" d="m4.766-3.672-.032-.11-1.25.032c-.312-.25-.64-.36-1.062-.36-.39 0-.828.126-1.188.329-.5.281-.75.719-.75 1.25 0 .64.407 1.094 1.047 1.156l-.687.547a.6.6 0 0 0-.14.375c0 .25.171.39.577.5l-.75.422c-.125.062-.25.39-.25.656 0 .797.782 1.36 1.89 1.36 1.329 0 2.376-.844 2.376-1.907 0-.625-.422-1.062-1.047-1.062H2.11c-.47 0-.672-.11-.672-.344 0-.125.062-.219.296-.406.047-.047.079-.063.11-.094.078 0 .14.016.203.016.375 0 .844-.172 1.203-.422.39-.297.594-.641.594-1.11 0-.172-.031-.281-.094-.469h.797ZM3.109-2.578c0 .578-.375.969-.906.969-.594 0-.984-.453-.984-1.141 0-.672.328-1.062.89-1.062.594 0 1 .484 1 1.234M3.844.89c0 .75-.688 1.312-1.61 1.312-.765 0-1.28-.437-1.28-1.094 0-.39.218-.734.577-.906.14-.047.375-.078.985-.078.984 0 1.328.203 1.328.766m0 0"/></defs><path fill="none" stroke="#000" stroke-miterlimit="10" stroke-width=".45" d="M4.367 1.719h13.5l4.5 4.5v9m-18-4.5h9v4.5m1.683-.422-1.5 8.398m3.958-7.797.242 7.797m2.277-8.218 2.524 7.98M.469 57.938a10.899 10.899 0 0 0 21.597-.418m21.664.238v.113c0 5.383 4.364 9.75 9.75 9.75 5.36 0 9.711-4.324 9.75-9.683M.469 107.016a59.46 59.46 0 0 0 63 .421M22.191 57.64a10.75 10.75 0 0 0 10.715 9.868 10.756 10.756 0 0 0 10.7-9.688m19.742-30.722c0 4.968-14.102 9-31.5 9-17.395 0-31.5-4.032-31.5-9 0-4.97 14.105-9 31.5-9 17.398 0 31.5 4.03 31.5 9Zm.121 62.879h13.5l4.5 4.5v9m-18-4.5h9v4.5m1.679-.418-1.5 8.398m3.962-7.801.238 7.801m2.281-8.219 2.52 7.98M.469 26.977v80.218m63-80.218v80.582"/><use xlink:href="#a" x="29.01" y="9.014"/><use xlink:href="#b" x="36.98" y="6.781"/><use xlink:href="#c" x="41.009" y="9.014"/><use xlink:href="#d" x="47.588" y="9.014"/><use xlink:href="#e" x="55.329" y="9.014"/><use xlink:href="#f" x="57.88" y="9.014"/><use xlink:href="#g" x="62.983" y="9.014"/><use xlink:href="#h" x="68.96" y="9.014"/><use xlink:href="#i" x="74.938" y="9.014"/><use xlink:href="#j" x="77.927" y="9.014"/><use xlink:href="#k" x="85.899" y="6.781"/><use xlink:href="#l" x="90.686" y="6.781"/><use xlink:href="#c" x="94.232" y="9.014"/><use xlink:href="#b" x="100.811" y="9.014"/><use xlink:href="#m" x="56.73" y="127.697"/><use xlink:href="#b" x="64.701" y="125.464"/><use xlink:href="#c" x="68.729" y="127.697"/><use xlink:href="#d" x="75.308" y="127.697"/><use xlink:href="#e" x="83.049" y="127.697"/><use xlink:href="#f" x="85.6" y="127.697"/><use xlink:href="#n" x="21.743" y="83.116"/><use xlink:href="#h" x="27.721" y="83.116"/><use xlink:href="#o" x="35.695" y="83.116"/><use xlink:href="#j" x="8.162" y="98.537"/><use xlink:href="#h" x="14.14" y="98.537"/><use xlink:href="#p" x="22.114" y="98.537"/><use xlink:href="#q" x="28.641" y="98.537"/><use xlink:href="#r" x="38.277" y="98.537"/><use xlink:href="#s" x="43.346" y="98.537"/><use xlink:href="#t" x="49.324" y="98.537"/><use xlink:href="#u" x="52.803" y="98.537"/></svg>