<svg xmlns="http://www.w3.org/2000/svg" xmlns:xlink="http://www.w3.org/1999/xlink" width="193pt" height="116pt" viewBox="0 0 193 116"><defs><path id="g" d="m5.36-.937-.094-.235c-.438.36-.735.531-.922.531S4-.75 3.89-.984a4.8 4.8 0 0 1-.313-1.032l-.203-1.203.422-.578c.547-.781.875-1.062 1.25-1.062.187 0 .328.109.39.28l.172-.046.172-1.016c-.14-.078-.25-.125-.36-.125-.468 0-.952.438-1.687 1.532l-.453.656-.062-.563c-.14-1.187-.469-1.625-1.172-1.625-.313 0-.578.094-.688.25l-.687 1 .203.11c.36-.407.594-.563.828-.563.39 0 .656.485.86 1.657l.124.75-.468.734C1.703-1.031 1.297-.641.953-.641.781-.64.641-.687.625-.75l-.14-.344-.235.047c0 .234-.016.39-.094.766-.031.156-.031.187-.047.265.172.094.375.141.516.141.39 0 .86-.344 1.234-.906l.907-1.39.125.827C3.063-.328 3.328.125 3.75.125c.266 0 .656-.203 1.031-.547Zm0 0"/><path id="j" d="M4.406-4.36c.032-.452.094-.843.188-1.327-.14-.063-.188-.079-.25-.079-.36 0-.735.297-1.172.907-.406.578-.813 1.156-1.11 1.797l.297-1.5c.063-.266.157-.547.157-.813 0-.25-.094-.39-.282-.39-.25 0-.703.25-1.593.89l-.328.234.078.235.39-.25c.328-.203.469-.266.563-.266.125 0 .203.11.203.266 0 .687-.5 3.156-.984 4.687L.688.11q.375-.117.796-.187L1.797-1.5c.219-1 .484-1.625 1.016-2.312.406-.532.718-.782.984-.782.187 0 .297.063.437.235Zm0 0"/><path id="p" d="M9.016-7.937v-.329c-.391.016-.766.032-1.157.032-.5 0-.984-.016-1.468-.032v.329l.297.03c.453.032.687.157.687.376 0 .125-.047.265-.187.5l-3.485 5.89-.844-6.312c-.046-.375.172-.453.5-.453l.5-.032v-.328c-.484.016-.984.032-1.484.032S1.391-8.25.891-8.266v.329l.297.03c.53.048.656.126.718.563L2.953.094h.578l4.531-7.39c.297-.485.391-.579.735-.61Zm0 0"/><path id="h" d="M3.656.031v-.265l-.453-.032c-.484-.03-.562-.125-.562-.578v-5.203l-.125-.031a15 15 0 0 1-1.985.844l.063.375h.078c.39-.188.781-.36 1.156-.516.063 0 .078.078.078.281v4.25c0 .453-.093.547-.578.578l-.484.032V.03C1.328.016 1.813 0 2.28 0s.922.016 1.375.031m0 0"/><path id="i" d="M4.11.031c-.032-.187-.032-.281-.032-.406 0-.11 0-.187.031-.39l-3.046.093 1.609-1.687c.844-.907 1.11-1.391 1.11-2.047 0-1.016-.688-1.64-1.798-1.64-.64 0-1.062.187-1.5.624l-.14 1.188h.25l.11-.407c.14-.5.468-.718 1.046-.718.75 0 1.234.468 1.234 1.218 0 .657-.359 1.297-1.359 2.36L.141-.203V.03C.78.016 1.453 0 2.094 0c.672 0 1.344.016 2.015.031m0 0"/><path id="k" d="M8.438-7.906v-.36c-.422.016-.86.032-1.297.032-.422 0-.86-.016-1.282-.032v.36l.625.031c.282.016.407.172.407.375 0 .11-.047.25-.094.406l-2.188 5.64L2.25-7.5c-.016-.047-.016-.062-.016-.11 0-.124.11-.25.375-.265l.672-.031v-.36c-.531.016-1.062.032-1.594.032-.53 0-1.062-.016-1.593-.032v.36l.437.031c.25.016.375.14.516.484l2.25 5.532c.375.906.515 1.328.703 1.968h.594c.218-.75.36-1.14.765-2.093l2.079-5.032c.265-.656.421-.843.64-.859Zm0 0"/><path id="l" d="M6.14-2.828c0-1.625-1.171-2.781-2.812-2.781C1.594-5.61.375-4.375.375-2.594.375-.906 1.453.234 2.985.234c1.843 0 3.156-1.28 3.156-3.062m-1.109.437c0 1.375-.61 2.235-1.578 2.235C2.281-.156 1.5-1.296 1.5-3c0-1.437.563-2.219 1.625-2.219 1.094 0 1.906 1.203 1.906 2.828m0 0"/><path id="m" d="M3.234.031v-.36l-.546-.03c-.407-.016-.438-.11-.438-.86v-7.36l-.11-.093c-.53.203-.921.297-1.859.438v.328h.657c.218 0 .312.14.312.5v6.187c0 .75-.047.844-.453.86L.25-.33v.36c.5-.014 1-.03 1.5-.03s.984.016 1.484.031m0 0"/><path id="n" d="M2.188-.64c0-.344-.329-.688-.704-.688-.359 0-.687.344-.687.687 0 .36.328.704.672.704.39 0 .718-.329.718-.704m0 0"/><path id="o" d="M6.766-3.687v-.672H.484v.672Zm0 2.062v-.672H.484v.672Zm0 0"/><clipPath id="a"><path d="M0 99h70v16.535H0Zm0 0"/></clipPath><clipPath id="b"><path d="M123 99h70v16.535h-70Zm0 0"/></clipPath><clipPath id="c"><path d="M66 95h15v1H66Zm0 0"/></clipPath><clipPath id="d"><path d="M-.191 115.535h194v-116h-194ZM80.227 95.22v.84l-8.637 1.379 7.2-1.801-7.2-1.801Zm0 0" clip-rule="evenodd"/></clipPath><clipPath id="e"><path d="M112 95h15v1h-15Zm0 0"/></clipPath><clipPath id="f"><path d="M-.191 115.535h194v-116h-194ZM112.387 96.06v-.84l8.64-1.383-7.199 1.8 7.2 1.802Zm0 0" clip-rule="evenodd"/></clipPath></defs><path fill="none" stroke="#000" stroke-miterlimit="10" stroke-width=".45" d="m96.309 51.117-15-49.98h-31.5l-4.5 9v4.5"/><path fill="none" stroke="#000" stroke-miterlimit="10" stroke-width=".45" d="m92.707 62.996-15.898-52.86h-22.5v4.5m75.179 42.004a10.9 10.9 0 0 0 10.77 9.235 10.89 10.89 0 0 0 10.824-9.656m21.668.238c-.004.04-.004.074-.004.113 0 5.387 4.367 9.75 9.75 9.75 5.36 0 9.715-4.324 9.75-9.683m-148.437-.18v.113a9.75 9.75 0 0 0 9.75 9.75c5.359 0 9.714-4.324 9.75-9.683"/><g clip-path="url(#a)"><path fill="none" stroke="#000" stroke-miterlimit="10" stroke-width=".45" d="M.547 105.715a59.44 59.44 0 0 0 31.836 9.242 59.5 59.5 0 0 0 31.164-8.82"/></g><path fill="none" stroke="#000" stroke-miterlimit="10" stroke-width=".45" d="M.55 56.64a10.89 10.89 0 0 0 10.766 9.235c5.54 0 10.2-4.152 10.829-9.656m.125.062a10.753 10.753 0 0 0 21.414.18m107.464-.18a10.753 10.753 0 0 0 21.414.18"/><g clip-path="url(#b)"><path fill="none" stroke="#000" stroke-miterlimit="10" stroke-width=".45" d="M129.488 105.715a59.43 59.43 0 0 0 31.836 9.242 59.5 59.5 0 0 0 31.164-8.82"/></g><path fill="none" stroke="#000" stroke-miterlimit="10" stroke-width=".45" d="M192.488 25.797c0 4.969-14.101 9-31.5 9-17.398 0-31.5-4.031-31.5-9s14.102-9 31.5-9c17.399 0 31.5 4.031 31.5 9Zm-128.941 0c0 4.969-14.102 9-31.5 9-17.395 0-31.5-4.031-31.5-9s14.105-9 31.5-9c17.398 0 31.5 4.031 31.5 9Zm81.84-11.699 2.52 7.98m-4.739-7.801.238 7.801m-3.179-7.922-1.5 8.403"/><g clip-path="url(#c)"><g clip-path="url(#d)"><path fill="none" stroke="#000" stroke-miterlimit="10" stroke-width=".45" d="M66.309 95.637h13.5"/></g></g><path fill="none" stroke="#000" stroke-miterlimit="10" stroke-width=".45" d="m71.59 93.836 7.2 1.8-7.2 1.802m-8.043-6.301h20.82l26.942-90h31.558l4.442 9v4.5m-100.082-.539-2.52 7.98m4.801-7.801-.238 7.801m3.117-7.922 1.5 8.403"/><g clip-path="url(#e)"><g clip-path="url(#f)"><path fill="none" stroke="#000" stroke-miterlimit="10" stroke-width=".45" d="M126.309 95.637h-13.5"/></g></g><path fill="none" stroke="#000" stroke-miterlimit="10" stroke-width=".45" d="m121.027 97.438-7.199-1.801 7.2-1.801m8.582-2.758h-21.544L99.79 63.176"/><path fill="none" stroke="#000" stroke-miterlimit="10" stroke-width=".45" d="M129.488 100.195h-25.8l-7.38-25.078"/><path fill="none" stroke="#000" stroke-miterlimit="10" stroke-width=".45" d="M63.547 100.137h25.262l27-90h22.5v4.5M63.547 25.676v80.64m65.941-80.64v80.16m63-80.16v80.582M.547 25.676v80.16"/><use xlink:href="#g" x="24.859" y="86.677"/><use xlink:href="#h" x="31.195" y="88.47"/><use xlink:href="#g" x="155.362" y="86.677"/><use xlink:href="#i" x="161.698" y="88.47"/><use xlink:href="#j" x="117.726" y="109.177"/><use xlink:href="#j" x="72.727" y="109.177"/><use xlink:href="#k" x="8.715" y="104.677"/><use xlink:href="#l" x="16.271" y="104.677"/><use xlink:href="#m" x="22.798" y="104.677"/><use xlink:href="#n" x="26.277" y="104.677"/><use xlink:href="#o" x="32.255" y="104.677"/><use xlink:href="#p" x="42.249" y="104.677"/><use xlink:href="#k" x="139.218" y="104.677"/><use xlink:href="#l" x="146.774" y="104.677"/><use xlink:href="#m" x="153.301" y="104.677"/><use xlink:href="#n" x="156.78" y="104.677"/><use xlink:href="#o" x="162.758" y="104.677"/><use xlink:href="#p" x="172.752" y="104.677"/></svg>