<svg xmlns="http://www.w3.org/2000/svg" xmlns:xlink="http://www.w3.org/1999/xlink" width="124" height="72" viewBox="0 0 93 54"><defs><path id="c" d="M6.844-1.953h-.422l-.063.406c-.078.5-.234.875-.39.938-.25.078-1.125.14-2.203.14-.625 0-.844-.015-1.188-.094v-3.343L4.5-3.937c.516 0 .75.046.828.437.047.266.063.703.063.703h.359c-.031-.437-.031-.89-.031-1.328 0-.469 0-.922.031-1.39h-.36s0 .406-.062.624c-.094.407-.312.454-.828.454-.61 0-1.39-.016-1.922-.047v-3.188c.375-.078.578-.094 1.406-.094.672 0 1.344.063 1.735.157.281.093.312.14.312.406v.781h.422c0-.719.063-1.281.188-1.812l-1.485-.032c-.906.016-1.843.032-2.765.032a94 94 0 0 1-2.125-.032v.36l.578.031c.547.031.61.125.61 1.078v5.36c0 .953-.048 1.03-.61 1.078l-.438.03v.36C.891.016 1.391 0 1.875 0c.922 0 1.86.016 2.781.031L6.641 0c0-.687.078-1.344.203-1.953m0 0"/><path id="d" d="M7-2.062h-.375l-.14.609c-.11.469-.204.719-.266.766-.157.14-1.203.218-2.625.218-.422 0-.703-.015-1.016-.094v-6.234c0-.953.063-1.047.61-1.078l.578-.031v-.36c-.594.016-1.172.032-1.75.032-.594 0-1.172-.016-1.75-.032v.36l.578.031c.547.031.61.125.61 1.078v5.656c0 .36-.11.61-.313.704l-.36.203V.03C1.171.016 1.563 0 1.953 0c.938 0 1.86.031 2.797.031.5 0 .375 0 2-.031.094-.516.14-.89.25-2.062m0 0"/><path id="e" d="m8.016-1-.11-.125a4.5 4.5 0 0 1-2.484.719c-2.328 0-3.875-1.547-3.875-3.906 0-2.204 1.36-3.657 3.406-3.657 1.172 0 2.39.469 2.39.938v.86h.36c.016-.595.063-1.032.234-1.813-1.015-.328-1.89-.485-2.765-.485-1.031 0-2.031.25-2.828.719C.984-6.953.266-5.703.266-4.094.266-1.5 2.156.234 4.953.234c1 0 1.89-.203 2.719-.64Zm0 0"/><path id="f" d="M8 .031v-.36c-.39-.03-.578-.108-.734-.312l-2.72-3.53c.673-.173.985-.298 1.376-.579.625-.437.969-1.031.969-1.734 0-1.141-.782-1.782-2.344-1.782-.703 0-1.422.032-2.125.032S1.047-8.25.344-8.266v.36l.5.031c.547.031.61.14.61 1.078v5.36c0 .953-.063 1.046-.61 1.078l-.578.03v.36C.844.016 1.422 0 2.016 0c.578 0 1.156.016 1.75.031v-.36l-.578-.03c-.547-.032-.61-.125-.61-1.078v-6.235c.406-.094.766-.14 1.172-.14 1.25 0 1.938.562 1.938 1.578 0 1.109-.875 1.797-2.25 1.797h-.36v.187c.266.297.36.422.563.688C4.53-2.36 5.42-1.156 6.328.03 6.594.016 6.86 0 7.141 0s.562.016.859.031m0 0"/><clipPath id="a"><path d="M75 22h18v31.535H75Zm0 0"/></clipPath><clipPath id="b"><path d="M23 31h57v22.535H23Zm0 0"/></clipPath></defs><g clip-path="url(#a)"><path fill="none" stroke="#000" stroke-miterlimit="10" stroke-width=".9" d="M88.21 34.918h.04a3.888 3.888 0 1 1 0 7.773h-.04"/></g><path fill="none" stroke="#000" stroke-miterlimit="10" stroke-width=".9" d="M88.207 11.816h.008a3.91 3.91 0 0 1 3.906 3.907 3.91 3.91 0 0 1-3.906 3.906h-.008"/><path fill="none" stroke="#000" stroke-miterlimit="10" stroke-width=".9" d="M88.21 19.559h.04a3.882 3.882 0 1 1 0 7.761h-.04"/><path fill="none" stroke="#000" stroke-miterlimit="10" stroke-width=".9" d="M88.21 27.238h.04a3.888 3.888 0 1 1 0 7.774h-.04M18.07 23.398a8.58 8.58 0 0 1-8.582 8.579A8.577 8.577 0 0 1 .91 23.398c0-4.738 3.84-8.582 8.578-8.582a8.584 8.584 0 0 1 8.582 8.582Zm0 0"/><path fill="none" stroke="#000" stroke-miterlimit="10" stroke-width=".45" d="M67.027 48.418h21.18v-5.82M51.668 4.137h36.539v7.68"/><g clip-path="url(#b)"><path fill="none" stroke="#000" stroke-miterlimit="10" stroke-width=".9" d="m36.25 48.418 3.84-3.84 3.898 7.68 5.7-7.68 3.902 7.68 5.758-7.68 3.84 7.68 3.84-3.84"/></g><path fill="none" stroke="#000" stroke-miterlimit="10" stroke-width=".9" d="M47.828.297v7.68m3.84-7.68v7.68"/><path fill="none" stroke="#000" stroke-miterlimit="10" stroke-width=".45" d="M9.309 14.996V4.136h38.52M9.309 31.855v16.563H36.25"/><use xlink:href="#c" x="6.089" y="27.257"/><use xlink:href="#d" x="77.491" y="30.197"/><use xlink:href="#e" x="45.57" y="20.057"/><use xlink:href="#f" x="45.87" y="39.977"/></svg>