<svg xmlns="http://www.w3.org/2000/svg" xmlns:xlink="http://www.w3.org/1999/xlink" width="431pt" height="146pt" viewBox="0 0 431 146"><defs><path id="g" d="M2.422.234c2.078 0 3.594-.906 3.594-3.03 0-.532-.172-.876-.5-1.173-.407-.39-.907-.594-2.25-.781-1.453-.187-1.97-.578-1.97-1.5 0-1 .75-1.719 1.798-1.719.469 0 .906.094 1.234.266.39.203.531.39.563.734l.062.688h.39c0-.64.048-1.047.173-1.688-.97-.39-1.5-.5-2.157-.5C1.58-8.469.281-7.344.281-5.78c0 .578.156 1.015.5 1.328.407.375.969.562 2.125.719.922.14 1.344.28 1.64.547.313.265.47.593.47 1.046 0 1.079-.907 1.86-2.141 1.86-.969 0-1.89-.469-1.953-.969l-.094-.797h-.39c.015.219.015.406.015.485C.453-1.016.437-.75.36-.22c.688.297 1.375.453 2.063.453m0 0"/><path id="h" d="M10.39.031v-.36l-.562-.03c-.406-.016-.437-.11-.437-.86v-2.468c0-1.172-.703-1.922-1.797-1.922-.422 0-.766.109-.985.297l-.906.812C5.313-5.281 4.828-5.61 4-5.61c-.437 0-.766.11-.984.298l-.828.765v-1.016l-.11-.046c-.61.25-1.234.422-1.86.5v.328h.438c.485 0 .532.078.532.875v2.687c0 .75-.047.844-.454.86l-.546.03v.36A49 49 0 0 1 1.703 0c.484 0 .953.016 1.422.031v-.36l-.5-.03c-.406-.016-.437-.11-.437-.86V-3.75c0-.547.78-1.125 1.5-1.125.656 0 1.093.61 1.093 1.516v2.14c0 .75-.031.844-.437.86l-.547.03v.36C4.297.016 4.78 0 5.28 0s1 .016 1.5.031v-.36l-.547-.03c-.406-.016-.453-.11-.453-.86V-3.75c0-.547.797-1.125 1.516-1.125.64 0 1.078.61 1.078 1.516V.03c.314-.014.641-.03.954-.03.36 0 .703.016 1.063.031m0 0"/><path id="i" d="M5.625.031v-.36l-.469-.015c-.281-.015-.328-.11-.328-.703v-2.187c0-1.735-.5-2.375-1.89-2.375-.516 0-.985.14-1.438.406l-.64.39v.766l.312.094.156-.375c.234-.563.375-.64.922-.64 1.125 0 1.594.437 1.625 1.53l-1.187.204C1.062-2.922.374-2.36.374-1.328.375-.391.938.14 1.891.14c.218 0 .422-.032.5-.094l1.484-1.03L3.813.03C4.125.016 4.437 0 4.75 0c.297 0 .578.016.875.031m-1.75-1.515c-.344.5-1.11.953-1.562.953-.485 0-.907-.453-.907-.969 0-.437.25-.86.61-1.078.297-.188.953-.344 1.859-.485Zm0 0"/><path id="j" d="M3.234.031v-.36l-.546-.03c-.407-.016-.438-.11-.438-.86v-7.36l-.11-.093c-.53.203-.921.297-1.859.438v.328h.657c.218 0 .312.14.312.5v6.187c0 .75-.047.844-.453.86L.25-.33v.36c.5-.014 1-.03 1.5-.03s.984.016 1.484.031m0 0"/><path id="k" d="M6.844.031v-.36l-.5-.03c-.407-.016-.438-.094-.438-.86V-3.53c0-1.39-.656-2.078-2-2.078-.437 0-.687.093-.937.297l-.906.796v-1.046l-.11-.047c-.61.25-1.234.422-1.875.5v.328h.453c.469 0 .516.078.516.875v2.687c0 .75-.031.844-.438.86l-.53.03v.36A45 45 0 0 1 1.546 0c.5 0 1 .016 1.484.031v-.36L2.5-.358c-.406-.016-.437-.11-.437-.86V-3.75c0-.547.78-1.125 1.515-1.125.797 0 1.328.594 1.328 1.516V.03C5.22.016 5.531 0 5.844 0c.343 0 .656.016 1 .031m0 0"/><path id="l" d="m6.5-5.016-.047-.14-1.703.047c-.437-.36-.86-.5-1.453-.5-.531 0-1.14.172-1.625.453C1-4.766.656-4.188.656-3.453c0 .89.547 1.5 1.438 1.594l-.953.718c-.11.188-.172.344-.172.516 0 .344.219.531.781.703L.719.641c-.172.093-.344.53-.344.906 0 1.078 1.078 1.828 2.594 1.828 1.797 0 3.219-1.125 3.219-2.594 0-.86-.563-1.453-1.407-1.453H2.875c-.625 0-.922-.14-.922-.469 0-.156.11-.28.406-.546.079-.063.11-.079.157-.125.109 0 .187.015.28.015.517 0 1.142-.219 1.642-.562.53-.407.796-.875.796-1.516 0-.234-.03-.39-.125-.64h1.094Zm-2.266 1.5c0 .782-.5 1.313-1.234 1.313-.797 0-1.344-.625-1.344-1.531 0-.922.453-1.47 1.219-1.47.813 0 1.36.673 1.36 1.688M5.25 1.22c0 1.031-.953 1.797-2.203 1.797-1.031 0-1.75-.61-1.75-1.5 0-.532.312-1.016.781-1.235.188-.078.531-.11 1.36-.11C4.78.172 5.25.438 5.25 1.22m0 0"/><path id="m" d="M6.938.031v-.36l-.485-.03c-.406-.016-.437-.094-.437-.86v-4.343l-.11-.047c-.61.25-1.234.422-1.86.5v.328h.438c.47 0 .532.078.532.875v1.953c0 .25-.172.594-.453.86a1.57 1.57 0 0 1-1.188.515c-.406 0-.75-.14-.937-.36-.172-.203-.25-.562-.25-1.093v-3.531l-.11-.047c-.61.25-1.234.422-1.86.5v.328h.438c.485 0 .532.078.532.875v2c0 .843.062 1.219.28 1.515.266.36.72.532 1.407.532.531 0 1.016-.172 1.328-.47l.813-.733c0 .343-.016.53-.063 1.093.344-.015.672-.031 1-.031s.656.016.984.031m0 0"/><path id="n" d="M4.469-5.469c-.125-.093-.344-.14-.563-.14-.36 0-.734.187-.984.5l-.672.78v-1.234l-.11-.046a7.3 7.3 0 0 1-1.859.5v.328H.72c.469 0 .531.078.531.875v2.687c0 .75-.047.844-.453.86L.25-.33v.36C.734.016 1.234 0 1.719 0c.578 0 1.14.016 1.719.031v-.36l-.626-.03c-.546-.032-.562-.079-.562-.86V-3.28c0-.719.469-1.313 1.063-1.313.359 0 .609.172.796.547h.25Zm0 0"/><path id="o" d="M6.438-5.156v-.328c-.36.015-.75.03-1.125.03-.36 0-.75-.015-1.11-.03v.328l.484.031c.204.016.297.11.297.313s-.078.468-.234.875l-.5 1.265L3.5-1 2.078-4.453a1 1 0 0 1-.094-.406c0-.157.079-.25.282-.266l.593-.031v-.328c-.468.015-.937.03-1.406.03s-.922-.015-1.375-.03v.328l.406.031c.204.016.25.11.36.39L2.906.079H3.5c.078-.39.25-.765.5-1.297l1.406-3.11c.266-.609.422-.78.672-.796Zm0 0"/><path id="p" d="M5.36-3.328c0-1.375-.891-2.281-2.235-2.281-.437 0-.953.156-1.437.453C.703-4.61.313-3.86.313-2.625c0 .766.171 1.406.5 1.86.468.64 1.28 1 2.171 1 .454 0 .891-.094 1.375-.313.329-.125.579-.281.625-.36l.235-.406-.157-.11c-.765.454-1.03.563-1.546.563-.782 0-1.422-.343-1.766-.937-.219-.39-.297-.734-.328-1.422h1.75c.828 0 1.328-.031 2.156-.172.016-.156.031-.265.031-.406m-1.063.14-1.344.032c-.547 0-.86-.016-1.5-.078 0-.563.047-.813.203-1.125a1.47 1.47 0 0 1 1.328-.86c.391 0 .704.157.922.485.266.39.39.734.39 1.547m0 0"/><path id="q" d="M6.14-2.828c0-1.625-1.171-2.781-2.812-2.781C1.594-5.61.375-4.375.375-2.594.375-.906 1.453.234 2.985.234c1.843 0 3.156-1.28 3.156-3.062m-1.109.437c0 1.375-.61 2.235-1.578 2.235C2.281-.156 1.5-1.296 1.5-3c0-1.437.563-2.219 1.625-2.219 1.094 0 1.906 1.203 1.906 2.828m0 0"/><path id="r" d="m4.938-.547-.125-.187c-.438.25-.813.359-1.25.359-1.329 0-2.204-1.031-2.204-2.61 0-1.28.594-2 1.672-2 .531 0 1.11.235 1.313.532l.093.734h.329c0-.547.062-1.031.172-1.469-.485-.28-.891-.421-1.391-.421-.578 0-1.235.234-1.953.687C.75-4.406.313-3.562.313-2.516c0 1.625 1.14 2.75 2.734 2.75.625 0 1.515-.218 1.64-.406Zm0 0"/><path id="s" d="M3.234.031v-.36l-.546-.03c-.407-.016-.438-.11-.438-.86v-4.343l-.11-.047a7.3 7.3 0 0 1-1.859.5v.328H.72c.469 0 .531.078.531.875v2.687c0 .75-.047.844-.453.86L.25-.33v.36c.5-.014 1-.03 1.5-.03s.984.016 1.484.031m-.89-7.64c0-.344-.235-.61-.594-.61-.36 0-.61.25-.61.61 0 .359.25.593.61.593s.594-.234.594-.593m0 0"/><path id="t" d="m3.813-5.219-1.641.078v-.453c0-.5.047-.937.14-1.703l-.156-.125c-.281.172-.64.328-1.015.453.046.36.046.578.046.938v.843l-.921.422v.25l.906-.046v3.437c0 .89.39 1.266 1.312 1.266.282 0 .563-.063.641-.141l.563-.64-.157-.204c-.297.172-.469.235-.703.235-.469 0-.656-.235-.656-.828v-3.125h1.531Zm0 0"/><path id="u" d="M4.672-1.766c0-.375-.094-.656-.328-.89-.313-.313-.703-.438-1.766-.64-.969-.188-1.297-.438-1.297-.985 0-.594.422-.938 1.14-.938.813 0 1.423.422 1.423.985v.28h.328c.016-.702.031-.983.062-1.358-.64-.204-1.062-.297-1.562-.297-1.375 0-2.234.656-2.234 1.734 0 .578.265.984.812 1.234.328.141.969.329 1.781.516.531.11.766.375.766.828 0 .64-.61 1.094-1.453 1.094-.875 0-1.5-.422-1.5-1.016v-.484h-.36C.484-.891.454-.531.36-.047.984.156 1.453.234 2 .234c1.563 0 2.672-.828 2.672-2m0 0"/><path id="v" d="M7-2.062h-.375l-.14.609c-.11.469-.204.719-.266.766-.157.14-1.203.218-2.625.218-.422 0-.703-.015-1.016-.094v-6.234c0-.953.063-1.047.61-1.078l.578-.031v-.36c-.594.016-1.172.032-1.75.032-.594 0-1.172-.016-1.75-.032v.36l.578.031c.547.031.61.125.61 1.078v5.656c0 .36-.11.61-.313.704l-.36.203V.03C1.171.016 1.563 0 1.953 0c.938 0 1.86.031 2.797.031.5 0 .375 0 2-.031.094-.516.14-.89.25-2.062m0 0"/><path id="w" d="M6.844-6.031c0-1.36-.39-2.36-1.907-2.36C1.829-8.39.845-4.92.845-2.375.844-.953 1.28.188 2.906.188c2.813 0 3.938-3.97 3.938-6.22m-.875-.157c0 .547-.094 1.094-.188 1.641H2.016c.28-1.25 1.156-3.531 2.703-3.531 1.031 0 1.25 1.078 1.25 1.89m-.25 2.016c-.266 1.344-.922 4.016-2.64 4.016C1.874-.156 1.75-1.5 1.75-2.422c0-.594.11-1.172.203-1.75Zm0 0"/><path id="z" d="M7.266-5.578c-.828.016-1.672.047-2.516.047-1.016 0-2.047-.032-3.062-.032-.782-.015-.938.907-1.157 1.5l.016.079.094.062.093-.047c.485-.75.766-.875 1.672-.875h.266C2.234-3.172 1.844-1.547 1.125.031l.094.11c.234-.063.656-.157.875-.297.453-1.531.765-3.125 1.062-4.688h2.719C5.219-3.797 4.75-2.547 4.75-1.297c0 .594.203 1.469.922 1.469.5 0 1.125-.469 1.484-.781l.032-.079-.063-.093-.094-.016c-.203.125-.437.297-.734.297-.656 0-.734-1-.734-1.484 0-1.016.312-2 .828-2.86L7.125-5c.016-.203.094-.406.14-.578m0 0"/><path id="x" d="M.781-4.14H7.22v-.72H.78Zm0 2.53H7.22v-.702H.78Zm0 0"/><path id="y" d="M5.563-4.375c0-2.625-.782-3.86-2.422-3.86-1.844 0-2.797 1.47-2.797 4.36 0 1.406.25 2.61.672 3.188.422.593 1.093.921 1.828.921 1.812 0 2.719-1.546 2.719-4.609m-1.016.594c0 2.547-.453 3.61-1.547 3.61-1.156 0-1.656-1.22-1.656-4.126 0-2.531.453-3.516 1.578-3.516 1.172 0 1.625 1.172 1.625 4.032m0 0"/><clipPath id="a"><path d="M69 95h94v27H69Zm0 0"/></clipPath><clipPath id="b"><path d="M-1.816-.465v147h431v-147Zm85.203 105.043-7.621-4.98-1.922 3 7.562 4.98-4.98-5.402Zm65.578 4.14 9.3-6.12-1.921-3-9.297 6.12 8.52-3.421Zm0 0" clip-rule="evenodd"/></clipPath><clipPath id="c"><path d="M316 13h84v84h-84Zm0 0"/></clipPath><clipPath id="d"><path d="M-1.816-.465v147h431v-147Zm396.062 51.102-2.16-8.82-3.48.84 2.16 8.82.058-7.38Zm0 0" clip-rule="evenodd"/></clipPath><clipPath id="e"><path d="M391 0h38.184v38H391Zm0 0"/></clipPath><clipPath id="f"><path d="M329 0h100.184v83H329Zm0 0"/></clipPath></defs><g clip-path="url(#a)"><g clip-path="url(#b)"><path fill="none" stroke="#000" stroke-miterlimit="10" stroke-width=".45" d="M156.586 101.637a67.5 67.5 0 0 1-40.5 13.5 67.5 67.5 0 0 1-40.5-13.5"/></g></g><path fill-rule="evenodd" d="m148.965 108.719 6.601-6.422-8.52 3.422 2.458.476z"/><path fill="none" stroke="#000" stroke-miterlimit="10" stroke-width=".45" d="m148.965 108.719 6.601-6.422-8.52 3.422 2.458.476Zm0 0"/><path fill-rule="evenodd" d="m83.387 104.578-6.961-2.402 4.98 5.402z"/><path fill="none" stroke="#000" stroke-miterlimit="10" stroke-width=".45" d="m83.387 104.578-6.961-2.402 4.98 5.402Zm0 0"/><path fill-rule="evenodd" d="M165.887 95.398a5.342 5.342 0 0 1-10.684 0 5.343 5.343 0 0 1 10.684 0"/><path fill="none" stroke="#000" stroke-miterlimit="10" stroke-width="1.8" d="M165.887 95.398a5.342 5.342 0 0 1-10.684 0 5.343 5.343 0 0 1 10.684 0Zm-50.403-65.703 47.461 66.48"/><path fill="none" stroke="#000" stroke-miterlimit="10" stroke-width=".45" d="M116.086 32.035v80.703"/><g clip-path="url(#c)"><g clip-path="url(#d)"><path fill="none" stroke="#000" stroke-miterlimit="10" stroke-width=".45" d="M381.586 29.64a35.07 35.07 0 0 0-23.898-9.398c-19.375 0-35.083 15.707-35.083 35.082s15.708 35.082 35.083 35.082S392.77 74.7 392.77 55.324c0-4.16-.739-8.285-2.184-12.183"/></g></g><path fill-rule="evenodd" d="m394.246 50.637-3.422-6.54-.058 7.38z"/><path fill="none" stroke="#000" stroke-miterlimit="10" stroke-width=".45" d="m394.246 50.637-3.422-6.54-.058 7.38Zm0 0"/><path fill-rule="evenodd" d="M17.926 115.137a5.34 5.34 0 1 1-10.68 0 5.34 5.34 0 0 1 10.68 0"/><path fill="none" stroke="#000" stroke-miterlimit="10" stroke-width="1.8" d="M17.926 115.137a5.34 5.34 0 1 1-10.68 0 5.34 5.34 0 0 1 10.68 0Zm0 0"/><path fill-rule="evenodd" d="M247.426 7.137a5.34 5.34 0 1 1-10.68 0 5.34 5.34 0 0 1 10.68 0"/><path fill="none" stroke="#000" stroke-miterlimit="10" stroke-width="1.8" d="M247.426 7.137a5.34 5.34 0 1 1-10.68 0 5.34 5.34 0 0 1 10.68 0Zm0 0"/><path fill-rule="evenodd" d="M427.426 7.137a5.34 5.34 0 1 1-10.68 0 5.34 5.34 0 0 1 10.68 0"/><g clip-path="url(#e)"><path fill="none" stroke="#000" stroke-miterlimit="10" stroke-width="1.8" d="M427.426 7.137a5.34 5.34 0 1 1-10.68 0 5.34 5.34 0 0 1 10.68 0Zm0 0"/></g><path fill="none" stroke="#000" stroke-miterlimit="10" stroke-width="1.8" d="M12.586 29.637v81m229.5-31.5v-72"/><g clip-path="url(#f)"><path fill="none" stroke="#000" stroke-miterlimit="10" stroke-width="1.8" d="m354.586 56.637 66.48-47.461"/></g><use xlink:href="#g" x="66.586" y="142.157"/><use xlink:href="#h" x="72.862" y="142.157"/><use xlink:href="#i" x="83.419" y="142.157"/><use xlink:href="#j" x="89.397" y="142.157"/><use xlink:href="#j" x="92.875" y="142.157"/><use xlink:href="#i" x="99.343" y="142.157"/><use xlink:href="#k" x="105.321" y="142.157"/><use xlink:href="#l" x="112.279" y="142.157"/><use xlink:href="#m" x="118.926" y="142.157"/><use xlink:href="#j" x="126.135" y="142.157"/><use xlink:href="#i" x="129.614" y="142.157"/><use xlink:href="#n" x="135.591" y="142.157"/><use xlink:href="#o" x="143.303" y="142.157"/><use xlink:href="#p" x="149.579" y="142.157"/><use xlink:href="#j" x="155.306" y="142.157"/><use xlink:href="#q" x="158.785" y="142.157"/><use xlink:href="#r" x="165.312" y="142.157"/><use xlink:href="#s" x="170.62" y="142.157"/><use xlink:href="#t" x="174.099" y="142.157"/><use xlink:href="#s" x="177.997" y="142.157"/><use xlink:href="#p" x="181.475" y="142.157"/><use xlink:href="#u" x="187.202" y="142.157"/><use xlink:href="#v" x="305.092" y="142.157"/><use xlink:href="#i" x="312.397" y="142.157"/><use xlink:href="#n" x="318.374" y="142.157"/><use xlink:href="#l" x="322.977" y="142.157"/><use xlink:href="#p" x="329.385" y="142.157"/><use xlink:href="#i" x="338.101" y="142.157"/><use xlink:href="#k" x="344.078" y="142.157"/><use xlink:href="#l" x="351.036" y="142.157"/><use xlink:href="#m" x="357.683" y="142.157"/><use xlink:href="#j" x="364.892" y="142.157"/><use xlink:href="#i" x="368.371" y="142.157"/><use xlink:href="#n" x="374.349" y="142.157"/><use xlink:href="#o" x="382.06" y="142.157"/><use xlink:href="#p" x="388.336" y="142.157"/><use xlink:href="#j" x="394.063" y="142.157"/><use xlink:href="#q" x="397.542" y="142.157"/><use xlink:href="#r" x="404.069" y="142.157"/><use xlink:href="#s" x="409.377" y="142.157"/><use xlink:href="#t" x="412.856" y="142.157"/><use xlink:href="#s" x="416.754" y="142.157"/><use xlink:href="#p" x="420.233" y="142.157"/><use xlink:href="#u" x="425.959" y="142.157"/><use xlink:href="#w" x="-.796" y="142.157"/><use xlink:href="#x" x="10.227" y="142.157"/><use xlink:href="#y" x="21.548" y="142.157"/><use xlink:href="#w" x="228.708" y="142.157"/><use xlink:href="#x" x="239.731" y="142.157"/><use xlink:href="#z" x="251.052" y="142.157"/></svg>