<svg xmlns="http://www.w3.org/2000/svg" xmlns:xlink="http://www.w3.org/1999/xlink" width="91pt" height="68pt" viewBox="0 0 91 68"><defs><clipPath id="a"><path d="M0 54h91v1H0Zm0 0"/></clipPath><clipPath id="b"><path d="M-.223-.465v69h92v-69Zm80.864 57.5h10.738v-5.398H80.64l9 2.699Zm0 0" clip-rule="evenodd"/></clipPath><clipPath id="c"><path d="M13 0h2v68h-2Zm0 0"/></clipPath><clipPath id="d"><path d="M-.223-.465v69h92v-69Zm16.903 10.64V-.561h-5.403v10.738l2.703-9Zm0 0" clip-rule="evenodd"/></clipPath><clipPath id="e"><path d="M7 11h59v50H7Zm0 0"/></clipPath><clipPath id="f"><path d="M-.223-.465v69h92v-69Zm58.84 21.621 1.563-1.258-2.52-3.18-1.562 1.259Zm0 0" clip-rule="evenodd"/></clipPath><path id="g" d="M6.844-6.031c0-1.36-.39-2.36-1.907-2.36C1.829-8.39.845-4.92.845-2.375.844-.953 1.28.188 2.906.188c2.813 0 3.938-3.97 3.938-6.22m-.875-.157c0 .547-.094 1.094-.188 1.641H2.016c.28-1.25 1.156-3.531 2.703-3.531 1.031 0 1.25 1.078 1.25 1.89m-.25 2.016c-.266 1.344-.922 4.016-2.64 4.016C1.874-.156 1.75-1.5 1.75-2.422c0-.594.11-1.172.203-1.75Zm0 0"/><path id="h" d="M4.406-4.36c.032-.452.094-.843.188-1.327-.14-.063-.188-.079-.25-.079-.36 0-.735.297-1.172.907-.406.578-.813 1.156-1.11 1.797l.297-1.5c.063-.266.157-.547.157-.813 0-.25-.094-.39-.282-.39-.25 0-.703.25-1.593.89l-.328.234.078.235.39-.25c.328-.203.469-.266.563-.266.125 0 .203.11.203.266 0 .687-.5 3.156-.984 4.687L.688.11q.375-.117.796-.187L1.797-1.5c.219-1 .484-1.625 1.016-2.312.406-.532.718-.782.984-.782.187 0 .297.063.437.235Zm0 0"/><path id="j" d="m2.61-1.297-.172-.172c-.329.11-.532.172-1.172.36C1.187-.203.89.578.188 1.719l.171.14.485-.234c.969-1.25 1.422-2 1.765-2.922m0 0"/><path id="i" d="M3.64-9.031C1.813-7.844.72-5.797.72-3.234c0 2.343 1.14 4.578 2.875 5.78l.156-.202C2.094.906 1.813-.484 1.813-3.281c0-2.781.312-4.219 1.937-5.547Zm0 0"/><path id="k" d="m.5-9.031-.125.203C2.015-7.5 2.328-6.063 2.328-3.281c0 2.797-.281 4.187-1.953 5.625l.156.203c1.75-1.203 2.89-3.438 2.89-5.781 0-2.563-1.108-4.61-2.921-5.797m0 0"/></defs><path fill="none" stroke="#000" stroke-miterlimit="10" stroke-width=".45" d="M40.984 54.336a28.18 28.18 0 0 0-5.941-16.918"/><g clip-path="url(#a)"><g clip-path="url(#b)"><path fill="none" stroke="#000" stroke-miterlimit="10" stroke-width=".45" d="M.48 54.336h90"/></g></g><path fill="none" stroke="#000" stroke-miterlimit="10" stroke-width=".45" d="m80.64 57.035 9-2.7-9-2.698"/><g clip-path="url(#c)"><g clip-path="url(#d)"><path fill="none" stroke="#000" stroke-miterlimit="10" stroke-width=".45" d="M13.98 67.836V.336"/></g></g><path fill="none" stroke="#000" stroke-miterlimit="10" stroke-width=".45" d="m16.68 10.176-2.7-9-2.703 9"/><g clip-path="url(#e)"><g clip-path="url(#f)"><path fill="none" stroke="#000" stroke-miterlimit="10" stroke-width=".45" d="m13.98 54.336 45-36"/></g></g><path fill-rule="evenodd" d="m58.5 20.977.18-.18.18-.238.12-.243.118-.3.062-.239v-.3l-.062-.301-.059-.238-.121-.301-.18-.239-.238-.18-.242-.183-.238-.117-.301-.063-.239-.058h-.3l-.301.058-.3.122-.24.12-.241.18-.18.239-.117.242-.121.238-.121.3v.602l.058.239.121.3.18.239.422.422.238.12.242.118.297.062h.301l.3-.062.243-.059.297-.12z"/><path fill="none" stroke="#000" stroke-miterlimit="10" stroke-width=".45" d="m58.5 20.977.18-.18.18-.238.12-.243.118-.3.062-.239v-.3l-.062-.301-.059-.238-.121-.301-.18-.239-.238-.18-.242-.183-.238-.117-.301-.063-.239-.058h-.3l-.301.058-.3.122-.24.12-.241.18-.18.239-.117.242-.121.238-.121.3v.602l.058.239.121.3.18.239.422.422.238.12.242.118.297.062h.301l.3-.062.243-.059.297-.12Zm0 0"/><use xlink:href="#g" x="43.76" y="45.317"/><use xlink:href="#h" x="26.119" y="31.036"/><use xlink:href="#i" x="44.42" y="14.356"/><use xlink:href="#h" x="48.796" y="14.356"/><use xlink:href="#j" x="54.522" y="14.356"/><use xlink:href="#g" x="59.866" y="14.356"/><use xlink:href="#k" x="67.565" y="14.356"/></svg>