<svg xmlns="http://www.w3.org/2000/svg" xmlns:xlink="http://www.w3.org/1999/xlink" width="361pt" height="76pt" viewBox="0 0 361 76"><defs><clipPath id="a"><path d="M12 7h22v36H12Zm0 0"/></clipPath><clipPath id="b"><path d="M-.223-.465v77h362v-77Zm20.02 28.621-3.36 8.403 3.36 1.379 3.36-8.461-4.321 6.058Zm0 0" clip-rule="evenodd"/></clipPath><clipPath id="c"><path d="M30 7h18v36H30Zm0 0"/></clipPath><clipPath id="d"><path d="M-.223-.465v77h362v-77Zm37.84 29.223 1.738 8.879 3.54-.719-1.797-8.883-.301 7.442Zm0 0" clip-rule="evenodd"/></clipPath><clipPath id="e"><path d="M43 7h27v36H43Zm0 0"/></clipPath><clipPath id="f"><path d="M-.223-.465v77h362v-77Zm57.88 30.781 4.679 7.801 3.121-1.86-4.742-7.8 2.222 7.14Zm0 0" clip-rule="evenodd"/></clipPath><clipPath id="g"><path d="M295 7h23v36h-23Zm0 0"/></clipPath><clipPath id="h"><path d="M-.223-.465v77h362v-77Zm303.52 28.621-3.36 8.403 3.36 1.379 3.36-8.461-4.321 6.058Zm0 0" clip-rule="evenodd"/></clipPath><clipPath id="i"><path d="M313 7h18v36h-18Zm0 0"/></clipPath><clipPath id="j"><path d="M-.223-.465v77h362v-77Zm321.34 29.223 1.738 8.879 3.54-.719-1.797-8.883-.301 7.442Zm0 0" clip-rule="evenodd"/></clipPath><clipPath id="k"><path d="M327 7h27v36h-27Zm0 0"/></clipPath><clipPath id="l"><path d="M-.223-.465v77h362v-77Zm341.38 30.781 4.679 7.801 3.121-1.86-4.742-7.8 2.223 7.14Zm0 0" clip-rule="evenodd"/></clipPath><clipPath id="m"><path d="M93 7h49v36H93Zm0 0"/></clipPath><clipPath id="n"><path d="M-.223-.465v77h362v-77Zm105.637 30.961-7.68 4.86 1.922 3.062 7.68-4.86-7.02 2.34Zm0 0" clip-rule="evenodd"/></clipPath><clipPath id="o"><path d="M210 7h54v36h-54Zm0 0"/></clipPath><clipPath id="p"><path d="M-.223-.465v77h362v-77Zm249.16 34.442 7.918 4.441 1.743-3.121-7.922-4.442 5.46 5.102Zm0 0" clip-rule="evenodd"/></clipPath><clipPath id="q"><path d="M138 7h27v36h-27Zm0 0"/></clipPath><clipPath id="r"><path d="M-.223-.465v77h362v-77Zm147.399 28.922-4.738 7.8 3.117 1.86 4.68-7.8-5.22 5.28Zm0 0" clip-rule="evenodd"/></clipPath><clipPath id="s"><path d="M187 7h36v36h-36Zm0 0"/></clipPath><clipPath id="t"><path d="M-.223-.465v77h362v-77Zm209.559 32.34 6.48 6.422 2.52-2.52-6.422-6.48 3.844 6.422Zm0 0" clip-rule="evenodd"/></clipPath><clipPath id="u"><path d="M169 7h18v36h-18Zm0 0"/></clipPath><clipPath id="v"><path d="M-.223-.465v77h362v-77Zm176.02 28.5-1.8 8.883 3.538.719 1.742-8.88-3.12 6.72Zm0 0" clip-rule="evenodd"/></clipPath><path id="w" d="m5.36-.937-.094-.235c-.438.36-.735.531-.922.531S4-.75 3.89-.984a4.8 4.8 0 0 1-.313-1.032l-.203-1.203.422-.578c.547-.781.875-1.062 1.25-1.062.187 0 .328.109.39.28l.172-.046.172-1.016c-.14-.078-.25-.125-.36-.125-.468 0-.952.438-1.687 1.532l-.453.656-.062-.563c-.14-1.187-.469-1.625-1.172-1.625-.313 0-.578.094-.688.25l-.687 1 .203.11c.36-.407.594-.563.828-.563.39 0 .656.485.86 1.657l.124.75-.468.734C1.703-1.031 1.297-.641.953-.641.781-.64.641-.687.625-.75l-.14-.344-.235.047c0 .234-.016.39-.094.766-.031.156-.031.187-.047.265.172.094.375.141.516.141.39 0 .86-.344 1.234-.906l.907-1.39.125.827C3.063-.328 3.328.125 3.75.125c.266 0 .656-.203 1.031-.547Zm0 0"/><path id="x" d="M4.078-3.203c0-1.922-.578-2.844-1.766-2.844C.954-6.047.25-4.969.25-2.844.25-1.813.438-.922.75-.5c.297.438.797.672 1.344.672 1.312 0 1.984-1.14 1.984-3.375m-.734.437c0 1.86-.344 2.641-1.14 2.641-.86 0-1.22-.89-1.22-3.031 0-1.844.329-2.578 1.157-2.578.859 0 1.203.859 1.203 2.968m0 0"/><path id="y" d="M7.281-2.906v-.672H4.344V-6.5h-.657v2.922H.75v.672h2.938V.03h.656v-2.937Zm0 0"/><path id="A" d="M7.219-2.875v-.703H.78v.703Zm0 0"/><path id="z" d="M6.234-3.89c0-1.126-.562-1.766-1.703-1.766-1.422 0-2.781.937-3.14 2.343-.141.516-.203 1.063-.25 1.594C.953-.016.64 1.688.484 3.391A2.8 2.8 0 0 0 1.5 3.17a7 7 0 0 1-.047-.796c0-.922.11-1.844.25-2.719h.047c.313.407.734.516 1.219.516 2.125 0 3.265-2.188 3.265-4.063m-.953.171c0 1.297-.515 3.594-2.156 3.594-.937 0-1.156-.734-1.156-1.531 0-1.25.468-3.61 2.11-3.61.937 0 1.202.72 1.202 1.547m0 0"/><path id="B" d="M6.922.031v-.36l-.547-.03c-.406-.016-.453-.11-.453-.86v-7.36l-.094-.093c-.531.203-.922.297-1.875.438v.328h.672c.219 0 .297.14.297.5v2.187c-.672-.297-1-.39-1.422-.39-.328 0-.61.078-.906.234l-1.047.547C.859-4.468.422-3.594.422-2.578c0 .953.312 1.734.906 2.219.406.343.969.5 1.75.5.235 0 .5-.047.563-.094l1.328-1.11L4.906.032C5.22.016 5.516 0 5.828 0c.36 0 .734.016 1.094.031m-2-2.672c0 .782-.016.891-.172 1.172-.344.563-.922.938-1.484.938-1.047 0-1.813-1.016-1.813-2.438 0-1.312.656-2.078 1.719-2.078.469 0 .937.156 1.36.438.25.172.39.328.39.422Zm0 0"/><path id="C" d="M3.234.031v-.36l-.546-.03c-.407-.016-.438-.11-.438-.86v-4.343l-.11-.047a7.3 7.3 0 0 1-1.859.5v.328H.72c.469 0 .531.078.531.875v2.687c0 .75-.047.844-.453.86L.25-.33v.36c.5-.014 1-.03 1.5-.03s.984.016 1.484.031m-.89-7.64c0-.344-.235-.61-.594-.61-.36 0-.61.25-.61.61 0 .359.25.593.61.593s.594-.234.594-.593m0 0"/><path id="D" d="M6.438-5.156v-.328c-.36.015-.75.03-1.125.03-.36 0-.75-.015-1.11-.03v.328l.484.031c.204.016.297.11.297.313s-.078.468-.234.875l-.5 1.265L3.5-1 2.078-4.453a1 1 0 0 1-.094-.406c0-.157.079-.25.282-.266l.593-.031v-.328c-.468.015-.937.03-1.406.03s-.922-.015-1.375-.03v.328l.406.031c.204.016.25.11.36.39L2.906.079H3.5c.078-.39.25-.765.5-1.297l1.406-3.11c.266-.609.422-.78.672-.796Zm0 0"/><path id="E" d="M5.36-3.328c0-1.375-.891-2.281-2.235-2.281-.437 0-.953.156-1.437.453C.703-4.61.313-3.86.313-2.625c0 .766.171 1.406.5 1.86.468.64 1.28 1 2.171 1 .454 0 .891-.094 1.375-.313.329-.125.579-.281.625-.36l.235-.406-.157-.11c-.765.454-1.03.563-1.546.563-.782 0-1.422-.343-1.766-.937-.219-.39-.297-.734-.328-1.422h1.75c.828 0 1.328-.031 2.156-.172.016-.156.031-.265.031-.406m-1.063.14-1.344.032c-.547 0-.86-.016-1.5-.078 0-.563.047-.813.203-1.125a1.47 1.47 0 0 1 1.328-.86c.391 0 .704.157.922.485.266.39.39.734.39 1.547m0 0"/><path id="F" d="M4.469-5.469c-.125-.093-.344-.14-.563-.14-.36 0-.734.187-.984.5l-.672.78v-1.234l-.11-.046a7.3 7.3 0 0 1-1.859.5v.328H.72c.469 0 .531.078.531.875v2.687c0 .75-.047.844-.453.86L.25-.33v.36C.734.016 1.234 0 1.719 0c.578 0 1.14.016 1.719.031v-.36l-.626-.03c-.546-.032-.562-.079-.562-.86V-3.28c0-.719.469-1.313 1.063-1.313.359 0 .609.172.796.547h.25Zm0 0"/><path id="G" d="m6.5-5.016-.047-.14-1.703.047c-.437-.36-.86-.5-1.453-.5-.531 0-1.14.172-1.625.453C1-4.766.656-4.188.656-3.453c0 .89.547 1.5 1.438 1.594l-.953.718c-.11.188-.172.344-.172.516 0 .344.219.531.781.703L.719.641c-.172.093-.344.53-.344.906 0 1.078 1.078 1.828 2.594 1.828 1.797 0 3.219-1.125 3.219-2.594 0-.86-.563-1.453-1.407-1.453H2.875c-.625 0-.922-.14-.922-.469 0-.156.11-.28.406-.546.079-.063.11-.079.157-.125.109 0 .187.015.28.015.517 0 1.142-.219 1.642-.562.53-.407.796-.875.796-1.516 0-.234-.03-.39-.125-.64h1.094Zm-2.266 1.5c0 .782-.5 1.313-1.234 1.313-.797 0-1.344-.625-1.344-1.531 0-.922.453-1.47 1.219-1.47.813 0 1.36.673 1.36 1.688M5.25 1.22c0 1.031-.953 1.797-2.203 1.797-1.031 0-1.75-.61-1.75-1.5 0-.532.312-1.016.781-1.235.188-.078.531-.11 1.36-.11C4.78.172 5.25.438 5.25 1.22m0 0"/><path id="H" d="M4.672-1.766c0-.375-.094-.656-.328-.89-.313-.313-.703-.438-1.766-.64-.969-.188-1.297-.438-1.297-.985 0-.594.422-.938 1.14-.938.813 0 1.423.422 1.423.985v.28h.328c.016-.702.031-.983.062-1.358-.64-.204-1.062-.297-1.562-.297-1.375 0-2.234.656-2.234 1.734 0 .578.265.984.812 1.234.328.141.969.329 1.781.516.531.11.766.375.766.828 0 .64-.61 1.094-1.453 1.094-.875 0-1.5-.422-1.5-1.016v-.484h-.36C.484-.891.454-.531.36-.047.984.156 1.453.234 2 .234c1.563 0 2.672-.828 2.672-2m0 0"/><path id="I" d="m4.938-.547-.125-.187c-.438.25-.813.359-1.25.359-1.329 0-2.204-1.031-2.204-2.61 0-1.28.594-2 1.672-2 .531 0 1.11.235 1.313.532l.093.734h.329c0-.547.062-1.031.172-1.469-.485-.28-.891-.421-1.391-.421-.578 0-1.235.234-1.953.687C.75-4.406.313-3.562.313-2.516c0 1.625 1.14 2.75 2.734 2.75.625 0 1.515-.218 1.64-.406Zm0 0"/><path id="J" d="M6.14-2.828c0-1.625-1.171-2.781-2.812-2.781C1.594-5.61.375-4.375.375-2.594.375-.906 1.453.234 2.985.234c1.843 0 3.156-1.28 3.156-3.062m-1.109.437c0 1.375-.61 2.235-1.578 2.235C2.281-.156 1.5-1.296 1.5-3c0-1.437.563-2.219 1.625-2.219 1.094 0 1.906 1.203 1.906 2.828m0 0"/><path id="K" d="M6.844.031v-.36l-.5-.03c-.407-.016-.438-.094-.438-.86V-3.53c0-1.39-.656-2.078-2-2.078-.437 0-.687.093-.937.297l-.906.796v-1.046l-.11-.047c-.61.25-1.234.422-1.875.5v.328h.453c.469 0 .516.078.516.875v2.687c0 .75-.031.844-.438.86l-.53.03v.36A45 45 0 0 1 1.546 0c.5 0 1 .016 1.484.031v-.36L2.5-.358c-.406-.016-.437-.11-.437-.86V-3.75c0-.547.78-1.125 1.515-1.125.797 0 1.328.594 1.328 1.516V.03C5.22.016 5.531 0 5.844 0c.343 0 .656.016 1 .031m0 0"/><path id="L" d="M5.625.031v-.36l-.469-.015c-.281-.015-.328-.11-.328-.703v-2.187c0-1.735-.5-2.375-1.89-2.375-.516 0-.985.14-1.438.406l-.64.39v.766l.312.094.156-.375c.234-.563.375-.64.922-.64 1.125 0 1.594.437 1.625 1.53l-1.187.204C1.062-2.922.374-2.36.374-1.328.375-.391.938.14 1.891.14c.218 0 .422-.032.5-.094l1.484-1.03L3.813.03C4.125.016 4.437 0 4.75 0c.297 0 .578.016.875.031m-1.75-1.515c-.344.5-1.11.953-1.562.953-.485 0-.907-.453-.907-.969 0-.437.25-.86.61-1.078.297-.188.953-.344 1.859-.485Zm0 0"/><path id="M" d="M6.078-3.234c0-1.375-.906-2.375-2.172-2.375-.562 0-1.14.218-1.453.53l-.656.673v-4.172l-.11-.094c-.53.203-.921.297-1.859.438v.328h.656c.22 0 .297.14.297.5v5.578c0 .734 0 1.062-.094 1.906l.204.063.468-.422c.485.312.907.422 1.547.422.469 0 .781-.078 1.031-.266l1.188-.86c.531-.374.953-1.374.953-2.25m-1.047.5c0 1.328-.718 2.265-1.734 2.265-.625 0-1.5-.375-1.5-.64v-2.578c0-.157.11-.376.312-.594a1.78 1.78 0 0 1 1.282-.547c1.015 0 1.64.812 1.64 2.094m0 0"/><path id="N" d="M3.234.031v-.36l-.546-.03c-.407-.016-.438-.11-.438-.86v-7.36l-.11-.093c-.53.203-.921.297-1.859.438v.328h.657c.218 0 .312.14.312.5v6.187c0 .75-.047.844-.453.86L.25-.33v.36c.5-.014 1-.03 1.5-.03s.984.016 1.484.031m0 0"/><path id="O" d="M6.938.031v-.36l-.485-.03c-.406-.016-.437-.094-.437-.86v-4.343l-.11-.047c-.61.25-1.234.422-1.86.5v.328h.438c.47 0 .532.078.532.875v1.953c0 .25-.172.594-.453.86a1.57 1.57 0 0 1-1.188.515c-.406 0-.75-.14-.937-.36-.172-.203-.25-.562-.25-1.093v-3.531l-.11-.047c-.61.25-1.234.422-1.86.5v.328h.438c.485 0 .532.078.532.875v2c0 .843.062 1.219.28 1.515.266.36.72.532 1.407.532.531 0 1.016-.172 1.328-.47l.813-.733c0 .343-.016.53-.063 1.093.344-.015.672-.031 1-.031s.656.016.984.031m0 0"/><path id="P" d="m3.813-5.219-1.641.078v-.453c0-.5.047-.937.14-1.703l-.156-.125c-.281.172-.64.328-1.015.453.046.36.046.578.046.938v.843l-.921.422v.25l.906-.046v3.437c0 .89.39 1.266 1.312 1.266.282 0 .563-.063.641-.141l.563-.64-.157-.204c-.297.172-.469.235-.703.235-.469 0-.656-.235-.656-.828v-3.125h1.531Zm0 0"/><path id="Q" d="M6.5-5.156v-.328c-.375.015-.75.03-1.14.03-.376 0-.75-.015-1.126-.03v.328l.313.031c.36.016.516.11.516.297 0 .078-.047.172-.094.312L3.547-1.03c-.266-.453-.375-.719-.61-1.313l-.765-2c-.063-.203-.11-.36-.11-.484 0-.188.11-.281.407-.297l.453-.031v-.328c-.469.015-.922.03-1.39.03-.47 0-.923-.015-1.391-.03v.328l.218.031c.297.031.454.172.625.578L2.954.281l-.282.735c-.375 1-.844 1.562-1.297 1.562-.187 0-.406-.094-.61-.265H.61l-.28.89c.218.125.405.172.64.172.797 0 1.312-.422 1.765-1.469l2.422-5.593c.485-1.079.719-1.422 1.016-1.438Zm0 0"/></defs><path fill="#bbb" fill-rule="evenodd" stroke="#bbb" stroke-miterlimit="10" stroke-width=".45" d="M81.477 49.938h198v-9h-198Zm0 0"/><path fill="none" stroke="#000" stroke-miterlimit="10" stroke-width=".45" d="M180.477 36.438v18m-99-18v18m198-18v18"/><g clip-path="url(#a)"><g clip-path="url(#b)"><path fill="none" stroke="#000" stroke-miterlimit="10" stroke-width=".45" d="m27.477 13.938-9 22.5"/></g></g><path fill="none" stroke="#000" stroke-miterlimit="10" stroke-width=".45" d="m19.797 28.156-.961 7.38 4.32-6.06"/><g clip-path="url(#c)"><g clip-path="url(#d)"><path fill="none" stroke="#000" stroke-miterlimit="10" stroke-width=".45" d="m36.477 13.938 4.5 22.5"/></g></g><path fill="none" stroke="#000" stroke-miterlimit="10" stroke-width=".45" d="m37.617 28.758 3.18 6.719.3-7.442"/><g clip-path="url(#e)"><g clip-path="url(#f)"><path fill="none" stroke="#000" stroke-miterlimit="10" stroke-width=".45" d="m49.977 13.938 13.5 22.5"/></g></g><path fill="none" stroke="#000" stroke-miterlimit="10" stroke-width=".45" d="m57.656 30.316 5.282 5.282-2.223-7.141"/><g clip-path="url(#g)"><g clip-path="url(#h)"><path fill="none" stroke="#000" stroke-miterlimit="10" stroke-width=".45" d="m310.977 13.938-9 22.5"/></g></g><path fill="none" stroke="#000" stroke-miterlimit="10" stroke-width=".45" d="m303.297 28.156-.961 7.38 4.32-6.06"/><g clip-path="url(#i)"><g clip-path="url(#j)"><path fill="none" stroke="#000" stroke-miterlimit="10" stroke-width=".45" d="m319.977 13.938 4.5 22.5"/></g></g><path fill="none" stroke="#000" stroke-miterlimit="10" stroke-width=".45" d="m321.117 28.758 3.18 6.719.3-7.442"/><g clip-path="url(#k)"><g clip-path="url(#l)"><path fill="none" stroke="#000" stroke-miterlimit="10" stroke-width=".45" d="m333.477 13.938 13.5 22.5"/></g></g><path fill="none" stroke="#000" stroke-miterlimit="10" stroke-width=".45" d="m341.156 30.316 5.281 5.282-2.222-7.141"/><g clip-path="url(#m)"><g clip-path="url(#n)"><path fill="none" stroke="#000" stroke-miterlimit="10" stroke-width=".45" d="m135.477 13.938-36 22.5"/></g></g><path fill="none" stroke="#000" stroke-miterlimit="10" stroke-width=".45" d="m105.414 30.496-5.098 5.402 7.02-2.34"/><g clip-path="url(#o)"><g clip-path="url(#p)"><path fill="none" stroke="#000" stroke-miterlimit="10" stroke-width=".45" d="m216.477 13.938 40.5 22.5"/></g></g><path fill="none" stroke="#000" stroke-miterlimit="10" stroke-width=".45" d="m248.938 33.977 7.199 1.98-5.461-5.102"/><g clip-path="url(#q)"><g clip-path="url(#r)"><path fill="none" stroke="#000" stroke-miterlimit="10" stroke-width=".45" d="m157.977 13.938-13.5 22.5"/></g></g><path fill="none" stroke="#000" stroke-miterlimit="10" stroke-width=".45" d="m147.176 28.457-2.16 7.14 5.218-5.28"/><g clip-path="url(#s)"><g clip-path="url(#t)"><path fill="none" stroke="#000" stroke-miterlimit="10" stroke-width=".45" d="m193.977 13.938 22.5 22.5"/></g></g><path fill="none" stroke="#000" stroke-miterlimit="10" stroke-width=".45" d="m209.336 31.875 6.422 3.844-3.844-6.422"/><g clip-path="url(#u)"><g clip-path="url(#v)"><path fill="none" stroke="#000" stroke-miterlimit="10" stroke-width=".45" d="m180.477 13.938-4.5 22.5"/></g></g><path fill="none" stroke="#000" stroke-miterlimit="10" stroke-width=".45" d="m175.797 28.035.36 7.442 3.12-6.72M.477 45.438h360"/><use xlink:href="#w" x="171.858" y="72.397"/><use xlink:href="#x" x="178.195" y="74.191"/><use xlink:href="#w" x="266.361" y="72.397"/><use xlink:href="#x" x="272.697" y="74.191"/><use xlink:href="#y" x="280.235" y="72.397"/><use xlink:href="#z" x="291.007" y="72.397"/><use xlink:href="#w" x="68.353" y="72.397"/><use xlink:href="#x" x="74.692" y="74.191"/><use xlink:href="#A" x="82.231" y="72.397"/><use xlink:href="#z" x="93.003" y="72.397"/><use xlink:href="#B" x="18.496" y="9.396"/><use xlink:href="#C" x="25.801" y="9.396"/><use xlink:href="#D" x="29.28" y="9.396"/><use xlink:href="#E" x="35.556" y="9.396"/><use xlink:href="#F" x="41.283" y="9.396"/><use xlink:href="#G" x="45.885" y="9.396"/><use xlink:href="#E" x="52.293" y="9.396"/><use xlink:href="#H" x="58.02" y="9.396"/><use xlink:href="#I" x="126.499" y="9.396"/><use xlink:href="#J" x="131.807" y="9.396"/><use xlink:href="#K" x="138.335" y="9.396"/><use xlink:href="#D" x="144.874" y="9.396"/><use xlink:href="#E" x="151.151" y="9.396"/><use xlink:href="#F" x="156.877" y="9.396"/><use xlink:href="#G" x="161.48" y="9.396"/><use xlink:href="#E" x="167.888" y="9.396"/><use xlink:href="#H" x="173.615" y="9.396"/><use xlink:href="#L" x="181.673" y="9.396"/><use xlink:href="#M" x="187.65" y="9.396"/><use xlink:href="#H" x="194.261" y="9.396"/><use xlink:href="#J" x="199.33" y="9.396"/><use xlink:href="#N" x="205.858" y="9.396"/><use xlink:href="#O" x="209.337" y="9.396"/><use xlink:href="#P" x="216.546" y="9.396"/><use xlink:href="#E" x="220.443" y="9.396"/><use xlink:href="#N" x="226.17" y="9.396"/><use xlink:href="#Q" x="229.35" y="9.396"/><use xlink:href="#B" x="306.509" y="9.396"/><use xlink:href="#C" x="313.813" y="9.396"/><use xlink:href="#D" x="317.292" y="9.396"/><use xlink:href="#E" x="323.569" y="9.396"/><use xlink:href="#F" x="329.295" y="9.396"/><use xlink:href="#G" x="333.898" y="9.396"/><use xlink:href="#E" x="340.306" y="9.396"/><use xlink:href="#H" x="346.033" y="9.396"/></svg>