<svg xmlns="http://www.w3.org/2000/svg" xmlns:xlink="http://www.w3.org/1999/xlink" width="289pt" height="80" viewBox="0 0 289 60"><defs><path id="e" d="m8.844-1.016-.125-.218-.297.203c-.36.234-.61.36-.735.36-.078 0-.156-.11-.156-.235s.016-.235.078-.485l.907-3.546a2.7 2.7 0 0 0 .078-.485c0-.203-.125-.344-.313-.344-.344 0-.797.22-1.531.735C6-4.5 5.578-4.078 5-3.25l.36-1.64a4 4 0 0 0 .077-.5c0-.235-.125-.376-.312-.376-.36 0-.906.266-1.562.766-.532.406-.766.656-1.547 1.719l.406-1.594c.047-.187.062-.375.062-.516 0-.234-.109-.375-.265-.375-.266 0-.719.25-1.594.891l-.344.234.094.235.375-.25c.438-.282.484-.297.563-.297.14 0 .218.125.218.297 0 .61-.484 2.922-.984 4.625l.031.14.828-.187.25-1.219c.297-1.328.61-2.031 1.266-2.75.515-.547 1.047-.906 1.375-.906.094 0 .14.094.14.25 0 .422-.25 1.781-.75 3.875l-.203.797.063.14.828-.187.25-1.266c.188-.968.594-1.875 1.125-2.453C6.406-4.53 7-4.953 7.39-4.953c.094 0 .157.11.157.297 0 .297-.016.453-.297 1.5l-.516 1.875c-.093.343-.156.64-.156.906 0 .297.125.484.36.484.312 0 .734-.25 1.906-1.125m0 0"/><path id="g" d="m5.11-.797-.094-.234-.516.297c-.172.093-.25.109-.36.109s-.202-.062-.296-.266c-.422-.765-.688-1.421-1.156-2.89l.171-.156c.72-.735 1.282-1.032 1.875-1.032.094 0 .22.016.422.063l.203-.75a2.2 2.2 0 0 0-.562-.11c-.797 0-1.781.922-3.281 3.016l1.28-5.875-.14-.14c-.625.312-1.047.421-1.922.5l-.046.25h.578c.28 0 .406.093.406.296 0 .094-.016.203-.016.282l-.578 3.203C.922-3.328.718-2.516.094-.016l.11.125L1-.094l.281-1.484c.11-.578.39-1.11.797-1.516C2.906-.704 3.281.11 3.578.11c.156 0 .453-.156.969-.53Zm0 0"/><path id="f" d="M3.656.031v-.265l-.453-.032c-.484-.03-.562-.125-.562-.578v-5.203l-.125-.031a15 15 0 0 1-1.985.844l.063.375h.078c.39-.188.781-.36 1.156-.516.063 0 .078.078.078.281v4.25c0 .453-.093.547-.578.578l-.484.032V.03C1.328.016 1.813 0 2.28 0s.922.016 1.375.031m0 0"/><path id="h" d="M4.11.031c-.032-.187-.032-.281-.032-.406 0-.11 0-.187.031-.39l-3.046.093 1.609-1.687c.844-.907 1.11-1.391 1.11-2.047 0-1.016-.688-1.64-1.798-1.64-.64 0-1.062.187-1.5.624l-.14 1.188h.25l.11-.407c.14-.5.468-.718 1.046-.718.75 0 1.234.468 1.234 1.218 0 .657-.359 1.297-1.359 2.36L.141-.203V.03C.78.016 1.453 0 2.094 0c.672 0 1.344.016 2.015.031m0 0"/><path id="i" d="M5 .031v-.36l-.625-.03c-.656-.032-.781-.172-.781-.782v-7.093l-.156-.063c-.782.406-1.626.766-2.72 1.156l.079.5h.125c.531-.234 1.047-.468 1.578-.703.063 0 .094.11.094.407v5.796c0 .61-.125.75-.781.782l-.672.03v.36C1.813.016 2.469 0 3.125 0c.61 0 1.25.016 1.875.031m0 0"/><path id="j" d="M5.563-4.375c0-2.625-.782-3.86-2.422-3.86-1.844 0-2.797 1.47-2.797 4.36 0 1.406.25 2.61.672 3.188.422.593 1.093.921 1.828.921 1.812 0 2.719-1.546 2.719-4.609m-1.016.594c0 2.547-.453 3.61-1.547 3.61-1.156 0-1.656-1.22-1.656-4.126 0-2.531.453-3.516 1.578-3.516 1.172 0 1.625 1.172 1.625 4.032m0 0"/><path id="k" d="M10.39.031v-.36l-.562-.03c-.406-.016-.437-.11-.437-.86v-2.468c0-1.172-.703-1.922-1.797-1.922-.422 0-.766.109-.985.297l-.906.812C5.313-5.281 4.828-5.61 4-5.61c-.437 0-.766.11-.984.298l-.828.765v-1.016l-.11-.046c-.61.25-1.234.422-1.86.5v.328h.438c.485 0 .532.078.532.875v2.687c0 .75-.047.844-.454.86l-.546.03v.36A49 49 0 0 1 1.703 0c.484 0 .953.016 1.422.031v-.36l-.5-.03c-.406-.016-.437-.11-.437-.86V-3.75c0-.547.78-1.125 1.5-1.125.656 0 1.093.61 1.093 1.516v2.14c0 .75-.031.844-.437.86l-.547.03v.36C4.297.016 4.78 0 5.28 0s1 .016 1.5.031v-.36l-.547-.03c-.406-.016-.453-.11-.453-.86V-3.75c0-.547.797-1.125 1.516-1.125.64 0 1.078.61 1.078 1.516V.03c.314-.014.641-.03.954-.03.36 0 .703.016 1.063.031m0 0"/><path id="l" d="M5.36-3.328c0-1.375-.891-2.281-2.235-2.281-.437 0-.953.156-1.437.453C.703-4.61.313-3.86.313-2.625c0 .766.171 1.406.5 1.86.468.64 1.28 1 2.171 1 .454 0 .891-.094 1.375-.313.329-.125.579-.281.625-.36l.235-.406-.157-.11c-.765.454-1.03.563-1.546.563-.782 0-1.422-.343-1.766-.937-.219-.39-.297-.734-.328-1.422h1.75c.828 0 1.328-.031 2.156-.172.016-.156.031-.265.031-.406m-1.063.14-1.344.032c-.547 0-.86-.016-1.5-.078 0-.563.047-.813.203-1.125a1.47 1.47 0 0 1 1.328-.86c.391 0 .704.157.922.485.266.39.39.734.39 1.547m0 0"/><path id="m" d="m3.813-5.219-1.641.078v-.453c0-.5.047-.937.14-1.703l-.156-.125c-.281.172-.64.328-1.015.453.046.36.046.578.046.938v.843l-.921.422v.25l.906-.046v3.437c0 .89.39 1.266 1.312 1.266.282 0 .563-.063.641-.141l.563-.64-.157-.204c-.297.172-.469.235-.703.235-.469 0-.656-.235-.656-.828v-3.125h1.531Zm0 0"/><path id="n" d="M4.469-5.469c-.125-.093-.344-.14-.563-.14-.36 0-.734.187-.984.5l-.672.78v-1.234l-.11-.046a7.3 7.3 0 0 1-1.859.5v.328H.72c.469 0 .531.078.531.875v2.687c0 .75-.047.844-.453.86L.25-.33v.36C.734.016 1.234 0 1.719 0c.578 0 1.14.016 1.719.031v-.36l-.626-.03c-.546-.032-.562-.079-.562-.86V-3.28c0-.719.469-1.313 1.063-1.313.359 0 .609.172.796.547h.25Zm0 0"/><path id="o" d="M4.672-1.766c0-.375-.094-.656-.328-.89-.313-.313-.703-.438-1.766-.64-.969-.188-1.297-.438-1.297-.985 0-.594.422-.938 1.14-.938.813 0 1.423.422 1.423.985v.28h.328c.016-.702.031-.983.062-1.358-.64-.204-1.062-.297-1.562-.297-1.375 0-2.234.656-2.234 1.734 0 .578.265.984.812 1.234.328.141.969.329 1.781.516.531.11.766.375.766.828 0 .64-.61 1.094-1.453 1.094-.875 0-1.5-.422-1.5-1.016v-.484h-.36C.484-.891.454-.531.36-.047.984.156 1.453.234 2 .234c1.563 0 2.672-.828 2.672-2m0 0"/><clipPath id="a"><path d="M8 2h25v2H8Zm0 0"/></clipPath><clipPath id="b"><path d="M-.223-.465v61h290v-61Zm26.2 5.383h6.84V.778h-6.84l5.28 2.097Zm0 0" clip-rule="evenodd"/></clipPath><clipPath id="c"><path d="M146 47h143v1H146Zm0 0"/></clipPath><clipPath id="d"><path d="M-.223-.465v61h290v-61Zm281.621 49.84h7.98v-4.137h-7.98l6.297 2.098Zm-127.261-4.137h-7.918v4.137h7.918l-6.239-2.04Zm0 0" clip-rule="evenodd"/></clipPath></defs><path fill-rule="evenodd" d="M119.398 36.898a3.721 3.721 0 1 1-7.441-.004 3.721 3.721 0 0 1 7.441.004"/><path fill="none" stroke="#000" stroke-miterlimit="10" stroke-width=".45" d="M119.398 36.898a3.721 3.721 0 1 1-7.441-.004 3.721 3.721 0 0 1 7.441.004Zm0 0"/><path fill-rule="evenodd" d="M140.336 36.898a3.72 3.72 0 0 1-3.719 3.72 3.721 3.721 0 0 1 0-7.441 3.72 3.72 0 0 1 3.719 3.721"/><path fill="none" stroke="#000" stroke-miterlimit="10" stroke-width=".45" d="M140.336 36.898a3.72 3.72 0 0 1-3.719 3.72 3.721 3.721 0 0 1 0-7.441 3.72 3.72 0 0 1 3.719 3.721Zm0 0"/><path fill-rule="evenodd" d="M12.059 36.898a3.721 3.721 0 1 1-7.442-.004 3.721 3.721 0 0 1 7.442.004"/><path fill="none" stroke="#000" stroke-miterlimit="10" stroke-width=".45" d="M12.059 36.898a3.721 3.721 0 1 1-7.442-.004 3.721 3.721 0 0 1 7.442.004Zm0 0"/><path fill-rule="evenodd" d="M32.996 36.898a3.72 3.72 0 0 1-3.719 3.72 3.721 3.721 0 0 1 0-7.441 3.72 3.72 0 0 1 3.72 3.721"/><path fill="none" stroke="#000" stroke-miterlimit="10" stroke-width=".45" d="M32.996 36.898a3.72 3.72 0 0 1-3.719 3.72 3.721 3.721 0 0 1 0-7.441 3.72 3.72 0 0 1 3.72 3.721Zm40.801-7.863h2.582l2.637-7.86 2.64 13.083 2.582-13.082 2.64 13.082 2.638-13.082 2.582 13.082 2.64-13.082 2.64 13.082 2.579-13.082 2.64 13.082 2.579-7.86h2.64m0 10.5h36.66V13.316h-36.66Zm0 0"/><path fill="none" stroke="#000" stroke-miterlimit="10" stroke-width=".45" d="M.477 42.117h288V8.097"/><g clip-path="url(#a)"><g clip-path="url(#b)"><path fill="none" stroke="#000" stroke-miterlimit="10" stroke-width=".45" d="M8.336 2.875h23.582"/></g></g><path fill="none" stroke="#000" stroke-miterlimit="10" stroke-width=".45" d="m25.977 4.918 5.28-2.043-5.28-2.098"/><g clip-path="url(#c)"><g clip-path="url(#d)"><path fill="none" stroke="#000" stroke-miterlimit="10" stroke-width=".45" d="M147.117 47.336h141.36"/></g></g><path fill="none" stroke="#000" stroke-miterlimit="10" stroke-width=".45" d="m154.137 45.238-6.239 2.098 6.239 2.039m127.261 0 6.297-2.04-6.297-2.097M.477 36.898h36.66V13.316H.477Zm0 0"/><use xlink:href="#e" x="11.236" y="26.397"/><use xlink:href="#f" x="20.657" y="28.19"/><use xlink:href="#g" x="87.496" y="15.956"/><use xlink:href="#e" x="118.579" y="26.397"/><use xlink:href="#h" x="127.999" y="28.19"/><use xlink:href="#i" x="194.661" y="59.637"/><use xlink:href="#j" x="200.639" y="59.637"/><use xlink:href="#k" x="209.605" y="59.637"/><use xlink:href="#l" x="220.161" y="59.637"/><use xlink:href="#m" x="225.888" y="59.637"/><use xlink:href="#l" x="229.785" y="59.637"/><use xlink:href="#n" x="235.512" y="59.637"/><use xlink:href="#o" x="240.234" y="59.637"/></svg>