<svg xmlns="http://www.w3.org/2000/svg" xmlns:xlink="http://www.w3.org/1999/xlink" width="125pt" height="91pt" viewBox="0 0 125 91"><defs><path id="c" d="M6.922.031v-.36l-.547-.03c-.406-.016-.453-.11-.453-.86v-7.36l-.094-.093c-.531.203-.922.297-1.875.438v.328h.672c.219 0 .297.14.297.5v2.187c-.672-.297-1-.39-1.422-.39-.328 0-.61.078-.906.234l-1.047.547C.859-4.468.422-3.594.422-2.578c0 .953.312 1.734.906 2.219.406.343.969.5 1.75.5.235 0 .5-.047.563-.094l1.328-1.11L4.906.032C5.22.016 5.516 0 5.828 0c.36 0 .734.016 1.094.031m-2-2.672c0 .782-.016.891-.172 1.172-.344.563-.922.938-1.484.938-1.047 0-1.813-1.016-1.813-2.438 0-1.312.656-2.078 1.719-2.078.469 0 .937.156 1.36.438.25.172.39.328.39.422Zm0 0"/><path id="d" d="M5.36-3.328c0-1.375-.891-2.281-2.235-2.281-.437 0-.953.156-1.437.453C.703-4.61.313-3.86.313-2.625c0 .766.171 1.406.5 1.86.468.64 1.28 1 2.171 1 .454 0 .891-.094 1.375-.313.329-.125.579-.281.625-.36l.235-.406-.157-.11c-.765.454-1.03.563-1.546.563-.782 0-1.422-.343-1.766-.937-.219-.39-.297-.734-.328-1.422h1.75c.828 0 1.328-.031 2.156-.172.016-.156.031-.265.031-.406m-1.063.14-1.344.032c-.547 0-.86-.016-1.5-.078 0-.563.047-.813.203-1.125a1.47 1.47 0 0 1 1.328-.86c.391 0 .704.157.922.485.266.39.39.734.39 1.547m0 0"/><path id="e" d="M6.625-3.234c0-1.328-1.11-2.375-2.484-2.375-.453 0-.875.125-1.063.297l-.984.906v-1.157l-.11-.046a7.3 7.3 0 0 1-1.859.5v.328h.438c.484 0 .53.078.53.875v6.015c0 .75-.046.829-.452.86L.094 3v.36c.5-.032 1-.032 1.5-.032s.984 0 1.484.031V3l-.547-.031c-.406-.031-.437-.11-.437-.86V-.156c.36.219.734.297 1.281.297.344 0 .656-.063.844-.188l1.36-.89c.484-.313 1.046-1.532 1.046-2.297m-1.047.437c0 1.344-.797 2.328-1.875 2.328-.656 0-1.14-.219-1.61-.703v-2.484c0-.172.063-.297.22-.5.343-.453.828-.672 1.421-.672 1.125 0 1.844.781 1.844 2.031m0 0"/><path id="f" d="m3.813-5.219-1.641.078v-.453c0-.5.047-.937.14-1.703l-.156-.125c-.281.172-.64.328-1.015.453.046.36.046.578.046.938v.843l-.921.422v.25l.906-.046v3.437c0 .89.39 1.266 1.312 1.266.282 0 .563-.063.641-.141l.563-.64-.157-.204c-.297.172-.469.235-.703.235-.469 0-.656-.235-.656-.828v-3.125h1.531Zm0 0"/><path id="g" d="M6.844.031v-.36l-.5-.03c-.407-.016-.438-.094-.438-.86V-3.53c0-1.39-.656-2.078-2-2.078-.437 0-.687.093-.937.297l-.906.796v-4.062l-.11-.094c-.531.203-.922.297-1.875.438v.328H.75c.219 0 .297.14.297.5v6.187c0 .75-.031.844-.438.86l-.53.03v.36A45 45 0 0 1 1.546 0c.5 0 1 .016 1.484.031v-.36L2.5-.358c-.406-.016-.437-.11-.437-.86V-3.75c0-.547.78-1.125 1.515-1.125.797 0 1.328.594 1.328 1.516V.03C5.22.016 5.531 0 5.844 0c.343 0 .656.016 1 .031m0 0"/><path id="h" d="m5.36-.937-.094-.235c-.438.36-.735.531-.922.531S4-.75 3.89-.984a4.8 4.8 0 0 1-.313-1.032l-.203-1.203.422-.578c.547-.781.875-1.062 1.25-1.062.187 0 .328.109.39.28l.172-.046.172-1.016c-.14-.078-.25-.125-.36-.125-.468 0-.952.438-1.687 1.532l-.453.656-.062-.563c-.14-1.187-.469-1.625-1.172-1.625-.313 0-.578.094-.688.25l-.687 1 .203.11c.36-.407.594-.563.828-.563.39 0 .656.485.86 1.657l.124.75-.468.734C1.703-1.031 1.297-.641.953-.641.781-.64.641-.687.625-.75l-.14-.344-.235.047c0 .234-.016.39-.094.766-.031.156-.031.187-.047.265.172.094.375.141.516.141.39 0 .86-.344 1.234-.906l.907-1.39.125.827C3.063-.328 3.328.125 3.75.125c.266 0 .656-.203 1.031-.547Zm0 0"/><clipPath id="a"><path d="M62 24h1v67h-1Zm0 0"/></clipPath><clipPath id="b"><path d="M-.5-.465v92h126v-92Zm59.98 78.403v13.8h5.938v-13.8L62.48 89.816Zm0 0" clip-rule="evenodd"/></clipPath></defs><path fill="none" stroke="#000" stroke-miterlimit="10" stroke-width=".45" d="M83.54 3.535a3.302 3.302 0 0 1-6.602 0 3.3 3.3 0 0 1 6.601 0ZM.2 24.477h124.558m-115.68 0 5.942 11.82m8.878-11.82 5.942 11.82m8.937-11.82 5.883 11.82m5.938-11.82 5.941 11.82m11.879-11.82 5.941 11.82m8.879-11.82 5.942 11.82m8.879-11.82L104 36.297m8.879-11.82 5.941 11.82M77.3 24.477l3-8.942 2.938 8.942M80.3 15.535V6.656m-5.94 5.942h11.82"/><g clip-path="url(#a)"><g clip-path="url(#b)"><path fill="none" stroke="#000" stroke-miterlimit="10" stroke-width=".45" d="M62.48 24.477v66.359"/></g></g><path fill="none" stroke="#000" stroke-miterlimit="10" stroke-width=".45" d="m59.48 77.938 3 11.878 2.938-11.879"/><use xlink:href="#c" x="71.32" y="63.817"/><use xlink:href="#d" x="78.625" y="63.817"/><use xlink:href="#e" x="84.351" y="63.817"/><use xlink:href="#f" x="91.297" y="63.817"/><use xlink:href="#g" x="95.374" y="63.817"/><use xlink:href="#h" x="105.679" y="63.817"/></svg>