<svg xmlns="http://www.w3.org/2000/svg" xmlns:xlink="http://www.w3.org/1999/xlink" width="289pt" height="136" viewBox="0 0 289 102"><defs><clipPath id="a"><path d="M142 41h2v34h-2Zm0 0"/></clipPath><clipPath id="b"><path d="M-.223 102.535h290v-104h-290Zm142.899-61.457h.84l1.8 10.2-2.218-8.762-2.22 8.761Zm0 0" clip-rule="evenodd"/></clipPath><clipPath id="c"><path d="M0 74h289v1H0Zm0 0"/></clipPath><clipPath id="d"><path d="M-.223 102.535h290v-104h-290Zm289.121-28.578v.84l-10.203 1.8 8.762-2.222-8.762-2.219Zm0 0" clip-rule="evenodd"/></clipPath><clipPath id="e"><path d="M22 0h1v102h-1Zm0 0"/></clipPath><clipPath id="f"><path d="M-.223 102.535h290v-104h-290ZM22.016-.082h.84l1.8 10.2-2.218-8.763-2.22 8.762Zm0 0" clip-rule="evenodd"/></clipPath><path id="g" d="m5.86-5.656-.141-.11c-.344.141-.61.204-.875.235l-.422 1.578c-.14.562-.563 1.437-.953 2.015-.422.61-1 1.141-1.266 1.141-.265 0-.25-.578-.234-.734l.187-2.313c.016-.375.047-.828.047-1.172 0-.53-.094-.75-.297-.75-.156 0-.312.094-.89.485L.03-4.61l.14.203.595-.344c.062-.062.218-.156.297-.156.312 0 .265.61.25.812l-.204 2.907-.015.468c0 .5.218.844.515.844.454 0 1.454-1.016 2.344-2.36L3.375-.187c-.61 2.11-1.219 2.985-2.047 2.985a.737.737 0 0 1-.75-.735c0-.062.016-.156.031-.265L.484 1.75l-.562.406c-.016.078-.016.156-.016.203 0 .516.438.938.985.938 1.265 0 2.578-1.485 3.28-3.688Zm0 0"/><path id="h" d="m5.36-.937-.094-.235c-.438.36-.735.531-.922.531S4-.75 3.89-.984a4.8 4.8 0 0 1-.313-1.032l-.203-1.203.422-.578c.547-.781.875-1.062 1.25-1.062.187 0 .328.109.39.28l.172-.046.172-1.016c-.14-.078-.25-.125-.36-.125-.468 0-.952.438-1.687 1.532l-.453.656-.062-.563c-.14-1.187-.469-1.625-1.172-1.625-.313 0-.578.094-.688.25l-.687 1 .203.11c.36-.407.594-.563.828-.563.39 0 .656.485.86 1.657l.124.75-.468.734C1.703-1.031 1.297-.641.953-.641.781-.64.641-.687.625-.75l-.14-.344-.235.047c0 .234-.016.39-.094.766-.031.156-.031.187-.047.265.172.094.375.141.516.141.39 0 .86-.344 1.234-.906l.907-1.39.125.827C3.063-.328 3.328.125 3.75.125c.266 0 .656-.203 1.031-.547Zm0 0"/></defs><path fill="none" stroke="#000" stroke-miterlimit="10" stroke-width=".45" d="M22.438 66.156v8.219"/><g clip-path="url(#a)"><g clip-path="url(#b)"><path fill="none" stroke="#000" stroke-miterlimit="10" stroke-width=".45" d="M143.098 74.375V41.496"/></g></g><path fill="none" stroke="#000" stroke-miterlimit="10" stroke-width=".45" d="m140.879 51.277 2.219-8.761 2.218 8.761"/><g clip-path="url(#c)"><g clip-path="url(#d)"><path fill="none" stroke="#000" stroke-miterlimit="10" stroke-width=".45" d="M.477 74.375h288"/></g></g><path fill="none" stroke="#000" stroke-miterlimit="10" stroke-width=".45" d="m278.695 72.156 8.762 2.219-8.762 2.223"/><path fill="none" stroke="#000" stroke-linecap="round" stroke-miterlimit="10" stroke-width=".9" d="M263.816 74.375v-8.219"/><g clip-path="url(#e)"><g clip-path="url(#f)"><path fill="none" stroke="#000" stroke-miterlimit="10" stroke-width=".45" d="M22.438.336v101.46"/></g></g><path fill="none" stroke="#000" stroke-miterlimit="10" stroke-width=".45" d="m20.219 10.117 2.218-8.762 2.22 8.762"/><path fill="none" stroke="#000" stroke-linecap="round" stroke-miterlimit="10" stroke-width=".9" d="M22.438 66.156v8.219"/><path fill="none" stroke="#000" stroke-linejoin="bevel" stroke-miterlimit="10" stroke-width=".9" d="M22.438 74.375h.058l.063-.059.18-.12.3-.18.418-.18.602-.3.718-.419.899-.48 1.082-.54 2.758-1.378 1.62-.844 1.802-.898 1.98-.961 2.16-1.02 2.277-1.078 2.403-1.14 2.52-1.141 2.699-1.2 2.761-1.199 2.88-1.261 2.94-1.2 3.06-1.261 3.12-1.2 3.18-1.199 3.3-1.14 3.419-1.141 3.48-1.14 3.54-1.079 3.66-1.082 3.84-1.02 3.902-.956 4.02-.903 4.198-.84 4.38-.84 4.5-.718 4.679-.66 4.86-.602 5.042-.539 5.16-.422 5.278-.297 5.46-.18 5.462-.062 5.46.063 5.458.18 5.28.296 5.161.422 5.04.54 4.858.6 4.68.66 4.5.72 4.383.84 4.2.84 4.019.902 3.96.957 3.782 1.02 3.656 1.081 3.602 1.078 3.48 1.14 3.36 1.142 3.3 1.14 3.239 1.2 3.12 1.199 3.06 1.261 2.94 1.2 2.88 1.261 2.761 1.2 2.641 1.199 2.578 1.14 2.402 1.141 2.278 1.078 2.16 1.02 1.98.96 1.801.899 1.621.844 1.438.719 1.262.66 1.14.539.899.48.718.418.602.3.422.18.297.18.18.121.062.059h.058"/><path fill="none" stroke="#000" stroke-linejoin="bevel" stroke-miterlimit="10" stroke-width=".9" d="M22.438 66.156h.058l.063-.058.18-.121.3-.18.418-.18.602-.3.718-.419.899-.48 1.082-.543 1.32-.656 1.438-.723 1.62-.84 1.802-.898 1.98-.961 2.16-1.02 2.277-1.082 2.403-1.136 2.52-1.204 2.699-1.199 2.761-1.199 2.88-1.2 2.94-1.26 3.06-1.2 3.12-1.2 3.18-1.199 3.3-1.203 3.419-1.136 3.48-1.141 3.54-1.082 3.66-1.078 3.84-.961 3.902-.961 4.02-.961 4.198-.84 4.38-.84 4.5-.718 4.679-.66 4.86-.598 5.042-.543 5.16-.418 5.278-.301 5.46-.18 5.462-.058 5.46.058 5.458.18 5.28.3 5.161.419 5.04.543 4.858.597 4.68.66 4.5.72 4.383.84 4.2.839 4.019.96 3.96.962 3.782.96 3.656 1.079 3.602 1.082 3.48 1.14 3.36 1.137 3.3 1.203 3.239 1.2 3.12 1.199 3.06 1.2 2.94 1.26 2.88 1.2 2.761 1.2 2.641 1.198 2.578 1.204 2.402 1.136 2.278 1.082 2.16 1.02 1.98.96 1.801.9 1.621.84 1.438.722 1.262.656 1.14.543.899.48.718.418.602.301.422.18.297.18.18.12.062.06h.058"/><use xlink:href="#g" x="149.238" y="60.656"/><use xlink:href="#g" x="5.594" y="9.355"/><use xlink:href="#h" x="266.362" y="90.357"/></svg>