<svg xmlns="http://www.w3.org/2000/svg" xmlns:xlink="http://www.w3.org/1999/xlink" width="181pt" height="60" viewBox="0 0 181 45"><defs><clipPath id="a"><path d="M123 26h22v18.535h-22Zm0 0"/></clipPath><clipPath id="b"><path d="M148 26h22v18.535h-22Zm0 0"/></clipPath><clipPath id="c"><path d="M39 26h22v18.535H39Zm0 0"/></clipPath><clipPath id="d"><path d="M64 26h22v18.535H64Zm0 0"/></clipPath><clipPath id="e"><path d="M0 0h181v44.535H0Zm0 0"/></clipPath><path id="f" d="m5.11-.797-.094-.234-.516.297c-.172.093-.25.109-.36.109s-.202-.062-.296-.266c-.422-.765-.688-1.421-1.156-2.89l.171-.156c.72-.735 1.282-1.032 1.875-1.032.094 0 .22.016.422.063l.203-.75a2.2 2.2 0 0 0-.562-.11c-.797 0-1.781.922-3.281 3.016l1.28-5.875-.14-.14c-.625.312-1.047.421-1.922.5l-.046.25h.578c.28 0 .406.093.406.296 0 .094-.016.203-.016.282l-.578 3.203C.922-3.328.718-2.516.094-.016l.11.125L1-.094l.281-1.484c.11-.578.39-1.11.797-1.516C2.906-.704 3.281.11 3.578.11c.156 0 .453-.156.969-.53Zm0 0"/><path id="h" d="m8.844-1.016-.125-.218-.297.203c-.36.234-.61.36-.735.36-.078 0-.156-.11-.156-.235s.016-.235.078-.485l.907-3.546a2.7 2.7 0 0 0 .078-.485c0-.203-.125-.344-.313-.344-.344 0-.797.22-1.531.735C6-4.5 5.578-4.078 5-3.25l.36-1.64a4 4 0 0 0 .077-.5c0-.235-.125-.376-.312-.376-.36 0-.906.266-1.562.766-.532.406-.766.656-1.547 1.719l.406-1.594c.047-.187.062-.375.062-.516 0-.234-.109-.375-.265-.375-.266 0-.719.25-1.594.891l-.344.234.094.235.375-.25c.438-.282.484-.297.563-.297.14 0 .218.125.218.297 0 .61-.484 2.922-.984 4.625l.031.14.828-.187.25-1.219c.297-1.328.61-2.031 1.266-2.75.515-.547 1.047-.906 1.375-.906.094 0 .14.094.14.25 0 .422-.25 1.781-.75 3.875l-.203.797.063.14.828-.187.25-1.266c.188-.968.594-1.875 1.125-2.453C6.406-4.53 7-4.953 7.39-4.953c.094 0 .157.11.157.297 0 .297-.016.453-.297 1.5l-.516 1.875c-.093.343-.156.64-.156.906 0 .297.125.484.36.484.312 0 .734-.25 1.906-1.125m0 0"/><path id="g" d="M3.656.031v-.265l-.453-.032c-.484-.03-.562-.125-.562-.578v-5.203l-.125-.031a15 15 0 0 1-1.985.844l.063.375h.078c.39-.188.781-.36 1.156-.516.063 0 .078.078.078.281v4.25c0 .453-.093.547-.578.578l-.484.032V.03C1.328.016 1.813 0 2.28 0s.922.016 1.375.031m0 0"/><path id="i" d="M4.11.031c-.032-.187-.032-.281-.032-.406 0-.11 0-.187.031-.39l-3.046.093 1.609-1.687c.844-.907 1.11-1.391 1.11-2.047 0-1.016-.688-1.64-1.798-1.64-.64 0-1.062.187-1.5.624l-.14 1.188h.25l.11-.407c.14-.5.468-.718 1.046-.718.75 0 1.234.468 1.234 1.218 0 .657-.359 1.297-1.359 2.36L.141-.203V.03C.78.016 1.453 0 2.094 0c.672 0 1.344.016 2.015.031m0 0"/></defs><path fill-rule="evenodd" d="M138.297 37.598a4.38 4.38 0 1 1-8.759-.001 4.38 4.38 0 0 1 8.759 0"/><g clip-path="url(#a)"><path fill="none" stroke="#000" stroke-miterlimit="10" stroke-width=".45" d="M138.297 37.598a4.38 4.38 0 1 1-8.76-.001 4.38 4.38 0 0 1 8.76 0Zm0 0"/></g><path fill-rule="evenodd" d="M163.137 37.598a4.38 4.38 0 1 1-8.76-.001 4.38 4.38 0 0 1 8.76 0"/><g clip-path="url(#b)"><path fill="none" stroke="#000" stroke-miterlimit="10" stroke-width=".45" d="M163.137 37.598a4.38 4.38 0 1 1-8.76-.001 4.38 4.38 0 0 1 8.76 0Zm0 0"/></g><path fill-rule="evenodd" d="M54.54 37.598a4.38 4.38 0 0 1-8.763 0 4.38 4.38 0 0 1 8.762 0"/><g clip-path="url(#c)"><path fill="none" stroke="#000" stroke-miterlimit="10" stroke-width=".45" d="M54.54 37.598a4.38 4.38 0 0 1-8.763 0 4.38 4.38 0 0 1 8.762 0Zm0 0"/></g><path fill-rule="evenodd" d="M79.316 37.598a4.38 4.38 0 1 1-8.759-.001 4.38 4.38 0 0 1 8.76 0"/><g clip-path="url(#d)"><path fill="none" stroke="#000" stroke-miterlimit="10" stroke-width=".45" d="M79.316 37.598a4.38 4.38 0 1 1-8.759-.001 4.38 4.38 0 0 1 8.76 0Zm0 0"/></g><g clip-path="url(#e)"><path fill="none" stroke="#000" stroke-miterlimit="10" stroke-width=".45" d="M.477.336v43.441h180"/></g><path fill="none" stroke="#000" stroke-miterlimit="10" stroke-width=".45" d="M.477 28.238h3.12l3.06-9.3 3.12 15.539 3.121-15.54 3.122 15.54 3.058-15.54 3.121 15.54 3.117-15.54 3.122 15.54 3.062-15.54 3.117 15.54 3.121-9.301h3.059m43.5 3.062h3.062l3.118-9.3 3.12 15.539 3.06-15.54 3.12 15.54 3.121-15.54 3.122 15.54 3.058-15.54 3.121 15.54 3.117-15.54 3.122 15.54 3.058-9.301h3.121"/><path fill="none" stroke="#000" stroke-miterlimit="10" stroke-width=".45" d="M124.617 37.598h43.442V9.637h-43.442Zm-83.82 0h43.5V9.637h-43.5Zm0 0"/><use xlink:href="#f" x="16.636" y="12.797"/><use xlink:href="#g" x="22.303" y="14.59"/><use xlink:href="#h" x="53.478" y="25.217"/><use xlink:href="#g" x="62.899" y="27.01"/><use xlink:href="#f" x="100.398" y="12.797"/><use xlink:href="#i" x="106.065" y="14.59"/><use xlink:href="#h" x="137.3" y="25.217"/><use xlink:href="#i" x="146.721" y="27.01"/></svg>