<svg xmlns="http://www.w3.org/2000/svg" xmlns:xlink="http://www.w3.org/1999/xlink" width="80pt" height="91pt" viewBox="0 0 80 91"><defs><clipPath id="a"><path d="M30 25h19v40H30Zm0 0"/></clipPath><clipPath id="b"><path d="M.3 91.535h75v-93H.3Zm36.598-32.617-.66-.422 3.54-7.98-2.458 7.02 5.457-5.04Zm0 0" clip-rule="evenodd"/></clipPath><clipPath id="c"><path d="M.3 15H47v59H.3Zm0 0"/></clipPath><clipPath id="d"><path d="M.3 91.535h75v-93H.3Zm39.118-31.238.422.66-6.3 6 4.92-5.582-6.96 2.582Zm0 0" clip-rule="evenodd"/></clipPath><clipPath id="e"><path d="M48 8h27v75H48Zm0 0"/></clipPath><clipPath id="f"><path d="M.3 91.535h75v-93H.3Zm55.56-76.719.6-.48 6.298 6L57 15.656l2.879 6.84Zm0 0" clip-rule="evenodd"/></clipPath><clipPath id="g"><path d="M.3 0h75v71H.3Zm0 0"/></clipPath><clipPath id="h"><path d="M.3 91.535h75v-93H.3Zm72.477-92.2L74.22.899 64.8 12.718l5.636-9.843L60 7.375Zm0 0" clip-rule="evenodd"/></clipPath><clipPath id="i"><path d="M34 0h41.3v39H34Zm0 0"/></clipPath><clipPath id="j"><path d="M.3 19h75v72H.3Zm0 0"/></clipPath><clipPath id="k"><path d="M.3 91.535h75v-93H.3Zm68.58-2.315-1.5 1.5-12.3-8.762 10.14 5.102-5.04-10.204Zm0 0" clip-rule="evenodd"/></clipPath><clipPath id="l"><path d="M29 51h46.3v40H29Zm0 0"/></clipPath><path id="m" d="M5.594.031c-.032-.25-.032-.36-.032-.531 0-.156 0-.281.032-.547l-4.14.125L3.64-3.234c1.156-1.22 1.515-1.875 1.515-2.782 0-1.375-.937-2.218-2.453-2.218-.86 0-1.453.234-2.031.828l-.203 1.64h.344l.156-.562c.187-.688.625-.984 1.422-.984 1.03 0 1.687.64 1.687 1.656 0 .906-.5 1.781-1.86 3.218L.189-.28v.31C1.078.016 1.968 0 2.859 0c.907 0 1.829.016 2.735.031m0 0"/><path id="n" d="M7.266-5.578c-.828.016-1.672.047-2.516.047-1.016 0-2.047-.032-3.062-.032-.782-.015-.938.907-1.157 1.5l.016.079.094.062.093-.047c.485-.75.766-.875 1.672-.875h.266C2.234-3.172 1.844-1.547 1.125.031l.094.11c.234-.063.656-.157.875-.297.453-1.531.765-3.125 1.062-4.688h2.719C5.219-3.797 4.75-2.547 4.75-1.297c0 .594.203 1.469.922 1.469.5 0 1.125-.469 1.484-.781l.032-.079-.063-.093-.094-.016c-.203.125-.437.297-.734.297-.656 0-.734-1-.734-1.484 0-1.016.312-2 .828-2.86L7.125-5c.016-.203.094-.406.14-.578m0 0"/><path id="p" d="M6.844-6.031c0-1.36-.39-2.36-1.907-2.36C1.829-8.39.845-4.92.845-2.375.844-.953 1.28.188 2.906.188c2.813 0 3.938-3.97 3.938-6.22m-.875-.157c0 .547-.094 1.094-.188 1.641H2.016c.28-1.25 1.156-3.531 2.703-3.531 1.031 0 1.25 1.078 1.25 1.89m-.25 2.016c-.266 1.344-.922 4.016-2.64 4.016C1.874-.156 1.75-1.5 1.75-2.422c0-.594.11-1.172.203-1.75Zm0 0"/><path id="o" d="M7.219-2.875v-.703H.78v.703Zm0 0"/><path id="q" d="M5.5-8.219 3.781-9.547l-.312.172.828.797H.219v.703h4.078l-.828.781.312.188Zm0 0"/><path id="r" d="m5.36-.937-.094-.235c-.438.36-.735.531-.922.531S4-.75 3.89-.984a4.8 4.8 0 0 1-.313-1.032l-.203-1.203.422-.578c.547-.781.875-1.062 1.25-1.062.187 0 .328.109.39.28l.172-.046.172-1.016c-.14-.078-.25-.125-.36-.125-.468 0-.952.438-1.687 1.532l-.453.656-.062-.563c-.14-1.187-.469-1.625-1.172-1.625-.313 0-.578.094-.688.25l-.687 1 .203.11c.36-.407.594-.563.828-.563.39 0 .656.485.86 1.657l.124.75-.468.734C1.703-1.031 1.297-.641.953-.641.781-.64.641-.687.625-.75l-.14-.344-.235.047c0 .234-.016.39-.094.766-.031.156-.031.187-.047.265.172.094.375.141.516.141.39 0 .86-.344 1.234-.906l.907-1.39.125.827C3.063-.328 3.328.125 3.75.125c.266 0 .656-.203 1.031-.547Zm0 0"/><path id="s" d="m5.86-5.656-.141-.11c-.344.141-.61.204-.875.235l-.422 1.578c-.14.562-.563 1.437-.953 2.015-.422.61-1 1.141-1.266 1.141-.265 0-.25-.578-.234-.734l.187-2.313c.016-.375.047-.828.047-1.172 0-.53-.094-.75-.297-.75-.156 0-.312.094-.89.485L.03-4.61l.14.203.595-.344c.062-.062.218-.156.297-.156.312 0 .265.61.25.812l-.204 2.907-.015.468c0 .5.218.844.515.844.454 0 1.454-1.016 2.344-2.36L3.375-.187c-.61 2.11-1.219 2.985-2.047 2.985a.737.737 0 0 1-.75-.735c0-.062.016-.156.031-.265L.484 1.75l-.562.406c-.016.078-.016.156-.016.203 0 .516.438.938.985.938 1.265 0 2.578-1.485 3.28-3.688Zm0 0"/></defs><g clip-path="url(#a)"><g clip-path="url(#b)"><path fill="none" stroke="#000" stroke-miterlimit="10" stroke-width=".45" d="M37.621 32.156a18.97 18.97 0 0 1 4.86 12.672c0 5.098-2.055 9.985-5.704 13.547"/></g></g><path fill="none" stroke="#000" stroke-miterlimit="10" stroke-width=".45" d="m42.777 52.496-5.457 5.04 2.457-7.02"/><g clip-path="url(#c)"><g clip-path="url(#d)"><path fill="none" stroke="#000" stroke-miterlimit="10" stroke-width=".45" d="M40.434 29.875a22.56 22.56 0 0 0-16.97-7.691C11.005 22.184.899 32.289.899 44.75c0 12.465 10.106 22.566 22.567 22.566a22.57 22.57 0 0 0 15.832-6.484"/></g></g><path fill="none" stroke="#000" stroke-miterlimit="10" stroke-width=".45" d="m31.5 63.957 6.96-2.582-4.92 5.582"/><g clip-path="url(#e)"><g clip-path="url(#f)"><path fill="none" stroke="#000" stroke-miterlimit="10" stroke-width=".45" d="M54.902 76.258a44.68 44.68 0 0 0 1.5-61.38"/></g></g><path fill="none" stroke="#000" stroke-miterlimit="10" stroke-width=".45" d="M59.879 22.496 57 15.656l5.758 4.68"/><g clip-path="url(#g)"><g clip-path="url(#h)"><path fill="none" stroke="#000" stroke-miterlimit="10" stroke-width="1.8" d="M23.398 44.938 72.718.836"/></g></g><g clip-path="url(#i)"><path fill="none" stroke="#000" stroke-miterlimit="10" stroke-width="1.8" d="m60 7.375 10.438-4.5-5.637 9.844"/></g><g clip-path="url(#j)"><g clip-path="url(#k)"><path fill="none" stroke="#000" stroke-miterlimit="10" stroke-width="1.8" d="m23.398 44.938 43.98 44.28"/></g></g><g clip-path="url(#l)"><path fill="none" stroke="#000" stroke-miterlimit="10" stroke-width="1.8" d="m60.18 76.855 5.039 10.204-10.14-5.102"/></g><use xlink:href="#m" x="2.877" y="16.716"/><use xlink:href="#n" x="8.855" y="16.716"/><use xlink:href="#o" x="19.447" y="16.716"/><use xlink:href="#p" x="30.219" y="16.716"/><use xlink:href="#q" x="73.97" y="11.226"/><use xlink:href="#r" x="72.96" y="11.375"/><use xlink:href="#q" x="69.973" y="87.248"/><use xlink:href="#s" x="69.059" y="87.397"/><use xlink:href="#p" x="72.12" y="39.936"/><use xlink:href="#o" x="44.76" y="52.176"/><use xlink:href="#p" x="52.878" y="52.176"/></svg>