<svg xmlns="http://www.w3.org/2000/svg" xmlns:xlink="http://www.w3.org/1999/xlink" width="289pt" height="108" viewBox="0 0 289 81"><defs><path id="e" d="M5.594.031c-.032-.25-.032-.36-.032-.531 0-.156 0-.281.032-.547l-4.14.125L3.64-3.234c1.156-1.22 1.515-1.875 1.515-2.782 0-1.375-.937-2.218-2.453-2.218-.86 0-1.453.234-2.031.828l-.203 1.64h.344l.156-.562c.187-.688.625-.984 1.422-.984 1.03 0 1.687.64 1.687 1.656 0 .906-.5 1.781-1.86 3.218L.189-.28v.31C1.078.016 1.968 0 2.859 0c.907 0 1.829.016 2.735.031m0 0"/><path id="i" d="M5.563-4.375c0-2.625-.782-3.86-2.422-3.86-1.844 0-2.797 1.47-2.797 4.36 0 1.406.25 2.61.672 3.188.422.593 1.093.921 1.828.921 1.812 0 2.719-1.546 2.719-4.609m-1.016.594c0 2.547-.453 3.61-1.547 3.61-1.156 0-1.656-1.22-1.656-4.126 0-2.531.453-3.516 1.578-3.516 1.172 0 1.625 1.172 1.625 4.032m0 0"/><path id="k" d="M5 .031v-.36l-.625-.03c-.656-.032-.781-.172-.781-.782v-7.093l-.156-.063c-.782.406-1.626.766-2.72 1.156l.079.5h.125c.531-.234 1.047-.468 1.578-.703.063 0 .094.11.094.407v5.796c0 .61-.125.75-.781.782l-.672.03v.36C1.813.016 2.469 0 3.125 0c.61 0 1.25.016 1.875.031m0 0"/><path id="f" d="m5.36-.937-.094-.235c-.438.36-.735.531-.922.531S4-.75 3.89-.984a4.8 4.8 0 0 1-.313-1.032l-.203-1.203.422-.578c.547-.781.875-1.062 1.25-1.062.187 0 .328.109.39.28l.172-.046.172-1.016c-.14-.078-.25-.125-.36-.125-.468 0-.952.438-1.687 1.532l-.453.656-.062-.563c-.14-1.187-.469-1.625-1.172-1.625-.313 0-.578.094-.688.25l-.687 1 .203.11c.36-.407.594-.563.828-.563.39 0 .656.485.86 1.657l.124.75-.468.734C1.703-1.031 1.297-.641.953-.641.781-.64.641-.687.625-.75l-.14-.344-.235.047c0 .234-.016.39-.094.766-.031.156-.031.187-.047.265.172.094.375.141.516.141.39 0 .86-.344 1.234-.906l.907-1.39.125.827C3.063-.328 3.328.125 3.75.125c.266 0 .656-.203 1.031-.547Zm0 0"/><path id="g" d="m5.86-5.656-.141-.11c-.344.141-.61.204-.875.235l-.422 1.578c-.14.562-.563 1.437-.953 2.015-.422.61-1 1.141-1.266 1.141-.265 0-.25-.578-.234-.734l.187-2.313c.016-.375.047-.828.047-1.172 0-.53-.094-.75-.297-.75-.156 0-.312.094-.89.485L.03-4.61l.14.203.595-.344c.062-.062.218-.156.297-.156.312 0 .265.61.25.812l-.204 2.907-.015.468c0 .5.218.844.515.844.454 0 1.454-1.016 2.344-2.36L3.375-.187c-.61 2.11-1.219 2.985-2.047 2.985a.737.737 0 0 1-.75-.735c0-.062.016-.156.031-.265L.484 1.75l-.562.406c-.016.078-.016.156-.016.203 0 .516.438.938.985.938 1.265 0 2.578-1.485 3.28-3.688Zm0 0"/><path id="j" d="M2.188-.64c0-.344-.329-.688-.704-.688-.359 0-.687.344-.687.687 0 .36.328.704.672.704.39 0 .718-.329.718-.704m0 0"/><path id="h" d="M5.563-4.375c0-2.625-.782-3.86-2.422-3.86-1.844 0-2.797 1.47-2.797 4.36 0 1.406.25 2.61.672 3.188.422.593 1.093.921 1.828.921 1.812 0 2.719-1.546 2.719-4.609m-1.016.594c0 2.547-.453 3.61-1.547 3.61-1.156 0-1.656-1.22-1.656-4.126 0-2.531.453-3.516 1.578-3.516 1.172 0 1.625 1.172 1.625 4.032m0 0"/><clipPath id="a"><path d="M22 0h1v81h-1Zm0 0"/></clipPath><clipPath id="b"><path d="M-.703 81.535h291v-83h-291Zm22.7-81.918h.839l1.8 10.2-2.218-8.758-2.223 8.757Zm0 0" clip-rule="evenodd"/></clipPath><clipPath id="c"><path d="M0 53h289v1H0Zm0 0"/></clipPath><clipPath id="d"><path d="M-.703 81.535h291v-83h-291Zm290.121-28.637v.84l-10.2 1.797 8.759-2.219-8.758-2.218Zm0 0" clip-rule="evenodd"/></clipPath></defs><path fill="none" stroke="#000" stroke-miterlimit="10" stroke-width=".45" d="M263.137 50.078v6"/><g clip-path="url(#a)"><g clip-path="url(#b)"><path fill="none" stroke="#000" stroke-miterlimit="10" stroke-width=".45" d="M22.418.035v80.82"/></g></g><path fill="none" stroke="#000" stroke-miterlimit="10" stroke-width=".45" d="m20.195 9.816 2.223-8.757 2.219 8.757"/><g clip-path="url(#c)"><g clip-path="url(#d)"><path fill="none" stroke="#000" stroke-miterlimit="10" stroke-width=".45" d="M.035 53.316h288.961"/></g></g><path fill="none" stroke="#000" stroke-miterlimit="10" stroke-width=".45" d="m279.219 51.098 8.758 2.218-8.758 2.22"/><path fill="none" stroke="#000" stroke-miterlimit="10" stroke-width=".9" d="m22.598 53.316 120.597-33.418 120 33.418"/><path fill="none" stroke="#000" stroke-dasharray="3.6" stroke-miterlimit="10" stroke-width=".45" d="M17.195 19.898h126"/><use xlink:href="#e" x="255.623" y="65.817"/><use xlink:href="#f" x="281.243" y="65.817"/><use xlink:href="#g" x="13.275" y="12.236"/><use xlink:href="#h" x="12.677" y="65.817"/><use xlink:href="#i" x="3.257" y="30.656"/><use xlink:href="#j" x="9.426" y="30.656"/><use xlink:href="#k" x="12.618" y="30.656"/></svg>