<svg xmlns="http://www.w3.org/2000/svg" width="344pt" height="260pt" viewBox="0 0 344 260"><defs><path d="M1.9531-2.1406H.3125v.5h1.6406zm0 0" id="h"/><path d="M1.5156-2.2187h.0781l.25-.0156c.671875 0 1.015625.296875 1.015625.890625 0 .609375-.390625.96875-1.015625.96875-.65625 0-.984375-.328125-1.015625-1.03125H.2188c.0312.39055.0937.64055.2187.8593.234375.46875.71875.703125 1.390625.703125 1 0 1.640625-.59375 1.640625-1.515625 0-.609375-.234375-.953125-.828125-1.15625.453125-.1875.6875-.515625.6875-1 0-.84375-.5625-1.34375-1.484375-1.34375-.984375 0-1.5.546875-1.515625 1.578125h.5938c.015625-.296875.03125-.46875.109375-.609375.140625-.265625.4375-.4375.828125-.4375.53125 0 .84375.3125.84375.828125 0 .34375-.109375.546875-.390625.65625-.15625.078125-.375.09375-.796875.109375zm0 0" id="i"/><path d="M3.4688-.5937H.9063c.0625-.40625.28125-.65625.890625-1l.6719-.375C3.15625-2.328125 3.5-2.828125 3.5-3.421875c0-.40625-.15625-.78125-.453125-1.046875-.28125-.265625-.625-.390625-1.09375-.390625-.625 0-1.078125.21875-1.34375.640625-.171875.25-.25.5625-.265625 1.046875h.6094c.015625-.328125.0625-.53125.140625-.6875.15625-.28125.46875-.46875.828125-.46875.546875 0 .96875.390625.96875.90625 0 .390625-.234375.71875-.65625.96875l-.6406.3594C.578125-1.53125.28125-1.0625.234375 0H3.4688zm0 0" id="j"/><path d="M1.7813-3.4531V0h.5937v-4.8594h-.3906c-.21875.75-.359375.859375-1.28125.96875v.4375zm0 0" id="k"/><path d="M1.8906-4.8594c-.453125 0-.875.203125-1.125.546875-.3125.421875-.46875 1.0625-.46875 1.96875 0 1.640625.546875 2.5 1.59375 2.5 1.03125 0 1.59375-.875 1.59375-2.46875 0-.9375-.15625-1.5625-.484375-2-.25-.34375-.65625-.546875-1.109375-.546875zm0 .5469c.640625 0 .96875.640625.96875 1.953125 0 1.375-.3125 2.015625-.984375 2.015625-.640625 0-.96875-.671875-.96875-2 0-1.328125.328125-1.96875.984375-1.96875zm0 0" id="l"/><clipPath id="m"><use href="#a"/></clipPath><clipPath id="n"><path d="M12 128h320v2H12zm0 0"/></clipPath><clipPath id="o"><path d="M12 7.6602h1v242.25h-1zm0 0"/></clipPath><clipPath id="p"><path d="M65 7.6602h1v242.25h-1zm0 0"/></clipPath><clipPath id="q"><path d="M118 7.6602h1v242.25h-1zm0 0"/></clipPath><clipPath id="r"><use href="#a"/></clipPath><clipPath id="s"><path d="M225 7.6602h1v242.25h-1zm0 0"/></clipPath><clipPath id="t"><path d="M278 7.6602h1v242.25h-1zm0 0"/></clipPath><clipPath id="u"><path d="M331 7.6602h1v242.25h-1zm0 0"/></clipPath><clipPath id="v"><path d="M12 249h320v.9102H12zm0 0"/></clipPath><clipPath id="w"><path d="M12 209h320v1H12zm0 0"/></clipPath><clipPath id="x"><path d="M12 168h320v2H12zm0 0"/></clipPath><clipPath id="y"><path d="M12 128h320v2H12zm0 0"/></clipPath><clipPath id="z"><path d="M12 88h320v1H12zm0 0"/></clipPath><clipPath id="A"><path d="M12 47h320v2H12zm0 0"/></clipPath><clipPath id="B"><path d="M12 7.6602h320V8H12zm0 0"/></clipPath><path id="a" d="M171 7.6602h2v242.25h-2zm0 0"/><path id="b" d="M1997.5031-211.1628v-2425.5368"/><path id="c" d="M399.5006-1423.9312h3196.005"/><path id="d" d="M399.5006-211.1628v-2425.5368"/><path id="e" d="M3595.5056-211.1628v-2425.5368"/><path id="f" d="M399.5006-211.1628h3196.005"/><path id="g" d="M399.5006-2636.6996h3196.005"/></defs><path fill="#fff" d="M12 249.9102h320V7.6602H12zm0 0"/><g clip-path="url(#m)"><use href="#b" class="e"/></g><g clip-path="url(#n)"><use href="#c" class="e"/></g><g clip-path="url(#o)"><use href="#d" class="a"/></g><g clip-path="url(#p)"><path d="M932.155119-211.162813v-2425.536772" class="a"/></g><g clip-path="url(#q)"><path d="M1464.848627-211.162813v-2425.536772" class="a"/></g><g clip-path="url(#r)"><use href="#b" class="a"/></g><g clip-path="url(#s)"><path d="M2530.157615-211.162813v-2425.536772" class="a"/></g><g clip-path="url(#t)"><path d="M3062.851124-211.162813v-2425.536772" class="a"/></g><g clip-path="url(#u)"><use href="#e" class="a"/></g><g clip-path="url(#v)"><use href="#f" class="a"/></g><g clip-path="url(#w)"><path d="M399.500624-615.418942h3196.004994" class="a"/></g><g clip-path="url(#x)"><path d="M399.500624-1019.675071h3196.004994" class="a"/></g><g clip-path="url(#y)"><use href="#c" class="a"/></g><g clip-path="url(#z)"><path d="M399.500624-1828.187328h3196.004994" class="a"/></g><g clip-path="url(#A)"><path d="M399.500624-2232.443457h3196.004994" class="a"/></g><g clip-path="url(#B)"><use href="#g" class="a"/></g><g class="b"><use href="#f" class="c"/><g class="d"><path d="M399.500624-211.162813v-45.643083"/><path d="M399.500624-211.162813v-22.841097"/><path d="M452.75437-211.162813v-22.841097"/><path d="M506.047129-211.162813v-22.841097"/><path d="M559.300874-211.162813v-22.841097"/><path d="M612.554619-211.162813v-22.841097"/><path d="M665.847378-211.162813v-22.841097"/><path d="M719.101124-211.162813v-22.841097"/><path d="M772.354869-211.162813v-22.841097"/><path d="M825.647628-211.162813v-22.841097"/><path d="M932.155119-211.162813v-45.643083"/><path d="M932.155119-211.162813v-22.841097"/><path d="M985.447878-211.162813v-22.841097"/><path d="M1038.701623-211.162813v-22.841097"/><path d="M1091.955368-211.162813v-22.841097"/><path d="M1145.248127-211.162813v-22.841097"/><path d="M1198.501873-211.162813v-22.841097"/><path d="M1251.755618-211.162813v-22.841097"/><path d="M1305.048377-211.162813v-22.841097"/><path d="M1358.302122-211.162813v-22.841097"/><path d="M1464.848627-211.162813v-45.643083"/><path d="M1464.848627-211.162813v-22.841097"/><path d="M1518.102372-211.162813v-22.841097"/><path d="M1571.356117-211.162813v-22.841097"/><path d="M1624.648876-211.162813v-22.841097"/><path d="M1677.902622-211.162813v-22.841097"/><path d="M1731.156367-211.162813v-22.841097"/><path d="M1784.449126-211.162813v-22.841097"/><path d="M1837.702871-211.162813v-22.841097"/><path d="M1890.956617-211.162813v-22.841097"/><path d="M1997.503121-211.162813v-45.643083"/><path d="M1997.503121-211.162813v-22.841097"/><path d="M2050.756866-211.162813v-22.841097"/><path d="M2104.049625-211.162813v-22.841097"/><path d="M2157.303371-211.162813v-22.841097"/><path d="M2210.557116-211.162813v-22.841097"/><path d="M2263.849875-211.162813v-22.841097"/><path d="M2317.10362-211.162813v-22.841097"/><path d="M2370.357366-211.162813v-22.841097"/><path d="M2423.650125-211.162813v-22.841097"/><path d="M2530.157615-211.162813v-45.643083"/><path d="M2530.157615-211.162813v-22.841097"/><path d="M2583.450375-211.162813v-22.841097"/><path d="M2636.70412-211.162813v-22.841097"/><path d="M2689.957865-211.162813v-22.841097"/><path d="M2743.250624-211.162813v-22.841097"/><path d="M2796.50437-211.162813v-22.841097"/><path d="M2849.758115-211.162813v-22.841097"/><path d="M2903.050874-211.162813v-22.841097"/><path d="M2956.304619-211.162813v-22.841097"/><path d="M3062.851124-211.162813v-45.643083"/><path d="M3062.851124-211.162813v-22.841097"/><path d="M3116.104869-211.162813v-22.841097"/><path d="M3169.358614-211.162813v-22.841097"/><path d="M3222.651373-211.162813v-22.841097"/><path d="M3275.905119-211.162813v-22.841097"/><path d="M3329.158864-211.162813v-22.841097"/><path d="M3382.451623-211.162813v-22.841097"/><path d="M3435.705368-211.162813v-22.841097"/><path d="M3488.959114-211.162813v-22.841097"/><path d="M3595.505618-211.162813v-45.643083"/><path d="M3595.505618-211.162813v-22.841097"/></g></g><use x="8.9523" y="259.0301" href="#h"/><use x="11.2357" y="259.0301" href="#i"/><use x="62.095" y="259.0301" href="#h"/><use x="64.3784" y="259.0301" href="#j"/><use x="115.2381" y="259.0301" href="#h"/><use x="117.5216" y="259.0301" href="#k"/><use x="170.0942" y="259.0301" href="#l"/><use x="223.2373" y="259.0301" href="#k"/><use x="276.3804" y="259.0301" href="#j"/><use x="330.095" y="259.0301" href="#i"/><g class="b"><use href="#g" class="c"/><g class="d"><path d="M399.500624-2636.699585v45.643082"/><path d="M399.500624-2636.699585v22.841097"/><path d="M452.75437-2636.699585v22.841097"/><path d="M506.047129-2636.699585v22.841097"/><path d="M559.300874-2636.699585v22.841097"/><path d="M612.554619-2636.699585v22.841097"/><path d="M665.847378-2636.699585v22.841097"/><path d="M719.101124-2636.699585v22.841097"/><path d="M772.354869-2636.699585v22.841097"/><path d="M825.647628-2636.699585v22.841097"/><path d="M932.155119-2636.699585v45.643082"/><path d="M932.155119-2636.699585v22.841097"/><path d="M985.447878-2636.699585v22.841097"/><path d="M1038.701623-2636.699585v22.841097"/><path d="M1091.955368-2636.699585v22.841097"/><path d="M1145.248127-2636.699585v22.841097"/><path d="M1198.501873-2636.699585v22.841097"/><path d="M1251.755618-2636.699585v22.841097"/><path d="M1305.048377-2636.699585v22.841097"/><path d="M1358.302122-2636.699585v22.841097"/><path d="M1464.848627-2636.699585v45.643082"/><path d="M1464.848627-2636.699585v22.841097"/><path d="M1518.102372-2636.699585v22.841097"/><path d="M1571.356117-2636.699585v22.841097"/><path d="M1624.648876-2636.699585v22.841097"/><path d="M1677.902622-2636.699585v22.841097"/><path d="M1731.156367-2636.699585v22.841097"/><path d="M1784.449126-2636.699585v22.841097"/><path d="M1837.702871-2636.699585v22.841097"/><path d="M1890.956617-2636.699585v22.841097"/><path d="M1997.503121-2636.699585v45.643082"/><path d="M1997.503121-2636.699585v22.841097"/><path d="M2050.756866-2636.699585v22.841097"/><path d="M2104.049625-2636.699585v22.841097"/><path d="M2157.303371-2636.699585v22.841097"/><path d="M2210.557116-2636.699585v22.841097"/><path d="M2263.849875-2636.699585v22.841097"/><path d="M2317.10362-2636.699585v22.841097"/><path d="M2370.357366-2636.699585v22.841097"/><path d="M2423.650125-2636.699585v22.841097"/><path d="M2530.157615-2636.699585v45.643082"/><path d="M2530.157615-2636.699585v22.841097"/><path d="M2583.450375-2636.699585v22.841097"/><path d="M2636.70412-2636.699585v22.841097"/><path d="M2689.957865-2636.699585v22.841097"/><path d="M2743.250624-2636.699585v22.841097"/><path d="M2796.50437-2636.699585v22.841097"/><path d="M2849.758115-2636.699585v22.841097"/><path d="M2903.050874-2636.699585v22.841097"/><path d="M2956.304619-2636.699585v22.841097"/><path d="M3062.851124-2636.699585v45.643082"/><path d="M3062.851124-2636.699585v22.841097"/><path d="M3116.104869-2636.699585v22.841097"/><path d="M3169.358614-2636.699585v22.841097"/><path d="M3222.651373-2636.699585v22.841097"/><path d="M3275.905119-2636.699585v22.841097"/><path d="M3329.158864-2636.699585v22.841097"/><path d="M3382.451623-2636.699585v22.841097"/><path d="M3435.705368-2636.699585v22.841097"/><path d="M3488.959114-2636.699585v22.841097"/><path d="M3595.505618-2636.699585v45.643082"/><path d="M3595.505618-2636.699585v22.841097"/></g></g><use x="8.9523" y="5.38" href="#h"/><use x="11.2357" y="5.38" href="#i"/><use x="62.095" y="5.38" href="#h"/><use x="64.3784" y="5.38" href="#j"/><use x="115.2381" y="5.38" href="#h"/><use x="117.5216" y="5.38" href="#k"/><use x="170.0942" y="5.38" href="#l"/><use x="223.2373" y="5.38" href="#k"/><use x="276.3804" y="5.38" href="#j"/><use x="330.095" y="5.38" href="#i"/><g class="b"><use href="#d" class="c"/><g class="d"><path d="M399.500624-211.162813h45.646068"/><path d="M399.500624-211.162813h22.823034"/><path d="M399.500624-251.604071h22.823034"/><path d="M399.500624-292.006217h22.823034"/><path d="M399.500624-332.447474h22.823034"/><path d="M399.500624-372.84962h22.823034"/><path d="M399.500624-413.290878h22.823034"/><path d="M399.500624-453.732135h22.823034"/><path d="M399.500624-494.134281h22.823034"/><path d="M399.500624-534.575539h22.823034"/><path d="M399.500624-615.418942h45.646068"/><path d="M399.500624-615.418942h22.823034"/><path d="M399.500624-655.860199h22.823034"/><path d="M399.500624-696.262345h22.823034"/><path d="M399.500624-736.703603h22.823034"/><path d="M399.500624-777.105749h22.823034"/><path d="M399.500624-817.547006h22.823034"/><path d="M399.500624-857.988264h22.823034"/><path d="M399.500624-898.39041h22.823034"/><path d="M399.500624-938.831667h22.823034"/><path d="M399.500624-1019.675071h45.646068"/><path d="M399.500624-1019.675071h22.823034"/><path d="M399.500624-1060.116328h22.823034"/><path d="M399.500624-1100.518474h22.823034"/><path d="M399.500624-1140.959732h22.823034"/><path d="M399.500624-1181.361878h22.823034"/><path d="M399.500624-1221.803135h22.823034"/><path d="M399.500624-1262.244392h22.823034"/><path d="M399.500624-1302.646538h22.823034"/><path d="M399.500624-1343.087796h22.823034"/><path d="M399.500624-1423.931199h45.646068"/><path d="M399.500624-1423.931199h22.823034"/><path d="M399.500624-1464.372457h22.823034"/><path d="M399.500624-1504.774603h22.823034"/><path d="M399.500624-1545.21586h22.823034"/><path d="M399.500624-1585.618006h22.823034"/><path d="M399.500624-1626.059264h22.823034"/><path d="M399.500624-1666.46141h22.823034"/><path d="M399.500624-1706.902667h22.823034"/><path d="M399.500624-1747.343925h22.823034"/><path d="M399.500624-1828.187328h45.646068"/><path d="M399.500624-1828.187328h22.823034"/><path d="M399.500624-1868.628585h22.823034"/><path d="M399.500624-1909.030731h22.823034"/><path d="M399.500624-1949.471989h22.823034"/><path d="M399.500624-1989.874135h22.823034"/><path d="M399.500624-2030.315392h22.823034"/><path d="M399.500624-2070.75665h22.823034"/><path d="M399.500624-2111.158796h22.823034"/><path d="M399.500624-2151.600053h22.823034"/><path d="M399.500624-2232.443457h45.646068"/><path d="M399.500624-2232.443457h22.823034"/><path d="M399.500624-2272.884714h22.823034"/><path d="M399.500624-2313.28686h22.823034"/><path d="M399.500624-2353.728118h22.823034"/><path d="M399.500624-2394.169375h22.823034"/><path d="M399.500624-2434.571521h22.823034"/><path d="M399.500624-2475.012778h22.823034"/><path d="M399.500624-2515.414924h22.823034"/><path d="M399.500624-2555.856182h22.823034"/><path d="M399.500624-2636.699585h45.646068"/><path d="M399.500624-2636.699585h22.823034"/></g></g><use x=".1902" y="253.3301" href="#h"/><use x="2.4736" y="253.3301" href="#i"/><use x=".1902" y="212.8602" href="#h"/><use x="2.4736" y="212.8602" href="#j"/><use x=".1902" y="172.3899" href="#h"/><use x="2.4736" y="172.3899" href="#k"/><use x="2.4734" y="131.92" href="#l"/><use x="2.4734" y="91.4501" href="#k"/><use x="2.4734" y="50.9802" href="#j"/><use x="2.4734" y="11.0802" href="#i"/><g class="b"><use href="#e" class="c"/><g class="d"><path d="M3595.505618-211.162813h-45.685081"/><path d="M3595.505618-211.162813h-22.823034"/><path d="M3595.505618-251.604071h-22.823034"/><path d="M3595.505618-292.006217h-22.823034"/><path d="M3595.505618-332.447474h-22.823034"/><path d="M3595.505618-372.84962h-22.823034"/><path d="M3595.505618-413.290878h-22.823034"/><path d="M3595.505618-453.732135h-22.823034"/><path d="M3595.505618-494.134281h-22.823034"/><path d="M3595.505618-534.575539h-22.823034"/><path d="M3595.505618-615.418942h-45.685081"/><path d="M3595.505618-615.418942h-22.823034"/><path d="M3595.505618-655.860199h-22.823034"/><path d="M3595.505618-696.262345h-22.823034"/><path d="M3595.505618-736.703603h-22.823034"/><path d="M3595.505618-777.105749h-22.823034"/><path d="M3595.505618-817.547006h-22.823034"/><path d="M3595.505618-857.988264h-22.823034"/><path d="M3595.505618-898.39041h-22.823034"/><path d="M3595.505618-938.831667h-22.823034"/><path d="M3595.505618-1019.675071h-45.685081"/><path d="M3595.505618-1019.675071h-22.823034"/><path d="M3595.505618-1060.116328h-22.823034"/><path d="M3595.505618-1100.518474h-22.823034"/><path d="M3595.505618-1140.959732h-22.823034"/><path d="M3595.505618-1181.361878h-22.823034"/><path d="M3595.505618-1221.803135h-22.823034"/><path d="M3595.505618-1262.244392h-22.823034"/><path d="M3595.505618-1302.646538h-22.823034"/><path d="M3595.505618-1343.087796h-22.823034"/><path d="M3595.505618-1423.931199h-45.685081"/><path d="M3595.505618-1423.931199h-22.823034"/><path d="M3595.505618-1464.372457h-22.823034"/><path d="M3595.505618-1504.774603h-22.823034"/><path d="M3595.505618-1545.21586h-22.823034"/><path d="M3595.505618-1585.618006h-22.823034"/><path d="M3595.505618-1626.059264h-22.823034"/><path d="M3595.505618-1666.46141h-22.823034"/><path d="M3595.505618-1706.902667h-22.823034"/><path d="M3595.505618-1747.343925h-22.823034"/><path d="M3595.505618-1828.187328h-45.685081"/><path d="M3595.505618-1828.187328h-22.823034"/><path d="M3595.505618-1868.628585h-22.823034"/><path d="M3595.505618-1909.030731h-22.823034"/><path d="M3595.505618-1949.471989h-22.823034"/><path d="M3595.505618-1989.874135h-22.823034"/><path d="M3595.505618-2030.315392h-22.823034"/><path d="M3595.505618-2070.75665h-22.823034"/><path d="M3595.505618-2111.158796h-22.823034"/><path d="M3595.505618-2151.600053h-22.823034"/><path d="M3595.505618-2232.443457h-45.685081"/><path d="M3595.505618-2232.443457h-22.823034"/><path d="M3595.505618-2272.884714h-22.823034"/><path d="M3595.505618-2313.28686h-22.823034"/><path d="M3595.505618-2353.728118h-22.823034"/><path d="M3595.505618-2394.169375h-22.823034"/><path d="M3595.505618-2434.571521h-22.823034"/><path d="M3595.505618-2475.012778h-22.823034"/><path d="M3595.505618-2515.414924h-22.823034"/><path d="M3595.505618-2555.856182h-22.823034"/><path d="M3595.505618-2636.699585h-45.685081"/><path d="M3595.505618-2636.699585h-22.823034"/></g></g><use x="337.714" y="253.3301" href="#h"/><use x="339.9974" y="253.3301" href="#i"/><use x="337.714" y="212.8602" href="#h"/><use x="339.9974" y="212.8602" href="#j"/><use x="337.714" y="172.3899" href="#h"/><use x="339.9974" y="172.3899" href="#k"/><use x="337.714" y="131.92" href="#l"/><use x="337.714" y="91.4501" href="#k"/><use x="337.714" y="50.9802" href="#j"/><use x="337.714" y="11.0802" href="#i"/><path d="M3009.558365-1909.030731l106.546504-242.569322" style="fill:none;stroke-width:11.4143;stroke-linecap:round;stroke-linejoin:round;stroke:#00f;stroke-miterlimit:10;transform:matrix(.100125,0,0,.0998748,-28,271)"/><style>.a{fill:none;stroke:#bfbfbf;stroke-dasharray:11.4143,17.1214;stroke-linecap:round;stroke-miterlimit:10;stroke-width:5.70714;transform:matrix(.100125,0,0,.0998748,-28,271)}.b{fill:none;stroke:#000;stroke-miterlimit:10;transform:matrix(.100125,0,0,.0998748,-28,271)}.c{stroke-linecap:square;stroke-width:11.4143}.d{stroke-width:5.70714}.e{fill:none;stroke:#bfbfbf;stroke-linecap:round;stroke-miterlimit:10;stroke-width:5.70714;transform:matrix(.100125,0,0,.0998748,-28,271)}</style></svg>