<svg xmlns="http://www.w3.org/2000/svg" width="367pt" height="274pt" viewBox="0 0 367 274"><defs><path d="M2.125-2.3437H.3438v.5469H2.125zm0 0" id="a"/><path d="M1.6563-2.4375h.3594c.734375 0 1.109375.328125 1.109375.953125C3.125-.8125 2.703125-.40625 2.015625-.40625 1.296875-.40625.9375-.765625.90625-1.546875H.2344C.265625-1.125.34375-.84375.46875-.59375.75-.09375 1.265625.171875 2 .171875c1.09375 0 1.796875-.65625 1.796875-1.65625 0-.671875-.265625-1.046875-.90625-1.265625.5-.203125.75-.578125.75-1.109375 0-.90625-.609375-1.453125-1.625-1.453125C.9375-5.3125.375-4.734375.359375-3.59375h.6563c0-.328125.03125-.515625.109375-.671875.15625-.296875.484375-.46875.90625-.46875.578125 0 .9375.34375.9375.90625 0 .375-.140625.59375-.4375.71875C2.359375-3.03125 2.125-3 1.65625-3zm0 0" id="b"/><path d="M3.7969-.6562H1c.0625-.4375.3125-.703125.953125-1.09375l.75-.4062c.75-.40625 1.125-.953125 1.125-1.59375 0-.453125-.171875-.859375-.484375-1.140625C3.015625-5.1875 2.625-5.3125 2.125-5.3125c-.671875 0-1.171875.234375-1.46875.6875-.1875.28125-.265625.609375-.28125 1.15625h.6563c.03125-.359375.078125-.578125.15625-.75.171875-.328125.515625-.515625.921875-.515625.59375 0 1.046875.421875 1.046875.984375 0 .421875-.25.78125-.71875 1.0625l-.6875.3906C.640625-1.671875.3125-1.171875.25 0h3.5469zm0 0" id="c"/><path d="M1.9375-3.7812V0h.6719v-5.3125h-.4375c-.2344.8125-.39065.921875-1.406275 1.046875v.4844zm0 0" id="d"/><path d="M2.0625-5.3125c-.5 0-.9375.21875-1.21875.578125C.5-4.265625.328125-3.5625.328125-2.578125c0 1.796875.59375 2.75 1.734375 2.75 1.125 0 1.734375-.953125 1.734375-2.703125 0-1.03125-.15625-1.71875-.515625-2.203125C3-5.109375 2.5625-5.3125 2.0625-5.3125zm0 .5781c.71875 0 1.0625.71875 1.0625 2.140625C3.125-1.078125 2.78125-.375 2.046875-.375 1.34375-.375 1-1.109375 1-2.5625c0-1.453125.34375-2.171875 1.0625-2.171875zm0 0" id="e"/><clipPath id="f"><path d="M183 8.5h2v255h-2zm0 0"/></clipPath><clipPath id="g"><path d="M14 135h340v2H14zm0 0"/></clipPath><clipPath id="h"><path d="M14 8.5h1v255h-1zm0 0"/></clipPath><clipPath id="i"><path d="M70 8.5h1v255h-1zm0 0"/></clipPath><clipPath id="j"><path d="M127 8.5h1v255h-1zm0 0"/></clipPath><clipPath id="k"><path d="M183 8.5h2v255h-2zm0 0"/></clipPath><clipPath id="l"><path d="M240 8.5h1v255h-1zm0 0"/></clipPath><clipPath id="m"><path d="M297 8.5h1v255h-1zm0 0"/></clipPath><clipPath id="n"><path d="M353 8.5h1v255h-1zm0 0"/></clipPath><clipPath id="o"><path d="M14 263h340v.5H14zm0 0"/></clipPath><clipPath id="p"><path d="M14 220h340v2H14zm0 0"/></clipPath><clipPath id="q"><path d="M14 178h340v1H14zm0 0"/></clipPath><clipPath id="r"><path d="M14 135h340v2H14zm0 0"/></clipPath><clipPath id="s"><path d="M14 93h340v1H14zm0 0"/></clipPath><clipPath id="t"><path d="M14 50h340v2H14zm0 0"/></clipPath><clipPath id="u"><path d="M14 8.5h340V9H14zm0 0"/></clipPath><clipPath id="v"><path d="M14 33h171v230.5H14zm0 0"/></clipPath><clipPath id="w"><path d="M76 8.5h109v255H76zm0 0"/></clipPath><clipPath id="x"><path d="M14 185h144v78.5H14zm0 0"/></clipPath><clipPath id="y"><path d="M184 47h170v216.5H184zm0 0"/></clipPath><clipPath id="z"><path d="M198 162h156v101.5H198zm0 0"/></clipPath></defs><path fill="#fff" d="M14 263.5h340V8.5H14zm0 0"/><g clip-path="url(#f)"><path d="M1840 105v2550" class="f"/></g><g clip-path="url(#g)"><path d="M140 1380h3400" class="f"/></g><g clip-path="url(#h)"><path d="M140 105v2550" class="a"/></g><g clip-path="url(#i)"><path d="M706.679688 105v2550" class="a"/></g><g clip-path="url(#j)"><path d="M1273.320312 105v2550" class="a"/></g><g clip-path="url(#k)"><path d="M1840 105v2550" class="a"/></g><g clip-path="url(#l)"><path d="M2406.679688 105v2550" class="a"/></g><g clip-path="url(#m)"><path d="M2973.320312 105v2550" class="a"/></g><g clip-path="url(#n)"><path d="M3540 105v2550" class="a"/></g><g clip-path="url(#o)"><path d="M140 105h3400" class="a"/></g><g clip-path="url(#p)"><path d="M140 530h3400" class="a"/></g><g clip-path="url(#q)"><path d="M140 955h3400" class="a"/></g><g clip-path="url(#r)"><path d="M140 1380h3400" class="a"/></g><g clip-path="url(#s)"><path d="M140 1805h3400" class="a"/></g><g clip-path="url(#t)"><path d="M140 2230h3400" class="a"/></g><g clip-path="url(#u)"><path d="M140 2655h3400" class="a"/></g><g class="c"><path d="M140 105h3400" class="d"/><g class="e"><path d="M140 105v50"/><path d="M196.679688 105v25"/><path d="M253.320312 105v25"/><path d="M310 105v25"/><path d="M366.679688 105v25"/><path d="M423.320312 105v25"/><path d="M480 105v25"/><path d="M536.679688 105v25"/><path d="M593.320312 105v25"/><path d="M650 105v25"/><path d="M706.679688 105v50"/><path d="M763.320312 105v25"/><path d="M820 105v25"/><path d="M876.679688 105v25"/><path d="M933.320312 105v25"/><path d="M990 105v25"/><path d="M1046.679688 105v25"/><path d="M1103.320312 105v25"/><path d="M1160 105v25"/><path d="M1216.679688 105v25"/><path d="M1273.320312 105v50"/><path d="M1330 105v25"/><path d="M1386.679688 105v25"/><path d="M1443.320312 105v25"/><path d="M1500 105v25"/><path d="M1556.679688 105v25"/><path d="M1613.320312 105v25"/><path d="M1670 105v25"/><path d="M1726.679688 105v25"/><path d="M1783.320312 105v25"/><path d="M1840 105v50"/><path d="M1896.679688 105v25"/><path d="M1953.320312 105v25"/><path d="M2010 105v25"/><path d="M2066.679688 105v25"/><path d="M2123.320312 105v25"/><path d="M2180 105v25"/><path d="M2236.679688 105v25"/><path d="M2293.320312 105v25"/><path d="M2350 105v25"/><path d="M2406.679688 105v50"/><path d="M2463.320312 105v25"/><path d="M2520 105v25"/><path d="M2576.679688 105v25"/><path d="M2633.320312 105v25"/><path d="M2690 105v25"/><path d="M2746.679688 105v25"/><path d="M2803.320312 105v25"/><path d="M2860 105v25"/><path d="M2916.679688 105v25"/><path d="M2973.320312 105v50"/><path d="M3030 105v25"/><path d="M3086.679688 105v25"/><path d="M3143.320312 105v25"/><path d="M3200 105v25"/><path d="M3256.679688 105v25"/><path d="M3313.320312 105v25"/><path d="M3370 105v25"/><path d="M3426.679688 105v25"/><path d="M3483.320312 105v25"/><path d="M3540 105v50"/></g></g><use x="10.0414" y="273.5" href="#a"/><use x="12.5389" y="273.5" href="#b"/><use x="66.9164" y="273.5" href="#a"/><use x="69.4139" y="273.5" href="#c"/><use x="123.7914" y="273.5" href="#a"/><use x="126.2889" y="273.5" href="#d"/><use x="181.9152" y="273.5" href="#e"/><use x="238.1652" y="273.5" href="#d"/><use x="295.0401" y="273.5" href="#c"/><use x="351.9151" y="273.5" href="#b"/><g class="c"><path d="M140 2655h3400" class="d"/><g class="e"><path d="M140 2655v-50"/><path d="M196.679688 2655v-25"/><path d="M253.320312 2655v-25"/><path d="M310 2655v-25"/><path d="M366.679688 2655v-25"/><path d="M423.320312 2655v-25"/><path d="M480 2655v-25"/><path d="M536.679688 2655v-25"/><path d="M593.320312 2655v-25"/><path d="M650 2655v-25"/><path d="M706.679688 2655v-50"/><path d="M763.320312 2655v-25"/><path d="M820 2655v-25"/><path d="M876.679688 2655v-25"/><path d="M933.320312 2655v-25"/><path d="M990 2655v-25"/><path d="M1046.679688 2655v-25"/><path d="M1103.320312 2655v-25"/><path d="M1160 2655v-25"/><path d="M1216.679688 2655v-25"/><path d="M1273.320312 2655v-50"/><path d="M1330 2655v-25"/><path d="M1386.679688 2655v-25"/><path d="M1443.320312 2655v-25"/><path d="M1500 2655v-25"/><path d="M1556.679688 2655v-25"/><path d="M1613.320312 2655v-25"/><path d="M1670 2655v-25"/><path d="M1726.679688 2655v-25"/><path d="M1783.320312 2655v-25"/><path d="M1840 2655v-50"/><path d="M1896.679688 2655v-25"/><path d="M1953.320312 2655v-25"/><path d="M2010 2655v-25"/><path d="M2066.679688 2655v-25"/><path d="M2123.320312 2655v-25"/><path d="M2180 2655v-25"/><path d="M2236.679688 2655v-25"/><path d="M2293.320312 2655v-25"/><path d="M2350 2655v-25"/><path d="M2406.679688 2655v-50"/><path d="M2463.320312 2655v-25"/><path d="M2520 2655v-25"/><path d="M2576.679688 2655v-25"/><path d="M2633.320312 2655v-25"/><path d="M2690 2655v-25"/><path d="M2746.679688 2655v-25"/><path d="M2803.320312 2655v-25"/><path d="M2860 2655v-25"/><path d="M2916.679688 2655v-25"/><path d="M2973.320312 2655v-50"/><path d="M3030 2655v-25"/><path d="M3086.679688 2655v-25"/><path d="M3143.320312 2655v-25"/><path d="M3200 2655v-25"/><path d="M3256.679688 2655v-25"/><path d="M3313.320312 2655v-25"/><path d="M3370 2655v-25"/><path d="M3426.679688 2655v-25"/><path d="M3483.320312 2655v-25"/><path d="M3540 2655v-50"/></g></g><use x="10.0414" y="5.375" href="#a"/><use x="12.5389" y="5.375" href="#b"/><use x="66.9164" y="5.375" href="#a"/><use x="69.4139" y="5.375" href="#c"/><use x="123.7914" y="5.375" href="#a"/><use x="126.2889" y="5.375" href="#d"/><use x="181.9152" y="5.375" href="#e"/><use x="238.1652" y="5.375" href="#d"/><use x="295.0401" y="5.375" href="#c"/><use x="351.9151" y="5.375" href="#b"/><g class="c"><path d="M140 105v2550" class="d"/><g class="e"><path d="M140 105h50"/><path d="M140 147.5h25"/><path d="M140 190h25"/><path d="M140 232.5h25"/><path d="M140 275h25"/><path d="M140 317.5h25"/><path d="M140 360h25"/><path d="M140 402.5h25"/><path d="M140 445h25"/><path d="M140 487.5h25"/><path d="M140 530h50"/><path d="M140 572.5h25"/><path d="M140 615h25"/><path d="M140 657.5h25"/><path d="M140 700h25"/><path d="M140 742.5h25"/><path d="M140 785h25"/><path d="M140 827.5h25"/><path d="M140 870h25"/><path d="M140 912.5h25"/><path d="M140 955h50"/><path d="M140 997.5h25"/><path d="M140 1040h25"/><path d="M140 1082.5h25"/><path d="M140 1125h25"/><path d="M140 1167.5h25"/><path d="M140 1210h25"/><path d="M140 1252.5h25"/><path d="M140 1295h25"/><path d="M140 1337.5h25"/><path d="M140 1380h50"/><path d="M140 1422.5h25"/><path d="M140 1465h25"/><path d="M140 1507.5h25"/><path d="M140 1550h25"/><path d="M140 1592.5h25"/><path d="M140 1635h25"/><path d="M140 1677.5h25"/><path d="M140 1720h25"/><path d="M140 1762.5h25"/><path d="M140 1805h50"/><path d="M140 1847.5h25"/><path d="M140 1890h25"/><path d="M140 1932.5h25"/><path d="M140 1975h25"/><path d="M140 2017.5h25"/><path d="M140 2060h25"/><path d="M140 2102.5h25"/><path d="M140 2145h25"/><path d="M140 2187.5h25"/><path d="M140 2230h50"/><path d="M140 2272.5h25"/><path d="M140 2315h25"/><path d="M140 2357.5h25"/><path d="M140 2400h25"/><path d="M140 2442.5h25"/><path d="M140 2485h25"/><path d="M140 2527.5h25"/><path d="M140 2570h25"/><path d="M140 2612.5h25"/><path d="M140 2655h50"/></g></g><use x=".4578" y="267.25" href="#a"/><use x="2.9553" y="267.25" href="#b"/><use x=".4578" y="224.125" href="#a"/><use x="2.9553" y="224.125" href="#c"/><use x=".4578" y="182.25" href="#a"/><use x="2.9553" y="182.25" href="#d"/><use x="2.9551" y="139.125" href="#e"/><use x="2.9551" y="97.25" href="#d"/><use x="2.9551" y="54.125" href="#c"/><use x="2.9551" y="11.625" href="#b"/><g class="c"><path d="M3540 105v2550" class="d"/><g class="e"><path d="M3540 105h-50"/><path d="M3540 147.5h-25"/><path d="M3540 190h-25"/><path d="M3540 232.5h-25"/><path d="M3540 275h-25"/><path d="M3540 317.5h-25"/><path d="M3540 360h-25"/><path d="M3540 402.5h-25"/><path d="M3540 445h-25"/><path d="M3540 487.5h-25"/><path d="M3540 530h-50"/><path d="M3540 572.5h-25"/><path d="M3540 615h-25"/><path d="M3540 657.5h-25"/><path d="M3540 700h-25"/><path d="M3540 742.5h-25"/><path d="M3540 785h-25"/><path d="M3540 827.5h-25"/><path d="M3540 870h-25"/><path d="M3540 912.5h-25"/><path d="M3540 955h-50"/><path d="M3540 997.5h-25"/><path d="M3540 1040h-25"/><path d="M3540 1082.5h-25"/><path d="M3540 1125h-25"/><path d="M3540 1167.5h-25"/><path d="M3540 1210h-25"/><path d="M3540 1252.5h-25"/><path d="M3540 1295h-25"/><path d="M3540 1337.5h-25"/><path d="M3540 1380h-50"/><path d="M3540 1422.5h-25"/><path d="M3540 1465h-25"/><path d="M3540 1507.5h-25"/><path d="M3540 1550h-25"/><path d="M3540 1592.5h-25"/><path d="M3540 1635h-25"/><path d="M3540 1677.5h-25"/><path d="M3540 1720h-25"/><path d="M3540 1762.5h-25"/><path d="M3540 1805h-50"/><path d="M3540 1847.5h-25"/><path d="M3540 1890h-25"/><path d="M3540 1932.5h-25"/><path d="M3540 1975h-25"/><path d="M3540 2017.5h-25"/><path d="M3540 2060h-25"/><path d="M3540 2102.5h-25"/><path d="M3540 2145h-25"/><path d="M3540 2187.5h-25"/><path d="M3540 2230h-50"/><path d="M3540 2272.5h-25"/><path d="M3540 2315h-25"/><path d="M3540 2357.5h-25"/><path d="M3540 2400h-25"/><path d="M3540 2442.5h-25"/><path d="M3540 2485h-25"/><path d="M3540 2527.5h-25"/><path d="M3540 2570h-25"/><path d="M3540 2612.5h-25"/><path d="M3540 2655h-50"/></g></g><use x="360.25" y="267.25" href="#a"/><use x="362.7475" y="267.25" href="#b"/><use x="360.25" y="224.125" href="#a"/><use x="362.7475" y="224.125" href="#c"/><use x="360.25" y="182.25" href="#a"/><use x="362.7475" y="182.25" href="#d"/><use x="360.25" y="139.125" href="#e"/><use x="360.25" y="97.25" href="#d"/><use x="360.25" y="54.125" href="#c"/><use x="360.25" y="11.625" href="#b"/><g style="fill:none;stroke-width:6.25;stroke-linecap:round;stroke:#00f;stroke-miterlimit:10;transform:matrix(.1,0,0,-.1,0,274)"><path d="M175.664062 181.71875l98.671876-25.9375"/><path d="M274.335938 155.78125h0"/><path d="M175.664062 309.21875l98.671876-25.9375"/><path d="M274.335938 283.28125h0"/><path d="M175.664062 436.71875l98.671876-25.9375"/><path d="M274.335938 410.78125h0"/><path d="M175.664062 564.21875l98.671876-25.9375"/><path d="M274.335938 538.28125h0"/><path d="M175.664062 691.71875l98.671876-25.9375"/><path d="M274.335938 665.78125h0"/><path d="M175.664062 819.21875l98.671876-25.9375"/><path d="M274.335938 793.28125h0"/><path d="M175.664062 946.71875l98.671876-25.9375"/><path d="M274.335938 920.78125h0"/><path d="M175.664062 1074.21875l98.671876-25.9375"/><path d="M274.335938 1048.28125h0"/><path d="M175.664062 1201.71875l98.671876-25.9375"/><path d="M274.335938 1175.78125h0"/><path d="M175.664062 1329.21875l98.671876-25.9375"/><path d="M274.335938 1303.28125h0"/><path d="M175.664062 1456.71875l98.671876-25.9375"/><path d="M274.335938 1430.78125h0"/><path d="M175.664062 1584.21875l98.671876-25.9375"/><path d="M274.335938 1558.28125h0"/><path d="M175.664062 1711.71875l98.671876-25.9375"/><path d="M274.335938 1685.78125h0"/><path d="M175.664062 1839.21875l98.671876-25.9375"/><path d="M274.335938 1813.28125h0"/><path d="M175.664062 1966.71875l98.671876-25.9375"/><path d="M274.335938 1940.78125h0"/><path d="M175.664062 2094.21875l98.671876-25.9375"/><path d="M274.335938 2068.28125h0"/><path d="M175.664062 2221.71875l98.671876-25.9375"/><path d="M274.335938 2195.78125h0"/><path d="M175.664062 2349.21875l98.671876-25.9375"/><path d="M274.335938 2323.28125h0"/><path d="M175.664062 2476.71875l98.671876-25.9375"/><path d="M274.335938 2450.78125h0"/><path d="M175.664062 2604.21875l98.671876-25.9375"/><path d="M274.335938 2578.28125h0"/><path d="M346.054688 183.125l97.890624-28.75"/><path d="M443.945312 154.375h0"/><path d="M346.054688 310.625l97.890624-28.75"/><path d="M443.945312 281.875h0"/><path d="M346.054688 438.125l97.890624-28.75"/><path d="M443.945312 409.375h0"/><path d="M346.054688 565.625l97.890624-28.75"/><path d="M443.945312 536.875h0"/><path d="M346.054688 693.125l97.890624-28.75"/><path d="M443.945312 664.375h0"/><path d="M346.054688 820.625l97.890624-28.75"/><path d="M443.945312 791.875h0"/><path d="M346.054688 948.125l97.890624-28.75"/><path d="M443.945312 919.375h0"/><path d="M346.054688 1075.625l97.890624-28.75"/><path d="M443.945312 1046.875h0"/><path d="M346.054688 1203.125l97.890624-28.75"/><path d="M443.945312 1174.375h0"/><path d="M346.054688 1330.625l97.890624-28.75"/><path d="M443.945312 1301.875h0"/><path d="M346.054688 1458.125l97.890624-28.75"/><path d="M443.945312 1429.375h0"/><path d="M346.054688 1585.625l97.890624-28.75"/><path d="M443.945312 1556.875h0"/><path d="M346.054688 1713.125l97.890624-28.75"/><path d="M443.945312 1684.375h0"/><path d="M346.054688 1840.625l97.890624-28.75"/><path d="M443.945312 1811.875h0"/><path d="M346.054688 1968.125l97.890624-28.75"/><path d="M443.945312 1939.375h0"/><path d="M346.054688 2095.625l97.890624-28.75"/><path d="M443.945312 2066.875h0"/><path d="M346.054688 2223.125l97.890624-28.75"/><path d="M443.945312 2194.375h0"/><path d="M346.054688 2350.625l97.890624-28.75"/><path d="M443.945312 2321.875h0"/><path d="M346.054688 2478.125l97.890624-28.75"/><path d="M443.945312 2449.375h0"/><path d="M346.054688 2605.625l97.890624-28.75"/><path d="M443.945312 2576.875h0"/><path d="M516.601562 184.882812l96.796876-32.265624"/><path d="M613.398438 152.617188h0"/><path d="M516.601562 312.382812l96.796876-32.265624"/><path d="M613.398438 280.117188h0"/><path d="M516.601562 439.882812l96.796876-32.265624"/><path d="M613.398438 407.617188h0"/><path d="M516.601562 567.382812l96.796876-32.265624"/><path d="M613.398438 535.117188h0"/><path d="M516.601562 694.882812l96.796876-32.265624"/><path d="M613.398438 662.617188h0"/><path d="M516.601562 822.382812l96.796876-32.265624"/><path d="M613.398438 790.117188h0"/><path d="M516.601562 949.882812l96.796876-32.265624"/><path d="M613.398438 917.617188h0"/><path d="M516.601562 1077.382812l96.796876-32.265624"/><path d="M613.398438 1045.117188h0"/><path d="M516.601562 1204.882812l96.796876-32.265624"/><path d="M613.398438 1172.617188h0"/><path d="M516.601562 1332.382812l96.796876-32.265624"/><path d="M613.398438 1300.117188h0"/><path d="M516.601562 1459.882812l96.796876-32.265624"/><path d="M613.398438 1427.617188h0"/><path d="M516.601562 1587.382812l96.796876-32.265624"/><path d="M613.398438 1555.117188h0"/><path d="M516.601562 1714.882812l96.796876-32.265624"/><path d="M613.398438 1682.617188h0"/><path d="M516.601562 1842.382812l96.796876-32.265624"/><path d="M613.398438 1810.117188h0"/><path d="M516.601562 1969.882812l96.796876-32.265624"/><path d="M613.398438 1937.617188h0"/><path d="M516.601562 2097.382812l96.796876-32.265624"/><path d="M613.398438 2065.117188h0"/><path d="M516.601562 2224.882812l96.796876-32.265624"/><path d="M613.398438 2192.617188h0"/><path d="M516.601562 2352.382812l96.796876-32.265624"/><path d="M613.398438 2320.117188h0"/><path d="M516.601562 2479.882812l96.796876-32.265624"/><path d="M613.398438 2447.617188h0"/><path d="M516.601562 2607.382812l96.796876-32.265624"/><path d="M613.398438 2575.117188h0"/><path d="M687.382812 187.070312l95.234376-36.640624"/><path d="M782.617188 150.429688h0"/><path d="M687.382812 314.570312l95.234376-36.640624"/><path d="M782.617188 277.929688h0"/><path d="M687.382812 442.070312l95.234376-36.640624"/><path d="M782.617188 405.429688h0"/><path d="M687.382812 569.570312l95.234376-36.640624"/><path d="M782.617188 532.929688h0"/><path d="M687.382812 697.070312l95.234376-36.640624"/><path d="M782.617188 660.429688h0"/><path d="M687.382812 824.570312l95.234376-36.640624"/><path d="M782.617188 787.929688h0"/><path d="M687.382812 952.070312l95.234376-36.640624"/><path d="M782.617188 915.429688h0"/><path d="M687.382812 1079.53125l95.234376-36.5625"/><path d="M782.617188 1042.96875h0"/><path d="M687.382812 1207.03125l95.234376-36.5625"/><path d="M782.617188 1170.46875h0"/><path d="M687.382812 1334.53125l95.234376-36.5625"/><path d="M782.617188 1297.96875h0"/><path d="M687.382812 1462.03125l95.234376-36.5625"/><path d="M782.617188 1425.46875h0"/><path d="M687.382812 1589.53125l95.234376-36.5625"/><path d="M782.617188 1552.96875h0"/><path d="M687.382812 1717.03125l95.234376-36.5625"/><path d="M782.617188 1680.46875h0"/><path d="M687.382812 1844.53125l95.234376-36.5625"/><path d="M782.617188 1807.96875h0"/><path d="M687.382812 1972.03125l95.234376-36.5625"/><path d="M782.617188 1935.46875h0"/><path d="M687.382812 2099.53125l95.234376-36.5625"/><path d="M782.617188 2062.96875h0"/><path d="M687.382812 2227.03125l95.234376-36.5625"/><path d="M782.617188 2190.46875h0"/><path d="M687.382812 2354.570312l95.234376-36.640624"/><path d="M782.617188 2317.929688h0"/><path d="M687.382812 2482.070312l95.234376-36.640624"/><path d="M782.617188 2445.429688h0"/><path d="M687.382812 2609.570312l95.234376-36.640624"/><path d="M782.617188 2572.929688h0"/><path d="M858.554688 189.84375l92.890624-42.1875"/><path d="M951.445312 147.65625h0"/><path d="M858.554688 317.34375l92.890624-42.1875"/><path d="M951.445312 275.15625h0"/><path d="M858.554688 444.84375l92.890624-42.1875"/><path d="M951.445312 402.65625h0"/><path d="M858.554688 572.34375l92.890624-42.1875"/><path d="M951.445312 530.15625h0"/><path d="M858.554688 699.84375l92.890624-42.1875"/><path d="M951.445312 657.65625h0"/><path d="M858.554688 827.34375l92.890624-42.1875"/><path d="M951.445312 785.15625h0"/><path d="M858.554688 954.84375l92.890624-42.1875"/><path d="M951.445312 912.65625h0"/><path d="M858.554688 1082.34375l92.890624-42.1875"/><path d="M951.445312 1040.15625h0"/><path d="M858.554688 1209.84375l92.890624-42.1875"/><path d="M951.445312 1167.65625h0"/><path d="M858.554688 1337.34375l92.890624-42.1875"/><path d="M951.445312 1295.15625h0"/><path d="M858.554688 1464.84375l92.890624-42.1875"/><path d="M951.445312 1422.65625h0"/><path d="M858.554688 1592.34375l92.890624-42.1875"/><path d="M951.445312 1550.15625h0"/><path d="M858.554688 1719.84375l92.890624-42.1875"/><path d="M951.445312 1677.65625h0"/><path d="M858.554688 1847.34375l92.890624-42.1875"/><path d="M951.445312 1805.15625h0"/><path d="M858.554688 1974.84375l92.890624-42.1875"/><path d="M951.445312 1932.65625h0"/><path d="M858.554688 2102.34375l92.890624-42.1875"/><path d="M951.445312 2060.15625h0"/><path d="M858.554688 2229.84375l92.890624-42.1875"/><path d="M951.445312 2187.65625h0"/><path d="M858.554688 2357.34375l92.890624-42.1875"/><path d="M951.445312 2315.15625h0"/><path d="M858.554688 2484.84375l92.890624-42.1875"/><path d="M951.445312 2442.65625h0"/><path d="M858.554688 2612.34375l92.890624-42.1875"/><path d="M951.445312 2570.15625h0"/><path d="M1030.429688 193.515625l89.140624-49.53125"/><path d="M1119.570312 143.984375h0"/><path d="M1030.429688 321.015625l89.140624-49.53125"/><path d="M1119.570312 271.484375h0"/><path d="M1030.429688 448.515625l89.140624-49.53125"/><path d="M1119.570312 398.984375h0"/><path d="M1030.429688 576.015625l89.140624-49.53125"/><path d="M1119.570312 526.484375h0"/><path d="M1030.429688 703.515625l89.140624-49.53125"/><path d="M1119.570312 653.984375h0"/><path d="M1030.429688 831.015625l89.140624-49.53125"/><path d="M1119.570312 781.484375h0"/><path d="M1030.429688 958.515625l89.140624-49.53125"/><path d="M1119.570312 908.984375h0"/><path d="M1030.429688 1086.015625l89.140624-49.53125"/><path d="M1119.570312 1036.484375h0"/><path d="M1030.429688 1213.515625l89.140624-49.53125"/><path d="M1119.570312 1163.984375h0"/><path d="M1030.429688 1341.015625l89.140624-49.53125"/><path d="M1119.570312 1291.484375h0"/><path d="M1030.429688 1468.515625l89.140624-49.53125"/><path d="M1119.570312 1418.984375h0"/><path d="M1030.429688 1596.015625l89.140624-49.53125"/><path d="M1119.570312 1546.484375h0"/><path d="M1030.429688 1723.515625l89.140624-49.53125"/><path d="M1119.570312 1673.984375h0"/><path d="M1030.429688 1851.015625l89.140624-49.53125"/><path d="M1119.570312 1801.484375h0"/><path d="M1030.429688 1978.515625l89.140624-49.53125"/><path d="M1119.570312 1928.984375h0"/><path d="M1030.429688 2106.015625l89.140624-49.53125"/><path d="M1119.570312 2056.484375h0"/><path d="M1030.429688 2233.515625l89.140624-49.53125"/><path d="M1119.570312 2183.984375h0"/><path d="M1030.429688 2361.015625l89.140624-49.53125"/><path d="M1119.570312 2311.484375h0"/><path d="M1030.429688 2488.515625l89.140624-49.53125"/><path d="M1119.570312 2438.984375h0"/><path d="M1030.429688 2616.015625l89.140624-49.53125"/><path d="M1119.570312 2566.484375h0"/><path d="M1203.515625 198.398438l82.96875-59.296876"/><path d="M1286.484375 139.101562h0"/><path d="M1203.515625 325.898438l82.96875-59.296876"/><path d="M1286.484375 266.601562h0"/><path d="M1203.515625 453.398438l82.96875-59.296876"/><path d="M1286.484375 394.101562h0"/><path d="M1203.515625 580.898438l82.96875-59.296876"/><path d="M1286.484375 521.601562h0"/><path d="M1203.515625 708.398438l82.96875-59.296876"/><path d="M1286.484375 649.101562h0"/><path d="M1203.515625 835.898438l82.96875-59.296876"/><path d="M1286.484375 776.601562h0"/><path d="M1203.515625 963.398438l82.96875-59.296876"/><path d="M1286.484375 904.101562h0"/><path d="M1203.515625 1090.898438l82.96875-59.296876"/><path d="M1286.484375 1031.601562h0"/><path d="M1203.515625 1218.398438l82.96875-59.296876"/><path d="M1286.484375 1159.101562h0"/><path d="M1203.515625 1345.898438l82.96875-59.296876"/><path d="M1286.484375 1286.601562h0"/><path d="M1203.515625 1473.398438l82.96875-59.296876"/><path d="M1286.484375 1414.101562h0"/><path d="M1203.515625 1600.898438l82.96875-59.296876"/><path d="M1286.484375 1541.601562h0"/><path d="M1203.515625 1728.398438l82.96875-59.296876"/><path d="M1286.484375 1669.101562h0"/><path d="M1203.515625 1855.898438l82.96875-59.296876"/><path d="M1286.484375 1796.601562h0"/><path d="M1203.515625 1983.398438l82.96875-59.296876"/><path d="M1286.484375 1924.101562h0"/><path d="M1203.515625 2110.898438l82.96875-59.296876"/><path d="M1286.484375 2051.601562h0"/><path d="M1203.515625 2238.398438l82.96875-59.296876"/><path d="M1286.484375 2179.101562h0"/><path d="M1203.515625 2365.898438l82.96875-59.296876"/><path d="M1286.484375 2306.601562h0"/><path d="M1203.515625 2493.398438l82.96875-59.296876"/><path d="M1286.484375 2434.101562h0"/><path d="M1203.515625 2620.898438l82.96875-59.296876"/><path d="M1286.484375 2561.601562h0"/><path d="M1378.945312 204.804688l72.109376-72.109376"/><path d="M1451.054688 132.695312h0"/><path d="M1378.945312 332.304688l72.109376-72.109376"/><path d="M1451.054688 260.195312h0"/><path d="M1378.945312 459.804688l72.109376-72.109376"/><path d="M1451.054688 387.695312h0"/><path d="M1378.945312 587.304688l72.109376-72.109376"/><path d="M1451.054688 515.195312h0"/><path d="M1378.945312 714.804688l72.109376-72.109376"/><path d="M1451.054688 642.695312h0"/><path d="M1378.945312 842.304688l72.109376-72.109376"/><path d="M1451.054688 770.195312h0"/><path d="M1378.945312 969.804688l72.109376-72.109376"/><path d="M1451.054688 897.695312h0"/><path d="M1378.945312 1097.304688l72.109376-72.109376"/><path d="M1451.054688 1025.195312h0"/><path d="M1378.945312 1224.804688l72.109376-72.109376"/><path d="M1451.054688 1152.695312h0"/><path d="M1378.945312 1352.304688l72.109376-72.109376"/><path d="M1451.054688 1280.195312h0"/><path d="M1378.945312 1479.804688l72.109376-72.109376"/><path d="M1451.054688 1407.695312h0"/><path d="M1378.945312 1607.304688l72.109376-72.109376"/><path d="M1451.054688 1535.195312h0"/><path d="M1378.945312 1734.804688l72.109376-72.109376"/><path d="M1451.054688 1662.695312h0"/><path d="M1378.945312 1862.304688l72.109376-72.109376"/><path d="M1451.054688 1790.195312h0"/><path d="M1378.945312 1989.804688l72.109376-72.109376"/><path d="M1451.054688 1917.695312h0"/><path d="M1378.945312 2117.304688l72.109376-72.109376"/><path d="M1451.054688 2045.195312h0"/><path d="M1378.945312 2244.804688l72.109376-72.109376"/><path d="M1451.054688 2172.695312h0"/><path d="M1378.945312 2372.304688l72.109376-72.109376"/><path d="M1451.054688 2300.195312h0"/><path d="M1378.945312 2499.804688l72.109376-72.109376"/><path d="M1451.054688 2427.695312h0"/><path d="M1378.945312 2627.304688l72.109376-72.109376"/><path d="M1451.054688 2555.195312h0"/><path d="M1558.75 212.460938l52.5-87.421876"/><path d="M1611.25 125.039062h0"/><path d="M1558.75 339.960938l52.5-87.421876"/><path d="M1611.25 252.539062h0"/><path d="M1558.75 467.460938l52.5-87.421876"/><path d="M1611.25 380.039062h0"/><path d="M1558.75 594.960938l52.5-87.421876"/><path d="M1611.25 507.539062h0"/><path d="M1558.75 722.460938l52.5-87.421876"/><path d="M1611.25 635.039062h0"/><path d="M1558.75 849.960938l52.5-87.421876"/><path d="M1611.25 762.539062h0"/><path d="M1558.75 977.460938l52.5-87.421876"/><path d="M1611.25 890.039062h0"/><path d="M1558.75 1104.960938l52.5-87.421876"/><path d="M1611.25 1017.539062h0"/><path d="M1558.75 1232.460938l52.5-87.421876"/><path d="M1611.25 1145.039062h0"/><path d="M1558.75 1359.960938l52.5-87.421876"/><path d="M1611.25 1272.539062h0"/><path d="M1558.75 1487.460938l52.5-87.421876"/><path d="M1611.25 1400.039062h0"/><path d="M1558.75 1614.960938l52.5-87.421876"/><path d="M1611.25 1527.539062h0"/><path d="M1558.75 1742.460938l52.5-87.421876"/><path d="M1611.25 1655.039062h0"/><path d="M1558.75 1869.960938l52.5-87.421876"/><path d="M1611.25 1782.539062h0"/><path d="M1558.75 1997.460938l52.5-87.421876"/><path d="M1611.25 1910.039062h0"/><path d="M1558.75 2124.960938l52.5-87.421876"/><path d="M1611.25 2037.539062h0"/><path d="M1558.75 2252.460938l52.5-87.421876"/><path d="M1611.25 2165.039062h0"/><path d="M1558.75 2379.960938l52.5-87.421876"/><path d="M1611.25 2292.539062h0"/><path d="M1558.75 2507.460938l52.5-87.421876"/><path d="M1611.25 2420.039062h0"/><path d="M1558.75 2634.960938l52.5-87.421876"/><path d="M1611.25 2547.539062h0"/><path d="M1745 218.75l20-100"/><path d="M1765 118.75h0"/><path d="M1745 346.25l20-100"/><path d="M1765 246.25h0"/><path d="M1745 473.75l20-100"/><path d="M1765 373.75h0"/><path d="M1745 601.25l20-100"/><path d="M1765 501.25h0"/><path d="M1745 728.75l20-100"/><path d="M1765 628.75h0"/><path d="M1745 856.25l20-100"/><path d="M1765 756.25h0"/><path d="M1745 983.75l20-100"/><path d="M1765 883.75h0"/><path d="M1745 1111.25l20-100"/><path d="M1765 1011.25h0"/><path d="M1745 1238.75l20-100"/><path d="M1765 1138.75h0"/><path d="M1745 1366.25l20-100"/><path d="M1765 1266.25h0"/><path d="M1745 1493.75l20-100"/><path d="M1765 1393.75h0"/><path d="M1745 1621.25l20-100"/><path d="M1765 1521.25h0"/><path d="M1745 1748.75l20-100"/><path d="M1765 1648.75h0"/><path d="M1745 1876.25l20-100"/><path d="M1765 1776.25h0"/><path d="M1745 2003.75l20-100"/><path d="M1765 1903.75h0"/><path d="M1745 2131.25l20-100"/><path d="M1765 2031.25h0"/><path d="M1745 2258.75l20-100"/><path d="M1765 2158.75h0"/><path d="M1745 2386.25l20-100"/><path d="M1765 2286.25h0"/><path d="M1745 2513.75l20-100"/><path d="M1765 2413.75h0"/><path d="M1745 2641.25l20-100"/><path d="M1765 2541.25h0"/><path d="M1915 118.75l20 100"/><path d="M1935 218.75h0"/><path d="M1915 246.25l20 100"/><path d="M1935 346.25h0"/><path d="M1915 373.75l20 100"/><path d="M1935 473.75h0"/><path d="M1915 501.25l20 100"/><path d="M1935 601.25h0"/><path d="M1915 628.75l20 100"/><path d="M1935 728.75h0"/><path d="M1915 756.25l20 100"/><path d="M1935 856.25h0"/><path d="M1915 883.75l20 100"/><path d="M1935 983.75h0"/><path d="M1915 1011.25l20 100"/><path d="M1935 1111.25h0"/><path d="M1915 1138.75l20 100"/><path d="M1935 1238.75h0"/><path d="M1915 1266.25l20 100"/><path d="M1935 1366.25h0"/><path d="M1915 1393.75l20 100"/><path d="M1935 1493.75h0"/><path d="M1915 1521.25l20 100"/><path d="M1935 1621.25h0"/><path d="M1915 1648.75l20 100"/><path d="M1935 1748.75h0"/><path d="M1915 1776.25l20 100"/><path d="M1935 1876.25h0"/><path d="M1915 1903.75l20 100"/><path d="M1935 2003.75h0"/><path d="M1915 2031.25l20 100"/><path d="M1935 2131.25h0"/><path d="M1915 2158.75l20 100"/><path d="M1935 2258.75h0"/><path d="M1915 2286.25l20 100"/><path d="M1935 2386.25h0"/><path d="M1915 2413.75l20 100"/><path d="M1935 2513.75h0"/><path d="M1915 2541.25l20 100"/><path d="M1935 2641.25h0"/><path d="M2068.75 125.039062l52.5 87.421876"/><path d="M2121.25 212.460938h0"/><path d="M2068.75 252.539062l52.5 87.421876"/><path d="M2121.25 339.960938h0"/><path d="M2068.75 380.039062l52.5 87.421876"/><path d="M2121.25 467.460938h0"/><path d="M2068.75 507.539062l52.5 87.421876"/><path d="M2121.25 594.960938h0"/><path d="M2068.75 635.039062l52.5 87.421876"/><path d="M2121.25 722.460938h0"/><path d="M2068.75 762.539062l52.5 87.421876"/><path d="M2121.25 849.960938h0"/><path d="M2068.75 890.039062l52.5 87.421876"/><path d="M2121.25 977.460938h0"/><path d="M2068.75 1017.539062l52.5 87.421876"/><path d="M2121.25 1104.960938h0"/><path d="M2068.75 1145.039062l52.5 87.421876"/><path d="M2121.25 1232.460938h0"/><path d="M2068.75 1272.539062l52.5 87.421876"/><path d="M2121.25 1359.960938h0"/><path d="M2068.75 1400.039062l52.5 87.421876"/><path d="M2121.25 1487.460938h0"/><path d="M2068.75 1527.539062l52.5 87.421876"/><path d="M2121.25 1614.960938h0"/><path d="M2068.75 1655.039062l52.5 87.421876"/><path d="M2121.25 1742.460938h0"/><path d="M2068.75 1782.539062l52.5 87.421876"/><path d="M2121.25 1869.960938h0"/><path d="M2068.75 1910.039062l52.5 87.421876"/><path d="M2121.25 1997.460938h0"/><path d="M2068.75 2037.539062l52.5 87.421876"/><path d="M2121.25 2124.960938h0"/><path d="M2068.75 2165.039062l52.5 87.421876"/><path d="M2121.25 2252.460938h0"/><path d="M2068.75 2292.539062l52.5 87.421876"/><path d="M2121.25 2379.960938h0"/><path d="M2068.75 2420.039062l52.5 87.421876"/><path d="M2121.25 2507.460938h0"/><path d="M2068.75 2547.539062l52.5 87.421876"/><path d="M2121.25 2634.960938h0"/><path d="M2228.945312 132.695312l72.109376 72.109376"/><path d="M2301.054688 204.804688h0"/><path d="M2228.945312 260.195312l72.109376 72.109376"/><path d="M2301.054688 332.304688h0"/><path d="M2228.945312 387.695312l72.109376 72.109376"/><path d="M2301.054688 459.804688h0"/><path d="M2228.945312 515.195312l72.109376 72.109376"/><path d="M2301.054688 587.304688h0"/><path d="M2228.945312 642.695312l72.109376 72.109376"/><path d="M2301.054688 714.804688h0"/><path d="M2228.945312 770.195312l72.109376 72.109376"/><path d="M2301.054688 842.304688h0"/><path d="M2228.945312 897.695312l72.109376 72.109376"/><path d="M2301.054688 969.804688h0"/><path d="M2228.945312 1025.195312l72.109376 72.109376"/><path d="M2301.054688 1097.304688h0"/><path d="M2228.945312 1152.695312l72.109376 72.109376"/><path d="M2301.054688 1224.804688h0"/><path d="M2228.945312 1280.195312l72.109376 72.109376"/><path d="M2301.054688 1352.304688h0"/><path d="M2228.945312 1407.695312l72.109376 72.109376"/><path d="M2301.054688 1479.804688h0"/><path d="M2228.945312 1535.195312l72.109376 72.109376"/><path d="M2301.054688 1607.304688h0"/><path d="M2228.945312 1662.695312l72.109376 72.109376"/><path d="M2301.054688 1734.804688h0"/><path d="M2228.945312 1790.195312l72.109376 72.109376"/><path d="M2301.054688 1862.304688h0"/><path d="M2228.945312 1917.695312l72.109376 72.109376"/><path d="M2301.054688 1989.804688h0"/><path d="M2228.945312 2045.195312l72.109376 72.109376"/><path d="M2301.054688 2117.304688h0"/><path d="M2228.945312 2172.695312l72.109376 72.109376"/><path d="M2301.054688 2244.804688h0"/><path d="M2228.945312 2300.195312l72.109376 72.109376"/><path d="M2301.054688 2372.304688h0"/><path d="M2228.945312 2427.695312l72.109376 72.109376"/><path d="M2301.054688 2499.804688h0"/><path d="M2228.945312 2555.195312l72.109376 72.109376"/><path d="M2301.054688 2627.304688h0"/><path d="M2393.515625 139.101562l82.96875 59.296876"/><path d="M2476.484375 198.398438h0"/><path d="M2393.515625 266.601562l82.96875 59.296876"/><path d="M2476.484375 325.898438h0"/><path d="M2393.515625 394.101562l82.96875 59.296876"/><path d="M2476.484375 453.398438h0"/><path d="M2393.515625 521.601562l82.96875 59.296876"/><path d="M2476.484375 580.898438h0"/><path d="M2393.515625 649.101562l82.96875 59.296876"/><path d="M2476.484375 708.398438h0"/><path d="M2393.515625 776.601562l82.96875 59.296876"/><path d="M2476.484375 835.898438h0"/><path d="M2393.515625 904.101562l82.96875 59.296876"/><path d="M2476.484375 963.398438h0"/><path d="M2393.515625 1031.601562l82.96875 59.296876"/><path d="M2476.484375 1090.898438h0"/><path d="M2393.515625 1159.101562l82.96875 59.296876"/><path d="M2476.484375 1218.398438h0"/><path d="M2393.515625 1286.601562l82.96875 59.296876"/><path d="M2476.484375 1345.898438h0"/><path d="M2393.515625 1414.101562l82.96875 59.296876"/><path d="M2476.484375 1473.398438h0"/><path d="M2393.515625 1541.601562l82.96875 59.296876"/><path d="M2476.484375 1600.898438h0"/><path d="M2393.515625 1669.101562l82.96875 59.296876"/><path d="M2476.484375 1728.398438h0"/><path d="M2393.515625 1796.601562l82.96875 59.296876"/><path d="M2476.484375 1855.898438h0"/><path d="M2393.515625 1924.101562l82.96875 59.296876"/><path d="M2476.484375 1983.398438h0"/><path d="M2393.515625 2051.601562l82.96875 59.296876"/><path d="M2476.484375 2110.898438h0"/><path d="M2393.515625 2179.101562l82.96875 59.296876"/><path d="M2476.484375 2238.398438h0"/><path d="M2393.515625 2306.601562l82.96875 59.296876"/><path d="M2476.484375 2365.898438h0"/><path d="M2393.515625 2434.101562l82.96875 59.296876"/><path d="M2476.484375 2493.398438h0"/><path d="M2393.515625 2561.601562l82.96875 59.296876"/><path d="M2476.484375 2620.898438h0"/><path d="M2560.429688 143.984375l89.140624 49.53125"/><path d="M2649.570312 193.515625h0"/><path d="M2560.429688 271.484375l89.140624 49.53125"/><path d="M2649.570312 321.015625h0"/><path d="M2560.429688 398.984375l89.140624 49.53125"/><path d="M2649.570312 448.515625h0"/><path d="M2560.429688 526.484375l89.140624 49.53125"/><path d="M2649.570312 576.015625h0"/><path d="M2560.429688 653.984375l89.140624 49.53125"/><path d="M2649.570312 703.515625h0"/><path d="M2560.429688 781.484375l89.140624 49.53125"/><path d="M2649.570312 831.015625h0"/><path d="M2560.429688 908.984375l89.140624 49.53125"/><path d="M2649.570312 958.515625h0"/><path d="M2560.429688 1036.484375l89.140624 49.53125"/><path d="M2649.570312 1086.015625h0"/><path d="M2560.429688 1163.984375l89.140624 49.53125"/><path d="M2649.570312 1213.515625h0"/><path d="M2560.429688 1291.484375l89.140624 49.53125"/><path d="M2649.570312 1341.015625h0"/><path d="M2560.429688 1418.984375l89.140624 49.53125"/><path d="M2649.570312 1468.515625h0"/><path d="M2560.429688 1546.484375l89.140624 49.53125"/><path d="M2649.570312 1596.015625h0"/><path d="M2560.429688 1673.984375l89.140624 49.53125"/><path d="M2649.570312 1723.515625h0"/><path d="M2560.429688 1801.484375l89.140624 49.53125"/><path d="M2649.570312 1851.015625h0"/><path d="M2560.429688 1928.984375l89.140624 49.53125"/><path d="M2649.570312 1978.515625h0"/><path d="M2560.429688 2056.484375l89.140624 49.53125"/><path d="M2649.570312 2106.015625h0"/><path d="M2560.429688 2183.984375l89.140624 49.53125"/><path d="M2649.570312 2233.515625h0"/><path d="M2560.429688 2311.484375l89.140624 49.53125"/><path d="M2649.570312 2361.015625h0"/><path d="M2560.429688 2438.984375l89.140624 49.53125"/><path d="M2649.570312 2488.515625h0"/><path d="M2560.429688 2566.484375l89.140624 49.53125"/><path d="M2649.570312 2616.015625h0"/><path d="M2728.554688 147.65625l92.890624 42.1875"/><path d="M2821.445312 189.84375h0"/><path d="M2728.554688 275.15625l92.890624 42.1875"/><path d="M2821.445312 317.34375h0"/><path d="M2728.554688 402.65625l92.890624 42.1875"/><path d="M2821.445312 444.84375h0"/><path d="M2728.554688 530.15625l92.890624 42.1875"/><path d="M2821.445312 572.34375h0"/><path d="M2728.554688 657.65625l92.890624 42.1875"/><path d="M2821.445312 699.84375h0"/><path d="M2728.554688 785.15625l92.890624 42.1875"/><path d="M2821.445312 827.34375h0"/><path d="M2728.554688 912.65625l92.890624 42.1875"/><path d="M2821.445312 954.84375h0"/><path d="M2728.554688 1040.15625l92.890624 42.1875"/><path d="M2821.445312 1082.34375h0"/><path d="M2728.554688 1167.65625l92.890624 42.1875"/><path d="M2821.445312 1209.84375h0"/><path d="M2728.554688 1295.15625l92.890624 42.1875"/><path d="M2821.445312 1337.34375h0"/><path d="M2728.554688 1422.65625l92.890624 42.1875"/><path d="M2821.445312 1464.84375h0"/><path d="M2728.554688 1550.15625l92.890624 42.1875"/><path d="M2821.445312 1592.34375h0"/><path d="M2728.554688 1677.65625l92.890624 42.1875"/><path d="M2821.445312 1719.84375h0"/><path d="M2728.554688 1805.15625l92.890624 42.1875"/><path d="M2821.445312 1847.34375h0"/><path d="M2728.554688 1932.65625l92.890624 42.1875"/><path d="M2821.445312 1974.84375h0"/><path d="M2728.554688 2060.15625l92.890624 42.1875"/><path d="M2821.445312 2102.34375h0"/><path d="M2728.554688 2187.65625l92.890624 42.1875"/><path d="M2821.445312 2229.84375h0"/><path d="M2728.554688 2315.15625l92.890624 42.1875"/><path d="M2821.445312 2357.34375h0"/><path d="M2728.554688 2442.65625l92.890624 42.1875"/><path d="M2821.445312 2484.84375h0"/><path d="M2728.554688 2570.15625l92.890624 42.1875"/><path d="M2821.445312 2612.34375h0"/><path d="M2897.382812 150.429688l95.234376 36.640624"/><path d="M2992.617188 187.070312h0"/><path d="M2897.382812 277.929688l95.234376 36.640624"/><path d="M2992.617188 314.570312h0"/><path d="M2897.382812 405.429688l95.234376 36.640624"/><path d="M2992.617188 442.070312h0"/><path d="M2897.382812 532.929688l95.234376 36.640624"/><path d="M2992.617188 569.570312h0"/><path d="M2897.382812 660.429688l95.234376 36.640624"/><path d="M2992.617188 697.070312h0"/><path d="M2897.382812 787.929688l95.234376 36.640624"/><path d="M2992.617188 824.570312h0"/><path d="M2897.382812 915.429688l95.234376 36.640624"/><path d="M2992.617188 952.070312h0"/><path d="M2897.382812 1042.96875l95.234376 36.5625"/><path d="M2992.617188 1079.53125h0"/><path d="M2897.382812 1170.46875l95.234376 36.5625"/><path d="M2992.617188 1207.03125h0"/><path d="M2897.382812 1297.96875l95.234376 36.5625"/><path d="M2992.617188 1334.53125h0"/><path d="M2897.382812 1425.46875l95.234376 36.5625"/><path d="M2992.617188 1462.03125h0"/><path d="M2897.382812 1552.96875l95.234376 36.5625"/><path d="M2992.617188 1589.53125h0"/><path d="M2897.382812 1680.46875l95.234376 36.5625"/><path d="M2992.617188 1717.03125h0"/><path d="M2897.382812 1807.96875l95.234376 36.5625"/><path d="M2992.617188 1844.53125h0"/><path d="M2897.382812 1935.46875l95.234376 36.5625"/><path d="M2992.617188 1972.03125h0"/><path d="M2897.382812 2062.96875l95.234376 36.5625"/><path d="M2992.617188 2099.53125h0"/><path d="M2897.382812 2190.46875l95.234376 36.5625"/><path d="M2992.617188 2227.03125h0"/><path d="M2897.382812 2317.929688l95.234376 36.640624"/><path d="M2992.617188 2354.570312h0"/><path d="M2897.382812 2445.429688l95.234376 36.640624"/><path d="M2992.617188 2482.070312h0"/><path d="M2897.382812 2572.929688l95.234376 36.640624"/><path d="M2992.617188 2609.570312h0"/><path d="M3066.601562 152.617188l96.796876 32.265624"/><path d="M3163.398438 184.882812h0"/><path d="M3066.601562 280.117188l96.796876 32.265624"/><path d="M3163.398438 312.382812h0"/><path d="M3066.601562 407.617188l96.796876 32.265624"/><path d="M3163.398438 439.882812h0"/><path d="M3066.601562 535.117188l96.796876 32.265624"/><path d="M3163.398438 567.382812h0"/><path d="M3066.601562 662.617188l96.796876 32.265624"/><path d="M3163.398438 694.882812h0"/><path d="M3066.601562 790.117188l96.796876 32.265624"/><path d="M3163.398438 822.382812h0"/><path d="M3066.601562 917.617188l96.796876 32.265624"/><path d="M3163.398438 949.882812h0"/><path d="M3066.601562 1045.117188l96.796876 32.265624"/><path d="M3163.398438 1077.382812h0"/><path d="M3066.601562 1172.617188l96.796876 32.265624"/><path d="M3163.398438 1204.882812h0"/><path d="M3066.601562 1300.117188l96.796876 32.265624"/><path d="M3163.398438 1332.382812h0"/><path d="M3066.601562 1427.617188l96.796876 32.265624"/><path d="M3163.398438 1459.882812h0"/><path d="M3066.601562 1555.117188l96.796876 32.265624"/><path d="M3163.398438 1587.382812h0"/><path d="M3066.601562 1682.617188l96.796876 32.265624"/><path d="M3163.398438 1714.882812h0"/><path d="M3066.601562 1810.117188l96.796876 32.265624"/><path d="M3163.398438 1842.382812h0"/><path d="M3066.601562 1937.617188l96.796876 32.265624"/><path d="M3163.398438 1969.882812h0"/><path d="M3066.601562 2065.117188l96.796876 32.265624"/><path d="M3163.398438 2097.382812h0"/><path d="M3066.601562 2192.617188l96.796876 32.265624"/><path d="M3163.398438 2224.882812h0"/><path d="M3066.601562 2320.117188l96.796876 32.265624"/><path d="M3163.398438 2352.382812h0"/><path d="M3066.601562 2447.617188l96.796876 32.265624"/><path d="M3163.398438 2479.882812h0"/><path d="M3066.601562 2575.117188l96.796876 32.265624"/><path d="M3163.398438 2607.382812h0"/><path d="M3236.054688 154.375l97.890624 28.75"/><path d="M3333.945312 183.125h0"/><path d="M3236.054688 281.875l97.890624 28.75"/><path d="M3333.945312 310.625h0"/><path d="M3236.054688 409.375l97.890624 28.75"/><path d="M3333.945312 438.125h0"/><path d="M3236.054688 536.875l97.890624 28.75"/><path d="M3333.945312 565.625h0"/><path d="M3236.054688 664.375l97.890624 28.75"/><path d="M3333.945312 693.125h0"/><path d="M3236.054688 791.875l97.890624 28.75"/><path d="M3333.945312 820.625h0"/><path d="M3236.054688 919.375l97.890624 28.75"/><path d="M3333.945312 948.125h0"/><path d="M3236.054688 1046.875l97.890624 28.75"/><path d="M3333.945312 1075.625h0"/><path d="M3236.054688 1174.375l97.890624 28.75"/><path d="M3333.945312 1203.125h0"/><path d="M3236.054688 1301.875l97.890624 28.75"/><path d="M3333.945312 1330.625h0"/><path d="M3236.054688 1429.375l97.890624 28.75"/><path d="M3333.945312 1458.125h0"/><path d="M3236.054688 1556.875l97.890624 28.75"/><path d="M3333.945312 1585.625h0"/><path d="M3236.054688 1684.375l97.890624 28.75"/><path d="M3333.945312 1713.125h0"/><path d="M3236.054688 1811.875l97.890624 28.75"/><path d="M3333.945312 1840.625h0"/><path d="M3236.054688 1939.375l97.890624 28.75"/><path d="M3333.945312 1968.125h0"/><path d="M3236.054688 2066.875l97.890624 28.75"/><path d="M3333.945312 2095.625h0"/><path d="M3236.054688 2194.375l97.890624 28.75"/><path d="M3333.945312 2223.125h0"/><path d="M3236.054688 2321.875l97.890624 28.75"/><path d="M3333.945312 2350.625h0"/><path d="M3236.054688 2449.375l97.890624 28.75"/><path d="M3333.945312 2478.125h0"/><path d="M3236.054688 2576.875l97.890624 28.75"/><path d="M3333.945312 2605.625h0"/><path d="M3405.664062 155.78125l98.671876 25.9375"/><path d="M3504.335938 181.71875h0"/><path d="M3405.664062 283.28125l98.671876 25.9375"/><path d="M3504.335938 309.21875h0"/><path d="M3405.664062 410.78125l98.671876 25.9375"/><path d="M3504.335938 436.71875h0"/><path d="M3405.664062 538.28125l98.671876 25.9375"/><path d="M3504.335938 564.21875h0"/><path d="M3405.664062 665.78125l98.671876 25.9375"/><path d="M3504.335938 691.71875h0"/><path d="M3405.664062 793.28125l98.671876 25.9375"/><path d="M3504.335938 819.21875h0"/><path d="M3405.664062 920.78125l98.671876 25.9375"/><path d="M3504.335938 946.71875h0"/><path d="M3405.664062 1048.28125l98.671876 25.9375"/><path d="M3504.335938 1074.21875h0"/><path d="M3405.664062 1175.78125l98.671876 25.9375"/><path d="M3504.335938 1201.71875h0"/><path d="M3405.664062 1303.28125l98.671876 25.9375"/><path d="M3504.335938 1329.21875h0"/><path d="M3405.664062 1430.78125l98.671876 25.9375"/><path d="M3504.335938 1456.71875h0"/><path d="M3405.664062 1558.28125l98.671876 25.9375"/><path d="M3504.335938 1584.21875h0"/><path d="M3405.664062 1685.78125l98.671876 25.9375"/><path d="M3504.335938 1711.71875h0"/><path d="M3405.664062 1813.28125l98.671876 25.9375"/><path d="M3504.335938 1839.21875h0"/><path d="M3405.664062 1940.78125l98.671876 25.9375"/><path d="M3504.335938 1966.71875h0"/><path d="M3405.664062 2068.28125l98.671876 25.9375"/><path d="M3504.335938 2094.21875h0"/><path d="M3405.664062 2195.78125l98.671876 25.9375"/><path d="M3504.335938 2221.71875h0"/><path d="M3405.664062 2323.28125l98.671876 25.9375"/><path d="M3504.335938 2349.21875h0"/><path d="M3405.664062 2450.78125l98.671876 25.9375"/><path d="M3504.335938 2476.71875h0"/><path d="M3405.664062 2578.28125l98.671876 25.9375"/><path d="M3504.335938 2604.21875h0"/></g><g clip-path="url(#v)"><path d="M136.835938 2396.992188l33.984374-8.554688 11.367188-2.890625 22.65625-5.859375L227.5 2373.75l22.65625-6.015625 22.65625-6.09375 11.367188-3.085937 22.65625-6.25 22.65625-6.328126 11.328124-3.203124 11.367188-3.242188 22.65625-6.484375L397.5 2326.40625l22.65625-6.71875 11.328125-3.398438 11.328125-3.476562 11.367188-3.4375 11.328124-3.476562 11.328126-3.554688 11.328124-3.515625 11.328126-3.59375 11.328124-3.632813 11.367188-3.632812 11.328125-3.632812 11.328125-3.710938 22.65625-7.5 22.65625-7.65625 11.328125-3.867188 11.328125-3.90625 11.367188-3.945312 11.328124-3.984375 22.65625-8.046875 11.328126-4.101562 11.328124-4.140626 11.367188-4.179687 11.328125-4.21875 11.328125-4.257813 11.328125-4.296874 22.65625-8.75 22.65625-8.90625 11.328125-4.53125 11.367188-4.609376 11.328124-4.609374 11.328126-4.6875 11.328124-4.726563 11.328126-4.804687 11.328124-4.84375 11.367188-4.882813 11.328125-4.960937 11.328125-5 11.328125-5.078126 11.328125-5.15625 11.328125-5.195312 11.328125-5.234375 11.328125-5.351563 11.328125-5.390624 11.367188-5.46875 11.328124-5.546876 11.328126-5.585937 11.328124-5.664063 11.328126-5.78125 11.328124-5.820312L1032.1875 2080l11.328125-6.015625 11.328125-6.09375 11.328125-6.171875 11.328125-6.25 11.328125-6.367188 11.328125-6.484374 11.328125-6.5625 11.328125-6.640626 11.367188-6.796874 11.328124-6.875 11.328126-6.992188 11.328124-7.109375 11.328126-7.226563 11.328124-7.34375 11.367188-7.5 11.328125-7.617187 11.328125-7.734375 11.328125-7.929688 11.328125-8.046874 11.328125-8.203126 11.328125-8.359374 11.328125-8.554688 11.328125-8.710938 11.367188-8.90625 11.328124-9.0625 11.328126-9.296874 11.328124-9.492188 11.328126-9.6875 11.328124-9.960938 11.367188-10.15625 11.328125-10.429687 11.328125-10.664063 11.328125-10.976562 11.328125-11.25 11.328125-11.5625 11.328125-11.875 11.328125-12.226562 11.328125-12.578126 11.367188-12.96875 11.328124-13.359374 11.328126-13.828126 11.328124-14.257812 11.328126-14.765625 11.328124-15.3125 11.367188-15.859375 11.328125-16.523438 11.328125-17.148437 11.328125-17.851563L1587.5 1585.742188l11.328125-19.53125 11.328125-20.429688 11.328125-21.484375 11.328125-22.65625 11.367188-23.90625 11.328124-25.351563 11.328126-26.914062 11.328124-28.789062 11.328126-30.859376 11.328124-33.28125 11.367188-36.09375 11.328125-39.453124 11.328125-43.476563 11.328125-48.476563L1757.5 1110.3125l11.328125-62.773438 11.328125-73.75 11.328125-89.21875 11.328125-113.125 11.367188-154.609374 11.328124-245.664063L1836.835938-301.25" class="b"/></g><g clip-path="url(#w)"><path d="M772.265625 2656.992188l11.328125-4.53125 11.328125-4.570313 11.328125-4.648437 11.328125-4.6875 11.328125-4.726563 22.65625-9.609375 11.367188-4.921875 11.328124-4.960937 11.328126-5 11.328124-5.078126 11.328126-5.15625 11.328124-5.195312 11.367188-5.273438 11.328125-5.351562 11.328125-5.390625 11.328125-5.46875 11.328125-5.507813 11.328125-5.625 11.328125-5.703124 11.328125-5.742188 11.328125-5.859375 11.367188-5.9375 11.328124-6.015625 11.328126-6.09375 11.328124-6.171875 11.328126-6.289063 11.328124-6.367187 11.367188-6.445313 11.328125-6.5625 11.328125-6.679687 11.328125-6.796875 11.328125-6.875 11.328125-6.992188 11.328125-7.109374 11.328125-7.265626 11.328125-7.34375 11.367188-7.5 11.328124-7.617187 11.328126-7.773437 11.328124-7.929688 11.328126-8.046875 11.328124-8.203125 11.367188-8.398438 11.328125-8.554687 11.328125-8.710937 11.328125-8.90625 11.328125-9.101563 11.328125-9.335937 11.328125-9.492188 11.328125-9.726562 11.328125-9.921876 11.367188-10.195312 11.328124-10.429688 11.328126-10.703124 11.328124-10.976563 11.328126-11.289063 11.328124-11.5625L1440.9375 2238.75l11.328125-12.226562 11.328125-12.617188 11.328125-13.007812L1486.25 2187.5l11.328125-13.828125 11.328125-14.296875 11.328125-14.84375 11.328125-15.3125 11.367188-15.9375 11.328124-16.523438 11.328126-17.1875 11.328124-17.929687 11.328126-18.710937 11.328124-19.570313 11.367188-20.507813 11.328125-21.5625 11.328125-22.734374 11.328125-24.023438 11.328125-25.429688 11.328125-27.03125 11.328125-28.90625 11.328125-31.015624 11.328125-33.4375 11.367188-36.289063 11.328124-39.726563 11.328126-43.789062 11.328124-48.828125 11.328126-55.15625 11.328124-63.4375 11.367188-74.570313 11.328125-90.507812 11.328125-115.195312 11.328125-158.4375L1826.25 806.992188l11.328125-787.8125" class="b"/></g><g clip-path="url(#x)"><path d="M131.757812 874.921875l33.984376-8.554687 11.328124-2.890626 11.367188-2.890624 11.328125-2.929688L233.75 848.75l11.328125-3.007812 22.65625-6.09375L279.0625 836.5625l11.367188-3.085938 22.65625-6.25 11.328124-3.164062 22.65625-6.40625 11.367188-3.242188 33.984375-9.84375 22.65625-6.71875 11.328125-3.398437 22.65625-6.875 11.367188-3.476563 22.65625-7.03125 33.984374-10.78125 11.367188-3.671874 11.328125-3.671876 22.65625-7.5L573.75 747.65625 596.40625 740l22.65625-7.8125 11.367188-3.984375 11.328124-3.984375 22.65625-8.125 11.328126-4.101562 11.328124-4.179688 11.367188-4.179688 11.328125-4.257812 22.65625-8.59375 11.328125-4.375 11.328125-4.414062 11.328125-4.453126 11.328125-4.53125L789.0625 668.4375l11.367188-4.609375 11.328124-4.648437 11.328126-4.726563 11.328124-4.765625 11.328126-4.804688 11.328124-4.84375 11.367188-4.960937 11.328125-4.960937 22.65625-10.15625 22.65625-10.390626 11.328125-5.3125 11.328125-5.351562 11.328125-5.46875 11.367188-5.507812 11.328124-5.546876 11.328126-5.664062 11.328124-5.703125 11.328126-5.820313 11.328124-5.898437 11.367188-5.9375 11.328125-6.054687 11.328125-6.132813 11.328125-6.25L1083.75 528.59375l11.328125-6.40625 11.328125-6.523438 11.328125-6.601562 11.328125-6.71875 11.367188-6.835938 11.328124-6.953124 11.328126-7.03125 11.328124-7.1875 11.328126-7.304688 11.328124-7.421875 11.367188-7.578125 11.328125-7.695312 11.328125-7.8125 11.328125-8.007813 11.328125-8.125 11.328125-8.28125 11.328125-8.476563L1287.734375 395l11.328125-8.828125 11.367188-8.984375 11.328124-9.21875 11.328126-9.375 11.328124-9.609375 11.328126-9.84375 11.328124-10.039063 11.367188-10.3125 11.328125-10.585937 11.328125-10.820313L1412.421875 286.25 1423.75 274.84375l11.328125-11.71875 11.328125-12.070312 11.328125-12.421876 11.328125-12.8125 11.367188-13.164062 11.328124-13.632812 11.328126-14.0625 11.328124-14.53125 11.328126-15.039063 11.328124-15.625 11.367188-16.210937 11.328125-16.835938 11.328125-17.539062" class="b"/></g><g clip-path="url(#y)"><path d="M1848.515625 7.65625l11.328125 361.5625 11.328125 192.1875L1882.5 693.242188l11.328125 100.46875 11.328125 81.171874 11.328125 68.164063 11.328125 58.710937 11.367188 51.5625 11.328124 46.015626 11.328126 41.484374 11.328124 37.8125 11.328126 34.6875 11.328124 32.109376 11.367188 29.84375 11.328125 27.851562 11.328125 26.171875 11.328125 24.648437 11.328125 23.28125 11.328125 22.109376 11.328125 20.976562 11.328125 20 11.328125 19.101562 11.367188 18.28125 11.328124 17.539063 11.328126 16.835937 11.328124 16.171876 11.328126 15.625 11.328124 15.039062 11.367188 14.53125 11.328125 14.0625 11.328125 13.59375 11.328125 13.164062L2222.5 1627.03125l11.328125 12.421875 11.328125 12.070313 11.328125 11.71875 11.328125 11.40625 11.367188 11.09375 11.328124 10.859374 11.328126 10.546876 11.328124 10.3125L2324.492188 1727.5l11.328124 9.84375 11.367188 9.609375 11.328125 9.375 11.328125 9.179687 11.328125 9.023438 11.328125 8.789062 11.328125 8.632813 11.328125 8.476563 11.328125 8.28125 11.328125 8.125 11.367188 7.96875 11.328124 7.851562 11.328126 7.695312 11.328124 7.539063 11.328126 7.421875 11.328124 7.304688 11.367188 7.1875 11.328125 7.070312 11.328125 6.914062 11.328125 6.835938 11.328125 6.71875 11.328125 6.601562 11.328125 6.523438 11.328125 6.40625 11.328125 6.328125 11.367188 6.210937 11.328124 6.171876 11.328126 6.015624 11.328124 5.976563 11.328126 5.898437 11.328124 5.78125L2687.1875 1965l11.328125 5.625 11.328125 5.585938 11.328125 5.507812 11.328125 5.429688 11.328125 5.351562 11.328125 5.3125 11.328125 5.234375 11.328125 5.15625 11.367188 5.117187 11.328124 5.039063 11.328126 5 11.328124 4.921875 22.65625 9.6875 11.367188 4.765625 22.65625 9.375 11.328125 4.609375L2902.5 2061.25l22.65625 8.984375 11.328125 4.414063 11.328125 4.375 11.367188 4.296874 11.328124 4.296876 11.328126 4.257812 11.328124 4.179688 22.65625 8.28125 11.367188 4.0625 22.65625 8.046874 22.65625 7.890626 22.65625 7.734374 11.328125 3.828126 11.328125 3.789062 11.367188 3.75 22.65625 7.421875 22.65625 7.265625 11.328124 3.59375 11.367188 3.554688 11.328125 3.554687L3242.5 2179.257812l22.65625 6.796876 22.65625 6.71875 11.367188 3.28125 11.328124 3.320312 22.65625 6.484375 22.65625 6.40625 11.367188 3.164063 11.328125 3.125 11.328125 3.164062 11.328125 3.085938 11.328125 3.046874 11.328125 3.085938 33.984375 9.023438 11.367188 2.929687 11.328124 2.96875 22.65625 5.859375 11.328126 2.851562 11.328124 2.890626 11.367188 2.8125 11.328125 2.851562" class="b"/></g><g clip-path="url(#z)"><path d="M1988.984375 74.453125l11.328125 31.132813 11.367188 29.0625 11.328124 27.148437 11.328126 25.546875 11.328124 24.101562 11.328126 22.773438 11.328124 21.640625 11.367188 20.585937 11.328125 19.648438 11.328125 18.75 11.328125 18.007812L2125 350.078125l11.328125 16.5625 11.328125 15.976563 11.328125 15.351562 11.328125 14.84375 11.367188 14.335938 11.328124 13.867187 11.328126 13.4375 11.328124 13.007813 11.328126 12.65625 11.328124 12.265624 11.367188 11.914063 11.328125 11.601563 11.328125 11.289062 11.328125 10.976562L2295 548.90625l11.328125 10.429688 11.328125 10.234374 11.328125 9.960938 11.328125 9.726562 11.367188 9.53125 11.328124 9.296876 11.328126 9.101562 11.328124 8.945312 11.328126 8.710938 11.328124 8.59375 11.367188 8.398438 11.328125 8.203124 11.328125 8.085938 11.328125 7.929688L2465 683.828125l11.328125 7.617187 11.328125 7.5 11.328125 7.382813 11.328125 7.265625 11.367188 7.109375 11.328124 6.992187 11.328126 6.914063 11.328124 6.796875 11.328126 6.679688 11.328124 6.5625 11.367188 6.484374L2601.015625 767.5l11.328125 6.289062 11.328125 6.171876L2635 786.054688l11.328125 6.015624 11.328125 5.9375 11.328125 5.859376 11.328125 5.78125 11.367188 5.664062 11.328124 5.625 11.328126 5.546875 11.328124 5.46875 11.328126 5.429687 11.328124 5.3125 11.367188 5.273438 11.328125 5.234375 11.328125 5.117187 11.328125 5.078126L2805 868.4375l11.328125 4.960938 22.65625 9.765624 11.328125 4.765626 11.367188 4.765624 11.328124 4.6875 22.65625 9.21875 11.328126 4.53125 11.328124 4.492188 11.367188 4.453125 22.65625 8.75 11.328125 4.296875L2975 937.382812l11.328125 4.21875 11.328125 4.179688 11.328125 4.140625 11.328125 4.101563 11.367188 4.0625 11.328124 4.023437 11.328126 3.984375 11.328124 3.945312 22.65625 7.8125 11.367188 3.828126 22.65625 7.578124 11.328125 3.75L3145 996.71875l11.328125 3.671875 22.65625 7.265625 11.328125 3.554688 11.367188 3.554687 22.65625 7.03125 11.328124 3.476563 11.328126 3.4375 11.328124 3.398437 11.367188 3.359375 22.65625 6.71875L3315 1048.75l22.65625 6.484375 11.328125 3.203125 11.328125 3.164062 11.367188 3.164063 22.65625 6.25 22.65625 6.171875 11.328124 3.007812 11.367188 3.046876 11.328125 2.96875 11.328125 3.007812 11.328125 2.96875L3485 1095.117188l11.328125 2.890624 11.328125 2.929688 22.65625 5.703125 11.367188 2.851563" class="b"/></g><style>.a{fill:none;stroke:#bfbfbf;stroke-dasharray:12.5,18.75;stroke-linecap:round;stroke-miterlimit:10;stroke-width:6.25;transform:matrix(.1,0,0,-.1,0,274)}.b{fill:none;stroke:red;stroke-linecap:round;stroke-linejoin:round;stroke-miterlimit:10;stroke-width:12.5;transform:matrix(.1,0,0,-.1,0,274)}.c{fill:none;stroke:#000;stroke-miterlimit:10;transform:matrix(.1,0,0,-.1,0,274)}.d{stroke-linecap:square;stroke-width:12.5}.e{stroke-width:6.25}.f{fill:none;stroke:#bfbfbf;stroke-linecap:round;stroke-miterlimit:10;stroke-width:6.25;transform:matrix(.1,0,0,-.1,0,274)}</style></svg>