<svg xmlns="http://www.w3.org/2000/svg" width="344pt" height="260pt" viewBox="0 0 344 260"><defs><path d="M1.9531-2.1406H.3125v.5h1.6406zm0 0" id="h"/><path d="M1.5156-2.2812h.3281c.65625 0 1.015625.3125 1.015625.90625 0 .625-.390625 1-1 1-.671875 0-1-.34375-1.03125-1.0625H.2188c.03125.390625.09375.65625.21875.875.25.484375.71875.71875 1.390625.71875 1 0 1.640625-.59375 1.640625-1.53125 0-.640625-.234375-.984375-.828125-1.1875.453125-.1875.6875-.53125.6875-1.03125 0-.84375-.5625-1.359375-1.484375-1.359375-.984375 0-1.5.546875-1.515625 1.59375h.5938c.015625-.296875.03125-.46875.109375-.609375.140625-.28125.4375-.453125.828125-.453125.53125 0 .84375.328125.84375.859375 0 .34375-.109375.5625-.390625.671875-.15625.078125-.375.09375-.796875.109375zm0 0" id="i"/><path d="M3.4688-.5937H.9063c.06245-.4063.2812-.671925.890575-1.0313l.6719-.3906C3.15625-2.390625 3.5-2.890625 3.5-3.5c0-.421875-.15625-.796875-.453125-1.0625-.28125-.265625-.640625-.390625-1.09375-.390625-.625 0-1.078125.21875-1.34375.640625-.171875.265625-.25.578125-.265625 1.078125h.6094c.015625-.34375.0625-.53125.140625-.703125.15625-.296875.46875-.484375.828125-.484375.546875 0 .96875.390625.96875.9375 0 .390625-.234375.734375-.65625.984375l-.6406.3594C.578125-1.546875.28125-1.09375.234375 0H3.4688zm0 0" id="j"/><path d="M1.7813-3.5312V0h.5937v-4.9531h-.3906c-.21875.765625-.359375.875-1.28125.984375v.4375zm0 0" id="k"/><path d="M1.8906-4.9531c-.453125 0-.875.203125-1.125.546875-.3125.4375-.46875 1.09375-.46875 2.015625C.296875-.71875.84375.15625 1.890625.15625c1.03125 0 1.59375-.875 1.59375-2.515625 0-.953125-.15625-1.59375-.484375-2.046875-.25-.34375-.65625-.546875-1.109375-.546875zm0 .5313c.640625 0 .96875.671875.96875 2.015625 0 1.40625-.3125 2.0625-.984375 2.0625-.640625 0-.96875-.6875-.96875-2.046875 0-1.359375.328125-2.03125.984375-2.03125zm0 0" id="l"/><clipPath id="m"><use href="#a"/></clipPath><clipPath id="n"><path d="M12 128h320v2H12zm0 0"/></clipPath><clipPath id="o"><path d="M12 7.6602h1v242.25h-1zm0 0"/></clipPath><clipPath id="p"><path d="M65 7.6602h1v242.25h-1zm0 0"/></clipPath><clipPath id="q"><path d="M118 7.6602h1v242.25h-1zm0 0"/></clipPath><clipPath id="r"><use href="#a"/></clipPath><clipPath id="s"><path d="M225 7.6602h1v242.25h-1zm0 0"/></clipPath><clipPath id="t"><path d="M278 7.6602h1v242.25h-1zm0 0"/></clipPath><clipPath id="u"><path d="M331 7.6602h1v242.25h-1zm0 0"/></clipPath><clipPath id="v"><path d="M12 249h320v.9102H12zm0 0"/></clipPath><clipPath id="w"><path d="M12 209h320v1H12zm0 0"/></clipPath><clipPath id="x"><path d="M12 168h320v2H12zm0 0"/></clipPath><clipPath id="y"><path d="M12 128h320v2H12zm0 0"/></clipPath><clipPath id="z"><path d="M12 88h320v1H12zm0 0"/></clipPath><clipPath id="A"><path d="M12 47h320v2H12zm0 0"/></clipPath><clipPath id="B"><path d="M12 7.6602h320V8H12zm0 0"/></clipPath><clipPath id="C"><path d="M12 7.6602h199V120H12zm0 0"/></clipPath><clipPath id="D"><path d="M239 148h93v101.9102h-93zm0 0"/></clipPath><path id="a" d="M171 7.6602h2v242.25h-2zm0 0"/><path id="b" d="M1997.5031-211.1628v-2425.5368"/><path id="c" d="M399.5006-1423.9312h3196.005"/><path id="d" d="M399.5006-211.1628v-2425.5368"/><path id="e" d="M3595.5056-211.1628v-2425.5368"/><path id="f" d="M399.5006-211.1628h3196.005"/><path id="g" d="M399.5006-2636.6996h3196.005"/></defs><path fill="#fff" d="M12 249.9102h320V7.6602H12zm0 0"/><g clip-path="url(#m)"><use href="#b" class="e"/></g><g clip-path="url(#n)"><use href="#c" class="e"/></g><g clip-path="url(#o)"><use href="#d" class="a"/></g><g clip-path="url(#p)"><path d="M932.155119-211.162813v-2425.536772" class="a"/></g><g clip-path="url(#q)"><path d="M1464.848627-211.162813v-2425.536772" class="a"/></g><g clip-path="url(#r)"><use href="#b" class="a"/></g><g clip-path="url(#s)"><path d="M2530.157615-211.162813v-2425.536772" class="a"/></g><g clip-path="url(#t)"><path d="M3062.851124-211.162813v-2425.536772" class="a"/></g><g clip-path="url(#u)"><use href="#e" class="a"/></g><g clip-path="url(#v)"><use href="#f" class="a"/></g><g clip-path="url(#w)"><path d="M399.500624-615.418942h3196.004994" class="a"/></g><g clip-path="url(#x)"><path d="M399.500624-1019.675071h3196.004994" class="a"/></g><g clip-path="url(#y)"><use href="#c" class="a"/></g><g clip-path="url(#z)"><path d="M399.500624-1828.187328h3196.004994" class="a"/></g><g clip-path="url(#A)"><path d="M399.500624-2232.443457h3196.004994" class="a"/></g><g clip-path="url(#B)"><use href="#g" class="a"/></g><g class="b"><use href="#f" class="c"/><g class="d"><path d="M399.500624-211.162813v-45.643083"/><path d="M399.500624-211.162813v-22.841097"/><path d="M452.75437-211.162813v-22.841097"/><path d="M506.047129-211.162813v-22.841097"/><path d="M559.300874-211.162813v-22.841097"/><path d="M612.554619-211.162813v-22.841097"/><path d="M665.847378-211.162813v-22.841097"/><path d="M719.101124-211.162813v-22.841097"/><path d="M772.354869-211.162813v-22.841097"/><path d="M825.647628-211.162813v-22.841097"/><path d="M932.155119-211.162813v-45.643083"/><path d="M932.155119-211.162813v-22.841097"/><path d="M985.447878-211.162813v-22.841097"/><path d="M1038.701623-211.162813v-22.841097"/><path d="M1091.955368-211.162813v-22.841097"/><path d="M1145.248127-211.162813v-22.841097"/><path d="M1198.501873-211.162813v-22.841097"/><path d="M1251.755618-211.162813v-22.841097"/><path d="M1305.048377-211.162813v-22.841097"/><path d="M1358.302122-211.162813v-22.841097"/><path d="M1464.848627-211.162813v-45.643083"/><path d="M1464.848627-211.162813v-22.841097"/><path d="M1518.102372-211.162813v-22.841097"/><path d="M1571.356117-211.162813v-22.841097"/><path d="M1624.648876-211.162813v-22.841097"/><path d="M1677.902622-211.162813v-22.841097"/><path d="M1731.156367-211.162813v-22.841097"/><path d="M1784.449126-211.162813v-22.841097"/><path d="M1837.702871-211.162813v-22.841097"/><path d="M1890.956617-211.162813v-22.841097"/><path d="M1997.503121-211.162813v-45.643083"/><path d="M1997.503121-211.162813v-22.841097"/><path d="M2050.756866-211.162813v-22.841097"/><path d="M2104.049625-211.162813v-22.841097"/><path d="M2157.303371-211.162813v-22.841097"/><path d="M2210.557116-211.162813v-22.841097"/><path d="M2263.849875-211.162813v-22.841097"/><path d="M2317.10362-211.162813v-22.841097"/><path d="M2370.357366-211.162813v-22.841097"/><path d="M2423.650125-211.162813v-22.841097"/><path d="M2530.157615-211.162813v-45.643083"/><path d="M2530.157615-211.162813v-22.841097"/><path d="M2583.450375-211.162813v-22.841097"/><path d="M2636.70412-211.162813v-22.841097"/><path d="M2689.957865-211.162813v-22.841097"/><path d="M2743.250624-211.162813v-22.841097"/><path d="M2796.50437-211.162813v-22.841097"/><path d="M2849.758115-211.162813v-22.841097"/><path d="M2903.050874-211.162813v-22.841097"/><path d="M2956.304619-211.162813v-22.841097"/><path d="M3062.851124-211.162813v-45.643083"/><path d="M3062.851124-211.162813v-22.841097"/><path d="M3116.104869-211.162813v-22.841097"/><path d="M3169.358614-211.162813v-22.841097"/><path d="M3222.651373-211.162813v-22.841097"/><path d="M3275.905119-211.162813v-22.841097"/><path d="M3329.158864-211.162813v-22.841097"/><path d="M3382.451623-211.162813v-22.841097"/><path d="M3435.705368-211.162813v-22.841097"/><path d="M3488.959114-211.162813v-22.841097"/><path d="M3595.505618-211.162813v-45.643083"/><path d="M3595.505618-211.162813v-22.841097"/></g></g><use x="8.9523" y="259.0301" href="#h"/><use x="11.2357" y="259.0301" href="#i"/><use x="62.095" y="259.0301" href="#h"/><use x="64.3784" y="259.0301" href="#j"/><use x="115.2381" y="259.0301" href="#h"/><use x="117.5216" y="259.0301" href="#k"/><use x="170.0942" y="259.0301" href="#l"/><use x="223.2373" y="259.0301" href="#k"/><use x="276.3804" y="259.0301" href="#j"/><use x="330.095" y="259.0301" href="#i"/><g class="b"><use href="#g" class="c"/><g class="d"><path d="M399.500624-2636.699585v45.643082"/><path d="M399.500624-2636.699585v22.841097"/><path d="M452.75437-2636.699585v22.841097"/><path d="M506.047129-2636.699585v22.841097"/><path d="M559.300874-2636.699585v22.841097"/><path d="M612.554619-2636.699585v22.841097"/><path d="M665.847378-2636.699585v22.841097"/><path d="M719.101124-2636.699585v22.841097"/><path d="M772.354869-2636.699585v22.841097"/><path d="M825.647628-2636.699585v22.841097"/><path d="M932.155119-2636.699585v45.643082"/><path d="M932.155119-2636.699585v22.841097"/><path d="M985.447878-2636.699585v22.841097"/><path d="M1038.701623-2636.699585v22.841097"/><path d="M1091.955368-2636.699585v22.841097"/><path d="M1145.248127-2636.699585v22.841097"/><path d="M1198.501873-2636.699585v22.841097"/><path d="M1251.755618-2636.699585v22.841097"/><path d="M1305.048377-2636.699585v22.841097"/><path d="M1358.302122-2636.699585v22.841097"/><path d="M1464.848627-2636.699585v45.643082"/><path d="M1464.848627-2636.699585v22.841097"/><path d="M1518.102372-2636.699585v22.841097"/><path d="M1571.356117-2636.699585v22.841097"/><path d="M1624.648876-2636.699585v22.841097"/><path d="M1677.902622-2636.699585v22.841097"/><path d="M1731.156367-2636.699585v22.841097"/><path d="M1784.449126-2636.699585v22.841097"/><path d="M1837.702871-2636.699585v22.841097"/><path d="M1890.956617-2636.699585v22.841097"/><path d="M1997.503121-2636.699585v45.643082"/><path d="M1997.503121-2636.699585v22.841097"/><path d="M2050.756866-2636.699585v22.841097"/><path d="M2104.049625-2636.699585v22.841097"/><path d="M2157.303371-2636.699585v22.841097"/><path d="M2210.557116-2636.699585v22.841097"/><path d="M2263.849875-2636.699585v22.841097"/><path d="M2317.10362-2636.699585v22.841097"/><path d="M2370.357366-2636.699585v22.841097"/><path d="M2423.650125-2636.699585v22.841097"/><path d="M2530.157615-2636.699585v45.643082"/><path d="M2530.157615-2636.699585v22.841097"/><path d="M2583.450375-2636.699585v22.841097"/><path d="M2636.70412-2636.699585v22.841097"/><path d="M2689.957865-2636.699585v22.841097"/><path d="M2743.250624-2636.699585v22.841097"/><path d="M2796.50437-2636.699585v22.841097"/><path d="M2849.758115-2636.699585v22.841097"/><path d="M2903.050874-2636.699585v22.841097"/><path d="M2956.304619-2636.699585v22.841097"/><path d="M3062.851124-2636.699585v45.643082"/><path d="M3062.851124-2636.699585v22.841097"/><path d="M3116.104869-2636.699585v22.841097"/><path d="M3169.358614-2636.699585v22.841097"/><path d="M3222.651373-2636.699585v22.841097"/><path d="M3275.905119-2636.699585v22.841097"/><path d="M3329.158864-2636.699585v22.841097"/><path d="M3382.451623-2636.699585v22.841097"/><path d="M3435.705368-2636.699585v22.841097"/><path d="M3488.959114-2636.699585v22.841097"/><path d="M3595.505618-2636.699585v45.643082"/><path d="M3595.505618-2636.699585v22.841097"/></g></g><use x="8.9523" y="5.38" href="#h"/><use x="11.2357" y="5.38" href="#i"/><use x="62.095" y="5.38" href="#h"/><use x="64.3784" y="5.38" href="#j"/><use x="115.2381" y="5.38" href="#h"/><use x="117.5216" y="5.38" href="#k"/><use x="170.0942" y="5.38" href="#l"/><use x="223.2373" y="5.38" href="#k"/><use x="276.3804" y="5.38" href="#j"/><use x="330.095" y="5.38" href="#i"/><g class="b"><use href="#d" class="c"/><g class="d"><path d="M399.500624-211.162813h45.646068"/><path d="M399.500624-211.162813h22.823034"/><path d="M399.500624-251.604071h22.823034"/><path d="M399.500624-292.006217h22.823034"/><path d="M399.500624-332.447474h22.823034"/><path d="M399.500624-372.84962h22.823034"/><path d="M399.500624-413.290878h22.823034"/><path d="M399.500624-453.732135h22.823034"/><path d="M399.500624-494.134281h22.823034"/><path d="M399.500624-534.575539h22.823034"/><path d="M399.500624-615.418942h45.646068"/><path d="M399.500624-615.418942h22.823034"/><path d="M399.500624-655.860199h22.823034"/><path d="M399.500624-696.262345h22.823034"/><path d="M399.500624-736.703603h22.823034"/><path d="M399.500624-777.105749h22.823034"/><path d="M399.500624-817.547006h22.823034"/><path d="M399.500624-857.988264h22.823034"/><path d="M399.500624-898.39041h22.823034"/><path d="M399.500624-938.831667h22.823034"/><path d="M399.500624-1019.675071h45.646068"/><path d="M399.500624-1019.675071h22.823034"/><path d="M399.500624-1060.116328h22.823034"/><path d="M399.500624-1100.518474h22.823034"/><path d="M399.500624-1140.959732h22.823034"/><path d="M399.500624-1181.361878h22.823034"/><path d="M399.500624-1221.803135h22.823034"/><path d="M399.500624-1262.244392h22.823034"/><path d="M399.500624-1302.646538h22.823034"/><path d="M399.500624-1343.087796h22.823034"/><path d="M399.500624-1423.931199h45.646068"/><path d="M399.500624-1423.931199h22.823034"/><path d="M399.500624-1464.372457h22.823034"/><path d="M399.500624-1504.774603h22.823034"/><path d="M399.500624-1545.21586h22.823034"/><path d="M399.500624-1585.618006h22.823034"/><path d="M399.500624-1626.059264h22.823034"/><path d="M399.500624-1666.46141h22.823034"/><path d="M399.500624-1706.902667h22.823034"/><path d="M399.500624-1747.343925h22.823034"/><path d="M399.500624-1828.187328h45.646068"/><path d="M399.500624-1828.187328h22.823034"/><path d="M399.500624-1868.628585h22.823034"/><path d="M399.500624-1909.030731h22.823034"/><path d="M399.500624-1949.471989h22.823034"/><path d="M399.500624-1989.874135h22.823034"/><path d="M399.500624-2030.315392h22.823034"/><path d="M399.500624-2070.75665h22.823034"/><path d="M399.500624-2111.158796h22.823034"/><path d="M399.500624-2151.600053h22.823034"/><path d="M399.500624-2232.443457h45.646068"/><path d="M399.500624-2232.443457h22.823034"/><path d="M399.500624-2272.884714h22.823034"/><path d="M399.500624-2313.28686h22.823034"/><path d="M399.500624-2353.728118h22.823034"/><path d="M399.500624-2394.169375h22.823034"/><path d="M399.500624-2434.571521h22.823034"/><path d="M399.500624-2475.012778h22.823034"/><path d="M399.500624-2515.414924h22.823034"/><path d="M399.500624-2555.856182h22.823034"/><path d="M399.500624-2636.699585h45.646068"/><path d="M399.500624-2636.699585h22.823034"/></g></g><use x=".1902" y="253.3301" href="#h"/><use x="2.4736" y="253.3301" href="#i"/><use x=".1902" y="212.8602" href="#h"/><use x="2.4736" y="212.8602" href="#j"/><use x=".1902" y="172.3899" href="#h"/><use x="2.4736" y="172.3899" href="#k"/><use x="2.4734" y="131.92" href="#l"/><use x="2.4734" y="91.4501" href="#k"/><use x="2.4734" y="50.9802" href="#j"/><use x="2.4734" y="11.0802" href="#i"/><g class="b"><use href="#e" class="c"/><g class="d"><path d="M3595.505618-211.162813h-45.685081"/><path d="M3595.505618-211.162813h-22.823034"/><path d="M3595.505618-251.604071h-22.823034"/><path d="M3595.505618-292.006217h-22.823034"/><path d="M3595.505618-332.447474h-22.823034"/><path d="M3595.505618-372.84962h-22.823034"/><path d="M3595.505618-413.290878h-22.823034"/><path d="M3595.505618-453.732135h-22.823034"/><path d="M3595.505618-494.134281h-22.823034"/><path d="M3595.505618-534.575539h-22.823034"/><path d="M3595.505618-615.418942h-45.685081"/><path d="M3595.505618-615.418942h-22.823034"/><path d="M3595.505618-655.860199h-22.823034"/><path d="M3595.505618-696.262345h-22.823034"/><path d="M3595.505618-736.703603h-22.823034"/><path d="M3595.505618-777.105749h-22.823034"/><path d="M3595.505618-817.547006h-22.823034"/><path d="M3595.505618-857.988264h-22.823034"/><path d="M3595.505618-898.39041h-22.823034"/><path d="M3595.505618-938.831667h-22.823034"/><path d="M3595.505618-1019.675071h-45.685081"/><path d="M3595.505618-1019.675071h-22.823034"/><path d="M3595.505618-1060.116328h-22.823034"/><path d="M3595.505618-1100.518474h-22.823034"/><path d="M3595.505618-1140.959732h-22.823034"/><path d="M3595.505618-1181.361878h-22.823034"/><path d="M3595.505618-1221.803135h-22.823034"/><path d="M3595.505618-1262.244392h-22.823034"/><path d="M3595.505618-1302.646538h-22.823034"/><path d="M3595.505618-1343.087796h-22.823034"/><path d="M3595.505618-1423.931199h-45.685081"/><path d="M3595.505618-1423.931199h-22.823034"/><path d="M3595.505618-1464.372457h-22.823034"/><path d="M3595.505618-1504.774603h-22.823034"/><path d="M3595.505618-1545.21586h-22.823034"/><path d="M3595.505618-1585.618006h-22.823034"/><path d="M3595.505618-1626.059264h-22.823034"/><path d="M3595.505618-1666.46141h-22.823034"/><path d="M3595.505618-1706.902667h-22.823034"/><path d="M3595.505618-1747.343925h-22.823034"/><path d="M3595.505618-1828.187328h-45.685081"/><path d="M3595.505618-1828.187328h-22.823034"/><path d="M3595.505618-1868.628585h-22.823034"/><path d="M3595.505618-1909.030731h-22.823034"/><path d="M3595.505618-1949.471989h-22.823034"/><path d="M3595.505618-1989.874135h-22.823034"/><path d="M3595.505618-2030.315392h-22.823034"/><path d="M3595.505618-2070.75665h-22.823034"/><path d="M3595.505618-2111.158796h-22.823034"/><path d="M3595.505618-2151.600053h-22.823034"/><path d="M3595.505618-2232.443457h-45.685081"/><path d="M3595.505618-2232.443457h-22.823034"/><path d="M3595.505618-2272.884714h-22.823034"/><path d="M3595.505618-2313.28686h-22.823034"/><path d="M3595.505618-2353.728118h-22.823034"/><path d="M3595.505618-2394.169375h-22.823034"/><path d="M3595.505618-2434.571521h-22.823034"/><path d="M3595.505618-2475.012778h-22.823034"/><path d="M3595.505618-2515.414924h-22.823034"/><path d="M3595.505618-2555.856182h-22.823034"/><path d="M3595.505618-2636.699585h-45.685081"/><path d="M3595.505618-2636.699585h-22.823034"/></g></g><use x="337.714" y="253.3301" href="#h"/><use x="339.9974" y="253.3301" href="#i"/><use x="337.714" y="212.8602" href="#h"/><use x="339.9974" y="212.8602" href="#j"/><use x="337.714" y="172.3899" href="#h"/><use x="339.9974" y="172.3899" href="#k"/><use x="337.714" y="131.92" href="#l"/><use x="337.714" y="91.4501" href="#k"/><use x="337.714" y="50.9802" href="#j"/><use x="337.714" y="11.0802" href="#i"/><g clip-path="url(#C)"><path d="M399.500624-1524.995232l9.168227-.430226 9.129214-.469337 9.246255-.430226 9.129213-.430227 9.0902-.469337 9.168227-.430226 18.414482-.938676 9.168227-.469337 18.1804-.938675 9.207241-.469338 18.336454-1.016898 9.129214-.469338 9.090199-.508449 9.246255-.508449 9.0902-.508449 9.246254-.508449 9.168228-.508449 9.090199-.508449 9.129214-.547561 9.246255-.508449 9.20724-.54756 18.258427-1.095121 9.0902-.547561 9.168227-.586672 9.207241-.547561 9.129214-.586672 9.168227-.54756 9.0902-.586672 9.207241-.586672 9.129213-.586672 9.246255-.625784 9.168227-.586672 9.0902-.625783 9.129213-.586672 9.207241-.625784 9.207241-.664895 9.168227-.625783 9.129214-.664895 9.0902-.625784 9.168227-.664894 9.207241-.664895 18.258427-1.32979 9.129213-.704007 9.207241-.664895 9.129214-.704006 9.246254-.704007 9.129214-.743117 9.0902-.704007 9.168227-.743118 18.414482-1.486235 9.168227-.78223 9.0902-.743118 9.0902-.782229 9.20724-.782229 9.168228-.78223 9.129213-.821341 9.168227-.82134 9.0902-.78223 9.246255-.860452 9.0902-.821341 9.246254-.860452 9.168227-.860452 9.0902-.860453 9.129214-.899563 9.246254-.899564 9.207241-.899564 9.168228-.938675 9.090199-.899564 9.0902-.938675 9.168227-.977787 9.207241-.938675 18.258427-1.955573 9.129214-1.016899 9.207241-1.016898 9.129213-1.016898 9.246255-1.05601 9.168227-1.056009 9.051186-1.05601 9.168227-1.095121 9.207241-1.095121 9.207241-1.134233 9.168227-1.134232 9.129214-1.134233 9.0902-1.173344 9.168227-1.173344 9.207241-1.212455 18.258427-2.424911 9.129213-1.251567 9.207241-1.290679 9.129214-1.251567 9.207241-1.329789 9.168227-1.32979 9.0902-1.32979 9.168227-1.368902 18.414482-2.816025 9.168227-1.447125 18.180399-2.894248 9.207241-1.525347 9.168228-1.525348 9.129213-1.525347 9.168227-1.564459 9.0902-1.60357 9.246255-1.642681 9.090199-1.642682 9.246255-1.720905 9.168227-1.681793 9.0902-1.760016 9.129214-1.760016 9.246254-1.799127 9.207241-1.877351 18.258427-3.754701 9.0902-1.916462 9.168227-1.994684 9.207241-1.994685 9.129214-2.033797 9.168227-2.112019 9.090199-2.112019 9.207241-2.190242 9.129214-2.190242 9.246255-2.268465 9.168227-2.307577 9.051186-2.307577 9.168227-2.385799 9.207241-2.464023 9.207241-2.503134 9.168227-2.542245 9.129214-2.581357 9.090199-2.65958 9.168228-2.698691 9.168227-2.776914 9.168227-2.816026 9.129214-2.894248 9.090199-2.93336 9.246255-3.050695 9.129213-3.089806 9.207241-3.20714 9.168228-3.20714 9.090199-3.324475 9.168228-3.402698 9.207241-3.480921 9.20724-3.598255 9.168228-3.676477 9.090199-3.71559 9.0902-3.832924 9.168227-3.950258 9.207241-4.067593 9.129214-4.145815 9.168227-4.26315 9.0902-4.380484 9.246254-4.536931 9.0902-4.615153 9.246255-4.849822 9.168227-4.888933 9.0902-5.04538 9.129213-5.201825 9.246255-5.397382 9.207241-5.59294 9.129213-5.710274 9.129214-5.866721 9.0902-6.023166 9.168227-6.296946 9.207241-6.531615 9.129213-6.688061 9.129214-6.961841 9.129213-7.157399 9.207241-7.509401 9.129214-7.665848 9.246254-8.096074 9.168228-8.330742 9.051186-8.565412 9.168227-8.956526 9.207241-9.425864 9.207241-9.777867 9.168227-10.12987 9.129213-10.560096 9.0902-10.951211 9.168227-11.537883 9.168228-12.085443 9.129213-12.593893 9.168227-13.219676 9.0902-13.806348 9.246255-14.6668 9.129213-15.292584 9.207241-16.27037 9.168227-17.0526 9.0902-17.83483 9.129214-18.969061 9.246254-20.298852 9.207241-21.511307 9.168228-22.762874 4.525593-11.850775 4.564606-12.241889 4.564607-12.633004 4.525593-13.024119 4.60362-13.610791 4.564607-14.080128 4.603621-14.627689 4.60362-15.136138 4.564607-15.644587 4.564607-16.192147 4.564606-16.817931 4.603621-17.482826 4.525593-18.10861 4.564607-18.812616 4.60362-19.868625 4.642634-20.689967 4.525593-21.354861 4.564607-22.293536 4.642634-23.584215 2.301811-12.24189 2.30181-12.476558 2.30181-12.672115 2.262796-12.985008 2.301811-13.297899 2.30181-13.61079 2.262796-13.84546 2.262797-14.158351 2.30181-14.549466 2.262797-14.862358 2.262796-15.370806 2.30181-15.761922 2.262797-16.192147 2.30181-16.622374 2.30181-17.248157 2.301811-17.678384 2.30181-18.186832 2.340824-18.734393 2.30181-19.203731 2.30181-19.790402 2.262797-20.377075 2.30181-20.963746 2.30181-21.511308" class="f"/></g><g clip-path="url(#D)"><path d="M2679.814295 14.823246l2.30181-21.550418 2.262796-20.963747 2.301811-20.298852 2.262796-19.751291 2.262797-19.164619 2.30181-18.577947 2.262796-18.108609 2.262797-17.600161 2.30181-17.287269 2.30181-16.817931 2.301811-16.426816 2.262796-15.957479 2.30181-15.566364 2.301811-15.175249 2.30181-14.823246 2.30181-14.432132 2.262797-14.041017 2.30181-13.649902 2.30181-13.376122 2.262797-13.024119 2.30181-12.750338 2.262796-12.476558 2.30181-12.163667 2.301811-11.928997 4.525593-22.880209 4.564606-21.941533 4.603621-21.31575 4.60362-20.455297 4.564607-19.360177 4.564607-18.617058 4.60362-18.10861 4.642635-17.443714 4.564606-16.622374 4.603621-16.035702 4.525593-15.331695 4.564607-14.784135 4.564606-14.353908 4.564607-13.923683 4.603621-13.493456 4.60362-13.102342 4.642634-12.633004 4.564607-12.241889 9.168227-23.1931 9.129214-21.706865 9.090199-20.377074 9.168228-19.4384 9.207241-18.38239 9.129213-17.287268 9.129214-16.387705 9.129213-15.527253 9.207241-14.94058 9.129213-14.041017 9.246255-13.532568 9.129214-12.828561 9.090199-12.124555 9.168228-11.694329 9.207241-11.303214 9.20724-10.755654 9.168228-10.286316 9.090199-9.816978 9.0902-9.386752 9.207241-9.112972 9.168227-8.800081 9.129214-8.408965 9.168227-8.096074 9.0902-7.783182 9.246254-7.587625 9.0902-7.235621 9.246255-7.118287 9.168227-6.766284 9.0902-6.531615 9.129213-6.336058 9.246255-6.179612 9.207241-6.023166 9.129213-5.749386 9.129214-5.592939 9.0902-5.358271 9.168227-5.280049 9.207241-5.123602 9.129213-4.967156 9.168228-4.810711 9.090199-4.654264 9.207241-4.615153 9.129214-4.380485 9.246254-4.380484 9.168228-4.184927 9.090199-4.067593 9.129214-3.98937 9.207241-3.872035 9.207241-3.832924 9.168227-3.676478 9.129213-3.598255 9.0902-3.48092 9.168227-3.402698 9.168228-3.363586 9.168227-3.285363 9.129213-3.168029 9.0902-3.128918 9.246255-3.050694 9.129213-2.972472 9.207241-2.93336 9.168227-2.855137 9.0902-2.776914 9.129214-2.698691 9.246254-2.698692 9.207241-2.620468 9.168228-2.581357 9.090199-2.503134 9.0902-2.424911 9.168227-2.424911 9.207241-2.346688 9.129214-2.307576 9.168227-2.268465 9.0902-2.190243 9.246254-2.229353 9.0902-2.11202 9.246255-2.112019 9.168227-2.072908 9.0902-1.994684 9.129213-1.994685 9.246255-1.955574 9.207241-1.916462 9.168227-1.87735 9.0902-1.87735 9.0902-1.760016 9.168227-1.799128 9.168227-1.760016" class="f"/></g><style>.a{fill:none;stroke:#bfbfbf;stroke-dasharray:11.4143,17.1214;stroke-linecap:round;stroke-miterlimit:10;stroke-width:5.70714;transform:matrix(.100125,0,0,.0998748,-28,271)}.b{fill:none;stroke:#000;stroke-miterlimit:10;transform:matrix(.100125,0,0,.0998748,-28,271)}.c{stroke-linecap:square;stroke-width:11.4143}.d{stroke-width:5.70714}.e{fill:none;stroke:#bfbfbf;stroke-linecap:round;stroke-miterlimit:10;stroke-width:5.70714;transform:matrix(.100125,0,0,.0998748,-28,271)}.f{fill:none;stroke:#00008b;stroke-linecap:round;stroke-linejoin:round;stroke-miterlimit:10;stroke-width:11.4143;transform:matrix(.100125,0,0,.0998748,-28,271)}</style></svg>