<svg xmlns="http://www.w3.org/2000/svg" width="382pt" height="274pt" viewBox="0 0 382 274"><defs><path d="M2.0625-5.3125c-.5 0-.9375.21875-1.21875.578125C.5-4.265625.328125-3.5625.328125-2.578125c0 1.796875.59375 2.75 1.734375 2.75 1.125 0 1.734375-.953125 1.734375-2.703125 0-1.03125-.15625-1.71875-.515625-2.203125C3-5.109375 2.5625-5.3125 2.0625-5.3125zm0 .5781c.71875 0 1.0625.71875 1.0625 2.140625C3.125-1.078125 2.78125-.375 2.046875-.375 1.34375-.375 1-1.109375 1-2.5625c0-1.453125.34375-2.171875 1.0625-2.171875zm0 0" id="c"/><path d="M3.5625-5.3125H.8281L.4219-2.4219h.6094c.3125-.375.5625-.5.984375-.5.703125 0 1.15625.484375 1.15625 1.28125 0 .765625-.4375 1.234375-1.15625 1.234375-.578125 0-.9375-.296875-1.09375-.90625h-.6562c.09375.4375.15625.65625.3125.84375.3125.40625.84375.640625 1.453125.640625 1.0625 0 1.8125-.78125 1.8125-1.90625C3.84375-2.78125 3.15625-3.5 2.125-3.5c-.375 0-.671875.09375-.984375.3125l.2188-1.4844H3.5625zm0 0" id="d"/><path d="M1.9375-3.7812V0h.6719v-5.3125h-.4375c-.2344.8125-.39065.921875-1.406275 1.046875v.4844zm0 0" id="f"/><path d="M3.7969-.6562H1c.0625-.4375.3125-.703125.953125-1.09375l.75-.4062c.75-.40625 1.125-.953125 1.125-1.59375 0-.453125-.171875-.859375-.484375-1.140625C3.015625-5.1875 2.625-5.3125 2.125-5.3125c-.671875 0-1.171875.234375-1.46875.6875-.1875.28125-.265625.609375-.28125 1.15625h.6563c.03125-.359375.078125-.578125.15625-.75.171875-.328125.515625-.515625.921875-.515625.59375 0 1.046875.421875 1.046875.984375 0 .421875-.25.78125-.71875 1.0625l-.6875.3906C.640625-1.671875.3125-1.171875.25 0h3.5469zm0 0" id="g"/><path d="M1.4375-.7812H.6563V0h.7813zm0 0" id="e"/><path d="M3.9063-5.3125H.3438v.6406h2.875C1.953125-2.859375 1.4375-1.75 1.03125 0h.7031c.296875-1.703125.96875-3.171875 2.171875-4.765625zm0 0" id="h"/><clipPath id="i"><path d="M21 8.5h1v255h-1zm0 0"/></clipPath><clipPath id="j"><path d="M21 263h340v.5H21zm0 0"/></clipPath><clipPath id="k"><path d="M21 8.5h1v255h-1zm0 0"/></clipPath><clipPath id="l"><path d="M105 8.5h2v255h-2zm0 0"/></clipPath><clipPath id="m"><path d="M190 8.5h2v255h-2zm0 0"/></clipPath><clipPath id="n"><path d="M275 8.5h2v255h-2zm0 0"/></clipPath><clipPath id="o"><path d="M360 8.5h1v255h-1zm0 0"/></clipPath><clipPath id="p"><path d="M21 263h340v.5H21zm0 0"/></clipPath><clipPath id="q"><path d="M21 199h340v2H21zm0 0"/></clipPath><clipPath id="r"><path d="M21 135h340v2H21zm0 0"/></clipPath><clipPath id="s"><path d="M21 71h340v2H21zm0 0"/></clipPath><clipPath id="t"><path d="M21 8.5h340V9H21zm0 0"/></clipPath><clipPath id="u"><path d="M21 9h202v254.5H21zm0 0"/></clipPath><clipPath id="v"><path d="M21 186h59v77.5H21zm0 0"/></clipPath><clipPath id="w"><path d="M175 8.5h186V232H175zm0 0"/></clipPath><path id="a" d="M210 105v2550"/><path id="b" d="M210 105h3400"/></defs><path fill="#fff" d="M21 263.5h340V8.5H21zm0 0"/><g clip-path="url(#i)"><use href="#a" class="f"/></g><g clip-path="url(#j)"><use href="#b" class="f"/></g><g clip-path="url(#k)"><use href="#a" class="a"/></g><g clip-path="url(#l)"><path d="M1060 105v2550" class="a"/></g><g clip-path="url(#m)"><path d="M1910 105v2550" class="a"/></g><g clip-path="url(#n)"><path d="M2760 105v2550" class="a"/></g><g clip-path="url(#o)"><path d="M3610 105v2550" class="a"/></g><g clip-path="url(#p)"><use href="#b" class="a"/></g><g clip-path="url(#q)"><path d="M210 742.5h3400" class="a"/></g><g clip-path="url(#r)"><path d="M210 1380h3400" class="a"/></g><g clip-path="url(#s)"><path d="M210 2017.5h3400" class="a"/></g><g clip-path="url(#t)"><path d="M210 2655h3400" class="a"/></g><g class="b"><use href="#b" class="c"/><g class="d"><path d="M210 105v50"/><path d="M295 105v25"/><path d="M380 105v25"/><path d="M465 105v25"/><path d="M550 105v25"/><path d="M635 105v25"/><path d="M720 105v25"/><path d="M805 105v25"/><path d="M890 105v25"/><path d="M975 105v25"/><path d="M1060 105v50"/><path d="M1145 105v25"/><path d="M1230 105v25"/><path d="M1315 105v25"/><path d="M1400 105v25"/><path d="M1485 105v25"/><path d="M1570 105v25"/><path d="M1655 105v25"/><path d="M1740 105v25"/><path d="M1825 105v25"/><path d="M1910 105v50"/><path d="M1995 105v25"/><path d="M2080 105v25"/><path d="M2165 105v25"/><path d="M2250 105v25"/><path d="M2335 105v25"/><path d="M2420 105v25"/><path d="M2505 105v25"/><path d="M2590 105v25"/><path d="M2675 105v25"/><path d="M2760 105v50"/><path d="M2845 105v25"/><path d="M2930 105v25"/><path d="M3015 105v25"/><path d="M3100 105v25"/><path d="M3185 105v25"/><path d="M3270 105v25"/><path d="M3355 105v25"/><path d="M3440 105v25"/><path d="M3525 105v25"/><path d="M3610 105v50"/></g></g><use x="18.2902" y="273.5" href="#c"/><use x="103.29" y="273.5" href="#d"/><use x="186.8295" y="273.5" href="#f"/><use x="190.9995" y="273.5" href="#c"/><use x="271.8292" y="273.5" href="#f"/><use x="275.9992" y="273.5" href="#d"/><use x="356.829" y="273.5" href="#g"/><use x="360.999" y="273.5" href="#c"/><g class="b"><path d="M210 2655h3400" class="c"/><g class="d"><path d="M210 2655v-50"/><path d="M295 2655v-25"/><path d="M380 2655v-25"/><path d="M465 2655v-25"/><path d="M550 2655v-25"/><path d="M635 2655v-25"/><path d="M720 2655v-25"/><path d="M805 2655v-25"/><path d="M890 2655v-25"/><path d="M975 2655v-25"/><path d="M1060 2655v-50"/><path d="M1145 2655v-25"/><path d="M1230 2655v-25"/><path d="M1315 2655v-25"/><path d="M1400 2655v-25"/><path d="M1485 2655v-25"/><path d="M1570 2655v-25"/><path d="M1655 2655v-25"/><path d="M1740 2655v-25"/><path d="M1825 2655v-25"/><path d="M1910 2655v-50"/><path d="M1995 2655v-25"/><path d="M2080 2655v-25"/><path d="M2165 2655v-25"/><path d="M2250 2655v-25"/><path d="M2335 2655v-25"/><path d="M2420 2655v-25"/><path d="M2505 2655v-25"/><path d="M2590 2655v-25"/><path d="M2675 2655v-25"/><path d="M2760 2655v-50"/><path d="M2845 2655v-25"/><path d="M2930 2655v-25"/><path d="M3015 2655v-25"/><path d="M3100 2655v-25"/><path d="M3185 2655v-25"/><path d="M3270 2655v-25"/><path d="M3355 2655v-25"/><path d="M3440 2655v-25"/><path d="M3525 2655v-25"/><path d="M3610 2655v-50"/></g></g><use x="18.2902" y="5.375" href="#c"/><use x="103.29" y="5.375" href="#d"/><use x="186.8295" y="5.375" href="#f"/><use x="190.9995" y="5.375" href="#c"/><use x="271.8292" y="5.375" href="#f"/><use x="275.9992" y="5.375" href="#d"/><use x="356.829" y="5.375" href="#g"/><use x="360.999" y="5.375" href="#c"/><g class="b"><use href="#a" class="c"/><g class="d"><path d="M210 105h50"/><path d="M210 168.75h25"/><path d="M210 232.5h25"/><path d="M210 296.25h25"/><path d="M210 360h25"/><path d="M210 423.75h25"/><path d="M210 487.5h25"/><path d="M210 551.25h25"/><path d="M210 615h25"/><path d="M210 678.75h25"/><path d="M210 742.5h50"/><path d="M210 806.25h25"/><path d="M210 870h25"/><path d="M210 933.75h25"/><path d="M210 997.5h25"/><path d="M210 1061.25h25"/><path d="M210 1125h25"/><path d="M210 1188.75h25"/><path d="M210 1252.5h25"/><path d="M210 1316.25h25"/><path d="M210 1380h50"/><path d="M210 1443.75h25"/><path d="M210 1507.5h25"/><path d="M210 1571.25h25"/><path d="M210 1635h25"/><path d="M210 1698.75h25"/><path d="M210 1762.5h25"/><path d="M210 1826.25h25"/><path d="M210 1890h25"/><path d="M210 1953.75h25"/><path d="M210 2017.5h50"/><path d="M210 2081.25h25"/><path d="M210 2145h25"/><path d="M210 2208.75h25"/><path d="M210 2272.5h25"/><path d="M210 2336.25h25"/><path d="M210 2400h25"/><path d="M210 2463.75h25"/><path d="M210 2527.5h25"/><path d="M210 2591.25h25"/><path d="M210 2655h50"/></g></g><use x="3.7004" y="267.25" href="#c"/><use x="7.8704" y="267.25" href="#e"/><use x="9.9554" y="267.25" href="#c"/><use x="3.7004" y="202.875" href="#g"/><use x="7.8704" y="202.875" href="#e"/><use x="9.9554" y="202.875" href="#d"/><use x="3.7004" y="139.125" href="#d"/><use x="7.8704" y="139.125" href="#e"/><use x="9.9554" y="139.125" href="#c"/><use x="3.7004" y="75.375" href="#h"/><use x="7.8704" y="75.375" href="#e"/><use x="9.9554" y="75.375" href="#d"/><use x="-.4695" y="11.625" href="#f"/><use x="3.7005" y="11.625" href="#c"/><use x="7.8705" y="11.625" href="#e"/><use x="9.9555" y="11.625" href="#c"/><g class="b"><path d="M3610 105v2550" class="c"/><g class="d"><path d="M3610 105h-50"/><path d="M3610 168.75h-25"/><path d="M3610 232.5h-25"/><path d="M3610 296.25h-25"/><path d="M3610 360h-25"/><path d="M3610 423.75h-25"/><path d="M3610 487.5h-25"/><path d="M3610 551.25h-25"/><path d="M3610 615h-25"/><path d="M3610 678.75h-25"/><path d="M3610 742.5h-50"/><path d="M3610 806.25h-25"/><path d="M3610 870h-25"/><path d="M3610 933.75h-25"/><path d="M3610 997.5h-25"/><path d="M3610 1061.25h-25"/><path d="M3610 1125h-25"/><path d="M3610 1188.75h-25"/><path d="M3610 1252.5h-25"/><path d="M3610 1316.25h-25"/><path d="M3610 1380h-50"/><path d="M3610 1443.75h-25"/><path d="M3610 1507.5h-25"/><path d="M3610 1571.25h-25"/><path d="M3610 1635h-25"/><path d="M3610 1698.75h-25"/><path d="M3610 1762.5h-25"/><path d="M3610 1826.25h-25"/><path d="M3610 1890h-25"/><path d="M3610 1953.75h-25"/><path d="M3610 2017.5h-50"/><path d="M3610 2081.25h-25"/><path d="M3610 2145h-25"/><path d="M3610 2208.75h-25"/><path d="M3610 2272.5h-25"/><path d="M3610 2336.25h-25"/><path d="M3610 2400h-25"/><path d="M3610 2463.75h-25"/><path d="M3610 2527.5h-25"/><path d="M3610 2591.25h-25"/><path d="M3610 2655h-50"/></g></g><use x="367.25" y="267.25" href="#c"/><use x="371.42" y="267.25" href="#e"/><use x="373.505" y="267.25" href="#c"/><use x="367.25" y="202.875" href="#g"/><use x="371.42" y="202.875" href="#e"/><use x="373.505" y="202.875" href="#d"/><use x="367.25" y="139.125" href="#d"/><use x="371.42" y="139.125" href="#e"/><use x="373.505" y="139.125" href="#c"/><use x="367.25" y="75.375" href="#h"/><use x="371.42" y="75.375" href="#e"/><use x="373.505" y="75.375" href="#d"/><use x="367.25" y="11.625" href="#f"/><use x="371.42" y="11.625" href="#c"/><use x="375.59" y="11.625" href="#e"/><use x="377.675" y="11.625" href="#c"/><g style="fill:none;stroke-width:6.25;stroke-linecap:round;stroke:#00f;stroke-miterlimit:10;transform:matrix(.1,0,0,-.1,0,274)"><path d="M277.34375 216.601562l35.3125-95.703124"/><path d="M312.65625 120.898438h0"/><path d="M273.789062 342.617188l42.421876-92.734376"/><path d="M316.210938 249.882812h0"/><path d="M269.53125 467.929688l50.9375-88.359376"/><path d="M320.46875 379.570312h0"/><path d="M264.765625 592.34375l60.46875-82.1875"/><path d="M325.234375 510.15625h0"/><path d="M260 715.820312l70-74.140624"/><path d="M330 641.679688h0"/><path d="M255.859375 838.945312l78.28125-65.390624"/><path d="M334.140625 773.554688h0"/><path d="M252.929688 962.539062l84.140624-57.578124"/><path d="M337.070312 904.960938h0"/><path d="M251.445312 1087.773438l87.109376-53.046876"/><path d="M338.554688 1034.726562h0"/><path d="M251.445312 1215.273438l87.109376-53.046876"/><path d="M338.554688 1162.226562h0"/><path d="M252.929688 1345.039062l84.140624-57.578124"/><path d="M337.070312 1287.460938h0"/><path d="M255.859375 1476.445312l78.28125-65.390624"/><path d="M334.140625 1411.054688h0"/><path d="M260 1608.359375l70-74.21875"/><path d="M330 1534.140625h0"/><path d="M264.765625 1739.84375l60.46875-82.1875"/><path d="M325.234375 1657.65625h0"/><path d="M269.53125 1870.429688l50.9375-88.359376"/><path d="M320.46875 1782.070312h0"/><path d="M273.789062 2000.117188l42.421876-92.734376"/><path d="M316.210938 1907.382812h0"/><path d="M277.34375 2129.101562l35.3125-95.703124"/><path d="M312.65625 2033.398438h0"/><path d="M280.234375 2257.578125l29.53125-97.65625"/><path d="M309.765625 2159.921875h0"/><path d="M282.578125 2385.703125l24.84375-98.90625"/><path d="M307.421875 2286.796875h0"/><path d="M284.453125 2513.632812l21.09375-99.765624"/><path d="M305.546875 2413.867188h0"/><path d="M285.976562 2641.445312l18.046876-100.390624"/><path d="M304.023438 2541.054688h0"/><path d="M447.34375 216.601562l35.3125-95.703124"/><path d="M482.65625 120.898438h0"/><path d="M443.789062 342.617188l42.421876-92.734376"/><path d="M486.210938 249.882812h0"/><path d="M439.53125 467.929688l50.9375-88.359376"/><path d="M490.46875 379.570312h0"/><path d="M434.765625 592.34375l60.46875-82.1875"/><path d="M495.234375 510.15625h0"/><path d="M430 715.820312l70-74.140624"/><path d="M500 641.679688h0"/><path d="M425.859375 838.945312l78.28125-65.390624"/><path d="M504.140625 773.554688h0"/><path d="M422.929688 962.539062l84.140624-57.578124"/><path d="M507.070312 904.960938h0"/><path d="M421.445312 1087.773438l87.109376-53.046876"/><path d="M508.554688 1034.726562h0"/><path d="M421.445312 1215.273438l87.109376-53.046876"/><path d="M508.554688 1162.226562h0"/><path d="M422.929688 1345.039062l84.140624-57.578124"/><path d="M507.070312 1287.460938h0"/><path d="M425.859375 1476.445312l78.28125-65.390624"/><path d="M504.140625 1411.054688h0"/><path d="M430 1608.359375l70-74.21875"/><path d="M500 1534.140625h0"/><path d="M434.765625 1739.84375l60.46875-82.1875"/><path d="M495.234375 1657.65625h0"/><path d="M439.53125 1870.429688l50.9375-88.359376"/><path d="M490.46875 1782.070312h0"/><path d="M443.789062 2000.117188l42.421876-92.734376"/><path d="M486.210938 1907.382812h0"/><path d="M447.34375 2129.101562l35.3125-95.703124"/><path d="M482.65625 2033.398438h0"/><path d="M450.234375 2257.578125l29.53125-97.65625"/><path d="M479.765625 2159.921875h0"/><path d="M452.578125 2385.703125l24.84375-98.90625"/><path d="M477.421875 2286.796875h0"/><path d="M454.453125 2513.632812l21.09375-99.765624"/><path d="M475.546875 2413.867188h0"/><path d="M455.976562 2641.445312l18.046876-100.390624"/><path d="M474.023438 2541.054688h0"/><path d="M617.34375 216.601562l35.3125-95.703124"/><path d="M652.65625 120.898438h0"/><path d="M613.789062 342.617188l42.421876-92.734376"/><path d="M656.210938 249.882812h0"/><path d="M609.53125 467.929688l50.9375-88.359376"/><path d="M660.46875 379.570312h0"/><path d="M604.765625 592.34375l60.46875-82.1875"/><path d="M665.234375 510.15625h0"/><path d="M600 715.820312l70-74.140624"/><path d="M670 641.679688h0"/><path d="M595.859375 838.945312l78.28125-65.390624"/><path d="M674.140625 773.554688h0"/><path d="M592.929688 962.539062l84.140624-57.578124"/><path d="M677.070312 904.960938h0"/><path d="M591.445312 1087.773438l87.109376-53.046876"/><path d="M678.554688 1034.726562h0"/><path d="M591.445312 1215.273438l87.109376-53.046876"/><path d="M678.554688 1162.226562h0"/><path d="M592.929688 1345.039062l84.140624-57.578124"/><path d="M677.070312 1287.460938h0"/><path d="M595.859375 1476.445312l78.28125-65.390624"/><path d="M674.140625 1411.054688h0"/><path d="M600 1608.359375l70-74.21875"/><path d="M670 1534.140625h0"/><path d="M604.765625 1739.84375l60.46875-82.1875"/><path d="M665.234375 1657.65625h0"/><path d="M609.53125 1870.429688l50.9375-88.359376"/><path d="M660.46875 1782.070312h0"/><path d="M613.789062 2000.117188l42.421876-92.734376"/><path d="M656.210938 1907.382812h0"/><path d="M617.34375 2129.101562l35.3125-95.703124"/><path d="M652.65625 2033.398438h0"/><path d="M620.234375 2257.578125l29.53125-97.65625"/><path d="M649.765625 2159.921875h0"/><path d="M622.578125 2385.703125l24.84375-98.90625"/><path d="M647.421875 2286.796875h0"/><path d="M624.453125 2513.632812l21.09375-99.765624"/><path d="M645.546875 2413.867188h0"/><path d="M625.976562 2641.445312l18.046876-100.390624"/><path d="M644.023438 2541.054688h0"/><path d="M787.34375 216.601562l35.3125-95.703124"/><path d="M822.65625 120.898438h0"/><path d="M783.789062 342.617188l42.421876-92.734376"/><path d="M826.210938 249.882812h0"/><path d="M779.53125 467.929688l50.9375-88.359376"/><path d="M830.46875 379.570312h0"/><path d="M774.765625 592.34375l60.46875-82.1875"/><path d="M835.234375 510.15625h0"/><path d="M770 715.820312l70-74.140624"/><path d="M840 641.679688h0"/><path d="M765.859375 838.945312l78.28125-65.390624"/><path d="M844.140625 773.554688h0"/><path d="M762.929688 962.539062l84.140624-57.578124"/><path d="M847.070312 904.960938h0"/><path d="M761.445312 1087.773438l87.109376-53.046876"/><path d="M848.554688 1034.726562h0"/><path d="M761.445312 1215.273438l87.109376-53.046876"/><path d="M848.554688 1162.226562h0"/><path d="M762.929688 1345.039062l84.140624-57.578124"/><path d="M847.070312 1287.460938h0"/><path d="M765.859375 1476.445312l78.28125-65.390624"/><path d="M844.140625 1411.054688h0"/><path d="M770 1608.359375l70-74.21875"/><path d="M840 1534.140625h0"/><path d="M774.765625 1739.84375l60.46875-82.1875"/><path d="M835.234375 1657.65625h0"/><path d="M779.53125 1870.429688l50.9375-88.359376"/><path d="M830.46875 1782.070312h0"/><path d="M783.789062 2000.117188l42.421876-92.734376"/><path d="M826.210938 1907.382812h0"/><path d="M787.34375 2129.101562l35.3125-95.703124"/><path d="M822.65625 2033.398438h0"/><path d="M790.234375 2257.578125l29.53125-97.65625"/><path d="M819.765625 2159.921875h0"/><path d="M792.578125 2385.703125l24.84375-98.90625"/><path d="M817.421875 2286.796875h0"/><path d="M794.453125 2513.632812l21.09375-99.765624"/><path d="M815.546875 2413.867188h0"/><path d="M795.976562 2641.445312l18.046876-100.390624"/><path d="M814.023438 2541.054688h0"/><path d="M957.34375 216.601562l35.3125-95.703124"/><path d="M992.65625 120.898438h0"/><path d="M953.789062 342.617188l42.421876-92.734376"/><path d="M996.210938 249.882812h0"/><path d="M949.53125 467.929688l50.9375-88.359376"/><path d="M1000.46875 379.570312h0"/><path d="M944.765625 592.34375l60.46875-82.1875"/><path d="M1005.234375 510.15625h0"/><path d="M940 715.820312l70-74.140624"/><path d="M1010 641.679688h0"/><path d="M935.859375 838.945312l78.28125-65.390624"/><path d="M1014.140625 773.554688h0"/><path d="M932.929688 962.539062l84.179687-57.578124"/><path d="M1017.109375 904.960938h0"/><path d="M931.445312 1087.773438l87.109376-53.046876"/><path d="M1018.554688 1034.726562h0"/><path d="M931.445312 1215.273438l87.109376-53.046876"/><path d="M1018.554688 1162.226562h0"/><path d="M932.929688 1345.039062l84.179687-57.578124"/><path d="M1017.109375 1287.460938h0"/><path d="M935.859375 1476.445312l78.28125-65.390624"/><path d="M1014.140625 1411.054688h0"/><path d="M940 1608.359375l70-74.21875"/><path d="M1010 1534.140625h0"/><path d="M944.765625 1739.84375l60.46875-82.1875"/><path d="M1005.234375 1657.65625h0"/><path d="M949.53125 1870.429688l50.9375-88.359376"/><path d="M1000.46875 1782.070312h0"/><path d="M953.789062 2000.117188l42.421876-92.734376"/><path d="M996.210938 1907.382812h0"/><path d="M957.34375 2129.101562l35.3125-95.703124"/><path d="M992.65625 2033.398438h0"/><path d="M960.234375 2257.578125l29.53125-97.65625"/><path d="M989.765625 2159.921875h0"/><path d="M962.578125 2385.703125l24.84375-98.90625"/><path d="M987.421875 2286.796875h0"/><path d="M964.453125 2513.632812l21.09375-99.765624"/><path d="M985.546875 2413.867188h0"/><path d="M965.976562 2641.445312l18.046876-100.390624"/><path d="M984.023438 2541.054688h0"/><path d="M1127.34375 216.601562l35.3125-95.703124"/><path d="M1162.65625 120.898438h0"/><path d="M1123.789062 342.617188l42.421876-92.734376"/><path d="M1166.210938 249.882812h0"/><path d="M1119.53125 467.929688l50.9375-88.359376"/><path d="M1170.46875 379.570312h0"/><path d="M1114.765625 592.34375l60.46875-82.1875"/><path d="M1175.234375 510.15625h0"/><path d="M1110 715.820312l70-74.140624"/><path d="M1180 641.679688h0"/><path d="M1105.859375 838.945312l78.28125-65.390624"/><path d="M1184.140625 773.554688h0"/><path d="M1102.890625 962.539062l84.21875-57.578124"/><path d="M1187.109375 904.960938h0"/><path d="M1101.445312 1087.773438l87.109376-53.046876"/><path d="M1188.554688 1034.726562h0"/><path d="M1101.445312 1215.273438l87.109376-53.046876"/><path d="M1188.554688 1162.226562h0"/><path d="M1102.890625 1345.039062l84.21875-57.578124"/><path d="M1187.109375 1287.460938h0"/><path d="M1105.859375 1476.445312l78.28125-65.390624"/><path d="M1184.140625 1411.054688h0"/><path d="M1110 1608.359375l70-74.21875"/><path d="M1180 1534.140625h0"/><path d="M1114.765625 1739.84375l60.46875-82.1875"/><path d="M1175.234375 1657.65625h0"/><path d="M1119.53125 1870.429688l50.9375-88.359376"/><path d="M1170.46875 1782.070312h0"/><path d="M1123.789062 2000.117188l42.421876-92.734376"/><path d="M1166.210938 1907.382812h0"/><path d="M1127.34375 2129.101562l35.3125-95.703124"/><path d="M1162.65625 2033.398438h0"/><path d="M1130.234375 2257.578125l29.53125-97.65625"/><path d="M1159.765625 2159.921875h0"/><path d="M1132.578125 2385.703125l24.84375-98.90625"/><path d="M1157.421875 2286.796875h0"/><path d="M1134.453125 2513.632812l21.09375-99.765624"/><path d="M1155.546875 2413.867188h0"/><path d="M1135.976562 2641.445312l18.046876-100.390624"/><path d="M1154.023438 2541.054688h0"/><path d="M1297.34375 216.601562l35.3125-95.703124"/><path d="M1332.65625 120.898438h0"/><path d="M1293.789062 342.617188l42.421876-92.734376"/><path d="M1336.210938 249.882812h0"/><path d="M1289.53125 467.929688l50.9375-88.359376"/><path d="M1340.46875 379.570312h0"/><path d="M1284.765625 592.34375l60.46875-82.1875"/><path d="M1345.234375 510.15625h0"/><path d="M1280 715.820312l70-74.140624"/><path d="M1350 641.679688h0"/><path d="M1275.859375 838.945312l78.28125-65.390624"/><path d="M1354.140625 773.554688h0"/><path d="M1272.890625 962.539062l84.21875-57.578124"/><path d="M1357.109375 904.960938h0"/><path d="M1271.445312 1087.773438l87.109376-53.046876"/><path d="M1358.554688 1034.726562h0"/><path d="M1271.445312 1215.273438l87.109376-53.046876"/><path d="M1358.554688 1162.226562h0"/><path d="M1272.890625 1345.039062l84.21875-57.578124"/><path d="M1357.109375 1287.460938h0"/><path d="M1275.859375 1476.445312l78.28125-65.390624"/><path d="M1354.140625 1411.054688h0"/><path d="M1280 1608.359375l70-74.21875"/><path d="M1350 1534.140625h0"/><path d="M1284.765625 1739.84375l60.46875-82.1875"/><path d="M1345.234375 1657.65625h0"/><path d="M1289.53125 1870.429688l50.9375-88.359376"/><path d="M1340.46875 1782.070312h0"/><path d="M1293.789062 2000.117188l42.421876-92.734376"/><path d="M1336.210938 1907.382812h0"/><path d="M1297.34375 2129.101562l35.3125-95.703124"/><path d="M1332.65625 2033.398438h0"/><path d="M1300.234375 2257.578125l29.53125-97.65625"/><path d="M1329.765625 2159.921875h0"/><path d="M1302.578125 2385.703125l24.84375-98.90625"/><path d="M1327.421875 2286.796875h0"/><path d="M1304.453125 2513.632812l21.09375-99.765624"/><path d="M1325.546875 2413.867188h0"/><path d="M1305.976562 2641.445312l18.046876-100.390624"/><path d="M1324.023438 2541.054688h0"/><path d="M1467.34375 216.601562l35.3125-95.703124"/><path d="M1502.65625 120.898438h0"/><path d="M1463.789062 342.617188l42.421876-92.734376"/><path d="M1506.210938 249.882812h0"/><path d="M1459.53125 467.929688l50.9375-88.359376"/><path d="M1510.46875 379.570312h0"/><path d="M1454.765625 592.34375l60.46875-82.1875"/><path d="M1515.234375 510.15625h0"/><path d="M1450 715.820312l70-74.140624"/><path d="M1520 641.679688h0"/><path d="M1445.859375 838.945312l78.28125-65.390624"/><path d="M1524.140625 773.554688h0"/><path d="M1442.890625 962.539062l84.21875-57.578124"/><path d="M1527.109375 904.960938h0"/><path d="M1441.445312 1087.773438l87.109376-53.046876"/><path d="M1528.554688 1034.726562h0"/><path d="M1441.445312 1215.273438l87.109376-53.046876"/><path d="M1528.554688 1162.226562h0"/><path d="M1442.890625 1345.039062l84.21875-57.578124"/><path d="M1527.109375 1287.460938h0"/><path d="M1445.859375 1476.445312l78.28125-65.390624"/><path d="M1524.140625 1411.054688h0"/><path d="M1450 1608.359375l70-74.21875"/><path d="M1520 1534.140625h0"/><path d="M1454.765625 1739.84375l60.46875-82.1875"/><path d="M1515.234375 1657.65625h0"/><path d="M1459.53125 1870.429688l50.9375-88.359376"/><path d="M1510.46875 1782.070312h0"/><path d="M1463.789062 2000.117188l42.421876-92.734376"/><path d="M1506.210938 1907.382812h0"/><path d="M1467.34375 2129.101562l35.3125-95.703124"/><path d="M1502.65625 2033.398438h0"/><path d="M1470.234375 2257.578125l29.53125-97.65625"/><path d="M1499.765625 2159.921875h0"/><path d="M1472.578125 2385.703125l24.84375-98.90625"/><path d="M1497.421875 2286.796875h0"/><path d="M1474.453125 2513.632812l21.09375-99.765624"/><path d="M1495.546875 2413.867188h0"/><path d="M1475.976562 2641.445312l18.046876-100.390624"/><path d="M1494.023438 2541.054688h0"/><path d="M1637.34375 216.601562l35.3125-95.703124"/><path d="M1672.65625 120.898438h0"/><path d="M1633.789062 342.617188l42.421876-92.734376"/><path d="M1676.210938 249.882812h0"/><path d="M1629.53125 467.929688l50.9375-88.359376"/><path d="M1680.46875 379.570312h0"/><path d="M1624.765625 592.34375l60.46875-82.1875"/><path d="M1685.234375 510.15625h0"/><path d="M1620 715.820312l70-74.140624"/><path d="M1690 641.679688h0"/><path d="M1615.859375 838.945312l78.28125-65.390624"/><path d="M1694.140625 773.554688h0"/><path d="M1612.890625 962.539062l84.21875-57.578124"/><path d="M1697.109375 904.960938h0"/><path d="M1611.445312 1087.773438l87.109376-53.046876"/><path d="M1698.554688 1034.726562h0"/><path d="M1611.445312 1215.273438l87.109376-53.046876"/><path d="M1698.554688 1162.226562h0"/><path d="M1612.890625 1345.039062l84.21875-57.578124"/><path d="M1697.109375 1287.460938h0"/><path d="M1615.859375 1476.445312l78.28125-65.390624"/><path d="M1694.140625 1411.054688h0"/><path d="M1620 1608.359375l70-74.21875"/><path d="M1690 1534.140625h0"/><path d="M1624.765625 1739.84375l60.46875-82.1875"/><path d="M1685.234375 1657.65625h0"/><path d="M1629.53125 1870.429688l50.9375-88.359376"/><path d="M1680.46875 1782.070312h0"/><path d="M1633.789062 2000.117188l42.421876-92.734376"/><path d="M1676.210938 1907.382812h0"/><path d="M1637.34375 2129.101562l35.3125-95.703124"/><path d="M1672.65625 2033.398438h0"/><path d="M1640.234375 2257.578125l29.53125-97.65625"/><path d="M1669.765625 2159.921875h0"/><path d="M1642.578125 2385.703125l24.84375-98.90625"/><path d="M1667.421875 2286.796875h0"/><path d="M1644.453125 2513.632812l21.09375-99.765624"/><path d="M1665.546875 2413.867188h0"/><path d="M1645.976562 2641.445312l18.046876-100.390624"/><path d="M1664.023438 2541.054688h0"/><path d="M1807.34375 216.601562l35.3125-95.703124"/><path d="M1842.65625 120.898438h0"/><path d="M1803.789062 342.617188l42.421876-92.734376"/><path d="M1846.210938 249.882812h0"/><path d="M1799.53125 467.929688l50.9375-88.359376"/><path d="M1850.46875 379.570312h0"/><path d="M1794.765625 592.34375l60.46875-82.1875"/><path d="M1855.234375 510.15625h0"/><path d="M1790 715.820312l70-74.140624"/><path d="M1860 641.679688h0"/><path d="M1785.859375 838.945312l78.28125-65.390624"/><path d="M1864.140625 773.554688h0"/><path d="M1782.890625 962.539062l84.21875-57.578124"/><path d="M1867.109375 904.960938h0"/><path d="M1781.445312 1087.773438l87.109376-53.046876"/><path d="M1868.554688 1034.726562h0"/><path d="M1781.445312 1215.273438l87.109376-53.046876"/><path d="M1868.554688 1162.226562h0"/><path d="M1782.890625 1345.039062l84.21875-57.578124"/><path d="M1867.109375 1287.460938h0"/><path d="M1785.859375 1476.445312l78.28125-65.390624"/><path d="M1864.140625 1411.054688h0"/><path d="M1790 1608.359375l70-74.21875"/><path d="M1860 1534.140625h0"/><path d="M1794.765625 1739.84375l60.46875-82.1875"/><path d="M1855.234375 1657.65625h0"/><path d="M1799.53125 1870.429688l50.9375-88.359376"/><path d="M1850.46875 1782.070312h0"/><path d="M1803.789062 2000.117188l42.421876-92.734376"/><path d="M1846.210938 1907.382812h0"/><path d="M1807.34375 2129.101562l35.3125-95.703124"/><path d="M1842.65625 2033.398438h0"/><path d="M1810.234375 2257.578125l29.53125-97.65625"/><path d="M1839.765625 2159.921875h0"/><path d="M1812.578125 2385.703125l24.84375-98.90625"/><path d="M1837.421875 2286.796875h0"/><path d="M1814.453125 2513.632812l21.09375-99.765624"/><path d="M1835.546875 2413.867188h0"/><path d="M1815.976562 2641.445312l18.046876-100.390624"/><path d="M1834.023438 2541.054688h0"/><path d="M1977.34375 216.601562l35.3125-95.703124"/><path d="M2012.65625 120.898438h0"/><path d="M1973.789062 342.617188l42.421876-92.734376"/><path d="M2016.210938 249.882812h0"/><path d="M1969.53125 467.929688l50.9375-88.359376"/><path d="M2020.46875 379.570312h0"/><path d="M1964.765625 592.34375l60.46875-82.1875"/><path d="M2025.234375 510.15625h0"/><path d="M1960 715.820312l70-74.140624"/><path d="M2030 641.679688h0"/><path d="M1955.859375 838.945312l78.28125-65.390624"/><path d="M2034.140625 773.554688h0"/><path d="M1952.890625 962.539062l84.21875-57.578124"/><path d="M2037.109375 904.960938h0"/><path d="M1951.445312 1087.773438l87.109376-53.046876"/><path d="M2038.554688 1034.726562h0"/><path d="M1951.445312 1215.273438l87.109376-53.046876"/><path d="M2038.554688 1162.226562h0"/><path d="M1952.890625 1345.039062l84.21875-57.578124"/><path d="M2037.109375 1287.460938h0"/><path d="M1955.859375 1476.445312l78.28125-65.390624"/><path d="M2034.140625 1411.054688h0"/><path d="M1960 1608.359375l70-74.21875"/><path d="M2030 1534.140625h0"/><path d="M1964.765625 1739.84375l60.46875-82.1875"/><path d="M2025.234375 1657.65625h0"/><path d="M1969.53125 1870.429688l50.9375-88.359376"/><path d="M2020.46875 1782.070312h0"/><path d="M1973.789062 2000.117188l42.421876-92.734376"/><path d="M2016.210938 1907.382812h0"/><path d="M1977.34375 2129.101562l35.3125-95.703124"/><path d="M2012.65625 2033.398438h0"/><path d="M1980.234375 2257.578125l29.53125-97.65625"/><path d="M2009.765625 2159.921875h0"/><path d="M1982.578125 2385.703125l24.84375-98.90625"/><path d="M2007.421875 2286.796875h0"/><path d="M1984.453125 2513.632812l21.09375-99.765624"/><path d="M2005.546875 2413.867188h0"/><path d="M1985.976562 2641.445312l18.046876-100.390624"/><path d="M2004.023438 2541.054688h0"/><path d="M2147.34375 216.601562l35.3125-95.703124"/><path d="M2182.65625 120.898438h0"/><path d="M2143.789062 342.617188l42.421876-92.734376"/><path d="M2186.210938 249.882812h0"/><path d="M2139.53125 467.929688l50.9375-88.359376"/><path d="M2190.46875 379.570312h0"/><path d="M2134.765625 592.34375l60.46875-82.1875"/><path d="M2195.234375 510.15625h0"/><path d="M2130 715.820312l70-74.140624"/><path d="M2200 641.679688h0"/><path d="M2125.859375 838.945312l78.28125-65.390624"/><path d="M2204.140625 773.554688h0"/><path d="M2122.890625 962.539062l84.21875-57.578124"/><path d="M2207.109375 904.960938h0"/><path d="M2121.445312 1087.773438l87.109376-53.046876"/><path d="M2208.554688 1034.726562h0"/><path d="M2121.445312 1215.273438l87.109376-53.046876"/><path d="M2208.554688 1162.226562h0"/><path d="M2122.890625 1345.039062l84.21875-57.578124"/><path d="M2207.109375 1287.460938h0"/><path d="M2125.859375 1476.445312l78.28125-65.390624"/><path d="M2204.140625 1411.054688h0"/><path d="M2130 1608.359375l70-74.21875"/><path d="M2200 1534.140625h0"/><path d="M2134.765625 1739.84375l60.46875-82.1875"/><path d="M2195.234375 1657.65625h0"/><path d="M2139.53125 1870.429688l50.9375-88.359376"/><path d="M2190.46875 1782.070312h0"/><path d="M2143.789062 2000.117188l42.421876-92.734376"/><path d="M2186.210938 1907.382812h0"/><path d="M2147.34375 2129.101562l35.3125-95.703124"/><path d="M2182.65625 2033.398438h0"/><path d="M2150.234375 2257.578125l29.53125-97.65625"/><path d="M2179.765625 2159.921875h0"/><path d="M2152.578125 2385.703125l24.84375-98.90625"/><path d="M2177.421875 2286.796875h0"/><path d="M2154.453125 2513.632812l21.09375-99.765624"/><path d="M2175.546875 2413.867188h0"/><path d="M2155.976562 2641.445312l18.046876-100.390624"/><path d="M2174.023438 2541.054688h0"/><path d="M2317.34375 216.601562l35.3125-95.703124"/><path d="M2352.65625 120.898438h0"/><path d="M2313.789062 342.617188l42.421876-92.734376"/><path d="M2356.210938 249.882812h0"/><path d="M2309.53125 467.929688l50.9375-88.359376"/><path d="M2360.46875 379.570312h0"/><path d="M2304.765625 592.34375l60.46875-82.1875"/><path d="M2365.234375 510.15625h0"/><path d="M2300 715.820312l70-74.140624"/><path d="M2370 641.679688h0"/><path d="M2295.859375 838.945312l78.28125-65.390624"/><path d="M2374.140625 773.554688h0"/><path d="M2292.890625 962.539062l84.21875-57.578124"/><path d="M2377.109375 904.960938h0"/><path d="M2291.445312 1087.773438l87.109376-53.046876"/><path d="M2378.554688 1034.726562h0"/><path d="M2291.445312 1215.273438l87.109376-53.046876"/><path d="M2378.554688 1162.226562h0"/><path d="M2292.890625 1345.039062l84.21875-57.578124"/><path d="M2377.109375 1287.460938h0"/><path d="M2295.859375 1476.445312l78.28125-65.390624"/><path d="M2374.140625 1411.054688h0"/><path d="M2300 1608.359375l70-74.21875"/><path d="M2370 1534.140625h0"/><path d="M2304.765625 1739.84375l60.46875-82.1875"/><path d="M2365.234375 1657.65625h0"/><path d="M2309.53125 1870.429688l50.9375-88.359376"/><path d="M2360.46875 1782.070312h0"/><path d="M2313.789062 2000.117188l42.421876-92.734376"/><path d="M2356.210938 1907.382812h0"/><path d="M2317.34375 2129.101562l35.3125-95.703124"/><path d="M2352.65625 2033.398438h0"/><path d="M2320.234375 2257.578125l29.53125-97.65625"/><path d="M2349.765625 2159.921875h0"/><path d="M2322.578125 2385.703125l24.84375-98.90625"/><path d="M2347.421875 2286.796875h0"/><path d="M2324.453125 2513.632812l21.09375-99.765624"/><path d="M2345.546875 2413.867188h0"/><path d="M2325.976562 2641.445312l18.046876-100.390624"/><path d="M2344.023438 2541.054688h0"/><path d="M2487.34375 216.601562l35.3125-95.703124"/><path d="M2522.65625 120.898438h0"/><path d="M2483.789062 342.617188l42.421876-92.734376"/><path d="M2526.210938 249.882812h0"/><path d="M2479.53125 467.929688l50.9375-88.359376"/><path d="M2530.46875 379.570312h0"/><path d="M2474.765625 592.34375l60.46875-82.1875"/><path d="M2535.234375 510.15625h0"/><path d="M2470 715.820312l70-74.140624"/><path d="M2540 641.679688h0"/><path d="M2465.859375 838.945312l78.28125-65.390624"/><path d="M2544.140625 773.554688h0"/><path d="M2462.890625 962.539062l84.21875-57.578124"/><path d="M2547.109375 904.960938h0"/><path d="M2461.445312 1087.773438l87.109376-53.046876"/><path d="M2548.554688 1034.726562h0"/><path d="M2461.445312 1215.273438l87.109376-53.046876"/><path d="M2548.554688 1162.226562h0"/><path d="M2462.890625 1345.039062l84.21875-57.578124"/><path d="M2547.109375 1287.460938h0"/><path d="M2465.859375 1476.445312l78.28125-65.390624"/><path d="M2544.140625 1411.054688h0"/><path d="M2470 1608.359375l70-74.21875"/><path d="M2540 1534.140625h0"/><path d="M2474.765625 1739.84375l60.46875-82.1875"/><path d="M2535.234375 1657.65625h0"/><path d="M2479.53125 1870.429688l50.9375-88.359376"/><path d="M2530.46875 1782.070312h0"/><path d="M2483.789062 2000.117188l42.421876-92.734376"/><path d="M2526.210938 1907.382812h0"/><path d="M2487.34375 2129.101562l35.3125-95.703124"/><path d="M2522.65625 2033.398438h0"/><path d="M2490.234375 2257.578125l29.53125-97.65625"/><path d="M2519.765625 2159.921875h0"/><path d="M2492.578125 2385.703125l24.84375-98.90625"/><path d="M2517.421875 2286.796875h0"/><path d="M2494.453125 2513.632812l21.09375-99.765624"/><path d="M2515.546875 2413.867188h0"/><path d="M2495.976562 2641.445312l18.046876-100.390624"/><path d="M2514.023438 2541.054688h0"/><path d="M2657.34375 216.601562l35.3125-95.703124"/><path d="M2692.65625 120.898438h0"/><path d="M2653.789062 342.617188l42.421876-92.734376"/><path d="M2696.210938 249.882812h0"/><path d="M2649.53125 467.929688l50.9375-88.359376"/><path d="M2700.46875 379.570312h0"/><path d="M2644.765625 592.34375l60.46875-82.1875"/><path d="M2705.234375 510.15625h0"/><path d="M2640 715.820312l70-74.140624"/><path d="M2710 641.679688h0"/><path d="M2635.859375 838.945312l78.28125-65.390624"/><path d="M2714.140625 773.554688h0"/><path d="M2632.890625 962.539062l84.21875-57.578124"/><path d="M2717.109375 904.960938h0"/><path d="M2631.445312 1087.773438l87.109376-53.046876"/><path d="M2718.554688 1034.726562h0"/><path d="M2631.445312 1215.273438l87.109376-53.046876"/><path d="M2718.554688 1162.226562h0"/><path d="M2632.890625 1345.039062l84.21875-57.578124"/><path d="M2717.109375 1287.460938h0"/><path d="M2635.859375 1476.445312l78.28125-65.390624"/><path d="M2714.140625 1411.054688h0"/><path d="M2640 1608.359375l70-74.21875"/><path d="M2710 1534.140625h0"/><path d="M2644.765625 1739.84375l60.46875-82.1875"/><path d="M2705.234375 1657.65625h0"/><path d="M2649.53125 1870.429688l50.9375-88.359376"/><path d="M2700.46875 1782.070312h0"/><path d="M2653.789062 2000.117188l42.421876-92.734376"/><path d="M2696.210938 1907.382812h0"/><path d="M2657.34375 2129.101562l35.3125-95.703124"/><path d="M2692.65625 2033.398438h0"/><path d="M2660.234375 2257.578125l29.53125-97.65625"/><path d="M2689.765625 2159.921875h0"/><path d="M2662.578125 2385.703125l24.84375-98.90625"/><path d="M2687.421875 2286.796875h0"/><path d="M2664.453125 2513.632812l21.09375-99.765624"/><path d="M2685.546875 2413.867188h0"/><path d="M2665.976562 2641.445312l18.046876-100.390624"/><path d="M2684.023438 2541.054688h0"/><path d="M2827.34375 216.601562l35.3125-95.703124"/><path d="M2862.65625 120.898438h0"/><path d="M2823.789062 342.617188l42.421876-92.734376"/><path d="M2866.210938 249.882812h0"/><path d="M2819.53125 467.929688l50.9375-88.359376"/><path d="M2870.46875 379.570312h0"/><path d="M2814.765625 592.34375l60.46875-82.1875"/><path d="M2875.234375 510.15625h0"/><path d="M2810 715.820312l70-74.140624"/><path d="M2880 641.679688h0"/><path d="M2805.859375 838.945312l78.28125-65.390624"/><path d="M2884.140625 773.554688h0"/><path d="M2802.890625 962.539062l84.21875-57.578124"/><path d="M2887.109375 904.960938h0"/><path d="M2801.445312 1087.773438l87.109376-53.046876"/><path d="M2888.554688 1034.726562h0"/><path d="M2801.445312 1215.273438l87.109376-53.046876"/><path d="M2888.554688 1162.226562h0"/><path d="M2802.890625 1345.039062l84.21875-57.578124"/><path d="M2887.109375 1287.460938h0"/><path d="M2805.859375 1476.445312l78.28125-65.390624"/><path d="M2884.140625 1411.054688h0"/><path d="M2810 1608.359375l70-74.21875"/><path d="M2880 1534.140625h0"/><path d="M2814.765625 1739.84375l60.46875-82.1875"/><path d="M2875.234375 1657.65625h0"/><path d="M2819.53125 1870.429688l50.9375-88.359376"/><path d="M2870.46875 1782.070312h0"/><path d="M2823.789062 2000.117188l42.421876-92.734376"/><path d="M2866.210938 1907.382812h0"/><path d="M2827.34375 2129.101562l35.3125-95.703124"/><path d="M2862.65625 2033.398438h0"/><path d="M2830.234375 2257.578125l29.53125-97.65625"/><path d="M2859.765625 2159.921875h0"/><path d="M2832.578125 2385.703125l24.84375-98.90625"/><path d="M2857.421875 2286.796875h0"/><path d="M2834.453125 2513.632812l21.09375-99.765624"/><path d="M2855.546875 2413.867188h0"/><path d="M2835.976562 2641.445312l18.046876-100.390624"/><path d="M2854.023438 2541.054688h0"/><path d="M2997.34375 216.601562l35.3125-95.703124"/><path d="M3032.65625 120.898438h0"/><path d="M2993.789062 342.617188l42.421876-92.734376"/><path d="M3036.210938 249.882812h0"/><path d="M2989.53125 467.929688l50.9375-88.359376"/><path d="M3040.46875 379.570312h0"/><path d="M2984.765625 592.34375l60.46875-82.1875"/><path d="M3045.234375 510.15625h0"/><path d="M2980 715.820312l70-74.140624"/><path d="M3050 641.679688h0"/><path d="M2975.859375 838.945312l78.28125-65.390624"/><path d="M3054.140625 773.554688h0"/><path d="M2972.890625 962.539062l84.21875-57.578124"/><path d="M3057.109375 904.960938h0"/><path d="M2971.445312 1087.773438l87.109376-53.046876"/><path d="M3058.554688 1034.726562h0"/><path d="M2971.445312 1215.273438l87.109376-53.046876"/><path d="M3058.554688 1162.226562h0"/><path d="M2972.890625 1345.039062l84.21875-57.578124"/><path d="M3057.109375 1287.460938h0"/><path d="M2975.859375 1476.445312l78.28125-65.390624"/><path d="M3054.140625 1411.054688h0"/><path d="M2980 1608.359375l70-74.21875"/><path d="M3050 1534.140625h0"/><path d="M2984.765625 1739.84375l60.46875-82.1875"/><path d="M3045.234375 1657.65625h0"/><path d="M2989.53125 1870.429688l50.9375-88.359376"/><path d="M3040.46875 1782.070312h0"/><path d="M2993.789062 2000.117188l42.421876-92.734376"/><path d="M3036.210938 1907.382812h0"/><path d="M2997.34375 2129.101562l35.3125-95.703124"/><path d="M3032.65625 2033.398438h0"/><path d="M3000.234375 2257.578125l29.53125-97.65625"/><path d="M3029.765625 2159.921875h0"/><path d="M3002.578125 2385.703125l24.84375-98.90625"/><path d="M3027.421875 2286.796875h0"/><path d="M3004.453125 2513.632812l21.09375-99.765624"/><path d="M3025.546875 2413.867188h0"/><path d="M3005.976562 2641.445312l18.046876-100.390624"/><path d="M3024.023438 2541.054688h0"/><path d="M3167.34375 216.601562l35.3125-95.703124"/><path d="M3202.65625 120.898438h0"/><path d="M3163.789062 342.617188l42.421876-92.734376"/><path d="M3206.210938 249.882812h0"/><path d="M3159.53125 467.929688l50.9375-88.359376"/><path d="M3210.46875 379.570312h0"/><path d="M3154.765625 592.34375l60.46875-82.1875"/><path d="M3215.234375 510.15625h0"/><path d="M3150 715.820312l70-74.140624"/><path d="M3220 641.679688h0"/><path d="M3145.859375 838.945312l78.28125-65.390624"/><path d="M3224.140625 773.554688h0"/><path d="M3142.890625 962.539062l84.21875-57.578124"/><path d="M3227.109375 904.960938h0"/><path d="M3141.445312 1087.773438l87.109376-53.046876"/><path d="M3228.554688 1034.726562h0"/><path d="M3141.445312 1215.273438l87.109376-53.046876"/><path d="M3228.554688 1162.226562h0"/><path d="M3142.890625 1345.039062l84.21875-57.578124"/><path d="M3227.109375 1287.460938h0"/><path d="M3145.859375 1476.445312l78.28125-65.390624"/><path d="M3224.140625 1411.054688h0"/><path d="M3150 1608.359375l70-74.21875"/><path d="M3220 1534.140625h0"/><path d="M3154.765625 1739.84375l60.46875-82.1875"/><path d="M3215.234375 1657.65625h0"/><path d="M3159.53125 1870.429688l50.9375-88.359376"/><path d="M3210.46875 1782.070312h0"/><path d="M3163.789062 2000.117188l42.421876-92.734376"/><path d="M3206.210938 1907.382812h0"/><path d="M3167.34375 2129.101562l35.3125-95.703124"/><path d="M3202.65625 2033.398438h0"/><path d="M3170.234375 2257.578125l29.53125-97.65625"/><path d="M3199.765625 2159.921875h0"/><path d="M3172.578125 2385.703125l24.84375-98.90625"/><path d="M3197.421875 2286.796875h0"/><path d="M3174.453125 2513.632812l21.09375-99.765624"/><path d="M3195.546875 2413.867188h0"/><path d="M3175.976562 2641.445312l18.046876-100.390624"/><path d="M3194.023438 2541.054688h0"/><path d="M3337.34375 216.601562l35.3125-95.703124"/><path d="M3372.65625 120.898438h0"/><path d="M3333.789062 342.617188l42.421876-92.734376"/><path d="M3376.210938 249.882812h0"/><path d="M3329.53125 467.929688l50.9375-88.359376"/><path d="M3380.46875 379.570312h0"/><path d="M3324.765625 592.34375l60.46875-82.1875"/><path d="M3385.234375 510.15625h0"/><path d="M3320 715.820312l70-74.140624"/><path d="M3390 641.679688h0"/><path d="M3315.859375 838.945312l78.28125-65.390624"/><path d="M3394.140625 773.554688h0"/><path d="M3312.890625 962.539062l84.21875-57.578124"/><path d="M3397.109375 904.960938h0"/><path d="M3311.445312 1087.773438l87.109376-53.046876"/><path d="M3398.554688 1034.726562h0"/><path d="M3311.445312 1215.273438l87.109376-53.046876"/><path d="M3398.554688 1162.226562h0"/><path d="M3312.890625 1345.039062l84.21875-57.578124"/><path d="M3397.109375 1287.460938h0"/><path d="M3315.859375 1476.445312l78.28125-65.390624"/><path d="M3394.140625 1411.054688h0"/><path d="M3320 1608.359375l70-74.21875"/><path d="M3390 1534.140625h0"/><path d="M3324.765625 1739.84375l60.46875-82.1875"/><path d="M3385.234375 1657.65625h0"/><path d="M3329.53125 1870.429688l50.9375-88.359376"/><path d="M3380.46875 1782.070312h0"/><path d="M3333.789062 2000.117188l42.421876-92.734376"/><path d="M3376.210938 1907.382812h0"/><path d="M3337.34375 2129.101562l35.3125-95.703124"/><path d="M3372.65625 2033.398438h0"/><path d="M3340.234375 2257.578125l29.53125-97.65625"/><path d="M3369.765625 2159.921875h0"/><path d="M3342.578125 2385.703125l24.84375-98.90625"/><path d="M3367.421875 2286.796875h0"/><path d="M3344.453125 2513.632812l21.09375-99.765624"/><path d="M3365.546875 2413.867188h0"/><path d="M3345.976562 2641.445312l18.046876-100.390624"/><path d="M3364.023438 2541.054688h0"/><path d="M3507.34375 216.601562l35.3125-95.703124"/><path d="M3542.65625 120.898438h0"/><path d="M3503.789062 342.617188l42.421876-92.734376"/><path d="M3546.210938 249.882812h0"/><path d="M3499.53125 467.929688l50.9375-88.359376"/><path d="M3550.46875 379.570312h0"/><path d="M3494.765625 592.34375l60.46875-82.1875"/><path d="M3555.234375 510.15625h0"/><path d="M3490 715.820312l70-74.140624"/><path d="M3560 641.679688h0"/><path d="M3485.859375 838.945312l78.28125-65.390624"/><path d="M3564.140625 773.554688h0"/><path d="M3482.890625 962.539062l84.21875-57.578124"/><path d="M3567.109375 904.960938h0"/><path d="M3481.445312 1087.773438l87.109376-53.046876"/><path d="M3568.554688 1034.726562h0"/><path d="M3481.445312 1215.273438l87.109376-53.046876"/><path d="M3568.554688 1162.226562h0"/><path d="M3482.890625 1345.039062l84.21875-57.578124"/><path d="M3567.109375 1287.460938h0"/><path d="M3485.859375 1476.445312l78.28125-65.390624"/><path d="M3564.140625 1411.054688h0"/><path d="M3490 1608.359375l70-74.21875"/><path d="M3560 1534.140625h0"/><path d="M3494.765625 1739.84375l60.46875-82.1875"/><path d="M3555.234375 1657.65625h0"/><path d="M3499.53125 1870.429688l50.9375-88.359376"/><path d="M3550.46875 1782.070312h0"/><path d="M3503.789062 2000.117188l42.421876-92.734376"/><path d="M3546.210938 1907.382812h0"/><path d="M3507.34375 2129.101562l35.3125-95.703124"/><path d="M3542.65625 2033.398438h0"/><path d="M3510.234375 2257.578125l29.53125-97.65625"/><path d="M3539.765625 2159.921875h0"/><path d="M3512.578125 2385.703125l24.84375-98.90625"/><path d="M3537.421875 2286.796875h0"/><path d="M3514.453125 2513.632812l21.09375-99.765624"/><path d="M3535.546875 2413.867188h0"/><path d="M3515.976562 2641.445312l18.046876-100.390624"/><path d="M3534.023438 2541.054688h0"/></g><g clip-path="url(#u)"><path d="M210 2642.265625l33.984375-179.6875 34.023437-145.546875 33.984376-120.625 34.023437-101.914062 33.984375-87.5 33.984375-76.210938 34.023437-67.109375 33.984376-59.765625 34.023437-53.710938L550 1701.484375l33.984375-44.453125 34.023437-40.9375 33.984376-37.851562 34.023437-35.273438L720 1509.921875l33.984375-31.09375 34.023437-29.414063 33.984376-27.96875 34.023437-26.679687L890 1369.179688l33.984375-24.648438 34.023437-23.75 33.984376-23.085938 34.023437-22.421874L1060 1253.359375l33.984375-21.523437 34.023437-21.09375 33.984376-20.859376 34.023437-20.625L1230 1148.75l33.984375-20.429688 34.023437-20.390624 33.984376-20.46875 34.023437-20.585938L1400 1046.09375l33.984375-21.015625 34.023437-21.367187 33.984376-21.757813 34.023437-22.265625L1570 936.835938l33.984375-23.554688 34.023437-24.335938 33.984376-25.234374 34.023437-26.328126 33.984375-27.5 33.984375-28.945312 34.023437-30.507812 33.984376-32.382813 34.023437-34.492187L1910 646.5625l33.984375-39.882812 34.023437-43.242188 33.984376-47.226562 34.023437-51.992188L2080 406.5625l33.984375-64.53125 34.023437-73.007812 33.984376-83.554688 34.023437-96.796875" class="e"/></g><g clip-path="url(#v)"><path d="M210 870l33.984375-26.054688 34.023437-27.1875 33.984376-28.554687 34.023437-30.117187L380 726.210938l33.984375-33.984376 34.023437-36.328124 33.984376-39.101563 34.023437-42.382813L550 528.203125l33.984375-50.742187 34.023437-56.132813 33.984376-62.734375 34.023437-70.78125L720 207.109375l33.984375-93.242187L788.007812 4.53125" class="e"/></g><g clip-path="url(#w)"><path d="M1761.25 2732.890625l33.984375-198.28125 34.023437-158.75 33.984376-130.390625 34.023437-109.335938 33.984375-93.242187 33.984375-80.703125 34.023437-70.78125 33.984376-62.734375 34.023437-56.132813 33.984375-50.742187 33.984375-46.210937 34.023437-42.382813 33.984376-39.101563 34.023437-36.328124 33.984375-33.984376 33.984375-31.875 34.023437-30.117187 33.984376-28.554687 34.023437-27.1875L2441.25 1380l33.984375-25 34.023437-24.140625L2543.242188 1307.5l34.023437-22.695312L2611.25 1262.65625l33.984375-21.640625 34.023437-21.289063 33.984376-20.9375 34.023437-20.742187L2781.25 1157.5l33.984375-20.429688 34.023437-20.429687 33.984376-20.429687 34.023437-20.507813 33.984375-20.664063 33.984375-20.9375 34.023437-21.210937 33.984376-21.5625 34.023437-22.070313L3121.25 946.679688l33.984375-23.242188 34.023437-23.945312 33.984376-24.84375 34.023437-25.859376L3291.25 821.796875l33.984375-28.28125 34.023437-29.804687 33.984376-31.5625 34.023437-33.554688L3461.25 662.734375l33.984375-38.59375 34.023437-41.71875 33.984376-45.46875 34.023437-49.84375L3631.25 432.03125" class="e"/></g><style>.a{fill:none;stroke:#bfbfbf;stroke-dasharray:12.5,18.75;stroke-linecap:round;stroke-miterlimit:10;stroke-width:6.25;transform:matrix(.1,0,0,-.1,0,274)}.b{fill:none;stroke:#000;stroke-miterlimit:10;transform:matrix(.1,0,0,-.1,0,274)}.c{stroke-linecap:square;stroke-width:12.5}.d{stroke-width:6.25}.e{fill:none;stroke:red;stroke-linecap:round;stroke-linejoin:round;stroke-miterlimit:10;stroke-width:12.5;transform:matrix(.1,0,0,-.1,0,274)}.f{fill:none;stroke:#bfbfbf;stroke-linecap:round;stroke-miterlimit:10;stroke-width:6.25;transform:matrix(.1,0,0,-.1,0,274)}</style></svg>