<svg xmlns="http://www.w3.org/2000/svg" width="46pt" height="100pt" viewBox="0 0 46 100"><defs><path d="M5.35938-.9375l-.09375-.2344c-.4375.359375-.734375.53125-.921875.53125-.1875 0-.34375-.109375-.453125-.34375-.109375-.234375-.25-.671875-.3125-1.03125L3.375-3.2187l.42188-.5781c.546875-.78125.875-1.0625 1.25-1.0625.1875 0 .328125.109375.390625.28125L5.60938-4.625l.17188-1.0156c-.140625-.078125-.25-.125-.359375-.125-.46875 0-.953125.4375-1.6875 1.53125l-.45312.6563-.0625-.5625c-.140625-1.1875-.46875-1.625-1.171875-1.625-.3125 0-.578125.09375-.6875.25l-.6875 1L.875-4.4062c.359375-.40625.59375-.5625.828125-.5625.390625 0 .65625.484375.859375 1.65625l.125.75-.46875.7344c-.515625.796875-.921875 1.1875-1.265625 1.1875C.78125-.640625.640625-.6875.625-.75l-.14062-.3437L.25-1.0469c0 .2344-.015625.39065-.09375.76565C.125-.125.125-.09375.109375-.015625.28125.078125.484375.125.625.125c.390625 0 .859375-.34375 1.234375-.90625l.90625-1.3906.125.8281C3.0625-.328125 3.328125.125 3.75.125c.265625 0 .65625-.203125 1.03125-.546875zm0 0" id="a"/><path d="M.78125-4.1406h6.4375v-.7187H.78125zm0 2.5313h6.4375v-.7032H.78125zm0 0" id="b"/><path d="M5.48438-3.0312c0-1.34375-.96875-2.296875-2.328125-2.296875-.578125 0-1 .15625-1.75.59375l.10938-2.5 3.64063.0625.0625-.0625c-.015625-.21875-.015625-.28125-.015625-.46875 0-.1875 0-.25.015625-.46875l-.0625-.0625c0 0-1.265625.0625-2.078125.0625-.8125 0-2.078125-.0625-2.078125-.0625l-.0625.0625.03125 1.6406c0 1.046875-.03125 2.15625-.078125 2.6875l.25.0625c.5625-.5625.875-.71875 1.46875-.71875C3.75-4.5 4.46875-3.6875 4.46875-2.40625c0 1.328125-.765625 2.109375-2.0625 2.109375-.65625 0-1.25-.21875-1.421875-.53125L.4375-1.8125l-.28125.1719c.28125.6875.421875 1.0625.578125 1.59375.34375.171875.8125.28125 1.328125.28125.8125 0 1.65625-.34375 2.3125-.921875.734375-.640625 1.109375-1.453125 1.109375-2.34375zm0 0" id="i"/><path d="M5.5625-4.375c0-2.625-.78125-3.859375-2.421875-3.859375-1.84375 0-2.796875 1.46875-2.796875 4.359375 0 1.40625.25 2.609375.671875 3.1875.421875.59375 1.09375.921875 1.828125.921875C4.65625.234375 5.5625-1.3125 5.5625-4.375zm-1.01562.5938C4.546875-1.234375 4.09375-.171875 3-.171875c-1.15625 0-1.65625-1.21875-1.65625-4.125 0-2.53125.453125-3.515625 1.578125-3.515625 1.171875 0 1.625 1.171875 1.625 4.03125zm0 0" id="j"/><clipPath id="c"><path d="M4 63h2v37H4zm0 0"/></clipPath><clipPath id="d"><path d="M-.39062-.4648v101h46v-101zm1.78125 83.9805v8.2227h6.77734v-8.2227L4.8086 90.297zm0 0" class="b"/></clipPath><clipPath id="e"><path d="M4 27h2v38H4zm0 0"/></clipPath><clipPath id="f"><path d="M-.39062-.4648v101h46v-101zm8.55859 53.5625v-8.1602H1.39063v8.1602l3.41796-6.7227zm0 0" class="b"/></clipPath><clipPath id="g"><path d="M4 0h2v29H4zm0 0"/></clipPath><clipPath id="h"><path d="M-.39062-.4648v101h46v-101zm1.78125 11.9805v8.2227h6.77734v-8.2227L4.8086 18.297zm0 0" class="b"/></clipPath></defs><g class="a"><path d="M96.995937 322.010625h-90"/><path d="M6.995937 682.010625h90"/></g><g clip-path="url(#c)"><g clip-path="url(#d)"><path d="M51.995937 7.010625v360-270" class="a"/></g></g><path d="M1.39063 83.5156l3.41797 6.7813 3.35937-6.7812H1.39063" class="c"/><path d="M17.81625 170.21375l34.179687-67.8125 33.59375 67.8125zm0 0" class="a"/><g clip-path="url(#e)"><g clip-path="url(#f)"><path d="M51.995937 727.010625v-360 180" class="a"/></g></g><path d="M8.16797 53.0977 4.80859 46.375l-3.41797 6.7227h6.77734" class="c"/><path d="M85.589687 474.393438 51.995937 541.62 17.81625 474.393438zm0 0" class="a"/><g clip-path="url(#g)"><g clip-path="url(#h)"><path d="M51.995937 727.010625v270-180" class="a"/></g></g><path d="M1.39063 11.5156l3.41797 6.7813 3.35937-6.7812H1.39063" class="c"/><path d="M17.81625 890.21375l34.179687-67.8125 33.59375 67.8125zm0 0" class="a"/><use x="18.689" y="36.816" href="#a"/><use x="28.58791" y="36.816" href="#b"/><use x="39.90948" y="36.816" href="#i"/><use x="18.689" y="72.817" href="#a"/><use x="28.58791" y="72.817" href="#b"/><use x="39.90948" y="72.817" href="#j"/><style>.a{fill:none;stroke:#000;stroke-miterlimit:10;stroke-width:4.5;transform:matrix(.1,0,0,-.1,-.391,100.537)}.b{clip-rule:evenodd}.c{fill-rule:evenodd}</style></svg>