<svg xmlns="http://www.w3.org/2000/svg" width="374pt" height="275pt" viewBox="0 0 374 275"><defs><path d="M2.0625-5.3125c-.5 0-.9375.21875-1.21875.578125C.5-4.265625.328125-3.5625.328125-2.578125c0 1.796875.59375 2.75 1.734375 2.75 1.125 0 1.734375-.953125 1.734375-2.703125 0-1.03125-.15625-1.71875-.515625-2.203125C3-5.109375 2.5625-5.3125 2.0625-5.3125zm0 .5781c.71875 0 1.0625.71875 1.0625 2.140625C3.125-1.078125 2.78125-.375 2.046875-.375 1.34375-.375 1-1.109375 1-2.5625c0-1.453125.34375-2.171875 1.0625-2.171875zm0 0" id="c"/><path d="M1.4375-.7812H.6563V0h.7813zm0 0" id="b"/><path d="M3.5625-5.3125H.8281L.4219-2.4219h.6094c.3125-.375.5625-.5.984375-.5.703125 0 1.15625.484375 1.15625 1.28125 0 .765625-.4375 1.234375-1.15625 1.234375-.578125 0-.9375-.296875-1.09375-.90625h-.6562c.09375.4375.15625.65625.3125.84375.3125.40625.84375.640625 1.453125.640625 1.0625 0 1.8125-.78125 1.8125-1.90625C3.84375-2.78125 3.15625-3.5 2.125-3.5c-.375 0-.671875.09375-.984375.3125l.2188-1.4844H3.5625zm0 0" id="d"/><path d="M1.9375-3.7812V0h.6719v-5.3125h-.4375c-.2344.8125-.39065.921875-1.406275 1.046875v.4844zm0 0" id="e"/><path d="M3.7969-.6562H1c.0625-.4375.3125-.703125.953125-1.09375l.75-.4062c.75-.40625 1.125-.953125 1.125-1.59375 0-.453125-.171875-.859375-.484375-1.140625C3.015625-5.1875 2.625-5.3125 2.125-5.3125c-.671875 0-1.171875.234375-1.46875.6875-.1875.28125-.265625.609375-.28125 1.15625h.6563c.03125-.359375.078125-.578125.15625-.75.171875-.328125.515625-.515625.921875-.515625.59375 0 1.046875.421875 1.046875.984375 0 .421875-.25.78125-.71875 1.0625l-.6875.3906C.640625-1.671875.3125-1.171875.25 0h3.5469zm0 0" id="f"/><path d="M1.6563-2.4375h.3594c.734375 0 1.109375.328125 1.109375.953125C3.125-.8125 2.703125-.40625 2.015625-.40625 1.296875-.40625.9375-.765625.90625-1.546875H.2344C.265625-1.125.34375-.84375.46875-.59375.75-.09375 1.265625.171875 2 .171875c1.09375 0 1.796875-.65625 1.796875-1.65625 0-.671875-.265625-1.046875-.90625-1.265625.5-.203125.75-.578125.75-1.109375 0-.90625-.609375-1.453125-1.625-1.453125C.9375-5.3125.375-4.734375.359375-3.59375h.6563c0-.328125.03125-.515625.109375-.671875.15625-.296875.484375-.46875.90625-.46875.578125 0 .9375.34375.9375.90625 0 .375-.140625.59375-.4375.71875C2.359375-3.03125 2.125-3 1.65625-3zm0 0" id="g"/><clipPath id="h"><path d="M17 9.5h1v255h-1zm0 0"/></clipPath><clipPath id="i"><path d="M17 259h340v2H17zm0 0"/></clipPath><clipPath id="j"><path d="M17 9.5h1v255h-1zm0 0"/></clipPath><clipPath id="k"><path d="M73 9.5h1v255h-1zm0 0"/></clipPath><clipPath id="l"><path d="M130 9.5h1v255h-1zm0 0"/></clipPath><clipPath id="m"><path d="M186 9.5h2v255h-2zm0 0"/></clipPath><clipPath id="n"><path d="M243 9.5h1v255h-1zm0 0"/></clipPath><clipPath id="o"><path d="M300 9.5h1v255h-1zm0 0"/></clipPath><clipPath id="p"><path d="M356 9.5h1v255h-1zm0 0"/></clipPath><clipPath id="q"><path d="M17 259h340v2H17zm0 0"/></clipPath><clipPath id="r"><path d="M17 213h340v1H17zm0 0"/></clipPath><clipPath id="s"><path d="M17 166h340v2H17zm0 0"/></clipPath><clipPath id="t"><path d="M17 120h340v2H17zm0 0"/></clipPath><clipPath id="u"><path d="M17 74h340v1H17zm0 0"/></clipPath><clipPath id="v"><path d="M17 27h340v2H17zm0 0"/></clipPath><path id="a" d="M170 105v2550"/></defs><g clip-path="url(#h)"><use href="#a" class="e"/></g><g clip-path="url(#i)"><path d="M170 151.367188h3400" class="e"/></g><g clip-path="url(#j)"><use href="#a" class="a"/></g><g clip-path="url(#k)"><path d="M736.679688 105v2550" class="a"/></g><g clip-path="url(#l)"><path d="M1303.320312 105v2550" class="a"/></g><g clip-path="url(#m)"><path d="M1870 105v2550" class="a"/></g><g clip-path="url(#n)"><path d="M2436.679688 105v2550" class="a"/></g><g clip-path="url(#o)"><path d="M3003.320312 105v2550" class="a"/></g><g clip-path="url(#p)"><path d="M3570 105v2550" class="a"/></g><g clip-path="url(#q)"><path d="M170 151.367188h3400" class="a"/></g><g clip-path="url(#r)"><path d="M170 615h3400" class="a"/></g><g clip-path="url(#s)"><path d="M170 1078.632812h3400" class="a"/></g><g clip-path="url(#t)"><path d="M170 1542.265625h3400" class="a"/></g><g clip-path="url(#u)"><path d="M170 2005.898438h3400" class="a"/></g><g clip-path="url(#v)"><path d="M170 2469.53125h3400" class="a"/></g><g class="b"><path d="M170 105h3400" class="c"/><g class="d"><path d="M170 105v50"/><path d="M226.679688 105v25"/><path d="M283.320312 105v25"/><path d="M340 105v25"/><path d="M396.679688 105v25"/><path d="M453.320312 105v25"/><path d="M510 105v25"/><path d="M566.679688 105v25"/><path d="M623.320312 105v25"/><path d="M680 105v25"/><path d="M736.679688 105v50"/><path d="M793.320312 105v25"/><path d="M850 105v25"/><path d="M906.679688 105v25"/><path d="M963.320312 105v25"/><path d="M1020 105v25"/><path d="M1076.679688 105v25"/><path d="M1133.320312 105v25"/><path d="M1190 105v25"/><path d="M1246.679688 105v25"/><path d="M1303.320312 105v50"/><path d="M1360 105v25"/><path d="M1416.679688 105v25"/><path d="M1473.320312 105v25"/><path d="M1530 105v25"/><path d="M1586.679688 105v25"/><path d="M1643.320312 105v25"/><path d="M1700 105v25"/><path d="M1756.679688 105v25"/><path d="M1813.320312 105v25"/><path d="M1870 105v50"/><path d="M1926.679688 105v25"/><path d="M1983.320312 105v25"/><path d="M2040 105v25"/><path d="M2096.679688 105v25"/><path d="M2153.320312 105v25"/><path d="M2210 105v25"/><path d="M2266.679688 105v25"/><path d="M2323.320312 105v25"/><path d="M2380 105v25"/><path d="M2436.679688 105v50"/><path d="M2493.320312 105v25"/><path d="M2550 105v25"/><path d="M2606.679688 105v25"/><path d="M2663.320312 105v25"/><path d="M2720 105v25"/><path d="M2776.679688 105v25"/><path d="M2833.320312 105v25"/><path d="M2890 105v25"/><path d="M2946.679688 105v25"/><path d="M3003.320312 105v50"/><path d="M3060 105v25"/><path d="M3116.679688 105v25"/><path d="M3173.320312 105v25"/><path d="M3230 105v25"/><path d="M3286.679688 105v25"/><path d="M3343.320312 105v25"/><path d="M3400 105v25"/><path d="M3456.679688 105v25"/><path d="M3513.320312 105v25"/><path d="M3570 105v50"/></g></g><use x="11.1629" y="274.5" href="#c"/><use x="15.3329" y="274.5" href="#b"/><use x="17.4179" y="274.5" href="#c"/><use x="68.0379" y="274.5" href="#c"/><use x="72.2079" y="274.5" href="#b"/><use x="74.2929" y="274.5" href="#d"/><use x="124.9129" y="274.5" href="#e"/><use x="129.0829" y="274.5" href="#b"/><use x="131.1678" y="274.5" href="#c"/><use x="181.7878" y="274.5" href="#e"/><use x="185.9578" y="274.5" href="#b"/><use x="188.0428" y="274.5" href="#d"/><use x="238.0378" y="274.5" href="#f"/><use x="242.2078" y="274.5" href="#b"/><use x="244.2928" y="274.5" href="#c"/><use x="294.9128" y="274.5" href="#f"/><use x="299.0828" y="274.5" href="#b"/><use x="301.1678" y="274.5" href="#d"/><use x="351.7878" y="274.5" href="#g"/><use x="355.9578" y="274.5" href="#b"/><use x="358.0428" y="274.5" href="#c"/><g class="b"><path d="M170 2655h3400" class="c"/><g class="d"><path d="M170 2655v-50"/><path d="M226.679688 2655v-25"/><path d="M283.320312 2655v-25"/><path d="M340 2655v-25"/><path d="M396.679688 2655v-25"/><path d="M453.320312 2655v-25"/><path d="M510 2655v-25"/><path d="M566.679688 2655v-25"/><path d="M623.320312 2655v-25"/><path d="M680 2655v-25"/><path d="M736.679688 2655v-50"/><path d="M793.320312 2655v-25"/><path d="M850 2655v-25"/><path d="M906.679688 2655v-25"/><path d="M963.320312 2655v-25"/><path d="M1020 2655v-25"/><path d="M1076.679688 2655v-25"/><path d="M1133.320312 2655v-25"/><path d="M1190 2655v-25"/><path d="M1246.679688 2655v-25"/><path d="M1303.320312 2655v-50"/><path d="M1360 2655v-25"/><path d="M1416.679688 2655v-25"/><path d="M1473.320312 2655v-25"/><path d="M1530 2655v-25"/><path d="M1586.679688 2655v-25"/><path d="M1643.320312 2655v-25"/><path d="M1700 2655v-25"/><path d="M1756.679688 2655v-25"/><path d="M1813.320312 2655v-25"/><path d="M1870 2655v-50"/><path d="M1926.679688 2655v-25"/><path d="M1983.320312 2655v-25"/><path d="M2040 2655v-25"/><path d="M2096.679688 2655v-25"/><path d="M2153.320312 2655v-25"/><path d="M2210 2655v-25"/><path d="M2266.679688 2655v-25"/><path d="M2323.320312 2655v-25"/><path d="M2380 2655v-25"/><path d="M2436.679688 2655v-50"/><path d="M2493.320312 2655v-25"/><path d="M2550 2655v-25"/><path d="M2606.679688 2655v-25"/><path d="M2663.320312 2655v-25"/><path d="M2720 2655v-25"/><path d="M2776.679688 2655v-25"/><path d="M2833.320312 2655v-25"/><path d="M2890 2655v-25"/><path d="M2946.679688 2655v-25"/><path d="M3003.320312 2655v-50"/><path d="M3060 2655v-25"/><path d="M3116.679688 2655v-25"/><path d="M3173.320312 2655v-25"/><path d="M3230 2655v-25"/><path d="M3286.679688 2655v-25"/><path d="M3343.320312 2655v-25"/><path d="M3400 2655v-25"/><path d="M3456.679688 2655v-25"/><path d="M3513.320312 2655v-25"/><path d="M3570 2655v-50"/></g></g><use x="11.1629" y="6.375" href="#c"/><use x="15.3329" y="6.375" href="#b"/><use x="17.4179" y="6.375" href="#c"/><use x="68.0379" y="6.375" href="#c"/><use x="72.2079" y="6.375" href="#b"/><use x="74.2929" y="6.375" href="#d"/><use x="124.9129" y="6.375" href="#e"/><use x="129.0829" y="6.375" href="#b"/><use x="131.1678" y="6.375" href="#c"/><use x="181.7878" y="6.375" href="#e"/><use x="185.9578" y="6.375" href="#b"/><use x="188.0428" y="6.375" href="#d"/><use x="238.0378" y="6.375" href="#f"/><use x="242.2078" y="6.375" href="#b"/><use x="244.2928" y="6.375" href="#c"/><use x="294.9128" y="6.375" href="#f"/><use x="299.0828" y="6.375" href="#b"/><use x="301.1678" y="6.375" href="#d"/><use x="351.7878" y="6.375" href="#g"/><use x="355.9578" y="6.375" href="#b"/><use x="358.0428" y="6.375" href="#c"/><g class="b"><use href="#a" class="c"/><g class="d"><path d="M170 151.367188h50"/><path d="M170 197.734375h25"/><path d="M170 244.101562h25"/><path d="M170 290.46875h25"/><path d="M170 336.835938h25"/><path d="M170 383.203125h25"/><path d="M170 429.53125h25"/><path d="M170 475.898438h25"/><path d="M170 522.265625h25"/><path d="M170 568.632812h25"/><path d="M170 615h50"/><path d="M170 661.367188h25"/><path d="M170 707.734375h25"/><path d="M170 754.101562h25"/><path d="M170 800.46875h25"/><path d="M170 846.835938h25"/><path d="M170 893.203125h25"/><path d="M170 939.53125h25"/><path d="M170 985.898438h25"/><path d="M170 1032.265625h25"/><path d="M170 1078.632812h50"/><path d="M170 1125h25"/><path d="M170 1171.367188h25"/><path d="M170 1217.734375h25"/><path d="M170 1264.101562h25"/><path d="M170 1310.46875h25"/><path d="M170 1356.835938h25"/><path d="M170 1403.164062h25"/><path d="M170 1449.53125h25"/><path d="M170 1495.898438h25"/><path d="M170 1542.265625h50"/><path d="M170 1588.632812h25"/><path d="M170 1635h25"/><path d="M170 1681.367188h25"/><path d="M170 1727.734375h25"/><path d="M170 1774.101562h25"/><path d="M170 1820.46875h25"/><path d="M170 1866.835938h25"/><path d="M170 1913.164062h25"/><path d="M170 1959.53125h25"/><path d="M170 2005.898438h50"/><path d="M170 2052.265625h25"/><path d="M170 2098.632812h25"/><path d="M170 2145h25"/><path d="M170 2191.367188h25"/><path d="M170 2237.734375h25"/><path d="M170 2284.101562h25"/><path d="M170 2330.46875h25"/><path d="M170 2376.835938h25"/><path d="M170 2423.164062h25"/><path d="M170 2469.53125h50"/><path d="M170 2515.898438h25"/><path d="M170 2562.265625h25"/><path d="M170 2608.632812h25"/><path d="M170 2655h25"/></g></g><use x="-.2992" y="263.25" href="#c"/><use x="3.8708" y="263.25" href="#b"/><use x="5.9558" y="263.25" href="#c"/><use x="-.2992" y="217" href="#c"/><use x="3.8708" y="217" href="#b"/><use x="5.9558" y="217" href="#d"/><use x="-.2992" y="170.75" href="#e"/><use x="3.8708" y="170.75" href="#b"/><use x="5.9558" y="170.75" href="#c"/><use x="-.2992" y="124.5" href="#e"/><use x="3.8708" y="124.5" href="#b"/><use x="5.9558" y="124.5" href="#d"/><use x="-.2992" y="77.625" href="#f"/><use x="3.8708" y="77.625" href="#b"/><use x="5.9558" y="77.625" href="#c"/><use x="-.2992" y="31.375" href="#f"/><use x="3.8708" y="31.375" href="#b"/><use x="5.9558" y="31.375" href="#d"/><g class="b"><path d="M3570 105v2550" class="c"/><g class="d"><path d="M3570 151.367188h-50"/><path d="M3570 197.734375h-25"/><path d="M3570 244.101562h-25"/><path d="M3570 290.46875h-25"/><path d="M3570 336.835938h-25"/><path d="M3570 383.203125h-25"/><path d="M3570 429.53125h-25"/><path d="M3570 475.898438h-25"/><path d="M3570 522.265625h-25"/><path d="M3570 568.632812h-25"/><path d="M3570 615h-50"/><path d="M3570 661.367188h-25"/><path d="M3570 707.734375h-25"/><path d="M3570 754.101562h-25"/><path d="M3570 800.46875h-25"/><path d="M3570 846.835938h-25"/><path d="M3570 893.203125h-25"/><path d="M3570 939.53125h-25"/><path d="M3570 985.898438h-25"/><path d="M3570 1032.265625h-25"/><path d="M3570 1078.632812h-50"/><path d="M3570 1125h-25"/><path d="M3570 1171.367188h-25"/><path d="M3570 1217.734375h-25"/><path d="M3570 1264.101562h-25"/><path d="M3570 1310.46875h-25"/><path d="M3570 1356.835938h-25"/><path d="M3570 1403.164062h-25"/><path d="M3570 1449.53125h-25"/><path d="M3570 1495.898438h-25"/><path d="M3570 1542.265625h-50"/><path d="M3570 1588.632812h-25"/><path d="M3570 1635h-25"/><path d="M3570 1681.367188h-25"/><path d="M3570 1727.734375h-25"/><path d="M3570 1774.101562h-25"/><path d="M3570 1820.46875h-25"/><path d="M3570 1866.835938h-25"/><path d="M3570 1913.164062h-25"/><path d="M3570 1959.53125h-25"/><path d="M3570 2005.898438h-50"/><path d="M3570 2052.265625h-25"/><path d="M3570 2098.632812h-25"/><path d="M3570 2145h-25"/><path d="M3570 2191.367188h-25"/><path d="M3570 2237.734375h-25"/><path d="M3570 2284.101562h-25"/><path d="M3570 2330.46875h-25"/><path d="M3570 2376.835938h-25"/><path d="M3570 2423.164062h-25"/><path d="M3570 2469.53125h-50"/><path d="M3570 2515.898438h-25"/><path d="M3570 2562.265625h-25"/><path d="M3570 2608.632812h-25"/><path d="M3570 2655h-25"/></g></g><use x="363.25" y="263.25" href="#c"/><use x="367.42" y="263.25" href="#b"/><use x="369.505" y="263.25" href="#c"/><use x="363.25" y="217" href="#c"/><use x="367.42" y="217" href="#b"/><use x="369.505" y="217" href="#d"/><use x="363.25" y="170.75" href="#e"/><use x="367.42" y="170.75" href="#b"/><use x="369.505" y="170.75" href="#c"/><use x="363.25" y="124.5" href="#e"/><use x="367.42" y="124.5" href="#b"/><use x="369.505" y="124.5" href="#d"/><use x="363.25" y="77.625" href="#f"/><use x="367.42" y="77.625" href="#b"/><use x="369.505" y="77.625" href="#c"/><use x="363.25" y="31.375" href="#f"/><use x="367.42" y="31.375" href="#b"/><use x="369.505" y="31.375" href="#d"/><g style="fill:none;stroke-width:12.5;stroke-linecap:round;stroke-miterlimit:10;transform:matrix(.1,0,0,-.1,0,275)"><path stroke="#00008b" d="M170 1078.632812l6.25.039063 6.25.078125 6.25.117188 6.25.195312 6.25.234375 6.25.273437 6.25.351563 6.25.390625 6.25.429688 6.25.507812 6.25.546875 6.25.585937 6.25.664063 6.25.703125 6.25.742188 6.25.820312 6.25.859375 6.25.9375 6.25.976563 6.25 1.015624 6.25 1.09375 12.5 2.34375 6.25 1.25 6.25 1.328126 6.25 1.367187 6.25 1.40625L345 1099.375l6.25 1.5625 6.25 1.601562 12.5 3.359376 6.25 1.796874 6.25 1.835938 6.25 1.914062 6.25 1.953126 6.25 2.03125 6.25 2.109374 6.25 2.148438 6.25 2.226562 6.25 2.265626 6.25 2.34375 6.25 2.421874 6.25 2.5 6.25 2.578126 6.25 2.617187 6.25 2.695313 6.25 2.773437 6.25 2.851563 6.25 2.890624 6.25 3.007813 6.25 3.085937 6.25 3.125 6.25 3.203126 6.25 3.320312 6.25 3.359375 6.25 3.476563 6.25 3.554687 6.25 3.632813 6.25 3.710937 6.25 3.789063 6.25 3.90625 6.25 3.984374 6.25 4.0625 6.25 4.179688 6.25 4.257812 6.25 4.335938 6.25 4.453125 6.25 4.570313 6.25 4.648437 6.25 4.765625 6.25 4.84375 6.25 4.960938 6.25 5.078124 6.25 5.195313 6.25 5.3125 6.25 5.390625 6.25 5.546875 6.25 5.664063 6.25 5.78125 6.25 5.898437 6.25 6.054687 6.25 6.132813 6.25 6.289063 6.25 6.445312 6.25 6.5625 6.25 6.71875 6.25 6.835938 6.25 6.992187 6.25 7.148437 6.25 7.304688 6.25 7.460938 6.25 7.617187 6.25 7.773437 6.25 7.929688 6.25 8.125 6.25 8.28125 6.25 8.476562 6.25 8.671876 6.25 8.828124 6.25 9.023438 6.25 9.21875 6.25 9.414062 6.25 9.609376 6.25 9.804687 6.25 10.039063 6.25 10.273437 6.25 10.46875 6.25 10.664063 6.25 10.9375 6.25 11.171874 6.25 11.367188 6.25 11.640625 6.25 11.914063 6.25 12.109374 6.25 12.382813 6.25 12.65625 6.25 12.929687 6.25 13.203126 6.25 13.4375 6.25 13.75 6.25 14.023437 6.25 14.335937 6.25 14.609376 6.25 14.921874 6.25 15.195313 6.25 15.46875 6.25 15.820313 6.25 16.09375 6.25 16.40625 6.25 16.71875 6.25 17.03125 6.25 17.34375 6.25 17.617187 6.25 17.929687L1020 1899.375l6.25 18.515625 6.25 18.789063 6.25 19.0625 6.25 19.335937 6.25 19.570313 6.25 19.804687 6.25 20.039063 6.25 20.234374 6.25 20.429688 6.25 20.546875 6.25 20.703125 6.25 20.78125 6.25 20.820312 6.25 20.859376 6.25 20.820312 6.25 20.742188 6.25 20.625 6.25 20.46875 6.25 20.234374 6.25 19.882813 6.25 19.53125 6.25 19.101563 6.25 18.59375 6.25 17.96875 6.25 17.265624 6.25 16.523438 6.25 15.664062 6.25 14.726563 6.25 13.671875 6.25 12.539062 6.25 11.328126 6.25 10.039062 6.25 8.671875 6.25 7.1875 6.25 5.664063 6.25 4.0625 6.25 2.421874 6.25.742188 6.25-.976562 6.25-2.734376 6.25-4.53125 6.25-6.25 6.25-8.007812 6.25-9.726562 6.25-11.40625 6.25-13.046876 6.25-14.609374 6.25-16.171876 6.25-17.578124 6.25-18.945313 6.25-20.195313 6.25-21.40625 6.25-22.460937 6.25-23.4375 6.25-24.335937 6.25-25.117188 6.25-25.820312 6.25-26.40625 6.25-26.875 6.25-27.34375 6.25-27.617188 6.25-27.890625 6.25-28.046875 6.25-28.125 6.25-28.203125 6.25-28.164063 6.25-28.085937 6.25-27.929687 6.25-27.773438 6.25-27.578125 6.25-27.304687 6.25-27.03125 6.25-26.679688 6.25-26.40625 6.25-26.015625 6.25-25.625 6.25-25.234375 6.25-24.84375 6.25-24.453125 6.25-23.984375 6.25-23.59375 6.25-23.164062 6.25-22.734376 6.25-22.304687 6.25-21.835937 6.25-21.445313 6.25-21.015625 6.25-20.585938 6.25-20.15625 6.25-19.726562 6.25-19.335938L1595 1358.125l6.25-18.515625 6.25-18.164063 6.25-17.773437 6.25-17.382813 6.25-16.992187 6.25-16.679687 6.25-16.289063 6.25-15.9375 6.25-15.625 6.25-15.273437 6.25-14.960938 6.25-14.648438 6.25-14.335937 6.25-14.023437 6.25-13.75 6.25-13.4375 6.25-13.164063 6.25-12.890625 6.25-12.617188 6.25-12.382812 6.25-12.070312 6.25-11.875 6.25-11.640626 6.25-11.367187 6.25-11.132813 6.25-10.9375 6.25-10.703124 6.25-10.507813 6.25-10.273437 6.25-10.117188 6.25-9.882812 6.25-9.6875 6.25-9.492188 6.25-9.335938 6.25-9.140624 6.25-8.984376 6.25-8.789062 6.25-8.632812 6.25-8.476563 6.25-8.320313 6.25-8.164062 6.25-8.007812 6.25-7.890626 6.25-7.734374 6.25-7.578126 6.25-7.421874 6.25-7.34375 6.25-7.1875 6.25-7.070313 6.25-6.914063 6.25-6.835937 6.25-6.679687 6.25-6.5625 6.25-6.484376 6.25-6.367187 6.25-6.25 6.25-6.132813 6.25-6.054687 6.25-5.9375 6.25-5.859375 6.25-5.742188 6.25-5.664062 6.25-5.546875 6.25-5.46875 6.25-5.390625 6.25-5.3125 6.25-5.234375 6.25-5.117187 6.25-5.078126 6.25-4.960937 6.25-4.882813 6.25-4.84375 6.25-4.726562 6.25-4.6875 6.25-4.609375 6.25-4.53125 6.25-4.492187 6.25-4.375 6.25-4.335938 6.25-4.296875 6.25-4.21875 6.25-4.140625 6.25-4.101562 6.25-4.023438 6.25-3.984375 6.25-3.90625 6.25-3.867187 6.25-3.789063 6.25-3.75 6.25-3.710937 6.25-3.671876 6.25-3.59375 6.25-3.554687 6.25-3.515625 6.25-3.4375 6.25-3.398438 6.25-3.359374 6.25-3.320313 6.25-3.28125 6.25-3.242187 12.5-6.328126 6.25-3.125 12.5-6.09375 6.25-2.96875 12.5-5.859374 6.25-2.890626 12.5-5.625 6.25-2.773437 6.25-2.734375 6.25-2.695312 12.5-5.3125 6.25-2.617188 6.25-2.539062 6.25-2.578126 6.25-2.5 12.5-4.921874 6.25-2.421876 12.5-4.765624 6.25-2.34375 6.25-2.304688 12.5-4.53125 12.5-4.453125 6.25-2.1875 6.25-2.148437 18.75-6.328126 6.25-2.070312 12.5-4.0625 6.25-1.992188 12.5-3.90625 18.75-5.742187 6.25-1.875 12.5-3.671875 12.5-3.59375 18.75-5.273438 6.25-1.679687 6.25-1.71875 12.5-3.359375L2588.75 405l18.75-4.804688 6.25-1.5625 6.25-1.523437 6.25-1.5625 6.25-1.523437 6.25-1.484376 6.25-1.523437 6.25-1.445313 6.25-1.484374 12.5-2.890626 18.75-4.21875 18.75-4.101562 18.75-3.984375 18.75-3.867187 6.25-1.25 6.25-1.289063 6.25-1.25 6.25-1.210937 6.25-1.25 6.25-1.210938 6.25-1.171875 6.25-1.210937 18.75-3.515626 25-4.53125 25-4.375 31.25-5.273437 18.75-3.046875 6.25-.976562 6.25-1.015626 18.75-2.929687 6.25-.9375 6.25-.976563 12.5-1.875 6.25-.898437 6.25-.9375 6.25-.898437 6.25-.9375 12.5-1.796876 6.25-.859374L3020 322.5l25-3.4375 6.25-.820312 6.25-.859376 25-3.28125 6.25-.78125L3095 312.5l31.25-3.90625 12.5-1.484375 6.25-.78125 18.75-2.226563 6.25-.703124 6.25-.742188 12.5-1.40625 6.25-.742188 6.25-.664062 18.75-2.109375 12.5-1.328125 6.25-.703125 18.75-1.992187 6.25-.625 6.25-.664063 6.25-.625 6.25-.664063 37.5-3.75 6.25-.585937 6.25-.625 50-4.6875 6.25-.546875 6.25-.585938 50-4.375 6.25-.507812 6.25-.546875 6.25-.507813 6.25-.546874 43.75-3.554688 6.25-.46875 6.25-.507812 6.25-.46875 6.25-.507813 25-1.875 6.25-.507813"/><path stroke="#006400" d="M170 1078.632812l12.5.078126 12.5.234374 6.25.15625 12.5.46875 6.25.273438 12.5.703125 12.5.859375 6.25.46875 6.25.507812 12.5 1.171876 12.5 1.328124 6.25.703126 6.25.742187 12.5 1.640625 6.25.859375 6.25.898437 12.5 1.953126 6.25 1.015624 12.5 2.1875 6.25 1.132813 12.5 2.421875 12.5 2.578125 6.25 1.328125L395 1103.75l12.5 2.890625 6.25 1.523437 6.25 1.5625 6.25 1.601563 12.5 3.28125 6.25 1.71875 6.25 1.757813 6.25 1.796874 6.25 1.835938 6.25 1.875 12.5 3.90625 12.5 4.0625 12.5 4.21875 6.25 2.1875 6.25 2.226562 6.25 2.265626 6.25 2.304687 6.25 2.34375 6.25 2.382813 6.25 2.421874 6.25 2.460938 6.25 2.5 12.5 5.15625 12.5 5.3125 6.25 2.734375 6.25 2.773437 6.25 2.8125 6.25 2.851563 6.25 2.890625 6.25 2.929688 12.5 5.9375 18.75 9.257812 6.25 3.164062 6.25 3.203126 6.25 3.242187 6.25 3.28125 6.25 3.320313 12.5 6.71875 12.5 6.875 6.25 3.476562 6.25 3.554688 6.25 3.515624 12.5 7.1875 6.25 3.632813 12.5 7.34375 12.5 7.421875 6.25 3.75 6.25 3.789062 6.25 3.75 6.25 3.828126 6.25 3.789062 25 15.3125 6.25 3.867188 31.25 19.140624 6.25 3.789063 18.75 11.25 12.5 7.34375 6.25 3.632813 6.25 3.59375 6.25 3.515624 6.25 3.476563 6.25 3.4375 6.25 3.359375 6.25 3.320312 6.25 3.242188 6.25 3.164062 6.25 3.085938 6.25 2.96875 6.25 2.929688 6.25 2.8125 6.25 2.734374 6.25 2.617188 6.25 2.5 6.25 2.382812 6.25 2.265626 6.25 2.109374 6.25 2.03125 6.25 1.835938 6.25 1.71875 6.25 1.601562 6.25 1.40625 6.25 1.25 6.25 1.09375 6.25.9375 6.25.742188 6.25.585938 6.25.390624 6.25.195313h6.25l6.25-.195313 6.25-.390624 6.25-.585938 6.25-.820312 6.25-.976563 6.25-1.25 6.25-1.40625 6.25-1.679687 6.25-1.875 6.25-2.070313 6.25-2.304687 6.25-2.539063 6.25-2.734375 6.25-2.96875 6.25-3.164062 6.25-3.398438 6.25-3.632812 6.25-3.828126 6.25-4.023437 6.25-4.257813 6.25-4.453124 6.25-4.648438 6.25-4.84375 6.25-5.039062 6.25-5.234376 6.25-5.429687 6.25-5.585937 6.25-5.78125 6.25-5.9375 6.25-6.132813 6.25-6.25 6.25-6.40625 6.25-6.5625 6.25-6.71875 6.25-6.835937 6.25-6.953126 6.25-7.070312 6.25-7.1875 6.25-7.304688 6.25-7.421874 6.25-7.5 6.25-7.578126 6.25-7.65625 6.25-7.734374 6.25-7.8125 6.25-7.851563 6.25-7.929687 6.25-7.96875 6.25-8.007813 18.75-24.257813 6.25-8.125 37.5-48.984374 18.75-24.375 6.25-8.085938 12.5-16.09375 6.25-8.007812 12.5-15.859376 6.25-7.890624 6.25-7.851563L1557.5 995l6.25-7.695312 12.5-15.234376 6.25-7.539062 6.25-7.460938 6.25-7.421874 6.25-7.382813 12.5-14.53125 6.25-7.1875 6.25-7.109375 6.25-7.03125 6.25-6.992188L1645 892.5l6.25-6.875 6.25-6.796875 6.25-6.71875 6.25-6.640625 6.25-6.601562 6.25-6.523438 6.25-6.445312 6.25-6.40625 6.25-6.328126 6.25-6.25 6.25-6.210937 6.25-6.132813 6.25-6.054687 6.25-5.976563 6.25-5.9375 6.25-5.859374 6.25-5.78125 6.25-5.742188 6.25-5.664062 6.25-5.625 6.25-5.546876 6.25-5.46875 6.25-5.429687 6.25-5.351563 6.25-5.273437 6.25-5.234375 6.25-5.195312 6.25-5.117188 6.25-5.039062 6.25-5 6.25-4.921876 6.25-4.882812 6.25-4.84375 6.25-4.765625 6.25-4.6875 6.25-4.648437 6.25-4.609376 6.25-4.570312 6.25-4.492188 6.25-4.453124 6.25-4.375 6.25-4.335938 6.25-4.296875 12.5-8.4375 6.25-4.140625 12.5-8.125 12.5-7.96875 6.25-3.90625 12.5-7.65625 6.25-3.789062 6.25-3.710938 12.5-7.34375 6.25-3.59375 6.25-3.554688 6.25-3.515624 6.25-3.476563 6.25-3.4375 6.25-3.398437 6.25-3.359376 6.25-3.320312 12.5-6.5625 6.25-3.203125 6.25-3.164063 12.5-6.25 12.5-6.09375 6.25-3.007812 6.25-2.96875 6.25-2.929688 12.5-5.78125 6.25-2.851562 6.25-2.8125 6.25-2.773438 12.5-5.46875 6.25-2.695312 6.25-2.65625 6.25-2.617188 18.75-7.734374 12.5-5L2220 495.625l18.75-7.265625 12.5-4.6875 12.5-4.609375 6.25-2.265625 12.5-4.453125 12.5-4.375 12.5-4.296875 6.25-2.109375 18.75-6.210938 6.25-1.992187 6.25-2.03125 6.25-1.992187 12.5-3.90625 12.5-3.828126 18.75-5.625 6.25-1.835937L2420 428.75l12.5-3.515625 12.5-3.4375 18.75-5.039063 12.5-3.28125 6.25-1.601562 6.25-1.640625 12.5-3.125 6.25-1.601563 18.75-4.570312 6.25-1.484375 6.25-1.523437 6.25-1.445313L2551.25 395l12.5-2.890625 18.75-4.21875 6.25-1.367187 6.25-1.40625 6.25-1.328126 6.25-1.367187 18.75-3.984375 18.75-3.867188 6.25-1.25 6.25-1.289062 6.25-1.210938 6.25-1.25 25-4.84375 25-4.6875 25-4.53125 25-4.375 25-4.21875 6.25-1.015624 6.25-1.054688 12.5-2.03125 6.25-.976562 6.25-1.015626 25-3.90625 6.25-.9375L2870 335l12.5-1.875 6.25-.898438 6.25-.9375 31.25-4.492187 6.25-.859375 6.25-.898438 18.75-2.578124 6.25-.820313 6.25-.859375 31.25-4.101562 6.25-.78125 6.25-.820313 25-3.125 6.25-.742187 6.25-.78125 12.5-1.484376 6.25-.78125 6.25-.742187 6.25-.703125 6.25-.742188 6.25-.703124 6.25-.742188 37.5-4.21875 6.25-.664062 6.25-.703126 31.25-3.320312 6.25-.625 6.25-.664062 6.25-.625 6.25-.664063 37.5-3.75 6.25-.585937 6.25-.625 50-4.6875 6.25-.546876 6.25-.585937 12.5-1.09375 6.25-.585937 12.5-1.09375 6.25-.507813 18.75-1.640625 6.25-.507812 6.25-.546876 6.25-.507812 6.25-.546875 37.5-3.046875 6.25-.46875 6.25-.507812 6.25-.46875 6.25-.507813 6.25-.46875 6.25-.507813 50-3.75 6.25-.429687 12.5-.9375 12.5-.859375 6.25-.46875 6.25-.429688"/><path stroke="#8b0000" d="M170 1078.632812h6.25l18.75-.117187 12.5-.15625 18.75-.351563 12.5-.3125 12.5-.390624 18.75-.703126 12.5-.546874 12.5-.625 18.75-1.054688 12.5-.78125 6.25-.429688 6.25-.46875 6.25-.429687 6.25-.507813 6.25-.46875 6.25-.546874 6.25-.507813 6.25-.585937 6.25-.546876 6.25-.625 6.25-.585937 18.75-1.992187 12.5-1.40625 6.25-.742188 12.5-1.5625 12.5-1.640625 12.5-1.71875 6.25-.898437 12.5-1.875 6.25-.976563 6.25-1.015625 6.25-.976562 6.25-1.054688 12.5-2.1875 12.5-2.265625 6.25-1.171875 12.5-2.421875 6.25-1.25 12.5-2.578125 6.25-1.328125 12.5-2.734375 18.75-4.335938 12.5-3.046874 12.5-3.125 6.25-1.601563 6.25-1.640625 6.25-1.679688 12.5-3.4375 6.25-1.757812 12.5-3.59375 6.25-1.835938 6.25-1.914062 6.25-1.875 12.5-3.90625 6.25-1.992188 12.5-4.0625 6.25-2.070312 6.25-2.109375 6.25-2.148437 12.5-4.375 12.5-4.453126 12.5-4.609374 12.5-4.6875 6.25-2.382813 6.25-2.421875 12.5-4.921875 12.5-5 18.75-7.734375 6.25-2.65625 6.25-2.617188 18.75-8.085937 18.75-8.320313 12.5-5.625 6.25-2.851562 18.75-8.671875 6.25-2.929687 18.75-8.90625 12.5-6.015626 12.5-6.09375 18.75-9.257812 6.25-3.125 6.25-3.085938 6.25-3.164062 6.25-3.125 18.75-9.492188 25-12.8125 6.25-3.242187 6.25-3.203125 25-12.96875 6.25-3.28125 6.25-3.242188 6.25-3.28125 6.25-3.242187 18.75-9.84375 6.25-3.242187 25-13.125 6.25-3.242188 12.5-6.5625 6.25-3.242188 6.25-3.28125 6.25-3.242187 6.25-3.28125 25-12.96875 6.25-3.203125 6.25-3.242188 31.25-16.015624 25-12.65625 6.25-3.125 6.25-3.164063 6.25-3.125 6.25-3.085937 6.25-3.125 12.5-6.171876 25-12.1875 6.25-3.007812 6.25-3.046875 6.25-2.96875 6.25-3.007813 12.5-5.9375 18.75-8.789062 18.75-8.671875 18.75-8.554687 12.5-5.625 18.75-8.320313 18.75-8.203125 18.75-8.085938 6.25-2.65625 6.25-2.617187 6.25-2.65625 6.25-2.617187 18.75-7.734376 18.75-7.617187 12.5-5 18.75-7.382813 18.75-7.265624 6.25-2.382813 12.5-4.6875 6.25-2.382813 18.75-6.914062 18.75-6.796875 18.75-6.679687 6.25-2.1875L1776.25 525l6.25-2.1875 6.25-2.148438 6.25-2.109374 6.25-2.148438 6.25-2.109375 18.75-6.210937 6.25-2.03125 6.25-2.070313 6.25-1.992187 6.25-2.03125 6.25-1.992188 6.25-1.953125 6.25-1.992187 6.25-1.953126 25-7.65625 18.75-5.625 18.75-5.507812 18.75-5.390625L1970 464.375l6.25-1.71875 6.25-1.757812 12.5-3.4375 18.75-5.039063 6.25-1.640625 6.25-1.679688 6.25-1.640624 6.25-1.601563 6.25-1.640625 6.25-1.601562 6.25-1.5625 6.25-1.601563 12.5-3.125 6.25-1.523437 6.25-1.5625 6.25-1.523438 6.25-1.484375 6.25-1.523437 18.75-4.453126 25-5.78125 25-5.625 25-5.46875 25-5.3125 31.25-6.445312 18.75-3.75 6.25-1.210938 6.25-1.25 12.5-2.421874 6.25-1.171876 6.25-1.210937 6.25-1.171875 6.25-1.210938 6.25-1.132812 6.25-1.171875 6.25-1.132813 6.25-1.171874 12.5-2.265626 6.25-1.09375 6.25-1.132812 25-4.375 6.25-1.054688 6.25-1.09375 18.75-3.164062 12.5-2.03125 6.25-1.054688 12.5-2.03125 6.25-.976562 6.25-1.015625 37.5-5.859375 31.25-4.6875 12.5-1.796875 6.25-.9375 18.75-2.695313 6.25-.859374 6.25-.898438 37.5-5.15625 12.5-1.640625 6.25-.859375 12.5-1.640625 6.25-.78125 6.25-.820313 6.25-.78125 6.25-.820312 31.25-3.90625 6.25-.742188 6.25-.78125 6.25-.742187 6.25-.78125 12.5-1.484375 6.25-.703125 18.75-2.226563 50-5.625 12.5-1.328124 6.25-.703126L2882.5 303.75l6.25-.625 6.25-.664062 6.25-.625 6.25-.664063 37.5-3.75 6.25-.585937 6.25-.625 6.25-.585938L2970 295l12.5-1.171875 6.25-.625 6.25-.585937 6.25-.546876L3020 290.3125l6.25-.546875 6.25-.585937 6.25-.546876 6.25-.585937 43.75-3.828125 6.25-.507812 6.25-.546876 6.25-.507812 6.25-.546875 12.5-1.015625 6.25-.546875 31.25-2.539063 6.25-.46875 12.5-1.015624 6.25-.46875 6.25-.507813 12.5-.9375 6.25-.507813 37.5-2.8125 6.25-.429687 12.5-.9375 6.25-.429687 6.25-.46875 6.25-.429688 6.25-.46875 12.5-.859375 6.25-.46875 37.5-2.578125 6.25-.390625 12.5-.859375 6.25-.390625 12.5-.859375 12.5-.78125 6.25-.429688 68.75-4.296874 6.25-.351563 6.25-.390625 6.25-.351562 6.25-.390626 6.25-.351562 6.25-.390625 6.25-.351563 6.25-.390624L3545 252.1875l6.25-.390625 6.25-.3125 6.25-.390625 6.25-.351562"/></g><style>.a{fill:none;stroke:#bfbfbf;stroke-dasharray:12.5,18.75;stroke-linecap:round;stroke-miterlimit:10;stroke-width:6.25;transform:matrix(.1,0,0,-.1,0,275)}.b{fill:none;stroke:#000;stroke-miterlimit:10;transform:matrix(.1,0,0,-.1,0,275)}.c{stroke-linecap:square;stroke-width:12.5}.d{stroke-width:6.25}.e{fill:none;stroke:#bfbfbf;stroke-linecap:round;stroke-miterlimit:10;stroke-width:6.25;transform:matrix(.1,0,0,-.1,0,275)}</style></svg>