<svg xmlns="http://www.w3.org/2000/svg" width="379pt" height="275pt" viewBox="0 0 379 275"><defs><path d="M2.0625-5.3125c-.5 0-.9375.21875-1.21875.578125C.5-4.265625.328125-3.5625.328125-2.578125c0 1.796875.59375 2.75 1.734375 2.75 1.125 0 1.734375-.953125 1.734375-2.703125 0-1.03125-.15625-1.71875-.515625-2.203125C3-5.109375 2.5625-5.3125 2.0625-5.3125zm0 .5781c.71875 0 1.0625.71875 1.0625 2.140625C3.125-1.078125 2.78125-.375 2.046875-.375 1.34375-.375 1-1.109375 1-2.5625c0-1.453125.34375-2.171875 1.0625-2.171875zm0 0" id="b"/><path d="M3.5625-5.3125H.8281L.4219-2.4219h.6094c.3125-.375.5625-.5.984375-.5.703125 0 1.15625.484375 1.15625 1.28125 0 .765625-.4375 1.234375-1.15625 1.234375-.578125 0-.9375-.296875-1.09375-.90625h-.6562c.09375.4375.15625.65625.3125.84375.3125.40625.84375.640625 1.453125.640625 1.0625 0 1.8125-.78125 1.8125-1.90625C3.84375-2.78125 3.15625-3.5 2.125-3.5c-.375 0-.671875.09375-.984375.3125l.2188-1.4844H3.5625zm0 0" id="c"/><path d="M1.9375-3.7812V0h.6719v-5.3125h-.4375c-.2344.8125-.39065.921875-1.406275 1.046875v.4844zm0 0" id="f"/><path d="M3.7969-.6562H1c.0625-.4375.3125-.703125.953125-1.09375l.75-.4062c.75-.40625 1.125-.953125 1.125-1.59375 0-.453125-.171875-.859375-.484375-1.140625C3.015625-5.1875 2.625-5.3125 2.125-5.3125c-.671875 0-1.171875.234375-1.46875.6875-.1875.28125-.265625.609375-.28125 1.15625h.6563c.03125-.359375.078125-.578125.15625-.75.171875-.328125.515625-.515625.921875-.515625.59375 0 1.046875.421875 1.046875.984375 0 .421875-.25.78125-.71875 1.0625l-.6875.3906C.640625-1.671875.3125-1.171875.25 0h3.5469zm0 0" id="e"/><path d="M2.125-2.3437H.3438v.5469H2.125zm0 0" id="g"/><path d="M1.4375-.7812H.6563V0h.7813zm0 0" id="d"/><clipPath id="h"><path d="M20 9.5h1v255h-1zm0 0"/></clipPath><clipPath id="i"><path d="M20 136h340v2H20zm0 0"/></clipPath><clipPath id="j"><path d="M20 9.5h1v255h-1zm0 0"/></clipPath><clipPath id="k"><path d="M104 9.5h2v255h-2zm0 0"/></clipPath><clipPath id="l"><path d="M189 9.5h2v255h-2zm0 0"/></clipPath><clipPath id="m"><path d="M274 9.5h2v255h-2zm0 0"/></clipPath><clipPath id="n"><path d="M359 9.5h1v255h-1zm0 0"/></clipPath><clipPath id="o"><path d="M20 242h340v2H20zm0 0"/></clipPath><clipPath id="p"><path d="M20 189h340v2H20zm0 0"/></clipPath><clipPath id="q"><path d="M20 136h340v2H20zm0 0"/></clipPath><clipPath id="r"><path d="M20 83h340v2H20zm0 0"/></clipPath><clipPath id="s"><path d="M20 30h340v2H20zm0 0"/></clipPath><path id="a" d="M200 105v2550"/></defs><g clip-path="url(#h)"><use href="#a" class="e"/></g><g clip-path="url(#i)"><path d="M200 1380h3400" class="e"/></g><g clip-path="url(#j)"><use href="#a" class="a"/></g><g clip-path="url(#k)"><path d="M1050 105v2550" class="a"/></g><g clip-path="url(#l)"><path d="M1900 105v2550" class="a"/></g><g clip-path="url(#m)"><path d="M2750 105v2550" class="a"/></g><g clip-path="url(#n)"><path d="M3600 105v2550" class="a"/></g><g clip-path="url(#o)"><path d="M200 317.5h3400" class="a"/></g><g clip-path="url(#p)"><path d="M200 848.75h3400" class="a"/></g><g clip-path="url(#q)"><path d="M200 1380h3400" class="a"/></g><g clip-path="url(#r)"><path d="M200 1911.25h3400" class="a"/></g><g clip-path="url(#s)"><path d="M200 2442.5h3400" class="a"/></g><g class="b"><path d="M200 105h3400" class="c"/><g class="d"><path d="M200 105v50"/><path d="M285 105v25"/><path d="M370 105v25"/><path d="M455 105v25"/><path d="M540 105v25"/><path d="M625 105v25"/><path d="M710 105v25"/><path d="M795 105v25"/><path d="M880 105v25"/><path d="M965 105v25"/><path d="M1050 105v50"/><path d="M1135 105v25"/><path d="M1220 105v25"/><path d="M1305 105v25"/><path d="M1390 105v25"/><path d="M1475 105v25"/><path d="M1560 105v25"/><path d="M1645 105v25"/><path d="M1730 105v25"/><path d="M1815 105v25"/><path d="M1900 105v50"/><path d="M1985 105v25"/><path d="M2070 105v25"/><path d="M2155 105v25"/><path d="M2240 105v25"/><path d="M2325 105v25"/><path d="M2410 105v25"/><path d="M2495 105v25"/><path d="M2580 105v25"/><path d="M2665 105v25"/><path d="M2750 105v50"/><path d="M2835 105v25"/><path d="M2920 105v25"/><path d="M3005 105v25"/><path d="M3090 105v25"/><path d="M3175 105v25"/><path d="M3260 105v25"/><path d="M3345 105v25"/><path d="M3430 105v25"/><path d="M3515 105v25"/><path d="M3600 105v50"/></g></g><use x="17.2902" y="274.5" href="#b"/><use x="102.29" y="274.5" href="#c"/><use x="185.8295" y="274.5" href="#f"/><use x="189.9995" y="274.5" href="#b"/><use x="270.8292" y="274.5" href="#f"/><use x="274.9992" y="274.5" href="#c"/><use x="355.829" y="274.5" href="#e"/><use x="359.999" y="274.5" href="#b"/><g class="b"><path d="M200 2655h3400" class="c"/><g class="d"><path d="M200 2655v-50"/><path d="M285 2655v-25"/><path d="M370 2655v-25"/><path d="M455 2655v-25"/><path d="M540 2655v-25"/><path d="M625 2655v-25"/><path d="M710 2655v-25"/><path d="M795 2655v-25"/><path d="M880 2655v-25"/><path d="M965 2655v-25"/><path d="M1050 2655v-50"/><path d="M1135 2655v-25"/><path d="M1220 2655v-25"/><path d="M1305 2655v-25"/><path d="M1390 2655v-25"/><path d="M1475 2655v-25"/><path d="M1560 2655v-25"/><path d="M1645 2655v-25"/><path d="M1730 2655v-25"/><path d="M1815 2655v-25"/><path d="M1900 2655v-50"/><path d="M1985 2655v-25"/><path d="M2070 2655v-25"/><path d="M2155 2655v-25"/><path d="M2240 2655v-25"/><path d="M2325 2655v-25"/><path d="M2410 2655v-25"/><path d="M2495 2655v-25"/><path d="M2580 2655v-25"/><path d="M2665 2655v-25"/><path d="M2750 2655v-50"/><path d="M2835 2655v-25"/><path d="M2920 2655v-25"/><path d="M3005 2655v-25"/><path d="M3090 2655v-25"/><path d="M3175 2655v-25"/><path d="M3260 2655v-25"/><path d="M3345 2655v-25"/><path d="M3430 2655v-25"/><path d="M3515 2655v-25"/><path d="M3600 2655v-50"/></g></g><use x="17.2902" y="6.375" href="#b"/><use x="102.29" y="6.375" href="#c"/><use x="185.8295" y="6.375" href="#f"/><use x="189.9995" y="6.375" href="#b"/><use x="270.8292" y="6.375" href="#f"/><use x="274.9992" y="6.375" href="#c"/><use x="355.829" y="6.375" href="#e"/><use x="359.999" y="6.375" href="#b"/><g class="b"><use href="#a" class="c"/><g class="d"><path d="M200 105h25"/><path d="M200 158.125h25"/><path d="M200 211.25h25"/><path d="M200 264.375h25"/><path d="M200 317.5h50"/><path d="M200 370.625h25"/><path d="M200 423.75h25"/><path d="M200 476.875h25"/><path d="M200 530h25"/><path d="M200 583.125h25"/><path d="M200 636.25h25"/><path d="M200 689.375h25"/><path d="M200 742.5h25"/><path d="M200 795.625h25"/><path d="M200 848.75h50"/><path d="M200 901.875h25"/><path d="M200 955h25"/><path d="M200 1008.125h25"/><path d="M200 1061.25h25"/><path d="M200 1114.375h25"/><path d="M200 1167.5h25"/><path d="M200 1220.625h25"/><path d="M200 1273.75h25"/><path d="M200 1326.875h25"/><path d="M200 1380h50"/><path d="M200 1433.125h25"/><path d="M200 1486.25h25"/><path d="M200 1539.375h25"/><path d="M200 1592.5h25"/><path d="M200 1645.625h25"/><path d="M200 1698.75h25"/><path d="M200 1751.875h25"/><path d="M200 1805h25"/><path d="M200 1858.125h25"/><path d="M200 1911.25h50"/><path d="M200 1964.375h25"/><path d="M200 2017.5h25"/><path d="M200 2070.625h25"/><path d="M200 2123.75h25"/><path d="M200 2176.875h25"/><path d="M200 2230h25"/><path d="M200 2283.125h25"/><path d="M200 2336.25h25"/><path d="M200 2389.375h25"/><path d="M200 2442.5h50"/><path d="M200 2495.625h25"/><path d="M200 2548.75h25"/><path d="M200 2601.875h25"/><path d="M200 2655h25"/></g></g><use x=".2035" y="247" href="#g"/><use x="2.701" y="247" href="#c"/><use x="6.871" y="247" href="#d"/><use x="8.956" y="247" href="#b"/><use x=".2035" y="193.25" href="#g"/><use x="2.701" y="193.25" href="#e"/><use x="6.871" y="193.25" href="#d"/><use x="8.956" y="193.25" href="#c"/><use x="2.7008" y="140.125" href="#b"/><use x="6.8708" y="140.125" href="#d"/><use x="8.9558" y="140.125" href="#b"/><use x="2.7008" y="87" href="#e"/><use x="6.8708" y="87" href="#d"/><use x="8.9558" y="87" href="#c"/><use x="2.7008" y="33.875" href="#c"/><use x="6.8708" y="33.875" href="#d"/><use x="8.9558" y="33.875" href="#b"/><g class="b"><path d="M3600 105v2550" class="c"/><g class="d"><path d="M3600 105h-25"/><path d="M3600 158.125h-25"/><path d="M3600 211.25h-25"/><path d="M3600 264.375h-25"/><path d="M3600 317.5h-50"/><path d="M3600 370.625h-25"/><path d="M3600 423.75h-25"/><path d="M3600 476.875h-25"/><path d="M3600 530h-25"/><path d="M3600 583.125h-25"/><path d="M3600 636.25h-25"/><path d="M3600 689.375h-25"/><path d="M3600 742.5h-25"/><path d="M3600 795.625h-25"/><path d="M3600 848.75h-50"/><path d="M3600 901.875h-25"/><path d="M3600 955h-25"/><path d="M3600 1008.125h-25"/><path d="M3600 1061.25h-25"/><path d="M3600 1114.375h-25"/><path d="M3600 1167.5h-25"/><path d="M3600 1220.625h-25"/><path d="M3600 1273.75h-25"/><path d="M3600 1326.875h-25"/><path d="M3600 1380h-50"/><path d="M3600 1433.125h-25"/><path d="M3600 1486.25h-25"/><path d="M3600 1539.375h-25"/><path d="M3600 1592.5h-25"/><path d="M3600 1645.625h-25"/><path d="M3600 1698.75h-25"/><path d="M3600 1751.875h-25"/><path d="M3600 1805h-25"/><path d="M3600 1858.125h-25"/><path d="M3600 1911.25h-50"/><path d="M3600 1964.375h-25"/><path d="M3600 2017.5h-25"/><path d="M3600 2070.625h-25"/><path d="M3600 2123.75h-25"/><path d="M3600 2176.875h-25"/><path d="M3600 2230h-25"/><path d="M3600 2283.125h-25"/><path d="M3600 2336.25h-25"/><path d="M3600 2389.375h-25"/><path d="M3600 2442.5h-50"/><path d="M3600 2495.625h-25"/><path d="M3600 2548.75h-25"/><path d="M3600 2601.875h-25"/><path d="M3600 2655h-25"/></g></g><use x="366.25" y="247" href="#g"/><use x="368.7475" y="247" href="#c"/><use x="372.9175" y="247" href="#d"/><use x="375.0025" y="247" href="#b"/><use x="366.25" y="193.25" href="#g"/><use x="368.7475" y="193.25" href="#e"/><use x="372.9175" y="193.25" href="#d"/><use x="375.0025" y="193.25" href="#c"/><use x="366.25" y="140.125" href="#b"/><use x="370.42" y="140.125" href="#d"/><use x="372.505" y="140.125" href="#b"/><use x="366.25" y="87" href="#e"/><use x="370.42" y="87" href="#d"/><use x="372.505" y="87" href="#c"/><use x="366.25" y="33.875" href="#c"/><use x="370.42" y="33.875" href="#d"/><use x="372.505" y="33.875" href="#b"/><g style="fill:none;stroke-width:12.5;stroke-linecap:round;stroke-miterlimit:10;transform:matrix(.1,0,0,-.1,0,275)"><path stroke="#00008b" d="M200 2372.460938l6.25-3.789063 6.25-4.6875 6.25-5.625L225 2351.875l6.25-7.34375 6.25-8.164062 6.25-8.984376 6.25-9.726562 6.25-10.46875 6.25-11.171875 6.25-11.835937 6.25-12.5 6.25-13.125 6.25-13.710938 6.25-14.257812 6.25-14.84375 6.25-15.3125 6.25-15.820313 6.25-16.289063 6.25-16.71875 6.25-17.109374 6.25-17.5 6.25-17.851563L350 2080.9375l6.25-18.515625 6.25-18.789063 6.25-19.101562 6.25-19.296875 6.25-19.53125 6.25-19.765625 6.25-19.882812L400 1925.9375l6.25-20.195312 6.25-20.351563 6.25-20.46875 6.25-20.507813 6.25-20.585937L443.75 1782.5l6.25-20.703125 12.5-41.328125 6.25-20.625 6.25-20.585938 6.25-20.546874 6.25-20.429688 6.25-20.3125 6.25-20.273438 6.25-20.078124 6.25-20 6.25-19.84375L525 1518.125l6.25-19.53125 6.25-19.296875 6.25-19.140625L550 1441.25l6.25-18.671875 6.25-18.515625 6.25-18.203125 6.25-18.007813 6.25-17.695312 6.25-17.460938 6.25-17.1875 6.25-16.875 6.25-16.601562 6.25-16.289062 6.25-15.976563 6.25-15.664063 6.25-15.3125 6.25-14.960937 6.25-14.648437 6.25-14.296876 6.25-13.90625 6.25-13.554687 6.25-13.203125 6.25-12.773438 6.25-12.421874 6.25-12.03125 6.25-11.601563 6.25-11.25 6.25-10.78125 6.25-10.390625 6.25-9.960938 6.25-9.53125 6.25-9.140624 6.25-8.671876 6.25-8.242187 6.25-7.773437 6.25-7.34375 6.25-6.914063 6.25-6.445313 6.25-5.976562 6.25-5.546875 6.25-5.078125 6.25-4.570312 6.25-4.179688 6.25-3.671875 6.25-3.203125 6.25-2.734375 6.25-2.304687 6.25-1.796876 6.25-1.367187 6.25-.859375 6.25-.429688 6.25.039063 6.25.507813 6.25.976562 6.25 1.445312 6.25 1.875 6.25 2.34375 6.25 2.773438 6.25 3.203125 6.25 3.671875 6.25 4.101562 6.25 4.53125 6.25 4.960938 6.25 5.390625 6.25 5.78125L943.75 985l6.25 6.601562 6.25 6.992188 6.25 7.34375 6.25 7.734375 6.25 8.125 6.25 8.4375 6.25 8.789063 6.25 9.140624 6.25 9.492188 6.25 9.765625 6.25 10.117187 6.25 10.351563 6.25 10.703125 6.25 10.9375 6.25 11.171875 6.25 11.445313 6.25 11.679687 6.25 11.914063 6.25 12.070312 6.25 12.304688 6.25 12.5 6.25 12.617187 6.25 12.773437 6.25 12.929688 6.25 13.046875 6.25 13.125 6.25 13.242187 6.25 13.28125 6.25 13.359376 6.25 13.398437 25 53.75L1162.5 1377.5l6.25 13.320312 6.25 13.28125 6.25 13.164063 6.25 13.046875 6.25 12.96875 6.25 12.8125 6.25 12.65625 6.25 12.539062 6.25 12.304688 6.25 12.109375 6.25 11.953125 6.25 11.679688 6.25 11.445312 6.25 11.210938 6.25 10.9375 6.25 10.664062 6.25 10.351562 6.25 10.078126 6.25 9.726562 6.25 9.414062 6.25 9.0625 6.25 8.710938 6.25 8.320312 6.25 7.96875 6.25 7.578126 6.25 7.1875 6.25 6.796874 6.25 6.367188 6.25 5.9375 6.25 5.507812 6.25 5.078126 6.25 4.648437 6.25 4.179687 6.25 3.75 6.25 3.28125 6.25 2.8125 6.25 2.34375 6.25 1.914063 6.25 1.40625 6.25.9375 6.25.507813h6.25l6.25-.46875 6.25-.9375 6.25-1.40625 6.25-1.875 6.25-2.304688 6.25-2.8125 6.25-3.242188 6.25-3.671874 6.25-4.140626 6.25-4.570312 6.25-5 6.25-5.46875 6.25-5.820312 6.25-6.25 6.25-6.640626 6.25-7.03125 6.25-7.382812 6.25-7.8125 6.25-8.085938 6.25-8.476562 6.25-8.789062 6.25-9.140626 6.25-9.414062 6.25-9.6875 6.25-10 6.25-10.234375 6.25-10.46875L1600 1545.625l6.25-10.9375 6.25-11.132812 6.25-11.289063 6.25-11.484375 6.25-11.601562 6.25-11.757813 6.25-11.835937 6.25-11.992188 6.25-12.03125 6.25-12.070312 31.25-60.742188 6.25-12.070312 6.25-11.992188 6.25-11.953125 6.25-11.835937 6.25-11.679688 6.25-11.5625 6.25-11.445312 6.25-11.25 6.25-11.054688 6.25-10.859375 6.25-10.625 6.25-10.429687 6.25-10.15625 6.25-9.882813 6.25-9.609375 6.25-9.335938 6.25-8.984374 6.25-8.710938 6.25-8.359375 6.25-8.007813 6.25-7.65625 6.25-7.265624 6.25-6.914063 6.25-6.523437 6.25-6.132813 6.25-5.703125 6.25-5.273438 6.25-4.882812 6.25-4.453125 6.25-3.984375 6.25-3.59375 6.25-3.085938 6.25-2.695312 6.25-2.1875 6.25-1.757812 6.25-1.289063 6.25-.820313 6.25-.390624 6.25.078124 6.25.546876 6.25 1.054687 6.25 1.445313 6.25 1.914062 6.25 2.421875 6.25 2.8125 6.25 3.242187 6.25 3.710938 6.25 4.140625 6.25 4.570313 6.25 4.960937 6.25 5.390625 6.25 5.78125 6.25 6.171875 6.25 6.5625 6.25 6.914063 6.25 7.265624 6.25 7.617188 6.25 7.96875 6.25 8.28125 6.25 8.554688 6.25 8.90625 6.25 9.140624 6.25 9.414063 6.25 9.6875 6.25 9.882813 6.25 10.117187 6.25 10.351563 6.25 10.46875 6.25 10.703124 6.25 10.820313 6.25 10.976563 6.25 11.054687 6.25 11.171875 12.5 22.578125 6.25 11.367187 18.75 34.21875 6.25 11.367188 6.25 11.328125 6.25 11.25 6.25 11.171875 6.25 11.09375 6.25 10.976562 6.25 10.820313 6.25 10.664063 6.25 10.507812 6.25 10.351562 6.25 10.117188 6.25 9.921875 6.25 9.6875 6.25 9.414063 6.25 9.179687 6.25 8.90625 6.25 8.59375 6.25 8.28125 6.25 8.007813 6.25 7.65625 6.25 7.304687 6.25 6.953125 6.25 6.601562 6.25 6.210938 6.25 5.859375 6.25 5.429687 6.25 5.078126 6.25 4.609374 6.25 4.21875 6.25 3.828126 6.25 3.359374 6.25 2.929688 6.25 2.5 6.25 2.070312 6.25 1.601563 6.25 1.171875 6.25.742188 6.25.234374 6.25-.15625 6.25-.625 6.25-1.054687 6.25-1.523437 6.25-1.953126 6.25-2.421874 6.25-2.8125 6.25-3.28125 6.25-3.671876L2487.5 1635l6.25-4.492188 6.25-4.921874 6.25-5.3125 6.25-5.703126 6.25-6.09375 6.25-6.445312 6.25-6.796875 6.25-7.109375 6.25-7.5 6.25-7.8125 6.25-8.085938 6.25-8.398437 6.25-8.671875 6.25-8.945312 6.25-9.179688 6.25-9.453125 6.25-9.648437 6.25-9.84375 6.25-10.078126 6.25-10.195312 6.25-10.390625 6.25-10.507813 6.25-10.625 6.25-10.78125 6.25-10.820312 6.25-10.898438 18.75-32.929687 6.25-11.015625 12.5-21.953125 6.25-10.859375 6.25-10.820312 6.25-10.742188 6.25-10.625 6.25-10.46875 6.25-10.351562 6.25-10.195313 6.25-10.039063 6.25-9.804687 6.25-9.648437 6.25-9.375 6.25-9.179688 6.25-8.90625 6.25-8.632812 6.25-8.359376 6.25-8.046874 6.25-7.773438 6.25-7.421875 6.25-7.109375 6.25-6.757812 6.25-6.40625 6.25-6.015626 6.25-5.664062 6.25-5.273438 6.25-4.921874 6.25-4.453126 6.25-4.101562 6.25-3.671875 6.25-3.242187 6.25-2.8125 6.25-2.421876 6.25-1.953124 6.25-1.523438 6.25-1.09375 6.25-.625 6.25-.234375 6.25.234375 6.25.703125 6.25 1.09375 6.25 1.523437 6.25 1.992188 6.25 2.421875 6.25 2.851563 6.25 3.242187 6.25 3.671875 6.25 4.101562 6.25 4.492188 6.25 4.921875 6.25 5.234375 6.25 5.664062 6.25 6.054688 6.25 6.367188 6.25 6.757812 6.25 7.070312 6.25 7.382813 6.25 7.734375 6.25 8.007812 6.25 8.320313 6.25 8.59375 6.25 8.828125 6.25 9.101562 6.25 9.296876 6.25 9.53125 6.25 9.726562 6.25 9.960938 6.25 10.078124 6.25 10.234376 6.25 10.390624 6.25 10.46875 6.25 10.625 6.25 10.664063 6.25 10.742187 18.75 32.460938 6.25 10.859375 12.5 21.5625 6.25 10.703125 6.25 10.664062 6.25 10.507813 6.25 10.429687 6.25 10.3125 6.25 10.195313 6.25 10 6.25 9.804687 6.25 9.648438 6.25 9.414062 6.25 9.21875 6.25 8.945313 6.25 8.710937 6.25 8.476563 6.25 8.125 6.25 7.890625 6.25 7.539062 6.25 7.226563 6.25 6.914063 6.25 6.5625 6.25 6.210937 6.25 5.859375 6.25 5.46875 6.25 5.117188 6.25 4.6875 6.25 4.296874 6.25 3.90625 6.25 3.476563 6.25 3.085937 6.25 2.65625 6.25 2.226563 6.25 1.757813 6.25 1.367187 6.25.9375 6.25.46875 6.25.078125 6.25-.390625 6.25-.820313 6.25-1.25 6.25-1.679687 6.25-2.148437 6.25-2.539063 6.25-2.96875 6.25-3.398437 6.25-3.789063 6.25-4.179687 6.25-4.609376 6.25-5 6.25-5.390624 6.25-5.742188 6.25-6.09375 6.25-6.484375 6.25-6.796875 6.25-7.148438 6.25-7.460937 6.25-7.773437 6.25-8.085938 6.25-8.359375 6.25-8.632813 6.25-8.867187 6.25-9.101563 6.25-9.375 6.25-9.53125 6.25-9.765624 6.25-9.921876 6.25-10.078124 6.25-10.234376L3600 1448.75"/><path stroke="#006400" d="M200 247.460938l6.25 24.648437 6.25 25.78125 6.25 26.835937 6.25 27.851563 6.25 28.828125 6.25 29.6875 6.25 30.46875 6.25 31.25 6.25 31.953125 6.25 32.539063 6.25 33.125 6.25 33.59375 6.25 34.0625 6.25 34.375 6.25 34.726562 6.25 34.960938 6.25 35.15625 6.25 35.3125 18.75 106.054687 6.25 35.234375 6.25 35.078125 6.25 34.882813 6.25 34.648437 6.25 34.335937 6.25 33.984376 6.25 33.59375 6.25 33.164062 6.25 32.65625 6.25 32.148438 6.25 31.5625 6.25 30.976562 6.25 30.351562 6.25 29.648438 6.25 28.945312 6.25 28.203126 6.25 27.421874 6.25 26.640626 6.25 25.78125 6.25 24.921874 6.25 24.101563 6.25 23.164063 6.25 22.265624 6.25 21.328126 6.25 20.351562 6.25 19.414062 6.25 18.4375 6.25 17.421876 6.25 16.445312 6.25 15.46875 6.25 14.414062 6.25 13.4375 6.25 12.421876 6.25 11.367187 6.25 10.390625 6.25 9.375 6.25 8.398438 6.25 7.34375 6.25 6.367187 6.25 5.429687 6.25 4.414063 6.25 3.4375 6.25 2.539063 6.25 1.5625 6.25.664062 6.25-.234375 6.25-1.132813 6.25-1.953124 6.25-2.851563 6.25-3.632813 6.25-4.453124 6.25-5.195313 6.25-5.976563 6.25-6.679687 6.25-7.421875 6.25-8.046875 6.25-8.710937 6.25-9.335938 6.25-9.921875 6.25-10.46875 6.25-11.015625 6.25-11.523438 6.25-11.953124 6.25-12.460938 6.25-12.8125 6.25-13.203125 6.25-13.554687 6.25-13.867188 6.25-14.179688 6.25-14.414062 6.25-14.609375 6.25-14.804687 6.25-15 6.25-15.117188 6.25-15.195312 12.5-30.546876 6.25-15.351562 12.5-30.546875 6.25-15.15625 6.25-15.039063 6.25-14.921874 6.25-14.765626 6.25-14.570312 6.25-14.375 6.25-14.140625 6.25-13.867187 6.25-13.632813 6.25-13.28125 6.25-12.96875 6.25-12.617187 6.25-12.265626 6.25-11.875 6.25-11.445312 6.25-11.09375L937.5 1260l6.25-10.15625 6.25-9.726562 6.25-9.257813 6.25-8.75 6.25-8.28125 6.25-7.773437 6.25-7.226563 6.25-6.71875 6.25-6.210937 6.25-5.664063 6.25-5.117187 6.25-4.609376 6.25-4.023437 6.25-3.515625 6.25-2.929688 6.25-2.421874 6.25-1.875 6.25-1.328126 6.25-.78125 6.25-.273437 6.25.273437 6.25.78125 6.25 1.289063 6.25 1.796875 6.25 2.265625 6.25 2.8125 6.25 3.203125 6.25 3.75 6.25 4.140625 6.25 4.609375 6.25 5 6.25 5.429688 6.25 5.820312 6.25 6.210938 6.25 6.5625 6.25 6.914062 6.25 7.265625 6.25 7.539063 6.25 7.851562 6.25 8.085938 6.25 8.398437 6.25 8.59375 6.25 8.828125 6.25 9.023438 6.25 9.21875 6.25 9.375 6.25 9.492187 6.25 9.609375 6.25 9.726562 6.25 9.765626 6.25 9.84375 12.5 19.765624 6.25 9.921876 12.5 19.6875 6.25 9.765624 6.25 9.648438 6.25 9.570312 6.25 9.453126 6.25 9.296874 6.25 9.179688 6.25 8.945312 6.25 8.789063 6.25 8.554687 6.25 8.359376 6.25 8.125 6.25 7.8125 6.25 7.578124 6.25 7.304688 6.25 6.953125 6.25 6.679687 6.25 6.367188 6.25 6.015625 6.25 5.664063 6.25 5.3125 6.25 4.921874 6.25 4.570313 6.25 4.179687 6.25 3.789063 6.25 3.398437 6.25 3.007813 6.25 2.578125 6.25 2.1875 6.25 1.757812 6.25 1.328126 6.25.898437 6.25.507813 6.25.078124 6.25-.351562 6.25-.742188 6.25-1.210937 6.25-1.5625 6.25-2.03125 6.25-2.382813 6.25-2.851562 6.25-3.203125 6.25-3.59375 6.25-3.984375 6.25-4.335938 6.25-4.726562 6.25-5.078125 6.25-5.429687 6.25-5.78125 6.25-6.054688 6.25-6.40625 6.25-6.71875 6.25-6.992188 6.25-7.226562 6.25-7.539062 6.25-7.773438 6.25-8.007812 6.25-8.203126 6.25-8.4375 6.25-8.632812 6.25-8.75 6.25-8.945312 6.25-9.0625 6.25-9.21875 6.25-9.296876 6.25-9.375 12.5-18.984374 6.25-9.53125 12.5-19.140626 12.5-19.0625 6.25-9.453124 6.25-9.375 6.25-9.296876 6.25-9.21875 6.25-9.0625 6.25-8.945312 6.25-8.789062 6.25-8.632813 6.25-8.4375 6.25-8.242187 6.25-8.046876 6.25-7.773437 6.25-7.578125 6.25-7.265625 6.25-7.03125 6.25-6.71875 6.25-6.484375 6.25-6.132812 6.25-5.820313 6.25-5.46875 6.25-5.15625 6.25-4.804687 6.25-4.453126 6.25-4.101562 6.25-3.671875 6.25-3.359375 6.25-2.929688 6.25-2.539062 6.25-2.148438 6.25-1.757812 6.25-1.367188 6.25-.9375 6.25-.507812 6.25-.117188 6.25.273438 6.25.703125 6.25 1.09375 6.25 1.523437 6.25 1.953126 6.25 2.304687 6.25 2.734375 6.25 3.125 6.25 3.515625 6.25 3.90625 6.25 4.296875 6.25 4.648438 6.25 5.039062 6.25 5.351562 6.25 5.742188 6.25 6.054688 6.25 6.367187 6.25 6.71875 6.25 7.03125 6.25 7.304687 6.25 7.578126 6.25 7.851562 6.25 8.125 6.25 8.320312 6.25 8.59375 6.25 8.828126 6.25 8.984374 6.25 9.179688 6.25 9.375 6.25 9.492188 6.25 9.648437 6.25 9.765625 6.25 9.84375 6.25 9.960938 6.25 10.039062 6.25 10.078125 12.5 20.234375 6.25 10.15625 12.5 20.234375 6.25 10.039063 6.25 10 6.25 9.882812 6.25 9.804688 6.25 9.6875 6.25 9.53125 6.25 9.414062 6.25 9.21875 6.25 9.101562 6.25 8.828126 6.25 8.671874 6.25 8.4375 6.25 8.164063 6.25 7.929687 6.25 7.695313 6.25 7.382813 6.25 7.070312 6.25 6.796875 6.25 6.484375 6.25 6.132812 6.25 5.820313 6.25 5.46875 6.25 5.078125 6.25 4.726562 6.25 4.375 6.25 3.984376 6.25 3.59375L2381.25 1625l6.25 2.773438 6.25 2.421874 6.25 1.953126 6.25 1.5625 6.25 1.132812 6.25.703125 6.25.3125 6.25-.117187 6.25-.546876 6.25-.976562 6.25-1.367188 6.25-1.796874 6.25-2.226563 6.25-2.617187 6.25-3.046876 6.25-3.4375 6.25-3.867187 6.25-4.21875 6.25-4.609375 6.25-5 6.25-5.390625 6.25-5.703125 6.25-6.09375 6.25-6.40625 6.25-6.757812 6.25-7.070313 6.25-7.382813 6.25-7.695312 6.25-7.96875 6.25-8.203125 6.25-8.515625 6.25-8.75 6.25-8.945312 6.25-9.179688 6.25-9.414062 6.25-9.570313 6.25-9.726563 6.25-9.921874 6.25-10.039063 6.25-10.15625 6.25-10.234375 6.25-10.351562L2650 1408.125l6.25-10.46875 12.5-21.015625 6.25-10.546875 6.25-10.507812 6.25-10.46875 6.25-10.429688 6.25-10.351562 6.25-10.273438 6.25-10.195312 6.25-10.039063 6.25-9.921875 6.25-9.765625 6.25-9.609375 6.25-9.414062 6.25-9.21875 6.25-9.023438 6.25-8.75 6.25-8.554688 6.25-8.28125 6.25-8.007812 6.25-7.695312 6.25-7.421876 6.25-7.109374 6.25-6.796876 6.25-6.445312 6.25-6.132812 6.25-5.78125 6.25-5.390626 6.25-5 6.25-4.648437 6.25-4.257813 6.25-3.867187 6.25-3.4375 6.25-3.085937 6.25-2.617188 6.25-2.226562 6.25-1.796876 6.25-1.367187 6.25-.9375 6.25-.546875 6.25-.078125 6.25.351563 6.25.78125 6.25 1.171874 6.25 1.640626 6.25 2.070312 6.25 2.460938 6.25 2.890624 6.25 3.28125L2968.75 1135l6.25 4.101562 6.25 4.53125 6.25 4.882813 6.25 5.273437 6.25 5.625 6.25 6.015626 6.25 6.367187 6.25 6.679687 6.25 7.03125 6.25 7.34375 6.25 7.65625 6.25 7.96875 6.25 8.242188 6.25 8.476562 6.25 8.75 6.25 9.023438 6.25 9.21875 6.25 9.414062 6.25 9.648438 6.25 9.804688 6.25 10 6.25 10.117187 6.25 10.234375 6.25 10.390625 6.25 10.46875 6.25 10.546875 6.25 10.585938 6.25 10.664062 12.5 21.40625 12.5 21.328125 6.25 10.625 6.25 10.585937 6.25 10.46875 6.25 10.390626 6.25 10.273437 6.25 10.15625 6.25 10.039063 6.25 9.84375 6.25 9.6875 6.25 9.492187 6.25 9.257813 6.25 9.0625 6.25 8.828124 6.25 8.554688 6.25 8.28125 6.25 8.046875 6.25 7.734375 6.25 7.421875 6.25 7.070313 6.25 6.796874 6.25 6.445313 6.25 6.054687 6.25 5.742188 6.25 5.351562 6.25 4.960938 6.25 4.570312 6.25 4.179688 6.25 3.789062 6.25 3.398438 6.25 2.96875 6.25 2.539062 6.25 2.109376 6.25 1.679687 6.25 1.289063 6.25.820312 6.25.429688 6.25-.039063 6.25-.46875 6.25-.898437 6.25-1.328126L3425 1641.25l6.25-2.1875 6.25-2.617188 6.25-3.007812 6.25-3.476562 6.25-3.828126 6.25-4.257812 6.25-4.648438 6.25-5.039062 6.25-5.390625 6.25-5.78125 6.25-6.171875 6.25-6.484375 6.25-6.835937 6.25-7.148438 6.25-7.5 6.25-7.8125 6.25-8.046875 6.25-8.359375 6.25-8.632812 6.25-8.90625 6.25-9.101563 6.25-9.375 6.25-9.53125 6.25-9.726563 6.25-9.921874 6.25-10.078126 6.25-10.234374 6.25-10.3125"/><path stroke="#8b0000" d="M200 1309.960938l6.25 10.429687 6.25 10.546875 6.25 10.625 6.25 10.664062 12.5 21.484376 6.25 10.78125 12.5 21.484374 6.25 10.703126 6.25 10.625 6.25 10.546874 6.25 10.46875 6.25 10.351563 6.25 10.195313 6.25 10.078124 6.25 9.921876 6.25 9.726562 6.25 9.53125 6.25 9.335938 6.25 9.101562 6.25 8.90625 6.25 8.59375 6.25 8.359375 6.25 8.046875 6.25 7.773438 6.25 7.460937 6.25 7.109375 6.25 6.835938 6.25 6.445312 6.25 6.132812 6.25 5.742188 6.25 5.390625 6.25 4.960937 6.25 4.609376 6.25 4.21875 6.25 3.789062 6.25 3.398438 6.25 2.96875 6.25 2.578124 6.25 2.109376 6.25 1.71875 6.25 1.25 6.25.859374 6.25.390626 6.25-.039063 6.25-.46875 6.25-.898437 6.25-1.328126 6.25-1.757812 6.25-2.1875 6.25-2.65625 6.25-3.007812 6.25-3.476563 6.25-3.867187 6.25-4.257813 6.25-4.648437 6.25-5.039063 6.25-5.46875 6.25-5.78125 6.25-6.171875 6.25-6.523438 6.25-6.835937 6.25-7.1875 6.25-7.5 6.25-7.8125 6.25-8.125 6.25-8.398437 6.25-8.632813 6.25-8.90625 6.25-9.140625 6.25-9.375 6.25-9.570312 6.25-9.765626 6.25-9.921874 6.25-10.117188 6.25-10.234375 6.25-10.351563 6.25-10.46875 6.25-10.585937 6.25-10.625 6.25-10.703125 6.25-10.742188 6.25-10.78125 18.75-32.226562 6.25-10.664062 6.25-10.625 6.25-10.507813 6.25-10.429687 6.25-10.3125 6.25-10.195313 6.25-10 6.25-9.84375 6.25-9.6875 6.25-9.492187 6.25-9.257813 6.25-9.023437 6.25-8.789063 6.25-8.515625L837.5 1205l6.25-7.96875 6.25-7.65625 6.25-7.34375 6.25-7.070312 6.25-6.679688 6.25-6.367188 6.25-5.976562 6.25-5.625 6.25-5.273438 6.25-4.882812 6.25-4.453125 6.25-4.101563 6.25-3.671874 6.25-3.242188 6.25-2.851562 6.25-2.421876 6.25-1.992187 6.25-1.5625 6.25-1.132813 6.25-.703124 6.25-.273438 6.25.195312 6.25.585938 6.25 1.054688 6.25 1.445312 6.25 1.914062 6.25 2.34375 6.25 2.734376 6.25 3.164062 6.25 3.59375 6.25 3.984375 6.25 4.375 6.25 4.804687 6.25 5.15625 6.25 5.585938 6.25 5.898438 6.25 6.289062 6.25 6.640625 6.25 6.953125 6.25 7.265625 6.25 7.617187 6.25 7.929688 6.25 8.164062 6.25 8.476563 6.25 8.75 6.25 8.984375 6.25 9.179688 6.25 9.453124 6.25 9.609376 6.25 9.84375 6.25 10 6.25 10.117187 6.25 10.273437 6.25 10.429688 6.25 10.507812 6.25 10.585938 6.25 10.664062 6.25 10.703126 6.25 10.742187 12.5 21.5625 6.25 10.703125 6.25 10.742188 6.25 10.664062 6.25 10.546875 6.25 10.507813 6.25 10.390624 6.25 10.273438 6.25 10.117188 6.25 10 6.25 9.804687 6.25 9.609375 6.25 9.414062 6.25 9.179688 6.25 8.945312 6.25 8.710938 6.25 8.4375 6.25 8.164062 6.25 7.890626 6.25 7.578124 6.25 7.265626 6.25 6.914062 6.25 6.601562 6.25 6.25 6.25 5.859376 6.25 5.507812 6.25 5.15625 6.25 4.726562 6.25 4.375 6.25 3.945313 6.25 3.515625 6.25 3.164062 6.25 2.695313 6.25 2.304687 6.25 1.835938 6.25 1.445312 6.25.976563 6.25.546875 6.25.15625 6.25-.3125 6.25-.742188 6.25-1.171874 6.25-1.640626 6.25-2.03125 6.25-2.460937 6.25-2.851563 6.25-3.320312 6.25-3.710938 6.25-4.140624 6.25-4.492188 6.25-4.921875 6.25-5.3125 6.25-5.664063 6.25-6.015624 6.25-6.40625 6.25-6.71875 6.25-7.070313 6.25-7.382813 6.25-7.695312 6.25-8.007812 6.25-8.28125 6.25-8.554688 6.25-8.828125 6.25-9.0625 6.25-9.257813 6.25-9.492187 6.25-9.6875 6.25-9.882813 6.25-10.039062 6.25-10.195312 6.25-10.351563 6.25-10.429687 6.25-10.507813 6.25-10.625 12.5-21.40625 6.25-10.78125 6.25-10.742187 6.25-10.78125 6.25-10.742188 12.5-21.328125 6.25-10.546875 6.25-10.46875 6.25-10.351562 6.25-10.234376 6.25-10.078124 6.25-9.921876 6.25-9.726562 6.25-9.570312 6.25-9.335938 6.25-9.101562 6.25-8.90625 6.25-8.59375 6.25-8.359376 6.25-8.085937 6.25-7.773437 6.25-7.460938 6.25-7.148438 6.25-6.835937 6.25-6.484375 6.25-6.132812 6.25-5.78125 6.25-5.390626 6.25-5 6.25-4.609374 6.25-4.257813 6.25-3.828125 6.25-3.398438 6.25-3.007812 6.25-2.578125 6.25-2.148437 6.25-1.71875 6.25-1.289063 6.25-.859375 6.25-.429688 6.25.039063 6.25.429687 6.25.898438 6.25 1.289062 6.25 1.757813 6.25 2.148437 6.25 2.617188 6.25 3.007812 6.25 3.4375 6.25 3.867188 6.25 4.257812 6.25 4.609376 6.25 5.039062 6.25 5.429688 6.25 5.78125 6.25 6.132812 6.25 6.523438 6.25 6.796874 6.25 7.1875 6.25 7.5 6.25 7.773438 6.25 8.125 6.25 8.359375 6.25 8.632813 6.25 8.90625 6.25 9.101562 6.25 9.375 6.25 9.570312 6.25 9.726563 6.25 9.921875 6.25 10.117188 6.25 10.234374 6.25 10.351563 6.25 10.46875 6.25 10.585937 6.25 10.625 6.25 10.703126 12.5 21.484374 6.25 10.78125 12.5 21.484376 6.25 10.664062 6.25 10.625 6.25 10.507812 6.25 10.429688 6.25 10.3125 6.25 10.195312 6.25 10.039063 6.25 9.84375 6.25 9.6875 6.25 9.492187 6.25 9.257813 6.25 9.0625 6.25 8.789063 6.25 8.554687 6.25 8.28125 6.25 7.96875 6.25 7.695313 6.25 7.382812 6.25 7.03125 6.25 6.71875 6.25 6.367188 6.25 6.015624 6.25 5.664063 6.25 5.273437 6.25 4.882813 6.25 4.492187 6.25 4.101563 6.25 3.671875 6.25 3.320312 6.25 2.851563 6.25 2.421875L2400 1642.5l6.25 1.5625 6.25 1.171875 6.25.742187 6.25.273438 6.25-.15625 6.25-.585938 6.25-1.015624 6.25-1.445313 6.25-1.875 6.25-2.304687 6.25-2.734376 6.25-3.164062 6.25-3.554688 6.25-3.984374 6.25-4.375 6.25-4.765626 6.25-5.15625 6.25-5.507812 6.25-5.898438 6.25-6.289062 6.25-6.601562 6.25-6.953126 6.25-7.265624 6.25-7.578126 6.25-7.890624 6.25-8.203126 6.25-8.4375 6.25-8.710937 6.25-8.984375 6.25-9.21875 6.25-9.414062 6.25-9.609376 6.25-9.804687 6.25-10 6.25-10.117187L2625 1454.375l6.25-10.429688 6.25-10.46875 12.5-21.25L2668.75 1380l6.25-10.78125 6.25-10.742188 6.25-10.703124 6.25-10.664063 6.25-10.585937 6.25-10.507813 6.25-10.390625 6.25-10.273438 6.25-10.15625 6.25-9.960937 6.25-9.84375 6.25-9.609375 6.25-9.414062 6.25-9.179688 6.25-8.984375 6.25-8.710937 6.25-8.476563 6.25-8.164063 6.25-7.890624 6.25-7.578126 6.25-7.265624 6.25-6.992188 6.25-6.601562 6.25-6.25 6.25-5.898438 6.25-5.507812 6.25-5.15625 6.25-4.765626 6.25-4.375 6.25-3.984374 6.25-3.554688 6.25-3.164062 6.25-2.734376 6.25-2.304687 6.25-1.875 6.25-1.445313 6.25-1.015624 6.25-.585938 6.25-.15625 6.25.3125 6.25.703125 6.25 1.171875 6.25 1.5625 6.25 2.03125 6.25 2.421875 6.25 2.890625 6.25 3.28125 6.25 3.710938 6.25 4.0625 6.25 4.492187 6.25 4.921875 6.25 5.273438 6.25 5.625 6.25 6.015624 6.25 6.367188 6.25 6.71875 6.25 7.070312 6.25 7.382813 6.25 7.695313 6.25 7.96875 6.25 8.28125 6.25 8.515624 6.25 8.828126 6.25 9.023437 6.25 9.296875 6.25 9.453125 6.25 9.726563 6.25 9.84375 6.25 10.039062 6.25 10.15625 6.25 10.351562 6.25 10.429688 6.25 10.507812 6.25 10.625 6.25 10.664063 12.5 21.484375 6.25 10.78125 12.5 21.484375L3175 1415.625l6.25 10.664062 6.25 10.546876 6.25 10.46875 6.25 10.351562 6.25 10.234375 6.25 10.078125 6.25 9.921875 6.25 9.765625 6.25 9.570312 6.25 9.335938 6.25 9.140625 6.25 8.90625 6.25 8.632813 6.25 8.359374 6.25 8.085938 6.25 7.8125 6.25 7.460938 6.25 7.1875 6.25 6.835937 6.25 6.523437 6.25 6.132813 6.25 5.78125 6.25 5.390625 6.25 5.039062 6.25 4.648438 6.25 4.257812 6.25 3.828126 6.25 3.4375 6.25 3.007812 6.25 2.617188 6.25 2.148437 6.25 1.757813 6.25 1.289062 6.25.898438 6.25.429687 6.25.039063 6.25-.429688 6.25-.859375 6.25-1.289063 6.25-1.71875 6.25-2.148437 6.25-2.578125 6.25-3.007812 6.25-3.4375 6.25-3.789063 6.25-4.257813 6.25-4.609374 6.25-5 6.25-5.390626 6.25-5.78125 6.25-6.132812 6.25-6.484375 6.25-6.835937 6.25-7.148438 6.25-7.460938 6.25-7.773437 6.25-8.085937 6.25-8.359376L3543.75 1535l6.25-8.867188 6.25-9.140624 6.25-9.335938 6.25-9.53125 6.25-9.765625 6.25-9.921875 6.25-10.078125 6.25-10.234375 6.25-10.351562"/><path stroke="#f0f" d="M200 1734.960938l6.25-9.6875 6.25-9.648438 6.25-9.53125 6.25-9.453125 6.25-9.335937 6.25-9.257813 6.25-9.140625 6.25-9.023438 6.25-8.867187 6.25-8.75 6.25-8.671875 6.25-8.476562 6.25-8.359376 6.25-8.203124 6.25-8.046876 6.25-7.929687 6.25-7.8125 6.25-7.617187 6.25-7.5 6.25-7.34375 6.25-7.226563 6.25-7.070313 6.25-6.953124 6.25-6.796876 6.25-6.679687 6.25-6.5625 6.25-6.445313 6.25-6.328124 6.25-6.210938 6.25-6.132812 6.25-6.015626 6.25-5.898437 6.25-5.859375 6.25-5.742188 6.25-5.664062 6.25-5.585938 6.25-5.507812 6.25-5.46875 6.25-5.429688 12.5-10.703124 6.25-5.273438 12.5-10.46875 12.5-10.390625 43.75-36.09375 18.75-15.585937 12.5-10.46875 12.5-10.546876 12.5-10.625 12.5-10.703124 18.75-16.171876 31.25-27.148437 6.25-5.390625 6.25-5.429688 6.25-5.390624 12.5-10.703126 12.5-10.546874 12.5-10.390626 6.25-5.078124 6.25-5.039063 6.25-4.960937 6.25-4.882813 6.25-4.765625 6.25-4.726562 6.25-4.570313 6.25-4.453125 6.25-4.375 6.25-4.21875 6.25-4.101562 6.25-3.945313 6.25-3.789063 6.25-3.632812 6.25-3.4375 6.25-3.320312 6.25-3.085938 6.25-2.890625 6.25-2.734375 6.25-2.5 6.25-2.265625 6.25-2.070313 6.25-1.835937 6.25-1.601563 6.25-1.367187 6.25-1.132813 6.25-.859374 6.25-.585938 6.25-.351562 6.25-.078126 6.25.195313 6.25.507813 6.25.742187 6.25 1.054687 6.25 1.328126 6.25 1.601562 6.25 1.914062 6.25 2.1875 6.25 2.5 6.25 2.773438 6.25 3.085938 6.25 3.398437 6.25 3.632813 6.25 3.984374 6.25 4.21875 6.25 4.53125 6.25 4.84375 6.25 5.078126 6.25 5.390624 6.25 5.664063 6.25 5.898437 6.25 6.210938 6.25 6.445312 6.25 6.679688 6.25 6.914062 6.25 7.1875 6.25 7.382813 6.25 7.65625 6.25 7.8125 6.25 8.046875 6.25 8.242188 6.25 8.398437 6.25 8.59375 6.25 8.75 6.25 8.945313 6.25 9.023437 6.25 9.179687 6.25 9.296876 6.25 9.414062 6.25 9.492188 6.25 9.570312 6.25 9.648438 6.25 9.6875 31.25 48.828124 6.25 9.726563 6.25 9.6875 6.25 9.648437 6.25 9.570313 6.25 9.453125 6.25 9.414062 6.25 9.21875 6.25 9.140626 6.25 9.023437 6.25 8.828125 6.25 8.671875 6.25 8.476563 6.25 8.28125 6.25 8.085937 6.25 7.851563 6.25 7.617187 6.25 7.382813 6.25 7.109374 6.25 6.875 6.25 6.523438 6.25 6.289062 6.25 5.976563 6.25 5.664063 6.25 5.3125 6.25 5 6.25 4.6875 6.25 4.296874 6.25 3.984376 6.25 3.59375 6.25 3.203124 6.25 2.851563 6.25 2.460937 6.25 2.109376 6.25 1.679687 6.25 1.289063 6.25.9375 6.25.46875 6.25.117187 6.25-.3125 6.25-.703125 6.25-1.132812 6.25-1.484376 6.25-1.914062 6.25-2.34375 6.25-2.695312 6.25-3.125 6.25-3.515626 6.25-3.867187 6.25-4.296875 6.25-4.648438 6.25-5 6.25-5.390624 6.25-5.742188 6.25-6.09375 6.25-6.40625 6.25-6.796875 6.25-7.070313 6.25-7.382812 6.25-7.695312 6.25-7.96875 6.25-8.28125 6.25-8.515626 6.25-8.789062 6.25-8.984375 6.25-9.257813 6.25-9.453124 6.25-9.648438 6.25-9.84375 6.25-10 6.25-10.15625 6.25-10.3125 6.25-10.429688 6.25-10.507812 6.25-10.625 6.25-10.703125 6.25-10.742187 18.75-32.460938 6.25-10.859375 6.25-10.78125 12.5-21.484375 6.25-10.585938 6.25-10.546874 6.25-10.429688 6.25-10.3125 6.25-10.15625 6.25-10 6.25-9.84375 6.25-9.648438 6.25-9.453124 6.25-9.21875 6.25-9.023438 6.25-8.75 6.25-8.476562 6.25-8.203126 6.25-7.929687 6.25-7.617187 6.25-7.34375 6.25-6.992188 6.25-6.679688 6.25-6.289062 6.25-5.976562L1850 1140l6.25-5.234375 6.25-4.84375 6.25-4.453125 6.25-4.0625 6.25-3.632812 6.25-3.242188 6.25-2.851562 6.25-2.382813 6.25-1.992187 6.25-1.5625 6.25-1.132813 6.25-.703125 6.25-.273438 6.25.195313 6.25.585937 6.25 1.054688 6.25 1.445312 6.25 1.914063 6.25 2.304687 6.25 2.773438 6.25 3.164062 6.25 3.554688 6.25 4.023438 6.25 4.375 6.25 4.765624 6.25 5.195313 6.25 5.546875 6.25 5.9375 6.25 6.25 6.25 6.640625 6.25 6.992187 6.25 7.304688 6.25 7.617188 6.25 7.929687 6.25 8.242187 6.25 8.515626 6.25 8.789062 6.25 9.023438 6.25 9.257812 6.25 9.492188 6.25 9.726562 6.25 9.882812 6.25 10.078126 6.25 10.273437 6.25 10.390625 6.25 10.507812 6.25 10.625 6.25 10.703126 6.25 10.820312 6.25 10.859375 31.25 54.6875 6.25 10.859375 6.25 10.820312 6.25 10.703126 6.25 10.664062 6.25 10.507812 6.25 10.429688 6.25 10.234375 6.25 10.078125 6.25 9.921875 6.25 9.726563 6.25 9.53125 6.25 9.257812 6.25 9.0625 6.25 8.789062 6.25 8.515626 6.25 8.242187 6.25 7.929687 6.25 7.65625 6.25 7.304688 6.25 6.992188 6.25 6.640624 6.25 6.289063 6.25 5.9375 6.25 5.546875 6.25 5.15625 6.25 4.765625 6.25 4.414063 6.25 3.984374 6.25 3.554688 6.25 3.125 6.25 2.734375 6.25 2.304687 6.25 1.835938 6.25 1.445312 6.25 1.015626 6.25.546874 6.25.117188 6.25-.3125 6.25-.78125 6.25-1.171875 6.25-1.640625 6.25-2.070312 6.25-2.460938 6.25-2.929688 6.25-3.320312 6.25-3.75 6.25-4.179688 6.25-4.53125 6.25-4.960937 6.25-5.351563 6.25-5.703124 6.25-6.09375 6.25-6.445313 6.25-6.757813 6.25-7.148437 6.25-7.460937 6.25-7.773438 6.25-8.046875 6.25-8.359375 6.25-8.632812 6.25-8.867188 6.25-9.140625 6.25-9.375 6.25-9.570313 6.25-9.765624 6.25-9.960938 6.25-10.117188 6.25-10.3125 6.25-10.429687 6.25-10.507813 6.25-10.664062 6.25-10.703125 6.25-10.78125 18.75-32.578125 6.25-10.898438 12.5-21.640624 6.25-10.742188 6.25-10.703125 6.25-10.585937 6.25-10.46875 6.25-10.390626 6.25-10.195312 6.25-10.039062 6.25-9.882813 6.25-9.6875 6.25-9.492187 6.25-9.257813 6.25-9.023437 6.25-8.75 6.25-8.515626 6.25-8.203124 6.25-7.929688 6.25-7.617188 6.25-7.304687 6.25-6.953125 6.25-6.640625 6.25-6.289063 6.25-5.898437 6.25-5.546875 6.25-5.15625 6.25-4.765625 6.25-4.375 6.25-3.945313 6.25-3.554687 6.25-3.164063L2875 1118.75l6.25-2.304688 6.25-1.835937 6.25-1.445313 6.25-.976562 6.25-.585938 6.25-.117187 6.25.351563 6.25.742187 6.25 1.210937 6.25 1.601563 6.25 2.070313 6.25 2.460937 6.25 2.929687 6.25 3.320313 6.25 3.75 6.25 4.140625 6.25 4.53125 6.25 4.960938 6.25 5.3125 6.25 5.703124 6.25 6.054688 6.25 6.445312 6.25 6.796876 6.25 7.070312 6.25 7.460938 6.25 7.734374 6.25 8.007813L3050 1212.5l6.25 8.59375 6.25 8.867188 6.25 9.101562 6.25 9.335938 6.25 9.53125 6.25 9.726562 6.25 9.921875 6.25 10.117187 6.25 10.195313 6.25 10.390625 6.25 10.507812L3125 1329.375l6.25 10.664062 6.25 10.703126 6.25 10.78125 12.5 21.640624 6.25 10.78125 6.25 10.820313 6.25 10.742187 6.25 10.664063 6.25 10.625 6.25 10.507813 6.25 10.390624 6.25 10.273438 6.25 10.15625 6.25 9.960938 6.25 9.765624 6.25 9.609376 6.25 9.375 6.25 9.179687 6.25 8.90625 6.25 8.671875 6.25 8.398438 6.25 8.125 6.25 7.851562 6.25 7.5 6.25 7.1875 6.25 6.875 6.25 6.523438 6.25 6.171874 6.25 5.78125 6.25 5.429688 6.25 5.078125 6.25 4.648437 6.25 4.257813 6.25 3.867187 6.25 3.4375 6.25 3.007813 6.25 2.617187 6.25 2.1875 6.25 1.757813 6.25 1.328125 6.25.859375 6.25.46875h6.25l6.25-.429687 6.25-.859376 6.25-1.289062 6.25-1.71875 6.25-2.148438 6.25-2.617187 6.25-2.96875 6.25-3.4375 6.25-3.828125 6.25-4.21875 6.25-4.648438 6.25-5 6.25-5.390624 6.25-5.78125 6.25-6.171876 6.25-6.484374 6.25-6.835938 6.25-7.148438 6.25-7.5 6.25-7.8125 6.25-8.085937 6.25-8.359375 6.25-8.632812 6.25-8.90625 6.25-9.140626 6.25-9.335937 6.25-9.570313 6.25-9.765624 6.25-9.921876 6.25-10.117187 6.25-10.234375 6.25-10.390625"/><path stroke="#000" d="M200 884.960938l6.25 30.546874 6.25 30.703126 6.25 30.78125 12.5 61.640624 6.25 30.742188 6.25 30.664062 6.25 30.546876 6.25 30.351562 6.25 30.15625 6.25 29.882812 6.25 29.609376 6.25 29.257812 6.25 28.945312 6.25 28.476563 6.25 28.085937 6.25 27.617188 6.25 27.109375 6.25 26.5625 6.25 26.015625 6.25 25.429688 6.25 24.804687 6.25 24.179687 6.25 23.476563 6.25 22.8125 6.25 22.109375 6.25 21.367188 6.25 20.585937 6.25 19.84375 6.25 19.0625 6.25 18.203125 6.25 17.421875 6.25 16.5625 6.25 15.742187 6.25 14.882813 6.25 14.023437 6.25 13.125 6.25 12.265626 6.25 11.328124 6.25 10.507813 6.25 9.570313 6.25 8.671874 6.25 7.8125 6.25 6.875 6.25 6.015626 6.25 5.117187 6.25 4.21875 6.25 3.359375 6.25 2.5 6.25 1.601562 6.25.78125 6.25-.078124 6.25-.898438 6.25-1.757812 6.25-2.539063 6.25-3.320313 6.25-4.101562 6.25-4.84375 6.25-5.585938 6.25-6.328124 6.25-7.03125 6.25-7.695313 6.25-8.398437 6.25-8.984376 6.25-9.648437 6.25-10.234375 6.25-10.78125 6.25-11.367188 6.25-11.875 6.25-12.382812 6.25-12.851562 6.25-13.320313 6.25-13.710937 6.25-14.101563 6.25-14.492187 6.25-14.84375 6.25-15.15625 6.25-15.429688 6.25-15.664062 6.25-15.9375 6.25-16.132813 6.25-16.289063 6.25-16.445312 6.25-16.5625 6.25-16.640625 6.25-16.71875 18.75-50.273437 6.25-16.679688 6.25-16.640625 6.25-16.523437 6.25-16.40625 6.25-16.25 6.25-16.09375L800 1360l6.25-15.664062 6.25-15.429688 6.25-15.15625 6.25-14.84375 6.25-14.570312 6.25-14.21875 6.25-13.867188 6.25-13.515625 6.25-13.125 6.25-12.695313 6.25-12.265624 6.25-11.875 6.25-11.367188 6.25-10.9375 6.25-10.429688 6.25-9.960937 6.25-9.414063 6.25-8.90625 6.25-8.398437 6.25-7.851563 6.25-7.304687 6.25-6.757813 6.25-6.171874 6.25-5.625 6.25-5.078126 6.25-4.453124 6.25-3.90625 6.25-3.320313 6.25-2.773437 6.25-2.148438 6.25-1.601562 6.25-1.015626 6.25-.429687 6.25.117187 6.25.703126 6.25 1.25 6.25 1.796874 6.25 2.34375 6.25 2.890626 6.25 3.398437 6.25 3.90625 6.25 4.453125 6.25 4.921875 6.25 5.429687 6.25 5.898438 6.25 6.328125 6.25 6.796875 6.25 7.226562L1106.25 1130l6.25 8.046875 6.25 8.398437 6.25 8.789063 6.25 9.140625 6.25 9.453125 6.25 9.765625 6.25 10.039062 6.25 10.351563 6.25 10.585937 6.25 10.820313 6.25 11.054687 6.25 11.25 6.25 11.367188 6.25 11.5625 6.25 11.71875 6.25 11.796875 6.25 11.914063 6.25 11.953124 18.75 36.09375 6.25 12.070313 6.25 11.992187 6.25 11.953126 6.25 11.875 6.25 11.757812 6.25 11.640625 6.25 11.523437 6.25 11.367188 6.25 11.210938 6.25 11.015624 6.25 10.78125 6.25 10.585938 6.25 10.3125 6.25 10.078125 6.25 9.765625 6.25 9.492188 6.25 9.179687 6.25 8.867187 6.25 8.515626 6.25 8.164062 6.25 7.8125 6.25 7.421875 6.25 7.03125 6.25 6.640625 6.25 6.25 6.25 5.820312 6.25 5.390626 6.25 4.960937 6.25 4.53125 6.25 4.0625 6.25 3.59375 6.25 3.164063 6.25 2.695312 6.25 2.265625 6.25 1.757813 6.25 1.289062 6.25.859375 6.25.351563 6.25-.117188 6.25-.585938 6.25-1.015624 6.25-1.484376 6.25-1.953124 6.25-2.421876 6.25-2.851562 6.25-3.320312 6.25-3.710938 6.25-4.140625 6.25-4.609375 6.25-4.960938 6.25-5.390624 6.25-5.78125 6.25-6.171876 6.25-6.523437 6.25-6.875 6.25-7.226563 6.25-7.539062 6.25-7.890625 6.25-8.164063 6.25-8.4375 6.25-8.75 6.25-8.984374 6.25-9.21875 6.25-9.453126 6.25-9.648437 6.25-9.84375 6.25-10.039063 6.25-10.15625 6.25-10.3125 6.25-10.46875 6.25-10.507812 6.25-10.625 12.5-21.40625 6.25-10.78125 6.25-10.742188 6.25-10.78125 6.25-10.742187 6.25-10.703125 6.25-10.625 6.25-10.546875 6.25-10.429687 6.25-10.3125 6.25-10.195313 6.25-10.039063 6.25-9.882812 6.25-9.6875 6.25-9.492188 6.25-9.257812 6.25-9.023438 6.25-8.789062 6.25-8.515625 6.25-8.242187 6.25-7.96875 6.25-7.65625 6.25-7.304688 6.25-7.03125 6.25-6.640625 6.25-6.328125 6.25-5.9375 6.25-5.546875 6.25-5.195313 6.25-4.804687 6.25-4.414063 6.25-3.984374 6.25-3.59375 6.25-3.164063 6.25-2.734375 6.25-2.34375 6.25-1.875 6.25-1.445312 6.25-1.015626 6.25-.585937 6.25-.15625 6.25.3125 6.25.703125 6.25 1.171875 6.25 1.601563 6.25 2.03125 6.25 2.460937 6.25 2.890625 6.25 3.320312 6.25 3.671876 6.25 4.101562 6.25 4.53125 6.25 4.921875 6.25 5.273437 6.25 5.664063 6.25 6.015625 6.25 6.367188 6.25 6.71875 6.25 7.03125 6.25 7.382812 6.25 7.65625 6.25 7.96875 6.25 8.242188 6.25 8.515624 6.25 8.75 6.25 9.023438 6.25 9.21875 6.25 9.414062 6.25 9.609376 6.25 9.804687 6.25 9.960937 6.25 10.078126 6.25 10.234374 6.25 10.3125 6.25 10.390626 6.25 10.46875 6.25 10.546874 25 42.34375 6.25 10.546876 6.25 10.46875 6.25 10.429687 6.25 10.351563 6.25 10.234374 6.25 10.117188 6.25 9.960938 6.25 9.804687 6.25 9.648437 6.25 9.492188 6.25 9.257812 6.25 9.023438 6.25 8.828125 6.25 8.554687 6.25 8.28125 6.25 8.046876 6.25 7.734374 6.25 7.421876 6.25 7.109374 6.25 6.796876 6.25 6.445312 6.25 6.09375 6.25 5.742188 6.25 5.390624 6.25 5 6.25 4.609376 6.25 4.257812 6.25 3.789062 6.25 3.4375 6.25 3.007813 6.25 2.578125 6.25 2.1875 6.25 1.71875 6.25 1.328125 6.25.859375 6.25.46875h6.25l6.25-.390625 6.25-.859375 6.25-1.25 6.25-1.71875 6.25-2.109375 6.25-2.578125 6.25-2.929688 6.25-3.398437 6.25-3.789063 6.25-4.179687 6.25-4.609375 6.25-4.960938 6.25-5.351562 6.25-5.703125 6.25-6.09375 6.25-6.40625 6.25-6.796875 6.25-7.070312 6.25-7.421876 6.25-7.695312 6.25-8.046875 6.25-8.28125 6.25-8.554687 6.25-8.789063 6.25-9.0625 6.25-9.257813 6.25-9.453124 6.25-9.648438 6.25-9.84375 6.25-10 6.25-10.117188 6.25-10.273437 6.25-10.351563 6.25-10.46875 6.25-10.546874 6.25-10.585938 6.25-10.625 6.25-10.664062 6.25-10.625 6.25-10.664063 12.5-21.171875 6.25-10.46875 6.25-10.429688 6.25-10.3125 6.25-10.195312 6.25-10.039062 6.25-9.921876 6.25-9.726562 6.25-9.570312 6.25-9.375 6.25-9.140626 6.25-8.90625 6.25-8.710937 6.25-8.398437 6.25-8.125 6.25-7.851563 6.25-7.578125 6.25-7.226562 6.25-6.914063 6.25-6.601563 6.25-6.25 6.25-5.898437 6.25-5.507813 6.25-5.15625 6.25-4.765624 6.25-4.375 6.25-3.984376 6.25-3.554687 6.25-3.164063 6.25-2.734374 6.25-2.34375 6.25-1.875 6.25-1.484376 6.25-1.054687 6.25-.625 6.25-.15625 6.25.273437 6.25.664063 6.25 1.132813 6.25 1.523437 6.25 1.992187 6.25 2.382813 6.25 2.851563 6.25 3.242187 6.25 3.632813 6.25 4.0625 6.25 4.453124 6.25 4.804688 6.25 5.234375 6.25 5.625 6.25 5.9375 6.25 6.328125 6.25 6.640625 6.25 7.03125 6.25 7.304687 6.25 7.65625 6.25 7.929688 6.25 8.203125 6.25 8.476563 6.25 8.75 6.25 8.984374 6.25 9.21875 6.25 9.414063 6.25 9.609375 6.25 9.84375 6.25 9.960938 6.25 10.117187 6.25 10.273437 6.25 10.390626 6.25 10.46875 6.25 10.546874 6.25 10.625 6.25 10.664063 6.25 10.742187 18.75 32.109376 6.25 10.625 6.25 10.585937 6.25 10.546875 6.25 10.429688 6.25 10.3125 6.25 10.195312 6.25 10.039062 6.25 9.882813 6.25 9.726563 6.25 9.53125 6.25 9.296874 6.25 9.101563 6.25 8.867187 6.25 8.59375 6.25 8.320313 6.25 8.085937 6.25 7.773438 6.25 7.460938 6.25 7.109374 6.25 6.835938 6.25 6.484375 6.25 6.132813 6.25 5.742187 6.25 5.390625 6.25 5.039062 6.25 4.609376 6.25 4.257812 6.25 3.828125 6.25 3.398437 6.25 3.007813 6.25 2.578125 6.25 2.1875 6.25 1.71875 6.25 1.289062 6.25.898438 6.25.46875h6.25l6.25-.429688 6.25-.898437 6.25-1.289063 6.25-1.71875 6.25-2.148437 6.25-2.539063 6.25-3.007812 6.25-3.398438 6.25-3.828124 6.25-4.21875 6.25-4.609376 6.25-5.039062 6.25-5.351562 6.25-5.78125 6.25-6.09375 6.25-6.484376 6.25-6.835937 6.25-7.109375 6.25-7.460938 6.25-7.773437 6.25-8.085937 6.25-8.320313 6.25-8.632813 6.25-8.867187 6.25-9.101563 6.25-9.296874 6.25-9.53125 6.25-9.765626 6.25-9.882812 6.25-10.078125 6.25-10.195313 6.25-10.351562"/></g><style>.a{fill:none;stroke:#bfbfbf;stroke-dasharray:12.5,18.75;stroke-linecap:round;stroke-miterlimit:10;stroke-width:6.25;transform:matrix(.1,0,0,-.1,0,275)}.b{fill:none;stroke:#000;stroke-miterlimit:10;transform:matrix(.1,0,0,-.1,0,275)}.c{stroke-linecap:square;stroke-width:12.5}.d{stroke-width:6.25}.e{fill:none;stroke:#bfbfbf;stroke-linecap:round;stroke-miterlimit:10;stroke-width:6.25;transform:matrix(.1,0,0,-.1,0,275)}</style></svg>