<svg xmlns="http://www.w3.org/2000/svg" width="374pt" height="275pt" viewBox="0 0 374 275"><defs><path d="M2.0625-5.3125c-.5 0-.9375.21875-1.21875.578125C.5-4.265625.328125-3.5625.328125-2.578125c0 1.796875.59375 2.75 1.734375 2.75 1.125 0 1.734375-.953125 1.734375-2.703125 0-1.03125-.15625-1.71875-.515625-2.203125C3-5.109375 2.5625-5.3125 2.0625-5.3125zm0 .5781c.71875 0 1.0625.71875 1.0625 2.140625C3.125-1.078125 2.78125-.375 2.046875-.375 1.34375-.375 1-1.109375 1-2.5625c0-1.453125.34375-2.171875 1.0625-2.171875zm0 0" id="c"/><path d="M1.4375-.7812H.6563V0h.7813zm0 0" id="d"/><path d="M3.7969-.6562H1c.0625-.4375.3125-.703125.953125-1.09375l.75-.4062c.75-.40625 1.125-.953125 1.125-1.59375 0-.453125-.171875-.859375-.484375-1.140625C3.015625-5.1875 2.625-5.3125 2.125-5.3125c-.671875 0-1.171875.234375-1.46875.6875-.1875.28125-.265625.609375-.28125 1.15625h.6563c.03125-.359375.078125-.578125.15625-.75.171875-.328125.515625-.515625.921875-.515625.59375 0 1.046875.421875 1.046875.984375 0 .421875-.25.78125-.71875 1.0625l-.6875.3906C.640625-1.671875.3125-1.171875.25 0h3.5469zm0 0" id="f"/><path d="M3.5625-5.3125H.8281L.4219-2.4219h.6094c.3125-.375.5625-.5.984375-.5.703125 0 1.15625.484375 1.15625 1.28125 0 .765625-.4375 1.234375-1.15625 1.234375-.578125 0-.9375-.296875-1.09375-.90625h-.6562c.09375.4375.15625.65625.3125.84375.3125.40625.84375.640625 1.453125.640625 1.0625 0 1.8125-.78125 1.8125-1.90625C3.84375-2.78125 3.15625-3.5 2.125-3.5c-.375 0-.671875.09375-.984375.3125l.2188-1.4844H3.5625zm0 0" id="e"/><path d="M3.9063-5.3125H.3438v.6406h2.875C1.953125-2.859375 1.4375-1.75 1.03125 0h.7031c.296875-1.703125.96875-3.171875 2.171875-4.765625zm0 0" id="h"/><path d="M1.9375-3.7812V0h.6719v-5.3125h-.4375c-.2344.8125-.39065.921875-1.406275 1.046875v.4844zm0 0" id="g"/><path d="M1.6563-2.4375h.3594c.734375 0 1.109375.328125 1.109375.953125C3.125-.8125 2.703125-.40625 2.015625-.40625 1.296875-.40625.9375-.765625.90625-1.546875H.2344C.265625-1.125.34375-.84375.46875-.59375.75-.09375 1.265625.171875 2 .171875c1.09375 0 1.796875-.65625 1.796875-1.65625 0-.671875-.265625-1.046875-.90625-1.265625.5-.203125.75-.578125.75-1.109375 0-.90625-.609375-1.453125-1.625-1.453125C.9375-5.3125.375-4.734375.359375-3.59375h.6563c0-.328125.03125-.515625.109375-.671875.15625-.296875.484375-.46875.90625-.46875.578125 0 .9375.34375.9375.90625 0 .375-.140625.59375-.4375.71875C2.359375-3.03125 2.125-3 1.65625-3zm0 0" id="i"/><path d="M2.4531-1.2812V0h.6563v-1.2812h.7969v-.5938h-.7969v-3.4375H2.625L.2031-1.9687v.6875zm0-.5937H.7813l1.6719-2.3125zm0 0" id="j"/><clipPath id="k"><path d="M17 9.5h1v255h-1zm0 0"/></clipPath><clipPath id="l"><path d="M17 264h340v.5H17zm0 0"/></clipPath><clipPath id="m"><path d="M17 9.5h1v255h-1zm0 0"/></clipPath><clipPath id="n"><path d="M101 9.5h2v255h-2zm0 0"/></clipPath><clipPath id="o"><path d="M186 9.5h2v255h-2zm0 0"/></clipPath><clipPath id="p"><path d="M271 9.5h2v255h-2zm0 0"/></clipPath><clipPath id="q"><path d="M356 9.5h1v255h-1zm0 0"/></clipPath><clipPath id="r"><path d="M17 264h340v.5H17zm0 0"/></clipPath><clipPath id="s"><path d="M17 213h340v1H17zm0 0"/></clipPath><clipPath id="t"><path d="M17 162h340v1H17zm0 0"/></clipPath><clipPath id="u"><path d="M17 111h340v1H17zm0 0"/></clipPath><clipPath id="v"><path d="M17 60h340v1H17zm0 0"/></clipPath><clipPath id="w"><path d="M17 9.5h340v.5H17zm0 0"/></clipPath><clipPath id="x"><path d="M17 96h340v82H17zm0 0"/></clipPath><path id="a" d="M170 105v2550"/><path id="b" d="M170 105h3400"/></defs><g clip-path="url(#k)"><use href="#a" class="e"/></g><g clip-path="url(#l)"><use href="#b" class="e"/></g><g clip-path="url(#m)"><use href="#a" class="a"/></g><g clip-path="url(#n)"><path d="M1020 105v2550" class="a"/></g><g clip-path="url(#o)"><path d="M1870 105v2550" class="a"/></g><g clip-path="url(#p)"><path d="M2720 105v2550" class="a"/></g><g clip-path="url(#q)"><path d="M3570 105v2550" class="a"/></g><g clip-path="url(#r)"><use href="#b" class="a"/></g><g clip-path="url(#s)"><path d="M170 615h3400" class="a"/></g><g clip-path="url(#t)"><path d="M170 1125h3400" class="a"/></g><g clip-path="url(#u)"><path d="M170 1635h3400" class="a"/></g><g clip-path="url(#v)"><path d="M170 2145h3400" class="a"/></g><g clip-path="url(#w)"><path d="M170 2655h3400" class="a"/></g><g class="b"><use href="#b" class="c"/><g class="d"><path d="M170 105v50"/><path d="M255 105v25"/><path d="M340 105v25"/><path d="M425 105v25"/><path d="M510 105v25"/><path d="M595 105v25"/><path d="M680 105v25"/><path d="M765 105v25"/><path d="M850 105v25"/><path d="M935 105v25"/><path d="M1020 105v50"/><path d="M1105 105v25"/><path d="M1190 105v25"/><path d="M1275 105v25"/><path d="M1360 105v25"/><path d="M1445 105v25"/><path d="M1530 105v25"/><path d="M1615 105v25"/><path d="M1700 105v25"/><path d="M1785 105v25"/><path d="M1870 105v50"/><path d="M1955 105v25"/><path d="M2040 105v25"/><path d="M2125 105v25"/><path d="M2210 105v25"/><path d="M2295 105v25"/><path d="M2380 105v25"/><path d="M2465 105v25"/><path d="M2550 105v25"/><path d="M2635 105v25"/><path d="M2720 105v50"/><path d="M2805 105v25"/><path d="M2890 105v25"/><path d="M2975 105v25"/><path d="M3060 105v25"/><path d="M3145 105v25"/><path d="M3230 105v25"/><path d="M3315 105v25"/><path d="M3400 105v25"/><path d="M3485 105v25"/><path d="M3570 105v50"/></g></g><use x="11.1629" y="274.5" href="#c"/><use x="15.3329" y="274.5" href="#d"/><use x="17.4179" y="274.5" href="#c"/><use x="96.1629" y="274.5" href="#f"/><use x="100.3329" y="274.5" href="#d"/><use x="102.4179" y="274.5" href="#e"/><use x="181.7881" y="274.5" href="#e"/><use x="185.9581" y="274.5" href="#d"/><use x="188.0431" y="274.5" href="#c"/><use x="266.7881" y="274.5" href="#h"/><use x="270.9581" y="274.5" href="#d"/><use x="273.0431" y="274.5" href="#e"/><use x="349.7034" y="274.5" href="#g"/><use x="353.8734" y="274.5" href="#c"/><use x="358.0434" y="274.5" href="#d"/><use x="360.1284" y="274.5" href="#c"/><g class="b"><path d="M170 2655h3400" class="c"/><g class="d"><path d="M170 2655v-50"/><path d="M255 2655v-25"/><path d="M340 2655v-25"/><path d="M425 2655v-25"/><path d="M510 2655v-25"/><path d="M595 2655v-25"/><path d="M680 2655v-25"/><path d="M765 2655v-25"/><path d="M850 2655v-25"/><path d="M935 2655v-25"/><path d="M1020 2655v-50"/><path d="M1105 2655v-25"/><path d="M1190 2655v-25"/><path d="M1275 2655v-25"/><path d="M1360 2655v-25"/><path d="M1445 2655v-25"/><path d="M1530 2655v-25"/><path d="M1615 2655v-25"/><path d="M1700 2655v-25"/><path d="M1785 2655v-25"/><path d="M1870 2655v-50"/><path d="M1955 2655v-25"/><path d="M2040 2655v-25"/><path d="M2125 2655v-25"/><path d="M2210 2655v-25"/><path d="M2295 2655v-25"/><path d="M2380 2655v-25"/><path d="M2465 2655v-25"/><path d="M2550 2655v-25"/><path d="M2635 2655v-25"/><path d="M2720 2655v-50"/><path d="M2805 2655v-25"/><path d="M2890 2655v-25"/><path d="M2975 2655v-25"/><path d="M3060 2655v-25"/><path d="M3145 2655v-25"/><path d="M3230 2655v-25"/><path d="M3315 2655v-25"/><path d="M3400 2655v-25"/><path d="M3485 2655v-25"/><path d="M3570 2655v-50"/></g></g><use x="11.1629" y="6.375" href="#c"/><use x="15.3329" y="6.375" href="#d"/><use x="17.4179" y="6.375" href="#c"/><use x="96.1629" y="6.375" href="#f"/><use x="100.3329" y="6.375" href="#d"/><use x="102.4179" y="6.375" href="#e"/><use x="181.7881" y="6.375" href="#e"/><use x="185.9581" y="6.375" href="#d"/><use x="188.0431" y="6.375" href="#c"/><use x="266.7881" y="6.375" href="#h"/><use x="270.9581" y="6.375" href="#d"/><use x="273.0431" y="6.375" href="#e"/><use x="349.7034" y="6.375" href="#g"/><use x="353.8734" y="6.375" href="#c"/><use x="358.0434" y="6.375" href="#d"/><use x="360.1284" y="6.375" href="#c"/><g class="b"><use href="#a" class="c"/><g class="d"><path d="M170 105h50"/><path d="M170 156.015625h25"/><path d="M170 206.992188h25"/><path d="M170 258.007812h25"/><path d="M170 309.023438h25"/><path d="M170 360h25"/><path d="M170 411.015625h25"/><path d="M170 461.992188h25"/><path d="M170 513.007812h25"/><path d="M170 564.023438h25"/><path d="M170 615h50"/><path d="M170 666.015625h25"/><path d="M170 716.992188h25"/><path d="M170 768.007812h25"/><path d="M170 818.984375h25"/><path d="M170 870h25"/><path d="M170 921.015625h25"/><path d="M170 971.992188h25"/><path d="M170 1023.007812h25"/><path d="M170 1073.984375h25"/><path d="M170 1125h50"/><path d="M170 1176.015625h25"/><path d="M170 1226.992188h25"/><path d="M170 1278.007812h25"/><path d="M170 1328.984375h25"/><path d="M170 1380h25"/><path d="M170 1431.015625h25"/><path d="M170 1481.992188h25"/><path d="M170 1533.007812h25"/><path d="M170 1583.984375h25"/><path d="M170 1635h50"/><path d="M170 1686.015625h25"/><path d="M170 1736.992188h25"/><path d="M170 1788.007812h25"/><path d="M170 1838.984375h25"/><path d="M170 1890h25"/><path d="M170 1941.015625h25"/><path d="M170 1991.992188h25"/><path d="M170 2043.007812h25"/><path d="M170 2093.984375h25"/><path d="M170 2145h50"/><path d="M170 2196.015625h25"/><path d="M170 2246.992188h25"/><path d="M170 2298.007812h25"/><path d="M170 2348.984375h25"/><path d="M170 2400h25"/><path d="M170 2451.015625h25"/><path d="M170 2501.992188h25"/><path d="M170 2553.007812h25"/><path d="M170 2603.984375h25"/><path d="M170 2655h50"/></g></g><use x="-.2992" y="268.25" href="#c"/><use x="3.8708" y="268.25" href="#d"/><use x="5.9558" y="268.25" href="#c"/><use x="-.2992" y="217" href="#c"/><use x="3.8708" y="217" href="#d"/><use x="5.9558" y="217" href="#g"/><use x="-.2992" y="165.75" href="#c"/><use x="3.8708" y="165.75" href="#d"/><use x="5.9558" y="165.75" href="#f"/><use x="-.2992" y="115.125" href="#c"/><use x="3.8708" y="115.125" href="#d"/><use x="5.9558" y="115.125" href="#i"/><use x="-.2992" y="63.875" href="#c"/><use x="3.8708" y="63.875" href="#d"/><use x="5.9558" y="63.875" href="#j"/><use x="-.2992" y="12.625" href="#c"/><use x="3.8708" y="12.625" href="#d"/><use x="5.9558" y="12.625" href="#e"/><g class="b"><path d="M3570 105v2550" class="c"/><g class="d"><path d="M3570 105h-50"/><path d="M3570 156.015625h-25"/><path d="M3570 206.992188h-25"/><path d="M3570 258.007812h-25"/><path d="M3570 309.023438h-25"/><path d="M3570 360h-25"/><path d="M3570 411.015625h-25"/><path d="M3570 461.992188h-25"/><path d="M3570 513.007812h-25"/><path d="M3570 564.023438h-25"/><path d="M3570 615h-50"/><path d="M3570 666.015625h-25"/><path d="M3570 716.992188h-25"/><path d="M3570 768.007812h-25"/><path d="M3570 818.984375h-25"/><path d="M3570 870h-25"/><path d="M3570 921.015625h-25"/><path d="M3570 971.992188h-25"/><path d="M3570 1023.007812h-25"/><path d="M3570 1073.984375h-25"/><path d="M3570 1125h-50"/><path d="M3570 1176.015625h-25"/><path d="M3570 1226.992188h-25"/><path d="M3570 1278.007812h-25"/><path d="M3570 1328.984375h-25"/><path d="M3570 1380h-25"/><path d="M3570 1431.015625h-25"/><path d="M3570 1481.992188h-25"/><path d="M3570 1533.007812h-25"/><path d="M3570 1583.984375h-25"/><path d="M3570 1635h-50"/><path d="M3570 1686.015625h-25"/><path d="M3570 1736.992188h-25"/><path d="M3570 1788.007812h-25"/><path d="M3570 1838.984375h-25"/><path d="M3570 1890h-25"/><path d="M3570 1941.015625h-25"/><path d="M3570 1991.992188h-25"/><path d="M3570 2043.007812h-25"/><path d="M3570 2093.984375h-25"/><path d="M3570 2145h-50"/><path d="M3570 2196.015625h-25"/><path d="M3570 2246.992188h-25"/><path d="M3570 2298.007812h-25"/><path d="M3570 2348.984375h-25"/><path d="M3570 2400h-25"/><path d="M3570 2451.015625h-25"/><path d="M3570 2501.992188h-25"/><path d="M3570 2553.007812h-25"/><path d="M3570 2603.984375h-25"/><path d="M3570 2655h-50"/></g></g><use x="363.25" y="268.25" href="#c"/><use x="367.42" y="268.25" href="#d"/><use x="369.505" y="268.25" href="#c"/><use x="363.25" y="217" href="#c"/><use x="367.42" y="217" href="#d"/><use x="369.505" y="217" href="#g"/><use x="363.25" y="165.75" href="#c"/><use x="367.42" y="165.75" href="#d"/><use x="369.505" y="165.75" href="#f"/><use x="363.25" y="115.125" href="#c"/><use x="367.42" y="115.125" href="#d"/><use x="369.505" y="115.125" href="#i"/><use x="363.25" y="63.875" href="#c"/><use x="367.42" y="63.875" href="#d"/><use x="369.505" y="63.875" href="#j"/><use x="363.25" y="12.625" href="#c"/><use x="367.42" y="12.625" href="#d"/><use x="369.505" y="12.625" href="#e"/><g clip-path="url(#x)"><path d="M170 1380l6.25-27.734375 6.25-27.148437 6.25-26.210938L195 1273.75l6.25-24.179688 6.25-23.28125 6.25-22.382812 6.25-21.445312 6.25-20.351563 6.25-19.296875 6.25-18.320312 6.25-17.34375 6.25-16.289063 6.25-15.195313 6.25-14.101562 6.25-13.046875 6.25-11.953125 6.25-10.9375 6.25-9.765625 6.25-8.671875 6.25-7.539062 6.25-6.40625 6.25-5.351563 6.25-4.179687 6.25-3.085938 6.25-1.914062 6.25-.742188 6.25.3125 6.25 1.445312 6.25 2.617188 6.25 3.75 6.25 4.882812 6.25 5.976563 6.25 7.109375 6.25 8.203125 6.25 9.335937 6.25 10.429688 6.25 11.5625 6.25 12.617188 6.25 13.671874 6.25 14.765626 6.25 15.859374 6.25 16.914063 6.25 17.929687 6.25 18.90625 6.25 19.960938 6.25 20.976562 6.25 22.03125 6.25 22.929688 6.25 23.828125 6.25 24.726563 6.25 25.78125 6.25 26.796874 6.25 27.578126 6.25 27.8125 6.25 27.460937 6.25 26.601563 6.25 25.585937 6.25 24.53125 6.25 23.632813 6.25 22.773437 6.25 21.796875 6.25 20.78125 6.25 19.765625 6.25 18.710937 6.25 17.734376 6.25 16.679687 6.25 15.664063 6.25 14.53125 6.25 13.476562 6.25 12.382812 6.25 11.328126 6.25 10.234374 6.25 9.140626 6.25 7.96875 6.25 6.875 6.25 5.78125 6.25 4.648437 6.25 3.515625 6.25 2.382812 6.25 1.210938 6.25.117188 6.25-1.015626 6.25-2.109374 6.25-3.320313 6.25-4.414063 6.25-5.546874 6.25-6.640626 6.25-7.773437 6.25-8.867187 6.25-10.039063 6.25-11.132813 6.25-12.1875 6.25-13.242187 6.25-14.296875 6.25-15.429688 6.25-16.523437 6.25-17.539063 6.25-18.476562 6.25-19.53125 6.25-20.585938 6.25-21.601562 6.25-22.578125 6.25-23.476563 6.25-24.375 6.25-25.351562 6.25-26.40625 6.25-27.304688 6.25-27.8125 6.25-27.65625 6.25-26.953124 6.25-26.015626 6.25-24.921874 6.25-24.023438 6.25-23.125 6.25-22.1875 6.25-21.210938 6.25-20.15625 6.25-19.101562 6.25-18.125 6.25-17.109375 6.25-16.09375 6.25-15 6.25-13.867187 6.25-12.8125 6.25-11.757813 6.25-10.703125 6.25-9.570312 6.25-8.4375 6.25-7.304688 6.25-6.210938 6.25-5.117187 6.25-3.984375 6.25-2.8125 6.25-1.679688 6.25-.546874 6.25.546874 6.25 1.679688 6.25 2.8125 6.25 3.984375 6.25 5.117187 6.25 6.210938 6.25 7.304688 6.25 8.4375 6.25 9.570312 6.25 10.703125 6.25 11.757813 6.25 12.8125 6.25 13.867187 6.25 15 6.25 16.09375 6.25 17.109375 6.25 18.125 6.25 19.101562 6.25 20.15625 6.25 21.210938 6.25 22.1875 6.25 23.125 6.25 24.023438 6.25 24.921874 6.25 26.015626 6.25 26.953124 6.25 27.65625 6.25 27.8125 6.25 27.304688 6.25 26.40625 6.25 25.351562 6.25 24.375 6.25 23.476563 6.25 22.578125 6.25 21.601562 6.25 20.585938 6.25 19.53125 6.25 18.476562 6.25 17.539063 6.25 16.523437 6.25 15.429688 6.25 14.296875 6.25 13.242187 6.25 12.1875 6.25 11.132813 6.25 10.039063 6.25 8.867187 6.25 7.773437 6.25 6.640626 6.25 5.546874 6.25 4.414063 6.25 3.320313 6.25 2.109374 6.25 1.015626 6.25-.117188 6.25-1.210938 6.25-2.382812 6.25-3.515625 6.25-4.648437 6.25-5.78125 6.25-6.875 6.25-7.96875 6.25-9.140626 6.25-10.234374 6.25-11.328126 6.25-12.382812 6.25-13.476562 6.25-14.53125 6.25-15.664063 6.25-16.679687 6.25-17.734376 6.25-18.710937 6.25-19.765625 6.25-20.78125 6.25-21.796875 6.25-22.773437 6.25-23.632813 6.25-24.53125 6.25-25.585937 6.25-26.601563 6.25-27.460937 6.25-27.8125 6.25-27.578126 6.25-26.796874 6.25-25.78125 6.25-24.726563 6.25-23.828125 6.25-22.929688 6.25-22.03125 6.25-20.976562 6.25-19.960938 6.25-18.90625 6.25-17.929687 6.25-16.914063 6.25-15.859374 6.25-14.765626 6.25-13.671874 6.25-12.617188 6.25-11.5625 6.25-10.429688 6.25-9.335937 6.25-8.203125 6.25-7.109375 6.25-5.976563 6.25-4.882812 6.25-3.75 6.25-2.617188 6.25-1.445312 6.25-.3125 6.25.742188 6.25 1.914062 6.25 3.085938 6.25 4.179687 6.25 5.351563 6.25 6.40625 6.25 7.539062 6.25 8.671875 6.25 9.765625 6.25 10.9375 6.25 11.953125 6.25 13.046875 6.25 14.101562 6.25 15.195313 6.25 16.289063 6.25 17.34375 6.25 18.320312 6.25 19.296875 6.25 20.351563 6.25 21.445312 6.25 22.382812 6.25 23.28125L1845 1273.75l6.25 25.15625 6.25 26.210938 6.25 27.148437 12.5 55.46875 6.25 27.148437 6.25 26.210938L1895 1486.25l6.25 24.179688 6.25 23.28125 6.25 22.382812 6.25 21.445312 6.25 20.351563 6.25 19.296875 6.25 18.320312 6.25 17.34375 6.25 16.289063 6.25 15.195313 6.25 14.101562 6.25 13.046875 6.25 11.992187 6.25 10.898438 6.25 9.765625 6.25 8.671875 6.25 7.539062 6.25 6.40625 6.25 5.351563 6.25 4.21875 6.25 3.046875 6.25 1.914062 6.25.742188 6.25-.3125 6.25-1.445312 6.25-2.617188 6.25-3.75 6.25-4.882812 6.25-5.976563 6.25-7.070313 6.25-8.242187 6.25-9.335937 6.25-10.429688 6.25-11.5625 6.25-12.617188 6.25-13.671874 6.25-14.765626 6.25-15.859374 6.25-16.914063 6.25-17.929687 6.25-18.90625 6.25-19.960938 6.25-20.976562 6.25-21.992188 6.25-22.96875 6.25-23.828125 6.25-24.726563 6.25-25.78125 6.25-26.796874 6.25-27.578126 6.25-27.8125 6.25-27.460937 6.25-26.601563 6.25-25.546874 6.25-24.570313 6.25-23.632813 6.25-22.773437 6.25-21.796875 6.25-20.78125 6.25-19.765625 6.25-18.671875 6.25-17.734375 6.25-16.71875 6.25-15.664063 6.25-14.53125 6.25-13.476562 6.25-12.382812 6.25-11.328126 6.25-10.234374 6.25-9.140626 6.25-7.96875 6.25-6.875 6.25-5.78125 6.25-4.648437 6.25-3.515625 6.25-2.382812 6.25-1.210938 6.25-.117188 6.25 1.015626 6.25 2.109374 6.25 3.320313 6.25 4.414063 6.25 5.546874 6.25 6.679688 6.25 7.734375 6.25 8.867187 6.25 10.039063 6.25 11.132813 6.25 12.1875 6.25 13.242187 6.25 14.296875 6.25 15.46875 6.25 16.484375 6.25 17.539063 6.25 18.476562 6.25 19.53125 6.25 20.585938 6.25 21.601562 6.25 22.578125 6.25 23.476563 6.25 24.375 6.25 25.351562 6.25 26.40625 6.25 27.304688 6.25 27.8125 6.25 27.65625 6.25 26.992187 6.25 25.976563 6.25 24.921874 6.25 24.023438 6.25 23.125 6.25 22.1875 6.25 21.210938 6.25 20.15625 6.25 19.101562 6.25 18.125 6.25 17.109375 6.25 16.09375 6.25 15 6.25 13.867187 6.25 12.8125 6.25 11.796876 6.25 10.664062 6.25 9.570312 6.25 8.4375 6.25 7.304688 6.25 6.210938 6.25 5.117187 6.25 3.984375 6.25 2.8125 6.25 1.679688 6.25.546874 6.25-.546874 6.25-1.679688 6.25-2.8125 6.25-3.984375 6.25-5.117187 6.25-6.210938 6.25-7.304688 6.25-8.4375 6.25-9.570312 6.25-10.664062 6.25-11.796876 6.25-12.8125 6.25-13.867187 6.25-15 6.25-16.09375 6.25-17.109375 6.25-18.125 6.25-19.101562 6.25-20.15625 6.25-21.210938 6.25-22.1875 6.25-23.125 6.25-24.023438 6.25-24.921874 6.25-25.976563 6.25-26.992187 6.25-27.65625 6.25-27.8125 6.25-27.304688 6.25-26.40625 6.25-25.351562 6.25-24.375 6.25-23.476563 6.25-22.578125 6.25-21.601562 6.25-20.585938 6.25-19.53125 6.25-18.476562 6.25-17.539063 6.25-16.484375 6.25-15.46875 6.25-14.296875 6.25-13.242187 6.25-12.1875 6.25-11.132813 6.25-10.039063 6.25-8.867187 6.25-7.734375 6.25-6.679688 6.25-5.546874 6.25-4.414063 6.25-3.320313 6.25-2.109374 6.25-1.015626 6.25.117188 6.25 1.210938 6.25 2.382812 6.25 3.515625 6.25 4.648437 6.25 5.78125 6.25 6.875 6.25 7.96875 6.25 9.140626 6.25 10.234374 6.25 11.328126 6.25 12.382812 6.25 13.476562 6.25 14.53125 6.25 15.664063 6.25 16.71875 6.25 17.734375 6.25 18.671875 6.25 19.765625 6.25 20.78125 6.25 21.796875 6.25 22.773437 6.25 23.632813 6.25 24.570313 6.25 25.546874 6.25 26.601563 6.25 27.460937 6.25 27.8125 6.25 27.578126 6.25 26.796874 6.25 25.78125 6.25 24.726563 6.25 23.828125 6.25 22.96875 6.25 21.992188 6.25 20.976562 6.25 19.960938 6.25 18.90625 6.25 17.929687 6.25 16.914063 6.25 15.859374 6.25 14.765626 6.25 13.671874 6.25 12.617188 6.25 11.5625 6.25 10.429688 6.25 9.335937 6.25 8.242187 6.25 7.070313 6.25 5.976563 6.25 4.882812 6.25 3.75 6.25 2.617188 6.25 1.445312 6.25.3125 6.25-.742188 6.25-1.914062 6.25-3.046875 6.25-4.21875 6.25-5.351563 6.25-6.40625 6.25-7.539062 6.25-8.671875 6.25-9.765625 6.25-10.898438 6.25-11.992187 6.25-13.046875 6.25-14.101562 6.25-15.195313 6.25-16.289063 6.25-17.34375 6.25-18.320312 6.25-19.296875 6.25-20.351563 6.25-21.445312 6.25-22.382812 6.25-23.28125L3545 1486.25l6.25-25.15625 6.25-26.210938 6.25-27.148437L3570 1380" style="fill:none;stroke-width:12.5;stroke-linecap:round;stroke-linejoin:round;stroke:#00008b;stroke-miterlimit:10;transform:matrix(.1,0,0,-.1,0,275)"/></g><style>.a{fill:none;stroke:#bfbfbf;stroke-dasharray:12.5,18.75;stroke-linecap:round;stroke-miterlimit:10;stroke-width:6.25;transform:matrix(.1,0,0,-.1,0,275)}.b{fill:none;stroke:#000;stroke-miterlimit:10;transform:matrix(.1,0,0,-.1,0,275)}.c{stroke-linecap:square;stroke-width:12.5}.d{stroke-width:6.25}.e{fill:none;stroke:#bfbfbf;stroke-linecap:round;stroke-miterlimit:10;stroke-width:6.25;transform:matrix(.1,0,0,-.1,0,275)}</style></svg>