<svg xmlns="http://www.w3.org/2000/svg" width="141pt" height="62pt" viewBox="0 0 141 62"><defs><path d="M5.1094-.79687l-.0937-.23437L4.5-.73437c-.171875.09375-.25.109375-.359375.109375-.109375 0-.203125-.0625-.296875-.265625-.421875-.76563-.6875-1.42188-1.15625-2.89063l.1719-.15625c.71875-.734375 1.28125-1.03125 1.875-1.03125.09375 0 .21875.015625.421875.0625l.2031-.75c-.203125-.0625-.421875-.109375-.5625-.109375-.796875 0-1.78125.921875-3.28125 3.015625l1.2813-5.875-.1406-.14062c-.625.3125-1.046875.421875-1.921875.5l-.0469.25h.5781c.28125 0 .40625.09375.40625.296875 0 .09375-.015625.203125-.015625.28125l-.5781 3.20313c-.15625.90625-.359375 1.71875-.984375 4.21875l.1094.125L1-.09375l.2813-1.48437c.109375-.578125.390625-1.109375.796875-1.515625.828125 2.390625 1.203125 3.203125 1.5 3.203125.15625 0 .453125-.15625.96875-.53125zm0 0" id="k"/><path d="M8.8438-1.01562l-.125-.21875-.2969.20313c-.3594.234365-.6094.359365-.7344.359365-.078125 0-.15625-.109375-.15625-.234375 0-.125.015625-.234375.078125-.484375l.9063-3.54687c.046875-.203125.078125-.390625.078125-.484375 0-.203125-.125-.34375-.3125-.34375-.34375 0-.796875.21875-1.53125.734375C6-4.5 5.578125-4.078125 5-3.25l.3594-1.64062c.046875-.234375.078125-.421875.078125-.5 0-.234375-.125-.375-.3125-.375-.359375 0-.90625.265625-1.5625.765625-.53125.40625-.765625.65625-1.546875 1.71875l.4063-1.59375c.046875-.1875.0625-.375.0625-.515625 0-.234375-.109375-.375-.265625-.375-.265625 0-.71875.25-1.59375.890625l-.3437.23438.0938.23438.375-.25c.4375-.28125.484375-.296875.5625-.296875.140625 0 .21875.125.21875.296875 0 .609375-.484375 2.921875-.984375 4.625l.0313.14063.8281-.1875.25-1.21875c.296875-1.328125.609375-2.03125 1.265625-2.75.515625-.546875 1.046875-.90625 1.375-.90625.09375 0 .140625.09375.140625.25 0 .421875-.25 1.78125-.75 3.875l-.2031.79688.0625.14063.8281-.1875.25-1.26562c.1875-.96875.59375-1.875 1.125-2.453125.65625-.734375 1.25-1.15625 1.640625-1.15625.09375 0 .15625.109375.15625.296875 0 .296875-.015625.453125-.296875 1.5l-.5156 1.875c-.09375.34375-.15625.640625-.15625.90625 0 .296875.125.484375.359375.484375.3125 0 .734375-.25 1.90625-1.125zm0 0" id="a"/><path d="M5.3594-.9375l-.0937-.23437c-.4375.359375-.734375.53125-.921875.53125-.1875 0-.34375-.109375-.453125-.34375-.109375-.234375-.25-.671875-.3125-1.03125L3.375-3.21875l.4219-.57812c.546875-.78125.875-1.0625 1.25-1.0625.1875 0 .328125.109375.390625.28125L5.6094-4.625l.1719-1.01562c-.140625-.078125-.25-.125-.359375-.125-.46875 0-.953125.4375-1.6875 1.53125l-.4531.65625-.0625-.5625c-.140625-1.1875-.46875-1.625-1.171875-1.625-.3125 0-.578125.09375-.6875.25l-.6875 1 .2031.10937c.359375-.40625.59375-.5625.828125-.5625.390625 0 .65625.484375.859375 1.65625l.125.75-.4687.73438c-.515625.796875-.921875 1.1875-1.265625 1.1875C.78125-.640625.640625-.6875.625-.75l-.1406-.34375-.2344.04688c0 .23437-.015625.39062-.09375.76562C.125-.125.125-.09375.109375-.015625.28125.078125.484375.125.625.125c.390625 0 .859375-.34375 1.234375-.90625l.9063-1.39062.125.82813C3.0625-.328125 3.328125.125 3.75.125c.265625 0 .65625-.203125 1.03125-.546875zm0 0" id="b"/><path d="M4.1094.03125c-.03125-.1875-.03125-.28125-.03125-.40625 0-.109375 0-.1875.03125-.390625L1.0625-.67187l1.6094-1.6875C3.515625-3.265625 3.78125-3.75 3.78125-4.40625c0-1.015625-.6875-1.640625-1.796875-1.640625-.640625 0-1.0625.1875-1.5.625l-.1406 1.1875h.25l.1094-.40625c.140625-.5.46875-.71875 1.046875-.71875.75 0 1.234375.46875 1.234375 1.21875 0 .65625-.359375 1.296875-1.359375 2.359375L.1406-.20312v.23437C.78125.015625 1.453125 0 2.09375 0c.671875 0 1.34375.015625 2.015625.03125zm0 0" id="c"/><path d="M3.6563.03125v-.26562l-.4531-.03125c-.484375-.03125-.5625-.125-.5625-.578125v-5.20312l-.125-.03125c-.5625.296875-1.1875.5625-1.984375.84375l.0625.375h.0781c.390625-.1875.78125-.359375 1.15625-.515625.0625 0 .078125.078125.078125.28125v4.25c0 .453125-.09375.546875-.578125.578125l-.4844.03125V.03125C1.328125.015625 1.8125 0 2.28125 0c.46875 0 .921875.015625 1.375.03125zm0 0" id="d"/><clipPath id="e"><path d="M.0273 27H22v23H.0273zm0 0"/></clipPath><clipPath id="f"><path d="M23 45h28v2H23zm0 0"/></clipPath><clipPath id="g"><path clip-rule="evenodd" d="M.0273.53516v63h141v-63zm42.4024 48.52343h8.6992v-6.30078h-8.6992l7.1992 3.17969zm0 0"/></clipPath><clipPath id="h"><path d="M113 45h28v2h-28zm0 0"/></clipPath><clipPath id="i"><path clip-rule="evenodd" d="M.0273.53516v63h141v-63zm132.4024 48.52343h8.6992v-6.30078h-8.6992l7.1992 3.17969zm0 0"/></clipPath><clipPath id="j"><path d="M.0273 9H47v31H.0273zm0 0"/></clipPath></defs><path d="M103.5078 38.97656c0 2.550782-2.070312 4.621094-4.621093 4.621094-2.550781 0-4.617188-2.070312-4.617188-4.621094 0-2.550781 2.066407-4.621093 4.617188-4.621093 2.550781 0 4.621093 2.070312 4.621093 4.621093" class="b"/><path d="M1034.798125 245.604375c0-25.507812-20.703125-46.210937-46.210938-46.210937-25.507812 0-46.171875 20.703125-46.171875 46.210937 0 25.507813 20.664063 46.210938 46.171875 46.210938 25.507813 0 46.210938-20.703125 46.210938-46.210938zm0 0" class="a"/><path d="M15.1875 38.97656c0 2.550782-2.070312 4.621094-4.621094 4.621094-2.550781 0-4.617187-2.070312-4.617187-4.621094 0-2.550781 2.066406-4.621093 4.617187-4.621093 2.550782 0 4.621094 2.070312 4.621094 4.621093" class="b"/><g clip-path="url(#e)"><path d="M151.595 245.604375c0-25.507812-20.703125-46.210937-46.210938-46.210937-25.507812 0-46.171875 20.703125-46.171875 46.210937 0 25.507813 20.664063 46.210938 46.171875 46.210938 25.507813 0 46.210938-20.703125 46.210938-46.210938zm0 0" class="a"/></g><path d="M129.7266 38.97656c0 2.550782-2.066406 4.621094-4.617187 4.621094-2.550781 0-4.621094-2.070312-4.621094-4.621094 0-2.550781 2.070313-4.621093 4.621094-4.621093 2.550781 0 4.617187 2.070312 4.617187 4.621093" class="b"/><path d="M1296.985625 245.604375c0-25.507812-20.664063-46.210937-46.171875-46.210937-25.507813 0-46.210938 20.703125-46.210938 46.210937 0 25.507813 20.703125 46.210938 46.210938 46.210938 25.507812 0 46.171875-20.703125 46.171875-46.210938zm0 0" class="a"/><path d="M41.3477 38.97656c0 2.550782-2.070312 4.621094-4.621094 4.621094-2.550781 0-4.617187-2.070312-4.617187-4.621094 0-2.550781 2.066406-4.621093 4.617187-4.621093 2.550782 0 4.621094 2.070312 4.621094 4.621093" class="b"/><g class="a"><path d="M413.196562 245.604375c0-25.507812-20.703125-46.210937-46.210937-46.210937-25.507813 0-46.171875 20.703125-46.171875 46.210937 0 25.507813 20.664062 46.210938 46.171875 46.210938 25.507812 0 46.210937-20.703125 46.210937-46.210938zm0 0"/><path d="M465.384062 376.385625h32.421875l33.007813 98.398438L563.196562 310.995l33.007813 163.789063L628.587187 310.995 661.595 474.784063 694.016875 310.995l32.96875 163.789063L759.993437 310.995l32.421875 163.789063L825.384062 310.995l32.421875 98.398438h33.007813"/><path d="M890.81375 245.604375h457.773437V540.21375H890.81375zm0 0"/></g><g clip-path="url(#f)"><g clip-path="url(#g)"><path d="M231.985625 175.995h270" class="a"/></g></g><g class="a"><path d="M424.016875 144.784063 496.009062 175.995l-71.992187 31.796875"/><path d="M1131.985625 220.995v-90"/></g><g clip-path="url(#h)"><g clip-path="url(#i)"><path d="M1131.985625 175.995h270" class="a"/></g></g><path d="M1324.016875 144.784063l71.992187 31.210937-71.992187 31.796875" class="a"/><g clip-path="url(#j)"><path d="M6.985625 245.604375h458.398437V540.21375H6.985625zm0 0" class="a"/></g><path d="M231.985625 220.995v-90" class="a"/><use x="63.508" y="9.476" href="#k"/><use x="102.45" y="25.856" href="#a"/><use x="111.871" y="27.65" href="#c"/><use x="14.068" y="25.856" href="#a"/><use x="23.488" y="27.65" href="#d"/><use x="19.107" y="59.397" href="#b"/><use x="25.444" y="61.191" href="#d"/><use x="109.11" y="59.397" href="#b"/><use x="115.446" y="61.191" href="#c"/><style>.a{fill:none;stroke:#000;stroke-miterlimit:10;stroke-width:4.5;transform:matrix(.1,0,0,-.1,.028,63.537)}.b{fill-rule:evenodd}</style></svg>