<svg xmlns="http://www.w3.org/2000/svg" width="56pt" height="114pt" viewBox="0 0 56 114"><defs><clipPath id="a"><path d="M18 36h38v63H18zm0 0"/></clipPath><clipPath id="b"><path d="M0 72h56v41.5352H0zm0 0"/></clipPath><clipPath id="c"><path d="M0 0h56v94H0zm0 0"/></clipPath><clipPath id="d"><path d="M4 40h52v73.5352H4zm0 0"/></clipPath><clipPath id="e"><path d="M0 0h56v114H0z"/></clipPath><g id="f" clip-path="url(#e)"><path d="M54.23828 67.6172c0 2.949218-2.390625 5.339843-5.339843 5.339843-2.949219 0-5.339844-2.390625-5.339844-5.339843 0-2.949219 2.390625-5.339844 5.339844-5.339844 2.949218 0 5.339843 2.390625 5.339843 5.339844" class="b"/><g clip-path="url(#a)"><path d="M548.192813 459.198125c0-29.492187-23.90625-53.398437-53.398438-53.398437-29.492187 0-53.398437 23.90625-53.398437 53.398437 0 29.492188 23.90625 53.398438 53.398437 53.398438 29.492188 0 53.398438-23.90625 53.398438-53.398438zm0 0" class="a"/></g><path d="M37.07813 104.9961c0 3.976562-3.222656 7.199218-7.199219 7.199218-3.976562 0-7.199218-3.222656-7.199218-7.199218 0-3.976563 3.222656-7.199219 7.199218-7.199219 3.976563 0 7.199219 3.222656 7.199219 7.199219" class="b"/><g clip-path="url(#b)"><path d="M376.59125 85.409063c0-39.765625-32.226562-71.992188-71.992187-71.992188s-71.992188 32.226563-71.992188 71.992188 32.226563 71.992187 71.992188 71.992187 71.992187-32.226562 71.992187-71.992187zm0 0" class="a"/></g><g clip-path="url(#c)"><path d="M20.185 1124.002813l474.609375-664.804688" class="a"/></g><g clip-path="url(#d)"><path d="M489.989688 472.987188l-180-405" class="a"/></g></g></defs><use href="#f"/><style>.a{fill:none;stroke:#000;stroke-linecap:butt;stroke-linejoin:miter;stroke-miterlimit:10;stroke-opacity:1;stroke-width:18;transform:matrix(.1,0,0,-.1,-.581,113.537)}.b{fill:#000;fill-opacity:1;fill-rule:evenodd}</style></svg>