<svg xmlns="http://www.w3.org/2000/svg" width="215pt" height="134pt" viewBox="0 0 215 134"><defs><path d="M3.1406.0313v-.2969l-.4844-.0312c-.453125-.03125-.5-.109375-.5-.90625v-4.4687c0-.78125.046875-.875.5-.890625l.4844-.0312v-.2969C2.65625-6.875 2.15625-6.875 1.671875-6.875c-.484375 0-.96875 0-1.453125-.015625v.2969l.4844.0313c.453125.015625.5.109375.5.890625v4.4688c0 .796875-.046875.875-.5.90625l-.4844.0313V.0313C.703125.015625 1.1875 0 1.671875 0c.484375 0 .984375.015625 1.46875.03125zm0 0" id="m"/><path d="M5.7031.0313v-.2969l-.4062-.0312c-.34375-.015625-.375-.078125-.375-.71875V-2.9375c0-1.171875-.546875-1.734375-1.65625-1.734375-.375 0-.578125.0625-.796875.25l-.75.6563v-.875l-.0937-.0312c-.515625.203125-1.03125.34375-1.5625.40625v.2813h.375c.40625 0 .4375.0625.4375.71875v2.25c0 .625-.03125.703125-.359375.71875L.0625-.2656v.2969C.46875.015625.890625 0 1.296875 0 1.703125 0 2.125.015625 2.53125.03125v-.2969l-.4531-.0312c-.32815-.01565-.3594-.093775-.3594-.718775V-3.125c0-.453125.65625-.9375 1.265625-.9375.671875 0 1.109375.5 1.109375 1.265625V.0313C4.34375.015625 4.609375 0 4.875 0c.28125 0 .546875.015625.828125.03125zm0 0" id="h"/><path d="M3.1875-4.3437l-1.375.0625v-.3906c0-.40625.03125-.765625.109375-1.40625l-.125-.1094c-.234375.140625-.53125.28125-.84375.375C.984375-5.515625 1-5.328125 1-5.03125v.7031l-.7812.3438v.2188l.7656-.0469v2.875c0 .734375.328125 1.0625 1.09375 1.0625.21875 0 .46875-.0625.53125-.125l.4688-.5312-.125-.1719c-.25.140625-.40625.1875-.59375.1875-.390625 0-.546875-.1875-.546875-.6875v-2.6094h1.2813zm0 0" id="a"/><path d="M3.7344-4.5625c-.109375-.078125-.296875-.109375-.46875-.109375-.3125 0-.625.15625-.828125.40625l-.5625.6563v-1.0312l-.0937-.0312c-.5.203125-1.03125.34375-1.546875.40625v.2813H.5938c.40625 0 .4375.0625.4375.71875v2.25c0 .625-.03125.703125-.359375.71875l-.4687.0313V.0313C.625.015625 1.03125 0 1.4375 0c.46875 0 .9375.015625 1.421875.03125v-.2969l-.5156-.0312c-.453125-.03125-.46875-.0625-.46875-.71875v-1.7187c0-.59375.390625-1.09375.890625-1.09375.296875 0 .5.140625.65625.453125h.2188zm0 0" id="c"/><path d="M5.125-2.3594c0-1.34375-.984375-2.3125-2.34375-2.3125C1.328125-4.671875.3125-3.65625.3125-2.15625.3125-.75 1.203125.203125 2.5.203125c1.53125 0 2.625-1.078125 2.625-2.5625zM4.2031-2c0 1.15625-.515625 1.875-1.328125 1.875-.96875 0-1.625-.96875-1.625-2.375 0-1.203125.46875-1.84375 1.359375-1.84375.90625 0 1.59375 1 1.59375 2.34375zm0 0" id="i"/><path d="M5.7656.0313v-.2969l-.4531-.0313c-.34375-.015625-.375-.09375-.375-.71875V-7.1562l-.0781-.0781c-.4375.171875-.765625.25-1.5625.359375v.2813h.5625c.171875 0 .25.109375.25.40625v1.8281c-.5625-.234375-.84375-.3125-1.1875-.3125-.265625 0-.515625.0625-.765625.1875l-.875.4531C.71875-3.734375.34375-3 .34375-2.15625c0 .796875.28125 1.453125.765625 1.859375C1.453125-.015625 1.90625.125 2.5625.125c.203125 0 .421875-.046875.484375-.078125l1.0938-.9375L4.0938.0313C4.359375.015625 4.609375 0 4.859375 0c.296875 0 .609375.015625.90625.03125zM4.1094-2.2031c0 .640625-.015625.75-.15625.984375-.28125.46875-.765625.765625-1.234375.765625-.875 0-1.5-.84375-1.5-2.03125 0-1.078125.53125-1.71875 1.4375-1.71875.375 0 .765625.125 1.125.359375.203125.140625.328125.28125.328125.359375zm0 0" id="j"/><path d="M5.7969.0313v-.2969l-.4062-.0312c-.34375-.015625-.375-.078125-.375-.71875v-3.625l-.0937-.0312c-.5.203125-1.03125.34375-1.546875.40625v.2813h.3594c.40625 0 .4375.0625.4375.71875v1.625c0 .21875-.140625.5-.359375.734375-.28125.28125-.609375.421875-.984375.421875-.359375 0-.640625-.109375-.796875-.296875-.140625-.171875-.203125-.46875-.203125-.90625v-2.9531l-.0937-.0312c-.515625.203125-1.03125.34375-1.5625.40625v.2813h.375c.40625 0 .4375.0625.4375.71875v1.6875c0 .6875.0625 1 .234375 1.25C1.453125-.03125 1.828125.125 2.390625.125c.453125 0 .84375-.140625 1.125-.390625l.6563-.625c0 .296875 0 .453125-.03125.921875C4.421875.015625 4.6875 0 4.96875 0c.28125 0 .546875.015625.828125.03125zm0 0" id="n"/><path d="M4.1094-.4531l-.0937-.1562c-.35945.20305-.687575.2968-1.04695.2968-1.109375 0-1.828125-.859375-1.828125-2.1875 0-1.0625.5-1.65625 1.390625-1.65625.4375 0 .921875.203125 1.09375.453125l.0781.6094h.2813c0-.46875.046875-.875.125-1.234375-.390625-.234375-.734375-.34375-1.15625-.34375-.46875 0-1.03125.1875-1.625.5625C.625-3.671875.265625-2.96875.265625-2.09375c0 1.34375.9375 2.296875 2.28125 2.296875.515625 0 1.265625-.1875 1.359375-.34375zm0 0" id="o"/><path d="M2.7031.0313v-.2969L2.25-.2969c-.34375-.015625-.375-.09375-.375-.71875v-3.625l-.0937-.0312c-.5.203125-1.03125.34375-1.546875.40625v.2813H.5938c.40625 0 .4375.0625.4375.71875v2.25c0 .625-.03125.703125-.359375.71875l-.4687.0313v.2968C.625.015625 1.03125 0 1.453125 0c.421875 0 .828125.015625 1.25.03125zm-.75-6.375c0-.296875-.203125-.5-.484375-.5-.3125 0-.515625.1875-.515625.5 0 .296875.203125.484375.5.484375.296875 0 .5-.1875.5-.484375zm0 0" id="k"/><path d="M7.5313.0313v-.2969l-.3281-.0312c-.265625-.015625-.375-.21875-.71875-1.015625L4.0625-6.9844H3.75c0 0-.109375.34375-.484375 1.1875L1.0625-.7812C.921875-.5.734375-.3125.515625-.296875l-.3594.0313V.0313C.515625.015625.875 0 1.234375 0c.40625 0 .8125.015625 1.203125.03125v-.2969l-.3594-.0312c-.35935-.031275-.48435-.1094-.48435-.26565 0-.125.140625-.546875.34375-1.046875l.2813-.6719h2.875l.4531 1.1406c.171875.421875.21875.546875.21875.640625 0 .109375-.15625.1875-.40625.203125l-.4687.0313V.0313C5.34375.015625 5.8125 0 6.265625 0 6.6875 0 7.125.015625 7.53125.03125zM4.9219-2.6875H2.3907l1.2656-2.9687zm0 0" id="l"/><path d="M5.5156-2.7031c0-1.109375-.90625-1.96875-2.0625-1.96875-.375 0-.734375.09375-.890625.25l-.8125.75v-.9687l-.0937-.0312c-.515625.203125-1.03125.34375-1.5625.40625v.2813h.375c.40625 0 .4375.0625.4375.71875V1.75c0 .625-.03125.703125-.375.71875L.0781 2.5v.2969c.421875-.015625.828125-.03125 1.25-.03125.421875 0 .828125.015625 1.25.03125V2.5l-.4687-.0312C1.78125 2.453125 1.75 2.375 1.75 1.75V-.125c.296875.171875.609375.25 1.0625.25.28125 0 .546875-.0625.703125-.171875L4.6563-.7812c.390625-.25.859375-1.28125.859375-1.921875zm-.8594.375c0 1.109375-.671875 1.9375-1.5625 1.9375-.546875 0-.953125-.171875-1.34375-.59375v-2.0625c0-.140625.046875-.25.171875-.421875.296875-.375.703125-.5625 1.203125-.5625.9375 0 1.53125.65625 1.53125 1.703125zm0 0" id="b"/><path d="M4.4688-2.7812c0-1.140625-.734375-1.890625-1.859375-1.890625-.359375 0-.796875.125-1.203125.359375-.8125.46875-1.140625 1.09375-1.140625 2.125 0 .625.140625 1.171875.40625 1.546875C1.0625-.109375 1.75.203125 2.5.203125c.359375 0 .734375-.078125 1.140625-.265625.265625-.109375.46875-.234375.515625-.296875l.2031-.3437-.125-.0937c-.640625.375-.875.46875-1.296875.46875-.65625 0-1.1875-.296875-1.46875-.78125-.1875-.328125-.265625-.609375-.28125-1.1875h1.4531c.6875 0 1.125-.03125 1.8125-.140625 0-.140625.015625-.21875.015625-.34375zm-.8906.125-1.1094.0312c-.4688 0-.7188-.015625-1.265675-.0625 0-.46875.046875-.6875.171875-.953125.203125-.4375.640625-.703125 1.125-.703125.328125 0 .578125.125.765625.390625.21875.328125.3125.625.3125 1.296875zm0 0" id="d"/><path d="M4.9375.0313v-.2969l-.25-.0312c-.109375-.015625-.234375-.09375-.34375-.234375l-1.4687-2L4.2813-4.1875c.0625-.0625.171875-.109375.34375-.109375h.1406v-.2812h-.8125l-1.2344 1.75-.7656-1.1562c-.15625-.21875-.265625-.359375-.59375-.6875l-1.1562.2031.0469.25.2031.0156c.1875.03125.40625.15625.5.296875l1.2031 1.7343-1.4844 1.75C.59375-.328125.46875-.265625.375-.265625H.2031V0h.8594c0 0 .0625-.234375.59375-.9375l.7344-.9687L3.7188.0313C3.921875.015625 4.125 0 4.328125 0c.203125 0 .40625.015625.609375.03125zm0 0" id="p"/><path d="M6.6719-.8437l-.0781-.0938c-.625.40625-1.3125.59375-2.0625.59375-1.953125 0-3.25-1.296875-3.25-3.25 0-1.84375 1.140625-3.0625 2.859375-3.0625.96875 0 1.984375.40625 1.984375.796875v.7188h.3125c0-.5.046875-.859375.1875-1.515625-.859375-.28125-1.578125-.40625-2.3125-.40625-.859375 0-1.6875.203125-2.359375.59375C.8125-5.796875.21875-4.75.21875-3.40625.21875-1.25 1.796875.203125 4.140625.203125c.828125 0 1.578125-.1875 2.265625-.546875zm0 0" id="e"/><path d="M5.7031.0313v-.2969l-.4062-.0312c-.34375-.015625-.375-.078125-.375-.71875V-2.9375c0-1.171875-.546875-1.734375-1.65625-1.734375-.375 0-.578125.0625-.796875.25l-.75.6563V-7.1562L1.625-7.2344c-.4375.171875-.765625.25-1.5625.359375v.2813H.625c.1875 0 .25.109375.25.40625v5.1719c0 .625-.03125.703125-.359375.71875L.0625-.2656v.2969C.46875.015625.890625 0 1.296875 0 1.703125 0 2.125.015625 2.53125.03125v-.2969l-.4531-.0312c-.32815-.01565-.3594-.093775-.3594-.718775V-3.125c0-.453125.65625-.9375 1.265625-.9375.671875 0 1.109375.5 1.109375 1.265625V.0313C4.34375.015625 4.609375 0 4.875 0c.28125 0 .546875.015625.828125.03125zm0 0" id="f"/><path d="M4.6875.0313v-.2969l-.375-.0312c-.25 0-.28125-.078125-.28125-.578125v-1.8125c0-1.453125-.421875-1.984375-1.578125-1.984375-.421875 0-.828125.109375-1.203125.328125l-.5312.3281V-3.375l.2656.0781.125-.3125c.203125-.46875.3125-.53125.765625-.53125.9375 0 1.328125.359375 1.359375 1.265625L2.25-2.6875c-1.359375.25-1.9375.71875-1.9375 1.578125C.3125-.328125.78125.125 1.578125.125 1.75.125 1.921875.09375 2 .046875L3.2344-.8125l-.0469.8438C3.4375.015625 3.703125 0 3.953125 0c.25 0 .5.015625.734375.03125zM3.2344-1.2344c-.296875.40625-.921875.78125-1.3125.78125-.390625 0-.75-.359375-.75-.796875 0-.359375.203125-.71875.5-.90625.25-.140625.796875-.28125 1.5625-.390625zm0 0" id="g"/><path d="M4.1719.0313v-.2969l-.5156-.0312C3.09375-.328125 3-.4375 3-.953125V-6.875l-.1406-.0469c-.64065.343775-1.3594.64065-2.26565.95315l.0781.4375h.0938c.4375-.203125.875-.40625 1.3125-.59375.0625 0 .078125.09375.078125.328125v4.8438c0 .515625-.109375.625-.640625.65625l-.5625.0313V.0313C1.5.015625 2.046875 0 2.609375 0 3.125 0 3.65625.015625 4.171875.03125zm0 0" id="q"/><path d="M4.6719.0313c-.03125-.203125-.03125-.3125-.03125-.453125 0-.125 0-.21875.03125-.453125L1.2188-.7656l1.8125-1.9219C4-3.71875 4.296875-4.265625 4.296875-5.015625 4.296875-6.15625 3.515625-6.875 2.25-6.875c-.71875 0-1.203125.203125-1.6875.703125L.3906-4.8125h.2813l.1406-.4687c.15625-.578125.515625-.8125 1.1875-.8125.84375 0 1.40625.53125 1.40625 1.375 0 .75-.421875 1.484375-1.546875 2.6875L.1563-.2344v.2657C.890625.015625 1.640625 0 2.375 0c.765625 0 1.53125.015625 2.296875.03125zm0 0" id="r"/><path d="M4.6094-2.2344c0-.484375-.203125-.890625-.5625-1.140625-.25-.1875-.484375-.265625-.96875-.359375.796875-.609375 1.09375-1.078125 1.09375-1.65625 0-.890625-.75-1.484375-1.84375-1.484375-.6875 0-1.125.203125-1.609375.671875L.4219-4.9687h.3125l.1875-.5469c.109375-.34375.734375-.6875 1.25-.6875.65625 0 1.171875.53125 1.171875 1.15625 0 .75-.578125 1.375-1.296875 1.375-.078125 0-.46875-.03125-.46875-.03125l-.1094.5313.0625.0625c.375-.171875.578125-.21875.84375-.21875.828125 0 1.296875.53125 1.296875 1.4375 0 1.015625-.59375 1.6875-1.53125 1.6875-.453125 0-.859375-.15625-1.15625-.4375-.25-.21875-.375-.453125-.5625-.984375l-.2656.0938C.359375-.921875.4375-.5625.5-.0625c.53125.1875.96875.265625 1.328125.265625 1.21875 0 2.78125-1.046875 2.78125-2.4375zm0 0" id="s"/><path d="M4.9531-6.5625v-.3125c-1.078125.046875-1.171875.0625-2.234375.0625-1.046875 0-1.21875-.015625-2.1875-.0625l-.0937.0625c0 0 .03125.625.03125 1.046875C.46875-5.375.4375-4.75.4375-4.75h.2969l.0781-.5625c.078125-.625.140625-.703125.609375-.703125h2.6563C3.671875-5.1875 3.375-4.609375 2.984375-4L.5625-.0937l.0781.125c0 0 .28125-.03125.46875-.03125.171875 0 .453125.03125.453125.03125.421875-1.09375.6875-1.734375 1.5625-3.328125zm0 0" id="t"/><path d="M4.625-2.0469c0-.796875-.375-1.234375-1.5-1.75.90625-.625 1.21875-1.03125 1.21875-1.640625 0-.859375-.703125-1.4375-1.765625-1.4375-1.1875 0-2.046875.765625-2.046875 1.8125 0 .671875.265625 1.0625 1.140625 1.625-.40625.1875-.578125.296875-.796875.5-.375.390625-.578125.828125-.578125 1.359375C.296875-.5625 1.125.203125 2.25.203125c1.296875 0 2.375-1.015625 2.375-2.25zm-.7812.4063c0 .84375-.640625 1.5-1.4375 1.5C1.5625-.140625 1-.734375 1-1.671875c0-.71875.296875-1.171875 1.03125-1.625l.7969.3594c.625.28125 1.015625.765625 1.015625 1.296875zm-.1719-3.6875c0 .578125-.25.96875-.90625 1.375l-.5469-.2656c-.625-.3125-.9375-.703125-.9375-1.203125 0-.65625.46875-1.109375 1.1875-1.109375.71875 0 1.203125.484375 1.203125 1.203125zm0 0" id="u"/><path d="M4.7031.0313v-.2969l-.4687-.0312c-.5-.03125-.609375-.15625-.609375-.765625v-.7344c.59375 0 .796875 0 1.078125.03125v-.7031c0 0-.484375.03125-.8125.03125H3.625v-1.3906c0-1.78125.03125-2.625.078125-3.046875l-.125-.0469-.7344.2656-2.8281 4.625.1094.2344h2.6719v.7344c0 .609375-.109375.75-.609375.765625l-.6094.0313V.0313C2.109375.015625 2.640625 0 3.1875 0c.5 0 1.015625.015625 1.515625.03125zM2.7969-2.4375H.6406l2.1563-3.5156zm0 0" id="v"/><path d="M4.5781-2.5156c0-1.140625-.8125-1.9375-1.953125-1.9375-.46875 0-.828125.140625-1.453125.5l.0938-2.0781 3.0469.0469.0469-.0469c-.015625-.171875-.015625-.234375-.015625-.390625 0-.15625 0-.21875.015625-.390625L4.3125-6.875c0 0-1.0625.0625-1.734375.0625-.6875 0-1.734375-.0625-1.734375-.0625l-.0625.0625.0313 1.3594c0 .875-.03125 1.796875-.0625 2.25l.2031.0469c.46875-.46875.734375-.609375 1.21875-.609375.953125 0 1.5625.6875 1.5625 1.765625C3.734375-.890625 3.09375-.25 2-.25 1.46875-.25.96875-.421875.828125-.6875L.375-1.5l-.25.1406c.234375.5625.359375.875.5 1.3125.265625.15625.671875.25 1.09375.25.671875 0 1.375-.296875 1.9375-.765625.59375-.546875.921875-1.21875.921875-1.953125zm0 0" id="w"/><path d="M4.6719-2.1875c0-1.140625-.6875-1.890625-1.75-1.890625-.59375 0-.953125.234375-1.609375.78125.203125-1.8125 1.046875-2.78125 2.828125-3.328125v-.0781L3.7813-6.875c-.953125.328125-1.375.53125-1.875.96875C.875-5.046875.3125-3.828125.3125-2.46875.3125-.8125 1.109375.203125 2.40625.203125c1.296875 0 2.265625-1.03125 2.265625-2.390625zm-.8594.3594c0 1.031225-.515625 1.7031-1.28125 1.7031-.84375 0-1.3125-.734375-1.3125-2.0625 0-.359375.046875-.546875.15625-.71875.21875-.328125.6875-.578125 1.171875-.578125.75 0 1.265625.65625 1.265625 1.65625zm0 0" id="x"/></defs><use x="85.463" y="8.143" href="#m"/><use x="88.8204" y="8.143" href="#h"/><use x="94.6186" y="8.143" href="#a"/><use x="97.8664" y="8.143" href="#c"/><use x="101.8017" y="8.143" href="#i"/><use x="107.2412" y="8.143" href="#j"/><use x="113.3284" y="8.143" href="#n"/><use x="119.3358" y="8.143" href="#o"/><use x="123.7592" y="8.143" href="#a"/><use x="127.007" y="8.143" href="#k"/><use x="129.9062" y="8.143" href="#i"/><use x="135.3457" y="8.143" href="#h"/><use x=".91" y="30.584" href="#l"/><use x="8.6609" y="30.584" href="#b"/><use x="14.6484" y="30.584" href="#b"/><use x="20.6359" y="30.584" href="#d"/><use x="25.408" y="30.584" href="#h"/><use x="31.2063" y="30.584" href="#j"/><use x="37.2934" y="30.584" href="#k"/><use x="40.1925" y="30.584" href="#p"/><use x="47.8239" y="30.584" href="#l"/><use x="91.774" y="30.584" href="#e"/><use x="98.8375" y="30.584" href="#f"/><use x="104.6357" y="30.584" href="#g"/><use x="109.617" y="30.584" href="#b"/><use x="115.4053" y="30.584" href="#a"/><use x="118.6531" y="30.584" href="#d"/><use x="123.4252" y="30.584" href="#c"/><use x="129.8511" y="30.584" href="#q"/><use x="91.774" y="55.62" href="#e"/><use x="98.8375" y="55.62" href="#f"/><use x="104.6357" y="55.62" href="#g"/><use x="109.617" y="55.62" href="#b"/><use x="115.4053" y="55.62" href="#a"/><use x="118.6531" y="55.62" href="#d"/><use x="123.4252" y="55.62" href="#c"/><use x="129.8511" y="55.62" href="#r"/><use x="6.713" y="80.656" href="#e"/><use x="13.7765" y="80.656" href="#f"/><use x="19.5747" y="80.656" href="#g"/><use x="24.556" y="80.656" href="#b"/><use x="30.3443" y="80.656" href="#a"/><use x="33.5921" y="80.656" href="#d"/><use x="38.3642" y="80.656" href="#c"/><use x="44.7901" y="80.656" href="#s"/><use x="171.032" y="80.656" href="#e"/><use x="178.0955" y="80.656" href="#f"/><use x="183.8937" y="80.656" href="#g"/><use x="188.875" y="80.656" href="#b"/><use x="194.6633" y="80.656" href="#a"/><use x="197.9111" y="80.656" href="#d"/><use x="202.6832" y="80.656" href="#c"/><use x="209.1091" y="80.656" href="#t"/><use x="6.713" y="105.692" href="#e"/><use x="13.7765" y="105.692" href="#f"/><use x="19.5747" y="105.692" href="#g"/><use x="24.556" y="105.692" href="#b"/><use x="30.3443" y="105.692" href="#a"/><use x="33.5921" y="105.692" href="#d"/><use x="38.3642" y="105.692" href="#c"/><use x="44.7901" y="105.692" href="#u"/><use x="91.774" y="105.692" href="#e"/><use x="98.8375" y="105.692" href="#f"/><use x="104.6357" y="105.692" href="#g"/><use x="109.617" y="105.692" href="#b"/><use x="115.4053" y="105.692" href="#a"/><use x="118.6531" y="105.692" href="#d"/><use x="123.4252" y="105.692" href="#c"/><use x="129.8511" y="105.692" href="#v"/><use x="91.774" y="130.728" href="#e"/><use x="98.8375" y="130.728" href="#f"/><use x="104.6357" y="130.728" href="#g"/><use x="109.617" y="130.728" href="#b"/><use x="115.4053" y="130.728" href="#a"/><use x="118.6531" y="130.728" href="#d"/><use x="123.4252" y="130.728" href="#c"/><use x="129.8511" y="130.728" href="#w"/><use x="171.032" y="130.728" href="#e"/><use x="178.0955" y="130.728" href="#f"/><use x="183.8937" y="130.728" href="#g"/><use x="188.875" y="130.728" href="#b"/><use x="194.6633" y="130.728" href="#a"/><use x="197.9111" y="130.728" href="#d"/><use x="202.6832" y="130.728" href="#c"/><use x="209.1091" y="130.728" href="#x"/><g style="fill:none;stroke-width:.5878;stroke:#000;stroke-miterlimit:10"><path d="M5.804688 55.656031v-7.980469" class="a"/><path stroke-linecap="round" stroke-linejoin="round" d="M-3.056891 3.528701C-2.498297 1.411514-1.252204.411514.0017025.0013575-1.252204-.412705-2.498297-1.408799-3.056891-3.525986" transform="matrix(0 1 1 0 113.30333 19.81861)"/><path d="M-79.257812 30.616969V-2.398656" class="b"/><path stroke-linecap="round" stroke-linejoin="round" d="M-3.055472 3.528241C-2.496879 1.411054-1.254691.411054-7.85e-4 8.975e-4-1.254691-.413165-2.496879-1.409259-3.055472-3.526446" transform="matrix(0 1 1 0 28.24129 69.89141)"/><path d="M5.804688 30.616969V22.6365" class="a"/><path stroke-linecap="round" stroke-linejoin="round" d="M-3.058145 3.528701C-2.499551 1.411514-1.253457.411514 4.4875e-4.0013575-1.253457-.412705-2.499551-1.408799-3.058145-3.525986" transform="matrix(0 1 1 0 113.30333 44.85502)"/><path d="M14.976562 5.581812 76.4375-52.656469" class="a"/><path stroke-linecap="round" stroke-linejoin="round" d="M-3.0553 3.527072C-2.498824 1.411977-1.254664.411308-1.08812e-4.00170512-1.25474-.412152-2.497528-1.412146-3.054672-3.527639" transform="matrix(.72585 .68777 .68777 -.72585 184.15125 120.056)"/><path d="M5.804688 5.581812v-33.015625" class="a"/><path stroke-linecap="round" stroke-linejoin="round" d="M-3.056726 3.528701C-2.498132 1.411514-1.252039.411514.0018675.0013575-1.252039-.412705-2.498132-1.408799-3.056726-3.525986" transform="matrix(0 1 1 0 113.30333 94.92782)"/><path d="M-18.914062 7.007594l-35.0625-10.328125" class="a"/><path stroke-linecap="round" stroke-linejoin="round" d="M-3.055836 3.52467C-2.497974 1.409587-1.252652.411446-8.81979e-4.00191622-1.254581-.410629-2.498635-1.412453-3.056936-3.528557" transform="matrix(-.95918 .2826 .2826 .95918 53.2408 70.60388)"/><path d="M30.519531 6.476344l29.390625-9.285157" class="a"/><path stroke-linecap="round" stroke-linejoin="round" d="M-3.058011 3.527159C-2.499598 1.409388-1.253924.410014-.00145251-.00137784-1.25207-.412847-2.49831-1.408769-3.058023-3.527446" transform="matrix(.9535 .30122 .30122 -.9535 167.6893 70.09678)"/><path d="M-54.542969-18.027563l35.066407-10.332031" class="b"/><path stroke-linecap="round" stroke-linejoin="round" d="M-3.057777 3.525533C-2.499476 1.40943-1.252779.412456 9.20096e-4-8.85974e-5-1.254598-.410722-2.498815-1.41261-3.056677-3.527694" transform="matrix(.95918 .2826 .2826 -.95918 88.30383 95.64028)"/><path d="M-79.257812-19.453344v-7.980469" class="a"/><path stroke-linecap="round" stroke-linejoin="round" d="M-3.056726 3.528241C-2.498132 1.411054-1.252039.411054.0018675 8.975e-4-1.252039-.413165-2.498132-1.409259-3.056726-3.526446" transform="matrix(0 1 1 0 28.24129 94.92782)"/><path d="M5.804688-44.492406v-7.980469" class="a"/><path stroke-linecap="round" stroke-linejoin="round" d="M-3.05799 3.528701C-2.499396 1.411514-1.253303.411514 6.0375e-4.0013575-1.253303-.412705-2.499396-1.408799-3.05799-3.525986" transform="matrix(0 1 1 0 113.30333 119.96424)"/><path d="M30.519531-43.597875l29.390625-9.285156" class="b"/><path stroke-linecap="round" stroke-linejoin="round" d="M-3.057589 3.525825C-2.500354 1.411779-1.25468.412405-.0022079.00101331-1.252825-.410456-2.497888-1.410102-3.057602-3.52878" transform="matrix(.9535 .30122 .30122 -.9535 167.6893 120.1696)"/></g><style>.a{transform:matrix(1,0,0,-1,107.5,67.199)}.b{stroke-dasharray:.5878,1.99255;transform:matrix(1,0,0,-1,107.5,67.199)}</style></svg>