<svg xmlns="http://www.w3.org/2000/svg" width="778.923pt" height="275.999pt" viewBox="0 0 778.923 275.999"><defs><use href="#a" id="r"/><use href="#b" id="t"/><use href="#c" id="B"/><use href="#d" id="v"/><use href="#e" id="C"/><use href="#f" id="x"/><use href="#g" id="z"/><use href="#a" id="s"/><use href="#b" id="u"/><use href="#c" id="D"/><use href="#d" id="w"/><use href="#e" id="E"/><use href="#f" id="y"/><use href="#g" id="A"/><clipPath id="F"><use href="#h"/></clipPath><clipPath id="G"><use href="#i"/></clipPath><clipPath id="H"><use href="#h"/></clipPath><clipPath id="I"><path d="M105 10.0117h1v254.9727h-1zm0 0"/></clipPath><clipPath id="J"><path d="M190 10.0117h1v254.9727h-1zm0 0"/></clipPath><clipPath id="K"><path d="M275 10.0117h1v254.9727h-1zm0 0"/></clipPath><clipPath id="L"><path d="M360 10.0117h.4648v254.9727H360zm0 0"/></clipPath><clipPath id="M"><path d="M20.4961 253h339.9688v1H20.4961zm0 0"/></clipPath><clipPath id="N"><path d="M20.4961 195h339.9688v1H20.4961zm0 0"/></clipPath><clipPath id="O"><use href="#i"/></clipPath><clipPath id="P"><path d="M20.4961 79h339.9688v1H20.4961zm0 0"/></clipPath><clipPath id="Q"><path d="M20.4961 21h339.9688v1H20.4961zm0 0"/></clipPath><clipPath id="R"><path d="M12 269h15v6.4844H12zm0 0"/></clipPath><clipPath id="S"><path d="M97 269h15v6.4844H97zm0 0"/></clipPath><clipPath id="T"><path d="M183 269h15v6.4844h-15zm0 0"/></clipPath><clipPath id="U"><path d="M268 269h15v6.4844h-15zm0 0"/></clipPath><clipPath id="V"><path d="M353 269h15v6.4844h-15zm0 0"/></clipPath><clipPath id="W"><path d="M367 251h12.4609v7H367zm0 0"/></clipPath><clipPath id="X"><path d="M367 193h12.4609v6H367zm0 0"/></clipPath><clipPath id="Y"><path d="M20.4961 20h339.9688v119H20.4961zm0 0"/></clipPath><clipPath id="Z"><use href="#j"/></clipPath><clipPath id="a0"><use href="#k"/></clipPath><clipPath id="a1"><use href="#j"/></clipPath><clipPath id="a2"><path d="M504 10.0117h1v254.9727h-1zm0 0"/></clipPath><clipPath id="a3"><path d="M589 10.0117h1v254.9727h-1zm0 0"/></clipPath><clipPath id="a4"><path d="M674 10.0117h1v254.9727h-1zm0 0"/></clipPath><clipPath id="a5"><path d="M759 10.0117h.3477v254.9727H759zm0 0"/></clipPath><clipPath id="a6"><path d="M419.3828 253h339.9648v1H419.3828zm0 0"/></clipPath><clipPath id="a7"><path d="M419.3828 195h339.9648v1H419.3828zm0 0"/></clipPath><clipPath id="a8"><use href="#k"/></clipPath><clipPath id="a9"><path d="M419.3828 79h339.9648v1H419.3828zm0 0"/></clipPath><clipPath id="aa"><path d="M419.3828 21h339.9648v1H419.3828zm0 0"/></clipPath><clipPath id="ab"><path d="M411 269h15v6.4844h-15zm0 0"/></clipPath><clipPath id="ac"><path d="M496 269h15v6.4844h-15zm0 0"/></clipPath><clipPath id="ad"><path d="M582 269h15v6.4844h-15zm0 0"/></clipPath><clipPath id="ae"><path d="M667 269h15v6.4844h-15zm0 0"/></clipPath><clipPath id="af"><path d="M752 269h15v6.4844h-15zm0 0"/></clipPath><clipPath id="ag"><path d="M399.3828 251H413v7h-13.6172zm0 0"/></clipPath><clipPath id="ah"><path d="M399.3828 193H413v6h-13.6172zm0 0"/></clipPath><clipPath id="ai"><path d="M765 251h13.3477v7H765zm0 0"/></clipPath><clipPath id="aj"><path d="M765 193h13.3477v6H765zm0 0"/></clipPath><clipPath id="ak"><path d="M419.3828 79h339.9648v60H419.3828zm0 0"/></clipPath><path id="a" d="M2.0625-5.3125c-.5 0-.9375.21875-1.21875.578125C.5-4.265625.328125-3.5625.328125-2.578125c0 1.796875.59375 2.75 1.734375 2.75 1.125 0 1.734375-.953125 1.734375-2.703125 0-1.03125-.15625-1.71875-.515625-2.203125C3-5.109375 2.5625-5.3125 2.0625-5.3125zm0 .5781c.71875 0 1.0625.71875 1.0625 2.140625C3.125-1.078125 2.78125-.375 2.046875-.375 1.34375-.375 1-1.109375 1-2.5625c0-1.453125.34375-2.171875 1.0625-2.171875zm0 0"/><path id="b" d="M1.4375-.7812H.6563V0h.7813zm0 0"/><path id="c" d="M3.7969-.6562H1c.0625-.4375.3125-.703125.953125-1.09375l.75-.4062c.75-.40625 1.125-.953125 1.125-1.59375 0-.453125-.171875-.859375-.484375-1.140625C3.015625-5.1875 2.625-5.3125 2.125-5.3125c-.671875 0-1.171875.234375-1.46875.6875-.1875.28125-.265625.609375-.28125 1.15625h.6563c.03125-.359375.078125-.578125.15625-.75.171875-.328125.515625-.515625.921875-.515625.59375 0 1.046875.421875 1.046875.984375 0 .421875-.25.78125-.71875 1.0625l-.6875.3906C.640625-1.671875.3125-1.171875.25 0h3.5469zm0 0"/><path id="d" d="M3.5625-5.3125H.8281L.4219-2.4219h.6094c.3125-.375.5625-.5.984375-.5.703125 0 1.15625.484375 1.15625 1.28125 0 .765625-.4375 1.234375-1.15625 1.234375-.578125 0-.9375-.296875-1.09375-.90625h-.6562c.09375.4375.15625.65625.3125.84375.3125.40625.84375.640625 1.453125.640625 1.0625 0 1.8125-.78125 1.8125-1.90625C3.84375-2.78125 3.15625-3.5 2.125-3.5c-.375 0-.671875.09375-.984375.3125l.2188-1.4844H3.5625zm0 0"/><path id="e" d="M3.9063-5.3125H.3438v.6406h2.875C1.953125-2.859375 1.4375-1.75 1.03125 0h.7031c.296875-1.703125.96875-3.171875 2.171875-4.765625zm0 0"/><path id="f" d="M1.9375-3.7812V0h.6719v-5.3125h-.4375c-.2344.8125-.39065.921875-1.406275 1.046875v.4844zm0 0"/><path id="g" d="M2.125-2.3437H.3438v.5469H2.125zm0 0"/><path id="h" d="M20.4961 10.0117H21v254.9727h-.5039zm0 0"/><path id="i" d="M20.4961 137h339.9688v1H20.4961zm0 0"/><path id="j" d="M419.3828 10.0117H420v254.9727h-.6172zm0 0"/><path id="k" d="M419.3828 137h339.9648v1H419.3828zm0 0"/><path id="l" d="M199.9812 105.0157v2549.9786"/><path id="m" d="M199.9812 1379.9855h3400.0236"/><path id="n" d="M3600.0048 105.0157v2549.9786"/><path id="o" d="M200.0027 105.0157v2549.9786"/><path id="p" d="M200.0027 1379.9855h3399.9845"/><path id="q" d="M3599.9872 105.0157v2549.9786"/></defs><path fill="#fff" d="M20.4961 264.9844h339.9688V10.0117H20.4961zm0 0"/><g clip-path="url(#F)"><use href="#l" class="g"/></g><g clip-path="url(#G)"><use href="#m" class="g"/></g><g clip-path="url(#H)"><use href="#l" class="a"/></g><g clip-path="url(#I)"><path d="M1049.987092 105.01572v2549.978614" class="a"/></g><g clip-path="url(#J)"><path d="M1899.992986 105.01572v2549.978614" class="a"/></g><g clip-path="url(#K)"><path d="M2749.998879 105.01572v2549.978614" class="a"/></g><g clip-path="url(#L)"><use href="#n" class="a"/></g><g clip-path="url(#M)"><path d="M199.981199 220.886548h3400.023574" class="a"/></g><g clip-path="url(#N)"><path d="M199.981199 800.475087h3400.023574" class="a"/></g><g clip-path="url(#O)"><use href="#m" class="a"/></g><g clip-path="url(#P)"><path d="M199.981199 1959.534967h3400.023574" class="a"/></g><g clip-path="url(#Q)"><path d="M199.981199 2539.08444h3400.023574" class="a"/></g><g class="e"><path d="M199.981199 105.01572h3400.023574" class="c"/><g class="d"><path d="M199.981199 105.01572v49.965876"/><path d="M284.989601 105.01572v25.002471"/><path d="M369.998004 105.01572v25.002471"/><path d="M455.006407 105.01572v25.002471"/><path d="M540.014809 105.01572v25.002471"/><path d="M624.984146 105.01572v25.002471"/><path d="M709.992548 105.01572v25.002471"/><path d="M795.000951 105.01572v25.002471"/><path d="M880.009353 105.01572v25.002471"/><path d="M965.017756 105.01572v25.002471"/><path d="M1049.987092 105.01572v49.965876"/><path d="M1134.995495 105.01572v25.002471"/><path d="M1220.003898 105.01572v25.002471"/><path d="M1305.0123 105.01572v25.002471"/><path d="M1389.981637 105.01572v25.002471"/><path d="M1474.990039 105.01572v25.002471"/><path d="M1559.998442 105.01572v25.002471"/><path d="M1645.006844 105.01572v25.002471"/><path d="M1730.015247 105.01572v25.002471"/><path d="M1814.984583 105.01572v25.002471"/><path d="M1899.992986 105.01572v49.965876"/><path d="M1985.001389 105.01572v25.002471"/><path d="M2070.009791 105.01572v25.002471"/><path d="M2155.018194 105.01572v25.002471"/><path d="M2239.98753 105.01572v25.002471"/><path d="M2324.995933 105.01572v25.002471"/><path d="M2410.004335 105.01572v25.002471"/><path d="M2495.012738 105.01572v25.002471"/><path d="M2579.982074 105.01572v25.002471"/><path d="M2664.990477 105.01572v25.002471"/><path d="M2749.998879 105.01572v49.965876"/><path d="M2835.007282 105.01572v25.002471"/><path d="M2920.015685 105.01572v25.002471"/><path d="M3004.985021 105.01572v25.002471"/><path d="M3089.993424 105.01572v25.002471"/><path d="M3175.001826 105.01572v25.002471"/><path d="M3260.010229 105.01572v25.002471"/><path d="M3345.018631 105.01572v25.002471"/><path d="M3429.987968 105.01572v25.002471"/><path d="M3514.99637 105.01572v25.002471"/><path d="M3600.004773 105.01572v49.965876"/></g></g><g clip-path="url(#R)"><use x="12.5765" y="274.985" href="#r"/><use x="16.746" y="274.985" href="#t"/><use x="18.8308" y="274.985" href="#r"/><use x="23.0004" y="274.985" href="#r"/></g><g clip-path="url(#S)"><use x="97.568" y="274.985" href="#r"/><use x="101.7376" y="274.985" href="#t"/><use x="103.8224" y="274.985" href="#B"/><use x="107.992" y="274.985" href="#v"/></g><g clip-path="url(#T)"><use x="183.1846" y="274.985" href="#r"/><use x="187.3542" y="274.985" href="#t"/><use x="189.439" y="274.985" href="#v"/><use x="193.6086" y="274.985" href="#r"/></g><g clip-path="url(#U)"><use x="268.1762" y="274.985" href="#r"/><use x="272.3458" y="274.985" href="#t"/><use x="274.4305" y="274.985" href="#C"/><use x="278.6001" y="274.985" href="#v"/></g><g clip-path="url(#V)"><use x="353.1677" y="274.985" href="#x"/><use x="357.3373" y="274.985" href="#t"/><use x="359.4221" y="274.985" href="#r"/><use x="363.5917" y="274.985" href="#r"/></g><g class="e"><path d="M199.981199 2654.994334h3400.023574" class="c"/><g class="d"><path d="M199.981199 2654.994334v-50.004943"/><path d="M284.989601 2654.994334v-25.002471"/><path d="M369.998004 2654.994334v-25.002471"/><path d="M455.006407 2654.994334v-25.002471"/><path d="M540.014809 2654.994334v-25.002471"/><path d="M624.984146 2654.994334v-25.002471"/><path d="M709.992548 2654.994334v-25.002471"/><path d="M795.000951 2654.994334v-25.002471"/><path d="M880.009353 2654.994334v-25.002471"/><path d="M965.017756 2654.994334v-25.002471"/><path d="M1049.987092 2654.994334v-50.004943"/><path d="M1134.995495 2654.994334v-25.002471"/><path d="M1220.003898 2654.994334v-25.002471"/><path d="M1305.0123 2654.994334v-25.002471"/><path d="M1389.981637 2654.994334v-25.002471"/><path d="M1474.990039 2654.994334v-25.002471"/><path d="M1559.998442 2654.994334v-25.002471"/><path d="M1645.006844 2654.994334v-25.002471"/><path d="M1730.015247 2654.994334v-25.002471"/><path d="M1814.984583 2654.994334v-25.002471"/><path d="M1899.992986 2654.994334v-50.004943"/><path d="M1985.001389 2654.994334v-25.002471"/><path d="M2070.009791 2654.994334v-25.002471"/><path d="M2155.018194 2654.994334v-25.002471"/><path d="M2239.98753 2654.994334v-25.002471"/><path d="M2324.995933 2654.994334v-25.002471"/><path d="M2410.004335 2654.994334v-25.002471"/><path d="M2495.012738 2654.994334v-25.002471"/><path d="M2579.982074 2654.994334v-25.002471"/><path d="M2664.990477 2654.994334v-25.002471"/><path d="M2749.998879 2654.994334v-50.004943"/><path d="M2835.007282 2654.994334v-25.002471"/><path d="M2920.015685 2654.994334v-25.002471"/><path d="M3004.985021 2654.994334v-25.002471"/><path d="M3089.993424 2654.994334v-25.002471"/><path d="M3175.001826 2654.994334v-25.002471"/><path d="M3260.010229 2654.994334v-25.002471"/><path d="M3345.018631 2654.994334v-25.002471"/><path d="M3429.987968 2654.994334v-25.002471"/><path d="M3514.99637 2654.994334v-25.002471"/><path d="M3600.004773 2654.994334v-50.004943"/></g></g><use x="12.5765" y="6.8865" href="#r"/><use x="16.746" y="6.8865" href="#t"/><use x="18.8308" y="6.8865" href="#r"/><use x="23.0004" y="6.8865" href="#r"/><use x="97.568" y="6.8865" href="#r"/><use x="101.7376" y="6.8865" href="#t"/><use x="103.8224" y="6.8865" href="#B"/><use x="107.992" y="6.8865" href="#v"/><use x="183.1846" y="6.8865" href="#r"/><use x="187.3542" y="6.8865" href="#t"/><use x="189.439" y="6.8865" href="#v"/><use x="193.6086" y="6.8865" href="#r"/><use x="268.1762" y="6.8865" href="#r"/><use x="272.3458" y="6.8865" href="#t"/><use x="274.4305" y="6.8865" href="#C"/><use x="278.6001" y="6.8865" href="#v"/><use x="353.1677" y="6.8865" href="#x"/><use x="357.3373" y="6.8865" href="#t"/><use x="359.4221" y="6.8865" href="#r"/><use x="363.5917" y="6.8865" href="#r"/><g class="e"><use href="#l" class="c"/><g class="d"><path d="M199.981199 105.01572h25.002471"/><path d="M199.981199 162.951134h25.002471"/><path d="M199.981199 220.886548h50.004943"/><path d="M199.981199 278.861028h25.002471"/><path d="M199.981199 336.835509h25.002471"/><path d="M199.981199 394.770923h25.002471"/><path d="M199.981199 452.745404h25.002471"/><path d="M199.981199 510.680818h25.002471"/><path d="M199.981199 568.655298h25.002471"/><path d="M199.981199 626.590712h25.002471"/><path d="M199.981199 684.526126h25.002471"/><path d="M199.981199 742.500607h25.002471"/><path d="M199.981199 800.475087h50.004943"/><path d="M199.981199 858.410501h25.002471"/><path d="M199.981199 916.345915h25.002471"/><path d="M199.981199 974.320396h25.002471"/><path d="M199.981199 1032.25581h25.002471"/><path d="M199.981199 1090.230291h25.002471"/><path d="M199.981199 1148.165705h25.002471"/><path d="M199.981199 1206.140185h25.002471"/><path d="M199.981199 1264.075599h25.002471"/><path d="M199.981199 1322.05008h25.002471"/><path d="M199.981199 1379.985494h50.004943"/><path d="M199.981199 1437.959974h25.002471"/><path d="M199.981199 1495.895388h25.002471"/><path d="M199.981199 1553.869869h25.002471"/><path d="M199.981199 1611.805283h25.002471"/><path d="M199.981199 1669.779763h25.002471"/><path d="M199.981199 1727.715178h25.002471"/><path d="M199.981199 1785.689658h25.002471"/><path d="M199.981199 1843.625072h25.002471"/><path d="M199.981199 1901.599553h25.002471"/><path d="M199.981199 1959.534967h50.004943"/><path d="M199.981199 2017.509447h25.002471"/><path d="M199.981199 2075.444861h25.002471"/><path d="M199.981199 2133.419342h25.002471"/><path d="M199.981199 2191.354756h25.002471"/><path d="M199.981199 2249.329236h25.002471"/><path d="M199.981199 2307.26465h25.002471"/><path d="M199.981199 2365.239131h25.002471"/><path d="M199.981199 2423.174545h25.002471"/><path d="M199.981199 2481.149025h25.002471"/><path d="M199.981199 2539.08444h50.004943"/><path d="M199.981199 2597.05892h25.002471"/><path d="M199.981199 2654.994334h25.002471"/></g></g><use x=".7031" y="256.8617" href="#z"/><use x="3.2003" y="256.8617" href="#x"/><use x="7.3699" y="256.8617" href="#t"/><use x="9.4547" y="256.8617" href="#r"/><use x=".7031" y="198.7425" href="#z"/><use x="3.2003" y="198.7425" href="#r"/><use x="7.3699" y="198.7425" href="#t"/><use x="9.4547" y="198.7425" href="#v"/><use x="3.2001" y="140.6232" href="#r"/><use x="7.3697" y="140.6232" href="#t"/><use x="9.4545" y="140.6232" href="#r"/><use x="3.2001" y="83.1289" href="#r"/><use x="7.3697" y="83.1289" href="#t"/><use x="9.4545" y="83.1289" href="#v"/><use x="3.2001" y="25.0097" href="#x"/><use x="7.3697" y="25.0097" href="#t"/><use x="9.4545" y="25.0097" href="#r"/><g class="e"><use href="#n" class="c"/><g class="d"><path d="M3600.004773 105.01572h-25.002471"/><path d="M3600.004773 162.951134h-25.002471"/><path d="M3600.004773 220.886548h-50.004943"/><path d="M3600.004773 278.861028h-25.002471"/><path d="M3600.004773 336.835509h-25.002471"/><path d="M3600.004773 394.770923h-25.002471"/><path d="M3600.004773 452.745404h-25.002471"/><path d="M3600.004773 510.680818h-25.002471"/><path d="M3600.004773 568.655298h-25.002471"/><path d="M3600.004773 626.590712h-25.002471"/><path d="M3600.004773 684.526126h-25.002471"/><path d="M3600.004773 742.500607h-25.002471"/><path d="M3600.004773 800.475087h-50.004943"/><path d="M3600.004773 858.410501h-25.002471"/><path d="M3600.004773 916.345915h-25.002471"/><path d="M3600.004773 974.320396h-25.002471"/><path d="M3600.004773 1032.25581h-25.002471"/><path d="M3600.004773 1090.230291h-25.002471"/><path d="M3600.004773 1148.165705h-25.002471"/><path d="M3600.004773 1206.140185h-25.002471"/><path d="M3600.004773 1264.075599h-25.002471"/><path d="M3600.004773 1322.05008h-25.002471"/><path d="M3600.004773 1379.985494h-50.004943"/><path d="M3600.004773 1437.959974h-25.002471"/><path d="M3600.004773 1495.895388h-25.002471"/><path d="M3600.004773 1553.869869h-25.002471"/><path d="M3600.004773 1611.805283h-25.002471"/><path d="M3600.004773 1669.779763h-25.002471"/><path d="M3600.004773 1727.715178h-25.002471"/><path d="M3600.004773 1785.689658h-25.002471"/><path d="M3600.004773 1843.625072h-25.002471"/><path d="M3600.004773 1901.599553h-25.002471"/><path d="M3600.004773 1959.534967h-50.004943"/><path d="M3600.004773 2017.509447h-25.002471"/><path d="M3600.004773 2075.444861h-25.002471"/><path d="M3600.004773 2133.419342h-25.002471"/><path d="M3600.004773 2191.354756h-25.002471"/><path d="M3600.004773 2249.329236h-25.002471"/><path d="M3600.004773 2307.26465h-25.002471"/><path d="M3600.004773 2365.239131h-25.002471"/><path d="M3600.004773 2423.174545h-25.002471"/><path d="M3600.004773 2481.149025h-25.002471"/><path d="M3600.004773 2539.08444h-50.004943"/><path d="M3600.004773 2597.05892h-25.002471"/><path d="M3600.004773 2654.994334h-25.002471"/></g></g><g clip-path="url(#W)"><use x="366.7137" y="256.8617" href="#z"/><use x="369.211" y="256.8617" href="#x"/><use x="373.3806" y="256.8617" href="#t"/><use x="375.4654" y="256.8617" href="#r"/></g><g clip-path="url(#X)"><use x="366.7137" y="198.7425" href="#z"/><use x="369.211" y="198.7425" href="#r"/><use x="373.3806" y="198.7425" href="#t"/><use x="375.4654" y="198.7425" href="#v"/></g><use x="366.7137" y="140.6232" href="#r"/><use x="370.8833" y="140.6232" href="#t"/><use x="372.9681" y="140.6232" href="#r"/><use x="366.7137" y="83.1289" href="#r"/><use x="370.8833" y="83.1289" href="#t"/><use x="372.9681" y="83.1289" href="#v"/><use x="366.7137" y="25.0097" href="#x"/><use x="370.8833" y="25.0097" href="#t"/><use x="372.9681" y="25.0097" href="#r"/><g clip-path="url(#Y)"><path d="M199.981199 1379.985494h1525.033554l6.250618 8.516467 31.253089 213.107002 6.250618 42.582334 6.211551 42.6214 18.751854 127.864201 6.250617 42.582334 25.002472 170.485602 6.250618 42.582334 18.751853 127.864201 6.250618 42.582334 25.002471 170.485602 6.250618 42.582334 12.501236 85.242801 12.501236-85.242801 6.250617-42.582334 25.002472-170.485602 6.250618-42.582334 18.751853-127.864201 6.250618-42.582334 25.002471-170.485602 6.250618-42.582334 25.002472-170.485601 6.250617-42.582334 31.25309-213.107002 6.250617-8.516467h1524.994488" style="fill:none;stroke-width:12.5;stroke-linecap:round;stroke-linejoin:round;stroke:#00008b;stroke-miterlimit:10;transform:matrix(.0999901,0,0,-.0999901,.499951,275.484909)"/></g><path fill="#fff" d="M419.3828 264.9844h339.9648V10.0117H419.3828zm0 0"/><g clip-path="url(#Z)"><use href="#o" class="h"/></g><g clip-path="url(#a0)"><use href="#p" class="h"/></g><g clip-path="url(#a1)"><use href="#o" class="b"/></g><g clip-path="url(#a2)"><path d="M1050.008597 105.01572v2549.978614" class="b"/></g><g clip-path="url(#a3)"><path d="M1900.014491 105.01572v2549.978614" class="b"/></g><g clip-path="url(#a4)"><path d="M2749.981318 105.01572v2549.978614" class="b"/></g><g clip-path="url(#a5)"><use href="#q" class="b"/></g><g clip-path="url(#a6)"><path d="M200.002704 220.886548h3399.984507" class="b"/></g><g clip-path="url(#a7)"><path d="M200.002704 800.475087h3399.984507" class="b"/></g><g clip-path="url(#a8)"><use href="#p" class="b"/></g><g clip-path="url(#a9)"><path d="M200.002704 1959.534967h3399.984507" class="b"/></g><g clip-path="url(#aa)"><path d="M200.002704 2539.08444h3399.984507" class="b"/></g><g class="f"><path d="M200.002704 105.01572h3399.984507" class="c"/><g class="d"><path d="M200.002704 105.01572v49.965876"/><path d="M285.011106 105.01572v25.002471"/><path d="M370.019509 105.01572v25.002471"/><path d="M454.988845 105.01572v25.002471"/><path d="M539.997248 105.01572v25.002471"/><path d="M625.00565 105.01572v25.002471"/><path d="M710.014053 105.01572v25.002471"/><path d="M794.983389 105.01572v25.002471"/><path d="M879.991792 105.01572v25.002471"/><path d="M965.000194 105.01572v25.002471"/><path d="M1050.008597 105.01572v49.965876"/><path d="M1135.017 105.01572v25.002471"/><path d="M1219.986336 105.01572v25.002471"/><path d="M1304.994739 105.01572v25.002471"/><path d="M1390.003141 105.01572v25.002471"/><path d="M1475.011544 105.01572v25.002471"/><path d="M1559.98088 105.01572v25.002471"/><path d="M1644.989283 105.01572v25.002471"/><path d="M1729.997685 105.01572v25.002471"/><path d="M1815.006088 105.01572v25.002471"/><path d="M1900.014491 105.01572v49.965876"/><path d="M1984.983827 105.01572v25.002471"/><path d="M2069.99223 105.01572v25.002471"/><path d="M2155.000632 105.01572v25.002471"/><path d="M2240.009035 105.01572v25.002471"/><path d="M2325.017437 105.01572v25.002471"/><path d="M2409.986774 105.01572v25.002471"/><path d="M2494.995176 105.01572v25.002471"/><path d="M2580.003579 105.01572v25.002471"/><path d="M2665.011982 105.01572v25.002471"/><path d="M2749.981318 105.01572v49.965876"/><path d="M2834.98972 105.01572v25.002471"/><path d="M2919.998123 105.01572v25.002471"/><path d="M3005.006526 105.01572v25.002471"/><path d="M3090.014928 105.01572v25.002471"/><path d="M3174.984265 105.01572v25.002471"/><path d="M3259.992667 105.01572v25.002471"/><path d="M3345.00107 105.01572v25.002471"/><path d="M3430.009473 105.01572v25.002471"/><path d="M3515.017875 105.01572v25.002471"/><path d="M3599.987211 105.01572v49.965876"/></g></g><g clip-path="url(#ab)"><use x="411.461" y="274.985" href="#s"/><use x="415.6306" y="274.985" href="#u"/><use x="417.7154" y="274.985" href="#s"/><use x="421.885" y="274.985" href="#s"/></g><g clip-path="url(#ac)"><use x="496.4526" y="274.985" href="#s"/><use x="500.6222" y="274.985" href="#u"/><use x="502.707" y="274.985" href="#D"/><use x="506.8766" y="274.985" href="#w"/></g><g clip-path="url(#ad)"><use x="582.0692" y="274.985" href="#s"/><use x="586.2387" y="274.985" href="#u"/><use x="588.3235" y="274.985" href="#w"/><use x="592.4931" y="274.985" href="#s"/></g><g clip-path="url(#ae)"><use x="667.0607" y="274.985" href="#s"/><use x="671.2303" y="274.985" href="#u"/><use x="673.3151" y="274.985" href="#E"/><use x="677.4847" y="274.985" href="#w"/></g><g clip-path="url(#af)"><use x="752.0523" y="274.985" href="#y"/><use x="756.2219" y="274.985" href="#u"/><use x="758.3067" y="274.985" href="#s"/><use x="762.4763" y="274.985" href="#s"/></g><g class="f"><path d="M200.002704 2654.994334h3399.984507" class="c"/><g class="d"><path d="M200.002704 2654.994334v-50.004943"/><path d="M285.011106 2654.994334v-25.002471"/><path d="M370.019509 2654.994334v-25.002471"/><path d="M454.988845 2654.994334v-25.002471"/><path d="M539.997248 2654.994334v-25.002471"/><path d="M625.00565 2654.994334v-25.002471"/><path d="M710.014053 2654.994334v-25.002471"/><path d="M794.983389 2654.994334v-25.002471"/><path d="M879.991792 2654.994334v-25.002471"/><path d="M965.000194 2654.994334v-25.002471"/><path d="M1050.008597 2654.994334v-50.004943"/><path d="M1135.017 2654.994334v-25.002471"/><path d="M1219.986336 2654.994334v-25.002471"/><path d="M1304.994739 2654.994334v-25.002471"/><path d="M1390.003141 2654.994334v-25.002471"/><path d="M1475.011544 2654.994334v-25.002471"/><path d="M1559.98088 2654.994334v-25.002471"/><path d="M1644.989283 2654.994334v-25.002471"/><path d="M1729.997685 2654.994334v-25.002471"/><path d="M1815.006088 2654.994334v-25.002471"/><path d="M1900.014491 2654.994334v-50.004943"/><path d="M1984.983827 2654.994334v-25.002471"/><path d="M2069.99223 2654.994334v-25.002471"/><path d="M2155.000632 2654.994334v-25.002471"/><path d="M2240.009035 2654.994334v-25.002471"/><path d="M2325.017437 2654.994334v-25.002471"/><path d="M2409.986774 2654.994334v-25.002471"/><path d="M2494.995176 2654.994334v-25.002471"/><path d="M2580.003579 2654.994334v-25.002471"/><path d="M2665.011982 2654.994334v-25.002471"/><path d="M2749.981318 2654.994334v-50.004943"/><path d="M2834.98972 2654.994334v-25.002471"/><path d="M2919.998123 2654.994334v-25.002471"/><path d="M3005.006526 2654.994334v-25.002471"/><path d="M3090.014928 2654.994334v-25.002471"/><path d="M3174.984265 2654.994334v-25.002471"/><path d="M3259.992667 2654.994334v-25.002471"/><path d="M3345.00107 2654.994334v-25.002471"/><path d="M3430.009473 2654.994334v-25.002471"/><path d="M3515.017875 2654.994334v-25.002471"/><path d="M3599.987211 2654.994334v-50.004943"/></g></g><use x="411.461" y="6.8865" href="#s"/><use x="415.6306" y="6.8865" href="#u"/><use x="417.7154" y="6.8865" href="#s"/><use x="421.885" y="6.8865" href="#s"/><use x="496.4526" y="6.8865" href="#s"/><use x="500.6222" y="6.8865" href="#u"/><use x="502.707" y="6.8865" href="#D"/><use x="506.8766" y="6.8865" href="#w"/><use x="582.0692" y="6.8865" href="#s"/><use x="586.2387" y="6.8865" href="#u"/><use x="588.3235" y="6.8865" href="#w"/><use x="592.4931" y="6.8865" href="#s"/><use x="667.0607" y="6.8865" href="#s"/><use x="671.2303" y="6.8865" href="#u"/><use x="673.3151" y="6.8865" href="#E"/><use x="677.4847" y="6.8865" href="#w"/><use x="752.0523" y="6.8865" href="#y"/><use x="756.2219" y="6.8865" href="#u"/><use x="758.3067" y="6.8865" href="#s"/><use x="762.4763" y="6.8865" href="#s"/><g class="f"><use href="#o" class="c"/><g class="d"><path d="M200.002704 105.01572h25.002471"/><path d="M200.002704 162.951134h25.002471"/><path d="M200.002704 220.886548h50.004942"/><path d="M200.002704 278.861028h25.002471"/><path d="M200.002704 336.835509h25.002471"/><path d="M200.002704 394.770923h25.002471"/><path d="M200.002704 452.745404h25.002471"/><path d="M200.002704 510.680818h25.002471"/><path d="M200.002704 568.655298h25.002471"/><path d="M200.002704 626.590712h25.002471"/><path d="M200.002704 684.526126h25.002471"/><path d="M200.002704 742.500607h25.002471"/><path d="M200.002704 800.475087h50.004942"/><path d="M200.002704 858.410501h25.002471"/><path d="M200.002704 916.345915h25.002471"/><path d="M200.002704 974.320396h25.002471"/><path d="M200.002704 1032.25581h25.002471"/><path d="M200.002704 1090.230291h25.002471"/><path d="M200.002704 1148.165705h25.002471"/><path d="M200.002704 1206.140185h25.002471"/><path d="M200.002704 1264.075599h25.002471"/><path d="M200.002704 1322.05008h25.002471"/><path d="M200.002704 1379.985494h50.004942"/><path d="M200.002704 1437.959974h25.002471"/><path d="M200.002704 1495.895388h25.002471"/><path d="M200.002704 1553.869869h25.002471"/><path d="M200.002704 1611.805283h25.002471"/><path d="M200.002704 1669.779763h25.002471"/><path d="M200.002704 1727.715178h25.002471"/><path d="M200.002704 1785.689658h25.002471"/><path d="M200.002704 1843.625072h25.002471"/><path d="M200.002704 1901.599553h25.002471"/><path d="M200.002704 1959.534967h50.004942"/><path d="M200.002704 2017.509447h25.002471"/><path d="M200.002704 2075.444861h25.002471"/><path d="M200.002704 2133.419342h25.002471"/><path d="M200.002704 2191.354756h25.002471"/><path d="M200.002704 2249.329236h25.002471"/><path d="M200.002704 2307.26465h25.002471"/><path d="M200.002704 2365.239131h25.002471"/><path d="M200.002704 2423.174545h25.002471"/><path d="M200.002704 2481.149025h25.002471"/><path d="M200.002704 2539.08444h50.004942"/><path d="M200.002704 2597.05892h25.002471"/><path d="M200.002704 2654.994334h25.002471"/></g></g><g clip-path="url(#ag)"><use x="399.5876" y="256.8617" href="#A"/><use x="402.0849" y="256.8617" href="#y"/><use x="406.2545" y="256.8617" href="#u"/><use x="408.3393" y="256.8617" href="#s"/></g><g clip-path="url(#ah)"><use x="399.5876" y="198.7425" href="#A"/><use x="402.0849" y="198.7425" href="#s"/><use x="406.2545" y="198.7425" href="#u"/><use x="408.3393" y="198.7425" href="#w"/></g><use x="402.0846" y="140.6232" href="#s"/><use x="406.2542" y="140.6232" href="#u"/><use x="408.339" y="140.6232" href="#s"/><use x="402.0846" y="83.1289" href="#s"/><use x="406.2542" y="83.1289" href="#u"/><use x="408.339" y="83.1289" href="#w"/><use x="402.0846" y="25.0097" href="#y"/><use x="406.2542" y="25.0097" href="#u"/><use x="408.339" y="25.0097" href="#s"/><g class="f"><use href="#q" class="c"/><g class="d"><path d="M3599.987211 105.01572h-25.002471"/><path d="M3599.987211 162.951134h-25.002471"/><path d="M3599.987211 220.886548h-50.004942"/><path d="M3599.987211 278.861028h-25.002471"/><path d="M3599.987211 336.835509h-25.002471"/><path d="M3599.987211 394.770923h-25.002471"/><path d="M3599.987211 452.745404h-25.002471"/><path d="M3599.987211 510.680818h-25.002471"/><path d="M3599.987211 568.655298h-25.002471"/><path d="M3599.987211 626.590712h-25.002471"/><path d="M3599.987211 684.526126h-25.002471"/><path d="M3599.987211 742.500607h-25.002471"/><path d="M3599.987211 800.475087h-50.004942"/><path d="M3599.987211 858.410501h-25.002471"/><path d="M3599.987211 916.345915h-25.002471"/><path d="M3599.987211 974.320396h-25.002471"/><path d="M3599.987211 1032.25581h-25.002471"/><path d="M3599.987211 1090.230291h-25.002471"/><path d="M3599.987211 1148.165705h-25.002471"/><path d="M3599.987211 1206.140185h-25.002471"/><path d="M3599.987211 1264.075599h-25.002471"/><path d="M3599.987211 1322.05008h-25.002471"/><path d="M3599.987211 1379.985494h-50.004942"/><path d="M3599.987211 1437.959974h-25.002471"/><path d="M3599.987211 1495.895388h-25.002471"/><path d="M3599.987211 1553.869869h-25.002471"/><path d="M3599.987211 1611.805283h-25.002471"/><path d="M3599.987211 1669.779763h-25.002471"/><path d="M3599.987211 1727.715178h-25.002471"/><path d="M3599.987211 1785.689658h-25.002471"/><path d="M3599.987211 1843.625072h-25.002471"/><path d="M3599.987211 1901.599553h-25.002471"/><path d="M3599.987211 1959.534967h-50.004942"/><path d="M3599.987211 2017.509447h-25.002471"/><path d="M3599.987211 2075.444861h-25.002471"/><path d="M3599.987211 2133.419342h-25.002471"/><path d="M3599.987211 2191.354756h-25.002471"/><path d="M3599.987211 2249.329236h-25.002471"/><path d="M3599.987211 2307.26465h-25.002471"/><path d="M3599.987211 2365.239131h-25.002471"/><path d="M3599.987211 2423.174545h-25.002471"/><path d="M3599.987211 2481.149025h-25.002471"/><path d="M3599.987211 2539.08444h-50.004942"/><path d="M3599.987211 2597.05892h-25.002471"/><path d="M3599.987211 2654.994334h-25.002471"/></g></g><g clip-path="url(#ai)"><use x="765.5983" y="256.8617" href="#A"/><use x="768.0956" y="256.8617" href="#y"/><use x="772.2652" y="256.8617" href="#u"/><use x="774.35" y="256.8617" href="#s"/></g><g clip-path="url(#aj)"><use x="765.5983" y="198.7425" href="#A"/><use x="768.0956" y="198.7425" href="#s"/><use x="772.2652" y="198.7425" href="#u"/><use x="774.35" y="198.7425" href="#w"/></g><use x="765.5983" y="140.6232" href="#s"/><use x="769.7679" y="140.6232" href="#u"/><use x="771.8527" y="140.6232" href="#s"/><use x="765.5983" y="83.1289" href="#s"/><use x="769.7679" y="83.1289" href="#u"/><use x="771.8527" y="83.1289" href="#w"/><use x="765.5983" y="25.0097" href="#y"/><use x="769.7679" y="25.0097" href="#u"/><use x="771.8527" y="25.0097" href="#s"/><g clip-path="url(#ak)"><path d="M200.002704 1379.985494h850.005893l6.250618 21.330233 6.250618 21.291167 6.250618 21.330234 12.501235 42.582334 6.250618 21.330233 6.250618 21.291167 6.250618 21.330233 12.501236 42.582334 6.250617 21.330234 6.250618 21.291167 6.250618 21.330233 12.501236 42.582334 6.250618 21.330234 6.250617 21.291167 6.211552 21.330233 12.501236 42.582334 6.250617 21.330233 12.501236 42.582334 6.250618 21.330234 6.250618 21.291167 6.250618 21.330233 6.250617 21.291167 6.250618-12.7747 6.250618-21.291167 6.250618-21.330233 6.250618-21.291167 6.250618-21.330234 12.501235-42.582334 6.250618-21.330233 6.250618-21.291167 6.250618-21.330234 6.250618-21.291167 6.250618-21.330233 12.501235-42.582334 6.250618-21.330233 12.501236-42.582334 6.250618-21.330234 6.250617-21.291167 6.250618-21.330233 6.250618-21.291167 6.250618-21.330234 12.501236-42.582334 6.250617-21.330233 6.250618-21.291167 6.250618-21.330233 6.250618-8.516467h1012.482891l6.250618 8.516467 6.250618 21.330233 6.250618 21.291167 6.250617 21.330233 12.501236 42.582334 6.250618 21.330234 6.250618 21.291167 6.250618 21.330233 6.250617 21.291167 6.250618 21.330234 12.501236 42.582334 6.250618 21.330233 12.501235 42.582334 6.250618 21.330233 6.250618 21.291167 6.250618 21.330234 6.250618 21.291167 6.250618 21.330233 12.501235 42.582334 6.250618 21.330234 6.250618 21.291167 6.250618 21.330233 6.250618 21.291167 6.250618 12.7747 6.250617-21.291167 6.250618-21.330233 6.250618-21.291167 6.250618-21.330234 12.501236-42.582334 6.250617-21.330233 12.501236-42.582334 6.250618-21.330233 6.250618-21.291167 6.250618-21.330234 12.501235-42.582334 6.250618-21.330233 6.250618-21.291167 6.250618-21.330234 12.501235-42.582334 6.250618-21.330233 6.250618-21.291167 6.250618-21.330233 12.501236-42.582334 6.250618-21.330234 6.211551-21.291167 6.250618-21.330233h850.005893" style="fill:none;stroke-width:12.5;stroke-linecap:round;stroke-linejoin:round;stroke:#00008b;stroke-miterlimit:10;transform:matrix(.0999901,0,0,-.0999901,399.384519,275.484909)"/></g><style>.a{fill:none;stroke:#bfbfbf;stroke-dasharray:12.5,18.75;stroke-linecap:round;stroke-miterlimit:10;stroke-width:6.25;transform:matrix(.0999901,0,0,-.0999901,.499951,275.484909)}.b{fill:none;stroke:#bfbfbf;stroke-dasharray:12.5,18.75;stroke-linecap:round;stroke-miterlimit:10;stroke-width:6.25;transform:matrix(.0999901,0,0,-.0999901,399.384519,275.484909)}.c{stroke-linecap:square;stroke-width:12.5}.d{stroke-width:6.25}.e{fill:none;stroke:#000;stroke-miterlimit:10;transform:matrix(.0999901,0,0,-.0999901,.499951,275.484909)}.f{fill:none;stroke:#000;stroke-miterlimit:10;transform:matrix(.0999901,0,0,-.0999901,399.384519,275.484909)}.g{fill:none;stroke:#bfbfbf;stroke-linecap:round;stroke-miterlimit:10;stroke-width:6.25;transform:matrix(.0999901,0,0,-.0999901,.499951,275.484909)}.h{fill:none;stroke:#bfbfbf;stroke-linecap:round;stroke-miterlimit:10;stroke-width:6.25;transform:matrix(.0999901,0,0,-.0999901,399.384519,275.484909)}</style></svg>