<svg xmlns="http://www.w3.org/2000/svg" width="171pt" height="163pt" viewBox="0 0 171 163"><defs><path d="M7.9063-.0781c-.71875-1.3125-1.296875-2.765625-1.890625-4.15625-.59375-1.328125-1.21875-2.703125-1.6875-4.09375H4.0313C3.4375-6.84375 2.765625-5.375 2.109375-3.890625 1.53125-2.625.984375-1.296875.328125-.078125l.0781.125C1.671875 0 2.9375 0 4.21875 0c1.203125 0 2.421875.015625 3.625.046875zM6.4219-.4375H1.25c.796875-2.125 1.640625-4.21875 2.546875-6.296875h.0938c.890625 2.0625 1.75 4.171875 2.53125 6.296875zm0 0" id="n"/><path d="M.7813-4.1406h6.4375v-.7187H.7813zm0 2.5313h6.4375v-.7032H.7813zm0 0" id="b"/><path d="M6.125-1.0156 6-1.2344l-.3125.2031c-.296875.1875-.578125.328125-.734375.328125-.09375 0-.140625-.078125-.140625-.203125 0-.15625.03125-.34375.0625-.484375l1-4.2656-.0781-.1094-.8125.2031-.125.6094c-.171875.90625-.453125 1.71875-.8125 2.265625-.70315 1.0938-1.656275 1.984425-2.14065 1.984425-.109375 0-.15625-.109375-.15625-.3125 0-.171875.015625-.3125.078125-.625l.6875-3.2344c.03125-.1875.046875-.359375.046875-.515625 0-.234375-.09375-.375-.25-.375-.25 0-.703125.25-1.59375.890625L.375-4.6406l.0938.2344.375-.25c.34375-.21875.46875-.265625.578125-.265625.125 0 .203125.109375.203125.234375 0 .0625-.015625.15625-.015625.21875L.8438-.9219c-.015625.125-.046875.390625-.046875.578125 0 .265625.1875.46875.421875.46875.75 0 2.203125-1.328125 3.203125-2.984375l-.4375 1.7031c-.09375.296875-.140625.59375-.140625.78125 0 .296875.140625.5.359375.5.3125 0 .75-.28125 1.921875-1.140625zm0 0" id="c"/><path d="M2.6094-1.2969l-.1719-.1718c-.328125.109375-.53125.171875-1.171875.359375C1.1875-.203125.890625.578125.1875 1.71875l.1719.1406.4844-.2344c.96875-1.25 1.421875-2 1.765625-2.921875zm0 0" id="o"/><path d="M5.9531-5.1094l-.0312-.0625c-.34375.078125-.578125.109375-1.21875.109375-.203125-.3125-.3125-.421875-.609375-.546875-.25-.09375-.5625-.15625-.8125-.15625-.484375 0-1.078125.234375-1.609375.625C1-4.640625.65625-3.9375.65625-3.09375c0 .921875.53125 1.46875 1.453125 1.46875.109375 0 .234375 0 .359375-.015625l-.4844.4531c-.1875.1875-.328125.40625-.328125.5625 0 .125.09375.25.25.390625C1 .078125.640625.25.1875.625c-.40625.328125-.625.796875-.625 1.28125 0 .84375.828125 1.390625 2.140625 1.390625 1.53125 0 2.890625-.859375 2.890625-1.84375 0-.4375-.25-.875-.765625-1.28125l-.7187-.5937c-.40625-.3125-.5625-.546875-.5625-.765625 0-.109375.078125-.234375.25-.46875.03125-.046875.046875-.046875.078125-.09375 1.171875-.28125 2.015625-1.28125 2.015625-2.34375 0-.109375 0-.203125-.03125-.390625l-.0156-.0312H5.25c.203125 0 .3125-.015625.59375-.046875zM3.7969 1.8438c0 .625-.828125 1.125-1.8125 1.125-.984375 0-1.65625-.5-1.65625-1.234375 0-.453125.203125-.875.59375-1.203125.3125-.25.578125-.359375 1.1875-.546875L3.0313.6875c.546875.4375.765625.765625.765625 1.15625zm.2344-5.9219c0 1.234375-.578125 2.0625-1.40625 2.0625C1.890625-2.015625 1.5-2.5 1.5-3.4375c0-1.140625.609375-1.921875 1.484375-1.921875.703125 0 1.046875.4375 1.046875 1.28125zm0 0" id="p"/><path d="M5.5625-4.375c0-2.625-.78125-3.859375-2.421875-3.859375-1.84375 0-2.796875 1.46875-2.796875 4.359375 0 1.40625.25 2.609375.671875 3.1875.421875.59375 1.09375.921875 1.828125.921875C4.65625.234375 5.5625-1.3125 5.5625-4.375zm-1.0156.5938C4.546875-1.234375 4.09375-.171875 3-.171875c-1.15625 0-1.65625-1.21875-1.65625-4.125 0-2.53125.453125-3.515625 1.578125-3.515625 1.171875 0 1.625 1.171875 1.625 4.03125zm0 0" id="q"/><use href="#a" id="r"/><path d="M3.6406-9.0312C1.8125-7.84375.71875-5.796875.71875-3.234375c0 2.34375 1.140625 4.578125 2.875 5.78125L3.75 2.3438C2.09375.90625 1.8125-.484375 1.8125-3.28125 1.8125-6.0625 2.125-7.5 3.75-8.828125zm0 0" id="d"/><path d="M.5-9.0312l-.125.2031C2.015625-7.5 2.328125-6.0625 2.328125-3.28125c0 2.796875-.28125 4.1875-1.953125 5.625l.1563.2031c1.75-1.203125 2.890625-3.4375 2.890625-5.78125C3.421875-5.796875 2.3125-7.84375.5-9.03125zm0 0" id="e"/><path d="M6.8438-6.0312c0-1.359375-.390625-2.359375-1.90625-2.359375-3.109375 0-4.09375 3.46875-4.09375 6.015625 0 1.421875.4375 2.5625 2.0625 2.5625 2.8125 0 3.9375-3.96875 3.9375-6.21875zm-.875-.1562c0 .546875-.09375 1.09375-.1875 1.640625H2.0156c.28125-1.25 1.15625-3.53125 2.703125-3.53125 1.03125 0 1.25 1.078125 1.25 1.890625zm-.25 2.0156C5.453125-2.828125 4.796875-.15625 3.078125-.15625 1.875-.15625 1.75-1.5 1.75-2.421875c0-.59375.109375-1.171875.203125-1.75zm0 0" id="f"/><path d="M4.4688-5.4687c-.125-.09375-.34375-.140625-.5625-.140625-.359375 0-.734375.1875-.984375.5L2.25-4.3281v-1.2344l-.1094-.0469c-.609375.25-1.234375.421875-1.859375.5v.3281h.4375c.46875 0 .53125.078125.53125.875v2.6875c0 .75-.046875.84375-.453125.859375L.25-.3281v.3594C.734375.015625 1.234375 0 1.71875 0c.578125 0 1.140625.015625 1.71875.03125v-.3594l-.625-.0312C2.265625-.390625 2.25-.4375 2.25-1.21875v-2.0625c0-.71875.46875-1.3125 1.0625-1.3125.359375 0 .609375.171875.796875.546875h.25zm0 0" id="s"/><path d="M5.625.0313v-.3594l-.4687-.0156c-.28125-.015625-.328125-.109375-.328125-.703125v-2.1875c0-1.734375-.5-2.375-1.890625-2.375-.515625 0-.984375.140625-1.4375.40625L.8594-4.8125v.7656l.3125.0938.1563-.375c.234375-.5625.375-.640625.921875-.640625 1.125 0 1.59375.4375 1.625 1.53125l-1.1875.2031c-1.625.3125-2.3125.875-2.3125 1.90625 0 .9375.5625 1.46875 1.515625 1.46875.21875 0 .421875-.03125.5-.09375L3.875-.9844 3.8125.0313C4.125.015625 4.4375 0 4.75 0c.296875 0 .578125.015625.875.03125zm-1.75-1.5156c-.34375.5-1.109375.953125-1.5625.953125-.484375 0-.90625-.453125-.90625-.96875 0-.4375.25-.859375.609375-1.078125.296875-.1875.953125-.34375 1.859375-.484375zm0 0" id="t"/><path d="M6.9219.0313v-.3594L6.375-.3594c-.40625-.0156-.453125-.10935-.453125-.85935v-7.3594l-.0937-.0937c-.53125.203125-.921875.296875-1.875.4375v.3281H4.625c.21875 0 .296875.140625.296875.5v2.1875c-.671875-.296875-1-.390625-1.421875-.390625-.328125 0-.609375.078125-.90625.234375l-1.0469.5469c-.6875.359375-1.125 1.234375-1.125 2.25 0 .953125.3125 1.734375.90625 2.21875.40625.34375.96875.5 1.75.5.234375 0 .5-.046875.5625-.09375l1.3282-1.1094L4.9063.0313C5.21875.015625 5.515625 0 5.828125 0 6.1875 0 6.5625.015625 6.921875.03125zm-2-2.6719c0 .78125-.015625.890625-.171875 1.171875-.34375.5625-.921875.9375-1.484375.9375-1.046875 0-1.8125-1.015625-1.8125-2.4375 0-1.3125.65625-2.078125 1.71875-2.078125.46875 0 .9375.15625 1.359375.4375.25.171875.390625.328125.390625.421875zm0 0" id="u"/><path d="M3.2344.0313v-.3594l-.5469-.0313C2.28125-.375 2.25-.46875 2.25-1.21875V-5.5625l-.1094-.0469c-.609375.25-1.234375.421875-1.859375.5v.3281h.4375c.46875 0 .53125.078125.53125.875v2.6875c0 .75-.046875.84375-.453125.859375L.25-.3281v.3594C.75.015625 1.25 0 1.75 0c.5 0 .984375.015625 1.484375.03125zm-.8906-7.6407c0-.34375-.234375-.609375-.59375-.609375-.359375 0-.609375.25-.609375.609375 0 .359375.25.59375.609375.59375.359375 0 .59375-.234375.59375-.59375zm0 0" id="v"/><path d="M6.9375.0313v-.3594l-.4844-.0312c-.40625-.015625-.4375-.09375-.4375-.859375V-5.5625l-.1094-.0469c-.609375.25-1.234375.421875-1.859375.5v.3281h.4375c.46875 0 .53125.078125.53125.875v1.9531c0 .25-.171875.59375-.453125.859375-.328125.34375-.71875.515625-1.1875.515625-.40625 0-.75-.140625-.9375-.359375-.171875-.203125-.25-.5625-.25-1.09375V-5.5625l-.1094-.0469c-.609375.25-1.234375.421875-1.859375.5v.3281h.4375c.484375 0 .53125.078125.53125.875v2c0 .84375.0625 1.21875.28125 1.515625.265625.359375.71875.53125 1.40625.53125.53125 0 1.015625-.171875 1.328125-.46875l.8125-.7344c0 .34375-.015625.53125-.0625 1.09375C5.296875.015625 5.625 0 5.953125 0c.328125 0 .65625.015625.984375.03125zm0 0" id="w"/><path d="M4.6719-1.7656c0-.375-.09375-.65625-.328125-.890625-.3125-.3125-.703125-.4375-1.765625-.640625-.96875-.1875-1.296875-.4375-1.296875-.984375 0-.59375.421875-.9375 1.140625-.9375.8125 0 1.421875.421875 1.421875.984375v.2813h.3281c.015625-.703125.03125-.984375.0625-1.359375-.640625-.203125-1.0625-.296875-1.5625-.296875-1.375 0-2.234375.65625-2.234375 1.734375 0 .578125.265625.984375.8125 1.234375.328125.140625.96875.328125 1.78125.515625.53125.109375.765625.375.765625.828125 0 .640625-.609375 1.09375-1.453125 1.09375-.875 0-1.5-.421875-1.5-1.015625v-.4844H.4844c0 .8125-.03125 1.171875-.125 1.65625.625.203125 1.09375.28125 1.640625.28125 1.5625 0 2.671875-.828125 2.671875-2zm0 0" id="x"/><use href="#a" id="y"/><clipPath id="g"><path d="M0 0h168v162.5352H0zm0 0"/></clipPath><clipPath id="h"><path d="M48 90h123v1H48zm0 0"/></clipPath><clipPath id="i"><path d="M-.2734-.4648h172v163h-172zm171.2227 90.7813v.8398l-10.2618 2.2812 9-2.6992-9-2.7031zm0 0" class="b"/></clipPath><clipPath id="j"><path d="M71 0h1v114h-1zm0 0"/></clipPath><clipPath id="k"><path d="M-.2734-.4648h172v163h-172zm71.3828.7813h.8398l2.2773 10.2617-2.6992-9-2.6992 9zm0 0" class="b"/></clipPath><clipPath id="l"><path d="M65 84h75v49H65zm0 0"/></clipPath><clipPath id="m"><path d="M-.2734-.4648h172v163h-172zm134.082 126.4805-.4219.6602-8.0977-3.0586 7.1406 2.0391-5.4023-5.1602zM70.9883 90.8555l.418-.6602 8.1016 3.0625-7.1406-2.0391 5.4023 5.1563zm0 0" class="b"/></clipPath><path id="a" d="M5 .0313v-.3594l-.625-.0312c-.65625-.03125-.78125-.171875-.78125-.78125v-7.0937l-.1562-.0625c-.78125.40625-1.625.765625-2.71875 1.15625l.0781.5h.125c.531225-.2345 1.04685-.468875 1.5781-.70325.0625 0 .09375.109375.09375.40625v5.7969c0 .609375-.125.75-.78125.78125l-.6719.0313V.0313C1.8125.015625 2.46875 0 3.125 0 3.734375 0 4.375.015625 5 .03125zm0 0"/></defs><path fill-rule="evenodd" fill="#e9e9e9" d="M141.9688 90.7383c0 38.902344-31.539062 70.4375-70.441406 70.4375-38.902344 0-70.4375-31.535156-70.4375-70.4375 0-38.902343 31.535156-70.441406 70.4375-70.441406 38.902344 0 70.441406 31.539063 70.441406 70.441406"/><g clip-path="url(#g)"><path d="M1422.4075 717.987188c0-389.023438-315.390625-704.375-704.414063-704.375-389.023437 0-704.375 315.351562-704.375 704.375 0 389.023437 315.351563 704.414062 704.375 704.414062 389.023438 0 704.414063-315.390625 704.414063-704.414062zm0 0" style="fill:none;stroke-width:18;stroke:#000;stroke-miterlimit:10;transform:matrix(.1,0,0,-.1,-.272,162.537)"/></g><g clip-path="url(#h)"><g clip-path="url(#i)"><path d="M492.993437 717.987188h1215" class="a"/></g></g><path d="M1609.595 745.018438l90-27.03125-90-26.992188" class="a"/><g clip-path="url(#j)"><g clip-path="url(#k)"><path d="M717.993437 492.987188v1125" class="a"/></g></g><path d="M691.00125 1519.58875l26.992187 90 26.992188-90" class="a"/><g clip-path="url(#l)"><g clip-path="url(#m)"><path d="M717.993437 717.987188l617.421875-353.984375" class="a"/></g></g><g class="a"><path d="M780.415312 661.62l-54.023437 51.5625 71.40625-20.390625"/><path d="M1272.993437 420.409063l54.023438-51.601563-71.40625 20.390625"/></g><use x="83.19" y="69.295" href="#n"/><use x="91.5467" y="69.295" href="#c"/><use x="102.1151" y="69.295" href="#b"/><use x="113.4367" y="69.295" href="#q"/><use x="88.89" y="19.674" href="#c"/><use x="96.1349" y="19.674" href="#d"/><use x="100.2714" y="19.674" href="#r"/><use x="106.6076" y="19.674" href="#o"/><use x="111.9516" y="19.674" href="#f"/><use x="119.6507" y="19.674" href="#e"/><use x="127.0988" y="19.674" href="#b"/><use x="139.2573" y="19.674" href="#p"/><use x="145.8326" y="19.674" href="#d"/><use x="150.0887" y="19.674" href="#f"/><use x="157.7878" y="19.674" href="#e"/><use x="77.31" y="128.037" href="#s"/><use x="81.853" y="128.037" href="#t"/><use x="87.8306" y="128.037" href="#u"/><use x="95.1352" y="128.037" href="#v"/><use x="98.6142" y="128.037" href="#w"/><use x="105.8232" y="128.037" href="#x"/><use x="113.881" y="128.037" href="#y"/><style>.a{fill:none;stroke:#000;stroke-miterlimit:10;stroke-width:4.5;transform:matrix(.1,0,0,-.1,-.272,162.537)}.b{clip-rule:evenodd}</style></svg>