<svg xmlns="http://www.w3.org/2000/svg" width="736.924pt" height="260.999pt" viewBox="0 0 736.924 260.999"><defs><use href="#a" id="y"/><use href="#b" id="G"/><use href="#c" id="z"/><use href="#d" id="A"/><use href="#e" id="u"/><use href="#f" id="w"/><use href="#g" id="B"/><use href="#h" id="I"/><use href="#a" id="C"/><use href="#b" id="H"/><use href="#c" id="D"/><use href="#d" id="E"/><use href="#e" id="v"/><use href="#f" id="x"/><use href="#g" id="F"/><use href="#h" id="J"/><clipPath id="K"><use href="#i"/></clipPath><clipPath id="L"><use href="#j"/></clipPath><clipPath id="M"><path d="M19.4961 8.1719H20v242.2227h-.5039zm0 0"/></clipPath><clipPath id="N"><path d="M72 8.1719h2v242.2227h-2zm0 0"/></clipPath><clipPath id="O"><path d="M125 8.1719h2v242.2227h-2zm0 0"/></clipPath><clipPath id="P"><use href="#i"/></clipPath><clipPath id="Q"><path d="M232 8.1719h2v242.2227h-2zm0 0"/></clipPath><clipPath id="R"><path d="M285 8.1719h2v242.2227h-2zm0 0"/></clipPath><clipPath id="S"><path d="M339 8.1719h.4648v242.2227H339zm0 0"/></clipPath><clipPath id="T"><use href="#j"/></clipPath><clipPath id="U"><path d="M19.4961 184h319.9688v1H19.4961zm0 0"/></clipPath><clipPath id="V"><path d="M19.4961 129h319.9688v1H19.4961zm0 0"/></clipPath><clipPath id="W"><path d="M19.4961 73h319.9688v2H19.4961zm0 0"/></clipPath><clipPath id="X"><path d="M19.4961 18h319.9688v2H19.4961zm0 0"/></clipPath><clipPath id="Y"><path d="M16 .5117h7V7h-7zm0 0"/></clipPath><clipPath id="Z"><path d="M69 .5117h7V6h-7zm0 0"/></clipPath><clipPath id="a0"><path d="M123 .5117h5V6h-5zm0 0"/></clipPath><clipPath id="a1"><path d="M177 .5117h5V7h-5zm0 0"/></clipPath><clipPath id="a2"><path d="M231 .5117h3V6h-3zm0 0"/></clipPath><clipPath id="a3"><path d="M284 .5117h4V6h-4zm0 0"/></clipPath><clipPath id="a4"><path d="M337 .5117h5V7h-5zm0 0"/></clipPath><clipPath id="a5"><path d="M.5 237H14v6H.5zm0 0"/></clipPath><clipPath id="a6"><path d="M.5 182H14v6H.5zm0 0"/></clipPath><clipPath id="a7"><path d="M.5 127H14v6H.5zm0 0"/></clipPath><clipPath id="a8"><path d="M.5 72H14v6H.5zm0 0"/></clipPath><clipPath id="a9"><path d="M345 237h13.4648v6H345zm0 0"/></clipPath><clipPath id="aa"><path d="M345 182h13.4648v6H345zm0 0"/></clipPath><clipPath id="ab"><path d="M345 127h13.4648v6H345zm0 0"/></clipPath><clipPath id="ac"><path d="M345 72h13.4648v6H345zm0 0"/></clipPath><clipPath id="ad"><path d="M345 17h13.4648v6H345zm0 0"/></clipPath><clipPath id="ae"><path d="M19.4961 18h319.9688v222H19.4961zm0 0"/></clipPath><clipPath id="af"><use href="#k"/></clipPath><clipPath id="ag"><use href="#l"/></clipPath><clipPath id="ah"><path d="M397.3828 8.1719H398v242.2227h-.6172zm0 0"/></clipPath><clipPath id="ai"><path d="M450 8.1719h1v242.2227h-1zm0 0"/></clipPath><clipPath id="aj"><path d="M503 8.1719h2v242.2227h-2zm0 0"/></clipPath><clipPath id="ak"><use href="#k"/></clipPath><clipPath id="al"><path d="M610 8.1719h1v242.2227h-1zm0 0"/></clipPath><clipPath id="am"><path d="M663 8.1719h2v242.2227h-2zm0 0"/></clipPath><clipPath id="an"><path d="M717 8.1719h.3516v242.2227H717zm0 0"/></clipPath><clipPath id="ao"><use href="#l"/></clipPath><clipPath id="ap"><path d="M397.3828 184h319.9687v1H397.3828zm0 0"/></clipPath><clipPath id="aq"><path d="M397.3828 129h319.9687v1H397.3828zm0 0"/></clipPath><clipPath id="ar"><path d="M397.3828 73h319.9687v2H397.3828zm0 0"/></clipPath><clipPath id="as"><path d="M397.3828 18h319.9687v2H397.3828zm0 0"/></clipPath><clipPath id="at"><path d="M394 .5117h7V7h-7zm0 0"/></clipPath><clipPath id="au"><path d="M447 .5117h7V6h-7zm0 0"/></clipPath><clipPath id="av"><path d="M500 .5117h6V6h-6zm0 0"/></clipPath><clipPath id="aw"><path d="M555 .5117h4V7h-4zm0 0"/></clipPath><clipPath id="ax"><path d="M609 .5117h2V6h-2zm0 0"/></clipPath><clipPath id="ay"><path d="M661 .5117h5V6h-5zm0 0"/></clipPath><clipPath id="az"><path d="M715 .5117h4V7h-4zm0 0"/></clipPath><clipPath id="aA"><path d="M378.3867 237H392v6h-13.6133zm0 0"/></clipPath><clipPath id="aB"><path d="M378.3867 182H392v6h-13.6133zm0 0"/></clipPath><clipPath id="aC"><path d="M378.3867 127H392v6h-13.6133zm0 0"/></clipPath><clipPath id="aD"><path d="M378.3867 72H392v6h-13.6133zm0 0"/></clipPath><clipPath id="aE"><path d="M723 237h13.3477v6H723zm0 0"/></clipPath><clipPath id="aF"><path d="M723 182h13.3477v6H723zm0 0"/></clipPath><clipPath id="aG"><path d="M723 127h13.3477v6H723zm0 0"/></clipPath><clipPath id="aH"><path d="M723 72h13.3477v6H723zm0 0"/></clipPath><clipPath id="aI"><path d="M723 17h13.3477v6H723zm0 0"/></clipPath><clipPath id="aJ"><path d="M397.3828 18h319.9687v222H397.3828zm0 0"/></clipPath><path id="a" d="M1.9531-2.1406H.3125v.5h1.6406zm0 0"/><path id="b" d="M1.5156-2.2812h.3281c.65625 0 1.015625.3125 1.015625.90625 0 .625-.390625 1-1 1-.671875 0-1-.34375-1.03125-1.0625H.2188c.03125.390625.09375.65625.21875.875.25.484375.71875.71875 1.390625.71875 1 0 1.640625-.59375 1.640625-1.53125 0-.640625-.234375-.984375-.828125-1.1875.453125-.1875.6875-.53125.6875-1.03125 0-.84375-.5625-1.359375-1.484375-1.359375-.984375 0-1.5.546875-1.515625 1.59375h.5938c.015625-.296875.03125-.46875.109375-.609375.140625-.28125.4375-.453125.828125-.453125.53125 0 .84375.328125.84375.859375 0 .34375-.109375.5625-.390625.671875-.15625.078125-.375.09375-.796875.109375zm0 0"/><path id="c" d="M3.4688-.5937H.9063c.06245-.4063.2812-.671925.890575-1.0313l.6719-.3906C3.15625-2.390625 3.5-2.890625 3.5-3.5c0-.421875-.15625-.796875-.453125-1.0625-.28125-.265625-.640625-.390625-1.09375-.390625-.625 0-1.078125.21875-1.34375.640625-.171875.265625-.25.578125-.265625 1.078125h.6094c.015625-.34375.0625-.53125.140625-.703125.15625-.296875.46875-.484375.828125-.484375.546875 0 .96875.390625.96875.9375 0 .390625-.234375.734375-.65625.984375l-.6406.3594C.578125-1.546875.28125-1.09375.234375 0H3.4688zm0 0"/><path id="d" d="M1.7813-3.5312V0h.5937v-4.9531h-.3906c-.21875.765625-.359375.875-1.28125.984375v.4375zm0 0"/><path id="e" d="M1.8906-4.9531c-.453125 0-.875.203125-1.125.546875-.3125.4375-.46875 1.09375-.46875 2.015625C.296875-.71875.84375.15625 1.890625.15625c1.03125 0 1.59375-.875 1.59375-2.515625 0-.953125-.15625-1.59375-.484375-2.046875-.25-.34375-.65625-.546875-1.109375-.546875zm0 .5313c.640625 0 .96875.671875.96875 2.015625 0 1.40625-.3125 2.0625-.984375 2.0625-.640625 0-.96875-.6875-.96875-2.046875 0-1.359375.328125-2.03125.984375-2.03125zm0 0"/><path id="f" d="M1.3125-.7187H.5938V0h.7188zm0 0"/><path id="g" d="M3.2656-4.8594H.75L.3906-2.2031h.5625c.28125-.34375.515625-.453125.890625-.453125.65625 0 1.0625.4375 1.0625 1.15625 0 .703125-.40625 1.125-1.0625 1.125-.53125 0-.859375-.265625-1-.8125H.2344c.09375.390625.15625.578125.296875.765625.281225.35935.7656.5781 1.3281.5781.96875 0 1.65625-.703125 1.65625-1.734375 0-.953125-.640625-1.625-1.5625-1.625-.34375 0-.625.09375-.90625.296875l.1875-1.3437h2.0313zm0 0"/><path id="h" d="M3.5625-4.8594h-3.25v.6094h2.625C1.78125-2.609375 1.3125-1.59375.953125 0h.6406c.265625-1.546875.875-2.890625 1.96875-4.34375zm0 0"/><path id="i" d="M179 8.1719h1v242.2227h-1zm0 0"/><path id="j" d="M19.4961 239h319.9688v1H19.4961zm0 0"/><path id="k" d="M557 8.1719h1v242.2227h-1zm0 0"/><path id="l" d="M397.3828 239h319.9687v1H397.3828zm0 0"/><path id="m" d="M1997.4929-211.1804v-2425.5131"/><path id="n" d="M399.4817-321.4079h3196.0225"/><path id="o" d="M399.4817-211.1804v-2425.5131"/><path id="p" d="M3595.5042-211.1804v-2425.5131"/><path id="q" d="M1997.5098-211.1804v-2425.5131"/><path id="r" d="M399.4986-321.4079H3595.482"/><path id="s" d="M399.4986-211.1804v-2425.5131"/><path id="t" d="M3595.482-211.1804v-2425.5131"/></defs><path fill="#fff" d="M19.4961 250.3945h319.9688V8.1719H19.4961zm0 0"/><g clip-path="url(#K)"><use href="#m" class="g"/></g><g clip-path="url(#L)"><use href="#n" class="g"/></g><g clip-path="url(#M)"><use href="#o" class="a"/></g><g clip-path="url(#N)"><path d="M932.152102-211.180436v-2425.513113" class="a"/></g><g clip-path="url(#O)"><path d="M1464.822512-211.180436v-2425.513113" class="a"/></g><g clip-path="url(#P)"><use href="#m" class="a"/></g><g clip-path="url(#Q)"><path d="M2530.163332-211.180436v-2425.513113" class="a"/></g><g clip-path="url(#R)"><path d="M3062.833742-211.180436v-2425.513113" class="a"/></g><g clip-path="url(#S)"><use href="#p" class="a"/></g><g clip-path="url(#T)"><use href="#n" class="a"/></g><g clip-path="url(#U)"><path d="M399.481692-872.662676h3196.02246" class="a"/></g><g clip-path="url(#V)"><path d="M399.481692-1423.917434h3196.02246" class="a"/></g><g clip-path="url(#W)"><path d="M399.481692-1975.172193h3196.02246" class="a"/></g><g clip-path="url(#X)"><path d="M399.481692-2526.466066h3196.02246" class="a"/></g><g class="e"><path d="M399.481692-211.180436h3196.02246" class="c"/><g class="d"><path d="M399.481692-211.180436v-45.64779"/><path d="M399.481692-211.180436v-22.804337"/><path d="M452.779947-211.180436v-22.804337"/><path d="M506.039185-211.180436v-22.804337"/><path d="M559.298422-211.180436v-22.804337"/><path d="M612.55766-211.180436v-22.804337"/><path d="M665.816897-211.180436v-22.804337"/><path d="M719.115152-211.180436v-22.804337"/><path d="M772.37439-211.180436v-22.804337"/><path d="M825.633627-211.180436v-22.804337"/><path d="M932.152102-211.180436v-45.64779"/><path d="M932.152102-211.180436v-22.804337"/><path d="M985.450357-211.180436v-22.804337"/><path d="M1038.709595-211.180436v-22.804337"/><path d="M1091.968832-211.180436v-22.804337"/><path d="M1145.22807-211.180436v-22.804337"/><path d="M1198.487307-211.180436v-22.804337"/><path d="M1251.746544-211.180436v-22.804337"/><path d="M1305.0448-211.180436v-22.804337"/><path d="M1358.304037-211.180436v-22.804337"/><path d="M1464.822512-211.180436v-45.64779"/><path d="M1464.822512-211.180436v-22.804337"/><path d="M1518.081749-211.180436v-22.804337"/><path d="M1571.340987-211.180436v-22.804337"/><path d="M1624.639242-211.180436v-22.804337"/><path d="M1677.89848-211.180436v-22.804337"/><path d="M1731.157717-211.180436v-22.804337"/><path d="M1784.455972-211.180436v-22.804337"/><path d="M1837.71521-211.180436v-22.804337"/><path d="M1890.974447-211.180436v-22.804337"/><path d="M1997.492922-211.180436v-45.64779"/><path d="M1997.492922-211.180436v-22.804337"/><path d="M2050.75216-211.180436v-22.804337"/><path d="M2104.050415-211.180436v-22.804337"/><path d="M2157.309652-211.180436v-22.804337"/><path d="M2210.56889-211.180436v-22.804337"/><path d="M2263.828127-211.180436v-22.804337"/><path d="M2317.087365-211.180436v-22.804337"/><path d="M2370.346602-211.180436v-22.804337"/><path d="M2423.644857-211.180436v-22.804337"/><path d="M2530.163332-211.180436v-45.64779"/><path d="M2530.163332-211.180436v-22.804337"/><path d="M2583.42257-211.180436v-22.804337"/><path d="M2636.681807-211.180436v-22.804337"/><path d="M2689.941044-211.180436v-22.804337"/><path d="M2743.2393-211.180436v-22.804337"/><path d="M2796.498537-211.180436v-22.804337"/><path d="M2849.757775-211.180436v-22.804337"/><path d="M2903.05603-211.180436v-22.804337"/><path d="M2956.315267-211.180436v-22.804337"/><path d="M3062.833742-211.180436v-45.64779"/><path d="M3062.833742-211.180436v-22.804337"/><path d="M3116.09298-211.180436v-22.804337"/><path d="M3169.352217-211.180436v-22.804337"/><path d="M3222.650472-211.180436v-22.804337"/><path d="M3275.90971-211.180436v-22.804337"/><path d="M3329.168947-211.180436v-22.804337"/><path d="M3382.428185-211.180436v-22.804337"/><path d="M3435.687422-211.180436v-22.804337"/><path d="M3488.985677-211.180436v-22.804337"/><path d="M3595.504152-211.180436v-45.64779"/><path d="M3595.504152-211.180436v-22.804337"/></g></g><use x="16.4506" y="259.5153" href="#y"/><use x="18.7338" y="259.5153" href="#G"/><use x="69.5878" y="259.5153" href="#y"/><use x="71.871" y="259.5153" href="#z"/><use x="122.7255" y="259.5153" href="#y"/><use x="125.0087" y="259.5153" href="#A"/><use x="177.5759" y="259.5153" href="#u"/><use x="230.7135" y="259.5153" href="#A"/><use x="283.8512" y="259.5153" href="#z"/><use x="337.5602" y="259.5153" href="#G"/><g class="e"><path d="M399.481692-2636.693549h3196.02246" class="c"/><g class="d"><path d="M399.481692-2636.693549v45.64779"/><path d="M399.481692-2636.693549v22.804338"/><path d="M452.779947-2636.693549v22.804338"/><path d="M506.039185-2636.693549v22.804338"/><path d="M559.298422-2636.693549v22.804338"/><path d="M612.55766-2636.693549v22.804338"/><path d="M665.816897-2636.693549v22.804338"/><path d="M719.115152-2636.693549v22.804338"/><path d="M772.37439-2636.693549v22.804338"/><path d="M825.633627-2636.693549v22.804338"/><path d="M932.152102-2636.693549v45.64779"/><path d="M932.152102-2636.693549v22.804338"/><path d="M985.450357-2636.693549v22.804338"/><path d="M1038.709595-2636.693549v22.804338"/><path d="M1091.968832-2636.693549v22.804338"/><path d="M1145.22807-2636.693549v22.804338"/><path d="M1198.487307-2636.693549v22.804338"/><path d="M1251.746544-2636.693549v22.804338"/><path d="M1305.0448-2636.693549v22.804338"/><path d="M1358.304037-2636.693549v22.804338"/><path d="M1464.822512-2636.693549v45.64779"/><path d="M1464.822512-2636.693549v22.804338"/><path d="M1518.081749-2636.693549v22.804338"/><path d="M1571.340987-2636.693549v22.804338"/><path d="M1624.639242-2636.693549v22.804338"/><path d="M1677.89848-2636.693549v22.804338"/><path d="M1731.157717-2636.693549v22.804338"/><path d="M1784.455972-2636.693549v22.804338"/><path d="M1837.71521-2636.693549v22.804338"/><path d="M1890.974447-2636.693549v22.804338"/><path d="M1997.492922-2636.693549v45.64779"/><path d="M1997.492922-2636.693549v22.804338"/><path d="M2050.75216-2636.693549v22.804338"/><path d="M2104.050415-2636.693549v22.804338"/><path d="M2157.309652-2636.693549v22.804338"/><path d="M2210.56889-2636.693549v22.804338"/><path d="M2263.828127-2636.693549v22.804338"/><path d="M2317.087365-2636.693549v22.804338"/><path d="M2370.346602-2636.693549v22.804338"/><path d="M2423.644857-2636.693549v22.804338"/><path d="M2530.163332-2636.693549v45.64779"/><path d="M2530.163332-2636.693549v22.804338"/><path d="M2583.42257-2636.693549v22.804338"/><path d="M2636.681807-2636.693549v22.804338"/><path d="M2689.941044-2636.693549v22.804338"/><path d="M2743.2393-2636.693549v22.804338"/><path d="M2796.498537-2636.693549v22.804338"/><path d="M2849.757775-2636.693549v22.804338"/><path d="M2903.05603-2636.693549v22.804338"/><path d="M2956.315267-2636.693549v22.804338"/><path d="M3062.833742-2636.693549v45.64779"/><path d="M3062.833742-2636.693549v22.804338"/><path d="M3116.09298-2636.693549v22.804338"/><path d="M3169.352217-2636.693549v22.804338"/><path d="M3222.650472-2636.693549v22.804338"/><path d="M3275.90971-2636.693549v22.804338"/><path d="M3329.168947-2636.693549v22.804338"/><path d="M3382.428185-2636.693549v22.804338"/><path d="M3435.687422-2636.693549v22.804338"/><path d="M3488.985677-2636.693549v22.804338"/><path d="M3595.504152-2636.693549v45.64779"/><path d="M3595.504152-2636.693549v22.804338"/></g></g><g clip-path="url(#Y)"><use x="16.4506" y="5.8914" href="#y"/><use x="18.7338" y="5.8914" href="#G"/></g><g clip-path="url(#Z)"><use x="69.5878" y="5.8914" href="#y"/><use x="71.871" y="5.8914" href="#z"/></g><g clip-path="url(#a0)"><use x="122.7255" y="5.8914" href="#y"/><use x="125.0087" y="5.8914" href="#A"/></g><use x="177.5759" y="5.8914" href="#u" clip-path="url(#a1)"/><use x="230.7135" y="5.8914" href="#A" clip-path="url(#a2)"/><use x="283.8512" y="5.8914" href="#z" clip-path="url(#a3)"/><use x="337.5602" y="5.8914" href="#G" clip-path="url(#a4)"/><g class="e"><use href="#o" class="c"/><g class="d"><path d="M399.481692-321.407918h45.689793"/><path d="M399.481692-321.407918h22.864405"/><path d="M399.481692-376.560775h22.864405"/><path d="M399.481692-431.674516h22.864405"/><path d="M399.481692-486.788257h22.864405"/><path d="M399.481692-541.901998h22.864405"/><path d="M399.481692-597.054855h22.864405"/><path d="M399.481692-652.168596h22.864405"/><path d="M399.481692-707.282337h22.864405"/><path d="M399.481692-762.435194h22.864405"/><path d="M399.481692-872.662676h45.689793"/><path d="M399.481692-872.662676h22.864405"/><path d="M399.481692-927.815533h22.864405"/><path d="M399.481692-982.929274h22.864405"/><path d="M399.481692-1038.043015h22.864405"/><path d="M399.481692-1093.195872h22.864405"/><path d="M399.481692-1148.309613h22.864405"/><path d="M399.481692-1203.423354h22.864405"/><path d="M399.481692-1258.576211h22.864405"/><path d="M399.481692-1313.689952h22.864405"/><path d="M399.481692-1423.917434h45.689793"/><path d="M399.481692-1423.917434h22.864405"/><path d="M399.481692-1479.070291h22.864405"/><path d="M399.481692-1534.184032h22.864405"/><path d="M399.481692-1589.297773h22.864405"/><path d="M399.481692-1644.411515h22.864405"/><path d="M399.481692-1699.564371h22.864405"/><path d="M399.481692-1754.678112h22.864405"/><path d="M399.481692-1809.830969h22.864405"/><path d="M399.481692-1864.94471h22.864405"/><path d="M399.481692-1975.172193h45.689793"/><path d="M399.481692-1975.172193h22.864405"/><path d="M399.481692-2030.325049h22.864405"/><path d="M399.481692-2085.43879h22.864405"/><path d="M399.481692-2140.552532h22.864405"/><path d="M399.481692-2195.705388h22.864405"/><path d="M399.481692-2250.819129h22.864405"/><path d="M399.481692-2305.932871h22.864405"/><path d="M399.481692-2361.085727h22.864405"/><path d="M399.481692-2416.199468h22.864405"/><path d="M399.481692-2526.466066h45.689793"/><path d="M399.481692-2526.466066h22.864405"/><path d="M399.481692-2581.579807h22.864405"/><path d="M399.481692-2636.693549h22.864405"/></g></g><g clip-path="url(#a5)"><use x=".4418" y="242.4171" href="#u"/><use x="4.2539" y="242.4171" href="#w"/><use x="6.16" y="242.4171" href="#u"/><use x="9.9722" y="242.4171" href="#u"/></g><g clip-path="url(#a6)"><use x=".4418" y="187.7028" href="#u"/><use x="4.2539" y="187.7028" href="#w"/><use x="6.16" y="187.7028" href="#z"/><use x="9.9722" y="187.7028" href="#B"/></g><g clip-path="url(#a7)"><use x=".4418" y="132.4183" href="#u"/><use x="4.2539" y="132.4183" href="#w"/><use x="6.16" y="132.4183" href="#B"/><use x="9.9722" y="132.4183" href="#u"/></g><g clip-path="url(#a8)"><use x=".4418" y="77.1342" href="#u"/><use x="4.2539" y="77.1342" href="#w"/><use x="6.16" y="77.1342" href="#I"/><use x="9.9722" y="77.1342" href="#B"/></g><use x=".4418" y="22.4199" href="#A"/><use x="4.2539" y="22.4199" href="#w"/><use x="6.16" y="22.4199" href="#u"/><use x="9.9722" y="22.4199" href="#u"/><g class="e"><use href="#p" class="c"/><g class="d"><path d="M3595.504152-321.407918h-45.650775"/><path d="M3595.504152-321.407918h-22.825387"/><path d="M3595.504152-376.560775h-22.825387"/><path d="M3595.504152-431.674516h-22.825387"/><path d="M3595.504152-486.788257h-22.825387"/><path d="M3595.504152-541.901998h-22.825387"/><path d="M3595.504152-597.054855h-22.825387"/><path d="M3595.504152-652.168596h-22.825387"/><path d="M3595.504152-707.282337h-22.825387"/><path d="M3595.504152-762.435194h-22.825387"/><path d="M3595.504152-872.662676h-45.650775"/><path d="M3595.504152-872.662676h-22.825387"/><path d="M3595.504152-927.815533h-22.825387"/><path d="M3595.504152-982.929274h-22.825387"/><path d="M3595.504152-1038.043015h-22.825387"/><path d="M3595.504152-1093.195872h-22.825387"/><path d="M3595.504152-1148.309613h-22.825387"/><path d="M3595.504152-1203.423354h-22.825387"/><path d="M3595.504152-1258.576211h-22.825387"/><path d="M3595.504152-1313.689952h-22.825387"/><path d="M3595.504152-1423.917434h-45.650775"/><path d="M3595.504152-1423.917434h-22.825387"/><path d="M3595.504152-1479.070291h-22.825387"/><path d="M3595.504152-1534.184032h-22.825387"/><path d="M3595.504152-1589.297773h-22.825387"/><path d="M3595.504152-1644.411515h-22.825387"/><path d="M3595.504152-1699.564371h-22.825387"/><path d="M3595.504152-1754.678112h-22.825387"/><path d="M3595.504152-1809.830969h-22.825387"/><path d="M3595.504152-1864.94471h-22.825387"/><path d="M3595.504152-1975.172193h-45.650775"/><path d="M3595.504152-1975.172193h-22.825387"/><path d="M3595.504152-2030.325049h-22.825387"/><path d="M3595.504152-2085.43879h-22.825387"/><path d="M3595.504152-2140.552532h-22.825387"/><path d="M3595.504152-2195.705388h-22.825387"/><path d="M3595.504152-2250.819129h-22.825387"/><path d="M3595.504152-2305.932871h-22.825387"/><path d="M3595.504152-2361.085727h-22.825387"/><path d="M3595.504152-2416.199468h-22.825387"/><path d="M3595.504152-2526.466066h-45.650775"/><path d="M3595.504152-2526.466066h-22.825387"/><path d="M3595.504152-2581.579807h-22.825387"/><path d="M3595.504152-2636.693549h-22.825387"/></g></g><g clip-path="url(#a9)"><use x="345.1784" y="242.4171" href="#u"/><use x="348.9906" y="242.4171" href="#w"/><use x="350.8967" y="242.4171" href="#u"/><use x="354.7089" y="242.4171" href="#u"/></g><g clip-path="url(#aa)"><use x="345.1784" y="187.7028" href="#u"/><use x="348.9906" y="187.7028" href="#w"/><use x="350.8967" y="187.7028" href="#z"/><use x="354.7089" y="187.7028" href="#B"/></g><g clip-path="url(#ab)"><use x="345.1784" y="132.4183" href="#u"/><use x="348.9906" y="132.4183" href="#w"/><use x="350.8967" y="132.4183" href="#B"/><use x="354.7089" y="132.4183" href="#u"/></g><g clip-path="url(#ac)"><use x="345.1784" y="77.1342" href="#u"/><use x="348.9906" y="77.1342" href="#w"/><use x="350.8967" y="77.1342" href="#I"/><use x="354.7089" y="77.1342" href="#B"/></g><g clip-path="url(#ad)"><use x="345.1784" y="22.4199" href="#A"/><use x="348.9906" y="22.4199" href="#w"/><use x="350.8967" y="22.4199" href="#u"/><use x="354.7089" y="22.4199" href="#u"/></g><g clip-path="url(#ae)"><path d="M399.52071-321.407918h769.157031l9.130155-.039116h36.715709l9.091137-.039115h9.247208l9.130155-.039116h9.247209l9.169172-.039115 18.26031-.078231 9.091138-.078231 9.247208-.078231 9.052119-.117347 9.130155-.117346 9.169173-.117347 9.208191-.195577 9.247208-.234693 9.091137-.273809 9.130155-.312924 9.130155-.391155 9.208191-.469386 9.130155-.586732 9.247208-.704079 9.169173-.821426 9.130155-.977887 9.130155-1.173466 9.091137-1.369042 9.247208-1.642851 9.05212-1.877544 9.130155-2.229584 9.169172-2.620738 9.208191-3.090125 9.247208-3.598626 9.091137-4.068012 9.169173-4.732976 9.091137-5.397939 9.208191-6.297596 9.130155-7.079905 9.247208-8.17514 9.169173-9.231258 9.130155-10.365608 9.130155-11.695535 9.091137-13.064577 9.247208-14.863891 9.091137-16.232933 9.130155-18.149592 9.130155-20.183599 4.604096-10.913225 4.604095-11.499957 4.643113-12.08669 4.643113-12.712538 4.52606-12.986346 4.526059-13.612195 4.565078-14.355389 4.604095-14.981237 4.565078-15.489738 4.526059-16.154702 4.604096-17.093474 4.643113-17.758438 4.565077-18.266939 4.565078-18.931902 4.604095-19.90979 4.604095-20.652985 4.604095-21.161486 4.604096-21.904681 4.526059-22.530528 2.302048-11.499958 2.26303-11.73465 2.302048-11.891112 2.302047-12.125806 2.26303-12.282267 2.302048-12.477845 2.26303-12.556076 2.263029-12.751653 2.26303-12.908116 2.302048-13.103693 2.302048-13.494848 2.302047-13.690425 2.341066-13.886003 2.302047-14.042465 2.26303-13.925118 2.26303-14.081581 2.26303-14.238042 2.26303-14.43362 2.302047-14.668313 2.26303-14.86389 2.26303-15.020353 2.302048-15.137699 2.302047-15.372392 2.26303-15.489738 2.302048-15.646201 2.26303-15.802662 2.302047-16.076471 2.302048-16.193818 2.341065-16.350279 2.26303-16.467626 2.341066-16.663204 2.302047-16.858781 2.302048-16.897896 2.341065-17.093474 2.26303-16.819666 2.26303-16.937012 2.26303-17.054358 2.302047-17.13259 2.26303-17.406398 2.302048-17.484629 2.302048-17.601975 4.526059-35.282182 2.302048-17.641091 2.26303-17.758438 2.26303-17.797553 2.302047-18.110477 2.341066-18.149593 2.302047-18.227823 2.302048-18.266939 2.26303-18.032246 2.302047-18.110477 2.26303-18.110477 2.302048-18.110477 4.604095-36.69034 2.341066-18.34517 2.302047-18.306055 2.302048-18.149593 2.26303-18.110477 2.302047-18.071361 2.302048-17.993131 2.26303-17.875784 2.302047-17.797553 2.26303-17.758437 2.26303-17.680207 2.302048-17.641091 2.302047-17.56286 2.26303-17.445513 2.302048-17.367283 2.26303-17.132589 2.26303-16.976128 2.302047-16.897897 2.26303-16.741434 2.302048-16.897897 2.341065-16.78055 2.302048-16.584972 2.302047-16.428511 2.26303-15.880893 2.26303-15.724431 2.26303-15.528854 2.26303-15.372392 2.302047-15.255046 2.26303-15.059468 2.302048-14.824775 2.26303-14.629197 2.302047-14.394505 2.302048-14.159811 2.26303-13.925118 2.302048-13.690426 2.302047-13.494848 2.302048-13.221039 2.302047-12.947231 2.302048-12.712538 2.302048-12.399614 2.302047-12.164921 2.341066-11.812881 2.302047-11.499957 4.52606-21.669988 4.565078-20.379176 4.565077-19.205711 4.565078-17.875784 4.565077-16.311164 4.52606-14.863891 4.643113-13.612194 4.604095-12.047574 9.130155-19.244827 4.604095-7.353714 4.643113-5.671748 1.131515-1.173465 1.170533-1.056119 2.26303-1.838428 1.170533-.743195 1.131514-.664963 1.170533-.547617 1.131515-.469386 1.131515-.312924 1.170533-.273809 1.131515-.156462 1.131515-.039115 1.131515.078231 1.131514.156462 1.131515.234693 1.170533.391155 1.131515.43027 1.131515.586733 1.170533.664963 1.131515.743195 2.263029 1.838428 2.302048 2.229584 4.565078 5.671748 4.526059 7.197252 9.247209 19.518635 4.526059 11.851997 4.52606 13.338386 4.565078 14.903006 4.565077 16.350279 4.604095 17.797553 4.565078 19.166596 4.604095 20.6921 4.604095 21.982912 2.302048 11.539072 2.341065 11.812882 2.302048 12.164921 2.302048 12.438729 2.263029 12.477845 2.302048 12.751653 2.26303 13.064578 2.26303 13.260155 2.302047 13.690425 2.26303 13.925118 2.302048 14.198927 2.302048 14.43362 2.263029 14.550967 2.26303 14.746544 2.26303 14.981237 2.302048 15.21593 2.302047 15.6462 2.302048 15.841778 2.302048 15.99824 2.302047 16.232933 2.302048 16.193817 2.26303 16.35028 2.302047 16.545857 2.26303 16.663203 2.341066 17.054359 2.302047 17.171705 2.302048 17.289052 4.604095 34.812796 2.302048 17.484629 2.26303 17.601975 4.604095 35.360413 2.26303 17.758438 2.302047 17.797553 2.26303 17.875784 2.26303 17.99313 2.302048 18.032246 2.302047 18.071362 2.26303 18.110477 2.26303 17.993131 2.302048 18.032246 2.26303 18.032246 2.263029 18.071361 2.302048 18.34517 2.341065 18.384286 2.302048 18.306054 2.341065 18.34517 2.26303 17.9149 2.224012 17.836668 2.302048 17.836669 2.26303 17.758438 2.26303 17.875784 2.302047 17.836668 2.26303 17.719322 2.302048 17.680207 2.26303 17.641091 2.302047 17.56286 2.302048 17.445513 2.26303 17.406398 2.302048 17.406398 2.302047 17.289052 2.302048 17.21082 2.302047 17.093474 2.341066 17.054359 2.302047 16.937012 2.302048 16.819665 2.302048 16.663204 2.302047 16.232933 2.26303 16.115586 2.26303 15.920009 2.26303 15.841778 2.302048 15.841778 2.302047 15.646201 2.26303 15.528854 2.302048 15.411507 2.26303 15.098584 2.302047 14.942121 2.26303 14.824775 2.26303 14.629197 2.302048 14.707429 2.302047 14.511851 2.302048 14.355389 2.341065 14.198927 2.26303 13.846887 2.302048 13.65131 2.26303 13.494848 4.604095 26.676772 2.302047 13.142808 2.302048 12.947231 2.341065 12.751653 2.26303 12.516961 2.302048 12.282267 2.302048 12.125806 2.302047 11.930227 2.26303 11.695535 2.26303 11.539073 4.565077 22.491413 4.565078 21.82645 4.604095 21.122371 4.52606 20.261829 4.52606 19.596866 4.643113 19.205711 4.643113 18.501632 4.526059 17.406398 4.52606 16.78055 4.565078 16.232933 4.565077 15.56797 4.565078 14.981237 4.604095 14.316273 4.565077 13.807772 4.643113 13.22104 4.604096 12.673422 4.643113 12.08669 9.052119 22.100258 9.169173 20.222714 9.091137 18.110477 9.247208 16.545857 9.130155 14.668313 9.247209 13.260155 9.169172 11.695535 9.091138 10.365608 9.169172 9.153027 9.091138 8.057793 9.247208 7.197252 9.052119 6.18025 9.130155 5.437054 9.169173 4.732976 9.208191 4.107127 9.247208 3.598627 9.091137 3.011893 9.130155 2.620739 9.130155 2.229583 9.208191 1.955775 9.130155 1.603736 9.247208 1.408158 9.169173 1.13435 9.130155.977887 9.130155.821426 9.091137.704079 9.286226.586732 9.013102.469386 9.130155.391155 9.169172.312924 9.208191.273809 9.247208.234693 9.091137.195577 9.169173.117347 9.091137.117346 9.247209.117347 9.091137.078231 9.247208.078231 9.169173.039115 18.26031.078231h9.091137l9.286226.039116h9.052119l9.130155.039115h36.676691l9.169173.039116h769.235067" style="fill:none;stroke-width:11.4143;stroke-linecap:round;stroke-linejoin:round;stroke:#00008b;stroke-miterlimit:10;transform:matrix(.100115,0,0,.0998645,-20.497886,271.48396)"/></g><path fill="#fff" d="M397.3828 250.3945h319.9687V8.1719H397.3828zm0 0"/><g clip-path="url(#af)"><use href="#q" class="h"/></g><g clip-path="url(#ag)"><use href="#r" class="h"/></g><g clip-path="url(#ah)"><use href="#s" class="b"/></g><g clip-path="url(#ai)"><path d="M932.168988-211.180436v-2425.513113" class="b"/></g><g clip-path="url(#aj)"><path d="M1464.839398-211.180436v-2425.513113" class="b"/></g><g clip-path="url(#ak)"><use href="#q" class="b"/></g><g clip-path="url(#al)"><path d="M2530.141201-211.180436v-2425.513113" class="b"/></g><g clip-path="url(#am)"><path d="M3062.850628-211.180436v-2425.513113" class="b"/></g><g clip-path="url(#an)"><use href="#t" class="b"/></g><g clip-path="url(#ao)"><use href="#r" class="b"/></g><g clip-path="url(#ap)"><path d="M399.498578-872.662676h3195.983443" class="b"/></g><g clip-path="url(#aq)"><path d="M399.498578-1423.917434h3195.983443" class="b"/></g><g clip-path="url(#ar)"><path d="M399.498578-1975.172193h3195.983443" class="b"/></g><g clip-path="url(#as)"><path d="M399.498578-2526.466066h3195.983443" class="b"/></g><g class="f"><path d="M399.498578-211.180436h3195.983443" class="c"/><g class="d"><path d="M399.498578-211.180436v-45.64779"/><path d="M399.498578-211.180436v-22.804337"/><path d="M452.757816-211.180436v-22.804337"/><path d="M506.017053-211.180436v-22.804337"/><path d="M559.315308-211.180436v-22.804337"/><path d="M612.574546-211.180436v-22.804337"/><path d="M665.833783-211.180436v-22.804337"/><path d="M719.093021-211.180436v-22.804337"/><path d="M772.352258-211.180436v-22.804337"/><path d="M825.650513-211.180436v-22.804337"/><path d="M932.168988-211.180436v-45.64779"/><path d="M932.168988-211.180436v-22.804337"/><path d="M985.428226-211.180436v-22.804337"/><path d="M1038.687463-211.180436v-22.804337"/><path d="M1091.946701-211.180436v-22.804337"/><path d="M1145.244956-211.180436v-22.804337"/><path d="M1198.504193-211.180436v-22.804337"/><path d="M1251.763431-211.180436v-22.804337"/><path d="M1305.022668-211.180436v-22.804337"/><path d="M1358.281906-211.180436v-22.804337"/><path d="M1464.839398-211.180436v-45.64779"/><path d="M1464.839398-211.180436v-22.804337"/><path d="M1518.098636-211.180436v-22.804337"/><path d="M1571.357873-211.180436v-22.804337"/><path d="M1624.617111-211.180436v-22.804337"/><path d="M1677.915366-211.180436v-22.804337"/><path d="M1731.174603-211.180436v-22.804337"/><path d="M1784.433841-211.180436v-22.804337"/><path d="M1837.693078-211.180436v-22.804337"/><path d="M1890.952316-211.180436v-22.804337"/><path d="M1997.509808-211.180436v-45.64779"/><path d="M1997.509808-211.180436v-22.804337"/><path d="M2050.769046-211.180436v-22.804337"/><path d="M2104.028283-211.180436v-22.804337"/><path d="M2157.287521-211.180436v-22.804337"/><path d="M2210.546758-211.180436v-22.804337"/><path d="M2263.845013-211.180436v-22.804337"/><path d="M2317.104251-211.180436v-22.804337"/><path d="M2370.363488-211.180436v-22.804337"/><path d="M2423.622726-211.180436v-22.804337"/><path d="M2530.141201-211.180436v-45.64779"/><path d="M2530.141201-211.180436v-22.804337"/><path d="M2583.439456-211.180436v-22.804337"/><path d="M2636.698693-211.180436v-22.804337"/><path d="M2689.957931-211.180436v-22.804337"/><path d="M2743.256186-211.180436v-22.804337"/><path d="M2796.515423-211.180436v-22.804337"/><path d="M2849.774661-211.180436v-22.804337"/><path d="M2903.033898-211.180436v-22.804337"/><path d="M2956.293136-211.180436v-22.804337"/><path d="M3062.850628-211.180436v-45.64779"/><path d="M3062.850628-211.180436v-22.804337"/><path d="M3116.109866-211.180436v-22.804337"/><path d="M3169.369103-211.180436v-22.804337"/><path d="M3222.628341-211.180436v-22.804337"/><path d="M3275.887578-211.180436v-22.804337"/><path d="M3329.185833-211.180436v-22.804337"/><path d="M3382.445071-211.180436v-22.804337"/><path d="M3435.704308-211.180436v-22.804337"/><path d="M3488.963546-211.180436v-22.804337"/><path d="M3595.482021-211.180436v-45.64779"/><path d="M3595.482021-211.180436v-22.804337"/></g></g><use x="394.3356" y="259.5153" href="#C"/><use x="396.6188" y="259.5153" href="#H"/><use x="447.4729" y="259.5153" href="#C"/><use x="449.7561" y="259.5153" href="#D"/><use x="500.6105" y="259.5153" href="#C"/><use x="502.8937" y="259.5153" href="#E"/><use x="555.4609" y="259.5153" href="#v"/><use x="608.5985" y="259.5153" href="#E"/><use x="661.7362" y="259.5153" href="#D"/><use x="715.4452" y="259.5153" href="#H"/><g class="f"><path d="M399.498578-2636.693549h3195.983443" class="c"/><g class="d"><path d="M399.498578-2636.693549v45.64779"/><path d="M399.498578-2636.693549v22.804338"/><path d="M452.757816-2636.693549v22.804338"/><path d="M506.017053-2636.693549v22.804338"/><path d="M559.315308-2636.693549v22.804338"/><path d="M612.574546-2636.693549v22.804338"/><path d="M665.833783-2636.693549v22.804338"/><path d="M719.093021-2636.693549v22.804338"/><path d="M772.352258-2636.693549v22.804338"/><path d="M825.650513-2636.693549v22.804338"/><path d="M932.168988-2636.693549v45.64779"/><path d="M932.168988-2636.693549v22.804338"/><path d="M985.428226-2636.693549v22.804338"/><path d="M1038.687463-2636.693549v22.804338"/><path d="M1091.946701-2636.693549v22.804338"/><path d="M1145.244956-2636.693549v22.804338"/><path d="M1198.504193-2636.693549v22.804338"/><path d="M1251.763431-2636.693549v22.804338"/><path d="M1305.022668-2636.693549v22.804338"/><path d="M1358.281906-2636.693549v22.804338"/><path d="M1464.839398-2636.693549v45.64779"/><path d="M1464.839398-2636.693549v22.804338"/><path d="M1518.098636-2636.693549v22.804338"/><path d="M1571.357873-2636.693549v22.804338"/><path d="M1624.617111-2636.693549v22.804338"/><path d="M1677.915366-2636.693549v22.804338"/><path d="M1731.174603-2636.693549v22.804338"/><path d="M1784.433841-2636.693549v22.804338"/><path d="M1837.693078-2636.693549v22.804338"/><path d="M1890.952316-2636.693549v22.804338"/><path d="M1997.509808-2636.693549v45.64779"/><path d="M1997.509808-2636.693549v22.804338"/><path d="M2050.769046-2636.693549v22.804338"/><path d="M2104.028283-2636.693549v22.804338"/><path d="M2157.287521-2636.693549v22.804338"/><path d="M2210.546758-2636.693549v22.804338"/><path d="M2263.845013-2636.693549v22.804338"/><path d="M2317.104251-2636.693549v22.804338"/><path d="M2370.363488-2636.693549v22.804338"/><path d="M2423.622726-2636.693549v22.804338"/><path d="M2530.141201-2636.693549v45.64779"/><path d="M2530.141201-2636.693549v22.804338"/><path d="M2583.439456-2636.693549v22.804338"/><path d="M2636.698693-2636.693549v22.804338"/><path d="M2689.957931-2636.693549v22.804338"/><path d="M2743.256186-2636.693549v22.804338"/><path d="M2796.515423-2636.693549v22.804338"/><path d="M2849.774661-2636.693549v22.804338"/><path d="M2903.033898-2636.693549v22.804338"/><path d="M2956.293136-2636.693549v22.804338"/><path d="M3062.850628-2636.693549v45.64779"/><path d="M3062.850628-2636.693549v22.804338"/><path d="M3116.109866-2636.693549v22.804338"/><path d="M3169.369103-2636.693549v22.804338"/><path d="M3222.628341-2636.693549v22.804338"/><path d="M3275.887578-2636.693549v22.804338"/><path d="M3329.185833-2636.693549v22.804338"/><path d="M3382.445071-2636.693549v22.804338"/><path d="M3435.704308-2636.693549v22.804338"/><path d="M3488.963546-2636.693549v22.804338"/><path d="M3595.482021-2636.693549v45.64779"/><path d="M3595.482021-2636.693549v22.804338"/></g></g><g clip-path="url(#at)"><use x="394.3356" y="5.8914" href="#C"/><use x="396.6188" y="5.8914" href="#H"/></g><g clip-path="url(#au)"><use x="447.4729" y="5.8914" href="#C"/><use x="449.7561" y="5.8914" href="#D"/></g><g clip-path="url(#av)"><use x="500.6105" y="5.8914" href="#C"/><use x="502.8937" y="5.8914" href="#E"/></g><use x="555.4609" y="5.8914" href="#v" clip-path="url(#aw)"/><use x="608.5985" y="5.8914" href="#E" clip-path="url(#ax)"/><use x="661.7362" y="5.8914" href="#D" clip-path="url(#ay)"/><use x="715.4452" y="5.8914" href="#H" clip-path="url(#az)"/><g class="f"><use href="#s" class="c"/><g class="d"><path d="M399.498578-321.407918h45.650775"/><path d="M399.498578-321.407918h22.825388"/><path d="M399.498578-376.560775h22.825388"/><path d="M399.498578-431.674516h22.825388"/><path d="M399.498578-486.788257h22.825388"/><path d="M399.498578-541.901998h22.825388"/><path d="M399.498578-597.054855h22.825388"/><path d="M399.498578-652.168596h22.825388"/><path d="M399.498578-707.282337h22.825388"/><path d="M399.498578-762.435194h22.825388"/><path d="M399.498578-872.662676h45.650775"/><path d="M399.498578-872.662676h22.825388"/><path d="M399.498578-927.815533h22.825388"/><path d="M399.498578-982.929274h22.825388"/><path d="M399.498578-1038.043015h22.825388"/><path d="M399.498578-1093.195872h22.825388"/><path d="M399.498578-1148.309613h22.825388"/><path d="M399.498578-1203.423354h22.825388"/><path d="M399.498578-1258.576211h22.825388"/><path d="M399.498578-1313.689952h22.825388"/><path d="M399.498578-1423.917434h45.650775"/><path d="M399.498578-1423.917434h22.825388"/><path d="M399.498578-1479.070291h22.825388"/><path d="M399.498578-1534.184032h22.825388"/><path d="M399.498578-1589.297773h22.825388"/><path d="M399.498578-1644.45063h22.825388"/><path d="M399.498578-1699.564371h22.825388"/><path d="M399.498578-1754.678112h22.825388"/><path d="M399.498578-1809.830969h22.825388"/><path d="M399.498578-1864.94471h22.825388"/><path d="M399.498578-1975.172193h45.650775"/><path d="M399.498578-1975.172193h22.825388"/><path d="M399.498578-2030.325049h22.825388"/><path d="M399.498578-2085.43879h22.825388"/><path d="M399.498578-2140.552532h22.825388"/><path d="M399.498578-2195.705388h22.825388"/><path d="M399.498578-2250.819129h22.825388"/><path d="M399.498578-2305.932871h22.825388"/><path d="M399.498578-2361.085727h22.825388"/><path d="M399.498578-2416.199468h22.825388"/><path d="M399.498578-2526.466066h45.650775"/><path d="M399.498578-2526.466066h22.825388"/><path d="M399.498578-2581.579807h22.825388"/><path d="M399.498578-2636.693549h22.825388"/></g></g><g clip-path="url(#aA)"><use x="378.3268" y="242.4171" href="#v"/><use x="382.139" y="242.4171" href="#x"/><use x="384.0451" y="242.4171" href="#v"/><use x="387.8573" y="242.4171" href="#v"/></g><g clip-path="url(#aB)"><use x="378.3268" y="187.7028" href="#v"/><use x="382.139" y="187.7028" href="#x"/><use x="384.0451" y="187.7028" href="#D"/><use x="387.8573" y="187.7028" href="#F"/></g><g clip-path="url(#aC)"><use x="378.3268" y="132.4183" href="#v"/><use x="382.139" y="132.4183" href="#x"/><use x="384.0451" y="132.4183" href="#F"/><use x="387.8573" y="132.4183" href="#v"/></g><g clip-path="url(#aD)"><use x="378.3268" y="77.1342" href="#v"/><use x="382.139" y="77.1342" href="#x"/><use x="384.0451" y="77.1342" href="#J"/><use x="387.8573" y="77.1342" href="#F"/></g><use x="378.3268" y="22.4199" href="#E"/><use x="382.139" y="22.4199" href="#x"/><use x="384.0451" y="22.4199" href="#v"/><use x="387.8573" y="22.4199" href="#v"/><g class="f"><use href="#t" class="c"/><g class="d"><path d="M3595.482021-321.407918h-45.650775"/><path d="M3595.482021-321.407918h-22.825388"/><path d="M3595.482021-376.560775h-22.825388"/><path d="M3595.482021-431.674516h-22.825388"/><path d="M3595.482021-486.788257h-22.825388"/><path d="M3595.482021-541.901998h-22.825388"/><path d="M3595.482021-597.054855h-22.825388"/><path d="M3595.482021-652.168596h-22.825388"/><path d="M3595.482021-707.282337h-22.825388"/><path d="M3595.482021-762.435194h-22.825388"/><path d="M3595.482021-872.662676h-45.650775"/><path d="M3595.482021-872.662676h-22.825388"/><path d="M3595.482021-927.815533h-22.825388"/><path d="M3595.482021-982.929274h-22.825388"/><path d="M3595.482021-1038.043015h-22.825388"/><path d="M3595.482021-1093.195872h-22.825388"/><path d="M3595.482021-1148.309613h-22.825388"/><path d="M3595.482021-1203.423354h-22.825388"/><path d="M3595.482021-1258.576211h-22.825388"/><path d="M3595.482021-1313.689952h-22.825388"/><path d="M3595.482021-1423.917434h-45.650775"/><path d="M3595.482021-1423.917434h-22.825388"/><path d="M3595.482021-1479.070291h-22.825388"/><path d="M3595.482021-1534.184032h-22.825388"/><path d="M3595.482021-1589.297773h-22.825388"/><path d="M3595.482021-1644.45063h-22.825388"/><path d="M3595.482021-1699.564371h-22.825388"/><path d="M3595.482021-1754.678112h-22.825388"/><path d="M3595.482021-1809.830969h-22.825388"/><path d="M3595.482021-1864.94471h-22.825388"/><path d="M3595.482021-1975.172193h-45.650775"/><path d="M3595.482021-1975.172193h-22.825388"/><path d="M3595.482021-2030.325049h-22.825388"/><path d="M3595.482021-2085.43879h-22.825388"/><path d="M3595.482021-2140.552532h-22.825388"/><path d="M3595.482021-2195.705388h-22.825388"/><path d="M3595.482021-2250.819129h-22.825388"/><path d="M3595.482021-2305.932871h-22.825388"/><path d="M3595.482021-2361.085727h-22.825388"/><path d="M3595.482021-2416.199468h-22.825388"/><path d="M3595.482021-2526.466066h-45.650775"/><path d="M3595.482021-2526.466066h-22.825388"/><path d="M3595.482021-2581.579807h-22.825388"/><path d="M3595.482021-2636.693549h-22.825388"/></g></g><g clip-path="url(#aE)"><use x="723.0634" y="242.4171" href="#v"/><use x="726.8756" y="242.4171" href="#x"/><use x="728.7817" y="242.4171" href="#v"/><use x="732.5939" y="242.4171" href="#v"/></g><g clip-path="url(#aF)"><use x="723.0634" y="187.7028" href="#v"/><use x="726.8756" y="187.7028" href="#x"/><use x="728.7817" y="187.7028" href="#D"/><use x="732.5939" y="187.7028" href="#F"/></g><g clip-path="url(#aG)"><use x="723.0634" y="132.4183" href="#v"/><use x="726.8756" y="132.4183" href="#x"/><use x="728.7817" y="132.4183" href="#F"/><use x="732.5939" y="132.4183" href="#v"/></g><g clip-path="url(#aH)"><use x="723.0634" y="77.1342" href="#v"/><use x="726.8756" y="77.1342" href="#x"/><use x="728.7817" y="77.1342" href="#J"/><use x="732.5939" y="77.1342" href="#F"/></g><g clip-path="url(#aI)"><use x="723.0634" y="22.4199" href="#E"/><use x="726.8756" y="22.4199" href="#x"/><use x="728.7817" y="22.4199" href="#v"/><use x="732.5939" y="22.4199" href="#v"/></g><g clip-path="url(#aJ)"><path d="M399.498578-321.407918H1699.92138l9.130155-.039116h36.52062l9.286226-.039115h9.091138l9.169172-.039116h9.169173l9.208191-.039115 9.169172-.039116 9.208191-.039115 9.052119-.078231 9.208191-.078231 9.091137-.078231 9.247208-.117347 18.182275-.312924 9.169173-.234693 9.286226-.234693 8.974084-.312924 9.286226-.391155 9.091137-.469386 9.169173-.547617 9.169172-.664963 9.247209-.821426 9.130155-.938772 9.20819-1.173465 9.05212-1.290812 9.20819-1.603735 9.130155-1.877544 9.208191-2.190468 9.130155-2.542508 9.052119-2.972778 9.169173-3.442164 9.286226-4.068012 9.013102-4.537398 9.247208-5.397939 9.091137-6.062903 9.169173-6.962559 9.169173-7.940447 9.247208-9.074796 9.130155-10.170031 9.20819-11.539072 9.05212-12.751654 9.20819-14.550966 9.130155-16.076471 9.208191-18.032246 9.130155-19.753328 9.052119-21.748219 4.604095-11.773766 4.604096-12.360498 4.643113-13.103693 4.604095-13.729541 4.52606-13.886003 4.487042-14.511851 4.643113-15.607085 4.643113-16.232933 4.526059-16.584972 4.565078-17.289052 4.565077-18.110477 4.604096-18.775441 4.565077-19.479519 4.565078-20.183599 4.643113-21.083255 4.604095-21.82645 4.565077-22.334951 2.302048-11.421726 2.26303-11.617304 2.302048-11.891112 2.302047-12.047575 2.302048-12.282267 2.341065-12.399614 2.224012-12.399614 2.26303-12.595191 2.26303-12.712538 2.26303-12.947231 2.302048-13.338386 2.302047-13.494848 2.302048-13.690425 2.341065-13.886003 2.26303-13.886003 2.26303-14.08158 2.302048-14.238043 2.263029-14.394504 2.302048-14.746544 2.302048-14.863891 2.302047-15.059468 2.302048-15.21593 2.302048-15.176814 2.263029-15.333276 2.302048-15.528854 2.26303-15.646201 2.26303-15.724431 2.26303-15.841778 2.26303-16.037356 2.302047-16.115586 2.26303-16.467626 2.302048-16.545857 2.302047-16.702319 2.302048-16.819666 2.302048-17.132589 2.302047-17.249936 2.341066-17.367283 2.341065-17.445513 2.224012-17.054359 2.26303-17.132589 2.26303-17.210821 2.224012-17.289051 2.341065-17.9149 2.302048-17.954015 2.302048-18.071362 2.341065-18.110477 2.26303-17.797553 2.302047-17.875784 4.52606-35.829799 4.604095-36.299185 2.26303-18.188708 4.604096-36.377416 2.263029-18.188708 4.604096-36.299185 2.302047-18.306055 2.302048-18.266939 2.302048-18.227823 2.302047-18.188708 2.302048-17.954015 2.302047-17.875784 2.26303-17.836669 2.26303-17.797553 2.341066-17.797553 2.302047-17.758438 2.302048-17.601975 2.302047-17.56286 2.26303-17.093474 2.26303-17.015243 2.26303-16.897897 2.26303-16.78055 2.26303-16.897896 2.341065-16.78055 2.302048-16.663204 2.302047-16.467626 2.26303-16.115586 2.302048-15.959125 2.26303-15.763547 2.26303-15.607085 2.341065-15.528854 2.302048-15.333276 2.302047-15.098583 2.302048-14.903006 2.26303-14.511851 2.302047-14.238043 2.26303-14.042465 2.26303-13.768656 2.26303-13.455733 2.302048-13.221039 2.263029-12.947231 2.26303-12.634307 2.302048-12.556076 2.26303-12.204036 2.302047-11.969343 2.302048-11.617304 4.643113-22.569644 4.643113-21.278833 4.487042-19.323058 4.52606-17.99313 4.604095-17.171705 4.643113-15.646201 4.565078-13.886003 4.526059-12.360498 9.169173-20.379176 9.169173-14.042465 1.131515-1.329927 1.170532-1.21258 2.302048-2.112238 1.170533-.899656 1.131515-.78231 1.170532-.704079 1.170533-.586733 1.131515-.508501 1.131515-.391155 1.170533-.273809 1.131515-.195577 1.131515-.078231 1.131514.039115 1.170533.117347 1.131515.234693 1.131515.312924 1.170533.43027 1.131515.547617 1.170532.625848 1.131515.743195 1.170533.860541 2.302048 1.955775 2.263029 2.386046 2.26303 2.738085 4.52606 6.649635 9.208191 18.384285 4.565077 11.421727 4.565078 12.908115 4.604095 14.590082 4.604095 16.037356 4.565078 17.328167 4.526059 18.658094 4.565078 19.948905 4.52606 21.239717 4.604095 22.726107 2.26303 11.812881 2.302047 12.125805 2.341066 12.516961 2.302047 12.869 2.341066 13.142808 2.302047 13.416617 2.26303 13.260155 2.224012 13.533963 2.26303 13.768657 2.26303 14.003349 2.302048 14.707428 2.302047 14.903006 2.341066 15.137699 2.302047 15.372392 2.302048 15.255046 2.26303 15.450623 2.26303 15.685316 2.302047 15.802662 2.26303 16.193818 2.302048 16.311164 2.302047 16.506741 2.302048 16.663204 2.26303 16.78055 2.302048 16.897896 2.263029 17.054359 2.302048 17.171705 2.302048 17.445513 2.302047 17.56286 2.341066 17.641091 2.302047 17.758438 2.26303 17.680206 2.302048 17.719322 2.302047 17.836669 2.26303 17.875784 2.302048 18.071361 2.302048 18.110478 4.604095 36.377416 2.26303 17.914899 2.26303 17.954015 2.263029 17.9149 2.26303 17.99313 4.604095 36.533878 2.302048 18.306055 2.302048 18.227823 2.302047 18.071362 2.26303 18.032246 2.26303 17.954015 2.302048 17.954015 2.302047 18.071362 2.302048 17.99313 2.302048 17.954015 2.302047 17.875784 2.302048 17.641091 2.26303 17.523745 2.26303 17.445513 2.302047 17.406398 2.26303 17.171705 2.26303 17.13259 2.26303 17.015243 2.26303 16.897896 2.302047 16.976128 2.302048 16.858781 2.26303 16.78055 2.302047 16.584973 2.341066 16.702319 2.302047 16.545857 2.341066 16.389395 2.302047 16.272048 2.26303 15.6462 2.26303 15.528854 2.224012 15.333277 2.26303 15.21593 2.302048 15.528854 2.341065 15.372392 2.302048 15.176814 2.341065 15.059468 2.26303 14.550967 2.26303 14.43362 2.26303 14.238042 2.302047 14.08158 2.26303 14.042465 2.302048 13.846888 2.302048 13.690425 2.302047 13.494848 2.26303 13.338386 2.302048 13.103693 2.302047 12.986346 2.302048 12.751654 2.26303 12.712538 2.341065 12.51696 2.302048 12.360498 2.302047 12.164921 2.302048 11.812882 2.26303 11.695534 4.604095 22.765222 4.604095 22.25672 4.565078 21.47441 4.52606 20.418292 4.526059 19.714213 4.643113 19.362173 4.565078 18.658094 4.604095 17.797553 4.52606 17.093474 4.604095 16.584972 4.604095 15.920009 4.565078 15.098584 4.565077 14.511851 4.52606 13.807772 4.565078 13.181923 4.565077 12.790769 4.604095 12.164921 4.643113 11.773766 4.643113 11.187033 8.974084 20.183599 9.286226 18.775441 9.091138 16.624088 9.169172 14.981237 9.169173 13.416616 9.208191 12.047575 9.169172 10.561185 9.208191 9.465951 9.052119 8.17514 9.208191 7.314599 9.130155 6.336711 9.20819 5.593517 9.091138 4.850322 9.091137 4.146243 9.169173 3.637742 9.286226 3.168355 8.974084 2.659854 9.286226 2.34693 9.091137 1.955775 9.169173 1.681967 9.169172 1.408158 9.247209 1.212581 9.130155.977887 9.20819.860541 9.05212.704079 9.20819.625848 9.130155.469386 9.208191.430271 9.130155.312924 9.052119.273808 9.169173.234693 9.286226.195578 9.013102.156462 9.247208.117346 9.091137.078231 9.169173.117347 9.169173.039115 9.247208.078231 9.130155.039116 9.20819.039115h9.05212l9.20819.039116h9.130155l9.208191.039115h36.637673l9.013102.039116h238.164385" style="fill:none;stroke-width:11.4143;stroke-linecap:round;stroke-linejoin:round;stroke:#00008b;stroke-miterlimit:10;transform:matrix(.100115,0,0,.0998645,357.387142,271.48396)"/></g><style>.a{fill:none;stroke:#bfbfbf;stroke-dasharray:11.4143,17.1214;stroke-linecap:round;stroke-miterlimit:10;stroke-width:5.70714;transform:matrix(.100115,0,0,.0998645,-20.497886,271.48396)}.b{fill:none;stroke:#bfbfbf;stroke-dasharray:11.4143,17.1214;stroke-linecap:round;stroke-miterlimit:10;stroke-width:5.70714;transform:matrix(.100115,0,0,.0998645,357.387142,271.48396)}.c{stroke-linecap:square;stroke-width:11.4143}.d{stroke-width:5.70714}.e{fill:none;stroke:#000;stroke-miterlimit:10;transform:matrix(.100115,0,0,.0998645,-20.497886,271.48396)}.f{fill:none;stroke:#000;stroke-miterlimit:10;transform:matrix(.100115,0,0,.0998645,357.387142,271.48396)}.g{fill:none;stroke:#bfbfbf;stroke-linecap:round;stroke-miterlimit:10;stroke-width:5.70714;transform:matrix(.100115,0,0,.0998645,-20.497886,271.48396)}.h{fill:none;stroke:#bfbfbf;stroke-linecap:round;stroke-miterlimit:10;stroke-width:5.70714;transform:matrix(.100115,0,0,.0998645,357.387142,271.48396)}</style></svg>