<svg xmlns="http://www.w3.org/2000/svg" width="252pt" height="116pt" viewBox="0 0 252 116"><defs><path d="M3.6406-9.0312C1.8125-7.84375.71875-5.796875.71875-3.234375c0 2.34375 1.140625 4.578125 2.875 5.78125L3.75 2.3438C2.09375.90625 1.8125-.484375 1.8125-3.28125 1.8125-6.0625 2.125-7.5 3.75-8.828125zm0 0" id="C"/><path d="M.5-9.0312l-.125.2031C2.015625-7.5 2.328125-6.0625 2.328125-3.28125c0 2.796875-.28125 4.1875-1.953125 5.625l.1563.2031c1.75-1.203125 2.890625-3.4375 2.890625-5.78125C3.421875-5.796875 2.3125-7.84375.5-9.03125zm0 0" id="D"/><path d="M.7813 2.4219h.6563L5.0157-8.8906h-.6719zm0 0" id="E"/><path d="M5.5625-4.375c0-2.625-.78125-3.859375-2.421875-3.859375-1.84375 0-2.796875 1.46875-2.796875 4.359375 0 1.40625.25 2.609375.671875 3.1875.421875.59375 1.09375.921875 1.828125.921875C4.65625.234375 5.5625-1.3125 5.5625-4.375zm-1.0156.5938C4.546875-1.234375 4.09375-.171875 3-.171875c-1.15625 0-1.65625-1.21875-1.65625-4.125 0-2.53125.453125-3.515625 1.578125-3.515625 1.171875 0 1.625 1.171875 1.625 4.03125zm0 0" id="e"/><use href="#a" id="F"/><path d="M3.1719-1.1875l-.125-.2187-.5312.375c-.359375.25-.59375.359375-.734375.359375-.09375 0-.15625-.09375-.15625-.234375 0-.3125.140625-1.25.515625-3.015625l.1563-.7344h1.2813l.125-.6094c-.4533.046875-.85955.078125-1.312675.078125.1875-1.125.328125-1.703125.53125-2.359375l-.125-.1719c-.234375.140625-.5625.28125-.9375.421875L1.5625-5.2656c-.515625.25-.828125.390625-1.046875.453125l-.0312.1563H1.5l-.6719 3.375c-.0625.296875-.15625.59375-.15625.90625 0 .296875.125.484375.359375.484375.421875 0 .828125-.234375 1.765625-1 .21875-.15625.140625-.109375.375-.296875zm0 0" id="G"/><path d="M5.8594-5.6562l-.1406-.1094c-.34375.140625-.609375.203125-.875.234375l-.4219 1.5781c-.140625.5625-.5625 1.4375-.953125 2.015625-.421875.609375-1 1.140625-1.265625 1.140625-.265625 0-.25-.578125-.234375-.734375l.1875-2.3125c.015625-.375.046875-.828125.046875-1.171875 0-.53125-.09375-.75-.296875-.75-.15625 0-.3125.09375-.890625.484375l-.9844.6719.1406.2031.5938-.3437c.0625-.0625.21875-.15625.296875-.15625.3125 0 .265625.609375.25.8125L1.1094-1.1875l-.0156.4688c0 .5.21875.84375.515625.84375.453125 0 1.453125-1.015625 2.34375-2.359375L3.375-.1875c-.609375 2.109375-1.21875 2.984375-2.046875 2.984375-.421875 0-.75-.328125-.75-.734375 0-.0625.015625-.15625.03125-.265625L.4844 1.75l-.5625.4063c-.015625.078125-.015625.15625-.015625.203125 0 .515625.4375.9375.984375.9375 1.265625 0 2.578125-1.484375 3.28125-3.6875zm0 0" id="f"/><path d="M5.3594-.9375l-.0937-.2344c-.4375.359375-.734375.53125-.921875.53125-.1875 0-.34375-.109375-.453125-.34375-.109375-.234375-.25-.671875-.3125-1.03125L3.375-3.2187l.4219-.5781c.546875-.78125.875-1.0625 1.25-1.0625.1875 0 .328125.109375.390625.28125L5.6094-4.625l.1719-1.0156c-.140625-.078125-.25-.125-.359375-.125-.46875 0-.953125.4375-1.6875 1.53125l-.4531.6563-.0625-.5625c-.140625-1.1875-.46875-1.625-1.171875-1.625-.3125 0-.578125.09375-.6875.25l-.6875 1L.875-4.4062c.359375-.40625.59375-.5625.828125-.5625.390625 0 .65625.484375.859375 1.65625l.125.75-.4687.7344c-.515625.796875-.921875 1.1875-1.265625 1.1875C.78125-.640625.640625-.6875.625-.75l-.1406-.3437-.2344.0468c0 .2344-.015625.39065-.09375.76565C.125-.125.125-.09375.109375-.015625.28125.078125.484375.125.625.125c.390625 0 .859375-.34375 1.234375-.90625l.9063-1.3906.125.8281C3.0625-.328125 3.328125.125 3.75.125c.265625 0 .65625-.203125 1.03125-.546875zm0 0" id="H"/><path d="M7.2969-1.2344l-.125-.0781c-1.125.6875-1.75.890625-2.671875.890625-1.890625 0-2.90625-1.140625-2.90625-3.265625 0-1.34375.40625-2.515625 1.125-3.25.5625-.578125 1.328125-.875 2.28125-.875.859375 0 1.46875.171875 2.140625.609375v1h.3125c.0625-.6875.15625-1.203125.328125-1.75-.921875-.34375-1.59375-.484375-2.328125-.484375-.984375 0-1.96875.296875-2.796875.859375-1.40625.9375-2.125 2.359375-2.125 4.1875 0 2.3125 1.28125 3.609375 3.5625 3.609375 1.156225 0 1.98435-.28125 3.0781-1.015625zm0 0" id="h"/><path d="M.7813-4.1406h6.4375v-.7187H.7813zm0 2.5313h6.4375v-.7032H.7813zm0 0" id="g"/><path d="M9.6563-5.1562v-.3281c-.390625.015625-.78125.03125-1.171875.03125-.390625 0-.78125-.015625-1.171875-.03125v.3281l.4063.0313c.328125.015625.46875.171875.46875.40625 0 .109375-.03125.234375-.078125.390625-.375 1.0625-.765625 2.125-1.171875 3.15625l-1.375-3.4687c-.171875-.40625-.25-.640625-.34375-.96875H4.9375L3.0313-1.25l-1-3.2969c-.015625-.09375-.046875-.171875-.046875-.265625 0-.1875.125-.296875.453125-.3125l.4844-.0312v-.3281c-.484375.015625-.953125.03125-1.421875.03125-.484375 0-.953125-.015625-1.421875-.03125v.3281L.4063-5.125c.328125.015625.484375.21875.78125 1.1875L2.4219.0781h.5469l1.1719-2.75c.21875-.5.625-1.328125.625-1.328125l1.625 4.0781h.5468L8.5781-4.0937c.34375-.84375.5-1.015625.765625-1.03125zm0 0" id="I"/><path d="M5.625.0313v-.3594l-.4687-.0156c-.28125-.015625-.328125-.109375-.328125-.703125v-2.1875c0-1.734375-.5-2.375-1.890625-2.375-.515625 0-.984375.140625-1.4375.40625L.8594-4.8125v.7656l.3125.0938.1563-.375c.234375-.5625.375-.640625.921875-.640625 1.125 0 1.59375.4375 1.625 1.53125l-1.1875.2031c-1.625.3125-2.3125.875-2.3125 1.90625 0 .9375.5625 1.46875 1.515625 1.46875.21875 0 .421875-.03125.5-.09375L3.875-.9844 3.8125.0313C4.125.015625 4.4375 0 4.75 0c.296875 0 .578125.015625.875.03125zm-1.75-1.5156c-.34375.5-1.109375.953125-1.5625.953125-.484375 0-.90625-.453125-.90625-.96875 0-.4375.25-.859375.609375-1.078125.296875-.1875.953125-.34375 1.859375-.484375zm0 0" id="J"/><path d="M6.4375-5.1562v-.3281c-.359375.015625-.75.03125-1.125.03125-.359375 0-.75-.015625-1.109375-.03125v.3281l.4844.0312c.203125.015625.296875.109375.296875.3125 0 .203125-.078125.46875-.234375.875l-.5 1.2656L3.5-1 2.0781-4.4531c-.0625-.140625-.09375-.28125-.09375-.40625 0-.15625.078125-.25.28125-.265625l.5938-.0312v-.3281c-.46875.015625-.9375.03125-1.40625.03125-.46875 0-.921875-.015625-1.375-.03125v.3281l.4063.0313c.203125.015625.25.109375.359375.390625l2.0625 4.8125H3.5c.078125-.39075.25-.76575.5-1.297l1.4063-3.1094c.265625-.609375.421875-.78125.671875-.796875zm0 0" id="K"/><path d="M5.3594-3.3281c0-1.375-.890625-2.28125-2.234375-2.28125-.4375 0-.953125.15625-1.4375.453125C.703125-4.609375.3125-3.859375.3125-2.625c0 .765625.171875 1.40625.5 1.859375.46875.640625 1.28125 1 2.171875 1 .453125 0 .890625-.09375 1.375-.3125.328125-.125.578125-.28125.625-.359375l.2344-.4062-.1562-.1094c-.765625.453125-1.03125.5625-1.546875.5625-.78125 0-1.421875-.34375-1.765625-.9375-.218825-.39065-.29695-.7344-.3282-1.4219h1.75C4-2.75 4.5-2.78125 5.328125-2.921875c.015625-.15625.03125-.265625.03125-.40625zm-1.0625.1406-1.3437.0313c-.546875 0-.859375-.015625-1.5-.078125 0-.5625.046875-.8125.203125-1.125.25-.53125.765625-.859375 1.328125-.859375.390625 0 .703125.15625.921875.484375.265625.390625.390625.734375.390625 1.546875zm0 0" id="i"/><path d="M4.0781-7.6562v-.9219c-.25-.09375-.390625-.125-.546875-.125-.390625 0-.8125.203125-1.0625.5l-.7031.7969c-.34375.390625-.5.921875-.5 1.71875v.5l-.8281.375v.2656l.8281-.0625v3.3906c0 .75-.03125.84375-.4375.859375l-.5469.0313V.0313C.78125.015625 1.265625 0 1.765625 0c.5 0 1 .015625 1.5.03125v-.3594l-.5469-.0312c-.406225-.01565-.4531-.1094-.4531-.8594v-3.3906H3.75l.0938-.625c-.53125.03125-1.046875.046875-1.578125.046875v-1.0156c0-1.375.15625-1.703125.84375-1.703125.328125 0 .53125.078125.828125.328125zm0 0" id="L"/><path d="M4.4688-5.4687c-.125-.09375-.34375-.140625-.5625-.140625-.359375 0-.734375.1875-.984375.5L2.25-4.3281v-1.2344l-.1094-.0469c-.609375.25-1.234375.421875-1.859375.5v.3281h.4375c.46875 0 .53125.078125.53125.875v2.6875c0 .75-.046875.84375-.453125.859375L.25-.3281v.3594C.734375.015625 1.234375 0 1.71875 0c.578125 0 1.140625.015625 1.71875.03125v-.3594l-.625-.0312C2.265625-.390625 2.25-.4375 2.25-1.21875v-2.0625c0-.71875.46875-1.3125 1.0625-1.3125.359375 0 .609375.171875.796875.546875h.25zm0 0" id="M"/><path d="M6.1406-2.8281c0-1.625-1.171875-2.78125-2.8125-2.78125C1.59375-5.609375.375-4.375.375-2.59375.375-.90625 1.453125.234375 2.984375.234375c1.84375 0 3.15625-1.28125 3.15625-3.0625zm-1.1094.4375c0 1.375-.609375 2.234375-1.578125 2.234375C2.28125-.15625 1.5-1.296875 1.5-3c0-1.4375.5625-2.21875 1.625-2.21875 1.09375 0 1.90625 1.203125 1.90625 2.828125zm0 0" id="j"/><path d="M6.8438.0313v-.3594l-.5-.0312c-.40625-.015625-.4375-.09375-.4375-.859375v-2.3125c0-1.390625-.65625-2.078125-2-2.078125-.4375 0-.6875.09375-.9375.296875l-.9062.7969V-5.5625l-.1094-.0469c-.609375.25-1.234375.421875-1.875.5v.3281h.4531c.46875 0 .515625.078125.515625.875v2.6875c0 .75-.03125.84375-.4375.859375l-.5312.0313V.0313C.5625.015625 1.0625 0 1.546875 0c.5 0 1 .015625 1.484375.03125v-.3594L2.5-.3594c-.40625-.0156-.4375-.10935-.4375-.85935V-3.75c0-.546875.78125-1.125 1.515625-1.125.796875 0 1.328125.59375 1.328125 1.515625V.0313c.3125-.015675.625-.0313.9375-.0313.34375 0 .65625.015625 1 .03125zm0 0" id="N"/><path d="M3.8125-5.2187l-1.6406.0781v-.4531c0-.5.046875-.9375.140625-1.703125l-.1562-.125c-.281325.171825-.6407.328075-1.0157.453075.046875.359375.046875.578125.046875.9375v.8438l-.9219.4219v.25l.9063-.0469v3.4375c0 .890625.390625 1.265625 1.3125 1.265625.28125 0 .5625-.0625.640625-.140625l.5625-.6406-.1562-.2031c-.296875.171875-.46875.234375-.703125.234375-.46875 0-.65625-.234375-.65625-.828125v-3.125h1.5313zm0 0" id="O"/><use href="#a" id="P"/><path d="M4.6719-1.7656c0-.375-.09375-.65625-.328125-.890625-.3125-.3125-.703125-.4375-1.765625-.640625-.96875-.1875-1.296875-.4375-1.296875-.984375 0-.59375.421875-.9375 1.140625-.9375.8125 0 1.421875.421875 1.421875.984375v.2813h.3281c.015625-.703125.03125-.984375.0625-1.359375-.640625-.203125-1.0625-.296875-1.5625-.296875-1.375 0-2.234375.65625-2.234375 1.734375 0 .578125.265625.984375.8125 1.234375.328125.140625.96875.328125 1.78125.515625.53125.109375.765625.375.765625.828125 0 .640625-.609375 1.09375-1.453125 1.09375-.875 0-1.5-.421875-1.5-1.015625v-.4844H.4844c0 .8125-.03125 1.171875-.125 1.65625.625.203125 1.09375.28125 1.640625.28125 1.5625 0 2.671875-.828125 2.671875-2zm0 0" id="U"/><path d="M3.2344.0313v-.3594l-.5469-.0313C2.28125-.375 2.25-.46875 2.25-1.21875v-7.3594l-.1094-.0937c-.53125.203125-.921875.296875-1.859375.4375v.3281H.9375c.21875 0 .3125.140625.3125.5v6.1875c0 .75-.046875.84375-.453125.859375L.25-.3281v.3594C.75.015625 1.25 0 1.75 0c.5 0 .984375.015625 1.484375.03125zm0 0" id="V"/><path d="M6.625-3.2344c0-1.328125-1.109375-2.375-2.484375-2.375-.453125 0-.875.125-1.0625.296875l-.9844.9063V-5.5625l-.1094-.0469C1.375-5.359375.75-5.1875.125-5.109375v.3281h.4375c.484375 0 .53125.078125.53125.875v6.0156c0 .75-.046875.828125-.453125.859375L.0938 3v.3594c.5-.03125 1-.03125 1.5-.03125.5 0 .984375 0 1.484375.03125V3l-.5469-.0312c-.40625-.03125-.4375-.109375-.4375-.859375V-.1562c.359375.21875.734375.296875 1.28125.296875.34375 0 .65625-.0625.84375-.1875L5.5781-.9375C6.0625-1.25 6.625-2.46875 6.625-3.234375zm-1.0469.4375c0 1.34375-.796875 2.328125-1.875 2.328125-.65625 0-1.140625-.21875-1.609375-.703125v-2.4843c0-.171875.0625-.296875.21875-.5.34375-.453125.828125-.671875 1.421875-.671875 1.125 0 1.84375.78125 1.84375 2.03125zm0 0" id="W"/><path d="M3.6563.0313v-.2656l-.4531-.0312c-.484375-.03125-.5625-.125-.5625-.578125v-5.2031l-.125-.0312c-.5625.296875-1.1875.5625-1.984375.84375l.0625.375h.0781c.390625-.1875.78125-.359375 1.15625-.515625.0625 0 .078125.078125.078125.28125v4.25c0 .453125-.09375.546875-.578125.578125l-.4844.0313V.0313C1.328125.015625 1.8125 0 2.28125 0c.46875 0 .921875.015625 1.375.03125zm0 0" id="Q"/><path d="M4.8594-3.625c-.0625-.125-.125-.265625-.203125-.40625H4.5625c-.125.609375-.515625 1.265625-.84375 1.78125l-.0469-.0312c.015625-.671875.1875-1.859375-.796875-1.859375C1.40625-4.140625.234375-2.125.234375-.8125c0 .515625.171875.953125.78125.953125.796875 0 1.59375-.703125 2.109375-1.28125l.0156.0156c.015625.296875-.046875 1.265625.40625 1.265625.40625 0 1-.609375 1.25-.875v-.0781L4.75-.8437h-.0625c-.171875.15625-.359375.359375-.609375.359375-.390625 0-.359375-1.125-.359375-1.40625C4.140625-2.4375 4.546875-3 4.859375-3.625zM3.1407-1.4375c-.375.453125-1.0625 1.1875-1.6875 1.1875-.46875 0-.5625-.375-.5625-.765625 0-.75.609375-2.8125 1.5625-2.8125.75 0 .6875 1.625.6875 2.140625zm0 0" id="R"/><clipPath id="k"><path d="M120 4h60v95h-60zm0 0"/></clipPath><clipPath id="l"><use href="#b"/></clipPath><clipPath id="m"><path d="M0 0h24v24H0zm0 0"/></clipPath><clipPath id="n"><path d="M0 0h24v24H0z"/></clipPath><g id="A" clip-path="url(#n)"><g clip-path="url(#m)"><use href="#c" style="fill:none;stroke-width:10;stroke-linecap:butt;stroke-linejoin:miter;stroke:#ededed;stroke-opacity:1;stroke-miterlimit:10;transform:scale(.1)"/></g></g><pattern id="S" patternUnits="userSpaceOnUse" width="24" height="24" viewBox="0 0 24 24" patternTransform="matrix(.999968 0 0 -.999968 20.228 116.537)"><use href="#A"/></pattern><clipPath id="o"><path d="M35 4h95v10H35zm0 0"/></clipPath><clipPath id="p"><use href="#d"/></clipPath><clipPath id="q"><path d="M0 0h24v24H0zm0 0"/></clipPath><clipPath id="r"><path d="M0 0h24v24H0z"/></clipPath><g id="B" clip-path="url(#r)"><g clip-path="url(#q)"><use href="#c" style="fill:none;stroke-width:10;stroke-linecap:butt;stroke-linejoin:miter;stroke:#d1d1d1;stroke-opacity:1;stroke-miterlimit:10;transform:scale(.1)"/></g></g><pattern id="T" patternUnits="userSpaceOnUse" width="24" height="24" viewBox="0 0 24 24" patternTransform="matrix(.999968 0 0 -.999968 20.228 116.537)"><use href="#B"/></pattern><clipPath id="s"><path d="M34 0h2v113h-2zm0 0"/></clipPath><clipPath id="t"><path d="M20.2266 116.5352h169v-118h-169zM34.4297-.6641h1.2578l2.0391 11.2813-2.6992-9-2.6992 9zm0 0" class="b"/></clipPath><clipPath id="u"><path d="M20.2266 0H51v24H20.2266zm0 0"/></clipPath><clipPath id="v"><path d="M21 98h163v2H21zm0 0"/></clipPath><clipPath id="w"><path d="M20.2266 116.5352h169v-118h-169zm163.9609-18.1993v1.2617l-11.3398 2.0391 9-2.6992-9-2.6992zm0 0" class="b"/></clipPath><clipPath id="x"><path d="M160 83h29.2266v32H160zm0 0"/></clipPath><clipPath id="y"><path d="M106 21h83v16h-83zm0 0"/></clipPath><clipPath id="z"><path d="M20.2266 116.5352h169v-118h-169zm86.2617-84.918.3594-.7187 10.2617 2.1602-9.3008-1.2617 7.0781 6.1797zm0 0" class="b"/></clipPath><path id="a" d="M2.6094-1.2969l-.1719-.1718c-.328125.109375-.53125.171875-1.171875.359375C1.1875-.203125.890625.578125.1875 1.71875l.1719.1406.4844-.2344c.96875-1.25 1.421875-2 1.765625-2.921875zm0 0"/><path id="b" d="M120.5273 13.4375l9-9h49.5v94.5zm0 0"/><path id="c" d="M10-10l240 240M-10 50l200 200M90-10l160 160m-260-20 120 120m60-260 80 80M-10 210l40 40"/><path id="d" d="M35.0273 4.4375h94.5l-9 9h-85.5zm0 0"/></defs><use fill="#fff" href="#b"/><g clip-path="url(#k)"><path d="M120.5273 98.9375h58.5v-94.5h-58.5zm0 0" fill="url(#S)" clip-path="url(#l)"/></g><use fill="#fff" href="#d"/><g clip-path="url(#o)"><path d="M35.0273 13.4375h94.5v-9h-94.5zm0 0" fill="url(#T)" clip-path="url(#p)"/></g><g fill-rule="evenodd"><path fill="#d0d0d0" d="M35.0273 98.9375v-90h90"/><path fill="#eee" d="M35.0273 98.9375l90-90h49.5v90zm0 0"/></g><g class="a"><path d="M147.993437 175.995l810 810"/><path stroke-dasharray="9,18" stroke-dashoffset="18" d="M957.993437 985.995l130.195313 130.820313"/></g><g clip-path="url(#s)"><g clip-path="url(#t)"><path d="M147.993437 40.995v1125" class="a"/></g></g><g clip-path="url(#u)"><path d="M121.00125 1059.198125l26.992187 90 26.992188-90" class="a"/></g><g clip-path="url(#v)"><g clip-path="url(#w)"><path d="M12.993437 175.995h1620" class="a"/></g></g><g clip-path="url(#x)"><path d="M1526.196562 202.987188l90-26.992188-90-26.992187" class="a"/></g><g clip-path="url(#y)"><g clip-path="url(#z)"><path d="M1677.993437 895.995l-1.210937.625-2.96875.585938-4.804688 1.210937-7.8125 1.796875-10.78125 2.382813-13.203125 3.007812-15.625 3.59375-18.59375 3.59375-19.804687 4.21875-20.976563 4.804688-21.015625 4.179687-21.601562 3.59375-20.976563 4.21875-20.429687 3.007813-19.179688 2.96875L1441.00125 941.62l-17.382813 1.171875-16.210937.625h-15.625l-14.375-.625-14.414063-1.796875-14.375-2.382812-14.414062-3.007813-14.414063-4.21875-14.375-5.390625-15-5.390625-15-6.601562-15-7.1875-15.625-7.8125-15-8.398438-15.585937-8.398437-15-9.023438-15-8.398437-15.585938-8.398438-14.414062-8.398437-15-7.773438-14.414063-7.226562-13.789062-6.601563-13.789063-5.390625-13.203125-5.390625-12.617187-4.21875-11.992188-2.96875-11.40625-2.421875-15-1.796875-14.375-1.210937-14.414062 1.210937-15 2.421875-15 2.96875-15.585938 4.804688-15.625 5.390625-15.585937 5.429687-15 5.976563-13.203125 6.015625-11.40625 4.804687-19.804688 8.984375" style="fill:none;stroke-width:4.5;stroke-linejoin:bevel;stroke:#000;stroke-miterlimit:10;transform:matrix(.1,0,0,-.1,20.228,116.537)"/></g></g><path d="M946.587187 785.604375l-70.78125 61.796875 93.007813-12.617187" style="fill:none;stroke-width:4.5;stroke:#000;stroke-miterlimit:10;transform:matrix(.1,0,0,-.1,20.228,116.537)"/><use x="4.741" y="112.397" href="#C"/><use x="8.8775" y="112.397" href="#e"/><use x="15.2138" y="112.397" href="#F"/><use x="20.4382" y="112.397" href="#e"/><use x="26.4158" y="112.397" href="#D"/><use x="25.85" y="13.395" href="#G"/><use x="89.253" y="112.397" href="#f"/><use x="99.1519" y="112.397" href="#g"/><use x="110.4735" y="112.397" href="#e"/><use x="170.4049" y="112.397" href="#H"/><use x=".403" y="53.896" href="#f"/><use x="10.3019" y="53.896" href="#g"/><use x="21.8626" y="53.896" href="#h"/><use x="116.253" y="62.896" href="#f"/><use x="126.1519" y="62.896" href="#g"/><use x="137.4735" y="62.896" href="#e"/><use x="51.775" y="31.395" href="#f"/><use x="61.6739" y="31.395" href="#g"/><use x="73.2346" y="31.395" href="#h"/><use x="147.551" y="40.396" href="#I"/><use x="157.163" y="40.396" href="#J"/><use x="162.7221" y="40.396" href="#K"/><use x="168.9986" y="40.396" href="#i"/><use x="174.7252" y="40.396" href="#L"/><use x="178.7063" y="40.396" href="#M"/><use x="183.4286" y="40.396" href="#j"/><use x="189.9561" y="40.396" href="#N"/><use x="196.914" y="40.396" href="#O"/><use x="200.8114" y="40.396" href="#P"/><use x="206.789" y="40.396" href="#U"/><use x="211.858" y="40.396" href="#V"/><use x="215.337" y="40.396" href="#j"/><use x="221.8645" y="40.396" href="#W"/><use x="229.0496" y="40.396" href="#i"/><use x="237.765" y="38.158" href="#Q"/><use x="240.82" y="40.396" href="#E"/><use x="246.203" y="40.396" href="#R"/><style>.a{fill:none;stroke:#000;stroke-miterlimit:10;stroke-width:9;transform:matrix(.1,0,0,-.1,20.228,116.537)}.b{clip-rule:evenodd}</style></svg>