<svg xmlns="http://www.w3.org/2000/svg" width="184pt" height="116pt" viewBox="0 0 184 116"><defs><path d="M3.6406-9.0312C1.8125-7.84375.71875-5.796875.71875-3.234375c0 2.34375 1.140625 4.578125 2.875 5.78125L3.75 2.3438C2.09375.90625 1.8125-.484375 1.8125-3.28125 1.8125-6.0625 2.125-7.5 3.75-8.828125zm0 0" id="n"/><path d="M.5-9.0312l-.125.2031C2.015625-7.5 2.328125-6.0625 2.328125-3.28125c0 2.796875-.28125 4.1875-1.953125 5.625l.1563.2031c1.75-1.203125 2.890625-3.4375 2.890625-5.78125C3.421875-5.796875 2.3125-7.84375.5-9.03125zm0 0" id="o"/><path d="M7.2188-2.875v-.7031H.7813v.7031zm0 0" id="p"/><path d="M5.5625-4.375c0-2.625-.78125-3.859375-2.421875-3.859375-1.84375 0-2.796875 1.46875-2.796875 4.359375 0 1.40625.25 2.609375.671875 3.1875.421875.59375 1.09375.921875 1.828125.921875C4.65625.234375 5.5625-1.3125 5.5625-4.375zm-1.0156.5938C4.546875-1.234375 4.09375-.171875 3-.171875c-1.15625 0-1.65625-1.21875-1.65625-4.125 0-2.53125.453125-3.515625 1.578125-3.515625 1.171875 0 1.625 1.171875 1.625 4.03125zm0 0" id="c"/><path d="M2.6094-1.2969l-.1719-.1718c-.328125.109375-.53125.171875-1.171875.359375C1.1875-.203125.890625.578125.1875 1.71875l.1719.1406.4844-.2344c.96875-1.25 1.421875-2 1.765625-2.921875zm0 0" id="q"/><path d="M3.1719-1.1875l-.125-.2187-.5312.375c-.359375.25-.59375.359375-.734375.359375-.09375 0-.15625-.09375-.15625-.234375 0-.3125.140625-1.25.515625-3.015625l.1563-.7344h1.2813l.125-.6094c-.4533.046875-.85955.078125-1.312675.078125.1875-1.125.328125-1.703125.53125-2.359375l-.125-.1719c-.234375.140625-.5625.28125-.9375.421875L1.5625-5.2656c-.515625.25-.828125.390625-1.046875.453125l-.0312.1563H1.5l-.6719 3.375c-.0625.296875-.15625.59375-.15625.90625 0 .296875.125.484375.359375.484375.421875 0 .828125-.234375 1.765625-1 .21875-.15625.140625-.109375.375-.296875zm0 0" id="r"/><path d="M5.8594-5.6562l-.1406-.1094c-.34375.140625-.609375.203125-.875.234375l-.4219 1.5781c-.140625.5625-.5625 1.4375-.953125 2.015625-.421875.609375-1 1.140625-1.265625 1.140625-.265625 0-.25-.578125-.234375-.734375l.1875-2.3125c.015625-.375.046875-.828125.046875-1.171875 0-.53125-.09375-.75-.296875-.75-.15625 0-.3125.09375-.890625.484375l-.9844.6719.1406.2031.5938-.3437c.0625-.0625.21875-.15625.296875-.15625.3125 0 .265625.609375.25.8125L1.1094-1.1875l-.0156.4688c0 .5.21875.84375.515625.84375.453125 0 1.453125-1.015625 2.34375-2.359375L3.375-.1875c-.609375 2.109375-1.21875 2.984375-2.046875 2.984375-.421875 0-.75-.328125-.75-.734375 0-.0625.015625-.15625.03125-.265625L.4844 1.75l-.5625.4063c-.015625.078125-.015625.15625-.015625.203125 0 .515625.4375.9375.984375.9375 1.265625 0 2.578125-1.484375 3.28125-3.6875zm0 0" id="b"/><path d="M5.3594-.9375l-.0937-.2344c-.4375.359375-.734375.53125-.921875.53125-.1875 0-.34375-.109375-.453125-.34375-.109375-.234375-.25-.671875-.3125-1.03125L3.375-3.2187l.4219-.5781c.546875-.78125.875-1.0625 1.25-1.0625.1875 0 .328125.109375.390625.28125L5.6094-4.625l.1719-1.0156c-.140625-.078125-.25-.125-.359375-.125-.46875 0-.953125.4375-1.6875 1.53125l-.4531.6563-.0625-.5625c-.140625-1.1875-.46875-1.625-1.171875-1.625-.3125 0-.578125.09375-.6875.25l-.6875 1L.875-4.4062c.359375-.40625.59375-.5625.828125-.5625.390625 0 .65625.484375.859375 1.65625l.125.75-.4687.7344c-.515625.796875-.921875 1.1875-1.265625 1.1875C.78125-.640625.640625-.6875.625-.75l-.1406-.3437-.2344.0468c0 .2344-.015625.39065-.09375.76565C.125-.125.125-.09375.109375-.015625.28125.078125.484375.125.625.125c.390625 0 .859375-.34375 1.234375-.90625l.9063-1.3906.125.8281C3.0625-.328125 3.328125.125 3.75.125c.265625 0 .65625-.203125 1.03125-.546875zm0 0" id="s"/><path d="M7.2969-1.2344l-.125-.0781c-1.125.6875-1.75.890625-2.671875.890625-1.890625 0-2.90625-1.140625-2.90625-3.265625 0-1.34375.40625-2.515625 1.125-3.25.5625-.578125 1.328125-.875 2.28125-.875.859375 0 1.46875.171875 2.140625.609375v1h.3125c.0625-.6875.15625-1.203125.328125-1.75-.921875-.34375-1.59375-.484375-2.328125-.484375-.984375 0-1.96875.296875-2.796875.859375-1.40625.9375-2.125 2.359375-2.125 4.1875 0 2.3125 1.28125 3.609375 3.5625 3.609375 1.156225 0 1.98435-.28125 3.0781-1.015625zm0 0" id="t"/><path d="M.7813-4.1406h6.4375v-.7187H.7813zm0 2.5313h6.4375v-.7032H.7813zm0 0" id="d"/><path d="M2.3281-.875l-.0937-.1562-.3906.2812c-.265625.1875-.4375.265625-.53125.265625-.078125 0-.125-.078125-.125-.1875 0-.21875.109375-.90625.375-2.203125l.125-.5469h.9375l.0938-.4375c-.328125.03125-.625.0625-.96875.0625.140625-.828125.234375-1.265625.390625-1.734375l-.0937-.125c-.171875.09375-.40625.203125-.671875.3125l-.2344 1.4844c-.375.1875-.609375.28125-.765625.328125l-.0156.1094h.7344L.6094-.9375c-.046875.21875-.125.4375-.125.671875 0 .21875.109375.34375.265625.34375.3125 0 .609375-.171875 1.296875-.734375.15625-.109375.109375-.078125.28125-.21875zm0 0" id="u"/><path d="M3.9375-.6875l-.0781-.1719c-.3125.265625-.53125.390625-.671875.390625-.140625 0-.25-.078125-.34375-.265625-.078125-.15625-.171875-.484375-.21875-.734375l-.1562-.8906.3125-.4219c.40625-.578125.640625-.78125.921875-.78125.140625 0 .234375.078125.28125.203125l.125-.0312.1406-.75c-.109375-.0625-.1875-.078125-.265625-.078125-.359375 0-.703125.3125-1.25 1.109375L2.4063-2.625l-.0469-.4219C2.25-3.90625 2.015625-4.21875 1.5-4.21875c-.234375 0-.421875.0625-.5.171875L.4844-3.3125l.1563.0938c.265625-.3125.4375-.421875.609375-.421875.28125 0 .484375.359375.625 1.21875l.0938.5313-.3437.5469c-.375.59375-.671875.875-.921875.875-.140625 0-.234375-.046875-.25-.078125l-.0937-.25-.1719.0313c0 .171875-.015625.28125-.078125.5625-.015825.1092-.015825.14045-.03145.187325.125.078125.265625.109375.375.109375.296875 0 .640625-.25.90625-.65625l.6719-1.0312.0938.6094C2.25-.25 2.4375.09375 2.75.09375c.1875 0 .46875-.140625.75-.40625zm0 0" id="v"/><path d="M6.6406-4.9375c-.109375-.171875-.1875-.375-.28125-.546875h-.125c-.171875.8125-.71875 1.71875-1.15625 2.40625l-.0625-.0312c0-.921875.25-2.546875-1.09375-2.546875-2.015625 0-3.59375 2.75-3.59375 4.546875C.328125-.390625.5625.1875 1.375.1875c1.09375 0 2.1875-.953125 2.875-1.75l.0469.0313c0 .390625-.078125 1.71875.53125 1.71875C5.390625.1875 6.1875-.640625 6.53125-1v-.0937l-.0625-.0625h-.0781c-.21875.21875-.5.5-.828125.5-.53125 0-.5-1.546875-.5-1.921875.59375-.75 1.125-1.515625 1.578125-2.359375zM4.2813-1.9531c-.5.609375-1.453125 1.625-2.3125 1.625-.625 0-.765625-.515625-.765625-1.046875 0-1.046875.84375-3.84375 2.140625-3.84375 1.03125 0 .9375 2.203125.9375 2.921875zm0 0" id="w"/><clipPath id="e"><path d="M34.9766 4.4375h144v94.5h-144zm0 0"/></clipPath><clipPath id="f"><path d="M0 0h24v24H0zm0 0"/></clipPath><clipPath id="g"><path d="M0 0h24v24H0z"/></clipPath><g id="m" clip-path="url(#g)"><g clip-path="url(#f)"><path d="M10-10l240 240M-10 50l200 200M90-10l160 160m-260-20 120 120m60-260 80 80M-10 210l40 40" style="fill:none;stroke-width:10;stroke-linecap:butt;stroke-linejoin:miter;stroke:#ededed;stroke-opacity:1;stroke-miterlimit:10;transform:scale(.1)"/></g></g><pattern id="x" patternUnits="userSpaceOnUse" width="24" height="24" viewBox="0 0 24 24" patternTransform="matrix(.999968 0 0 -.999968 20.178 116.537)"><use href="#m"/></pattern><clipPath id="h"><path d="M34 0h2v113h-2zm0 0"/></clipPath><clipPath id="i"><path clip-rule="evenodd" d="M20.1797 116.5352h165v-118h-165zM34.3789-.6641h1.2578l2.043 11.2813-2.7031-9-2.6992 9zm0 0"/></clipPath><clipPath id="j"><path d="M20.1797 0H51v24H20.1797zm0 0"/></clipPath><clipPath id="k"><path d="M21 98h163v2H21zm0 0"/></clipPath><clipPath id="l"><path clip-rule="evenodd" d="M20.1797 116.5352h165v-118h-165zm163.957-18.1992v1.2617l-11.3398 2.0391 9-2.6992-9-2.6992zm0 0"/></clipPath><path id="a" d="M34.9766 98.9375h144v-94.5h-144zm0 0"/></defs><use fill="#fff" href="#a"/><use href="#a" fill="url(#x)" clip-path="url(#e)"/><path fill-rule="evenodd" fill="#eee" d="M34.9766 98.9375h139.5v-90h-139.5zm0 0"/><g clip-path="url(#h)"><g clip-path="url(#i)"><path d="M147.985625 40.995v1125" class="a"/></g></g><g clip-path="url(#j)"><path d="M120.993438 1059.198125l26.992187 90 27.03125-90" class="a"/></g><g clip-path="url(#k)"><g clip-path="url(#l)"><path d="M12.985625 175.995h1620" class="a"/></g></g><path d="M1526.18875 202.987188l90-26.992188-90-26.992187" class="a"/><use x="4.691" y="112.397" href="#n"/><use x="8.8275" y="112.397" href="#c"/><use x="15.1638" y="112.397" href="#q"/><use x="20.3882" y="112.397" href="#c"/><use x="26.3658" y="112.397" href="#o"/><use x="25.8" y="13.395" href="#r"/><use x="89.203" y="112.397" href="#b"/><use x="99.1019" y="112.397" href="#d"/><use x="110.4235" y="112.397" href="#c"/><use x="170.3549" y="112.397" href="#s"/><use x="76.362" y="53.896" href="#b"/><use x="82.546" y="55.689" href="#u"/><use x="89.811" y="53.896" href="#d"/><use x="101.1326" y="53.896" href="#p"/><use x="109.4893" y="53.896" href="#w"/><use x="117.559" y="53.896" href="#b"/><use x="123.916" y="55.689" href="#v"/><use x=".353" y="53.896" href="#b"/><use x="10.2519" y="53.896" href="#d"/><use x="21.8126" y="53.896" href="#t"/><style>.a{fill:none;stroke:#000;stroke-miterlimit:10;stroke-width:9;transform:matrix(.1,0,0,-.1,20.178,116.537)}</style></svg>