<svg xmlns="http://www.w3.org/2000/svg" width="408pt" height="116pt" viewBox="0 0 408 116"><defs><path d="M3.6406-9.0312C1.8125-7.84375.71875-5.796875.71875-3.234375c0 2.34375 1.140625 4.578125 2.875 5.78125L3.75 2.3438C2.09375.90625 1.8125-.484375 1.8125-3.28125 1.8125-6.0625 2.125-7.5 3.75-8.828125zm0 0" id="f"/><path d="M.5-9.0312l-.125.2031C2.015625-7.5 2.328125-6.0625 2.328125-3.28125c0 2.796875-.28125 4.1875-1.953125 5.625l.1563.2031c1.75-1.203125 2.890625-3.4375 2.890625-5.78125C3.421875-5.796875 2.3125-7.84375.5-9.03125zm0 0" id="g"/><path d="M7.2188-2.875v-.7031H.7813v.7031zm0 0" id="M"/><path d="M7.2813-2.9062v-.6719H4.3438V-6.5h-.6563v2.9219H.75v.6719h2.9375V.0313h.6563v-2.9375zm0 0" id="N"/><path d="M5.5625-4.375c0-2.625-.78125-3.859375-2.421875-3.859375-1.84375 0-2.796875 1.46875-2.796875 4.359375 0 1.40625.25 2.609375.671875 3.1875.421875.59375 1.09375.921875 1.828125.921875C4.65625.234375 5.5625-1.3125 5.5625-4.375zm-1.0156.5938C4.546875-1.234375 4.09375-.171875 3-.171875c-1.15625 0-1.65625-1.21875-1.65625-4.125 0-2.53125.453125-3.515625 1.578125-3.515625 1.171875 0 1.625 1.171875 1.625 4.03125zm0 0" id="e"/><path d="M5 .0313v-.3594l-.625-.0312c-.65625-.03125-.78125-.171875-.78125-.78125v-7.0937l-.1562-.0625c-.78125.40625-1.625.765625-2.71875 1.15625l.0781.5h.125c.531225-.2345 1.04685-.468875 1.5781-.70325.0625 0 .09375.109375.09375.40625v5.7969c0 .609375-.125.75-.78125.78125l-.6719.0313V.0313C1.8125.015625 2.46875 0 3.125 0 3.734375 0 4.375.015625 5 .03125zm0 0" id="l"/><use href="#a" id="t"/><use href="#b" id="u"/><use href="#c" id="v"/><path d="M2.6094-1.2969l-.1719-.1718c-.328125.109375-.53125.171875-1.171875.359375C1.1875-.203125.890625.578125.1875 1.71875l.1719.1406.4844-.2344c.96875-1.25 1.421875-2 1.765625-2.921875zm0 0" id="p"/><path d="M3.1719-1.1875l-.125-.2187-.5312.375c-.359375.25-.59375.359375-.734375.359375-.09375 0-.15625-.09375-.15625-.234375 0-.3125.140625-1.25.515625-3.015625l.1563-.7344h1.2813l.125-.6094c-.4533.046875-.85955.078125-1.312675.078125.1875-1.125.328125-1.703125.53125-2.359375l-.125-.1719c-.234375.140625-.5625.28125-.9375.421875L1.5625-5.2656c-.515625.25-.828125.390625-1.046875.453125l-.0312.1563H1.5l-.6719 3.375c-.0625.296875-.15625.59375-.15625.90625 0 .296875.125.484375.359375.484375.421875 0 .828125-.234375 1.765625-1 .21875-.15625.140625-.109375.375-.296875zm0 0" id="q"/><path d="M5.8594-5.6562l-.1406-.1094c-.34375.140625-.609375.203125-.875.234375l-.4219 1.5781c-.140625.5625-.5625 1.4375-.953125 2.015625-.421875.609375-1 1.140625-1.265625 1.140625-.265625 0-.25-.578125-.234375-.734375l.1875-2.3125c.015625-.375.046875-.828125.046875-1.171875 0-.53125-.09375-.75-.296875-.75-.15625 0-.3125.09375-.890625.484375l-.9844.6719.1406.2031.5938-.3437c.0625-.0625.21875-.15625.296875-.15625.3125 0 .265625.609375.25.8125L1.1094-1.1875l-.0156.4688c0 .5.21875.84375.515625.84375.453125 0 1.453125-1.015625 2.34375-2.359375L3.375-.1875c-.609375 2.109375-1.21875 2.984375-2.046875 2.984375-.421875 0-.75-.328125-.75-.734375 0-.0625.015625-.15625.03125-.265625L.4844 1.75l-.5625.4063c-.015625.078125-.015625.15625-.015625.203125 0 .515625.4375.9375.984375.9375 1.265625 0 2.578125-1.484375 3.28125-3.6875zm0 0" id="h"/><path d="M5.3594-.9375l-.0937-.2344c-.4375.359375-.734375.53125-.921875.53125-.1875 0-.34375-.109375-.453125-.34375-.109375-.234375-.25-.671875-.3125-1.03125L3.375-3.2187l.4219-.5781c.546875-.78125.875-1.0625 1.25-1.0625.1875 0 .328125.109375.390625.28125L5.6094-4.625l.1719-1.0156c-.140625-.078125-.25-.125-.359375-.125-.46875 0-.953125.4375-1.6875 1.53125l-.4531.6563-.0625-.5625c-.140625-1.1875-.46875-1.625-1.171875-1.625-.3125 0-.578125.09375-.6875.25l-.6875 1L.875-4.4062c.359375-.40625.59375-.5625.828125-.5625.390625 0 .65625.484375.859375 1.65625l.125.75-.4687.7344c-.515625.796875-.921875 1.1875-1.265625 1.1875C.78125-.640625.640625-.6875.625-.75l-.1406-.3437-.2344.0468c0 .2344-.015625.39065-.09375.76565C.125-.125.125-.09375.109375-.015625.28125.078125.484375.125.625.125c.390625 0 .859375-.34375 1.234375-.90625l.9063-1.3906.125.8281C3.0625-.328125 3.328125.125 3.75.125c.265625 0 .65625-.203125 1.03125-.546875zm0 0" id="w"/><path d="M.7813-4.1406h6.4375v-.7187H.7813zm0 2.5313h6.4375v-.7032H.7813zm0 0" id="i"/><use href="#b" id="m"/><use href="#a" id="n"/><path d="M4.9375-.5469l-.125-.1875C4.375-.484375 4-.375 3.5625-.375c-1.328125 0-2.203125-1.03125-2.203125-2.609375 0-1.28125.59375-2 1.671875-2 .53125 0 1.109375.234375 1.3125.53125l.0938.7344h.3281c0-.546875.0625-1.03125.171875-1.46875-.484375-.28125-.890625-.421875-1.390625-.421875-.578125 0-1.234375.234375-1.953125.6875C.75-4.40625.3125-3.5625.3125-2.515625c0 1.625 1.140625 2.75 2.734375 2.75.625 0 1.515625-.21875 1.640625-.40625zm0 0" id="j"/><path d="M6.1406-2.8281c0-1.625-1.171875-2.78125-2.8125-2.78125C1.59375-5.609375.375-4.375.375-2.59375.375-.90625 1.453125.234375 2.984375.234375c1.84375 0 3.15625-1.28125 3.15625-3.0625zm-1.1094.4375c0 1.375-.609375 2.234375-1.578125 2.234375C2.28125-.15625 1.5-1.296875 1.5-3c0-1.4375.5625-2.21875 1.625-2.21875 1.09375 0 1.90625 1.203125 1.90625 2.828125zm0 0" id="x"/><use href="#c" id="r"/><path d="M3.8125-5.2187l-1.6406.0781v-.4531c0-.5.046875-.9375.140625-1.703125l-.1562-.125c-.281325.171825-.6407.328075-1.0157.453075.046875.359375.046875.578125.046875.9375v.8438l-.9219.4219v.25l.9063-.0469v3.4375c0 .890625.390625 1.265625 1.3125 1.265625.28125 0 .5625-.0625.640625-.140625l.5625-.6406-.1562-.2031c-.296875.171875-.46875.234375-.703125.234375-.46875 0-.65625-.234375-.65625-.828125v-3.125h1.5313zm0 0" id="k"/><path d="M5.625.0313v-.3594l-.4687-.0156c-.28125-.015625-.328125-.109375-.328125-.703125v-2.1875c0-1.734375-.5-2.375-1.890625-2.375-.515625 0-.984375.140625-1.4375.40625L.8594-4.8125v.7656l.3125.0938.1563-.375c.234375-.5625.375-.640625.921875-.640625 1.125 0 1.59375.4375 1.625 1.53125l-1.1875.2031c-1.625.3125-2.3125.875-2.3125 1.90625 0 .9375.5625 1.46875 1.515625 1.46875.21875 0 .421875-.03125.5-.09375L3.875-.9844 3.8125.0313C4.125.015625 4.4375 0 4.75 0c.296875 0 .578125.015625.875.03125zm-1.75-1.5156c-.34375.5-1.109375.953125-1.5625.953125-.484375 0-.90625-.453125-.90625-.96875 0-.4375.25-.859375.609375-1.078125.296875-.1875.953125-.34375 1.859375-.484375zm0 0" id="o"/><path d="M3.2344.0313v-.3594l-.5469-.0313C2.28125-.375 2.25-.46875 2.25-1.21875v-7.3594l-.1094-.0937c-.53125.203125-.921875.296875-1.859375.4375v.3281H.9375c.21875 0 .3125.140625.3125.5v6.1875c0 .75-.046875.84375-.453125.859375L.25-.3281v.3594C.75.015625 1.25 0 1.75 0c.5 0 .984375.015625 1.484375.03125zm0 0" id="O"/><path d="M6.5-5.0156l-.0469-.1406-1.7031.0468c-.4375-.359375-.859375-.5-1.453125-.5-.53125 0-1.140625.171875-1.625.453125C1-4.765625.65625-4.1875.65625-3.453125c0 .890625.546875 1.5 1.4375 1.59375l-.9531.7188c-.1094.18745-.1719.3437-.1719.515575 0 .34375.21875.53125.78125.703125l-1.0312.5625c-.171875.09375-.34375.53125-.34375.90625C.375 2.625 1.453125 3.375 2.96875 3.375 4.765625 3.375 6.1875 2.25 6.1875.78125c0-.859375-.5625-1.453125-1.40625-1.453125H2.875c-.625 0-.921875-.140625-.921875-.46875 0-.15625.109375-.28125.40625-.546875.078125-.0625.109375-.078125.15625-.125.109375 0 .1875.015625.28125.015625.515625 0 1.140625-.21875 1.640625-.5625.53125-.40625.796875-.875.796875-1.515625 0-.234375-.03125-.390625-.125-.640625h1.0938zm-2.2656 1.5c0 .78125-.5 1.3125-1.234375 1.3125-.796875 0-1.34375-.625-1.34375-1.53125 0-.921875.453125-1.46875 1.21875-1.46875.8125 0 1.359375.671875 1.359375 1.6875zM5.25 1.2188c0 1.03125-.953125 1.796875-2.203125 1.796875-1.03125 0-1.75-.609375-1.75-1.5 0-.53125.3125-1.015625.78125-1.234375.1875-.078125.53125-.109375 1.359375-.109375C4.78125.171875 5.25.4375 5.25 1.21875zm0 0" id="P"/><path d="M6.8438.0313v-.3594l-.5-.0312c-.40625-.015625-.4375-.09375-.4375-.859375v-2.3125c0-1.390625-.65625-2.078125-2-2.078125-.4375 0-.6875.09375-.9375.296875l-.9062.7969v-4.0625l-.1094-.0937c-.53125.203125-.921875.296875-1.875.4375v.3281H.75c.21875 0 .296875.140625.296875.5v6.1875c0 .75-.03125.84375-.4375.859375l-.5312.0313V.0313C.5625.015625 1.0625 0 1.546875 0c.5 0 1 .015625 1.484375.03125v-.3594L2.5-.3594c-.40625-.0156-.4375-.10935-.4375-.85935V-3.75c0-.546875.78125-1.125 1.515625-1.125.796875 0 1.328125.59375 1.328125 1.515625V.0313c.3125-.015675.625-.0313.9375-.0313.34375 0 .65625.015625 1 .03125zm0 0" id="y"/><path d="M4.4688-5.4687c-.125-.09375-.34375-.140625-.5625-.140625-.359375 0-.734375.1875-.984375.5L2.25-4.3281v-1.2344l-.1094-.0469c-.609375.25-1.234375.421875-1.859375.5v.3281h.4375c.46875 0 .53125.078125.53125.875v2.6875c0 .75-.046875.84375-.453125.859375L.25-.3281v.3594C.734375.015625 1.234375 0 1.71875 0c.578125 0 1.140625.015625 1.71875.03125v-.3594l-.625-.0312C2.265625-.390625 2.25-.4375 2.25-1.21875v-2.0625c0-.71875.46875-1.3125 1.0625-1.3125.359375 0 .609375.171875.796875.546875h.25zm0 0" id="s"/><path d="M5.3594-3.3281c0-1.375-.890625-2.28125-2.234375-2.28125-.4375 0-.953125.15625-1.4375.453125C.703125-4.609375.3125-3.859375.3125-2.625c0 .765625.171875 1.40625.5 1.859375.46875.640625 1.28125 1 2.171875 1 .453125 0 .890625-.09375 1.375-.3125.328125-.125.578125-.28125.625-.359375l.2344-.4062-.1562-.1094c-.765625.453125-1.03125.5625-1.546875.5625-.78125 0-1.421875-.34375-1.765625-.9375-.218825-.39065-.29695-.7344-.3282-1.4219h1.75C4-2.75 4.5-2.78125 5.328125-2.921875c.015625-.15625.03125-.265625.03125-.40625zm-1.0625.1406-1.3437.0313c-.546875 0-.859375-.015625-1.5-.078125 0-.5625.046875-.8125.203125-1.125.25-.53125.765625-.859375 1.328125-.859375.390625 0 .703125.15625.921875.484375.265625.390625.390625.734375.390625 1.546875zm0 0" id="z"/><path d="M6.9375.0313v-.3594l-.4844-.0312c-.40625-.015625-.4375-.09375-.4375-.859375V-5.5625l-.1094-.0469c-.609375.25-1.234375.421875-1.859375.5v.3281h.4375c.46875 0 .53125.078125.53125.875v1.9531c0 .25-.171875.59375-.453125.859375-.328125.34375-.71875.515625-1.1875.515625-.40625 0-.75-.140625-.9375-.359375-.171875-.203125-.25-.5625-.25-1.09375V-5.5625l-.1094-.0469c-.609375.25-1.234375.421875-1.859375.5v.3281h.4375c.484375 0 .53125.078125.53125.875v2c0 .84375.0625 1.21875.28125 1.515625.265625.359375.71875.53125 1.40625.53125.53125 0 1.015625-.171875 1.328125-.46875l.8125-.7344c0 .34375-.015625.53125-.0625 1.09375C5.296875.015625 5.625 0 5.953125 0c.328125 0 .65625.015625.984375.03125zm0 0" id="R"/><path d="M6.4375-5.1562v-.3281c-.359375.015625-.75.03125-1.125.03125-.359375 0-.75-.015625-1.109375-.03125v.3281l.4844.0312c.203125.015625.296875.109375.296875.3125 0 .203125-.078125.46875-.234375.875l-.5 1.2656L3.5-1 2.0781-4.4531c-.0625-.140625-.09375-.28125-.09375-.40625 0-.15625.078125-.25.28125-.265625l.5938-.0312v-.3281c-.46875.015625-.9375.03125-1.40625.03125-.46875 0-.921875-.015625-1.375-.03125v.3281l.4063.0313c.203125.015625.25.109375.359375.390625l2.0625 4.8125H3.5c.078125-.39075.25-.76575.5-1.297l1.4063-3.1094c.265625-.609375.421875-.78125.671875-.796875zm0 0" id="S"/><clipPath id="A"><path d="M136.2461 4.4375h144v94.5h-144zm0 0"/></clipPath><clipPath id="B"><path d="M0 0h24v24H0zm0 0"/></clipPath><clipPath id="C"><path d="M0 0h24v24H0z"/></clipPath><g id="L" clip-path="url(#C)"><g clip-path="url(#B)"><path d="M10-10l240 240M-10 50l200 200M90-10l160 160m-260-20 120 120m60-260 80 80M-10 210l40 40" style="fill:none;stroke-width:10;stroke-linecap:butt;stroke-linejoin:miter;stroke:#ededed;stroke-opacity:1;stroke-miterlimit:10;transform:scale(.1)"/></g></g><pattern id="Q" patternUnits="userSpaceOnUse" width="24" height="24" viewBox="0 0 24 24" patternTransform="matrix(.999968 0 0 -.999968 76.847 116.537)"><use href="#L"/></pattern><clipPath id="D"><path d="M212 79h91v16h-91zm0 0"/></clipPath><clipPath id="E"><path d="M76.8477 116.5352h232v-118h-232zm135.8398-21.5-.5391-.6602 5.6992-6.5977-4.3203 6 6.6602-3.2422zm0 0" class="a"/></clipPath><clipPath id="F"><path d="M82 23h50v5H82zm0 0"/></clipPath><clipPath id="G"><path d="M76.8477 116.5352h232v-118h-232zm55.3789-89.957-.1211.8398-8.7578-.0625 7.4375-.5977-6.8398-2.9414zm0 0" class="a"/></clipPath><clipPath id="H"><path d="M135 0h2v113h-2zm0 0"/></clipPath><clipPath id="I"><path d="M76.8477 116.5352h232v-118h-232zM135.6484-.6641h1.2578l2.0391 11.2813-2.6992-9-2.6992 9zm0 0" class="a"/></clipPath><clipPath id="J"><path d="M122 98h164v2H122zm0 0"/></clipPath><clipPath id="K"><path d="M76.8477 116.5352h232v-118h-232zm208.5586-18.1993v1.2617l-11.3398 2.0391 9-2.6992-9-2.6992zm0 0" class="a"/></clipPath><path id="a" d="M4.6719-1.7656c0-.375-.09375-.65625-.328125-.890625-.3125-.3125-.703125-.4375-1.765625-.640625-.96875-.1875-1.296875-.4375-1.296875-.984375 0-.59375.421875-.9375 1.140625-.9375.8125 0 1.421875.421875 1.421875.984375v.2813h.3281c.015625-.703125.03125-.984375.0625-1.359375-.640625-.203125-1.0625-.296875-1.5625-.296875-1.375 0-2.234375.65625-2.234375 1.734375 0 .578125.265625.984375.8125 1.234375.328125.140625.96875.328125 1.78125.515625.53125.109375.765625.375.765625.828125 0 .640625-.609375 1.09375-1.453125 1.09375-.875 0-1.5-.421875-1.5-1.015625v-.4844H.4844c0 .8125-.03125 1.171875-.125 1.65625.625.203125 1.09375.28125 1.640625.28125 1.5625 0 2.671875-.828125 2.671875-2zm0 0"/><path id="b" d="M3.2344.0313v-.3594l-.5469-.0313C2.28125-.375 2.25-.46875 2.25-1.21875V-5.5625l-.1094-.0469c-.609375.25-1.234375.421875-1.859375.5v.3281h.4375c.46875 0 .53125.078125.53125.875v2.6875c0 .75-.046875.84375-.453125.859375L.25-.3281v.3594C.75.015625 1.25 0 1.75 0c.5 0 .984375.015625 1.484375.03125zm-.8906-7.6407c0-.34375-.234375-.609375-.59375-.609375-.359375 0-.609375.25-.609375.609375 0 .359375.25.59375.609375.59375.359375 0 .59375-.234375.59375-.59375zm0 0"/><path id="c" d="M6.8438.0313v-.3594l-.5-.0312c-.40625-.015625-.4375-.09375-.4375-.859375v-2.3125c0-1.390625-.65625-2.078125-2-2.078125-.4375 0-.6875.09375-.9375.296875l-.9062.7969V-5.5625l-.1094-.0469c-.609375.25-1.234375.421875-1.875.5v.3281h.4531c.46875 0 .515625.078125.515625.875v2.6875c0 .75-.03125.84375-.4375.859375l-.5312.0313V.0313C.5625.015625 1.0625 0 1.546875 0c.5 0 1 .015625 1.484375.03125v-.3594L2.5-.3594c-.40625-.0156-.4375-.10935-.4375-.85935V-3.75c0-.546875.78125-1.125 1.515625-1.125.796875 0 1.328125.59375 1.328125 1.515625V.0313c.3125-.015675.625-.0313.9375-.0313.34375 0 .65625.015625 1 .03125zm0 0"/><path id="d" d="M136.2461 98.9375h144v-94.5h-144zm0 0"/></defs><use fill="#fff" href="#d"/><use href="#d" fill="url(#Q)" clip-path="url(#A)"/><g fill-rule="evenodd"><path fill="#eee" d="M136.2461 98.9375h139.5v-90h-139.5zm0 0"/><path d="M138.4063 26.9375c0 1.191406-.964844 2.160156-2.160156 2.160156-1.191406 0-2.160156-.96875-2.160156-2.160156 0-1.191406.96875-2.160156 2.160156-2.160156 1.195312 0 2.160156.96875 2.160156 2.160156"/></g><path d="M615.5925 895.995c0-11.914062-9.648438-21.601562-21.601563-21.601562-11.914062 0-21.601562 9.6875-21.601562 21.601562 0 11.914063 9.6875 21.601563 21.601562 21.601563 11.953125 0 21.601563-9.6875 21.601563-21.601563zm0 0" class="c"/><path fill-rule="evenodd" d="M210.4063 98.9375c0 1.191406-.964844 2.160156-2.160156 2.160156-1.191406 0-2.160156-.96875-2.160156-2.160156 0-1.191406.96875-2.160156 2.160156-2.160156 1.195312 0 2.160156.96875 2.160156 2.160156"/><g style="fill:none;stroke:#000;stroke-miterlimit:10;transform:matrix(.1,0,0,-.1,76.847,116.537)"><path stroke-width="4.5" d="M1335.5925 175.995c0-11.914062-9.648438-21.601562-21.601563-21.601562-11.914062 0-21.601562 9.6875-21.601562 21.601562 0 11.914063 9.6875 21.601563 21.601562 21.601563 11.953125 0 21.601563-9.6875 21.601563-21.601563zm0 0"/><path stroke-width="9" d="M593.990937 895.995l720-720"/></g><g clip-path="url(#D)"><g clip-path="url(#E)"><path d="M2258.990937 355.995h-4.179687l-6.015625.625-8.398438.585938-12.578125.585937-15.625.625-19.179687 1.171875-22.8125.625-25.820313 1.171875-28.164062 1.796875-30 1.210938-62.421875 2.421875-31.796875 1.171875-31.210938 1.210937-30.585937 1.210938-28.789063.585937-28.203125.625-26.40625.585938-25.195312.585937h-45.625l-20.390625-.585937h-19.179688L1718.405 371.62l-17.421875-1.210937-15.585938-.625-15-1.171875-14.414062-1.796875-13.789063-1.210938-13.203125-2.421875-18.007812-2.96875-17.382813-3.007812-16.796875-4.21875-15.585937-4.804688-15.625-5.390625-15-5.976562-15.585938-7.226563-15-7.773437-15.625-9.023438-15.585937-9.609375-15.585938-10.195312-15.625-10.78125-15.585937-10.820313-14.414063-10.78125-13.203125-10.195312-11.367187-9.023438-9.023438-7.773437-15-12.617188" class="d"/></g></g><path d="M1433.405 260.018438l-66.601563-32.421875 43.203125 60" class="c"/><g clip-path="url(#F)"><g clip-path="url(#G)"><path d="M53.990937 895.995h.625l1.796875.625 4.804688.585938 8.398437 1.796875 12.578125 1.796875 15.625 3.007812 17.382813 3.007813 19.179687 2.96875 19.21875 3.007812 18.007813 3.007813 18.007812 2.382812 16.171875 2.421875 15 1.796875 14.414063 1.210938 13.203125 1.171875 13.203125.625 12.578125.585937h24.023437l11.40625-.585937 11.992188-.625 12.578125-.585938 13.828125-1.210937 14.375-1.171875 15.625-1.796875 17.382812-2.421875 18.007813-1.796875 19.179687-3.007813 19.804688-2.382812 19.804687-3.007813 19.21875-3.007812 17.382813-2.382813 15-1.796875 25.195312-4.21875" class="d"/></g></g><path d="M470.983125 927.205938l68.398437-29.414063-74.375-5.976562" class="c"/><g clip-path="url(#H)"><g clip-path="url(#I)"><path d="M593.990937 40.995v1125" class="b"/></g></g><path d="M566.99875 1059.198125l26.992187 90 26.992188-90" class="b"/><g clip-path="url(#J)"><g clip-path="url(#K)"><path d="M458.990937 175.995h1620" class="b"/></g></g><path d="M1972.194062 202.987188l90-26.992188-90-26.992187" class="b"/><use x="105.941" y="112.397" href="#f"/><use x="110.0775" y="112.397" href="#e"/><use x="116.4138" y="112.397" href="#p"/><use x="121.6382" y="112.397" href="#e"/><use x="127.6158" y="112.397" href="#g"/><use x="127.05" y="13.395" href="#q"/><use x="190.453" y="112.397" href="#h"/><use x="200.3519" y="112.397" href="#i"/><use x="211.6735" y="112.397" href="#e"/><use x="271.6049" y="112.397" href="#w"/><use x="154.369" y="40.396" href="#q"/><use x="162.3909" y="40.396" href="#i"/><use x="173.7125" y="40.396" href="#M"/><use x="182.0692" y="40.396" href="#w"/><use x="191.2986" y="40.396" href="#N"/><use x="201.9507" y="40.396" href="#l"/><use x="181.847" y="62.896" href="#h"/><use x="191.4112" y="62.896" href="#m"/><use x="194.8901" y="62.896" href="#n"/><use x="202.9479" y="62.896" href="#j"/><use x="208.256" y="62.896" href="#x"/><use x="214.7836" y="62.896" href="#r"/><use x="221.7415" y="62.896" href="#n"/><use x="226.6312" y="62.896" href="#k"/><use x="230.5286" y="62.896" href="#o"/><use x="236.5062" y="62.896" href="#r"/><use x="243.4641" y="62.896" href="#k"/><use x="250.3503" y="62.896" href="#o"/><use x="256.3279" y="62.896" href="#O"/><use x="259.8069" y="62.896" href="#x"/><use x="266.3344" y="62.896" href="#r"/><use x="273.2923" y="62.896" href="#P"/><use x="282.9282" y="62.896" href="#k"/><use x="287.0049" y="62.896" href="#y"/><use x="293.9629" y="62.896" href="#m"/><use x="297.4418" y="62.896" href="#n"/><use x="305.4996" y="62.896" href="#j"/><use x="310.8077" y="62.896" href="#y"/><use x="317.7657" y="62.896" href="#o"/><use x="323.7433" y="62.896" href="#s"/><use x="328.2862" y="62.896" href="#o"/><use x="334.2638" y="62.896" href="#j"/><use x="339.572" y="62.896" href="#k"/><use x="343.4693" y="62.896" href="#z"/><use x="349.1959" y="62.896" href="#s"/><use x="353.9182" y="62.896" href="#m"/><use x="357.3972" y="62.896" href="#n"/><use x="362.2868" y="62.896" href="#k"/><use x="366.1842" y="62.896" href="#m"/><use x="369.6632" y="62.896" href="#j"/><use x="377.9601" y="62.896" href="#j"/><use x="383.2682" y="62.896" href="#R"/><use x="390.4772" y="62.896" href="#s"/><use x="395.4386" y="62.896" href="#S"/><use x="401.7151" y="62.896" href="#z"/><use x=".969" y="31.395" href="#h"/><use x="7.5444" y="31.395" href="#f"/><use x="11.6809" y="31.395" href="#e"/><use x="18.0171" y="31.395" href="#p"/><use x="23.2415" y="31.395" href="#l"/><use x="29.2191" y="31.395" href="#g"/><use x="36.6672" y="31.395" href="#i"/><use x="47.9888" y="31.395" href="#t"/><use x="53.0578" y="31.395" href="#u"/><use x="56.5368" y="31.395" href="#v"/><use x="63.4947" y="31.395" href="#f"/><use x="67.6312" y="31.395" href="#l"/><use x="73.6088" y="31.395" href="#g"/><use x="307.85" y="85.397" href="#h"/><use x="314.4254" y="85.397" href="#f"/><use x="318.5619" y="85.397" href="#l"/><use x="324.8981" y="85.397" href="#p"/><use x="330.1225" y="85.397" href="#e"/><use x="336.1001" y="85.397" href="#g"/><use x="343.5482" y="85.397" href="#i"/><use x="354.8698" y="85.397" href="#e"/><use x="81.937" y="58.396" href="#h"/><use x="91.8359" y="58.396" href="#i"/><use x="103.1575" y="58.396" href="#t"/><use x="108.2265" y="58.396" href="#u"/><use x="111.7054" y="58.396" href="#v"/><use x="118.6634" y="58.396" href="#f"/><use x="122.9194" y="58.396" href="#q"/><use x="127.6178" y="58.396" href="#g"/><style>.a{clip-rule:evenodd}.b{fill:none;stroke:#000;stroke-miterlimit:10;stroke-width:9;transform:matrix(.1,0,0,-.1,76.847,116.537)}.c{fill:none;stroke:#000;stroke-miterlimit:10;stroke-width:4.5;transform:matrix(.1,0,0,-.1,76.847,116.537)}.d{fill:none;stroke:#000;stroke-linejoin:bevel;stroke-miterlimit:10;stroke-width:4.5;transform:matrix(.1,0,0,-.1,76.847,116.537)}</style></svg>