<svg xmlns="http://www.w3.org/2000/svg" width="281pt" height="81pt" viewBox="0 0 281 81"><defs><path d="M5.5625-4.375c0-2.625-.78125-3.859375-2.421875-3.859375-1.84375 0-2.796875 1.46875-2.796875 4.359375 0 1.40625.25 2.609375.671875 3.1875.421875.59375 1.09375.921875 1.828125.921875C4.65625.234375 5.5625-1.3125 5.5625-4.375zm-1.0156.59375C4.546875-1.234375 4.09375-.171875 3-.171875c-1.15625 0-1.65625-1.21875-1.65625-4.125 0-2.53125.453125-3.515625 1.578125-3.515625 1.171875 0 1.625 1.171875 1.625 4.03125zm0 0" id="l"/><path d="M3.2344.03125v-.35937l-.5469-.03125C2.28125-.375 2.25-.46875 2.25-1.21875V-5.5625l-.1094-.04687c-.609375.25-1.234375.421875-1.859375.5v.32813h.4375c.46875 0 .53125.078125.53125.875v2.6875c0 .75-.046875.84375-.453125.859375L.25-.32812v.35937C.75.015625 1.25 0 1.75 0c.5 0 .984375.015625 1.484375.03125zm-.8906-7.64062c0-.34375-.234375-.609375-.59375-.609375-.359375 0-.609375.25-.609375.609375 0 .359375.25.59375.609375.59375.359375 0 .59375-.234375.59375-.59375zm0 0" id="c"/><path d="M6.8438.03125v-.35937l-.5-.03125c-.40625-.015625-.4375-.09375-.4375-.859375v-2.3125c0-1.390625-.65625-2.078125-2-2.078125-.4375 0-.6875.09375-.9375.296875l-.9062.79688V-5.5625l-.1094-.04687c-.609375.25-1.234375.421875-1.875.5v.32813h.4531c.46875 0 .515625.078125.515625.875v2.6875c0 .75-.03125.84375-.4375.859375l-.5312.03125V.03125C.5625.015625 1.0625 0 1.546875 0c.5 0 1 .015625 1.484375.03125v-.35937L2.5-.35937c-.40625-.01563-.4375-.10938-.4375-.85938V-3.75c0-.546875.78125-1.125 1.515625-1.125.796875 0 1.328125.59375 1.328125 1.515625V.03125C5.21875.015625 5.53125 0 5.84375 0c.34375 0 .65625.015625 1 .03125zm0 0" id="d"/><path d="M4.6719-1.76562c0-.375-.09375-.65625-.328125-.890625-.3125-.3125-.703125-.4375-1.765625-.640625-.96875-.1875-1.296875-.4375-1.296875-.984375 0-.59375.421875-.9375 1.140625-.9375.8125 0 1.421875.421875 1.421875.984375v.28125h.3281c.015625-.703125.03125-.984375.0625-1.359375-.640625-.203125-1.0625-.296875-1.5625-.296875-1.375 0-2.234375.65625-2.234375 1.734375 0 .578125.265625.984375.8125 1.234375.328125.140625.96875.328125 1.78125.515625.53125.109375.765625.375.765625.828125 0 .640625-.609375 1.09375-1.453125 1.09375-.875 0-1.5-.421875-1.5-1.015625v-.48437H.4844c0 .8125-.03125 1.171875-.125 1.65625.625.203125 1.09375.28125 1.640625.28125 1.5625 0 2.671875-.828125 2.671875-2zm0 0" id="m"/><path d="M6.9375.03125v-.35937l-.4844-.03125c-.40625-.015625-.4375-.09375-.4375-.859375V-5.5625l-.1094-.04687c-.609375.25-1.234375.421875-1.859375.5v.32813h.4375c.46875 0 .53125.078125.53125.875v1.95313c0 .25-.171875.59375-.453125.859375-.328125.34375-.71875.515625-1.1875.515625-.40625 0-.75-.140625-.9375-.359375-.171875-.203125-.25-.5625-.25-1.09375V-5.5625l-.1094-.04687c-.609375.25-1.234375.421875-1.859375.5v.32813h.4375c.484375 0 .53125.078125.53125.875v2c0 .84375.0625 1.21875.28125 1.515625.265625.359375.71875.53125 1.40625.53125.53125 0 1.015625-.171875 1.328125-.46875l.8125-.73437c0 .34375-.015625.53125-.0625 1.09375C5.296875.015625 5.625 0 5.953125 0c.328125 0 .65625.015625.984375.03125zm0 0" id="e"/><path d="M3.2344.03125v-.35937l-.5469-.03125C2.28125-.375 2.25-.46875 2.25-1.21875v-7.35937l-.1094-.09375c-.53125.203125-.921875.296875-1.859375.4375v.32813H.9375c.21875 0 .3125.140625.3125.5v6.1875c0 .75-.046875.84375-.453125.859375L.25-.32812v.35937C.75.015625 1.25 0 1.75 0c.5 0 .984375.015625 1.484375.03125zm0 0" id="n"/><path d="M5.625.03125v-.35937l-.4687-.01563c-.28125-.015625-.328125-.109375-.328125-.703125v-2.1875c0-1.734375-.5-2.375-1.890625-2.375-.515625 0-.984375.140625-1.4375.40625L.8594-4.8125v.76563l.3125.09375.1563-.375c.234375-.5625.375-.640625.921875-.640625 1.125 0 1.59375.4375 1.625 1.53125l-1.1875.20313c-1.625.3125-2.3125.875-2.3125 1.90625 0 .9375.5625 1.46875 1.515625 1.46875.21875 0 .421875-.03125.5-.09375L3.875-.98437 3.8125.03125C4.125.015625 4.4375 0 4.75 0c.296875 0 .578125.015625.875.03125zm-1.75-1.51562c-.34375.5-1.109375.953125-1.5625.953125-.484375 0-.90625-.453125-.90625-.96875 0-.4375.25-.859375.609375-1.078125.296875-.1875.953125-.34375 1.859375-.484375zm0 0" id="f"/><path d="M3.8125-5.21875l-1.6406.07813v-.45312c0-.5.046875-.9375.140625-1.703125l-.1562-.125c-.281325.171865-.6407.328115-1.0157.453115.046875.359375.046875.578125.046875.9375v.84375l-.9219.42188v.25l.9063-.04687v3.4375c0 .890625.390625 1.265625 1.3125 1.265625.28125 0 .5625-.0625.640625-.140625l.5625-.64062-.1562-.20312c-.296875.171875-.46875.234375-.703125.234375-.46875 0-.65625-.234375-.65625-.828125v-3.125h1.5313zm0 0" id="a"/><path d="M6.1406-2.82812c0-1.625-1.171875-2.78125-2.8125-2.78125C1.59375-5.609375.375-4.375.375-2.59375.375-.90625 1.453125.234375 2.984375.234375c1.84375 0 3.15625-1.28125 3.15625-3.0625zm-1.1094.4375c0 1.375-.609375 2.234375-1.578125 2.234375C2.28125-.15625 1.5-1.296875 1.5-3c0-1.4375.5625-2.21875 1.625-2.21875 1.09375 0 1.90625 1.203125 1.90625 2.828125zm0 0" id="o"/><path d="M5.3594-3.32812c0-1.375-.890625-2.28125-2.234375-2.28125-.4375 0-.953125.15625-1.4375.453125C.703125-4.609375.3125-3.859375.3125-2.625c0 .765625.171875 1.40625.5 1.859375.46875.640625 1.28125 1 2.171875 1 .453125 0 .890625-.09375 1.375-.3125.328125-.125.578125-.28125.625-.359375l.2344-.40625-.1562-.10937c-.765625.453125-1.03125.5625-1.546875.5625-.78125 0-1.421875-.34375-1.765625-.9375-.218825-.39063-.29695-.73438-.3282-1.42188h1.75C4-2.75 4.5-2.78125 5.328125-2.921875c.015625-.15625.03125-.265625.03125-.40625zm-1.0625.14063-1.3437.03125c-.546875 0-.859375-.015625-1.5-.078125 0-.5625.046875-.8125.203125-1.125.25-.53125.765625-.859375 1.328125-.859375.390625 0 .703125.15625.921875.484375.265625.390625.390625.734375.390625 1.546875zm0 0" id="b"/><path d="M10.3906.03125v-.35937l-.5625-.03125c-.40625-.015625-.4375-.109375-.4375-.859375V-3.6875c0-1.171875-.703125-1.921875-1.796875-1.921875-.421875 0-.765625.109375-.984375.296875l-.9062.8125C5.3125-5.28125 4.828125-5.609375 4-5.609375c-.4375 0-.765625.109375-.984375.296875l-.8281.76563V-5.5625l-.1094-.04687c-.609375.25-1.234375.421875-1.859375.5v.32813h.4375c.484375 0 .53125.078125.53125.875v2.6875c0 .75-.046875.84375-.453125.859375L.1875-.32812v.35937C.6875.015625 1.203125 0 1.703125 0 2.1875 0 2.65625.015625 3.125.03125v-.35937l-.5-.03125c-.40625-.01563-.4375-.10938-.4375-.85938V-3.75c0-.546875.78125-1.125 1.5-1.125.65625 0 1.09375.609375 1.09375 1.515625v2.14063c0 .75-.03125.84375-.4375.859375l-.5469.03125v.35937C4.296875.015625 4.78125 0 5.28125 0c.5 0 1 .015625 1.5.03125v-.35937l-.5469-.03125c-.406225-.01563-.4531-.10938-.4531-.85938V-3.75c0-.546875.796875-1.125 1.515625-1.125.640625 0 1.078125.609375 1.078125 1.515625V.03125C8.6875.015625 9.015625 0 9.328125 0c.359375 0 .703125.015625 1.0625.03125zm0 0" id="s"/><path d="M6.625-3.23437c0-1.328125-1.109375-2.375-2.484375-2.375-.453125 0-.875.125-1.0625.296875l-.9844.90625V-5.5625l-.1094-.04687C1.375-5.359375.75-5.1875.125-5.109375v.32813h.4375c.484375 0 .53125.078125.53125.875v6.01563c0 .75-.046875.828125-.453125.859375L.0938 3v.35938c.5-.03125 1-.03125 1.5-.03125.5 0 .984375 0 1.484375.03125V3l-.5469-.03125c-.40625-.03125-.4375-.109375-.4375-.859375V-.15625c.359375.21875.734375.296875 1.28125.296875.34375 0 .65625-.0625.84375-.1875L5.5781-.9375C6.0625-1.25 6.625-2.46875 6.625-3.234375zm-1.0469.4375c0 1.34375-.796875 2.328125-1.875 2.328125-.65625 0-1.140625-.21875-1.609375-.703125v-2.48438c0-.171875.0625-.296875.21875-.5.34375-.453125.828125-.671875 1.421875-.671875 1.125 0 1.84375.78125 1.84375 2.03125zm0 0" id="t"/><path d="M4.4688-5.46875c-.125-.09375-.34375-.140625-.5625-.140625-.359375 0-.734375.1875-.984375.5L2.25-4.32812V-5.5625l-.1094-.04687c-.609375.25-1.234375.421875-1.859375.5v.32813h.4375c.46875 0 .53125.078125.53125.875v2.6875c0 .75-.046875.84375-.453125.859375L.25-.32812v.35937C.734375.015625 1.234375 0 1.71875 0c.578125 0 1.140625.015625 1.71875.03125v-.35937l-.625-.03125C2.265625-.390625 2.25-.4375 2.25-1.21875v-2.0625c0-.71875.46875-1.3125 1.0625-1.3125.359375 0 .609375.171875.796875.546875h.25zm0 0" id="g"/><path d="M5.9688 0c0-.296875.125-1.234375.28125-1.96875h-.375l-.2031.73438c-.109375.390625-.203125.59375-.3125.640625-.140625.0625-1.0625.125-1.71875.125-.671875 0-.96875-.015625-1.703125-.078125 0-.140625 0-.28125.015625-.421875L3.0625-7.32812c.078125-.453125.171875-.53125.609375-.578125l.5-.03125.0313-.32812c-.46875.015625-.953125.03125-1.4375.03125-.53125 0-1.0625-.015625-1.609375-.03125L1.125-7.9375l.5625.03125c.28125 0 .421875.09375.421875.296875 0 .1875-.046875.53125-.109375.921875L.9688-.65625C.9375-.4375.78125-.359375.25-.28125l-.0625.3125C.796875.015625 1.421875 0 2.03125 0c.890625 0 1.796875.03125 2.6875.03125.5 0 .84375 0 1.25-.03125zm0 0" id="p"/><path d="M5.3594-.9375l-.0937-.23437c-.4375.359375-.734375.53125-.921875.53125-.1875 0-.34375-.109375-.453125-.34375-.109375-.234375-.25-.671875-.3125-1.03125L3.375-3.21875l.4219-.57812c.546875-.78125.875-1.0625 1.25-1.0625.1875 0 .328125.109375.390625.28125L5.6094-4.625l.1719-1.01562c-.140625-.078125-.25-.125-.359375-.125-.46875 0-.953125.4375-1.6875 1.53125l-.4531.65625-.0625-.5625c-.140625-1.1875-.46875-1.625-1.171875-1.625-.3125 0-.578125.09375-.6875.25l-.6875 1 .2031.10937c.359375-.40625.59375-.5625.828125-.5625.390625 0 .65625.484375.859375 1.65625l.125.75-.4687.73438c-.515625.796875-.921875 1.1875-1.265625 1.1875C.78125-.640625.640625-.6875.625-.75l-.1406-.34375-.2344.04688c0 .23437-.015625.39062-.09375.76562C.125-.125.125-.09375.109375-.015625.28125.078125.484375.125.625.125c.390625 0 .859375-.34375 1.234375-.90625l.9063-1.39062.125.82813C3.0625-.328125 3.328125.125 3.75.125c.265625 0 .65625-.203125 1.03125-.546875zm0 0" id="q"/><path d="M6.125-1.01562 6-1.23437l-.3125.20313c-.296875.1875-.578125.328125-.734375.328125-.09375 0-.140625-.078125-.140625-.203125 0-.15625.03125-.34375.0625-.484375l1-4.26562-.0781-.10937-.8125.20313-.125.60938c-.171875.90625-.453125 1.71875-.8125 2.265625C3.34375-1.59375 2.390625-.703125 1.90625-.703125c-.109375 0-.15625-.109375-.15625-.3125 0-.171875.015625-.3125.078125-.625l.6875-3.23437c.03125-.1875.046875-.359375.046875-.515625 0-.234375-.09375-.375-.25-.375-.25 0-.703125.25-1.59375.890625L.375-4.64062l.0938.23438.375-.25c.34375-.21875.46875-.265625.578125-.265625.125 0 .203125.109375.203125.234375 0 .0625-.015625.15625-.015625.21875L.8438-.92187c-.015625.125-.046875.390625-.046875.578125 0 .265625.1875.46875.421875.46875.75 0 2.203125-1.328125 3.203125-2.984375l-.4375 1.70313c-.09375.296875-.140625.59375-.140625.78125 0 .296875.140625.5.359375.5.3125 0 .75-.28125 1.921875-1.140625zm0 0" id="r"/><clipPath id="h"><path d="M254 52h27v2h-27zm0 0"/></clipPath><clipPath id="i"><path clip-rule="evenodd" d="M-.5312 81.53516h283v-83h-283zm281.7188-28.9375v.83984l-10.2617 1.80078 8.8203-2.22266-8.8203-2.21875zm0 0"/></clipPath><clipPath id="j"><path d="M13 0h2v81h-2zm0 0"/></clipPath><clipPath id="k"><path clip-rule="evenodd" d="M-.5312 81.53516h283v-83h-283zM13.4063-.44141h.8398L16.0469 9.8164 13.8282.99609 11.6055 9.8164zm0 0"/></clipPath></defs><g class="a"><path d="M327.205 285.21375c0-62.96875-28.75-114.023437-64.21875-114.023437-35.429688 0-64.179688 51.054687-64.179688 114.023437 0 62.929688 28.75 113.984375 64.179688 113.984375 35.46875 0 64.21875-51.054687 64.21875-113.984375zm0 0"/><path d="M2507.595625 285.21375c0-62.96875-28.75-114.023437-64.179688-114.023437-35.46875 0-64.21875 51.054687-64.21875 114.023437 0 62.929688 28.75 113.984375 64.21875 113.984375 35.429688 0 64.179688-51.054687 64.179688-113.984375zm0 0"/><path d="M262.98625 171.190313h2181.015625"/><path d="M262.98625 399.198125h2181.015625"/><path d="M2554.3925 363.1825V215.018438"/></g><g clip-path="url(#h)"><g clip-path="url(#i)"><path d="M2555.0175 285.21375h257.96875" class="a"/></g></g><g class="b"><path stroke-width="4.5" d="M2714.587812 307.40125l88.203125-22.1875-88.203125-22.226562"/><path stroke-width="45" d="M327.205 285.21375H150.79875"/></g><g clip-path="url(#j)"><g clip-path="url(#k)"><path d="M143.61125 815.604375V6.815313" class="a"/></g></g><g class="b"><path stroke-width="4.5" d="M121.384687 717.205938l22.226563 88.203125 22.1875-88.203125"/><path stroke-width="45" d="M2381.619062 285.21375h166.796875"/><path stroke-width="4.5" stroke-linejoin="bevel" d="M142.98625 285.21375H6.814375"/></g><use x="4.507" y="65.817" href="#l"/><use x="251.652" y="70.317" href="#p"/><use x="273.0159" y="70.317" href="#q"/><use x="99.009" y="80.037" href="#c"/><use x="102.488" y="80.037" href="#d"/><use x="109.4459" y="80.037" href="#m"/><use x="114.5149" y="80.037" href="#e"/><use x="121.7239" y="80.037" href="#n"/><use x="125.2028" y="80.037" href="#f"/><use x="131.1804" y="80.037" href="#a"/><use x="135.0778" y="80.037" href="#c"/><use x="138.5568" y="80.037" href="#o"/><use x="145.0843" y="80.037" href="#d"/><use x="18.547" y="20.216" href="#a"/><use x="22.4444" y="20.216" href="#b"/><use x="28.1709" y="20.216" href="#s"/><use x="38.4883" y="20.216" href="#t"/><use x="45.6733" y="20.216" href="#b"/><use x="51.3999" y="20.216" href="#g"/><use x="55.9429" y="20.216" href="#f"/><use x="61.9205" y="20.216" href="#a"/><use x="65.8179" y="20.216" href="#e"/><use x="73.0268" y="20.216" href="#g"/><use x="77.7492" y="20.216" href="#b"/><use x="86.584" y="20.216" href="#r"/><style>.a{fill:none;stroke:#000;stroke-miterlimit:10;stroke-width:4.5;transform:matrix(.1,0,0,-.1,-.533,81.537)}.b{fill:none;stroke:#000;stroke-miterlimit:10;transform:matrix(.1,0,0,-.1,-.533,81.537)}</style></svg>