<svg xmlns="http://www.w3.org/2000/svg" width="356pt" height="260pt" viewBox="0 0 356 260"><defs><path d="M1.9531-2.1406H.3125v.5h1.6406zm0 0" id="i"/><path d="M3.2656-4.8594H.75L.3906-2.2031h.5625c.28125-.34375.515625-.453125.890625-.453125.65625 0 1.0625.4375 1.0625 1.15625 0 .703125-.40625 1.125-1.0625 1.125-.53125 0-.859375-.265625-1-.8125H.2344c.09375.390625.15625.578125.296875.765625.281225.35935.7656.5781 1.3281.5781.96875 0 1.65625-.703125 1.65625-1.734375 0-.953125-.640625-1.625-1.5625-1.625-.34375 0-.625.09375-.90625.296875l.1875-1.3437h2.0313zm0 0" id="g"/><path d="M1.3125-.7187H.5938V0h.7188zm0 0" id="f"/><path d="M1.8906-4.9531c-.453125 0-.875.203125-1.125.546875-.3125.4375-.46875 1.09375-.46875 2.015625C.296875-.71875.84375.15625 1.890625.15625c1.03125 0 1.59375-.875 1.59375-2.515625 0-.953125-.15625-1.59375-.484375-2.046875-.25-.34375-.65625-.546875-1.109375-.546875zm0 .5313c.640625 0 .96875.671875.96875 2.015625 0 1.40625-.3125 2.0625-.984375 2.0625-.640625 0-.96875-.6875-.96875-2.046875 0-1.359375.328125-2.03125.984375-2.03125zm0 0" id="h"/><path d="M3.4688-.5937H.9063c.06245-.4063.2812-.671925.890575-1.0313l.6719-.3906C3.15625-2.390625 3.5-2.890625 3.5-3.5c0-.421875-.15625-.796875-.453125-1.0625-.28125-.265625-.640625-.390625-1.09375-.390625-.625 0-1.078125.21875-1.34375.640625-.171875.265625-.25.578125-.265625 1.078125h.6094c.015625-.34375.0625-.53125.140625-.703125.15625-.296875.46875-.484375.828125-.484375.546875 0 .96875.390625.96875.9375 0 .390625-.234375.734375-.65625.984375l-.6406.3594C.578125-1.546875.28125-1.09375.234375 0H3.4688zm0 0" id="j"/><clipPath id="k"><use href="#a"/></clipPath><clipPath id="l"><path d="M18 128h320v2H18zm0 0"/></clipPath><clipPath id="m"><path d="M18 7.6602h1v242.25h-1zm0 0"/></clipPath><clipPath id="n"><path d="M97 7.6602h2v242.25h-2zm0 0"/></clipPath><clipPath id="o"><use href="#a"/></clipPath><clipPath id="p"><path d="M257 7.6602h2v242.25h-2zm0 0"/></clipPath><clipPath id="q"><path d="M337 7.6602h1v242.25h-1zm0 0"/></clipPath><clipPath id="r"><path d="M18 246h320v1H18zm0 0"/></clipPath><clipPath id="s"><path d="M18 187h320v1H18zm0 0"/></clipPath><clipPath id="t"><path d="M18 128h320v2H18zm0 0"/></clipPath><clipPath id="u"><path d="M18 69h320v2H18zm0 0"/></clipPath><clipPath id="v"><path d="M18 10h320v2H18zm0 0"/></clipPath><clipPath id="w"><path d="M18 18h320v94H18zm0 0"/></clipPath><clipPath id="x"><path d="M18 145h320v95H18zm0 0"/></clipPath><path id="a" d="M177 7.6602h2v242.25h-2zm0 0"/><path id="b" d="M1997.5031-211.1628v-2425.5368"/><path id="c" d="M399.5006-1423.8139h3196.005"/><path id="d" d="M399.5006-211.1628v-2425.5368"/><path id="e" d="M3595.5056-211.1628v-2425.5368"/></defs><path fill="#fff" d="M18 249.9102h320V7.6602H18zm0 0"/><g clip-path="url(#k)"><use href="#b" class="e"/></g><g clip-path="url(#l)"><use href="#c" class="e"/></g><g clip-path="url(#m)"><use href="#d" class="a"/></g><g clip-path="url(#n)"><path d="M1198.501873-211.162813v-2425.536772" class="a"/></g><g clip-path="url(#o)"><use href="#b" class="a"/></g><g clip-path="url(#p)"><path d="M2796.50437-211.162813v-2425.536772" class="a"/></g><g clip-path="url(#q)"><use href="#e" class="a"/></g><g clip-path="url(#r)"><path d="M399.500624-246.284911h3196.004994" class="a"/></g><g clip-path="url(#s)"><path d="M399.500624-835.068944h3196.004994" class="a"/></g><g clip-path="url(#t)"><use href="#c" class="a"/></g><g clip-path="url(#u)"><path d="M399.500624-2012.597898h3196.004994" class="a"/></g><g clip-path="url(#v)"><path d="M399.500624-2601.342819h3196.004994" class="a"/></g><g class="b"><path d="M399.500624-211.162813h3196.004994" class="c"/><g class="d"><path d="M399.500624-211.162813v-45.643083"/><path d="M399.500624-211.162813v-22.841097"/><path d="M479.400749-211.162813v-22.841097"/><path d="M559.300874-211.162813v-22.841097"/><path d="M639.200999-211.162813v-22.841097"/><path d="M719.101124-211.162813v-22.841097"/><path d="M799.001248-211.162813v-22.841097"/><path d="M878.901373-211.162813v-22.841097"/><path d="M958.801498-211.162813v-22.841097"/><path d="M1038.701623-211.162813v-22.841097"/><path d="M1198.501873-211.162813v-45.643083"/><path d="M1198.501873-211.162813v-22.841097"/><path d="M1278.401998-211.162813v-22.841097"/><path d="M1358.302122-211.162813v-22.841097"/><path d="M1438.202247-211.162813v-22.841097"/><path d="M1518.102372-211.162813v-22.841097"/><path d="M1598.002497-211.162813v-22.841097"/><path d="M1677.902622-211.162813v-22.841097"/><path d="M1757.802747-211.162813v-22.841097"/><path d="M1837.702871-211.162813v-22.841097"/><path d="M1997.503121-211.162813v-45.643083"/><path d="M1997.503121-211.162813v-22.841097"/><path d="M2077.403246-211.162813v-22.841097"/><path d="M2157.303371-211.162813v-22.841097"/><path d="M2237.203496-211.162813v-22.841097"/><path d="M2317.10362-211.162813v-22.841097"/><path d="M2397.003745-211.162813v-22.841097"/><path d="M2476.90387-211.162813v-22.841097"/><path d="M2556.803995-211.162813v-22.841097"/><path d="M2636.70412-211.162813v-22.841097"/><path d="M2796.50437-211.162813v-45.643083"/><path d="M2796.50437-211.162813v-22.841097"/><path d="M2876.404494-211.162813v-22.841097"/><path d="M2956.304619-211.162813v-22.841097"/><path d="M3036.204744-211.162813v-22.841097"/><path d="M3116.104869-211.162813v-22.841097"/><path d="M3196.004994-211.162813v-22.841097"/><path d="M3275.905119-211.162813v-22.841097"/><path d="M3355.805243-211.162813v-22.841097"/><path d="M3435.705368-211.162813v-22.841097"/><path d="M3595.505618-211.162813v-45.643083"/><path d="M3595.505618-211.162813v-22.841097"/></g></g><use x="12.093" y="259.0301" href="#i"/><use x="14.3764" y="259.0301" href="#g"/><use x="18.189" y="259.0301" href="#f"/><use x="20.0953" y="259.0301" href="#h"/><use x="92.0933" y="259.0301" href="#i"/><use x="94.3767" y="259.0301" href="#j"/><use x="98.1893" y="259.0301" href="#f"/><use x="100.0956" y="259.0301" href="#g"/><use x="173.2348" y="259.0301" href="#h"/><use x="177.0474" y="259.0301" href="#f"/><use x="178.9537" y="259.0301" href="#h"/><use x="252.6641" y="259.0301" href="#j"/><use x="256.4767" y="259.0301" href="#f"/><use x="258.383" y="259.0301" href="#g"/><use x="333.2359" y="259.0301" href="#g"/><use x="337.0485" y="259.0301" href="#f"/><use x="338.9547" y="259.0301" href="#h"/><g class="b"><path d="M399.500624-2636.699585h3196.004994" class="c"/><g class="d"><path d="M399.500624-2636.699585v45.643082"/><path d="M399.500624-2636.699585v22.841097"/><path d="M479.400749-2636.699585v22.841097"/><path d="M559.300874-2636.699585v22.841097"/><path d="M639.200999-2636.699585v22.841097"/><path d="M719.101124-2636.699585v22.841097"/><path d="M799.001248-2636.699585v22.841097"/><path d="M878.901373-2636.699585v22.841097"/><path d="M958.801498-2636.699585v22.841097"/><path d="M1038.701623-2636.699585v22.841097"/><path d="M1198.501873-2636.699585v45.643082"/><path d="M1198.501873-2636.699585v22.841097"/><path d="M1278.401998-2636.699585v22.841097"/><path d="M1358.302122-2636.699585v22.841097"/><path d="M1438.202247-2636.699585v22.841097"/><path d="M1518.102372-2636.699585v22.841097"/><path d="M1598.002497-2636.699585v22.841097"/><path d="M1677.902622-2636.699585v22.841097"/><path d="M1757.802747-2636.699585v22.841097"/><path d="M1837.702871-2636.699585v22.841097"/><path d="M1997.503121-2636.699585v45.643082"/><path d="M1997.503121-2636.699585v22.841097"/><path d="M2077.403246-2636.699585v22.841097"/><path d="M2157.303371-2636.699585v22.841097"/><path d="M2237.203496-2636.699585v22.841097"/><path d="M2317.10362-2636.699585v22.841097"/><path d="M2397.003745-2636.699585v22.841097"/><path d="M2476.90387-2636.699585v22.841097"/><path d="M2556.803995-2636.699585v22.841097"/><path d="M2636.70412-2636.699585v22.841097"/><path d="M2796.50437-2636.699585v45.643082"/><path d="M2796.50437-2636.699585v22.841097"/><path d="M2876.404494-2636.699585v22.841097"/><path d="M2956.304619-2636.699585v22.841097"/><path d="M3036.204744-2636.699585v22.841097"/><path d="M3116.104869-2636.699585v22.841097"/><path d="M3196.004994-2636.699585v22.841097"/><path d="M3275.905119-2636.699585v22.841097"/><path d="M3355.805243-2636.699585v22.841097"/><path d="M3435.705368-2636.699585v22.841097"/><path d="M3595.505618-2636.699585v45.643082"/><path d="M3595.505618-2636.699585v22.841097"/></g></g><use x="12.093" y="5.38" href="#i"/><use x="14.3764" y="5.38" href="#g"/><use x="18.189" y="5.38" href="#f"/><use x="20.0953" y="5.38" href="#h"/><use x="92.0933" y="5.38" href="#i"/><use x="94.3767" y="5.38" href="#j"/><use x="98.1893" y="5.38" href="#f"/><use x="100.0956" y="5.38" href="#g"/><use x="173.2348" y="5.38" href="#h"/><use x="177.0474" y="5.38" href="#f"/><use x="178.9537" y="5.38" href="#h"/><use x="252.6641" y="5.38" href="#j"/><use x="256.4767" y="5.38" href="#f"/><use x="258.383" y="5.38" href="#g"/><use x="333.2359" y="5.38" href="#g"/><use x="337.0485" y="5.38" href="#f"/><use x="338.9547" y="5.38" href="#h"/><g class="b"><use href="#d" class="c"/><g class="d"><path d="M399.500624-246.284911h45.646068"/><path d="M399.500624-246.284911h22.823034"/><path d="M399.500624-305.14767h22.823034"/><path d="M399.500624-364.04954h22.823034"/><path d="M399.500624-422.912299h22.823034"/><path d="M399.500624-481.814169h22.823034"/><path d="M399.500624-540.676928h22.823034"/><path d="M399.500624-599.539686h22.823034"/><path d="M399.500624-658.402445h22.823034"/><path d="M399.500624-717.304315h22.823034"/><path d="M399.500624-835.068944h45.646068"/><path d="M399.500624-835.068944h22.823034"/><path d="M399.500624-893.931702h22.823034"/><path d="M399.500624-952.794461h22.823034"/><path d="M399.500624-1011.696331h22.823034"/><path d="M399.500624-1070.55909h22.823034"/><path d="M399.500624-1129.421849h22.823034"/><path d="M399.500624-1188.323719h22.823034"/><path d="M399.500624-1247.186477h22.823034"/><path d="M399.500624-1306.049236h22.823034"/><path d="M399.500624-1423.813865h45.646068"/><path d="M399.500624-1423.813865h22.823034"/><path d="M399.500624-1482.676624h22.823034"/><path d="M399.500624-1541.578494h22.823034"/><path d="M399.500624-1600.441252h22.823034"/><path d="M399.500624-1659.304011h22.823034"/><path d="M399.500624-1718.205881h22.823034"/><path d="M399.500624-1777.06864h22.823034"/><path d="M399.500624-1835.931399h22.823034"/><path d="M399.500624-1894.833269h22.823034"/><path d="M399.500624-2012.597898h45.646068"/><path d="M399.500624-2012.597898h22.823034"/><path d="M399.500624-2071.460656h22.823034"/><path d="M399.500624-2130.323415h22.823034"/><path d="M399.500624-2189.225285h22.823034"/><path d="M399.500624-2248.088044h22.823034"/><path d="M399.500624-2306.950802h22.823034"/><path d="M399.500624-2365.813561h22.823034"/><path d="M399.500624-2424.715431h22.823034"/><path d="M399.500624-2483.57819h22.823034"/><path d="M399.500624-2601.342819h45.646068"/><path d="M399.500624-2601.342819h22.823034"/></g></g><use x=".4711" y="249.3398" href="#i"/><use x="2.7545" y="249.3398" href="#g"/><use x="6.5671" y="249.3398" href="#f"/><use x="8.4734" y="249.3398" href="#h"/><use x=".4711" y="190.63" href="#i"/><use x="2.7545" y="190.63" href="#j"/><use x="6.5671" y="190.63" href="#f"/><use x="8.4734" y="190.63" href="#g"/><use x="2.7547" y="131.9198" href="#h"/><use x="6.5673" y="131.9198" href="#f"/><use x="8.4736" y="131.9198" href="#h"/><use x="2.7547" y="73.21" href="#j"/><use x="6.5673" y="73.21" href="#f"/><use x="8.4736" y="73.21" href="#g"/><use x="2.7547" y="14.4998" href="#g"/><use x="6.5673" y="14.4998" href="#f"/><use x="8.4736" y="14.4998" href="#h"/><g class="b"><use href="#e" class="c"/><g class="d"><path d="M3595.505618-246.284911h-45.685081"/><path d="M3595.505618-246.284911h-22.823034"/><path d="M3595.505618-305.14767h-22.823034"/><path d="M3595.505618-364.04954h-22.823034"/><path d="M3595.505618-422.912299h-22.823034"/><path d="M3595.505618-481.814169h-22.823034"/><path d="M3595.505618-540.676928h-22.823034"/><path d="M3595.505618-599.539686h-22.823034"/><path d="M3595.505618-658.402445h-22.823034"/><path d="M3595.505618-717.304315h-22.823034"/><path d="M3595.505618-835.068944h-45.685081"/><path d="M3595.505618-835.068944h-22.823034"/><path d="M3595.505618-893.931702h-22.823034"/><path d="M3595.505618-952.794461h-22.823034"/><path d="M3595.505618-1011.696331h-22.823034"/><path d="M3595.505618-1070.55909h-22.823034"/><path d="M3595.505618-1129.421849h-22.823034"/><path d="M3595.505618-1188.323719h-22.823034"/><path d="M3595.505618-1247.186477h-22.823034"/><path d="M3595.505618-1306.049236h-22.823034"/><path d="M3595.505618-1423.813865h-45.685081"/><path d="M3595.505618-1423.813865h-22.823034"/><path d="M3595.505618-1482.676624h-22.823034"/><path d="M3595.505618-1541.578494h-22.823034"/><path d="M3595.505618-1600.441252h-22.823034"/><path d="M3595.505618-1659.304011h-22.823034"/><path d="M3595.505618-1718.205881h-22.823034"/><path d="M3595.505618-1777.06864h-22.823034"/><path d="M3595.505618-1835.931399h-22.823034"/><path d="M3595.505618-1894.833269h-22.823034"/><path d="M3595.505618-2012.597898h-45.685081"/><path d="M3595.505618-2012.597898h-22.823034"/><path d="M3595.505618-2071.460656h-22.823034"/><path d="M3595.505618-2130.323415h-22.823034"/><path d="M3595.505618-2189.225285h-22.823034"/><path d="M3595.505618-2248.088044h-22.823034"/><path d="M3595.505618-2306.950802h-22.823034"/><path d="M3595.505618-2365.813561h-22.823034"/><path d="M3595.505618-2424.715431h-22.823034"/><path d="M3595.505618-2483.57819h-22.823034"/><path d="M3595.505618-2601.342819h-45.685081"/><path d="M3595.505618-2601.342819h-22.823034"/></g></g><use x="343.714" y="249.3398" href="#i"/><use x="345.9974" y="249.3398" href="#g"/><use x="349.81" y="249.3398" href="#f"/><use x="351.7163" y="249.3398" href="#h"/><use x="343.714" y="190.63" href="#i"/><use x="345.9974" y="190.63" href="#j"/><use x="349.81" y="190.63" href="#f"/><use x="351.7163" y="190.63" href="#g"/><use x="343.714" y="131.9198" href="#h"/><use x="347.5266" y="131.9198" href="#f"/><use x="349.4329" y="131.9198" href="#h"/><use x="343.714" y="73.21" href="#j"/><use x="347.5266" y="73.21" href="#f"/><use x="349.4329" y="73.21" href="#g"/><use x="343.714" y="14.4998" href="#g"/><use x="347.5266" y="14.4998" href="#f"/><use x="349.4329" y="14.4998" href="#h"/><g clip-path="url(#w)"><path d="M399.539638-2526.20969l9.168227 6.844507 9.129214 6.805396 9.129213 6.844506 9.0902 6.844507 9.207241 7.040064 9.207241 6.844507 9.168227 6.805396 9.168227 7.079175 9.168227 6.805396 9.168228 6.844506 9.129213 6.844507 9.051186 6.805396 9.246255 7.079175 9.207241 6.844507 9.129213 6.805395 9.168227 7.079176 9.168228 6.805395 9.129213 6.844507 9.0902 6.844507 9.129213 6.805395 9.207241 7.079176 9.168228 6.805395 9.207241 6.844507 9.168227 6.844507 9.168227 7.079176 9.129213 6.805395 9.168228 6.844507 9.051186 6.805395 9.207241 6.844507 9.207241 7.079176 9.168227 6.805395 9.168227 6.844507 9.168227 6.805395 9.129214 6.844507 9.090199 6.844507 9.0902 6.805395 9.246255 6.844507 9.168227 7.079176 9.168227 6.805395 9.207241 6.844507 9.129214 6.844507 9.168227 6.805395 9.129213 6.844507 9.051186 6.805395 9.246255 6.844507 9.207241 6.805395 18.336455 13.689014 9.129213 6.805395 18.258427 13.689014 9.0902 6.570727 9.207241 7.079175 9.207241 6.570727 18.336454 13.689013 9.168227 6.805396 9.168227 6.844507 9.129214 6.844506 9.051186 6.570727 9.207241 6.844507 9.246255 6.805395 9.129213 6.609838 9.168227 6.844507 9.168228 6.570726 9.129213 6.844507 9.0902 6.609838 9.129213 6.570727 9.207241 6.844507 9.168227 6.805395 9.168228 6.609838 9.207241 6.609838 9.168227 6.570727 9.129213 6.844506 9.168227 6.570727 9.051187 6.609838 9.20724 6.570727 9.207241 6.609838 9.168228 6.609838 9.168227 6.570726 9.168227 6.375169 9.129214 6.570727 9.090199 6.609838 9.0902 6.375169 9.246255 6.570727 9.168227 6.375169 9.168227 6.336058 9.207241 6.609838 9.129214 6.375169 9.168227 6.336058 9.129213 6.375169 9.051186 6.101389 9.246255 6.375169 9.207241 6.375169 9.168227 6.101389 9.129214 6.375169 9.168227 6.101389 9.129213 6.140501 9.129214 6.101389 9.0902 5.905831 9.207241 6.101389 9.20724 6.140501 9.168228 5.86672 9.168227 6.1405 9.168227 5.632051 9.168227 5.905832 9.129214 5.905832 9.051186 5.632051 9.207241 5.671163 9.207241 5.86672 9.168227 5.436494 9.168227 5.632051 9.168227 5.397383 9.129214 5.671163 9.0902 5.201825 9.129213 5.397382 9.207241 5.162714 18.336454 10.40365 9.207241 5.162714 9.129214 4.928045 9.168227 4.967156 9.168227 4.928045 9.051186 4.732488 9.207241 4.693376 9.207241 4.732488 9.168227 4.458707 9.168228 4.497819 9.129213 4.224038 9.168227 4.458707 9.0902 3.98937 9.0902 4.26315 9.246255 3.98937 9.168227 4.028481 9.168227 3.754701 9.207241 3.754701 9.129213 3.793812 9.168228 3.520032 9.129213 3.520032 9.051186 3.324475 9.246255 3.285363 9.207241 3.285363 9.129213 3.050695 9.168227 3.089806 9.168228 2.816026 9.129213 2.816025 9.129214 2.620469 9.090199 2.581356 9.207241 2.581357 9.207241 2.346688 9.129214 2.3858 9.207241 2.112019 9.168227 2.112019 9.168227 1.877351 9.129214 2.112019 9.051186 1.642682 9.207241 1.681793 9.207241 1.642681 9.168227 1.642682 9.168227 1.408013 9.168227 1.173344 9.129214 1.173344 9.090199 1.173344 9.129214 1.173344 9.207241.938675 9.168227.743118 9.168227.704006 9.207241.704007 9.129214.469337 9.168227.469338 9.129213.469338 9.051186.234669 9.246255.234668h27.504682l9.168227-.234668 9.129213-.234669 9.129214-.469338 9.0902-.469338 9.246254-.469337 18.336455-1.408013 9.168227-.743118 9.168227-.938675 9.168227-1.173344 9.129214-1.173344 9.051186-1.173344 9.246255-1.173344 9.207241-1.408013 9.129213-1.642682 9.168227-1.642681 9.168228-1.681793 18.258426-3.754701 9.0902-1.877351 9.207241-2.112019 9.168227-2.112019 9.168228-2.3858 9.207241-2.346688 9.168227-2.581357 9.129213-2.581356 9.168227-2.620469 9.051187-2.816025 9.20724-2.816026 9.207241-3.089806 9.168228-3.050695 18.336454-6.570726 9.129214-3.324475 18.180399-7.040064 9.246255-3.793812 18.336454-7.509402 9.207241-4.028481 9.129214-3.98937 9.168227-4.26315 9.129213-3.98937 9.051186-4.458707 9.246255-4.224038 9.207241-4.497819 9.168227-4.693376 9.129214-4.497819 9.168227-4.693376 9.129213-4.967157 9.129214-4.693376 9.0902-4.967156 9.246254-4.928045 9.168227-5.162714 18.336455-10.40365 9.168227-5.162714 9.168227-5.397382 9.129214-5.436494 9.051186-5.436494 9.207241-5.397383 9.207241-5.632051 9.168227-5.671163 9.168227-5.632051 9.168227-5.671163 9.129214-5.632051 9.0902-5.905832 9.129213-5.632051 9.207241-6.140501 9.168227-5.905831 9.207241-5.86672 9.168227-6.140501 9.168228-6.101389 9.129213-5.905831 9.168227-6.101389 9.051186-6.140501 9.207241-6.101389 9.207241-6.375169 9.168227-6.101389 18.336455-12.750338 9.129213-6.336058 9.0902-6.1405 9.0902-6.336058 9.246255-6.375169 9.168227-6.609838 9.168227-6.336058 9.207241-6.609838 9.129213-6.336058 9.168228-6.609838 9.129213-6.375169 9.051186-6.570727 9.246255-6.609838 9.207241-6.570726 9.129213-6.375169 9.207241-6.609838 9.129214-6.570727 9.129213-6.609838 9.129214-6.570727 9.090199-6.609838 9.207241-6.805395 9.207241-6.609838 9.168228-6.844507 9.168227-6.570726 9.168227-6.609838 9.168227-6.805396 9.129214-6.609838 9.051186-6.844507 9.207241-6.570726 9.246254-6.844507 9.129214-6.844507 9.168227-6.570726 9.168227-6.844507 9.129214-6.844507 9.090199-6.570726 9.129214-6.844507 9.207241-6.805396 18.336454-13.689013 9.207241-6.805396 9.129214-6.609838 9.168227-6.805395 9.168227-6.844507 9.012172-6.844507 9.246255-6.805395 9.207241-6.844507 9.168227-6.844507 9.168228-6.805395 9.129213-6.844507 9.168227-6.805395 9.0902-6.844507 9.0902-6.805395 9.246254-6.844507 9.168228-6.844507 9.168227-7.040064 9.207241-6.844507 9.129213-6.844507 9.168227-6.805395 9.129214-6.844507 9.051186-6.844507 9.246255-6.805395 9.207241-7.079176 9.168227-6.805395 9.168227-6.844507 9.129214-6.844507 9.129213-6.805395 9.129213-6.844507 9.0902-6.805395 9.207241-7.079176 9.207241-6.844507 9.168227-6.844507 9.168228-7.040064 9.168227-6.844507 9.129213-6.805395 9.168227-6.844507 9.051187-6.844507 9.20724-7.040064 9.207241-6.844507 9.168228-6.805395 9.168227-6.844507 9.168227-7.079175 9.129214-6.805396 9.090199-6.844507 9.129214-6.844506 9.207241-6.805396 9.168227-7.079175 9.168227-6.805396 9.207241-6.844507 9.129214-7.040064 18.336454-13.689013 9.051186-6.805396 9.207241-7.079175" style="fill:none;stroke-width:11.4143;stroke-linecap:round;stroke-linejoin:round;stroke:#00008b;stroke-miterlimit:10;transform:matrix(.100125,0,0,.0998748,-22,271)"/></g><g clip-path="url(#x)"><path d="M399.578652-321.41804l9.012172-6.609838 9.207241-7.040065 9.129213-6.844506 9.168228-6.805396 9.246254-7.079175 9.129214-6.844507 9.129213-6.805396 9.246255-7.079175 9.051186-6.844507 9.246255-6.805395 9.012172-6.844507 9.324282-7.040064 9.012172-6.844507 9.129214-6.844507 9.246255-6.805395 9.20724-7.079176 9.012173-6.609838 9.246254-7.040064 9.0902-6.844507 9.207241-6.844507 9.246255-7.040064 9.129213-6.844507 9.0902-6.805395 9.285268-7.079176 9.012173-6.609838 9.285268-7.040064 9.012172-6.844507 9.285269-6.844507 9.051186-6.805395 9.129213-6.844507 9.246255-7.040064 9.207241-6.844507 9.012172-6.844507 9.246255-6.805395 9.0902-6.844507 9.168227-6.844507 9.285268-7.040064 9.0902-6.844507 9.129214-6.805395 9.246254-6.844507 9.051186-6.844507 9.246255-6.805395 9.012172-6.844507 9.324282-6.805395 9.051186-6.844507 9.129214-6.844507 9.207241-6.805395 9.246255-6.844507 8.973158-6.844507 9.246255-6.805395 9.129213-6.844507 9.168227-6.805395 9.246255-6.844507 9.129214-6.844507 9.129213-6.570726 9.246255-6.844507 9.051186-6.805396 9.246254-6.844506 9.012173-6.609838 9.324282-6.805396 9.012172-6.844507 9.129214-6.609838 9.246254-6.805395 9.207241-6.844507 9.012173-6.570726 9.246254-6.844507 9.0902-6.609838 9.207241-6.805396 9.246255-6.609838 9.129213-6.805395 9.0902-6.609838 9.246255-6.609838 9.051186-6.570727 9.285268-6.844506 9.012172-6.336058 9.285269-6.844507 9.051186-6.609838 9.129213-6.336058 9.207241-6.844507 9.246255-6.570726 9.012172-6.375169 9.246255-6.609838 9.0902-6.336058 9.168227-6.609838 9.246254-6.570727 18.258427-12.750338 9.246255-6.570727 9.051186-6.375169 9.246255-6.336058 9.012172-6.1405 9.324282-6.570726 9.012173-6.140501 9.129213-6.375169 9.246255-6.101389 9.246254-6.375169 8.973159-6.101389 9.246255-6.140501 9.129213-6.101389 9.168227-6.1405 9.246255-6.101389 18.258427-11.811663 9.246255-6.101389 9.051186-5.632051 9.246254-5.905832 9.012173-5.905832 9.324282-5.632051 9.012172-5.671163 9.129214-5.632051 9.246254-5.671163 9.207241-5.632051 9.012172-5.436494 9.246255-5.397383 9.0902-5.436494 9.207241-5.397382 9.246255-5.201825 9.129213-5.162714 9.0902-5.201825 9.285268-5.162714 9.051186-4.967156 9.207241-4.928045 9.012172-4.693376 9.324283-4.967157 9.051186-4.693376 9.129213-4.497819 9.207241-4.693376 9.246255-4.497818 9.012172-4.224039 9.246255-4.458707 9.090199-4.028481 9.168228-4.224039 9.285268-3.98937 9.0902-4.028481 9.129213-3.754701 9.246255-3.793812 9.051186-3.754701 9.246255-3.520032 9.012172-3.520032 9.324282-3.324475 9.051186-3.285363 9.129214-3.285363 9.207241-3.089806 9.246254-3.050695 8.973159-2.816025 9.246254-2.855138 9.129214-2.581356 9.168227-2.581357 9.246255-2.581357 9.129213-2.3858 9.0902-2.346688 9.285268-2.112019 9.051186-2.112019 9.246255-1.877351 9.012172-1.87735 9.324283-1.877351 9.012172-1.642681 9.129213-1.681793 9.246255-1.642682 9.207241-1.408013 9.012172-1.173344 9.246255-1.173344 9.0902-1.173344 9.168227-1.173344 9.285268-.977787 9.0902-.704006 9.129214-.704006 9.285268-.704007 9.012172-.469337 9.246255-.469338 9.012172-.469338 9.324282-.234668 9.051186-.234669h27.58271l9.012172.234669 9.207241.234668 9.129213.469338 9.168227.469338 9.246255.469337 18.258427 1.408013 9.246255.704006 9.051186.977787 9.246254 1.173344 9.012173 1.173344 9.324282 1.173344 9.012172 1.173344 9.168227 1.408013 9.207241 1.642682 9.207241 1.681793 9.012173 1.642681 9.246254 1.877351 9.129214 1.87735 9.168227 1.877351 9.246255 2.112019 9.129213 2.112019 9.0902 2.346688 9.285268 2.3858 9.051186 2.581357 9.246255 2.581357 9.012172 2.581356 9.324282 2.855138 9.012173 2.816025 18.375468 6.140501 9.207241 3.285363 9.012172 3.285363 9.246255 3.324475 9.0902 3.520032 9.168227 3.520032 9.285268 3.754701 9.129214 3.793812 9.090199 3.754701 9.246255 4.028481 9.051186 3.98937 9.246255 4.224039 9.012172 4.028481 9.324282 4.458707 9.051186 4.224039 9.129214 4.497818 9.207241 4.693376 9.246254 4.497819 9.012173 4.693376 9.207241 4.967157 9.129213 4.693376 9.168227 4.928045 9.246255 4.967156 9.129213 5.162714 9.129214 5.201825 9.246255 5.162714 9.051186 5.201825 9.246254 5.397382 9.012173 5.201826 9.324282 5.632051 9.012172 5.436494 9.129214 5.397382 9.246254 5.671163 9.246255 5.86672 8.973158 5.671163 9.246255 5.632051 9.129214 5.905832 9.168227 5.905832 9.246255 5.86672 9.129213 5.86672 9.0902 5.905832 9.285268 6.1405 9.051186 5.86672 9.246255 6.1405 9.012172 6.101389 9.324282 6.140501 9.012173 6.101389 9.129213 6.375169 9.246255 6.101389 9.207241 6.375169 9.012172 6.140501 9.246255 6.336057 9.090199 6.375169 9.168228 6.336058 9.285268 6.609838 9.0902 6.336058 9.129213 6.375169 9.246255 6.609838 9.051186 6.336058 9.246255 6.609838 9.012172 6.336058 9.324282 6.609838 9.051186 6.375169 9.129214 6.570726 9.207241 6.609839 9.246254 6.570726 8.973159 6.609838 9.246254 6.609838 9.129214 6.570727 9.168227 6.844506 9.246255 6.570727 9.129213 6.609838 9.0902 6.609838 9.285268 6.805395 9.051186 6.609838 9.246255 6.805396 9.012172 6.609838 9.324283 6.844507 9.012172 6.570726 9.129213 6.844507 9.246255 6.805395 9.207241 6.609838 9.012172 6.844507 9.246255 6.805396 9.0902 6.609838 9.207241 6.844506 9.246254 6.805396 9.129214 6.844507 9.0902 6.805395 9.285268 6.844507 9.012172 6.609838 9.246255 6.805395 9.012172 6.844507 9.324282 6.805395 9.051186 6.844507 9.129214 6.844507 9.207241 6.805395 9.246255 6.844507 9.012172 6.844507 9.246254 6.805395 9.0902 6.844507 9.168227 6.805395 9.246255 6.844507 9.129214 6.844507 9.129213 6.805395 9.246255 7.079176 9.051186 6.805395 9.246254 6.844507 9.012173 6.844507 9.324282 6.805395 9.051186 6.844507 9.0902 6.844507 9.246254 7.040064 9.246255 6.844507 9.012172 6.805395 9.207241 6.844507 9.129214 6.844507 9.168227 6.805395 9.246255 7.079176 9.129213 6.844507 9.129214 6.805395 9.246254 7.079176 9.051186 6.609838 9.246255 7.040064 9.012172 6.844507 9.324282 7.040064 9.012173 6.609838 9.129213 7.079176 9.246255 6.805395 9.207241 6.844507 9.012172 6.844507 9.246255 7.040064 9.0902 6.844507 9.168227 6.805395 9.285268 7.079176 9.129214 6.844506 9.090199 6.805396 9.246255 7.079175 9.051186 6.609838 9.285269 7.040065 8.973158 6.844506 9.324282 7.040065 9.051186 6.609838" style="fill:none;stroke-width:11.4143;stroke-linecap:round;stroke-linejoin:round;stroke:#006400;stroke-miterlimit:10;transform:matrix(.100125,0,0,.0998748,-22,271)"/></g><style>.a{fill:none;stroke:#bfbfbf;stroke-dasharray:11.4143,17.1214;stroke-linecap:round;stroke-miterlimit:10;stroke-width:5.70714;transform:matrix(.100125,0,0,.0998748,-22,271)}.b{fill:none;stroke:#000;stroke-miterlimit:10;transform:matrix(.100125,0,0,.0998748,-22,271)}.c{stroke-linecap:square;stroke-width:11.4143}.d{stroke-width:5.70714}.e{fill:none;stroke:#bfbfbf;stroke-linecap:round;stroke-miterlimit:10;stroke-width:5.70714;transform:matrix(.100125,0,0,.0998748,-22,271)}</style></svg>