<svg xmlns="http://www.w3.org/2000/svg" width="387pt" height="275pt" viewBox="0 0 387 275"><defs><path d="M2.0625-5.3125c-.5 0-.9375.21875-1.21875.578125C.5-4.265625.328125-3.5625.328125-2.578125c0 1.796875.59375 2.75 1.734375 2.75 1.125 0 1.734375-.953125 1.734375-2.703125 0-1.03125-.15625-1.71875-.515625-2.203125C3-5.109375 2.5625-5.3125 2.0625-5.3125zm0 .5781c.71875 0 1.0625.71875 1.0625 2.140625C3.125-1.078125 2.78125-.375 2.046875-.375 1.34375-.375 1-1.109375 1-2.5625c0-1.453125.34375-2.171875 1.0625-2.171875zm0 0" id="b"/><path d="M1.9375-3.7812V0h.6719v-5.3125h-.4375c-.2344.8125-.39065.921875-1.406275 1.046875v.4844zm0 0" id="c"/><path d="M3.7969-.6562H1c.0625-.4375.3125-.703125.953125-1.09375l.75-.4062c.75-.40625 1.125-.953125 1.125-1.59375 0-.453125-.171875-.859375-.484375-1.140625C3.015625-5.1875 2.625-5.3125 2.125-5.3125c-.671875 0-1.171875.234375-1.46875.6875-.1875.28125-.265625.609375-.28125 1.15625h.6563c.03125-.359375.078125-.578125.15625-.75.171875-.328125.515625-.515625.921875-.515625.59375 0 1.046875.421875 1.046875.984375 0 .421875-.25.78125-.71875 1.0625l-.6875.3906C.640625-1.671875.3125-1.171875.25 0h3.5469zm0 0" id="d"/><path d="M1.6563-2.4375h.3594c.734375 0 1.109375.328125 1.109375.953125C3.125-.8125 2.703125-.40625 2.015625-.40625 1.296875-.40625.9375-.765625.90625-1.546875H.2344C.265625-1.125.34375-.84375.46875-.59375.75-.09375 1.265625.171875 2 .171875c1.09375 0 1.796875-.65625 1.796875-1.65625 0-.671875-.265625-1.046875-.90625-1.265625.5-.203125.75-.578125.75-1.109375 0-.90625-.609375-1.453125-1.625-1.453125C.9375-5.3125.375-4.734375.359375-3.59375h.6563c0-.328125.03125-.515625.109375-.671875.15625-.296875.484375-.46875.90625-.46875.578125 0 .9375.34375.9375.90625 0 .375-.140625.59375-.4375.71875C2.359375-3.03125 2.125-3 1.65625-3zm0 0" id="e"/><path d="M2.4531-1.2812V0h.6563v-1.2812h.7969v-.5938h-.7969v-3.4375H2.625L.2031-1.9687v.6875zm0-.5937H.7813l1.6719-2.3125zm0 0" id="f"/><path d="M3.5625-5.3125H.8281L.4219-2.4219h.6094c.3125-.375.5625-.5.984375-.5.703125 0 1.15625.484375 1.15625 1.28125 0 .765625-.4375 1.234375-1.15625 1.234375-.578125 0-.9375-.296875-1.09375-.90625h-.6562c.09375.4375.15625.65625.3125.84375.3125.40625.84375.640625 1.453125.640625 1.0625 0 1.8125-.78125 1.8125-1.90625C3.84375-2.78125 3.15625-3.5 2.125-3.5c-.375 0-.671875.09375-.984375.3125l.2188-1.4844H3.5625zm0 0" id="g"/><path d="M3.7344-3.9375c-.125-.859375-.703125-1.375-1.5-1.375-.59375 0-1.109375.28125-1.4375.75-.328125.515625-.46875 1.171875-.46875 2.140625 0 .890625.125 1.46875.4375 1.9375.296875.421875.75.65625 1.34375.65625 1.015625 0 1.734375-.75 1.734375-1.796875 0-.984375-.671875-1.6875-1.625-1.6875-.53125 0-.9375.203125-1.21875.59375 0-1.296875.421875-2.015625 1.1875-2.015625.453125 0 .78125.296875.890625.796875zM2.1407-2.7187c.640625 0 1.03125.4375 1.03125 1.15625 0 .65625-.453125 1.15625-1.0625 1.15625-.60945-5e-5-1.0782-.515675-1.0782-1.203175 0-.65625.453125-1.109375 1.109375-1.109375zm0 0" id="h"/><clipPath id="i"><path d="M24 9.5h1v255h-1zm0 0"/></clipPath><clipPath id="j"><path d="M24 256h340v1H24zm0 0"/></clipPath><clipPath id="k"><path d="M24 9.5h1v255h-1zm0 0"/></clipPath><clipPath id="l"><path d="M80 9.5h1v255h-1zm0 0"/></clipPath><clipPath id="m"><path d="M137 9.5h1v255h-1zm0 0"/></clipPath><clipPath id="n"><path d="M193 9.5h2v255h-2zm0 0"/></clipPath><clipPath id="o"><path d="M250 9.5h1v255h-1zm0 0"/></clipPath><clipPath id="p"><path d="M307 9.5h1v255h-1zm0 0"/></clipPath><clipPath id="q"><path d="M363 9.5h1v255h-1zm0 0"/></clipPath><clipPath id="r"><path d="M24 256h340v1H24zm0 0"/></clipPath><clipPath id="s"><path d="M24 218h340v2H24zm0 0"/></clipPath><clipPath id="t"><path d="M24 181h340v1H24zm0 0"/></clipPath><clipPath id="u"><path d="M24 143h340v2H24zm0 0"/></clipPath><clipPath id="v"><path d="M24 106h340v1H24zm0 0"/></clipPath><clipPath id="w"><path d="M24 68h340v2H24zm0 0"/></clipPath><clipPath id="x"><path d="M24 31h340v1H24zm0 0"/></clipPath><clipPath id="y"><path d="M24 9.5h340v255H24zm0 0"/></clipPath><path id="a" d="M240 105v2550"/></defs><g clip-path="url(#i)"><use href="#a" class="e"/></g><g clip-path="url(#j)"><path d="M240 183.398438h3400" class="e"/></g><g clip-path="url(#k)"><use href="#a" class="a"/></g><g clip-path="url(#l)"><path d="M806.679688 105v2550" class="a"/></g><g clip-path="url(#m)"><path d="M1373.320312 105v2550" class="a"/></g><g clip-path="url(#n)"><path d="M1940 105v2550" class="a"/></g><g clip-path="url(#o)"><path d="M2506.679688 105v2550" class="a"/></g><g clip-path="url(#p)"><path d="M3073.320312 105v2550" class="a"/></g><g clip-path="url(#q)"><path d="M3640 105v2550" class="a"/></g><g clip-path="url(#r)"><path d="M240 183.398438h3400" class="a"/></g><g clip-path="url(#s)"><path d="M240 558.476562h3400" class="a"/></g><g clip-path="url(#t)"><path d="M240 933.59375h3400" class="a"/></g><g clip-path="url(#u)"><path d="M240 1308.671875h3400" class="a"/></g><g clip-path="url(#v)"><path d="M240 1683.789062h3400" class="a"/></g><g clip-path="url(#w)"><path d="M240 2058.867188h3400" class="a"/></g><g clip-path="url(#x)"><path d="M240 2433.945312h3400" class="a"/></g><g class="b"><path d="M240 105h3400" class="c"/><g class="d"><path d="M240 105v50"/><path d="M296.679688 105v25"/><path d="M353.320312 105v25"/><path d="M410 105v25"/><path d="M466.679688 105v25"/><path d="M523.320312 105v25"/><path d="M580 105v25"/><path d="M636.679688 105v25"/><path d="M693.320312 105v25"/><path d="M750 105v25"/><path d="M806.679688 105v50"/><path d="M863.320312 105v25"/><path d="M920 105v25"/><path d="M976.679688 105v25"/><path d="M1033.320312 105v25"/><path d="M1090 105v25"/><path d="M1146.679688 105v25"/><path d="M1203.320312 105v25"/><path d="M1260 105v25"/><path d="M1316.679688 105v25"/><path d="M1373.320312 105v50"/><path d="M1430 105v25"/><path d="M1486.679688 105v25"/><path d="M1543.320312 105v25"/><path d="M1600 105v25"/><path d="M1656.679688 105v25"/><path d="M1713.320312 105v25"/><path d="M1770 105v25"/><path d="M1826.679688 105v25"/><path d="M1883.320312 105v25"/><path d="M1940 105v50"/><path d="M1996.679688 105v25"/><path d="M2053.320312 105v25"/><path d="M2110 105v25"/><path d="M2166.679688 105v25"/><path d="M2223.320312 105v25"/><path d="M2280 105v25"/><path d="M2336.679688 105v25"/><path d="M2393.320312 105v25"/><path d="M2450 105v25"/><path d="M2506.679688 105v50"/><path d="M2563.320312 105v25"/><path d="M2620 105v25"/><path d="M2676.679688 105v25"/><path d="M2733.320312 105v25"/><path d="M2790 105v25"/><path d="M2846.679688 105v25"/><path d="M2903.320312 105v25"/><path d="M2960 105v25"/><path d="M3016.679688 105v25"/><path d="M3073.320312 105v50"/><path d="M3130 105v25"/><path d="M3186.679688 105v25"/><path d="M3243.320312 105v25"/><path d="M3300 105v25"/><path d="M3356.679688 105v25"/><path d="M3413.320312 105v25"/><path d="M3470 105v25"/><path d="M3526.679688 105v25"/><path d="M3583.320312 105v25"/><path d="M3640 105v50"/></g></g><use x="21.2902" y="274.5" href="#b"/><use x="76.08" y="274.5" href="#c"/><use x="80.25" y="274.5" href="#b"/><use x="132.955" y="274.5" href="#d"/><use x="137.125" y="274.5" href="#b"/><use x="189.83" y="274.5" href="#e"/><use x="194" y="274.5" href="#b"/><use x="246.08" y="274.5" href="#f"/><use x="250.25" y="274.5" href="#b"/><use x="302.955" y="274.5" href="#g"/><use x="307.125" y="274.5" href="#b"/><use x="359.8301" y="274.5" href="#h"/><use x="364.0001" y="274.5" href="#b"/><g class="b"><path d="M240 2655h3400" class="c"/><g class="d"><path d="M240 2655v-50"/><path d="M296.679688 2655v-25"/><path d="M353.320312 2655v-25"/><path d="M410 2655v-25"/><path d="M466.679688 2655v-25"/><path d="M523.320312 2655v-25"/><path d="M580 2655v-25"/><path d="M636.679688 2655v-25"/><path d="M693.320312 2655v-25"/><path d="M750 2655v-25"/><path d="M806.679688 2655v-50"/><path d="M863.320312 2655v-25"/><path d="M920 2655v-25"/><path d="M976.679688 2655v-25"/><path d="M1033.320312 2655v-25"/><path d="M1090 2655v-25"/><path d="M1146.679688 2655v-25"/><path d="M1203.320312 2655v-25"/><path d="M1260 2655v-25"/><path d="M1316.679688 2655v-25"/><path d="M1373.320312 2655v-50"/><path d="M1430 2655v-25"/><path d="M1486.679688 2655v-25"/><path d="M1543.320312 2655v-25"/><path d="M1600 2655v-25"/><path d="M1656.679688 2655v-25"/><path d="M1713.320312 2655v-25"/><path d="M1770 2655v-25"/><path d="M1826.679688 2655v-25"/><path d="M1883.320312 2655v-25"/><path d="M1940 2655v-50"/><path d="M1996.679688 2655v-25"/><path d="M2053.320312 2655v-25"/><path d="M2110 2655v-25"/><path d="M2166.679688 2655v-25"/><path d="M2223.320312 2655v-25"/><path d="M2280 2655v-25"/><path d="M2336.679688 2655v-25"/><path d="M2393.320312 2655v-25"/><path d="M2450 2655v-25"/><path d="M2506.679688 2655v-50"/><path d="M2563.320312 2655v-25"/><path d="M2620 2655v-25"/><path d="M2676.679688 2655v-25"/><path d="M2733.320312 2655v-25"/><path d="M2790 2655v-25"/><path d="M2846.679688 2655v-25"/><path d="M2903.320312 2655v-25"/><path d="M2960 2655v-25"/><path d="M3016.679688 2655v-25"/><path d="M3073.320312 2655v-50"/><path d="M3130 2655v-25"/><path d="M3186.679688 2655v-25"/><path d="M3243.320312 2655v-25"/><path d="M3300 2655v-25"/><path d="M3356.679688 2655v-25"/><path d="M3413.320312 2655v-25"/><path d="M3470 2655v-25"/><path d="M3526.679688 2655v-25"/><path d="M3583.320312 2655v-25"/><path d="M3640 2655v-50"/></g></g><use x="21.2902" y="6.375" href="#b"/><use x="76.08" y="6.375" href="#c"/><use x="80.25" y="6.375" href="#b"/><use x="132.955" y="6.375" href="#d"/><use x="137.125" y="6.375" href="#b"/><use x="189.83" y="6.375" href="#e"/><use x="194" y="6.375" href="#b"/><use x="246.08" y="6.375" href="#f"/><use x="250.25" y="6.375" href="#b"/><use x="302.955" y="6.375" href="#g"/><use x="307.125" y="6.375" href="#b"/><use x="359.8301" y="6.375" href="#h"/><use x="364.0001" y="6.375" href="#b"/><g class="b"><use href="#a" class="c"/><g class="d"><path d="M240 108.398438h25"/><path d="M240 145.898438h25"/><path d="M240 183.398438h50"/><path d="M240 220.898438h25"/><path d="M240 258.4375h25"/><path d="M240 295.9375h25"/><path d="M240 333.4375h25"/><path d="M240 370.9375h25"/><path d="M240 408.4375h25"/><path d="M240 445.976562h25"/><path d="M240 483.476562h25"/><path d="M240 520.976562h25"/><path d="M240 558.476562h50"/><path d="M240 596.015625h25"/><path d="M240 633.515625h25"/><path d="M240 671.015625h25"/><path d="M240 708.515625h25"/><path d="M240 746.054688h25"/><path d="M240 783.554688h25"/><path d="M240 821.054688h25"/><path d="M240 858.554688h25"/><path d="M240 896.09375h25"/><path d="M240 933.59375h50"/><path d="M240 971.09375h25"/><path d="M240 1008.59375h25"/><path d="M240 1046.09375h25"/><path d="M240 1083.632812h25"/><path d="M240 1121.132812h25"/><path d="M240 1158.632812h25"/><path d="M240 1196.132812h25"/><path d="M240 1233.671875h25"/><path d="M240 1271.171875h25"/><path d="M240 1308.671875h50"/><path d="M240 1346.171875h25"/><path d="M240 1383.710938h25"/><path d="M240 1421.210938h25"/><path d="M240 1458.710938h25"/><path d="M240 1496.210938h25"/><path d="M240 1533.75h25"/><path d="M240 1571.25h25"/><path d="M240 1608.75h25"/><path d="M240 1646.289062h25"/><path d="M240 1683.789062h50"/><path d="M240 1721.289062h25"/><path d="M240 1758.789062h25"/><path d="M240 1796.289062h25"/><path d="M240 1833.828125h25"/><path d="M240 1871.328125h25"/><path d="M240 1908.828125h25"/><path d="M240 1946.328125h25"/><path d="M240 1983.867188h25"/><path d="M240 2021.367188h25"/><path d="M240 2058.867188h50"/><path d="M240 2096.367188h25"/><path d="M240 2133.90625h25"/><path d="M240 2171.40625h25"/><path d="M240 2208.90625h25"/><path d="M240 2246.40625h25"/><path d="M240 2283.945312h25"/><path d="M240 2321.445312h25"/><path d="M240 2358.945312h25"/><path d="M240 2396.445312h25"/><path d="M240 2433.945312h50"/><path d="M240 2471.484375h25"/><path d="M240 2508.984375h25"/><path d="M240 2546.484375h25"/><path d="M240 2583.984375h25"/><path d="M240 2621.523438h25"/></g></g><use x="12.9551" y="260.125" href="#b"/><use x=".4453" y="222.625" href="#c"/><use x="4.6153" y="222.625" href="#b"/><use x="8.7853" y="222.625" href="#b"/><use x="12.9553" y="222.625" href="#b"/><use x=".4453" y="185.125" href="#d"/><use x="4.6153" y="185.125" href="#b"/><use x="8.7853" y="185.125" href="#b"/><use x="12.9553" y="185.125" href="#b"/><use x=".4453" y="147.625" href="#e"/><use x="4.6153" y="147.625" href="#b"/><use x="8.7853" y="147.625" href="#b"/><use x="12.9553" y="147.625" href="#b"/><use x=".4453" y="110.125" href="#f"/><use x="4.6153" y="110.125" href="#b"/><use x="8.7853" y="110.125" href="#b"/><use x="12.9553" y="110.125" href="#b"/><use x=".4453" y="72.625" href="#g"/><use x="4.6153" y="72.625" href="#b"/><use x="8.7853" y="72.625" href="#b"/><use x="12.9553" y="72.625" href="#b"/><use x=".4453" y="35.125" href="#h"/><use x="4.6153" y="35.125" href="#b"/><use x="8.7853" y="35.125" href="#b"/><use x="12.9553" y="35.125" href="#b"/><g class="b"><path d="M3640 105v2550" class="c"/><g class="d"><path d="M3640 108.398438h-25"/><path d="M3640 145.898438h-25"/><path d="M3640 183.398438h-50"/><path d="M3640 220.898438h-25"/><path d="M3640 258.4375h-25"/><path d="M3640 295.9375h-25"/><path d="M3640 333.4375h-25"/><path d="M3640 370.9375h-25"/><path d="M3640 408.4375h-25"/><path d="M3640 445.976562h-25"/><path d="M3640 483.476562h-25"/><path d="M3640 520.976562h-25"/><path d="M3640 558.476562h-50"/><path d="M3640 596.015625h-25"/><path d="M3640 633.515625h-25"/><path d="M3640 671.015625h-25"/><path d="M3640 708.515625h-25"/><path d="M3640 746.054688h-25"/><path d="M3640 783.554688h-25"/><path d="M3640 821.054688h-25"/><path d="M3640 858.554688h-25"/><path d="M3640 896.09375h-25"/><path d="M3640 933.59375h-50"/><path d="M3640 971.09375h-25"/><path d="M3640 1008.59375h-25"/><path d="M3640 1046.09375h-25"/><path d="M3640 1083.632812h-25"/><path d="M3640 1121.132812h-25"/><path d="M3640 1158.632812h-25"/><path d="M3640 1196.132812h-25"/><path d="M3640 1233.671875h-25"/><path d="M3640 1271.171875h-25"/><path d="M3640 1308.671875h-50"/><path d="M3640 1346.171875h-25"/><path d="M3640 1383.710938h-25"/><path d="M3640 1421.210938h-25"/><path d="M3640 1458.710938h-25"/><path d="M3640 1496.210938h-25"/><path d="M3640 1533.75h-25"/><path d="M3640 1571.25h-25"/><path d="M3640 1608.75h-25"/><path d="M3640 1646.289062h-25"/><path d="M3640 1683.789062h-50"/><path d="M3640 1721.289062h-25"/><path d="M3640 1758.789062h-25"/><path d="M3640 1796.289062h-25"/><path d="M3640 1833.828125h-25"/><path d="M3640 1871.328125h-25"/><path d="M3640 1908.828125h-25"/><path d="M3640 1946.328125h-25"/><path d="M3640 1983.867188h-25"/><path d="M3640 2021.367188h-25"/><path d="M3640 2058.867188h-50"/><path d="M3640 2096.367188h-25"/><path d="M3640 2133.90625h-25"/><path d="M3640 2171.40625h-25"/><path d="M3640 2208.90625h-25"/><path d="M3640 2246.40625h-25"/><path d="M3640 2283.945312h-25"/><path d="M3640 2321.445312h-25"/><path d="M3640 2358.945312h-25"/><path d="M3640 2396.445312h-25"/><path d="M3640 2433.945312h-50"/><path d="M3640 2471.484375h-25"/><path d="M3640 2508.984375h-25"/><path d="M3640 2546.484375h-25"/><path d="M3640 2583.984375h-25"/><path d="M3640 2621.523438h-25"/></g></g><use x="370.25" y="260.125" href="#b"/><use x="370.25" y="222.625" href="#c"/><use x="374.42" y="222.625" href="#b"/><use x="378.59" y="222.625" href="#b"/><use x="382.76" y="222.625" href="#b"/><use x="370.25" y="185.125" href="#d"/><use x="374.42" y="185.125" href="#b"/><use x="378.59" y="185.125" href="#b"/><use x="382.76" y="185.125" href="#b"/><use x="370.25" y="147.625" href="#e"/><use x="374.42" y="147.625" href="#b"/><use x="378.59" y="147.625" href="#b"/><use x="382.76" y="147.625" href="#b"/><use x="370.25" y="110.125" href="#f"/><use x="374.42" y="110.125" href="#b"/><use x="378.59" y="110.125" href="#b"/><use x="382.76" y="110.125" href="#b"/><use x="370.25" y="72.625" href="#g"/><use x="374.42" y="72.625" href="#b"/><use x="378.59" y="72.625" href="#b"/><use x="382.76" y="72.625" href="#b"/><use x="370.25" y="35.125" href="#h"/><use x="374.42" y="35.125" href="#b"/><use x="378.59" y="35.125" href="#b"/><use x="382.76" y="35.125" href="#b"/><g clip-path="url(#y)"><path d="M240 220.898438l6.25.3125 12.5.546874 6.25.3125 6.25.273438 18.75.9375 6.25.273438 37.5 1.875 6.25.351562 12.5.625 6.25.351562 6.25.3125 6.25.351563 6.25.3125 18.75 1.054687 6.25.3125 12.5.703126 6.25.390624 25 1.40625 6.25.390626 6.25.351562 12.5.78125 6.25.351562 37.5 2.34375 6.25.429688 12.5.78125 6.25.429688 6.25.390624 12.5.859376 6.25.390624 18.75 1.289063 6.25.46875 12.5.859375 6.25.46875 6.25.429688 6.25.46875 6.25.429687 43.75 3.28125 6.25.507813 6.25.46875 12.5 1.015624 6.25.46875 18.75 1.523438 6.25.546875 12.5 1.015625 6.25.546875 6.25.507813 43.75 3.828124 12.5 1.171876 6.25.546874 37.5 3.515626 6.25.625 6.25.585937 37.5 3.75 6.25.664063 6.25.625 31.25 3.320312 6.25.703125L965 274.0625l25 2.8125 6.25.742188 6.25.703124 6.25.742188 6.25.703125 18.75 2.226563 6.25.78125 6.25.742187 6.25.78125 6.25.742187 18.75 2.34375 6.25.820313 6.25.78125 31.25 4.101563 6.25.859374 6.25.820313 25 3.4375 6.25.898437 6.25.859376 18.75 2.695312 6.25.9375 6.25.898438 31.25 4.6875L1265 314.0625l31.25 5.078125 6.25 1.054687 6.25 1.015626 12.5 2.109374 6.25 1.09375 6.25 1.054688 18.75 3.28125 6.25 1.132812 6.25 1.09375 12.5 2.265626 6.25 1.171874 6.25 1.132813 18.75 3.515625 6.25 1.210938 6.25 1.171874 12.5 2.421876 6.25 1.25 6.25 1.210937 12.5 2.5 6.25 1.289063 6.25 1.25 12.5 2.578124 6.25 1.328126 6.25 1.289062 12.5 2.65625 6.25 1.367188 6.25 1.328124 12.5 2.734376 6.25 1.40625 6.25 1.367187 6.25 1.40625 6.25 1.445313 6.25 1.40625 12.5 2.890624 6.25 1.484376L1590 377.5l12.5 2.96875 25 6.09375 12.5 3.125 6.25 1.601562 6.25 1.5625 12.5 3.203126 18.75 4.921874 25 6.71875 12.5 3.4375 18.75 5.273438 25 7.1875 6.25 1.835938 6.25 1.875 6.25 1.835937 6.25 1.875 25 7.65625 6.25 1.953125 6.25 1.992188 6.25 1.953124 6.25 1.992188 18.75 6.09375 18.75 6.210938 12.5 4.21875 12.5 4.296874 18.75 6.5625 12.5 4.453126 12.5 4.53125 18.75 6.914062 12.5 4.6875 12.5 4.765625 6.25 2.421875 6.25 2.460938 6.25 2.421874 6.25 2.460938 12.5 5 12.5 5.078125 12.5 5.15625 12.5 5.234375 12.5 5.3125 12.5 5.390625 12.5 5.46875L2115 551.25l6.25 2.8125 6.25 2.851562 6.25 2.8125 12.5 5.78125 12.5 5.859376 6.25 2.96875 18.75 9.023437 6.25 3.085937 6.25 3.046876 18.75 9.375 18.75 9.609374 6.25 3.242188 12.5 6.5625 6.25 3.320312 6.25 3.359376 6.25 3.398437 6.25 3.359375 12.5 6.875 6.25 3.515625 6.25 3.476563 12.5 7.109374 12.5 7.1875 6.25 3.632813 6.25 3.671875 12.5 7.421875 6.25 3.75 12.5 7.578125 12.5 7.734375 12.5 7.8125 6.25 3.945313 6.25 4.023437 6.25 3.984375 12.5 8.125 12.5 8.28125 12.5 8.359375 12.5 8.515625 6.25 4.296875 6.25 4.335937 6.25 4.375 12.5 8.828126 12.5 8.984374 6.25 4.570313 6.25 4.53125 6.25 4.648437 6.25 4.609376 6.25 4.6875 6.25 4.726562 12.5 9.53125 12.5 9.6875 6.25 4.882812 12.5 9.921876 6.25 5 12.5 10.15625 6.25 5.117187 6.25 5.15625 12.5 10.46875 6.25 5.273437 12.5 10.703126 6.25 5.390624 12.5 10.9375 12.5 11.09375 6.25 5.625 6.25 5.664063 6.25 5.703125 6.25 5.742188 12.5 11.640624 6.25 5.859376 6.25 5.9375 6.25 5.976562 6.25 6.015625 6.25 6.054687 12.5 12.265626 6.25 6.210937 6.25 6.25 6.25 6.289063 6.25 6.328124 6.25 6.40625 6.25 6.445313 6.25 6.484375 6.25 6.523438 6.25 6.601562 6.25 6.640625 6.25 6.679687 6.25 6.757813 6.25 6.796875 6.25 6.835938 6.25 6.914062 6.25 6.953125 6.25 6.992187 6.25 7.070313 6.25 7.109375 6.25 7.148438 6.25 7.226562 6.25 7.265625 6.25 7.34375 6.25 7.382813 6.25 7.460937 6.25 7.5 6.25 7.539063 6.25 7.617187 6.25 7.65625 6.25 7.734375 6.25 7.8125 6.25 7.851562 6.25 7.890626 6.25 7.96875 6.25 8.046874 6.25 8.085938 6.25 8.164062 6.25 8.203126 6.25 8.28125 6.25 8.359374 6.25 8.398438 6.25 8.476562 6.25 8.554688 6.25 8.59375 6.25 8.671875 6.25 8.710937 6.25 8.789063 12.5 17.8125 6.25 9.023437 6.25 9.0625 6.25 9.140626 6.25 9.21875 6.25 9.296874 6.25 9.335938 6.25 9.414062 6.25 9.492188 6.25 9.570312 6.25 9.648438 6.25 9.726562 6.25 9.765626 6.25 9.882812 6.25 9.921875 6.25 10.039063 6.25 10.078124 6.25 10.195313L3183.75 1535l6.25 10.3125 6.25 10.390625 6.25 10.507813 6.25 10.546874 6.25 10.664063 6.25 10.703125 6.25 10.820312 6.25 10.898438 6.25 10.976562 6.25 11.054688 6.25 11.132812 6.25 11.25 6.25 11.289063 6.25 11.40625 6.25 11.484375 6.25 11.5625 6.25 11.679688 6.25 11.757812 6.25 11.835938 6.25 11.914062 6.25 12.03125 6.25 12.109375 6.25 12.226563 6.25 12.304687 6.25 12.382813 6.25 12.460937 6.25 12.617187 6.25 12.65625 6.25 12.8125 6.25 12.851563 6.25 12.96875 6.25 13.085937 6.25 13.164063 6.25 13.28125L3402.5 1947.5l6.25 13.476562 6.25 13.59375 6.25 13.671876 6.25 13.789062 6.25 13.90625 6.25 13.984375 6.25 14.101563 6.25 14.21875 6.25 14.335937 6.25 14.414063 6.25 14.53125 6.25 14.6875 6.25 14.765624 6.25 14.882813 6.25 14.960937 6.25 15.117188 6.25 15.234375 6.25 15.3125 6.25 15.46875 6.25 15.585937 6.25 15.664063 6.25 15.820313 6.25 15.9375 6.25 16.054687 6.25 16.171875 6.25 16.289062 6.25 16.445313 6.25 16.5625 6.25 16.679687 6.25 16.796876 6.25 16.914062 6.25 17.070312 6.25 17.1875 6.25 17.34375 6.25 17.460938 6.25 17.578125 6.25 17.695313 6.25 17.890624" style="fill:none;stroke-width:12.5;stroke-linecap:round;stroke:#00008b;stroke-miterlimit:10;transform:matrix(.1,0,0,-.1,0,275)"/></g><style>.a{fill:none;stroke:#bfbfbf;stroke-dasharray:12.5,18.75;stroke-linecap:round;stroke-miterlimit:10;stroke-width:6.25;transform:matrix(.1,0,0,-.1,0,275)}.b{fill:none;stroke:#000;stroke-miterlimit:10;transform:matrix(.1,0,0,-.1,0,275)}.c{stroke-linecap:square;stroke-width:12.5}.d{stroke-width:6.25}.e{fill:none;stroke:#bfbfbf;stroke-linecap:round;stroke-miterlimit:10;stroke-width:6.25;transform:matrix(.1,0,0,-.1,0,275)}</style></svg>