<svg xmlns="http://www.w3.org/2000/svg" width="193pt" height="116pt" viewBox="0 0 193 116"><defs><path d="M5.3594-.9375l-.0937-.2344c-.4375.359375-.734375.53125-.921875.53125-.1875 0-.34375-.109375-.453125-.34375-.109375-.234375-.25-.671875-.3125-1.03125L3.375-3.2187l.4219-.5781c.546875-.78125.875-1.0625 1.25-1.0625.1875 0 .328125.109375.390625.28125L5.6094-4.625l.1719-1.0156c-.140625-.078125-.25-.125-.359375-.125-.46875 0-.953125.4375-1.6875 1.53125l-.4531.6563-.0625-.5625c-.140625-1.1875-.46875-1.625-1.171875-1.625-.3125 0-.578125.09375-.6875.25l-.6875 1L.875-4.4062c.359375-.40625.59375-.5625.828125-.5625.390625 0 .65625.484375.859375 1.65625l.125.75-.4687.7344c-.515625.796875-.921875 1.1875-1.265625 1.1875C.78125-.640625.640625-.6875.625-.75l-.1406-.3437-.2344.0468c0 .2344-.015625.39065-.09375.76565C.125-.125.125-.09375.109375-.015625.28125.078125.484375.125.625.125c.390625 0 .859375-.34375 1.234375-.90625l.9063-1.3906.125.8281C3.0625-.328125 3.328125.125 3.75.125c.265625 0 .65625-.203125 1.03125-.546875zm0 0" id="a"/><path d="M4.4063-4.3594c.03125-.453125.09375-.84375.1875-1.328125-.140625-.0625-.1875-.078125-.25-.078125-.359375 0-.734375.296875-1.171875.90625-.40625.578125-.8125 1.15625-1.109375 1.796875l.2969-1.5c.0625-.265625.15625-.546875.15625-.8125 0-.25-.09375-.390625-.28125-.390625-.25 0-.703125.25-1.59375.890625L.3125-4.6406l.0781.2344.3906-.25c.328125-.203125.46875-.265625.5625-.265625.125 0 .203125.109375.203125.265625 0 .6875-.5 3.15625-.984375 4.6875l.125.0781c.25-.078125.515625-.140625.796875-.1875L1.7969-1.5c.21875-1 .484375-1.625 1.015625-2.3125.40625-.53125.71875-.78125.984375-.78125.1875 0 .296875.0625.4375.234375zm0 0" id="b"/><path d="M9.0156-7.9375v-.3281c-.3906.0156-.7656.031225-1.156225.031225-.5 0-.984375-.015625-1.46875-.03125v.3281l.2969.0313c.453125.03125.6875.15625.6875.375 0 .125-.046875.265625-.1875.5L3.7031-1.1406l-.8437-6.3125c-.046875-.375.171875-.453125.5-.453125l.5-.0312v-.3281c-.4844.015525-.9844.03115-1.4844.03115-.5 0-.984375-.015625-1.484375-.03125v.3281l.2969.0313c.53125.046875.65625.125.71875.5625L2.9531.0938h.5781l4.5313-7.3907c.296875-.484375.390625-.578125.734375-.609375zm0 0" id="c"/><path d="M3.6563.0313v-.2656l-.4531-.0312c-.484375-.03125-.5625-.125-.5625-.578125v-5.2031l-.125-.0312c-.5625.296875-1.1875.5625-1.984375.84375l.0625.375h.0781c.390625-.1875.78125-.359375 1.15625-.515625.0625 0 .078125.078125.078125.28125v4.25c0 .453125-.09375.546875-.578125.578125l-.4844.0313V.0313C1.328125.015625 1.8125 0 2.28125 0c.46875 0 .921875.015625 1.375.03125zm0 0" id="o"/><path d="M4.1094.0313c-.03125-.1875-.03125-.28125-.03125-.40625 0-.109375 0-.1875.03125-.390625L1.0625-.6719l1.6094-1.6875c.843725-.906225 1.10935-1.3906 1.10935-2.04685 0-1.015625-.6875-1.640625-1.796875-1.640625-.640625 0-1.0625.1875-1.5.625l-.1406 1.1875h.25l.1094-.4062c.140625-.5.46875-.71875 1.046875-.71875.75 0 1.234375.46875 1.234375 1.21875 0 .65625-.359375 1.296875-1.359375 2.359375L.1406-.2031v.2344C.78125.015625 1.453125 0 2.09375 0c.671875 0 1.34375.015625 2.015625.03125zm0 0" id="p"/><path d="M8.4375-7.9062v-.3594c-.421875.015625-.859375.03125-1.296875.03125-.421875 0-.859375-.015625-1.28125-.03125v.3594l.625.0313c.28125.015625.40625.171875.40625.375 0 .109375-.046875.25-.09375.40625l-2.1875 5.6406L2.25-7.5c-.015625-.046875-.015625-.0625-.015625-.109375 0-.125.109375-.25.375-.265625l.6719-.0312v-.3594c-.53125.015625-1.0625.03125-1.59375.03125-.53125 0-1.0625-.015625-1.59375-.03125v.3594l.4375.0313c.25.015625.375.140625.515625.484375l2.25 5.5313c.374975.9061.5156 1.327975.7031 1.9686h.5938c.21875-.75.359375-1.140625.765625-2.09375L7.4375-7.0156c.265625-.65625.421875-.84375.640625-.859375zm0 0" id="d"/><path d="M6.1406-2.8281c0-1.625-1.171875-2.78125-2.8125-2.78125C1.59375-5.609375.375-4.375.375-2.59375.375-.90625 1.453125.234375 2.984375.234375c1.84375 0 3.15625-1.28125 3.15625-3.0625zm-1.1094.4375c0 1.375-.609375 2.234375-1.578125 2.234375C2.28125-.15625 1.5-1.296875 1.5-3c0-1.4375.5625-2.21875 1.625-2.21875 1.09375 0 1.90625 1.203125 1.90625 2.828125zm0 0" id="e"/><path d="M3.2344.0313v-.3594l-.5469-.0313C2.28125-.375 2.25-.46875 2.25-1.21875v-7.3594l-.1094-.0937c-.53125.203125-.921875.296875-1.859375.4375v.3281H.9375c.21875 0 .3125.140625.3125.5v6.1875c0 .75-.046875.84375-.453125.859375L.25-.3281v.3594C.75.015625 1.25 0 1.75 0c.5 0 .984375.015625 1.484375.03125zm0 0" id="f"/><path d="M2.1875-.6406c0-.34375-.328125-.6875-.703125-.6875-.359375 0-.6875.34375-.6875.6875 0 .359375.328125.703125.671875.703125.390625 0 .71875-.328125.71875-.703125zm0 0" id="g"/><path d="M6.7656-3.6875v-.6719H.4844v.6719zm0 2.0625v-.6719H.4844v.6719zm0 0" id="h"/><clipPath id="i"><path d="M0 99h70v16.5352H0zm0 0"/></clipPath><clipPath id="j"><path d="M123 99h70v16.5352h-70zm0 0"/></clipPath><clipPath id="k"><path d="M66 95h15v1H66zm0 0"/></clipPath><clipPath id="l"><path clip-rule="evenodd" d="M-.1914 115.5352h194v-116h-194zm80.418-20.3164v.8398l-8.6368 1.3789 7.1992-1.8008-7.1992-1.8008zm0 0"/></clipPath><clipPath id="m"><path d="M112 95h15v1h-15zm0 0"/></clipPath><clipPath id="n"><path clip-rule="evenodd" d="M-.1914 115.5352h194v-116h-194zm112.5781-19.4766v-.8398l8.6406-1.3828-7.1992 1.8008 7.1992 1.8008zm0 0"/></clipPath></defs><g class="a"><path d="M965.005937 644.198125l-150 499.804688h-315l-45-90v-45"/><path d="M928.990312 525.409063l-158.984375 528.59375h-225v-45"/><path d="M1296.802812 588.96375c8.203125-53.125 53.945313-92.34375 107.695313-92.34375 55.390625 0 101.953125 41.523438 108.242187 96.5625"/><path d="M1729.42 590.799688c-.039063-.390625-.039063-.742188-.039063-1.132813 0-53.867187 43.671875-97.5 97.5-97.5 53.59375 0 97.148438 43.242188 97.5 96.835938"/><path d="M440.005937 590.799688c0-.390625 0-.742188 0-1.132813 0-53.867187 43.632813-97.5 97.5-97.5 53.59375 0 97.148438 43.242188 97.5 96.835938"/></g><g clip-path="url(#i)"><path d="M7.38875 98.221563c95.234375-60.390625 205.625-92.421875 318.359375-92.421875 110.039062 0 217.929687 30.546875 311.640625 88.203125" class="a"/></g><g class="a"><path d="M7.427812 588.96375c8.164063-53.125 53.90625-92.34375 107.65625-92.34375 55.390625 0 101.992188 41.523438 108.28125 96.5625"/><path d="M224.615312 592.5575c4.609375-55.742187 51.210938-98.671875 107.148438-98.671875 55.273437 0 101.523437 41.914063 106.992187 96.875"/><path d="M1513.404375 592.5575c4.609375-55.742187 51.210937-98.671875 107.148437-98.671875 55.273438 0 101.523438 41.914063 106.992188 96.875"/></g><g clip-path="url(#j)"><path d="M1296.802812 98.221563c95.195313-60.390625 205.625-92.421875 318.359375-92.421875 110.039063 0 217.929688 30.546875 311.640625 88.203125" class="a"/></g><g class="a"><path d="M1926.802812 897.40125c0-49.6875-141.015625-90-315-90-173.984375 0-315 40.3125-315 90 0 49.6875 141.015625 90 315 90 173.984375 0 315-40.3125 315-90zm0 0"/><path d="M637.38875 897.40125c0-49.6875-141.015625-90-315-90-173.945313 0-315 40.3125-315 90 0 49.6875 141.054687 90 315 90 173.984375 0 315-40.3125 315-90zm0 0"/><path d="M1455.787187 1014.393438l25.195313-79.804688"/><path d="M1433.599687 1012.596563l2.382813-78.007813"/><path d="M1404.185625 1013.8075l-15-84.023437"/></g><g clip-path="url(#k)"><g clip-path="url(#l)"><path d="M665.005937 199.002813h135" class="a"/></g></g><g class="a"><path d="M717.818437 217.010625l71.992188-18.007812L717.818437 180.995"/><path d="M637.38875 244.002813h208.203125l269.414062 900h315.585938l44.414062-90v-45"/><path d="M474.185625 1014.393438l-25.195313-79.804688"/><path d="M496.998125 1012.596563l-2.382813-78.007813"/><path d="M525.787187 1013.8075l15-84.023437"/></g><g clip-path="url(#m)"><g clip-path="url(#n)"><path d="M1265.005937 199.002813h-135" class="a"/></g></g><g class="a"><path d="M1212.193437 180.995l-71.992187 18.007813 71.992187 18.007812"/><path d="M1298.01375 244.58875h-215.429688l-82.773437 279.023438"/><path d="M1296.802812 153.416875H1038.795l-73.789063 250.78125"/><path d="M637.38875 154.002813h252.617187l270 900h225v-45"/><path d="M637.38875 898.612188V92.205938"/><path d="M1296.802812 898.612188V97.010625"/><path d="M1926.802812 898.612188V92.791875"/><path d="M7.38875 898.612188V97.010625"/></g><use x="24.859" y="86.677" href="#a"/><use x="31.195" y="88.47" href="#o"/><use x="155.362" y="86.677" href="#a"/><use x="161.698" y="88.47" href="#p"/><use x="117.726" y="109.177" href="#b"/><use x="72.7266" y="109.177" href="#b"/><use x="8.715" y="104.677" href="#d"/><use x="16.2707" y="104.677" href="#e"/><use x="22.7982" y="104.677" href="#f"/><use x="26.2772" y="104.677" href="#g"/><use x="32.2548" y="104.677" href="#h"/><use x="42.2493" y="104.677" href="#c"/><use x="139.218" y="104.677" href="#d"/><use x="146.7737" y="104.677" href="#e"/><use x="153.3012" y="104.677" href="#f"/><use x="156.7802" y="104.677" href="#g"/><use x="162.7578" y="104.677" href="#h"/><use x="172.7523" y="104.677" href="#c"/><style>.a{fill:none;stroke:#000;stroke-miterlimit:10;stroke-width:4.5;transform:matrix(.1,0,0,-.1,-.192,115.537)}</style></svg>