<svg xmlns="http://www.w3.org/2000/svg" width="239pt" height="95pt" viewBox="0 0 239 95"><defs><path d="M5 .03125v-.35937l-.625-.03125c-.65625-.03125-.78125-.171875-.78125-.78125v-7.09375l-.1562-.0625c-.78125.40625-1.625.765625-2.71875 1.15625l.0781.5h.125C1.453125-6.875 1.96875-7.109375 2.5-7.34375c.0625 0 .09375.109375.09375.40625v5.79688c0 .609375-.125.75-.78125.78125l-.6719.03125v.35937C1.8125.015625 2.46875 0 3.125 0 3.734375 0 4.375.015625 5 .03125zm0 0" id="a"/><path d="M5.5625-4.375c0-2.625-.78125-3.859375-2.421875-3.859375-1.84375 0-2.796875 1.46875-2.796875 4.359375 0 1.40625.25 2.609375.671875 3.1875.421875.59375 1.09375.921875 1.828125.921875C4.65625.234375 5.5625-1.3125 5.5625-4.375zm-1.0156.59375C4.546875-1.234375 4.09375-.171875 3-.171875c-1.15625 0-1.65625-1.21875-1.65625-4.125 0-2.53125.453125-3.515625 1.578125-3.515625 1.171875 0 1.625 1.171875 1.625 4.03125zm0 0" id="b"/><path d="M5.5938.03125c-.0313-.25-.0313-.359375-.0313-.53125 0-.15625 0-.28125.03125-.546875l-4.1406.125 2.1875-2.3125c1.15625-1.21875 1.515625-1.875 1.515625-2.78125 0-1.375-.9375-2.21875-2.453125-2.21875-.8594 0-1.45315.234375-2.031275.828125L.4688-5.76562h.3437l.1563-.5625c.1875-.6875.625-.984375 1.421875-.984375 1.03125 0 1.6875.640625 1.6875 1.65625 0 .90625-.5 1.78125-1.859375 3.21875L.1875-.28125v.3125C1.078125.015625 1.96875 0 2.859375 0 3.765625 0 4.6875.015625 5.59375.03125zm0 0" id="s"/><path d="M7.2188-2.875v-.70312H.7813v.70312zm0 0" id="t"/><clipPath id="c"><path d="M135 45h104v1H135zm0 0"/></clipPath><clipPath id="d"><path d="M-.4727 95.53516h240v-96h-240zm239.6211-50.61719v.83984l-10.2617 2.27734 9-2.69922-9-2.69922zm0 0" class="b"/></clipPath><clipPath id="e"><path d="M0 58h68v2H0zm0 0"/></clipPath><clipPath id="f"><path d="M-.4727 95.53516h240v-96h-240zm68.6211-37.11719v.83984l-10.2617 2.27734 9-2.69922-9-2.69922zm0 0" class="b"/></clipPath><clipPath id="g"><path d="M13 13h1v60h-1zm0 0"/></clipPath><clipPath id="h"><path d="M-.4727 95.53516h240v-96h-240zm13.7813-82.11719h.8398l2.2773 10.25781-2.6992-9-2.6992 9zm0 0" class="b"/></clipPath><clipPath id="i"><path d="M148 0h1v95h-1zm0 0"/></clipPath><clipPath id="j"><path d="M-.4727 95.53516h240v-96h-240zM148.3086-.08203h.8398l2.2773 10.25781-2.6992-9-2.6992 9zm.8398 95.33984h-.8398l-1.3828-8.64062 1.8008 7.19922 1.8008-7.19922zm0 0" class="b"/></clipPath><clipPath id="k"><path d="M45 17h167v29H45zm0 0"/></clipPath><clipPath id="l"><path d="M-.4727 95.53516h240v-96h-240zm212.6797-50.5-.1797.78125-8.6992-.96094 7.4375.24219-6.4805-3.66016zm0 0" class="b"/></clipPath><clipPath id="m"><path d="M13 4h168v24H13zm0 0"/></clipPath><clipPath id="n"><path d="M-.4727 95.53516h240v-96h-240zM180.707 13.47657l-.1211.83984-8.7578-.05859 7.4375-.60156-6.8398-2.9375zm0 0" class="b"/></clipPath><clipPath id="o"><path d="M13 40h136v20H13zm0 0"/></clipPath><clipPath id="p"><path d="M-.4727 95.53516h240v-96h-240zM149.207 44.97657l-.1211.83984-8.6992.12109 7.3789-.71875-6.8984-2.82031zm0 0" class="b"/></clipPath><clipPath id="q"><path d="M45 58h136v20H45zm0 0"/></clipPath><clipPath id="r"><path d="M-.4727 95.53516h240v-96h-240zM180.707 76.47657l-.1211.83984-8.6992.12109 7.3789-.71875-6.8984-2.82031zm0 0" class="b"/></clipPath></defs><g clip-path="url(#c)"><g clip-path="url(#d)"><path d="M1356.995625 502.010625h1035" class="a"/></g></g><g class="a"><path d="M2293.597188 529.002813l90-26.992188-90-26.992187"/><path d="M1806.995625 547.010625v-90"/><path d="M1536.995625 817.010625h-90"/></g><g clip-path="url(#e)"><g clip-path="url(#f)"><path d="M6.995625 367.010625h675" class="a"/></g></g><path d="M583.597187 394.002813l90-26.992188-90-26.992187" class="a"/><g clip-path="url(#g)"><g clip-path="url(#h)"><path d="M141.995625 232.010625v585" class="a"/></g></g><g class="d"><g stroke-width="4.5"><path d="M115.003437 718.612188l26.992188 90 26.992187-90"/><path d="M456.995625 412.010625v-90"/><path d="M186.995625 682.010625h-90"/></g><path stroke-width="18" d="M141.995625 367.010625h315v315h-315zm0 0"/></g><g clip-path="url(#i)"><g clip-path="url(#j)"><path d="M1491.995625 7.010625v945" class="a"/></g></g><g class="d"><g stroke-width="4.5"><path d="M1510.003437 89.198125l-18.007812-71.992187-18.007813 71.992187"/><path d="M1465.003437 853.612188l26.992188 90 26.992187-90"/><path d="M2121.995625 547.010625v-90"/><path d="M1536.995625 187.010625h-90"/></g><path stroke-width="18" d="M1491.995625 502.010625l315 315 315-315-315-315zm0 0"/></g><g clip-path="url(#k)"><g clip-path="url(#l)"><path d="M456.995625 682.010625h.625l1.796875.585938 2.96875 1.210937 4.804687 1.796875 6.601563 1.796875 19.804687 6.601563 13.789063 4.179687 15 4.804688 18.007812 5.429687 19.21875 5.976563 20.976563 6.015625 22.226562 5.976562 22.773438 6.601563 24.023437 6.601562 24.570313 6.015625L698.7925 750.995l24.609375 6.015625 24.609375 4.804688 24.609375 4.179687 24.570312 3.59375 24.023438 3.007813 23.984375 2.421875 23.984375 1.796875 24.609375.585937h24.609375l25.195312-1.210937 26.40625-1.796875 26.992188-2.382813 20.390625-2.421875 21.015625-2.96875 21.601562-3.007812 23.398438-3.59375 24.609375-4.804688 25.195312-4.804687 27.578125-5.390625 28.203125-6.015625 30.625-6.601563 31.171875-6.601562 33.632813-7.8125 34.765625-8.398438 36.015625-8.398437 37.8125-8.984375 38.398437-9.609375L1471.605 672.40125l40.78125-10.195312 41.40625-10.820313 41.992187-10.78125 42.617188-10.820312 41.992187-10.78125 41.40625-10.820313 41.40625-10.78125 39.609375-10.195312 38.398438-10.195313 37.1875-10.195312 34.804687-9.023438 32.382813-8.398437 30-8.398438 26.992187-7.1875 24.609375-6.601562 21.015626-5.390625 18.59375-4.804688 15-4.21875 12.617187-3.59375 9.570313-2.382812 7.226562-1.796875 10.78125-3.007813" class="c"/></g></g><path d="M2047.581562 540.995l64.804688-36.601562-74.375 2.421875" class="a"/><g clip-path="url(#m)"><g clip-path="url(#n)"><path d="M141.995625 682.010625h.625l1.796875.585938 2.96875 1.210937 4.804687 1.210938 6.601563 2.382812 9.023437 3.007813 11.367188 3.59375 14.414062 4.179687 16.796875 5.429688 19.21875 5.976562 21.601563 7.226563 24.570312 7.1875 26.40625 8.398437 28.203125 8.984375 30 9.023438 31.796875 9.609375 32.421875 10.195312 33.007813 10.195313 34.179687 10.195312 33.59375 9.609375 34.21875 10.195313 33.59375 9.609375 33.007813 9.570312 32.382812 9.023438 31.210938 8.398437 30.585937 7.773438 30 7.8125 28.203125 7.1875 27.617188 6.015625 26.40625 6.015625 25.78125 5.390625 24.609375 4.804687 23.984375 4.179688 23.398437 3.59375 22.226563 3.007812 22.1875 2.421875 22.1875 1.796875 23.398437 1.796875 22.8125 1.210938 23.984375.585937h24.023438l24.570312-.585937 25.234375-1.210938 26.367188-1.210937 27.617187-1.796875 28.203125-2.382813 29.375-3.007812 30-3.007813 31.210938-3.59375 31.796875-4.21875 33.007812-4.179687 33.007813-4.804688 67.1875-9.609375 33.59375-5.390625 33.007812-4.804687 31.796875-5.390625 30.625-4.804688 29.375-4.804687 27.617188-4.804688 25.195312-4.179687 23.398438-3.632813 20.390625-3.59375 18.007812-2.96875 15-2.421875 11.992188-2.382812 10.195312-1.796875 7.226563-1.210938 10.78125-1.796875" class="c"/></g></g><path d="M1728.987812 848.1825l68.398438-29.375-74.375-6.015625" class="a"/><g clip-path="url(#o)"><g clip-path="url(#p)"><path d="M141.995625 367.010625h.625l1.796875.585938 3.59375 1.210937 4.804687 1.210938 7.1875 1.796875 9.609375 2.96875 12.578125 3.007812 14.414063 4.21875 18.007812 4.804688 19.804688 5.390625 22.773437 5.976562 25.195313 6.601563 27.03125 7.226562 28.789062 7.773438 30 7.8125L399.4175 435.995l64.765625 16.796875 32.421875 8.398438 32.382812 8.398437 32.421875 7.8125 31.210938 7.8125 30.585937 7.1875 29.414063 7.1875 28.164062 6.601563 27.617188 6.601562 26.40625 5.390625 24.609375 5.429688 23.984375 4.804687 22.8125 4.179688 21.601562 3.59375 20.976563 3.59375 19.804687 2.421875 19.21875 3.007812 19.179688 1.796875 22.1875 1.796875 22.226562 1.796875 22.1875.585938 22.8125.625h22.773438l24.023437-.625 24.609375-.585938 25.195313-1.796875 25.78125-1.796875 26.992187-2.421875 27.617188-2.382812 84.609375-9.023438 28.789062-3.59375L1314.4175 526.62l26.367187-3.632812 25.234375-3.59375 23.398438-3.007813 21.601562-2.96875 19.179688-2.421875 16.210937-2.382812 13.789063-1.796875 10.820312-1.796875 8.398438-1.210938 12.578125-1.796875" class="c"/></g></g><path d="M1413.401875 531.385625l68.984375-28.203125-73.789063-7.1875" class="a"/><g clip-path="url(#q)"><g clip-path="url(#r)"><path d="M456.995625 367.010625h1.210937l1.796875-.625h3.59375l6.015625-.585937 8.398438-1.210938 11.40625-1.171875 14.375-1.796875 16.796875-1.835937 20.429687-2.382813 22.773438-2.382812 25.820312-3.007813 28.203125-3.007812 30-3.59375 31.796875-3.59375 33.007813-4.21875 34.179687-3.59375 34.21875-4.21875 34.179688-3.59375 34.804687-4.179688 33.59375-3.59375 33.007813-4.21875 31.796875-3.59375 31.210937-3.59375 29.375-3.59375 28.203125-3.007812 26.992188-3.59375 25.820312-3.007813 24.609375-3.007812 23.398438-3.007813 22.1875-3.007812 21.015625-2.382813 20.976562-3.007812 19.804688-2.382813 22.1875-3.007812 22.226562-3.007813 22.1875-3.007812 22.8125-3.59375 22.773438-3.007813 24.023437-3.59375 24.609375-3.59375 25.195313-4.179687 25.78125-3.632813 26.992187-4.179687 27.617188-4.21875L1516.605 233.1825l28.203125-4.179687 28.203125-4.804688 28.789062-4.179687 27.617188-4.21875 26.367187-4.179688 25.234375-4.21875 23.398438-3.59375 21.601562-3.59375 19.179688-3.007812 16.210937-3.007813 13.789063-1.796875 10.820312-1.796875 8.398438-1.796875 12.578125-1.796875" class="c"/></g></g><path d="M1728.401875 216.385625l68.984375-28.203125-73.789063-7.1875" class="a"/><use x="180.251" y="58.816" href="#a"/><use x="138.273" y="55.216" href="#b"/><use x="150.491" y="58.816" href="#b"/><use x="138.273" y="22.816" href="#a"/><use x="45.248" y="72.317" href="#a"/><use x="3.27" y="68.717" href="#b"/><use x="15.488" y="72.317" href="#b"/><use x="3.27" y="36.316" href="#a"/><use x="211.752" y="58.817" href="#s"/><use x="130.275" y="85.817" href="#t"/><use x="138.273" y="85.817" href="#a"/><style>.a{fill:none;stroke:#000;stroke-miterlimit:10;stroke-width:4.5;transform:matrix(.1,0,0,-.1,-.473,95.537)}.b{clip-rule:evenodd}.c{fill:none;stroke:#000;stroke-dasharray:9,27;stroke-dashoffset:27;stroke-linejoin:bevel;stroke-miterlimit:10;stroke-width:4.5;transform:matrix(.1,0,0,-.1,-.473,95.537)}.d{fill:none;stroke:#000;stroke-miterlimit:10;transform:matrix(.1,0,0,-.1,-.473,95.537)}</style></svg>