<svg xmlns="http://www.w3.org/2000/svg" width="161pt" height="79pt" viewBox="0 0 161 79"><defs><path d="M5.5-8.21875 3.7813-9.54687l-.3125.17188.8281.79688H.2188v.70311h4.0781l-.8281.78125.3125.1875zm0 0" id="a"/><path d="M7.2188-2.875v-.70312H.7813v.70312zm0 0" id="r"/><path d="M5.3594-.9375l-.0937-.23437c-.4375.359375-.734375.53125-.921875.53125-.1875 0-.34375-.109375-.453125-.34375-.109375-.234375-.25-.671875-.3125-1.03125L3.375-3.21875l.4219-.57812c.546875-.78125.875-1.0625 1.25-1.0625.1875 0 .328125.109375.390625.28125L5.6094-4.625l.1719-1.01562c-.140625-.078125-.25-.125-.359375-.125-.46875 0-.953125.4375-1.6875 1.53125l-.4531.65625-.0625-.5625c-.140625-1.1875-.46875-1.625-1.171875-1.625-.3125 0-.578125.09375-.6875.25l-.6875 1 .2031.10937c.359375-.40625.59375-.5625.828125-.5625.390625 0 .65625.484375.859375 1.65625l.125.75-.4687.73438c-.515625.796875-.921875 1.1875-1.265625 1.1875C.78125-.640625.640625-.6875.625-.75l-.1406-.34375-.2344.04688c0 .23437-.015625.39062-.09375.76562C.125-.125.125-.09375.109375-.015625.28125.078125.484375.125.625.125c.390625 0 .859375-.34375 1.234375-.90625l.9063-1.39062.125.82813C3.0625-.328125 3.328125.125 3.75.125c.265625 0 .65625-.203125 1.03125-.546875zm0 0" id="b"/><path d="M2.1875-.64062c0-.34375-.328125-.6875-.703125-.6875-.359375 0-.6875.34375-.6875.6875 0 .359375.328125.703125.671875.703125.390625 0 .71875-.328125.71875-.703125zm0 0" id="s"/><path d="M5 .03125v-.35937l-.625-.03125c-.65625-.03125-.78125-.171875-.78125-.78125v-7.09375l-.1562-.0625c-.78125.40625-1.625.765625-2.71875 1.15625l.0781.5h.125C1.453125-6.875 1.96875-7.109375 2.5-7.34375c.0625 0 .09375.109375.09375.40625v5.79688c0 .609375-.125.75-.78125.78125l-.6719.03125v.35937C1.8125.015625 2.46875 0 3.125 0 3.734375 0 4.375.015625 5 .03125zm0 0" id="t"/><path d="M5.4844-3.03125c0-1.34375-.96875-2.296875-2.328125-2.296875-.578125 0-1 .15625-1.75.59375l.1094-2.5 3.6406.0625.0625-.0625c-.015625-.21875-.015625-.28125-.015625-.46875 0-.1875 0-.25.015625-.46875l-.0625-.0625c0 0-1.265625.0625-2.078125.0625-.8125 0-2.078125-.0625-2.078125-.0625l-.0625.0625.0313 1.64063c0 1.046875-.03125 2.15625-.078125 2.6875l.25.0625c.5625-.5625.875-.71875 1.46875-.71875C3.75-4.5 4.46875-3.6875 4.46875-2.40625c0 1.328125-.765625 2.109375-2.0625 2.109375-.65625 0-1.25-.21875-1.421875-.53125L.4375-1.8125l-.2812.17188c.28125.6875.421875 1.0625.578125 1.59375.34375.171875.8125.28125 1.328125.28125.8125 0 1.65625-.34375 2.3125-.921875.734375-.640625 1.109375-1.453125 1.109375-2.34375zm0 0" id="u"/><path d="M5.5938.03125c-.0313-.25-.0313-.359375-.0313-.53125 0-.15625 0-.28125.03125-.546875l-4.1406.125 2.1875-2.3125c1.15625-1.21875 1.515625-1.875 1.515625-2.78125 0-1.375-.9375-2.21875-2.453125-2.21875-.8594 0-1.45315.234375-2.031275.828125L.4688-5.76562h.3437l.1563-.5625c.1875-.6875.625-.984375 1.421875-.984375 1.03125 0 1.6875.640625 1.6875 1.65625 0 .90625-.5 1.78125-1.859375 3.21875L.1875-.28125v.3125C1.078125.015625 1.96875 0 2.859375 0 3.765625 0 4.6875.015625 5.59375.03125zm0 0" id="v"/><clipPath id="c"><path d="M53 0h74v67H53zm0 0"/></clipPath><clipPath id="d"><path d="M.3789 79.53516h163v-81h-163zM101.0195 3.83594l1.8594 1.14062-5.7617 13.98047 2.6406-11.03906-8.7617 7.25781zm0 0" class="b"/></clipPath><clipPath id="e"><path d="M30 15h74v64H30zm0 0"/></clipPath><clipPath id="f"><path d="M.3789 79.53516h163v-81h-163zm77.7188-39.9375 1.8594 1.14063-5.7578 13.98047 2.6406-11.04297-8.7617 7.26172zm0 0" class="b"/></clipPath><clipPath id="g"><path d="M112 0h49v68h-49zm0 0"/></clipPath><clipPath id="h"><path d="M.3789 79.53516h163v-81h-163zM160.2969 4.375l1.8594 1.14063-5.7578 13.98047 2.6406-11.03906-8.7617 7.26172zm0 0" class="b"/></clipPath><clipPath id="i"><path d="M89 16h72v63H89zm0 0"/></clipPath><clipPath id="j"><path d="M.3789 79.53516h163v-81h-163zm137.0586-39.45703 1.8594 1.14063-5.7578 13.97656 2.6406-11.03906-8.7617 7.26172zm0 0" class="b"/></clipPath><clipPath id="k"><path d="M.3789 6H51v73H.3789zm0 0"/></clipPath><clipPath id="l"><path d="M.3789 79.53516h163v-81h-163zm24.1406-48.69922 1.8594 1.14062-5.7617 13.98047 2.6406-11.03906-8.7617 7.25781zm0 0" class="b"/></clipPath><clipPath id="m"><path d="M.3789 9H49v63H.3789zm0 0"/></clipPath><clipPath id="n"><path d="M26 0h96v79H26zm0 0"/></clipPath><clipPath id="o"><path d="M.3789 79.53516h163v-81h-163zm95.7188-80.5L97.957.17578l-5.6992 14.04297 2.582-11.10156-8.7031 7.32031zm0 0" class="b"/></clipPath><clipPath id="p"><path d="M93 0h68v79H93zm0 0"/></clipPath><clipPath id="q"><path d="M.3789 79.53516h163v-81h-163zm118.4609-20.07812-1.8008-1.19922 5.9375-13.92187-2.8202 11.03905 8.8828-7.13672zm0 0" class="b"/></clipPath></defs><g clip-path="url(#c)"><g clip-path="url(#d)"><path d="M785.009062 382.010625l225 360" class="a"/></g></g><path d="M906.180937 643.612188l87.617188 72.578125-26.40625-110.390625" class="a"/><g clip-path="url(#e)"><g clip-path="url(#f)"><path d="M555.790312 24.393438l225 360" class="a"/></g></g><path d="M677.00125 285.995l87.617187 72.617188-26.40625-110.429688" class="a"/><g clip-path="url(#g)"><g clip-path="url(#h)"><path d="M1377.7825 376.62l225 360" class="a"/></g></g><path d="M1498.993437 638.1825l87.617188 72.617188-26.40625-110.390625" class="a"/><g clip-path="url(#i)"><g clip-path="url(#j)"><path d="M1149.18875 19.58875l225 360" class="a"/></g></g><path d="M1270.399687 281.190313l87.617188 72.617187-26.40625-110.390625" class="a"/><g clip-path="url(#k)"><g clip-path="url(#l)"><path d="M20.009062 112.010625l225 360" class="c"/></g></g><g clip-path="url(#m)"><path d="M141.180937 373.612188l87.617188 72.578125-26.40625-110.390625" class="c"/></g><g clip-path="url(#n)"><g clip-path="url(#o)"><path d="M515.009062 67.010625l445.78125 723.007813" class="c"/></g></g><path d="M857.587187 690.995l87.03125 73.203125L918.798125 653.1825" class="c"/><g clip-path="url(#p)"><g clip-path="url(#q)"><path d="M1181.610625 215.799688l345 540.585937" class="c"/></g></g><path d="M1286.610625 312.987188 1197.7825 241.62l28.203125 110.390625" class="c"/><use x="1.293" y="54.667" href="#a"/><use x=".283" y="54.817" href="#b"/><use x="107.091" y="23.316" href="#r"/><use x="115.089" y="23.316" href="#t"/><use x="121.2579" y="23.316" href="#s"/><use x="124.45" y="23.316" href="#u"/><use x="131.796" y="23.167" href="#a"/><use x="130.786" y="23.316" href="#b"/><use x="56.948" y="36.816" href="#v"/><use x="64.295" y="36.667" href="#a"/><use x="63.284" y="36.816" href="#b"/><style>.a{fill:none;stroke:#bebebe;stroke-miterlimit:10;stroke-width:18;transform:matrix(.1,0,0,-.1,.378,79.537)}.b{clip-rule:evenodd}.c{fill:none;stroke:#000;stroke-miterlimit:10;stroke-width:18;transform:matrix(.1,0,0,-.1,.378,79.537)}</style></svg>