<svg xmlns="http://www.w3.org/2000/svg" width="146pt" height="122pt" viewBox="0 0 146 122"><defs><path d="M5.5938.0313C5.5625-.21875 5.5625-.328125 5.5625-.5c0-.15625 0-.28125.03125-.546875l-4.1406.125 2.1875-2.3125c1.15625-1.21875 1.515625-1.875 1.515625-2.78125 0-1.375-.9375-2.21875-2.453125-2.21875-.8594 0-1.45315.234375-2.031275.828125L.4688-5.7656h.3437l.1563-.5625c.1875-.6875.625-.984375 1.421875-.984375 1.03125 0 1.6875.640625 1.6875 1.65625 0 .90625-.5 1.78125-1.859375 3.21875L.1875-.2812v.3125C1.078125.015625 1.96875 0 2.859375 0 3.765625 0 4.6875.015625 5.59375.03125zm0 0" id="b"/><path d="M5.5156-2.6719c0-.578125-.234375-1.078125-.65625-1.375-.3125-.21875-.578125-.3125-1.171875-.421875.953125-.75 1.3125-1.296875 1.3125-2 0-1.0625-.890625-1.765625-2.21875-1.765625-.8125 0-1.34375.21875-1.921875.796875l-.3437 1.4844h.375L1.0938-6.625c.140625-.40625.890625-.8125 1.515625-.8125.765625 0 1.40625.640625 1.40625 1.390625 0 .890625-.703125 1.640625-1.546875 1.640625-.109375 0-.5625-.03125-.5625-.03125l-.1563.6406.0938.0625C2.296875-3.9375 2.515625-4 2.84375-4c1 0 1.5625.640625 1.5625 1.734375C4.40625-1.046875 3.6875-.25 2.5625-.25c-.546875 0-1.03125-.1875-1.390625-.515625-.28125-.265625-.4375-.53125-.671875-1.1875l-.3281.125c.265625.734375.359375 1.15625.421875 1.75.640625.21875 1.15625.3125 1.609375.3125 1.4375 0 3.3125-1.25 3.3125-2.90625zm0 0" id="p"/><path d="M5.5625-4.375c0-2.625-.78125-3.859375-2.421875-3.859375-1.84375 0-2.796875 1.46875-2.796875 4.359375 0 1.40625.25 2.609375.671875 3.1875.421875.59375 1.09375.921875 1.828125.921875C4.65625.234375 5.5625-1.3125 5.5625-4.375zm-1.0156.5938C4.546875-1.234375 4.09375-.171875 3-.171875c-1.15625 0-1.65625-1.21875-1.65625-4.125 0-2.53125.453125-3.515625 1.578125-3.515625 1.171875 0 1.625 1.171875 1.625 4.03125zm0 0" id="c"/><path d="M5 .0313v-.3594l-.625-.0312c-.65625-.03125-.78125-.171875-.78125-.78125v-7.0937l-.1562-.0625c-.78125.40625-1.625.765625-2.71875 1.15625l.0781.5h.125c.531225-.2345 1.04685-.468875 1.5781-.70325.0625 0 .09375.109375.09375.40625v5.7969c0 .609375-.125.75-.78125.78125l-.6719.0313V.0313C1.8125.015625 2.46875 0 3.125 0 3.734375 0 4.375.015625 5 .03125zm0 0" id="a"/><path d="M5.3594-.9375l-.0937-.2344c-.4375.359375-.734375.53125-.921875.53125-.1875 0-.34375-.109375-.453125-.34375-.109375-.234375-.25-.671875-.3125-1.03125L3.375-3.2187l.4219-.5781c.546875-.78125.875-1.0625 1.25-1.0625.1875 0 .328125.109375.390625.28125L5.6094-4.625l.1719-1.0156c-.140625-.078125-.25-.125-.359375-.125-.46875 0-.953125.4375-1.6875 1.53125l-.4531.6563-.0625-.5625c-.140625-1.1875-.46875-1.625-1.171875-1.625-.3125 0-.578125.09375-.6875.25l-.6875 1L.875-4.4062c.359375-.40625.59375-.5625.828125-.5625.390625 0 .65625.484375.859375 1.65625l.125.75-.4687.7344c-.515625.796875-.921875 1.1875-1.265625 1.1875C.78125-.640625.640625-.6875.625-.75l-.1406-.3437-.2344.0468c0 .2344-.015625.39065-.09375.76565C.125-.125.125-.09375.109375-.015625.28125.078125.484375.125.625.125c.390625 0 .859375-.34375 1.234375-.90625l.9063-1.3906.125.8281C3.0625-.328125 3.328125.125 3.75.125c.265625 0 .65625-.203125 1.03125-.546875zm0 0" id="d"/><path d="M3.6563.0313v-.2656l-.4531-.0312c-.484375-.03125-.5625-.125-.5625-.578125v-5.2031l-.125-.0312c-.5625.296875-1.1875.5625-1.984375.84375l.0625.375h.0781c.390625-.1875.78125-.359375 1.15625-.515625.0625 0 .078125.078125.078125.28125v4.25c0 .453125-.09375.546875-.578125.578125l-.4844.0313V.0313C1.328125.015625 1.8125 0 2.28125 0c.46875 0 .921875.015625 1.375.03125zm0 0" id="q"/><path d="M4.1094.0313c-.03125-.1875-.03125-.28125-.03125-.40625 0-.109375 0-.1875.03125-.390625L1.0625-.6719l1.6094-1.6875c.843725-.906225 1.10935-1.3906 1.10935-2.04685 0-1.015625-.6875-1.640625-1.796875-1.640625-.640625 0-1.0625.1875-1.5.625l-.1406 1.1875h.25l.1094-.4062c.140625-.5.46875-.71875 1.046875-.71875.75 0 1.234375.46875 1.234375 1.21875 0 .65625-.359375 1.296875-1.359375 2.359375L.1406-.2031v.2344C.78125.015625 1.453125 0 2.09375 0c.671875 0 1.34375.015625 2.015625.03125zm0 0" id="r"/><path d="M7.2188-2.875v-.7031H.7813v.7031zm0 0" id="s"/><clipPath id="e"><path d="M4.0273 51H139v71H4.0273zm0 0"/></clipPath><clipPath id="f"><path d="M4.0273 122.5352h141v-123h-141zm110.8008-14.1367-.7187 2.0391-15.543-3.5391 11.1016.8984-9.3594-6.0586zm0 0" class="a"/></clipPath><clipPath id="g"><path d="M4.0273 76H145v2H4.0273zm0 0"/></clipPath><clipPath id="h"><path d="M4.0273 122.5352h141v-123h-141zM144.6484 76.418v.8398l-10.2617 2.2773 9-2.6992-9-2.6992zm0 0" class="a"/></clipPath><clipPath id="i"><path d="M128 67h17.0273v19H128zm0 0"/></clipPath><clipPath id="j"><path d="M18 0h1v122h-1zm0 0"/></clipPath><clipPath id="k"><path d="M4.0273 122.5352h141v-123h-141zM17.8086-.082h.8398l2.2813 10.2578-2.7031-9-2.6992 9zm0 0" class="a"/></clipPath><clipPath id="l"><path d="M4.0273 0H76v103H4.0273zm0 0"/></clipPath><clipPath id="m"><path d="M4.0273 122.5352h141v-123h-141zM49.7266 20.7969l1.8633 1.1406-5.4024 14.0977 2.3398-11.0977-8.5195 7.5zm0 0" class="a"/></clipPath><clipPath id="n"><path d="M24 0h115v122H24zm0 0"/></clipPath><clipPath id="o"><path d="M4.0273 122.5352h141v-123h-141zm110.9219-13.2383-1.7422 1.2617-10.7383-11.7617 8.6406 7.0781-4.2617-10.3164zm0 0" class="a"/></clipPath></defs><g clip-path="url(#e)"><g clip-path="url(#f)"><path d="M141.985625 457.010625l952.226562-322.226562" class="b"/></g></g><path d="M962.805937 207.987188l93.59375-60.585938-111.015625 8.984375" class="b"/><g clip-path="url(#g)"><g clip-path="url(#h)"><path d="M6.985625 457.010625h1395" class="c"/></g></g><g clip-path="url(#i)"><path d="M1303.587187 484.002813l90-26.992188-90-26.992187" class="c"/></g><g clip-path="url(#j)"><g clip-path="url(#k)"><path d="M141.985625 7.010625v1215" class="c"/></g></g><g class="c"><path d="M114.993437 1123.612188l26.992188 90 27.03125-90"/><path d="M771.985625 502.010625v-90"/><path d="M186.985625 727.010625h-90"/><path d="M186.985625 997.010625h-90"/><path d="M456.985625 502.010625v-90"/><path d="M1086.985625 502.010625v-90"/><path d="M186.985625 142.010625h-90"/></g><g clip-path="url(#l)"><g clip-path="url(#m)"><path d="M141.985625 457.010625l318.632812 545.390625" style="fill:none;stroke-width:18;stroke:#898989;stroke-dasharray:9,9;stroke-dashoffset:9;stroke-miterlimit:10;transform:matrix(.1,0,0,-.1,4.028,122.537)"/></g></g><path d="M359.798125 900.995l85.195312 75L421.595 865.018438" class="b"/><g clip-path="url(#n)"><g clip-path="url(#o)"><path d="M456.985625 997.010625l637.226562-862.226562" style="fill:none;stroke-width:18;stroke:#898989;stroke-dasharray:54;stroke-miterlimit:10;transform:matrix(.1,0,0,-.1,4.028,122.537)"/></g></g><path d="M1028.196562 269.784063 1070.81375 166.62l-86.40625 70.78125" class="b"/><use x="81.25" y="90.317" href="#b"/><use x="135.6103" y="90.317" href="#d"/><use x="141.946" y="92.11" href="#q"/><use x="112.751" y="90.317" href="#p"/><use x="2.531" y="9.315" href="#d"/><use x="8.867" y="11.108" href="#r"/><use x="7.771" y="86.717" href="#c"/><use x="7.771" y="58.816" href="#a"/><use x="7.771" y="31.815" href="#b"/><use x="19.989" y="90.317" href="#c"/><use x="-.227" y="117.317" href="#s"/><use x="7.771" y="117.317" href="#a"/><use x="49.749" y="90.317" href="#a"/><style>.a{clip-rule:evenodd}.b{fill:none;stroke:#898989;stroke-miterlimit:10;stroke-width:18;transform:matrix(.1,0,0,-.1,4.028,122.537)}.c{fill:none;stroke:#000;stroke-miterlimit:10;stroke-width:4.5;transform:matrix(.1,0,0,-.1,4.028,122.537)}</style></svg>