<svg xmlns="http://www.w3.org/2000/svg" width="144pt" height="93pt" viewBox="0 0 144 93"><defs><path d="M5.5938.03125c-.0313-.25-.0313-.359375-.0313-.53125 0-.15625 0-.28125.03125-.546875l-4.1406.125 2.1875-2.3125c1.15625-1.21875 1.515625-1.875 1.515625-2.78125 0-1.375-.9375-2.21875-2.453125-2.21875-.8594 0-1.45315.234375-2.031275.828125L.4688-5.76562h.3437l.1563-.5625c.1875-.6875.625-.984375 1.421875-.984375 1.03125 0 1.6875.640625 1.6875 1.65625 0 .90625-.5 1.78125-1.859375 3.21875L.1875-.28125v.3125C1.078125.015625 1.96875 0 2.859375 0 3.765625 0 4.6875.015625 5.59375.03125zm0 0" id="a"/><path d="M5 .03125v-.35937l-.625-.03125c-.65625-.03125-.78125-.171875-.78125-.78125v-7.09375l-.1562-.0625c-.78125.40625-1.625.765625-2.71875 1.15625l.0781.5h.125C1.453125-6.875 1.96875-7.109375 2.5-7.34375c.0625 0 .09375.109375.09375.40625v5.79688c0 .609375-.125.75-.78125.78125l-.6719.03125v.35937C1.8125.015625 2.46875 0 3.125 0 3.734375 0 4.375.015625 5 .03125zm0 0" id="b"/><path d="M5.5156-2.67187c0-.578125-.234375-1.078125-.65625-1.375-.3125-.21875-.578125-.3125-1.171875-.421875.953125-.75 1.3125-1.296875 1.3125-2 0-1.0625-.890625-1.765625-2.21875-1.765625-.8125 0-1.34375.21875-1.921875.796875l-.3437 1.48438h.375L1.0938-6.625c.140625-.40625.890625-.8125 1.515625-.8125.765625 0 1.40625.640625 1.40625 1.390625 0 .890625-.703125 1.640625-1.546875 1.640625-.109375 0-.5625-.03125-.5625-.03125l-.1563.64063.0938.0625C2.296875-3.9375 2.515625-4 2.84375-4c1 0 1.5625.640625 1.5625 1.734375C4.40625-1.046875 3.6875-.25 2.5625-.25c-.546875 0-1.03125-.1875-1.390625-.515625-.28125-.265625-.4375-.53125-.671875-1.1875l-.3281.125c.265625.734375.359375 1.15625.421875 1.75.640625.21875 1.15625.3125 1.609375.3125 1.4375 0 3.3125-1.25 3.3125-2.90625zm0 0" id="l"/><path d="M5.5625-4.375c0-2.625-.78125-3.859375-2.421875-3.859375-1.84375 0-2.796875 1.46875-2.796875 4.359375 0 1.40625.25 2.609375.671875 3.1875.421875.59375 1.09375.921875 1.828125.921875C4.65625.234375 5.5625-1.3125 5.5625-4.375zm-1.0156.59375C4.546875-1.234375 4.09375-.171875 3-.171875c-1.15625 0-1.65625-1.21875-1.65625-4.125 0-2.53125.453125-3.515625 1.578125-3.515625 1.171875 0 1.625 1.171875 1.625 4.03125zm0 0" id="c"/><path d="M5.3594-.9375l-.0937-.23437c-.4375.359375-.734375.53125-.921875.53125-.1875 0-.34375-.109375-.453125-.34375-.109375-.234375-.25-.671875-.3125-1.03125L3.375-3.21875l.4219-.57812c.546875-.78125.875-1.0625 1.25-1.0625.1875 0 .328125.109375.390625.28125L5.6094-4.625l.1719-1.01562c-.140625-.078125-.25-.125-.359375-.125-.46875 0-.953125.4375-1.6875 1.53125l-.4531.65625-.0625-.5625c-.140625-1.1875-.46875-1.625-1.171875-1.625-.3125 0-.578125.09375-.6875.25l-.6875 1 .2031.10937c.359375-.40625.59375-.5625.828125-.5625.390625 0 .65625.484375.859375 1.65625l.125.75-.4687.73438c-.515625.796875-.921875 1.1875-1.265625 1.1875C.78125-.640625.640625-.6875.625-.75l-.1406-.34375-.2344.04688c0 .23437-.015625.39062-.09375.76562C.125-.125.125-.09375.109375-.015625.28125.078125.484375.125.625.125c.390625 0 .859375-.34375 1.234375-.90625l.9063-1.39062.125.82813C3.0625-.328125 3.328125.125 3.75.125c.265625 0 .65625-.203125 1.03125-.546875zm0 0" id="d"/><path d="M3.6563.03125v-.26562l-.4531-.03125c-.484375-.03125-.5625-.125-.5625-.578125v-5.20312l-.125-.03125c-.5625.296875-1.1875.5625-1.984375.84375l.0625.375h.0781c.390625-.1875.78125-.359375 1.15625-.515625.0625 0 .078125.078125.078125.28125v4.25c0 .453125-.09375.546875-.578125.578125l-.4844.03125V.03125C1.328125.015625 1.8125 0 2.28125 0c.46875 0 .921875.015625 1.375.03125zm0 0" id="m"/><path d="M4.1094.03125c-.03125-.1875-.03125-.28125-.03125-.40625 0-.109375 0-.1875.03125-.390625L1.0625-.67187l1.6094-1.6875C3.515625-3.265625 3.78125-3.75 3.78125-4.40625c0-1.015625-.6875-1.640625-1.796875-1.640625-.640625 0-1.0625.1875-1.5.625l-.1406 1.1875h.25l.1094-.40625c.140625-.5.46875-.71875 1.046875-.71875.75 0 1.234375.46875 1.234375 1.21875 0 .65625-.359375 1.296875-1.359375 2.359375L.1406-.20312v.23437C.78125.015625 1.453125 0 2.09375 0c.671875 0 1.34375.015625 2.015625.03125zm0 0" id="n"/><clipPath id="e"><path d="M2.0273 77H143v1H2.0273zm0 0"/></clipPath><clipPath id="f"><path d="M2.0273 94.53516h141v-95h-141zm140.6211-17.71875v.83984l-10.2617 2.28125 9-2.69922-9-2.70312zm0 0" class="b"/></clipPath><clipPath id="g"><path d="M126 68h17.0273v19H126zm0 0"/></clipPath><clipPath id="h"><path d="M16 0h1v91h-1zm0 0"/></clipPath><clipPath id="i"><path d="M2.0273 94.53516h141v-95h-141zM15.8086.31641h.8398l2.2813 10.26172-2.7031-9-2.6992 9zm0 0" class="b"/></clipPath><clipPath id="j"><path d="M2.0273 0H74v93H2.0273zm0 0"/></clipPath><clipPath id="k"><path d="M2.0273 94.53516h141v-95h-141zm45.6992-73.33984 1.8633 1.14063-5.4023 14.10155 2.3398-11.10156-8.5195 7.5zm0 0" class="b"/></clipPath></defs><g clip-path="url(#e)"><g clip-path="url(#f)"><path d="M6.985625 172.987188h1395" class="a"/></g></g><g clip-path="url(#g)"><path d="M1303.587187 200.018438l90-27.03125-90-26.992188" class="a"/></g><g clip-path="url(#h)"><g clip-path="url(#i)"><path d="M141.985625 37.987188v900" class="a"/></g></g><g class="a"><path d="M114.993437 839.58875l26.992188 90 27.03125-90"/><path d="M771.985625 217.987188v-90"/><path d="M186.985625 442.987188h-90"/><path d="M186.985625 712.987188h-90"/><path d="M456.985625 217.987188v-90"/><path d="M1086.985625 217.987188v-90"/><path stroke-dasharray="9,27" stroke-dashoffset="27" d="M141.985625 712.987188h315v-495"/></g><g clip-path="url(#j)"><g clip-path="url(#k)"><path d="M141.985625 172.987188l318.632812 545.429687" class="c"/></g></g><path d="M359.798125 617.010625l85.195312 75L421.595 580.995" class="c"/><use x="79.25" y="90.697" href="#a"/><use x="133.6103" y="90.697" href="#d"/><use x="139.946" y="92.491" href="#m"/><use x="47.749" y="90.697" href="#b"/><use x="110.7529" y="90.697" href="#l"/><use x=".531" y="9.695" href="#d"/><use x="6.867" y="11.489" href="#n"/><use x="5.771" y="87.097" href="#c"/><use x="5.771" y="59.196" href="#b"/><use x="5.771" y="32.196" href="#a"/><use x="17.989" y="90.697" href="#c"/><style>.a{fill:none;stroke:#000;stroke-miterlimit:10;stroke-width:4.5;transform:matrix(.1,0,0,-.1,2.028,94.537)}.b{clip-rule:evenodd}.c{fill:none;stroke:#000;stroke-miterlimit:10;stroke-width:18;transform:matrix(.1,0,0,-.1,2.028,94.537)}</style></svg>