<svg xmlns="http://www.w3.org/2000/svg" width="358pt" height="260pt" viewBox="0 0 358 260"><defs><path d="M1.8906-4.8594c-.453125 0-.875.203125-1.125.546875-.3125.421875-.46875 1.0625-.46875 1.96875 0 1.640625.546875 2.5 1.59375 2.5 1.03125 0 1.59375-.875 1.59375-2.46875 0-.9375-.15625-1.5625-.484375-2-.25-.34375-.65625-.546875-1.109375-.546875zm0 .5469c.640625 0 .96875.640625.96875 1.953125 0 1.375-.3125 2.015625-.984375 2.015625-.640625 0-.96875-.671875-.96875-2 0-1.328125.328125-1.96875.984375-1.96875zm0 0" id="d"/><path d="M3.2656-4.8594H.75L.3906-2.2031h.5625c.28125-.34375.515625-.453125.890625-.453125.65625 0 1.0625.4375 1.0625 1.15625 0 .703125-.40625 1.125-1.0625 1.125-.53125 0-.859375-.265625-1-.8125H.2344c.09375.390625.15625.578125.296875.765625.281225.35935.7656.5781 1.3281.5781.96875 0 1.65625-.703125 1.65625-1.734375 0-.953125-.640625-1.625-1.5625-1.625-.34375 0-.625.09375-.90625.296875l.1875-1.3437h2.0313zm0 0" id="e"/><path d="M1.7813-3.4531V0h.5937v-4.8594h-.3906c-.21875.75-.359375.859375-1.28125.96875v.4375zm0 0" id="c"/><path d="M3.4688-.5937H.9063c.0625-.40625.28125-.65625.890625-1l.6719-.375C3.15625-2.328125 3.5-2.828125 3.5-3.421875c0-.40625-.15625-.78125-.453125-1.046875-.28125-.265625-.625-.390625-1.09375-.390625-.625 0-1.078125.21875-1.34375.640625-.171875.25-.25.5625-.265625 1.046875h.6094c.015625-.328125.0625-.53125.140625-.6875.15625-.28125.46875-.46875.828125-.46875.546875 0 .96875.390625.96875.90625 0 .390625-.234375.71875-.65625.96875l-.6406.3594C.578125-1.53125.28125-1.0625.234375 0H3.4688zm0 0" id="g"/><path d="M1.3125-.7187H.5938V0h.7188zm0 0" id="f"/><clipPath id="h"><path d="M19 7.6602h1v242.25h-1zm0 0"/></clipPath><clipPath id="i"><path d="M98 7.6602h2v242.25h-2zm0 0"/></clipPath><clipPath id="j"><path d="M178 7.6602h2v242.25h-2zm0 0"/></clipPath><clipPath id="k"><path d="M258 7.6602h2v242.25h-2zm0 0"/></clipPath><clipPath id="l"><path d="M338 7.6602h1v242.25h-1zm0 0"/></clipPath><clipPath id="m"><path d="M19 238h320v2H19zm0 0"/></clipPath><clipPath id="n"><path d="M19 179h320v1H19zm0 0"/></clipPath><clipPath id="o"><path d="M19 120h320v1H19zm0 0"/></clipPath><clipPath id="p"><path d="M19 60h320v2H19zm0 0"/></clipPath><clipPath id="q"><path d="M19 18h320v222H19zm0 0"/></clipPath><path id="a" d="M399.5006-211.1628v-2425.5368"/><path id="b" d="M3595.5056-211.1628v-2425.5368"/></defs><path fill="#fff" d="M19 249.9102h320V7.6602H19zm0 0"/><g style="clip-path:url(#h);fill:none;stroke-width:5.70714;stroke-linecap:round;stroke:#bfbfbf;stroke-miterlimit:10"><g transform="matrix(.100125 0 0 .0998748 -21 271)"><use href="#a"/><use stroke-dasharray="11.4143,17.1214" href="#a"/></g></g><g clip-path="url(#i)"><path d="M1198.501873-211.162813v-2425.536772" class="a"/></g><g clip-path="url(#j)"><path d="M1997.503121-211.162813v-2425.536772" class="a"/></g><g clip-path="url(#k)"><path d="M2796.50437-211.162813v-2425.536772" class="a"/></g><g clip-path="url(#l)"><use href="#b" class="a"/></g><g clip-path="url(#m)"><path d="M399.500624-321.41804h3196.004994" class="a"/></g><g clip-path="url(#n)"><path d="M399.500624-914.465223h3196.004994" class="a"/></g><g clip-path="url(#o)"><path d="M399.500624-1507.551517h3196.004994" class="a"/></g><g clip-path="url(#p)"><path d="M399.500624-2100.5987h3196.004994" class="a"/></g><g class="b"><path d="M399.500624-211.162813h3196.004994" class="c"/><g class="d"><path d="M399.500624-211.162813v-45.643083"/><path d="M399.500624-211.162813v-22.841097"/><path d="M479.400749-211.162813v-22.841097"/><path d="M559.300874-211.162813v-22.841097"/><path d="M639.200999-211.162813v-22.841097"/><path d="M719.101124-211.162813v-22.841097"/><path d="M799.001248-211.162813v-22.841097"/><path d="M878.901373-211.162813v-22.841097"/><path d="M958.801498-211.162813v-22.841097"/><path d="M1038.701623-211.162813v-22.841097"/><path d="M1198.501873-211.162813v-45.643083"/><path d="M1198.501873-211.162813v-22.841097"/><path d="M1278.401998-211.162813v-22.841097"/><path d="M1358.302122-211.162813v-22.841097"/><path d="M1438.202247-211.162813v-22.841097"/><path d="M1518.102372-211.162813v-22.841097"/><path d="M1598.002497-211.162813v-22.841097"/><path d="M1677.902622-211.162813v-22.841097"/><path d="M1757.802747-211.162813v-22.841097"/><path d="M1837.702871-211.162813v-22.841097"/><path d="M1997.503121-211.162813v-45.643083"/><path d="M1997.503121-211.162813v-22.841097"/><path d="M2077.403246-211.162813v-22.841097"/><path d="M2157.303371-211.162813v-22.841097"/><path d="M2237.203496-211.162813v-22.841097"/><path d="M2317.10362-211.162813v-22.841097"/><path d="M2397.003745-211.162813v-22.841097"/><path d="M2476.90387-211.162813v-22.841097"/><path d="M2556.803995-211.162813v-22.841097"/><path d="M2636.70412-211.162813v-22.841097"/><path d="M2796.50437-211.162813v-45.643083"/><path d="M2796.50437-211.162813v-22.841097"/><path d="M2876.404494-211.162813v-22.841097"/><path d="M2956.304619-211.162813v-22.841097"/><path d="M3036.204744-211.162813v-22.841097"/><path d="M3116.104869-211.162813v-22.841097"/><path d="M3196.004994-211.162813v-22.841097"/><path d="M3275.905119-211.162813v-22.841097"/><path d="M3355.805243-211.162813v-22.841097"/><path d="M3435.705368-211.162813v-22.841097"/><path d="M3595.505618-211.162813v-45.643083"/><path d="M3595.505618-211.162813v-22.841097"/></g></g><use x="17.0938" y="259.0301" href="#d"/><use x="97.0943" y="259.0301" href="#e"/><use x="175.1886" y="259.0301" href="#c"/><use x="179.0011" y="259.0301" href="#d"/><use x="254.6179" y="259.0301" href="#c"/><use x="258.4305" y="259.0301" href="#e"/><use x="335.1896" y="259.0301" href="#g"/><use x="339.0022" y="259.0301" href="#d"/><g class="b"><path d="M399.500624-2636.699585h3196.004994" class="c"/><g class="d"><path d="M399.500624-2636.699585v45.643082"/><path d="M399.500624-2636.699585v22.841097"/><path d="M479.400749-2636.699585v22.841097"/><path d="M559.300874-2636.699585v22.841097"/><path d="M639.200999-2636.699585v22.841097"/><path d="M719.101124-2636.699585v22.841097"/><path d="M799.001248-2636.699585v22.841097"/><path d="M878.901373-2636.699585v22.841097"/><path d="M958.801498-2636.699585v22.841097"/><path d="M1038.701623-2636.699585v22.841097"/><path d="M1198.501873-2636.699585v45.643082"/><path d="M1198.501873-2636.699585v22.841097"/><path d="M1278.401998-2636.699585v22.841097"/><path d="M1358.302122-2636.699585v22.841097"/><path d="M1438.202247-2636.699585v22.841097"/><path d="M1518.102372-2636.699585v22.841097"/><path d="M1598.002497-2636.699585v22.841097"/><path d="M1677.902622-2636.699585v22.841097"/><path d="M1757.802747-2636.699585v22.841097"/><path d="M1837.702871-2636.699585v22.841097"/><path d="M1997.503121-2636.699585v45.643082"/><path d="M1997.503121-2636.699585v22.841097"/><path d="M2077.403246-2636.699585v22.841097"/><path d="M2157.303371-2636.699585v22.841097"/><path d="M2237.203496-2636.699585v22.841097"/><path d="M2317.10362-2636.699585v22.841097"/><path d="M2397.003745-2636.699585v22.841097"/><path d="M2476.90387-2636.699585v22.841097"/><path d="M2556.803995-2636.699585v22.841097"/><path d="M2636.70412-2636.699585v22.841097"/><path d="M2796.50437-2636.699585v45.643082"/><path d="M2796.50437-2636.699585v22.841097"/><path d="M2876.404494-2636.699585v22.841097"/><path d="M2956.304619-2636.699585v22.841097"/><path d="M3036.204744-2636.699585v22.841097"/><path d="M3116.104869-2636.699585v22.841097"/><path d="M3196.004994-2636.699585v22.841097"/><path d="M3275.905119-2636.699585v22.841097"/><path d="M3355.805243-2636.699585v22.841097"/><path d="M3435.705368-2636.699585v22.841097"/><path d="M3595.505618-2636.699585v45.643082"/><path d="M3595.505618-2636.699585v22.841097"/></g></g><use x="17.0938" y="5.38" href="#d"/><use x="97.0943" y="5.38" href="#e"/><use x="175.1886" y="5.38" href="#c"/><use x="179.0011" y="5.38" href="#d"/><use x="254.6179" y="5.38" href="#c"/><use x="258.4305" y="5.38" href="#e"/><use x="335.1896" y="5.38" href="#g"/><use x="339.0022" y="5.38" href="#d"/><g class="b"><use href="#a" class="c"/><g class="d"><path d="M399.500624-321.41804h45.646068"/><path d="M399.500624-321.41804h22.823034"/><path d="M399.500624-380.711025h22.823034"/><path d="M399.500624-440.043121h22.823034"/><path d="M399.500624-499.336106h22.823034"/><path d="M399.500624-558.629091h22.823034"/><path d="M399.500624-617.961187h22.823034"/><path d="M399.500624-677.254172h22.823034"/><path d="M399.500624-736.547157h22.823034"/><path d="M399.500624-795.879253h22.823034"/><path d="M399.500624-914.465223h45.646068"/><path d="M399.500624-914.465223h22.823034"/><path d="M399.500624-973.797319h22.823034"/><path d="M399.500624-1033.090304h22.823034"/><path d="M399.500624-1092.383289h22.823034"/><path d="M399.500624-1151.715385h22.823034"/><path d="M399.500624-1211.00837h22.823034"/><path d="M399.500624-1270.301355h22.823034"/><path d="M399.500624-1329.633451h22.823034"/><path d="M399.500624-1388.926436h22.823034"/><path d="M399.500624-1507.551517h45.646068"/><path d="M399.500624-1507.551517h22.823034"/><path d="M399.500624-1566.844502h22.823034"/><path d="M399.500624-1626.137487h22.823034"/><path d="M399.500624-1685.430471h22.823034"/><path d="M399.500624-1744.762568h22.823034"/><path d="M399.500624-1804.055553h22.823034"/><path d="M399.500624-1863.387649h22.823034"/><path d="M399.500624-1922.680634h22.823034"/><path d="M399.500624-1981.973618h22.823034"/><path d="M399.500624-2100.5987h45.646068"/><path d="M399.500624-2100.5987h22.823034"/><path d="M399.500624-2159.891684h22.823034"/><path d="M399.500624-2219.223781h22.823034"/><path d="M399.500624-2278.516765h22.823034"/><path d="M399.500624-2337.80975h22.823034"/><path d="M399.500624-2397.141847h22.823034"/><path d="M399.500624-2456.434831h22.823034"/><path d="M399.500624-2515.727816h22.823034"/><path d="M399.500624-2575.020801h22.823034"/></g></g><use x="-.0582" y="241.9301" href="#c"/><use x="3.7544" y="241.9301" href="#d"/><use x="7.567" y="241.9301" href="#f"/><use x="9.4733" y="241.9301" href="#d"/><use x="-.0582" y="182.65" href="#c"/><use x="3.7544" y="182.65" href="#d"/><use x="7.567" y="182.65" href="#f"/><use x="9.4733" y="182.65" href="#e"/><use x="-.0582" y="123.3699" href="#c"/><use x="3.7544" y="123.3699" href="#c"/><use x="7.567" y="123.3699" href="#f"/><use x="9.4733" y="123.3699" href="#d"/><use x="-.0582" y="64.0898" href="#c"/><use x="3.7544" y="64.0898" href="#c"/><use x="7.567" y="64.0898" href="#f"/><use x="9.4733" y="64.0898" href="#e"/><g class="b"><use href="#b" class="c"/><g class="d"><path d="M3595.505618-321.41804h-45.685081"/><path d="M3595.505618-321.41804h-22.823034"/><path d="M3595.505618-380.711025h-22.823034"/><path d="M3595.505618-440.043121h-22.823034"/><path d="M3595.505618-499.336106h-22.823034"/><path d="M3595.505618-558.629091h-22.823034"/><path d="M3595.505618-617.961187h-22.823034"/><path d="M3595.505618-677.254172h-22.823034"/><path d="M3595.505618-736.547157h-22.823034"/><path d="M3595.505618-795.879253h-22.823034"/><path d="M3595.505618-914.465223h-45.685081"/><path d="M3595.505618-914.465223h-22.823034"/><path d="M3595.505618-973.797319h-22.823034"/><path d="M3595.505618-1033.090304h-22.823034"/><path d="M3595.505618-1092.383289h-22.823034"/><path d="M3595.505618-1151.715385h-22.823034"/><path d="M3595.505618-1211.00837h-22.823034"/><path d="M3595.505618-1270.301355h-22.823034"/><path d="M3595.505618-1329.633451h-22.823034"/><path d="M3595.505618-1388.926436h-22.823034"/><path d="M3595.505618-1507.551517h-45.685081"/><path d="M3595.505618-1507.551517h-22.823034"/><path d="M3595.505618-1566.844502h-22.823034"/><path d="M3595.505618-1626.137487h-22.823034"/><path d="M3595.505618-1685.430471h-22.823034"/><path d="M3595.505618-1744.762568h-22.823034"/><path d="M3595.505618-1804.055553h-22.823034"/><path d="M3595.505618-1863.387649h-22.823034"/><path d="M3595.505618-1922.680634h-22.823034"/><path d="M3595.505618-1981.973618h-22.823034"/><path d="M3595.505618-2100.5987h-45.685081"/><path d="M3595.505618-2100.5987h-22.823034"/><path d="M3595.505618-2159.891684h-22.823034"/><path d="M3595.505618-2219.223781h-22.823034"/><path d="M3595.505618-2278.516765h-22.823034"/><path d="M3595.505618-2337.80975h-22.823034"/><path d="M3595.505618-2397.141847h-22.823034"/><path d="M3595.505618-2456.434831h-22.823034"/><path d="M3595.505618-2515.727816h-22.823034"/><path d="M3595.505618-2575.020801h-22.823034"/></g></g><use x="344.714" y="241.9301" href="#c"/><use x="348.5266" y="241.9301" href="#d"/><use x="352.3392" y="241.9301" href="#f"/><use x="354.2455" y="241.9301" href="#d"/><use x="344.714" y="182.65" href="#c"/><use x="348.5266" y="182.65" href="#d"/><use x="352.3392" y="182.65" href="#f"/><use x="354.2455" y="182.65" href="#e"/><use x="344.714" y="123.3699" href="#c"/><use x="348.5266" y="123.3699" href="#c"/><use x="352.3392" y="123.3699" href="#f"/><use x="354.2455" y="123.3699" href="#d"/><use x="344.714" y="64.0898" href="#c"/><use x="348.5266" y="64.0898" href="#c"/><use x="352.3392" y="64.0898" href="#f"/><use x="354.2455" y="64.0898" href="#e"/><g clip-path="url(#q)"><path d="M399.500624-321.41804l9.0902-.039112 9.246255-.078223 9.207241-.156446 9.129213-.234668 9.168227-.312892 9.0902-.312892 9.129214-.430226 9.285268-.469338 9.129213-.54756 9.129214-.586672 9.129213-.664895 9.129214-.704007 9.207241-.782229 9.207241-.860452 9.129213-.899564 9.129214-.938675 9.090199-1.016898 9.246255-1.05601 18.336455-2.346688 9.168227-1.251567 9.0902-1.290678 9.090199-1.32979 9.324282-1.447125 9.129214-1.447124 9.129213-1.525347 18.258427-3.207141 9.168228-1.720904 9.207241-1.720905 9.168227-1.799127 9.0902-1.838239 9.090199-1.877351 9.246255-1.994684 9.207241-1.994685 9.129213-2.072908 9.207241-2.112019 9.051186-2.151131 9.129214-2.190242 9.285268-2.268465 9.168227-2.307577 9.0902-2.385799 9.129214-2.3858 9.129213-2.464022 9.207241-2.503134 9.207241-2.581357 9.129214-2.581357 9.129213-2.65958 9.0902-2.65958 9.246254-2.776914 9.207241-2.816026 9.129214-2.855137 9.168227-2.894248 9.0902-2.894249 9.129213-2.972471 9.285269-3.089806 9.129213-3.050695 9.129214-3.089806 9.129213-3.168029 9.129214-3.20714 9.207241-3.246252 9.207241-3.324474 9.129213-3.324475 9.0902-3.363586 9.129213-3.44181 9.207241-3.48092 9.207241-3.520032 9.168227-3.559144 9.168228-3.598255 9.051186-3.598255 9.129213-3.676478 9.324282-3.793812 9.129214-3.754701 9.129213-3.793812 9.129214-3.832924 9.129213-3.872036 9.168227-3.950258 9.207241-3.989369 9.168228-3.98937 9.090199-4.028481 9.0902-4.067593 9.246255-4.145815 9.207241-4.184927 9.129213-4.224039 9.207241-4.224038 9.051186-4.26315 9.129214-4.302262 9.285268-4.419596 9.168227-4.380484 9.0902-4.419596 9.129214-4.458707 9.129213-4.497819 9.207241-4.53693 9.207241-4.615153 18.258427-9.230307 9.0902-4.654264 9.246254-4.771599 9.168228-4.771599 9.168227-4.810711 9.168227-4.849822 9.0902-4.81071 9.129213-4.888934 9.285269-5.006268 18.258427-9.934312 18.258427-10.090759 9.168227-5.123602 9.246254-5.162714 9.129214-5.162714 9.0902-5.162714 9.129213-5.201825 9.246255-5.319159 9.168227-5.358271 9.129214-5.31916 9.207241-5.358271 9.051186-5.358271 9.129213-5.397383 9.324282-5.553828 9.129214-5.514717 9.129213-5.475605 18.258427-11.107657 9.168227-5.671163 9.207241-5.671163 9.168227-5.671163 9.0902-5.671162 9.0902-5.710275 9.246255-5.827608 9.207241-5.827609 9.129213-5.827609 9.207241-5.86672 9.051186-5.827608 9.129214-5.905832 9.285268-6.023166 18.258427-11.968109 18.258427-12.046332 9.207241-6.101389 9.207241-6.179612 18.258427-12.281001 9.090199-6.1405 9.246255-6.296946 9.168227-6.296947 9.168228-6.257834 9.168227-6.336058 9.0902-6.296946 9.129213-6.336058 9.285268-6.492504 18.258427-12.828561 18.258427-12.906784 9.168228-6.570727 9.207241-6.570727 9.168227-6.570726 9.129213-6.570727 9.051186-6.609838 9.246255-6.688061 9.207241-6.688061 9.129213-6.727172 9.207241-6.727172 9.051186-6.688061 9.129214-6.766284 9.324282-6.92273 9.129213-6.805395 9.0902-6.805396 9.129214-6.844507 9.129213-6.883618 18.414482-13.923682 9.168227-7.000953 18.1804-13.923682 9.246254-7.079176 9.207241-7.118287 9.129214-7.079176 9.207241-7.118287 9.051186-7.079176 9.129213-7.118287 9.285269-7.313844 27.38764-21.58953 9.129214-7.274733 9.207241-7.313845 9.207241-7.352955 18.258427-14.627689 9.090199-7.352956 9.246255-7.470291 18.336454-14.862357 9.168228-7.509402 9.090199-7.431179 9.129214-7.47029 9.285268-7.626736 27.387641-22.64554 9.129213-7.587625 9.168227-7.665847 9.207241-7.704959 9.168228-7.665848 9.090199-7.665848 9.129214-7.665847 18.414482-15.566364 9.129213-7.783183 9.207241-7.783182 9.051186-7.74407 9.129214-7.822294 9.285268-7.978739 9.168227-7.861405 9.0902-7.861405 9.129214-7.861405 9.129213-7.900516 9.207241-7.97874 9.207241-8.017851 18.258427-15.957478 9.0902-7.939628 9.246254-8.135186 9.207241-8.096073 9.129214-8.056963 9.168227-8.135185 9.0902-8.017851 9.129213-8.096074 9.285269-8.291631 9.129213-8.174296 9.129214-8.135186 9.129213-8.174296 9.129214-8.213409 9.207241-8.252519 9.20724-8.330743 18.258427-16.505039 9.0902-8.25252 9.246255-8.408965 27.504682-25.109562 9.051186-8.330743 9.129213-8.369854 9.324282-8.565412 9.129214-8.448077 9.129213-8.408965 9.129214-8.448077 9.129213-8.487188 9.168227-8.5263 9.207241-8.604523 9.168227-8.5263 18.1804-17.0526 9.246255-8.643634 9.207241-8.643635 9.129213-8.604523 9.207241-8.682745 9.051186-8.565412 9.129214-8.643634 9.285268-8.839192 27.38764-26.048237 9.129214-8.721857 9.207241-8.800081 9.207241-8.839191 9.129213-8.80008 9.129214-8.760969 9.090199-8.760969 9.246255-8.917415 9.207241-8.878303 9.129214-8.878303 9.168227-8.917414 9.0902-8.800081 9.129213-8.878303 9.285268-9.07386 18.258427-17.834829 18.258427-17.913053 9.168228-9.034749 9.246254-9.07386 18.258427-17.991275 9.0902-9.034749 9.207241-9.152084 9.207241-9.112972 9.129213-9.07386 9.207241-9.152083 9.0902-9.034749 9.0902-9.112972 9.324282-9.269418 27.38764-27.45625 9.129214-9.191195 9.168227-9.230307 9.207241-9.308529 9.168227-9.230306 9.0902-9.230307 9.0902-9.191194 9.246254-9.386753 9.207241-9.34764 9.129214-9.269418 9.207241-9.347641 9.051186-9.269418 9.129213-9.308529 9.285269-9.504087 9.168227-9.34764 9.0902-9.386753 9.129213-9.34764 9.129214-9.386753 18.414482-18.92995 9.129213-9.464975 9.129214-9.425864 9.090199-9.386752 9.246255-9.582309 9.168227-9.543199 9.168227-9.504086 9.168228-9.543198 9.090199-9.464975 9.129214-9.504087 9.285268-9.699644 27.387641-28.629594 9.129213-9.58231 9.207241-9.660532 9.207241-9.699644 9.129214-9.621421 9.090199-9.621421 9.129214-9.58231 9.207241-9.777867 9.207241-9.699644 9.168227-9.699644 9.168227-9.738755 9.051186-9.621421 9.129214-9.699644 9.324282-9.895201 9.129213-9.738756 9.129214-9.699644 9.129213-9.777867 9.129214-9.738755 9.168227-9.816978" style="fill:none;stroke-width:11.4143;stroke-linecap:round;stroke-linejoin:round;stroke:#00008b;stroke-miterlimit:10;transform:matrix(.100125,0,0,.0998748,-21,271)"/></g><style>.a{fill:none;stroke:#bfbfbf;stroke-dasharray:11.4143,17.1214;stroke-linecap:round;stroke-miterlimit:10;stroke-width:5.70714;transform:matrix(.100125,0,0,.0998748,-21,271)}.b{fill:none;stroke:#000;stroke-miterlimit:10;transform:matrix(.100125,0,0,.0998748,-21,271)}.c{stroke-linecap:square;stroke-width:11.4143}.d{stroke-width:5.70714}</style></svg>