<svg xmlns="http://www.w3.org/2000/svg" width="122pt" height="124pt" viewBox="0 0 122 124"><defs><path d="M6.8438-6.0312c0-1.359375-.390625-2.359375-1.90625-2.359375-3.109375 0-4.09375 3.46875-4.09375 6.015625 0 1.421875.4375 2.5625 2.0625 2.5625 2.8125 0 3.9375-3.96875 3.9375-6.21875zm-.875-.1562c0 .546875-.09375 1.09375-.1875 1.640625H2.0156c.28125-1.25 1.15625-3.53125 2.703125-3.53125 1.03125 0 1.25 1.078125 1.25 1.890625zm-.25 2.0156C5.453125-2.828125 4.796875-.15625 3.078125-.15625 1.875-.15625 1.75-1.5 1.75-2.421875c0-.59375.109375-1.171875.203125-1.75zm0 0" id="b"/><path d="M8.8438-1.0156l-.125-.2187-.2969.2031c-.3594.234325-.6094.359325-.7344.359325-.078125 0-.15625-.109375-.15625-.234375 0-.125.015625-.234375.078125-.484375l.9063-3.5469c.046875-.203125.078125-.390625.078125-.484375 0-.203125-.125-.34375-.3125-.34375-.34375 0-.796875.21875-1.53125.734375C6-4.5 5.578125-4.078125 5-3.25l.3594-1.6406c.046875-.234375.078125-.421875.078125-.5 0-.234375-.125-.375-.3125-.375-.359375 0-.90625.265625-1.5625.765625-.53125.40625-.765625.65625-1.546875 1.71875l.4063-1.5937c.046875-.1875.0625-.375.0625-.515625 0-.234375-.109375-.375-.265625-.375-.265625 0-.71875.25-1.59375.890625l-.3437.2344.0938.2344.375-.25c.4375-.28125.484375-.296875.5625-.296875.140625 0 .21875.125.21875.296875 0 .609375-.484375 2.921875-.984375 4.625l.0313.1406.8281-.1875.25-1.2187c.296875-1.328125.609375-2.03125 1.265625-2.75.515625-.546875 1.046875-.90625 1.375-.90625.09375 0 .140625.09375.140625.25 0 .421875-.25 1.78125-.75 3.875l-.2031.7969.0625.1406.8281-.1875.25-1.2656c.1875-.96875.59375-1.875 1.125-2.453125.65625-.734375 1.25-1.15625 1.640625-1.15625.09375 0 .15625.109375.15625.296875 0 .296875-.015625.453125-.296875 1.5l-.5156 1.875c-.09375.34375-.15625.640625-.15625.90625 0 .296875.125.484375.359375.484375.3125 0 .734375-.25 1.90625-1.125zm0 0" id="a"/><path d="M5.9531-5.1094l-.0312-.0625c-.34375.078125-.578125.109375-1.21875.109375-.203125-.3125-.3125-.421875-.609375-.546875-.25-.09375-.5625-.15625-.8125-.15625-.484375 0-1.078125.234375-1.609375.625C1-4.640625.65625-3.9375.65625-3.09375c0 .921875.53125 1.46875 1.453125 1.46875.109375 0 .234375 0 .359375-.015625l-.4844.4531c-.1875.1875-.328125.40625-.328125.5625 0 .125.09375.25.25.390625C1 .078125.640625.25.1875.625c-.40625.328125-.625.796875-.625 1.28125 0 .84375.828125 1.390625 2.140625 1.390625 1.53125 0 2.890625-.859375 2.890625-1.84375 0-.4375-.25-.875-.765625-1.28125l-.7187-.5937c-.40625-.3125-.5625-.546875-.5625-.765625 0-.109375.078125-.234375.25-.46875.03125-.046875.046875-.046875.078125-.09375 1.171875-.28125 2.015625-1.28125 2.015625-2.34375 0-.109375 0-.203125-.03125-.390625l-.0156-.0312H5.25c.203125 0 .3125-.015625.59375-.046875zM3.7969 1.8438c0 .625-.828125 1.125-1.8125 1.125-.984375 0-1.65625-.5-1.65625-1.234375 0-.453125.203125-.875.59375-1.203125.3125-.25.578125-.359375 1.1875-.546875L3.0313.6875c.546875.4375.765625.765625.765625 1.15625zm.2344-5.9219c0 1.234375-.578125 2.0625-1.40625 2.0625C1.890625-2.015625 1.5-2.5 1.5-3.4375c0-1.140625.609375-1.921875 1.484375-1.921875.703125 0 1.046875.4375 1.046875 1.28125zm0 0" id="c"/><path d="M5.9688 0c0-.296875.125-1.234375.28125-1.96875h-.375l-.2031.7344c-.109375.390625-.203125.59375-.3125.640625-.140625.0625-1.0625.125-1.71875.125-.671875 0-.96875-.015625-1.703125-.078125 0-.140625 0-.28125.015625-.421875L3.0625-7.3281c.078125-.453125.171875-.53125.609375-.578125l.5-.0312.0313-.3281c-.46875.015625-.953125.03125-1.4375.03125-.53125 0-1.0625-.015625-1.609375-.03125L1.125-7.9375l.5625.0313c.28125 0 .421875.09375.421875.296875 0 .1875-.046875.53125-.109375.921875L.9688-.6562C.9375-.4375.78125-.359375.25-.28125l-.0625.3125C.796875.015625 1.421875 0 2.03125 0c.890625 0 1.796875.03125 2.6875.03125.5 0 .84375 0 1.25-.03125zm0 0" id="d"/><path d="M4.6719-1.7656c0-.375-.09375-.65625-.328125-.890625-.3125-.3125-.703125-.4375-1.765625-.640625-.96875-.1875-1.296875-.4375-1.296875-.984375 0-.59375.421875-.9375 1.140625-.9375.8125 0 1.421875.421875 1.421875.984375v.2813h.3281c.015625-.703125.03125-.984375.0625-1.359375-.640625-.203125-1.0625-.296875-1.5625-.296875-1.375 0-2.234375.65625-2.234375 1.734375 0 .578125.265625.984375.8125 1.234375.328125.140625.96875.328125 1.78125.515625.53125.109375.765625.375.765625.828125 0 .640625-.609375 1.09375-1.453125 1.09375-.875 0-1.5-.421875-1.5-1.015625v-.4844H.4844c0 .8125-.03125 1.171875-.125 1.65625.625.203125 1.09375.28125 1.640625.28125 1.5625 0 2.671875-.828125 2.671875-2zm0 0" id="m"/><path d="M3.2344.0313v-.3594l-.5469-.0313C2.28125-.375 2.25-.46875 2.25-1.21875V-5.5625l-.1094-.0469c-.609375.25-1.234375.421875-1.859375.5v.3281h.4375c.46875 0 .53125.078125.53125.875v2.6875c0 .75-.046875.84375-.453125.859375L.25-.3281v.3594C.75.015625 1.25 0 1.75 0c.5 0 .984375.015625 1.484375.03125zm-.8906-7.6407c0-.34375-.234375-.609375-.59375-.609375-.359375 0-.609375.25-.609375.609375 0 .359375.25.59375.609375.59375.359375 0 .59375-.234375.59375-.59375zm0 0" id="n"/><path d="M6.8438.0313v-.3594l-.5-.0312c-.40625-.015625-.4375-.09375-.4375-.859375v-2.3125c0-1.390625-.65625-2.078125-2-2.078125-.4375 0-.6875.09375-.9375.296875l-.9062.7969V-5.5625l-.1094-.0469c-.609375.25-1.234375.421875-1.875.5v.3281h.4531c.46875 0 .515625.078125.515625.875v2.6875c0 .75-.03125.84375-.4375.859375l-.5312.0313V.0313C.5625.015625 1.0625 0 1.546875 0c.5 0 1 .015625 1.484375.03125v-.3594L2.5-.3594c-.40625-.0156-.4375-.10935-.4375-.85935V-3.75c0-.546875.78125-1.125 1.515625-1.125.796875 0 1.328125.59375 1.328125 1.515625V.0313c.3125-.015675.625-.0313.9375-.0313.34375 0 .65625.015625 1 .03125zm0 0" id="o"/><path d="M2.75-3.7969c0-.3125-.34375-.546875-.640625-.546875-.34375 0-.5.34375-.59375.625L.5469-.9219c-.01565.062525-.07815.2344-.07815.312525 0 .078125.046875.203125.140625.203125C.75-.40625.90625-.609375.96875-.703125l1.5156-2.4062c.125-.1875.265625-.4375.265625-.6875zm0 0" id="e"/><clipPath id="f"><path d="M.1797 58H104v32H.1797zm0 0"/></clipPath><clipPath id="g"><path d="M94 67h1v57h-1zm0 0"/></clipPath><clipPath id="h"><path d="M.1797 124.5352h123v-126h-123zm94.7813-.2578h-.8437l-1.3789-8.6406 1.8008 7.1992 1.8008-7.1992zm0 0" class="b"/></clipPath><clipPath id="i"><path d="M61 61h41v31H61zm0 0"/></clipPath><clipPath id="j"><path d="M.1797 124.5352h123v-126h-123zM67.418 85.6954 67 85.0352l6.5391-5.7578-5.1602 5.3398 7.082-2.2812zm0 0" class="b"/></clipPath><clipPath id="k"><path d="M87 43h35v32H87zm0 0"/></clipPath><clipPath id="l"><path d="M.1797 124.5352h123v-126h-123zm121.9609-75.2578.418.6602-6.3594 5.9375 4.9805-5.5195-6.9609 2.5194zm0 0" class="b"/></clipPath></defs><g clip-path="url(#f)"><path d="M971.80375 594.237188C830.905313 480.0575 655.085 417.752813 473.756875 417.752813c-168.59375 0-332.734375 53.828125-468.554687 153.671875" class="a"/></g><path d="M710.24125 902.596563c-69.414062-48.867188-152.148437-75.234375-236.992187-75.585938" class="a"/><path fill-rule="evenodd" d="M100.3008 67.5156c0 2.949219-2.394531 5.339844-5.339843 5.339844-2.949219 0-5.34375-2.390625-5.34375-5.339844 0-2.949219 2.394531-5.339844 5.34375-5.339844 2.945312 0 5.339843 2.390625 5.339843 5.339844"/><g style="fill:none;stroke:#000;stroke-miterlimit:10;transform:matrix(.1,0,0,-.1,.179,124.537)"><path stroke-width="18" d="M1001.217813 570.21375c0-29.492187-23.945313-53.398437-53.398438-53.398437-29.492187 0-53.4375 23.90625-53.4375 53.398437 0 29.492188 23.945313 53.398438 53.4375 53.398438 29.453125 0 53.398438-23.90625 53.398438-53.398438zm0 0"/><path stroke-width="4.5" d="M473.21 1235.018438v-807.03125"/><path stroke-width="18" d="M473.21 1235.018438 947.819375 570.21375"/><g stroke-width="4.5" stroke-dasharray="9,27" stroke-dashoffset="27"><path d="M943.600625 12.205938 675.3975 392.010625"/><path d="M723.405313 333.8075l72.578125 48.007813-42.578125 61.796875"/></g></g><g clip-path="url(#g)"><g clip-path="url(#h)"><path d="M943.600625 567.791875V6.815313" class="a"/></g></g><path d="M961.608438 89.002813l-18.007813-71.992188-18.007812 71.992188" class="a"/><g clip-path="url(#i)"><g clip-path="url(#j)"><path d="M948.99125 565.995 673.600625 393.8075" class="a"/></g></g><path d="M752.819375 422.010625l-70.820312-22.8125 51.601562 53.398438" class="a"/><g clip-path="url(#k)"><g clip-path="url(#l)"><path d="M941.80375 562.40125l276.601563 184.804688" class="a"/></g></g><path d="M1140.3975 716.62l69.609375 25.195313L1160.202188 686.62" class="a"/><use x="61.8" y="50.856" href="#b"/><use x="97.86" y="96.037" href="#a"/><use x="108.5958" y="96.037" href="#c"/><use x="22.88" y="96.397" href="#a"/><use x="33.6158" y="96.397" href="#c"/><use x="42.1876" y="96.397" href="#m"/><use x="47.2567" y="96.397" href="#n"/><use x="50.7356" y="96.397" href="#o"/><use x="59.7977" y="96.397" href="#b"/><use x="75.542" y="68.256" href="#a"/><use x="75.119" y="28.055" href="#d"/><use x="91.177" y="50.016" href="#a"/><use x="101.315" y="50.016" href="#d"/><use x="108.2012" y="50.016" href="#b"/><use x="115.9" y="45.676" href="#e"/><use x="118.6616" y="45.676" href="#e"/><style>.a{fill:none;stroke:#000;stroke-miterlimit:10;stroke-width:4.5;transform:matrix(.1,0,0,-.1,.179,124.537)}.b{clip-rule:evenodd}</style></svg>