<svg xmlns="http://www.w3.org/2000/svg" width="431pt" height="146pt" viewBox="0 0 431 146"><defs><path d="M2.4219.2344c2.078125 0 3.59375-.90625 3.59375-3.03125 0-.53125-.171875-.875-.5-1.171875-.40625-.390625-.90625-.59375-2.25-.78125-1.453125-.1875-1.96875-.578125-1.96875-1.5 0-1 .75-1.71875 1.796875-1.71875.46875 0 .90625.09375 1.234375.265625.390625.203125.53125.390625.5625.734375l.0625.6875h.3906c0-.640625.046875-1.046875.171875-1.6875-.96875-.390625-1.5-.5-2.15625-.5-1.78125 0-3.078125 1.125-3.078125 2.6875 0 .578125.15625 1.015625.5 1.328125.40625.375.96875.5625 2.125.71875.921875.140625 1.34375.28125 1.640625.546875.3125.265625.46875.59375.46875 1.046875 0 1.078125-.90625 1.859375-2.140625 1.859375C1.90625-.28125.984375-.75.921875-1.25l-.0937-.7969H.4375c.015625.21875.015625.40625.015625.484375 0 .546875-.015625.8125-.09375 1.34375.6875.296875 1.375.453125 2.0625.453125zm0 0" id="v"/><path d="M10.3906.0313v-.3594l-.5625-.0312c-.40625-.015625-.4375-.109375-.4375-.859375V-3.6875c0-1.171875-.703125-1.921875-1.796875-1.921875-.421875 0-.765625.109375-.984375.296875l-.9062.8125C5.3125-5.28125 4.828125-5.609375 4-5.609375c-.4375 0-.765625.109375-.984375.296875l-.8281.7656v-1.0156l-.1094-.0469c-.609375.25-1.234375.421875-1.859375.5v.3281h.4375c.484375 0 .53125.078125.53125.875v2.6875c0 .75-.046875.84375-.453125.859375L.1875-.3281v.3594C.6875.015625 1.203125 0 1.703125 0 2.1875 0 2.65625.015625 3.125.03125v-.3594l-.5-.0312c-.40625-.01565-.4375-.1094-.4375-.8594V-3.75c0-.546875.78125-1.125 1.5-1.125.65625 0 1.09375.609375 1.09375 1.515625v2.1406c0 .75-.03125.84375-.4375.859375l-.5469.0313v.3594C4.296875.015625 4.78125 0 5.28125 0c.5 0 1 .015625 1.5.03125v-.3594l-.5469-.0312c-.406225-.01565-.4531-.1094-.4531-.8594V-3.75c0-.546875.796875-1.125 1.515625-1.125.640625 0 1.078125.609375 1.078125 1.515625V.0313C8.6875.015625 9.015625 0 9.328125 0c.359375 0 .703125.015625 1.0625.03125zm0 0" id="w"/><path d="M5.625.0313v-.3594l-.4687-.0156c-.28125-.015625-.328125-.109375-.328125-.703125v-2.1875c0-1.734375-.5-2.375-1.890625-2.375-.515625 0-.984375.140625-1.4375.40625L.8594-4.8125v.7656l.3125.0938.1563-.375c.234375-.5625.375-.640625.921875-.640625 1.125 0 1.59375.4375 1.625 1.53125l-1.1875.2031c-1.625.3125-2.3125.875-2.3125 1.90625 0 .9375.5625 1.46875 1.515625 1.46875.21875 0 .421875-.03125.5-.09375L3.875-.9844 3.8125.0313C4.125.015625 4.4375 0 4.75 0c.296875 0 .578125.015625.875.03125zm-1.75-1.5156c-.34375.5-1.109375.953125-1.5625.953125-.484375 0-.90625-.453125-.90625-.96875 0-.4375.25-.859375.609375-1.078125.296875-.1875.953125-.34375 1.859375-.484375zm0 0" id="a"/><path d="M3.2344.0313v-.3594l-.5469-.0313C2.28125-.375 2.25-.46875 2.25-1.21875v-7.3594l-.1094-.0937c-.53125.203125-.921875.296875-1.859375.4375v.3281H.9375c.21875 0 .3125.140625.3125.5v6.1875c0 .75-.046875.84375-.453125.859375L.25-.3281v.3594C.75.015625 1.25 0 1.75 0c.5 0 .984375.015625 1.484375.03125zm0 0" id="b"/><path d="M6.8438.0313v-.3594l-.5-.0312c-.40625-.015625-.4375-.09375-.4375-.859375v-2.3125c0-1.390625-.65625-2.078125-2-2.078125-.4375 0-.6875.09375-.9375.296875l-.9062.7969V-5.5625l-.1094-.0469c-.609375.25-1.234375.421875-1.875.5v.3281h.4531c.46875 0 .515625.078125.515625.875v2.6875c0 .75-.03125.84375-.4375.859375l-.5312.0313V.0313C.5625.015625 1.0625 0 1.546875 0c.5 0 1 .015625 1.484375.03125v-.3594L2.5-.3594c-.40625-.0156-.4375-.10935-.4375-.85935V-3.75c0-.546875.78125-1.125 1.515625-1.125.796875 0 1.328125.59375 1.328125 1.515625V.0313c.3125-.015675.625-.0313.9375-.0313.34375 0 .65625.015625 1 .03125zm0 0" id="g"/><path d="M6.5-5.0156l-.0469-.1406-1.7031.0468c-.4375-.359375-.859375-.5-1.453125-.5-.53125 0-1.140625.171875-1.625.453125C1-4.765625.65625-4.1875.65625-3.453125c0 .890625.546875 1.5 1.4375 1.59375l-.9531.7188c-.1094.18745-.1719.3437-.1719.515575 0 .34375.21875.53125.78125.703125l-1.0312.5625c-.171875.09375-.34375.53125-.34375.90625C.375 2.625 1.453125 3.375 2.96875 3.375 4.765625 3.375 6.1875 2.25 6.1875.78125c0-.859375-.5625-1.453125-1.40625-1.453125H2.875c-.625 0-.921875-.140625-.921875-.46875 0-.15625.109375-.28125.40625-.546875.078125-.0625.109375-.078125.15625-.125.109375 0 .1875.015625.28125.015625.515625 0 1.140625-.21875 1.640625-.5625.53125-.40625.796875-.875.796875-1.515625 0-.234375-.03125-.390625-.125-.640625h1.0938zm-2.2656 1.5c0 .78125-.5 1.3125-1.234375 1.3125-.796875 0-1.34375-.625-1.34375-1.53125 0-.921875.453125-1.46875 1.21875-1.46875.8125 0 1.359375.671875 1.359375 1.6875zM5.25 1.2188c0 1.03125-.953125 1.796875-2.203125 1.796875-1.03125 0-1.75-.609375-1.75-1.5 0-.53125.3125-1.015625.78125-1.234375.1875-.078125.53125-.109375 1.359375-.109375C4.78125.171875 5.25.4375 5.25 1.21875zm0 0" id="e"/><path d="M6.9375.0313v-.3594l-.4844-.0312c-.40625-.015625-.4375-.09375-.4375-.859375V-5.5625l-.1094-.0469c-.609375.25-1.234375.421875-1.859375.5v.3281h.4375c.46875 0 .53125.078125.53125.875v1.9531c0 .25-.171875.59375-.453125.859375-.328125.34375-.71875.515625-1.1875.515625-.40625 0-.75-.140625-.9375-.359375-.171875-.203125-.25-.5625-.25-1.09375V-5.5625l-.1094-.0469c-.609375.25-1.234375.421875-1.859375.5v.3281h.4375c.484375 0 .53125.078125.53125.875v2c0 .84375.0625 1.21875.28125 1.515625.265625.359375.71875.53125 1.40625.53125.53125 0 1.015625-.171875 1.328125-.46875l.8125-.7344c0 .34375-.015625.53125-.0625 1.09375C5.296875.015625 5.625 0 5.953125 0c.328125 0 .65625.015625.984375.03125zm0 0" id="h"/><path d="M4.4688-5.4687c-.125-.09375-.34375-.140625-.5625-.140625-.359375 0-.734375.1875-.984375.5L2.25-4.3281v-1.2344l-.1094-.0469c-.609375.25-1.234375.421875-1.859375.5v.3281h.4375c.46875 0 .53125.078125.53125.875v2.6875c0 .75-.046875.84375-.453125.859375L.25-.3281v.3594C.734375.015625 1.234375 0 1.71875 0c.578125 0 1.140625.015625 1.71875.03125v-.3594l-.625-.0312C2.265625-.390625 2.25-.4375 2.25-1.21875v-2.0625c0-.71875.46875-1.3125 1.0625-1.3125.359375 0 .609375.171875.796875.546875h.25zm0 0" id="f"/><path d="M6.4375-5.1562v-.3281c-.359375.015625-.75.03125-1.125.03125-.359375 0-.75-.015625-1.109375-.03125v.3281l.4844.0312c.203125.015625.296875.109375.296875.3125 0 .203125-.078125.46875-.234375.875l-.5 1.2656L3.5-1 2.0781-4.4531c-.0625-.140625-.09375-.28125-.09375-.40625 0-.15625.078125-.25.28125-.265625l.5938-.0312v-.3281c-.46875.015625-.9375.03125-1.40625.03125-.46875 0-.921875-.015625-1.375-.03125v.3281l.4063.0313c.203125.015625.25.109375.359375.390625l2.0625 4.8125H3.5c.078125-.39075.25-.76575.5-1.297l1.4063-3.1094c.265625-.609375.421875-.78125.671875-.796875zm0 0" id="i"/><path d="M5.3594-3.3281c0-1.375-.890625-2.28125-2.234375-2.28125-.4375 0-.953125.15625-1.4375.453125C.703125-4.609375.3125-3.859375.3125-2.625c0 .765625.171875 1.40625.5 1.859375.46875.640625 1.28125 1 2.171875 1 .453125 0 .890625-.09375 1.375-.3125.328125-.125.578125-.28125.625-.359375l.2344-.4062-.1562-.1094c-.765625.453125-1.03125.5625-1.546875.5625-.78125 0-1.421875-.34375-1.765625-.9375-.218825-.39065-.29695-.7344-.3282-1.4219h1.75C4-2.75 4.5-2.78125 5.328125-2.921875c.015625-.15625.03125-.265625.03125-.40625zm-1.0625.1406-1.3437.0313c-.546875 0-.859375-.015625-1.5-.078125 0-.5625.046875-.8125.203125-1.125.25-.53125.765625-.859375 1.328125-.859375.390625 0 .703125.15625.921875.484375.265625.390625.390625.734375.390625 1.546875zm0 0" id="c"/><path d="M6.1406-2.8281c0-1.625-1.171875-2.78125-2.8125-2.78125C1.59375-5.609375.375-4.375.375-2.59375.375-.90625 1.453125.234375 2.984375.234375c1.84375 0 3.15625-1.28125 3.15625-3.0625zm-1.1094.4375c0 1.375-.609375 2.234375-1.578125 2.234375C2.28125-.15625 1.5-1.296875 1.5-3c0-1.4375.5625-2.21875 1.625-2.21875 1.09375 0 1.90625 1.203125 1.90625 2.828125zm0 0" id="l"/><path d="M4.9375-.5469l-.125-.1875C4.375-.484375 4-.375 3.5625-.375c-1.328125 0-2.203125-1.03125-2.203125-2.609375 0-1.28125.59375-2 1.671875-2 .53125 0 1.109375.234375 1.3125.53125l.0938.7344h.3281c0-.546875.0625-1.03125.171875-1.46875-.484375-.28125-.890625-.421875-1.390625-.421875-.578125 0-1.234375.234375-1.953125.6875C.75-4.40625.3125-3.5625.3125-2.515625c0 1.625 1.140625 2.75 2.734375 2.75.625 0 1.515625-.21875 1.640625-.40625zm0 0" id="m"/><path d="M3.2344.0313v-.3594l-.5469-.0313C2.28125-.375 2.25-.46875 2.25-1.21875V-5.5625l-.1094-.0469c-.609375.25-1.234375.421875-1.859375.5v.3281h.4375c.46875 0 .53125.078125.53125.875v2.6875c0 .75-.046875.84375-.453125.859375L.25-.3281v.3594C.75.015625 1.25 0 1.75 0c.5 0 .984375.015625 1.484375.03125zm-.8906-7.6407c0-.34375-.234375-.609375-.59375-.609375-.359375 0-.609375.25-.609375.609375 0 .359375.25.59375.609375.59375.359375 0 .59375-.234375.59375-.59375zm0 0" id="d"/><path d="M3.8125-5.2187l-1.6406.0781v-.4531c0-.5.046875-.9375.140625-1.703125l-.1562-.125c-.281325.171825-.6407.328075-1.0157.453075.046875.359375.046875.578125.046875.9375v.8438l-.9219.4219v.25l.9063-.0469v3.4375c0 .890625.390625 1.265625 1.3125 1.265625.28125 0 .5625-.0625.640625-.140625l.5625-.6406-.1562-.2031c-.296875.171875-.46875.234375-.703125.234375-.46875 0-.65625-.234375-.65625-.828125v-3.125h1.5313zm0 0" id="n"/><path d="M4.6719-1.7656c0-.375-.09375-.65625-.328125-.890625-.3125-.3125-.703125-.4375-1.765625-.640625-.96875-.1875-1.296875-.4375-1.296875-.984375 0-.59375.421875-.9375 1.140625-.9375.8125 0 1.421875.421875 1.421875.984375v.2813h.3281c.015625-.703125.03125-.984375.0625-1.359375-.640625-.203125-1.0625-.296875-1.5625-.296875-1.375 0-2.234375.65625-2.234375 1.734375 0 .578125.265625.984375.8125 1.234375.328125.140625.96875.328125 1.78125.515625.53125.109375.765625.375.765625.828125 0 .640625-.609375 1.09375-1.453125 1.09375-.875 0-1.5-.421875-1.5-1.015625v-.4844H.4844c0 .8125-.03125 1.171875-.125 1.65625.625.203125 1.09375.28125 1.640625.28125 1.5625 0 2.671875-.828125 2.671875-2zm0 0" id="o"/><path d="M7-2.0625h-.375l-.1406.6094c-.109375.46875-.203125.71875-.265625.765625-.15625.140625-1.203125.21875-2.625.21875-.421875 0-.703125-.015625-1.015625-.09375v-6.2344c0-.953125.0625-1.046875.609375-1.078125l.5781-.0312v-.3594c-.59375.015625-1.171875.03125-1.75.03125-.59375 0-1.171875-.015625-1.75-.03125v.3594L.8438-7.875c.546875.03125.609375.125.609375 1.078125v5.6563c0 .359375-.109375.609375-.3125.703125L.7813-.2344v.2657C1.171875.015625 1.5625 0 1.953125 0 2.890625 0 3.8125.03125 4.75.03125c.5 0 .375 0 2-.03125.09375-.515625.140625-.890625.25-2.0625zm0 0" id="z"/><path d="M6.8438-6.0312c0-1.359375-.390625-2.359375-1.90625-2.359375-3.109375 0-4.09375 3.46875-4.09375 6.015625 0 1.421875.4375 2.5625 2.0625 2.5625 2.8125 0 3.9375-3.96875 3.9375-6.21875zm-.875-.1562c0 .546875-.09375 1.09375-.1875 1.640625H2.0156c.28125-1.25 1.15625-3.53125 2.703125-3.53125 1.03125 0 1.25 1.078125 1.25 1.890625zm-.25 2.0156C5.453125-2.828125 4.796875-.15625 3.078125-.15625 1.875-.15625 1.75-1.5 1.75-2.421875c0-.59375.109375-1.171875.203125-1.75zm0 0" id="j"/><path d="M7.2656-5.5781c-.8281.0156-1.67185.04685-2.5156.04685-1.015625 0-2.046875-.03125-3.0625-.03125-.78125-.015625-.9375.90625-1.15625 1.5l.0156.0781.0938.0625.0938-.0469c.484375-.75.765625-.875 1.671875-.875h.2656C2.234375-3.171875 1.84375-1.546875 1.125.03125l.0938.1094c.234375-.0625.65625-.15625.875-.296875.453125-1.53125.765625-3.125 1.0625-4.6875H5.875c-.65625 1.04685-1.125 2.29685-1.125 3.54685 0 .59375.203125 1.46875.921875 1.46875.5 0 1.125-.46875 1.484375-.78125L7.1875-.6875 7.125-.7812l-.0937-.0156C6.828125-.671875 6.59375-.5 6.296875-.5c-.65625 0-.734375-1-.734375-1.484375 0-1.015625.3125-2 .828125-2.859375L7.125-5c.015625-.203125.09375-.40625.140625-.578125zm0 0" id="x"/><path d="M.7813-4.1406h6.4375v-.7187H.7813zm0 2.5313h6.4375v-.7032H.7813zm0 0" id="k"/><path d="M5.5625-4.375c0-2.625-.78125-3.859375-2.421875-3.859375-1.84375 0-2.796875 1.46875-2.796875 4.359375 0 1.40625.25 2.609375.671875 3.1875.421875.59375 1.09375.921875 1.828125.921875C4.65625.234375 5.5625-1.3125 5.5625-4.375zm-1.0156.5938C4.546875-1.234375 4.09375-.171875 3-.171875c-1.15625 0-1.65625-1.21875-1.65625-4.125 0-2.53125.453125-3.515625 1.578125-3.515625 1.171875 0 1.625 1.171875 1.625 4.03125zm0 0" id="y"/><clipPath id="p"><path d="M69 95h94v27H69zm0 0"/></clipPath><clipPath id="q"><path clip-rule="evenodd" d="M-1.8164-.4648v147h431v-147zm85.2031 105.043-7.6211-4.9805-1.9219 3 7.5625 4.9805-4.9805-5.4023zm65.5781 4.1406 9.3008-6.1211-1.9219-3-9.2969 6.1211 8.5195-3.4219zm0 0"/></clipPath><clipPath id="r"><path d="M316 13h84v84h-84zm0 0"/></clipPath><clipPath id="s"><path clip-rule="evenodd" d="M-1.8164-.4648v147h431v-147zm396.0625 51.1016-2.1602-8.8203-3.4805.8398 2.1602 8.8203.0586-7.3789zm0 0"/></clipPath><clipPath id="t"><path d="M391 0h38.1836v38H391zm0 0"/></clipPath><clipPath id="u"><path d="M329 0h100.1836v83H329zm0 0"/></clipPath></defs><g clip-path="url(#p)"><g clip-path="url(#q)"><path d="M1584.009375 449.002813c-116.835937-87.617188-258.945312-135-405-135-146.054687 0-288.164062 47.382812-405 135" class="b"/></g></g><path d="M148.9648 108.7188l6.6016-6.4219-8.5195 3.4219 2.457.4766-.5391 2.5234" class="a"/><path d="M1507.798438 378.1825l66.015625 64.21875-85.195313-34.21875 24.570313-4.765625zm0 0" class="b"/><path d="M83.3867 104.5781l-6.9609-2.4023 4.9805 5.4023 1.9805-3" class="a"/><path d="M852.017188 419.58875l-69.609375 24.023438L832.2125 389.58875zm0 0" class="b"/><path d="M165.8867 95.3984c0 2.949218-2.394531 5.339843-5.339844 5.339843-2.949219 0-5.34375-2.390625-5.34375-5.339843 0-2.949219 2.394531-5.339844 5.34375-5.339844 2.945313 0 5.339844 2.390625 5.339844 5.339844" class="a"/><g style="fill:none;stroke:#000;stroke-miterlimit:10;transform:matrix(.1,0,0,-.1,-1.815,146.537)"><g stroke-width="18"><path d="M1677.017188 511.385625c0-29.492187-23.945313-53.398437-53.398438-53.398437-29.492187 0-53.4375 23.90625-53.4375 53.398437 0 29.492188 23.945313 53.398438 53.4375 53.398438 29.453125 0 53.398438-23.90625 53.398438-53.398438zm0 0"/><path d="M1172.99375 1168.416875l474.609375-664.804687"/></g><path stroke-width="4.5" d="M1179.009375 1145.018438v-807.03125"/></g><g clip-path="url(#r)"><g clip-path="url(#s)"><path d="M3834.009375 1168.96375c-64.921875 60.429688-150.3125 93.984375-238.984375 93.984375-193.75 0-350.820312-157.070312-350.820312-350.820312 0-193.75 157.070312-350.820313 350.820312-350.820313 193.75 0 350.820313 157.070313 350.820313 350.820313 0 41.601562-7.382813 82.851562-21.835938 121.835937" class="b"/></g></g><path d="M394.2461 50.6367l-3.4219-6.5391-.0586 7.3789 3.4805-.8398" class="a"/><path d="M3960.610938 959.002813l-34.21875 65.390625-.585938-73.789063zm0 0" class="b"/><path d="M17.9258 115.1367c0 2.949219-2.390625 5.339843-5.339843 5.339843-2.949219 0-5.339844-2.390624-5.339844-5.339843 0-2.949219 2.390625-5.339844 5.339844-5.339844 2.949218 0 5.339843 2.390625 5.339843 5.339844" class="a"/><path d="M197.407813 314.002813c0-29.492188-23.90625-53.398438-53.398438-53.398438-29.492187 0-53.398437 23.90625-53.398437 53.398438 0 29.492187 23.90625 53.398437 53.398437 53.398437 29.492188 0 53.398438-23.90625 53.398438-53.398437zm0 0" class="c"/><path d="M247.4258 7.1367c0 2.949219-2.390625 5.339843-5.339843 5.339843-2.949219 0-5.339844-2.390624-5.339844-5.339843 0-2.949219 2.390625-5.339844 5.339844-5.339844 2.949218 0 5.339843 2.390625 5.339843 5.339844" class="a"/><path d="M2492.407813 1394.002813c0-29.492188-23.90625-53.398438-53.398438-53.398438-29.492187 0-53.398437 23.90625-53.398437 53.398438 0 29.492187 23.90625 53.398437 53.398437 53.398437 29.492188 0 53.398438-23.90625 53.398438-53.398437zm0 0" class="c"/><path d="M427.4258 7.1367c0 2.949219-2.390625 5.339843-5.339843 5.339843-2.949219 0-5.339844-2.390624-5.339844-5.339843 0-2.949219 2.390625-5.339844 5.339844-5.339844 2.949218 0 5.339843 2.390625 5.339843 5.339844" class="a"/><g clip-path="url(#t)"><path d="M4292.407813 1394.002813c0-29.492188-23.90625-53.398438-53.398438-53.398438-29.492187 0-53.398437 23.90625-53.398437 53.398438 0 29.492187 23.90625 53.398437 53.398437 53.398437 29.492188 0 53.398438-23.90625 53.398438-53.398437zm0 0" class="c"/></g><g class="c"><path d="M144.009375 1169.002813v-810"/><path d="M2439.009375 674.002813v720"/></g><g clip-path="url(#u)"><path d="M3564.009375 899.002813l664.804688 474.609375" class="c"/></g><use x="66.586" y="142.157" href="#v"/><use x="72.8625" y="142.157" href="#w"/><use x="83.4189" y="142.157" href="#a"/><use x="89.3965" y="142.157" href="#b"/><use x="92.8755" y="142.157" href="#b"/><use x="99.3432" y="142.157" href="#a"/><use x="105.3208" y="142.157" href="#g"/><use x="112.2788" y="142.157" href="#e"/><use x="118.9259" y="142.157" href="#h"/><use x="126.1349" y="142.157" href="#b"/><use x="129.6138" y="142.157" href="#a"/><use x="135.5914" y="142.157" href="#f"/><use x="143.3025" y="142.157" href="#i"/><use x="149.579" y="142.157" href="#c"/><use x="155.3055" y="142.157" href="#b"/><use x="158.7845" y="142.157" href="#l"/><use x="165.312" y="142.157" href="#m"/><use x="170.6202" y="142.157" href="#d"/><use x="174.0991" y="142.157" href="#n"/><use x="177.9965" y="142.157" href="#d"/><use x="181.4755" y="142.157" href="#c"/><use x="187.202" y="142.157" href="#o"/><use x="305.0922" y="142.157" href="#z"/><use x="312.3969" y="142.157" href="#a"/><use x="318.3745" y="142.157" href="#f"/><use x="322.9772" y="142.157" href="#e"/><use x="329.3852" y="142.157" href="#c"/><use x="338.1005" y="142.157" href="#a"/><use x="344.0781" y="142.157" href="#g"/><use x="351.0361" y="142.157" href="#e"/><use x="357.6832" y="142.157" href="#h"/><use x="364.8922" y="142.157" href="#b"/><use x="368.3711" y="142.157" href="#a"/><use x="374.3487" y="142.157" href="#f"/><use x="382.0598" y="142.157" href="#i"/><use x="388.3363" y="142.157" href="#c"/><use x="394.0628" y="142.157" href="#b"/><use x="397.5418" y="142.157" href="#l"/><use x="404.0693" y="142.157" href="#m"/><use x="409.3775" y="142.157" href="#d"/><use x="412.8564" y="142.157" href="#n"/><use x="416.7538" y="142.157" href="#d"/><use x="420.2328" y="142.157" href="#c"/><use x="425.9593" y="142.157" href="#o"/><use x="-.796" y="142.157" href="#j"/><use x="10.2267" y="142.157" href="#k"/><use x="21.5483" y="142.157" href="#y"/><use x="228.708" y="142.157" href="#j"/><use x="239.7307" y="142.157" href="#k"/><use x="251.0522" y="142.157" href="#x"/><style>.a{fill-rule:evenodd}.b{fill:none;stroke:#000;stroke-miterlimit:10;stroke-width:4.5;transform:matrix(.1,0,0,-.1,-1.815,146.537)}.c{fill:none;stroke:#000;stroke-miterlimit:10;stroke-width:18;transform:matrix(.1,0,0,-.1,-1.815,146.537)}</style></svg>