<svg xmlns="http://www.w3.org/2000/svg" width="372pt" height="130pt" viewBox="0 0 372 130"><defs><path d="M.9375-2.4219c-.21875 0-.421875.109375-.546875.265625-.171875.21875-.25.546875-.25.984375 0 .8125.28125 1.25.796875 1.25.515625 0 .796875-.4375.796875-1.21875 0-.48435-.078125-.79685-.234375-1.0156-.125-.15625-.328125-.265625-.5625-.265625zm0 .2656c.328125 0 .484375.328125.484375.984375 0 .6875-.15625 1-.484375 1-.328125 0-.484375-.328125-.484375-1 0-.65625.15625-.984375.484375-.984375zm0 0" id="d"/><path d="M1.7344-.2969H.4531C.484375-.5.59375-.625.890625-.796875l.3438-.1875c.34375-.171875.515625-.421875.515625-.71875 0-.203125-.078125-.390625-.234375-.515625-.140625-.140625-.3125-.203125-.546875-.203125-.3125 0-.53125.109375-.671875.3125-.078125.140625-.125.28125-.125.53125H.4688c.015625-.15625.03125-.265625.078125-.34375C.625-2.0625.78125-2.15625.96875-2.15625c.265625 0 .46875.203125.46875.453125 0 .1875-.109375.359375-.328125.484375l-.3125.1719c-.5.28125-.65625.515625-.6875 1.046875h1.625zm0 0" id="e"/><path d="M1.125-.5781V0h.2969v-.5781h.3594v-.2656h-.3594v-1.5781h-.2187L.0938-.8906v.3125zm0-.2656H.3594l.7656-1.0625zm0 0" id="f"/><path d="M1.7031-1.7812c-.0625-.40625-.3125-.640625-.6875-.640625-.265625 0-.5.140625-.65625.34375-.140625.234375-.21875.53125-.21875.984375 0 .40625.0625.65625.21875.875.125.1875.328125.296875.609375.296875.453125 0 .78125-.34375.78125-.8125C1.75-1.1875 1.453125-1.5 1.015625-1.5c-.25 0-.4375.09375-.5625.265625 0-.59375.203125-.921875.546875-.921875.203125 0 .359375.140625.40625.375zm-.7344.5469c.296875 0 .484375.203125.484375.515625 0 .3125-.21875.53125-.484375.53125-.28125 0-.5-.234375-.5-.546875 0-.296875.203125-.5.5-.5zm0 0" id="g"/><path d="M1.3438-1.2656c.25-.15625.328125-.28125.328125-.5 0-.390625-.296875-.65625-.734375-.65625-.421875 0-.71875.265625-.71875.65625 0 .21875.078125.34375.328125.5C.265625-1.140625.125-.9375.125-.671875c0 .4375.34375.75.8125.75.484375 0 .8125-.3125.8125-.75 0-.265625-.125-.46875-.40625-.59375zm-.4063-.8906c.265625 0 .421875.15625.421875.390625 0 .21875-.171875.375-.421875.375-.25 0-.421875-.15625-.421875-.375C.515625-2 .6875-2.15625.9375-2.15625zm0 1.0156c.296875 0 .515625.1875.515625.46875 0 .296875-.21875.484375-.515625.484375-.296875 0-.5-.1875-.5-.484375 0-.28125.203125-.46875.5-.46875zm0 0" id="h"/><path d="M.8906-1.7187V0h.2969v-2.4219H.9844C.890625-2.046875.8125-2 .34375-1.9375v.2188zm0 0" id="i"/><path d="M.9688-1.0625H.1563v.25h.8125zm0 0" id="j"/><clipPath id="k"><use href="#a"/></clipPath><clipPath id="l"><path d="M6 64h360v1H6zm0 0"/></clipPath><clipPath id="m"><use href="#a"/></clipPath><clipPath id="n"><path d="M77 3.793h2v120.6992h-2zm0 0"/></clipPath><clipPath id="o"><path d="M149 3.793h2v120.6992h-2zm0 0"/></clipPath><clipPath id="p"><path d="M222 3.793h1v120.6992h-1zm0 0"/></clipPath><clipPath id="q"><path d="M294 3.793h1v120.6992h-1zm0 0"/></clipPath><clipPath id="r"><path d="M6 97h360v1H6zm0 0"/></clipPath><clipPath id="s"><path d="M6 64h360v1H6zm0 0"/></clipPath><clipPath id="t"><path d="M6 32h360v1H6zm0 0"/></clipPath><clipPath id="u"><path d="M6 8h360v112H6zm0 0"/></clipPath><path id="a" d="M6 3.793h1v120.6992H6zm0 0"/><path id="b" d="M199.3998-105.3952V-1316.029"/><path id="c" d="M199.3998-704.6587h3589.1965"/></defs><path fill="#fff" d="M6 124.4922h360V3.793H6zm0 0"/><g clip-path="url(#k)"><use href="#b" class="e"/></g><g clip-path="url(#l)"><use href="#c" class="e"/></g><g clip-path="url(#m)"><use href="#b" class="a"/></g><g clip-path="url(#n)"><path d="M917.823289-105.395154v-1210.633774" class="a"/></g><g clip-path="url(#o)"><path d="M1636.285717-105.395154v-1210.633774" class="a"/></g><g clip-path="url(#p)"><path d="M2354.7092-105.395154v-1210.633774" class="a"/></g><g clip-path="url(#q)"><path d="M3073.132683-105.395154v-1210.633774" class="a"/></g><g clip-path="url(#r)"><path d="M199.399807-378.325503h3589.196518" class="a"/></g><g clip-path="url(#s)"><use href="#c" class="a"/></g><g clip-path="url(#t)"><path d="M199.399807-1030.991848h3589.196518" class="a"/></g><g class="b"><path d="M199.399807-105.395154h3589.196518" class="c"/><g class="d"><path d="M199.399807-105.395154v-22.802966"/><path d="M199.399807-105.395154v-11.401483"/><path d="M271.253838-105.395154v-11.401483"/><path d="M343.10787-105.395154v-11.401483"/><path d="M414.922957-105.395154v-11.401483"/><path d="M486.776989-105.395154v-11.401483"/><path d="M558.631021-105.395154v-11.401483"/><path d="M630.446107-105.395154v-11.401483"/><path d="M702.300139-105.395154v-11.401483"/><path d="M774.154171-105.395154v-11.401483"/><path d="M917.823289-105.395154v-22.802966"/><path d="M917.823289-105.395154v-11.401483"/><path d="M989.677321-105.395154v-11.401483"/><path d="M1061.531353-105.395154v-11.401483"/><path d="M1133.385385-105.395154v-11.401483"/><path d="M1205.200472-105.395154v-11.401483"/><path d="M1277.054503-105.395154v-11.401483"/><path d="M1348.908535-105.395154v-11.401483"/><path d="M1420.762567-105.395154v-11.401483"/><path d="M1492.577654-105.395154v-11.401483"/><path d="M1636.285717-105.395154v-22.802966"/><path d="M1636.285717-105.395154v-11.401483"/><path d="M1708.100804-105.395154v-11.401483"/><path d="M1779.954836-105.395154v-11.401483"/><path d="M1851.808868-105.395154v-11.401483"/><path d="M1923.6629-105.395154v-11.401483"/><path d="M1995.516932-105.395154v-11.401483"/><path d="M2067.332018-105.395154v-11.401483"/><path d="M2139.18605-105.395154v-11.401483"/><path d="M2211.040082-105.395154v-11.401483"/><path d="M2354.7092-105.395154v-22.802966"/><path d="M2354.7092-105.395154v-11.401483"/><path d="M2426.563232-105.395154v-11.401483"/><path d="M2498.417264-105.395154v-11.401483"/><path d="M2570.232351-105.395154v-11.401483"/><path d="M2642.086382-105.395154v-11.401483"/><path d="M2713.940414-105.395154v-11.401483"/><path d="M2785.794446-105.395154v-11.401483"/><path d="M2857.648478-105.395154v-11.401483"/><path d="M2929.463565-105.395154v-11.401483"/><path d="M3073.132683-105.395154v-22.802966"/><path d="M3073.132683-105.395154v-11.401483"/><path d="M3144.986715-105.395154v-11.401483"/><path d="M3216.840747-105.395154v-11.401483"/><path d="M3288.655833-105.395154v-11.401483"/><path d="M3360.509865-105.395154v-11.401483"/><path d="M3432.363897-105.395154v-11.401483"/><path d="M3504.217929-105.395154v-11.401483"/><path d="M3576.071961-105.395154v-11.401483"/><path d="M3647.925993-105.395154v-11.401483"/><path d="M3791.595111-105.395154v-22.802966"/><path d="M3791.595111-105.395154v-11.401483"/></g></g><use x="5.0469" y="129.0359" href="#d"/><use x="76.0941" y="129.0359" href="#e"/><use x="78.0004" y="129.0359" href="#d"/><use x="148.0945" y="129.0359" href="#f"/><use x="150.0008" y="129.0359" href="#d"/><use x="220.0945" y="129.0359" href="#g"/><use x="222.0008" y="129.0359" href="#d"/><use x="292.0949" y="129.0359" href="#h"/><use x="294.0012" y="129.0359" href="#d"/><use x="363.428" y="129.0359" href="#i"/><use x="365.3343" y="129.0359" href="#d"/><use x="367.2406" y="129.0359" href="#d"/><g class="b"><path d="M199.399807-1316.028928h3589.196518" class="c"/><g class="d"><path d="M199.399807-1316.028928v22.763786"/><path d="M199.399807-1316.028928v11.401484"/><path d="M271.253838-1316.028928v11.401484"/><path d="M343.10787-1316.028928v11.401484"/><path d="M414.922957-1316.028928v11.401484"/><path d="M486.776989-1316.028928v11.401484"/><path d="M558.631021-1316.028928v11.401484"/><path d="M630.446107-1316.028928v11.401484"/><path d="M702.300139-1316.028928v11.401484"/><path d="M774.154171-1316.028928v11.401484"/><path d="M917.823289-1316.028928v22.763786"/><path d="M917.823289-1316.028928v11.401484"/><path d="M989.677321-1316.028928v11.401484"/><path d="M1061.531353-1316.028928v11.401484"/><path d="M1133.385385-1316.028928v11.401484"/><path d="M1205.200472-1316.028928v11.401484"/><path d="M1277.054503-1316.028928v11.401484"/><path d="M1348.908535-1316.028928v11.401484"/><path d="M1420.762567-1316.028928v11.401484"/><path d="M1492.577654-1316.028928v11.401484"/><path d="M1636.285717-1316.028928v22.763786"/><path d="M1636.285717-1316.028928v11.401484"/><path d="M1708.100804-1316.028928v11.401484"/><path d="M1779.954836-1316.028928v11.401484"/><path d="M1851.808868-1316.028928v11.401484"/><path d="M1923.6629-1316.028928v11.401484"/><path d="M1995.516932-1316.028928v11.401484"/><path d="M2067.332018-1316.028928v11.401484"/><path d="M2139.18605-1316.028928v11.401484"/><path d="M2211.040082-1316.028928v11.401484"/><path d="M2354.7092-1316.028928v22.763786"/><path d="M2354.7092-1316.028928v11.401484"/><path d="M2426.563232-1316.028928v11.401484"/><path d="M2498.417264-1316.028928v11.401484"/><path d="M2570.232351-1316.028928v11.401484"/><path d="M2642.086382-1316.028928v11.401484"/><path d="M2713.940414-1316.028928v11.401484"/><path d="M2785.794446-1316.028928v11.401484"/><path d="M2857.648478-1316.028928v11.401484"/><path d="M2929.463565-1316.028928v11.401484"/><path d="M3073.132683-1316.028928v22.763786"/><path d="M3073.132683-1316.028928v11.401484"/><path d="M3144.986715-1316.028928v11.401484"/><path d="M3216.840747-1316.028928v11.401484"/><path d="M3288.655833-1316.028928v11.401484"/><path d="M3360.509865-1316.028928v11.401484"/><path d="M3432.363897-1316.028928v11.401484"/><path d="M3504.217929-1316.028928v11.401484"/><path d="M3576.071961-1316.028928v11.401484"/><path d="M3647.925993-1316.028928v11.401484"/><path d="M3791.595111-1316.028928v22.763786"/><path d="M3791.595111-1316.028928v11.401484"/></g></g><use x="5.0469" y="2.656" href="#d"/><use x="76.0941" y="2.656" href="#e"/><use x="78.0004" y="2.656" href="#d"/><use x="148.0945" y="2.656" href="#f"/><use x="150.0008" y="2.656" href="#d"/><use x="220.0945" y="2.656" href="#g"/><use x="222.0008" y="2.656" href="#d"/><use x="292.0949" y="2.656" href="#h"/><use x="294.0012" y="2.656" href="#d"/><use x="363.428" y="2.656" href="#i"/><use x="365.3343" y="2.656" href="#d"/><use x="367.2406" y="2.656" href="#d"/><g class="b"><use href="#b" class="c"/><g class="d"><path d="M199.399807-117.227621h11.410965"/><path d="M199.399807-149.864856h11.410965"/><path d="M199.399807-182.502091h11.410965"/><path d="M199.399807-215.139327h11.410965"/><path d="M199.399807-247.776562h11.410965"/><path d="M199.399807-280.413797h11.410965"/><path d="M199.399807-313.051033h11.410965"/><path d="M199.399807-378.325503h22.782985"/><path d="M199.399807-378.325503h11.410965"/><path d="M199.399807-410.962738h11.410965"/><path d="M199.399807-443.599974h11.410965"/><path d="M199.399807-476.237209h11.410965"/><path d="M199.399807-508.874444h11.410965"/><path d="M199.399807-541.472499h11.410965"/><path d="M199.399807-574.148915h11.410965"/><path d="M199.399807-606.74697h11.410965"/><path d="M199.399807-639.384205h11.410965"/><path d="M199.399807-704.658676h22.782985"/><path d="M199.399807-704.658676h11.410965"/><path d="M199.399807-737.295911h11.410965"/><path d="M199.399807-769.933146h11.410965"/><path d="M199.399807-802.570382h11.410965"/><path d="M199.399807-835.207617h11.410965"/><path d="M199.399807-867.844852h11.410965"/><path d="M199.399807-900.482088h11.410965"/><path d="M199.399807-933.119323h11.410965"/><path d="M199.399807-965.756558h11.410965"/><path d="M199.399807-1030.991848h22.782985"/><path d="M199.399807-1030.991848h11.410965"/><path d="M199.399807-1063.668264h11.410965"/><path d="M199.399807-1096.266319h11.410965"/><path d="M199.399807-1128.903554h11.410965"/><path d="M199.399807-1161.54079h11.410965"/><path d="M199.399807-1194.178025h11.410965"/><path d="M199.399807-1226.81526h11.410965"/><path d="M199.399807-1259.452496h11.410965"/><path d="M199.399807-1292.089731h11.410965"/></g></g><use x=".0953" y="98.932" href="#j"/><use x="1.237" y="98.932" href="#e"/><use x="1.2367" y="66.2718" href="#d"/><use x="1.2367" y="33.896" href="#e"/><g class="b"><path d="M3788.596325-105.395154v-1210.633774" class="c"/><g class="d"><path d="M3788.596325-117.227621h-11.410965"/><path d="M3788.596325-149.864856h-11.410965"/><path d="M3788.596325-182.502091h-11.410965"/><path d="M3788.596325-215.139327h-11.410965"/><path d="M3788.596325-247.776562h-11.410965"/><path d="M3788.596325-280.413797h-11.410965"/><path d="M3788.596325-313.051033h-11.410965"/><path d="M3788.596325-378.325503h-22.782986"/><path d="M3788.596325-378.325503h-11.410965"/><path d="M3788.596325-410.962738h-11.410965"/><path d="M3788.596325-443.599974h-11.410965"/><path d="M3788.596325-476.237209h-11.410965"/><path d="M3788.596325-508.874444h-11.410965"/><path d="M3788.596325-541.472499h-11.410965"/><path d="M3788.596325-574.148915h-11.410965"/><path d="M3788.596325-606.74697h-11.410965"/><path d="M3788.596325-639.384205h-11.410965"/><path d="M3788.596325-704.658676h-22.782986"/><path d="M3788.596325-704.658676h-11.410965"/><path d="M3788.596325-737.295911h-11.410965"/><path d="M3788.596325-769.933146h-11.410965"/><path d="M3788.596325-802.570382h-11.410965"/><path d="M3788.596325-835.207617h-11.410965"/><path d="M3788.596325-867.844852h-11.410965"/><path d="M3788.596325-900.482088h-11.410965"/><path d="M3788.596325-933.119323h-11.410965"/><path d="M3788.596325-965.756558h-11.410965"/><path d="M3788.596325-1030.991848h-22.782986"/><path d="M3788.596325-1030.991848h-11.410965"/><path d="M3788.596325-1063.668264h-11.410965"/><path d="M3788.596325-1096.266319h-11.410965"/><path d="M3788.596325-1128.903554h-11.410965"/><path d="M3788.596325-1161.54079h-11.410965"/><path d="M3788.596325-1194.178025h-11.410965"/><path d="M3788.596325-1226.81526h-11.410965"/><path d="M3788.596325-1259.452496h-11.410965"/><path d="M3788.596325-1292.089731h-11.410965"/></g></g><use x="368.857" y="98.932" href="#j"/><use x="369.9987" y="98.932" href="#e"/><use x="368.857" y="66.2718" href="#d"/><use x="368.857" y="33.896" href="#e"/><g clip-path="url(#u)"><path d="M199.399807-1030.991848l2.998786-40.120683 2.998786-36.124287 2.998786-27.896413 2.998786-15.907224 2.959841-1.449673 2.998786 13.517223 2.998786 26.681821 2.998787 36.594451 2.998786 42.667406 2.998786 45.135768 2.959841 44.900687 2.998786 42.784947 2.998786 39.689699 2.998786 36.359369 2.998786 33.068219 2.998786 30.286414 2.998787 28.092314 2.998786 26.603461 2.959841 25.819854 2.998786 25.859034 2.998786 26.56428 2.998786 27.935593 2.998786 29.85543 2.998786 32.127891 2.998787 34.557072 2.998786 36.633632 2.959841 38.044124 2.998786 38.044124 2.998786 36.006746 2.998786 31.461825 2.998786 24.135098 2.998786 14.457551 2.998787 3.212789 2.95984-7.992792 2.998787-17.905422 2.998786-25.310509 2.998786-29.659529 2.998786-30.95248 2.998786-29.737889 2.998786-26.446739 2.959841-21.862638 2.998786-16.416569 2.998787-10.539515 2.998786-4.662462 2.998786 1.057869 2.998786 6.268857 2.998786 10.813778 2.998786 14.457551 2.959841 16.925913 2.998786 18.022963 2.998786 17.552799 2.998787 15.358699 2.998786 11.479844 2.998786 6.072955 2.998786-.548525 2.959841-7.796891 2.998786-15.162797 2.998786-22.176081 2.998786-28.523298 2.998787-34.126089 2.998786-39.023633 2.998786-43.490193 2.959841-47.878393 2.998786-52.501675 2.998786-57.516761 2.998786-63.119551 2.998786-68.996604 2.998787-74.442674 2.998786-77.890544 2.998786-77.106938 2.959841-69.231687 2.998786-52.109871 2.998786-25.976575 2.998786 5.171807 2.998786 34.948876 2.998787 57.673482 2.998786 70.642179 2.959841 74.716936 2.998786 72.483656 2.998786 66.528242 2.998786 58.966433 2.998786 50.895281 2.998786 43.059209 2.998786 35.575762 2.959841 28.562479 2.998787 22.1369 2.998786 16.103126 2.998786 10.696236 2.998786 5.798693 2.998786 1.528034 2.998786-2.037379 2.998786-4.858364 2.959841-6.856562 2.998786-8.031972 2.998787-8.462957 2.998786-7.992792 2.998786-6.817382 2.998786-4.780003 2.998786-2.115739 2.959841 1.332132 2.998786 5.406889 2.998786 10.108531 2.998787 15.358699 2.998786 21.079031 2.998786 27.112805 2.998786 33.18576 2.998786 39.023634 2.959841 43.999538 2.998786 47.251507 2.998786 47.760852 2.998787 44.352162 2.998786 36.202647 2.998786 23.312311 2.998786 6.934923 2.959841-10.539516 2.998786-26.329198 2.998786-38.200845 2.998786-45.331671 2.998786-47.839212 2.998787-46.820524 2.998786-43.294292 2.959841-38.475108 2.998786-32.950678 2.998786-27.426248 2.998786-22.1369 2.998786-17.239356 2.998786-13.007878 2.998787-9.364105 2.998786-6.425578 2.959841-4.231478 2.998786-2.781805 2.998786-2.076559 2.998786-2.115739 2.998786-2.899347 2.998786-4.42738 2.998787-6.66066 2.95984-9.677548 2.998787-13.32132 2.998786-17.63116 2.998786-22.567884 2.998786-28.053134 2.998786-34.047728 2.998786-40.238224 2.959841-46.38954 2.998786-51.874789 2.998787-55.636103 2.998786-56.419711 2.998786-52.736757 2.998786-43.215931 2.998786-27.66133 2.959841-7.75771 2.998786 13.478042 2.998786 32.284612 2.998786 45.919375 2.998787 53.520364 2.998786 55.518563 2.998786 53.481184 2.998786 48.936262 2.959841 42.980849 2.998786 36.633632 2.998786 30.286414 2.998786 24.37018 2.998787 18.884931 2.998786 14.065747 2.998786 9.91263 2.959841 6.464759 2.998786 3.761314 2.998786 1.723935 2.998786.509345h2.998786l2.998787.274262 2.998786 1.332132 2.998786 3.016888 2.959841 5.56361 2.998786 8.698039 2.998786 12.576894 2.998786 17.082634 2.998786 22.176081 2.998786 27.778871 2.998787 33.734285 2.959841 39.76806 2.998786 45.488392 2.998786 50.150853 2.998786 52.815118 2.998786 52.070692 2.998786 46.663802 2.998786 35.732483 2.998787 19.707718 2.95984.587706 2.998787-18.571488 2.998786-34.635434 2.998786-45.605932 2.998786-51.052002 2.998786-51.757249 2.998786-49.014623 2.959841-44.273801 2.998786-38.396747 2.998787-32.167071 2.998786-26.094116 2.998786-20.373785 2.998786-15.201977 2.998786-10.578696 2.959841-6.66066 2.998786-3.447871 2.998786-.940329 2.998787.783607 2.998786 1.802297 2.998786 2.037378 2.998786 1.528034 2.959841.274262 2.998786-1.723935 2.998786-4.466561 2.998786-7.836071 2.998787-11.910827 2.998786-16.651651 2.998786-21.940999 2.998786-27.857232 2.959841-34.165269 2.998786-40.825929 2.998786-47.48659 2.998786-53.559544 2.998786-58.182827 2.998787-59.906762 2.998786-57.046596 2.959841-47.995934 2.998786-32.284612 2.998786-11.244762 2.998786 11.754106 2.998786 32.637235 2.998786 48.035115 2.998787 56.850694 2.95984 59.554139 2.998787 57.791023 2.998786 53.324463 2.998786 47.486589 2.998786 41.178553 2.998786 35.066417 2.998786 29.346086 2.998787 24.252639 2.95984 19.746899 2.998787 15.985584 2.998786 12.929517 2.998786 10.578696 2.998786 8.933121 2.998786 8.031973 2.998786 7.875251 2.959841 8.423776 2.998786 9.638367 2.998787 11.558205 2.998786 14.065747 2.998786 17.121815 2.998786 20.569686 2.998786 24.25264 2.959841 28.013953 2.998786 31.344284 2.998786 33.930187 2.998786 35.105597 2.998787 34.24363 2.998786 30.87412 2.998786 24.644443 2.998786 15.750502 2.959841 5.054266 2.998786-6.151316 2.998786-16.338208 2.998786-24.409361 2.998787-29.541987 2.998786-31.736087 2.998786-31.305103 2.959841-28.915102 2.998786-25.075427 2.998786-20.412964 2.998786-15.358699 2.998786-10.265253 2.998787-5.406889 2.998786-.901148 2.998786 2.938526 2.959841 6.151316 2.998786 8.502137 2.998786 9.873449 2.998786 10.265253 2.998786 9.560007 2.998786 7.718529 2.998787 4.819184 2.959841 1.018689 2.998786-3.604592 2.998786-8.81558 2.998786-14.30083 2.998786-19.9428 2.998786-25.663132 2.998786-31.305103 2.998787-37.064616 2.95984-42.902488 2.998787-49.092984 2.998786-55.714464 2.998786-62.727748 2.998786-69.741031 2.998786-75.931527 2.959841-79.457759 2.998786-77.773004 2.998786-67.860374 2.998787-47.800032 2.998786-18.80657 2.998786 14.104927 2.998786 43.921178 2.998786 65.078569 2.959841 76.088248 2.998786 78.517431 2.998786 75.304641 2.998787 69.270867 2.998786 62.179222 2.998786 55.126759 2.998786 48.466099 2.959841 42.393143 2.998786 36.829533 2.998786 31.540186 2.998786 26.5251 2.998786 21.666736 2.998787 16.965093 2.998786 12.341812 2.998786 8.110333 2.959841 4.231479 2.998786.979508 2.998786-1.606394 2.998786-3.33033 5.997573-8.306235 2.998786-3.212789 2.998786-1.567215 2.959841.822788 2.998786 3.682953 2.998786 7.013284 2.998786 10.500335 2.998786 13.909026 2.959841 17.043454 2.998786 19.550997 2.998787 21.03985 2.998786 21.274932 2.998786 19.78608 2.998786 16.61247 2.998786 11.793287 2.998786 5.60279 2.959841-1.253771 2.998786-8.110334 2.998787-14.183288 2.998786-18.884931 2.998786-22.058539 2.998786-23.586574 2.998786-23.704114 2.998786-22.646245 2.959841-20.922309 2.998786-18.649849 2.998786-16.299028 2.998787-14.026567 2.998786-11.950008 2.998786-10.304433 2.998786-9.168203 2.998786-8.502137 2.959841-8.502137 2.998786-9.089842 2.998786-10.304433 2.998787-12.10673 2.998786-14.535911 2.998786-17.552799 2.959841-21.157391 3.037731-25.34969 2.959841-30.168873 2.998786-35.536581 2.998786-41.452815 2.998787-47.800033 2.998786-54.10807 2.959841-59.906762 2.998786-63.903158 2.998786-64.569224 2.998786-59.867582 2.998786-48.152655 2.998786-29.189364 2.998787-5.171807 2.998786 19.786079 2.998786 40.86511 2.959841 55.244299 2.998786 62.179223 2.998786 62.96283 2.998786 59.593319 2.998786 53.912168 2.998786 47.133966 2.998787 40.238224 2.95984 33.499203 2.998787 27.347888 2.998786 21.705916 2.998786 16.730012 2.998786 12.459352 2.998786 8.81558 2.998786 5.877053 2.998787 3.682954 2.95984 2.23328 2.998787 1.528034 2.998786 1.567214 2.998786 2.350821 2.998786 3.839675 2.998786 6.072955 2.959841 9.011481 2.998786 12.537714 2.998786 16.61247 2.998787 21.235752 2.998786 26.054936 2.998786 30.99166 2.998786 35.614943 2.998786 39.376256 2.959841 41.570356 2.998786 41.374454 2.998786 37.848223 2.998787 30.560676 2.998786 19.629358 2.998786 5.994594 2.998786-8.345415 2.959841-21.392474 2.998786-31.383464 2.998786-37.57396 2.998786-39.963961 2.998786-39.180355 2.998787-36.085106 2.998786-31.540186 2.998786-26.211657 2.959841-20.648047 2.998786-15.123617 2.998786-9.873449 2.998786-5.132626 2.998786-.940329 2.998787 2.546723 2.998786 5.328528 2.959841 7.326727 2.998786 8.462956 2.998786 8.698039 2.998786 8.071153 2.998786 6.503939 2.998786 3.996396 2.998787.783607 2.95984-3.29115 2.998787-7.875251 2.998786-13.007878 2.998786-18.571488 2.998786-24.331 2.998786-30.482316 2.998786-36.868713 2.998786-43.725276 2.959841-50.8561 2.998787-58.417909 2.998786-65.901356 2.998786-72.522836 2.998786-76.715134 2.998786-76.049068 2.998786-67.664473 2.959841-49.641509 2.998786-22.489523 2.998786 9.246563 2.998787 39.062814 2.998786 61.238894 2.998786 73.619886 2.998786 77.459561 2.998786 75.343822 2.959841 70.211195 2.998786 63.785617 2.998786 57.399219 2.998787 51.404626 2.998786 46.076096 2.998786 41.178553 2.998786 36.672812 2.959841 32.284612 2.998786 27.818052 2.998786 23.23395 2.998786 18.336406 2.998787 13.360501 2.998786 8.384596 2.959841 3.682953 2.998786-.509345 2.998786-3.918035 2.998786-6.386398 2.998786-7.75771 2.998786-8.031973 2.998786-7.209185 2.998787-5.48525 2.959841-2.938526 2.998786.235082 2.998786 3.800494 2.998786 7.600989 2.998786 11.323122 2.998786 14.653453 2.998786 17.396077 2.998787 19.041653 2.95984 19.394275 2.998787 18.140504 2.998786 15.123617 2.998786 10.539516 2.998786 4.584101 2.998786-1.998198 2.998786-8.658858 2.998787-14.614273 2.95984-19.394275 2.998787-22.724606 2.998786-24.566082 2.998786-25.114607 2.998786-24.683624 2.959841-23.547393 2.998786-22.09772 2.998786-20.491325 2.998786-19.002472 2.998787-17.866242 2.998786-17.121815 2.998786-16.847552 2.998786-17.200176 2.998786-18.101323 2.959841-19.707719 2.998786-21.940998 2.998786-24.879525 2.998786-28.484118 2.998787-32.715596 2.998786-37.53478 2.998786-42.824127 2.959841-48.152656 2.998786-53.0502 2.998786-56.537251 2.998786-57.320859 2.998786-53.951348 2.998787-44.979047 2.998786-30.129693 2.998786-10.657056 2.959841 10.539515 2.998786 29.620348 2.998786 43.842817 2.998786 51.95315 2.998786 54.343152 2.998787 52.462494 2.998786 47.721672 2.998786 41.413635 2.959841 34.439531 2.998786 27.347888 2.998786 20.412965 2.998786 13.987386 2.998786 7.992792 2.998787 2.664265 2.95984-2.11574 2.998787-6.112135 2.998786-9.481646 2.998786-12.028369 2.998786-13.830665 2.998786-14.770993 2.998786-14.849355 2.998786-14.065747 2.959841-12.263451 2.998787-9.599187 2.998786-6.033774 2.998786-1.606395 2.998786 3.487052 2.998786 9.168203 2.998786 15.319518 2.959841 21.705917 2.998786 28.405757 2.998786 35.37986 2.998787 42.589045 2.998786 50.150854 2.998786 58.065285 2.998786 65.901357 2.998786 73.071361 2.959841 77.929725 2.998786 78.282348 2.998786 70.955622 2.998787 53.716266 2.998786 26.760182 2.998786-5.837873 2.998786-37.182156 2.959841-61.199714 2.998786-75.108739 2.998786-79.927923 2.998786-78.556611 2.998787-73.815788 2.998786-67.860374 2.998786-61.90496 2.959841-56.458891 2.998786-51.600527 2.998786-47.173147 2.998786-42.824127 2.998786-38.200846 2.998786-32.989858 2.998787-26.877724 2.959841-19.98198 2.998786-12.420173 2.998786-4.701642 2.998786 2.703444 2.998786 9.050662 2.998786 13.987387 2.998786 17.200175 2.998787 18.493128 2.95984 18.140504 2.998787 16.220666 2.998786 13.007878 2.998786 8.7764 2.998786 3.800494 2.998786-1.684755 2.998786-7.444268 2.998787-13.164599 2.95984-18.610668 2.998787-23.351491 2.998786-26.838543 2.998786-28.7192 2.998786-28.327396 2.998786-25.310509 2.959841-19.433456 2.998786-11.127221 2.998786-1.13623 2.998787 9.207383 2.998786 18.728209 2.998786 26.44674 2.998786 31.696907 2.998786 34.635433 2.959841 35.497401 2.998786 34.831335 2.998786 33.303302 2.998786 31.265923 2.998787 29.228544 2.998786 27.387068 2.998786 26.054936 2.959841 25.310509 2.998786 25.192967 2.998786 25.819854 2.998786 27.191166 2.998786 29.267725 2.998787 32.04953 2.998786 35.34068 2.998786 38.984452 2.959841 42.589046 2.998786 45.645113 2.998786 47.408229 2.998786 46.820523 2.998786 42.980849 2.998787 35.105598 2.998786 23.19477 2.998786 8.345415 2.959841-7.483447 2.998786-21.901819 2.998786-32.872317 2.998786-39.572158 2.998786-41.883799 2.959841-40.708388 2.998786-36.868714 2.998787-31.344284 2.998786-24.918705 2.998786-18.101324 2.998786-11.166401 2.998786-4.505741 2.998786 1.763116 2.959841 7.522628 2.998786 12.537714 2.998786 16.730011 2.998787 19.86444 2.998786 21.784277 2.998786 22.176081 2.998786 20.961489 2.998786 17.944603 2.959841 13.164599 2.998786 6.778201 2.998786-.861968 2.998787-9.050662 2.998786-17.396077 2.998786-25.310509 2.998786-32.558875 2.998786-39.062813 2.959841-44.979047 2.998786-50.621018 2.998786-56.34135 2.998787-62.414304 2.998786-68.996605 2.998786-75.618084 2.998786-81.377596 2.959841-84.355304 2.998786-81.534317 2.998786-69.62349 2.998786-46.781343 2.998787-14.731814 2.998786 20.412965 2.998786 50.89528 2.959841 71.347426 2.998786 80.789891 2.998786 81.691039 2.998786 77.263659 2.998786 70.289556 2.998786 62.610207 2.998787 55.009217 2.998786 47.878394 2.959841 41.178552 2.998786 34.870516 2.998786 28.79756 2.998786 22.842147 2.998786 17.004274 2.998786 11.440663 2.998787 6.112136 2.95984 1.371312 2.998787-2.703444 2.998786-5.837873 2.998786-8.071153 2.998786-9.246564 2.998786-9.324924 2.998786-8.462957 2.998787-6.62148 2.95984-3.957216 2.998787-.548525 2.998786 3.487052 2.998786 7.992792 2.998786 12.851157 2.998786 17.827061 2.998786 22.646245 2.959841 26.916903 2.998786 30.286414 2.998787 32.01035 2.998786 31.657726 2.998786 28.601659 2.998786 22.646245 2.998786 14.026567 2.959841 3.604593 2.998786-7.326727 2.998786-17.396077 2.998786-25.349689 2.998787-30.639038 2.998786-33.18576 2.998786-33.224941 2.959841-31.540185 2.998786-28.562478 2.998786-24.957886 2.998786-21.079031 2.998786-17.239356 2.998787-13.752304 2.998786-10.696237 2.998786-8.149514 2.959841-6.268857 2.998786-5.015085 2.998786-4.544921 2.998786-4.740823 2.998786-5.602791 2.998787-7.248365 2.998786-9.520826 2.959841-12.498533 2.998786-16.063946 2.998786-20.295423 2.998786-25.114608 2.998786-30.521496 2.998786-36.47691 2.998786-42.863308 2.959841-49.484787 2.998787-55.792825 2.998786-61.003812 2.998786-63.668076 2.998786-62.061682 2.998786-54.22561 2.998786-39.101994 2.959841-17.63116 2.998786 7.052464 2.998786 30.286414 2.998787 48.152656 2.998786 58.809712 2.998786 62.649387 2.998786 61.356435 2.998786 56.889875 2.959841 50.777739 2.998786 44.077899 2.998786 37.495599 2.998787 31.344284 2.998786 25.702312 2.998786 20.687227 2.998786 16.416569 2.998786 12.772796 2.959841 9.834269 2.998786 7.600988 2.998786 6.112136 2.998787 5.289348 2.998786 5.250167 2.998786 5.916234 2.998786 7.248365 2.959841 9.285744 2.998786 11.989189 2.998786 15.123616 2.998786 18.845751 2.998786 22.724606 2.998787 26.760182 2.998786 30.482316 2.959841 33.538383 2.998786 35.301499 2.998786 35.144778 2.998786 32.519695 2.998786 26.916903 2.998786 18.453947 2.998787 7.914432 2.95984-3.643773 2.998787-14.496731 2.998786-23.390672 2.998786-29.463627 2.998786-32.402153 2.998786-32.637235 2.998786-30.599857 2.998787-27.112805 2.95984-22.567884 2.998787-17.63116 2.998786-12.537713 2.998786-7.64017 2.998786-3.095248 2.998786.901149 2.998786 4.192298 2.998787 6.778201 2.95984 8.423776 2.998787 9.207383 2.998786 8.893941 2.998786 7.600989 2.998786 5.289347 2.959841 2.037379 3.037731-2.037379 2.959841-6.778201 2.998786-11.950008 2.998786-17.356897 2.998787-23.038048 2.998786-28.68002 2.998786-34.517892 2.998786-40.512487 2.959841-46.820523 2.998786-53.559545 2.998786-60.690369 2.998786-67.899555 2.998787-74.403493 2.998786-78.595791 2.998786-78.047266 2.959841-69.741031 2.998786-51.522166 2.998786-23.978377 2.998786 8.619678 2.998786 39.219535 2.998787 61.98332 2.998786 74.677756 2.998786 78.399889 2.959841 76.088249 2.998786 70.485458 2.998786 63.668076 2.998786 56.693973 2.998786 50.229214 2.998787 44.23462 2.998786 38.788551 2.959841 33.695105 2.998786 28.836741 2.998786 24.017557 2.998786 19.315915 2.998786 14.614273 2.998786 10.147711 2.998786 5.877053 2.998787 2.1941 2.95984-.901148 2.998787-3.173609 2.998786-4.584101 2.998786-5.054266 2.998786-4.544921 2.998786-3.29115 2.998786-1.17541 2.959841 1.488853 2.998786 4.623282 2.998787 8.071153 2.998786 11.558205 2.998786 14.810174 2.998786 17.552798 2.998786 19.511817 2.959841 20.256243 2.998786 19.550997 2.998786 17.160995 2.998787 13.086239 2.998786 7.600989 2.998786 1.214591 2.998786-5.48525 2.998786-11.714926 2.959841-16.886733 2.998786-20.608866 2.998786-22.842147 2.998787-23.625754 2.998786-23.19477 2.998786-21.901818 2.998786-20.099522 2.959841-18.022963 2.998786-15.946404 2.998786-14.104928 2.998786-12.537713 2.998786-11.479844 2.998787-10.892138 2.998786-10.852959 2.998786-11.479844 2.998786-12.655254 2.959841-14.496731 2.998786-16.886733 2.998786-19.981981 2.998786-23.625754 2.959841-27.935592 2.998786-32.833137 2.998787-38.318387 2.998786-44.23462 3.037731-50.425117 2.959841-56.184628 2.998786-60.80791 2.998786-62.688567 2.998787-60.220205 2.95984-51.522166 2.998787-35.850025 2.998786-14.41837 2.998786 9.638367 2.959841 31.657726 3.037731 48.231017 2.998786 57.712662 2.998786 60.729549 2.998787 58.927254 2.959841 54.068889 2.998786 47.643311 2.998786 40.708388 2.998786 33.773466 2.959841 27.191166 2.998786 21.157391 2.998786 15.672142 2.998786 10.892139 2.998786 6.739021 2.998787 3.33033 2.998786.587705 2.998786-1.332132 2.998786-2.585903 2.959841-3.056068 2.998786-2.742625 2.998786-1.723935 2.998786.07836 2.998787 2.546723 2.998786 5.798693 2.959841 9.677547 3.037731 14.183289 2.998786 19.355095 2.959841 24.957886 2.998786 31.03084 2.998786 37.299698 2.998787 43.451013 2.998786 48.779541 2.959841 52.540856 2.998786 53.363643 2.998786 49.954952 2.998786 41.178552 2.998786 26.760182 2.998786 8.227875 2.998786-11.675746 2.998787-29.541987 2.998786-42.824128 2.959841-50.464296 2.998786-52.932659 2.998786-51.365445 2.998786-47.251507 2.959841-41.766258 2.998786-35.771664 2.998786-29.698709 3.037732-24.017557 2.998786-18.80657 2.959841-14.183289 2.998786-10.265252 2.998786-7.052464 2.998786-4.505741 2.959841-2.781805 2.998786-1.763116 2.998786-1.528034 2.998787-1.998198 2.998786-3.251969 2.998786-5.250168 2.998786-7.953612 2.998786-11.323122 2.998786-15.39788 2.959841-20.099522 2.998786-25.349689 2.998787-31.030841 2.998786-36.986254 2.998786-42.863308 2.959841-48.074295 2.998786-51.796429 2.998786-52.815118 2.998786-49.876591 2.998786-41.687897 2.998786-28.053134 2.998787-10.226072 2.998786 9.285744 2.998786 27.073624 2.959841 40.708389 2.998786 48.740361 2.998786 51.600527 2.998786 50.425116 2.959841 46.4679 3.037732 40.943471 2.998786 34.831335 2.998786 28.562478 2.998786 22.567885 2.959841 17.004274 2.998786 11.989188 2.998786 7.600989 2.998786 3.957216 2.959841.940328 2.998786-1.292952 2.998787-2.820985 2.998786-3.526232 3.037731-3.526232 2.959841-2.742625 2.998786-1.214591 2.998786 1.05787 2.998787 4.035576 2.95984 7.640169 2.998787 11.989189 2.998786 16.886733 2.998786 22.371982 2.959841 28.484118 3.037731 34.948876 2.998786 41.883799 2.998786 48.857902 2.998787 55.361841 2.95984 60.494467 2.998787 62.884469 2.998786 60.572828 2.998786 51.87479 2.959841 35.928385 2.998786 13.987386 2.998786-10.578695 2.998786-33.14658 2.998786-49.954952 2.998787-59.67168 2.998786-62.845289 2.998786-61.238894 2.998786-56.772333 2.959841-50.895281 2.998786-44.626424 2.998786-38.592649 2.998786-33.029039 2.998787-28.053134 2.95984-23.821655 2.998787-20.217063 3.037731-17.278536 2.998786-15.006076 2.959841-13.399681 2.998786-12.459353 2.998786-12.067549 2.998787-12.341812 2.998786-13.125419 2.959841-14.34001 2.998786-16.063945 2.998786-17.905422 2.998786-19.9428 2.998786-21.784277 2.998786-23.273131 2.998786-23.978377 2.998787-23.704114 2.998786-22.136901 2.959841-19.002472 2.998786-14.457551 2.998786-8.698038 2.998786-2.1941 2.959841 4.309839 2.998786 10.186892 2.998786 14.810174 3.037732 17.905422 2.959841 19.276735 2.998786 19.198373 2.998786 17.748701 2.998786 15.358699 2.998786 12.380992 2.959841 9.089842 2.998786 5.720332 2.998786 2.546723 2.998787-.156722 2.998786-2.350821 2.998786-3.800494 2.998786-4.42738 2.998786-4.231479 2.998786-3.056067 2.959841-1.09705 2.998786 1.645575 2.998787 5.093446 2.998786 8.972301 2.998786 13.164599 2.959841 17.513619 2.998786 21.940998 2.998786 26.290018 2.998786 30.756578 2.998786 35.37986 2.998786 40.159864 2.998787 45.410031 2.998786 51.169543 2.998786 57.360039 2.959841 63.863977 2.998786 69.897753 2.998786 74.129231 2.998786 74.599395 2.959841 68.6048 3.037732 53.951349 2.998786 30.403955 2.998786 1.057869 2.998786-28.405757 2.959841-51.99233 2.998786-66.724144 2.998786-72.522836 2.998786-71.700049 2.959841-66.802504 2.998786-59.945943 2.998787-52.462494 3.037731-45.096588 2.998786-38.161666 2.959841-31.775267 2.998786-25.898215 2.998786-20.648046 2.998786-15.828864 2.959841-11.636565 2.998787-7.953612 2.998786-4.975905 2.998786-2.625084 2.998786-.979509 2.998786-.07836 2.998786.03918 2.998786-.548525 2.998787-1.919837 2.95984-3.918036 2.998787-6.582299 2.998786-9.755909 2.998786-13.399681 2.998786-17.278536 2.959841-21.235752 2.998786-24.997066 2.998786-28.170675 2.998786-30.286414 2.998787-30.795759 2.998786-29.189364 2.998786-25.192968 2.998786-18.610668 2.959841-9.990991 2.998786-.195902 2.998786 9.520827 2.998786 18.062143 2.998787 24.409361 2.95984 28.209855 2.998787 29.581168 3.037731 28.79756 2.998786 26.368379 2.959841 22.998868 2.998786 18.924111 2.998786 14.731814 2.998786 10.539515 2.998787 6.66066 2.959841 3.25197 2.998786.430983 2.998786-1.723935 2.998786-3.095248 2.998786-3.682953 2.998786-3.447872 2.998786-2.350821 2.998787-.470164 2.998786 2.1941 2.959841 5.52443 2.998786 9.403285 2.998786 13.791485 2.998786 18.532307 2.959841 23.625754 2.998786 29.032643 2.998786 34.831335 3.037732 40.94347 2.959841 47.564951 2.998786 54.617414 2.998786 61.826599 2.998786 68.565621 2.998786 73.737427 2.959841 75.108739 2.998786 70.250376 2.998786 56.654793 2.998787 33.773465 2.998786 4.309839 2.998786-25.976575 2.998786-50.973641 2.998786-66.998406 2.959841-74.05087 2.998786-74.05087 2.998786-69.858572 2.998787-63.589716 2.998786-56.772333 2.998786-50.190035 2.959841-44.077898 2.998786-38.514289 3.037731-33.577564 2.959841-29.032642 2.998786-24.801165 2.998786-20.843948 2.998787-17.160996 2.998786-13.673943 2.998786-10.461155 2.959841-7.640169 2.998786-5.250168 2.998786-3.36951 2.998786-2.076559 2.959841-1.371312 3.037732-1.292952 2.998786-1.880657 2.998786-2.899346 2.998786-4.42738 2.959841-6.229677 2.998786-8.227874" style="fill:none;stroke-width:5.69714;stroke-linecap:round;stroke-linejoin:round;stroke:#00f;stroke-miterlimit:10;transform:matrix(.100301,0,0,.0996992,-14,135)"/></g><style>.a{fill:none;stroke:#bfbfbf;stroke-dasharray:5.69714,8.54571;stroke-linecap:round;stroke-miterlimit:10;stroke-width:2.84857;transform:matrix(.100301,0,0,.0996992,-14,135)}.b{fill:none;stroke:#000;stroke-miterlimit:10;transform:matrix(.100301,0,0,.0996992,-14,135)}.c{stroke-linecap:square;stroke-width:5.69714}.d{stroke-width:2.84857}.e{fill:none;stroke:#bfbfbf;stroke-linecap:round;stroke-miterlimit:10;stroke-width:2.84857;transform:matrix(.100301,0,0,.0996992,-14,135)}</style></svg>