<svg xmlns="http://www.w3.org/2000/svg" width="382pt" height="275pt" viewBox="0 0 382 275"><defs><path d="M2.0625-5.3125c-.5 0-.9375.21875-1.21875.578125C.5-4.265625.328125-3.5625.328125-2.578125c0 1.796875.59375 2.75 1.734375 2.75 1.125 0 1.734375-.953125 1.734375-2.703125 0-1.03125-.15625-1.71875-.515625-2.203125C3-5.109375 2.5625-5.3125 2.0625-5.3125zm0 .5781c.71875 0 1.0625.71875 1.0625 2.140625C3.125-1.078125 2.78125-.375 2.046875-.375 1.34375-.375 1-1.109375 1-2.5625c0-1.453125.34375-2.171875 1.0625-2.171875zm0 0" id="b"/><path d="M1.9375-3.7812V0h.6719v-5.3125h-.4375c-.2344.8125-.39065.921875-1.406275 1.046875v.4844zm0 0" id="e"/><path d="M3.7969-.6562H1c.0625-.4375.3125-.703125.953125-1.09375l.75-.4062c.75-.40625 1.125-.953125 1.125-1.59375 0-.453125-.171875-.859375-.484375-1.140625C3.015625-5.1875 2.625-5.3125 2.125-5.3125c-.671875 0-1.171875.234375-1.46875.6875-.1875.28125-.265625.609375-.28125 1.15625h.6563c.03125-.359375.078125-.578125.15625-.75.171875-.328125.515625-.515625.921875-.515625.59375 0 1.046875.421875 1.046875.984375 0 .421875-.25.78125-.71875 1.0625l-.6875.3906C.640625-1.671875.3125-1.171875.25 0h3.5469zm0 0" id="f"/><path d="M1.6563-2.4375h.3594c.734375 0 1.109375.328125 1.109375.953125C3.125-.8125 2.703125-.40625 2.015625-.40625 1.296875-.40625.9375-.765625.90625-1.546875H.2344C.265625-1.125.34375-.84375.46875-.59375.75-.09375 1.265625.171875 2 .171875c1.09375 0 1.796875-.65625 1.796875-1.65625 0-.671875-.265625-1.046875-.90625-1.265625.5-.203125.75-.578125.75-1.109375 0-.90625-.609375-1.453125-1.625-1.453125C.9375-5.3125.375-4.734375.359375-3.59375h.6563c0-.328125.03125-.515625.109375-.671875.15625-.296875.484375-.46875.90625-.46875.578125 0 .9375.34375.9375.90625 0 .375-.140625.59375-.4375.71875C2.359375-3.03125 2.125-3 1.65625-3zm0 0" id="g"/><path d="M2.4531-1.2812V0h.6563v-1.2812h.7969v-.5938h-.7969v-3.4375H2.625L.2031-1.9687v.6875zm0-.5937H.7813l1.6719-2.3125zm0 0" id="h"/><path d="M3.5625-5.3125H.8281L.4219-2.4219h.6094c.3125-.375.5625-.5.984375-.5.703125 0 1.15625.484375 1.15625 1.28125 0 .765625-.4375 1.234375-1.15625 1.234375-.578125 0-.9375-.296875-1.09375-.90625h-.6562c.09375.4375.15625.65625.3125.84375.3125.40625.84375.640625 1.453125.640625 1.0625 0 1.8125-.78125 1.8125-1.90625C3.84375-2.78125 3.15625-3.5 2.125-3.5c-.375 0-.671875.09375-.984375.3125l.2188-1.4844H3.5625zm0 0" id="d"/><path d="M3.7344-3.9375c-.125-.859375-.703125-1.375-1.5-1.375-.59375 0-1.109375.28125-1.4375.75-.328125.515625-.46875 1.171875-.46875 2.140625 0 .890625.125 1.46875.4375 1.9375.296875.421875.75.65625 1.34375.65625 1.015625 0 1.734375-.75 1.734375-1.796875 0-.984375-.671875-1.6875-1.625-1.6875-.53125 0-.9375.203125-1.21875.59375 0-1.296875.421875-2.015625 1.1875-2.015625.453125 0 .78125.296875.890625.796875zM2.1407-2.7187c.640625 0 1.03125.4375 1.03125 1.15625 0 .65625-.453125 1.15625-1.0625 1.15625-.60945-5e-5-1.0782-.515675-1.0782-1.203175 0-.65625.453125-1.109375 1.109375-1.109375zm0 0" id="i"/><path d="M1.4375-.7812H.6563V0h.7813zm0 0" id="c"/><path d="M3.9063-5.3125H.3438v.6406h2.875C1.953125-2.859375 1.4375-1.75 1.03125 0h.7031c.296875-1.703125.96875-3.171875 2.171875-4.765625zm0 0" id="j"/><clipPath id="k"><path d="M21 9.5h1v255h-1zm0 0"/></clipPath><clipPath id="l"><path d="M21 252h340v2H21zm0 0"/></clipPath><clipPath id="m"><path d="M21 9.5h1v255h-1zm0 0"/></clipPath><clipPath id="n"><path d="M77 9.5h1v255h-1zm0 0"/></clipPath><clipPath id="o"><path d="M134 9.5h1v255h-1zm0 0"/></clipPath><clipPath id="p"><path d="M190 9.5h2v255h-2zm0 0"/></clipPath><clipPath id="q"><path d="M247 9.5h1v255h-1zm0 0"/></clipPath><clipPath id="r"><path d="M304 9.5h1v255h-1zm0 0"/></clipPath><clipPath id="s"><path d="M360 9.5h1v255h-1zm0 0"/></clipPath><clipPath id="t"><path d="M21 252h340v2H21zm0 0"/></clipPath><clipPath id="u"><path d="M21 207h340v2H21zm0 0"/></clipPath><clipPath id="v"><path d="M21 163h340v1H21zm0 0"/></clipPath><clipPath id="w"><path d="M21 118h340v1H21zm0 0"/></clipPath><clipPath id="x"><path d="M21 73h340v2H21zm0 0"/></clipPath><clipPath id="y"><path d="M21 28h340v2H21zm0 0"/></clipPath><clipPath id="z"><path d="M21 9.5h340v255H21zm0 0"/></clipPath><path id="a" d="M210 105v2550"/></defs><g clip-path="url(#k)"><use href="#a" class="e"/></g><g clip-path="url(#l)"><path d="M210 220.898438h3400" class="e"/></g><g clip-path="url(#m)"><use href="#a" class="a"/></g><g clip-path="url(#n)"><path d="M776.679688 105v2550" class="a"/></g><g clip-path="url(#o)"><path d="M1343.320312 105v2550" class="a"/></g><g clip-path="url(#p)"><path d="M1910 105v2550" class="a"/></g><g clip-path="url(#q)"><path d="M2476.679688 105v2550" class="a"/></g><g clip-path="url(#r)"><path d="M3043.320312 105v2550" class="a"/></g><g clip-path="url(#s)"><path d="M3610 105v2550" class="a"/></g><g clip-path="url(#t)"><path d="M210 220.898438h3400" class="a"/></g><g clip-path="url(#u)"><path d="M210 668.398438h3400" class="a"/></g><g clip-path="url(#v)"><path d="M210 1115.898438h3400" class="a"/></g><g clip-path="url(#w)"><path d="M210 1563.398438h3400" class="a"/></g><g clip-path="url(#x)"><path d="M210 2010.898438h3400" class="a"/></g><g clip-path="url(#y)"><path d="M210 2458.398438h3400" class="a"/></g><g class="b"><path d="M210 105h3400" class="c"/><g class="d"><path d="M210 105v50"/><path d="M266.679688 105v25"/><path d="M323.320312 105v25"/><path d="M380 105v25"/><path d="M436.679688 105v25"/><path d="M493.320312 105v25"/><path d="M550 105v25"/><path d="M606.679688 105v25"/><path d="M663.320312 105v25"/><path d="M720 105v25"/><path d="M776.679688 105v50"/><path d="M833.320312 105v25"/><path d="M890 105v25"/><path d="M946.679688 105v25"/><path d="M1003.320312 105v25"/><path d="M1060 105v25"/><path d="M1116.679688 105v25"/><path d="M1173.320312 105v25"/><path d="M1230 105v25"/><path d="M1286.679688 105v25"/><path d="M1343.320312 105v50"/><path d="M1400 105v25"/><path d="M1456.679688 105v25"/><path d="M1513.320312 105v25"/><path d="M1570 105v25"/><path d="M1626.679688 105v25"/><path d="M1683.320312 105v25"/><path d="M1740 105v25"/><path d="M1796.679688 105v25"/><path d="M1853.320312 105v25"/><path d="M1910 105v50"/><path d="M1966.679688 105v25"/><path d="M2023.320312 105v25"/><path d="M2080 105v25"/><path d="M2136.679688 105v25"/><path d="M2193.320312 105v25"/><path d="M2250 105v25"/><path d="M2306.679688 105v25"/><path d="M2363.320312 105v25"/><path d="M2420 105v25"/><path d="M2476.679688 105v50"/><path d="M2533.320312 105v25"/><path d="M2590 105v25"/><path d="M2646.679688 105v25"/><path d="M2703.320312 105v25"/><path d="M2760 105v25"/><path d="M2816.679688 105v25"/><path d="M2873.320312 105v25"/><path d="M2930 105v25"/><path d="M2986.679688 105v25"/><path d="M3043.320312 105v50"/><path d="M3100 105v25"/><path d="M3156.679688 105v25"/><path d="M3213.320312 105v25"/><path d="M3270 105v25"/><path d="M3326.679688 105v25"/><path d="M3383.320312 105v25"/><path d="M3440 105v25"/><path d="M3496.679688 105v25"/><path d="M3553.320312 105v25"/><path d="M3610 105v50"/></g></g><use x="18.2902" y="274.5" href="#b"/><use x="75.1652" y="274.5" href="#e"/><use x="132.0402" y="274.5" href="#f"/><use x="188.9151" y="274.5" href="#g"/><use x="245.1651" y="274.5" href="#h"/><use x="302.0401" y="274.5" href="#d"/><use x="358.9151" y="274.5" href="#i"/><g class="b"><path d="M210 2655h3400" class="c"/><g class="d"><path d="M210 2655v-50"/><path d="M266.679688 2655v-25"/><path d="M323.320312 2655v-25"/><path d="M380 2655v-25"/><path d="M436.679688 2655v-25"/><path d="M493.320312 2655v-25"/><path d="M550 2655v-25"/><path d="M606.679688 2655v-25"/><path d="M663.320312 2655v-25"/><path d="M720 2655v-25"/><path d="M776.679688 2655v-50"/><path d="M833.320312 2655v-25"/><path d="M890 2655v-25"/><path d="M946.679688 2655v-25"/><path d="M1003.320312 2655v-25"/><path d="M1060 2655v-25"/><path d="M1116.679688 2655v-25"/><path d="M1173.320312 2655v-25"/><path d="M1230 2655v-25"/><path d="M1286.679688 2655v-25"/><path d="M1343.320312 2655v-50"/><path d="M1400 2655v-25"/><path d="M1456.679688 2655v-25"/><path d="M1513.320312 2655v-25"/><path d="M1570 2655v-25"/><path d="M1626.679688 2655v-25"/><path d="M1683.320312 2655v-25"/><path d="M1740 2655v-25"/><path d="M1796.679688 2655v-25"/><path d="M1853.320312 2655v-25"/><path d="M1910 2655v-50"/><path d="M1966.679688 2655v-25"/><path d="M2023.320312 2655v-25"/><path d="M2080 2655v-25"/><path d="M2136.679688 2655v-25"/><path d="M2193.320312 2655v-25"/><path d="M2250 2655v-25"/><path d="M2306.679688 2655v-25"/><path d="M2363.320312 2655v-25"/><path d="M2420 2655v-25"/><path d="M2476.679688 2655v-50"/><path d="M2533.320312 2655v-25"/><path d="M2590 2655v-25"/><path d="M2646.679688 2655v-25"/><path d="M2703.320312 2655v-25"/><path d="M2760 2655v-25"/><path d="M2816.679688 2655v-25"/><path d="M2873.320312 2655v-25"/><path d="M2930 2655v-25"/><path d="M2986.679688 2655v-25"/><path d="M3043.320312 2655v-50"/><path d="M3100 2655v-25"/><path d="M3156.679688 2655v-25"/><path d="M3213.320312 2655v-25"/><path d="M3270 2655v-25"/><path d="M3326.679688 2655v-25"/><path d="M3383.320312 2655v-25"/><path d="M3440 2655v-25"/><path d="M3496.679688 2655v-25"/><path d="M3553.320312 2655v-25"/><path d="M3610 2655v-50"/></g></g><use x="18.2902" y="6.375" href="#b"/><use x="75.1652" y="6.375" href="#e"/><use x="132.0402" y="6.375" href="#f"/><use x="188.9151" y="6.375" href="#g"/><use x="245.1651" y="6.375" href="#h"/><use x="302.0401" y="6.375" href="#d"/><use x="358.9151" y="6.375" href="#i"/><g class="b"><use href="#a" class="c"/><g class="d"><path d="M210 131.40625h25"/><path d="M210 176.171875h25"/><path d="M210 220.898438h50"/><path d="M210 265.664062h25"/><path d="M210 310.390625h25"/><path d="M210 355.15625h25"/><path d="M210 399.921875h25"/><path d="M210 444.648438h25"/><path d="M210 489.414062h25"/><path d="M210 534.140625h25"/><path d="M210 578.90625h25"/><path d="M210 623.671875h25"/><path d="M210 668.398438h50"/><path d="M210 713.164062h25"/><path d="M210 757.890625h25"/><path d="M210 802.65625h25"/><path d="M210 847.382812h25"/><path d="M210 892.148438h25"/><path d="M210 936.914062h25"/><path d="M210 981.640625h25"/><path d="M210 1026.40625h25"/><path d="M210 1071.132812h25"/><path d="M210 1115.898438h50"/><path d="M210 1160.664062h25"/><path d="M210 1205.390625h25"/><path d="M210 1250.15625h25"/><path d="M210 1294.882812h25"/><path d="M210 1339.648438h25"/><path d="M210 1384.375h25"/><path d="M210 1429.140625h25"/><path d="M210 1473.90625h25"/><path d="M210 1518.632812h25"/><path d="M210 1563.398438h50"/><path d="M210 1608.125h25"/><path d="M210 1652.890625h25"/><path d="M210 1697.65625h25"/><path d="M210 1742.382812h25"/><path d="M210 1787.148438h25"/><path d="M210 1831.875h25"/><path d="M210 1876.640625h25"/><path d="M210 1921.40625h25"/><path d="M210 1966.132812h25"/><path d="M210 2010.898438h50"/><path d="M210 2055.625h25"/><path d="M210 2100.390625h25"/><path d="M210 2145.15625h25"/><path d="M210 2189.882812h25"/><path d="M210 2234.648438h25"/><path d="M210 2279.375h25"/><path d="M210 2324.140625h25"/><path d="M210 2368.90625h25"/><path d="M210 2413.632812h25"/><path d="M210 2458.398438h50"/><path d="M210 2503.125h25"/><path d="M210 2547.890625h25"/><path d="M210 2592.65625h25"/><path d="M210 2637.382812h25"/></g></g><use x="3.7008" y="256.375" href="#b"/><use x="7.8708" y="256.375" href="#c"/><use x="9.9558" y="256.375" href="#b"/><use x="3.7008" y="211.375" href="#f"/><use x="7.8708" y="211.375" href="#c"/><use x="9.9558" y="211.375" href="#d"/><use x="3.7008" y="167" href="#d"/><use x="7.8708" y="167" href="#c"/><use x="9.9558" y="167" href="#b"/><use x="3.7008" y="122" href="#j"/><use x="7.8708" y="122" href="#c"/><use x="9.9558" y="122" href="#d"/><use x="-.4691" y="77.625" href="#e"/><use x="3.7009" y="77.625" href="#b"/><use x="7.8709" y="77.625" href="#c"/><use x="9.9559" y="77.625" href="#b"/><use x="-.4691" y="32.625" href="#e"/><use x="3.7009" y="32.625" href="#f"/><use x="7.8709" y="32.625" href="#c"/><use x="9.9559" y="32.625" href="#d"/><g class="b"><path d="M3610 105v2550" class="c"/><g class="d"><path d="M3610 131.40625h-25"/><path d="M3610 176.171875h-25"/><path d="M3610 220.898438h-50"/><path d="M3610 265.664062h-25"/><path d="M3610 310.390625h-25"/><path d="M3610 355.15625h-25"/><path d="M3610 399.921875h-25"/><path d="M3610 444.648438h-25"/><path d="M3610 489.414062h-25"/><path d="M3610 534.140625h-25"/><path d="M3610 578.90625h-25"/><path d="M3610 623.671875h-25"/><path d="M3610 668.398438h-50"/><path d="M3610 713.164062h-25"/><path d="M3610 757.890625h-25"/><path d="M3610 802.65625h-25"/><path d="M3610 847.382812h-25"/><path d="M3610 892.148438h-25"/><path d="M3610 936.914062h-25"/><path d="M3610 981.640625h-25"/><path d="M3610 1026.40625h-25"/><path d="M3610 1071.132812h-25"/><path d="M3610 1115.898438h-50"/><path d="M3610 1160.664062h-25"/><path d="M3610 1205.390625h-25"/><path d="M3610 1250.15625h-25"/><path d="M3610 1294.882812h-25"/><path d="M3610 1339.648438h-25"/><path d="M3610 1384.375h-25"/><path d="M3610 1429.140625h-25"/><path d="M3610 1473.90625h-25"/><path d="M3610 1518.632812h-25"/><path d="M3610 1563.398438h-50"/><path d="M3610 1608.125h-25"/><path d="M3610 1652.890625h-25"/><path d="M3610 1697.65625h-25"/><path d="M3610 1742.382812h-25"/><path d="M3610 1787.148438h-25"/><path d="M3610 1831.875h-25"/><path d="M3610 1876.640625h-25"/><path d="M3610 1921.40625h-25"/><path d="M3610 1966.132812h-25"/><path d="M3610 2010.898438h-50"/><path d="M3610 2055.625h-25"/><path d="M3610 2100.390625h-25"/><path d="M3610 2145.15625h-25"/><path d="M3610 2189.882812h-25"/><path d="M3610 2234.648438h-25"/><path d="M3610 2279.375h-25"/><path d="M3610 2324.140625h-25"/><path d="M3610 2368.90625h-25"/><path d="M3610 2413.632812h-25"/><path d="M3610 2458.398438h-50"/><path d="M3610 2503.125h-25"/><path d="M3610 2547.890625h-25"/><path d="M3610 2592.65625h-25"/><path d="M3610 2637.382812h-25"/></g></g><use x="367.25" y="256.375" href="#b"/><use x="371.42" y="256.375" href="#c"/><use x="373.505" y="256.375" href="#b"/><use x="367.25" y="211.375" href="#f"/><use x="371.42" y="211.375" href="#c"/><use x="373.505" y="211.375" href="#d"/><use x="367.25" y="167" href="#d"/><use x="371.42" y="167" href="#c"/><use x="373.505" y="167" href="#b"/><use x="367.25" y="122" href="#j"/><use x="371.42" y="122" href="#c"/><use x="373.505" y="122" href="#d"/><use x="367.25" y="77.625" href="#e"/><use x="371.42" y="77.625" href="#b"/><use x="375.59" y="77.625" href="#c"/><use x="377.675" y="77.625" href="#b"/><use x="367.25" y="32.625" href="#e"/><use x="371.42" y="32.625" href="#f"/><use x="375.59" y="32.625" href="#c"/><use x="377.675" y="32.625" href="#d"/><g clip-path="url(#z)"><path d="M210 220.898438h18.75l6.25.039062h6.25l6.25.039062h6.25l6.25.039063 6.25.078125 6.25.039062 6.25.078126 18.75.351562 12.5.3125 6.25.195312 12.5.46875 6.25.273438 12.5.625 6.25.351562 6.25.390626 6.25.429687 6.25.46875 12.5 1.015625 6.25.585938 12.5 1.25 6.25.703124 6.25.742188 6.25.78125 6.25.820312 6.25.859376 6.25.9375 6.25.976562 6.25 1.015625 12.5 2.1875 6.25 1.171875 6.25 1.25 6.25 1.289062 6.25 1.328126 6.25 1.40625 6.25 1.445312 6.25 1.523438 6.25 1.601562 6.25 1.640625 6.25 1.679687 6.25 1.757813 6.25 1.835937 6.25 1.875 6.25 1.953126 6.25 2.03125 6.25 2.070312 6.25 2.148438 6.25 2.226562 6.25 2.304688 6.25 2.34375 6.25 2.421874 6.25 2.5 6.25 2.578126 6.25 2.617187 6.25 2.734375 6.25 2.773438L635 290.3125l6.25 2.929688 6.25 2.96875 6.25 3.085937 6.25 3.164063 6.25 3.203124 6.25 3.28125 6.25 3.398438 6.25 3.4375 6.25 3.515625 6.25 3.59375 6.25 3.671875 6.25 3.710938 6.25 3.828124 6.25 3.90625 6.25 3.984376 6.25 4.023437 6.25 4.101563 6.25 4.21875 6.25 4.257812 6.25 4.335938 6.25 4.414062 6.25 4.53125 6.25 4.570312 6.25 4.648438 6.25 4.6875 6.25 4.804688 6.25 4.882812 6.25 4.921875 6.25 5 6.25 5.078125 12.5 10.390625 6.25 5.3125 6.25 5.351563 6.25 5.46875L860 442.5l6.25 5.585938 6.25 5.625 6.25 5.703124 6.25 5.78125 6.25 5.859376 6.25 5.9375 6.25 5.976562 6.25 6.015625 6.25 6.132813 6.25 6.171874L928.75 507.5l6.25 6.289062 6.25 6.367188 6.25 6.40625 6.25 6.484375 6.25 6.523437 6.25 6.5625 6.25 6.640626 6.25 6.71875L985 566.25l6.25 6.796875 6.25 6.835937 6.25 6.914063L1010 593.75l6.25 6.992188 12.5 14.140624 6.25 7.148438 6.25 7.1875 6.25 7.226562 6.25 7.265626 6.25 7.304687 6.25 7.34375 6.25 7.382813 6.25 7.421874L1085 680.625l12.5 15 12.5 15.15625 12.5 15.234375 18.75 23.085937 6.25 7.734376 12.5 15.546874 6.25 7.8125 6.25 7.773438 6.25 7.851562 6.25 7.8125 6.25 7.890626 12.5 15.703124 75 94.6875 12.5 15.703126 6.25 7.8125 6.25 7.851562 6.25 7.8125 18.75 23.320312 6.25 7.734376 12.5 15.390624 12.5 15.3125 6.25 7.617188 6.25 7.578125 6.25 7.539063 12.5 15 6.25 7.460937 6.25 7.421875 6.25 7.382812 6.25 7.34375 6.25 7.304688 6.25 7.265625 6.25 7.226563 12.5 14.296874 6.25 7.109376 6.25 7.03125 6.25 6.992187 6.25 6.953125 6.25 6.914062 6.25 6.835938 6.25 6.796875 12.5 13.4375L1510 1195l6.25 6.5625 6.25 6.523438 6.25 6.484374 6.25 6.40625 6.25 6.328126 6.25 6.289062 6.25 6.210938 6.25 6.171874 6.25 6.09375 6.25 6.054688 6.25 5.976562L1585 1270l6.25 5.859375 12.5 11.484375 6.25 5.625 6.25 5.585938 12.5 10.9375 6.25 5.351562 6.25 5.273438 6.25 5.234374 6.25 5.15625 6.25 5.078126 6.25 5 6.25 4.921874 6.25 4.84375 6.25 4.804688 6.25 4.726562 6.25 4.609376 6.25 4.570312 6.25 4.492188 6.25 4.414062 6.25 4.335938 6.25 4.257812 6.25 4.179688 6.25 4.140624 6.25 4.023438 6.25 3.945312 6.25 3.90625 6.25 3.828126 6.25 3.710937 6.25 3.671875 6.25 3.59375 6.25 3.515625 6.25 3.4375 6.25 3.359375 6.25 3.28125 6.25 3.203125 6.25 3.125 6.25 3.085937 6.25 2.96875 6.25 2.929688 6.25 2.851562 6.25 2.773438 6.25 2.695312 6.25 2.617188 6.25 2.578125 6.25 2.460937 6.25 2.421876 6.25 2.34375 6.25 2.304687 6.25 2.226563 12.5 4.21875 6.25 1.992187 6.25 1.953125 6.25 1.875 6.25 1.835938 6.25 1.757812 6.25 1.679688 6.25 1.640624 6.25 1.5625 6.25 1.523438 6.25 1.445312 6.25 1.40625 6.25 1.328126 6.25 1.289062 6.25 1.210938 6.25 1.171874 6.25 1.132813 6.25 1.054687 6.25 1.015626 6.25.976562 12.5 1.796875 12.5 1.5625 6.25.742187 6.25.703126 12.5 1.25 12.5 1.09375 6.25.507812 12.5.859375 6.25.390625 6.25.351562 12.5.625 6.25.273438 12.5.46875 6.25.15625 6.25.195312 6.25.15625 12.5.234376 18.75.234374 18.75.117188h6.25l6.25.039062H2285l6.25.039063h6.25l6.25.039063h6.25l6.25.039062 12.5.15625 6.25.039062 18.75.351563 6.25.15625 18.75.585937 12.5.546876 12.5.625 6.25.351562 6.25.390625 6.25.429687 6.25.46875 6.25.507813 12.5 1.09375 6.25.625 6.25.664063 6.25.703124 6.25.742188 6.25.78125 6.25.820312 12.5 1.796876 6.25.976562 12.5 2.109375 6.25 1.132813 6.25 1.171874 6.25 1.25 6.25 1.289063 6.25 1.328125 12.5 2.890625 6.25 1.523437 6.25 1.601563 6.25 1.640625 6.25 1.679688 6.25 1.757812 6.25 1.835938 6.25 1.914062 6.25 1.953125 6.25 2.03125 6.25 2.109375 6.25 2.148438 6.25 2.226562 6.25 2.304688 6.25 2.34375 6.25 2.421874 6.25 2.5 6.25 2.578126 6.25 2.65625 6.25 2.695312 6.25 2.8125 6.25 2.851562 6.25 2.929688 6.25 3.007812 6.25 3.085938 6.25 3.125 6.25 3.242188 6.25 3.320312 6.25 3.359375 6.25 3.4375 6.25 3.515625 6.25 3.59375 6.25 3.710938 6.25 3.75 6.25 3.828124 6.25 3.867188 6.25 3.984375 6.25 4.0625 6.25 4.140625 6.25 4.179688 6.25 4.296874 6.25 4.335938 6.25 4.453125 6.25 4.492187 6.25 4.570313 6.25 4.648437 6.25 4.726563 6.25 4.804687 6.25 4.882813 6.25 4.921875 6.25 5.039062 6.25 5.078126 6.25 5.15625 6.25 5.234374 6.25 5.3125 6.25 5.390626 6.25 5.429687 12.5 11.09375 6.25 5.664063 6.25 5.742187 6.25 5.78125 6.25 5.859375 6.25 5.898438 12.5 12.03125 6.25 6.132812 6.25 6.171875 6.25 6.25 6.25 6.289063 6.25 6.367187 6.25 6.40625 6.25 6.484375 6.25 6.523438 6.25 6.601562 6.25 6.640625 12.5 13.4375 6.25 6.796875 6.25 6.875 6.25 6.914062 6.25 6.953126 6.25 6.992187 6.25 7.070313 6.25 7.109374 6.25 7.148438 6.25 7.1875 6.25 7.226562 6.25 7.265626 6.25 7.304687 6.25 7.34375 12.5 14.84375 6.25 7.460937 12.5 15 12.5 15.15625 6.25 7.617188 12.5 15.3125 12.5 15.390625 6.25 7.773437 6.25 7.734376 6.25 7.773437 18.75 23.4375 18.75 23.554687 6.25 7.890626 6.25 7.851562 18.75 23.671875 6.25 7.929687 37.5 47.34375 25 31.40625 12.5 15.625 18.75 23.320313 6.25 7.734375 12.5 15.390625 12.5 15.3125 12.5 15.15625 12.5 15.078125 6.25 7.5 12.5 14.84375 6.25 7.382812 6.25 7.34375 6.25 7.304688 6.25 7.265625 6.25 7.226563 12.5 14.296874 6.25 7.070313 6.25 7.03125 6.25 6.992187 6.25 6.953126 6.25 6.914062 6.25 6.835938 6.25 6.796874 6.25 6.71875 6.25 6.679688 6.25 6.640625 6.25 6.601563 12.5 12.96875 12.5 12.734374 6.25 6.289063 6.25 6.210937" style="fill:none;stroke-width:12.5;stroke-linecap:round;stroke:#00008b;stroke-miterlimit:10;transform:matrix(.1,0,0,-.1,0,275)"/></g><style>.a{fill:none;stroke:#bfbfbf;stroke-dasharray:12.5,18.75;stroke-linecap:round;stroke-miterlimit:10;stroke-width:6.25;transform:matrix(.1,0,0,-.1,0,275)}.b{fill:none;stroke:#000;stroke-miterlimit:10;transform:matrix(.1,0,0,-.1,0,275)}.c{stroke-linecap:square;stroke-width:12.5}.d{stroke-width:6.25}.e{fill:none;stroke:#bfbfbf;stroke-linecap:round;stroke-miterlimit:10;stroke-width:6.25;transform:matrix(.1,0,0,-.1,0,275)}</style></svg>