<svg xmlns="http://www.w3.org/2000/svg" width="289pt" height="45pt" viewBox="0 0 289 45"><defs><path d="M5.1094-.79687l-.0937-.23437L4.5-.73437c-.171875.09375-.25.109375-.359375.109375-.109375 0-.203125-.0625-.296875-.265625-.421875-.76563-.6875-1.42188-1.15625-2.89063l.1719-.15625c.71875-.734375 1.28125-1.03125 1.875-1.03125.09375 0 .21875.015625.421875.0625l.2031-.75c-.203125-.0625-.421875-.109375-.5625-.109375-.796875 0-1.78125.921875-3.28125 3.015625l1.2813-5.875-.1406-.14062c-.625.3125-1.046875.421875-1.921875.5l-.0469.25h.5781c.28125 0 .40625.09375.40625.296875 0 .09375-.015625.203125-.015625.28125l-.5781 3.20313c-.15625.90625-.359375 1.71875-.984375 4.21875l.1094.125L1-.09375l.2813-1.48437c.109375-.578125.390625-1.109375.796875-1.515625.828125 2.390625 1.203125 3.203125 1.5 3.203125.15625 0 .453125-.15625.96875-.53125zm0 0" id="a"/><path d="M8.8438-1.01562l-.125-.21875-.2969.20313c-.3594.234365-.6094.359365-.7344.359365-.078125 0-.15625-.109375-.15625-.234375 0-.125.015625-.234375.078125-.484375l.9063-3.54687c.046875-.203125.078125-.390625.078125-.484375 0-.203125-.125-.34375-.3125-.34375-.34375 0-.796875.21875-1.53125.734375C6-4.5 5.578125-4.078125 5-3.25l.3594-1.64062c.046875-.234375.078125-.421875.078125-.5 0-.234375-.125-.375-.3125-.375-.359375 0-.90625.265625-1.5625.765625-.53125.40625-.765625.65625-1.546875 1.71875l.4063-1.59375c.046875-.1875.0625-.375.0625-.515625 0-.234375-.109375-.375-.265625-.375-.265625 0-.71875.25-1.59375.890625l-.3437.23438.0938.23438.375-.25c.4375-.28125.484375-.296875.5625-.296875.140625 0 .21875.125.21875.296875 0 .609375-.484375 2.921875-.984375 4.625l.0313.14063.8281-.1875.25-1.21875c.296875-1.328125.609375-2.03125 1.265625-2.75.515625-.546875 1.046875-.90625 1.375-.90625.09375 0 .140625.09375.140625.25 0 .421875-.25 1.78125-.75 3.875l-.2031.79688.0625.14063.8281-.1875.25-1.26562c.1875-.96875.59375-1.875 1.125-2.453125.65625-.734375 1.25-1.15625 1.640625-1.15625.09375 0 .15625.109375.15625.296875 0 .296875-.015625.453125-.296875 1.5l-.5156 1.875c-.09375.34375-.15625.640625-.15625.90625 0 .296875.125.484375.359375.484375.3125 0 .734375-.25 1.90625-1.125zm0 0" id="b"/><path d="M3.6563.03125v-.26562l-.4531-.03125c-.484375-.03125-.5625-.125-.5625-.578125v-5.20312l-.125-.03125c-.5625.296875-1.1875.5625-1.984375.84375l.0625.375h.0781c.390625-.1875.78125-.359375 1.15625-.515625.0625 0 .078125.078125.078125.28125v4.25c0 .453125-.09375.546875-.578125.578125l-.4844.03125V.03125C1.328125.015625 1.8125 0 2.28125 0c.46875 0 .921875.015625 1.375.03125zm0 0" id="c"/><path d="M4.1094.03125c-.03125-.1875-.03125-.28125-.03125-.40625 0-.109375 0-.1875.03125-.390625L1.0625-.67187l1.6094-1.6875C3.515625-3.265625 3.78125-3.75 3.78125-4.40625c0-1.015625-.6875-1.640625-1.796875-1.640625-.640625 0-1.0625.1875-1.5.625l-.1406 1.1875h.25l.1094-.40625c.140625-.5.46875-.71875 1.046875-.71875.75 0 1.234375.46875 1.234375 1.21875 0 .65625-.359375 1.296875-1.359375 2.359375L.1406-.20312v.23437C.78125.015625 1.453125 0 2.09375 0c.671875 0 1.34375.015625 2.015625.03125zm0 0" id="d"/><path d="M4.0469-1.96875c0-.421875-.171875-.78125-.484375-1-.21875-.15625-.421875-.234375-.859375-.3125.703125-.546875.953125-.9375.953125-1.46875 0-.765625-.640625-1.296875-1.609375-1.296875-.59375 0-1 .171875-1.421875.59375l-.25 1.09375h.2813l.1563-.5c.09375-.296875.640625-.59375 1.09375-.59375.578125 0 1.03125.46875 1.03125 1.015625 0 .65625-.515625 1.21875-1.125 1.21875-.078125 0-.421875-.03125-.421875-.03125l-.1094.46875.0625.04688c.34375-.15625.5-.1875.75-.1875.71875 0 1.140625.453125 1.140625 1.25 0 .90625-.53125 1.484375-1.34375 1.484375-.40625 0-.765625-.125-1.03125-.375C.65625-.75.53125-.953125.375-1.421875l-.25.07813c.1875.53125.265625.859375.3125 1.296875.46875.15625.84375.21875 1.171875.21875 1.0625 0 2.4375-.921875 2.4375-2.140625zm0 0" id="e"/><path d="M4.1406.03125v-.26562l-.4219-.03125c-.4375-.03125-.53125-.140625-.53125-.65625v-.67187c.515625 0 .703125.015625.953125.046875v-.625c0 0-.4375.03125-.71875.03125H3.1875v-1.21875c0-1.5625.015625-2.328125.0625-2.6875l-.1094-.03125L2.5-5.84375.0156-1.78125l.0938.1875h2.3438v.67188c0 .515625-.09375.640625-.53125.65625l-.5312.03125v.26562C1.859375.015625 2.328125 0 2.796875 0 3.25 0 3.6875.015625 4.140625.03125zM2.4531-2.14062H.5625l1.8906-3.09375zm0 0" id="m"/><clipPath id="f"><path d="M204 26h22v18.53516h-22zm0 0"/></clipPath><clipPath id="g"><path d="M228 26h23v18.53516h-23zm0 0"/></clipPath><clipPath id="h"><path d="M121 26h22v18.53516h-22zm0 0"/></clipPath><clipPath id="i"><path d="M146 26h22v18.53516h-22zm0 0"/></clipPath><clipPath id="j"><path d="M38 26h23v18.53516H38zm0 0"/></clipPath><clipPath id="k"><path d="M63 26h22v18.53516H63zm0 0"/></clipPath><clipPath id="l"><path d="M0 0h289v44.53516H0zm0 0"/></clipPath></defs><path d="M219.2383 37.65625c0 2.386719-1.933593 4.320312-4.320312 4.320312-2.386719 0-4.320313-1.933593-4.320313-4.320312 0-2.382812 1.933594-4.320312 4.320313-4.320312 2.386719 0 4.320312 1.9375 4.320312 4.320312" class="b"/><g clip-path="url(#f)"><path d="M2194.612813 68.8075c0-23.867187-19.335938-43.203125-43.203125-43.203125-23.867188 0-43.203125 19.335938-43.203125 43.203125 0 23.828125 19.335937 43.203125 43.203125 43.203125 23.867187 0 43.203125-19.375 43.203125-43.203125zm0 0" class="a"/></g><path d="M243.7773 37.65625c0 2.386719-1.933594 4.320312-4.320313 4.320312-2.386719 0-4.320312-1.933593-4.320312-4.320312 0-2.382812 1.933593-4.320312 4.320312-4.320312 2.386719 0 4.320313 1.9375 4.320313 4.320312" class="b"/><g clip-path="url(#g)"><path d="M2440.003438 68.8075c0-23.867187-19.335938-43.203125-43.203125-43.203125-23.867188 0-43.203125 19.335938-43.203125 43.203125 0 23.828125 19.335937 43.203125 43.203125 43.203125 23.867187 0 43.203125-19.375 43.203125-43.203125zm0 0" class="a"/></g><path d="M136.5586 37.65625c0 2.386719-1.9375 4.320312-4.320313 4.320312-2.386719 0-4.320312-1.933593-4.320312-4.320312 0-2.382812 1.933593-4.320312 4.320312-4.320312 2.382813 0 4.320313 1.9375 4.320313 4.320312" class="b"/><g clip-path="url(#h)"><path d="M1367.815938 68.8075c0-23.867187-19.375-43.203125-43.203125-43.203125-23.867188 0-43.203125 19.335938-43.203125 43.203125 0 23.828125 19.335937 43.203125 43.203125 43.203125 23.828125 0 43.203125-19.375 43.203125-43.203125zm0 0" class="a"/></g><path d="M161.0352 37.65625c0 2.386719-1.933594 4.320312-4.316406 4.320312-2.386719 0-4.320312-1.933593-4.320312-4.320312 0-2.382812 1.933593-4.320312 4.320312-4.320312 2.382812 0 4.316406 1.9375 4.316406 4.320312" class="b"/><g clip-path="url(#i)"><path d="M1612.581563 68.8075c0-23.867187-19.335938-43.203125-43.164063-43.203125-23.867187 0-43.203125 19.335938-43.203125 43.203125 0 23.828125 19.335938 43.203125 43.203125 43.203125 23.828125 0 43.164063-19.375 43.164063-43.203125zm0 0" class="a"/></g><path d="M53.8164 37.65625c0 2.386719-1.933594 4.320312-4.320312 4.320312-2.382813 0-4.320313-1.933593-4.320313-4.320312 0-2.382812 1.9375-4.320312 4.320313-4.320312 2.386718 0 4.320312 1.9375 4.320312 4.320312" class="b"/><g clip-path="url(#j)"><path d="M540.394063 68.8075c0-23.867187-19.335938-43.203125-43.203125-43.203125-23.828125 0-43.203125 19.335938-43.203125 43.203125 0 23.828125 19.375 43.203125 43.203125 43.203125 23.867187 0 43.203125-19.375 43.203125-43.203125zm0 0" class="a"/></g><path d="M78.3555 37.65625c0 2.386719-1.933594 4.320312-4.316407 4.320312-2.386718 0-4.320312-1.933593-4.320312-4.320312 0-2.382812 1.933594-4.320312 4.320312-4.320312 2.382813 0 4.316407 1.9375 4.316407 4.320312" class="b"/><g clip-path="url(#k)"><path d="M785.784688 68.8075c0-23.867187-19.335938-43.203125-43.164063-43.203125-23.867187 0-43.203125 19.335938-43.203125 43.203125 0 23.828125 19.335938 43.203125 43.203125 43.203125 23.828125 0 43.164063-19.375 43.164063-43.203125zm0 0" class="a"/></g><g clip-path="url(#l)"><path d="M6.995625 435.995V7.596563h2880V435.995" class="a"/></g><g class="a"><path d="M6.995625 160.604375h30.625l30.585938 91.796875L98.7925 99.393438l30.625 153.007812 30.585938-153.007812 30.585937 153.007812 30.625-153.007812L252.38625 252.40125l30.625-153.007812 30.585938 153.007812 30.625-153.007812 30.585937 91.796875h30.585938"/><path d="M834.4175 160.604375h30.585938l30.585937 91.796875 30.625-153.007812 30.585938 153.007812L987.38625 99.393438l30.625 153.007812 30.585938-153.007812 30.585937 153.007812 30.625-153.007812 30.585938 153.007812 30.625-153.007812 30.585937 91.796875h31.210938"/><path d="M1661.214375 160.604375h31.171875l30.625 91.796875 30.585938-153.007812 30.585937 153.007812 30.625-153.007812 30.585938 153.007812 30.625-153.007812L1906.605 252.40125l30.585938-153.007812 30.625 153.007812 30.585937-153.007812 30.585938 91.796875h30.625"/><path d="M2488.597188 160.604375h30.585937l30.625 91.796875 30.585938-153.007812 30.625 153.007812L2641.605 99.393438l31.210938 153.007812 30.585937-153.007812 30.585938 153.007812 30.625-153.007812 30.585937 153.007812 30.585938-153.007812 30.625 91.796875h30.585937"/><path d="M2059.612813 68.8075h428.984375v275.390625h-428.984375zm0 0"/><path d="M1232.815938 68.8075h428.398437v275.390625h-428.398437zm0 0"/><path d="M405.394063 68.8075H834.4175v275.390625H405.394063zm0 0"/></g><use x="16.395" y="13.217" href="#a"/><use x="22.061" y="15.01" href="#c"/><use x="52.817" y="25.457" href="#b"/><use x="62.238" y="27.25" href="#c"/><use x="99.137" y="13.217" href="#a"/><use x="104.803" y="15.01" href="#d"/><use x="135.559" y="25.457" href="#b"/><use x="144.98" y="27.25" href="#d"/><use x="181.879" y="13.217" href="#a"/><use x="187.545" y="15.01" href="#e"/><use x="218.301" y="25.457" href="#b"/><use x="227.722" y="27.25" href="#e"/><use x="264.561" y="13.217" href="#a"/><use x="270.227" y="15.01" href="#m"/><style>.a{fill:none;stroke:#000;stroke-miterlimit:10;stroke-width:4.5;transform:matrix(.1,0,0,-.1,-.223,44.537)}.b{fill-rule:evenodd}</style></svg>