<svg xmlns="http://www.w3.org/2000/svg" width="181pt" height="45pt" viewBox="0 0 181 45"><defs><path d="M5.1094-.79687l-.0937-.23437L4.5-.73437c-.171875.09375-.25.109375-.359375.109375-.109375 0-.203125-.0625-.296875-.265625-.421875-.76563-.6875-1.42188-1.15625-2.89063l.1719-.15625c.71875-.734375 1.28125-1.03125 1.875-1.03125.09375 0 .21875.015625.421875.0625l.2031-.75c-.203125-.0625-.421875-.109375-.5625-.109375-.796875 0-1.78125.921875-3.28125 3.015625l1.2813-5.875-.1406-.14062c-.625.3125-1.046875.421875-1.921875.5l-.0469.25h.5781c.28125 0 .40625.09375.40625.296875 0 .09375-.015625.203125-.015625.28125l-.5781 3.20313c-.15625.90625-.359375 1.71875-.984375 4.21875l.1094.125L1-.09375l.2813-1.48437c.109375-.578125.390625-1.109375.796875-1.515625.828125 2.390625 1.203125 3.203125 1.5 3.203125.15625 0 .453125-.15625.96875-.53125zm0 0" id="a"/><path d="M8.8438-1.01562l-.125-.21875-.2969.20313c-.3594.234365-.6094.359365-.7344.359365-.078125 0-.15625-.109375-.15625-.234375 0-.125.015625-.234375.078125-.484375l.9063-3.54687c.046875-.203125.078125-.390625.078125-.484375 0-.203125-.125-.34375-.3125-.34375-.34375 0-.796875.21875-1.53125.734375C6-4.5 5.578125-4.078125 5-3.25l.3594-1.64062c.046875-.234375.078125-.421875.078125-.5 0-.234375-.125-.375-.3125-.375-.359375 0-.90625.265625-1.5625.765625-.53125.40625-.765625.65625-1.546875 1.71875l.4063-1.59375c.046875-.1875.0625-.375.0625-.515625 0-.234375-.109375-.375-.265625-.375-.265625 0-.71875.25-1.59375.890625l-.3437.23438.0938.23438.375-.25c.4375-.28125.484375-.296875.5625-.296875.140625 0 .21875.125.21875.296875 0 .609375-.484375 2.921875-.984375 4.625l.0313.14063.8281-.1875.25-1.21875c.296875-1.328125.609375-2.03125 1.265625-2.75.515625-.546875 1.046875-.90625 1.375-.90625.09375 0 .140625.09375.140625.25 0 .421875-.25 1.78125-.75 3.875l-.2031.79688.0625.14063.8281-.1875.25-1.26562c.1875-.96875.59375-1.875 1.125-2.453125.65625-.734375 1.25-1.15625 1.640625-1.15625.09375 0 .15625.109375.15625.296875 0 .296875-.015625.453125-.296875 1.5l-.5156 1.875c-.09375.34375-.15625.640625-.15625.90625 0 .296875.125.484375.359375.484375.3125 0 .734375-.25 1.90625-1.125zm0 0" id="b"/><path d="M3.6563.03125v-.26562l-.4531-.03125c-.484375-.03125-.5625-.125-.5625-.578125v-5.20312l-.125-.03125c-.5625.296875-1.1875.5625-1.984375.84375l.0625.375h.0781c.390625-.1875.78125-.359375 1.15625-.515625.0625 0 .078125.078125.078125.28125v4.25c0 .453125-.09375.546875-.578125.578125l-.4844.03125V.03125C1.328125.015625 1.8125 0 2.28125 0c.46875 0 .921875.015625 1.375.03125zm0 0" id="c"/><path d="M4.1094.03125c-.03125-.1875-.03125-.28125-.03125-.40625 0-.109375 0-.1875.03125-.390625L1.0625-.67187l1.6094-1.6875C3.515625-3.265625 3.78125-3.75 3.78125-4.40625c0-1.015625-.6875-1.640625-1.796875-1.640625-.640625 0-1.0625.1875-1.5.625l-.1406 1.1875h.25l.1094-.40625c.140625-.5.46875-.71875 1.046875-.71875.75 0 1.234375.46875 1.234375 1.21875 0 .65625-.359375 1.296875-1.359375 2.359375L.1406-.20312v.23437C.78125.015625 1.453125 0 2.09375 0c.671875 0 1.34375.015625 2.015625.03125zm0 0" id="d"/><clipPath id="e"><path d="M123 26h22v18.53516h-22zm0 0"/></clipPath><clipPath id="f"><path d="M148 26h22v18.53516h-22zm0 0"/></clipPath><clipPath id="g"><path d="M39 26h22v18.53516H39zm0 0"/></clipPath><clipPath id="h"><path d="M64 26h22v18.53516H64zm0 0"/></clipPath><clipPath id="i"><path d="M0 0h181v44.53516H0zm0 0"/></clipPath></defs><path d="M138.2969 37.59766c0 2.417969-1.960937 4.378906-4.378906 4.378906-2.417969 0-4.378907-1.960937-4.378907-4.378906 0-2.417968 1.960938-4.378906 4.378907-4.378906 2.417969 0 4.378906 1.960938 4.378906 4.378906" class="b"/><g clip-path="url(#e)"><path d="M1385.18875 69.393438c0-24.179688-19.609375-43.789063-43.789062-43.789063-24.179688 0-43.789063 19.609375-43.789063 43.789063 0 24.179687 19.609375 43.789062 43.789063 43.789062 24.179687 0 43.789062-19.609375 43.789062-43.789062zm0 0" class="a"/></g><path d="M163.1367 37.59766c0 2.417969-1.960938 4.378906-4.378907 4.378906-2.417968 0-4.378906-1.960937-4.378906-4.378906 0-2.417968 1.960938-4.378906 4.378906-4.378906 2.417969 0 4.378907 1.960938 4.378907 4.378906" class="b"/><g clip-path="url(#f)"><path d="M1633.587188 69.393438c0-24.179688-19.609375-43.789063-43.789063-43.789063-24.179687 0-43.789062 19.609375-43.789062 43.789063 0 24.179687 19.609375 43.789062 43.789062 43.789062 24.179688 0 43.789063-19.609375 43.789063-43.789062zm0 0" class="a"/></g><path d="M54.5391 37.59766c0 2.417969-1.960937 4.378906-4.382812 4.378906-2.417969 0-4.378906-1.960937-4.378906-4.378906 0-2.417968 1.960937-4.378906 4.378906-4.378906 2.421875 0 4.382812 1.960938 4.382812 4.378906" class="b"/><g clip-path="url(#g)"><path d="M547.610625 69.393438c0-24.179688-19.609375-43.789063-43.828125-43.789063-24.179687 0-43.789062 19.609375-43.789062 43.789063 0 24.179687 19.609375 43.789062 43.789062 43.789062 24.21875 0 43.828125-19.609375 43.828125-43.789062zm0 0" class="a"/></g><path d="M79.3164 37.59766c0 2.417969-1.960937 4.378906-4.378906 4.378906-2.417969 0-4.378906-1.960937-4.378906-4.378906 0-2.417968 1.960937-4.378906 4.378906-4.378906 2.417969 0 4.378906 1.960938 4.378906 4.378906" class="b"/><g clip-path="url(#h)"><path d="M795.384063 69.393438c0-24.179688-19.609375-43.789063-43.789063-43.789063-24.179687 0-43.789062 19.609375-43.789062 43.789063 0 24.179687 19.609375 43.789062 43.789062 43.789062 24.179688 0 43.789063-19.609375 43.789063-43.789062zm0 0" class="a"/></g><g clip-path="url(#i)"><path d="M6.985625 442.010625V7.596563h1800" class="a"/></g><g class="a"><path d="M6.985625 162.987188h31.210938L68.7825 255.995l31.210938-155.390625L131.204375 255.995l31.210938-155.390625L193.00125 255.995l31.210938-155.390625L255.384063 255.995 286.595 100.604375 317.22 255.995l31.171875-155.390625 31.210938 93.007813h30.585937"/><path d="M845.18875 162.987188h30.625L906.985625 255.995l31.210938-155.390625L968.7825 255.995l31.210938-155.390625L1031.204375 255.995l31.210938-155.390625L1093.00125 255.995l31.210938-155.390625L1155.384063 255.995 1186.595 100.604375l30.585938 93.007813h31.210937"/><path d="M1248.391875 69.393438h434.414063v279.609375h-434.414063zm0 0"/><path d="M410.18875 69.393438h435v279.609375h-435zm0 0"/></g><use x="16.636" y="12.797" href="#a"/><use x="22.303" y="14.59" href="#c"/><use x="53.478" y="25.217" href="#b"/><use x="62.899" y="27.01" href="#c"/><use x="100.398" y="12.797" href="#a"/><use x="106.065" y="14.59" href="#d"/><use x="137.3" y="25.217" href="#b"/><use x="146.721" y="27.01" href="#d"/><style>.a{fill:none;stroke:#000;stroke-miterlimit:10;stroke-width:4.5;transform:matrix(.1,0,0,-.1,-.222,44.537)}.b{fill-rule:evenodd}</style></svg>