<svg xmlns="http://www.w3.org/2000/svg" width="342pt" height="258pt" viewBox="0 0 342 258"><defs><clipPath id="a"><path d="M170 1.5h2v255h-2zm0 0"/></clipPath><clipPath id="b"><path d="M1 128h340v2H1zm0 0"/></clipPath><clipPath id="c"><path d="M1 1.5h1v255H1zm0 0"/></clipPath><clipPath id="d"><path d="M85 1.5h2v255h-2zm0 0"/></clipPath><clipPath id="e"><path d="M170 1.5h2v255h-2zm0 0"/></clipPath><clipPath id="f"><path d="M255 1.5h2v255h-2zm0 0"/></clipPath><clipPath id="g"><path d="M340 1.5h1v255h-1zm0 0"/></clipPath><clipPath id="h"><path d="M1 256h340v.5H1zm0 0"/></clipPath><clipPath id="i"><path d="M1 192h340v2H1zm0 0"/></clipPath><clipPath id="j"><path d="M1 128h340v2H1zm0 0"/></clipPath><clipPath id="k"><path d="M1 64h340v2H1zm0 0"/></clipPath><clipPath id="l"><path d="M1 1.5h340V2H1zm0 0"/></clipPath></defs><path fill="#fff" d="M1 256.5h340V1.5H1zm0 0"/><g clip-path="url(#a)"><path d="M2000 225v2550" class="d"/></g><g clip-path="url(#b)"><path d="M300 1500h3400" class="d"/></g><g clip-path="url(#c)"><path d="M300 225v2550" class="a"/></g><g clip-path="url(#d)"><path d="M1150 225v2550" class="a"/></g><g clip-path="url(#e)"><path d="M2000 225v2550" class="a"/></g><g clip-path="url(#f)"><path d="M2850 225v2550" class="a"/></g><g clip-path="url(#g)"><path d="M3700 225v2550" class="a"/></g><g clip-path="url(#h)"><path d="M300 225h3400" class="a"/></g><g clip-path="url(#i)"><path d="M300 862.5h3400" class="a"/></g><g clip-path="url(#j)"><path d="M300 1500h3400" class="a"/></g><g clip-path="url(#k)"><path d="M300 2137.5h3400" class="a"/></g><g clip-path="url(#l)"><path d="M300 2775h3400" class="a"/></g><g fill="none" stroke-miterlimit="10" transform="matrix(.1 0 0 -.1 -29 279)"><g stroke="#000"><path d="M300 225h3400" class="b"/><g class="c"><path d="M300 225v50"/><path d="M385 225v25"/><path d="M470 225v25"/><path d="M555 225v25"/><path d="M640 225v25"/><path d="M725 225v25"/><path d="M810 225v25"/><path d="M895 225v25"/><path d="M980 225v25"/><path d="M1065 225v25"/><path d="M1150 225v50"/><path d="M1235 225v25"/><path d="M1320 225v25"/><path d="M1405 225v25"/><path d="M1490 225v25"/><path d="M1575 225v25"/><path d="M1660 225v25"/><path d="M1745 225v25"/><path d="M1830 225v25"/><path d="M1915 225v25"/><path d="M2000 225v50"/><path d="M2085 225v25"/><path d="M2170 225v25"/><path d="M2255 225v25"/><path d="M2340 225v25"/><path d="M2425 225v25"/><path d="M2510 225v25"/><path d="M2595 225v25"/><path d="M2680 225v25"/><path d="M2765 225v25"/><path d="M2850 225v50"/><path d="M2935 225v25"/><path d="M3020 225v25"/><path d="M3105 225v25"/><path d="M3190 225v25"/><path d="M3275 225v25"/><path d="M3360 225v25"/><path d="M3445 225v25"/><path d="M3530 225v25"/><path d="M3615 225v25"/><path d="M3700 225v50"/></g><path d="M300 2775h3400" class="b"/><g class="c"><path d="M300 2775v-50"/><path d="M385 2775v-25"/><path d="M470 2775v-25"/><path d="M555 2775v-25"/><path d="M640 2775v-25"/><path d="M725 2775v-25"/><path d="M810 2775v-25"/><path d="M895 2775v-25"/><path d="M980 2775v-25"/><path d="M1065 2775v-25"/><path d="M1150 2775v-50"/><path d="M1235 2775v-25"/><path d="M1320 2775v-25"/><path d="M1405 2775v-25"/><path d="M1490 2775v-25"/><path d="M1575 2775v-25"/><path d="M1660 2775v-25"/><path d="M1745 2775v-25"/><path d="M1830 2775v-25"/><path d="M1915 2775v-25"/><path d="M2000 2775v-50"/><path d="M2085 2775v-25"/><path d="M2170 2775v-25"/><path d="M2255 2775v-25"/><path d="M2340 2775v-25"/><path d="M2425 2775v-25"/><path d="M2510 2775v-25"/><path d="M2595 2775v-25"/><path d="M2680 2775v-25"/><path d="M2765 2775v-25"/><path d="M2850 2775v-50"/><path d="M2935 2775v-25"/><path d="M3020 2775v-25"/><path d="M3105 2775v-25"/><path d="M3190 2775v-25"/><path d="M3275 2775v-25"/><path d="M3360 2775v-25"/><path d="M3445 2775v-25"/><path d="M3530 2775v-25"/><path d="M3615 2775v-25"/><path d="M3700 2775v-50"/></g><path d="M300 225v2550" class="b"/><g class="c"><path d="M300 225h50"/><path d="M300 288.75h25"/><path d="M300 352.5h25"/><path d="M300 416.25h25"/><path d="M300 480h25"/><path d="M300 543.75h25"/><path d="M300 607.5h25"/><path d="M300 671.25h25"/><path d="M300 735h25"/><path d="M300 798.75h25"/><path d="M300 862.5h50"/><path d="M300 926.25h25"/><path d="M300 990h25"/><path d="M300 1053.75h25"/><path d="M300 1117.5h25"/><path d="M300 1181.25h25"/><path d="M300 1245h25"/><path d="M300 1308.75h25"/><path d="M300 1372.5h25"/><path d="M300 1436.25h25"/><path d="M300 1500h50"/><path d="M300 1563.75h25"/><path d="M300 1627.5h25"/><path d="M300 1691.25h25"/><path d="M300 1755h25"/><path d="M300 1818.75h25"/><path d="M300 1882.5h25"/><path d="M300 1946.25h25"/><path d="M300 2010h25"/><path d="M300 2073.75h25"/><path d="M300 2137.5h50"/><path d="M300 2201.25h25"/><path d="M300 2265h25"/><path d="M300 2328.75h25"/><path d="M300 2392.5h25"/><path d="M300 2456.25h25"/><path d="M300 2520h25"/><path d="M300 2583.75h25"/><path d="M300 2647.5h25"/><path d="M300 2711.25h25"/><path d="M300 2775h50"/></g><path d="M3700 225v2550" class="b"/><g class="c"><path d="M3700 225h-50"/><path d="M3700 288.75h-25"/><path d="M3700 352.5h-25"/><path d="M3700 416.25h-25"/><path d="M3700 480h-25"/><path d="M3700 543.75h-25"/><path d="M3700 607.5h-25"/><path d="M3700 671.25h-25"/><path d="M3700 735h-25"/><path d="M3700 798.75h-25"/><path d="M3700 862.5h-50"/><path d="M3700 926.25h-25"/><path d="M3700 990h-25"/><path d="M3700 1053.75h-25"/><path d="M3700 1117.5h-25"/><path d="M3700 1181.25h-25"/><path d="M3700 1245h-25"/><path d="M3700 1308.75h-25"/><path d="M3700 1372.5h-25"/><path d="M3700 1436.25h-25"/><path d="M3700 1500h-50"/><path d="M3700 1563.75h-25"/><path d="M3700 1627.5h-25"/><path d="M3700 1691.25h-25"/><path d="M3700 1755h-25"/><path d="M3700 1818.75h-25"/><path d="M3700 1882.5h-25"/><path d="M3700 1946.25h-25"/><path d="M3700 2010h-25"/><path d="M3700 2073.75h-25"/><path d="M3700 2137.5h-50"/><path d="M3700 2201.25h-25"/><path d="M3700 2265h-25"/><path d="M3700 2328.75h-25"/><path d="M3700 2392.5h-25"/><path d="M3700 2456.25h-25"/><path d="M3700 2520h-25"/><path d="M3700 2583.75h-25"/><path d="M3700 2647.5h-25"/><path d="M3700 2711.25h-25"/><path d="M3700 2775h-50"/></g></g><g stroke-width="12.5" stroke-linecap="round" stroke="#00f"><path d="M362.539062 352.382812 546.5625 329.453125"/><path d="M546.5625 329.453125h0"/><path d="M377.148438 623.789062l154.804687-102.148437"/><path d="M531.953125 521.640625h0"/><path d="M378.085938 857.03125l152.890624-104.960938"/><path d="M530.976562 752.070312h0"/><path d="M363.359375 1053.125l182.382813-33.515625"/><path d="M545.742188 1019.609375h0"/><path d="M370.3125 1229.375l168.4375 77.617188"/><path d="M538.75 1306.992188h0"/><path d="M380.351562 1444.375l148.359376 111.25"/><path d="M528.710938 1555.625h0"/><path d="M370.3125 1693.007812 538.75 1770.625"/><path d="M538.75 1770.625h0"/><path d="M363.359375 1980.390625 545.742188 1946.875"/><path d="M545.742188 1946.875h0"/><path d="M378.085938 2247.929688l152.890624-104.960938"/><path d="M530.976562 2142.96875h0"/><path d="M377.148438 2478.359375l154.804687-102.1875"/><path d="M531.953125 2376.171875h0"/><path d="M362.539062 2670.546875l184.023438-22.929687"/><path d="M546.5625 2647.617188h0"/><path d="M671.601562 352.382812l184.0625-22.929687"/><path d="M855.664062 329.453125h0"/><path d="M686.25 623.789062l154.765625-102.148437"/><path d="M841.015625 521.640625h0"/><path d="M687.1875 857.03125l152.890625-104.960938"/><path d="M840.078125 752.070312h0"/><path d="M672.421875 1053.125l182.421875-33.515625"/><path d="M854.84375 1019.609375h0"/><path d="M679.414062 1229.375l168.4375 77.617188"/><path d="M847.851562 1306.992188h0"/><path d="M689.453125 1444.375l148.359375 111.25"/><path d="M837.8125 1555.625h0"/><path d="M679.414062 1693.007812l168.4375 77.617188"/><path d="M847.851562 1770.625h0"/><path d="M672.421875 1980.390625 854.84375 1946.875"/><path d="M854.84375 1946.875h0"/><path d="M687.1875 2247.929688l152.890625-104.960938"/><path d="M840.078125 2142.96875h0"/><path d="M686.25 2478.359375l154.765625-102.1875"/><path d="M841.015625 2376.171875h0"/><path d="M671.601562 2670.546875l184.0625-22.929687"/><path d="M855.664062 2647.617188h0"/><path d="M980.703125 352.382812l184.023437-22.929687"/><path d="M1164.726562 329.453125h0"/><path d="M995.351562 623.789062l154.765626-102.148437"/><path d="M1150.117188 521.640625h0"/><path d="M996.289062 857.03125l152.890626-104.960938"/><path d="M1149.179688 752.070312h0"/><path d="M981.523438 1053.125l182.421874-33.515625"/><path d="M1163.945312 1019.609375h0"/><path d="M988.515625 1229.375l168.4375 77.617188"/><path d="M1156.953125 1306.992188h0"/><path d="M998.554688 1444.375l148.359374 111.25"/><path d="M1146.914062 1555.625h0"/><path d="M988.515625 1693.007812l168.4375 77.617188"/><path d="M1156.953125 1770.625h0"/><path d="M981.523438 1980.390625l182.421874-33.515625"/><path d="M1163.945312 1946.875h0"/><path d="M996.289062 2247.929688l152.890626-104.960938"/><path d="M1149.179688 2142.96875h0"/><path d="M995.351562 2478.359375l154.765626-102.1875"/><path d="M1150.117188 2376.171875h0"/><path d="M980.703125 2670.546875l184.023437-22.929687"/><path d="M1164.726562 2647.617188h0"/><path d="M1289.804688 352.382812l184.023437-22.929687"/><path d="M1473.828125 329.453125h0"/><path d="M1304.414062 623.789062l154.804688-102.148437"/><path d="M1459.21875 521.640625h0"/><path d="M1305.390625 857.03125l152.851563-104.960938"/><path d="M1458.242188 752.070312h0"/><path d="M1290.625 1053.125l182.382812-33.515625"/><path d="M1473.007812 1019.609375h0"/><path d="M1297.617188 1229.375l168.398437 77.617188"/><path d="M1466.015625 1306.992188h0"/><path d="M1307.65625 1444.375l148.359375 111.25"/><path d="M1456.015625 1555.625h0"/><path d="M1297.617188 1693.007812l168.398437 77.617188"/><path d="M1466.015625 1770.625h0"/><path d="M1290.625 1980.390625l182.382812-33.515625"/><path d="M1473.007812 1946.875h0"/><path d="M1305.390625 2247.929688l152.851563-104.960938"/><path d="M1458.242188 2142.96875h0"/><path d="M1304.414062 2478.359375l154.804688-102.1875"/><path d="M1459.21875 2376.171875h0"/><path d="M1289.804688 2670.546875l184.023437-22.929687"/><path d="M1473.828125 2647.617188h0"/><path d="M1598.90625 352.382812l184.023438-22.929687"/><path d="M1782.929688 329.453125h0"/><path d="M1613.515625 623.789062l154.765625-102.148437"/><path d="M1768.28125 521.640625h0"/><path d="M1614.453125 857.03125l152.890625-104.960938"/><path d="M1767.34375 752.070312h0"/><path d="M1599.726562 1053.125l182.382813-33.515625"/><path d="M1782.109375 1019.609375h0"/><path d="M1606.71875 1229.375l168.398438 77.617188"/><path d="M1775.117188 1306.992188h0"/><path d="M1616.71875 1444.375l148.359375 111.25"/><path d="M1765.078125 1555.625h0"/><path d="M1606.71875 1693.007812l168.398438 77.617188"/><path d="M1775.117188 1770.625h0"/><path d="M1599.726562 1980.390625l182.382813-33.515625"/><path d="M1782.109375 1946.875h0"/><path d="M1614.453125 2247.929688l152.890625-104.960938"/><path d="M1767.34375 2142.96875h0"/><path d="M1613.515625 2478.359375l154.765625-102.1875"/><path d="M1768.28125 2376.171875h0"/><path d="M1598.90625 2670.546875l184.023438-22.929687"/><path d="M1782.929688 2647.617188h0"/><path d="M1908.007812 352.382812l183.984376-22.929687"/><path d="M2091.992188 329.453125h0"/><path d="M1922.617188 623.789062l154.765624-102.148437"/><path d="M2077.382812 521.640625h0"/><path d="M1923.554688 857.03125l152.890624-104.960938"/><path d="M2076.445312 752.070312h0"/><path d="M1908.789062 1053.125l182.421876-33.515625"/><path d="M2091.210938 1019.609375h0"/><path d="M1915.78125 1229.375l168.4375 77.617188"/><path d="M2084.21875 1306.992188h0"/><path d="M1925.820312 1444.375l148.359376 111.25"/><path d="M2074.179688 1555.625h0"/><path d="M1915.78125 1693.007812l168.4375 77.617188"/><path d="M2084.21875 1770.625h0"/><path d="M1908.789062 1980.390625l182.421876-33.515625"/><path d="M2091.210938 1946.875h0"/><path d="M1923.554688 2247.929688l152.890624-104.960938"/><path d="M2076.445312 2142.96875h0"/><path d="M1922.617188 2478.359375l154.765624-102.1875"/><path d="M2077.382812 2376.171875h0"/><path d="M1908.007812 2670.546875l183.984376-22.929687"/><path d="M2091.992188 2647.617188h0"/><path d="M2217.070312 352.382812l184.023438-22.929687"/><path d="M2401.09375 329.453125h0"/><path d="M2231.71875 623.789062l154.765625-102.148437"/><path d="M2386.484375 521.640625h0"/><path d="M2232.65625 857.03125l152.890625-104.960938"/><path d="M2385.546875 752.070312h0"/><path d="M2217.890625 1053.125l182.382813-33.515625"/><path d="M2400.273438 1019.609375h0"/><path d="M2224.882812 1229.375l168.398438 77.617188"/><path d="M2393.28125 1306.992188h0"/><path d="M2234.921875 1444.375l148.359375 111.25"/><path d="M2383.28125 1555.625h0"/><path d="M2224.882812 1693.007812 2393.28125 1770.625"/><path d="M2393.28125 1770.625h0"/><path d="M2217.890625 1980.390625l182.382813-33.515625"/><path d="M2400.273438 1946.875h0"/><path d="M2232.65625 2247.929688l152.890625-104.960938"/><path d="M2385.546875 2142.96875h0"/><path d="M2231.71875 2478.359375l154.765625-102.1875"/><path d="M2386.484375 2376.171875h0"/><path d="M2217.070312 2670.546875l184.023438-22.929687"/><path d="M2401.09375 2647.617188h0"/><path d="M2526.171875 352.382812l184.023437-22.929687"/><path d="M2710.195312 329.453125h0"/><path d="M2540.78125 623.789062l154.804688-102.148437"/><path d="M2695.585938 521.640625h0"/><path d="M2541.757812 857.03125l152.851563-104.960938"/><path d="M2694.609375 752.070312h0"/><path d="M2526.992188 1053.125l182.382812-33.515625"/><path d="M2709.375 1019.609375h0"/><path d="M2533.984375 1229.375l168.398437 77.617188"/><path d="M2702.382812 1306.992188h0"/><path d="M2543.984375 1444.375l148.359375 111.25"/><path d="M2692.34375 1555.625h0"/><path d="M2533.984375 1693.007812l168.398437 77.617188"/><path d="M2702.382812 1770.625h0"/><path d="M2526.992188 1980.390625 2709.375 1946.875"/><path d="M2709.375 1946.875h0"/><path d="M2541.757812 2247.929688l152.851563-104.960938"/><path d="M2694.609375 2142.96875h0"/><path d="M2540.78125 2478.359375l154.804688-102.1875"/><path d="M2695.585938 2376.171875h0"/><path d="M2526.171875 2670.546875l184.023437-22.929687"/><path d="M2710.195312 2647.617188h0"/><path d="M2835.273438 352.382812l184.023437-22.929687"/><path d="M3019.296875 329.453125h0"/><path d="M2849.882812 623.789062l154.765626-102.148437"/><path d="M3004.648438 521.640625h0"/><path d="M2850.820312 857.03125l152.890626-104.960938"/><path d="M3003.710938 752.070312h0"/><path d="M2836.054688 1053.125l182.421874-33.515625"/><path d="M3018.476562 1019.609375h0"/><path d="M2843.046875 1229.375l168.4375 77.617188"/><path d="M3011.484375 1306.992188h0"/><path d="M2853.085938 1444.375l148.359374 111.25"/><path d="M3001.445312 1555.625h0"/><path d="M2843.046875 1693.007812l168.4375 77.617188"/><path d="M3011.484375 1770.625h0"/><path d="M2836.054688 1980.390625l182.421874-33.515625"/><path d="M3018.476562 1946.875h0"/><path d="M2850.820312 2247.929688l152.890626-104.960938"/><path d="M3003.710938 2142.96875h0"/><path d="M2849.882812 2478.359375l154.765626-102.1875"/><path d="M3004.648438 2376.171875h0"/><path d="M2835.273438 2670.546875l184.023437-22.929687"/><path d="M3019.296875 2647.617188h0"/><path d="M3144.335938 352.382812l184.0625-22.929687"/><path d="M3328.398438 329.453125h0"/><path d="M3158.984375 623.789062 3313.75 521.640625"/><path d="M3313.75 521.640625h0"/><path d="M3159.921875 857.03125 3312.8125 752.070312"/><path d="M3312.8125 752.070312h0"/><path d="M3145.15625 1053.125l182.421875-33.515625"/><path d="M3327.578125 1019.609375h0"/><path d="M3152.148438 1229.375l168.4375 77.617188"/><path d="M3320.585938 1306.992188h0"/><path d="M3162.1875 1444.375l148.359375 111.25"/><path d="M3310.546875 1555.625h0"/><path d="M3152.148438 1693.007812l168.4375 77.617188"/><path d="M3320.585938 1770.625h0"/><path d="M3145.15625 1980.390625l182.421875-33.515625"/><path d="M3327.578125 1946.875h0"/><path d="M3159.921875 2247.929688 3312.8125 2142.96875"/><path d="M3312.8125 2142.96875h0"/><path d="M3158.984375 2478.359375l154.765625-102.1875"/><path d="M3313.75 2376.171875h0"/><path d="M3144.335938 2670.546875l184.0625-22.929687"/><path d="M3328.398438 2647.617188h0"/><path d="M3453.4375 352.382812l184.023438-22.929687"/><path d="M3637.460938 329.453125h0"/><path d="M3468.046875 623.789062l154.804687-102.148437"/><path d="M3622.851562 521.640625h0"/><path d="M3469.023438 857.03125l152.890624-104.960938"/><path d="M3621.914062 752.070312h0"/><path d="M3454.257812 1053.125l182.382813-33.515625"/><path d="M3636.640625 1019.609375h0"/><path d="M3461.25 1229.375l168.4375 77.617188"/><path d="M3629.6875 1306.992188h0"/><path d="M3471.289062 1444.375l148.359376 111.25"/><path d="M3619.648438 1555.625h0"/><path d="M3461.25 1693.007812l168.4375 77.617188"/><path d="M3629.6875 1770.625h0"/><path d="M3454.257812 1980.390625l182.382813-33.515625"/><path d="M3636.640625 1946.875h0"/><path d="M3469.023438 2247.929688l152.890624-104.960938"/><path d="M3621.914062 2142.96875h0"/><path d="M3468.046875 2478.359375l154.804687-102.1875"/><path d="M3622.851562 2376.171875h0"/><path d="M3453.4375 2670.546875l184.023438-22.929687"/><path d="M3637.460938 2647.617188h0"/></g></g><style>.a{fill:none;stroke:#bfbfbf;stroke-dasharray:12.5,18.75;stroke-linecap:round;stroke-miterlimit:10;stroke-width:6.25;transform:matrix(.1,0,0,-.1,-29,279)}.b{stroke-linecap:square;stroke-width:12.5}.c{stroke-width:6.25}.d{fill:none;stroke:#bfbfbf;stroke-linecap:round;stroke-miterlimit:10;stroke-width:6.25;transform:matrix(.1,0,0,-.1,-29,279)}</style></svg>