<svg xmlns="http://www.w3.org/2000/svg" width="342pt" height="258pt" viewBox="0 0 342 258"><defs><clipPath id="a"><path d="M170 1.5h2v255h-2zm0 0"/></clipPath><clipPath id="b"><path d="M1 128h340v2H1zm0 0"/></clipPath><clipPath id="c"><path d="M1 1.5h1v255H1zm0 0"/></clipPath><clipPath id="d"><path d="M85 1.5h2v255h-2zm0 0"/></clipPath><clipPath id="e"><path d="M170 1.5h2v255h-2zm0 0"/></clipPath><clipPath id="f"><path d="M255 1.5h2v255h-2zm0 0"/></clipPath><clipPath id="g"><path d="M340 1.5h1v255h-1zm0 0"/></clipPath><clipPath id="h"><path d="M1 256h340v.5H1zm0 0"/></clipPath><clipPath id="i"><path d="M1 192h340v2H1zm0 0"/></clipPath><clipPath id="j"><path d="M1 128h340v2H1zm0 0"/></clipPath><clipPath id="k"><path d="M1 64h340v2H1zm0 0"/></clipPath><clipPath id="l"><path d="M1 1.5h340V2H1zm0 0"/></clipPath></defs><path fill="#fff" d="M1 256.5h340V1.5H1zm0 0"/><g clip-path="url(#a)"><path d="M2000 225v2550" class="d"/></g><g clip-path="url(#b)"><path d="M300 1500h3400" class="d"/></g><g clip-path="url(#c)"><path d="M300 225v2550" class="a"/></g><g clip-path="url(#d)"><path d="M1150 225v2550" class="a"/></g><g clip-path="url(#e)"><path d="M2000 225v2550" class="a"/></g><g clip-path="url(#f)"><path d="M2850 225v2550" class="a"/></g><g clip-path="url(#g)"><path d="M3700 225v2550" class="a"/></g><g clip-path="url(#h)"><path d="M300 225h3400" class="a"/></g><g clip-path="url(#i)"><path d="M300 862.5h3400" class="a"/></g><g clip-path="url(#j)"><path d="M300 1500h3400" class="a"/></g><g clip-path="url(#k)"><path d="M300 2137.5h3400" class="a"/></g><g clip-path="url(#l)"><path d="M300 2775h3400" class="a"/></g><g fill="none" stroke-miterlimit="10" transform="matrix(.1 0 0 -.1 -29 279)"><g stroke="#000"><path d="M300 225h3400" class="b"/><g class="c"><path d="M300 225v50"/><path d="M385 225v25"/><path d="M470 225v25"/><path d="M555 225v25"/><path d="M640 225v25"/><path d="M725 225v25"/><path d="M810 225v25"/><path d="M895 225v25"/><path d="M980 225v25"/><path d="M1065 225v25"/><path d="M1150 225v50"/><path d="M1235 225v25"/><path d="M1320 225v25"/><path d="M1405 225v25"/><path d="M1490 225v25"/><path d="M1575 225v25"/><path d="M1660 225v25"/><path d="M1745 225v25"/><path d="M1830 225v25"/><path d="M1915 225v25"/><path d="M2000 225v50"/><path d="M2085 225v25"/><path d="M2170 225v25"/><path d="M2255 225v25"/><path d="M2340 225v25"/><path d="M2425 225v25"/><path d="M2510 225v25"/><path d="M2595 225v25"/><path d="M2680 225v25"/><path d="M2765 225v25"/><path d="M2850 225v50"/><path d="M2935 225v25"/><path d="M3020 225v25"/><path d="M3105 225v25"/><path d="M3190 225v25"/><path d="M3275 225v25"/><path d="M3360 225v25"/><path d="M3445 225v25"/><path d="M3530 225v25"/><path d="M3615 225v25"/><path d="M3700 225v50"/></g><path d="M300 2775h3400" class="b"/><g class="c"><path d="M300 2775v-50"/><path d="M385 2775v-25"/><path d="M470 2775v-25"/><path d="M555 2775v-25"/><path d="M640 2775v-25"/><path d="M725 2775v-25"/><path d="M810 2775v-25"/><path d="M895 2775v-25"/><path d="M980 2775v-25"/><path d="M1065 2775v-25"/><path d="M1150 2775v-50"/><path d="M1235 2775v-25"/><path d="M1320 2775v-25"/><path d="M1405 2775v-25"/><path d="M1490 2775v-25"/><path d="M1575 2775v-25"/><path d="M1660 2775v-25"/><path d="M1745 2775v-25"/><path d="M1830 2775v-25"/><path d="M1915 2775v-25"/><path d="M2000 2775v-50"/><path d="M2085 2775v-25"/><path d="M2170 2775v-25"/><path d="M2255 2775v-25"/><path d="M2340 2775v-25"/><path d="M2425 2775v-25"/><path d="M2510 2775v-25"/><path d="M2595 2775v-25"/><path d="M2680 2775v-25"/><path d="M2765 2775v-25"/><path d="M2850 2775v-50"/><path d="M2935 2775v-25"/><path d="M3020 2775v-25"/><path d="M3105 2775v-25"/><path d="M3190 2775v-25"/><path d="M3275 2775v-25"/><path d="M3360 2775v-25"/><path d="M3445 2775v-25"/><path d="M3530 2775v-25"/><path d="M3615 2775v-25"/><path d="M3700 2775v-50"/></g><path d="M300 225v2550" class="b"/><g class="c"><path d="M300 225h50"/><path d="M300 288.75h25"/><path d="M300 352.5h25"/><path d="M300 416.25h25"/><path d="M300 480h25"/><path d="M300 543.75h25"/><path d="M300 607.5h25"/><path d="M300 671.25h25"/><path d="M300 735h25"/><path d="M300 798.75h25"/><path d="M300 862.5h50"/><path d="M300 926.25h25"/><path d="M300 990h25"/><path d="M300 1053.75h25"/><path d="M300 1117.5h25"/><path d="M300 1181.25h25"/><path d="M300 1245h25"/><path d="M300 1308.75h25"/><path d="M300 1372.5h25"/><path d="M300 1436.25h25"/><path d="M300 1500h50"/><path d="M300 1563.75h25"/><path d="M300 1627.5h25"/><path d="M300 1691.25h25"/><path d="M300 1755h25"/><path d="M300 1818.75h25"/><path d="M300 1882.5h25"/><path d="M300 1946.25h25"/><path d="M300 2010h25"/><path d="M300 2073.75h25"/><path d="M300 2137.5h50"/><path d="M300 2201.25h25"/><path d="M300 2265h25"/><path d="M300 2328.75h25"/><path d="M300 2392.5h25"/><path d="M300 2456.25h25"/><path d="M300 2520h25"/><path d="M300 2583.75h25"/><path d="M300 2647.5h25"/><path d="M300 2711.25h25"/><path d="M300 2775h50"/></g><path d="M3700 225v2550" class="b"/><g class="c"><path d="M3700 225h-50"/><path d="M3700 288.75h-25"/><path d="M3700 352.5h-25"/><path d="M3700 416.25h-25"/><path d="M3700 480h-25"/><path d="M3700 543.75h-25"/><path d="M3700 607.5h-25"/><path d="M3700 671.25h-25"/><path d="M3700 735h-25"/><path d="M3700 798.75h-25"/><path d="M3700 862.5h-50"/><path d="M3700 926.25h-25"/><path d="M3700 990h-25"/><path d="M3700 1053.75h-25"/><path d="M3700 1117.5h-25"/><path d="M3700 1181.25h-25"/><path d="M3700 1245h-25"/><path d="M3700 1308.75h-25"/><path d="M3700 1372.5h-25"/><path d="M3700 1436.25h-25"/><path d="M3700 1500h-50"/><path d="M3700 1563.75h-25"/><path d="M3700 1627.5h-25"/><path d="M3700 1691.25h-25"/><path d="M3700 1755h-25"/><path d="M3700 1818.75h-25"/><path d="M3700 1882.5h-25"/><path d="M3700 1946.25h-25"/><path d="M3700 2010h-25"/><path d="M3700 2073.75h-25"/><path d="M3700 2137.5h-50"/><path d="M3700 2201.25h-25"/><path d="M3700 2265h-25"/><path d="M3700 2328.75h-25"/><path d="M3700 2392.5h-25"/><path d="M3700 2456.25h-25"/><path d="M3700 2520h-25"/><path d="M3700 2583.75h-25"/><path d="M3700 2647.5h-25"/><path d="M3700 2711.25h-25"/><path d="M3700 2775h-50"/></g></g><g stroke-width="12.5" stroke-linecap="round" stroke="#00f"><path d="M428.4375 251.914062l52.226562 177.96875"/><path d="M480.664062 429.882812h0"/><path d="M413.828125 489.414062l81.445313 166.601563"/><path d="M495.273438 656.015625h0"/><path d="M377.929688 752.304688l153.242187 104.492187"/><path d="M531.171875 856.796875h0"/><path d="M377.929688 1088.59375l153.242187-104.453125"/><path d="M531.171875 984.140625h0"/><path d="M413.828125 1351.484375l81.445313-166.601563"/><path d="M495.273438 1184.882812h0"/><path d="M428.4375 1588.984375l52.226562-177.96875"/><path d="M480.664062 1411.015625h0"/><path d="M435.546875 1822.578125l38.007813-181.523437"/><path d="M473.554688 1641.054688h0"/><path d="M439.648438 2055.15625l29.804687-183.046875"/><path d="M469.453125 1872.109375h0"/><path d="M442.304688 2287.382812l24.492187-183.828124"/><path d="M466.796875 2103.554688h0"/><path d="M444.140625 2519.414062l20.78125-184.296874"/><path d="M464.921875 2335.117188h0"/><path d="M445.507812 2751.367188l18.046876-184.570313"/><path d="M463.554688 2566.796875h0"/><path d="M741.601562 250.820312l44.0625 180.15625"/><path d="M785.664062 430.976562h0"/><path d="M731.71875 485.664062l63.828125 174.140626"/><path d="M795.546875 659.804688h0"/><path d="M708.789062 729.765625l109.6875 149.570313"/><path d="M818.476562 879.335938h0"/><path d="M670.898438 1036.367188h185.46875"/><path d="M856.367188 1036.367188h0"/><path d="M708.789062 1342.96875l109.6875-149.570312"/><path d="M818.476562 1193.398438h0"/><path d="M731.71875 1587.070312l63.828125-174.140624"/><path d="M795.546875 1412.929688h0"/><path d="M741.601562 1821.875l44.0625-180.117188"/><path d="M785.664062 1641.757812h0"/><path d="M746.914062 2054.84375l33.4375-182.421875"/><path d="M780.351562 1872.421875h0"/><path d="M750.195312 2287.1875l26.914063-183.476562"/><path d="M777.109375 2103.710938h0"/><path d="M752.382812 2519.335938l22.5-184.101563"/><path d="M774.882812 2335.234375h0"/><path d="M753.984375 2751.328125 773.320312 2566.875"/><path d="M773.320312 2566.875h0"/><path d="M1053.710938 250.15625l38.046874 181.523438"/><path d="M1091.757812 431.679688h0"/><path d="M1046.601562 483.75l52.226563 177.96875"/><path d="M1098.828125 661.71875h0"/><path d="M1031.992188 721.25l81.484374 166.601562"/><path d="M1113.476562 887.851562h0"/><path d="M996.09375 984.140625l153.242188 104.453125"/><path d="M1149.335938 1088.59375h0"/><path d="M996.09375 1320.429688l153.242188-104.492188"/><path d="M1149.335938 1215.9375h0"/><path d="M1031.992188 1583.28125l81.484374-166.5625"/><path d="M1113.476562 1416.71875h0"/><path d="M1046.601562 1820.78125l52.226563-177.929688"/><path d="M1098.828125 1642.851562h0"/><path d="M1053.710938 2054.375l38.046874-181.484375"/><path d="M1091.757812 1872.890625h0"/><path d="M1057.8125 2286.992188l29.84375-183.046876"/><path d="M1087.65625 2103.945312h0"/><path d="M1060.46875 2519.179688l24.492188-183.828126"/><path d="M1084.960938 2335.351562h0"/><path d="M1062.34375 2751.210938l20.78125-184.257813"/><path d="M1083.125 2566.953125h0"/><path d="M1365.078125 249.6875l33.476563 182.421875"/><path d="M1398.554688 432.109375h0"/><path d="M1359.804688 482.65625l44.023437 180.15625"/><path d="M1403.828125 662.8125h0"/><path d="M1349.882812 717.5 1413.75 891.601562"/><path d="M1413.75 891.601562h0"/><path d="M1326.992188 961.601562l109.648437 149.53125"/><path d="M1436.640625 1111.132812h0"/><path d="M1289.101562 1268.164062h185.429688"/><path d="M1474.53125 1268.164062h0"/><path d="M1326.992188 1574.765625l109.648437-149.53125"/><path d="M1436.640625 1425.234375h0"/><path d="M1349.882812 1818.867188 1413.75 1644.765625"/><path d="M1413.75 1644.765625h0"/><path d="M1359.804688 2053.710938l44.023437-180.15625"/><path d="M1403.828125 1873.554688h0"/><path d="M1365.078125 2286.640625l33.476563-182.382813"/><path d="M1398.554688 2104.257812h0"/><path d="M1368.359375 2519.023438l26.914063-183.515626"/><path d="M1395.273438 2335.507812h0"/><path d="M1370.585938 2751.132812l22.5-184.101562"/><path d="M1393.085938 2567.03125h0"/><path d="M1675.976562 249.375l29.84375 183.046875"/><path d="M1705.820312 432.421875h0"/><path d="M1671.875 481.953125l38.046875 181.523437"/><path d="M1709.921875 663.476562h0"/><path d="M1664.804688 715.585938l52.1875 177.929687"/><path d="M1716.992188 893.515625h0"/><path d="M1650.195312 953.046875l81.445313 166.640625"/><path d="M1731.640625 1119.6875h0"/><path d="M1614.296875 1215.9375l153.242187 104.492188"/><path d="M1767.539062 1320.429688h0"/><path d="M1614.296875 1552.226562l153.242187-104.453124"/><path d="M1767.539062 1447.773438h0"/><path d="M1650.195312 1815.117188l81.445313-166.601563"/><path d="M1731.640625 1648.515625h0"/><path d="M1664.804688 2052.617188l52.1875-177.96875"/><path d="M1716.992188 1874.648438h0"/><path d="M1671.875 2286.210938l38.046875-181.523438"/><path d="M1709.921875 2104.6875h0"/><path d="M1675.976562 2518.789062l29.84375-183.046874"/><path d="M1705.820312 2335.742188h0"/><path d="M1678.671875 2751.015625l24.492187-183.828125"/><path d="M1703.164062 2567.1875h0"/><path d="M1986.523438 249.179688l26.953124 183.476562"/><path d="M2013.476562 432.65625h0"/><path d="M1983.28125 481.523438l33.4375 182.421874"/><path d="M2016.71875 663.945312h0"/><path d="M1977.96875 714.453125l44.0625 180.15625"/><path d="M2022.03125 894.609375h0"/><path d="M1968.085938 949.296875l63.828124 174.140625"/><path d="M2031.914062 1123.4375h0"/><path d="M1945.15625 1193.398438l109.6875 149.570312"/><path d="M2054.84375 1342.96875h0"/><path d="M1907.265625 1500h185.46875"/><path d="M2092.734375 1500h0"/><path d="M1945.15625 1806.601562l109.6875-149.570312"/><path d="M2054.84375 1657.03125h0"/><path d="M1968.085938 2050.703125l63.828124-174.140625"/><path d="M2031.914062 1876.5625h0"/><path d="M1977.96875 2285.546875l44.0625-180.15625"/><path d="M2022.03125 2105.390625h0"/><path d="M1983.28125 2518.476562l33.4375-182.421874"/><path d="M2016.71875 2336.054688h0"/><path d="M1986.523438 2750.859375l26.953124-183.515625"/><path d="M2013.476562 2567.34375h0"/><path d="M2296.835938 248.984375l24.492187 183.828125"/><path d="M2321.328125 432.8125h0"/><path d="M2294.179688 481.210938l29.84375 183.046874"/><path d="M2324.023438 664.257812h0"/><path d="M2290.078125 713.789062 2328.125 895.3125"/><path d="M2328.125 895.3125h0"/><path d="M2283.007812 947.382812l52.1875 177.96875"/><path d="M2335.195312 1125.351562h0"/><path d="M2268.359375 1184.882812l81.445313 166.601563"/><path d="M2349.804688 1351.484375h0"/><path d="M2232.460938 1447.773438l153.242187 104.453124"/><path d="M2385.703125 1552.226562h0"/><path d="M2232.460938 1784.0625l153.242187-104.492188"/><path d="M2385.703125 1679.570312h0"/><path d="M2268.359375 2046.953125l81.445313-166.640625"/><path d="M2349.804688 1880.3125h0"/><path d="M2283.007812 2284.414062l52.1875-177.929687"/><path d="M2335.195312 2106.484375h0"/><path d="M2290.078125 2518.046875l38.046875-181.523437"/><path d="M2328.125 2336.523438h0"/><path d="M2294.179688 2750.625l29.84375-183.046875"/><path d="M2324.023438 2567.578125h0"/><path d="M2606.914062 248.867188l22.5 184.0625"/><path d="M2629.414062 432.929688h0"/><path d="M2604.726562 480.976562l26.914063 183.515626"/><path d="M2631.640625 664.492188h0"/><path d="M2601.445312 713.320312l33.476563 182.421876"/><path d="M2634.921875 895.742188h0"/><path d="M2596.171875 946.289062l44.023437 180.15625"/><path d="M2640.195312 1126.445312h0"/><path d="M2586.25 1181.132812l63.867188 174.101563"/><path d="M2650.117188 1355.234375h0"/><path d="M2563.359375 1425.234375l109.648437 149.53125"/><path d="M2673.007812 1574.765625h0"/><path d="M2525.46875 1731.835938h185.429688"/><path d="M2710.898438 1731.835938h0"/><path d="M2563.359375 2038.398438l109.648437-149.53125"/><path d="M2673.007812 1888.867188h0"/><path d="M2586.25 2282.5l63.867188-174.101562"/><path d="M2650.117188 2108.398438h0"/><path d="M2596.171875 2517.34375l44.023437-180.15625"/><path d="M2640.195312 2337.1875h0"/><path d="M2601.445312 2750.3125l33.476563-182.421875"/><path d="M2634.921875 2567.890625h0"/><path d="M2916.875 248.789062l20.78125 184.257813"/><path d="M2937.65625 433.046875h0"/><path d="M2915.039062 480.820312l24.492188 183.828126"/><path d="M2939.53125 664.648438h0"/><path d="M2912.34375 713.007812l29.84375 183.046876"/><path d="M2942.1875 896.054688h0"/><path d="M2908.242188 945.585938l38.046874 181.523437"/><path d="M2946.289062 1127.109375h0"/><path d="M2901.171875 1179.21875l52.226563 177.929688"/><path d="M2953.398438 1357.148438h0"/><path d="M2886.523438 1416.71875l81.484374 166.5625"/><path d="M2968.007812 1583.28125h0"/><path d="M2850.664062 1679.570312 3003.90625 1784.0625"/><path d="M3003.90625 1784.0625h0"/><path d="M2850.664062 2015.898438l153.242188-104.492188"/><path d="M3003.90625 1911.40625h0"/><path d="M2886.523438 2278.75l81.484374-166.601562"/><path d="M2968.007812 2112.148438h0"/><path d="M2901.171875 2516.25l52.226563-177.96875"/><path d="M2953.398438 2338.28125h0"/><path d="M2908.242188 2749.84375l38.046874-181.484375"/><path d="M2946.289062 2568.359375h0"/><path d="M3226.71875 248.671875 3246.015625 433.125"/><path d="M3246.015625 433.125h0"/><path d="M3225.117188 480.703125l22.5 184.0625"/><path d="M3247.617188 664.765625h0"/><path d="M3222.890625 712.8125l26.914063 183.476562"/><path d="M3249.804688 896.289062h0"/><path d="M3219.648438 945.15625l33.4375 182.421875"/><path d="M3253.085938 1127.578125h0"/><path d="M3214.335938 1178.125l44.0625 180.117188"/><path d="M3258.398438 1358.242188h0"/><path d="M3204.453125 1412.929688l63.828125 174.140624"/><path d="M3268.28125 1587.070312h0"/><path d="M3181.523438 1657.03125l109.6875 149.570312"/><path d="M3291.210938 1806.601562h0"/><path d="M3143.632812 1963.632812h185.46875"/><path d="M3329.101562 1963.632812h0"/><path d="M3181.523438 2270.234375l109.6875-149.570313"/><path d="M3291.210938 2120.664062h0"/><path d="M3204.453125 2514.335938l63.828125-174.140626"/><path d="M3268.28125 2340.195312h0"/><path d="M3214.335938 2749.179688l44.0625-180.15625"/><path d="M3258.398438 2569.023438h0"/><path d="M3536.445312 248.632812l18.046876 184.570313"/><path d="M3554.492188 433.203125h0"/><path d="M3535.039062 480.585938l20.820313 184.296874"/><path d="M3555.859375 664.882812h0"/><path d="M3533.203125 712.617188l24.492187 183.828124"/><path d="M3557.695312 896.445312h0"/><path d="M3530.546875 944.84375l29.804687 183.046875"/><path d="M3560.351562 1127.890625h0"/><path d="M3526.445312 1177.421875l38.007813 181.523437"/><path d="M3564.453125 1358.945312h0"/><path d="M3519.375 1411.015625l52.1875 177.96875"/><path d="M3571.5625 1588.984375h0"/><path d="M3504.726562 1648.515625l81.445313 166.601563"/><path d="M3586.171875 1815.117188h0"/><path d="M3468.828125 1911.40625l153.242187 104.492188"/><path d="M3622.070312 2015.898438h0"/><path d="M3468.828125 2247.695312l153.242187-104.492187"/><path d="M3622.070312 2143.203125h0"/><path d="M3504.726562 2510.585938l81.445313-166.601563"/><path d="M3586.171875 2343.984375h0"/><path d="M3519.375 2748.085938l52.1875-177.96875"/><path d="M3571.5625 2570.117188h0"/></g></g><style>.a{fill:none;stroke:#bfbfbf;stroke-dasharray:12.5,18.75;stroke-linecap:round;stroke-miterlimit:10;stroke-width:6.25;transform:matrix(.1,0,0,-.1,-29,279)}.b{stroke-linecap:square;stroke-width:12.5}.c{stroke-width:6.25}.d{fill:none;stroke:#bfbfbf;stroke-linecap:round;stroke-miterlimit:10;stroke-width:6.25;transform:matrix(.1,0,0,-.1,-29,279)}</style></svg>