<svg xmlns="http://www.w3.org/2000/svg" xmlns:xlink="http://www.w3.org/1999/xlink" width="382pt" height="274pt" viewBox="0 0 382 274"><defs><clipPath id="y"><path d="M21 98h340v2H21zm0 0"/></clipPath><clipPath id="t"><path d="M21 98h340v92H21zm0 0"/></clipPath><clipPath id="x"><path d="M21 223h340v2H21zm0 0"/></clipPath><clipPath id="w"><path d="M21 223h278v40.5H21zm0 0"/></clipPath><clipPath id="v"><path d="M21 129h340v96H21zm0 0"/></clipPath><clipPath id="u"><path d="M21 99h340v126H21zm0 0"/></clipPath><clipPath id="a"><path d="M21 8.5h1v255h-1zm0 0"/></clipPath><clipPath id="b"><path d="M21 263h340v.5H21zm0 0"/></clipPath><clipPath id="c"><path d="M21 8.5h1v255h-1zm0 0"/></clipPath><clipPath id="d"><path d="M105 8.5h2v255h-2zm0 0"/></clipPath><clipPath id="e"><path d="M190 8.5h2v255h-2zm0 0"/></clipPath><clipPath id="f"><path d="M275 8.5h2v255h-2zm0 0"/></clipPath><clipPath id="g"><path d="M360 8.5h1v255h-1zm0 0"/></clipPath><clipPath id="h"><path d="M21 263h340v.5H21zm0 0"/></clipPath><clipPath id="i"><path d="M21 199h340v2H21zm0 0"/></clipPath><clipPath id="j"><path d="M21 135h340v2H21zm0 0"/></clipPath><clipPath id="k"><path d="M21 71h340v2H21zm0 0"/></clipPath><clipPath id="l"><path d="M21 8.5h340V9H21zm0 0"/></clipPath><clipPath id="s"><path d="M49 8.5h312V100H49zm0 0"/></clipPath><symbol overflow="visible" id="n"><path d="M3.563-5.313H.828L.422-2.421h.61c.312-.375.562-.5.984-.5.703 0 1.156.485 1.156 1.281 0 .766-.438 1.235-1.156 1.235-.579 0-.938-.297-1.094-.906H.266c.093.437.156.656.312.843.313.406.844.64 1.453.64 1.063 0 1.813-.78 1.813-1.905 0-1.047-.688-1.766-1.719-1.766-.375 0-.672.094-.984.313l.218-1.485h2.204zm0 0"/></symbol><symbol overflow="visible" id="r"><path d="M3.906-5.313H.344v.641h2.875C1.953-2.859 1.438-1.75 1.03 0h.703c.297-1.703.97-3.172 2.172-4.766zm0 0"/></symbol><symbol overflow="visible" id="q"><path d="M1.438-.781H.655V0h.781zm0 0"/></symbol><symbol overflow="visible" id="p"><path d="M3.797-.656H1c.063-.438.313-.703.953-1.094l.75-.406c.75-.406 1.125-.953 1.125-1.594 0-.453-.172-.86-.484-1.14-.328-.298-.719-.423-1.219-.423-.672 0-1.172.235-1.469.688-.187.281-.265.61-.281 1.156h.656c.032-.36.078-.578.157-.75.171-.328.515-.515.921-.515.594 0 1.047.421 1.047.984 0 .422-.25.781-.719 1.063l-.687.39C.64-1.672.312-1.172.25 0h3.547zm0 0"/></symbol><symbol overflow="visible" id="o"><path d="M1.938-3.781V0h.671v-5.313h-.437c-.235.813-.39.922-1.406 1.047v.485zm0 0"/></symbol><symbol overflow="visible" id="m"><path d="M2.063-5.313c-.5 0-.938.22-1.22.579C.5-4.266.329-3.563.329-2.578c0 1.797.594 2.75 1.734 2.75 1.126 0 1.735-.953 1.735-2.703 0-1.031-.156-1.719-.516-2.203-.281-.375-.719-.579-1.219-.579zm0 .579c.718 0 1.062.718 1.062 2.14 0 1.516-.344 2.219-1.078 2.219C1.344-.375 1-1.109 1-2.563c0-1.453.344-2.171 1.063-2.171zm0 0"/></symbol></defs><path d="M21 263.5h340V8.5H21zm0 0" fill="#fff"/><g clip-path="url(#a)"><path d="M21 263.5V8.5" fill="none" stroke-width=".625" stroke-linecap="round" stroke="#bfbfbf" stroke-miterlimit="10"/></g><g clip-path="url(#b)"><path d="M21 263.5h340" fill="none" stroke-width=".625" stroke-linecap="round" stroke="#bfbfbf" stroke-miterlimit="10"/></g><g clip-path="url(#c)"><path d="M21 263.5V8.5" fill="none" stroke-width=".625" stroke-linecap="round" stroke="#bfbfbf" stroke-dasharray="12.5,18.75" stroke-miterlimit="10"/></g><g clip-path="url(#d)"><path d="M106 263.5V8.5" fill="none" stroke-width=".625" stroke-linecap="round" stroke="#bfbfbf" stroke-dasharray="12.5,18.75" stroke-miterlimit="10"/></g><g clip-path="url(#e)"><path d="M191 263.5V8.5" fill="none" stroke-width=".625" stroke-linecap="round" stroke="#bfbfbf" stroke-dasharray="12.5,18.75" stroke-miterlimit="10"/></g><g clip-path="url(#f)"><path d="M276 263.5V8.5" fill="none" stroke-width=".625" stroke-linecap="round" stroke="#bfbfbf" stroke-dasharray="12.5,18.75" stroke-miterlimit="10"/></g><g clip-path="url(#g)"><path d="M361 263.5V8.5" fill="none" stroke-width=".625" stroke-linecap="round" stroke="#bfbfbf" stroke-dasharray="12.5,18.75" stroke-miterlimit="10"/></g><g clip-path="url(#h)"><path d="M21 263.5h340" fill="none" stroke-width=".625" stroke-linecap="round" stroke="#bfbfbf" stroke-dasharray="12.5,18.75" stroke-miterlimit="10"/></g><g clip-path="url(#i)"><path d="M21 199.75h340" fill="none" stroke-width=".625" stroke-linecap="round" stroke="#bfbfbf" stroke-dasharray="12.5,18.75" stroke-miterlimit="10"/></g><g clip-path="url(#j)"><path d="M21 136h340" fill="none" stroke-width=".625" stroke-linecap="round" stroke="#bfbfbf" stroke-dasharray="12.5,18.75" stroke-miterlimit="10"/></g><g clip-path="url(#k)"><path d="M21 72.25h340" fill="none" stroke-width=".625" stroke-linecap="round" stroke="#bfbfbf" stroke-dasharray="12.5,18.75" stroke-miterlimit="10"/></g><g clip-path="url(#l)"><path d="M21 8.5h340" fill="none" stroke-width=".625" stroke-linecap="round" stroke="#bfbfbf" stroke-dasharray="12.5,18.75" stroke-miterlimit="10"/></g><path d="M21 263.5h340" fill="none" stroke-width="1.25" stroke-linecap="square" stroke="#000" stroke-miterlimit="10"/><path d="M21 263.5v-5m8.5 5V261m8.5 2.5V261m8.5 2.5V261m8.5 2.5V261m8.5 2.5V261m8.5 2.5V261m8.5 2.5V261m8.5 2.5V261m8.5 2.5V261m8.5 2.5v-5m8.5 5V261m8.5 2.5V261m8.5 2.5V261m8.5 2.5V261m8.5 2.5V261m8.5 2.5V261m8.5 2.5V261m8.5 2.5V261m8.5 2.5V261m8.5 2.5v-5m8.5 5V261m8.5 2.5V261m8.5 2.5V261m8.5 2.5V261m8.5 2.5V261m8.5 2.5V261m8.5 2.5V261m8.5 2.5V261m8.5 2.5V261m8.5 2.5v-5m8.5 5V261m8.5 2.5V261m8.5 2.5V261m8.5 2.5V261m8.5 2.5V261m8.5 2.5V261m8.5 2.5V261m8.5 2.5V261m8.5 2.5V261m8.5 2.5v-5" fill="none" stroke-width=".625" stroke="#000" stroke-miterlimit="10"/><use xlink:href="#m" x="18.29" y="273.5"/><use xlink:href="#n" x="103.29" y="273.5"/><use xlink:href="#o" x="186.829" y="273.5"/><use xlink:href="#m" x="190.999" y="273.5"/><use xlink:href="#o" x="271.829" y="273.5"/><use xlink:href="#n" x="275.999" y="273.5"/><use xlink:href="#p" x="356.829" y="273.5"/><use xlink:href="#m" x="360.999" y="273.5"/><path d="M21 8.5h340" fill="none" stroke-width="1.25" stroke-linecap="square" stroke="#000" stroke-miterlimit="10"/><path d="M21 8.5v5m8.5-5V11M38 8.5V11m8.5-2.5V11M55 8.5V11m8.5-2.5V11M72 8.5V11m8.5-2.5V11M89 8.5V11m8.5-2.5V11m8.5-2.5v5m8.5-5V11m8.5-2.5V11m8.5-2.5V11m8.5-2.5V11m8.5-2.5V11m8.5-2.5V11m8.5-2.5V11m8.5-2.5V11m8.5-2.5V11m8.5-2.5v5m8.5-5V11m8.5-2.5V11m8.5-2.5V11m8.5-2.5V11m8.5-2.5V11m8.5-2.5V11m8.5-2.5V11m8.5-2.5V11m8.5-2.5V11m8.5-2.5v5m8.5-5V11m8.5-2.5V11m8.5-2.5V11m8.5-2.5V11m8.5-2.5V11m8.5-2.5V11m8.5-2.5V11m8.5-2.5V11m8.5-2.5V11m8.5-2.5v5" fill="none" stroke-width=".625" stroke="#000" stroke-miterlimit="10"/><use xlink:href="#m" x="18.29" y="5.375"/><use xlink:href="#n" x="103.29" y="5.375"/><use xlink:href="#o" x="186.829" y="5.375"/><use xlink:href="#m" x="190.999" y="5.375"/><use xlink:href="#o" x="271.829" y="5.375"/><use xlink:href="#n" x="275.999" y="5.375"/><use xlink:href="#p" x="356.829" y="5.375"/><use xlink:href="#m" x="360.999" y="5.375"/><path d="M21 263.5V8.5" fill="none" stroke-width="1.25" stroke-linecap="square" stroke="#000" stroke-miterlimit="10"/><path d="M21 263.5h5m-5-6.375h2.5M21 250.75h2.5m-2.5-6.375h2.5M21 238h2.5m-2.5-6.375h2.5M21 225.25h2.5m-2.5-6.375h2.5M21 212.5h2.5m-2.5-6.375h2.5M21 199.75h5m-5-6.375h2.5M21 187h2.5m-2.5-6.375h2.5M21 174.25h2.5m-2.5-6.375h2.5M21 161.5h2.5m-2.5-6.375h2.5M21 148.75h2.5m-2.5-6.375h2.5M21 136h5m-5-6.375h2.5M21 123.25h2.5m-2.5-6.375h2.5M21 110.5h2.5m-2.5-6.375h2.5M21 97.75h2.5M21 91.375h2.5M21 85h2.5M21 78.625h2.5M21 72.25h5m-5-6.375h2.5M21 59.5h2.5M21 53.125h2.5M21 46.75h2.5M21 40.375h2.5M21 34h2.5M21 27.625h2.5M21 21.25h2.5M21 14.875h2.5M21 8.5h5" fill="none" stroke-width=".625" stroke="#000" stroke-miterlimit="10"/><use xlink:href="#m" x="3.7" y="267.25"/><use xlink:href="#q" x="7.87" y="267.25"/><use xlink:href="#m" x="9.955" y="267.25"/><use xlink:href="#p" x="3.7" y="202.875"/><use xlink:href="#q" x="7.87" y="202.875"/><use xlink:href="#n" x="9.955" y="202.875"/><use xlink:href="#n" x="3.7" y="139.125"/><use xlink:href="#q" x="7.87" y="139.125"/><use xlink:href="#m" x="9.955" y="139.125"/><use xlink:href="#r" x="3.7" y="75.375"/><use xlink:href="#q" x="7.87" y="75.375"/><use xlink:href="#n" x="9.955" y="75.375"/><use xlink:href="#o" x="-.47" y="11.625"/><use xlink:href="#m" x="3.7" y="11.625"/><use xlink:href="#q" x="7.87" y="11.625"/><use xlink:href="#m" x="9.955" y="11.625"/><path d="M361 263.5V8.5" fill="none" stroke-width="1.25" stroke-linecap="square" stroke="#000" stroke-miterlimit="10"/><path d="M361 263.5h-5m5-6.375h-2.5m2.5-6.375h-2.5m2.5-6.375h-2.5M361 238h-2.5m2.5-6.375h-2.5m2.5-6.375h-2.5m2.5-6.375h-2.5m2.5-6.375h-2.5m2.5-6.375h-2.5m2.5-6.375h-5m5-6.375h-2.5M361 187h-2.5m2.5-6.375h-2.5m2.5-6.375h-2.5m2.5-6.375h-2.5m2.5-6.375h-2.5m2.5-6.375h-2.5m2.5-6.375h-2.5m2.5-6.375h-2.5M361 136h-5m5-6.375h-2.5m2.5-6.375h-2.5m2.5-6.375h-2.5m2.5-6.375h-2.5m2.5-6.375h-2.5m2.5-6.375h-2.5m2.5-6.375h-2.5M361 85h-2.5m2.5-6.375h-2.5m2.5-6.375h-5m5-6.375h-2.5M361 59.5h-2.5m2.5-6.375h-2.5m2.5-6.375h-2.5m2.5-6.375h-2.5M361 34h-2.5m2.5-6.375h-2.5m2.5-6.375h-2.5m2.5-6.375h-2.5M361 8.5h-5" fill="none" stroke-width=".625" stroke="#000" stroke-miterlimit="10"/><use xlink:href="#m" x="367.25" y="267.25"/><use xlink:href="#q" x="371.42" y="267.25"/><use xlink:href="#m" x="373.505" y="267.25"/><use xlink:href="#p" x="367.25" y="202.875"/><use xlink:href="#q" x="371.42" y="202.875"/><use xlink:href="#n" x="373.505" y="202.875"/><use xlink:href="#n" x="367.25" y="139.125"/><use xlink:href="#q" x="371.42" y="139.125"/><use xlink:href="#m" x="373.505" y="139.125"/><use xlink:href="#r" x="367.25" y="75.375"/><use xlink:href="#q" x="371.42" y="75.375"/><use xlink:href="#n" x="373.505" y="75.375"/><use xlink:href="#o" x="367.25" y="11.625"/><use xlink:href="#m" x="371.42" y="11.625"/><use xlink:href="#q" x="375.59" y="11.625"/><use xlink:href="#m" x="377.675" y="11.625"/><path d="M26.25 253.195l6.5 7.86m0 0h0m-7.457-19.559l8.414 5.758m0 0h0m-9.172-16.793l9.93 2.328m0 0h0m-10.016-13.203l10.102-1.422m0 0h0m-9.719-9.984l9.336-4.11m0 0h0m-8.914-7.87l8.492-5.65m0 0h0m-8.2-6.702l7.907-6.446m0 0h0m-7.762-6.136l7.618-6.782m0 0h0m-7.618-5.968l7.618-6.782m0 0h0m-7.762-6.136l7.906-6.446m0 0h0m-8.2-6.703l8.493-5.648m0 0h0m-8.914-7.871l9.336-4.11m0 0h0m-9.719-9.984l10.102-1.422m0 0h0M24.535 90.211l9.93 2.328m0 0h0m-9.172-16.793l8.414 5.758m0 0h0M26.25 61.945l6.5 7.86m0 0h0M27.031 48.66l4.938 8.93m0 0h0m-4.375-21.945l3.812 9.46m0 0h0m-3.414-22.351l3.016 9.742m0 0h0M28.28 9.922l2.438 9.906m0 0h0M43.25 253.195l6.5 7.86m0 0h0m-7.457-19.559l8.414 5.758m0 0h0m-9.172-16.793l9.93 2.328m0 0h0m-10.016-13.203l10.102-1.422m0 0h0m-9.719-9.984l9.336-4.11m0 0h0m-8.914-7.87l8.492-5.65m0 0h0m-8.2-6.702l7.907-6.446m0 0h0m-7.762-6.136l7.618-6.782m0 0h0m-7.618-5.968l7.618-6.782m0 0h0m-7.762-6.136l7.906-6.446m0 0h0m-8.2-6.703l8.493-5.648m0 0h0m-8.914-7.871l9.336-4.11m0 0h0m-9.719-9.984l10.102-1.422m0 0h0M41.535 90.211l9.93 2.328m0 0h0m-9.172-16.793l8.414 5.758m0 0h0M43.25 61.945l6.5 7.86m0 0h0M44.031 48.66l4.938 8.93m0 0h0m-4.375-21.945l3.812 9.46m0 0h0m-3.414-22.351l3.016 9.742m0 0h0M45.28 9.922l2.438 9.906m0 0h0M60.25 253.195l6.5 7.86m0 0h0m-7.457-19.559l8.414 5.758m0 0h0m-9.172-16.793l9.93 2.328m0 0h0m-10.016-13.203l10.102-1.422m0 0h0m-9.719-9.984l9.336-4.11m0 0h0m-8.914-7.87l8.492-5.65m0 0h0m-8.2-6.702l7.907-6.446m0 0h0m-7.762-6.136l7.618-6.782m0 0h0m-7.618-5.968l7.618-6.782m0 0h0m-7.762-6.136l7.906-6.446m0 0h0m-8.2-6.703l8.493-5.648m0 0h0m-8.914-7.871l9.336-4.11m0 0h0m-9.719-9.984l10.102-1.422m0 0h0M58.535 90.211l9.93 2.328m0 0h0m-9.172-16.793l8.414 5.758m0 0h0M60.25 61.945l6.5 7.86m0 0h0M61.031 48.66l4.938 8.93m0 0h0m-4.375-21.945l3.812 9.46m0 0h0m-3.414-22.351l3.016 9.742m0 0h0M62.28 9.922l2.438 9.906m0 0h0M77.25 253.195l6.5 7.86m0 0h0m-7.457-19.559l8.414 5.758m0 0h0m-9.172-16.793l9.93 2.328m0 0h0m-10.016-13.203l10.102-1.422m0 0h0m-9.719-9.984l9.336-4.11m0 0h0m-8.914-7.87l8.492-5.65m0 0h0m-8.2-6.702l7.907-6.446m0 0h0m-7.762-6.136l7.618-6.782m0 0h0m-7.618-5.968l7.618-6.782m0 0h0m-7.762-6.136l7.906-6.446m0 0h0m-8.2-6.703l8.493-5.648m0 0h0m-8.914-7.871l9.336-4.11m0 0h0m-9.719-9.984l10.102-1.422m0 0h0M75.535 90.211l9.93 2.328m0 0h0m-9.172-16.793l8.414 5.758m0 0h0M77.25 61.945l6.5 7.86m0 0h0M78.031 48.66l4.938 8.93m0 0h0m-4.375-21.945l3.812 9.46m0 0h0m-3.414-22.351l3.016 9.742m0 0h0M79.28 9.922l2.438 9.906m0 0h0M94.25 253.195l6.5 7.86m0 0h0m-7.457-19.559l8.418 5.758m0 0h0m-9.176-16.793l9.93 2.328m0 0h0m-10.016-13.203l10.102-1.422m0 0h0m-9.719-9.984l9.336-4.11m0 0h0m-8.914-7.87l8.492-5.65m0 0h0m-8.2-6.702l7.907-6.446m0 0h0m-7.762-6.136l7.618-6.782m0 0h0m-7.618-5.968l7.618-6.782m0 0h0m-7.762-6.136l7.906-6.446m0 0h0m-8.2-6.703l8.493-5.648m0 0h0m-8.914-7.871l9.336-4.11m0 0h0m-9.719-9.984l10.102-1.422m0 0h0M92.535 90.211l9.93 2.328m0 0h0m-9.172-16.793l8.418 5.758m0 0h0M94.25 61.945l6.5 7.86m0 0h0M95.031 48.66l4.938 8.93m0 0h0m-4.375-21.945l3.812 9.46m0 0h0m-3.414-22.351l3.016 9.742m0 0h0M96.28 9.922l2.438 9.906m0 0h0m12.531 233.367l6.5 7.86m0 0h0m-7.46-19.559l8.42 5.758m0 0h0m-9.175-16.793l9.93 2.328m0 0h0m-10.016-13.203l10.102-1.422m0 0h0m-9.719-9.984l9.336-4.11m0 0h0m-8.914-7.87l8.492-5.65m0 0h0m-8.2-6.702l7.907-6.446m0 0h0m-7.762-6.136l7.618-6.782m0 0h0m-7.618-5.968l7.618-6.782m0 0h0m-7.762-6.136l7.906-6.446m0 0h0m-8.2-6.703l8.493-5.648m0 0h0m-8.914-7.871l9.336-4.11m0 0h0m-9.719-9.984l10.102-1.422m0 0h0m-10.016-13.203l9.93 2.328m0 0h0m-9.176-16.793l8.422 5.758m0 0h0m-7.461-19.559l6.5 7.86m0 0h0M112.03 48.66l4.938 8.93m0 0h0m-4.371-21.945l3.804 9.46m0 0h0m-3.41-22.351l3.016 9.742m0 0h0M113.28 9.922l2.438 9.906m0 0h0m12.531 233.367l6.5 7.86m0 0h0m-7.46-19.559l8.42 5.758m0 0h0m-9.175-16.793l9.93 2.328m0 0h0m-10.016-13.203l10.102-1.422m0 0h0m-9.719-9.984l9.336-4.11m0 0h0m-8.914-7.87l8.492-5.65m0 0h0m-8.2-6.702l7.907-6.446m0 0h0m-7.762-6.136l7.618-6.782m0 0h0m-7.618-5.968l7.618-6.782m0 0h0m-7.762-6.136l7.906-6.446m0 0h0m-8.2-6.703l8.493-5.648m0 0h0m-8.914-7.871l9.336-4.11m0 0h0m-9.719-9.984l10.102-1.422m0 0h0m-10.016-13.203l9.93 2.328m0 0h0m-9.176-16.793l8.422 5.758m0 0h0m-7.461-19.559l6.5 7.86m0 0h0M129.03 48.66l4.938 8.93m0 0h0m-4.371-21.945l3.804 9.46m0 0h0m-3.41-22.351l3.016 9.742m0 0h0M130.28 9.922l2.438 9.906m0 0h0m12.531 233.367l6.5 7.86m0 0h0m-7.46-19.559l8.42 5.758m0 0h0m-9.175-16.793l9.93 2.328m0 0h0m-10.016-13.203l10.102-1.422m0 0h0m-9.719-9.984l9.336-4.11m0 0h0m-8.914-7.87l8.492-5.65m0 0h0m-8.2-6.702l7.907-6.446m0 0h0m-7.762-6.136l7.618-6.782m0 0h0m-7.618-5.968l7.618-6.782m0 0h0m-7.762-6.136l7.906-6.446m0 0h0m-8.2-6.703l8.493-5.648m0 0h0m-8.914-7.871l9.336-4.11m0 0h0m-9.719-9.984l10.102-1.422m0 0h0m-10.016-13.203l9.93 2.328m0 0h0m-9.176-16.793l8.422 5.758m0 0h0m-7.461-19.559l6.5 7.86m0 0h0M146.03 48.66l4.938 8.93m0 0h0m-4.371-21.945l3.804 9.46m0 0h0m-3.41-22.351l3.016 9.742m0 0h0M147.28 9.922l2.438 9.906m0 0h0m12.531 233.367l6.5 7.86m0 0h0m-7.46-19.559l8.42 5.758m0 0h0m-9.175-16.793l9.93 2.328m0 0h0m-10.016-13.203l10.102-1.422m0 0h0m-9.719-9.984l9.336-4.11m0 0h0m-8.914-7.87l8.492-5.65m0 0h0m-8.2-6.702l7.907-6.446m0 0h0m-7.762-6.136l7.618-6.782m0 0h0m-7.618-5.968l7.618-6.782m0 0h0m-7.762-6.136l7.906-6.446m0 0h0m-8.2-6.703l8.493-5.648m0 0h0m-8.914-7.871l9.336-4.11m0 0h0m-9.719-9.984l10.102-1.422m0 0h0m-10.016-13.203l9.93 2.328m0 0h0m-9.176-16.793l8.422 5.758m0 0h0m-7.461-19.559l6.5 7.86m0 0h0M163.03 48.66l4.938 8.93m0 0h0m-4.371-21.945l3.804 9.46m0 0h0m-3.41-22.351l3.016 9.742m0 0h0M164.28 9.922l2.438 9.906m0 0h0m12.531 233.367l6.5 7.86m0 0h0m-7.46-19.559l8.42 5.758m0 0h0m-9.175-16.793l9.93 2.328m0 0h0m-10.016-13.203l10.102-1.422m0 0h0m-9.719-9.984l9.336-4.11m0 0h0m-8.914-7.87l8.492-5.65m0 0h0m-8.2-6.702l7.907-6.446m0 0h0m-7.762-6.136l7.618-6.782m0 0h0m-7.618-5.968l7.618-6.782m0 0h0m-7.762-6.136l7.906-6.446m0 0h0m-8.2-6.703l8.493-5.648m0 0h0m-8.914-7.871l9.336-4.11m0 0h0m-9.719-9.984l10.102-1.422m0 0h0m-10.016-13.203l9.93 2.328m0 0h0m-9.176-16.793l8.422 5.758m0 0h0m-7.461-19.559l6.5 7.86m0 0h0M180.03 48.66l4.938 8.93m0 0h0m-4.371-21.945l3.804 9.46m0 0h0m-3.41-22.351l3.016 9.742m0 0h0M181.28 9.922l2.438 9.906m0 0h0m12.531 233.367l6.5 7.86m0 0h0m-7.46-19.559l8.42 5.758m0 0h0m-9.175-16.793l9.93 2.328m0 0h0m-10.016-13.203l10.102-1.422m0 0h0m-9.719-9.984l9.336-4.11m0 0h0m-8.914-7.87l8.492-5.65m0 0h0m-8.2-6.702l7.907-6.446m0 0h0m-7.762-6.136l7.618-6.782m0 0h0m-7.618-5.968l7.618-6.782m0 0h0m-7.762-6.136l7.906-6.446m0 0h0m-8.2-6.703l8.493-5.648m0 0h0m-8.914-7.871l9.336-4.11m0 0h0m-9.719-9.984l10.102-1.422m0 0h0m-10.016-13.203l9.93 2.328m0 0h0m-9.176-16.793l8.422 5.758m0 0h0m-7.461-19.559l6.5 7.86m0 0h0M197.03 48.66l4.938 8.93m0 0h0m-4.371-21.945l3.804 9.46m0 0h0m-3.41-22.351l3.016 9.742m0 0h0M198.28 9.922l2.438 9.906m0 0h0m12.531 233.367l6.5 7.86m0 0h0m-7.46-19.559l8.42 5.758m0 0h0m-9.175-16.793l9.93 2.328m0 0h0m-10.016-13.203l10.102-1.422m0 0h0m-9.719-9.984l9.336-4.11m0 0h0m-8.914-7.87l8.492-5.65m0 0h0m-8.2-6.702l7.907-6.446m0 0h0m-7.762-6.136l7.618-6.782m0 0h0m-7.618-5.968l7.618-6.782m0 0h0m-7.762-6.136l7.906-6.446m0 0h0m-8.2-6.703l8.493-5.648m0 0h0m-8.914-7.871l9.336-4.11m0 0h0m-9.719-9.984l10.102-1.422m0 0h0m-10.016-13.203l9.93 2.328m0 0h0m-9.176-16.793l8.422 5.758m0 0h0m-7.461-19.559l6.5 7.86m0 0h0M214.03 48.66l4.938 8.93m0 0h0m-4.371-21.945l3.804 9.46m0 0h0m-3.41-22.351l3.016 9.742m0 0h0M215.28 9.922l2.438 9.906m0 0h0m12.531 233.367l6.5 7.86m0 0h0m-7.46-19.559l8.42 5.758m0 0h0m-9.175-16.793l9.93 2.328m0 0h0m-10.016-13.203l10.102-1.422m0 0h0m-9.719-9.984l9.336-4.11m0 0h0m-8.914-7.87l8.492-5.65m0 0h0m-8.2-6.702l7.907-6.446m0 0h0m-7.762-6.136l7.618-6.782m0 0h0m-7.618-5.968l7.618-6.782m0 0h0m-7.762-6.136l7.906-6.446m0 0h0m-8.2-6.703l8.493-5.648m0 0h0m-8.914-7.871l9.336-4.11m0 0h0m-9.719-9.984l10.102-1.422m0 0h0m-10.016-13.203l9.93 2.328m0 0h0m-9.176-16.793l8.422 5.758m0 0h0m-7.461-19.559l6.5 7.86m0 0h0M231.03 48.66l4.938 8.93m0 0h0m-4.371-21.945l3.804 9.46m0 0h0m-3.41-22.351l3.016 9.742m0 0h0M232.28 9.922l2.438 9.906m0 0h0m12.531 233.367l6.5 7.86m0 0h0m-7.46-19.559l8.42 5.758m0 0h0m-9.175-16.793l9.93 2.328m0 0h0m-10.016-13.203l10.102-1.422m0 0h0m-9.719-9.984l9.336-4.11m0 0h0m-8.914-7.87l8.492-5.65m0 0h0m-8.2-6.702l7.907-6.446m0 0h0m-7.762-6.136l7.618-6.782m0 0h0m-7.618-5.968l7.618-6.782m0 0h0m-7.762-6.136l7.906-6.446m0 0h0m-8.2-6.703l8.493-5.648m0 0h0m-8.914-7.871l9.336-4.11m0 0h0m-9.719-9.984l10.102-1.422m0 0h0m-10.016-13.203l9.93 2.328m0 0h0m-9.176-16.793l8.422 5.758m0 0h0m-7.461-19.559l6.5 7.86m0 0h0M248.03 48.66l4.938 8.93m0 0h0m-4.371-21.945l3.804 9.46m0 0h0m-3.41-22.351l3.016 9.742m0 0h0M249.28 9.922l2.438 9.906m0 0h0m12.531 233.367l6.5 7.86m0 0h0m-7.46-19.559l8.42 5.758m0 0h0m-9.175-16.793l9.93 2.328m0 0h0m-10.016-13.203l10.102-1.422m0 0h0m-9.719-9.984l9.336-4.11m0 0h0m-8.914-7.87l8.492-5.65m0 0h0m-8.2-6.702l7.907-6.446m0 0h0m-7.762-6.136l7.618-6.782m0 0h0m-7.618-5.968l7.618-6.782m0 0h0m-7.762-6.136l7.906-6.446m0 0h0m-8.2-6.703l8.493-5.648m0 0h0m-8.914-7.871l9.336-4.11m0 0h0m-9.719-9.984l10.102-1.422m0 0h0m-10.016-13.203l9.93 2.328m0 0h0m-9.176-16.793l8.422 5.758m0 0h0m-7.461-19.559l6.5 7.86m0 0h0M265.03 48.66l4.938 8.93m0 0h0m-4.371-21.945l3.804 9.46m0 0h0m-3.41-22.351l3.016 9.742m0 0h0M266.28 9.922l2.438 9.906m0 0h0m12.531 233.367l6.5 7.86m0 0h0m-7.46-19.559l8.42 5.758m0 0h0m-9.175-16.793l9.93 2.328m0 0h0m-10.016-13.203l10.102-1.422m0 0h0m-9.719-9.984l9.336-4.11m0 0h0m-8.914-7.87l8.492-5.65m0 0h0m-8.2-6.702l7.907-6.446m0 0h0m-7.762-6.136l7.618-6.782m0 0h0m-7.618-5.968l7.618-6.782m0 0h0m-7.762-6.136l7.906-6.446m0 0h0m-8.2-6.703l8.493-5.648m0 0h0m-8.914-7.871l9.336-4.11m0 0h0m-9.719-9.984l10.102-1.422m0 0h0m-10.016-13.203l9.93 2.328m0 0h0m-9.176-16.793l8.422 5.758m0 0h0m-7.461-19.559l6.5 7.86m0 0h0M282.03 48.66l4.938 8.93m0 0h0m-4.371-21.945l3.804 9.46m0 0h0m-3.41-22.351l3.016 9.742m0 0h0M283.28 9.922l2.438 9.906m0 0h0m12.531 233.367l6.5 7.86m0 0h0m-7.46-19.559l8.42 5.758m0 0h0m-9.175-16.793l9.93 2.328m0 0h0m-10.016-13.203l10.102-1.422m0 0h0m-9.719-9.984l9.336-4.11m0 0h0m-8.914-7.87l8.492-5.65m0 0h0m-8.2-6.702l7.907-6.446m0 0h0m-7.762-6.136l7.618-6.782m0 0h0m-7.618-5.968l7.618-6.782m0 0h0m-7.762-6.136l7.906-6.446m0 0h0m-8.2-6.703l8.493-5.648m0 0h0m-8.914-7.871l9.336-4.11m0 0h0m-9.719-9.984l10.102-1.422m0 0h0m-10.016-13.203l9.93 2.328m0 0h0m-9.176-16.793l8.422 5.758m0 0h0m-7.461-19.559l6.5 7.86m0 0h0M299.03 48.66l4.938 8.93m0 0h0m-4.371-21.945l3.804 9.46m0 0h0m-3.41-22.351l3.016 9.742m0 0h0M300.28 9.922l2.438 9.906m0 0h0m12.531 233.367l6.5 7.86m0 0h0m-7.46-19.559l8.42 5.758m0 0h0m-9.175-16.793l9.93 2.328m0 0h0m-10.016-13.203l10.102-1.422m0 0h0m-9.719-9.984l9.336-4.11m0 0h0m-8.914-7.87l8.492-5.65m0 0h0m-8.2-6.702l7.907-6.446m0 0h0m-7.762-6.136l7.618-6.782m0 0h0m-7.618-5.968l7.618-6.782m0 0h0m-7.762-6.136l7.906-6.446m0 0h0m-8.2-6.703l8.493-5.648m0 0h0m-8.914-7.871l9.336-4.11m0 0h0m-9.719-9.984l10.102-1.422m0 0h0m-10.016-13.203l9.93 2.328m0 0h0m-9.176-16.793l8.422 5.758m0 0h0m-7.461-19.559l6.5 7.86m0 0h0M316.03 48.66l4.938 8.93m0 0h0m-4.371-21.945l3.804 9.46m0 0h0m-3.41-22.351l3.016 9.742m0 0h0M317.28 9.922l2.438 9.906m0 0h0m12.531 233.367l6.5 7.86m0 0h0m-7.46-19.559l8.42 5.758m0 0h0m-9.175-16.793l9.93 2.328m0 0h0m-10.016-13.203l10.102-1.422m0 0h0m-9.719-9.984l9.336-4.11m0 0h0m-8.914-7.87l8.492-5.65m0 0h0m-8.2-6.702l7.907-6.446m0 0h0m-7.762-6.136l7.618-6.782m0 0h0m-7.618-5.968l7.618-6.782m0 0h0m-7.762-6.136l7.906-6.446m0 0h0m-8.2-6.703l8.493-5.648m0 0h0m-8.914-7.871l9.336-4.11m0 0h0m-9.719-9.984l10.102-1.422m0 0h0m-10.016-13.203l9.93 2.328m0 0h0m-9.176-16.793l8.422 5.758m0 0h0m-7.461-19.559l6.5 7.86m0 0h0M333.03 48.66l4.938 8.93m0 0h0m-4.371-21.945l3.804 9.46m0 0h0m-3.41-22.351l3.016 9.742m0 0h0M334.28 9.922l2.438 9.906m0 0h0m12.531 233.367l6.5 7.86m0 0h0m-7.46-19.559l8.42 5.758m0 0h0m-9.175-16.793l9.93 2.328m0 0h0m-10.016-13.203l10.102-1.422m0 0h0m-9.719-9.984l9.336-4.11m0 0h0m-8.914-7.87l8.492-5.65m0 0h0m-8.2-6.702l7.907-6.446m0 0h0m-7.762-6.136l7.618-6.782m0 0h0m-7.618-5.968l7.618-6.782m0 0h0m-7.762-6.136l7.906-6.446m0 0h0m-8.2-6.703l8.493-5.648m0 0h0m-8.914-7.871l9.336-4.11m0 0h0m-9.719-9.984l10.102-1.422m0 0h0m-10.016-13.203l9.93 2.328m0 0h0m-9.176-16.793l8.422 5.758m0 0h0m-7.461-19.559l6.5 7.86m0 0h0M350.03 48.66l4.938 8.93m0 0h0m-4.371-21.945l3.804 9.46m0 0h0m-3.41-22.351l3.016 9.742m0 0h0M351.28 9.922l2.438 9.906m0 0h0" fill="none" stroke-width=".625" stroke-linecap="round" stroke="#00f" stroke-miterlimit="10"/><g clip-path="url(#s)"><path d="M50.176 5.285l3.398 14.317 3.403 11.449 3.398 9.324 3.398 7.707 3.403 6.45 3.398 5.452 3.403 4.649 3.398 3.996 3.398 3.45 3.403 3 3.398 2.616 3.403 2.297 3.398 2.02 3.398 1.781 3.403 1.578 3.398 1.402 3.403 1.247 3.398 1.109 3.398.992 3.403.883 3.398.797 3.403.707 3.398.64 3.398.575 3.403.511 3.398.465 3.403.418 3.398.375 3.398.34 3.403.309 3.398.273 3.403.25 3.398.227 3.398.203 3.403.183 3.398.168 3.403.149 3.398.136 3.398.125 3.403.11 3.398.101 3.403.09 3.398.082 3.398.078 3.403.067 3.398.062 3.403.055 3.398.05 3.398.048 3.403.039 3.398.039 3.403.035 3.398.027 3.398.032 3.403.023 3.398.023 3.403.02 3.398.02 3.398.015 3.403.016 3.398.015 3.403.012 6.796.023 3.403.008 3.398.008 3.403.008 6.796.016 3.403.003 3.398.008 3.403.004 6.796.008 3.403.004 3.398.004h3.403l6.796.008h3.403l3.398.004h3.403l3.398.003h6.8l3.4.004h10.198l3.403.004h6.8" fill="none" stroke-width="1.25" stroke-linecap="round" stroke-linejoin="round" stroke="red" stroke-miterlimit="10"/></g><g clip-path="url(#t)"><path d="M17.7 189.344l3.402-2.504 3.398-2.61 3.398-2.699 3.403-2.785 3.398-2.863 3.403-2.93 3.398-2.98 3.398-3.024 3.403-3.047 3.398-3.058 3.403-3.055 3.398-3.039 3.398-3.008 3.403-2.957 3.398-2.902 3.403-2.832 3.398-2.75 3.398-2.664 3.403-2.563 3.398-2.46 3.403-2.348 3.398-2.239 3.398-2.125 3.403-2.007 3.398-1.895 3.403-1.777 3.398-1.668 3.398-1.563 3.403-1.453 3.398-1.351 3.403-1.258 3.398-1.164 3.398-1.078 3.403-.997 3.398-.914 3.403-.843 3.398-.778 3.398-.715 3.403-.652 3.398-.598 3.403-.55 3.398-.5 3.398-.457 3.403-.422 3.398-.383 3.403-.348 3.398-.316 3.398-.29 3.403-.265 3.398-.238 3.403-.219 3.398-.2 3.398-.179 3.403-.168 3.398-.148 3.403-.137 3.398-.121 3.398-.113 3.403-.102 3.398-.094 3.403-.082 3.398-.078 3.398-.066 3.403-.063 3.398-.058 3.403-.051 3.398-.047 3.398-.043 3.403-.039 3.398-.035 3.403-.031 6.796-.055 3.403-.023 3.398-.024 3.403-.02 6.796-.03 3.403-.016 3.398-.016 3.403-.012 3.398-.007 3.398-.012 3.403-.008 3.398-.008 3.403-.008 3.398-.007 3.398-.004 3.403-.008 3.398-.004 3.403-.004 6.796-.008 3.403-.004 3.398-.004h3.403l6.796-.007h3.403l3.398-.004h3.403" fill="none" stroke-width="1.25" stroke-linecap="round" stroke-linejoin="round" stroke="red" stroke-miterlimit="10"/></g><g clip-path="url(#u)"><path d="M20.25 223.395l3.398-.055 3.403-.067 3.398-.07 3.403-.074 3.398-.086 3.398-.094 3.403-.105 3.398-.114 3.403-.125 3.398-.14 3.398-.149 3.403-.168 3.398-.183 3.403-.203 3.398-.223 3.398-.246 3.403-.266 3.398-.297 3.403-.32 3.398-.355 3.398-.387 3.403-.426 3.398-.465 3.403-.511 3.398-.555 3.398-.61 3.403-.664 3.398-.722 3.403-.79 3.398-.855 3.398-.93 3.403-1.007 3.398-1.094 3.403-1.18 3.398-1.273 3.398-1.371 3.403-1.473 3.398-1.578 3.403-1.687 3.398-1.797 3.398-1.914 3.403-2.028 3.398-2.144 3.403-2.258 3.398-2.371 3.398-2.477 3.403-2.582 3.398-2.676 3.403-2.765 3.398-2.848 3.398-2.91 3.403-2.969 3.398-3.015 3.403-3.04 6.796-6.117 3.403-3.043 3.398-3.015 3.403-2.973 3.398-2.918 3.398-2.851 3.403-2.774 3.398-2.683 3.403-2.59 3.398-2.485 3.398-2.379 3.403-2.265 3.398-2.156 3.403-2.04 3.398-1.921 3.398-1.809 3.403-1.695 3.398-1.586 3.403-1.48 3.398-1.38 3.398-1.28 3.403-1.188 3.398-1.102 3.403-1.016 3.398-.933 3.398-.863 3.403-.793 3.398-.727 3.403-.672 3.398-.61 3.398-.562 3.403-.511 3.398-.47 3.403-.429 3.398-.39 3.398-.36 3.403-.324 3.398-.297 3.403-.27 3.398-.246 3.398-.222 3.403-.207 3.398-.184 3.403-.168 3.398-.152 3.398-.14" fill="none" stroke-width="1.25" stroke-linecap="round" stroke-linejoin="round" stroke="red" stroke-miterlimit="10"/></g><g clip-path="url(#v)"><path d="M20.625 223.941h6.8l3.4-.004 3.402-.003 3.398-.004h3.398l3.403-.004 3.398-.004 3.403-.004 3.398-.008 3.398-.004 3.403-.004 3.398-.007 3.403-.008 6.796-.016 3.403-.008 3.398-.011 3.403-.012 6.796-.024 3.403-.015 3.398-.02 3.403-.015 3.398-.02 3.398-.023 3.403-.024 3.398-.027 3.403-.031 6.796-.07 3.403-.04 3.398-.043 3.403-.05 3.398-.051 3.398-.063 3.403-.062 3.398-.074 3.403-.079 3.398-.086 3.398-.097 3.403-.106 3.398-.113 3.403-.129 3.398-.14 3.398-.157 3.403-.172 3.398-.187 3.403-.203 3.398-.227 3.398-.25 3.403-.273 3.398-.301 3.403-.328 3.398-.36 3.398-.398 3.403-.434 3.398-.472 3.403-.52 3.398-.566 3.398-.621 3.403-.676 3.398-.734 3.403-.801 3.398-.871 3.398-.946 3.403-1.027 3.398-1.11 3.403-1.199 3.398-1.289 3.398-1.394 3.403-1.492 3.398-1.602 3.403-1.707 3.398-1.824 3.398-1.938 3.403-2.05 3.398-2.168 3.403-2.282 3.398-2.39 3.398-2.5 3.403-2.602 3.398-2.695 3.403-2.781 3.398-2.86 3.398-2.926 3.403-2.98 3.398-3.02 3.403-3.046 3.398-3.059 3.398-3.055 3.403-3.043 3.398-3.004 3.403-2.964 3.398-2.907 3.398-2.836 3.403-2.753 3.398-2.665 3.403-2.57 3.398-2.465 3.398-2.355" fill="none" stroke-width="1.25" stroke-linecap="round" stroke-linejoin="round" stroke="red" stroke-miterlimit="10"/></g><g clip-path="url(#w)"><path d="M19.2 223.973H26l3.398.004h3.403l3.398.003H43l3.398.004h3.403l3.398.004 3.403.004 3.398.004h3.398l3.403.008 3.398.004 3.403.004 6.796.008 3.403.007 3.398.008 3.403.008 6.796.016 3.403.011 3.398.008 3.403.016 3.398.011 3.398.016 3.403.016 3.398.02 3.403.015 6.796.047 3.403.027 3.398.031 3.403.032 3.398.035 3.398.039 3.403.043 3.398.05 3.403.051 3.398.059 3.398.066 3.403.07 3.398.079 3.403.09 3.398.093 3.398.106 3.403.117 3.398.133 3.403.14 3.398.16 3.398.176 3.403.196 3.398.21 3.403.239 3.398.266 3.398.289 3.403.324 3.398.36 3.403.394 3.398.441 3.398.492 3.403.543 3.398.606 3.403.676 3.398.753 3.398.84 3.403.938 3.398 1.05 3.403 1.18 3.398 1.32 3.398 1.493 3.403 1.68 3.398 1.902 3.403 2.16 3.398 2.457 3.398 2.809 3.403 3.222 3.398 3.723 3.403 4.316 3.398 5.047" fill="none" stroke-width="1.25" stroke-linecap="round" stroke-linejoin="round" stroke="red" stroke-miterlimit="10"/></g><g clip-path="url(#x)"><path d="M21 223.96h166.602l3.398.005h54.398l3.403.004h20.398l3.403.004H282.8l3.398.004h3.403l3.398.003h6.8l3.4.004 3.402.004H310l3.398.004 3.403.004h3.398l3.403.008 6.796.008 3.403.004 3.398.004 3.403.007 6.796.016 3.403.008 3.398.008 3.403.011 6.796.024" fill="none" stroke-width="1.25" stroke-linecap="round" stroke-linejoin="round" stroke="red" stroke-miterlimit="10"/></g><g clip-path="url(#y)"><path d="M21 99.04h343.398" fill="none" stroke-width="1.25" stroke-linecap="round" stroke-linejoin="round" stroke="red" stroke-miterlimit="10"/></g></svg>