<svg xmlns="http://www.w3.org/2000/svg" xmlns:xlink="http://www.w3.org/1999/xlink" width="374pt" height="275pt" viewBox="0 0 374 275"><defs><clipPath id="j"><path d="M17 259h340v2H17zm0 0"/></clipPath><clipPath id="e"><path d="M130 9.5h1v255h-1zm0 0"/></clipPath><clipPath id="n"><path d="M17 74h340v1H17zm0 0"/></clipPath><clipPath id="m"><path d="M17 120h340v2H17zm0 0"/></clipPath><clipPath id="l"><path d="M17 166h340v2H17zm0 0"/></clipPath><clipPath id="k"><path d="M17 213h340v1H17zm0 0"/></clipPath><clipPath id="a"><path d="M17 9.5h1v255h-1zm0 0"/></clipPath><clipPath id="b"><path d="M17 259h340v2H17zm0 0"/></clipPath><clipPath id="c"><path d="M17 9.5h1v255h-1zm0 0"/></clipPath><clipPath id="d"><path d="M73 9.5h1v255h-1zm0 0"/></clipPath><clipPath id="o"><path d="M17 27h340v2H17zm0 0"/></clipPath><clipPath id="f"><path d="M186 9.5h2v255h-2zm0 0"/></clipPath><clipPath id="g"><path d="M243 9.5h1v255h-1zm0 0"/></clipPath><clipPath id="h"><path d="M300 9.5h1v255h-1zm0 0"/></clipPath><clipPath id="i"><path d="M356 9.5h1v255h-1zm0 0"/></clipPath><symbol overflow="visible" id="q"><path d="M1.438-.781H.655V0h.781zm0 0"/></symbol><symbol overflow="visible" id="u"><path d="M1.656-2.438h.36c.734 0 1.109.329 1.109.954 0 .671-.422 1.078-1.11 1.078-.718 0-1.078-.36-1.109-1.14H.234c.032.421.11.702.235.952.281.5.797.766 1.531.766 1.094 0 1.797-.656 1.797-1.656 0-.672-.266-1.047-.906-1.266.5-.203.75-.578.75-1.11 0-.906-.61-1.453-1.625-1.453-1.079 0-1.641.579-1.657 1.72h.657c0-.329.03-.516.109-.673.156-.296.484-.468.906-.468.578 0 .938.343.938.906 0 .375-.14.594-.438.719-.172.078-.406.109-.875.109zm0 0"/></symbol><symbol overflow="visible" id="t"><path d="M3.797-.656H1c.063-.438.313-.703.953-1.094l.75-.406c.75-.406 1.125-.953 1.125-1.594 0-.453-.172-.86-.484-1.14-.328-.298-.719-.423-1.219-.423-.672 0-1.172.235-1.469.688-.187.281-.265.61-.281 1.156h.656c.032-.36.078-.578.157-.75.171-.328.515-.515.921-.515.594 0 1.047.421 1.047.984 0 .422-.25.781-.719 1.063l-.687.39C.64-1.672.312-1.172.25 0h3.547zm0 0"/></symbol><symbol overflow="visible" id="s"><path d="M1.938-3.781V0h.671v-5.313h-.437c-.235.813-.39.922-1.406 1.047v.485zm0 0"/></symbol><symbol overflow="visible" id="r"><path d="M3.563-5.313H.828L.422-2.421h.61c.312-.375.562-.5.984-.5.703 0 1.156.485 1.156 1.281 0 .766-.438 1.235-1.156 1.235-.579 0-.938-.297-1.094-.906H.266c.093.437.156.656.312.843.313.406.844.64 1.453.64 1.063 0 1.813-.78 1.813-1.905 0-1.047-.688-1.766-1.719-1.766-.375 0-.672.094-.984.313l.218-1.485h2.204zm0 0"/></symbol><symbol overflow="visible" id="p"><path d="M2.063-5.313c-.5 0-.938.22-1.22.579C.5-4.266.329-3.563.329-2.578c0 1.797.594 2.75 1.734 2.75 1.126 0 1.735-.953 1.735-2.703 0-1.031-.156-1.719-.516-2.203-.281-.375-.719-.579-1.219-.579zm0 .579c.718 0 1.062.718 1.062 2.14 0 1.516-.344 2.219-1.078 2.219C1.344-.375 1-1.109 1-2.563c0-1.453.344-2.171 1.063-2.171zm0 0"/></symbol></defs><g clip-path="url(#a)"><path d="M17 264.5V9.5" fill="none" stroke-width=".625" stroke-linecap="round" stroke="#bfbfbf" stroke-miterlimit="10"/></g><g clip-path="url(#b)"><path d="M17 259.863h340" fill="none" stroke-width=".625" stroke-linecap="round" stroke="#bfbfbf" stroke-miterlimit="10"/></g><g clip-path="url(#c)"><path d="M17 264.5V9.5" fill="none" stroke-width=".625" stroke-linecap="round" stroke="#bfbfbf" stroke-dasharray="12.5,18.75" stroke-miterlimit="10"/></g><g clip-path="url(#d)"><path d="M73.668 264.5V9.5" fill="none" stroke-width=".625" stroke-linecap="round" stroke="#bfbfbf" stroke-dasharray="12.5,18.75" stroke-miterlimit="10"/></g><g clip-path="url(#e)"><path d="M130.332 264.5V9.5" fill="none" stroke-width=".625" stroke-linecap="round" stroke="#bfbfbf" stroke-dasharray="12.5,18.75" stroke-miterlimit="10"/></g><g clip-path="url(#f)"><path d="M187 264.5V9.5" fill="none" stroke-width=".625" stroke-linecap="round" stroke="#bfbfbf" stroke-dasharray="12.5,18.75" stroke-miterlimit="10"/></g><g clip-path="url(#g)"><path d="M243.668 264.5V9.5" fill="none" stroke-width=".625" stroke-linecap="round" stroke="#bfbfbf" stroke-dasharray="12.5,18.75" stroke-miterlimit="10"/></g><g clip-path="url(#h)"><path d="M300.332 264.5V9.5" fill="none" stroke-width=".625" stroke-linecap="round" stroke="#bfbfbf" stroke-dasharray="12.5,18.75" stroke-miterlimit="10"/></g><g clip-path="url(#i)"><path d="M357 264.5V9.5" fill="none" stroke-width=".625" stroke-linecap="round" stroke="#bfbfbf" stroke-dasharray="12.5,18.75" stroke-miterlimit="10"/></g><g clip-path="url(#j)"><path d="M17 259.863h340" fill="none" stroke-width=".625" stroke-linecap="round" stroke="#bfbfbf" stroke-dasharray="12.5,18.75" stroke-miterlimit="10"/></g><g clip-path="url(#k)"><path d="M17 213.5h340" fill="none" stroke-width=".625" stroke-linecap="round" stroke="#bfbfbf" stroke-dasharray="12.5,18.75" stroke-miterlimit="10"/></g><g clip-path="url(#l)"><path d="M17 167.137h340" fill="none" stroke-width=".625" stroke-linecap="round" stroke="#bfbfbf" stroke-dasharray="12.5,18.75" stroke-miterlimit="10"/></g><g clip-path="url(#m)"><path d="M17 120.773h340" fill="none" stroke-width=".625" stroke-linecap="round" stroke="#bfbfbf" stroke-dasharray="12.5,18.75" stroke-miterlimit="10"/></g><g clip-path="url(#n)"><path d="M17 74.41h340" fill="none" stroke-width=".625" stroke-linecap="round" stroke="#bfbfbf" stroke-dasharray="12.5,18.75" stroke-miterlimit="10"/></g><g clip-path="url(#o)"><path d="M17 28.047h340" fill="none" stroke-width=".625" stroke-linecap="round" stroke="#bfbfbf" stroke-dasharray="12.5,18.75" stroke-miterlimit="10"/></g><path d="M17 264.5h340" fill="none" stroke-width="1.25" stroke-linecap="square" stroke="#000" stroke-miterlimit="10"/><path d="M17 264.5v-5m5.668 5V262m5.664 2.5V262M34 264.5V262m5.668 2.5V262m5.664 2.5V262M51 264.5V262m5.668 2.5V262m5.664 2.5V262M68 264.5V262m5.668 2.5v-5m5.664 5V262M85 264.5V262m5.668 2.5V262m5.664 2.5V262m5.668 2.5V262m5.668 2.5V262m5.664 2.5V262m5.668 2.5V262m5.668 2.5V262m5.664 2.5v-5m5.668 5V262m5.668 2.5V262m5.664 2.5V262m5.668 2.5V262m5.668 2.5V262m5.664 2.5V262m5.668 2.5V262m5.668 2.5V262m5.664 2.5V262m5.668 2.5v-5m5.668 5V262m5.664 2.5V262m5.668 2.5V262m5.668 2.5V262m5.664 2.5V262m5.668 2.5V262m5.668 2.5V262m5.664 2.5V262m5.668 2.5V262m5.668 2.5v-5m5.664 5V262m5.668 2.5V262m5.668 2.5V262m5.664 2.5V262m5.668 2.5V262m5.668 2.5V262m5.664 2.5V262m5.668 2.5V262m5.668 2.5V262m5.664 2.5v-5m5.668 5V262m5.668 2.5V262m5.664 2.5V262m5.668 2.5V262m5.668 2.5V262m5.664 2.5V262m5.668 2.5V262m5.668 2.5V262m5.664 2.5V262m5.668 2.5v-5" fill="none" stroke-width=".625" stroke="#000" stroke-miterlimit="10"/><use xlink:href="#p" x="11.163" y="274.5"/><use xlink:href="#q" x="15.333" y="274.5"/><use xlink:href="#p" x="17.418" y="274.5"/><use xlink:href="#p" x="68.038" y="274.5"/><use xlink:href="#q" x="72.208" y="274.5"/><use xlink:href="#r" x="74.293" y="274.5"/><use xlink:href="#s" x="124.913" y="274.5"/><use xlink:href="#q" x="129.083" y="274.5"/><use xlink:href="#p" x="131.168" y="274.5"/><use xlink:href="#s" x="181.788" y="274.5"/><use xlink:href="#q" x="185.958" y="274.5"/><use xlink:href="#r" x="188.043" y="274.5"/><use xlink:href="#t" x="238.038" y="274.5"/><use xlink:href="#q" x="242.208" y="274.5"/><use xlink:href="#p" x="244.293" y="274.5"/><use xlink:href="#t" x="294.913" y="274.5"/><use xlink:href="#q" x="299.083" y="274.5"/><use xlink:href="#r" x="301.168" y="274.5"/><use xlink:href="#u" x="351.788" y="274.5"/><use xlink:href="#q" x="355.958" y="274.5"/><use xlink:href="#p" x="358.043" y="274.5"/><path d="M17 9.5h340" fill="none" stroke-width="1.25" stroke-linecap="square" stroke="#000" stroke-miterlimit="10"/><path d="M17 9.5v5m5.668-5V12m5.664-2.5V12M34 9.5V12m5.668-2.5V12m5.664-2.5V12M51 9.5V12m5.668-2.5V12m5.664-2.5V12M68 9.5V12m5.668-2.5v5m5.664-5V12M85 9.5V12m5.668-2.5V12m5.664-2.5V12M102 9.5V12m5.668-2.5V12m5.664-2.5V12M119 9.5V12m5.668-2.5V12m5.664-2.5v5m5.668-5V12m5.668-2.5V12m5.664-2.5V12M153 9.5V12m5.668-2.5V12m5.664-2.5V12M170 9.5V12m5.668-2.5V12m5.664-2.5V12M187 9.5v5m5.668-5V12m5.664-2.5V12M204 9.5V12m5.668-2.5V12m5.664-2.5V12M221 9.5V12m5.668-2.5V12m5.664-2.5V12M238 9.5V12m5.668-2.5v5m5.664-5V12M255 9.5V12m5.668-2.5V12m5.664-2.5V12M272 9.5V12m5.668-2.5V12m5.664-2.5V12M289 9.5V12m5.668-2.5V12m5.664-2.5v5m5.668-5V12m5.668-2.5V12m5.664-2.5V12M323 9.5V12m5.668-2.5V12m5.664-2.5V12M340 9.5V12m5.668-2.5V12m5.664-2.5V12M357 9.5v5" fill="none" stroke-width=".625" stroke="#000" stroke-miterlimit="10"/><use xlink:href="#p" x="11.163" y="6.375"/><use xlink:href="#q" x="15.333" y="6.375"/><use xlink:href="#p" x="17.418" y="6.375"/><use xlink:href="#p" x="68.038" y="6.375"/><use xlink:href="#q" x="72.208" y="6.375"/><use xlink:href="#r" x="74.293" y="6.375"/><use xlink:href="#s" x="124.913" y="6.375"/><use xlink:href="#q" x="129.083" y="6.375"/><use xlink:href="#p" x="131.168" y="6.375"/><use xlink:href="#s" x="181.788" y="6.375"/><use xlink:href="#q" x="185.958" y="6.375"/><use xlink:href="#r" x="188.043" y="6.375"/><use xlink:href="#t" x="238.038" y="6.375"/><use xlink:href="#q" x="242.208" y="6.375"/><use xlink:href="#p" x="244.293" y="6.375"/><use xlink:href="#t" x="294.913" y="6.375"/><use xlink:href="#q" x="299.083" y="6.375"/><use xlink:href="#r" x="301.168" y="6.375"/><use xlink:href="#u" x="351.788" y="6.375"/><use xlink:href="#q" x="355.958" y="6.375"/><use xlink:href="#p" x="358.043" y="6.375"/><path d="M17 264.5V9.5" fill="none" stroke-width="1.25" stroke-linecap="square" stroke="#000" stroke-miterlimit="10"/><path d="M17 259.863h5m-5-4.636h2.5M17 250.59h2.5m-2.5-4.637h2.5m-2.5-4.637h2.5M17 236.68h2.5m-2.5-4.633h2.5M17 227.41h2.5m-2.5-4.637h2.5m-2.5-4.636h2.5M17 213.5h5m-5-4.637h2.5m-2.5-4.636h2.5M17 199.59h2.5m-2.5-4.637h2.5m-2.5-4.637h2.5M17 185.68h2.5m-2.5-4.633h2.5M17 176.41h2.5m-2.5-4.637h2.5m-2.5-4.636h5m-5-4.637h2.5m-2.5-4.637h2.5m-2.5-4.636h2.5M17 148.59h2.5m-2.5-4.637h2.5m-2.5-4.637h2.5m-2.5-4.632h2.5m-2.5-4.637h2.5M17 125.41h2.5m-2.5-4.637h5m-5-4.636h2.5M17 111.5h2.5m-2.5-4.637h2.5m-2.5-4.636h2.5M17 97.59h2.5M17 92.953h2.5M17 88.316h2.5M17 83.684h2.5M17 79.047h2.5M17 74.41h5m-5-4.637h2.5M17 65.137h2.5M17 60.5h2.5M17 55.863h2.5M17 51.227h2.5M17 46.59h2.5M17 41.953h2.5M17 37.316h2.5M17 32.684h2.5M17 28.047h5m-5-4.637h2.5M17 18.773h2.5M17 14.137h2.5M17 9.5h2.5" fill="none" stroke-width=".625" stroke="#000" stroke-miterlimit="10"/><use xlink:href="#p" x="-.299" y="263.25"/><use xlink:href="#q" x="3.871" y="263.25"/><use xlink:href="#p" x="5.956" y="263.25"/><use xlink:href="#p" x="-.299" y="217"/><use xlink:href="#q" x="3.871" y="217"/><use xlink:href="#r" x="5.956" y="217"/><use xlink:href="#s" x="-.299" y="170.75"/><use xlink:href="#q" x="3.871" y="170.75"/><use xlink:href="#p" x="5.956" y="170.75"/><use xlink:href="#s" x="-.299" y="124.5"/><use xlink:href="#q" x="3.871" y="124.5"/><use xlink:href="#r" x="5.956" y="124.5"/><use xlink:href="#t" x="-.299" y="77.625"/><use xlink:href="#q" x="3.871" y="77.625"/><use xlink:href="#p" x="5.956" y="77.625"/><use xlink:href="#t" x="-.299" y="31.375"/><use xlink:href="#q" x="3.871" y="31.375"/><use xlink:href="#r" x="5.956" y="31.375"/><path d="M357 264.5V9.5" fill="none" stroke-width="1.25" stroke-linecap="square" stroke="#000" stroke-miterlimit="10"/><path d="M357 259.863h-5m5-4.636h-2.5m2.5-4.637h-2.5m2.5-4.637h-2.5m2.5-4.637h-2.5m2.5-4.636h-2.5m2.5-4.633h-2.5m2.5-4.637h-2.5m2.5-4.637h-2.5m2.5-4.636h-2.5m2.5-4.637h-5m5-4.637h-2.5m2.5-4.636h-2.5m2.5-4.637h-2.5m2.5-4.637h-2.5m2.5-4.637h-2.5m2.5-4.636h-2.5m2.5-4.633h-2.5m2.5-4.637h-2.5m2.5-4.637h-2.5m2.5-4.636h-5m5-4.637h-2.5m2.5-4.637h-2.5m2.5-4.636h-2.5m2.5-4.637h-2.5m2.5-4.637h-2.5m2.5-4.637h-2.5m2.5-4.632h-2.5m2.5-4.637h-2.5m2.5-4.637h-2.5m2.5-4.637h-5m5-4.636h-2.5m2.5-4.637h-2.5m2.5-4.637h-2.5m2.5-4.636h-2.5m2.5-4.637h-2.5m2.5-4.637h-2.5m2.5-4.637h-2.5m2.5-4.632h-2.5m2.5-4.637h-2.5m2.5-4.637h-5m5-4.637h-2.5m2.5-4.636h-2.5M357 60.5h-2.5m2.5-4.637h-2.5m2.5-4.636h-2.5m2.5-4.637h-2.5m2.5-4.637h-2.5m2.5-4.637h-2.5m2.5-4.632h-2.5m2.5-4.637h-5m5-4.637h-2.5m2.5-4.637h-2.5m2.5-4.636h-2.5M357 9.5h-2.5" fill="none" stroke-width=".625" stroke="#000" stroke-miterlimit="10"/><use xlink:href="#p" x="363.25" y="263.25"/><use xlink:href="#q" x="367.42" y="263.25"/><use xlink:href="#p" x="369.505" y="263.25"/><use xlink:href="#p" x="363.25" y="217"/><use xlink:href="#q" x="367.42" y="217"/><use xlink:href="#r" x="369.505" y="217"/><use xlink:href="#s" x="363.25" y="170.75"/><use xlink:href="#q" x="367.42" y="170.75"/><use xlink:href="#p" x="369.505" y="170.75"/><use xlink:href="#s" x="363.25" y="124.5"/><use xlink:href="#q" x="367.42" y="124.5"/><use xlink:href="#r" x="369.505" y="124.5"/><use xlink:href="#t" x="363.25" y="77.625"/><use xlink:href="#q" x="367.42" y="77.625"/><use xlink:href="#p" x="369.505" y="77.625"/><use xlink:href="#t" x="363.25" y="31.375"/><use xlink:href="#q" x="367.42" y="31.375"/><use xlink:href="#r" x="369.505" y="31.375"/><path d="M17 167.137l.625-.004.625-.008.625-.012.625-.02.625-.023.625-.027.625-.035.625-.04.625-.042.625-.051.625-.055.625-.058.625-.067.625-.07.625-.074.625-.082.625-.086.625-.094.625-.098.625-.101.625-.11 1.25-.234.625-.125.625-.133.625-.136.625-.141.625-.149.625-.156.625-.16 1.25-.336.625-.18.625-.183.625-.192.625-.195.625-.203.625-.21.625-.216.625-.222.625-.227.625-.234.625-.243.625-.25.625-.257.625-.262.625-.27.625-.277.625-.285.625-.29.625-.3.625-.309.625-.312.625-.32.625-.332.625-.336.625-.348.625-.355.625-.364.625-.37.625-.38.625-.39.625-.399.625-.406.625-.418.625-.426.625-.433.625-.446.625-.457.625-.465.625-.476.625-.484.625-.497.625-.507.625-.52.625-.531.625-.54.625-.554.625-.566.625-.578.625-.59.625-.606.625-.613.625-.629.625-.644.625-.657.625-.672.625-.683.625-.7.625-.714.625-.73.625-.747.625-.762.625-.777.625-.793.625-.812.625-.828.625-.848.625-.867.625-.883.625-.902.625-.922.625-.942.625-.96.625-.981.625-1.004.625-1.027.625-1.047.625-1.067.625-1.093.625-1.118.625-1.136.625-1.164.625-1.192.625-1.21.625-1.24.625-1.265.625-1.293.625-1.32.625-1.344.625-1.375.625-1.402.625-1.434.625-1.46.625-1.493.625-1.52.625-1.546L97 98.8l.625-1.61.625-1.64.625-1.672.625-1.703.625-1.735.625-1.761.625-1.793.625-1.824.625-1.852.625-1.879.625-1.906.625-1.934.625-1.957.625-1.98.625-2.004.625-2.024.625-2.043.625-2.054.625-2.07.625-2.079.625-2.082.625-2.086.625-2.082.625-2.074.625-2.062.625-2.047.625-2.024.625-1.988.625-1.953.625-1.91.625-1.86.625-1.797.625-1.726.625-1.653.625-1.566.625-1.473.625-1.367.625-1.254.625-1.132.625-1.004.625-.868.625-.718.625-.567.625-.406.625-.242.625-.074.625.097.625.274.625.453.625.625.625.8.625.973.625 1.14.625 1.306.625 1.46.625 1.618.625 1.758.625 1.894.625 2.02.625 2.14.625 2.246.625 2.344.625 2.434.625 2.511.625 2.582.625 2.641.625 2.688.625 2.734.625 2.762.625 2.789.625 2.804.625 2.813.625 2.82.625 2.817.625 2.808.625 2.793.625 2.778.625 2.757.625 2.73.625 2.704.625 2.668.625 2.64.625 2.602.625 2.563.625 2.523.625 2.484.625 2.446.625 2.398.625 2.36.625 2.316.625 2.273.625 2.23.625 2.184.625 2.145.625 2.102.625 2.058.625 2.016.625 1.972.625 1.934.625 1.894.625 1.852.625 1.816.625 1.778.625 1.738.625 1.7.625 1.667.625 1.63.625 1.593.625 1.562.625 1.528.625 1.496.625 1.465.625 1.433.625 1.403.625 1.375.625 1.343.625 1.317.625 1.289.625 1.262.625 1.238.625 1.207.625 1.187.625 1.164.625 1.137.625 1.113.625 1.094.625 1.07.625 1.051.625 1.028.625 1.011.625.989.625.968.625.95.625.933.625.914.625.899.625.879.625.863.625.848.625.832.625.816.625.8.625.79.625.773.625.758.625.742.625.735.625.718.625.707.625.692.625.683.625.668.625.657.625.648.625.637.625.625.625.613.625.606.625.593.625.586.625.574.625.567.625.555.625.546.625.54.625.53.625.524.625.512.625.508.625.496.625.488.625.484.625.473.625.469.625.46.625.454.625.45.625.437.625.433.625.43.625.422.625.414.625.41.625.402.625.399.625.39.625.387.625.38.625.374.625.371.625.367.625.36.625.355.625.352.625.344.625.34.625.335.625.332.625.328.625.325 1.25.632.625.313 1.25.61.625.296 1.25.586.625.29 1.25.562.625.277.625.274.625.269 1.25.531.625.262.625.254.625.258.625.25 1.25.492.625.242 1.25.477.625.234.625.23 1.25.454 1.25.445.625.219.625.215 1.875.632.625.207 1.25.407.625.199 1.25.39 1.875.575.625.187 1.25.367 1.25.36 1.875.527.625.168.625.172 1.25.336 1.25.328 1.875.48.625.157.625.152.625.156.625.153.625.148.625.152.625.145.625.148 1.25.29 1.875.421 1.875.41 1.875.399 1.875.387.625.125.625.129.625.125.625.12.625.126.625.12.625.118.625.121 1.875.352 2.5.453 2.5.437 3.125.528 1.875.304.625.098.625.101 1.875.293.625.094.625.098 1.25.187.625.09.625.094.625.09.625.094 1.25.18.625.085.625.09 2.5.344.625.082.625.086 2.5.328.625.078.625.082 3.125.39 1.25.15.625.077 1.875.223.625.07.625.074 1.25.141.625.074.625.067 1.875.21 1.25.133.625.07 1.875.2.625.062.625.067.625.062.625.067 3.75.375.625.058.625.063 5 .469.625.054.625.059 5 .437.625.051.625.055.625.05.625.055 4.375.356.625.047.625.05.625.047.625.051 2.5.188.625.05" fill="none" stroke-width="1.25" stroke-linecap="round" stroke="#00008b" stroke-miterlimit="10"/><path d="M17 167.137l1.25-.008 1.25-.024.625-.015 1.25-.047.625-.027 1.25-.07 1.25-.087.625-.047.625-.05 1.25-.117 1.25-.133.625-.07.625-.075 1.25-.164.625-.086.625-.09 1.25-.195.625-.102 1.25-.218.625-.114 1.25-.242 1.25-.258.625-.132.625-.141 1.25-.29.625-.151.625-.157.625-.16 1.25-.328.625-.172.625-.176.625-.18.625-.183.625-.187 1.25-.391 1.25-.406 1.25-.422.625-.219.625-.223.625-.226.625-.23.625-.235.625-.238.625-.242.625-.247.625-.25 1.25-.515 1.25-.531.625-.274.625-.277.625-.281.625-.286.625-.289.625-.293 1.25-.593 1.875-.926.625-.317.625-.32.625-.324.625-.328.625-.332 1.25-.672 1.25-.688.625-.347.625-.356.625-.351 1.25-.719.625-.363 1.25-.735 1.25-.742.625-.375.625-.379.625-.375.625-.383.625-.379 2.5-1.53.625-.387L87 142.73l.625-.378 1.875-1.125 1.25-.735.625-.363.625-.36.625-.351.625-.348.625-.343.625-.336.625-.332.625-.325.625-.316.625-.309.625-.296.625-.293.625-.282.625-.273.625-.262.625-.25.625-.238.625-.227.625-.21.625-.204.625-.183.625-.172.625-.16.625-.141.625-.125.625-.11.625-.093.625-.074.625-.059.625-.039.625-.02h.625l.625.02.625.039.625.059.625.082.625.097.625.125.625.14.625.169.625.187.625.207.625.23.625.255.625.273.625.297.625.317.625.34.625.363.625.382.625.403.625.426.625.445.625.465.625.484.625.504.625.523.625.543.625.559.625.578.625.594.625.613.625.625.625.64.625.657.625.672.625.684.625.695.625.707.625.719.625.73.625.742.625.75.625.758.625.766.625.773.625.781.625.786.625.793.625.796.625.801 1.875 2.426.625.812 3.75 4.899 1.875 2.437.625.809 1.25 1.61.625.8 1.25 1.586.625.79.625.784 1.25 1.555.625.77 1.25 1.523.625.754.625.746.625.742.625.738 1.25 1.454.625.718.625.711.625.703.625.7.625.691.625.688.625.68.625.671.625.664.625.66.625.653.625.644.625.64.625.634.625.625.625.62.625.614.625.605.625.598.625.594.625.586.625.578.625.574.625.567.625.562.625.555.625.547.625.543.625.535.625.527.625.524.625.519.625.512.625.504.625.5.625.492.625.488.625.485.625.476.625.469.625.465.625.46.625.458.625.449.625.445.625.438.625.433.625.43 1.25.844.625.414 1.25.812 1.25.797.625.39 1.25.766.625.38.625.37 1.25.735.625.36.625.355.625.351.625.348.625.344.625.34.625.335.625.332 1.25.657.625.32.625.316 1.25.625 1.25.61.625.3.625.297.625.293 1.25.578.625.286.625.28.625.278 1.25.547.625.27.625.265.625.262 1.875.773 1.25.5.625.247 1.875.726 1.25.469 1.25.46.625.227 1.25.446 1.25.437 1.25.43.625.21 1.875.622.625.2.625.202.625.2 1.25.39 1.25.383 1.875.562.625.184 1.875.539 1.25.352 1.25.343 1.875.504 1.25.328.625.16.625.165 1.25.312.625.16 1.875.457.625.149.625.152.625.145.625.148 1.25.29 1.875.42.625.138.625.14.625.133.625.137 1.875.398 1.875.387.625.125.625.129.625.121.625.125 2.5.484 2.5.47 2.5.452 2.5.438 2.5.422.625.101.625.106 1.25.203.625.097.625.102 2.5.39.625.094.625.098 1.25.188.625.09.625.093 3.125.45.625.085.625.09 1.875.258.625.082.625.086 3.125.41.625.078.625.082 2.5.313.625.074.625.078 1.25.148.625.079.625.074.625.07.625.074.625.07.625.075 3.75.422.625.066.625.07 3.125.333.625.062.625.066.625.063.625.066 3.75.375.625.059.625.062 5 .47.625.054.625.058 1.25.11.625.058 1.25.11.625.05 1.875.165.625.05.625.055.625.05.625.056 3.75.304.625.047.625.05.625.048.625.05.625.047.625.051 5 .375.625.043 1.25.094 1.25.086.625.047.625.043" fill="none" stroke-width="1.25" stroke-linecap="round" stroke="#006400" stroke-miterlimit="10"/><path d="M17 167.137h.625l1.875.011 1.25.016 1.875.035 1.25.031 1.25.04 1.875.07 1.25.055 1.25.062 1.875.105 1.25.079.625.043.625.046.625.043.625.051.625.047.625.055.625.05.625.06.625.054.625.062.625.059 1.875.2 1.25.14.625.074 1.25.156 1.25.164 1.25.172.625.09 1.25.188.625.097.625.102.625.097.625.106 1.25.219 1.25.226.625.117 1.25.243.625.125 1.25.257.625.133 1.25.274 1.875.433 1.25.305 1.25.312.625.16.625.165.625.168 1.25.343.625.176 1.25.36.625.183.625.191.625.188 1.25.39.625.2 1.25.406.625.207.625.211.625.215 1.25.437 1.25.446 1.25.46 1.25.47.625.238.625.242 1.25.492 1.25.5 1.875.773.625.266.625.262 1.875.808 1.875.832 1.25.563.625.285 1.875.867.625.293 1.875.89 1.25.602 1.25.61 1.875.926.625.312.625.309.625.316.625.313 1.875.949 2.5 1.281.625.324.625.32 2.5 1.297.625.329.625.324.625.328.625.324 1.875.985.625.324 2.5 1.312.625.324 1.25.657.625.324.625.328.625.324.625.328 2.5 1.297.625.32.625.325 3.125 1.601 2.5 1.266.625.313.625.316.625.312.625.309.625.313 1.25.617 2.5 1.218.625.301.625.305.625.297.625.3 1.25.594 1.875.88 1.875.866 1.875.856 1.25.562 1.875.832 1.875.82 1.875.81.625.265.625.262.625.265.625.262 1.875.773 1.875.762 1.25.5 1.875.738 1.875.727.625.238 1.25.47.625.237 1.875.692 1.875.68 1.875.667.625.22.625.214.625.219.625.215.625.21.625.215.625.211 1.875.621.625.204.625.207.625.199.625.203.625.2.625.194.625.2.625.195 2.5.766 1.875.562 1.875.55 1.875.54 1.25.351.625.172.625.176 1.25.344 1.875.504.625.164.625.168.625.164.625.16.625.164.625.16.625.157.625.16 1.25.312.625.153.625.156.625.152.625.149.625.152 1.875.445 2.5.578 2.5.563 2.5.547 2.5.531 3.125.644 1.875.375.625.122.625.125 1.25.242.625.117.625.121.625.117.625.121.625.114.625.117.625.113.625.117 1.25.227.625.11.625.112 2.5.438.625.105.625.11 1.875.316 1.25.203.625.106 1.25.203.625.098.625.101 3.75.586 3.125.469 1.25.18.625.093 1.875.27.625.086.625.09 3.75.515 1.25.164.625.086 1.25.164.625.078.625.082.625.079.625.082 3.125.39.625.074.625.079.625.074.625.078 1.25.148.625.07 1.875.223 5 .563 1.25.133.625.07 3.125.332.625.062.625.067.625.062.625.067 3.75.375.625.058.625.063.625.058.625.063 1.25.117.625.063.625.058.625.055 1.875.176.625.054.625.059.625.055.625.058 4.375.383.625.05.625.056.625.05.625.055 1.25.102.625.054 3.125.254.625.047 1.25.102.625.047.625.05 1.25.094.625.05 3.75.282.625.043 1.25.094.625.043.625.047.625.043.625.046 1.25.086.625.047 3.75.258.625.04 1.25.085.625.04 1.25.085 1.25.078.625.043 6.875.43.625.035.625.04.625.034.625.04.625.034.625.04.625.035.625.039 1.875.105.625.04.625.03.625.04.625.035" fill="none" stroke-width="1.25" stroke-linecap="round" stroke="#8b0000" stroke-miterlimit="10"/></svg>