<svg xmlns="http://www.w3.org/2000/svg" xmlns:xlink="http://www.w3.org/1999/xlink" width="1049.231" height="366.665" viewBox="0 0 786.923 274.999"><defs><clipPath id="X"><path d="M408.426 134H421v6h-12.574zm0 0"/></clipPath><clipPath id="C"><path d="M427.426 93h340v2h-340zm0 0"/></clipPath><clipPath id="ac"><path d="M427.426 49h340v215h-340zm0 0"/></clipPath><clipPath id="ab"><path d="M774 134h12.426v6H774zm0 0"/></clipPath><clipPath id="aa"><path d="M774 177h12.426v6H774zm0 0"/></clipPath><clipPath id="Z"><path d="M774 219h12.426v7H774zm0 0"/></clipPath><clipPath id="Y"><path d="M774 262h12.426v6H774zm0 0"/></clipPath><clipPath id="a"><path d="M24.5 9h.5v255h-.5zm0 0"/></clipPath><clipPath id="b"><path d="M24.5 185h340v2h-340zm0 0"/></clipPath><clipPath id="c"><path d="M24.5 9h.5v255h-.5zm0 0"/></clipPath><clipPath id="d"><path d="M109 9h1v255h-1zm0 0"/></clipPath><clipPath id="e"><path d="M194 9h1v255h-1zm0 0"/></clipPath><clipPath id="f"><path d="M279 9h1v255h-1zm0 0"/></clipPath><clipPath id="g"><path d="M364 9h.5v255h-.5zm0 0"/></clipPath><clipPath id="h"><path d="M24.5 226h340v2h-340zm0 0"/></clipPath><clipPath id="i"><path d="M24.5 185h340v2h-340zm0 0"/></clipPath><clipPath id="j"><path d="M24.5 144h340v1h-340zm0 0"/></clipPath><clipPath id="k"><path d="M24.5 102h340v2h-340zm0 0"/></clipPath><clipPath id="l"><path d="M24.5 61h340v2h-340zm0 0"/></clipPath><clipPath id="m"><path d="M24.5 20h340v1h-340zm0 0"/></clipPath><clipPath id="n"><path d="M19 268h11v6.5H19zm0 0"/></clipPath><clipPath id="q"><path d="M104 268h11v6.5h-11zm0 0"/></clipPath><clipPath id="t"><path d="M189 268h11v6.5h-11zm0 0"/></clipPath><clipPath id="u"><path d="M274 268h11v6.5h-11zm0 0"/></clipPath><clipPath id="w"><path d="M357 268h15v6.5h-15zm0 0"/></clipPath><clipPath id="z"><path d="M24.5 19h340v235h-340zm0 0"/></clipPath><clipPath id="A"><path d="M24.5 89h340v155h-340zm0 0"/></clipPath><clipPath id="B"><path d="M427.426 9H428v255h-.574zm0 0"/></clipPath><clipPath id="ad"><path d="M436 57h331.426v207H436zm0 0"/></clipPath><clipPath id="D"><path d="M427.426 9H428v255h-.574zm0 0"/></clipPath><clipPath id="E"><path d="M512 9h1v255h-1zm0 0"/></clipPath><clipPath id="F"><path d="M597 9h1v255h-1zm0 0"/></clipPath><clipPath id="G"><path d="M682 9h1v255h-1zm0 0"/></clipPath><clipPath id="H"><path d="M767 9h.426v255H767zm0 0"/></clipPath><clipPath id="I"><path d="M427.426 263h340v1h-340zm0 0"/></clipPath><clipPath id="J"><path d="M427.426 221h340v1h-340zm0 0"/></clipPath><clipPath id="K"><path d="M427.426 178h340v2h-340zm0 0"/></clipPath><clipPath id="L"><path d="M427.426 136h340v1h-340zm0 0"/></clipPath><clipPath id="M"><path d="M427.426 93h340v2h-340zm0 0"/></clipPath><clipPath id="N"><path d="M427.426 51h340v1h-340zm0 0"/></clipPath><clipPath id="O"><path d="M427.426 9h340v1h-340zm0 0"/></clipPath><clipPath id="P"><path d="M422 268h11v6.5h-11zm0 0"/></clipPath><clipPath id="Q"><path d="M507 268h11v6.5h-11zm0 0"/></clipPath><clipPath id="R"><path d="M592 268h11v6.5h-11zm0 0"/></clipPath><clipPath id="S"><path d="M677 268h11v6.5h-11zm0 0"/></clipPath><clipPath id="T"><path d="M760 268h15v6.5h-15zm0 0"/></clipPath><clipPath id="U"><path d="M408.426 262H421v6h-12.574zm0 0"/></clipPath><clipPath id="V"><path d="M408.426 219H421v7h-12.574zm0 0"/></clipPath><clipPath id="W"><path d="M408.426 177H421v6h-12.574zm0 0"/></clipPath><symbol overflow="visible" id="p"><path d="M1.438-.781H.655V0h.781zm0 0"/></symbol><symbol overflow="visible" id="y"><path d="M2.125-2.344H.344v.547h1.781zm0 0"/></symbol><symbol overflow="visible" id="x"><path d="M1.938-3.781V0h.671v-5.313h-.437c-.235.813-.39.922-1.406 1.047v.485zm0 0"/></symbol><symbol overflow="visible" id="v"><path d="M3.906-5.313H.344v.641h2.875C1.953-2.859 1.438-1.75 1.03 0h.703c.297-1.703.97-3.172 2.172-4.766zm0 0"/></symbol><symbol overflow="visible" id="s"><path d="M3.563-5.313H.828L.422-2.421h.61c.312-.375.562-.5.984-.5.703 0 1.156.485 1.156 1.281 0 .766-.438 1.235-1.156 1.235-.579 0-.938-.297-1.094-.906H.266c.093.437.156.656.312.843.313.406.844.64 1.453.64 1.063 0 1.813-.78 1.813-1.905 0-1.047-.688-1.766-1.719-1.766-.375 0-.672.094-.984.313l.218-1.485h2.204zm0 0"/></symbol><symbol overflow="visible" id="r"><path d="M3.797-.656H1c.063-.438.313-.703.953-1.094l.75-.406c.75-.406 1.125-.953 1.125-1.594 0-.453-.172-.86-.484-1.14-.328-.298-.719-.423-1.219-.423-.672 0-1.172.235-1.469.688-.187.281-.265.61-.281 1.156h.656c.032-.36.078-.578.157-.75.171-.328.515-.515.921-.515.594 0 1.047.421 1.047.984 0 .422-.25.781-.719 1.063l-.687.39C.64-1.672.312-1.172.25 0h3.547zm0 0"/></symbol><symbol overflow="visible" id="o"><path d="M2.063-5.313c-.5 0-.938.22-1.22.579C.5-4.266.329-3.563.329-2.578c0 1.797.594 2.75 1.734 2.75 1.126 0 1.735-.953 1.735-2.703 0-1.031-.156-1.719-.516-2.203-.281-.375-.719-.579-1.219-.579zm0 .579c.718 0 1.062.718 1.062 2.14 0 1.516-.344 2.219-1.078 2.219C1.344-.375 1-1.109 1-2.563c0-1.453.344-2.171 1.063-2.171zm0 0"/></symbol></defs><path d="M24.5 264h340V9h-340zm0 0" fill="#fff"/><g clip-path="url(#a)"><path d="M24.5 264V9" fill="none" stroke-width=".625" stroke-linecap="round" stroke="#bfbfbf" stroke-miterlimit="10"/></g><g clip-path="url(#b)"><path d="M24.5 185.852h340" fill="none" stroke-width=".625" stroke-linecap="round" stroke="#bfbfbf" stroke-miterlimit="10"/></g><g clip-path="url(#c)"><path d="M24.5 264V9" fill="none" stroke-width=".625" stroke-linecap="round" stroke="#bfbfbf" stroke-dasharray="12.5,18.75" stroke-miterlimit="10"/></g><g clip-path="url(#d)"><path d="M109.5 264V9" fill="none" stroke-width=".625" stroke-linecap="round" stroke="#bfbfbf" stroke-dasharray="12.5,18.75" stroke-miterlimit="10"/></g><g clip-path="url(#e)"><path d="M194.5 264V9" fill="none" stroke-width=".625" stroke-linecap="round" stroke="#bfbfbf" stroke-dasharray="12.5,18.75" stroke-miterlimit="10"/></g><g clip-path="url(#f)"><path d="M279.5 264V9" fill="none" stroke-width=".625" stroke-linecap="round" stroke="#bfbfbf" stroke-dasharray="12.5,18.75" stroke-miterlimit="10"/></g><g clip-path="url(#g)"><path d="M364.5 264V9" fill="none" stroke-width=".625" stroke-linecap="round" stroke="#bfbfbf" stroke-dasharray="12.5,18.75" stroke-miterlimit="10"/></g><g clip-path="url(#h)"><path d="M24.5 227.164h340" fill="none" stroke-width=".625" stroke-linecap="round" stroke="#bfbfbf" stroke-dasharray="12.5,18.75" stroke-miterlimit="10"/></g><g clip-path="url(#i)"><path d="M24.5 185.852h340" fill="none" stroke-width=".625" stroke-linecap="round" stroke="#bfbfbf" stroke-dasharray="12.5,18.75" stroke-miterlimit="10"/></g><g clip-path="url(#j)"><path d="M24.5 144.535h340" fill="none" stroke-width=".625" stroke-linecap="round" stroke="#bfbfbf" stroke-dasharray="12.5,18.75" stroke-miterlimit="10"/></g><g clip-path="url(#k)"><path d="M24.5 103.219h340" fill="none" stroke-width=".625" stroke-linecap="round" stroke="#bfbfbf" stroke-dasharray="12.5,18.75" stroke-miterlimit="10"/></g><g clip-path="url(#l)"><path d="M24.5 61.906h340" fill="none" stroke-width=".625" stroke-linecap="round" stroke="#bfbfbf" stroke-dasharray="12.5,18.75" stroke-miterlimit="10"/></g><g clip-path="url(#m)"><path d="M24.5 20.59h340" fill="none" stroke-width=".625" stroke-linecap="round" stroke="#bfbfbf" stroke-dasharray="12.5,18.75" stroke-miterlimit="10"/></g><path d="M24.5 264h340" fill="none" stroke-width="1.25" stroke-linecap="square" stroke="#000" stroke-miterlimit="10"/><path d="M24.5 264v-5m8.5 5v-2.5m8.5 2.5v-2.5M50 264v-2.5m8.5 2.5v-2.5M67 264v-2.5m8.5 2.5v-2.5M84 264v-2.5m8.5 2.5v-2.5m8.5 2.5v-2.5m8.5 2.5v-5m8.5 5v-2.5m8.5 2.5v-2.5m8.5 2.5v-2.5m8.5 2.5v-2.5m8.5 2.5v-2.5m8.5 2.5v-2.5m8.5 2.5v-2.5m8.5 2.5v-2.5m8.5 2.5v-2.5m8.5 2.5v-5m8.5 5v-2.5m8.5 2.5v-2.5m8.5 2.5v-2.5m8.5 2.5v-2.5m8.5 2.5v-2.5m8.5 2.5v-2.5m8.5 2.5v-2.5m8.5 2.5v-2.5m8.5 2.5v-2.5m8.5 2.5v-5m8.5 5v-2.5m8.5 2.5v-2.5m8.5 2.5v-2.5m8.5 2.5v-2.5m8.5 2.5v-2.5m8.5 2.5v-2.5m8.5 2.5v-2.5m8.5 2.5v-2.5m8.5 2.5v-2.5m8.5 2.5v-5" fill="none" stroke-width=".625" stroke="#000" stroke-miterlimit="10"/><g clip-path="url(#n)"><use xlink:href="#o" x="19.288" y="273.999"/><use xlink:href="#p" x="23.458" y="273.999"/><use xlink:href="#o" x="25.543" y="273.999"/></g><g clip-path="url(#q)"><use xlink:href="#r" x="104.288" y="273.999"/><use xlink:href="#p" x="108.458" y="273.999"/><use xlink:href="#s" x="110.543" y="273.999"/></g><g clip-path="url(#t)"><use xlink:href="#s" x="189.288" y="273.999"/><use xlink:href="#p" x="193.458" y="273.999"/><use xlink:href="#o" x="195.543" y="273.999"/></g><g clip-path="url(#u)"><use xlink:href="#v" x="274.288" y="273.999"/><use xlink:href="#p" x="278.458" y="273.999"/><use xlink:href="#s" x="280.543" y="273.999"/></g><g clip-path="url(#w)"><use xlink:href="#x" x="357.203" y="273.999"/><use xlink:href="#o" x="361.373" y="273.999"/><use xlink:href="#p" x="365.543" y="273.999"/><use xlink:href="#o" x="367.628" y="273.999"/></g><path d="M24.5 9h340" fill="none" stroke-width="1.25" stroke-linecap="square" stroke="#000" stroke-miterlimit="10"/><path d="M24.5 9v5M33 9v2.5M41.5 9v2.5M50 9v2.5M58.5 9v2.5M67 9v2.5M75.5 9v2.5M84 9v2.5M92.5 9v2.5M101 9v2.5m8.5-2.5v5m8.5-5v2.5m8.5-2.5v2.5M135 9v2.5m8.5-2.5v2.5M152 9v2.5m8.5-2.5v2.5M169 9v2.5m8.5-2.5v2.5M186 9v2.5m8.5-2.5v5m8.5-5v2.5m8.5-2.5v2.5M220 9v2.5m8.5-2.5v2.5M237 9v2.5m8.5-2.5v2.5M254 9v2.5m8.5-2.5v2.5M271 9v2.5m8.5-2.5v5m8.5-5v2.5m8.5-2.5v2.5M305 9v2.5m8.5-2.5v2.5M322 9v2.5m8.5-2.5v2.5M339 9v2.5m8.5-2.5v2.5M356 9v2.5m8.5-2.5v5" fill="none" stroke-width=".625" stroke="#000" stroke-miterlimit="10"/><use xlink:href="#o" x="19.288" y="6.499"/><use xlink:href="#p" x="23.458" y="6.499"/><use xlink:href="#o" x="25.543" y="6.499"/><use xlink:href="#r" x="104.288" y="6.499"/><use xlink:href="#p" x="108.458" y="6.499"/><use xlink:href="#s" x="110.543" y="6.499"/><use xlink:href="#s" x="189.288" y="6.499"/><use xlink:href="#p" x="193.458" y="6.499"/><use xlink:href="#o" x="195.543" y="6.499"/><use xlink:href="#v" x="274.288" y="6.499"/><use xlink:href="#p" x="278.458" y="6.499"/><use xlink:href="#s" x="280.543" y="6.499"/><use xlink:href="#x" x="357.203" y="6.499"/><use xlink:href="#o" x="361.373" y="6.499"/><use xlink:href="#p" x="365.543" y="6.499"/><use xlink:href="#o" x="367.628" y="6.499"/><path d="M24.5 264V9" fill="none" stroke-width="1.25" stroke-linecap="square" stroke="#000" stroke-miterlimit="10"/><path d="M24.5 260.219H27m-2.5-4.133H27m-2.5-4.133H27m-2.5-4.129H27m-2.5-4.133H27m-2.5-4.132H27m-2.5-4.13H27m-2.5-4.132H27m-2.5-4.133h5m-5-4.129H27m-2.5-4.133H27m-2.5-4.132H27m-2.5-4.13H27m-2.5-4.132H27m-2.5-4.133H27m-2.5-4.129H27m-2.5-4.133H27m-2.5-4.133H27m-2.5-4.128h5m-5-4.133H27m-2.5-4.133H27m-2.5-4.129H27m-2.5-4.133H27m-2.5-4.133H27m-2.5-4.129H27m-2.5-4.132H27m-2.5-4.133H27m-2.5-4.129H27m-2.5-4.133h5m-5-4.133H27m-2.5-4.129H27m-2.5-4.132H27m-2.5-4.133H27m-2.5-4.13H27m-2.5-4.132H27m-2.5-4.133H27m-2.5-4.129H27m-2.5-4.132H27m-2.5-4.133h5m-5-4.13H27m-2.5-4.132H27m-2.5-4.133H27m-2.5-4.129H27m-2.5-4.132H27m-2.5-4.133H27m-2.5-4.13H27m-2.5-4.132H27m-2.5-4.133H27m-2.5-4.129h5m-5-4.133H27m-2.5-4.132H27m-2.5-4.13H27m-2.5-4.132H27m-2.5-4.133H27m-2.5-4.129H27m-2.5-4.133H27m-2.5-4.132H27m-2.5-4.13H27m-2.5-4.132h5m-5-4.133H27m-2.5-4.129H27" fill="none" stroke-width=".625" stroke="#000" stroke-miterlimit="10"/><use xlink:href="#y" x="1.158" y="230.874"/><use xlink:href="#o" x="3.656" y="230.874"/><use xlink:href="#p" x="7.826" y="230.874"/><use xlink:href="#r" x="9.911" y="230.874"/><use xlink:href="#s" x="14.081" y="230.874"/><use xlink:href="#o" x="3.655" y="188.999"/><use xlink:href="#p" x="7.825" y="188.999"/><use xlink:href="#o" x="9.91" y="188.999"/><use xlink:href="#o" x="14.08" y="188.999"/><use xlink:href="#o" x="3.655" y="147.749"/><use xlink:href="#p" x="7.825" y="147.749"/><use xlink:href="#r" x="9.91" y="147.749"/><use xlink:href="#s" x="14.08" y="147.749"/><use xlink:href="#o" x="3.655" y="106.499"/><use xlink:href="#p" x="7.825" y="106.499"/><use xlink:href="#s" x="9.91" y="106.499"/><use xlink:href="#o" x="14.08" y="106.499"/><use xlink:href="#o" x="3.655" y="65.249"/><use xlink:href="#p" x="7.825" y="65.249"/><use xlink:href="#v" x="9.91" y="65.249"/><use xlink:href="#s" x="14.08" y="65.249"/><use xlink:href="#x" x="3.655" y="23.999"/><use xlink:href="#p" x="7.825" y="23.999"/><use xlink:href="#o" x="9.91" y="23.999"/><use xlink:href="#o" x="14.08" y="23.999"/><path d="M364.5 264V9" fill="none" stroke-width="1.25" stroke-linecap="square" stroke="#000" stroke-miterlimit="10"/><path d="M364.5 260.219H362m2.5-4.133H362m2.5-4.133H362m2.5-4.129H362m2.5-4.133H362m2.5-4.132H362m2.5-4.13H362m2.5-4.132H362m2.5-4.133h-5m5-4.129H362m2.5-4.133H362m2.5-4.132H362m2.5-4.13H362m2.5-4.132H362m2.5-4.133H362m2.5-4.129H362m2.5-4.133H362m2.5-4.133H362m2.5-4.128h-5m5-4.133H362m2.5-4.133H362m2.5-4.129H362m2.5-4.133H362m2.5-4.133H362m2.5-4.129H362m2.5-4.132H362m2.5-4.133H362m2.5-4.129H362m2.5-4.133h-5m5-4.133H362m2.5-4.129H362m2.5-4.132H362m2.5-4.133H362m2.5-4.13H362m2.5-4.132H362m2.5-4.133H362m2.5-4.129H362m2.5-4.132H362m2.5-4.133h-5m5-4.13H362m2.5-4.132H362m2.5-4.133H362m2.5-4.129H362m2.5-4.132H362m2.5-4.133H362m2.5-4.13H362m2.5-4.132H362m2.5-4.133H362m2.5-4.129h-5m5-4.133H362m2.5-4.132H362m2.5-4.13H362m2.5-4.132H362m2.5-4.133H362m2.5-4.129H362m2.5-4.133H362m2.5-4.132H362m2.5-4.13H362m2.5-4.132h-5m5-4.133H362m2.5-4.129H362" fill="none" stroke-width=".625" stroke="#000" stroke-miterlimit="10"/><use xlink:href="#y" x="370.75" y="230.874"/><use xlink:href="#o" x="373.248" y="230.874"/><use xlink:href="#p" x="377.418" y="230.874"/><use xlink:href="#r" x="379.502" y="230.874"/><use xlink:href="#s" x="383.673" y="230.874"/><use xlink:href="#o" x="370.75" y="188.999"/><use xlink:href="#p" x="374.92" y="188.999"/><use xlink:href="#o" x="377.005" y="188.999"/><use xlink:href="#o" x="381.175" y="188.999"/><use xlink:href="#o" x="370.75" y="147.749"/><use xlink:href="#p" x="374.92" y="147.749"/><use xlink:href="#r" x="377.005" y="147.749"/><use xlink:href="#s" x="381.175" y="147.749"/><use xlink:href="#o" x="370.75" y="106.499"/><use xlink:href="#p" x="374.92" y="106.499"/><use xlink:href="#s" x="377.005" y="106.499"/><use xlink:href="#o" x="381.175" y="106.499"/><use xlink:href="#o" x="370.75" y="65.249"/><use xlink:href="#p" x="374.92" y="65.249"/><use xlink:href="#v" x="377.005" y="65.249"/><use xlink:href="#s" x="381.175" y="65.249"/><use xlink:href="#x" x="370.75" y="23.999"/><use xlink:href="#p" x="374.92" y="23.999"/><use xlink:href="#o" x="377.005" y="23.999"/><use xlink:href="#o" x="381.175" y="23.999"/><g clip-path="url(#z)"><path d="M24.5 20.59l.625.015.625.04.625.07.625.098.625.125.625.156.625.18.625.206.625.239.625.265.625.29.625.32.625.347.625.375.625.399.625.43.625.457.625.48.625.512.625.535.625.562.625.586.625.618.625.64.625.664.625.696.625.714.625.746.625.77.625.793.625.82.625.84.625.867.625.895.625.914.625.941.625.961.625.989.625 1.007.625 1.032.625 1.054.625 1.075.625 1.101.625 1.117.625 1.145.625 1.16.625 1.184.625 1.203.625 1.226.625 1.242.625 1.262.625 1.285.625 1.301.625 1.32.625 1.34.625 1.356.625 1.375.625 1.39.625 1.41.625 1.422.625 1.442.625 1.46.625 1.47.625 1.488.625 1.504.625 1.515.625 1.532.625 1.546.625 1.555.625 1.57.625 1.586.625 1.594.625 1.61.625 1.617.625 1.629.625 1.636.625 1.653.625 1.66.625 1.668.625 1.675.625 1.688.625 1.695.625 1.7.625 1.71.625 1.715.625 1.723.625 1.727.625 1.734.625 1.738 1.25 3.492 1.25 3.508.625 1.758 1.25 3.523 1.875 5.297.625 1.77.625 1.765.625 1.77 1.875 5.297.625 1.758.625 1.761 1.25 3.508.625 1.75.625 1.746.625 1.743.625 1.734.625 1.73.625 1.727.625 1.719.625 1.71.625 1.704.625 1.699.625 1.691.625 1.684.625 1.672.625 1.664.625 1.656.625 1.649.625 1.632.625 1.63.625 1.613.625 1.605.625 1.594.625 1.578.625 1.57.625 1.555.625 1.547.625 1.527.625 1.52.625 1.5.625 1.492.625 1.472.625 1.461.625 1.446.625 1.43.625 1.41.625 1.398.625 1.383.625 1.363.625 1.348.625 1.332.625 1.312.625 1.297.625 1.278.625 1.261.625 1.242.625 1.22.625 1.206.625 1.184.625 1.164.625 1.148.625 1.125.625 1.106.625 1.086.625 1.062.625 1.047.625 1.024.625 1.003.625.98.625.962.625.937.625.918.625.895.625.875.625.851.625.829.625.804.625.785.625.762.625.742.625.715.625.695.625.668.625.649.625.625.625.601.625.579.625.554.625.531.625.512.625.485.625.46.625.438.625.418.625.39.625.368.625.344.625.324.625.297.625.273.625.25.625.23.625.204.625.183.625.156.625.137.625.113.625.09.625.067.625.043.625.023.625-.004.625-.023.625-.047.625-.066.625-.09.625-.114.625-.132.625-.157.625-.175.625-.2.625-.222.625-.239.625-.261.625-.282.625-.304.625-.32.625-.344.625-.364.625-.382.625-.403.625-.422.625-.441.625-.461.625-.477.625-.496.625-.515.625-.532.625-.55.625-.567.625-.586.625-.601.625-.617.625-.637.625-.652.625-.665.625-.683.625-.695.625-.715.625-.727.625-.742.625-.754.625-.77.625-.78.625-.798.625-.808.625-.824.625-.832.625-.848.625-.856.625-.867.625-.879.625-.89.625-.903.625-.91.625-.922.625-.93.625-.937.625-.945.625-.957.625-.965.625-.969.625-.98.625-.985.625-.992.625-.996.625-1.004.625-1.012.625-1.015.625-1.02.625-1.023.625-1.027 1.25-2.07 1.25-2.079.625-1.047.625-1.043.625-1.05.625-1.047 1.875-3.153.625-1.054 1.25-2.102.625-1.047.625-1.05.625-1.044.625-1.046.625-1.043.625-1.04.625-1.035 1.25-2.062 1.25-2.047.625-1.016.625-1.011.625-1.004.625-1 .625-.996.625-.989.625-.98.625-.977.625-.968.625-.961.625-.953.625-.946.625-.937.625-.926.625-.922.625-.91.625-.899.625-.89.625-.883.625-.871.625-.863.625-.848.625-.84.625-.828.625-.816.625-.809.625-.793.625-.781.625-.77.625-.754.625-.746.625-.73.625-.719.625-.703.625-.692.625-.675.625-.664.625-.653.625-.632.625-.622.625-.605.625-.594.625-.578.625-.559.625-.546.625-.532.625-.515.625-.5.625-.489.625-.468.625-.453.625-.438.625-.418.625-.406.625-.387.625-.375.625-.355.625-.336.625-.325.625-.304.625-.29.625-.273.625-.257.625-.239.625-.222.625-.204.625-.187.625-.172.625-.156.625-.137.625-.121.625-.102.625-.09.625-.07.625-.05.625-.036.625-.02.625-.003.625.016.625.03.625.048.625.062.625.082.625.098.625.113.625.129.625.145.625.164.625.18.625.19.625.212.625.226.625.242.625.254.625.274.625.285.625.305.625.316.625.332.625.348.625.36.625.374.625.39.625.407.625.418.625.43.625.445.625.457.625.473.625.484.625.496.625.512.625.52.625.534.625.547.625.559.625.57.625.578.625.594.625.602.625.617.625.621.625.637.625.644.625.653.625.664.625.672.625.68.625.69.625.7.625.707.625.715.625.722.625.73.625.74.625.745.625.75.625.758.625.766.625.77.625.773.625.78.625.786 1.25 1.586.625.8 1.25 1.61 1.25 1.625.625.816 1.25 1.641 1.25 1.649 1.25 1.656.625.832 1.25 1.656.625.832.625.828.625.832 1.875 2.485.625.824.625.82.625.824 1.25 1.633 1.25 1.625 1.25 1.61.625.8.625.793 1.25 1.578 1.25 1.555.625.77.625.765.625.758.625.754.625.746.625.738.625.73.625.727.625.72.625.706.625.703.625.696.625.687.625.676.625.672.625.66.625.648.625.645.625.633.625.62.625.614.625.602.625.593.625.582.625.575.625.558.625.551.625.54.625.526.625.52.625.504.625.492.625.48.625.473.625.457.625.446.625.433.625.418.625.41.625.395.625.383.625.37.625.356.625.344.625.328.625.32.625.305.625.29.625.276.625.262.625.25.625.235.625.222.625.211.625.195.625.18.625.168.625.152.625.137" fill="none" stroke-width="1.25" stroke-linecap="round" stroke-linejoin="round" stroke="#00008b" stroke-miterlimit="10"/></g><g clip-path="url(#A)"><path d="M24.5 185.852l1.25-3.04.625-1.515.625-1.52.625-1.515 1.25-3.024.625-1.508.625-1.503 1.25-3 .625-1.493.625-1.488.625-1.484.625-1.48.625-1.473.625-1.465.625-1.461.625-1.453.625-1.45.625-1.437.625-1.43.625-1.422.625-1.418.625-1.402.625-1.394.625-1.387.625-1.375.625-1.367.625-1.356.625-1.344.625-1.332.625-1.32.625-1.309.625-1.296.625-1.282.625-1.273.625-1.258.625-1.242.625-1.23.625-1.215.625-1.2.625-1.183.625-1.172.625-1.156.625-1.14.625-1.122.625-1.11.625-1.09.625-1.073.625-1.055.625-1.04.625-1.023.625-1.004.625-.984.625-.969.625-.949.625-.93.625-.914.625-.89.625-.871.625-.856.625-.832.625-.812.625-.793.625-.774.625-.754.625-.73.625-.711.625-.692.625-.667.625-.649.625-.625.625-.601.625-.583.625-.562.625-.54.625-.515.625-.496.625-.469.625-.453.625-.425.625-.403.625-.383.625-.359.625-.336.625-.316.625-.29.625-.269.625-.242.625-.223.625-.199.625-.18.625-.152.625-.129.625-.105.625-.086.625-.059.625-.039.625-.016.625.008.625.031.625.051.625.078.625.098.625.121.625.145.625.168.625.187.625.215.625.23.625.258.625.278.625.3.625.32.625.344.625.364.625.386.625.41.625.426.625.453.625.47.625.491.625.508.625.535.625.551.625.574.625.59.625.61.625.632.625.649.625.668.625.687.625.707.625.723.625.742.625.762.625.777.625.793.625.813.625.828.625.848.625.859.625.879.625.89.625.91.625.926.625.938.625.953.625.969.625.98.625.996.625 1.008.625 1.024.625 1.035.625 1.047.625 1.058.625 1.074.625 1.082.625 1.094.625 1.106.625 1.117.625 1.125.625 1.137.625 1.144.625 1.156.625 1.164.625 1.172.625 1.184.625 1.187.625 1.196.625 1.207.625 1.21.625 1.215.625 1.223.625 1.23.625 1.235.625 1.238.625 1.246.625 1.25 1.25 2.508 1.25 2.524.625 1.265 1.25 2.54.625 1.273.625 1.27 1.25 2.546.625 1.277 1.875 3.82 1.25 2.54 1.875 3.797 1.25 2.515 1.25 2.5 1.25 2.485 1.25 2.46.625 1.223.625 1.22.625 1.21.625 1.203.625 1.2.625 1.187.625 1.183.625 1.172.625 1.168.625 1.157.625 1.148.625 1.14.625 1.13.625 1.117.625 1.11.625 1.1.625 1.09.625 1.079.625 1.066.625 1.055.625 1.043.625 1.03.625 1.02.625 1.008.625.992.625.98.625.97.625.953.625.941.625.926.625.91.625.899.625.882.625.868.625.855.625.836.625.824.625.805.625.793.625.773.625.762.625.742.625.723.625.71.625.692.625.676.625.66.625.64.625.622.625.605.625.59.625.57.625.555.625.531.625.52.625.496.625.48.625.461.625.446.625.422.625.406.625.39.625.368.625.347.625.332.625.313.625.293.625.273.625.258.625.234.625.22.625.198.625.18.625.16.625.14.625.126.625.101.625.086.625.067.625.047.625.031.625.008.625-.008.625-.027.625-.047.625-.063.625-.086.625-.097.625-.121.625-.137.625-.156.625-.172.625-.192.625-.207.625-.226.625-.246.625-.258.625-.281.625-.293.625-.313.625-.328.625-.348.625-.36.625-.378.625-.394.625-.41.625-.426.625-.438.625-.457.625-.473.625-.488.625-.5.625-.516.625-.53.625-.544.625-.558.625-.575.625-.585.625-.598.625-.613.625-.625.625-.637.625-.649.625-.664.625-.672.625-.687.625-.695.625-.707.625-.72.625-.73.625-.738.625-.75.625-.762.625-.77.625-.776.625-.786.625-.797.625-.804.625-.813.625-.82.625-.828.625-.836.625-.84.625-.851.625-.856.625-.86.625-.867 1.25-1.75.625-.882 1.25-1.782.625-.894 1.25-1.805.625-.906 1.25-1.82.625-.914 1.875-2.754.625-.922.625-.918 2.5-3.688 2.5-3.672 1.25-1.828 1.875-2.718 1.25-1.797 1.25-1.782.625-.882.625-.88.625-.874.625-.871.625-.864.625-.855.625-.852.625-.847.625-.836.625-.832.625-.828.625-.817.625-.808.625-.801.625-.793.625-.785.625-.778.625-.77.625-.757.625-.75.625-.742.625-.73.625-.72.625-.71.625-.7.625-.691.625-.68.625-.668.625-.656.625-.644.625-.633.625-.621.625-.61.625-.601.625-.586.625-.574.625-.559.625-.55.625-.536.625-.523.625-.508.625-.496.625-.485.625-.468.625-.457.625-.442.625-.426.625-.414.625-.402.625-.387.625-.37.625-.356.625-.344.625-.328.625-.313.625-.3.625-.286.625-.27.625-.253.625-.238.625-.227.625-.21.625-.192.625-.18.625-.168.625-.148.625-.133.625-.121.625-.102.625-.09.625-.074.625-.058.625-.043.625-.028.625-.011h.625l.625.015.625.035.625.043.625.063.625.078.625.09.625.105.625.121.625.137.625.148.625.168.625.176.625.196.625.207.625.218.625.239.625.25.625.261.625.278.625.289.625.304.625.317.625.328.625.344.625.355.625.371.625.38.625.394.625.406.625.418.625.43.625.441.625.453.625.465.625.477.625.488.625.5.625.508.625.52.625.53.625.54.625.55.625.559.625.57.625.578.625.59.625.598.625.601.625.618.625.62.625.633.625.637.625.645.625.656.625.66.625.664.625.676.625.68.625.687 1.25 1.39 1.25 1.415.625.715.625.718 1.25 1.454.625.73 1.25 1.477.625.742.625.746 1.25 1.5 1.25 1.508 1.875 2.273" fill="none" stroke-width="1.25" stroke-linecap="round" stroke-linejoin="round" stroke="#006400" stroke-miterlimit="10"/></g><path d="M427.426 264h340V9h-340zm0 0" fill="#fff"/><g clip-path="url(#B)"><path d="M427.426 264V9" fill="none" stroke-width=".625" stroke-linecap="round" stroke="#bfbfbf" stroke-miterlimit="10"/></g><g clip-path="url(#C)"><path d="M427.426 94h340" fill="none" stroke-width=".625" stroke-linecap="round" stroke="#bfbfbf" stroke-miterlimit="10"/></g><g clip-path="url(#D)"><path d="M427.426 264V9" fill="none" stroke-width=".625" stroke-linecap="round" stroke="#bfbfbf" stroke-dasharray="12.5,18.75" stroke-miterlimit="10"/></g><g clip-path="url(#E)"><path d="M512.426 264V9" fill="none" stroke-width=".625" stroke-linecap="round" stroke="#bfbfbf" stroke-dasharray="12.5,18.75" stroke-miterlimit="10"/></g><g clip-path="url(#F)"><path d="M597.426 264V9" fill="none" stroke-width=".625" stroke-linecap="round" stroke="#bfbfbf" stroke-dasharray="12.5,18.75" stroke-miterlimit="10"/></g><g clip-path="url(#G)"><path d="M682.426 264V9" fill="none" stroke-width=".625" stroke-linecap="round" stroke="#bfbfbf" stroke-dasharray="12.5,18.75" stroke-miterlimit="10"/></g><g clip-path="url(#H)"><path d="M767.426 264V9" fill="none" stroke-width=".625" stroke-linecap="round" stroke="#bfbfbf" stroke-dasharray="12.5,18.75" stroke-miterlimit="10"/></g><g clip-path="url(#I)"><path d="M427.426 264h340" fill="none" stroke-width=".625" stroke-linecap="round" stroke="#bfbfbf" stroke-dasharray="12.5,18.75" stroke-miterlimit="10"/></g><g clip-path="url(#J)"><path d="M427.426 221.5h340" fill="none" stroke-width=".625" stroke-linecap="round" stroke="#bfbfbf" stroke-dasharray="12.5,18.75" stroke-miterlimit="10"/></g><g clip-path="url(#K)"><path d="M427.426 179h340" fill="none" stroke-width=".625" stroke-linecap="round" stroke="#bfbfbf" stroke-dasharray="12.5,18.75" stroke-miterlimit="10"/></g><g clip-path="url(#L)"><path d="M427.426 136.5h340" fill="none" stroke-width=".625" stroke-linecap="round" stroke="#bfbfbf" stroke-dasharray="12.5,18.75" stroke-miterlimit="10"/></g><g clip-path="url(#M)"><path d="M427.426 94h340" fill="none" stroke-width=".625" stroke-linecap="round" stroke="#bfbfbf" stroke-dasharray="12.5,18.75" stroke-miterlimit="10"/></g><g clip-path="url(#N)"><path d="M427.426 51.5h340" fill="none" stroke-width=".625" stroke-linecap="round" stroke="#bfbfbf" stroke-dasharray="12.5,18.75" stroke-miterlimit="10"/></g><g clip-path="url(#O)"><path d="M427.426 9h340" fill="none" stroke-width=".625" stroke-linecap="round" stroke="#bfbfbf" stroke-dasharray="12.5,18.75" stroke-miterlimit="10"/></g><path d="M427.426 264h340" fill="none" stroke-width="1.25" stroke-linecap="square" stroke="#000" stroke-miterlimit="10"/><path d="M427.426 264v-5m8.5 5v-2.5m8.5 2.5v-2.5m8.5 2.5v-2.5m8.5 2.5v-2.5m8.5 2.5v-2.5m8.5 2.5v-2.5m8.5 2.5v-2.5m8.5 2.5v-2.5m8.5 2.5v-2.5m8.5 2.5v-5m8.5 5v-2.5m8.5 2.5v-2.5m8.5 2.5v-2.5m8.5 2.5v-2.5m8.5 2.5v-2.5m8.5 2.5v-2.5m8.5 2.5v-2.5m8.5 2.5v-2.5m8.5 2.5v-2.5m8.5 2.5v-5m8.5 5v-2.5m8.5 2.5v-2.5m8.5 2.5v-2.5m8.5 2.5v-2.5m8.5 2.5v-2.5m8.5 2.5v-2.5m8.5 2.5v-2.5m8.5 2.5v-2.5m8.5 2.5v-2.5m8.5 2.5v-5m8.5 5v-2.5m8.5 2.5v-2.5m8.5 2.5v-2.5m8.5 2.5v-2.5m8.5 2.5v-2.5m8.5 2.5v-2.5m8.5 2.5v-2.5m8.5 2.5v-2.5m8.5 2.5v-2.5m8.5 2.5v-5" fill="none" stroke-width=".625" stroke="#000" stroke-miterlimit="10"/><g clip-path="url(#P)"><use xlink:href="#o" x="422.212" y="273.999"/><use xlink:href="#p" x="426.382" y="273.999"/><use xlink:href="#o" x="428.467" y="273.999"/></g><g clip-path="url(#Q)"><use xlink:href="#r" x="507.212" y="273.999"/><use xlink:href="#p" x="511.382" y="273.999"/><use xlink:href="#s" x="513.467" y="273.999"/></g><g clip-path="url(#R)"><use xlink:href="#s" x="592.212" y="273.999"/><use xlink:href="#p" x="596.382" y="273.999"/><use xlink:href="#o" x="598.467" y="273.999"/></g><g clip-path="url(#S)"><use xlink:href="#v" x="677.212" y="273.999"/><use xlink:href="#p" x="681.382" y="273.999"/><use xlink:href="#s" x="683.467" y="273.999"/></g><g clip-path="url(#T)"><use xlink:href="#x" x="760.127" y="273.999"/><use xlink:href="#o" x="764.297" y="273.999"/><use xlink:href="#p" x="768.467" y="273.999"/><use xlink:href="#o" x="770.552" y="273.999"/></g><path d="M427.426 9h340" fill="none" stroke-width="1.25" stroke-linecap="square" stroke="#000" stroke-miterlimit="10"/><path d="M427.426 9v5m8.5-5v2.5m8.5-2.5v2.5m8.5-2.5v2.5m8.5-2.5v2.5m8.5-2.5v2.5m8.5-2.5v2.5m8.5-2.5v2.5m8.5-2.5v2.5m8.5-2.5v2.5m8.5-2.5v5m8.5-5v2.5m8.5-2.5v2.5m8.5-2.5v2.5m8.5-2.5v2.5m8.5-2.5v2.5m8.5-2.5v2.5m8.5-2.5v2.5m8.5-2.5v2.5m8.5-2.5v2.5m8.5-2.5v5m8.5-5v2.5m8.5-2.5v2.5m8.5-2.5v2.5m8.5-2.5v2.5m8.5-2.5v2.5m8.5-2.5v2.5m8.5-2.5v2.5m8.5-2.5v2.5m8.5-2.5v2.5m8.5-2.5v5m8.5-5v2.5m8.5-2.5v2.5m8.5-2.5v2.5m8.5-2.5v2.5m8.5-2.5v2.5m8.5-2.5v2.5m8.5-2.5v2.5m8.5-2.5v2.5m8.5-2.5v2.5m8.5-2.5v5" fill="none" stroke-width=".625" stroke="#000" stroke-miterlimit="10"/><use xlink:href="#o" x="422.212" y="6.499"/><use xlink:href="#p" x="426.382" y="6.499"/><use xlink:href="#o" x="428.467" y="6.499"/><use xlink:href="#r" x="507.212" y="6.499"/><use xlink:href="#p" x="511.382" y="6.499"/><use xlink:href="#s" x="513.467" y="6.499"/><use xlink:href="#s" x="592.212" y="6.499"/><use xlink:href="#p" x="596.382" y="6.499"/><use xlink:href="#o" x="598.467" y="6.499"/><use xlink:href="#v" x="677.212" y="6.499"/><use xlink:href="#p" x="681.382" y="6.499"/><use xlink:href="#s" x="683.467" y="6.499"/><use xlink:href="#x" x="760.127" y="6.499"/><use xlink:href="#o" x="764.297" y="6.499"/><use xlink:href="#p" x="768.467" y="6.499"/><use xlink:href="#o" x="770.552" y="6.499"/><path d="M427.426 264V9" fill="none" stroke-width="1.25" stroke-linecap="square" stroke="#000" stroke-miterlimit="10"/><path d="M427.426 264h5m-5-4.25h2.5m-2.5-4.25h2.5m-2.5-4.25h2.5m-2.5-4.25h2.5m-2.5-4.25h2.5m-2.5-4.25h2.5m-2.5-4.25h2.5m-2.5-4.25h2.5m-2.5-4.25h2.5m-2.5-4.25h5m-5-4.25h2.5m-2.5-4.25h2.5m-2.5-4.25h2.5m-2.5-4.25h2.5m-2.5-4.25h2.5m-2.5-4.25h2.5m-2.5-4.25h2.5m-2.5-4.25h2.5m-2.5-4.25h2.5m-2.5-4.25h5m-5-4.25h2.5m-2.5-4.25h2.5m-2.5-4.25h2.5m-2.5-4.25h2.5m-2.5-4.25h2.5m-2.5-4.25h2.5m-2.5-4.25h2.5m-2.5-4.25h2.5m-2.5-4.25h2.5m-2.5-4.25h5m-5-4.25h2.5m-2.5-4.25h2.5m-2.5-4.25h2.5m-2.5-4.25h2.5m-2.5-4.25h2.5m-2.5-4.25h2.5m-2.5-4.25h2.5m-2.5-4.25h2.5m-2.5-4.25h2.5m-2.5-4.25h5m-5-4.25h2.5m-2.5-4.25h2.5m-2.5-4.25h2.5m-2.5-4.25h2.5m-2.5-4.25h2.5m-2.5-4.25h2.5m-2.5-4.25h2.5m-2.5-4.25h2.5m-2.5-4.25h2.5m-2.5-4.25h5m-5-4.25h2.5m-2.5-4.25h2.5m-2.5-4.25h2.5m-2.5-4.25h2.5m-2.5-4.25h2.5m-2.5-4.25h2.5m-2.5-4.25h2.5m-2.5-4.25h2.5m-2.5-4.25h2.5m-2.5-4.25h5" fill="none" stroke-width=".625" stroke="#000" stroke-miterlimit="10"/><g clip-path="url(#U)"><use xlink:href="#y" x="408.252" y="267.749"/><use xlink:href="#r" x="410.75" y="267.749"/><use xlink:href="#p" x="414.92" y="267.749"/><use xlink:href="#o" x="417.005" y="267.749"/></g><g clip-path="url(#V)"><use xlink:href="#y" x="408.252" y="225.249"/><use xlink:href="#x" x="410.75" y="225.249"/><use xlink:href="#p" x="414.92" y="225.249"/><use xlink:href="#s" x="417.005" y="225.249"/></g><g clip-path="url(#W)"><use xlink:href="#y" x="408.252" y="182.749"/><use xlink:href="#x" x="410.75" y="182.749"/><use xlink:href="#p" x="414.92" y="182.749"/><use xlink:href="#o" x="417.005" y="182.749"/></g><g clip-path="url(#X)"><use xlink:href="#y" x="408.252" y="139.624"/><use xlink:href="#o" x="410.75" y="139.624"/><use xlink:href="#p" x="414.92" y="139.624"/><use xlink:href="#s" x="417.005" y="139.624"/></g><use xlink:href="#o" x="410.749" y="97.749"/><use xlink:href="#p" x="414.919" y="97.749"/><use xlink:href="#o" x="417.004" y="97.749"/><use xlink:href="#o" x="410.749" y="55.249"/><use xlink:href="#p" x="414.919" y="55.249"/><use xlink:href="#s" x="417.004" y="55.249"/><use xlink:href="#x" x="410.749" y="12.749"/><use xlink:href="#p" x="414.919" y="12.749"/><use xlink:href="#o" x="417.004" y="12.749"/><path d="M767.426 264V9" fill="none" stroke-width="1.25" stroke-linecap="square" stroke="#000" stroke-miterlimit="10"/><path d="M767.426 264h-5m5-4.25h-2.5m2.5-4.25h-2.5m2.5-4.25h-2.5m2.5-4.25h-2.5m2.5-4.25h-2.5m2.5-4.25h-2.5m2.5-4.25h-2.5m2.5-4.25h-2.5m2.5-4.25h-2.5m2.5-4.25h-5m5-4.25h-2.5m2.5-4.25h-2.5m2.5-4.25h-2.5m2.5-4.25h-2.5m2.5-4.25h-2.5m2.5-4.25h-2.5m2.5-4.25h-2.5m2.5-4.25h-2.5m2.5-4.25h-2.5m2.5-4.25h-5m5-4.25h-2.5m2.5-4.25h-2.5m2.5-4.25h-2.5m2.5-4.25h-2.5m2.5-4.25h-2.5m2.5-4.25h-2.5m2.5-4.25h-2.5m2.5-4.25h-2.5m2.5-4.25h-2.5m2.5-4.25h-5m5-4.25h-2.5m2.5-4.25h-2.5m2.5-4.25h-2.5m2.5-4.25h-2.5m2.5-4.25h-2.5m2.5-4.25h-2.5m2.5-4.25h-2.5m2.5-4.25h-2.5m2.5-4.25h-2.5m2.5-4.25h-5m5-4.25h-2.5m2.5-4.25h-2.5m2.5-4.25h-2.5m2.5-4.25h-2.5m2.5-4.25h-2.5m2.5-4.25h-2.5m2.5-4.25h-2.5m2.5-4.25h-2.5m2.5-4.25h-2.5m2.5-4.25h-5m5-4.25h-2.5m2.5-4.25h-2.5m2.5-4.25h-2.5m2.5-4.25h-2.5m2.5-4.25h-2.5m2.5-4.25h-2.5m2.5-4.25h-2.5m2.5-4.25h-2.5m2.5-4.25h-2.5m2.5-4.25h-5" fill="none" stroke-width=".625" stroke="#000" stroke-miterlimit="10"/><g clip-path="url(#Y)"><use xlink:href="#y" x="773.674" y="267.749"/><use xlink:href="#r" x="776.172" y="267.749"/><use xlink:href="#p" x="780.341" y="267.749"/><use xlink:href="#o" x="782.427" y="267.749"/></g><g clip-path="url(#Z)"><use xlink:href="#y" x="773.674" y="225.249"/><use xlink:href="#x" x="776.172" y="225.249"/><use xlink:href="#p" x="780.341" y="225.249"/><use xlink:href="#s" x="782.427" y="225.249"/></g><g clip-path="url(#aa)"><use xlink:href="#y" x="773.674" y="182.749"/><use xlink:href="#x" x="776.172" y="182.749"/><use xlink:href="#p" x="780.341" y="182.749"/><use xlink:href="#o" x="782.427" y="182.749"/></g><g clip-path="url(#ab)"><use xlink:href="#y" x="773.674" y="139.624"/><use xlink:href="#o" x="776.172" y="139.624"/><use xlink:href="#p" x="780.341" y="139.624"/><use xlink:href="#s" x="782.427" y="139.624"/></g><use xlink:href="#o" x="773.674" y="97.749"/><use xlink:href="#p" x="777.844" y="97.749"/><use xlink:href="#o" x="779.929" y="97.749"/><use xlink:href="#o" x="773.674" y="55.249"/><use xlink:href="#p" x="777.844" y="55.249"/><use xlink:href="#s" x="779.929" y="55.249"/><use xlink:href="#x" x="773.674" y="12.749"/><use xlink:href="#p" x="777.844" y="12.749"/><use xlink:href="#o" x="779.929" y="12.749"/><g clip-path="url(#ac)"><path d="M428.05 316.504l.626-37.566.625-22.024.625-15.676.625-12.203.625-10.012.625-8.503.625-7.403.625-6.566.625-5.906.625-5.372.625-4.933.625-4.57.625-4.254.625-3.989.625-3.754.625-3.546.625-3.372.625-3.203.625-3.062.625-2.934.625-2.808.625-2.703.625-2.606.625-2.516.625-2.43.625-2.347.625-2.277.625-2.211.625-2.149.625-2.086.625-2.03.625-1.977.625-1.926.625-1.88.625-1.831.625-1.79.625-1.745.625-1.707.625-1.668.625-1.633.625-1.598.625-1.562.625-1.528.625-1.5.625-1.464.625-1.434.625-1.406.625-1.38.625-1.347.625-1.32.625-1.297.625-1.27.625-1.242.625-1.218.625-1.196.625-1.168.625-1.144.625-1.121.625-1.102.625-1.074.625-1.055.625-1.027.625-1.012.625-.984.625-.969.625-.945.625-.922.625-.903.625-.882.625-.864.625-.84.625-.82.625-.8.625-.782.625-.762.625-.742.625-.722.625-.704.625-.683.625-.664.625-.649.625-.629.625-.605.625-.59.625-.57.625-.555.625-.535.625-.516.625-.5.625-.48.625-.461.625-.445.625-.426.625-.41.625-.39.625-.376.625-.355.625-.34.625-.324.625-.305.625-.29.625-.269.625-.254.625-.238.625-.223.625-.203.625-.187.625-.172.625-.156.625-.14.625-.126.625-.11.625-.09.625-.077.625-.063.625-.043.625-.031.625-.016h.625l.625.012.625.031.625.043.625.059.625.074.625.086.625.102.625.117.625.129.625.14.625.157.625.171.625.18.625.2.625.206.625.223.625.234.625.247.625.257.625.274.625.281.625.297.625.305.625.32.625.328.625.34.625.351.625.364.625.37.625.388.625.39.625.406.625.41.625.426.625.434.625.441.625.45.625.46.625.47.625.476.625.488.625.492.625.5.625.512.625.516.625.527.625.531.625.54.625.542.625.555.625.559.625.562.625.57.625.575.625.582 1.25 1.18.625.597.625.602.625.605.625.61.625.613 1.25 1.242.625.625 1.25 1.258.625.632.625.637 1.25 1.281 1.875 1.934 1.875 1.945.625.653.625.648 1.25 1.305.625.648 1.25 1.305 1.25 1.297.625.644.625.649.625.644.625.64.625.645 1.25 1.274 1.25 1.266.625.628.625.625.625.622 1.25 1.234 1.25 1.219 1.25 1.203.625.594.625.59 1.25 1.163.625.575.625.57.625.562.625.559.625.555.625.547.625.539.625.535.625.527.625.524.625.515.625.508.625.5.625.496.625.488.625.48.625.474.625.464.625.457.625.45.625.441.625.434.625.425.625.418.625.407.625.402.625.39.625.387.625.375.625.364.625.359.625.348.625.34.625.328.625.324.625.308.625.305.625.293.625.281.625.278.625.265.625.254.625.246.625.235.625.226.625.215.625.207.625.2.625.187.625.176.625.168.625.156.625.148.625.137.625.129.625.117.625.106.625.097.625.09.625.074.625.07.625.06.625.046.625.04.625.026.625.02.625.008h.625l.625-.012.625-.02.625-.03.625-.044.625-.047.625-.058.625-.07.625-.079.625-.086.625-.097.625-.106.625-.117.625-.125.625-.133.625-.14.625-.153.625-.16.625-.168.625-.18.625-.183.625-.195.625-.203.625-.211.625-.22.625-.23.625-.234.625-.242.625-.254.625-.258.625-.266.625-.277.625-.281.625-.285.625-.297.625-.305.625-.308.625-.317.625-.324.625-.328.625-.336.625-.344.625-.348.625-.355 1.25-.727 1.25-.75.625-.382.625-.387.625-.395.625-.398.625-.402.625-.407.625-.41.625-.418 1.25-.844.625-.425 1.25-.867 1.25-.883 1.25-.89.625-.45.625-.453 1.25-.914.625-.461.625-.465.625-.461.625-.469.625-.465 1.25-.937.625-.473.625-.469.625-.472.625-.477 1.875-1.418.625-.476 2.5-1.89 3.125-2.345.625-.46.625-.465.625-.461 1.875-1.371 1.25-.899 1.25-.89.625-.442.625-.437.625-.434.625-.43 1.25-.851.625-.418 1.25-.828.625-.407.625-.402.625-.398.625-.395 1.25-.773.625-.38 1.25-.741.625-.364 1.25-.71.625-.348.625-.34.625-.336.625-.328.625-.324.625-.317.625-.312.625-.305.625-.3.625-.294.625-.285.625-.277.625-.274.625-.265.625-.258.625-.25.625-.246.625-.239.625-.23.625-.223.625-.218.625-.207.625-.204.625-.195.625-.184.625-.18.625-.171.625-.164.625-.16.625-.149.625-.14.625-.133.625-.125.625-.121.625-.11.625-.101.625-.098.625-.086.625-.078.625-.074.625-.063.625-.054.625-.051.625-.04.625-.03.625-.028.625-.015.625-.008h.625l.625.008.625.011.625.024.625.031.625.035.625.047.625.055.625.058.625.07.625.075.625.086.625.09.625.097.625.106.625.113.625.117.625.13.625.136.625.14.625.149.625.152.625.164.625.168.625.176.625.184.625.187 1.25.399.625.21.625.215.625.22.625.226.625.234.625.238.625.246.625.25.625.254 1.25.532.625.273.625.277 1.25.57.625.294 1.25.601.625.309.625.312 1.25.633.625.324 1.25.664.625.336.625.34.625.344.625.348 1.25.703.625.355 1.875 1.09.625.367 1.25.742.625.375 1.875 1.137 1.25.766 2.5 1.547" fill="none" stroke-width="1.25" stroke-linecap="round" stroke-linejoin="round" stroke="#00008b" stroke-miterlimit="10"/></g><g clip-path="url(#ad)"><path d="M437.426 292.398l.625-10.457.625-9.289.625-8.304.625-7.477.625-6.77.625-6.156.625-5.629.625-5.171.625-4.766.625-4.418.625-4.102.625-3.824.625-3.578.625-3.36.625-3.16.625-2.98.625-2.824.625-2.676.625-2.547.625-2.426.625-2.316.625-2.219.625-2.129.625-2.043.625-1.972.625-1.899.625-1.836.625-1.773.625-1.723.625-1.672.625-1.625.625-1.582.625-1.543.625-1.504.625-1.468.625-1.442.625-1.41.625-1.379.625-1.355.625-1.336.625-1.309.625-1.289.625-1.27.625-1.25.625-1.234.625-1.219.625-1.203.625-1.187.625-1.176.625-1.16.625-1.152.625-1.137.625-1.129.625-1.121.625-1.11.625-1.097.625-1.094.625-1.082.625-1.074.625-1.067.625-1.062.625-1.055 1.25-2.086.625-1.03.625-1.028.625-1.024.625-1.015.625-1.012.625-1.004.625-1 .625-.992.625-.988.625-.985 1.25-1.953 1.25-1.93.625-.957.625-.953 1.25-1.89.625-.938.625-.93.625-.925.625-.922.625-.918.625-.91.625-.907.625-.898.625-.895.625-.886.625-.883.625-.879.625-.871.625-.863.625-.86.625-.855 1.25-1.688.625-.832.625-.828.625-.82.625-.813.625-.808.625-.797.625-.793.625-.79.625-.777.625-.77.625-.765.625-.754.625-.75.625-.742.625-.73.625-.727.625-.715.625-.707.625-.703.625-.687.625-.684.625-.676.625-.664.625-.656.625-.648.625-.637.625-.63.625-.62.625-.61.625-.601.625-.594.625-.582.625-.57.625-.563.625-.55.625-.543.625-.532.625-.523.625-.512.625-.504.625-.488.625-.48.625-.47.625-.46.625-.45.625-.437.625-.43.625-.414.625-.406.625-.394.625-.383.625-.375.625-.36.625-.351.625-.34.625-.324.625-.32.625-.305.625-.293.625-.282.625-.273.625-.262.625-.246.625-.238.625-.223.625-.215.625-.203.625-.191.625-.18.625-.168.625-.156.625-.148.625-.133.625-.121.625-.114.625-.097.625-.09.625-.074.625-.067.625-.054.625-.043.625-.032.625-.023.625-.008h.625l.625.016.625.02.625.034.625.047.625.059.625.066.625.078.625.086.625.102.625.11.625.116.625.133.625.14.625.15.625.163.625.168.625.184.625.191.625.2.625.21.625.22.625.23.625.238.625.246.625.258.625.266.625.273.625.285.625.293.625.3.625.31.625.316.625.324.625.336.625.34.625.351.625.356.625.363.625.375.625.38.625.386.625.39.625.403.625.406.625.414.625.418.625.426.625.433.625.438.625.445.625.45.625.453.625.46.625.465.625.47 1.25.952.625.485.625.488.625.492.625.496.625.5.625.504.625.512.625.508 1.25 1.03.625.52 1.25 1.047.625.528 1.875 1.593 1.25 1.07 2.5 2.157.625.543.625.539.625.543.625.54.625.542.625.54.625.542 2.5 2.156 1.875 1.606.625.531 1.875 1.582.625.523 1.25 1.04 1.875 1.535 1.25 1.008 1.25.992 1.25.976.625.485.625.476.625.473.625.469.625.464.625.461.625.454.625.449.625.445.625.438.625.433.625.43.625.422 1.25.828.625.402.625.399.625.39.625.387.625.379.625.371.625.363.625.36.625.351.625.344.625.34.625.328.625.324.625.317.625.308.625.3.625.294.625.285.625.277.625.27.625.262.625.257.625.247.625.238.625.23.625.219.625.215.625.207.625.195.625.192.625.18.625.171.625.164.625.156.625.145.625.14.625.13.625.12.625.114.625.105.625.094.625.086.625.078.625.07.625.063.625.05.625.048.625.035.625.023.625.02.625.008.625.004.625-.008.625-.016.625-.027.625-.032.625-.042.625-.047.625-.059.625-.066.625-.075.625-.082.625-.093.625-.098.625-.11.625-.113.625-.125.625-.129.625-.136.625-.149.625-.156.625-.16.625-.168.625-.18.625-.183.625-.192.625-.199.625-.207.625-.211.625-.223.625-.226.625-.235.625-.238.625-.25.625-.254.625-.258.625-.265.625-.274 1.25-.562.625-.293.625-.297 1.25-.61 1.25-.632.625-.324.625-.329.625-.335.625-.34.625-.344.625-.348.625-.351.625-.36 1.25-.726.625-.371 1.25-.75.625-.383 1.25-.774.625-.39.625-.395 1.25-.797.625-.402 1.25-.812.625-.41 1.875-1.243 1.25-.836 1.875-1.265 3.125-2.13.625-.429 1.875-1.277.625-.43 1.875-1.277.625-.422.625-.426.625-.422.625-.418.625-.422.625-.418.625-.414.625-.418.625-.41.625-.414 1.875-1.219 1.875-1.195 1.25-.781.625-.387.625-.383 1.25-.758 1.25-.742 1.25-.726.625-.356 1.25-.703.625-.344 1.25-.672.625-.332.625-.324.625-.32.625-.316 1.25-.618.625-.297.625-.293.625-.289.625-.285.625-.277.625-.274.625-.265 1.25-.516.625-.246.625-.242.625-.234.625-.23.625-.224.625-.218.625-.211.625-.203.625-.2.625-.191.625-.184.625-.175.625-.172.625-.164.625-.157.625-.152.625-.144.625-.137.625-.129.625-.121.625-.117.625-.11.625-.101.625-.094.625-.086.625-.082.625-.074.625-.063.625-.058.625-.055" fill="none" stroke-width="1.25" stroke-linecap="round" stroke-linejoin="round" stroke="#006400" stroke-miterlimit="10"/></g></svg>