<svg xmlns="http://www.w3.org/2000/svg" xmlns:xlink="http://www.w3.org/1999/xlink" width="388.543" height="79.655" viewBox="0 0 291.407 59.741"><defs><clipPath id="a"><path d="M.5 59.242h291v-59H.5zM290.621 34v.84l-10.2 1.8 8.759-2.218-8.758-2.219zm0 0"/></clipPath><clipPath id="b"><path d="M274 25h17.406v19H274zm0 0"/></clipPath><clipPath id="c"><path d="M.5 59.242h291v-59H.5zm22.398-58.18h.84l1.801 10.2L23.32 2.5l-2.218 8.762zm0 0"/></clipPath><clipPath id="d"><path d="M14 .242h18V18H14zm0 0"/></clipPath><clipPath id="e"><path d="M.5 59.242h291v-59H.5zm242.96-18.16l.778-.3 5.282 9.48-5.22-7.98.84 9.48zm0 0"/></clipPath><symbol overflow="visible" id="f"><path d="M4.172-7.938l.031-.328h-.281l-1.078.032c-.188 0-.406 0-.922-.016l-.766-.016-.031.329.563.03c.28 0 .421.095.421.313 0 .172-.046.547-.109.907L.969-.657C.922-.436.78-.358.25-.28L.187.03h.5C1.047.016 1.798 0 2.032 0L4.61.031h.11c.172 0 .468 0 .86-.015L5.968 0c0-.297.125-1.234.281-1.969h-.375l-.203.735c-.11.39-.203.593-.313.656-.156.047-.921.11-1.718.11-.594 0-.922-.016-1.704-.079v-.047c0-.172.016-.265.016-.375l1.11-6.36c.078-.452.171-.53.609-.577zm0 0"/></symbol><symbol overflow="visible" id="g"><path d="M.25-1.047c0 .234-.016.39-.094.766-.031.156-.031.187-.047.265.172.094.375.141.516.141.39 0 .86-.344 1.234-.906l.907-1.39.125.827C3.047-.328 3.328.125 3.75.125c.266 0 .656-.203 1.031-.547l.578-.516-.093-.234c-.438.36-.735.531-.922.531C4.156-.64 4-.75 3.89-.984a4.761 4.761 0 01-.313-1.032l-.203-1.203.422-.578c.547-.781.875-1.062 1.25-1.062.187 0 .328.109.39.28l.172-.046.172-1.016c-.14-.078-.25-.125-.36-.125-.468 0-.952.438-1.687 1.532l-.453.656-.062-.563c-.14-1.187-.469-1.625-1.172-1.625-.313 0-.578.094-.688.25l-.687 1 .203.11c.36-.407.594-.563.828-.563.39 0 .656.485.86 1.657l.124.75-.468.734C1.703-1.031 1.297-.641.953-.641.781-.64.641-.687.625-.75l-.14-.344zm0 0"/></symbol><symbol overflow="visible" id="i"><path d="M-.078 2.156c-.016.078-.016.156-.016.203 0 .516.438.938.985.938 1.265 0 2.578-1.485 3.28-3.688L5.86-5.656l-.14-.11c-.344.141-.61.204-.875.235l-.422 1.578c-.14.562-.563 1.437-.953 2.015-.422.61-1 1.141-1.266 1.141-.14 0-.25-.281-.25-.578l.016-.156.187-2.313c.016-.375.047-.828.047-1.172 0-.53-.094-.75-.297-.75-.156 0-.312.094-.89.485L.03-4.61l.14.203.595-.344.046-.047c.125-.062.204-.11.25-.11.172 0 .266.235.266.626 0 .015 0 .078-.016.187L1.11-1.187l-.015.468c0 .5.218.844.515.844.454 0 1.454-1.016 2.344-2.36L3.375-.187c-.61 2.11-1.219 2.985-2.047 2.985a.737.737 0 01-.75-.735c0-.062.016-.156.031-.265L.484 1.75zm0 0"/></symbol><symbol overflow="visible" id="h"><path d="M5.563-4.375c0-2.625-.782-3.86-2.422-3.86-1.844 0-2.797 1.47-2.797 4.36 0 1.406.25 2.61.672 3.188.421.593 1.093.921 1.828.921 1.812 0 2.719-1.546 2.719-4.609zm-1.016.594c0 2.547-.453 3.61-1.547 3.61-1.156 0-1.656-1.22-1.656-4.126 0-2.531.453-3.516 1.578-3.516 1.172 0 1.625 1.172 1.625 4.032zm0 0"/></symbol></defs><g clip-path="url(#a)" clip-rule="evenodd"><path d="M1.238 34.422H290.2" fill="none" stroke-width=".45" stroke="#000" stroke-miterlimit="10"/></g><g clip-path="url(#b)"><path d="M280.422 32.203l8.758 2.219-8.758 2.219" fill="none" stroke-width=".45" stroke="#000" stroke-miterlimit="10"/></g><path d="M264.34 31.18v6" fill="none" stroke-width=".45" stroke="#000" stroke-miterlimit="10"/><g clip-path="url(#c)" clip-rule="evenodd"><path d="M23.32 1.48v53.583" fill="none" stroke-width=".45" stroke="#000" stroke-miterlimit="10"/></g><g clip-path="url(#d)"><path d="M21.102 11.262L23.32 2.5l2.22 8.762" fill="none" stroke-width=".45" stroke="#000" stroke-miterlimit="10"/></g><g clip-path="url(#e)" clip-rule="evenodd"><path d="M245.262 16.84v-.059l.539-1.078.36-.902.417-.781.3-.72.602-1.077.301-.543.719-1.078.422-.54.418-.542.422-.54.418-.48.36-.418.42-.422.419-.36.48-.421.48-.36.481-.417.54-.301.421-.301.48-.297.477-.242.543-.238.54-.243.538-.18.602-.237 1.078-.243.54-.117.48-.062.543-.059h1.136l.543.059.598.062.48.117.54.059.48.121.48.18.54.18.542.242.54.3.539.239.96.601.961.719.48.418.54.48.96.961.419.48.422.481.36.48.417.54.422.601.36.66.417.598.364.66.359.602.3.598.298.601.242.602.3.718.297.72.301.718.242.723.239.66.18.66.18.539.12.539.121.602.18.66.117.597.242 1.32.059.66.062.661.118.602v.66l.062.66.059.719.058.78v1.618l.063.781-.063.782v1.437l-.058.723-.059.718-.062.723-.059.777-.121.782-.059.777-.12.723-.122.66-.117.66-.121.598-.121.722-.36 1.438-.238.781-.18.719-.242.66-.238.66-.242.602-.239.539-.242.66-.297.66-.363.66-.36.66-.296.598-.363.602-.36.539-.36.48-.359.602-.421.539-.48.539-.477.539-.48.543-.423.418-.418.422-.48.418-.48.422-.481.359-.54.418-.6.363-.481.297-.54.3-.48.243-1.078.36-.543.18-.598.12-.601.117-.598.063-.543.058h-1.02l-.538-.058-.54-.063-.6-.058-.54-.121-1.078-.36-.48-.12-.962-.477-.48-.243-.54-.3-.48-.36-.48-.3-.422-.297-.418-.301-.36-.36-.359-.363-.421-.36-.36-.417-.36-.36-.359-.421-.363-.418-.297-.364-.3-.418-.301-.421-.36-.48-.3-.477-.301-.543-.36-.48-.238-.477-.242-.422-.238-.48-.243-.419-.238-.539-.18-.48-.242-.543-.18-.477-.18-.48-.179-.422-.18-.54-.238-.66-.781-2.28" fill="none" stroke-width=".45" stroke-linejoin="bevel" stroke="#000" stroke-miterlimit="10"/></g><path d="M245.14 51.762l-.84-9.48 5.22 7.98" fill="none" stroke-width=".45" stroke="#000" stroke-miterlimit="10"/><path d="M23.14 34.84l.122-.059.297-.18.543-.3.84-.54 1.199-.6 1.441-.84 1.797-.962 2.101-1.136 2.22-1.203 2.46-1.2 2.52-1.258 2.582-1.203 2.578-1.136 2.52-1.082 2.46-.899 2.34-.84 2.281-.722 2.22-.598 2.1-.48 1.977-.301 1.98-.18 1.923-.058 1.859.117 1.86.18 1.8.363 1.86.48 1.859.598 1.562.539L76 22l1.621.723 3.36 1.68 1.68.956 1.8.961 1.8 1.082 1.798 1.078 1.921 1.141 1.918 1.2 1.98 1.199 2.04 1.261 2.043 1.258L100 35.801l2.102 1.261 2.097 1.258 2.16 1.262 2.16 1.2 2.102 1.14 2.16 1.14 2.16 1.079 2.16 1.02 2.098.96 2.102.899 2.097.78 2.102.72 2.04.66 2.038.543 1.98.418 2.044.359 1.976.242 1.98.117 2.044.063 1.859-.063 1.918-.18 1.922-.238 1.918-.359 1.98-.422 1.98-.48 2.04-.598 2.043-.723 2.097-.718 2.102-.84 2.16-.899 4.32-1.922 2.22-1.078 2.218-1.082 2.16-1.199 2.223-1.14 4.437-2.399 2.16-1.262 4.32-2.398 2.102-1.2 2.098-1.202 2.043-1.141 2.039-1.137 1.98-1.082 1.918-1.02 1.86-1.019 1.86-.898 1.8-.903 1.742-.78 1.738-.778 1.68-.66 1.621-.66 1.621-.54 1.918-.543 1.922-.48 1.86-.297 1.859-.242 1.86-.117h1.921l1.918.117 1.98.242 2.04.418 2.101.48 2.16.602 2.282.719 2.34.781 2.398.957 2.46 1.023 2.462 1.079 2.52 1.199 2.456 1.14 2.403 1.2 2.218 1.14 2.102 1.14 1.8.962 1.618.898 1.32.72.961.542.719.418.48.242.243.18.117.058" fill="none" stroke-width=".45" stroke-linejoin="bevel" stroke="#000" stroke-miterlimit="10"/><use xlink:href="#f" x="257.065" y="47.001"/><use xlink:href="#g" x="282.446" y="47.001"/><use xlink:href="#h" x="13.88" y="47.001"/><use xlink:href="#i" x="15.017" y="10.76"/></svg>