<svg xmlns="http://www.w3.org/2000/svg" xmlns:xlink="http://www.w3.org/1999/xlink" width="189.257" height="85.176" viewBox="0 0 141.943 63.882"><defs><clipPath id="a"><path d="M.5 27H23v23H.5zm0 0"/></clipPath><clipPath id="b"><path d="M.5.383v63h141v-63zm42.398 48.52h8.704v-6.301h-8.704l7.204 3.18zm0 0"/></clipPath><clipPath id="c"><path d="M.5.383v63h141v-63zm132.398 48.52h8.704v-6.301h-8.704l7.204 3.18zm0 0"/></clipPath><clipPath id="d"><path d="M126 36h15.5v20H126zm0 0"/></clipPath><clipPath id="e"><path d="M.5 9H48v31H.5zm0 0"/></clipPath><symbol overflow="visible" id="f"><path d="M2.797-8.625l-.14-.14c-.626.312-1.048.421-1.923.5l-.046.25h.578c.28 0 .406.093.406.296 0 .094-.016.203-.016.282l-.578 3.203C.906-3.328.718-2.516.094-.016l.11.125L1-.094l.281-1.484c.11-.578.39-1.11.797-1.516C2.906-.704 3.281.11 3.578.11c.156 0 .453-.156.969-.53l.562-.376-.093-.234-.516.297c-.172.093-.25.109-.36.109-.109 0-.202-.063-.296-.266-.422-.765-.688-1.421-1.156-2.89l.171-.156c.72-.735 1.282-1.032 1.875-1.032.094 0 .22.016.422.063l.203-.75a2.204 2.204 0 00-.562-.11c-.797 0-1.781.922-3.281 3.016zm0 0"/></symbol><symbol overflow="visible" id="g"><path d="M8.719-1.234l-.297.203c-.36.234-.61.36-.735.36-.078 0-.156-.11-.156-.235 0-.125.016-.235.078-.485l.907-3.546a2.7 2.7 0 00.078-.485c0-.203-.125-.344-.313-.344-.344 0-.797.22-1.531.735C6-4.5 5.578-4.078 5-3.25l.36-1.64a3.63 3.63 0 00.077-.5c0-.235-.125-.376-.312-.376-.36 0-.906.266-1.563.766-.53.406-.765.656-1.546 1.719l.406-1.594c.047-.188.062-.375.062-.516 0-.234-.109-.375-.265-.375-.266 0-.719.25-1.594.891l-.344.234.094.235.375-.25c.438-.266.484-.297.563-.297.14 0 .218.125.218.297 0 .61-.484 2.922-.984 4.625l.031.14.828-.187.25-1.219c.297-1.328.61-2.031 1.266-2.75.515-.547 1.047-.906 1.375-.906.094 0 .14.094.14.25 0 .422-.265 1.781-.75 3.875l-.203.797.063.14.828-.187.25-1.266c.188-.968.594-1.875 1.125-2.453C6.406-4.53 7-4.953 7.39-4.953c.094 0 .157.11.157.297 0 .297-.047.453-.297 1.5-.203.75-.406 1.469-.516 1.875-.109.343-.156.64-.156.906 0 .297.125.484.36.484.312 0 .734-.25 1.906-1.125zm0 0"/></symbol><symbol overflow="visible" id="j"><path d="M.25-1.047c0 .234-.016.39-.094.766-.031.156-.031.187-.047.265.172.094.375.141.516.141.39 0 .86-.344 1.234-.906l.907-1.39.125.827C3.047-.328 3.328.125 3.75.125c.266 0 .656-.203 1.031-.547l.578-.516-.093-.234c-.438.36-.735.531-.922.531C4.156-.64 4-.75 3.89-.984a4.761 4.761 0 01-.313-1.032l-.203-1.203.422-.578c.547-.781.875-1.062 1.25-1.062.187 0 .328.109.39.28l.172-.046.172-1.016c-.14-.078-.25-.125-.36-.125-.468 0-.952.438-1.687 1.532l-.453.656-.062-.563c-.14-1.187-.469-1.625-1.172-1.625-.313 0-.578.094-.688.25l-.687 1 .203.11c.36-.407.594-.563.828-.563.39 0 .656.485.86 1.657l.124.75-.468.734C1.703-1.031 1.297-.641.953-.641.781-.64.641-.687.625-.75l-.14-.344zm0 0"/></symbol><symbol overflow="visible" id="h"><path d="M4.11.031c-.032-.187-.032-.281-.032-.406 0-.11 0-.188.031-.39l-3.046.093 1.609-1.687c.844-.907 1.11-1.391 1.11-2.047 0-1.016-.688-1.64-1.798-1.64-.64 0-1.062.187-1.5.624l-.14 1.188h.25l.11-.407c.14-.5.468-.718 1.046-.718.75 0 1.234.468 1.234 1.218 0 .657-.359 1.297-1.359 2.36L.141-.203V.03C.78.016 1.453 0 2.094 0c.672 0 1.344.016 2.015.031zm0 0"/></symbol><symbol overflow="visible" id="i"><path d="M3.656.031v-.265l-.453-.032c-.484-.03-.562-.125-.562-.578v-5.203l-.125-.031a14.66 14.66 0 01-1.985.844l.063.375h.078l1.14-.516h.016c.063 0 .078.078.078.281v4.25c0 .453-.093.547-.578.578l-.484.032V.03C1.328.016 1.813 0 2.28 0c.469 0 .922.016 1.375.031zm0 0"/></symbol></defs><path d="M103.98 38.82a4.622 4.622 0 01-4.62 4.621 4.62 4.62 0 110-9.238 4.62 4.62 0 014.62 4.617" fill-rule="evenodd"/><path d="M103.98 38.82a4.622 4.622 0 01-4.62 4.621 4.62 4.62 0 110-9.238 4.62 4.62 0 014.62 4.617zm0 0" fill="none" stroke-width=".45" stroke="#000" stroke-miterlimit="10"/><path d="M15.66 38.82a4.622 4.622 0 01-4.62 4.621 4.62 4.62 0 110-9.238 4.62 4.62 0 014.62 4.617" fill-rule="evenodd"/><g clip-path="url(#a)"><path d="M15.66 38.82a4.622 4.622 0 01-4.62 4.621 4.62 4.62 0 110-9.238 4.62 4.62 0 014.62 4.617zm0 0" fill="none" stroke-width=".45" stroke="#000" stroke-miterlimit="10"/></g><path d="M130.2 38.82a4.62 4.62 0 11-9.241.002 4.62 4.62 0 019.24-.002" fill-rule="evenodd"/><path d="M130.2 38.82a4.62 4.62 0 11-9.241.002 4.62 4.62 0 019.24-.002zm0 0" fill="none" stroke-width=".45" stroke="#000" stroke-miterlimit="10"/><path d="M41.82 38.82a4.62 4.62 0 11-9.238.003 4.62 4.62 0 019.238-.003" fill-rule="evenodd"/><path d="M41.82 38.82a4.62 4.62 0 11-9.238.003 4.62 4.62 0 019.238-.003zm5.22-13.078h3.241l3.301-9.84 3.238 16.38 3.301-16.38 3.238 16.38 3.301-16.38 3.238 16.38 3.301-16.38 3.301 16.38 3.238-16.38 3.301 16.38 3.242-9.84h3.301m0 16.378h45.777V9.363H89.582zm0 0" fill="none" stroke-width=".45" stroke="#000" stroke-miterlimit="10"/><g clip-path="url(#b)" clip-rule="evenodd"><path d="M23.7 45.781h27" fill="none" stroke-width=".45" stroke="#000" stroke-miterlimit="10"/></g><path d="M42.898 48.902l7.204-3.12-7.204-3.18m70.801-1.32v9" fill="none" stroke-width=".45" stroke="#000" stroke-miterlimit="10"/><g clip-path="url(#c)" clip-rule="evenodd"><path d="M113.7 45.781h27" fill="none" stroke-width=".45" stroke="#000" stroke-miterlimit="10"/></g><g clip-path="url(#d)"><path d="M132.898 48.902l7.204-3.12-7.204-3.18" fill="none" stroke-width=".45" stroke="#000" stroke-miterlimit="10"/></g><g clip-path="url(#e)"><path d="M1.2 38.82h45.84V9.363H1.2zm0 0" fill="none" stroke-width=".45" stroke="#000" stroke-miterlimit="10"/></g><path d="M23.7 41.281v9" fill="none" stroke-width=".45" stroke="#000" stroke-miterlimit="10"/><use xlink:href="#f" x="63.74" y="9.321"/><use xlink:href="#g" x="103.041" y="25.701"/><use xlink:href="#h" x="112.701" y="27.494"/><use xlink:href="#g" x="14.659" y="25.701"/><use xlink:href="#i" x="24.319" y="27.494"/><use xlink:href="#j" x="19.579" y="59.242"/><use xlink:href="#i" x="25.915" y="61.035"/><use xlink:href="#j" x="109.581" y="59.242"/><use xlink:href="#h" x="115.917" y="61.035"/></svg>