<svg xmlns="http://www.w3.org/2000/svg" xmlns:xlink="http://www.w3.org/1999/xlink" width="243.259" height="148.137" viewBox="0 0 182.444 111.103"><defs><symbol overflow="visible" id="g"><path d="M1.5-4.656L.828-1.281c-.015.093-.031.11-.062.25-.079.343-.094.515-.094.656 0 .297.125.484.36.484.421 0 .827-.234 1.765-1l.172-.14.203-.157-.125-.218-.531.375c-.36.25-.594.36-.72.36-.109 0-.171-.095-.171-.235 0-.313.172-1.281.516-3.016l.156-.734h1.281l.125-.61c-.453.047-.86.079-1.312.079.187-1.125.328-1.704.53-2.36l-.124-.172c-.235.14-.563.282-.938.422l-.296 2.031c-.516.25-.829.391-1.047.454l-.032.156zm0 0"/></symbol><symbol overflow="visible" id="h"><path d="M.25-1.047c0 .234-.016.39-.094.766-.031.156-.031.187-.047.265.172.094.375.141.516.141.39 0 .86-.344 1.234-.906l.907-1.39.125.827C3.047-.328 3.328.125 3.75.125c.266 0 .656-.203 1.031-.547l.578-.516-.093-.234c-.438.36-.735.531-.922.531C4.156-.64 4-.75 3.89-.984a4.761 4.761 0 01-.313-1.032l-.203-1.203.422-.578c.547-.781.875-1.062 1.25-1.062.187 0 .328.109.39.28l.172-.046.172-1.016c-.14-.078-.25-.125-.36-.125-.468 0-.952.438-1.687 1.532l-.453.656-.062-.563c-.14-1.187-.469-1.625-1.172-1.625-.313 0-.578.094-.688.25l-.687 1 .203.11c.36-.407.594-.563.828-.563.39 0 .656.485.86 1.657l.124.75-.468.734C1.703-1.031 1.297-.641.953-.641.781-.64.641-.687.625-.75l-.14-.344zm0 0"/></symbol><symbol overflow="visible" id="i"><path d="M.375-1.766A11.78 11.78 0 01.109-.187C.563.03.97.124 1.391.124c.578 0 1.125-.203 1.734-.688.61-.484.875-.921.875-1.515 0-.64-.39-1-1.281-1.156l-.5-.094c-.719-.14-.953-.344-.953-.828 0-.64.546-1.125 1.218-1.125.485 0 .954.218 1.141.531v.656h.266c.046-.406.109-.734.234-1.343-.469-.235-.797-.329-1.203-.329-.61 0-1.344.36-1.922.938-.313.328-.438.625-.438 1.047 0 .672.375 1.062 1.157 1.219l.75.14c.531.094.719.313.719.766 0 .781-.547 1.312-1.391 1.312A1.68 1.68 0 01.672-.766v-1zm0 0"/></symbol><symbol overflow="visible" id="j"><path d="M.781-4.14H7.22v-.72H.78zm0 2.53H7.22v-.702H.78zm0 0"/></symbol><symbol overflow="visible" id="k"><path d="M5.563-4.375c0-2.625-.782-3.86-2.422-3.86-1.844 0-2.797 1.47-2.797 4.36 0 1.406.25 2.61.672 3.188.421.593 1.093.921 1.828.921 1.812 0 2.719-1.546 2.719-4.609zm-1.016.594c0 2.547-.453 3.61-1.547 3.61-1.156 0-1.656-1.22-1.656-4.126 0-2.531.453-3.516 1.578-3.516 1.172 0 1.625 1.172 1.625 4.032zm0 0"/></symbol><symbol overflow="visible" id="m"><path d="M4.938-.547l-.125-.187c-.438.25-.813.359-1.25.359-1.329 0-2.204-1.031-2.204-2.61 0-1.28.594-2 1.672-2 .531 0 1.11.235 1.313.532l.093.734h.329c0-.547.062-1.031.171-1.469-.484-.28-.89-.421-1.39-.421-.578 0-1.235.234-1.953.687C.75-4.406.312-3.562.312-2.516.313-.89 1.454.234 3.047.234c.625 0 1.515-.218 1.64-.406zm0 0"/></symbol><symbol overflow="visible" id="n"><path d="M6.14-2.828c0-1.625-1.171-2.781-2.812-2.781C1.594-5.61.375-4.375.375-2.594.375-.906 1.453.234 2.985.234c1.843 0 3.156-1.28 3.156-3.062zm-1.109.437c0 1.375-.61 2.235-1.578 2.235C2.281-.156 1.5-1.296 1.5-3c0-1.438.563-2.219 1.625-2.219 1.094 0 1.906 1.203 1.906 2.828zm0 0"/></symbol><symbol overflow="visible" id="o"><path d="M6.844.031v-.36l-.5-.03c-.407-.016-.438-.094-.438-.86V-3.53c0-1.39-.656-2.078-2-2.078-.437 0-.687.093-.937.296l-.906.797v-1.046l-.11-.047c-.61.25-1.234.421-1.875.5v.328h.453c.469 0 .516.078.516.875v2.687c0 .75-.031.844-.438.86l-.53.03v.36C.561.016 1.062 0 1.546 0c.5 0 1 .016 1.484.031v-.36L2.5-.358c-.406-.016-.438-.11-.438-.86V-3.75c0-.547.782-1.125 1.516-1.125.797 0 1.328.594 1.328 1.516V.03C5.22.016 5.531 0 5.844 0c.343 0 .656.016 1 .031zm0 0"/></symbol><symbol overflow="visible" id="p"><path d="M4.672-1.766c0-.375-.094-.656-.328-.89-.313-.313-.703-.438-1.766-.64-.969-.188-1.297-.438-1.297-.985 0-.594.422-.938 1.14-.938.813 0 1.423.422 1.423.985v.28h.328c.016-.702.031-.983.062-1.358-.64-.204-1.062-.297-1.562-.297-1.375 0-2.235.656-2.235 1.734 0 .578.266.984.813 1.234.328.141.969.329 1.781.516.531.11.766.375.766.828 0 .64-.61 1.094-1.453 1.094-.875 0-1.5-.422-1.5-1.016v-.484h-.36C.484-.891.454-.531.36-.047.984.156 1.453.234 2 .234c1.563 0 2.672-.828 2.672-2zm0 0"/></symbol><symbol overflow="visible" id="q"><path d="M3.813-5.219l-1.641.078v-.453c0-.5.047-.937.14-1.703l-.156-.125c-.281.172-.64.328-1.015.453.046.36.046.578.046.938v.843l-.921.422v.25l.906-.046v3.437c0 .89.39 1.266 1.312 1.266.282 0 .563-.063.641-.141l.563-.64-.157-.204c-.297.172-.469.235-.703.235-.469 0-.656-.235-.656-.829v-3.125h1.531zm0 0"/></symbol><symbol overflow="visible" id="r"><path d="M5.625.031v-.36l-.469-.015c-.281-.015-.328-.11-.328-.703v-2.187c0-1.735-.5-2.375-1.89-2.375-.516 0-.985.14-1.438.406l-.64.39v.766l.312.094.156-.375c.234-.563.375-.64.922-.64 1.125 0 1.594.437 1.625 1.53l-1.188.204C1.063-2.922.376-2.36.376-1.328.375-.391.938.14 1.891.14c.218 0 .421-.032.5-.094l1.484-1.03L3.812.03C4.125.016 4.439 0 4.75 0c.297 0 .578.016.875.031zm-1.75-1.515c-.344.5-1.11.953-1.563.953-.484 0-.906-.453-.906-.969 0-.438.25-.86.61-1.078.296-.188.953-.344 1.859-.485zm0 0"/></symbol><symbol overflow="visible" id="l"><path d="M6.016-8.188l-.11-.124a4.373 4.373 0 01-1.937.468c-.328 0-1.047-.015-1.094-.484l-.063-.047c-.156.063-.5.203-.5.422 0 .453 1.22.344 1.422.344l.016.093c-.781.235-1.594.782-1.594 1.672 0 .86.735 1.203 1.453 1.438v.11C2.313-3.938.531-3.157.531-1.563c0 1.187.969 1.64 2.016 1.64.64 0 1.297-.156 1.953-.156.203 0 .422.062.422.312 0 .594-1.188.985-1.688.985-.156 0-.312-.016-.468-.032l-.047.11c.234.14.453.297.656.469C4.078 1.5 5.594.516 5.594-.328c0-.36-.36-.453-.64-.453-.595 0-1.173.125-1.782.125-.813 0-1.719-.078-1.719-1.11 0-1.468 1.5-2.296 2.797-2.296.156 0 .313.015.484.015.079-.11.188-.25.329-.328l-.047-.094c-.97-.031-1.985-.36-1.985-1.515 0-1.422 1.719-1.735 2.797-1.75.078-.157.14-.313.188-.454zm0 0"/></symbol><symbol overflow="visible" id="v"><path d="M2.61-1.297l-.172-.172c-.391.125-.766.266-1.172.36C1.187-.08.719.859.187 1.719l.172.14.485-.234c.703-.89 1.375-1.86 1.765-2.922zm0 0"/></symbol><symbol overflow="visible" id="s"><path d="M3.313 13.203c-1.376-1.547-1.579-4.469-1.579-6.797 0-2.328.047-5.125 1.579-6.86l-.157-.25c-.594.5-2.531 2.938-2.531 7.11 0 4.172 1.938 6.547 2.531 7.063zm0 0"/></symbol><symbol overflow="visible" id="w"><path d="M.375 13.203l.156.266c.61-.516 2.531-2.89 2.531-7.063 0-4.172-1.921-6.61-2.53-7.11l-.157.25c1.531 1.735 1.578 4.532 1.578 6.86 0 2.328-.203 5.25-1.578 6.797zm0 0"/></symbol><symbol overflow="visible" id="t"><path d="M3.64-9.031C1.813-7.844.72-5.797.72-3.234c0 2.343 1.14 4.578 2.875 5.78l.156-.202C2.094.906 1.812-.484 1.812-3.281c0-2.781.313-4.219 1.938-5.547zm0 0"/></symbol><symbol overflow="visible" id="u"><path d="M.5-9.031l-.125.203C2.015-7.5 2.328-6.063 2.328-3.281c0 2.797-.281 4.187-1.953 5.625l.156.203c1.75-1.203 2.89-3.438 2.89-5.781 0-2.563-1.108-4.61-2.921-5.797zm0 0"/></symbol><clipPath id="a"><path d="M.5 110.602h182v-111H.5zM27.781.782h.84l2.277 10.261-2.699-9-2.699 9zm0 0"/></clipPath><clipPath id="b"><path d="M.5 110.602h182v-111H.5zm181.121-15.32v.84l-10.262 2.28 9-2.699-9-2.7zm0 0"/></clipPath><clipPath id="c"><path d="M164 86h18.445v19H164zm0 0"/></clipPath><clipPath id="d"><path d="M.5 110.602h182v-111H.5zm89.738-18.38l-.656-.417 3.117-8.102-2.097 7.14 5.218-5.34zm0 0"/></clipPath><clipPath id="e"><path d="M.5 110.602h182v-111H.5zm85.3-12.918l.419.66-6.719 5.578 5.34-5.219-7.14 2.102zm0 0"/></clipPath><clipPath id="f"><path d="M71 92h21v18.602H71zm0 0"/></clipPath></defs><path d="M92.64 41.164a1.44 1.44 0 11-2.878-.004 1.44 1.44 0 012.879.004" fill-rule="evenodd"/><path d="M92.64 41.164a1.44 1.44 0 11-2.878-.004 1.44 1.44 0 012.879.004zm0 0" fill="none" stroke-width=".45" stroke="#000" stroke-miterlimit="10"/><path d="M88.14 95.703c0 .793-.644 1.442-1.44 1.442a1.442 1.442 0 010-2.883 1.44 1.44 0 011.44 1.441" fill-rule="evenodd"/><path d="M88.14 95.703c0 .793-.644 1.442-1.44 1.442a1.442 1.442 0 010-2.883 1.44 1.44 0 011.44 1.441zm0 0" fill="none" stroke-width=".45" stroke="#000" stroke-miterlimit="10"/><g clip-path="url(#a)" clip-rule="evenodd"><path d="M28.2 109.203v-108" fill="none" stroke-width=".45" stroke="#000" stroke-miterlimit="10"/></g><path d="M25.5 11.043l2.7-9 2.698 9" fill="none" stroke-width=".45" stroke="#000" stroke-miterlimit="10"/><g clip-path="url(#b)" clip-rule="evenodd"><path d="M1.2 95.703h180" fill="none" stroke-width=".45" stroke="#000" stroke-miterlimit="10"/></g><g clip-path="url(#c)"><path d="M171.36 93.004l9 2.7-9 2.698" fill="none" stroke-width=".45" stroke="#000" stroke-miterlimit="10"/></g><path d="M86.7 95.703l-.06-.121-.058-.36-.184-.538-.238-.903-.3-1.258-.36-1.5-.48-1.859-.48-2.043-.481-2.219-.54-2.34-.48-2.398-.418-2.34-.36-2.34-.363-2.28-.238-2.161-.18-2.04-.062-1.98v-1.859l.062-1.742.122-1.738.238-1.622.36-1.62.421-1.56.48-1.62.598-1.559.54-1.32.6-1.262.661-1.316.781-1.383.84-1.379.899-1.441 1.02-1.5 1.081-1.559 1.2-1.68 1.32-1.68 1.441-1.8 1.559-1.918 1.68-1.98 1.8-2.102 1.86-2.16 1.98-2.22 1.98-2.28 2.098-2.282 2.102-2.277 2.039-2.223 1.98-2.097 1.86-2.04 1.742-1.8 1.5-1.621 1.316-1.38 1.024-1.14.84-.84.597-.601.36-.418.3-.3" fill="none" stroke-width=".9" stroke-linejoin="bevel" stroke="#000" stroke-miterlimit="10"/><g clip-path="url(#d)" clip-rule="evenodd"><path d="M103.738 81.305h-.058l-.36.058-.78.059-1.02.121-1.2.18-1.082.18-.957.242-.781.296-.719.364-.601.418-.54.422-.538.539-.543.597-.54.781-.66.961-.718 1.02-.723 1.2-.719 1.081-1.078 1.86" fill="none" stroke-width=".45" stroke-linejoin="bevel" stroke="#000" stroke-miterlimit="10"/></g><path d="M95.82 85.504l-5.218 5.34 2.097-7.14" fill="none" stroke-width=".45" stroke="#000" stroke-miterlimit="10"/><g clip-path="url(#e)" clip-rule="evenodd"><path d="M70.262 104.883h.058l.36-.121.78-.239 1.08-.3 1.198-.301 1.082-.36 1.02-.3.84-.297.78-.3.72-.302.66-.3.781-.36.777-.422.961-.539 1.082-.597 1.079-.66 2.16-1.262" fill="none" stroke-width=".45" stroke-linejoin="bevel" stroke="#000" stroke-miterlimit="10"/></g><g clip-path="url(#f)"><path d="M77.7 100.805l7.14-2.102-5.34 5.219" fill="none" stroke-width=".45" stroke="#000" stroke-miterlimit="10"/></g><use xlink:href="#g" x="19.022" y="19.221"/><use xlink:href="#h" x="159.082" y="104.723"/><use xlink:href="#i" x="107.241" y="85.282"/><use xlink:href="#j" x="115.93" y="85.282"/><use xlink:href="#k" x="127.249" y="85.282"/><use xlink:href="#l" x="44.64" y="14.181"/><use xlink:href="#j" x="54.99" y="14.181"/><use xlink:href="#m" x="66.309" y="14.181"/><use xlink:href="#n" x="71.617" y="14.181"/><use xlink:href="#o" x="78.145" y="14.181"/><use xlink:href="#p" x="85.103" y="14.181"/><use xlink:href="#q" x="89.992" y="14.181"/><use xlink:href="#r" x="93.89" y="14.181"/><use xlink:href="#o" x="99.867" y="14.181"/><use xlink:href="#q" x="106.825" y="14.181"/><use xlink:href="#s" x="97.209" y="35.781"/><use xlink:href="#h" x="101.51" y="45.381"/><use xlink:href="#t" x="108.086" y="45.381"/><use xlink:href="#i" x="112.581" y="45.381"/><use xlink:href="#u" x="117.949" y="45.381"/><use xlink:href="#v" x="122.444" y="45.381"/><use xlink:href="#g" x="128.023" y="45.381"/><use xlink:href="#t" x="132.721" y="45.381"/><use xlink:href="#i" x="137.216" y="45.381"/><use xlink:href="#u" x="142.584" y="45.381"/><use xlink:href="#w" x="146.972" y="35.781"/><use xlink:href="#h" x="39.398" y="106.763"/><use xlink:href="#j" x="49.294" y="106.763"/><use xlink:href="#l" x="60.972" y="106.763"/></svg>