<svg xmlns="http://www.w3.org/2000/svg" xmlns:xlink="http://www.w3.org/1999/xlink" width="243.259" height="147.257" viewBox="0 0 182.444 110.443"><defs><symbol overflow="visible" id="d"><path d="M1.5-4.656L.828-1.281c-.015.093-.031.11-.062.25-.079.343-.094.515-.094.656 0 .297.125.484.36.484.421 0 .827-.234 1.765-1l.172-.14.203-.157-.125-.218-.531.375c-.36.25-.594.36-.72.36-.109 0-.171-.095-.171-.235 0-.313.172-1.281.516-3.016l.156-.734h1.281l.125-.61c-.453.047-.86.079-1.312.079.187-1.125.328-1.704.53-2.36l-.124-.172c-.235.14-.563.282-.938.422l-.296 2.031c-.516.25-.829.391-1.047.454l-.032.156zm0 0"/></symbol><symbol overflow="visible" id="e"><path d="M.25-1.047c0 .234-.016.39-.094.766-.031.156-.031.187-.047.265.172.094.375.141.516.141.39 0 .86-.344 1.234-.906l.907-1.39.125.827C3.047-.328 3.328.125 3.75.125c.266 0 .656-.203 1.031-.547l.578-.516-.093-.234c-.438.36-.735.531-.922.531C4.156-.64 4-.75 3.89-.984a4.761 4.761 0 01-.313-1.032l-.203-1.203.422-.578c.547-.781.875-1.062 1.25-1.062.187 0 .328.109.39.28l.172-.046.172-1.016c-.14-.078-.25-.125-.36-.125-.468 0-.952.438-1.687 1.532l-.453.656-.062-.563c-.14-1.187-.469-1.625-1.172-1.625-.313 0-.578.094-.688.25l-.687 1 .203.11c.36-.407.594-.563.828-.563.39 0 .656.485.86 1.657l.124.75-.468.734C1.703-1.031 1.297-.641.953-.641.781-.64.641-.687.625-.75l-.14-.344zm0 0"/></symbol><symbol overflow="visible" id="f"><path d="M6.016-8.188l-.11-.124a4.373 4.373 0 01-1.937.468c-.328 0-1.047-.015-1.094-.484l-.063-.047c-.156.063-.5.203-.5.422 0 .453 1.22.344 1.422.344l.016.093c-.781.235-1.594.782-1.594 1.672 0 .86.735 1.203 1.453 1.438v.11C2.313-3.938.531-3.157.531-1.563c0 1.187.969 1.64 2.016 1.64.64 0 1.297-.156 1.953-.156.203 0 .422.062.422.312 0 .594-1.188.985-1.688.985-.156 0-.312-.016-.468-.032l-.047.11c.234.14.453.297.656.469C4.078 1.5 5.594.516 5.594-.328c0-.36-.36-.453-.64-.453-.595 0-1.173.125-1.782.125-.813 0-1.719-.078-1.719-1.11 0-1.468 1.5-2.296 2.797-2.296.156 0 .313.015.484.015.079-.11.188-.25.329-.328l-.047-.094c-.97-.031-1.985-.36-1.985-1.515 0-1.422 1.719-1.735 2.797-1.75.078-.157.14-.313.188-.454zm0 0"/></symbol><symbol overflow="visible" id="g"><path d="M.781-4.14H7.22v-.72H.78zm0 2.53H7.22v-.702H.78zm0 0"/></symbol><symbol overflow="visible" id="h"><path d="M5.594.031c-.032-.25-.032-.36-.032-.531 0-.156 0-.281.032-.547l-4.14.125L3.64-3.234c1.156-1.22 1.515-1.875 1.515-2.782 0-1.375-.937-2.218-2.453-2.218-.86 0-1.453.234-2.031.828l-.203 1.64h.344l.156-.562c.187-.688.625-.984 1.422-.984 1.03 0 1.687.64 1.687 1.656 0 .906-.5 1.781-1.86 3.218L.189-.28v.31C1.078.016 1.968 0 2.858 0c.907 0 1.829.016 2.735.031zm0 0"/></symbol><symbol overflow="visible" id="i"><path d="M5 .031v-.36l-.625-.03c-.656-.032-.781-.172-.781-.782v-7.093l-.156-.063c-.782.406-1.626.766-2.72 1.156l.079.5h.125l1.547-.687.031-.016c.063 0 .094.11.094.407v5.796c0 .61-.125.75-.781.782l-.672.03v.36C1.812.016 2.469 0 3.125 0c.61 0 1.25.016 1.875.031zm0 0"/></symbol><symbol overflow="visible" id="j"><path d="M5.563-4.375c0-2.625-.782-3.86-2.422-3.86-1.844 0-2.797 1.47-2.797 4.36 0 1.406.25 2.61.672 3.188.421.593 1.093.921 1.828.921 1.812 0 2.719-1.546 2.719-4.609zm-1.016.594c0 2.547-.453 3.61-1.547 3.61-1.156 0-1.656-1.22-1.656-4.126 0-2.531.453-3.516 1.578-3.516 1.172 0 1.625 1.172 1.625 4.032zm0 0"/></symbol><clipPath id="a"><path d="M.5 109.941h182v-110H.5zM27.781.824h.84l2.277 10.258-2.699-9-2.699 9zm0 0"/></clipPath><clipPath id="b"><path d="M.5 109.941h182v-110H.5zm181.121-14.617v.84l-10.262 2.277 9-2.699-9-2.699zm0 0"/></clipPath><clipPath id="c"><path d="M164 86h18.445v19H164zm0 0"/></clipPath></defs><g clip-path="url(#a)" clip-rule="evenodd"><path d="M28.2 109.242v-108" fill="none" stroke-width=".45" stroke="#000" stroke-miterlimit="10"/></g><path d="M25.5 11.082l2.7-9 2.698 9" fill="none" stroke-width=".45" stroke="#000" stroke-miterlimit="10"/><g clip-path="url(#b)" clip-rule="evenodd"><path d="M1.2 95.742h180" fill="none" stroke-width=".45" stroke="#000" stroke-miterlimit="10"/></g><g clip-path="url(#c)"><path d="M171.36 93.043l9 2.7-9 2.698" fill="none" stroke-width=".45" stroke="#000" stroke-miterlimit="10"/></g><path d="M116.398 95.563l45-90.72M28.2 95.564l45-89.82m-1.8 89.82l45-90.72" fill="none" stroke-width=".9" stroke="#000" stroke-miterlimit="10"/><use xlink:href="#d" x="19.022" y="19.221"/><use xlink:href="#e" x="159.082" y="104.723"/><use xlink:href="#f" x="128.017" y="14.721"/><use xlink:href="#g" x="138.367" y="14.721"/><use xlink:href="#h" x="149.686" y="14.721"/><use xlink:href="#f" x="83.016" y="14.721"/><use xlink:href="#g" x="93.366" y="14.721"/><use xlink:href="#i" x="104.685" y="14.721"/><use xlink:href="#f" x="39.455" y="14.721"/><use xlink:href="#g" x="49.805" y="14.721"/><use xlink:href="#j" x="61.124" y="14.721"/></svg>