<svg xmlns="http://www.w3.org/2000/svg" xmlns:xlink="http://www.w3.org/1999/xlink" width="272.62" height="163.577" viewBox="0 0 204.465 122.683"><defs><symbol overflow="visible" id="d"><path d="M3.64-9.031C1.813-7.844.72-5.797.72-3.234c0 2.343 1.14 4.578 2.875 5.78l.156-.202C2.094.906 1.812-.484 1.812-3.281c0-2.781.313-4.219 1.938-5.547zm0 0"/></symbol><symbol overflow="visible" id="g"><path d="M.5-9.031l-.125.203C2.015-7.5 2.328-6.063 2.328-3.281c0 2.797-.281 4.187-1.953 5.625l.156.203c1.75-1.203 2.89-3.438 2.89-5.781 0-2.563-1.108-4.61-2.921-5.797zm0 0"/></symbol><symbol overflow="visible" id="e"><path d="M5.563-4.375c0-2.625-.782-3.86-2.422-3.86-1.844 0-2.797 1.47-2.797 4.36 0 1.406.25 2.61.672 3.188.421.593 1.093.921 1.828.921 1.812 0 2.719-1.546 2.719-4.609zm-1.016.594c0 2.547-.453 3.61-1.547 3.61-1.156 0-1.656-1.22-1.656-4.126 0-2.531.453-3.516 1.578-3.516 1.172 0 1.625 1.172 1.625 4.032zm0 0"/></symbol><symbol overflow="visible" id="f"><path d="M2.61-1.297l-.172-.172c-.391.125-.766.266-1.172.36C1.187-.08.719.859.187 1.719l.172.14.485-.234c.703-.89 1.375-1.86 1.765-2.922zm0 0"/></symbol><symbol overflow="visible" id="h"><path d="M2.828-8.625l-.156-.14c-.61.312-1.047.421-1.906.5l-.047.25h.578c.281 0 .406.093.406.296 0 .094-.016.203-.031.282l-.5 2.796C.844-2.828.375-.78.125-.03l.078.14.828-.187c.188-1.375.39-2.11.735-2.75.53-.969 1.765-2.125 2.28-2.125.157 0 .25.11.25.266 0 .218-.077.671-.171 1.062l-.61 2.344c-.109.437-.156.703-.156.922 0 .28.125.468.36.468.312 0 .734-.25 1.906-1.125l-.11-.218-.312.203c-.344.234-.61.36-.734.36-.078 0-.157-.11-.157-.235 0-.125.016-.219.094-.485l.75-3.062c.078-.297.14-.672.14-.875 0-.266-.14-.438-.343-.438-.406 0-1.14.407-1.89 1.032-.422.343-.626.562-1.172 1.265l-.235.297zm0 0"/></symbol><symbol overflow="visible" id="i"><path d="M3.984-1.156c-.093.281-.14.61-.14.781 0 .297.14.484.36.484.312 0 .75-.25 1.921-1.125L6-1.234l-.313.203c-.28.187-.593.328-.734.328-.094 0-.14-.078-.14-.203 0-.094.015-.235.046-.406l.016-.079c.281-1.296.64-2.89 1-4.265l-.078-.11-.813.204-.125.609c-.171.937-.468 1.75-.843 2.312-.704 1.094-1.641 1.938-2.11 1.938-.093 0-.156-.11-.156-.313 0-.171.016-.328.078-.625l.688-3.234c.03-.188.046-.36.046-.516 0-.234-.093-.375-.265-.375-.235 0-.688.25-1.578.891l-.344.234.094.235.375-.25c.344-.203.469-.266.578-.266.11 0 .203.11.203.234 0 .047-.016.172-.016.22L.844-.923c-.016.11-.047.39-.047.563 0 .28.187.484.422.484.75 0 2.203-1.328 3.203-2.984zm0 0"/></symbol><symbol overflow="visible" id="k"><path d="M3.422-4.578c.047-.234.125-.5.203-.672l-.047-.078-.094.016c-.28.078-.406.093-1 .093h-.187l.25-1.343c.187-1.032.531-1.485 1.078-1.485.36 0 .672.188.86.469l.124-.047c.047-.188.172-.563.266-.797l.063-.187a2.62 2.62 0 00-.844-.157 1.11 1.11 0 00-.407.094c-.296.125-1.265.86-1.546 1.14-.266.266-.407.626-.532 1.298l-.187.953a9.785 9.785 0 01-1.031.437l-.063.266h.969l-.11.672C.845-1.578.391.64.125 1.469c-.203.703-.563 1.078-1 1.078-.266 0-.406-.078-.625-.344l-.156.047c-.047.266-.219.844-.282.953a.93.93 0 00.422.094c.485 0 1.141-.375 1.594-.938.735-.859 1-1.687 1.875-5.89.031-.14.125-.594.219-1.047zm0 0"/></symbol><symbol overflow="visible" id="l"><path d="M.25-1.047c0 .234-.016.39-.094.766-.031.156-.031.187-.047.265.172.094.375.141.516.141.39 0 .86-.344 1.234-.906l.907-1.39.125.827C3.047-.328 3.328.125 3.75.125c.266 0 .656-.203 1.031-.547l.578-.516-.093-.234c-.438.36-.735.531-.922.531C4.156-.64 4-.75 3.89-.984a4.761 4.761 0 01-.313-1.032l-.203-1.203.422-.578c.547-.781.875-1.062 1.25-1.062.187 0 .328.109.39.28l.172-.046.172-1.016c-.14-.078-.25-.125-.36-.125-.468 0-.952.438-1.687 1.532l-.453.656-.062-.563c-.14-1.187-.469-1.625-1.172-1.625-.313 0-.578.094-.688.25l-.687 1 .203.11c.36-.407.594-.563.828-.563.39 0 .656.485.86 1.657l.124.75-.468.734C1.703-1.031 1.297-.641.953-.641.781-.64.641-.687.625-.75l-.14-.344zm0 0"/></symbol><symbol overflow="visible" id="m"><path d="M6.625-5.063l.125.235a.55.55 0 01.328-.11c.328 0 .516.282.516.75 0 1.735-1.157 3.72-2.172 3.72-.36 0-.61-.47-.61-1.141a8.2 8.2 0 01.25-1.86l.625-2.203-.078-.094-.89.266-.344 1.781a5.727 5.727 0 01-.656 1.86C3.234-.953 2.78-.47 2.422-.47c-.406 0-.688-.469-.688-1.156 0-1.422.485-2.578 1.672-3.922l-.125-.219c-.234.11-.39.141-.719.141-.343 0-.843-.016-1.187-.047l-.14-.016c-.079-.015-.141-.015-.141-.015-.157 0-.25.031-.39.078-.173.328-.298.766-.454 1.422h.266l.203-.5c.078-.203.328-.344.61-.344.062 0 .171 0 .327.016.094.015.188.015.344.015.25 0 .406-.015.703-.046l-.031.046c-.078.094-.125.157-.328.375C1.266-3.375.859-2.516.859-1.5c0 .969.422 1.625 1.047 1.625.766 0 1.39-.656 2.282-2.36-.11.532-.141.829-.141 1.094 0 .766.344 1.266.875 1.266.969 0 2.219-1.203 2.969-2.844.265-.594.468-1.39.468-1.875 0-.672-.312-1.172-.75-1.172a.545.545 0 00-.39.141zm0 0"/></symbol><symbol overflow="visible" id="j"><path d="M.781-4.14H7.22v-.72H.78zm0 2.53H7.22v-.702H.78zm0 0"/></symbol><symbol overflow="visible" id="n"><path d="M7.906-.078c-.718-1.313-1.297-2.766-1.89-4.156-.594-1.329-1.22-2.704-1.688-4.094h-.297C3.438-6.844 2.766-5.375 2.11-3.891 1.531-2.625.984-1.297.33-.078l.077.125C1.672 0 2.937 0 4.22 0c1.202 0 2.42.016 3.624.047zm-1.484-.36H1.25a129.29 129.29 0 012.547-6.296h.094c.89 2.062 1.75 4.171 2.53 6.296zm0 0"/></symbol><clipPath id="a"><path d="M.5.184v122h204v-122zm170.52 105.66h10.742v-5.403H171.02l9 2.704zm0 0"/></clipPath><clipPath id="b"><path d="M.5.184v122h204v-122zm36 12.539V1.984h-5.398v10.739l2.699-9zm0 0"/></clipPath><clipPath id="c"><path d="M24 .184h19V20H24zm0 0"/></clipPath></defs><path d="M33.8 103.145h130.321V19.62H33.801zm0 0" fill="none" stroke-width=".9" stroke="#000" stroke-miterlimit="10"/><g clip-path="url(#a)" clip-rule="evenodd"><path d="M164.121 103.145h16.738" fill="none" stroke-width=".45" stroke="#000" stroke-miterlimit="10"/></g><path d="M171.02 105.844l9-2.7-9-2.703" fill="none" stroke-width=".45" stroke="#000" stroke-miterlimit="10"/><g clip-path="url(#b)" clip-rule="evenodd"><path d="M33.8 19.621V2.883" fill="none" stroke-width=".45" stroke="#000" stroke-miterlimit="10"/></g><g clip-path="url(#c)"><path d="M36.5 12.723l-2.7-9-2.698 9" fill="none" stroke-width=".45" stroke="#000" stroke-miterlimit="10"/></g><use xlink:href="#d" x="1.4" y="118.043"/><use xlink:href="#e" x="5.536" y="118.043"/><use xlink:href="#f" x="11.873" y="118.043"/><use xlink:href="#e" x="17.093" y="118.043"/><use xlink:href="#g" x="23.071" y="118.043"/><use xlink:href="#d" x="1.4" y="10.04"/><use xlink:href="#e" x="5.536" y="10.04"/><use xlink:href="#f" x="11.873" y="10.04"/><use xlink:href="#h" x="17.452" y="10.04"/><use xlink:href="#g" x="24.027" y="10.04"/><use xlink:href="#i" x="1.759" y="61.342"/><use xlink:href="#j" x="12.324" y="61.342"/><use xlink:href="#e" x="23.643" y="61.342"/><use xlink:href="#i" x="174.503" y="59.662"/><use xlink:href="#j" x="185.068" y="59.662"/><use xlink:href="#e" x="196.387" y="59.662"/><use xlink:href="#i" x="82.761" y="118.043"/><use xlink:href="#j" x="93.326" y="118.043"/><use xlink:href="#k" x="106.797" y="118.043"/><use xlink:href="#d" x="112.332" y="118.043"/><use xlink:href="#l" x="116.827" y="118.043"/><use xlink:href="#g" x="123.403" y="118.043"/><use xlink:href="#d" x="167.9" y="118.043"/><use xlink:href="#m" x="172.399" y="118.043"/><use xlink:href="#f" x="181.987" y="118.043"/><use xlink:href="#e" x="187.207" y="118.043"/><use xlink:href="#g" x="193.185" y="118.043"/><use xlink:href="#i" x="87.261" y="11.84"/><use xlink:href="#j" x="97.826" y="11.84"/><use xlink:href="#e" x="109.145" y="11.84"/><use xlink:href="#d" x="167.904" y="10.04"/><use xlink:href="#m" x="172.399" y="10.04"/><use xlink:href="#f" x="181.987" y="10.04"/><use xlink:href="#h" x="187.566" y="10.04"/><use xlink:href="#g" x="194.141" y="10.04"/><use xlink:href="#n" x="82.402" y="61.342"/><use xlink:href="#i" x="90.998" y="61.342"/><use xlink:href="#j" x="101.563" y="61.342"/><use xlink:href="#e" x="112.882" y="61.342"/></svg>