<svg xmlns="http://www.w3.org/2000/svg" xmlns:xlink="http://www.w3.org/1999/xlink" width="228.859" height="216.779" viewBox="0 0 171.644 162.584"><defs><symbol overflow="visible" id="g"><path d="M3.984-1.156c-.093.281-.14.61-.14.781 0 .297.14.484.36.484.312 0 .75-.25 1.921-1.125L6-1.234l-.313.203c-.28.187-.593.328-.734.328-.094 0-.14-.078-.14-.203 0-.094.015-.235.046-.406l.016-.079c.281-1.296.64-2.89 1-4.265l-.078-.11-.813.204-.125.609c-.171.937-.468 1.75-.843 2.312-.704 1.094-1.641 1.938-2.11 1.938-.093 0-.156-.11-.156-.313 0-.171.016-.328.078-.625l.688-3.234c.03-.188.046-.36.046-.516 0-.234-.093-.375-.265-.375-.235 0-.688.25-1.578.891l-.344.234.094.235.375-.25c.344-.203.469-.266.578-.266.11 0 .203.11.203.234 0 .047-.016.172-.016.22L.844-.923c-.016.11-.047.39-.047.563 0 .28.187.484.422.484.75 0 2.203-1.328 3.203-2.984zm0 0"/></symbol><symbol overflow="visible" id="n"><path d="M4.844-4.547c.203.031.297.031.406.031.203 0 .313-.015.594-.046l.11-.547-.032-.063c-.344.078-.578.11-1.219.11-.203-.313-.312-.422-.61-.547a2.495 2.495 0 00-.812-.157c-.484 0-1.078.235-1.61.625C1-4.64.657-3.937.657-3.094c0 .922.531 1.469 1.453 1.469.11 0 .235 0 .36-.016l-.485.454c-.187.187-.328.406-.328.562 0 .125.094.25.25.39C1 .079.641.25.188.626a1.643 1.643 0 00-.625 1.281c0 .844.828 1.39 2.14 1.39 1.531 0 2.89-.858 2.89-1.843 0-.437-.25-.875-.765-1.281L3.11-.422c-.406-.312-.562-.547-.562-.766 0-.109.078-.234.25-.468.031-.047.047-.047.078-.094 1.172-.281 2.016-1.281 2.016-2.344 0-.11-.016-.203-.032-.39zM3.03.687c.547.438.766.766.766 1.157 0 .625-.828 1.125-1.813 1.125-.984 0-1.656-.5-1.656-1.235 0-.453.203-.875.594-1.203.312-.25.578-.36 1.187-.547zm-.047-6.046c.704 0 1.047.437 1.047 1.28 0 1.235-.578 2.063-1.406 2.063-.734 0-1.125-.484-1.125-1.421 0-1.141.61-1.922 1.484-1.922zm0 0"/></symbol><symbol overflow="visible" id="h"><path d="M3.64-9.031C1.813-7.844.72-5.797.72-3.234c0 2.343 1.14 4.578 2.875 5.78l.156-.202C2.094.906 1.812-.484 1.812-3.281c0-2.781.313-4.219 1.938-5.547zm0 0"/></symbol><symbol overflow="visible" id="l"><path d="M.5-9.031l-.125.203C2.015-7.5 2.328-6.063 2.328-3.281c0 2.797-.281 4.187-1.953 5.625l.156.203c1.75-1.203 2.89-3.438 2.89-5.781 0-2.563-1.108-4.61-2.921-5.797zm0 0"/></symbol><symbol overflow="visible" id="i"><path d="M5 .031v-.36l-.625-.03c-.656-.032-.781-.172-.781-.782v-7.093l-.156-.063c-.782.406-1.626.766-2.72 1.156l.079.5h.125l1.547-.687.031-.016c.063 0 .094.11.094.407v5.796c0 .61-.125.75-.781.782l-.672.03v.36C1.812.016 2.469 0 3.125 0c.61 0 1.25.016 1.875.031zm0 0"/></symbol><symbol overflow="visible" id="o"><path d="M4.469-5.469c-.125-.093-.344-.14-.563-.14-.36 0-.734.187-.984.5l-.672.78v-1.234l-.11-.046a7.328 7.328 0 01-1.859.5v.328H.72c.469 0 .531.078.531.875v2.687c0 .75-.047.844-.453.86L.25-.33v.36C.734.016 1.234 0 1.719 0c.578 0 1.14.016 1.718.031v-.36l-.624-.03c-.547-.032-.563-.079-.563-.86V-3.28c0-.719.469-1.313 1.063-1.313.359 0 .609.172.796.547h.25zm0 0"/></symbol><symbol overflow="visible" id="p"><path d="M5.625.031v-.36l-.469-.015c-.281-.015-.328-.11-.328-.703v-2.187c0-1.735-.5-2.375-1.89-2.375-.516 0-.985.14-1.438.406l-.64.39v.766l.312.094.156-.375c.234-.563.375-.64.922-.64 1.125 0 1.594.437 1.625 1.53l-1.188.204C1.063-2.922.376-2.36.376-1.328.375-.391.938.14 1.891.14c.218 0 .421-.032.5-.094l1.484-1.03L3.812.03C4.125.016 4.439 0 4.75 0c.297 0 .578.016.875.031zm-1.75-1.515c-.344.5-1.11.953-1.563.953-.484 0-.906-.453-.906-.969 0-.438.25-.86.61-1.078.296-.188.953-.344 1.859-.485zm0 0"/></symbol><symbol overflow="visible" id="q"><path d="M6.922.031v-.36l-.547-.03c-.406-.016-.453-.11-.453-.86v-7.36l-.094-.093c-.531.203-.922.297-1.875.438v.328h.672c.219 0 .297.14.297.5v2.187c-.672-.297-1-.39-1.422-.39-.328 0-.61.078-.906.234l-1.047.547C.859-4.468.422-3.594.422-2.578c0 .953.312 1.734.906 2.219.406.343.969.5 1.75.5.235 0 .5-.047.563-.094l1.328-1.11L4.906.032C5.22.016 5.516 0 5.828 0c.36 0 .734.016 1.094.031zm-2-2.672c0 .782-.016.891-.172 1.172-.344.563-.922.938-1.484.938-1.047 0-1.813-1.016-1.813-2.438 0-1.312.656-2.078 1.719-2.078.469 0 .937.156 1.36.438.25.171.39.328.39.421zm0 0"/></symbol><symbol overflow="visible" id="r"><path d="M3.234.031v-.36l-.546-.03c-.407-.016-.438-.11-.438-.86v-4.343l-.11-.047a7.328 7.328 0 01-1.859.5v.328H.72c.469 0 .531.078.531.875v2.687c0 .75-.047.844-.453.86L.25-.33v.36c.5-.014 1-.03 1.5-.03s.984.016 1.484.031zm-.89-7.11c0-.343-.235-.593-.594-.593-.36 0-.61.234-.61.594s.25.594.61.594.594-.235.594-.594zm0 0"/></symbol><symbol overflow="visible" id="s"><path d="M6.938.031v-.36l-.485-.03c-.406-.016-.437-.094-.437-.86v-4.343l-.11-.047c-.61.25-1.234.421-1.86.5v.328h.438c.47 0 .532.078.532.875v1.953c0 .25-.172.594-.454.86a1.574 1.574 0 01-1.187.515c-.406 0-.75-.14-.938-.36-.171-.203-.25-.562-.25-1.093v-3.531l-.109-.047c-.61.25-1.234.421-1.86.5v.328h.438c.485 0 .531.078.531.875v2c0 .843.063 1.218.282 1.515.265.36.718.532 1.406.532.531 0 1.016-.172 1.328-.47l.813-.734c0 .344-.016.532-.063 1.094.344-.015.672-.031 1-.031.328 0 .656.016.984.031zm0 0"/></symbol><symbol overflow="visible" id="t"><path d="M4.672-1.766c0-.375-.094-.656-.328-.89-.313-.313-.703-.438-1.766-.64-.969-.188-1.297-.438-1.297-.985 0-.594.422-.938 1.14-.938.813 0 1.423.422 1.423.985v.28h.328c.016-.702.031-.983.062-1.358-.64-.204-1.062-.297-1.562-.297-1.375 0-2.235.656-2.235 1.734 0 .578.266.984.813 1.234.328.141.969.329 1.781.516.531.11.766.375.766.828 0 .64-.61 1.094-1.453 1.094-.875 0-1.5-.422-1.5-1.016v-.484h-.36C.484-.891.454-.531.36-.047.984.156 1.453.234 2 .234c1.563 0 2.672-.828 2.672-2zm0 0"/></symbol><symbol overflow="visible" id="v"><path d="M5.563-4.375c0-2.625-.782-3.86-2.422-3.86-1.844 0-2.797 1.47-2.797 4.36 0 1.406.25 2.61.672 3.188.421.593 1.093.921 1.828.921 1.812 0 2.719-1.546 2.719-4.609zm-1.016.594c0 2.547-.453 3.61-1.547 3.61-1.156 0-1.656-1.22-1.656-4.126 0-2.531.453-3.516 1.578-3.516 1.172 0 1.625 1.172 1.625 4.032zm0 0"/></symbol><symbol overflow="visible" id="j"><path d="M2.61-1.297l-.172-.172c-.391.125-.766.266-1.172.36C1.187-.08.719.859.187 1.719l.172.14.485-.234c.703-.89 1.375-1.86 1.765-2.922zm0 0"/></symbol><symbol overflow="visible" id="k"><path d="M6.844-6.031c0-1.36-.39-2.36-1.907-2.36C1.829-8.39.845-4.92.845-2.375.844-.953 1.28.188 2.906.188c2.813 0 3.938-3.97 3.938-6.22zm-.875-.157c0 .547-.094 1.094-.188 1.641H2.016c.28-1.25 1.156-3.531 2.703-3.531 1.031 0 1.25 1.078 1.25 1.89zm-.25 2.016c-.266 1.344-.922 4.016-2.64 4.016C1.874-.156 1.75-1.5 1.75-2.422c0-.594.11-1.172.203-1.75zm0 0"/></symbol><symbol overflow="visible" id="m"><path d="M.781-4.14H7.22v-.72H.78zm0 2.53H7.22v-.702H.78zm0 0"/></symbol><symbol overflow="visible" id="u"><path d="M7.906-.078c-.718-1.313-1.297-2.766-1.89-4.156-.594-1.329-1.22-2.704-1.688-4.094h-.297C3.438-6.844 2.766-5.375 2.11-3.891 1.531-2.625.984-1.297.33-.078l.077.125C1.672 0 2.937 0 4.22 0c1.202 0 2.42.016 3.624.047zm-1.484-.36H1.25a129.29 129.29 0 012.547-6.296h.094c.89 2.062 1.75 4.171 2.53 6.296zm0 0"/></symbol><clipPath id="a"><path d="M.5 14H149v148.086H.5zm0 0"/></clipPath><clipPath id="b"><path d="M.5 162.086h171v-162H.5zm170.32-71.32v.84l-10.261 2.277 9-2.7-9-2.699zm0 0"/></clipPath><clipPath id="c"><path d="M154 82h17.5v19H154zm0 0"/></clipPath><clipPath id="d"><path d="M.5 162.086h171v-162H.5zM70.98.766h.84l2.282 10.257-2.704-9-2.699 9zm0 0"/></clipPath><clipPath id="e"><path d="M62 .086h19V18H62zm0 0"/></clipPath><clipPath id="f"><path d="M.5 162.086h171v-162H.5zm133.18-35.621l-.418.66-8.102-3.063 7.14 2.043-5.402-5.16zm-62.82-35.16l.421-.66 8.098 3.058-7.14-2.039 5.402 5.16zm0 0"/></clipPath></defs><g clip-path="url(#a)"><path d="M141.84 91.184c0 38.902-31.535 70.441-70.442 70.441-38.902 0-70.437-31.54-70.437-70.441 0-38.903 31.535-70.442 70.437-70.442 38.907 0 70.442 31.54 70.442 70.442zm0 0" fill="none" stroke-width=".45" stroke="#000" stroke-miterlimit="10"/></g><g clip-path="url(#b)" clip-rule="evenodd"><path d="M48.898 91.184h121.5" fill="none" stroke-width=".45" stroke="#000" stroke-miterlimit="10"/></g><g clip-path="url(#c)"><path d="M160.559 88.484l9 2.7-9 2.699" fill="none" stroke-width=".45" stroke="#000" stroke-miterlimit="10"/></g><g clip-path="url(#d)" clip-rule="evenodd"><path d="M71.398 113.684V1.184" fill="none" stroke-width=".45" stroke="#000" stroke-miterlimit="10"/></g><g clip-path="url(#e)"><path d="M68.7 11.023l2.698-9 2.704 9" fill="none" stroke-width=".45" stroke="#000" stroke-miterlimit="10"/></g><g clip-path="url(#f)" clip-rule="evenodd"><path d="M71.398 91.184l61.743 35.402" fill="none" stroke-width=".45" stroke="#000" stroke-miterlimit="10"/></g><path d="M77.64 96.824l-5.402-5.16 7.14 2.04m47.52 27.241l5.403 5.16-7.14-2.043" fill="none" stroke-width=".45" stroke="#000" stroke-miterlimit="10"/><use xlink:href="#g" x="89.001" y="21.321"/><use xlink:href="#h" x="96.246" y="21.321"/><use xlink:href="#i" x="100.382" y="21.321"/><use xlink:href="#j" x="106.718" y="21.321"/><use xlink:href="#k" x="112.301" y="21.321"/><use xlink:href="#l" x="119.996" y="21.321"/><use xlink:href="#m" x="127.454" y="21.321"/><use xlink:href="#n" x="139.729" y="21.321"/><use xlink:href="#h" x="146.304" y="21.321"/><use xlink:href="#k" x="150.799" y="21.321"/><use xlink:href="#l" x="158.499" y="21.321"/><use xlink:href="#o" x="77.182" y="127.463"/><use xlink:href="#p" x="81.725" y="127.463"/><use xlink:href="#q" x="87.703" y="127.463"/><use xlink:href="#r" x="95.007" y="127.463"/><use xlink:href="#s" x="98.486" y="127.463"/><use xlink:href="#t" x="105.695" y="127.463"/><use xlink:href="#i" x="113.753" y="127.463"/><use xlink:href="#u" x="83.062" y="69.742"/><use xlink:href="#g" x="91.658" y="69.742"/><use xlink:href="#m" x="102.223" y="69.742"/><use xlink:href="#v" x="113.542" y="69.742"/></svg>