<svg xmlns="http://www.w3.org/2000/svg" xmlns:xlink="http://www.w3.org/1999/xlink" width="374pt" height="275pt" viewBox="0 0 374 275"><defs><clipPath id="h"><path d="M17 264h340v.5H17zm0 0"/></clipPath><clipPath id="d"><path d="M101 9.5h2v255h-2zm0 0"/></clipPath><clipPath id="m"><path d="M17 51h340v2H17zm0 0"/></clipPath><clipPath id="l"><path d="M17 94h340v1H17zm0 0"/></clipPath><clipPath id="k"><path d="M17 136h340v2H17zm0 0"/></clipPath><clipPath id="j"><path d="M17 179h340v1H17zm0 0"/></clipPath><clipPath id="i"><path d="M17 221h340v2H17zm0 0"/></clipPath><clipPath id="a"><path d="M101 9.5h2v255h-2zm0 0"/></clipPath><clipPath id="b"><path d="M17 264h340v.5H17zm0 0"/></clipPath><clipPath id="c"><path d="M17 9.5h1v255h-1zm0 0"/></clipPath><clipPath id="n"><path d="M17 9.5h340v.5H17zm0 0"/></clipPath><clipPath id="e"><path d="M186 9.5h2v255h-2zm0 0"/></clipPath><clipPath id="f"><path d="M271 9.5h2v255h-2zm0 0"/></clipPath><clipPath id="g"><path d="M356 9.5h1v255h-1zm0 0"/></clipPath><symbol overflow="visible" id="p"><path d="M1.938-3.781V0h.671v-5.313h-.437c-.235.813-.39.922-1.406 1.047v.485zm0 0"/></symbol><symbol overflow="visible" id="u"><path d="M3.563-5.313H.828L.422-2.421h.61c.312-.375.562-.5.984-.5.703 0 1.156.485 1.156 1.281 0 .766-.438 1.235-1.156 1.235-.579 0-.938-.297-1.094-.906H.266c.093.437.156.656.312.843.313.406.844.64 1.453.64 1.063 0 1.813-.78 1.813-1.905 0-1.047-.688-1.766-1.719-1.766-.375 0-.672.094-.984.313l.218-1.485h2.204zm0 0"/></symbol><symbol overflow="visible" id="t"><path d="M1.438-.781H.655V0h.781zm0 0"/></symbol><symbol overflow="visible" id="s"><path d="M1.656-2.438h.36c.734 0 1.109.329 1.109.954 0 .671-.422 1.078-1.11 1.078-.718 0-1.078-.36-1.109-1.14H.234c.032.421.11.702.235.952.281.5.797.766 1.531.766 1.094 0 1.797-.656 1.797-1.656 0-.672-.266-1.047-.906-1.266.5-.203.75-.578.75-1.11 0-.906-.61-1.453-1.625-1.453-1.079 0-1.641.579-1.657 1.72h.657c0-.329.03-.516.109-.673.156-.296.484-.468.906-.468.578 0 .938.343.938.906 0 .375-.14.594-.438.719-.172.078-.406.109-.875.109zm0 0"/></symbol><symbol overflow="visible" id="r"><path d="M3.797-.656H1c.063-.438.313-.703.953-1.094l.75-.406c.75-.406 1.125-.953 1.125-1.594 0-.453-.172-.86-.484-1.14-.328-.298-.719-.423-1.219-.423-.672 0-1.172.235-1.469.688-.187.281-.265.61-.281 1.156h.656c.032-.36.078-.578.157-.75.171-.328.515-.515.921-.515.594 0 1.047.421 1.047.984 0 .422-.25.781-.719 1.063l-.687.39C.64-1.672.312-1.172.25 0h3.547zm0 0"/></symbol><symbol overflow="visible" id="q"><path d="M2.063-5.313c-.5 0-.938.22-1.22.579C.5-4.266.329-3.563.329-2.578c0 1.797.594 2.75 1.734 2.75 1.126 0 1.735-.953 1.735-2.703 0-1.031-.156-1.719-.516-2.203-.281-.375-.719-.579-1.219-.579zm0 .579c.718 0 1.062.718 1.062 2.14 0 1.516-.344 2.219-1.078 2.219C1.344-.375 1-1.109 1-2.563c0-1.453.344-2.171 1.063-2.171zm0 0"/></symbol><symbol overflow="visible" id="o"><path d="M2.125-2.344H.344v.547h1.781zm0 0"/></symbol></defs><g clip-path="url(#a)"><path d="M102 264.5V9.5" fill="none" stroke-width=".625" stroke-linecap="round" stroke="#bfbfbf" stroke-miterlimit="10"/></g><g clip-path="url(#b)"><path d="M17 264.5h340" fill="none" stroke-width=".625" stroke-linecap="round" stroke="#bfbfbf" stroke-miterlimit="10"/></g><g clip-path="url(#c)"><path d="M17 264.5V9.5" fill="none" stroke-width=".625" stroke-linecap="round" stroke="#bfbfbf" stroke-dasharray="12.5,18.75" stroke-miterlimit="10"/></g><g clip-path="url(#d)"><path d="M102 264.5V9.5" fill="none" stroke-width=".625" stroke-linecap="round" stroke="#bfbfbf" stroke-dasharray="12.5,18.75" stroke-miterlimit="10"/></g><g clip-path="url(#e)"><path d="M187 264.5V9.5" fill="none" stroke-width=".625" stroke-linecap="round" stroke="#bfbfbf" stroke-dasharray="12.5,18.75" stroke-miterlimit="10"/></g><g clip-path="url(#f)"><path d="M272 264.5V9.5" fill="none" stroke-width=".625" stroke-linecap="round" stroke="#bfbfbf" stroke-dasharray="12.5,18.75" stroke-miterlimit="10"/></g><g clip-path="url(#g)"><path d="M357 264.5V9.5" fill="none" stroke-width=".625" stroke-linecap="round" stroke="#bfbfbf" stroke-dasharray="12.5,18.75" stroke-miterlimit="10"/></g><g clip-path="url(#h)"><path d="M17 264.5h340" fill="none" stroke-width=".625" stroke-linecap="round" stroke="#bfbfbf" stroke-dasharray="12.5,18.75" stroke-miterlimit="10"/></g><g clip-path="url(#i)"><path d="M17 222h340" fill="none" stroke-width=".625" stroke-linecap="round" stroke="#bfbfbf" stroke-dasharray="12.5,18.75" stroke-miterlimit="10"/></g><g clip-path="url(#j)"><path d="M17 179.5h340" fill="none" stroke-width=".625" stroke-linecap="round" stroke="#bfbfbf" stroke-dasharray="12.5,18.75" stroke-miterlimit="10"/></g><g clip-path="url(#k)"><path d="M17 137h340" fill="none" stroke-width=".625" stroke-linecap="round" stroke="#bfbfbf" stroke-dasharray="12.5,18.75" stroke-miterlimit="10"/></g><g clip-path="url(#l)"><path d="M17 94.5h340" fill="none" stroke-width=".625" stroke-linecap="round" stroke="#bfbfbf" stroke-dasharray="12.5,18.75" stroke-miterlimit="10"/></g><g clip-path="url(#m)"><path d="M17 52h340" fill="none" stroke-width=".625" stroke-linecap="round" stroke="#bfbfbf" stroke-dasharray="12.5,18.75" stroke-miterlimit="10"/></g><g clip-path="url(#n)"><path d="M17 9.5h340" fill="none" stroke-width=".625" stroke-linecap="round" stroke="#bfbfbf" stroke-dasharray="12.5,18.75" stroke-miterlimit="10"/></g><path d="M17 264.5h340" fill="none" stroke-width="1.25" stroke-linecap="square" stroke="#000" stroke-miterlimit="10"/><path d="M17 264.5v-5m8.5 5V262m8.5 2.5V262m8.5 2.5V262m8.5 2.5V262m8.5 2.5V262m8.5 2.5V262m8.5 2.5V262m8.5 2.5V262m8.5 2.5V262m8.5 2.5v-5m8.5 5V262m8.5 2.5V262m8.5 2.5V262m8.5 2.5V262m8.5 2.5V262m8.5 2.5V262m8.5 2.5V262m8.5 2.5V262m8.5 2.5V262m8.5 2.5v-5m8.5 5V262m8.5 2.5V262m8.5 2.5V262m8.5 2.5V262m8.5 2.5V262m8.5 2.5V262m8.5 2.5V262m8.5 2.5V262m8.5 2.5V262m8.5 2.5v-5m8.5 5V262m8.5 2.5V262m8.5 2.5V262m8.5 2.5V262m8.5 2.5V262m8.5 2.5V262m8.5 2.5V262m8.5 2.5V262m8.5 2.5V262m8.5 2.5v-5" fill="none" stroke-width=".625" stroke="#000" stroke-miterlimit="10"/><use xlink:href="#o" x="13.042" y="274.5"/><use xlink:href="#p" x="15.539" y="274.5"/><use xlink:href="#q" x="99.29" y="274.5"/><use xlink:href="#p" x="184.916" y="274.5"/><use xlink:href="#r" x="269.915" y="274.5"/><use xlink:href="#s" x="354.915" y="274.5"/><path d="M17 9.5h340" fill="none" stroke-width="1.25" stroke-linecap="square" stroke="#000" stroke-miterlimit="10"/><path d="M17 9.5v5m8.5-5V12M34 9.5V12m8.5-2.5V12M51 9.5V12m8.5-2.5V12M68 9.5V12m8.5-2.5V12M85 9.5V12m8.5-2.5V12m8.5-2.5v5m8.5-5V12m8.5-2.5V12m8.5-2.5V12m8.5-2.5V12m8.5-2.5V12m8.5-2.5V12m8.5-2.5V12m8.5-2.5V12m8.5-2.5V12m8.5-2.5v5m8.5-5V12m8.5-2.5V12m8.5-2.5V12m8.5-2.5V12m8.5-2.5V12m8.5-2.5V12m8.5-2.5V12m8.5-2.5V12m8.5-2.5V12m8.5-2.5v5m8.5-5V12m8.5-2.5V12m8.5-2.5V12m8.5-2.5V12m8.5-2.5V12m8.5-2.5V12m8.5-2.5V12m8.5-2.5V12m8.5-2.5V12m8.5-2.5v5" fill="none" stroke-width=".625" stroke="#000" stroke-miterlimit="10"/><use xlink:href="#o" x="13.042" y="6.375"/><use xlink:href="#p" x="15.539" y="6.375"/><use xlink:href="#q" x="99.29" y="6.375"/><use xlink:href="#p" x="184.916" y="6.375"/><use xlink:href="#r" x="269.915" y="6.375"/><use xlink:href="#s" x="354.915" y="6.375"/><path d="M17 264.5V9.5" fill="none" stroke-width="1.25" stroke-linecap="square" stroke="#000" stroke-miterlimit="10"/><path d="M17 264.5h5m-5-4.25h2.5M17 256h2.5m-2.5-4.25h2.5M17 247.5h2.5m-2.5-4.25h2.5M17 239h2.5m-2.5-4.25h2.5M17 230.5h2.5m-2.5-4.25h2.5M17 222h5m-5-4.25h2.5M17 213.5h2.5m-2.5-4.25h2.5M17 205h2.5m-2.5-4.25h2.5M17 196.5h2.5m-2.5-4.25h2.5M17 188h2.5m-2.5-4.25h2.5M17 179.5h5m-5-4.25h2.5M17 171h2.5m-2.5-4.25h2.5M17 162.5h2.5m-2.5-4.25h2.5M17 154h2.5m-2.5-4.25h2.5M17 145.5h2.5m-2.5-4.25h2.5M17 137h5m-5-4.25h2.5M17 128.5h2.5m-2.5-4.25h2.5M17 120h2.5m-2.5-4.25h2.5M17 111.5h2.5m-2.5-4.25h2.5M17 103h2.5M17 98.75h2.5M17 94.5h5m-5-4.25h2.5M17 86h2.5M17 81.75h2.5M17 77.5h2.5M17 73.25h2.5M17 69h2.5M17 64.75h2.5M17 60.5h2.5M17 56.25h2.5M17 52h5m-5-4.25h2.5M17 43.5h2.5M17 39.25h2.5M17 35h2.5M17 30.75h2.5M17 26.5h2.5M17 22.25h2.5M17 18h2.5M17 13.75h2.5M17 9.5h5" fill="none" stroke-width=".625" stroke="#000" stroke-miterlimit="10"/><use xlink:href="#q" x="-.299" y="268.25"/><use xlink:href="#t" x="3.871" y="268.25"/><use xlink:href="#q" x="5.956" y="268.25"/><use xlink:href="#q" x="-.299" y="225.125"/><use xlink:href="#t" x="3.871" y="225.125"/><use xlink:href="#u" x="5.956" y="225.125"/><use xlink:href="#p" x="-.299" y="183.25"/><use xlink:href="#t" x="3.871" y="183.25"/><use xlink:href="#q" x="5.956" y="183.25"/><use xlink:href="#p" x="-.299" y="140.125"/><use xlink:href="#t" x="3.871" y="140.125"/><use xlink:href="#u" x="5.956" y="140.125"/><use xlink:href="#r" x="-.299" y="98.25"/><use xlink:href="#t" x="3.871" y="98.25"/><use xlink:href="#q" x="5.956" y="98.25"/><use xlink:href="#r" x="-.299" y="55.125"/><use xlink:href="#t" x="3.871" y="55.125"/><use xlink:href="#u" x="5.956" y="55.125"/><use xlink:href="#s" x="-.299" y="12.625"/><use xlink:href="#t" x="3.871" y="12.625"/><use xlink:href="#q" x="5.956" y="12.625"/><path d="M357 264.5V9.5" fill="none" stroke-width="1.25" stroke-linecap="square" stroke="#000" stroke-miterlimit="10"/><path d="M357 264.5h-5m5-4.25h-2.5M357 256h-2.5m2.5-4.25h-2.5m2.5-4.25h-2.5m2.5-4.25h-2.5M357 239h-2.5m2.5-4.25h-2.5m2.5-4.25h-2.5m2.5-4.25h-2.5M357 222h-5m5-4.25h-2.5m2.5-4.25h-2.5m2.5-4.25h-2.5M357 205h-2.5m2.5-4.25h-2.5m2.5-4.25h-2.5m2.5-4.25h-2.5M357 188h-2.5m2.5-4.25h-2.5m2.5-4.25h-5m5-4.25h-2.5M357 171h-2.5m2.5-4.25h-2.5m2.5-4.25h-2.5m2.5-4.25h-2.5M357 154h-2.5m2.5-4.25h-2.5m2.5-4.25h-2.5m2.5-4.25h-2.5M357 137h-5m5-4.25h-2.5m2.5-4.25h-2.5m2.5-4.25h-2.5M357 120h-2.5m2.5-4.25h-2.5m2.5-4.25h-2.5m2.5-4.25h-2.5M357 103h-2.5m2.5-4.25h-2.5m2.5-4.25h-5m5-4.25h-2.5M357 86h-2.5m2.5-4.25h-2.5m2.5-4.25h-2.5m2.5-4.25h-2.5M357 69h-2.5m2.5-4.25h-2.5m2.5-4.25h-2.5m2.5-4.25h-2.5M357 52h-5m5-4.25h-2.5m2.5-4.25h-2.5m2.5-4.25h-2.5M357 35h-2.5m2.5-4.25h-2.5m2.5-4.25h-2.5m2.5-4.25h-2.5M357 18h-2.5m2.5-4.25h-2.5M357 9.5h-5" fill="none" stroke-width=".625" stroke="#000" stroke-miterlimit="10"/><use xlink:href="#q" x="363.25" y="268.25"/><use xlink:href="#t" x="367.42" y="268.25"/><use xlink:href="#q" x="369.505" y="268.25"/><use xlink:href="#q" x="363.25" y="225.125"/><use xlink:href="#t" x="367.42" y="225.125"/><use xlink:href="#u" x="369.505" y="225.125"/><use xlink:href="#p" x="363.25" y="183.25"/><use xlink:href="#t" x="367.42" y="183.25"/><use xlink:href="#q" x="369.505" y="183.25"/><use xlink:href="#p" x="363.25" y="140.125"/><use xlink:href="#t" x="367.42" y="140.125"/><use xlink:href="#u" x="369.505" y="140.125"/><use xlink:href="#r" x="363.25" y="98.25"/><use xlink:href="#t" x="367.42" y="98.25"/><use xlink:href="#q" x="369.505" y="98.25"/><use xlink:href="#r" x="363.25" y="55.125"/><use xlink:href="#t" x="367.42" y="55.125"/><use xlink:href="#u" x="369.505" y="55.125"/><use xlink:href="#s" x="363.25" y="12.625"/><use xlink:href="#t" x="367.42" y="12.625"/><use xlink:href="#q" x="369.505" y="12.625"/><path d="M20.398 258.133l10.204-.016m0 0h0m-10.2-12.656l10.196-.172m0 0h0m-10.192-12.426l10.188-.476m0 0h0m-10.172-12.043l10.156-.938m0 0h0m-10.121-11.515l10.086-1.532m0 0h0m-10.016-10.855l9.946-2.258m0 0h0m-9.836-10.082l9.726-3.078m0 0h0m-9.562-9.23l9.398-3.965m0 0h0m-9.183-8.336l8.968-4.86m0 0h0m-8.707-7.46l8.446-5.72m0 0h0m-8.153-6.64l7.86-6.5m0 0h0m-7.551-5.91l7.242-7.18m0 0h0m-6.93-5.281l6.618-7.758m0 0h0m-6.32-4.754l6.023-8.234m0 0h0m-5.742-4.324l5.46-8.618m0 0h0m-5.207-3.98l4.95-8.922m0 0h0m-4.715-3.71l4.484-9.157m0 0h0m-4.277-3.496l4.07-9.352m0 0h0m-3.887-3.32l3.704-9.508m0 0h0m-3.54-3.184l3.375-9.625m0 0h0m10.211 247.07l10.2-.015m0 0h0m-10.196-12.656l10.196-.172m0 0h0m-10.192-12.426l10.188-.476m0 0h0m-10.172-12.043l10.156-.938m0 0h0m-10.121-11.515l10.086-1.532m0 0h0m-10.016-10.855l9.946-2.258m0 0h0m-9.836-10.082l9.726-3.078m0 0h0m-9.562-9.23l9.398-3.965m0 0h0m-9.183-8.336l8.968-4.86m0 0h0m-8.707-7.46l8.446-5.72m0 0h0m-8.153-6.64l7.86-6.5m0 0h0m-7.551-5.91l7.242-7.18m0 0h0m-6.93-5.281l6.618-7.758m0 0h0m-6.32-4.754l6.023-8.234m0 0h0m-5.742-4.324l5.46-8.618m0 0h0m-5.207-3.98l4.95-8.922m0 0h0m-4.715-3.71l4.484-9.157m0 0h0m-4.277-3.496l4.07-9.352m0 0h0m-3.887-3.32l3.704-9.508m0 0h0m-3.54-3.184l3.375-9.625m0 0h0m10.211 247.07l10.204-.015m0 0h0m-10.2-12.656l10.196-.172m0 0h0m-10.192-12.426l10.188-.476m0 0h0m-10.172-12.043l10.156-.938m0 0h0m-10.121-11.515l10.086-1.532m0 0h0m-10.016-10.855l9.946-2.258m0 0h0m-9.836-10.082l9.726-3.078m0 0h0m-9.562-9.23l9.398-3.965m0 0h0m-9.183-8.336l8.968-4.86m0 0h0m-8.707-7.46l8.446-5.72m0 0h0m-8.153-6.64l7.86-6.5m0 0h0m-7.551-5.91l7.242-7.18m0 0h0m-6.934-5.281l6.622-7.758m0 0h0m-6.32-4.754l6.023-8.234m0 0h0m-5.742-4.324l5.46-8.618m0 0h0m-5.207-3.98l4.95-8.922m0 0h0m-4.715-3.71l4.484-9.157m0 0h0m-4.277-3.496l4.07-9.352m0 0h0m-3.887-3.32l3.704-9.508m0 0h0m-3.54-3.184l3.375-9.625m0 0h0m10.211 247.07l10.204-.015m0 0h0m-10.2-12.656l10.196-.172m0 0h0m-10.192-12.426l10.188-.476m0 0h0m-10.172-12.043l10.156-.938m0 0h0m-10.121-11.515l10.086-1.532m0 0h0m-10.016-10.855l9.946-2.258m0 0h0m-9.836-10.082l9.726-3.078m0 0h0m-9.562-9.23l9.398-3.965m0 0h0m-9.183-8.336l8.968-4.86m0 0h0m-8.707-7.46l8.446-5.72m0 0h0m-8.153-6.64l7.86-6.5m0 0h0m-7.551-5.91l7.242-7.18m0 0h0m-6.934-5.281l6.622-7.758m0 0h0m-6.32-4.754l6.023-8.234m0 0h0m-5.742-4.324l5.46-8.618m0 0h0m-5.207-3.98l4.954-8.922m0 0h0m-4.72-3.71l4.485-9.157m0 0h0m-4.277-3.496l4.07-9.352m0 0h0m-3.887-3.32l3.704-9.508m0 0h0m-3.54-3.184l3.375-9.625m0 0h0m10.211 247.07l10.2-.015m0 0h0m-10.196-12.656l10.196-.172m0 0h0m-10.192-12.426l10.188-.476m0 0h0m-10.172-12.043l10.156-.938m0 0h0m-10.121-11.515l10.086-1.532m0 0h0m-10.016-10.855l9.946-2.258m0 0h0m-9.836-10.082l9.726-3.078m0 0h0m-9.562-9.23l9.398-3.965m0 0h0m-9.183-8.336l8.968-4.86m0 0h0m-8.707-7.46l8.446-5.72m0 0h0m-8.153-6.64l7.86-6.5m0 0h0m-7.551-5.91l7.242-7.18m0 0h0m-6.934-5.281l6.622-7.758m0 0h0m-6.32-4.754l6.023-8.234m0 0h0m-5.742-4.324l5.46-8.618m0 0h0m-5.207-3.98l4.954-8.922m0 0h0m-4.72-3.71l4.485-9.157m0 0h0m-4.277-3.496l4.07-9.352m0 0h0m-3.887-3.32l3.704-9.508m0 0h0m-3.54-3.184l3.375-9.625m0 0h0m10.211 247.07l10.204-.015m0 0h0m-10.204-12.656l10.2-.172m0 0h0m-10.192-12.426l10.188-.476m0 0h0m-10.172-12.043l10.156-.938m0 0h0m-10.121-11.515l10.086-1.532m0 0h0m-10.016-10.855l9.946-2.258m0 0h0m-9.836-10.082l9.726-3.078m0 0h0m-9.562-9.23l9.398-3.965m0 0h0m-9.183-8.336l8.968-4.86m0 0h0m-8.707-7.46l8.446-5.72m0 0h0m-8.153-6.64l7.86-6.5m0 0h0m-7.551-5.91l7.242-7.18m0 0h0m-6.934-5.281l6.625-7.758m0 0h0m-6.324-4.754l6.024-8.234m0 0h0m-5.742-4.324l5.46-8.618m0 0h0m-5.207-3.98l4.954-8.922m0 0h0m-4.72-3.71l4.485-9.157m0 0h0m-4.277-3.496l4.07-9.352m0 0h0m-3.887-3.32l3.704-9.508m0 0h0m-3.54-3.184l3.375-9.625m0 0h0m10.211 247.07l10.204-.015m0 0h0m-10.204-12.656l10.2-.172m0 0h0m-10.192-12.426l10.188-.476m0 0h0m-10.172-12.043l10.156-.938m0 0h0m-10.121-11.515l10.086-1.532m0 0h0m-10.016-10.855l9.946-2.258m0 0h0m-9.836-10.082l9.726-3.078m0 0h0m-9.562-9.23l9.398-3.965m0 0h0m-9.183-8.336l8.968-4.86m0 0h0m-8.707-7.46l8.446-5.72m0 0h0m-8.153-6.64l7.86-6.5m0 0h0m-7.551-5.91l7.242-7.18m0 0h0m-6.934-5.281l6.625-7.758m0 0h0m-6.324-4.754l6.024-8.234m0 0h0m-5.742-4.324l5.46-8.618m0 0h0m-5.207-3.98l4.954-8.922m0 0h0m-4.72-3.71l4.485-9.157m0 0h0m-4.277-3.496l4.07-9.352m0 0h0m-3.887-3.32l3.704-9.508m0 0h0m-3.54-3.184l3.376-9.625m0 0h0m10.21 247.07l10.204-.015m0 0h0m-10.204-12.656l10.2-.172m0 0h0m-10.192-12.426l10.188-.476m0 0h0m-10.172-12.043l10.156-.938m0 0h0m-10.121-11.515l10.086-1.532m0 0h0m-10.016-10.855l9.946-2.258m0 0h0m-9.836-10.082l9.726-3.078m0 0h0m-9.562-9.23l9.398-3.965m0 0h0m-9.183-8.336l8.968-4.86m0 0h0m-8.707-7.46l8.446-5.72m0 0h0m-8.153-6.64l7.86-6.5m0 0h0m-7.551-5.91l7.242-7.18m0 0h0m-6.933-5.281l6.625-7.758m0 0h0m-6.325-4.754l6.024-8.234m0 0h0m-5.742-4.324l5.46-8.618m0 0h0m-5.207-3.98l4.954-8.922m0 0h0m-4.72-3.71l4.485-9.157m0 0h0m-4.277-3.496l4.07-9.352m0 0h0m-3.887-3.32l3.704-9.508m0 0h0m-3.54-3.184l3.376-9.625m0 0h0m10.21 247.07l10.204-.015m0 0h0m-10.204-12.656l10.2-.172m0 0h0m-10.192-12.426l10.188-.476m0 0h0m-10.172-12.043l10.156-.938m0 0h0m-10.121-11.515l10.086-1.532m0 0h0m-10.016-10.855l9.946-2.258m0 0h0m-9.836-10.082l9.726-3.078m0 0h0m-9.562-9.23l9.398-3.965m0 0h0m-9.183-8.336l8.968-4.86m0 0h0m-8.707-7.46l8.446-5.72m0 0h0m-8.153-6.64l7.86-6.5m0 0h0m-7.551-5.91l7.242-7.18m0 0h0m-6.933-5.281l6.625-7.758m0 0h0m-6.325-4.754l6.024-8.234m0 0h0m-5.742-4.324l5.46-8.618m0 0h0m-5.207-3.98l4.954-8.922m0 0h0m-4.72-3.71l4.485-9.157m0 0h0m-4.277-3.496l4.07-9.352m0 0h0m-3.887-3.32l3.704-9.508m0 0h0m-3.54-3.184l3.376-9.625m0 0h0m10.21 247.07l10.204-.015m0 0h0m-10.204-12.656l10.2-.172m0 0h0m-10.192-12.426l10.188-.476m0 0h0m-10.172-12.043l10.156-.938m0 0h0m-10.121-11.515l10.086-1.532m0 0h0m-10.016-10.855l9.946-2.258m0 0h0m-9.836-10.082l9.726-3.078m0 0h0m-9.562-9.23l9.398-3.965m0 0h0m-9.183-8.336l8.968-4.86m0 0h0m-8.707-7.46l8.446-5.72m0 0h0m-8.153-6.64l7.86-6.5m0 0h0m-7.551-5.91l7.242-7.18m0 0h0m-6.933-5.281l6.625-7.758m0 0h0m-6.325-4.754l6.024-8.234m0 0h0m-5.742-4.324l5.46-8.618m0 0h0m-5.207-3.98l4.954-8.922m0 0h0m-4.72-3.71l4.485-9.157m0 0h0m-4.277-3.496l4.07-9.352m0 0h0m-3.887-3.32l3.704-9.508m0 0h0m-3.54-3.184l3.376-9.625m0 0h0m10.21 247.07l10.204-.015m0 0h0m-10.204-12.656l10.2-.172m0 0h0m-10.192-12.426l10.188-.476m0 0h0m-10.172-12.043l10.156-.938m0 0h0m-10.121-11.515l10.086-1.532m0 0h0m-10.016-10.855l9.946-2.258m0 0h0m-9.836-10.082l9.726-3.078m0 0h0m-9.562-9.23l9.398-3.965m0 0h0m-9.183-8.336l8.968-4.86m0 0h0m-8.707-7.46l8.446-5.72m0 0h0m-8.153-6.64l7.86-6.5m0 0h0m-7.551-5.91l7.242-7.18m0 0h0m-6.933-5.281l6.625-7.758m0 0h0m-6.325-4.754l6.024-8.234m0 0h0m-5.742-4.324l5.46-8.618m0 0h0m-5.207-3.98l4.954-8.922m0 0h0m-4.72-3.71l4.485-9.157m0 0h0m-4.277-3.496l4.07-9.352m0 0h0m-3.887-3.32l3.704-9.508m0 0h0m-3.54-3.184l3.376-9.625m0 0h0m10.21 247.07l10.204-.015m0 0h0m-10.204-12.656l10.2-.172m0 0h0m-10.192-12.426l10.188-.476m0 0h0m-10.172-12.043l10.156-.938m0 0h0m-10.121-11.515l10.086-1.532m0 0h0m-10.016-10.855l9.946-2.258m0 0h0m-9.836-10.082l9.726-3.078m0 0h0m-9.562-9.23l9.398-3.965m0 0h0m-9.183-8.336l8.968-4.86m0 0h0m-8.707-7.46l8.446-5.72m0 0h0m-8.153-6.64l7.86-6.5m0 0h0m-7.551-5.91l7.242-7.18m0 0h0m-6.933-5.281l6.625-7.758m0 0h0m-6.325-4.754l6.024-8.234m0 0h0m-5.742-4.324l5.46-8.618m0 0h0m-5.207-3.98l4.954-8.922m0 0h0m-4.72-3.71l4.485-9.157m0 0h0m-4.277-3.496l4.07-9.352m0 0h0m-3.887-3.32l3.704-9.508m0 0h0m-3.54-3.184l3.376-9.625m0 0h0m10.21 247.07l10.204-.015m0 0h0m-10.204-12.656l10.2-.172m0 0h0m-10.192-12.426l10.188-.476m0 0h0m-10.172-12.043l10.156-.938m0 0h0m-10.121-11.515l10.086-1.532m0 0h0m-10.016-10.855l9.946-2.258m0 0h0m-9.836-10.082l9.726-3.078m0 0h0m-9.562-9.23l9.398-3.965m0 0h0m-9.183-8.336l8.968-4.86m0 0h0m-8.707-7.46l8.446-5.72m0 0h0m-8.153-6.64l7.86-6.5m0 0h0m-7.551-5.91l7.242-7.18m0 0h0m-6.933-5.281l6.625-7.758m0 0h0m-6.325-4.754l6.024-8.234m0 0h0m-5.742-4.324l5.46-8.618m0 0h0m-5.207-3.98l4.954-8.922m0 0h0m-4.72-3.71l4.485-9.157m0 0h0m-4.277-3.496l4.07-9.352m0 0h0m-3.887-3.32l3.704-9.508m0 0h0m-3.54-3.184l3.376-9.625m0 0h0m10.21 247.07l10.204-.015m0 0h0m-10.204-12.656l10.2-.172m0 0h0m-10.192-12.426l10.188-.476m0 0h0m-10.172-12.043l10.156-.938m0 0h0m-10.121-11.515l10.086-1.532m0 0h0m-10.016-10.855l9.946-2.258m0 0h0m-9.836-10.082l9.726-3.078m0 0h0m-9.562-9.23l9.398-3.965m0 0h0m-9.183-8.336l8.968-4.86m0 0h0m-8.707-7.46l8.446-5.72m0 0h0m-8.153-6.64l7.86-6.5m0 0h0m-7.551-5.91l7.242-7.18m0 0h0m-6.933-5.281l6.625-7.758m0 0h0m-6.325-4.754l6.024-8.234m0 0h0m-5.742-4.324l5.46-8.618m0 0h0m-5.207-3.98l4.954-8.922m0 0h0m-4.72-3.71l4.485-9.157m0 0h0m-4.277-3.496l4.07-9.352m0 0h0m-3.887-3.32l3.704-9.508m0 0h0m-3.54-3.184l3.376-9.625m0 0h0m10.21 247.07l10.204-.015m0 0h0m-10.204-12.656l10.2-.172m0 0h0m-10.192-12.426l10.188-.476m0 0h0m-10.172-12.043l10.156-.938m0 0h0m-10.121-11.515l10.086-1.532m0 0h0m-10.016-10.855l9.946-2.258m0 0h0m-9.836-10.082l9.726-3.078m0 0h0m-9.562-9.23l9.398-3.965m0 0h0m-9.183-8.336l8.968-4.86m0 0h0m-8.707-7.46l8.446-5.72m0 0h0m-8.153-6.64l7.86-6.5m0 0h0m-7.551-5.91l7.242-7.18m0 0h0m-6.933-5.281l6.625-7.758m0 0h0m-6.325-4.754l6.024-8.234m0 0h0m-5.742-4.324l5.46-8.618m0 0h0m-5.207-3.98l4.954-8.922m0 0h0m-4.72-3.71l4.485-9.157m0 0h0m-4.277-3.496l4.07-9.352m0 0h0m-3.887-3.32l3.704-9.508m0 0h0m-3.54-3.184l3.376-9.625m0 0h0m10.21 247.07l10.204-.015m0 0h0m-10.204-12.656l10.2-.172m0 0h0m-10.192-12.426l10.188-.476m0 0h0m-10.172-12.043l10.156-.938m0 0h0m-10.121-11.515l10.086-1.532m0 0h0m-10.016-10.855l9.946-2.258m0 0h0m-9.836-10.082l9.726-3.078m0 0h0m-9.562-9.23l9.398-3.965m0 0h0m-9.183-8.336l8.968-4.86m0 0h0m-8.707-7.46l8.446-5.72m0 0h0m-8.153-6.64l7.86-6.5m0 0h0m-7.551-5.91l7.242-7.18m0 0h0m-6.933-5.281l6.625-7.758m0 0h0m-6.325-4.754l6.024-8.234m0 0h0m-5.742-4.324l5.46-8.618m0 0h0m-5.207-3.98l4.954-8.922m0 0h0m-4.72-3.71l4.485-9.157m0 0h0m-4.277-3.496l4.07-9.352m0 0h0m-3.887-3.32l3.704-9.508m0 0h0m-3.54-3.184l3.375-9.625m0 0h0m10.211 247.07l10.204-.015m0 0h0m-10.204-12.656l10.2-.172m0 0h0m-10.192-12.426l10.188-.476m0 0h0m-10.172-12.043l10.156-.938m0 0h0m-10.121-11.515l10.086-1.532m0 0h0m-10.016-10.855l9.946-2.258m0 0h0m-9.836-10.082l9.726-3.078m0 0h0m-9.562-9.23l9.398-3.965m0 0h0m-9.183-8.336l8.968-4.86m0 0h0m-8.707-7.46l8.446-5.72m0 0h0m-8.153-6.64l7.86-6.5m0 0h0m-7.551-5.91l7.242-7.18m0 0h0m-6.934-5.281l6.625-7.758m0 0h0m-6.324-4.754l6.024-8.234m0 0h0m-5.742-4.324l5.46-8.618m0 0h0m-5.207-3.98l4.954-8.922m0 0h0m-4.72-3.71l4.485-9.157m0 0h0m-4.277-3.496l4.07-9.352m0 0h0m-3.887-3.32l3.704-9.508m0 0h0m-3.54-3.184l3.375-9.625m0 0h0m10.211 247.07l10.204-.015m0 0h0m-10.204-12.656l10.2-.172m0 0h0m-10.192-12.426l10.188-.476m0 0h0m-10.172-12.043l10.156-.938m0 0h0m-10.121-11.515l10.086-1.532m0 0h0m-10.016-10.855l9.946-2.258m0 0h0m-9.836-10.082l9.726-3.078m0 0h0m-9.562-9.23l9.398-3.965m0 0h0m-9.183-8.336l8.968-4.86m0 0h0m-8.707-7.46l8.446-5.72m0 0h0m-8.153-6.64l7.86-6.5m0 0h0m-7.551-5.91l7.242-7.18m0 0h0m-6.934-5.281l6.625-7.758m0 0h0m-6.324-4.754l6.024-8.234m0 0h0m-5.742-4.324l5.46-8.618m0 0h0m-5.207-3.98l4.954-8.922m0 0h0m-4.72-3.71l4.485-9.157m0 0h0m-4.277-3.496l4.07-9.352m0 0h0m-3.887-3.32l3.704-9.508m0 0h0m-3.54-3.184l3.375-9.625m0 0h0m10.211 247.07l10.204-.015m0 0h0m-10.204-12.656l10.2-.172m0 0h0m-10.192-12.426l10.188-.476m0 0h0m-10.172-12.043l10.156-.938m0 0h0m-10.121-11.515l10.086-1.532m0 0h0m-10.016-10.855l9.946-2.258m0 0h0m-9.836-10.082l9.726-3.078m0 0h0m-9.562-9.23l9.398-3.965m0 0h0m-9.183-8.336l8.968-4.86m0 0h0m-8.707-7.46l8.446-5.72m0 0h0m-8.153-6.64l7.86-6.5m0 0h0m-7.551-5.91l7.242-7.18m0 0h0m-6.934-5.281l6.625-7.758m0 0h0m-6.324-4.754l6.024-8.234m0 0h0m-5.742-4.324l5.46-8.618m0 0h0m-5.207-3.98l4.954-8.922m0 0h0m-4.72-3.71l4.485-9.157m0 0h0m-4.277-3.496l4.07-9.352m0 0h0m-3.887-3.32l3.704-9.508m0 0h0m-3.54-3.184l3.375-9.625m0 0h0m10.211 247.07l10.204-.015m0 0h0m-10.204-12.656l10.2-.172m0 0h0m-10.192-12.426l10.188-.476m0 0h0m-10.172-12.043l10.156-.938m0 0h0m-10.121-11.515l10.086-1.532m0 0h0m-10.016-10.855l9.946-2.258m0 0h0m-9.836-10.082l9.726-3.078m0 0h0m-9.562-9.23l9.398-3.965m0 0h0m-9.183-8.336l8.968-4.86m0 0h0m-8.707-7.46l8.446-5.72m0 0h0m-8.153-6.64l7.86-6.5m0 0h0m-7.551-5.91l7.242-7.18m0 0h0m-6.934-5.281l6.625-7.758m0 0h0m-6.324-4.754l6.024-8.234m0 0h0m-5.742-4.324l5.46-8.618m0 0h0m-5.207-3.98l4.954-8.922m0 0h0m-4.72-3.71l4.485-9.157m0 0h0m-4.277-3.496l4.07-9.352m0 0h0m-3.887-3.32l3.704-9.508m0 0h0m-3.54-3.184l3.375-9.625m0 0h0" fill="none" stroke-width=".625" stroke-linecap="round" stroke="#00f" stroke-miterlimit="10"/><path d="M102 179.5l85-28.332m0 0l85-50.371" fill="none" stroke-width="1.25" stroke-linecap="round" stroke="#006400" stroke-miterlimit="10"/><path d="M17 200.75l3.398-.645 3.403-.656 3.398-.672 3.403-.683 3.398-.7 3.398-.714 3.403-.727 3.398-.746 3.399-.762 3.402-.777 3.398-.797 3.403-.816 3.398-.832 3.403-.852L68 189.5l3.398-.895 3.403-.914 3.398-.933 3.403-.961 3.398-.984 3.398-1.008 3.403-1.035 3.398-1.063 3.399-1.09L102 179.5l3.398-1.148 3.403-1.18 3.398-1.215 3.403-1.246L119 173.43l3.398-1.32 3.403-1.36 3.398-1.398 3.403-1.442 3.398-1.488 3.398-1.531 3.403-1.582 3.398-1.633 3.403-1.684L153 158.25l3.398-1.8 3.403-1.864 3.398-1.93 3.403-1.996 3.398-2.07 3.398-2.145 3.403-2.226 3.398-2.317 3.403-2.402L187 137l3.398-2.602 3.403-2.71 3.398-2.825 3.403-2.949 3.398-3.082 3.398-3.219 3.403-3.37 3.398-3.528 3.403-3.703 3.398-3.887 3.398-4.086 3.403-4.3 3.398-4.536 3.403-4.785L238 82.355 241.398 77l3.403-5.684 3.398-6.035 3.403-6.426L255 52l3.398-7.328 3.403-7.852 3.398-8.43 3.403-9.081L272 9.5" fill="none" stroke-width="1.25" stroke-linecap="round" stroke="red" stroke-miterlimit="10"/></svg>