<svg xmlns="http://www.w3.org/2000/svg" xmlns:xlink="http://www.w3.org/1999/xlink" width="1025.231" height="367.999" viewBox="0 0 768.923 275.999"><defs><clipPath id="U"><path d="M394.426 263H405v6h-10.574zm0 0"/></clipPath><clipPath id="A"><path d="M.5 135H11v6H.5zm0 0"/></clipPath><clipPath id="Z"><path d="M394.426 50H405v6h-10.574zm0 0"/></clipPath><clipPath id="Y"><path d="M394.426 93H405v6h-10.574zm0 0"/></clipPath><clipPath id="X"><path d="M394.426 135H405v6h-10.574zm0 0"/></clipPath><clipPath id="W"><path d="M394.426 178H405v6h-10.574zm0 0"/></clipPath><clipPath id="V"><path d="M394.426 220H405v6h-10.574zm0 0"/></clipPath><clipPath id="a"><path d="M102 10h1v255h-1zm0 0"/></clipPath><clipPath id="b"><path d="M17.5 264h340v1h-340zm0 0"/></clipPath><clipPath id="c"><path d="M17.5 10h.5v255h-.5zm0 0"/></clipPath><clipPath id="d"><path d="M102 10h1v255h-1zm0 0"/></clipPath><clipPath id="e"><path d="M187 10h1v255h-1zm0 0"/></clipPath><clipPath id="f"><path d="M272 10h1v255h-1zm0 0"/></clipPath><clipPath id="g"><path d="M357 10h.5v255h-.5zm0 0"/></clipPath><clipPath id="h"><path d="M17.5 264h340v1h-340zm0 0"/></clipPath><clipPath id="i"><path d="M17.5 222h340v1h-340zm0 0"/></clipPath><clipPath id="j"><path d="M17.5 179h340v2h-340zm0 0"/></clipPath><clipPath id="k"><path d="M17.5 137h340v1h-340zm0 0"/></clipPath><clipPath id="l"><path d="M17.5 94h340v2h-340zm0 0"/></clipPath><clipPath id="m"><path d="M17.5 52h340v1h-340zm0 0"/></clipPath><clipPath id="n"><path d="M17.5 10h340v1h-340zm0 0"/></clipPath><clipPath id="q"><path d="M100 269h4v6.5h-4zm0 0"/></clipPath><clipPath id="t"><path d="M355 269h5v6.5h-5zm0 0"/></clipPath><clipPath id="v"><path d="M.5 263H11v6H.5zm0 0"/></clipPath><clipPath id="x"><path d="M.5 220H11v6H.5zm0 0"/></clipPath><clipPath id="z"><path d="M.5 178H11v6H.5zm0 0"/></clipPath><clipPath id="aa"><path d="M394.426 7H405v7h-10.574zm0 0"/></clipPath><clipPath id="B"><path d="M.5 93H11v6H.5zm0 0"/></clipPath><clipPath id="C"><path d="M.5 50H11v6H.5zm0 0"/></clipPath><clipPath id="D"><path d="M.5 7H11v7H.5zm0 0"/></clipPath><clipPath id="E"><path d="M496 10h1v255h-1zm0 0"/></clipPath><clipPath id="F"><path d="M411.426 264h340v1h-340zm0 0"/></clipPath><clipPath id="G"><path d="M411.426 10H412v255h-.574zm0 0"/></clipPath><clipPath id="H"><path d="M496 10h1v255h-1zm0 0"/></clipPath><clipPath id="I"><path d="M581 10h1v255h-1zm0 0"/></clipPath><clipPath id="J"><path d="M666 10h1v255h-1zm0 0"/></clipPath><clipPath id="K"><path d="M751 10h.426v255H751zm0 0"/></clipPath><clipPath id="L"><path d="M411.426 264h340v1h-340zm0 0"/></clipPath><clipPath id="M"><path d="M411.426 222h340v1h-340zm0 0"/></clipPath><clipPath id="N"><path d="M411.426 179h340v2h-340zm0 0"/></clipPath><clipPath id="O"><path d="M411.426 137h340v1h-340zm0 0"/></clipPath><clipPath id="P"><path d="M411.426 94h340v2h-340zm0 0"/></clipPath><clipPath id="Q"><path d="M411.426 52h340v1h-340zm0 0"/></clipPath><clipPath id="R"><path d="M411.426 10h340v1h-340zm0 0"/></clipPath><clipPath id="S"><path d="M494 269h4v6.5h-4zm0 0"/></clipPath><clipPath id="T"><path d="M749 269h5v6.5h-5zm0 0"/></clipPath><symbol overflow="visible" id="p"><path d="M1.938-3.781V0h.671v-5.313h-.437c-.235.813-.39.922-1.406 1.047v.485zm0 0"/></symbol><symbol overflow="visible" id="y"><path d="M3.563-5.313H.828L.422-2.421h.61c.312-.375.562-.5.984-.5.703 0 1.156.485 1.156 1.281 0 .766-.438 1.235-1.156 1.235-.579 0-.938-.297-1.094-.906H.266c.093.437.156.656.312.843.313.406.844.64 1.453.64 1.063 0 1.813-.78 1.813-1.905 0-1.047-.688-1.766-1.719-1.766-.375 0-.672.094-.984.313l.218-1.485h2.204zm0 0"/></symbol><symbol overflow="visible" id="w"><path d="M1.438-.781H.655V0h.781zm0 0"/></symbol><symbol overflow="visible" id="u"><path d="M1.656-2.438h.36c.734 0 1.109.329 1.109.954 0 .671-.422 1.078-1.11 1.078-.718 0-1.078-.36-1.109-1.14H.234c.032.421.11.702.235.952.281.5.797.766 1.531.766 1.094 0 1.797-.656 1.797-1.656 0-.672-.266-1.047-.906-1.266.5-.203.75-.578.75-1.11 0-.906-.61-1.453-1.625-1.453-1.079 0-1.641.579-1.657 1.72h.657c0-.329.03-.516.109-.673.156-.296.484-.468.906-.468.578 0 .938.343.938.906 0 .375-.14.594-.438.719-.172.078-.406.109-.875.109zm0 0"/></symbol><symbol overflow="visible" id="s"><path d="M3.797-.656H1c.063-.438.313-.703.953-1.094l.75-.406c.75-.406 1.125-.953 1.125-1.594 0-.453-.172-.86-.484-1.14-.328-.298-.719-.423-1.219-.423-.672 0-1.172.235-1.469.688-.187.281-.265.61-.281 1.156h.656c.032-.36.078-.578.157-.75.171-.328.515-.515.921-.515.594 0 1.047.421 1.047.984 0 .422-.25.781-.719 1.063l-.687.39C.64-1.672.312-1.172.25 0h3.547zm0 0"/></symbol><symbol overflow="visible" id="r"><path d="M2.063-5.313c-.5 0-.938.22-1.22.579C.5-4.266.329-3.563.329-2.578c0 1.797.594 2.75 1.734 2.75 1.126 0 1.735-.953 1.735-2.703 0-1.031-.156-1.719-.516-2.203-.281-.375-.719-.579-1.219-.579zm0 .579c.718 0 1.062.718 1.062 2.14 0 1.516-.344 2.219-1.078 2.219C1.344-.375 1-1.109 1-2.563c0-1.453.344-2.171 1.063-2.171zm0 0"/></symbol><symbol overflow="visible" id="o"><path d="M2.125-2.344H.344v.547h1.781zm0 0"/></symbol></defs><g clip-path="url(#a)"><path d="M102.5 265V10" fill="none" stroke-width=".625" stroke-linecap="round" stroke="#bfbfbf" stroke-miterlimit="10"/></g><g clip-path="url(#b)"><path d="M17.5 265h340" fill="none" stroke-width=".625" stroke-linecap="round" stroke="#bfbfbf" stroke-miterlimit="10"/></g><g clip-path="url(#c)"><path d="M17.5 265V10" fill="none" stroke-width=".625" stroke-linecap="round" stroke="#bfbfbf" stroke-dasharray="12.5,18.75" stroke-miterlimit="10"/></g><g clip-path="url(#d)"><path d="M102.5 265V10" fill="none" stroke-width=".625" stroke-linecap="round" stroke="#bfbfbf" stroke-dasharray="12.5,18.75" stroke-miterlimit="10"/></g><g clip-path="url(#e)"><path d="M187.5 265V10" fill="none" stroke-width=".625" stroke-linecap="round" stroke="#bfbfbf" stroke-dasharray="12.5,18.75" stroke-miterlimit="10"/></g><g clip-path="url(#f)"><path d="M272.5 265V10" fill="none" stroke-width=".625" stroke-linecap="round" stroke="#bfbfbf" stroke-dasharray="12.5,18.75" stroke-miterlimit="10"/></g><g clip-path="url(#g)"><path d="M357.5 265V10" fill="none" stroke-width=".625" stroke-linecap="round" stroke="#bfbfbf" stroke-dasharray="12.5,18.75" stroke-miterlimit="10"/></g><g clip-path="url(#h)"><path d="M17.5 265h340" fill="none" stroke-width=".625" stroke-linecap="round" stroke="#bfbfbf" stroke-dasharray="12.5,18.75" stroke-miterlimit="10"/></g><g clip-path="url(#i)"><path d="M17.5 222.5h340" fill="none" stroke-width=".625" stroke-linecap="round" stroke="#bfbfbf" stroke-dasharray="12.5,18.75" stroke-miterlimit="10"/></g><g clip-path="url(#j)"><path d="M17.5 180h340" fill="none" stroke-width=".625" stroke-linecap="round" stroke="#bfbfbf" stroke-dasharray="12.5,18.75" stroke-miterlimit="10"/></g><g clip-path="url(#k)"><path d="M17.5 137.5h340" fill="none" stroke-width=".625" stroke-linecap="round" stroke="#bfbfbf" stroke-dasharray="12.5,18.75" stroke-miterlimit="10"/></g><g clip-path="url(#l)"><path d="M17.5 95h340" fill="none" stroke-width=".625" stroke-linecap="round" stroke="#bfbfbf" stroke-dasharray="12.5,18.75" stroke-miterlimit="10"/></g><g clip-path="url(#m)"><path d="M17.5 52.5h340" fill="none" stroke-width=".625" stroke-linecap="round" stroke="#bfbfbf" stroke-dasharray="12.5,18.75" stroke-miterlimit="10"/></g><g clip-path="url(#n)"><path d="M17.5 10h340" fill="none" stroke-width=".625" stroke-linecap="round" stroke="#bfbfbf" stroke-dasharray="12.5,18.75" stroke-miterlimit="10"/></g><path d="M17.5 265h340" fill="none" stroke-width="1.25" stroke-linecap="square" stroke="#000" stroke-miterlimit="10"/><path d="M17.5 265v-5m8.5 5v-2.5m8.5 2.5v-2.5M43 265v-2.5m8.5 2.5v-2.5M60 265v-2.5m8.5 2.5v-2.5M77 265v-2.5m8.5 2.5v-2.5M94 265v-2.5m8.5 2.5v-5m8.5 5v-2.5m8.5 2.5v-2.5m8.5 2.5v-2.5m8.5 2.5v-2.5m8.5 2.5v-2.5m8.5 2.5v-2.5m8.5 2.5v-2.5m8.5 2.5v-2.5m8.5 2.5v-2.5m8.5 2.5v-5m8.5 5v-2.5m8.5 2.5v-2.5m8.5 2.5v-2.5m8.5 2.5v-2.5m8.5 2.5v-2.5m8.5 2.5v-2.5m8.5 2.5v-2.5m8.5 2.5v-2.5m8.5 2.5v-2.5m8.5 2.5v-5m8.5 5v-2.5m8.5 2.5v-2.5m8.5 2.5v-2.5m8.5 2.5v-2.5m8.5 2.5v-2.5m8.5 2.5v-2.5m8.5 2.5v-2.5m8.5 2.5v-2.5m8.5 2.5v-2.5m8.5 2.5v-5" fill="none" stroke-width=".625" stroke="#000" stroke-miterlimit="10"/><use xlink:href="#o" x="13.542" y="274.999"/><use xlink:href="#p" x="16.039" y="274.999"/><g clip-path="url(#q)"><use xlink:href="#r" x="99.79" y="274.999"/></g><use xlink:href="#p" x="185.416" y="274.999"/><use xlink:href="#s" x="270.415" y="274.999"/><g clip-path="url(#t)"><use xlink:href="#u" x="355.415" y="274.999"/></g><path d="M17.5 10h340" fill="none" stroke-width="1.25" stroke-linecap="square" stroke="#000" stroke-miterlimit="10"/><path d="M17.5 10v5m8.5-5v2.5m8.5-2.5v2.5M43 10v2.5m8.5-2.5v2.5M60 10v2.5m8.5-2.5v2.5M77 10v2.5m8.5-2.5v2.5M94 10v2.5m8.5-2.5v5m8.5-5v2.5m8.5-2.5v2.5M128 10v2.5m8.5-2.5v2.5M145 10v2.5m8.5-2.5v2.5M162 10v2.5m8.5-2.5v2.5M179 10v2.5m8.5-2.5v5m8.5-5v2.5m8.5-2.5v2.5M213 10v2.5m8.5-2.5v2.5M230 10v2.5m8.5-2.5v2.5M247 10v2.5m8.5-2.5v2.5M264 10v2.5m8.5-2.5v5m8.5-5v2.5m8.5-2.5v2.5M298 10v2.5m8.5-2.5v2.5M315 10v2.5m8.5-2.5v2.5M332 10v2.5m8.5-2.5v2.5M349 10v2.5m8.5-2.5v5" fill="none" stroke-width=".625" stroke="#000" stroke-miterlimit="10"/><use xlink:href="#o" x="13.542" y="6.874"/><use xlink:href="#p" x="16.039" y="6.874"/><use xlink:href="#r" x="99.79" y="6.874"/><use xlink:href="#p" x="185.416" y="6.874"/><use xlink:href="#s" x="270.415" y="6.874"/><use xlink:href="#u" x="355.415" y="6.874"/><path d="M17.5 265V10" fill="none" stroke-width="1.25" stroke-linecap="square" stroke="#000" stroke-miterlimit="10"/><path d="M17.5 265h5m-5-4.25H20m-2.5-4.25H20m-2.5-4.25H20M17.5 248H20m-2.5-4.25H20m-2.5-4.25H20m-2.5-4.25H20M17.5 231H20m-2.5-4.25H20m-2.5-4.25h5m-5-4.25H20M17.5 214H20m-2.5-4.25H20m-2.5-4.25H20m-2.5-4.25H20M17.5 197H20m-2.5-4.25H20m-2.5-4.25H20m-2.5-4.25H20M17.5 180h5m-5-4.25H20m-2.5-4.25H20m-2.5-4.25H20M17.5 163H20m-2.5-4.25H20m-2.5-4.25H20m-2.5-4.25H20M17.5 146H20m-2.5-4.25H20m-2.5-4.25h5m-5-4.25H20M17.5 129H20m-2.5-4.25H20m-2.5-4.25H20m-2.5-4.25H20M17.5 112H20m-2.5-4.25H20m-2.5-4.25H20m-2.5-4.25H20M17.5 95h5m-5-4.25H20m-2.5-4.25H20m-2.5-4.25H20M17.5 78H20m-2.5-4.25H20m-2.5-4.25H20m-2.5-4.25H20M17.5 61H20m-2.5-4.25H20m-2.5-4.25h5m-5-4.25H20M17.5 44H20m-2.5-4.25H20m-2.5-4.25H20m-2.5-4.25H20M17.5 27H20m-2.5-4.25H20m-2.5-4.25H20m-2.5-4.25H20M17.5 10h5" fill="none" stroke-width=".625" stroke="#000" stroke-miterlimit="10"/><g clip-path="url(#v)"><use xlink:href="#r" x=".201" y="268.749"/><use xlink:href="#w" x="4.371" y="268.749"/><use xlink:href="#r" x="6.456" y="268.749"/></g><g clip-path="url(#x)"><use xlink:href="#r" x=".201" y="225.624"/><use xlink:href="#w" x="4.371" y="225.624"/><use xlink:href="#y" x="6.456" y="225.624"/></g><g clip-path="url(#z)"><use xlink:href="#p" x=".201" y="183.749"/><use xlink:href="#w" x="4.371" y="183.749"/><use xlink:href="#r" x="6.456" y="183.749"/></g><g clip-path="url(#A)"><use xlink:href="#p" x=".201" y="140.624"/><use xlink:href="#w" x="4.371" y="140.624"/><use xlink:href="#y" x="6.456" y="140.624"/></g><g clip-path="url(#B)"><use xlink:href="#s" x=".201" y="98.749"/><use xlink:href="#w" x="4.371" y="98.749"/><use xlink:href="#r" x="6.456" y="98.749"/></g><g clip-path="url(#C)"><use xlink:href="#s" x=".201" y="55.624"/><use xlink:href="#w" x="4.371" y="55.624"/><use xlink:href="#y" x="6.456" y="55.624"/></g><g clip-path="url(#D)"><use xlink:href="#u" x=".201" y="13.124"/><use xlink:href="#w" x="4.371" y="13.124"/><use xlink:href="#r" x="6.456" y="13.124"/></g><path d="M357.5 265V10" fill="none" stroke-width="1.25" stroke-linecap="square" stroke="#000" stroke-miterlimit="10"/><path d="M357.5 265h-5m5-4.25H355m2.5-4.25H355m2.5-4.25H355m2.5-4.25H355m2.5-4.25H355m2.5-4.25H355m2.5-4.25H355m2.5-4.25H355m2.5-4.25H355m2.5-4.25h-5m5-4.25H355m2.5-4.25H355m2.5-4.25H355m2.5-4.25H355m2.5-4.25H355m2.5-4.25H355m2.5-4.25H355m2.5-4.25H355m2.5-4.25H355m2.5-4.25h-5m5-4.25H355m2.5-4.25H355m2.5-4.25H355m2.5-4.25H355m2.5-4.25H355m2.5-4.25H355m2.5-4.25H355m2.5-4.25H355m2.5-4.25H355m2.5-4.25h-5m5-4.25H355m2.5-4.25H355m2.5-4.25H355m2.5-4.25H355m2.5-4.25H355m2.5-4.25H355m2.5-4.25H355m2.5-4.25H355m2.5-4.25H355m2.5-4.25h-5m5-4.25H355m2.5-4.25H355m2.5-4.25H355m2.5-4.25H355m2.5-4.25H355m2.5-4.25H355m2.5-4.25H355m2.5-4.25H355m2.5-4.25H355m2.5-4.25h-5m5-4.25H355m2.5-4.25H355m2.5-4.25H355m2.5-4.25H355m2.5-4.25H355m2.5-4.25H355m2.5-4.25H355m2.5-4.25H355m2.5-4.25H355m2.5-4.25h-5" fill="none" stroke-width=".625" stroke="#000" stroke-miterlimit="10"/><use xlink:href="#r" x="363.75" y="268.749"/><use xlink:href="#w" x="367.92" y="268.749"/><use xlink:href="#r" x="370.005" y="268.749"/><use xlink:href="#r" x="363.75" y="225.624"/><use xlink:href="#w" x="367.92" y="225.624"/><use xlink:href="#y" x="370.005" y="225.624"/><use xlink:href="#p" x="363.75" y="183.749"/><use xlink:href="#w" x="367.92" y="183.749"/><use xlink:href="#r" x="370.005" y="183.749"/><use xlink:href="#p" x="363.75" y="140.624"/><use xlink:href="#w" x="367.92" y="140.624"/><use xlink:href="#y" x="370.005" y="140.624"/><use xlink:href="#s" x="363.75" y="98.749"/><use xlink:href="#w" x="367.92" y="98.749"/><use xlink:href="#r" x="370.005" y="98.749"/><use xlink:href="#s" x="363.75" y="55.624"/><use xlink:href="#w" x="367.92" y="55.624"/><use xlink:href="#y" x="370.005" y="55.624"/><use xlink:href="#u" x="363.75" y="13.124"/><use xlink:href="#w" x="367.92" y="13.124"/><use xlink:href="#r" x="370.005" y="13.124"/><path d="M20.898 258.633l10.204-.02m0 0h0m-10.2-12.652l10.196-.172m0 0h0m-10.192-12.426l10.188-.476m0 0h0M20.922 220.84l10.156-.934m0 0h0m-10.121-11.515l10.086-1.532m0 0h0m-10.016-10.855l9.946-2.258m0 0h0m-9.836-10.082l9.726-3.082m0 0h0m-9.562-9.227l9.398-3.964m0 0h0m-9.183-8.336l8.968-4.86m0 0h0m-8.707-7.46l8.446-5.72m0 0h0m-8.153-6.64l7.86-6.5m0 0h0m-7.551-5.91l7.242-7.184m0 0h0m-6.93-5.277l6.618-7.762m0 0h0m-6.32-4.754l6.023-8.23m0 0h0M23.27 84.43l5.46-8.614m0 0h0m-5.207-3.984l4.95-8.918m0 0h0m-4.715-3.71l4.484-9.161m0 0h0m-4.277-3.492l4.07-9.352m0 0h0m-3.887-3.324l3.704-9.504m0 0h0m-3.54-3.183l3.375-9.625m0 0h0m10.211 247.07l10.2-.02m0 0h0m-10.196-12.652l10.196-.172m0 0h0m-10.192-12.426l10.188-.476m0 0h0M37.922 220.84l10.156-.934m0 0h0m-10.121-11.515l10.086-1.532m0 0h0m-10.016-10.855l9.946-2.258m0 0h0m-9.836-10.082l9.726-3.082m0 0h0m-9.562-9.227l9.398-3.964m0 0h0m-9.183-8.336l8.968-4.86m0 0h0m-8.707-7.46l8.446-5.72m0 0h0m-8.153-6.64l7.86-6.5m0 0h0m-7.551-5.91l7.242-7.184m0 0h0m-6.93-5.277l6.618-7.762m0 0h0m-6.32-4.754l6.023-8.23m0 0h0M40.27 84.43l5.46-8.614m0 0h0m-5.207-3.984l4.95-8.918m0 0h0m-4.715-3.71l4.484-9.161m0 0h0m-4.277-3.492l4.07-9.352m0 0h0m-3.887-3.324l3.704-9.504m0 0h0m-3.54-3.183l3.375-9.625m0 0h0m10.211 247.07l10.204-.02m0 0h0m-10.2-12.652l10.196-.172m0 0h0m-10.192-12.426l10.188-.476m0 0h0M54.922 220.84l10.156-.934m0 0h0m-10.121-11.515l10.086-1.532m0 0h0m-10.016-10.855l9.946-2.258m0 0h0m-9.836-10.082l9.726-3.082m0 0h0m-9.562-9.227l9.398-3.964m0 0h0m-9.183-8.336l8.968-4.86m0 0h0m-8.707-7.46l8.446-5.72m0 0h0m-8.153-6.64l7.86-6.5m0 0h0m-7.551-5.91l7.242-7.184m0 0h0m-6.934-5.277l6.622-7.762m0 0h0m-6.32-4.754l6.023-8.23m0 0h0M57.27 84.43l5.46-8.614m0 0h0m-5.207-3.984l4.95-8.918m0 0h0m-4.715-3.71l4.484-9.161m0 0h0m-4.277-3.492l4.07-9.352m0 0h0m-3.887-3.324l3.704-9.504m0 0h0m-3.54-3.183l3.375-9.625m0 0h0m10.211 247.07l10.204-.02m0 0h0m-10.2-12.652l10.196-.172m0 0h0m-10.192-12.426l10.188-.476m0 0h0M71.922 220.84l10.156-.934m0 0h0m-10.121-11.515l10.086-1.532m0 0h0m-10.016-10.855l9.946-2.258m0 0h0m-9.836-10.082l9.726-3.082m0 0h0m-9.562-9.227l9.398-3.964m0 0h0m-9.183-8.336l8.968-4.86m0 0h0m-8.707-7.46l8.446-5.72m0 0h0m-8.153-6.64l7.86-6.5m0 0h0m-7.551-5.91l7.242-7.184m0 0h0m-6.934-5.277l6.622-7.762m0 0h0m-6.32-4.754l6.023-8.23m0 0h0M74.27 84.43l5.46-8.614m0 0h0m-5.207-3.984l4.954-8.918m0 0h0m-4.72-3.71l4.485-9.161m0 0h0m-4.277-3.492l4.07-9.352m0 0h0m-3.887-3.324l3.704-9.504m0 0h0m-3.54-3.183l3.375-9.625m0 0h0m10.211 247.07l10.2-.02m0 0h0m-10.196-12.652l10.196-.172m0 0h0m-10.192-12.426l10.188-.476m0 0h0M88.922 220.84l10.156-.934m0 0h0m-10.121-11.515l10.086-1.532m0 0h0m-10.016-10.855l9.946-2.258m0 0h0m-9.836-10.082l9.726-3.082m0 0h0m-9.562-9.227l9.398-3.964m0 0h0m-9.183-8.336l8.968-4.86m0 0h0m-8.707-7.46l8.446-5.72m0 0h0m-8.153-6.64l7.86-6.5m0 0h0m-7.551-5.91l7.242-7.184m0 0h0m-6.934-5.277l6.622-7.762m0 0h0m-6.32-4.754l6.023-8.23m0 0h0M91.27 84.43l5.46-8.614m0 0h0m-5.207-3.984l4.954-8.918m0 0h0m-4.72-3.71l4.485-9.161m0 0h0m-4.277-3.492l4.07-9.352m0 0h0m-3.887-3.324l3.704-9.504m0 0h0m-3.54-3.183l3.375-9.625m0 0h0m10.211 247.07l10.204-.02m0 0h0m-10.204-12.652l10.2-.172m0 0h0m-10.192-12.426l10.188-.476m0 0h0m-10.172-12.047l10.156-.934m0 0h0m-10.121-11.515l10.086-1.532m0 0h0m-10.016-10.855l9.946-2.258m0 0h0m-9.836-10.082l9.726-3.082m0 0h0m-9.562-9.227l9.398-3.964m0 0h0m-9.183-8.336l8.968-4.86m0 0h0m-8.707-7.46l8.446-5.72m0 0h0m-8.153-6.64l7.86-6.5m0 0h0m-7.551-5.91l7.242-7.184m0 0h0m-6.934-5.277l6.625-7.762m0 0h0m-6.324-4.754l6.024-8.23m0 0h0m-5.742-4.328l5.46-8.614m0 0h0m-5.207-3.984l4.954-8.918m0 0h0m-4.72-3.71l4.485-9.161m0 0h0m-4.277-3.492l4.07-9.352m0 0h0m-3.887-3.324l3.704-9.504m0 0h0m-3.54-3.183l3.375-9.625m0 0h0m10.211 247.07l10.204-.02m0 0h0m-10.204-12.652l10.2-.172m0 0h0m-10.192-12.426l10.188-.476m0 0h0m-10.172-12.047l10.156-.934m0 0h0m-10.121-11.515l10.086-1.532m0 0h0m-10.016-10.855l9.946-2.258m0 0h0m-9.836-10.082l9.726-3.082m0 0h0m-9.562-9.227l9.398-3.964m0 0h0m-9.183-8.336l8.968-4.86m0 0h0m-8.707-7.46l8.446-5.72m0 0h0m-8.153-6.64l7.86-6.5m0 0h0m-7.551-5.91l7.242-7.184m0 0h0m-6.934-5.277l6.625-7.762m0 0h0m-6.324-4.754l6.024-8.23m0 0h0m-5.742-4.328l5.46-8.614m0 0h0m-5.207-3.984l4.954-8.918m0 0h0m-4.72-3.71l4.485-9.161m0 0h0m-4.277-3.492l4.07-9.352m0 0h0m-3.887-3.324l3.704-9.504m0 0h0m-3.54-3.183l3.376-9.625m0 0h0m10.21 247.07l10.204-.02m0 0h0m-10.204-12.652l10.2-.172m0 0h0m-10.192-12.426l10.188-.476m0 0h0m-10.172-12.047l10.156-.934m0 0h0m-10.121-11.515l10.086-1.532m0 0h0m-10.016-10.855l9.946-2.258m0 0h0m-9.836-10.082l9.726-3.082m0 0h0m-9.562-9.227l9.398-3.964m0 0h0m-9.183-8.336l8.968-4.86m0 0h0m-8.707-7.46l8.446-5.72m0 0h0m-8.153-6.64l7.86-6.5m0 0h0m-7.551-5.91l7.242-7.184m0 0h0m-6.933-5.277l6.625-7.762m0 0h0m-6.325-4.754l6.024-8.23m0 0h0m-5.742-4.328l5.46-8.614m0 0h0m-5.207-3.984l4.954-8.918m0 0h0m-4.72-3.71l4.485-9.161m0 0h0m-4.277-3.492l4.07-9.352m0 0h0m-3.887-3.324l3.704-9.504m0 0h0m-3.54-3.183l3.376-9.625m0 0h0m10.21 247.07l10.204-.02m0 0h0m-10.204-12.652l10.2-.172m0 0h0m-10.192-12.426l10.188-.476m0 0h0m-10.172-12.047l10.156-.934m0 0h0m-10.121-11.515l10.086-1.532m0 0h0m-10.016-10.855l9.946-2.258m0 0h0m-9.836-10.082l9.726-3.082m0 0h0m-9.562-9.227l9.398-3.964m0 0h0m-9.183-8.336l8.968-4.86m0 0h0m-8.707-7.46l8.446-5.72m0 0h0m-8.153-6.64l7.86-6.5m0 0h0m-7.551-5.91l7.242-7.184m0 0h0m-6.933-5.277l6.625-7.762m0 0h0m-6.325-4.754l6.024-8.23m0 0h0m-5.742-4.328l5.46-8.614m0 0h0m-5.207-3.984l4.954-8.918m0 0h0m-4.72-3.71l4.485-9.161m0 0h0m-4.277-3.492l4.07-9.352m0 0h0m-3.887-3.324l3.704-9.504m0 0h0m-3.54-3.183l3.376-9.625m0 0h0m10.21 247.07l10.204-.02m0 0h0m-10.204-12.652l10.2-.172m0 0h0m-10.192-12.426l10.188-.476m0 0h0m-10.172-12.047l10.156-.934m0 0h0m-10.121-11.515l10.086-1.532m0 0h0m-10.016-10.855l9.946-2.258m0 0h0m-9.836-10.082l9.726-3.082m0 0h0m-9.562-9.227l9.398-3.964m0 0h0m-9.183-8.336l8.968-4.86m0 0h0m-8.707-7.46l8.446-5.72m0 0h0m-8.153-6.64l7.86-6.5m0 0h0m-7.551-5.91l7.242-7.184m0 0h0m-6.933-5.277l6.625-7.762m0 0h0m-6.325-4.754l6.024-8.23m0 0h0m-5.742-4.328l5.46-8.614m0 0h0m-5.207-3.984l4.954-8.918m0 0h0m-4.72-3.71l4.485-9.161m0 0h0m-4.277-3.492l4.07-9.352m0 0h0m-3.887-3.324l3.704-9.504m0 0h0m-3.54-3.183l3.376-9.625m0 0h0m10.21 247.07l10.204-.02m0 0h0m-10.204-12.652l10.2-.172m0 0h0m-10.192-12.426l10.188-.476m0 0h0m-10.172-12.047l10.156-.934m0 0h0m-10.121-11.515l10.086-1.532m0 0h0m-10.016-10.855l9.946-2.258m0 0h0m-9.836-10.082l9.726-3.082m0 0h0m-9.562-9.227l9.398-3.964m0 0h0m-9.183-8.336l8.968-4.86m0 0h0m-8.707-7.46l8.446-5.72m0 0h0m-8.153-6.64l7.86-6.5m0 0h0m-7.551-5.91l7.242-7.184m0 0h0m-6.933-5.277l6.625-7.762m0 0h0m-6.325-4.754l6.024-8.23m0 0h0m-5.742-4.328l5.46-8.614m0 0h0m-5.207-3.984l4.954-8.918m0 0h0m-4.72-3.71l4.485-9.161m0 0h0m-4.277-3.492l4.07-9.352m0 0h0m-3.887-3.324l3.704-9.504m0 0h0m-3.54-3.183l3.376-9.625m0 0h0m10.21 247.07l10.204-.02m0 0h0m-10.204-12.652l10.2-.172m0 0h0m-10.192-12.426l10.188-.476m0 0h0m-10.172-12.047l10.156-.934m0 0h0m-10.121-11.515l10.086-1.532m0 0h0m-10.016-10.855l9.946-2.258m0 0h0m-9.836-10.082l9.726-3.082m0 0h0m-9.562-9.227l9.398-3.964m0 0h0m-9.183-8.336l8.968-4.86m0 0h0m-8.707-7.46l8.446-5.72m0 0h0m-8.153-6.64l7.86-6.5m0 0h0m-7.551-5.91l7.242-7.184m0 0h0m-6.933-5.277l6.625-7.762m0 0h0m-6.325-4.754l6.024-8.23m0 0h0m-5.742-4.328l5.46-8.614m0 0h0m-5.207-3.984l4.954-8.918m0 0h0m-4.72-3.71l4.485-9.161m0 0h0m-4.277-3.492l4.07-9.352m0 0h0m-3.887-3.324l3.704-9.504m0 0h0m-3.54-3.183l3.376-9.625m0 0h0m10.21 247.07l10.204-.02m0 0h0m-10.204-12.652l10.2-.172m0 0h0m-10.192-12.426l10.188-.476m0 0h0m-10.172-12.047l10.156-.934m0 0h0m-10.121-11.515l10.086-1.532m0 0h0m-10.016-10.855l9.946-2.258m0 0h0m-9.836-10.082l9.726-3.082m0 0h0m-9.562-9.227l9.398-3.964m0 0h0m-9.183-8.336l8.968-4.86m0 0h0m-8.707-7.46l8.446-5.72m0 0h0m-8.153-6.64l7.86-6.5m0 0h0m-7.551-5.91l7.242-7.184m0 0h0m-6.933-5.277l6.625-7.762m0 0h0m-6.325-4.754l6.024-8.23m0 0h0m-5.742-4.328l5.46-8.614m0 0h0m-5.207-3.984l4.954-8.918m0 0h0m-4.72-3.71l4.485-9.161m0 0h0m-4.277-3.492l4.07-9.352m0 0h0m-3.887-3.324l3.704-9.504m0 0h0m-3.54-3.183l3.376-9.625m0 0h0m10.21 247.07l10.204-.02m0 0h0m-10.204-12.652l10.2-.172m0 0h0m-10.192-12.426l10.188-.476m0 0h0m-10.172-12.047l10.156-.934m0 0h0m-10.121-11.515l10.086-1.532m0 0h0m-10.016-10.855l9.946-2.258m0 0h0m-9.836-10.082l9.726-3.082m0 0h0m-9.562-9.227l9.398-3.964m0 0h0m-9.183-8.336l8.968-4.86m0 0h0m-8.707-7.46l8.446-5.72m0 0h0m-8.153-6.64l7.86-6.5m0 0h0m-7.551-5.91l7.242-7.184m0 0h0m-6.933-5.277l6.625-7.762m0 0h0m-6.325-4.754l6.024-8.23m0 0h0m-5.742-4.328l5.46-8.614m0 0h0m-5.207-3.984l4.954-8.918m0 0h0m-4.72-3.71l4.485-9.161m0 0h0m-4.277-3.492l4.07-9.352m0 0h0m-3.887-3.324l3.704-9.504m0 0h0m-3.54-3.183l3.376-9.625m0 0h0m10.21 247.07l10.204-.02m0 0h0m-10.204-12.652l10.2-.172m0 0h0m-10.192-12.426l10.188-.476m0 0h0m-10.172-12.047l10.156-.934m0 0h0m-10.121-11.515l10.086-1.532m0 0h0m-10.016-10.855l9.946-2.258m0 0h0m-9.836-10.082l9.726-3.082m0 0h0m-9.562-9.227l9.398-3.964m0 0h0m-9.183-8.336l8.968-4.86m0 0h0m-8.707-7.46l8.446-5.72m0 0h0m-8.153-6.64l7.86-6.5m0 0h0m-7.551-5.91l7.242-7.184m0 0h0m-6.933-5.277l6.625-7.762m0 0h0m-6.325-4.754l6.024-8.23m0 0h0m-5.742-4.328l5.46-8.614m0 0h0m-5.207-3.984l4.954-8.918m0 0h0m-4.72-3.71l4.485-9.161m0 0h0m-4.277-3.492l4.07-9.352m0 0h0m-3.887-3.324l3.704-9.504m0 0h0m-3.54-3.183l3.376-9.625m0 0h0m10.21 247.07l10.204-.02m0 0h0m-10.204-12.652l10.2-.172m0 0h0m-10.192-12.426l10.188-.476m0 0h0m-10.172-12.047l10.156-.934m0 0h0m-10.121-11.515l10.086-1.532m0 0h0m-10.016-10.855l9.946-2.258m0 0h0m-9.836-10.082l9.726-3.082m0 0h0m-9.562-9.227l9.398-3.964m0 0h0m-9.183-8.336l8.968-4.86m0 0h0m-8.707-7.46l8.446-5.72m0 0h0m-8.153-6.64l7.86-6.5m0 0h0m-7.551-5.91l7.242-7.184m0 0h0m-6.933-5.277l6.625-7.762m0 0h0m-6.325-4.754l6.024-8.23m0 0h0m-5.742-4.328l5.46-8.614m0 0h0m-5.207-3.984l4.954-8.918m0 0h0m-4.72-3.71l4.485-9.161m0 0h0m-4.277-3.492l4.07-9.352m0 0h0m-3.887-3.324l3.704-9.504m0 0h0m-3.54-3.183l3.375-9.625m0 0h0m10.211 247.07l10.204-.02m0 0h0m-10.204-12.652l10.2-.172m0 0h0m-10.192-12.426l10.188-.476m0 0h0m-10.172-12.047l10.156-.934m0 0h0m-10.121-11.515l10.086-1.532m0 0h0m-10.016-10.855l9.946-2.258m0 0h0m-9.836-10.082l9.726-3.082m0 0h0m-9.562-9.227l9.398-3.964m0 0h0m-9.183-8.336l8.968-4.86m0 0h0m-8.707-7.46l8.446-5.72m0 0h0m-8.153-6.64l7.86-6.5m0 0h0m-7.551-5.91l7.242-7.184m0 0h0m-6.934-5.277l6.625-7.762m0 0h0m-6.324-4.754l6.024-8.23m0 0h0m-5.742-4.328l5.46-8.614m0 0h0m-5.207-3.984l4.954-8.918m0 0h0m-4.72-3.71l4.485-9.161m0 0h0m-4.277-3.492l4.07-9.352m0 0h0m-3.887-3.324l3.704-9.504m0 0h0m-3.54-3.183l3.375-9.625m0 0h0m10.211 247.07l10.204-.02m0 0h0m-10.204-12.652l10.2-.172m0 0h0m-10.192-12.426l10.188-.476m0 0h0m-10.172-12.047l10.156-.934m0 0h0m-10.121-11.515l10.086-1.532m0 0h0m-10.016-10.855l9.946-2.258m0 0h0m-9.836-10.082l9.726-3.082m0 0h0m-9.562-9.227l9.398-3.964m0 0h0m-9.183-8.336l8.968-4.86m0 0h0m-8.707-7.46l8.446-5.72m0 0h0m-8.153-6.64l7.86-6.5m0 0h0m-7.551-5.91l7.242-7.184m0 0h0m-6.934-5.277l6.625-7.762m0 0h0m-6.324-4.754l6.024-8.23m0 0h0m-5.742-4.328l5.46-8.614m0 0h0m-5.207-3.984l4.954-8.918m0 0h0m-4.72-3.71l4.485-9.161m0 0h0m-4.277-3.492l4.07-9.352m0 0h0m-3.887-3.324l3.704-9.504m0 0h0m-3.54-3.183l3.375-9.625m0 0h0m10.211 247.07l10.204-.02m0 0h0m-10.204-12.652l10.2-.172m0 0h0m-10.192-12.426l10.188-.476m0 0h0m-10.172-12.047l10.156-.934m0 0h0m-10.121-11.515l10.086-1.532m0 0h0m-10.016-10.855l9.946-2.258m0 0h0m-9.836-10.082l9.726-3.082m0 0h0m-9.562-9.227l9.398-3.964m0 0h0m-9.183-8.336l8.968-4.86m0 0h0m-8.707-7.46l8.446-5.72m0 0h0m-8.153-6.64l7.86-6.5m0 0h0m-7.551-5.91l7.242-7.184m0 0h0m-6.934-5.277l6.625-7.762m0 0h0m-6.324-4.754l6.024-8.23m0 0h0m-5.742-4.328l5.46-8.614m0 0h0m-5.207-3.984l4.954-8.918m0 0h0m-4.72-3.71l4.485-9.161m0 0h0m-4.277-3.492l4.07-9.352m0 0h0m-3.887-3.324l3.704-9.504m0 0h0m-3.54-3.183l3.375-9.625m0 0h0m10.211 247.07l10.204-.02m0 0h0m-10.204-12.652l10.2-.172m0 0h0m-10.192-12.426l10.188-.476m0 0h0m-10.172-12.047l10.156-.934m0 0h0m-10.121-11.515l10.086-1.532m0 0h0m-10.016-10.855l9.946-2.258m0 0h0m-9.836-10.082l9.726-3.082m0 0h0m-9.562-9.227l9.398-3.964m0 0h0m-9.183-8.336l8.968-4.86m0 0h0m-8.707-7.46l8.446-5.72m0 0h0m-8.153-6.64l7.86-6.5m0 0h0m-7.551-5.91l7.242-7.184m0 0h0m-6.934-5.277l6.625-7.762m0 0h0m-6.324-4.754l6.024-8.23m0 0h0m-5.742-4.328l5.46-8.614m0 0h0m-5.207-3.984l4.954-8.918m0 0h0m-4.72-3.71l4.485-9.161m0 0h0m-4.277-3.492l4.07-9.352m0 0h0m-3.887-3.324l3.704-9.504m0 0h0m-3.54-3.183l3.375-9.625m0 0h0" fill="none" stroke-width=".625" stroke-linecap="round" stroke="#00f" stroke-miterlimit="10"/><path d="M102.5 180l85-28.336" fill="none" stroke-width="1.25" stroke-linecap="round" stroke="#006400" stroke-miterlimit="10"/><g clip-path="url(#E)"><path d="M496.426 265V10" fill="none" stroke-width=".625" stroke-linecap="round" stroke="#bfbfbf" stroke-miterlimit="10"/></g><g clip-path="url(#F)"><path d="M411.426 265h340" fill="none" stroke-width=".625" stroke-linecap="round" stroke="#bfbfbf" stroke-miterlimit="10"/></g><g clip-path="url(#G)"><path d="M411.426 265V10" fill="none" stroke-width=".625" stroke-linecap="round" stroke="#bfbfbf" stroke-dasharray="12.5,18.75" stroke-miterlimit="10"/></g><g clip-path="url(#H)"><path d="M496.426 265V10" fill="none" stroke-width=".625" stroke-linecap="round" stroke="#bfbfbf" stroke-dasharray="12.5,18.75" stroke-miterlimit="10"/></g><g clip-path="url(#I)"><path d="M581.426 265V10" fill="none" stroke-width=".625" stroke-linecap="round" stroke="#bfbfbf" stroke-dasharray="12.5,18.75" stroke-miterlimit="10"/></g><g clip-path="url(#J)"><path d="M666.426 265V10" fill="none" stroke-width=".625" stroke-linecap="round" stroke="#bfbfbf" stroke-dasharray="12.5,18.75" stroke-miterlimit="10"/></g><g clip-path="url(#K)"><path d="M751.426 265V10" fill="none" stroke-width=".625" stroke-linecap="round" stroke="#bfbfbf" stroke-dasharray="12.5,18.75" stroke-miterlimit="10"/></g><g clip-path="url(#L)"><path d="M411.426 265h340" fill="none" stroke-width=".625" stroke-linecap="round" stroke="#bfbfbf" stroke-dasharray="12.5,18.75" stroke-miterlimit="10"/></g><g clip-path="url(#M)"><path d="M411.426 222.5h340" fill="none" stroke-width=".625" stroke-linecap="round" stroke="#bfbfbf" stroke-dasharray="12.5,18.75" stroke-miterlimit="10"/></g><g clip-path="url(#N)"><path d="M411.426 180h340" fill="none" stroke-width=".625" stroke-linecap="round" stroke="#bfbfbf" stroke-dasharray="12.5,18.75" stroke-miterlimit="10"/></g><g clip-path="url(#O)"><path d="M411.426 137.5h340" fill="none" stroke-width=".625" stroke-linecap="round" stroke="#bfbfbf" stroke-dasharray="12.5,18.75" stroke-miterlimit="10"/></g><g clip-path="url(#P)"><path d="M411.426 95h340" fill="none" stroke-width=".625" stroke-linecap="round" stroke="#bfbfbf" stroke-dasharray="12.5,18.75" stroke-miterlimit="10"/></g><g clip-path="url(#Q)"><path d="M411.426 52.5h340" fill="none" stroke-width=".625" stroke-linecap="round" stroke="#bfbfbf" stroke-dasharray="12.5,18.75" stroke-miterlimit="10"/></g><g clip-path="url(#R)"><path d="M411.426 10h340" fill="none" stroke-width=".625" stroke-linecap="round" stroke="#bfbfbf" stroke-dasharray="12.5,18.75" stroke-miterlimit="10"/></g><path d="M411.426 265h340" fill="none" stroke-width="1.25" stroke-linecap="square" stroke="#000" stroke-miterlimit="10"/><path d="M411.426 265v-5m8.496 5v-2.5m8.5 2.5v-2.5m8.504 2.5v-2.5m8.5 2.5v-2.5m8.5 2.5v-2.5m8.5 2.5v-2.5m8.496 2.5v-2.5m8.504 2.5v-2.5m8.496 2.5v-2.5m8.504 2.5v-5m8.5 5v-2.5m8.5 2.5v-2.5m8.5 2.5v-2.5m8.5 2.5v-2.5m8.5 2.5v-2.5m8.5 2.5v-2.5m8.5 2.5v-2.5m8.5 2.5v-2.5m8.5 2.5v-2.5m8.5 2.5v-5m8.5 5v-2.5m8.5 2.5v-2.5m8.5 2.5v-2.5m8.5 2.5v-2.5m8.5 2.5v-2.5m8.5 2.5v-2.5m8.5 2.5v-2.5m8.5 2.5v-2.5m8.5 2.5v-2.5m8.5 2.5v-5m8.5 5v-2.5m8.5 2.5v-2.5m8.5 2.5v-2.5m8.5 2.5v-2.5m8.5 2.5v-2.5m8.5 2.5v-2.5m8.5 2.5v-2.5m8.5 2.5v-2.5m8.5 2.5v-2.5m8.5 2.5v-5" fill="none" stroke-width=".625" stroke="#000" stroke-miterlimit="10"/><use xlink:href="#o" x="407.466" y="274.999"/><use xlink:href="#p" x="409.963" y="274.999"/><g clip-path="url(#S)"><use xlink:href="#r" x="493.714" y="274.999"/></g><use xlink:href="#p" x="579.34" y="274.999"/><use xlink:href="#s" x="664.339" y="274.999"/><g clip-path="url(#T)"><use xlink:href="#u" x="749.339" y="274.999"/></g><path d="M411.426 10h340" fill="none" stroke-width="1.25" stroke-linecap="square" stroke="#000" stroke-miterlimit="10"/><path d="M411.426 10v5m8.496-5v2.5m8.5-2.5v2.5m8.504-2.5v2.5m8.5-2.5v2.5m8.5-2.5v2.5m8.5-2.5v2.5m8.496-2.5v2.5m8.504-2.5v2.5m8.496-2.5v2.5m8.504-2.5v5m8.5-5v2.5m8.5-2.5v2.5m8.5-2.5v2.5m8.5-2.5v2.5m8.5-2.5v2.5m8.5-2.5v2.5m8.5-2.5v2.5m8.5-2.5v2.5m8.5-2.5v2.5m8.5-2.5v5m8.5-5v2.5m8.5-2.5v2.5m8.5-2.5v2.5m8.5-2.5v2.5m8.5-2.5v2.5m8.5-2.5v2.5m8.5-2.5v2.5m8.5-2.5v2.5m8.5-2.5v2.5m8.5-2.5v5m8.5-5v2.5m8.5-2.5v2.5m8.5-2.5v2.5m8.5-2.5v2.5m8.5-2.5v2.5m8.5-2.5v2.5m8.5-2.5v2.5m8.5-2.5v2.5m8.5-2.5v2.5m8.5-2.5v5" fill="none" stroke-width=".625" stroke="#000" stroke-miterlimit="10"/><use xlink:href="#o" x="407.466" y="6.874"/><use xlink:href="#p" x="409.963" y="6.874"/><use xlink:href="#r" x="493.714" y="6.874"/><use xlink:href="#p" x="579.34" y="6.874"/><use xlink:href="#s" x="664.339" y="6.874"/><use xlink:href="#u" x="749.339" y="6.874"/><path d="M411.426 265V10" fill="none" stroke-width="1.25" stroke-linecap="square" stroke="#000" stroke-miterlimit="10"/><path d="M411.426 265h5m-5-4.25h2.5m-2.5-4.25h2.5m-2.5-4.25h2.5m-2.5-4.25h2.5m-2.5-4.25h2.5m-2.5-4.25h2.5m-2.5-4.25h2.5m-2.5-4.25h2.5m-2.5-4.25h2.5m-2.5-4.25h5m-5-4.25h2.5m-2.5-4.25h2.5m-2.5-4.25h2.5m-2.5-4.25h2.5m-2.5-4.25h2.5m-2.5-4.25h2.5m-2.5-4.25h2.5m-2.5-4.25h2.5m-2.5-4.25h2.5m-2.5-4.25h5m-5-4.25h2.5m-2.5-4.25h2.5m-2.5-4.25h2.5m-2.5-4.25h2.5m-2.5-4.25h2.5m-2.5-4.25h2.5m-2.5-4.25h2.5m-2.5-4.25h2.5m-2.5-4.25h2.5m-2.5-4.25h5m-5-4.25h2.5m-2.5-4.25h2.5m-2.5-4.25h2.5m-2.5-4.25h2.5m-2.5-4.25h2.5m-2.5-4.25h2.5m-2.5-4.25h2.5m-2.5-4.25h2.5m-2.5-4.25h2.5m-2.5-4.25h5m-5-4.25h2.5m-2.5-4.25h2.5m-2.5-4.25h2.5m-2.5-4.25h2.5m-2.5-4.25h2.5m-2.5-4.25h2.5m-2.5-4.25h2.5m-2.5-4.25h2.5m-2.5-4.25h2.5m-2.5-4.25h5m-5-4.25h2.5m-2.5-4.25h2.5m-2.5-4.25h2.5m-2.5-4.25h2.5m-2.5-4.25h2.5m-2.5-4.25h2.5m-2.5-4.25h2.5m-2.5-4.25h2.5m-2.5-4.25h2.5m-2.5-4.25h5" fill="none" stroke-width=".625" stroke="#000" stroke-miterlimit="10"/><g clip-path="url(#U)"><use xlink:href="#r" x="394.125" y="268.749"/><use xlink:href="#w" x="398.295" y="268.749"/><use xlink:href="#r" x="400.38" y="268.749"/></g><g clip-path="url(#V)"><use xlink:href="#r" x="394.125" y="225.624"/><use xlink:href="#w" x="398.295" y="225.624"/><use xlink:href="#y" x="400.38" y="225.624"/></g><g clip-path="url(#W)"><use xlink:href="#p" x="394.125" y="183.749"/><use xlink:href="#w" x="398.295" y="183.749"/><use xlink:href="#r" x="400.38" y="183.749"/></g><g clip-path="url(#X)"><use xlink:href="#p" x="394.125" y="140.624"/><use xlink:href="#w" x="398.295" y="140.624"/><use xlink:href="#y" x="400.38" y="140.624"/></g><g clip-path="url(#Y)"><use xlink:href="#s" x="394.125" y="98.749"/><use xlink:href="#w" x="398.295" y="98.749"/><use xlink:href="#r" x="400.38" y="98.749"/></g><g clip-path="url(#Z)"><use xlink:href="#s" x="394.125" y="55.624"/><use xlink:href="#w" x="398.295" y="55.624"/><use xlink:href="#y" x="400.38" y="55.624"/></g><g clip-path="url(#aa)"><use xlink:href="#u" x="394.125" y="13.124"/><use xlink:href="#w" x="398.295" y="13.124"/><use xlink:href="#r" x="400.38" y="13.124"/></g><path d="M751.426 265V10" fill="none" stroke-width="1.25" stroke-linecap="square" stroke="#000" stroke-miterlimit="10"/><path d="M751.426 265h-5m5-4.25h-2.5m2.5-4.25h-2.5m2.5-4.25h-2.5m2.5-4.25h-2.5m2.5-4.25h-2.5m2.5-4.25h-2.5m2.5-4.25h-2.5m2.5-4.25h-2.5m2.5-4.25h-2.5m2.5-4.25h-5m5-4.25h-2.5m2.5-4.25h-2.5m2.5-4.25h-2.5m2.5-4.25h-2.5m2.5-4.25h-2.5m2.5-4.25h-2.5m2.5-4.25h-2.5m2.5-4.25h-2.5m2.5-4.25h-2.5m2.5-4.25h-5m5-4.25h-2.5m2.5-4.25h-2.5m2.5-4.25h-2.5m2.5-4.25h-2.5m2.5-4.25h-2.5m2.5-4.25h-2.5m2.5-4.25h-2.5m2.5-4.25h-2.5m2.5-4.25h-2.5m2.5-4.25h-5m5-4.25h-2.5m2.5-4.25h-2.5m2.5-4.25h-2.5m2.5-4.25h-2.5m2.5-4.25h-2.5m2.5-4.25h-2.5m2.5-4.25h-2.5m2.5-4.25h-2.5m2.5-4.25h-2.5m2.5-4.25h-5m5-4.25h-2.5m2.5-4.25h-2.5m2.5-4.25h-2.5m2.5-4.25h-2.5m2.5-4.25h-2.5m2.5-4.25h-2.5m2.5-4.25h-2.5m2.5-4.25h-2.5m2.5-4.25h-2.5m2.5-4.25h-5m5-4.25h-2.5m2.5-4.25h-2.5m2.5-4.25h-2.5m2.5-4.25h-2.5m2.5-4.25h-2.5m2.5-4.25h-2.5m2.5-4.25h-2.5m2.5-4.25h-2.5m2.5-4.25h-2.5m2.5-4.25h-5" fill="none" stroke-width=".625" stroke="#000" stroke-miterlimit="10"/><use xlink:href="#r" x="757.674" y="268.749"/><use xlink:href="#w" x="761.844" y="268.749"/><use xlink:href="#r" x="763.929" y="268.749"/><use xlink:href="#r" x="757.674" y="225.624"/><use xlink:href="#w" x="761.844" y="225.624"/><use xlink:href="#y" x="763.929" y="225.624"/><use xlink:href="#p" x="757.674" y="183.749"/><use xlink:href="#w" x="761.844" y="183.749"/><use xlink:href="#r" x="763.929" y="183.749"/><use xlink:href="#p" x="757.674" y="140.624"/><use xlink:href="#w" x="761.844" y="140.624"/><use xlink:href="#y" x="763.929" y="140.624"/><use xlink:href="#s" x="757.674" y="98.749"/><use xlink:href="#w" x="761.844" y="98.749"/><use xlink:href="#r" x="763.929" y="98.749"/><use xlink:href="#s" x="757.674" y="55.624"/><use xlink:href="#w" x="761.844" y="55.624"/><use xlink:href="#y" x="763.929" y="55.624"/><use xlink:href="#u" x="757.674" y="13.124"/><use xlink:href="#w" x="761.844" y="13.124"/><use xlink:href="#r" x="763.929" y="13.124"/><path d="M414.824 258.633l10.2-.02m0 0h0m-10.2-12.652l10.2-.172m0 0h0m-10.196-12.426l10.192-.476m0 0h0m-10.176-12.047l10.16-.934m0 0h0m-10.121-11.515l10.082-1.532m0 0h0m-10.016-10.855l9.95-2.258m0 0h0m-9.837-10.082l9.723-3.082m0 0h0m-9.558-9.227l9.394-3.964m0 0h0m-9.18-8.336l8.965-4.86m0 0h0m-8.707-7.46l8.45-5.72m0 0h0m-8.157-6.64l7.863-6.5m0 0h0m-7.55-5.91l7.238-7.184m0 0h0m-6.93-5.277l6.621-7.762m0 0h0m-6.32-4.754l6.02-8.23m0 0h0m-5.743-4.328l5.465-8.614m0 0h0m-5.207-3.984l4.95-8.918m0 0h0m-4.72-3.71l4.489-9.161m0 0h0m-4.281-3.492l4.074-9.352m0 0h0m-3.887-3.324l3.7-9.504m0 0h0m-3.54-3.183l3.38-9.625m0 0h0m10.21 247.07l10.2-.02m0 0h0m-10.2-12.652l10.2-.172m0 0h0m-10.196-12.426l10.192-.476m0 0h0m-10.176-12.047l10.16-.934m0 0h0m-10.121-11.515l10.082-1.532m0 0h0m-10.016-10.855l9.95-2.258m0 0h0m-9.837-10.082l9.723-3.082m0 0h0m-9.558-9.227l9.394-3.964m0 0h0m-9.18-8.336l8.965-4.86m0 0h0m-8.707-7.46l8.45-5.72m0 0h0m-8.157-6.64l7.863-6.5m0 0h0m-7.55-5.91l7.238-7.184m0 0h0m-6.93-5.277l6.621-7.762m0 0h0m-6.32-4.754l6.02-8.23m0 0h0m-5.743-4.328l5.465-8.614m0 0h0m-5.207-3.984l4.95-8.918m0 0h0m-4.72-3.71l4.489-9.161m0 0h0m-4.281-3.492l4.074-9.352m0 0h0m-3.887-3.324l3.7-9.504m0 0h0m-3.54-3.183l3.38-9.625m0 0h0m10.21 247.07l10.2-.02m0 0h0m-10.2-12.652l10.2-.172m0 0h0m-10.196-12.426l10.192-.476m0 0h0m-10.176-12.047l10.16-.934m0 0h0m-10.121-11.515l10.082-1.532m0 0h0m-10.016-10.855l9.95-2.258m0 0h0m-9.837-10.082l9.723-3.082m0 0h0m-9.558-9.227l9.394-3.964m0 0h0m-9.18-8.336l8.965-4.86m0 0h0m-8.707-7.46l8.45-5.72m0 0h0m-8.157-6.64l7.863-6.5m0 0h0m-7.55-5.91l7.238-7.184m0 0h0m-6.93-5.277l6.621-7.762m0 0h0m-6.32-4.754l6.02-8.23m0 0h0m-5.743-4.328l5.465-8.614m0 0h0m-5.207-3.984l4.95-8.918m0 0h0m-4.72-3.71l4.489-9.161m0 0h0m-4.281-3.492l4.074-9.352m0 0h0m-3.887-3.324l3.7-9.504m0 0h0m-3.536-3.183l3.371-9.625m0 0h0m10.215 247.07l10.2-.02m0 0h0m-10.2-12.652l10.2-.172m0 0h0m-10.196-12.426l10.192-.476m0 0h0m-10.176-12.047l10.16-.934m0 0h0m-10.121-11.515l10.082-1.532m0 0h0m-10.016-10.855l9.95-2.258m0 0h0m-9.837-10.082l9.723-3.082m0 0h0m-9.558-9.227l9.394-3.964m0 0h0m-9.18-8.336l8.965-4.86m0 0h0m-8.707-7.46l8.45-5.72m0 0h0m-8.157-6.64l7.863-6.5m0 0h0m-7.55-5.91l7.238-7.184m0 0h0m-6.93-5.277l6.621-7.762m0 0h0m-6.32-4.754l6.02-8.23m0 0h0m-5.743-4.328l5.465-8.614m0 0h0m-5.207-3.984l4.95-8.918m0 0h0m-4.72-3.71l4.489-9.161m0 0h0m-4.281-3.492l4.074-9.352m0 0h0m-3.887-3.324l3.7-9.504m0 0h0m-3.536-3.183l3.371-9.625m0 0h0m10.215 247.07l10.2-.02m0 0h0m-10.2-12.652l10.2-.172m0 0h0m-10.196-12.426l10.192-.476m0 0h0m-10.176-12.047l10.16-.934m0 0h0m-10.121-11.515l10.082-1.532m0 0h0m-10.016-10.855l9.95-2.258m0 0h0m-9.837-10.082l9.723-3.082m0 0h0m-9.558-9.227l9.394-3.964m0 0h0m-9.18-8.336l8.965-4.86m0 0h0m-8.707-7.46l8.45-5.72m0 0h0m-8.157-6.64l7.863-6.5m0 0h0m-7.55-5.91l7.238-7.184m0 0h0m-6.93-5.277l6.621-7.762m0 0h0m-6.32-4.754l6.02-8.23m0 0h0m-5.743-4.328l5.465-8.614m0 0h0m-5.207-3.984l4.95-8.918m0 0h0m-4.72-3.71l4.489-9.161m0 0h0m-4.281-3.492l4.074-9.352m0 0h0m-3.887-3.324l3.7-9.504m0 0h0m-3.54-3.183l3.38-9.625m0 0h0m10.21 247.07l10.2-.02m0 0h0m-10.2-12.652l10.2-.172m0 0h0m-10.196-12.426l10.192-.476m0 0h0m-10.176-12.047l10.16-.934m0 0h0m-10.121-11.515l10.082-1.532m0 0h0m-10.016-10.855l9.95-2.258m0 0h0m-9.837-10.082l9.723-3.082m0 0h0m-9.558-9.227l9.394-3.964m0 0h0m-9.18-8.336l8.965-4.86m0 0h0m-8.707-7.46l8.45-5.72m0 0h0m-8.157-6.64l7.863-6.5m0 0h0m-7.55-5.91l7.238-7.184m0 0h0m-6.93-5.277l6.621-7.762m0 0h0m-6.32-4.754l6.02-8.23m0 0h0m-5.743-4.328l5.465-8.614m0 0h0m-5.207-3.984l4.95-8.918m0 0h0m-4.72-3.71l4.489-9.161m0 0h0m-4.281-3.492l4.074-9.352m0 0h0m-3.89-3.324l3.702-9.504m0 0h0m-3.539-3.183l3.38-9.625m0 0h0m10.21 247.07l10.2-.02m0 0h0m-10.2-12.652l10.2-.172m0 0h0m-10.196-12.426l10.192-.476m0 0h0m-10.176-12.047l10.16-.934m0 0h0m-10.121-11.515l10.082-1.532m0 0h0m-10.016-10.855l9.95-2.258m0 0h0m-9.837-10.082l9.723-3.082m0 0h0m-9.558-9.227l9.394-3.964m0 0h0m-9.18-8.336l8.965-4.86m0 0h0m-8.707-7.46l8.45-5.72m0 0h0m-8.157-6.64l7.863-6.5m0 0h0m-7.55-5.91l7.238-7.184m0 0h0m-6.93-5.277l6.621-7.762m0 0h0m-6.32-4.754l6.02-8.23m0 0h0m-5.743-4.328l5.465-8.614m0 0h0m-5.207-3.984l4.95-8.918m0 0h0m-4.72-3.71l4.489-9.161m0 0h0m-4.281-3.492l4.074-9.352m0 0h0m-3.89-3.324l3.702-9.504m0 0h0m-3.539-3.183l3.38-9.625m0 0h0m10.21 247.07l10.2-.02m0 0h0m-10.2-12.652l10.2-.172m0 0h0m-10.196-12.426l10.192-.476m0 0h0m-10.176-12.047l10.16-.934m0 0h0m-10.121-11.515l10.082-1.532m0 0h0m-10.016-10.855l9.95-2.258m0 0h0m-9.837-10.082l9.723-3.082m0 0h0m-9.558-9.227l9.394-3.964m0 0h0m-9.18-8.336l8.965-4.86m0 0h0m-8.707-7.46l8.45-5.72m0 0h0m-8.157-6.64l7.863-6.5m0 0h0m-7.55-5.91l7.238-7.184m0 0h0m-6.93-5.277l6.621-7.762m0 0h0m-6.32-4.754l6.02-8.23m0 0h0m-5.743-4.328l5.465-8.614m0 0h0m-5.207-3.984l4.95-8.918m0 0h0m-4.72-3.71l4.489-9.161m0 0h0m-4.281-3.492l4.074-9.352m0 0h0m-3.89-3.324l3.702-9.504m0 0h0m-3.539-3.183l3.375-9.625m0 0h0m10.215 247.07l10.2-.02m0 0h0m-10.2-12.652l10.2-.172m0 0h0m-10.196-12.426l10.192-.476m0 0h0m-10.176-12.047l10.16-.934m0 0h0m-10.121-11.515l10.082-1.532m0 0h0m-10.016-10.855l9.95-2.258m0 0h0m-9.837-10.082l9.723-3.082m0 0h0m-9.558-9.227l9.394-3.964m0 0h0m-9.18-8.336l8.965-4.86m0 0h0m-8.707-7.46l8.45-5.72m0 0h0m-8.157-6.64l7.863-6.5m0 0h0m-7.55-5.91l7.238-7.184m0 0h0m-6.93-5.277l6.621-7.762m0 0h0m-6.32-4.754l6.02-8.23m0 0h0m-5.743-4.328l5.465-8.614m0 0h0m-5.207-3.984l4.95-8.918m0 0h0m-4.72-3.71l4.489-9.161m0 0h0m-4.281-3.492l4.074-9.352m0 0h0m-3.89-3.324l3.702-9.504m0 0h0m-3.539-3.183l3.375-9.625m0 0h0m10.215 247.07l10.2-.02m0 0h0m-10.2-12.652l10.2-.172m0 0h0m-10.196-12.426l10.192-.476m0 0h0m-10.176-12.047l10.16-.934m0 0h0m-10.121-11.515l10.082-1.532m0 0h0m-10.016-10.855l9.95-2.258m0 0h0m-9.837-10.082l9.723-3.082m0 0h0m-9.558-9.227l9.394-3.964m0 0h0m-9.18-8.336l8.965-4.86m0 0h0m-8.707-7.46l8.45-5.72m0 0h0m-8.157-6.64l7.863-6.5m0 0h0m-7.55-5.91l7.238-7.184m0 0h0m-6.93-5.277l6.621-7.762m0 0h0m-6.32-4.754l6.02-8.23m0 0h0m-5.743-4.328l5.465-8.614m0 0h0m-5.207-3.984l4.95-8.918m0 0h0m-4.72-3.71l4.489-9.161m0 0h0m-4.281-3.492l4.074-9.352m0 0h0m-3.89-3.324l3.702-9.504m0 0h0m-3.539-3.183l3.38-9.625m0 0h0m10.21 247.07l10.2-.02m0 0h0m-10.2-12.652l10.2-.172m0 0h0m-10.196-12.426l10.192-.476m0 0h0m-10.176-12.047l10.16-.934m0 0h0m-10.121-11.515l10.082-1.532m0 0h0m-10.016-10.855l9.95-2.258m0 0h0m-9.837-10.082l9.723-3.082m0 0h0m-9.558-9.227l9.394-3.964m0 0h0m-9.18-8.336l8.965-4.86m0 0h0m-8.707-7.46l8.45-5.72m0 0h0m-8.157-6.64l7.863-6.5m0 0h0m-7.55-5.91l7.238-7.184m0 0h0m-6.93-5.277l6.621-7.762m0 0h0m-6.32-4.754l6.02-8.23m0 0h0m-5.743-4.328l5.465-8.614m0 0h0m-5.207-3.984l4.95-8.918m0 0h0m-4.72-3.71l4.489-9.161m0 0h0m-4.281-3.492l4.074-9.352m0 0h0m-3.89-3.324l3.702-9.504m0 0h0m-3.539-3.183l3.375-9.625m0 0h0m10.215 247.07l10.2-.02m0 0h0m-10.2-12.652l10.2-.172m0 0h0m-10.196-12.426l10.192-.476m0 0h0m-10.176-12.047l10.16-.934m0 0h0m-10.121-11.515l10.082-1.532m0 0h0m-10.016-10.855l9.95-2.258m0 0h0m-9.837-10.082l9.723-3.082m0 0h0m-9.558-9.227l9.394-3.964m0 0h0m-9.18-8.336l8.965-4.86m0 0h0m-8.707-7.46l8.45-5.72m0 0h0m-8.157-6.64l7.863-6.5m0 0h0m-7.55-5.91l7.238-7.184m0 0h0m-6.93-5.277l6.621-7.762m0 0h0m-6.32-4.754l6.02-8.23m0 0h0m-5.743-4.328l5.465-8.614m0 0h0m-5.207-3.984l4.95-8.918m0 0h0m-4.72-3.71l4.489-9.161m0 0h0m-4.281-3.492l4.074-9.352m0 0h0m-3.89-3.324l3.702-9.504m0 0h0m-3.539-3.183l3.38-9.625m0 0h0m10.21 247.07l10.2-.02m0 0h0m-10.2-12.652l10.2-.172m0 0h0m-10.196-12.426l10.192-.476m0 0h0m-10.176-12.047l10.16-.934m0 0h0m-10.121-11.515l10.082-1.532m0 0h0m-10.016-10.855l9.95-2.258m0 0h0m-9.837-10.082l9.723-3.082m0 0h0m-9.558-9.227l9.394-3.964m0 0h0m-9.18-8.336l8.965-4.86m0 0h0m-8.707-7.46l8.45-5.72m0 0h0m-8.157-6.64l7.863-6.5m0 0h0m-7.55-5.91l7.238-7.184m0 0h0m-6.93-5.277l6.621-7.762m0 0h0m-6.32-4.754l6.02-8.23m0 0h0m-5.743-4.328l5.465-8.614m0 0h0m-5.207-3.984l4.95-8.918m0 0h0m-4.72-3.71l4.489-9.161m0 0h0m-4.281-3.492l4.074-9.352m0 0h0m-3.89-3.324l3.702-9.504m0 0h0m-3.539-3.183l3.38-9.625m0 0h0m10.21 247.07l10.2-.02m0 0h0m-10.2-12.652l10.2-.172m0 0h0m-10.196-12.426l10.192-.476m0 0h0m-10.176-12.047l10.16-.934m0 0h0m-10.121-11.515l10.082-1.532m0 0h0m-10.016-10.855l9.95-2.258m0 0h0m-9.837-10.082l9.723-3.082m0 0h0m-9.558-9.227l9.394-3.964m0 0h0m-9.18-8.336l8.965-4.86m0 0h0m-8.707-7.46l8.45-5.72m0 0h0m-8.157-6.64l7.863-6.5m0 0h0m-7.55-5.91l7.238-7.184m0 0h0m-6.93-5.277l6.621-7.762m0 0h0m-6.32-4.754l6.02-8.23m0 0h0m-5.743-4.328l5.465-8.614m0 0h0m-5.207-3.984l4.95-8.918m0 0h0m-4.72-3.71l4.489-9.161m0 0h0m-4.281-3.492l4.074-9.352m0 0h0m-3.89-3.324l3.702-9.504m0 0h0m-3.539-3.183l3.375-9.625m0 0h0m10.215 247.07l10.2-.02m0 0h0m-10.2-12.652l10.2-.172m0 0h0m-10.196-12.426l10.192-.476m0 0h0m-10.176-12.047l10.16-.934m0 0h0m-10.121-11.515l10.082-1.532m0 0h0m-10.016-10.855l9.95-2.258m0 0h0m-9.837-10.082l9.723-3.082m0 0h0m-9.558-9.227l9.394-3.964m0 0h0m-9.18-8.336l8.965-4.86m0 0h0m-8.707-7.46l8.45-5.72m0 0h0m-8.157-6.64l7.863-6.5m0 0h0m-7.55-5.91l7.238-7.184m0 0h0m-6.93-5.277l6.621-7.762m0 0h0m-6.32-4.754l6.02-8.23m0 0h0m-5.743-4.328l5.465-8.614m0 0h0m-5.207-3.984l4.95-8.918m0 0h0m-4.72-3.71l4.489-9.161m0 0h0m-4.281-3.492l4.074-9.352m0 0h0m-3.89-3.324l3.702-9.504m0 0h0m-3.539-3.183l3.38-9.625m0 0h0m10.21 247.07l10.2-.02m0 0h0m-10.2-12.652l10.2-.172m0 0h0m-10.196-12.426l10.192-.476m0 0h0m-10.176-12.047l10.16-.934m0 0h0m-10.121-11.515l10.082-1.532m0 0h0m-10.016-10.855l9.95-2.258m0 0h0m-9.837-10.082l9.723-3.082m0 0h0m-9.558-9.227l9.394-3.964m0 0h0m-9.18-8.336l8.965-4.86m0 0h0m-8.707-7.46l8.45-5.72m0 0h0m-8.157-6.64l7.863-6.5m0 0h0m-7.55-5.91l7.238-7.184m0 0h0m-6.93-5.277l6.621-7.762m0 0h0m-6.32-4.754l6.02-8.23m0 0h0m-5.743-4.328l5.465-8.614m0 0h0m-5.207-3.984l4.95-8.918m0 0h0m-4.72-3.71l4.489-9.161m0 0h0m-4.281-3.492l4.074-9.352m0 0h0m-3.89-3.324l3.702-9.504m0 0h0m-3.539-3.183l3.375-9.625m0 0h0m10.215 247.07l10.2-.02m0 0h0m-10.2-12.652l10.2-.172m0 0h0m-10.196-12.426l10.192-.476m0 0h0m-10.176-12.047l10.16-.934m0 0h0m-10.121-11.515l10.082-1.532m0 0h0m-10.016-10.855l9.95-2.258m0 0h0m-9.837-10.082l9.723-3.082m0 0h0m-9.558-9.227l9.394-3.964m0 0h0m-9.18-8.336l8.965-4.86m0 0h0m-8.707-7.46l8.45-5.72m0 0h0m-8.157-6.64l7.863-6.5m0 0h0m-7.55-5.91l7.238-7.184m0 0h0m-6.93-5.277l6.621-7.762m0 0h0m-6.32-4.754l6.02-8.23m0 0h0m-5.743-4.328l5.465-8.614m0 0h0m-5.207-3.984l4.95-8.918m0 0h0m-4.72-3.71l4.489-9.161m0 0h0m-4.281-3.492l4.074-9.352m0 0h0m-3.89-3.324l3.702-9.504m0 0h0m-3.539-3.183l3.38-9.625m0 0h0m10.21 247.07l10.2-.02m0 0h0m-10.2-12.652l10.2-.172m0 0h0m-10.196-12.426l10.192-.476m0 0h0m-10.176-12.047l10.16-.934m0 0h0m-10.121-11.515l10.082-1.532m0 0h0m-10.016-10.855l9.95-2.258m0 0h0m-9.837-10.082l9.723-3.082m0 0h0m-9.558-9.227l9.394-3.964m0 0h0m-9.18-8.336l8.965-4.86m0 0h0m-8.707-7.46l8.45-5.72m0 0h0m-8.157-6.64l7.863-6.5m0 0h0m-7.55-5.91l7.238-7.184m0 0h0m-6.93-5.277l6.621-7.762m0 0h0m-6.32-4.754l6.02-8.23m0 0h0m-5.743-4.328l5.465-8.614m0 0h0m-5.207-3.984l4.95-8.918m0 0h0m-4.72-3.71l4.489-9.161m0 0h0m-4.281-3.492l4.074-9.352m0 0h0m-3.89-3.324l3.702-9.504m0 0h0m-3.539-3.183l3.38-9.625m0 0h0m10.21 247.07l10.2-.02m0 0h0m-10.2-12.652l10.2-.172m0 0h0m-10.196-12.426l10.192-.476m0 0h0m-10.176-12.047l10.16-.934m0 0h0m-10.121-11.515l10.082-1.532m0 0h0m-10.016-10.855l9.95-2.258m0 0h0m-9.837-10.082l9.723-3.082m0 0h0m-9.558-9.227l9.394-3.964m0 0h0m-9.18-8.336l8.965-4.86m0 0h0m-8.707-7.46l8.45-5.72m0 0h0m-8.157-6.64l7.863-6.5m0 0h0m-7.55-5.91l7.238-7.184m0 0h0m-6.93-5.277l6.621-7.762m0 0h0m-6.32-4.754l6.02-8.23m0 0h0m-5.743-4.328l5.465-8.614m0 0h0m-5.207-3.984l4.95-8.918m0 0h0m-4.72-3.71l4.489-9.161m0 0h0m-4.281-3.492l4.074-9.352m0 0h0m-3.89-3.324l3.702-9.504m0 0h0m-3.539-3.183l3.38-9.625m0 0h0m10.21 247.07l10.2-.02m0 0h0m-10.2-12.652l10.2-.172m0 0h0m-10.196-12.426l10.192-.476m0 0h0m-10.176-12.047l10.16-.934m0 0h0m-10.121-11.515l10.082-1.532m0 0h0m-10.016-10.855l9.95-2.258m0 0h0m-9.837-10.082l9.723-3.082m0 0h0m-9.558-9.227l9.394-3.964m0 0h0m-9.18-8.336l8.965-4.86m0 0h0m-8.707-7.46l8.45-5.72m0 0h0m-8.157-6.64l7.863-6.5m0 0h0m-7.55-5.91l7.238-7.184m0 0h0m-6.93-5.277l6.621-7.762m0 0h0m-6.32-4.754l6.02-8.23m0 0h0m-5.743-4.328l5.465-8.614m0 0h0m-5.207-3.984l4.95-8.918m0 0h0m-4.72-3.71l4.489-9.161m0 0h0m-4.281-3.492l4.074-9.352m0 0h0m-3.89-3.324l3.702-9.504m0 0h0m-3.539-3.183l3.375-9.625m0 0h0" fill="none" stroke-width=".625" stroke-linecap="round" stroke="#00f" stroke-miterlimit="10"/><path d="M496.426 180l85-28.336m0 0l85-50.367" fill="none" stroke-width="1.25" stroke-linecap="round" stroke="#006400" stroke-miterlimit="10"/></svg>