<svg xmlns="http://www.w3.org/2000/svg" xmlns:xlink="http://www.w3.org/1999/xlink" width="516" height="275pt" viewBox="0 0 387 275"><defs><clipPath id="h"><path d="M24 264h340v.5H24zm0 0"/></clipPath><clipPath id="d"><path d="M108 9.5h2v255h-2zm0 0"/></clipPath><clipPath id="l"><path d="M24 9.5h340v.5H24zm0 0"/></clipPath><clipPath id="k"><path d="M24 72h340v2H24zm0 0"/></clipPath><clipPath id="j"><path d="M24 136h340v2H24zm0 0"/></clipPath><clipPath id="i"><path d="M24 200h340v2H24zm0 0"/></clipPath><clipPath id="a"><path d="M193 9.5h2v255h-2zm0 0"/></clipPath><clipPath id="b"><path d="M24 136h340v2H24zm0 0"/></clipPath><clipPath id="c"><path d="M24 9.5h1v255h-1zm0 0"/></clipPath><clipPath id="s"><path d="M24 72h340v130H24zm0 0"/></clipPath><clipPath id="e"><path d="M193 9.5h2v255h-2zm0 0"/></clipPath><clipPath id="f"><path d="M278 9.5h2v255h-2zm0 0"/></clipPath><clipPath id="g"><path d="M363 9.5h1v255h-1zm0 0"/></clipPath><symbol overflow="visible" id="n"><path d="M3.797-.656H1c.063-.438.313-.703.953-1.094l.75-.406c.75-.406 1.125-.953 1.125-1.594 0-.453-.172-.86-.484-1.14-.328-.298-.719-.423-1.219-.423-.672 0-1.172.235-1.469.688-.187.281-.265.61-.281 1.156h.656c.032-.36.078-.578.157-.75.171-.328.515-.515.921-.515.594 0 1.047.421 1.047.984 0 .422-.25.781-.719 1.063l-.687.39C.64-1.672.312-1.172.25 0h3.547zm0 0"/></symbol><symbol overflow="visible" id="r"><path d="M3.563-5.313H.828L.422-2.421h.61c.312-.375.562-.5.984-.5.703 0 1.156.485 1.156 1.281 0 .766-.438 1.235-1.156 1.235-.579 0-.938-.297-1.094-.906H.266c.093.437.156.656.312.843.313.406.844.64 1.453.64 1.063 0 1.813-.78 1.813-1.905 0-1.047-.688-1.766-1.719-1.766-.375 0-.672.094-.984.313l.218-1.485h2.204zm0 0"/></symbol><symbol overflow="visible" id="q"><path d="M1.438-.781H.655V0h.781zm0 0"/></symbol><symbol overflow="visible" id="p"><path d="M2.063-5.313c-.5 0-.938.22-1.22.579C.5-4.266.329-3.563.329-2.578c0 1.797.594 2.75 1.734 2.75 1.126 0 1.735-.953 1.735-2.703 0-1.031-.156-1.719-.516-2.203-.281-.375-.719-.579-1.219-.579zm0 .579c.718 0 1.062.718 1.062 2.14 0 1.516-.344 2.219-1.078 2.219C1.344-.375 1-1.109 1-2.563c0-1.453.344-2.171 1.063-2.171zm0 0"/></symbol><symbol overflow="visible" id="o"><path d="M1.938-3.781V0h.671v-5.313h-.437c-.235.813-.39.922-1.406 1.047v.485zm0 0"/></symbol><symbol overflow="visible" id="m"><path d="M2.125-2.344H.344v.547h1.781zm0 0"/></symbol></defs><g clip-path="url(#a)"><path d="M194 264.5V9.5" fill="none" stroke-width=".625" stroke-linecap="round" stroke="#bfbfbf" stroke-miterlimit="10"/></g><g clip-path="url(#b)"><path d="M24 137h340" fill="none" stroke-width=".625" stroke-linecap="round" stroke="#bfbfbf" stroke-miterlimit="10"/></g><g clip-path="url(#c)"><path d="M24 264.5V9.5" fill="none" stroke-width=".625" stroke-linecap="round" stroke="#bfbfbf" stroke-dasharray="12.5,18.75" stroke-miterlimit="10"/></g><g clip-path="url(#d)"><path d="M109 264.5V9.5" fill="none" stroke-width=".625" stroke-linecap="round" stroke="#bfbfbf" stroke-dasharray="12.5,18.75" stroke-miterlimit="10"/></g><g clip-path="url(#e)"><path d="M194 264.5V9.5" fill="none" stroke-width=".625" stroke-linecap="round" stroke="#bfbfbf" stroke-dasharray="12.5,18.75" stroke-miterlimit="10"/></g><g clip-path="url(#f)"><path d="M279 264.5V9.5" fill="none" stroke-width=".625" stroke-linecap="round" stroke="#bfbfbf" stroke-dasharray="12.5,18.75" stroke-miterlimit="10"/></g><g clip-path="url(#g)"><path d="M364 264.5V9.5" fill="none" stroke-width=".625" stroke-linecap="round" stroke="#bfbfbf" stroke-dasharray="12.5,18.75" stroke-miterlimit="10"/></g><g clip-path="url(#h)"><path d="M24 264.5h340" fill="none" stroke-width=".625" stroke-linecap="round" stroke="#bfbfbf" stroke-dasharray="12.5,18.75" stroke-miterlimit="10"/></g><g clip-path="url(#i)"><path d="M24 200.75h340" fill="none" stroke-width=".625" stroke-linecap="round" stroke="#bfbfbf" stroke-dasharray="12.5,18.75" stroke-miterlimit="10"/></g><g clip-path="url(#j)"><path d="M24 137h340" fill="none" stroke-width=".625" stroke-linecap="round" stroke="#bfbfbf" stroke-dasharray="12.5,18.75" stroke-miterlimit="10"/></g><g clip-path="url(#k)"><path d="M24 73.25h340" fill="none" stroke-width=".625" stroke-linecap="round" stroke="#bfbfbf" stroke-dasharray="12.5,18.75" stroke-miterlimit="10"/></g><g clip-path="url(#l)"><path d="M24 9.5h340" fill="none" stroke-width=".625" stroke-linecap="round" stroke="#bfbfbf" stroke-dasharray="12.5,18.75" stroke-miterlimit="10"/></g><path d="M24 264.5h340" fill="none" stroke-width="1.25" stroke-linecap="square" stroke="#000" stroke-miterlimit="10"/><path d="M24 264.5v-5m8.5 5V262m8.5 2.5V262m8.5 2.5V262m8.5 2.5V262m8.5 2.5V262m8.5 2.5V262m8.5 2.5V262m8.5 2.5V262m8.5 2.5V262m8.5 2.5v-5m8.5 5V262m8.5 2.5V262m8.5 2.5V262m8.5 2.5V262m8.5 2.5V262m8.5 2.5V262m8.5 2.5V262m8.5 2.5V262m8.5 2.5V262m8.5 2.5v-5m8.5 5V262m8.5 2.5V262m8.5 2.5V262m8.5 2.5V262m8.5 2.5V262m8.5 2.5V262m8.5 2.5V262m8.5 2.5V262m8.5 2.5V262m8.5 2.5v-5m8.5 5V262m8.5 2.5V262m8.5 2.5V262m8.5 2.5V262m8.5 2.5V262m8.5 2.5V262m8.5 2.5V262m8.5 2.5V262m8.5 2.5V262m8.5 2.5v-5" fill="none" stroke-width=".625" stroke="#000" stroke-miterlimit="10"/><use xlink:href="#m" x="20.042" y="274.5"/><use xlink:href="#n" x="22.539" y="274.5"/><use xlink:href="#m" x="105.042" y="274.5"/><use xlink:href="#o" x="107.539" y="274.5"/><use xlink:href="#p" x="191.915" y="274.5"/><use xlink:href="#o" x="276.915" y="274.5"/><use xlink:href="#n" x="361.914" y="274.5"/><path d="M24 9.5h340" fill="none" stroke-width="1.25" stroke-linecap="square" stroke="#000" stroke-miterlimit="10"/><path d="M24 9.5v5m8.5-5V12M41 9.5V12m8.5-2.5V12M58 9.5V12m8.5-2.5V12M75 9.5V12m8.5-2.5V12M92 9.5V12m8.5-2.5V12m8.5-2.5v5m8.5-5V12m8.5-2.5V12m8.5-2.5V12m8.5-2.5V12m8.5-2.5V12m8.5-2.5V12m8.5-2.5V12m8.5-2.5V12m8.5-2.5V12m8.5-2.5v5m8.5-5V12m8.5-2.5V12m8.5-2.5V12m8.5-2.5V12m8.5-2.5V12m8.5-2.5V12m8.5-2.5V12m8.5-2.5V12m8.5-2.5V12m8.5-2.5v5m8.5-5V12m8.5-2.5V12m8.5-2.5V12m8.5-2.5V12m8.5-2.5V12m8.5-2.5V12m8.5-2.5V12m8.5-2.5V12m8.5-2.5V12m8.5-2.5v5" fill="none" stroke-width=".625" stroke="#000" stroke-miterlimit="10"/><use xlink:href="#m" x="20.042" y="6.375"/><use xlink:href="#n" x="22.539" y="6.375"/><use xlink:href="#m" x="105.042" y="6.375"/><use xlink:href="#o" x="107.539" y="6.375"/><use xlink:href="#p" x="191.915" y="6.375"/><use xlink:href="#o" x="276.915" y="6.375"/><use xlink:href="#n" x="361.914" y="6.375"/><path d="M24 264.5V9.5" fill="none" stroke-width="1.25" stroke-linecap="square" stroke="#000" stroke-miterlimit="10"/><path d="M24 264.5h5m-5-6.375h2.5M24 251.75h2.5m-2.5-6.375h2.5M24 239h2.5m-2.5-6.375h2.5M24 226.25h2.5m-2.5-6.375h2.5M24 213.5h2.5m-2.5-6.375h2.5M24 200.75h5m-5-6.375h2.5M24 188h2.5m-2.5-6.375h2.5M24 175.25h2.5m-2.5-6.375h2.5M24 162.5h2.5m-2.5-6.375h2.5M24 149.75h2.5m-2.5-6.375h2.5M24 137h5m-5-6.375h2.5M24 124.25h2.5m-2.5-6.375h2.5M24 111.5h2.5m-2.5-6.375h2.5M24 98.75h2.5M24 92.375h2.5M24 86h2.5M24 79.625h2.5M24 73.25h5m-5-6.375h2.5M24 60.5h2.5M24 54.125h2.5M24 47.75h2.5M24 41.375h2.5M24 35h2.5M24 28.625h2.5M24 22.25h2.5M24 15.875h2.5M24 9.5h5" fill="none" stroke-width=".625" stroke="#000" stroke-miterlimit="10"/><use xlink:href="#m" x=".034" y="268.25"/><use xlink:href="#p" x="2.531" y="268.25"/><use xlink:href="#q" x="6.701" y="268.25"/><use xlink:href="#r" x="8.786" y="268.25"/><use xlink:href="#p" x="12.956" y="268.25"/><use xlink:href="#m" x=".034" y="203.875"/><use xlink:href="#p" x="2.531" y="203.875"/><use xlink:href="#q" x="6.701" y="203.875"/><use xlink:href="#n" x="8.786" y="203.875"/><use xlink:href="#r" x="12.956" y="203.875"/><use xlink:href="#p" x="2.531" y="140.125"/><use xlink:href="#q" x="6.701" y="140.125"/><use xlink:href="#p" x="8.786" y="140.125"/><use xlink:href="#p" x="12.956" y="140.125"/><use xlink:href="#p" x="2.531" y="76.375"/><use xlink:href="#q" x="6.701" y="76.375"/><use xlink:href="#n" x="8.786" y="76.375"/><use xlink:href="#r" x="12.956" y="76.375"/><use xlink:href="#p" x="2.531" y="12.625"/><use xlink:href="#q" x="6.701" y="12.625"/><use xlink:href="#r" x="8.786" y="12.625"/><use xlink:href="#p" x="12.956" y="12.625"/><path d="M364 264.5V9.5" fill="none" stroke-width="1.25" stroke-linecap="square" stroke="#000" stroke-miterlimit="10"/><path d="M364 264.5h-5m5-6.375h-2.5m2.5-6.375h-2.5m2.5-6.375h-2.5M364 239h-2.5m2.5-6.375h-2.5m2.5-6.375h-2.5m2.5-6.375h-2.5m2.5-6.375h-2.5m2.5-6.375h-2.5m2.5-6.375h-5m5-6.375h-2.5M364 188h-2.5m2.5-6.375h-2.5m2.5-6.375h-2.5m2.5-6.375h-2.5m2.5-6.375h-2.5m2.5-6.375h-2.5m2.5-6.375h-2.5m2.5-6.375h-2.5M364 137h-5m5-6.375h-2.5m2.5-6.375h-2.5m2.5-6.375h-2.5m2.5-6.375h-2.5m2.5-6.375h-2.5m2.5-6.375h-2.5m2.5-6.375h-2.5M364 86h-2.5m2.5-6.375h-2.5m2.5-6.375h-5m5-6.375h-2.5M364 60.5h-2.5m2.5-6.375h-2.5m2.5-6.375h-2.5m2.5-6.375h-2.5M364 35h-2.5m2.5-6.375h-2.5m2.5-6.375h-2.5m2.5-6.375h-2.5M364 9.5h-5" fill="none" stroke-width=".625" stroke="#000" stroke-miterlimit="10"/><use xlink:href="#m" x="370.25" y="268.25"/><use xlink:href="#p" x="372.748" y="268.25"/><use xlink:href="#q" x="376.918" y="268.25"/><use xlink:href="#r" x="379.002" y="268.25"/><use xlink:href="#p" x="383.173" y="268.25"/><use xlink:href="#m" x="370.25" y="203.875"/><use xlink:href="#p" x="372.748" y="203.875"/><use xlink:href="#q" x="376.918" y="203.875"/><use xlink:href="#n" x="379.002" y="203.875"/><use xlink:href="#r" x="383.173" y="203.875"/><use xlink:href="#p" x="370.25" y="140.125"/><use xlink:href="#q" x="374.42" y="140.125"/><use xlink:href="#p" x="376.505" y="140.125"/><use xlink:href="#p" x="380.675" y="140.125"/><use xlink:href="#p" x="370.25" y="76.375"/><use xlink:href="#q" x="374.42" y="76.375"/><use xlink:href="#n" x="376.505" y="76.375"/><use xlink:href="#r" x="380.675" y="76.375"/><use xlink:href="#p" x="370.25" y="12.625"/><use xlink:href="#q" x="374.42" y="12.625"/><use xlink:href="#r" x="376.505" y="12.625"/><use xlink:href="#p" x="380.675" y="12.625"/><g clip-path="url(#s)"><path d="M24 137l.625-1.86.625-1.835.625-1.805.625-1.781.625-1.75.625-1.723.625-1.695.625-1.668.625-1.64.625-1.614.625-1.586.625-1.559.625-1.53.625-1.5.625-1.477.625-1.45.625-1.418.625-1.39.625-1.367.625-1.336.625-1.313.625-1.281.625-1.254.625-1.227.625-1.199.625-1.172.625-1.144.625-1.117.625-1.09.625-1.063.625-1.031.625-1.008.625-.976.625-.954.625-.921.625-.899.625-.867.625-.844.625-.812.625-.785.625-.758.625-.73.625-.704.625-.676.625-.648.625-.621.625-.594.625-.562.625-.54.625-.507.625-.485.625-.457.625-.425.625-.399.625-.375.625-.344.625-.316.625-.29.625-.26.625-.235.625-.207.625-.18.625-.152.625-.125.625-.094.625-.07.625-.04.625-.015.625.016.625.039.625.07.625.094.625.125.625.152.625.18.625.207.625.234.625.262.625.289.625.316.625.344.625.375.625.399.625.425.625.457.625.485.625.508.625.539.625.562.625.594.625.621.625.648.625.676.625.703.625.73.625.759.625.785.625.812.625.844.625.867.625.899.625.921.625.954.625.976.625 1.008.625 1.031.625 1.063.625 1.09.625 1.117.625 1.144.625 1.172.625 1.2.625 1.226.625 1.254.625 1.281.625 1.313.625 1.336.625 1.367.625 1.39.625 1.418.625 1.45.625 1.476.625 1.5.625 1.531.625 1.559.625 1.586.625 1.613.625 1.64.625 1.669.625 1.695.625 1.723.625 1.75.625 1.781.625 1.805.625 1.836 1.25 3.718.625 1.836.625 1.805.625 1.777.625 1.754.625 1.723.625 1.695.625 1.668.625 1.64.625 1.614.625 1.586.625 1.559.625 1.53.625 1.5.625 1.477.625 1.446.625 1.422.625 1.39.625 1.367.625 1.336.625 1.313.625 1.281.625 1.254.625 1.227.625 1.199.625 1.172.625 1.144.625 1.117.625 1.09.625 1.063.625 1.031.625 1.008.625.976.625.953.625.922.625.899.625.867.625.844.625.812.625.785.625.758.625.73.625.704.625.676.625.648.625.621.625.59.625.566.625.54.625.507.625.485.625.453.625.43.625.398.625.371.625.348.625.316.625.29.625.26.625.235.625.207.625.18.625.152.625.125.625.094.625.07.625.04.625.015.625-.016.625-.039.625-.07.625-.094.625-.125.625-.152.625-.18.625-.207.625-.234.625-.262.625-.289.625-.316.625-.348.625-.371.625-.399.625-.43.625-.452.625-.485.625-.508.625-.539.625-.566.625-.59.625-.621.625-.648.625-.676.625-.703.625-.73.625-.759.625-.785.625-.812.625-.844.625-.867.625-.899.625-.922.625-.953.625-.976.625-1.008.625-1.031.625-1.063.625-1.09.625-1.117.625-1.144.625-1.172.625-1.2.625-1.226.625-1.254.625-1.281.625-1.313.625-1.336.625-1.367.625-1.39.625-1.422.625-1.446.625-1.476.625-1.5.625-1.531.625-1.559.625-1.586.625-1.613.625-1.64.625-1.669.625-1.695.625-1.723.625-1.754.625-1.777.625-1.805.625-1.836 1.25-3.718.625-1.836.625-1.805.625-1.781.625-1.75.625-1.723.625-1.695.625-1.668.625-1.64.625-1.614.625-1.586.625-1.559.625-1.53.625-1.5.625-1.477.625-1.45.625-1.418.625-1.39.625-1.367.625-1.336.625-1.313.625-1.281.625-1.254.625-1.227.625-1.199.625-1.172.625-1.144.625-1.117.625-1.09.625-1.063.625-1.031.625-1.008.625-.976.625-.954.625-.921.625-.899.625-.867.625-.844.625-.812.625-.785.625-.758.625-.73.625-.704.625-.676.625-.648.625-.621.625-.594.625-.562.625-.54.625-.507.625-.485.625-.457.625-.425.625-.399.625-.375.625-.344.625-.316.625-.29.625-.26.625-.235.625-.207.625-.18.625-.152.625-.125.625-.094.625-.07.625-.04.625-.015.625.016.625.039.625.07.625.094.625.125.625.152.625.18.625.207.625.234.625.262.625.289.625.316.625.344.625.375.625.399.625.425.625.457.625.485.625.508.625.539.625.562.625.594.625.621.625.648.625.676.625.703.625.73.625.759.625.785.625.812.625.844.625.867.625.899.625.921.625.954.625.976.625 1.008.625 1.031.625 1.063.625 1.09.625 1.117.625 1.144.625 1.172.625 1.2.625 1.226.625 1.254.625 1.281.625 1.313.625 1.336.625 1.367.625 1.39.625 1.418.625 1.45.625 1.476.625 1.5.625 1.531.625 1.559.625 1.586.625 1.613.625 1.64.625 1.669.625 1.695.625 1.723.625 1.75.625 1.781.625 1.805.625 1.836 1.25 3.718.625 1.836.625 1.805.625 1.777.625 1.754.625 1.723.625 1.695.625 1.668.625 1.64.625 1.614.625 1.586.625 1.559.625 1.53.625 1.5.625 1.477.625 1.446.625 1.422.625 1.39.625 1.367.625 1.336.625 1.313.625 1.281.625 1.254.625 1.227.625 1.199.625 1.172.625 1.144.625 1.117.625 1.09.625 1.063.625 1.031.625 1.008.625.976.625.953.625.922.625.899.625.867.625.844.625.812.625.785.625.758.625.73.625.704.625.676.625.648.625.621.625.59.625.566.625.54.625.507.625.485.625.453.625.43.625.398.625.371.625.348.625.316.625.29.625.26.625.235.625.207.625.18.625.152.625.125.625.094.625.07.625.04.625.015.625-.016.625-.039.625-.07.625-.094.625-.125.625-.152.625-.18.625-.207.625-.234.625-.262.625-.289.625-.316.625-.348.625-.371.625-.399.625-.43.625-.452.625-.485.625-.508.625-.539.625-.566.625-.59.625-.621.625-.648.625-.676.625-.703.625-.73.625-.759.625-.785.625-.812.625-.844.625-.867.625-.899.625-.922.625-.953.625-.976.625-1.008.625-1.031.625-1.063.625-1.09.625-1.117.625-1.144.625-1.172.625-1.2.625-1.226.625-1.254.625-1.281.625-1.313.625-1.336.625-1.367.625-1.39.625-1.422.625-1.446.625-1.476.625-1.5.625-1.531.625-1.559.625-1.586.625-1.613.625-1.64.625-1.669.625-1.695.625-1.723.625-1.754.625-1.777.625-1.805.625-1.836L364 137" fill="none" stroke-width="1.25" stroke-linecap="round" stroke-linejoin="round" stroke="#00008b" stroke-miterlimit="10"/></g></svg>