<svg xmlns="http://www.w3.org/2000/svg" xmlns:xlink="http://www.w3.org/1999/xlink" width="382pt" height="275pt" viewBox="0 0 382 275"><defs><clipPath id="g"><path d="M360 9.5h1v255h-1zm0 0"/></clipPath><clipPath id="d"><path d="M105 9.5h2v255h-2zm0 0"/></clipPath><clipPath id="l"><path d="M21 30h340v2H21zm0 0"/></clipPath><clipPath id="k"><path d="M21 83h340v2H21zm0 0"/></clipPath><clipPath id="j"><path d="M21 136h340v2H21zm0 0"/></clipPath><clipPath id="i"><path d="M21 189h340v2H21zm0 0"/></clipPath><clipPath id="h"><path d="M21 242h340v2H21zm0 0"/></clipPath><clipPath id="a"><path d="M190 9.5h2v255h-2zm0 0"/></clipPath><clipPath id="b"><path d="M21 242h340v2H21zm0 0"/></clipPath><clipPath id="c"><path d="M21 9.5h1v255h-1zm0 0"/></clipPath><clipPath id="t"><path d="M21 30h340v214H21zm0 0"/></clipPath><clipPath id="e"><path d="M190 9.5h2v255h-2zm0 0"/></clipPath><clipPath id="f"><path d="M275 9.5h2v255h-2zm0 0"/></clipPath><symbol overflow="visible" id="n"><path d="M3.797-.656H1c.063-.438.313-.703.953-1.094l.75-.406c.75-.406 1.125-.953 1.125-1.594 0-.453-.172-.86-.484-1.14-.328-.298-.719-.423-1.219-.423-.672 0-1.172.235-1.469.688-.187.281-.265.61-.281 1.156h.656c.032-.36.078-.578.157-.75.171-.328.515-.515.921-.515.594 0 1.047.421 1.047.984 0 .422-.25.781-.719 1.063l-.687.39C.64-1.672.312-1.172.25 0h3.547zm0 0"/></symbol><symbol overflow="visible" id="s"><path d="M3.906-5.313H.344v.641h2.875C1.953-2.859 1.438-1.75 1.03 0h.703c.297-1.703.97-3.172 2.172-4.766zm0 0"/></symbol><symbol overflow="visible" id="r"><path d="M3.563-5.313H.828L.422-2.421h.61c.312-.375.562-.5.984-.5.703 0 1.156.485 1.156 1.281 0 .766-.438 1.235-1.156 1.235-.579 0-.938-.297-1.094-.906H.266c.093.437.156.656.312.843.313.406.844.64 1.453.64 1.063 0 1.813-.78 1.813-1.905 0-1.047-.688-1.766-1.719-1.766-.375 0-.672.094-.984.313l.218-1.485h2.204zm0 0"/></symbol><symbol overflow="visible" id="q"><path d="M1.438-.781H.655V0h.781zm0 0"/></symbol><symbol overflow="visible" id="p"><path d="M2.063-5.313c-.5 0-.938.22-1.22.579C.5-4.266.329-3.563.329-2.578c0 1.797.594 2.75 1.734 2.75 1.126 0 1.735-.953 1.735-2.703 0-1.031-.156-1.719-.516-2.203-.281-.375-.719-.579-1.219-.579zm0 .579c.718 0 1.062.718 1.062 2.14 0 1.516-.344 2.219-1.078 2.219C1.344-.375 1-1.109 1-2.563c0-1.453.344-2.171 1.063-2.171zm0 0"/></symbol><symbol overflow="visible" id="o"><path d="M1.938-3.781V0h.671v-5.313h-.437c-.235.813-.39.922-1.406 1.047v.485zm0 0"/></symbol><symbol overflow="visible" id="m"><path d="M2.125-2.344H.344v.547h1.781zm0 0"/></symbol></defs><g clip-path="url(#a)"><path d="M191 264.5V9.5" fill="none" stroke-width=".625" stroke-linecap="round" stroke="#bfbfbf" stroke-miterlimit="10"/></g><g clip-path="url(#b)"><path d="M21 243.25h340" fill="none" stroke-width=".625" stroke-linecap="round" stroke="#bfbfbf" stroke-miterlimit="10"/></g><g clip-path="url(#c)"><path d="M21 264.5V9.5" fill="none" stroke-width=".625" stroke-linecap="round" stroke="#bfbfbf" stroke-dasharray="12.5,18.75" stroke-miterlimit="10"/></g><g clip-path="url(#d)"><path d="M106 264.5V9.5" fill="none" stroke-width=".625" stroke-linecap="round" stroke="#bfbfbf" stroke-dasharray="12.5,18.75" stroke-miterlimit="10"/></g><g clip-path="url(#e)"><path d="M191 264.5V9.5" fill="none" stroke-width=".625" stroke-linecap="round" stroke="#bfbfbf" stroke-dasharray="12.5,18.75" stroke-miterlimit="10"/></g><g clip-path="url(#f)"><path d="M276 264.5V9.5" fill="none" stroke-width=".625" stroke-linecap="round" stroke="#bfbfbf" stroke-dasharray="12.5,18.75" stroke-miterlimit="10"/></g><g clip-path="url(#g)"><path d="M361 264.5V9.5" fill="none" stroke-width=".625" stroke-linecap="round" stroke="#bfbfbf" stroke-dasharray="12.5,18.75" stroke-miterlimit="10"/></g><g clip-path="url(#h)"><path d="M21 243.25h340" fill="none" stroke-width=".625" stroke-linecap="round" stroke="#bfbfbf" stroke-dasharray="12.5,18.75" stroke-miterlimit="10"/></g><g clip-path="url(#i)"><path d="M21 190.125h340" fill="none" stroke-width=".625" stroke-linecap="round" stroke="#bfbfbf" stroke-dasharray="12.5,18.75" stroke-miterlimit="10"/></g><g clip-path="url(#j)"><path d="M21 137h340" fill="none" stroke-width=".625" stroke-linecap="round" stroke="#bfbfbf" stroke-dasharray="12.5,18.75" stroke-miterlimit="10"/></g><g clip-path="url(#k)"><path d="M21 83.875h340" fill="none" stroke-width=".625" stroke-linecap="round" stroke="#bfbfbf" stroke-dasharray="12.5,18.75" stroke-miterlimit="10"/></g><g clip-path="url(#l)"><path d="M21 30.75h340" fill="none" stroke-width=".625" stroke-linecap="round" stroke="#bfbfbf" stroke-dasharray="12.5,18.75" stroke-miterlimit="10"/></g><path d="M21 264.5h340" fill="none" stroke-width="1.25" stroke-linecap="square" stroke="#000" stroke-miterlimit="10"/><path d="M21 264.5v-5m8.5 5V262m8.5 2.5V262m8.5 2.5V262m8.5 2.5V262m8.5 2.5V262m8.5 2.5V262m8.5 2.5V262m8.5 2.5V262m8.5 2.5V262m8.5 2.5v-5m8.5 5V262m8.5 2.5V262m8.5 2.5V262m8.5 2.5V262m8.5 2.5V262m8.5 2.5V262m8.5 2.5V262m8.5 2.5V262m8.5 2.5V262m8.5 2.5v-5m8.5 5V262m8.5 2.5V262m8.5 2.5V262m8.5 2.5V262m8.5 2.5V262m8.5 2.5V262m8.5 2.5V262m8.5 2.5V262m8.5 2.5V262m8.5 2.5v-5m8.5 5V262m8.5 2.5V262m8.5 2.5V262m8.5 2.5V262m8.5 2.5V262m8.5 2.5V262m8.5 2.5V262m8.5 2.5V262m8.5 2.5V262m8.5 2.5v-5" fill="none" stroke-width=".625" stroke="#000" stroke-miterlimit="10"/><use xlink:href="#m" x="17.042" y="274.5"/><use xlink:href="#n" x="19.539" y="274.5"/><use xlink:href="#m" x="102.042" y="274.5"/><use xlink:href="#o" x="104.539" y="274.5"/><use xlink:href="#p" x="188.915" y="274.5"/><use xlink:href="#o" x="273.915" y="274.5"/><use xlink:href="#n" x="358.914" y="274.5"/><path d="M21 9.5h340" fill="none" stroke-width="1.25" stroke-linecap="square" stroke="#000" stroke-miterlimit="10"/><path d="M21 9.5v5m8.5-5V12M38 9.5V12m8.5-2.5V12M55 9.5V12m8.5-2.5V12M72 9.5V12m8.5-2.5V12M89 9.5V12m8.5-2.5V12m8.5-2.5v5m8.5-5V12m8.5-2.5V12m8.5-2.5V12m8.5-2.5V12m8.5-2.5V12m8.5-2.5V12m8.5-2.5V12m8.5-2.5V12m8.5-2.5V12m8.5-2.5v5m8.5-5V12m8.5-2.5V12m8.5-2.5V12m8.5-2.5V12m8.5-2.5V12m8.5-2.5V12m8.5-2.5V12m8.5-2.5V12m8.5-2.5V12m8.5-2.5v5m8.5-5V12m8.5-2.5V12m8.5-2.5V12m8.5-2.5V12m8.5-2.5V12m8.5-2.5V12m8.5-2.5V12m8.5-2.5V12m8.5-2.5V12m8.5-2.5v5" fill="none" stroke-width=".625" stroke="#000" stroke-miterlimit="10"/><use xlink:href="#m" x="17.042" y="6.375"/><use xlink:href="#n" x="19.539" y="6.375"/><use xlink:href="#m" x="102.042" y="6.375"/><use xlink:href="#o" x="104.539" y="6.375"/><use xlink:href="#p" x="188.915" y="6.375"/><use xlink:href="#o" x="273.915" y="6.375"/><use xlink:href="#n" x="358.914" y="6.375"/><path d="M21 264.5V9.5" fill="none" stroke-width="1.25" stroke-linecap="square" stroke="#000" stroke-miterlimit="10"/><path d="M21 264.5h2.5m-2.5-5.313h2.5m-2.5-5.312h2.5m-2.5-5.313h2.5M21 243.25h5m-5-5.313h2.5m-2.5-5.312h2.5m-2.5-5.313h2.5M21 222h2.5m-2.5-5.313h2.5m-2.5-5.312h2.5m-2.5-5.313h2.5M21 200.75h2.5m-2.5-5.313h2.5m-2.5-5.312h5m-5-5.313h2.5M21 179.5h2.5m-2.5-5.313h2.5m-2.5-5.312h2.5m-2.5-5.313h2.5M21 158.25h2.5m-2.5-5.313h2.5m-2.5-5.312h2.5m-2.5-5.313h2.5M21 137h5m-5-5.313h2.5m-2.5-5.312h2.5m-2.5-5.313h2.5M21 115.75h2.5m-2.5-5.313h2.5m-2.5-5.312h2.5M21 99.812h2.5M21 94.5h2.5M21 89.187h2.5M21 83.876h5m-5-5.313h2.5M21 73.25h2.5M21 67.937h2.5M21 62.626h2.5M21 57.312h2.5M21 52h2.5M21 46.687h2.5M21 41.376h2.5M21 36.062h2.5M21 30.75h5m-5-5.313h2.5M21 20.125h2.5M21 14.812h2.5M21 9.5h2.5" fill="none" stroke-width=".625" stroke="#000" stroke-miterlimit="10"/><use xlink:href="#p" x="-.469" y="247"/><use xlink:href="#q" x="3.701" y="247"/><use xlink:href="#p" x="5.786" y="247"/><use xlink:href="#p" x="9.956" y="247"/><use xlink:href="#p" x="-.469" y="193.25"/><use xlink:href="#q" x="3.701" y="193.25"/><use xlink:href="#n" x="5.786" y="193.25"/><use xlink:href="#r" x="9.956" y="193.25"/><use xlink:href="#p" x="-.469" y="140.125"/><use xlink:href="#q" x="3.701" y="140.125"/><use xlink:href="#r" x="5.786" y="140.125"/><use xlink:href="#p" x="9.956" y="140.125"/><use xlink:href="#p" x="-.469" y="87"/><use xlink:href="#q" x="3.701" y="87"/><use xlink:href="#s" x="5.786" y="87"/><use xlink:href="#r" x="9.956" y="87"/><use xlink:href="#o" x="-.469" y="33.875"/><use xlink:href="#q" x="3.701" y="33.875"/><use xlink:href="#p" x="5.786" y="33.875"/><use xlink:href="#p" x="9.956" y="33.875"/><path d="M361 264.5V9.5" fill="none" stroke-width="1.25" stroke-linecap="square" stroke="#000" stroke-miterlimit="10"/><path d="M361 264.5h-2.5m2.5-5.313h-2.5m2.5-5.312h-2.5m2.5-5.313h-2.5m2.5-5.312h-5m5-5.313h-2.5m2.5-5.312h-2.5m2.5-5.313h-2.5M361 222h-2.5m2.5-5.313h-2.5m2.5-5.312h-2.5m2.5-5.313h-2.5m2.5-5.312h-2.5m2.5-5.313h-2.5m2.5-5.312h-5m5-5.313h-2.5m2.5-5.312h-2.5m2.5-5.313h-2.5m2.5-5.312h-2.5m2.5-5.313h-2.5m2.5-5.312h-2.5m2.5-5.313h-2.5m2.5-5.312h-2.5m2.5-5.313h-2.5M361 137h-5m5-5.313h-2.5m2.5-5.312h-2.5m2.5-5.313h-2.5m2.5-5.312h-2.5m2.5-5.313h-2.5m2.5-5.312h-2.5m2.5-5.313h-2.5M361 94.5h-2.5m2.5-5.313h-2.5m2.5-5.312h-5m5-5.313h-2.5m2.5-5.312h-2.5m2.5-5.313h-2.5m2.5-5.312h-2.5m2.5-5.313h-2.5M361 52h-2.5m2.5-5.313h-2.5m2.5-5.312h-2.5m2.5-5.313h-2.5m2.5-5.312h-5m5-5.313h-2.5m2.5-5.312h-2.5m2.5-5.313h-2.5M361 9.5h-2.5" fill="none" stroke-width=".625" stroke="#000" stroke-miterlimit="10"/><use xlink:href="#p" x="367.25" y="247"/><use xlink:href="#q" x="371.42" y="247"/><use xlink:href="#p" x="373.505" y="247"/><use xlink:href="#p" x="377.675" y="247"/><use xlink:href="#p" x="367.25" y="193.25"/><use xlink:href="#q" x="371.42" y="193.25"/><use xlink:href="#n" x="373.505" y="193.25"/><use xlink:href="#r" x="377.675" y="193.25"/><use xlink:href="#p" x="367.25" y="140.125"/><use xlink:href="#q" x="371.42" y="140.125"/><use xlink:href="#r" x="373.505" y="140.125"/><use xlink:href="#p" x="377.675" y="140.125"/><use xlink:href="#p" x="367.25" y="87"/><use xlink:href="#q" x="371.42" y="87"/><use xlink:href="#s" x="373.505" y="87"/><use xlink:href="#r" x="377.675" y="87"/><use xlink:href="#o" x="367.25" y="33.875"/><use xlink:href="#q" x="371.42" y="33.875"/><use xlink:href="#p" x="373.505" y="33.875"/><use xlink:href="#p" x="377.675" y="33.875"/><g clip-path="url(#t)"><path d="M21 243.25l85-212.5 85 212.5 85-212.5 85 212.5" fill="none" stroke-width="1.25" stroke-linecap="round" stroke-linejoin="round" stroke="#00008b" stroke-miterlimit="10"/></g></svg>