<svg xmlns="http://www.w3.org/2000/svg" xmlns:xlink="http://www.w3.org/1999/xlink" width="1046.564" height="367.999" viewBox="0 0 784.923 275.999"><defs><clipPath id="O"><path d="M591 269h5v6.5h-5zm0 0"/></clipPath><clipPath id="w"><path d="M.5 82H15v6H.5zm0 0"/></clipPath><clipPath id="T"><path d="M402.426 29H417v6h-14.574zm0 0"/></clipPath><clipPath id="S"><path d="M402.426 82H417v6h-14.574zm0 0"/></clipPath><clipPath id="R"><path d="M402.426 135H417v6h-14.574zm0 0"/></clipPath><clipPath id="Q"><path d="M402.426 188H417v6h-14.574zm0 0"/></clipPath><clipPath id="P"><path d="M402.426 242H417v6h-14.574zm0 0"/></clipPath><clipPath id="a"><path d="M191 10h1v255h-1zm0 0"/></clipPath><clipPath id="b"><path d="M21.5 243h340v2h-340zm0 0"/></clipPath><clipPath id="c"><path d="M21.5 10h.5v255h-.5zm0 0"/></clipPath><clipPath id="d"><path d="M106 10h1v255h-1zm0 0"/></clipPath><clipPath id="e"><path d="M191 10h1v255h-1zm0 0"/></clipPath><clipPath id="f"><path d="M276 10h1v255h-1zm0 0"/></clipPath><clipPath id="g"><path d="M361 10h.5v255h-.5zm0 0"/></clipPath><clipPath id="h"><path d="M21.5 243h340v2h-340zm0 0"/></clipPath><clipPath id="i"><path d="M21.5 190h340v1h-340zm0 0"/></clipPath><clipPath id="j"><path d="M21.5 137h340v1h-340zm0 0"/></clipPath><clipPath id="k"><path d="M21.5 84h340v1h-340zm0 0"/></clipPath><clipPath id="l"><path d="M21.5 30h340v2h-340zm0 0"/></clipPath><clipPath id="p"><path d="M189 269h5v6.5h-5zm0 0"/></clipPath><clipPath id="r"><path d="M.5 242H15v6H.5zm0 0"/></clipPath><clipPath id="t"><path d="M.5 188H15v6H.5zm0 0"/></clipPath><clipPath id="v"><path d="M.5 135H15v6H.5zm0 0"/></clipPath><clipPath id="U"><path d="M423.426 32h340v211h-340zm0 0"/></clipPath><clipPath id="y"><path d="M.5 29H15v6H.5zm0 0"/></clipPath><clipPath id="z"><path d="M368 188h14.5v6H368zm0 0"/></clipPath><clipPath id="A"><path d="M368 82h14.5v6H368zm0 0"/></clipPath><clipPath id="B"><path d="M21.5 41h340v193h-340zm0 0"/></clipPath><clipPath id="C"><path d="M593 10h1v255h-1zm0 0"/></clipPath><clipPath id="D"><path d="M423.426 243h340v2h-340zm0 0"/></clipPath><clipPath id="E"><path d="M423.426 10H424v255h-.574zm0 0"/></clipPath><clipPath id="F"><path d="M508 10h1v255h-1zm0 0"/></clipPath><clipPath id="G"><path d="M593 10h1v255h-1zm0 0"/></clipPath><clipPath id="H"><path d="M678 10h1v255h-1zm0 0"/></clipPath><clipPath id="I"><path d="M763 10h.426v255H763zm0 0"/></clipPath><clipPath id="J"><path d="M423.426 243h340v2h-340zm0 0"/></clipPath><clipPath id="K"><path d="M423.426 190h340v1h-340zm0 0"/></clipPath><clipPath id="L"><path d="M423.426 137h340v1h-340zm0 0"/></clipPath><clipPath id="M"><path d="M423.426 84h340v1h-340zm0 0"/></clipPath><clipPath id="N"><path d="M423.426 30h340v2h-340zm0 0"/></clipPath><symbol overflow="visible" id="n"><path d="M3.797-.656H1c.063-.438.313-.703.953-1.094l.75-.406c.75-.406 1.125-.953 1.125-1.594 0-.453-.172-.86-.484-1.14-.328-.298-.719-.423-1.219-.423-.672 0-1.172.235-1.469.688-.187.281-.265.61-.281 1.156h.656c.032-.36.078-.578.157-.75.171-.328.515-.515.921-.515.594 0 1.047.421 1.047.984 0 .422-.25.781-.719 1.063l-.687.39C.64-1.672.312-1.172.25 0h3.547zm0 0"/></symbol><symbol overflow="visible" id="x"><path d="M3.906-5.313H.344v.641h2.875C1.953-2.859 1.438-1.75 1.03 0h.703c.297-1.703.97-3.172 2.172-4.766zm0 0"/></symbol><symbol overflow="visible" id="u"><path d="M3.563-5.313H.828L.422-2.421h.61c.312-.375.562-.5.984-.5.703 0 1.156.485 1.156 1.281 0 .766-.438 1.235-1.156 1.235-.579 0-.938-.297-1.094-.906H.266c.093.437.156.656.312.843.313.406.844.64 1.453.64 1.063 0 1.813-.78 1.813-1.905 0-1.047-.688-1.766-1.719-1.766-.375 0-.672.094-.984.313l.218-1.485h2.204zm0 0"/></symbol><symbol overflow="visible" id="s"><path d="M1.438-.781H.655V0h.781zm0 0"/></symbol><symbol overflow="visible" id="q"><path d="M2.063-5.313c-.5 0-.938.22-1.22.579C.5-4.266.329-3.563.329-2.578c0 1.797.594 2.75 1.734 2.75 1.126 0 1.735-.953 1.735-2.703 0-1.031-.156-1.719-.516-2.203-.281-.375-.719-.579-1.219-.579zm0 .579c.718 0 1.062.718 1.062 2.14 0 1.516-.344 2.219-1.078 2.219C1.344-.375 1-1.109 1-2.563c0-1.453.344-2.171 1.063-2.171zm0 0"/></symbol><symbol overflow="visible" id="o"><path d="M1.938-3.781V0h.671v-5.313h-.437c-.235.813-.39.922-1.406 1.047v.485zm0 0"/></symbol><symbol overflow="visible" id="m"><path d="M2.125-2.344H.344v.547h1.781zm0 0"/></symbol></defs><g clip-path="url(#a)"><path d="M191.5 265V10" fill="none" stroke-width=".625" stroke-linecap="round" stroke="#bfbfbf" stroke-miterlimit="10"/></g><g clip-path="url(#b)"><path d="M21.5 243.75h340" fill="none" stroke-width=".625" stroke-linecap="round" stroke="#bfbfbf" stroke-miterlimit="10"/></g><g clip-path="url(#c)"><path d="M21.5 265V10" fill="none" stroke-width=".625" stroke-linecap="round" stroke="#bfbfbf" stroke-dasharray="12.5,18.75" stroke-miterlimit="10"/></g><g clip-path="url(#d)"><path d="M106.5 265V10" fill="none" stroke-width=".625" stroke-linecap="round" stroke="#bfbfbf" stroke-dasharray="12.5,18.75" stroke-miterlimit="10"/></g><g clip-path="url(#e)"><path d="M191.5 265V10" fill="none" stroke-width=".625" stroke-linecap="round" stroke="#bfbfbf" stroke-dasharray="12.5,18.75" stroke-miterlimit="10"/></g><g clip-path="url(#f)"><path d="M276.5 265V10" fill="none" stroke-width=".625" stroke-linecap="round" stroke="#bfbfbf" stroke-dasharray="12.5,18.75" stroke-miterlimit="10"/></g><g clip-path="url(#g)"><path d="M361.5 265V10" fill="none" stroke-width=".625" stroke-linecap="round" stroke="#bfbfbf" stroke-dasharray="12.5,18.75" stroke-miterlimit="10"/></g><g clip-path="url(#h)"><path d="M21.5 243.75h340" fill="none" stroke-width=".625" stroke-linecap="round" stroke="#bfbfbf" stroke-dasharray="12.5,18.75" stroke-miterlimit="10"/></g><g clip-path="url(#i)"><path d="M21.5 190.625h340" fill="none" stroke-width=".625" stroke-linecap="round" stroke="#bfbfbf" stroke-dasharray="12.5,18.75" stroke-miterlimit="10"/></g><g clip-path="url(#j)"><path d="M21.5 137.5h340" fill="none" stroke-width=".625" stroke-linecap="round" stroke="#bfbfbf" stroke-dasharray="12.5,18.75" stroke-miterlimit="10"/></g><g clip-path="url(#k)"><path d="M21.5 84.375h340" fill="none" stroke-width=".625" stroke-linecap="round" stroke="#bfbfbf" stroke-dasharray="12.5,18.75" stroke-miterlimit="10"/></g><g clip-path="url(#l)"><path d="M21.5 31.25h340" fill="none" stroke-width=".625" stroke-linecap="round" stroke="#bfbfbf" stroke-dasharray="12.5,18.75" stroke-miterlimit="10"/></g><path d="M21.5 265h340" fill="none" stroke-width="1.25" stroke-linecap="square" stroke="#000" stroke-miterlimit="10"/><path d="M21.5 265v-5m8.5 5v-2.5m8.5 2.5v-2.5M47 265v-2.5m8.5 2.5v-2.5M64 265v-2.5m8.5 2.5v-2.5M81 265v-2.5m8.5 2.5v-2.5M98 265v-2.5m8.5 2.5v-5m8.5 5v-2.5m8.5 2.5v-2.5m8.5 2.5v-2.5m8.5 2.5v-2.5m8.5 2.5v-2.5m8.5 2.5v-2.5m8.5 2.5v-2.5m8.5 2.5v-2.5m8.5 2.5v-2.5m8.5 2.5v-5m8.5 5v-2.5m8.5 2.5v-2.5m8.5 2.5v-2.5m8.5 2.5v-2.5m8.5 2.5v-2.5m8.5 2.5v-2.5m8.5 2.5v-2.5m8.5 2.5v-2.5m8.5 2.5v-2.5m8.5 2.5v-5m8.5 5v-2.5m8.5 2.5v-2.5m8.5 2.5v-2.5m8.5 2.5v-2.5m8.5 2.5v-2.5m8.5 2.5v-2.5m8.5 2.5v-2.5m8.5 2.5v-2.5m8.5 2.5v-2.5m8.5 2.5v-5" fill="none" stroke-width=".625" stroke="#000" stroke-miterlimit="10"/><use xlink:href="#m" x="17.542" y="274.999"/><use xlink:href="#n" x="20.039" y="274.999"/><use xlink:href="#m" x="102.542" y="274.999"/><use xlink:href="#o" x="105.039" y="274.999"/><g clip-path="url(#p)"><use xlink:href="#q" x="189.415" y="274.999"/></g><use xlink:href="#o" x="274.415" y="274.999"/><use xlink:href="#n" x="359.414" y="274.999"/><path d="M21.5 10h340" fill="none" stroke-width="1.25" stroke-linecap="square" stroke="#000" stroke-miterlimit="10"/><path d="M21.5 10v5m8.5-5v2.5m8.5-2.5v2.5M47 10v2.5m8.5-2.5v2.5M64 10v2.5m8.5-2.5v2.5M81 10v2.5m8.5-2.5v2.5M98 10v2.5m8.5-2.5v5m8.5-5v2.5m8.5-2.5v2.5M132 10v2.5m8.5-2.5v2.5M149 10v2.5m8.5-2.5v2.5M166 10v2.5m8.5-2.5v2.5M183 10v2.5m8.5-2.5v5m8.5-5v2.5m8.5-2.5v2.5M217 10v2.5m8.5-2.5v2.5M234 10v2.5m8.5-2.5v2.5M251 10v2.5m8.5-2.5v2.5M268 10v2.5m8.5-2.5v5m8.5-5v2.5m8.5-2.5v2.5M302 10v2.5m8.5-2.5v2.5M319 10v2.5m8.5-2.5v2.5M336 10v2.5m8.5-2.5v2.5M353 10v2.5m8.5-2.5v5" fill="none" stroke-width=".625" stroke="#000" stroke-miterlimit="10"/><use xlink:href="#m" x="17.542" y="6.874"/><use xlink:href="#n" x="20.039" y="6.874"/><use xlink:href="#m" x="102.542" y="6.874"/><use xlink:href="#o" x="105.039" y="6.874"/><use xlink:href="#q" x="189.415" y="6.874"/><use xlink:href="#o" x="274.415" y="6.874"/><use xlink:href="#n" x="359.414" y="6.874"/><path d="M21.5 265V10" fill="none" stroke-width="1.25" stroke-linecap="square" stroke="#000" stroke-miterlimit="10"/><path d="M21.5 265H24m-2.5-5.313H24m-2.5-5.312H24m-2.5-5.313H24m-2.5-5.312h5m-5-5.313H24m-2.5-5.312H24m-2.5-5.313H24m-2.5-5.312H24m-2.5-5.313H24m-2.5-5.312H24m-2.5-5.313H24m-2.5-5.312H24m-2.5-5.313H24m-2.5-5.312h5m-5-5.313H24M21.5 180H24m-2.5-5.313H24m-2.5-5.312H24m-2.5-5.313H24m-2.5-5.312H24m-2.5-5.313H24m-2.5-5.312H24m-2.5-5.313H24m-2.5-5.312h5m-5-5.313H24m-2.5-5.312H24m-2.5-5.313H24m-2.5-5.312H24m-2.5-5.313H24m-2.5-5.312H24m-2.5-5.313H24M21.5 95H24m-2.5-5.313H24m-2.5-5.312h5m-5-5.313H24m-2.5-5.312H24m-2.5-5.312H24m-2.5-5.313H24m-2.5-5.312H24M21.5 52.5H24m-2.5-5.312H24m-2.5-5.313H24m-2.5-5.312H24m-2.5-5.313h5m-5-5.312H24m-2.5-5.313H24m-2.5-5.312H24M21.5 10H24" fill="none" stroke-width=".625" stroke="#000" stroke-miterlimit="10"/><g clip-path="url(#r)"><use xlink:href="#q" x=".031" y="247.499"/><use xlink:href="#s" x="4.201" y="247.499"/><use xlink:href="#q" x="6.286" y="247.499"/><use xlink:href="#q" x="10.456" y="247.499"/></g><g clip-path="url(#t)"><use xlink:href="#q" x=".031" y="193.749"/><use xlink:href="#s" x="4.201" y="193.749"/><use xlink:href="#n" x="6.286" y="193.749"/><use xlink:href="#u" x="10.456" y="193.749"/></g><g clip-path="url(#v)"><use xlink:href="#q" x=".031" y="140.624"/><use xlink:href="#s" x="4.201" y="140.624"/><use xlink:href="#u" x="6.286" y="140.624"/><use xlink:href="#q" x="10.456" y="140.624"/></g><g clip-path="url(#w)"><use xlink:href="#q" x=".031" y="87.499"/><use xlink:href="#s" x="4.201" y="87.499"/><use xlink:href="#x" x="6.286" y="87.499"/><use xlink:href="#u" x="10.456" y="87.499"/></g><g clip-path="url(#y)"><use xlink:href="#o" x=".031" y="34.374"/><use xlink:href="#s" x="4.201" y="34.374"/><use xlink:href="#q" x="6.286" y="34.374"/><use xlink:href="#q" x="10.456" y="34.374"/></g><path d="M361.5 265V10" fill="none" stroke-width="1.25" stroke-linecap="square" stroke="#000" stroke-miterlimit="10"/><path d="M361.5 265H359m2.5-5.313H359m2.5-5.312H359m2.5-5.313H359m2.5-5.312h-5m5-5.313H359m2.5-5.312H359m2.5-5.313H359m2.5-5.312H359m2.5-5.313H359m2.5-5.312H359m2.5-5.313H359m2.5-5.312H359m2.5-5.313H359m2.5-5.312h-5m5-5.313H359m2.5-5.312H359m2.5-5.313H359m2.5-5.312H359m2.5-5.313H359m2.5-5.312H359m2.5-5.313H359m2.5-5.312H359m2.5-5.313H359m2.5-5.312h-5m5-5.313H359m2.5-5.312H359m2.5-5.313H359m2.5-5.312H359m2.5-5.313H359m2.5-5.312H359m2.5-5.313H359M361.5 95H359m2.5-5.313H359m2.5-5.312h-5m5-5.313H359m2.5-5.312H359m2.5-5.312H359m2.5-5.313H359m2.5-5.312H359m2.5-5.313H359m2.5-5.312H359m2.5-5.313H359m2.5-5.312H359m2.5-5.313h-5m5-5.312H359m2.5-5.313H359m2.5-5.312H359M361.5 10H359" fill="none" stroke-width=".625" stroke="#000" stroke-miterlimit="10"/><use xlink:href="#q" x="367.75" y="247.499"/><use xlink:href="#s" x="371.92" y="247.499"/><use xlink:href="#q" x="374.005" y="247.499"/><use xlink:href="#q" x="378.175" y="247.499"/><g clip-path="url(#z)"><use xlink:href="#q" x="367.75" y="193.749"/><use xlink:href="#s" x="371.92" y="193.749"/><use xlink:href="#n" x="374.005" y="193.749"/><use xlink:href="#u" x="378.175" y="193.749"/></g><use xlink:href="#q" x="367.75" y="140.624"/><use xlink:href="#s" x="371.92" y="140.624"/><use xlink:href="#u" x="374.005" y="140.624"/><use xlink:href="#q" x="378.175" y="140.624"/><g clip-path="url(#A)"><use xlink:href="#q" x="367.75" y="87.499"/><use xlink:href="#s" x="371.92" y="87.499"/><use xlink:href="#x" x="374.005" y="87.499"/><use xlink:href="#u" x="378.175" y="87.499"/></g><use xlink:href="#o" x="367.75" y="34.374"/><use xlink:href="#s" x="371.92" y="34.374"/><use xlink:href="#q" x="374.005" y="34.374"/><use xlink:href="#q" x="378.175" y="34.374"/><g clip-path="url(#B)"><path d="M21.5 233.191l.625-.046.625-.137.625-.23.625-.321.625-.41.625-.496.625-.586.625-.672.625-.758.625-.84.625-.918.625-.996.625-1.07.625-1.145.625-1.214.625-1.282.625-1.343.625-1.403.625-1.46.625-1.512.625-1.563.625-1.61.625-1.652.625-1.687.625-1.727.625-1.754.625-1.78.625-1.81.625-1.828.625-1.843.625-1.856.625-1.863 1.875-5.625.625-1.871.625-1.867.625-1.86.625-1.844.625-1.835.625-1.82.625-1.802.625-1.785.625-1.761.625-1.743.625-1.718.625-1.696.625-1.672.625-1.644.625-1.621.625-1.598.625-1.574.625-1.547.625-1.523.625-1.5.625-1.477.625-1.457.625-1.437.625-1.414.625-1.403.625-1.383.625-1.37.625-1.356.625-1.352 1.25-2.672.625-1.328L64 137.5l1.25-2.656.625-1.332.625-1.34.625-1.348.625-1.36.625-1.366.625-1.387.625-1.398.625-1.418.625-1.438.625-1.453.625-1.48.625-1.5.625-1.524.625-1.547.625-1.57.625-1.598.625-1.62.625-1.65.625-1.667.625-1.7.625-1.718.625-1.739.625-1.765.625-1.785.625-1.801.625-1.82.625-1.832.625-1.848.625-1.86.625-1.867.625-1.87 1.25-3.75.625-1.872.625-1.867.625-1.856.625-1.843.625-1.828.625-1.805.625-1.785.625-1.754.625-1.727.625-1.687.625-1.653.625-1.605.625-1.566.625-1.512.625-1.461.625-1.402.625-1.344.625-1.281.625-1.211.625-1.145.625-1.07.625-1 .625-.918.625-.836.625-.758.625-.672.625-.586.625-.5.625-.41.625-.32.625-.23.625-.137.625-.047.625.047.625.136.625.23.625.321.625.41.625.5.625.586.625.672.625.758.625.836.625.918.625 1 .625 1.07.625 1.145.625 1.21.625 1.282.625 1.344.625 1.402.625 1.46.625 1.513.625 1.566.625 1.605.625 1.653.625 1.687.625 1.727.625 1.754.625 1.785.625 1.805.625 1.828.625 1.843.625 1.856.625 1.867.625 1.871 1.25 3.75.625 1.871.625 1.867.625 1.86.625 1.848.625 1.832.625 1.82.625 1.8.625 1.786.625 1.765.625 1.739.625 1.718.625 1.7.625 1.668.625 1.648.625 1.621.625 1.598.625 1.57.625 1.547.625 1.523.625 1.5.625 1.48.625 1.454.625 1.438.625 1.418.625 1.398.625 1.387.625 1.367.625 1.36.625 1.347.625 1.34.625 1.332L149 137.5l.625 1.324.625 1.328 1.25 2.672.625 1.352.625 1.355.625 1.371.625 1.383.625 1.403.625 1.414.625 1.437.625 1.457.625 1.477.625 1.5.625 1.523.625 1.547.625 1.574.625 1.598.625 1.62.625 1.645.625 1.672.625 1.696.625 1.718.625 1.743.625 1.761.625 1.785.625 1.801.625 1.82.625 1.837.625 1.843.625 1.86.625 1.867.625 1.87 1.875 5.626.625 1.863.625 1.856.625 1.843.625 1.829.625 1.808.625 1.781.625 1.754.625 1.727.625 1.687.625 1.653.625 1.61.625 1.562.625 1.511.625 1.461.625 1.403.625 1.343.625 1.282.625 1.214.625 1.145.625 1.07.625.996.625.918.625.84.625.758.625.672.625.586.625.496.625.41.625.32.625.23.625.138.625.046.625-.046.625-.137.625-.23.625-.321.625-.41.625-.496.625-.586.625-.672.625-.758.625-.84.625-.918.625-.996.625-1.07.625-1.145.625-1.214.625-1.282.625-1.343.625-1.403.625-1.46.625-1.512.625-1.563.625-1.61.625-1.652.625-1.687.625-1.727.625-1.754.625-1.78.625-1.81.625-1.828.625-1.843.625-1.856.625-1.863 1.875-5.625.625-1.871.625-1.867.625-1.86.625-1.844.625-1.835.625-1.82.625-1.802.625-1.785.625-1.761.625-1.743.625-1.718.625-1.696.625-1.672.625-1.644.625-1.621.625-1.598.625-1.574.625-1.547.625-1.523.625-1.5.625-1.477.625-1.457.625-1.437.625-1.414.625-1.403.625-1.383.625-1.37.625-1.356.625-1.352 1.25-2.672.625-1.328.625-1.324 1.25-2.656.625-1.332.625-1.34.625-1.348.625-1.36.625-1.366.625-1.387.625-1.398.625-1.418.625-1.438.625-1.453.625-1.48.625-1.5.625-1.524.625-1.547.625-1.57.625-1.598.625-1.62.625-1.65.625-1.667.625-1.7.625-1.718.625-1.739.625-1.765.625-1.785.625-1.801.625-1.82.625-1.832.625-1.848.625-1.86.625-1.867.625-1.87 1.25-3.75.625-1.872.625-1.867.625-1.856.625-1.843.625-1.828.625-1.805.625-1.785.625-1.754.625-1.727.625-1.687.625-1.653.625-1.605.625-1.566.625-1.512.625-1.461.625-1.402.625-1.344.625-1.281.625-1.211.625-1.145.625-1.07.625-1 .625-.918.625-.836.625-.758.625-.672.625-.586.625-.5.625-.41.625-.32.625-.23.625-.137.625-.047.625.047.625.136.625.23.625.321.625.41.625.5.625.586.625.672.625.758.625.836.625.918.625 1 .625 1.07.625 1.145.625 1.21.625 1.282.625 1.344.625 1.402.625 1.46.625 1.513.625 1.566.625 1.605.625 1.653.625 1.687.625 1.727.625 1.754.625 1.785.625 1.805.625 1.828.625 1.843.625 1.856.625 1.867.625 1.871 1.25 3.75.625 1.871.625 1.867.625 1.86.625 1.848.625 1.832.625 1.82.625 1.8.625 1.786.625 1.765.625 1.739.625 1.718.625 1.7.625 1.668.625 1.648.625 1.621.625 1.598.625 1.57.625 1.547.625 1.523.625 1.5.625 1.48.625 1.454.625 1.438.625 1.418.625 1.398.625 1.387.625 1.367.625 1.36.625 1.347.625 1.34.625 1.332L319 137.5l.625 1.324.625 1.328 1.25 2.672.625 1.352.625 1.355.625 1.371.625 1.383.625 1.403.625 1.414.625 1.437.625 1.457.625 1.477.625 1.5.625 1.523.625 1.547.625 1.574.625 1.598.625 1.62.625 1.645.625 1.672.625 1.696.625 1.718.625 1.743.625 1.761.625 1.785.625 1.801.625 1.82.625 1.837.625 1.843.625 1.86.625 1.867.625 1.87 1.875 5.626.625 1.863.625 1.856.625 1.843.625 1.829.625 1.808.625 1.781.625 1.754.625 1.727.625 1.687.625 1.653.625 1.61.625 1.562.625 1.511.625 1.461.625 1.403.625 1.343.625 1.282.625 1.214.625 1.145.625 1.07.625.996.625.918.625.84.625.758.625.672.625.586.625.496.625.41.625.32.625.23.625.138.625.046" fill="none" stroke-width="1.25" stroke-linecap="round" stroke-linejoin="round" stroke="#00008b" stroke-miterlimit="10"/></g><g clip-path="url(#C)"><path d="M593.426 265V10" fill="none" stroke-width=".625" stroke-linecap="round" stroke="#bfbfbf" stroke-miterlimit="10"/></g><g clip-path="url(#D)"><path d="M423.426 243.75h340" fill="none" stroke-width=".625" stroke-linecap="round" stroke="#bfbfbf" stroke-miterlimit="10"/></g><g clip-path="url(#E)"><path d="M423.426 265V10" fill="none" stroke-width=".625" stroke-linecap="round" stroke="#bfbfbf" stroke-dasharray="12.5,18.75" stroke-miterlimit="10"/></g><g clip-path="url(#F)"><path d="M508.426 265V10" fill="none" stroke-width=".625" stroke-linecap="round" stroke="#bfbfbf" stroke-dasharray="12.5,18.75" stroke-miterlimit="10"/></g><g clip-path="url(#G)"><path d="M593.426 265V10" fill="none" stroke-width=".625" stroke-linecap="round" stroke="#bfbfbf" stroke-dasharray="12.5,18.75" stroke-miterlimit="10"/></g><g clip-path="url(#H)"><path d="M678.426 265V10" fill="none" stroke-width=".625" stroke-linecap="round" stroke="#bfbfbf" stroke-dasharray="12.5,18.75" stroke-miterlimit="10"/></g><g clip-path="url(#I)"><path d="M763.426 265V10" fill="none" stroke-width=".625" stroke-linecap="round" stroke="#bfbfbf" stroke-dasharray="12.5,18.75" stroke-miterlimit="10"/></g><g clip-path="url(#J)"><path d="M423.426 243.75h340" fill="none" stroke-width=".625" stroke-linecap="round" stroke="#bfbfbf" stroke-dasharray="12.5,18.75" stroke-miterlimit="10"/></g><g clip-path="url(#K)"><path d="M423.426 190.625h340" fill="none" stroke-width=".625" stroke-linecap="round" stroke="#bfbfbf" stroke-dasharray="12.5,18.75" stroke-miterlimit="10"/></g><g clip-path="url(#L)"><path d="M423.426 137.5h340" fill="none" stroke-width=".625" stroke-linecap="round" stroke="#bfbfbf" stroke-dasharray="12.5,18.75" stroke-miterlimit="10"/></g><g clip-path="url(#M)"><path d="M423.426 84.375h340" fill="none" stroke-width=".625" stroke-linecap="round" stroke="#bfbfbf" stroke-dasharray="12.5,18.75" stroke-miterlimit="10"/></g><g clip-path="url(#N)"><path d="M423.426 31.25h340" fill="none" stroke-width=".625" stroke-linecap="round" stroke="#bfbfbf" stroke-dasharray="12.5,18.75" stroke-miterlimit="10"/></g><path d="M423.426 265h340" fill="none" stroke-width="1.25" stroke-linecap="square" stroke="#000" stroke-miterlimit="10"/><path d="M423.426 265v-5m8.496 5v-2.5m8.5 2.5v-2.5m8.504 2.5v-2.5m8.5 2.5v-2.5m8.5 2.5v-2.5m8.5 2.5v-2.5m8.496 2.5v-2.5m8.504 2.5v-2.5m8.496 2.5v-2.5m8.504 2.5v-5m8.5 5v-2.5m8.5 2.5v-2.5m8.5 2.5v-2.5m8.5 2.5v-2.5m8.5 2.5v-2.5m8.5 2.5v-2.5m8.5 2.5v-2.5m8.5 2.5v-2.5m8.5 2.5v-2.5m8.5 2.5v-5m8.5 5v-2.5m8.5 2.5v-2.5m8.5 2.5v-2.5m8.5 2.5v-2.5m8.5 2.5v-2.5m8.5 2.5v-2.5m8.5 2.5v-2.5m8.5 2.5v-2.5m8.5 2.5v-2.5m8.5 2.5v-5m8.5 5v-2.5m8.5 2.5v-2.5m8.5 2.5v-2.5m8.5 2.5v-2.5m8.5 2.5v-2.5m8.5 2.5v-2.5m8.5 2.5v-2.5m8.5 2.5v-2.5m8.5 2.5v-2.5m8.5 2.5v-5" fill="none" stroke-width=".625" stroke="#000" stroke-miterlimit="10"/><use xlink:href="#m" x="419.466" y="274.999"/><use xlink:href="#n" x="421.963" y="274.999"/><use xlink:href="#m" x="504.466" y="274.999"/><use xlink:href="#o" x="506.963" y="274.999"/><g clip-path="url(#O)"><use xlink:href="#q" x="591.339" y="274.999"/></g><use xlink:href="#o" x="676.339" y="274.999"/><use xlink:href="#n" x="761.338" y="274.999"/><path d="M423.426 10h340" fill="none" stroke-width="1.25" stroke-linecap="square" stroke="#000" stroke-miterlimit="10"/><path d="M423.426 10v5m8.496-5v2.5m8.5-2.5v2.5m8.504-2.5v2.5m8.5-2.5v2.5m8.5-2.5v2.5m8.5-2.5v2.5m8.496-2.5v2.5m8.504-2.5v2.5m8.496-2.5v2.5m8.504-2.5v5m8.5-5v2.5m8.5-2.5v2.5m8.5-2.5v2.5m8.5-2.5v2.5m8.5-2.5v2.5m8.5-2.5v2.5m8.5-2.5v2.5m8.5-2.5v2.5m8.5-2.5v2.5m8.5-2.5v5m8.5-5v2.5m8.5-2.5v2.5m8.5-2.5v2.5m8.5-2.5v2.5m8.5-2.5v2.5m8.5-2.5v2.5m8.5-2.5v2.5m8.5-2.5v2.5m8.5-2.5v2.5m8.5-2.5v5m8.5-5v2.5m8.5-2.5v2.5m8.5-2.5v2.5m8.5-2.5v2.5m8.5-2.5v2.5m8.5-2.5v2.5m8.5-2.5v2.5m8.5-2.5v2.5m8.5-2.5v2.5m8.5-2.5v5" fill="none" stroke-width=".625" stroke="#000" stroke-miterlimit="10"/><use xlink:href="#m" x="419.466" y="6.874"/><use xlink:href="#n" x="421.963" y="6.874"/><use xlink:href="#m" x="504.466" y="6.874"/><use xlink:href="#o" x="506.963" y="6.874"/><use xlink:href="#q" x="591.339" y="6.874"/><use xlink:href="#o" x="676.339" y="6.874"/><use xlink:href="#n" x="761.338" y="6.874"/><path d="M423.426 265V10" fill="none" stroke-width="1.25" stroke-linecap="square" stroke="#000" stroke-miterlimit="10"/><path d="M423.426 265h2.5m-2.5-5.313h2.5m-2.5-5.312h2.5m-2.5-5.313h2.5m-2.5-5.312h5m-5-5.313h2.5m-2.5-5.312h2.5m-2.5-5.313h2.5m-2.5-5.312h2.5m-2.5-5.313h2.5m-2.5-5.312h2.5m-2.5-5.313h2.5m-2.5-5.312h2.5m-2.5-5.313h2.5m-2.5-5.312h5m-5-5.313h2.5m-2.5-5.312h2.5m-2.5-5.313h2.5m-2.5-5.312h2.5m-2.5-5.313h2.5m-2.5-5.312h2.5m-2.5-5.313h2.5m-2.5-5.312h2.5m-2.5-5.313h2.5m-2.5-5.312h5m-5-5.313h2.5m-2.5-5.312h2.5m-2.5-5.313h2.5m-2.5-5.312h2.5m-2.5-5.313h2.5m-2.5-5.312h2.5m-2.5-5.313h2.5m-2.5-5.312h2.5m-2.5-5.313h2.5m-2.5-5.312h5m-5-5.313h2.5m-2.5-5.312h2.5m-2.5-5.312h2.5m-2.5-5.313h2.5m-2.5-5.312h2.5m-2.5-5.313h2.5m-2.5-5.312h2.5m-2.5-5.313h2.5m-2.5-5.312h2.5m-2.5-5.313h5m-5-5.312h2.5m-2.5-5.313h2.5m-2.5-5.312h2.5m-2.5-5.313h2.5" fill="none" stroke-width=".625" stroke="#000" stroke-miterlimit="10"/><g clip-path="url(#P)"><use xlink:href="#q" x="401.955" y="247.499"/><use xlink:href="#s" x="406.125" y="247.499"/><use xlink:href="#q" x="408.21" y="247.499"/><use xlink:href="#q" x="412.38" y="247.499"/></g><g clip-path="url(#Q)"><use xlink:href="#q" x="401.955" y="193.749"/><use xlink:href="#s" x="406.125" y="193.749"/><use xlink:href="#n" x="408.21" y="193.749"/><use xlink:href="#u" x="412.38" y="193.749"/></g><g clip-path="url(#R)"><use xlink:href="#q" x="401.955" y="140.624"/><use xlink:href="#s" x="406.125" y="140.624"/><use xlink:href="#u" x="408.21" y="140.624"/><use xlink:href="#q" x="412.38" y="140.624"/></g><g clip-path="url(#S)"><use xlink:href="#q" x="401.955" y="87.499"/><use xlink:href="#s" x="406.125" y="87.499"/><use xlink:href="#x" x="408.21" y="87.499"/><use xlink:href="#u" x="412.38" y="87.499"/></g><g clip-path="url(#T)"><use xlink:href="#o" x="401.955" y="34.374"/><use xlink:href="#s" x="406.125" y="34.374"/><use xlink:href="#q" x="408.21" y="34.374"/><use xlink:href="#q" x="412.38" y="34.374"/></g><path d="M763.426 265V10" fill="none" stroke-width="1.25" stroke-linecap="square" stroke="#000" stroke-miterlimit="10"/><path d="M763.426 265h-2.5m2.5-5.313h-2.5m2.5-5.312h-2.5m2.5-5.313h-2.5m2.5-5.312h-5m5-5.313h-2.5m2.5-5.312h-2.5m2.5-5.313h-2.5m2.5-5.312h-2.5m2.5-5.313h-2.5m2.5-5.312h-2.5m2.5-5.313h-2.5m2.5-5.312h-2.5m2.5-5.313h-2.5m2.5-5.312h-5m5-5.313h-2.5m2.5-5.312h-2.5m2.5-5.313h-2.5m2.5-5.312h-2.5m2.5-5.313h-2.5m2.5-5.312h-2.5m2.5-5.313h-2.5m2.5-5.312h-2.5m2.5-5.313h-2.5m2.5-5.312h-5m5-5.313h-2.5m2.5-5.312h-2.5m2.5-5.313h-2.5m2.5-5.312h-2.5m2.5-5.313h-2.5m2.5-5.312h-2.5m2.5-5.313h-2.5m2.5-5.312h-2.5m2.5-5.313h-2.5m2.5-5.312h-5m5-5.313h-2.5m2.5-5.312h-2.5m2.5-5.312h-2.5m2.5-5.313h-2.5m2.5-5.312h-2.5m2.5-5.313h-2.5m2.5-5.312h-2.5m2.5-5.313h-2.5m2.5-5.312h-2.5m2.5-5.313h-5m5-5.312h-2.5m2.5-5.313h-2.5m2.5-5.312h-2.5m2.5-5.313h-2.5" fill="none" stroke-width=".625" stroke="#000" stroke-miterlimit="10"/><use xlink:href="#q" x="769.674" y="247.499"/><use xlink:href="#s" x="773.844" y="247.499"/><use xlink:href="#q" x="775.929" y="247.499"/><use xlink:href="#q" x="780.099" y="247.499"/><use xlink:href="#q" x="769.674" y="193.749"/><use xlink:href="#s" x="773.844" y="193.749"/><use xlink:href="#n" x="775.929" y="193.749"/><use xlink:href="#u" x="780.099" y="193.749"/><use xlink:href="#q" x="769.674" y="140.624"/><use xlink:href="#s" x="773.844" y="140.624"/><use xlink:href="#u" x="775.929" y="140.624"/><use xlink:href="#q" x="780.099" y="140.624"/><use xlink:href="#q" x="769.674" y="87.499"/><use xlink:href="#s" x="773.844" y="87.499"/><use xlink:href="#x" x="775.929" y="87.499"/><use xlink:href="#u" x="780.099" y="87.499"/><use xlink:href="#o" x="769.674" y="34.374"/><use xlink:href="#s" x="773.844" y="34.374"/><use xlink:href="#q" x="775.929" y="34.374"/><use xlink:href="#q" x="780.099" y="34.374"/><g clip-path="url(#U)"><path d="M423.426 241.598l.625-.23.625-.669.625-1.062.625-1.39.625-1.63.625-1.773.625-1.84.625-1.824.625-1.762.625-1.672.625-1.57.625-1.485.625-1.433.625-1.41.625-1.422.625-1.461.625-1.52.625-1.574.625-1.629.625-1.66.625-1.668.625-1.656.625-1.625.625-1.582.625-1.54.625-1.507.625-1.484.625-1.48.625-1.493.625-1.52.625-1.554.625-1.59.625-1.613.625-1.633.625-1.63.625-1.616.625-1.59.625-1.563.625-1.535.625-1.512.625-1.5.625-1.507.625-1.52.625-1.543.625-1.566.625-1.594.625-1.61 1.25-3.234.625-1.594.625-1.578.625-1.55.625-1.532.625-1.515.625-1.508.625-1.52.625-1.53.625-1.556.625-1.578.625-1.597.625-1.61.625-1.613.625-1.602.625-1.59.625-1.562.625-1.543.625-1.527.625-1.512.625-1.516.625-1.523.625-1.543.625-1.566.625-1.586.625-1.606 1.25-3.219.625-1.597.625-1.578.625-1.555.625-1.535.625-1.516.625-1.512.625-1.515.625-1.531.625-1.551.625-1.574.625-1.598.625-1.613.625-1.618.625-1.613.625-1.59.625-1.57.625-1.543.625-1.52 1.25-3.007.625-1.512.625-1.531.625-1.567.625-1.59.625-1.617 1.25-3.258.625-1.617.625-1.586.625-1.554.625-1.524.625-1.492.625-1.48.625-1.485.625-1.504.625-1.543.625-1.582.625-1.625.625-1.656.625-1.668.625-1.66.625-1.625.625-1.578.625-1.52.625-1.46.625-1.423.625-1.41.625-1.43.625-1.488.625-1.57.625-1.668.625-1.762.625-1.828.625-1.836.625-1.777.625-1.629.625-1.387.625-1.066.625-.668.625-.23.625.23.625.668.625 1.066.625 1.387.625 1.629.625 1.777.625 1.836.625 1.828.625 1.762.625 1.668.625 1.57.625 1.489.625 1.43.625 1.41.625 1.421.625 1.461.625 1.52.625 1.578.625 1.625.625 1.66.625 1.668.625 1.656.625 1.625.625 1.582.625 1.543.625 1.504.625 1.485.625 1.48.625 1.492.625 1.524.625 1.554.625 1.586.625 1.617 1.25 3.258.625 1.617.625 1.59.625 1.567.625 1.531.625 1.512 1.25 3.007.625 1.52.625 1.543.625 1.57.625 1.59.625 1.613.625 1.618.625 1.613.625 1.598.625 1.574.625 1.55.625 1.532.625 1.515.625 1.512.625 1.516.625 1.535.625 1.555.625 1.578.625 1.597 1.25 3.22.625 1.605.625 1.586.625 1.566.625 1.543.625 1.523.625 1.516.625 1.512.625 1.527.625 1.543.625 1.563.625 1.59.625 1.6.625 1.614.625 1.61.625 1.597.625 1.578.625 1.555.625 1.531.625 1.52.625 1.508.625 1.515.625 1.532.625 1.55.625 1.578.625 1.594 1.25 3.235.625 1.609.625 1.594.625 1.566.625 1.543.625 1.52.625 1.507.625 1.5.625 1.512.625 1.535.625 1.563.625 1.59.625 1.617.625 1.629.625 1.633.625 1.613.625 1.59.625 1.554.625 1.52.625 1.492.625 1.48.625 1.485.625 1.508.625 1.539.625 1.582.625 1.625.625 1.656.625 1.668.625 1.66.625 1.63.625 1.573.625 1.52.625 1.46.625 1.423.625 1.41.625 1.433.625 1.485.625 1.57.625 1.672.625 1.762.625 1.824.625 1.84.625 1.773.625 1.63.625 1.39.625 1.062.625.668.625.23.625-.23.625-.668.625-1.062.625-1.39.625-1.63.625-1.773.625-1.84.625-1.824.625-1.762.625-1.672.625-1.57.625-1.485.625-1.433.625-1.41.625-1.422.625-1.461.625-1.52.625-1.574.625-1.629.625-1.66.625-1.668.625-1.656.625-1.625.625-1.582.625-1.54.625-1.507.625-1.484.625-1.48.625-1.493.625-1.52.625-1.554.625-1.59.625-1.613.625-1.633.625-1.63.625-1.616.625-1.59.625-1.563.625-1.535.625-1.512.625-1.5.625-1.507.625-1.52.625-1.543.625-1.566.625-1.594.625-1.61 1.25-3.234.625-1.594.625-1.578.625-1.55.625-1.532.625-1.515.625-1.508.625-1.52.625-1.53.625-1.556.625-1.578.625-1.597.625-1.61.625-1.613.625-1.602.625-1.59.625-1.562.625-1.543.625-1.527.625-1.512.625-1.516.625-1.523.625-1.543.625-1.566.625-1.586.625-1.606 1.25-3.219.625-1.597.625-1.578.625-1.555.625-1.535.625-1.516.625-1.512.625-1.515.625-1.531.625-1.551.625-1.574.625-1.598.625-1.613.625-1.618.625-1.613.625-1.59.625-1.57.625-1.543.625-1.52 1.25-3.007.625-1.512.625-1.531.625-1.567.625-1.59.625-1.617 1.25-3.258.625-1.617.625-1.586.625-1.554.625-1.524.625-1.492.625-1.48.625-1.485.625-1.504.625-1.543.625-1.582.625-1.625.625-1.656.625-1.668.625-1.66.625-1.625.625-1.578.625-1.52.625-1.46.625-1.423.625-1.41.625-1.43.625-1.488.625-1.57.625-1.668.625-1.762.625-1.828.625-1.836.625-1.777.625-1.629.625-1.387.625-1.066.625-.668.625-.23.625.23.625.668.625 1.066.625 1.387.625 1.629.625 1.777.625 1.836.625 1.828.625 1.762.625 1.668.625 1.57.625 1.489.625 1.43.625 1.41.625 1.421.625 1.461.625 1.52.625 1.578.625 1.625.625 1.66.625 1.668.625 1.656.625 1.625.625 1.582.625 1.543.625 1.504.625 1.485.625 1.48.625 1.492.625 1.524.625 1.554.625 1.586.625 1.617 1.25 3.258.625 1.617.625 1.59.625 1.567.625 1.531.625 1.512 1.25 3.007.625 1.52.625 1.543.625 1.57.625 1.59.625 1.613.625 1.618.625 1.613.625 1.598.625 1.574.625 1.55.625 1.532.625 1.515.625 1.512.625 1.516.625 1.535.625 1.555.625 1.578.625 1.597 1.25 3.22.625 1.605.625 1.586.625 1.566.625 1.543.625 1.523.625 1.516.625 1.512.625 1.527.625 1.543.625 1.563.625 1.59.625 1.6.625 1.614.625 1.61.625 1.597.625 1.578.625 1.555.625 1.531.625 1.52.625 1.508.625 1.515.625 1.532.625 1.55.625 1.578.625 1.594 1.25 3.235.625 1.609.625 1.594.625 1.566.625 1.543.625 1.52.625 1.507.625 1.5.625 1.512.625 1.535.625 1.563.625 1.59.625 1.617.625 1.629.625 1.633.625 1.613.625 1.59.625 1.554.625 1.52.625 1.492.625 1.48.625 1.485.625 1.508.625 1.539.625 1.582.625 1.625.625 1.656.625 1.668.625 1.66.625 1.63.625 1.573.625 1.52.625 1.46.625 1.423.625 1.41.625 1.433.625 1.485.625 1.57.625 1.672.625 1.762.625 1.824.625 1.84.625 1.773.625 1.63.625 1.39.625 1.062.625.668.625.23" fill="none" stroke-width="1.25" stroke-linecap="round" stroke-linejoin="round" stroke="#00008b" stroke-miterlimit="10"/></g></svg>