<svg xmlns="http://www.w3.org/2000/svg" xmlns:xlink="http://www.w3.org/1999/xlink" width="309.741" height="158.617" viewBox="0 0 232.306 118.963"><defs><symbol overflow="visible" id="j"><path d="M3.64-9.031C1.813-7.844.72-5.797.72-3.234c0 2.343 1.14 4.578 2.875 5.78l.156-.202C2.094.906 1.812-.484 1.812-3.281c0-2.781.313-4.219 1.938-5.547zm0 0"/></symbol><symbol overflow="visible" id="m"><path d="M.5-9.031l-.125.203C2.015-7.5 2.328-6.063 2.328-3.281c0 2.797-.281 4.187-1.953 5.625l.156.203c1.75-1.203 2.89-3.438 2.89-5.781 0-2.563-1.108-4.61-2.921-5.797zm0 0"/></symbol><symbol overflow="visible" id="r"><path d="M7.219-2.875v-.703H.78v.703zm0 0"/></symbol><symbol overflow="visible" id="k"><path d="M5.563-4.375c0-2.625-.782-3.86-2.422-3.86-1.844 0-2.797 1.47-2.797 4.36 0 1.406.25 2.61.672 3.188.421.593 1.093.921 1.828.921 1.812 0 2.719-1.546 2.719-4.609zm-1.016.594c0 2.547-.453 3.61-1.547 3.61-1.156 0-1.656-1.22-1.656-4.126 0-2.531.453-3.516 1.578-3.516 1.172 0 1.625 1.172 1.625 4.032zm0 0"/></symbol><symbol overflow="visible" id="t"><path d="M5 .031v-.36l-.625-.03c-.656-.032-.781-.172-.781-.782v-7.093l-.156-.063c-.782.406-1.626.766-2.72 1.156l.079.5h.125l1.547-.687.031-.016c.063 0 .094.11.094.407v5.796c0 .61-.125.75-.781.782l-.672.03v.36C1.812.016 2.469 0 3.125 0c.61 0 1.25.016 1.875.031zm0 0"/></symbol><symbol overflow="visible" id="u"><path d="M3.234.031v-.36l-.546-.03c-.407-.016-.438-.11-.438-.86v-4.343l-.11-.047a7.328 7.328 0 01-1.859.5v.328H.72c.469 0 .531.078.531.875v2.687c0 .75-.047.844-.453.86L.25-.33v.36c.5-.014 1-.03 1.5-.03s.984.016 1.484.031zm-.89-7.11c0-.343-.235-.593-.594-.593-.36 0-.61.234-.61.594s.25.594.61.594.594-.235.594-.594zm0 0"/></symbol><symbol overflow="visible" id="v"><path d="M4.672-1.766c0-.375-.094-.656-.328-.89-.313-.313-.703-.438-1.766-.64-.969-.188-1.297-.438-1.297-.985 0-.594.422-.938 1.14-.938.813 0 1.423.422 1.423.985v.28h.328c.016-.702.031-.983.062-1.358-.64-.204-1.062-.297-1.562-.297-1.375 0-2.235.656-2.235 1.734 0 .578.266.984.813 1.234.328.141.969.329 1.781.516.531.11.766.375.766.828 0 .64-.61 1.094-1.453 1.094-.875 0-1.5-.422-1.5-1.016v-.484h-.36C.484-.891.454-.531.36-.047.984.156 1.453.234 2 .234c1.563 0 2.672-.828 2.672-2zm0 0"/></symbol><symbol overflow="visible" id="w"><path d="M4.938-.547l-.125-.187c-.438.25-.813.359-1.25.359-1.329 0-2.204-1.031-2.204-2.61 0-1.28.594-2 1.672-2 .531 0 1.11.235 1.313.532l.093.734h.329c0-.547.062-1.031.171-1.469-.484-.28-.89-.421-1.39-.421-.578 0-1.235.234-1.953.687C.75-4.406.312-3.562.312-2.516.313-.89 1.454.234 3.047.234c.625 0 1.515-.218 1.64-.406zm0 0"/></symbol><symbol overflow="visible" id="x"><path d="M6.14-2.828c0-1.625-1.171-2.781-2.812-2.781C1.594-5.61.375-4.375.375-2.594.375-.906 1.453.234 2.985.234c1.843 0 3.156-1.28 3.156-3.062zm-1.109.437c0 1.375-.61 2.235-1.578 2.235C2.281-.156 1.5-1.296 1.5-3c0-1.438.563-2.219 1.625-2.219 1.094 0 1.906 1.203 1.906 2.828zm0 0"/></symbol><symbol overflow="visible" id="y"><path d="M6.844.031v-.36l-.5-.03c-.407-.016-.438-.094-.438-.86V-3.53c0-1.39-.656-2.078-2-2.078-.437 0-.687.093-.937.296l-.906.797v-1.046l-.11-.047c-.61.25-1.234.421-1.875.5v.328h.453c.469 0 .516.078.516.875v2.687c0 .75-.031.844-.438.86l-.53.03v.36C.561.016 1.062 0 1.546 0c.5 0 1 .016 1.484.031v-.36L2.5-.358c-.406-.016-.438-.11-.438-.86V-3.75c0-.547.782-1.125 1.516-1.125.797 0 1.328.594 1.328 1.516V.03C5.22.016 5.531 0 5.844 0c.343 0 .656.016 1 .031zm0 0"/></symbol><symbol overflow="visible" id="z"><path d="M3.813-5.219l-1.641.078v-.453c0-.5.047-.937.14-1.703l-.156-.125c-.281.172-.64.328-1.015.453.046.36.046.578.046.938v.843l-.921.422v.25l.906-.046v3.437c0 .89.39 1.266 1.312 1.266.282 0 .563-.063.641-.141l.563-.64-.157-.204c-.297.172-.469.235-.703.235-.469 0-.656-.235-.656-.829v-3.125h1.531zm0 0"/></symbol><symbol overflow="visible" id="A"><path d="M5.625.031v-.36l-.469-.015c-.281-.015-.328-.11-.328-.703v-2.187c0-1.735-.5-2.375-1.89-2.375-.516 0-.985.14-1.438.406l-.64.39v.766l.312.094.156-.375c.234-.563.375-.64.922-.64 1.125 0 1.594.437 1.625 1.53l-1.188.204C1.063-2.922.376-2.36.376-1.328.375-.391.938.14 1.891.14c.218 0 .421-.032.5-.094l1.484-1.03L3.812.03C4.125.016 4.439 0 4.75 0c.297 0 .578.016.875.031zm-1.75-1.515c-.344.5-1.11.953-1.563.953-.484 0-.906-.453-.906-.969 0-.438.25-.86.61-1.078.296-.188.953-.344 1.859-.485zm0 0"/></symbol><symbol overflow="visible" id="B"><path d="M3.234.031v-.36l-.546-.03c-.407-.016-.438-.11-.438-.86v-7.36l-.11-.093c-.53.203-.921.297-1.859.438v.328h.656c.22 0 .313.14.313.5v6.187c0 .75-.047.844-.453.86L.25-.33v.36c.5-.014 1-.03 1.5-.03s.984.016 1.484.031zm0 0"/></symbol><symbol overflow="visible" id="C"><path d="M6.5-5.016l-.047-.14-1.703.047c-.438-.36-.86-.5-1.453-.5-.531 0-1.14.171-1.625.453C1-4.766.656-4.188.656-3.453c0 .89.547 1.5 1.438 1.594l-.953.718c-.11.188-.172.344-.172.516 0 .344.219.531.781.703L.719.641c-.172.093-.344.53-.344.906 0 1.078 1.078 1.828 2.594 1.828 1.797 0 3.219-1.125 3.219-2.594 0-.86-.563-1.453-1.407-1.453H2.875c-.625 0-.922-.14-.922-.469 0-.156.11-.28.406-.546.079-.063.11-.079.157-.125.109 0 .187.015.28.015.517 0 1.142-.219 1.642-.562.53-.407.796-.875.796-1.516 0-.234-.03-.39-.125-.64h1.094zm-2.266 1.5c0 .782-.5 1.313-1.234 1.313-.797 0-1.344-.625-1.344-1.531 0-.922.453-1.47 1.219-1.47.813 0 1.36.673 1.36 1.688zM5.25 1.22c0 1.031-.953 1.797-2.203 1.797-1.031 0-1.75-.61-1.75-1.5 0-.532.312-1.016.781-1.235.188-.078.531-.11 1.36-.11C4.78.172 5.25.438 5.25 1.22zm0 0"/></symbol><symbol overflow="visible" id="D"><path d="M6.844.031v-.36l-.5-.03c-.407-.016-.438-.094-.438-.86V-3.53c0-1.39-.656-2.078-2-2.078-.437 0-.687.093-.937.296l-.906.797v-4.062l-.11-.094c-.531.203-.922.297-1.875.438v.328H.75c.219 0 .297.14.297.5v6.187c0 .75-.031.844-.438.86l-.53.03v.36C.561.016 1.062 0 1.546 0c.5 0 1 .016 1.484.031v-.36L2.5-.358c-.406-.016-.438-.11-.438-.86V-3.75c0-.547.782-1.125 1.516-1.125.797 0 1.328.594 1.328 1.516V.03C5.22.016 5.531 0 5.844 0c.343 0 .656.016 1 .031zm0 0"/></symbol><symbol overflow="visible" id="F"><path d="M4.469-5.469c-.125-.093-.344-.14-.563-.14-.36 0-.734.187-.984.5l-.672.78v-1.234l-.11-.046a7.328 7.328 0 01-1.859.5v.328H.72c.469 0 .531.078.531.875v2.687c0 .75-.047.844-.453.86L.25-.33v.36C.734.016 1.234 0 1.719 0c.578 0 1.14.016 1.718.031v-.36l-.624-.03c-.547-.032-.563-.079-.563-.86V-3.28c0-.719.469-1.313 1.063-1.313.359 0 .609.172.796.547h.25zm0 0"/></symbol><symbol overflow="visible" id="l"><path d="M2.61-1.297l-.172-.172c-.391.125-.766.266-1.172.36C1.187-.08.719.859.187 1.719l.172.14.485-.234c.703-.89 1.375-1.86 1.765-2.922zm0 0"/></symbol><symbol overflow="visible" id="n"><path d="M1.5-4.656L.828-1.281c-.015.093-.031.11-.062.25-.079.343-.094.515-.094.656 0 .297.125.484.36.484.421 0 .827-.234 1.765-1l.172-.14.203-.157-.125-.218-.531.375c-.36.25-.594.36-.72.36-.109 0-.171-.095-.171-.235 0-.313.172-1.281.516-3.016l.156-.734h1.281l.125-.61c-.453.047-.86.079-1.312.079.187-1.125.328-1.704.53-2.36l-.124-.172c-.235.14-.563.282-.938.422l-.296 2.031c-.516.25-.829.391-1.047.454l-.032.156zm0 0"/></symbol><symbol overflow="visible" id="o"><path d="M-.078 2.156c-.016.078-.016.156-.016.203 0 .516.438.938.985.938 1.265 0 2.578-1.485 3.28-3.688L5.86-5.656l-.14-.11c-.344.141-.61.204-.875.235l-.422 1.578c-.14.562-.563 1.437-.953 2.015-.422.61-1 1.141-1.266 1.141-.14 0-.25-.281-.25-.578l.016-.156.187-2.313c.016-.375.047-.828.047-1.172 0-.53-.094-.75-.297-.75-.156 0-.312.094-.89.485L.03-4.61l.14.203.595-.344.046-.047c.125-.062.204-.11.25-.11.172 0 .266.235.266.626 0 .015 0 .078-.016.187L1.11-1.187l-.015.468c0 .5.218.844.515.844.454 0 1.454-1.016 2.344-2.36L3.375-.187c-.61 2.11-1.219 2.985-2.047 2.985a.737.737 0 01-.75-.735c0-.062.016-.156.031-.265L.484 1.75zm0 0"/></symbol><symbol overflow="visible" id="q"><path d="M.25-1.047c0 .234-.016.39-.094.766-.031.156-.031.187-.047.265.172.094.375.141.516.141.39 0 .86-.344 1.234-.906l.907-1.39.125.827C3.047-.328 3.328.125 3.75.125c.266 0 .656-.203 1.031-.547l.578-.516-.093-.234c-.438.36-.735.531-.922.531C4.156-.64 4-.75 3.89-.984a4.761 4.761 0 01-.313-1.032l-.203-1.203.422-.578c.547-.781.875-1.062 1.25-1.062.187 0 .328.109.39.28l.172-.046.172-1.016c-.14-.078-.25-.125-.36-.125-.468 0-.952.438-1.687 1.532l-.453.656-.062-.563c-.14-1.187-.469-1.625-1.172-1.625-.313 0-.578.094-.688.25l-.687 1 .203.11c.36-.407.594-.563.828-.563.39 0 .656.485.86 1.657l.124.75-.468.734C1.703-1.031 1.297-.641.953-.641.781-.64.641-.687.625-.75l-.14-.344zm0 0"/></symbol><symbol overflow="visible" id="p"><path d="M.781-4.14H7.22v-.72H.78zm0 2.53H7.22v-.702H.78zm0 0"/></symbol><symbol overflow="visible" id="s"><path d="M7.281-2.906v-.672H4.344V-6.5h-.657v2.922H.75v.672h2.938V.03h.656v-2.937zm0 0"/></symbol><clipPath id="c"><path d="M59.898 6.363h144v94.5h-144zm0 0"/></clipPath><clipPath id="b"><path d="M0 0h24v24H0z"/></clipPath><clipPath id="E"><path d="M229 56h3.305v10H229zm0 0"/></clipPath><clipPath id="i"><path d="M.5 118.465h232v-118H.5zm208.559-18.203v1.261l-11.34 2.04 9-2.7-9-2.699zm0 0"/></clipPath><clipPath id="e"><path d="M.5 118.465h232v-118H.5zm135.84-21.5l-.54-.66 5.7-6.602-4.32 6 6.66-3.238zm0 0"/></clipPath><clipPath id="f"><path d="M.5 118.465h232v-118H.5zm55.379-89.961l-.117.84L47 29.28l7.441-.597-6.84-2.942zm0 0"/></clipPath><clipPath id="g"><path d="M.5 118.465h232v-118H.5zM59.3 1.262h1.259l2.043 11.281-2.704-9-2.699 9zm0 0"/></clipPath><clipPath id="h"><path d="M44 .465h32V26H44zm0 0"/></clipPath><clipPath id="G"><path d="M231 81h1.305v10H231zm0 0"/></clipPath><pattern id="d" patternUnits="userSpaceOnUse" width="24" height="24" patternTransform="matrix(.99997 0 0 -.99997 .5 118.463)"><use xlink:href="#a"/></pattern><g id="a" clip-path="url(#b)"><path d="M1-1l24 24M-1 5l20 20M9-1l16 16m-26-2l12 12m6-26l8 8M-1 21l4 4" fill="none" stroke="#ededed" stroke-miterlimit="10"/></g></defs><path d="M59.898 100.863h144v-94.5h-144zm0 0" fill="#fff"/><g clip-path="url(#c)"><path d="M59.898 100.863h144v-94.5h-144zm0 0" fill="url(#d)"/></g><path d="M59.898 100.863h139.5v-90h-139.5zm0 0" fill-rule="evenodd" fill="#eee"/><path d="M62.059 28.863a2.16 2.16 0 11-4.32.001 2.16 2.16 0 014.32 0" fill-rule="evenodd"/><path d="M62.059 28.863a2.16 2.16 0 11-4.32.001 2.16 2.16 0 014.32 0zm0 0" fill="none" stroke-width=".45" stroke="#000" stroke-miterlimit="10"/><path d="M134.059 100.863a2.16 2.16 0 11-4.32.001 2.16 2.16 0 014.32 0" fill-rule="evenodd"/><path d="M134.059 100.863a2.16 2.16 0 11-4.32.001 2.16 2.16 0 014.32 0zm0 0" fill="none" stroke-width=".45" stroke="#000" stroke-miterlimit="10"/><path d="M59.898 28.863l72 72" fill="none" stroke-width=".9" stroke="#000" stroke-miterlimit="10"/><g clip-path="url(#e)" clip-rule="evenodd"><path d="M226.398 82.863h-.418l-.601-.058-.84-.063-1.258-.058-1.562-.059-1.918-.121-2.281-.063-2.579-.117-2.82-.18-3-.12-6.242-.243-3.18-.117-3.12-.121-3.06-.121-2.878-.059-2.82-.058-2.641-.063-2.52-.058h-4.558l-2.043.058h-1.918l-1.801.063-1.738.117-1.563.062-1.5.118-1.437.18-1.383.12-1.32.243-1.797.296-1.743.301-1.68.422-1.558.48-1.562.54-1.5.597-1.559.723-1.5.777-1.559.903-1.562.96-1.559 1.02-1.558 1.078-1.563 1.082-1.437 1.078-1.32 1.02-1.141.902-.903.778-1.5 1.261" fill="none" stroke-width=".45" stroke-linejoin="bevel" stroke="#000" stroke-miterlimit="10"/></g><path d="M143.84 92.465l-6.66 3.238 4.32-6" fill="none" stroke-width=".45" stroke="#000" stroke-miterlimit="10"/><g clip-path="url(#f)" clip-rule="evenodd"><path d="M5.898 28.863h.063l.18-.058.48-.063.84-.18 1.258-.18 1.562-.3 1.739-.3 1.921-.298 1.918-.3 1.801-.301 1.8-.238 1.622-.243 1.5-.18 1.438-.12 1.32-.118 1.32-.062 1.258-.059h2.402l1.14.059 1.2.062 1.258.059 1.383.121 1.437.117 1.563.184 1.738.238 1.8.18 1.923.3 1.976.239 1.98.3 1.923.301 1.738.239 1.5.18 2.52.421" fill="none" stroke-width=".45" stroke-linejoin="bevel" stroke="#000" stroke-miterlimit="10"/></g><path d="M47.602 25.742l6.84 2.942L47 29.28" fill="none" stroke-width=".45" stroke="#000" stroke-miterlimit="10"/><g clip-path="url(#g)" clip-rule="evenodd"><path d="M59.898 114.363V1.863" fill="none" stroke-width=".9" stroke="#000" stroke-miterlimit="10"/></g><g clip-path="url(#h)"><path d="M57.2 12.543l2.698-9 2.704 9" fill="none" stroke-width=".9" stroke="#000" stroke-miterlimit="10"/></g><g clip-path="url(#i)" clip-rule="evenodd"><path d="M46.398 100.863h162" fill="none" stroke-width=".9" stroke="#000" stroke-miterlimit="10"/></g><path d="M197.719 98.164l9 2.7-9 2.698" fill="none" stroke-width=".9" stroke="#000" stroke-miterlimit="10"/><use xlink:href="#j" x="29.594" y="114.323"/><use xlink:href="#k" x="33.731" y="114.323"/><use xlink:href="#l" x="40.067" y="114.323"/><use xlink:href="#k" x="45.287" y="114.323"/><use xlink:href="#m" x="51.265" y="114.323"/><use xlink:href="#n" x="50.703" y="15.321"/><use xlink:href="#o" x="114.285" y="114.323"/><use xlink:href="#p" x="124.181" y="114.323"/><use xlink:href="#k" x="135.5" y="114.323"/><use xlink:href="#q" x="195.263" y="114.323"/><use xlink:href="#n" x="78.261" y="42.321"/><use xlink:href="#p" x="86.28" y="42.321"/><use xlink:href="#r" x="97.599" y="42.321"/><use xlink:href="#q" x="105.955" y="42.321"/><use xlink:href="#s" x="115.187" y="42.321"/><use xlink:href="#t" x="125.842" y="42.321"/><use xlink:href="#o" x="105.859" y="64.822"/><use xlink:href="#u" x="115.423" y="64.822"/><use xlink:href="#v" x="118.902" y="64.822"/><use xlink:href="#w" x="126.96" y="64.822"/><use xlink:href="#x" x="132.268" y="64.822"/><use xlink:href="#y" x="138.795" y="64.822"/><use xlink:href="#v" x="145.753" y="64.822"/><use xlink:href="#z" x="150.643" y="64.822"/><use xlink:href="#A" x="154.54" y="64.822"/><use xlink:href="#y" x="160.518" y="64.822"/><use xlink:href="#z" x="167.476" y="64.822"/><use xlink:href="#A" x="174.362" y="64.822"/><use xlink:href="#B" x="180.34" y="64.822"/><use xlink:href="#x" x="183.819" y="64.822"/><use xlink:href="#y" x="190.346" y="64.822"/><use xlink:href="#C" x="197.304" y="64.822"/><use xlink:href="#z" x="206.94" y="64.822"/><use xlink:href="#D" x="211.017" y="64.822"/><use xlink:href="#u" x="217.975" y="64.822"/><use xlink:href="#v" x="221.454" y="64.822"/><g clip-path="url(#E)"><use xlink:href="#w" x="229.511" y="64.822"/><use xlink:href="#D" x="234.82" y="64.822"/><use xlink:href="#A" x="241.778" y="64.822"/><use xlink:href="#F" x="247.755" y="64.822"/></g><use xlink:href="#m" x="-2.736" y="33.321"/><g clip-path="url(#G)"><use xlink:href="#o" x="231.862" y="87.322"/></g><use xlink:href="#o" x="5.351" y="60.322"/><use xlink:href="#p" x="15.247" y="60.322"/><use xlink:href="#v" x="26.566" y="60.322"/><use xlink:href="#u" x="31.635" y="60.322"/><use xlink:href="#y" x="35.114" y="60.322"/><use xlink:href="#j" x="42.071" y="60.322"/><use xlink:href="#n" x="46.567" y="60.322"/><use xlink:href="#m" x="51.265" y="60.322"/></svg>