<svg xmlns="http://www.w3.org/2000/svg" xmlns:xlink="http://www.w3.org/1999/xlink" width="382pt" height="275pt" viewBox="0 0 382 275"><defs><clipPath id="r"><path d="M21 20h340v234H21zm0 0"/></clipPath><clipPath id="g"><path d="M21 170h340v2H21zm0 0"/></clipPath><clipPath id="q"><path d="M21 28h340v226H21zm0 0"/></clipPath><clipPath id="j"><path d="M21 28h340v1H21zm0 0"/></clipPath><clipPath id="i"><path d="M21 75h340v2H21zm0 0"/></clipPath><clipPath id="h"><path d="M21 123h340v1H21zm0 0"/></clipPath><clipPath id="a"><path d="M21 9.5h1v255h-1zm0 0"/></clipPath><clipPath id="b"><path d="M105 9.5h2v255h-2zm0 0"/></clipPath><clipPath id="c"><path d="M190 9.5h2v255h-2zm0 0"/></clipPath><clipPath id="d"><path d="M275 9.5h2v255h-2zm0 0"/></clipPath><clipPath id="e"><path d="M360 9.5h1v255h-1zm0 0"/></clipPath><clipPath id="f"><path d="M21 217h340v2H21zm0 0"/></clipPath><symbol overflow="visible" id="l"><path d="M3.797-.656H1c.063-.438.313-.703.953-1.094l.75-.406c.75-.406 1.125-.953 1.125-1.594 0-.453-.172-.86-.484-1.14-.328-.298-.719-.423-1.219-.423-.672 0-1.172.235-1.469.688-.187.281-.265.61-.281 1.156h.656c.032-.36.078-.578.157-.75.171-.328.515-.515.921-.515.594 0 1.047.421 1.047.984 0 .422-.25.781-.719 1.063l-.687.39C.64-1.672.312-1.172.25 0h3.547zm0 0"/></symbol><symbol overflow="visible" id="p"><path d="M1.438-.781H.655V0h.781zm0 0"/></symbol><symbol overflow="visible" id="o"><path d="M1.938-3.781V0h.671v-5.313h-.437c-.235.813-.39.922-1.406 1.047v.485zm0 0"/></symbol><symbol overflow="visible" id="n"><path d="M3.906-5.313H.344v.641h2.875C1.953-2.859 1.438-1.75 1.03 0h.703c.297-1.703.97-3.172 2.172-4.766zm0 0"/></symbol><symbol overflow="visible" id="m"><path d="M3.563-5.313H.828L.422-2.421h.61c.312-.375.562-.5.984-.5.703 0 1.156.485 1.156 1.281 0 .766-.438 1.235-1.156 1.235-.579 0-.938-.297-1.094-.906H.266c.093.437.156.656.312.843.313.406.844.64 1.453.64 1.063 0 1.813-.78 1.813-1.905 0-1.047-.688-1.766-1.719-1.766-.375 0-.672.094-.984.313l.218-1.485h2.204zm0 0"/></symbol><symbol overflow="visible" id="k"><path d="M2.063-5.313c-.5 0-.938.22-1.22.579C.5-4.266.329-3.563.329-2.578c0 1.797.594 2.75 1.734 2.75 1.126 0 1.735-.953 1.735-2.703 0-1.031-.156-1.719-.516-2.203-.281-.375-.719-.579-1.219-.579zm0 .579c.718 0 1.062.718 1.062 2.14 0 1.516-.344 2.219-1.078 2.219C1.344-.375 1-1.109 1-2.563c0-1.453.344-2.171 1.063-2.171zm0 0"/></symbol></defs><g clip-path="url(#a)" fill="none" stroke-width=".625" stroke-linecap="round" stroke="#bfbfbf" stroke-miterlimit="10"><path d="M21 264.5V9.5"/><path d="M21 264.5V9.5" stroke-dasharray="12.5,18.75"/></g><g clip-path="url(#b)"><path d="M106 264.5V9.5" fill="none" stroke-width=".625" stroke-linecap="round" stroke="#bfbfbf" stroke-dasharray="12.5,18.75" stroke-miterlimit="10"/></g><g clip-path="url(#c)"><path d="M191 264.5V9.5" fill="none" stroke-width=".625" stroke-linecap="round" stroke="#bfbfbf" stroke-dasharray="12.5,18.75" stroke-miterlimit="10"/></g><g clip-path="url(#d)"><path d="M276 264.5V9.5" fill="none" stroke-width=".625" stroke-linecap="round" stroke="#bfbfbf" stroke-dasharray="12.5,18.75" stroke-miterlimit="10"/></g><g clip-path="url(#e)"><path d="M361 264.5V9.5" fill="none" stroke-width=".625" stroke-linecap="round" stroke="#bfbfbf" stroke-dasharray="12.5,18.75" stroke-miterlimit="10"/></g><g clip-path="url(#f)"><path d="M21 218.188h340" fill="none" stroke-width=".625" stroke-linecap="round" stroke="#bfbfbf" stroke-dasharray="12.5,18.75" stroke-miterlimit="10"/></g><g clip-path="url(#g)"><path d="M21 170.813h340" fill="none" stroke-width=".625" stroke-linecap="round" stroke="#bfbfbf" stroke-dasharray="12.5,18.75" stroke-miterlimit="10"/></g><g clip-path="url(#h)"><path d="M21 123.438h340" fill="none" stroke-width=".625" stroke-linecap="round" stroke="#bfbfbf" stroke-dasharray="12.5,18.75" stroke-miterlimit="10"/></g><g clip-path="url(#i)"><path d="M21 76.059h340" fill="none" stroke-width=".625" stroke-linecap="round" stroke="#bfbfbf" stroke-dasharray="12.5,18.75" stroke-miterlimit="10"/></g><g clip-path="url(#j)"><path d="M21 28.684h340" fill="none" stroke-width=".625" stroke-linecap="round" stroke="#bfbfbf" stroke-dasharray="12.5,18.75" stroke-miterlimit="10"/></g><path d="M21 264.5h340" fill="none" stroke-width="1.25" stroke-linecap="square" stroke="#000" stroke-miterlimit="10"/><path d="M21 264.5v-5m8.5 5V262m8.5 2.5V262m8.5 2.5V262m8.5 2.5V262m8.5 2.5V262m8.5 2.5V262m8.5 2.5V262m8.5 2.5V262m8.5 2.5V262m8.5 2.5v-5m8.5 5V262m8.5 2.5V262m8.5 2.5V262m8.5 2.5V262m8.5 2.5V262m8.5 2.5V262m8.5 2.5V262m8.5 2.5V262m8.5 2.5V262m8.5 2.5v-5m8.5 5V262m8.5 2.5V262m8.5 2.5V262m8.5 2.5V262m8.5 2.5V262m8.5 2.5V262m8.5 2.5V262m8.5 2.5V262m8.5 2.5V262m8.5 2.5v-5m8.5 5V262m8.5 2.5V262m8.5 2.5V262m8.5 2.5V262m8.5 2.5V262m8.5 2.5V262m8.5 2.5V262m8.5 2.5V262m8.5 2.5V262m8.5 2.5v-5" fill="none" stroke-width=".625" stroke="#000" stroke-miterlimit="10"/><use xlink:href="#k" x="18.29" y="274.5"/><use xlink:href="#l" x="101.205" y="274.5"/><use xlink:href="#m" x="105.375" y="274.5"/><use xlink:href="#m" x="186.83" y="274.5"/><use xlink:href="#k" x="191" y="274.5"/><use xlink:href="#n" x="271.83" y="274.5"/><use xlink:href="#m" x="276" y="274.5"/><use xlink:href="#o" x="354.745" y="274.5"/><use xlink:href="#k" x="358.915" y="274.5"/><use xlink:href="#k" x="363.085" y="274.5"/><path d="M21 9.5h340" fill="none" stroke-width="1.25" stroke-linecap="square" stroke="#000" stroke-miterlimit="10"/><path d="M21 9.5v5m8.5-5V12M38 9.5V12m8.5-2.5V12M55 9.5V12m8.5-2.5V12M72 9.5V12m8.5-2.5V12M89 9.5V12m8.5-2.5V12m8.5-2.5v5m8.5-5V12m8.5-2.5V12m8.5-2.5V12m8.5-2.5V12m8.5-2.5V12m8.5-2.5V12m8.5-2.5V12m8.5-2.5V12m8.5-2.5V12m8.5-2.5v5m8.5-5V12m8.5-2.5V12m8.5-2.5V12m8.5-2.5V12m8.5-2.5V12m8.5-2.5V12m8.5-2.5V12m8.5-2.5V12m8.5-2.5V12m8.5-2.5v5m8.5-5V12m8.5-2.5V12m8.5-2.5V12m8.5-2.5V12m8.5-2.5V12m8.5-2.5V12m8.5-2.5V12m8.5-2.5V12m8.5-2.5V12m8.5-2.5v5" fill="none" stroke-width=".625" stroke="#000" stroke-miterlimit="10"/><use xlink:href="#k" x="18.29" y="6.375"/><use xlink:href="#l" x="101.205" y="6.375"/><use xlink:href="#m" x="105.375" y="6.375"/><use xlink:href="#m" x="186.83" y="6.375"/><use xlink:href="#k" x="191" y="6.375"/><use xlink:href="#n" x="271.83" y="6.375"/><use xlink:href="#m" x="276" y="6.375"/><use xlink:href="#o" x="354.745" y="6.375"/><use xlink:href="#k" x="358.915" y="6.375"/><use xlink:href="#k" x="363.085" y="6.375"/><path d="M21 264.5V9.5" fill="none" stroke-width="1.25" stroke-linecap="square" stroke="#000" stroke-miterlimit="10"/><path d="M21 260.828h2.5M21 256.09h2.5m-2.5-4.738h2.5m-2.5-4.735h2.5M21 241.88h2.5m-2.5-4.74h2.5m-2.5-4.739h2.5m-2.5-4.738h2.5m-2.5-4.738h2.5m-2.5-4.739h5m-5-4.734h2.5m-2.5-4.738h2.5m-2.5-4.738h2.5m-2.5-4.739h2.5M21 194.5h2.5m-2.5-4.738h2.5m-2.5-4.735h2.5M21 180.29h2.5m-2.5-4.738h2.5m-2.5-4.739h5m-5-4.738h2.5M21 161.34h2.5m-2.5-4.738h2.5m-2.5-4.739h2.5m-2.5-4.738h2.5m-2.5-4.738h2.5m-2.5-4.739h2.5M21 132.91h2.5m-2.5-4.738h2.5m-2.5-4.735h5m-5-4.738h2.5m-2.5-4.738h2.5m-2.5-4.738h2.5m-2.5-4.739h2.5M21 99.746h2.5M21 95.012h2.5M21 90.273h2.5M21 85.535h2.5M21 80.797h2.5M21 76.059h5m-5-4.739h2.5M21 66.586h2.5M21 61.848h2.5M21 57.109h2.5M21 52.371h2.5M21 47.633h2.5M21 42.895h2.5M21 38.156h2.5M21 33.422h2.5M21 28.684h5m-5-4.739h2.5M21 19.207h2.5M21 14.469h2.5M21 9.73h2.5" fill="none" stroke-width=".625" stroke="#000" stroke-miterlimit="10"/><use xlink:href="#l" x="3.701" y="221.375"/><use xlink:href="#p" x="7.871" y="221.375"/><use xlink:href="#m" x="9.956" y="221.375"/><use xlink:href="#m" x="3.701" y="174.5"/><use xlink:href="#p" x="7.871" y="174.5"/><use xlink:href="#k" x="9.956" y="174.5"/><use xlink:href="#n" x="3.701" y="127"/><use xlink:href="#p" x="7.871" y="127"/><use xlink:href="#m" x="9.956" y="127"/><use xlink:href="#o" x="-.469" y="79.5"/><use xlink:href="#k" x="3.701" y="79.5"/><use xlink:href="#p" x="7.871" y="79.5"/><use xlink:href="#k" x="9.956" y="79.5"/><use xlink:href="#o" x="-.469" y="32"/><use xlink:href="#l" x="3.701" y="32"/><use xlink:href="#p" x="7.871" y="32"/><use xlink:href="#m" x="9.956" y="32"/><path d="M361 264.5V9.5" fill="none" stroke-width="1.25" stroke-linecap="square" stroke="#000" stroke-miterlimit="10"/><path d="M361 260.828h-2.5m2.5-4.738h-2.5m2.5-4.738h-2.5m2.5-4.735h-2.5m2.5-4.738h-2.5m2.5-4.738h-2.5m2.5-4.739h-2.5m2.5-4.738h-2.5m2.5-4.738h-2.5m2.5-4.739h-5m5-4.734h-2.5m2.5-4.738h-2.5m2.5-4.738h-2.5m2.5-4.739h-2.5m2.5-4.738h-2.5m2.5-4.738h-2.5m2.5-4.735h-2.5m2.5-4.738h-2.5m2.5-4.738h-2.5m2.5-4.739h-5m5-4.738h-2.5m2.5-4.734h-2.5m2.5-4.738h-2.5m2.5-4.739h-2.5m2.5-4.738h-2.5m2.5-4.738h-2.5m2.5-4.739h-2.5m2.5-4.738h-2.5m2.5-4.738h-2.5m2.5-4.735h-5m5-4.738h-2.5m2.5-4.738h-2.5m2.5-4.738h-2.5m2.5-4.739h-2.5m2.5-4.738h-2.5m2.5-4.734h-2.5m2.5-4.739h-2.5m2.5-4.738h-2.5m2.5-4.738h-2.5m2.5-4.738h-5m5-4.739h-2.5m2.5-4.734h-2.5m2.5-4.738h-2.5m2.5-4.739h-2.5m2.5-4.738h-2.5m2.5-4.738h-2.5m2.5-4.738h-2.5m2.5-4.739h-2.5m2.5-4.734h-2.5m2.5-4.738h-5m5-4.739h-2.5m2.5-4.738h-2.5m2.5-4.738h-2.5M361 9.73h-2.5" fill="none" stroke-width=".625" stroke="#000" stroke-miterlimit="10"/><use xlink:href="#l" x="367.25" y="221.375"/><use xlink:href="#p" x="371.42" y="221.375"/><use xlink:href="#m" x="373.505" y="221.375"/><use xlink:href="#m" x="367.25" y="174.5"/><use xlink:href="#p" x="371.42" y="174.5"/><use xlink:href="#k" x="373.505" y="174.5"/><use xlink:href="#n" x="367.25" y="127"/><use xlink:href="#p" x="371.42" y="127"/><use xlink:href="#m" x="373.505" y="127"/><use xlink:href="#o" x="367.25" y="79.5"/><use xlink:href="#k" x="371.42" y="79.5"/><use xlink:href="#p" x="375.59" y="79.5"/><use xlink:href="#k" x="377.675" y="79.5"/><use xlink:href="#o" x="367.25" y="32"/><use xlink:href="#l" x="371.42" y="32"/><use xlink:href="#p" x="375.59" y="32"/><use xlink:href="#m" x="377.675" y="32"/><g clip-path="url(#q)"><path d="M21 28.676l.625 1.054 1.25 2.094.625 1.043 1.25 2.094.625 1.043L26 37.05l.625 1.043.625 1.047.625 1.043.625 1.046.625 1.043.625 1.047.625 1.043L31 45.41l1.25 2.086.625 1.047 2.5 4.172.625 1.039.625 1.043.625 1.039 2.5 4.14L41 62.04l1.25 2.055.625 1.02.625 1.023.625 1.015.625 1.02L46 70.195l1.875 3.012 1.25 1.992.625.992.625.989.625.984.625.98 1.25 1.954.625.968 1.25 1.93.625.957 1.25 1.906.625.946 1.25 1.882.625.934.625.93.625.926.625.921.625.918.625.914.625.91.625.907 1.25 1.797 1.25 1.781.625.883 1.25 1.758.625.87.625.868 1.25 1.719.625.855 1.25 1.695 1.25 1.68.625.832.625.828.625.824.625.82.625.817.625.813.625.808 1.25 1.602.625.797 1.25 1.578 1.25 1.562.625.774 1.25 1.539.625.762.625.757.625.754 1.25 1.5.625.743.625.738.625.734.625.73L91 132.72l.625.719.625.714.625.711 1.25 1.414 1.25 1.399 1.25 1.383 1.25 1.367 1.25 1.351.625.672.625.668.625.664.625.66.625.657.625.652 1.25 1.297 1.25 1.281.625.637.625.633.625.629.625.625 1.25 1.242 1.25 1.226.625.61.625.605.625.602 1.25 1.195.625.594.625.59.625.586 1.25 1.164 1.25 1.148.625.57 1.25 1.133.625.563 1.875 1.664.625.55 1.875 1.63.625.538.625.532.625.535 1.25 1.055.625.52.625.523 1.25 1.03.625.513 1.25 1.015.625.5.625.504 1.25.992 1.25.985.625.488.625.484 1.25.961.625.477 1.25.945 1.25.938.625.464.625.461 1.25.914 1.25.907.625.449 1.25.89 1.25.883.625.438 1.25.867.625.43 1.25.851 1.25.844 1.25.836.625.414 1.25.82 1.25.813 1.25.805.625.398 1.875 1.184.625.386.625.39.625.388.625.382L166 196.41l1.25.75.625.371 1.875 1.102.625.363.625.36.625.363 1.25.71.625.352.625.356L176 202.18l.625.343 1.875 1.02 1.25.672 1.25.664 1.875.984.625.325 1.875.96 1.25.633 1.25.625 1.875.926 1.25.61 1.25.601 1.875.89 1.25.587 1.875.867 1.25.57.625.281.625.285 2.5 1.11.625.273.625.27.625.273.625.27 2.5 1.062 1.25.524 1.875.773 1.875.762 1.25.5 2.5.984 1.25.485 2.5.953 1.25.468 2.5.922 1.875.68 1.875.668 1.875.656.625.215.625.219.625.21.625.216 1.875.632 1.875.622.625.203.625.207.625.203.625.199.625.203 1.25.399.625.195.625.2.625.194.625.192.625.195 1.875.574 2.5.75 2.5.735 1.875.539.625.176.625.18 1.25.35.625.173.625.176 1.25.343.625.168.625.172 1.875.504 3.125.82 2.5.64 3.125.782 2.5.61.625.148.625.152 1.25.297.625.145.625.148 2.5.578 3.125.703.625.137.625.14 1.875.41 1.25.267.625.136.625.133.625.129 1.25.266 2.5.515 4.375.875 2.5.485.625.117.625.12 3.125.587.625.113.625.117 1.875.34.625.11.625.113 1.25.219.625.113.625.11.625.105.625.11.625.105.625.109 2.5.422.625.101.625.106 3.125.508.625.097.625.102 1.25.195.625.102.625.093 1.25.196.625.094.625.097 3.125.469.625.09.625.094 3.75.539.625.086.625.09 1.25.171.625.09.625.086.625.082 1.25.172.625.082.625.086 3.75.492.625.078.625.082 1.25.157.625.082 1.25.156.625.074 1.25.156 1.25.149.625.078 3.75.445 1.25.14.625.075 4.375.492" fill="none" stroke-width="1.25" stroke-linecap="round" stroke-linejoin="round" stroke="#00008b" stroke-miterlimit="10"/></g><g clip-path="url(#r)"><path d="M21 21.09l.625 1.328.625 1.32.625 1.313.625 1.304.625 1.297.625 1.293.625 1.285.625 1.278.625 1.27.625 1.261.625 1.258.625 1.25.625 1.242.625 1.238.625 1.23L31 41.48l.625 1.215.625 1.211.625 1.203.625 1.196.625 1.191.625 1.184.625 1.175.625 1.172.625 1.164.625 1.16.625 1.153.625 1.144.625 1.141.625 1.133.625 1.125.625 1.121.625 1.117.625 1.11.625 1.101.625 1.098.625 1.09.625 1.086.625 1.078.625 1.074.625 1.066.625 1.063.625 1.054.625 1.051.625 1.043.625 1.04.625 1.034.625 1.028 1.25 2.039 1.25 2.015.625 1 1.25 1.985 1.25 1.96.625.973 1.25 1.93.625.957.625.953.625.946L61 93l.625.938 1.25 1.859.625.922 1.25 1.828.625.906.625.902.625.895.625.89.625.887.625.883.625.88 1.25 1.741.625.864 1.25 1.71 1.25 1.696.625.84.625.836 1.25 1.656 1.25 1.64.625.813.625.809.625.804 1.25 1.594.625.793.625.785 1.25 1.563.625.773.625.77.625.765.625.762.625.758.625.754.625.75.625.746 1.25 1.476.625.735 1.25 1.453.625.722 1.25 1.43.625.711 1.25 1.406.625.7.625.695 1.25 1.375.625.683.625.68.625.676.625.672.625.668 1.25 1.328.625.656 1.25 1.305 1.25 1.289.625.64.625.637.625.633 1.25 1.258.625.62 1.25 1.235.625.614.625.609 1.25 1.21.625.599 1.25 1.187 1.25 1.18.625.582 1.25 1.156.625.574 1.25 1.14 1.25 1.126.625.558.625.555 1.25 1.102.625.547.625.543 1.25 1.078.625.535.625.531 1.25 1.055.625.523 1.25 1.04.625.515.625.512 1.25 1.015.625.504.625.5 1.25.992 1.25.985.625.488.625.484 1.25.961.625.477 1.25.945 1.25.938.625.465.625.46 1.25.915 1.25.906 1.25.898.625.442.625.445 1.25.875 1.25.867 1.25.86.625.421.625.426.625.422.625.418 1.875 1.242.625.41 1.25.813.625.398.625.403 1.25.796.625.395 1.25.781 1.25.774 1.25.765 1.25.758.625.375 1.875 1.113.625.368 1.875 1.09.625.359 1.875 1.066.625.352.625.347.625.352 1.875 1.031.625.34.625.336.625.34.625.336 1.25.664 1.25.656 1.875.973.625.32.625.317.625.32.625.312.625.317.625.312 1.25.617.625.305.625.309 2.5 1.203 1.25.594 1.25.586 1.875.867 1.25.57 1.875.844 1.25.554 1.875.82 1.875.81 1.875.796.625.258 1.25.523.625.258.625.254.625.258.625.254 2.5 1 1.25.492.625.242.625.246.625.239.625.242 1.25.476 2.5.938 1.875.691 1.25.453.625.223.625.227.625.222.625.22.625.222 1.25.437 2.5.86 1.875.632 1.875.622.625.203.625.207.625.203.625.199.625.203.625.2.625.195.625.199 2.5.781 1.25.383.625.187.625.192 1.25.375.625.183.625.188 1.25.367.625.18.625.183 1.25.36.625.176.625.18.625.171.625.18 1.25.344.625.175.625.172 1.25.336.625.172.625.168.625.164.625.168 1.875.492.625.16.625.164 1.25.32.625.157.625.16 2.5.625 2.5.61.625.148.625.152 1.25.297.625.145.625.148 2.5.578 3.125.703.625.137.625.14 1.25.274.625.133.625.137.625.133.625.136.625.13 1.25.265.625.129.625.133 1.25.257.625.125.625.13 3.125.624.625.121.625.125 1.875.364.625.117.625.12 3.125.587 1.25.226.625.118.625.113.625.11 1.25.226 1.25.219.625.113.625.105 1.25.22.625.105.625.109 1.875.316.625.102 1.25.21 3.125.509.625.097.625.102 3.75.586.625.094.625.097 3.125.469.625.09.625.094 3.75.539.625.086.625.09 4.375.6.625.083.625.086 3.125.41.625.078 1.25.164 5 .625 1.25.149.625.078 3.125.37.625.071.625.074.625.07.625.075 4.375.492" fill="none" stroke-width="1.25" stroke-linecap="round" stroke-linejoin="round" stroke="#006400" stroke-miterlimit="10"/></g></svg>