<svg xmlns="http://www.w3.org/2000/svg" xmlns:xlink="http://www.w3.org/1999/xlink" width="377.423" height="111.096" viewBox="0 0 283.067 83.322"><defs><symbol overflow="visible" id="e"><path d="M5.563-4.375c0-2.625-.782-3.86-2.422-3.86-1.844 0-2.797 1.47-2.797 4.36 0 1.406.25 2.61.672 3.188.421.593 1.093.921 1.828.921 1.812 0 2.719-1.546 2.719-4.609zm-1.016.594c0 2.547-.453 3.61-1.547 3.61-1.156 0-1.656-1.22-1.656-4.126 0-2.531.453-3.516 1.578-3.516 1.172 0 1.625 1.172 1.625 4.032zm0 0"/></symbol><symbol overflow="visible" id="h"><path d="M3.234.031v-.36l-.546-.03c-.407-.016-.438-.11-.438-.86v-4.343l-.11-.047a7.328 7.328 0 01-1.859.5v.328H.72c.469 0 .531.078.531.875v2.687c0 .75-.047.844-.453.86L.25-.33v.36c.5-.014 1-.03 1.5-.03s.984.016 1.484.031zm-.89-7.11c0-.343-.235-.593-.594-.593-.36 0-.61.234-.61.594s.25.594.61.594.594-.235.594-.594zm0 0"/></symbol><symbol overflow="visible" id="i"><path d="M6.844.031v-.36l-.5-.03c-.407-.016-.438-.094-.438-.86V-3.53c0-1.39-.656-2.078-2-2.078-.437 0-.687.093-.937.296l-.906.797v-1.046l-.11-.047c-.61.25-1.234.421-1.875.5v.328h.453c.469 0 .516.078.516.875v2.687c0 .75-.031.844-.438.86l-.53.03v.36C.561.016 1.062 0 1.546 0c.5 0 1 .016 1.484.031v-.36L2.5-.358c-.406-.016-.438-.11-.438-.86V-3.75c0-.547.782-1.125 1.516-1.125.797 0 1.328.594 1.328 1.516V.03C5.22.016 5.531 0 5.844 0c.343 0 .656.016 1 .031zm0 0"/></symbol><symbol overflow="visible" id="j"><path d="M4.672-1.766c0-.375-.094-.656-.328-.89-.313-.313-.703-.438-1.766-.64-.969-.188-1.297-.438-1.297-.985 0-.594.422-.938 1.14-.938.813 0 1.423.422 1.423.985v.28h.328c.016-.702.031-.983.062-1.358-.64-.204-1.062-.297-1.562-.297-1.375 0-2.235.656-2.235 1.734 0 .578.266.984.813 1.234.328.141.969.329 1.781.516.531.11.766.375.766.828 0 .64-.61 1.094-1.453 1.094-.875 0-1.5-.422-1.5-1.016v-.484h-.36C.484-.891.454-.531.36-.047.984.156 1.453.234 2 .234c1.563 0 2.672-.828 2.672-2zm0 0"/></symbol><symbol overflow="visible" id="k"><path d="M6.938.031v-.36l-.485-.03c-.406-.016-.437-.094-.437-.86v-4.343l-.11-.047c-.61.25-1.234.421-1.86.5v.328h.438c.47 0 .532.078.532.875v1.953c0 .25-.172.594-.454.86a1.574 1.574 0 01-1.187.515c-.406 0-.75-.14-.938-.36-.171-.203-.25-.562-.25-1.093v-3.531l-.109-.047c-.61.25-1.234.421-1.86.5v.328h.438c.485 0 .531.078.531.875v2c0 .843.063 1.218.282 1.515.265.36.718.532 1.406.532.531 0 1.016-.172 1.328-.47l.813-.734c0 .344-.016.532-.063 1.094.344-.015.672-.031 1-.031.328 0 .656.016.984.031zm0 0"/></symbol><symbol overflow="visible" id="l"><path d="M3.234.031v-.36l-.546-.03c-.407-.016-.438-.11-.438-.86v-7.36l-.11-.093c-.53.203-.921.297-1.859.438v.328h.656c.22 0 .313.14.313.5v6.187c0 .75-.047.844-.453.86L.25-.33v.36c.5-.014 1-.03 1.5-.03s.984.016 1.484.031zm0 0"/></symbol><symbol overflow="visible" id="m"><path d="M5.625.031v-.36l-.469-.015c-.281-.015-.328-.11-.328-.703v-2.187c0-1.735-.5-2.375-1.89-2.375-.516 0-.985.14-1.438.406l-.64.39v.766l.312.094.156-.375c.234-.563.375-.64.922-.64 1.125 0 1.594.437 1.625 1.53l-1.188.204C1.063-2.922.376-2.36.376-1.328.375-.391.938.14 1.891.14c.218 0 .421-.032.5-.094l1.484-1.03L3.812.03C4.125.016 4.439 0 4.75 0c.297 0 .578.016.875.031zm-1.75-1.515c-.344.5-1.11.953-1.563.953-.484 0-.906-.453-.906-.969 0-.438.25-.86.61-1.078.296-.188.953-.344 1.859-.485zm0 0"/></symbol><symbol overflow="visible" id="n"><path d="M3.813-5.219l-1.641.078v-.453c0-.5.047-.937.14-1.703l-.156-.125c-.281.172-.64.328-1.015.453.046.36.046.578.046.938v.843l-.921.422v.25l.906-.046v3.437c0 .89.39 1.266 1.312 1.266.282 0 .563-.063.641-.141l.563-.64-.157-.204c-.297.172-.469.235-.703.235-.469 0-.656-.235-.656-.829v-3.125h1.531zm0 0"/></symbol><symbol overflow="visible" id="o"><path d="M6.14-2.828c0-1.625-1.171-2.781-2.812-2.781C1.594-5.61.375-4.375.375-2.594.375-.906 1.453.234 2.985.234c1.843 0 3.156-1.28 3.156-3.062zm-1.109.437c0 1.375-.61 2.235-1.578 2.235C2.281-.156 1.5-1.296 1.5-3c0-1.438.563-2.219 1.625-2.219 1.094 0 1.906 1.203 1.906 2.828zm0 0"/></symbol><symbol overflow="visible" id="p"><path d="M5.36-3.328c0-1.375-.891-2.281-2.235-2.281-.438 0-.953.156-1.438.453C.704-4.61.313-3.86.313-2.625c0 .766.172 1.406.5 1.86.47.64 1.282 1 2.172 1 .454 0 .891-.094 1.375-.313.329-.125.579-.281.625-.36l.235-.406-.157-.11c-.765.454-1.03.563-1.546.563-.782 0-1.422-.343-1.766-.937-.219-.39-.297-.734-.328-1.422h1.75c.828 0 1.328-.031 2.156-.172.016-.156.031-.265.031-.406zm-1.063.14l-1.344.032c-.547 0-.86-.016-1.5-.078 0-.563.047-.813.203-1.125a1.47 1.47 0 011.328-.86c.391 0 .704.157.922.485.266.39.39.734.39 1.546zm0 0"/></symbol><symbol overflow="visible" id="q"><path d="M10.39.031v-.36l-.562-.03c-.406-.016-.437-.11-.437-.86v-2.468c0-1.172-.704-1.922-1.797-1.922-.422 0-.766.109-.985.296l-.906.813C5.313-5.281 4.828-5.61 4-5.61c-.438 0-.766.11-.984.298l-.829.765v-1.016l-.109-.046c-.61.25-1.234.421-1.86.5v.328h.438c.485 0 .531.078.531.875v2.687c0 .75-.046.844-.453.86l-.546.03v.36A49.04 49.04 0 011.702 0c.484 0 .953.016 1.422.031v-.36l-.5-.03c-.406-.016-.438-.11-.438-.86V-3.75c0-.547.782-1.125 1.5-1.125.657 0 1.094.61 1.094 1.516v2.14c0 .75-.031.844-.437.86l-.547.03v.36C4.297.016 4.78 0 5.28 0s1 .016 1.5.031v-.36l-.547-.03c-.406-.016-.453-.11-.453-.86V-3.75c0-.547.797-1.125 1.516-1.125.64 0 1.078.61 1.078 1.516V.03c.314-.014.641-.03.954-.03.36 0 .703.016 1.063.031zm0 0"/></symbol><symbol overflow="visible" id="r"><path d="M6.625-3.234c0-1.329-1.11-2.375-2.484-2.375-.454 0-.875.125-1.063.296l-.984.907v-1.157l-.11-.046a7.328 7.328 0 01-1.859.5v.328h.438c.484 0 .53.078.53.875v6.015c0 .75-.046.829-.452.86L.094 3v.36c.5-.032 1-.032 1.5-.032s.984 0 1.484.031V3l-.547-.031c-.406-.031-.437-.11-.437-.86V-.156c.36.218.734.297 1.281.297.344 0 .656-.063.844-.188l1.36-.89c.484-.313 1.046-1.532 1.046-2.297zm-1.047.437c0 1.344-.797 2.328-1.875 2.328-.656 0-1.14-.219-1.61-.703v-2.484c0-.172.063-.297.22-.5.343-.453.828-.672 1.421-.672 1.125 0 1.844.781 1.844 2.031zm0 0"/></symbol><symbol overflow="visible" id="s"><path d="M4.469-5.469c-.125-.093-.344-.14-.563-.14-.36 0-.734.187-.984.5l-.672.78v-1.234l-.11-.046a7.328 7.328 0 01-1.859.5v.328H.72c.469 0 .531.078.531.875v2.687c0 .75-.047.844-.453.86L.25-.33v.36C.734.016 1.234 0 1.719 0c.578 0 1.14.016 1.718.031v-.36l-.624-.03c-.547-.032-.563-.079-.563-.86V-3.28c0-.719.469-1.313 1.063-1.313.359 0 .609.172.796.547h.25zm0 0"/></symbol><symbol overflow="visible" id="f"><path d="M4.172-7.938l.031-.328h-.281l-1.078.032c-.188 0-.406 0-.922-.016l-.766-.016-.031.329.563.03c.28 0 .421.095.421.313 0 .172-.046.547-.109.907L.969-.657C.922-.436.78-.358.25-.28L.187.03h.5C1.047.016 1.798 0 2.032 0L4.61.031h.11c.172 0 .468 0 .86-.015L5.968 0c0-.297.125-1.234.281-1.969h-.375l-.203.735c-.11.39-.203.593-.313.656-.156.047-.921.11-1.718.11-.594 0-.922-.016-1.704-.079v-.047c0-.172.016-.265.016-.375l1.11-6.36c.078-.452.171-.53.609-.577zm0 0"/></symbol><symbol overflow="visible" id="g"><path d="M.25-1.047c0 .234-.016.39-.094.766-.031.156-.031.187-.047.265.172.094.375.141.516.141.39 0 .86-.344 1.234-.906l.907-1.39.125.827C3.047-.328 3.328.125 3.75.125c.266 0 .656-.203 1.031-.547l.578-.516-.093-.234c-.438.36-.735.531-.922.531C4.156-.64 4-.75 3.89-.984a4.761 4.761 0 01-.313-1.032l-.203-1.203.422-.578c.547-.781.875-1.062 1.25-1.062.187 0 .328.109.39.28l.172-.046.172-1.016c-.14-.078-.25-.125-.36-.125-.468 0-.952.438-1.687 1.532l-.453.656-.062-.563c-.14-1.187-.469-1.625-1.172-1.625-.313 0-.578.094-.688.25l-.687 1 .203.11c.36-.407.594-.563.828-.563.39 0 .656.485.86 1.657l.124.75-.468.734C1.703-1.031 1.297-.641.953-.641.781-.64.641-.687.625-.75l-.14-.344zm0 0"/></symbol><symbol overflow="visible" id="t"><path d="M3.984-1.156c-.093.281-.14.61-.14.781 0 .297.14.484.36.484.312 0 .75-.25 1.921-1.125L6-1.234l-.313.203c-.28.187-.593.328-.734.328-.094 0-.14-.078-.14-.203 0-.094.015-.235.046-.406l.016-.079c.281-1.296.64-2.89 1-4.265l-.078-.11-.813.204-.125.609c-.171.937-.468 1.75-.843 2.312-.704 1.094-1.641 1.938-2.11 1.938-.093 0-.156-.11-.156-.313 0-.171.016-.328.078-.625l.688-3.234c.03-.188.046-.36.046-.516 0-.234-.093-.375-.265-.375-.235 0-.688.25-1.578.891l-.344.234.094.235.375-.25c.344-.203.469-.266.578-.266.11 0 .203.11.203.234 0 .047-.016.172-.016.22L.844-.923c-.016.11-.047.39-.047.563 0 .28.187.484.422.484.75 0 2.203-1.328 3.203-2.984zm0 0"/></symbol><clipPath id="a"><path d="M.5 82.82h283v-83H.5zm281.719-28.937v.84l-10.258 1.8 8.82-2.222-8.82-2.219zm0 0"/></clipPath><clipPath id="b"><path d="M265 45h18.066v18H265zm0 0"/></clipPath><clipPath id="c"><path d="M.5 82.82h283v-83H.5zM14.441.844h.84l1.801 10.258-2.223-8.82-2.218 8.82zm0 0"/></clipPath><clipPath id="d"><path d="M.5 54H16v1H.5zm0 0"/></clipPath></defs><path d="M33.219 54.3c0 6.298-2.875 11.403-6.418 11.403-3.547 0-6.422-5.105-6.422-11.402 0-6.293 2.875-11.399 6.422-11.399 3.543 0 6.418 5.106 6.418 11.399zm218.043 0c0 6.298-2.875 11.403-6.422 11.403-3.543 0-6.418-5.105-6.418-11.402 0-6.293 2.875-11.399 6.418-11.399 3.547 0 6.422 5.106 6.422 11.399zM26.8 65.704h218.097M26.8 42.904h218.097m11.043 3.6V61.32" fill="none" stroke-width=".45" stroke="#000" stroke-miterlimit="10"/><g clip-path="url(#a)" clip-rule="evenodd"><path d="M256 54.3h25.8" fill="none" stroke-width=".45" stroke="#000" stroke-miterlimit="10"/></g><g clip-path="url(#b)"><path d="M271.96 52.082l8.821 2.219-8.82 2.222" fill="none" stroke-width=".45" stroke="#000" stroke-miterlimit="10"/></g><path d="M33.219 54.3H15.582" fill="none" stroke-width="4.5" stroke="#000" stroke-miterlimit="10"/><g clip-path="url(#c)" clip-rule="evenodd"><path d="M14.86 1.262V82.14" fill="none" stroke-width=".45" stroke="#000" stroke-miterlimit="10"/></g><path d="M12.64 11.102l2.22-8.82 2.222 8.82" fill="none" stroke-width=".45" stroke="#000" stroke-miterlimit="10"/><path d="M238.66 54.3h16.68" fill="none" stroke-width="4.5" stroke="#000" stroke-miterlimit="10"/><g clip-path="url(#d)"><path d="M14.8 54.3H1.18" fill="none" stroke-width=".45" stroke-linejoin="bevel" stroke="#000" stroke-miterlimit="10"/></g><use xlink:href="#e" x="5.54" y="67.102"/><use xlink:href="#f" x="252.685" y="71.602"/><use xlink:href="#g" x="274.049" y="71.602"/><use xlink:href="#h" x="100.042" y="81.322"/><use xlink:href="#i" x="103.521" y="81.322"/><use xlink:href="#j" x="110.479" y="81.322"/><use xlink:href="#k" x="115.548" y="81.322"/><use xlink:href="#l" x="122.757" y="81.322"/><use xlink:href="#m" x="126.236" y="81.322"/><use xlink:href="#n" x="132.213" y="81.322"/><use xlink:href="#h" x="136.111" y="81.322"/><use xlink:href="#o" x="139.59" y="81.322"/><use xlink:href="#i" x="146.117" y="81.322"/><use xlink:href="#n" x="19.58" y="21.501"/><use xlink:href="#p" x="23.477" y="21.501"/><use xlink:href="#q" x="29.204" y="21.501"/><use xlink:href="#r" x="39.521" y="21.501"/><use xlink:href="#p" x="46.706" y="21.501"/><use xlink:href="#s" x="52.433" y="21.501"/><use xlink:href="#m" x="56.976" y="21.501"/><use xlink:href="#n" x="62.953" y="21.501"/><use xlink:href="#k" x="66.851" y="21.501"/><use xlink:href="#s" x="74.06" y="21.501"/><use xlink:href="#p" x="78.782" y="21.501"/><use xlink:href="#t" x="87.856" y="21.501"/></svg>