<svg xmlns="http://www.w3.org/2000/svg" xmlns:xlink="http://www.w3.org/1999/xlink" width="382pt" height="275pt" viewBox="0 0 382 275"><defs><clipPath id="i"><path d="M21 206h340v1H21zm0 0"/></clipPath><clipPath id="e"><path d="M190 9.5h2v255h-2zm0 0"/></clipPath><clipPath id="m"><path d="M21 20h340v2H21zm0 0"/></clipPath><clipPath id="l"><path d="M21 67h340v1H21zm0 0"/></clipPath><clipPath id="k"><path d="M21 113h340v2H21zm0 0"/></clipPath><clipPath id="j"><path d="M21 159h340v2H21zm0 0"/></clipPath><clipPath id="a"><path d="M21 9.5h1v255h-1zm0 0"/></clipPath><clipPath id="b"><path d="M21 252h340v2H21zm0 0"/></clipPath><clipPath id="c"><path d="M21 9.5h1v255h-1zm0 0"/></clipPath><clipPath id="d"><path d="M105 9.5h2v255h-2zm0 0"/></clipPath><clipPath id="t"><path d="M21 20h340v234H21zm0 0"/></clipPath><clipPath id="f"><path d="M275 9.5h2v255h-2zm0 0"/></clipPath><clipPath id="g"><path d="M360 9.5h1v255h-1zm0 0"/></clipPath><clipPath id="h"><path d="M21 252h340v2H21zm0 0"/></clipPath><symbol overflow="visible" id="o"><path d="M1.438-.781H.655V0h.781zm0 0"/></symbol><symbol overflow="visible" id="s"><path d="M1.938-3.781V0h.671v-5.313h-.437c-.235.813-.39.922-1.406 1.047v.485zm0 0"/></symbol><symbol overflow="visible" id="r"><path d="M3.906-5.313H.344v.641h2.875C1.953-2.859 1.438-1.75 1.03 0h.703c.297-1.703.97-3.172 2.172-4.766zm0 0"/></symbol><symbol overflow="visible" id="q"><path d="M3.563-5.313H.828L.422-2.421h.61c.312-.375.562-.5.984-.5.703 0 1.156.485 1.156 1.281 0 .766-.438 1.235-1.156 1.235-.579 0-.938-.297-1.094-.906H.266c.093.437.156.656.312.843.313.406.844.64 1.453.64 1.063 0 1.813-.78 1.813-1.905 0-1.047-.688-1.766-1.719-1.766-.375 0-.672.094-.984.313l.218-1.485h2.204zm0 0"/></symbol><symbol overflow="visible" id="p"><path d="M3.797-.656H1c.063-.438.313-.703.953-1.094l.75-.406c.75-.406 1.125-.953 1.125-1.594 0-.453-.172-.86-.484-1.14-.328-.298-.719-.423-1.219-.423-.672 0-1.172.235-1.469.688-.187.281-.265.61-.281 1.156h.656c.032-.36.078-.578.157-.75.171-.328.515-.515.921-.515.594 0 1.047.421 1.047.984 0 .422-.25.781-.719 1.063l-.687.39C.64-1.672.312-1.172.25 0h3.547zm0 0"/></symbol><symbol overflow="visible" id="n"><path d="M2.063-5.313c-.5 0-.938.22-1.22.579C.5-4.266.329-3.563.329-2.578c0 1.797.594 2.75 1.734 2.75 1.126 0 1.735-.953 1.735-2.703 0-1.031-.156-1.719-.516-2.203-.281-.375-.719-.579-1.219-.579zm0 .579c.718 0 1.062.718 1.062 2.14 0 1.516-.344 2.219-1.078 2.219C1.344-.375 1-1.109 1-2.563c0-1.453.344-2.171 1.063-2.171zm0 0"/></symbol></defs><g clip-path="url(#a)"><path d="M21 264.5V9.5" fill="none" stroke-width=".625" stroke-linecap="round" stroke="#bfbfbf" stroke-miterlimit="10"/></g><g clip-path="url(#b)"><path d="M21 252.91h340" fill="none" stroke-width=".625" stroke-linecap="round" stroke="#bfbfbf" stroke-miterlimit="10"/></g><g clip-path="url(#c)"><path d="M21 264.5V9.5" fill="none" stroke-width=".625" stroke-linecap="round" stroke="#bfbfbf" stroke-dasharray="12.5,18.75" stroke-miterlimit="10"/></g><g clip-path="url(#d)"><path d="M106 264.5V9.5" fill="none" stroke-width=".625" stroke-linecap="round" stroke="#bfbfbf" stroke-dasharray="12.5,18.75" stroke-miterlimit="10"/></g><g clip-path="url(#e)"><path d="M191 264.5V9.5" fill="none" stroke-width=".625" stroke-linecap="round" stroke="#bfbfbf" stroke-dasharray="12.5,18.75" stroke-miterlimit="10"/></g><g clip-path="url(#f)"><path d="M276 264.5V9.5" fill="none" stroke-width=".625" stroke-linecap="round" stroke="#bfbfbf" stroke-dasharray="12.5,18.75" stroke-miterlimit="10"/></g><g clip-path="url(#g)"><path d="M361 264.5V9.5" fill="none" stroke-width=".625" stroke-linecap="round" stroke="#bfbfbf" stroke-dasharray="12.5,18.75" stroke-miterlimit="10"/></g><g clip-path="url(#h)"><path d="M21 252.91h340" fill="none" stroke-width=".625" stroke-linecap="round" stroke="#bfbfbf" stroke-dasharray="12.5,18.75" stroke-miterlimit="10"/></g><g clip-path="url(#i)"><path d="M21 206.547h340" fill="none" stroke-width=".625" stroke-linecap="round" stroke="#bfbfbf" stroke-dasharray="12.5,18.75" stroke-miterlimit="10"/></g><g clip-path="url(#j)"><path d="M21 160.184h340" fill="none" stroke-width=".625" stroke-linecap="round" stroke="#bfbfbf" stroke-dasharray="12.5,18.75" stroke-miterlimit="10"/></g><g clip-path="url(#k)"><path d="M21 113.816h340" fill="none" stroke-width=".625" stroke-linecap="round" stroke="#bfbfbf" stroke-dasharray="12.5,18.75" stroke-miterlimit="10"/></g><g clip-path="url(#l)"><path d="M21 67.453h340" fill="none" stroke-width=".625" stroke-linecap="round" stroke="#bfbfbf" stroke-dasharray="12.5,18.75" stroke-miterlimit="10"/></g><g clip-path="url(#m)"><path d="M21 21.09h340" fill="none" stroke-width=".625" stroke-linecap="round" stroke="#bfbfbf" stroke-dasharray="12.5,18.75" stroke-miterlimit="10"/></g><path d="M21 264.5h340" fill="none" stroke-width="1.25" stroke-linecap="square" stroke="#000" stroke-miterlimit="10"/><path d="M21 264.5v-5m8.5 5V262m8.5 2.5V262m8.5 2.5V262m8.5 2.5V262m8.5 2.5V262m8.5 2.5V262m8.5 2.5V262m8.5 2.5V262m8.5 2.5V262m8.5 2.5v-5m8.5 5V262m8.5 2.5V262m8.5 2.5V262m8.5 2.5V262m8.5 2.5V262m8.5 2.5V262m8.5 2.5V262m8.5 2.5V262m8.5 2.5V262m8.5 2.5v-5m8.5 5V262m8.5 2.5V262m8.5 2.5V262m8.5 2.5V262m8.5 2.5V262m8.5 2.5V262m8.5 2.5V262m8.5 2.5V262m8.5 2.5V262m8.5 2.5v-5m8.5 5V262m8.5 2.5V262m8.5 2.5V262m8.5 2.5V262m8.5 2.5V262m8.5 2.5V262m8.5 2.5V262m8.5 2.5V262m8.5 2.5V262m8.5 2.5v-5" fill="none" stroke-width=".625" stroke="#000" stroke-miterlimit="10"/><use xlink:href="#n" x="13.078" y="274.5"/><use xlink:href="#o" x="17.248" y="274.5"/><use xlink:href="#n" x="19.333" y="274.5"/><use xlink:href="#n" x="23.503" y="274.5"/><use xlink:href="#n" x="98.078" y="274.5"/><use xlink:href="#o" x="102.248" y="274.5"/><use xlink:href="#p" x="104.333" y="274.5"/><use xlink:href="#q" x="108.503" y="274.5"/><use xlink:href="#n" x="183.703" y="274.5"/><use xlink:href="#o" x="187.873" y="274.5"/><use xlink:href="#q" x="189.958" y="274.5"/><use xlink:href="#n" x="194.128" y="274.5"/><use xlink:href="#n" x="268.703" y="274.5"/><use xlink:href="#o" x="272.873" y="274.5"/><use xlink:href="#r" x="274.958" y="274.5"/><use xlink:href="#q" x="279.128" y="274.5"/><use xlink:href="#s" x="353.703" y="274.5"/><use xlink:href="#o" x="357.873" y="274.5"/><use xlink:href="#n" x="359.958" y="274.5"/><use xlink:href="#n" x="364.128" y="274.5"/><path d="M21 9.5h340" fill="none" stroke-width="1.25" stroke-linecap="square" stroke="#000" stroke-miterlimit="10"/><path d="M21 9.5v5m8.5-5V12M38 9.5V12m8.5-2.5V12M55 9.5V12m8.5-2.5V12M72 9.5V12m8.5-2.5V12M89 9.5V12m8.5-2.5V12m8.5-2.5v5m8.5-5V12m8.5-2.5V12m8.5-2.5V12m8.5-2.5V12m8.5-2.5V12m8.5-2.5V12m8.5-2.5V12m8.5-2.5V12m8.5-2.5V12m8.5-2.5v5m8.5-5V12m8.5-2.5V12m8.5-2.5V12m8.5-2.5V12m8.5-2.5V12m8.5-2.5V12m8.5-2.5V12m8.5-2.5V12m8.5-2.5V12m8.5-2.5v5m8.5-5V12m8.5-2.5V12m8.5-2.5V12m8.5-2.5V12m8.5-2.5V12m8.5-2.5V12m8.5-2.5V12m8.5-2.5V12m8.5-2.5V12m8.5-2.5v5" fill="none" stroke-width=".625" stroke="#000" stroke-miterlimit="10"/><use xlink:href="#n" x="13.078" y="6.375"/><use xlink:href="#o" x="17.248" y="6.375"/><use xlink:href="#n" x="19.333" y="6.375"/><use xlink:href="#n" x="23.503" y="6.375"/><use xlink:href="#n" x="98.078" y="6.375"/><use xlink:href="#o" x="102.248" y="6.375"/><use xlink:href="#p" x="104.333" y="6.375"/><use xlink:href="#q" x="108.503" y="6.375"/><use xlink:href="#n" x="183.703" y="6.375"/><use xlink:href="#o" x="187.873" y="6.375"/><use xlink:href="#q" x="189.958" y="6.375"/><use xlink:href="#n" x="194.128" y="6.375"/><use xlink:href="#n" x="268.703" y="6.375"/><use xlink:href="#o" x="272.873" y="6.375"/><use xlink:href="#r" x="274.958" y="6.375"/><use xlink:href="#q" x="279.128" y="6.375"/><use xlink:href="#s" x="353.703" y="6.375"/><use xlink:href="#o" x="357.873" y="6.375"/><use xlink:href="#n" x="359.958" y="6.375"/><use xlink:href="#n" x="364.128" y="6.375"/><path d="M21 264.5V9.5" fill="none" stroke-width="1.25" stroke-linecap="square" stroke="#000" stroke-miterlimit="10"/><path d="M21 262.18h2.5m-2.5-4.633h2.5M21 252.91h5m-5-4.637h2.5m-2.5-4.636h2.5M21 239h2.5m-2.5-4.637h2.5m-2.5-4.636h2.5M21 225.09h2.5m-2.5-4.637h2.5m-2.5-4.637h2.5M21 211.18h2.5m-2.5-4.633h5m-5-4.637h2.5m-2.5-4.637h2.5m-2.5-4.636h2.5M21 188h2.5m-2.5-4.637h2.5m-2.5-4.636h2.5M21 174.09h2.5m-2.5-4.637h2.5m-2.5-4.637h2.5m-2.5-4.632h5m-5-4.637h2.5M21 150.91h2.5m-2.5-4.637h2.5m-2.5-4.636h2.5M21 137h2.5m-2.5-4.637h2.5m-2.5-4.636h2.5M21 123.09h2.5m-2.5-4.637h2.5m-2.5-4.637h5m-5-4.632h2.5m-2.5-4.637h2.5M21 99.91h2.5M21 95.273h2.5M21 90.637h2.5M21 86h2.5M21 81.363h2.5M21 76.727h2.5M21 72.09h2.5M21 67.453h5m-5-4.637h2.5M21 58.184h2.5M21 53.547h2.5M21 48.91h2.5M21 44.273h2.5M21 39.637h2.5M21 35h2.5M21 30.363h2.5M21 25.727h2.5M21 21.09h5m-5-4.637h2.5M21 11.816h2.5" fill="none" stroke-width=".625" stroke="#000" stroke-miterlimit="10"/><use xlink:href="#n" x="3.701" y="256.375"/><use xlink:href="#o" x="7.871" y="256.375"/><use xlink:href="#n" x="9.956" y="256.375"/><use xlink:href="#p" x="3.701" y="210.125"/><use xlink:href="#o" x="7.871" y="210.125"/><use xlink:href="#q" x="9.956" y="210.125"/><use xlink:href="#q" x="3.701" y="163.875"/><use xlink:href="#o" x="7.871" y="163.875"/><use xlink:href="#n" x="9.956" y="163.875"/><use xlink:href="#r" x="3.701" y="117"/><use xlink:href="#o" x="7.871" y="117"/><use xlink:href="#q" x="9.956" y="117"/><use xlink:href="#s" x="-.469" y="70.75"/><use xlink:href="#n" x="3.701" y="70.75"/><use xlink:href="#o" x="7.871" y="70.75"/><use xlink:href="#n" x="9.956" y="70.75"/><use xlink:href="#s" x="-.469" y="24.5"/><use xlink:href="#p" x="3.701" y="24.5"/><use xlink:href="#o" x="7.871" y="24.5"/><use xlink:href="#q" x="9.956" y="24.5"/><path d="M361 264.5V9.5" fill="none" stroke-width="1.25" stroke-linecap="square" stroke="#000" stroke-miterlimit="10"/><path d="M361 262.18h-2.5m2.5-4.633h-2.5m2.5-4.637h-5m5-4.637h-2.5m2.5-4.636h-2.5M361 239h-2.5m2.5-4.637h-2.5m2.5-4.636h-2.5m2.5-4.637h-2.5m2.5-4.637h-2.5m2.5-4.637h-2.5m2.5-4.636h-2.5m2.5-4.633h-5m5-4.637h-2.5m2.5-4.637h-2.5m2.5-4.636h-2.5M361 188h-2.5m2.5-4.637h-2.5m2.5-4.636h-2.5m2.5-4.637h-2.5m2.5-4.637h-2.5m2.5-4.637h-2.5m2.5-4.632h-5m5-4.637h-2.5m2.5-4.637h-2.5m2.5-4.637h-2.5m2.5-4.636h-2.5M361 137h-2.5m2.5-4.637h-2.5m2.5-4.636h-2.5m2.5-4.637h-2.5m2.5-4.637h-2.5m2.5-4.637h-5m5-4.632h-2.5m2.5-4.637h-2.5m2.5-4.637h-2.5m2.5-4.637h-2.5m2.5-4.636h-2.5M361 86h-2.5m2.5-4.637h-2.5m2.5-4.636h-2.5m2.5-4.637h-2.5m2.5-4.637h-5m5-4.637h-2.5m2.5-4.632h-2.5m2.5-4.637h-2.5m2.5-4.637h-2.5m2.5-4.637h-2.5m2.5-4.636h-2.5M361 35h-2.5m2.5-4.637h-2.5m2.5-4.636h-2.5m2.5-4.637h-5m5-4.637h-2.5m2.5-4.637h-2.5" fill="none" stroke-width=".625" stroke="#000" stroke-miterlimit="10"/><use xlink:href="#n" x="367.25" y="256.375"/><use xlink:href="#o" x="371.42" y="256.375"/><use xlink:href="#n" x="373.505" y="256.375"/><use xlink:href="#p" x="367.25" y="210.125"/><use xlink:href="#o" x="371.42" y="210.125"/><use xlink:href="#q" x="373.505" y="210.125"/><use xlink:href="#q" x="367.25" y="163.875"/><use xlink:href="#o" x="371.42" y="163.875"/><use xlink:href="#n" x="373.505" y="163.875"/><use xlink:href="#r" x="367.25" y="117"/><use xlink:href="#o" x="371.42" y="117"/><use xlink:href="#q" x="373.505" y="117"/><use xlink:href="#s" x="367.25" y="70.75"/><use xlink:href="#n" x="371.42" y="70.75"/><use xlink:href="#o" x="375.59" y="70.75"/><use xlink:href="#n" x="377.675" y="70.75"/><use xlink:href="#s" x="367.25" y="24.5"/><use xlink:href="#p" x="371.42" y="24.5"/><use xlink:href="#o" x="375.59" y="24.5"/><use xlink:href="#q" x="377.675" y="24.5"/><g clip-path="url(#t)"><path d="M21 252.91l.625-1.703.625-1.695.625-1.688.625-1.683.625-1.676.625-1.672.625-1.664.625-1.656.625-1.653.625-1.644.625-1.637.625-1.633.625-1.625.625-1.62.625-1.614.625-1.61.625-1.601.625-1.594.625-1.59.625-1.582.625-1.574.625-1.57.625-1.563.625-1.558.625-1.551.625-1.547 1.25-3.07.625-1.524.625-1.52.625-1.515 1.25-3.008.625-1.492.625-1.488.625-1.485.625-1.476.625-1.469.625-1.46.625-1.458.625-1.453.625-1.445.625-1.438.625-1.43.625-1.425.625-1.422 1.25-2.82.625-1.399.625-1.394.625-1.387.625-1.383.625-1.375.625-1.371.625-1.363.625-1.356.625-1.351.625-1.344.625-1.34.625-1.332.625-1.324.625-1.317.625-1.312.625-1.309.625-1.3.625-1.293.625-1.29.625-1.28.625-1.274.625-1.27.625-1.261.625-1.258.625-1.25.625-1.246.625-1.239.625-1.23.625-1.223.625-1.218.625-1.215.625-1.207.625-1.2.625-1.195.625-1.187.625-1.18.625-1.176.625-1.168.625-1.164.625-1.156.625-1.149.625-1.144.625-1.137.625-1.129.625-1.125.625-1.12.625-1.114.625-1.106.625-1.097.625-1.094.625-1.09.625-1.078.625-1.074.625-1.07.625-1.063.625-1.055.625-1.05.625-1.043.625-1.04.625-1.03.625-1.024.625-1.02 1.25-2.015.625-1 .625-.993.625-.988.625-.98.625-.973.625-.969.625-.964.625-.954.625-.949.625-.945.625-.938.625-.93.625-.921.625-.918.625-.914.625-.906.625-.899.625-.894 1.25-1.766.625-.875.625-.867.625-.864 1.25-1.703 1.25-1.68.625-.828.625-.824.625-.82 1.25-1.617.625-.797.625-.793.625-.785.625-.781.625-.774.625-.77.625-.761.625-.754.625-.75.625-.742.625-.735.625-.73.625-.727.625-.714.625-.711.625-.707.625-.7.625-.691.625-.688.625-.68.625-.671.625-.668.625-.66.625-.657.625-.648.625-.64.625-.637.625-.63.625-.624.625-.617.625-.614 1.25-1.203.625-.59.625-.586.625-.582.625-.57.625-.566.625-.563.625-.555.625-.546.625-.543.625-.536.625-.53.625-.524.625-.516.625-.512.625-.503.625-.5.625-.493.625-.484.625-.48.625-.473.625-.465.625-.46.625-.454.625-.45.625-.44.625-.438.625-.43.625-.422.625-.418.625-.41.625-.402.625-.399.625-.39.625-.387.625-.379.625-.375 1.25-.726.625-.352.625-.348.625-.343.625-.336.625-.328.625-.32.625-.317.625-.313.625-.304.625-.297.625-.29.625-.284.625-.282.625-.273.625-.266.625-.258.625-.254.625-.25.625-.242.625-.234.625-.227.625-.222.625-.215.625-.211.625-.203.625-.2.625-.19.625-.184.625-.18.625-.172.625-.164.625-.16.625-.156.625-.149.625-.14.625-.133.625-.13.625-.12.625-.118.625-.109.625-.101.625-.098.625-.094.625-.082.625-.078.625-.074.625-.067.625-.058.625-.055.625-.047.625-.039.625-.035.625-.027.625-.024.625-.015.625-.008.625-.004.625.004.625.008.625.015.625.024.625.027.625.035.625.04.625.046.625.055.625.058.625.067.625.074.625.078.625.082.625.094.625.098.625.101.625.11.625.117.625.12.625.13.625.132.625.141.625.149.625.156.625.16.625.164.625.172.625.18.625.183.625.192.625.199.625.203.625.21.625.216.625.222.625.227.625.234.625.242.625.25.625.254.625.258.625.266.625.273.625.282.625.285.625.289.625.297.625.304.625.313.625.316.625.32.625.329.625.336.625.343.625.348.625.352 1.25.726.625.375.625.379.625.387.625.39.625.399.625.402.625.41.625.418.625.422.625.43.625.437.625.442.625.449.625.453.625.461.625.465.625.473.625.48.625.484.625.493.625.5.625.503.625.512.625.516.625.523.625.531.625.536.625.543.625.546.625.555.625.563.625.566.625.57.625.582.625.586.625.59 1.25 1.203.625.614.625.617.625.625.625.629.625.636.625.641.625.648.625.657.625.66.625.668.625.672.625.68.625.687.625.691.625.7.625.707.625.71.625.715.625.727.625.73.625.735.625.742.625.75.625.754.625.762.625.77.625.773.625.78.625.786.625.793.625.797 1.25 1.617.625.82.625.824.625.829 1.25 1.68 1.25 1.702.625.864.625.867.625.875 1.25 1.766.625.894.625.898.625.907.625.914.625.918.625.922.625.93.625.937.625.945.625.95.625.953.625.964.625.97.625.972.625.98.625.989.625.992.625 1 1.25 2.015.625 1.02.625 1.023.625 1.032.625 1.039.625 1.043.625 1.05.625 1.055.625 1.063.625 1.07.625 1.074.625 1.078.625 1.09.625 1.094.625 1.097.625 1.106.625 1.113.625 1.121.625 1.125.625 1.13.625 1.136.625 1.144.625 1.149.625 1.156.625 1.164.625 1.168.625 1.176.625 1.18.625 1.187.625 1.195.625 1.2.625 1.207.625 1.215.625 1.218.625 1.223.625 1.23.625 1.239.625 1.246.625 1.25.625 1.258.625 1.261.625 1.27.625 1.273.625 1.282.625 1.289.625 1.293.625 1.3.625 1.309.625 1.312.625 1.317.625 1.324.625 1.332.625 1.34.625 1.344.625 1.351.625 1.356.625 1.363.625 1.371.625 1.375.625 1.383.625 1.387.625 1.394.625 1.399 1.25 2.82.625 1.422.625 1.426.625 1.43.625 1.437.625 1.445.625 1.453.625 1.457.625 1.461.625 1.469.625 1.476.625 1.485.625 1.488.625 1.492 1.25 3.008.625 1.516.625 1.52.625 1.523 1.25 3.07.625 1.547.625 1.55.625 1.56.625 1.562.625 1.57.625 1.574.625 1.582.625 1.59.625 1.594.625 1.601.625 1.61.625 1.613.625 1.621.625 1.625.625 1.633.625 1.637.625 1.644.625 1.653.625 1.656.625 1.664.625 1.672.625 1.676.625 1.683.625 1.688.625 1.695.625 1.703" fill="none" stroke-width="1.25" stroke-linecap="round" stroke-linejoin="round" stroke="#00008b" stroke-miterlimit="10"/></g></svg>