<svg xmlns="http://www.w3.org/2000/svg" xmlns:xlink="http://www.w3.org/1999/xlink" width="516" height="275pt" viewBox="0 0 387 275"><defs><clipPath id="x"><path d="M24 9.5h340v255H24zm0 0"/></clipPath><clipPath id="k"><path d="M24 218h340v2H24zm0 0"/></clipPath><clipPath id="p"><path d="M24 31h340v1H24zm0 0"/></clipPath><clipPath id="o"><path d="M24 68h340v2H24zm0 0"/></clipPath><clipPath id="n"><path d="M24 106h340v1H24zm0 0"/></clipPath><clipPath id="m"><path d="M24 143h340v2H24zm0 0"/></clipPath><clipPath id="l"><path d="M24 181h340v1H24zm0 0"/></clipPath><clipPath id="a"><path d="M24 9.5h1v255h-1zm0 0"/></clipPath><clipPath id="b"><path d="M24 256h340v1H24zm0 0"/></clipPath><clipPath id="c"><path d="M24 9.5h1v255h-1zm0 0"/></clipPath><clipPath id="d"><path d="M80 9.5h1v255h-1zm0 0"/></clipPath><clipPath id="e"><path d="M137 9.5h1v255h-1zm0 0"/></clipPath><clipPath id="f"><path d="M193 9.5h2v255h-2zm0 0"/></clipPath><clipPath id="g"><path d="M250 9.5h1v255h-1zm0 0"/></clipPath><clipPath id="h"><path d="M307 9.5h1v255h-1zm0 0"/></clipPath><clipPath id="i"><path d="M363 9.5h1v255h-1zm0 0"/></clipPath><clipPath id="j"><path d="M24 256h340v1H24zm0 0"/></clipPath><symbol overflow="visible" id="r"><path d="M1.938-3.781V0h.671v-5.313h-.437c-.235.813-.39.922-1.406 1.047v.485zm0 0"/></symbol><symbol overflow="visible" id="w"><path d="M3.734-3.938c-.125-.859-.703-1.374-1.5-1.374-.593 0-1.109.28-1.437.75-.328.515-.469 1.171-.469 2.14 0 .89.125 1.469.438 1.938.296.421.75.656 1.343.656 1.016 0 1.735-.75 1.735-1.797 0-.984-.672-1.688-1.625-1.688-.531 0-.938.204-1.219.594 0-1.297.422-2.015 1.188-2.015.453 0 .78.296.89.796zm-1.593 1.22c.64 0 1.03.437 1.03 1.155 0 .657-.452 1.157-1.062 1.157-.609 0-1.078-.516-1.078-1.203 0-.657.453-1.11 1.11-1.11zm0 0"/></symbol><symbol overflow="visible" id="v"><path d="M3.563-5.313H.828L.422-2.421h.61c.312-.375.562-.5.984-.5.703 0 1.156.485 1.156 1.281 0 .766-.438 1.235-1.156 1.235-.579 0-.938-.297-1.094-.906H.266c.093.437.156.656.312.843.313.406.844.64 1.453.64 1.063 0 1.813-.78 1.813-1.905 0-1.047-.688-1.766-1.719-1.766-.375 0-.672.094-.984.313l.218-1.485h2.204zm0 0"/></symbol><symbol overflow="visible" id="u"><path d="M2.453-1.281V0h.656v-1.281h.797v-.594H3.11v-3.438h-.484L.203-1.969v.688zm0-.594H.781l1.672-2.313zm0 0"/></symbol><symbol overflow="visible" id="t"><path d="M1.656-2.438h.36c.734 0 1.109.329 1.109.954 0 .671-.422 1.078-1.11 1.078-.718 0-1.078-.36-1.109-1.14H.234c.032.421.11.702.235.952.281.5.797.766 1.531.766 1.094 0 1.797-.656 1.797-1.656 0-.672-.266-1.047-.906-1.266.5-.203.75-.578.75-1.11 0-.906-.61-1.453-1.625-1.453-1.079 0-1.641.579-1.657 1.72h.657c0-.329.03-.516.109-.673.156-.296.484-.468.906-.468.578 0 .938.343.938.906 0 .375-.14.594-.438.719-.172.078-.406.109-.875.109zm0 0"/></symbol><symbol overflow="visible" id="s"><path d="M3.797-.656H1c.063-.438.313-.703.953-1.094l.75-.406c.75-.406 1.125-.953 1.125-1.594 0-.453-.172-.86-.484-1.14-.328-.298-.719-.423-1.219-.423-.672 0-1.172.235-1.469.688-.187.281-.265.61-.281 1.156h.656c.032-.36.078-.578.157-.75.171-.328.515-.515.921-.515.594 0 1.047.421 1.047.984 0 .422-.25.781-.719 1.063l-.687.39C.64-1.672.312-1.172.25 0h3.547zm0 0"/></symbol><symbol overflow="visible" id="q"><path d="M2.063-5.313c-.5 0-.938.22-1.22.579C.5-4.266.329-3.563.329-2.578c0 1.797.594 2.75 1.734 2.75 1.126 0 1.735-.953 1.735-2.703 0-1.031-.156-1.719-.516-2.203-.281-.375-.719-.579-1.219-.579zm0 .579c.718 0 1.062.718 1.062 2.14 0 1.516-.344 2.219-1.078 2.219C1.344-.375 1-1.109 1-2.563c0-1.453.344-2.171 1.063-2.171zm0 0"/></symbol></defs><g clip-path="url(#a)"><path d="M24 264.5V9.5" fill="none" stroke-width=".625" stroke-linecap="round" stroke="#bfbfbf" stroke-miterlimit="10"/></g><g clip-path="url(#b)"><path d="M24 256.66h340" fill="none" stroke-width=".625" stroke-linecap="round" stroke="#bfbfbf" stroke-miterlimit="10"/></g><g clip-path="url(#c)"><path d="M24 264.5V9.5" fill="none" stroke-width=".625" stroke-linecap="round" stroke="#bfbfbf" stroke-dasharray="12.5,18.75" stroke-miterlimit="10"/></g><g clip-path="url(#d)"><path d="M80.668 264.5V9.5" fill="none" stroke-width=".625" stroke-linecap="round" stroke="#bfbfbf" stroke-dasharray="12.5,18.75" stroke-miterlimit="10"/></g><g clip-path="url(#e)"><path d="M137.332 264.5V9.5" fill="none" stroke-width=".625" stroke-linecap="round" stroke="#bfbfbf" stroke-dasharray="12.5,18.75" stroke-miterlimit="10"/></g><g clip-path="url(#f)"><path d="M194 264.5V9.5" fill="none" stroke-width=".625" stroke-linecap="round" stroke="#bfbfbf" stroke-dasharray="12.5,18.75" stroke-miterlimit="10"/></g><g clip-path="url(#g)"><path d="M250.668 264.5V9.5" fill="none" stroke-width=".625" stroke-linecap="round" stroke="#bfbfbf" stroke-dasharray="12.5,18.75" stroke-miterlimit="10"/></g><g clip-path="url(#h)"><path d="M307.332 264.5V9.5" fill="none" stroke-width=".625" stroke-linecap="round" stroke="#bfbfbf" stroke-dasharray="12.5,18.75" stroke-miterlimit="10"/></g><g clip-path="url(#i)"><path d="M364 264.5V9.5" fill="none" stroke-width=".625" stroke-linecap="round" stroke="#bfbfbf" stroke-dasharray="12.5,18.75" stroke-miterlimit="10"/></g><g clip-path="url(#j)"><path d="M24 256.66h340" fill="none" stroke-width=".625" stroke-linecap="round" stroke="#bfbfbf" stroke-dasharray="12.5,18.75" stroke-miterlimit="10"/></g><g clip-path="url(#k)"><path d="M24 219.152h340" fill="none" stroke-width=".625" stroke-linecap="round" stroke="#bfbfbf" stroke-dasharray="12.5,18.75" stroke-miterlimit="10"/></g><g clip-path="url(#l)"><path d="M24 181.64h340" fill="none" stroke-width=".625" stroke-linecap="round" stroke="#bfbfbf" stroke-dasharray="12.5,18.75" stroke-miterlimit="10"/></g><g clip-path="url(#m)"><path d="M24 144.133h340" fill="none" stroke-width=".625" stroke-linecap="round" stroke="#bfbfbf" stroke-dasharray="12.5,18.75" stroke-miterlimit="10"/></g><g clip-path="url(#n)"><path d="M24 106.621h340" fill="none" stroke-width=".625" stroke-linecap="round" stroke="#bfbfbf" stroke-dasharray="12.5,18.75" stroke-miterlimit="10"/></g><g clip-path="url(#o)"><path d="M24 69.113h340" fill="none" stroke-width=".625" stroke-linecap="round" stroke="#bfbfbf" stroke-dasharray="12.5,18.75" stroke-miterlimit="10"/></g><g clip-path="url(#p)"><path d="M24 31.605h340" fill="none" stroke-width=".625" stroke-linecap="round" stroke="#bfbfbf" stroke-dasharray="12.5,18.75" stroke-miterlimit="10"/></g><path d="M24 264.5h340" fill="none" stroke-width="1.25" stroke-linecap="square" stroke="#000" stroke-miterlimit="10"/><path d="M24 264.5v-5m5.668 5V262m5.664 2.5V262M41 264.5V262m5.668 2.5V262m5.664 2.5V262M58 264.5V262m5.668 2.5V262m5.664 2.5V262M75 264.5V262m5.668 2.5v-5m5.664 5V262M92 264.5V262m5.668 2.5V262m5.664 2.5V262m5.668 2.5V262m5.668 2.5V262m5.664 2.5V262m5.668 2.5V262m5.668 2.5V262m5.664 2.5v-5m5.668 5V262m5.668 2.5V262m5.664 2.5V262m5.668 2.5V262m5.668 2.5V262m5.664 2.5V262m5.668 2.5V262m5.668 2.5V262m5.664 2.5V262m5.668 2.5v-5m5.668 5V262m5.664 2.5V262m5.668 2.5V262m5.668 2.5V262m5.664 2.5V262m5.668 2.5V262m5.668 2.5V262m5.664 2.5V262m5.668 2.5V262m5.668 2.5v-5m5.664 5V262m5.668 2.5V262m5.668 2.5V262m5.664 2.5V262m5.668 2.5V262m5.668 2.5V262m5.664 2.5V262m5.668 2.5V262m5.668 2.5V262m5.664 2.5v-5m5.668 5V262m5.668 2.5V262m5.664 2.5V262m5.668 2.5V262m5.668 2.5V262m5.664 2.5V262m5.668 2.5V262m5.668 2.5V262m5.664 2.5V262m5.668 2.5v-5" fill="none" stroke-width=".625" stroke="#000" stroke-miterlimit="10"/><use xlink:href="#q" x="21.29" y="274.5"/><use xlink:href="#r" x="76.08" y="274.5"/><use xlink:href="#q" x="80.25" y="274.5"/><use xlink:href="#s" x="132.955" y="274.5"/><use xlink:href="#q" x="137.125" y="274.5"/><use xlink:href="#t" x="189.83" y="274.5"/><use xlink:href="#q" x="194" y="274.5"/><use xlink:href="#u" x="246.08" y="274.5"/><use xlink:href="#q" x="250.25" y="274.5"/><use xlink:href="#v" x="302.955" y="274.5"/><use xlink:href="#q" x="307.125" y="274.5"/><use xlink:href="#w" x="359.83" y="274.5"/><use xlink:href="#q" x="364" y="274.5"/><path d="M24 9.5h340" fill="none" stroke-width="1.25" stroke-linecap="square" stroke="#000" stroke-miterlimit="10"/><path d="M24 9.5v5m5.668-5V12m5.664-2.5V12M41 9.5V12m5.668-2.5V12m5.664-2.5V12M58 9.5V12m5.668-2.5V12m5.664-2.5V12M75 9.5V12m5.668-2.5v5m5.664-5V12M92 9.5V12m5.668-2.5V12m5.664-2.5V12M109 9.5V12m5.668-2.5V12m5.664-2.5V12M126 9.5V12m5.668-2.5V12m5.664-2.5v5m5.668-5V12m5.668-2.5V12m5.664-2.5V12M160 9.5V12m5.668-2.5V12m5.664-2.5V12M177 9.5V12m5.668-2.5V12m5.664-2.5V12M194 9.5v5m5.668-5V12m5.664-2.5V12M211 9.5V12m5.668-2.5V12m5.664-2.5V12M228 9.5V12m5.668-2.5V12m5.664-2.5V12M245 9.5V12m5.668-2.5v5m5.664-5V12M262 9.5V12m5.668-2.5V12m5.664-2.5V12M279 9.5V12m5.668-2.5V12m5.664-2.5V12M296 9.5V12m5.668-2.5V12m5.664-2.5v5m5.668-5V12m5.668-2.5V12m5.664-2.5V12M330 9.5V12m5.668-2.5V12m5.664-2.5V12M347 9.5V12m5.668-2.5V12m5.664-2.5V12M364 9.5v5" fill="none" stroke-width=".625" stroke="#000" stroke-miterlimit="10"/><use xlink:href="#q" x="21.29" y="6.375"/><use xlink:href="#r" x="76.08" y="6.375"/><use xlink:href="#q" x="80.25" y="6.375"/><use xlink:href="#s" x="132.955" y="6.375"/><use xlink:href="#q" x="137.125" y="6.375"/><use xlink:href="#t" x="189.83" y="6.375"/><use xlink:href="#q" x="194" y="6.375"/><use xlink:href="#u" x="246.08" y="6.375"/><use xlink:href="#q" x="250.25" y="6.375"/><use xlink:href="#v" x="302.955" y="6.375"/><use xlink:href="#q" x="307.125" y="6.375"/><use xlink:href="#w" x="359.83" y="6.375"/><use xlink:href="#q" x="364" y="6.375"/><path d="M24 264.5V9.5" fill="none" stroke-width="1.25" stroke-linecap="square" stroke="#000" stroke-miterlimit="10"/><path d="M24 264.16h2.5m-2.5-3.75h2.5m-2.5-3.75h5m-5-3.75h2.5m-2.5-3.754h2.5m-2.5-3.75h2.5m-2.5-3.75h2.5m-2.5-3.75h2.5m-2.5-3.75h2.5m-2.5-3.754h2.5m-2.5-3.75h2.5m-2.5-3.75h2.5m-2.5-3.75h5m-5-3.754h2.5m-2.5-3.75h2.5m-2.5-3.75h2.5m-2.5-3.75h2.5m-2.5-3.753h2.5m-2.5-3.75h2.5m-2.5-3.75h2.5m-2.5-3.75h2.5M24 185.39h2.5m-2.5-3.75h5m-5-3.75h2.5m-2.5-3.75h2.5m-2.5-3.75h2.5m-2.5-3.754h2.5m-2.5-3.75h2.5m-2.5-3.75h2.5m-2.5-3.75h2.5m-2.5-3.754h2.5m-2.5-3.75h2.5m-2.5-3.75h5m-5-3.75h2.5m-2.5-3.754h2.5m-2.5-3.75h2.5m-2.5-3.75h2.5m-2.5-3.75h2.5m-2.5-3.754h2.5m-2.5-3.75h2.5m-2.5-3.75h2.5M24 110.37h2.5m-2.5-3.75h5m-5-3.75h2.5M24 99.12h2.5M24 95.37h2.5M24 91.617h2.5m-2.5-3.75h2.5m-2.5-3.75h2.5m-2.5-3.75h2.5M24 76.613h2.5m-2.5-3.75h2.5m-2.5-3.75h5m-5-3.75h2.5M24 61.61h2.5M24 57.86h2.5M24 54.11h2.5M24 50.36h2.5M24 46.605h2.5m-2.5-3.75h2.5m-2.5-3.75h2.5m-2.5-3.75h2.5m-2.5-3.75h5m-5-3.753h2.5m-2.5-3.75h2.5m-2.5-3.75h2.5m-2.5-3.75h2.5M24 12.848h2.5" fill="none" stroke-width=".625" stroke="#000" stroke-miterlimit="10"/><use xlink:href="#q" x="12.955" y="260.125"/><use xlink:href="#r" x=".445" y="222.625"/><use xlink:href="#q" x="4.615" y="222.625"/><use xlink:href="#q" x="8.785" y="222.625"/><use xlink:href="#q" x="12.955" y="222.625"/><use xlink:href="#s" x=".445" y="185.125"/><use xlink:href="#q" x="4.615" y="185.125"/><use xlink:href="#q" x="8.785" y="185.125"/><use xlink:href="#q" x="12.955" y="185.125"/><use xlink:href="#t" x=".445" y="147.625"/><use xlink:href="#q" x="4.615" y="147.625"/><use xlink:href="#q" x="8.785" y="147.625"/><use xlink:href="#q" x="12.955" y="147.625"/><use xlink:href="#u" x=".445" y="110.125"/><use xlink:href="#q" x="4.615" y="110.125"/><use xlink:href="#q" x="8.785" y="110.125"/><use xlink:href="#q" x="12.955" y="110.125"/><use xlink:href="#v" x=".445" y="72.625"/><use xlink:href="#q" x="4.615" y="72.625"/><use xlink:href="#q" x="8.785" y="72.625"/><use xlink:href="#q" x="12.955" y="72.625"/><use xlink:href="#w" x=".445" y="35.125"/><use xlink:href="#q" x="4.615" y="35.125"/><use xlink:href="#q" x="8.785" y="35.125"/><use xlink:href="#q" x="12.955" y="35.125"/><path d="M364 264.5V9.5" fill="none" stroke-width="1.25" stroke-linecap="square" stroke="#000" stroke-miterlimit="10"/><path d="M364 264.16h-2.5m2.5-3.75h-2.5m2.5-3.75h-5m5-3.75h-2.5m2.5-3.754h-2.5m2.5-3.75h-2.5m2.5-3.75h-2.5m2.5-3.75h-2.5m2.5-3.75h-2.5m2.5-3.754h-2.5m2.5-3.75h-2.5m2.5-3.75h-2.5m2.5-3.75h-5m5-3.754h-2.5m2.5-3.75h-2.5m2.5-3.75h-2.5m2.5-3.75h-2.5m2.5-3.753h-2.5m2.5-3.75h-2.5m2.5-3.75h-2.5m2.5-3.75h-2.5m2.5-3.754h-2.5m2.5-3.75h-5m5-3.75h-2.5m2.5-3.75h-2.5m2.5-3.75h-2.5m2.5-3.754h-2.5m2.5-3.75h-2.5m2.5-3.75h-2.5m2.5-3.75h-2.5m2.5-3.754h-2.5m2.5-3.75h-2.5m2.5-3.75h-5m5-3.75h-2.5m2.5-3.754h-2.5m2.5-3.75h-2.5m2.5-3.75h-2.5m2.5-3.75h-2.5m2.5-3.754h-2.5m2.5-3.75h-2.5m2.5-3.75h-2.5m2.5-3.754h-2.5m2.5-3.75h-5m5-3.75h-2.5m2.5-3.75h-2.5m2.5-3.75h-2.5m2.5-3.754h-2.5m2.5-3.75h-2.5m2.5-3.75h-2.5m2.5-3.75h-2.5m2.5-3.754h-2.5m2.5-3.75h-2.5m2.5-3.75h-5m5-3.75h-2.5m2.5-3.754h-2.5m2.5-3.75h-2.5m2.5-3.75h-2.5m2.5-3.75h-2.5m2.5-3.754h-2.5m2.5-3.75h-2.5m2.5-3.75h-2.5m2.5-3.75h-2.5m2.5-3.75h-5m5-3.753h-2.5m2.5-3.75h-2.5m2.5-3.75h-2.5m2.5-3.75h-2.5m2.5-3.754h-2.5" fill="none" stroke-width=".625" stroke="#000" stroke-miterlimit="10"/><use xlink:href="#q" x="370.25" y="260.125"/><use xlink:href="#r" x="370.25" y="222.625"/><use xlink:href="#q" x="374.42" y="222.625"/><use xlink:href="#q" x="378.59" y="222.625"/><use xlink:href="#q" x="382.76" y="222.625"/><use xlink:href="#s" x="370.25" y="185.125"/><use xlink:href="#q" x="374.42" y="185.125"/><use xlink:href="#q" x="378.59" y="185.125"/><use xlink:href="#q" x="382.76" y="185.125"/><use xlink:href="#t" x="370.25" y="147.625"/><use xlink:href="#q" x="374.42" y="147.625"/><use xlink:href="#q" x="378.59" y="147.625"/><use xlink:href="#q" x="382.76" y="147.625"/><use xlink:href="#u" x="370.25" y="110.125"/><use xlink:href="#q" x="374.42" y="110.125"/><use xlink:href="#q" x="378.59" y="110.125"/><use xlink:href="#q" x="382.76" y="110.125"/><use xlink:href="#v" x="370.25" y="72.625"/><use xlink:href="#q" x="374.42" y="72.625"/><use xlink:href="#q" x="378.59" y="72.625"/><use xlink:href="#q" x="382.76" y="72.625"/><use xlink:href="#w" x="370.25" y="35.125"/><use xlink:href="#q" x="374.42" y="35.125"/><use xlink:href="#q" x="378.59" y="35.125"/><use xlink:href="#q" x="382.76" y="35.125"/><g clip-path="url(#x)"><path d="M24 252.91l.625-.031 1.25-.055.625-.031.625-.027 1.875-.094.625-.027 3.75-.188.625-.035 1.25-.063.625-.035.625-.031.625-.035.625-.031 1.875-.106.625-.031 1.25-.07.625-.04 2.5-.14.625-.04.625-.034 1.25-.078.625-.036 3.75-.234.625-.043 1.25-.078.625-.043.625-.04 1.25-.085.625-.04 1.875-.128.625-.047 1.25-.086.625-.047.625-.043.625-.047.625-.043 4.375-.328.625-.05.625-.047 1.25-.102.625-.047 1.875-.152.625-.055 1.25-.101.625-.055.625-.05 4.375-.384 1.25-.117.625-.055 3.75-.351.625-.063.625-.058 3.75-.375.625-.067.625-.062 3.125-.332.625-.07 1.25-.133 2.5-.282.625-.074.625-.07.625-.074.625-.07 1.875-.223.625-.078.625-.075.625-.078.625-.074 1.875-.234.625-.082.625-.078 3.125-.41.625-.087.625-.082 2.5-.343.625-.09.625-.086 1.875-.27.625-.093.625-.09 3.125-.469 3.125-.488 3.125-.508.625-.106.625-.101 1.25-.211.625-.11.625-.105 1.875-.328.625-.113.625-.11 1.25-.226.625-.117.625-.114 1.875-.351.625-.121.625-.118 1.25-.242.625-.125.625-.12 1.25-.25.625-.13.625-.125 1.25-.258.625-.132.625-.13 1.25-.265.625-.137.625-.132 1.25-.274.625-.14.625-.137.625-.14.625-.145.625-.141 1.25-.289.625-.148.625-.145 1.25-.297 2.5-.61 1.25-.312.625-.16.625-.156 1.25-.32 1.875-.493 2.5-.672 1.25-.343 1.875-.528 2.5-.718.625-.184.625-.187.625-.184.625-.188 2.5-.765.625-.196.625-.199.625-.195.625-.2 1.875-.609 1.875-.62 1.25-.423 1.25-.43 1.875-.656 1.25-.445 1.25-.453 1.875-.691 1.25-.47 1.25-.476.625-.242.625-.246.625-.242.625-.246 1.25-.5 1.25-.508 1.25-.516 1.25-.523 1.25-.531 1.25-.54 1.25-.546 1.25-.555.625-.281.625-.285.625-.282 1.25-.578 1.25-.586.625-.297 1.875-.902.625-.309.625-.304 1.875-.938 1.875-.96.625-.325 1.25-.656.625-.332.625-.336.625-.34.625-.336 1.25-.687.625-.352.625-.348 1.25-.71 1.25-.72.625-.363.625-.367 1.25-.742.625-.375 1.25-.758 1.25-.773 1.25-.781.625-.395.625-.402.625-.399 1.25-.812 1.25-.828 1.25-.836 1.25-.852.625-.43.625-.433.625-.438 1.25-.882 1.25-.899.625-.457.625-.453.625-.465.625-.46.625-.47.625-.472 1.25-.953 1.25-.97.625-.487 1.25-.993.625-.5 1.25-1.015.625-.512.625-.516 1.25-1.046.625-.528 1.25-1.07.625-.54 1.25-1.093 1.25-1.11.625-.562.625-.566.625-.57.625-.575 1.25-1.164.625-.586.625-.593.625-.598.625-.602.625-.605 1.25-1.227.625-.62.625-.626.625-.629.625-.633.625-.64.625-.645.625-.648.625-.652.625-.66.625-.665.625-.668.625-.675.625-.68.625-.684.625-.691.625-.695.625-.7.625-.707.625-.71.625-.715.625-.723.625-.727.625-.734.625-.738.625-.746.625-.75.625-.754.625-.762.625-.766.625-.773.625-.781.625-.786.625-.789.625-.796.625-.805.625-.809.625-.816.625-.82.625-.829.625-.836.625-.84.625-.847.625-.856.625-.859.625-.867.625-.871.625-.88 1.25-1.78.625-.903.625-.906.625-.914.625-.922.625-.93.625-.933.625-.942.625-.949.625-.957.625-.965.625-.972.625-.977.625-.988.625-.992.625-1.004.625-1.008.625-1.02.625-1.023.625-1.031.625-1.04.625-1.05.625-1.055.625-1.066.625-1.07.625-1.083.625-1.09.625-1.097.625-1.106.625-1.113.625-1.125.625-1.129.625-1.14.625-1.149.625-1.156.625-1.168.625-1.176.625-1.183.625-1.192.625-1.203.625-1.21.625-1.223.625-1.23.625-1.24.625-1.245.625-1.262.625-1.266.625-1.28.625-1.286.625-1.297.625-1.309.625-1.316.625-1.328.625-1.336.625-1.348.625-1.359.625-1.367.625-1.38.625-1.39.625-1.398.625-1.41.625-1.422.625-1.434.625-1.441.625-1.453.625-1.47.625-1.476.625-1.488.625-1.496.625-1.512.625-1.523.625-1.531.625-1.547.625-1.559.625-1.566.625-1.582.625-1.594.625-1.606.625-1.617.625-1.629.625-1.644.625-1.656.625-1.668.625-1.68.625-1.692.625-1.707.625-1.718.625-1.735.625-1.746.625-1.758.625-1.77.625-1.788" fill="none" stroke-width="1.25" stroke-linecap="round" stroke="#00008b" stroke-miterlimit="10"/></g></svg>