<svg xmlns="http://www.w3.org/2000/svg" xmlns:xlink="http://www.w3.org/1999/xlink" width="217.659" height="109.336" viewBox="0 0 163.244 82.002"><defs><clipPath id="h"><path d="M102 20h60v61.504h-60zm0 0"/></clipPath><clipPath id="d"><path d="M42 20h61v61.504H42zm0 0"/></clipPath><clipPath id="m"><path d="M.5 81.504h163v-81H.5zm118.46-20.082l-1.8-1.2 5.942-13.921-2.82 11.043 8.878-7.14zm0 0"/></clipPath><clipPath id="l"><path d="M60 .504h61V42H60zm0 0"/></clipPath><clipPath id="k"><path d="M.5 81.504h163v-81H.5zm95.719-80.5l1.863 1.137-5.703 14.043L94.96 5.082l-8.7 7.32zm0 0"/></clipPath><clipPath id="j"><path d="M.5 11H49v63H.5zm0 0"/></clipPath><clipPath id="i"><path d="M.5 81.504h163v-81H.5zM24.64 32.8l1.86 1.14-5.762 13.98 2.64-11.038-8.757 7.258zm0 0"/></clipPath><clipPath id="a"><path d="M.5 81.504h163v-81H.5zM101.14 5.8L103 6.94l-5.762 13.98 2.64-11.038-8.757 7.258zm0 0"/></clipPath><clipPath id="b"><path d="M65 .504h61V47H65zm0 0"/></clipPath><clipPath id="c"><path d="M.5 81.504h163v-81H.5zm77.719-39.942l1.863 1.141-5.762 13.98 2.64-11.042-8.76 7.261zm0 0"/></clipPath><clipPath id="n"><path d="M94 20h61v61.504H94zm0 0"/></clipPath><clipPath id="e"><path d="M.5 81.504h163v-81H.5zm159.922-75.16l1.86 1.136-5.762 13.98 2.64-11.038-8.762 7.262zm0 0"/></clipPath><clipPath id="f"><path d="M124 .504h39.242V47H124zm0 0"/></clipPath><clipPath id="g"><path d="M.5 81.504h163v-81H.5zm137.059-39.461l1.863 1.14-5.762 13.981 2.64-11.043-8.76 7.262zm0 0"/></clipPath><symbol overflow="visible" id="q"><path d="M7.219-2.875v-.703H.78v.703zm0 0"/></symbol><symbol overflow="visible" id="s"><path d="M2.188-.64c0-.344-.329-.688-.704-.688-.359 0-.687.344-.687.687 0 .36.312.704.687.704.375 0 .704-.344.704-.704zm0 0"/></symbol><symbol overflow="visible" id="u"><path d="M5.594.031c-.032-.25-.032-.36-.032-.531 0-.156 0-.281.032-.547l-4.14.125L3.64-3.234c1.156-1.22 1.515-1.875 1.515-2.782 0-1.375-.937-2.218-2.453-2.218-.86 0-1.453.234-2.031.828l-.203 1.64h.344l.156-.562c.187-.688.625-.984 1.422-.984 1.03 0 1.687.64 1.687 1.656 0 .906-.5 1.781-1.86 3.218L.189-.28v.31C1.078.016 1.968 0 2.858 0c.907 0 1.829.016 2.735.031zm0 0"/></symbol><symbol overflow="visible" id="t"><path d="M5.484-3.031c0-1.344-.968-2.297-2.328-2.297-.578 0-1 .156-1.75.594l.11-2.5 3.64.062.063-.062c-.016-.22-.016-.282-.016-.47 0-.187 0-.25.016-.468l-.063-.062s-1.265.062-2.078.062C2.266-8.172 1-8.234 1-8.234l-.063.062.032 1.64c0 1.048-.031 2.157-.078 2.688l.25.063c.562-.563.875-.719 1.468-.719 1.141 0 1.86.813 1.86 2.094 0 1.328-.766 2.11-2.063 2.11-.656 0-1.25-.22-1.422-.532l-.546-.985-.282.172C.437-.953.578-.578.734-.047c.344.172.813.281 1.329.281.812 0 1.656-.343 2.312-.921.734-.641 1.11-1.454 1.11-2.344zm0 0"/></symbol><symbol overflow="visible" id="r"><path d="M5 .031v-.36l-.625-.03c-.656-.032-.781-.172-.781-.782v-7.093l-.156-.063c-.782.406-1.626.766-2.72 1.156l.079.5h.125l1.547-.687.031-.016c.063 0 .094.11.094.407v5.796c0 .61-.125.75-.781.782l-.672.03v.36C1.812.016 2.469 0 3.125 0c.61 0 1.25.016 1.875.031zm0 0"/></symbol><symbol overflow="visible" id="p"><path d="M.25-1.047c0 .234-.016.39-.094.766-.031.156-.031.187-.047.265.172.094.375.141.516.141.39 0 .86-.344 1.234-.906l.907-1.39.125.827C3.047-.328 3.328.125 3.75.125c.266 0 .656-.203 1.031-.547l.578-.516-.093-.234c-.438.36-.735.531-.922.531C4.156-.64 4-.75 3.89-.984a4.761 4.761 0 01-.313-1.032l-.203-1.203.422-.578c.547-.781.875-1.062 1.25-1.062.187 0 .328.109.39.28l.172-.046.172-1.016c-.14-.078-.25-.125-.36-.125-.468 0-.952.438-1.687 1.532l-.453.656-.062-.563c-.14-1.187-.469-1.625-1.172-1.625-.313 0-.578.094-.688.25l-.687 1 .203.11c.36-.407.594-.563.828-.563.39 0 .656.485.86 1.657l.124.75-.468.734C1.703-1.031 1.297-.641.953-.641.781-.64.641-.687.625-.75l-.14-.344zm0 0"/></symbol><symbol overflow="visible" id="o"><path d="M5.5-8.219L3.781-9.547l-.312.172.828.797H.219v.703h4.078l-.828.781.312.188zm0 0"/></symbol></defs><g clip-path="url(#a)" clip-rule="evenodd"><path d="M79 43.3l22.5-36" fill="none" stroke-width="1.8" stroke="#bebebe" stroke-miterlimit="10"/></g><g clip-path="url(#b)"><path d="M91.121 17.14l8.758-7.257-2.64 11.039" fill="none" stroke-width="1.8" stroke="#bebebe" stroke-miterlimit="10"/></g><g clip-path="url(#c)" clip-rule="evenodd"><path d="M56.082 79.063l22.5-36" fill="none" stroke-width="1.8" stroke="#bebebe" stroke-miterlimit="10"/></g><g clip-path="url(#d)"><path d="M68.2 52.902l8.76-7.261-2.64 11.043" fill="none" stroke-width="1.8" stroke="#bebebe" stroke-miterlimit="10"/></g><g clip-path="url(#e)" clip-rule="evenodd"><path d="M138.281 43.844l22.5-36" fill="none" stroke-width="1.8" stroke="#bebebe" stroke-miterlimit="10"/></g><g clip-path="url(#f)"><path d="M150.398 17.684l8.762-7.262-2.64 11.039" fill="none" stroke-width="1.8" stroke="#bebebe" stroke-miterlimit="10"/></g><g clip-path="url(#g)" clip-rule="evenodd"><path d="M115.422 79.543l22.5-36" fill="none" stroke-width="1.8" stroke="#bebebe" stroke-miterlimit="10"/></g><g clip-path="url(#h)"><path d="M127.54 53.383l8.76-7.262-2.64 11.043" fill="none" stroke-width="1.8" stroke="#bebebe" stroke-miterlimit="10"/></g><g clip-path="url(#i)" clip-rule="evenodd"><path d="M2.5 70.3l22.5-36" fill="none" stroke-width="1.8" stroke="#000" stroke-miterlimit="10"/></g><g clip-path="url(#j)"><path d="M14.621 44.14l8.758-7.257-2.64 11.039" fill="none" stroke-width="1.8" stroke="#000" stroke-miterlimit="10"/></g><g clip-path="url(#k)" clip-rule="evenodd"><path d="M52 74.8L96.582 2.505" fill="none" stroke-width="1.8" stroke="#000" stroke-miterlimit="10"/></g><g clip-path="url(#l)"><path d="M86.262 12.402l8.699-7.32-2.582 11.102" fill="none" stroke-width="1.8" stroke="#000" stroke-miterlimit="10"/></g><g clip-path="url(#m)" clip-rule="evenodd"><path d="M118.66 59.922l34.5-54.059" fill="none" stroke-width="1.8" stroke="#000" stroke-miterlimit="10"/></g><g clip-path="url(#n)"><path d="M129.16 50.203l-8.879 7.14 2.82-11.042" fill="none" stroke-width="1.8" stroke="#000" stroke-miterlimit="10"/></g><use xlink:href="#o" x="1.319" y="56.566"/><use xlink:href="#p" x=".405" y="56.781"/><use xlink:href="#q" x="107.213" y="25.281"/><use xlink:href="#r" x="115.211" y="25.281"/><use xlink:href="#s" x="121.38" y="25.281"/><use xlink:href="#t" x="124.572" y="25.281"/><use xlink:href="#o" x="131.823" y="25.065"/><use xlink:href="#p" x="130.908" y="25.281"/><use xlink:href="#u" x="57.07" y="38.781"/><use xlink:href="#o" x="64.321" y="38.566"/><use xlink:href="#p" x="63.406" y="38.781"/></svg>