<svg xmlns="http://www.w3.org/2000/svg" xmlns:xlink="http://www.w3.org/1999/xlink" width="189.257" height="127.416" viewBox="0 0 141.943 95.562"><defs><clipPath id="l"><path d="M138 86h3.941v8H138zm0 0"/></clipPath><clipPath id="d"><path d="M.5 95.063h141v-95H.5zM14.281.843h.84l2.277 10.259-2.699-9-2.699 9zm0 0"/></clipPath><clipPath id="i"><path d="M23 .063h63V59H23zm0 0"/></clipPath><clipPath id="h"><path d="M.5 95.063h141v-95H.5zm43.898-71.36l.961-1.922 14.461 4.5-11.28-1.68 8.042 8.102zm0 0"/></clipPath><clipPath id="g"><path d="M11 .063h60V63H11zm0 0"/></clipPath><clipPath id="f"><path d="M.5 95.063h141v-95H.5zm45.7-73.34l1.859 1.14-5.399 14.098L45 25.863l-8.52 7.5zm0 0"/></clipPath><clipPath id="e"><path d="M5 .063h19V18H5zm0 0"/></clipPath><clipPath id="a"><path d="M.5 95.063h141v-95H.5zM111.422 53.94l.539 2.102-13.98 5.879 9.718-5.942-11.34-1.078zm0 0"/></clipPath><clipPath id="b"><path d="M.5 95.063h141v-95H.5zm140.621-17.72v.84l-10.262 2.278 9-2.7-9-2.698zm0 0"/></clipPath><clipPath id="c"><path d="M124 68h17.5v19H124zm0 0"/></clipPath><symbol overflow="visible" id="n"><path d="M5.516-2.672c0-.578-.235-1.078-.657-1.375-.312-.219-.578-.312-1.171-.422C4.64-5.219 5-5.766 5-6.469c0-1.062-.89-1.765-2.219-1.765-.812 0-1.344.218-1.922.796L.516-5.952H.89l.203-.672c.14-.406.89-.813 1.515-.813.766 0 1.407.641 1.407 1.391 0 .89-.704 1.64-1.547 1.64-.11 0-.563-.03-.563-.03l-.156.64.094.063c.453-.204.672-.266 1-.266 1 0 1.562.64 1.562 1.734 0 1.22-.718 2.016-1.843 2.016a2.035 2.035 0 01-1.391-.516C.89-1.03.734-1.296.5-1.953l-.328.125c.266.734.36 1.156.422 1.75.64.219 1.156.312 1.61.312.952 0 2.046-.53 2.702-1.328.407-.5.61-1.015.61-1.578zm0 0"/></symbol><symbol overflow="visible" id="o"><path d="M4.11.031c-.032-.187-.032-.281-.032-.406 0-.11 0-.188.031-.39l-3.046.093 1.609-1.687c.844-.907 1.11-1.391 1.11-2.047 0-1.016-.688-1.64-1.798-1.64-.64 0-1.062.187-1.5.624l-.14 1.188h.25l.11-.407c.14-.5.468-.718 1.046-.718.75 0 1.234.468 1.234 1.218 0 .657-.359 1.297-1.359 2.36L.141-.203V.03C.78.016 1.453 0 2.094 0c.672 0 1.344.016 2.015.031zm0 0"/></symbol><symbol overflow="visible" id="m"><path d="M3.656.031v-.265l-.453-.032c-.484-.03-.562-.125-.562-.578v-5.203l-.125-.031a14.66 14.66 0 01-1.985.844l.063.375h.078l1.14-.516h.016c.063 0 .078.078.078.281v4.25c0 .453-.093.547-.578.578l-.484.032V.03C1.328.016 1.813 0 2.28 0c.469 0 .922.016 1.375.031zm0 0"/></symbol><symbol overflow="visible" id="k"><path d="M.25-1.047c0 .234-.016.39-.094.766-.031.156-.031.187-.047.265.172.094.375.141.516.141.39 0 .86-.344 1.234-.906l.907-1.39.125.827C3.047-.328 3.328.125 3.75.125c.266 0 .656-.203 1.031-.547l.578-.516-.093-.234c-.438.36-.735.531-.922.531C4.156-.64 4-.75 3.89-.984a4.761 4.761 0 01-.313-1.032l-.203-1.203.422-.578c.547-.781.875-1.062 1.25-1.062.187 0 .328.109.39.28l.172-.046.172-1.016c-.14-.078-.25-.125-.36-.125-.468 0-.952.438-1.687 1.532l-.453.656-.062-.563c-.14-1.187-.469-1.625-1.172-1.625-.313 0-.578.094-.688.25l-.687 1 .203.11c.36-.407.594-.563.828-.563.39 0 .656.485.86 1.657l.124.75-.468.734C1.703-1.031 1.297-.641.953-.641.781-.64.641-.687.625-.75l-.14-.344zm0 0"/></symbol><symbol overflow="visible" id="q"><path d="M5 .031v-.36l-.625-.03c-.656-.032-.781-.172-.781-.782v-7.093l-.156-.063c-.782.406-1.626.766-2.72 1.156l.079.5h.125l1.547-.687.031-.016c.063 0 .094.11.094.407v5.796c0 .61-.125.75-.781.782l-.672.03v.36C1.812.016 2.469 0 3.125 0c.61 0 1.25.016 1.875.031zm0 0"/></symbol><symbol overflow="visible" id="p"><path d="M5.563-4.375c0-2.625-.782-3.86-2.422-3.86-1.844 0-2.797 1.47-2.797 4.36 0 1.406.25 2.61.672 3.188.421.593 1.093.921 1.828.921 1.812 0 2.719-1.546 2.719-4.609zm-1.016.594c0 2.547-.453 3.61-1.547 3.61-1.156 0-1.656-1.22-1.656-4.126 0-2.531.453-3.516 1.578-3.516 1.172 0 1.625 1.172 1.625 4.032zm0 0"/></symbol><symbol overflow="visible" id="j"><path d="M5.594.031c-.032-.25-.032-.36-.032-.531 0-.156 0-.281.032-.547l-4.14.125L3.64-3.234c1.156-1.22 1.515-1.875 1.515-2.782 0-1.375-.937-2.218-2.453-2.218-.86 0-1.453.234-2.031.828l-.203 1.64h.344l.156-.562c.187-.688.625-.984 1.422-.984 1.03 0 1.687.64 1.687 1.656 0 .906-.5 1.781-1.86 3.218L.189-.28v.31C1.078.016 1.968 0 2.858 0c.907 0 1.829.016 2.735.031zm0 0"/></symbol></defs><g clip-path="url(#a)" clip-rule="evenodd"><path d="M14.7 77.762l95.94-22.5" fill="none" stroke-width="1.8" stroke="#898989" stroke-miterlimit="10"/></g><path d="M96.36 54.902l11.34 1.078-9.72 5.942" fill="none" stroke-width="1.8" stroke="#898989" stroke-miterlimit="10"/><g clip-path="url(#b)" clip-rule="evenodd"><path d="M1.2 77.762h139.5" fill="none" stroke-width=".45" stroke="#000" stroke-miterlimit="10"/></g><g clip-path="url(#c)"><path d="M130.86 75.063l9 2.699-9 2.699" fill="none" stroke-width=".45" stroke="#000" stroke-miterlimit="10"/></g><g clip-path="url(#d)" clip-rule="evenodd"><path d="M14.7 91.262v-90" fill="none" stroke-width=".45" stroke="#000" stroke-miterlimit="10"/></g><g clip-path="url(#e)"><path d="M12 11.102l2.7-9 2.698 9" fill="none" stroke-width=".45" stroke="#000" stroke-miterlimit="10"/></g><path d="M77.7 73.262v9m-58.5-31.5h-9m9-27h-9m36 49.5v9m63-9v9" fill="none" stroke-width=".45" stroke="#000" stroke-miterlimit="10"/><g clip-path="url(#f)" clip-rule="evenodd"><path d="M14.7 77.762l31.859-54.54" fill="none" stroke-width="1.8" stroke="#898989" stroke-dasharray="9,9" stroke-dashoffset="9" stroke-miterlimit="10"/></g><g clip-path="url(#g)"><path d="M36.48 33.363l8.52-7.5-2.34 11.098" fill="none" stroke-width="1.8" stroke="#898989" stroke-miterlimit="10"/></g><g clip-path="url(#h)" clip-rule="evenodd"><path d="M45.84 23.223l63.36 32.039" fill="none" stroke-width="1.8" stroke="#898989" stroke-dasharray="54" stroke-miterlimit="10"/></g><g clip-path="url(#i)"><path d="M56.582 32.703l-8.043-8.101 11.281 1.68" fill="none" stroke-width="1.8" stroke="#898989" stroke-miterlimit="10"/></g><use xlink:href="#j" x="77.722" y="91.222"/><use xlink:href="#k" x="132.082" y="91.222"/><g clip-path="url(#l)"><use xlink:href="#m" x="138.418" y="93.015"/></g><use xlink:href="#n" x="109.223" y="91.222"/><use xlink:href="#k" x="-.998" y="10.22"/><use xlink:href="#o" x="5.339" y="12.013"/><use xlink:href="#p" x="4.243" y="87.622"/><use xlink:href="#q" x="4.243" y="59.721"/><use xlink:href="#j" x="4.243" y="32.721"/><use xlink:href="#p" x="16.46" y="91.222"/><use xlink:href="#q" x="46.216" y="91.222"/></svg>