<svg xmlns="http://www.w3.org/2000/svg" xmlns:xlink="http://www.w3.org/1999/xlink" width="321.261" height="129.256" viewBox="0 0 240.946 96.942"><defs><clipPath id="i"><path d="M.5 96.441h240v-96H.5zm212.68-50.5l-.18.782-8.7-.961 7.438.242-6.476-3.66zm0 0"/></clipPath><clipPath id="e"><path d="M.5 96.441h240v-96H.5zM149.281.821h.84l2.277 10.261-2.699-9-2.699 9zm.84 95.34h-.84l-1.383-8.638 1.801 7.2 1.801-7.2zm0 0"/></clipPath><clipPath id="k"><path d="M.5 96.441h240v-96H.5zm149.68-50.558l-.121.84-8.7.12 7.38-.722-6.9-2.82zm0 0"/></clipPath><clipPath id="j"><path d="M.5 96.441h240v-96H.5zm181.18-82.058l-.121.84-8.758-.063 7.437-.598-6.84-2.94zm0 0"/></clipPath><clipPath id="a"><path d="M.5 96.441h240v-96H.5zm239.621-50.62v.84l-10.262 2.28 9-2.699-9-2.699zm0 0"/></clipPath><clipPath id="b"><path d="M223 37h17.5v19H223zm0 0"/></clipPath><clipPath id="c"><path d="M.5 96.441h240v-96H.5zm68.621-37.12v.84L58.86 62.44l9-2.699-9-2.699zm0 0"/></clipPath><clipPath id="d"><path d="M.5 96.441h240v-96H.5zm13.781-82.12h.84l2.277 10.261-2.699-9-2.699 9zm0 0"/></clipPath><clipPath id="l"><path d="M.5 96.441h240v-96H.5zm181.18-19.058l-.121.84-8.7.12 7.38-.722-6.9-2.82zm0 0"/></clipPath><clipPath id="f"><path d="M141 81h17v15.441h-17zm0 0"/></clipPath><clipPath id="g"><path d="M140 .441h19V18h-19zm0 0"/></clipPath><clipPath id="h"><path d="M124 .441h115v96H124zm0 0"/></clipPath><symbol overflow="visible" id="n"><path d="M5.563-4.375c0-2.625-.782-3.86-2.422-3.86-1.844 0-2.797 1.47-2.797 4.36 0 1.406.25 2.61.672 3.188.421.593 1.093.921 1.828.921 1.812 0 2.719-1.546 2.719-4.609zm-1.016.594c0 2.547-.453 3.61-1.547 3.61-1.156 0-1.656-1.22-1.656-4.126 0-2.531.453-3.516 1.578-3.516 1.172 0 1.625 1.172 1.625 4.032zm0 0"/></symbol><symbol overflow="visible" id="p"><path d="M7.219-2.875v-.703H.78v.703zm0 0"/></symbol><symbol overflow="visible" id="o"><path d="M5.594.031c-.032-.25-.032-.36-.032-.531 0-.156 0-.281.032-.547l-4.14.125L3.64-3.234c1.156-1.22 1.515-1.875 1.515-2.782 0-1.375-.937-2.218-2.453-2.218-.86 0-1.453.234-2.031.828l-.203 1.64h.344l.156-.562c.187-.688.625-.984 1.422-.984 1.03 0 1.687.64 1.687 1.656 0 .906-.5 1.781-1.86 3.218L.189-.28v.31C1.078.016 1.968 0 2.858 0c.907 0 1.829.016 2.735.031zm0 0"/></symbol><symbol overflow="visible" id="m"><path d="M5 .031v-.36l-.625-.03c-.656-.032-.781-.172-.781-.782v-7.093l-.156-.063c-.782.406-1.626.766-2.72 1.156l.079.5h.125l1.547-.687.031-.016c.063 0 .094.11.094.407v5.796c0 .61-.125.75-.781.782l-.672.03v.36C1.812.016 2.469 0 3.125 0c.61 0 1.25.016 1.875.031zm0 0"/></symbol></defs><g clip-path="url(#a)" clip-rule="evenodd"><path d="M136.2 46.242h103.5" fill="none" stroke-width=".45" stroke="#000" stroke-miterlimit="10"/></g><g clip-path="url(#b)"><path d="M229.86 43.543l9 2.7-9 2.698" fill="none" stroke-width=".45" stroke="#000" stroke-miterlimit="10"/></g><path d="M181.2 41.742v9m-27-36h-9" fill="none" stroke-width=".45" stroke="#000" stroke-miterlimit="10"/><g clip-path="url(#c)" clip-rule="evenodd"><path d="M1.2 59.742h67.5" fill="none" stroke-width=".45" stroke="#000" stroke-miterlimit="10"/></g><path d="M58.86 57.043l9 2.7-9 2.698" fill="none" stroke-width=".45" stroke="#000" stroke-miterlimit="10"/><g clip-path="url(#d)" clip-rule="evenodd"><path d="M14.7 73.242v-58.5" fill="none" stroke-width=".45" stroke="#000" stroke-miterlimit="10"/></g><path d="M12 24.582l2.7-9 2.698 9M46.2 55.242v9m-27-36h-9" fill="none" stroke-width=".45" stroke="#000" stroke-miterlimit="10"/><path d="M14.7 59.742h31.5v-31.5H14.7zm0 0" fill="none" stroke-width="1.8" stroke="#000" stroke-miterlimit="10"/><g clip-path="url(#e)" clip-rule="evenodd"><path d="M149.7 95.742v-94.5" fill="none" stroke-width=".45" stroke="#000" stroke-miterlimit="10"/></g><g clip-path="url(#f)"><path d="M151.5 87.523l-1.8 7.2-1.802-7.2" fill="none" stroke-width=".45" stroke="#000" stroke-miterlimit="10"/></g><g clip-path="url(#g)"><path d="M147 11.082l2.7-9 2.698 9" fill="none" stroke-width=".45" stroke="#000" stroke-miterlimit="10"/></g><path d="M212.7 41.742v9m-58.5 27h-9" fill="none" stroke-width=".45" stroke="#000" stroke-miterlimit="10"/><g clip-path="url(#h)"><path d="M149.7 46.242l31.5-31.5 31.5 31.5-31.5 31.5zm0 0" fill="none" stroke-width="1.8" stroke="#000" stroke-miterlimit="10"/></g><g clip-path="url(#i)" clip-rule="evenodd"><path d="M46.2 28.242h.062l.18-.058.296-.121.48-.18.66-.18 1.981-.66 1.38-.422 1.5-.48 1.8-.54 1.922-.597 2.098-.602 2.222-.601 2.278-.66 2.402-.66 2.457-.598 2.46-.54 2.462-.6 2.46-.481 2.462-.418 2.457-.364 2.402-.296 2.399-.243 2.398-.18 2.46-.058h2.462l2.52.117 2.64.184 2.7.238 2.038.238 2.102.301 2.16.301 2.34.36 2.46.48 2.52.48 2.758.54 2.82.601 3.063.66 3.117.66 3.363.778 3.48.84 3.599.84 3.78.902 3.84.96 4.02 1.02 4.078 1.02 4.14 1.078 4.2 1.082 4.262 1.078 4.2 1.082 4.14 1.078 4.14 1.082 3.961 1.02 3.84 1.02 3.719 1.019 3.48.898 3.239.844 3 .84 2.703.718 2.457.66 2.101.54 1.86.48 1.5.418 1.261.363.957.239.723.18 1.078.3" fill="none" stroke-width=".45" stroke-linejoin="bevel" stroke="#000" stroke-dasharray="9,27" stroke-dashoffset="27" stroke-miterlimit="10"/></g><path d="M205.262 42.344l6.476 3.66-7.437-.242" fill="none" stroke-width=".45" stroke="#000" stroke-miterlimit="10"/><g clip-path="url(#j)" clip-rule="evenodd"><path d="M14.7 28.242h.062l.18-.058.296-.121.48-.122.66-.238.903-.3 1.137-.36 1.441-.422 1.68-.539 1.922-.602 2.16-.718 2.461-.719 2.637-.84 2.82-.902 3-.899 3.18-.96 3.242-1.02 3.3-1.02 3.419-1.02 3.36-.96 3.42-1.02 3.36-.96 3.301-.962 3.238-.898 3.121-.84 3.06-.781 3-.777 2.82-.723 2.761-.598 2.64-.601 2.579-.54 2.46-.48 2.4-.422 2.34-.36 2.222-.3 2.218-.238 2.22-.18 2.34-.18 2.28-.12 2.399-.06h2.402l2.457.06 2.524.12 2.636.122 2.762.18 2.82.238 2.942.3 3 .301 3.117.36 3.18.417 3.3.422 3.301.48 6.719.962 3.36.539 3.3.48 3.18.54 3.062.48 2.938.48 2.761.48 2.52.419 2.34.36 2.039.358 1.8.301 1.5.242 1.2.239 1.02.18.722.12 1.078.18" fill="none" stroke-width=".45" stroke-linejoin="bevel" stroke="#000" stroke-dasharray="9,27" stroke-dashoffset="27" stroke-miterlimit="10"/></g><path d="M173.398 11.621l6.84 2.941-7.437.598" fill="none" stroke-width=".45" stroke="#000" stroke-miterlimit="10"/><g clip-path="url(#k)" clip-rule="evenodd"><path d="M14.7 59.742h.062l.18-.058.359-.122.48-.12.719-.18.96-.301 1.259-.3 1.441-.419 1.8-.48 1.981-.54 2.278-.6 2.52-.661 2.702-.719 2.88-.781 3-.777 3.12-.84 3.239-.84 3.238-.844 3.242-.84 3.238-.84 3.243-.777 3.12-.781 3.06-.719 2.94-.723 2.821-.66 2.758-.66 2.64-.539 2.461-.539 2.399-.48 2.281-.418 2.16-.364 2.098-.36 1.98-.237 1.922-.301 1.918-.18 2.219-.18 2.223-.18 2.218-.062 2.282-.058h2.28l2.4.058 2.46.063 2.52.18 2.578.18 2.7.237 2.76.243 2.821.3 2.82.297 2.82.301 2.88.36 2.761.3 2.637.36 2.524.363 2.34.297 2.16.3 1.918.243 1.62.238 1.38.18 1.082.18.84.12 1.257.18" fill="none" stroke-width=".45" stroke-linejoin="bevel" stroke="#000" stroke-dasharray="9,27" stroke-dashoffset="27" stroke-miterlimit="10"/></g><path d="M141.84 43.3l6.898 2.821-7.379.723" fill="none" stroke-width=".45" stroke="#000" stroke-miterlimit="10"/><g clip-path="url(#l)" clip-rule="evenodd"><path d="M46.2 59.742h.12l.18.059h.36l.6.062.84.117 1.141.122 1.438.18 1.68.179 2.043.242 2.277.238 2.582.301 2.82.301 3 .36 3.18.359 3.3.422 3.419.359 3.422.418 3.418.36 3.48.421 3.36.36 3.3.421 3.18.36 3.12.36 2.938.359 2.82.3 2.704.36 2.578.3 2.46.301 2.34.297 2.22.3 2.101.243 2.098.3 1.98.24 2.223.3 2.219.3 2.218.298 2.282.363 2.28.297 2.4.36 2.46.362 2.52.418 2.578.36 2.7.422 2.76.418 2.821.48 2.82.422 2.82.48 2.88.418 2.761.422 2.637.418 2.524.422 2.34.36 2.16.359 1.918.3 1.62.301 1.38.18 1.082.18.84.18 1.257.18" fill="none" stroke-width=".45" stroke-linejoin="bevel" stroke="#000" stroke-dasharray="9,27" stroke-dashoffset="27" stroke-miterlimit="10"/></g><path d="M173.34 74.8l6.898 2.821-7.379.723" fill="none" stroke-width=".45" stroke="#000" stroke-miterlimit="10"/><use xlink:href="#m" x="181.224" y="59.721"/><use xlink:href="#n" x="139.246" y="56.121"/><use xlink:href="#n" x="151.464" y="59.721"/><use xlink:href="#m" x="139.246" y="23.72"/><use xlink:href="#m" x="46.221" y="73.221"/><use xlink:href="#n" x="4.243" y="69.621"/><use xlink:href="#n" x="16.46" y="73.221"/><use xlink:href="#m" x="4.243" y="37.221"/><use xlink:href="#o" x="212.725" y="59.721"/><use xlink:href="#p" x="131.248" y="86.722"/><use xlink:href="#m" x="139.246" y="86.722"/></svg>