<svg xmlns="http://www.w3.org/2000/svg" xmlns:xlink="http://www.w3.org/1999/xlink" width="488" height="275pt" viewBox="0 0 366 275"><defs><clipPath id="i"><path d="M13 202h340v2H13zm0 0"/></clipPath><clipPath id="e"><path d="M182 9.5h2v255h-2zm0 0"/></clipPath><clipPath id="l"><path d="M13 20h340v2H13zm0 0"/></clipPath><clipPath id="k"><path d="M13 81h340v2H13zm0 0"/></clipPath><clipPath id="j"><path d="M13 142h340v1H13zm0 0"/></clipPath><clipPath id="a"><path d="M13 9.5h1v255h-1zm0 0"/></clipPath><clipPath id="b"><path d="M13 142h340v1H13zm0 0"/></clipPath><clipPath id="c"><path d="M13 9.5h1v255h-1zm0 0"/></clipPath><clipPath id="d"><path d="M97 9.5h2v255h-2zm0 0"/></clipPath><clipPath id="r"><path d="M13 20h340v234H13zm0 0"/></clipPath><clipPath id="f"><path d="M267 9.5h2v255h-2zm0 0"/></clipPath><clipPath id="g"><path d="M352 9.5h1v255h-1zm0 0"/></clipPath><clipPath id="h"><path d="M13 263h340v1.5H13zm0 0"/></clipPath><symbol overflow="visible" id="n"><path d="M3.563-5.313H.828L.422-2.421h.61c.312-.375.562-.5.984-.5.703 0 1.156.485 1.156 1.281 0 .766-.438 1.235-1.156 1.235-.579 0-.938-.297-1.094-.906H.266c.093.437.156.656.312.843.313.406.844.64 1.453.64 1.063 0 1.813-.78 1.813-1.905 0-1.047-.688-1.766-1.719-1.766-.375 0-.672.094-.984.313l.218-1.485h2.204zm0 0"/></symbol><symbol overflow="visible" id="q"><path d="M2.125-2.344H.344v.547h1.781zm0 0"/></symbol><symbol overflow="visible" id="p"><path d="M3.797-.656H1c.063-.438.313-.703.953-1.094l.75-.406c.75-.406 1.125-.953 1.125-1.594 0-.453-.172-.86-.484-1.14-.328-.298-.719-.423-1.219-.423-.672 0-1.172.235-1.469.688-.187.281-.265.61-.281 1.156h.656c.032-.36.078-.578.157-.75.171-.328.515-.515.921-.515.594 0 1.047.421 1.047.984 0 .422-.25.781-.719 1.063l-.687.39C.64-1.672.312-1.172.25 0h3.547zm0 0"/></symbol><symbol overflow="visible" id="o"><path d="M1.938-3.781V0h.671v-5.313h-.437c-.235.813-.39.922-1.406 1.047v.485zm0 0"/></symbol><symbol overflow="visible" id="m"><path d="M2.063-5.313c-.5 0-.938.22-1.22.579C.5-4.266.329-3.563.329-2.578c0 1.797.594 2.75 1.734 2.75 1.126 0 1.735-.953 1.735-2.703 0-1.031-.156-1.719-.516-2.203-.281-.375-.719-.579-1.219-.579zm0 .579c.718 0 1.062.718 1.062 2.14 0 1.516-.344 2.219-1.078 2.219C1.344-.375 1-1.109 1-2.563c0-1.453.344-2.171 1.063-2.171zm0 0"/></symbol></defs><g clip-path="url(#a)"><path d="M13 264.5V9.5" fill="none" stroke-width=".625" stroke-linecap="round" stroke="#bfbfbf" stroke-miterlimit="10"/></g><g clip-path="url(#b)"><path d="M13 142.504h340" fill="none" stroke-width=".625" stroke-linecap="round" stroke="#bfbfbf" stroke-miterlimit="10"/></g><g clip-path="url(#c)"><path d="M13 264.5V9.5" fill="none" stroke-width=".625" stroke-linecap="round" stroke="#bfbfbf" stroke-dasharray="12.5,18.75" stroke-miterlimit="10"/></g><g clip-path="url(#d)"><path d="M98 264.5V9.5" fill="none" stroke-width=".625" stroke-linecap="round" stroke="#bfbfbf" stroke-dasharray="12.5,18.75" stroke-miterlimit="10"/></g><g clip-path="url(#e)"><path d="M183 264.5V9.5" fill="none" stroke-width=".625" stroke-linecap="round" stroke="#bfbfbf" stroke-dasharray="12.5,18.75" stroke-miterlimit="10"/></g><g clip-path="url(#f)"><path d="M268 264.5V9.5" fill="none" stroke-width=".625" stroke-linecap="round" stroke="#bfbfbf" stroke-dasharray="12.5,18.75" stroke-miterlimit="10"/></g><g clip-path="url(#g)"><path d="M353 264.5V9.5" fill="none" stroke-width=".625" stroke-linecap="round" stroke="#bfbfbf" stroke-dasharray="12.5,18.75" stroke-miterlimit="10"/></g><g clip-path="url(#h)"><path d="M13 263.926h340" fill="none" stroke-width=".625" stroke-linecap="round" stroke="#bfbfbf" stroke-dasharray="12.5,18.75" stroke-miterlimit="10"/></g><g clip-path="url(#i)"><path d="M13 203.215h340" fill="none" stroke-width=".625" stroke-linecap="round" stroke="#bfbfbf" stroke-dasharray="12.5,18.75" stroke-miterlimit="10"/></g><g clip-path="url(#j)"><path d="M13 142.504h340" fill="none" stroke-width=".625" stroke-linecap="round" stroke="#bfbfbf" stroke-dasharray="12.5,18.75" stroke-miterlimit="10"/></g><g clip-path="url(#k)"><path d="M13 81.797h340" fill="none" stroke-width=".625" stroke-linecap="round" stroke="#bfbfbf" stroke-dasharray="12.5,18.75" stroke-miterlimit="10"/></g><g clip-path="url(#l)"><path d="M13 21.086h340" fill="none" stroke-width=".625" stroke-linecap="round" stroke="#bfbfbf" stroke-dasharray="12.5,18.75" stroke-miterlimit="10"/></g><path d="M13 264.5h340" fill="none" stroke-width="1.25" stroke-linecap="square" stroke="#000" stroke-miterlimit="10"/><path d="M13 264.5v-5m8.5 5V262m8.5 2.5V262m8.5 2.5V262m8.5 2.5V262m8.5 2.5V262m8.5 2.5V262m8.5 2.5V262m8.5 2.5V262m8.5 2.5V262m8.5 2.5v-5m8.5 5V262m8.5 2.5V262m8.5 2.5V262m8.5 2.5V262m8.5 2.5V262m8.5 2.5V262m8.5 2.5V262m8.5 2.5V262m8.5 2.5V262m8.5 2.5v-5m8.5 5V262m8.5 2.5V262m8.5 2.5V262m8.5 2.5V262m8.5 2.5V262m8.5 2.5V262m8.5 2.5V262m8.5 2.5V262m8.5 2.5V262m8.5 2.5v-5m8.5 5V262m8.5 2.5V262m8.5 2.5V262m8.5 2.5V262m8.5 2.5V262m8.5 2.5V262m8.5 2.5V262m8.5 2.5V262m8.5 2.5V262m8.5 2.5v-5" fill="none" stroke-width=".625" stroke="#000" stroke-miterlimit="10"/><use xlink:href="#m" x="10.29" y="274.5"/><use xlink:href="#n" x="95.29" y="274.5"/><use xlink:href="#o" x="178.829" y="274.5"/><use xlink:href="#m" x="182.999" y="274.5"/><use xlink:href="#o" x="263.829" y="274.5"/><use xlink:href="#n" x="267.999" y="274.5"/><use xlink:href="#p" x="348.829" y="274.5"/><use xlink:href="#m" x="352.999" y="274.5"/><path d="M13 9.5h340" fill="none" stroke-width="1.25" stroke-linecap="square" stroke="#000" stroke-miterlimit="10"/><path d="M13 9.5v5m8.5-5V12M30 9.5V12m8.5-2.5V12M47 9.5V12m8.5-2.5V12M64 9.5V12m8.5-2.5V12M81 9.5V12m8.5-2.5V12M98 9.5v5m8.5-5V12m8.5-2.5V12m8.5-2.5V12m8.5-2.5V12m8.5-2.5V12m8.5-2.5V12m8.5-2.5V12m8.5-2.5V12m8.5-2.5V12m8.5-2.5v5m8.5-5V12m8.5-2.5V12m8.5-2.5V12m8.5-2.5V12m8.5-2.5V12m8.5-2.5V12m8.5-2.5V12m8.5-2.5V12m8.5-2.5V12m8.5-2.5v5m8.5-5V12m8.5-2.5V12m8.5-2.5V12m8.5-2.5V12m8.5-2.5V12m8.5-2.5V12m8.5-2.5V12m8.5-2.5V12m8.5-2.5V12m8.5-2.5v5" fill="none" stroke-width=".625" stroke="#000" stroke-miterlimit="10"/><use xlink:href="#m" x="10.29" y="6.375"/><use xlink:href="#n" x="95.29" y="6.375"/><use xlink:href="#o" x="178.829" y="6.375"/><use xlink:href="#m" x="182.999" y="6.375"/><use xlink:href="#o" x="263.829" y="6.375"/><use xlink:href="#n" x="267.999" y="6.375"/><use xlink:href="#p" x="348.829" y="6.375"/><use xlink:href="#m" x="352.999" y="6.375"/><path d="M13 264.5V9.5" fill="none" stroke-width="1.25" stroke-linecap="square" stroke="#000" stroke-miterlimit="10"/><path d="M13 263.926h5m-5-6.07h2.5m-2.5-6.07h2.5m-2.5-6.071h2.5M13 239.64h2.5m-2.5-6.07h2.5M13 227.5h2.5m-2.5-6.07h2.5m-2.5-6.07h2.5m-2.5-6.075h2.5m-2.5-6.07h5m-5-6.07h2.5m-2.5-6.07h2.5m-2.5-6.071h2.5M13 178.93h2.5m-2.5-6.07h2.5m-2.5-6.07h2.5m-2.5-6.071h2.5m-2.5-6.07h2.5m-2.5-6.07h2.5m-2.5-6.075h5m-5-6.07h2.5m-2.5-6.07h2.5m-2.5-6.071h2.5m-2.5-6.07h2.5m-2.5-6.075h2.5m-2.5-6.07h2.5m-2.5-6.07h2.5m-2.5-6.07h2.5m-2.5-6.07h2.5M13 81.796h5m-5-6.07h2.5M13 69.652h2.5m-2.5-6.07h2.5m-2.5-6.07h2.5m-2.5-6.07h2.5m-2.5-6.07h2.5M13 39.3h2.5M13 33.227h2.5m-2.5-6.07h2.5M13 21.085h5m-5-6.07h2.5M13 8.946h2.5" fill="none" stroke-width=".625" stroke="#000" stroke-miterlimit="10"/><use xlink:href="#q" x="-.542" y="267.625"/><use xlink:href="#p" x="1.956" y="267.625"/><use xlink:href="#q" x="-.542" y="206.375"/><use xlink:href="#o" x="1.956" y="206.375"/><use xlink:href="#m" x="1.955" y="145.75"/><use xlink:href="#o" x="1.955" y="85.125"/><use xlink:href="#p" x="1.955" y="24.5"/><path d="M353 264.5V9.5" fill="none" stroke-width="1.25" stroke-linecap="square" stroke="#000" stroke-miterlimit="10"/><path d="M353 263.926h-5m5-6.07h-2.5m2.5-6.07h-2.5m2.5-6.071h-2.5m2.5-6.074h-2.5m2.5-6.07h-2.5m2.5-6.071h-2.5m2.5-6.07h-2.5m2.5-6.07h-2.5m2.5-6.075h-2.5m2.5-6.07h-5m5-6.07h-2.5m2.5-6.07h-2.5m2.5-6.071h-2.5m2.5-6.074h-2.5m2.5-6.07h-2.5m2.5-6.07h-2.5m2.5-6.071h-2.5m2.5-6.07h-2.5m2.5-6.07h-2.5m2.5-6.075h-5m5-6.07h-2.5m2.5-6.07h-2.5m2.5-6.071h-2.5m2.5-6.07h-2.5m2.5-6.075h-2.5m2.5-6.07h-2.5m2.5-6.07h-2.5m2.5-6.07h-2.5m2.5-6.07h-2.5m2.5-6.071h-5m5-6.07h-2.5m2.5-6.075h-2.5m2.5-6.07h-2.5m2.5-6.07h-2.5m2.5-6.07h-2.5m2.5-6.07h-2.5M353 39.3h-2.5m2.5-6.074h-2.5m2.5-6.07h-2.5m2.5-6.071h-5m5-6.07h-2.5m2.5-6.07h-2.5" fill="none" stroke-width=".625" stroke="#000" stroke-miterlimit="10"/><use xlink:href="#q" x="359.25" y="267.625"/><use xlink:href="#p" x="361.748" y="267.625"/><use xlink:href="#q" x="359.25" y="206.375"/><use xlink:href="#o" x="361.748" y="206.375"/><use xlink:href="#m" x="359.25" y="145.75"/><use xlink:href="#o" x="359.25" y="85.125"/><use xlink:href="#p" x="359.25" y="24.5"/><g clip-path="url(#r)"><path d="M13 142.504h16.875l.625-.024.625-.109.625-.187.625-.27.625-.351.625-.434.625-.512.625-.59.625-.672.625-.746.625-.828.625-.898.625-.977.625-1.047.625-1.12.625-1.192.625-1.258.625-1.324.625-1.395.625-1.453.625-1.515.625-1.575.625-1.629.625-1.687.625-1.738.625-1.79.625-1.84.625-1.878.625-1.93.625-1.965.625-2 .625-2.039.625-2.07.625-2.098.625-2.125.625-2.152.625-2.168.625-2.188.625-2.203.625-2.214.625-2.223.625-2.227.625-2.234.625-2.23.625-2.227.625-2.223.625-2.215.625-2.199.625-2.183.625-2.168.625-2.145.625-2.125L63 59.82l.625-2.066.625-2.031.625-1.996.625-1.961.625-1.918.625-1.88.625-1.827.625-1.782.625-1.73.625-1.68.625-1.625.625-1.566.625-1.504.625-1.445.625-1.383.625-1.317.625-1.246.625-1.18.625-1.109.625-1.039.625-.965.625-.89.625-.813.625-.734.625-.66.625-.582.625-.5.625-.418.625-.34.625-.258.625-.176.625-.097.625-.012.625.07.625.153.625.234.625.312.625.399.625.472.625.56.625.632.625.715.625.789.625.867.625.941.625 1.016.625 1.09.625 1.156.625 1.23.625 1.294.625 1.363.625 1.426.625 1.488.625 1.547.625 1.605.625 1.664.625 1.758.625 1.89.625 2.02.625 2.149.625 2.273.625 2.395.625 2.515.625 2.63.625 2.741.625 2.852.625 2.953.625 3.055.625 3.152.625 3.242.625 3.328.625 3.414.625 3.493.625 3.566.625 3.633.625 3.7.625 3.757.625 3.812.625 3.86.625 3.902.625 3.942.625 3.976.625 4 .625 4.024.625 4.043.625 4.05 1.25 8.117.625 4.055.625 4.04.625 4.027.625 4.003.625 3.98.625 3.946.625 3.907.625 3.863.625 3.816.625 3.766.625 3.703.625 3.64.625 3.575.625 3.5.625 3.422.625 3.336.625 3.254.625 3.16.625 3.066.625 2.965.625 2.86.625 2.753.625 2.64.625 2.528.625 2.41.625 2.285.625 2.16.625 2.036.625 1.902.625 1.77.625 1.636.625 1.496.625 1.36.625 1.215.625 1.074.625.926.625.785.625.637.625.488.625.336.625.191.625.043.625-.11.625-.257.625-.402.625-.555.625-.703.625-.848.625-.992.625-1.137.625-1.281.625-1.418.625-1.559.625-1.695.625-1.832.625-1.96.625-2.095.625-2.214.625-2.344.625-2.461.625-2.578.625-2.692.625-2.8.625-2.91.625-3.008.625-3.11.625-3.203.625-3.289.625-3.375.625-3.46.625-3.532.625-3.602.625-3.672.625-3.73.625-3.79.625-3.835.625-3.887.625-3.926.625-3.96.625-3.989.625-4.015.625-4.036.625-4.046.625-4.055 1.25-8.117.625-4.047.625-4.035.625-4.012.625-3.992.625-3.961.625-3.926.625-3.887.625-3.836.625-3.789.625-3.73.625-3.672.625-3.602.625-3.535.625-3.457.625-3.379.625-3.289.625-3.203.625-3.11.625-3.007.625-2.91.625-2.805.625-2.691.625-2.578.625-2.461.625-2.344.625-2.219.625-2.09.625-1.965.625-1.828.625-1.699.625-1.558.625-1.418.625-1.282.625-1.136.625-.997.625-.847.625-.703.625-.555.625-.406.625-.258.625-.11.625.044.625.187.625.34.625.488.625.633.625.781.625.93.625 1.07.625 1.215.625 1.36.625 1.496.625 1.632.625 1.77.625 1.902.625 2.035.625 2.16.625 2.286.625 2.41.625 2.523.625 2.64.625 2.755.625 2.86.625 2.964.625 3.066.625 3.16.625 3.25.625 3.34.625 3.418.625 3.5.625 3.575.625 3.64.625 3.703.625 3.762.625 3.817.625 3.867.625 3.906.625 3.945.625 3.977.625 4.004.625 4.027.625 4.043.625 4.05 1.25 8.118.625 4.055.625 4.039.625 4.023.625 4.004.625 3.973.625 3.941.625 3.906.625 3.86.625 3.812.625 3.758.625 3.7.625 3.632.625 3.567.625 3.492.625 3.414.625 3.332.625 3.242.625 3.152.625 3.055.625 2.953.625 2.852.625 2.742.625 2.629.625 2.515.625 2.399.625 2.273.625 2.149.625 2.023.625 1.89.625 1.759.625 1.62.625 1.485.625 1.344.625 1.2.625 1.062.625.914.625.765.625.625.625.473.625.324.625.176.625.027.625-.125.625-.27.625-.421.625-.567.625-.714.625-.864.625-1.007.625-1.149.625-1.297.625-1.433.625-1.57.625-1.708.625-1.843.625-1.977.625-2.106.625-2.226.625-2.356.625-2.472.625-2.59.625-2.703.625-2.813.625-2.914.625-3.023.625-3.117.625-3.211.625-3.297.625-3.387.625-3.465.625-3.539.625-3.61.625-3.675.625-3.738.625-3.793.625-3.844.625-3.887.625-3.93.625-3.964.625-3.992.625-4.016.625-4.035.625-4.051.625-4.059.625-4.054.625-4.059.625-4.047.625-4.031.625-4.012.625-3.988.625-3.96.625-3.919.625-3.883.625-3.832.625-3.785.625-3.723.625-3.664.625-3.597.625-3.528.625-3.449.625-3.37.625-3.282.625-3.192.625-3.101.625-3 .625-2.899.625-2.793.625-2.68.625-2.57.625-2.449.625-2.328.625-2.207.625-2.082.625-1.95.625-1.816.625-1.683.625-1.547.625-1.406.625-1.266.625-1.125.625-.98.625-.832.625-.688.625-.543.625-.39.625-.243.625-.093.625.054.625.203.625.352.625.504.625.648.625.797.625.942.625 1.086.625 1.226.625 1.371.625 1.512.625 1.648.625 1.782.625 1.918.625 2.043.625 2.175.625 2.297.625 2.418.625 2.54.625 2.652.625 2.761.625 2.871.625 2.977.625 3.07.625 3.172.625 3.258.625 3.348.625 3.43.625 3.503.625 3.582.625 3.649.625 3.707.625 3.77.625 3.82.625 3.87.625 3.91.625 3.95.625 3.977.625 4.007.625 4.032.625 4.043.625 4.05.625 4.063.625 4.055.625 4.05.625 4.043.625 4.02.625 4 .625 3.972.625 3.938.625 3.902.625 3.856.625 3.804.625 3.754.625 3.692.625 3.629.625 3.558.625 3.485.625 3.406.625 3.32.625 3.235.625 3.144.625 3.043.625 2.945.625 2.84.625 2.735.625 2.62.625 2.505.625 2.382.625 2.262.625 2.137.625 2.008.625 1.879.625 1.746.625 1.605.625 1.473.625 1.328.625 1.191" fill="none" stroke-width="1.25" stroke-linecap="round" stroke-linejoin="round" stroke="#00008b" stroke-miterlimit="10"/></g></svg>