<svg xmlns="http://www.w3.org/2000/svg" xmlns:xlink="http://www.w3.org/1999/xlink" width="400pt" height="400" viewBox="0 0 400 300"><defs><clipPath id="j"><path d="M30 265h340v2H30zm0 0"/></clipPath><clipPath id="e"><path d="M143 22.5h1v255h-1zm0 0"/></clipPath><clipPath id="n"><path d="M30 33h340v2H30zm0 0"/></clipPath><clipPath id="m"><path d="M30 91h340v2H30zm0 0"/></clipPath><clipPath id="l"><path d="M30 149h340v2H30zm0 0"/></clipPath><clipPath id="k"><path d="M30 207h340v2H30zm0 0"/></clipPath><clipPath id="a"><path d="M30 22.5h1v255h-1zm0 0"/></clipPath><clipPath id="b"><path d="M30 265h340v2H30zm0 0"/></clipPath><clipPath id="c"><path d="M30 22.5h1v255h-1zm0 0"/></clipPath><clipPath id="d"><path d="M86 22.5h1v255h-1zm0 0"/></clipPath><clipPath id="u"><path d="M30 33h340v234H30zm0 0"/></clipPath><clipPath id="f"><path d="M199 22.5h2v255h-2zm0 0"/></clipPath><clipPath id="g"><path d="M256 22.5h1v255h-1zm0 0"/></clipPath><clipPath id="h"><path d="M313 22.5h1v255h-1zm0 0"/></clipPath><clipPath id="i"><path d="M369 22.5h1v255h-1zm0 0"/></clipPath><symbol overflow="visible" id="p"><path d="M1.438-.781H.655V0h.781zm0 0"/></symbol><symbol overflow="visible" id="t"><path d="M1.656-2.438h.36c.734 0 1.109.329 1.109.954 0 .671-.422 1.078-1.11 1.078-.718 0-1.078-.36-1.109-1.14H.234c.032.421.11.702.235.952.281.5.797.766 1.531.766 1.094 0 1.797-.656 1.797-1.656 0-.672-.266-1.047-.906-1.266.5-.203.75-.578.75-1.11 0-.906-.61-1.453-1.625-1.453-1.079 0-1.641.579-1.657 1.72h.657c0-.329.03-.516.109-.673.156-.296.484-.468.906-.468.578 0 .938.343.938.906 0 .375-.14.594-.438.719-.172.078-.406.109-.875.109zm0 0"/></symbol><symbol overflow="visible" id="s"><path d="M3.797-.656H1c.063-.438.313-.703.953-1.094l.75-.406c.75-.406 1.125-.953 1.125-1.594 0-.453-.172-.86-.484-1.14-.328-.298-.719-.423-1.219-.423-.672 0-1.172.235-1.469.688-.187.281-.265.61-.281 1.156h.656c.032-.36.078-.578.157-.75.171-.328.515-.515.921-.515.594 0 1.047.421 1.047.984 0 .422-.25.781-.719 1.063l-.687.39C.64-1.672.312-1.172.25 0h3.547zm0 0"/></symbol><symbol overflow="visible" id="r"><path d="M1.938-3.781V0h.671v-5.313h-.437c-.235.813-.39.922-1.406 1.047v.485zm0 0"/></symbol><symbol overflow="visible" id="q"><path d="M3.563-5.313H.828L.422-2.421h.61c.312-.375.562-.5.984-.5.703 0 1.156.485 1.156 1.281 0 .766-.438 1.235-1.156 1.235-.579 0-.938-.297-1.094-.906H.266c.093.437.156.656.312.843.313.406.844.64 1.453.64 1.063 0 1.813-.78 1.813-1.905 0-1.047-.688-1.766-1.719-1.766-.375 0-.672.094-.984.313l.218-1.485h2.204zm0 0"/></symbol><symbol overflow="visible" id="o"><path d="M2.063-5.313c-.5 0-.938.22-1.22.579C.5-4.266.329-3.563.329-2.578c0 1.797.594 2.75 1.734 2.75 1.126 0 1.735-.953 1.735-2.703 0-1.031-.156-1.719-.516-2.203-.281-.375-.719-.579-1.219-.579zm0 .579c.718 0 1.062.718 1.062 2.14 0 1.516-.344 2.219-1.078 2.219C1.344-.375 1-1.109 1-2.563c0-1.453.344-2.171 1.063-2.171zm0 0"/></symbol></defs><path d="M30 277.5h340v-255H30zm0 0" fill="#fff"/><g clip-path="url(#a)"><path d="M30 277.5v-255" fill="none" stroke-width=".625" stroke-linecap="round" stroke="#bfbfbf" stroke-miterlimit="10"/></g><g clip-path="url(#b)"><path d="M30 265.91h340" fill="none" stroke-width=".625" stroke-linecap="round" stroke="#bfbfbf" stroke-miterlimit="10"/></g><g clip-path="url(#c)"><path d="M30 277.5v-255" fill="none" stroke-width=".625" stroke-linecap="round" stroke="#bfbfbf" stroke-dasharray="12.5,18.75" stroke-miterlimit="10"/></g><g clip-path="url(#d)"><path d="M86.668 277.5v-255" fill="none" stroke-width=".625" stroke-linecap="round" stroke="#bfbfbf" stroke-dasharray="12.5,18.75" stroke-miterlimit="10"/></g><g clip-path="url(#e)"><path d="M143.332 277.5v-255" fill="none" stroke-width=".625" stroke-linecap="round" stroke="#bfbfbf" stroke-dasharray="12.5,18.75" stroke-miterlimit="10"/></g><g clip-path="url(#f)"><path d="M200 277.5v-255" fill="none" stroke-width=".625" stroke-linecap="round" stroke="#bfbfbf" stroke-dasharray="12.5,18.75" stroke-miterlimit="10"/></g><g clip-path="url(#g)"><path d="M256.668 277.5v-255" fill="none" stroke-width=".625" stroke-linecap="round" stroke="#bfbfbf" stroke-dasharray="12.5,18.75" stroke-miterlimit="10"/></g><g clip-path="url(#h)"><path d="M313.332 277.5v-255" fill="none" stroke-width=".625" stroke-linecap="round" stroke="#bfbfbf" stroke-dasharray="12.5,18.75" stroke-miterlimit="10"/></g><g clip-path="url(#i)"><path d="M370 277.5v-255" fill="none" stroke-width=".625" stroke-linecap="round" stroke="#bfbfbf" stroke-dasharray="12.5,18.75" stroke-miterlimit="10"/></g><g clip-path="url(#j)"><path d="M30 265.91h340" fill="none" stroke-width=".625" stroke-linecap="round" stroke="#bfbfbf" stroke-dasharray="12.5,18.75" stroke-miterlimit="10"/></g><g clip-path="url(#k)"><path d="M30 207.953h340" fill="none" stroke-width=".625" stroke-linecap="round" stroke="#bfbfbf" stroke-dasharray="12.5,18.75" stroke-miterlimit="10"/></g><g clip-path="url(#l)"><path d="M30 150h340" fill="none" stroke-width=".625" stroke-linecap="round" stroke="#bfbfbf" stroke-dasharray="12.5,18.75" stroke-miterlimit="10"/></g><g clip-path="url(#m)"><path d="M30 92.047h340" fill="none" stroke-width=".625" stroke-linecap="round" stroke="#bfbfbf" stroke-dasharray="12.5,18.75" stroke-miterlimit="10"/></g><g clip-path="url(#n)"><path d="M30 34.09h340" fill="none" stroke-width=".625" stroke-linecap="round" stroke="#bfbfbf" stroke-dasharray="12.5,18.75" stroke-miterlimit="10"/></g><path d="M30 277.5h340" fill="none" stroke-width="1.25" stroke-linecap="square" stroke="#000" stroke-miterlimit="10"/><path d="M30 277.5v-5m5.668 5V275m5.664 2.5V275M47 277.5V275m5.668 2.5V275m5.664 2.5V275M64 277.5V275m5.668 2.5V275m5.664 2.5V275M81 277.5V275m5.668 2.5v-5m5.664 5V275M98 277.5V275m5.668 2.5V275m5.664 2.5V275m5.668 2.5V275m5.668 2.5V275m5.664 2.5V275m5.668 2.5V275m5.668 2.5V275m5.664 2.5v-5m5.668 5V275m5.668 2.5V275m5.664 2.5V275m5.668 2.5V275m5.668 2.5V275m5.664 2.5V275m5.668 2.5V275m5.668 2.5V275m5.664 2.5V275m5.668 2.5v-5m5.668 5V275m5.664 2.5V275m5.668 2.5V275m5.668 2.5V275m5.664 2.5V275m5.668 2.5V275m5.668 2.5V275m5.664 2.5V275m5.668 2.5V275m5.668 2.5v-5m5.664 5V275m5.668 2.5V275m5.668 2.5V275m5.664 2.5V275m5.668 2.5V275m5.668 2.5V275m5.664 2.5V275m5.668 2.5V275m5.668 2.5V275m5.664 2.5v-5m5.668 5V275m5.668 2.5V275m5.664 2.5V275m5.668 2.5V275m5.668 2.5V275m5.664 2.5V275m5.668 2.5V275m5.668 2.5V275m5.664 2.5V275m5.668 2.5v-5" fill="none" stroke-width=".625" stroke="#000" stroke-miterlimit="10"/><use xlink:href="#o" x="24.788" y="287.5"/><use xlink:href="#p" x="28.958" y="287.5"/><use xlink:href="#o" x="31.043" y="287.5"/><use xlink:href="#o" x="81.038" y="287.5"/><use xlink:href="#p" x="85.208" y="287.5"/><use xlink:href="#q" x="87.293" y="287.5"/><use xlink:href="#r" x="137.913" y="287.5"/><use xlink:href="#p" x="142.083" y="287.5"/><use xlink:href="#o" x="144.168" y="287.5"/><use xlink:href="#r" x="194.788" y="287.5"/><use xlink:href="#p" x="198.958" y="287.5"/><use xlink:href="#q" x="201.043" y="287.5"/><use xlink:href="#s" x="251.038" y="287.5"/><use xlink:href="#p" x="255.208" y="287.5"/><use xlink:href="#o" x="257.293" y="287.5"/><use xlink:href="#s" x="307.913" y="287.5"/><use xlink:href="#p" x="312.083" y="287.5"/><use xlink:href="#q" x="314.168" y="287.5"/><use xlink:href="#t" x="364.788" y="287.5"/><use xlink:href="#p" x="368.958" y="287.5"/><use xlink:href="#o" x="371.043" y="287.5"/><path d="M30 22.5h340" fill="none" stroke-width="1.25" stroke-linecap="square" stroke="#000" stroke-miterlimit="10"/><path d="M30 22.5v5m5.668-5V25m5.664-2.5V25M47 22.5V25m5.668-2.5V25m5.664-2.5V25M64 22.5V25m5.668-2.5V25m5.664-2.5V25M81 22.5V25m5.668-2.5v5m5.664-5V25M98 22.5V25m5.668-2.5V25m5.664-2.5V25M115 22.5V25m5.668-2.5V25m5.664-2.5V25M132 22.5V25m5.668-2.5V25m5.664-2.5v5m5.668-5V25m5.668-2.5V25m5.664-2.5V25M166 22.5V25m5.668-2.5V25m5.664-2.5V25M183 22.5V25m5.668-2.5V25m5.664-2.5V25M200 22.5v5m5.668-5V25m5.664-2.5V25M217 22.5V25m5.668-2.5V25m5.664-2.5V25M234 22.5V25m5.668-2.5V25m5.664-2.5V25M251 22.5V25m5.668-2.5v5m5.664-5V25M268 22.5V25m5.668-2.5V25m5.664-2.5V25M285 22.5V25m5.668-2.5V25m5.664-2.5V25M302 22.5V25m5.668-2.5V25m5.664-2.5v5m5.668-5V25m5.668-2.5V25m5.664-2.5V25M336 22.5V25m5.668-2.5V25m5.664-2.5V25M353 22.5V25m5.668-2.5V25m5.664-2.5V25M370 22.5v5" fill="none" stroke-width=".625" stroke="#000" stroke-miterlimit="10"/><use xlink:href="#o" x="24.788" y="20"/><use xlink:href="#p" x="28.958" y="20"/><use xlink:href="#o" x="31.043" y="20"/><use xlink:href="#o" x="81.038" y="20"/><use xlink:href="#p" x="85.208" y="20"/><use xlink:href="#q" x="87.293" y="20"/><use xlink:href="#r" x="137.913" y="20"/><use xlink:href="#p" x="142.083" y="20"/><use xlink:href="#o" x="144.168" y="20"/><use xlink:href="#r" x="194.788" y="20"/><use xlink:href="#p" x="198.958" y="20"/><use xlink:href="#q" x="201.043" y="20"/><use xlink:href="#s" x="251.038" y="20"/><use xlink:href="#p" x="255.208" y="20"/><use xlink:href="#o" x="257.293" y="20"/><use xlink:href="#s" x="307.913" y="20"/><use xlink:href="#p" x="312.083" y="20"/><use xlink:href="#q" x="314.168" y="20"/><use xlink:href="#t" x="364.788" y="20"/><use xlink:href="#p" x="368.958" y="20"/><use xlink:href="#o" x="371.043" y="20"/><path d="M30 277.5v-255" fill="none" stroke-width="1.25" stroke-linecap="square" stroke="#000" stroke-miterlimit="10"/><path d="M30 271.703h2.5M30 265.91h5m-5-5.797h2.5m-2.5-5.797h2.5m-2.5-5.793h2.5m-2.5-5.796h2.5m-2.5-5.793h2.5m-2.5-5.797h2.5M30 225.34h2.5m-2.5-5.793h2.5M30 213.75h2.5m-2.5-5.797h5m-5-5.793h2.5m-2.5-5.797h2.5m-2.5-5.797h2.5m-2.5-5.793h2.5m-2.5-5.796h2.5m-2.5-5.793h2.5m-2.5-5.797h2.5M30 161.59h2.5m-2.5-5.793h2.5M30 150h5m-5-5.797h2.5M30 138.41h2.5m-2.5-5.797h2.5m-2.5-5.797h2.5m-2.5-5.793h2.5m-2.5-5.796h2.5m-2.5-5.793h2.5m-2.5-5.797h2.5M30 97.84h2.5M30 92.047h5m-5-5.797h2.5M30 80.453h2.5M30 74.66h2.5M30 68.863h2.5M30 63.066h2.5M30 57.273h2.5M30 51.477h2.5M30 45.684h2.5M30 39.887h2.5M30 34.09h5m-5-5.793h2.5M30 22.5h2.5" fill="none" stroke-width=".625" stroke="#000" stroke-miterlimit="10"/><use xlink:href="#o" x="13.325" y="269.375"/><use xlink:href="#p" x="17.495" y="269.375"/><use xlink:href="#o" x="19.58" y="269.375"/><use xlink:href="#o" x="13.325" y="211.25"/><use xlink:href="#p" x="17.495" y="211.25"/><use xlink:href="#q" x="19.58" y="211.25"/><use xlink:href="#r" x="13.325" y="153.125"/><use xlink:href="#p" x="17.495" y="153.125"/><use xlink:href="#o" x="19.58" y="153.125"/><use xlink:href="#r" x="13.325" y="95.625"/><use xlink:href="#p" x="17.495" y="95.625"/><use xlink:href="#q" x="19.58" y="95.625"/><use xlink:href="#s" x="13.325" y="37.5"/><use xlink:href="#p" x="17.495" y="37.5"/><use xlink:href="#o" x="19.58" y="37.5"/><path d="M370 277.5v-255" fill="none" stroke-width="1.25" stroke-linecap="square" stroke="#000" stroke-miterlimit="10"/><path d="M370 271.703h-2.5m2.5-5.793h-5m5-5.797h-2.5m2.5-5.797h-2.5m2.5-5.793h-2.5m2.5-5.796h-2.5m2.5-5.793h-2.5m2.5-5.797h-2.5m2.5-5.797h-2.5m2.5-5.793h-2.5m2.5-5.797h-2.5m2.5-5.797h-5m5-5.793h-2.5m2.5-5.797h-2.5m2.5-5.797h-2.5m2.5-5.793h-2.5m2.5-5.796h-2.5m2.5-5.793h-2.5m2.5-5.797h-2.5m2.5-5.797h-2.5m2.5-5.793h-2.5M370 150h-5m5-5.797h-2.5m2.5-5.793h-2.5m2.5-5.797h-2.5m2.5-5.797h-2.5m2.5-5.793h-2.5m2.5-5.796h-2.5m2.5-5.793h-2.5m2.5-5.797h-2.5m2.5-5.797h-2.5m2.5-5.793h-5m5-5.797h-2.5m2.5-5.797h-2.5m2.5-5.793h-2.5m2.5-5.797h-2.5m2.5-5.797h-2.5m2.5-5.793h-2.5m2.5-5.796h-2.5m2.5-5.793h-2.5m2.5-5.797h-2.5m2.5-5.797h-5m5-5.793h-2.5M370 22.5h-2.5" fill="none" stroke-width=".625" stroke="#000" stroke-miterlimit="10"/><use xlink:href="#o" x="376.25" y="269.375"/><use xlink:href="#p" x="380.42" y="269.375"/><use xlink:href="#o" x="382.505" y="269.375"/><use xlink:href="#o" x="376.25" y="211.25"/><use xlink:href="#p" x="380.42" y="211.25"/><use xlink:href="#q" x="382.505" y="211.25"/><use xlink:href="#r" x="376.25" y="153.125"/><use xlink:href="#p" x="380.42" y="153.125"/><use xlink:href="#o" x="382.505" y="153.125"/><use xlink:href="#r" x="376.25" y="95.625"/><use xlink:href="#p" x="380.42" y="95.625"/><use xlink:href="#q" x="382.505" y="95.625"/><use xlink:href="#s" x="376.25" y="37.5"/><use xlink:href="#p" x="380.42" y="37.5"/><use xlink:href="#o" x="382.505" y="37.5"/><g clip-path="url(#u)"><path d="M30 265.91h56.25l.625-231.82h56.25l.625 231.82H370" fill="none" stroke-width="1.25" stroke-linecap="round" stroke-linejoin="round" stroke="#00008b" stroke-miterlimit="10"/></g></svg>