<svg xmlns="http://www.w3.org/2000/svg" xmlns:xlink="http://www.w3.org/1999/xlink" width="374pt" height="275pt" viewBox="0 0 374 275"><defs><clipPath id="i"><path d="M17 156h340v2H17zm0 0"/></clipPath><clipPath id="e"><path d="M186 9.5h2v255h-2zm0 0"/></clipPath><clipPath id="s"><path d="M17 72h340v170H17zm0 0"/></clipPath><clipPath id="r"><path d="M17 9.5h340V242H17zm0 0"/></clipPath><clipPath id="k"><path d="M17 22h340v2H17zm0 0"/></clipPath><clipPath id="j"><path d="M17 89h340v2H17zm0 0"/></clipPath><clipPath id="a"><path d="M17 9.5h1v255h-1zm0 0"/></clipPath><clipPath id="b"><path d="M17 223h340v2H17zm0 0"/></clipPath><clipPath id="c"><path d="M17 9.5h1v255h-1zm0 0"/></clipPath><clipPath id="d"><path d="M101 9.5h2v255h-2zm0 0"/></clipPath><clipPath id="t"><path d="M17 72h340v187H17zm0 0"/></clipPath><clipPath id="f"><path d="M271 9.5h2v255h-2zm0 0"/></clipPath><clipPath id="g"><path d="M356 9.5h1v255h-1zm0 0"/></clipPath><clipPath id="h"><path d="M17 223h340v2H17zm0 0"/></clipPath><symbol overflow="visible" id="m"><path d="M3.797-.656H1c.063-.438.313-.703.953-1.094l.75-.406c.75-.406 1.125-.953 1.125-1.594 0-.453-.172-.86-.484-1.14-.328-.298-.719-.423-1.219-.423-.672 0-1.172.235-1.469.688-.187.281-.265.61-.281 1.156h.656c.032-.36.078-.578.157-.75.171-.328.515-.515.921-.515.594 0 1.047.421 1.047.984 0 .422-.25.781-.719 1.063l-.687.39C.64-1.672.312-1.172.25 0h3.547zm0 0"/></symbol><symbol overflow="visible" id="q"><path d="M1.438-.781H.655V0h.781zm0 0"/></symbol><symbol overflow="visible" id="p"><path d="M1.938-3.781V0h.671v-5.313h-.437c-.235.813-.39.922-1.406 1.047v.485zm0 0"/></symbol><symbol overflow="visible" id="o"><path d="M3.906-5.313H.344v.641h2.875C1.953-2.859 1.438-1.75 1.03 0h.703c.297-1.703.97-3.172 2.172-4.766zm0 0"/></symbol><symbol overflow="visible" id="n"><path d="M3.563-5.313H.828L.422-2.421h.61c.312-.375.562-.5.984-.5.703 0 1.156.485 1.156 1.281 0 .766-.438 1.235-1.156 1.235-.579 0-.938-.297-1.094-.906H.266c.093.437.156.656.312.843.313.406.844.64 1.453.64 1.063 0 1.813-.78 1.813-1.905 0-1.047-.688-1.766-1.719-1.766-.375 0-.672.094-.984.313l.218-1.485h2.204zm0 0"/></symbol><symbol overflow="visible" id="l"><path d="M2.063-5.313c-.5 0-.938.22-1.22.579C.5-4.266.329-3.563.329-2.578c0 1.797.594 2.75 1.734 2.75 1.126 0 1.735-.953 1.735-2.703 0-1.031-.156-1.719-.516-2.203-.281-.375-.719-.579-1.219-.579zm0 .579c.718 0 1.062.718 1.062 2.14 0 1.516-.344 2.219-1.078 2.219C1.344-.375 1-1.109 1-2.563c0-1.453.344-2.171 1.063-2.171zm0 0"/></symbol></defs><g clip-path="url(#a)"><path d="M17 264.5V9.5" fill="none" stroke-width=".625" stroke-linecap="round" stroke="#bfbfbf" stroke-miterlimit="10"/></g><g clip-path="url(#b)"><path d="M17 224.238h340" fill="none" stroke-width=".625" stroke-linecap="round" stroke="#bfbfbf" stroke-miterlimit="10"/></g><g clip-path="url(#c)"><path d="M17 264.5V9.5" fill="none" stroke-width=".625" stroke-linecap="round" stroke="#bfbfbf" stroke-dasharray="12.5,18.75" stroke-miterlimit="10"/></g><g clip-path="url(#d)"><path d="M102 264.5V9.5" fill="none" stroke-width=".625" stroke-linecap="round" stroke="#bfbfbf" stroke-dasharray="12.5,18.75" stroke-miterlimit="10"/></g><g clip-path="url(#e)"><path d="M187 264.5V9.5" fill="none" stroke-width=".625" stroke-linecap="round" stroke="#bfbfbf" stroke-dasharray="12.5,18.75" stroke-miterlimit="10"/></g><g clip-path="url(#f)"><path d="M272 264.5V9.5" fill="none" stroke-width=".625" stroke-linecap="round" stroke="#bfbfbf" stroke-dasharray="12.5,18.75" stroke-miterlimit="10"/></g><g clip-path="url(#g)"><path d="M357 264.5V9.5" fill="none" stroke-width=".625" stroke-linecap="round" stroke="#bfbfbf" stroke-dasharray="12.5,18.75" stroke-miterlimit="10"/></g><g clip-path="url(#h)"><path d="M17 224.238h340" fill="none" stroke-width=".625" stroke-linecap="round" stroke="#bfbfbf" stroke-dasharray="12.5,18.75" stroke-miterlimit="10"/></g><g clip-path="url(#i)"><path d="M17 157.133h340" fill="none" stroke-width=".625" stroke-linecap="round" stroke="#bfbfbf" stroke-dasharray="12.5,18.75" stroke-miterlimit="10"/></g><g clip-path="url(#j)"><path d="M17 90.027h340" fill="none" stroke-width=".625" stroke-linecap="round" stroke="#bfbfbf" stroke-dasharray="12.5,18.75" stroke-miterlimit="10"/></g><g clip-path="url(#k)"><path d="M17 22.922h340" fill="none" stroke-width=".625" stroke-linecap="round" stroke="#bfbfbf" stroke-dasharray="12.5,18.75" stroke-miterlimit="10"/></g><path d="M17 264.5h340" fill="none" stroke-width="1.25" stroke-linecap="square" stroke="#000" stroke-miterlimit="10"/><path d="M17 264.5v-5m8.5 5V262m8.5 2.5V262m8.5 2.5V262m8.5 2.5V262m8.5 2.5V262m8.5 2.5V262m8.5 2.5V262m8.5 2.5V262m8.5 2.5V262m8.5 2.5v-5m8.5 5V262m8.5 2.5V262m8.5 2.5V262m8.5 2.5V262m8.5 2.5V262m8.5 2.5V262m8.5 2.5V262m8.5 2.5V262m8.5 2.5V262m8.5 2.5v-5m8.5 5V262m8.5 2.5V262m8.5 2.5V262m8.5 2.5V262m8.5 2.5V262m8.5 2.5V262m8.5 2.5V262m8.5 2.5V262m8.5 2.5V262m8.5 2.5v-5m8.5 5V262m8.5 2.5V262m8.5 2.5V262m8.5 2.5V262m8.5 2.5V262m8.5 2.5V262m8.5 2.5V262m8.5 2.5V262m8.5 2.5V262m8.5 2.5v-5" fill="none" stroke-width=".625" stroke="#000" stroke-miterlimit="10"/><use xlink:href="#l" x="14.29" y="274.5"/><use xlink:href="#m" x="97.205" y="274.5"/><use xlink:href="#n" x="101.375" y="274.5"/><use xlink:href="#n" x="182.83" y="274.5"/><use xlink:href="#l" x="187" y="274.5"/><use xlink:href="#o" x="267.83" y="274.5"/><use xlink:href="#n" x="272" y="274.5"/><use xlink:href="#p" x="350.745" y="274.5"/><use xlink:href="#l" x="354.915" y="274.5"/><use xlink:href="#l" x="359.085" y="274.5"/><path d="M17 9.5h340" fill="none" stroke-width="1.25" stroke-linecap="square" stroke="#000" stroke-miterlimit="10"/><path d="M17 9.5v5m8.5-5V12M34 9.5V12m8.5-2.5V12M51 9.5V12m8.5-2.5V12M68 9.5V12m8.5-2.5V12M85 9.5V12m8.5-2.5V12m8.5-2.5v5m8.5-5V12m8.5-2.5V12m8.5-2.5V12m8.5-2.5V12m8.5-2.5V12m8.5-2.5V12m8.5-2.5V12m8.5-2.5V12m8.5-2.5V12m8.5-2.5v5m8.5-5V12m8.5-2.5V12m8.5-2.5V12m8.5-2.5V12m8.5-2.5V12m8.5-2.5V12m8.5-2.5V12m8.5-2.5V12m8.5-2.5V12m8.5-2.5v5m8.5-5V12m8.5-2.5V12m8.5-2.5V12m8.5-2.5V12m8.5-2.5V12m8.5-2.5V12m8.5-2.5V12m8.5-2.5V12m8.5-2.5V12m8.5-2.5v5" fill="none" stroke-width=".625" stroke="#000" stroke-miterlimit="10"/><use xlink:href="#l" x="14.29" y="6.375"/><use xlink:href="#m" x="97.205" y="6.375"/><use xlink:href="#n" x="101.375" y="6.375"/><use xlink:href="#n" x="182.83" y="6.375"/><use xlink:href="#l" x="187" y="6.375"/><use xlink:href="#o" x="267.83" y="6.375"/><use xlink:href="#n" x="272" y="6.375"/><use xlink:href="#p" x="350.745" y="6.375"/><use xlink:href="#l" x="354.915" y="6.375"/><use xlink:href="#l" x="359.085" y="6.375"/><path d="M17 264.5V9.5" fill="none" stroke-width="1.25" stroke-linecap="square" stroke="#000" stroke-miterlimit="10"/><path d="M17 264.5h2.5m-2.5-6.71h2.5m-2.5-6.712h2.5m-2.5-6.71h2.5m-2.5-6.712h2.5M17 230.95h2.5m-2.5-6.71h5m-5-6.712h2.5m-2.5-6.71h2.5m-2.5-6.712h2.5m-2.5-6.71h2.5m-2.5-6.711h2.5m-2.5-6.711h2.5m-2.5-6.711h2.5M17 170.55h2.5m-2.5-6.707h2.5m-2.5-6.711h5m-5-6.711h2.5M17 143.71h2.5M17 137h2.5m-2.5-6.71h2.5m-2.5-6.712h2.5m-2.5-6.71h2.5m-2.5-6.712h2.5m-2.5-6.71h2.5M17 96.737h2.5m-2.5-6.71h5m-5-6.712h2.5m-2.5-6.71h2.5M17 69.894h2.5m-2.5-6.71h2.5M17 56.473h2.5M17 49.762h2.5M17 43.05h2.5M17 36.344h2.5M17 29.633h2.5M17 22.922h5m-5-6.711h2.5M17 9.5h2.5" fill="none" stroke-width=".625" stroke="#000" stroke-miterlimit="10"/><use xlink:href="#l" x="-.299" y="227.625"/><use xlink:href="#q" x="3.871" y="227.625"/><use xlink:href="#l" x="5.956" y="227.625"/><use xlink:href="#l" x="-.299" y="160.75"/><use xlink:href="#q" x="3.871" y="160.75"/><use xlink:href="#n" x="5.956" y="160.75"/><use xlink:href="#p" x="-.299" y="93.25"/><use xlink:href="#q" x="3.871" y="93.25"/><use xlink:href="#l" x="5.956" y="93.25"/><use xlink:href="#p" x="-.299" y="26.375"/><use xlink:href="#q" x="3.871" y="26.375"/><use xlink:href="#n" x="5.956" y="26.375"/><path d="M357 264.5V9.5" fill="none" stroke-width="1.25" stroke-linecap="square" stroke="#000" stroke-miterlimit="10"/><path d="M357 264.5h-2.5m2.5-6.71h-2.5m2.5-6.712h-2.5m2.5-6.71h-2.5m2.5-6.712h-2.5m2.5-6.707h-2.5m2.5-6.71h-5m5-6.712h-2.5m2.5-6.71h-2.5m2.5-6.712h-2.5m2.5-6.71h-2.5m2.5-6.711h-2.5m2.5-6.711h-2.5m2.5-6.711h-2.5m2.5-6.711h-2.5m2.5-6.707h-2.5m2.5-6.711h-5m5-6.711h-2.5m2.5-6.711h-2.5M357 137h-2.5m2.5-6.71h-2.5m2.5-6.712h-2.5m2.5-6.71h-2.5m2.5-6.712h-2.5m2.5-6.71h-2.5m2.5-6.708h-2.5m2.5-6.71h-5m5-6.712h-2.5m2.5-6.71h-2.5m2.5-6.711h-2.5m2.5-6.711h-2.5m2.5-6.711h-2.5m2.5-6.711h-2.5m2.5-6.711h-2.5m2.5-6.707h-2.5m2.5-6.711h-2.5m2.5-6.711h-5m5-6.711h-2.5M357 9.5h-2.5" fill="none" stroke-width=".625" stroke="#000" stroke-miterlimit="10"/><use xlink:href="#l" x="363.25" y="227.625"/><use xlink:href="#q" x="367.42" y="227.625"/><use xlink:href="#l" x="369.505" y="227.625"/><use xlink:href="#l" x="363.25" y="160.75"/><use xlink:href="#q" x="367.42" y="160.75"/><use xlink:href="#n" x="369.505" y="160.75"/><use xlink:href="#p" x="363.25" y="93.25"/><use xlink:href="#q" x="367.42" y="93.25"/><use xlink:href="#l" x="369.505" y="93.25"/><use xlink:href="#p" x="363.25" y="26.375"/><use xlink:href="#q" x="367.42" y="26.375"/><use xlink:href="#n" x="369.505" y="26.375"/><g clip-path="url(#r)"><path d="M17 90.027l.625-7.156.625-6.68.625-6.222.625-5.79.625-5.37.625-4.973.625-4.598.625-4.234.625-3.89.625-3.56.625-3.245.625-2.95.625-2.66.625-2.39.625-2.133.625-1.887.625-1.652.625-1.434.625-1.219.625-1.015.625-.828.625-.645.625-.473.625-.312.625-.156.625-.008.625.129.625.258.625.382.625.5.625.61.625.715.625.812.625.902.625.993.625 1.07.625 1.148.625 1.22.625 1.284.625 1.348.625 1.406.625 1.461.625 1.512.625 1.555.625 1.601.625 1.64.625 1.677.625 1.707.625 1.738.625 1.77.625 1.792.625 1.813.625 1.836.625 1.851.625 1.871.625 1.88.625 1.894.625 1.902.625 1.91.625 1.918.625 1.922.625 1.926.625 1.93 1.875 5.777.625 1.922.625 1.914.625 1.91.625 1.906.625 1.899.625 1.887.625 1.882.625 1.871.625 1.86.625 1.851.625 1.836.625 1.825.625 1.812.625 1.8.625 1.786.625 1.77.625 1.757.625 1.743.625 1.726.625 1.711.625 1.695.625 1.676.625 1.664.625 1.645.625 1.629.625 1.613.625 1.594.625 1.578.625 1.558.625 1.543.625 1.524.625 1.508.625 1.488.625 1.472.625 1.454.625 1.437.625 1.418.625 1.402.625 1.383.625 1.367.625 1.348.625 1.328.625 1.317.625 1.293.625 1.28.625 1.259.625 1.246.625 1.226.625 1.211.625 1.192.625 1.175.625 1.164.625 1.141.625 1.129.625 1.11.625 1.097.625 1.078.625 1.063.625 1.05.625 1.032.625 1.015.625 1.004.625.989.625.972.625.957.625.942.625.93.625.913.625.899.625.887.625.875.625.859.625.844.625.832.625.82.625.805.625.797.625.78.625.77.625.754.625.746.625.73.625.723.625.707.625.7.625.687.625.672.625.668.625.652.625.641.625.633.625.62.625.614.625.602.625.59.625.582.625.57.625.562.625.555.625.543.625.535.625.528.625.515.625.508.625.5.625.492.625.48.625.477.625.465.625.461.625.45.625.445.625.433.625.43.625.422.625.414 1.25.804.625.391.625.387.625.379.625.375.625.367.625.36 1.25.702.625.34.625.336.625.332 1.25.64.625.313.625.309.625.3.625.298.625.293.625.285.625.281.625.277.625.274.625.265 1.25.524 1.25.5.625.246.625.238 1.25.469.625.227 1.25.445.625.215.625.21 1.25.415 1.25.398 1.25.383.625.187.625.184 1.25.36 1.25.343.625.168 1.25.328.625.16.625.157 1.25.304.625.145.625.148 1.25.282 1.25.273 1.25.266 1.875.375 1.25.242.625.117 1.875.34.625.105.625.11.625.105 1.875.305.625.094.625.097 1.25.188 1.25.18.625.085.625.09 2.5.328.625.078.625.075.625.078 1.25.148 1.875.211 1.875.2.625.062.625.066.625.063 3.125.293 1.875.164 3.125.254 1.875.14.625.043.625.047 1.875.13.625.038.625.043 2.5.156.625.036.625.039 1.875.105.625.031.625.035 1.25.063.625.035.625.027 1.875.094 3.75.164.625.024.625.027 1.875.07.625.028.625.02 1.25.046.625.02.625.023.625.02.625.023 3.125.098.625.015 1.25.04.625.015.625.02 2.5.062.625.02.625.015.625.012 1.875.047.625.012.625.015.625.012.625.016 1.875.035.625.015 3.75.07.625.008 1.25.024.625.008 1.25.023 1.25.016.625.011 1.25.016.625.012 2.5.031.625.012.625.004.625.011.625.008.625.004 2.5.031.625.004 1.875.024.625.004 1.25.015.625.004.625.008 1.25.008.625.008.625.003.625.008 1.25.008.625.008 1.25.008.625.008 3.125.02.625.007 6.875.043h.625l3.75.023h.625l1.875.012H302l1.25.008h.625l1.25.008h.625l1.25.007h.625l.625.004h.625l1.25.008h.625l.625.004H312l.625.004h.625l.625.004h.625l.625.004h.625l.625.004H317l.625.004h.625l.625.004h.625l.625.003h1.25l.625.004h.625l.625.004h1.25l.625.004h1.25l.625.004h1.25l.625.004h1.25l.625.004H332l.625.004h1.875l.625.004H337l.625.004h1.875l.625.003H342l.625.004h1.875l.625.004h2.5l.625.004h3.125l.625.004h3.75l.625.004H357" fill="none" stroke-width="1.25" stroke-linecap="round" stroke="#00008b" stroke-miterlimit="10"/></g><g clip-path="url(#s)"><path d="M17 90.027l.625.043.625.13.625.21.625.29.625.362.625.426.625.496.625.551.625.613.625.664.625.711.625.762.625.805.625.847.625.883.625.922.625.95.625.984.625 1.011.625 1.04.625 1.062.625 1.086.625 1.105.625 1.125.625 1.141.625 1.152.625 1.172.625 1.18.625 1.191.625 1.2.625 1.21.625 1.215 1.25 2.446 1.25 2.46 1.25 2.47.625 1.23.625 1.234.625 1.23 1.25 2.454 1.25 2.437.625 1.211.625 1.207.625 1.2.625 1.19.625 1.188.625 1.18.625 1.172.625 1.164.625 1.156.625 1.145.625 1.137.625 1.128.625 1.122.625 1.109.625 1.098.625 1.09.625 1.078.625 1.066.625 1.059.625 1.046.625 1.036.625 1.027.625 1.012.625 1.004.625.992.625.98.625.973.625.957.625.945.625.938.625.922.625.914.625.898.625.895.625.879.625.867.625.855.625.844.625.836.625.82.625.813.625.8.625.793.625.778.625.77.625.757.625.746.625.739.625.722.625.719.625.703.625.695.625.688.625.676.625.664.625.652.625.648.625.633.625.63.625.616.625.606.625.598.625.59.625.581.625.57.625.563.625.555.625.543.625.535.625.531.625.52.625.512.625.503.625.493.625.488.625.48.625.473.625.465.625.457.625.45.625.44.625.434.625.43.625.422.625.414.625.406.625.402.625.395.625.387.625.382 1.25.743.625.363.625.355.625.352.625.344.625.34.625.332.625.328 1.25.64 1.25.617.625.301 1.25.586.625.285.625.282 1.25.546.625.266.625.262.625.258.625.254.625.25 1.25.484.625.238.625.23 1.25.454 1.25.437 1.25.422 1.25.406.625.2.625.195.625.191.625.188 1.25.367 1.25.352 1.25.343 1.25.328 1.25.32 1.25.305 1.25.297.625.145 1.25.281.625.137 1.25.265 1.25.258.625.125 1.25.242 1.25.235 1.875.34 2.5.422.625.097.625.102.625.097 1.875.282 1.25.18 1.25.171.625.082.625.086.625.078.625.082.625.078.625.075.625.078 1.25.148 1.25.14.625.067.625.07 1.25.133 2.5.25 1.25.118.625.054.625.059 1.875.164.625.05.625.055.625.047 1.25.102 2.5.187 3.125.215 3.125.196.625.035.625.039 2.5.14.625.032.625.035 2.5.125.625.027.625.031 4.375.192 1.25.047.625.027 2.5.094.625.02.625.023.625.02.625.023 5 .156.625.016.625.02.625.015.625.02 4.375.109.625.011 1.25.032.625.011.625.016.625.012.625.015 6.875.13.625.007 1.25.023.625.008.625.012 1.25.016.625.011 1.25.016.625.012 7.5.093.625.004 1.875.024.625.004.625.007.625.004.625.008.625.004.625.008.625.004.625.008.625.004.625.007 1.25.008.625.008 1.875.012.625.007 3.125.02.625.008 5 .031h.625l4.375.027h.625l1.875.012h.625l1.875.012h.625l1.25.008h.625l.625.004h.625l1.25.007h.625l1.25.008h.625l.625.004h.625l.625.004H282l.625.004h.625l.625.004h.625l.625.004h.625l.625.004H287l.625.004h1.25l.625.003h.625l.625.004h.625l.625.004h1.25l.625.004h1.25l.625.004H297l.625.004h1.25l.625.004h1.25l.625.004h1.875l.625.004h1.875l.625.004h1.875l.625.004h1.875l.625.003h1.875l.625.004h2.5l.625.004h3.125l.625.004h3.75l.625.004h3.75l.625.004h4.375l.625.004h5l.625.004h7.5l.625.004H357" fill="none" stroke-width="1.25" stroke-linecap="round" stroke="#006400" stroke-miterlimit="10"/></g><g clip-path="url(#t)"><path d="M17 90.027l.625 7.243.625 6.94.625 6.645.625 6.364.625 6.093.625 5.833.625 5.582.625 5.343.625 5.11.625 4.886.625 4.676.625 4.469.625 4.27.625 4.085.625 3.903.625 3.722.625 3.559.625 3.398.625 3.247.625 3.093.625 2.95.625 2.816.625 2.683.625 2.56.625 2.437.625 2.32.625 2.21.625 2.102.625 2 .625 1.903.625 1.808.625 1.715.625 1.63.625 1.55.625 1.465.625 1.394.625 1.317.625 1.246.625 1.183.625 1.114.625 1.054.625.996.625.942.625.883.625.832.625.785.625.734.625.692.625.648.625.605.625.567.625.531.625.492.625.457.625.426.625.39.625.364.625.336.625.305.625.285.625.254.625.234.625.207.625.188.625.168.625.148.625.129.625.113.625.094.625.078.625.067.625.046.625.036.625.023.625.012h.625l.625-.012.625-.023.625-.032.625-.043.625-.05.625-.059.625-.066.625-.07.625-.083.625-.086.625-.093.625-.098.625-.102.625-.11.625-.112.625-.118.625-.12.625-.126.625-.129 1.25-.265.625-.137.625-.14.625-.145.625-.14.625-.145 1.875-.446 3.125-.761.625-.156 1.25-.305.625-.156.625-.153.625-.156 1.25-.305.625-.156.625-.148 1.875-.457 1.875-.446.625-.144.625-.149 1.25-.289 2.5-.562 1.875-.41 1.875-.399 1.875-.387 1.25-.25 2.5-.484 1.25-.234 1.25-.227.625-.11.625-.113.625-.109 2.5-.422 1.25-.203 1.875-.293 1.875-.281.625-.09.625-.094.625-.086.625-.09.625-.085.625-.082.625-.086 1.25-.164 2.5-.313 1.875-.223 2.5-.28 1.875-.2 2.5-.25.625-.059.625-.062.625-.055 1.25-.117 1.875-.164.625-.05.625-.056 1.875-.152 3.125-.234.625-.043.625-.047 1.25-.086.625-.04.625-.042 1.25-.078.625-.043.625-.035 1.25-.079 3.75-.21 1.25-.063.625-.035.625-.031.625-.028 1.25-.062.625-.028.625-.03 3.125-.138.625-.023.625-.027 1.25-.047.625-.028 1.875-.07.625-.02 1.25-.046 1.875-.059.625-.023 1.875-.059.625-.015 1.25-.04.625-.015.625-.02.625-.015.625-.02 5-.125.625-.012 1.25-.03 1.25-.024.625-.016 1.25-.023.625-.016 3.75-.07.625-.008 1.875-.035.625-.008.625-.012.625-.008.625-.011.625-.008.625-.012 1.875-.023.625-.012 7.5-.094.625-.004 1.25-.015.625-.004.625-.008.625-.004 1.25-.016.625-.003.625-.008.625-.004.625-.008 1.25-.008.625-.008 1.25-.007.625-.008 1.875-.012.625-.008 12.5-.078h.625l1.875-.012h.625l1.25-.007h.625l1.875-.012h.625l1.25-.008H252l.625-.004h.625l1.25-.008h.625l.625-.004h.625l.625-.003h.625l1.25-.008h1.25l.625-.004h.625l.625-.004h.625l.625-.004h.625l.625-.004h.625l.625-.004H267l.625-.004h.625l.625-.004h1.25l.625-.004H272l.625-.003h.625l.625-.004h1.25l.625-.004h1.875l.625-.004h1.25l.625-.004H282l.625-.004h2.5l.625-.004h1.875l.625-.004h2.5l.625-.004h2.5l.625-.004h3.125l.625-.003h3.125l.625-.004h4.375l.625-.004h5l.625-.004h5l.625-.004h6.875l.625-.004h8.75l.625-.004h13.125l.625-.004H357" fill="none" stroke-width="1.25" stroke-linecap="round" stroke="#8b0000" stroke-miterlimit="10"/></g></svg>