<svg xmlns="http://www.w3.org/2000/svg" xmlns:xlink="http://www.w3.org/1999/xlink" width="136.616" height="121.096" viewBox="0 0 102.462 90.822"><defs><clipPath id="a"><path d="M.5 60h101.96v30.32H.5zm0 0"/></clipPath><clipPath id="b"><path d="M64 38h38.46v52.32H64zm0 0"/></clipPath><clipPath id="c"><path d="M22 .32h80.46v90H22zm0 0"/></clipPath><symbol overflow="visible" id="d"><path d="M6.844-6.031c0-1.36-.39-2.36-1.907-2.36C1.829-8.39.845-4.92.845-2.375.844-.953 1.28.188 2.906.188c2.813 0 3.938-3.97 3.938-6.22zm-.875-.157c0 .547-.094 1.094-.188 1.641H2.016c.28-1.25 1.156-3.531 2.703-3.531 1.031 0 1.25 1.078 1.25 1.89zm-.25 2.016c-.266 1.344-.922 4.016-2.64 4.016C1.874-.156 1.75-1.5 1.75-2.422c0-.594.11-1.172.203-1.75zm0 0"/></symbol><symbol overflow="visible" id="e"><path d="M4.172-7.938l.031-.328h-.281l-1.078.032c-.188 0-.406 0-.922-.016l-.766-.016-.031.329.563.03c.28 0 .421.095.421.313 0 .172-.046.547-.109.907L.969-.657C.922-.436.78-.358.25-.28L.187.03h.5C1.047.016 1.798 0 2.032 0L4.61.031h.11c.172 0 .468 0 .86-.015L5.968 0c0-.297.125-1.234.281-1.969h-.375l-.203.735c-.11.39-.203.593-.313.656-.156.047-.921.11-1.718.11-.594 0-.922-.016-1.704-.079v-.047c0-.172.016-.265.016-.375l1.11-6.36c.078-.452.171-.53.609-.577zm0 0"/></symbol><symbol overflow="visible" id="f"><path d="M8.719-1.234l-.297.203c-.36.234-.61.36-.735.36-.078 0-.156-.11-.156-.235 0-.125.016-.235.078-.485l.907-3.546a2.7 2.7 0 00.078-.485c0-.203-.125-.344-.313-.344-.344 0-.797.22-1.531.735C6-4.5 5.578-4.078 5-3.25l.36-1.64a3.63 3.63 0 00.077-.5c0-.235-.125-.376-.312-.376-.36 0-.906.266-1.563.766-.53.406-.765.656-1.546 1.719l.406-1.594c.047-.188.062-.375.062-.516 0-.234-.109-.375-.265-.375-.266 0-.719.25-1.594.891l-.344.234.094.235.375-.25c.438-.266.484-.297.563-.297.14 0 .218.125.218.297 0 .61-.484 2.922-.984 4.625l.031.14.828-.187.25-1.219c.297-1.328.61-2.031 1.266-2.75.515-.547 1.047-.906 1.375-.906.094 0 .14.094.14.25 0 .422-.265 1.781-.75 3.875l-.203.797.063.14.828-.187.25-1.266c.188-.968.594-1.875 1.125-2.453C6.406-4.53 7-4.953 7.39-4.953c.094 0 .157.11.157.297 0 .297-.047.453-.297 1.5-.203.75-.406 1.469-.516 1.875-.109.343-.156.64-.156.906 0 .297.125.484.36.484.312 0 .734-.25 1.906-1.125zm0 0"/></symbol></defs><g clip-path="url(#a)"><path d="M97.68 66.598A79.1 79.1 0 0147.875 84.25 79.114 79.114 0 011.02 68.879" fill="none" stroke-width=".45" stroke="#000" stroke-miterlimit="10"/></g><path d="M71.523 35.762a41.47 41.47 0 01-23.699 7.558" fill="none" stroke-width=".45" stroke="#000" stroke-miterlimit="10"/><path d="M100.621 69.004c0 2.945-2.39 5.34-5.34 5.34a5.342 5.342 0 010-10.684c2.95 0 5.34 2.395 5.34 5.344" fill-rule="evenodd"/><g clip-path="url(#b)"><path d="M100.621 69.004c0 2.945-2.39 5.34-5.34 5.34a5.342 5.342 0 010-10.684c2.95 0 5.34 2.395 5.34 5.344zm0 0" fill="none" stroke-width="1.8" stroke="#000" stroke-miterlimit="10"/></g><path d="M47.82 2.523v80.7" fill="none" stroke-width=".45" stroke="#000" stroke-miterlimit="10"/><g clip-path="url(#c)"><path d="M47.82 2.523l47.461 66.48" fill="none" stroke-width="1.8" stroke="#000" stroke-miterlimit="10"/></g><use xlink:href="#d" x="62.36" y="52.341"/><use xlink:href="#e" x="83.601" y="38.061"/><use xlink:href="#f" x="87.021" y="86.482"/></svg>