<svg xmlns="http://www.w3.org/2000/svg" xmlns:xlink="http://www.w3.org/1999/xlink" width="125.416" height="74.135" viewBox="0 0 94.062 55.601"><defs><clipPath id="a"><path d="M76 23h18.063v32.102H76zm0 0"/></clipPath><clipPath id="b"><path d="M76 .102h18.063V34H76zm0 0"/></clipPath><clipPath id="c"><path d="M76 8h18.063v34H76zm0 0"/></clipPath><clipPath id="d"><path d="M76 16h18.063v34H76zm0 0"/></clipPath><clipPath id="e"><path d="M.5 3H32v44H.5zm0 0"/></clipPath><clipPath id="f"><path d="M24 33h57v22.102H24zm0 0"/></clipPath><symbol overflow="visible" id="g"><path d="M6.844-1.953h-.422l-.063.406c-.078.5-.234.875-.39.938-.25.078-1.125.14-2.203.14-.625 0-.844-.015-1.188-.094v-3.343L4.5-3.937c.516 0 .75.046.828.437.047.266.063.703.063.703h.359c-.031-.437-.031-.89-.031-1.328 0-.469 0-.922.031-1.39h-.36s0 .406-.062.624c-.094.407-.312.454-.828.454-.61 0-1.39-.016-1.922-.047v-3.188c.375-.078.578-.094 1.406-.094.672 0 1.344.063 1.735.157.281.093.312.14.312.406v.781h.422c0-.719.063-1.281.188-1.812l-1.485-.032c-.906.016-1.843.032-2.765.032-.704 0-1.422-.016-2.125-.032v.36l.578.031c.547.031.61.125.61 1.078v5.36c0 .953-.048 1.03-.61 1.078l-.438.03v.36C.891.016 1.391 0 1.875 0c.922 0 1.86.016 2.781.031L6.641 0c0-.688.078-1.344.203-1.953zm0 0"/></symbol><symbol overflow="visible" id="h"><path d="M7-2.063h-.375l-.14.61c-.11.469-.204.719-.266.766-.157.14-1.203.218-2.625.218-.422 0-.703-.015-1.016-.094v-6.234c0-.953.063-1.047.61-1.078l.578-.031v-.36c-.594.016-1.172.032-1.75.032-.594 0-1.172-.016-1.75-.032v.36l.578.031c.547.031.61.125.61 1.078v5.656c0 .36-.11.61-.313.704l-.36.203V.03C1.171.016 1.562 0 1.953 0c.938 0 1.86.031 2.797.031.5 0 .375 0 2-.031.094-.516.14-.89.25-2.063zm0 0"/></symbol><symbol overflow="visible" id="i"><path d="M8.016-1l-.11-.125a4.478 4.478 0 01-2.484.719c-2.328 0-3.875-1.547-3.875-3.906 0-2.204 1.36-3.657 3.406-3.657 1.172 0 2.39.469 2.39.938v.86h.36c.016-.595.063-1.032.234-1.813-1.015-.329-1.89-.485-2.765-.485-1.031 0-2.031.25-2.828.719C.984-6.953.266-5.703.266-4.094.266-1.5 2.156.234 4.953.234c1 0 1.89-.203 2.719-.64zm0 0"/></symbol><symbol overflow="visible" id="j"><path d="M8 .031v-.36c-.39-.03-.578-.108-.734-.312l-2.72-3.53c.673-.173.985-.298 1.376-.579.625-.438.969-1.031.969-1.734 0-1.141-.782-1.782-2.344-1.782-.703 0-1.422.032-2.125.032-.703 0-1.375-.016-2.078-.032v.36l.5.031c.547.031.61.14.61 1.078v5.36c0 .953-.063 1.046-.61 1.078l-.578.03v.36C.844.016 1.422 0 2.016 0c.578 0 1.156.016 1.75.031v-.36l-.579-.03c-.546-.032-.609-.125-.609-1.079v-6.234c.406-.094.766-.14 1.172-.14 1.25 0 1.938.562 1.938 1.578 0 1.109-.875 1.796-2.25 1.796h-.36v.188c.266.297.36.422.563.688L5.828-.61l.5.64C6.594.016 6.86 0 7.141 0c.28 0 .562.016.859.031zm0 0"/></symbol></defs><g clip-path="url(#a)"><path d="M88.742 36.48h.04a3.888 3.888 0 013.886 3.891 3.887 3.887 0 01-3.887 3.887h-.039" fill="none" stroke-width=".9" stroke="#000" stroke-miterlimit="10"/></g><g clip-path="url(#b)"><path d="M88.738 13.383h.008a3.905 3.905 0 110 7.808h-.008" fill="none" stroke-width=".9" stroke="#000" stroke-miterlimit="10"/></g><g clip-path="url(#c)"><path d="M88.742 21.121h.04a3.883 3.883 0 110 7.766h-.04" fill="none" stroke-width=".9" stroke="#000" stroke-miterlimit="10"/></g><g clip-path="url(#d)"><path d="M88.742 28.8h.04a3.887 3.887 0 013.886 3.887 3.888 3.888 0 01-3.887 3.891h-.039" fill="none" stroke-width=".9" stroke="#000" stroke-miterlimit="10"/></g><g clip-path="url(#e)"><path d="M18.598 24.96c0 4.74-3.84 8.583-8.578 8.583-4.739 0-8.579-3.844-8.579-8.582a8.577 8.577 0 018.579-8.578 8.577 8.577 0 018.578 8.578zm0 0" fill="none" stroke-width=".9" stroke="#000" stroke-miterlimit="10"/></g><path d="M67.559 49.98h21.18v-5.82M52.198 5.7h36.54v7.683" fill="none" stroke-width=".45" stroke="#000" stroke-miterlimit="10"/><g clip-path="url(#f)"><path d="M36.781 49.98l3.84-3.84 3.899 7.68 5.699-7.68 3.902 7.68 5.758-7.68 3.84 7.68 3.84-3.84" fill="none" stroke-width=".9" stroke="#000" stroke-miterlimit="10"/></g><path d="M48.36 1.86v7.683m3.84-7.684v7.684" fill="none" stroke-width=".9" stroke="#000" stroke-miterlimit="10"/><path d="M9.84 16.563V5.698h38.52M9.84 33.422V49.98h26.94" fill="none" stroke-width=".45" stroke="#000" stroke-miterlimit="10"/><use xlink:href="#g" x="6.62" y="28.82"/><use xlink:href="#h" x="78.022" y="31.76"/><use xlink:href="#i" x="46.101" y="21.62"/><use xlink:href="#j" x="46.401" y="41.541"/></svg>