<svg xmlns="http://www.w3.org/2000/svg" xmlns:xlink="http://www.w3.org/1999/xlink" width="379pt" height="275pt" viewBox="0 0 379 275"><defs><clipPath id="j"><path d="M20 136h340v2H20zm0 0"/></clipPath><clipPath id="e"><path d="M189 9.5h2v255h-2zm0 0"/></clipPath><clipPath id="r"><path d="M20 21h340v232H20zm0 0"/></clipPath><clipPath id="l"><path d="M20 20h340v2H20zm0 0"/></clipPath><clipPath id="k"><path d="M20 78h340v2H20zm0 0"/></clipPath><clipPath id="a"><path d="M189 9.5h2v255h-2zm0 0"/></clipPath><clipPath id="b"><path d="M20 136h340v2H20zm0 0"/></clipPath><clipPath id="c"><path d="M20 9.5h1v255h-1zm0 0"/></clipPath><clipPath id="d"><path d="M104 9.5h2v255h-2zm0 0"/></clipPath><clipPath id="s"><path d="M20 9.5h340v255H20zm0 0"/></clipPath><clipPath id="f"><path d="M274 9.5h2v255h-2zm0 0"/></clipPath><clipPath id="g"><path d="M359 9.5h1v255h-1zm0 0"/></clipPath><clipPath id="h"><path d="M20 252h340v2H20zm0 0"/></clipPath><clipPath id="i"><path d="M20 194h340v2H20zm0 0"/></clipPath><symbol overflow="visible" id="n"><path d="M1.938-3.781V0h.671v-5.313h-.437c-.235.813-.39.922-1.406 1.047v.485zm0 0"/></symbol><symbol overflow="visible" id="q"><path d="M3.563-5.313H.828L.422-2.421h.61c.312-.375.562-.5.984-.5.703 0 1.156.485 1.156 1.281 0 .766-.438 1.235-1.156 1.235-.579 0-.938-.297-1.094-.906H.266c.093.437.156.656.312.843.313.406.844.64 1.453.64 1.063 0 1.813-.78 1.813-1.905 0-1.047-.688-1.766-1.719-1.766-.375 0-.672.094-.984.313l.218-1.485h2.204zm0 0"/></symbol><symbol overflow="visible" id="p"><path d="M2.063-5.313c-.5 0-.938.22-1.22.579C.5-4.266.329-3.563.329-2.578c0 1.797.594 2.75 1.734 2.75 1.126 0 1.735-.953 1.735-2.703 0-1.031-.156-1.719-.516-2.203-.281-.375-.719-.579-1.219-.579zm0 .579c.718 0 1.062.718 1.062 2.14 0 1.516-.344 2.219-1.078 2.219C1.344-.375 1-1.109 1-2.563c0-1.453.344-2.171 1.063-2.171zm0 0"/></symbol><symbol overflow="visible" id="o"><path d="M1.438-.781H.655V0h.781zm0 0"/></symbol><symbol overflow="visible" id="m"><path d="M2.125-2.344H.344v.547h1.781zm0 0"/></symbol></defs><g clip-path="url(#a)"><path d="M190 264.5V9.5" fill="none" stroke-width=".625" stroke-linecap="round" stroke="#bfbfbf" stroke-miterlimit="10"/></g><g clip-path="url(#b)"><path d="M20 137h340" fill="none" stroke-width=".625" stroke-linecap="round" stroke="#bfbfbf" stroke-miterlimit="10"/></g><g clip-path="url(#c)"><path d="M20 264.5V9.5" fill="none" stroke-width=".625" stroke-linecap="round" stroke="#bfbfbf" stroke-dasharray="12.5,18.75" stroke-miterlimit="10"/></g><g clip-path="url(#d)"><path d="M105 264.5V9.5" fill="none" stroke-width=".625" stroke-linecap="round" stroke="#bfbfbf" stroke-dasharray="12.5,18.75" stroke-miterlimit="10"/></g><g clip-path="url(#e)"><path d="M190 264.5V9.5" fill="none" stroke-width=".625" stroke-linecap="round" stroke="#bfbfbf" stroke-dasharray="12.5,18.75" stroke-miterlimit="10"/></g><g clip-path="url(#f)"><path d="M275 264.5V9.5" fill="none" stroke-width=".625" stroke-linecap="round" stroke="#bfbfbf" stroke-dasharray="12.5,18.75" stroke-miterlimit="10"/></g><g clip-path="url(#g)"><path d="M360 264.5V9.5" fill="none" stroke-width=".625" stroke-linecap="round" stroke="#bfbfbf" stroke-dasharray="12.5,18.75" stroke-miterlimit="10"/></g><g clip-path="url(#h)"><path d="M20 252.91h340" fill="none" stroke-width=".625" stroke-linecap="round" stroke="#bfbfbf" stroke-dasharray="12.5,18.75" stroke-miterlimit="10"/></g><g clip-path="url(#i)"><path d="M20 194.953h340" fill="none" stroke-width=".625" stroke-linecap="round" stroke="#bfbfbf" stroke-dasharray="12.5,18.75" stroke-miterlimit="10"/></g><g clip-path="url(#j)"><path d="M20 137h340" fill="none" stroke-width=".625" stroke-linecap="round" stroke="#bfbfbf" stroke-dasharray="12.5,18.75" stroke-miterlimit="10"/></g><g clip-path="url(#k)"><path d="M20 79.047h340" fill="none" stroke-width=".625" stroke-linecap="round" stroke="#bfbfbf" stroke-dasharray="12.5,18.75" stroke-miterlimit="10"/></g><g clip-path="url(#l)"><path d="M20 21.09h340" fill="none" stroke-width=".625" stroke-linecap="round" stroke="#bfbfbf" stroke-dasharray="12.5,18.75" stroke-miterlimit="10"/></g><path d="M20 264.5h340" fill="none" stroke-width="1.25" stroke-linecap="square" stroke="#000" stroke-miterlimit="10"/><path d="M20 264.5v-5m8.5 5V262m8.5 2.5V262m8.5 2.5V262m8.5 2.5V262m8.5 2.5V262m8.5 2.5V262m8.5 2.5V262m8.5 2.5V262m8.5 2.5V262m8.5 2.5v-5m8.5 5V262m8.5 2.5V262m8.5 2.5V262m8.5 2.5V262m8.5 2.5V262m8.5 2.5V262m8.5 2.5V262m8.5 2.5V262m8.5 2.5V262m8.5 2.5v-5m8.5 5V262m8.5 2.5V262m8.5 2.5V262m8.5 2.5V262m8.5 2.5V262m8.5 2.5V262m8.5 2.5V262m8.5 2.5V262m8.5 2.5V262m8.5 2.5v-5m8.5 5V262m8.5 2.5V262m8.5 2.5V262m8.5 2.5V262m8.5 2.5V262m8.5 2.5V262m8.5 2.5V262m8.5 2.5V262m8.5 2.5V262m8.5 2.5v-5" fill="none" stroke-width=".625" stroke="#000" stroke-miterlimit="10"/><use xlink:href="#m" x="12.915" y="274.5"/><use xlink:href="#n" x="15.412" y="274.5"/><use xlink:href="#o" x="19.582" y="274.5"/><use xlink:href="#p" x="21.667" y="274.5"/><use xlink:href="#m" x="97.914" y="274.5"/><use xlink:href="#p" x="100.412" y="274.5"/><use xlink:href="#o" x="104.582" y="274.5"/><use xlink:href="#q" x="106.667" y="274.5"/><use xlink:href="#p" x="184.788" y="274.5"/><use xlink:href="#o" x="188.958" y="274.5"/><use xlink:href="#p" x="191.043" y="274.5"/><use xlink:href="#p" x="269.788" y="274.5"/><use xlink:href="#o" x="273.958" y="274.5"/><use xlink:href="#q" x="276.043" y="274.5"/><use xlink:href="#n" x="354.788" y="274.5"/><use xlink:href="#o" x="358.958" y="274.5"/><use xlink:href="#p" x="361.043" y="274.5"/><path d="M20 9.5h340" fill="none" stroke-width="1.25" stroke-linecap="square" stroke="#000" stroke-miterlimit="10"/><path d="M20 9.5v5m8.5-5V12M37 9.5V12m8.5-2.5V12M54 9.5V12m8.5-2.5V12M71 9.5V12m8.5-2.5V12M88 9.5V12m8.5-2.5V12m8.5-2.5v5m8.5-5V12m8.5-2.5V12m8.5-2.5V12m8.5-2.5V12m8.5-2.5V12m8.5-2.5V12m8.5-2.5V12m8.5-2.5V12m8.5-2.5V12m8.5-2.5v5m8.5-5V12m8.5-2.5V12m8.5-2.5V12m8.5-2.5V12m8.5-2.5V12m8.5-2.5V12m8.5-2.5V12m8.5-2.5V12m8.5-2.5V12m8.5-2.5v5m8.5-5V12m8.5-2.5V12m8.5-2.5V12m8.5-2.5V12m8.5-2.5V12m8.5-2.5V12m8.5-2.5V12m8.5-2.5V12m8.5-2.5V12m8.5-2.5v5" fill="none" stroke-width=".625" stroke="#000" stroke-miterlimit="10"/><use xlink:href="#m" x="12.915" y="6.375"/><use xlink:href="#n" x="15.412" y="6.375"/><use xlink:href="#o" x="19.582" y="6.375"/><use xlink:href="#p" x="21.667" y="6.375"/><use xlink:href="#m" x="97.914" y="6.375"/><use xlink:href="#p" x="100.412" y="6.375"/><use xlink:href="#o" x="104.582" y="6.375"/><use xlink:href="#q" x="106.667" y="6.375"/><use xlink:href="#p" x="184.788" y="6.375"/><use xlink:href="#o" x="188.958" y="6.375"/><use xlink:href="#p" x="191.043" y="6.375"/><use xlink:href="#p" x="269.788" y="6.375"/><use xlink:href="#o" x="273.958" y="6.375"/><use xlink:href="#q" x="276.043" y="6.375"/><use xlink:href="#n" x="354.788" y="6.375"/><use xlink:href="#o" x="358.958" y="6.375"/><use xlink:href="#p" x="361.043" y="6.375"/><path d="M20 264.5V9.5" fill="none" stroke-width="1.25" stroke-linecap="square" stroke="#000" stroke-miterlimit="10"/><path d="M20 264.5h2.5m-2.5-5.797h2.5M20 252.91h5m-5-5.797h2.5m-2.5-5.797h2.5m-2.5-5.793h2.5m-2.5-5.796h2.5M20 223.93h2.5m-2.5-5.793h2.5M20 212.34h2.5m-2.5-5.793h2.5M20 200.75h2.5m-2.5-5.797h5m-5-5.793h2.5m-2.5-5.797h2.5m-2.5-5.797h2.5m-2.5-5.793h2.5m-2.5-5.796h2.5m-2.5-5.793h2.5m-2.5-5.797h2.5M20 148.59h2.5m-2.5-5.793h2.5M20 137h5m-5-5.797h2.5M20 125.41h2.5m-2.5-5.797h2.5m-2.5-5.797h2.5m-2.5-5.793h2.5m-2.5-5.796h2.5M20 96.434h2.5M20 90.637h2.5M20 84.84h2.5M20 79.047h5m-5-5.797h2.5M20 67.453h2.5M20 61.66h2.5M20 55.863h2.5M20 50.066h2.5M20 44.273h2.5M20 38.477h2.5M20 32.684h2.5M20 26.887h2.5M20 21.09h5m-5-5.793h2.5M20 9.5h2.5" fill="none" stroke-width=".625" stroke="#000" stroke-miterlimit="10"/><use xlink:href="#m" x=".204" y="256.375"/><use xlink:href="#n" x="2.701" y="256.375"/><use xlink:href="#o" x="6.871" y="256.375"/><use xlink:href="#p" x="8.956" y="256.375"/><use xlink:href="#m" x=".204" y="198.25"/><use xlink:href="#p" x="2.701" y="198.25"/><use xlink:href="#o" x="6.871" y="198.25"/><use xlink:href="#q" x="8.956" y="198.25"/><use xlink:href="#p" x="2.701" y="140.125"/><use xlink:href="#o" x="6.871" y="140.125"/><use xlink:href="#p" x="8.956" y="140.125"/><use xlink:href="#p" x="2.701" y="82.625"/><use xlink:href="#o" x="6.871" y="82.625"/><use xlink:href="#q" x="8.956" y="82.625"/><use xlink:href="#n" x="2.701" y="24.5"/><use xlink:href="#o" x="6.871" y="24.5"/><use xlink:href="#p" x="8.956" y="24.5"/><path d="M360 264.5V9.5" fill="none" stroke-width="1.25" stroke-linecap="square" stroke="#000" stroke-miterlimit="10"/><path d="M360 264.5h-2.5m2.5-5.797h-2.5m2.5-5.793h-5m5-5.797h-2.5m2.5-5.797h-2.5m2.5-5.793h-2.5m2.5-5.796h-2.5m2.5-5.797h-2.5m2.5-5.793h-2.5m2.5-5.797h-2.5m2.5-5.793h-2.5m2.5-5.797h-2.5m2.5-5.797h-5m5-5.793h-2.5m2.5-5.797h-2.5m2.5-5.797h-2.5m2.5-5.793h-2.5m2.5-5.796h-2.5m2.5-5.793h-2.5m2.5-5.797h-2.5m2.5-5.797h-2.5m2.5-5.793h-2.5M360 137h-5m5-5.797h-2.5m2.5-5.793h-2.5m2.5-5.797h-2.5m2.5-5.797h-2.5m2.5-5.793h-2.5m2.5-5.796h-2.5m2.5-5.793h-2.5m2.5-5.797h-2.5m2.5-5.797h-2.5m2.5-5.793h-5m5-5.797h-2.5m2.5-5.797h-2.5m2.5-5.793h-2.5m2.5-5.797h-2.5m2.5-5.797h-2.5m2.5-5.793h-2.5m2.5-5.796h-2.5m2.5-5.793h-2.5m2.5-5.797h-2.5m2.5-5.797h-5m5-5.793h-2.5M360 9.5h-2.5" fill="none" stroke-width=".625" stroke="#000" stroke-miterlimit="10"/><use xlink:href="#m" x="366.25" y="256.375"/><use xlink:href="#n" x="368.748" y="256.375"/><use xlink:href="#o" x="372.918" y="256.375"/><use xlink:href="#p" x="375.002" y="256.375"/><use xlink:href="#m" x="366.25" y="198.25"/><use xlink:href="#p" x="368.748" y="198.25"/><use xlink:href="#o" x="372.918" y="198.25"/><use xlink:href="#q" x="375.002" y="198.25"/><use xlink:href="#p" x="366.25" y="140.125"/><use xlink:href="#o" x="370.42" y="140.125"/><use xlink:href="#p" x="372.505" y="140.125"/><use xlink:href="#p" x="366.25" y="82.625"/><use xlink:href="#o" x="370.42" y="82.625"/><use xlink:href="#q" x="372.505" y="82.625"/><use xlink:href="#n" x="366.25" y="24.5"/><use xlink:href="#o" x="370.42" y="24.5"/><use xlink:href="#p" x="372.505" y="24.5"/><g clip-path="url(#r)"><path d="M20 234.535l.625-.234.625-.23 1.875-.704 1.25-.476.625-.243.625-.238.625-.246.625-.242 1.875-.738 1.25-.5.625-.254.625-.25.625-.254.625-.258.625-.254.625-.258.625-.261.625-.258 1.25-.524 1.875-.797.625-.27.625-.265.625-.273.625-.27 1.875-.82 1.875-.832 1.875-.844.625-.285.625-.281.625-.285 3.125-1.446.625-.293.625-.297.625-.293 1.875-.89 2.5-1.203 1.875-.914 2.5-1.235 1.875-.937.625-.317.625-.312.625-.32 1.25-.633 1.25-.64.625-.325.625-.32 1.25-.649.625-.328.625-.324.625-.328.625-.332.625-.328 2.5-1.329 2.5-1.343 1.875-1.02.625-.344.625-.34 1.25-.687.625-.348.625-.343 1.875-1.043 3.125-1.758 2.5-1.422.625-.36.625-.355.625-.36.625-.363 1.25-.718 1.25-.727.625-.367.625-.363.625-.367.625-.364.625-.37 1.25-.735 2.5-1.485.625-.375.625-.37 1.875-1.126.625-.379.625-.375 2.5-1.515 1.25-.766.625-.379.625-.383.625-.386.625-.383.625-.387.625-.383 1.25-.773.625-.39.625-.387.625-.391.625-.387 1.25-.781.625-.395 1.25-.78 3.125-1.973.625-.399.625-.394 3.125-1.993.625-.402.625-.398 3.125-2.012.625-.406.625-.403.625-.406.625-.402 1.25-.813.625-.41 1.25-.812.625-.41.625-.407.625-.41.625-.406.625-.41.625-.414 1.875-1.23.625-.415.625-.41 1.25-.828.625-.41.625-.415.625-.417 1.875-1.243.625-.418.625-.414.625-.418.625-.414 5-3.343.625-.422.625-.418.625-.422.625-.418 1.25-.844.625-.418 3.75-2.531.625-.426 2.5-1.687.625-.426.625-.422.625-.426.625-.422 1.25-.851.625-.422 1.25-.852.625-.422 3.125-2.129.625-.421 4.375-2.98.625-.43.625-.422.625-.43 5.625-3.832.625-.43 6.25-4.258.625-.422 3.125-2.128.625-.422 1.25-.852.625-.422 1.25-.851.625-.422.625-.426.625-.422.625-.426 1.875-1.265.625-.426 4.375-2.953.625-.418 1.25-.844.625-.418.625-.422.625-.418.625-.422 5-3.343.625-.414.625-.418.625-.414.625-.418.625-.414.625-.418 1.875-1.243.625-.41 1.875-1.242 2.5-1.64.625-.415 1.25-.82.625-.406.625-.41 1.875-1.22.625-.41 1.25-.812.625-.402 1.25-.813 3.75-2.414.625-.398.625-.402 3.125-1.993.625-.394.625-.399 3.125-1.972.625-.39.625-.395 2.5-1.563 1.25-.773.625-.39 1.25-.774.625-.383.625-.387.625-.383.625-.386.625-.383.625-.38 1.25-.765 2.5-1.515.625-.375.625-.38L275 81.43l.625-.371.625-.375 2.5-1.485 1.25-.734.625-.371.625-.364 1.25-.734 1.875-1.09 1.25-.719.625-.363 1.25-.719 3.125-1.777.625-.351.625-.356.625-.348 1.25-.703 1.875-1.043.625-.343.625-.348 1.25-.688.625-.34.625-.343 1.875-1.02 2.5-1.343 3.125-1.66 1.25-.657.625-.324.625-.328 1.875-.973 1.875-.96.625-.317.625-.32.625-.317.625-.312.625-.317 1.875-.937 2.5-1.235 1.875-.914 2.5-1.203 2.5-1.187 1.25-.586 3.125-1.446 1.25-.57 2.5-1.125 1.875-.832 1.875-.82.625-.27.625-.273.625-.266.625-.27 1.875-.796 1.25-.524.625-.258.625-.261 1.25-.516 1.875-.762 1.875-.75 1.875-.738.625-.242.625-.246.625-.238.625-.243 1.25-.476.625-.235.625-.238.625-.23.625-.235.625-.23" fill="none" stroke-width="1.25" stroke-linecap="round" stroke="#00008b" stroke-miterlimit="10"/></g><g clip-path="url(#s)"><path d="M20 252.91l.625-.426.625-.43 6.25-4.257.625-.43 6.25-4.258.625-.43 6.25-4.257.625-.43 6.25-4.258.625-.43 6.25-4.257.625-.43 6.25-4.258.625-.43 6.25-4.257.625-.43 6.25-4.258.625-.43 6.25-4.257.625-.43 6.25-4.258.625-.43 6.25-4.257.625-.43 6.25-4.258.625-.43 6.25-4.257.625-.43 6.25-4.258.625-.43 6.25-4.257.625-.43 6.25-4.258.625-.43 6.25-4.257.625-.43 6.875-4.683.625-.43 5.625-3.832.625-.43 6.875-4.683.625-.43 5.625-3.832.625-.43 6.875-4.683.625-.43 5.625-3.832.625-.43 6.875-4.683.625-.43 5.625-3.832.625-.43 6.875-4.683.625-.43 5.625-3.832.625-.43 6.875-4.683.625-.43 5.625-3.832.625-.43 6.875-4.683.625-.43 5.625-3.832.625-.43 6.875-4.683.625-.43 5.625-3.832.625-.43L255 92.684l.625-.43 5.625-3.832.625-.43 6.875-4.683.625-.43L275 79.047l.625-.43 6.875-4.683.625-.43 5.625-3.832.625-.43 6.875-4.683.625-.43 5.625-3.832.625-.43L310 55.184l.625-.43 5.625-3.832.625-.43 6.875-4.683.625-.43L330 41.547l.625-.43 6.875-4.683.625-.43 5.625-3.832.625-.43 6.875-4.683.625-.43 5.625-3.832.625-.43L360 21.09" fill="none" stroke-width="1.25" stroke-linecap="round" stroke="#006400" stroke-miterlimit="10"/></g></svg>