<svg xmlns="http://www.w3.org/2000/svg" xmlns:xlink="http://www.w3.org/1999/xlink" width="344pt" height="260pt" viewBox="0 0 344 260"><defs><clipPath id="t"><path d="M121 98h91v151.91h-91zm0 0"/></clipPath><clipPath id="k"><path d="M12 178h320v2H12zm0 0"/></clipPath><clipPath id="n"><path d="M12 27h320v2H12zm0 0"/></clipPath><clipPath id="m"><path d="M12 78h320v1H12zm0 0"/></clipPath><clipPath id="l"><path d="M12 128h320v2H12zm0 0"/></clipPath><clipPath id="a"><path d="M171 7.66h2v242.25h-2zm0 0"/></clipPath><clipPath id="b"><path d="M12 128h320v2H12zm0 0"/></clipPath><clipPath id="c"><path d="M12 7.66h1v242.25h-1zm0 0"/></clipPath><clipPath id="d"><path d="M65 7.66h1v242.25h-1zm0 0"/></clipPath><clipPath id="e"><path d="M118 7.66h1v242.25h-1zm0 0"/></clipPath><clipPath id="f"><path d="M171 7.66h2v242.25h-2zm0 0"/></clipPath><clipPath id="g"><path d="M225 7.66h1v242.25h-1zm0 0"/></clipPath><clipPath id="h"><path d="M278 7.66h1v242.25h-1zm0 0"/></clipPath><clipPath id="i"><path d="M331 7.66h1v242.25h-1zm0 0"/></clipPath><clipPath id="j"><path d="M12 229h320v2H12zm0 0"/></clipPath><symbol overflow="visible" id="p"><path d="M1.516-2.219h.078l.25-.015c.672 0 1.015.296 1.015.89 0 .61-.39.969-1.015.969-.657 0-.985-.328-1.016-1.031h-.61c.032.39.095.64.22.86.234.468.718.702 1.39.702 1 0 1.64-.594 1.64-1.515 0-.61-.234-.954-.827-1.157.453-.171.687-.515.687-1 0-.843-.562-1.343-1.484-1.343-.985 0-1.5.546-1.516 1.578h.594c.015-.297.031-.469.11-.61.14-.265.437-.437.827-.437.532 0 .844.312.844.828 0 .344-.11.547-.39.656-.157.078-.376.094-.797.11zm0 0"/></symbol><symbol overflow="visible" id="s"><path d="M1.89-4.86c-.452 0-.874.204-1.124.548-.313.421-.47 1.062-.47 1.968 0 1.625.548 2.5 1.595 2.5 1.03 0 1.593-.875 1.593-2.469 0-.937-.156-1.562-.484-2a1.355 1.355 0 00-1.11-.546zm0 .548c.641 0 .97.656.97 1.953 0 1.375-.313 2.015-.985 2.015-.64 0-.969-.672-.969-2 0-1.328.328-1.969.985-1.969zm0 0"/></symbol><symbol overflow="visible" id="r"><path d="M1.781-3.453V0h.594v-4.86h-.39c-.22.75-.36.86-1.282.97v.437zm0 0"/></symbol><symbol overflow="visible" id="q"><path d="M3.469-.594H.906c.063-.406.281-.656.89-1l.673-.375c.687-.36 1.031-.86 1.031-1.453 0-.406-.156-.781-.453-1.047-.281-.265-.64-.39-1.094-.39-.625 0-1.078.218-1.344.64-.171.25-.25.563-.265 1.047h.61c.015-.328.062-.531.14-.687a.94.94 0 01.828-.47c.547 0 .969.391.969.907 0 .39-.235.719-.657.969l-.64.36C.578-1.532.28-1.064.234 0H3.47zm0 0"/></symbol><symbol overflow="visible" id="o"><path d="M1.953-2.14H.313v.5h1.64zm0 0"/></symbol></defs><path d="M12 249.91h320V7.66H12zm0 0" fill="#fff"/><g clip-path="url(#a)"><path d="M1997.503-211.163V-2636.7" transform="matrix(.10013 0 0 .09987 -28 271)" fill="none" stroke-width="5.707" stroke-linecap="round" stroke="#bfbfbf" stroke-miterlimit="10"/></g><g clip-path="url(#b)"><path d="M399.5-1423.931h3196.006" transform="matrix(.10013 0 0 .09987 -28 271)" fill="none" stroke-width="5.707" stroke-linecap="round" stroke="#bfbfbf" stroke-miterlimit="10"/></g><g clip-path="url(#c)"><path d="M399.5-211.163V-2636.7" transform="matrix(.10013 0 0 .09987 -28 271)" fill="none" stroke-width="5.707" stroke-linecap="round" stroke="#bfbfbf" stroke-dasharray="11.4143,17.1214" stroke-miterlimit="10"/></g><g clip-path="url(#d)"><path d="M932.155-211.163V-2636.7" transform="matrix(.10013 0 0 .09987 -28 271)" fill="none" stroke-width="5.707" stroke-linecap="round" stroke="#bfbfbf" stroke-dasharray="11.4143,17.1214" stroke-miterlimit="10"/></g><g clip-path="url(#e)"><path d="M1464.849-211.163V-2636.7" transform="matrix(.10013 0 0 .09987 -28 271)" fill="none" stroke-width="5.707" stroke-linecap="round" stroke="#bfbfbf" stroke-dasharray="11.4143,17.1214" stroke-miterlimit="10"/></g><g clip-path="url(#f)"><path d="M1997.503-211.163V-2636.7" transform="matrix(.10013 0 0 .09987 -28 271)" fill="none" stroke-width="5.707" stroke-linecap="round" stroke="#bfbfbf" stroke-dasharray="11.4143,17.1214" stroke-miterlimit="10"/></g><g clip-path="url(#g)"><path d="M2530.158-211.163V-2636.7" transform="matrix(.10013 0 0 .09987 -28 271)" fill="none" stroke-width="5.707" stroke-linecap="round" stroke="#bfbfbf" stroke-dasharray="11.4143,17.1214" stroke-miterlimit="10"/></g><g clip-path="url(#h)"><path d="M3062.851-211.163V-2636.7" transform="matrix(.10013 0 0 .09987 -28 271)" fill="none" stroke-width="5.707" stroke-linecap="round" stroke="#bfbfbf" stroke-dasharray="11.4143,17.1214" stroke-miterlimit="10"/></g><g clip-path="url(#i)"><path d="M3595.506-211.163V-2636.7" transform="matrix(.10013 0 0 .09987 -28 271)" fill="none" stroke-width="5.707" stroke-linecap="round" stroke="#bfbfbf" stroke-dasharray="11.4143,17.1214" stroke-miterlimit="10"/></g><g clip-path="url(#j)"><path d="M399.5-413.29h3196.006" transform="matrix(.10013 0 0 .09987 -28 271)" fill="none" stroke-width="5.707" stroke-linecap="round" stroke="#bfbfbf" stroke-dasharray="11.4143,17.1214" stroke-miterlimit="10"/></g><g clip-path="url(#k)"><path d="M399.5-918.611h3196.006" transform="matrix(.10013 0 0 .09987 -28 271)" fill="none" stroke-width="5.707" stroke-linecap="round" stroke="#bfbfbf" stroke-dasharray="11.4143,17.1214" stroke-miterlimit="10"/></g><g clip-path="url(#l)"><path d="M399.5-1423.931h3196.006" transform="matrix(.10013 0 0 .09987 -28 271)" fill="none" stroke-width="5.707" stroke-linecap="round" stroke="#bfbfbf" stroke-dasharray="11.4143,17.1214" stroke-miterlimit="10"/></g><g clip-path="url(#m)"><path d="M399.5-1929.251h3196.006" transform="matrix(.10013 0 0 .09987 -28 271)" fill="none" stroke-width="5.707" stroke-linecap="round" stroke="#bfbfbf" stroke-dasharray="11.4143,17.1214" stroke-miterlimit="10"/></g><g clip-path="url(#n)"><path d="M399.5-2434.572h3196.006" transform="matrix(.10013 0 0 .09987 -28 271)" fill="none" stroke-width="5.707" stroke-linecap="round" stroke="#bfbfbf" stroke-dasharray="11.4143,17.1214" stroke-miterlimit="10"/></g><path d="M399.5-211.163h3196.006" transform="matrix(.10013 0 0 .09987 -28 271)" fill="none" stroke-width="11.414" stroke-linecap="square" stroke="#000" stroke-miterlimit="10"/><path d="M399.5-211.163v-45.643m0 45.643v-22.84m53.254 22.84v-22.84m53.293 22.84v-22.84m53.254 22.84v-22.84m53.254 22.84v-22.84m53.292 22.84v-22.84m53.254 22.84v-22.84m53.254 22.84v-22.84m53.293 22.84v-22.84m106.507 22.84v-45.643m0 45.643v-22.84m53.293 22.84v-22.84m53.254 22.84v-22.84m53.253 22.84v-22.84m53.293 22.84v-22.84m53.254 22.84v-22.84m53.254 22.84v-22.84m53.292 22.84v-22.84m53.254 22.84v-22.84m106.547 22.84v-45.643m0 45.643v-22.84m53.253 22.84v-22.84m53.254 22.84v-22.84m53.293 22.84v-22.84m53.254 22.84v-22.84m53.253 22.84v-22.84m53.293 22.84v-22.84m53.254 22.84v-22.84m53.254 22.84v-22.84m106.546 22.84v-45.643m0 45.643v-22.84m53.254 22.84v-22.84m53.293 22.84v-22.84m53.253 22.84v-22.84m53.254 22.84v-22.84m53.293 22.84v-22.84m53.254 22.84v-22.84m53.253 22.84v-22.84m53.293 22.84v-22.84m106.508 22.84v-45.643m0 45.643v-22.84m53.292 22.84v-22.84m53.254 22.84v-22.84m53.254 22.84v-22.84m53.293 22.84v-22.84m53.253 22.84v-22.84m53.254 22.84v-22.84m53.293 22.84v-22.84m53.254 22.84v-22.84m106.546 22.84v-45.643m0 45.643v-22.84m53.254 22.84v-22.84m53.254 22.84v-22.84m53.292 22.84v-22.84m53.254 22.84v-22.84m53.254 22.84v-22.84m53.293 22.84v-22.84m53.253 22.84v-22.84m53.254 22.84v-22.84m106.547 22.84v-45.643m0 45.643v-22.84" transform="matrix(.10013 0 0 .09987 -28 271)" fill="none" stroke-width="5.707" stroke="#000" stroke-miterlimit="10"/><use xlink:href="#o" x="8.952" y="259.03"/><use xlink:href="#p" x="11.236" y="259.03"/><use xlink:href="#o" x="62.095" y="259.03"/><use xlink:href="#q" x="64.378" y="259.03"/><use xlink:href="#o" x="115.238" y="259.03"/><use xlink:href="#r" x="117.522" y="259.03"/><use xlink:href="#s" x="170.094" y="259.03"/><use xlink:href="#r" x="223.237" y="259.03"/><use xlink:href="#q" x="276.38" y="259.03"/><use xlink:href="#p" x="330.095" y="259.03"/><path d="M399.5-2636.7h3196.006" transform="matrix(.10013 0 0 .09987 -28 271)" fill="none" stroke-width="11.414" stroke-linecap="square" stroke="#000" stroke-miterlimit="10"/><path d="M399.5-2636.7v45.643m0-45.643v22.842m53.254-22.842v22.842m53.293-22.842v22.842m53.254-22.842v22.842m53.254-22.842v22.842m53.292-22.842v22.842m53.254-22.842v22.842m53.254-22.842v22.842m53.293-22.842v22.842m106.507-22.842v45.643m0-45.643v22.842m53.293-22.842v22.842m53.254-22.842v22.842m53.253-22.842v22.842m53.293-22.842v22.842m53.254-22.842v22.842m53.254-22.842v22.842m53.292-22.842v22.842m53.254-22.842v22.842m106.547-22.842v45.643m0-45.643v22.842m53.253-22.842v22.842m53.254-22.842v22.842m53.293-22.842v22.842m53.254-22.842v22.842m53.253-22.842v22.842m53.293-22.842v22.842m53.254-22.842v22.842m53.254-22.842v22.842m106.546-22.842v45.643m0-45.643v22.842m53.254-22.842v22.842m53.293-22.842v22.842m53.253-22.842v22.842m53.254-22.842v22.842m53.293-22.842v22.842m53.254-22.842v22.842m53.253-22.842v22.842m53.293-22.842v22.842m106.508-22.842v45.643m0-45.643v22.842m53.292-22.842v22.842m53.254-22.842v22.842m53.254-22.842v22.842m53.293-22.842v22.842m53.253-22.842v22.842m53.254-22.842v22.842m53.293-22.842v22.842m53.254-22.842v22.842m106.546-22.842v45.643m0-45.643v22.842m53.254-22.842v22.842m53.254-22.842v22.842m53.292-22.842v22.842m53.254-22.842v22.842m53.254-22.842v22.842m53.293-22.842v22.842m53.253-22.842v22.842m53.254-22.842v22.842m106.547-22.842v45.643m0-45.643v22.842" transform="matrix(.10013 0 0 .09987 -28 271)" fill="none" stroke-width="5.707" stroke="#000" stroke-miterlimit="10"/><use xlink:href="#o" x="8.952" y="5.38"/><use xlink:href="#p" x="11.236" y="5.38"/><use xlink:href="#o" x="62.095" y="5.38"/><use xlink:href="#q" x="64.378" y="5.38"/><use xlink:href="#o" x="115.238" y="5.38"/><use xlink:href="#r" x="117.522" y="5.38"/><use xlink:href="#s" x="170.094" y="5.38"/><use xlink:href="#r" x="223.237" y="5.38"/><use xlink:href="#q" x="276.38" y="5.38"/><use xlink:href="#p" x="330.095" y="5.38"/><path d="M399.5-211.163V-2636.7" transform="matrix(.10013 0 0 .09987 -28 271)" fill="none" stroke-width="11.414" stroke-linecap="square" stroke="#000" stroke-miterlimit="10"/><path d="M399.5-211.163h22.824M399.5-261.695h22.823M399.5-312.227h22.823M399.5-413.29h45.646m-45.646 0h22.823M399.5-463.823h22.823M399.5-514.355h22.823M399.5-564.887h22.823M399.5-615.419h22.823M399.5-665.95h22.823M399.5-716.483h22.823M399.5-767.015h22.823M399.5-817.547h22.823M399.5-918.611h45.646m-45.646 0h22.823M399.5-969.143h22.823m-22.823-50.532h22.823m-22.823-50.532h22.823M399.5-1120.74h22.823m-22.823-50.532h22.823m-22.823-50.532h22.823m-22.823-50.532h22.823m-22.823-50.532h22.823M399.5-1423.931h45.646m-45.646 0h22.823m-22.823-50.532h22.823m-22.823-50.532h22.823m-22.823-50.532h22.823M399.5-1626.06h22.823m-22.823-50.532h22.823m-22.823-50.532h22.823m-22.823-50.532h22.823m-22.823-50.532h22.823M399.5-1929.251h45.646m-45.646 0h22.823m-22.823-50.532h22.823m-22.823-50.532h22.823m-22.823-50.532h22.823M399.5-2131.38h22.823m-22.823-50.532h22.823m-22.823-50.532h22.823m-22.823-50.532h22.823m-22.823-50.532h22.823M399.5-2434.572h45.646m-45.646 0h22.823m-22.823-50.532h22.823m-22.823-50.532h22.823m-22.823-50.532h22.823M399.5-2636.7h22.823" transform="matrix(.10013 0 0 .09987 -28 271)" fill="none" stroke-width="5.707" stroke="#000" stroke-miterlimit="10"/><use xlink:href="#o" x=".19" y="232.81"/><use xlink:href="#q" x="2.474" y="232.81"/><use xlink:href="#o" x=".19" y="182.65"/><use xlink:href="#r" x="2.474" y="182.65"/><use xlink:href="#s" x="2.473" y="131.92"/><use xlink:href="#r" x="2.473" y="81.19"/><use xlink:href="#q" x="2.473" y="31.03"/><path d="M3595.506-211.163V-2636.7" transform="matrix(.10013 0 0 .09987 -28 271)" fill="none" stroke-width="11.414" stroke-linecap="square" stroke="#000" stroke-miterlimit="10"/><path d="M3595.506-211.163h-22.823m22.823-50.532h-22.823m22.823-50.532h-22.823m22.823-101.064h-45.685m45.685 0h-22.823m22.823-50.532h-22.823m22.823-50.532h-22.823m22.823-50.532h-22.823m22.823-50.532h-22.823m22.823-50.532h-22.823m22.823-50.532h-22.823m22.823-50.532h-22.823m22.823-50.532h-22.823m22.823-101.064h-45.685m45.685 0h-22.823m22.823-50.532h-22.823m22.823-50.532h-22.823m22.823-50.532h-22.823m22.823-50.532h-22.823m22.823-50.532h-22.823m22.823-50.532h-22.823m22.823-50.532h-22.823m22.823-50.532h-22.823m22.823-101.064h-45.685m45.685 0h-22.823m22.823-50.532h-22.823m22.823-50.532h-22.823m22.823-50.532h-22.823m22.823-50.532h-22.823m22.823-50.532h-22.823m22.823-50.532h-22.823m22.823-50.532h-22.823m22.823-50.532h-22.823m22.823-101.064h-45.685m45.685 0h-22.823m22.823-50.532h-22.823m22.823-50.532h-22.823m22.823-50.532h-22.823m22.823-50.532h-22.823m22.823-50.532h-22.823m22.823-50.532h-22.823m22.823-50.532h-22.823m22.823-50.532h-22.823m22.823-101.065h-45.685m45.685 0h-22.823m22.823-50.532h-22.823m22.823-50.532h-22.823m22.823-50.532h-22.823m22.823-50.532h-22.823" transform="matrix(.10013 0 0 .09987 -28 271)" fill="none" stroke-width="5.707" stroke="#000" stroke-miterlimit="10"/><use xlink:href="#o" x="337.714" y="232.81"/><use xlink:href="#q" x="339.997" y="232.81"/><use xlink:href="#o" x="337.714" y="182.65"/><use xlink:href="#r" x="339.997" y="182.65"/><use xlink:href="#s" x="337.714" y="131.92"/><use xlink:href="#r" x="337.714" y="81.19"/><use xlink:href="#q" x="337.714" y="31.03"/><path d="M488.686-306.634l-18.57 69.658m-7.725-37.508l7.724 37.508 25.36-28.67m-7.764-149.248l-16.62 43.609m-3.824-38.095l3.824 38.095 28.207-25.892m-12.563-128.716l-14.669 23.076m3.94-38.095l-3.94 38.095 32.81-19.712M485.76-639.277l-12.718 7.314m21.145-31.915l-21.145 31.915 38.233-2.269m-26.49-120.541l-10.768-4.263m38.155-3.325l-38.155 3.325 25.554 28.512m-15.762-141.505l-8.817-12.32m33.864 17.874l-33.864-17.874L481-846.53m1.834-144.204l-6.866-17.443m28.44 25.618l-28.44-25.618-3.434 38.133m9.325-140.488l-4.916-20.416m24.657 29.333l-24.657-29.333-8.661 37.312m12.601-137.555l-2.965-21.668m21.575 31.642l-21.575-31.642-12.367 36.257m14.318-135.678l-.975-22.02m18.648 33.44l-18.648-33.44-15.567 34.966m15.567-134.192l.975-22.058m15.605 34.965l-15.605-34.965-18.61 33.44m16.66-132.51l2.964-22.41m12.524 36.177l-12.524-36.178-21.457 31.759m17.517-129.968l4.916-23.701m9.831 37l-9.831-37-23.682 30.077m17.79-126.174l6.867-26.635m8.037 37.43l-8.037-37.43-25.125 28.904m17.283-120.972l8.817-31.798m7.335 37.586l-7.335-37.586-25.632 28.434m15.84-113.892l10.768-39.855m7.607 37.547l-7.607-37.547-25.476 28.59m13.733-104.232l12.718-51.392m8.388 37.351l-8.388-37.351-24.852 29.138m11.158-91.169l14.67-67.115m9.402 37.078l-9.403-37.078-24.032 29.803m8.388-73.686l16.62-87.688m10.455 36.843l-10.455-36.843-23.213 30.468m5.617-51.04l18.571-113.698m11.392 36.53l-11.392-36.53-22.433 31.016M648.486-307.768l-18.57 71.926m-8.037-37.43l8.037 37.43 25.125-28.864m-7.53-151.323l-16.62 45.917m-4.447-38.016l4.447 38.016 27.739-26.36m-12.094-130.594l-14.67 25.422m2.302-38.25l-2.302 38.25 31.953-21.08M645.56-640.45l-12.718 9.66m16.932-34.34l-16.932 34.34 37.648-7.079m-25.905-118.077l-10.768-1.917m36.751-10.795l-36.75 10.795 30.664 22.88m-20.872-138.22l-8.818-9.973m35.503 14.354l-35.503-14.354 9.832 37m-1.99-145.73l-6.866-15.136m29.728 24.132l-29.728-24.132-1.483 38.25m7.374-142.912l-4.916-18.07m25.476 28.59l-25.476-28.59-7.569 37.547m11.51-140.097l-2.966-19.36m22.082 31.289l-22.082-31.29-11.782 36.413m13.772-138.18l-1.014-19.713m18.804 33.363l-18.804-33.363-15.372 35.083m15.372-136.616l1.014-19.751m15.372 35.044l-15.372-35.044-18.804 33.362m16.814-134.74l2.966-20.063m11.977 36.373l-11.977-36.373-21.926 31.406m17.985-131.962l4.916-21.355m9.051 37.195l-9.051-37.195-24.345 29.53m18.454-127.973l6.866-24.289m7.179 37.587l-7.179-37.587-25.788 28.278m17.946-122.693l8.818-29.45m6.593 37.703l-6.593-37.704-26.218 27.887m16.425-115.692l10.768-37.508m7.022 37.626l-7.022-37.626-25.905 28.2m14.162-106.188l12.718-49.085m7.998 37.469l-7.998-37.469-25.164 28.864m11.47-93.163l14.67-64.847m9.129 37.195l-9.13-37.195-24.266 29.647m8.622-75.798l16.62-85.38m10.26 36.881l-10.26-36.882-23.33 30.312m5.735-53.231l18.57-111.39m11.275 36.609l-11.275-36.609-22.51 30.977m182.31 2291.854l-18.57 74.272m-8.31-37.39l8.31 37.39 24.93-29.06m-7.335-153.473l-16.62 48.264m-5.032-37.978l5.032 37.978 27.349-26.792M806.336-528.2l-14.67 27.69m.898-38.25l-.897 38.25 31.172-22.254m-17.479-118.86l-12.718 11.968m13.226-35.943l-13.226 35.943 36.673-10.99m-24.93-116.474l-10.768.391m33.591-18.343l-33.59 18.343 34.839 15.88M803.41-874.337l-8.817-7.666m37.063 9.543l-37.063-9.543 14.59 35.396m-6.749-146.433l-6.866-12.829m31.25 22.137l-31.25-22.137 1.053 38.251m4.838-145.26l-4.916-15.723m26.53 27.613l-26.53-27.613-6.164 37.782m10.105-142.678l-2.965-17.053m22.706 30.859l-22.706-30.86-11.041 36.648m13.03-140.684l-1.014-17.404m19.039 33.245l-19.039-33.245-15.137 35.161m15.137-139.041l1.014-17.405m15.138 35.161l-15.138-35.16-19.038 33.244m17.049-136.93l2.965-17.756m11.314 36.57l-11.314-36.57-22.511 30.976m18.57-133.84l4.916-19.085m8.076 37.43l-8.076-37.43-25.086 28.942m19.195-129.694l6.866-21.98m6.165 37.781l-6.165-37.781-26.529 27.612m18.688-124.335l8.817-27.143m5.696 37.86l-5.696-37.86-26.88 27.3m17.087-117.413l10.768-35.161m6.36 37.742l-6.36-37.742-26.412 27.73m14.669-108.026l12.718-46.777m7.53 37.547l-7.53-37.547-25.514 28.55m11.82-95.196l14.67-62.5m8.856 37.234l-8.856-37.235-24.5 29.412m8.855-77.91l16.62-83.073m10.066 36.96l-10.066-36.96-23.525 30.234m5.93-55.421l18.57-109.082m11.12 36.647l-11.12-36.647-22.627 30.859M968.087-310.076l-18.57 76.58m-8.584-37.312l8.583 37.313 24.696-29.256m-7.1-155.624l-16.62 50.57m-5.58-37.86l5.58 37.86 26.958-27.182m-11.314-134.387l-14.67 30.038m-.35-38.29l.35 38.29 30.432-23.271m-16.737-120.15l-12.719 14.275m9.988-36.96l-9.988 36.96 35.58-14.198m-23.837-115.574l-10.767 2.699m29.026-24.953l-29.026 24.953 37.375 8.252M963.21-875.51l-8.817-5.358m38.155 3.128l-38.155-3.128 20.404 32.384m-12.562-145.73l-6.867-10.481m33.045 19.32l-33.045-19.32 4.37 38.016m1.521-147.372l-4.915-13.415m27.816 26.322l-27.816-26.322-4.33 38.055m8.27-145.26l-2.965-14.706m23.486 30.233l-23.486-30.233-10.066 36.922m12.056-143.305l-1.015-15.058m19.312 33.05l-19.312-33.05-14.864 35.279m14.864-141.506l1.015-15.057m14.864 35.278l-14.864-35.278-19.312 33.049m17.322-139.08l2.965-15.45m10.417 36.843l-10.417-36.843-23.213 30.468m19.273-135.638l4.915-16.74m6.828 37.664l-6.828-37.664-26.06 28.082m20.17-131.14l6.866-19.674m4.915 37.938l-4.915-37.938-27.427 26.713m19.585-125.743l8.817-24.836m4.682 38.016l-4.682-38.016-27.583 26.557m17.79-118.977l10.768-32.893m5.618 37.899l-5.618-37.9-26.92 27.222m15.177-109.825l12.719-44.43m7.022 37.625l-7.022-37.625-25.866 28.2m12.172-97.193l14.67-60.153m8.504 37.312l-8.505-37.312-24.735 29.177m9.09-80.022l16.62-80.726m9.87 37l-9.87-37-23.68 30.077m6.085-57.612l18.57-106.735m11.003 36.648l-11.002-36.648-22.745 30.78m182.545 2287.396l-18.57 78.888m-8.818-37.234l8.817 37.234 24.501-29.412m-6.905-157.737l-16.62 52.88m-6.086-37.783l6.086 37.782 26.607-27.534m-10.963-136.382l-14.669 32.384m-1.443-38.29l1.443 38.29 29.729-24.132M1124.96-643.93l-12.718 16.583m7.217-37.586l-7.217 37.586 34.41-16.74m-22.667-115.34l-10.768 5.046m23.798-29.998l-23.798 29.998 38.272 1.017m-28.48-123.319l-8.817-3.011m37.96-5.085l-37.96 5.085 26.842 27.3m-19-142.992l-6.866-8.174m35.112 15.253l-35.112-15.253 8.856 37.273m-2.965-148.897l-4.916-11.108m29.494 24.445l-29.494-24.445-1.834 38.251m5.774-147.763l-2.965-12.398m24.579 29.372l-24.579-29.372-8.778 37.234m10.768-145.964l-1.014-12.75m19.702 32.853l-19.702-32.854-14.436 35.475m14.436-143.97l1.014-12.79m14.435 35.475l-14.435-35.474-19.702 32.853m17.712-141.153l2.965-13.141m9.208 37.156l-9.208-37.156-24.188 29.685m20.248-137.203l4.916-14.432m5.227 37.938l-5.227-37.938-27.232 26.948m21.34-132.314l6.867-17.366m3.355 38.134l-3.355-38.134-28.52 25.58m20.678-126.918l8.817-22.489m3.473 38.134l-3.473-38.134-28.44 25.658m18.648-120.425l10.768-30.546m4.76 37.977l-4.76-37.977-27.544 26.596m15.8-111.546l12.719-42.123m6.476 37.743l-6.476-37.743-26.295 27.847m12.601-99.108l14.67-57.885m8.192 37.39l-8.193-37.39-25.007 28.982m9.363-82.095l16.62-78.419m9.636 37.039l-9.636-37.039-23.838 29.92m6.242-59.801l18.571-104.389m10.846 36.687l-10.846-36.687-22.862 30.703m182.662 2285.127l-18.57 81.234m-9.051-37.195l9.05 37.195 24.306-29.568m-6.71-159.927l-16.62 55.225m-6.515-37.742l6.515 37.742 26.256-27.847m-10.611-138.376l-14.67 34.652m-2.418-38.211l2.418 38.211 29.105-24.874m-15.41-123.202l-12.72 18.93m4.877-37.977l-4.876 37.977 33.317-18.851M1283.785-760.6l-10.768 7.353m18.649-33.44l-18.649 33.44 37.921-5.162m-28.128-119.408l-8.818-.704m35.503-14.354l-35.503 14.354 32.772 19.752m-24.93-137.751l-6.866-5.867m37.18 9.23l-37.18-9.23 14.903 35.279m-9.012-149.25l-4.916-8.76m31.64 21.55l-31.64-21.55 1.717 38.25m2.224-150.11l-2.966-10.09m26.023 28.082l-26.023-28.082-6.866 37.664m8.856-148.662l-1.014-10.443m20.248 32.501l-20.248-32.501-13.811 35.709m13.81-146.551l1.015-10.443m13.85 35.67l-13.85-35.67-20.248 32.502m18.258-143.148l2.966-10.795m7.53 37.508l-7.53-37.508-25.515 28.551m21.574-138.376l4.916-12.125m3.043 38.173l-3.043-38.173-28.714 25.345m22.823-133.058l6.866-15.018m1.366 38.25l-1.366-38.25-29.767 24.053m21.925-127.738l8.818-20.181m1.99 38.25l-1.99-38.25-29.378 24.562m19.585-121.637l10.768-28.2m3.784 38.095l-3.784-38.094-28.207 25.891m16.464-113.15l12.718-39.815m5.891 37.821l-5.89-37.82-26.725 27.417m13.03-101.025l14.67-55.539m7.802 37.47l-7.802-37.47-25.281 28.708m9.636-84.168l16.62-76.11m9.402 37.116l-9.402-37.117-24.033 29.803m6.438-61.952l18.57-102.12m10.729 36.765l-10.729-36.765-22.979 30.624m182.78 2282.936l-18.571 83.542m-9.285-37.155l9.285 37.155 24.15-29.724m-6.555-162.117l-16.62 57.533m-6.944-37.626l6.944 37.626 25.944-28.121m-10.3-140.41l-14.668 36.999m-3.277-38.134l3.277 38.134 28.558-25.54m-14.865-124.844L1431.843-625m2.887-38.173L1431.843-625l32.264-20.612m-20.52-116.122l-10.769 9.66m14.045-35.63l-14.045 35.63 36.907-10.168m-27.114-116.748l-8.817 1.603m30.586-23.036l-30.586 23.036 36.79 10.639m-28.949-130.945l-6.866-3.52m38.273.469l-38.273-.47 22.589 30.899m-16.698-147.216l-4.916-6.453m34.332 16.974l-34.332-16.974 7.062 37.664m-3.121-151.83l-2.965-7.745m28.129 25.97l-28.13-25.97-3.9 38.095m5.89-151.44l-1.014-8.096m21.106 31.954l-21.106-31.954-12.874 36.022m12.874-149.171l1.014-8.136m12.875 36.022l-12.875-36.022-21.106 31.915m19.117-144.908l2.965-8.487m4.955 37.977l-4.955-37.977-27.388 26.752m23.447-138.884l4.916-9.778m0 38.29v-38.29l-30.626 22.958m24.735-132.979l6.866-12.711m-1.17 38.251l1.17-38.251-31.328 22.02m23.487-128.012l8.817-17.874m.195 38.29l-.195-38.29-30.509 23.154m20.716-122.536l10.768-25.931m2.692 38.212l-2.692-38.212-28.948 25.07m17.205-114.635l12.718-37.47m5.228 37.9l-5.228-37.9-27.231 26.91m13.538-102.864l14.669-53.191m7.412 37.547l-7.412-37.547-25.593 28.434m9.948-86.241l16.62-73.764m9.168 37.156l-9.168-37.156-24.227 29.646m6.632-64.143l18.57-99.773m10.573 36.765l-10.572-36.765-23.097 30.507M1607.288-314.73l-18.57 85.85m-9.481-37.078l9.48 37.078 23.955-29.842m-6.36-164.269l-16.62 59.841m-7.334-37.586l7.335 37.586 25.67-28.395m-10.026-142.444l-14.67 39.268m-4.057-38.055l4.058 38.055 28.012-26.087m-14.318-126.604l-12.719 23.545m1.21-38.251l-1.21 38.251 31.328-21.98m-19.585-117.061l-10.767 12.007m10.143-36.921l-10.143 36.92 35.62-14.08m-25.828-115.182l-8.817 3.95m24.266-29.608l-24.266 29.608 38.272 1.642m-30.43-124.296l-6.867-1.212m36.712-10.873l-36.712 10.873 30.743 22.84m-24.852-141.426l-4.915-4.146m37.219 8.996l-37.22-8.996 15.138 35.161m-11.197-151.635l-2.965-5.436m31.328 21.98l-31.328-21.98 1.21 38.25m.74-153.942l-.975-5.789m22.59 30.937l-22.59-30.937-11.158 36.648m11.158-152.105l.976-5.827m11.236 36.608l-11.236-36.608-22.55 30.937m20.599-146.199l2.965-6.18m.702 38.29l-.702-38.29-30.197 23.546m26.257-138.025l4.915-7.47m-4.447 38.055l4.447-38.055-33.083 19.282m27.192-131.61l6.867-10.365m-4.565 37.978l4.565-37.978-33.162 19.126m25.32-127.464l8.817-15.528m-1.99 38.212l1.99-38.212-31.796 21.355m22.004-123.084l10.767-23.584m1.366 38.251l-1.366-38.25-29.806 24.053m18.063-115.966l12.719-35.161m4.447 38.016l-4.447-38.016-27.739 26.4m14.045-104.623l14.67-50.923m6.944 37.664l-6.945-37.664-25.944 28.16m10.3-88.235l16.62-71.457m8.934 37.234l-8.935-37.234-24.422 29.451m6.827-66.294l18.57-97.427m10.417 36.804l-10.416-36.804-23.213 30.39m183.013 2278.478l-18.57 88.196m-9.715-37.039l9.714 37.039 23.799-29.998m-6.203-166.459l-16.62 62.187m-7.686-37.508l7.686 37.508 25.359-28.668m-9.715-144.517l-14.669 41.614m-4.76-37.977l4.76 37.977 27.544-26.595m-13.85-128.442l-12.718 25.891m-.274-38.29l.274 38.29 30.47-23.193m-18.727-118.156l-10.768 14.276m6.905-37.664l-6.905 37.664 34.254-17.052m-24.462-114.519l-8.817 6.297m17.986-33.831l-17.986 33.831 37.844-5.906m-30.002-119.055l-6.866 1.095m31.093-22.372l-31.093 22.372 36.555 11.46m-30.664-132.393l-4.916-1.799m38.077-4.185l-38.077 4.185 26.178 27.926m-22.238-146.746l-2.965-3.13m35.932 13.22l-35.932-13.22 11.002 36.687m-9.051-154.646l-.975-3.481m25.788 28.316l-25.788-28.316-7.14 37.625m7.14-155.43l.975-3.48m7.256 37.586l-7.256-37.586-25.71 28.356m23.76-145.964l2.964-3.833m-7.217 37.586l7.217-37.586-34.41 16.818m30.47-133.605l4.916-5.163m-11.197 36.609l11.197-36.609-36.01 13.064m30.119-127.738l6.866-8.057m-9.13 37.195l9.13-37.195-35.23 15.018m27.388-125.665l8.817-13.22m-4.72 38.017l4.72-38.016-33.24 19.008m23.448-123.045l10.768-21.237m-.195 38.25l.195-38.25-30.743 22.801m19-117.021l12.718-32.854m3.59 38.095l-3.59-38.095-28.324 25.736m14.63-106.305l14.67-48.577m6.476 37.743l-6.477-37.743-26.295 27.809m10.65-90.23l16.62-69.15m8.662 37.313l-8.661-37.313-24.657 29.295m7.061-68.406l18.571-95.158m10.26 36.882l-10.26-36.882-23.37 30.311m183.17 2276.287l-18.57 90.504m-9.91-37l9.91 37 23.642-30.115m-6.047-168.688l-16.62 64.495m-8.037-37.43l8.037 37.43 25.125-28.865m-9.48-146.629l-14.67 43.962m-5.383-37.9l5.383 37.9 27.076-27.065m-13.382-130.28l-12.718 28.199m-1.522-38.251l1.522 38.25 29.69-24.21m-17.947-119.485l-10.768 16.623m4.214-38.056l-4.214 38.056 32.967-19.439m-23.174-114.44l-8.818 8.565m12.563-36.139l-12.563 36.14 36.478-11.617m-28.636-115.652l-6.866 3.441m22.979-30.663l-22.98 30.663h38.273m-32.381-123.279l-4.916.548m32.304-20.612l-32.304 20.612 35.854 13.454m-31.913-134.622l-2.966-.782m37.532-7.51l-37.532 7.51 28.559 25.5m-26.608-145.807l-.975-1.134m35.268 14.94l-35.268-14.94 9.207 37.156m-9.207-157.267l.975-1.174m-8.778 37.234l8.778-37.234-35.073 15.332m33.122-135.287l2.966-1.525m-22.55 30.976l22.55-30.976-38.312.587m34.371-119.681l4.916-2.816m-21.068 31.954l21.068-31.954-38.234 2.307m32.343-119.29l6.866-5.75m-15.254 35.123l15.254-35.122-37.258 8.878m29.416-121.832l8.818-10.912m-8.193 37.39l8.193-37.39-34.84 15.88m25.047-122.224l10.768-18.97m-2.029 38.252l2.029-38.251-31.796 21.315m20.053-117.842l12.718-30.507m2.653 38.172l-2.653-38.172-28.987 24.992m15.293-107.909l14.67-46.23m5.969 37.782l-5.97-37.781-26.685 27.456m11.041-92.225l16.62-66.802m8.349 37.351l-8.35-37.351-24.89 29.099m7.296-70.557l18.57-92.812m10.066 36.921l-10.066-36.921-23.525 30.194m183.326 2274.058l-18.571 92.812m-10.066-36.922l10.066 36.922 23.486-30.194m-5.89-170.918l-16.62 66.842m-8.35-37.352l8.35 37.352 24.89-29.099m-9.246-148.702l-14.67 46.23m-5.968-37.782l5.969 37.782 26.685-27.456m-12.992-132.197l-12.718 30.507m-2.653-38.173l2.653 38.173 28.987-25.031m-17.244-120.972l-10.768 18.969m2.03-38.251l-2.03 38.25 31.797-21.354m-22.004-114.87l-8.817 10.912m8.193-37.39l-8.193 37.39 34.839-15.88m-26.998-113.736l-6.866 5.75m15.254-35.122L2073.97-996.6l37.258-8.879m-31.367-116.67l-4.916 2.817m21.068-31.954l-21.068 31.954 38.234-2.347m-34.293-121.089l-2.965 1.525m22.55-30.976l-22.55 30.976 38.272-.586m-36.322-122.067l-.975 1.173m8.778-37.273l-8.778 37.273 35.112-15.331m-35.112-107.088l.975 1.135m-35.229-14.941l35.23 14.94-9.169-37.155m7.218-85.107l2.965.821m-37.57 7.51l37.57-7.51-28.558-25.5m24.617-95.94l4.916-.51m-32.303 20.613l32.303-20.612-35.854-13.454m29.963-105.836l6.866-3.442m-22.979 30.624l22.98-30.624h-38.312m30.47-115.261l8.817-8.566m-12.563 36.14l12.563-36.14-36.478 11.616m26.685-120.307l10.768-16.622m-4.252 38.056l4.252-38.056-33.005 19.438m21.262-118.312l12.718-28.2m1.522 38.252l-1.522-38.251-29.689 24.21m15.996-109.395l14.669-43.961m5.384 37.899l-5.384-37.9-27.076 27.066m11.431-94.102l16.62-64.534m8.037 37.469l-8.037-37.47-25.125 28.904m7.53-72.669l18.57-90.504m9.91 37l-9.91-37-23.642 30.116m183.444 2271.83l-18.57 95.158m-10.261-36.882l10.26 36.882 23.37-30.35m-5.775-173.069l-16.62 69.15m-8.66-37.313l8.66 37.312 24.657-29.294m-9.012-150.853l-14.67 48.576m-6.514-37.742l6.515 37.742 26.295-27.808m-12.601-134.191l-12.719 32.853m-3.589-38.133l3.59 38.133 28.323-25.735m-16.58-122.615l-10.768 21.277m.195-38.29l-.195 38.29 30.742-22.802m-20.95-115.692l-8.817 13.22m4.72-38.016l-4.72 38.016 33.24-19.047m-25.398-112.876l-6.867 8.057m9.13-37.195l-9.13 37.195 35.23-15.019m-29.339-112.875l-4.915 5.162m11.158-36.647l-11.158 36.647 36.01-13.063m-32.07-112.72l-2.965 3.834m7.218-37.586l-7.218 37.586 34.41-16.818m-32.46-108.104l-.975 3.48m-7.256-37.586l7.256 37.587 25.75-28.356m-25.75-96.41l.976 3.48m-25.75-28.316l25.75 28.317 7.217-37.625m-9.168-86.945l2.965 3.129m-35.97-13.22l35.97 13.22-11.002-36.687m7.062-87.062l4.915 1.8m-38.077 4.184l38.077-4.185-26.178-27.925m20.287-93.711l6.867-1.096m-31.094 22.372l31.094-22.372-36.556-11.46m28.714-106.109l8.817-6.297m-17.985 33.793l17.985-33.793-37.843 5.906m28.05-116.865l10.768-14.315m-6.905 37.665l6.905-37.665-34.254 17.053m22.511-118.234l12.719-25.892m.273 38.29l-.273-38.29-30.47 23.193m16.776-110.724l14.67-41.615m4.759 37.977l-4.76-37.977-27.544 26.596m11.9-95.98l16.62-62.187m7.685 37.508l-7.686-37.508-25.398 28.669m7.803-74.742l18.57-88.196m9.676 37.038l-9.675-37.038-23.838 29.959M2406.29-320.518l-18.57 97.465m-10.417-36.843l10.416 36.843 23.214-30.468m-5.618-175.297l-16.62 71.457m-8.934-37.235l8.934 37.235 24.422-29.451m-8.778-153.004l-14.669 50.923m-6.983-37.665l6.983 37.665 25.944-28.16m-12.25-136.148l-12.718 35.162m-4.448-38.017l4.448 38.017 27.738-26.4m-15.995-124.258l-10.768 23.584m-1.366-38.25l1.366 38.25 29.806-24.053m-20.014-116.787l-8.817 15.527m1.99-38.212l-1.99 38.212 31.757-21.355m-23.915-112.875l-6.866 10.403m4.564-38.016l-4.564 38.016 33.161-19.203m-27.27-111.038l-4.916 7.51m4.447-38.056l-4.447 38.056 33.084-19.282m-29.144-108.848l-2.965 6.18m-.702-38.29l.702 38.29 30.197-23.545m-28.246-103.724l-.975 5.828m-11.197-36.608l11.197 36.608 22.589-30.937m-22.59-96.136l.976 5.75m-22.589-30.899l22.589 30.898 11.197-36.608m-13.148-90.27l2.965 5.476m-31.328-22.02l31.328 22.02-1.21-38.29m-2.73-87.805l4.916 4.146m-37.22-9.035l37.22 9.035-15.138-35.162m9.247-88.783l6.866 1.213m-36.712 10.873l36.712-10.873-30.743-22.841m22.901-97.075l8.817-3.95m-24.266 29.607l24.266-29.607-38.272-1.643m28.48-111.663l10.768-12.007m-10.144 36.92l10.144-36.92-35.62 14.08m23.877-117.57l12.718-23.544m-1.21 38.25l1.21-38.25-31.328 21.98m17.634-111.859l14.67-39.267m4.057 38.055l-4.058-38.055-28.012 26.087m12.368-97.818l16.62-59.84m7.334 37.586l-7.334-37.586-25.671 28.395m8.075-76.815l18.571-85.85m9.48 37.078l-9.48-37.078-23.954 29.842M2566.09-321.692l-18.57 99.774m-10.573-36.804l10.573 36.804 23.096-30.507m-5.501-177.566l-16.62 73.803m-9.168-37.156l9.168 37.156 24.228-29.647m-8.583-155.116l-14.67 53.192m-7.412-37.547l7.412 37.547 25.593-28.434m-11.899-138.181l-12.718 37.469m-5.228-37.9l5.228 37.9 27.231-26.909m-15.488-126.056l-10.768 25.93m-2.692-38.211l2.692 38.212 28.948-25.07m-19.155-118.117l-8.818 17.874m-.234-38.29l.234 38.29 30.51-23.154m-22.668-113.424l-6.866 12.712m1.17-38.251l-1.17 38.25 31.328-22.02m-25.437-110.489l-4.916 9.778m0-38.29v38.29l30.626-22.998m-26.685-107.4l-2.966 8.487m-4.954-37.977l4.954 37.977 27.388-26.791m-25.437-102.824l-.975 8.135m-12.914-36.021l12.914 36.021 21.106-31.954m-21.106-97.427l.975 8.097m-21.067-31.915l21.067 31.915 12.914-36.061m-14.865-93.125l2.966 7.744m-28.13-25.97l28.13 25.97 3.9-38.094m-7.84-90.309l4.915 6.454m-34.332-16.935l34.332 16.935-7.062-37.625m1.17-88.627l6.867 3.52m-38.311-.47l38.311.47-22.589-30.898m14.747-91.325l8.818-1.604m-30.587 23.037l30.587-23.037-36.79-10.638m26.997-105.014l10.768-9.661m-14.045 35.63l14.045-35.63-36.946 10.13m25.203-115.966l12.718-21.237m-2.887 38.173l2.887-38.173-32.264 20.572m18.57-112.719l14.67-37m3.277 38.134l-3.277-38.133-28.558 25.5m12.913-99.5l16.62-57.532m6.944 37.625l-6.944-37.625-25.944 28.121m8.349-78.888l18.57-83.542m9.286 37.156l-9.286-37.156-24.15 29.725m183.95 2265.258l-18.57 102.12m-10.729-36.765l10.729 36.765 22.98-30.624m-5.385-179.757l-16.62 76.111m-9.441-37.117l9.441 37.117 24.033-29.803m-8.388-157.306l-14.67 55.538m-7.802-37.469l7.803 37.47 25.28-28.748m-11.587-140.214l-12.718 39.815m-5.891-37.82l5.891 37.82 26.724-27.417m-14.98-127.894l-10.769 28.238m-3.784-38.095l3.784 38.095 28.207-25.892m-18.414-119.564l-8.817 20.143m-1.99-38.212l1.99 38.212 29.377-24.523m-21.536-114.323l-6.866 15.019m-1.365-38.29l1.365 38.29 29.807-24.054m-23.916-110.802l-4.916 12.124m-3.043-38.173l3.043 38.173 28.714-25.344m-24.773-107.4l-2.965 10.795m-7.53-37.508l7.53 37.508 25.515-28.552m-23.565-103.332l-.975 10.443m-13.85-35.71l13.85 35.71 20.248-32.502m-20.248-99.226l.975 10.443m-20.248-32.502l20.248 32.502 13.85-35.709m-15.8-95.823l2.965 10.09m-26.022-28.12l26.022 28.12 6.827-37.664m-10.768-93.046l4.916 8.761m-31.64-21.55l31.64 21.55-1.756-38.25m-4.135-90.348l6.866 5.866m-37.18-9.23l37.18 9.23-14.903-35.278m7.062-89.292l8.817.704m-35.503 14.354l35.503-14.354-32.81-19.75m23.017-98.17l10.768-7.354m-18.648 33.44l18.648-33.44-37.921 5.163m26.178-113.306l12.718-18.93m-4.876 37.977l4.876-37.977-33.317 18.852m19.624-113.345l14.669-34.653m2.419 38.212l-2.42-38.212-29.103 24.836m13.46-101.181l16.62-55.226m6.514 37.743l-6.515-37.743-26.256 27.848m8.661-80.883l18.57-81.235m9.052 37.195l-9.051-37.195-24.306 29.569M2885.69-324l-18.57 104.388m-10.886-36.686l10.885 36.686 22.862-30.702m-5.267-181.986l-16.62 78.418m-9.636-37.038l9.637 37.038 23.837-29.92m-8.193-159.496l-14.67 57.885m-8.192-37.43l8.193 37.43 25.008-28.982m-11.314-142.288l-12.719 42.124m-6.476-37.743l6.476 37.743 26.296-27.848m-14.553-129.772l-10.767 30.546m-4.76-37.977l4.76 37.977 27.504-26.595m-17.712-121.207l-8.817 22.49m-3.472-38.134l3.472 38.133 28.441-25.657m-20.6-115.535l-6.866 17.365m-3.355-38.172l3.355 38.172 28.52-25.579m-22.629-111.624l-4.915 14.432m-5.228-37.899l5.228 37.9 27.231-26.91m-23.291-108.142l-2.965 13.141m-9.207-37.156l9.207 37.156 24.188-29.686m-22.237-104.545l-.976 12.79m-14.435-35.474l14.435 35.474 19.702-32.854m-19.702-101.181l.976 12.75m-19.663-32.853l19.663 32.853 14.474-35.474m-16.425-98.404l2.965 12.398m-24.579-29.373l24.579 29.373 8.74-37.234m-12.68-95.784l4.915 11.108m-29.494-24.445l29.494 24.445 1.834-38.251m-7.725-92.656l6.867 8.175m-35.113-15.254l35.113 15.254-8.856-37.273m1.014-89.605l8.817 3.012m-37.96 5.084l37.96-5.084-26.841-27.3m17.049-92.968l10.767-5.006m-23.798 29.998l23.798-29.998-38.272-1.056m26.53-109.434l12.718-16.583m-7.218 37.586l7.218-37.586-34.41 16.74m20.716-113.58l14.67-32.307m1.443 38.251l-1.444-38.25-29.728 24.092m14.084-102.785l16.62-52.879m6.047 37.821l-6.048-37.82-26.607 27.534m9.012-82.916l18.57-78.888m8.818 37.234l-8.817-37.234-24.5 29.373m184.3 2260.955l-18.57 106.735m-11.002-36.686l11.001 36.686 22.745-30.78m-5.15-184.215l-16.62 80.726m-9.87-37l9.87 37 23.682-30.077m-8.037-161.648l-14.669 60.154m-8.544-37.313l8.544 37.313 24.735-29.216m-11.041-144.36l-12.718 44.43m-7.062-37.625l7.062 37.625 25.866-28.2m-14.123-131.727l-10.768 32.893m-5.618-37.9l5.618 37.9 26.92-27.222m-17.128-122.927l-8.817 24.836m-4.681-38.017l4.681 38.017 27.583-26.557m-19.741-116.983l-6.866 19.674m-4.916-37.978l4.916 37.978 27.426-26.714m-21.535-112.758l-4.916 16.74m-6.828-37.665l6.828 37.665 26.061-28.082m-22.12-109.278l-2.966 15.41m-10.416-36.804l10.416 36.804 23.213-30.429m-21.262-106.109l-.975 15.097m-14.865-35.278l14.865 35.278 19.311-33.05m-19.311-103.292l.975 15.057m-19.273-33.049l19.273 33.05 14.903-35.28m-16.854-100.868l2.965 14.706m-23.525-30.233l23.525 30.233 10.066-36.92m-14.006-98.405l4.916 13.376m-27.817-26.283l27.817 26.283 4.33-38.017m-10.221-95.197l6.866 10.482m-33.045-19.321l33.045 19.321-4.37-38.016m-3.472-91.17l8.817 5.36m-38.155-3.13l38.155 3.13-20.404-32.424m10.612-90.191l10.768-2.7m-29.027 24.954l29.027-24.953-37.376-8.253m25.633-104.545l12.718-14.275m-9.988 36.96l9.988-36.96-35.58 14.197m21.886-113.306l14.67-30.037m.35 38.29l-.35-38.29-30.431 23.271m14.786-104.232l16.62-50.571m5.579 37.86l-5.58-37.86-26.958 27.182m9.363-84.91l18.571-76.58m8.583 37.311l-8.583-37.312-24.696 29.255M3205.29-326.346l-18.57 109.082m-11.158-36.648l11.158 36.648 22.628-30.898m-5.033-186.445l-16.62 83.073m-10.065-36.96l10.065 36.96 23.486-30.233m-7.841-163.838l-14.67 62.5m-8.856-37.234l8.856 37.234 24.501-29.412m-10.807-146.511l-12.718 46.777m-7.53-37.547l7.53 37.547 25.515-28.551m-13.772-133.722l-10.768 35.2m-6.36-37.743l6.36 37.743 26.373-27.73m-16.58-124.687l-8.818 27.143m-5.735-37.86l5.735 37.86 26.88-27.3m-19.038-118.547l-6.866 21.98m-6.164-37.78l6.164 37.78 26.53-27.612m-20.64-114.205l-4.915 19.086m-8.076-37.43l8.076 37.43 25.086-28.942m-21.145-110.764l-2.966 17.757m-11.314-36.57l11.314 36.57 22.472-30.977m-20.52-107.87l-.976 17.405m-15.177-35.16l15.177 35.16 19.039-33.244m-19.04-105.445l.976 17.405m-19-33.245l19 33.245 15.177-35.161m-17.128-103.333l2.966 17.053m-22.706-30.86l22.706 30.86 11.04-36.687m-14.98-100.986l4.915 15.723m-26.53-27.613l26.53 27.613 6.164-37.782m-12.055-97.778l6.866 12.828m-31.25-22.137l31.25 22.137-1.053-38.25m-6.789-93.282l8.818 7.666m-37.103-9.543l37.103 9.543-14.63-35.396m4.837-89.487l10.768-.39m-33.63 18.343l33.63-18.344-34.84-15.879m23.097-99.226l12.718-11.968m-13.225 35.944l13.225-35.944-36.673 10.99m22.98-112.445l14.669-27.69m-.898 38.25l.898-38.25-31.172 22.253m15.527-105.561l16.62-48.264m5.033 37.977l-5.033-37.977-27.349 26.791m9.754-86.788l18.57-74.273m8.31 37.391l-8.31-37.39-24.93 29.06M3365.09-327.48l-18.57 111.35m-11.275-36.57l11.275 36.57 22.51-30.937m-4.915-188.713l-16.62 85.38m-10.26-36.882l10.26 36.882 23.33-30.35m-7.685-166.028l-14.67 64.846m-9.168-37.195l9.169 37.195 24.266-29.607m-10.573-148.623l-12.718 49.084m-7.998-37.468l7.998 37.468 25.164-28.864m-13.42-135.717l-10.769 37.508m-7.022-37.664l7.022 37.664 25.905-28.2m-16.112-126.564l-8.817 29.451m-6.594-37.703l6.594 37.703 26.217-27.886m-18.376-120.268l-6.866 24.288m-7.178-37.586l7.178 37.586 25.788-28.317m-19.897-115.809l-4.916 21.394m-9.05-37.195l9.05 37.195 24.345-29.529m-20.404-112.484l-2.965 20.103m-11.977-36.374l11.977 36.374 21.925-31.407m-19.975-109.786l-.975 19.752m-15.371-35.044l15.371 35.044 18.805-33.362m-18.805-107.674l.975 19.751m-18.765-33.362l18.765 33.362 15.41-35.083m-17.36-105.757l2.965 19.36m-22.082-31.29l22.082 31.29 11.782-36.413m-15.723-103.567l4.916 18.07m-25.476-28.591l25.476 28.59 7.569-37.547m-13.46-100.32l6.866 15.097m-29.728-24.132l29.728 24.132 1.483-38.212m-9.324-95.589l8.817 9.974m-35.503-14.354l35.503 14.354-9.832-37m.04-90.23l10.767 1.917m-36.75 10.794l36.75-10.794-30.665-22.92m18.922-94.493l12.718-9.622m-16.97 34.301l16.97-34.3-37.648 7.04m23.955-110.842l14.669-25.384m-2.302 38.212l2.302-38.212-31.952 21.081m16.307-106.696l16.62-45.917m4.448 38.017l-4.448-38.017-27.739 26.362m10.144-88.705l18.57-71.926m8.037 37.43l-8.036-37.43-25.125 28.864M3524.89-328.654l-18.57 113.697m-11.393-36.569l11.392 36.57 22.394-31.016m-4.799-190.942l-16.62 87.688m-10.455-36.843l10.456 36.843 23.213-30.468m-7.569-168.219l-14.67 67.116m-9.401-37.078l9.402 37.078 24.032-29.803m-10.338-150.736l-12.719 51.393m-8.388-37.352l8.388 37.352 24.852-29.138m-13.109-137.751l-10.767 39.816m-7.608-37.508l7.608 37.508 25.476-28.552m-15.684-128.52l-8.817 31.797m-7.374-37.586l7.374 37.586 25.632-28.434m-17.79-122.066l-6.867 26.634m-8.037-37.43l8.037 37.43 25.125-28.903m-19.234-117.53l-4.915 23.702m-9.832-37l9.832 37 23.681-30.077m-19.741-114.245l-2.965 22.411m-12.523-36.178l12.523 36.178 21.419-31.758m-19.468-111.78l-.976 22.058m-15.566-34.966l15.566 34.966 18.649-33.44m-18.649-109.864l.976 22.02m-18.61-33.441l18.61 33.44 15.605-34.965m-17.556-108.144l2.965 21.668m-21.575-31.64l21.575 31.64 12.367-36.217m-16.307-106.07l4.915 20.338m-24.656-29.295l24.656 29.295 8.622-37.274m-14.513-102.902l6.867 17.444m-28.441-25.618l28.44 25.618 3.434-38.095m-11.275-98.052l8.817 12.32m-33.864-17.913l33.864 17.913-6.008-37.82m-3.784-91.756l10.767 4.263m-38.155 3.324l38.155-3.324-25.554-28.512m13.811-91.247l12.719-7.314m-21.146 31.915l21.146-31.915-38.234 2.268m24.54-108.339l14.67-23.075m-3.941 38.094l3.94-38.094-32.85 19.712m17.206-107.635l16.62-43.61m3.784 38.095l-3.785-38.094-28.207 25.892m10.612-90.583l18.57-69.618m7.725 37.508l-7.724-37.508-25.36 28.669" transform="matrix(.10013 0 0 .09987 -28 271)" fill="none" stroke-width="5.707" stroke-linecap="round" stroke="#00f" stroke-miterlimit="10"/><g clip-path="url(#t)"><path d="M2024.15-1449.197l2.496 2.62 2.263 2.895 1.912 3.05 1.56 3.246 1.288 3.364.858 3.481.507 3.56.117 3.558-.234 3.56-.624 3.52-.975 3.48-1.327 3.325-1.677 3.207-2.029 3.012-2.34 2.816-2.576 2.58-2.887 2.309-3.082 2.072-3.316 1.721-3.472 1.447-3.59 1.096-3.667.743-3.784.39-3.745.04-3.785-.313-3.706-.704-3.628-1.017-3.473-1.369-3.355-1.682-3.12-1.994-2.927-2.308-2.653-2.542-2.34-2.777-2.068-3.05-1.756-3.169-1.405-3.363-1.014-3.442-.702-3.52-.273-3.598.078-3.599.468-3.559.82-3.52 1.209-3.403 1.56-3.285 1.912-3.09 2.185-2.933 2.536-2.699 2.77-2.464 3.004-2.15 3.238-1.917 3.433-1.565 3.55-1.212 3.667-.9 3.785-.547 3.784-.196 3.784.156 3.785.548 3.667.9 3.59 1.212 3.394 1.565 3.238 1.877 3.043 2.19 2.77 2.464 2.536 2.738 2.184 2.933 1.912 3.13 1.522 3.324 1.21 3.402.818 3.56.469 3.559.078 3.637-.313 3.598-.702 3.56-1.053 3.48-1.405 3.325-1.794 3.207-2.068 3.05-2.419 2.778-2.653 2.58-2.965 2.348-3.16 1.994-3.355 1.721-3.55 1.37-3.668 1.055-3.745.704-3.784.352-3.824-.039-3.823-.391-3.745-.743-3.629-1.095-3.51-1.408-3.356-1.8-3.121-2.072-2.926-2.347-2.614-2.62-2.38-2.895-2.029-3.09-1.716-3.246-1.327-3.403-1.014-3.52-.585-3.559-.234-3.637.156-3.637.507-3.599.936-3.559 1.249-3.403 1.638-3.285 1.99-3.129 2.263-2.933 2.614-2.699 2.848-2.425 3.082-2.19 3.316-1.838 3.472-1.526 3.667-1.212 3.707-.821 3.823-.509 3.862-.117 3.824.234 3.784.587 3.706.978 3.629 1.29 3.433 1.643 3.238 1.956 3.004 2.268 2.77 2.543 2.497 2.776 2.185 3.012 1.872 3.207 1.483 3.364 1.17 3.52.78 3.559.39 3.637v3.677l-.39 3.637-.74 3.598-1.132 3.481-1.483 3.364-1.872 3.246-2.146 3.012-2.497 2.816-2.77 2.542-3.004 2.308-3.238 1.994-3.433 1.682-3.629 1.33-3.706 1.017-3.823.626-3.863.312-3.862-.078-3.823-.47-3.785-.82-3.667-1.174-3.511-1.486-3.355-1.838-3.16-2.151-2.887-2.464-2.614-2.7-2.341-2.932-2.029-3.168-1.638-3.325-1.327-3.442-.936-3.598-.546-3.637-.157-3.677.196-3.676.624-3.638.975-3.559 1.366-3.442 1.677-3.324 2.068-3.13 2.34-2.932 2.693-2.66 2.926-2.425 3.199-2.151 3.355-1.8 3.55-1.525 3.707-1.134 3.823-.821 3.862-.43 3.902-.079 3.862.313 3.823.665 3.746 1.017 3.628 1.408 3.433 1.721 3.277 2.034 3.004 2.307 2.77 2.62 2.458 2.895 2.185 3.09 1.795 3.246 1.482 3.442 1.092 3.56.703 3.637.35 3.676-.038 3.716-.468 3.676-.82 3.637-1.209 3.52-1.56 3.403-1.951 3.207-2.263 3.051-2.536 2.816-2.848 2.542-3.121 2.269-3.316 1.955-3.511 1.643-3.668 1.29-3.784.978-3.862.587-3.902.235-3.94-.157-3.863-.508-3.823-.9-3.667-1.251-3.55-1.565-3.356-1.916-3.16-2.23-2.887-2.542-2.614-2.777-2.301-3.011-1.99-3.207-1.6-3.403-1.287-3.52-.898-3.637-.468-3.716-.117-3.716.312-3.715.664-3.677 1.053-3.598 1.444-3.48 1.794-3.325 2.107-3.13 2.458-2.894 2.77-2.698 3.004-2.386 3.238-2.112 3.472-1.8 3.628-1.485 3.746-1.096 3.901-.743 3.901-.39h3.94l3.941.39 3.863.704 3.745 1.095 3.667 1.487 3.433 1.76 3.278 2.15 3.004 2.387 2.77 2.698 2.457 2.934 2.107 3.168 1.795 3.363 1.404 3.481 1.054 3.638.702 3.676.234 3.755-.117 3.754-.507 3.716-.897 3.677-1.288 3.52-1.678 3.441-1.99 3.208-2.34 3.05-2.653 2.816-2.926 2.543-3.16 2.229-3.394 1.955-3.59 1.604-3.745 1.252-3.862.9-3.94.547-3.941.156-3.98-.195-3.9-.587-3.863-.978-3.706-1.29-3.55-1.682-3.395-1.995-3.16-2.308-2.848-2.581-2.614-2.894-2.263-3.09-1.95-3.285-1.6-3.442-1.21-3.598-.819-3.716-.429-3.755-.039-3.754.312-3.794.78-3.716 1.132-3.598 1.521-3.52 1.873-3.325 2.224-3.129 2.536-2.933 2.809-2.66 3.12-2.385 3.317-2.112 3.55-1.76 3.668-1.408 3.862-1.056 3.94-.704 3.98-.313 3.98.039 3.979.47 3.9.781 3.785 1.174 3.668 1.525 3.472 1.878 3.277 2.19 3.004 2.503 2.73 2.777 2.459 3.011 2.067 3.247 1.756 3.441 1.405 3.56.975 3.676.624 3.755.195 3.794-.195 3.793-.585 3.794-.975 3.677-1.366 3.559-1.755 3.442-2.068 3.246-2.458 3.05-2.692 2.777-3.043 2.543-3.238 2.23-3.472 1.916-3.668 1.564-3.823 1.212-3.94.86-3.98.47-4.018.118-4.019-.274-3.94-.665-3.862-1.017-3.785-1.408-3.55-1.76-3.394-2.073-3.121-2.386-2.887-2.698-2.575-2.934-2.263-3.168-1.912-3.363-1.56-3.52-1.17-3.677-.781-3.755-.351-3.833.039-3.793.39-3.833.858-3.716 1.21-3.676 1.6-3.52 1.95-3.364 2.302-3.129 2.614-2.933 2.926-2.66 3.16-2.346 3.433-2.073 3.628-1.721 3.785-1.37 3.901-1.055 3.98-.626 4.057-.274 4.018.157 4.019.469 3.94.9 3.863 1.251 3.667 1.604 3.472 1.955 3.277 2.269 3.004 2.581 2.731 2.855 2.42 3.09 2.067 3.325 1.716 3.52 1.327 3.637.936 3.716.546 3.832.156 3.872-.273 3.833-.663 3.794-1.053 3.755-1.444 3.598-1.833 3.442-2.185 3.246-2.497 3.05-2.81 2.778-3.12 2.503-3.355 2.23-3.55 1.877-3.746 1.525-3.862 1.173-3.98.822-4.057.43-4.097.039-4.057-.352-4.018-.743-3.902-1.095-3.745-1.486-3.59-1.839-3.394-2.15-3.16-2.465-2.848-2.777-2.575-3.011-2.223-3.247-1.873-3.441-1.522-3.599-1.13-3.754-.703-3.833-.312-3.872.078-3.872.507-3.833.936-3.794 1.288-3.677 1.677-3.559 2.029-3.363 2.419-3.13 2.692-2.933 3.004-2.66 3.277-2.346 3.511-2.034 3.668-1.681 3.862-1.37 3.98-.938 4.057-.587 4.096-.234 4.097.195 4.057.587 3.98.978 3.862 1.29 3.706 1.721 3.511 2.034 3.278 2.347 3.004 2.698 2.692 2.934 2.418 3.168 2.03 3.403 1.677 3.559 1.287 3.715.897 3.794.469 3.911.078 3.872-.352 3.911-.702 3.872-1.17 3.755-1.522 3.638-1.911 3.441-2.263 3.286-2.614 3.011-2.887 2.816-3.2 2.464-3.432 2.19-3.629 1.878-3.823 1.486-3.98 1.134-4.057.743-4.096.392-4.136-.04-4.135-.43-4.019-.782-3.98-1.212-3.783-1.526-3.629-1.916-3.355-2.269-3.16-2.542-2.848-2.855-2.575-3.09-2.185-3.363-1.833-3.52-1.483-3.677-1.053-3.794-.663-3.91-.234-3.912.156-3.95.585-3.872.975-3.833 1.405-3.716 1.755-3.559 2.146-3.403 2.458-3.129 2.809-2.933 3.082-2.66 3.355-2.307 3.59-1.995 3.784-1.682 3.94-1.29 4.018-.939 4.175-.508 4.135-.157 4.175.274 4.096.626 4.019 1.056 3.901 1.408 3.706 1.76 3.55 2.15 3.239 2.465 3.004 2.738 2.692 3.011 2.38 3.246 1.99 3.481 1.638 3.677 1.248 3.755.859 3.91.429 3.951v3.95l-.43 3.95-.819 3.912-1.209 3.754-1.639 3.677-1.99 3.48-2.38 3.286-2.691 3.05-3.004 2.778-3.238 2.464-3.512 2.15-3.745 1.84-3.901 1.446-4.058 1.095-4.096.704-4.214.313-4.174-.117-4.175-.47-4.096-.899-3.98-1.252-3.823-1.642-3.628-1.995-3.394-2.347-3.16-2.62-2.848-2.933-2.497-3.208-2.185-3.402-1.834-3.638-1.404-3.754-1.014-3.872-.586-3.95-.195-3.99.234-3.99.664-3.95 1.092-3.872 1.443-3.715 1.873-3.598 2.224-3.403 2.575-3.168 2.887-2.934 3.199-2.62 3.433-2.308 3.667-1.955 3.863-1.643 4.018-1.251 4.136-.86 4.213-.47 4.214-.078 4.213.312 4.136.744 4.057 1.095 3.94 1.486 3.746 1.877 3.511 2.23 3.277 2.542 3.004 2.816 2.692 3.129 2.341 3.324 1.95 3.56 1.64 3.754 1.17 3.833.78 3.99.351 3.989-.078 4.028-.468 3.99-.897 3.95-1.327 3.833-1.717 3.676-2.067 3.52-2.458 3.286-2.77 3.011-3.121 2.777-3.355 2.503-3.629 2.112-3.823 1.8-3.98 1.407-4.096 1.017-4.213.665-4.253.235-4.252-.156-4.214-.548-4.135-.978-4.019-1.33-3.823-1.72-3.667-2.113-3.434-2.424-3.12-2.738-2.849-3.012-2.496-3.285-2.146-3.481-1.756-3.716-1.404-3.833-.937-3.95-.546-4.028-.117-4.068.312-4.028.741-3.99 1.17-3.911 1.561-3.794 1.951-3.598 2.302-3.403 2.653-3.168 3.004-2.933 3.277-2.581 3.55-2.308 3.746-1.956 3.94-1.603 4.135-1.213 4.175-.782 4.291-.43h4.292l4.252.391 4.214.821 4.096 1.174 3.98 1.603 3.745 1.956 3.55 2.307 3.277 2.62 3.005 2.934 2.652 3.207 2.341 3.442 1.951 3.638 1.522 3.793 1.17 3.95.702 4.03.273 4.067-.117 4.106-.585 4.029-.975 3.99-1.405 3.871-1.794 3.716-2.185 3.52-2.575 3.285-2.887 3.051-3.16 2.777-3.472 2.425-3.707 2.112-3.901 1.76-4.058 1.408-4.213.978-4.292.547-4.291.196-4.33-.235-4.253-.626-4.175-1.017-4.096-1.447-3.862-1.838-3.668-2.151-3.433-2.542-3.121-2.816-2.848-3.13-2.497-3.363-2.107-3.598-1.716-3.755-1.327-3.95-.897-4.029-.468-4.067-.04-4.146.391-4.068.82-4.067 1.248-3.95 1.638-3.794 2.029-3.638 2.419-3.441 2.77-3.168 3.082-2.895 3.394-2.62 3.628-2.269 3.863-1.916 4.057-1.565 4.175-1.173 4.291-.743 4.33-.352 4.331.078 4.37.47 4.252.86 4.136 1.29 3.98 1.682 3.783 2.034 3.59 2.386 3.277 2.738 2.965 3.011 2.653 3.325 2.302 3.52 1.911 3.716 1.522 3.91 1.053 4.03.663 4.106.235 4.107-.235 4.185-.624 4.106-1.092 3.99-1.483 3.91-1.911 3.755-2.263 3.56-2.653 3.285-2.965 3.05-3.316 2.778-3.55 2.424-3.824 2.073-3.98 1.721-4.135 1.33-4.291.939-4.37.547-4.37.118-4.408-.313-4.33-.704-4.214-1.135-4.096-1.525-3.902-1.916-3.706-2.269-3.433-2.62-3.121-2.934-2.81-3.207-2.457-3.442-2.107-3.676-1.678-3.872-1.287-4.029-.858-4.106-.39-4.146.039-4.185.468-4.185.897-4.068 1.327-3.989 1.755-3.833 2.146-3.676 2.536-3.442 2.848-3.207 3.199-2.894 3.472-2.582 3.706-2.268 3.98-1.878 4.135-1.525 4.253-1.095 4.37-.704 4.408-.313 4.447.156 4.37.548 4.33.978 4.175 1.369 4.018 1.76 3.824 2.112 3.589 2.503 3.277 2.816 2.965 3.129 2.653 3.402 2.263 3.638 1.873 3.794 1.443 3.989 1.054 4.107.585 4.185.156 4.224-.273 4.185-.742 4.185-1.17 4.067-1.6 3.95-1.99 3.755-2.38 3.56-2.77 3.324-3.081 3.05-3.355 2.777-3.668 2.386-3.901 2.073-4.096 1.682-4.253 1.29-4.37.9-4.447.47-4.448.039-4.447-.392-4.409-.82-4.252-1.213-4.136-1.604-3.94-1.995-3.706-2.346-3.473-2.738-3.12-3.012-2.81-3.324-2.419-3.56-2.067-3.754-1.639-3.95-1.248-4.107-.78-4.185-.313-4.263.078-4.263.547-4.185 1.014-4.185 1.443-4.029 1.834-3.872 2.263-3.676 2.614-3.442 2.965-3.207 3.277-2.894 3.59-2.582 3.823-2.229 4.057-1.877 4.214-1.447 4.369-1.056 4.448-.665 4.525-.235 4.487.235 4.447.586 4.37 1.095 4.213 1.448 4.058 1.838 3.862 2.23 3.59 2.62 3.277 2.933 2.965 3.207 2.653 3.481 2.223 3.716 1.834 3.95 1.404 4.067.976 4.185.546 4.264.078 4.263-.39 4.302-.82 4.185-1.248 4.146-1.677 3.99-2.107 3.793-2.497 3.598-2.848 3.325-3.2 3.05-3.471 2.738-3.785 2.386-3.98 2.034-4.213 1.642-4.33 1.252-4.448.86-4.525.392-4.565-.04-4.525-.469-4.448-.86-4.292-1.291-4.174-1.721-3.98-2.112-3.745-2.464-3.433-2.816-3.16-3.129-2.77-3.403-2.419-3.637-2.029-3.911-1.6-4.029-1.17-4.185-.702-4.263-.273-4.341.156-4.302.663-4.303 1.093-4.185 1.521-4.106 1.912-3.911 2.38-3.716 2.692-3.442 3.082-3.207 3.433-2.894 3.667-2.582 3.94-2.19 4.175-1.838 4.292-1.447 4.486-.978 4.526-.587 4.564-.156 4.604.235 4.487.743 4.447 1.134 4.292 1.564 4.057 1.956 3.902 2.347 3.589 2.66 3.277 3.05 3.004 3.324 2.575 3.599 2.224 3.794 1.794 4.028 1.366 4.185.897 4.263.468 4.341v4.38l-.429 4.342-.936 4.263-1.327 4.185-1.794 4.029-2.224 3.833-2.575 3.598-2.965 3.364-3.316 3.05-3.59 2.738-3.862 2.386-4.135 1.995-4.292 1.603-4.447 1.213-4.565.743-4.565.352-4.642-.118-4.604-.508-4.486-.978-4.37-1.408-4.213-1.799-4.019-2.19-3.745-2.582-3.472-2.933-3.121-3.207-2.77-3.52-2.42-3.794-1.989-3.95-1.56-4.146-1.093-4.263-.663-4.38-.195-4.381.234-4.42.741-4.341 1.17-4.263 1.64-4.107 2.067-3.95 2.458-3.755 2.809-3.48 3.199-3.247 3.511-2.894 3.823-2.543 4.058-2.19 4.252-1.76 4.409-1.408 4.564-.938 4.643-.548 4.643-.078 4.642.352 4.604.821 4.448 1.213 4.33 1.642 4.136 2.073 3.9 2.425 3.63 2.816 3.315 3.129 2.965 3.442 2.575 3.676 2.185 3.95 1.717 4.107 1.326 4.263.858 4.38.43 4.42-.117 4.46-.508 4.38-1.014 4.341-1.443 4.263-1.912 4.068-2.302 3.872-2.73 3.598-3.044 3.364-3.433 3.05-3.706 2.738-4.019 2.347-4.213 1.995-4.37 1.564-4.565 1.173-4.642.704-4.682.274-4.72-.195-4.643-.626-4.604-1.056-4.408-1.486-4.253-1.917-4.057-2.308-3.746-2.66-3.472-3.01-3.16-3.364-2.77-3.638-2.38-3.872-1.95-4.067-1.483-4.263-1.092-4.38-.585-4.42-.118-4.498.352-4.459.819-4.42 1.287-4.302 1.717-4.185 2.185-3.99 2.536-3.793 2.965-3.48 3.316-3.247 3.628-2.894 3.901-2.543 4.175-2.15 4.37-1.76 4.525-1.33 4.682-.9 4.72-.47h4.721l4.76.43 4.642.9 4.526 1.291 4.37 1.76 4.174 2.19 3.94 2.542 3.629 2.895 3.316 3.246 2.965 3.56 2.536 3.793 2.184 4.068 1.678 4.184 1.288 4.38.78 4.46.312 4.537-.156 4.497-.624 4.498-1.093 4.42-1.56 4.263-1.99 4.107-2.419 3.91-2.848 3.677-3.16 3.364-3.55 3.05-3.824 2.738-4.135 2.347-4.33 1.917-4.487 1.564-4.682 1.056-4.72.665-4.8.195-4.798-.234-4.72-.704-4.643-1.174-4.487-1.564-4.33-2.034-4.058-2.386-3.784-2.816-3.472-3.129-3.16-3.48-2.731-3.716-2.341-3.99-1.95-4.184-1.444-4.38-1.015-4.46-.507-4.537-.039-4.576.43-4.536.897-4.498 1.404-4.38 1.834-4.225 2.263-4.028 2.692-3.794 3.082-3.56 3.394-3.206 3.745-2.895 4.058-2.503 4.291-2.15 4.487-1.722 4.642-1.29 4.76-.86 4.799-.392 4.837.039 4.838.548 4.72.977 4.604 1.408 4.448 1.878 4.213 2.268 3.94 2.66 3.629 3.011 3.316 3.364 2.965 3.676 2.536 3.912 2.107 4.185 1.677 4.302 1.21 4.498.741 4.537.234 4.615-.234 4.615-.702 4.576-1.21 4.459-1.677 4.341-2.107 4.146-2.536 3.95-2.965 3.677-3.277 3.402-3.667 3.05-3.98 2.7-4.213 2.346-4.448 1.917-4.642 1.486-4.76 1.056-4.838.587-4.876.117-4.877-.352-4.838-.782-4.681-1.252-4.565-1.682-4.37-2.112-4.096-2.542-3.823-2.894-3.473-3.285-3.16-3.56-2.73-3.872-2.342-4.106-1.872-4.303-1.405-4.458-.936-4.576-.468-4.655.039-4.654.546-4.615 1.014-4.576 1.483-4.42 1.95-4.302 2.38-4.068 2.81-3.832 3.199-3.56 3.55-3.246 3.862-2.855 4.175-2.542 4.408-2.112 4.604-1.682 4.76-1.252 4.876-.782 4.916-.313 4.916.118 4.915.625 4.8 1.096 4.68 1.525 4.487 1.955 4.253 2.386 3.98 2.777 3.666 3.13 3.317 3.48 2.965 3.794 2.497 4.067 2.106 4.264 1.639 4.458 1.131 4.576.664 4.655.195 4.693-.352 4.693-.819 4.655-1.326 4.536-1.756 4.42-2.224 4.185-2.653 3.99-3.082 3.715-3.433 3.403-3.784 3.09-4.097 2.698-4.37 2.269-4.564 1.916-4.76 1.447-4.876.978-4.955.508-4.994.079-4.954-.43-4.916-.9-4.76-1.33-4.643-1.799-4.369-2.23-4.175-2.659-3.823-3.05-3.511-3.364-3.16-3.716-2.731-3.99-2.263-4.223-1.834-4.42-1.365-4.576-.897-4.693-.39-4.733.156-4.732.585-4.733 1.131-4.654 1.6-4.498 2.067-4.341 2.497-4.107 2.926-3.872 3.356-3.598 3.667-3.246 4.018-2.895 4.292-2.464 4.525-2.073 4.76-1.681 4.877-1.174 4.954-.743 5.033-.235 5.033.196 4.994.704 4.915 1.173 4.721 1.643 4.565 2.073 4.291 2.503 4.019 2.894 3.667 3.286 3.355 3.598 2.926 3.911 2.497 4.185 2.068 4.38 1.56 4.577 1.132 4.693.585 4.772.078 4.81-.43 4.811-.936 4.732-1.404 4.616-1.873 4.458-2.34 4.263-2.81 3.99-3.199 3.755-3.589 3.441-3.94 3.051-4.214 2.699-4.486 2.268-4.682 1.878-4.877 1.408-4.993.9-5.072.468-5.111-.039-5.072-.469-4.955-1.017-4.876-1.447-4.682-1.916-4.487-2.347-4.174-2.777-3.862-3.168-3.512-3.52-3.16-3.794-2.692-4.146-2.301-4.341-1.756-4.537-1.327-4.693-.819-4.811-.312-4.85.234-4.85.702-4.81 1.249-4.733 1.677-4.576 2.224-4.38 2.614-4.185 3.082-3.912 3.433-3.598 3.824-3.246 4.174-2.894 4.409-2.503 4.681-2.034 4.877-1.604 4.994-1.134 5.11-.665 5.15-.196 5.15.313 5.072.783 4.955 1.29 4.838 1.76 4.603 2.19 4.33 2.621 4.058 3.012 3.706 3.441 3.356 3.716 2.926 4.068 2.497 4.302 1.99 4.498 1.56 4.693 1.014 4.81.507 4.929.04 4.889-.547 4.889-1.014 4.81-1.522 4.694-2.028 4.537-2.458 4.341-2.926 4.029-3.356 3.793-3.706 3.442-4.057 3.09-4.37 2.66-4.642 2.268-4.838 1.838-4.994 1.33-5.15.9-5.189.39-5.188-.117-5.19-.625-5.071-1.056-4.955-1.604-4.72-2.034-4.526-2.464-4.213-2.894-3.94-3.285-3.512-3.638-3.16-3.99-2.692-4.223-2.224-4.498-1.756-4.693-1.287-4.811-.741-4.928-.195-4.967.273-4.967.858-4.89 1.327-4.81 1.833-4.654 2.302-4.46 2.77-4.223 3.238-3.95 3.59-3.638 3.94-3.285 4.33-2.855 4.565-2.464 4.799-2.034 4.993-1.565 5.15-1.095 5.228-.586 5.267-.118 5.267.391 5.189.9 5.071 1.408 4.877 1.838 4.682 2.308 4.408 2.777 4.058 3.168 3.745 3.52 3.355 3.911 2.926 4.185 2.458 4.459 1.99 4.654 1.482 4.81.976 4.929.429 5.045-.078 5.006-.624 5.007-1.132 4.888-1.638 4.772-2.146 4.615-2.614 4.38-3.082 4.107-3.472 3.794-3.863 3.481-4.213 3.09-4.526 2.66-4.76 2.268-4.993 1.76-5.15 1.33-5.267.782-5.306.352-5.345-.235-5.267-.665-5.188-1.212-5.033-1.682-4.799-2.15-4.603-2.621-4.253-3.012-3.94-3.442-3.55-3.794-3.16-4.106-2.654-4.38-2.223-4.655-1.717-4.81-1.21-4.968-.663-5.045-.156-5.085.43-5.084.897-5.007 1.482-4.888 1.95-4.733 2.459-4.537 2.887-4.263 3.355-3.99 3.784-3.637 4.097-3.324 4.447-2.855 4.721-2.464 4.955-1.995 5.15-1.525 5.305-1.056 5.345-.509 5.423-.039 5.345.508 5.306 1.017 5.15 1.487 4.994 1.994 4.72 2.425 4.487 2.894 4.135 3.325 3.746 3.676 3.355 4.029 2.926 4.341 2.419 4.576 1.95 4.811 1.444 4.967.897 5.085.351 5.123-.156 5.163-.741 5.084-1.249 5.007-1.755 4.889-2.263 4.693-2.77 4.42-3.199 4.185-3.667 3.832-4.019 3.481-4.37 3.09-4.68 2.66-4.917 2.23-5.11 1.76-5.306 1.25-5.423.744-5.462.234-5.423-.273-5.423-.783-5.267-1.33-5.15-1.798-4.876-2.308-4.643-2.738-4.33-3.168-3.98-3.598-3.55-3.911-3.16-4.303-2.653-4.536-2.185-4.772-1.678-4.967-1.131-5.085-.624-5.202-.04-5.201.508-5.202 1.053-5.124 1.56-4.967 2.108-4.85 2.575-4.576 3.082-4.341 3.51-4.029 3.902-3.676 4.292-3.325 4.603-2.894 4.877-2.425 5.11-1.994 5.307-1.448 5.423-.977 5.54-.47 5.5.079 5.501.586 5.423 1.095 5.267 1.604 5.033 2.151 4.838 2.581 4.525 3.051 4.175 3.442 3.784 3.833 3.355 4.185 2.926 4.498 2.42 4.771 1.91 4.928 1.366 5.124.859 5.24.273 5.28-.273 5.242-.82 5.24-1.365 5.085-1.912 4.967-2.419 4.772-2.926 4.498-3.355 4.224-3.823 3.91-4.175 3.482-4.525 3.129-4.838 2.66-5.11 2.19-5.307 1.72-5.423 1.174-5.579.704-5.578.156-5.58-.352-5.54-.938-5.383-1.408-5.228-1.956-4.994-2.425-4.72-2.894-4.37-3.325-4.019-3.715-3.589-4.107-3.16-4.42-2.653-4.732-2.146-4.928-1.638-5.124-1.054-5.24-.546-5.32.078-5.358.586-5.32 1.17-5.24 1.717-5.085 2.223-4.928 2.731-4.693 3.238-4.38 3.668-4.068 4.096-3.755 4.448-3.285 4.76-2.894 5.071-2.425 5.267-1.956 5.501-1.447 5.579-.9 5.657-.39 5.696.156 5.618.665 5.54 1.251 5.345 1.76 5.189 2.23 4.876 2.737 4.604 3.208 4.213 3.598 3.824 4.028 3.394 4.342 2.887 4.654 2.419 4.928 1.872 5.124 1.327 5.24.741 5.398.195 5.397-.39 5.437-.936 5.319-1.483 5.24-2.067 5.085-2.575 4.811-3.043 4.615-3.55 4.263-3.98 3.911-4.33 3.56-4.721 3.129-5.033 2.66-5.267 2.15-5.462 1.682-5.618 1.173-5.735.587-5.735.078-5.735-.469-5.657-1.017-5.54-1.525-5.306-2.073-5.071-2.582-4.8-3.05-4.447-3.481-4.057-3.911-3.628-4.263-3.122-4.616-2.652-4.889-2.146-5.084-1.56-5.32-1.015-5.397-.43-5.475.118-5.515.741-5.436 1.287-5.359 1.834-5.201 2.38-5.007 2.926-4.771 3.394-4.498 3.824-4.107 4.252-3.755 4.643-3.363 4.993-2.894 5.228-2.425 5.462-1.917 5.657-1.369 5.774-.86 5.813-.313 5.813.235 5.774.821 5.657 1.33 5.501 1.916 5.267 2.386 4.994 2.894 4.643 3.364 4.291 3.794 3.862 4.145 3.395 4.537 2.887 4.85 2.38 5.085 1.833 5.319 1.288 5.436.663 5.515.117 5.593-.507 5.554-1.054 5.475-1.638 5.359-2.185 5.162-2.731 4.968-3.238 4.654-3.706 4.341-4.175 3.95-4.526 3.599-4.915 3.129-5.19 2.66-5.461 2.15-5.657 1.643-5.813 1.095-5.891.548-5.93-.04-5.891-.547-5.774-1.173-5.657-1.682-5.462-2.19-5.15-2.738-4.877-3.207-4.525-3.677-4.097-4.067-3.628-4.459-3.2-4.81-2.613-5.046-2.068-5.28-1.56-5.476-.937-5.593-.35-5.632.233-5.67.859-5.594 1.404-5.475 2.029-5.359 2.536-5.123 3.082-4.85 3.55-4.537 4.018-4.185 4.448-3.833 4.838-3.324 5.188-2.934 5.423-2.386 5.657-1.916 5.852-1.33 5.93-.782 6.009-.235 6.008.352 5.93.939 5.813 1.447 5.618 2.034 5.345 2.542 5.11 3.09 4.721 3.52 4.33 3.99 3.902 4.34 3.433 4.733 2.887 5.046 2.38 5.28 1.756 5.475 1.21 5.632.623 5.71v5.75l-.585 5.71-1.21 5.632-1.794 5.476-2.34 5.28-2.927 5.045-3.394 4.772-3.901 4.42-4.37 4.028-4.72 3.598-5.111 3.13-5.423 2.659-5.657 2.15-5.852 1.604-6.008 1.017-6.086.47-6.087-.079-6.047-.704-5.969-1.251-5.774-1.838-5.579-2.386-5.306-2.894-4.954-3.364-4.565-3.872-4.136-4.263-3.706-4.654-3.16-4.968-2.614-5.28-2.068-5.475-1.482-5.671-.897-5.789-.235-5.828.352-5.827.975-5.75 1.56-5.632 2.146-5.475 2.731-5.241 3.238-4.928 3.746-4.654 4.252-4.264 4.682-3.833 4.994-3.402 5.383-2.894 5.657-2.425 5.892-1.839 6.047-1.29 6.125-.743 6.203-.118 6.164.43 6.125 1.057 5.97 1.603 5.734 2.19 5.501 2.738 5.19 3.207 4.798 3.755 4.447 4.146 3.902 4.576 3.472 4.928 2.887 5.24 2.34 5.516 1.757 5.67 1.13 5.828.547 5.906-.117 5.906-.741 5.906-1.327 5.75-1.95 5.67-2.497 5.398-3.121 5.162-3.59 4.85-4.096 4.498-4.565 4.107-4.954 3.637-5.345 3.168-5.618 2.66-5.891 2.112-6.086 1.564-6.204.978-6.28.391-6.321-.195-6.203-.822-6.125-1.408-5.97-1.955-5.696-2.543-5.422-3.09-5.033-3.559-4.682-4.067-4.213-4.498-3.707-4.85-3.199-5.202-2.614-5.475-2.028-5.71-1.405-5.867-.82-5.984-.155-6.023.468-5.984 1.131-5.945 1.717-5.789 2.302-5.632 2.926-5.358 3.433-5.046 3.98-4.732 4.447-4.341 4.877-3.912 5.267-3.441 5.617-2.895 5.853-2.385 6.125-1.839 6.242-1.251 6.398-.626 6.398-.04 6.36.548 6.28 1.174 6.126 1.76 5.93 2.346 5.618 2.895 5.345 3.441 4.877 3.912 4.486 4.38 3.98 4.772 3.472 5.162 2.926 5.476 2.302 5.71 1.716 5.906 1.093 6.023.429 6.14-.234 6.102-.82 6.102-1.521 5.945-2.107 5.788-2.692 5.593-3.277 5.28-3.823 4.967-4.33 4.576-4.8 4.146-5.188 3.716-5.58 3.168-5.851 2.66-6.125 2.111-6.32 1.526-6.438.9-6.515.312-6.516-.313-6.437-.939-6.32-1.525-6.125-2.151-5.852-2.699-5.54-3.285-5.15-3.794-4.76-4.263-4.291-4.693-3.746-5.124-3.199-5.437-2.614-5.71-2.028-5.906-1.327-6.14-.741-6.18-.039-6.218.585-6.22 1.249-6.14 1.911-5.984 2.497-5.75 3.082-5.514 3.668-5.202 4.213-4.81 4.643-4.42 5.15-3.95 5.5-3.481 5.852-2.933 6.165-2.386 6.32-1.8 6.515-1.212 6.633-.547 6.632.039 6.593.665 6.476 1.33 6.32 1.916 6.087 2.503 5.774 3.129 5.462 3.637 4.994 4.146 4.564 4.615 4.058 5.006 3.51 5.398 2.927 5.71 2.302 5.984 1.638 6.14 1.015 6.259.312 6.336-.312 6.375-.976 6.258-1.677 6.18-2.263 5.983-2.926 5.71-3.472 5.437-4.058 5.085-4.564 4.654-5.072 4.263-5.423 3.755-5.852 3.207-6.125 2.698-6.399 2.073-6.554 1.447-6.71.86-6.75.236-6.749-.43-6.671-1.057-6.516-1.72-6.32-2.308-6.008-2.894-5.696-3.481-5.306-4.029-4.838-4.498-4.37-4.967-3.822-5.358-3.2-5.671-2.614-5.984-1.95-6.219-1.327-6.336-.624-6.453.04-6.454.74-6.453 1.405-6.336 2.068-6.18 2.692-5.906 3.316-5.71 3.901-5.32 4.448-4.927 4.954-4.537 5.384-4.029 5.774-3.52 6.125-2.972 6.438-2.386 6.632-1.76 6.788-1.134 6.867-.509 6.866.157 6.828.821 6.75 1.486 6.514 2.073 6.282 2.738 5.969 3.286 5.579 3.872 5.15 4.38 4.642 4.889 4.097 5.28 3.55 5.671 2.926 5.984 2.302 6.258 1.6 6.414.936 6.532.234 6.61-.469 6.57-1.13 6.493-1.835 6.375-2.496 6.18-3.122 5.906-3.706 5.593-4.33 5.201-4.8 4.811-5.344 4.342-5.735 3.793-6.125 3.286-6.398 2.66-6.71 2.072-6.867 1.447-6.984.783-7.022.117-6.984-.548-6.944-1.212-6.75-1.838-6.515-2.543-6.203-3.129-5.89-3.676-5.424-4.263-4.994-4.81-4.408-5.203-3.863-5.632-3.277-5.984-2.614-6.258-1.911-6.492-1.249-6.61-.546-6.727.156-6.727.897-6.688 1.561-6.571 2.263-6.414 2.926-6.14 3.55-5.868 4.175-5.475 4.72-5.085 5.228-4.615 5.657-4.107 6.125-3.598 6.437-2.972 6.71-2.386 6.945-1.76 7.062-1.095 7.178-.391 7.179.273 7.1.94 6.984 1.642 6.75 2.268 6.514 2.934 6.126 3.559 5.774 4.106 5.267 4.655 4.76 5.162 4.213 5.593 3.589 5.945 2.926 6.297 2.302 6.532 1.56 6.727.859 6.845.117 6.883-.586 6.845-1.326 6.766-2.029 6.61-2.692 6.414-3.394 6.101-3.98 5.789-4.564 5.358-5.15 4.928-5.618 4.42-6.047 3.911-6.437 3.324-6.75 2.7-7.022 2.033-7.178 1.408-7.296.704-7.335.04-7.334-.705-7.179-1.369-7.022-2.034-6.75-2.737-6.437-3.325-6.086-3.99-5.579-4.536-5.11-5.085-4.565-5.514-3.902-5.945-3.316-6.297-2.614-6.571-1.872-6.805-1.21-6.962-.429-7.04.312-7.04 1.014-6.962 1.795-6.845 2.458-6.649 3.16-6.375 3.823-6.062 4.448-5.632 5.033-5.241 5.54-4.772 6.008-4.224 6.437-3.637 6.788-3.05 7.062-2.387 7.257-1.72 7.451-1.017 7.49-.313 7.491.39 7.452 1.096 7.257 1.8 7.022 2.502 6.75 3.168 6.359 3.794 5.93 4.42 5.462 4.967 4.876 5.475 4.292 5.906 3.667 6.297 2.965 6.61 2.263 6.884 1.522 7.079.74 7.157.04 7.236-.741 7.157-1.522 7.08-2.224 6.883-2.965 6.649-3.628 6.336-4.292 5.984-4.876 5.554-5.462 5.084-5.97 4.537-6.398 3.99-6.827 3.402-7.1 2.7-7.374 2.072-7.569 1.369-7.646.626-7.725-.079-7.608-.82-7.53-1.565-7.334-2.269-7.023-2.933-6.71-3.638-6.281-4.263-5.774-4.85-5.267-5.397-4.682-5.867-4.018-6.297-3.316-6.648-2.614-6.962-1.912-7.158-1.092-7.314-.351-7.392.468-7.353 1.21-7.313 1.95-7.158 2.73-6.923 3.434-6.649 4.136-6.257 4.76-5.906 5.344-5.437 5.891-4.889 6.398-4.341 6.828-3.716 7.178-3.09 7.452-2.424 7.686-1.682 7.842-.978 7.841-.235 7.881.548 7.764 1.252 7.607 1.994 7.374 2.738 7.023 3.442 6.632 4.107 6.164 4.732 5.618 5.28 5.072 5.828 4.37 6.297 3.745 6.688 3.004 7 2.262 7.275 1.444 7.47.702 7.55-.117 7.587-.936 7.51-1.717 7.43-2.458 7.197-3.238 6.962-3.901 6.61-4.643 6.218-5.228 5.789-5.852 5.24-6.359 4.694-6.827 4.107-7.179 3.48-7.568 2.739-7.803 2.072-7.959 1.33-8.115.548-8.076-.196-8.037-.978-7.88-1.76-7.686-2.464-7.374-3.246-6.983-3.91-6.554-4.577-6.009-5.24-5.461-5.75-4.8-6.258-4.135-6.727-3.394-7.08-2.653-7.352-1.833-7.588-1.015-7.744-.234-7.783.585-7.744 1.444-7.705 2.185-7.51 3.004-7.235 3.745-6.962 4.448-6.57 5.15-6.141 5.734-5.632 6.32-5.085 6.79-4.498 7.295-3.833 7.607-3.129 7.92-2.464 8.115-1.681 8.31-.9 8.31-.117 8.31.665 8.193 1.447 7.997 2.229 7.725 3.012 7.335 3.715 6.944 4.42 6.437 5.123 5.853 5.672 5.227 6.257 4.565 6.728 3.823 7.118 3.043 7.47 2.224 7.744 1.444 7.9.585 7.98-.273 8.017-1.093 7.94-1.95 7.822-2.731 7.588-3.55 7.314-4.292 6.922-4.994 6.532-5.657 6.023-6.242 5.476-6.827 4.889-7.296 4.224-7.686 3.559-8.036 2.816-8.31 2.073-8.466 1.29-8.544.47-8.583-.313-8.505-1.173-8.35-1.956-8.075-2.738-7.764-3.52-7.334-4.263-6.867-4.967-6.281-5.632-5.657-6.18-4.994-6.766-4.252-7.157-3.512-7.588-2.653-7.861-1.833-8.057-.976-8.214-.078-8.291.78-8.214 1.64-8.135 2.496-7.94 3.277-7.626 4.097-7.353 4.876-6.884 5.54-6.453 6.204-5.906 6.788-5.32 7.335-4.654 7.763-3.95 8.154-3.246 8.466-2.503 8.661-1.643 8.817-.86 8.856-.04 8.818.822 8.7 1.643 8.466 2.503 8.153 3.324 7.764 4.068 7.296 4.81 6.75 5.515 6.163 6.18 5.462 6.727 4.72 7.236 3.941 7.665 3.121 7.98 2.224 8.29 1.366 8.449.507 8.487-.43 8.565-1.326 8.449-2.224 8.252-3.043 8.057-3.901 7.744-4.682 7.314-5.423 6.884-6.164 6.336-6.75 5.749-7.334 5.124-7.88 4.42-8.271 3.676-8.622 2.894-8.896 2.112-9.05 1.251-9.169.392-9.13-.47-9.05-1.33-8.856-2.229-8.623-3.05-8.192-3.873-7.764-4.654-7.257-5.436-6.632-6.102-5.97-6.727-5.188-7.275-4.448-7.744-3.589-8.135-2.692-8.448-1.794-8.683-.898-8.8.04-8.839.975-8.8 1.911-8.683 2.81-8.448 3.667-8.135 4.525-7.744 5.267-7.353 6.086-6.806 6.75-6.218 7.334-5.593 7.92-4.89 8.427-4.145 8.778-3.403 9.13-2.503 9.324-1.72 9.44-.783 9.52.078 9.442.978 9.285 1.917 9.012 2.776 8.7 3.677 8.31 4.498 7.725 5.28 7.178 6.023 6.476 6.727 5.735 7.314 4.955 7.861 4.097 8.292 3.199 8.644 2.302 8.917 1.287 9.074.39 9.191-.624 9.152-1.56 9.074-2.536 8.878-3.434 8.605-4.33 8.252-5.15 7.784-5.97 7.313-6.71 6.728-7.373 6.101-8.037 5.437-8.505 4.615-8.973 3.872-9.324 3.05-9.637 2.112-9.753 1.252-9.87.352-9.871-.665-9.754-1.525-9.519-2.503-9.207-3.442-8.817-4.263-8.31-5.163-7.725-5.945-7.061-6.688-6.32-7.353-5.502-7.94-4.642-8.487-3.745-8.839-2.77-9.191-1.795-9.387-.82-9.543.235-9.582 1.21-9.465 2.223-9.348 3.16-9.074 4.135-8.76 4.994-8.332 5.891-7.861 6.672-7.275 7.373-6.649 8.115-5.945 8.622-5.202 9.168-4.42 9.598-3.52 9.91-2.659 10.143-1.72 10.26-.744 10.3.196 10.222 1.173 10.065 2.19 9.754 3.13 9.402 4.106 8.895 4.967 8.349 5.867 7.686 6.649 6.944 7.431 6.125 8.018 5.228 8.643 4.292 9.074 3.355 9.465 2.302 9.74 1.287 9.933.234 9.974-.82 9.973-1.872 9.817-2.887 9.622-3.901 9.308-4.838 8.918-5.774 8.448-6.632 7.861-7.413 7.236-8.154 6.57-8.817 5.789-9.363 4.967-9.87 4.107-10.222 3.207-10.534 2.268-10.729 1.252-10.767.235-10.768-.783-10.612-1.838-10.378-2.816-10.026-3.833-9.598-4.85-9.012-5.749-8.349-6.61-7.607-7.431-6.789-8.135-5.93-8.8-4.916-9.348-3.94-9.778-2.887-10.13-1.834-10.325-.702-10.482.39-10.482 1.522-10.364 2.575-10.208 3.628-9.935 4.682-9.543 5.657-9.074 6.593-8.526 7.413-7.94 8.27-7.196 8.974-6.454 9.597-5.632 10.144-4.732 10.611-3.794 10.924-2.816 11.236-1.8 11.314-.742 11.353.313 11.236 1.408 11.08 2.503 10.729 3.559 10.3 4.615 9.753 5.632 9.13 6.57 8.387 7.471 7.53 8.253 6.632 9.034 5.657 9.583 4.643 10.13 3.51 10.56 2.38 10.794 1.25 11.03.077 11.03-1.092 11.029-2.224 10.873-3.355 10.599-4.487 10.286-5.5 9.778-6.555 9.27-7.49 8.643-8.35 7.979-9.129 7.157-9.87 6.336-10.495 5.476-11.002 4.459-11.43 3.48-11.783 2.425-11.9 1.291-12.015.196-12.017-.939-11.82-2.112-11.51-3.246-11.158-4.38-10.612-5.476-9.948-6.532-9.246-7.51-8.427-8.408-7.452-9.191-6.476-9.935-5.345-10.52-4.253-11.03-3.082-11.382-1.872-11.616-.585-11.733.585-11.734 1.872-11.616 3.082-11.381 4.253-11.069 5.384-10.638 6.476-10.13 7.53-9.465 8.466-8.8 9.402-8.018 10.183-7.196 10.845-6.22 11.51-5.28 11.977-4.223 12.367-3.09 12.64-1.995 12.797-.782 12.797.43 12.718 1.643 12.484 2.894 12.095 4.107 11.587 5.32 10.963 6.453 10.26 7.509 9.364 8.565 8.426 9.504 7.413 10.287 6.281 10.99 5.072 11.577 3.823 12.007 2.536 12.36 1.249 12.515-.078 12.594-1.405 12.477-2.73 12.32-4.02 12.046-5.227 11.616-6.437 11.069-7.569 10.482-8.66 9.777-9.676 8.996-10.534 8.135-11.353 7.158-12.055 6.18-12.64 5.123-13.148 3.911-13.46 2.777-13.733 1.486-13.772.196-13.772-1.095-13.537-2.464-13.226-3.755-12.797-5.085-12.172-6.375-11.43-7.587-10.535-8.722-9.597-9.778-8.505-10.756-7.335-11.577-6.086-12.242-4.72-12.828-3.395-13.22-1.95-13.454-.546-13.611.897-13.61 2.302-13.416 3.745-13.18 5.072-12.79 6.437-12.242 7.647-11.694 8.895-10.951 9.987-10.17 11.002-9.308 11.938-8.292 12.758-7.274 13.46-6.14 14.084-4.968 14.513-3.676 14.825-2.386 15.02-.978 15.02.43 14.943 1.878 14.63 3.324 14.201 4.81 13.616 6.259 12.913 7.626 12.017 8.918 11.04 10.169 9.87 11.303 8.662 12.28 7.296 13.103 5.852 13.807 4.408 14.353 2.848 14.706 1.327 14.902-.273 14.94-1.834 14.863-3.394 14.627-4.955 14.237-6.398 13.767-7.803 13.18-9.168 12.438-10.456 11.656-11.626 10.716-12.68 9.739-13.693 8.683-14.513 7.509-15.255 6.219-15.84 4.928-16.307 3.48-16.542 2.034-16.737.47-16.659-1.134-16.464-2.738-16.073-4.42-15.567-6.023-14.825-7.627-13.928-9.19-12.874-10.678-11.704-12.008-10.34-13.18-8.933-14.276-7.335-15.136-5.735-15.84-4.018-16.31-2.302-16.661-.546-16.779 1.248-16.779 3.004-16.544 4.72-16.231 6.438-15.762 8.037-15.136 9.636-14.432 11.08-13.611 12.485-12.672 13.733-11.655 14.942-10.56 15.956-9.31 16.893-8.017 17.674-6.61 18.258-5.084 18.727-3.52 19.038-1.8 19.078-.039 19.039 1.839 18.726 3.715 18.22 5.632 17.556 7.549 16.62 9.426 15.566 11.264 14.28 12.946 12.796 14.51 11.236 15.88 9.48 17.052 7.647 17.991 5.696 18.735 3.667 19.203 1.678 19.478-.43 19.556-2.418 19.399-4.526 19.086-6.476 18.656-8.388 18.07-10.3 17.326-12.055 16.466-13.772 15.567-15.332 14.51-16.815 13.337-18.142 12.125-19.39 10.755-20.404 9.309-21.301 7.666-22.043 5.984-22.55 4.145-22.9 2.152h-23.019l-22.901-2.23-22.55-4.537-21.926-7-21.106-9.387-19.936-11.851-18.57-14.159-16.972-16.387-15.137-18.344-13.109-20.142-10.923-21.55-8.583-22.763-6.087-23.545-3.628-24.093-1.053-24.327 1.521-24.289 4.058-24.053 6.554-23.623 9.051-23.076 11.431-22.333 13.733-21.472 15.957-20.573 18.063-19.595 20.092-18.5 21.965-17.365 23.72-16.075 25.398-14.784 26.842-13.298 28.128-11.655 29.3-9.895 30.235-7.9 30.977-5.672 31.406-3.168 31.64-.39 31.485 2.776 31.016 6.18 30.196 9.895 28.91 13.767 27.27 17.757 25.203 21.668 22.706 25.422 19.858 28.669 16.659 31.524 13.225 33.714 9.598 35.239 5.813 36.256 1.95 36.687-1.872 36.647-5.774 36.413-9.559 35.865-13.303 35.318-17.01 34.731-20.639 34.262-24.227 33.91-27.817 33.909-31.406 34.262-35.034 35.16-38.819 36.844-42.876 39.698-47.285 44.509-52.317 52.448-58.56 66.412-66.791 93.32-79.315 155.233-103.933 367.257-209.464 5165.334" transform="matrix(.10013 0 0 .09987 -28 271)" fill="none" stroke-width="11.414" stroke-linecap="round" stroke-linejoin="round" stroke="red" stroke-miterlimit="10"/></g></svg>