<svg xmlns="http://www.w3.org/2000/svg" width="322pt" height="245pt" viewBox="0 0 322 245"><defs><clipPath id="a"><path d="M160 1.66h2v242.25h-2zm0 0"/></clipPath><clipPath id="b"><path d="M1 122h320v2H1zm0 0"/></clipPath><clipPath id="c"><path d="M1 1.66h1v242.25H1zm0 0"/></clipPath><clipPath id="d"><path d="M80 1.66h2v242.25h-2zm0 0"/></clipPath><clipPath id="e"><path d="M160 1.66h2v242.25h-2zm0 0"/></clipPath><clipPath id="f"><path d="M240 1.66h2v242.25h-2zm0 0"/></clipPath><clipPath id="g"><path d="M320 1.66h1v242.25h-1zm0 0"/></clipPath><clipPath id="h"><path d="M1 243h320v.91H1zm0 0"/></clipPath><clipPath id="i"><path d="M1 183h320v1H1zm0 0"/></clipPath><clipPath id="j"><path d="M1 122h320v2H1zm0 0"/></clipPath><clipPath id="k"><path d="M1 61h320v2H1zm0 0"/></clipPath><clipPath id="l"><path d="M1 1.66h320V2H1zm0 0"/></clipPath></defs><path d="M1 243.91h320V1.66H1zm0 0" fill="#fff"/><g clip-path="url(#a)"><path d="M1997.503-211.163V-2636.7" transform="matrix(.10013 0 0 .09987 -39 265)" fill="none" stroke-width="5.707" stroke-linecap="round" stroke="#bfbfbf" stroke-miterlimit="10"/></g><g clip-path="url(#b)"><path d="M399.5-1423.931h3196.006" transform="matrix(.10013 0 0 .09987 -39 265)" fill="none" stroke-width="5.707" stroke-linecap="round" stroke="#bfbfbf" stroke-miterlimit="10"/></g><g clip-path="url(#c)"><path d="M399.5-211.163V-2636.7" transform="matrix(.10013 0 0 .09987 -39 265)" fill="none" stroke-width="5.707" stroke-linecap="round" stroke="#bfbfbf" stroke-dasharray="11.4143,17.1214" stroke-miterlimit="10"/></g><g clip-path="url(#d)"><path d="M1198.502-211.163V-2636.7" transform="matrix(.10013 0 0 .09987 -39 265)" fill="none" stroke-width="5.707" stroke-linecap="round" stroke="#bfbfbf" stroke-dasharray="11.4143,17.1214" stroke-miterlimit="10"/></g><g clip-path="url(#e)"><path d="M1997.503-211.163V-2636.7" transform="matrix(.10013 0 0 .09987 -39 265)" fill="none" stroke-width="5.707" stroke-linecap="round" stroke="#bfbfbf" stroke-dasharray="11.4143,17.1214" stroke-miterlimit="10"/></g><g clip-path="url(#f)"><path d="M2796.504-211.163V-2636.7" transform="matrix(.10013 0 0 .09987 -39 265)" fill="none" stroke-width="5.707" stroke-linecap="round" stroke="#bfbfbf" stroke-dasharray="11.4143,17.1214" stroke-miterlimit="10"/></g><g clip-path="url(#g)"><path d="M3595.506-211.163V-2636.7" transform="matrix(.10013 0 0 .09987 -39 265)" fill="none" stroke-width="5.707" stroke-linecap="round" stroke="#bfbfbf" stroke-dasharray="11.4143,17.1214" stroke-miterlimit="10"/></g><g clip-path="url(#h)"><path d="M399.5-211.163h3196.006" transform="matrix(.10013 0 0 .09987 -39 265)" fill="none" stroke-width="5.707" stroke-linecap="round" stroke="#bfbfbf" stroke-dasharray="11.4143,17.1214" stroke-miterlimit="10"/></g><g clip-path="url(#i)"><path d="M399.5-817.547h3196.006" transform="matrix(.10013 0 0 .09987 -39 265)" fill="none" stroke-width="5.707" stroke-linecap="round" stroke="#bfbfbf" stroke-dasharray="11.4143,17.1214" stroke-miterlimit="10"/></g><g clip-path="url(#j)"><path d="M399.5-1423.931h3196.006" transform="matrix(.10013 0 0 .09987 -39 265)" fill="none" stroke-width="5.707" stroke-linecap="round" stroke="#bfbfbf" stroke-dasharray="11.4143,17.1214" stroke-miterlimit="10"/></g><g clip-path="url(#k)"><path d="M399.5-2030.315h3196.006" transform="matrix(.10013 0 0 .09987 -39 265)" fill="none" stroke-width="5.707" stroke-linecap="round" stroke="#bfbfbf" stroke-dasharray="11.4143,17.1214" stroke-miterlimit="10"/></g><g clip-path="url(#l)"><path d="M399.5-2636.7h3196.006" transform="matrix(.10013 0 0 .09987 -39 265)" fill="none" stroke-width="5.707" stroke-linecap="round" stroke="#bfbfbf" stroke-dasharray="11.4143,17.1214" stroke-miterlimit="10"/></g><path d="M399.5-211.163h3196.006" transform="matrix(.10013 0 0 .09987 -39 265)" fill="none" stroke-width="11.414" stroke-linecap="square" stroke="#000" stroke-miterlimit="10"/><path d="M399.5-211.163v-45.643m0 45.643v-22.84m79.9 22.84v-22.84m79.9 22.84v-22.84m79.901 22.84v-22.84m79.9 22.84v-22.84m79.9 22.84v-22.84m79.9 22.84v-22.84m79.9 22.84v-22.84m79.9 22.84v-22.84m159.8 22.84v-45.643m0 45.643v-22.84m79.901 22.84v-22.84m79.9 22.84v-22.84m79.9 22.84v-22.84m79.9 22.84v-22.84m79.9 22.84v-22.84m79.9 22.84v-22.84m79.9 22.84v-22.84m79.9 22.84v-22.84m159.801 22.84v-45.643m0 45.643v-22.84m79.9 22.84v-22.84m79.9 22.84v-22.84m79.9 22.84v-22.84m79.9 22.84v-22.84m79.9 22.84v-22.84m79.9 22.84v-22.84m79.901 22.84v-22.84m79.9 22.84v-22.84m159.8 22.84v-45.643m0 45.643v-22.84m79.9 22.84v-22.84m79.9 22.84v-22.84m79.9 22.84v-22.84m79.9 22.84v-22.84m79.901 22.84v-22.84m79.9 22.84v-22.84m79.9 22.84v-22.84m79.9 22.84v-22.84m159.8 22.84v-45.643m0 45.643v-22.84" transform="matrix(.10013 0 0 .09987 -39 265)" fill="none" stroke-width="5.707" stroke="#000" stroke-miterlimit="10"/><path d="M399.5-2636.7h3196.006" transform="matrix(.10013 0 0 .09987 -39 265)" fill="none" stroke-width="11.414" stroke-linecap="square" stroke="#000" stroke-miterlimit="10"/><path d="M399.5-2636.7v45.643m0-45.643v22.842m79.9-22.842v22.842m79.9-22.842v22.842m79.901-22.842v22.842m79.9-22.842v22.842m79.9-22.842v22.842m79.9-22.842v22.842m79.9-22.842v22.842m79.9-22.842v22.842m159.8-22.842v45.643m0-45.643v22.842m79.901-22.842v22.842m79.9-22.842v22.842m79.9-22.842v22.842m79.9-22.842v22.842m79.9-22.842v22.842m79.9-22.842v22.842m79.9-22.842v22.842m79.9-22.842v22.842m159.801-22.842v45.643m0-45.643v22.842m79.9-22.842v22.842m79.9-22.842v22.842m79.9-22.842v22.842m79.9-22.842v22.842m79.9-22.842v22.842m79.9-22.842v22.842m79.901-22.842v22.842m79.9-22.842v22.842m159.8-22.842v45.643m0-45.643v22.842m79.9-22.842v22.842m79.9-22.842v22.842m79.9-22.842v22.842m79.9-22.842v22.842m79.901-22.842v22.842m79.9-22.842v22.842m79.9-22.842v22.842m79.9-22.842v22.842m159.8-22.842v45.643m0-45.643v22.842" transform="matrix(.10013 0 0 .09987 -39 265)" fill="none" stroke-width="5.707" stroke="#000" stroke-miterlimit="10"/><path d="M399.5-211.163V-2636.7" transform="matrix(.10013 0 0 .09987 -39 265)" fill="none" stroke-width="11.414" stroke-linecap="square" stroke="#000" stroke-miterlimit="10"/><path d="M399.5-211.163h45.647m-45.646 0h22.823M399.5-271.786h22.823M399.5-332.447h22.823M399.5-393.07h22.823M399.5-453.732h22.823M399.5-514.355h22.823M399.5-574.978h22.823M399.5-635.64h22.823M399.5-696.262h22.823M399.5-817.547h45.646m-45.646 0h22.823M399.5-878.17h22.823M399.5-938.832h22.823M399.5-999.454h22.823m-22.823-60.662h22.823M399.5-1120.74h22.823m-22.823-60.623h22.823m-22.823-60.662h22.823m-22.823-60.623h22.823M399.5-1423.93h45.646m-45.646 0h22.823m-22.823-60.623h22.823m-22.823-60.662h22.823m-22.823-60.623h22.823M399.5-1666.46h22.823m-22.823-60.662h22.823m-22.823-60.623h22.823m-22.823-60.662h22.823M399.5-1909.03h22.823M399.5-2030.315h45.646m-45.646 0h22.823m-22.823-60.623h22.823M399.5-2151.6h22.823m-22.823-60.623h22.823m-22.823-60.662h22.823m-22.823-60.622h22.823M399.5-2394.17h22.823m-22.823-60.623h22.823m-22.823-60.623h22.823M399.5-2636.7h45.646m-45.646 0h22.823" transform="matrix(.10013 0 0 .09987 -39 265)" fill="none" stroke-width="5.707" stroke="#000" stroke-miterlimit="10"/><path d="M3595.506-211.163V-2636.7" transform="matrix(.10013 0 0 .09987 -39 265)" fill="none" stroke-width="11.414" stroke-linecap="square" stroke="#000" stroke-miterlimit="10"/><path d="M3595.506-211.163h-45.685m45.685 0h-22.823m22.823-60.623h-22.823m22.823-60.661h-22.823m22.823-60.623h-22.823m22.823-60.662h-22.823m22.823-60.623h-22.823m22.823-60.623h-22.823m22.823-60.662h-22.823m22.823-60.622h-22.823m22.823-121.285h-45.685m45.685 0h-22.823m22.823-60.623h-22.823m22.823-60.662h-22.823m22.823-60.622h-22.823m22.823-60.662h-22.823m22.823-60.623h-22.823m22.823-60.623h-22.823m22.823-60.662h-22.823m22.823-60.623h-22.823m22.823-121.284h-45.685m45.685 0h-22.823m22.823-60.623h-22.823m22.823-60.662h-22.823m22.823-60.623h-22.823m22.823-60.622h-22.823m22.823-60.662h-22.823m22.823-60.623h-22.823m22.823-60.662h-22.823m22.823-60.623h-22.823m22.823-121.284h-45.685m45.685 0h-22.823m22.823-60.623h-22.823m22.823-60.662h-22.823m22.823-60.623h-22.823m22.823-60.662h-22.823m22.823-60.622h-22.823m22.823-60.662h-22.823m22.823-60.623h-22.823m22.823-60.623h-22.823m22.823-121.285h-45.685m45.685 0h-22.823" transform="matrix(.10013 0 0 .09987 -39 265)" fill="none" stroke-width="5.707" stroke="#000" stroke-miterlimit="10"/><path d="M515.41-294.196l58.716-54.444m-13.46 35.826l13.46-35.826-36.75 10.717m-29.144-176.745l73.073-54.482M564.1-534.967l17.205-34.183-37.688 6.727m-42.564-172.755l87.43-54.483m-20.014 32.659l20.014-32.659-38.116 3.56M493.875-955.69l101.787-54.482m-22.121 31.25l22.12-31.25-38.272 1.056M486.696-1176.2l116.144-54.482m-23.72 30.076l23.72-30.076-38.272-.94m-85.05-165.089l130.5-54.443m-25.007 28.982l25.008-28.982-38.195-2.62m-99.485-163.408l144.858-54.482m-26.022 28.082l26.022-28.082-38.077-3.99M465.16-1837.69l159.216-54.483m-26.842 27.3l26.842-27.3-37.922-5.123m-128.472-160.905l173.572-54.482m-27.543 26.596l27.543-26.596-37.804-6.062m-142.946-159.966l187.929-54.483m-28.13 25.97l28.13-25.97-37.648-6.883m-157.46-159.145l202.286-54.482m-28.597 25.462l28.597-25.462-37.53-7.588m221.051 2261.66l11.743-43.57m7.647 37.508l-7.647-37.508-25.437 28.59m6.515-205.53l26.1-43.57m-2.886 38.172l2.887-38.173-32.265 20.573m-1.014-197.474l40.457-43.609m-10.729 36.765l10.73-36.765-35.815 13.454m-11.822-190.355l54.815-43.57m-16.152 34.691l16.152-34.691-37.454 7.9m-24.54-184.84l69.172-43.57m-19.819 32.735l19.82-32.736-38.078 3.755m-38.234-180.695l83.49-43.57m-22.433 31.015l22.433-31.015-38.273.665M786.4-1622.657l97.846-43.57m-24.305 29.569l24.305-29.569-38.233-1.72m-66.792-175.22l112.204-43.57m-25.71 28.356l25.71-28.356-38.117-3.56m-81.265-173.341l126.56-43.61m-26.802 27.34l26.802-27.34-37.96-5.006m-95.779-171.895l140.918-43.57m-27.66 26.478l27.66-26.478-37.765-6.258m-110.331-170.682l155.274-43.57m-28.324 25.735l28.324-25.735-37.609-7.236M1138.265-305.07l-24.813-32.698m34.371 16.936l-34.371-16.936 7.061 37.626m10.573-225.439l-10.456-32.697m26.764 27.417l-26.764-27.417-5.89 37.82m9.168-225.633l3.901-32.658m12.953 36.021l-12.953-36.021-21.067 31.954m9.987-219.807l18.259-32.658m-1.756 38.251l1.756-38.25-31.64 21.51m6.203-209.324l32.615-32.697m-12.055 36.334l12.055-36.334-36.283 12.124m-3.511-199.938l46.973-32.697m-18.337 33.636l18.337-33.636-37.883 5.515m-16.268-193.328l61.33-32.697m-22.16 31.21l22.16-31.21-38.273 1.017m-30.236-188.83l75.687-32.659m-24.657 29.256l24.657-29.256-38.234-2.15m-44.632-185.702l90.044-32.658m-26.334 27.77l26.334-27.77-38.038-4.42m-59.184-183.393l104.4-32.697m-27.543 26.556l27.544-26.556-37.805-6.102m-73.775-181.712l118.758-32.697m-28.48 25.579l28.48-25.579-37.57-7.431M1441.87-310.506l-50.913-21.824m38.233-2.23l-38.233 2.23 24.734 29.255m19-227.941l-36.556-21.785m38.195 2.816l-38.195-2.816 20.638 32.227m8.74-230.953l-22.2-21.785m36.44 11.773l-36.44-11.773 12.446 36.217m2.575-234.942l-7.842-21.785m27.7 26.439l-27.7-26.44-4.525 38.017m5.188-236.742l6.516-21.785m6.593 37.704l-6.593-37.704-26.218 27.887m12.524-226.612l20.872-21.785m-11.314 36.608l11.314-36.608-36.048 12.906m7.997-211.593l35.23-21.785m-20.131 32.541l20.13-32.54-38.116 3.441m-4.291-202.167l49.586-21.785m-24.461 29.45l24.461-29.45-38.233-1.917m-18.532-196.808l63.944-21.786m-26.88 27.261l26.88-27.26-37.922-5.163m-33.2-193.563l78.3-21.785m-28.402 25.657l28.402-25.657-37.57-7.314m-47.909-191.411l92.658-21.785m-29.416 24.522l29.416-24.522-37.258-8.8m314.763 2230.174l-66.558-10.873m36.556-11.381l-36.556 11.381 31.016 22.411m28.363-232.009l-52.2-10.912m36.985-9.778l-36.985 9.778 30.001 23.74m14.981-233.338l-37.804-10.912m37.648-6.962l-37.648 6.962 28.168 25.93m2.497-235.529l-23.486-10.912m38.272-1.134l-38.272 1.134 23.837 29.96m-7.53-239.558l-9.129-10.912m35.113 15.253l-35.113-15.253 8.856 37.273m-6.905-246.872l5.189-10.873m.663 38.251l-.663-38.25-30.197 23.466m17.83-233.104l19.584-10.873m-21.613 31.602l21.613-31.602-38.272 1.682m11.509-211.28l33.942-10.913m-27.388 26.753l27.388-26.753-37.843-5.827m-3.278-203.771l48.3-10.912m-29.651 24.25l29.65-24.25-37.18-9.152m-18.297-200.446l62.656-10.913m-30.821 22.763l30.82-22.763-36.711-10.99m-33.123-198.608l76.974-10.873m-31.484 21.746l31.484-21.746-36.282-12.164m324.243 2222.627h-71.786m34.255-17.13l-34.255 17.13 34.255 17.13m30.352-237.64h-57.428m34.254-17.131l-34.254 17.13 34.254 17.131m15.996-237.64h-43.071m34.254-17.093l-34.254 17.092 34.254 17.13m1.638-237.601h-28.714m34.254-17.131l-34.254 17.13 34.254 17.092m-12.718-237.602h-14.357m34.254-17.13l-34.254 17.13 34.254 17.092m-34.254-458.113h14.357m-34.254 17.131l34.254-17.13-34.254-17.131m12.718-203.38h28.714m-34.254 17.13l34.254-17.13-34.254-17.092m-1.638-203.38h43.07m-34.253 17.092l34.254-17.091-34.254-17.131m-15.996-203.38h57.428m-34.254 17.092l34.254-17.092-34.254-17.13m-30.353-203.38h71.786m-34.254 17.13l34.254-17.13-34.254-17.131m322.175 2216.72l-66.557 10.873m31.055-22.41l-31.055 22.41 36.556 11.382m22.823-242.765l-52.2 10.912m30.04-23.78l-30.04 23.78 37.023 9.739m7.998-241.161l-37.843 10.912m28.168-25.931l-28.168 25.93 37.648 6.962m-6.983-238.384l-23.487 10.912m23.877-29.96l-23.877 29.96 38.273 1.134m-21.965-232.556l-9.13 10.912m8.896-37.234l-8.895 37.234 35.112-15.254m-33.162-216.13l5.228 10.873m-30.235-23.467l30.235 23.467.664-38.29m-13.07-193.093l19.585 10.873m-38.234-1.682l38.234 1.682-21.575-31.602m-5.189-199.782l33.942 10.912m-37.843 5.828l37.843-5.828-27.387-26.79m-13.733-204.632l48.299 10.912m-37.18 9.152l37.18-9.152-29.612-24.25m-25.827-207.173l62.617 10.913m-36.672 10.99l36.672-10.99-30.82-22.724m-39.014-208.66l77.013 10.873m-36.322 12.164l36.322-12.164-31.523-21.746M2604.05-332.33l-50.913 21.824m24.734-29.255l-24.734 29.255 38.233 2.23m5.501-244.525l-36.556 21.785m20.638-32.267l-20.638 32.267 38.195-2.856m-8.817-239.44l-22.2 21.785m12.446-36.217l-12.445 36.217 36.439-11.772m-21.419-230.523l-7.842 21.785m-4.525-38.017l4.525 38.017 27.7-26.44m-27.036-215.856l6.515 21.785m-26.217-27.886l26.217 27.886 6.593-37.703m-20.287-204.592l20.872 21.785m-36.048-12.868l36.048 12.868-11.314-36.57m-16.737-205.687l35.23 21.785m-38.117-3.441l38.117 3.441-20.131-32.58m-22.277-209.715l49.586 21.785m-38.233 1.877l38.233-1.877-24.461-29.45m-32.304-212.846l63.944 21.786m-37.921 5.162l37.92-5.162-26.88-27.261m-44.241-215.035l78.3 21.785m-37.57 7.314l37.57-7.314-28.402-25.657m-57.077-216.638l92.658 21.785m-37.258 8.839l37.258-8.84-29.416-24.483m286.048 2202.288l-24.812 32.698m7.061-37.626l-7.061 37.626 34.332-16.936m-16.698-236.272l-10.456 32.697m-5.891-37.82l5.891 37.82 26.725-27.417m-23.448-225.751l3.902 32.658m-21.068-31.954l21.068 31.954 12.913-36.022m-23.993-217.147l18.258 32.658m-31.64-21.511l31.64 21.511-1.755-38.212m-23.682-214.956l32.616 32.697m-36.322-12.164l36.322 12.164-12.095-36.335m-27.738-216.873l47.011 32.697m-37.882-5.514l37.882 5.514-18.336-33.635m-35.815-219.572l61.33 32.697m-38.273-.978l38.273.978-22.16-31.211m-46.348-221.958l75.686 32.658m-38.233 2.152l38.233-2.152-24.656-29.294m-58.209-223.874l90.044 32.658m-38.039 4.42l38.039-4.42-26.373-27.77m-70.85-225.398l104.401 32.697m-37.804 6.101l37.804-6.101-27.582-26.596m-83.997-226.612l118.758 32.697m-37.57 7.392l37.57-7.392-28.48-25.618m253.745 2192.51l11.743 43.571m-25.437-28.59l25.437 28.59 7.647-37.508m-26.568-226.573l26.1 43.57m-32.265-20.572l32.265 20.573-2.887-38.173m-30.353-225.908l40.418 43.61m-35.814-13.455l35.814 13.454-10.728-36.765m-36.868-227.315l54.775 43.57m-37.453-7.9l37.453 7.9-16.113-34.731m-45.841-229.35l69.171 43.57m-38.116-3.793l38.116 3.793-19.858-32.736m-56.491-231.344l83.489 43.57m-38.273-.665l38.273.665-22.433-31.016m-68.235-233.065l97.846 43.57m-38.233 1.721l38.233-1.72-24.305-29.569m-80.72-234.512l112.204 43.57m-38.116 3.598l38.116-3.598-25.71-28.317m-93.672-235.764l126.56 43.61m-37.96 5.045l37.96-5.045-26.802-27.34m-106.937-236.741l140.918 43.57m-37.765 6.258l37.765-6.258-27.66-26.478m-120.436-237.602l155.275 43.57m-37.61 7.235l37.61-7.235-28.324-25.736M3420.88-348.64l58.716 54.444m-36.751-10.717l36.75 10.717-13.459-35.827m-52.434-239.127l73.072 54.482m-37.687-6.766l37.687 6.766-17.244-34.222m-63.007-240.77l87.43 54.482m-38.117-3.599l38.117 3.599-20.014-32.658m-74.594-242.335l101.786 54.482m-38.272-1.056l38.272 1.056-22.12-31.25m-86.845-243.742l116.144 54.482m-38.273.978l38.273-.978-23.76-30.038m-99.562-244.916l130.5 54.443m-38.194 2.62l38.194-2.62-25.007-28.981m-112.672-245.972l144.858 54.482m-38.077 3.95l38.077-3.95-26.022-28.082m-126.015-246.91l159.216 54.482m-37.96 5.084l37.96-5.084-26.881-27.3m-139.513-247.693l173.572 54.482m-37.804 6.102l37.804-6.102-27.544-26.596m-153.207-248.397l187.93 54.483m-37.688 6.922l37.688-6.922-28.13-25.97m-166.978-249.023l202.247 54.482m-37.492 7.627l37.492-7.627-28.597-25.422" transform="matrix(.10013 0 0 .09987 -39 265)" fill="none" stroke-width="11.414" stroke-linecap="round" stroke="#00f" stroke-miterlimit="10"/></svg>