<svg xmlns="http://www.w3.org/2000/svg" xmlns:xlink="http://www.w3.org/1999/xlink" width="575.507" height="196.137" viewBox="0 0 431.63 147.103"><defs><symbol overflow="visible" id="f"><path d="M6.016-2.75c0-.563-.157-.906-.5-1.219-.407-.39-.907-.594-2.25-.781-1.454-.188-1.97-.578-1.97-1.5 0-1 .75-1.719 1.798-1.719.469 0 .906.094 1.234.266.39.203.531.39.563.734l.062.688h.39c0-.64.048-1.047.173-1.688-.97-.39-1.5-.5-2.157-.5C1.58-8.469.281-7.344.281-5.78c0 .578.156 1.015.5 1.328.406.375.969.562 2.125.719.922.14 1.344.28 1.64.546.313.266.47.594.47 1.047 0 1.079-.907 1.86-2.141 1.86-.969 0-1.89-.469-1.953-.969l-.094-.797h-.39c.015.219.015.406.015.485C.453-1.016.437-.75.36-.22c.688.297 1.375.453 2.063.453 2.078 0 3.547-.89 3.594-2.984zm0 0"/></symbol><symbol overflow="visible" id="g"><path d="M10.39.031v-.36l-.562-.03c-.406-.016-.437-.11-.437-.86v-2.468c0-1.172-.704-1.922-1.797-1.922-.422 0-.766.109-.985.296l-.906.813C5.313-5.281 4.828-5.61 4-5.61c-.438 0-.766.11-.984.298l-.829.765v-1.016l-.109-.046c-.61.25-1.234.421-1.86.5v.328h.438c.485 0 .531.078.531.875v2.687c0 .75-.046.844-.453.86l-.546.03v.36A49.04 49.04 0 011.702 0c.484 0 .953.016 1.422.031v-.36l-.5-.03c-.406-.016-.438-.11-.438-.86V-3.75c0-.547.782-1.125 1.5-1.125.657 0 1.094.61 1.094 1.516v2.14c0 .75-.031.844-.437.86l-.547.03v.36C4.297.016 4.78 0 5.28 0s1 .016 1.5.031v-.36l-.547-.03c-.406-.016-.453-.11-.453-.86V-3.75c0-.547.797-1.125 1.516-1.125.64 0 1.078.61 1.078 1.516V.03c.314-.014.641-.03.954-.03.36 0 .703.016 1.063.031zm0 0"/></symbol><symbol overflow="visible" id="h"><path d="M5.625.031v-.36l-.469-.015c-.281-.015-.328-.11-.328-.703v-2.187c0-1.735-.5-2.375-1.89-2.375-.516 0-.985.14-1.438.406l-.64.39v.766l.312.094.156-.375c.234-.563.375-.64.922-.64 1.125 0 1.594.437 1.625 1.53l-1.188.204C1.063-2.922.376-2.36.376-1.328.375-.391.938.14 1.891.14c.218 0 .421-.032.5-.094l1.484-1.03L3.812.03C4.125.016 4.439 0 4.75 0c.297 0 .578.016.875.031zm-1.75-1.515c-.344.5-1.11.953-1.563.953-.484 0-.906-.453-.906-.969 0-.438.25-.86.61-1.078.296-.188.953-.344 1.859-.485zm0 0"/></symbol><symbol overflow="visible" id="i"><path d="M3.234.031v-.36l-.546-.03c-.407-.016-.438-.11-.438-.86v-7.36l-.11-.093c-.53.203-.921.297-1.859.438v.328h.656c.22 0 .313.14.313.5v6.187c0 .75-.047.844-.453.86L.25-.33v.36c.5-.014 1-.03 1.5-.03s.984.016 1.484.031zm0 0"/></symbol><symbol overflow="visible" id="j"><path d="M6.844.031v-.36l-.5-.03c-.407-.016-.438-.094-.438-.86V-3.53c0-1.39-.656-2.078-2-2.078-.437 0-.687.093-.937.296l-.906.797v-1.046l-.11-.047c-.61.25-1.234.421-1.875.5v.328h.453c.469 0 .516.078.516.875v2.687c0 .75-.031.844-.438.86l-.53.03v.36C.561.016 1.062 0 1.546 0c.5 0 1 .016 1.484.031v-.36L2.5-.358c-.406-.016-.438-.11-.438-.86V-3.75c0-.547.782-1.125 1.516-1.125.797 0 1.328.594 1.328 1.516V.03C5.22.016 5.531 0 5.844 0c.343 0 .656.016 1 .031zm0 0"/></symbol><symbol overflow="visible" id="k"><path d="M6.5-5.016l-.047-.14-1.703.047c-.438-.36-.86-.5-1.453-.5-.531 0-1.14.171-1.625.453C1-4.766.656-4.188.656-3.453c0 .89.547 1.5 1.438 1.594l-.953.718c-.11.188-.172.344-.172.516 0 .344.219.531.781.703L.719.641c-.172.093-.344.53-.344.906 0 1.078 1.078 1.828 2.594 1.828 1.797 0 3.219-1.125 3.219-2.594 0-.86-.563-1.453-1.407-1.453H2.875c-.625 0-.922-.14-.922-.469 0-.156.11-.28.406-.546.079-.063.11-.079.157-.125.109 0 .187.015.28.015.517 0 1.142-.219 1.642-.562.53-.407.796-.875.796-1.516 0-.234-.03-.39-.125-.64h1.094zm-2.266 1.5c0 .782-.5 1.313-1.234 1.313-.797 0-1.344-.625-1.344-1.531 0-.922.453-1.47 1.219-1.47.813 0 1.36.673 1.36 1.688zM5.25 1.22c0 1.031-.953 1.797-2.203 1.797-1.031 0-1.75-.61-1.75-1.5 0-.532.312-1.016.781-1.235.188-.078.531-.11 1.36-.11C4.78.172 5.25.438 5.25 1.22zm0 0"/></symbol><symbol overflow="visible" id="l"><path d="M6.938.031v-.36l-.485-.03c-.406-.016-.437-.094-.437-.86v-4.343l-.11-.047c-.61.25-1.234.421-1.86.5v.328h.438c.47 0 .532.078.532.875v1.953c0 .25-.172.594-.454.86a1.574 1.574 0 01-1.187.515c-.406 0-.75-.14-.938-.36-.171-.203-.25-.562-.25-1.093v-3.531l-.109-.047c-.61.25-1.234.421-1.86.5v.328h.438c.485 0 .531.078.531.875v2c0 .843.063 1.218.282 1.515.265.36.718.532 1.406.532.531 0 1.016-.172 1.328-.47l.813-.734c0 .344-.016.532-.063 1.094.344-.015.672-.031 1-.031.328 0 .656.016.984.031zm0 0"/></symbol><symbol overflow="visible" id="m"><path d="M4.469-5.469c-.125-.093-.344-.14-.563-.14-.36 0-.734.187-.984.5l-.672.78v-1.234l-.11-.046a7.328 7.328 0 01-1.859.5v.328H.72c.469 0 .531.078.531.875v2.687c0 .75-.047.844-.453.86L.25-.33v.36C.734.016 1.234 0 1.719 0c.578 0 1.14.016 1.718.031v-.36l-.624-.03c-.547-.032-.563-.079-.563-.86V-3.28c0-.719.469-1.313 1.063-1.313.359 0 .609.172.796.547h.25zm0 0"/></symbol><symbol overflow="visible" id="n"><path d="M6.438-5.156v-.328c-.36.015-.75.03-1.125.03-.36 0-.75-.015-1.11-.03v.328l.484.031c.375.016.375.375.063 1.188l-.5 1.265L3.5-1 2.078-4.453c-.125-.328-.187-.656.188-.672l.593-.031v-.328a43.9 43.9 0 01-1.406.03c-.469 0-.922-.015-1.375-.03v.328l.406.031c.204.016.25.11.36.39L2.906.079H3.5c.078-.39.25-.765.5-1.297l1.406-3.11c.266-.609.422-.78.672-.796zm0 0"/></symbol><symbol overflow="visible" id="o"><path d="M5.36-3.328c0-1.375-.891-2.281-2.235-2.281-.438 0-.953.156-1.438.453C.704-4.61.313-3.86.313-2.625c0 .766.172 1.406.5 1.86.47.64 1.282 1 2.172 1 .454 0 .891-.094 1.375-.313.329-.125.579-.281.625-.36l.235-.406-.157-.11c-.765.454-1.03.563-1.546.563-.782 0-1.422-.343-1.766-.937-.219-.39-.297-.734-.328-1.422h1.75c.828 0 1.328-.031 2.156-.172.016-.156.031-.265.031-.406zm-1.063.14l-1.344.032c-.547 0-.86-.016-1.5-.078 0-.563.047-.813.203-1.125a1.47 1.47 0 011.328-.86c.391 0 .704.157.922.485.266.39.39.734.39 1.546zm0 0"/></symbol><symbol overflow="visible" id="p"><path d="M6.14-2.828c0-1.625-1.171-2.781-2.812-2.781C1.594-5.61.375-4.375.375-2.594.375-.906 1.453.234 2.985.234c1.843 0 3.156-1.28 3.156-3.062zm-1.109.437c0 1.375-.61 2.235-1.578 2.235C2.281-.156 1.5-1.296 1.5-3c0-1.438.563-2.219 1.625-2.219 1.094 0 1.906 1.203 1.906 2.828zm0 0"/></symbol><symbol overflow="visible" id="q"><path d="M4.938-.547l-.125-.187c-.438.25-.813.359-1.25.359-1.329 0-2.204-1.031-2.204-2.61 0-1.28.594-2 1.672-2 .531 0 1.11.235 1.313.532l.093.734h.329c0-.547.062-1.031.171-1.469-.484-.28-.89-.421-1.39-.421-.578 0-1.235.234-1.953.687C.75-4.406.312-3.562.312-2.516.313-.89 1.454.234 3.047.234c.625 0 1.515-.218 1.64-.406zm0 0"/></symbol><symbol overflow="visible" id="r"><path d="M3.234.031v-.36l-.546-.03c-.407-.016-.438-.11-.438-.86v-4.343l-.11-.047a7.328 7.328 0 01-1.859.5v.328H.72c.469 0 .531.078.531.875v2.687c0 .75-.047.844-.453.86L.25-.33v.36c.5-.014 1-.03 1.5-.03s.984.016 1.484.031zm-.89-7.11c0-.343-.235-.593-.594-.593-.36 0-.61.234-.61.594s.25.594.61.594.594-.235.594-.594zm0 0"/></symbol><symbol overflow="visible" id="s"><path d="M3.813-5.219l-1.641.078v-.453c0-.5.047-.937.14-1.703l-.156-.125c-.281.172-.64.328-1.015.453.046.36.046.578.046.938v.843l-.921.422v.25l.906-.046v3.437c0 .89.39 1.266 1.312 1.266.282 0 .563-.063.641-.141l.563-.64-.157-.204c-.297.172-.469.235-.703.235-.469 0-.656-.235-.656-.829v-3.125h1.531zm0 0"/></symbol><symbol overflow="visible" id="t"><path d="M4.672-1.766c0-.375-.094-.656-.328-.89-.313-.313-.703-.438-1.766-.64-.969-.188-1.297-.438-1.297-.985 0-.594.422-.938 1.14-.938.813 0 1.423.422 1.423.985v.28h.328c.016-.702.031-.983.062-1.358-.64-.204-1.062-.297-1.562-.297-1.375 0-2.235.656-2.235 1.734 0 .578.266.984.813 1.234.328.141.969.329 1.781.516.531.11.766.375.766.828 0 .64-.61 1.094-1.453 1.094-.875 0-1.5-.422-1.5-1.016v-.484h-.36C.484-.891.454-.531.36-.047.984.156 1.453.234 2 .234c1.563 0 2.672-.828 2.672-2zm0 0"/></symbol><symbol overflow="visible" id="u"><path d="M7-2.063h-.375l-.14.61c-.11.469-.204.719-.266.766-.157.14-1.203.218-2.625.218-.422 0-.703-.015-1.016-.094v-6.234c0-.953.063-1.047.61-1.078l.578-.031v-.36c-.594.016-1.172.032-1.75.032-.594 0-1.172-.016-1.75-.032v.36l.578.031c.547.031.61.125.61 1.078v5.656c0 .36-.11.61-.313.704l-.36.203V.03C1.171.016 1.562 0 1.953 0c.938 0 1.86.031 2.797.031.5 0 .375 0 2-.031.094-.516.14-.89.25-2.063zm0 0"/></symbol><symbol overflow="visible" id="y"><path d="M5.563-4.375c0-2.625-.782-3.86-2.422-3.86-1.844 0-2.797 1.47-2.797 4.36 0 1.406.25 2.61.672 3.188.421.593 1.093.921 1.828.921 1.812 0 2.719-1.546 2.719-4.609zm-1.016.594c0 2.547-.453 3.61-1.547 3.61-1.156 0-1.656-1.22-1.656-4.126 0-2.531.453-3.516 1.578-3.516 1.172 0 1.625 1.172 1.625 4.032zm0 0"/></symbol><symbol overflow="visible" id="w"><path d="M6.844-6.031c0-1.36-.39-2.36-1.907-2.36C1.829-8.39.845-4.92.845-2.375.844-.953 1.28.188 2.906.188c2.813 0 3.938-3.97 3.938-6.22zm-.875-.157c0 .547-.094 1.094-.188 1.641H2.016c.28-1.25 1.156-3.531 2.703-3.531 1.031 0 1.25 1.078 1.25 1.89zm-.25 2.016c-.266 1.344-.922 4.016-2.64 4.016C1.874-.156 1.75-1.5 1.75-2.422c0-.594.11-1.172.203-1.75zm0 0"/></symbol><symbol overflow="visible" id="z"><path d="M7.266-5.578c-.829.016-1.672.047-2.516.047-1.016 0-2.047-.032-3.063-.032-.78-.015-.937.907-1.156 1.5l.016.079.094.062.093-.047c.485-.75.766-.875 1.672-.875h.266C2.234-3.172 1.844-1.547 1.125.031l.094.11c.234-.063.656-.157.875-.297.453-1.532.765-3.125 1.062-4.688h2.719C5.219-3.797 4.75-2.547 4.75-1.297c0 .594.203 1.469.922 1.469.5 0 1.125-.469 1.484-.781l.032-.079-.063-.093-.094-.016c-.203.125-.437.297-.734.297-.656 0-.734-1-.734-1.484 0-1.016.312-2 .828-2.86L7.125-5c.016-.203.094-.406.14-.578zm0 0"/></symbol><symbol overflow="visible" id="x"><path d="M.781-4.14H7.22v-.72H.78zm0 2.53H7.22v-.702H.78zm0 0"/></symbol><clipPath id="a"><path d="M.5-.398v147h431v-147zm85.2 105.043l-7.618-4.98-1.922 3 7.559 4.98-4.98-5.403zm65.581 4.136l9.297-6.117-1.918-3-9.3 6.117 8.519-3.418zm0 0"/></clipPath><clipPath id="b"><path d="M.5-.398v147h431v-147zm396.059 51.101l-2.16-8.82-3.477.84 2.156 8.82.063-7.379zm0 0"/></clipPath><clipPath id="c"><path d="M.5 84H46v62H.5zm0 0"/></clipPath><clipPath id="d"><path d="M393 0h38.5v38H393zm0 0"/></clipPath><clipPath id="e"><path d="M331 0h100.5v83H331zm0 0"/></clipPath><clipPath id="v"><path d="M390 133h41.629v10H390zm0 0"/></clipPath></defs><g clip-path="url(#a)" clip-rule="evenodd"><path d="M158.898 101.703a67.506 67.506 0 01-40.5 13.5 67.524 67.524 0 01-40.5-13.5" fill="none" stroke-width=".45" stroke="#000" stroke-miterlimit="10"/></g><path d="M151.281 108.781l6.598-6.418-8.52 3.418 2.461.48-.539 2.52" fill-rule="evenodd"/><path d="M151.281 108.781l6.598-6.418-8.52 3.418 2.461.48zm0 0" fill="none" stroke-width=".45" stroke="#000" stroke-miterlimit="10"/><path d="M85.7 104.645l-6.962-2.403 4.98 5.403 1.981-3" fill-rule="evenodd"/><path d="M85.7 104.645l-6.962-2.403 4.98 5.403zm0 0" fill="none" stroke-width=".45" stroke="#000" stroke-miterlimit="10"/><path d="M168.2 95.465a5.343 5.343 0 01-5.34 5.34 5.342 5.342 0 010-10.684 5.344 5.344 0 015.34 5.344" fill-rule="evenodd"/><path d="M168.2 95.465a5.343 5.343 0 01-5.34 5.34 5.342 5.342 0 010-10.684 5.344 5.344 0 015.34 5.344zm-50.4-65.703l47.462 66.48" fill="none" stroke-width="1.8" stroke="#000" stroke-miterlimit="10"/><path d="M118.398 32.102v80.703" fill="none" stroke-width=".45" stroke="#000" stroke-miterlimit="10"/><g clip-path="url(#b)" clip-rule="evenodd"><path d="M383.902 29.707a35.073 35.073 0 00-23.898-9.398c-19.375 0-35.082 15.707-35.082 35.082s15.707 35.082 35.082 35.082 35.082-15.707 35.082-35.082c0-4.16-.742-8.286-2.184-12.184" fill="none" stroke-width=".45" stroke="#000" stroke-miterlimit="10"/></g><path d="M396.559 50.703l-3.418-6.539-.063 7.379 3.48-.84" fill-rule="evenodd"/><path d="M396.559 50.703l-3.418-6.539-.063 7.379zm0 0" fill="none" stroke-width=".45" stroke="#000" stroke-miterlimit="10"/><path d="M20.238 115.203a5.34 5.34 0 11-10.68 0 5.34 5.34 0 0110.68 0" fill-rule="evenodd"/><g clip-path="url(#c)"><path d="M20.238 115.203a5.34 5.34 0 11-10.68 0 5.34 5.34 0 0110.68 0zm0 0" fill="none" stroke-width="1.8" stroke="#000" stroke-miterlimit="10"/></g><path d="M249.738 7.203a5.34 5.34 0 11-10.68 0 5.34 5.34 0 0110.68 0" fill-rule="evenodd"/><path d="M249.738 7.203a5.34 5.34 0 11-10.68 0 5.34 5.34 0 0110.68 0zm0 0" fill="none" stroke-width="1.8" stroke="#000" stroke-miterlimit="10"/><path d="M429.738 7.203a5.34 5.34 0 11-10.68 0 5.34 5.34 0 0110.68 0" fill-rule="evenodd"/><g clip-path="url(#d)"><path d="M429.738 7.203a5.34 5.34 0 11-10.68 0 5.34 5.34 0 0110.68 0zm0 0" fill="none" stroke-width="1.8" stroke="#000" stroke-miterlimit="10"/></g><path d="M14.898 29.703v81m229.5-31.5v-72" fill="none" stroke-width="1.8" stroke="#000" stroke-miterlimit="10"/><g clip-path="url(#e)"><path d="M356.898 56.703l66.48-47.46" fill="none" stroke-width="1.8" stroke="#000" stroke-miterlimit="10"/></g><use xlink:href="#f" x="68.902" y="142.223"/><use xlink:href="#g" x="75.178" y="142.223"/><use xlink:href="#h" x="85.735" y="142.223"/><use xlink:href="#i" x="91.713" y="142.223"/><use xlink:href="#i" x="95.191" y="142.223"/><use xlink:href="#h" x="101.659" y="142.223"/><use xlink:href="#j" x="107.637" y="142.223"/><use xlink:href="#k" x="114.595" y="142.223"/><use xlink:href="#l" x="121.242" y="142.223"/><use xlink:href="#i" x="128.451" y="142.223"/><use xlink:href="#h" x="131.93" y="142.223"/><use xlink:href="#m" x="137.907" y="142.223"/><use xlink:href="#n" x="145.619" y="142.223"/><use xlink:href="#o" x="151.895" y="142.223"/><use xlink:href="#i" x="157.622" y="142.223"/><use xlink:href="#p" x="161.101" y="142.223"/><use xlink:href="#q" x="167.628" y="142.223"/><use xlink:href="#r" x="172.936" y="142.223"/><use xlink:href="#s" x="176.415" y="142.223"/><use xlink:href="#r" x="180.313" y="142.223"/><use xlink:href="#o" x="183.791" y="142.223"/><use xlink:href="#t" x="189.518" y="142.223"/><use xlink:href="#u" x="307.408" y="142.223"/><use xlink:href="#h" x="314.713" y="142.223"/><use xlink:href="#m" x="320.69" y="142.223"/><use xlink:href="#k" x="325.293" y="142.223"/><use xlink:href="#o" x="331.701" y="142.223"/><use xlink:href="#h" x="340.417" y="142.223"/><use xlink:href="#j" x="346.394" y="142.223"/><use xlink:href="#k" x="353.352" y="142.223"/><use xlink:href="#l" x="359.999" y="142.223"/><use xlink:href="#i" x="367.208" y="142.223"/><use xlink:href="#h" x="370.687" y="142.223"/><use xlink:href="#m" x="376.665" y="142.223"/><use xlink:href="#n" x="384.376" y="142.223"/><g clip-path="url(#v)"><use xlink:href="#o" x="390.652" y="142.223"/><use xlink:href="#i" x="396.379" y="142.223"/><use xlink:href="#p" x="399.858" y="142.223"/><use xlink:href="#q" x="406.385" y="142.223"/><use xlink:href="#r" x="411.693" y="142.223"/><use xlink:href="#s" x="415.172" y="142.223"/><use xlink:href="#r" x="419.07" y="142.223"/><use xlink:href="#o" x="422.549" y="142.223"/><use xlink:href="#t" x="428.275" y="142.223"/></g><use xlink:href="#w" x="1.759" y="142.223"/><use xlink:href="#x" x="12.779" y="142.223"/><use xlink:href="#y" x="24.097" y="142.223"/><use xlink:href="#w" x="231.264" y="142.223"/><use xlink:href="#x" x="242.284" y="142.223"/><use xlink:href="#z" x="253.962" y="142.223"/></svg>