<svg xmlns="http://www.w3.org/2000/svg" width="322pt" height="245pt" viewBox="0 0 322 245"><defs><clipPath id="a"><path d="M160 1.66h2v242.25h-2zm0 0"/></clipPath><clipPath id="b"><path d="M1 122h320v2H1zm0 0"/></clipPath><clipPath id="c"><path d="M1 1.66h1v242.25H1zm0 0"/></clipPath><clipPath id="d"><path d="M80 1.66h2v242.25h-2zm0 0"/></clipPath><clipPath id="e"><path d="M160 1.66h2v242.25h-2zm0 0"/></clipPath><clipPath id="f"><path d="M240 1.66h2v242.25h-2zm0 0"/></clipPath><clipPath id="g"><path d="M320 1.66h1v242.25h-1zm0 0"/></clipPath><clipPath id="h"><path d="M1 243h320v.91H1zm0 0"/></clipPath><clipPath id="i"><path d="M1 183h320v1H1zm0 0"/></clipPath><clipPath id="j"><path d="M1 122h320v2H1zm0 0"/></clipPath><clipPath id="k"><path d="M1 61h320v2H1zm0 0"/></clipPath><clipPath id="l"><path d="M1 1.66h320V2H1zm0 0"/></clipPath></defs><path d="M1 243.91h320V1.66H1zm0 0" fill="#fff"/><g clip-path="url(#a)"><path d="M1997.503-211.163V-2636.7" transform="matrix(.10013 0 0 .09987 -39 265)" fill="none" stroke-width="5.707" stroke-linecap="round" stroke="#bfbfbf" stroke-miterlimit="10"/></g><g clip-path="url(#b)"><path d="M399.5-1423.931h3196.006" transform="matrix(.10013 0 0 .09987 -39 265)" fill="none" stroke-width="5.707" stroke-linecap="round" stroke="#bfbfbf" stroke-miterlimit="10"/></g><g clip-path="url(#c)"><path d="M399.5-211.163V-2636.7" transform="matrix(.10013 0 0 .09987 -39 265)" fill="none" stroke-width="5.707" stroke-linecap="round" stroke="#bfbfbf" stroke-dasharray="11.4143,17.1214" stroke-miterlimit="10"/></g><g clip-path="url(#d)"><path d="M1198.502-211.163V-2636.7" transform="matrix(.10013 0 0 .09987 -39 265)" fill="none" stroke-width="5.707" stroke-linecap="round" stroke="#bfbfbf" stroke-dasharray="11.4143,17.1214" stroke-miterlimit="10"/></g><g clip-path="url(#e)"><path d="M1997.503-211.163V-2636.7" transform="matrix(.10013 0 0 .09987 -39 265)" fill="none" stroke-width="5.707" stroke-linecap="round" stroke="#bfbfbf" stroke-dasharray="11.4143,17.1214" stroke-miterlimit="10"/></g><g clip-path="url(#f)"><path d="M2796.504-211.163V-2636.7" transform="matrix(.10013 0 0 .09987 -39 265)" fill="none" stroke-width="5.707" stroke-linecap="round" stroke="#bfbfbf" stroke-dasharray="11.4143,17.1214" stroke-miterlimit="10"/></g><g clip-path="url(#g)"><path d="M3595.506-211.163V-2636.7" transform="matrix(.10013 0 0 .09987 -39 265)" fill="none" stroke-width="5.707" stroke-linecap="round" stroke="#bfbfbf" stroke-dasharray="11.4143,17.1214" stroke-miterlimit="10"/></g><g clip-path="url(#h)"><path d="M399.5-211.163h3196.006" transform="matrix(.10013 0 0 .09987 -39 265)" fill="none" stroke-width="5.707" stroke-linecap="round" stroke="#bfbfbf" stroke-dasharray="11.4143,17.1214" stroke-miterlimit="10"/></g><g clip-path="url(#i)"><path d="M399.5-817.547h3196.006" transform="matrix(.10013 0 0 .09987 -39 265)" fill="none" stroke-width="5.707" stroke-linecap="round" stroke="#bfbfbf" stroke-dasharray="11.4143,17.1214" stroke-miterlimit="10"/></g><g clip-path="url(#j)"><path d="M399.5-1423.931h3196.006" transform="matrix(.10013 0 0 .09987 -39 265)" fill="none" stroke-width="5.707" stroke-linecap="round" stroke="#bfbfbf" stroke-dasharray="11.4143,17.1214" stroke-miterlimit="10"/></g><g clip-path="url(#k)"><path d="M399.5-2030.315h3196.006" transform="matrix(.10013 0 0 .09987 -39 265)" fill="none" stroke-width="5.707" stroke-linecap="round" stroke="#bfbfbf" stroke-dasharray="11.4143,17.1214" stroke-miterlimit="10"/></g><g clip-path="url(#l)"><path d="M399.5-2636.7h3196.006" transform="matrix(.10013 0 0 .09987 -39 265)" fill="none" stroke-width="5.707" stroke-linecap="round" stroke="#bfbfbf" stroke-dasharray="11.4143,17.1214" stroke-miterlimit="10"/></g><path d="M399.5-211.163h3196.006" transform="matrix(.10013 0 0 .09987 -39 265)" fill="none" stroke-width="11.414" stroke-linecap="square" stroke="#000" stroke-miterlimit="10"/><path d="M399.5-211.163v-45.643m0 45.643v-22.84m79.9 22.84v-22.84m79.9 22.84v-22.84m79.901 22.84v-22.84m79.9 22.84v-22.84m79.9 22.84v-22.84m79.9 22.84v-22.84m79.9 22.84v-22.84m79.9 22.84v-22.84m159.8 22.84v-45.643m0 45.643v-22.84m79.901 22.84v-22.84m79.9 22.84v-22.84m79.9 22.84v-22.84m79.9 22.84v-22.84m79.9 22.84v-22.84m79.9 22.84v-22.84m79.9 22.84v-22.84m79.9 22.84v-22.84m159.801 22.84v-45.643m0 45.643v-22.84m79.9 22.84v-22.84m79.9 22.84v-22.84m79.9 22.84v-22.84m79.9 22.84v-22.84m79.9 22.84v-22.84m79.9 22.84v-22.84m79.901 22.84v-22.84m79.9 22.84v-22.84m159.8 22.84v-45.643m0 45.643v-22.84m79.9 22.84v-22.84m79.9 22.84v-22.84m79.9 22.84v-22.84m79.9 22.84v-22.84m79.901 22.84v-22.84m79.9 22.84v-22.84m79.9 22.84v-22.84m79.9 22.84v-22.84m159.8 22.84v-45.643m0 45.643v-22.84" transform="matrix(.10013 0 0 .09987 -39 265)" fill="none" stroke-width="5.707" stroke="#000" stroke-miterlimit="10"/><path d="M399.5-2636.7h3196.006" transform="matrix(.10013 0 0 .09987 -39 265)" fill="none" stroke-width="11.414" stroke-linecap="square" stroke="#000" stroke-miterlimit="10"/><path d="M399.5-2636.7v45.643m0-45.643v22.842m79.9-22.842v22.842m79.9-22.842v22.842m79.901-22.842v22.842m79.9-22.842v22.842m79.9-22.842v22.842m79.9-22.842v22.842m79.9-22.842v22.842m79.9-22.842v22.842m159.8-22.842v45.643m0-45.643v22.842m79.901-22.842v22.842m79.9-22.842v22.842m79.9-22.842v22.842m79.9-22.842v22.842m79.9-22.842v22.842m79.9-22.842v22.842m79.9-22.842v22.842m79.9-22.842v22.842m159.801-22.842v45.643m0-45.643v22.842m79.9-22.842v22.842m79.9-22.842v22.842m79.9-22.842v22.842m79.9-22.842v22.842m79.9-22.842v22.842m79.9-22.842v22.842m79.901-22.842v22.842m79.9-22.842v22.842m159.8-22.842v45.643m0-45.643v22.842m79.9-22.842v22.842m79.9-22.842v22.842m79.9-22.842v22.842m79.9-22.842v22.842m79.901-22.842v22.842m79.9-22.842v22.842m79.9-22.842v22.842m79.9-22.842v22.842m159.8-22.842v45.643m0-45.643v22.842" transform="matrix(.10013 0 0 .09987 -39 265)" fill="none" stroke-width="5.707" stroke="#000" stroke-miterlimit="10"/><path d="M399.5-211.163V-2636.7" transform="matrix(.10013 0 0 .09987 -39 265)" fill="none" stroke-width="11.414" stroke-linecap="square" stroke="#000" stroke-miterlimit="10"/><path d="M399.5-211.163h45.647m-45.646 0h22.823M399.5-271.786h22.823M399.5-332.447h22.823M399.5-393.07h22.823M399.5-453.732h22.823M399.5-514.355h22.823M399.5-574.978h22.823M399.5-635.64h22.823M399.5-696.262h22.823M399.5-817.547h45.646m-45.646 0h22.823M399.5-878.17h22.823M399.5-938.832h22.823M399.5-999.454h22.823m-22.823-60.662h22.823M399.5-1120.74h22.823m-22.823-60.623h22.823m-22.823-60.662h22.823m-22.823-60.623h22.823M399.5-1423.93h45.646m-45.646 0h22.823m-22.823-60.623h22.823m-22.823-60.662h22.823m-22.823-60.623h22.823M399.5-1666.46h22.823m-22.823-60.662h22.823m-22.823-60.623h22.823m-22.823-60.662h22.823M399.5-1909.03h22.823M399.5-2030.315h45.646m-45.646 0h22.823m-22.823-60.623h22.823M399.5-2151.6h22.823m-22.823-60.623h22.823m-22.823-60.662h22.823m-22.823-60.622h22.823M399.5-2394.17h22.823m-22.823-60.623h22.823m-22.823-60.623h22.823M399.5-2636.7h45.646m-45.646 0h22.823" transform="matrix(.10013 0 0 .09987 -39 265)" fill="none" stroke-width="5.707" stroke="#000" stroke-miterlimit="10"/><path d="M3595.506-211.163V-2636.7" transform="matrix(.10013 0 0 .09987 -39 265)" fill="none" stroke-width="11.414" stroke-linecap="square" stroke="#000" stroke-miterlimit="10"/><path d="M3595.506-211.163h-45.685m45.685 0h-22.823m22.823-60.623h-22.823m22.823-60.661h-22.823m22.823-60.623h-22.823m22.823-60.662h-22.823m22.823-60.623h-22.823m22.823-60.623h-22.823m22.823-60.662h-22.823m22.823-60.622h-22.823m22.823-121.285h-45.685m45.685 0h-22.823m22.823-60.623h-22.823m22.823-60.662h-22.823m22.823-60.622h-22.823m22.823-60.662h-22.823m22.823-60.623h-22.823m22.823-60.623h-22.823m22.823-60.662h-22.823m22.823-60.623h-22.823m22.823-121.284h-45.685m45.685 0h-22.823m22.823-60.623h-22.823m22.823-60.662h-22.823m22.823-60.623h-22.823m22.823-60.622h-22.823m22.823-60.662h-22.823m22.823-60.623h-22.823m22.823-60.662h-22.823m22.823-60.623h-22.823m22.823-121.284h-45.685m45.685 0h-22.823m22.823-60.623h-22.823m22.823-60.662h-22.823m22.823-60.623h-22.823m22.823-60.662h-22.823m22.823-60.622h-22.823m22.823-60.662h-22.823m22.823-60.623h-22.823m22.823-60.623h-22.823m22.823-121.285h-45.685m45.685 0h-22.823" transform="matrix(.10013 0 0 .09987 -39 265)" fill="none" stroke-width="5.707" stroke="#000" stroke-miterlimit="10"/><path d="M470.272-247.771l148.993-147.294m-12.328 36.256l12.328-36.256-36.4 11.93m-97.69-105.485l119.187-106.578m-14.123 35.591l14.123-35.591-36.946 10.051M500.078-724.97l89.38-74.899m-15.254 35.122l15.254-35.122-37.219 8.879m-37.258-165.794l59.574-52.292m-14.435 35.474l14.435-35.474-37.024 9.7m-7.646-184.685l29.767-38.72m-7.296 37.586l7.296-37.586-34.45 16.7m19.586-200.758v-34.184m17.088 34.223l-17.088-34.223-17.127 34.223m31.991-218.281l-29.767-38.72m34.449 16.7l-34.45-16.7 7.296 37.585m37.375-212.57l-59.574-52.293m37.024 9.7l-37.024-9.7 14.435 35.435m60.042-192.35l-89.38-74.898m37.258 8.878l-37.258-8.878 15.254 35.122m89.03-164.894l-119.187-106.579m36.946 10.09l-36.946-10.09 14.123 35.592m119.967-129.186L470.272-2600.09m36.4 11.89l-36.4-11.89 12.328 36.256M775.71-247.77l119.187-147.294m-8.232 37.39l8.232-37.39-34.84 15.88M787.649-488.62l95.35-106.578m-10.066 36.92l10.066-36.92-35.62 14.119m-47.83-143.891l71.512-74.899m-11.236 36.57l11.236-36.57-36.01 12.946m-23.564-169.86l47.674-52.293m-10.416 36.843l10.416-36.843-35.736 13.767m-.04-188.752l23.838-38.72m-3.355 38.134l3.355-38.134-32.498 20.182m20.599-204.24v-34.184m17.127 34.223l-17.127-34.223-17.127 34.223m29.026-218.281l-23.837-38.72m32.537 20.18l-32.537-20.18 3.394 38.133m32.381-213.119l-47.674-52.292m35.697 13.768l-35.697-13.768 10.416 36.843m49.158-193.758l-71.513-74.898m36.05 12.946l-36.05-12.946 11.275 36.608m72.176-166.38l-95.35-106.579m35.58 14.12l-35.58-14.12 10.066 36.96m97.183-130.554L775.71-2600.09m34.878 15.84l-34.878-15.84 8.271 37.39m297.207 2314.93l89.38-147.294m-3.121 38.173l3.121-38.173-32.42 20.416m-48.026-113.97l71.512-106.58m-4.877 37.978l4.877-37.977-33.318 18.89m-29.26-148.662l53.605-74.899m-6.008 37.821l6.008-37.82-33.825 17.873m-10.846-174.789l35.737-52.292m-5.19 37.938l5.19-37.938-33.435 18.617m6.632-193.602l17.868-38.72m1.21 38.251l-1.21-38.25-29.884 23.896m20.95-207.955v-34.184m17.127 34.223l-17.127-34.223-17.127 34.223m26.061-218.281l-17.868-38.72m29.885 23.896l-29.885-23.897-1.17 38.29m27.973-213.275l-35.737-52.292m33.474 18.617l-33.474-18.617 5.189 37.939m39.482-194.854l-53.605-74.898m33.825 17.874l-33.825-17.874 6.008 37.82m56.57-167.592l-71.512-106.579m33.278 18.93l-33.278-18.93 4.837 37.977m75.609-131.57l-89.38-147.255m32.381 20.416l-32.381-20.416 3.12 38.173M1386.626-247.77l59.574-147.294m3.043 38.173l-3.043-38.173-28.714 25.344m-24.93-118.899l47.675-106.578m1.678 38.25l-1.678-38.25-29.572 24.249m-12.134-154.021l35.776-74.899m.702 38.29l-.702-38.29-30.236 23.506m.43-180.42l23.837-52.293m1.365 38.251l-1.365-38.25-29.768 24.053m11.9-199.039l11.899-38.72m6.28 37.743l-6.28-37.743-26.452 27.691m20.483-211.75v-34.183m17.127 34.223l-17.127-34.223-17.088 34.223m23.057-218.281l-11.9-38.72m26.413 27.69l-26.413-27.69-6.32 37.742m24.189-212.728l-23.838-52.292m29.768 24.054l-29.768-24.054-1.365 38.251m31.172-195.166l-35.776-74.898m30.197 23.506l-30.197-23.506-.702 38.29m42.408-168.062l-47.675-106.579m29.65 24.288l-29.65-24.288-1.638 38.251m55.282-131.845l-59.574-147.254m28.714 25.344l-28.714-25.344-3.043 38.173M1692.065-247.77l29.767-147.294m10.027 36.96l-10.027-36.96-23.564 30.194m-3.238-123.749l23.837-106.578m9.246 37.156l-9.246-37.156-24.188 29.685m3.355-159.457l17.868-74.899m8.7 37.274l-8.7-37.274-24.618 29.334m9.716-186.25l11.899-52.292m9.09 37.195l-9.09-37.195-24.306 29.608m15.372-204.593l5.969-38.72m11.704 36.452l-11.704-36.452-22.12 31.25m19.155-215.308v-34.184m17.127 34.223l-17.127-34.223-17.127 34.223m20.092-218.281l-5.97-38.72m22.16 31.25l-22.16-31.25-11.703 36.451m20.638-211.437l-11.9-52.292m24.306 29.569L1701-1891.08l-9.09 37.195m23.993-194.11l-17.868-74.898m24.578 29.333l-24.578-29.333-8.74 37.273m29.573-167.045l-23.837-106.579m24.188 29.686l-24.188-29.686-9.247 37.156m36.05-130.75l-29.768-147.254m23.564 30.194l-23.564-30.194-9.988 36.96m315.426 2315.36v-147.294m17.127 34.262l-17.127-34.262-17.127 34.262m17.127-127.817v-106.578m17.127 34.261l-17.127-34.261-17.127 34.261m17.127-164.033v-74.899m17.127 34.223l-17.127-34.223-17.127 34.223m17.127-191.138v-52.292m17.127 34.223l-17.127-34.223-17.127 34.223m17.127-209.208v-38.72m17.127 34.223l-17.127-34.223-17.127 34.223m17.127-218.281v-34.184m17.127 34.223l-17.127-34.223-17.127 34.223m17.127-218.281v-38.72m17.127 34.222l-17.127-34.223-17.127 34.223m17.127-209.208v-52.292m17.127 34.223l-17.127-34.223-17.127 34.223m17.127-191.138v-74.898m17.127 34.261l-17.127-34.261-17.127 34.261m17.127-164.033v-106.579m17.127 34.262l-17.127-34.262-17.127 34.262m17.127-127.856v-147.254m17.127 34.261l-17.127-34.261-17.127 34.261M2302.942-247.77l-29.807-147.294m23.603 30.194l-23.603-30.194-9.987 36.96m36.829-130.515l-23.838-106.578m24.189 29.685l-24.189-29.685-9.246 37.156m30.08-166.928l-17.869-74.899m24.618 29.334l-24.618-29.334-8.7 37.274m23.603-194.189l-11.899-52.292m24.267 29.608l-24.267-29.608-9.09 37.195m18.024-212.18l-5.969-38.72m22.121 31.25l-22.12-31.25-11.705 36.452m14.67-220.51v-34.184m17.126 34.223l-17.127-34.223-17.127 34.223m14.162-218.281l5.97-38.72m11.704 36.451l-11.705-36.452-22.16 31.25m13.226-206.235l11.9-52.292m9.09 37.195l-9.09-37.195-24.306 29.569m9.402-186.484l17.869-74.898m8.7 37.273l-8.7-37.273-24.58 29.333m3.746-159.105l23.838-106.579m9.207 37.156l-9.207-37.156-24.189 29.686m-2.653-123.28l29.807-147.254m9.987 36.96l-9.987-36.96-23.565 30.194M2608.38-247.771l-59.574-147.294m28.714 25.344l-28.714-25.344-3.043 38.173m56.648-131.728l-47.636-106.578m29.612 24.249l-29.612-24.25-1.677 38.252m43.383-168.023l-35.776-74.899m30.197 23.506l-30.197-23.506-.702 38.29m30.509-195.205l-23.838-52.292m29.768 24.054l-29.768-24.054-1.365 38.251m19.234-213.236l-11.9-38.72m26.413 27.691l-26.412-27.69-6.32 37.742m12.25-221.801v-34.184m17.127 34.223l-17.127-34.223-17.088 34.223m11.158-218.281l11.899-38.72m6.281 37.742l-6.281-37.743-26.452 27.691m8.583-202.676l23.838-52.292m1.365 38.251l-1.365-38.25-29.768 24.053m-.039-180.969l35.776-74.898m.702 38.29l-.702-38.29-30.197 23.506m-11.509-153.278l47.636-106.579m1.678 38.251l-1.678-38.25-29.611 24.287m-23.994-117.882l59.574-147.254m3.043 38.173l-3.043-38.173-28.714 25.344m334.153 2326.976l-89.38-147.294m32.42 20.416l-32.42-20.416 3.16 38.173m77.286-131.728l-71.513-106.578m33.318 18.89l-33.318-18.89 4.877 37.977m57.701-167.75l-53.644-74.898m33.864 17.874l-33.864-17.874 6.009 37.821m38.701-194.736l-35.775-52.292m33.473 18.617l-33.473-18.617 5.227 37.938m21.614-212.923l-17.868-38.72m29.884 23.897l-29.884-23.897-1.21 38.251m10.144-222.31v-34.183m17.127 34.223l-17.127-34.223-17.127 34.223m8.193-218.281l17.868-38.72m1.17 38.29l-1.17-38.29-29.884 23.896m3.043-198.882l35.775-52.292m-5.189 37.939l5.19-37.939-33.475 18.617m-11.236-175.532l53.644-74.898m-6.008 37.82l6.008-37.82-33.864 17.874m-28.714-147.646l71.513-106.579m-4.838 37.977l4.838-37.977-33.28 18.93m-47.167-112.524l89.38-147.254m-3.12 38.173l3.12-38.173-32.38 20.416m337.82 2331.904l-119.149-147.294m34.84 15.88l-34.84-15.88 8.193 37.39m99.056-130.945l-95.35-106.578m35.62 14.119l-35.62-14.12 10.066 36.922m73.385-166.693l-71.551-74.899m36.048 12.946l-36.048-12.946 11.275 36.57m48.338-193.485l-47.675-52.292m35.736 13.767l-35.736-13.767 10.416 36.843m25.32-211.828l-23.798-38.72m32.498 20.182l-32.498-20.182 3.355 38.134m8.544-222.192v-34.184m17.127 34.223l-17.127-34.223-17.127 34.223m5.228-218.281l23.798-38.72m-3.355 38.133l3.355-38.134-32.498 20.182m-3.238-195.167l47.675-52.292m-10.417 36.843l10.417-36.843-35.737 13.768m-23.876-170.683l71.55-74.898m-11.274 36.608l11.275-36.608-36.049 12.946m-47.402-142.718l95.35-106.579m-10.066 36.96l10.066-36.96-35.58 14.12m-71.669-107.714l119.148-147.254m-8.232 37.39l8.232-37.39-34.84 15.84m340.318 2336.48L3375.74-395.065m36.4 11.93l-36.4-11.93 12.329 36.256m121.761-129.81L3390.645-595.2m36.946 10.052l-36.946-10.051 14.122 35.591m90.161-165.363l-89.38-74.899m37.219 8.879l-37.22-8.879 15.216 35.122m59.262-192.037l-59.574-52.292m37.024 9.7l-37.024-9.7 14.435 35.474m30.236-210.459l-29.807-38.72m34.45 16.7l-34.45-16.7 7.335 37.586m7.568-221.644v-34.184m17.128 34.223l-17.128-34.223-17.127 34.223m2.224-218.281l29.807-38.72m-7.296 37.585l7.296-37.586-34.45 16.7m-10.221-191.685l59.574-52.292m-14.435 35.435l14.435-35.435-37.024 9.7m-37.453-166.615l89.38-74.898m-15.254 35.122l15.254-35.122-37.258 8.878m-67.025-138.65l119.186-106.579m-14.123 35.592l14.123-35.592-36.946 10.09m-97.144-103.684l148.994-147.254m-12.329 36.256l12.329-36.256-36.4 11.89" transform="matrix(.10013 0 0 .09987 -39 265)" fill="none" stroke-width="11.414" stroke-linecap="round" stroke="#00f" stroke-miterlimit="10"/></svg>