<svg xmlns="http://www.w3.org/2000/svg" xmlns:xlink="http://www.w3.org/1999/xlink" width="488" height="275pt" viewBox="0 0 366 275"><defs><clipPath id="D"><path d="M23 119h183v145.5H23zm0 0"/></clipPath><clipPath id="m"><path d="M13 136h340v2H13zm0 0"/></clipPath><clipPath id="G"><path d="M170 9.5h183V151H170zm0 0"/></clipPath><clipPath id="F"><path d="M176 119h88v145.5h-88zm0 0"/></clipPath><clipPath id="E"><path d="M77 119h141v145.5H77zm0 0"/></clipPath><clipPath id="a"><path d="M182 9.5h2v255h-2zm0 0"/></clipPath><clipPath id="b"><path d="M13 136h340v2H13zm0 0"/></clipPath><clipPath id="c"><path d="M13 9.5h1v255h-1zm0 0"/></clipPath><clipPath id="d"><path d="M69 9.5h1v255h-1zm0 0"/></clipPath><clipPath id="e"><path d="M126 9.5h1v255h-1zm0 0"/></clipPath><clipPath id="f"><path d="M182 9.5h2v255h-2zm0 0"/></clipPath><clipPath id="g"><path d="M239 9.5h1v255h-1zm0 0"/></clipPath><clipPath id="h"><path d="M296 9.5h1v255h-1zm0 0"/></clipPath><clipPath id="i"><path d="M352 9.5h1v255h-1zm0 0"/></clipPath><clipPath id="j"><path d="M13 264h340v.5H13zm0 0"/></clipPath><clipPath id="k"><path d="M13 221h340v2H13zm0 0"/></clipPath><clipPath id="l"><path d="M13 179h340v1H13zm0 0"/></clipPath><clipPath id="H"><path d="M188 136h165v2H188zm0 0"/></clipPath><clipPath id="n"><path d="M13 94h340v1H13zm0 0"/></clipPath><clipPath id="o"><path d="M13 51h340v2H13zm0 0"/></clipPath><clipPath id="p"><path d="M13 9.5h340v.5H13zm0 0"/></clipPath><clipPath id="v"><path d="M13 136h340v2H13zm0 0"/></clipPath><clipPath id="w"><path d="M13 9.5h340v255H13zm0 0"/></clipPath><clipPath id="x"><path d="M102 9.5h88V155h-88zm0 0"/></clipPath><clipPath id="y"><path d="M148 9.5h141V155H148zm0 0"/></clipPath><clipPath id="z"><path d="M13 119h183v130H13zm0 0"/></clipPath><clipPath id="A"><path d="M13 119h188v145.5H13zm0 0"/></clipPath><clipPath id="B"><path d="M13 136h171v2H13zm0 0"/></clipPath><clipPath id="C"><path d="M168 9.5h185V155H168zm0 0"/></clipPath><symbol overflow="visible" id="r"><path d="M1.656-2.438h.36c.734 0 1.109.329 1.109.954 0 .671-.422 1.078-1.11 1.078-.718 0-1.078-.36-1.109-1.14H.234c.032.421.11.702.235.952.281.5.797.766 1.531.766 1.094 0 1.797-.656 1.797-1.656 0-.672-.266-1.047-.906-1.266.5-.203.75-.578.75-1.11 0-.906-.61-1.453-1.625-1.453-1.079 0-1.641.579-1.657 1.72h.657c0-.329.03-.516.109-.673.156-.296.484-.468.906-.468.578 0 .938.343.938.906 0 .375-.14.594-.438.719-.172.078-.406.109-.875.109zm0 0"/></symbol><symbol overflow="visible" id="u"><path d="M2.063-5.313c-.5 0-.938.22-1.22.579C.5-4.266.329-3.563.329-2.578c0 1.797.594 2.75 1.734 2.75 1.126 0 1.735-.953 1.735-2.703 0-1.031-.156-1.719-.516-2.203-.281-.375-.719-.579-1.219-.579zm0 .579c.718 0 1.062.718 1.062 2.14 0 1.516-.344 2.219-1.078 2.219C1.344-.375 1-1.109 1-2.563c0-1.453.344-2.171 1.063-2.171zm0 0"/></symbol><symbol overflow="visible" id="t"><path d="M1.938-3.781V0h.671v-5.313h-.437c-.235.813-.39.922-1.406 1.047v.485zm0 0"/></symbol><symbol overflow="visible" id="s"><path d="M3.797-.656H1c.063-.438.313-.703.953-1.094l.75-.406c.75-.406 1.125-.953 1.125-1.594 0-.453-.172-.86-.484-1.14-.328-.298-.719-.423-1.219-.423-.672 0-1.172.235-1.469.688-.187.281-.265.61-.281 1.156h.656c.032-.36.078-.578.157-.75.171-.328.515-.515.921-.515.594 0 1.047.421 1.047.984 0 .422-.25.781-.719 1.063l-.687.39C.64-1.672.312-1.172.25 0h3.547zm0 0"/></symbol><symbol overflow="visible" id="q"><path d="M2.125-2.344H.344v.547h1.781zm0 0"/></symbol></defs><g clip-path="url(#a)"><path d="M183 264.5V9.5" fill="none" stroke-width=".625" stroke-linecap="round" stroke="#bfbfbf" stroke-miterlimit="10"/></g><g clip-path="url(#b)"><path d="M13 137h340" fill="none" stroke-width=".625" stroke-linecap="round" stroke="#bfbfbf" stroke-miterlimit="10"/></g><g clip-path="url(#c)"><path d="M13 264.5V9.5" fill="none" stroke-width=".625" stroke-linecap="round" stroke="#bfbfbf" stroke-dasharray="12.5,18.75" stroke-miterlimit="10"/></g><g clip-path="url(#d)"><path d="M69.668 264.5V9.5" fill="none" stroke-width=".625" stroke-linecap="round" stroke="#bfbfbf" stroke-dasharray="12.5,18.75" stroke-miterlimit="10"/></g><g clip-path="url(#e)"><path d="M126.332 264.5V9.5" fill="none" stroke-width=".625" stroke-linecap="round" stroke="#bfbfbf" stroke-dasharray="12.5,18.75" stroke-miterlimit="10"/></g><g clip-path="url(#f)"><path d="M183 264.5V9.5" fill="none" stroke-width=".625" stroke-linecap="round" stroke="#bfbfbf" stroke-dasharray="12.5,18.75" stroke-miterlimit="10"/></g><g clip-path="url(#g)"><path d="M239.668 264.5V9.5" fill="none" stroke-width=".625" stroke-linecap="round" stroke="#bfbfbf" stroke-dasharray="12.5,18.75" stroke-miterlimit="10"/></g><g clip-path="url(#h)"><path d="M296.332 264.5V9.5" fill="none" stroke-width=".625" stroke-linecap="round" stroke="#bfbfbf" stroke-dasharray="12.5,18.75" stroke-miterlimit="10"/></g><g clip-path="url(#i)"><path d="M353 264.5V9.5" fill="none" stroke-width=".625" stroke-linecap="round" stroke="#bfbfbf" stroke-dasharray="12.5,18.75" stroke-miterlimit="10"/></g><g clip-path="url(#j)"><path d="M13 264.5h340" fill="none" stroke-width=".625" stroke-linecap="round" stroke="#bfbfbf" stroke-dasharray="12.5,18.75" stroke-miterlimit="10"/></g><g clip-path="url(#k)"><path d="M13 222h340" fill="none" stroke-width=".625" stroke-linecap="round" stroke="#bfbfbf" stroke-dasharray="12.5,18.75" stroke-miterlimit="10"/></g><g clip-path="url(#l)"><path d="M13 179.5h340" fill="none" stroke-width=".625" stroke-linecap="round" stroke="#bfbfbf" stroke-dasharray="12.5,18.75" stroke-miterlimit="10"/></g><g clip-path="url(#m)"><path d="M13 137h340" fill="none" stroke-width=".625" stroke-linecap="round" stroke="#bfbfbf" stroke-dasharray="12.5,18.75" stroke-miterlimit="10"/></g><g clip-path="url(#n)"><path d="M13 94.5h340" fill="none" stroke-width=".625" stroke-linecap="round" stroke="#bfbfbf" stroke-dasharray="12.5,18.75" stroke-miterlimit="10"/></g><g clip-path="url(#o)"><path d="M13 52h340" fill="none" stroke-width=".625" stroke-linecap="round" stroke="#bfbfbf" stroke-dasharray="12.5,18.75" stroke-miterlimit="10"/></g><g clip-path="url(#p)"><path d="M13 9.5h340" fill="none" stroke-width=".625" stroke-linecap="round" stroke="#bfbfbf" stroke-dasharray="12.5,18.75" stroke-miterlimit="10"/></g><path d="M13 264.5h340" fill="none" stroke-width="1.25" stroke-linecap="square" stroke="#000" stroke-miterlimit="10"/><path d="M13 264.5v-5m5.668 5V262m5.664 2.5V262M30 264.5V262m5.668 2.5V262m5.664 2.5V262M47 264.5V262m5.668 2.5V262m5.664 2.5V262M64 264.5V262m5.668 2.5v-5m5.664 5V262M81 264.5V262m5.668 2.5V262m5.664 2.5V262M98 264.5V262m5.668 2.5V262m5.664 2.5V262m5.668 2.5V262m5.668 2.5V262m5.664 2.5v-5m5.668 5V262m5.668 2.5V262m5.664 2.5V262m5.668 2.5V262m5.668 2.5V262m5.664 2.5V262m5.668 2.5V262m5.668 2.5V262m5.664 2.5V262m5.668 2.5v-5m5.668 5V262m5.664 2.5V262m5.668 2.5V262m5.668 2.5V262m5.664 2.5V262m5.668 2.5V262m5.668 2.5V262m5.664 2.5V262m5.668 2.5V262m5.668 2.5v-5m5.664 5V262m5.668 2.5V262m5.668 2.5V262m5.664 2.5V262m5.668 2.5V262m5.668 2.5V262m5.664 2.5V262m5.668 2.5V262m5.668 2.5V262m5.664 2.5v-5m5.668 5V262m5.668 2.5V262m5.664 2.5V262m5.668 2.5V262m5.668 2.5V262m5.664 2.5V262m5.668 2.5V262m5.668 2.5V262m5.664 2.5V262m5.668 2.5v-5" fill="none" stroke-width=".625" stroke="#000" stroke-miterlimit="10"/><use xlink:href="#q" x="9.042" y="274.5"/><use xlink:href="#r" x="11.539" y="274.5"/><use xlink:href="#q" x="65.917" y="274.5"/><use xlink:href="#s" x="68.414" y="274.5"/><use xlink:href="#q" x="122.792" y="274.5"/><use xlink:href="#t" x="125.289" y="274.5"/><use xlink:href="#u" x="180.915" y="274.5"/><use xlink:href="#t" x="237.165" y="274.5"/><use xlink:href="#s" x="294.04" y="274.5"/><use xlink:href="#r" x="350.915" y="274.5"/><path d="M13 9.5h340" fill="none" stroke-width="1.25" stroke-linecap="square" stroke="#000" stroke-miterlimit="10"/><path d="M13 9.5v5m5.668-5V12m5.664-2.5V12M30 9.5V12m5.668-2.5V12m5.664-2.5V12M47 9.5V12m5.668-2.5V12m5.664-2.5V12M64 9.5V12m5.668-2.5v5m5.664-5V12M81 9.5V12m5.668-2.5V12m5.664-2.5V12M98 9.5V12m5.668-2.5V12m5.664-2.5V12M115 9.5V12m5.668-2.5V12m5.664-2.5v5m5.668-5V12m5.668-2.5V12m5.664-2.5V12M149 9.5V12m5.668-2.5V12m5.664-2.5V12M166 9.5V12m5.668-2.5V12m5.664-2.5V12M183 9.5v5m5.668-5V12m5.664-2.5V12M200 9.5V12m5.668-2.5V12m5.664-2.5V12M217 9.5V12m5.668-2.5V12m5.664-2.5V12M234 9.5V12m5.668-2.5v5m5.664-5V12M251 9.5V12m5.668-2.5V12m5.664-2.5V12M268 9.5V12m5.668-2.5V12m5.664-2.5V12M285 9.5V12m5.668-2.5V12m5.664-2.5v5m5.668-5V12m5.668-2.5V12m5.664-2.5V12M319 9.5V12m5.668-2.5V12m5.664-2.5V12M336 9.5V12m5.668-2.5V12m5.664-2.5V12M353 9.5v5" fill="none" stroke-width=".625" stroke="#000" stroke-miterlimit="10"/><use xlink:href="#q" x="9.042" y="6.375"/><use xlink:href="#r" x="11.539" y="6.375"/><use xlink:href="#q" x="65.917" y="6.375"/><use xlink:href="#s" x="68.414" y="6.375"/><use xlink:href="#q" x="122.792" y="6.375"/><use xlink:href="#t" x="125.289" y="6.375"/><use xlink:href="#u" x="180.915" y="6.375"/><use xlink:href="#t" x="237.165" y="6.375"/><use xlink:href="#s" x="294.04" y="6.375"/><use xlink:href="#r" x="350.915" y="6.375"/><path d="M13 264.5V9.5" fill="none" stroke-width="1.25" stroke-linecap="square" stroke="#000" stroke-miterlimit="10"/><path d="M13 264.5h5m-5-4.25h2.5M13 256h2.5m-2.5-4.25h2.5M13 247.5h2.5m-2.5-4.25h2.5M13 239h2.5m-2.5-4.25h2.5M13 230.5h2.5m-2.5-4.25h2.5M13 222h5m-5-4.25h2.5M13 213.5h2.5m-2.5-4.25h2.5M13 205h2.5m-2.5-4.25h2.5M13 196.5h2.5m-2.5-4.25h2.5M13 188h2.5m-2.5-4.25h2.5M13 179.5h5m-5-4.25h2.5M13 171h2.5m-2.5-4.25h2.5M13 162.5h2.5m-2.5-4.25h2.5M13 154h2.5m-2.5-4.25h2.5M13 145.5h2.5m-2.5-4.25h2.5M13 137h5m-5-4.25h2.5M13 128.5h2.5m-2.5-4.25h2.5M13 120h2.5m-2.5-4.25h2.5M13 111.5h2.5m-2.5-4.25h2.5M13 103h2.5M13 98.75h2.5M13 94.5h5m-5-4.25h2.5M13 86h2.5M13 81.75h2.5M13 77.5h2.5M13 73.25h2.5M13 69h2.5M13 64.75h2.5M13 60.5h2.5M13 56.25h2.5M13 52h5m-5-4.25h2.5M13 43.5h2.5M13 39.25h2.5M13 35h2.5M13 30.75h2.5M13 26.5h2.5M13 22.25h2.5M13 18h2.5M13 13.75h2.5M13 9.5h5" fill="none" stroke-width=".625" stroke="#000" stroke-miterlimit="10"/><use xlink:href="#q" x="-.542" y="268.25"/><use xlink:href="#r" x="1.956" y="268.25"/><use xlink:href="#q" x="-.542" y="225.125"/><use xlink:href="#s" x="1.956" y="225.125"/><use xlink:href="#q" x="-.542" y="183.25"/><use xlink:href="#t" x="1.956" y="183.25"/><use xlink:href="#u" x="1.955" y="140.125"/><use xlink:href="#t" x="1.955" y="98.25"/><use xlink:href="#s" x="1.955" y="55.125"/><use xlink:href="#r" x="1.955" y="12.625"/><path d="M353 264.5V9.5" fill="none" stroke-width="1.25" stroke-linecap="square" stroke="#000" stroke-miterlimit="10"/><path d="M353 264.5h-5m5-4.25h-2.5M353 256h-2.5m2.5-4.25h-2.5m2.5-4.25h-2.5m2.5-4.25h-2.5M353 239h-2.5m2.5-4.25h-2.5m2.5-4.25h-2.5m2.5-4.25h-2.5M353 222h-5m5-4.25h-2.5m2.5-4.25h-2.5m2.5-4.25h-2.5M353 205h-2.5m2.5-4.25h-2.5m2.5-4.25h-2.5m2.5-4.25h-2.5M353 188h-2.5m2.5-4.25h-2.5m2.5-4.25h-5m5-4.25h-2.5M353 171h-2.5m2.5-4.25h-2.5m2.5-4.25h-2.5m2.5-4.25h-2.5M353 154h-2.5m2.5-4.25h-2.5m2.5-4.25h-2.5m2.5-4.25h-2.5M353 137h-5m5-4.25h-2.5m2.5-4.25h-2.5m2.5-4.25h-2.5M353 120h-2.5m2.5-4.25h-2.5m2.5-4.25h-2.5m2.5-4.25h-2.5M353 103h-2.5m2.5-4.25h-2.5m2.5-4.25h-5m5-4.25h-2.5M353 86h-2.5m2.5-4.25h-2.5m2.5-4.25h-2.5m2.5-4.25h-2.5M353 69h-2.5m2.5-4.25h-2.5m2.5-4.25h-2.5m2.5-4.25h-2.5M353 52h-5m5-4.25h-2.5m2.5-4.25h-2.5m2.5-4.25h-2.5M353 35h-2.5m2.5-4.25h-2.5m2.5-4.25h-2.5m2.5-4.25h-2.5M353 18h-2.5m2.5-4.25h-2.5M353 9.5h-5" fill="none" stroke-width=".625" stroke="#000" stroke-miterlimit="10"/><use xlink:href="#q" x="359.25" y="268.25"/><use xlink:href="#r" x="361.748" y="268.25"/><use xlink:href="#q" x="359.25" y="225.125"/><use xlink:href="#s" x="361.748" y="225.125"/><use xlink:href="#q" x="359.25" y="183.25"/><use xlink:href="#t" x="361.748" y="183.25"/><use xlink:href="#u" x="359.25" y="140.125"/><use xlink:href="#t" x="359.25" y="98.25"/><use xlink:href="#s" x="359.25" y="55.125"/><use xlink:href="#r" x="359.25" y="12.625"/><path d="M26.344 254.492l-9.688 7.266m1.875-3.75l-1.875 3.75 4.125-.75m5.309-18.883l-9.18 6.5m1.977-3.695l-1.977 3.695 4.145-.637m4.78-18.23l-8.67 5.734m2.093-3.633l-2.094 3.633 4.164-.504m4.25-17.597l-8.16 4.968m2.23-3.55l-2.23 3.55 4.18-.347m3.726-16.992l-7.648 4.207m2.383-3.45l-2.383 3.45 4.187-.165m3.207-16.41l-7.14 3.446m2.562-3.32l-2.562 3.32 4.191.058m2.695-15.87l-6.632 2.679m2.777-3.145l-2.777 3.145 4.18.332m2.195-15.379l-6.118 1.914m3.02-2.91l-3.02 2.91 4.137.672m1.727-14.953l-5.61 1.148m3.297-2.59l-3.297 2.59 4.051 1.086m1.305-14.601l-5.102.382m3.602-2.152l-3.602 2.152 3.88 1.59m.964-14.34l-4.59-.382m3.895-1.555l-3.895 1.555 3.582 2.18m.754-14.165l-4.078-1.148m4.117-.79l-4.117.79 3.102 2.82m.722-14.039l-3.57-1.914m4.191.117l-4.191-.117 2.422 3.426m.894-13.88l-3.062-2.679m4.058 1.059l-4.058-1.059 1.59 3.883m1.214-13.57l-2.546-3.446m3.738 1.899l-3.738-1.899.722 4.13m1.57-13.052l-2.039-4.21m3.325 2.558L20.48 64.77l-.05 4.195m1.836-12.356l-1.532-4.968m2.895 3.03l-2.895-3.03-.687 4.132m1.965-11.53l-1.024-5.735m2.504 3.363l-2.504-3.363-1.187 4.02m1.953-10.653l-.508-6.504m2.16 3.594l-2.16-3.594-1.578 3.887m1.832-9.75v-7.266m1.875 3.75l-1.875-3.75-1.875 3.75m23.465 238.5l-9.18 7.266m1.778-3.797l-1.778 3.797 4.106-.856m4.82-18.777l-8.672 6.5m1.875-3.75l-1.875 3.75 4.125-.75m4.29-18.117l-8.161 5.734m1.992-3.691l-1.992 3.691 4.148-.62m3.758-17.481l-7.648 4.968m2.12-3.613l-2.12 3.613 4.164-.468m3.23-16.871l-7.14 4.207m2.277-3.516l-2.277 3.516 4.183-.286m2.703-16.289l-6.632 3.446m2.464-3.395l-2.464 3.395 4.195-.067m2.18-15.746l-6.118 2.68m2.684-3.223l-2.684 3.223 4.188.215m1.676-15.262l-5.61 1.914m2.946-2.984l-2.946 2.984 4.153.563m1.203-14.844l-5.102 1.148m3.246-2.652l-3.246 2.652 4.07 1.004m.774-14.52l-4.59.383m3.582-2.18l-3.582 2.18 3.895 1.555m.441-14.305l-4.078-.382m3.906-1.516l-3.906 1.516 3.559 2.214m.265-14.199l-3.57-1.148m4.144-.637l-4.144.637 2.996 2.933m.32-14.152l-3.062-1.914m4.176.398l-4.176-.398 2.187 3.578m.617-14.031l-2.546-2.68m3.941 1.426l-3.941-1.426 1.226 4.012m1.067-13.7l-2.04-3.445m3.524 2.27l-3.524-2.27.297 4.184m1.489-13.106l-1.532-4.21m3.043 2.886l-3.043-2.886-.48 4.167m1.758-12.328l-1.024-4.968m2.594 3.296l-2.594-3.296-1.082 4.046m1.848-11.445l-.508-5.734m2.2 3.566l-2.2-3.566-1.535 3.898M38.5 31.875v-6.504m1.875 3.75l-1.875-3.75-1.875 3.75m1.621-9.613l.508-7.266m1.61 3.871l-1.61-3.87-2.133 3.609m23.215 238.64l-8.672 7.266m1.672-3.848l-1.672 3.848 4.078-.973m4.336-18.66l-8.16 6.5m1.766-3.8l-1.766 3.8 4.102-.871m3.804-17.996l-7.648 5.734m1.875-3.75l-1.875 3.75 4.125-.75m3.27-17.351l-7.141 4.968m2.004-3.68l-2.004 3.68 4.148-.601m2.738-16.738l-6.632 4.207m2.164-3.59l-2.164 3.59 4.171-.426m2.204-16.149l-6.118 3.446m2.348-3.473l-2.348 3.473 4.188-.207m1.676-15.606l-5.61 2.68m2.578-3.309l-2.578 3.309 4.192.074m1.164-15.121l-5.102 1.914m2.856-3.074l-2.856 3.074 4.168.438m.676-14.72l-4.59 1.15m3.184-2.731l-3.184 2.73 4.094.91m.242-14.425l-4.078.382m3.559-2.218l-3.56 2.218 3.907 1.516m-.082-14.266l-3.57-.382m3.93-1.465l-3.93 1.465 3.527 2.261m-.21-14.246l-3.063-1.148m4.172-.438l-4.172.438 2.855 3.07m-.05-14.289l-2.551-1.914m4.125.75l-4.125-.75 1.875 3.75m.422-14.203l-2.04-2.68m3.762 1.848l-3.762-1.848.782 4.121m1.004-13.808l-1.532-3.446m3.239 2.668l-3.239-2.668-.191 4.192m1.469-13.114l-1.024-4.21m2.707 3.203l-2.707-3.203-.937 4.085m1.703-12.246l-.508-4.968m2.246 3.539l-2.246-3.54-1.484 3.922m1.738-11.32v-5.734m1.875 3.75l-1.875-3.75-1.875 3.75m1.621-10.383l.508-6.504m1.578 3.887l-1.578-3.887-2.16 3.594m1.394-9.457l1.024-7.266m1.332 3.973l-1.332-3.973-2.38 3.453m22.946 238.797l-8.16 7.266m1.555-3.895l-1.555 3.895 4.05-1.094m3.856-18.539l-7.648 6.5m1.64-3.855l-1.64 3.855 4.07-1m3.324-17.867l-7.14 5.734m1.75-3.808l-1.75 3.808 4.097-.887m2.79-17.214l-6.633 4.968m1.875-3.75l-1.875 3.75 4.125-.75m2.25-16.59l-6.118 4.208m2.028-3.668l-2.028 3.668 4.153-.579m1.71-15.996l-5.609 3.446m2.215-3.563l-2.215 3.563 4.176-.364m1.18-15.449l-5.102 2.68m2.45-3.406l-2.45 3.406 4.192-.086m.652-14.961l-4.59 1.914m2.742-3.176l-2.742 3.176 4.184.29m.152-14.571l-4.078 1.148m3.102-2.82l-3.102 2.82 4.117.79m-.293-14.305l-3.57.382m3.527-2.265l-3.527 2.265 3.93 1.465m-.614-14.215l-3.062-.382m3.953-1.395l-3.953 1.395 3.488 2.324m-.684-14.309l-2.546-1.148m4.187-.172l-4.187.172 2.648 3.25m-.355-14.469l-2.04-1.914m4.016 1.195l-4.016-1.195 1.454 3.934m.332-14.387l-1.532-2.68m3.489 2.328l-3.489-2.328.235 4.188m1.043-13.875l-1.024-3.446m2.864 3.067l-2.864-3.067-.73 4.13m1.496-13.052l-.508-4.21m2.313 3.5l-2.313-3.5-1.41 3.949m1.664-12.11v-4.968m1.875 3.75L72.5 51.64l-1.875 3.75m1.621-11.149l.508-5.734m1.535 3.898l-1.535-3.898-2.2 3.566m1.434-10.199l1.024-6.504m1.27 3.996l-1.27-3.996-2.434 3.418m1.156-9.281l1.532-7.266m1.062 4.055l-1.062-4.055-2.61 3.281m22.668 238.97l-7.648 7.265m1.426-3.942l-1.426 3.942 4.008-1.223m3.386-18.41l-7.14 6.5m1.511-3.91l-1.511 3.91 4.035-1.137m2.851-17.73l-6.632 5.734m1.609-3.87l-1.61 3.87 4.063-1.035m2.313-17.066l-6.118 4.968m1.727-3.82l-1.727 3.82 4.09-.906m1.774-16.433l-5.61 4.207m1.875-3.75l-1.875 3.75 4.125-.75m1.23-15.825l-5.1 3.446m2.058-3.653l-2.059 3.653 4.156-.547m.688-15.266l-4.59 2.68m2.297-3.512l-2.297 3.512 4.188-.27m.148-14.777l-4.078 1.914m2.598-3.289l-2.598 3.289 4.191.106m-.367-14.387l-3.57 1.148m2.996-2.933l-2.996 2.933 4.144.637m-.828-14.152l-3.062.382m3.488-2.324l-3.488 2.324 3.953 1.395m-1.149-14.145l-2.546-.382m3.984-1.297l-3.984 1.297 3.43 2.41m-1.137-14.395l-2.04-1.148m4.188.203l-4.188-.203 2.348 3.472m-.562-14.691l-1.532-1.914m3.809 1.758l-3.809-1.758.88 4.102m.398-14.555l-1.024-2.68m3.09 2.836l-3.09-2.836-.414 4.172m1.18-13.86l-.508-3.445m2.402 3.438l-2.402-3.438-1.305 3.985M89.5 68.98v-4.21m1.875 3.75L89.5 64.77l-1.875 3.75m1.621-11.91l.508-4.97m1.484 3.923l-1.484-3.922-2.246 3.539m1.48-10.938l1.024-5.734m1.187 4.02l-1.187-4.02-2.504 3.363m1.226-9.996l1.532-6.504m.964 4.082l-.964-4.082-2.684 3.223m.898-9.086l2.04-7.266m.793 4.117l-.793-4.117-2.817 3.102m22.367 239.148l-7.14 7.266m1.289-3.988l-1.29 3.988 3.966-1.36m2.921-18.273l-6.632 6.5m1.367-3.965l-1.367 3.965 3.992-1.285m2.383-17.582l-6.118 5.734m1.454-3.93l-1.454 3.93 4.016-1.195m1.848-16.906l-5.61 4.968m1.563-3.89l-1.563 3.89 4.051-1.082m1.305-16.257l-5.102 4.207m1.7-3.832l-1.7 3.832 4.086-.938m.762-15.637l-4.594 3.446m1.875-3.75l-1.875 3.75 4.125-.75m.211-15.063l-4.078 2.68m2.105-3.625l-2.105 3.625 4.16-.492m-.336-14.555l-3.57 1.914m2.422-3.426l-2.422 3.426 4.191-.117m-.875-14.164l-3.062 1.148m2.855-3.074l-2.855 3.074 4.172.438m-1.368-13.953l-2.546.382m3.43-2.41l-3.43 2.41 3.984 1.297m-1.691-14.047l-2.04-.382m4.032-1.153l-4.032 1.153 3.34 2.535m-1.554-14.52l-1.532-1.148m4.125.75l-4.125-.75 1.875 3.75m-.597-14.969l-1.024-1.914m3.422 2.426l-3.422-2.426.114 4.191m.652-14.644l-.508-2.68m2.543 3.332l-2.543-3.332-1.14 4.035m1.394-13.722v-3.446m1.875 3.75l-1.875-3.75-1.875 3.75m1.621-12.672l.508-4.21m1.41 3.949l-1.41-3.95-2.313 3.5m1.547-11.66l1.024-4.968m1.082 4.046l-1.082-4.046-2.59 3.296m1.312-10.695l1.532-5.734m.843 4.105l-.843-4.105-2.778 3.137m.992-9.77l2.04-6.504m.668 4.14l-.668-4.14-2.91 3.02m.617-8.883l2.546-7.266m.528 4.156l-.528-4.156-3.007 2.918m22.05 239.332l-6.632 7.266m1.144-4.031l-1.144 4.03 3.914-1.507m2.46-18.125l-6.117 6.5m1.204-4.016l-1.204 4.016 3.934-1.445m1.93-17.422l-5.61 5.734m1.282-3.992l-1.282 3.992 3.961-1.37m1.395-16.731l-5.102 4.968m1.375-3.957l-1.375 3.957 3.996-1.273m.852-16.066l-4.594 4.207m1.5-3.915l-1.5 3.915 4.031-1.149m.305-15.426l-4.078 3.446m1.656-3.852l-1.656 3.852 4.074-.989m-.25-14.824l-3.57 2.68m1.875-3.75l-1.875 3.75 4.125-.75m-.809-14.297l-3.062 1.914m2.187-3.578l-2.187 3.578 4.176-.398m-1.372-13.883l-2.546 1.148m2.648-3.25l-2.648 3.25 4.187.172m-1.894-13.687l-2.04.382m3.34-2.535l-3.34 2.535 4.032 1.153m-2.246-13.903l-1.532-.382m4.094-.91l-4.094.91 3.184 2.726m-1.906-14.71l-1.024-1.15m3.895 1.56l-3.895-1.56 1.09 4.052m-.324-15.27l-.508-1.914m2.777 3.14l-2.777-3.14-.848 4.105m1.102-14.558v-2.68m1.875 3.75l-1.875-3.75-1.875 3.75m1.621-13.437l.508-3.446m1.305 3.985l-1.305-3.985-2.402 3.438m1.636-12.36l1.024-4.21m.937 4.085l-.937-4.085-2.707 3.203m1.43-11.364l1.53-4.968m.688 4.132l-.687-4.132-2.895 3.03m1.11-10.429l2.039-5.734m.511 4.16l-.511-4.16-3.024 2.902m.73-9.535l2.547-6.504m.38 4.18l-.38-4.18-3.113 2.809m.309-8.672l3.062-7.266m.274 4.184l-.274-4.184-3.183 2.727m21.71 239.523l-6.117 7.266m.98-4.074l-.98 4.074 3.848-1.66m2.016-17.973l-5.61 6.5m1.032-4.062l-1.032 4.062 3.868-1.613m1.488-17.254l-5.102 5.734m1.09-4.047l-1.09 4.047 3.895-1.554m.953-16.547l-4.594 4.968m1.168-4.027l-1.168 4.027 3.922-1.48m.414-15.86l-4.078 4.208m1.262-3.997l-1.262 3.997 3.957-1.383m-.133-15.192l-3.57 3.446m1.398-3.953l-1.398 3.953 4-1.254m-.684-14.559l-3.062 2.68m1.59-3.883l-1.59 3.883 4.058-1.059m-1.254-13.988l-2.546 1.914m1.875-3.75l-1.875 3.75 4.125-.75m-1.832-13.531l-2.04 1.148m2.348-3.472l-2.348 3.472 4.188-.207m-2.402-13.308l-1.532.382m3.184-2.73l-3.184 2.73 4.094.91m-2.816-13.66l-1.024-.382m4.172-.438l-4.172.438 2.856 3.074m-2.09-15.059l-.508-1.148m3.234 2.664l-3.234-2.664-.191 4.187m.445-15.406v-1.914m1.875 3.75l-1.875-3.75-1.875 3.75m1.621-14.203l.508-2.68m1.14 4.035l-1.14-4.035-2.543 3.332m1.777-13.02l1.024-3.445m.73 4.13l-.73-4.13-2.864 3.067m1.586-11.989l1.532-4.21m.48 4.168l-.48-4.168-3.043 2.886m1.257-11.047l2.04-4.968m.312 4.18l-.312-4.18-3.157 2.754m.864-10.153l2.546-5.734m.192 4.187l-.192-4.187-3.234 2.664m.43-9.297l3.062-6.504m.098 4.195l-.098-4.195-3.293 2.598m-.023-8.461l3.57-7.266m.028 4.192l-.028-4.192-3.336 2.54m21.356 239.71l-5.61 7.266m.809-4.113l-.809 4.113 3.774-1.82m1.582-17.813l-5.102 6.5m.84-4.105l-.84 4.105 3.79-1.793m1.058-17.074l-4.594 5.734m.883-4.097l-.883 4.097 3.809-1.754m.527-16.347l-4.078 4.968m.93-4.086l-.93 4.086 3.828-1.707m-.004-15.632l-3.57 4.207m.996-4.07l-.996 4.07 3.855-1.645m-.539-14.93l-3.062 3.446m1.09-4.051l-1.09 4.05 3.894-1.558m-1.09-14.254l-2.546 2.68m1.226-4.012l-1.226 4.012 3.941-1.426m-1.648-13.621l-2.04 1.914m1.454-3.934l-1.454 3.934 4.016-1.2m-2.23-13.081l-1.532 1.148m1.875-3.75l-1.875 3.75 4.125-.75m-2.847-12.765l-1.024.382m2.856-3.074l-2.856 3.074 4.172.438m-3.406-13.188l-.508-.382m4.125.75l-4.125-.75 1.875 3.75m-1.621-15.735v-1.148m1.875 3.75l-1.875-3.75-1.875 3.75m1.621-14.969l.508-1.914m.848 4.105l-.848-4.105-2.777 3.14m2.011-13.593l1.024-2.68m.414 4.172l-.414-4.172-3.09 2.836m1.812-12.523l1.532-3.446m.187 4.192l-.187-4.192-3.239 2.668m1.453-11.59l2.04-4.21m.05 4.195l-.05-4.195-3.325 2.558m1.032-10.719l2.546-4.968m-.043 4.191l.043-4.191-3.378 2.48m.574-9.879l3.062-5.734m-.11 4.187l.11-4.187-3.422 2.426m.106-9.059l3.57-6.504m-.164 4.191l.164-4.19-3.45 2.386m-.374-8.25l4.078-7.266m-.2 4.188l.2-4.188-3.469 2.352m20.98 239.898l-5.1 7.266m.62-4.145l-.62 4.145 3.69-1.992m1.157-17.641l-4.594 6.5m.633-4.145l-.633 4.145 3.695-1.98m.641-16.887l-4.078 5.734m.644-4.14l-.644 4.14 3.7-1.969m.124-16.132l-3.57 4.968m.664-4.136l-.664 4.136 3.71-1.949m-.394-15.39l-3.062 4.207m.691-4.133l-.691 4.133 3.722-1.93m-.918-14.645l-2.546 3.446m.722-4.13l-.722 4.13 3.738-1.899m-1.445-13.914l-2.04 2.68m.782-4.121l-.782 4.12 3.762-1.847m-1.976-13.199l-1.532 1.914m.88-4.102l-.88 4.102 3.809-1.758m-2.531-12.523l-1.024 1.148m1.09-4.05l-1.09 4.05 3.895-1.558m-3.13-11.957l-.507.382m1.875-3.75l-1.875 3.75 4.125-.75m-3.871-12v-.382m1.875 3.75l-1.875-3.75-1.875 3.75m1.621-15.735l.508-1.148m.191 4.187l-.191-4.187-3.234 2.664m2.468-13.883l1.024-1.914m-.114 4.191l.114-4.191-3.422 2.426m2.144-12.88l1.532-2.679m-.235 4.188l.235-4.188-3.489 2.328m1.703-12.015l2.04-3.446m-.297 4.184l.297-4.184-3.524 2.27m1.23-11.192l2.547-4.21m-.34 4.18l.34-4.18-3.546 2.238m.742-10.399l3.062-4.968m-.37 4.175l.37-4.175-3.562 2.21m.246-9.609l3.57-5.734m-.39 4.172l.39-4.172-3.574 2.191m-.25-8.824l4.078-6.504m-.402 4.176l.402-4.176-3.578 2.184m-.758-8.047l4.594-7.266m-.418 4.172l.418-4.172-3.59 2.168m20.59 240.082l-4.594 7.266m.418-4.172l-.418 4.172 3.59-2.168m.746-17.465l-4.078 6.5m.402-4.172l-.402 4.172 3.578-2.18m.246-16.687l-3.57 5.734m.39-4.172l-.39 4.172 3.574-2.191m-.258-15.91l-3.062 4.968m.37-4.175l-.37 4.175 3.562-2.21m-.758-15.13l-2.546 4.208m.34-4.176l-.34 4.176 3.543-2.235m-1.25-14.34l-2.04 3.446m.297-4.184l-.297 4.184 3.524-2.27m-1.738-13.543l-1.532 2.68m.235-4.188l-.235 4.188 3.489-2.328m-2.211-12.719l-1.024 1.914m.114-4.191l-.114 4.191 3.422-2.426m-2.656-11.855l-.508 1.148m-.191-4.187l.191 4.187 3.234-2.664m-2.98-10.851v.382m-1.875-3.75l1.875 3.75 1.875-3.75m-2.129-9l.508-.382m-1.875 3.75l1.875-3.75-4.125.75m3.36-12.735l1.023-1.148m-1.09 4.05l1.09-4.05-3.895 1.558m2.617-12.777l1.532-1.914m-.88 4.102l.88-4.102-3.809 1.758m2.023-12.211l2.04-2.68m-.782 4.121l.782-4.12-3.766 1.847m1.473-11.535l2.546-3.446m-.722 4.13l.722-4.13-3.738 1.899m.934-10.82l3.062-4.211m-.691 4.136l.691-4.136-3.722 1.93m.406-10.09l3.57-4.97m-.664 4.137l.664-4.136-3.71 1.949m-.114-9.348l4.078-5.734m-.644 4.14l.644-4.14-3.7 1.969m-.636-8.602l4.594-6.504m-.633 4.149l.633-4.149-3.695 1.984m-1.153-7.847l5.102-7.266m-.621 4.145l.62-4.145-3.69 1.992m20.18 240.258l-4.08 7.266m.2-4.188l-.2 4.188 3.47-2.352m.355-17.281l-3.57 6.5m.16-4.188l-.16 4.188 3.45-2.383m-.134-16.484l-3.062 5.734m.11-4.191l-.11 4.191 3.422-2.426m-.618-15.675l-2.546 4.968m.039-4.191l-.04 4.191 3.38-2.48m-1.086-14.86l-2.04 4.208m-.05-4.192l.05 4.192 3.325-2.555m-1.54-14.02l-1.53 3.446m-.192-4.192l.191 4.192 3.239-2.668m-1.961-13.145l-1.024 2.68m-.414-4.172l.414 4.172 3.09-2.84m-2.324-12.207l-.508 1.914m-.848-4.105l.848 4.105 2.777-3.14M208.5 155.55v1.148m-1.875-3.75l1.875 3.75 1.875-3.75m-2.129-9.765l.508.382m-4.125-.75l4.125.75-1.875-3.75m1.11-9l1.023-.382m-2.856 3.074l2.856-3.074-4.172-.438m2.894-11.547l1.532-1.148m-1.875 3.75l1.875-3.75-4.125.75m2.34-11.969l2.039-1.914m-1.454 3.934l1.454-3.934-4.016 1.195m1.723-11.648l2.546-2.68m-1.226 4.012l1.226-4.012-3.941 1.426m1.137-11.113l3.062-3.446m-1.09 4.051l1.09-4.05-3.894 1.558m.578-10.48l3.57-4.211m-.996 4.074l.996-4.074-3.855 1.648m.03-9.809l4.08-4.968m-.93 4.086l.93-4.086-3.83 1.707m-.507-9.106l4.594-5.734m-.883 4.097l.883-4.097-3.809 1.754m-1.039-8.387l5.102-6.504m-.84 4.11l.84-4.11-3.79 1.797m-1.566-7.66l5.61-7.266m-.809 4.113l.809-4.113-3.778 1.82m19.758 240.43l-3.57 7.266m-.027-4.192l.027 4.192 3.336-2.54m-.02-17.093l-3.062 6.5m-.098-4.191l.098 4.191 3.293-2.594m-.489-16.273l-2.546 5.734m-.192-4.187l.192 4.187 3.234-2.664m-.941-15.437l-2.04 4.968m-.312-4.18l.312 4.18 3.157-2.757m-1.371-14.582l-1.532 4.207m-.48-4.165l.48 4.165 3.043-2.883m-1.765-13.692l-1.024 3.446m-.73-4.13l.73 4.13 2.864-3.067m-2.098-12.746l-.508 2.68m-1.14-4.035l1.14 4.035 2.543-3.336m-2.289-11.711v1.914m-1.875-3.75l1.875 3.75 1.875-3.75m-2.129-10.531l.508 1.148m-3.234-2.664l3.234 2.664.191-4.187m-.957-9.328l1.024.382m-4.172.438l4.172-.438-2.856-3.074m1.578-9.676l1.532-.382m-3.184 2.726l3.184-2.726-4.094-.91m2.308-11.075l2.04-1.148m-2.348 3.472l2.348-3.472-4.188.203m1.895-11.422l2.546-1.914m-1.875 3.75l1.875-3.75-4.125.75m1.32-11.203l3.063-2.68m-1.59 3.883l1.59-3.883-4.058 1.059m.742-10.746l3.57-3.446m-1.398 3.953l1.398-3.953-4 1.254m.176-10.176l4.078-4.21m-1.266 4l1.266-4-3.957 1.386m-.379-9.547l4.594-4.968m-1.168 4.023l1.168-4.023-3.926 1.48m-.922-8.879l5.102-5.734m-1.09 4.047l1.09-4.047-3.895 1.554m-1.46-8.187l5.609-6.504m-1.032 4.066l1.032-4.066-3.867 1.617m-1.997-7.48l6.118-7.266m-.98 4.074l.98-4.074-3.848 1.66m19.32 240.59l-3.062 7.266m-.274-4.184l.274 4.184 3.183-2.727m-.379-16.906l-2.546 6.5m-.38-4.176l.38 4.176 3.113-2.805m-.82-16.062l-2.04 5.734m-.511-4.16l.511 4.16 3.024-2.902m-1.238-15.2l-1.532 4.97m-.687-4.133l.687 4.132 2.895-3.03m-1.617-14.31l-1.024 4.208m-.937-4.086l.937 4.086 2.707-3.2m-1.941-13.375l-.508 3.446m-1.305-3.985l1.305 3.985 2.402-3.438m-2.148-12.375v2.68m-1.875-3.75l1.875 3.75 1.875-3.75m-2.129-11.297l.508 1.914m-2.777-3.14l2.777 3.14.848-4.105m-1.614-10.176l1.024 1.148m-3.895-1.558l3.895 1.558-1.09-4.05m-.188-9.465l1.532.382m-4.094.91l4.094-.91-3.184-2.73m1.398-10.02l2.04-.382m-3.34 2.535l3.34-2.535-4.032-1.153m1.739-10.832l2.546-1.148m-2.648 3.25l2.648-3.25-4.187-.172m1.383-11.047l3.062-1.914m-2.187 3.578l2.187-3.578-4.176.398m.86-10.851l3.57-2.68m-1.875 3.75l1.875-3.75-4.125.75m.3-10.437l4.08-3.446m-1.657 3.852l1.656-3.852-4.074.989m-.262-9.91l4.594-4.211m-1.5 3.918l1.5-3.918-4.031 1.152m-.817-9.313l5.102-4.968m-1.38 3.957l1.38-3.957-3.996 1.273m-1.36-8.672l5.61-5.734m-1.282 3.988l1.282-3.988-3.961 1.37m-1.903-8.003l6.118-6.504m-1.204 4.02l1.204-4.02-3.934 1.45m-2.441-7.313l6.632-7.266m-1.144 4.031l1.144-4.03-3.914 1.503m18.871 240.746l-2.546 7.266m-.532-4.16l.532 4.16 3.007-2.918m-.714-16.715l-2.04 6.5m-.667-4.137l.667 4.137 2.91-3.016m-1.124-15.851l-1.532 5.734m-.843-4.105l.843 4.105 2.778-3.14m-1.5-14.961l-1.024 4.968m-1.082-4.047l1.082 4.047 2.59-3.297m-1.824-14.042l-.508 4.207m-1.41-3.946l1.41 3.946 2.313-3.497m-2.059-13.078v3.446m-1.875-3.75l1.875 3.75 1.875-3.75m-2.129-12.063l.508 2.68m-2.543-3.336l2.543 3.336 1.14-4.035m-1.906-11.012l1.024 1.914m-3.422-2.426l3.422 2.426-.114-4.191m-1.164-10.09l1.532 1.148m-4.125-.75l4.125.75-1.875-3.75m.09-9.765l2.039.382m-4.032 1.153l4.032-1.153-3.34-2.535m1.047-10.215l2.546-.382m-3.43 2.41l3.43-2.41-3.984-1.297m1.18-10.688l3.062-1.148m-2.855 3.07l2.855-3.07-4.172-.438m.856-10.781l3.57-1.914m-2.422 3.426l2.422-3.426-4.191.117m.367-10.57l4.078-2.68m-2.105 3.625l2.105-3.625-4.164.492m-.172-10.18l4.594-3.445m-1.875 3.75l1.875-3.75-4.125.75m-.723-9.672l5.102-4.21m-1.7 3.835l1.7-3.835-4.086.94m-1.27-9.1l5.61-4.97m-1.563 3.887l1.563-3.886-4.051 1.082m-1.813-8.48l6.118-5.735m-1.454 3.93l1.454-3.93-4.016 1.195m-2.36-7.828l6.633-6.504m-1.367 3.969l1.367-3.969-3.992 1.29m-2.894-7.153l7.14-7.266m-1.293 3.988l1.293-3.988-3.965 1.36m18.415 240.89l-2.04 7.266m-.792-4.117l.792 4.117 2.817-3.102m-1.031-16.531l-1.532 6.5m-.964-4.078l.964 4.078 2.684-3.219m-1.406-15.648l-1.024 5.734m-1.187-4.02l1.187 4.02 2.504-3.363m-1.738-14.738l-.508 4.968m-1.484-3.922l1.484 3.922 2.246-3.539m-1.992-13.8v4.207m-1.875-3.75l1.875 3.75 1.875-3.75m-2.129-12.825l.508 3.446m-2.402-3.438l2.402 3.438 1.305-3.985m-2.07-11.828l1.023 2.68m-3.09-2.84l3.09 2.84.414-4.172m-1.692-10.875l1.532 1.914m-3.809-1.758l3.809 1.758-.88-4.102m-.906-10.18l2.04 1.15m-4.188-.208l4.188.207-2.348-3.472m.055-10.043l2.546.382m-3.984 1.297l3.984-1.297-3.43-2.41m.626-10.34l3.062-.382m-3.492 2.324l3.492-2.324-3.957-1.395m.64-10.59l3.571-1.148m-2.996 2.933l2.996-2.933-4.144-.637m.32-10.582l4.078-1.914m-2.598 3.289l2.598-3.289-4.191-.105m-.145-10.348l4.594-2.68m-2.297 3.512l2.297-3.512-4.188.27m-.66-9.957l5.102-3.446m-2.059 3.653l2.059-3.653-4.16.543m-1.196-9.465l5.61-4.21m-1.875 3.75l1.875-3.75-4.125.75m-1.739-8.91l6.118-4.97m-1.727 3.82l1.727-3.82-4.09.907m-2.285-8.305l6.632-5.734m-1.609 3.87l1.61-3.87-4.063 1.035m-2.824-7.668l7.14-6.504m-1.511 3.914l1.511-3.914-4.035 1.14m-3.36-7.003l7.65-7.266m-1.427 3.942l1.426-3.942-4.008 1.223m17.95 241.027l-1.532 7.266m-1.062-4.055l1.062 4.055 2.61-3.281m-1.332-16.352l-1.024 6.5m-1.27-3.992l1.27 3.992 2.434-3.414m-1.668-15.453l-.508 5.734m-1.535-3.898l1.535 3.898 2.2-3.566M293.5 217.39v4.968m-1.875-3.75l1.875 3.75 1.875-3.75m-2.129-13.59l.508 4.208m-2.313-3.497l2.313 3.497 1.41-3.946m-2.176-12.629l1.024 3.446m-2.864-3.067l2.864 3.067.73-4.13m-2.008-11.683l1.532 2.68m-3.489-2.328l3.489 2.328-.235-4.188m-1.55-10.859l2.039 1.914m-4.016-1.2l4.016 1.2-1.454-3.934m-.84-10.347l2.547 1.148m-4.187.172l4.187-.172-2.648-3.25m-.156-10.265l3.062.382m-3.957 1.395l3.957-1.395-3.492-2.324m.176-10.426l3.57-.382m-3.527 2.261l3.527-2.261-3.93-1.465m.106-10.52l4.078-1.148m-3.101 2.82l3.101-2.82-4.117-.79m-.219-10.429l4.594-1.914m-2.742 3.176l2.742-3.176-4.184-.29m-.664-10.163l5.102-2.68m-2.45 3.403l2.45-3.403-4.192.082m-1.164-9.77l5.61-3.445m-2.215 3.563l2.215-3.563-4.176.364m-1.688-9.286l6.118-4.21m-2.028 3.671l2.028-3.671-4.153.582m-2.222-8.743l6.632-4.968m-1.875 3.75l1.875-3.75-4.125.75m-2.761-8.149l7.14-5.734m-1.75 3.808l1.75-3.808-4.097.887m-3.297-7.52l7.648-6.504m-1.64 3.86l1.64-3.86-4.07 1m-3.832-6.863l8.156-7.266m-1.55 3.895l1.55-3.895-4.047 1.094m17.48 241.156l-1.023 7.266m-1.336-3.973l1.336 3.973 2.38-3.453m-1.614-16.18l-.508 6.5m-1.578-3.883l1.578 3.883 2.16-3.59m-1.906-15.277v5.734m-1.875-3.75l1.875 3.75 1.875-3.75m-2.129-14.351l.508 4.968m-2.246-3.539l2.246 3.54 1.484-3.923m-2.25-13.417l1.024 4.207m-2.707-3.2l2.707 3.2.937-4.086m-2.215-12.489l1.532 3.446m-3.239-2.668l3.239 2.668.187-4.192m-1.973-11.62l2.04 2.679m-3.766-1.848l3.766 1.848-.782-4.121m-1.511-10.926l2.546 1.914m-4.125-.75l4.125.75-1.875-3.75m-.93-10.531l3.063 1.148m-4.172.438l4.172-.438-2.855-3.074m-.461-10.441l3.57.382m-3.93 1.465l3.93-1.465-3.527-2.265m-.297-10.485l4.078-.382m-3.559 2.214l3.56-2.214-3.907-1.516m-.43-10.469l4.594-1.148m-3.184 2.73l3.184-2.73-4.094-.91m-.754-10.309l5.102-1.914m-2.856 3.074l2.856-3.074-4.172-.438m-1.184-10.015l5.61-2.68m-2.578 3.309l2.578-3.309-4.192-.074m-1.672-9.613l6.118-3.446m-2.348 3.473l2.348-3.473-4.188.207m-2.187-9.129l6.632-4.21m-2.164 3.593l2.164-3.593-4.171.425m-2.715-8.586l7.14-4.968m-2.007 3.68l2.007-3.68-4.148.601m-3.246-8l7.648-5.734m-1.875 3.75l1.875-3.75-4.125.75m-3.777-7.383l8.156-6.504m-1.762 3.805l1.762-3.805-4.098.871m-4.316-6.734l8.672-7.266m-1.672 3.844l1.672-3.844-4.078.973m16.996 241.277l-.508 7.266m-1.61-3.871l1.61 3.87 2.133-3.609m-1.879-16.023v6.5m-1.875-3.75l1.875 3.75 1.875-3.75m-2.129-15.117l.508 5.734m-2.2-3.566l2.2 3.566 1.535-3.898m-2.3-14.203l1.023 4.968m-2.59-3.297l2.59 3.297 1.082-4.047m-2.36-13.292l1.532 4.207m-3.043-2.883l3.043 2.883.48-4.165m-2.266-12.41l2.04 3.446m-3.524-2.27l3.524 2.27-.297-4.184m-1.996-11.629l2.546 2.68m-3.941-1.426l3.941 1.426-1.226-4.012m-1.578-11.035l3.062 1.914m-4.176-.398l4.176.398-2.187-3.578m-1.13-10.703l3.571 1.148m-4.144.637l4.144-.637-2.996-2.933m-.828-10.582l4.078.382m-3.906 1.516l3.906-1.516-3.559-2.218m-.777-10.532l4.594-.382m-3.582 2.18l3.582-2.18-3.895-1.555m-.953-10.43l5.102-1.148m-3.246 2.652l3.246-2.652-4.07-1.004m-1.286-10.215l5.61-1.914m-2.946 2.984l2.946-2.984-4.157-.563m-1.707-9.89l6.118-2.68m-2.684 3.223l2.684-3.223-4.188-.215m-2.187-9.472l6.632-3.446m-2.464 3.395l2.464-3.395-4.195.067m-2.691-8.989l7.14-4.21m-2.28 3.52l2.28-3.52-4.183.289m-3.211-8.45l7.648-4.968m-2.12 3.613l2.12-3.613-4.164.468m-3.738-7.867l8.156-5.734m-1.988 3.687l1.988-3.687-4.144.62m-4.27-7.253l8.672-6.504m-1.875 3.75l1.875-3.75-4.125.75m-4.8-6.613l9.179-7.266m-1.777 3.797l1.777-3.797-4.106.856M344.5 254.492v7.266m-1.875-3.75l1.875 3.75 1.875-3.75m-2.129-15.883l.508 6.5m-2.16-3.59l2.16 3.59 1.578-3.883m-2.344-14.984l1.024 5.734m-2.504-3.363l2.504 3.363 1.187-4.02m-2.465-14.081l1.532 4.968m-2.895-3.03l2.895 3.03.687-4.132m-2.473-13.207l2.04 4.207m-3.325-2.555l3.325 2.555.05-4.192m-2.343-12.383l2.546 3.446m-3.738-1.899l3.738 1.899-.722-4.13m-2.082-11.683l3.062 2.68m-4.058-1.059l4.058 1.059-1.59-3.883m-1.726-11.164l3.57 1.914m-4.191-.117l4.191.117-2.422-3.426m-1.402-10.855l4.078 1.148m-4.117.79l4.117-.79-3.101-2.82m-1.235-10.695l4.594.382m-3.895 1.555l3.895-1.555-3.582-2.18m-1.266-10.57l5.102-.382m-3.602 2.152l3.602-2.152-3.88-1.59m-1.476-10.395l5.61-1.148m-3.297 2.59l3.297-2.59-4.051-1.086m-1.813-10.133l6.118-1.914m-3.02 2.91l3.02-2.91-4.137-.672m-2.238-9.781l6.632-2.68m-2.777 3.145l2.777-3.145-4.18-.332m-2.706-9.355l7.14-3.446m-2.562 3.32l2.562-3.32-4.191-.058m-3.203-8.864l7.648-4.21m-2.383 3.453l2.383-3.453-4.187.167m-3.715-8.328l8.156-4.968m-2.226 3.55l2.226-3.55-4.176.347m-4.238-7.746l8.672-5.734m-2.094 3.633l2.094-3.633-4.164.504m-4.762-7.137l9.18-6.504m-1.977 3.7l1.977-3.7-4.145.64m-5.289-6.503l9.688-7.266m-1.875 3.75l1.875-3.75-4.125.75" fill="none" stroke-width=".625" stroke-linecap="round" stroke="#00f" stroke-miterlimit="10"/><g clip-path="url(#v)"><path d="M-383.668 137H749.668" fill="none" stroke-width=".625" stroke-linecap="round" stroke="#000" stroke-miterlimit="10"/></g><g clip-path="url(#w)"><path d="M-383.668 562L749.668-288" fill="none" stroke-width=".625" stroke-linecap="round" stroke="#000" stroke-miterlimit="10"/></g><path d="M183 137h56.668m-9.793 4.375l9.793-4.375-9.793-5M183 137l56.668-42.5m-4.793 9.375l4.793-9.375-10.418 1.875" fill="none" stroke-width="1.875" stroke-linecap="round" stroke="red" stroke-miterlimit="10"/><g clip-path="url(#x)"><path d="M171.668 136.574l-.55-.043-.579-.05-.601-.055-.625-.059-.66-.066-.684-.074-.715-.082-.746-.09-.778-.102-.808-.11-.844-.12-.879-.133-.914-.149-.95-.164-.987-.183-1.028-.2-1.058-.222-1.102-.242-1.14-.27-1.18-.3-1.219-.333-1.258-.363-1.293-.402-1.332-.446-1.37-.496-1.403-.543-1.438-.601-1.465-.664-1.496-.735-1.515-.812-1.54-.899-1.55-.992-1.563-1.097-1.558-1.211-1.555-1.34-1.539-1.48-1.508-1.637-1.468-1.805-1.418-2-1.344-2.207-1.254-2.442-1.145-2.699-1.007-2.98-.844-3.293-.653-3.64-.425-4.024-.157-4.446.157-4.914.515-5.433.934-6 1.41-6.637 1.965-7.328 2.586-8.106 3.305-8.953 4.117-9.894 5.039-10.938 6.082-12.09 7.262-13.359 8.597-14.762" fill="none" stroke-width="1.25" stroke-linecap="round" stroke="red" stroke-miterlimit="10"/></g><g clip-path="url(#y)"><path d="M177.332 136.574l-.258-.043-.27-.05-.28-.055-.294-.059-.3-.066-.313-.074-.32-.082-.336-.09-.344-.102-.355-.11-.364-.12-.375-.133-.382-.149-.395-.164-.402-.183-.41-.2-.414-.222-.422-.242-.426-.27-.43-.3-.426-.333-.43-.363-.421-.402-.414-.446-.406-.496-.387-.543-.371-.601-.348-.664-.312-.735-.282-.812-.234-.899-.184-.992-.12-1.097-.048-1.211.036-1.34.132-1.48.25-1.637.38-1.805.527-2 .695-2.207.894-2.442 1.114-2.699 1.363-2.98 1.648-3.293 1.97-3.64 2.335-4.024 2.738-4.446 3.204-4.914 3.718-5.433 4.301-6 4.95-6.637 5.683-7.328 6.5-8.106 7.414-8.953 8.441-9.894 9.582-10.938 10.864-12.09 12.285-13.359 13.879-14.762" fill="none" stroke-width="1.25" stroke-linecap="round" stroke="red" stroke-miterlimit="10"/></g><g clip-path="url(#z)"><path d="M177.332 137.426l-.32.043-.34.05-.363.055-.383.059-.41.066-.434.074-.46.082-.493.09-.52.102-.558.11-.594.12-.633.133-.672.149-.718.164-.77.183-.82.2-.88.218-.937.246-1.004.27-1.074.3-1.152.329-1.234.367-1.32.402-1.423.446-1.523.492-1.64.547-1.762.601-1.895.664-2.04.735-2.198.812-2.371.899-2.555.992-2.758 1.097-2.976 1.211-3.215 1.34-3.48 1.48-3.762 1.637-4.075 1.805-4.41 2-4.781 2.207-5.188 2.442-5.628 2.699-6.11 2.976-6.637 3.297-7.214 3.64-7.844 4.024-8.54 4.446-9.292 4.914-10.125 5.433-11.031 6-12.032 6.633-13.125 7.332-14.324 8.102-15.637 8.957" fill="none" stroke-width="1.25" stroke-linecap="round" stroke="red" stroke-miterlimit="10"/></g><g clip-path="url(#A)"><path d="M182.434 137.426l-.063.043-.062.05-.075.055-.082.059-.086.066-.097.074-.11.082-.12.09-.134.102-.144.11-.164.12-.18.133-.195.149-.219.164-.242.183-.27.2-.293.218-.687.516-.398.3-.442.329-.484.367-.54.402-1.25.938-.726.547-.805.601-.886.664-.98.735-1.083.812-1.195.899-1.324.992-1.461 1.097-1.617 1.211-1.786 1.34-1.972 1.48-2.184 1.637-2.41 1.805-2.664 2-2.942 2.207-3.253 2.442-3.598 2.699-3.973 2.976-4.394 3.297-4.856 3.64-5.363 4.024-5.93 4.446-6.55 4.914-7.243 5.433-8.004 6-8.843 6.633-9.774 7.332-10.804 8.102-11.942 8.957-13.191 9.894-14.586 10.938-16.117 12.09-17.809 13.355-19.684 14.766" fill="none" stroke-width="1.25" stroke-linecap="round" stroke="red" stroke-miterlimit="10"/></g><g clip-path="url(#B)"><path d="M182.434 137h-206.29" fill="none" stroke-width="1.25" stroke-linecap="round" stroke="red" stroke-miterlimit="10"/></g><g clip-path="url(#C)"><path d="M185.832 136.574l.176-.043.187-.05.203-.055.215-.059.23-.066.25-.074.262-.082.286-.09.308-.102.328-.11.356-.12.379-.133.41-.149.441-.164.477-.183.512-.2.554-.222.598-.242.644-.27.7-.3.757-.333.817-.363.89-.402.961-.446 1.043-.496 1.13-.543 1.23-.601 1.336-.664 1.449-.735 1.578-.812 1.719-.899 1.87-.992 2.036-1.097 2.223-1.211 2.422-1.34 2.64-1.48 2.887-1.637 3.148-1.805 3.442-2 3.762-2.207 4.113-2.442 4.496-2.699 4.926-2.98 5.39-3.293 5.903-3.64 6.464-4.024 7.09-4.446 7.77-4.914 8.523-5.433 9.352-6 10.262-6.637 11.261-7.328 12.367-8.106 13.586-8.953 14.922-9.894 16.403-10.938 18.027-12.09" fill="none" stroke-width="1.25" stroke-linecap="round" stroke="red" stroke-miterlimit="10"/></g><g clip-path="url(#D)"><path d="M185.832 137.426l.117.043.117.05.122.055.12.059.122.066.129.074.125.082.128.09.125.102.13.11.124.12.122.133.12.149.114.164.11.183.105.2.09.218.082.246.07.27.05.3.036.329.012.367-.016.402-.043.446-.078.492-.117.547-.164.601-.215.664-.274.735-.34.812-.414.899-.504.992-.597 1.097-.707 1.211-.832 1.34-.973 1.48-1.125 1.637-1.3 1.805-1.5 2-1.72 2.207-1.964 2.442-2.242 2.699-2.551 2.976-2.895 3.297-3.285 3.64-3.707 4.024-4.191 4.446-4.727 4.914-5.316 5.433-5.985 6-6.722 6.633-7.543 7.332-8.453 8.102-9.473 8.957-10.602 9.894-11.855 10.938-13.25 12.09-14.8 13.355-16.517 14.766" fill="none" stroke-width="1.25" stroke-linecap="round" stroke="red" stroke-miterlimit="10"/></g><g clip-path="url(#E)"><path d="M188.668 137.426l.258.043.27.05.28.055.294.059.3.066.313.074.32.082.336.09.344.102.355.11.364.12.375.133.382.149.395.164.402.183.41.2.414.218.422.246.426.27.43.3.426.329.43.367.421.402.414.446.403.492.39.547.371.601.348.664.312.735.282.812.234.899.184.992.12 1.097.048 1.211-.036 1.34-.136 1.48-.246 1.637-.38 1.805-.527 2-.699 2.207-.89 2.442-1.114 2.699-1.363 2.976-1.648 3.297-1.973 3.64-2.332 4.024-2.738 4.446-3.204 4.914-3.718 5.433-4.301 6-4.95 6.633-5.683 7.332-6.5 8.102-7.414 8.957-8.441 9.894-9.582 10.938-10.864 12.09-12.285 13.355-13.879 14.766" fill="none" stroke-width="1.25" stroke-linecap="round" stroke="red" stroke-miterlimit="10"/></g><g clip-path="url(#F)"><path d="M194.332 137.426l.55.043.579.05.601.055.625.059.657.066.687.074.715.082.746.09.778.102.808.11.844.12.879.133.914.149.95.164.987.183 1.024.2 1.062.218 1.102.246 1.14.27 1.18.3 1.219.329 1.258.367 1.293.402 1.332.446 1.37.492 1.403.547 1.438.601 1.465.664 1.496.735 1.515.812 1.54.899 1.55.992 1.559 1.097 1.562 1.211 1.555 1.34 1.539 1.48 1.508 1.637 1.468 1.805 1.418 2 1.34 2.207 1.258 2.442 1.145 2.699 1.007 2.976.844 3.297.653 3.64.421 4.024.16 4.446-.156 4.914-.515 5.433-.934 6-1.41 6.633-1.965 7.332-2.586 8.102-3.305 8.957-4.117 9.894-5.039 10.938-6.082 12.09-7.265 13.355-8.594 14.766" fill="none" stroke-width="1.25" stroke-linecap="round" stroke="red" stroke-miterlimit="10"/></g><g clip-path="url(#G)"><path d="M188.668 132.75l.594-.445.66-.496.726-.547.805-.602.89-.668.981-.734 1.086-.817 1.2-.902 1.327-.992 1.465-1.102 1.621-1.215 1.79-1.34 1.98-1.484 2.187-1.64 2.415-1.813 5.625-4.219 3.261-2.445 3.606-2.703 3.984-2.988 4.402-3.305 4.868-3.648 5.379-4.036 5.945-4.457 6.57-4.93 7.258-5.445 8.023-6.015 8.872-6.653 9.8-7.347 10.828-8.125 11.973-8.977 13.227-9.922 14.62-10.968 16.16-12.118 17.856-13.394 19.739-14.801" fill="none" stroke-width="1.25" stroke-linecap="round" stroke="red" stroke-miterlimit="10"/></g><g clip-path="url(#H)"><path d="M188.668 137h201.723" fill="none" stroke-width="1.25" stroke-linecap="round" stroke="red" stroke-miterlimit="10"/></g></svg>