<svg xmlns="http://www.w3.org/2000/svg" xmlns:xlink="http://www.w3.org/1999/xlink" width="488" height="275pt" viewBox="0 0 366 275"><defs><clipPath id="n"><path d="M13 94h340v1H13zm0 0"/></clipPath><clipPath id="g"><path d="M239 9.5h1v255h-1zm0 0"/></clipPath><clipPath id="v"><path d="M13 136h340v2H13zm0 0"/></clipPath><clipPath id="p"><path d="M13 9.5h340v.5H13zm0 0"/></clipPath><clipPath id="o"><path d="M13 51h340v2H13zm0 0"/></clipPath><clipPath id="a"><path d="M182 9.5h2v255h-2zm0 0"/></clipPath><clipPath id="b"><path d="M13 136h340v2H13zm0 0"/></clipPath><clipPath id="c"><path d="M13 9.5h1v255h-1zm0 0"/></clipPath><clipPath id="d"><path d="M69 9.5h1v255h-1zm0 0"/></clipPath><clipPath id="e"><path d="M126 9.5h1v255h-1zm0 0"/></clipPath><clipPath id="f"><path d="M182 9.5h2v255h-2zm0 0"/></clipPath><clipPath id="w"><path d="M13 9.5h340v255H13zm0 0"/></clipPath><clipPath id="h"><path d="M296 9.5h1v255h-1zm0 0"/></clipPath><clipPath id="i"><path d="M352 9.5h1v255h-1zm0 0"/></clipPath><clipPath id="j"><path d="M13 264h340v.5H13zm0 0"/></clipPath><clipPath id="k"><path d="M13 221h340v2H13zm0 0"/></clipPath><clipPath id="l"><path d="M13 179h340v1H13zm0 0"/></clipPath><clipPath id="m"><path d="M13 136h340v2H13zm0 0"/></clipPath><symbol overflow="visible" id="r"><path d="M1.656-2.438h.36c.734 0 1.109.329 1.109.954 0 .671-.422 1.078-1.11 1.078-.718 0-1.078-.36-1.109-1.14H.234c.032.421.11.702.235.952.281.5.797.766 1.531.766 1.094 0 1.797-.656 1.797-1.656 0-.672-.266-1.047-.906-1.266.5-.203.75-.578.75-1.11 0-.906-.61-1.453-1.625-1.453-1.079 0-1.641.579-1.657 1.72h.657c0-.329.03-.516.109-.673.156-.296.484-.468.906-.468.578 0 .938.343.938.906 0 .375-.14.594-.438.719-.172.078-.406.109-.875.109zm0 0"/></symbol><symbol overflow="visible" id="u"><path d="M2.063-5.313c-.5 0-.938.22-1.22.579C.5-4.266.329-3.563.329-2.578c0 1.797.594 2.75 1.734 2.75 1.126 0 1.735-.953 1.735-2.703 0-1.031-.156-1.719-.516-2.203-.281-.375-.719-.579-1.219-.579zm0 .579c.718 0 1.062.718 1.062 2.14 0 1.516-.344 2.219-1.078 2.219C1.344-.375 1-1.109 1-2.563c0-1.453.344-2.171 1.063-2.171zm0 0"/></symbol><symbol overflow="visible" id="t"><path d="M1.938-3.781V0h.671v-5.313h-.437c-.235.813-.39.922-1.406 1.047v.485zm0 0"/></symbol><symbol overflow="visible" id="s"><path d="M3.797-.656H1c.063-.438.313-.703.953-1.094l.75-.406c.75-.406 1.125-.953 1.125-1.594 0-.453-.172-.86-.484-1.14-.328-.298-.719-.423-1.219-.423-.672 0-1.172.235-1.469.688-.187.281-.265.61-.281 1.156h.656c.032-.36.078-.578.157-.75.171-.328.515-.515.921-.515.594 0 1.047.421 1.047.984 0 .422-.25.781-.719 1.063l-.687.39C.64-1.672.312-1.172.25 0h3.547zm0 0"/></symbol><symbol overflow="visible" id="q"><path d="M2.125-2.344H.344v.547h1.781zm0 0"/></symbol></defs><g clip-path="url(#a)"><path d="M183 264.5V9.5" fill="none" stroke-width=".625" stroke-linecap="round" stroke="#bfbfbf" stroke-miterlimit="10"/></g><g clip-path="url(#b)"><path d="M13 137h340" fill="none" stroke-width=".625" stroke-linecap="round" stroke="#bfbfbf" stroke-miterlimit="10"/></g><g clip-path="url(#c)"><path d="M13 264.5V9.5" fill="none" stroke-width=".625" stroke-linecap="round" stroke="#bfbfbf" stroke-dasharray="12.5,18.75" stroke-miterlimit="10"/></g><g clip-path="url(#d)"><path d="M69.668 264.5V9.5" fill="none" stroke-width=".625" stroke-linecap="round" stroke="#bfbfbf" stroke-dasharray="12.5,18.75" stroke-miterlimit="10"/></g><g clip-path="url(#e)"><path d="M126.332 264.5V9.5" fill="none" stroke-width=".625" stroke-linecap="round" stroke="#bfbfbf" stroke-dasharray="12.5,18.75" stroke-miterlimit="10"/></g><g clip-path="url(#f)"><path d="M183 264.5V9.5" fill="none" stroke-width=".625" stroke-linecap="round" stroke="#bfbfbf" stroke-dasharray="12.5,18.75" stroke-miterlimit="10"/></g><g clip-path="url(#g)"><path d="M239.668 264.5V9.5" fill="none" stroke-width=".625" stroke-linecap="round" stroke="#bfbfbf" stroke-dasharray="12.5,18.75" stroke-miterlimit="10"/></g><g clip-path="url(#h)"><path d="M296.332 264.5V9.5" fill="none" stroke-width=".625" stroke-linecap="round" stroke="#bfbfbf" stroke-dasharray="12.5,18.75" stroke-miterlimit="10"/></g><g clip-path="url(#i)"><path d="M353 264.5V9.5" fill="none" stroke-width=".625" stroke-linecap="round" stroke="#bfbfbf" stroke-dasharray="12.5,18.75" stroke-miterlimit="10"/></g><g clip-path="url(#j)"><path d="M13 264.5h340" fill="none" stroke-width=".625" stroke-linecap="round" stroke="#bfbfbf" stroke-dasharray="12.5,18.75" stroke-miterlimit="10"/></g><g clip-path="url(#k)"><path d="M13 222h340" fill="none" stroke-width=".625" stroke-linecap="round" stroke="#bfbfbf" stroke-dasharray="12.5,18.75" stroke-miterlimit="10"/></g><g clip-path="url(#l)"><path d="M13 179.5h340" fill="none" stroke-width=".625" stroke-linecap="round" stroke="#bfbfbf" stroke-dasharray="12.5,18.75" stroke-miterlimit="10"/></g><g clip-path="url(#m)"><path d="M13 137h340" fill="none" stroke-width=".625" stroke-linecap="round" stroke="#bfbfbf" stroke-dasharray="12.5,18.75" stroke-miterlimit="10"/></g><g clip-path="url(#n)"><path d="M13 94.5h340" fill="none" stroke-width=".625" stroke-linecap="round" stroke="#bfbfbf" stroke-dasharray="12.5,18.75" stroke-miterlimit="10"/></g><g clip-path="url(#o)"><path d="M13 52h340" fill="none" stroke-width=".625" stroke-linecap="round" stroke="#bfbfbf" stroke-dasharray="12.5,18.75" stroke-miterlimit="10"/></g><g clip-path="url(#p)"><path d="M13 9.5h340" fill="none" stroke-width=".625" stroke-linecap="round" stroke="#bfbfbf" stroke-dasharray="12.5,18.75" stroke-miterlimit="10"/></g><path d="M13 264.5h340" fill="none" stroke-width="1.25" stroke-linecap="square" stroke="#000" stroke-miterlimit="10"/><path d="M13 264.5v-5m5.668 5V262m5.664 2.5V262M30 264.5V262m5.668 2.5V262m5.664 2.5V262M47 264.5V262m5.668 2.5V262m5.664 2.5V262M64 264.5V262m5.668 2.5v-5m5.664 5V262M81 264.5V262m5.668 2.5V262m5.664 2.5V262M98 264.5V262m5.668 2.5V262m5.664 2.5V262m5.668 2.5V262m5.668 2.5V262m5.664 2.5v-5m5.668 5V262m5.668 2.5V262m5.664 2.5V262m5.668 2.5V262m5.668 2.5V262m5.664 2.5V262m5.668 2.5V262m5.668 2.5V262m5.664 2.5V262m5.668 2.5v-5m5.668 5V262m5.664 2.5V262m5.668 2.5V262m5.668 2.5V262m5.664 2.5V262m5.668 2.5V262m5.668 2.5V262m5.664 2.5V262m5.668 2.5V262m5.668 2.5v-5m5.664 5V262m5.668 2.5V262m5.668 2.5V262m5.664 2.5V262m5.668 2.5V262m5.668 2.5V262m5.664 2.5V262m5.668 2.5V262m5.668 2.5V262m5.664 2.5v-5m5.668 5V262m5.668 2.5V262m5.664 2.5V262m5.668 2.5V262m5.668 2.5V262m5.664 2.5V262m5.668 2.5V262m5.668 2.5V262m5.664 2.5V262m5.668 2.5v-5" fill="none" stroke-width=".625" stroke="#000" stroke-miterlimit="10"/><use xlink:href="#q" x="9.042" y="274.5"/><use xlink:href="#r" x="11.539" y="274.5"/><use xlink:href="#q" x="65.917" y="274.5"/><use xlink:href="#s" x="68.414" y="274.5"/><use xlink:href="#q" x="122.792" y="274.5"/><use xlink:href="#t" x="125.289" y="274.5"/><use xlink:href="#u" x="180.915" y="274.5"/><use xlink:href="#t" x="237.165" y="274.5"/><use xlink:href="#s" x="294.04" y="274.5"/><use xlink:href="#r" x="350.915" y="274.5"/><path d="M13 9.5h340" fill="none" stroke-width="1.25" stroke-linecap="square" stroke="#000" stroke-miterlimit="10"/><path d="M13 9.5v5m5.668-5V12m5.664-2.5V12M30 9.5V12m5.668-2.5V12m5.664-2.5V12M47 9.5V12m5.668-2.5V12m5.664-2.5V12M64 9.5V12m5.668-2.5v5m5.664-5V12M81 9.5V12m5.668-2.5V12m5.664-2.5V12M98 9.5V12m5.668-2.5V12m5.664-2.5V12M115 9.5V12m5.668-2.5V12m5.664-2.5v5m5.668-5V12m5.668-2.5V12m5.664-2.5V12M149 9.5V12m5.668-2.5V12m5.664-2.5V12M166 9.5V12m5.668-2.5V12m5.664-2.5V12M183 9.5v5m5.668-5V12m5.664-2.5V12M200 9.5V12m5.668-2.5V12m5.664-2.5V12M217 9.5V12m5.668-2.5V12m5.664-2.5V12M234 9.5V12m5.668-2.5v5m5.664-5V12M251 9.5V12m5.668-2.5V12m5.664-2.5V12M268 9.5V12m5.668-2.5V12m5.664-2.5V12M285 9.5V12m5.668-2.5V12m5.664-2.5v5m5.668-5V12m5.668-2.5V12m5.664-2.5V12M319 9.5V12m5.668-2.5V12m5.664-2.5V12M336 9.5V12m5.668-2.5V12m5.664-2.5V12M353 9.5v5" fill="none" stroke-width=".625" stroke="#000" stroke-miterlimit="10"/><use xlink:href="#q" x="9.042" y="6.375"/><use xlink:href="#r" x="11.539" y="6.375"/><use xlink:href="#q" x="65.917" y="6.375"/><use xlink:href="#s" x="68.414" y="6.375"/><use xlink:href="#q" x="122.792" y="6.375"/><use xlink:href="#t" x="125.289" y="6.375"/><use xlink:href="#u" x="180.915" y="6.375"/><use xlink:href="#t" x="237.165" y="6.375"/><use xlink:href="#s" x="294.04" y="6.375"/><use xlink:href="#r" x="350.915" y="6.375"/><path d="M13 264.5V9.5" fill="none" stroke-width="1.25" stroke-linecap="square" stroke="#000" stroke-miterlimit="10"/><path d="M13 264.5h5m-5-4.25h2.5M13 256h2.5m-2.5-4.25h2.5M13 247.5h2.5m-2.5-4.25h2.5M13 239h2.5m-2.5-4.25h2.5M13 230.5h2.5m-2.5-4.25h2.5M13 222h5m-5-4.25h2.5M13 213.5h2.5m-2.5-4.25h2.5M13 205h2.5m-2.5-4.25h2.5M13 196.5h2.5m-2.5-4.25h2.5M13 188h2.5m-2.5-4.25h2.5M13 179.5h5m-5-4.25h2.5M13 171h2.5m-2.5-4.25h2.5M13 162.5h2.5m-2.5-4.25h2.5M13 154h2.5m-2.5-4.25h2.5M13 145.5h2.5m-2.5-4.25h2.5M13 137h5m-5-4.25h2.5M13 128.5h2.5m-2.5-4.25h2.5M13 120h2.5m-2.5-4.25h2.5M13 111.5h2.5m-2.5-4.25h2.5M13 103h2.5M13 98.75h2.5M13 94.5h5m-5-4.25h2.5M13 86h2.5M13 81.75h2.5M13 77.5h2.5M13 73.25h2.5M13 69h2.5M13 64.75h2.5M13 60.5h2.5M13 56.25h2.5M13 52h5m-5-4.25h2.5M13 43.5h2.5M13 39.25h2.5M13 35h2.5M13 30.75h2.5M13 26.5h2.5M13 22.25h2.5M13 18h2.5M13 13.75h2.5M13 9.5h5" fill="none" stroke-width=".625" stroke="#000" stroke-miterlimit="10"/><use xlink:href="#q" x="-.542" y="268.25"/><use xlink:href="#r" x="1.956" y="268.25"/><use xlink:href="#q" x="-.542" y="225.125"/><use xlink:href="#s" x="1.956" y="225.125"/><use xlink:href="#q" x="-.542" y="183.25"/><use xlink:href="#t" x="1.956" y="183.25"/><use xlink:href="#u" x="1.955" y="140.125"/><use xlink:href="#t" x="1.955" y="98.25"/><use xlink:href="#s" x="1.955" y="55.125"/><use xlink:href="#r" x="1.955" y="12.625"/><path d="M353 264.5V9.5" fill="none" stroke-width="1.25" stroke-linecap="square" stroke="#000" stroke-miterlimit="10"/><path d="M353 264.5h-5m5-4.25h-2.5M353 256h-2.5m2.5-4.25h-2.5m2.5-4.25h-2.5m2.5-4.25h-2.5M353 239h-2.5m2.5-4.25h-2.5m2.5-4.25h-2.5m2.5-4.25h-2.5M353 222h-5m5-4.25h-2.5m2.5-4.25h-2.5m2.5-4.25h-2.5M353 205h-2.5m2.5-4.25h-2.5m2.5-4.25h-2.5m2.5-4.25h-2.5M353 188h-2.5m2.5-4.25h-2.5m2.5-4.25h-5m5-4.25h-2.5M353 171h-2.5m2.5-4.25h-2.5m2.5-4.25h-2.5m2.5-4.25h-2.5M353 154h-2.5m2.5-4.25h-2.5m2.5-4.25h-2.5m2.5-4.25h-2.5M353 137h-5m5-4.25h-2.5m2.5-4.25h-2.5m2.5-4.25h-2.5M353 120h-2.5m2.5-4.25h-2.5m2.5-4.25h-2.5m2.5-4.25h-2.5M353 103h-2.5m2.5-4.25h-2.5m2.5-4.25h-5m5-4.25h-2.5M353 86h-2.5m2.5-4.25h-2.5m2.5-4.25h-2.5m2.5-4.25h-2.5M353 69h-2.5m2.5-4.25h-2.5m2.5-4.25h-2.5m2.5-4.25h-2.5M353 52h-5m5-4.25h-2.5m2.5-4.25h-2.5m2.5-4.25h-2.5M353 35h-2.5m2.5-4.25h-2.5m2.5-4.25h-2.5m2.5-4.25h-2.5M353 18h-2.5m2.5-4.25h-2.5M353 9.5h-5" fill="none" stroke-width=".625" stroke="#000" stroke-miterlimit="10"/><use xlink:href="#q" x="359.25" y="268.25"/><use xlink:href="#r" x="361.748" y="268.25"/><use xlink:href="#q" x="359.25" y="225.125"/><use xlink:href="#s" x="361.748" y="225.125"/><use xlink:href="#q" x="359.25" y="183.25"/><use xlink:href="#t" x="361.748" y="183.25"/><use xlink:href="#u" x="359.25" y="140.125"/><use xlink:href="#t" x="359.25" y="98.25"/><use xlink:href="#s" x="359.25" y="55.125"/><use xlink:href="#r" x="359.25" y="12.625"/><g clip-path="url(#v)"><path d="M-383.668 137H749.668" fill="none" stroke-width=".625" stroke-linecap="round" stroke="#000" stroke-miterlimit="10"/></g><g clip-path="url(#w)"><path d="M-383.668 562L749.668-288" fill="none" stroke-width=".625" stroke-linecap="round" stroke="#000" stroke-miterlimit="10"/></g><path d="M183 137h56.668m-9.793 4.375l9.793-4.375-9.793-5M183 137l56.668-42.5m-4.793 9.375l4.793-9.375-10.418 1.875" fill="none" stroke-width="1.875" stroke-linecap="round" stroke="red" stroke-miterlimit="10"/></svg>