<svg xmlns="http://www.w3.org/2000/svg" xmlns:xlink="http://www.w3.org/1999/xlink" width="488" height="275pt" viewBox="0 0 366 275"><defs><clipPath id="A"><path d="M13 119h188v79H13zm0 0"/></clipPath><clipPath id="k"><path d="M13 221h340v2H13zm0 0"/></clipPath><clipPath id="D"><path d="M146 9.5h112V155H146zm0 0"/></clipPath><clipPath id="C"><path d="M47 9.5h154V155H47zm0 0"/></clipPath><clipPath id="B"><path d="M13 34h188v121H13zm0 0"/></clipPath><clipPath id="a"><path d="M182 9.5h2v255h-2zm0 0"/></clipPath><clipPath id="b"><path d="M13 136h340v2H13zm0 0"/></clipPath><clipPath id="c"><path d="M13 9.5h1v255h-1zm0 0"/></clipPath><clipPath id="d"><path d="M69 9.5h1v255h-1zm0 0"/></clipPath><clipPath id="e"><path d="M126 9.5h1v255h-1zm0 0"/></clipPath><clipPath id="f"><path d="M182 9.5h2v255h-2zm0 0"/></clipPath><clipPath id="g"><path d="M239 9.5h1v255h-1zm0 0"/></clipPath><clipPath id="h"><path d="M296 9.5h1v255h-1zm0 0"/></clipPath><clipPath id="i"><path d="M352 9.5h1v255h-1zm0 0"/></clipPath><clipPath id="j"><path d="M13 264h340v.5H13zm0 0"/></clipPath><clipPath id="E"><path d="M165 34h188v121H165zm0 0"/></clipPath><clipPath id="l"><path d="M13 179h340v1H13zm0 0"/></clipPath><clipPath id="m"><path d="M13 136h340v2H13zm0 0"/></clipPath><clipPath id="n"><path d="M13 94h340v1H13zm0 0"/></clipPath><clipPath id="o"><path d="M13 51h340v2H13zm0 0"/></clipPath><clipPath id="p"><path d="M13 9.5h340v.5H13zm0 0"/></clipPath><clipPath id="v"><path d="M13 136h340v2H13zm0 0"/></clipPath><clipPath id="w"><path d="M13 9.5h340v255H13zm0 0"/></clipPath><clipPath id="x"><path d="M165 119h91v145.5h-91zm0 0"/></clipPath><clipPath id="y"><path d="M108 119h112v145.5H108zm0 0"/></clipPath><clipPath id="z"><path d="M13 119h188v145.5H13zm0 0"/></clipPath><symbol overflow="visible" id="r"><path d="M1.656-2.438h.36c.734 0 1.109.329 1.109.954 0 .671-.422 1.078-1.11 1.078-.718 0-1.078-.36-1.109-1.14H.234c.032.421.11.702.235.952.281.5.797.766 1.531.766 1.094 0 1.797-.656 1.797-1.656 0-.672-.266-1.047-.906-1.266.5-.203.75-.578.75-1.11 0-.906-.61-1.453-1.625-1.453-1.079 0-1.641.579-1.657 1.72h.657c0-.329.03-.516.109-.673.156-.296.484-.468.906-.468.578 0 .938.343.938.906 0 .375-.14.594-.438.719-.172.078-.406.109-.875.109zm0 0"/></symbol><symbol overflow="visible" id="u"><path d="M2.063-5.313c-.5 0-.938.22-1.22.579C.5-4.266.329-3.563.329-2.578c0 1.797.594 2.75 1.734 2.75 1.126 0 1.735-.953 1.735-2.703 0-1.031-.156-1.719-.516-2.203-.281-.375-.719-.579-1.219-.579zm0 .579c.718 0 1.062.718 1.062 2.14 0 1.516-.344 2.219-1.078 2.219C1.344-.375 1-1.109 1-2.563c0-1.453.344-2.171 1.063-2.171zm0 0"/></symbol><symbol overflow="visible" id="t"><path d="M1.938-3.781V0h.671v-5.313h-.437c-.235.813-.39.922-1.406 1.047v.485zm0 0"/></symbol><symbol overflow="visible" id="s"><path d="M3.797-.656H1c.063-.438.313-.703.953-1.094l.75-.406c.75-.406 1.125-.953 1.125-1.594 0-.453-.172-.86-.484-1.14-.328-.298-.719-.423-1.219-.423-.672 0-1.172.235-1.469.688-.187.281-.265.61-.281 1.156h.656c.032-.36.078-.578.157-.75.171-.328.515-.515.921-.515.594 0 1.047.421 1.047.984 0 .422-.25.781-.719 1.063l-.687.39C.64-1.672.312-1.172.25 0h3.547zm0 0"/></symbol><symbol overflow="visible" id="q"><path d="M2.125-2.344H.344v.547h1.781zm0 0"/></symbol></defs><g clip-path="url(#a)"><path d="M183 264.5V9.5" fill="none" stroke-width=".625" stroke-linecap="round" stroke="#bfbfbf" stroke-miterlimit="10"/></g><g clip-path="url(#b)"><path d="M13 137h340" fill="none" stroke-width=".625" stroke-linecap="round" stroke="#bfbfbf" stroke-miterlimit="10"/></g><g clip-path="url(#c)"><path d="M13 264.5V9.5" fill="none" stroke-width=".625" stroke-linecap="round" stroke="#bfbfbf" stroke-dasharray="12.5,18.75" stroke-miterlimit="10"/></g><g clip-path="url(#d)"><path d="M69.668 264.5V9.5" fill="none" stroke-width=".625" stroke-linecap="round" stroke="#bfbfbf" stroke-dasharray="12.5,18.75" stroke-miterlimit="10"/></g><g clip-path="url(#e)"><path d="M126.332 264.5V9.5" fill="none" stroke-width=".625" stroke-linecap="round" stroke="#bfbfbf" stroke-dasharray="12.5,18.75" stroke-miterlimit="10"/></g><g clip-path="url(#f)"><path d="M183 264.5V9.5" fill="none" stroke-width=".625" stroke-linecap="round" stroke="#bfbfbf" stroke-dasharray="12.5,18.75" stroke-miterlimit="10"/></g><g clip-path="url(#g)"><path d="M239.668 264.5V9.5" fill="none" stroke-width=".625" stroke-linecap="round" stroke="#bfbfbf" stroke-dasharray="12.5,18.75" stroke-miterlimit="10"/></g><g clip-path="url(#h)"><path d="M296.332 264.5V9.5" fill="none" stroke-width=".625" stroke-linecap="round" stroke="#bfbfbf" stroke-dasharray="12.5,18.75" stroke-miterlimit="10"/></g><g clip-path="url(#i)"><path d="M353 264.5V9.5" fill="none" stroke-width=".625" stroke-linecap="round" stroke="#bfbfbf" stroke-dasharray="12.5,18.75" stroke-miterlimit="10"/></g><g clip-path="url(#j)"><path d="M13 264.5h340" fill="none" stroke-width=".625" stroke-linecap="round" stroke="#bfbfbf" stroke-dasharray="12.5,18.75" stroke-miterlimit="10"/></g><g clip-path="url(#k)"><path d="M13 222h340" fill="none" stroke-width=".625" stroke-linecap="round" stroke="#bfbfbf" stroke-dasharray="12.5,18.75" stroke-miterlimit="10"/></g><g clip-path="url(#l)"><path d="M13 179.5h340" fill="none" stroke-width=".625" stroke-linecap="round" stroke="#bfbfbf" stroke-dasharray="12.5,18.75" stroke-miterlimit="10"/></g><g clip-path="url(#m)"><path d="M13 137h340" fill="none" stroke-width=".625" stroke-linecap="round" stroke="#bfbfbf" stroke-dasharray="12.5,18.75" stroke-miterlimit="10"/></g><g clip-path="url(#n)"><path d="M13 94.5h340" fill="none" stroke-width=".625" stroke-linecap="round" stroke="#bfbfbf" stroke-dasharray="12.5,18.75" stroke-miterlimit="10"/></g><g clip-path="url(#o)"><path d="M13 52h340" fill="none" stroke-width=".625" stroke-linecap="round" stroke="#bfbfbf" stroke-dasharray="12.5,18.75" stroke-miterlimit="10"/></g><g clip-path="url(#p)"><path d="M13 9.5h340" fill="none" stroke-width=".625" stroke-linecap="round" stroke="#bfbfbf" stroke-dasharray="12.5,18.75" stroke-miterlimit="10"/></g><path d="M13 264.5h340" fill="none" stroke-width="1.25" stroke-linecap="square" stroke="#000" stroke-miterlimit="10"/><path d="M13 264.5v-5m5.668 5V262m5.664 2.5V262M30 264.5V262m5.668 2.5V262m5.664 2.5V262M47 264.5V262m5.668 2.5V262m5.664 2.5V262M64 264.5V262m5.668 2.5v-5m5.664 5V262M81 264.5V262m5.668 2.5V262m5.664 2.5V262M98 264.5V262m5.668 2.5V262m5.664 2.5V262m5.668 2.5V262m5.668 2.5V262m5.664 2.5v-5m5.668 5V262m5.668 2.5V262m5.664 2.5V262m5.668 2.5V262m5.668 2.5V262m5.664 2.5V262m5.668 2.5V262m5.668 2.5V262m5.664 2.5V262m5.668 2.5v-5m5.668 5V262m5.664 2.5V262m5.668 2.5V262m5.668 2.5V262m5.664 2.5V262m5.668 2.5V262m5.668 2.5V262m5.664 2.5V262m5.668 2.5V262m5.668 2.5v-5m5.664 5V262m5.668 2.5V262m5.668 2.5V262m5.664 2.5V262m5.668 2.5V262m5.668 2.5V262m5.664 2.5V262m5.668 2.5V262m5.668 2.5V262m5.664 2.5v-5m5.668 5V262m5.668 2.5V262m5.664 2.5V262m5.668 2.5V262m5.668 2.5V262m5.664 2.5V262m5.668 2.5V262m5.668 2.5V262m5.664 2.5V262m5.668 2.5v-5" fill="none" stroke-width=".625" stroke="#000" stroke-miterlimit="10"/><use xlink:href="#q" x="9.042" y="274.5"/><use xlink:href="#r" x="11.539" y="274.5"/><use xlink:href="#q" x="65.917" y="274.5"/><use xlink:href="#s" x="68.414" y="274.5"/><use xlink:href="#q" x="122.792" y="274.5"/><use xlink:href="#t" x="125.289" y="274.5"/><use xlink:href="#u" x="180.915" y="274.5"/><use xlink:href="#t" x="237.165" y="274.5"/><use xlink:href="#s" x="294.04" y="274.5"/><use xlink:href="#r" x="350.915" y="274.5"/><path d="M13 9.5h340" fill="none" stroke-width="1.25" stroke-linecap="square" stroke="#000" stroke-miterlimit="10"/><path d="M13 9.5v5m5.668-5V12m5.664-2.5V12M30 9.5V12m5.668-2.5V12m5.664-2.5V12M47 9.5V12m5.668-2.5V12m5.664-2.5V12M64 9.5V12m5.668-2.5v5m5.664-5V12M81 9.5V12m5.668-2.5V12m5.664-2.5V12M98 9.5V12m5.668-2.5V12m5.664-2.5V12M115 9.5V12m5.668-2.5V12m5.664-2.5v5m5.668-5V12m5.668-2.5V12m5.664-2.5V12M149 9.5V12m5.668-2.5V12m5.664-2.5V12M166 9.5V12m5.668-2.5V12m5.664-2.5V12M183 9.5v5m5.668-5V12m5.664-2.5V12M200 9.5V12m5.668-2.5V12m5.664-2.5V12M217 9.5V12m5.668-2.5V12m5.664-2.5V12M234 9.5V12m5.668-2.5v5m5.664-5V12M251 9.5V12m5.668-2.5V12m5.664-2.5V12M268 9.5V12m5.668-2.5V12m5.664-2.5V12M285 9.5V12m5.668-2.5V12m5.664-2.5v5m5.668-5V12m5.668-2.5V12m5.664-2.5V12M319 9.5V12m5.668-2.5V12m5.664-2.5V12M336 9.5V12m5.668-2.5V12m5.664-2.5V12M353 9.5v5" fill="none" stroke-width=".625" stroke="#000" stroke-miterlimit="10"/><use xlink:href="#q" x="9.042" y="6.375"/><use xlink:href="#r" x="11.539" y="6.375"/><use xlink:href="#q" x="65.917" y="6.375"/><use xlink:href="#s" x="68.414" y="6.375"/><use xlink:href="#q" x="122.792" y="6.375"/><use xlink:href="#t" x="125.289" y="6.375"/><use xlink:href="#u" x="180.915" y="6.375"/><use xlink:href="#t" x="237.165" y="6.375"/><use xlink:href="#s" x="294.04" y="6.375"/><use xlink:href="#r" x="350.915" y="6.375"/><path d="M13 264.5V9.5" fill="none" stroke-width="1.25" stroke-linecap="square" stroke="#000" stroke-miterlimit="10"/><path d="M13 264.5h5m-5-4.25h2.5M13 256h2.5m-2.5-4.25h2.5M13 247.5h2.5m-2.5-4.25h2.5M13 239h2.5m-2.5-4.25h2.5M13 230.5h2.5m-2.5-4.25h2.5M13 222h5m-5-4.25h2.5M13 213.5h2.5m-2.5-4.25h2.5M13 205h2.5m-2.5-4.25h2.5M13 196.5h2.5m-2.5-4.25h2.5M13 188h2.5m-2.5-4.25h2.5M13 179.5h5m-5-4.25h2.5M13 171h2.5m-2.5-4.25h2.5M13 162.5h2.5m-2.5-4.25h2.5M13 154h2.5m-2.5-4.25h2.5M13 145.5h2.5m-2.5-4.25h2.5M13 137h5m-5-4.25h2.5M13 128.5h2.5m-2.5-4.25h2.5M13 120h2.5m-2.5-4.25h2.5M13 111.5h2.5m-2.5-4.25h2.5M13 103h2.5M13 98.75h2.5M13 94.5h5m-5-4.25h2.5M13 86h2.5M13 81.75h2.5M13 77.5h2.5M13 73.25h2.5M13 69h2.5M13 64.75h2.5M13 60.5h2.5M13 56.25h2.5M13 52h5m-5-4.25h2.5M13 43.5h2.5M13 39.25h2.5M13 35h2.5M13 30.75h2.5M13 26.5h2.5M13 22.25h2.5M13 18h2.5M13 13.75h2.5M13 9.5h5" fill="none" stroke-width=".625" stroke="#000" stroke-miterlimit="10"/><use xlink:href="#q" x="-.542" y="268.25"/><use xlink:href="#r" x="1.956" y="268.25"/><use xlink:href="#q" x="-.542" y="225.125"/><use xlink:href="#s" x="1.956" y="225.125"/><use xlink:href="#q" x="-.542" y="183.25"/><use xlink:href="#t" x="1.956" y="183.25"/><use xlink:href="#u" x="1.955" y="140.125"/><use xlink:href="#t" x="1.955" y="98.25"/><use xlink:href="#s" x="1.955" y="55.125"/><use xlink:href="#r" x="1.955" y="12.625"/><path d="M353 264.5V9.5" fill="none" stroke-width="1.25" stroke-linecap="square" stroke="#000" stroke-miterlimit="10"/><path d="M353 264.5h-5m5-4.25h-2.5M353 256h-2.5m2.5-4.25h-2.5m2.5-4.25h-2.5m2.5-4.25h-2.5M353 239h-2.5m2.5-4.25h-2.5m2.5-4.25h-2.5m2.5-4.25h-2.5M353 222h-5m5-4.25h-2.5m2.5-4.25h-2.5m2.5-4.25h-2.5M353 205h-2.5m2.5-4.25h-2.5m2.5-4.25h-2.5m2.5-4.25h-2.5M353 188h-2.5m2.5-4.25h-2.5m2.5-4.25h-5m5-4.25h-2.5M353 171h-2.5m2.5-4.25h-2.5m2.5-4.25h-2.5m2.5-4.25h-2.5M353 154h-2.5m2.5-4.25h-2.5m2.5-4.25h-2.5m2.5-4.25h-2.5M353 137h-5m5-4.25h-2.5m2.5-4.25h-2.5m2.5-4.25h-2.5M353 120h-2.5m2.5-4.25h-2.5m2.5-4.25h-2.5m2.5-4.25h-2.5M353 103h-2.5m2.5-4.25h-2.5m2.5-4.25h-5m5-4.25h-2.5M353 86h-2.5m2.5-4.25h-2.5m2.5-4.25h-2.5m2.5-4.25h-2.5M353 69h-2.5m2.5-4.25h-2.5m2.5-4.25h-2.5m2.5-4.25h-2.5M353 52h-5m5-4.25h-2.5m2.5-4.25h-2.5m2.5-4.25h-2.5M353 35h-2.5m2.5-4.25h-2.5m2.5-4.25h-2.5m2.5-4.25h-2.5M353 18h-2.5m2.5-4.25h-2.5M353 9.5h-5" fill="none" stroke-width=".625" stroke="#000" stroke-miterlimit="10"/><use xlink:href="#q" x="359.25" y="268.25"/><use xlink:href="#r" x="361.748" y="268.25"/><use xlink:href="#q" x="359.25" y="225.125"/><use xlink:href="#s" x="361.748" y="225.125"/><use xlink:href="#q" x="359.25" y="183.25"/><use xlink:href="#t" x="361.748" y="183.25"/><use xlink:href="#u" x="359.25" y="140.125"/><use xlink:href="#t" x="359.25" y="98.25"/><use xlink:href="#s" x="359.25" y="55.125"/><use xlink:href="#r" x="359.25" y="12.625"/><path d="M16.656 261.758l9.688-7.266m-1.875 3.75l1.875-3.75-4.125.75m-5.309-6.617l9.18-6.5m-1.977 3.695l1.977-3.695-4.145.637m-4.78-7.27l8.67-5.734m-2.093 3.633l2.094-3.633-4.164.504m-4.254-7.903l8.16-4.968m-2.226 3.55l2.226-3.55-4.176.347m-3.726-8.511l7.648-4.207m-2.383 3.453l2.383-3.453-4.187.164m-3.207-9.086l7.14-3.446m-2.562 3.32l2.562-3.32-4.191-.058m-2.695-9.63l6.632-2.679m-2.777 3.145l2.777-3.145-4.18-.332m-2.195-10.121l6.118-1.914m-3.02 2.91l3.02-2.91-4.137-.672M18.695 156.7l5.61-1.148m-3.297 2.59l3.297-2.59-4.051-1.086m-1.305-10.899l5.102-.382m-3.602 2.152l3.602-2.152-3.883-1.59m-.965-11.16l4.59.382m-3.89 1.555l3.89-1.555-3.578-2.18m-.754-11.335l4.078 1.148m-4.117.79l4.117-.79-3.102-2.82m-.722-11.461l3.57 1.914m-4.191-.117l4.191.117-2.422-3.426m-.894-11.62l3.062 2.679m-4.058-1.059l4.058 1.059-1.59-3.883m-1.214-11.93l2.546 3.446m-3.738-1.899l3.738 1.899-.722-4.13M20.48 64.77l2.039 4.21m-3.325-2.558l3.325 2.558.05-4.195m-1.836-13.144l1.532 4.968m-2.895-3.03l2.895 3.03.687-4.132m-1.965-13.97l1.024 5.735m-2.504-3.363l2.504 3.363 1.187-4.02m-1.953-14.85l.508 6.503m-2.16-3.59l2.16 3.59 1.578-3.883M21.5 12.242v7.266m-1.875-3.75l1.875 3.75 1.875-3.75m10.535 246l9.18-7.266m-1.778 3.797l1.778-3.797-4.106.856m-4.82-6.723l8.672-6.5m-1.875 3.75l1.875-3.75-4.125.75m-4.293-7.383l8.16-5.734m-1.988 3.687l1.988-3.687-4.144.62m-3.758-8.019l7.648-4.968m-2.12 3.613l2.12-3.613-4.164.468m-3.23-8.632l7.14-4.207m-2.28 3.52l2.28-3.52-4.183.289m-2.703-9.211l6.632-3.446m-2.464 3.395l2.464-3.395-4.195.067m-2.18-9.754l6.118-2.68m-2.684 3.223l2.684-3.223-4.188-.215m-1.676-10.238l5.61-1.914m-2.946 2.984l2.946-2.984-4.153-.563M35.95 156.7l5.102-1.148m-3.25 2.652l3.25-2.652-4.07-1.004m-.778-10.98l4.59-.383m-3.578 2.18l3.578-2.18-3.89-1.555m-.442-11.195l4.078.382m-3.906 1.516l3.906-1.516-3.559-2.218m-.265-11.297l3.57 1.148m-4.144.637l4.144-.637-2.996-2.933m-.32-11.348l3.062 1.914m-4.176-.398l4.176.398-2.187-3.578m-.617-11.469l2.546 2.68m-3.941-1.426l3.941 1.426-1.226-4.012m-1.067-11.8l2.04 3.445m-3.524-2.274l3.524 2.274-.297-4.184m-1.49-12.395l1.532 4.21m-3.043-2.886l3.043 2.886.48-4.167M37.988 51.64l1.024 4.968m-2.594-3.296l2.594 3.296 1.082-4.046m-1.848-14.055l.508 5.734m-2.2-3.566l2.2 3.566 1.535-3.898M38.5 25.37v6.504m-1.875-3.75l1.875 3.75 1.875-3.75m-1.621-15.883l-.508 7.266m-1.61-3.871l1.61 3.87 2.133-3.609m10.785 245.86l8.672-7.266m-1.672 3.844l1.672-3.844-4.078.973m-4.34-6.84l8.16-6.5m-1.762 3.8l1.762-3.8-4.101.867m-3.801-7.5l7.648-5.734m-1.875 3.75l1.875-3.75-4.125.75m-3.27-8.149l7.141-4.968m-2.008 3.68l2.008-3.68-4.148.601m-2.738-8.765l6.632-4.207m-2.164 3.593l2.164-3.593-4.171.43m-2.204-9.352l6.118-3.446m-2.348 3.473l2.348-3.473-4.188.207m-1.676-9.894l5.61-2.68m-2.578 3.309l2.578-3.309-4.192-.074m-1.164-10.379l5.102-1.914m-2.856 3.074l2.856-3.074-4.172-.438m-.676-10.78l4.59-1.15m-3.18 2.731l3.18-2.73-4.09-.91m-.242-11.075l4.078-.382m-3.559 2.214l3.56-2.214-3.907-1.516m.082-11.234l3.57.382m-3.93 1.465l3.93-1.465-3.527-2.265m.21-11.25l3.063 1.148m-4.172.438l4.172-.438-2.855-3.074m.047-11.207l2.55 1.914m-4.125-.75l4.125.75-1.875-3.75m-.418-11.297l2.04 2.68m-3.766-1.848l3.766 1.848-.782-4.121m-1.004-11.692l1.532 3.446m-3.239-2.668l3.239 2.668.191-4.192M54.988 64.77l1.024 4.21m-2.707-3.203l2.707 3.203.937-4.09m-1.703-13.25l.508 4.97m-2.246-3.54l2.246 3.54 1.484-3.922M55.5 38.508v5.734m-1.875-3.75l1.875 3.75 1.875-3.75m-1.621-15.12l-.508 6.503m-1.578-3.883l1.578 3.883 2.16-3.59m-1.394-16.043l-1.024 7.266m-1.332-3.973l1.332 3.973 2.38-3.453m11.05 245.703l8.16-7.266m-1.55 3.895l1.55-3.895-4.047 1.094m-3.855-6.961l7.648-6.5m-1.644 3.855l1.644-3.855-4.07 1m-3.324-7.633l7.14-5.734m-1.75 3.808l1.75-3.808-4.097.887m-2.79-8.286l6.633-4.968m-1.875 3.75l1.875-3.75-4.125.75m-2.25-8.914l6.118-4.207m-2.028 3.671l2.028-3.671-4.153.582m-1.71-9.504l5.609-3.446m-2.215 3.563l2.215-3.563-4.176.364m-1.18-10.051l5.102-2.68m-2.45 3.402l2.45-3.402-4.192.082m-.656-10.535l4.59-1.914m-2.738 3.176l2.738-3.176-4.18-.29m-.152-10.929l4.078-1.148m-3.102 2.82l3.102-2.82-4.117-.79m.293-11.195l3.57-.382m-3.527 2.261l3.527-2.261-3.93-1.465m.614-11.285l3.062.382m-3.953 1.395l3.953-1.395-3.492-2.328m.688-11.187l2.546 1.148m-4.187.172l4.187-.172-2.648-3.25m.355-11.031l2.04 1.914m-4.02-1.2l4.02 1.2-1.454-3.934m-.332-11.113l1.532 2.68m-3.489-2.328l3.489 2.328-.235-4.188m-1.043-11.625l1.024 3.446m-2.864-3.067l2.864 3.067.73-4.13M72.246 64.77l.508 4.21m-2.313-3.5l2.313 3.5 1.41-3.949M72.5 51.641v4.968m-1.875-3.75l1.875 3.75 1.875-3.75m-1.621-14.351l-.508 5.734m-1.535-3.898l1.535 3.898 2.2-3.566M73.011 25.37l-1.024 6.504m-1.27-3.992l1.27 3.992 2.434-3.414m-1.156-16.219l-1.532 7.266m-1.062-4.055l1.062 4.055 2.61-3.281m11.332 245.53l7.648-7.265m-1.426 3.942l1.426-3.942-4.008 1.223m-3.386-7.09l7.14-6.5m-1.511 3.91l1.511-3.91-4.035 1.137m-2.851-7.77l6.632-5.734m-1.609 3.87l1.61-3.87-4.063 1.035m-2.313-8.434l6.118-4.968m-1.727 3.816l1.727-3.816-4.09.906m-1.774-9.07l5.61-4.207m-1.875 3.75l1.875-3.75-4.125.75m-1.23-9.672l5.1-3.446m-2.062 3.653l2.063-3.653-4.16.547m-.688-10.234l4.59-2.68m-2.293 3.512l2.293-3.512-4.184.27m-.148-10.723l4.078-1.914m-2.598 3.289l2.598-3.289-4.191-.106m.367-11.113l3.57-1.148m-2.996 2.933l2.996-2.933-4.144-.637m.828-11.348l3.062-.382m-3.492 2.324l3.492-2.324-3.953-1.395m1.149-11.355l2.546.382m-3.984 1.297l3.984-1.297-3.43-2.41m1.137-11.105l2.04 1.148m-4.188-.207l4.188.207-2.348-3.472m.562-10.809l1.532 1.914m-3.809-1.758l3.809 1.758-.88-4.102m-.398-10.945l1.024 2.68m-3.09-2.836l3.09 2.836.414-4.172m-1.18-11.64l.508 3.445m-2.402-3.438l2.402 3.438 1.305-3.985M89.5 64.77v4.21m-1.875-3.75l1.875 3.75 1.875-3.75m-1.621-13.59l-.508 4.97m-1.484-3.923l1.484 3.922 2.246-3.539m-1.48-14.562l-1.024 5.734m-1.187-4.02l1.187 4.02 2.504-3.363M90.266 25.37l-1.532 6.504m-.964-4.078l.964 4.078 2.684-3.219m-.898-16.414l-2.04 7.266m-.792-4.117l.792 4.117 2.817-3.102m11.633 245.352l7.14-7.266m-1.293 3.988l1.293-3.988-3.965 1.36m-2.921-7.227l6.632-6.5m-1.367 3.965l1.367-3.965-3.992 1.285m-2.383-7.918l6.118-5.734m-1.454 3.93l1.454-3.93-4.016 1.195m-1.848-8.594l5.61-4.968m-1.563 3.89l1.563-3.89-4.051 1.082m-1.305-9.246l5.102-4.207m-1.7 3.832l1.7-3.832-4.086.94m-.762-9.862l4.594-3.446m-1.875 3.75l1.875-3.75-4.125.75m-.211-10.437l4.078-2.68m-2.105 3.625l2.105-3.625-4.164.492m.34-10.945l3.57-1.914m-2.422 3.426l2.422-3.426-4.191.117m.875-11.336l3.062-1.148m-2.855 3.07l2.855-3.07-4.172-.438m1.368-11.547l2.546-.382m-3.43 2.41l3.43-2.41-3.984-1.297m1.691-11.453l2.04.382m-4.032 1.153l4.032-1.153-3.34-2.535m1.554-10.98l1.532 1.148m-4.125-.75l4.125.75-1.875-3.75m.597-10.531l1.024 1.914m-3.422-2.426l3.422 2.426-.114-4.191m-.652-10.856l.508 2.68m-2.543-3.336l2.543 3.336 1.14-4.035M106.5 77.902v3.446m-1.875-3.75l1.875 3.75 1.875-3.75m-1.621-12.828l-.508 4.21m-1.41-3.949l1.41 3.95 2.313-3.5m-1.547-13.84l-1.024 4.968m-1.082-4.047l1.082 4.047 2.59-3.297m-1.312-14.804l-1.532 5.734m-.843-4.105l.843 4.105 2.778-3.14m-.992-15.73l-2.04 6.503m-.667-4.137l.667 4.137 2.91-3.016m-.617-16.617l-2.546 7.266m-.532-4.16l.532 4.16 3.007-2.918m11.95 245.168l6.632-7.266m-1.144 4.031l1.144-4.03-3.914 1.503m-2.46-7.371l6.117-6.5m-1.204 4.016l1.204-4.016-3.934 1.445m-1.93-8.078l5.61-5.734m-1.282 3.988l1.282-3.988-3.961 1.367m-1.395-8.766l5.102-4.968m-1.38 3.957l1.38-3.957-3.996 1.273m-.852-9.437l4.594-4.207m-1.5 3.917l1.5-3.917-4.031 1.152m-.305-10.074l4.078-3.446m-1.656 3.852l1.656-3.852-4.074.989m.25-10.676l3.57-2.68m-1.875 3.75l1.875-3.75-4.125.75m.809-11.203l3.062-1.914m-2.187 3.578l2.187-3.578-4.176.398m1.372-11.617l2.546-1.148m-2.648 3.25l2.648-3.25-4.187-.172m1.894-11.813l2.04-.382m-3.34 2.535l3.34-2.535-4.032-1.153m2.246-11.597l1.532.382m-4.094.91l4.094-.91-3.184-2.726m1.906-10.79l1.024 1.15m-3.895-1.56l3.895 1.56-1.09-4.052m.324-10.23l.508 1.914m-2.777-3.14l2.777 3.14.848-4.105M123.5 91.035v2.68m-1.875-3.75l1.875 3.75 1.875-3.75m-1.621-12.063l-.508 3.446m-1.305-3.985l1.305 3.985 2.402-3.438m-1.636-13.14l-1.024 4.21m-.937-4.09l.937 4.09 2.707-3.203m-1.43-14.136l-1.53 4.968m-.688-4.132l.687 4.132 2.895-3.03m-1.11-15.071l-2.039 5.734m-.511-4.16l.511 4.16 3.024-2.902m-.73-15.969l-2.547 6.504m-.38-4.176l.38 4.176 3.113-2.805m-.309-16.828l-3.062 7.266m-.274-4.184l.274 4.184 3.183-2.727m12.29 244.977l6.117-7.266m-.98 4.074l.98-4.074-3.848 1.66m-2.016-7.527l5.61-6.5m-1.032 4.062l1.032-4.062-3.867 1.613m-1.489-8.246l5.102-5.734m-1.09 4.047l1.09-4.047-3.895 1.554m-.953-8.953l4.594-4.968m-1.168 4.023l1.168-4.023-3.926 1.48m-.41-9.644l4.078-4.207m-1.266 4l1.266-4-3.957 1.386m.133-10.308l3.57-3.446m-1.398 3.953l1.398-3.953-4 1.254m.684-10.941l3.062-2.68m-1.59 3.883l1.59-3.883-4.058 1.059m1.254-11.512l2.546-1.914m-1.875 3.75l1.875-3.75-4.125.75m1.832-11.969l2.04-1.148m-2.348 3.472l2.348-3.472-4.188.203m2.402-12.188l1.532-.382m-3.184 2.726l3.184-2.726-4.094-.91m2.816-11.84l1.024.382m-4.172.438l4.172-.438-2.856-3.074m2.09-10.441l.508 1.148m-3.234-2.664l3.234 2.664.191-4.187m-.445-10.094v1.914m-1.875-3.75l1.875 3.75 1.875-3.75m-1.621-11.297l-.508 2.68m-1.14-4.035l1.14 4.035 2.543-3.336m-1.777-12.477l-1.024 3.446m-.73-4.13l.73 4.13 2.864-3.067m-1.586-13.511l-1.532 4.21m-.48-4.168l.48 4.168 3.043-2.886M141.52 51.64l-2.04 4.968m-.312-4.18l.312 4.18 3.157-2.754m-.864-15.347l-2.546 5.734m-.192-4.187l.192 4.187 3.234-2.664m-.43-16.207l-3.062 6.504m-.098-4.191l.098 4.191 3.293-2.594m.023-17.039l-3.57 7.266m-.028-4.192l.028 4.192 3.336-2.54m12.644 244.79l5.61-7.266m-.809 4.113l.809-4.113-3.778 1.82m-1.578-7.687l5.102-6.5m-.84 4.105l.84-4.105-3.79 1.793m-1.058-8.426l4.594-5.734m-.883 4.097l.883-4.097-3.809 1.754m-.527-9.153l4.078-4.968m-.93 4.086l.93-4.086-3.828 1.707m.004-9.871l3.57-4.207m-.996 4.074l.996-4.074-3.855 1.648m.539-10.57l3.062-3.446m-1.09 4.051l1.09-4.05-3.894 1.558m1.09-11.246l2.546-2.68m-1.226 4.008l1.226-4.008-3.941 1.422m1.648-11.875l2.04-1.914m-1.454 3.934l1.454-3.934-4.016 1.2m2.23-12.419l1.532-1.148m-1.875 3.75l1.875-3.75-4.125.75m2.847-12.735l1.024-.382m-2.856 3.074l2.856-3.074-4.172-.438m3.406-12.312l.508.382m-4.125-.75l4.125.75-1.875-3.75m1.621-9.765v1.148m-1.875-3.75l1.875 3.75 1.875-3.75m-1.621-10.531l-.508 1.914m-.848-4.105l.848 4.105 2.777-3.14m-2.011-11.907l-1.024 2.68m-.414-4.172l.414 4.172 3.09-2.836m-1.812-12.977l-1.532 3.446m-.191-4.192l.191 4.192 3.239-2.668m-1.453-13.91l-2.04 4.21m-.05-4.195l.05 4.195 3.325-2.558m-1.032-14.781l-2.546 4.968m.039-4.191l-.04 4.191 3.38-2.48m-.575-15.621l-3.062 5.734m.11-4.191l-.11 4.191 3.422-2.426m-.106-16.445l-3.57 6.504m.16-4.188l-.16 4.188 3.45-2.383m.374-17.25l-4.078 7.266m.2-4.188l-.2 4.188 3.469-2.352m13.02 244.602l5.1-7.266m-.62 4.145l.62-4.145-3.69 1.992m-1.157-7.859l4.594-6.5m-.633 4.145l.633-4.145-3.695 1.98m-.641-8.613l4.078-5.734m-.644 4.14l.644-4.14-3.7 1.969m-.124-9.368l3.57-4.968m-.664 4.136l.664-4.136-3.71 1.949m.394-10.113l3.062-4.207m-.691 4.136l.691-4.136-3.722 1.933m.918-10.855l2.546-3.446m-.722 4.13l.722-4.13-3.738 1.899m1.445-11.586l2.04-2.68m-.782 4.121l.782-4.12-3.766 1.847m1.98-12.301l1.532-1.914m-.88 4.102l.88-4.102-3.809 1.758m2.531-12.977l1.024-1.148m-1.09 4.05l1.09-4.05-3.895 1.558m3.13-13.543l.507-.382m-1.875 3.75l1.875-3.75-4.125.75m3.871-13.5v.382m-1.875-3.75l1.875 3.75 1.875-3.75m-1.621-9.765l-.508 1.148m-.191-4.187l.191 4.187 3.234-2.664m-2.468-11.617l-1.024 1.914m.114-4.191l-.114 4.191 3.422-2.426m-2.144-12.62l-1.532 2.679m.235-4.188l-.235 4.188 3.489-2.328m-1.703-13.485l-2.04 3.446m.297-4.184l-.297 4.184 3.524-2.274m-1.23-14.304l-2.547 4.21m.34-4.18l-.34 4.18 3.546-2.238m-.742-15.101l-3.062 4.968m.37-4.175l-.37 4.175 3.562-2.21m-.246-15.891l-3.57 5.734m.39-4.172l-.39 4.172 3.574-2.191m.25-16.68l-4.078 6.504m.402-4.172l-.402 4.172 3.578-2.18m.758-17.453l-4.594 7.266m.418-4.172l-.418 4.172 3.59-2.168m13.41 244.418l4.594-7.266m-.418 4.172l.418-4.172-3.59 2.168m-.746-8.035l4.078-6.5m-.402 4.172l.402-4.172-3.578 2.18m-.246-8.813l3.57-5.734m-.39 4.172l.39-4.172-3.574 2.191m.258-9.59l3.062-4.968m-.37 4.175l.37-4.175-3.562 2.21m.758-10.374l2.546-4.207m-.34 4.18l.34-4.18-3.546 2.238m1.253-11.16l2.04-3.446m-.297 4.184l.297-4.184-3.524 2.27m1.738-11.957l1.532-2.68m-.235 4.188l.235-4.188-3.489 2.328m2.211-12.781l1.024-1.914m-.114 4.191l.114-4.191-3.422 2.426m2.656-13.645l.508-1.148m.191 4.187l-.191-4.187-3.234 2.664m2.98-14.649v-.382m1.875 3.75l-1.875-3.75-1.875 3.75m2.129-16.5l-.508.382m1.875-3.75l-1.875 3.75 4.125-.75m-3.36-12.765l-1.023 1.148m1.09-4.05l-1.09 4.05 3.895-1.558m-2.617-12.723l-1.532 1.914m.88-4.102l-.88 4.102 3.809-1.758m-2.023-13.289l-2.04 2.68m.782-4.121l-.782 4.12 3.762-1.847m-1.469-13.965l-2.546 3.446m.722-4.13l-.722 4.13 3.738-1.899m-.934-14.68l-3.062 4.211m.691-4.136l-.691 4.136 3.722-1.933m-.406-15.406l-3.57 4.968m.664-4.136l-.664 4.136 3.71-1.949m.114-16.152l-4.078 5.734m.644-4.14l-.644 4.14 3.7-1.969m.636-16.902l-4.594 6.504m.633-4.145l-.633 4.145 3.695-1.98m1.153-17.653l-5.102 7.266m.621-4.145l-.62 4.145 3.69-1.992m13.82 244.242l4.08-7.266m-.2 4.188l.2-4.188-3.47 2.352m-.355-8.219l3.57-6.5m-.164 4.187l.164-4.187-3.45 2.383m.134-9.016l3.062-5.734m-.11 4.191l.11-4.191-3.422 2.426m.618-9.825l2.546-4.968m-.043 4.191l.043-4.191-3.378 2.48m1.085-10.644l2.04-4.207m.05 4.195l-.05-4.195-3.325 2.558m1.54-11.48l1.53-3.446m.188 4.192l-.187-4.192-3.239 2.668m1.961-12.355l1.024-2.68m.414 4.172l-.414-4.172-3.09 2.836m2.324-13.289l.508-1.914m.848 4.105l-.848-4.105-2.777 3.14M208.5 156.7v-1.148m1.875 3.75l-1.875-3.75-1.875 3.75m2.129-15.735l-.508-.382m4.125.75l-4.125-.75 1.875 3.75m-1.11-16.5l-1.023.382m2.856-3.074l-2.856 3.074 4.172.438m-2.894-13.953l-1.532 1.148m1.875-3.75l-1.875 3.75 4.125-.75m-2.34-13.531l-2.039 1.914m1.454-3.934l-1.454 3.934 4.016-1.2m-1.723-13.847l-2.546 2.68m1.226-4.012l-1.226 4.012 3.941-1.426m-1.137-14.387l-3.062 3.446m1.09-4.051l-1.09 4.05 3.894-1.558m-.578-15.02l-3.57 4.211m.996-4.074l-.996 4.074 3.855-1.648m-.03-15.691l-4.08 4.968m.93-4.086l-.93 4.086 3.83-1.707m.507-16.394l-4.594 5.734m.883-4.097l-.883 4.097 3.809-1.754m1.039-17.117l-5.102 6.504m.84-4.105l-.84 4.105 3.79-1.793m1.566-17.84l-5.61 7.266m.809-4.113l-.809 4.113 3.774-1.82m14.246 244.07l3.57-7.266m.027 4.192l-.027-4.192-3.336 2.54m.02-8.407l3.062-6.5m.098 4.191l-.098-4.191-3.293 2.594m.489-9.227l2.546-5.734m.192 4.187l-.192-4.187-3.234 2.664m.941-10.063l2.04-4.968m.312 4.18l-.312-4.18-3.157 2.754m1.371-10.918l1.532-4.207m.48 4.167l-.48-4.167-3.043 2.886m1.765-11.808l1.024-3.446m.73 4.13l-.73-4.13-2.867 3.067m2.101-12.754l.508-2.68m1.14 4.035l-1.14-4.035-2.543 3.332m2.289-13.785v-1.914m1.875 3.75l-1.875-3.75-1.875 3.75m2.129-14.969l-.508-1.148m3.234 2.664l-3.234-2.664-.191 4.187m.957-16.172l-1.024-.382m4.172-.438l-4.172.438 2.856 3.074m-1.578-15.824l-1.532.382m3.184-2.726l-3.184 2.726 4.094.91m-2.308-14.425l-2.04 1.148m2.348-3.472l-2.348 3.472 4.188-.207m-1.895-14.074l-2.546 1.914m1.875-3.75l-1.875 3.75 4.125-.75m-1.32-14.297l-3.063 2.68m1.59-3.883l-1.59 3.883 4.058-1.059m-.742-14.754l-3.57 3.446m1.398-3.953l-1.398 3.953 4-1.254m-.176-15.324l-4.078 4.21m1.262-4l-1.262 4 3.957-1.386m.379-15.953l-4.594 4.968m1.168-4.023l-1.168 4.023 3.922-1.48m.926-16.621l-5.102 5.734m1.09-4.047l-1.09 4.047 3.895-1.555m1.46-17.316l-5.609 6.504m1.032-4.063l-1.032 4.063 3.867-1.613m1.997-18.02l-6.118 7.266m.98-4.074l-.98 4.074 3.848-1.66m14.68 243.91l3.062-7.266m.274 4.184l-.274-4.184-3.183 2.727m.379-8.594l2.546-6.5m.38 4.176l-.38-4.176-3.113 2.805m.82-9.438l2.04-5.734m.511 4.16l-.511-4.16-3.024 2.902m1.238-10.3l1.532-4.97m.687 4.133l-.687-4.132-2.895 3.03m1.617-11.194l1.024-4.207m.937 4.085l-.937-4.085-2.707 3.203m1.941-12.125l.508-3.446m1.305 3.985l-1.305-3.985-2.402 3.438m2.148-13.125v-2.68m1.875 3.75l-1.875-3.75-1.875 3.75m2.129-14.203l-.508-1.914m2.777 3.14l-2.777-3.14-.848 4.105m1.614-15.324l-1.024-1.148m3.895 1.558l-3.895-1.558 1.09 4.05m.188-16.035l-1.532-.382m4.094-.91l-4.094.91 3.184 2.726m-1.398-15.476l-2.04.382m3.34-2.535l-3.34 2.535 4.032 1.153m-1.739-14.668l-2.546 1.148m2.648-3.25l-2.648 3.25 4.187.172m-1.383-14.453l-3.062 1.914m2.187-3.578l-2.187 3.578 4.176-.398m-.86-14.649l-3.57 2.68m1.875-3.75l-1.875 3.75 4.125-.75m-.3-15.063l-4.08 3.446m1.657-3.852l-1.656 3.852 4.074-.989m.262-15.59l-4.594 4.211m1.5-3.918l-1.5 3.918 4.031-1.152m.817-16.187l-5.102 4.968m1.375-3.96l-1.375 3.96 3.996-1.273m1.36-16.828l-5.61 5.734m1.282-3.988l-1.282 3.988 3.961-1.37m1.903-17.5l-6.118 6.503m1.204-4.016l-1.204 4.016 3.934-1.445m2.441-18.188l-6.632 7.266m1.144-4.031l-1.144 4.03 3.914-1.503m15.129 243.754l2.546-7.266m.528 4.16l-.528-4.16-3.007 2.918m.714-8.785l2.04-6.5m.667 4.137l-.667-4.137-2.91 3.016m1.124-9.649l1.532-5.734m.843 4.105l-.843-4.105-2.778 3.137m1.5-10.536l1.024-4.968m1.082 4.046l-1.082-4.046-2.59 3.293m1.824-11.457l.508-4.207m1.41 3.949l-1.41-3.95-2.313 3.5m2.059-12.421v-3.446m1.875 3.75l-1.875-3.75-1.875 3.75m2.129-13.437l-.508-2.68m2.543 3.332l-2.543-3.332-1.14 4.035m1.906-14.488l-1.024-1.914m3.422 2.426l-3.422-2.426.114 4.191m1.164-15.41l-1.532-1.148m4.125.75l-4.125-.75 1.875 3.75m-.09-15.735l-2.039-.382m4.032-1.153l-4.032 1.153 3.34 2.535m-1.047-15.285l-2.546.382m3.43-2.41l-3.43 2.41 3.984 1.297m-1.18-14.812l-3.062 1.148m2.855-3.074l-2.855 3.074 4.172.438m-.856-14.719l-3.57 1.914m2.422-3.426l-2.422 3.426 4.191-.117m-.367-14.93l-4.078 2.68m2.105-3.625l-2.105 3.625 4.16-.492m.176-15.32l-4.594 3.445m1.875-3.75l-1.875 3.75 4.125-.75m.723-15.828l-5.102 4.21m1.7-3.835l-1.7 3.835 4.086-.94m1.27-16.4l-5.61 4.97m1.563-3.891l-1.563 3.89 4.051-1.082m1.813-17.02l-6.118 5.735m1.454-3.93l-1.454 3.93 4.016-1.195m2.36-17.676l-6.633 6.504m1.367-3.965l-1.367 3.965 3.992-1.285m2.894-18.348l-7.14 7.266m1.289-3.988l-1.29 3.988 3.966-1.36m15.585 243.61l2.04-7.266m.792 4.117l-.792-4.117-2.82 3.102m1.034-8.969l1.532-6.5m.964 4.078l-.964-4.078-2.684 3.219m1.406-9.852l1.024-5.734m1.187 4.02l-1.187-4.02-2.504 3.363m1.738-10.762l.508-4.968m1.484 3.918l-1.484-3.918-2.246 3.539m1.992-11.703v-4.207m1.875 3.75l-1.875-3.75-1.875 3.75m2.129-12.672l-.508-3.446m2.402 3.438l-2.402-3.438-1.305 3.985m2.07-13.672l-1.023-2.68m3.09 2.836l-3.09-2.836-.414 4.172m1.692-14.625l-1.532-1.914m3.809 1.758l-3.809-1.758.88 4.102m.906-15.32l-2.04-1.15m4.188.204l-4.188-.203 2.348 3.472m-.055-15.457l-2.546-.382m3.984-1.297l-3.984 1.297 3.43 2.41m-.626-15.16l-3.062.382m3.492-2.328l-3.492 2.328 3.953 1.395m-.637-14.91l-3.57 1.148m2.996-2.933l-2.996 2.933 4.144.637m-.32-14.918l-4.078 1.914m2.598-3.289l-2.598 3.289 4.191.105m.145-15.152l-4.594 2.68m2.297-3.512l-2.297 3.512 4.188-.274m.66-15.539l-5.102 3.446m2.059-3.653l-2.059 3.653 4.156-.547m1.2-16.031l-5.61 4.21m1.875-3.75l-1.875 3.75 4.125-.75m1.739-16.59l-6.118 4.97m1.727-3.82l-1.727 3.82 4.09-.907m2.285-17.195l-6.632 5.734m1.609-3.87l-1.61 3.87 4.063-1.035m2.824-17.836l-7.14 6.504m1.511-3.91l-1.511 3.91 4.035-1.137m3.36-18.496l-7.65 7.266m1.427-3.942l-1.426 3.942 4.008-1.223m16.05 243.473l1.532-7.266m1.062 4.055l-1.062-4.055-2.61 3.281m1.332-9.148l1.024-6.5m1.27 3.992l-1.27-3.992-2.438 3.414m1.672-10.047l.508-5.734m1.535 3.898l-1.535-3.898-2.2 3.566m1.946-10.965v-4.968m1.875 3.75l-1.875-3.75-1.875 3.75m2.129-11.914l-.508-4.207m2.313 3.5l-2.313-3.5-1.41 3.949m2.176-12.871l-1.024-3.446m2.864 3.067l-2.864-3.067-.73 4.13m2.008-13.817l-1.532-2.68m3.489 2.328l-3.489-2.328.235 4.188m1.55-14.641l-2.039-1.914m4.016 1.2l-4.016-1.2 1.454 3.934m.84-15.153l-2.547-1.148m4.187-.172l-4.187.172 2.648 3.25m.156-15.235l-3.062-.382m3.953-1.395l-3.953 1.395 3.492 2.324m-.176-15.074l-3.57.382m3.527-2.265l-3.527 2.265 3.93 1.465m-.106-14.98l-4.078 1.148m3.101-2.82l-3.101 2.82 4.117.79m.219-15.071l-4.594 1.914m2.742-3.176l-2.742 3.176 4.184.29m.664-15.337l-5.102 2.68m2.45-3.403l-2.45 3.403 4.192-.086m1.164-15.727l-5.61 3.446m2.215-3.563l-2.215 3.563 4.176-.364m1.688-16.214l-6.118 4.21m2.028-3.671l-2.028 3.671 4.153-.582m2.222-16.757l-6.632 4.968m1.875-3.75l-1.875 3.75 4.125-.75m2.761-17.351l-7.14 5.734m1.75-3.808l-1.75 3.808 4.097-.887m3.297-17.984l-7.648 6.504m1.64-3.855l-1.64 3.855 4.07-1m3.832-18.633l-8.156 7.266m1.55-3.895l-1.55 3.895 4.047-1.094m16.52 243.344l1.023-7.266m1.332 3.973l-1.332-3.973-2.38 3.453m1.614-9.32l.508-6.5m1.578 3.883l-1.578-3.883-2.16 3.59m1.906-10.223v-5.734m1.875 3.75l-1.875-3.75-1.875 3.75m2.129-11.149l-.508-4.968m2.246 3.539l-2.246-3.54-1.484 3.919m2.25-12.082l-1.024-4.207m2.707 3.203l-2.707-3.203-.937 4.085m2.215-13.007l-1.532-3.446m3.239 2.668l-3.239-2.668-.191 4.192m1.977-13.88l-2.04-2.679m3.762 1.848l-3.762-1.848.782 4.121m1.511-14.574l-2.546-1.914m4.125.75l-4.125-.75 1.875 3.75m.93-14.969l-3.063-1.148m4.172-.438l-4.172.438 2.855 3.07m.461-15.055l-3.57-.382m3.93-1.465l-3.93 1.465 3.527 2.261m.297-15.011l-4.078.382m3.559-2.218l-3.56 2.218 3.907 1.516m.43-15.031l-4.594 1.148m3.184-2.73l-3.184 2.73 4.094.91m.754-15.191l-5.102 1.914m2.856-3.074l-2.856 3.074 4.168.438m1.188-15.485l-5.61 2.68m2.578-3.309l-2.578 3.309 4.192.074m1.672-15.887l-6.118 3.446m2.348-3.477l-2.348 3.477 4.188-.207m2.187-16.371l-6.632 4.21m2.164-3.593l-2.164 3.593 4.171-.43m2.715-16.91l-7.14 4.97m2.007-3.68l-2.007 3.68 4.148-.602m3.246-17.5l-7.648 5.734m1.875-3.75l-1.875 3.75 4.125-.75m3.777-18.12l-8.156 6.503m1.762-3.8l-1.762 3.8 4.098-.871m4.316-18.762l-8.672 7.266m1.672-3.848l-1.672 3.848 4.078-.973m17.004 243.223l.508-7.266m1.61 3.871l-1.61-3.87-2.133 3.609m1.879-9.477v-6.5m1.875 3.75l-1.875-3.75-1.875 3.75m2.129-10.383l-.508-5.734m2.2 3.566l-2.2-3.566-1.535 3.898m2.3-11.297l-1.023-4.968m2.59 3.293l-2.59-3.293-1.082 4.046m2.36-12.21l-1.532-4.207m3.043 2.886l-3.043-2.886-.48 4.167m2.266-13.09l-2.04-3.445m3.524 2.27l-3.524-2.27.297 4.184m1.996-13.871l-2.546-2.68m3.941 1.422l-3.941-1.422 1.226 4.008m1.578-14.461l-3.062-1.914m4.176.398l-4.176-.398 2.187 3.578m1.13-14.797l-3.571-1.148m4.144-.637l-4.144.637 2.996 2.933m.828-14.918l-4.078-.382m3.906-1.516l-3.906 1.516 3.559 2.214m.777-14.964l-4.594.382m3.582-2.18l-3.582 2.18 3.895 1.555m.953-15.07l-5.102 1.148m3.246-2.652l-3.246 2.652 4.07 1.004m1.286-15.285l-5.61 1.914m2.946-2.984l-2.946 2.984 4.153.563m1.71-15.61l-6.117 2.68m2.68-3.223l-2.68 3.223 4.188.215m2.187-16.028l-6.632 3.446m2.464-3.395l-2.464 3.395 4.195-.067m2.691-16.511l-7.14 4.21m2.28-3.52l-2.28 3.52 4.183-.289m3.211-17.05l-7.648 4.968m2.12-3.613l-2.12 3.613 4.164-.468m3.738-17.633l-8.156 5.734m1.988-3.687l-1.988 3.687 4.144-.62m4.27-18.25l-8.672 6.503m1.875-3.75l-1.875 3.75 4.125-.75m4.8-18.883l-9.179 7.266m1.777-3.797l-1.777 3.797 4.106-.856M344.5 261.758v-7.266m1.875 3.75l-1.875-3.75-1.875 3.75m2.129-9.617l-.508-6.5m2.16 3.59l-2.16-3.59-1.578 3.883m2.344-10.516l-1.024-5.734m2.504 3.363l-2.504-3.363-1.187 4.02m2.465-11.419l-1.532-4.968m2.895 3.03l-2.895-3.03-.687 4.132m2.473-12.296l-2.04-4.207m3.325 2.558l-3.325-2.558-.05 4.195m2.343-13.117l-2.546-3.446m3.738 1.899l-3.738-1.899.722 4.13m2.082-13.817l-3.062-2.68m4.058 1.059l-4.058-1.059 1.59 3.883m1.726-14.336l-3.57-1.914m4.191.117l-4.191-.117 2.422 3.426m1.402-14.645l-4.078-1.148m4.117-.79l-4.117.79 3.101 2.82m1.235-14.805l-4.594-.382m3.895-1.555l-3.895 1.555 3.582 2.18m1.266-14.93l-5.102.382m3.602-2.152l-3.602 2.152 3.88 1.59m1.476-15.105l-5.61 1.148m3.297-2.59l-3.297 2.59 4.047 1.086m1.817-15.367l-6.118 1.914m3.02-2.91l-3.02 2.91 4.137.672m2.238-15.719l-6.632 2.68m2.777-3.145l-2.777 3.145 4.18.332m2.706-16.145l-7.14 3.446m2.562-3.32l-2.562 3.32 4.191.058m3.203-16.636l-7.648 4.21m2.383-3.453l-2.383 3.453 4.187-.168m3.715-17.171l-8.156 4.968m2.223-3.55l-2.223 3.55 4.176-.347m4.238-17.754l-8.672 5.734m2.094-3.633l-2.094 3.633 4.164-.504m4.762-18.367l-9.18 6.504m1.977-3.695l-1.977 3.695 4.145-.637m5.289-18.996l-9.688 7.266m1.875-3.75l-1.875 3.75 4.125-.75" fill="none" stroke-width=".625" stroke-linecap="round" stroke="#00f" stroke-miterlimit="10"/><g clip-path="url(#v)"><path d="M-383.668 137H749.668" fill="none" stroke-width=".625" stroke-linecap="round" stroke="#000" stroke-miterlimit="10"/></g><g clip-path="url(#w)"><path d="M-383.668 562L749.668-288" fill="none" stroke-width=".625" stroke-linecap="round" stroke="#000" stroke-miterlimit="10"/></g><path d="M183 137h56.668M183 137l56.668-42.5M211.332 137h28.336m-19.168-5l-9.168 5 9.168 4.375m-9.168-25.625l28.336-21.25M215.5 105.75l-4.168 10 9.793-1.875" fill="none" stroke-width="1.875" stroke-linecap="round" stroke="red" stroke-miterlimit="10"/><g clip-path="url(#x)"><path d="M205.668 264.5l4.203-7.426 3.8-6.992 3.419-6.586 3.062-6.203 2.739-5.84 2.433-5.5 2.149-5.18 1.89-4.878 1.649-4.594 1.422-4.328 1.214-4.075 1.024-3.84.844-3.613.683-3.402.535-3.207.395-3.016.266-2.843.152-2.68.043-2.52-.055-2.375-.144-2.238-.223-2.105-.3-1.985-.364-1.867-.426-1.758-.48-1.656-.532-1.563-.574-1.468-.613-1.383-.649-1.305-.675-1.226-.707-1.157-.73-1.086-.747-1.027-.766-.965-.78-.91-.794-.855-.8-.809-.81-.758-.812-.715-.82-.671-.816-.637-.82-.598-.817-.562-.813-.528-.812-.5-.805-.468-.8-.446-.793-.414-.786-.394-.78-.371-.767-.348-.761-.328-.75-.309-.739-.289-.726-.273-.719-.258-.707-.242-.691-.23-.684-.216-.672-.203-.66-.191-.644-.18-.633-.172-.625-.16-.61-.148-.597-.14-.582-.134-.575-.125-.562-.12-.547-.11-.539-.106-.523-.097-.512-.094-.504-.09-.488-.078-.48-.078-.47-.074-.457-.07-.445-.063-.433-.063-.426-.058-.414-.055-.403-.05-.394-.048-.387-.047-.375-.043-.363-.039-.356-.039-.347-.035-.336-.031-.332-.031-.32-.032-.313-.027-.305-.027-.297-.024-.285-.023-.281-.024-.273-.02-.266-.019-.262-.02-.25-.015-.246-.015-.238-.02-.235-.012-.222-.015-.223-.012-.21-.012-.208-.011-.203-.012-.195-.008-.192-.012-.187-.007-.18-.008-.176-.008-.172-.008-.328-.016-.156-.003-.152-.008-.149-.004-.144-.004-.14-.008-.267-.008-.128-.004-.125-.004-.122-.003-.234-.008h-.11l-.109-.004-.101-.004-.106-.004h-.097l-.094-.004h-.098l-.09-.004h-.085l-.086-.004h-.086l-.078-.004h-.157l-.074-.003h-.14l-.07-.004h-.25l-.06-.004h-.265l-.05-.004h-.306l-.039-.004h-.593l-.024-.004h-.652" fill="none" stroke-width="1.25" stroke-linecap="round" stroke="red" stroke-miterlimit="10"/></g><g clip-path="url(#y)"><path d="M126.332 264.5l6.55-7.426 6.075-6.992 5.625-6.586 5.207-6.203 4.816-5.84 4.454-5.5 4.109-5.18 3.789-4.878 3.492-4.594 3.211-4.328 2.953-4.075 2.707-3.84 2.485-3.613 2.27-3.402 2.073-3.207 1.887-3.016 1.719-2.843 1.558-2.68 1.41-2.52 1.274-2.375 1.145-2.238 1.023-2.105.914-1.985.809-1.867.715-1.758.628-1.656.543-1.563.47-1.468.398-1.383.336-1.305.277-1.226.219-1.157.168-1.086.12-1.027.083-.965.039-.91.004-.855-.028-.809-.058-.758-.086-.715-.113-.671-.133-.637-.153-.598-.171-.562-.192-.528-.2-.5-.218-.468-.226-.446-.239-.414-.246-.394-.254-.371-.261-.348-.266-.328-.273-.309-.274-.289-.277-.273-.281-.258-.282-.242-.285-.23-.281-.216-.285-.203-.282-.191-.28-.18-.282-.172-.277-.16-.278-.148-.273-.14-.27-.134-.27-.125-.265-.12-.262-.11-.257-.106-.254-.097-.25-.094-.246-.09-.246-.078-.239-.078-.234-.074-.23-.07-.227-.063-.223-.063-.219-.058-.214-.055-.207-.05-.207-.048-.2-.047-.199-.043-.383-.078-.183-.035-.18-.031-.176-.031-.172-.032-.168-.027-.164-.027-.164-.024-.156-.023-.152-.024-.149-.02-.289-.038-.273-.031-.133-.02-.129-.012-.125-.015-.121-.012-.234-.023-.114-.012-.11-.008-.109-.012-.101-.007-.106-.008-.195-.016-.094-.008-.09-.008-.09-.003-.085-.008-.164-.008-.082-.008-.078-.004-.149-.008-.14-.007-.133-.008h-.063l-.062-.004-.118-.008h-.058l-.055-.004h-.054l-.051-.004h-.051l-.05-.004h-.048l-.047-.004h-.09l-.042-.003h-.082l-.04-.004h-.144l-.035-.004h-.156l-.028-.004h-.18l-.023-.004h-.348l-.007-.004h-.387" fill="none" stroke-width="1.25" stroke-linecap="round" stroke="red" stroke-miterlimit="10"/></g><g clip-path="url(#z)"><path d="M13 264.5l9.898-7.426 9.325-6.992 8.78-6.586 8.27-6.203 7.786-5.84 7.336-5.5 6.906-5.18 6.504-4.878 6.129-4.594 5.77-4.328 5.433-4.075 5.117-3.84 4.816-3.613 4.54-3.402 4.273-3.207 4.023-3.016 3.793-2.843 3.57-2.68 3.36-2.52 3.168-2.375 2.98-2.238 2.809-2.105 2.644-1.985 2.493-1.867 2.343-1.758 2.211-1.656 2.078-1.563 1.961-1.468 1.844-1.383 1.738-1.305 1.637-1.226 1.543-1.157 1.45-1.086 1.367-1.027 1.289-.965 1.21-.91 2.22-1.664 1.011-.758.953-.715.899-.671.843-.637 1.547-1.16.707-.528.668-.5.625-.468.59-.446.555-.414.523-.394.492-.371.465-.348.438-.328.414-.309.386-.289.364-.273.343-.258.325-.242.304-.23.29-.216.269-.203.254-.191.242-.18.227-.172.21-.16.2-.148.191-.14.176-.134.168-.125.156-.12.149-.11.14-.106.133-.097.125-.094.113-.09.114-.078.101-.078.098-.074.094-.07.086-.063.082-.063.074-.058.074-.055.066-.05.067-.048.058-.047.055-.043.055-.039.05-.039.047-.035.047-.031.043-.031.04-.032.07-.054.035-.024.031-.023.027-.024.055-.039.024-.02.046-.03.02-.02.02-.012.019-.015.063-.047.011-.008.016-.012.012-.007.007-.008.024-.016.015-.016.008-.003.008-.008.016-.008.011-.012.008-.004.004-.004.008-.004.012-.011h.004l.011-.012h.004v-.004h.004l.004-.004h.004v-.004h.004v-.004h.004l.004-.003h.004v-.004h.003v-.004h.008v-.004h.004v-.004h.004V137H183" fill="none" stroke-width="1.25" stroke-linecap="round" stroke="red" stroke-miterlimit="10"/></g><g clip-path="url(#A)"><path d="M13 179.5l6.648-2.477 6.36-2.328 6.082-2.199 5.816-2.062 5.567-1.95 5.328-1.832 5.101-1.726 4.883-1.63 4.676-1.53 4.48-1.442 4.293-1.36 4.114-1.277 3.941-1.207 3.781-1.132 3.625-1.07 3.477-1.005 3.34-.949 3.199-.89 3.074-.84 2.95-.793 2.831-.746 2.72-.703 2.612-.66 2.512-.622 2.41-.586 2.32-.554 2.227-.52 2.145-.488 2.058-.461 1.985-.438 1.906-.406 1.836-.387 1.766-.363 1.703-.34 1.636-.324 1.575-.3 1.52-.29 1.46-.265 1.41-.254 1.356-.239 1.308-.222 1.262-.215 1.215-.2 1.172-.187 1.132-.176 1.09-.164 1.051-.16 1.016-.144.976-.14.946-.13.91-.125.883-.113.847-.113.82-.102.794-.098.765-.09.738-.085.715-.082.688-.075.668-.074.644-.066.621-.063.602-.062.582-.055.562-.055.54-.05.527-.047.508-.043.492-.043.473-.04.46-.034.446-.036.43-.035.417-.031.403-.027.39-.028.375-.027.368-.023.351-.024.344-.02.328-.023.32-.02.313-.015.3-.02.29-.015.28-.016.274-.012.262-.015.258-.012.25-.012.238-.011.235-.008.222-.012.219-.008.21-.011.208-.008.39-.016.184-.004.184-.008.172-.007.171-.004.165-.004.16-.008.152-.004.297-.008.273-.008.133-.003.13-.004.124-.004.117-.004h.117l.114-.004.11-.004h.108l.102-.004h.102l.093-.004h.094l.094-.004h.086l.086-.004h.164l.078-.003h.148l.075-.004h.261l.063-.004h.226l.055-.004h.324l.043-.004h.653l.02-.004h.667" fill="none" stroke-width="1.25" stroke-linecap="round" stroke="red" stroke-miterlimit="10"/></g><g clip-path="url(#B)"><path d="M13 52l1.773 4.95 1.91 4.663 2.036 4.39 2.136 4.134 2.239 3.894 2.316 3.664 2.39 3.457 2.45 3.25 2.504 3.063 2.547 2.887 2.582 2.714 2.605 2.559 2.633 2.41 2.645 2.27 2.652 2.136 2.656 2.012 2.653 1.895 2.648 1.785 2.64 1.683 2.626 1.582 2.605 1.493 2.59 1.402 2.562 1.324 2.54 1.242 2.511 1.176 2.485 1.102 2.453 1.043 2.418.976 2.382.922 2.352.871 2.313.82 2.277.77 2.238.727 2.2.68 2.163.644 2.122.605 2.082.575 2.043.535 2.003.507 1.961.477 1.926.45 1.883.421 1.844.399 1.804.375 1.766.355 1.727.332 1.691.313 1.648.296 1.614.278 1.578.262 1.539.246 1.504.23 1.469.219 1.433.207 1.399.191 1.363.184 1.332.172 1.3.164 1.266.152 1.235.14 1.203.138 1.176.128 1.14.118 1.117.113 1.086.105 1.055.102 1.031.094 1.004.09.977.082.953.082.926.074.902.066.879.07.851.06.833.058.808.054.79.051.765.05.746.048.726.043.704.039.687.039.668.035.649.035.628.031.614.032.597.027.582.027.563.028.547.023.535.024.516.02.503.019.493.02.472.015.465.015.45.016.437.016.422.015.414.012.398.012.39.012.38.011.367.012.355.008.348.008.336.011.328.004.317.012.308.004.3.008.294.007.281.004.274.008.265.004.262.004.25.004.246.008.238.004.23.003.223.004.22.004h.21l.203.004.2.004h.195l.187.004.36.008h.172l.164.004h.32l.152.004h.149l.144.004h.14l.134.003h.382l.122.004h.343l.106.004h.492l.086.004h.695l.07.004h1.243l.027.004h.906" fill="none" stroke-width="1.25" stroke-linecap="round" stroke="red" stroke-miterlimit="10"/></g><g clip-path="url(#C)"><path d="M69.668 9.5l-1.527 7.426-1.2 6.992-.894 6.586-.613 6.2-.364 5.843-.125 5.5.086 5.18.285 4.878.461 4.594.621 4.328.77 4.075.906 3.835 1.024 3.618 1.129 3.402 1.23 3.203 1.313 3.02 1.39 2.843 1.457 2.68 1.52 2.52 1.57 2.375 1.613 2.238 1.653 2.105 1.683 1.98 1.707 1.872 1.73 1.758 1.747 1.656 1.758 1.563 1.77 1.468 1.769 1.383 1.77 1.305 1.769 1.226 1.762 1.157 1.753 1.086 1.747 1.027 1.73.965 1.719.91 1.703.855 1.683.809 1.665.758 1.648.715 1.621.671 1.602.637 1.578.598 1.554.562 1.532.528 1.507.5 1.48.468 1.454.446 1.43.414 1.398.394 1.375.368 1.352.351 1.32.328 1.297.309 1.27.289 1.242.273 1.218.258 1.192.242 1.164.23 1.14.216 1.11.203 1.09.191 1.062.18 1.04.168 1.015.16.992.152.969.14.941.134.922.125.899.12.878.11.856.106.832.097.812.094.793.09.774.078.754.078.734.074.715.07.695.063.676.063.664.058.64.051.63.055.61.047.593.047.578.043.562.039.547.039.532.035.515.031.504.031.492.032.477.027.465.027.449.024.441.023.426.024.414.02.406.019.391.02.383.015.37.015.36.016.352.016.34.011.332.016.32.012.313.011.304.008.293.012.29.012.277.007.273.008.262.008.258.008.246.008.242.004.234.007.23.008.22.004.214.004.211.008.203.004.196.004.191.004.188.004.18.003.175.004h.172l.164.004.16.004.156.004.153.004h.144l.145.004h.14l.133.004h.13l.128.004h.242l.117.004h.114l.11.003h.308l.097.004h.278l.086.004h.394l.074.004h.563l.055.004h1.003l.024.004h.734" fill="none" stroke-width="1.25" stroke-linecap="round" stroke="red" stroke-miterlimit="10"/></g><g clip-path="url(#D)"><path d="M239.668 9.5l-6.55 7.426-6.075 6.992-5.625 6.586-5.207 6.2-4.82 5.843-4.45 5.5-4.109 5.18-3.789 4.878-3.492 4.594-3.211 4.328-2.953 4.075-2.707 3.835-2.485 3.618-2.27 3.402-2.073 3.203-1.887 3.02-1.719 2.843-1.558 2.68-1.41 2.52-1.274 2.375-1.145 2.238-1.023 2.105-.914 1.98-.809 1.872-.715 1.758-.628 1.656-.543 1.563-.47 1.468-.402 1.383-.332 1.305-.277 1.226-.219 1.157-.168 1.086-.12 1.027-.083.965-.039.91-.004.855.028.809.058.758.086.715.113.671.133.637.153.598.171.562.188.528.203.5.219.468.226.446.239.414.246.394.254.368.261.351.266.328.273.309.274.289.277.273.281.258.282.242.285.23.281.216.285.203.282.191.28.18.282.168.277.16.278.152.273.14.27.134.27.125.265.12.262.11.257.106.254.097.25.094.246.09.246.078.239.078.234.074.23.07.227.063.223.063.219.058.21.051.211.055.207.047.2.047.199.043.383.078.183.035.18.031.176.031.172.032.168.027.164.027.16.024.312.047.149.02.289.038.273.031.133.016.125.016.129.011.121.016.234.023.114.008.219.024.304.023.098.008.094.008.09.004.085.007.09.008.164.008.078.008.157.008.074.004.07.003.067.004.07.004h.062l.067.004.062.004.118.008h.058l.055.004h.054l.051.004h.051l.05.004h.095l.046.004h.043l.043.003h.121l.04.004h.105l.035.004h.156l.028.004h.222l.024.004h.398l.008.004h.293" fill="none" stroke-width="1.25" stroke-linecap="round" stroke="red" stroke-miterlimit="10"/></g><g clip-path="url(#E)"><path d="M353 52l-8.273 4.95-7.844 4.663-7.43 4.39-7.043 4.134-6.676 3.894-6.332 3.664-6.004 3.457-5.695 3.25-5.398 3.063-5.125 2.887-4.864 2.714-4.617 2.559-4.379 2.41-4.16 2.27-3.95 2.136-3.75 2.012-3.565 1.895-3.383 1.785-3.219 1.683-3.059 1.582-2.906 1.493-2.766 1.402-2.628 1.324-2.5 1.242-2.38 1.176-2.261 1.102-2.156 1.043-2.051.976-1.953.922-1.86.871-1.773.82-1.688.77-1.609.727-1.531.68-1.465.644-1.395.605-1.328.575-1.27.535-1.21.507-1.156.477-1.102.45-1.055.421-1.004.399-.96.375-.918.355-.88.332-.84.313-.8.296-.77.278-.734.262-.7.246-.675.23-.64.219-.618.207-.59.191-.566.184-.539.172-.52.164-.496.152-.476.14-.457.138-.442.128-.418.118-.406.113-.387.105-.37.102-.356.094-.344.09-.332.082-.312.082-.305.074-.293.066-.281.07-.27.06-.262.058-.25.054-.238.051-.23.05-.227.048-.21.043-.208.039-.199.039-.191.035-.184.035-.18.031-.168.032-.164.027-.16.027-.152.028-.149.023-.14.024-.14.02-.134.019-.125.02-.125.015-.234.031-.219.031-.101.012-.196.024-.094.011-.09.012-.171.016-.078.011-.078.004-.079.012-.074.004-.07.008-.067.007-.066.004-.062.008-.125.008-.055.004-.059.008-.05.004-.055.004-.102.007h-.047l-.043.004-.046.004h-.043l-.04.004-.042.004-.04.004h-.035l-.039.004h-.07l-.031.004h-.032l-.035.004h-.027l-.031.003h-.082l-.024.004h-.074l-.023.004h-.102l-.02.004h-.144l-.016.004h-.254l-.007.004h-.18" fill="none" stroke-width="1.25" stroke-linecap="round" stroke="red" stroke-miterlimit="10"/></g></svg>