<svg xmlns="http://www.w3.org/2000/svg" xmlns:xlink="http://www.w3.org/1999/xlink" width="488" height="274pt" viewBox="0 0 366 274"><defs><clipPath id="l"><path d="M13 178h340v1H13zm0 0"/></clipPath><clipPath id="f"><path d="M182 8.5h2v255h-2zm0 0"/></clipPath><clipPath id="o"><path d="M13 50h340v2H13zm0 0"/></clipPath><clipPath id="n"><path d="M13 93h340v1H13zm0 0"/></clipPath><clipPath id="m"><path d="M13 135h340v2H13zm0 0"/></clipPath><clipPath id="a"><path d="M182 8.5h2v255h-2zm0 0"/></clipPath><clipPath id="b"><path d="M13 135h340v2H13zm0 0"/></clipPath><clipPath id="c"><path d="M13 8.5h1v255h-1zm0 0"/></clipPath><clipPath id="d"><path d="M69 8.5h1v255h-1zm0 0"/></clipPath><clipPath id="e"><path d="M126 8.5h1v255h-1zm0 0"/></clipPath><clipPath id="p"><path d="M13 8.5h340V9H13zm0 0"/></clipPath><clipPath id="g"><path d="M239 8.5h1v255h-1zm0 0"/></clipPath><clipPath id="h"><path d="M296 8.5h1v255h-1zm0 0"/></clipPath><clipPath id="i"><path d="M352 8.5h1v255h-1zm0 0"/></clipPath><clipPath id="j"><path d="M13 263h340v.5H13zm0 0"/></clipPath><clipPath id="k"><path d="M13 220h340v2H13zm0 0"/></clipPath><symbol overflow="visible" id="r"><path d="M1.656-2.438h.36c.734 0 1.109.329 1.109.954 0 .671-.422 1.078-1.11 1.078-.718 0-1.078-.36-1.109-1.14H.234c.032.421.11.702.235.952.281.5.797.766 1.531.766 1.094 0 1.797-.656 1.797-1.656 0-.672-.266-1.047-.906-1.266.5-.203.75-.578.75-1.11 0-.906-.61-1.453-1.625-1.453-1.079 0-1.641.579-1.657 1.72h.657c0-.329.03-.516.109-.673.156-.296.484-.468.906-.468.578 0 .938.343.938.906 0 .375-.14.594-.438.719-.172.078-.406.109-.875.109zm0 0"/></symbol><symbol overflow="visible" id="u"><path d="M2.063-5.313c-.5 0-.938.22-1.22.579C.5-4.266.329-3.563.329-2.578c0 1.797.594 2.75 1.734 2.75 1.126 0 1.735-.953 1.735-2.703 0-1.031-.156-1.719-.516-2.203-.281-.375-.719-.579-1.219-.579zm0 .579c.718 0 1.062.718 1.062 2.14 0 1.516-.344 2.219-1.078 2.219C1.344-.375 1-1.109 1-2.563c0-1.453.344-2.171 1.063-2.171zm0 0"/></symbol><symbol overflow="visible" id="t"><path d="M1.938-3.781V0h.671v-5.313h-.437c-.235.813-.39.922-1.406 1.047v.485zm0 0"/></symbol><symbol overflow="visible" id="s"><path d="M3.797-.656H1c.063-.438.313-.703.953-1.094l.75-.406c.75-.406 1.125-.953 1.125-1.594 0-.453-.172-.86-.484-1.14-.328-.298-.719-.423-1.219-.423-.672 0-1.172.235-1.469.688-.187.281-.265.61-.281 1.156h.656c.032-.36.078-.578.157-.75.171-.328.515-.515.921-.515.594 0 1.047.421 1.047.984 0 .422-.25.781-.719 1.063l-.687.39C.64-1.672.312-1.172.25 0h3.547zm0 0"/></symbol><symbol overflow="visible" id="q"><path d="M2.125-2.344H.344v.547h1.781zm0 0"/></symbol></defs><path d="M13 263.5h340V8.5H13zm0 0" fill="#fff"/><g clip-path="url(#a)"><path d="M183 263.5V8.5" fill="none" stroke-width=".625" stroke-linecap="round" stroke="#bfbfbf" stroke-miterlimit="10"/></g><g clip-path="url(#b)"><path d="M13 136h340" fill="none" stroke-width=".625" stroke-linecap="round" stroke="#bfbfbf" stroke-miterlimit="10"/></g><g clip-path="url(#c)"><path d="M13 263.5V8.5" fill="none" stroke-width=".625" stroke-linecap="round" stroke="#bfbfbf" stroke-dasharray="12.5,18.75" stroke-miterlimit="10"/></g><g clip-path="url(#d)"><path d="M69.668 263.5V8.5" fill="none" stroke-width=".625" stroke-linecap="round" stroke="#bfbfbf" stroke-dasharray="12.5,18.75" stroke-miterlimit="10"/></g><g clip-path="url(#e)"><path d="M126.332 263.5V8.5" fill="none" stroke-width=".625" stroke-linecap="round" stroke="#bfbfbf" stroke-dasharray="12.5,18.75" stroke-miterlimit="10"/></g><g clip-path="url(#f)"><path d="M183 263.5V8.5" fill="none" stroke-width=".625" stroke-linecap="round" stroke="#bfbfbf" stroke-dasharray="12.5,18.75" stroke-miterlimit="10"/></g><g clip-path="url(#g)"><path d="M239.668 263.5V8.5" fill="none" stroke-width=".625" stroke-linecap="round" stroke="#bfbfbf" stroke-dasharray="12.5,18.75" stroke-miterlimit="10"/></g><g clip-path="url(#h)"><path d="M296.332 263.5V8.5" fill="none" stroke-width=".625" stroke-linecap="round" stroke="#bfbfbf" stroke-dasharray="12.5,18.75" stroke-miterlimit="10"/></g><g clip-path="url(#i)"><path d="M353 263.5V8.5" fill="none" stroke-width=".625" stroke-linecap="round" stroke="#bfbfbf" stroke-dasharray="12.5,18.75" stroke-miterlimit="10"/></g><g clip-path="url(#j)"><path d="M13 263.5h340" fill="none" stroke-width=".625" stroke-linecap="round" stroke="#bfbfbf" stroke-dasharray="12.5,18.75" stroke-miterlimit="10"/></g><g clip-path="url(#k)"><path d="M13 221h340" fill="none" stroke-width=".625" stroke-linecap="round" stroke="#bfbfbf" stroke-dasharray="12.5,18.75" stroke-miterlimit="10"/></g><g clip-path="url(#l)"><path d="M13 178.5h340" fill="none" stroke-width=".625" stroke-linecap="round" stroke="#bfbfbf" stroke-dasharray="12.5,18.75" stroke-miterlimit="10"/></g><g clip-path="url(#m)"><path d="M13 136h340" fill="none" stroke-width=".625" stroke-linecap="round" stroke="#bfbfbf" stroke-dasharray="12.5,18.75" stroke-miterlimit="10"/></g><g clip-path="url(#n)"><path d="M13 93.5h340" fill="none" stroke-width=".625" stroke-linecap="round" stroke="#bfbfbf" stroke-dasharray="12.5,18.75" stroke-miterlimit="10"/></g><g clip-path="url(#o)"><path d="M13 51h340" fill="none" stroke-width=".625" stroke-linecap="round" stroke="#bfbfbf" stroke-dasharray="12.5,18.75" stroke-miterlimit="10"/></g><g clip-path="url(#p)"><path d="M13 8.5h340" fill="none" stroke-width=".625" stroke-linecap="round" stroke="#bfbfbf" stroke-dasharray="12.5,18.75" stroke-miterlimit="10"/></g><path d="M13 263.5h340" fill="none" stroke-width="1.25" stroke-linecap="square" stroke="#000" stroke-miterlimit="10"/><path d="M13 263.5v-5m5.668 5V261m5.664 2.5V261M30 263.5V261m5.668 2.5V261m5.664 2.5V261M47 263.5V261m5.668 2.5V261m5.664 2.5V261M64 263.5V261m5.668 2.5v-5m5.664 5V261M81 263.5V261m5.668 2.5V261m5.664 2.5V261M98 263.5V261m5.668 2.5V261m5.664 2.5V261m5.668 2.5V261m5.668 2.5V261m5.664 2.5v-5m5.668 5V261m5.668 2.5V261m5.664 2.5V261m5.668 2.5V261m5.668 2.5V261m5.664 2.5V261m5.668 2.5V261m5.668 2.5V261m5.664 2.5V261m5.668 2.5v-5m5.668 5V261m5.664 2.5V261m5.668 2.5V261m5.668 2.5V261m5.664 2.5V261m5.668 2.5V261m5.668 2.5V261m5.664 2.5V261m5.668 2.5V261m5.668 2.5v-5m5.664 5V261m5.668 2.5V261m5.668 2.5V261m5.664 2.5V261m5.668 2.5V261m5.668 2.5V261m5.664 2.5V261m5.668 2.5V261m5.668 2.5V261m5.664 2.5v-5m5.668 5V261m5.668 2.5V261m5.664 2.5V261m5.668 2.5V261m5.668 2.5V261m5.664 2.5V261m5.668 2.5V261m5.668 2.5V261m5.664 2.5V261m5.668 2.5v-5" fill="none" stroke-width=".625" stroke="#000" stroke-miterlimit="10"/><use xlink:href="#q" x="9.666" y="273.5"/><use xlink:href="#r" x="12.164" y="273.5"/><use xlink:href="#q" x="65.916" y="273.5"/><use xlink:href="#s" x="68.414" y="273.5"/><use xlink:href="#q" x="122.791" y="273.5"/><use xlink:href="#t" x="125.289" y="273.5"/><use xlink:href="#u" x="180.915" y="273.5"/><use xlink:href="#t" x="237.165" y="273.5"/><use xlink:href="#s" x="294.04" y="273.5"/><use xlink:href="#r" x="350.915" y="273.5"/><path d="M13 8.5h340" fill="none" stroke-width="1.25" stroke-linecap="square" stroke="#000" stroke-miterlimit="10"/><path d="M13 8.5v5m5.668-5V11m5.664-2.5V11M30 8.5V11m5.668-2.5V11m5.664-2.5V11M47 8.5V11m5.668-2.5V11m5.664-2.5V11M64 8.5V11m5.668-2.5v5m5.664-5V11M81 8.5V11m5.668-2.5V11m5.664-2.5V11M98 8.5V11m5.668-2.5V11m5.664-2.5V11M115 8.5V11m5.668-2.5V11m5.664-2.5v5m5.668-5V11m5.668-2.5V11m5.664-2.5V11M149 8.5V11m5.668-2.5V11m5.664-2.5V11M166 8.5V11m5.668-2.5V11m5.664-2.5V11M183 8.5v5m5.668-5V11m5.664-2.5V11M200 8.5V11m5.668-2.5V11m5.664-2.5V11M217 8.5V11m5.668-2.5V11m5.664-2.5V11M234 8.5V11m5.668-2.5v5m5.664-5V11M251 8.5V11m5.668-2.5V11m5.664-2.5V11M268 8.5V11m5.668-2.5V11m5.664-2.5V11M285 8.5V11m5.668-2.5V11m5.664-2.5v5m5.668-5V11m5.668-2.5V11m5.664-2.5V11M319 8.5V11m5.668-2.5V11m5.664-2.5V11M336 8.5V11m5.668-2.5V11m5.664-2.5V11M353 8.5v5" fill="none" stroke-width=".625" stroke="#000" stroke-miterlimit="10"/><use xlink:href="#q" x="9.666" y="6"/><use xlink:href="#r" x="12.164" y="6"/><use xlink:href="#q" x="65.916" y="6"/><use xlink:href="#s" x="68.414" y="6"/><use xlink:href="#q" x="122.791" y="6"/><use xlink:href="#t" x="125.289" y="6"/><use xlink:href="#u" x="180.915" y="6"/><use xlink:href="#t" x="237.165" y="6"/><use xlink:href="#s" x="294.04" y="6"/><use xlink:href="#r" x="350.915" y="6"/><path d="M13 263.5V8.5" fill="none" stroke-width="1.25" stroke-linecap="square" stroke="#000" stroke-miterlimit="10"/><path d="M13 263.5h5m-5-4.25h2.5M13 255h2.5m-2.5-4.25h2.5M13 246.5h2.5m-2.5-4.25h2.5M13 238h2.5m-2.5-4.25h2.5M13 229.5h2.5m-2.5-4.25h2.5M13 221h5m-5-4.25h2.5M13 212.5h2.5m-2.5-4.25h2.5M13 204h2.5m-2.5-4.25h2.5M13 195.5h2.5m-2.5-4.25h2.5M13 187h2.5m-2.5-4.25h2.5M13 178.5h5m-5-4.25h2.5M13 170h2.5m-2.5-4.25h2.5M13 161.5h2.5m-2.5-4.25h2.5M13 153h2.5m-2.5-4.25h2.5M13 144.5h2.5m-2.5-4.25h2.5M13 136h5m-5-4.25h2.5M13 127.5h2.5m-2.5-4.25h2.5M13 119h2.5m-2.5-4.25h2.5M13 110.5h2.5m-2.5-4.25h2.5M13 102h2.5M13 97.75h2.5M13 93.5h5m-5-4.25h2.5M13 85h2.5M13 80.75h2.5M13 76.5h2.5M13 72.25h2.5M13 68h2.5M13 63.75h2.5M13 59.5h2.5M13 55.25h2.5M13 51h5m-5-4.25h2.5M13 42.5h2.5M13 38.25h2.5M13 34h2.5M13 29.75h2.5M13 25.5h2.5M13 21.25h2.5M13 17h2.5M13 12.75h2.5M13 8.5h5" fill="none" stroke-width=".625" stroke="#000" stroke-miterlimit="10"/><use xlink:href="#q" x=".083" y="267.25"/><use xlink:href="#r" x="2.58" y="267.25"/><use xlink:href="#q" x=".083" y="224.75"/><use xlink:href="#s" x="2.58" y="224.75"/><use xlink:href="#q" x=".083" y="182.25"/><use xlink:href="#t" x="2.58" y="182.25"/><use xlink:href="#u" x="2.58" y="139.125"/><use xlink:href="#t" x="2.58" y="97.25"/><use xlink:href="#s" x="2.58" y="54.75"/><use xlink:href="#r" x="2.58" y="12.25"/><path d="M353 263.5V8.5" fill="none" stroke-width="1.25" stroke-linecap="square" stroke="#000" stroke-miterlimit="10"/><path d="M353 263.5h-5m5-4.25h-2.5M353 255h-2.5m2.5-4.25h-2.5m2.5-4.25h-2.5m2.5-4.25h-2.5M353 238h-2.5m2.5-4.25h-2.5m2.5-4.25h-2.5m2.5-4.25h-2.5M353 221h-5m5-4.25h-2.5m2.5-4.25h-2.5m2.5-4.25h-2.5M353 204h-2.5m2.5-4.25h-2.5m2.5-4.25h-2.5m2.5-4.25h-2.5M353 187h-2.5m2.5-4.25h-2.5m2.5-4.25h-5m5-4.25h-2.5M353 170h-2.5m2.5-4.25h-2.5m2.5-4.25h-2.5m2.5-4.25h-2.5M353 153h-2.5m2.5-4.25h-2.5m2.5-4.25h-2.5m2.5-4.25h-2.5M353 136h-5m5-4.25h-2.5m2.5-4.25h-2.5m2.5-4.25h-2.5M353 119h-2.5m2.5-4.25h-2.5m2.5-4.25h-2.5m2.5-4.25h-2.5M353 102h-2.5m2.5-4.25h-2.5m2.5-4.25h-5m5-4.25h-2.5M353 85h-2.5m2.5-4.25h-2.5m2.5-4.25h-2.5m2.5-4.25h-2.5M353 68h-2.5m2.5-4.25h-2.5m2.5-4.25h-2.5m2.5-4.25h-2.5M353 51h-5m5-4.25h-2.5m2.5-4.25h-2.5m2.5-4.25h-2.5M353 34h-2.5m2.5-4.25h-2.5m2.5-4.25h-2.5m2.5-4.25h-2.5M353 17h-2.5m2.5-4.25h-2.5M353 8.5h-5" fill="none" stroke-width=".625" stroke="#000" stroke-miterlimit="10"/><use xlink:href="#q" x="359.25" y="267.25"/><use xlink:href="#r" x="361.748" y="267.25"/><use xlink:href="#q" x="359.25" y="224.75"/><use xlink:href="#s" x="361.748" y="224.75"/><use xlink:href="#q" x="359.25" y="182.25"/><use xlink:href="#t" x="361.748" y="182.25"/><use xlink:href="#u" x="359.25" y="139.125"/><use xlink:href="#t" x="359.25" y="97.25"/><use xlink:href="#s" x="359.25" y="54.75"/><use xlink:href="#r" x="359.25" y="12.25"/><path d="M183 136l56.668-42.5M183 136h56.668" fill="none" stroke-width="1.875" stroke-linecap="round" stroke-linejoin="round" stroke="red" stroke-miterlimit="10"/></svg>