<svg xmlns="http://www.w3.org/2000/svg" xmlns:xlink="http://www.w3.org/1999/xlink" width="488" height="275pt" viewBox="0 0 366 275"><defs><clipPath id="m"><path d="M13 136h340v2H13zm0 0"/></clipPath><clipPath id="g"><path d="M239 9.5h1v255h-1zm0 0"/></clipPath><clipPath id="p"><path d="M13 9.5h340v.5H13zm0 0"/></clipPath><clipPath id="o"><path d="M13 51h340v2H13zm0 0"/></clipPath><clipPath id="n"><path d="M13 94h340v1H13zm0 0"/></clipPath><clipPath id="a"><path d="M182 9.5h2v255h-2zm0 0"/></clipPath><clipPath id="b"><path d="M13 136h340v2H13zm0 0"/></clipPath><clipPath id="c"><path d="M13 9.5h1v255h-1zm0 0"/></clipPath><clipPath id="d"><path d="M69 9.5h1v255h-1zm0 0"/></clipPath><clipPath id="e"><path d="M126 9.5h1v255h-1zm0 0"/></clipPath><clipPath id="f"><path d="M182 9.5h2v255h-2zm0 0"/></clipPath><clipPath id="v"><path d="M87 9.5h192v255H87zm0 0"/></clipPath><clipPath id="h"><path d="M296 9.5h1v255h-1zm0 0"/></clipPath><clipPath id="i"><path d="M352 9.5h1v255h-1zm0 0"/></clipPath><clipPath id="j"><path d="M13 264h340v.5H13zm0 0"/></clipPath><clipPath id="k"><path d="M13 221h340v2H13zm0 0"/></clipPath><clipPath id="l"><path d="M13 179h340v1H13zm0 0"/></clipPath><symbol overflow="visible" id="r"><path d="M1.656-2.438h.36c.734 0 1.109.329 1.109.954 0 .671-.422 1.078-1.11 1.078-.718 0-1.078-.36-1.109-1.14H.234c.032.421.11.702.235.952.281.5.797.766 1.531.766 1.094 0 1.797-.656 1.797-1.656 0-.672-.266-1.047-.906-1.266.5-.203.75-.578.75-1.11 0-.906-.61-1.453-1.625-1.453-1.079 0-1.641.579-1.657 1.72h.657c0-.329.03-.516.109-.673.156-.296.484-.468.906-.468.578 0 .938.343.938.906 0 .375-.14.594-.438.719-.172.078-.406.109-.875.109zm0 0"/></symbol><symbol overflow="visible" id="u"><path d="M2.063-5.313c-.5 0-.938.22-1.22.579C.5-4.266.329-3.563.329-2.578c0 1.797.594 2.75 1.734 2.75 1.126 0 1.735-.953 1.735-2.703 0-1.031-.156-1.719-.516-2.203-.281-.375-.719-.579-1.219-.579zm0 .579c.718 0 1.062.718 1.062 2.14 0 1.516-.344 2.219-1.078 2.219C1.344-.375 1-1.109 1-2.563c0-1.453.344-2.171 1.063-2.171zm0 0"/></symbol><symbol overflow="visible" id="t"><path d="M1.938-3.781V0h.671v-5.313h-.437c-.235.813-.39.922-1.406 1.047v.485zm0 0"/></symbol><symbol overflow="visible" id="s"><path d="M3.797-.656H1c.063-.438.313-.703.953-1.094l.75-.406c.75-.406 1.125-.953 1.125-1.594 0-.453-.172-.86-.484-1.14-.328-.298-.719-.423-1.219-.423-.672 0-1.172.235-1.469.688-.187.281-.265.61-.281 1.156h.656c.032-.36.078-.578.157-.75.171-.328.515-.515.921-.515.594 0 1.047.421 1.047.984 0 .422-.25.781-.719 1.063l-.687.39C.64-1.672.312-1.172.25 0h3.547zm0 0"/></symbol><symbol overflow="visible" id="q"><path d="M2.125-2.344H.344v.547h1.781zm0 0"/></symbol></defs><g clip-path="url(#a)"><path d="M183 264.5V9.5" fill="none" stroke-width=".625" stroke-linecap="round" stroke="#bfbfbf" stroke-miterlimit="10"/></g><g clip-path="url(#b)"><path d="M13 137h340" fill="none" stroke-width=".625" stroke-linecap="round" stroke="#bfbfbf" stroke-miterlimit="10"/></g><g clip-path="url(#c)"><path d="M13 264.5V9.5" fill="none" stroke-width=".625" stroke-linecap="round" stroke="#bfbfbf" stroke-dasharray="12.5,18.75" stroke-miterlimit="10"/></g><g clip-path="url(#d)"><path d="M69.668 264.5V9.5" fill="none" stroke-width=".625" stroke-linecap="round" stroke="#bfbfbf" stroke-dasharray="12.5,18.75" stroke-miterlimit="10"/></g><g clip-path="url(#e)"><path d="M126.332 264.5V9.5" fill="none" stroke-width=".625" stroke-linecap="round" stroke="#bfbfbf" stroke-dasharray="12.5,18.75" stroke-miterlimit="10"/></g><g clip-path="url(#f)"><path d="M183 264.5V9.5" fill="none" stroke-width=".625" stroke-linecap="round" stroke="#bfbfbf" stroke-dasharray="12.5,18.75" stroke-miterlimit="10"/></g><g clip-path="url(#g)"><path d="M239.668 264.5V9.5" fill="none" stroke-width=".625" stroke-linecap="round" stroke="#bfbfbf" stroke-dasharray="12.5,18.75" stroke-miterlimit="10"/></g><g clip-path="url(#h)"><path d="M296.332 264.5V9.5" fill="none" stroke-width=".625" stroke-linecap="round" stroke="#bfbfbf" stroke-dasharray="12.5,18.75" stroke-miterlimit="10"/></g><g clip-path="url(#i)"><path d="M353 264.5V9.5" fill="none" stroke-width=".625" stroke-linecap="round" stroke="#bfbfbf" stroke-dasharray="12.5,18.75" stroke-miterlimit="10"/></g><g clip-path="url(#j)"><path d="M13 264.5h340" fill="none" stroke-width=".625" stroke-linecap="round" stroke="#bfbfbf" stroke-dasharray="12.5,18.75" stroke-miterlimit="10"/></g><g clip-path="url(#k)"><path d="M13 222h340" fill="none" stroke-width=".625" stroke-linecap="round" stroke="#bfbfbf" stroke-dasharray="12.5,18.75" stroke-miterlimit="10"/></g><g clip-path="url(#l)"><path d="M13 179.5h340" fill="none" stroke-width=".625" stroke-linecap="round" stroke="#bfbfbf" stroke-dasharray="12.5,18.75" stroke-miterlimit="10"/></g><g clip-path="url(#m)"><path d="M13 137h340" fill="none" stroke-width=".625" stroke-linecap="round" stroke="#bfbfbf" stroke-dasharray="12.5,18.75" stroke-miterlimit="10"/></g><g clip-path="url(#n)"><path d="M13 94.5h340" fill="none" stroke-width=".625" stroke-linecap="round" stroke="#bfbfbf" stroke-dasharray="12.5,18.75" stroke-miterlimit="10"/></g><g clip-path="url(#o)"><path d="M13 52h340" fill="none" stroke-width=".625" stroke-linecap="round" stroke="#bfbfbf" stroke-dasharray="12.5,18.75" stroke-miterlimit="10"/></g><g clip-path="url(#p)"><path d="M13 9.5h340" fill="none" stroke-width=".625" stroke-linecap="round" stroke="#bfbfbf" stroke-dasharray="12.5,18.75" stroke-miterlimit="10"/></g><path d="M13 264.5h340" fill="none" stroke-width="1.25" stroke-linecap="square" stroke="#000" stroke-miterlimit="10"/><path d="M13 264.5v-5m5.668 5V262m5.664 2.5V262M30 264.5V262m5.668 2.5V262m5.664 2.5V262M47 264.5V262m5.668 2.5V262m5.664 2.5V262M64 264.5V262m5.668 2.5v-5m5.664 5V262M81 264.5V262m5.668 2.5V262m5.664 2.5V262M98 264.5V262m5.668 2.5V262m5.664 2.5V262m5.668 2.5V262m5.668 2.5V262m5.664 2.5v-5m5.668 5V262m5.668 2.5V262m5.664 2.5V262m5.668 2.5V262m5.668 2.5V262m5.664 2.5V262m5.668 2.5V262m5.668 2.5V262m5.664 2.5V262m5.668 2.5v-5m5.668 5V262m5.664 2.5V262m5.668 2.5V262m5.668 2.5V262m5.664 2.5V262m5.668 2.5V262m5.668 2.5V262m5.664 2.5V262m5.668 2.5V262m5.668 2.5v-5m5.664 5V262m5.668 2.5V262m5.668 2.5V262m5.664 2.5V262m5.668 2.5V262m5.668 2.5V262m5.664 2.5V262m5.668 2.5V262m5.668 2.5V262m5.664 2.5v-5m5.668 5V262m5.668 2.5V262m5.664 2.5V262m5.668 2.5V262m5.668 2.5V262m5.664 2.5V262m5.668 2.5V262m5.668 2.5V262m5.664 2.5V262m5.668 2.5v-5" fill="none" stroke-width=".625" stroke="#000" stroke-miterlimit="10"/><use xlink:href="#q" x="9.042" y="274.5"/><use xlink:href="#r" x="11.539" y="274.5"/><use xlink:href="#q" x="65.917" y="274.5"/><use xlink:href="#s" x="68.414" y="274.5"/><use xlink:href="#q" x="122.792" y="274.5"/><use xlink:href="#t" x="125.289" y="274.5"/><use xlink:href="#u" x="180.915" y="274.5"/><use xlink:href="#t" x="237.165" y="274.5"/><use xlink:href="#s" x="294.04" y="274.5"/><use xlink:href="#r" x="350.915" y="274.5"/><path d="M13 9.5h340" fill="none" stroke-width="1.25" stroke-linecap="square" stroke="#000" stroke-miterlimit="10"/><path d="M13 9.5v5m5.668-5V12m5.664-2.5V12M30 9.5V12m5.668-2.5V12m5.664-2.5V12M47 9.5V12m5.668-2.5V12m5.664-2.5V12M64 9.5V12m5.668-2.5v5m5.664-5V12M81 9.5V12m5.668-2.5V12m5.664-2.5V12M98 9.5V12m5.668-2.5V12m5.664-2.5V12M115 9.5V12m5.668-2.5V12m5.664-2.5v5m5.668-5V12m5.668-2.5V12m5.664-2.5V12M149 9.5V12m5.668-2.5V12m5.664-2.5V12M166 9.5V12m5.668-2.5V12m5.664-2.5V12M183 9.5v5m5.668-5V12m5.664-2.5V12M200 9.5V12m5.668-2.5V12m5.664-2.5V12M217 9.5V12m5.668-2.5V12m5.664-2.5V12M234 9.5V12m5.668-2.5v5m5.664-5V12M251 9.5V12m5.668-2.5V12m5.664-2.5V12M268 9.5V12m5.668-2.5V12m5.664-2.5V12M285 9.5V12m5.668-2.5V12m5.664-2.5v5m5.668-5V12m5.668-2.5V12m5.664-2.5V12M319 9.5V12m5.668-2.5V12m5.664-2.5V12M336 9.5V12m5.668-2.5V12m5.664-2.5V12M353 9.5v5" fill="none" stroke-width=".625" stroke="#000" stroke-miterlimit="10"/><use xlink:href="#q" x="9.042" y="6.375"/><use xlink:href="#r" x="11.539" y="6.375"/><use xlink:href="#q" x="65.917" y="6.375"/><use xlink:href="#s" x="68.414" y="6.375"/><use xlink:href="#q" x="122.792" y="6.375"/><use xlink:href="#t" x="125.289" y="6.375"/><use xlink:href="#u" x="180.915" y="6.375"/><use xlink:href="#t" x="237.165" y="6.375"/><use xlink:href="#s" x="294.04" y="6.375"/><use xlink:href="#r" x="350.915" y="6.375"/><path d="M13 264.5V9.5" fill="none" stroke-width="1.25" stroke-linecap="square" stroke="#000" stroke-miterlimit="10"/><path d="M13 264.5h5m-5-4.25h2.5M13 256h2.5m-2.5-4.25h2.5M13 247.5h2.5m-2.5-4.25h2.5M13 239h2.5m-2.5-4.25h2.5M13 230.5h2.5m-2.5-4.25h2.5M13 222h5m-5-4.25h2.5M13 213.5h2.5m-2.5-4.25h2.5M13 205h2.5m-2.5-4.25h2.5M13 196.5h2.5m-2.5-4.25h2.5M13 188h2.5m-2.5-4.25h2.5M13 179.5h5m-5-4.25h2.5M13 171h2.5m-2.5-4.25h2.5M13 162.5h2.5m-2.5-4.25h2.5M13 154h2.5m-2.5-4.25h2.5M13 145.5h2.5m-2.5-4.25h2.5M13 137h5m-5-4.25h2.5M13 128.5h2.5m-2.5-4.25h2.5M13 120h2.5m-2.5-4.25h2.5M13 111.5h2.5m-2.5-4.25h2.5M13 103h2.5M13 98.75h2.5M13 94.5h5m-5-4.25h2.5M13 86h2.5M13 81.75h2.5M13 77.5h2.5M13 73.25h2.5M13 69h2.5M13 64.75h2.5M13 60.5h2.5M13 56.25h2.5M13 52h5m-5-4.25h2.5M13 43.5h2.5M13 39.25h2.5M13 35h2.5M13 30.75h2.5M13 26.5h2.5M13 22.25h2.5M13 18h2.5M13 13.75h2.5M13 9.5h5" fill="none" stroke-width=".625" stroke="#000" stroke-miterlimit="10"/><use xlink:href="#q" x="-.542" y="268.25"/><use xlink:href="#r" x="1.956" y="268.25"/><use xlink:href="#q" x="-.542" y="225.125"/><use xlink:href="#s" x="1.956" y="225.125"/><use xlink:href="#q" x="-.542" y="183.25"/><use xlink:href="#t" x="1.956" y="183.25"/><use xlink:href="#u" x="1.955" y="140.125"/><use xlink:href="#t" x="1.955" y="98.25"/><use xlink:href="#s" x="1.955" y="55.125"/><use xlink:href="#r" x="1.955" y="12.625"/><path d="M353 264.5V9.5" fill="none" stroke-width="1.25" stroke-linecap="square" stroke="#000" stroke-miterlimit="10"/><path d="M353 264.5h-5m5-4.25h-2.5M353 256h-2.5m2.5-4.25h-2.5m2.5-4.25h-2.5m2.5-4.25h-2.5M353 239h-2.5m2.5-4.25h-2.5m2.5-4.25h-2.5m2.5-4.25h-2.5M353 222h-5m5-4.25h-2.5m2.5-4.25h-2.5m2.5-4.25h-2.5M353 205h-2.5m2.5-4.25h-2.5m2.5-4.25h-2.5m2.5-4.25h-2.5M353 188h-2.5m2.5-4.25h-2.5m2.5-4.25h-5m5-4.25h-2.5M353 171h-2.5m2.5-4.25h-2.5m2.5-4.25h-2.5m2.5-4.25h-2.5M353 154h-2.5m2.5-4.25h-2.5m2.5-4.25h-2.5m2.5-4.25h-2.5M353 137h-5m5-4.25h-2.5m2.5-4.25h-2.5m2.5-4.25h-2.5M353 120h-2.5m2.5-4.25h-2.5m2.5-4.25h-2.5m2.5-4.25h-2.5M353 103h-2.5m2.5-4.25h-2.5m2.5-4.25h-5m5-4.25h-2.5M353 86h-2.5m2.5-4.25h-2.5m2.5-4.25h-2.5m2.5-4.25h-2.5M353 69h-2.5m2.5-4.25h-2.5m2.5-4.25h-2.5m2.5-4.25h-2.5M353 52h-5m5-4.25h-2.5m2.5-4.25h-2.5m2.5-4.25h-2.5M353 35h-2.5m2.5-4.25h-2.5m2.5-4.25h-2.5m2.5-4.25h-2.5M353 18h-2.5m2.5-4.25h-2.5M353 9.5h-5" fill="none" stroke-width=".625" stroke="#000" stroke-miterlimit="10"/><use xlink:href="#q" x="359.25" y="268.25"/><use xlink:href="#r" x="361.748" y="268.25"/><use xlink:href="#q" x="359.25" y="225.125"/><use xlink:href="#s" x="361.748" y="225.125"/><use xlink:href="#q" x="359.25" y="183.25"/><use xlink:href="#t" x="361.748" y="183.25"/><use xlink:href="#u" x="359.25" y="140.125"/><use xlink:href="#t" x="359.25" y="98.25"/><use xlink:href="#s" x="359.25" y="55.125"/><use xlink:href="#r" x="359.25" y="12.625"/><path d="M23.414 263.871l-3.828-11.492m2.965 2.965l-2.965-2.965-.594 4.152m4.223-5.41l-3.43-11.492m2.871 3.059l-2.87-3.06-.724 4.13m3.95-5.387l-3.024-11.492m2.766 3.148l-2.766-3.148-.86 4.105m3.68-5.363l-2.617-11.492m2.66 3.238l-2.66-3.238-.996 4.074m3.414-5.332l-2.218-11.492m2.55 3.328l-2.55-3.328-1.13 4.039m3.145-5.297l-1.812-11.492m2.437 3.41l-2.437-3.41-1.27 3.996m2.883-5.254l-1.414-11.492m2.32 3.492l-2.32-3.492-1.402 3.95m2.613-5.208l-1.008-11.492m2.195 3.57l-2.195-3.57-1.539 3.898m2.344-5.156l-.602-11.492m2.067 3.644l-2.067-3.644-1.676 3.844m2.079-5.102l-.204-11.492m1.942 3.719l-1.942-3.72-1.808 3.782m1.808-5.039l.204-11.492m1.808 3.781l-1.808-3.781-1.942 3.719m1.54-4.977l.6-11.492m1.677 3.844l-1.676-3.844-2.067 3.644m1.262-4.902l1.008-11.492m1.539 3.898l-1.54-3.898-2.194 3.57m.984-4.828l1.414-11.492m1.402 3.95l-1.402-3.95-2.32 3.492m.707-4.75l1.812-11.492m1.27 3.996l-1.27-3.996-2.437 3.41m.422-4.668l2.218-11.492m1.13 4.039l-1.13-4.04-2.55 3.329m.132-4.586L22.81 48.38m.996 4.074l-.996-4.074-2.66 3.238m-.16-4.496l3.023-11.492m.86 4.105l-.86-4.105-2.77 3.148m-.457-4.406l3.43-11.492m.723 4.129l-.723-4.13-2.871 3.06m-.758-4.317l3.828-11.492m.594 4.152l-.594-4.152-2.965 2.965m19.965 250.172l-3.828-10.282m3.066 2.86l-3.066-2.86-.45 4.168m4.079-6.636l-3.43-10.282m2.965 2.965l-2.965-2.965-.59 4.153m3.817-6.621l-3.024-10.282m2.856 3.067l-2.856-3.067-.742 4.125m3.563-6.593l-2.618-10.282m2.743 3.172l-2.743-3.172-.894 4.098m3.312-6.566l-2.218-10.282m2.625 3.27l-2.625-3.27-1.043 4.063m3.058-6.531l-1.812-10.282m2.496 3.368l-2.496-3.368-1.196 4.02m2.809-6.488l-1.414-10.282m2.367 3.461l-2.367-3.46-1.348 3.968m2.559-6.437l-1.008-10.282m2.23 3.551l-2.23-3.55-1.5 3.913m2.305-6.382l-.602-10.282m2.09 3.633l-2.09-3.633-1.652 3.856m2.055-6.324l-.204-10.282m1.95 3.711l-1.95-3.71-1.8 3.785m1.8-6.254l.204-10.282m1.8 3.786l-1.8-3.786-1.95 3.711m1.547-6.18l.602-10.28m1.652 3.855l-1.652-3.856-2.09 3.633m1.285-6.101l1.008-10.282m1.5 3.914l-1.5-3.914-2.23 3.551m1.019-6.02l1.414-10.28m1.348 3.968l-1.348-3.969-2.367 3.461m.754-5.93l1.812-10.28m1.196 4.019l-1.196-4.02-2.496 3.368m.48-5.836l2.22-10.282m1.042 4.063l-1.043-4.063-2.625 3.27m.207-5.738l2.618-10.282m.89 4.098l-.89-4.098-2.743 3.172m-.078-5.64l3.024-10.282m.742 4.125l-.742-4.125-2.856 3.07m-.37-5.538l3.429-10.282m.59 4.153l-.59-4.153-2.965 2.965m-.664-5.433l3.828-10.282m.45 4.168l-.45-4.168-3.066 2.86M57.414 262.66l-3.828-9.07m3.184 2.723l-3.184-2.723-.27 4.183m3.899-7.863l-3.43-9.07m3.078 2.844l-3.078-2.844-.43 4.172m3.657-7.852l-3.024-9.07m2.965 2.965l-2.965-2.965-.593 4.148m3.414-7.828l-2.621-9.07m2.843 3.082l-2.843-3.082-.758 4.12m3.18-7.8l-2.22-9.07m2.712 3.195l-2.711-3.195-.93 4.086m2.945-7.766l-1.812-9.07m2.574 3.308l-2.574-3.308-1.106 4.043m2.719-7.723l-1.414-9.07m2.43 3.418l-2.43-3.418-1.273 3.992m2.484-7.672l-1.008-9.07m2.277 3.52l-2.277-3.52-1.45 3.933m2.255-7.613l-.602-9.07m2.117 3.617L55.2 151.59l-1.62 3.863m2.023-7.543l-.204-9.07m1.957 3.707l-1.957-3.707-1.789 3.789m1.79-7.469l.203-9.07m1.789 3.789l-1.79-3.79-1.956 3.708m1.554-7.387l.602-9.07m1.62 3.863l-1.62-3.863-2.121 3.617m1.316-7.297l1.008-9.07m1.45 3.933l-1.45-3.933-2.277 3.52m1.066-7.2l1.414-9.07m1.273 3.992l-1.273-3.992-2.43 3.418m.817-7.098l1.812-9.07m1.106 4.043l-1.106-4.043-2.574 3.308m.559-6.988l2.218-9.07m.93 4.086l-.93-4.086-2.71 3.195m.289-6.875l2.62-9.07m.762 4.12l-.761-4.12-2.84 3.082m.02-6.762l3.023-9.07m.593 4.148l-.593-4.148-2.965 2.965m-.262-6.645l3.43-9.07m.426 4.168l-.426-4.168-3.082 2.844m-.547-6.524l3.828-9.07m.27 4.183l-.27-4.183-3.184 2.723m20.184 247.992l-3.828-7.86m3.328 2.547l-3.328-2.547-.043 4.192m3.672-9.082l-3.43-7.86m3.219 2.688l-3.219-2.688-.219 4.184m3.446-9.074l-3.024-7.86m3.098 2.825l-3.098-2.825-.402 4.172m3.223-9.062l-2.621-7.86m2.968 2.965l-2.968-2.965-.59 4.149m3.011-9.04l-2.218-7.859m2.824 3.098l-2.824-3.098-.786 4.118m2.801-9.008l-1.812-7.86m2.668 3.23l-2.668-3.23-.985 4.075m2.598-8.965l-1.414-7.86m2.508 3.36l-2.508-3.36-1.184 4.02m2.395-8.91l-1.008-7.864m2.336 3.485l-2.336-3.485-1.383 3.961m2.188-8.847l-.602-7.864m2.156 3.598l-2.156-3.598-1.586 3.887m1.989-8.773l-.204-7.86m1.973 3.7l-1.973-3.7-1.777 3.797m1.777-8.687l.204-7.864m1.777 3.801l-1.777-3.8-1.973 3.703m1.57-8.59l.602-7.86m1.582 3.883l-1.582-3.883-2.156 3.594m1.351-8.484l1.008-7.86m1.383 3.957l-1.383-3.957-2.336 3.48m1.125-8.37l1.414-7.864m1.184 4.024l-1.184-4.024-2.508 3.364m.895-8.25l1.812-7.86m.985 4.075l-.985-4.075-2.668 3.23m.653-8.12l2.218-7.86m.786 4.118l-.786-4.118-2.824 3.098m.402-7.988l2.622-7.86m.593 4.149l-.593-4.149-2.965 2.965m.144-7.855l3.024-7.86m.402 4.172l-.402-4.172-3.098 2.825m-.129-7.715l3.43-7.86m.219 4.184l-.22-4.184-3.218 2.688m-.41-7.578l3.828-7.86m.043 4.192l-.043-4.192-3.328 2.547m20.328 246.961l-3.828-6.656m3.496 2.316l-3.496-2.316.246 4.187m3.383-10.28l-3.43-6.657m3.387 2.476l-3.387-2.476.05 4.195m3.177-10.289l-3.024-6.656m3.258 2.64l-3.258-2.64-.156 4.191m2.977-10.285l-2.622-6.656m3.122 2.805l-3.122-2.805-.367 4.176m2.79-10.27l-2.22-6.656m2.965 2.965l-2.964-2.965-.594 4.152m2.61-10.246l-1.813-6.656m2.797 3.125l-2.797-3.125-.824 4.113m2.437-10.207l-1.414-6.656m2.613 3.281l-2.613-3.281-1.055 4.058m2.266-10.156l-1.008-6.652m2.414 3.43l-2.414-3.43-1.293 3.988m2.098-10.086l-.602-6.652m2.207 3.566l-2.207-3.566-1.531 3.906m1.934-10.004l-.204-6.652m1.989 3.691l-1.989-3.691-1.757 3.808m1.757-9.906l.204-6.652m1.757 3.808l-1.757-3.808-1.989 3.691M89.2 121.2l.602-6.652m1.527 3.906l-1.527-3.906-2.207 3.566m1.402-9.664l1.008-6.652m1.293 3.988l-1.293-3.988-2.414 3.43m1.203-9.528l1.414-6.652m1.055 4.058l-1.055-4.058-2.613 3.281m1-9.379l1.812-6.652m.824 4.113l-.824-4.113-2.797 3.125m.782-9.223l2.218-6.652m.594 4.152l-.594-4.152-2.964 2.965m.542-9.063l2.622-6.652m.37 4.18l-.37-4.18-3.118 2.805m.297-8.903l3.024-6.652m.156 4.191l-.156-4.191-3.258 2.64m.031-8.738l3.43-6.652m-.05 4.195l.05-4.195-3.387 2.476m-.242-8.574l3.828-6.652m-.246 4.187l.246-4.187-3.496 2.316m20.496 245.985l-3.828-5.446m3.691 1.989l-3.691-1.989.625 4.149m3.004-11.453l-3.43-5.446m3.586 2.176l-3.586-2.176.41 4.172m2.817-11.476l-3.024-5.446m3.461 2.368l-3.46-2.368.183 4.192m2.64-11.496l-2.625-5.446m3.317 2.567l-3.317-2.567-.058 4.192m2.48-11.496l-2.218-5.446m3.152 2.766l-3.152-2.766-.32 4.18m2.335-11.484l-1.812-5.446m2.965 2.965l-2.965-2.965-.594 4.153m2.203-11.457l-1.41-5.446m2.758 3.16l-2.758-3.16-.871 4.102m2.082-11.406l-1.008-5.446m2.527 3.348l-2.527-3.348-1.16 4.032m1.965-11.336l-.606-5.446m2.282 3.52l-2.282-3.52-1.449 3.938m1.856-11.242l-.204-5.446m2.012 3.68l-2.012-3.68-1.734 3.817m1.734-11.121l.204-5.446m1.734 3.817l-1.734-3.817-2.012 3.68m1.605-10.984l.606-5.446m1.453 3.934l-1.453-3.934-2.278 3.52m1.473-10.824l1.008-5.446m1.16 4.032l-1.16-4.032-2.527 3.348m1.316-10.652l1.41-5.446m.875 4.102l-.875-4.102-2.754 3.16m1.145-10.464l1.812-5.446m.594 4.153l-.594-4.153-2.965 2.965m.95-10.27l2.218-5.445m.32 4.184l-.32-4.184-3.152 2.766m.73-10.07l2.625-5.446m.06 4.192l-.06-4.192-3.32 2.567m.496-9.871l3.024-5.446m-.184 4.192l.184-4.192-3.461 2.368m.234-9.672l3.43-5.446m-.414 4.172l.414-4.172-3.586 2.176m-.043-9.48l3.828-5.446m-.625 4.149l.625-4.149-3.691 1.989m20.691 245.101l-3.828-4.234m3.906 1.523l-3.906-1.523 1.125 4.039m2.504-12.555l-3.43-4.234m3.817 1.734l-3.817-1.734.902 4.094m2.325-12.61l-3.024-4.234m3.703 1.96l-3.703-1.96.653 4.14m2.171-12.656l-2.625-4.234m3.57 2.203l-3.57-2.203.383 4.176m2.04-12.692l-2.22-4.234m3.403 2.453l-3.402-2.453.078 4.191m1.937-12.707l-1.812-4.234m3.199 2.707l-3.2-2.707-.245 4.187m1.855-12.703l-1.41-4.234m2.965 2.965l-2.965-2.965-.594 4.152m1.805-12.668l-1.008-4.234m2.691 3.215l-2.69-3.215-.958 4.082m1.762-12.598l-.606-4.234m2.39 3.445l-2.39-3.445-1.324 3.976m1.73-12.492l-.203-4.234m2.051 3.656l-2.05-3.656-1.696 3.836m1.695-12.352l.204-4.234m1.695 3.836l-1.695-3.836-2.051 3.656m1.644-12.172l.606-4.234m1.328 3.976l-1.328-3.976-2.387 3.445m1.582-11.96l1.008-4.235m.957 4.082l-.957-4.082-2.692 3.215m1.481-11.73l1.41-4.235m.594 4.152l-.594-4.152-2.96 2.965m1.35-11.48l1.813-4.235m.246 4.183l-.246-4.183-3.199 2.707m1.184-11.223l2.218-4.234m-.082 4.191l.082-4.191-3.402 2.453m.98-10.969l2.625-4.234m-.382 4.176l.382-4.176-3.57 2.203m.746-10.719l3.024-4.234m-.653 4.14l.653-4.14-3.703 1.96m.476-10.476l3.43-4.234m-.903 4.094l.903-4.094-3.82 1.734m.19-10.25l3.83-4.234m-1.126 4.039l1.125-4.04-3.906 1.524m20.906 244.356l-3.828-3.024m4.105.852l-4.105-.852 1.781 3.793m1.848-13.52l-3.43-3.023m4.055 1.075l-4.055-1.075 1.57 3.887m1.657-13.613l-3.024-3.024m3.977 1.325l-3.977-1.325 1.324 3.977m1.5-13.703l-2.625-3.024m3.875 1.606l-3.875-1.606 1.043 4.063m1.38-13.79l-2.22-3.023m3.731 1.914l-3.73-1.914.707 4.133m1.308-13.86l-1.812-3.023m3.535 2.25l-3.535-2.25.32 4.18m1.29-13.906l-1.411-3.024m3.285 2.606l-3.285-2.606-.113 4.192m1.324-13.918l-1.008-3.024m2.965 2.965l-2.965-2.965-.594 4.153m1.399-13.88l-.606-3.023m2.575 3.309l-2.575-3.309-1.101 4.043m1.508-13.77l-.204-3.023m2.122 3.617l-2.122-3.617-1.62 3.867m1.62-13.593l.204-3.024m1.62 3.867l-1.62-3.867-2.122 3.617m1.715-13.343l.606-3.024m1.105 4.043l-1.105-4.043-2.574 3.309m1.77-13.035l1.007-3.024m.594 4.153l-.594-4.153-2.965 2.965m1.754-12.691l1.41-3.024m.113 4.192l-.113-4.192-3.281 2.606m1.672-12.332l1.812-3.024m-.32 4.18l.32-4.18-3.535 2.25m1.52-11.976l2.218-3.024m-.707 4.133l.707-4.133-3.73 1.914m1.308-11.64l2.625-3.024m-1.042 4.063l1.042-4.063-3.875 1.606m1.051-11.332l3.024-3.024m-1.325 3.977l1.325-3.977-3.977 1.325m.75-11.051l3.43-3.024M140.64 31l1.574-3.887-4.055 1.075m.426-10.801l3.828-3.024m-1.781 3.793l1.781-3.793-4.105.852m21.105 243.816l-3.828-1.812m4.191-.09l-4.191.09 2.586 3.297m1.043-14.235l-3.43-1.812m4.192.097l-4.192-.097 2.438 3.41m.789-14.348l-3.024-1.812m4.18.32l-4.18-.32 2.25 3.535m.574-14.473l-2.625-1.812m4.153.59l-4.153-.59 2.016 3.676m.406-14.614l-2.218-1.812m4.09.922l-4.09-.922 1.714 3.824m.301-14.762l-1.812-1.812m3.976 1.324l-3.976-1.324 1.324 3.976m.285-14.914l-1.41-1.812m3.785 1.808l-3.785-1.808.824 4.11m.387-15.048l-1.008-1.812m3.461 2.367l-3.46-2.367.183 4.187m.62-15.125l-.605-1.812m2.965 2.965l-2.965-2.965-.59 4.148m.997-15.086l-.204-1.812m2.278 3.52l-2.278-3.52-1.449 3.933m1.45-14.87l.203-1.813m1.449 3.933l-1.45-3.933-2.277 3.52m1.871-14.458l.606-1.812m.594 4.148l-.594-4.148-2.961 2.965m2.156-13.903l1.008-1.812m-.184 4.187l.184-4.187-3.461 2.367m2.25-13.305l1.41-1.812m-.82 4.11l.82-4.11-3.781 1.808m2.172-12.746l1.812-1.812m-1.324 3.976l1.324-3.976-3.976 1.324m1.96-12.262l2.22-1.812m-1.715 3.824l1.714-3.824-4.09.922m1.668-11.86l2.625-1.812m-2.019 3.676l2.02-3.676-4.153.594m1.328-11.532l3.024-1.812m-2.25 3.535l2.25-3.535-4.18.32m.953-11.258l3.43-1.812m-2.438 3.41l2.438-3.41-4.195.097m.566-11.035l3.828-1.812m-2.586 3.3l2.586-3.3-4.191-.09m21.191 243.547l-3.828-.602m3.996-1.27l-3.996 1.27 3.41 2.434m.219-14.582l-3.43-.602m4.02-1.195l-4.02 1.195 3.367 2.496m-.14-14.644l-3.024-.602m4.043-1.105l-4.043 1.105 3.309 2.574m-.485-14.722l-2.625-.602m4.079-.984l-4.079.984 3.235 2.668m-.813-14.816l-2.218-.602m4.113-.824l-4.113.824 3.125 2.793m-1.11-14.941l-1.812-.602m4.148-.594l-4.148.594 2.965 2.961m-1.356-15.11l-1.41-.6m4.187-.247l-4.187.246 2.71 3.2m-1.5-15.348l-1.007-.606m4.18.325l-4.18-.325 2.25 3.54m-1.445-15.684l-.606-.606m3.98 1.328l-3.98-1.328 1.328 3.98m-.921-16.124l-.204-.606m2.965 2.97l-2.965-2.97-.593 4.153m.593-16.297l.204-.606m.593 4.153l-.593-4.153-2.965 2.965m2.558-15.11l.606-.605m-1.324 3.98l1.324-3.98-3.977 1.328m3.172-13.472l1.008-.606m-2.25 3.54l2.25-3.54-4.18.325m2.969-12.47l1.41-.605m-2.707 3.203l2.707-3.203-4.183-.246m2.574-11.898l1.812-.606m-2.965 2.97l2.965-2.97-4.148-.59m2.133-11.554l2.218-.606m-3.125 2.797l3.125-2.797-4.113-.82m1.691-11.324l2.625-.606m-3.234 2.672l3.234-2.672-4.078-.98m1.254-11.164l3.024-.606m-3.309 2.575l3.309-2.575-4.043-1.101m.816-11.043l3.43-.606m-3.367 2.5l3.367-2.5-4.02-1.191m.39-10.953l3.83-.606m-3.411 2.438l3.41-2.438-3.996-1.265m20.996 243.52l-3.828.6m3.41-2.433l-3.41 2.434 3.996 1.27m-.367-14.622l-3.43.602m3.367-2.496l-3.367 2.496 4.02 1.195m-.793-14.547l-3.024.602m3.309-2.574l-3.309 2.574 4.043 1.105m-1.219-14.457l-2.625.602m3.235-2.668l-3.235 2.668 4.079.984m-1.657-14.336l-2.218.602m3.125-2.793l-3.125 2.793 4.113.824m-2.098-14.176l-1.812.602m2.965-2.965l-2.965 2.965 4.148.594m-2.539-13.946l-1.41.602m2.71-3.2l-2.71 3.2 4.187.246m-2.976-13.602l-1.008.606m2.25-3.535l-2.25 3.535 4.18-.32M191.8 155.82l-.606.606m1.328-3.977l-1.328 3.977 3.98-1.324m-3.573-12.032l-.204.606m-.593-4.149l.593 4.149 2.965-2.965m-2.965-10.39l.204.605m-2.965-2.965l2.965 2.965.59-4.149m-.997-9.207l.606.606m-3.977-1.324l3.977 1.324-1.324-3.977m.52-9.379l1.007.606m-4.18-.32l4.18.32-2.25-3.535m1.039-9.82l1.41.605m-4.183.246l4.183-.246-2.707-3.2m1.098-10.156l1.812.606m-4.148.594l4.148-.594-2.965-2.965m.95-10.39l2.218.605m-4.113.824l4.113-.824-3.125-2.793m.703-10.563l2.625.606m-4.078.984l4.078-.984-3.234-2.668m.41-10.688l3.024.606m-4.043 1.105l4.043-1.105-3.309-2.574m.082-10.782l3.43.606m-4.02 1.195l4.02-1.195-3.367-2.496m-.262-10.86l3.828.606m-3.996 1.27l3.996-1.27-3.41-2.438m20.41 243.48l-3.828 1.813m2.586-3.3l-2.586 3.3 4.191.09m-.562-14.652l-3.43 1.812m2.438-3.41l-2.438 3.41 4.192-.097m-.965-14.465l-3.024 1.812m2.25-3.535l-2.25 3.535 4.18-.32m-1.356-14.242l-2.625 1.812m2.016-3.676l-2.016 3.676 4.153-.593m-1.73-13.97l-2.22 1.813m1.715-3.824l-1.714 3.824 4.09-.922m-2.075-13.64l-1.812 1.812m1.324-3.976l-1.324 3.976 3.976-1.324m-2.367-13.238l-1.41 1.812m.824-4.11l-.824 4.11 3.785-1.808m-2.574-12.754l-1.008 1.812m.184-4.187l-.184 4.187 3.461-2.367m-2.656-12.195l-.606 1.812m-.59-4.148l.59 4.148 2.965-2.965m-2.558-11.597l-.204 1.812m-1.449-3.933l1.45 3.933 2.277-3.52m-2.278-11.042l.204 1.812m-2.278-3.52l2.278 3.52 1.449-3.933m-1.856-10.63l.606 1.813m-2.961-2.965l2.96 2.965.595-4.148m-1.399-10.414l1.008 1.812m-3.461-2.367l3.46 2.367-.183-4.187m-1.027-10.375l1.41 1.812m-3.781-1.808l3.781 1.808-.82-4.11m-.79-10.452l1.813 1.812m-3.976-1.324l3.976 1.324-1.324-3.976m-.691-10.586l2.218 1.812m-4.09-.922l4.09.922-1.714-3.824m-.708-10.738l2.625 1.812m-4.152-.593l4.152.593-2.019-3.676m-.805-10.886l3.024 1.812m-4.18-.32l4.18.32-2.25-3.535m-.977-11.027l3.43 1.812m-4.195-.097l4.195.097-2.438-3.41m-1.191-11.152l3.828 1.812m-4.191.09l4.191-.09-2.586-3.3m19.586 243.132l-3.828 3.024m1.781-3.793l-1.781 3.793 4.105-.852m-.476-14.922l-3.43 3.024m1.57-3.887l-1.57 3.887 4.055-1.074m-.828-14.7l-3.024 3.024m1.324-3.977l-1.324 3.977 3.977-1.324m-1.153-14.45l-2.625 3.024m1.043-4.063l-1.043 4.063 3.875-1.606m-1.453-14.168l-2.218 3.024m.707-4.133l-.707 4.133 3.73-1.914m-1.715-13.86l-1.812 3.024m.32-4.18l-.32 4.18 3.535-2.25m-1.926-13.524l-1.41 3.024m-.113-4.192l.113 4.192 3.285-2.606m-2.074-13.168l-1.008 3.024m-.594-4.153l.594 4.153 2.965-2.965m-2.16-12.809l-.606 3.024m-1.101-4.043l1.101 4.043 2.578-3.309m-2.171-12.465l-.204 3.024m-1.62-3.867l1.62 3.867 2.122-3.617m-2.122-12.157l.204 3.024m-2.122-3.617l2.122 3.617 1.62-3.867m-2.027-11.907l.606 3.024m-2.574-3.309l2.574 3.309 1.105-4.043m-1.91-11.73l1.008 3.023m-2.965-2.965l2.965 2.965.594-4.153m-1.805-11.62l1.41 3.023m-3.281-2.606l3.281 2.606.113-4.192m-1.722-11.582l1.812 3.024m-3.535-2.25l3.535 2.25-.32-4.18m-1.695-11.594l2.218 3.024m-3.73-1.914l3.73 1.914-.707-4.133m-1.715-11.64l2.625 3.023m-3.875-1.606l3.875 1.606-1.042-4.063m-1.782-11.71l3.024 3.023m-3.977-1.324l3.977 1.324-1.325-3.977m-1.902-11.797l3.43 3.024m-4.055-1.074l4.055 1.074-1.574-3.887m-2.055-11.887l3.828 3.024m-4.105-.852l4.105.852-1.781-3.797m18.781 242.418l-3.828 4.234m1.125-4.039l-1.125 4.04 3.906-1.524m-.277-15.461l-3.43 4.234m.902-4.094l-.902 4.094 3.817-1.734m-.59-15.25l-3.024 4.234m.653-4.14l-.653 4.14 3.703-1.96m-.879-15.024l-2.625 4.234m.383-4.176l-.383 4.176 3.57-2.203m-1.148-14.781l-2.218 4.234m.078-4.191l-.078 4.191 3.402-2.453m-1.387-14.531l-1.812 4.234m-.246-4.187l.246 4.187 3.199-2.707m-1.59-14.277l-1.41 4.234m-.594-4.152l.594 4.152 2.965-2.965m-1.754-14.02l-1.008 4.235m-.957-4.082l.957 4.082 2.691-3.215m-1.886-13.77l-.606 4.235m-1.324-3.976l1.324 3.976 2.39-3.449m-1.983-13.535l-.204 4.234m-1.695-3.836l1.695 3.836 2.051-3.656m-2.05-13.328l.203 4.234m-2.051-3.656l2.05 3.656 1.696-3.836m-2.102-13.148l.606 4.234m-2.387-3.449l2.387 3.45 1.328-3.977m-2.133-13.008l1.008 4.234m-2.692-3.215l2.692 3.215.957-4.082m-2.168-12.902l1.41 4.234m-2.96-2.965l2.96 2.965.594-4.152m-2.203-12.832l1.812 4.234m-3.199-2.707l3.2 2.707.245-4.187m-2.261-12.797l2.218 4.234m-3.402-2.453l3.402 2.453-.082-4.191m-2.34-12.793l2.625 4.234m-3.57-2.203l3.57 2.203-.382-4.176m-2.442-12.808l3.024 4.234m-3.703-1.96l3.703 1.96-.653-4.14m-2.574-12.844l3.43 4.234m-3.82-1.734l3.82 1.734-.903-4.094m-2.726-12.89l3.828 4.234m-3.906-1.523l3.906 1.523-1.125-4.039m18.125 241.45l-3.828 5.445m.625-4.149l-.625 4.149 3.691-1.989m-.062-16.207l-3.43 5.446m.41-4.172l-.41 4.172 3.586-2.176m-.36-16.02l-3.023 5.446m.184-4.192l-.184 4.192 3.461-2.371m-.637-15.825l-2.625 5.446m-.058-4.192l.058 4.192 3.317-2.567m-.895-15.629l-2.218 5.446m-.32-4.184l.32 4.184 3.152-2.766m-1.137-15.43l-1.812 5.446m-.594-4.153l.594 4.153 2.965-2.965m-1.356-15.23l-1.41 5.445m-.871-4.102l.871 4.102 2.758-3.16m-1.547-15.036l-1.008 5.446m-1.16-4.032l1.16 4.032 2.527-3.348m-1.722-14.848l-.606 5.446m-1.449-3.938l1.45 3.938 2.28-3.524m-1.874-14.672l-.204 5.446m-1.734-3.817l1.734 3.817 2.012-3.68m-2.012-14.516l.204 5.446m-2.012-3.68l2.012 3.68 1.734-3.817m-2.14-14.379l.605 5.446m-2.278-3.524l2.278 3.524 1.453-3.938m-2.258-14.258l1.008 5.446m-2.527-3.348l2.527 3.348 1.16-4.032m-2.371-14.164l1.41 5.446m-2.754-3.16l2.754 3.16.875-4.102m-2.484-14.094l1.812 5.446m-2.965-2.965l2.965 2.965.594-4.153m-2.61-14.043l2.22 5.446m-3.153-2.766l3.152 2.766.32-4.184m-2.742-14.012l2.625 5.446m-3.32-2.567l3.32 2.567.06-4.196m-2.884-14l3.024 5.446m-3.461-2.368l3.46 2.368-.183-4.192m-3.043-14.004l3.43 5.446m-3.586-2.176l3.586 2.176-.414-4.172m-3.215-14.024l3.828 5.446m-3.691-1.989l3.691 1.989-.625-4.149m17.625 240.348l-3.828 6.656m.246-4.187l-.246 4.187 3.492-2.316m.137-17.09l-3.43 6.656m.05-4.195l-.05 4.195 3.387-2.476m-.16-16.93l-3.024 6.656m-.156-4.191l.156 4.191 3.258-2.64m-.433-16.766l-2.625 6.656m-.368-4.18l.368 4.18 3.12-2.805m-.699-16.601l-2.218 6.656m-.594-4.152l.594 4.152 2.964-2.965m-.949-16.441l-1.812 6.656m-.824-4.113l.824 4.113 2.797-3.125m-1.188-16.281l-1.41 6.656m-1.055-4.058l1.055 4.058 2.613-3.281m-1.402-16.125l-1.008 6.652m-1.293-3.988l1.293 3.988 2.414-3.426m-1.61-15.976l-.605 6.652m-1.523-3.902l1.523 3.902 2.207-3.562m-1.8-15.84l-.204 6.652m-1.757-3.804l1.757 3.804 1.989-3.687m-1.989-15.715l.204 6.652m-1.989-3.687l1.989 3.687 1.757-3.804m-2.164-15.598l.606 6.652m-2.207-3.562l2.207 3.562 1.527-3.902m-2.332-15.5l1.008 6.652m-2.414-3.426l2.414 3.426 1.293-3.988m-2.504-15.414l1.41 6.652m-2.61-3.277l2.61 3.277 1.059-4.054m-2.668-15.348l1.812 6.652m-2.797-3.12l2.797 3.12.824-4.11m-2.84-15.292l2.22 6.652m-2.965-2.96l2.964 2.96.594-4.148m-3.015-15.254l2.625 6.652m-3.122-2.8l3.122 2.8.367-4.176m-3.192-15.226l3.024 6.652m-3.258-2.636l3.258 2.636.156-4.187m-3.383-15.215l3.43 6.652m-3.387-2.472l3.387 2.472-.05-4.191m-3.58-15.211l3.83 6.652m-3.497-2.312l3.496 2.312-.246-4.183m17.246 239.18l-3.828 7.859m-.043-4.192l.043 4.192 3.328-2.547m.3-18.063l-3.429 7.86m-.219-4.188l.22 4.188 3.218-2.688m.008-17.922l-3.024 7.86m-.402-4.172l.402 4.172 3.098-2.825m-.273-17.785l-2.625 7.86m-.59-4.149l.59 4.149 2.964-2.965m-.543-17.645l-2.218 7.86m-.786-4.117l.786 4.117 2.824-3.098m-.809-17.512l-1.812 7.86m-.985-4.075l.985 4.075 2.668-3.23m-1.059-17.38l-1.41 7.86m-1.184-4.02l1.184 4.02 2.508-3.36m-1.297-17.254l-1.008 7.864m-1.383-3.957l1.383 3.957 2.336-3.48m-1.531-17.134l-.606 7.864m-1.578-3.883l1.578 3.883 2.16-3.594m-1.753-17.016l-.204 7.86m-1.777-3.797l1.777 3.797 1.973-3.7m-1.973-16.914l.204 7.864m-1.973-3.7l1.973 3.7 1.777-3.797m-2.184-16.813l.606 7.86m-2.156-3.594l2.156 3.594 1.582-3.883m-2.387-16.727l1.008 7.86m-2.336-3.48l2.336 3.48 1.383-3.957m-2.594-16.657l1.41 7.864m-2.508-3.36l2.508 3.36 1.188-4.02m-2.797-16.59l1.812 7.86m-2.668-3.23l2.668 3.23.985-4.075m-3-16.535l2.218 7.86m-2.824-3.102l2.824 3.102.786-4.117m-3.207-16.493l2.625 7.86m-2.97-2.965l2.97 2.965.59-4.149m-3.415-16.46l3.024 7.859m-3.098-2.825l3.098 2.825.402-4.172m-3.629-16.438l3.43 7.86m-3.219-2.688l3.219 2.688.219-4.188m-3.848-16.422l3.828 7.86m-3.328-2.547l3.328 2.547.043-4.192m16.957 237.977l-3.828 9.07m-.27-4.183l.27 4.183 3.184-2.726m.445-19.094l-3.43 9.07m-.43-4.172l.43 4.172 3.078-2.844m.149-18.976l-3.024 9.07m-.593-4.148l.593 4.148 2.965-2.965m-.14-18.855l-2.625 9.07m-.758-4.12l.758 4.12 2.843-3.082m-.422-18.738l-2.218 9.07m-.93-4.086l.93 4.086 2.71-3.195m-.695-18.625l-1.812 9.07m-1.106-4.043l1.106 4.043 2.574-3.308m-.965-18.512l-1.41 9.07m-1.273-3.992l1.273 3.992 2.43-3.418m-1.22-18.402l-1.007 9.07m-1.45-3.933l1.45 3.933 2.277-3.52m-1.472-18.3l-.606 9.07m-1.62-3.867l1.62 3.867 2.121-3.617m-1.714-18.203l-.204 9.07m-1.789-3.789l1.79 3.79 1.956-3.708m-1.957-18.113l.204 9.07m-1.957-3.707l1.957 3.707 1.789-3.789m-2.196-18.031l.606 9.07m-2.117-3.617l2.117 3.617 1.62-3.867m-2.425-17.953l1.008 9.07m-2.277-3.52l2.277 3.52 1.45-3.933m-2.661-17.887l1.41 9.07m-2.426-3.418l2.426 3.418 1.277-3.992m-2.886-17.828l1.812 9.07m-2.574-3.308l2.574 3.308 1.106-4.043M309.39 62.34l2.218 9.07m-2.714-3.195l2.714 3.195.93-4.086m-3.351-17.734l2.625 9.07m-2.844-3.082l2.844 3.082.757-4.12m-3.582-17.7l3.024 9.07m-2.965-2.965l2.965 2.965.593-4.148m-3.82-17.672l3.43 9.07m-3.082-2.844l3.082 2.844.426-4.172m-4.055-17.648l3.828 9.07m-3.184-2.726l3.184 2.726.27-4.183m16.73 236.757l-3.828 10.282m-.45-4.168l.45 4.168 3.066-2.86m.563-20.172l-3.43 10.282m-.59-4.153l.59 4.153 2.965-2.965m.262-20.067l-3.024 10.282m-.742-4.125l.742 4.125 2.856-3.07m-.031-19.962l-2.625 10.282m-.891-4.098l.89 4.098 2.747-3.172m-.325-19.86l-2.218 10.282m-1.043-4.063l1.043 4.063 2.625-3.27m-.61-19.762l-1.812 10.282m-1.196-4.02l1.196 4.02 2.496-3.368m-.887-19.664l-1.41 10.282m-1.348-3.97l1.348 3.97 2.367-3.461m-1.156-19.57l-1.008 10.28m-1.5-3.913l1.5 3.914 2.23-3.551m-1.425-19.48l-.606 10.28m-1.648-3.855l1.648 3.856 2.094-3.633m-1.687-19.399l-.204 10.282m-1.8-3.786l1.8 3.786 1.95-3.711m-1.95-19.32l.204 10.28m-1.95-3.71l1.95 3.71 1.8-3.785m-2.207-19.246l.606 10.282m-2.09-3.633l2.09 3.633 1.652-3.856m-2.457-19.176l1.008 10.282m-2.234-3.551l2.234 3.55 1.5-3.913m-2.711-19.118l1.41 10.282m-2.363-3.461l2.363 3.46 1.352-3.968m-2.961-19.063l1.812 10.282m-2.496-3.368l2.496 3.368 1.196-4.02m-3.211-19.012l2.218 10.282m-2.625-3.27l2.625 3.27 1.043-4.063m-3.464-18.969l2.625 10.282m-2.747-3.172l2.747 3.172.886-4.098m-3.71-18.934l3.023 10.282m-2.856-3.07l2.856 3.07.742-4.125m-3.969-18.907l3.43 10.282m-2.969-2.965l2.969 2.965.59-4.153m-4.22-18.879l3.83 10.282m-3.067-2.86l3.066 2.86.45-4.168m16.55 235.53l-3.828 11.493m-.594-4.152l.594 4.152 2.965-2.965m.664-21.277l-3.43 11.492m-.722-4.129l.722 4.13 2.871-3.06m.356-21.183l-3.024 11.492m-.86-4.105l.86 4.105 2.766-3.148m.059-21.094l-2.625 11.492m-.993-4.074l.993 4.074 2.664-3.238m-.243-21.004l-2.218 11.492m-1.13-4.039l1.13 4.04 2.55-3.329m-.535-20.914l-1.812 11.492m-1.27-3.996l1.27 3.996 2.437-3.414m-.828-20.828l-1.41 11.492m-1.402-3.953l1.402 3.953 2.32-3.496m-1.11-20.746l-1.007 11.492m-1.543-3.898l1.543 3.898 2.195-3.574m-1.39-20.668l-.606 11.492m-1.672-3.844l1.672 3.844 2.07-3.648m-1.663-20.594l-.204 11.492m-1.808-3.781l1.808 3.781 1.942-3.719m-1.942-20.523l.204 11.492m-1.942-3.719l1.942 3.72 1.808-3.782m-2.215-20.461l.606 11.492m-2.067-3.648l2.067 3.648 1.676-3.844m-2.48-20.398l1.007 11.492m-2.195-3.574l2.195 3.574 1.539-3.898m-2.75-20.344l1.41 11.492m-2.316-3.492l2.316 3.492 1.406-3.95m-3.015-20.292l1.812 11.492m-2.437-3.41l2.437 3.41 1.27-4M343.39 61.13l2.218 11.492m-2.55-3.328l2.55 3.328 1.13-4.039m-3.551-20.203l2.625 11.492m-2.665-3.238l2.665 3.238.992-4.074m-3.817-20.168l3.024 11.492m-2.77-3.148l2.77 3.148.86-4.105m-4.087-20.137l3.43 11.492m-2.871-3.058l2.87 3.058.724-4.129m-4.352-20.113l3.828 11.492m-2.965-2.965l2.965 2.965.594-4.152" fill="none" stroke-width=".625" stroke-linecap="round" stroke="#00f" stroke-miterlimit="10"/><path d="M199.25 135.125l-.074 4.879-.723 4.762-1.336 4.449-1.898 3.965-2.387 3.316-2.777 2.543-3.063 1.66-3.219.719-3.25-.254-3.148-1.219-2.926-2.132-2.586-2.965-2.144-3.676-1.61-4.238-1.02-4.637-.386-4.848.266-4.863.906-4.691 1.508-4.325 2.05-3.793 2.508-3.101 2.875-2.293 3.118-1.395 3.242-.433 3.234.539 3.098 1.492 2.84 2.387 2.464 3.183 1.997 3.86 1.445 4.37.836 4.72.195 4.87-.457 4.833-1.082 4.601-1.672 4.188-2.195 3.605-2.629 2.879-2.957 2.04-3.164 1.116-3.258.149-3.207-.82-3.031-1.762-2.742-2.63-2.34-3.394-1.84-4.023-1.274-4.492-.652-4.786-.004-4.878.64-4.786 1.263-4.5 1.832-4.035 2.332-3.406 2.734-2.645 3.031-1.777 3.207-.836 3.25.137 3.172 1.098 2.961 2.027 2.637 2.863 2.2 3.594 1.683 4.18 1.093 4.593.465 4.832-.183 4.875-.828 4.72-1.434 4.382-1.984 3.863-2.461 3.2-2.832 2.398-3.094 1.508-3.235.554-3.242-.418-3.12-1.375-2.88-2.28-2.52-3.09-2.058-3.782-1.515-4.316-.915-4.684-.277-4.863.375-4.852 1.008-4.64 1.601-4.246 2.133-3.684 2.582-2.977 2.922-2.148 3.149-1.234 3.246-.274 3.222.7 3.063 1.648 2.785 2.527 2.395 3.309 1.906 3.953 1.347 4.441.731 4.758.086 4.879-.563 4.809-1.187 4.543-1.766 4.101-2.273 3.492-2.692 2.746" fill="none" stroke-width="1.25" stroke-linecap="round" stroke="red" stroke-miterlimit="10"/><path d="M215.5 136.375l-.566 9.695-1.836 9.336-3.04 8.606-4.117 7.523-5.03 6.149-5.747 4.527-6.23 2.723-6.465.812-6.446-1.129-6.168-3.027-5.644-4.809-4.895-6.39-3.949-7.723-2.847-8.746-1.637-9.422-.352-9.719.942-9.633 2.199-9.16 3.367-8.32 4.402-7.152 5.262-5.7 5.91-4.011 6.325-2.176 6.488-.246 6.39 1.691 6.04 3.563 5.449 5.293 4.636 6.808 3.645 8.055 2.504 8.98 1.262 9.547-.024 9.739-1.316 9.53-2.551 8.95-3.684 8.016-4.672 6.754-5.476 5.226-6.059 3.492-6.398 1.618-6.484-.325-6.317-2.246-5.89-4.086-5.231-5.758-4.363-7.207-3.325-8.359-2.152-9.184-.89-9.64.406-9.719 1.68-9.398 2.898-8.715 3.988-7.676 4.93-6.336 5.668-4.738 6.18-2.953 6.453-1.059 6.46.89 6.215 2.798 5.723 4.593 5 6.207 4.078 7.575 2.992 8.636 1.79 9.36.515 9.703-.781 9.664-2.047 9.234-3.227 8.446-4.285 7.312-5.164 5.895-5.844 4.234-6.285 2.41-6.48.488-6.418-1.453-6.098-3.336-5.531-5.086-4.75-6.632-3.774-7.918-2.652-8.883-1.426-9.5-.132-9.73 1.152-9.579 2.402-9.043 3.551-8.148 4.559-6.93 5.386-5.43 5.996-3.714 6.372-1.856 6.488.078 6.351 2.016 5.957 3.863 5.325 5.559 4.48 7.039 3.465 8.234 2.3 9.102 1.051 9.605-.242 9.727-1.527 9.46-2.746 8.817-3.863 7.824-4.82 6.516-5.59 4.95" fill="none" stroke-width="1.25" stroke-linecap="round" stroke="red" stroke-miterlimit="10"/><path d="M236.125 137.625l-1.14 15.816-3.215 15.164-5.16 13.907-6.895 12.086-8.36 9.793-9.492 7.105-10.242 4.137-10.59 1.004-10.508-2.176-10.007-5.262-9.118-8.14-7.851-10.692-6.281-12.82-4.461-14.438-2.457-15.48-.36-15.902 1.758-15.692 3.797-14.855 5.691-13.426 7.356-11.469 8.726-9.043 9.75-6.262 10.387-3.234 10.606-.074 10.406 3.09 9.789 6.129 8.781 8.921 7.426 11.364 5.773 13.347 3.887 14.805 1.856 15.668-.262 15.906-2.363 15.512-4.372 14.496-6.199 12.91-7.789 10.801-9.066 8.266-9.977 5.398-10.496 2.317-10.59-.852-10.265-3.996-9.536-6.973-8.421-9.68-6.97-11.992-5.241-13.832-3.309-15.117-1.238-15.8.879-15.856 2.96-15.277 4.926-14.094 6.696-12.344 8.191-10.102 9.371-7.457 10.172-4.515 10.567-1.399 10.539 1.782 10.093 4.886 9.246 7.797 8.032 10.395 6.492 12.586 4.695 14.261 2.715 15.383.621 15.883-1.492 15.754-3.55 14.992-5.466 13.637-7.164 11.734-8.57 9.367-9.645 6.63-10.332 3.617-10.601.468-10.453-2.699-9.887-5.758-8.93-8.594-7.61-11.082-5.991-13.128-4.133-14.653-2.113-15.594v-15.91l2.101-15.593 4.13-14.657 5.983-13.136 7.61-11.09 8.922-8.598 9.883-5.773 10.453-2.707 10.601.457 10.332 3.609 9.649 6.617 8.578 9.36 7.164 11.726 5.473 13.633 3.558 14.988 1.5 15.75-.617 15.883-2.707 15.387-4.688 14.27-6.488 12.59-8.023 10.401-9.243 7.805" fill="none" stroke-width="1.25" stroke-linecap="round" stroke="red" stroke-miterlimit="10"/><path d="M182.375 37.625l13.176 1.797 12.672 5.683 11.668 9.348 10.199 12.64 8.32 15.423 6.11 17.601 3.66 19.067 1.058 19.777-1.578 19.703-4.16 18.836-6.57 17.223-8.72 14.918-10.523 12.027-11.902 8.648-12.816 4.93-13.211 1.016-13.082-2.946-12.43-6.785-11.285-10.355-9.688-13.508-7.707-16.129-5.418-18.101-2.91-19.356-.289-19.836 2.344-19.527 4.883-18.442 7.23-16.62 9.285-14.134 10.97-11.082 12.222-7.593 12.984-3.801 13.227.144 12.945 4.086 12.149 7.86 10.859 11.324 9.148 14.332 7.067 16.777 4.703 18.543 2.152 19.578-.48 19.829-3.102 19.293-5.59 17.98-7.863 15.957-9.82 13.297-11.383 10.105-12.496 6.508-13.11 2.66-13.199-1.304-12.761-5.207-11.82-8.91-10.407-12.254-8.57-15.11-6.403-17.367-3.976-18.926-1.387-19.73 1.254-19.754 3.844-18.985 6.28-17.46 8.47-15.243 10.32-12.414 11.758-9.093 12.726-5.407 13.192-1.504 13.125 2.453 12.539 6.32 11.453 9.927 9.91 13.144 7.973 15.832 5.715 17.895 3.23 19.242.617 19.82-2.02 19.61-4.573 18.617-6.95 16.883-9.047 14.472-10.785 11.492-12.093 8.047-12.915 4.282-13.226.351-13.008-3.598-12.273-7.406-11.047-10.914-9.383-13.988-7.34-16.504-5.012-18.363-2.476-19.493.152-19.84 2.778-19.398 5.292-18.183 7.594-16.247 9.598-13.66 11.21-10.523 12.384-6.977 13.062-3.144 13.215.804 12.848 4.735 11.964 8.465 10.606 11.86 8.82 14.784 6.688 17.121" fill="none" stroke-width="1.25" stroke-linecap="round" stroke="red" stroke-miterlimit="10"/><g clip-path="url(#v)"><path d="M183 20.75l15.398 2.316 14.782 6.86 13.578 11.129 11.836 14.953 9.62 18.18 7.016 20.687 4.141 22.363 1.098 23.153-1.996 23.02-5 21.964-7.813 20.035-10.308 17.309-12.399 13.89-13.988 9.922-15.024 5.555-15.46.965-15.282-3.66-14.492-8.141-13.121-12.297-11.234-15.965-8.899-18.992-6.2-21.262-3.265-22.691-.191-23.207 2.887-22.805 5.847-21.488 8.578-19.32 10.965-16.375 12.914-12.786 14.352-8.68 15.215-4.23 15.472.391 15.11 4.992 14.148 9.395 12.625 13.422 10.594 16.918 8.14 19.738 5.368 21.773 2.375 22.934-.711 23.187-3.77 22.512-6.672 20.941-9.312 18.536-11.582 15.39-13.395 11.63-14.664 7.41-15.351 2.89-15.43-1.742-14.895-6.305-13.757-10.617-12.078-14.504-9.918-17.816-7.36-20.418-4.512-22.204-1.476-23.101 1.61-23.086 4.636-22.145 7.477-20.32 10.015-17.687 12.164-14.352 13.82-10.437 14.926-6.118 15.442-1.543 15.336 3.09 14.62 7.598 13.321 11.805 11.496 15.535 9.207 18.652 6.555 21.027 3.637 22.563.578 23.191-2.504 22.903-5.488 21.703-8.254 19.633-10.692 16.78-12.699 13.263-14.203 9.21-15.137 4.797-15.472.192-15.192-4.426-14.3-8.863-12.84-12.95L122.69 210l-8.468-19.426-5.723-21.562-2.758-22.84.328-23.203 3.39-22.649 6.325-21.18 9.004-18.878 11.324-15.817 13.192-12.129 14.539-7.953 15.297-3.465 15.453 1.165 14.996 5.746 13.93 10.101 12.316 14.05 10.21 17.438 7.696 20.137" fill="none" stroke-width="1.25" stroke-linecap="round" stroke="red" stroke-miterlimit="10"/></g></svg>