<svg xmlns="http://www.w3.org/2000/svg" xmlns:xlink="http://www.w3.org/1999/xlink" width="123.256" height="93.256" viewBox="0 0 92.442 69.942"><defs><clipPath id="a"><path d="M.5.441v69h92v-69zm80.86 57.5h10.742v-5.398H81.359l9 2.7zm0 0"/></clipPath><clipPath id="b"><path d="M74 46h18.441v19H74zm0 0"/></clipPath><clipPath id="c"><path d="M.5.441v69h92v-69zm16.898 10.641V.344H12v10.738l2.7-9zm0 0"/></clipPath><clipPath id="d"><path d="M5 .441h19V18H5zm0 0"/></clipPath><clipPath id="e"><path d="M.5.441v69h92v-69zm58.84 21.622l1.558-1.262-2.52-3.18-1.558 1.262zm0 0"/></clipPath><symbol overflow="visible" id="f"><path d="M6.844-6.031c0-1.36-.39-2.36-1.907-2.36C1.829-8.39.845-4.92.845-2.375.844-.953 1.28.188 2.906.188c2.813 0 3.938-3.97 3.938-6.22zm-.875-.157c0 .547-.094 1.094-.188 1.641H2.016c.28-1.25 1.156-3.531 2.703-3.531 1.031 0 1.25 1.078 1.25 1.89zm-.25 2.016c-.266 1.344-.922 4.016-2.64 4.016C1.874-.156 1.75-1.5 1.75-2.422c0-.594.11-1.172.203-1.75zm0 0"/></symbol><symbol overflow="visible" id="i"><path d="M2.61-1.297l-.172-.172c-.391.125-.766.266-1.172.36C1.187-.08.719.859.187 1.719l.172.14.485-.234c.703-.89 1.375-1.86 1.765-2.922zm0 0"/></symbol><symbol overflow="visible" id="g"><path d="M4.406-4.36c.032-.452.094-.843.188-1.327-.14-.063-.188-.079-.25-.079-.36 0-.735.297-1.172.907l-.313.453c-.468.672-.609.922-.796 1.343l.093-.484c.047-.281.14-.75.203-1.015l.079-.313a2.37 2.37 0 00.078-.5c0-.25-.094-.39-.282-.39-.25 0-.703.25-1.593.89l-.329.234.079.235.39-.25c.328-.203.469-.266.563-.266.125 0 .203.11.203.266 0 .687-.5 3.156-.984 4.687L.688.11c.171-.062.359-.093.64-.156l.156-.031.313-1.422c.219-1 .484-1.625 1.016-2.313.406-.53.718-.78.984-.78.187 0 .297.062.437.234zm0 0"/></symbol><symbol overflow="visible" id="h"><path d="M3.64-9.031C1.813-7.844.72-5.797.72-3.234c0 2.343 1.14 4.578 2.875 5.78l.156-.202C2.094.906 1.812-.484 1.812-3.281c0-2.781.313-4.219 1.938-5.547zm0 0"/></symbol><symbol overflow="visible" id="j"><path d="M.5-9.031l-.125.203C2.015-7.5 2.328-6.063 2.328-3.281c0 2.797-.281 4.187-1.953 5.625l.156.203c1.75-1.203 2.89-3.438 2.89-5.781 0-2.563-1.108-4.61-2.921-5.797zm0 0"/></symbol></defs><path d="M41.703 55.242a28.145 28.145 0 00-5.941-16.922" fill="none" stroke-width=".45" stroke="#000" stroke-miterlimit="10"/><g clip-path="url(#a)" clip-rule="evenodd"><path d="M1.2 55.242h90" fill="none" stroke-width=".45" stroke="#000" stroke-miterlimit="10"/></g><g clip-path="url(#b)"><path d="M81.36 57.941l9-2.699-9-2.699" fill="none" stroke-width=".45" stroke="#000" stroke-miterlimit="10"/></g><g clip-path="url(#c)" clip-rule="evenodd"><path d="M14.7 68.742v-67.5" fill="none" stroke-width=".45" stroke="#000" stroke-miterlimit="10"/></g><g clip-path="url(#d)"><path d="M17.398 11.082l-2.699-9-2.699 9" fill="none" stroke-width=".45" stroke="#000" stroke-miterlimit="10"/></g><g clip-path="url(#e)" clip-rule="evenodd"><path d="M14.7 55.242l45-36" fill="none" stroke-width=".45" stroke="#000" stroke-miterlimit="10"/></g><path d="M59.219 21.883l.18-.18.183-.242.117-.238.121-.301.059-.238v-.301l-.059-.301-.058-.238-.121-.301-.18-.242-.242-.18-.239-.18-.242-.12-.297-.06-.242-.058h-.3l-.297.059-.301.12-.242.122-.239.18-.18.238-.12.238-.122.242-.117.301v.598l.059.242.12.3.18.239.18.18.239.242.242.117.238.121.3.059h.302l.3-.059.239-.058.3-.122.239-.18" fill-rule="evenodd"/><path d="M59.219 21.883l.18-.18.183-.242.117-.238.121-.301.059-.238v-.301l-.059-.301-.058-.238-.121-.301-.18-.242-.242-.18-.239-.18-.242-.12-.297-.06-.242-.058h-.3l-.297.059-.301.12-.242.122-.239.18-.18.238-.12.238-.122.242-.117.301v.598l.059.242.12.3.18.239.18.18.239.242.242.117.238.121.3.059h.302l.3-.059.239-.058.3-.122zm0 0" fill="none" stroke-width=".45" stroke="#000" stroke-miterlimit="10"/><use xlink:href="#f" x="44.72" y="46.221"/><use xlink:href="#g" x="26.959" y="31.941"/><use xlink:href="#h" x="45.141" y="15.261"/><use xlink:href="#g" x="49.636" y="15.261"/><use xlink:href="#i" x="54.705" y="15.261"/><use xlink:href="#f" x="60.288" y="15.261"/><use xlink:href="#j" x="67.983" y="15.261"/></svg>