<svg xmlns="http://www.w3.org/2000/svg" xmlns:xlink="http://www.w3.org/1999/xlink" width="504" height="274pt" viewBox="0 0 378 274"><defs><clipPath id="j"><path d="M19 161h340v1H19zm0 0"/></clipPath><clipPath id="e"><path d="M188 8.5h2v255h-2zm0 0"/></clipPath><clipPath id="t"><path d="M19 8.5h267V177H19zm0 0"/></clipPath><clipPath id="m"><path d="M19 8.5h340V9H19zm0 0"/></clipPath><clipPath id="l"><path d="M19 59h340v1H19zm0 0"/></clipPath><clipPath id="k"><path d="M19 110h340v1H19zm0 0"/></clipPath><clipPath id="a"><path d="M188 8.5h2v255h-2zm0 0"/></clipPath><clipPath id="b"><path d="M19 161h340v1H19zm0 0"/></clipPath><clipPath id="c"><path d="M19 8.5h1v255h-1zm0 0"/></clipPath><clipPath id="d"><path d="M103 8.5h2v255h-2zm0 0"/></clipPath><clipPath id="u"><path d="M19 8.5h260V185H19zm0 0"/></clipPath><clipPath id="f"><path d="M273 8.5h2v255h-2zm0 0"/></clipPath><clipPath id="g"><path d="M358 8.5h1v255h-1zm0 0"/></clipPath><clipPath id="h"><path d="M19 263h340v.5H19zm0 0"/></clipPath><clipPath id="i"><path d="M19 212h340v1H19zm0 0"/></clipPath><symbol overflow="visible" id="o"><path d="M3.563-5.313H.828L.422-2.421h.61c.312-.375.562-.5.984-.5.703 0 1.156.485 1.156 1.281 0 .766-.438 1.235-1.156 1.235-.579 0-.938-.297-1.094-.906H.266c.093.437.156.656.312.843.313.406.844.64 1.453.64 1.063 0 1.813-.78 1.813-1.905 0-1.047-.688-1.766-1.719-1.766-.375 0-.672.094-.984.313l.218-1.485h2.204zm0 0"/></symbol><symbol overflow="visible" id="s"><path d="M3.906-5.313H.344v.641h2.875C1.953-2.859 1.438-1.75 1.03 0h.703c.297-1.703.97-3.172 2.172-4.766zm0 0"/></symbol><symbol overflow="visible" id="r"><path d="M3.797-.656H1c.063-.438.313-.703.953-1.094l.75-.406c.75-.406 1.125-.953 1.125-1.594 0-.453-.172-.86-.484-1.14-.328-.298-.719-.423-1.219-.423-.672 0-1.172.235-1.469.688-.187.281-.265.61-.281 1.156h.656c.032-.36.078-.578.157-.75.171-.328.515-.515.921-.515.594 0 1.047.421 1.047.984 0 .422-.25.781-.719 1.063l-.687.39C.64-1.672.312-1.172.25 0h3.547zm0 0"/></symbol><symbol overflow="visible" id="q"><path d="M2.063-5.313c-.5 0-.938.22-1.22.579C.5-4.266.329-3.563.329-2.578c0 1.797.594 2.75 1.734 2.75 1.126 0 1.735-.953 1.735-2.703 0-1.031-.156-1.719-.516-2.203-.281-.375-.719-.579-1.219-.579zm0 .579c.718 0 1.062.718 1.062 2.14 0 1.516-.344 2.219-1.078 2.219C1.344-.375 1-1.109 1-2.563c0-1.453.344-2.171 1.063-2.171zm0 0"/></symbol><symbol overflow="visible" id="p"><path d="M1.438-.781H.655V0h.781zm0 0"/></symbol><symbol overflow="visible" id="n"><path d="M2.125-2.344H.344v.547h1.781zm0 0"/></symbol></defs><path d="M19 263.5h340V8.5H19zm0 0" fill="#fff"/><g clip-path="url(#a)"><path d="M189 263.5V8.5" fill="none" stroke-width=".625" stroke-linecap="round" stroke="#bfbfbf" stroke-miterlimit="10"/></g><g clip-path="url(#b)"><path d="M19 161.5h340" fill="none" stroke-width=".625" stroke-linecap="round" stroke="#bfbfbf" stroke-miterlimit="10"/></g><g clip-path="url(#c)"><path d="M19 263.5V8.5" fill="none" stroke-width=".625" stroke-linecap="round" stroke="#bfbfbf" stroke-dasharray="12.5,18.75" stroke-miterlimit="10"/></g><g clip-path="url(#d)"><path d="M104 263.5V8.5" fill="none" stroke-width=".625" stroke-linecap="round" stroke="#bfbfbf" stroke-dasharray="12.5,18.75" stroke-miterlimit="10"/></g><g clip-path="url(#e)"><path d="M189 263.5V8.5" fill="none" stroke-width=".625" stroke-linecap="round" stroke="#bfbfbf" stroke-dasharray="12.5,18.75" stroke-miterlimit="10"/></g><g clip-path="url(#f)"><path d="M274 263.5V8.5" fill="none" stroke-width=".625" stroke-linecap="round" stroke="#bfbfbf" stroke-dasharray="12.5,18.75" stroke-miterlimit="10"/></g><g clip-path="url(#g)"><path d="M359 263.5V8.5" fill="none" stroke-width=".625" stroke-linecap="round" stroke="#bfbfbf" stroke-dasharray="12.5,18.75" stroke-miterlimit="10"/></g><g clip-path="url(#h)"><path d="M19 263.5h340" fill="none" stroke-width=".625" stroke-linecap="round" stroke="#bfbfbf" stroke-dasharray="12.5,18.75" stroke-miterlimit="10"/></g><g clip-path="url(#i)"><path d="M19 212.5h340" fill="none" stroke-width=".625" stroke-linecap="round" stroke="#bfbfbf" stroke-dasharray="12.5,18.75" stroke-miterlimit="10"/></g><g clip-path="url(#j)"><path d="M19 161.5h340" fill="none" stroke-width=".625" stroke-linecap="round" stroke="#bfbfbf" stroke-dasharray="12.5,18.75" stroke-miterlimit="10"/></g><g clip-path="url(#k)"><path d="M19 110.5h340" fill="none" stroke-width=".625" stroke-linecap="round" stroke="#bfbfbf" stroke-dasharray="12.5,18.75" stroke-miterlimit="10"/></g><g clip-path="url(#l)"><path d="M19 59.5h340" fill="none" stroke-width=".625" stroke-linecap="round" stroke="#bfbfbf" stroke-dasharray="12.5,18.75" stroke-miterlimit="10"/></g><g clip-path="url(#m)"><path d="M19 8.5h340" fill="none" stroke-width=".625" stroke-linecap="round" stroke="#bfbfbf" stroke-dasharray="12.5,18.75" stroke-miterlimit="10"/></g><path d="M19 263.5h340" fill="none" stroke-width="1.25" stroke-linecap="square" stroke="#000" stroke-miterlimit="10"/><path d="M19 263.5v-5m8.5 5V261m8.5 2.5V261m8.5 2.5V261m8.5 2.5V261m8.5 2.5V261m8.5 2.5V261m8.5 2.5V261m8.5 2.5V261m8.5 2.5V261m8.5 2.5v-5m8.5 5V261m8.5 2.5V261m8.5 2.5V261m8.5 2.5V261m8.5 2.5V261m8.5 2.5V261m8.5 2.5V261m8.5 2.5V261m8.5 2.5V261m8.5 2.5v-5m8.5 5V261m8.5 2.5V261m8.5 2.5V261m8.5 2.5V261m8.5 2.5V261m8.5 2.5V261m8.5 2.5V261m8.5 2.5V261m8.5 2.5V261m8.5 2.5v-5m8.5 5V261m8.5 2.5V261m8.5 2.5V261m8.5 2.5V261m8.5 2.5V261m8.5 2.5V261m8.5 2.5V261m8.5 2.5V261m8.5 2.5V261m8.5 2.5v-5" fill="none" stroke-width=".625" stroke="#000" stroke-miterlimit="10"/><use xlink:href="#n" x="12.539" y="273.5"/><use xlink:href="#o" x="15.037" y="273.5"/><use xlink:href="#p" x="19.207" y="273.5"/><use xlink:href="#q" x="21.292" y="273.5"/><use xlink:href="#n" x="97.539" y="273.5"/><use xlink:href="#r" x="100.037" y="273.5"/><use xlink:href="#p" x="104.207" y="273.5"/><use xlink:href="#o" x="106.292" y="273.5"/><use xlink:href="#q" x="183.788" y="273.5"/><use xlink:href="#p" x="187.958" y="273.5"/><use xlink:href="#q" x="190.043" y="273.5"/><use xlink:href="#r" x="268.788" y="273.5"/><use xlink:href="#p" x="272.958" y="273.5"/><use xlink:href="#o" x="275.043" y="273.5"/><use xlink:href="#o" x="353.788" y="273.5"/><use xlink:href="#p" x="357.958" y="273.5"/><use xlink:href="#q" x="360.043" y="273.5"/><path d="M19 8.5h340" fill="none" stroke-width="1.25" stroke-linecap="square" stroke="#000" stroke-miterlimit="10"/><path d="M19 8.5v5m8.5-5V11M36 8.5V11m8.5-2.5V11M53 8.5V11m8.5-2.5V11M70 8.5V11m8.5-2.5V11M87 8.5V11m8.5-2.5V11m8.5-2.5v5m8.5-5V11m8.5-2.5V11m8.5-2.5V11m8.5-2.5V11m8.5-2.5V11m8.5-2.5V11m8.5-2.5V11m8.5-2.5V11m8.5-2.5V11m8.5-2.5v5m8.5-5V11m8.5-2.5V11m8.5-2.5V11m8.5-2.5V11m8.5-2.5V11m8.5-2.5V11m8.5-2.5V11m8.5-2.5V11m8.5-2.5V11m8.5-2.5v5m8.5-5V11m8.5-2.5V11m8.5-2.5V11m8.5-2.5V11m8.5-2.5V11m8.5-2.5V11m8.5-2.5V11m8.5-2.5V11m8.5-2.5V11m8.5-2.5v5" fill="none" stroke-width=".625" stroke="#000" stroke-miterlimit="10"/><use xlink:href="#n" x="12.539" y="6"/><use xlink:href="#o" x="15.037" y="6"/><use xlink:href="#p" x="19.207" y="6"/><use xlink:href="#q" x="21.292" y="6"/><use xlink:href="#n" x="97.539" y="6"/><use xlink:href="#r" x="100.037" y="6"/><use xlink:href="#p" x="104.207" y="6"/><use xlink:href="#o" x="106.292" y="6"/><use xlink:href="#q" x="183.788" y="6"/><use xlink:href="#p" x="187.958" y="6"/><use xlink:href="#q" x="190.043" y="6"/><use xlink:href="#r" x="268.788" y="6"/><use xlink:href="#p" x="272.958" y="6"/><use xlink:href="#o" x="275.043" y="6"/><use xlink:href="#o" x="353.788" y="6"/><use xlink:href="#p" x="357.958" y="6"/><use xlink:href="#q" x="360.043" y="6"/><path d="M19 263.5V8.5" fill="none" stroke-width="1.25" stroke-linecap="square" stroke="#000" stroke-miterlimit="10"/><path d="M19 263.5h5m-5-5.102h2.5m-2.5-5.097h2.5m-2.5-5.102h2.5m-2.5-5.097h2.5M19 238h2.5m-2.5-5.102h2.5m-2.5-5.097h2.5m-2.5-5.102h2.5m-2.5-5.097h2.5M19 212.5h5m-5-5.102h2.5m-2.5-5.097h2.5m-2.5-5.102h2.5m-2.5-5.097h2.5M19 187h2.5m-2.5-5.102h2.5m-2.5-5.097h2.5m-2.5-5.102h2.5m-2.5-5.097h2.5M19 161.5h5m-5-5.102h2.5m-2.5-5.097h2.5m-2.5-5.102h2.5m-2.5-5.097h2.5M19 136h2.5m-2.5-5.102h2.5m-2.5-5.097h2.5m-2.5-5.102h2.5m-2.5-5.097h2.5M19 110.5h5m-5-5.102h2.5m-2.5-5.097h2.5M19 95.199h2.5M19 90.102h2.5M19 85h2.5M19 79.898h2.5M19 74.801h2.5M19 69.699h2.5M19 64.602h2.5M19 59.5h5m-5-5.102h2.5M19 49.301h2.5M19 44.199h2.5M19 39.102h2.5M19 34h2.5M19 28.898h2.5M19 23.801h2.5M19 18.699h2.5M19 13.602h2.5M19 8.5h5" fill="none" stroke-width=".625" stroke="#000" stroke-miterlimit="10"/><use xlink:href="#n" x="-.172" y="267.25"/><use xlink:href="#o" x="2.326" y="267.25"/><use xlink:href="#p" x="6.496" y="267.25"/><use xlink:href="#q" x="8.581" y="267.25"/><use xlink:href="#n" x="-.172" y="216"/><use xlink:href="#r" x="2.326" y="216"/><use xlink:href="#p" x="6.496" y="216"/><use xlink:href="#o" x="8.581" y="216"/><use xlink:href="#q" x="2.325" y="164.75"/><use xlink:href="#p" x="6.495" y="164.75"/><use xlink:href="#q" x="8.58" y="164.75"/><use xlink:href="#r" x="2.325" y="114.125"/><use xlink:href="#p" x="6.495" y="114.125"/><use xlink:href="#o" x="8.58" y="114.125"/><use xlink:href="#o" x="2.325" y="62.875"/><use xlink:href="#p" x="6.495" y="62.875"/><use xlink:href="#q" x="8.58" y="62.875"/><use xlink:href="#s" x="2.325" y="12.25"/><use xlink:href="#p" x="6.495" y="12.25"/><use xlink:href="#o" x="8.58" y="12.25"/><path d="M359 263.5V8.5" fill="none" stroke-width="1.25" stroke-linecap="square" stroke="#000" stroke-miterlimit="10"/><path d="M359 263.5h-5m5-5.102h-2.5m2.5-5.097h-2.5m2.5-5.102h-2.5m2.5-5.097h-2.5M359 238h-2.5m2.5-5.102h-2.5m2.5-5.097h-2.5m2.5-5.102h-2.5m2.5-5.097h-2.5m2.5-5.102h-5m5-5.102h-2.5m2.5-5.097h-2.5m2.5-5.102h-2.5m2.5-5.097h-2.5M359 187h-2.5m2.5-5.102h-2.5m2.5-5.097h-2.5m2.5-5.102h-2.5m2.5-5.097h-2.5m2.5-5.102h-5m5-5.102h-2.5m2.5-5.097h-2.5m2.5-5.102h-2.5m2.5-5.097h-2.5M359 136h-2.5m2.5-5.102h-2.5m2.5-5.097h-2.5m2.5-5.102h-2.5m2.5-5.097h-2.5m2.5-5.102h-5m5-5.102h-2.5m2.5-5.097h-2.5m2.5-5.102h-2.5m2.5-5.097h-2.5M359 85h-2.5m2.5-5.102h-2.5m2.5-5.097h-2.5m2.5-5.102h-2.5m2.5-5.097h-2.5M359 59.5h-5m5-5.102h-2.5m2.5-5.097h-2.5m2.5-5.102h-2.5m2.5-5.097h-2.5M359 34h-2.5m2.5-5.102h-2.5m2.5-5.097h-2.5m2.5-5.102h-2.5m2.5-5.097h-2.5M359 8.5h-5" fill="none" stroke-width=".625" stroke="#000" stroke-miterlimit="10"/><use xlink:href="#n" x="365.25" y="267.25"/><use xlink:href="#o" x="367.748" y="267.25"/><use xlink:href="#p" x="371.918" y="267.25"/><use xlink:href="#q" x="374.002" y="267.25"/><use xlink:href="#n" x="365.25" y="216"/><use xlink:href="#r" x="367.748" y="216"/><use xlink:href="#p" x="371.918" y="216"/><use xlink:href="#o" x="374.002" y="216"/><use xlink:href="#q" x="365.25" y="164.75"/><use xlink:href="#p" x="369.42" y="164.75"/><use xlink:href="#q" x="371.505" y="164.75"/><use xlink:href="#r" x="365.25" y="114.125"/><use xlink:href="#p" x="369.42" y="114.125"/><use xlink:href="#o" x="371.505" y="114.125"/><use xlink:href="#o" x="365.25" y="62.875"/><use xlink:href="#p" x="369.42" y="62.875"/><use xlink:href="#q" x="371.505" y="62.875"/><use xlink:href="#s" x="365.25" y="12.25"/><use xlink:href="#p" x="369.42" y="12.25"/><use xlink:href="#o" x="371.505" y="12.25"/><g clip-path="url(#t)"><path d="M19 153.719l.625-.406.625-.387.625-.375.625-.363.625-.344.625-.328.625-.313.625-.297.625-.277.625-.258.625-.242.625-.227.625-.203.625-.187.625-.164.625-.149.625-.129.625-.11.625-.085.625-.07.625-.047.625-.031.625-.008.625.011.625.032.625.047.625.07.625.09.625.105.625.13.625.144.625.16.625.183.625.2.625.214.625.23.625.25.625.267.625.277.625.297.625.308.625.325.625.336.625.351.625.363.625.371.625.387.625.399.625.406.625.414.625.426.625.433.625.438.625.449.625.453.625.461.625.465.625.469 1.25.945 3.125 2.402.625.485.625.476.625.48 1.25.946.625.469.625.465.625.46.625.454.625.449.625.441.625.438.625.426.625.418.625.414.625.402.625.395.625.382.625.375.625.364.625.351.625.344.625.328.625.32.625.305.625.297.625.281.625.266.625.258.625.242.625.226.625.22.625.198.625.188.625.176.625.156.625.144.625.133.625.117.625.102.625.086.625.074.625.059.625.043.625.03.625.017H89l.625-.012.625-.027.625-.043.625-.051.625-.07.625-.083.625-.093.625-.11.625-.12.625-.134.625-.148.625-.16.625-.168.625-.184.625-.195.625-.203.625-.219.625-.227.625-.242.625-.246.625-.258.625-.27.625-.276.625-.29.625-.293.625-.304.625-.313.625-.32.625-.328.625-.336.625-.34.625-.348.625-.355.625-.36.625-.367.625-.37.625-.376 1.25-.765 1.25-.782.625-.394.625-.402.625-.399.625-.402.625-.406.625-.41.625-.407 1.25-.82.625-.414 1.25-.82.625-.415 1.25-.82.625-.406.625-.41.625-.407 1.25-.804 1.25-.797.625-.395 1.25-.781 1.25-.766.625-.378.625-.375.625-.372 1.25-.726 1.25-.711.625-.348 1.25-.68.625-.331.625-.329.625-.324.625-.316 1.25-.617.625-.301.625-.293.625-.29.625-.28.625-.278.625-.273.625-.266.625-.258.625-.254.625-.246.625-.242.625-.234.625-.23.625-.223.625-.22.625-.21.625-.203.625-.2.625-.195.625-.187.625-.18.625-.176.625-.172.625-.164.625-.16.625-.152.625-.149.625-.14.625-.137.625-.133.625-.125.625-.12 1.25-.227.625-.106.625-.101 1.25-.188 1.25-.172.625-.078.625-.074.625-.07 1.25-.125.625-.059.625-.055.625-.05 1.25-.094 1.25-.078.625-.036.625-.03 1.25-.055 1.25-.047.625-.02 1.875-.047.625-.011 1.875-.024.625-.004.625-.008.625-.004h.625l.625-.003h4.375l.625-.004h1.875l1.875-.012 2.5-.031.625-.012 1.875-.047.625-.02 1.25-.046 1.25-.055.625-.031.625-.035.625-.04 1.25-.085 1.25-.102.625-.055.625-.058 1.25-.133 1.25-.149.625-.082.625-.085.625-.09.625-.098.625-.102.625-.105.625-.113.625-.117.625-.125.625-.13.625-.136.625-.145.625-.148.625-.156.625-.164.625-.168.625-.18.625-.188.625-.19.625-.2.625-.211.625-.219.625-.226.625-.235.625-.246.625-.254.625-.262.625-.273.625-.281.625-.297.625-.305.625-.312.625-.328.625-.34.625-.352.625-.36.625-.374.625-.39.625-.403.625-.414.625-.43.625-.441.625-.461.625-.473.625-.488.625-.508.625-.52.625-.539.625-.558.625-.574.625-.594.625-.61.625-.632.625-.653.625-.672.625-.695.625-.719.625-.738.625-.762.625-.785.625-.812.625-.836.625-.863.625-.891.625-.918.625-.945.625-.977.625-1.008.625-1.035.625-1.074.625-1.102.625-1.14.625-1.176.625-1.207.625-1.25.625-1.29.625-1.327.625-1.371.625-1.414.625-1.458.625-1.5.625-1.55.625-1.602.625-1.648.625-1.703.625-1.754.625-1.809.625-1.871.625-1.926.625-1.988.625-2.05.625-2.118.625-2.188.625-2.253.625-2.325.625-2.402.625-2.477.625-2.558.625-2.64.625-2.727.625-2.813.625-2.906.625-3 .625-3.098.625-3.195.625-3.305.625-3.41.625-3.52.625-3.64.625-3.758.625-3.883.625-4.011.625-4.145.625-4.281.625-4.422.625-4.574L284-6.34l.625-4.883.625-5.047" fill="none" stroke-width="1.25" stroke-linecap="round" stroke-linejoin="round" stroke="#00008b" stroke-miterlimit="10"/></g><g clip-path="url(#u)"><path d="M19 178.473l.625-.106.625-.129.625-.16.625-.187.625-.215.625-.238.625-.27.625-.293.625-.316.625-.344.625-.367.625-.391.625-.414.625-.434.625-.457.625-.472.625-.496.625-.512.625-.535.625-.547.625-.563.625-.578.625-.594.625-.605.625-.617.625-.63.625-.636.625-.648.625-.656.625-.66.625-.669.625-.671.625-.676.625-.684 1.25-1.36.625-.683 1.25-1.36 1.25-1.343.625-.668 1.25-1.312.625-.645.625-.637.625-.625.625-.617.625-.605.625-.594.625-.578.625-.57.625-.551.625-.54.625-.519.625-.508.625-.488.625-.473.625-.453.625-.437.625-.414.625-.399.625-.379.625-.355.625-.34.625-.316.625-.293.625-.274.625-.25.625-.23.625-.207.625-.188.625-.164.625-.14.625-.118.625-.093.625-.075.625-.05.625-.028.625-.004.625.016.625.039.625.063.625.082.625.101.625.125.625.149.625.168.625.187.625.207.625.23.625.247.625.265.625.285.625.305.625.32.625.34.625.356.625.37.625.388.625.406.625.418.625.43.625.449.625.457.625.472.625.489.625.492.625.508.625.52.625.526.625.536.625.547.625.554.625.559.625.57.625.574.625.578.625.586.625.59.625.594 1.25 1.195.625.606.625.601L99 162.137l.625.601.625.606 1.25 1.203 1.25 1.187.625.59.625.586.625.582.625.578.625.57.625.567.625.559.625.55.625.547.625.54.625.527.625.523.625.512.625.504.625.496.625.484.625.477.625.465.625.453.625.445.625.434.625.422.625.41.625.402.625.387.625.375.625.367.625.351.625.34.625.328.625.313.625.305.625.289.625.277.625.266.625.25.625.238.625.227.625.21.625.204.625.183.625.176.625.16.625.149.625.136.625.125.625.11.625.097.625.086.625.074.625.06.625.05.625.035.625.023.625.012.625.004.625-.012.625-.023.625-.031.625-.043.625-.059.625-.062.625-.079.625-.085.625-.098.625-.106.625-.12.625-.126.625-.136.625-.145.625-.156.625-.164.625-.172.625-.18.625-.187.625-.2.625-.203.625-.215.625-.218.625-.227.625-.234.625-.242.625-.25.625-.254.625-.258.625-.27.625-.273.625-.277.625-.286.625-.289.625-.293.625-.296.625-.305.625-.309.625-.312.625-.317.625-.32.625-.324.625-.328 1.25-.664 1.25-.68.625-.344 1.25-.695 1.25-.703 1.25-.711.625-.36.625-.363.625-.36.625-.363 1.25-.734.625-.363.625-.371.625-.367 1.875-1.114.625-.375 1.25-.742 1.875-1.125.625-.371 11.25-6.75.625-.379 1.875-1.125 1.25-.758.625-.375 1.25-.758.625-.382 1.25-.758.625-.387 1.25-.766.625-.386 2.5-1.563.625-.394 1.25-.797.625-.402 1.25-.813.625-.41 1.25-.828.625-.422 1.25-.852.625-.43.625-.437.625-.441.625-.446.625-.449.625-.453.625-.46 1.25-.938.625-.48.625-.485.625-.492.625-.497.625-.507.625-.516.625-.52.625-.53.625-.54.625-.547.625-.554.625-.57.625-.575.625-.59.625-.597.625-.61.625-.62.625-.634.625-.644.625-.66.625-.672.625-.688.625-.703.625-.715.625-.73.625-.75.625-.766.625-.781.625-.8.625-.817.625-.836.625-.86.625-.878.625-.899.625-.922.625-.941.625-.969.625-.992.625-1.016.625-1.043.625-1.07.625-1.098.625-1.125.625-1.156.625-1.183.625-1.22.625-1.25.625-1.28.625-1.32.625-1.356.625-1.39.625-1.434.625-1.47.625-1.511.625-1.555.625-1.597.625-1.645.625-1.687.625-1.743.625-1.785.625-1.843.625-1.891.625-1.953.625-2.004.625-2.066.625-2.13.625-2.19.625-2.255.625-2.324.625-2.39.625-2.465.625-2.543.625-2.618.625-2.695.625-2.777.625-2.867.625-2.954.625-3.042.625-3.141.625-3.234.625-3.34.625-3.442.625-3.55.625-3.665.625-3.777.625-3.898.625-4.024.625-4.148.625-4.285.625-4.422.625-4.563.625-4.71.625-4.864" fill="none" stroke-width="1.25" stroke-linecap="round" stroke-linejoin="round" stroke="#006400" stroke-miterlimit="10"/></g></svg>