<svg xmlns="http://www.w3.org/2000/svg" xmlns:xlink="http://www.w3.org/1999/xlink" width="483.265" height="103.576" viewBox="0 0 362.449 77.682"><defs><symbol overflow="visible" id="m"><path d="M.25-1.047c0 .234-.016.39-.094.766-.031.156-.031.187-.047.265.172.094.375.141.516.141.39 0 .86-.344 1.234-.906l.907-1.39.125.827C3.047-.328 3.328.125 3.75.125c.266 0 .656-.203 1.031-.547l.578-.516-.093-.234c-.438.36-.735.531-.922.531C4.156-.64 4-.75 3.89-.984a4.761 4.761 0 01-.313-1.032l-.203-1.203.422-.578c.547-.781.875-1.062 1.25-1.062.187 0 .328.109.39.28l.172-.046.172-1.016c-.14-.078-.25-.125-.36-.125-.468 0-.952.438-1.687 1.532l-.453.656-.062-.563c-.14-1.187-.469-1.625-1.172-1.625-.313 0-.578.094-.688.25l-.687 1 .203.11c.36-.407.594-.563.828-.563.39 0 .656.485.86 1.657l.124.75-.468.734C1.703-1.031 1.297-.641.953-.641.781-.64.641-.687.625-.75l-.14-.344zm0 0"/></symbol><symbol overflow="visible" id="n"><path d="M4.078-3.203c0-1.922-.578-2.844-1.766-2.844C.954-6.047.25-4.969.25-2.844.25-1.813.438-.922.75-.5c.297.438.797.672 1.344.672 1.312 0 1.984-1.14 1.984-3.375zm-.734.437c0 1.86-.344 2.641-1.14 2.641-.86 0-1.22-.89-1.22-3.031 0-1.844.329-2.578 1.157-2.578.859 0 1.203.859 1.203 2.968zm0 0"/></symbol><symbol overflow="visible" id="o"><path d="M7.281-2.906v-.672H4.344V-6.5h-.657v2.922H.75v.672h2.938V.03h.656v-2.937zm0 0"/></symbol><symbol overflow="visible" id="p"><path d="M6.234-3.89c0-1.126-.562-1.766-1.703-1.766-1.422 0-2.781.937-3.14 2.343-.141.516-.204 1.063-.25 1.594C.953-.016.64 1.688.484 3.391A2.818 2.818 0 001.5 3.17a6.619 6.619 0 01-.047-.796c0-.922.11-1.844.25-2.719h.047c.313.406.734.516 1.219.516 2.125 0 3.265-2.188 3.265-4.063zm-.953.171c0 1.297-.515 3.594-2.156 3.594-.938 0-1.156-.734-1.156-1.531 0-1.25.468-3.61 2.11-3.61.937 0 1.202.72 1.202 1.547zm0 0"/></symbol><symbol overflow="visible" id="q"><path d="M7.219-2.875v-.703H.78v.703zm0 0"/></symbol><symbol overflow="visible" id="r"><path d="M6.922.031v-.36l-.547-.03c-.406-.016-.453-.11-.453-.86v-7.36l-.094-.093c-.531.203-.922.297-1.875.438v.328h.672c.219 0 .297.14.297.5v2.187c-.672-.297-1-.39-1.422-.39-.328 0-.61.078-.906.234l-1.047.547C.859-4.468.422-3.594.422-2.578c0 .953.312 1.734.906 2.219.406.343.969.5 1.75.5.235 0 .5-.047.563-.094l1.328-1.11L4.906.032C5.22.016 5.516 0 5.828 0c.36 0 .734.016 1.094.031zm-2-2.672c0 .782-.016.891-.172 1.172-.344.563-.922.938-1.484.938-1.047 0-1.813-1.016-1.813-2.438 0-1.312.656-2.078 1.719-2.078.469 0 .937.156 1.36.438.25.171.39.328.39.421zm0 0"/></symbol><symbol overflow="visible" id="s"><path d="M3.234.031v-.36l-.546-.03c-.407-.016-.438-.11-.438-.86v-4.343l-.11-.047a7.328 7.328 0 01-1.859.5v.328H.72c.469 0 .531.078.531.875v2.687c0 .75-.047.844-.453.86L.25-.33v.36c.5-.014 1-.03 1.5-.03s.984.016 1.484.031zm-.89-7.11c0-.343-.235-.593-.594-.593-.36 0-.61.234-.61.594s.25.594.61.594.594-.235.594-.594zm0 0"/></symbol><symbol overflow="visible" id="t"><path d="M6.438-5.156v-.328c-.36.015-.75.03-1.125.03-.36 0-.75-.015-1.11-.03v.328l.484.031c.375.016.375.375.063 1.188l-.5 1.265L3.5-1 2.078-4.453c-.125-.328-.187-.656.188-.672l.593-.031v-.328a43.9 43.9 0 01-1.406.03c-.469 0-.922-.015-1.375-.03v.328l.406.031c.204.016.25.11.36.39L2.906.079H3.5c.078-.39.25-.765.5-1.297l1.406-3.11c.266-.609.422-.78.672-.796zm0 0"/></symbol><symbol overflow="visible" id="u"><path d="M5.36-3.328c0-1.375-.891-2.281-2.235-2.281-.438 0-.953.156-1.438.453C.704-4.61.313-3.86.313-2.625c0 .766.172 1.406.5 1.86.47.64 1.282 1 2.172 1 .454 0 .891-.094 1.375-.313.329-.125.579-.281.625-.36l.235-.406-.157-.11c-.765.454-1.03.563-1.546.563-.782 0-1.422-.343-1.766-.937-.219-.39-.297-.734-.328-1.422h1.75c.828 0 1.328-.031 2.156-.172.016-.156.031-.265.031-.406zm-1.063.14l-1.344.032c-.547 0-.86-.016-1.5-.078 0-.563.047-.813.203-1.125a1.47 1.47 0 011.328-.86c.391 0 .704.157.922.485.266.39.39.734.39 1.546zm0 0"/></symbol><symbol overflow="visible" id="v"><path d="M4.469-5.469c-.125-.093-.344-.14-.563-.14-.36 0-.734.187-.984.5l-.672.78v-1.234l-.11-.046a7.328 7.328 0 01-1.859.5v.328H.72c.469 0 .531.078.531.875v2.687c0 .75-.047.844-.453.86L.25-.33v.36C.734.016 1.234 0 1.719 0c.578 0 1.14.016 1.718.031v-.36l-.624-.03c-.547-.032-.563-.079-.563-.86V-3.28c0-.719.469-1.313 1.063-1.313.359 0 .609.172.796.547h.25zm0 0"/></symbol><symbol overflow="visible" id="w"><path d="M6.5-5.016l-.047-.14-1.703.047c-.438-.36-.86-.5-1.453-.5-.531 0-1.14.171-1.625.453C1-4.766.656-4.188.656-3.453c0 .89.547 1.5 1.438 1.594l-.953.718c-.11.188-.172.344-.172.516 0 .344.219.531.781.703L.719.641c-.172.093-.344.53-.344.906 0 1.078 1.078 1.828 2.594 1.828 1.797 0 3.219-1.125 3.219-2.594 0-.86-.563-1.453-1.407-1.453H2.875c-.625 0-.922-.14-.922-.469 0-.156.11-.28.406-.546.079-.063.11-.079.157-.125.109 0 .187.015.28.015.517 0 1.142-.219 1.642-.562.53-.407.796-.875.796-1.516 0-.234-.03-.39-.125-.64h1.094zm-2.266 1.5c0 .782-.5 1.313-1.234 1.313-.797 0-1.344-.625-1.344-1.531 0-.922.453-1.47 1.219-1.47.813 0 1.36.673 1.36 1.688zM5.25 1.22c0 1.031-.953 1.797-2.203 1.797-1.031 0-1.75-.61-1.75-1.5 0-.532.312-1.016.781-1.235.188-.078.531-.11 1.36-.11C4.78.172 5.25.438 5.25 1.22zm0 0"/></symbol><symbol overflow="visible" id="x"><path d="M4.672-1.766c0-.375-.094-.656-.328-.89-.313-.313-.703-.438-1.766-.64-.969-.188-1.297-.438-1.297-.985 0-.594.422-.938 1.14-.938.813 0 1.423.422 1.423.985v.28h.328c.016-.702.031-.983.062-1.358-.64-.204-1.062-.297-1.562-.297-1.375 0-2.235.656-2.235 1.734 0 .578.266.984.813 1.234.328.141.969.329 1.781.516.531.11.766.375.766.828 0 .64-.61 1.094-1.453 1.094-.875 0-1.5-.422-1.5-1.016v-.484h-.36C.484-.891.454-.531.36-.047.984.156 1.453.234 2 .234c1.563 0 2.672-.828 2.672-2zm0 0"/></symbol><symbol overflow="visible" id="y"><path d="M4.938-.547l-.125-.187c-.438.25-.813.359-1.25.359-1.329 0-2.204-1.031-2.204-2.61 0-1.28.594-2 1.672-2 .531 0 1.11.235 1.313.532l.093.734h.329c0-.547.062-1.031.171-1.469-.484-.28-.89-.421-1.39-.421-.578 0-1.235.234-1.953.687C.75-4.406.312-3.562.312-2.516.313-.89 1.454.234 3.047.234c.625 0 1.515-.218 1.64-.406zm0 0"/></symbol><symbol overflow="visible" id="z"><path d="M6.14-2.828c0-1.625-1.171-2.781-2.812-2.781C1.594-5.61.375-4.375.375-2.594.375-.906 1.453.234 2.985.234c1.843 0 3.156-1.28 3.156-3.062zm-1.109.437c0 1.375-.61 2.235-1.578 2.235C2.281-.156 1.5-1.296 1.5-3c0-1.438.563-2.219 1.625-2.219 1.094 0 1.906 1.203 1.906 2.828zm0 0"/></symbol><symbol overflow="visible" id="A"><path d="M6.844.031v-.36l-.5-.03c-.407-.016-.438-.094-.438-.86V-3.53c0-1.39-.656-2.078-2-2.078-.437 0-.687.093-.937.296l-.906.797v-1.046l-.11-.047c-.61.25-1.234.421-1.875.5v.328h.453c.469 0 .516.078.516.875v2.687c0 .75-.031.844-.438.86l-.53.03v.36C.561.016 1.062 0 1.546 0c.5 0 1 .016 1.484.031v-.36L2.5-.358c-.406-.016-.438-.11-.438-.86V-3.75c0-.547.782-1.125 1.516-1.125.797 0 1.328.594 1.328 1.516V.03C5.22.016 5.531 0 5.844 0c.343 0 .656.016 1 .031zm0 0"/></symbol><symbol overflow="visible" id="B"><path d="M5.625.031v-.36l-.469-.015c-.281-.015-.328-.11-.328-.703v-2.187c0-1.735-.5-2.375-1.89-2.375-.516 0-.985.14-1.438.406l-.64.39v.766l.312.094.156-.375c.234-.563.375-.64.922-.64 1.125 0 1.594.437 1.625 1.53l-1.188.204C1.063-2.922.376-2.36.376-1.328.375-.391.938.14 1.891.14c.218 0 .421-.032.5-.094l1.484-1.03L3.812.03C4.125.016 4.439 0 4.75 0c.297 0 .578.016.875.031zm-1.75-1.515c-.344.5-1.11.953-1.563.953-.484 0-.906-.453-.906-.969 0-.438.25-.86.61-1.078.296-.188.953-.344 1.859-.485zm0 0"/></symbol><symbol overflow="visible" id="C"><path d="M6.078-3.234c0-1.375-.906-2.375-2.172-2.375-.562 0-1.14.218-1.453.53l-.656.673v-4.172l-.11-.094c-.53.203-.921.297-1.859.438v.328h.656c.22 0 .297.14.297.5v5.578c0 .734 0 1.062-.094 1.906l.204.063.468-.422c.485.312.907.422 1.547.422.469 0 .781-.078 1.031-.266l1.188-.86c.531-.374.953-1.374.953-2.25zm-1.047.5c0 1.328-.718 2.265-1.734 2.265-.625 0-1.5-.375-1.5-.64v-2.579c0-.156.11-.374.312-.593a1.784 1.784 0 011.282-.547c1.015 0 1.64.812 1.64 2.094zm0 0"/></symbol><symbol overflow="visible" id="D"><path d="M3.234.031v-.36l-.546-.03c-.407-.016-.438-.11-.438-.86v-7.36l-.11-.093c-.53.203-.921.297-1.859.438v.328h.656c.22 0 .313.14.313.5v6.187c0 .75-.047.844-.453.86L.25-.33v.36c.5-.014 1-.03 1.5-.03s.984.016 1.484.031zm0 0"/></symbol><symbol overflow="visible" id="E"><path d="M6.938.031v-.36l-.485-.03c-.406-.016-.437-.094-.437-.86v-4.343l-.11-.047c-.61.25-1.234.421-1.86.5v.328h.438c.47 0 .532.078.532.875v1.953c0 .25-.172.594-.454.86a1.574 1.574 0 01-1.187.515c-.406 0-.75-.14-.938-.36-.171-.203-.25-.562-.25-1.093v-3.531l-.109-.047c-.61.25-1.234.421-1.86.5v.328h.438c.485 0 .531.078.531.875v2c0 .843.063 1.218.282 1.515.265.36.718.532 1.406.532.531 0 1.016-.172 1.328-.47l.813-.734c0 .344-.016.532-.063 1.094.344-.015.672-.031 1-.031.328 0 .656.016.984.031zm0 0"/></symbol><symbol overflow="visible" id="F"><path d="M3.813-5.219l-1.641.078v-.453c0-.5.047-.937.14-1.703l-.156-.125c-.281.172-.64.328-1.015.453.046.36.046.578.046.938v.843l-.921.422v.25l.906-.046v3.437c0 .89.39 1.266 1.312 1.266.282 0 .563-.063.641-.141l.563-.64-.157-.204c-.297.172-.469.235-.703.235-.469 0-.656-.235-.656-.829v-3.125h1.531zm0 0"/></symbol><symbol overflow="visible" id="G"><path d="M6.5-5.156v-.328c-.375.015-.75.03-1.14.03-.376 0-.75-.015-1.126-.03v.328l.313.031c.5.031.61.172.422.61L3.547-1.032c-.266-.453-.375-.719-.61-1.313l-.765-2c-.203-.531-.172-.765.297-.781l.453-.031v-.328c-.469.015-.922.03-1.39.03-.47 0-.923-.015-1.391-.03v.328l.218.031c.297.031.454.172.625.578L2.954.281l-.282.735c-.375 1-.844 1.562-1.297 1.562-.188 0-.406-.094-.61-.265H.61l-.28.89c.218.125.405.172.64.172.797 0 1.312-.422 1.765-1.469l2.422-5.593c.485-1.079.719-1.422 1.016-1.438zm0 0"/></symbol><clipPath id="a"><path d="M.5.184v77h362v-77zM20.52 28.8l-3.36 8.402 3.36 1.379 3.359-8.46-4.32 6.062zm0 0"/></clipPath><clipPath id="b"><path d="M.5.184v77h362v-77zm37.84 29.218l1.742 8.88 3.54-.72-1.802-8.878-.3 7.437zm0 0"/></clipPath><clipPath id="c"><path d="M.5.184v77h362v-77zM58.379 30.96l4.68 7.8 3.12-1.859-4.738-7.8 2.22 7.14zm0 0"/></clipPath><clipPath id="d"><path d="M.5.184v77h362v-77zM304.02 28.8l-3.36 8.402 3.36 1.379 3.359-8.46-4.32 6.062zm0 0"/></clipPath><clipPath id="e"><path d="M.5.184v77h362v-77zm321.34 29.218l1.738 8.88 3.543-.72-1.8-8.878-.301 7.437zm0 0"/></clipPath><clipPath id="f"><path d="M.5.184v77h362v-77zM341.879 30.96l4.68 7.8 3.12-1.859-4.738-7.8 2.22 7.14zm0 0"/></clipPath><clipPath id="g"><path d="M.5.184v77h362v-77zM106.14 31.14L98.46 36l1.919 3.063 7.68-4.86-7.02 2.34zm0 0"/></clipPath><clipPath id="h"><path d="M.5.184v77h362v-77zM249.66 34.62l7.918 4.441 1.742-3.12-7.922-4.442 5.461 5.102zm0 0"/></clipPath><clipPath id="i"><path d="M.5.184v77h362v-77zm147.398 28.918l-4.738 7.8 3.121 1.86 4.68-7.801-5.223 5.281zm0 0"/></clipPath><clipPath id="j"><path d="M.5.184v77h362v-77zm209.559 32.34l6.48 6.417 2.52-2.52-6.418-6.48 3.84 6.422zm0 0"/></clipPath><clipPath id="k"><path d="M.5.184v77h362v-77zm176.02 28.5l-1.801 8.878 3.543.72 1.738-8.88-3.121 6.72zm0 0"/></clipPath><clipPath id="l"><path d="M.5 45H362v2H.5zm0 0"/></clipPath></defs><path d="M82.2 50.582h198v-9h-198zm0 0" fill-rule="evenodd" fill="#bbb" stroke-width=".45" stroke="#bbb" stroke-miterlimit="10"/><path d="M181.2 37.082v18m-99-18v18m198-18v18" fill="none" stroke-width=".45" stroke="#000" stroke-miterlimit="10"/><g clip-path="url(#a)" clip-rule="evenodd"><path d="M28.2 14.582l-9 22.5" fill="none" stroke-width=".45" stroke="#000" stroke-miterlimit="10"/></g><path d="M20.52 28.8l-.961 7.384 4.32-6.063" fill="none" stroke-width=".45" stroke="#000" stroke-miterlimit="10"/><g clip-path="url(#b)" clip-rule="evenodd"><path d="M37.2 14.582l4.5 22.5" fill="none" stroke-width=".45" stroke="#000" stroke-miterlimit="10"/></g><path d="M38.34 29.402l3.18 6.72.3-7.438" fill="none" stroke-width=".45" stroke="#000" stroke-miterlimit="10"/><g clip-path="url(#c)" clip-rule="evenodd"><path d="M50.7 14.582l13.5 22.5" fill="none" stroke-width=".45" stroke="#000" stroke-miterlimit="10"/></g><path d="M58.379 30.96l5.281 5.282-2.219-7.14" fill="none" stroke-width=".45" stroke="#000" stroke-miterlimit="10"/><g clip-path="url(#d)" clip-rule="evenodd"><path d="M311.7 14.582l-9 22.5" fill="none" stroke-width=".45" stroke="#000" stroke-miterlimit="10"/></g><path d="M304.02 28.8l-.961 7.384 4.32-6.063" fill="none" stroke-width=".45" stroke="#000" stroke-miterlimit="10"/><g clip-path="url(#e)" clip-rule="evenodd"><path d="M320.7 14.582l4.5 22.5" fill="none" stroke-width=".45" stroke="#000" stroke-miterlimit="10"/></g><path d="M321.84 29.402l3.18 6.72.3-7.438" fill="none" stroke-width=".45" stroke="#000" stroke-miterlimit="10"/><g clip-path="url(#f)" clip-rule="evenodd"><path d="M334.2 14.582l13.5 22.5" fill="none" stroke-width=".45" stroke="#000" stroke-miterlimit="10"/></g><path d="M341.879 30.96l5.281 5.282-2.219-7.14" fill="none" stroke-width=".45" stroke="#000" stroke-miterlimit="10"/><g clip-path="url(#g)" clip-rule="evenodd"><path d="M136.2 14.582l-36 22.5" fill="none" stroke-width=".45" stroke="#000" stroke-miterlimit="10"/></g><path d="M106.14 31.14l-5.1 5.403 7.019-2.34" fill="none" stroke-width=".45" stroke="#000" stroke-miterlimit="10"/><g clip-path="url(#h)" clip-rule="evenodd"><path d="M217.2 14.582l40.5 22.5" fill="none" stroke-width=".45" stroke="#000" stroke-miterlimit="10"/></g><path d="M249.66 34.621l7.2 1.98-5.462-5.101" fill="none" stroke-width=".45" stroke="#000" stroke-miterlimit="10"/><g clip-path="url(#i)" clip-rule="evenodd"><path d="M158.7 14.582l-13.5 22.5" fill="none" stroke-width=".45" stroke="#000" stroke-miterlimit="10"/></g><path d="M147.898 29.102l-2.16 7.14 5.223-5.281" fill="none" stroke-width=".45" stroke="#000" stroke-miterlimit="10"/><g clip-path="url(#j)" clip-rule="evenodd"><path d="M194.7 14.582l22.5 22.5" fill="none" stroke-width=".45" stroke="#000" stroke-miterlimit="10"/></g><path d="M210.059 32.523l6.421 3.84-3.84-6.422" fill="none" stroke-width=".45" stroke="#000" stroke-miterlimit="10"/><g clip-path="url(#k)" clip-rule="evenodd"><path d="M181.2 14.582l-4.5 22.5" fill="none" stroke-width=".45" stroke="#000" stroke-miterlimit="10"/></g><path d="M176.52 28.684l.359 7.437L180 29.402" fill="none" stroke-width=".45" stroke="#000" stroke-miterlimit="10"/><g clip-path="url(#l)"><path d="M1.2 46.082h360" fill="none" stroke-width=".45" stroke="#000" stroke-miterlimit="10"/></g><use xlink:href="#m" x="172.583" y="73.042"/><use xlink:href="#n" x="178.919" y="74.835"/><use xlink:href="#m" x="267.085" y="73.042"/><use xlink:href="#n" x="273.421" y="74.835"/><use xlink:href="#o" x="280.96" y="73.042"/><use xlink:href="#p" x="291.973" y="73.042"/><use xlink:href="#m" x="69.08" y="73.042"/><use xlink:href="#n" x="75.417" y="74.835"/><use xlink:href="#q" x="82.955" y="73.042"/><use xlink:href="#p" x="93.968" y="73.042"/><use xlink:href="#r" x="19.22" y="10.04"/><use xlink:href="#s" x="26.525" y="10.04"/><use xlink:href="#t" x="30.004" y="10.04"/><use xlink:href="#u" x="36.28" y="10.04"/><use xlink:href="#v" x="42.007" y="10.04"/><use xlink:href="#w" x="46.609" y="10.04"/><use xlink:href="#u" x="53.017" y="10.04"/><use xlink:href="#x" x="58.744" y="10.04"/><use xlink:href="#y" x="127.223" y="10.04"/><use xlink:href="#z" x="132.531" y="10.04"/><use xlink:href="#A" x="139.059" y="10.04"/><use xlink:href="#t" x="145.598" y="10.04"/><use xlink:href="#u" x="151.875" y="10.04"/><use xlink:href="#v" x="157.601" y="10.04"/><use xlink:href="#w" x="162.204" y="10.04"/><use xlink:href="#u" x="168.612" y="10.04"/><use xlink:href="#x" x="174.339" y="10.04"/><use xlink:href="#B" x="182.397" y="10.04"/><use xlink:href="#C" x="188.374" y="10.04"/><use xlink:href="#x" x="194.985" y="10.04"/><use xlink:href="#z" x="200.054" y="10.04"/><use xlink:href="#D" x="206.582" y="10.04"/><use xlink:href="#E" x="210.061" y="10.04"/><use xlink:href="#F" x="217.27" y="10.04"/><use xlink:href="#u" x="221.167" y="10.04"/><use xlink:href="#D" x="226.894" y="10.04"/><use xlink:href="#G" x="230.074" y="10.04"/><use xlink:href="#r" x="307.233" y="10.04"/><use xlink:href="#s" x="314.537" y="10.04"/><use xlink:href="#t" x="318.016" y="10.04"/><use xlink:href="#u" x="324.293" y="10.04"/><use xlink:href="#v" x="330.019" y="10.04"/><use xlink:href="#w" x="334.622" y="10.04"/><use xlink:href="#u" x="341.03" y="10.04"/><use xlink:href="#x" x="346.757" y="10.04"/></svg>