<svg xmlns="http://www.w3.org/2000/svg" xmlns:xlink="http://www.w3.org/1999/xlink" width="365pt" height="275pt" viewBox="0 0 365 275"><defs><clipPath id="l"><path d="M13 9.5h340v.5H13zm0 0"/></clipPath><clipPath id="h"><path d="M13 264h340v.5H13zm0 0"/></clipPath><clipPath id="k"><path d="M13 72h340v2H13zm0 0"/></clipPath><clipPath id="j"><path d="M13 136h340v2H13zm0 0"/></clipPath><clipPath id="i"><path d="M13 200h340v2H13zm0 0"/></clipPath><clipPath id="a"><path d="M97 9.5h2v255h-2zm0 0"/></clipPath><clipPath id="b"><path d="M13 200h340v2H13zm0 0"/></clipPath><clipPath id="c"><path d="M13 9.5h1v255h-1zm0 0"/></clipPath><clipPath id="d"><path d="M97 9.5h2v255h-2zm0 0"/></clipPath><clipPath id="e"><path d="M182 9.5h2v255h-2zm0 0"/></clipPath><clipPath id="f"><path d="M267 9.5h2v255h-2zm0 0"/></clipPath><clipPath id="g"><path d="M352 9.5h1v255h-1zm0 0"/></clipPath><symbol overflow="visible" id="n"><path d="M1.938-3.781V0h.671v-5.313h-.437c-.235.813-.39.922-1.406 1.047v.485zm0 0"/></symbol><symbol overflow="visible" id="q"><path d="M1.656-2.438h.36c.734 0 1.109.329 1.109.954 0 .671-.422 1.078-1.11 1.078-.718 0-1.078-.36-1.109-1.14H.234c.032.421.11.702.235.952.281.5.797.766 1.531.766 1.094 0 1.797-.656 1.797-1.656 0-.672-.266-1.047-.906-1.266.5-.203.75-.578.75-1.11 0-.906-.61-1.453-1.625-1.453-1.079 0-1.641.579-1.657 1.72h.657c0-.329.03-.516.109-.673.156-.296.484-.468.906-.468.578 0 .938.343.938.906 0 .375-.14.594-.438.719-.172.078-.406.109-.875.109zm0 0"/></symbol><symbol overflow="visible" id="p"><path d="M3.797-.656H1c.063-.438.313-.703.953-1.094l.75-.406c.75-.406 1.125-.953 1.125-1.594 0-.453-.172-.86-.484-1.14-.328-.298-.719-.423-1.219-.423-.672 0-1.172.235-1.469.688-.187.281-.265.61-.281 1.156h.656c.032-.36.078-.578.157-.75.171-.328.515-.515.921-.515.594 0 1.047.421 1.047.984 0 .422-.25.781-.719 1.063l-.687.39C.64-1.672.312-1.172.25 0h3.547zm0 0"/></symbol><symbol overflow="visible" id="o"><path d="M2.063-5.313c-.5 0-.938.22-1.22.579C.5-4.266.329-3.563.329-2.578c0 1.797.594 2.75 1.734 2.75 1.126 0 1.735-.953 1.735-2.703 0-1.031-.156-1.719-.516-2.203-.281-.375-.719-.579-1.219-.579zm0 .579c.718 0 1.062.718 1.062 2.14 0 1.516-.344 2.219-1.078 2.219C1.344-.375 1-1.109 1-2.563c0-1.453.344-2.171 1.063-2.171zm0 0"/></symbol><symbol overflow="visible" id="m"><path d="M2.125-2.344H.344v.547h1.781zm0 0"/></symbol></defs><g clip-path="url(#a)"><path d="M98 264.5V9.5" fill="none" stroke-width=".625" stroke-linecap="round" stroke="#bfbfbf" stroke-miterlimit="10"/></g><g clip-path="url(#b)"><path d="M13 200.75h340" fill="none" stroke-width=".625" stroke-linecap="round" stroke="#bfbfbf" stroke-miterlimit="10"/></g><g clip-path="url(#c)"><path d="M13 264.5V9.5" fill="none" stroke-width=".625" stroke-linecap="round" stroke="#bfbfbf" stroke-dasharray="12.5,18.75" stroke-miterlimit="10"/></g><g clip-path="url(#d)"><path d="M98 264.5V9.5" fill="none" stroke-width=".625" stroke-linecap="round" stroke="#bfbfbf" stroke-dasharray="12.5,18.75" stroke-miterlimit="10"/></g><g clip-path="url(#e)"><path d="M183 264.5V9.5" fill="none" stroke-width=".625" stroke-linecap="round" stroke="#bfbfbf" stroke-dasharray="12.5,18.75" stroke-miterlimit="10"/></g><g clip-path="url(#f)"><path d="M268 264.5V9.5" fill="none" stroke-width=".625" stroke-linecap="round" stroke="#bfbfbf" stroke-dasharray="12.5,18.75" stroke-miterlimit="10"/></g><g clip-path="url(#g)"><path d="M353 264.5V9.5" fill="none" stroke-width=".625" stroke-linecap="round" stroke="#bfbfbf" stroke-dasharray="12.5,18.75" stroke-miterlimit="10"/></g><g clip-path="url(#h)"><path d="M13 264.5h340" fill="none" stroke-width=".625" stroke-linecap="round" stroke="#bfbfbf" stroke-dasharray="12.5,18.75" stroke-miterlimit="10"/></g><g clip-path="url(#i)"><path d="M13 200.75h340" fill="none" stroke-width=".625" stroke-linecap="round" stroke="#bfbfbf" stroke-dasharray="12.5,18.75" stroke-miterlimit="10"/></g><g clip-path="url(#j)"><path d="M13 137h340" fill="none" stroke-width=".625" stroke-linecap="round" stroke="#bfbfbf" stroke-dasharray="12.5,18.75" stroke-miterlimit="10"/></g><g clip-path="url(#k)"><path d="M13 73.25h340" fill="none" stroke-width=".625" stroke-linecap="round" stroke="#bfbfbf" stroke-dasharray="12.5,18.75" stroke-miterlimit="10"/></g><g clip-path="url(#l)"><path d="M13 9.5h340" fill="none" stroke-width=".625" stroke-linecap="round" stroke="#bfbfbf" stroke-dasharray="12.5,18.75" stroke-miterlimit="10"/></g><path d="M13 264.5h340" fill="none" stroke-width="1.25" stroke-linecap="square" stroke="#000" stroke-miterlimit="10"/><path d="M13 264.5v-5m8.5 5V262m8.5 2.5V262m8.5 2.5V262m8.5 2.5V262m8.5 2.5V262m8.5 2.5V262m8.5 2.5V262m8.5 2.5V262m8.5 2.5V262m8.5 2.5v-5m8.5 5V262m8.5 2.5V262m8.5 2.5V262m8.5 2.5V262m8.5 2.5V262m8.5 2.5V262m8.5 2.5V262m8.5 2.5V262m8.5 2.5V262m8.5 2.5v-5m8.5 5V262m8.5 2.5V262m8.5 2.5V262m8.5 2.5V262m8.5 2.5V262m8.5 2.5V262m8.5 2.5V262m8.5 2.5V262m8.5 2.5V262m8.5 2.5v-5m8.5 5V262m8.5 2.5V262m8.5 2.5V262m8.5 2.5V262m8.5 2.5V262m8.5 2.5V262m8.5 2.5V262m8.5 2.5V262m8.5 2.5V262m8.5 2.5v-5" fill="none" stroke-width=".625" stroke="#000" stroke-miterlimit="10"/><use xlink:href="#m" x="9.042" y="274.5"/><use xlink:href="#n" x="11.539" y="274.5"/><use xlink:href="#o" x="95.29" y="274.5"/><use xlink:href="#n" x="180.916" y="274.5"/><use xlink:href="#p" x="265.915" y="274.5"/><use xlink:href="#q" x="350.915" y="274.5"/><path d="M13 9.5h340" fill="none" stroke-width="1.25" stroke-linecap="square" stroke="#000" stroke-miterlimit="10"/><path d="M13 9.5v5m8.5-5V12M30 9.5V12m8.5-2.5V12M47 9.5V12m8.5-2.5V12M64 9.5V12m8.5-2.5V12M81 9.5V12m8.5-2.5V12M98 9.5v5m8.5-5V12m8.5-2.5V12m8.5-2.5V12m8.5-2.5V12m8.5-2.5V12m8.5-2.5V12m8.5-2.5V12m8.5-2.5V12m8.5-2.5V12m8.5-2.5v5m8.5-5V12m8.5-2.5V12m8.5-2.5V12m8.5-2.5V12m8.5-2.5V12m8.5-2.5V12m8.5-2.5V12m8.5-2.5V12m8.5-2.5V12m8.5-2.5v5m8.5-5V12m8.5-2.5V12m8.5-2.5V12m8.5-2.5V12m8.5-2.5V12m8.5-2.5V12m8.5-2.5V12m8.5-2.5V12m8.5-2.5V12m8.5-2.5v5" fill="none" stroke-width=".625" stroke="#000" stroke-miterlimit="10"/><use xlink:href="#m" x="9.042" y="6.375"/><use xlink:href="#n" x="11.539" y="6.375"/><use xlink:href="#o" x="95.29" y="6.375"/><use xlink:href="#n" x="180.916" y="6.375"/><use xlink:href="#p" x="265.915" y="6.375"/><use xlink:href="#q" x="350.915" y="6.375"/><path d="M13 264.5V9.5" fill="none" stroke-width="1.25" stroke-linecap="square" stroke="#000" stroke-miterlimit="10"/><path d="M13 264.5h5m-5-6.375h2.5M13 251.75h2.5m-2.5-6.375h2.5M13 239h2.5m-2.5-6.375h2.5M13 226.25h2.5m-2.5-6.375h2.5M13 213.5h2.5m-2.5-6.375h2.5M13 200.75h5m-5-6.375h2.5M13 188h2.5m-2.5-6.375h2.5M13 175.25h2.5m-2.5-6.375h2.5M13 162.5h2.5m-2.5-6.375h2.5M13 149.75h2.5m-2.5-6.375h2.5M13 137h5m-5-6.375h2.5M13 124.25h2.5m-2.5-6.375h2.5M13 111.5h2.5m-2.5-6.375h2.5M13 98.75h2.5M13 92.375h2.5M13 86h2.5M13 79.625h2.5M13 73.25h5m-5-6.375h2.5M13 60.5h2.5M13 54.125h2.5M13 47.75h2.5M13 41.375h2.5M13 35h2.5M13 28.625h2.5M13 22.25h2.5M13 15.875h2.5M13 9.5h5" fill="none" stroke-width=".625" stroke="#000" stroke-miterlimit="10"/><use xlink:href="#m" x="-.542" y="268.25"/><use xlink:href="#n" x="1.956" y="268.25"/><use xlink:href="#o" x="1.955" y="203.875"/><use xlink:href="#n" x="1.955" y="140.125"/><use xlink:href="#p" x="1.955" y="76.375"/><use xlink:href="#q" x="1.955" y="12.625"/><path d="M353 264.5V9.5" fill="none" stroke-width="1.25" stroke-linecap="square" stroke="#000" stroke-miterlimit="10"/><path d="M353 264.5h-5m5-6.375h-2.5m2.5-6.375h-2.5m2.5-6.375h-2.5M353 239h-2.5m2.5-6.375h-2.5m2.5-6.375h-2.5m2.5-6.375h-2.5m2.5-6.375h-2.5m2.5-6.375h-2.5m2.5-6.375h-5m5-6.375h-2.5M353 188h-2.5m2.5-6.375h-2.5m2.5-6.375h-2.5m2.5-6.375h-2.5m2.5-6.375h-2.5m2.5-6.375h-2.5m2.5-6.375h-2.5m2.5-6.375h-2.5M353 137h-5m5-6.375h-2.5m2.5-6.375h-2.5m2.5-6.375h-2.5m2.5-6.375h-2.5m2.5-6.375h-2.5m2.5-6.375h-2.5m2.5-6.375h-2.5M353 86h-2.5m2.5-6.375h-2.5m2.5-6.375h-5m5-6.375h-2.5M353 60.5h-2.5m2.5-6.375h-2.5m2.5-6.375h-2.5m2.5-6.375h-2.5M353 35h-2.5m2.5-6.375h-2.5m2.5-6.375h-2.5m2.5-6.375h-2.5M353 9.5h-5" fill="none" stroke-width=".625" stroke="#000" stroke-miterlimit="10"/><use xlink:href="#m" x="359.25" y="268.25"/><use xlink:href="#n" x="361.748" y="268.25"/><use xlink:href="#o" x="359.25" y="203.875"/><use xlink:href="#n" x="359.25" y="140.125"/><use xlink:href="#p" x="359.25" y="76.375"/><use xlink:href="#q" x="359.25" y="12.625"/><path d="M22.309 257.52l-1.618 1.21m1.875-3.75l-1.875 3.75 4.125-.75m-2.867-13.21l-.898 1.21m.726-4.128l-.726 4.128 3.738-1.894m-3.2-12.066l-.179 1.21m-1.305-3.984l1.305 3.984 2.402-3.433M21.23 219.27l.54 1.21m-3.239-2.664l3.239 2.664.19-4.187m-1.089-9.773l1.258 1.21m-4-1.253l4 1.253-1.399-3.949m-.218-10.011l1.976 1.21m-4.176-.363l4.176.363-2.215-3.558m-.12-10.402l2.695 1.21m-4.188.172l4.188-.172-2.649-3.246m-.41-10.714l3.418 1.21m-4.16.512l4.16-.512-2.906-3.02m-.871-10.94l4.14 1.21m-4.129.747l4.13-.747-3.075-2.851m-1.426-11.11l4.86 1.211m-4.094.91l4.094-.91-3.184-2.726m-2.035-11.234l5.578 1.21m-4.062 1.036l4.062-1.036-3.266-2.628m-2.671-11.332l6.296 1.21m-4.039 1.133l4.04-1.133-3.329-2.55m-3.328-11.41l7.016 1.21m-4.016 1.211l4.016-1.21-3.375-2.485m-4-11.476l7.734 1.21m-3.996 1.274l3.996-1.274-3.414-2.433m-4.68-11.527l8.454 1.21m-3.977 1.325l3.977-1.325-3.446-2.386M16.914 66.27l9.172 1.21m-3.965 1.368l3.965-1.368-3.473-2.347M16.555 53.52l9.89 1.21m-3.949 1.407l3.95-1.407-3.493-2.316M16.195 40.77l10.61 1.21m-3.938 1.438l3.938-1.438-3.512-2.289M15.836 28.02l11.328 1.21m-3.926 1.465l3.926-1.465-3.527-2.261m-8.164-11.7l12.054 1.211m-3.922 1.493l3.922-1.493-3.547-2.242m15.508 243.414l-1.976.946m2.574-3.309l-2.574 3.309 4.191.078m-2.574-13.774l-1.258.946m1.875-3.75l-1.875 3.75 4.125-.75m-3.226-12.946l-.54.946m.23-4.188l-.23 4.188 3.489-2.328m-3.309-11.368l.18.946m-2.543-3.332l2.543 3.332 1.14-4.035m-1.68-9.66l.9.945m-3.946-1.422l3.945 1.422-1.226-4.008m-.032-9.688l1.618.946m-4.184-.27l4.184.27-2.293-3.508m.316-10.188l2.336.946m-4.18.332l4.18-.332-2.773-3.145m.074-10.55l3.058.945m-4.132.683l4.132-.683L37 166.449m-.39-10.797l3.78.946m-4.093.91l4.094-.91-3.184-2.73m-.957-10.966l4.496.946m-4.055 1.062l4.055-1.062-3.281-2.606m-1.574-11.09l5.218.946m-4.023 1.175l4.023-1.175-3.355-2.512m-2.223-11.184l5.938.946m-4 1.261l4-1.261-3.41-2.442m-2.887-11.254l6.656.946m-3.976 1.328l3.976-1.328-3.45-2.383m-3.565-11.313l7.375.946M38.23 94.23l3.958-1.382-3.481-2.336m-4.254-11.36l8.094.946m-3.942 1.425l3.942-1.425-3.508-2.297m-4.945-11.399l8.812.946m-3.93 1.464l3.93-1.464-3.527-2.266m-5.645-11.43l9.532.946m-3.914 1.496l3.914-1.496-3.547-2.235m-6.344-11.46l10.25.945m-3.906 1.523l3.906-1.523-3.562-2.211m-7.047-11.485l10.968.946m-3.894 1.547l3.894-1.547-3.574-2.192m-7.758-11.504l11.692.946m-3.887 1.566l3.887-1.566-3.586-2.172m15.91 243.613l-2.336.672m3.082-2.84l-3.082 2.84 4.121.762m-2.144-14.188l-1.618.676m2.739-3.172l-2.739 3.172 4.18.289m-2.922-13.715l-.898.676m1.875-3.75l-1.875 3.75 4.125-.75m-3.586-12.676l-.18.676m-.847-4.106l.847 4.106 2.778-3.14m-2.958-10.282l.54.672m-3.805-1.758l3.805 1.758-.88-4.098m-.019-9.324l1.258.672m-4.191-.117l4.19.117-2.417-3.422m.8-10.004l1.977.676m-4.152.566l4.152-.566-2.945-2.984m.61-10.442l2.695.676m-4.09.91l4.09-.91-3.184-2.727m.125-10.699l3.418.676m-4.039 1.113l4.039-1.113-3.312-2.563m-.465-10.859l4.14.672m-4.004 1.25l4.004-1.25-3.402-2.453m-1.098-10.973l4.86.676m-3.973 1.344l3.973-1.344-3.457-2.371m-1.762-11.05l5.578.67m-3.95 1.411l3.95-1.41-3.5-2.313m-2.437-11.109l6.296.672m-3.93 1.465l3.93-1.465-3.53-2.262m-3.126-11.164l7.016.676m-3.914 1.508l3.914-1.508-3.555-2.223m-3.82-11.199l7.734.672m-3.898 1.543l3.898-1.543-3.574-2.191m-4.52-11.23l8.454.67m-3.887 1.571l3.887-1.57-3.59-2.164m-5.223-11.258l9.172.672m-3.875 1.598l3.875-1.598-3.602-2.145m-5.93-11.277l9.891.672m-3.867 1.617l3.867-1.617-3.613-2.125m-6.637-11.297l10.61.672m-3.86 1.633l3.86-1.633-3.621-2.11M49.832 15.54l11.332.672m-3.851 1.648l3.851-1.648-3.629-2.094m16.313 243.805l-2.696.406m3.43-2.41l-3.43 2.41 3.985 1.297m-1.649-14.453l-1.976.406m3.297-2.59l-3.297 2.59 4.047 1.086m-2.43-14.242l-1.258.406m2.996-2.933l-2.996 2.933 4.145.637m-3.246-13.793l-.54.406m1.875-3.75l-1.875 3.75 4.125-.75m-3.945-12.406l.18.406m-3.238-2.668l3.238 2.668.191-4.187m-.73-8.97l.898.407m-4.187.168l4.187-.168-2.648-3.25m1.39-9.906l1.618.406m-4.09.91l4.09-.91-3.184-2.73m1.207-10.426l2.336.406m-4.012 1.207l4.012-1.207-3.375-2.488m.68-10.668l3.054.406m-3.96 1.367l3.96-1.367-3.468-2.351m.05-10.805l3.782.406m-3.93 1.465l3.93-1.465-3.532-2.266m-.609-10.89l4.496.406m-3.902 1.531l3.902-1.53-3.566-2.208m-1.29-10.95l5.22.407m-3.887 1.578l3.886-1.578-3.593-2.16m-1.985-10.996l5.938.406m-3.871 1.613l3.87-1.613-3.613-2.125m-2.683-11.031l6.656.406m-3.86 1.645l3.86-1.645-3.629-2.101m-3.387-11.055l7.375.406m-3.847 1.664l3.847-1.664-3.64-2.078m-4.094-11.078l8.094.406m-3.84 1.684l3.84-1.684-3.652-2.062m-4.801-11.094l8.812.406m-3.832 1.7l3.832-1.7-3.66-2.047m-5.512-11.11l9.532.407M73.44 43.29l3.825-1.71-3.668-2.032m-6.223-11.125l10.25.406m-3.82 1.727l3.82-1.727-3.672-2.023m-6.937-11.133l10.968.406m-3.816 1.734l3.816-1.734-3.675-2.012M91.027 258.06l-3.054.132m3.664-2.039l-3.664 2.04 3.828 1.71m-1.133-14.593l-2.336.132m3.637-2.086l-3.637 2.086 3.852 1.657m-1.875-14.54l-1.618.133m3.582-2.18l-3.582 2.18 3.891 1.559m-2.633-14.441l-.898.132m3.43-2.41l-3.43 2.41 3.984 1.301M89.59 207.06l-.18.132m1.875-3.75l-1.875 3.75 4.125-.75M89.23 194.31l.54.132m-4.094.91l4.094-.91-3.184-2.726m2.285-10.156l1.258.132m-3.926 1.465l3.926-1.465-3.527-2.261m1.91-10.621l1.976.132m-3.867 1.618l3.867-1.618-3.613-2.125m1.277-10.757l2.696.132m-3.836 1.688l3.836-1.688-3.649-2.058m.59-10.824l3.418.132m-3.82 1.727l3.82-1.727-3.672-2.02m-.105-10.862l4.14.132m-3.812 1.754l3.812-1.754-3.687-1.996m-.813-10.886l4.86.132m-3.801 1.77l3.8-1.77-3.699-1.976m-1.52-10.906l5.58.132m-3.798 1.786l3.797-1.786-3.703-1.964M86.352 92.31l6.296.132m-3.789 1.797l3.79-1.797-3.711-1.953m-2.946-10.93l7.016.133m-3.785 1.805l3.785-1.805-3.715-1.945m-3.66-10.937l7.734.132m-3.781 1.813l3.781-1.813-3.715-1.937M85.273 54.06l8.454.132m-3.778 1.817l3.778-1.817-3.72-1.933m-5.093-10.95l9.172.133m-3.777 1.82l3.777-1.82-3.723-1.93M84.555 28.56l9.89.132m-3.773 1.825l3.773-1.825-3.722-1.925M84.195 15.81l10.61.132M91.03 17.77l3.774-1.829-3.723-1.921m17.129 244.171l-3.422-.132m3.824-1.727l-3.824 1.727 3.676 2.02m-.617-14.638l-2.696-.132m3.836-1.688l-3.836 1.688 3.649 2.058m-1.313-14.676l-1.976-.132m3.867-1.618l-3.867 1.618 3.613 2.125m-1.996-14.743l-1.258-.132m3.926-1.465l-3.926 1.465 3.527 2.261m-2.628-14.879l-.54-.132m4.094-.91l-4.094.91 3.184 2.726m-3.004-15.344l.18-.132m-1.875 3.75l1.875-3.75-4.125.75m3.586-13.368l.898-.132m-3.43 2.41l3.43-2.41-3.984-1.301m2.726-11.317l1.618-.132m-3.582 2.18l3.582-2.18-3.891-1.559m1.91-11.059l2.34-.132m-3.637 2.086l3.637-2.086-3.852-1.657m1.157-10.96l3.054-.133m-3.664 2.039l3.664-2.04-3.828-1.71m.41-10.907l3.782-.132m-3.684 2.007l3.684-2.007-3.817-1.743m-.32-10.875l4.492-.132m-3.691 1.984l3.691-1.984-3.8-1.762m-1.055-10.856l5.218-.132m-3.703 1.968l3.703-1.968-3.796-1.778m-1.782-10.84l5.938-.132m-3.707 1.957l3.707-1.957-3.793-1.79m-2.504-10.828l6.656-.132m-3.71 1.949l3.71-1.95-3.789-1.8m-3.226-10.817l7.375-.132m-3.715 1.941l3.715-1.941L106.402 65m-3.949-10.809l8.094-.132m-3.719 1.937l3.719-1.937-3.781-1.813m-4.672-10.805l8.812-.132m-3.718 1.93l3.718-1.93-3.777-1.82m-5.395-10.798l9.532-.132m-3.723 1.925l3.723-1.925-3.778-1.825m-6.117-10.793l10.254-.132m-3.723 1.921l3.723-1.921-3.773-1.829m17.539 244.348l-3.782-.406m3.93-1.465l-3.93 1.465 3.532 2.265m-.114-14.609l-3.054-.406m3.96-1.367l-3.96 1.367 3.468 2.351m-.773-14.695l-2.34-.406m4.016-1.207l-4.016 1.207 3.379 2.488m-1.398-14.832l-1.618-.406m4.09-.91l-4.09.91 3.18 2.73m-1.922-15.074l-.898-.406m4.187-.172l-4.187.172 2.648 3.25m-2.11-15.594l-.179-.406m3.235 2.668l-3.235-2.668-.191 4.187m.011-16.53l.54-.407m-1.875 3.75l1.875-3.75-4.125.75m3.226-13.094l1.258-.406m-2.996 2.933l2.996-2.933-4.145-.637m2.528-11.707l1.976-.406m-3.297 2.59l3.297-2.59-4.05-1.086m1.714-11.258l2.696-.406m-3.43 2.41l3.43-2.41-3.985-1.297m.926-11.047l3.422-.406m-3.508 2.305l3.508-2.305-3.945-1.418m.164-10.926l4.14-.406m-3.55 2.23l3.55-2.23-3.918-1.5m-.582-10.844l4.86-.406m-3.582 2.18l3.582-2.18-3.895-1.559m-1.324-10.785l5.578-.406m-3.605 2.14l3.605-2.14-3.879-1.598m-2.058-10.746l6.296-.406m-3.625 2.113l3.625-2.113-3.863-1.629m-2.793-10.715l7.016-.406m-3.637 2.09l3.637-2.09-3.852-1.656m-3.523-10.688l7.734-.406m-3.648 2.07l3.648-2.07-3.844-1.676m-4.25-10.668l8.454-.406m-3.657 2.055l3.657-2.055-3.836-1.692m-4.977-10.652l9.172-.406m-3.664 2.039l3.664-2.04-3.828-1.706m-5.703-10.637l9.89-.406m-3.668 2.027l3.668-2.027-3.824-1.719m17.945 244.508l-4.136-.672m4.004-1.25l-4.004 1.25 3.398 2.453m.383-14.531l-3.422-.676m4.043-1.11l-4.043 1.11 3.316 2.567m-.257-14.641l-2.696-.676m4.09-.906l-4.09.906 3.184 2.73m-.848-14.804l-1.976-.676m4.152-.562l-4.152.562 2.941 2.988m-1.324-15.062l-1.258-.672m4.192.117l-4.192-.117 2.418 3.422m-1.52-15.5l-.539-.672m3.805 1.754l-3.805-1.754.88 4.098m-.7-16.176l.18-.676m.848 4.11l-.848-4.11-2.777 3.145m2.238-15.22l.898-.675m-1.875 3.75l1.875-3.75-4.125.754m2.867-12.828l1.618-.676m-2.739 3.176l2.739-3.176-4.18-.285m2.2-11.79l2.339-.67m-3.082 2.839l3.082-2.84-4.121-.766m1.426-11.312l3.054-.676m-3.257 2.64l3.257-2.64-4.062-1.02m.644-11.054l3.782-.672m-3.364 2.504l3.364-2.504-4.024-1.187m-.113-10.891l4.492-.672m-3.43 2.41l3.43-2.41-3.984-1.3m-.871-10.778l5.218-.676m-3.48 2.344l3.48-2.344-3.96-1.375m-1.618-10.7l5.938-.67m-3.516 2.284l3.516-2.285-3.938-1.441m-2.36-10.637l6.657-.672m-3.543 2.242l3.543-2.242-3.922-1.488m-3.093-10.59l7.375-.672m-3.567 2.207l3.567-2.207-3.907-1.527m-3.828-10.551l8.094-.672m-3.582 2.18l3.582-2.18-3.895-1.559m-4.558-10.52l8.812-.67m-3.593 2.151l3.593-2.152-3.883-1.586m-5.289-10.492l9.532-.672m-3.61 2.133l3.61-2.133-3.871-1.605m18.351 244.664l-4.492-.946m4.055-1.062l-4.055 1.062 3.281 2.606m.856-14.41l-3.782-.946m4.094-.91l-4.094.91 3.184 2.73m.234-14.534l-3.054-.946m4.132-.683l-4.132.683 3.027 2.899m-.332-14.703l-2.34-.946m4.184-.332l-4.184.332 2.777 3.145m-.796-14.95l-1.618-.945m4.184.27l-4.184-.27 2.293 3.508m-1.035-15.312l-.898-.946m3.941 1.422l-3.941-1.422 1.226 4.008m-.687-15.812l-.18-.946m2.543 3.332l-2.543-3.332-1.14 4.036m.96-15.84l.54-.946m-.23 4.188l.23-4.188-3.489 2.328m2.59-14.132l1.258-.946m-1.875 3.75l1.875-3.75-4.125.75m2.508-12.554l1.976-.946m-2.578 3.309l2.578-3.309-4.191-.078m1.855-11.726l2.696-.946m-2.918 3.008l2.918-3.008-4.157-.53m1.098-11.274l3.422-.946m-3.117 2.809l3.117-2.809-4.117-.808m.336-10.996l4.14-.946m-3.242 2.664l3.242-2.664-4.074-.992m-.426-10.812l4.86-.946m-3.325 2.559l3.325-2.559-4.04-1.125m-1.18-10.68l5.58-.945m-3.388 2.477l3.387-2.477-4.012-1.222m-1.925-10.582l6.296-.946m-3.43 2.41l3.43-2.41-3.988-1.297m-2.668-10.507l7.016-.946m-3.469 2.36l3.469-2.36-3.969-1.355m-3.406-10.45l7.734-.945m-3.496 2.317l3.496-2.317-3.949-1.406m-4.145-10.398l8.454-.946m-3.52 2.282l3.52-2.282-3.934-1.449m-4.879-10.355l9.172-.946m-3.54 2.25l3.54-2.25-3.922-1.48M176.93 258.73l-4.86-1.21m4.094-.91l-4.094.91 3.184 2.726m1.312-14.266l-4.136-1.21m4.129-.747l-4.13.747 3.075 2.851m.707-14.39l-3.422-1.211m4.164-.512l-4.164.512 2.906 3.02m.153-14.56l-2.696-1.21m4.188-.172l-4.188.172 2.649 3.246m-.313-14.786l-1.976-1.21m4.176.363l-4.176-.363 2.215 3.558m-.598-15.098l-1.258-1.21m4 1.25l-4-1.25 1.399 3.949m-.5-15.489l-.54-1.21m3.239 2.664l-3.239-2.664-.19 4.187m.37-15.727l.18-1.21m1.305 3.984l-1.305-3.984-2.402 3.433m1.863-14.973l.898-1.21m-.726 4.128l.726-4.128-3.738 1.894m2.48-13.434l1.618-1.21m-1.875 3.75l1.875-3.75-4.125.75m2.144-12.29l2.34-1.21m-2.465 3.39l2.465-3.39-4.191.062m1.496-11.602l3.054-1.21m-2.793 3.125l2.793-3.125-4.175-.36m.757-11.18l3.782-1.21m-3 2.93l3-2.93-4.145-.641m.008-10.899l4.492-1.21m-3.129 2.785l3.13-2.785-4.106-.836m-.75-10.704l5.218-1.21m-3.23 2.675l3.23-2.675-4.078-.977m-1.5-10.563l5.938-1.21m-3.297 2.585l3.297-2.585-4.051-1.086m-2.246-10.454l6.656-1.21m-3.351 2.515l3.351-2.515-4.027-1.172m-2.988-10.368l7.375-1.21m-3.395 2.457l3.395-2.457-4.004-1.243m-3.73-10.297l8.093-1.21m-3.43 2.41l3.43-2.41-3.984-1.301m-4.47-10.239l8.813-1.21m-3.457 2.367l3.457-2.367-3.968-1.348m19.171 244.945l-5.218-1.484m4.12-.778l-4.12.778 3.093 2.828m1.762-14.094l-4.492-1.484m4.144-.606l-4.144.606 2.973 2.957m1.164-14.223l-3.782-1.484m4.18-.375l-4.18.375 2.805 3.117m.613-14.383l-3.054-1.484m4.191-.051l-4.191.05 2.554 3.325m.141-14.59l-2.34-1.484m4.176.426l-4.176-.426 2.164 3.594m-.183-14.86l-1.618-1.484m4.032 1.152l-4.032-1.152 1.497 3.918m-.239-15.184l-.898-1.484m3.547 2.234l-3.547-2.234.34 4.18m.199-15.446l-.18-1.484m2.313 3.496l-2.313-3.496-1.41 3.949m1.23-15.215l.54-1.484m.48 4.164l-.48-4.164-3.043 2.883m2.144-14.149l1.258-1.484m-.996 4.07l.996-4.07-3.856 1.644m2.239-12.91l1.976-1.484m-1.875 3.75l1.875-3.75-4.125.75m1.79-12.016l2.695-1.484m-2.38 3.449l2.38-3.45-4.188.165m1.13-11.43l3.42-1.484m-2.694 3.215l2.695-3.215-4.188-.227m.407-11.039l4.14-1.484m-2.898 3.031l2.898-3.031-4.164-.5m-.336-10.766l4.86-1.484m-3.04 2.887l3.04-2.887-4.137-.695m-1.082-10.57l5.578-1.485m-3.144 2.777l3.144-2.777-4.105-.848m-1.832-10.418l6.296-1.484m-3.218 2.683l3.218-2.683-4.082-.965m-2.574-10.3l7.016-1.485m-3.281 2.61l3.28-2.61-4.058-1.059m-3.316-10.207l7.734-1.484m-3.332 2.547l3.332-2.547-4.035-1.137m-4.059-10.129l8.454-1.484m-3.372 2.496l3.372-2.496-4.016-1.2M211.289 259l-5.578-1.754m4.14-.66l-4.14.66 3.016 2.914m2.203-13.91l-4.86-1.754m4.164-.488l-4.164.488 2.89 3.04m1.606-14.036l-4.136-1.754m4.183-.262l-4.183.262 2.722 3.192m1.059-14.188l-3.422-1.754m4.195.047l-4.195-.047 2.48 3.383m.579-14.379l-2.696-1.754m4.164.473l-4.164-.473 2.121 3.617m.215-14.613l-1.976-1.754m4.05 1.086l-4.05-1.086 1.562 3.895m.055-14.891l-1.258-1.754m3.707 1.953l-3.707-1.953.664 4.14m.235-15.132l-.54-1.758m2.895 3.035l-2.895-3.035-.69 4.137m.87-15.13l.18-1.757m1.48 3.926l-1.48-3.926-2.246 3.54m1.707-14.532l.898-1.758m-.043 4.195l.043-4.195-3.379 2.484m2.121-13.476l1.618-1.758m-1.164 4.027l1.164-4.027-3.922 1.484m1.941-12.476l2.34-1.758m-1.875 3.75l1.875-3.75-4.125.75m1.43-11.742l3.054-1.758m-2.316 3.492l2.316-3.492-4.183.242m.765-11.234l3.782-1.758m-2.614 3.281l2.614-3.28-4.196-.118m.059-10.875l4.492-1.758m-2.809 3.11l2.81-3.11-4.173-.383m-.683-10.61l5.218-1.757m-2.957 2.973l2.957-2.973-4.152-.582m-1.426-10.41l5.938-1.758m-3.067 2.863l3.067-2.863-4.13-.734m-2.167-10.258l6.656-1.758m-3.148 2.77l3.148-2.77-4.105-.855m-2.91-10.137l7.375-1.758m-3.215 2.692l3.214-2.692-4.082-.957m-3.652-10.035l8.094-1.758m-3.27 2.629l3.27-2.629-4.063-1.035m19.985 245.176l-5.938-2.024m4.156-.566l-4.156.566 2.946 2.985m2.632-13.711l-5.218-2.024m4.175-.39l-4.175.39 2.82 3.106m2.035-13.832l-4.492-2.024m4.187-.172l-4.187.172 2.648 3.25m1.489-13.976l-3.782-2.024m4.192.117l-4.192-.117 2.422 3.422m.996-14.148l-3.054-2.024m4.16.504l-4.16-.504 2.09 3.633m.605-14.36l-2.34-2.023m4.067 1.035l-4.067-1.035 1.61 3.871m.37-14.597l-1.617-2.024m3.805 1.758l-3.805-1.758.875 4.098m.383-14.824l-.898-2.024m3.234 2.664l-3.234-2.664-.192 4.188m.73-14.914l-.179-2.024m2.2 3.57l-2.2-3.57-1.535 3.903m1.355-14.63l.54-2.023m.843 4.106l-.843-4.106-2.778 3.14m1.88-13.866l1.257-2.024m-.387 4.176l.387-4.176-3.574 2.196m1.957-12.922l1.976-2.024m-1.281 3.992l1.281-3.992-3.96 1.371m1.624-12.097l2.696-2.024m-1.875 3.75l1.875-3.75-4.125.75m1.066-11.476l3.422-2.024m-2.274 3.524l2.274-3.524-4.184.297m.403-11.023l4.136-2.024m-2.543 3.332l2.543-3.332-4.191-.035m-.305-10.691l4.86-2.024m-2.743 3.172l2.743-3.172-4.184-.289m-1.035-10.437l5.578-2.024m-2.887 3.043l2.887-3.043-4.168-.484m-1.77-10.242l6.297-2.024m-2.996 2.934l2.996-2.934-4.144-.636m-2.512-10.09l7.016-2.024m-3.082 2.84l3.082-2.84-4.121-.761m-3.254-9.965l7.734-2.024m-3.152 2.762l3.152-2.762-4.101-.867m20.382 245.277l-6.296-2.296m4.164-.477l-4.164.477 2.882 3.046m3.055-13.5l-5.578-2.296m4.184-.305l-4.184.305 2.758 3.164m2.46-13.618l-4.859-2.296m4.192-.094l-4.192.094 2.59 3.296m1.91-13.75l-4.14-2.296m4.191.18l-4.191-.18 2.37 3.46m1.41-13.914l-3.42-2.296m4.16.535l-4.16-.535 2.07 3.648m.988-14.102l-2.696-2.296m4.07 1l-4.07-1 1.641 3.859m.695-14.313l-1.976-2.296m3.867 1.617l-3.867-1.617 1.027 4.066m.59-14.523l-1.258-2.293m3.445 2.386l-3.445-2.386.16 4.191m.739-14.648l-.54-2.293m2.684 3.222l-2.684-3.222-.964 4.082m1.144-14.536l.18-2.296m1.574 3.886l-1.574-3.886-2.164 3.593m1.625-14.05l.898-2.293m.375 4.175l-.375-4.175-3.113 2.808m1.855-13.262l1.618-2.296m-.63 4.144l.63-4.144-3.696 1.984m1.715-12.438l2.34-2.296m-1.363 3.964l1.363-3.964-3.988 1.289m1.293-11.746l3.054-2.293m-1.875 3.75l1.875-3.75-4.125.75m.707-11.204l3.782-2.296m-2.235 3.55l2.235-3.55-4.18.343m.043-10.8l4.492-2.293m-2.488 3.375l2.488-3.375-4.191.035m-.664-10.489l5.218-2.296m-2.68 3.226l2.68-3.226-4.187-.207m-1.39-10.25l5.937-2.293m-2.824 3.101l2.824-3.101-4.176-.399m-2.121-10.058l6.656-2.293m-2.933 2.996l2.933-2.996-4.156-.551m-2.86-9.906l7.375-2.293m-3.023 2.906l3.024-2.906-4.137-.676m20.777 245.355l-6.656-2.562m4.172-.403l-4.172.403 2.824 3.097m3.473-13.285l-5.938-2.562m4.188-.235l-4.188.235 2.7 3.207m2.878-13.395l-5.218-2.562m4.195-.031l-4.195.03 2.539 3.337m2.316-13.524l-4.492-2.562m4.184.226l-4.184-.226 2.328 3.484m1.809-13.672l-3.782-2.562m4.157.554l-4.157-.554 2.051 3.656m1.367-13.844l-3.054-2.562m4.078.972l-4.078-.972 1.668 3.844m1.027-14.032l-2.34-2.562m3.914 1.508l-3.914-1.508 1.145 4.035m.836-14.223l-1.618-2.562m3.586 2.168l-3.586-2.168.414 4.172m.844-14.36l-.898-2.562m3.012 2.918l-3.012-2.918-.528 4.16m1.067-14.348l-.18-2.562m2.133 3.61l-2.133-3.61-1.61 3.87m1.43-14.058l.54-2.562m1.062 4.054l-1.062-4.054-2.61 3.285m1.711-13.473l1.258-2.562m.031 4.191l-.031-4.191-3.336 2.539m1.719-12.727l1.976-2.562m-.804 4.113l.804-4.113-3.773 1.82m1.437-12.008l2.696-2.562m-1.426 3.941l1.426-3.941-4.008 1.222m.95-11.41l3.42-2.562m-1.874 3.75l1.875-3.75-4.125.75m.344-10.938l4.136-2.562m-2.199 3.566l2.2-3.566-4.172.379m-.325-10.567l4.86-2.562m-2.442 3.41l2.442-3.41-4.192.094m-1.027-10.282l5.578-2.562m-2.625 3.27l2.625-3.27-4.191-.137m-1.746-10.05l6.296-2.563m-2.765 3.148l2.765-3.148-4.18-.324m-2.476-9.864l7.016-2.562m-2.88 3.047l2.88-3.047-4.164-.477m21.164 245.422l-7.016-2.832m4.18-.332l-4.18.332 2.774 3.145m3.882-13.063l-6.296-2.832m4.187-.172l-4.187.172 2.652 3.25m3.285-13.168l-5.578-2.832m4.191.027l-4.191-.027 2.492 3.371m2.727-13.289l-4.86-2.832m4.184.27l-4.184-.27 2.297 3.512m2.203-13.43l-4.14-2.832m4.156.574l-4.156-.574 2.035 3.668m1.746-13.586l-3.422-2.832m4.086.95l-4.086-.95 1.691 3.836m1.368-13.754l-2.696-2.832m3.942 1.422l-3.942-1.422 1.227 4.012m1.11-13.93l-1.977-2.828m3.683 2l-3.683-2 .61 4.144m1.007-14.066l-1.258-2.828m3.234 2.66l-3.234-2.66-.191 4.187m1.09-14.109l-.54-2.828m2.543 3.328l-2.543-3.328-1.14 4.031m1.32-13.953l.18-2.828m1.633 3.86l-1.633-3.86-2.11 3.621m1.57-13.543l.9-2.828m.652 4.14l-.653-4.14-2.922 3.004m1.664-12.926l1.618-2.828m-.23 4.184l.23-4.184-3.489 2.324m1.508-12.246l2.34-2.828m-.941 4.082l.941-4.082-3.832 1.695m1.137-11.617l3.054-2.828m-1.476 3.922l1.476-3.922-4.023 1.172m.605-11.094l3.782-2.828m-1.875 3.75l1.875-3.75-4.125.75m-.012-10.672l4.492-2.828m-2.172 3.582l2.172-3.582-4.172.41m-.683-10.332l5.218-2.832m-2.402 3.438l2.402-3.438-4.191.145m-1.387-10.063l5.938-2.832m-2.578 3.309l2.578-3.309-4.192-.074m-2.105-9.844l6.656-2.832m-2.715 3.195l2.715-3.195-4.183-.254m21.542 245.473l-7.375-3.102m4.184-.273l-4.184.273 2.731 3.184m4.285-12.832l-6.656-3.102m4.191-.117l-4.191.117 2.605 3.281m3.692-12.93l-5.938-3.1m4.192.073l-4.192-.074 2.457 3.399m3.121-13.047l-5.218-3.102m4.183.305l-4.183-.305 2.265 3.528m2.59-13.176l-4.492-3.102m4.148.586l-4.148-.586 2.02 3.672m2.117-13.32l-3.782-3.102m4.09.93l-4.09-.93 1.711 3.828m1.707-13.476l-3.054-3.102m3.965 1.352l-3.965-1.352 1.297 3.985m1.398-13.633l-2.34-3.102m3.758 1.867l-3.758-1.867.762 4.121m1.219-13.77l-1.618-3.1m3.399 2.456l-3.399-2.457.07 4.192m1.188-13.84l-.898-3.102m2.844 3.078l-2.844-3.078-.758 4.121m1.297-13.77l-.18-3.1m2.086 3.636l-2.086-3.637-1.656 3.852m1.476-13.5l.54-3.102m1.203 4.016l-1.203-4.016-2.489 3.371m1.59-13.02l1.258-3.1m.328 4.179l-.328-4.18-3.149 2.77m1.532-12.418l1.976-3.102m-.433 4.168l.433-4.168-3.597 2.153m1.261-11.801l2.696-3.102m-1.043 4.059l1.043-4.059-3.875 1.598m.816-11.246l3.422-3.102m-1.52 3.906l1.52-3.906-4.04 1.133m.259-10.781l4.136-3.102m-1.875 3.75l1.875-3.75-4.12.75m-.376-10.398l4.86-3.102m-2.153 3.598l2.153-3.598-4.172.438m-1.047-10.086l5.578-3.102m-2.367 3.461l2.367-3.46-4.191.183m-1.746-9.832l6.296-3.102m-2.535 3.34l2.535-3.34-4.195-.023m21.914 245.512l-7.734-3.375m4.187-.22l-4.187.22 2.687 3.218m4.688-12.593l-7.016-3.375m4.192-.063l-4.192.063 2.567 3.316m4.09-12.691l-6.297-3.375m4.191.117l-4.191-.117 2.421 3.425m3.516-12.8l-5.578-3.375m4.18.335l-4.18-.335 2.238 3.546m2.98-12.921l-4.859-3.375m4.153.597l-4.153-.597 2.012 3.68m2.484-13.055l-4.136-3.375m4.093.917l-4.093-.917 1.722 3.824m2.059-13.2l-3.422-3.374m3.988 1.3l-3.988-1.3 1.356 3.968m1.703-13.343l-2.696-3.375m3.805 1.757l-3.805-1.757.875 4.101m1.461-13.476l-1.976-3.375m3.511 2.285l-3.511-2.285.277 4.183m1.34-13.558l-1.258-3.375m3.067 2.859l-3.067-2.86-.445 4.168m1.344-13.542l-.54-3.375m2.446 3.406l-2.446-3.406-1.257 4m1.437-13.375l.18-3.375m1.672 3.843l-1.672-3.843-2.07 3.648m1.53-13.023l.9-3.375m.847 4.109l-.848-4.11-2.777 3.141m1.52-12.515l1.617-3.375m.07 4.19l-.07-4.19-3.313 2.57m1.332-11.945l2.34-3.375m-.594 4.152l.594-4.152-3.676 2.015m.98-11.39l3.055-3.375m-1.129 4.039l1.13-4.04-3.907 1.52m.488-10.894l3.782-3.375m-1.551 3.898l1.55-3.898-4.046 1.097m-.09-10.472l4.492-3.375m-1.875 3.75l1.875-3.75-4.125.75m-.73-10.125l5.218-3.375m-2.132 3.613l2.132-3.613-4.168.46m-1.41-9.835l5.938-3.375m-2.336 3.484l2.336-3.484-4.188.222m22.266 245.535l-8.094-3.64m4.188-.172l-4.188.172 2.649 3.246m5.085-12.356l-7.375-3.64m4.192-.024l-4.192.024 2.532 3.34m4.484-12.45l-6.656-3.64m4.191.156l-4.191-.156 2.39 3.445m3.907-12.555l-5.938-3.64m4.18.363l-4.18-.363 2.215 3.558m3.363-12.668l-5.218-3.64m4.148.61l-4.148-.61 2.004 3.683m2.851-12.793l-4.492-3.64m4.09.902l-4.09-.902 1.73 3.816m2.407-12.926l-3.782-3.64m4.004 1.25l-4.004-1.25 1.399 3.953m2.02-13.063l-3.055-3.64m3.843 1.664l-3.843-1.664.972 4.078m1.723-13.188l-2.34-3.64m3.606 2.14l-3.606-2.14.45 4.168m1.53-13.278l-1.617-3.64m3.235 2.664l-3.235-2.664-.191 4.187m1.45-13.297l-.9-3.64m2.72 3.191l-2.72-3.191-.921 4.09m1.46-13.2l-.179-3.64m2.059 3.652l-2.059-3.652-1.687 3.836m1.507-12.946l.54-3.64m1.304 3.984l-1.304-3.984-2.407 3.433m1.508-12.543l1.258-3.64m.547 4.156l-.547-4.156-2.996 2.93m1.379-12.04l1.976-3.64m-.14 4.187l.14-4.187-3.437 2.398m1.101-11.508l2.696-3.64m-.727 4.129l.727-4.13-3.739 1.895m.68-11.004l3.422-3.64m-1.2 4.015l1.2-4.015-3.938 1.449m.157-10.559l4.14-3.64m-1.578 3.883l1.578-3.883-4.054 1.07m-.446-10.18l4.86-3.64m-1.875 3.75l1.875-3.75-4.125.75m-1.094-9.86l5.578-3.64m-2.117 3.62l2.117-3.62-4.168.48m22.606 245.547l-8.454-3.914m4.192-.125l-4.192.125 2.618 3.277m5.476-12.113l-7.734-3.914m4.191.02l-4.191-.02 2.5 3.367m4.875-12.203l-7.016-3.914m4.188.191l-4.188-.191 2.363 3.465m4.293-12.301l-6.296-3.914m4.175.387l-4.175-.387 2.195 3.57m3.742-12.406l-5.578-3.914m4.148.617l-4.148-.617 1.992 3.687m3.227-12.523l-4.86-3.914m4.098.895l-4.098-.895 1.746 3.812m2.754-12.648l-4.14-3.914m4.015 1.215l-4.015-1.215 1.437 3.937m2.344-12.773l-3.422-3.914m3.883 1.59l-3.883-1.59 1.059 4.059m2-12.895l-2.696-3.914m3.672 2.023l-3.672-2.023.582 4.152m1.754-12.988l-1.976-3.914m3.363 2.5l-3.363-2.5.02 4.191m1.597-13.027l-1.258-3.914m2.934 2.996l-2.934-2.996-.637 4.145m1.536-12.981l-.54-3.914m2.372 3.46l-2.372-3.46-1.343 3.973m1.523-12.809l.18-3.914m1.7 3.832l-1.7-3.832-2.047 3.66m1.508-12.496l.898-3.914m.988 4.074l-.988-4.074-2.668 3.234m1.41-12.07l1.618-3.914m.3 4.184l-.3-4.184-3.164 2.75m1.183-11.586l2.34-3.914m-.313 4.184l.313-4.184-3.531 2.258m.836-11.094l3.054-3.914m-.832 4.11l.832-4.11-3.785 1.8m.367-10.636l3.782-3.914m-1.258 4l1.258-4-3.957 1.395m-.18-10.231l4.492-3.914m-1.598 3.879l1.598-3.879-4.059 1.047m-.796-9.883l5.218-3.914m-1.875 3.75l1.875-3.75-4.125.75" fill="none" stroke-width=".625" stroke-linecap="round" stroke="#00f" stroke-miterlimit="10"/></svg>