<svg xmlns="http://www.w3.org/2000/svg" xmlns:xlink="http://www.w3.org/1999/xlink" width="488" height="274pt" viewBox="0 0 366 274"><defs><clipPath id="k"><path d="M13 8.5h340V9H13zm0 0"/></clipPath><clipPath id="f"><path d="M304 8.5h1v255h-1zm0 0"/></clipPath><clipPath id="s"><path d="M81 8.5h172v255H81zm0 0"/></clipPath><clipPath id="r"><path d="M13 8.5h86V154H13zm0 0"/></clipPath><clipPath id="q"><path d="M13 8.5h340V150H13zm0 0"/></clipPath><clipPath id="a"><path d="M13 8.5h1v255h-1zm0 0"/></clipPath><clipPath id="b"><path d="M13 135h340v2H13zm0 0"/></clipPath><clipPath id="c"><path d="M13 8.5h1v255h-1zm0 0"/></clipPath><clipPath id="d"><path d="M109 8.5h2v255h-2zm0 0"/></clipPath><clipPath id="e"><path d="M206 8.5h2v255h-2zm0 0"/></clipPath><clipPath id="t"><path d="M233 8.5h120v255H233zm0 0"/></clipPath><clipPath id="g"><path d="M13 263h340v.5H13zm0 0"/></clipPath><clipPath id="h"><path d="M13 199h340v2H13zm0 0"/></clipPath><clipPath id="i"><path d="M13 135h340v2H13zm0 0"/></clipPath><clipPath id="j"><path d="M13 71h340v2H13zm0 0"/></clipPath><symbol overflow="visible" id="m"><path d="M3.797-.656H1c.063-.438.313-.703.953-1.094l.75-.406c.75-.406 1.125-.953 1.125-1.594 0-.453-.172-.86-.484-1.14-.328-.298-.719-.423-1.219-.423-.672 0-1.172.235-1.469.688-.187.281-.265.61-.281 1.156h.656c.032-.36.078-.578.157-.75.171-.328.515-.515.921-.515.594 0 1.047.421 1.047.984 0 .422-.25.781-.719 1.063l-.687.39C.64-1.672.312-1.172.25 0h3.547zm0 0"/></symbol><symbol overflow="visible" id="p"><path d="M2.125-2.344H.344v.547h1.781zm0 0"/></symbol><symbol overflow="visible" id="o"><path d="M3.734-3.938c-.125-.859-.703-1.374-1.5-1.374-.593 0-1.109.28-1.437.75-.328.515-.469 1.171-.469 2.14 0 .89.125 1.469.438 1.938.296.421.75.656 1.343.656 1.016 0 1.735-.75 1.735-1.797 0-.984-.672-1.688-1.625-1.688-.531 0-.938.204-1.219.594 0-1.297.422-2.015 1.188-2.015.453 0 .78.296.89.796zm-1.593 1.22c.64 0 1.03.437 1.03 1.155 0 .657-.452 1.157-1.062 1.157-.609 0-1.078-.516-1.078-1.203 0-.657.453-1.11 1.11-1.11zm0 0"/></symbol><symbol overflow="visible" id="n"><path d="M2.453-1.281V0h.656v-1.281h.797v-.594H3.11v-3.438h-.484L.203-1.969v.688zm0-.594H.781l1.672-2.313zm0 0"/></symbol><symbol overflow="visible" id="l"><path d="M2.063-5.313c-.5 0-.938.22-1.22.579C.5-4.266.329-3.563.329-2.578c0 1.797.594 2.75 1.734 2.75 1.126 0 1.735-.953 1.735-2.703 0-1.031-.156-1.719-.516-2.203-.281-.375-.719-.579-1.219-.579zm0 .579c.718 0 1.062.718 1.062 2.14 0 1.516-.344 2.219-1.078 2.219C1.344-.375 1-1.109 1-2.563c0-1.453.344-2.171 1.063-2.171zm0 0"/></symbol></defs><g clip-path="url(#a)"><path d="M13 263.5V8.5" fill="none" stroke-width=".625" stroke-linecap="round" stroke="#bfbfbf" stroke-miterlimit="10"/></g><g clip-path="url(#b)"><path d="M13 136h340" fill="none" stroke-width=".625" stroke-linecap="round" stroke="#bfbfbf" stroke-miterlimit="10"/></g><g clip-path="url(#c)"><path d="M13 263.5V8.5" fill="none" stroke-width=".625" stroke-linecap="round" stroke="#bfbfbf" stroke-dasharray="12.5,18.75" stroke-miterlimit="10"/></g><g clip-path="url(#d)"><path d="M110.145 263.5V8.5" fill="none" stroke-width=".625" stroke-linecap="round" stroke="#bfbfbf" stroke-dasharray="12.5,18.75" stroke-miterlimit="10"/></g><g clip-path="url(#e)"><path d="M207.285 263.5V8.5" fill="none" stroke-width=".625" stroke-linecap="round" stroke="#bfbfbf" stroke-dasharray="12.5,18.75" stroke-miterlimit="10"/></g><g clip-path="url(#f)"><path d="M304.43 263.5V8.5" fill="none" stroke-width=".625" stroke-linecap="round" stroke="#bfbfbf" stroke-dasharray="12.5,18.75" stroke-miterlimit="10"/></g><g clip-path="url(#g)"><path d="M13 263.5h340" fill="none" stroke-width=".625" stroke-linecap="round" stroke="#bfbfbf" stroke-dasharray="12.5,18.75" stroke-miterlimit="10"/></g><g clip-path="url(#h)"><path d="M13 199.75h340" fill="none" stroke-width=".625" stroke-linecap="round" stroke="#bfbfbf" stroke-dasharray="12.5,18.75" stroke-miterlimit="10"/></g><g clip-path="url(#i)"><path d="M13 136h340" fill="none" stroke-width=".625" stroke-linecap="round" stroke="#bfbfbf" stroke-dasharray="12.5,18.75" stroke-miterlimit="10"/></g><g clip-path="url(#j)"><path d="M13 72.25h340" fill="none" stroke-width=".625" stroke-linecap="round" stroke="#bfbfbf" stroke-dasharray="12.5,18.75" stroke-miterlimit="10"/></g><g clip-path="url(#k)"><path d="M13 8.5h340" fill="none" stroke-width=".625" stroke-linecap="round" stroke="#bfbfbf" stroke-dasharray="12.5,18.75" stroke-miterlimit="10"/></g><path d="M13 263.5h340" fill="none" stroke-width="1.25" stroke-linecap="square" stroke="#000" stroke-miterlimit="10"/><path d="M13 263.5v-5m9.715 5V261m9.715 2.5V261m9.715 2.5V261m9.71 2.5V261m9.715 2.5V261m9.715 2.5V261M81 263.5V261m9.715 2.5V261m9.715 2.5V261m9.715 2.5v-5m9.71 5V261m9.715 2.5V261m9.715 2.5V261m9.715 2.5V261m9.715 2.5V261m9.715 2.5V261m9.715 2.5V261m9.71 2.5V261m9.715 2.5V261m9.715 2.5v-5m9.715 5V261m9.715 2.5V261m9.715 2.5V261m9.715 2.5V261m9.71 2.5V261m9.715 2.5V261m9.715 2.5V261m9.715 2.5V261m9.715 2.5V261m9.715 2.5v-5m9.715 5V261m9.71 2.5V261m9.715 2.5V261m9.715 2.5V261m9.715 2.5V261" fill="none" stroke-width=".625" stroke="#000" stroke-miterlimit="10"/><use xlink:href="#l" x="10.29" y="273.5"/><use xlink:href="#m" x="107.79" y="273.5"/><use xlink:href="#n" x="204.665" y="273.5"/><use xlink:href="#o" x="302.165" y="273.5"/><path d="M13 8.5h340" fill="none" stroke-width="1.25" stroke-linecap="square" stroke="#000" stroke-miterlimit="10"/><path d="M13 8.5v5m9.715-5V11m9.715-2.5V11m9.715-2.5V11m9.71-2.5V11m9.715-2.5V11m9.715-2.5V11M81 8.5V11m9.715-2.5V11m9.715-2.5V11m9.715-2.5v5m9.71-5V11m9.715-2.5V11m9.715-2.5V11M149 8.5V11m9.715-2.5V11m9.715-2.5V11m9.715-2.5V11m9.71-2.5V11m9.715-2.5V11m9.715-2.5v5m9.715-5V11m9.715-2.5V11m9.715-2.5V11m9.715-2.5V11m9.71-2.5V11m9.715-2.5V11m9.715-2.5V11M285 8.5V11m9.715-2.5V11m9.715-2.5v5m9.715-5V11m9.71-2.5V11m9.715-2.5V11m9.715-2.5V11M353 8.5V11" fill="none" stroke-width=".625" stroke="#000" stroke-miterlimit="10"/><use xlink:href="#l" x="10.29" y="5.375"/><use xlink:href="#m" x="107.79" y="5.375"/><use xlink:href="#n" x="204.665" y="5.375"/><use xlink:href="#o" x="302.165" y="5.375"/><path d="M13 263.5V8.5" fill="none" stroke-width="1.25" stroke-linecap="square" stroke="#000" stroke-miterlimit="10"/><path d="M13 263.5h5m-5-6.375h2.5M13 250.75h2.5m-2.5-6.375h2.5M13 238h2.5m-2.5-6.375h2.5M13 225.25h2.5m-2.5-6.375h2.5M13 212.5h2.5m-2.5-6.375h2.5M13 199.75h5m-5-6.375h2.5M13 187h2.5m-2.5-6.375h2.5M13 174.25h2.5m-2.5-6.375h2.5M13 161.5h2.5m-2.5-6.375h2.5M13 148.75h2.5m-2.5-6.375h2.5M13 136h5m-5-6.375h2.5M13 123.25h2.5m-2.5-6.375h2.5M13 110.5h2.5m-2.5-6.375h2.5M13 97.75h2.5M13 91.375h2.5M13 85h2.5M13 78.625h2.5M13 72.25h5m-5-6.375h2.5M13 59.5h2.5M13 53.125h2.5M13 46.75h2.5M13 40.375h2.5M13 34h2.5M13 27.625h2.5M13 21.25h2.5M13 14.875h2.5M13 8.5h5" fill="none" stroke-width=".625" stroke="#000" stroke-miterlimit="10"/><use xlink:href="#p" x="-.542" y="267.25"/><use xlink:href="#n" x="1.956" y="267.25"/><use xlink:href="#p" x="-.542" y="202.875"/><use xlink:href="#m" x="1.956" y="202.875"/><use xlink:href="#l" x="1.955" y="139.125"/><use xlink:href="#m" x="1.955" y="75.375"/><use xlink:href="#n" x="1.955" y="11.625"/><path d="M353 263.5V8.5" fill="none" stroke-width="1.25" stroke-linecap="square" stroke="#000" stroke-miterlimit="10"/><path d="M353 263.5h-5m5-6.375h-2.5m2.5-6.375h-2.5m2.5-6.375h-2.5M353 238h-2.5m2.5-6.375h-2.5m2.5-6.375h-2.5m2.5-6.375h-2.5m2.5-6.375h-2.5m2.5-6.375h-2.5m2.5-6.375h-5m5-6.375h-2.5M353 187h-2.5m2.5-6.375h-2.5m2.5-6.375h-2.5m2.5-6.375h-2.5m2.5-6.375h-2.5m2.5-6.375h-2.5m2.5-6.375h-2.5m2.5-6.375h-2.5M353 136h-5m5-6.375h-2.5m2.5-6.375h-2.5m2.5-6.375h-2.5m2.5-6.375h-2.5m2.5-6.375h-2.5m2.5-6.375h-2.5m2.5-6.375h-2.5M353 85h-2.5m2.5-6.375h-2.5m2.5-6.375h-5m5-6.375h-2.5M353 59.5h-2.5m2.5-6.375h-2.5m2.5-6.375h-2.5m2.5-6.375h-2.5M353 34h-2.5m2.5-6.375h-2.5m2.5-6.375h-2.5m2.5-6.375h-2.5M353 8.5h-5" fill="none" stroke-width=".625" stroke="#000" stroke-miterlimit="10"/><use xlink:href="#p" x="359.25" y="267.25"/><use xlink:href="#n" x="361.748" y="267.25"/><use xlink:href="#p" x="359.25" y="202.875"/><use xlink:href="#m" x="361.748" y="202.875"/><use xlink:href="#l" x="359.25" y="139.125"/><use xlink:href="#m" x="359.25" y="75.375"/><use xlink:href="#n" x="359.25" y="11.625"/><g clip-path="url(#q)"><path d="M22.715-23.375L27.57 29.75l4.86 26.563 4.855 15.937 4.86 10.625L47 90.465l4.855 5.691 4.86 4.426 4.855 3.543 4.86 2.898 4.855 2.415 4.86 2.042L81 113.23l4.855 1.52 4.86 1.328 4.855 1.172 4.86 1.043 4.855.93 4.86.84 4.855.757 4.855.692 4.86.629 4.855.578 4.86.531 4.855.488 4.86.457 4.855.422 4.855.39 4.86.368 4.855.344 4.86.32 4.855.3 4.86.286 4.855.27 4.855.25 4.86.242 4.855.226 4.86.215 4.855.203 4.86.196 4.855.183 4.855.176 4.86.168 4.855.164 4.86.152 4.855.149 4.86.14 4.855.137 4.855.129 4.86.125 4.855.121 4.86.113 4.855.114 4.86.105 4.855.106 4.855.097 4.86.098 4.855.094 4.86.09 4.855.085 4.86.086 4.855.082 4.855.079 4.86.078 4.855.074 4.86.07 4.855.07 4.86.067 4.855.066" fill="none" stroke-width="1.25" stroke-linecap="round" stroke="#00008b" stroke-miterlimit="10"/></g><g clip-path="url(#r)"><path d="M13 136l4.855-3.2 4.86-3.26 4.855-3.4 4.86-3.617 4.855-3.937 4.86-4.395L47 109.152l4.855-5.972 4.86-7.348 4.855-9.477 4.86-12.984 4.855-19.36 4.86-32.827L81-48.81" fill="none" stroke-width="1.25" stroke-linecap="round" stroke="#006400" stroke-miterlimit="10"/></g><g clip-path="url(#s)"><path d="M99.012 293.242l4.855-54.199 4.856-27.652 4.859-17.043 4.856-11.758 4.859-8.746 4.855-6.887 4.86-5.664 4.855-4.824 4.856-4.246 4.859-3.832 4.856-3.543 4.859-3.352 4.855-3.234 4.86-3.196 4.855-3.207 4.856-3.296 4.859-3.454 4.856-3.699 4.859-4.05 4.855-4.563 4.86-5.277 4.855-6.317 4.856-7.875 4.859-10.312 4.856-14.446 4.859-22.226 4.855-39.703 4.86-94.25" fill="none" stroke-width="1.25" stroke-linecap="round" stroke="#006400" stroke-miterlimit="10"/></g><g clip-path="url(#t)"><path d="M251.602 293.242l4.859-54.199 4.855-27.652 4.856-17.043 4.86-11.758 4.855-8.746 4.855-6.887 4.86-5.664 4.859-4.824 4.855-4.246 4.856-3.832 4.86-3.543 4.855-3.352 4.855-3.234 4.86-3.196 4.859-3.207 4.855-3.296 4.856-3.454 4.86-3.699 4.855-4.05 4.855-4.563 4.86-5.277 4.859-6.317 4.855-7.875 4.856-10.312 4.86-14.446 4.855-22.226 4.855-39.703 4.86-94.25" fill="none" stroke-width="1.25" stroke-linecap="round" stroke="#006400" stroke-miterlimit="10"/></g></svg>