<svg xmlns="http://www.w3.org/2000/svg" xmlns:xlink="http://www.w3.org/1999/xlink" width="382pt" height="275pt" viewBox="0 0 382 275"><defs><clipPath id="y"><path d="M21 9.5h340v255H21zm0 0"/></clipPath><clipPath id="h"><path d="M304 9.5h1v255h-1zm0 0"/></clipPath><clipPath id="o"><path d="M21 28h340v2H21zm0 0"/></clipPath><clipPath id="n"><path d="M21 73h340v2H21zm0 0"/></clipPath><clipPath id="m"><path d="M21 118h340v1H21zm0 0"/></clipPath><clipPath id="l"><path d="M21 163h340v1H21zm0 0"/></clipPath><clipPath id="k"><path d="M21 207h340v2H21zm0 0"/></clipPath><clipPath id="j"><path d="M21 252h340v2H21zm0 0"/></clipPath><clipPath id="i"><path d="M360 9.5h1v255h-1zm0 0"/></clipPath><clipPath id="a"><path d="M21 9.5h1v255h-1zm0 0"/></clipPath><clipPath id="b"><path d="M21 252h340v2H21zm0 0"/></clipPath><clipPath id="c"><path d="M21 9.5h1v255h-1zm0 0"/></clipPath><clipPath id="d"><path d="M77 9.5h1v255h-1zm0 0"/></clipPath><clipPath id="e"><path d="M134 9.5h1v255h-1zm0 0"/></clipPath><clipPath id="f"><path d="M190 9.5h2v255h-2zm0 0"/></clipPath><clipPath id="g"><path d="M247 9.5h1v255h-1zm0 0"/></clipPath><symbol overflow="visible" id="q"><path d="M1.938-3.781V0h.671v-5.313h-.437c-.235.813-.39.922-1.406 1.047v.485zm0 0"/></symbol><symbol overflow="visible" id="x"><path d="M3.906-5.313H.344v.641h2.875C1.953-2.859 1.438-1.75 1.03 0h.703c.297-1.703.97-3.172 2.172-4.766zm0 0"/></symbol><symbol overflow="visible" id="w"><path d="M1.438-.781H.655V0h.781zm0 0"/></symbol><symbol overflow="visible" id="v"><path d="M3.734-3.938c-.125-.859-.703-1.374-1.5-1.374-.593 0-1.109.28-1.437.75-.328.515-.469 1.171-.469 2.14 0 .89.125 1.469.438 1.938.296.421.75.656 1.343.656 1.016 0 1.735-.75 1.735-1.797 0-.984-.672-1.688-1.625-1.688-.531 0-.938.204-1.219.594 0-1.297.422-2.015 1.188-2.015.453 0 .78.296.89.796zm-1.593 1.22c.64 0 1.03.437 1.03 1.155 0 .657-.452 1.157-1.062 1.157-.609 0-1.078-.516-1.078-1.203 0-.657.453-1.11 1.11-1.11zm0 0"/></symbol><symbol overflow="visible" id="u"><path d="M3.563-5.313H.828L.422-2.421h.61c.312-.375.562-.5.984-.5.703 0 1.156.485 1.156 1.281 0 .766-.438 1.235-1.156 1.235-.579 0-.938-.297-1.094-.906H.266c.093.437.156.656.312.843.313.406.844.64 1.453.64 1.063 0 1.813-.78 1.813-1.905 0-1.047-.688-1.766-1.719-1.766-.375 0-.672.094-.984.313l.218-1.485h2.204zm0 0"/></symbol><symbol overflow="visible" id="t"><path d="M2.453-1.281V0h.656v-1.281h.797v-.594H3.11v-3.438h-.484L.203-1.969v.688zm0-.594H.781l1.672-2.313zm0 0"/></symbol><symbol overflow="visible" id="s"><path d="M1.656-2.438h.36c.734 0 1.109.329 1.109.954 0 .671-.422 1.078-1.11 1.078-.718 0-1.078-.36-1.109-1.14H.234c.032.421.11.702.235.952.281.5.797.766 1.531.766 1.094 0 1.797-.656 1.797-1.656 0-.672-.266-1.047-.906-1.266.5-.203.75-.578.75-1.11 0-.906-.61-1.453-1.625-1.453-1.079 0-1.641.579-1.657 1.72h.657c0-.329.03-.516.109-.673.156-.296.484-.468.906-.468.578 0 .938.343.938.906 0 .375-.14.594-.438.719-.172.078-.406.109-.875.109zm0 0"/></symbol><symbol overflow="visible" id="r"><path d="M3.797-.656H1c.063-.438.313-.703.953-1.094l.75-.406c.75-.406 1.125-.953 1.125-1.594 0-.453-.172-.86-.484-1.14-.328-.298-.719-.423-1.219-.423-.672 0-1.172.235-1.469.688-.187.281-.265.61-.281 1.156h.656c.032-.36.078-.578.157-.75.171-.328.515-.515.921-.515.594 0 1.047.421 1.047.984 0 .422-.25.781-.719 1.063l-.687.39C.64-1.672.312-1.172.25 0h3.547zm0 0"/></symbol><symbol overflow="visible" id="p"><path d="M2.063-5.313c-.5 0-.938.22-1.22.579C.5-4.266.329-3.563.329-2.578c0 1.797.594 2.75 1.734 2.75 1.126 0 1.735-.953 1.735-2.703 0-1.031-.156-1.719-.516-2.203-.281-.375-.719-.579-1.219-.579zm0 .579c.718 0 1.062.718 1.062 2.14 0 1.516-.344 2.219-1.078 2.219C1.344-.375 1-1.109 1-2.563c0-1.453.344-2.171 1.063-2.171zm0 0"/></symbol></defs><g clip-path="url(#a)"><path d="M21 264.5V9.5" fill="none" stroke-width=".625" stroke-linecap="round" stroke="#bfbfbf" stroke-miterlimit="10"/></g><g clip-path="url(#b)"><path d="M21 252.91h340" fill="none" stroke-width=".625" stroke-linecap="round" stroke="#bfbfbf" stroke-miterlimit="10"/></g><g clip-path="url(#c)"><path d="M21 264.5V9.5" fill="none" stroke-width=".625" stroke-linecap="round" stroke="#bfbfbf" stroke-dasharray="12.5,18.75" stroke-miterlimit="10"/></g><g clip-path="url(#d)"><path d="M77.668 264.5V9.5" fill="none" stroke-width=".625" stroke-linecap="round" stroke="#bfbfbf" stroke-dasharray="12.5,18.75" stroke-miterlimit="10"/></g><g clip-path="url(#e)"><path d="M134.332 264.5V9.5" fill="none" stroke-width=".625" stroke-linecap="round" stroke="#bfbfbf" stroke-dasharray="12.5,18.75" stroke-miterlimit="10"/></g><g clip-path="url(#f)"><path d="M191 264.5V9.5" fill="none" stroke-width=".625" stroke-linecap="round" stroke="#bfbfbf" stroke-dasharray="12.5,18.75" stroke-miterlimit="10"/></g><g clip-path="url(#g)"><path d="M247.668 264.5V9.5" fill="none" stroke-width=".625" stroke-linecap="round" stroke="#bfbfbf" stroke-dasharray="12.5,18.75" stroke-miterlimit="10"/></g><g clip-path="url(#h)"><path d="M304.332 264.5V9.5" fill="none" stroke-width=".625" stroke-linecap="round" stroke="#bfbfbf" stroke-dasharray="12.5,18.75" stroke-miterlimit="10"/></g><g clip-path="url(#i)"><path d="M361 264.5V9.5" fill="none" stroke-width=".625" stroke-linecap="round" stroke="#bfbfbf" stroke-dasharray="12.5,18.75" stroke-miterlimit="10"/></g><g clip-path="url(#j)"><path d="M21 252.91h340" fill="none" stroke-width=".625" stroke-linecap="round" stroke="#bfbfbf" stroke-dasharray="12.5,18.75" stroke-miterlimit="10"/></g><g clip-path="url(#k)"><path d="M21 208.16h340" fill="none" stroke-width=".625" stroke-linecap="round" stroke="#bfbfbf" stroke-dasharray="12.5,18.75" stroke-miterlimit="10"/></g><g clip-path="url(#l)"><path d="M21 163.41h340" fill="none" stroke-width=".625" stroke-linecap="round" stroke="#bfbfbf" stroke-dasharray="12.5,18.75" stroke-miterlimit="10"/></g><g clip-path="url(#m)"><path d="M21 118.66h340" fill="none" stroke-width=".625" stroke-linecap="round" stroke="#bfbfbf" stroke-dasharray="12.5,18.75" stroke-miterlimit="10"/></g><g clip-path="url(#n)"><path d="M21 73.91h340" fill="none" stroke-width=".625" stroke-linecap="round" stroke="#bfbfbf" stroke-dasharray="12.5,18.75" stroke-miterlimit="10"/></g><g clip-path="url(#o)"><path d="M21 29.16h340" fill="none" stroke-width=".625" stroke-linecap="round" stroke="#bfbfbf" stroke-dasharray="12.5,18.75" stroke-miterlimit="10"/></g><path d="M21 264.5h340" fill="none" stroke-width="1.25" stroke-linecap="square" stroke="#000" stroke-miterlimit="10"/><path d="M21 264.5v-5m5.668 5V262m5.664 2.5V262M38 264.5V262m5.668 2.5V262m5.664 2.5V262M55 264.5V262m5.668 2.5V262m5.664 2.5V262M72 264.5V262m5.668 2.5v-5m5.664 5V262M89 264.5V262m5.668 2.5V262m5.664 2.5V262m5.668 2.5V262m5.668 2.5V262m5.664 2.5V262m5.668 2.5V262m5.668 2.5V262m5.664 2.5v-5m5.668 5V262m5.668 2.5V262m5.664 2.5V262m5.668 2.5V262m5.668 2.5V262m5.664 2.5V262m5.668 2.5V262m5.668 2.5V262m5.664 2.5V262m5.668 2.5v-5m5.668 5V262m5.664 2.5V262m5.668 2.5V262m5.668 2.5V262m5.664 2.5V262m5.668 2.5V262m5.668 2.5V262m5.664 2.5V262m5.668 2.5V262m5.668 2.5v-5m5.664 5V262m5.668 2.5V262m5.668 2.5V262m5.664 2.5V262m5.668 2.5V262m5.668 2.5V262m5.664 2.5V262m5.668 2.5V262m5.668 2.5V262m5.664 2.5v-5m5.668 5V262m5.668 2.5V262m5.664 2.5V262m5.668 2.5V262m5.668 2.5V262m5.664 2.5V262m5.668 2.5V262m5.668 2.5V262m5.664 2.5V262m5.668 2.5v-5" fill="none" stroke-width=".625" stroke="#000" stroke-miterlimit="10"/><use xlink:href="#p" x="18.29" y="274.5"/><use xlink:href="#q" x="75.165" y="274.5"/><use xlink:href="#r" x="132.04" y="274.5"/><use xlink:href="#s" x="188.915" y="274.5"/><use xlink:href="#t" x="245.165" y="274.5"/><use xlink:href="#u" x="302.04" y="274.5"/><use xlink:href="#v" x="358.915" y="274.5"/><path d="M21 9.5h340" fill="none" stroke-width="1.25" stroke-linecap="square" stroke="#000" stroke-miterlimit="10"/><path d="M21 9.5v5m5.668-5V12m5.664-2.5V12M38 9.5V12m5.668-2.5V12m5.664-2.5V12M55 9.5V12m5.668-2.5V12m5.664-2.5V12M72 9.5V12m5.668-2.5v5m5.664-5V12M89 9.5V12m5.668-2.5V12m5.664-2.5V12M106 9.5V12m5.668-2.5V12m5.664-2.5V12M123 9.5V12m5.668-2.5V12m5.664-2.5v5m5.668-5V12m5.668-2.5V12m5.664-2.5V12M157 9.5V12m5.668-2.5V12m5.664-2.5V12M174 9.5V12m5.668-2.5V12m5.664-2.5V12M191 9.5v5m5.668-5V12m5.664-2.5V12M208 9.5V12m5.668-2.5V12m5.664-2.5V12M225 9.5V12m5.668-2.5V12m5.664-2.5V12M242 9.5V12m5.668-2.5v5m5.664-5V12M259 9.5V12m5.668-2.5V12m5.664-2.5V12M276 9.5V12m5.668-2.5V12m5.664-2.5V12M293 9.5V12m5.668-2.5V12m5.664-2.5v5m5.668-5V12m5.668-2.5V12m5.664-2.5V12M327 9.5V12m5.668-2.5V12m5.664-2.5V12M344 9.5V12m5.668-2.5V12m5.664-2.5V12M361 9.5v5" fill="none" stroke-width=".625" stroke="#000" stroke-miterlimit="10"/><use xlink:href="#p" x="18.29" y="6.375"/><use xlink:href="#q" x="75.165" y="6.375"/><use xlink:href="#r" x="132.04" y="6.375"/><use xlink:href="#s" x="188.915" y="6.375"/><use xlink:href="#t" x="245.165" y="6.375"/><use xlink:href="#u" x="302.04" y="6.375"/><use xlink:href="#v" x="358.915" y="6.375"/><path d="M21 264.5V9.5" fill="none" stroke-width="1.25" stroke-linecap="square" stroke="#000" stroke-miterlimit="10"/><path d="M21 261.86h2.5m-2.5-4.477h2.5M21 252.91h5m-5-4.476h2.5M21 243.96h2.5m-2.5-4.477h2.5m-2.5-4.476h2.5m-2.5-4.473h2.5M21 226.06h2.5m-2.5-4.473h2.5M21 217.11h2.5m-2.5-4.476h2.5M21 208.16h5m-5-4.476h2.5M21 199.21h2.5m-2.5-4.477h2.5m-2.5-4.472h2.5m-2.5-4.477h2.5M21 181.31h2.5m-2.5-4.473h2.5M21 172.36h2.5m-2.5-4.472h2.5M21 163.41h5m-5-4.476h2.5M21 154.46h2.5m-2.5-4.477h2.5m-2.5-4.472h2.5m-2.5-4.477h2.5m-2.5-4.473h2.5m-2.5-4.476h2.5m-2.5-4.477h2.5m-2.5-4.472h2.5M21 118.66h5m-5-4.473h2.5m-2.5-4.476h2.5m-2.5-4.477h2.5m-2.5-4.472h2.5M21 96.285h2.5M21 91.812h2.5M21 87.336h2.5M21 82.859h2.5M21 78.387h2.5M21 73.91h5m-5-4.473h2.5M21 64.961h2.5M21 60.484h2.5M21 56.012h2.5M21 51.535h2.5M21 47.062h2.5M21 42.586h2.5M21 38.109h2.5M21 33.637h2.5M21 29.16h5m-5-4.473h2.5M21 20.211h2.5M21 15.734h2.5M21 11.262h2.5" fill="none" stroke-width=".625" stroke="#000" stroke-miterlimit="10"/><use xlink:href="#p" x="3.701" y="256.375"/><use xlink:href="#w" x="7.871" y="256.375"/><use xlink:href="#p" x="9.956" y="256.375"/><use xlink:href="#r" x="3.701" y="211.375"/><use xlink:href="#w" x="7.871" y="211.375"/><use xlink:href="#u" x="9.956" y="211.375"/><use xlink:href="#u" x="3.701" y="167"/><use xlink:href="#w" x="7.871" y="167"/><use xlink:href="#p" x="9.956" y="167"/><use xlink:href="#x" x="3.701" y="122"/><use xlink:href="#w" x="7.871" y="122"/><use xlink:href="#u" x="9.956" y="122"/><use xlink:href="#q" x="-.469" y="77.625"/><use xlink:href="#p" x="3.701" y="77.625"/><use xlink:href="#w" x="7.871" y="77.625"/><use xlink:href="#p" x="9.956" y="77.625"/><use xlink:href="#q" x="-.469" y="32.625"/><use xlink:href="#r" x="3.701" y="32.625"/><use xlink:href="#w" x="7.871" y="32.625"/><use xlink:href="#u" x="9.956" y="32.625"/><path d="M361 264.5V9.5" fill="none" stroke-width="1.25" stroke-linecap="square" stroke="#000" stroke-miterlimit="10"/><path d="M361 261.86h-2.5m2.5-4.477h-2.5m2.5-4.473h-5m5-4.476h-2.5m2.5-4.473h-2.5m2.5-4.477h-2.5m2.5-4.476h-2.5m2.5-4.473h-2.5m2.5-4.476h-2.5m2.5-4.473h-2.5m2.5-4.477h-2.5m2.5-4.476h-2.5m2.5-4.473h-5m5-4.476h-2.5m2.5-4.473h-2.5m2.5-4.477h-2.5m2.5-4.472h-2.5m2.5-4.477h-2.5m2.5-4.476h-2.5m2.5-4.473h-2.5m2.5-4.477h-2.5m2.5-4.472h-2.5m2.5-4.477h-5m5-4.476h-2.5m2.5-4.473h-2.5m2.5-4.477h-2.5m2.5-4.472h-2.5m2.5-4.477h-2.5m2.5-4.473h-2.5m2.5-4.476h-2.5m2.5-4.477h-2.5m2.5-4.472h-2.5m2.5-4.477h-5m5-4.473h-2.5m2.5-4.476h-2.5m2.5-4.477h-2.5m2.5-4.472h-2.5m2.5-4.477h-2.5m2.5-4.473h-2.5m2.5-4.476h-2.5m2.5-4.477h-2.5m2.5-4.472h-2.5m2.5-4.477h-5m5-4.473h-2.5m2.5-4.476h-2.5m2.5-4.477h-2.5m2.5-4.472h-2.5m2.5-4.477h-2.5m2.5-4.473h-2.5m2.5-4.476h-2.5m2.5-4.477h-2.5m2.5-4.472h-2.5m2.5-4.477h-5m5-4.473h-2.5m2.5-4.476h-2.5m2.5-4.477h-2.5m2.5-4.472h-2.5" fill="none" stroke-width=".625" stroke="#000" stroke-miterlimit="10"/><use xlink:href="#p" x="367.25" y="256.375"/><use xlink:href="#w" x="371.42" y="256.375"/><use xlink:href="#p" x="373.505" y="256.375"/><use xlink:href="#r" x="367.25" y="211.375"/><use xlink:href="#w" x="371.42" y="211.375"/><use xlink:href="#u" x="373.505" y="211.375"/><use xlink:href="#u" x="367.25" y="167"/><use xlink:href="#w" x="371.42" y="167"/><use xlink:href="#p" x="373.505" y="167"/><use xlink:href="#x" x="367.25" y="122"/><use xlink:href="#w" x="371.42" y="122"/><use xlink:href="#u" x="373.505" y="122"/><use xlink:href="#q" x="367.25" y="77.625"/><use xlink:href="#p" x="371.42" y="77.625"/><use xlink:href="#w" x="375.59" y="77.625"/><use xlink:href="#p" x="377.675" y="77.625"/><use xlink:href="#q" x="367.25" y="32.625"/><use xlink:href="#r" x="371.42" y="32.625"/><use xlink:href="#w" x="375.59" y="32.625"/><use xlink:href="#u" x="377.675" y="32.625"/><g clip-path="url(#y)"><path d="M21 252.91h1.875l.625-.004h.625l.625-.004h.625l.625-.004.625-.007.625-.004.625-.008 1.875-.035 1.25-.031.625-.02 1.25-.047.625-.027 1.25-.063.625-.035.625-.039.625-.043.625-.047 1.25-.101.625-.059 1.25-.125.625-.07.625-.074.625-.079.625-.082.625-.086.625-.093.625-.098.625-.102 1.25-.218.625-.117.625-.125.625-.13.625-.132.625-.14.625-.145.625-.153.625-.16.625-.164.625-.168.625-.176.625-.183.625-.188.625-.195.625-.203.625-.207.625-.215.625-.223.625-.23.625-.235.625-.242.625-.25.625-.258.625-.261.625-.274.625-.277.625-.285.625-.293.625-.297.625-.309.625-.316.625-.32.625-.329.625-.34.625-.343.625-.352.625-.36.625-.366.625-.371.625-.383.625-.39.625-.4.625-.402.625-.41.625-.422.625-.425.625-.434.625-.441.625-.453.625-.458.625-.464.625-.47.625-.48.625-.488.625-.492.625-.5.625-.508 1.25-1.039.625-.531.625-.535.625-.547.625-.551.625-.559.625-.562.625-.57.625-.579.625-.585.625-.594.625-.598.625-.601.625-.614.625-.617.625-.621.625-.629.625-.637.625-.64.625-.649.625-.652.625-.656.625-.664.625-.672.625-.676.625-.68.625-.683.625-.692.625-.695.625-.7 1.25-1.413.625-.715.625-.719.625-.723.625-.726.625-.73.625-.735.625-.738.625-.742.625-.746 1.25-1.5 1.25-1.516 1.25-1.524 1.875-2.308.625-.774 1.25-1.554.625-.782.625-.777.625-.785.625-.781.625-.79 1.25-1.57 7.5-9.468 1.25-1.57.625-.782.625-.785.625-.781 1.875-2.332.625-.774 1.25-1.539 1.25-1.531.625-.762.625-.758.625-.754 1.25-1.5.625-.746.625-.742.625-.738.625-.735.625-.73.625-.727.625-.722 1.25-1.43.625-.71.625-.704.625-.7.625-.694.625-.692.625-.683.625-.68 1.25-1.344.625-.664.625-.656.625-.653.625-.648.625-.64.625-.633.625-.63.625-.62.625-.618.625-.609.625-.605.625-.598.625-.59.625-.586 1.25-1.148.625-.563.625-.558 1.25-1.094.625-.535.625-.528.625-.523.625-.516.625-.508.625-.5.625-.492.625-.484.625-.48.625-.473.625-.461.625-.457.625-.45.625-.44.625-.434.625-.426.625-.418.625-.414.625-.403.625-.394.625-.39.625-.384.625-.37.625-.368.625-.36.625-.35.625-.345.625-.335.625-.329.625-.32.625-.312.625-.309.625-.297.625-.293.625-.285.625-.277.625-.27.625-.262.625-.257.625-.247.625-.242.625-.234.625-.23.625-.223 1.25-.422.625-.2.625-.195.625-.187.625-.184.625-.175.625-.168.625-.165.625-.156.625-.152.625-.145.625-.14.625-.133.625-.129.625-.121.625-.117.625-.114.625-.105.625-.102.625-.097 1.25-.18 1.25-.156.625-.074.625-.07 1.25-.126 1.25-.11.625-.05 1.25-.086.625-.039.625-.035 1.25-.063.625-.027 1.25-.047.625-.015.625-.02.625-.016 1.25-.023 1.875-.023 1.875-.012h.625l.625-.004h4.375l.625-.004h.625l.625-.004H231l.625-.004 1.25-.015.625-.004 1.875-.035.625-.016 1.875-.059 1.25-.054 1.25-.063.625-.035.625-.04.625-.042.625-.047.625-.05 1.25-.11.625-.063.625-.066.625-.07.625-.074.625-.079.625-.082 1.25-.18.625-.097 1.25-.21.625-.114.625-.117.625-.125.625-.13.625-.132 1.25-.29.625-.152.625-.16.625-.164.625-.168.625-.175.625-.184.625-.191.625-.196.625-.203.625-.21.625-.216.625-.222.625-.23.625-.235.625-.242.625-.25.625-.258.625-.266.625-.27.625-.28.625-.286.625-.293.625-.3.625-.31.625-.312.625-.324.625-.332.625-.336.625-.344.625-.351.625-.36.625-.37.625-.376.625-.382.625-.387.625-.399.625-.406.625-.414.625-.418.625-.43.625-.433.625-.445.625-.45.625-.457.625-.465.625-.472.625-.48.625-.489.625-.492.625-.504.625-.508.625-.515.625-.524.625-.531.625-.54.625-.542 1.25-1.11.625-.566.625-.574.625-.578.625-.586.625-.59 1.25-1.203.625-.613.625-.618.625-.625.625-.629.625-.636.625-.64.625-.65.625-.652.625-.66.625-.664 1.25-1.344.625-.68.625-.687.625-.691.625-.696.625-.699.625-.707.625-.71.625-.716.625-.718.625-.723.625-.727.625-.73.625-.734 1.25-1.485.625-.746 1.25-1.5 1.25-1.516.625-.761 1.25-1.531 1.25-1.54.625-.777.625-.773.625-.778 1.875-2.343 1.875-2.356.625-.789.625-.785 1.875-2.367.625-.793 3.75-4.735 2.5-3.14 1.25-1.563 1.875-2.332.625-.773 1.25-1.54 1.25-1.53 1.25-1.516 1.25-1.508.625-.75 1.25-1.484.625-.739.625-.734.625-.73.625-.727.625-.723 1.25-1.43.625-.706.625-.704.625-.699.625-.695.625-.691.625-.684.625-.68.625-.672.625-.668.625-.664.625-.66 1.25-1.297 1.25-1.273.625-.63.625-.62" fill="none" stroke-width="1.25" stroke-linecap="round" stroke="#00008b" stroke-miterlimit="10"/></g></svg>