<svg xmlns="http://www.w3.org/2000/svg" xmlns:xlink="http://www.w3.org/1999/xlink" width="1021.231" height="367.999" viewBox="0 0 765.923 275.999"><defs><clipPath id="Y"><path d="M406.426 10h340v255h-340zm0 0"/></clipPath><clipPath id="S"><path d="M656 269h11v6.5h-11zm0 0"/></clipPath><clipPath id="X"><path d="M753 193h12.426v6H753zm0 0"/></clipPath><clipPath id="W"><path d="M753 251h12.426v7H753zm0 0"/></clipPath><clipPath id="V"><path d="M386.426 193H400v6h-13.574zm0 0"/></clipPath><clipPath id="U"><path d="M386.426 251H400v7h-13.574zm0 0"/></clipPath><clipPath id="T"><path d="M739 269h15v6.5h-15zm0 0"/></clipPath><clipPath id="a"><path d="M13.5 10h.5v255h-.5zm0 0"/></clipPath><clipPath id="b"><path d="M13.5 137h340v1h-340zm0 0"/></clipPath><clipPath id="c"><path d="M13.5 10h.5v255h-.5zm0 0"/></clipPath><clipPath id="d"><path d="M98 10h1v255h-1zm0 0"/></clipPath><clipPath id="e"><path d="M183 10h1v255h-1zm0 0"/></clipPath><clipPath id="f"><path d="M268 10h1v255h-1zm0 0"/></clipPath><clipPath id="g"><path d="M353 10h.5v255h-.5zm0 0"/></clipPath><clipPath id="h"><path d="M13.5 253h340v1h-340zm0 0"/></clipPath><clipPath id="i"><path d="M13.5 195h340v1h-340zm0 0"/></clipPath><clipPath id="j"><path d="M13.5 137h340v1h-340zm0 0"/></clipPath><clipPath id="k"><path d="M13.5 79h340v1h-340zm0 0"/></clipPath><clipPath id="l"><path d="M13.5 21h340v1h-340zm0 0"/></clipPath><clipPath id="m"><path d="M7 269h11v6.5H7zm0 0"/></clipPath><clipPath id="p"><path d="M92 269h11v6.5H92zm0 0"/></clipPath><clipPath id="s"><path d="M178 269h11v6.5h-11zm0 0"/></clipPath><clipPath id="t"><path d="M263 269h11v6.5h-11zm0 0"/></clipPath><clipPath id="v"><path d="M346 269h15v6.5h-15zm0 0"/></clipPath><clipPath id="x"><path d="M.5 251H7v6H.5zm0 0"/></clipPath><clipPath id="z"><path d="M.5 193H6v6H.5zm0 0"/></clipPath><clipPath id="A"><path d="M360 251h6.5v6H360zm0 0"/></clipPath><clipPath id="B"><path d="M13.5 61h340v153h-340zm0 0"/></clipPath><clipPath id="C"><path d="M13.5 10h340v255h-340zm0 0"/></clipPath><clipPath id="D"><path d="M406.426 10H407v255h-.574zm0 0"/></clipPath><clipPath id="E"><path d="M406.426 137h340v1h-340zm0 0"/></clipPath><clipPath id="F"><path d="M406.426 10H407v255h-.574zm0 0"/></clipPath><clipPath id="G"><path d="M491 10h1v255h-1zm0 0"/></clipPath><clipPath id="H"><path d="M576 10h1v255h-1zm0 0"/></clipPath><clipPath id="I"><path d="M661 10h1v255h-1zm0 0"/></clipPath><clipPath id="J"><path d="M746 10h.426v255H746zm0 0"/></clipPath><clipPath id="K"><path d="M406.426 253h340v1h-340zm0 0"/></clipPath><clipPath id="L"><path d="M406.426 195h340v1h-340zm0 0"/></clipPath><clipPath id="M"><path d="M406.426 137h340v1h-340zm0 0"/></clipPath><clipPath id="N"><path d="M406.426 79h340v1h-340zm0 0"/></clipPath><clipPath id="O"><path d="M406.426 21h340v1h-340zm0 0"/></clipPath><clipPath id="P"><path d="M400 269h11v6.5h-11zm0 0"/></clipPath><clipPath id="Q"><path d="M485 269h11v6.5h-11zm0 0"/></clipPath><clipPath id="R"><path d="M571 269h11v6.5h-11zm0 0"/></clipPath><symbol overflow="visible" id="o"><path d="M1.438-.781H.655V0h.781zm0 0"/></symbol><symbol overflow="visible" id="y"><path d="M2.125-2.344H.344v.547h1.781zm0 0"/></symbol><symbol overflow="visible" id="w"><path d="M1.938-3.781V0h.671v-5.313h-.437c-.235.813-.39.922-1.406 1.047v.485zm0 0"/></symbol><symbol overflow="visible" id="u"><path d="M3.906-5.313H.344v.641h2.875C1.953-2.859 1.438-1.75 1.03 0h.703c.297-1.703.97-3.172 2.172-4.766zm0 0"/></symbol><symbol overflow="visible" id="r"><path d="M3.563-5.313H.828L.422-2.421h.61c.312-.375.562-.5.984-.5.703 0 1.156.485 1.156 1.281 0 .766-.438 1.235-1.156 1.235-.579 0-.938-.297-1.094-.906H.266c.093.437.156.656.312.843.313.406.844.64 1.453.64 1.063 0 1.813-.78 1.813-1.905 0-1.047-.688-1.766-1.719-1.766-.375 0-.672.094-.984.313l.218-1.485h2.204zm0 0"/></symbol><symbol overflow="visible" id="q"><path d="M3.797-.656H1c.063-.438.313-.703.953-1.094l.75-.406c.75-.406 1.125-.953 1.125-1.594 0-.453-.172-.86-.484-1.14-.328-.298-.719-.423-1.219-.423-.672 0-1.172.235-1.469.688-.187.281-.265.61-.281 1.156h.656c.032-.36.078-.578.157-.75.171-.328.515-.515.921-.515.594 0 1.047.421 1.047.984 0 .422-.25.781-.719 1.063l-.687.39C.64-1.672.312-1.172.25 0h3.547zm0 0"/></symbol><symbol overflow="visible" id="n"><path d="M2.063-5.313c-.5 0-.938.22-1.22.579C.5-4.266.329-3.563.329-2.578c0 1.797.594 2.75 1.734 2.75 1.126 0 1.735-.953 1.735-2.703 0-1.031-.156-1.719-.516-2.203-.281-.375-.719-.579-1.219-.579zm0 .579c.718 0 1.062.718 1.062 2.14 0 1.516-.344 2.219-1.078 2.219C1.344-.375 1-1.109 1-2.563c0-1.453.344-2.171 1.063-2.171zm0 0"/></symbol></defs><g clip-path="url(#a)"><path d="M13.5 265V10" fill="none" stroke-width=".625" stroke-linecap="round" stroke="#bfbfbf" stroke-miterlimit="10"/></g><g clip-path="url(#b)"><path d="M13.5 137.5h340" fill="none" stroke-width=".625" stroke-linecap="round" stroke="#bfbfbf" stroke-miterlimit="10"/></g><g clip-path="url(#c)"><path d="M13.5 265V10" fill="none" stroke-width=".625" stroke-linecap="round" stroke="#bfbfbf" stroke-dasharray="12.5,18.75" stroke-miterlimit="10"/></g><g clip-path="url(#d)"><path d="M98.5 265V10" fill="none" stroke-width=".625" stroke-linecap="round" stroke="#bfbfbf" stroke-dasharray="12.5,18.75" stroke-miterlimit="10"/></g><g clip-path="url(#e)"><path d="M183.5 265V10" fill="none" stroke-width=".625" stroke-linecap="round" stroke="#bfbfbf" stroke-dasharray="12.5,18.75" stroke-miterlimit="10"/></g><g clip-path="url(#f)"><path d="M268.5 265V10" fill="none" stroke-width=".625" stroke-linecap="round" stroke="#bfbfbf" stroke-dasharray="12.5,18.75" stroke-miterlimit="10"/></g><g clip-path="url(#g)"><path d="M353.5 265V10" fill="none" stroke-width=".625" stroke-linecap="round" stroke="#bfbfbf" stroke-dasharray="12.5,18.75" stroke-miterlimit="10"/></g><g clip-path="url(#h)"><path d="M13.5 253.406h340" fill="none" stroke-width=".625" stroke-linecap="round" stroke="#bfbfbf" stroke-dasharray="12.5,18.75" stroke-miterlimit="10"/></g><g clip-path="url(#i)"><path d="M13.5 195.453h340" fill="none" stroke-width=".625" stroke-linecap="round" stroke="#bfbfbf" stroke-dasharray="12.5,18.75" stroke-miterlimit="10"/></g><g clip-path="url(#j)"><path d="M13.5 137.5h340" fill="none" stroke-width=".625" stroke-linecap="round" stroke="#bfbfbf" stroke-dasharray="12.5,18.75" stroke-miterlimit="10"/></g><g clip-path="url(#k)"><path d="M13.5 79.543h340" fill="none" stroke-width=".625" stroke-linecap="round" stroke="#bfbfbf" stroke-dasharray="12.5,18.75" stroke-miterlimit="10"/></g><g clip-path="url(#l)"><path d="M13.5 21.59h340" fill="none" stroke-width=".625" stroke-linecap="round" stroke="#bfbfbf" stroke-dasharray="12.5,18.75" stroke-miterlimit="10"/></g><path d="M13.5 265h340" fill="none" stroke-width="1.25" stroke-linecap="square" stroke="#000" stroke-miterlimit="10"/><path d="M13.5 265v-5m8.5 5v-2.5m8.5 2.5v-2.5M39 265v-2.5m8.5 2.5v-2.5M56 265v-2.5m8.5 2.5v-2.5M73 265v-2.5m8.5 2.5v-2.5M90 265v-2.5m8.5 2.5v-5m8.5 5v-2.5m8.5 2.5v-2.5m8.5 2.5v-2.5m8.5 2.5v-2.5m8.5 2.5v-2.5m8.5 2.5v-2.5m8.5 2.5v-2.5m8.5 2.5v-2.5m8.5 2.5v-2.5m8.5 2.5v-5m8.5 5v-2.5m8.5 2.5v-2.5m8.5 2.5v-2.5m8.5 2.5v-2.5m8.5 2.5v-2.5m8.5 2.5v-2.5m8.5 2.5v-2.5m8.5 2.5v-2.5m8.5 2.5v-2.5m8.5 2.5v-5m8.5 5v-2.5m8.5 2.5v-2.5m8.5 2.5v-2.5m8.5 2.5v-2.5m8.5 2.5v-2.5m8.5 2.5v-2.5m8.5 2.5v-2.5m8.5 2.5v-2.5m8.5 2.5v-2.5m8.5 2.5v-5" fill="none" stroke-width=".625" stroke="#000" stroke-miterlimit="10"/><g clip-path="url(#m)"><use xlink:href="#n" x="7.663" y="274.999"/><use xlink:href="#o" x="11.833" y="274.999"/><use xlink:href="#n" x="13.918" y="274.999"/></g><g clip-path="url(#p)"><use xlink:href="#q" x="92.663" y="274.999"/><use xlink:href="#o" x="96.833" y="274.999"/><use xlink:href="#r" x="98.918" y="274.999"/></g><g clip-path="url(#s)"><use xlink:href="#r" x="178.288" y="274.999"/><use xlink:href="#o" x="182.458" y="274.999"/><use xlink:href="#n" x="184.543" y="274.999"/></g><g clip-path="url(#t)"><use xlink:href="#u" x="263.288" y="274.999"/><use xlink:href="#o" x="267.458" y="274.999"/><use xlink:href="#r" x="269.543" y="274.999"/></g><g clip-path="url(#v)"><use xlink:href="#w" x="346.203" y="274.999"/><use xlink:href="#n" x="350.373" y="274.999"/><use xlink:href="#o" x="354.543" y="274.999"/><use xlink:href="#n" x="356.628" y="274.999"/></g><path d="M13.5 10h340" fill="none" stroke-width="1.25" stroke-linecap="square" stroke="#000" stroke-miterlimit="10"/><path d="M13.5 10v5m8.5-5v2.5m8.5-2.5v2.5M39 10v2.5m8.5-2.5v2.5M56 10v2.5m8.5-2.5v2.5M73 10v2.5m8.5-2.5v2.5M90 10v2.5m8.5-2.5v5m8.5-5v2.5m8.5-2.5v2.5M124 10v2.5m8.5-2.5v2.5M141 10v2.5m8.5-2.5v2.5M158 10v2.5m8.5-2.5v2.5M175 10v2.5m8.5-2.5v5m8.5-5v2.5m8.5-2.5v2.5M209 10v2.5m8.5-2.5v2.5M226 10v2.5m8.5-2.5v2.5M243 10v2.5m8.5-2.5v2.5M260 10v2.5m8.5-2.5v5m8.5-5v2.5m8.5-2.5v2.5M294 10v2.5m8.5-2.5v2.5M311 10v2.5m8.5-2.5v2.5M328 10v2.5m8.5-2.5v2.5M345 10v2.5m8.5-2.5v5" fill="none" stroke-width=".625" stroke="#000" stroke-miterlimit="10"/><use xlink:href="#n" x="7.663" y="6.874"/><use xlink:href="#o" x="11.833" y="6.874"/><use xlink:href="#n" x="13.918" y="6.874"/><use xlink:href="#q" x="92.663" y="6.874"/><use xlink:href="#o" x="96.833" y="6.874"/><use xlink:href="#r" x="98.918" y="6.874"/><use xlink:href="#r" x="178.288" y="6.874"/><use xlink:href="#o" x="182.458" y="6.874"/><use xlink:href="#n" x="184.543" y="6.874"/><use xlink:href="#u" x="263.288" y="6.874"/><use xlink:href="#o" x="267.458" y="6.874"/><use xlink:href="#r" x="269.543" y="6.874"/><use xlink:href="#w" x="346.203" y="6.874"/><use xlink:href="#n" x="350.373" y="6.874"/><use xlink:href="#o" x="354.543" y="6.874"/><use xlink:href="#n" x="356.628" y="6.874"/><path d="M13.5 265V10" fill="none" stroke-width="1.25" stroke-linecap="square" stroke="#000" stroke-miterlimit="10"/><path d="M13.5 259.203H16m-2.5-5.797h5m-5-5.793H16m-2.5-5.797H16m-2.5-5.793H16m-2.5-5.796H16m-2.5-5.797H16m-2.5-5.793H16m-2.5-5.797H16m-2.5-5.797H16m-2.5-5.793H16m-2.5-5.797h5m-5-5.797H16m-2.5-5.793H16m-2.5-5.797H16m-2.5-5.793H16m-2.5-5.796H16m-2.5-5.797H16m-2.5-5.793H16m-2.5-5.797H16m-2.5-5.797H16m-2.5-5.793h5m-5-5.797H16m-2.5-5.797H16m-2.5-5.793H16m-2.5-5.797H16m-2.5-5.796H16m-2.5-5.793H16m-2.5-5.797H16m-2.5-5.793H16m-2.5-5.797H16m-2.5-5.797h5m-5-5.793H16m-2.5-5.797H16m-2.5-5.797H16m-2.5-5.793H16m-2.5-5.797H16m-2.5-5.793H16m-2.5-5.796H16m-2.5-5.797H16m-2.5-5.793H16m-2.5-5.797h5m-5-5.797H16M13.5 10H16" fill="none" stroke-width=".625" stroke="#000" stroke-miterlimit="10"/><g clip-path="url(#x)"><use xlink:href="#y" x="-.042" y="256.874"/><use xlink:href="#q" x="2.456" y="256.874"/></g><g clip-path="url(#z)"><use xlink:href="#y" x="-.042" y="198.749"/><use xlink:href="#w" x="2.456" y="198.749"/></g><use xlink:href="#n" x="2.455" y="141.249"/><use xlink:href="#w" x="2.455" y="83.124"/><use xlink:href="#q" x="2.455" y="24.999"/><path d="M353.5 265V10" fill="none" stroke-width="1.25" stroke-linecap="square" stroke="#000" stroke-miterlimit="10"/><path d="M353.5 259.203H351m2.5-5.797h-5m5-5.793H351m2.5-5.797H351m2.5-5.793H351m2.5-5.796H351m2.5-5.797H351m2.5-5.793H351m2.5-5.797H351m2.5-5.797H351m2.5-5.793H351m2.5-5.797h-5m5-5.797H351m2.5-5.793H351m2.5-5.797H351m2.5-5.793H351m2.5-5.796H351m2.5-5.797H351m2.5-5.793H351m2.5-5.797H351m2.5-5.797H351m2.5-5.793h-5m5-5.797H351m2.5-5.797H351m2.5-5.793H351m2.5-5.797H351m2.5-5.796H351m2.5-5.793H351m2.5-5.797H351m2.5-5.793H351m2.5-5.797H351m2.5-5.797h-5m5-5.793H351m2.5-5.797H351m2.5-5.797H351m2.5-5.793H351m2.5-5.797H351m2.5-5.793H351m2.5-5.796H351m2.5-5.797H351m2.5-5.793H351m2.5-5.797h-5m5-5.797H351M353.5 10H351" fill="none" stroke-width=".625" stroke="#000" stroke-miterlimit="10"/><g clip-path="url(#A)"><use xlink:href="#y" x="359.75" y="256.874"/><use xlink:href="#q" x="362.248" y="256.874"/></g><use xlink:href="#y" x="359.75" y="198.749"/><use xlink:href="#w" x="362.248" y="198.749"/><use xlink:href="#n" x="359.75" y="141.249"/><use xlink:href="#w" x="359.75" y="83.124"/><use xlink:href="#q" x="359.75" y="24.999"/><g clip-path="url(#B)"><path d="M13.5 79.543l.625.012.625.027.625.05.625.067.625.09.625.106.625.128.625.149.625.164.625.184.625.207.625.222.625.242.625.262.625.281.625.297.625.32.625.337.625.355.625.375.625.39.625.41.625.43.625.446.625.465.625.48.625.496.625.52.625.53.625.552.625.566.625.582.625.602.625.613.625.633.625.644.625.664.625.676.625.696.625.703.625.722.625.739.625.75.625.761.625.778.625.793.625.804.625.817.625.828.625.84.625.851.625.867.625.875.625.887.625.899.625.906.625.918.625.93.625.933.625.95.625.952.625.965.625.973.625.98.625.989.625.992 1.25 2.008.625 1.015.625 1.02 1.25 2.055.625 1.035 1.25 2.086.625 1.046.625 1.051 1.25 2.11.625 1.058 1.875 3.188 1.25 2.133.625 1.062 1.25 2.133 1.25 2.125.625 1.058.625 1.063 1.25 2.11 1.875 3.14.625 1.039.625 1.035 1.25 2.055.625 1.02.625 1.011.625 1.008.625 1 .625.992.625.988.625.98.625.97.625.964.625.954.625.945.625.937.625.926.625.918.625.906.625.899.625.883.625.875.625.863.625.851.625.84.625.828.625.817.625.8.625.794.625.773.625.766.625.746.625.734.625.723.625.703.625.691.625.676.625.664.625.645.625.629.625.613.625.598.625.582.625.566.625.547.625.531.625.516.625.496.625.476.625.465.625.446.625.425.625.407.625.39.625.371.625.356.625.336.625.316.625.297.625.277.625.262.625.238.625.223.625.203.625.184.625.164.625.144.625.125.625.106.625.086.625.066.625.047.625.027.625.008.625-.012.625-.03.625-.052.625-.07.625-.09.625-.11.625-.128.625-.148.625-.168.625-.188.625-.207.625-.223.625-.246.625-.261.625-.286.625-.3.625-.32.625-.337.625-.359.625-.375.625-.395.625-.41.625-.43.625-.449.625-.464.625-.485.625-.5.625-.515.625-.536.625-.55.625-.57.625-.583.625-.601.625-.617.625-.633.625-.649.625-.664.625-.68.625-.695.625-.707.625-.722.625-.739.625-.75.625-.765.625-.782.625-.789.625-.804.625-.82.625-.829.625-.844.625-.851.625-.867.625-.88.625-.886.625-.898.625-.91.625-.919.625-.925.625-.942.625-.945.625-.957.625-.965.625-.973.625-.98.625-.988.625-.996.625-1 .625-1.008.625-1.016.625-1.02.625-1.027.625-1.031.625-1.035.625-1.04.625-1.042 1.25-2.102 1.25-2.11.625-1.062.625-1.058 1.25-2.125 1.25-2.133.625-1.062 1.25-2.133 1.875-3.188.625-1.054.625-1.06 1.25-2.1.625-1.048.625-1.042.625-1.04.625-1.035 1.25-2.054.625-1.02.625-1.012.625-1.007.625-1 .625-.993.625-.984.625-.98.625-.97.625-.96.625-.953.625-.946.625-.937.625-.926.625-.914.625-.906.625-.899.625-.882.625-.875.625-.86.625-.851.625-.84.625-.824.625-.817.625-.8.625-.79.625-.773.625-.762.625-.746.625-.734.625-.72.625-.702.625-.692.625-.675.625-.657.625-.644.625-.63.625-.612.625-.594.625-.582.625-.563.625-.547.625-.53.625-.512.625-.497.625-.476.625-.461.625-.441.625-.426.625-.407.625-.386.625-.371.625-.352.625-.332.625-.316.625-.293.625-.278.625-.257.625-.243.625-.218.625-.2.625-.183.625-.16.625-.145.625-.121.625-.105.625-.082.625-.067.625-.047.625-.023.625-.008.625.016.625.03.625.056.625.07.625.094.625.109.625.133.625.148.625.172.625.188.625.207.625.226.625.25.625.266.625.281.625.305.625.32.625.344.625.355.625.38.625.394.625.414.625.433.625.45.625.464.625.489.625.5.625.52.625.534.625.555.625.567.625.59.625.6.625.618.625.637.625.648.625.664.625.68.625.695.625.711.625.727.625.738.625.754.625.766.625.78.625.794.625.805.625.82.625.832.625.84.625.855.625.867.625.88.625.89.625.898.625.91.625.918.625.93.625.942.625.945.625.957.625.965.625.976.625.98.625.99.625.995.625 1.004.625 1.008.625 1.016.625 1.019.625 1.027.625 1.032.625 1.035 1.25 2.086.625 1.047.625 1.05.625 1.055 1.25 2.117 1.875 3.188 1.25 2.133.625 1.062 1.25 2.133 1.25 2.125 1.25 2.117 1.25 2.11.625 1.05.625 1.047.625 1.043 1.25 2.07.625 1.032.625 1.023.625 1.016.625 1.011.625 1.008.625 1 .625.992.625.985.625.976.625.97.625.964.625.95.625.944.625.934.625.926.625.918.625.902.625.895.625.883.625.875.625.859.625.848.625.84.625.824.625.812.625.8.625.786.625.777.625.758.625.746.625.73.625.72.625.703.625.687.625.676.625.656.625.64.625.63.625.61.625.593.625.578.625.562.625.547.625.528.625.511.625.493.625.476.625.457.625.442.625.421.625.407.625.386.625.368.625.351.625.332.625.313.625.293.625.277.625.254.625.238.625.219.625.2.625.175.625.16.625.14.625.126.625.101.625.082.625.063.625.043.625.023.625.004.625-.015.625-.036.625-.054.625-.075.625-.093.625-.114.625-.132.625-.153.625-.172.625-.191.625-.207.625-.23.625-.25.625-.266.625-.285.625-.305.625-.324.625-.344.625-.36.625-.378.625-.399.625-.414.625-.433.625-.453.625-.47.625-.484.625-.503.625-.524.625-.535.625-.555.625-.574" fill="none" stroke-width="1.25" stroke-linecap="round" stroke="#00008b" stroke-miterlimit="10"/></g><g clip-path="url(#C)"><path d="M13.5 21.59l.625.02.625.058.625.098.625.136.625.176.625.215.625.254.625.293.625.332.625.371.625.406.625.45.625.484.625.523.625.563.625.597.625.637.625.676.625.71.625.747.625.781.625.824.625.856.625.89.625.926.625.965.625.996.625 1.031.625 1.067.625 1.101.625 1.133.625 1.164.625 1.2.625 1.23.625 1.262.625 1.297.625 1.324.625 1.355.625 1.383.625 1.414.625 1.445.625 1.473.625 1.5L41 57.48l.625 1.555.625 1.582.625 1.61.625 1.632.625 1.657.625 1.68.625 1.706.625 1.73.625 1.75.625 1.774.625 1.797.625 1.817.625 1.835.625 1.856.625 1.875.625 1.89.625 1.91.625 1.93.625 1.942.625 1.96.625 1.973.625 1.993.625 2 .625 2.015.625 2.028.625 2.043.625 2.05.625 2.059.625 2.07.625 2.078.625 2.09 1.25 4.196.625 2.109.625 2.113.625 2.117.625 2.121.625 2.125 1.25 4.258.625 2.133 1.25 4.258.625 2.133 1.25 4.25.625 2.12.625 2.118.625 2.113.625 2.11 1.25 4.195.625 2.086.625 2.078.625 2.07.625 2.059.625 2.05.625 2.04.625 2.023.625 2.016.625 2.004.625 1.984.625 1.977.625 1.957.625 1.941.625 1.926.625 1.91.625 1.89.625 1.872.625 1.855.625 1.832.625 1.817.625 1.793.625 1.77.625 1.75.625 1.726.625 1.703.625 1.68.625 1.656.625 1.629.625 1.605.625 1.578.625 1.555.625 1.523.625 1.5.625 1.47.625 1.44.625 1.41.625 1.384.625 1.351.625 1.32.625 1.293.625 1.258.625 1.227.625 1.199.625 1.16.625 1.129.625 1.098.625 1.062.625 1.028.625.996.625.957.625.925.625.887.625.856.625.816.625.781.625.742.625.708.625.671.625.633.625.594.625.559.625.52.625.48.625.445.625.402.625.367.625.329.625.289.625.25.625.21.625.172.625.133.625.094.625.055.625.015.625-.023.625-.063.625-.101.625-.14.625-.18.625-.22.625-.257.625-.297.625-.332.625-.375.625-.414.625-.45.625-.488.625-.527.625-.566.625-.602.625-.64.625-.676.625-.715.625-.754.625-.785.625-.824.625-.86.625-.894.625-.934.625-.965.625-1 .625-1.035.625-1.07.625-1.102.625-1.137.625-1.167.625-1.204.625-1.234.625-1.266.625-1.296.625-1.329.625-1.355.625-1.39.625-1.419.625-1.445.625-1.477.625-1.5.625-1.53.625-1.56.625-1.581.625-1.614.625-1.633.625-1.66.625-1.683.625-1.711.625-1.73.625-1.755.625-1.773.625-1.797.625-1.82.625-1.836.625-1.86.625-1.875.625-1.894.625-1.914.625-1.926.625-1.95.625-1.956.625-1.977.625-1.992.625-2.004.625-2.015.625-2.032.625-2.039.625-2.05.625-2.063.625-2.07.625-2.082.625-2.09.625-2.094.625-2.102.625-2.109.625-2.113 1.25-4.242.625-2.125 1.875-6.387.625-2.133 1.25-4.258 1.25-4.25 1.25-4.242 1.25-4.219.625-2.097.625-2.094.625-2.086.625-2.078.625-2.07.625-2.059.625-2.047.625-2.039.625-2.023.625-2.016.625-2 .625-1.984.625-1.973.625-1.957.625-1.941.625-1.922.625-1.91.625-1.887.625-1.871.625-1.852.625-1.832.625-1.812.625-1.79.625-1.773.625-1.746.625-1.723.625-1.703.625-1.676.625-1.652.625-1.629.625-1.601.625-1.579.625-1.55.625-1.52.625-1.496.625-1.469.625-1.437.625-1.406.625-1.38.625-1.35.625-1.317.625-1.29.625-1.257.625-1.223.625-1.191.625-1.16.625-1.13.625-1.09.625-1.062.625-1.023.625-.992.625-.953.625-.922.625-.887.625-.848.625-.812.625-.777.625-.743.625-.703.625-.664.625-.633.625-.59.625-.554.625-.516.625-.476.625-.442.625-.398.625-.364.625-.324.625-.285.625-.246.625-.207.625-.172.625-.129.625-.09.625-.05.625-.012.625.027.625.067.625.105.625.145.625.183.625.223.625.262.625.3.625.34.625.375.625.418.625.453.625.496.625.528.625.57.625.606.625.644.625.68.625.718.625.754.625.793.625.828.625.864.625.898.625.934.625.969.625 1.003.625 1.04.625 1.074.625 1.105.625 1.137.625 1.176.625 1.203.625 1.234.625 1.27.625 1.3.625 1.333.625 1.359.625 1.39.625 1.422.625 1.45.625 1.476.625 1.504.625 1.535.625 1.563.625 1.586.625 1.61.625 1.64.625 1.66.625 1.687.625 1.711.625 1.735.625 1.754.625 1.777.625 1.8.625 1.821.625 1.84.625 1.86.625 1.874.625 1.899.625 1.914.625 1.93.625 1.949.625 1.96.625 1.977.625 1.992.625 2.004.625 2.02.625 2.031.625 2.04.625 2.054.625 2.062.625 2.074.625 2.083.625 2.085.625 2.098.625 2.102.625 2.109.625 2.113 1.25 4.243.625 2.125 1.25 4.257.625 2.133.625 2.129.625 2.133.625 2.129 1.25 4.25.625 2.12 1.25 4.227.625 2.106.625 2.101.625 2.094.625 2.082.625 2.078.625 2.07.625 2.055.625 2.051.625 2.035.625 2.024.625 2.011.625 2 .625 1.985.625 1.969.625 1.957.625 1.937.625 1.926.625 1.902.625 1.89.625 1.868.625 1.852.625 1.828.625 1.808.625 1.79.625 1.769.625 1.746.625 1.719.625 1.699.625 1.676.625 1.652.625 1.625.625 1.598.625 1.574.625 1.547.625 1.52.625 1.492.625 1.464.625 1.438.625 1.402.625 1.38.625 1.347.625 1.312.625 1.285.625 1.254.625 1.223.625 1.188.625 1.156.625 1.125.625 1.09.625 1.054.625 1.024.625.984.625.953.625.918.625.883.625.844.625.808.625.774.625.738.625.7.625.663.625.625.625.59.625.547.625.516.625.472.625.438.625.394.625.36.625.32.625.281.625.243.625.203.625.168.625.125.625.086.625.046.625.008.625-.031.625-.07.625-.11.625-.148.625-.188.625-.226.625-.266.625-.305.625-.34.625-.382.625-.418.625-.461.625-.496.625-.535.625-.57.625-.61.625-.648.625-.684.625-.723.625-.758.625-.796.625-.829.625-.867.625-.902.625-.938.625-.972.625-1.008.625-1.043.625-1.074.625-1.11.625-1.144" fill="none" stroke-width="1.25" stroke-linecap="round" stroke="#006400" stroke-miterlimit="10"/></g><g clip-path="url(#D)"><path d="M406.426 265V10" fill="none" stroke-width=".625" stroke-linecap="round" stroke="#bfbfbf" stroke-miterlimit="10"/></g><g clip-path="url(#E)"><path d="M406.426 137.5h340" fill="none" stroke-width=".625" stroke-linecap="round" stroke="#bfbfbf" stroke-miterlimit="10"/></g><g clip-path="url(#F)"><path d="M406.426 265V10" fill="none" stroke-width=".625" stroke-linecap="round" stroke="#bfbfbf" stroke-dasharray="12.5,18.75" stroke-miterlimit="10"/></g><g clip-path="url(#G)"><path d="M491.426 265V10" fill="none" stroke-width=".625" stroke-linecap="round" stroke="#bfbfbf" stroke-dasharray="12.5,18.75" stroke-miterlimit="10"/></g><g clip-path="url(#H)"><path d="M576.426 265V10" fill="none" stroke-width=".625" stroke-linecap="round" stroke="#bfbfbf" stroke-dasharray="12.5,18.75" stroke-miterlimit="10"/></g><g clip-path="url(#I)"><path d="M661.426 265V10" fill="none" stroke-width=".625" stroke-linecap="round" stroke="#bfbfbf" stroke-dasharray="12.5,18.75" stroke-miterlimit="10"/></g><g clip-path="url(#J)"><path d="M746.426 265V10" fill="none" stroke-width=".625" stroke-linecap="round" stroke="#bfbfbf" stroke-dasharray="12.5,18.75" stroke-miterlimit="10"/></g><g clip-path="url(#K)"><path d="M406.426 253.406h340" fill="none" stroke-width=".625" stroke-linecap="round" stroke="#bfbfbf" stroke-dasharray="12.5,18.75" stroke-miterlimit="10"/></g><g clip-path="url(#L)"><path d="M406.426 195.453h340" fill="none" stroke-width=".625" stroke-linecap="round" stroke="#bfbfbf" stroke-dasharray="12.5,18.75" stroke-miterlimit="10"/></g><g clip-path="url(#M)"><path d="M406.426 137.5h340" fill="none" stroke-width=".625" stroke-linecap="round" stroke="#bfbfbf" stroke-dasharray="12.5,18.75" stroke-miterlimit="10"/></g><g clip-path="url(#N)"><path d="M406.426 79.543h340" fill="none" stroke-width=".625" stroke-linecap="round" stroke="#bfbfbf" stroke-dasharray="12.5,18.75" stroke-miterlimit="10"/></g><g clip-path="url(#O)"><path d="M406.426 21.59h340" fill="none" stroke-width=".625" stroke-linecap="round" stroke="#bfbfbf" stroke-dasharray="12.5,18.75" stroke-miterlimit="10"/></g><path d="M406.426 265h340" fill="none" stroke-width="1.25" stroke-linecap="square" stroke="#000" stroke-miterlimit="10"/><path d="M406.426 265v-5m8.496 5v-2.5m8.5 2.5v-2.5m8.504 2.5v-2.5m8.5 2.5v-2.5m8.5 2.5v-2.5m8.5 2.5v-2.5m8.496 2.5v-2.5m8.504 2.5v-2.5m8.496 2.5v-2.5m8.504 2.5v-5m8.5 5v-2.5m8.5 2.5v-2.5m8.5 2.5v-2.5m8.5 2.5v-2.5m8.5 2.5v-2.5m8.5 2.5v-2.5m8.5 2.5v-2.5m8.5 2.5v-2.5m8.5 2.5v-2.5m8.5 2.5v-5m8.5 5v-2.5m8.5 2.5v-2.5m8.5 2.5v-2.5m8.5 2.5v-2.5m8.5 2.5v-2.5m8.5 2.5v-2.5m8.5 2.5v-2.5m8.5 2.5v-2.5m8.5 2.5v-2.5m8.5 2.5v-5m8.5 5v-2.5m8.5 2.5v-2.5m8.5 2.5v-2.5m8.5 2.5v-2.5m8.5 2.5v-2.5m8.5 2.5v-2.5m8.5 2.5v-2.5m8.5 2.5v-2.5m8.5 2.5v-2.5m8.5 2.5v-5" fill="none" stroke-width=".625" stroke="#000" stroke-miterlimit="10"/><g clip-path="url(#P)"><use xlink:href="#n" x="400.587" y="274.999"/><use xlink:href="#o" x="404.757" y="274.999"/><use xlink:href="#n" x="406.842" y="274.999"/></g><g clip-path="url(#Q)"><use xlink:href="#q" x="485.587" y="274.999"/><use xlink:href="#o" x="489.757" y="274.999"/><use xlink:href="#r" x="491.842" y="274.999"/></g><g clip-path="url(#R)"><use xlink:href="#r" x="571.212" y="274.999"/><use xlink:href="#o" x="575.382" y="274.999"/><use xlink:href="#n" x="577.467" y="274.999"/></g><g clip-path="url(#S)"><use xlink:href="#u" x="656.212" y="274.999"/><use xlink:href="#o" x="660.382" y="274.999"/><use xlink:href="#r" x="662.467" y="274.999"/></g><g clip-path="url(#T)"><use xlink:href="#w" x="739.127" y="274.999"/><use xlink:href="#n" x="743.297" y="274.999"/><use xlink:href="#o" x="747.467" y="274.999"/><use xlink:href="#n" x="749.552" y="274.999"/></g><path d="M406.426 10h340" fill="none" stroke-width="1.25" stroke-linecap="square" stroke="#000" stroke-miterlimit="10"/><path d="M406.426 10v5m8.496-5v2.5m8.5-2.5v2.5m8.504-2.5v2.5m8.5-2.5v2.5m8.5-2.5v2.5m8.5-2.5v2.5m8.496-2.5v2.5m8.504-2.5v2.5m8.496-2.5v2.5m8.504-2.5v5m8.5-5v2.5m8.5-2.5v2.5m8.5-2.5v2.5m8.5-2.5v2.5m8.5-2.5v2.5m8.5-2.5v2.5m8.5-2.5v2.5m8.5-2.5v2.5m8.5-2.5v2.5m8.5-2.5v5m8.5-5v2.5m8.5-2.5v2.5m8.5-2.5v2.5m8.5-2.5v2.5m8.5-2.5v2.5m8.5-2.5v2.5m8.5-2.5v2.5m8.5-2.5v2.5m8.5-2.5v2.5m8.5-2.5v5m8.5-5v2.5m8.5-2.5v2.5m8.5-2.5v2.5m8.5-2.5v2.5m8.5-2.5v2.5m8.5-2.5v2.5m8.5-2.5v2.5m8.5-2.5v2.5m8.5-2.5v2.5m8.5-2.5v5" fill="none" stroke-width=".625" stroke="#000" stroke-miterlimit="10"/><use xlink:href="#n" x="400.587" y="6.874"/><use xlink:href="#o" x="404.757" y="6.874"/><use xlink:href="#n" x="406.842" y="6.874"/><use xlink:href="#q" x="485.587" y="6.874"/><use xlink:href="#o" x="489.757" y="6.874"/><use xlink:href="#r" x="491.842" y="6.874"/><use xlink:href="#r" x="571.212" y="6.874"/><use xlink:href="#o" x="575.382" y="6.874"/><use xlink:href="#n" x="577.467" y="6.874"/><use xlink:href="#u" x="656.212" y="6.874"/><use xlink:href="#o" x="660.382" y="6.874"/><use xlink:href="#r" x="662.467" y="6.874"/><use xlink:href="#w" x="739.127" y="6.874"/><use xlink:href="#n" x="743.297" y="6.874"/><use xlink:href="#o" x="747.467" y="6.874"/><use xlink:href="#n" x="749.552" y="6.874"/><path d="M406.426 265V10" fill="none" stroke-width="1.25" stroke-linecap="square" stroke="#000" stroke-miterlimit="10"/><path d="M406.426 265h2.5m-2.5-5.797h2.5m-2.5-5.797h5m-5-5.793h2.5m-2.5-5.797h2.5m-2.5-5.796h2.5m-2.5-5.793h2.5m-2.5-5.797h2.5m-2.5-5.793h2.5m-2.5-5.797h2.5m-2.5-5.797h2.5m-2.5-5.793h2.5m-2.5-5.797h5m-5-5.797h2.5m-2.5-5.793h2.5m-2.5-5.797h2.5m-2.5-5.796h2.5m-2.5-5.793h2.5m-2.5-5.797h2.5m-2.5-5.793h2.5m-2.5-5.797h2.5m-2.5-5.797h2.5m-2.5-5.793h5m-5-5.797h2.5m-2.5-5.797h2.5m-2.5-5.793h2.5m-2.5-5.797h2.5m-2.5-5.796h2.5m-2.5-5.793h2.5m-2.5-5.797h2.5m-2.5-5.793h2.5m-2.5-5.797h2.5m-2.5-5.797h5m-5-5.793h2.5m-2.5-5.797h2.5m-2.5-5.797h2.5m-2.5-5.793h2.5m-2.5-5.797h2.5m-2.5-5.793h2.5m-2.5-5.796h2.5m-2.5-5.797h2.5m-2.5-5.793h2.5m-2.5-5.797h5m-5-5.797h2.5m-2.5-5.793h2.5" fill="none" stroke-width=".625" stroke="#000" stroke-miterlimit="10"/><g clip-path="url(#U)"><use xlink:href="#y" x="386.628" y="256.874"/><use xlink:href="#w" x="389.125" y="256.874"/><use xlink:href="#o" x="393.295" y="256.874"/><use xlink:href="#n" x="395.38" y="256.874"/></g><g clip-path="url(#V)"><use xlink:href="#y" x="386.628" y="198.749"/><use xlink:href="#n" x="389.125" y="198.749"/><use xlink:href="#o" x="393.295" y="198.749"/><use xlink:href="#r" x="395.38" y="198.749"/></g><use xlink:href="#n" x="389.125" y="140.624"/><use xlink:href="#o" x="393.295" y="140.624"/><use xlink:href="#n" x="395.38" y="140.624"/><use xlink:href="#n" x="389.125" y="83.124"/><use xlink:href="#o" x="393.295" y="83.124"/><use xlink:href="#r" x="395.38" y="83.124"/><use xlink:href="#w" x="389.125" y="24.999"/><use xlink:href="#o" x="393.295" y="24.999"/><use xlink:href="#n" x="395.38" y="24.999"/><path d="M746.426 265V10" fill="none" stroke-width="1.25" stroke-linecap="square" stroke="#000" stroke-miterlimit="10"/><path d="M746.426 265h-2.5m2.5-5.797h-2.5m2.5-5.797h-5m5-5.793h-2.5m2.5-5.797h-2.5m2.5-5.796h-2.5m2.5-5.793h-2.5m2.5-5.797h-2.5m2.5-5.793h-2.5m2.5-5.797h-2.5m2.5-5.797h-2.5m2.5-5.793h-2.5m2.5-5.797h-5m5-5.797h-2.5m2.5-5.793h-2.5m2.5-5.797h-2.5m2.5-5.796h-2.5m2.5-5.793h-2.5m2.5-5.797h-2.5m2.5-5.793h-2.5m2.5-5.797h-2.5m2.5-5.797h-2.5m2.5-5.793h-5m5-5.797h-2.5m2.5-5.797h-2.5m2.5-5.793h-2.5m2.5-5.797h-2.5m2.5-5.796h-2.5m2.5-5.793h-2.5m2.5-5.797h-2.5m2.5-5.793h-2.5m2.5-5.797h-2.5m2.5-5.797h-5m5-5.793h-2.5m2.5-5.797h-2.5m2.5-5.797h-2.5m2.5-5.793h-2.5m2.5-5.797h-2.5m2.5-5.793h-2.5m2.5-5.796h-2.5m2.5-5.797h-2.5m2.5-5.793h-2.5m2.5-5.797h-5m5-5.797h-2.5m2.5-5.793h-2.5" fill="none" stroke-width=".625" stroke="#000" stroke-miterlimit="10"/><g clip-path="url(#W)"><use xlink:href="#y" x="752.674" y="256.874"/><use xlink:href="#w" x="755.172" y="256.874"/><use xlink:href="#o" x="759.341" y="256.874"/><use xlink:href="#n" x="761.427" y="256.874"/></g><g clip-path="url(#X)"><use xlink:href="#y" x="752.674" y="198.749"/><use xlink:href="#n" x="755.172" y="198.749"/><use xlink:href="#o" x="759.341" y="198.749"/><use xlink:href="#r" x="761.427" y="198.749"/></g><use xlink:href="#n" x="752.674" y="140.624"/><use xlink:href="#o" x="756.844" y="140.624"/><use xlink:href="#n" x="758.929" y="140.624"/><use xlink:href="#n" x="752.674" y="83.124"/><use xlink:href="#o" x="756.844" y="83.124"/><use xlink:href="#r" x="758.929" y="83.124"/><use xlink:href="#w" x="752.674" y="24.999"/><use xlink:href="#o" x="756.844" y="24.999"/><use xlink:href="#n" x="758.929" y="24.999"/><g clip-path="url(#Y)" fill="none" stroke-width="1.25" stroke-linecap="round" stroke-miterlimit="10"><path d="M406.426 21.59l.625.078.625.234.625.391.625.547.625.703.625.855.625 1.008.625 1.16.625 1.313.625 1.457.625 1.605.625 1.747.625 1.89.625 2.027.625 2.168.625 2.297.625 2.43.625 2.559.625 2.68.625 2.796.625 2.918.625 3.027.625 3.137.625 3.242.625 3.336.625 3.438.625 3.523.625 3.614.625 3.69.625 3.767.625 3.84.625 3.902.625 3.965.625 4.015.625 4.067.625 4.113.625 4.148.625 4.184.625 4.21.625 4.231.625 4.246.625 4.258 1.25 8.524.625 4.25.625 4.238.625 4.219.625 4.199.625 4.164.625 4.129.625 4.09.625 4.039.625 3.988.625 3.934.625 3.867.625 3.8.625 3.727.625 3.649.625 3.562.625 3.477.625 3.383.625 3.285.625 3.183.625 3.078.625 2.97.625 2.85.625 2.735.625 2.613.625 2.485.625 2.36.625 2.226.625 2.09.625 1.953.625 1.812.625 1.672.625 1.523.625 1.38.625 1.226.625 1.078.625.922.625.773.625.618.625.46.625.305.625.149.625-.008.625-.164.625-.32.625-.477.625-.633.625-.785.625-.938.625-1.093.625-1.243.625-1.39.625-1.54.625-1.683.625-1.828.625-1.965.625-2.105.625-2.239.625-2.37.625-2.5.625-2.626.625-2.746.625-2.863.625-2.977.625-3.09.625-3.195.625-3.293.625-3.394.625-3.485.625-3.57.625-3.656.625-3.735.625-3.808.625-3.875.625-3.934.625-3.996.625-4.047.625-4.09.625-4.132.625-4.172.625-4.196.625-4.222.625-4.242.625-4.254.625-4.258.625-4.262.625-4.254.625-4.246.625-4.23.625-4.207.625-4.18.625-4.148.625-4.106.625-4.066.625-4.012.625-3.957.625-3.898.625-3.833.625-3.757.625-3.684.625-3.605.625-3.516.625-3.426.625-3.328.625-3.23.625-3.13.625-3.015.625-2.906.625-2.785.625-2.668.625-2.547.625-2.414.625-2.29.625-2.152.625-2.015.625-1.875.625-1.735.625-1.59.625-1.445.625-1.297.625-1.144.625-.992.625-.84.625-.688.625-.531.625-.379.625-.219.625-.062.625.094.625.25.625.406.625.562.625.715.625.871.625 1.024.625 1.176.625 1.324.625 1.472.625 1.621.625 1.762.625 1.903.625 2.043.625 2.18.625 2.312.625 2.437.625 2.57.625 2.692.625 2.812.625 2.926.625 3.04.625 3.148.625 3.25.625 3.347.625 3.446.625 3.53.625 3.622.625 3.7.625 3.773.625 3.843.625 3.91.625 3.97.625 4.023.625 4.07.625 4.117.625 4.153.625 4.187.625 4.211.625 4.234.625 4.247.625 4.257 1.25 8.524.625 4.25.625 4.234.625 4.219.625 4.195.625 4.16.625 4.125.625 4.086.625 4.035.625 3.985.625 3.926.625 3.863.625 3.789.625 3.723.625 3.636.625 3.559.625 3.465.625 3.375.625 3.277.625 3.172.625 3.066.625 2.957.625 2.84.625 2.723.625 2.601.625 2.477.625 2.344.625 2.215.625 2.078.625 1.937.625 1.801.625 1.652.625 1.512.625 1.363.625 1.215.625 1.059.625.91.625.758.625.601.625.446.625.293.625.132.625-.023.625-.18.625-.336.625-.492.625-.644.625-.805.625-.953.625-1.106.625-1.257.625-1.407.625-1.554.625-1.696.625-1.84.625-1.98.625-2.117.625-2.254.625-2.383.625-2.512.625-2.636.625-2.758.625-2.875.625-2.988.625-3.098.625-3.207.625-3.305.625-3.398.625-3.496.625-3.582.625-3.664.625-3.739.625-3.816.625-3.879.625-3.941.625-4 .625-4.051.625-4.098.625-4.137.625-4.171.625-4.204.625-4.222.625-4.242.625-4.254.625-4.258.625-4.262.625-4.258.625-4.242.625-4.226.625-4.207.625-4.176.625-4.145.625-4.101.625-4.059.625-4.008.625-3.953.625-3.89.625-3.825.625-3.754.625-3.675.625-3.594.625-3.508.625-3.418.625-3.32.625-3.223.625-3.113.625-3.008.625-2.89.625-2.778.625-2.656.625-2.531.625-2.407.625-2.273.625-2.14.625-2 .625-1.864.625-1.719.625-1.578.625-1.43.625-1.28.625-1.13.625-.98.625-.824.625-.672.625-.516.625-.363.625-.203.625-.047.625.105.625.27.625.418.625.578.625.73.625.887.625 1.04.625 1.187.625 1.34.625 1.488.625 1.633.625 1.777.625 1.914.625 2.059.625 2.19.625 2.325.625 2.453.625 2.582.625 2.703.625 2.825.625 2.937.625 3.047.625 3.156.625 3.262.625 3.36.625 3.453.625 3.542.625 3.625.625 3.708.625 3.78.625 3.852.625 3.914.625 3.977.625 4.027.625 4.078.625 4.118.625 4.156.625 4.191.625 4.211.625 4.238.625 4.247.625 4.261.625 4.258.625 4.262.625 4.25.625 4.234.625 4.215.625 4.191.625 4.16.625 4.122.625 4.078.625 4.031.625 3.98.625 3.919.625 3.855.625 3.785.625 3.711.625 3.633.625 3.547.625 3.457.625 3.367.625 3.266.625 3.164.625 3.054.625 2.946.625 2.832.625 2.71.625 2.587.625 2.464.625 2.332.625 2.2.625 2.062.625 1.93.625 1.785.625 1.64.625 1.497.625 1.347.625 1.2.625 1.046.625.895.625.742.625.586.625.43.625.277.625.117.625-.039.625-.191.625-.352.625-.507.625-.665.625-.816.625-.969.625-1.12.625-1.274.625-1.418.625-1.567.625-1.71.625-1.856.625-1.992.625-2.133.625-2.266.625-2.394.625-2.524.625-2.648.625-2.77.625-2.886.625-3 .625-3.11.625-3.215.625-3.312.625-3.414.625-3.5.625-3.59.625-3.672.625-3.746.625-3.824.625-3.887.625-3.945.625-4.004.625-4.059.625-4.101.625-4.14.625-4.177.625-4.203.625-4.222.625-4.246.625-4.254.625-4.262 1.25-8.516.625-4.242.625-4.223.625-4.203.625-4.175.625-4.137.625-4.102.625-4.054.625-4 .625-3.95.625-3.882.625-3.82.625-3.747.625-3.668.625-3.586.625-3.5.625-3.406.625-3.309.625-3.21.625-3.106.625-2.996.625-2.883.625-2.766.625-2.644.625-2.52.625-2.39.625-2.262L718.3 36l.625-1.988.625-1.848.625-1.707.625-1.562.625-1.415.625-1.265.625-1.117.625-.965.625-.813.625-.656.625-.5.625-.348.625-.187.625-.031.625.12.625.282.625.438.625.593.625.746.625.899.625 1.054.625 1.204.625 1.355.625 1.5.625 1.645.625 1.793.625 1.93.625 2.07.625 2.203.625 2.34.625 2.464.625 2.594.625 2.715.625 2.832.625 2.95.625 3.062.625 3.168.625 3.27.625 3.366.625 3.461.625 3.551.625 3.637.625 3.715.625 3.785.625 3.86" stroke="#00008b"/><path d="M406.426 253.406l.625-.078.625-.234.625-.39.625-.548.625-.703.625-.855.625-1.008.625-1.16.625-1.309.625-1.457.625-1.605.625-1.75.625-1.891.625-2.027.625-2.164.625-2.301.625-2.43.625-2.555.625-2.68.625-2.8.625-2.914.625-3.031.625-3.137.625-3.238.625-3.34.625-3.434.625-3.527.625-3.61.625-3.69.625-3.77.625-3.836.625-3.903.625-3.965.625-4.02.625-4.066.625-4.113.625-4.148.625-4.184.625-4.21.625-4.231.625-4.246.625-4.258.625-4.262.625-4.258.625-4.254.625-4.238.625-4.219.625-4.195.625-4.168.625-4.129.625-4.086.625-4.043.625-3.988.625-3.93.625-3.87.625-3.798.625-3.726.625-3.649.625-3.562.625-3.48.625-3.383.625-3.286.625-3.183.625-3.078.625-2.965.625-2.856.625-2.734.625-2.61.625-2.488.625-2.359.625-2.227.625-2.09.625-1.953.625-1.812.625-1.672.625-1.523.625-1.375.625-1.23.625-1.075.625-.926.625-.773.625-.614.625-.464.625-.305.625-.149.625.008.625.164.625.32.625.477.625.633.625.785.625.942.625 1.09.625 1.242.625 1.394.625 1.535.625 1.688.625 1.824.625 1.969.625 2.101.625 2.243.625 2.367.625 2.5.625 2.625.625 2.746.625 2.863.625 2.98.625 3.087.625 3.195.625 3.297.625 3.39.625 3.485.625 3.574.625 3.656.625 3.735.625 3.804.625 3.875.625 3.938.625 3.992.625 4.047.625 4.094.625 4.132.625 4.168.625 4.2.625 4.222.625 4.238.625 4.254.625 4.258.625 4.266.625 4.254.625 4.246.625 4.23.625 4.207.625 4.18.625 4.145.625 4.109.625 4.062.625 4.012.625 3.957.625 3.899.625 3.832.625 3.761.625 3.684.625 3.601.625 3.516.625 3.426.625 3.332.625 3.23.625 3.125.625 3.016.625 2.906.625 2.79.625 2.667.625 2.543.625 2.418.625 2.285.625 2.153.625 2.015.625 1.88.625 1.734.625 1.59.625 1.44.625 1.298.625 1.144.625.996.625.84.625.688.625.531.625.375.625.219.625.062.625-.094.625-.25.625-.406.625-.562.625-.715.625-.871.625-1.024.625-1.175.625-1.325.625-1.472.625-1.617.625-1.762.625-1.906.625-2.04.625-2.18.625-2.312.625-2.441.625-2.57.625-2.692.625-2.808.625-2.93.625-3.04.625-3.144.625-3.25.625-3.351.625-3.442.625-3.535.625-3.617.625-3.7.625-3.777.625-3.843.625-3.91.625-3.97.625-4.023.625-4.07.625-4.117.625-4.152.625-4.184.625-4.215.625-4.234.625-4.246.625-4.258.625-4.262.625-4.258.625-4.25.625-4.238.625-4.219.625-4.191.625-4.164.625-4.125.625-4.082.625-4.04.625-3.984.625-3.922.625-3.863.625-3.793.625-3.719.625-3.64.625-3.555.625-3.469.625-3.375.625-3.273.625-3.176.625-3.066.625-2.957.625-2.84.625-2.723.625-2.601.625-2.473.625-2.348.625-2.21.625-2.079.625-1.941.625-1.797.625-1.656.625-1.512.625-1.36.625-1.214.625-1.063.625-.91.625-.758.625-.601.625-.446.625-.289.625-.136.625.023.625.18.625.336.625.492.625.648.625.801.625.953.625 1.11.625 1.254.625 1.406.625 1.554.625 1.7.625 1.84.625 1.976.625 2.121.625 2.25.625 2.383.625 2.512.625 2.636.625 2.758.625 2.875.625 2.989.625 3.101.625 3.203.625 3.305.625 3.402.625 3.492.625 3.582.625 3.665.625 3.742.625 3.812.625 3.88.625 3.944.625 4 .625 4.047.625 4.098.625 4.137.625 4.172.625 4.203.625 4.222.625 4.243.625 4.253 1.25 8.524.625 4.254.625 4.242.625 4.23.625 4.204.625 4.175.625 4.145.625 4.105.625 4.059.625 4.008.625 3.949.625 3.895.625 3.824.625 3.75.625 3.676.625 3.597.625 3.508.625 3.414.625 3.32.625 3.223.625 3.113.625 3.008.625 2.895.625 2.777.625 2.656.625 2.531.625 2.403.625 2.273.625 2.14.625 2 .625 1.864.625 1.723.625 1.574.625 1.43.625 1.281.625 1.129.625.98.625.828.625.672.625.516.625.36.625.202.625.051.625-.11.625-.265.625-.422.625-.578.625-.73.625-.887.625-1.039.625-1.187.625-1.34.625-1.489.625-1.629.625-1.777.625-1.918.625-2.055.625-2.19.625-2.325.625-2.457.625-2.578.625-2.703.625-2.825.625-2.937.625-3.05.625-3.157.625-3.262.625-3.355.625-3.453.625-3.543.625-3.63.625-3.706.625-3.782.625-3.851.625-3.914.625-3.973.625-4.027.625-4.078.625-4.121.625-4.157.625-4.187.625-4.215.625-4.234.625-4.25.625-4.258.625-4.262.625-4.258.625-4.25.625-4.234.625-4.219.625-4.187.625-4.16.625-4.122.625-4.082.625-4.031.625-3.977.625-3.917.625-3.86.625-3.785.625-3.711.625-3.633.625-3.547.625-3.457.625-3.367.625-3.265.625-3.16.625-3.06.625-2.945.625-2.828.625-2.71.625-2.59.625-2.461.625-2.332.625-2.204.625-2.062.625-1.926.625-1.785.625-1.64.625-1.497.625-1.347.625-1.2.625-1.046.625-.899.625-.738.625-.59.625-.43.625-.273.625-.121.625.039.625.195.625.352.625.508.625.66.625.816.625.969.625 1.12.625 1.274.625 1.418.625 1.57.625 1.712.625 1.851.625 1.996.625 2.13.625 2.265.625 2.394.625 2.528.625 2.648.625 2.77.625 2.886.625 2.996.625 3.114.625 3.21.625 3.317.625 3.41.625 3.5.625 3.594.625 3.668.625 3.75.625 3.82.625 3.887.625 3.95.625 4.003.625 4.055.625 4.101.625 4.14.625 4.177.625 4.203.625 4.226.625 4.243.625 4.254 1.25 8.523.625 4.254.625 4.242.625 4.227.625 4.203.625 4.172.625 4.14.625 4.098.625 4.055.625 4.003.625 3.946.625 3.887.625 3.816.625 3.746.625 3.668.625 3.586.625 3.5.625 3.406.625 3.313.625 3.21.625 3.106.625 2.996.625 2.88.625 2.765.625 2.644.625 2.52.625 2.394.625 2.258.625 2.125.625 1.988.625 1.852.625 1.707.625 1.559.625 1.418.625 1.265.625 1.117.625.961.625.813.625.656.625.5.625.348.625.187.625.035.625-.125.625-.28.625-.438.625-.59.625-.75.625-.899.625-1.054.625-1.203.625-1.352.625-1.504.625-1.644.625-1.79.625-1.933.625-2.067.625-2.207.625-2.336.625-2.468.625-2.59.625-2.715.625-2.836.625-2.95.625-3.062.625-3.164.625-3.27.625-3.37.625-3.461.625-3.551.625-3.633.625-3.715.625-3.789.625-3.855" stroke="#006400"/></g></svg>