<svg xmlns="http://www.w3.org/2000/svg" xmlns:xlink="http://www.w3.org/1999/xlink" width="387.263" height="60.375" viewBox="0 0 290.447 45.281"><defs><clipPath id="i"><path d="M242 13h48.445v29H242zm0 0"/></clipPath><clipPath id="d"><path d="M146 27h23v17.781h-23zm0 0"/></clipPath><clipPath id="h"><path d="M.5 13H48v29H.5zm0 0"/></clipPath><clipPath id="g"><path d="M.5 0H290v44.781H.5zm0 0"/></clipPath><clipPath id="f"><path d="M64 27h22v17.781H64zm0 0"/></clipPath><clipPath id="e"><path d="M39 27h22v17.781H39zm0 0"/></clipPath><clipPath id="a"><path d="M204 27h23v17.781h-23zm0 0"/></clipPath><clipPath id="b"><path d="M229 27h22v17.781h-22zm0 0"/></clipPath><clipPath id="c"><path d="M122 27h22v17.781h-22zm0 0"/></clipPath><symbol overflow="visible" id="l"><path d="M8.719-1.234l-.297.203c-.36.234-.61.36-.735.36-.078 0-.156-.11-.156-.235 0-.125.016-.235.078-.485l.907-3.546a2.7 2.7 0 00.078-.485c0-.203-.125-.344-.313-.344-.344 0-.797.22-1.531.735C6-4.5 5.578-4.078 5-3.25l.36-1.64a3.63 3.63 0 00.077-.5c0-.235-.125-.376-.312-.376-.36 0-.906.266-1.563.766-.53.406-.765.656-1.546 1.719l.406-1.594c.047-.188.062-.375.062-.516 0-.234-.109-.375-.265-.375-.266 0-.719.25-1.594.891l-.344.234.094.235.375-.25c.438-.266.484-.297.563-.297.14 0 .218.125.218.297 0 .61-.484 2.922-.984 4.625l.031.14.828-.187.25-1.219c.297-1.328.61-2.031 1.266-2.75.515-.547 1.047-.906 1.375-.906.094 0 .14.094.14.25 0 .422-.265 1.781-.75 3.875l-.203.797.063.14.828-.187.25-1.266c.188-.968.594-1.875 1.125-2.453C6.406-4.53 7-4.953 7.39-4.953c.094 0 .157.11.157.297 0 .297-.047.453-.297 1.5-.203.75-.406 1.469-.516 1.875-.109.343-.156.64-.156.906 0 .297.125.484.36.484.312 0 .734-.25 1.906-1.125zm0 0"/></symbol><symbol overflow="visible" id="o"><path d="M4.14.031v-.265l-.42-.032c-.438-.03-.531-.14-.531-.656v-.672c.515 0 .703.016.953.047v-.625s-.438.031-.72.031h-.233v-1.218c0-1.563.015-2.329.062-2.688l-.11-.031-.64.234L.016-1.78l.093.187h2.344v.672c0 .516-.094.64-.531.656l-.531.032V.03C1.859.016 2.328 0 2.797 0c.453 0 .89.016 1.344.031zM2.454-2.14H.563l1.89-3.093zm0 0"/></symbol><symbol overflow="visible" id="n"><path d="M4.047-1.969c0-.422-.172-.781-.484-1-.22-.156-.422-.234-.86-.312.703-.547.953-.938.953-1.469 0-.766-.64-1.297-1.61-1.297-.593 0-1 .172-1.421.594L.375-4.36h.281l.156-.5c.094-.297.641-.594 1.094-.594.578 0 1.032.469 1.032 1.016 0 .656-.516 1.218-1.126 1.218-.078 0-.421-.031-.421-.031l-.11.469.063.047c.343-.157.5-.188.75-.188.719 0 1.14.453 1.14 1.25 0 .906-.53 1.484-1.343 1.484-.407 0-.766-.124-1.032-.374C.656-.75.531-.954.375-1.422l-.25.078c.188.532.266.86.313 1.297.468.156.843.219 1.171.219.704 0 1.516-.39 2-.984.297-.36.438-.735.438-1.157zm0 0"/></symbol><symbol overflow="visible" id="m"><path d="M4.11.031c-.032-.187-.032-.281-.032-.406 0-.11 0-.188.031-.39l-3.046.093 1.609-1.687c.844-.907 1.11-1.391 1.11-2.047 0-1.016-.688-1.64-1.798-1.64-.64 0-1.062.187-1.5.624l-.14 1.188h.25l.11-.407c.14-.5.468-.718 1.046-.718.75 0 1.234.468 1.234 1.218 0 .657-.359 1.297-1.359 2.36L.141-.203V.03C.78.016 1.453 0 2.094 0c.672 0 1.344.016 2.015.031zm0 0"/></symbol><symbol overflow="visible" id="k"><path d="M3.656.031v-.265l-.453-.032c-.484-.03-.562-.125-.562-.578v-5.203l-.125-.031a14.66 14.66 0 01-1.985.844l.063.375h.078l1.14-.516h.016c.063 0 .078.078.078.281v4.25c0 .453-.093.547-.578.578l-.484.032V.03C1.328.016 1.813 0 2.28 0c.469 0 .922.016 1.375.031zm0 0"/></symbol><symbol overflow="visible" id="j"><path d="M2.797-8.625l-.14-.14c-.626.312-1.048.421-1.923.5l-.046.25h.578c.28 0 .406.093.406.296 0 .094-.016.203-.016.282l-.578 3.203C.906-3.328.718-2.516.094-.016l.11.125L1-.094l.281-1.484c.11-.578.39-1.11.797-1.516C2.906-.704 3.281.11 3.578.11c.156 0 .453-.156.969-.53l.562-.376-.093-.234-.516.297c-.172.093-.25.109-.36.109-.109 0-.202-.063-.296-.266-.422-.765-.688-1.421-1.156-2.89l.171-.156c.72-.735 1.282-1.032 1.875-1.032.094 0 .22.016.422.063l.203-.75a2.204 2.204 0 00-.562-.11c-.797 0-1.781.922-3.281 3.016zm0 0"/></symbol></defs><path d="M219.96 37.902a4.32 4.32 0 01-4.32 4.32 4.32 4.32 0 01-4.32-4.32 4.32 4.32 0 014.32-4.32 4.32 4.32 0 014.32 4.32" fill-rule="evenodd"/><g clip-path="url(#a)"><path d="M219.96 37.902a4.32 4.32 0 01-4.32 4.32 4.32 4.32 0 01-4.32-4.32 4.32 4.32 0 014.32-4.32 4.32 4.32 0 014.32 4.32zm0 0" fill="none" stroke-width=".45" stroke="#000" stroke-miterlimit="10"/></g><path d="M244.5 37.902a4.32 4.32 0 11-8.64 0 4.32 4.32 0 118.64 0" fill-rule="evenodd"/><g clip-path="url(#b)"><path d="M244.5 37.902a4.32 4.32 0 11-8.64 0 4.32 4.32 0 118.64 0zm0 0" fill="none" stroke-width=".45" stroke="#000" stroke-miterlimit="10"/></g><path d="M137.281 37.902a4.32 4.32 0 01-4.32 4.32 4.32 4.32 0 01-4.32-4.32 4.32 4.32 0 014.32-4.32 4.32 4.32 0 014.32 4.32" fill-rule="evenodd"/><g clip-path="url(#c)"><path d="M137.281 37.902a4.32 4.32 0 01-4.32 4.32 4.32 4.32 0 01-4.32-4.32 4.32 4.32 0 014.32-4.32 4.32 4.32 0 014.32 4.32zm0 0" fill="none" stroke-width=".45" stroke="#000" stroke-miterlimit="10"/></g><path d="M161.762 37.902a4.32 4.32 0 11-8.64 0 4.32 4.32 0 118.64 0" fill-rule="evenodd"/><g clip-path="url(#d)"><path d="M161.762 37.902a4.32 4.32 0 11-8.64 0 4.32 4.32 0 118.64 0zm0 0" fill="none" stroke-width=".45" stroke="#000" stroke-miterlimit="10"/></g><path d="M54.54 37.902a4.32 4.32 0 11-4.321-4.32 4.32 4.32 0 014.32 4.32" fill-rule="evenodd"/><g clip-path="url(#e)"><path d="M54.54 37.902a4.32 4.32 0 11-4.321-4.32 4.32 4.32 0 014.32 4.32zm0 0" fill="none" stroke-width=".45" stroke="#000" stroke-miterlimit="10"/></g><path d="M79.082 37.902a4.32 4.32 0 11-8.64 0 4.32 4.32 0 118.64 0" fill-rule="evenodd"/><g clip-path="url(#f)"><path d="M79.082 37.902a4.32 4.32 0 11-8.64 0 4.32 4.32 0 118.64 0zm0 0" fill="none" stroke-width=".45" stroke="#000" stroke-miterlimit="10"/></g><g clip-path="url(#g)"><path d="M1.2 1.18v42.84h288V1.18" fill="none" stroke-width=".45" stroke="#000" stroke-miterlimit="10"/></g><g clip-path="url(#h)"><path d="M1.2 28.723h3.062l3.058-9.18 3.06 15.297 3.062-15.297L16.5 34.84l3.059-15.297L22.62 34.84l3.117-15.297L28.8 34.84l3.058-15.297 3.063 15.297 3.058-9.18h3.06" fill="none" stroke-width=".45" stroke="#000" stroke-miterlimit="10"/></g><path d="M83.941 28.723H87l3.059-9.18L93.12 34.84l3.059-15.297 3.058 15.297 3.063-15.297 3.058 15.297 3.063-15.297 3.058 15.297 3.06-15.297 3.062 15.297 3.058-9.18h3.121m42.84 3.063h3.117l3.063-9.18 3.058 15.297 3.063-15.297 3.058 15.297 3.06-15.297 3.062 15.297 3.058-15.297 3.059 15.297 3.062-15.297 3.059 15.297 3.058-9.18h3.063" fill="none" stroke-width=".45" stroke="#000" stroke-miterlimit="10"/><g clip-path="url(#i)"><path d="M249.36 28.723h3.062l3.058-9.18 3.06 15.297 3.062-15.297 3.058 15.297 3.121-15.297 3.059 15.297 3.058-15.297 3.063 15.297 3.059-15.297 3.058 15.297 3.063-9.18h3.058" fill="none" stroke-width=".45" stroke="#000" stroke-miterlimit="10"/></g><path d="M206.46 37.902h42.9V10.36h-42.9zm-82.679 0h42.84V10.36h-42.84zm-82.742 0h42.902V10.36H41.04zm0 0" fill="none" stroke-width=".45" stroke="#000" stroke-miterlimit="10"/><use xlink:href="#j" x="16.879" y="13.46"/><use xlink:href="#k" x="22.546" y="15.254"/><use xlink:href="#l" x="53.66" y="25.701"/><use xlink:href="#k" x="63.32" y="27.494"/><use xlink:href="#j" x="99.621" y="13.46"/><use xlink:href="#m" x="105.288" y="15.254"/><use xlink:href="#l" x="136.402" y="25.701"/><use xlink:href="#m" x="146.062" y="27.494"/><use xlink:href="#j" x="182.363" y="13.46"/><use xlink:href="#n" x="188.03" y="15.254"/><use xlink:href="#l" x="219.144" y="25.701"/><use xlink:href="#n" x="228.804" y="27.494"/><use xlink:href="#j" x="265.045" y="13.46"/><use xlink:href="#o" x="270.712" y="15.254"/></svg>