<svg xmlns="http://www.w3.org/2000/svg" xmlns:xlink="http://www.w3.org/1999/xlink" width="387.263" height="139.256" viewBox="0 0 290.447 104.442"><defs><clipPath id="a"><path d="M.5 103.941h290v-104H.5zm142.898-61.46h.84l1.801 10.203-2.219-8.762-2.218 8.762zm0 0"/></clipPath><clipPath id="b"><path d="M.5 103.941h290v-104H.5zm289.121-28.578v.84l-10.2 1.8 8.759-2.222-8.758-2.219zm0 0"/></clipPath><clipPath id="c"><path d="M273 67h17.445v18H273zm0 0"/></clipPath><clipPath id="d"><path d="M.5 103.941h290v-104H.5zM22.738 1.321h.844l1.797 10.202-2.219-8.761-2.219 8.761zm0 0"/></clipPath><symbol overflow="visible" id="e"><path d="M-.078 2.156c-.016.078-.016.156-.016.203 0 .516.438.938.985.938 1.265 0 2.578-1.485 3.28-3.688L5.86-5.656l-.14-.11c-.344.141-.61.204-.875.235l-.422 1.578c-.14.562-.563 1.437-.953 2.015-.422.61-1 1.141-1.266 1.141-.14 0-.25-.281-.25-.578l.016-.156.187-2.313c.016-.375.047-.828.047-1.172 0-.53-.094-.75-.297-.75-.156 0-.312.094-.89.485L.03-4.61l.14.203.595-.344.046-.047c.125-.062.204-.11.25-.11.172 0 .266.235.266.626 0 .015 0 .078-.016.187L1.11-1.187l-.015.468c0 .5.218.844.515.844.454 0 1.454-1.016 2.344-2.36L3.375-.187c-.61 2.11-1.219 2.985-2.047 2.985a.737.737 0 01-.75-.735c0-.062.016-.156.031-.265L.484 1.75zm0 0"/></symbol><symbol overflow="visible" id="f"><path d="M.25-1.047c0 .234-.016.39-.094.766-.031.156-.031.187-.047.265.172.094.375.141.516.141.39 0 .86-.344 1.234-.906l.907-1.39.125.827C3.047-.328 3.328.125 3.75.125c.266 0 .656-.203 1.031-.547l.578-.516-.093-.234c-.438.36-.735.531-.922.531C4.156-.64 4-.75 3.89-.984a4.761 4.761 0 01-.313-1.032l-.203-1.203.422-.578c.547-.781.875-1.062 1.25-1.062.187 0 .328.109.39.28l.172-.046.172-1.016c-.14-.078-.25-.125-.36-.125-.468 0-.952.438-1.687 1.532l-.453.656-.062-.563c-.14-1.187-.469-1.625-1.172-1.625-.313 0-.578.094-.688.25l-.687 1 .203.11c.36-.407.594-.563.828-.563.39 0 .656.485.86 1.657l.124.75-.468.734C1.703-1.031 1.297-.641.953-.641.781-.64.641-.687.625-.75l-.14-.344zm0 0"/></symbol></defs><path d="M23.16 67.563v8.218" fill="none" stroke-width=".45" stroke="#000" stroke-miterlimit="10"/><g clip-path="url(#a)" clip-rule="evenodd"><path d="M143.82 75.781V42.902" fill="none" stroke-width=".45" stroke="#000" stroke-miterlimit="10"/></g><path d="M141.602 52.684l2.218-8.762 2.22 8.762" fill="none" stroke-width=".45" stroke="#000" stroke-miterlimit="10"/><g clip-path="url(#b)" clip-rule="evenodd"><path d="M1.2 75.781h288" fill="none" stroke-width=".45" stroke="#000" stroke-miterlimit="10"/></g><g clip-path="url(#c)"><path d="M279.422 73.562l8.758 2.22-8.758 2.222" fill="none" stroke-width=".45" stroke="#000" stroke-miterlimit="10"/></g><path d="M264.54 75.781v-8.219" fill="none" stroke-width=".9" stroke-linecap="round" stroke="#000" stroke-miterlimit="10"/><g clip-path="url(#d)" clip-rule="evenodd"><path d="M23.16 1.742v101.461" fill="none" stroke-width=".45" stroke="#000" stroke-miterlimit="10"/></g><path d="M20.941 11.523l2.22-8.761 2.218 8.761" fill="none" stroke-width=".45" stroke="#000" stroke-miterlimit="10"/><path d="M23.16 67.563v8.218" fill="none" stroke-width=".9" stroke-linecap="round" stroke="#000" stroke-miterlimit="10"/><path d="M23.16 75.781h.059l.062-.058.18-.121.3-.18.419-.18.601-.3.719-.419.898-.48 1.082-.54 1.32-.66 1.438-.722 1.621-.84 1.801-.898 1.98-.961 2.16-1.02 2.282-1.082 2.398-1.136L45 65.043l2.7-1.2 2.76-1.202 2.88-1.258 2.941-1.2 3.059-1.261 3.12-1.2 3.18-1.199 3.301-1.14 3.418-1.14 3.48-1.141 3.54-1.079 3.66-1.082 3.84-1.02 3.902-.96 4.02-.899 4.199-.84 4.379-.84 4.5-.722 4.68-.656 4.863-.602 5.039-.539 5.16-.422 5.277-.3 5.461-.18 5.461-.059 5.461.059 5.457.18 5.282.3 5.16.422 5.039.54 4.86.6 4.683.657 4.5.723 4.379.84 4.199.84 4.02.898 3.96.96 3.782 1.02 3.66 1.082 3.597 1.079 3.48 1.14 3.36 1.14L222 56.524l3.238 1.2 3.121 1.199 3.063 1.262 2.937 1.199 2.88 1.258L240 63.844l2.64 1.199 2.579 1.14 2.402 1.137 2.277 1.082 2.16 1.02 1.981.96 1.8.9 1.622.84 1.437.722 1.262.66 1.14.539.9.48.722.418.598.301.421.18.297.18.184.12.058.06h.06" fill="none" stroke-width=".9" stroke-linejoin="bevel" stroke="#000" stroke-miterlimit="10"/><path d="M23.16 67.563h.059l.062-.06.18-.12.3-.18.419-.18.601-.3.719-.422.898-.48 1.082-.54 2.758-1.379 1.621-.84 1.801-.902 1.98-.957 2.16-1.02 2.282-1.081 2.398-1.141 2.52-1.2 2.7-1.198 2.76-1.2 2.88-1.203 2.941-1.258 3.059-1.199 3.12-1.2 3.18-1.202 3.301-1.2 3.418-1.14 3.48-1.14 3.54-1.079 3.66-1.082 3.84-.957 3.902-.96 4.02-.962 4.199-.84 4.379-.84 4.5-.718 4.68-.66 4.863-.602 5.039-.539 5.16-.422 5.277-.297 5.461-.18 5.461-.062 5.461.063 5.457.18 5.282.296 5.16.422 5.039.54 4.86.6 4.683.66 4.5.72 4.379.84 4.199.84 4.02.96 3.96.961 3.782.957 3.66 1.082 3.597 1.078 3.48 1.14 3.36 1.142L222 48.3l3.238 1.203 3.121 1.2 3.063 1.198 2.937 1.258 2.88 1.203 2.761 1.2 2.64 1.199 2.579 1.199 2.402 1.14 2.277 1.083 2.16 1.02 1.981.956 1.8.903 1.622.84 1.437.718 1.262.66 1.14.54.9.48.722.422.598.3.421.18.297.18.184.12.058.06h.06" fill="none" stroke-width=".9" stroke-linejoin="bevel" stroke="#000" stroke-miterlimit="10"/><use xlink:href="#e" x="150.32" y="62.061"/><use xlink:href="#e" x="6.677" y="10.76"/><use xlink:href="#f" x="267.085" y="91.762"/></svg>