<svg xmlns="http://www.w3.org/2000/svg" xmlns:xlink="http://www.w3.org/1999/xlink" width="379pt" height="275pt" viewBox="0 0 379 275"><defs><clipPath id="i"><path d="M359 9.5h1v255h-1zm0 0"/></clipPath><clipPath id="e"><path d="M133 9.5h1v255h-1zm0 0"/></clipPath><clipPath id="n"><path d="M20 9.5h340v.5H20zm0 0"/></clipPath><clipPath id="m"><path d="M20 72h340v2H20zm0 0"/></clipPath><clipPath id="l"><path d="M20 136h340v2H20zm0 0"/></clipPath><clipPath id="k"><path d="M20 200h340v2H20zm0 0"/></clipPath><clipPath id="j"><path d="M20 264h340v.5H20zm0 0"/></clipPath><clipPath id="a"><path d="M189 9.5h2v255h-2zm0 0"/></clipPath><clipPath id="b"><path d="M20 200h340v2H20zm0 0"/></clipPath><clipPath id="c"><path d="M20 9.5h1v255h-1zm0 0"/></clipPath><clipPath id="d"><path d="M76 9.5h1v255h-1zm0 0"/></clipPath><clipPath id="v"><path d="M20 55h340v164H20zm0 0"/></clipPath><clipPath id="f"><path d="M189 9.5h2v255h-2zm0 0"/></clipPath><clipPath id="g"><path d="M246 9.5h1v255h-1zm0 0"/></clipPath><clipPath id="h"><path d="M303 9.5h1v255h-1zm0 0"/></clipPath><symbol overflow="visible" id="p"><path d="M1.656-2.438h.36c.734 0 1.109.329 1.109.954 0 .671-.422 1.078-1.11 1.078-.718 0-1.078-.36-1.109-1.14H.234c.032.421.11.702.235.952.281.5.797.766 1.531.766 1.094 0 1.797-.656 1.797-1.656 0-.672-.266-1.047-.906-1.266.5-.203.75-.578.75-1.11 0-.906-.61-1.453-1.625-1.453-1.079 0-1.641.579-1.657 1.72h.657c0-.329.03-.516.109-.673.156-.296.484-.468.906-.468.578 0 .938.343.938.906 0 .375-.14.594-.438.719-.172.078-.406.109-.875.109zm0 0"/></symbol><symbol overflow="visible" id="u"><path d="M3.563-5.313H.828L.422-2.421h.61c.312-.375.562-.5.984-.5.703 0 1.156.485 1.156 1.281 0 .766-.438 1.235-1.156 1.235-.579 0-.938-.297-1.094-.906H.266c.093.437.156.656.312.843.313.406.844.64 1.453.64 1.063 0 1.813-.78 1.813-1.905 0-1.047-.688-1.766-1.719-1.766-.375 0-.672.094-.984.313l.218-1.485h2.204zm0 0"/></symbol><symbol overflow="visible" id="t"><path d="M1.438-.781H.655V0h.781zm0 0"/></symbol><symbol overflow="visible" id="s"><path d="M2.063-5.313c-.5 0-.938.22-1.22.579C.5-4.266.329-3.563.329-2.578c0 1.797.594 2.75 1.734 2.75 1.126 0 1.735-.953 1.735-2.703 0-1.031-.156-1.719-.516-2.203-.281-.375-.719-.579-1.219-.579zm0 .579c.718 0 1.062.718 1.062 2.14 0 1.516-.344 2.219-1.078 2.219C1.344-.375 1-1.109 1-2.563c0-1.453.344-2.171 1.063-2.171zm0 0"/></symbol><symbol overflow="visible" id="r"><path d="M1.938-3.781V0h.671v-5.313h-.437c-.235.813-.39.922-1.406 1.047v.485zm0 0"/></symbol><symbol overflow="visible" id="q"><path d="M3.797-.656H1c.063-.438.313-.703.953-1.094l.75-.406c.75-.406 1.125-.953 1.125-1.594 0-.453-.172-.86-.484-1.14-.328-.298-.719-.423-1.219-.423-.672 0-1.172.235-1.469.688-.187.281-.265.61-.281 1.156h.656c.032-.36.078-.578.157-.75.171-.328.515-.515.921-.515.594 0 1.047.421 1.047.984 0 .422-.25.781-.719 1.063l-.687.39C.64-1.672.312-1.172.25 0h3.547zm0 0"/></symbol><symbol overflow="visible" id="o"><path d="M2.125-2.344H.344v.547h1.781zm0 0"/></symbol></defs><g clip-path="url(#a)"><path d="M190 264.5V9.5" fill="none" stroke-width=".625" stroke-linecap="round" stroke="#bfbfbf" stroke-miterlimit="10"/></g><g clip-path="url(#b)"><path d="M20 200.75h340" fill="none" stroke-width=".625" stroke-linecap="round" stroke="#bfbfbf" stroke-miterlimit="10"/></g><g clip-path="url(#c)"><path d="M20 264.5V9.5" fill="none" stroke-width=".625" stroke-linecap="round" stroke="#bfbfbf" stroke-dasharray="12.5,18.75" stroke-miterlimit="10"/></g><g clip-path="url(#d)"><path d="M76.668 264.5V9.5" fill="none" stroke-width=".625" stroke-linecap="round" stroke="#bfbfbf" stroke-dasharray="12.5,18.75" stroke-miterlimit="10"/></g><g clip-path="url(#e)"><path d="M133.332 264.5V9.5" fill="none" stroke-width=".625" stroke-linecap="round" stroke="#bfbfbf" stroke-dasharray="12.5,18.75" stroke-miterlimit="10"/></g><g clip-path="url(#f)"><path d="M190 264.5V9.5" fill="none" stroke-width=".625" stroke-linecap="round" stroke="#bfbfbf" stroke-dasharray="12.5,18.75" stroke-miterlimit="10"/></g><g clip-path="url(#g)"><path d="M246.668 264.5V9.5" fill="none" stroke-width=".625" stroke-linecap="round" stroke="#bfbfbf" stroke-dasharray="12.5,18.75" stroke-miterlimit="10"/></g><g clip-path="url(#h)"><path d="M303.332 264.5V9.5" fill="none" stroke-width=".625" stroke-linecap="round" stroke="#bfbfbf" stroke-dasharray="12.5,18.75" stroke-miterlimit="10"/></g><g clip-path="url(#i)"><path d="M360 264.5V9.5" fill="none" stroke-width=".625" stroke-linecap="round" stroke="#bfbfbf" stroke-dasharray="12.5,18.75" stroke-miterlimit="10"/></g><g clip-path="url(#j)"><path d="M20 264.5h340" fill="none" stroke-width=".625" stroke-linecap="round" stroke="#bfbfbf" stroke-dasharray="12.5,18.75" stroke-miterlimit="10"/></g><g clip-path="url(#k)"><path d="M20 200.75h340" fill="none" stroke-width=".625" stroke-linecap="round" stroke="#bfbfbf" stroke-dasharray="12.5,18.75" stroke-miterlimit="10"/></g><g clip-path="url(#l)"><path d="M20 137h340" fill="none" stroke-width=".625" stroke-linecap="round" stroke="#bfbfbf" stroke-dasharray="12.5,18.75" stroke-miterlimit="10"/></g><g clip-path="url(#m)"><path d="M20 73.25h340" fill="none" stroke-width=".625" stroke-linecap="round" stroke="#bfbfbf" stroke-dasharray="12.5,18.75" stroke-miterlimit="10"/></g><g clip-path="url(#n)"><path d="M20 9.5h340" fill="none" stroke-width=".625" stroke-linecap="round" stroke="#bfbfbf" stroke-dasharray="12.5,18.75" stroke-miterlimit="10"/></g><path d="M20 264.5h340" fill="none" stroke-width="1.25" stroke-linecap="square" stroke="#000" stroke-miterlimit="10"/><path d="M20 264.5v-5m5.668 5V262m5.664 2.5V262M37 264.5V262m5.668 2.5V262m5.664 2.5V262M54 264.5V262m5.668 2.5V262m5.664 2.5V262M71 264.5V262m5.668 2.5v-5m5.664 5V262M88 264.5V262m5.668 2.5V262m5.664 2.5V262m5.668 2.5V262m5.668 2.5V262m5.664 2.5V262m5.668 2.5V262m5.668 2.5V262m5.664 2.5v-5m5.668 5V262m5.668 2.5V262m5.664 2.5V262m5.668 2.5V262m5.668 2.5V262m5.664 2.5V262m5.668 2.5V262m5.668 2.5V262m5.664 2.5V262m5.668 2.5v-5m5.668 5V262m5.664 2.5V262m5.668 2.5V262m5.668 2.5V262m5.664 2.5V262m5.668 2.5V262m5.668 2.5V262m5.664 2.5V262m5.668 2.5V262m5.668 2.5v-5m5.664 5V262m5.668 2.5V262m5.668 2.5V262m5.664 2.5V262m5.668 2.5V262m5.668 2.5V262m5.664 2.5V262m5.668 2.5V262m5.668 2.5V262m5.664 2.5v-5m5.668 5V262m5.668 2.5V262m5.664 2.5V262m5.668 2.5V262m5.668 2.5V262m5.664 2.5V262m5.668 2.5V262m5.668 2.5V262m5.664 2.5V262m5.668 2.5v-5" fill="none" stroke-width=".625" stroke="#000" stroke-miterlimit="10"/><use xlink:href="#o" x="16.042" y="274.5"/><use xlink:href="#p" x="18.539" y="274.5"/><use xlink:href="#o" x="72.917" y="274.5"/><use xlink:href="#q" x="75.414" y="274.5"/><use xlink:href="#o" x="129.792" y="274.5"/><use xlink:href="#r" x="132.289" y="274.5"/><use xlink:href="#s" x="187.915" y="274.5"/><use xlink:href="#r" x="244.165" y="274.5"/><use xlink:href="#q" x="301.04" y="274.5"/><use xlink:href="#p" x="357.915" y="274.5"/><path d="M20 9.5h340" fill="none" stroke-width="1.25" stroke-linecap="square" stroke="#000" stroke-miterlimit="10"/><path d="M20 9.5v5m5.668-5V12m5.664-2.5V12M37 9.5V12m5.668-2.5V12m5.664-2.5V12M54 9.5V12m5.668-2.5V12m5.664-2.5V12M71 9.5V12m5.668-2.5v5m5.664-5V12M88 9.5V12m5.668-2.5V12m5.664-2.5V12M105 9.5V12m5.668-2.5V12m5.664-2.5V12M122 9.5V12m5.668-2.5V12m5.664-2.5v5m5.668-5V12m5.668-2.5V12m5.664-2.5V12M156 9.5V12m5.668-2.5V12m5.664-2.5V12M173 9.5V12m5.668-2.5V12m5.664-2.5V12M190 9.5v5m5.668-5V12m5.664-2.5V12M207 9.5V12m5.668-2.5V12m5.664-2.5V12M224 9.5V12m5.668-2.5V12m5.664-2.5V12M241 9.5V12m5.668-2.5v5m5.664-5V12M258 9.5V12m5.668-2.5V12m5.664-2.5V12M275 9.5V12m5.668-2.5V12m5.664-2.5V12M292 9.5V12m5.668-2.5V12m5.664-2.5v5m5.668-5V12m5.668-2.5V12m5.664-2.5V12M326 9.5V12m5.668-2.5V12m5.664-2.5V12M343 9.5V12m5.668-2.5V12m5.664-2.5V12M360 9.5v5" fill="none" stroke-width=".625" stroke="#000" stroke-miterlimit="10"/><use xlink:href="#o" x="16.042" y="6.375"/><use xlink:href="#p" x="18.539" y="6.375"/><use xlink:href="#o" x="72.917" y="6.375"/><use xlink:href="#q" x="75.414" y="6.375"/><use xlink:href="#o" x="129.792" y="6.375"/><use xlink:href="#r" x="132.289" y="6.375"/><use xlink:href="#s" x="187.915" y="6.375"/><use xlink:href="#r" x="244.165" y="6.375"/><use xlink:href="#q" x="301.04" y="6.375"/><use xlink:href="#p" x="357.915" y="6.375"/><path d="M20 264.5V9.5" fill="none" stroke-width="1.25" stroke-linecap="square" stroke="#000" stroke-miterlimit="10"/><path d="M20 264.5h5m-5-6.375h2.5M20 251.75h2.5m-2.5-6.375h2.5M20 239h2.5m-2.5-6.375h2.5M20 226.25h2.5m-2.5-6.375h2.5M20 213.5h2.5m-2.5-6.375h2.5M20 200.75h5m-5-6.375h2.5M20 188h2.5m-2.5-6.375h2.5M20 175.25h2.5m-2.5-6.375h2.5M20 162.5h2.5m-2.5-6.375h2.5M20 149.75h2.5m-2.5-6.375h2.5M20 137h5m-5-6.375h2.5M20 124.25h2.5m-2.5-6.375h2.5M20 111.5h2.5m-2.5-6.375h2.5M20 98.75h2.5M20 92.375h2.5M20 86h2.5M20 79.625h2.5M20 73.25h5m-5-6.375h2.5M20 60.5h2.5M20 54.125h2.5M20 47.75h2.5M20 41.375h2.5M20 35h2.5M20 28.625h2.5M20 22.25h2.5M20 15.875h2.5M20 9.5h5" fill="none" stroke-width=".625" stroke="#000" stroke-miterlimit="10"/><use xlink:href="#o" x=".204" y="268.25"/><use xlink:href="#s" x="2.701" y="268.25"/><use xlink:href="#t" x="6.871" y="268.25"/><use xlink:href="#u" x="8.956" y="268.25"/><use xlink:href="#s" x="2.701" y="203.875"/><use xlink:href="#t" x="6.871" y="203.875"/><use xlink:href="#s" x="8.956" y="203.875"/><use xlink:href="#s" x="2.701" y="140.125"/><use xlink:href="#t" x="6.871" y="140.125"/><use xlink:href="#u" x="8.956" y="140.125"/><use xlink:href="#r" x="2.701" y="76.375"/><use xlink:href="#t" x="6.871" y="76.375"/><use xlink:href="#s" x="8.956" y="76.375"/><use xlink:href="#r" x="2.701" y="12.625"/><use xlink:href="#t" x="6.871" y="12.625"/><use xlink:href="#u" x="8.956" y="12.625"/><path d="M360 264.5V9.5" fill="none" stroke-width="1.25" stroke-linecap="square" stroke="#000" stroke-miterlimit="10"/><path d="M360 264.5h-5m5-6.375h-2.5m2.5-6.375h-2.5m2.5-6.375h-2.5M360 239h-2.5m2.5-6.375h-2.5m2.5-6.375h-2.5m2.5-6.375h-2.5m2.5-6.375h-2.5m2.5-6.375h-2.5m2.5-6.375h-5m5-6.375h-2.5M360 188h-2.5m2.5-6.375h-2.5m2.5-6.375h-2.5m2.5-6.375h-2.5m2.5-6.375h-2.5m2.5-6.375h-2.5m2.5-6.375h-2.5m2.5-6.375h-2.5M360 137h-5m5-6.375h-2.5m2.5-6.375h-2.5m2.5-6.375h-2.5m2.5-6.375h-2.5m2.5-6.375h-2.5m2.5-6.375h-2.5m2.5-6.375h-2.5M360 86h-2.5m2.5-6.375h-2.5m2.5-6.375h-5m5-6.375h-2.5M360 60.5h-2.5m2.5-6.375h-2.5m2.5-6.375h-2.5m2.5-6.375h-2.5M360 35h-2.5m2.5-6.375h-2.5m2.5-6.375h-2.5m2.5-6.375h-2.5M360 9.5h-5" fill="none" stroke-width=".625" stroke="#000" stroke-miterlimit="10"/><use xlink:href="#o" x="366.25" y="268.25"/><use xlink:href="#s" x="368.748" y="268.25"/><use xlink:href="#t" x="372.918" y="268.25"/><use xlink:href="#u" x="375.002" y="268.25"/><use xlink:href="#s" x="366.25" y="203.875"/><use xlink:href="#t" x="370.42" y="203.875"/><use xlink:href="#s" x="372.505" y="203.875"/><use xlink:href="#s" x="366.25" y="140.125"/><use xlink:href="#t" x="370.42" y="140.125"/><use xlink:href="#u" x="372.505" y="140.125"/><use xlink:href="#r" x="366.25" y="76.375"/><use xlink:href="#t" x="370.42" y="76.375"/><use xlink:href="#s" x="372.505" y="76.375"/><use xlink:href="#r" x="366.25" y="12.625"/><use xlink:href="#t" x="370.42" y="12.625"/><use xlink:href="#u" x="372.505" y="12.625"/><g clip-path="url(#v)"><path d="M20 200.75l.625-2.797.625-2.766.625-2.734.625-2.707.625-2.672.625-2.64.625-2.61.625-2.582.625-2.547.625-2.52.625-2.488.625-2.453.625-2.425.625-2.395.625-2.363.625-2.332.625-2.297.625-2.274.625-2.238.625-2.207.625-2.176.625-2.144.625-2.117.625-2.082.625-2.051.625-2.024.625-1.992.625-1.957.625-1.93.625-1.894.625-1.867.625-1.836.625-1.805.625-1.773.625-1.742.625-1.711.625-1.68.625-1.649.625-1.62.625-1.587.625-1.554.625-1.528.625-1.496.625-1.46.625-1.434.625-1.399.625-1.37.625-1.34.625-1.31.625-1.277.625-1.246.625-1.214.625-1.184.625-1.152.625-1.122.625-1.09.625-1.062.625-1.027.625-.996.625-.97.625-.937.625-.902.625-.875.625-.844.625-.808.625-.781.625-.75.625-.72.625-.687.625-.656.625-.629.625-.594.625-.562.625-.531.625-.5.625-.473.625-.441.625-.407.625-.379.625-.343.625-.317.625-.285.625-.254.625-.222.625-.192.625-.16.625-.125.625-.102.625-.066.625-.035.625-.004.625.023.625.059.625.086.625.117.625.152.625.18.625.215.625.242.625.274.625.304.625.336.625.367.625.399.625.43.625.46.625.489.625.523.625.555.625.582.625.613.625.649.625.675.625.711.625.739.625.77.625.8.625.832.625.863.625.895.625.926.625.957.625.988.625 1.02.625 1.046.625 1.082.625 1.114.625 1.14.625 1.172.625 1.207.625 1.234.625 1.266.625 1.3.625 1.329.625 1.36.625 1.39.625 1.422.625 1.453.625 1.484.625 1.512.625 1.547.625 1.578.625 1.61.625 1.636.625 1.668.625 1.703.625 1.73.625 1.766.625 1.793.625 1.825.625 1.859.625 1.883.625 1.922.625 1.945.625 1.98.625 2.012.625 2.043.625 2.074.625 2.102.625 2.137.625 2.168.625 2.195.625 2.226.625 2.262.625 2.29.625 2.32.625 2.351.625 2.387.625 2.414.625 2.445.625 2.477.625 2.508.625 2.539.625 2.57.625 2.598.625 2.632.625 2.66.625 2.696.625 2.726.625 2.754.625 2.786.625-.93.625-2.778.625-2.746.625-2.714.625-2.684.625-2.652.625-2.621.625-2.59.625-2.559.625-2.527.625-2.496.625-2.47.625-2.433.625-2.402.625-2.375.625-2.344.625-2.308.625-2.282.625-2.25.625-2.214.625-2.188.625-2.156.625-2.125.625-2.094.625-2.062.625-2.032.625-2.004.625-1.968.625-1.938.625-1.906.625-1.88.625-1.847.625-1.812.625-1.785.625-1.75.625-1.723.625-1.691.625-1.66.625-1.63.625-1.593.625-1.57.625-1.536.625-1.504.625-1.472.625-1.442.625-1.414.625-1.379.625-1.347.625-1.32.625-1.29.625-1.254.625-1.226.625-1.192.625-1.164.625-1.132.625-1.102.625-1.07.625-1.04.625-1.007.625-.977.625-.945.625-.918.625-.883.625-.851.625-.825.625-.793.625-.757.625-.73.625-.696.625-.668.625-.637.625-.605.625-.575.625-.543.625-.511.625-.48.625-.45.625-.418.625-.387.625-.355.625-.328.625-.293.625-.266.625-.23.625-.203.625-.172.625-.14.625-.106.625-.078.625-.047.625-.016.625.016.625.047.625.078.625.105.625.14.625.173.625.203.625.23.625.266.625.293.625.328.625.355.625.387.625.418.625.45.625.48.625.511.625.543.625.575.625.605.625.637.625.668.625.695.625.73.625.758.625.793.625.825.625.851.625.883.625.918.625.945.625.977.625 1.008.625 1.039.625 1.07.625 1.102.625 1.132.625 1.164.625 1.192.625 1.226.625 1.254.625 1.29.625 1.32.625 1.347.625 1.38.625 1.413.625 1.442.625 1.472.625 1.504.625 1.535.625 1.57.625 1.595.625 1.628.625 1.66.625 1.692.625 1.723.625 1.75.625 1.785.625 1.812.625 1.848.625 1.879.625 1.906.625 1.938.625 1.968.625 2.004.625 2.032.625 2.062.625 2.094.625 2.125.625 2.156.625 2.188.625 2.214.625 2.25.625 2.282.625 2.308.625 2.344.625 2.375.625 2.402.625 2.434.625 2.469.625 2.496.625 2.527.625 2.559.625 2.59.625 2.62.625 2.653.625 2.684.625 2.714.625 2.746.625 2.778.625.93.625-2.786.625-2.754.625-2.726.625-2.695.625-2.66.625-2.633.625-2.598.625-2.57.625-2.54.625-2.507.625-2.477.625-2.445.625-2.414.625-2.387.625-2.351.625-2.32.625-2.29.625-2.262.625-2.226.625-2.195.625-2.168.625-2.137.625-2.102.625-2.074.625-2.043.625-2.012.625-1.98.625-1.945.625-1.922.625-1.883.625-1.86.625-1.824.625-1.793.625-1.765.625-1.73.625-1.704.625-1.668.625-1.637.625-1.609.625-1.578.625-1.547.625-1.512.625-1.484.625-1.453.625-1.422.625-1.39.625-1.36.625-1.328.625-1.3.625-1.267.625-1.234.625-1.207.625-1.172.625-1.14.625-1.114.625-1.082.625-1.047.625-1.02.625-.987.625-.957.625-.926.625-.895.625-.863.625-.832.625-.8.625-.77.625-.739.625-.71.625-.676.625-.649.625-.613.625-.582.625-.555.625-.523.625-.489.625-.46.625-.43.625-.399.625-.367.625-.336.625-.304.625-.274.625-.242.625-.215.625-.18.625-.152.625-.117.625-.086.625-.059.625-.023.625.004.625.035.625.066.625.102.625.125.625.16.625.192.625.222.625.254.625.285.625.317.625.343.625.38.625.406.625.44.625.474.625.5.625.53.625.563.625.594.625.629.625.656.625.688.625.719.625.75.625.78.625.81.625.843.625.875.625.902.625.938.625.969.625.996.625 1.027.625 1.063.625 1.09.625 1.12.625 1.153.625 1.184.625 1.214.625 1.246.625 1.278.625 1.308.625 1.34.625 1.371.625 1.399.625 1.433.625 1.461.625 1.496.625 1.528.625 1.554.625 1.586.625 1.621.625 1.649.625 1.68.625 1.71.625 1.743.625 1.773.625 1.805.625 1.836.625 1.867.625 1.894.625 1.93.625 1.957.625 1.992.625 2.024.625 2.05.625 2.083.625 2.117.625 2.144.625 2.176.625 2.207.625 2.238.625 2.274.625 2.297.625 2.332.625 2.363.625 2.395.625 2.425.625 2.453.625 2.489.625 2.52.625 2.546.625 2.582.625 2.61.625 2.64.625 2.672.625 2.707.625 2.734.625 2.766.625 2.797" fill="none" stroke-width="1.25" stroke-linecap="round" stroke="#00008b" stroke-miterlimit="10"/></g></svg>