<svg xmlns="http://www.w3.org/2000/svg" xmlns:xlink="http://www.w3.org/1999/xlink" width="1003.897" height="366.665" viewBox="0 0 752.923 274.999"><defs><clipPath id="as"><path d="M653 135h86.426v119H653zm0 0"/></clipPath><clipPath id="am"><path d="M386.426 245H393v7h-6.574zm0 0"/></clipPath><clipPath id="ar"><path d="M399.426 19H486v119h-86.574zm0 0"/></clipPath><clipPath id="aq"><path d="M399.426 9h340v255h-340zm0 0"/></clipPath><clipPath id="ap"><path d="M746 208h6.426v6H746zm0 0"/></clipPath><clipPath id="ao"><path d="M386.426 171H391v7h-4.574zm0 0"/></clipPath><clipPath id="an"><path d="M386.426 208H393v6h-6.574zm0 0"/></clipPath><clipPath id="a"><path d="M183 9h1v255h-1zm0 0"/></clipPath><clipPath id="b"><path d="M13.5 136h340v1h-340zm0 0"/></clipPath><clipPath id="c"><path d="M47 9h2v255h-2zm0 0"/></clipPath><clipPath id="d"><path d="M115 9h2v255h-2zm0 0"/></clipPath><clipPath id="e"><path d="M183 9h1v255h-1zm0 0"/></clipPath><clipPath id="f"><path d="M250 9h2v255h-2zm0 0"/></clipPath><clipPath id="g"><path d="M318 9h2v255h-2zm0 0"/></clipPath><clipPath id="h"><path d="M13.5 247h340v1h-340zm0 0"/></clipPath><clipPath id="i"><path d="M13.5 210h340v1h-340zm0 0"/></clipPath><clipPath id="j"><path d="M13.5 173h340v1h-340zm0 0"/></clipPath><clipPath id="k"><path d="M13.5 136h340v1h-340zm0 0"/></clipPath><clipPath id="l"><path d="M13.5 99h340v1h-340zm0 0"/></clipPath><clipPath id="m"><path d="M13.5 62h340v1h-340zm0 0"/></clipPath><clipPath id="n"><path d="M13.5 25h340v1h-340zm0 0"/></clipPath><clipPath id="o"><path d="M41 268h13v6.5H41zm0 0"/></clipPath><clipPath id="t"><path d="M109 268h13v6.5h-13zm0 0"/></clipPath><clipPath id="v"><path d="M178 268h11v6.5h-11zm0 0"/></clipPath><clipPath id="w"><path d="M246 268h10v6.5h-10zm0 0"/></clipPath><clipPath id="x"><path d="M313 268h11v6.5h-11zm0 0"/></clipPath><clipPath id="y"><path d="M41 .5h13V7H41zm0 0"/></clipPath><clipPath id="z"><path d="M109 .5h13V7h-13zm0 0"/></clipPath><clipPath id="A"><path d="M178 .5h11V7h-11zm0 0"/></clipPath><clipPath id="B"><path d="M246 .5h10V7h-10zm0 0"/></clipPath><clipPath id="C"><path d="M313 .5h11V7h-11zm0 0"/></clipPath><clipPath id="D"><path d="M.5 245H7v7H.5zm0 0"/></clipPath><clipPath id="F"><path d="M.5 208H7v6H.5zm0 0"/></clipPath><clipPath id="G"><path d="M.5 171H6v7H.5zm0 0"/></clipPath><clipPath id="I"><path d="M360 245h6.5v7H360zm0 0"/></clipPath><clipPath id="J"><path d="M360 208h6.5v6H360zm0 0"/></clipPath><clipPath id="K"><path d="M13.5 11h340v251h-340zm0 0"/></clipPath><clipPath id="L"><path d="M13.5 9H117v146H13.5zm0 0"/></clipPath><clipPath id="M"><path d="M80 9h207v255H80zm0 0"/></clipPath><clipPath id="N"><path d="M250 118h103.5v146H250zm0 0"/></clipPath><clipPath id="O"><path d="M569 9h1v255h-1zm0 0"/></clipPath><clipPath id="P"><path d="M399.426 136h340v1h-340zm0 0"/></clipPath><clipPath id="Q"><path d="M433 9h2v255h-2zm0 0"/></clipPath><clipPath id="R"><path d="M501 9h2v255h-2zm0 0"/></clipPath><clipPath id="S"><path d="M569 9h1v255h-1zm0 0"/></clipPath><clipPath id="T"><path d="M636 9h2v255h-2zm0 0"/></clipPath><clipPath id="U"><path d="M704 9h2v255h-2zm0 0"/></clipPath><clipPath id="V"><path d="M399.426 247h340v1h-340zm0 0"/></clipPath><clipPath id="W"><path d="M399.426 210h340v1h-340zm0 0"/></clipPath><clipPath id="X"><path d="M399.426 173h340v1h-340zm0 0"/></clipPath><clipPath id="Y"><path d="M399.426 136h340v1h-340zm0 0"/></clipPath><clipPath id="Z"><path d="M399.426 99h340v1h-340zm0 0"/></clipPath><clipPath id="aa"><path d="M399.426 62h340v1h-340zm0 0"/></clipPath><clipPath id="ab"><path d="M399.426 25h340v1h-340zm0 0"/></clipPath><clipPath id="ac"><path d="M427 268h13v6.5h-13zm0 0"/></clipPath><clipPath id="ad"><path d="M495 268h13v6.5h-13zm0 0"/></clipPath><clipPath id="ae"><path d="M564 268h11v6.5h-11zm0 0"/></clipPath><clipPath id="af"><path d="M631 268h11v6.5h-11zm0 0"/></clipPath><clipPath id="ag"><path d="M699 268h11v6.5h-11zm0 0"/></clipPath><clipPath id="ah"><path d="M427 .5h13V7h-13zm0 0"/></clipPath><clipPath id="ai"><path d="M495 .5h13V7h-13zm0 0"/></clipPath><clipPath id="aj"><path d="M564 .5h11V7h-11zm0 0"/></clipPath><clipPath id="ak"><path d="M631 .5h11V7h-11zm0 0"/></clipPath><clipPath id="al"><path d="M699 .5h11V7h-11zm0 0"/></clipPath><symbol overflow="visible" id="q"><path d="M3.563-5.313H.828L.422-2.421h.61c.312-.375.562-.5.984-.5.703 0 1.156.485 1.156 1.281 0 .766-.438 1.235-1.156 1.235-.579 0-.938-.297-1.094-.906H.266c.093.437.156.656.312.843.313.406.844.64 1.453.64 1.063 0 1.813-.78 1.813-1.905 0-1.047-.688-1.766-1.719-1.766-.375 0-.672.094-.984.313l.218-1.485h2.204zm0 0"/></symbol><symbol overflow="visible" id="H"><path d="M1.938-3.781V0h.671v-5.313h-.437c-.235.813-.39.922-1.406 1.047v.485zm0 0"/></symbol><symbol overflow="visible" id="E"><path d="M1.656-2.438h.36c.734 0 1.109.329 1.109.954 0 .671-.422 1.078-1.11 1.078-.718 0-1.078-.36-1.109-1.14H.234c.032.421.11.702.235.952.281.5.797.766 1.531.766 1.094 0 1.797-.656 1.797-1.656 0-.672-.266-1.047-.906-1.266.5-.203.75-.578.75-1.11 0-.906-.61-1.453-1.625-1.453-1.079 0-1.641.579-1.657 1.72h.657c0-.329.03-.516.109-.673.156-.296.484-.468.906-.468.578 0 .938.343.938.906 0 .375-.14.594-.438.719-.172.078-.406.109-.875.109zm0 0"/></symbol><symbol overflow="visible" id="u"><path d="M3.797-.656H1c.063-.438.313-.703.953-1.094l.75-.406c.75-.406 1.125-.953 1.125-1.594 0-.453-.172-.86-.484-1.14-.328-.298-.719-.423-1.219-.423-.672 0-1.172.235-1.469.688-.187.281-.265.61-.281 1.156h.656c.032-.36.078-.578.157-.75.171-.328.515-.515.921-.515.594 0 1.047.421 1.047.984 0 .422-.25.781-.719 1.063l-.687.39C.64-1.672.312-1.172.25 0h3.547zm0 0"/></symbol><symbol overflow="visible" id="s"><path d="M2.063-5.313c-.5 0-.938.22-1.22.579C.5-4.266.329-3.563.329-2.578c0 1.797.594 2.75 1.734 2.75 1.126 0 1.735-.953 1.735-2.703 0-1.031-.156-1.719-.516-2.203-.281-.375-.719-.579-1.219-.579zm0 .579c.718 0 1.062.718 1.062 2.14 0 1.516-.344 2.219-1.078 2.219C1.344-.375 1-1.109 1-2.563c0-1.453.344-2.171 1.063-2.171zm0 0"/></symbol><symbol overflow="visible" id="r"><path d="M1.438-.781H.655V0h.781zm0 0"/></symbol><symbol overflow="visible" id="p"><path d="M2.125-2.344H.344v.547h1.781zm0 0"/></symbol></defs><g clip-path="url(#a)"><path d="M183.5 264V9" fill="none" stroke-width=".625" stroke-linecap="round" stroke="#bfbfbf" stroke-miterlimit="10"/></g><g clip-path="url(#b)"><path d="M13.5 136.5h340" fill="none" stroke-width=".625" stroke-linecap="round" stroke="#bfbfbf" stroke-miterlimit="10"/></g><g clip-path="url(#c)"><path d="M48.219 264V9" fill="none" stroke-width=".625" stroke-linecap="round" stroke="#bfbfbf" stroke-dasharray="12.5,18.75" stroke-miterlimit="10"/></g><g clip-path="url(#d)"><path d="M115.86 264V9" fill="none" stroke-width=".625" stroke-linecap="round" stroke="#bfbfbf" stroke-dasharray="12.5,18.75" stroke-miterlimit="10"/></g><g clip-path="url(#e)"><path d="M183.5 264V9" fill="none" stroke-width=".625" stroke-linecap="round" stroke="#bfbfbf" stroke-dasharray="12.5,18.75" stroke-miterlimit="10"/></g><g clip-path="url(#f)"><path d="M251.14 264V9" fill="none" stroke-width=".625" stroke-linecap="round" stroke="#bfbfbf" stroke-dasharray="12.5,18.75" stroke-miterlimit="10"/></g><g clip-path="url(#g)"><path d="M318.781 264V9" fill="none" stroke-width=".625" stroke-linecap="round" stroke="#bfbfbf" stroke-dasharray="12.5,18.75" stroke-miterlimit="10"/></g><g clip-path="url(#h)"><path d="M13.5 247.64h340" fill="none" stroke-width=".625" stroke-linecap="round" stroke="#bfbfbf" stroke-dasharray="12.5,18.75" stroke-miterlimit="10"/></g><g clip-path="url(#i)"><path d="M13.5 210.594h340" fill="none" stroke-width=".625" stroke-linecap="round" stroke="#bfbfbf" stroke-dasharray="12.5,18.75" stroke-miterlimit="10"/></g><g clip-path="url(#j)"><path d="M13.5 173.547h340" fill="none" stroke-width=".625" stroke-linecap="round" stroke="#bfbfbf" stroke-dasharray="12.5,18.75" stroke-miterlimit="10"/></g><g clip-path="url(#k)"><path d="M13.5 136.5h340" fill="none" stroke-width=".625" stroke-linecap="round" stroke="#bfbfbf" stroke-dasharray="12.5,18.75" stroke-miterlimit="10"/></g><g clip-path="url(#l)"><path d="M13.5 99.453h340" fill="none" stroke-width=".625" stroke-linecap="round" stroke="#bfbfbf" stroke-dasharray="12.5,18.75" stroke-miterlimit="10"/></g><g clip-path="url(#m)"><path d="M13.5 62.406h340" fill="none" stroke-width=".625" stroke-linecap="round" stroke="#bfbfbf" stroke-dasharray="12.5,18.75" stroke-miterlimit="10"/></g><g clip-path="url(#n)"><path d="M13.5 25.36h340" fill="none" stroke-width=".625" stroke-linecap="round" stroke="#bfbfbf" stroke-dasharray="12.5,18.75" stroke-miterlimit="10"/></g><path d="M13.5 264h340" fill="none" stroke-width="1.25" stroke-linecap="square" stroke="#000" stroke-miterlimit="10"/><path d="M14.398 264v-2.5m6.762 2.5v-2.5m6.766 2.5v-2.5m6.765 2.5v-2.5m6.762 2.5v-2.5m6.766 2.5v-5m6.761 5v-2.5m6.766 2.5v-2.5m6.766 2.5v-2.5m6.761 2.5v-2.5m6.766 2.5v-2.5m6.762 2.5v-2.5m6.765 2.5v-2.5m6.766 2.5v-2.5m6.762 2.5v-2.5m6.765 2.5v-5m6.762 5v-2.5m6.766 2.5v-2.5m6.765 2.5v-2.5m6.762 2.5v-2.5m6.766 2.5v-2.5m6.761 2.5v-2.5m6.766 2.5v-2.5m6.766 2.5v-2.5m6.761 2.5v-2.5m6.766 2.5v-5m6.766 5v-2.5m6.761 2.5v-2.5m6.766 2.5v-2.5m6.762 2.5v-2.5m6.765 2.5v-2.5m6.766 2.5v-2.5m6.762 2.5v-2.5m6.765 2.5v-2.5m6.766 2.5v-2.5m6.762 2.5v-5m6.765 5v-2.5m6.762 2.5v-2.5m6.766 2.5v-2.5m6.761 2.5v-2.5m6.766 2.5v-2.5m6.766 2.5v-2.5m6.761 2.5v-2.5m6.766 2.5v-2.5m6.762 2.5v-2.5m6.765 2.5v-5m6.766 5v-2.5m6.762 2.5v-2.5m6.765 2.5v-2.5m6.766 2.5v-2.5m6.762 2.5v-2.5" fill="none" stroke-width=".625" stroke="#000" stroke-miterlimit="10"/><g clip-path="url(#o)"><use xlink:href="#p" x="41.414" y="273.999"/><use xlink:href="#q" x="43.912" y="273.999"/><use xlink:href="#r" x="48.082" y="273.999"/><use xlink:href="#s" x="50.167" y="273.999"/></g><g clip-path="url(#t)"><use xlink:href="#p" x="108.915" y="273.999"/><use xlink:href="#u" x="111.412" y="273.999"/><use xlink:href="#r" x="115.582" y="273.999"/><use xlink:href="#q" x="117.667" y="273.999"/></g><g clip-path="url(#v)"><use xlink:href="#s" x="178.288" y="273.999"/><use xlink:href="#r" x="182.458" y="273.999"/><use xlink:href="#s" x="184.543" y="273.999"/></g><g clip-path="url(#w)"><use xlink:href="#u" x="245.788" y="273.999"/><use xlink:href="#r" x="249.958" y="273.999"/><use xlink:href="#q" x="252.043" y="273.999"/></g><g clip-path="url(#x)"><use xlink:href="#q" x="313.288" y="273.999"/><use xlink:href="#r" x="317.458" y="273.999"/><use xlink:href="#s" x="319.543" y="273.999"/></g><path d="M13.5 9h340" fill="none" stroke-width="1.25" stroke-linecap="square" stroke="#000" stroke-miterlimit="10"/><path d="M14.398 9v2.5M21.16 9v2.5M27.926 9v2.5M34.69 9v2.5M41.453 9v2.5M48.22 9v5m6.761-5v2.5M61.746 9v2.5M68.512 9v2.5M75.273 9v2.5M82.04 9v2.5M88.801 9v2.5M95.566 9v2.5m6.766-2.5v2.5m6.762-2.5v2.5m6.765-2.5v5m6.762-5v2.5m6.766-2.5v2.5m6.765-2.5v2.5m6.762-2.5v2.5M149.68 9v2.5m6.76-2.5v2.5m6.766-2.5v2.5m6.766-2.5v2.5m6.761-2.5v2.5M183.5 9v5m6.766-5v2.5m6.761-2.5v2.5m6.766-2.5v2.5m6.762-2.5v2.5M217.32 9v2.5m6.766-2.5v2.5m6.762-2.5v2.5m6.765-2.5v2.5M244.38 9v2.5m6.76-2.5v5m6.765-5v2.5m6.762-2.5v2.5m6.766-2.5v2.5m6.761-2.5v2.5M284.96 9v2.5m6.766-2.5v2.5m6.761-2.5v2.5m6.766-2.5v2.5m6.762-2.5v2.5M318.78 9v5m6.766-5v2.5m6.762-2.5v2.5m6.765-2.5v2.5M345.84 9v2.5m6.762-2.5v2.5" fill="none" stroke-width=".625" stroke="#000" stroke-miterlimit="10"/><g clip-path="url(#y)"><use xlink:href="#p" x="41.414" y="5.874"/><use xlink:href="#q" x="43.912" y="5.874"/><use xlink:href="#r" x="48.082" y="5.874"/><use xlink:href="#s" x="50.167" y="5.874"/></g><g clip-path="url(#z)"><use xlink:href="#p" x="108.915" y="5.874"/><use xlink:href="#u" x="111.412" y="5.874"/><use xlink:href="#r" x="115.582" y="5.874"/><use xlink:href="#q" x="117.667" y="5.874"/></g><g clip-path="url(#A)"><use xlink:href="#s" x="178.288" y="5.874"/><use xlink:href="#r" x="182.458" y="5.874"/><use xlink:href="#s" x="184.543" y="5.874"/></g><g clip-path="url(#B)"><use xlink:href="#u" x="245.788" y="5.874"/><use xlink:href="#r" x="249.958" y="5.874"/><use xlink:href="#q" x="252.043" y="5.874"/></g><g clip-path="url(#C)"><use xlink:href="#q" x="313.288" y="5.874"/><use xlink:href="#r" x="317.458" y="5.874"/><use xlink:href="#s" x="319.543" y="5.874"/></g><path d="M13.5 264V9" fill="none" stroke-width="1.25" stroke-linecap="square" stroke="#000" stroke-miterlimit="10"/><path d="M13.5 262.457H16m-2.5-3.703H16m-2.5-3.707H16m-2.5-3.703H16m-2.5-3.703h5m-5-3.707H16m-2.5-3.704H16m-2.5-3.707H16m-2.5-3.703H16m-2.5-3.703H16m-2.5-3.707H16m-2.5-3.703H16M13.5 218H16m-2.5-3.703H16m-2.5-3.703h5m-5-3.707H16m-2.5-3.703H16m-2.5-3.707H16m-2.5-3.704H16m-2.5-3.703H16m-2.5-3.707H16m-2.5-3.703H16m-2.5-3.703H16m-2.5-3.707H16m-2.5-3.703h5m-5-3.707H16m-2.5-3.703H16m-2.5-3.707H16m-2.5-3.703H16m-2.5-3.704H16m-2.5-3.707H16m-2.5-3.703H16m-2.5-3.707H16m-2.5-3.703H16m-2.5-3.703h5m-5-3.707H16m-2.5-3.703H16m-2.5-3.703H16m-2.5-3.707H16m-2.5-3.703H16m-2.5-3.707H16m-2.5-3.704H16m-2.5-3.707H16m-2.5-3.703H16m-2.5-3.703h5m-5-3.707H16m-2.5-3.703H16m-2.5-3.703H16m-2.5-3.707H16m-2.5-3.703H16m-2.5-3.707H16m-2.5-3.703H16m-2.5-3.707H16m-2.5-3.704H16m-2.5-3.703h5m-5-3.707H16m-2.5-3.703H16m-2.5-3.707H16m-2.5-3.703H16m-2.5-3.703H16m-2.5-3.707H16m-2.5-3.703H16m-2.5-3.703H16m-2.5-3.707H16m-2.5-3.704h5m-5-3.707H16m-2.5-3.703H16m-2.5-3.707H16m-2.5-3.703H16" fill="none" stroke-width=".625" stroke="#000" stroke-miterlimit="10"/><g clip-path="url(#D)"><use xlink:href="#p" x="-.042" y="250.874"/><use xlink:href="#E" x="2.456" y="250.874"/></g><g clip-path="url(#F)"><use xlink:href="#p" x="-.042" y="213.999"/><use xlink:href="#u" x="2.456" y="213.999"/></g><g clip-path="url(#G)"><use xlink:href="#p" x="-.042" y="177.124"/><use xlink:href="#H" x="2.456" y="177.124"/></g><use xlink:href="#s" x="2.455" y="139.624"/><use xlink:href="#H" x="2.455" y="102.749"/><use xlink:href="#u" x="2.455" y="65.874"/><use xlink:href="#E" x="2.455" y="28.999"/><path d="M353.5 264V9" fill="none" stroke-width="1.25" stroke-linecap="square" stroke="#000" stroke-miterlimit="10"/><path d="M353.5 262.457H351m2.5-3.703H351m2.5-3.707H351m2.5-3.703H351m2.5-3.703h-5m5-3.707H351m2.5-3.704H351m2.5-3.707H351m2.5-3.703H351m2.5-3.703H351m2.5-3.707H351m2.5-3.703H351m2.5-3.707H351m2.5-3.703H351m2.5-3.703h-5m5-3.707H351m2.5-3.703H351m2.5-3.707H351m2.5-3.704H351m2.5-3.703H351m2.5-3.707H351m2.5-3.703H351m2.5-3.703H351m2.5-3.707H351m2.5-3.703h-5m5-3.707H351m2.5-3.703H351m2.5-3.707H351m2.5-3.703H351m2.5-3.704H351m2.5-3.707H351m2.5-3.703H351m2.5-3.707H351m2.5-3.703H351m2.5-3.703h-5m5-3.707H351m2.5-3.703H351m2.5-3.703H351m2.5-3.707H351m2.5-3.703H351m2.5-3.707H351m2.5-3.704H351m2.5-3.707H351m2.5-3.703H351m2.5-3.703h-5m5-3.707H351m2.5-3.703H351m2.5-3.703H351m2.5-3.707H351m2.5-3.703H351m2.5-3.707H351m2.5-3.703H351m2.5-3.707H351m2.5-3.704H351m2.5-3.703h-5m5-3.707H351m2.5-3.703H351m2.5-3.707H351m2.5-3.703H351m2.5-3.703H351m2.5-3.707H351m2.5-3.703H351m2.5-3.703H351m2.5-3.707H351m2.5-3.704h-5m5-3.707H351m2.5-3.703H351m2.5-3.707H351m2.5-3.703H351" fill="none" stroke-width=".625" stroke="#000" stroke-miterlimit="10"/><g clip-path="url(#I)"><use xlink:href="#p" x="359.75" y="250.874"/><use xlink:href="#E" x="362.248" y="250.874"/></g><g clip-path="url(#J)"><use xlink:href="#p" x="359.75" y="213.999"/><use xlink:href="#u" x="362.248" y="213.999"/></g><use xlink:href="#p" x="359.75" y="177.124"/><use xlink:href="#H" x="362.248" y="177.124"/><use xlink:href="#s" x="359.75" y="139.624"/><use xlink:href="#H" x="359.75" y="102.749"/><use xlink:href="#u" x="359.75" y="65.874"/><use xlink:href="#E" x="359.75" y="28.999"/><g clip-path="url(#K)"><path d="M13.5 136.5l.625-1.71.625-1.708.625-1.691.625-1.68.625-1.656.625-1.63.625-1.597.625-1.562.625-1.52.625-1.476.625-1.426.625-1.371.625-1.317.625-1.254.625-1.191.625-1.129.625-1.059.625-.992.625-.922.625-.851.625-.778.625-.71.625-.637.625-.57.625-.5.625-.434.625-.371.625-.309.625-.25.625-.195.625-.145.625-.097.625-.055.625-.016.625.012.625.043.625.067.625.082.625.09.625.097.625.094.625.086.625.074.625.05.625.028.625-.008.625-.043.625-.09.625-.136.625-.192.625-.254.625-.316.625-.387.625-.46.625-.536.625-.617.625-.7.625-.788.625-.875.625-.965.625-1.055.625-1.144.625-1.239.625-1.324.625-1.418.625-1.504.625-1.59.625-1.671.625-1.75.625-1.825.625-1.894.625-1.965.625-2.02.625-2.078.625-2.125.625-2.164.625-2.195.625-2.227.625-2.238.625-2.25.625-2.254.625-2.238.625-2.223.625-2.195.625-2.16.625-2.11.625-2.054.625-1.989.625-1.914.625-1.824.625-1.726.625-1.621.625-1.508.625-1.383.625-1.25.625-1.106.625-.957.625-.796.625-.633.625-.461.625-.278.625-.093.625.093.625.293.625.493.625.695.625.902.625 1.11.625 1.324.625 1.531.625 1.742.625 1.957.625 2.164.625 2.371.625 2.579.625 2.78.625 2.973.625 3.172.625 3.356.625 3.531.625 3.711.625 3.875.625 4.035L91 78.47l.625 4.32.625 4.453.625 4.574.625 4.684.625 4.781.625 4.867.625 4.942.625 5.008.625 5.054.625 5.094.625 5.121 1.25 10.266.625 5.117.625 5.094.625 5.058.625 5.004.625 4.942.625 4.87.625 4.782.625 4.68.625 4.574.625 4.453.625 4.324.625 4.184.625 4.031.625 3.875.625 3.711.625 3.535.625 3.356.625 3.168.625 2.976.625 2.778.625 2.578.625 2.37.625 2.165.625 1.957.625 1.742.625 1.535.625 1.32.625 1.11.625.902.625.696.625.492.625.293.625.097.625-.093.625-.282.625-.46.625-.63.625-.8.625-.957.625-1.106.625-1.25.625-1.383.625-1.503.625-1.625.625-1.727.625-1.824.625-1.91.625-1.989.625-2.054.625-2.114.625-2.156.625-2.195.625-2.223.625-2.242 1.25-4.5.625-2.242.625-2.223.625-2.2.625-2.163.625-2.125.625-2.074.625-2.024.625-1.96.625-1.895.625-1.828.625-1.75.625-1.672.625-1.59.625-1.504.625-1.414.625-1.328.625-1.239.625-1.144.625-1.055.625-.965.625-.875.625-.785.625-.703.625-.617.625-.535.625-.461.625-.387.625-.316.625-.25.625-.196.625-.136.625-.086.625-.047.625-.004.625.023.625.055.625.07.625.086.625.094.625.098.625.093.625.079.625.066.625.043.625.016.625-.02.625-.055.625-.097.625-.145.625-.195.625-.25.625-.309.625-.37.625-.434.625-.5.625-.57.625-.637.625-.707.625-.782.625-.851.625-.922.625-.988.625-1.063.625-1.125.625-1.195.625-1.254.625-1.317.625-1.37.625-1.426.625-1.473.625-1.52.625-1.562.625-1.598.625-1.633.625-1.656.625-1.676.625-1.695.625-1.703 1.25-3.422.625-1.707.625-1.691.625-1.68.625-1.656.625-1.63.625-1.597.625-1.562.625-1.52.625-1.476.625-1.426.625-1.371.625-1.317.625-1.254.625-1.191.625-1.129.625-1.059.625-.992.625-.922.625-.851.625-.778.625-.71.625-.637.625-.57.625-.5.625-.434.625-.371.625-.309.625-.25.625-.195.625-.145.625-.097.625-.055.625-.016.625.012.625.043.625.067.625.082.625.09.625.097.625.094.625.086.625.074.625.05.625.028.625-.008.625-.043.625-.09.625-.136.625-.192.625-.254.625-.316.625-.387.625-.46.625-.536.625-.617.625-.7.625-.788.625-.875.625-.965.625-1.055.625-1.144.625-1.239.625-1.324.625-1.418.625-1.504.625-1.59.625-1.671.625-1.75.625-1.825.625-1.894.625-1.965.625-2.02.625-2.078.625-2.125.625-2.164.625-2.195.625-2.227.625-2.238.625-2.25.625-2.254.625-2.238.625-2.223.625-2.195.625-2.16.625-2.11.625-2.054.625-1.989.625-1.914.625-1.824.625-1.726.625-1.621.625-1.508.625-1.383.625-1.25.625-1.106.625-.957.625-.796.625-.633.625-.461.625-.278.625-.093.625.093.625.293.625.493.625.695.625.902.625 1.11.625 1.324.625 1.531.625 1.742.625 1.957.625 2.164.625 2.371.625 2.579.625 2.78.625 2.973.625 3.172.625 3.356.625 3.531.625 3.711.625 3.875.625 4.035.625 4.184.625 4.32.625 4.453.625 4.574.625 4.684.625 4.781.625 4.867.625 4.942.625 5.008.625 5.054.625 5.094.625 5.121 1.25 10.266.625 5.117.625 5.094.625 5.058.625 5.004.625 4.942.625 4.87.625 4.782.625 4.68.625 4.574.625 4.453.625 4.324.625 4.184.625 4.031.625 3.875.625 3.711.625 3.535.625 3.356.625 3.168.625 2.976.625 2.778.625 2.578.625 2.37.625 2.165.625 1.957.625 1.742.625 1.535.625 1.32.625 1.11.625.902.625.696.625.492.625.293.625.097.625-.093.625-.282.625-.46.625-.63.625-.8.625-.957.625-1.106.625-1.25.625-1.383.625-1.503.625-1.625.625-1.727.625-1.824.625-1.91.625-1.989.625-2.054.625-2.114.625-2.156.625-2.195.625-2.223.625-2.242 1.25-4.5.625-2.242.625-2.223.625-2.2.625-2.163.625-2.125.625-2.074.625-2.024.625-1.96.625-1.895.625-1.828.625-1.75.625-1.672.625-1.59.625-1.504.625-1.414.625-1.328.625-1.239.625-1.144.625-1.055.625-.965.625-.875.625-.785.625-.703.625-.617.625-.535.625-.461.625-.387.625-.316.625-.25.625-.196.625-.136.625-.086.625-.047.625-.004.625.023.625.055.625.07.625.086.625.094.625.098.625.093.625.079.625.066.625.043.625.016.625-.02.625-.055.625-.097.625-.145.625-.195.625-.25.625-.309.625-.37.625-.434.625-.5.625-.57.625-.637.625-.707.625-.782.625-.851.625-.922.625-.988.625-1.063.625-1.125.625-1.195.625-1.254.625-1.317.625-1.37.625-1.426.625-1.473.625-1.52.625-1.562.625-1.598.625-1.633.625-1.656.625-1.676.625-1.695.625-1.703.625-1.711" fill="none" stroke-width="1.25" stroke-linecap="round" stroke="#00008b" stroke-miterlimit="10"/></g><g clip-path="url(#L)"><path d="M13.5 136.5l85-116.387" fill="none" stroke-width="1.25" stroke-linecap="round" stroke="#006400" stroke-miterlimit="10"/></g><g clip-path="url(#M)"><path d="M98.5 252.887l170-232.774" fill="none" stroke-width="1.25" stroke-linecap="round" stroke="#006400" stroke-miterlimit="10"/></g><g clip-path="url(#N)"><path d="M268.5 252.887l85-116.387" fill="none" stroke-width="1.25" stroke-linecap="round" stroke="#006400" stroke-miterlimit="10"/></g><g clip-path="url(#O)"><path d="M569.426 264V9" fill="none" stroke-width=".625" stroke-linecap="round" stroke="#bfbfbf" stroke-miterlimit="10"/></g><g clip-path="url(#P)"><path d="M399.426 136.5h340" fill="none" stroke-width=".625" stroke-linecap="round" stroke="#bfbfbf" stroke-miterlimit="10"/></g><g clip-path="url(#Q)"><path d="M434.14 264V9" fill="none" stroke-width=".625" stroke-linecap="round" stroke="#bfbfbf" stroke-dasharray="12.5,18.75" stroke-miterlimit="10"/></g><g clip-path="url(#R)"><path d="M501.781 264V9" fill="none" stroke-width=".625" stroke-linecap="round" stroke="#bfbfbf" stroke-dasharray="12.5,18.75" stroke-miterlimit="10"/></g><g clip-path="url(#S)"><path d="M569.426 264V9" fill="none" stroke-width=".625" stroke-linecap="round" stroke="#bfbfbf" stroke-dasharray="12.5,18.75" stroke-miterlimit="10"/></g><g clip-path="url(#T)"><path d="M637.066 264V9" fill="none" stroke-width=".625" stroke-linecap="round" stroke="#bfbfbf" stroke-dasharray="12.5,18.75" stroke-miterlimit="10"/></g><g clip-path="url(#U)"><path d="M704.707 264V9" fill="none" stroke-width=".625" stroke-linecap="round" stroke="#bfbfbf" stroke-dasharray="12.5,18.75" stroke-miterlimit="10"/></g><g clip-path="url(#V)"><path d="M399.426 247.64h340" fill="none" stroke-width=".625" stroke-linecap="round" stroke="#bfbfbf" stroke-dasharray="12.5,18.75" stroke-miterlimit="10"/></g><g clip-path="url(#W)"><path d="M399.426 210.594h340" fill="none" stroke-width=".625" stroke-linecap="round" stroke="#bfbfbf" stroke-dasharray="12.5,18.75" stroke-miterlimit="10"/></g><g clip-path="url(#X)"><path d="M399.426 173.547h340" fill="none" stroke-width=".625" stroke-linecap="round" stroke="#bfbfbf" stroke-dasharray="12.5,18.75" stroke-miterlimit="10"/></g><g clip-path="url(#Y)"><path d="M399.426 136.5h340" fill="none" stroke-width=".625" stroke-linecap="round" stroke="#bfbfbf" stroke-dasharray="12.5,18.75" stroke-miterlimit="10"/></g><g clip-path="url(#Z)"><path d="M399.426 99.453h340" fill="none" stroke-width=".625" stroke-linecap="round" stroke="#bfbfbf" stroke-dasharray="12.5,18.75" stroke-miterlimit="10"/></g><g clip-path="url(#aa)"><path d="M399.426 62.406h340" fill="none" stroke-width=".625" stroke-linecap="round" stroke="#bfbfbf" stroke-dasharray="12.5,18.75" stroke-miterlimit="10"/></g><g clip-path="url(#ab)"><path d="M399.426 25.36h340" fill="none" stroke-width=".625" stroke-linecap="round" stroke="#bfbfbf" stroke-dasharray="12.5,18.75" stroke-miterlimit="10"/></g><path d="M399.426 264h340" fill="none" stroke-width="1.25" stroke-linecap="square" stroke="#000" stroke-miterlimit="10"/><path d="M400.32 264v-2.5m6.766 2.5v-2.5m6.766 2.5v-2.5m6.761 2.5v-2.5m6.766 2.5v-2.5m6.762 2.5v-5m6.765 5v-2.5m6.766 2.5v-2.5m6.762 2.5v-2.5m6.765 2.5v-2.5m6.762 2.5v-2.5m6.766 2.5v-2.5m6.765 2.5v-2.5m6.762 2.5v-2.5m6.766 2.5v-2.5m6.761 2.5v-5m6.766 5v-2.5m6.765 2.5v-2.5m6.762 2.5v-2.5m6.766 2.5v-2.5m6.762 2.5v-2.5m6.765 2.5v-2.5m6.766 2.5v-2.5m6.762 2.5v-2.5m6.765 2.5v-2.5m6.766 2.5v-5m6.762 5v-2.5m6.765 2.5v-2.5m6.762 2.5v-2.5m6.765 2.5v-2.5m6.762 2.5v-2.5m6.766 2.5v-2.5m6.765 2.5v-2.5m6.762 2.5v-2.5m6.766 2.5v-2.5m6.765 2.5v-5m6.762 5v-2.5m6.766 2.5v-2.5m6.761 2.5v-2.5m6.766 2.5v-2.5m6.766 2.5v-2.5m6.761 2.5v-2.5m6.766 2.5v-2.5m6.766 2.5v-2.5m6.761 2.5v-2.5m6.766 2.5v-5m6.762 5v-2.5m6.765 2.5v-2.5m6.762 2.5v-2.5m6.766 2.5v-2.5m6.765 2.5v-2.5" fill="none" stroke-width=".625" stroke="#000" stroke-miterlimit="10"/><g clip-path="url(#ac)"><use xlink:href="#p" x="427.339" y="273.999"/><use xlink:href="#q" x="429.836" y="273.999"/><use xlink:href="#r" x="434.006" y="273.999"/><use xlink:href="#s" x="436.091" y="273.999"/></g><g clip-path="url(#ad)"><use xlink:href="#p" x="494.839" y="273.999"/><use xlink:href="#u" x="497.336" y="273.999"/><use xlink:href="#r" x="501.506" y="273.999"/><use xlink:href="#q" x="503.591" y="273.999"/></g><g clip-path="url(#ae)"><use xlink:href="#s" x="564.212" y="273.999"/><use xlink:href="#r" x="568.382" y="273.999"/><use xlink:href="#s" x="570.467" y="273.999"/></g><g clip-path="url(#af)"><use xlink:href="#u" x="631.712" y="273.999"/><use xlink:href="#r" x="635.882" y="273.999"/><use xlink:href="#q" x="637.967" y="273.999"/></g><g clip-path="url(#ag)"><use xlink:href="#q" x="699.212" y="273.999"/><use xlink:href="#r" x="703.382" y="273.999"/><use xlink:href="#s" x="705.467" y="273.999"/></g><path d="M399.426 9h340" fill="none" stroke-width="1.25" stroke-linecap="square" stroke="#000" stroke-miterlimit="10"/><path d="M400.32 9v2.5m6.766-2.5v2.5m6.766-2.5v2.5m6.761-2.5v2.5M427.38 9v2.5m6.76-2.5v5m6.765-5v2.5m6.766-2.5v2.5m6.762-2.5v2.5m6.765-2.5v2.5M467.96 9v2.5m6.766-2.5v2.5m6.765-2.5v2.5m6.762-2.5v2.5M495.02 9v2.5m6.76-2.5v5m6.766-5v2.5m6.765-2.5v2.5m6.762-2.5v2.5M528.84 9v2.5m6.762-2.5v2.5m6.765-2.5v2.5m6.766-2.5v2.5m6.762-2.5v2.5M562.66 9v2.5m6.766-2.5v5m6.762-5v2.5m6.765-2.5v2.5m6.762-2.5v2.5M596.48 9v2.5m6.762-2.5v2.5m6.766-2.5v2.5m6.765-2.5v2.5m6.762-2.5v2.5m6.766-2.5v2.5m6.765-2.5v5m6.762-5v2.5m6.766-2.5v2.5m6.761-2.5v2.5m6.766-2.5v2.5m6.766-2.5v2.5m6.761-2.5v2.5m6.766-2.5v2.5M691.18 9v2.5m6.76-2.5v2.5m6.766-2.5v5m6.762-5v2.5m6.765-2.5v2.5m6.762-2.5v2.5m6.766-2.5v2.5m6.765-2.5v2.5" fill="none" stroke-width=".625" stroke="#000" stroke-miterlimit="10"/><g clip-path="url(#ah)"><use xlink:href="#p" x="427.339" y="5.874"/><use xlink:href="#q" x="429.836" y="5.874"/><use xlink:href="#r" x="434.006" y="5.874"/><use xlink:href="#s" x="436.091" y="5.874"/></g><g clip-path="url(#ai)"><use xlink:href="#p" x="494.839" y="5.874"/><use xlink:href="#u" x="497.336" y="5.874"/><use xlink:href="#r" x="501.506" y="5.874"/><use xlink:href="#q" x="503.591" y="5.874"/></g><g clip-path="url(#aj)"><use xlink:href="#s" x="564.212" y="5.874"/><use xlink:href="#r" x="568.382" y="5.874"/><use xlink:href="#s" x="570.467" y="5.874"/></g><g clip-path="url(#ak)"><use xlink:href="#u" x="631.712" y="5.874"/><use xlink:href="#r" x="635.882" y="5.874"/><use xlink:href="#q" x="637.967" y="5.874"/></g><g clip-path="url(#al)"><use xlink:href="#q" x="699.212" y="5.874"/><use xlink:href="#r" x="703.382" y="5.874"/><use xlink:href="#s" x="705.467" y="5.874"/></g><path d="M399.426 264V9" fill="none" stroke-width="1.25" stroke-linecap="square" stroke="#000" stroke-miterlimit="10"/><path d="M399.426 262.457h2.5m-2.5-3.703h2.5m-2.5-3.707h2.5m-2.5-3.703h2.5m-2.5-3.703h5m-5-3.707h2.5m-2.5-3.704h2.5m-2.5-3.707h2.5m-2.5-3.703h2.5m-2.5-3.703h2.5m-2.5-3.707h2.5m-2.5-3.703h2.5m-2.5-3.707h2.5m-2.5-3.703h2.5m-2.5-3.703h5m-5-3.707h2.5m-2.5-3.703h2.5m-2.5-3.707h2.5m-2.5-3.704h2.5m-2.5-3.703h2.5m-2.5-3.707h2.5m-2.5-3.703h2.5m-2.5-3.703h2.5m-2.5-3.707h2.5m-2.5-3.703h5m-5-3.707h2.5m-2.5-3.703h2.5m-2.5-3.707h2.5m-2.5-3.703h2.5m-2.5-3.704h2.5m-2.5-3.707h2.5m-2.5-3.703h2.5m-2.5-3.707h2.5m-2.5-3.703h2.5m-2.5-3.703h5m-5-3.707h2.5m-2.5-3.703h2.5m-2.5-3.703h2.5m-2.5-3.707h2.5m-2.5-3.703h2.5m-2.5-3.707h2.5m-2.5-3.704h2.5m-2.5-3.707h2.5m-2.5-3.703h2.5m-2.5-3.703h5m-5-3.707h2.5m-2.5-3.703h2.5m-2.5-3.703h2.5m-2.5-3.707h2.5m-2.5-3.703h2.5m-2.5-3.707h2.5m-2.5-3.703h2.5m-2.5-3.707h2.5m-2.5-3.704h2.5m-2.5-3.703h5m-5-3.707h2.5m-2.5-3.703h2.5m-2.5-3.707h2.5m-2.5-3.703h2.5m-2.5-3.703h2.5m-2.5-3.707h2.5m-2.5-3.703h2.5m-2.5-3.703h2.5m-2.5-3.707h2.5m-2.5-3.704h5m-5-3.707h2.5m-2.5-3.703h2.5m-2.5-3.707h2.5m-2.5-3.703h2.5" fill="none" stroke-width=".625" stroke="#000" stroke-miterlimit="10"/><g clip-path="url(#am)"><use xlink:href="#p" x="385.882" y="250.874"/><use xlink:href="#E" x="388.38" y="250.874"/></g><g clip-path="url(#an)"><use xlink:href="#p" x="385.882" y="213.999"/><use xlink:href="#u" x="388.38" y="213.999"/></g><g clip-path="url(#ao)"><use xlink:href="#p" x="385.882" y="177.124"/><use xlink:href="#H" x="388.38" y="177.124"/></g><use xlink:href="#s" x="388.379" y="139.624"/><use xlink:href="#H" x="388.379" y="102.749"/><use xlink:href="#u" x="388.379" y="65.874"/><use xlink:href="#E" x="388.379" y="28.999"/><path d="M739.426 264V9" fill="none" stroke-width="1.25" stroke-linecap="square" stroke="#000" stroke-miterlimit="10"/><path d="M739.426 262.457h-2.5m2.5-3.703h-2.5m2.5-3.707h-2.5m2.5-3.703h-2.5m2.5-3.703h-5m5-3.707h-2.5m2.5-3.704h-2.5m2.5-3.707h-2.5m2.5-3.703h-2.5m2.5-3.703h-2.5m2.5-3.707h-2.5m2.5-3.703h-2.5m2.5-3.707h-2.5m2.5-3.703h-2.5m2.5-3.703h-5m5-3.707h-2.5m2.5-3.703h-2.5m2.5-3.707h-2.5m2.5-3.704h-2.5m2.5-3.703h-2.5m2.5-3.707h-2.5m2.5-3.703h-2.5m2.5-3.703h-2.5m2.5-3.707h-2.5m2.5-3.703h-5m5-3.707h-2.5m2.5-3.703h-2.5m2.5-3.707h-2.5m2.5-3.703h-2.5m2.5-3.704h-2.5m2.5-3.707h-2.5m2.5-3.703h-2.5m2.5-3.707h-2.5m2.5-3.703h-2.5m2.5-3.703h-5m5-3.707h-2.5m2.5-3.703h-2.5m2.5-3.703h-2.5m2.5-3.707h-2.5m2.5-3.703h-2.5m2.5-3.707h-2.5m2.5-3.704h-2.5m2.5-3.707h-2.5m2.5-3.703h-2.5m2.5-3.703h-5m5-3.707h-2.5m2.5-3.703h-2.5m2.5-3.703h-2.5m2.5-3.707h-2.5m2.5-3.703h-2.5m2.5-3.707h-2.5m2.5-3.703h-2.5m2.5-3.707h-2.5m2.5-3.704h-2.5m2.5-3.703h-5m5-3.707h-2.5m2.5-3.703h-2.5m2.5-3.707h-2.5m2.5-3.703h-2.5m2.5-3.703h-2.5m2.5-3.707h-2.5m2.5-3.703h-2.5m2.5-3.703h-2.5m2.5-3.707h-2.5m2.5-3.704h-5m5-3.707h-2.5m2.5-3.703h-2.5m2.5-3.707h-2.5m2.5-3.703h-2.5" fill="none" stroke-width=".625" stroke="#000" stroke-miterlimit="10"/><use xlink:href="#p" x="745.674" y="250.874"/><use xlink:href="#E" x="748.172" y="250.874"/><g clip-path="url(#ap)"><use xlink:href="#p" x="745.674" y="213.999"/><use xlink:href="#u" x="748.172" y="213.999"/></g><use xlink:href="#p" x="745.674" y="177.124"/><use xlink:href="#H" x="748.172" y="177.124"/><use xlink:href="#s" x="745.674" y="139.624"/><use xlink:href="#H" x="745.674" y="102.749"/><use xlink:href="#u" x="745.674" y="65.874"/><use xlink:href="#E" x="745.674" y="28.999"/><g clip-path="url(#aq)"><path d="M399.426 136.5l.625-.031.625-.215.625-.535.625-.93.625-1.305.625-1.586.625-1.707.625-1.636.625-1.395.625-1.039.625-.633.625-.285.625-.055.625-.003.625-.137.625-.434.625-.82.625-1.219.625-1.539.625-1.71.625-1.692.625-1.492.625-1.149.625-.738.625-.356.625-.074.625.035.625-.054.625-.32.625-.708.625-1.129.625-1.492.625-1.722.625-1.758.625-1.602.625-1.27.625-.85.625-.427.625-.09.625.079.625.043.625-.192.625-.574.625-1.031.625-1.446.625-1.742.625-1.84.625-1.726.625-1.418.625-.977.625-.504.625-.105.625.14.625.16.625-.035.625-.425.625-.91.625-1.399.625-1.77.625-1.945.625-1.886.625-1.594.625-1.133.625-.602.625-.113.625.219.625.32.625.16.625-.226.625-.766.625-1.336.625-1.812.625-2.09.625-2.102.625-1.828.625-1.34.625-.722.625-.121.625.332.625.539.625.437.625.043.625-.562.625-1.254.625-1.883.625-2.3.625-2.411.625-2.18.625-1.636.625-.903.625-.125.625.516.625.875.625.863.625.469.625-.25.625-1.137.625-2 .625-2.648.625-2.926.625-2.754.625-2.14.625-1.204.625-.129.625.84.625 1.489.625 1.644.625 1.246.625.336.625-.906.625-2.238.625-3.356.625-3.988.625-3.965.625-3.223.625-1.855.625-.13.625 1.614.625 2.985.625 3.617.625 3.285.625 1.934.625-.274.625-2.969.625-5.629.625-7.64.625-8.422.625-7.523.625-4.723.625-.067.625 6.079.625 13.101.625 20.207.625 26.528.625 31.261.625 33.801.625 33.797.625 31.262.625 26.527.625 20.207.625 13.102.625 6.082.625-.07.625-4.72.625-7.523.625-8.422.625-7.64.625-5.63.625-2.972.625-.273.625 1.933.625 3.29.625 3.616.625 2.98.625 1.618.625-.129.625-1.86.625-3.218.625-3.965.625-3.992.625-3.355.625-2.235.625-.91.625.34.625 1.242.625 1.645.625 1.488.625.844.625-.133.625-1.203.625-2.141.625-2.754.625-2.926.625-2.648.625-2 .625-1.133.625-.25.625.465.625.863.625.88.625.515.625-.13.625-.901.625-1.637.625-2.176.625-2.414.625-2.3.625-1.884.625-1.254.625-.562.625.043.625.437.625.54.625.335.625-.12.625-.727.625-1.336.625-1.832.625-2.102.625-2.09.625-1.812.625-1.336.625-.766.625-.226.625.16.625.32.625.219.625-.113.625-.602.625-1.133.625-1.593.625-1.887.625-1.945.625-1.77.625-1.398.625-.91.625-.422.625-.04.625.165.625.136.625-.101.625-.504.625-.98.625-1.415.625-1.726.625-1.844.625-1.738.625-1.45.625-1.027.625-.578.625-.191.625.043.625.078.625-.09.625-.426.625-.848.625-1.273.625-1.602.625-1.757.625-1.723.625-1.492.625-1.13.625-.706.625-.32.625-.051.625.03.625-.073.625-.352.625-.742.625-1.148.625-1.493.625-1.691.625-1.711.625-1.54.625-1.218.625-.82.625-.434.625-.136.625-.004.625-.055.625-.281.625-.637.625-1.035.625-1.399.625-1.636.625-1.703.625-1.586.625-1.309.625-.93.625-.535.625-.21 1.25-.063.625-.215.625-.535.625-.93.625-1.305.625-1.586.625-1.707.625-1.636.625-1.395.625-1.039.625-.633.625-.285.625-.055.625-.003.625-.137.625-.434.625-.82.625-1.219.625-1.539.625-1.71.625-1.692.625-1.492.625-1.149.625-.738.625-.356.625-.074.625.035.625-.054.625-.32.625-.708.625-1.129.625-1.492.625-1.722.625-1.758.625-1.602.625-1.27.625-.85.625-.427.625-.09.625.079.625.043.625-.192.625-.574.625-1.031.625-1.446.625-1.742.625-1.84.625-1.726.625-1.418.625-.977.625-.504.625-.105.625.14.625.16.625-.035.625-.425.625-.91.625-1.399.625-1.77.625-1.945.625-1.886.625-1.594.625-1.133.625-.602.625-.113.625.219.625.32.625.16.625-.226.625-.766.625-1.336.625-1.812.625-2.09.625-2.102.625-1.828.625-1.34.625-.722.625-.121.625.332.625.539.625.437.625.043.625-.562.625-1.254.625-1.883.625-2.3.625-2.411.625-2.18.625-1.636.625-.903.625-.125.625.516.625.875.625.863.625.469.625-.25.625-1.137.625-2 .625-2.648.625-2.926.625-2.754.625-2.14.625-1.204.625-.129.625.84.625 1.489.625 1.644.625 1.246.625.336.625-.906.625-2.238.625-3.356.625-3.988.625-3.965.625-3.223.625-1.855.625-.13.625 1.614.625 2.985.625 3.617.625 3.285.625 1.934.625-.274.625-2.969.625-5.629.625-7.64.625-8.422.625-7.523.625-4.723.625-.067.625 6.079.625 13.101.625 20.207.625 26.528.625 31.261.625 33.801.625 33.797.625 31.262.625 26.527.625 20.207.625 13.102.625 6.082.625-.07.625-4.72.625-7.523.625-8.422.625-7.64.625-5.63.625-2.972.625-.273.625 1.933.625 3.29.625 3.616.625 2.98.625 1.618.625-.129.625-1.86.625-3.218.625-3.965.625-3.992.625-3.355.625-2.235.625-.91.625.34.625 1.242.625 1.645.625 1.488.625.844.625-.133.625-1.203.625-2.141.625-2.754.625-2.926.625-2.648.625-2 .625-1.133.625-.25.625.465.625.863.625.88.625.515.625-.13.625-.901.625-1.637.625-2.176.625-2.414.625-2.3.625-1.884.625-1.254.625-.562.625.043.625.437.625.54.625.335.625-.12.625-.727.625-1.336.625-1.832.625-2.102.625-2.09.625-1.812.625-1.336.625-.766.625-.226.625.16.625.32.625.219.625-.113.625-.602.625-1.133.625-1.593.625-1.887.625-1.945.625-1.77.625-1.398.625-.91.625-.422.625-.04.625.165.625.136.625-.101.625-.504.625-.98.625-1.415.625-1.726.625-1.844.625-1.738.625-1.45.625-1.027.625-.578.625-.191.625.043.625.078.625-.09.625-.426.625-.848.625-1.273.625-1.602.625-1.757.625-1.723.625-1.492.625-1.13.625-.706.625-.32.625-.051.625.03.625-.073.625-.352.625-.742.625-1.148.625-1.493.625-1.691.625-1.711.625-1.54.625-1.218.625-.82.625-.434.625-.136.625-.004.625-.055.625-.281.625-.637.625-1.035.625-1.399.625-1.636.625-1.703.625-1.586.625-1.309.625-.93.625-.535.625-.21.625-.032" fill="none" stroke-width="1.25" stroke-linecap="round" stroke-linejoin="round" stroke="#00008b" stroke-miterlimit="10"/></g><g clip-path="url(#ar)"><path d="M399.426 136.5l85-116.387" fill="none" stroke-width="1.25" stroke-linecap="round" stroke-linejoin="round" stroke="#006400" stroke-miterlimit="10"/></g><path d="M484.426 252.887l170-232.774" fill="none" stroke-width="1.25" stroke-linecap="round" stroke-linejoin="round" stroke="#006400" stroke-miterlimit="10"/><g clip-path="url(#as)"><path d="M654.426 252.887l85-116.387" fill="none" stroke-width="1.25" stroke-linecap="round" stroke-linejoin="round" stroke="#006400" stroke-miterlimit="10"/></g></svg>