<svg xmlns="http://www.w3.org/2000/svg" xmlns:xlink="http://www.w3.org/1999/xlink" width="361pt" height="274pt" viewBox="0 0 361 274"><defs><clipPath id="g"><path d="M315 8.5h2v255h-2zm0 0"/></clipPath><clipPath id="d"><path d="M113 8.5h1v255h-1zm0 0"/></clipPath><clipPath id="s"><path d="M11 33h86v3H11zm0 0"/></clipPath><clipPath id="k"><path d="M11 43h340v1H11zm0 0"/></clipPath><clipPath id="j"><path d="M11 107h340v2H11zm0 0"/></clipPath><clipPath id="i"><path d="M11 172h340v2H11zm0 0"/></clipPath><clipPath id="h"><path d="M11 237h340v1H11zm0 0"/></clipPath><clipPath id="a"><path d="M180 8.5h2v255h-2zm0 0"/></clipPath><clipPath id="b"><path d="M11 237h340v1H11zm0 0"/></clipPath><clipPath id="c"><path d="M45 8.5h2v255h-2zm0 0"/></clipPath><clipPath id="t"><path d="M265 236h86v3h-86zm0 0"/></clipPath><clipPath id="e"><path d="M180 8.5h2v255h-2zm0 0"/></clipPath><clipPath id="f"><path d="M248 8.5h1v255h-1zm0 0"/></clipPath><symbol overflow="visible" id="m"><path d="M3.563-5.313H.828L.422-2.421h.61c.312-.375.562-.5.984-.5.703 0 1.156.485 1.156 1.281 0 .766-.438 1.235-1.156 1.235-.579 0-.938-.297-1.094-.906H.266c.093.437.156.656.312.843.313.406.844.64 1.453.64 1.063 0 1.813-.78 1.813-1.905 0-1.047-.688-1.766-1.719-1.766-.375 0-.672.094-.984.313l.218-1.485h2.204zm0 0"/></symbol><symbol overflow="visible" id="r"><path d="M1.656-2.438h.36c.734 0 1.109.329 1.109.954 0 .671-.422 1.078-1.11 1.078-.718 0-1.078-.36-1.109-1.14H.234c.032.421.11.702.235.952.281.5.797.766 1.531.766 1.094 0 1.797-.656 1.797-1.656 0-.672-.266-1.047-.906-1.266.5-.203.75-.578.75-1.11 0-.906-.61-1.453-1.625-1.453-1.079 0-1.641.579-1.657 1.72h.657c0-.329.03-.516.109-.673.156-.296.484-.468.906-.468.578 0 .938.343.938.906 0 .375-.14.594-.438.719-.172.078-.406.109-.875.109zm0 0"/></symbol><symbol overflow="visible" id="q"><path d="M1.938-3.781V0h.671v-5.313h-.437c-.235.813-.39.922-1.406 1.047v.485zm0 0"/></symbol><symbol overflow="visible" id="p"><path d="M3.797-.656H1c.063-.438.313-.703.953-1.094l.75-.406c.75-.406 1.125-.953 1.125-1.594 0-.453-.172-.86-.484-1.14-.328-.298-.719-.423-1.219-.423-.672 0-1.172.235-1.469.688-.187.281-.265.61-.281 1.156h.656c.032-.36.078-.578.157-.75.171-.328.515-.515.921-.515.594 0 1.047.421 1.047.984 0 .422-.25.781-.719 1.063l-.687.39C.64-1.672.312-1.172.25 0h3.547zm0 0"/></symbol><symbol overflow="visible" id="o"><path d="M2.063-5.313c-.5 0-.938.22-1.22.579C.5-4.266.329-3.563.329-2.578c0 1.797.594 2.75 1.734 2.75 1.126 0 1.735-.953 1.735-2.703 0-1.031-.156-1.719-.516-2.203-.281-.375-.719-.579-1.219-.579zm0 .579c.718 0 1.062.718 1.062 2.14 0 1.516-.344 2.219-1.078 2.219C1.344-.375 1-1.109 1-2.563c0-1.453.344-2.171 1.063-2.171zm0 0"/></symbol><symbol overflow="visible" id="n"><path d="M1.438-.781H.655V0h.781zm0 0"/></symbol><symbol overflow="visible" id="l"><path d="M2.125-2.344H.344v.547h1.781zm0 0"/></symbol></defs><g clip-path="url(#a)"><path d="M181 263.5V8.5" fill="none" stroke-width=".625" stroke-linecap="round" stroke="#bfbfbf" stroke-miterlimit="10"/></g><g clip-path="url(#b)"><path d="M11 237.621h340" fill="none" stroke-width=".625" stroke-linecap="round" stroke="#bfbfbf" stroke-miterlimit="10"/></g><g clip-path="url(#c)"><path d="M45.719 263.5V8.5" fill="none" stroke-width=".625" stroke-linecap="round" stroke="#bfbfbf" stroke-dasharray="12.5,18.75" stroke-miterlimit="10"/></g><g clip-path="url(#d)"><path d="M113.36 263.5V8.5" fill="none" stroke-width=".625" stroke-linecap="round" stroke="#bfbfbf" stroke-dasharray="12.5,18.75" stroke-miterlimit="10"/></g><g clip-path="url(#e)"><path d="M181 263.5V8.5" fill="none" stroke-width=".625" stroke-linecap="round" stroke="#bfbfbf" stroke-dasharray="12.5,18.75" stroke-miterlimit="10"/></g><g clip-path="url(#f)"><path d="M248.64 263.5V8.5" fill="none" stroke-width=".625" stroke-linecap="round" stroke="#bfbfbf" stroke-dasharray="12.5,18.75" stroke-miterlimit="10"/></g><g clip-path="url(#g)"><path d="M316.281 263.5V8.5" fill="none" stroke-width=".625" stroke-linecap="round" stroke="#bfbfbf" stroke-dasharray="12.5,18.75" stroke-miterlimit="10"/></g><g clip-path="url(#h)"><path d="M11 237.621h340" fill="none" stroke-width=".625" stroke-linecap="round" stroke="#bfbfbf" stroke-dasharray="12.5,18.75" stroke-miterlimit="10"/></g><g clip-path="url(#i)"><path d="M11 172.926h340" fill="none" stroke-width=".625" stroke-linecap="round" stroke="#bfbfbf" stroke-dasharray="12.5,18.75" stroke-miterlimit="10"/></g><g clip-path="url(#j)"><path d="M11 108.234h340" fill="none" stroke-width=".625" stroke-linecap="round" stroke="#bfbfbf" stroke-dasharray="12.5,18.75" stroke-miterlimit="10"/></g><g clip-path="url(#k)"><path d="M11 43.54h340" fill="none" stroke-width=".625" stroke-linecap="round" stroke="#bfbfbf" stroke-dasharray="12.5,18.75" stroke-miterlimit="10"/></g><path d="M11 263.5h340" fill="none" stroke-width="1.25" stroke-linecap="square" stroke="#000" stroke-miterlimit="10"/><path d="M11.898 263.5V261m6.762 2.5V261m6.766 2.5V261m6.765 2.5V261m6.762 2.5V261m6.766 2.5v-5m6.761 5V261m6.766 2.5V261m6.766 2.5V261m6.761 2.5V261m6.766 2.5V261m6.762 2.5V261m6.765 2.5V261m6.766 2.5V261m6.762 2.5V261m6.765 2.5v-5m6.762 5V261m6.766 2.5V261m6.765 2.5V261m6.762 2.5V261m6.766 2.5V261m6.761 2.5V261m6.766 2.5V261m6.766 2.5V261m6.761 2.5V261m6.766 2.5v-5m6.766 5V261m6.761 2.5V261m6.766 2.5V261m6.762 2.5V261m6.765 2.5V261m6.766 2.5V261m6.762 2.5V261m6.765 2.5V261m6.766 2.5V261m6.762 2.5v-5m6.765 5V261m6.762 2.5V261m6.766 2.5V261m6.761 2.5V261m6.766 2.5V261m6.766 2.5V261m6.761 2.5V261m6.766 2.5V261m6.762 2.5V261m6.765 2.5v-5m6.766 5V261m6.762 2.5V261m6.765 2.5V261m6.766 2.5V261m6.762 2.5V261" fill="none" stroke-width=".625" stroke="#000" stroke-miterlimit="10"/><use xlink:href="#l" x="38.914" y="273.5"/><use xlink:href="#m" x="41.412" y="273.5"/><use xlink:href="#n" x="45.582" y="273.5"/><use xlink:href="#o" x="47.667" y="273.5"/><use xlink:href="#l" x="106.415" y="273.5"/><use xlink:href="#p" x="108.912" y="273.5"/><use xlink:href="#n" x="113.082" y="273.5"/><use xlink:href="#m" x="115.167" y="273.5"/><use xlink:href="#o" x="175.788" y="273.5"/><use xlink:href="#n" x="179.958" y="273.5"/><use xlink:href="#o" x="182.043" y="273.5"/><use xlink:href="#p" x="243.288" y="273.5"/><use xlink:href="#n" x="247.458" y="273.5"/><use xlink:href="#m" x="249.543" y="273.5"/><use xlink:href="#m" x="310.788" y="273.5"/><use xlink:href="#n" x="314.958" y="273.5"/><use xlink:href="#o" x="317.043" y="273.5"/><path d="M11 8.5h340" fill="none" stroke-width="1.25" stroke-linecap="square" stroke="#000" stroke-miterlimit="10"/><path d="M11.898 8.5V11m6.762-2.5V11m6.766-2.5V11m6.765-2.5V11m6.762-2.5V11m6.766-2.5v5m6.761-5V11m6.766-2.5V11m6.766-2.5V11m6.761-2.5V11m6.766-2.5V11m6.762-2.5V11m6.765-2.5V11m6.766-2.5V11m6.762-2.5V11m6.765-2.5v5m6.762-5V11m6.766-2.5V11m6.765-2.5V11m6.762-2.5V11m6.766-2.5V11m6.761-2.5V11m6.766-2.5V11m6.766-2.5V11m6.761-2.5V11M181 8.5v5m6.766-5V11m6.761-2.5V11m6.766-2.5V11m6.762-2.5V11m6.765-2.5V11m6.766-2.5V11m6.762-2.5V11m6.765-2.5V11m6.766-2.5V11m6.762-2.5v5m6.765-5V11m6.762-2.5V11m6.766-2.5V11m6.761-2.5V11m6.766-2.5V11m6.766-2.5V11m6.761-2.5V11m6.766-2.5V11m6.762-2.5V11m6.765-2.5v5m6.766-5V11m6.762-2.5V11m6.765-2.5V11m6.766-2.5V11m6.762-2.5V11" fill="none" stroke-width=".625" stroke="#000" stroke-miterlimit="10"/><use xlink:href="#l" x="38.914" y="5.375"/><use xlink:href="#m" x="41.412" y="5.375"/><use xlink:href="#n" x="45.582" y="5.375"/><use xlink:href="#o" x="47.667" y="5.375"/><use xlink:href="#l" x="106.415" y="5.375"/><use xlink:href="#p" x="108.912" y="5.375"/><use xlink:href="#n" x="113.082" y="5.375"/><use xlink:href="#m" x="115.167" y="5.375"/><use xlink:href="#o" x="175.788" y="5.375"/><use xlink:href="#n" x="179.958" y="5.375"/><use xlink:href="#o" x="182.043" y="5.375"/><use xlink:href="#p" x="243.288" y="5.375"/><use xlink:href="#n" x="247.458" y="5.375"/><use xlink:href="#m" x="249.543" y="5.375"/><use xlink:href="#m" x="310.788" y="5.375"/><use xlink:href="#n" x="314.958" y="5.375"/><use xlink:href="#o" x="317.043" y="5.375"/><path d="M11 263.5V8.5" fill="none" stroke-width="1.25" stroke-linecap="square" stroke="#000" stroke-miterlimit="10"/><path d="M11 263.5h2.5m-2.5-6.469h2.5m-2.5-6.469h2.5m-2.5-6.468h2.5M11 237.62h5m-5-6.469h2.5m-2.5-6.468h2.5m-2.5-6.47h2.5m-2.5-6.472h2.5m-2.5-6.469h2.5m-2.5-6.468h2.5m-2.5-6.47h2.5m-2.5-6.468h2.5m-2.5-6.469h2.5m-2.5-6.472h5m-5-6.469h2.5m-2.5-6.469h2.5M11 153.52h2.5m-2.5-6.47h2.5m-2.5-6.472h2.5M11 134.11h2.5m-2.5-6.468h2.5m-2.5-6.47h2.5m-2.5-6.468h2.5m-2.5-6.469h5m-5-6.472h2.5m-2.5-6.47h2.5M11 88.824h2.5M11 82.355h2.5M11 75.887h2.5M11 69.414h2.5M11 62.945h2.5M11 56.477h2.5m-2.5-6.47h2.5M11 43.54h5m-5-6.473h2.5M11 30.598h2.5m-2.5-6.47h2.5M11 17.66h2.5M11 11.191h2.5" fill="none" stroke-width=".625" stroke="#000" stroke-miterlimit="10"/><use xlink:href="#o" x="-.045" y="241"/><use xlink:href="#q" x="-.045" y="176.625"/><use xlink:href="#p" x="-.045" y="111.625"/><use xlink:href="#r" x="-.045" y="47.25"/><path d="M351 263.5V8.5" fill="none" stroke-width="1.25" stroke-linecap="square" stroke="#000" stroke-miterlimit="10"/><path d="M351 263.5h-2.5m2.5-6.469h-2.5m2.5-6.469h-2.5m2.5-6.468h-2.5m2.5-6.473h-5m5-6.469h-2.5m2.5-6.468h-2.5m2.5-6.47h-2.5m2.5-6.472h-2.5m2.5-6.469h-2.5m2.5-6.468h-2.5m2.5-6.47h-2.5m2.5-6.468h-2.5m2.5-6.469h-2.5m2.5-6.472h-5m5-6.469h-2.5m2.5-6.469h-2.5m2.5-6.468h-2.5m2.5-6.47h-2.5m2.5-6.472h-2.5m2.5-6.469h-2.5m2.5-6.468h-2.5m2.5-6.47h-2.5m2.5-6.468h-2.5m2.5-6.469h-5m5-6.472h-2.5m2.5-6.469h-2.5m2.5-6.469h-2.5m2.5-6.469h-2.5m2.5-6.468h-2.5m2.5-6.473h-2.5m2.5-6.469h-2.5m2.5-6.468h-2.5m2.5-6.47h-2.5m2.5-6.468h-5m5-6.473h-2.5m2.5-6.468h-2.5m2.5-6.47h-2.5m2.5-6.468h-2.5m2.5-6.469h-2.5" fill="none" stroke-width=".625" stroke="#000" stroke-miterlimit="10"/><use xlink:href="#o" x="357.25" y="241"/><use xlink:href="#q" x="357.25" y="176.625"/><use xlink:href="#p" x="357.25" y="111.625"/><use xlink:href="#r" x="357.25" y="47.25"/><g clip-path="url(#s)"><path d="M11 34.379h85" fill="none" stroke-width="1.25" stroke-linecap="round" stroke="#006400" stroke-miterlimit="10"/></g><path d="M96 237.621h85m0-203.242h85" fill="none" stroke-width="1.25" stroke-linecap="round" stroke="#006400" stroke-miterlimit="10"/><g clip-path="url(#t)"><path d="M266 237.621h85" fill="none" stroke-width="1.25" stroke-linecap="round" stroke="#006400" stroke-miterlimit="10"/></g></svg>