<svg xmlns="http://www.w3.org/2000/svg" xmlns:xlink="http://www.w3.org/1999/xlink" width="388.543" height="111.016" viewBox="0 0 291.407 83.262"><defs><symbol overflow="visible" id="d"><path d="M5.594.031c-.032-.25-.032-.36-.032-.531 0-.156 0-.281.032-.547l-4.14.125L3.64-3.234c1.156-1.22 1.515-1.875 1.515-2.782 0-1.375-.937-2.218-2.453-2.218-.86 0-1.453.234-2.031.828l-.203 1.64h.344l.156-.562c.187-.688.625-.984 1.422-.984 1.03 0 1.687.64 1.687 1.656 0 .906-.5 1.781-1.86 3.218L.189-.28v.31C1.078.016 1.968 0 2.858 0c.907 0 1.829.016 2.735.031zm0 0"/></symbol><symbol overflow="visible" id="g"><path d="M5.563-4.375c0-2.625-.782-3.86-2.422-3.86-1.844 0-2.797 1.47-2.797 4.36 0 1.406.25 2.61.672 3.188.421.593 1.093.921 1.828.921 1.812 0 2.719-1.546 2.719-4.609zm-1.016.594c0 2.547-.453 3.61-1.547 3.61-1.156 0-1.656-1.22-1.656-4.126 0-2.531.453-3.516 1.578-3.516 1.172 0 1.625 1.172 1.625 4.032zm0 0"/></symbol><symbol overflow="visible" id="i"><path d="M5 .031v-.36l-.625-.03c-.656-.032-.781-.172-.781-.782v-7.093l-.156-.063c-.782.406-1.626.766-2.72 1.156l.079.5h.125l1.547-.687.031-.016c.063 0 .094.11.094.407v5.796c0 .61-.125.75-.781.782l-.672.03v.36C1.812.016 2.469 0 3.125 0c.61 0 1.25.016 1.875.031zm0 0"/></symbol><symbol overflow="visible" id="e"><path d="M.25-1.047c0 .234-.016.39-.094.766-.031.156-.031.187-.047.265.172.094.375.141.516.141.39 0 .86-.344 1.234-.906l.907-1.39.125.827C3.047-.328 3.328.125 3.75.125c.266 0 .656-.203 1.031-.547l.578-.516-.093-.234c-.438.36-.735.531-.922.531C4.156-.64 4-.75 3.89-.984a4.761 4.761 0 01-.313-1.032l-.203-1.203.422-.578c.547-.781.875-1.062 1.25-1.062.187 0 .328.109.39.28l.172-.046.172-1.016c-.14-.078-.25-.125-.36-.125-.468 0-.952.438-1.687 1.532l-.453.656-.062-.563c-.14-1.187-.469-1.625-1.172-1.625-.313 0-.578.094-.688.25l-.687 1 .203.11c.36-.407.594-.563.828-.563.39 0 .656.485.86 1.657l.124.75-.468.734C1.703-1.031 1.297-.641.953-.641.781-.64.641-.687.625-.75l-.14-.344zm0 0"/></symbol><symbol overflow="visible" id="f"><path d="M-.078 2.156c-.016.078-.016.156-.016.203 0 .516.438.938.985.938 1.265 0 2.578-1.485 3.28-3.688L5.86-5.656l-.14-.11c-.344.141-.61.204-.875.235l-.422 1.578c-.14.562-.563 1.437-.953 2.015-.422.61-1 1.141-1.266 1.141-.14 0-.25-.281-.25-.578l.016-.156.187-2.313c.016-.375.047-.828.047-1.172 0-.53-.094-.75-.297-.75-.156 0-.312.094-.89.485L.03-4.61l.14.203.595-.344.046-.047c.125-.062.204-.11.25-.11.172 0 .266.235.266.626 0 .015 0 .078-.016.187L1.11-1.187l-.015.468c0 .5.218.844.515.844.454 0 1.454-1.016 2.344-2.36L3.375-.187c-.61 2.11-1.219 2.985-2.047 2.985a.737.737 0 01-.75-.735c0-.062.016-.156.031-.265L.484 1.75zm0 0"/></symbol><symbol overflow="visible" id="h"><path d="M2.188-.64c0-.344-.329-.688-.704-.688-.359 0-.687.344-.687.687 0 .36.312.704.687.704.375 0 .704-.344.704-.704zm0 0"/></symbol><clipPath id="a"><path d="M.5 82.762h291v-83H.5zM23.2.844h.84l1.8 10.199-2.219-8.762-2.223 8.762zm0 0"/></clipPath><clipPath id="b"><path d="M.5 82.762h291v-83H.5zm290.121-28.64v.839l-10.2 1.8 8.759-2.218-8.758-2.223zm0 0"/></clipPath><clipPath id="c"><path d="M274 45h17.406v19H274zm0 0"/></clipPath></defs><path d="M264.34 51.3v6" fill="none" stroke-width=".45" stroke="#000" stroke-miterlimit="10"/><g clip-path="url(#a)" clip-rule="evenodd"><path d="M23.621 1.262v80.82" fill="none" stroke-width=".45" stroke="#000" stroke-miterlimit="10"/></g><path d="M21.398 11.043l2.223-8.762 2.219 8.762" fill="none" stroke-width=".45" stroke="#000" stroke-miterlimit="10"/><g clip-path="url(#b)" clip-rule="evenodd"><path d="M1.238 54.543H290.2" fill="none" stroke-width=".45" stroke="#000" stroke-miterlimit="10"/></g><g clip-path="url(#c)"><path d="M280.422 52.32l8.758 2.223-8.758 2.219" fill="none" stroke-width=".45" stroke="#000" stroke-miterlimit="10"/></g><path d="M23.8 54.543l120.598-33.422 120 33.422" fill="none" stroke-width=".9" stroke="#000" stroke-miterlimit="10"/><path d="M18.398 21.121h126" fill="none" stroke-width=".45" stroke="#000" stroke-dasharray="36" stroke-miterlimit="10"/><use xlink:href="#d" x="256.826" y="67.042"/><use xlink:href="#e" x="282.445" y="67.042"/><use xlink:href="#f" x="14.837" y="13.46"/><use xlink:href="#g" x="13.88" y="67.042"/><use xlink:href="#g" x="4.46" y="31.881"/><use xlink:href="#h" x="10.629" y="31.881"/><use xlink:href="#i" x="13.821" y="31.881"/></svg>