<svg xmlns="http://www.w3.org/2000/svg" width="456" height="344" viewBox="0 0 342 258"><defs><clipPath id="a"><path d="M170 1.5h2v255h-2zm0 0"/></clipPath><clipPath id="b"><path d="M1 128h340v2H1zm0 0"/></clipPath><clipPath id="c"><path d="M1 1.5h1v255H1zm0 0"/></clipPath><clipPath id="d"><path d="M85 1.5h2v255h-2zm0 0"/></clipPath><clipPath id="e"><path d="M170 1.5h2v255h-2zm0 0"/></clipPath><clipPath id="f"><path d="M255 1.5h2v255h-2zm0 0"/></clipPath><clipPath id="g"><path d="M340 1.5h1v255h-1zm0 0"/></clipPath><clipPath id="h"><path d="M1 256h340v.5H1zm0 0"/></clipPath><clipPath id="i"><path d="M1 192h340v2H1zm0 0"/></clipPath><clipPath id="j"><path d="M1 128h340v2H1zm0 0"/></clipPath><clipPath id="k"><path d="M1 64h340v2H1zm0 0"/></clipPath><clipPath id="l"><path d="M1 1.5h340V2H1zm0 0"/></clipPath></defs><path d="M1 256.5h340V1.5H1zm0 0" fill="#fff"/><g clip-path="url(#a)"><path d="M171 256.5V1.5" fill="none" stroke-width=".625" stroke-linecap="round" stroke="#bfbfbf" stroke-miterlimit="10"/></g><g clip-path="url(#b)"><path d="M1 129h340" fill="none" stroke-width=".625" stroke-linecap="round" stroke="#bfbfbf" stroke-miterlimit="10"/></g><g clip-path="url(#c)"><path d="M1 256.5V1.5" fill="none" stroke-width=".625" stroke-linecap="round" stroke="#bfbfbf" stroke-dasharray="12.5,18.75" stroke-miterlimit="10"/></g><g clip-path="url(#d)"><path d="M86 256.5V1.5" fill="none" stroke-width=".625" stroke-linecap="round" stroke="#bfbfbf" stroke-dasharray="12.5,18.75" stroke-miterlimit="10"/></g><g clip-path="url(#e)"><path d="M171 256.5V1.5" fill="none" stroke-width=".625" stroke-linecap="round" stroke="#bfbfbf" stroke-dasharray="12.5,18.75" stroke-miterlimit="10"/></g><g clip-path="url(#f)"><path d="M256 256.5V1.5" fill="none" stroke-width=".625" stroke-linecap="round" stroke="#bfbfbf" stroke-dasharray="12.5,18.75" stroke-miterlimit="10"/></g><g clip-path="url(#g)"><path d="M341 256.5V1.5" fill="none" stroke-width=".625" stroke-linecap="round" stroke="#bfbfbf" stroke-dasharray="12.5,18.75" stroke-miterlimit="10"/></g><g clip-path="url(#h)"><path d="M1 256.5h340" fill="none" stroke-width=".625" stroke-linecap="round" stroke="#bfbfbf" stroke-dasharray="12.5,18.75" stroke-miterlimit="10"/></g><g clip-path="url(#i)"><path d="M1 192.75h340" fill="none" stroke-width=".625" stroke-linecap="round" stroke="#bfbfbf" stroke-dasharray="12.5,18.75" stroke-miterlimit="10"/></g><g clip-path="url(#j)"><path d="M1 129h340" fill="none" stroke-width=".625" stroke-linecap="round" stroke="#bfbfbf" stroke-dasharray="12.5,18.75" stroke-miterlimit="10"/></g><g clip-path="url(#k)"><path d="M1 65.25h340" fill="none" stroke-width=".625" stroke-linecap="round" stroke="#bfbfbf" stroke-dasharray="12.5,18.75" stroke-miterlimit="10"/></g><g clip-path="url(#l)"><path d="M1 1.5h340" fill="none" stroke-width=".625" stroke-linecap="round" stroke="#bfbfbf" stroke-dasharray="12.5,18.75" stroke-miterlimit="10"/></g><path d="M1 256.5h340" fill="none" stroke-width="1.25" stroke-linecap="square" stroke="#000" stroke-miterlimit="10"/><path d="M1 256.5v-5m8.5 5V254m8.5 2.5V254m8.5 2.5V254m8.5 2.5V254m8.5 2.5V254m8.5 2.5V254m8.5 2.5V254m8.5 2.5V254m8.5 2.5V254m8.5 2.5v-5m8.5 5V254m8.5 2.5V254m8.5 2.5V254m8.5 2.5V254m8.5 2.5V254m8.5 2.5V254m8.5 2.5V254m8.5 2.5V254m8.5 2.5V254m8.5 2.5v-5m8.5 5V254m8.5 2.5V254m8.5 2.5V254m8.5 2.5V254m8.5 2.5V254m8.5 2.5V254m8.5 2.5V254m8.5 2.5V254m8.5 2.5V254m8.5 2.5v-5m8.5 5V254m8.5 2.5V254m8.5 2.5V254m8.5 2.5V254m8.5 2.5V254m8.5 2.5V254m8.5 2.5V254m8.5 2.5V254m8.5 2.5V254m8.5 2.5v-5" fill="none" stroke-width=".625" stroke="#000" stroke-miterlimit="10"/><path d="M1 1.5h340" fill="none" stroke-width="1.25" stroke-linecap="square" stroke="#000" stroke-miterlimit="10"/><path d="M1 1.5v5m8.5-5V4M18 1.5V4m8.5-2.5V4M35 1.5V4m8.5-2.5V4M52 1.5V4m8.5-2.5V4M69 1.5V4m8.5-2.5V4M86 1.5v5m8.5-5V4m8.5-2.5V4m8.5-2.5V4m8.5-2.5V4m8.5-2.5V4m8.5-2.5V4m8.5-2.5V4m8.5-2.5V4m8.5-2.5V4m8.5-2.5v5m8.5-5V4m8.5-2.5V4m8.5-2.5V4m8.5-2.5V4m8.5-2.5V4m8.5-2.5V4m8.5-2.5V4m8.5-2.5V4m8.5-2.5V4m8.5-2.5v5m8.5-5V4m8.5-2.5V4m8.5-2.5V4m8.5-2.5V4m8.5-2.5V4m8.5-2.5V4m8.5-2.5V4m8.5-2.5V4m8.5-2.5V4m8.5-2.5v5" fill="none" stroke-width=".625" stroke="#000" stroke-miterlimit="10"/><path d="M1 256.5V1.5" fill="none" stroke-width="1.25" stroke-linecap="square" stroke="#000" stroke-miterlimit="10"/><path d="M1 256.5h5m-5-6.375h2.5M1 243.75h2.5M1 237.375h2.5M1 231h2.5M1 224.625h2.5M1 218.25h2.5M1 211.875h2.5M1 205.5h2.5M1 199.125h2.5M1 192.75h5m-5-6.375h2.5M1 180h2.5M1 173.625h2.5M1 167.25h2.5M1 160.875h2.5M1 154.5h2.5M1 148.125h2.5M1 141.75h2.5M1 135.375h2.5M1 129h5m-5-6.375h2.5M1 116.25h2.5M1 109.875h2.5M1 103.5h2.5M1 97.125h2.5M1 90.75h2.5M1 84.375h2.5M1 78h2.5M1 71.625h2.5M1 65.25h5m-5-6.375h2.5M1 52.5h2.5M1 46.125h2.5M1 39.75h2.5M1 33.375h2.5M1 27h2.5M1 20.625h2.5M1 14.25h2.5M1 7.875h2.5M1 1.5h5" fill="none" stroke-width=".625" stroke="#000" stroke-miterlimit="10"/><path d="M341 256.5V1.5" fill="none" stroke-width="1.25" stroke-linecap="square" stroke="#000" stroke-miterlimit="10"/><path d="M341 256.5h-5m5-6.375h-2.5m2.5-6.375h-2.5m2.5-6.375h-2.5M341 231h-2.5m2.5-6.375h-2.5m2.5-6.375h-2.5m2.5-6.375h-2.5m2.5-6.375h-2.5m2.5-6.375h-2.5m2.5-6.375h-5m5-6.375h-2.5M341 180h-2.5m2.5-6.375h-2.5m2.5-6.375h-2.5m2.5-6.375h-2.5m2.5-6.375h-2.5m2.5-6.375h-2.5m2.5-6.375h-2.5m2.5-6.375h-2.5M341 129h-5m5-6.375h-2.5m2.5-6.375h-2.5m2.5-6.375h-2.5m2.5-6.375h-2.5m2.5-6.375h-2.5m2.5-6.375h-2.5m2.5-6.375h-2.5M341 78h-2.5m2.5-6.375h-2.5m2.5-6.375h-5m5-6.375h-2.5M341 52.5h-2.5m2.5-6.375h-2.5m2.5-6.375h-2.5m2.5-6.375h-2.5M341 27h-2.5m2.5-6.375h-2.5m2.5-6.375h-2.5m2.5-6.375h-2.5M341 1.5h-5" fill="none" stroke-width=".625" stroke="#000" stroke-miterlimit="10"/><path d="M7.254 243.762l18.402 2.293m0 0h0M8.715 216.62l15.48 10.215m0 0h0M8.81 193.296l15.289 10.497m0 0h0M7.336 173.687l18.238 3.352m0 0h0M8.031 156.062l16.844-7.761m0 0h0m-15.84-13.739l14.836-11.125m0 0h0M8.031 109.7l16.844-7.762m0 0h0M7.335 80.961l18.24 3.351m0 0h0M8.808 54.207l15.289 10.496m0 0h0M8.715 31.164l15.48 10.219m0 0h0M7.254 11.945l18.402 2.293m0 0h0M38.16 243.762l18.406 2.293m0 0h0M39.625 216.62l15.477 10.215m0 0h0m-15.383-33.54l15.289 10.497m0 0h0m-16.766-30.106l18.242 3.352m0 0h0m-17.543-20.976l16.844-7.762m0 0h0m-15.84-13.738l14.836-11.125m0 0h0m-15.84-13.739l16.844-7.761m0 0h0M38.242 80.96l18.242 3.352m0 0h0M39.72 54.206l15.289 10.496m0 0h0M39.625 31.164l15.477 10.219m0 0h0M38.16 11.945l18.406 2.293m0 0h0M69.07 243.762l18.403 2.293m0 0h0M70.535 216.62l15.477 10.215m0 0h0m-15.383-33.54l15.289 10.497m0 0h0m-16.766-30.105l18.243 3.351m0 0h0m-17.543-20.976l16.843-7.762m0 0h0m-15.84-13.738l14.836-11.125m0 0h0m-15.84-13.739l16.844-7.761m0 0h0M69.152 80.96l18.243 3.352m0 0h0M70.629 54.207l15.289 10.496m0 0h0M70.535 31.164l15.477 10.219m0 0h0M69.07 11.945l18.403 2.293m0 0h0M99.98 243.762l18.403 2.293m0 0h0M101.44 216.62l15.48 10.215m0 0h0m-15.382-33.54l15.285 10.497m0 0h0m-16.761-30.105l18.238 3.351m0 0h0m-17.54-20.976l16.84-7.762m0 0h0m-15.835-13.738l14.836-11.125m0 0h0m-15.84-13.739l16.84-7.761m0 0h0m-17.54-20.977l18.239 3.352m0 0h0m-16.762-30.106l15.285 10.496m0 0h0M101.44 31.163l15.48 10.219m0 0h0M99.98 11.944l18.402 2.293m0 0h0m12.508 229.524l18.402 2.293m0 0h0m-16.941-29.434l15.476 10.215m0 0h0m-15.383-33.54l15.29 10.497m0 0h0m-16.762-30.105l18.238 3.351m0 0h0m-17.54-20.976l16.84-7.762m0 0h0m-15.84-13.738l14.837-11.125m0 0h0m-15.836-13.739l16.84-7.761m0 0h0m-17.54-20.977l18.239 3.352m0 0h0m-16.766-30.106l15.29 10.496m0 0h0m-15.383-33.539l15.476 10.219m0 0h0M130.89 11.944l18.402 2.293m0 0h0M161.8 243.761l18.398 2.293m0 0h0m-16.937-29.434l15.476 10.215m0 0h0m-15.383-33.54l15.29 10.497m0 0h0m-16.766-30.105l18.242 3.351m0 0h0m-17.543-20.976l16.844-7.762m0 0h0m-15.84-13.738l14.836-11.125m0 0h0m-15.84-13.739l16.844-7.761m0 0h0M161.879 80.96l18.242 3.352m0 0h0m-16.766-30.106l15.29 10.496m0 0h0m-15.383-33.539l15.476 10.219m0 0h0m-16.937-29.438l18.398 2.293m0 0h0m12.508 229.524l18.402 2.293m0 0h0m-16.937-29.434l15.476 10.215m0 0h0m-15.382-33.54l15.289 10.497m0 0h0m-16.766-30.105l18.238 3.351m0 0h0m-17.539-20.976l16.84-7.762m0 0h0m-15.836-13.738l14.836-11.125m0 0h0m-15.84-13.739l16.84-7.761m0 0h0M192.79 80.96l18.238 3.352m0 0h0m-16.761-30.106l15.289 10.496m0 0h0m-15.383-33.539l15.476 10.219m0 0h0m-16.941-29.438l18.402 2.293m0 0h0m12.508 229.524l18.403 2.293m0 0h0m-16.942-29.434l15.48 10.215m0 0h0m-15.382-33.54l15.285 10.497m0 0h0M223.7 173.687l18.239 3.351m0 0h0m-17.54-20.976l16.84-7.762m0 0h0m-15.84-13.738l14.836-11.125m0 0h0m-15.836-13.739l16.84-7.761m0 0h0M223.7 80.96l18.239 3.352m0 0h0m-16.762-30.106l15.285 10.496m0 0h0m-15.383-33.539l15.48 10.219m0 0h0m-16.94-29.438l18.402 2.293m0 0h0m12.507 229.524l18.403 2.293m0 0h0m-16.942-29.434l15.477 10.215m0 0h0m-15.383-33.54l15.29 10.497m0 0h0m-16.767-30.105l18.243 3.351m0 0h0m-17.543-20.976l16.843-7.762m0 0h0m-15.84-13.738l14.837-11.125m0 0h0m-15.84-13.739l16.843-7.761m0 0h0M254.605 80.96l18.243 3.352m0 0h0m-16.766-30.106l15.29 10.496m0 0h0m-15.384-33.539l15.477 10.219m0 0h0m-16.938-29.438l18.403 2.293m0 0h0m12.504 229.524l18.406 2.293m0 0h0m-16.942-29.434l15.477 10.215m0 0h0m-15.383-33.54l15.29 10.497m0 0h0m-16.766-30.105l18.242 3.351m0 0h0m-17.543-20.976l16.844-7.762m0 0h0m-15.84-13.738l14.836-11.125m0 0h0m-15.84-13.739l16.844-7.761m0 0h0M285.516 80.96l18.242 3.352m0 0h0m-16.766-30.106l15.29 10.496m0 0h0m-15.384-33.539l15.477 10.219m0 0h0m-16.941-29.438l18.406 2.293m0 0h0m12.504 229.524l18.402 2.293m0 0h0m-16.941-29.434l15.48 10.215m0 0h0m-15.383-33.54l15.29 10.497m0 0h0m-16.766-30.105l18.238 3.351m0 0h0m-17.539-20.976l16.844-7.762m0 0h0m-15.84-13.738l14.836-11.125m0 0h0m-15.84-13.739l16.844-7.761m0 0h0M316.426 80.96l18.238 3.352m0 0h0m-16.762-30.106l15.29 10.496m0 0h0m-15.387-33.539l15.48 10.219m0 0h0m-16.941-29.438l18.402 2.293m0 0h0" fill="none" stroke-width="1.25" stroke-linecap="round" stroke="#00f" stroke-miterlimit="10"/></svg>