<svg xmlns="http://www.w3.org/2000/svg" width="456" height="344" viewBox="0 0 342 258"><defs><clipPath id="a"><path d="M170 1.5h2v255h-2zm0 0"/></clipPath><clipPath id="b"><path d="M1 128h340v2H1zm0 0"/></clipPath><clipPath id="c"><path d="M1 1.5h1v255H1zm0 0"/></clipPath><clipPath id="d"><path d="M85 1.5h2v255h-2zm0 0"/></clipPath><clipPath id="e"><path d="M170 1.5h2v255h-2zm0 0"/></clipPath><clipPath id="f"><path d="M255 1.5h2v255h-2zm0 0"/></clipPath><clipPath id="g"><path d="M340 1.5h1v255h-1zm0 0"/></clipPath><clipPath id="h"><path d="M1 256h340v.5H1zm0 0"/></clipPath><clipPath id="i"><path d="M1 192h340v2H1zm0 0"/></clipPath><clipPath id="j"><path d="M1 128h340v2H1zm0 0"/></clipPath><clipPath id="k"><path d="M1 64h340v2H1zm0 0"/></clipPath><clipPath id="l"><path d="M1 1.5h340V2H1zm0 0"/></clipPath></defs><path d="M1 256.5h340V1.5H1zm0 0" fill="#fff"/><g clip-path="url(#a)"><path d="M171 256.5V1.5" fill="none" stroke-width=".625" stroke-linecap="round" stroke="#bfbfbf" stroke-miterlimit="10"/></g><g clip-path="url(#b)"><path d="M1 129h340" fill="none" stroke-width=".625" stroke-linecap="round" stroke="#bfbfbf" stroke-miterlimit="10"/></g><g clip-path="url(#c)"><path d="M1 256.5V1.5" fill="none" stroke-width=".625" stroke-linecap="round" stroke="#bfbfbf" stroke-dasharray="12.5,18.75" stroke-miterlimit="10"/></g><g clip-path="url(#d)"><path d="M86 256.5V1.5" fill="none" stroke-width=".625" stroke-linecap="round" stroke="#bfbfbf" stroke-dasharray="12.5,18.75" stroke-miterlimit="10"/></g><g clip-path="url(#e)"><path d="M171 256.5V1.5" fill="none" stroke-width=".625" stroke-linecap="round" stroke="#bfbfbf" stroke-dasharray="12.5,18.75" stroke-miterlimit="10"/></g><g clip-path="url(#f)"><path d="M256 256.5V1.5" fill="none" stroke-width=".625" stroke-linecap="round" stroke="#bfbfbf" stroke-dasharray="12.5,18.75" stroke-miterlimit="10"/></g><g clip-path="url(#g)"><path d="M341 256.5V1.5" fill="none" stroke-width=".625" stroke-linecap="round" stroke="#bfbfbf" stroke-dasharray="12.5,18.75" stroke-miterlimit="10"/></g><g clip-path="url(#h)"><path d="M1 256.5h340" fill="none" stroke-width=".625" stroke-linecap="round" stroke="#bfbfbf" stroke-dasharray="12.5,18.75" stroke-miterlimit="10"/></g><g clip-path="url(#i)"><path d="M1 192.75h340" fill="none" stroke-width=".625" stroke-linecap="round" stroke="#bfbfbf" stroke-dasharray="12.5,18.75" stroke-miterlimit="10"/></g><g clip-path="url(#j)"><path d="M1 129h340" fill="none" stroke-width=".625" stroke-linecap="round" stroke="#bfbfbf" stroke-dasharray="12.5,18.75" stroke-miterlimit="10"/></g><g clip-path="url(#k)"><path d="M1 65.25h340" fill="none" stroke-width=".625" stroke-linecap="round" stroke="#bfbfbf" stroke-dasharray="12.5,18.75" stroke-miterlimit="10"/></g><g clip-path="url(#l)"><path d="M1 1.5h340" fill="none" stroke-width=".625" stroke-linecap="round" stroke="#bfbfbf" stroke-dasharray="12.5,18.75" stroke-miterlimit="10"/></g><path d="M1 256.5h340" fill="none" stroke-width="1.25" stroke-linecap="square" stroke="#000" stroke-miterlimit="10"/><path d="M1 256.5v-5m8.5 5V254m8.5 2.5V254m8.5 2.5V254m8.5 2.5V254m8.5 2.5V254m8.5 2.5V254m8.5 2.5V254m8.5 2.5V254m8.5 2.5V254m8.5 2.5v-5m8.5 5V254m8.5 2.5V254m8.5 2.5V254m8.5 2.5V254m8.5 2.5V254m8.5 2.5V254m8.5 2.5V254m8.5 2.5V254m8.5 2.5V254m8.5 2.5v-5m8.5 5V254m8.5 2.5V254m8.5 2.5V254m8.5 2.5V254m8.5 2.5V254m8.5 2.5V254m8.5 2.5V254m8.5 2.5V254m8.5 2.5V254m8.5 2.5v-5m8.5 5V254m8.5 2.5V254m8.5 2.5V254m8.5 2.5V254m8.5 2.5V254m8.5 2.5V254m8.5 2.5V254m8.5 2.5V254m8.5 2.5V254m8.5 2.5v-5" fill="none" stroke-width=".625" stroke="#000" stroke-miterlimit="10"/><path d="M1 1.5h340" fill="none" stroke-width="1.25" stroke-linecap="square" stroke="#000" stroke-miterlimit="10"/><path d="M1 1.5v5m8.5-5V4M18 1.5V4m8.5-2.5V4M35 1.5V4m8.5-2.5V4M52 1.5V4m8.5-2.5V4M69 1.5V4m8.5-2.5V4M86 1.5v5m8.5-5V4m8.5-2.5V4m8.5-2.5V4m8.5-2.5V4m8.5-2.5V4m8.5-2.5V4m8.5-2.5V4m8.5-2.5V4m8.5-2.5V4m8.5-2.5v5m8.5-5V4m8.5-2.5V4m8.5-2.5V4m8.5-2.5V4m8.5-2.5V4m8.5-2.5V4m8.5-2.5V4m8.5-2.5V4m8.5-2.5V4m8.5-2.5v5m8.5-5V4m8.5-2.5V4m8.5-2.5V4m8.5-2.5V4m8.5-2.5V4m8.5-2.5V4m8.5-2.5V4m8.5-2.5V4m8.5-2.5V4m8.5-2.5v5" fill="none" stroke-width=".625" stroke="#000" stroke-miterlimit="10"/><path d="M1 256.5V1.5" fill="none" stroke-width="1.25" stroke-linecap="square" stroke="#000" stroke-miterlimit="10"/><path d="M1 256.5h5m-5-6.375h2.5M1 243.75h2.5M1 237.375h2.5M1 231h2.5M1 224.625h2.5M1 218.25h2.5M1 211.875h2.5M1 205.5h2.5M1 199.125h2.5M1 192.75h5m-5-6.375h2.5M1 180h2.5M1 173.625h2.5M1 167.25h2.5M1 160.875h2.5M1 154.5h2.5M1 148.125h2.5M1 141.75h2.5M1 135.375h2.5M1 129h5m-5-6.375h2.5M1 116.25h2.5M1 109.875h2.5M1 103.5h2.5M1 97.125h2.5M1 90.75h2.5M1 84.375h2.5M1 78h2.5M1 71.625h2.5M1 65.25h5m-5-6.375h2.5M1 52.5h2.5M1 46.125h2.5M1 39.75h2.5M1 33.375h2.5M1 27h2.5M1 20.625h2.5M1 14.25h2.5M1 7.875h2.5M1 1.5h5" fill="none" stroke-width=".625" stroke="#000" stroke-miterlimit="10"/><path d="M341 256.5V1.5" fill="none" stroke-width="1.25" stroke-linecap="square" stroke="#000" stroke-miterlimit="10"/><path d="M341 256.5h-5m5-6.375h-2.5m2.5-6.375h-2.5m2.5-6.375h-2.5M341 231h-2.5m2.5-6.375h-2.5m2.5-6.375h-2.5m2.5-6.375h-2.5m2.5-6.375h-2.5m2.5-6.375h-2.5m2.5-6.375h-5m5-6.375h-2.5M341 180h-2.5m2.5-6.375h-2.5m2.5-6.375h-2.5m2.5-6.375h-2.5m2.5-6.375h-2.5m2.5-6.375h-2.5m2.5-6.375h-2.5m2.5-6.375h-2.5M341 129h-5m5-6.375h-2.5m2.5-6.375h-2.5m2.5-6.375h-2.5m2.5-6.375h-2.5m2.5-6.375h-2.5m2.5-6.375h-2.5m2.5-6.375h-2.5M341 78h-2.5m2.5-6.375h-2.5m2.5-6.375h-5m5-6.375h-2.5M341 52.5h-2.5m2.5-6.375h-2.5m2.5-6.375h-2.5m2.5-6.375h-2.5M341 27h-2.5m2.5-6.375h-2.5m2.5-6.375h-2.5m2.5-6.375h-2.5M341 1.5h-5" fill="none" stroke-width=".625" stroke="#000" stroke-miterlimit="10"/><path d="M9 250.422l14.91-11.027m0 0h0M9 227.242l14.91-11.027m0 0h0M9 204.059l14.91-11.028m0 0h0M9 180.88l14.91-11.027m0 0h0M9 157.695l14.91-11.027m0 0h0M9 134.516l14.91-11.032m0 0h0M9 111.332l14.91-11.027m0 0h0M9 88.148l14.91-11.027m0 0h0M9 64.97l14.91-11.03m0 0h0M9 41.785l14.91-11.027m0 0h0M9 18.605L23.91 7.578m0 0h0M38.63 248.02l17.469-6.223m0 0h0m-17.47-16.957l17.47-6.223m0 0h0m-17.47-16.96l17.47-6.223m0 0h0m-17.47-16.961l17.47-6.22m0 0h0m-17.47-16.96l17.47-6.223m0 0h0m-17.47-16.96l17.47-6.22m0 0h0m-17.47-16.96l17.47-6.223m0 0h0m-17.47-16.96l17.47-6.22m0 0h0m-17.47-16.96l17.47-6.223m0 0h0m-17.47-16.961l17.47-6.223m0 0h0m-17.47-16.957l17.47-6.223m0 0h0m13.297 232.25l17.753 5.36m0 0h0m-17.753-28.543l17.753 5.36m0 0h0m-17.753-28.544l17.753 5.364m0 0h0m-17.753-28.543l17.753 5.359m0 0h0m-17.753-28.54l17.753 5.36m0 0h0M69.395 126.32l17.753 5.36m0 0h0m-17.753-28.543l17.753 5.36m0 0h0m-17.753-28.54l17.753 5.36m0 0h0M69.395 56.772l17.753 5.364m0 0h0M69.395 33.594l17.753 5.36m0 0h0M69.395 10.41l17.753 5.36m0 0h0m14.536 223.687l14.996 10.906m0 0h0m-14.996-34.09l14.996 10.907m0 0h0m-14.996-34.086L116.68 204m0 0h0m-14.996-34.09l14.996 10.906m0 0h0m-14.996-34.09l14.996 10.91m0 0h0m-14.996-34.09l14.996 10.907m0 0h0m-14.996-34.09l14.996 10.91m0 0h0m-14.996-34.09L116.68 88.09m0 0h0M101.684 54l14.996 10.906m0 0h0M101.684 30.82l14.996 10.907m0 0h0m-14.996-34.09l14.996 10.91m0 0h0m15.43 221.64l15.96 9.446m0 0h0m-15.96-32.63l15.96 9.446m0 0h0m-15.96-32.625l15.96 9.446m0 0h0m-15.96-32.63l15.96 9.446m0 0h0m-15.96-32.625l15.96 9.441m0 0h0m-15.96-32.625l15.96 9.446m0 0h0m-15.96-32.625l15.96 9.441m0 0h0m-15.96-32.625l15.96 9.445m0 0h0M132.11 54.73l15.96 9.446m0 0h0M132.11 31.55l15.96 9.445m0 0h0M132.11 8.367l15.96 9.445m0 0h0m13.657 227.098h18.546m0 0h0m-18.546-23.183h18.546m0 0h0m-18.546-23.18h18.546m0 0h0m-18.546-23.184h18.546m0 0h0m-18.546-23.18h18.546m0 0h0M161.727 129h18.546m0 0h0m-18.546-23.184h18.546m0 0h0m-18.546-23.18h18.546m0 0h0m-18.546-23.183h18.546m0 0h0m-18.546-23.18h18.546m0 0h0M161.727 13.09h18.546m0 0h0m13.657 236.543l15.96-9.446m0 0h0m-15.96-13.738l15.96-9.445m0 0h0m-15.96-13.734l15.96-9.446m0 0h0m-15.96-13.738l15.96-9.445m0 0h0m-15.96-13.739l15.96-9.441m0 0h0m-15.96-13.738l15.96-9.446m0 0h0m-15.96-13.738l15.96-9.441m0 0h0m-15.96-13.739l15.96-9.445m0 0h0m-15.96-13.738l15.96-9.446m0 0h0m-15.96-13.734l15.96-9.445m0 0h0m-15.96-13.739l15.96-9.445m0 0h0m15.43 241.996l14.996-10.906m0 0h0M225.32 227.18l14.996-10.907m0 0h0M225.32 204l14.996-10.906m0 0h0m-14.996-12.278l14.996-10.906m0 0h0m-14.996-12.273l14.996-10.91m0 0h0m-14.996-12.274l14.996-10.906m0 0h0m-14.996-12.274l14.996-10.91m0 0h0M225.32 88.09l14.996-10.906m0 0h0M225.32 64.906L240.316 54m0 0h0M225.32 41.727l14.996-10.907m0 0h0M225.32 18.547l14.996-10.91m0 0h0m14.536 239.953l17.753-5.36m0 0h0m-17.753-17.824l17.753-5.36m0 0h0m-17.753-17.82l17.753-5.363m0 0h0m-17.753-17.82l17.753-5.36m0 0h0m-17.753-17.82l17.753-5.36m0 0h0m-17.753-17.823l17.753-5.36m0 0h0m-17.753-17.824l17.753-5.36m0 0h0m-17.753-17.82l17.753-5.359m0 0h0m-17.753-17.82l17.753-5.364m0 0h0m-17.753-17.82l17.753-5.36m0 0h0M254.852 15.77l17.753-5.36m0 0h0m13.297 231.387l17.47 6.223m0 0h0m-17.47-29.403l17.47 6.223m0 0h0m-17.47-29.406l17.47 6.222m0 0h0m-17.47-29.402l17.47 6.219m0 0h0m-17.47-29.403l17.47 6.223m0 0h0m-17.47-29.402l17.47 6.218m0 0h0m-17.47-29.402l17.47 6.223m0 0h0m-17.47-29.403l17.47 6.22m0 0h0m-17.47-29.403l17.47 6.222m0 0h0m-17.47-29.406l17.47 6.223m0 0h0M285.901 9.98l17.47 6.223m0 0h0m14.718 223.192L333 250.422m0 0h0m-14.91-34.207L333 227.242m0 0h0m-14.91-34.21L333 204.058m0 0h0m-14.91-34.207L333 180.879m0 0h0m-14.91-34.211L333 157.695m0 0h0m-14.91-34.21l14.91 11.03m0 0h0m-14.91-34.21L333 111.332m0 0h0m-14.91-34.21L333 88.147m0 0h0M318.09 53.94L333 64.97m0 0h0m-14.91-34.211L333 41.785m0 0h0M318.09 7.578L333 18.605m0 0h0" fill="none" stroke-width="1.25" stroke-linecap="round" stroke="#00f" stroke-miterlimit="10"/></svg>