<svg xmlns="http://www.w3.org/2000/svg" width="382pt" height="274pt" viewBox="0 0 382 274"><defs><path d="M2.0625-5.3125c-.5 0-.9375.21875-1.21875.578125C.5-4.265625.328125-3.5625.328125-2.578125c0 1.796875.59375 2.75 1.734375 2.75 1.125 0 1.734375-.953125 1.734375-2.703125 0-1.03125-.15625-1.71875-.515625-2.203125C3-5.109375 2.5625-5.3125 2.0625-5.3125zm0 .5781c.71875 0 1.0625.71875 1.0625 2.140625C3.125-1.078125 2.78125-.375 2.046875-.375 1.34375-.375 1-1.109375 1-2.5625c0-1.453125.34375-2.171875 1.0625-2.171875zm0 0" id="c"/><path d="M3.5625-5.3125H.8281L.4219-2.4219h.6094c.3125-.375.5625-.5.984375-.5.703125 0 1.15625.484375 1.15625 1.28125 0 .765625-.4375 1.234375-1.15625 1.234375-.578125 0-.9375-.296875-1.09375-.90625h-.6562c.09375.4375.15625.65625.3125.84375.3125.40625.84375.640625 1.453125.640625 1.0625 0 1.8125-.78125 1.8125-1.90625C3.84375-2.78125 3.15625-3.5 2.125-3.5c-.375 0-.671875.09375-.984375.3125l.2188-1.4844H3.5625zm0 0" id="d"/><path d="M1.9375-3.7812V0h.6719v-5.3125h-.4375c-.2344.8125-.39065.921875-1.406275 1.046875v.4844zm0 0" id="f"/><path d="M3.7969-.6562H1c.0625-.4375.3125-.703125.953125-1.09375l.75-.4062c.75-.40625 1.125-.953125 1.125-1.59375 0-.453125-.171875-.859375-.484375-1.140625C3.015625-5.1875 2.625-5.3125 2.125-5.3125c-.671875 0-1.171875.234375-1.46875.6875-.1875.28125-.265625.609375-.28125 1.15625h.6563c.03125-.359375.078125-.578125.15625-.75.171875-.328125.515625-.515625.921875-.515625.59375 0 1.046875.421875 1.046875.984375 0 .421875-.25.78125-.71875 1.0625l-.6875.3906C.640625-1.671875.3125-1.171875.25 0h3.5469zm0 0" id="g"/><path d="M1.4375-.7812H.6563V0h.7813zm0 0" id="e"/><path d="M3.9063-5.3125H.3438v.6406h2.875C1.953125-2.859375 1.4375-1.75 1.03125 0h.7031c.296875-1.703125.96875-3.171875 2.171875-4.765625zm0 0" id="h"/><clipPath id="i"><path d="M21 8.5h1v255h-1zm0 0"/></clipPath><clipPath id="j"><path d="M21 263h340v.5H21zm0 0"/></clipPath><clipPath id="k"><path d="M21 8.5h1v255h-1zm0 0"/></clipPath><clipPath id="l"><path d="M105 8.5h2v255h-2zm0 0"/></clipPath><clipPath id="m"><path d="M190 8.5h2v255h-2zm0 0"/></clipPath><clipPath id="n"><path d="M275 8.5h2v255h-2zm0 0"/></clipPath><clipPath id="o"><path d="M360 8.5h1v255h-1zm0 0"/></clipPath><clipPath id="p"><path d="M21 263h340v.5H21zm0 0"/></clipPath><clipPath id="q"><path d="M21 199h340v2H21zm0 0"/></clipPath><clipPath id="r"><path d="M21 135h340v2H21zm0 0"/></clipPath><clipPath id="s"><path d="M21 71h340v2H21zm0 0"/></clipPath><clipPath id="t"><path d="M21 8.5h340V9H21zm0 0"/></clipPath><clipPath id="u"><path d="M49 8.5h312V100H49zm0 0"/></clipPath><clipPath id="v"><path d="M21 98h340v92H21zm0 0"/></clipPath><clipPath id="w"><path d="M21 99h340v126H21zm0 0"/></clipPath><clipPath id="x"><path d="M21 129h340v96H21zm0 0"/></clipPath><clipPath id="y"><path d="M21 223h278v40.5H21zm0 0"/></clipPath><clipPath id="z"><path d="M21 223h340v2H21zm0 0"/></clipPath><clipPath id="A"><path d="M21 98h340v2H21zm0 0"/></clipPath><path id="a" d="M210 105v2550"/><path id="b" d="M210 105h3400"/></defs><path fill="#fff" d="M21 263.5h340V8.5H21zm0 0"/><g clip-path="url(#i)"><use href="#a" class="f"/></g><g clip-path="url(#j)"><use href="#b" class="f"/></g><g clip-path="url(#k)"><use href="#a" class="a"/></g><g clip-path="url(#l)"><path d="M1060 105v2550" class="a"/></g><g clip-path="url(#m)"><path d="M1910 105v2550" class="a"/></g><g clip-path="url(#n)"><path d="M2760 105v2550" class="a"/></g><g clip-path="url(#o)"><path d="M3610 105v2550" class="a"/></g><g clip-path="url(#p)"><use href="#b" class="a"/></g><g clip-path="url(#q)"><path d="M210 742.5h3400" class="a"/></g><g clip-path="url(#r)"><path d="M210 1380h3400" class="a"/></g><g clip-path="url(#s)"><path d="M210 2017.5h3400" class="a"/></g><g clip-path="url(#t)"><path d="M210 2655h3400" class="a"/></g><g class="c"><use href="#b" class="d"/><g class="e"><path d="M210 105v50"/><path d="M295 105v25"/><path d="M380 105v25"/><path d="M465 105v25"/><path d="M550 105v25"/><path d="M635 105v25"/><path d="M720 105v25"/><path d="M805 105v25"/><path d="M890 105v25"/><path d="M975 105v25"/><path d="M1060 105v50"/><path d="M1145 105v25"/><path d="M1230 105v25"/><path d="M1315 105v25"/><path d="M1400 105v25"/><path d="M1485 105v25"/><path d="M1570 105v25"/><path d="M1655 105v25"/><path d="M1740 105v25"/><path d="M1825 105v25"/><path d="M1910 105v50"/><path d="M1995 105v25"/><path d="M2080 105v25"/><path d="M2165 105v25"/><path d="M2250 105v25"/><path d="M2335 105v25"/><path d="M2420 105v25"/><path d="M2505 105v25"/><path d="M2590 105v25"/><path d="M2675 105v25"/><path d="M2760 105v50"/><path d="M2845 105v25"/><path d="M2930 105v25"/><path d="M3015 105v25"/><path d="M3100 105v25"/><path d="M3185 105v25"/><path d="M3270 105v25"/><path d="M3355 105v25"/><path d="M3440 105v25"/><path d="M3525 105v25"/><path d="M3610 105v50"/></g></g><use x="18.2902" y="273.5" href="#c"/><use x="103.29" y="273.5" href="#d"/><use x="186.8295" y="273.5" href="#f"/><use x="190.9995" y="273.5" href="#c"/><use x="271.8292" y="273.5" href="#f"/><use x="275.9992" y="273.5" href="#d"/><use x="356.829" y="273.5" href="#g"/><use x="360.999" y="273.5" href="#c"/><g class="c"><path d="M210 2655h3400" class="d"/><g class="e"><path d="M210 2655v-50"/><path d="M295 2655v-25"/><path d="M380 2655v-25"/><path d="M465 2655v-25"/><path d="M550 2655v-25"/><path d="M635 2655v-25"/><path d="M720 2655v-25"/><path d="M805 2655v-25"/><path d="M890 2655v-25"/><path d="M975 2655v-25"/><path d="M1060 2655v-50"/><path d="M1145 2655v-25"/><path d="M1230 2655v-25"/><path d="M1315 2655v-25"/><path d="M1400 2655v-25"/><path d="M1485 2655v-25"/><path d="M1570 2655v-25"/><path d="M1655 2655v-25"/><path d="M1740 2655v-25"/><path d="M1825 2655v-25"/><path d="M1910 2655v-50"/><path d="M1995 2655v-25"/><path d="M2080 2655v-25"/><path d="M2165 2655v-25"/><path d="M2250 2655v-25"/><path d="M2335 2655v-25"/><path d="M2420 2655v-25"/><path d="M2505 2655v-25"/><path d="M2590 2655v-25"/><path d="M2675 2655v-25"/><path d="M2760 2655v-50"/><path d="M2845 2655v-25"/><path d="M2930 2655v-25"/><path d="M3015 2655v-25"/><path d="M3100 2655v-25"/><path d="M3185 2655v-25"/><path d="M3270 2655v-25"/><path d="M3355 2655v-25"/><path d="M3440 2655v-25"/><path d="M3525 2655v-25"/><path d="M3610 2655v-50"/></g></g><use x="18.2902" y="5.375" href="#c"/><use x="103.29" y="5.375" href="#d"/><use x="186.8295" y="5.375" href="#f"/><use x="190.9995" y="5.375" href="#c"/><use x="271.8292" y="5.375" href="#f"/><use x="275.9992" y="5.375" href="#d"/><use x="356.829" y="5.375" href="#g"/><use x="360.999" y="5.375" href="#c"/><g class="c"><use href="#a" class="d"/><g class="e"><path d="M210 105h50"/><path d="M210 168.75h25"/><path d="M210 232.5h25"/><path d="M210 296.25h25"/><path d="M210 360h25"/><path d="M210 423.75h25"/><path d="M210 487.5h25"/><path d="M210 551.25h25"/><path d="M210 615h25"/><path d="M210 678.75h25"/><path d="M210 742.5h50"/><path d="M210 806.25h25"/><path d="M210 870h25"/><path d="M210 933.75h25"/><path d="M210 997.5h25"/><path d="M210 1061.25h25"/><path d="M210 1125h25"/><path d="M210 1188.75h25"/><path d="M210 1252.5h25"/><path d="M210 1316.25h25"/><path d="M210 1380h50"/><path d="M210 1443.75h25"/><path d="M210 1507.5h25"/><path d="M210 1571.25h25"/><path d="M210 1635h25"/><path d="M210 1698.75h25"/><path d="M210 1762.5h25"/><path d="M210 1826.25h25"/><path d="M210 1890h25"/><path d="M210 1953.75h25"/><path d="M210 2017.5h50"/><path d="M210 2081.25h25"/><path d="M210 2145h25"/><path d="M210 2208.75h25"/><path d="M210 2272.5h25"/><path d="M210 2336.25h25"/><path d="M210 2400h25"/><path d="M210 2463.75h25"/><path d="M210 2527.5h25"/><path d="M210 2591.25h25"/><path d="M210 2655h50"/></g></g><use x="3.7004" y="267.25" href="#c"/><use x="7.8704" y="267.25" href="#e"/><use x="9.9554" y="267.25" href="#c"/><use x="3.7004" y="202.875" href="#g"/><use x="7.8704" y="202.875" href="#e"/><use x="9.9554" y="202.875" href="#d"/><use x="3.7004" y="139.125" href="#d"/><use x="7.8704" y="139.125" href="#e"/><use x="9.9554" y="139.125" href="#c"/><use x="3.7004" y="75.375" href="#h"/><use x="7.8704" y="75.375" href="#e"/><use x="9.9554" y="75.375" href="#d"/><use x="-.4695" y="11.625" href="#f"/><use x="3.7005" y="11.625" href="#c"/><use x="7.8705" y="11.625" href="#e"/><use x="9.9555" y="11.625" href="#c"/><g class="c"><path d="M3610 105v2550" class="d"/><g class="e"><path d="M3610 105h-50"/><path d="M3610 168.75h-25"/><path d="M3610 232.5h-25"/><path d="M3610 296.25h-25"/><path d="M3610 360h-25"/><path d="M3610 423.75h-25"/><path d="M3610 487.5h-25"/><path d="M3610 551.25h-25"/><path d="M3610 615h-25"/><path d="M3610 678.75h-25"/><path d="M3610 742.5h-50"/><path d="M3610 806.25h-25"/><path d="M3610 870h-25"/><path d="M3610 933.75h-25"/><path d="M3610 997.5h-25"/><path d="M3610 1061.25h-25"/><path d="M3610 1125h-25"/><path d="M3610 1188.75h-25"/><path d="M3610 1252.5h-25"/><path d="M3610 1316.25h-25"/><path d="M3610 1380h-50"/><path d="M3610 1443.75h-25"/><path d="M3610 1507.5h-25"/><path d="M3610 1571.25h-25"/><path d="M3610 1635h-25"/><path d="M3610 1698.75h-25"/><path d="M3610 1762.5h-25"/><path d="M3610 1826.25h-25"/><path d="M3610 1890h-25"/><path d="M3610 1953.75h-25"/><path d="M3610 2017.5h-50"/><path d="M3610 2081.25h-25"/><path d="M3610 2145h-25"/><path d="M3610 2208.75h-25"/><path d="M3610 2272.5h-25"/><path d="M3610 2336.25h-25"/><path d="M3610 2400h-25"/><path d="M3610 2463.75h-25"/><path d="M3610 2527.5h-25"/><path d="M3610 2591.25h-25"/><path d="M3610 2655h-50"/></g></g><use x="367.25" y="267.25" href="#c"/><use x="371.42" y="267.25" href="#e"/><use x="373.505" y="267.25" href="#c"/><use x="367.25" y="202.875" href="#g"/><use x="371.42" y="202.875" href="#e"/><use x="373.505" y="202.875" href="#d"/><use x="367.25" y="139.125" href="#d"/><use x="371.42" y="139.125" href="#e"/><use x="373.505" y="139.125" href="#c"/><use x="367.25" y="75.375" href="#h"/><use x="371.42" y="75.375" href="#e"/><use x="373.505" y="75.375" href="#d"/><use x="367.25" y="11.625" href="#f"/><use x="371.42" y="11.625" href="#c"/><use x="375.59" y="11.625" href="#e"/><use x="377.675" y="11.625" href="#c"/><g style="fill:none;stroke-width:6.25;stroke-linecap:round;stroke:#00f;stroke-miterlimit:10;transform:matrix(.1,0,0,-.1,0,274)"><path d="M262.5 208.046875l65-78.59375"/><path d="M327.5 129.453125h0"/><path d="M252.929688 325.039062l84.140624-57.578124"/><path d="M337.070312 267.460938h0"/><path d="M245.351562 435.390625l99.296876-23.28125"/><path d="M344.648438 412.109375h0"/><path d="M244.492188 544.140625l101.015624 14.21875"/><path d="M345.507812 558.359375h0"/><path d="M248.320312 658.203125l93.359376 41.09375"/><path d="M341.679688 699.296875h0"/><path d="M252.539062 778.007812l84.921876 56.484376"/><path d="M337.460938 834.492188h0"/><path d="M255.46875 901.523438l79.0625 64.453124"/><path d="M334.53125 965.976562h0"/><path d="M256.914062 1027.34375l76.171876 67.8125"/><path d="M333.085938 1095.15625h0"/><path d="M256.914062 1154.84375l76.171876 67.8125"/><path d="M333.085938 1222.65625h0"/><path d="M255.46875 1284.023438l79.0625 64.453124"/><path d="M334.53125 1348.476562h0"/><path d="M252.539062 1415.507812l84.921876 56.484376"/><path d="M337.460938 1471.992188h0"/><path d="M248.320312 1550.703125l93.359376 41.09375"/><path d="M341.679688 1591.796875h0"/><path d="M244.492188 1691.640625l101.015624 14.21875"/><path d="M345.507812 1705.859375h0"/><path d="M245.351562 1837.890625l99.296876-23.28125"/><path d="M344.648438 1814.609375h0"/><path d="M252.929688 1982.539062l84.140624-57.578124"/><path d="M337.070312 1924.960938h0"/><path d="M262.5 2120.546875l65-78.59375"/><path d="M327.5 2041.953125h0"/><path d="M270.3125 2253.398438l49.375-89.296876"/><path d="M319.6875 2164.101562h0"/><path d="M275.9375 2383.554688l38.125-94.609376"/><path d="M314.0625 2288.945312h0"/><path d="M279.921875 2512.460938l30.15625-97.421876"/><path d="M310.078125 2415.039062h0"/><path d="M282.8125 2640.78125l24.375-99.0625"/><path d="M307.1875 2541.71875h0"/><path d="M432.5 208.046875l65-78.59375"/><path d="M497.5 129.453125h0"/><path d="M422.929688 325.039062l84.140624-57.578124"/><path d="M507.070312 267.460938h0"/><path d="M415.351562 435.390625l99.296876-23.28125"/><path d="M514.648438 412.109375h0"/><path d="M414.492188 544.140625l101.015624 14.21875"/><path d="M515.507812 558.359375h0"/><path d="M418.320312 658.203125l93.359376 41.09375"/><path d="M511.679688 699.296875h0"/><path d="M422.539062 778.007812l84.921876 56.484376"/><path d="M507.460938 834.492188h0"/><path d="M425.46875 901.523438l79.0625 64.453124"/><path d="M504.53125 965.976562h0"/><path d="M426.914062 1027.34375l76.171876 67.8125"/><path d="M503.085938 1095.15625h0"/><path d="M426.914062 1154.84375l76.171876 67.8125"/><path d="M503.085938 1222.65625h0"/><path d="M425.46875 1284.023438l79.0625 64.453124"/><path d="M504.53125 1348.476562h0"/><path d="M422.539062 1415.507812l84.921876 56.484376"/><path d="M507.460938 1471.992188h0"/><path d="M418.320312 1550.703125l93.359376 41.09375"/><path d="M511.679688 1591.796875h0"/><path d="M414.492188 1691.640625l101.015624 14.21875"/><path d="M515.507812 1705.859375h0"/><path d="M415.351562 1837.890625l99.296876-23.28125"/><path d="M514.648438 1814.609375h0"/><path d="M422.929688 1982.539062l84.140624-57.578124"/><path d="M507.070312 1924.960938h0"/><path d="M432.5 2120.546875l65-78.59375"/><path d="M497.5 2041.953125h0"/><path d="M440.3125 2253.398438l49.375-89.296876"/><path d="M489.6875 2164.101562h0"/><path d="M445.9375 2383.554688l38.125-94.609376"/><path d="M484.0625 2288.945312h0"/><path d="M449.921875 2512.460938l30.15625-97.421876"/><path d="M480.078125 2415.039062h0"/><path d="M452.8125 2640.78125l24.375-99.0625"/><path d="M477.1875 2541.71875h0"/><path d="M602.5 208.046875l65-78.59375"/><path d="M667.5 129.453125h0"/><path d="M592.929688 325.039062l84.140624-57.578124"/><path d="M677.070312 267.460938h0"/><path d="M585.351562 435.390625l99.296876-23.28125"/><path d="M684.648438 412.109375h0"/><path d="M584.492188 544.140625l101.015624 14.21875"/><path d="M685.507812 558.359375h0"/><path d="M588.320312 658.203125l93.359376 41.09375"/><path d="M681.679688 699.296875h0"/><path d="M592.539062 778.007812l84.921876 56.484376"/><path d="M677.460938 834.492188h0"/><path d="M595.46875 901.523438l79.0625 64.453124"/><path d="M674.53125 965.976562h0"/><path d="M596.914062 1027.34375l76.171876 67.8125"/><path d="M673.085938 1095.15625h0"/><path d="M596.914062 1154.84375l76.171876 67.8125"/><path d="M673.085938 1222.65625h0"/><path d="M595.46875 1284.023438l79.0625 64.453124"/><path d="M674.53125 1348.476562h0"/><path d="M592.539062 1415.507812l84.921876 56.484376"/><path d="M677.460938 1471.992188h0"/><path d="M588.320312 1550.703125l93.359376 41.09375"/><path d="M681.679688 1591.796875h0"/><path d="M584.492188 1691.640625l101.015624 14.21875"/><path d="M685.507812 1705.859375h0"/><path d="M585.351562 1837.890625l99.296876-23.28125"/><path d="M684.648438 1814.609375h0"/><path d="M592.929688 1982.539062l84.140624-57.578124"/><path d="M677.070312 1924.960938h0"/><path d="M602.5 2120.546875l65-78.59375"/><path d="M667.5 2041.953125h0"/><path d="M610.3125 2253.398438l49.375-89.296876"/><path d="M659.6875 2164.101562h0"/><path d="M615.9375 2383.554688l38.125-94.609376"/><path d="M654.0625 2288.945312h0"/><path d="M619.921875 2512.460938l30.15625-97.421876"/><path d="M650.078125 2415.039062h0"/><path d="M622.8125 2640.78125l24.375-99.0625"/><path d="M647.1875 2541.71875h0"/><path d="M772.5 208.046875l65-78.59375"/><path d="M837.5 129.453125h0"/><path d="M762.929688 325.039062l84.140624-57.578124"/><path d="M847.070312 267.460938h0"/><path d="M755.351562 435.390625l99.296876-23.28125"/><path d="M854.648438 412.109375h0"/><path d="M754.492188 544.140625l101.015624 14.21875"/><path d="M855.507812 558.359375h0"/><path d="M758.320312 658.203125l93.359376 41.09375"/><path d="M851.679688 699.296875h0"/><path d="M762.539062 778.007812l84.921876 56.484376"/><path d="M847.460938 834.492188h0"/><path d="M765.46875 901.523438l79.0625 64.453124"/><path d="M844.53125 965.976562h0"/><path d="M766.914062 1027.34375l76.171876 67.8125"/><path d="M843.085938 1095.15625h0"/><path d="M766.914062 1154.84375l76.171876 67.8125"/><path d="M843.085938 1222.65625h0"/><path d="M765.46875 1284.023438l79.0625 64.453124"/><path d="M844.53125 1348.476562h0"/><path d="M762.539062 1415.507812l84.921876 56.484376"/><path d="M847.460938 1471.992188h0"/><path d="M758.320312 1550.703125l93.359376 41.09375"/><path d="M851.679688 1591.796875h0"/><path d="M754.492188 1691.640625l101.015624 14.21875"/><path d="M855.507812 1705.859375h0"/><path d="M755.351562 1837.890625l99.296876-23.28125"/><path d="M854.648438 1814.609375h0"/><path d="M762.929688 1982.539062l84.140624-57.578124"/><path d="M847.070312 1924.960938h0"/><path d="M772.5 2120.546875l65-78.59375"/><path d="M837.5 2041.953125h0"/><path d="M780.3125 2253.398438l49.375-89.296876"/><path d="M829.6875 2164.101562h0"/><path d="M785.9375 2383.554688l38.125-94.609376"/><path d="M824.0625 2288.945312h0"/><path d="M789.921875 2512.460938l30.15625-97.421876"/><path d="M820.078125 2415.039062h0"/><path d="M792.8125 2640.78125l24.375-99.0625"/><path d="M817.1875 2541.71875h0"/><path d="M942.5 208.046875l65-78.59375"/><path d="M1007.5 129.453125h0"/><path d="M932.929688 325.039062l84.179687-57.578124"/><path d="M1017.109375 267.460938h0"/><path d="M925.351562 435.390625l99.296876-23.28125"/><path d="M1024.648438 412.109375h0"/><path d="M924.492188 544.140625l101.015624 14.21875"/><path d="M1025.507812 558.359375h0"/><path d="M928.320312 658.203125l93.359376 41.09375"/><path d="M1021.679688 699.296875h0"/><path d="M932.539062 778.007812l84.921876 56.484376"/><path d="M1017.460938 834.492188h0"/><path d="M935.46875 901.523438l79.0625 64.453124"/><path d="M1014.53125 965.976562h0"/><path d="M936.914062 1027.34375l76.171876 67.8125"/><path d="M1013.085938 1095.15625h0"/><path d="M936.914062 1154.84375l76.171876 67.8125"/><path d="M1013.085938 1222.65625h0"/><path d="M935.46875 1284.023438l79.0625 64.453124"/><path d="M1014.53125 1348.476562h0"/><path d="M932.539062 1415.507812l84.921876 56.484376"/><path d="M1017.460938 1471.992188h0"/><path d="M928.320312 1550.703125l93.359376 41.09375"/><path d="M1021.679688 1591.796875h0"/><path d="M924.492188 1691.640625l101.015624 14.21875"/><path d="M1025.507812 1705.859375h0"/><path d="M925.351562 1837.890625l99.296876-23.28125"/><path d="M1024.648438 1814.609375h0"/><path d="M932.929688 1982.539062l84.179687-57.578124"/><path d="M1017.109375 1924.960938h0"/><path d="M942.5 2120.546875l65-78.59375"/><path d="M1007.5 2041.953125h0"/><path d="M950.3125 2253.398438l49.375-89.296876"/><path d="M999.6875 2164.101562h0"/><path d="M955.9375 2383.554688l38.125-94.609376"/><path d="M994.0625 2288.945312h0"/><path d="M959.921875 2512.460938l30.15625-97.421876"/><path d="M990.078125 2415.039062h0"/><path d="M962.8125 2640.78125l24.375-99.0625"/><path d="M987.1875 2541.71875h0"/><path d="M1112.5 208.046875l65-78.59375"/><path d="M1177.5 129.453125h0"/><path d="M1102.890625 325.039062l84.21875-57.578124"/><path d="M1187.109375 267.460938h0"/><path d="M1095.351562 435.390625l99.296876-23.28125"/><path d="M1194.648438 412.109375h0"/><path d="M1094.492188 544.140625l101.015624 14.21875"/><path d="M1195.507812 558.359375h0"/><path d="M1098.320312 658.203125l93.359376 41.09375"/><path d="M1191.679688 699.296875h0"/><path d="M1102.539062 778.007812l84.921876 56.484376"/><path d="M1187.460938 834.492188h0"/><path d="M1105.46875 901.523438l79.0625 64.453124"/><path d="M1184.53125 965.976562h0"/><path d="M1106.914062 1027.34375l76.171876 67.8125"/><path d="M1183.085938 1095.15625h0"/><path d="M1106.914062 1154.84375l76.171876 67.8125"/><path d="M1183.085938 1222.65625h0"/><path d="M1105.46875 1284.023438l79.0625 64.453124"/><path d="M1184.53125 1348.476562h0"/><path d="M1102.539062 1415.507812l84.921876 56.484376"/><path d="M1187.460938 1471.992188h0"/><path d="M1098.320312 1550.703125l93.359376 41.09375"/><path d="M1191.679688 1591.796875h0"/><path d="M1094.492188 1691.640625l101.015624 14.21875"/><path d="M1195.507812 1705.859375h0"/><path d="M1095.351562 1837.890625l99.296876-23.28125"/><path d="M1194.648438 1814.609375h0"/><path d="M1102.890625 1982.539062l84.21875-57.578124"/><path d="M1187.109375 1924.960938h0"/><path d="M1112.5 2120.546875l65-78.59375"/><path d="M1177.5 2041.953125h0"/><path d="M1120.3125 2253.398438l49.375-89.296876"/><path d="M1169.6875 2164.101562h0"/><path d="M1125.976562 2383.554688l38.046876-94.609376"/><path d="M1164.023438 2288.945312h0"/><path d="M1129.921875 2512.460938l30.15625-97.421876"/><path d="M1160.078125 2415.039062h0"/><path d="M1132.8125 2640.78125l24.375-99.0625"/><path d="M1157.1875 2541.71875h0"/><path d="M1282.5 208.046875l65-78.59375"/><path d="M1347.5 129.453125h0"/><path d="M1272.890625 325.039062l84.21875-57.578124"/><path d="M1357.109375 267.460938h0"/><path d="M1265.351562 435.390625l99.296876-23.28125"/><path d="M1364.648438 412.109375h0"/><path d="M1264.492188 544.140625l101.015624 14.21875"/><path d="M1365.507812 558.359375h0"/><path d="M1268.320312 658.203125l93.359376 41.09375"/><path d="M1361.679688 699.296875h0"/><path d="M1272.539062 778.007812l84.921876 56.484376"/><path d="M1357.460938 834.492188h0"/><path d="M1275.46875 901.523438l79.0625 64.453124"/><path d="M1354.53125 965.976562h0"/><path d="M1276.914062 1027.34375l76.171876 67.8125"/><path d="M1353.085938 1095.15625h0"/><path d="M1276.914062 1154.84375l76.171876 67.8125"/><path d="M1353.085938 1222.65625h0"/><path d="M1275.46875 1284.023438l79.0625 64.453124"/><path d="M1354.53125 1348.476562h0"/><path d="M1272.539062 1415.507812l84.921876 56.484376"/><path d="M1357.460938 1471.992188h0"/><path d="M1268.320312 1550.703125l93.359376 41.09375"/><path d="M1361.679688 1591.796875h0"/><path d="M1264.492188 1691.640625l101.015624 14.21875"/><path d="M1365.507812 1705.859375h0"/><path d="M1265.351562 1837.890625l99.296876-23.28125"/><path d="M1364.648438 1814.609375h0"/><path d="M1272.890625 1982.539062l84.21875-57.578124"/><path d="M1357.109375 1924.960938h0"/><path d="M1282.5 2120.546875l65-78.59375"/><path d="M1347.5 2041.953125h0"/><path d="M1290.3125 2253.398438l49.375-89.296876"/><path d="M1339.6875 2164.101562h0"/><path d="M1295.976562 2383.554688l38.046876-94.609376"/><path d="M1334.023438 2288.945312h0"/><path d="M1299.921875 2512.460938l30.15625-97.421876"/><path d="M1330.078125 2415.039062h0"/><path d="M1302.8125 2640.78125l24.375-99.0625"/><path d="M1327.1875 2541.71875h0"/><path d="M1452.5 208.046875l65-78.59375"/><path d="M1517.5 129.453125h0"/><path d="M1442.890625 325.039062l84.21875-57.578124"/><path d="M1527.109375 267.460938h0"/><path d="M1435.351562 435.390625l99.296876-23.28125"/><path d="M1534.648438 412.109375h0"/><path d="M1434.492188 544.140625l101.015624 14.21875"/><path d="M1535.507812 558.359375h0"/><path d="M1438.320312 658.203125l93.359376 41.09375"/><path d="M1531.679688 699.296875h0"/><path d="M1442.539062 778.007812l84.921876 56.484376"/><path d="M1527.460938 834.492188h0"/><path d="M1445.46875 901.523438l79.0625 64.453124"/><path d="M1524.53125 965.976562h0"/><path d="M1446.914062 1027.34375l76.171876 67.8125"/><path d="M1523.085938 1095.15625h0"/><path d="M1446.914062 1154.84375l76.171876 67.8125"/><path d="M1523.085938 1222.65625h0"/><path d="M1445.46875 1284.023438l79.0625 64.453124"/><path d="M1524.53125 1348.476562h0"/><path d="M1442.539062 1415.507812l84.921876 56.484376"/><path d="M1527.460938 1471.992188h0"/><path d="M1438.320312 1550.703125l93.359376 41.09375"/><path d="M1531.679688 1591.796875h0"/><path d="M1434.492188 1691.640625l101.015624 14.21875"/><path d="M1535.507812 1705.859375h0"/><path d="M1435.351562 1837.890625l99.296876-23.28125"/><path d="M1534.648438 1814.609375h0"/><path d="M1442.890625 1982.539062l84.21875-57.578124"/><path d="M1527.109375 1924.960938h0"/><path d="M1452.5 2120.546875l65-78.59375"/><path d="M1517.5 2041.953125h0"/><path d="M1460.3125 2253.398438l49.375-89.296876"/><path d="M1509.6875 2164.101562h0"/><path d="M1465.976562 2383.554688l38.046876-94.609376"/><path d="M1504.023438 2288.945312h0"/><path d="M1469.921875 2512.460938l30.15625-97.421876"/><path d="M1500.078125 2415.039062h0"/><path d="M1472.8125 2640.78125l24.375-99.0625"/><path d="M1497.1875 2541.71875h0"/><path d="M1622.5 208.046875l65-78.59375"/><path d="M1687.5 129.453125h0"/><path d="M1612.890625 325.039062l84.21875-57.578124"/><path d="M1697.109375 267.460938h0"/><path d="M1605.351562 435.390625l99.296876-23.28125"/><path d="M1704.648438 412.109375h0"/><path d="M1604.492188 544.140625l101.015624 14.21875"/><path d="M1705.507812 558.359375h0"/><path d="M1608.320312 658.203125l93.359376 41.09375"/><path d="M1701.679688 699.296875h0"/><path d="M1612.539062 778.007812l84.921876 56.484376"/><path d="M1697.460938 834.492188h0"/><path d="M1615.46875 901.523438l79.0625 64.453124"/><path d="M1694.53125 965.976562h0"/><path d="M1616.914062 1027.34375l76.171876 67.8125"/><path d="M1693.085938 1095.15625h0"/><path d="M1616.914062 1154.84375l76.171876 67.8125"/><path d="M1693.085938 1222.65625h0"/><path d="M1615.46875 1284.023438l79.0625 64.453124"/><path d="M1694.53125 1348.476562h0"/><path d="M1612.539062 1415.507812l84.921876 56.484376"/><path d="M1697.460938 1471.992188h0"/><path d="M1608.320312 1550.703125l93.359376 41.09375"/><path d="M1701.679688 1591.796875h0"/><path d="M1604.492188 1691.640625l101.015624 14.21875"/><path d="M1705.507812 1705.859375h0"/><path d="M1605.351562 1837.890625l99.296876-23.28125"/><path d="M1704.648438 1814.609375h0"/><path d="M1612.890625 1982.539062l84.21875-57.578124"/><path d="M1697.109375 1924.960938h0"/><path d="M1622.5 2120.546875l65-78.59375"/><path d="M1687.5 2041.953125h0"/><path d="M1630.3125 2253.398438l49.375-89.296876"/><path d="M1679.6875 2164.101562h0"/><path d="M1635.976562 2383.554688l38.046876-94.609376"/><path d="M1674.023438 2288.945312h0"/><path d="M1639.921875 2512.460938l30.15625-97.421876"/><path d="M1670.078125 2415.039062h0"/><path d="M1642.8125 2640.78125l24.375-99.0625"/><path d="M1667.1875 2541.71875h0"/><path d="M1792.5 208.046875l65-78.59375"/><path d="M1857.5 129.453125h0"/><path d="M1782.890625 325.039062l84.21875-57.578124"/><path d="M1867.109375 267.460938h0"/><path d="M1775.351562 435.390625l99.296876-23.28125"/><path d="M1874.648438 412.109375h0"/><path d="M1774.492188 544.140625l101.015624 14.21875"/><path d="M1875.507812 558.359375h0"/><path d="M1778.320312 658.203125l93.359376 41.09375"/><path d="M1871.679688 699.296875h0"/><path d="M1782.539062 778.007812l84.921876 56.484376"/><path d="M1867.460938 834.492188h0"/><path d="M1785.46875 901.523438l79.0625 64.453124"/><path d="M1864.53125 965.976562h0"/><path d="M1786.914062 1027.34375l76.171876 67.8125"/><path d="M1863.085938 1095.15625h0"/><path d="M1786.914062 1154.84375l76.171876 67.8125"/><path d="M1863.085938 1222.65625h0"/><path d="M1785.46875 1284.023438l79.0625 64.453124"/><path d="M1864.53125 1348.476562h0"/><path d="M1782.539062 1415.507812l84.921876 56.484376"/><path d="M1867.460938 1471.992188h0"/><path d="M1778.320312 1550.703125l93.359376 41.09375"/><path d="M1871.679688 1591.796875h0"/><path d="M1774.492188 1691.640625l101.015624 14.21875"/><path d="M1875.507812 1705.859375h0"/><path d="M1775.351562 1837.890625l99.296876-23.28125"/><path d="M1874.648438 1814.609375h0"/><path d="M1782.890625 1982.539062l84.21875-57.578124"/><path d="M1867.109375 1924.960938h0"/><path d="M1792.5 2120.546875l65-78.59375"/><path d="M1857.5 2041.953125h0"/><path d="M1800.3125 2253.398438l49.375-89.296876"/><path d="M1849.6875 2164.101562h0"/><path d="M1805.976562 2383.554688l38.046876-94.609376"/><path d="M1844.023438 2288.945312h0"/><path d="M1809.921875 2512.460938l30.15625-97.421876"/><path d="M1840.078125 2415.039062h0"/><path d="M1812.8125 2640.78125l24.375-99.0625"/><path d="M1837.1875 2541.71875h0"/><path d="M1962.5 208.046875l65-78.59375"/><path d="M2027.5 129.453125h0"/><path d="M1952.890625 325.039062l84.21875-57.578124"/><path d="M2037.109375 267.460938h0"/><path d="M1945.351562 435.390625l99.296876-23.28125"/><path d="M2044.648438 412.109375h0"/><path d="M1944.492188 544.140625l101.015624 14.21875"/><path d="M2045.507812 558.359375h0"/><path d="M1948.320312 658.203125l93.359376 41.09375"/><path d="M2041.679688 699.296875h0"/><path d="M1952.539062 778.007812l84.921876 56.484376"/><path d="M2037.460938 834.492188h0"/><path d="M1955.46875 901.523438l79.0625 64.453124"/><path d="M2034.53125 965.976562h0"/><path d="M1956.914062 1027.34375l76.171876 67.8125"/><path d="M2033.085938 1095.15625h0"/><path d="M1956.914062 1154.84375l76.171876 67.8125"/><path d="M2033.085938 1222.65625h0"/><path d="M1955.46875 1284.023438l79.0625 64.453124"/><path d="M2034.53125 1348.476562h0"/><path d="M1952.539062 1415.507812l84.921876 56.484376"/><path d="M2037.460938 1471.992188h0"/><path d="M1948.320312 1550.703125l93.359376 41.09375"/><path d="M2041.679688 1591.796875h0"/><path d="M1944.492188 1691.640625l101.015624 14.21875"/><path d="M2045.507812 1705.859375h0"/><path d="M1945.351562 1837.890625l99.296876-23.28125"/><path d="M2044.648438 1814.609375h0"/><path d="M1952.890625 1982.539062l84.21875-57.578124"/><path d="M2037.109375 1924.960938h0"/><path d="M1962.5 2120.546875l65-78.59375"/><path d="M2027.5 2041.953125h0"/><path d="M1970.3125 2253.398438l49.375-89.296876"/><path d="M2019.6875 2164.101562h0"/><path d="M1975.976562 2383.554688l38.046876-94.609376"/><path d="M2014.023438 2288.945312h0"/><path d="M1979.921875 2512.460938l30.15625-97.421876"/><path d="M2010.078125 2415.039062h0"/><path d="M1982.8125 2640.78125l24.375-99.0625"/><path d="M2007.1875 2541.71875h0"/><path d="M2132.5 208.046875l65-78.59375"/><path d="M2197.5 129.453125h0"/><path d="M2122.890625 325.039062l84.21875-57.578124"/><path d="M2207.109375 267.460938h0"/><path d="M2115.351562 435.390625l99.296876-23.28125"/><path d="M2214.648438 412.109375h0"/><path d="M2114.492188 544.140625l101.015624 14.21875"/><path d="M2215.507812 558.359375h0"/><path d="M2118.320312 658.203125l93.359376 41.09375"/><path d="M2211.679688 699.296875h0"/><path d="M2122.539062 778.007812l84.921876 56.484376"/><path d="M2207.460938 834.492188h0"/><path d="M2125.46875 901.523438l79.0625 64.453124"/><path d="M2204.53125 965.976562h0"/><path d="M2126.914062 1027.34375l76.171876 67.8125"/><path d="M2203.085938 1095.15625h0"/><path d="M2126.914062 1154.84375l76.171876 67.8125"/><path d="M2203.085938 1222.65625h0"/><path d="M2125.46875 1284.023438l79.0625 64.453124"/><path d="M2204.53125 1348.476562h0"/><path d="M2122.539062 1415.507812l84.921876 56.484376"/><path d="M2207.460938 1471.992188h0"/><path d="M2118.320312 1550.703125l93.359376 41.09375"/><path d="M2211.679688 1591.796875h0"/><path d="M2114.492188 1691.640625l101.015624 14.21875"/><path d="M2215.507812 1705.859375h0"/><path d="M2115.351562 1837.890625l99.296876-23.28125"/><path d="M2214.648438 1814.609375h0"/><path d="M2122.890625 1982.539062l84.21875-57.578124"/><path d="M2207.109375 1924.960938h0"/><path d="M2132.5 2120.546875l65-78.59375"/><path d="M2197.5 2041.953125h0"/><path d="M2140.3125 2253.398438l49.375-89.296876"/><path d="M2189.6875 2164.101562h0"/><path d="M2145.976562 2383.554688l38.046876-94.609376"/><path d="M2184.023438 2288.945312h0"/><path d="M2149.921875 2512.460938l30.15625-97.421876"/><path d="M2180.078125 2415.039062h0"/><path d="M2152.8125 2640.78125l24.375-99.0625"/><path d="M2177.1875 2541.71875h0"/><path d="M2302.5 208.046875l65-78.59375"/><path d="M2367.5 129.453125h0"/><path d="M2292.890625 325.039062l84.21875-57.578124"/><path d="M2377.109375 267.460938h0"/><path d="M2285.351562 435.390625l99.296876-23.28125"/><path d="M2384.648438 412.109375h0"/><path d="M2284.492188 544.140625l101.015624 14.21875"/><path d="M2385.507812 558.359375h0"/><path d="M2288.320312 658.203125l93.359376 41.09375"/><path d="M2381.679688 699.296875h0"/><path d="M2292.539062 778.007812l84.921876 56.484376"/><path d="M2377.460938 834.492188h0"/><path d="M2295.46875 901.523438l79.0625 64.453124"/><path d="M2374.53125 965.976562h0"/><path d="M2296.914062 1027.34375l76.171876 67.8125"/><path d="M2373.085938 1095.15625h0"/><path d="M2296.914062 1154.84375l76.171876 67.8125"/><path d="M2373.085938 1222.65625h0"/><path d="M2295.46875 1284.023438l79.0625 64.453124"/><path d="M2374.53125 1348.476562h0"/><path d="M2292.539062 1415.507812l84.921876 56.484376"/><path d="M2377.460938 1471.992188h0"/><path d="M2288.320312 1550.703125l93.359376 41.09375"/><path d="M2381.679688 1591.796875h0"/><path d="M2284.492188 1691.640625l101.015624 14.21875"/><path d="M2385.507812 1705.859375h0"/><path d="M2285.351562 1837.890625l99.296876-23.28125"/><path d="M2384.648438 1814.609375h0"/><path d="M2292.890625 1982.539062l84.21875-57.578124"/><path d="M2377.109375 1924.960938h0"/><path d="M2302.5 2120.546875l65-78.59375"/><path d="M2367.5 2041.953125h0"/><path d="M2310.3125 2253.398438l49.375-89.296876"/><path d="M2359.6875 2164.101562h0"/><path d="M2315.976562 2383.554688l38.046876-94.609376"/><path d="M2354.023438 2288.945312h0"/><path d="M2319.921875 2512.460938l30.15625-97.421876"/><path d="M2350.078125 2415.039062h0"/><path d="M2322.8125 2640.78125l24.375-99.0625"/><path d="M2347.1875 2541.71875h0"/><path d="M2472.5 208.046875l65-78.59375"/><path d="M2537.5 129.453125h0"/><path d="M2462.890625 325.039062l84.21875-57.578124"/><path d="M2547.109375 267.460938h0"/><path d="M2455.351562 435.390625l99.296876-23.28125"/><path d="M2554.648438 412.109375h0"/><path d="M2454.492188 544.140625l101.015624 14.21875"/><path d="M2555.507812 558.359375h0"/><path d="M2458.320312 658.203125l93.359376 41.09375"/><path d="M2551.679688 699.296875h0"/><path d="M2462.539062 778.007812l84.921876 56.484376"/><path d="M2547.460938 834.492188h0"/><path d="M2465.46875 901.523438l79.0625 64.453124"/><path d="M2544.53125 965.976562h0"/><path d="M2466.914062 1027.34375l76.171876 67.8125"/><path d="M2543.085938 1095.15625h0"/><path d="M2466.914062 1154.84375l76.171876 67.8125"/><path d="M2543.085938 1222.65625h0"/><path d="M2465.46875 1284.023438l79.0625 64.453124"/><path d="M2544.53125 1348.476562h0"/><path d="M2462.539062 1415.507812l84.921876 56.484376"/><path d="M2547.460938 1471.992188h0"/><path d="M2458.320312 1550.703125l93.359376 41.09375"/><path d="M2551.679688 1591.796875h0"/><path d="M2454.492188 1691.640625l101.015624 14.21875"/><path d="M2555.507812 1705.859375h0"/><path d="M2455.351562 1837.890625l99.296876-23.28125"/><path d="M2554.648438 1814.609375h0"/><path d="M2462.890625 1982.539062l84.21875-57.578124"/><path d="M2547.109375 1924.960938h0"/><path d="M2472.5 2120.546875l65-78.59375"/><path d="M2537.5 2041.953125h0"/><path d="M2480.3125 2253.398438l49.375-89.296876"/><path d="M2529.6875 2164.101562h0"/><path d="M2485.976562 2383.554688l38.046876-94.609376"/><path d="M2524.023438 2288.945312h0"/><path d="M2489.921875 2512.460938l30.15625-97.421876"/><path d="M2520.078125 2415.039062h0"/><path d="M2492.8125 2640.78125l24.375-99.0625"/><path d="M2517.1875 2541.71875h0"/><path d="M2642.5 208.046875l65-78.59375"/><path d="M2707.5 129.453125h0"/><path d="M2632.890625 325.039062l84.21875-57.578124"/><path d="M2717.109375 267.460938h0"/><path d="M2625.351562 435.390625l99.296876-23.28125"/><path d="M2724.648438 412.109375h0"/><path d="M2624.492188 544.140625l101.015624 14.21875"/><path d="M2725.507812 558.359375h0"/><path d="M2628.320312 658.203125l93.359376 41.09375"/><path d="M2721.679688 699.296875h0"/><path d="M2632.539062 778.007812l84.921876 56.484376"/><path d="M2717.460938 834.492188h0"/><path d="M2635.46875 901.523438l79.0625 64.453124"/><path d="M2714.53125 965.976562h0"/><path d="M2636.914062 1027.34375l76.171876 67.8125"/><path d="M2713.085938 1095.15625h0"/><path d="M2636.914062 1154.84375l76.171876 67.8125"/><path d="M2713.085938 1222.65625h0"/><path d="M2635.46875 1284.023438l79.0625 64.453124"/><path d="M2714.53125 1348.476562h0"/><path d="M2632.539062 1415.507812l84.921876 56.484376"/><path d="M2717.460938 1471.992188h0"/><path d="M2628.320312 1550.703125l93.359376 41.09375"/><path d="M2721.679688 1591.796875h0"/><path d="M2624.492188 1691.640625l101.015624 14.21875"/><path d="M2725.507812 1705.859375h0"/><path d="M2625.351562 1837.890625l99.296876-23.28125"/><path d="M2724.648438 1814.609375h0"/><path d="M2632.890625 1982.539062l84.21875-57.578124"/><path d="M2717.109375 1924.960938h0"/><path d="M2642.5 2120.546875l65-78.59375"/><path d="M2707.5 2041.953125h0"/><path d="M2650.3125 2253.398438l49.375-89.296876"/><path d="M2699.6875 2164.101562h0"/><path d="M2655.976562 2383.554688l38.046876-94.609376"/><path d="M2694.023438 2288.945312h0"/><path d="M2659.921875 2512.460938l30.15625-97.421876"/><path d="M2690.078125 2415.039062h0"/><path d="M2662.8125 2640.78125l24.375-99.0625"/><path d="M2687.1875 2541.71875h0"/><path d="M2812.5 208.046875l65-78.59375"/><path d="M2877.5 129.453125h0"/><path d="M2802.890625 325.039062l84.21875-57.578124"/><path d="M2887.109375 267.460938h0"/><path d="M2795.351562 435.390625l99.296876-23.28125"/><path d="M2894.648438 412.109375h0"/><path d="M2794.492188 544.140625l101.015624 14.21875"/><path d="M2895.507812 558.359375h0"/><path d="M2798.320312 658.203125l93.359376 41.09375"/><path d="M2891.679688 699.296875h0"/><path d="M2802.539062 778.007812l84.921876 56.484376"/><path d="M2887.460938 834.492188h0"/><path d="M2805.46875 901.523438l79.0625 64.453124"/><path d="M2884.53125 965.976562h0"/><path d="M2806.914062 1027.34375l76.171876 67.8125"/><path d="M2883.085938 1095.15625h0"/><path d="M2806.914062 1154.84375l76.171876 67.8125"/><path d="M2883.085938 1222.65625h0"/><path d="M2805.46875 1284.023438l79.0625 64.453124"/><path d="M2884.53125 1348.476562h0"/><path d="M2802.539062 1415.507812l84.921876 56.484376"/><path d="M2887.460938 1471.992188h0"/><path d="M2798.320312 1550.703125l93.359376 41.09375"/><path d="M2891.679688 1591.796875h0"/><path d="M2794.492188 1691.640625l101.015624 14.21875"/><path d="M2895.507812 1705.859375h0"/><path d="M2795.351562 1837.890625l99.296876-23.28125"/><path d="M2894.648438 1814.609375h0"/><path d="M2802.890625 1982.539062l84.21875-57.578124"/><path d="M2887.109375 1924.960938h0"/><path d="M2812.5 2120.546875l65-78.59375"/><path d="M2877.5 2041.953125h0"/><path d="M2820.3125 2253.398438l49.375-89.296876"/><path d="M2869.6875 2164.101562h0"/><path d="M2825.976562 2383.554688l38.046876-94.609376"/><path d="M2864.023438 2288.945312h0"/><path d="M2829.921875 2512.460938l30.15625-97.421876"/><path d="M2860.078125 2415.039062h0"/><path d="M2832.8125 2640.78125l24.375-99.0625"/><path d="M2857.1875 2541.71875h0"/><path d="M2982.5 208.046875l65-78.59375"/><path d="M3047.5 129.453125h0"/><path d="M2972.890625 325.039062l84.21875-57.578124"/><path d="M3057.109375 267.460938h0"/><path d="M2965.351562 435.390625l99.296876-23.28125"/><path d="M3064.648438 412.109375h0"/><path d="M2964.492188 544.140625l101.015624 14.21875"/><path d="M3065.507812 558.359375h0"/><path d="M2968.320312 658.203125l93.359376 41.09375"/><path d="M3061.679688 699.296875h0"/><path d="M2972.539062 778.007812l84.921876 56.484376"/><path d="M3057.460938 834.492188h0"/><path d="M2975.46875 901.523438l79.0625 64.453124"/><path d="M3054.53125 965.976562h0"/><path d="M2976.914062 1027.34375l76.171876 67.8125"/><path d="M3053.085938 1095.15625h0"/><path d="M2976.914062 1154.84375l76.171876 67.8125"/><path d="M3053.085938 1222.65625h0"/><path d="M2975.46875 1284.023438l79.0625 64.453124"/><path d="M3054.53125 1348.476562h0"/><path d="M2972.539062 1415.507812l84.921876 56.484376"/><path d="M3057.460938 1471.992188h0"/><path d="M2968.320312 1550.703125l93.359376 41.09375"/><path d="M3061.679688 1591.796875h0"/><path d="M2964.492188 1691.640625l101.015624 14.21875"/><path d="M3065.507812 1705.859375h0"/><path d="M2965.351562 1837.890625l99.296876-23.28125"/><path d="M3064.648438 1814.609375h0"/><path d="M2972.890625 1982.539062l84.21875-57.578124"/><path d="M3057.109375 1924.960938h0"/><path d="M2982.5 2120.546875l65-78.59375"/><path d="M3047.5 2041.953125h0"/><path d="M2990.3125 2253.398438l49.375-89.296876"/><path d="M3039.6875 2164.101562h0"/><path d="M2995.976562 2383.554688l38.046876-94.609376"/><path d="M3034.023438 2288.945312h0"/><path d="M2999.921875 2512.460938l30.15625-97.421876"/><path d="M3030.078125 2415.039062h0"/><path d="M3002.8125 2640.78125l24.375-99.0625"/><path d="M3027.1875 2541.71875h0"/><path d="M3152.5 208.046875l65-78.59375"/><path d="M3217.5 129.453125h0"/><path d="M3142.890625 325.039062l84.21875-57.578124"/><path d="M3227.109375 267.460938h0"/><path d="M3135.351562 435.390625l99.296876-23.28125"/><path d="M3234.648438 412.109375h0"/><path d="M3134.492188 544.140625l101.015624 14.21875"/><path d="M3235.507812 558.359375h0"/><path d="M3138.320312 658.203125l93.359376 41.09375"/><path d="M3231.679688 699.296875h0"/><path d="M3142.539062 778.007812l84.921876 56.484376"/><path d="M3227.460938 834.492188h0"/><path d="M3145.46875 901.523438l79.0625 64.453124"/><path d="M3224.53125 965.976562h0"/><path d="M3146.914062 1027.34375l76.171876 67.8125"/><path d="M3223.085938 1095.15625h0"/><path d="M3146.914062 1154.84375l76.171876 67.8125"/><path d="M3223.085938 1222.65625h0"/><path d="M3145.46875 1284.023438l79.0625 64.453124"/><path d="M3224.53125 1348.476562h0"/><path d="M3142.539062 1415.507812l84.921876 56.484376"/><path d="M3227.460938 1471.992188h0"/><path d="M3138.320312 1550.703125l93.359376 41.09375"/><path d="M3231.679688 1591.796875h0"/><path d="M3134.492188 1691.640625l101.015624 14.21875"/><path d="M3235.507812 1705.859375h0"/><path d="M3135.351562 1837.890625l99.296876-23.28125"/><path d="M3234.648438 1814.609375h0"/><path d="M3142.890625 1982.539062l84.21875-57.578124"/><path d="M3227.109375 1924.960938h0"/><path d="M3152.5 2120.546875l65-78.59375"/><path d="M3217.5 2041.953125h0"/><path d="M3160.3125 2253.398438l49.375-89.296876"/><path d="M3209.6875 2164.101562h0"/><path d="M3165.976562 2383.554688l38.046876-94.609376"/><path d="M3204.023438 2288.945312h0"/><path d="M3169.921875 2512.460938l30.15625-97.421876"/><path d="M3200.078125 2415.039062h0"/><path d="M3172.8125 2640.78125l24.375-99.0625"/><path d="M3197.1875 2541.71875h0"/><path d="M3322.5 208.046875l65-78.59375"/><path d="M3387.5 129.453125h0"/><path d="M3312.890625 325.039062l84.21875-57.578124"/><path d="M3397.109375 267.460938h0"/><path d="M3305.351562 435.390625l99.296876-23.28125"/><path d="M3404.648438 412.109375h0"/><path d="M3304.492188 544.140625l101.015624 14.21875"/><path d="M3405.507812 558.359375h0"/><path d="M3308.320312 658.203125l93.359376 41.09375"/><path d="M3401.679688 699.296875h0"/><path d="M3312.539062 778.007812l84.921876 56.484376"/><path d="M3397.460938 834.492188h0"/><path d="M3315.46875 901.523438l79.0625 64.453124"/><path d="M3394.53125 965.976562h0"/><path d="M3316.914062 1027.34375l76.171876 67.8125"/><path d="M3393.085938 1095.15625h0"/><path d="M3316.914062 1154.84375l76.171876 67.8125"/><path d="M3393.085938 1222.65625h0"/><path d="M3315.46875 1284.023438l79.0625 64.453124"/><path d="M3394.53125 1348.476562h0"/><path d="M3312.539062 1415.507812l84.921876 56.484376"/><path d="M3397.460938 1471.992188h0"/><path d="M3308.320312 1550.703125l93.359376 41.09375"/><path d="M3401.679688 1591.796875h0"/><path d="M3304.492188 1691.640625l101.015624 14.21875"/><path d="M3405.507812 1705.859375h0"/><path d="M3305.351562 1837.890625l99.296876-23.28125"/><path d="M3404.648438 1814.609375h0"/><path d="M3312.890625 1982.539062l84.21875-57.578124"/><path d="M3397.109375 1924.960938h0"/><path d="M3322.5 2120.546875l65-78.59375"/><path d="M3387.5 2041.953125h0"/><path d="M3330.3125 2253.398438l49.375-89.296876"/><path d="M3379.6875 2164.101562h0"/><path d="M3335.976562 2383.554688l38.046876-94.609376"/><path d="M3374.023438 2288.945312h0"/><path d="M3339.921875 2512.460938l30.15625-97.421876"/><path d="M3370.078125 2415.039062h0"/><path d="M3342.8125 2640.78125l24.375-99.0625"/><path d="M3367.1875 2541.71875h0"/><path d="M3492.5 208.046875l65-78.59375"/><path d="M3557.5 129.453125h0"/><path d="M3482.890625 325.039062l84.21875-57.578124"/><path d="M3567.109375 267.460938h0"/><path d="M3475.351562 435.390625l99.296876-23.28125"/><path d="M3574.648438 412.109375h0"/><path d="M3474.492188 544.140625l101.015624 14.21875"/><path d="M3575.507812 558.359375h0"/><path d="M3478.320312 658.203125l93.359376 41.09375"/><path d="M3571.679688 699.296875h0"/><path d="M3482.539062 778.007812l84.921876 56.484376"/><path d="M3567.460938 834.492188h0"/><path d="M3485.46875 901.523438l79.0625 64.453124"/><path d="M3564.53125 965.976562h0"/><path d="M3486.914062 1027.34375l76.171876 67.8125"/><path d="M3563.085938 1095.15625h0"/><path d="M3486.914062 1154.84375l76.171876 67.8125"/><path d="M3563.085938 1222.65625h0"/><path d="M3485.46875 1284.023438l79.0625 64.453124"/><path d="M3564.53125 1348.476562h0"/><path d="M3482.539062 1415.507812l84.921876 56.484376"/><path d="M3567.460938 1471.992188h0"/><path d="M3478.320312 1550.703125l93.359376 41.09375"/><path d="M3571.679688 1591.796875h0"/><path d="M3474.492188 1691.640625l101.015624 14.21875"/><path d="M3575.507812 1705.859375h0"/><path d="M3475.351562 1837.890625l99.296876-23.28125"/><path d="M3574.648438 1814.609375h0"/><path d="M3482.890625 1982.539062l84.21875-57.578124"/><path d="M3567.109375 1924.960938h0"/><path d="M3492.5 2120.546875l65-78.59375"/><path d="M3557.5 2041.953125h0"/><path d="M3500.3125 2253.398438l49.375-89.296876"/><path d="M3549.6875 2164.101562h0"/><path d="M3505.976562 2383.554688l38.046876-94.609376"/><path d="M3544.023438 2288.945312h0"/><path d="M3509.921875 2512.460938l30.15625-97.421876"/><path d="M3540.078125 2415.039062h0"/><path d="M3512.8125 2640.78125l24.375-99.0625"/><path d="M3537.1875 2541.71875h0"/></g><g clip-path="url(#u)"><path d="M501.757812 2687.148438l33.984376-143.164063 34.023437-114.492187L603.75 2336.25l33.984375-77.070312 34.023437-64.492188 33.984376-54.53125 34.023437-46.484375L773.75 2053.710938l33.984375-34.492188 34.023437-30 33.984376-26.171875 34.023437-22.96875L943.75 1919.882812l33.984375-17.8125 34.023437-15.78125 33.984376-14.023437 34.023437-12.460937 33.984375-11.09375 33.984375-9.921876 34.023437-8.828124 33.984376-7.96875 34.023437-7.070313 33.984375-6.40625 33.984375-5.742187 34.023437-5.117188 33.984376-4.648438 34.023437-4.179687 33.984375-3.75 33.984375-3.398437 34.023437-3.085938 33.984376-2.734375 34.023437-2.5 33.984375-2.265625 33.984375-2.03125 34.023437-1.835938 33.984376-1.679687 34.023437-1.484375 33.984375-1.367188 33.984375-1.25 34.023437-1.09375 33.984376-1.015624 34.023437-.898438 33.984375-.820312 33.984375-.78125 34.023437-.664063 33.984376-.625L2099.765625 1755l33.984375-.507812 33.984375-.46875 34.023437-.390626 33.984376-.390624 34.023437-.351563 33.984375-.273437 33.984375-.3125 34.023437-.234376 33.984376-.234374 34.023437-.195313 33.984375-.195313 33.984375-.15625 34.023437-.15625 33.984376-.15625 34.023437-.117187 67.96875-.234375 34.023437-.078125 33.984376-.078125 34.023437-.078125 67.96875-.15625 34.023437-.039063 33.984376-.078124 34.023437-.039063 67.96875-.078125 34.023437-.039062 33.984376-.039063h34.023437l67.96875-.078125h34.023437l33.984376-.039062h34.023437l33.984375-.039063h68.007812l33.984376-.039063h101.992187l34.023437-.039062h68.007813" class="b"/></g><g clip-path="url(#v)"><path d="M176.992188 846.5625l34.023437 25.039062L245 897.695312l33.984375 26.992188 34.023437 27.851562 33.984376 28.632813 34.023437 29.296875L415 1040.273438l33.984375 30.234374 34.023437 30.46875 33.984376 30.585938 34.023437 30.546875L585 1192.5l33.984375 30.078125 34.023437 29.570313 33.984376 29.023437 34.023437 28.320313 33.984375 27.5 33.984375 26.640624 34.023437 25.625 33.984376 24.609376 34.023437 23.476562L925 1459.726562l33.984375 21.25 34.023437 20.078126L1026.992188 1520l34.023437 17.773438L1095 1554.453125l33.984375 15.625 34.023437 14.53125 33.984376 13.515625 34.023437 12.578125L1265 1622.34375l33.984375 10.78125 34.023437 9.960938 33.984376 9.140624 34.023437 8.4375L1435 1668.4375l33.984375 7.148438 34.023437 6.523437 33.984376 5.976563 34.023437 5.507812 33.984375 5 33.984375 4.570312 34.023437 4.21875 33.984376 3.828126 34.023437 3.476562L1775 1717.851562l33.984375 2.890626 34.023437 2.65625 33.984376 2.382812 34.023437 2.1875L1945 1729.960938l33.984375 1.796874 34.023437 1.679688 33.984376 1.484375 34.023437 1.367187L2115 1737.5l33.984375 1.132812 34.023437 1.015626 33.984376.9375 34.023437.820312L2285 1742.1875l33.984375.664062 34.023437.625 33.984376.585938 34.023437.507812 33.984375.46875 33.984375.429688 34.023437.390625 33.984376.351563 34.023437.3125 67.96875.546874 34.023437.234376 33.984376.234374 34.023437.195313 67.96875.3125 34.023437.15625 33.984376.15625 34.023437.117187 33.984375.078126 33.984375.117187 34.023437.078125 33.984376.078125 34.023437.078125 33.984375.078125 33.984375.039063 34.023437.078124 33.984376.039063 34.023437.039063 67.96875.078124 34.023437.039063 33.984376.039063h34.023437l67.96875.078124h34.023437l33.984376.039063h34.023437" class="b"/></g><g clip-path="url(#w)"><path d="M202.5 506.054688l33.984375.546874 34.023437.664063 33.984376.703125 34.023437.742188 33.984375.859374 33.984375.9375 34.023437 1.054688 33.984376 1.132812 34.023437 1.25L542.5 515.351562l33.984375 1.484376 34.023437 1.679687 33.984376 1.835937 34.023437 2.03125L712.5 524.609375l33.984375 2.460937 34.023437 2.65625 33.984376 2.96875 34.023437 3.203126L882.5 539.453125l33.984375 3.867187 34.023437 4.257813 33.984376 4.648437 34.023437 5.117188L1052.5 562.890625l33.984375 6.09375 34.023437 6.640625 33.984376 7.226562 34.023437 7.890626L1222.5 599.296875l33.984375 9.296875 34.023437 10.078125 33.984376 10.9375 34.023437 11.796875L1392.5 654.140625l33.984375 13.710937 34.023437 14.726563 33.984376 15.78125 34.023437 16.875L1562.5 733.203125l33.984375 19.140625 34.023437 20.273438 33.984376 21.445312 34.023437 22.578125L1732.5 840.351562l33.984375 24.765626 34.023437 25.820312 33.984376 26.757812 34.023437 27.65625L1902.5 973.828125l33.984375 29.101563 34.023437 29.6875 33.984376 30.15625 34.023437 30.390624 67.96875 61.171876 34.023437 30.429687 33.984376 30.15625 34.023437 29.726563L2242.5 1273.828125l33.984375 28.515625 34.023437 27.734375 33.984376 26.835937 34.023437 25.898438L2412.5 1407.65625l33.984375 23.789062 34.023437 22.65625 33.984376 21.5625 34.023437 20.390626 33.984375 19.21875 33.984375 18.085937 34.023437 16.953125 33.984376 15.859375 34.023437 14.804687L2752.5 1594.765625l33.984375 12.8125 34.023437 11.875 33.984376 11.015625 34.023437 10.15625 33.984375 9.335938 33.984375 8.632812 34.023437 7.929688 33.984376 7.265624 34.023437 6.71875 33.984375 6.09375 33.984375 5.625 34.023437 5.117188 33.984376 4.6875 34.023437 4.296875 33.984375 3.90625 33.984375 3.59375 34.023437 3.242187 33.984376 2.96875 34.023437 2.695313 33.984375 2.460937 33.984375 2.226563 34.023437 2.070313 33.984376 1.835937 34.023437 1.679687L3602.5 1734.53125l33.984375 1.40625" class="b"/></g><g clip-path="url(#x)"><path d="M206.25 500.585938h68.007812l33.984376.039062 34.023437.039062 33.984375.039063h33.984375l34.023437.039063 33.984376.039062 34.023437.039062 33.984375.078126 33.984375.039062 34.023437.039062 33.984376.078126 34.023437.078124 67.96875.15625 34.023437.078126 33.984376.117187 34.023437.117187 67.96875.234376 34.023437.15625 33.984376.195312 34.023437.15625 33.984375.195312 33.984375.234376 34.023437.234374 33.984376.273438 34.023437.3125 67.96875.703125 34.023437.390625 33.984376.429688 34.023437.507812 33.984375.507812 33.984375.625 34.023437.625 33.984376.742188 34.023437.78125 33.984375.859375 33.984375.976563 34.023437 1.054687 33.984376 1.132813 34.023437 1.289062L1736.25 515.625l33.984375 1.5625 34.023437 1.71875 33.984376 1.875 34.023437 2.03125 33.984375 2.265625 33.984375 2.5 34.023437 2.734375 33.984376 3.007812 34.023437 3.28125 33.984375 3.59375 33.984375 3.984376 34.023437 4.335937 33.984376 4.726563 34.023437 5.195312 33.984375 5.664062 33.984375 6.210938 34.023437 6.757812 33.984376 7.34375 34.023437 8.007813 33.984375 8.710937 33.984375 9.453126 34.023437 10.273437 33.984376 11.09375 34.023437 11.992187L2586.25 656.835938l33.984375 13.945312 34.023437 14.921875 33.984376 16.015625 34.023437 17.070312L2756.25 737.03125l33.984375 19.375 34.023437 20.507812 33.984376 21.679688 34.023437 22.8125L2926.25 845.3125l33.984375 25 34.023437 26.015625 33.984376 26.953125 34.023437 27.8125L3096.25 979.6875l33.984375 29.257812 34.023437 29.804688 33.984376 30.195312 34.023437 30.46875L3266.25 1130l33.984375 30.546875 34.023437 30.429687 33.984376 30.039063 34.023437 29.648437 33.984375 29.0625 33.984375 28.359376 34.023437 27.539062 33.984376 26.640625 34.023437 25.703125 33.984375 24.648438 33.984375 23.554687" class="b"/></g><g clip-path="url(#y)"><path d="M191.992188 500.273438H260l33.984375-.039063h34.023437l33.984376-.039063H430l33.984375-.039062h34.023437l33.984376-.039062 34.023437-.039063L600 500.039062h33.984375l34.023437-.078124 33.984376-.039063 34.023437-.039063 67.96875-.078124 34.023437-.078126 33.984376-.078124 34.023437-.078126 67.96875-.15625 34.023437-.117187 33.984376-.078125 34.023437-.15625L1110 498.945312l33.984375-.15625 34.023437-.15625 33.984376-.195312 34.023437-.15625 67.96875-.46875 34.023437-.273438 33.984376-.3125 34.023437-.3125L1450 496.5625l33.984375-.390625 34.023437-.429687 33.984376-.507813 34.023437-.507813L1620 494.140625l33.984375-.664063 34.023437-.703124 33.984376-.78125 34.023437-.898438L1790 490.15625l33.984375-1.054688 34.023437-1.171874 33.984376-1.328126 34.023437-1.40625L1960 483.59375l33.984375-1.757812 34.023437-1.953126 33.984376-2.109374 34.023437-2.382813L2130 472.734375l33.984375-2.890625 34.023437-3.242188 33.984376-3.59375 34.023437-3.945312L2300 454.648438l33.984375-4.921876 34.023437-5.429687 33.984376-6.054687 34.023437-6.757813L2470 423.945312l33.984375-8.398437 34.023437-9.375 33.984376-10.507813 34.023437-11.796874L2640 370.664062l33.984375-14.921874 34.023437-16.796876 33.984376-19.023437 34.023437-21.601563L2810 273.75l33.984375-28.085938 34.023437-32.226562 33.984376-37.226562 34.023437-43.164063L2980 82.578125" class="b"/></g><g clip-path="url(#z)"><path d="M210 500.390625h1666.015625L1910 500.351562h543.984375l34.023437-.039062h203.984376l34.023437-.039062h101.992187l33.984376-.039063h34.023437L2930 500.195312h68.007812l33.984376-.039062 34.023437-.039062H3100l33.984375-.039063 34.023437-.039063h33.984376l34.023437-.078124 67.96875-.078126 34.023437-.039062 33.984376-.039062 34.023437-.078126 67.96875-.15625 34.023437-.078124 33.984376-.078126 34.023437-.117187 67.96875-.234375" class="b"/></g><g clip-path="url(#A)"><path d="M210 1749.609375h3433.984375" class="b"/></g><style>.a{fill:none;stroke:#bfbfbf;stroke-dasharray:12.5,18.75;stroke-linecap:round;stroke-miterlimit:10;stroke-width:6.25;transform:matrix(.1,0,0,-.1,0,274)}.b{fill:none;stroke:red;stroke-linecap:round;stroke-linejoin:round;stroke-miterlimit:10;stroke-width:12.5;transform:matrix(.1,0,0,-.1,0,274)}.c{fill:none;stroke:#000;stroke-miterlimit:10;transform:matrix(.1,0,0,-.1,0,274)}.d{stroke-linecap:square;stroke-width:12.5}.e{stroke-width:6.25}.f{fill:none;stroke:#bfbfbf;stroke-linecap:round;stroke-miterlimit:10;stroke-width:6.25;transform:matrix(.1,0,0,-.1,0,274)}</style></svg>