<svg xmlns="http://www.w3.org/2000/svg" width="374pt" height="275pt" viewBox="0 0 374 275"><defs><path d="M2.0625-5.3125c-.5 0-.9375.21875-1.21875.578125C.5-4.265625.328125-3.5625.328125-2.578125c0 1.796875.59375 2.75 1.734375 2.75 1.125 0 1.734375-.953125 1.734375-2.703125 0-1.03125-.15625-1.71875-.515625-2.203125C3-5.109375 2.5625-5.3125 2.0625-5.3125zm0 .5781c.71875 0 1.0625.71875 1.0625 2.140625C3.125-1.078125 2.78125-.375 2.046875-.375 1.34375-.375 1-1.109375 1-2.5625c0-1.453125.34375-2.171875 1.0625-2.171875zm0 0" id="b"/><path d="M3.7969-.6562H1c.0625-.4375.3125-.703125.953125-1.09375l.75-.4062c.75-.40625 1.125-.953125 1.125-1.59375 0-.453125-.171875-.859375-.484375-1.140625C3.015625-5.1875 2.625-5.3125 2.125-5.3125c-.671875 0-1.171875.234375-1.46875.6875-.1875.28125-.265625.609375-.28125 1.15625h.6563c.03125-.359375.078125-.578125.15625-.75.171875-.328125.515625-.515625.921875-.515625.59375 0 1.046875.421875 1.046875.984375 0 .421875-.25.78125-.71875 1.0625l-.6875.3906C.640625-1.671875.3125-1.171875.25 0h3.5469zm0 0" id="f"/><path d="M3.5625-5.3125H.8281L.4219-2.4219h.6094c.3125-.375.5625-.5.984375-.5.703125 0 1.15625.484375 1.15625 1.28125 0 .765625-.4375 1.234375-1.15625 1.234375-.578125 0-.9375-.296875-1.09375-.90625h-.6562c.09375.4375.15625.65625.3125.84375.3125.40625.84375.640625 1.453125.640625 1.0625 0 1.8125-.78125 1.8125-1.90625C3.84375-2.78125 3.15625-3.5 2.125-3.5c-.375 0-.671875.09375-.984375.3125l.2188-1.4844H3.5625zm0 0" id="c"/><path d="M3.9063-5.3125H.3438v.6406h2.875C1.953125-2.859375 1.4375-1.75 1.03125 0h.7031c.296875-1.703125.96875-3.171875 2.171875-4.765625zm0 0" id="g"/><path d="M1.9375-3.7812V0h.6719v-5.3125h-.4375c-.2344.8125-.39065.921875-1.406275 1.046875v.4844zm0 0" id="e"/><path d="M1.4375-.7812H.6563V0h.7813zm0 0" id="d"/><clipPath id="h"><path d="M17 9.5h1v255h-1zm0 0"/></clipPath><clipPath id="i"><path d="M17 223h340v2H17zm0 0"/></clipPath><clipPath id="j"><path d="M17 9.5h1v255h-1zm0 0"/></clipPath><clipPath id="k"><path d="M101 9.5h2v255h-2zm0 0"/></clipPath><clipPath id="l"><path d="M186 9.5h2v255h-2zm0 0"/></clipPath><clipPath id="m"><path d="M271 9.5h2v255h-2zm0 0"/></clipPath><clipPath id="n"><path d="M356 9.5h1v255h-1zm0 0"/></clipPath><clipPath id="o"><path d="M17 223h340v2H17zm0 0"/></clipPath><clipPath id="p"><path d="M17 156h340v2H17zm0 0"/></clipPath><clipPath id="q"><path d="M17 89h340v2H17zm0 0"/></clipPath><clipPath id="r"><path d="M17 22h340v2H17zm0 0"/></clipPath><clipPath id="s"><path d="M17 9.5h340V242H17zm0 0"/></clipPath><clipPath id="t"><path d="M17 72h340v170H17zm0 0"/></clipPath><clipPath id="u"><path d="M17 72h340v187H17zm0 0"/></clipPath><path id="a" d="M170 105v2550"/></defs><g clip-path="url(#h)"><use href="#a" class="e"/></g><g clip-path="url(#i)"><path d="M170 507.617188h3400" class="e"/></g><g clip-path="url(#j)"><use href="#a" class="a"/></g><g clip-path="url(#k)"><path d="M1020 105v2550" class="a"/></g><g clip-path="url(#l)"><path d="M1870 105v2550" class="a"/></g><g clip-path="url(#m)"><path d="M2720 105v2550" class="a"/></g><g clip-path="url(#n)"><path d="M3570 105v2550" class="a"/></g><g clip-path="url(#o)"><path d="M170 507.617188h3400" class="a"/></g><g clip-path="url(#p)"><path d="M170 1178.671875h3400" class="a"/></g><g clip-path="url(#q)"><path d="M170 1849.726562h3400" class="a"/></g><g clip-path="url(#r)"><path d="M170 2520.78125h3400" class="a"/></g><g class="b"><path d="M170 105h3400" class="c"/><g class="d"><path d="M170 105v50"/><path d="M255 105v25"/><path d="M340 105v25"/><path d="M425 105v25"/><path d="M510 105v25"/><path d="M595 105v25"/><path d="M680 105v25"/><path d="M765 105v25"/><path d="M850 105v25"/><path d="M935 105v25"/><path d="M1020 105v50"/><path d="M1105 105v25"/><path d="M1190 105v25"/><path d="M1275 105v25"/><path d="M1360 105v25"/><path d="M1445 105v25"/><path d="M1530 105v25"/><path d="M1615 105v25"/><path d="M1700 105v25"/><path d="M1785 105v25"/><path d="M1870 105v50"/><path d="M1955 105v25"/><path d="M2040 105v25"/><path d="M2125 105v25"/><path d="M2210 105v25"/><path d="M2295 105v25"/><path d="M2380 105v25"/><path d="M2465 105v25"/><path d="M2550 105v25"/><path d="M2635 105v25"/><path d="M2720 105v50"/><path d="M2805 105v25"/><path d="M2890 105v25"/><path d="M2975 105v25"/><path d="M3060 105v25"/><path d="M3145 105v25"/><path d="M3230 105v25"/><path d="M3315 105v25"/><path d="M3400 105v25"/><path d="M3485 105v25"/><path d="M3570 105v50"/></g></g><use x="14.2902" y="274.5" href="#b"/><use x="97.205" y="274.5" href="#f"/><use x="101.375" y="274.5" href="#c"/><use x="182.8302" y="274.5" href="#c"/><use x="187.0002" y="274.5" href="#b"/><use x="267.83" y="274.5" href="#g"/><use x="272" y="274.5" href="#c"/><use x="350.7452" y="274.5" href="#e"/><use x="354.9152" y="274.5" href="#b"/><use x="359.0852" y="274.5" href="#b"/><g class="b"><path d="M170 2655h3400" class="c"/><g class="d"><path d="M170 2655v-50"/><path d="M255 2655v-25"/><path d="M340 2655v-25"/><path d="M425 2655v-25"/><path d="M510 2655v-25"/><path d="M595 2655v-25"/><path d="M680 2655v-25"/><path d="M765 2655v-25"/><path d="M850 2655v-25"/><path d="M935 2655v-25"/><path d="M1020 2655v-50"/><path d="M1105 2655v-25"/><path d="M1190 2655v-25"/><path d="M1275 2655v-25"/><path d="M1360 2655v-25"/><path d="M1445 2655v-25"/><path d="M1530 2655v-25"/><path d="M1615 2655v-25"/><path d="M1700 2655v-25"/><path d="M1785 2655v-25"/><path d="M1870 2655v-50"/><path d="M1955 2655v-25"/><path d="M2040 2655v-25"/><path d="M2125 2655v-25"/><path d="M2210 2655v-25"/><path d="M2295 2655v-25"/><path d="M2380 2655v-25"/><path d="M2465 2655v-25"/><path d="M2550 2655v-25"/><path d="M2635 2655v-25"/><path d="M2720 2655v-50"/><path d="M2805 2655v-25"/><path d="M2890 2655v-25"/><path d="M2975 2655v-25"/><path d="M3060 2655v-25"/><path d="M3145 2655v-25"/><path d="M3230 2655v-25"/><path d="M3315 2655v-25"/><path d="M3400 2655v-25"/><path d="M3485 2655v-25"/><path d="M3570 2655v-50"/></g></g><use x="14.2902" y="6.375" href="#b"/><use x="97.205" y="6.375" href="#f"/><use x="101.375" y="6.375" href="#c"/><use x="182.8302" y="6.375" href="#c"/><use x="187.0002" y="6.375" href="#b"/><use x="267.83" y="6.375" href="#g"/><use x="272" y="6.375" href="#c"/><use x="350.7452" y="6.375" href="#e"/><use x="354.9152" y="6.375" href="#b"/><use x="359.0852" y="6.375" href="#b"/><g class="b"><use href="#a" class="c"/><g class="d"><path d="M170 105h25"/><path d="M170 172.109375h25"/><path d="M170 239.21875h25"/><path d="M170 306.328125h25"/><path d="M170 373.4375h25"/><path d="M170 440.507812h25"/><path d="M170 507.617188h50"/><path d="M170 574.726562h25"/><path d="M170 641.835938h25"/><path d="M170 708.945312h25"/><path d="M170 776.054688h25"/><path d="M170 843.164062h25"/><path d="M170 910.273438h25"/><path d="M170 977.382812h25"/><path d="M170 1044.492188h25"/><path d="M170 1111.5625h25"/><path d="M170 1178.671875h50"/><path d="M170 1245.78125h25"/><path d="M170 1312.890625h25"/><path d="M170 1380h25"/><path d="M170 1447.109375h25"/><path d="M170 1514.21875h25"/><path d="M170 1581.328125h25"/><path d="M170 1648.4375h25"/><path d="M170 1715.546875h25"/><path d="M170 1782.617188h25"/><path d="M170 1849.726562h50"/><path d="M170 1916.835938h25"/><path d="M170 1983.945312h25"/><path d="M170 2051.054688h25"/><path d="M170 2118.164062h25"/><path d="M170 2185.273438h25"/><path d="M170 2252.382812h25"/><path d="M170 2319.492188h25"/><path d="M170 2386.5625h25"/><path d="M170 2453.671875h25"/><path d="M170 2520.78125h50"/><path d="M170 2587.890625h25"/><path d="M170 2655h25"/></g></g><use x="-.2992" y="227.625" href="#b"/><use x="3.8708" y="227.625" href="#d"/><use x="5.9558" y="227.625" href="#b"/><use x="-.2992" y="160.75" href="#b"/><use x="3.8708" y="160.75" href="#d"/><use x="5.9558" y="160.75" href="#c"/><use x="-.2992" y="93.25" href="#e"/><use x="3.8708" y="93.25" href="#d"/><use x="5.9558" y="93.25" href="#b"/><use x="-.2992" y="26.375" href="#e"/><use x="3.8708" y="26.375" href="#d"/><use x="5.9558" y="26.375" href="#c"/><g class="b"><path d="M3570 105v2550" class="c"/><g class="d"><path d="M3570 105h-25"/><path d="M3570 172.109375h-25"/><path d="M3570 239.21875h-25"/><path d="M3570 306.328125h-25"/><path d="M3570 373.4375h-25"/><path d="M3570 440.507812h-25"/><path d="M3570 507.617188h-50"/><path d="M3570 574.726562h-25"/><path d="M3570 641.835938h-25"/><path d="M3570 708.945312h-25"/><path d="M3570 776.054688h-25"/><path d="M3570 843.164062h-25"/><path d="M3570 910.273438h-25"/><path d="M3570 977.382812h-25"/><path d="M3570 1044.492188h-25"/><path d="M3570 1111.5625h-25"/><path d="M3570 1178.671875h-50"/><path d="M3570 1245.78125h-25"/><path d="M3570 1312.890625h-25"/><path d="M3570 1380h-25"/><path d="M3570 1447.109375h-25"/><path d="M3570 1514.21875h-25"/><path d="M3570 1581.328125h-25"/><path d="M3570 1648.4375h-25"/><path d="M3570 1715.546875h-25"/><path d="M3570 1782.617188h-25"/><path d="M3570 1849.726562h-50"/><path d="M3570 1916.835938h-25"/><path d="M3570 1983.945312h-25"/><path d="M3570 2051.054688h-25"/><path d="M3570 2118.164062h-25"/><path d="M3570 2185.273438h-25"/><path d="M3570 2252.382812h-25"/><path d="M3570 2319.492188h-25"/><path d="M3570 2386.5625h-25"/><path d="M3570 2453.671875h-25"/><path d="M3570 2520.78125h-50"/><path d="M3570 2587.890625h-25"/><path d="M3570 2655h-25"/></g></g><use x="363.25" y="227.625" href="#b"/><use x="367.42" y="227.625" href="#d"/><use x="369.505" y="227.625" href="#b"/><use x="363.25" y="160.75" href="#b"/><use x="367.42" y="160.75" href="#d"/><use x="369.505" y="160.75" href="#c"/><use x="363.25" y="93.25" href="#e"/><use x="367.42" y="93.25" href="#d"/><use x="369.505" y="93.25" href="#b"/><use x="363.25" y="26.375" href="#e"/><use x="367.42" y="26.375" href="#d"/><use x="369.505" y="26.375" href="#c"/><g clip-path="url(#s)"><path d="M170 1849.726562l6.25 71.5625 6.25 66.796876 6.25 62.226562 6.25 57.890625 6.25 53.710937 6.25 49.726563 6.25 45.976563 6.25 42.34375 6.25 38.90625 6.25 35.585937 6.25 32.460937 6.25 29.492188 6.25 26.601562 6.25 23.90625 6.25 21.328126 6.25 18.867187 6.25 16.523437 6.25 14.335938 6.25 12.1875 6.25 10.15625 6.25 8.28125 6.25 6.445312 6.25 4.726563 6.25 3.125 6.25 1.5625 6.25.078125 6.25-1.289062 6.25-2.578126 6.25-3.828124 6.25-5 6.25-6.09375 6.25-7.148438 6.25-8.125 6.25-9.023438 6.25-9.921874 6.25-10.703126 6.25-11.484374 6.25-12.1875 6.25-12.851563 6.25-13.476563 6.25-14.0625 6.25-14.609374 6.25-15.117188 6.25-15.546875 6.25-16.015625 6.25-16.40625 6.25-16.757812 6.25-17.070313 6.25-17.382813 6.25-17.695312 6.25-17.929688 6.25-18.125 6.25-18.359374 6.25-18.515626 6.25-18.710937 6.25-18.789063 6.25-18.945312 6.25-19.023438 6.25-19.101562 6.25-19.179688 6.25-19.21875L557.5 2105l6.25-19.296875 18.75-57.773437 6.25-19.21875 6.25-19.140626 6.25-19.101562 6.25-19.0625 6.25-18.984375 6.25-18.867187 6.25-18.828126 6.25-18.710937 6.25-18.59375 6.25-18.515625 6.25-18.359375 6.25-18.242187 6.25-18.125 6.25-18.007813 6.25-17.851563 6.25-17.695312 6.25-17.578125L695 1695.625l6.25-17.265625L707.5 1661.25l6.25-16.953125 6.25-16.757813 6.25-16.640624 6.25-16.445313 6.25-16.289063 6.25-16.132812 6.25-15.9375 6.25-15.78125 6.25-15.585938 6.25-15.429687 6.25-15.234375 6.25-15.078125 6.25-14.882813L795 1439.375l6.25-14.53125 6.25-14.375 6.25-14.179688 6.25-14.023437 6.25-13.828125 6.25-13.671875 6.25-13.476563 6.25-13.28125 6.25-13.164062 6.25-12.929688 6.25-12.8125 6.25-12.578124 6.25-12.460938 6.25-12.265625 6.25-12.109375 6.25-11.914062 6.25-11.757813 6.25-11.640625 6.25-11.40625 6.25-11.289062 6.25-11.09375 6.25-10.976563 6.25-10.78125 6.25-10.625 6.25-10.507813 6.25-10.3125 6.25-10.15625L970 1097.1875l6.25-9.882812 6.25-9.726563 6.25-9.570313 6.25-9.414062 6.25-9.296875 6.25-9.140625 6.25-8.984375 6.25-8.867187 6.25-8.75 6.25-8.59375 6.25-8.4375 6.25-8.320313L1051.25 980l6.25-8.046875 6.25-7.96875 6.25-7.8125 6.25-7.695313 6.25-7.539062 6.25-7.460938 6.25-7.304687 6.25-7.226563 6.25-7.070312 6.25-6.992188 6.25-6.875 6.25-6.71875 6.25-6.679687 6.25-6.523437 6.25-6.40625 6.25-6.328126 6.25-6.210937 6.25-6.132813 6.25-6.015624 6.25-5.898438 6.25-5.820312 6.25-5.703126 6.25-5.625 6.25-5.546874 6.25-5.429688 6.25-5.351562 6.25-5.273438 6.25-5.15625 6.25-5.078125 6.25-5 6.25-4.921875 6.25-4.804688 6.25-4.765624 6.25-4.648438 6.25-4.609375 6.25-4.492187 6.25-4.453126 6.25-4.335937 6.25-4.296875 6.25-4.21875 6.25-4.140625L1320 729.375l6.25-3.90625 6.25-3.867188 6.25-3.789062 6.25-3.75 6.25-3.671875 6.25-3.59375 12.5-7.03125 6.25-3.398437 6.25-3.359376 6.25-3.320312 12.5-6.40625 6.25-3.125 6.25-3.085938 6.25-3.007812 6.25-2.96875 6.25-2.929688 6.25-2.851562L1445 662.5l6.25-2.773438 6.25-2.734374 6.25-2.65625 12.5-5.234376 12.5-5 6.25-2.460937 6.25-2.382813 12.5-4.6875 6.25-2.265624 12.5-4.453126 6.25-2.148437 6.25-2.109375 12.5-4.140625 12.5-3.984375 12.5-3.828125 6.25-1.875 6.25-1.835937 12.5-3.59375 12.5-3.4375 6.25-1.679688 12.5-3.28125 6.25-1.601562 6.25-1.5625 12.5-3.046876 6.25-1.445312 6.25-1.484375 12.5-2.8125 12.5-2.734375 12.5-2.65625 18.75-3.75 12.5-2.421875 6.25-1.171875 18.75-3.398438 6.25-1.054687 6.25-1.09375 6.25-1.054687 18.75-3.046876 6.25-.9375 6.25-.976562 12.5-1.875 12.5-1.796875 6.25-.859375 6.25-.898438 25-3.28125 6.25-.78125 6.25-.742187 6.25-.78125 12.5-1.484375 18.75-2.109375 18.75-1.992187 6.25-.625 6.25-.664063 6.25-.625 31.25-2.929687 18.75-1.640626 31.25-2.539062 18.75-1.40625 6.25-.429688 6.25-.46875 18.75-1.289062 6.25-.390625 6.25-.429687 25-1.5625 6.25-.351563 6.25-.390625 18.75-1.054688 6.25-.3125 6.25-.351562L2195 525l6.25-.351562 6.25-.273438 18.75-.9375 37.5-1.640625 6.25-.234375 6.25-.273438 18.75-.703124 6.25-.273438 6.25-.195312 12.5-.46875 6.25-.195313 6.25-.234375 6.25-.195312 6.25-.234376 31.25-.976562 6.25-.15625 12.5-.390625 6.25-.15625 6.25-.195313 25-.625 6.25-.195312 6.25-.15625 6.25-.117188 18.75-.46875 6.25-.117187 6.25-.15625 6.25-.117187 6.25-.15625 18.75-.351563 6.25-.15625 37.5-.703125 6.25-.078125 12.5-.234375 6.25-.078125 12.5-.234375 12.5-.15625 6.25-.117188 12.5-.15625 6.25-.117187 25-.3125 6.25-.117187 6.25-.039063 6.25-.117187 6.25-.078126 6.25-.039062 25-.3125 6.25-.039062 18.75-.234376 6.25-.039062 12.5-.15625 6.25-.039062 6.25-.078126 12.5-.078124 6.25-.078126 6.25-.039062 6.25-.078125 12.5-.078125 6.25-.078125 12.5-.078125 6.25-.078125 31.25-.195313 6.25-.078124 68.75-.429688h6.25l37.5-.234375h6.25l18.75-.117187h6.25l12.5-.078126h6.25l12.5-.078124h6.25l12.5-.078126h6.25l6.25-.039062h6.25l12.5-.078125h6.25l6.25-.039063h6.25l6.25-.039062h6.25l6.25-.039062h6.25l6.25-.039063h6.25l6.25-.039063h6.25l6.25-.039062h6.25l6.25-.039062h6.25l6.25-.039063h12.5l6.25-.039063h6.25l6.25-.039062h12.5l6.25-.039062h12.5l6.25-.039063h12.5l6.25-.039063h12.5l6.25-.039062h12.5l6.25-.039062H3345l6.25-.039063H3370l6.25-.039063H3395l6.25-.039062H3420l6.25-.039062H3445l6.25-.039063h25l6.25-.039063h31.25l6.25-.039062h37.5l6.25-.039062h6.25" style="fill:none;stroke-width:12.5;stroke-linecap:round;stroke:#00008b;stroke-miterlimit:10;transform:matrix(.1,0,0,-.1,0,275)"/></g><g clip-path="url(#t)"><path d="M170 1849.726562l6.25-.429687 6.25-1.289063 6.25-2.109374 6.25-2.890626 6.25-3.632812 6.25-4.257812 6.25-4.960938 6.25-5.507812 6.25-6.132813 6.25-6.640625 6.25-7.109375 6.25-7.617187 6.25-8.046876 6.25-8.476562 6.25-8.828125 6.25-9.21875 6.25-9.492187 6.25-9.84375 6.25-10.117188 6.25-10.390625 6.25-10.625L307.5 1701.25l6.25-11.054688 6.25-11.25 6.25-11.40625 6.25-11.523437 6.25-11.71875L345 1632.5l6.25-11.914062 6.25-11.992188 6.25-12.109375 6.25-12.148437 12.5-24.453126 12.5-24.609374 12.5-24.6875 6.25-12.304688 6.25-12.34375 6.25-12.304688 12.5-24.53125 12.5-24.375 6.25-12.109374 6.25-12.070313 6.25-11.992187 6.25-11.914063 6.25-11.875 6.25-11.796875L495 1341.25l6.25-11.640625 6.25-11.5625 6.25-11.445313 6.25-11.367187 6.25-11.289063 6.25-11.210937 6.25-11.09375 6.25-10.976563 6.25-10.898437 6.25-10.78125 6.25-10.664063 6.25-10.585937 6.25-10.46875 6.25-10.351563 6.25-10.273437 6.25-10.117187 6.25-10.039063 6.25-9.921875 6.25-9.804688 6.25-9.726562 6.25-9.570312 6.25-9.453126 6.25-9.375 6.25-9.21875 6.25-9.140624 6.25-8.984376 6.25-8.945312 6.25-8.789062 6.25-8.671876 6.25-8.554687 6.25-8.4375 6.25-8.359375 6.25-8.203125 6.25-8.125 6.25-8.007813 6.25-7.929687 6.25-7.773437 6.25-7.695313 6.25-7.578125 6.25-7.460938 6.25-7.382812 6.25-7.226562 6.25-7.1875 6.25-7.03125 6.25-6.953126 6.25-6.875 6.25-6.757812 6.25-6.640625 6.25-6.523437 6.25-6.484376 6.25-6.328124 6.25-6.289063 6.25-6.171875 6.25-6.054688 6.25-5.976562 6.25-5.898438 6.25-5.820312 6.25-5.703125 6.25-5.625 6.25-5.546875 6.25-5.429688L882.5 817.5l6.25-5.3125 6.25-5.195312 6.25-5.117188 6.25-5.039062 6.25-4.921876 6.25-4.882812 6.25-4.804688L932.5 777.5l6.25-4.648438 6.25-4.570312 6.25-4.492188 6.25-4.414062 6.25-4.335938 6.25-4.296874 6.25-4.21875 6.25-4.140626 6.25-4.0625 6.25-4.023437 6.25-3.945313 6.25-3.867187 6.25-3.828125 12.5-7.421875 6.25-3.632813 6.25-3.554687 6.25-3.515625 6.25-3.4375 6.25-3.398438 6.25-3.320312 6.25-3.28125 12.5-6.40625 12.5-6.171875 6.25-3.007813 12.5-5.859374 6.25-2.851563 6.25-2.8125 12.5-5.46875 6.25-2.65625 6.25-2.617187 6.25-2.578126 6.25-2.539062 6.25-2.5 12.5-4.84375 6.25-2.382812 6.25-2.304688 12.5-4.53125 12.5-4.375 12.5-4.21875 12.5-4.0625 6.25-1.992188 6.25-1.953124 6.25-1.914063 6.25-1.875L1282.5 607.5l12.5-3.515625 12.5-3.4375 12.5-3.28125 12.5-3.203125 12.5-3.046875 12.5-2.96875 6.25-1.445313 12.5-2.8125 6.25-1.367187 12.5-2.65625 12.5-2.578125 6.25-1.25 12.5-2.421875 12.5-2.34375 18.75-3.398437 25-4.21875 6.25-.976563 6.25-1.015625 6.25-.976562 18.75-2.8125 12.5-1.796876 12.5-1.71875 6.25-.820312 6.25-.859375 6.25-.78125 6.25-.820313 6.25-.78125 6.25-.742187 6.25-.78125 12.5-1.484375 12.5-1.40625 6.25-.664062 6.25-.703126 12.5-1.328124 25-2.5 12.5-1.171876 6.25-.546874 6.25-.585938 18.75-1.640625 6.25-.507813 6.25-.546874 6.25-.46875 12.5-1.015626 25-1.875 31.25-2.148437 31.25-1.953125 6.25-.351562 6.25-.390626 25-1.40625 6.25-.3125 6.25-.351562 25-1.25 6.25-.273438 6.25-.3125 43.75-1.914062 12.5-.46875 6.25-.273438 25-.9375 6.25-.195312 6.25-.234375 6.25-.195313 6.25-.234374 50-1.5625 6.25-.15625 6.25-.195313 6.25-.15625 6.25-.195313 43.75-1.09375 6.25-.117187 12.5-.3125 6.25-.117187 6.25-.15625 6.25-.117188 6.25-.15625 68.75-1.289062 6.25-.078126 12.5-.234374 6.25-.078126 6.25-.117187 12.5-.15625 6.25-.117187 12.5-.15625 6.25-.117188 75-.9375 6.25-.039062 18.75-.234376 6.25-.039062 6.25-.078125 6.25-.039063 6.25-.078124 6.25-.039063 6.25-.078125 6.25-.039062 6.25-.078126 6.25-.039062 6.25-.078125 12.5-.078125 6.25-.078125 18.75-.117187 6.25-.078126L2563.75 510l6.25-.078125 50-.3125h6.25l43.75-.273437h6.25l18.75-.117188h6.25l18.75-.117188h6.25l12.5-.078124h6.25l6.25-.039063h6.25l12.5-.078125h6.25l12.5-.078125h6.25l6.25-.039063h6.25l6.25-.039062h6.25l6.25-.039062h6.25l6.25-.039063h6.25l6.25-.039063h6.25l6.25-.039062h6.25l6.25-.039062h12.5l6.25-.039063h6.25l6.25-.039063h6.25l6.25-.039062h12.5l6.25-.039062h12.5l6.25-.039063h12.5l6.25-.039063h12.5l6.25-.039062h12.5l6.25-.039062h18.75l6.25-.039063h18.75l6.25-.039063h18.75l6.25-.039062h18.75l6.25-.039062h18.75l6.25-.039063h25l6.25-.039063h31.25l6.25-.039062h37.5l6.25-.039062h37.5l6.25-.039063h43.75l6.25-.039063h50l6.25-.039062h75l6.25-.039062h87.5" style="fill:none;stroke-width:12.5;stroke-linecap:round;stroke:#006400;stroke-miterlimit:10;transform:matrix(.1,0,0,-.1,0,275)"/></g><g clip-path="url(#u)"><path d="M170 1849.726562l6.25-72.421874 6.25-69.414063 6.25-66.445313L195 1577.8125l6.25-60.9375 6.25-58.320312 6.25-55.820313 6.25-53.4375 6.25-51.09375 6.25-48.867187 6.25-46.757813 6.25-44.6875 6.25-42.695313 6.25-40.859374 6.25-39.023438 6.25-37.226562L276.25 962.5l6.25-33.984375 6.25-32.460937 6.25-30.9375 6.25-29.492188 6.25-28.164062 6.25-26.835938 6.25-25.585938 6.25-24.375 6.25-23.203124 6.25-22.109376 6.25-21.015624 6.25-20 6.25-19.023438 6.25-18.085938 6.25-17.148437 6.25-16.289063 6.25-15.507812 6.25-14.648438L395 529.6875l6.25-13.164062 6.25-12.460938 6.25-11.835938L420 481.09375l6.25-10.546875 6.25-9.960937 6.25-9.414063 6.25-8.828125 6.25-8.320312 6.25-7.851563 6.25-7.34375 6.25-6.914063 6.25-6.484374 6.25-6.054688 6.25-5.664062 6.25-5.3125 6.25-4.921876 6.25-4.570312 6.25-4.257812 6.25-3.90625 6.25-3.632813L532.5 363.75l6.25-3.046875 6.25-2.851563 6.25-2.539062 6.25-2.34375 6.25-2.070312 6.25-1.875 6.25-1.679688 6.25-1.484375 6.25-1.289063L595 343.4375l6.25-.9375 6.25-.78125 6.25-.664062 6.25-.46875 6.25-.351563L632.5 340l6.25-.117188H645L651.25 340l6.25.234375 6.25.3125 6.25.429687 6.25.507813 6.25.585937 6.25.664063 6.25.703125 6.25.820312 6.25.859376 6.25.9375 6.25.976562 6.25 1.015625 6.25 1.09375 6.25 1.132813 6.25 1.171874 6.25 1.210938 6.25 1.25 6.25 1.289062 12.5 2.65625 6.25 1.367188 6.25 1.40625 6.25 1.445312 6.25 1.40625 6.25 1.445313 18.75 4.453125 31.25 7.617188 6.25 1.5625 12.5 3.046874 6.25 1.5625 6.25 1.523438L895 386.25l12.5 3.046875 6.25 1.5625 6.25 1.484375 18.75 4.570312 18.75 4.453126 6.25 1.445312 6.25 1.484375 12.5 2.890625 25 5.625 18.75 4.101562 18.75 3.984376 18.75 3.867187 12.5 2.5 25 4.84375 12.5 2.34375 12.5 2.265625 6.25 1.09375 6.25 1.132812 6.25 1.09375 25 4.21875 12.5 2.03125 18.75 2.929688 18.75 2.8125 6.25.898438 6.25.9375 6.25.859374 6.25.898438 6.25.859375 6.25.820313 6.25.859374 12.5 1.640626 25 3.125 18.75 2.226562 25 2.8125 18.75 1.992188 25 2.5 6.25.585937 6.25.625 6.25.546875 12.5 1.171875 18.75 1.640625 6.25.507812 6.25.546876 18.75 1.523437 31.25 2.34375 6.25.429687 6.25.46875 12.5.859376 6.25.390624 6.25.429688 12.5.78125 6.25.429688 6.25.351562 12.5.78125 37.5 2.109375 12.5.625 6.25.351563 6.25.3125 6.25.273437 12.5.625 6.25.273437 6.25.3125 31.25 1.367188 6.25.234375 6.25.273437 12.5.46875 6.25.273438 18.75.703125 6.25.195313 12.5.46875 18.75.585937 6.25.234375 18.75.585938 6.25.15625 12.5.390624 6.25.15625 6.25.195313 6.25.15625 6.25.195313 50 1.25 6.25.117187 12.5.3125 12.5.234375 6.25.15625 12.5.234375 6.25.15625 37.5.703125 6.25.078125 18.75.351563 6.25.078124 6.25.117188 6.25.078125 6.25.117187 6.25.078126 6.25.117187 18.75.234375 6.25.117188 75 .9375 6.25.039062 12.5.15625 6.25.039062 6.25.078126 6.25.039062 12.5.15625 6.25.039062 6.25.078126 6.25.039062 6.25.078125 12.5.078125 6.25.078125 12.5.078125 6.25.078125 18.75.117187 6.25.078126 125 .78125h6.25l18.75.117187h6.25l12.5.078125h6.25l18.75.117188h6.25l12.5.078124h6.25l6.25.039063h6.25l12.5.078125h6.25l6.25.039062h6.25l6.25.039063h6.25l12.5.078125h12.5l6.25.039062h6.25l6.25.039063h6.25l6.25.039063h6.25l6.25.039062h6.25l6.25.039062h12.5l6.25.039063h6.25l6.25.039063h12.5l6.25.039062h12.5l6.25.039062h6.25l6.25.039063h12.5l6.25.039063h18.75l6.25.039062h12.5l6.25.039062H2820l6.25.039063h25l6.25.039063h18.75l6.25.039062h25l6.25.039062h25l6.25.039063h31.25l6.25.039063h31.25l6.25.039062h43.75l6.25.039062h50l6.25.039063h50l6.25.039063h68.75l6.25.039062h87.5l6.25.039062h131.25l6.25.039063H3570" style="fill:none;stroke-width:12.5;stroke-linecap:round;stroke:#8b0000;stroke-miterlimit:10;transform:matrix(.1,0,0,-.1,0,275)"/></g><style>.a{fill:none;stroke:#bfbfbf;stroke-dasharray:12.5,18.75;stroke-linecap:round;stroke-miterlimit:10;stroke-width:6.25;transform:matrix(.1,0,0,-.1,0,275)}.b{fill:none;stroke:#000;stroke-miterlimit:10;transform:matrix(.1,0,0,-.1,0,275)}.c{stroke-linecap:square;stroke-width:12.5}.d{stroke-width:6.25}.e{fill:none;stroke:#bfbfbf;stroke-linecap:round;stroke-miterlimit:10;stroke-width:6.25;transform:matrix(.1,0,0,-.1,0,275)}</style></svg>