<svg xmlns="http://www.w3.org/2000/svg" width="101pt" height="85pt" viewBox="0 0 101 85"><defs><clipPath id="a"><path d="M0 58h101v27H0zm0 0"/></clipPath><clipPath id="b"><path d="M63 36h38v49H63zm0 0"/></clipPath><clipPath id="c"><path d="M21 0h80v85H21zm0 0"/></clipPath><clipPath id="d"><path d="M0 0h101v85H0z"/></clipPath><g id="e" clip-path="url(#d)"><g clip-path="url(#a)"><path d="M971.802188 237.245C830.90375 123.065313 655.083438 60.721563 473.755313 60.721563c-168.59375 0-332.734375 53.867187-468.554688 153.710937" class="a"/></g><path d="M710.239688 545.604375C640.825625 496.737188 558.09125 470.37 473.2475 470.018438" class="a"/><path fill-rule="evenodd" fill="#000" fill-opacity="1" d="M99.8906 67.21875c0 2.945312-2.394531 5.339844-5.339844 5.339844-2.949219 0-5.34375-2.394532-5.34375-5.339844 0-2.949219 2.394531-5.34375 5.34375-5.34375 2.945313 0 5.339844 2.394531 5.339844 5.34375"/><g clip-path="url(#b)"><path d="M1001.21625 213.1825c0-29.453125-23.945312-53.398437-53.398437-53.398437-29.492188 0-53.4375 23.945312-53.4375 53.398437 0 29.492188 23.945312 53.4375 53.4375 53.4375 29.453125 0 53.398437-23.945312 53.398437-53.4375zm0 0" class="b"/></g><path d="M473.208438 877.987188V70.995" class="a"/><g clip-path="url(#c)"><path d="M473.208438 877.987188 947.817813 213.1825" class="b"/></g></g><path d="M6.8438-6.03125c0-1.359375-.390625-2.359375-1.90625-2.359375C1.828175-8.390625.8438-4.921875.8438-2.375c0 1.421875.4375 2.5625 2.0625 2.5625 2.8125 0 3.9375-3.96875 3.9375-6.21875zm-.875-.15625c0 .546875-.09375 1.09375-.1875 1.640625H2.0156c.28125-1.25 1.15625-3.53125 2.703125-3.53125 1.03125 0 1.25 1.078125 1.25 1.890625zm-.25 2.01563C5.453125-2.828125 4.796875-.15625 3.078125-.15625 1.875-.15625 1.75-1.5 1.75-2.421875c0-.59375.109375-1.171875.203125-1.75zm0 0" id="f"/><path d="M5.9688 0c0-.296875.125-1.234375.28125-1.96875h-.375l-.2031.73438c-.109375.390625-.203125.59375-.3125.640625-.140625.0625-1.0625.125-1.71875.125-.671875 0-.96875-.015625-1.703125-.078125 0-.140625 0-.28125.015625-.421875L3.0625-7.32812c.078125-.453125.171875-.53125.609375-.578125l.5-.03125.0313-.32812c-.46875.015625-.953125.03125-1.4375.03125-.53125 0-1.0625-.015625-1.609375-.03125L1.125-7.9375l.5625.03125c.28125 0 .421875.09375.421875.296875 0 .1875-.046875.53125-.109375.921875L.9688-.65625C.9375-.4375.78125-.359375.25-.28125l-.0625.3125C.796875.015625 1.421875 0 2.03125 0c.890625 0 1.796875.03125 2.6875.03125.5 0 .84375 0 1.25-.03125zm0 0" id="g"/><path d="M8.8438-1.01562l-.125-.21875-.2969.20313c-.3594.234365-.6094.359365-.7344.359365-.078125 0-.15625-.109375-.15625-.234375s.015625-.234375.078125-.484375l.9063-3.54687c.046875-.203125.078125-.390625.078125-.484375 0-.203125-.125-.34375-.3125-.34375-.34375 0-.796875.21875-1.53125.734375C6-4.5 5.578125-4.078125 5-3.25l.3594-1.64062c.046875-.234375.078125-.421875.078125-.5 0-.234375-.125-.375-.3125-.375-.359375 0-.90625.265625-1.5625.765625-.53125.40625-.765625.65625-1.546875 1.71875l.4063-1.59375c.046875-.1875.0625-.375.0625-.515625 0-.234375-.109375-.375-.265625-.375-.265625 0-.71875.25-1.59375.890625l-.3437.23438.0938.23438.375-.25c.4375-.28125.484375-.296875.5625-.296875.140625 0 .21875.125.21875.296875 0 .609375-.484375 2.921875-.984375 4.625l.0313.14063.8281-.1875.25-1.21875c.296875-1.328125.609375-2.03125 1.265625-2.75.515625-.546875 1.046875-.90625 1.375-.90625.09375 0 .140625.09375.140625.25 0 .421875-.25 1.78125-.75 3.875l-.2031.79688.0625.14063.8281-.1875.25-1.26562c.1875-.96875.59375-1.875 1.125-2.453125.65625-.734375 1.25-1.15625 1.640625-1.15625.09375 0 .15625.109375.15625.296875 0 .296875-.015625.453125-.296875 1.5l-.5156 1.875c-.09375.34375-.15625.640625-.15625.90625 0 .296875.125.484375.359375.484375.3125 0 .734375-.25 1.90625-1.125zm0 0" id="h"/></defs><use href="#e"/><use x="61.39" y="50.556" href="#f"/><use x="82.87" y="36.276" href="#g"/><use x="86.17" y="84.697" href="#h"/><style>.a{fill:none;stroke:#000;stroke-linecap:butt;stroke-linejoin:miter;stroke-miterlimit:10;stroke-opacity:1;stroke-width:4.5;transform:matrix(.1,0,0,-.1,-.231,88.537)}.b{fill:none;stroke:#000;stroke-linecap:butt;stroke-linejoin:miter;stroke-miterlimit:10;stroke-opacity:1;stroke-width:18;transform:matrix(.1,0,0,-.1,-.231,88.537)}</style></svg>