<svg xmlns="http://www.w3.org/2000/svg" width="737.924pt" height="260.999pt" viewBox="0 0 737.924 260.999"><defs><use href="#a" id="o"/><use href="#b" id="p"/><use href="#c" id="x"/><use href="#d" id="r"/><use href="#e" id="v"/><use href="#f" id="w"/><path d="M3.4219-3.5937c-.125-.78125-.640625-1.265625-1.390625-1.265625-.53125 0-1.015625.265625-1.296875.703125-.296875.46875-.4375 1.0625-.4375 1.953125 0 .8125.125 1.328125.40625 1.765625.265625.375.6875.59375 1.21875.59375.9375 0 1.59375-.6875 1.59375-1.640625 0-.890625-.609375-1.53125-1.484375-1.53125-.484375 0-.859375.1875-1.125.53125C.921875-3.65625 1.296875-4.3125 2-4.3125c.421875 0 .71875.265625.8125.71875zM1.9532-2.4843c.578125 0 .953125.40625.953125 1.046875 0 .609375-.421875 1.0625-.96875 1.0625-.5625 0-.984375-.46875-.984375-1.09375 0-.59375.40625-1.015625 1-1.015625zm0 0" id="y"/><path d="M2.6875-2.5469c.5-.3125.65625-.546875.65625-1.015625 0-.75-.59375-1.296875-1.453125-1.296875-.859375 0-1.46875.546875-1.46875 1.296875 0 .453125.171875.703125.65625 1.015625C.53125-2.28125.25-1.875.25-1.34375c0 .890625.671875 1.5 1.640625 1.5.953125 0 1.625-.609375 1.625-1.5 0-.53125-.265625-.9375-.828125-1.203125zm-.7969-1.7656c.515625 0 .84375.296875.84375.765625 0 .453125-.34375.75-.84375.75-.515625 0-.84375-.296875-.84375-.75 0-.46875.328125-.765625.84375-.765625zm0 2.0313c.59375 0 1.015625.375 1.015625.953125 0 .5625-.421875.953125-1.03125.953125-.59375 0-1-.390625-1-.953125 0-.578125.40625-.953125 1.015625-.953125zm0 0" id="A"/><use href="#a" id="n"/><use href="#b" id="q"/><use href="#c" id="u"/><use href="#d" id="s"/><use href="#e" id="z"/><use href="#f" id="t"/><clipPath id="B"><path d="M16.5 8.1719h.5v242.2227h-.5zm0 0"/></clipPath><clipPath id="C"><path d="M67 8.1719h1v242.2227h-1zm0 0"/></clipPath><clipPath id="D"><path d="M118 8.1719h1v242.2227h-1zm0 0"/></clipPath><clipPath id="E"><path d="M169 8.1719h1v242.2227h-1zm0 0"/></clipPath><clipPath id="F"><path d="M220 8.1719h1v242.2227h-1zm0 0"/></clipPath><clipPath id="G"><path d="M270 8.1719h2v242.2227h-2zm0 0"/></clipPath><clipPath id="H"><path d="M321 8.1719h2v242.2227h-2zm0 0"/></clipPath><clipPath id="I"><path d="M16.5 250h319.9648v.3945H16.5zm0 0"/></clipPath><clipPath id="J"><path d="M16.5 209h319.9648v2H16.5zm0 0"/></clipPath><clipPath id="K"><path d="M16.5 169h319.9648v1H16.5zm0 0"/></clipPath><clipPath id="L"><path d="M16.5 129h319.9648v1H16.5zm0 0"/></clipPath><clipPath id="M"><path d="M16.5 88h319.9648v2H16.5zm0 0"/></clipPath><clipPath id="N"><path d="M16.5 48h319.9648v1H16.5zm0 0"/></clipPath><clipPath id="O"><path d="M16.5 8.1719h319.9648V9H16.5zm0 0"/></clipPath><clipPath id="P"><path d="M342 248h9.4648v6H342zm0 0"/></clipPath><clipPath id="Q"><path d="M342 208h9.4648v6H342zm0 0"/></clipPath><clipPath id="R"><path d="M342 168h9.4648v6H342zm0 0"/></clipPath><clipPath id="S"><path d="M342 127h9.4648v6H342zm0 0"/></clipPath><clipPath id="T"><path d="M342 87h9.4648v6H342zm0 0"/></clipPath><clipPath id="U"><path d="M342 46h9.4648v6H342zm0 0"/></clipPath><clipPath id="V"><path d="M342 6h9.4648v6H342zm0 0"/></clipPath><clipPath id="W"><path d="M16.5 54h319.9648v94H16.5zm0 0"/></clipPath><clipPath id="X"><path d="M16.5 146h319.9648v2H16.5zm0 0"/></clipPath><clipPath id="Y"><use href="#g"/></clipPath><clipPath id="Z"><use href="#h"/></clipPath><clipPath id="a0"><use href="#g"/></clipPath><clipPath id="a1"><path d="M445 8.1719h1v242.2227h-1zm0 0"/></clipPath><clipPath id="a2"><path d="M495 8.1719h2v242.2227h-2zm0 0"/></clipPath><clipPath id="a3"><path d="M546 8.1719h2v242.2227h-2zm0 0"/></clipPath><clipPath id="a4"><path d="M597 8.1719h2v242.2227h-2zm0 0"/></clipPath><clipPath id="a5"><path d="M648 8.1719h2v242.2227h-2zm0 0"/></clipPath><clipPath id="a6"><path d="M699 8.1719h2v242.2227h-2zm0 0"/></clipPath><clipPath id="a7"><use href="#h"/></clipPath><clipPath id="a8"><path d="M394.3828 203h319.9687v1H394.3828zm0 0"/></clipPath><clipPath id="a9"><path d="M394.3828 166h319.9687v2H394.3828zm0 0"/></clipPath><clipPath id="aa"><path d="M394.3828 130h319.9687v2H394.3828zm0 0"/></clipPath><clipPath id="ab"><path d="M394.3828 94h319.9687v2H394.3828zm0 0"/></clipPath><clipPath id="ac"><path d="M394.3828 58h319.9687v2H394.3828zm0 0"/></clipPath><clipPath id="ad"><path d="M394.3828 22h319.9687v2H394.3828zm0 0"/></clipPath><clipPath id="ae"><path d="M371.3867 237H389v6h-17.6133zm0 0"/></clipPath><clipPath id="af"><path d="M371.3867 201H389v6h-17.6133zm0 0"/></clipPath><clipPath id="ag"><path d="M371.3867 165H389v6h-17.6133zm0 0"/></clipPath><clipPath id="ah"><path d="M371.3867 129H389v6h-17.6133zm0 0"/></clipPath><clipPath id="ai"><path d="M371.3867 93H389v6h-17.6133zm0 0"/></clipPath><clipPath id="aj"><path d="M371.3867 57H389v6h-17.6133zm0 0"/></clipPath><clipPath id="ak"><path d="M371.3867 20H389v6h-17.6133zm0 0"/></clipPath><clipPath id="al"><path d="M394.3828 18h319.9687v222H394.3828zm0 0"/></clipPath><path id="a" d="M1.8906-4.8594c-.453125 0-.875.203125-1.125.546875-.3125.421875-.46875 1.0625-.46875 1.96875 0 1.625.546875 2.5 1.59375 2.5 1.03125 0 1.59375-.875 1.59375-2.46875 0-.9375-.15625-1.5625-.484375-2-.25-.34375-.65625-.546875-1.109375-.546875zm0 .5469c.640625 0 .96875.65625.96875 1.953125 0 1.375-.3125 2.015625-.984375 2.015625-.640625 0-.96875-.671875-.96875-2 0-1.328125.328125-1.96875.984375-1.96875zm0 0"/><path id="b" d="M1.3125-.7187H.5938V0h.7188zm0 0"/><path id="c" d="M3.4688-.5937H.9063c.0625-.40625.28125-.65625.890625-1l.6719-.375C3.15625-2.328125 3.5-2.828125 3.5-3.421875c0-.40625-.15625-.78125-.453125-1.046875-.28125-.265625-.640625-.390625-1.09375-.390625-.625 0-1.078125.21875-1.34375.640625-.171875.25-.25.5625-.265625 1.046875h.6094c.015625-.328125.0625-.53125.140625-.6875.15625-.28125.46875-.46875.828125-.46875.546875 0 .96875.390625.96875.90625 0 .390625-.234375.71875-.65625.96875l-.6406.3594C.578125-1.53125.28125-1.0625.234375 0H3.4688zm0 0"/><path id="d" d="M3.2656-4.8594H.75L.3906-2.2031h.5625c.28125-.34375.515625-.453125.890625-.453125.640625 0 1.0625.4375 1.0625 1.15625 0 .703125-.40625 1.125-1.0625 1.125-.53125 0-.859375-.265625-1-.8125H.2344c.09375.390625.15625.578125.296875.765625.281225.35935.7656.5781 1.3281.5781.96875 0 1.65625-.703125 1.65625-1.734375 0-.953125-.640625-1.625-1.5625-1.625-.34375 0-.625.09375-.90625.296875l.1875-1.3437h2.0313zm0 0"/><path id="e" d="M3.5625-4.8594h-3.25v.6094h2.625C1.78125-2.609375 1.3125-1.59375.953125 0h.6406c.265625-1.546875.875-2.890625 1.96875-4.34375zm0 0"/><path id="f" d="M1.7813-3.4531V0h.5937v-4.8594h-.3906c-.21875.75-.359375.859375-1.28125.96875v.4375zm0 0"/><path id="g" d="M394.3828 8.1719H395v242.2227h-.6172zm0 0"/><path id="h" d="M394.3828 239h319.9687v1H394.3828zm0 0"/><path id="i" d="M399.5176-211.1806v-2425.5128"/><path id="j" d="M399.5176-211.1806h3195.983"/><path id="k" d="M399.5176-2636.6934h3195.983"/><path id="l" d="M399.4949-211.1806v-2425.5128"/><path id="m" d="M399.4949-321.4081h3196.022"/></defs><path fill="#fff" d="M16.5 250.3945h319.9648V8.1719H16.5zm0 0"/><g style="clip-path:url(#B);fill:none;stroke-width:5.70714;stroke-linecap:round;stroke:#bfbfbf;stroke-miterlimit:10"><g transform="matrix(.100115 0 0 .0998645 -23.49758 271.48398)"><use href="#i"/><use stroke-dasharray="11.4143,17.1214" href="#i"/></g></g><g clip-path="url(#C)"><path d="M908.426122-211.180604v-2425.512773" class="b"/></g><g clip-path="url(#D)"><path d="M1417.334647-211.180604v-2425.512773" class="b"/></g><g clip-path="url(#E)"><path d="M1926.243172-211.180604v-2425.512773" class="b"/></g><g clip-path="url(#F)"><path d="M2435.151698-211.180604v-2425.512773" class="b"/></g><g clip-path="url(#G)"><path d="M2944.099241-211.180604v-2425.512773" class="b"/></g><g clip-path="url(#H)"><path d="M3453.007766-211.180604v-2425.512773" class="b"/></g><g clip-path="url(#I)"><use href="#j" class="b"/></g><g clip-path="url(#J)"><path d="M399.517597-615.400136h3195.982995" class="b"/></g><g clip-path="url(#K)"><path d="M399.517597-1019.6979h3195.982995" class="b"/></g><g clip-path="url(#L)"><path d="M399.517597-1423.917433h3195.982995" class="b"/></g><g clip-path="url(#M)"><path d="M399.517597-1828.176081h3195.982995" class="b"/></g><g clip-path="url(#N)"><path d="M399.517597-2232.434729h3195.982995" class="b"/></g><g clip-path="url(#O)"><use href="#k" class="b"/></g><g class="e"><use href="#j" class="c"/><g class="d"><path d="M399.517597-211.180604v-45.647783"/><path d="M399.517597-211.180604v-22.804334"/><path d="M450.396744-211.180604v-22.804334"/><path d="M501.275891-211.180604v-22.804334"/><path d="M552.194056-211.180604v-22.804334"/><path d="M603.073203-211.180604v-22.804334"/><path d="M653.95235-211.180604v-22.804334"/><path d="M704.831498-211.180604v-22.804334"/><path d="M755.749663-211.180604v-22.804334"/><path d="M806.62881-211.180604v-22.804334"/><path d="M908.426122-211.180604v-45.647783"/><path d="M908.426122-211.180604v-22.804334"/><path d="M959.305269-211.180604v-22.804334"/><path d="M1010.184416-211.180604v-22.804334"/><path d="M1061.102581-211.180604v-22.804334"/><path d="M1111.981728-211.180604v-22.804334"/><path d="M1162.860876-211.180604v-22.804334"/><path d="M1213.779041-211.180604v-22.804334"/><path d="M1264.658188-211.180604v-22.804334"/><path d="M1315.537335-211.180604v-22.804334"/><path d="M1417.334647-211.180604v-45.647783"/><path d="M1417.334647-211.180604v-22.804334"/><path d="M1468.213794-211.180604v-22.804334"/><path d="M1519.131959-211.180604v-22.804334"/><path d="M1570.011107-211.180604v-22.804334"/><path d="M1620.890254-211.180604v-22.804334"/><path d="M1671.808419-211.180604v-22.804334"/><path d="M1722.687566-211.180604v-22.804334"/><path d="M1773.566713-211.180604v-22.804334"/><path d="M1824.484878-211.180604v-22.804334"/><path d="M1926.243172-211.180604v-45.647783"/><path d="M1926.243172-211.180604v-22.804334"/><path d="M1977.12232-211.180604v-22.804334"/><path d="M2028.040485-211.180604v-22.804334"/><path d="M2078.919632-211.180604v-22.804334"/><path d="M2129.837797-211.180604v-22.804334"/><path d="M2180.716944-211.180604v-22.804334"/><path d="M2231.596091-211.180604v-22.804334"/><path d="M2282.475238-211.180604v-22.804334"/><path d="M2333.393403-211.180604v-22.804334"/><path d="M2435.151698-211.180604v-45.647783"/><path d="M2435.151698-211.180604v-22.804334"/><path d="M2486.069863-211.180604v-22.804334"/><path d="M2536.94901-211.180604v-22.804334"/><path d="M2587.828157-211.180604v-22.804334"/><path d="M2638.746322-211.180604v-22.804334"/><path d="M2689.625469-211.180604v-22.804334"/><path d="M2740.504616-211.180604v-22.804334"/><path d="M2791.422781-211.180604v-22.804334"/><path d="M2842.301929-211.180604v-22.804334"/><path d="M2944.099241-211.180604v-45.647783"/><path d="M2944.099241-211.180604v-22.804334"/><path d="M2994.978388-211.180604v-22.804334"/><path d="M3045.857535-211.180604v-22.804334"/><path d="M3096.7757-211.180604v-22.804334"/><path d="M3147.654847-211.180604v-22.804334"/><path d="M3198.533995-211.180604v-22.804334"/><path d="M3249.452159-211.180604v-22.804334"/><path d="M3300.331307-211.180604v-22.804334"/><path d="M3351.210454-211.180604v-22.804334"/><path d="M3453.007766-211.180604v-45.647783"/><path d="M3453.007766-211.180604v-22.804334"/><path d="M3503.886913-211.180604v-22.804334"/><path d="M3554.805078-211.180604v-22.804334"/></g></g><use x="9.8271" y="259.5153" href="#o"/><use x="13.6393" y="259.5153" href="#p"/><use x="15.5454" y="259.5153" href="#o"/><use x="19.3576" y="259.5153" href="#o"/><use x="60.6791" y="259.5153" href="#o"/><use x="64.4913" y="259.5153" href="#p"/><use x="66.3974" y="259.5153" href="#x"/><use x="70.2096" y="259.5153" href="#r"/><use x="111.5314" y="259.5153" href="#o"/><use x="115.3436" y="259.5153" href="#p"/><use x="117.2497" y="259.5153" href="#r"/><use x="121.0619" y="259.5153" href="#o"/><use x="162.3834" y="259.5153" href="#o"/><use x="166.1956" y="259.5153" href="#p"/><use x="168.1017" y="259.5153" href="#v"/><use x="171.9139" y="259.5153" href="#r"/><use x="213.2357" y="259.5153" href="#w"/><use x="217.0479" y="259.5153" href="#p"/><use x="218.954" y="259.5153" href="#o"/><use x="222.7662" y="259.5153" href="#o"/><use x="264.0876" y="259.5153" href="#w"/><use x="267.8998" y="259.5153" href="#p"/><use x="269.8059" y="259.5153" href="#x"/><use x="273.6181" y="259.5153" href="#r"/><use x="315.5109" y="259.5153" href="#w"/><use x="319.3231" y="259.5153" href="#p"/><use x="321.2292" y="259.5153" href="#r"/><use x="325.0414" y="259.5153" href="#o"/><g class="e"><use href="#k" class="c"/><g class="d"><path d="M399.517597-2636.693377v45.647783"/><path d="M399.517597-2636.693377v22.804334"/><path d="M450.396744-2636.693377v22.804334"/><path d="M501.275891-2636.693377v22.804334"/><path d="M552.194056-2636.693377v22.804334"/><path d="M603.073203-2636.693377v22.804334"/><path d="M653.95235-2636.693377v22.804334"/><path d="M704.831498-2636.693377v22.804334"/><path d="M755.749663-2636.693377v22.804334"/><path d="M806.62881-2636.693377v22.804334"/><path d="M908.426122-2636.693377v45.647783"/><path d="M908.426122-2636.693377v22.804334"/><path d="M959.305269-2636.693377v22.804334"/><path d="M1010.184416-2636.693377v22.804334"/><path d="M1061.102581-2636.693377v22.804334"/><path d="M1111.981728-2636.693377v22.804334"/><path d="M1162.860876-2636.693377v22.804334"/><path d="M1213.779041-2636.693377v22.804334"/><path d="M1264.658188-2636.693377v22.804334"/><path d="M1315.537335-2636.693377v22.804334"/><path d="M1417.334647-2636.693377v45.647783"/><path d="M1417.334647-2636.693377v22.804334"/><path d="M1468.213794-2636.693377v22.804334"/><path d="M1519.131959-2636.693377v22.804334"/><path d="M1570.011107-2636.693377v22.804334"/><path d="M1620.890254-2636.693377v22.804334"/><path d="M1671.808419-2636.693377v22.804334"/><path d="M1722.687566-2636.693377v22.804334"/><path d="M1773.566713-2636.693377v22.804334"/><path d="M1824.484878-2636.693377v22.804334"/><path d="M1926.243172-2636.693377v45.647783"/><path d="M1926.243172-2636.693377v22.804334"/><path d="M1977.12232-2636.693377v22.804334"/><path d="M2028.040485-2636.693377v22.804334"/><path d="M2078.919632-2636.693377v22.804334"/><path d="M2129.837797-2636.693377v22.804334"/><path d="M2180.716944-2636.693377v22.804334"/><path d="M2231.596091-2636.693377v22.804334"/><path d="M2282.475238-2636.693377v22.804334"/><path d="M2333.393403-2636.693377v22.804334"/><path d="M2435.151698-2636.693377v45.647783"/><path d="M2435.151698-2636.693377v22.804334"/><path d="M2486.069863-2636.693377v22.804334"/><path d="M2536.94901-2636.693377v22.804334"/><path d="M2587.828157-2636.693377v22.804334"/><path d="M2638.746322-2636.693377v22.804334"/><path d="M2689.625469-2636.693377v22.804334"/><path d="M2740.504616-2636.693377v22.804334"/><path d="M2791.422781-2636.693377v22.804334"/><path d="M2842.301929-2636.693377v22.804334"/><path d="M2944.099241-2636.693377v45.647783"/><path d="M2944.099241-2636.693377v22.804334"/><path d="M2994.978388-2636.693377v22.804334"/><path d="M3045.857535-2636.693377v22.804334"/><path d="M3096.7757-2636.693377v22.804334"/><path d="M3147.654847-2636.693377v22.804334"/><path d="M3198.533995-2636.693377v22.804334"/><path d="M3249.452159-2636.693377v22.804334"/><path d="M3300.331307-2636.693377v22.804334"/><path d="M3351.210454-2636.693377v22.804334"/><path d="M3453.007766-2636.693377v45.647783"/><path d="M3453.007766-2636.693377v22.804334"/><path d="M3503.886913-2636.693377v22.804334"/><path d="M3554.805078-2636.693377v22.804334"/></g></g><use x="9.8271" y="5.8913" href="#o"/><use x="13.6393" y="5.8913" href="#p"/><use x="15.5454" y="5.8913" href="#o"/><use x="19.3576" y="5.8913" href="#o"/><use x="60.6791" y="5.8913" href="#o"/><use x="64.4913" y="5.8913" href="#p"/><use x="66.3974" y="5.8913" href="#x"/><use x="70.2096" y="5.8913" href="#r"/><use x="111.5314" y="5.8913" href="#o"/><use x="115.3436" y="5.8913" href="#p"/><use x="117.2497" y="5.8913" href="#r"/><use x="121.0619" y="5.8913" href="#o"/><use x="162.3834" y="5.8913" href="#o"/><use x="166.1956" y="5.8913" href="#p"/><use x="168.1017" y="5.8913" href="#v"/><use x="171.9139" y="5.8913" href="#r"/><use x="213.2357" y="5.8913" href="#w"/><use x="217.0479" y="5.8913" href="#p"/><use x="218.954" y="5.8913" href="#o"/><use x="222.7662" y="5.8913" href="#o"/><use x="264.0876" y="5.8913" href="#w"/><use x="267.8998" y="5.8913" href="#p"/><use x="269.8059" y="5.8913" href="#x"/><use x="273.6181" y="5.8913" href="#r"/><use x="315.5109" y="5.8913" href="#w"/><use x="319.3231" y="5.8913" href="#p"/><use x="321.2292" y="5.8913" href="#r"/><use x="325.0414" y="5.8913" href="#o"/><g class="e"><use href="#i" class="c"/><g class="d"><path d="M399.517597-211.180604h45.650768"/><path d="M399.517597-211.180604h22.825384"/><path d="M399.517597-251.586911h22.825384"/><path d="M399.517597-292.032333h22.825384"/><path d="M399.517597-332.43864h22.825384"/><path d="M399.517597-372.884063h22.825384"/><path d="M399.517597-413.29037h22.825384"/><path d="M399.517597-453.696677h22.825384"/><path d="M399.517597-494.1421h22.825384"/><path d="M399.517597-534.587522h22.825384"/><path d="M399.517597-615.400136h45.650768"/><path d="M399.517597-615.400136h22.825384"/><path d="M399.517597-655.845559h22.825384"/><path d="M399.517597-696.251866h22.825384"/><path d="M399.517597-736.697289h22.825384"/><path d="M399.517597-777.142711h22.825384"/><path d="M399.517597-817.549018h22.825384"/><path d="M399.517597-857.955325h22.825384"/><path d="M399.517597-898.400748h22.825384"/><path d="M399.517597-938.807055h22.825384"/><path d="M399.517597-1019.6979h45.650768"/><path d="M399.517597-1019.6979h22.825384"/><path d="M399.517597-1060.104207h22.825384"/><path d="M399.517597-1100.510514h22.825384"/><path d="M399.517597-1140.955937h22.825384"/><path d="M399.517597-1181.362244h22.825384"/><path d="M399.517597-1221.807666h22.825384"/><path d="M399.517597-1262.213974h22.825384"/><path d="M399.517597-1302.659396h22.825384"/><path d="M399.517597-1343.065703h22.825384"/><path d="M399.517597-1423.917433h45.650768"/><path d="M399.517597-1423.917433h22.825384"/><path d="M399.517597-1464.362855h22.825384"/><path d="M399.517597-1504.808278h22.825384"/><path d="M399.517597-1545.214585h22.825384"/><path d="M399.517597-1585.620892h22.825384"/><path d="M399.517597-1626.066315h22.825384"/><path d="M399.517597-1666.472622h22.825384"/><path d="M399.517597-1706.918044h22.825384"/><path d="M399.517597-1747.324351h22.825384"/><path d="M399.517597-1828.176081h45.650768"/><path d="M399.517597-1828.176081h22.825384"/><path d="M399.517597-1868.621504h22.825384"/><path d="M399.517597-1909.027811h22.825384"/><path d="M399.517597-1949.473233h22.825384"/><path d="M399.517597-1989.87954h22.825384"/><path d="M399.517597-2030.324963h22.825384"/><path d="M399.517597-2070.73127h22.825384"/><path d="M399.517597-2111.176692h22.825384"/><path d="M399.517597-2151.583h22.825384"/><path d="M399.517597-2232.434729h45.650768"/><path d="M399.517597-2232.434729h22.825384"/><path d="M399.517597-2272.880152h22.825384"/><path d="M399.517597-2313.286459h22.825384"/><path d="M399.517597-2353.731881h22.825384"/><path d="M399.517597-2394.138188h22.825384"/><path d="M399.517597-2434.583611h22.825384"/><path d="M399.517597-2474.989918h22.825384"/><path d="M399.517597-2515.435341h22.825384"/><path d="M399.517597-2555.841648h22.825384"/><path d="M399.517597-2636.693377h45.650768"/><path d="M399.517597-2636.693377h22.825384"/></g></g><use x="1.2546" y="253.8159" href="#r"/><use x="5.0668" y="253.8159" href="#p"/><use x="6.9729" y="253.8159" href="#o"/><use x="1.2546" y="213.3502" href="#r"/><use x="5.0668" y="213.3502" href="#p"/><use x="6.9729" y="213.3502" href="#r"/><use x="1.2546" y="172.884" href="#y"/><use x="5.0668" y="172.884" href="#p"/><use x="6.9729" y="172.884" href="#o"/><use x="1.2546" y="132.4183" href="#y"/><use x="5.0668" y="132.4183" href="#p"/><use x="6.9729" y="132.4183" href="#r"/><use x="1.2546" y="91.9526" href="#v"/><use x="5.0668" y="91.9526" href="#p"/><use x="6.9729" y="91.9526" href="#o"/><use x="1.2546" y="51.4868" href="#v"/><use x="5.0668" y="51.4868" href="#p"/><use x="6.9729" y="51.4868" href="#r"/><use x="1.2546" y="11.5909" href="#A"/><use x="5.0668" y="11.5909" href="#p"/><use x="6.9729" y="11.5909" href="#o"/><g class="e"><path d="M3595.500592-211.180604v-2425.512773" class="c"/><g class="d"><path d="M3595.500592-211.180604h-45.650768"/><path d="M3595.500592-211.180604h-22.825384"/><path d="M3595.500592-251.586911h-22.825384"/><path d="M3595.500592-292.032333h-22.825384"/><path d="M3595.500592-332.43864h-22.825384"/><path d="M3595.500592-372.884063h-22.825384"/><path d="M3595.500592-413.29037h-22.825384"/><path d="M3595.500592-453.696677h-22.825384"/><path d="M3595.500592-494.1421h-22.825384"/><path d="M3595.500592-534.587522h-22.825384"/><path d="M3595.500592-615.400136h-45.650768"/><path d="M3595.500592-615.400136h-22.825384"/><path d="M3595.500592-655.845559h-22.825384"/><path d="M3595.500592-696.251866h-22.825384"/><path d="M3595.500592-736.697289h-22.825384"/><path d="M3595.500592-777.142711h-22.825384"/><path d="M3595.500592-817.549018h-22.825384"/><path d="M3595.500592-857.955325h-22.825384"/><path d="M3595.500592-898.400748h-22.825384"/><path d="M3595.500592-938.807055h-22.825384"/><path d="M3595.500592-1019.6979h-45.650768"/><path d="M3595.500592-1019.6979h-22.825384"/><path d="M3595.500592-1060.104207h-22.825384"/><path d="M3595.500592-1100.510514h-22.825384"/><path d="M3595.500592-1140.955937h-22.825384"/><path d="M3595.500592-1181.362244h-22.825384"/><path d="M3595.500592-1221.807666h-22.825384"/><path d="M3595.500592-1262.213974h-22.825384"/><path d="M3595.500592-1302.659396h-22.825384"/><path d="M3595.500592-1343.065703h-22.825384"/><path d="M3595.500592-1423.917433h-45.650768"/><path d="M3595.500592-1423.917433h-22.825384"/><path d="M3595.500592-1464.362855h-22.825384"/><path d="M3595.500592-1504.808278h-22.825384"/><path d="M3595.500592-1545.214585h-22.825384"/><path d="M3595.500592-1585.620892h-22.825384"/><path d="M3595.500592-1626.066315h-22.825384"/><path d="M3595.500592-1666.472622h-22.825384"/><path d="M3595.500592-1706.918044h-22.825384"/><path d="M3595.500592-1747.324351h-22.825384"/><path d="M3595.500592-1828.176081h-45.650768"/><path d="M3595.500592-1828.176081h-22.825384"/><path d="M3595.500592-1868.621504h-22.825384"/><path d="M3595.500592-1909.027811h-22.825384"/><path d="M3595.500592-1949.473233h-22.825384"/><path d="M3595.500592-1989.87954h-22.825384"/><path d="M3595.500592-2030.324963h-22.825384"/><path d="M3595.500592-2070.73127h-22.825384"/><path d="M3595.500592-2111.176692h-22.825384"/><path d="M3595.500592-2151.583h-22.825384"/><path d="M3595.500592-2232.434729h-45.650768"/><path d="M3595.500592-2232.434729h-22.825384"/><path d="M3595.500592-2272.880152h-22.825384"/><path d="M3595.500592-2313.286459h-22.825384"/><path d="M3595.500592-2353.731881h-22.825384"/><path d="M3595.500592-2394.138188h-22.825384"/><path d="M3595.500592-2434.583611h-22.825384"/><path d="M3595.500592-2474.989918h-22.825384"/><path d="M3595.500592-2515.435341h-22.825384"/><path d="M3595.500592-2555.841648h-22.825384"/><path d="M3595.500592-2636.693377h-45.650768"/><path d="M3595.500592-2636.693377h-22.825384"/></g></g><g clip-path="url(#P)"><use x="342.1788" y="253.8159" href="#r"/><use x="345.991" y="253.8159" href="#p"/><use x="347.897" y="253.8159" href="#o"/></g><g clip-path="url(#Q)"><use x="342.1788" y="213.3502" href="#r"/><use x="345.991" y="213.3502" href="#p"/><use x="347.897" y="213.3502" href="#r"/></g><g clip-path="url(#R)"><use x="342.1788" y="172.884" href="#y"/><use x="345.991" y="172.884" href="#p"/><use x="347.897" y="172.884" href="#o"/></g><g clip-path="url(#S)"><use x="342.1788" y="132.4183" href="#y"/><use x="345.991" y="132.4183" href="#p"/><use x="347.897" y="132.4183" href="#r"/></g><g clip-path="url(#T)"><use x="342.1788" y="91.9526" href="#v"/><use x="345.991" y="91.9526" href="#p"/><use x="347.897" y="91.9526" href="#o"/></g><g clip-path="url(#U)"><use x="342.1788" y="51.4868" href="#v"/><use x="345.991" y="51.4868" href="#p"/><use x="347.897" y="51.4868" href="#r"/></g><g clip-path="url(#V)"><use x="342.1788" y="11.5909" href="#A"/><use x="345.991" y="11.5909" href="#p"/><use x="347.897" y="11.5909" href="#o"/></g><g clip-path="url(#W)"><path d="M399.517597-1248.640897h18.37736l9.130154-.078231 9.208189-.039115 9.091136-.039115 18.260308-.156462 9.091136-.078231 18.416378-.234693 9.052118-.156462 9.208189-.117347 9.169172-.195577 9.247207-.156462 9.169171-.195578 9.052119-.195577 9.247207-.195578 18.338342-.469386 9.169172-.273808 9.130154-.234693 9.091136-.273809 18.260307-.625848 9.169172-.273808 9.247207-.35204 9.052118-.352039 9.169171-.352039 9.208189-.35204 9.247207-.391155 9.130154-.391155 9.052118-.391155 9.286225-.43027 9.130154-.430271 9.169171-.43027 9.169172-.469386 18.260307-.938772 9.091136-.508501 9.130154-.508502 9.208189-.508501 9.208189-.547617 9.052118-.547617 9.169172-.586733 9.208189-.547617 9.247207-.586732 9.130154-.625848 9.052118-.586732 9.286225-.625848 9.169171-.664964 9.130154-.625848 9.169171-.704079 9.130154-.664963 18.260308-1.408158 9.091135-.704079 18.416379-1.486389 9.052118-.743194 9.169172-.78231 9.208189-.78231 9.247207-.78231 9.169171-.821425 9.013101-.821426 9.286224-.860541 9.169172-.821425 9.130154-.860541 9.208189-.899656 9.091136-.860541 9.130154-.899657 9.130153-.938771 9.091136-.899657 9.208189-.977887 9.20819-.938772 9.091136-.977888 18.338343-1.955774 9.286224-1.017003 9.130154-1.056119 9.052118-1.017002 9.247207-1.056119 9.169172-1.056118 18.338343-2.190468 9.091136-1.095234 9.130153-1.095234 9.130154-1.134349 9.091136-1.13435 9.208189-1.173464 9.247207-1.173465 9.052118-1.173465 9.169172-1.21258 9.208189-1.212581 9.247207-1.251696 9.130154-1.21258 9.052118-1.251696 9.286225-1.290811 9.130153-1.290812 18.338343-2.581622 18.260308-2.659854 9.091136-1.329927 9.130153-1.369042 9.20819-1.369043 9.208189-1.408157 9.052118-1.408158 9.169171-1.408158 9.20819-1.447274 9.247207-1.447273 9.169171-1.447273 9.013101-1.486389 9.286224-1.486389 9.169172-1.525504 9.130154-1.525505 9.169171-1.525504 9.130154-1.525504 18.260307-3.12924 9.091136-1.56462 9.208189-1.603735 9.20819-1.642851 9.052118-1.603735 9.169171-1.642851 9.208189-1.681966 9.247207-1.681967 9.169172-1.681966 9.0131-1.681966 9.286225-1.760198 9.169172-1.721081 18.338342-3.520395 9.091136-1.760197 9.130154-1.760198 9.130154-1.799312 9.091136-1.799313 9.208189-1.877544 9.208189-1.838428 9.052118-1.838429 9.20819-1.877543 9.169171-1.91666 9.286225-1.916659 9.130154-1.916659 9.052118-1.91666 9.247207-1.99489 9.169171-1.955775 18.338343-3.98978 9.130154-1.99489 9.091136-1.994891 18.260307-4.068011 9.169172-2.112237 9.247207-2.073121 9.052118-2.073122 9.169171-2.151352 9.20819-2.112237 9.247207-2.190467 9.130153-2.151353 9.052119-2.151352 9.286224-2.229583 9.169172-2.190468 9.130153-2.229583 9.169172-2.229583 27.390461-6.806097 9.091136-2.268698 18.416378-4.69386 9.052119-2.307814 9.169171-2.386045 9.208189-2.386046 9.247207-2.386045 9.130154-2.425161 9.052118-2.386045 9.286225-2.503392 9.169171-2.42516 9.130154-2.503392 9.208189-2.503392 9.091136-2.464276 9.130154-2.542507 9.130154-2.503392 9.091136-2.542507 9.208189-2.581623 9.208189-2.620738 9.052118-2.581623 9.169172-2.620738 9.208189-2.659854 9.247207-2.659853 9.169171-2.659854 9.013101-2.659854 9.286225-2.738085 9.169171-2.738084 9.130154-2.738085 9.208189-2.738085 9.091136-2.7772 18.260307-5.5544 9.091136-2.816316 9.20819-2.855431 9.247207-2.855431 9.0131-2.855432 9.208189-2.894546 9.208189-2.933662 9.247207-2.933663 9.130154-2.933662 9.052118-2.894546 9.247207-3.051009 9.169172-2.972778 9.169171-3.011893 9.169172-3.051009 9.130153-3.011893 9.091136-3.051008 9.130154-3.051009 9.091136-3.090124 9.208189-3.12924 9.247207-3.168355 9.052119-3.12924 9.169171-3.168355 9.208189-3.207471 9.247207-3.20747 9.130154-3.246586 9.052118-3.207471 9.286225-3.285702 9.130154-3.285701 9.169171-3.285702 9.169171-3.324817 18.260308-6.649634 9.091136-3.363933 9.130154-3.363933 9.169171-3.442163 9.247207-3.442164 9.052118-3.403048 9.169172-3.481279 9.208189-3.481279 9.247207-3.55951 9.169171-3.520395 9.013101-3.481279 9.286225-3.598626 9.169171-3.598625 9.130154-3.55951 9.169171-3.637741 27.390461-10.913224 9.091136-3.676856 18.416379-7.510176 9.052118-3.715972 9.169171-3.755087 9.20819-3.833319 9.247207-3.833318 9.169171-3.833319 9.013101-3.833319 9.286224-3.911549 9.169172-3.91155 9.169171-3.872434 9.169172-3.950665 9.091136-3.950665 9.130153-3.950665 9.130154-3.98978 9.091136-3.989781 9.208189-4.068012 9.208189-4.107127 9.091136-4.028896 9.169172-4.107127 9.169171-4.146242 9.247207-4.185358 9.169172-4.146243 9.052118-4.146242 9.286225-4.263589 9.130153-4.224474 18.338343-8.527178 18.260308-8.605409 9.091136-4.302705 9.130153-4.34182 9.169172-4.420051 9.247207-4.420051 9.052118-4.380935 9.169172-4.459167 9.208189-4.498282 9.247207-4.537397 9.130153-4.537398 9.052119-4.459166 9.286224-4.615629 9.130154-4.615628 18.338343-9.231257 18.260308-9.309488 9.091135-4.69386 9.130154-4.693859 9.208189-4.772091 9.20819-4.811206 9.052118-4.732975 9.169171-4.850321 9.20819-4.850322 9.247206-4.928552 9.169172-4.889437 9.0131-4.850321 9.286225-5.006784 9.169172-5.006783 9.130153-4.967668 9.169172-5.045899 9.130154-5.006784 9.130153-5.045899 9.130154-5.085014 9.091136-5.085015 9.208189-5.163245 9.208189-5.202361 9.052119-5.163245 9.169171-5.202361 9.208189-5.280592 9.247207-5.319708 9.169172-5.319707 9.0131-5.241476 9.286225-5.437054 9.169171-5.358823 9.130154-5.397939 9.208189-5.476169 9.091136-5.397938 18.260308-10.952339 9.091136-5.515285 9.208189-5.593516 9.247207-5.632631 9.0131-5.554401 9.169172-5.671747 9.247207-5.710862 9.247207-5.749978 9.130153-5.749978 9.052119-5.671747 9.247207-5.867324 18.338342-11.656418 9.169172-5.90644 9.130154-5.867324 9.091136-5.90644 9.130153-5.945555 9.130154-5.984671 9.169172-6.023786 9.247207-6.102018 9.052118-6.023786 9.169171-6.102017 9.208189-6.180249" style="fill:none;stroke-width:11.4143;stroke-linecap:round;stroke-linejoin:round;stroke:#00008b;stroke-miterlimit:10;transform:matrix(.100115,0,0,.0998645,-23.49758,271.48398)"/></g><g clip-path="url(#X)"><path d="M399.517597-1248.640897h3195.982995" style="fill:none;stroke-width:11.4143;stroke-linecap:round;stroke-linejoin:round;stroke:#006400;stroke-miterlimit:10;transform:matrix(.100115,0,0,.0998645,-23.49758,271.48398)"/></g><path fill="#fff" d="M394.3828 250.3945h319.9687V8.1719H394.3828zm0 0"/><g clip-path="url(#Y)"><use href="#l" class="g"/></g><g clip-path="url(#Z)"><use href="#m" class="g"/></g><g clip-path="url(#a0)"><use href="#l" class="a"/></g><g clip-path="url(#a1)"><path d="M908.403463-211.180604v-2425.512773" class="a"/></g><g clip-path="url(#a2)"><path d="M1417.311988-211.180604v-2425.512773" class="a"/></g><g clip-path="url(#a3)"><path d="M1926.259531-211.180604v-2425.512773" class="a"/></g><g clip-path="url(#a4)"><path d="M2435.168056-211.180604v-2425.512773" class="a"/></g><g clip-path="url(#a5)"><path d="M2944.076582-211.180604v-2425.512773" class="a"/></g><g clip-path="url(#a6)"><path d="M3453.024125-211.180604v-2425.512773" class="a"/></g><g clip-path="url(#a7)"><use href="#m" class="a"/></g><g clip-path="url(#a8)"><path d="M399.494938-682.600558h3196.022013" class="a"/></g><g clip-path="url(#a9)"><path d="M399.494938-1043.793045h3196.022013" class="a"/></g><g clip-path="url(#aa)"><path d="M399.494938-1404.946417h3196.022013" class="a"/></g><g clip-path="url(#ab)"><path d="M399.494938-1766.138905h3196.022013" class="a"/></g><g clip-path="url(#ac)"><path d="M399.494938-2127.331392h3196.022013" class="a"/></g><g clip-path="url(#ad)"><path d="M399.494938-2488.484764h3196.022013" class="a"/></g><g class="f"><path d="M399.494938-211.180604h3196.022013" class="c"/><g class="d"><path d="M399.494938-211.180604v-45.647783"/><path d="M399.494938-211.180604v-22.804334"/><path d="M450.374085-211.180604v-22.804334"/><path d="M501.29225-211.180604v-22.804334"/><path d="M552.171397-211.180604v-22.804334"/><path d="M603.050544-211.180604v-22.804334"/><path d="M653.968709-211.180604v-22.804334"/><path d="M704.847856-211.180604v-22.804334"/><path d="M755.727004-211.180604v-22.804334"/><path d="M806.645169-211.180604v-22.804334"/><path d="M908.403463-211.180604v-45.647783"/><path d="M908.403463-211.180604v-22.804334"/><path d="M959.321628-211.180604v-22.804334"/><path d="M1010.200775-211.180604v-22.804334"/><path d="M1061.079922-211.180604v-22.804334"/><path d="M1111.998087-211.180604v-22.804334"/><path d="M1162.877234-211.180604v-22.804334"/><path d="M1213.756382-211.180604v-22.804334"/><path d="M1264.674547-211.180604v-22.804334"/><path d="M1315.553694-211.180604v-22.804334"/><path d="M1417.311988-211.180604v-45.647783"/><path d="M1417.311988-211.180604v-22.804334"/><path d="M1468.230153-211.180604v-22.804334"/><path d="M1519.1093-211.180604v-22.804334"/><path d="M1570.027465-211.180604v-22.804334"/><path d="M1620.906613-211.180604v-22.804334"/><path d="M1671.78576-211.180604v-22.804334"/><path d="M1722.664907-211.180604v-22.804334"/><path d="M1773.583072-211.180604v-22.804334"/><path d="M1824.462219-211.180604v-22.804334"/><path d="M1926.259531-211.180604v-45.647783"/><path d="M1926.259531-211.180604v-22.804334"/><path d="M1977.138678-211.180604v-22.804334"/><path d="M2028.056843-211.180604v-22.804334"/><path d="M2078.935991-211.180604v-22.804334"/><path d="M2129.815138-211.180604v-22.804334"/><path d="M2180.694285-211.180604v-22.804334"/><path d="M2231.61245-211.180604v-22.804334"/><path d="M2282.491597-211.180604v-22.804334"/><path d="M2333.370744-211.180604v-22.804334"/><path d="M2435.168056-211.180604v-45.647783"/><path d="M2435.168056-211.180604v-22.804334"/><path d="M2486.047204-211.180604v-22.804334"/><path d="M2536.965369-211.180604v-22.804334"/><path d="M2587.844516-211.180604v-22.804334"/><path d="M2638.723663-211.180604v-22.804334"/><path d="M2689.641828-211.180604v-22.804334"/><path d="M2740.520975-211.180604v-22.804334"/><path d="M2791.400122-211.180604v-22.804334"/><path d="M2842.318287-211.180604v-22.804334"/><path d="M2944.076582-211.180604v-45.647783"/><path d="M2944.076582-211.180604v-22.804334"/><path d="M2994.994747-211.180604v-22.804334"/><path d="M3045.873894-211.180604v-22.804334"/><path d="M3096.753041-211.180604v-22.804334"/><path d="M3147.671206-211.180604v-22.804334"/><path d="M3198.550353-211.180604v-22.804334"/><path d="M3249.4295-211.180604v-22.804334"/><path d="M3300.347665-211.180604v-22.804334"/><path d="M3351.226813-211.180604v-22.804334"/><path d="M3453.024125-211.180604v-45.647783"/><path d="M3453.024125-211.180604v-22.804334"/><path d="M3503.903272-211.180604v-22.804334"/><path d="M3554.782419-211.180604v-22.804334"/></g></g><use x="387.7122" y="259.5153" href="#n"/><use x="391.5244" y="259.5153" href="#q"/><use x="393.4305" y="259.5153" href="#n"/><use x="397.2427" y="259.5153" href="#n"/><use x="438.5642" y="259.5153" href="#n"/><use x="442.3763" y="259.5153" href="#q"/><use x="444.2824" y="259.5153" href="#u"/><use x="448.0946" y="259.5153" href="#s"/><use x="489.4165" y="259.5153" href="#n"/><use x="493.2287" y="259.5153" href="#q"/><use x="495.1348" y="259.5153" href="#s"/><use x="498.947" y="259.5153" href="#n"/><use x="540.2685" y="259.5153" href="#n"/><use x="544.0806" y="259.5153" href="#q"/><use x="545.9867" y="259.5153" href="#z"/><use x="549.7989" y="259.5153" href="#s"/><use x="591.1208" y="259.5153" href="#t"/><use x="594.933" y="259.5153" href="#q"/><use x="596.8391" y="259.5153" href="#n"/><use x="600.6513" y="259.5153" href="#n"/><use x="641.9727" y="259.5153" href="#t"/><use x="645.7849" y="259.5153" href="#q"/><use x="647.691" y="259.5153" href="#u"/><use x="651.5032" y="259.5153" href="#s"/><use x="693.396" y="259.5153" href="#t"/><use x="697.2082" y="259.5153" href="#q"/><use x="699.1143" y="259.5153" href="#s"/><use x="702.9265" y="259.5153" href="#n"/><g class="f"><path d="M399.494938-2636.693377h3196.022013" class="c"/><g class="d"><path d="M399.494938-2636.693377v45.647783"/><path d="M399.494938-2636.693377v22.804334"/><path d="M450.374085-2636.693377v22.804334"/><path d="M501.29225-2636.693377v22.804334"/><path d="M552.171397-2636.693377v22.804334"/><path d="M603.050544-2636.693377v22.804334"/><path d="M653.968709-2636.693377v22.804334"/><path d="M704.847856-2636.693377v22.804334"/><path d="M755.727004-2636.693377v22.804334"/><path d="M806.645169-2636.693377v22.804334"/><path d="M908.403463-2636.693377v45.647783"/><path d="M908.403463-2636.693377v22.804334"/><path d="M959.321628-2636.693377v22.804334"/><path d="M1010.200775-2636.693377v22.804334"/><path d="M1061.079922-2636.693377v22.804334"/><path d="M1111.998087-2636.693377v22.804334"/><path d="M1162.877234-2636.693377v22.804334"/><path d="M1213.756382-2636.693377v22.804334"/><path d="M1264.674547-2636.693377v22.804334"/><path d="M1315.553694-2636.693377v22.804334"/><path d="M1417.311988-2636.693377v45.647783"/><path d="M1417.311988-2636.693377v22.804334"/><path d="M1468.230153-2636.693377v22.804334"/><path d="M1519.1093-2636.693377v22.804334"/><path d="M1570.027465-2636.693377v22.804334"/><path d="M1620.906613-2636.693377v22.804334"/><path d="M1671.78576-2636.693377v22.804334"/><path d="M1722.664907-2636.693377v22.804334"/><path d="M1773.583072-2636.693377v22.804334"/><path d="M1824.462219-2636.693377v22.804334"/><path d="M1926.259531-2636.693377v45.647783"/><path d="M1926.259531-2636.693377v22.804334"/><path d="M1977.138678-2636.693377v22.804334"/><path d="M2028.056843-2636.693377v22.804334"/><path d="M2078.935991-2636.693377v22.804334"/><path d="M2129.815138-2636.693377v22.804334"/><path d="M2180.694285-2636.693377v22.804334"/><path d="M2231.61245-2636.693377v22.804334"/><path d="M2282.491597-2636.693377v22.804334"/><path d="M2333.370744-2636.693377v22.804334"/><path d="M2435.168056-2636.693377v45.647783"/><path d="M2435.168056-2636.693377v22.804334"/><path d="M2486.047204-2636.693377v22.804334"/><path d="M2536.965369-2636.693377v22.804334"/><path d="M2587.844516-2636.693377v22.804334"/><path d="M2638.723663-2636.693377v22.804334"/><path d="M2689.641828-2636.693377v22.804334"/><path d="M2740.520975-2636.693377v22.804334"/><path d="M2791.400122-2636.693377v22.804334"/><path d="M2842.318287-2636.693377v22.804334"/><path d="M2944.076582-2636.693377v45.647783"/><path d="M2944.076582-2636.693377v22.804334"/><path d="M2994.994747-2636.693377v22.804334"/><path d="M3045.873894-2636.693377v22.804334"/><path d="M3096.753041-2636.693377v22.804334"/><path d="M3147.671206-2636.693377v22.804334"/><path d="M3198.550353-2636.693377v22.804334"/><path d="M3249.4295-2636.693377v22.804334"/><path d="M3300.347665-2636.693377v22.804334"/><path d="M3351.226813-2636.693377v22.804334"/><path d="M3453.024125-2636.693377v45.647783"/><path d="M3453.024125-2636.693377v22.804334"/><path d="M3503.903272-2636.693377v22.804334"/><path d="M3554.782419-2636.693377v22.804334"/></g></g><use x="387.7122" y="5.8913" href="#n"/><use x="391.5244" y="5.8913" href="#q"/><use x="393.4305" y="5.8913" href="#n"/><use x="397.2427" y="5.8913" href="#n"/><use x="438.5642" y="5.8913" href="#n"/><use x="442.3763" y="5.8913" href="#q"/><use x="444.2824" y="5.8913" href="#u"/><use x="448.0946" y="5.8913" href="#s"/><use x="489.4165" y="5.8913" href="#n"/><use x="493.2287" y="5.8913" href="#q"/><use x="495.1348" y="5.8913" href="#s"/><use x="498.947" y="5.8913" href="#n"/><use x="540.2685" y="5.8913" href="#n"/><use x="544.0806" y="5.8913" href="#q"/><use x="545.9867" y="5.8913" href="#z"/><use x="549.7989" y="5.8913" href="#s"/><use x="591.1208" y="5.8913" href="#t"/><use x="594.933" y="5.8913" href="#q"/><use x="596.8391" y="5.8913" href="#n"/><use x="600.6513" y="5.8913" href="#n"/><use x="641.9727" y="5.8913" href="#t"/><use x="645.7849" y="5.8913" href="#q"/><use x="647.691" y="5.8913" href="#u"/><use x="651.5032" y="5.8913" href="#s"/><use x="693.396" y="5.8913" href="#t"/><use x="697.2082" y="5.8913" href="#q"/><use x="699.1143" y="5.8913" href="#s"/><use x="702.9265" y="5.8913" href="#n"/><g class="f"><use href="#l" class="c"/><g class="d"><path d="M399.494938-213.058148h22.825384"/><path d="M399.494938-249.16175h22.825384"/><path d="M399.494938-321.408071h45.650768"/><path d="M399.494938-321.408071h22.825384"/><path d="M399.494938-357.550789h22.825384"/><path d="M399.494938-393.654391h22.825384"/><path d="M399.494938-429.757994h22.825384"/><path d="M399.494938-465.900712h22.825384"/><path d="M399.494938-502.004314h22.825384"/><path d="M399.494938-538.107917h22.825384"/><path d="M399.494938-574.250635h22.825384"/><path d="M399.494938-610.354237h22.825384"/><path d="M399.494938-682.600558h45.650768"/><path d="M399.494938-682.600558h22.825384"/><path d="M399.494938-718.704161h22.825384"/><path d="M399.494938-754.846879h22.825384"/><path d="M399.494938-790.950481h22.825384"/><path d="M399.494938-827.054084h22.825384"/><path d="M399.494938-863.196802h22.825384"/><path d="M399.494938-899.300404h22.825384"/><path d="M399.494938-935.443122h22.825384"/><path d="M399.494938-971.546725h22.825384"/><path d="M399.494938-1043.793045h45.650768"/><path d="M399.494938-1043.793045h22.825384"/><path d="M399.494938-1079.896648h22.825384"/><path d="M399.494938-1116.000251h22.825384"/><path d="M399.494938-1152.142969h22.825384"/><path d="M399.494938-1188.246571h22.825384"/><path d="M399.494938-1224.350174h22.825384"/><path d="M399.494938-1260.492892h22.825384"/><path d="M399.494938-1296.596494h22.825384"/><path d="M399.494938-1332.739212h22.825384"/><path d="M399.494938-1404.946417h45.650768"/><path d="M399.494938-1404.946417h22.825384"/><path d="M399.494938-1441.089135h22.825384"/><path d="M399.494938-1477.192738h22.825384"/><path d="M399.494938-1513.29634h22.825384"/><path d="M399.494938-1549.439059h22.825384"/><path d="M399.494938-1585.542661h22.825384"/><path d="M399.494938-1621.685379h22.825384"/><path d="M399.494938-1657.788982h22.825384"/><path d="M399.494938-1693.892584h22.825384"/><path d="M399.494938-1766.138905h45.650768"/><path d="M399.494938-1766.138905h22.825384"/><path d="M399.494938-1802.242507h22.825384"/><path d="M399.494938-1838.385225h22.825384"/><path d="M399.494938-1874.488828h22.825384"/><path d="M399.494938-1910.59243h22.825384"/><path d="M399.494938-1946.735148h22.825384"/><path d="M399.494938-1982.838751h22.825384"/><path d="M399.494938-2018.981469h22.825384"/><path d="M399.494938-2055.085072h22.825384"/><path d="M399.494938-2127.331392h45.650768"/><path d="M399.494938-2127.331392h22.825384"/><path d="M399.494938-2163.434995h22.825384"/><path d="M399.494938-2199.577713h22.825384"/><path d="M399.494938-2235.681315h22.825384"/><path d="M399.494938-2271.784918h22.825384"/><path d="M399.494938-2307.927636h22.825384"/><path d="M399.494938-2344.031238h22.825384"/><path d="M399.494938-2380.134841h22.825384"/><path d="M399.494938-2416.277559h22.825384"/><path d="M399.494938-2488.484764h45.650768"/><path d="M399.494938-2488.484764h22.825384"/><path d="M399.494938-2524.627482h22.825384"/><path d="M399.494938-2560.731085h22.825384"/><path d="M399.494938-2596.834687h22.825384"/><path d="M399.494938-2632.977405h22.825384"/></g></g><g clip-path="url(#ae)"><use x="371.515" y="242.4171" href="#n"/><use x="375.3272" y="242.4171" href="#q"/><use x="377.2333" y="242.4171" href="#n"/><use x="381.0455" y="242.4171" href="#n"/><use x="384.8577" y="242.4171" href="#n"/></g><g clip-path="url(#af)"><use x="371.515" y="206.5106" href="#n"/><use x="375.3272" y="206.5106" href="#q"/><use x="377.2333" y="206.5106" href="#n"/><use x="381.0455" y="206.5106" href="#u"/><use x="384.8577" y="206.5106" href="#s"/></g><g clip-path="url(#ag)"><use x="371.515" y="170.6045" href="#n"/><use x="375.3272" y="170.6045" href="#q"/><use x="377.2333" y="170.6045" href="#n"/><use x="381.0455" y="170.6045" href="#s"/><use x="384.8577" y="170.6045" href="#n"/></g><g clip-path="url(#ah)"><use x="371.515" y="134.1281" href="#n"/><use x="375.3272" y="134.1281" href="#q"/><use x="377.2333" y="134.1281" href="#n"/><use x="381.0455" y="134.1281" href="#z"/><use x="384.8577" y="134.1281" href="#s"/></g><g clip-path="url(#ai)"><use x="371.515" y="98.2216" href="#n"/><use x="375.3272" y="98.2216" href="#q"/><use x="377.2333" y="98.2216" href="#t"/><use x="381.0455" y="98.2216" href="#n"/><use x="384.8577" y="98.2216" href="#n"/></g><g clip-path="url(#aj)"><use x="371.515" y="62.3155" href="#n"/><use x="375.3272" y="62.3155" href="#q"/><use x="377.2333" y="62.3155" href="#t"/><use x="381.0455" y="62.3155" href="#u"/><use x="384.8577" y="62.3155" href="#s"/></g><g clip-path="url(#ak)"><use x="371.515" y="25.8392" href="#n"/><use x="375.3272" y="25.8392" href="#q"/><use x="377.2333" y="25.8392" href="#t"/><use x="381.0455" y="25.8392" href="#s"/><use x="384.8577" y="25.8392" href="#n"/></g><g class="f"><path d="M3595.516951-211.180604v-2425.512773" class="c"/><g class="d"><path d="M3595.516951-213.058148h-22.864402"/><path d="M3595.516951-249.16175h-22.864402"/><path d="M3595.516951-321.408071h-45.689786"/><path d="M3595.516951-321.408071h-22.864402"/><path d="M3595.516951-357.550789h-22.864402"/><path d="M3595.516951-393.654391h-22.864402"/><path d="M3595.516951-429.757994h-22.864402"/><path d="M3595.516951-465.900712h-22.864402"/><path d="M3595.516951-502.004314h-22.864402"/><path d="M3595.516951-538.107917h-22.864402"/><path d="M3595.516951-574.250635h-22.864402"/><path d="M3595.516951-610.354237h-22.864402"/><path d="M3595.516951-682.600558h-45.689786"/><path d="M3595.516951-682.600558h-22.864402"/><path d="M3595.516951-718.704161h-22.864402"/><path d="M3595.516951-754.846879h-22.864402"/><path d="M3595.516951-790.950481h-22.864402"/><path d="M3595.516951-827.054084h-22.864402"/><path d="M3595.516951-863.196802h-22.864402"/><path d="M3595.516951-899.300404h-22.864402"/><path d="M3595.516951-935.443122h-22.864402"/><path d="M3595.516951-971.546725h-22.864402"/><path d="M3595.516951-1043.793045h-45.689786"/><path d="M3595.516951-1043.793045h-22.864402"/><path d="M3595.516951-1079.896648h-22.864402"/><path d="M3595.516951-1116.000251h-22.864402"/><path d="M3595.516951-1152.142969h-22.864402"/><path d="M3595.516951-1188.246571h-22.864402"/><path d="M3595.516951-1224.350174h-22.864402"/><path d="M3595.516951-1260.492892h-22.864402"/><path d="M3595.516951-1296.596494h-22.864402"/><path d="M3595.516951-1332.739212h-22.864402"/><path d="M3595.516951-1404.946417h-45.689786"/><path d="M3595.516951-1404.946417h-22.864402"/><path d="M3595.516951-1441.089135h-22.864402"/><path d="M3595.516951-1477.192738h-22.864402"/><path d="M3595.516951-1513.29634h-22.864402"/><path d="M3595.516951-1549.439059h-22.864402"/><path d="M3595.516951-1585.542661h-22.864402"/><path d="M3595.516951-1621.685379h-22.864402"/><path d="M3595.516951-1657.788982h-22.864402"/><path d="M3595.516951-1693.892584h-22.864402"/><path d="M3595.516951-1766.138905h-45.689786"/><path d="M3595.516951-1766.138905h-22.864402"/><path d="M3595.516951-1802.242507h-22.864402"/><path d="M3595.516951-1838.385225h-22.864402"/><path d="M3595.516951-1874.488828h-22.864402"/><path d="M3595.516951-1910.59243h-22.864402"/><path d="M3595.516951-1946.735148h-22.864402"/><path d="M3595.516951-1982.838751h-22.864402"/><path d="M3595.516951-2018.981469h-22.864402"/><path d="M3595.516951-2055.085072h-22.864402"/><path d="M3595.516951-2127.331392h-45.689786"/><path d="M3595.516951-2127.331392h-22.864402"/><path d="M3595.516951-2163.434995h-22.864402"/><path d="M3595.516951-2199.577713h-22.864402"/><path d="M3595.516951-2235.681315h-22.864402"/><path d="M3595.516951-2271.784918h-22.864402"/><path d="M3595.516951-2307.927636h-22.864402"/><path d="M3595.516951-2344.031238h-22.864402"/><path d="M3595.516951-2380.134841h-22.864402"/><path d="M3595.516951-2416.277559h-22.864402"/><path d="M3595.516951-2488.484764h-45.689786"/><path d="M3595.516951-2488.484764h-22.864402"/><path d="M3595.516951-2524.627482h-22.864402"/><path d="M3595.516951-2560.731085h-22.864402"/><path d="M3595.516951-2596.834687h-22.864402"/><path d="M3595.516951-2632.977405h-22.864402"/></g></g><use x="720.0638" y="242.4171" href="#n"/><use x="723.876" y="242.4171" href="#q"/><use x="725.7821" y="242.4171" href="#n"/><use x="729.5943" y="242.4171" href="#n"/><use x="733.4065" y="242.4171" href="#n"/><use x="720.0638" y="206.5106" href="#n"/><use x="723.876" y="206.5106" href="#q"/><use x="725.7821" y="206.5106" href="#n"/><use x="729.5943" y="206.5106" href="#u"/><use x="733.4065" y="206.5106" href="#s"/><use x="720.0638" y="170.6045" href="#n"/><use x="723.876" y="170.6045" href="#q"/><use x="725.7821" y="170.6045" href="#n"/><use x="729.5943" y="170.6045" href="#s"/><use x="733.4065" y="170.6045" href="#n"/><use x="720.0638" y="134.1281" href="#n"/><use x="723.876" y="134.1281" href="#q"/><use x="725.7821" y="134.1281" href="#n"/><use x="729.5943" y="134.1281" href="#z"/><use x="733.4065" y="134.1281" href="#s"/><use x="720.0638" y="98.2216" href="#n"/><use x="723.876" y="98.2216" href="#q"/><use x="725.7821" y="98.2216" href="#t"/><use x="729.5943" y="98.2216" href="#n"/><use x="733.4065" y="98.2216" href="#n"/><use x="720.0638" y="62.3155" href="#n"/><use x="723.876" y="62.3155" href="#q"/><use x="725.7821" y="62.3155" href="#t"/><use x="729.5943" y="62.3155" href="#u"/><use x="733.4065" y="62.3155" href="#s"/><use x="720.0638" y="25.8392" href="#n"/><use x="723.876" y="25.8392" href="#q"/><use x="725.7821" y="25.8392" href="#t"/><use x="729.5943" y="25.8392" href="#s"/><use x="733.4065" y="25.8392" href="#n"/><g clip-path="url(#al)"><path d="M399.572973-321.408071l9.091136-.039115 9.130154-.039116 9.169171-.078231 18.338343-.312924 9.091136-.195577 9.169172-.234693 9.130153-.273809 9.169172-.312924 9.286225-.352039 9.091136-.391155 9.130153-.391155 9.130154-.469386 9.247207-.508501 9.130154-.508502 9.208189-.586732 9.091136-.586733 9.130154-.625848 18.338342-1.408157 9.169172-.743195 9.091136-.78231 9.208189-.821425 9.091136-.860541 9.169172-.899656 9.286224-.938772 9.130154-.977888 9.091136-.977887 9.130154-1.056118 9.247207-1.095234 9.130153-1.095234 9.20819-1.173465 9.091136-1.173465 9.130153-1.21258 9.208189-1.251696 9.130154-1.329927 9.208189-1.329927 9.052119-1.329927 9.208189-1.408158 9.091136-1.447273 9.208189-1.486389 9.286225-1.525504 18.182272-3.12924 9.130153-1.642851 9.247207-1.681966 9.130154-1.681966 9.208189-1.760198 9.130154-1.760197 9.130154-1.799313 9.169171-1.838428 9.169172-1.877544 9.169171-1.916659 9.091136-1.955775 9.169172-1.99489 9.091136-1.99489 9.208189-2.073122 9.286224-2.151352 9.091136-2.112237 9.091136-2.151352 9.169172-2.190468 9.247207-2.307814 9.130154-2.268699 9.208189-2.307814 9.091136-2.34693 9.130153-2.386045 9.169172-2.425161 9.169171-2.464276 9.169172-2.503392 9.091136-2.542507 9.169171-2.581623 9.130154-2.581622 9.169171-2.659854 9.286225-2.738085 9.091136-2.698969 9.091136-2.738085 9.169172-2.7772 9.247207-2.855431 9.130153-2.855431 9.208189-2.894547 9.091136-2.933662 9.130154-2.972778 9.169172-3.011893 9.169171-3.051009 9.169172-3.090124 9.091135-3.090124 9.20819-3.168355 9.091136-3.168355 9.169171-3.246586 9.286225-3.324817 9.130154-3.285702 9.091136-3.285702 9.130153-3.403048 4.643113-1.681966 4.604094-1.760197 4.565077-1.681967 4.565077-1.721082 9.208189-3.520394 4.565077-1.760198 4.526059-1.721081 4.565077-1.799313 4.604095-1.760197 4.565076-1.799313 4.604095-1.799313 4.565077-1.799313 4.565077-1.838428 4.604094-1.838428 9.130154-3.676857 4.526059-1.838428 4.604095-1.838429 4.604094-1.877543 4.52606-1.877544 4.565076-1.877544 9.20819-3.833319 9.286224-3.911549 4.526059-1.916659 4.565077-1.955775 4.526059-1.91666 4.565077-1.955774 4.565077-1.994891 4.565077-1.955774 4.643112-1.994891 4.643113-2.034005 4.565077-1.994891 4.526059-2.034006 9.208189-4.068011 9.130154-4.068012 13.69523-6.219363 9.208189-4.224474 9.130154-4.224474 4.604095-2.112236 4.526059-2.112237 4.526059-2.151352 4.604095-2.151353 4.604094-2.190467 4.565077-2.151353 4.526059-2.151352 4.604095-2.229583 4.604094-2.190468 4.643113-2.229583 4.643112-2.268699 4.526059-2.190468 9.130154-4.459166 4.526059-2.229583 4.565077-2.268699 4.604094-2.268699 4.604095-2.307814 4.643112-2.307814 13.695231-6.923443 4.604095-2.34693 4.565076-2.307814 13.695231-7.040789 4.604095-2.386046 4.565076-2.386045 4.604095-2.386045 4.565077-2.425161 4.604095-2.386045 9.130153-4.850322 4.526059-2.386045 4.604095-2.464276 9.130154-4.928552 4.565077-2.425161 4.604094-2.503392 4.565077-2.503392 9.286225-5.085014 9.130153-5.006784 4.52606-2.503391 4.526059-2.542507 4.604094-2.542508 4.565077-2.542507 4.604095-2.620738 4.643112-2.581623 9.130154-5.163245 4.604094-2.620739 4.604095-2.659853 4.526059-2.581623 4.565077-2.620738 4.565077-2.659854 4.565077-2.620738 4.604094-2.698969 4.604095-2.659854 4.565077-2.698969 4.565077-2.659854 4.604094-2.698969 4.565077-2.738085 4.565077-2.659854 4.526059-2.698969 4.604095-2.7772 13.69523-8.214254 4.604095-2.7772 4.565077-2.7772 4.643112-2.855432 4.643112-2.816315 4.565077-2.7772 4.565077-2.816316 4.526059-2.816316 9.130154-5.632631 4.565077-2.855431 4.643112-2.894547 4.604095-2.894547 4.565077-2.855431 4.565077-2.894547 4.604094-2.894546 4.604095-2.933663 4.565077-2.894546 4.526059-2.894547 4.565077-2.933662 4.604094-2.933662 4.565077-2.933662 4.604095-2.972778 4.565077-2.972778 4.604094-2.972777 4.565077-3.011894 4.604095-2.972777 4.526059-2.972778 4.526059-3.011893 4.604094-3.011893 4.604095-3.051009 4.526059-3.011893 4.565077-3.051009 4.604095-3.051008 4.604094-3.090125 9.286225-6.258479 4.526059-3.051009 4.565077-3.090124 4.526059-3.090124 4.565077-3.090124 9.130154-6.258479 4.643112-3.207471 4.604095-3.168355 9.130153-6.336711 9.208189-6.414941 4.565077-3.168355 13.695231-9.622412 4.604095-3.246586 4.565076-3.246586 4.565077-3.285702 4.604095-3.246586 4.565077-3.285702 4.604094-3.285701 4.526059-3.246586 4.565077-3.285702 4.565077-3.324817 4.604095-3.324817 4.565077-3.285702 4.526059-3.324817 9.208189-6.727865 4.643112-3.403048 4.643113-3.442164 4.565077-3.363933 4.526059-3.363932 4.565076-3.363933 4.52606-3.403048 4.604094-3.403048 4.526059-3.403048 9.286225-6.962559 9.130154-6.884327 4.604094-3.481279 4.565077-3.520395 4.565077-3.442163 4.565077-3.481279 2.263029-1.760198 2.302048-1.760197 2.302047-1.721082 2.26303-1.760197 2.302047-1.760197 2.302047-1.799313 2.302048-1.760197 2.263029-1.760198 2.302047-1.760197 2.302048-1.799313 2.263029-1.760197 2.302048-1.799313 2.302047-1.760197 2.263029-1.799313 2.302048-1.760197 2.302047-1.799313 2.26303-1.760198 2.263029-1.799312 2.302047-1.760198 2.26303-1.799312 4.604095-3.598626 2.263029-1.799313 2.302047-1.838428 2.26303-1.760197 2.302047-1.799313 2.26303-1.799313 2.302047-1.838428 2.302047-1.799313 2.26303-1.838428 2.302047-1.799313 2.302048-1.838429 2.341065-1.838428 2.302047-1.877544 2.341065-1.838428 2.302047-1.838428 2.26303-1.838429 2.302047-1.838428 2.26303-1.838428 2.263029-1.799313 2.302048-1.838428 4.526059-3.676857 2.302047-1.838428 2.26303-1.838428 2.302047-1.838429 2.263029-1.838428 6.906142-5.632631 2.341065-1.877544 4.604095-3.755088 4.526059-3.755087 2.302047-1.838429 2.302048-1.877543 2.302047-1.91666 4.604095-3.755087 4.526059-3.755088 2.302047-1.916659 2.26303-1.838429 2.302047-1.916659 2.263029-1.877544 2.302048-1.916659 2.263029-1.877544 6.906142-5.749978 2.26303-1.916659 6.906142-5.749978 2.263029-1.916659 2.302048-1.916659 2.302047-1.955775 2.302047-1.916659 2.26303-1.91666 2.302047-1.916659 6.789089-5.749978 6.906142-5.867324 2.263029-1.955775 2.302047-1.916659 2.26303-1.955775 2.302047-1.916659 2.26303-1.955775 2.302047-1.955775 2.302047-1.99489 2.302048-1.955775 2.263029-1.99489 2.341065-1.955775 2.302048-2.034006 2.341065-1.99489 2.302047-1.99489 2.302047-1.955775 2.26303-1.955775 2.263029-1.99489 2.302048-1.955775 2.263029-1.955775 2.26303-1.99489 2.302047-1.955775 4.526059-3.98978 2.302048-1.994891 2.263029-1.99489 2.302047-1.99489 2.302048-2.034006 2.302047-1.99489 2.341065-2.034006 2.302047-2.034006 2.302048-1.99489 2.263029-2.034006 2.302048-1.99489 2.263029-2.034006 2.302047-1.99489 6.906142-6.102018 2.26303-2.034005 2.302047-2.034006 2.26303-1.99489 2.263029-2.034006 4.604095-4.068012 2.263029-2.034006 2.302048-2.073121 2.263029-2.034006 2.302048-2.034005 4.604094-4.146243 2.302048-2.034006 2.263029-2.073121 2.302047-2.073121 2.302048-2.034006 2.263029-2.073121 4.604095-4.146243 2.263029-2.073121 2.302048-2.073121 2.263029-2.034006 4.526059-4.146243 2.302048-2.073121 2.302047-2.112237 2.302047-2.073121 2.302048-2.112237 4.526059-4.146242 2.302047-2.112237 2.26303-2.073121 11.510236-10.561184 2.341065-2.151352 2.302047-2.151353 2.341066-2.151352 4.526059-4.224474 2.302047-2.112236 6.789089-6.336711 2.302047-2.112236 2.263029-2.112237 2.302048-2.151352 2.263029-2.112237 2.302048-2.151352 2.263029-2.112237 2.302047-2.190468 2.341066-2.151352 2.302047-2.190468 2.341065-2.151352 4.526059-4.302705 2.302047-2.151352 2.26303-2.151352 4.604094-4.380936 2.302048-2.151352 2.302047-2.190468 2.302047-2.151352 2.26303-2.190468 2.263029-2.151352 2.302048-2.151352 2.263029-2.190468 2.302048-2.190468 2.263029-2.190468 2.302048-2.151352 4.604094-4.380936 2.26303-2.229583 6.906142-6.571403 2.263029-2.229583 2.302047-2.190468 2.302048-2.229583 2.263029-2.190468 4.604095-4.459167 6.789089-6.571403 2.302047-2.229583 2.263029-2.229583 6.906142-6.68875 2.26303-2.229583 2.302047-2.229584 4.526059-4.459166 2.302048-2.268699 2.302047-2.229583 6.906142-6.806096 2.341065-2.268699 2.341065-2.307814 2.302047-2.307815 2.26303-2.229583 2.302047-2.268699 2.26303-2.229583 2.263029-2.268699 2.26303-2.229583 2.302047-2.268699 4.526059-4.537397 4.604095-4.537398 4.526059-4.537397 2.341065-2.307814 2.302047-2.34693 2.302048-2.307814 2.341065-2.307815 2.263029-2.307814 2.302047-2.268699 2.26303-2.307814 6.906142-6.923443 2.302047-2.346929 2.302048-2.307815 6.789088-6.923442 2.302048-2.307815 2.263029-2.307814 2.302047-2.307814 2.302048-2.34693 2.263029-2.307814 4.604095-4.69386 2.263029-2.346929 4.604095-4.69386 2.302047-2.307814 2.26303-2.34693 4.604094-4.693859 2.302048-2.386046 2.263029-2.346929 2.302048-2.34693 2.263029-2.34693 2.302047-2.34693 4.52606-4.693859 2.302047-2.386045 2.263029-2.386045 2.302048-2.34693 4.604094-4.772091 2.26303-2.346929 2.263029-2.386046 2.302048-2.346929 2.302047-2.425161 2.302047-2.386045 2.26303-2.386046 2.302047-2.386045 2.341065-2.464276 2.302048-2.425161 2.341065-2.425161 2.302047-2.42516 2.26303-2.386046 2.302047-2.386045 2.263029-2.386045 2.26303-2.425161 2.302047-2.386045 2.26303-2.425161 2.263029-2.386045 2.302048-2.386045 2.263029-2.425161 2.302047-2.425161 2.26303-2.42516 4.604095-4.850322 2.302047-2.464276 2.341065-2.464276 2.302047-2.464277 2.26303-2.42516 2.302047-2.464277 2.26303-2.42516 2.302047-2.425161 9.208189-9.857105 2.26303-2.425161 2.263029-2.464276 2.302048-2.425161 4.526059-4.928552 4.604094-4.928553 2.26303-2.464276 2.302047-2.503391 4.604095-4.928553 2.302047-2.503392 2.26303-2.503391 2.302047-2.464277 2.302047-2.503391 2.26303-2.464277 6.906142-7.510175 2.263029-2.503391 2.302048-2.464277 4.526059-5.006783 2.263029-2.464276 2.302048-2.542508 4.604094-5.006783 2.26303-2.542507 2.302047-2.503392 2.26303-2.503392 2.302047-2.503391 2.263029-2.542508 2.302048-2.542507 2.302047-2.503392 2.26303-2.542507 2.302047-2.542507 2.341065-2.581623 2.302047-2.581623 2.341065-2.581622 2.302048-2.581623 2.302047-2.503392 4.526059-5.085014 2.302047-2.542507 4.526059-5.085015 2.302048-2.542507 4.526059-5.085014 2.302047-2.581623 2.26303-2.542507 2.302047-2.542508 2.302047-2.620738 2.341065-2.620738 2.302048-2.581623 2.302047-2.620738 2.302047-2.581623 2.26303-2.542507 2.302047-2.581623 2.26303-2.581622 4.604094-5.241477 2.302048-2.581622 2.302047-2.620739 2.26303-2.581622 2.302047-2.581623 4.526059-5.163246 2.302047-2.620738 2.26303-2.620738 2.302047-2.581623 2.302047-2.620738 2.26303-2.620738 6.906142-7.862215 2.263029-2.659853 6.906142-7.862215 2.26303-2.659854 2.302047-2.620738 4.604095-5.319707 9.052118-10.482953 6.906142-7.979561 2.302047-2.69897 2.26303-2.620738 2.263029-2.659854 2.302048-2.659853 2.263029-2.659854 2.302048-2.659854 2.302047-2.698969 2.302047-2.659854 4.604095-5.397938 2.341065-2.738085 2.302047-2.698969 2.341065-2.738085 2.26303-2.659853 2.263029-2.69897 2.302048-2.659853 2.263029-2.698969 2.26303-2.659854 2.302047-2.698969 2.26303-2.659854 2.263029-2.698969 2.302047-2.698969 2.26303-2.69897 2.302047-2.698969 2.26303-2.698969 2.341065-2.7772 9.208189-10.952339 2.302047-2.698969 2.26303-2.738085 2.263029-2.698969 2.302048-2.7772 4.604094-5.47617 2.302048-2.7772 2.302047-2.698969 4.526059-5.47617 2.302047-2.738084 2.26303-2.738085 2.302047-2.738085 2.26303-2.738084 2.302047-2.777201 2.302047-2.738084 2.26303-2.7772 6.906142-8.331601 2.263029-2.738085 2.302048-2.7772 2.302047-2.816316 2.26303-2.7772 6.906142-8.3316 2.263029-2.777201 2.26303-2.738084 2.302047-2.7772 2.263029-2.777201 2.26303-2.816315 2.302047-2.777201 4.604095-5.632631 2.26303-2.7772 2.302047-2.816316 2.263029-2.7772 2.302048-2.816316 2.263029-2.816315 4.604095-5.632632 2.302047-2.855431 2.341065-2.855431 4.604095-5.710863 2.341065-2.894546 2.263029-2.7772 2.302048-2.855432 4.526059-5.632631 2.302047-2.816316 4.526059-5.632631 2.26303-2.855431 2.302047-2.816316 2.26303-2.855431 2.302047-2.855431 2.263029-2.855432 2.341066-2.855431 4.604094-5.789093 2.341065-2.894547 2.26303-2.855431 2.302047-2.855431 2.26303-2.894547 2.302047-2.855431 6.906142-8.68364 2.263029-2.894547 2.302048-2.855431 2.263029-2.855431 2.302048-2.894547 2.263029-2.855431 2.302047-2.894547 2.26303-2.894546 2.302047-2.894547 2.26303-2.894547 2.302047-2.894546 2.302047-2.933663 2.302048-2.894546 2.263029-2.933662 4.604095-5.789094 2.302047-2.933662 2.26303-2.933662 2.302047-2.894547 2.302047-2.933662 2.26303-2.933662 2.302047-2.933662 2.26303-2.894547 2.263029-2.933662 2.302048-2.894547 2.263029-2.894547 2.302047-2.972777 2.302048-2.933662 2.302047-2.972778 2.26303-2.933662 2.302047-2.933662 4.526059-5.867325 2.302047-2.933662 2.302048-2.972778 2.263029-2.972777 4.604095-5.945556 2.341065-3.011893 2.302047-3.011893 2.341065-3.011893 2.302048-3.011893 2.302047-2.933663 4.526059-5.945555 2.302047-2.933662 6.789089-8.918333 2.302047-2.972778 2.26303-2.972777 2.302047-2.972778 2.26303-3.011893 2.302047-2.972778 2.302047-3.051009 2.302048-3.011893 2.341065-3.051008 2.302047-3.051009 2.302047-3.011893 2.26303-2.972778 2.302047-3.011893 2.26303-3.011893 2.302047-3.051009 2.302047-3.011893 2.302048-3.051009 2.302047-3.011893 2.263029-3.011893 2.302048-3.011893 2.263029-3.011893 2.26303-3.051009 2.302047-3.011893 2.26303-3.011894 2.302047-3.051008 2.26303-3.051009 9.208189-12.204034 2.263029-3.051009 2.302048-3.090124 2.302047-3.051009 2.263029-3.051009 2.302048-3.051008 2.302047-3.090124 2.302047-3.051009 2.26303-3.090124 2.302047-3.051009 6.789089-9.153026 6.906142-9.270372 2.263029-3.12924 2.302048-3.051009 2.263029-3.090124 2.302048-3.051009 2.263029-3.090124 2.302047-3.129239 2.302048-3.090125 2.302047-3.129239 2.26303-3.12924 2.341065-3.12924 2.302047-3.168355 2.341065-3.129239 2.302047-3.168356 2.302048-3.090124 2.263029-3.129239 2.26303-3.090124 2.302047-3.090125 2.26303-3.129239 2.263029-3.090124 2.302047-3.12924 2.26303-3.090124 2.26303-3.12924 2.302047-3.12924 2.263029-3.168355 2.302048-3.129239" style="fill:none;stroke-width:11.4143;stroke-linecap:round;stroke-linejoin:round;stroke:#00008b;stroke-miterlimit:10;transform:matrix(.100115,0,0,.0998645,354.387501,271.48398)"/></g><style>.a{fill:none;stroke:#bfbfbf;stroke-dasharray:11.4143,17.1214;stroke-linecap:round;stroke-miterlimit:10;stroke-width:5.70714;transform:matrix(.100115,0,0,.0998645,354.387501,271.48398)}.b{fill:none;stroke:#bfbfbf;stroke-dasharray:11.4143,17.1214;stroke-linecap:round;stroke-miterlimit:10;stroke-width:5.70714;transform:matrix(.100115,0,0,.0998645,-23.49758,271.48398)}.c{stroke-linecap:square;stroke-width:11.4143}.d{stroke-width:5.70714}.e{fill:none;stroke:#000;stroke-miterlimit:10;transform:matrix(.100115,0,0,.0998645,-23.49758,271.48398)}.f{fill:none;stroke:#000;stroke-miterlimit:10;transform:matrix(.100115,0,0,.0998645,354.387501,271.48398)}.g{fill:none;stroke:#bfbfbf;stroke-linecap:round;stroke-miterlimit:10;stroke-width:5.70714;transform:matrix(.100115,0,0,.0998645,354.387501,271.48398)}</style></svg>