<svg xmlns="http://www.w3.org/2000/svg" width="322pt" height="245pt" viewBox="0 0 322 245"><defs><clipPath id="h"><use href="#a"/></clipPath><clipPath id="i"><path d="M1 122h320v2H1zm0 0"/></clipPath><clipPath id="j"><path d="M1 1.6602h1v242.25H1zm0 0"/></clipPath><clipPath id="k"><path d="M80 1.6602h2v242.25h-2zm0 0"/></clipPath><clipPath id="l"><use href="#a"/></clipPath><clipPath id="m"><path d="M240 1.6602h2v242.25h-2zm0 0"/></clipPath><clipPath id="n"><path d="M320 1.6602h1v242.25h-1zm0 0"/></clipPath><clipPath id="o"><path d="M1 243h320v.9102H1zm0 0"/></clipPath><clipPath id="p"><path d="M1 183h320v1H1zm0 0"/></clipPath><clipPath id="q"><path d="M1 122h320v2H1zm0 0"/></clipPath><clipPath id="r"><path d="M1 61h320v2H1zm0 0"/></clipPath><clipPath id="s"><path d="M1 1.6602h320V2H1zm0 0"/></clipPath><path id="a" d="M160 1.6602h2v242.25h-2zm0 0"/><path id="b" d="M1997.5031-211.1628v-2425.5368"/><path id="c" d="M399.5006-1423.9312h3196.005"/><path id="d" d="M399.5006-211.1628v-2425.5368"/><path id="e" d="M3595.5056-211.1628v-2425.5368"/><path id="f" d="M399.5006-211.1628h3196.005"/><path id="g" d="M399.5006-2636.6996h3196.005"/></defs><path fill="#fff" d="M1 243.9102h320V1.6602H1zm0 0"/><g clip-path="url(#h)"><use href="#b" class="d"/></g><g clip-path="url(#i)"><use href="#c" class="d"/></g><g clip-path="url(#j)"><use href="#d" class="a"/></g><g clip-path="url(#k)"><path d="M1198.501873-211.162813v-2425.536772" class="a"/></g><g clip-path="url(#l)"><use href="#b" class="a"/></g><g clip-path="url(#m)"><path d="M2796.50437-211.162813v-2425.536772" class="a"/></g><g clip-path="url(#n)"><use href="#e" class="a"/></g><g clip-path="url(#o)"><use href="#f" class="a"/></g><g clip-path="url(#p)"><path d="M399.500624-817.547006h3196.004994" class="a"/></g><g clip-path="url(#q)"><use href="#c" class="a"/></g><g clip-path="url(#r)"><path d="M399.500624-2030.315392h3196.004994" class="a"/></g><g clip-path="url(#s)"><use href="#g" class="a"/></g><g fill="none" stroke-miterlimit="10" transform="matrix(.100125 0 0 .0998748 -39 265)"><g stroke="#000"><use href="#f" class="b"/><g class="c"><path d="M399.500624-211.162813v-45.643083"/><path d="M399.500624-211.162813v-22.841097"/><path d="M479.400749-211.162813v-22.841097"/><path d="M559.300874-211.162813v-22.841097"/><path d="M639.200999-211.162813v-22.841097"/><path d="M719.101124-211.162813v-22.841097"/><path d="M799.001248-211.162813v-22.841097"/><path d="M878.901373-211.162813v-22.841097"/><path d="M958.801498-211.162813v-22.841097"/><path d="M1038.701623-211.162813v-22.841097"/><path d="M1198.501873-211.162813v-45.643083"/><path d="M1198.501873-211.162813v-22.841097"/><path d="M1278.401998-211.162813v-22.841097"/><path d="M1358.302122-211.162813v-22.841097"/><path d="M1438.202247-211.162813v-22.841097"/><path d="M1518.102372-211.162813v-22.841097"/><path d="M1598.002497-211.162813v-22.841097"/><path d="M1677.902622-211.162813v-22.841097"/><path d="M1757.802747-211.162813v-22.841097"/><path d="M1837.702871-211.162813v-22.841097"/><path d="M1997.503121-211.162813v-45.643083"/><path d="M1997.503121-211.162813v-22.841097"/><path d="M2077.403246-211.162813v-22.841097"/><path d="M2157.303371-211.162813v-22.841097"/><path d="M2237.203496-211.162813v-22.841097"/><path d="M2317.10362-211.162813v-22.841097"/><path d="M2397.003745-211.162813v-22.841097"/><path d="M2476.90387-211.162813v-22.841097"/><path d="M2556.803995-211.162813v-22.841097"/><path d="M2636.70412-211.162813v-22.841097"/><path d="M2796.50437-211.162813v-45.643083"/><path d="M2796.50437-211.162813v-22.841097"/><path d="M2876.404494-211.162813v-22.841097"/><path d="M2956.304619-211.162813v-22.841097"/><path d="M3036.204744-211.162813v-22.841097"/><path d="M3116.104869-211.162813v-22.841097"/><path d="M3196.004994-211.162813v-22.841097"/><path d="M3275.905119-211.162813v-22.841097"/><path d="M3355.805243-211.162813v-22.841097"/><path d="M3435.705368-211.162813v-22.841097"/><path d="M3595.505618-211.162813v-45.643083"/><path d="M3595.505618-211.162813v-22.841097"/></g><use href="#g" class="b"/><g class="c"><path d="M399.500624-2636.699585v45.643082"/><path d="M399.500624-2636.699585v22.841097"/><path d="M479.400749-2636.699585v22.841097"/><path d="M559.300874-2636.699585v22.841097"/><path d="M639.200999-2636.699585v22.841097"/><path d="M719.101124-2636.699585v22.841097"/><path d="M799.001248-2636.699585v22.841097"/><path d="M878.901373-2636.699585v22.841097"/><path d="M958.801498-2636.699585v22.841097"/><path d="M1038.701623-2636.699585v22.841097"/><path d="M1198.501873-2636.699585v45.643082"/><path d="M1198.501873-2636.699585v22.841097"/><path d="M1278.401998-2636.699585v22.841097"/><path d="M1358.302122-2636.699585v22.841097"/><path d="M1438.202247-2636.699585v22.841097"/><path d="M1518.102372-2636.699585v22.841097"/><path d="M1598.002497-2636.699585v22.841097"/><path d="M1677.902622-2636.699585v22.841097"/><path d="M1757.802747-2636.699585v22.841097"/><path d="M1837.702871-2636.699585v22.841097"/><path d="M1997.503121-2636.699585v45.643082"/><path d="M1997.503121-2636.699585v22.841097"/><path d="M2077.403246-2636.699585v22.841097"/><path d="M2157.303371-2636.699585v22.841097"/><path d="M2237.203496-2636.699585v22.841097"/><path d="M2317.10362-2636.699585v22.841097"/><path d="M2397.003745-2636.699585v22.841097"/><path d="M2476.90387-2636.699585v22.841097"/><path d="M2556.803995-2636.699585v22.841097"/><path d="M2636.70412-2636.699585v22.841097"/><path d="M2796.50437-2636.699585v45.643082"/><path d="M2796.50437-2636.699585v22.841097"/><path d="M2876.404494-2636.699585v22.841097"/><path d="M2956.304619-2636.699585v22.841097"/><path d="M3036.204744-2636.699585v22.841097"/><path d="M3116.104869-2636.699585v22.841097"/><path d="M3196.004994-2636.699585v22.841097"/><path d="M3275.905119-2636.699585v22.841097"/><path d="M3355.805243-2636.699585v22.841097"/><path d="M3435.705368-2636.699585v22.841097"/><path d="M3595.505618-2636.699585v45.643082"/><path d="M3595.505618-2636.699585v22.841097"/></g><use href="#d" class="b"/><g class="c"><path d="M399.500624-211.162813h45.646068"/><path d="M399.500624-211.162813h22.823034"/><path d="M399.500624-271.785588h22.823034"/><path d="M399.500624-332.447474h22.823034"/><path d="M399.500624-393.070249h22.823034"/><path d="M399.500624-453.732135h22.823034"/><path d="M399.500624-514.35491h22.823034"/><path d="M399.500624-574.977685h22.823034"/><path d="M399.500624-635.639571h22.823034"/><path d="M399.500624-696.262345h22.823034"/><path d="M399.500624-817.547006h45.646068"/><path d="M399.500624-817.547006h22.823034"/><path d="M399.500624-878.169781h22.823034"/><path d="M399.500624-938.831667h22.823034"/><path d="M399.500624-999.454442h22.823034"/><path d="M399.500624-1060.116328h22.823034"/><path d="M399.500624-1120.739103h22.823034"/><path d="M399.500624-1181.361878h22.823034"/><path d="M399.500624-1242.023764h22.823034"/><path d="M399.500624-1302.646538h22.823034"/><path d="M399.500624-1423.931199h45.646068"/><path d="M399.500624-1423.931199h22.823034"/><path d="M399.500624-1484.553974h22.823034"/><path d="M399.500624-1545.21586h22.823034"/><path d="M399.500624-1605.838635h22.823034"/><path d="M399.500624-1666.46141h22.823034"/><path d="M399.500624-1727.123296h22.823034"/><path d="M399.500624-1787.746071h22.823034"/><path d="M399.500624-1848.407957h22.823034"/><path d="M399.500624-1909.030731h22.823034"/><path d="M399.500624-2030.315392h45.646068"/><path d="M399.500624-2030.315392h22.823034"/><path d="M399.500624-2090.938167h22.823034"/><path d="M399.500624-2151.600053h22.823034"/><path d="M399.500624-2212.222828h22.823034"/><path d="M399.500624-2272.884714h22.823034"/><path d="M399.500624-2333.507489h22.823034"/><path d="M399.500624-2394.169375h22.823034"/><path d="M399.500624-2454.79215h22.823034"/><path d="M399.500624-2515.414924h22.823034"/><path d="M399.500624-2636.699585h45.646068"/><path d="M399.500624-2636.699585h22.823034"/></g><use href="#e" class="b"/><g class="c"><path d="M3595.505618-211.162813h-45.685081"/><path d="M3595.505618-211.162813h-22.823034"/><path d="M3595.505618-271.785588h-22.823034"/><path d="M3595.505618-332.447474h-22.823034"/><path d="M3595.505618-393.070249h-22.823034"/><path d="M3595.505618-453.732135h-22.823034"/><path d="M3595.505618-514.35491h-22.823034"/><path d="M3595.505618-574.977685h-22.823034"/><path d="M3595.505618-635.639571h-22.823034"/><path d="M3595.505618-696.262345h-22.823034"/><path d="M3595.505618-817.547006h-45.685081"/><path d="M3595.505618-817.547006h-22.823034"/><path d="M3595.505618-878.169781h-22.823034"/><path d="M3595.505618-938.831667h-22.823034"/><path d="M3595.505618-999.454442h-22.823034"/><path d="M3595.505618-1060.116328h-22.823034"/><path d="M3595.505618-1120.739103h-22.823034"/><path d="M3595.505618-1181.361878h-22.823034"/><path d="M3595.505618-1242.023764h-22.823034"/><path d="M3595.505618-1302.646538h-22.823034"/><path d="M3595.505618-1423.931199h-45.685081"/><path d="M3595.505618-1423.931199h-22.823034"/><path d="M3595.505618-1484.553974h-22.823034"/><path d="M3595.505618-1545.21586h-22.823034"/><path d="M3595.505618-1605.838635h-22.823034"/><path d="M3595.505618-1666.46141h-22.823034"/><path d="M3595.505618-1727.123296h-22.823034"/><path d="M3595.505618-1787.746071h-22.823034"/><path d="M3595.505618-1848.407957h-22.823034"/><path d="M3595.505618-1909.030731h-22.823034"/><path d="M3595.505618-2030.315392h-45.685081"/><path d="M3595.505618-2030.315392h-22.823034"/><path d="M3595.505618-2090.938167h-22.823034"/><path d="M3595.505618-2151.600053h-22.823034"/><path d="M3595.505618-2212.222828h-22.823034"/><path d="M3595.505618-2272.884714h-22.823034"/><path d="M3595.505618-2333.507489h-22.823034"/><path d="M3595.505618-2394.169375h-22.823034"/><path d="M3595.505618-2454.79215h-22.823034"/><path d="M3595.505618-2515.414924h-22.823034"/><path d="M3595.505618-2636.699585h-45.685081"/><path d="M3595.505618-2636.699585h-22.823034"/></g></g><g stroke-width="11.4143" stroke-linecap="round" stroke="#00f"><path d="M511.431024-406.524594l66.674469 170.213107"/><path d="M549.664482-261.929498l28.441011 25.618011 3.472222-38.133681"/><path d="M483.731273-627.035048l122.07397 170.213107"/><path d="M571.941323-474.65677l33.86392 17.834829-6.047128-37.781678"/><path d="M527.38764-847.545502l34.761236 170.213107"/><path d="M538.506554-707.448225l23.642322 30.11583 9.909489-36.960337"/><path d="M591.370162-1068.055956l-93.203807 170.252218"/><path d="M499.609863-936.054753l-1.443508 38.251015 31.445068-21.824199"/><path d="M600.889513-1288.527299l-112.203496 170.213107"/><path d="M493.21161-1156.330538l-4.525593 38.016346 33.12266-19.164619"/><path d="M544.787765-1509.037753v170.213107"/><path d="M527.660737-1373.086292l17.127028 34.261646 17.088015-34.261646"/><path d="M488.686017-1729.548207 600.889513-1559.3351"/><path d="M567.72784-1578.499719l33.161673 19.164619-4.564607-38.016347"/><path d="M498.166355-1950.058661l93.203807 170.213107"/><path d="M559.925094-1801.630642l31.445068 21.785088-1.404494-38.251015"/><path d="M562.148876-2170.569115l-34.761236 170.213107"/><path d="M517.478152-2037.316345l9.909488 36.960337 23.642323-30.11583"/><path d="M605.805243-2391.040458l-122.07397 170.213107"/><path d="M489.778402-2258.64814l-6.047129 37.820789 33.863921-17.873941"/><path d="M578.105493-2611.550912l-66.674469 170.213107"/><path d="M507.958801-2479.471486l3.472223 38.133681 28.441011-25.657123"/><path d="M801.966292-389.511105l66.713483 136.18613"/><path d="M838.21005-276.557187l30.469725 23.232212.31211-38.290127"/><path d="M774.266542-609.982448l122.112984 136.147019"/><path d="M860.759988-487.915558l35.619538 14.080129-10.104557-36.921226"/><path d="M817.922909-830.492902l34.761236 136.147018"/><path d="M827.637328-723.28837l25.046817 28.942486 8.114856-37.390563"/><path d="M881.944444-1051.003356l-93.242821 136.147018"/><path d="M793.929463-952.75535l-5.22784 37.899012 33.473783-18.577947"/><path d="M891.424782-1271.51381l-112.203496 136.147018"/><path d="M787.765293-1172.679132l-8.544007 37.31234 34.995318-15.527252"/><path d="M835.323034-1492.024264v136.18613"/><path d="M818.196005-1390.09978l17.127029 34.261646 17.127028-34.261646"/><path d="M779.221286-1712.534718l112.203496 136.18613"/><path d="M856.429463-1591.875841l34.995319 15.527253-8.583022-37.31234"/><path d="M788.701623-1933.045173l93.242821 136.18613"/><path d="M848.470662-1815.43699l33.473782 18.577947-5.22784-37.938123"/><path d="M852.684145-2153.516515l-34.761236 136.147018"/><path d="M809.808052-2054.76006l8.114857 37.390563 25.08583-28.942486"/><path d="M896.379526-2374.026969l-122.112984 136.18613"/><path d="M784.371099-2274.801176l-10.104557 36.960337 35.619538-14.080129"/><path d="M868.679775-2594.537423l-66.713483 136.18613"/><path d="M801.654182-2496.64142l.31211 38.290127 30.430712-23.232212"/><path d="M1092.501561-372.497617l66.713483 102.159153"/><path d="M1126.131398-289.659529l33.083646 19.321065-4.408552-38.055458"/><path d="M1064.80181-592.96896l122.112984 102.120042"/><path d="M1149.656679-499.68811l37.258115 8.839192-15.293383-35.122098"/><path d="M1108.497191-813.479414l34.761236 102.120042"/><path d="M1115.987828-738.268062l27.270599 26.90869 5.149813-37.938123"/><path d="M1172.479713-1033.989868l-93.242822 102.120042"/><path d="M1089.692572-968.712828l-10.455681 36.843002 35.73658-13.728125"/><path d="M1181.96005-1254.500322l-112.203496 102.159153"/><path d="M1083.567416-1188.08905l-13.810862 35.747881 36.867978-10.40365"/><path d="M1125.858302-1475.010776v102.159153"/><path d="M1108.731273-1407.113268l17.127029 34.261645 17.127029-34.261645"/><path d="M1069.756554-1695.482119l112.203496 102.120042"/><path d="M1145.131086-1603.765727l36.828964 10.40365-13.771848-35.70877"/><path d="M1079.236891-1915.992573l93.242822 102.120042"/><path d="M1136.743134-1827.600656l35.736579 13.728125-10.455681-36.843002"/><path d="M1143.258427-2136.503027l-34.761236 102.120042"/><path d="M1103.308365-2072.321109l5.188826 37.938124 27.231586-26.90869"/><path d="M1186.914794-2357.013481l-122.112984 102.120042"/><path d="M1080.095194-2289.976425l-15.293384 35.082986 37.258115-8.839192"/><path d="M1159.215044-2577.523935l-66.713483 102.159153"/><path d="M1096.910112-2513.42024l-4.408551 38.055458 33.083645-19.321065"/><path d="M1383.075843-355.445017l66.674469 68.053953"/><path d="M1413.545568-299.867622l36.204744 12.476558-11.743133-36.412776"/><path d="M1355.376092-575.955471l122.07397 68.093065"/><path d="M1439.216604-509.622422l38.233458 1.760016-21.574594-31.641177"/><path d="M1399.032459-796.465925l34.761236 68.093065"/><path d="M1402.972846-751.096623l30.820849 22.723763-.312109-38.290127"/><path d="M1463.014981-1016.976379l-93.242821 68.093065"/><path d="M1387.367353-982.910291l-17.595193 34.026977 37.765293-6.37517"/><path d="M1472.495318-1237.486834l-112.203495 68.093066"/><path d="M1380.696005-1201.778064l-20.404182 32.384296 38.15543-3.128918"/><path d="M1416.393571-1457.997288v68.093065"/><path d="M1399.305556-1424.126757l17.088015 34.222534 17.127028-34.222534"/><path d="M1360.291823-1678.46863l112.203495 68.093065"/><path d="M1434.339888-1613.504483l38.15543 3.128918-20.365168-32.423407"/><path d="M1369.77216-1898.979084l93.242821 68.093065"/><path d="M1425.288702-1837.261189l37.726279 6.37517-17.55618-34.026977"/><path d="M1433.793695-2119.489538l-34.761236 68.093065"/><path d="M1399.344569-2089.6866l-.31211 38.290127 30.820849-22.723763"/><path d="M1477.450062-2339.999992l-122.07397 68.093065"/><path d="M1376.911673-2303.548105l-21.535581 31.641178 38.233459-1.720905"/><path d="M1449.750312-2560.471335l-66.674469 68.053953"/><path d="M1394.779963-2528.869269l-11.70412 36.451887 36.16573-12.476558"/><path d="M1673.611111-338.431529l66.67447 34.026977"/><path d="M1702.013109-304.717444l38.272472.312892-22.705993-30.819836"/><path d="M1645.911361-558.941983l122.112984 34.026977"/><path d="M1730.415106-517.601162l37.609239-7.313844-28.401998-25.657123"/><path d="M1689.567728-779.452437l34.761236 34.066088"/><path d="M1687.890137-757.119789l36.438827 11.73344-12.484395-36.217219"/><path d="M1753.589263-999.962891l-93.242821 34.066088"/><path d="M1686.641698-993.744168l-26.295256 27.847365 38.038389 4.341373"/><path d="M1763.0696-1220.434234l-112.203495 34.026977"/><path d="M1678.643883-1212.729275l-27.777778 26.322018 37.72628 6.453392"/><path d="M1706.967853-1440.944688v34.026977"/><path d="M1689.840824-1441.179357l17.127029 34.261646 17.127028-34.261646"/><path d="M1650.866105-1661.455142l112.203495 34.026977"/><path d="M1725.304307-1620.974773l37.765293-6.453392-27.816791-26.322018"/><path d="M1660.346442-1881.965596l93.242821 34.026977"/><path d="M1715.51186-1843.597246l38.077403-4.341373-26.295256-27.808254"/><path d="M1724.328964-2102.47605l-34.761236 34.026977"/><path d="M1702.052122-2104.627181l-12.484394 36.178108 36.438826-11.694329"/><path d="M1768.024345-2322.986504l-122.112984 34.066088"/><path d="M1674.274345-2314.61665l-28.362984 25.696234 37.570225 7.274733"/><path d="M1740.285581-2543.457847l-66.67447 34.026977"/><path d="M1696.317104-2540.250706l-22.705993 30.819836 38.272472-.312892"/><path d="M1964.14638-321.41804h66.713483"/><path d="M1996.605805-304.287218l34.254058-17.130822-34.254058-17.130823"/><path d="M1936.446629-541.928494h122.112984"/><path d="M2024.305556-524.797672l34.254057-17.130822-34.254057-17.130823"/><path d="M1980.102996-762.438949h34.761236"/><path d="M1980.649189-745.308126l34.215043-17.130823-34.215043-17.091711"/><path d="M2044.124532-982.910291h-93.242822"/><path d="M1985.135768-1000.041114l-34.254058 17.130823 34.254058 17.091711"/><path d="M2053.604869-1203.420745h-112.203496"/><path d="M1975.655431-1220.551568l-34.254058 17.130823 34.254058 17.091711"/><path d="M1941.401373-1644.441653h112.203496"/><path d="M2019.350811-1627.310831l34.254058-17.130822-34.254058-17.130823"/><path d="M1950.88171-1864.952108h93.242822"/><path d="M2009.870474-1847.821285l34.254058-17.130823-34.254058-17.091711"/><path d="M2014.864232-2085.42345h-34.761236"/><path d="M2014.357054-2102.554273l-34.254058 17.130823 34.254058 17.091711"/><path d="M2058.559613-2305.933904h-122.112984"/><path d="M1970.700687-2323.064727l-34.254058 17.130823 34.254058 17.091711"/><path d="M2030.859863-2526.444358h-66.713483"/><path d="M1998.400437-2543.575181l-34.254057 17.130823 34.254057 17.130822"/><path d="M2254.681648-304.404552l66.713483-34.026977"/><path d="M2298.689139-307.611692l22.705992-30.819837-38.272472.312892"/><path d="M2226.981898-524.915006l122.112983-34.026977"/><path d="M2320.692884-533.245749l28.401997-25.696234-37.570224-7.274733"/><path d="M2270.677278-745.386349l34.761236-34.066088"/><path d="M2292.95412-743.274329l12.484394-36.178108-36.47784 11.73344"/><path d="M2334.6598-965.896803l-93.203807-34.066088"/><path d="M2279.455368-1004.265152l-37.999375 4.302261 26.256242 27.847365"/><path d="M2344.140137-1186.407257l-112.203495-34.026977"/><path d="M2269.662921-1226.887626l-37.726279 6.453392 27.816791 26.322018"/><path d="M2288.03839-1406.917711v-34.026977"/><path d="M2305.165418-1406.722154l-17.127028-34.222534-17.127029 34.222534"/><path d="M2231.936642-1627.428165l112.203495-34.026977"/><path d="M2316.36236-1635.133124l27.777777-26.322018-37.726279-6.453392"/><path d="M2241.455993-1847.938619l93.203807-34.026977"/><path d="M2308.364544-1854.118231l26.295256-27.847365-38.038389-4.341373"/><path d="M2305.438514-2068.449073l-34.761236-34.026977"/><path d="M2307.116105-2090.74261l-36.438827-11.73344 12.484395 36.217219"/><path d="M2349.094881-2288.920416l-122.112983-34.066088"/><path d="M2264.591136-2330.261237l-37.609238 7.274733 28.401997 25.696234"/><path d="M2321.395131-2509.43087l-66.713483-34.026977"/><path d="M2292.993134-2543.144955l-38.311486-.312892 22.745006 30.819837"/><path d="M2545.25593-287.391064l66.67447-68.053953"/><path d="M2600.22628-319.032241l11.70412-36.412776-36.204745 12.476558"/><path d="M2517.55618-507.862406l122.07397-68.093065"/><path d="M2618.055556-544.314294l21.574594-31.641177-38.233458 1.720904"/><path d="M2561.212547-728.37286l34.761236-68.093065"/><path d="M2595.661673-758.175799l.31211-38.290126-30.820849 22.723762"/><path d="M2625.195069-948.883314l-93.203808-68.093065"/><path d="M2569.717541-1010.60121l-37.72628-6.375169 17.55618 34.026976"/><path d="M2634.714419-1169.393768l-112.242509-68.093066"/><path d="M2560.666355-1234.357916l-38.194445-3.128918 20.404182 32.423407"/><path d="M2578.573658-1389.904223v-68.093065"/><path d="M2595.700687-1423.735642l-17.127029-34.261646-17.088015 34.261646"/><path d="M2522.47191-1610.375565l112.242509-68.093065"/><path d="M2614.310237-1646.084335l20.404182-32.384295-38.15543 3.089806"/><path d="M2531.991261-1830.886019l93.203808-68.093065"/><path d="M2607.638889-1864.952108l17.55618-34.026976-37.72628 6.375169"/><path d="M2595.973783-2051.396473l-34.761236-68.093065"/><path d="M2592.033396-2096.765776l-30.820849-22.723762.31211 38.290126"/><path d="M2639.63015-2271.906927l-122.07397-68.093065"/><path d="M2555.789638-2338.279088l-38.233458-1.720904 21.53558 31.641177"/><path d="M2611.9304-2492.417382l-66.67447-68.053953"/><path d="M2581.42166-2547.994777l-36.16573-12.476558 11.743134 36.412776"/><path d="M2835.791199-270.338464l66.674469-102.159153"/><path d="M2898.09613-334.442159l4.369538-38.055458-33.044632 19.321065"/><path d="M2808.091448-490.848918l122.112984-102.120042"/><path d="M2914.911049-557.885973l15.293383-35.082987-37.258115 8.839192"/><path d="M2851.747815-711.359372l34.761236-102.120042"/><path d="M2891.697878-775.54129l-5.188827-37.938124-27.231585 26.90869"/><path d="M2915.769351-931.869826l-93.242822-102.120042"/><path d="M2858.263109-1020.222631l-35.73658-13.767237 10.455681 36.843003"/><path d="M2925.249688-1152.341169l-112.203496-102.159153"/><path d="M2849.875156-1244.096672l-36.828964-10.40365 13.810862 35.70877"/><path d="M2869.14794-1372.851623v-102.159153"/><path d="M2886.274969-1440.74913l-17.127029-34.261646-17.127029 34.261646"/><path d="M2813.046192-1593.362077l112.203496-102.120042"/><path d="M2911.438826-1659.773349l13.810862-35.70877-36.867978 10.364539"/><path d="M2822.526529-1813.872531l93.242822-102.120042"/><path d="M2905.31367-1879.188682l10.455681-36.803891-35.736579 13.728125"/><path d="M2886.509051-2034.382985l-34.761236-102.120042"/><path d="M2879.018414-2109.594337l-27.270599-26.90869-5.149813 37.938124"/><path d="M2930.204432-2254.893439l-122.112984-102.120042"/><path d="M2845.349563-2348.174289l-37.258115-8.839192 15.293383 35.122098"/><path d="M2902.465668-2475.364782l-66.674469-102.159153"/><path d="M2868.83583-2558.20287l-33.044631-19.321065 4.369538 38.055458"/><path d="M3126.326467-253.324975l66.713483-136.18613"/><path d="M3193.35206-351.220979l-.31211-38.290126-30.430712 23.232211"/><path d="M3098.626717-473.835429 3220.7397-609.982448"/><path d="M3210.635144-573.061223l10.104556-36.921225-35.619538 14.041017"/><path d="M3142.322097-694.345884l34.722223-136.147018"/><path d="M3185.19819-793.102339l-8.15387-37.390563-25.046817 28.942486"/><path d="M3206.304619-914.856338l-93.242821-136.147018"/><path d="M3146.535581-1032.425409l-33.473783-18.577947 5.22784 37.899012"/><path d="M3215.784956-1135.366792l-112.203495-136.147018"/><path d="M3138.576779-1255.986558l-34.995318-15.527252 8.544007 37.31234"/><path d="M3159.683208-1355.838134v-136.18613"/><path d="M3176.810237-1457.762619l-17.127029-34.261645-17.127028 34.261645"/><path d="M3103.581461-1576.348588l112.203495-136.18613"/><path d="M3207.201935-1675.222378l8.583021-37.31234-34.995318 15.566364"/><path d="M3113.061798-1796.859043l93.242821-136.18613"/><path d="M3201.076779-1895.107049l5.22784-37.938124-33.473783 18.617059"/><path d="M3177.04432-2017.369497l-34.722223-136.147018"/><path d="M3167.368914-2124.574029l-25.046817-28.942486-8.114856 37.390563"/><path d="M3220.7397-2237.840839l-122.112983-136.18613"/><path d="M3134.246255-2359.985952l-35.619538-14.041017 10.104556 36.921225"/><path d="M3193.03995-2458.351293l-66.713483-136.18613"/><path d="M3156.757179-2571.305212l-30.430712-23.232211-.31211 38.290126"/><path d="M3416.900749-236.311487l66.674469-170.213107"/><path d="M3487.047441-368.390913l-3.472223-38.133681-28.441011 25.657123"/><path d="M3389.161985-456.821941l122.112984-170.213107"/><path d="M3505.22784-589.214259l6.047129-37.820789-33.86392 17.834829"/><path d="M3432.857366-677.332395l34.761236-170.213107"/><path d="M3477.52809-810.546054l-9.909488-36.999448-23.642322 30.154942"/><path d="M3496.839888-897.803738l-93.203808-170.252218"/><path d="M3435.081149-1046.231757l-31.445069-21.824199 1.404494 38.290127"/><path d="M3506.320225-1118.314192l-112.203496-170.213107"/><path d="M3427.278402-1269.36268l-33.161673-19.164619 4.564607 38.016347"/><path d="M3450.218477-1338.824646v-170.213107"/><path d="M3467.345506-1474.815219l-17.127029-34.222534-17.127029 34.222534"/><path d="M3394.116729-1559.3351l112.203496-170.213107"/><path d="M3501.794632-1691.53186l4.525593-38.016347-33.122659 19.164619"/><path d="M3403.63608-1779.845554l93.203808-170.213107"/><path d="M3495.39638-1911.807646l1.443508-38.251015-31.484083 21.824199"/><path d="M3467.618602-2000.356008l-34.761236-170.213107"/><path d="M3456.460674-2140.414174l-23.603308-30.154941-9.909488 36.999448"/><path d="M3511.274969-2220.827351l-122.112984-170.213107"/><path d="M3423.064919-2373.205628l-33.902934-17.83483 6.086142 37.781678"/><path d="M3483.575218-2441.337805l-66.674469-170.213107"/><path d="M3445.302747-2585.9329l-28.401998-25.618012-3.472222 38.133681"/></g></g><style>.a{fill:none;stroke:#bfbfbf;stroke-dasharray:11.4143,17.1214;stroke-linecap:round;stroke-miterlimit:10;stroke-width:5.70714;transform:matrix(.100125,0,0,.0998748,-39,265)}.b{stroke-linecap:square;stroke-width:11.4143}.c{stroke-width:5.70714}.d{fill:none;stroke:#bfbfbf;stroke-linecap:round;stroke-miterlimit:10;stroke-width:5.70714;transform:matrix(.100125,0,0,.0998748,-39,265)}</style></svg>