<svg xmlns="http://www.w3.org/2000/svg" width="322pt" height="245pt" viewBox="0 0 322 245"><defs><clipPath id="h"><use href="#a"/></clipPath><clipPath id="i"><path d="M1 122h320v2H1zm0 0"/></clipPath><clipPath id="j"><path d="M1 1.6602h1v242.25H1zm0 0"/></clipPath><clipPath id="k"><path d="M80 1.6602h2v242.25h-2zm0 0"/></clipPath><clipPath id="l"><use href="#a"/></clipPath><clipPath id="m"><path d="M240 1.6602h2v242.25h-2zm0 0"/></clipPath><clipPath id="n"><path d="M320 1.6602h1v242.25h-1zm0 0"/></clipPath><clipPath id="o"><path d="M1 243h320v.9102H1zm0 0"/></clipPath><clipPath id="p"><path d="M1 183h320v1H1zm0 0"/></clipPath><clipPath id="q"><path d="M1 122h320v2H1zm0 0"/></clipPath><clipPath id="r"><path d="M1 61h320v2H1zm0 0"/></clipPath><clipPath id="s"><path d="M1 1.6602h320V2H1zm0 0"/></clipPath><path id="a" d="M160 1.6602h2v242.25h-2zm0 0"/><path id="b" d="M1997.5031-211.1628v-2425.5368"/><path id="c" d="M399.5006-1423.9312h3196.005"/><path id="d" d="M399.5006-211.1628v-2425.5368"/><path id="e" d="M3595.5056-211.1628v-2425.5368"/><path id="f" d="M399.5006-211.1628h3196.005"/><path id="g" d="M399.5006-2636.6996h3196.005"/></defs><path fill="#fff" d="M1 243.9102h320V1.6602H1zm0 0"/><g clip-path="url(#h)"><use href="#b" class="d"/></g><g clip-path="url(#i)"><use href="#c" class="d"/></g><g clip-path="url(#j)"><use href="#d" class="a"/></g><g clip-path="url(#k)"><path d="M1198.501873-211.162813v-2425.536772" class="a"/></g><g clip-path="url(#l)"><use href="#b" class="a"/></g><g clip-path="url(#m)"><path d="M2796.50437-211.162813v-2425.536772" class="a"/></g><g clip-path="url(#n)"><use href="#e" class="a"/></g><g clip-path="url(#o)"><use href="#f" class="a"/></g><g clip-path="url(#p)"><path d="M399.500624-817.547006h3196.004994" class="a"/></g><g clip-path="url(#q)"><use href="#c" class="a"/></g><g clip-path="url(#r)"><path d="M399.500624-2030.315392h3196.004994" class="a"/></g><g clip-path="url(#s)"><use href="#g" class="a"/></g><g fill="none" stroke-miterlimit="10" transform="matrix(.100125 0 0 .0998748 -39 265)"><g stroke="#000"><use href="#f" class="b"/><g class="c"><path d="M399.500624-211.162813v-45.643083"/><path d="M399.500624-211.162813v-22.841097"/><path d="M479.400749-211.162813v-22.841097"/><path d="M559.300874-211.162813v-22.841097"/><path d="M639.200999-211.162813v-22.841097"/><path d="M719.101124-211.162813v-22.841097"/><path d="M799.001248-211.162813v-22.841097"/><path d="M878.901373-211.162813v-22.841097"/><path d="M958.801498-211.162813v-22.841097"/><path d="M1038.701623-211.162813v-22.841097"/><path d="M1198.501873-211.162813v-45.643083"/><path d="M1198.501873-211.162813v-22.841097"/><path d="M1278.401998-211.162813v-22.841097"/><path d="M1358.302122-211.162813v-22.841097"/><path d="M1438.202247-211.162813v-22.841097"/><path d="M1518.102372-211.162813v-22.841097"/><path d="M1598.002497-211.162813v-22.841097"/><path d="M1677.902622-211.162813v-22.841097"/><path d="M1757.802747-211.162813v-22.841097"/><path d="M1837.702871-211.162813v-22.841097"/><path d="M1997.503121-211.162813v-45.643083"/><path d="M1997.503121-211.162813v-22.841097"/><path d="M2077.403246-211.162813v-22.841097"/><path d="M2157.303371-211.162813v-22.841097"/><path d="M2237.203496-211.162813v-22.841097"/><path d="M2317.10362-211.162813v-22.841097"/><path d="M2397.003745-211.162813v-22.841097"/><path d="M2476.90387-211.162813v-22.841097"/><path d="M2556.803995-211.162813v-22.841097"/><path d="M2636.70412-211.162813v-22.841097"/><path d="M2796.50437-211.162813v-45.643083"/><path d="M2796.50437-211.162813v-22.841097"/><path d="M2876.404494-211.162813v-22.841097"/><path d="M2956.304619-211.162813v-22.841097"/><path d="M3036.204744-211.162813v-22.841097"/><path d="M3116.104869-211.162813v-22.841097"/><path d="M3196.004994-211.162813v-22.841097"/><path d="M3275.905119-211.162813v-22.841097"/><path d="M3355.805243-211.162813v-22.841097"/><path d="M3435.705368-211.162813v-22.841097"/><path d="M3595.505618-211.162813v-45.643083"/><path d="M3595.505618-211.162813v-22.841097"/></g><use href="#g" class="b"/><g class="c"><path d="M399.500624-2636.699585v45.643082"/><path d="M399.500624-2636.699585v22.841097"/><path d="M479.400749-2636.699585v22.841097"/><path d="M559.300874-2636.699585v22.841097"/><path d="M639.200999-2636.699585v22.841097"/><path d="M719.101124-2636.699585v22.841097"/><path d="M799.001248-2636.699585v22.841097"/><path d="M878.901373-2636.699585v22.841097"/><path d="M958.801498-2636.699585v22.841097"/><path d="M1038.701623-2636.699585v22.841097"/><path d="M1198.501873-2636.699585v45.643082"/><path d="M1198.501873-2636.699585v22.841097"/><path d="M1278.401998-2636.699585v22.841097"/><path d="M1358.302122-2636.699585v22.841097"/><path d="M1438.202247-2636.699585v22.841097"/><path d="M1518.102372-2636.699585v22.841097"/><path d="M1598.002497-2636.699585v22.841097"/><path d="M1677.902622-2636.699585v22.841097"/><path d="M1757.802747-2636.699585v22.841097"/><path d="M1837.702871-2636.699585v22.841097"/><path d="M1997.503121-2636.699585v45.643082"/><path d="M1997.503121-2636.699585v22.841097"/><path d="M2077.403246-2636.699585v22.841097"/><path d="M2157.303371-2636.699585v22.841097"/><path d="M2237.203496-2636.699585v22.841097"/><path d="M2317.10362-2636.699585v22.841097"/><path d="M2397.003745-2636.699585v22.841097"/><path d="M2476.90387-2636.699585v22.841097"/><path d="M2556.803995-2636.699585v22.841097"/><path d="M2636.70412-2636.699585v22.841097"/><path d="M2796.50437-2636.699585v45.643082"/><path d="M2796.50437-2636.699585v22.841097"/><path d="M2876.404494-2636.699585v22.841097"/><path d="M2956.304619-2636.699585v22.841097"/><path d="M3036.204744-2636.699585v22.841097"/><path d="M3116.104869-2636.699585v22.841097"/><path d="M3196.004994-2636.699585v22.841097"/><path d="M3275.905119-2636.699585v22.841097"/><path d="M3355.805243-2636.699585v22.841097"/><path d="M3435.705368-2636.699585v22.841097"/><path d="M3595.505618-2636.699585v45.643082"/><path d="M3595.505618-2636.699585v22.841097"/></g><use href="#d" class="b"/><g class="c"><path d="M399.500624-211.162813h45.646068"/><path d="M399.500624-211.162813h22.823034"/><path d="M399.500624-271.785588h22.823034"/><path d="M399.500624-332.447474h22.823034"/><path d="M399.500624-393.070249h22.823034"/><path d="M399.500624-453.732135h22.823034"/><path d="M399.500624-514.35491h22.823034"/><path d="M399.500624-574.977685h22.823034"/><path d="M399.500624-635.639571h22.823034"/><path d="M399.500624-696.262345h22.823034"/><path d="M399.500624-817.547006h45.646068"/><path d="M399.500624-817.547006h22.823034"/><path d="M399.500624-878.169781h22.823034"/><path d="M399.500624-938.831667h22.823034"/><path d="M399.500624-999.454442h22.823034"/><path d="M399.500624-1060.116328h22.823034"/><path d="M399.500624-1120.739103h22.823034"/><path d="M399.500624-1181.361878h22.823034"/><path d="M399.500624-1242.023764h22.823034"/><path d="M399.500624-1302.646538h22.823034"/><path d="M399.500624-1423.931199h45.646068"/><path d="M399.500624-1423.931199h22.823034"/><path d="M399.500624-1484.553974h22.823034"/><path d="M399.500624-1545.21586h22.823034"/><path d="M399.500624-1605.838635h22.823034"/><path d="M399.500624-1666.46141h22.823034"/><path d="M399.500624-1727.123296h22.823034"/><path d="M399.500624-1787.746071h22.823034"/><path d="M399.500624-1848.407957h22.823034"/><path d="M399.500624-1909.030731h22.823034"/><path d="M399.500624-2030.315392h45.646068"/><path d="M399.500624-2030.315392h22.823034"/><path d="M399.500624-2090.938167h22.823034"/><path d="M399.500624-2151.600053h22.823034"/><path d="M399.500624-2212.222828h22.823034"/><path d="M399.500624-2272.884714h22.823034"/><path d="M399.500624-2333.507489h22.823034"/><path d="M399.500624-2394.169375h22.823034"/><path d="M399.500624-2454.79215h22.823034"/><path d="M399.500624-2515.414924h22.823034"/><path d="M399.500624-2636.699585h45.646068"/><path d="M399.500624-2636.699585h22.823034"/></g><use href="#e" class="b"/><g class="c"><path d="M3595.505618-211.162813h-45.685081"/><path d="M3595.505618-211.162813h-22.823034"/><path d="M3595.505618-271.785588h-22.823034"/><path d="M3595.505618-332.447474h-22.823034"/><path d="M3595.505618-393.070249h-22.823034"/><path d="M3595.505618-453.732135h-22.823034"/><path d="M3595.505618-514.35491h-22.823034"/><path d="M3595.505618-574.977685h-22.823034"/><path d="M3595.505618-635.639571h-22.823034"/><path d="M3595.505618-696.262345h-22.823034"/><path d="M3595.505618-817.547006h-45.685081"/><path d="M3595.505618-817.547006h-22.823034"/><path d="M3595.505618-878.169781h-22.823034"/><path d="M3595.505618-938.831667h-22.823034"/><path d="M3595.505618-999.454442h-22.823034"/><path d="M3595.505618-1060.116328h-22.823034"/><path d="M3595.505618-1120.739103h-22.823034"/><path d="M3595.505618-1181.361878h-22.823034"/><path d="M3595.505618-1242.023764h-22.823034"/><path d="M3595.505618-1302.646538h-22.823034"/><path d="M3595.505618-1423.931199h-45.685081"/><path d="M3595.505618-1423.931199h-22.823034"/><path d="M3595.505618-1484.553974h-22.823034"/><path d="M3595.505618-1545.21586h-22.823034"/><path d="M3595.505618-1605.838635h-22.823034"/><path d="M3595.505618-1666.46141h-22.823034"/><path d="M3595.505618-1727.123296h-22.823034"/><path d="M3595.505618-1787.746071h-22.823034"/><path d="M3595.505618-1848.407957h-22.823034"/><path d="M3595.505618-1909.030731h-22.823034"/><path d="M3595.505618-2030.315392h-45.685081"/><path d="M3595.505618-2030.315392h-22.823034"/><path d="M3595.505618-2090.938167h-22.823034"/><path d="M3595.505618-2151.600053h-22.823034"/><path d="M3595.505618-2212.222828h-22.823034"/><path d="M3595.505618-2272.884714h-22.823034"/><path d="M3595.505618-2333.507489h-22.823034"/><path d="M3595.505618-2394.169375h-22.823034"/><path d="M3595.505618-2454.79215h-22.823034"/><path d="M3595.505618-2515.414924h-22.823034"/><path d="M3595.505618-2636.699585h-45.685081"/><path d="M3595.505618-2636.699585h-22.823034"/></g></g><g stroke-width="11.4143" stroke-linecap="round" stroke="#00f"><path d="M461.337391-384.739506l166.861735 126.642932"/><path d="M590.589888-265.17575l37.609238 7.079176-16.93196-34.339869"/><path d="M491.377965-605.24996l106.780587 126.642932"/><path d="M563.007179-493.743166l35.151373 15.136138-8.973159-37.195006"/><path d="M514.747191-825.760415l60.042135 126.642932"/><path d="M544.670724-722.701698l30.118602 23.584215.819288-38.251015"/><path d="M531.406055-1046.231757l26.724407 126.642932"/><path d="M534.293071-949.587321l23.837391 29.998496 9.675406-37.03856"/><path d="M541.432584-1266.742211l6.671349 126.642932"/><path d="M529.221286-1173.42225l18.882647 33.322971 15.293383-35.122098"/><path d="M544.787765-1487.252665v126.642932"/><path d="M527.660737-1394.871379l17.127028 34.261646 17.088015-34.261646"/><path d="M541.432584-1707.763119l6.671349 126.642932"/><path d="M529.221286-1614.404046l18.882647 33.283859 15.293383-35.082987"/><path d="M531.406055-1928.273574l26.724407 126.642932"/><path d="M534.293071-1831.590026l23.837391 29.959384 9.675406-37.038559"/><path d="M514.747191-2148.744916l60.042135 126.642932"/><path d="M544.670724-2045.725311l30.118602 23.623327.819288-38.290127"/><path d="M491.377965-2369.25537l106.780587 126.642932"/><path d="M563.007179-2257.787688l35.151373 15.17525-8.973159-37.234117"/><path d="M461.337391-2589.765824l166.861735 126.642932"/><path d="M590.589888-2470.202068l37.609238 7.079176-16.93196-34.339869"/><path d="M751.872659-361.937521l166.861736 81.038961"/><path d="M880.461923-280.468334l38.272472-.430226-23.291199-30.350499"/><path d="M781.913233-582.447975l106.819601 81.038961"/><path d="M851.084582-508.449078l37.648252 7.040064-16.93196-34.339869"/><path d="M805.282459-802.958429l60.081149 81.078072"/><path d="M831.226592-739.206737l34.137016 17.32638-6.632335-37.703454"/><path d="M821.980337-1023.468883l26.685393 81.078072"/><path d="M821.707241-969.573281l26.958489 27.18247 5.53995-37.899012"/><path d="M831.967853-1243.940226l6.671348 81.038961"/><path d="M818.781211-1195.637563l19.85799 32.736298 14.279026-35.552324"/><path d="M835.323034-1464.45068v81.038961"/><path d="M818.196005-1417.634253l17.127029 34.222534 17.127028-34.222534"/><path d="M831.967853-1684.961134l6.671348 81.038961"/><path d="M818.781211-1636.61936l19.85799 32.697187 14.279026-35.513213"/><path d="M821.980337-1905.471588l26.685393 81.078072"/><path d="M821.707241-1851.575986l26.958489 27.18247 5.53995-37.899012"/><path d="M805.282459-2125.982042l60.081149 81.078072"/><path d="M831.226592-2062.23035l34.137016 17.32638-6.632335-37.703454"/><path d="M781.913233-2346.453385l106.819601 81.038961"/><path d="M851.084582-2272.493599l37.648252 7.079175-16.93196-34.339868"/><path d="M751.872659-2566.963839l166.861736 81.038961"/><path d="M880.461923-2485.494652l38.272472-.430226-23.291199-30.350499"/><path d="M1042.446941-344.220026l166.861736 45.603971"/><path d="M1171.738452-291.106653l37.570225-7.509402-28.519039-25.539788"/><path d="M1072.487516-564.73048l106.780586 45.603971"/><path d="M1141.034644-516.818932l38.233458-2.307577-24.77372-29.177155"/><path d="M1095.817728-785.201823l60.081148 45.56486"/><path d="M1118.250624-746.677027l37.648252 7.040064-16.93196-34.339868"/><path d="M1112.515605-1005.712277l26.685394 45.56486"/><path d="M1107.13171-981.032941l32.069289 20.885524-2.535893-38.172792"/><path d="M1122.542135-1226.222731l6.671348 45.56486"/><path d="M1107.287765-1212.025268l21.925718 31.367397 11.977216-36.334554"/><path d="M1125.858302-1446.733185v45.603971"/><path d="M1108.731273-1435.390859l17.127029 34.261645 17.127029-34.261645"/><path d="M1122.542135-1667.243639l6.671348 45.603971"/><path d="M1107.287765-1653.046176l21.925718 31.406508 11.977216-36.373665"/><path d="M1112.515605-1887.714982l26.685394 45.56486"/><path d="M1107.13171-1863.035646l32.069289 20.885524-2.535893-38.211904"/><path d="M1095.817728-2108.225436l60.081148 45.56486"/><path d="M1118.250624-2069.70064l37.648252 7.040064-16.93196-34.339869"/><path d="M1072.487516-2328.73589l106.780586 45.603971"/><path d="M1141.034644-2280.863454l38.233458-2.268465-24.77372-29.216266"/><path d="M1042.446941-2549.246344l166.861736 45.603971"/><path d="M1171.738452-2496.172082l37.570225-7.470291-28.519039-25.539788"/><path d="M1332.98221-331.54791l166.861735 20.25974"/><path d="M1463.795256-298.420497l36.048689-12.867673-31.952247-21.120193"/><path d="M1363.022784-552.058365l106.780587 20.259741"/><path d="M1432.974407-521.355863l36.828964-10.442761-30.469726-23.193101"/><path d="M1386.352996-772.568819l60.081149 20.259741"/><path d="M1408.512797-747.02903l37.921348-5.280048-26.95849-27.143359"/><path d="M1403.050874-993.040161l26.724407 20.25974"/><path d="M1392.127029-979.859597l37.648252 7.079176-16.93196-34.37898"/><path d="M1413.077403-1213.550615l6.671349 20.25974"/><path d="M1392.751248-1220.473345l26.997504 27.18247 5.53995-37.899012"/><path d="M1416.393571-1434.061069v20.25974"/><path d="M1399.305556-1448.062975l17.088015 34.261646 17.127028-34.261646"/><path d="M1413.077403-1654.571524l6.671349 20.259741"/><path d="M1392.751248-1661.455142l26.997504 27.143359 5.53995-37.859901"/><path d="M1403.050874-1875.081978l26.724407 20.259741"/><path d="M1392.127029-1861.862302l37.648252 7.040065-16.93196-34.339869"/><path d="M1386.352996-2095.55332l60.081149 20.25974"/><path d="M1408.512797-2070.013532l37.921348-5.280048-26.95849-27.18247"/><path d="M1363.022784-2316.063774l106.780587 20.25974"/><path d="M1432.974407-2285.361272l36.828964-10.442762-30.469726-23.232212"/><path d="M1332.98221-2536.574228l166.861735 20.25974"/><path d="M1463.795256-2503.446815l36.048689-12.867673-31.952247-21.120193"/><path d="M1623.517478-323.960286l166.861735 5.084491"/><path d="M1755.656991-302.800982l34.722222-16.074813-33.707865-18.147721"/><path d="M1653.558052-544.431628l106.780587 5.045379"/><path d="M1725.343321-523.898108l34.995318-15.488141-33.395755-18.734393"/><path d="M1676.927278-764.942082l60.081149 5.045379"/><path d="M1701.427903-745.69924l35.580524-14.197463-32.693508-19.946849"/><path d="M1693.625156-985.452537l26.685393 5.04538"/><path d="M1683.481586-969.964395l36.828963-10.442762-30.469725-23.193101"/><path d="M1703.612672-1205.962991l6.671348 5.04538"/><path d="M1672.674782-1207.957676l37.609238 7.040065-16.93196-34.339869"/><path d="M1706.967853-1426.473445v5.084491"/><path d="M1689.840824-1455.6506l17.127029 34.261646 17.127028-34.261646"/><path d="M1703.612672-1646.983899l6.671348 5.084491"/><path d="M1672.674782-1648.978584l37.609238 7.079176-16.93196-34.339869"/><path d="M1693.625156-1867.455241l26.685393 5.045379"/><path d="M1683.481586-1851.9671l36.828963-10.442762-30.469725-23.1931"/><path d="M1676.927278-2087.965696l60.081149 5.04538"/><path d="M1701.427903-2068.722854l35.580524-14.197462-32.693508-19.946849"/><path d="M1653.558052-2308.47615l106.780587 5.04538"/><path d="M1725.343321-2287.942629l34.995318-15.488141-33.395755-18.695282"/><path d="M1623.517478-2528.986604l166.861735 5.084491"/><path d="M1755.656991-2507.8273l34.722222-16.074813-33.707865-18.186832"/><path d="M1914.052747-321.41804h166.861735"/><path d="M2046.699438-304.287218l34.215044-17.130822-34.215044-17.130823"/><path d="M1944.093321-541.928494h106.8196"/><path d="M2016.658864-524.797672l34.254057-17.130822-34.254057-17.130823"/><path d="M1967.462547-762.438949h60.081148"/><path d="M1993.289638-745.308126l34.254057-17.130823-34.254057-17.091711"/><path d="M1984.160424-982.910291h26.685394"/><path d="M1976.59176-965.81858l34.254058-17.091711-34.254058-17.130823"/><path d="M1994.14794-1203.420745h6.710362"/><path d="M1966.604245-1186.329034l34.254057-17.091711-34.254057-17.130823"/><path d="M1994.14794-1644.441653h6.710362"/><path d="M1966.604245-1627.310831l34.254057-17.130822-34.254057-17.130823"/><path d="M1984.160424-1864.952108h26.685394"/><path d="M1976.59176-1847.821285l34.254058-17.130823-34.254058-17.091711"/><path d="M1967.462547-2085.42345h60.081148"/><path d="M1993.289638-2068.331739l34.254057-17.091711-34.254057-17.130823"/><path d="M1944.093321-2305.933904h106.8196"/><path d="M2016.658864-2288.842193l34.254057-17.091711-34.254057-17.130823"/><path d="M1914.052747-2526.444358h166.861735"/><path d="M2046.699438-2509.313536l34.215044-17.130822-34.215044-17.130823"/><path d="M2204.627029-323.960286l166.861735 5.084491"/><path d="M2336.727528-302.800982l34.761236-16.074813-33.707865-18.147721"/><path d="M2234.667603-544.431628l106.780587 5.045379"/><path d="M2306.413858-523.898108l35.034332-15.488141-33.395756-18.734393"/><path d="M2257.997815-764.942082l60.081149 5.045379"/><path d="M2282.537453-745.69924l35.541511-14.197463-32.693508-19.946849"/><path d="M2274.695693-985.452537l26.685393 5.04538"/><path d="M2264.552122-969.964395l36.828964-10.442762-30.430711-23.193101"/><path d="M2284.722222-1205.962991l6.671349 5.04538"/><path d="M2253.745318-1207.957676l37.648253 7.040065-16.931961-34.339869"/><path d="M2288.03839-1426.473445v5.084491"/><path d="M2270.911361-1455.6506l17.127029 34.261646 17.127028-34.261646"/><path d="M2284.722222-1646.983899l6.671349 5.084491"/><path d="M2253.745318-1648.978584l37.648253 7.079176-16.931961-34.339869"/><path d="M2274.695693-1867.455241l26.685393 5.045379"/><path d="M2264.552122-1851.9671l36.828964-10.442762-30.430711-23.1931"/><path d="M2257.997815-2087.965696l60.081149 5.04538"/><path d="M2282.537453-2068.722854l35.541511-14.197462-32.693508-19.946849"/><path d="M2234.667603-2308.47615l106.780587 5.04538"/><path d="M2306.413858-2287.942629l35.034332-15.488141-33.395756-18.695282"/><path d="M2204.627029-2528.986604l166.861735 5.084491"/><path d="M2336.727528-2507.8273l34.761236-16.074813-33.707865-18.186832"/><path d="M2495.162297-331.54791l166.861735 20.25974"/><path d="M2625.975343-298.420497l36.048689-12.867673-31.952247-21.120193"/><path d="M2525.202871-552.058365l106.780587 20.259741"/><path d="M2595.154494-521.355863l36.828964-10.442761-30.430711-23.193101"/><path d="M2548.572097-772.568819l60.042135 20.259741"/><path d="M2570.692884-747.02903l37.921348-5.280048-26.958489-27.143359"/><path d="M2565.230961-993.040161l26.724407 20.25974"/><path d="M2554.307116-979.859597l37.648252 7.079176-16.93196-34.37898"/><path d="M2575.257491-1213.550615l6.671348 20.25974"/><path d="M2554.931336-1220.473345l26.997503 27.18247 5.53995-37.899012"/><path d="M2578.573658-1434.061069v20.25974"/><path d="M2561.485643-1448.062975l17.088015 34.261646 17.127029-34.261646"/><path d="M2575.257491-1654.571524l6.671348 20.259741"/><path d="M2554.931336-1661.455142l26.997503 27.143359 5.53995-37.859901"/><path d="M2565.230961-1875.081978l26.724407 20.259741"/><path d="M2554.307116-1861.862302l37.648252 7.040065-16.93196-34.339869"/><path d="M2548.572097-2095.55332l60.042135 20.25974"/><path d="M2570.692884-2070.013532l37.921348-5.280048-26.958489-27.18247"/><path d="M2525.202871-2316.063774l106.780587 20.25974"/><path d="M2595.154494-2285.361272l36.828964-10.442762-30.430711-23.232212"/><path d="M2495.162297-2536.574228l166.861735 20.25974"/><path d="M2625.975343-2503.446815l36.048689-12.867673-31.952247-21.120193"/><path d="M2785.697566-344.220026l166.861735 45.603971"/><path d="M2915.02809-291.106653l37.531211-7.509402-28.519039-25.539788"/><path d="M2815.73814-564.73048l106.780587 45.603971"/><path d="M2884.324282-516.818932l38.194445-2.307577-24.773721-29.177155"/><path d="M2839.107366-785.201823l60.081148 45.56486"/><path d="M2861.540262-746.677027l37.648252 7.040064-16.93196-34.339868"/><path d="M2855.805243-1005.712277l26.685394 45.56486"/><path d="M2850.382335-981.032941l32.108302 20.885524-2.535893-38.172792"/><path d="M2865.792759-1226.222731l6.671348 45.56486"/><path d="M2850.577403-1212.025268l21.886704 31.367397 11.977216-36.334554"/><path d="M2869.14794-1446.733185v45.603971"/><path d="M2852.020911-1435.390859l17.127029 34.261645 17.127029-34.261645"/><path d="M2865.792759-1667.243639l6.671348 45.603971"/><path d="M2850.577403-1653.046176l21.886704 31.406508 11.977216-36.373665"/><path d="M2855.805243-1887.714982l26.685394 45.56486"/><path d="M2850.382335-1863.035646l32.108302 20.885524-2.535893-38.211904"/><path d="M2839.107366-2108.225436l60.081148 45.56486"/><path d="M2861.540262-2069.70064l37.648252 7.040064-16.93196-34.339869"/><path d="M2815.73814-2328.73589l106.780587 45.603971"/><path d="M2884.324282-2280.863454l38.194445-2.268465-24.773721-29.216266"/><path d="M2785.697566-2549.246344l166.861735 45.603971"/><path d="M2915.02809-2496.172082l37.531211-7.470291-28.519039-25.539788"/><path d="M3076.232834-361.937521l166.900749 81.038961"/><path d="M3204.822097-280.468334l38.311486-.430226-23.330212-30.350499"/><path d="M3106.273408-582.447975l106.819601 81.038961"/><path d="M3175.444757-508.449078l37.648252 7.040064-16.93196-34.339869"/><path d="M3129.642634-802.958429l60.081149 81.078072"/><path d="M3155.586767-739.206737l34.137016 17.32638-6.632335-37.703454"/><path d="M3146.340512-1023.468883l26.685393 81.078072"/><path d="M3146.067416-969.573281l26.958489 27.18247 5.53995-37.899012"/><path d="M3156.367041-1243.940226l6.671349 81.038961"/><path d="M3143.141386-1195.637563l19.897004 32.736298 14.240012-35.552324"/><path d="M3159.683208-1464.45068v81.038961"/><path d="M3142.55618-1417.634253l17.127028 34.222534 17.127029-34.222534"/><path d="M3156.367041-1684.961134l6.671349 81.038961"/><path d="M3143.141386-1636.61936l19.897004 32.697187 14.240012-35.513213"/><path d="M3146.340512-1905.471588l26.685393 81.078072"/><path d="M3146.067416-1851.575986l26.958489 27.18247 5.53995-37.899012"/><path d="M3129.642634-2125.982042l60.081149 81.078072"/><path d="M3155.586767-2062.23035l34.137016 17.32638-6.632335-37.703454"/><path d="M3106.273408-2346.453385l106.819601 81.038961"/><path d="M3175.444757-2272.493599l37.648252 7.079175-16.93196-34.339868"/><path d="M3076.232834-2566.963839l166.900749 81.038961"/><path d="M3204.822097-2485.494652l38.311486-.430226-23.330212-30.350499"/><path d="M3366.807116-384.739506l166.861735 126.642932"/><path d="M3496.020599-265.17575l37.648252 7.079176-16.93196-34.339869"/><path d="M3396.84769-605.24996l106.780587 126.642932"/><path d="M3468.476904-493.743166l35.151373 15.136138-8.973158-37.195006"/><path d="M3420.177903-825.760415l60.081148 126.642932"/><path d="M3450.101436-722.701698l30.157615 23.584215.819289-38.251015"/><path d="M3436.87578-1046.231757l26.685394 126.642932"/><path d="M3439.762797-949.587321l23.798377 29.998496 9.714419-37.03856"/><path d="M3446.90231-1266.742211l6.671348 126.642932"/><path d="M3434.651998-1173.42225l18.92166 33.322971 15.293383-35.122098"/><path d="M3450.218477-1487.252665v126.642932"/><path d="M3433.091448-1394.871379l17.127029 34.261646 17.127029-34.261646"/><path d="M3446.90231-1707.763119l6.671348 126.642932"/><path d="M3434.651998-1614.404046l18.92166 33.283859 15.293383-35.082987"/><path d="M3436.87578-1928.273574l26.685394 126.642932"/><path d="M3439.762797-1831.590026l23.798377 29.959384 9.714419-37.038559"/><path d="M3420.177903-2148.744916l60.081148 126.642932"/><path d="M3450.101436-2045.725311l30.157615 23.623327.819289-38.290127"/><path d="M3396.84769-2369.25537l106.780587 126.642932"/><path d="M3468.476904-2257.787688l35.151373 15.17525-8.973158-37.234117"/><path d="M3366.807116-2589.765824l166.861735 126.642932"/><path d="M3496.020599-2470.202068l37.648252 7.079176-16.93196-34.339869"/></g></g><style>.a{fill:none;stroke:#bfbfbf;stroke-dasharray:11.4143,17.1214;stroke-linecap:round;stroke-miterlimit:10;stroke-width:5.70714;transform:matrix(.100125,0,0,.0998748,-39,265)}.b{stroke-linecap:square;stroke-width:11.4143}.c{stroke-width:5.70714}.d{fill:none;stroke:#bfbfbf;stroke-linecap:round;stroke-miterlimit:10;stroke-width:5.70714;transform:matrix(.100125,0,0,.0998748,-39,265)}</style></svg>