<svg xmlns="http://www.w3.org/2000/svg" width="366pt" height="275pt" viewBox="0 0 366 275"><defs><path d="M2.125-2.3437H.3438v.5469H2.125zm0 0" id="b"/><path d="M1.6563-2.4375h.3594c.734375 0 1.109375.328125 1.109375.953125C3.125-.8125 2.703125-.40625 2.015625-.40625 1.296875-.40625.9375-.765625.90625-1.546875H.2344C.265625-1.125.34375-.84375.46875-.59375.75-.09375 1.265625.171875 2 .171875c1.09375 0 1.796875-.65625 1.796875-1.65625 0-.671875-.265625-1.046875-.90625-1.265625.5-.203125.75-.578125.75-1.109375 0-.90625-.609375-1.453125-1.625-1.453125C.9375-5.3125.375-4.734375.359375-3.59375h.6563c0-.328125.03125-.515625.109375-.671875.15625-.296875.484375-.46875.90625-.46875.578125 0 .9375.34375.9375.90625 0 .375-.140625.59375-.4375.71875C2.359375-3.03125 2.125-3 1.65625-3zm0 0" id="c"/><path d="M3.7969-.6562H1c.0625-.4375.3125-.703125.953125-1.09375l.75-.4062c.75-.40625 1.125-.953125 1.125-1.59375 0-.453125-.171875-.859375-.484375-1.140625C3.015625-5.1875 2.625-5.3125 2.125-5.3125c-.671875 0-1.171875.234375-1.46875.6875-.1875.28125-.265625.609375-.28125 1.15625h.6563c.03125-.359375.078125-.578125.15625-.75.171875-.328125.515625-.515625.921875-.515625.59375 0 1.046875.421875 1.046875.984375 0 .421875-.25.78125-.71875 1.0625l-.6875.3906C.640625-1.671875.3125-1.171875.25 0h3.5469zm0 0" id="d"/><path d="M1.9375-3.7812V0h.6719v-5.3125h-.4375c-.2344.8125-.39065.921875-1.406275 1.046875v.4844zm0 0" id="e"/><path d="M2.0625-5.3125c-.5 0-.9375.21875-1.21875.578125C.5-4.265625.328125-3.5625.328125-2.578125c0 1.796875.59375 2.75 1.734375 2.75 1.125 0 1.734375-.953125 1.734375-2.703125 0-1.03125-.15625-1.71875-.515625-2.203125C3-5.109375 2.5625-5.3125 2.0625-5.3125zm0 .5781c.71875 0 1.0625.71875 1.0625 2.140625C3.125-1.078125 2.78125-.375 2.046875-.375 1.34375-.375 1-1.109375 1-2.5625c0-1.453125.34375-2.171875 1.0625-2.171875zm0 0" id="f"/><clipPath id="g"><path d="M182 9.5h2v255h-2zm0 0"/></clipPath><clipPath id="h"><use href="#a"/></clipPath><clipPath id="i"><path d="M13 9.5h1v255h-1zm0 0"/></clipPath><clipPath id="j"><path d="M69 9.5h1v255h-1zm0 0"/></clipPath><clipPath id="k"><path d="M126 9.5h1v255h-1zm0 0"/></clipPath><clipPath id="l"><path d="M182 9.5h2v255h-2zm0 0"/></clipPath><clipPath id="m"><path d="M239 9.5h1v255h-1zm0 0"/></clipPath><clipPath id="n"><path d="M296 9.5h1v255h-1zm0 0"/></clipPath><clipPath id="o"><path d="M352 9.5h1v255h-1zm0 0"/></clipPath><clipPath id="p"><path d="M13 264h340v.5H13zm0 0"/></clipPath><clipPath id="q"><path d="M13 221h340v2H13zm0 0"/></clipPath><clipPath id="r"><path d="M13 179h340v1H13zm0 0"/></clipPath><clipPath id="s"><use href="#a"/></clipPath><clipPath id="t"><path d="M13 94h340v1H13zm0 0"/></clipPath><clipPath id="u"><path d="M13 51h340v2H13zm0 0"/></clipPath><clipPath id="v"><path d="M13 9.5h340v.5H13zm0 0"/></clipPath><clipPath id="w"><use href="#a"/></clipPath><clipPath id="x"><path d="M13 9.5h340v255H13zm0 0"/></clipPath><clipPath id="y"><path d="M165 119h91v145.5h-91zm0 0"/></clipPath><clipPath id="z"><path d="M108 119h112v145.5H108zm0 0"/></clipPath><clipPath id="A"><path d="M13 119h188v145.5H13zm0 0"/></clipPath><clipPath id="B"><path d="M13 119h188v79H13zm0 0"/></clipPath><clipPath id="C"><path d="M13 34h188v121H13zm0 0"/></clipPath><clipPath id="D"><path d="M47 9.5h154V155H47zm0 0"/></clipPath><clipPath id="E"><path d="M146 9.5h112V155H146zm0 0"/></clipPath><clipPath id="F"><path d="M165 34h188v121H165zm0 0"/></clipPath><path id="a" d="M13 136h340v2H13zm0 0"/></defs><g clip-path="url(#g)"><path d="M1830 105v2550" class="f"/></g><g clip-path="url(#h)"><path d="M130 1380h3400" class="f"/></g><g clip-path="url(#i)"><path d="M130 105v2550" class="a"/></g><g clip-path="url(#j)"><path d="M696.679688 105v2550" class="a"/></g><g clip-path="url(#k)"><path d="M1263.320312 105v2550" class="a"/></g><g clip-path="url(#l)"><path d="M1830 105v2550" class="a"/></g><g clip-path="url(#m)"><path d="M2396.679688 105v2550" class="a"/></g><g clip-path="url(#n)"><path d="M2963.320312 105v2550" class="a"/></g><g clip-path="url(#o)"><path d="M3530 105v2550" class="a"/></g><g clip-path="url(#p)"><path d="M130 105h3400" class="a"/></g><g clip-path="url(#q)"><path d="M130 530h3400" class="a"/></g><g clip-path="url(#r)"><path d="M130 955h3400" class="a"/></g><g clip-path="url(#s)"><path d="M130 1380h3400" class="a"/></g><g clip-path="url(#t)"><path d="M130 1805h3400" class="a"/></g><g clip-path="url(#u)"><path d="M130 2230h3400" class="a"/></g><g clip-path="url(#v)"><path d="M130 2655h3400" class="a"/></g><g class="c"><path d="M130 105h3400" class="d"/><g class="e"><path d="M130 105v50"/><path d="M186.679688 105v25"/><path d="M243.320312 105v25"/><path d="M300 105v25"/><path d="M356.679688 105v25"/><path d="M413.320312 105v25"/><path d="M470 105v25"/><path d="M526.679688 105v25"/><path d="M583.320312 105v25"/><path d="M640 105v25"/><path d="M696.679688 105v50"/><path d="M753.320312 105v25"/><path d="M810 105v25"/><path d="M866.679688 105v25"/><path d="M923.320312 105v25"/><path d="M980 105v25"/><path d="M1036.679688 105v25"/><path d="M1093.320312 105v25"/><path d="M1150 105v25"/><path d="M1206.679688 105v25"/><path d="M1263.320312 105v50"/><path d="M1320 105v25"/><path d="M1376.679688 105v25"/><path d="M1433.320312 105v25"/><path d="M1490 105v25"/><path d="M1546.679688 105v25"/><path d="M1603.320312 105v25"/><path d="M1660 105v25"/><path d="M1716.679688 105v25"/><path d="M1773.320312 105v25"/><path d="M1830 105v50"/><path d="M1886.679688 105v25"/><path d="M1943.320312 105v25"/><path d="M2000 105v25"/><path d="M2056.679688 105v25"/><path d="M2113.320312 105v25"/><path d="M2170 105v25"/><path d="M2226.679688 105v25"/><path d="M2283.320312 105v25"/><path d="M2340 105v25"/><path d="M2396.679688 105v50"/><path d="M2453.320312 105v25"/><path d="M2510 105v25"/><path d="M2566.679688 105v25"/><path d="M2623.320312 105v25"/><path d="M2680 105v25"/><path d="M2736.679688 105v25"/><path d="M2793.320312 105v25"/><path d="M2850 105v25"/><path d="M2906.679688 105v25"/><path d="M2963.320312 105v50"/><path d="M3020 105v25"/><path d="M3076.679688 105v25"/><path d="M3133.320312 105v25"/><path d="M3190 105v25"/><path d="M3246.679688 105v25"/><path d="M3303.320312 105v25"/><path d="M3360 105v25"/><path d="M3416.679688 105v25"/><path d="M3473.320312 105v25"/><path d="M3530 105v50"/></g></g><use x="9.0418" y="274.5" href="#b"/><use x="11.5393" y="274.5" href="#c"/><use x="65.9168" y="274.5" href="#b"/><use x="68.4143" y="274.5" href="#d"/><use x="122.7918" y="274.5" href="#b"/><use x="125.2893" y="274.5" href="#e"/><use x="180.9152" y="274.5" href="#f"/><use x="237.1652" y="274.5" href="#e"/><use x="294.0402" y="274.5" href="#d"/><use x="350.9151" y="274.5" href="#c"/><g class="c"><path d="M130 2655h3400" class="d"/><g class="e"><path d="M130 2655v-50"/><path d="M186.679688 2655v-25"/><path d="M243.320312 2655v-25"/><path d="M300 2655v-25"/><path d="M356.679688 2655v-25"/><path d="M413.320312 2655v-25"/><path d="M470 2655v-25"/><path d="M526.679688 2655v-25"/><path d="M583.320312 2655v-25"/><path d="M640 2655v-25"/><path d="M696.679688 2655v-50"/><path d="M753.320312 2655v-25"/><path d="M810 2655v-25"/><path d="M866.679688 2655v-25"/><path d="M923.320312 2655v-25"/><path d="M980 2655v-25"/><path d="M1036.679688 2655v-25"/><path d="M1093.320312 2655v-25"/><path d="M1150 2655v-25"/><path d="M1206.679688 2655v-25"/><path d="M1263.320312 2655v-50"/><path d="M1320 2655v-25"/><path d="M1376.679688 2655v-25"/><path d="M1433.320312 2655v-25"/><path d="M1490 2655v-25"/><path d="M1546.679688 2655v-25"/><path d="M1603.320312 2655v-25"/><path d="M1660 2655v-25"/><path d="M1716.679688 2655v-25"/><path d="M1773.320312 2655v-25"/><path d="M1830 2655v-50"/><path d="M1886.679688 2655v-25"/><path d="M1943.320312 2655v-25"/><path d="M2000 2655v-25"/><path d="M2056.679688 2655v-25"/><path d="M2113.320312 2655v-25"/><path d="M2170 2655v-25"/><path d="M2226.679688 2655v-25"/><path d="M2283.320312 2655v-25"/><path d="M2340 2655v-25"/><path d="M2396.679688 2655v-50"/><path d="M2453.320312 2655v-25"/><path d="M2510 2655v-25"/><path d="M2566.679688 2655v-25"/><path d="M2623.320312 2655v-25"/><path d="M2680 2655v-25"/><path d="M2736.679688 2655v-25"/><path d="M2793.320312 2655v-25"/><path d="M2850 2655v-25"/><path d="M2906.679688 2655v-25"/><path d="M2963.320312 2655v-50"/><path d="M3020 2655v-25"/><path d="M3076.679688 2655v-25"/><path d="M3133.320312 2655v-25"/><path d="M3190 2655v-25"/><path d="M3246.679688 2655v-25"/><path d="M3303.320312 2655v-25"/><path d="M3360 2655v-25"/><path d="M3416.679688 2655v-25"/><path d="M3473.320312 2655v-25"/><path d="M3530 2655v-50"/></g></g><use x="9.0418" y="6.375" href="#b"/><use x="11.5393" y="6.375" href="#c"/><use x="65.9168" y="6.375" href="#b"/><use x="68.4143" y="6.375" href="#d"/><use x="122.7918" y="6.375" href="#b"/><use x="125.2893" y="6.375" href="#e"/><use x="180.9152" y="6.375" href="#f"/><use x="237.1652" y="6.375" href="#e"/><use x="294.0402" y="6.375" href="#d"/><use x="350.9151" y="6.375" href="#c"/><g class="c"><path d="M130 105v2550" class="d"/><g class="e"><path d="M130 105h50"/><path d="M130 147.5h25"/><path d="M130 190h25"/><path d="M130 232.5h25"/><path d="M130 275h25"/><path d="M130 317.5h25"/><path d="M130 360h25"/><path d="M130 402.5h25"/><path d="M130 445h25"/><path d="M130 487.5h25"/><path d="M130 530h50"/><path d="M130 572.5h25"/><path d="M130 615h25"/><path d="M130 657.5h25"/><path d="M130 700h25"/><path d="M130 742.5h25"/><path d="M130 785h25"/><path d="M130 827.5h25"/><path d="M130 870h25"/><path d="M130 912.5h25"/><path d="M130 955h50"/><path d="M130 997.5h25"/><path d="M130 1040h25"/><path d="M130 1082.5h25"/><path d="M130 1125h25"/><path d="M130 1167.5h25"/><path d="M130 1210h25"/><path d="M130 1252.5h25"/><path d="M130 1295h25"/><path d="M130 1337.5h25"/><path d="M130 1380h50"/><path d="M130 1422.5h25"/><path d="M130 1465h25"/><path d="M130 1507.5h25"/><path d="M130 1550h25"/><path d="M130 1592.5h25"/><path d="M130 1635h25"/><path d="M130 1677.5h25"/><path d="M130 1720h25"/><path d="M130 1762.5h25"/><path d="M130 1805h50"/><path d="M130 1847.5h25"/><path d="M130 1890h25"/><path d="M130 1932.5h25"/><path d="M130 1975h25"/><path d="M130 2017.5h25"/><path d="M130 2060h25"/><path d="M130 2102.5h25"/><path d="M130 2145h25"/><path d="M130 2187.5h25"/><path d="M130 2230h50"/><path d="M130 2272.5h25"/><path d="M130 2315h25"/><path d="M130 2357.5h25"/><path d="M130 2400h25"/><path d="M130 2442.5h25"/><path d="M130 2485h25"/><path d="M130 2527.5h25"/><path d="M130 2570h25"/><path d="M130 2612.5h25"/><path d="M130 2655h50"/></g></g><use x="-.5418" y="268.25" href="#b"/><use x="1.9557" y="268.25" href="#c"/><use x="-.5418" y="225.125" href="#b"/><use x="1.9557" y="225.125" href="#d"/><use x="-.5418" y="183.25" href="#b"/><use x="1.9557" y="183.25" href="#e"/><use x="1.9551" y="140.125" href="#f"/><use x="1.9551" y="98.25" href="#e"/><use x="1.9551" y="55.125" href="#d"/><use x="1.9551" y="12.625" href="#c"/><g class="c"><path d="M3530 105v2550" class="d"/><g class="e"><path d="M3530 105h-50"/><path d="M3530 147.5h-25"/><path d="M3530 190h-25"/><path d="M3530 232.5h-25"/><path d="M3530 275h-25"/><path d="M3530 317.5h-25"/><path d="M3530 360h-25"/><path d="M3530 402.5h-25"/><path d="M3530 445h-25"/><path d="M3530 487.5h-25"/><path d="M3530 530h-50"/><path d="M3530 572.5h-25"/><path d="M3530 615h-25"/><path d="M3530 657.5h-25"/><path d="M3530 700h-25"/><path d="M3530 742.5h-25"/><path d="M3530 785h-25"/><path d="M3530 827.5h-25"/><path d="M3530 870h-25"/><path d="M3530 912.5h-25"/><path d="M3530 955h-50"/><path d="M3530 997.5h-25"/><path d="M3530 1040h-25"/><path d="M3530 1082.5h-25"/><path d="M3530 1125h-25"/><path d="M3530 1167.5h-25"/><path d="M3530 1210h-25"/><path d="M3530 1252.5h-25"/><path d="M3530 1295h-25"/><path d="M3530 1337.5h-25"/><path d="M3530 1380h-50"/><path d="M3530 1422.5h-25"/><path d="M3530 1465h-25"/><path d="M3530 1507.5h-25"/><path d="M3530 1550h-25"/><path d="M3530 1592.5h-25"/><path d="M3530 1635h-25"/><path d="M3530 1677.5h-25"/><path d="M3530 1720h-25"/><path d="M3530 1762.5h-25"/><path d="M3530 1805h-50"/><path d="M3530 1847.5h-25"/><path d="M3530 1890h-25"/><path d="M3530 1932.5h-25"/><path d="M3530 1975h-25"/><path d="M3530 2017.5h-25"/><path d="M3530 2060h-25"/><path d="M3530 2102.5h-25"/><path d="M3530 2145h-25"/><path d="M3530 2187.5h-25"/><path d="M3530 2230h-50"/><path d="M3530 2272.5h-25"/><path d="M3530 2315h-25"/><path d="M3530 2357.5h-25"/><path d="M3530 2400h-25"/><path d="M3530 2442.5h-25"/><path d="M3530 2485h-25"/><path d="M3530 2527.5h-25"/><path d="M3530 2570h-25"/><path d="M3530 2612.5h-25"/><path d="M3530 2655h-50"/></g></g><use x="359.25" y="268.25" href="#b"/><use x="361.7475" y="268.25" href="#c"/><use x="359.25" y="225.125" href="#b"/><use x="361.7475" y="225.125" href="#d"/><use x="359.25" y="183.25" href="#b"/><use x="361.7475" y="183.25" href="#e"/><use x="359.25" y="140.125" href="#f"/><use x="359.25" y="98.25" href="#e"/><use x="359.25" y="55.125" href="#d"/><use x="359.25" y="12.625" href="#c"/><g style="fill:none;stroke-width:6.25;stroke-linecap:round;stroke:#00f;stroke-miterlimit:10;transform:matrix(.1,0,0,-.1,0,275)"><path d="M166.5625 132.421875l96.875 72.65625"/><path d="M244.6875 167.578125l18.75 37.5-41.25-7.5"/><path d="M169.101562 263.75l91.796876 65"/><path d="M241.132812 291.796875 260.898438 328.75l-41.445313-6.367188"/><path d="M171.640625 395.078125l86.71875 57.34375"/><path d="M237.421875 416.09375l20.9375 36.328125-41.640625-5.039063"/><path d="M174.179688 526.40625l81.601562 49.6875"/><path d="M233.515625 540.585938l22.265625 35.507812-41.757812-3.476562"/><path d="M176.757812 657.734375l76.484376 42.070313"/><path d="M229.414062 665.273438l23.828126 34.53125-41.875-1.640626"/><path d="M179.296875 789.023438l71.40625 34.453124"/><path d="M225.078125 790.273438l25.625 33.203124-41.914063.585938"/><path d="M181.835938 920.351562l66.328124 26.796876"/><path d="M220.390625 915.703125l27.773437 31.445313-41.796874 3.320312"/><path d="M184.414062 1051.679688l61.171876 19.140624"/><path d="M215.390625 1041.71875l30.195313 29.101562-41.367188 6.71875"/><path d="M186.953125 1183.007812l56.09375 11.484376"/><path d="M210.078125 1168.59375l32.96875 25.898438-40.507813 10.859374"/><path d="M189.492188 1314.335938l51.015624 3.828124"/><path d="M204.492188 1296.640625l36.015624 21.523437-38.828124 15.898438"/><path d="M192.03125 1445.664062l45.898438-3.828124"/><path d="M199.023438 1426.289062l38.90625 15.546876-35.78125 21.796874"/><path d="M194.609375 1576.992188l40.78125-11.484376"/><path d="M194.21875 1557.617188l41.171875 7.890624-31.015625 28.203126"/><path d="M197.148438 1708.320312l35.703124-19.140624"/><path d="M190.9375 1690.351562l41.914062-1.171874-24.21875 34.257812"/><path d="M199.6875 1839.648438l30.625-26.796876"/><path d="M189.726562 1823.4375l40.585938-10.585938-15.898438 38.828126"/><path d="M202.265625 1970.976562l25.46875-34.453124"/><path d="M190.351562 1955.507812l37.382813-18.984374-7.226563 41.289062"/><path d="M204.804688 2102.304688l20.390624-42.109376"/><path d="M191.953125 2085.78125l33.242187-25.585938.507813 41.953126"/><path d="M207.34375 2233.59375l15.3125-49.6875"/><path d="M193.710938 2214.21875l28.945312-30.3125 6.875 41.328125"/><path d="M209.882812 2364.921875l10.234376-57.34375"/><path d="M195.078125 2341.210938l25.039063-33.632813 11.875 40.195313"/><path d="M212.460938 2496.289062l5.078124-65.039062"/><path d="M195.9375 2467.148438 217.539062 2431.25l15.78125 38.828125"/><path d="M215 2627.578125v-72.65625"/><path d="M196.25 2592.421875l18.75-37.5 18.75 37.5"/><path d="M339.101562 132.421875l91.796876 72.65625"/><path d="M413.125 167.109375l17.773438 37.96875-41.054688-8.554687"/><path d="M341.640625 263.75l86.71875 65"/><path d="M409.609375 291.25l18.75 37.5-41.25-7.5"/><path d="M344.179688 395.078125l81.601562 57.34375"/><path d="M405.898438 415.546875l19.882812 36.875-41.445312-6.210937"/><path d="M346.757812 526.40625l76.484376 49.6875"/><path d="M402.03125 539.960938l21.210938 36.132812-41.640626-4.6875"/><path d="M349.296875 657.734375l71.40625 42.070313"/><path d="M397.890625 664.609375l22.8125 35.195313-41.835937-2.890626"/><path d="M351.835938 789.023438l66.328124 34.453124"/><path d="M393.515625 789.53125l24.648437 33.945312-41.953124-.664062"/><path d="M354.414062 920.351562l61.171876 26.796876"/><path d="M388.75 914.921875l26.835938 32.226563-41.875 2.148437"/><path d="M356.953125 1051.679688l56.09375 19.140624"/><path d="M383.59375 1040.976562l29.453125 29.84375-41.523437 5.625"/><path d="M359.492188 1183.007812l51.015624 11.484376"/><path d="M378.007812 1167.96875l32.5 26.523438-40.703124 10.039062"/><path d="M362.03125 1314.335938l45.898438 3.828124"/><path d="M372.148438 1296.367188l35.78125 21.796874-38.90625 15.546876"/><path d="M364.609375 1445.664062l40.78125-3.828124"/><path d="M366.328125 1426.679688l39.0625 15.15625-35.585937 22.1875"/><path d="M367.148438 1576.992188l35.703124-11.484376"/><path d="M361.40625 1559.140625l41.445312 6.367187-29.960937 29.335938"/><path d="M369.6875 1708.320312l30.625-19.140624"/><path d="M358.554688 1693.164062l41.757812-3.984374-21.875 35.78125"/><path d="M372.265625 1839.648438l25.46875-26.796876"/><path d="M358.320312 1827.109375l39.414063-14.257813-12.265625 40.117188"/><path d="M374.804688 1970.976562l20.390624-34.453124"/><path d="M359.960938 1959.257812l35.234374-22.734374-2.96875 41.835937"/><path d="M377.34375 2102.304688l15.3125-42.109376"/><path d="M362.226562 2089.0625l30.429688-28.867188 4.804688 41.679688"/><path d="M379.882812 2233.59375l10.234376-49.6875"/><path d="M364.179688 2216.875l25.9375-32.96875L400.9375 2224.375"/><path d="M382.460938 2364.921875l5.078124-57.34375"/><path d="M365.546875 2343.242188l21.992187-35.664063 15.351563 38.984375"/><path d="M385 2496.289062V2431.25"/><path d="M366.25 2468.75l18.75-37.5 18.75 37.5"/><path d="M387.539062 2627.578125l-5.078124-72.65625"/><path d="M366.367188 2593.632812l16.09375-38.710937 21.328124 36.09375"/><path d="M511.640625 132.421875l86.71875 72.65625"/><path d="M581.640625 166.640625l16.71875 38.4375-40.78125-9.726563"/><path d="M514.179688 263.75l81.601562 65"/><path d="M578.164062 290.742188 595.78125 328.75l-41.015625-8.671875"/><path d="M516.757812 395.078125l76.484376 57.34375"/><path d="M574.492188 414.921875l18.75 37.5-41.25-7.5"/><path d="M519.296875 526.40625l71.40625 49.6875"/><path d="M570.625 539.296875l20.078125 36.796875-41.484375-6.015625"/><path d="M521.835938 657.734375l66.328124 42.070313"/><path d="M566.523438 663.867188l21.640624 35.9375-41.71875-4.296876"/><path d="M524.414062 789.023438l61.171876 34.453124"/><path d="M562.109375 788.75l23.476563 34.726562-41.875-2.070312"/><path d="M526.953125 920.351562l56.09375 26.796876"/><path d="M557.265625 914.0625l25.78125 33.085938-41.914063.742187"/><path d="M529.492188 1051.679688l51.015624 19.140624"/><path d="M551.953125 1040.078125l28.554687 30.742187-41.71875 4.375"/><path d="M532.03125 1183.007812l45.898438 11.484376"/><path d="M546.132812 1167.1875l31.796876 27.304688-40.898438 9.101562"/><path d="M534.609375 1314.335938l40.78125 3.828124"/><path d="M539.804688 1296.015625l35.585937 22.148437-39.0625 15.15625"/><path d="M537.148438 1445.664062l35.703124-3.828124"/><path d="M533.554688 1427.1875l39.296874 14.648438-35.273437 22.65625"/><path d="M539.6875 1576.992188l30.625-11.484376"/><path d="M528.59375 1561.132812l41.71875 4.375L541.757812 1596.25"/><path d="M542.226562 1708.320312l25.507813-19.140624"/><path d="M526.484375 1696.679688l41.25-7.5-18.75 37.5"/><path d="M544.804688 1839.648438l20.390624-26.796876"/><path d="M527.539062 1831.328125l37.65625-18.476563-7.8125 41.210938"/><path d="M547.34375 1970.976562l15.3125-34.453124"/><path d="M530.273438 1963.203125l32.382812-26.679687 1.914062 41.914062"/><path d="M549.882812 2102.304688l10.234376-42.109376"/><path d="M533.046875 2092.226562l27.070313-32.03125 9.375 40.898438"/><path d="M552.460938 2233.59375l5.078124-49.6875"/><path d="M535.078125 2219.296875l22.460937-35.390625 14.84375 39.21875"/><path d="M555 2364.921875v-57.34375"/><path d="M536.25 2345.078125l18.75-37.5 18.75 37.5"/><path d="M557.539062 2496.289062 552.460938 2431.25"/><path d="M536.679688 2470.078125l15.78125-38.828125 21.601562 35.898438"/><path d="M560.117188 2627.578125l-10.234376-72.65625"/><path d="M536.5625 2594.648438l13.320312-39.726563 23.789063 34.53125"/><path d="M684.179688 132.421875l81.601562 72.65625"/><path d="M750.273438 166.132812l15.507812 38.945313-40.46875-10.9375"/><path d="M686.757812 263.75l76.484376 65"/><path d="M746.796875 290.195312 763.242188 328.75l-40.703126-10"/><path d="M689.296875 395.078125l71.40625 57.34375"/><path d="M743.203125 414.335938l17.5 38.085937-40.976563-8.867187"/><path d="M691.835938 526.40625l66.328124 49.6875"/><path d="M739.414062 538.59375l18.75 37.5-41.25-7.5"/><path d="M694.414062 657.734375l61.171876 42.070313"/><path d="M735.3125 663.085938l20.273438 36.71875-41.523438-5.820313"/><path d="M696.953125 789.023438l56.09375 34.453124"/><path d="M730.898438 787.851562l22.148437 35.625-41.757813-3.632812"/><path d="M699.492188 920.351562l51.015624 26.796876"/><path d="M726.015625 913.125l24.492187 34.023438-41.914062-.820313"/><path d="M702.03125 1051.679688l45.898438 19.140624"/><path d="M720.546875 1039.0625l27.382813 31.757812-41.796876 2.890626"/><path d="M704.609375 1183.007812l40.78125 11.484376"/><path d="M714.375 1166.289062l31.015625 28.203126-41.171875 7.890624"/><path d="M707.148438 1314.335938l35.703124 3.828124"/><path d="M707.578125 1295.546875l35.273437 22.617187-39.296874 14.648438"/><path d="M709.6875 1445.664062l30.625-3.828124"/><path d="M700.78125 1427.890625l39.53125 13.945313-34.921875 23.28125"/><path d="M712.265625 1576.992188l25.46875-11.484376"/><path d="M695.859375 1563.789062l41.875 1.71875-26.484375 32.5"/><path d="M714.804688 1708.320312l20.390624-19.140624"/><path d="M695 1701.171875l40.195312-11.992187-14.53125 39.335937"/><path d="M717.34375 1839.648438l15.3125-26.796876"/><path d="M697.773438 1836.132812l34.882812-23.28125-2.34375 41.875"/><path d="M719.882812 1970.976562l10.234376-34.453124"/><path d="M701.484375 1967.1875l28.632813-30.664062 7.304687 41.289062"/><path d="M722.460938 2102.304688l5.078124-42.109376"/><path d="M704.414062 2095.195312l23.125-35 14.101563 39.492188"/><path d="M725 2233.59375v-49.6875"/><path d="M706.25 2221.40625l18.75-37.5 18.75 37.5"/><path d="M727.539062 2364.921875l-5.078124-57.34375"/><path d="M707.109375 2346.5625l15.351563-38.984375 21.992187 35.664063"/><path d="M730.117188 2496.289062 719.882812 2431.25"/><path d="M707.1875 2471.171875 719.882812 2431.25l24.335938 34.140625"/><path d="M732.65625 2627.578125l-15.3125-72.65625"/><path d="M706.71875 2595.46875l10.625-40.546875 26.09375 32.8125"/><path d="M856.757812 132.421875l76.484376 72.65625"/><path d="M918.984375 165.664062l14.257813 39.414063-40.078126-12.226563"/><path d="M859.296875 263.75l71.40625 65"/><path d="M915.585938 289.648438 930.703125 328.75l-40.351563-11.367188"/><path d="M861.835938 395.078125l66.328124 57.34375"/><path d="M912.070312 413.710938l16.09375 38.710937-40.625-10.351563"/><path d="M864.414062 526.40625l61.171876 49.6875"/><path d="M908.320312 537.929688l17.265626 38.164062-40.898438-9.0625"/><path d="M866.953125 657.734375l56.09375 42.070313"/><path d="M904.296875 662.304688l18.75 37.5-41.25-7.5"/><path d="M869.492188 789.023438l51.015624 34.453124"/><path d="M899.882812 786.953125l20.625 36.523437-41.601562-5.46875"/><path d="M872.03125 920.351562l45.898438 26.796876"/><path d="M895 912.03125l22.929688 35.117188-41.835938-2.695313"/><path d="M874.609375 1051.679688l40.78125 19.140624"/><path d="M889.414062 1037.929688l25.976563 32.890624-41.914063 1.054688"/><path d="M877.148438 1183.007812l35.703124 11.484376"/><path d="M882.890625 1165.15625l29.960937 29.335938-41.445312 6.367187"/><path d="M879.6875 1314.335938l30.625 3.828124"/><path d="M875.390625 1294.921875l34.921875 23.242187-39.53125 13.945313"/><path d="M882.265625 1445.664062l25.46875-3.828124"/><path d="M867.890625 1428.867188l39.84375 12.96875L873.4375 1465.9375"/><path d="M884.804688 1576.992188l20.390624-11.484376"/><path d="M863.320312 1567.578125l41.875-2.070313-23.476562 34.726563"/><path d="M887.34375 1708.320312l15.3125-19.140624"/><path d="M864.570312 1706.757812l38.085938-17.578124-8.789062 41.015624"/><path d="M889.882812 1839.648438l10.234376-26.796876"/><path d="M869.21875 1841.210938l30.898438-28.359376 4.140624 41.71875"/><path d="M892.460938 1970.976562l5.078124-34.453124"/><path d="M873.515625 1970.898438l24.023437-34.375 13.046876 39.84375"/><path d="M895 2102.304688v-42.109376"/><path d="M876.25 2097.695312l18.75-37.5 18.75 37.5"/><path d="M897.539062 2233.59375l-5.078124-49.6875"/><path d="M877.617188 2223.125l14.84375-39.21875 22.460937 35.390625"/><path d="M900.117188 2364.921875l-10.234376-57.34375"/><path d="M878.007812 2347.773438l11.875-40.195313 25.039063 33.632813"/><path d="M902.65625 2496.289062 887.34375 2431.25"/><path d="M877.695312 2472.03125l9.648438-40.78125 26.835938 32.1875"/><path d="M905.195312 2627.578125l-20.390624-72.65625"/><path d="M876.875 2596.09375l7.929688-41.171875 28.164062 31.015625"/><path d="M1029.296875 132.421875l71.40625 72.65625"/><path d="M1087.773438 165.195312l12.929687 39.882813-39.648437-13.59375"/><path d="M1031.835938 263.75l66.328124 65"/><path d="M1084.492188 289.101562 1098.164062 328.75l-39.921874-12.851562"/><path d="M1034.414062 395.078125l61.171876 57.34375"/><path d="M1081.054688 413.125l14.53125 39.296875-40.15625-11.953125"/><path d="M1036.953125 526.40625l56.09375 49.6875"/><path d="M1077.421875 537.1875l15.625 38.90625-40.507813-10.820312"/><path d="M1039.492188 657.734375l51.015624 42.070313"/><path d="M1073.515625 661.484375l16.992187 38.320313-40.859374-9.414063"/><path d="M1042.03125 789.023438l45.9375 34.453124"/><path d="M1069.21875 785.976562l18.75 37.5-41.25-7.5"/><path d="M1044.609375 920.351562l40.78125 26.796876"/><path d="M1064.335938 910.898438l21.054687 36.25-41.640625-4.921876"/><path d="M1047.148438 1051.679688l35.703124 19.140624"/><path d="M1058.632812 1036.5625l24.21875 34.257812-41.914062-1.171874"/><path d="M1049.6875 1183.007812l30.625 11.484376"/><path d="M1051.757812 1163.789062l28.554688 30.703126-41.71875 4.375"/><path d="M1052.265625 1314.335938l25.46875 3.828124"/><path d="M1043.4375 1294.0625l34.296875 24.101562-39.84375 12.96875"/><path d="M1054.804688 1445.664062l20.390624-3.828124"/><path d="M1034.882812 1430.3125l40.3125 11.523438-33.398437 25.351562"/><path d="M1057.34375 1576.992188l15.3125-11.484376"/><path d="M1031.40625 1573.007812l41.25-7.5-18.75 37.5"/><path d="M1059.882812 1708.320312l10.234376-19.140624"/><path d="M1035.898438 1713.4375l34.21875-24.257812-1.132813 41.914062"/><path d="M1062.460938 1839.648438l5.078124-26.796876"/><path d="M1042.109375 1846.210938l25.429687-33.359376 11.40625 40.351563"/><path d="M1065 1970.976562v-34.453124"/><path d="M1046.25 1974.023438l18.75-37.5 18.75 37.5"/><path d="M1067.539062 2102.304688l-5.078124-42.109376"/><path d="M1048.359375 2099.6875l14.101563-39.492188 23.125 35"/><path d="M1070.117188 2233.59375l-10.234376-49.6875"/><path d="M1049.0625 2224.375l10.820312-40.46875 25.898438 32.96875"/><path d="M1072.65625 2364.921875l-15.3125-57.34375"/><path d="M1048.90625 2348.632812l8.4375-41.054687 27.773438 31.40625"/><path d="M1075.195312 2496.289062 1054.804688 2431.25"/><path d="M1048.125 2472.617188l6.679688-41.367188 29.101562 30.15625"/><path d="M1077.734375 2627.578125l-25.46875-72.65625"/><path d="M1046.953125 2596.523438l5.3125-41.601563 30.078125 29.179687"/><path d="M1201.835938 132.421875l66.328124 72.65625"/><path d="M1256.71875 164.765625l11.445312 40.3125-39.140624-15.039063"/><path d="M1204.414062 263.75l61.171876 65"/><path d="M1253.554688 288.59375l12.03125 40.15625L1226.25 314.296875"/><path d="M1206.953125 395.078125l56.09375 57.34375"/><path d="M1250.234375 412.539062l12.8125 39.882813L1223.4375 438.75"/><path d="M1209.492188 526.40625l51.015624 49.6875"/><path d="M1246.71875 536.523438l13.789062 39.570312-39.960937-12.734375"/><path d="M1212.03125 657.734375l45.9375 42.070313"/><path d="M1242.96875 660.625l15 39.179688-40.3125-11.523438"/><path d="M1214.609375 789.023438l40.78125 34.453124"/><path d="M1238.828125 784.960938l16.5625 38.515624-40.742187-9.882812"/><path d="M1217.148438 920.351562l35.703124 26.796876"/><path d="M1234.101562 909.648438l18.75 37.5-41.25-7.5"/><path d="M1219.6875 1051.679688l30.625 19.140624"/><path d="M1228.4375 1035.039062l21.875 35.78125-41.757812-3.984374"/><path d="M1222.265625 1183.007812l25.46875 11.484376"/><path d="M1221.25 1161.992188l26.484375 32.5-41.875 1.71875"/><path d="M1224.804688 1314.335938l20.390624 3.828124"/><path d="M1211.796875 1292.8125l33.398437 25.351562-40.3125 11.523438"/><path d="M1227.34375 1445.664062l15.3125-3.828124"/><path d="M1201.71875 1432.734375l40.9375 9.101563-31.835938 27.265624"/><path d="M1229.882812 1576.992188l10.234376-11.484376"/><path d="M1201.171875 1581.09375l38.945313-15.585938-10.898438 40.507813"/><path d="M1232.460938 1708.320312l5.078124-19.140624"/><path d="M1209.765625 1720.585938l27.773437-31.40625 8.476563 41.054687"/><path d="M1235 1839.648438v-26.796876"/><path d="M1216.25 1850.351562l18.75-37.5 18.75 37.5"/><path d="M1237.539062 1970.976562l-5.078124-34.453124"/><path d="M1219.414062 1976.367188l13.046876-39.84375 24.023437 34.375"/><path d="M1240.117188 2102.304688l-10.234376-42.109376"/><path d="M1220.507812 2101.09375l9.375-40.898438 27.070313 32.03125"/><path d="M1242.65625 2233.59375l-15.3125-49.6875"/><path d="M1220.46875 2225.234375l6.875-41.328125 28.945312 30.3125"/><path d="M1245.195312 2364.921875l-20.390624-57.34375"/><path d="M1219.6875 2349.179688l5.117188-41.601563 30.234374 29.023437"/><path d="M1247.734375 2496.289062l-25.46875-65.039062"/><path d="M1218.476562 2473.007812l3.789063-41.757812 31.132813 28.046875"/><path d="M1250.3125 2627.578125l-30.625-72.65625"/><path d="M1216.953125 2596.757812l2.734375-41.835937 31.835938 27.265625"/><path d="M1374.414062 132.421875l61.171876 72.65625"/><path d="M1425.78125 164.335938l9.804688 40.742187-38.476563-16.601563"/><path d="M1376.953125 263.75l56.09375 65"/><path d="M1422.734375 288.125l10.3125 40.625-38.671875-16.132812"/><path d="M1379.492188 395.078125l51.015624 57.34375"/><path d="M1419.609375 411.953125l10.898437 40.46875L1391.5625 436.875"/><path d="M1382.03125 526.40625l45.9375 49.6875"/><path d="M1416.289062 535.859375l11.679688 40.234375-39.257812-14.804688"/><path d="M1384.609375 657.734375l40.78125 42.070313"/><path d="M1412.734375 659.804688l12.65625 40-39.570313-13.867188"/><path d="M1387.148438 789.023438l35.703124 34.453124"/><path d="M1408.867188 783.945312l13.984374 39.53125-40-12.539062"/><path d="M1389.6875 920.351562l30.625 26.796876"/><path d="M1404.414062 908.320312l15.898438 38.828126-40.585938-10.585938"/><path d="M1392.265625 1051.679688l25.46875 19.140624"/><path d="M1398.984375 1033.320312l18.75 37.5-41.25-7.5"/><path d="M1394.804688 1183.007812l20.390624 11.484376"/><path d="M1391.71875 1159.765625l23.476562 34.726563-41.875-2.03125"/><path d="M1397.34375 1314.335938l15.3125 3.828124"/><path d="M1380.820312 1290.898438l31.835938 27.265624-40.9375 9.101563"/><path d="M1399.882812 1445.664062l10.234376-3.828124"/><path d="M1368.398438 1437.460938l41.71875 4.375-28.554688 30.742187"/><path d="M1402.460938 1576.992188l5.078124-11.484376"/><path d="M1375.195312 1592.148438l32.34375-26.640626 1.914063 41.875"/><path d="M1405 1708.320312v-19.140624"/><path d="M1386.25 1726.679688l18.75-37.5 18.75 37.5"/><path d="M1407.539062 1839.648438l-5.078124-26.796876"/><path d="M1391.054688 1853.203125l11.40625-40.351563 25.429687 33.359376"/><path d="M1410.117188 1970.976562l-10.234376-34.453124"/><path d="M1392.578125 1977.8125l7.304687-41.289062 28.632813 30.664062"/><path d="M1412.65625 2102.304688l-15.3125-42.109376"/><path d="M1392.539062 2101.875l4.804688-41.679688 30.429688 28.867188"/><path d="M1415.195312 2233.59375l-20.390624-49.6875"/><path d="M1391.679688 2225.703125l3.125-41.796875 31.5625 27.539062"/><path d="M1417.734375 2364.921875l-25.46875-57.34375"/><path d="M1390.351562 2349.453125l1.914063-41.875 32.34375 26.640625"/><path d="M1420.3125 2496.289062l-30.625-65.039062"/><path d="M1388.710938 2473.164062l.976562-41.914062 32.929688 25.9375"/><path d="M1422.851562 2627.578125l-35.703124-72.65625"/><path d="M1386.875 2596.835938l.273438-41.914063 33.359374 25.390625"/><path d="M1546.953125 132.421875l56.09375 72.65625"/><path d="M1594.960938 163.945312l8.085937 41.132813-37.773437-18.203125"/><path d="M1549.492188 263.75l51.015624 65"/><path d="M1592.109375 287.695312l8.398437 41.054688-37.890624-17.929688"/><path d="M1552.03125 395.078125l45.9375 57.34375"/><path d="M1589.140625 411.445312l8.828125 40.976563-38.085938-17.539063"/><path d="M1554.609375 526.40625l40.78125 49.6875"/><path d="M1586.09375 535.234375l9.296875 40.859375-38.28125-17.070312"/><path d="M1557.148438 657.734375l35.703124 42.070313"/><path d="M1582.890625 659.0625l9.960937 40.742188-38.554687-16.484376"/><path d="M1559.6875 789.023438l30.625 34.453124"/><path d="M1579.414062 782.96875l10.898438 40.507812-38.945312-15.585937"/><path d="M1562.265625 920.351562l25.46875 26.796876"/><path d="M1575.46875 907.070312l12.265625 40.078126-39.414063-14.21875"/><path d="M1564.804688 1051.679688l20.390624 19.140624"/><path d="M1570.664062 1031.484375l14.53125 39.335937-40.15625-11.992187"/><path d="M1567.34375 1183.007812l15.3125 11.484376"/><path d="M1563.90625 1156.992188l18.75 37.5-41.25-7.5"/><path d="M1569.882812 1314.335938l10.234376 3.828124"/><path d="M1551.5625 1287.421875l28.554688 30.742187-41.71875 4.375"/><path d="M1572.460938 1445.664062l5.078124-3.828124"/><path d="M1536.289062 1449.335938l41.25-7.5-18.75 37.5"/><path d="M1575 1576.992188v-11.484376"/><path d="M1556.25 1603.007812l18.75-37.5 18.75 37.5"/><path d="M1577.539062 1708.320312l-5.078124-19.140624"/><path d="M1563.984375 1730.234375l8.476563-41.054687 27.773437 31.40625"/><path d="M1580.117188 1839.648438l-10.234376-26.796876"/><path d="M1565.742188 1854.570312l4.140624-41.71875 30.898438 28.359376"/><path d="M1582.65625 1970.976562l-15.3125-34.453124"/><path d="M1565.429688 1978.4375l1.914062-41.914062 32.382812 26.679687"/><path d="M1585.195312 2102.304688l-20.390624-42.109376"/><path d="M1564.296875 2102.148438l.507813-41.953126 33.242187 25.585938"/><path d="M1587.734375 2233.59375l-25.46875-49.6875"/><path d="M1562.65625 2225.820312l-.390625-41.914062 33.789063 24.804688"/><path d="M1590.3125 2364.921875l-30.625-57.34375"/><path d="M1560.78125 2349.492188l-1.09375-41.914063 34.21875 24.257813"/><path d="M1592.851562 2496.289062 1557.148438 2431.25"/><path d="M1558.75 2473.125l-1.601562-41.875 34.492187 23.828125"/><path d="M1595.390625 2627.578125l-40.78125-72.65625"/><path d="M1556.601562 2596.796875l-1.992187-41.875 34.6875 23.515625"/><path d="M1719.492188 132.421875l51.015624 72.65625"/><path d="M1764.296875 163.632812l6.210937 41.445313-36.914062-19.921875"/><path d="M1722.03125 263.75l45.9375 65"/><path d="M1761.640625 287.304688 1767.96875 328.75l-36.953125-19.804688"/><path d="M1724.609375 395.078125l40.78125 57.34375"/><path d="M1758.945312 411.015625l6.445313 41.40625-36.992187-19.6875"/><path d="M1727.148438 526.40625l35.703124 49.6875"/><path d="M1756.210938 534.726562l6.640624 41.367188-37.109374-19.492188"/><path d="M1729.6875 657.734375l30.625 42.070313"/><path d="M1753.398438 658.4375l6.914062 41.367188-37.226562-19.335938"/><path d="M1732.265625 789.023438l25.46875 34.453124"/><path d="M1750.507812 782.1875l7.226563 41.289062-37.382813-18.984374"/><path d="M1734.804688 920.351562l20.390624 26.796876"/><path d="M1747.382812 905.9375l7.8125 41.210938-37.65625-18.476563"/><path d="M1737.34375 1051.679688l15.3125 19.140624"/><path d="M1743.867188 1029.804688l8.789062 41.015624-38.085938-17.578124"/><path d="M1739.882812 1183.007812l10.234376 11.484376"/><path d="M1739.21875 1153.984375l10.898438 40.507813-38.945313-15.585938"/><path d="M1742.460938 1314.335938l5.078124 3.828124"/><path d="M1728.789062 1280.664062l18.75 37.5-41.25-7.5"/><path d="M1745 1445.664062v-3.828124"/><path d="M1726.25 1479.335938l18.75-37.5 18.75 37.5"/><path d="M1747.539062 1576.992188l-5.078124-11.484376"/><path d="M1740.546875 1607.382812l1.914063-41.875 32.34375 26.640626"/><path d="M1750.117188 1708.320312l-10.234376-19.140624"/><path d="M1741.015625 1731.09375l-1.132813-41.914062 34.21875 24.257812"/><path d="M1752.65625 1839.648438l-15.3125-26.796876"/><path d="M1739.6875 1854.726562l-2.34375-41.875 34.882812 23.28125"/><path d="M1755.195312 1970.976562l-20.390624-34.453124"/><path d="M1737.773438 1978.359375l-2.96875-41.835937 35.234374 22.734374"/><path d="M1757.734375 2102.304688l-25.46875-42.109376"/><path d="M1735.664062 2101.992188l-3.398437-41.796876 35.46875 22.382813"/><path d="M1760.3125 2233.59375l-30.625-49.6875"/><path d="M1733.398438 2225.664062l-3.710938-41.757812 35.625 22.109375"/><path d="M1762.851562 2364.921875l-35.703124-57.34375"/><path d="M1731.054688 2349.296875l-3.90625-41.71875 35.742187 21.914063"/><path d="M1765.390625 2496.289062l-40.78125-65.039062"/><path d="M1728.632812 2472.96875l-4.023437-41.71875 35.78125 21.796875"/><path d="M1767.96875 2627.578125l-45.9375-72.65625"/><path d="M1726.210938 2596.640625l-4.179688-41.71875 35.898438 21.679687"/><path d="M1892.03125 132.421875l45.9375 72.65625"/><path d="M1933.789062 163.359375l4.179688 41.71875-35.898438-21.679687"/><path d="M1894.609375 263.75l40.78125 65"/><path d="M1931.367188 287.03125l4.023437 41.71875-35.78125-21.796875"/><path d="M1897.148438 395.078125l35.703124 57.34375"/><path d="M1928.945312 410.703125l3.90625 41.71875-35.742187-21.914063"/><path d="M1899.6875 526.40625l30.625 49.6875"/><path d="M1926.601562 534.335938l3.710938 41.757812-35.625-22.109375"/><path d="M1902.265625 657.734375l25.46875 42.070313"/><path d="M1924.335938 658.007812l3.398437 41.796876-35.46875-22.382813"/><path d="M1904.804688 789.023438l20.390624 34.453124"/><path d="M1922.226562 781.640625l2.96875 41.835937-35.234374-22.695312"/><path d="M1907.34375 920.351562l15.3125 26.796876"/><path d="M1920.3125 905.273438l2.34375 41.875-34.882812-23.28125"/><path d="M1909.882812 1051.679688l10.234376 19.140624"/><path d="M1918.984375 1028.90625l1.132813 41.914062-34.21875-24.257812"/><path d="M1912.460938 1183.007812l5.078124 11.484376"/><path d="M1919.453125 1152.617188l-1.914063 41.875-32.34375-26.640626"/><path d="M1915 1314.335938v3.828124"/><path d="M1933.75 1280.664062l-18.75 37.5-18.75-37.5"/><path d="M1917.539062 1445.664062l-5.078124-3.828124"/><path d="M1931.210938 1479.335938l-18.75-37.5 41.25 7.5"/><path d="M1920.117188 1576.992188l-10.234376-11.484376"/><path d="M1920.78125 1606.015625l-10.898438-40.507813 38.945313 15.585938"/><path d="M1922.65625 1708.320312l-15.3125-19.140624"/><path d="M1916.132812 1730.195312l-8.789062-41.015624 38.085938 17.578124"/><path d="M1925.195312 1839.648438l-20.390624-26.796876"/><path d="M1912.617188 1854.0625l-7.8125-41.210938 37.617187 18.476563"/><path d="M1927.734375 1970.976562l-25.46875-34.453124"/><path d="M1909.492188 1977.8125l-7.226563-41.289062 37.382813 18.984374"/><path d="M1930.3125 2102.304688l-30.625-42.109376"/><path d="M1906.601562 2101.5625l-6.914062-41.367188 37.226562 19.335938"/><path d="M1932.851562 2233.59375l-35.703124-49.6875"/><path d="M1903.789062 2225.273438l-6.640624-41.367188 37.109374 19.492188"/><path d="M1935.390625 2364.921875l-40.78125-57.34375"/><path d="M1901.054688 2348.984375l-6.445313-41.40625 36.992187 19.6875"/><path d="M1937.96875 2496.289062l-45.9375-65.039062"/><path d="M1898.359375 2472.695312 1892.03125 2431.25l36.953125 19.804688"/><path d="M1940.507812 2627.578125l-51.015624-72.65625"/><path d="M1895.703125 2596.367188l-6.210937-41.445313 36.914062 19.921875"/><path d="M2064.609375 132.421875l40.78125 72.65625"/><path d="M2103.398438 163.203125l1.992187 41.875-34.6875-23.515625"/><path d="M2067.148438 263.75l35.703124 65"/><path d="M2101.210938 286.875l1.640624 41.875-34.492187-23.828125"/><path d="M2069.6875 395.078125l30.625 57.34375"/><path d="M2099.21875 410.507812l1.09375 41.914063-34.21875-24.257813"/><path d="M2072.265625 526.40625l25.46875 49.6875"/><path d="M2097.304688 534.179688l.429687 41.914062-33.789063-24.804688"/><path d="M2074.804688 657.734375l20.390624 42.070313"/><path d="M2095.703125 657.851562l-.507813 41.953126-33.242187-25.585938"/><path d="M2077.34375 789.023438l15.3125 34.453124"/><path d="M2094.53125 781.5625l-1.875 41.914062-32.382812-26.679687"/><path d="M2079.882812 920.351562l10.234376 26.796876"/><path d="M2094.257812 905.429688l-4.140624 41.71875-30.898438-28.359376"/><path d="M2082.460938 1051.679688l5.078124 19.140624"/><path d="M2096.015625 1029.765625l-8.476563 41.054687-27.773437-31.40625"/><path d="M2085 1183.007812v11.484376"/><path d="M2103.75 1156.992188l-18.75 37.5-18.75-37.5"/><path d="M2087.539062 1314.335938l-5.078124 3.828124"/><path d="M2123.710938 1310.664062l-41.25 7.5 18.75-37.5"/><path d="M2090.117188 1445.664062l-10.234376-3.828124"/><path d="M2108.4375 1472.578125l-28.554688-30.742187 41.71875-4.375"/><path d="M2092.65625 1576.992188l-15.3125-11.484376"/><path d="M2096.09375 1603.007812l-18.75-37.5 41.25 7.5"/><path d="M2095.195312 1708.320312l-20.390624-19.140624"/><path d="M2089.335938 1728.515625l-14.53125-39.335937 40.15625 11.992187"/><path d="M2097.734375 1839.648438l-25.46875-26.796876"/><path d="M2084.53125 1852.96875l-12.265625-40.117188 39.414063 14.257813"/><path d="M2100.3125 1970.976562l-30.625-34.453124"/><path d="M2080.585938 1977.03125l-10.898438-40.507812 38.945312 15.585937"/><path d="M2102.851562 2102.304688l-35.703124-42.109376"/><path d="M2077.109375 2100.9375l-9.960937-40.742188 38.554687 16.484376"/><path d="M2105.390625 2233.59375l-40.78125-49.6875"/><path d="M2073.90625 2224.765625l-9.296875-40.859375 38.28125 17.070312"/><path d="M2107.96875 2364.921875l-45.9375-57.34375"/><path d="M2070.859375 2348.554688l-8.828125-40.976563 38.085938 17.539063"/><path d="M2110.507812 2496.289062 2059.492188 2431.25"/><path d="M2067.890625 2472.304688l-8.398437-41.054688 37.890624 17.929688"/><path d="M2113.046875 2627.578125l-56.09375-72.65625"/><path d="M2065.039062 2596.054688l-8.085937-41.132813L2094.6875 2573.125"/><path d="M2237.148438 132.421875l35.703124 72.65625"/><path d="M2273.125 163.164062l-.273438 41.914063-33.359374-25.390625"/><path d="M2239.6875 263.75l30.625 65"/><path d="M2271.289062 286.835938 2270.3125 328.75l-32.929688-25.9375"/><path d="M2242.265625 395.078125l25.46875 57.34375"/><path d="M2269.648438 410.546875l-1.914063 41.875-32.34375-26.640625"/><path d="M2244.804688 526.40625l20.390624 49.6875"/><path d="M2268.320312 534.296875l-3.125 41.796875-31.5625-27.539062"/><path d="M2247.34375 657.734375l15.3125 42.070313"/><path d="M2267.460938 658.125l-4.804688 41.679688-30.429688-28.867188"/><path d="M2249.882812 789.023438l10.234376 34.453124"/><path d="M2267.421875 782.1875l-7.304687 41.289062-28.671876-30.664062"/><path d="M2252.460938 920.351562l5.078124 26.796876"/><path d="M2268.945312 906.796875l-11.40625 40.351563-25.429687-33.320313"/><path d="M2255 1051.679688v19.140624"/><path d="M2273.75 1033.320312l-18.75 37.5-18.75-37.5"/><path d="M2257.539062 1183.007812l-5.078124 11.484376"/><path d="M2284.804688 1167.851562l-32.34375 26.640626-1.914063-41.875"/><path d="M2260.117188 1314.335938l-10.234376 3.828124"/><path d="M2291.601562 1322.539062l-41.71875-4.375 28.554688-30.742187"/><path d="M2262.65625 1445.664062l-15.3125-3.828124"/><path d="M2279.179688 1469.101562l-31.835938-27.265624 40.9375-9.101563"/><path d="M2265.195312 1576.992188l-20.390624-11.484376"/><path d="M2268.28125 1600.234375l-23.476562-34.726563 41.875 2.070313"/><path d="M2267.734375 1708.320312l-25.46875-19.140624"/><path d="M2261.015625 1726.679688l-18.75-37.5 41.25 7.5"/><path d="M2270.3125 1839.648438l-30.625-26.796876"/><path d="M2255.585938 1851.679688l-15.898438-38.828126 40.585938 10.585938"/><path d="M2272.851562 1970.976562l-35.703124-34.453124"/><path d="M2251.132812 1976.054688l-13.984374-39.53125 40 12.539062"/><path d="M2275.390625 2102.304688l-40.78125-42.109376"/><path d="M2247.226562 2100.195312l-12.617187-40 39.570313 13.867188"/><path d="M2277.96875 2233.59375l-45.9375-49.6875"/><path d="M2243.710938 2224.140625l-11.679688-40.234375 39.21875 14.804688"/><path d="M2280.507812 2364.921875l-51.015624-57.34375"/><path d="M2240.390625 2348.046875l-10.898437-40.46875L2268.4375 2323.125"/><path d="M2283.046875 2496.289062l-56.09375-65.039062"/><path d="M2237.265625 2471.875l-10.3125-40.625 38.671875 16.132812"/><path d="M2285.585938 2627.578125l-61.171876-72.65625"/><path d="M2234.21875 2595.664062l-9.804688-40.742187 38.476563 16.601563"/><path d="M2409.6875 132.421875l30.625 72.65625"/><path d="M2443.046875 163.242188l-2.734375 41.835937-31.835938-27.265625"/><path d="M2412.265625 263.75l25.46875 65"/><path d="M2441.523438 286.992188 2437.734375 328.75l-31.132813-28.046875"/><path d="M2414.804688 395.078125l20.390624 57.34375"/><path d="M2440.3125 410.820312l-5.117188 41.601563-30.234374-29.023437"/><path d="M2417.34375 526.40625l15.3125 49.6875"/><path d="M2439.53125 534.765625l-6.875 41.328125-28.945312-30.3125"/><path d="M2419.882812 657.734375l10.234376 42.070313"/><path d="M2439.492188 658.945312l-9.375 40.859376-27.070313-32.03125"/><path d="M2422.460938 789.023438l5.078124 34.453124"/><path d="M2440.585938 783.632812l-13.046876 39.84375-24.023437-34.375"/><path d="M2425 920.351562v26.796876"/><path d="M2443.75 909.648438l-18.75 37.5-18.75-37.5"/><path d="M2427.539062 1051.679688l-5.078124 19.140624"/><path d="M2450.234375 1039.414062l-27.773437 31.40625-8.476563-41.054687"/><path d="M2430.117188 1183.007812l-10.234376 11.484376"/><path d="M2458.828125 1178.90625l-38.945313 15.585938 10.898438-40.507813"/><path d="M2432.65625 1314.335938l-15.3125 3.828124"/><path d="M2458.28125 1327.265625l-40.9375-9.101563 31.835938-27.265624"/><path d="M2435.195312 1445.664062l-20.390624-3.828124"/><path d="M2448.203125 1467.1875l-33.398437-25.351562 40.3125-11.523438"/><path d="M2437.734375 1576.992188l-25.46875-11.484376"/><path d="M2438.75 1598.007812l-26.484375-32.5 41.875-1.71875"/><path d="M2440.3125 1708.320312l-30.625-19.140624"/><path d="M2431.5625 1724.960938l-21.875-35.78125 41.757812 3.984374"/><path d="M2442.851562 1839.648438l-35.703124-26.796876"/><path d="M2425.898438 1850.351562l-18.75-37.5 41.25 7.5"/><path d="M2445.390625 1970.976562l-40.78125-34.453124"/><path d="M2421.171875 1975.039062l-16.5625-38.515624 40.742187 9.882812"/><path d="M2447.96875 2102.304688l-45.9375-42.109376"/><path d="M2417.03125 2099.375l-15-39.179688 40.3125 11.523438"/><path d="M2450.507812 2233.59375l-51.015624-49.6875"/><path d="M2413.242188 2223.515625l-13.75-39.609375 39.960937 12.734375"/><path d="M2453.046875 2364.921875l-56.09375-57.34375"/><path d="M2409.765625 2347.460938l-12.8125-39.882813 39.609375 13.710937"/><path d="M2455.585938 2496.289062 2394.414062 2431.25"/><path d="M2406.445312 2471.40625l-12.03125-40.15625 39.335938 14.453125"/><path d="M2458.164062 2627.578125l-66.328124-72.65625"/><path d="M2403.28125 2595.234375l-11.445312-40.3125 39.140624 15.039063"/><path d="M2582.265625 132.421875l25.46875 72.65625"/><path d="M2613.007812 163.476562l-5.273437 41.601563-30.078125-29.179687"/><path d="M2584.804688 263.75l20.390624 65"/><path d="M2611.875 287.382812 2605.195312 328.75l-29.101562-30.15625"/><path d="M2587.34375 395.078125l15.3125 57.34375"/><path d="M2611.09375 411.367188l-8.4375 41.054687-27.773438-31.367187"/><path d="M2589.882812 526.40625l10.234376 49.6875"/><path d="M2610.9375 535.625l-10.820312 40.46875-25.898438-32.929688"/><path d="M2592.460938 657.734375l5.078124 42.070313"/><path d="M2611.640625 660.3125l-14.101563 39.492188-23.125-35"/><path d="M2595 789.023438v34.453124"/><path d="M2613.75 785.976562l-18.75 37.5-18.75-37.5"/><path d="M2597.539062 920.351562l-5.078124 26.796876"/><path d="M2617.890625 913.828125l-25.429687 33.320313-11.40625-40.351563"/><path d="M2600.117188 1051.679688l-10.234376 19.140624"/><path d="M2624.101562 1046.5625l-34.21875 24.257812 1.132813-41.914062"/><path d="M2602.65625 1183.007812l-15.3125 11.484376"/><path d="M2628.59375 1186.992188l-41.25 7.5 18.75-37.5"/><path d="M2605.195312 1314.335938l-20.390624 3.828124"/><path d="M2625.117188 1329.6875l-40.3125-11.523438 33.398437-25.351562"/><path d="M2607.734375 1445.664062l-25.46875-3.828124"/><path d="M2616.5625 1465.9375l-34.296875-24.101562 39.84375-12.96875"/><path d="M2610.3125 1576.992188l-30.625-11.484376"/><path d="M2608.242188 1596.25l-28.554688-30.742188 41.71875-4.375"/><path d="M2612.851562 1708.320312l-35.703124-19.140624"/><path d="M2601.367188 1723.4375l-24.21875-34.257812 41.914062 1.171874"/><path d="M2615.390625 1839.648438l-40.78125-26.796876"/><path d="M2595.664062 1849.101562l-21.054687-36.25 41.601563 4.921876"/><path d="M2617.96875 1970.976562l-45.9375-34.453124"/><path d="M2590.78125 1974.023438l-18.75-37.5 41.25 7.5"/><path d="M2620.507812 2102.304688l-51.015624-42.109376"/><path d="M2586.484375 2098.554688l-16.992187-38.359376 40.859374 9.414063"/><path d="M2623.046875 2233.59375l-56.09375-49.6875"/><path d="M2582.578125 2222.8125l-15.625-38.90625 40.507813 10.820312"/><path d="M2625.585938 2364.921875l-61.171876-57.34375"/><path d="M2578.945312 2346.875l-14.53125-39.296875 40.15625 11.953125"/><path d="M2628.164062 2496.289062 2561.835938 2431.25"/><path d="M2575.507812 2470.898438 2561.835938 2431.25l39.921874 12.851562"/><path d="M2630.703125 2627.578125l-71.40625-72.65625"/><path d="M2572.1875 2594.804688l-12.890625-39.882813 39.648437 13.59375"/><path d="M2754.804688 132.421875l20.390624 72.65625"/><path d="M2783.125 163.90625l-7.929688 41.171875-28.203124-31.015625"/><path d="M2757.34375 263.75l15.3125 65"/><path d="M2782.304688 287.96875 2772.65625 328.75l-26.835938-32.1875"/><path d="M2759.882812 395.078125l10.234376 57.34375"/><path d="M2781.992188 412.226562l-11.875 40.195313-25.039063-33.632813"/><path d="M2762.460938 526.40625l5.078124 49.6875"/><path d="M2782.382812 536.914062l-14.84375 39.179688-22.460937-35.390625"/><path d="M2765 657.734375v42.070313"/><path d="M2783.75 662.304688l-18.75 37.5-18.75-37.5"/><path d="M2767.539062 789.023438l-5.078124 34.453124"/><path d="M2786.484375 789.101562l-24.023437 34.375-13.046876-39.84375"/><path d="M2770.117188 920.351562l-10.234376 26.796876"/><path d="M2790.78125 918.789062l-30.898438 28.359376-4.140624-41.71875"/><path d="M2772.65625 1051.679688l-15.3125 19.140624"/><path d="M2795.429688 1053.242188l-38.085938 17.578124 8.789062-41.015624"/><path d="M2775.195312 1183.007812l-20.390624 11.484376"/><path d="M2796.679688 1192.460938l-41.875 2.03125 23.476562-34.726563"/><path d="M2777.734375 1314.335938l-25.46875 3.828124"/><path d="M2792.109375 1331.132812l-39.84375-12.96875 34.296875-24.101562"/><path d="M2780.3125 1445.664062l-30.625-3.828124"/><path d="M2784.609375 1465.117188l-34.921875-23.28125 39.53125-13.945313"/><path d="M2782.851562 1576.992188l-35.703124-11.484376"/><path d="M2777.109375 1594.84375l-29.960937-29.335938 41.445312-6.367187"/><path d="M2785.390625 1708.320312l-40.78125-19.140624"/><path d="M2770.585938 1722.070312l-25.976563-32.890624 41.914063-1.054688"/><path d="M2787.96875 1839.648438l-45.9375-26.796876"/><path d="M2765 1847.96875l-22.96875-35.117188 41.875 2.734376"/><path d="M2790.507812 1970.976562l-51.015624-34.453124"/><path d="M2760.078125 1973.046875l-20.585937-36.523437 41.5625 5.46875"/><path d="M2793.046875 2102.304688l-56.09375-42.109376"/><path d="M2755.703125 2097.695312l-18.75-37.5 41.25 7.5"/><path d="M2795.585938 2233.59375l-61.171876-49.6875"/><path d="M2751.679688 2222.109375l-17.265626-38.203125 40.898438 9.0625"/><path d="M2798.164062 2364.921875l-66.328124-57.34375"/><path d="M2747.929688 2346.289062l-16.09375-38.710937 40.625 10.351563"/><path d="M2800.703125 2496.289062l-71.40625-65.039062"/><path d="M2744.414062 2470.351562 2729.296875 2431.25l40.351563 11.367188"/><path d="M2803.242188 2627.578125l-76.484376-72.65625"/><path d="M2741.015625 2594.335938l-14.257813-39.414063 40.078126 12.226563"/><path d="M2927.34375 132.421875l15.3125 72.65625"/><path d="M2953.28125 164.53125l-10.625 40.546875-26.09375-32.8125"/><path d="M2929.882812 263.75l10.234376 65"/><path d="M2952.8125 288.828125 2940.117188 328.75l-24.375-34.140625"/><path d="M2932.460938 395.078125l5.078124 57.34375"/><path d="M2952.890625 413.4375l-15.351563 38.984375-21.992187-35.664063"/><path d="M2935 526.40625v49.6875"/><path d="M2953.75 538.59375l-18.75 37.5-18.75-37.5"/><path d="M2937.539062 657.734375l-5.078124 42.070313"/><path d="M2955.585938 664.804688l-23.125 35-14.101563-39.492188"/><path d="M2940.117188 789.023438l-10.234376 34.453124"/><path d="M2958.515625 792.8125l-28.632813 30.664062-7.304687-41.289062"/><path d="M2942.65625 920.351562l-15.3125 26.796876"/><path d="M2962.226562 923.867188l-34.882812 23.28125 2.34375-41.875"/><path d="M2945.195312 1051.679688l-20.390624 19.140624"/><path d="M2964.960938 1058.828125l-40.15625 11.992187 14.53125-39.335937"/><path d="M2947.734375 1183.007812l-25.46875 11.484376"/><path d="M2964.140625 1196.210938l-41.875-1.71875 26.484375-32.5"/><path d="M2950.3125 1314.335938l-30.625 3.828124"/><path d="M2959.21875 1332.109375l-39.53125-13.945313 34.921875-23.242187"/><path d="M2952.851562 1445.664062l-35.703124-3.828124"/><path d="M2952.421875 1464.492188l-35.273437-22.65625 39.296874-14.648438"/><path d="M2955.390625 1576.992188l-40.78125-11.484376"/><path d="M2945.625 1593.710938l-31.015625-28.203126 41.171875-7.890624"/><path d="M2957.96875 1708.320312l-45.9375-19.140624"/><path d="M2939.453125 1720.9375l-27.421875-31.757812 41.835938-2.890626"/><path d="M2960.507812 1839.648438l-51.015624-26.796876"/><path d="M2933.984375 1846.875l-24.492187-34.023438 41.914062.859376"/><path d="M2963.046875 1970.976562l-56.09375-34.453124"/><path d="M2929.101562 1972.148438l-22.148437-35.625 41.757813 3.632812"/><path d="M2965.585938 2102.304688l-61.171876-42.109376"/><path d="M2924.6875 2096.914062l-20.273438-36.71875 41.523438 5.820313"/><path d="M2968.164062 2233.59375l-66.328124-49.6875"/><path d="M2920.585938 2221.40625l-18.75-37.5 41.25 7.5"/><path d="M2970.703125 2364.921875l-71.40625-57.34375"/><path d="M2916.796875 2345.664062l-17.5-38.085937 40.976563 8.867187"/><path d="M2973.242188 2496.289062 2896.757812 2431.25"/><path d="M2913.164062 2469.804688l-16.40625-38.554688 40.703126 10"/><path d="M2975.78125 2627.578125l-81.5625-72.65625"/><path d="M2909.726562 2593.867188l-15.507812-38.945313 40.46875 10.9375"/><path d="M3099.882812 132.421875l10.234376 72.65625"/><path d="M3123.4375 165.351562l-13.320312 39.726563-23.789063-34.53125"/><path d="M3102.460938 263.75l5.078124 65"/><path d="M3123.320312 289.921875 3107.539062 328.75l-21.601562-35.898438"/><path d="M3105 395.078125v57.34375"/><path d="M3123.75 414.921875l-18.75 37.5-18.75-37.5"/><path d="M3107.539062 526.40625l-5.078124 49.6875"/><path d="M3124.921875 540.703125l-22.460937 35.390625-14.84375-39.179688"/><path d="M3110.117188 657.734375l-10.234376 42.070313"/><path d="M3126.953125 667.773438l-27.070313 32.03125-9.375-40.859376"/><path d="M3112.65625 789.023438l-15.3125 34.453124"/><path d="M3129.726562 796.796875l-32.382812 26.679687-1.914062-41.914062"/><path d="M3115.195312 920.351562l-20.390624 26.796876"/><path d="M3132.421875 928.671875l-37.617187 18.476563 7.8125-41.210938"/><path d="M3117.734375 1051.679688l-25.46875 19.140624"/><path d="M3133.515625 1063.320312l-41.25 7.5 18.75-37.5"/><path d="M3120.3125 1183.007812l-30.625 11.484376"/><path d="M3131.40625 1198.867188l-41.71875-4.375 28.554688-30.703126"/><path d="M3122.851562 1314.335938l-35.703124 3.828124"/><path d="M3126.445312 1332.8125l-39.296874-14.648438 35.273437-22.617187"/><path d="M3125.390625 1445.664062l-40.78125-3.828124"/><path d="M3120.195312 1464.023438l-35.585937-22.1875 39.0625-15.15625"/><path d="M3127.96875 1576.992188l-45.9375-11.484376"/><path d="M3113.867188 1592.8125l-31.835938-27.304688 40.9375-9.101562"/><path d="M3130.507812 1708.320312l-51.015624-19.140624"/><path d="M3108.046875 1719.921875l-28.554687-30.742187 41.679687-4.375"/><path d="M3133.046875 1839.648438l-56.09375-26.796876"/><path d="M3102.734375 1845.9375l-25.78125-33.085938 41.914063-.742187"/><path d="M3135.585938 1970.976562l-61.171876-34.453124"/><path d="M3097.890625 1971.289062l-23.476563-34.765624 41.875 2.070312"/><path d="M3138.164062 2102.304688l-66.328124-42.109376"/><path d="M3093.476562 2096.132812l-21.640624-35.9375 41.71875 4.296876"/><path d="M3140.703125 2233.59375l-71.40625-49.6875"/><path d="M3089.375 2220.703125l-20.078125-36.796875 41.484375 6.015625"/><path d="M3143.242188 2364.921875l-76.484376-57.34375"/><path d="M3085.507812 2345.078125l-18.75-37.5 41.25 7.5"/><path d="M3145.78125 2496.289062l-81.5625-65.039062"/><path d="M3081.835938 2469.257812 3064.21875 2431.25l40.976562 8.710938"/><path d="M3148.359375 2627.578125l-86.71875-72.65625"/><path d="M3078.359375 2593.398438l-16.71875-38.476563 40.78125 9.726563"/><path d="M3272.460938 132.421875l5.078124 72.65625"/><path d="M3293.632812 166.367188l-16.09375 38.710937-21.328124-36.09375"/><path d="M3275 263.75v65"/><path d="M3293.75 291.25l-18.75 37.5-18.75-37.5"/><path d="M3277.539062 395.078125l-5.078124 57.34375"/><path d="M3294.453125 416.757812l-21.992187 35.664063-15.351563-38.984375"/><path d="M3280.117188 526.40625l-10.234376 49.6875"/><path d="M3295.78125 543.164062l-25.898438 32.929688L3259.0625 535.625"/><path d="M3282.65625 657.734375l-15.3125 42.070313"/><path d="M3297.773438 670.9375l-30.429688 28.867188-4.804688-41.679688"/><path d="M3285.195312 789.023438l-20.390624 34.453124"/><path d="M3300.039062 800.78125l-35.234374 22.695312 2.96875-41.835937"/><path d="M3287.734375 920.351562l-25.46875 26.796876"/><path d="M3301.679688 932.929688l-39.414063 14.21875 12.265625-40.078126"/><path d="M3290.3125 1051.679688l-30.625 19.140624"/><path d="M3301.445312 1066.835938l-41.757812 3.984374 21.875-35.78125"/><path d="M3292.851562 1183.007812l-35.703124 11.484376"/><path d="M3298.59375 1200.859375l-41.445312-6.367187 29.960937-29.335938"/><path d="M3295.390625 1314.335938l-40.78125 3.828124"/><path d="M3293.671875 1333.320312l-39.0625-15.15625 35.585937-22.148437"/><path d="M3297.96875 1445.664062l-45.9375-3.828124"/><path d="M3287.851562 1463.632812l-35.820312-21.796874 38.945312-15.546876"/><path d="M3300.507812 1576.992188l-51.015624-11.484376"/><path d="M3281.953125 1592.03125l-32.460937-26.523438 40.703124-10.039062"/><path d="M3303.046875 1708.320312l-56.09375-19.140624"/><path d="M3276.40625 1719.023438l-29.453125-29.84375 41.523437-5.625"/><path d="M3305.585938 1839.648438l-61.171876-26.796876"/><path d="M3271.210938 1845.078125l-26.796876-32.226563 41.875-2.148437"/><path d="M3308.164062 1970.976562l-66.328124-34.453124"/><path d="M3266.484375 1970.46875l-24.648437-33.945312 41.953124.664062"/><path d="M3310.703125 2102.304688l-71.40625-42.109376"/><path d="M3262.109375 2095.390625l-22.8125-35.195313 41.835937 2.890626"/><path d="M3313.242188 2233.59375l-76.484376-49.6875"/><path d="M3257.96875 2220.039062l-21.210938-36.132812 41.640626 4.6875"/><path d="M3315.78125 2364.921875l-81.5625-57.34375"/><path d="M3254.101562 2344.453125l-19.882812-36.875 41.445312 6.210937"/><path d="M3318.359375 2496.289062l-86.71875-65.039062"/><path d="M3250.390625 2468.75l-18.75-37.5 41.25 7.5"/><path d="M3320.898438 2627.578125l-91.796876-72.65625"/><path d="M3246.875 2592.890625l-17.773438-37.96875 41.054688 8.554687"/><path d="M3445 132.421875v72.65625"/><path d="M3463.75 167.578125l-18.75 37.5-18.75-37.5"/><path d="M3447.539062 263.75l-5.078124 65"/><path d="M3464.0625 292.851562 3442.460938 328.75l-15.78125-38.828125"/><path d="M3450.117188 395.078125l-10.234376 57.34375"/><path d="M3464.921875 418.789062l-25.039063 33.632813-11.875-40.195313"/><path d="M3452.65625 526.40625l-15.3125 49.6875"/><path d="M3466.289062 545.78125l-28.945312 30.3125-6.875-41.328125"/><path d="M3455.195312 657.734375l-20.390624 42.070313"/><path d="M3468.046875 674.21875l-33.242187 25.585938-.507813-41.953126"/><path d="M3457.734375 789.023438l-25.46875 34.453124"/><path d="M3469.648438 804.492188l-37.382813 18.984374 7.226563-41.289062"/><path d="M3460.3125 920.351562l-30.625 26.796876"/><path d="M3470.273438 936.5625l-40.585938 10.585938 15.898438-38.828126"/><path d="M3462.851562 1051.679688l-35.703124 19.140624"/><path d="M3469.0625 1069.648438l-41.914062 1.171874 24.21875-34.257812"/><path d="M3465.390625 1183.007812l-40.78125 11.484376"/><path d="M3465.78125 1202.382812l-41.171875-7.890624 31.015625-28.203126"/><path d="M3467.96875 1314.335938l-45.9375 3.828124"/><path d="M3460.976562 1333.710938l-38.945312-15.546876 35.820312-21.796874"/><path d="M3470.507812 1445.664062l-51.015624-3.828124"/><path d="M3455.507812 1463.359375l-36.015624-21.523437 38.789062-15.898438"/><path d="M3473.046875 1576.992188l-56.09375-11.484376"/><path d="M3449.921875 1591.40625l-32.96875-25.898438 40.46875-10.859374"/><path d="M3475.585938 1708.320312l-61.171876-19.140624"/><path d="M3444.609375 1718.28125l-30.195313-29.101562 41.367188-6.71875"/><path d="M3478.164062 1839.648438l-66.328124-26.796876"/><path d="M3439.609375 1844.296875l-27.773437-31.445313 41.796874-3.320312"/><path d="M3480.703125 1970.976562l-71.40625-34.453124"/><path d="M3434.921875 1969.726562l-25.625-33.203124 41.914063-.585938"/><path d="M3483.242188 2102.304688l-76.484376-42.109376"/><path d="M3430.585938 2094.726562l-23.828126-34.53125 41.875 1.679688"/><path d="M3485.78125 2233.59375l-81.5625-49.6875"/><path d="M3426.445312 2219.414062l-22.226562-35.507812 41.757812 3.476562"/><path d="M3488.359375 2364.921875l-86.71875-57.34375"/><path d="M3422.578125 2343.90625l-20.9375-36.328125 41.640625 5.039063"/><path d="M3490.898438 2496.289062 3399.101562 2431.25"/><path d="M3418.867188 2468.203125 3399.101562 2431.25l41.445313 6.367188"/><path d="M3493.4375 2627.578125l-96.875-72.65625"/><path d="M3415.3125 2592.421875l-18.75-37.5 41.25 7.5"/></g><g clip-path="url(#w)"><path d="M-3836.679688 1380H7496.679688" class="g"/></g><g clip-path="url(#x)"><path d="M-3836.679688-2870 7496.679688 5630" class="g"/></g><g style="fill:none;stroke-width:18.75;stroke-linecap:round;stroke:red;stroke-miterlimit:10;transform:matrix(.1,0,0,-.1,0,275)"><path d="M1830 1380h566.679688"/><path d="M1830 1380l566.679688 425"/><path d="M2113.320312 1380h283.359376"/><path d="M2205 1430l-91.679688-50L2205 1336.25"/><path d="M2113.320312 1592.5l283.359376 212.5"/><path d="M2155 1692.5l-41.679688-100 97.929688 18.75"/></g><g clip-path="url(#y)"><path d="M2056.679688 105l42.03125 74.257812 38.007812 69.921876 34.179688 65.859374 30.625 62.03125 27.382812 58.398438 24.335938 55 21.484374 51.796875 18.90625 48.789063 16.484376 45.9375 14.21875 43.28125 12.148437 40.742187 10.234375 38.398437 8.4375 36.132813 6.835938 34.023437 5.351562 32.070313 3.945312 30.15625 2.65625 28.4375 1.523438 26.796875.429688 25.195312-.546876 23.75-1.445312 22.382813-2.226562 21.054687-3.007813 19.84375-3.632813 18.671876-4.257812 17.578124-4.804688 16.5625-5.3125 15.625-5.742187 14.6875-6.132813 13.828126-6.484374 13.046874-6.757813 12.265626-7.070313 11.5625-7.304687 10.859374-7.460937 10.273438-7.65625 9.648438-7.8125 9.101562-7.929688 8.554688-8.007812 8.085937-8.085938 7.578125-8.125 7.148438-8.203125 6.71875-8.164063 6.367187-8.203124 5.976563-8.164063 5.625-8.125 5.273437-8.125 5-8.046875 4.6875-8.007812 4.453125-7.929688 4.140625-7.851562 3.945313-7.8125 3.710937-7.65625 3.476563-7.617188 3.28125-7.5 3.085937-7.382812 2.890625-7.265626 2.734375-7.1875 2.578125-7.070312 2.421875-6.914062 2.304687-6.835938 2.148438-6.71875 2.03125-6.601562 1.914062-6.445313 1.796876-6.328125 1.71875-6.25 1.601562-6.09375 1.484375-5.976562 1.40625-5.820313 1.328125-5.742187 1.25-5.625 1.210938-5.46875 1.09375-5.390626 1.054687-5.234374.976563-5.117188.9375-5.039062.898437-4.882813.78125-4.804687.78125-4.6875.742187-4.570313.703126-4.453125.625-4.335938.625-4.257812.585937-4.140625.546875-4.023437.507812-3.945313.46875-3.867187.46875-3.75.429688-3.632813.390625-3.554687.390625-3.476563.351562-3.359375.3125-3.320312.3125-3.203126.3125-3.125.273438-3.046874.273438-2.96875.234374-2.851563.234376-2.8125.234374-2.734375.195313-2.65625.195313-2.617188.195312-2.5.15625-2.460937.15625-2.382813.195312-2.34375.117188-2.226562.15625-2.226562.117188-2.109376.117187-2.070312.117187-2.03125.117188-1.953125.078125-1.914063.117187-1.875.078126-1.796874.078124-1.757813.078126-1.71875.078124-3.28125.15625-1.5625.039063-1.523437.078125-1.484376.039062-1.445312.039063-1.40625.078125-2.65625.078125-1.289062.039063-1.25.039062-1.210938.039062-2.34375.078126h-1.09375l-1.09375.039062-1.015625.039062-1.054687.039063h-.976563l-.9375.039063h-.976563l-.898437.039062h-.859375l-.859375.039062h-.859375l-.78125.039063h-1.5625l-.742188.039063h-1.40625l-.703124.039062h-2.5l-.585938.039062h-2.65625l-.507812.039063h-3.046876l-.390624.039063h-5.9375l-.234376.039062h-6.523437" class="b"/></g><g clip-path="url(#z)"><path d="M1263.320312 105l65.507813 74.257812 60.742187 69.921876 56.25 65.859374 52.070313 62.03125 48.164063 58.398438 44.53125 55 41.09375 51.796875 37.890624 48.789063 34.921876 45.9375 32.109374 43.28125 29.53125 40.742187 27.070313 38.398437 24.84375 36.132813 22.695313 34.023437 20.742187 32.070313 18.867187 30.15625 17.1875 28.4375L1913.125 947.03125l14.101562 25.195312 12.734376 23.75 11.445312 22.382813 10.234375 21.054687 9.140625 19.84375 8.085938 18.671876 7.148437 17.578124 6.289063 16.5625 5.429687 15.625 4.6875 14.6875 3.984375 13.828126 3.359375 13.046874 2.773437 12.265626 2.1875 11.5625 1.679688 10.859374 1.210938 10.273438.820312 9.648438.390625 9.101562.039063 8.554688-.273438 8.085937-.585938 7.578125-.859374 7.148438-1.132813 6.71875-1.328125 6.367187-1.523438 5.976563-1.71875 5.625-1.914062 5.273437-1.992188 5-2.1875 4.6875-2.265624 4.453125-2.382813 4.140625-2.460937 3.945313-2.539063 3.710937-2.617187 3.476563-2.65625 3.28125-2.734376 3.085937-2.734374 2.890625-2.773438 2.734375-2.8125 2.578125-2.8125 2.421875-2.851562 2.304687-2.8125 2.148438-2.851563 2.03125-2.8125 1.914062-2.8125 1.796876-2.8125 1.71875-2.773437 1.601562-2.773438 1.484375-2.734375 1.40625-2.695313 1.328125-2.695312 1.25-2.65625 1.210938-2.617188 1.09375-2.578124 1.054687-2.539063.976563-2.5.9375-2.460937.898437-2.460938.78125-2.382812.78125-2.34375.742187-2.304688.703126-2.265625.625-2.226563.625-2.1875.585937-2.148437.546875-2.070313.507812-2.070312.46875-1.992188.46875-1.992187.429688-3.828125.78125-1.835938.351562-1.796874.3125-1.757813.3125-1.71875.3125-1.679687.273438-1.640626.273438-1.640624.234374-1.5625.234376-1.523438.234374-1.484375.195313-2.890625.390625-2.734375.3125-1.328125.195312-1.289062.117188-1.25.15625-1.210938.117188-2.34375.234374-1.132812.117188-1.09375.078125-1.09375.117187-1.015626.078126-1.054687.078124-1.953125.15625-.9375.078126-.898438.078124-.898437.039063-.859375.078125-1.640625.078125-.820313.078125-.78125.039062-1.484374.078126-1.40625.078124-1.328126.078126h-.625l-.625.039062-1.171874.078125h-.585938l-.546875.039063h-.546875l-.507812.039062h-.507813l-.507813.039062h-.46875l-.46875.039063h-.898437l-.429687.039063h-.820313l-.390625.039062h-1.445312l-.351563.039062h-1.5625l-.273437.039063h-1.796876l-.234374.039063h-3.476563l-.078125.039062h-3.867188" class="b"/></g><g clip-path="url(#A)"><path d="M130 105l98.984375 74.257812 93.242187 69.921876 87.8125 65.859374 82.695313 62.03125 77.851563 58.398438 73.359374 55 69.0625 51.796875 65.039063 48.789063 61.289063 45.9375 57.695312 43.28125 54.335938 40.742187 51.171874 38.398437 48.164063 36.132813 45.390625 34.023437 42.734375 32.070313 40.234375 30.15625 37.929688 28.4375 35.703124 26.796875 33.59375 25.195312 31.679688 23.75 29.804688 22.382813 28.085937 21.054687 26.445313 19.84375 24.921874 18.671876 23.4375 17.578124 22.109376 16.5625 20.78125 15.625 19.609374 14.6875 18.4375 13.828126 17.382813 13.046874 16.367187 12.265626 15.429688 11.5625 14.492188 10.859374 13.671874 10.273438 12.890626 9.648438 12.109374 9.101562 22.1875 16.640625L1666.25 1257.1875l9.53125 7.148438 8.984375 6.71875 8.4375 6.367187 15.46875 11.601563 7.070313 5.273437 6.679687 5 6.25 4.6875 5.898437 4.453125 5.546876 4.140625 5.234374 3.945313 4.921876 3.710937 4.648437 3.476563 4.375 3.28125 4.140625 3.085937 3.867188 2.890625 3.632812 2.734375 3.4375 2.578125 3.242188 2.421875 3.046874 2.304687 2.890626 2.148438 2.695312 2.03125 2.539062 1.914062 2.421876 1.796876 2.265624 1.71875 2.109376 1.601562 1.992187 1.484375 1.914063 1.40625 1.757812 1.328125 1.679688 1.25 1.5625 1.210938 1.484374 1.09375 1.40625 1.054687 1.328126.976563 1.25.9375 1.132812.898437 1.132812.78125 1.015626.78125.976562.742187.9375.703126.859375.625.820313.625.742187.585937.742187.546875.664063.507812.664063.46875.585937.46875.546875.429688.546875.390625.507813.390625.46875.351562.46875.3125.429687.3125.390625.3125.703125.546876.351563.234374.3125.234376.273437.234374.546875.390626.234375.195312.46875.3125.195313.195312.195312.117188.195312.15625.625.46875.117188.078125.15625.117187.117188.078126.078124.078124.234376.15625.15625.15625.078124.039063.078126.078125.15625.078125.117187.117187.078125.039063.039062.039063.078126.039062.117187.117188h.039063l.117187.117187h.039063v.039063h.039062l.039062.039062h.039063v.039062h.039063v.039063h.039062l.039062.039063h.039063v.039062h.039063v.039062h.078124v.039063h.039063v.039063h.039063V1380H1830" class="b"/></g><g clip-path="url(#B)"><path d="M130 955l66.484375 24.765625 63.59375 23.28125 60.820313 21.992187 58.164062 20.625 55.664062 19.492188 53.28125 18.320312 51.015626 17.265626 48.828124 16.289062 46.757813 15.3125 44.804687 14.414062 42.929688 13.59375 41.132812 12.773438 39.414063 12.070312 37.8125 11.328126 36.25 10.703124 34.765625 10.039063 33.398438 9.492187 31.992187 8.90625 30.742187 8.398438 29.492188 7.929688 28.320312 7.460937 27.1875 7.03125 26.132813 6.601563 25.117187 6.210937 24.101563 5.859375 23.203125 5.546875 22.265625 5.195313 21.445313 4.882812 20.585937 4.609375 19.84375 4.375 19.0625 4.0625 18.359375 3.867187 17.65625 3.632813 17.03125 3.398437 16.367188 3.242188 15.742187 3.007812 15.195313 2.890626 14.609374 2.65625 14.101563 2.539062 13.554687 2.382812 13.085938 2.226563 12.617188 2.148437 12.148437 1.992188 11.71875 1.875 11.328125 1.757812 10.898438 1.640626 10.507812 1.601562 10.15625 1.445312 9.765625 1.40625 9.453125 1.289063 9.101562 1.25 8.828126 1.132813 8.476562 1.132812 8.203125 1.015625 7.929687.976563 7.65625.898437 7.382813.859375 7.148437.820312 6.875.742188 6.679688.742188 6.445312.664062 6.210938.625 6.015625.625 5.820313.546875 5.625.546875 5.390624.507812 5.273438.46875 5.078125.429688 4.921875.429688 4.726562.390624 4.609376.351563 4.453124.351563 4.296876.351562 4.179687.3125 4.023437.273438 3.90625.273437 3.75.273437 3.671876.234376 3.515624.234374 3.4375.195313 3.28125.234375 3.203126.195312 3.125.15625 3.007812.195313 2.890625.15625 2.8125.15625 2.734375.117187 2.617188.15625 2.578124.117188 2.5.117188 2.382813.117187 2.34375.078125 2.226563.117188 2.1875.078124 2.109374.117188 2.070313.078125 3.90625.15625 1.835937.039063 1.835938.078124 1.71875.078126 1.71875.039062 1.640625.039062 1.601563.078126 1.523437.039062 2.96875.078125 2.734375.078125 1.328125.039062 1.289063.039063 1.25.039063 1.171874.039062h1.171876l1.132812.039062 1.09375.039063h1.09375l1.015625.039063h1.015625l.9375.039062h.9375l.9375.039062h.859375l.859375.039063h1.640625l.78125.039063h1.484375l.742188.039062h2.617187l.625.039062h2.265625l.546875.039063h3.242187l.429688.039063h6.523438l.195312.039062h6.679688" class="b"/></g><g clip-path="url(#C)"><path d="M130 2230l17.734375-49.492188 19.101563-46.640624 20.351562-43.90625 21.367188-41.328126L230.9375 2009.6875l23.164062-36.640625 23.90625-34.570313 24.492188-32.5 25.039062-30.625 25.46875-28.867187 25.820313-27.148437L404.882812 1793.75l26.328126-24.101562 26.445312-22.695313 26.523438-21.367187 26.5625-20.117188 26.523437-18.945312L563.75 1668.671875l26.40625-16.835937 26.25-15.820313 26.054688-14.921875 25.898437-14.023438 25.625-13.242187L719.375 1581.40625l25.117188-11.757812 24.84375-11.015626 24.53125-10.429687 24.179687-9.765625 23.828125-9.21875 23.515625-8.710938 23.125-8.203124 22.773437-7.695313 22.382813-7.265625 21.992187-6.796875 21.640626-6.445313 21.210937-6.054687 20.820313-5.742187 20.429687-5.351563 20.039063-5.078125 19.609374-4.765625 19.257813-4.492187 18.828125-4.21875 18.4375-3.984376 18.046875-3.75 17.65625-3.554687 17.265625-3.320313 16.914062-3.125 16.484376-2.96875 16.132812-2.773437 15.78125-2.617187 15.390625-2.460938 15.039063-2.304688 14.6875-2.1875 14.335937-2.070312 13.984375-1.914062 13.632812-1.835938 13.320313-1.71875 13.007813-1.640625 12.65625-1.523437 12.34375-1.40625 12.03125-1.367188 11.757812-1.289062 11.40625-1.171876 11.171875-1.132812 10.859375-1.054688 10.546875-1.015624 10.3125-.9375 10.039063-.898438 9.765624-.820312 9.53125-.820313 9.257813-.742187 9.023437-.664063 8.789063-.703125 8.515625-.585938 8.320312-.585937 8.085938-.546875 7.890625-.507812 7.65625-.507813 7.460937-.46875 7.265626-.429687 7.03125-.390626 6.875-.390624 6.679687-.351563 6.484375-.351563 6.289062-.3125 6.132813-.3125 5.976563-.273437 5.820312-.273437 5.625-.273438 5.46875-.234375 5.351562-.234375 5.15625-.195312 5.039063-.195313 4.921875-.195313 4.726562-.15625 4.648438-.15625 4.492188-.15625 4.375-.15625 4.21875-.15625 4.140624-.117187 3.984376-.117187 3.90625-.117188 3.789062-.117188 3.671875-.117187 3.554687-.078125 3.476563-.078125 3.359375-.117187 3.28125-.039063 3.164062-.117187 3.085938-.039063 3.007812-.078125 2.929688-.078125 2.8125-.039063 2.734375-.078124 2.65625-.039063 2.617187-.039063 2.5-.039062 2.460938-.078125 2.382812-.039063 2.304688-.039062 2.226562-.039062 2.1875-.039063h2.109376l2.03125-.039063 1.992187-.039062h1.953125l1.875-.039062 3.59375-.078126h1.71875l1.640625-.039062h3.203125l1.523438-.039062h1.484374l1.445313-.039063h1.40625l1.328125-.039063h3.828125l1.210937-.039062h3.4375l1.054688-.039062h4.921875l.859375-.039063h6.953125l.703125-.039063h12.421875l.273437-.039062h9.0625" class="b"/></g><g clip-path="url(#D)"><path d="M696.679688 2655l-15.273438-74.257812-11.992188-69.921876-8.945312-65.859374-6.132812-61.992188-3.632813-58.4375-1.25-55 .859375-51.796875 2.851562-48.789063 4.609376-45.9375 6.210937-43.28125 7.695313-40.742187 9.0625-38.359375 10.234374-36.171875 11.289063-34.023437 12.304687-32.03125 13.125-30.195313 13.90625-28.4375 14.570313-26.796875 15.195313-25.195312 15.703124-23.75 16.132813-22.382813 16.523437-21.054687 16.835938-19.804688 17.070312-18.710938 17.304688-17.578124 17.460938-16.5625 17.578124-15.625 17.695313-14.6875 17.695313-13.828126 17.695312-13.046874 17.695312-12.265626 17.617188-11.5625 17.539062-10.859374 17.460938-10.273438 17.304688-9.648438 17.1875-9.101562 17.03125-8.554688 16.835937-8.085937 16.640625-7.578125 16.484375-7.148438 16.210937-6.71875 16.015626-6.367187 15.78125-5.976563 15.546874-5.625 15.3125-5.273437 15.078126-5 14.804687-4.6875 14.53125-4.453125 14.296875-4.140625 13.984375-3.945313 13.75-3.671874 13.515625-3.515626 13.203125-3.28125 12.96875-3.085937 12.695313-2.890625 12.421874-2.734375 12.1875-2.578125 11.914063-2.421875 11.640625-2.304687 11.40625-2.148438 11.09375-2.03125 10.898438-1.914062 10.625-1.796876 10.390624-1.679687 10.15625-1.601563 9.921876-1.523437 9.6875-1.40625 9.414062-1.328125 9.21875-1.25 8.984375-1.210938 8.789063-1.09375 8.554687-1.054687 8.320313-.976563 8.125-.9375 7.929687-.898437 7.734375-.78125 7.539062-.78125 7.34375-.742187 7.148438-.703126 6.953125-.625 6.757813-.625 6.640624-.585937 6.40625-.507813 6.289063-.546874 6.09375-.46875 5.9375-.46875 5.78125-.429688 5.625-.390625 5.46875-.390625 5.3125-.351562 5.15625-.3125 5.039063-.3125 4.921874-.3125 4.765626-.273438 4.648437-.273438 4.492187-.234374 4.414063-.234376 4.257813-.234374 4.140624-.195313 4.0625-.195313 3.90625-.195312 3.828126-.15625 3.710937-.15625 3.59375-.15625 3.515625-.15625 3.398438-.117188 3.320312-.15625 3.203125-.117187 3.125-.117187 3.046875-.078126 2.929688-.117187 2.890624-.117187 2.773438-.078126 2.734375-.078124 2.617187-.078126 2.578126-.078124 2.460937-.078126 2.421875-.039062 2.34375-.078125 2.304688-.078125 2.1875-.039062 2.148437-.039063 2.109375-.078125 2.03125-.039062 1.953125-.039063 1.914063-.039063 1.875-.039062 1.796874-.039062 1.757813-.039063h1.71875l1.640625-.039063 1.601562-.039062 1.5625-.039062 1.523438-.039063h1.445312l1.445313-.039063h1.40625l1.328125-.039062h1.289062l1.289063-.039062h2.421875l1.171875-.039063h1.132813l1.09375-.039063h3.085937l.976563-.039062h2.773437l.859375-.039062h3.945312l.742188-.039063h5.625l.546875-.039063h10.039063l.234374-.039062h7.34375" class="b"/></g><g clip-path="url(#E)"><path d="M2396.679688 2655l-65.507813-74.257812-60.742187-69.921876-56.25-65.859374-52.070313-61.992188-48.203125-58.4375-44.492188-55-41.09375-51.796875-37.890624-48.789063-34.921876-45.9375-32.109374-43.28125-29.53125-40.742187-27.070313-38.359375-24.84375-36.171875-22.695313-34.023437-20.742187-32.03125-18.867187-30.195313-17.1875-28.4375-15.585938-26.796875-14.101562-25.195312-12.734376-23.75-11.445312-22.382813-10.234375-21.054687-9.140625-19.804688-8.085938-18.710938-7.148437-17.578124-6.289063-16.5625-5.429687-15.625-4.6875-14.6875-4.023437-13.828126-3.320313-13.046874-2.773437-12.265626-2.1875-11.5625-1.679688-10.859374-1.210938-10.273438-.820312-9.648438-.390625-9.101562-.039063-8.554688.273438-8.085937.585938-7.578125.859374-7.148438 1.132813-6.71875 1.328125-6.367187 1.523438-5.976563 1.71875-5.625 1.875-5.273437 2.03125-5 2.1875-4.6875 2.265624-4.453125 2.382813-4.140625 2.460937-3.945313 2.539063-3.671874 2.617187-3.515626 2.65625-3.28125 2.734376-3.085937 2.734374-2.890625 2.773438-2.734375 2.8125-2.578125 2.8125-2.421875 2.851562-2.304687 2.8125-2.148438 2.851563-2.03125 2.8125-1.914062 2.8125-1.796876 2.8125-1.679687 2.773437-1.601563 2.773438-1.523437 2.734375-1.40625 2.695313-1.328125 2.695312-1.25 2.65625-1.210938 2.617188-1.09375 2.578124-1.054687 2.539063-.976563 2.5-.9375 2.460937-.898437 2.460938-.78125 2.382812-.78125 2.34375-.742187 2.304688-.703126 2.265625-.625 2.226563-.625 2.1875-.585937 2.109374-.507813 2.109376-.546874 2.070312-.46875 1.992188-.46875 1.992187-.429688 3.828125-.78125 1.835938-.351562 1.796874-.3125 1.757813-.3125 1.71875-.3125 1.679687-.273438 1.640626-.273438 1.601562-.234374 3.125-.46875 1.484375-.195313 2.890625-.390625 2.734375-.3125 1.328125-.15625 1.25-.15625 1.289062-.117188 1.210938-.15625 2.34375-.234374 1.132812-.078126 2.1875-.234374 3.046876-.234376.976562-.078124.9375-.078126.898438-.039062.859374-.078125.898438-.078125 1.640625-.078125.78125-.078125 1.5625-.078125.742187-.039063.703126-.039062.664062-.039062.703125-.039063h.625l.664063-.039063.625-.039062 1.171874-.078125h.585938l.546875-.039063h.546875l.507812-.039062h.507813l.507813-.039062h.9375l.46875-.039063h.429687l.429687-.039063h1.210938l.390625-.039062h1.054687l.351563-.039062h1.5625l.273437-.039063h2.226563l.234375-.039063h3.984375l.078125-.039062h2.929688" class="b"/></g><g clip-path="url(#F)"><path d="M3530 2230l-82.734375-49.492188-78.4375-46.640624-74.296875-43.90625-70.429688-41.328126-66.757812-38.945312-63.320312-36.640625-60.039063-34.570313-56.953125-32.5-53.984375-30.625-51.25-28.867187-48.632813-27.148437-46.171874-25.585938-43.789063-24.101562-41.601563-22.695313-39.492187-21.367187-37.5-20.117188-35.664063-18.945312-33.828124-17.851563-32.1875-16.835937-30.585938-15.820313-29.0625-14.921875-27.65625-14.023438-26.289062-13.242187-25-12.421875-23.789063-11.757812-22.617187-11.015626-21.5625-10.429687-20.507813-9.765625-19.53125-9.21875-18.59375-8.710938L2230 1512.304688l-16.875-7.695313-16.09375-7.265625-15.3125-6.796875-14.648438-6.445313-13.945312-6.054687-13.28125-5.742187-12.695312-5.351563-12.109376-5.078125-11.5625-4.765625-11.015624-4.492187-10.546876-4.21875-10.039062-3.984376-9.609375-3.75-9.179687-3.554687-8.789063-3.320313-8.398437-3.125-8.007813-2.96875-7.695313-2.773437-7.34375-2.617187-6.992187-2.460938-6.757813-2.304688-6.40625-2.1875-6.171874-2.070312-5.898438-1.914062-5.664062-1.835938-5.390626-1.71875-5.195312-1.640625-4.960938-1.523437-4.765624-1.40625-4.570313-1.367188-4.414063-1.289062-4.179687-1.171876-4.0625-1.132812-3.867187-1.054688-3.710938-1.015624-3.554688-.9375-3.4375-.898438-3.320312-.820312-3.125-.820313-3.046875-.742187-2.929687-.664063-2.8125-.703125-2.695313-.585938-2.617187-.585937-2.5-.546875-2.382813-.507812-2.304687-.507813-2.265626-.46875-2.109374-.429687-2.070313-.390626-1.992187-.390624-1.914063-.351563-1.835937-.351563-1.796876-.3125-1.679687-.3125-1.640625-.273437-1.601562-.273437-1.523438-.273438-1.484375-.234375-1.40625-.234375-1.40625-.195312-1.328125-.195313-1.25-.195313-1.25-.15625-2.34375-.3125-2.1875-.3125-1.015625-.117187-1.953125-.234375-.9375-.117188-.898438-.117187-1.71875-.15625-.78125-.117187-.78125-.039063-.78125-.117187-.742187-.039063-.703125-.078125-.664062-.078125-.664063-.039063-.625-.078124-1.25-.078126-.546875-.039062-.585938-.078125-.507812-.039063-.546875-.039062-1.015625-.078125h-.46875l-.429688-.039063-.46875-.039062h-.429687l-.390625-.039062-.429688-.039063-.390624-.039063h-.351563l-.390625-.039062h-.703125l-.3125-.039062h-.3125l-.351563-.039063h-.273437l-.3125-.039063h-.820313l-.234374-.039062H1837.5l-.234375-.039062H1836.25l-.195312-.039063h-1.445313l-.15625-.039063h-2.539063l-.078124-.039062h-1.796876" class="b"/></g><style>.a{fill:none;stroke:#bfbfbf;stroke-dasharray:12.5,18.75;stroke-linecap:round;stroke-miterlimit:10;stroke-width:6.25;transform:matrix(.1,0,0,-.1,0,275)}.b{fill:none;stroke:red;stroke-linecap:round;stroke-miterlimit:10;stroke-width:12.5;transform:matrix(.1,0,0,-.1,0,275)}.c{fill:none;stroke:#000;stroke-miterlimit:10;transform:matrix(.1,0,0,-.1,0,275)}.d{stroke-linecap:square;stroke-width:12.5}.e{stroke-width:6.25}.f{fill:none;stroke:#bfbfbf;stroke-linecap:round;stroke-miterlimit:10;stroke-width:6.25;transform:matrix(.1,0,0,-.1,0,275)}.g{fill:none;stroke:#000;stroke-linecap:round;stroke-miterlimit:10;stroke-width:6.25;transform:matrix(.1,0,0,-.1,0,275)}</style></svg>