<svg xmlns="http://www.w3.org/2000/svg" width="378pt" height="274pt" viewBox="0 0 378 274"><defs><path d="M2.125-2.3437H.3438v.5469H2.125zm0 0" id="d"/><path d="M3.5625-5.3125H.8281L.4219-2.4219h.6094c.3125-.375.5625-.5.984375-.5.703125 0 1.15625.484375 1.15625 1.28125 0 .765625-.4375 1.234375-1.15625 1.234375-.578125 0-.9375-.296875-1.09375-.90625h-.6562c.09375.4375.15625.65625.3125.84375.3125.40625.84375.640625 1.453125.640625 1.0625 0 1.8125-.78125 1.8125-1.90625C3.84375-2.78125 3.15625-3.5 2.125-3.5c-.375 0-.671875.09375-.984375.3125l.2188-1.4844H3.5625zm0 0" id="b"/><path d="M1.4375-.7812H.6563V0h.7813zm0 0" id="a"/><path d="M2.0625-5.3125c-.5 0-.9375.21875-1.21875.578125C.5-4.265625.328125-3.5625.328125-2.578125c0 1.796875.59375 2.75 1.734375 2.75 1.125 0 1.734375-.953125 1.734375-2.703125 0-1.03125-.15625-1.71875-.515625-2.203125C3-5.109375 2.5625-5.3125 2.0625-5.3125zm0 .5781c.71875 0 1.0625.71875 1.0625 2.140625C3.125-1.078125 2.78125-.375 2.046875-.375 1.34375-.375 1-1.109375 1-2.5625c0-1.453125.34375-2.171875 1.0625-2.171875zm0 0" id="c"/><path d="M3.7969-.6562H1c.0625-.4375.3125-.703125.953125-1.09375l.75-.4062c.75-.40625 1.125-.953125 1.125-1.59375 0-.453125-.171875-.859375-.484375-1.140625C3.015625-5.1875 2.625-5.3125 2.125-5.3125c-.671875 0-1.171875.234375-1.46875.6875-.1875.28125-.265625.609375-.28125 1.15625h.6563c.03125-.359375.078125-.578125.15625-.75.171875-.328125.515625-.515625.921875-.515625.59375 0 1.046875.421875 1.046875.984375 0 .421875-.25.78125-.71875 1.0625l-.6875.3906C.640625-1.671875.3125-1.171875.25 0h3.5469zm0 0" id="e"/><path d="M3.9063-5.3125H.3438v.6406h2.875C1.953125-2.859375 1.4375-1.75 1.03125 0h.7031c.296875-1.703125.96875-3.171875 2.171875-4.765625zm0 0" id="f"/><clipPath id="g"><path d="M188 8.5h2v255h-2zm0 0"/></clipPath><clipPath id="h"><path d="M19 161h340v1H19zm0 0"/></clipPath><clipPath id="i"><path d="M19 8.5h1v255h-1zm0 0"/></clipPath><clipPath id="j"><path d="M103 8.5h2v255h-2zm0 0"/></clipPath><clipPath id="k"><path d="M188 8.5h2v255h-2zm0 0"/></clipPath><clipPath id="l"><path d="M273 8.5h2v255h-2zm0 0"/></clipPath><clipPath id="m"><path d="M358 8.5h1v255h-1zm0 0"/></clipPath><clipPath id="n"><path d="M19 263h340v.5H19zm0 0"/></clipPath><clipPath id="o"><path d="M19 212h340v1H19zm0 0"/></clipPath><clipPath id="p"><path d="M19 161h340v1H19zm0 0"/></clipPath><clipPath id="q"><path d="M19 110h340v1H19zm0 0"/></clipPath><clipPath id="r"><path d="M19 59h340v1H19zm0 0"/></clipPath><clipPath id="s"><path d="M19 8.5h340V9H19zm0 0"/></clipPath><clipPath id="t"><path d="M19 8.5h267V177H19zm0 0"/></clipPath><clipPath id="u"><path d="M19 8.5h260V185H19zm0 0"/></clipPath></defs><path fill="#fff" d="M19 263.5h340V8.5H19zm0 0"/><g clip-path="url(#g)"><path d="M1890 105v2550" class="e"/></g><g clip-path="url(#h)"><path d="M190 1125h3400" class="e"/></g><g clip-path="url(#i)"><path d="M190 105v2550" class="a"/></g><g clip-path="url(#j)"><path d="M1040 105v2550" class="a"/></g><g clip-path="url(#k)"><path d="M1890 105v2550" class="a"/></g><g clip-path="url(#l)"><path d="M2740 105v2550" class="a"/></g><g clip-path="url(#m)"><path d="M3590 105v2550" class="a"/></g><g clip-path="url(#n)"><path d="M190 105h3400" class="a"/></g><g clip-path="url(#o)"><path d="M190 615h3400" class="a"/></g><g clip-path="url(#p)"><path d="M190 1125h3400" class="a"/></g><g clip-path="url(#q)"><path d="M190 1635h3400" class="a"/></g><g clip-path="url(#r)"><path d="M190 2145h3400" class="a"/></g><g clip-path="url(#s)"><path d="M190 2655h3400" class="a"/></g><g class="b"><path d="M190 105h3400" class="c"/><g class="d"><path d="M190 105v50"/><path d="M275 105v25"/><path d="M360 105v25"/><path d="M445 105v25"/><path d="M530 105v25"/><path d="M615 105v25"/><path d="M700 105v25"/><path d="M785 105v25"/><path d="M870 105v25"/><path d="M955 105v25"/><path d="M1040 105v50"/><path d="M1125 105v25"/><path d="M1210 105v25"/><path d="M1295 105v25"/><path d="M1380 105v25"/><path d="M1465 105v25"/><path d="M1550 105v25"/><path d="M1635 105v25"/><path d="M1720 105v25"/><path d="M1805 105v25"/><path d="M1890 105v50"/><path d="M1975 105v25"/><path d="M2060 105v25"/><path d="M2145 105v25"/><path d="M2230 105v25"/><path d="M2315 105v25"/><path d="M2400 105v25"/><path d="M2485 105v25"/><path d="M2570 105v25"/><path d="M2655 105v25"/><path d="M2740 105v50"/><path d="M2825 105v25"/><path d="M2910 105v25"/><path d="M2995 105v25"/><path d="M3080 105v25"/><path d="M3165 105v25"/><path d="M3250 105v25"/><path d="M3335 105v25"/><path d="M3420 105v25"/><path d="M3505 105v25"/><path d="M3590 105v50"/></g></g><use x="12.5391" y="273.5" href="#d"/><use x="15.0366" y="273.5" href="#b"/><use x="19.2066" y="273.5" href="#a"/><use x="21.2916" y="273.5" href="#c"/><use x="97.5391" y="273.5" href="#d"/><use x="100.0366" y="273.5" href="#e"/><use x="104.2066" y="273.5" href="#a"/><use x="106.2916" y="273.5" href="#b"/><use x="183.788" y="273.5" href="#c"/><use x="187.958" y="273.5" href="#a"/><use x="190.043" y="273.5" href="#c"/><use x="268.7879" y="273.5" href="#e"/><use x="272.9579" y="273.5" href="#a"/><use x="275.0429" y="273.5" href="#b"/><use x="353.7879" y="273.5" href="#b"/><use x="357.9579" y="273.5" href="#a"/><use x="360.0429" y="273.5" href="#c"/><g class="b"><path d="M190 2655h3400" class="c"/><g class="d"><path d="M190 2655v-50"/><path d="M275 2655v-25"/><path d="M360 2655v-25"/><path d="M445 2655v-25"/><path d="M530 2655v-25"/><path d="M615 2655v-25"/><path d="M700 2655v-25"/><path d="M785 2655v-25"/><path d="M870 2655v-25"/><path d="M955 2655v-25"/><path d="M1040 2655v-50"/><path d="M1125 2655v-25"/><path d="M1210 2655v-25"/><path d="M1295 2655v-25"/><path d="M1380 2655v-25"/><path d="M1465 2655v-25"/><path d="M1550 2655v-25"/><path d="M1635 2655v-25"/><path d="M1720 2655v-25"/><path d="M1805 2655v-25"/><path d="M1890 2655v-50"/><path d="M1975 2655v-25"/><path d="M2060 2655v-25"/><path d="M2145 2655v-25"/><path d="M2230 2655v-25"/><path d="M2315 2655v-25"/><path d="M2400 2655v-25"/><path d="M2485 2655v-25"/><path d="M2570 2655v-25"/><path d="M2655 2655v-25"/><path d="M2740 2655v-50"/><path d="M2825 2655v-25"/><path d="M2910 2655v-25"/><path d="M2995 2655v-25"/><path d="M3080 2655v-25"/><path d="M3165 2655v-25"/><path d="M3250 2655v-25"/><path d="M3335 2655v-25"/><path d="M3420 2655v-25"/><path d="M3505 2655v-25"/><path d="M3590 2655v-50"/></g></g><use x="12.5391" y="6" href="#d"/><use x="15.0366" y="6" href="#b"/><use x="19.2066" y="6" href="#a"/><use x="21.2916" y="6" href="#c"/><use x="97.5391" y="6" href="#d"/><use x="100.0366" y="6" href="#e"/><use x="104.2066" y="6" href="#a"/><use x="106.2916" y="6" href="#b"/><use x="183.788" y="6" href="#c"/><use x="187.958" y="6" href="#a"/><use x="190.043" y="6" href="#c"/><use x="268.7879" y="6" href="#e"/><use x="272.9579" y="6" href="#a"/><use x="275.0429" y="6" href="#b"/><use x="353.7879" y="6" href="#b"/><use x="357.9579" y="6" href="#a"/><use x="360.0429" y="6" href="#c"/><g class="b"><path d="M190 105v2550" class="c"/><g class="d"><path d="M190 105h50"/><path d="M190 156.015625h25"/><path d="M190 206.992188h25"/><path d="M190 258.007812h25"/><path d="M190 308.984375h25"/><path d="M190 360h25"/><path d="M190 411.015625h25"/><path d="M190 461.992188h25"/><path d="M190 513.007812h25"/><path d="M190 563.984375h25"/><path d="M190 615h50"/><path d="M190 666.015625h25"/><path d="M190 716.992188h25"/><path d="M190 768.007812h25"/><path d="M190 818.984375h25"/><path d="M190 870h25"/><path d="M190 921.015625h25"/><path d="M190 971.992188h25"/><path d="M190 1023.007812h25"/><path d="M190 1073.984375h25"/><path d="M190 1125h50"/><path d="M190 1176.015625h25"/><path d="M190 1226.992188h25"/><path d="M190 1278.007812h25"/><path d="M190 1328.984375h25"/><path d="M190 1380h25"/><path d="M190 1431.015625h25"/><path d="M190 1481.992188h25"/><path d="M190 1533.007812h25"/><path d="M190 1583.984375h25"/><path d="M190 1635h50"/><path d="M190 1686.015625h25"/><path d="M190 1736.992188h25"/><path d="M190 1788.007812h25"/><path d="M190 1838.984375h25"/><path d="M190 1890h25"/><path d="M190 1941.015625h25"/><path d="M190 1991.992188h25"/><path d="M190 2043.007812h25"/><path d="M190 2093.984375h25"/><path d="M190 2145h50"/><path d="M190 2196.015625h25"/><path d="M190 2246.992188h25"/><path d="M190 2298.007812h25"/><path d="M190 2348.984375h25"/><path d="M190 2400h25"/><path d="M190 2451.015625h25"/><path d="M190 2501.992188h25"/><path d="M190 2553.007812h25"/><path d="M190 2603.984375h25"/><path d="M190 2655h50"/></g></g><use x="-.1719" y="267.25" href="#d"/><use x="2.3256" y="267.25" href="#b"/><use x="6.4956" y="267.25" href="#a"/><use x="8.5806" y="267.25" href="#c"/><use x="-.1719" y="216" href="#d"/><use x="2.3256" y="216" href="#e"/><use x="6.4956" y="216" href="#a"/><use x="8.5806" y="216" href="#b"/><use x="2.3254" y="164.75" href="#c"/><use x="6.4954" y="164.75" href="#a"/><use x="8.5804" y="164.75" href="#c"/><use x="2.3254" y="114.125" href="#e"/><use x="6.4954" y="114.125" href="#a"/><use x="8.5804" y="114.125" href="#b"/><use x="2.3254" y="62.875" href="#b"/><use x="6.4954" y="62.875" href="#a"/><use x="8.5804" y="62.875" href="#c"/><use x="2.3254" y="12.25" href="#f"/><use x="6.4954" y="12.25" href="#a"/><use x="8.5804" y="12.25" href="#b"/><g class="b"><path d="M3590 105v2550" class="c"/><g class="d"><path d="M3590 105h-50"/><path d="M3590 156.015625h-25"/><path d="M3590 206.992188h-25"/><path d="M3590 258.007812h-25"/><path d="M3590 308.984375h-25"/><path d="M3590 360h-25"/><path d="M3590 411.015625h-25"/><path d="M3590 461.992188h-25"/><path d="M3590 513.007812h-25"/><path d="M3590 563.984375h-25"/><path d="M3590 615h-50"/><path d="M3590 666.015625h-25"/><path d="M3590 716.992188h-25"/><path d="M3590 768.007812h-25"/><path d="M3590 818.984375h-25"/><path d="M3590 870h-25"/><path d="M3590 921.015625h-25"/><path d="M3590 971.992188h-25"/><path d="M3590 1023.007812h-25"/><path d="M3590 1073.984375h-25"/><path d="M3590 1125h-50"/><path d="M3590 1176.015625h-25"/><path d="M3590 1226.992188h-25"/><path d="M3590 1278.007812h-25"/><path d="M3590 1328.984375h-25"/><path d="M3590 1380h-25"/><path d="M3590 1431.015625h-25"/><path d="M3590 1481.992188h-25"/><path d="M3590 1533.007812h-25"/><path d="M3590 1583.984375h-25"/><path d="M3590 1635h-50"/><path d="M3590 1686.015625h-25"/><path d="M3590 1736.992188h-25"/><path d="M3590 1788.007812h-25"/><path d="M3590 1838.984375h-25"/><path d="M3590 1890h-25"/><path d="M3590 1941.015625h-25"/><path d="M3590 1991.992188h-25"/><path d="M3590 2043.007812h-25"/><path d="M3590 2093.984375h-25"/><path d="M3590 2145h-50"/><path d="M3590 2196.015625h-25"/><path d="M3590 2246.992188h-25"/><path d="M3590 2298.007812h-25"/><path d="M3590 2348.984375h-25"/><path d="M3590 2400h-25"/><path d="M3590 2451.015625h-25"/><path d="M3590 2501.992188h-25"/><path d="M3590 2553.007812h-25"/><path d="M3590 2603.984375h-25"/><path d="M3590 2655h-50"/></g></g><use x="365.25" y="267.25" href="#d"/><use x="367.7475" y="267.25" href="#b"/><use x="371.9175" y="267.25" href="#a"/><use x="374.0025" y="267.25" href="#c"/><use x="365.25" y="216" href="#d"/><use x="367.7475" y="216" href="#e"/><use x="371.9175" y="216" href="#a"/><use x="374.0025" y="216" href="#b"/><use x="365.25" y="164.75" href="#c"/><use x="369.42" y="164.75" href="#a"/><use x="371.505" y="164.75" href="#c"/><use x="365.25" y="114.125" href="#e"/><use x="369.42" y="114.125" href="#a"/><use x="371.505" y="114.125" href="#b"/><use x="365.25" y="62.875" href="#b"/><use x="369.42" y="62.875" href="#a"/><use x="371.505" y="62.875" href="#c"/><use x="365.25" y="12.25" href="#f"/><use x="369.42" y="12.25" href="#a"/><use x="371.505" y="12.25" href="#b"/><g clip-path="url(#t)"><path d="M190 1202.8125l6.25 4.0625 6.25 3.867188 6.25 3.75L215 1218.125l6.25 3.4375 6.25 3.28125 6.25 3.125 6.25 2.96875 6.25 2.773438 6.25 2.578124 6.25 2.421876 6.25 2.265624 6.25 2.03125 6.25 1.875 6.25 1.640626 6.25 1.484374 6.25 1.289063 6.25 1.09375 6.25.859375 6.25.703125 6.25.46875 6.25.3125 6.25.078125 6.25-.117188 6.25-.3125 6.25-.46875 6.25-.703124 6.25-.898438 6.25-1.054688 6.25-1.289062 6.25-1.445312 6.25-1.601563 6.25-1.835937 6.25-1.992188 6.25-2.148438 6.25-2.304687 6.25-2.5 6.25-2.65625 6.25-2.773437 6.25-2.96875 6.25-3.085938 6.25-3.242188 6.25-3.359374 6.25-3.515626 6.25-3.632812 6.25-3.710938 6.25-3.867187 6.25-3.984375 6.25-4.0625 6.25-4.140625 6.25-4.257813 6.25-4.335937 6.25-4.375 6.25-4.492187 6.25-4.53125 6.25-4.609376 6.25-4.648437 6.25-4.6875L565 1143.75l31.25-24.023438 6.25-4.84375 6.25-4.765624 6.25-4.804688 12.5-9.453125 6.25-4.6875 6.25-4.648437 6.25-4.609376 6.25-4.53125 6.25-4.492187 6.25-4.414063 6.25-4.375 6.25-4.257812 6.25-4.179688 6.25-4.140624 6.25-4.023438 6.25-3.945312 6.25-3.828126 6.25-3.75 6.25-3.632812 6.25-3.515625 6.25-3.4375 6.25-3.28125 6.25-3.203125 6.25-3.046875 6.25-2.96875 6.25-2.8125 6.25-2.65625 6.25-2.578125 6.25-2.421875 6.25-2.265625 6.25-2.1875 6.25-1.992188 6.25-1.875 6.25-1.757812 6.25-1.5625 6.25-1.445312 6.25-1.328126 6.25-1.171874 6.25-1.015626 6.25-.859374 6.25-.742188 6.25-.585938 6.25-.429687 6.25-.3125 6.25-.15625H890l6.25.117187 6.25.273438 6.25.429688 6.25.507812 6.25.703125 6.25.820313 6.25.9375 6.25 1.09375 6.25 1.210937 6.25 1.328125 6.25 1.484375 6.25 1.601563 6.25 1.679687 6.25 1.835937 6.25 1.953126 6.25 2.03125 6.25 2.1875 6.25 2.265624 6.25 2.421876 6.25 2.460937 6.25 2.578125 6.25 2.695312 6.25 2.773438 6.25 2.890625 6.25 2.929687 6.25 3.046876 6.25 3.125 6.25 3.203124 6.25 3.28125 6.25 3.359376 6.25 3.398437 6.25 3.476563 6.25 3.554687 6.25 3.59375 6.25 3.671875 6.25 3.710938 6.25 3.75 12.5 7.65625 12.5 7.8125 6.25 3.945312 6.25 4.023438 6.25 3.984374 6.25 4.023438 6.25 4.0625 6.25 4.101562 6.25 4.0625 12.5 8.203126 6.25 4.140624 12.5 8.203126 6.25 4.140624 12.5 8.203126 6.25 4.0625 6.25 4.101562 6.25 4.0625 12.5 8.046875 12.5 7.96875 6.25 3.945313 12.5 7.8125 12.5 7.65625 6.25 3.789062 6.25 3.75 6.25 3.710938 12.5 7.265624 12.5 7.109376 6.25 3.476562 12.5 6.796875 6.25 3.320313 6.25 3.28125 6.25 3.242187 6.25 3.164063 12.5 6.171874 6.25 3.007813 6.25 2.929687 6.25 2.890626 6.25 2.8125 6.25 2.773437 6.25 2.734375 6.25 2.65625 6.25 2.578125 6.25 2.539063 6.25 2.460937 6.25 2.421875 6.25 2.34375 6.25 2.304688 6.25 2.226562 6.25 2.1875 6.25 2.109375 6.25 2.03125 6.25 1.992187 6.25 1.953126 6.25 1.875 6.25 1.796874 6.25 1.757813 6.25 1.71875 6.25 1.640625 6.25 1.601562 6.25 1.523438 6.25 1.484375 6.25 1.40625 6.25 1.367187 6.25 1.328126 6.25 1.25 6.25 1.210937 12.5 2.265625 6.25 1.054688 6.25 1.015624 12.5 1.875 12.5 1.71875 6.25.78125 6.25.742188 6.25.703125 12.5 1.25 6.25.585937 6.25.546876 6.25.507812 12.5.9375 12.5.78125 6.25.351562 6.25.3125 12.5.546876 12.5.46875 6.25.195312 18.75.46875 6.25.117188 18.75.234374 6.25.039063 6.25.078125 6.25.039062h6.25l6.25.039063h43.75l6.25.039063h18.75l18.75.117187 25 .3125 6.25.117187 18.75.46875 6.25.195313 12.5.46875 12.5.546875 6.25.3125 6.25.351562 6.25.390626 12.5.859374 12.5 1.015626 6.25.546874 6.25.585938 12.5 1.328125 12.5 1.484375 6.25.820312 6.25.859376 6.25.898437 6.25.976563 6.25 1.015624 6.25 1.054688 6.25 1.132812 6.25 1.171876 6.25 1.25 6.25 1.289062 6.25 1.367188 6.25 1.445312 6.25 1.484375 6.25 1.5625 6.25 1.640625 6.25 1.679688 6.25 1.796874 6.25 1.875 6.25 1.914063 6.25 1.992187 6.25 2.109376 6.25 2.1875 6.25 2.265624 6.25 2.34375 6.25 2.460938 6.25 2.539062 6.25 2.617188 6.25 2.734375 6.25 2.8125 6.25 2.96875 6.25 3.046875 6.25 3.125 6.25 3.28125 6.25 3.398438 6.25 3.515624 6.25 3.59375 6.25 3.75 6.25 3.90625 6.25 4.023438 6.25 4.140625 6.25 4.296875 6.25 4.414062 6.25 4.609376 6.25 4.726562 6.25 4.882812 6.25 5.078126 6.25 5.195312 6.25 5.390625 6.25 5.585937 6.25 5.742188 6.25 5.9375 6.25 6.09375 6.25 6.328125 6.25 6.523437 6.25 6.71875 6.25 6.953126 6.25 7.1875 6.25 7.382812 6.25 7.617188 6.25 7.851562 6.25 8.125 6.25 8.359375 6.25 8.632813 6.25 8.90625 6.25 9.179687 6.25 9.453125 6.25 9.765625 6.25 10.078125 6.25 10.351562 6.25 10.742188 6.25 11.015625 6.25 11.40625 6.25 11.757813 6.25 12.070312 6.25 12.5 6.25 12.890625 6.25 13.28125 6.25 13.710937 6.25 14.140626 6.25 14.570312 6.25 15 6.25 15.507812 6.25 16.015626 6.25 16.484374 6.25 17.03125 6.25 17.539063 6.25 18.085937L2658.75 1900l6.25 19.257812 6.25 19.882813 6.25 20.507813 6.25 21.171874 6.25 21.875 6.25 22.539063 6.25 23.242187 6.25 24.023438 6.25 24.765625 6.25 25.585937 6.25 26.40625 6.25 27.265626 6.25 28.125 6.25 29.0625 6.25 30 6.25 30.976562 6.25 31.953125 6.25 33.046875 6.25 34.101562 6.25 35.195313 6.25 36.40625 6.25 37.578125 6.25 38.828125 6.25 40.117187 6.25 41.445313 6.25 42.8125 6.25 44.21875 6.25 45.742187 6.25 47.265626 6.25 48.828124 6.25 50.46875" style="fill:none;stroke-width:12.5;stroke-linecap:round;stroke-linejoin:round;stroke:#00008b;stroke-miterlimit:10;transform:matrix(.1,0,0,-.1,0,274)"/></g><g clip-path="url(#u)"><path d="M190 955.273438l6.25 1.054687 6.25 1.289063 6.25 1.601562 6.25 1.875 6.25 2.148438 6.25 2.382812 6.25 2.695312L240 971.25l6.25 3.164062 6.25 3.4375 6.25 3.671876 6.25 3.90625 6.25 4.140624 6.25 4.335938 6.25 4.570312 6.25 4.726563 6.25 4.960937 6.25 5.117188 6.25 5.351562 6.25 5.46875 6.25 5.625 6.25 5.78125 6.25 5.9375L340 1047.5l6.25 6.171875 6.25 6.289063 6.25 6.367187 6.25 6.484375 6.25 6.5625 6.25 6.601562 6.25 6.679688 6.25 6.71875 6.25 6.757812 6.25 6.835938 12.5 13.59375 6.25 6.835938 12.5 13.59375 12.5 13.4375 6.25 6.679687 12.5 13.125 6.25 6.445313 6.25 6.367187 6.25 6.25 6.25 6.171875 6.25 6.054688 6.25 5.9375 6.25 5.78125 6.25 5.703124 6.25 5.507813 6.25 5.390625 6.25 5.195312 6.25 5.078126L546.25 1255l6.25 4.726562 6.25 4.53125 6.25 4.375 6.25 4.140626 6.25 3.984374 6.25 3.789063 6.25 3.554687 6.25 3.398438 6.25 3.164062 6.25 2.929688 6.25 2.734375 6.25 2.5 6.25 2.304687 6.25 2.070313 6.25 1.875 6.25 1.640625 6.25 1.40625 6.25 1.171875 6.25.9375 6.25.742187 6.25.507813 6.25.273437 6.25.039063 6.25-.15625 6.25-.390625 6.25-.625 6.25-.820312 6.25-1.015626 6.25-1.25 6.25-1.484374L740 1304.375l6.25-1.875 6.25-2.070312 6.25-2.304688 6.25-2.460938 6.25-2.65625 6.25-2.851562 6.25-3.046875 6.25-3.203125 6.25-3.398438 6.25-3.554687 6.25-3.710937L815 1269.375l6.25-4.0625 6.25-4.179688 6.25-4.296874 6.25-4.492188 6.25-4.570312 6.25-4.726563 6.25-4.882813 6.25-4.921874 6.25-5.078126 6.25-5.195312 6.25-5.273438 6.25-5.351562 6.25-5.46875 6.25-5.546875 6.25-5.585937 6.25-5.703126 6.25-5.742187 6.25-5.78125 6.25-5.859375 6.25-5.898438 6.25-5.9375 12.5-11.953124 6.25-6.054688 6.25-6.015625 18.75-18.164063 6.25-6.015624 6.25-6.054688 12.5-12.03125 12.5-11.875 6.25-5.898438 6.25-5.859374 6.25-5.820313 6.25-5.78125 6.25-5.703125 6.25-5.664062 6.25-5.585938 6.25-5.507812 6.25-5.46875 6.25-5.390626 6.25-5.273437 6.25-5.234375 6.25-5.117188 6.25-5.039062 6.25-4.960938 6.25-4.84375 6.25-4.765624 6.25-4.648438 6.25-4.53125 6.25-4.453125 6.25-4.335937 6.25-4.21875 6.25-4.101563 6.25-4.023437 6.25-3.867188 6.25-3.75 6.25-3.671875 6.25-3.515625 6.25-3.398438 6.25-3.28125 6.25-3.125 6.25-3.046874 6.25-2.890626 6.25-2.773437 6.25-2.65625 6.25-2.5 6.25-2.382813 6.25-2.265624 6.25-2.109376 6.25-2.03125 6.25-1.835937 6.25-1.757813 6.25-1.601562 6.25-1.484375 6.25-1.367187 6.25-1.25 6.25-1.09375 6.25-.976563 6.25-.859375 6.25-.742188 6.25-.585937 6.25-.507813 6.25-.351562 6.25-.234375 6.25-.117187 6.25-.039063 6.25.117187 6.25.234376 6.25.3125 6.25.429687 6.25.585937 6.25.625 6.25.78125 6.25.859376 6.25.976562 6.25 1.054688 6.25 1.210937 6.25 1.25 6.25 1.367187 6.25 1.445313 6.25 1.5625 6.25 1.640625 6.25 1.71875 6.25 1.796875 6.25 1.875 6.25 1.992187 6.25 2.03125L1515 924.375l6.25 2.1875 6.25 2.265625 6.25 2.34375 6.25 2.421875 6.25 2.5 6.25 2.539062 6.25 2.578126 6.25 2.695312 6.25 2.734375 6.25 2.773437 6.25 2.851563 6.25 2.890625 6.25 2.929688 6.25 2.96875 6.25 3.046874 6.25 3.085938 6.25 3.125 6.25 3.164062 6.25 3.203126 6.25 3.242187 6.25 3.28125 12.5 6.640625 12.5 6.796875 6.25 3.4375 12.5 6.953125 12.5 7.03125 12.5 7.109375 6.25 3.59375 6.25 3.632813 6.25 3.59375 6.25 3.632812 12.5 7.34375 6.25 3.632812 6.25 3.710938 6.25 3.671875 18.75 11.132813 6.25 3.75 12.5 7.421874 18.75 11.25 6.25 3.710938 112.5 67.5 6.25 3.789062 18.75 11.25 12.5 7.578126 6.25 3.75 12.5 7.578124 6.25 3.828126 12.5 7.578124 6.25 3.867188 12.5 7.65625 6.25 3.867188 25 15.625 6.25 3.945312 12.5 7.96875 6.25 4.023438 12.5 8.125 6.25 4.101562 12.5 8.28125 6.25 4.21875 12.5 8.515625 6.25 4.296875 6.25 4.375 6.25 4.414062 6.25 4.453126 6.25 4.492187 6.25 4.53125 6.25 4.609375 12.5 9.375 6.25 4.804688 6.25 4.84375 6.25 4.921874 6.25 4.960938 6.25 5.078125 6.25 5.15625 6.25 5.195313 6.25 5.3125 6.25 5.390624 6.25 5.46875 6.25 5.546876 6.25 5.703124 6.25 5.742188 6.25 5.898438 6.25 5.976562 6.25 6.09375 6.25 6.210938 6.25 6.328124 6.25 6.445313 6.25 6.601563 6.25 6.71875 6.25 6.875 6.25 7.03125 6.25 7.148437 6.25 7.304687 6.25 7.5 6.25 7.65625 6.25 7.8125 6.25 8.007813 6.25 8.164063 6.25 8.359374 6.25 8.59375 6.25 8.789063 6.25 8.984375 6.25 9.21875 6.25 9.414062 6.25 9.6875 6.25 9.921876 6.25 10.15625 6.25 10.429687L2458.75 1615l6.25 10.976562 6.25 11.25 6.25 11.5625 6.25 11.835938 6.25 12.1875 6.25 12.5 6.25 12.8125 6.25 13.203125 6.25 13.554687 6.25 13.90625 6.25 14.335938 6.25 14.6875 6.25 15.117188 6.25 15.546874 6.25 15.976563 6.25 16.445313 6.25 16.875 6.25 17.421874 6.25 17.851563 6.25 18.4375 6.25 18.90625 6.25 19.53125 6.25 20.039063 6.25 20.664062 6.25 21.289062 6.25 21.914063 6.25 22.539063 6.25 23.242187 6.25 23.90625 6.25 24.648437 6.25 25.429688 6.25 26.171875 6.25 26.953125 6.25 27.773438 6.25 28.671874 6.25 29.53125L2690 2313.125l6.25 31.40625 6.25 32.34375 6.25 33.398438 6.25 34.414062 6.25 35.507812 6.25 36.640626 6.25 37.773437 6.25 38.984375 6.25 40.234375 6.25 41.484375 6.25 42.851562 6.25 44.21875 6.25 45.625 6.25 47.109376 6.25 48.632812" style="fill:none;stroke-width:12.5;stroke-linecap:round;stroke-linejoin:round;stroke:#006400;stroke-miterlimit:10;transform:matrix(.1,0,0,-.1,0,274)"/></g><style>.a{fill:none;stroke:#bfbfbf;stroke-dasharray:12.5,18.75;stroke-linecap:round;stroke-miterlimit:10;stroke-width:6.25;transform:matrix(.1,0,0,-.1,0,274)}.b{fill:none;stroke:#000;stroke-miterlimit:10;transform:matrix(.1,0,0,-.1,0,274)}.c{stroke-linecap:square;stroke-width:12.5}.d{stroke-width:6.25}.e{fill:none;stroke:#bfbfbf;stroke-linecap:round;stroke-miterlimit:10;stroke-width:6.25;transform:matrix(.1,0,0,-.1,0,274)}</style></svg>