<svg xmlns="http://www.w3.org/2000/svg" width="778.923pt" height="275.999pt" viewBox="0 0 778.923 275.999"><defs><use href="#a" id="y"/><use href="#b" id="A"/><use href="#c" id="C"/><use href="#d" id="u"/><use href="#e" id="w"/><use href="#f" id="E"/><use href="#a" id="z"/><use href="#b" id="B"/><use href="#c" id="D"/><use href="#d" id="v"/><use href="#e" id="x"/><use href="#f" id="F"/><clipPath id="G"><use href="#g"/></clipPath><clipPath id="H"><use href="#h"/></clipPath><clipPath id="I"><path d="M20.4961 10.0117H21v254.9727h-.5039zm0 0"/></clipPath><clipPath id="J"><path d="M105 10.0117h1v254.9727h-1zm0 0"/></clipPath><clipPath id="K"><use href="#g"/></clipPath><clipPath id="L"><path d="M275 10.0117h1v254.9727h-1zm0 0"/></clipPath><clipPath id="M"><path d="M360 10.0117h.4648v254.9727H360zm0 0"/></clipPath><clipPath id="N"><path d="M20.4961 222h339.9688v1H20.4961zm0 0"/></clipPath><clipPath id="O"><path d="M20.4961 179h339.9688v2H20.4961zm0 0"/></clipPath><clipPath id="P"><use href="#h"/></clipPath><clipPath id="Q"><path d="M20.4961 94h339.9688v2H20.4961zm0 0"/></clipPath><clipPath id="R"><path d="M20.4961 52h339.9688v1H20.4961zm0 0"/></clipPath><clipPath id="S"><path d="M20.4961 10.0117h339.9688V11H20.4961zm0 0"/></clipPath><clipPath id="T"><path d="M188 269h5v6.4844h-5zm0 0"/></clipPath><clipPath id="U"><path d="M367 263h12.4609v6H367zm0 0"/></clipPath><clipPath id="V"><path d="M367 220h12.4609v6H367zm0 0"/></clipPath><clipPath id="W"><path d="M20.4961 30h339.9688v215H20.4961zm0 0"/></clipPath><clipPath id="X"><use href="#i"/></clipPath><clipPath id="Y"><use href="#j"/></clipPath><clipPath id="Z"><path d="M419.3828 10.0117H420v254.9727h-.6172zm0 0"/></clipPath><clipPath id="a0"><path d="M504 10.0117h1v254.9727h-1zm0 0"/></clipPath><clipPath id="a1"><use href="#i"/></clipPath><clipPath id="a2"><path d="M674 10.0117h1v254.9727h-1zm0 0"/></clipPath><clipPath id="a3"><path d="M759 10.0117h.3477v254.9727H759zm0 0"/></clipPath><clipPath id="a4"><path d="M419.3828 222h339.9648v1H419.3828zm0 0"/></clipPath><clipPath id="a5"><path d="M419.3828 179h339.9648v2H419.3828zm0 0"/></clipPath><clipPath id="a6"><use href="#j"/></clipPath><clipPath id="a7"><path d="M419.3828 94h339.9648v2H419.3828zm0 0"/></clipPath><clipPath id="a8"><path d="M419.3828 52h339.9648v1H419.3828zm0 0"/></clipPath><clipPath id="a9"><path d="M419.3828 10.0117h339.9648V11H419.3828zm0 0"/></clipPath><clipPath id="aa"><path d="M587 269h5v6.4844h-5zm0 0"/></clipPath><clipPath id="ab"><path d="M399.3828 263H413v6h-13.6172zm0 0"/></clipPath><clipPath id="ac"><path d="M399.3828 220H413v6h-13.6172zm0 0"/></clipPath><clipPath id="ad"><path d="M399.3828 178H411v6h-11.6172zm0 0"/></clipPath><clipPath id="ae"><path d="M765 263h13.3477v6H765zm0 0"/></clipPath><clipPath id="af"><path d="M765 220h13.3477v6H765zm0 0"/></clipPath><clipPath id="ag"><path d="M419.3828 30h339.9648v109H419.3828zm0 0"/></clipPath><path id="a" d="M2.125-2.3437H.3438v.5469H2.125zm0 0"/><path id="b" d="M3.7969-.6562H1c.0625-.4375.3125-.703125.953125-1.09375l.75-.4062c.75-.40625 1.125-.953125 1.125-1.59375 0-.453125-.171875-.859375-.484375-1.140625C3.015625-5.1875 2.625-5.3125 2.125-5.3125c-.671875 0-1.171875.234375-1.46875.6875-.1875.28125-.265625.609375-.28125 1.15625h.6563c.03125-.359375.078125-.578125.15625-.75.171875-.328125.515625-.515625.921875-.515625.59375 0 1.046875.421875 1.046875.984375 0 .421875-.25.78125-.71875 1.0625l-.6875.3906C.640625-1.671875.3125-1.171875.25 0h3.5469zm0 0"/><path id="c" d="M1.9375-3.7812V0h.6719v-5.3125h-.4375c-.2344.8125-.39065.921875-1.406275 1.046875v.4844zm0 0"/><path id="d" d="M2.0625-5.3125c-.5 0-.9375.21875-1.21875.578125C.5-4.265625.328125-3.5625.328125-2.578125c0 1.796875.59375 2.75 1.734375 2.75 1.125 0 1.734375-.953125 1.734375-2.703125 0-1.03125-.15625-1.71875-.515625-2.203125C3-5.109375 2.5625-5.3125 2.0625-5.3125zm0 .5781c.71875 0 1.0625.71875 1.0625 2.140625C3.125-1.078125 2.78125-.375 2.046875-.375 1.34375-.375 1-1.109375 1-2.5625c0-1.453125.34375-2.171875 1.0625-2.171875zm0 0"/><path id="e" d="M1.4375-.7812H.6563V0h.7813zm0 0"/><path id="f" d="M1.6563-2.4375h.3594c.734375 0 1.109375.328125 1.109375.953125C3.125-.8125 2.703125-.40625 2.015625-.40625 1.296875-.40625.9375-.765625.90625-1.546875H.2344C.265625-1.125.34375-.84375.46875-.59375.75-.09375 1.265625.171875 2 .171875c1.09375 0 1.796875-.65625 1.796875-1.65625 0-.671875-.265625-1.046875-.90625-1.265625.5-.203125.75-.578125.75-1.109375 0-.90625-.609375-1.453125-1.625-1.453125C.9375-5.3125.375-4.734375.359375-3.59375h.6563c0-.328125.03125-.515625.109375-.671875.15625-.296875.484375-.46875.90625-.46875.578125 0 .9375.34375.9375.90625 0 .375-.140625.59375-.4375.71875C2.359375-3.03125 2.125-3 1.65625-3zm0 0"/><path id="g" d="M190 10.0117h1v254.9727h-1zm0 0"/><path id="h" d="M20.4961 137h339.9688v1H20.4961zm0 0"/><path id="i" d="M589 10.0117h1v254.9727h-1zm0 0"/><path id="j" d="M419.3828 137h339.9648v1H419.3828zm0 0"/><path id="k" d="M1899.993 105.0157v2549.9786"/><path id="l" d="M199.9812 1379.9855h3400.0236"/><path id="m" d="M199.9812 105.0157v2549.9786"/><path id="n" d="M3600.0048 105.0157v2549.9786"/><path id="o" d="M199.9812 2654.9943h3400.0236"/><path id="p" d="M1900.0145 105.0157v2549.9786"/><path id="q" d="M200.0027 1379.9855h3399.9845"/><path id="r" d="M200.0027 105.0157v2549.9786"/><path id="s" d="M3599.9872 105.0157v2549.9786"/><path id="t" d="M200.0027 2654.9943h3399.9845"/></defs><g clip-path="url(#G)"><use href="#k" class="g"/></g><g clip-path="url(#H)"><use href="#l" class="g"/></g><g clip-path="url(#I)"><use href="#m" class="a"/></g><g clip-path="url(#J)"><path d="M1049.987092 105.01572v2549.978614" class="a"/></g><g clip-path="url(#K)"><use href="#k" class="a"/></g><g clip-path="url(#L)"><path d="M2749.998879 105.01572v2549.978614" class="a"/></g><g clip-path="url(#M)"><use href="#n" class="a"/></g><g clip-path="url(#N)"><path d="M199.981199 530.018667h3400.023574" class="a"/></g><g clip-path="url(#O)"><path d="M199.981199 954.982547h3400.023574" class="a"/></g><g clip-path="url(#P)"><use href="#l" class="a"/></g><g clip-path="url(#Q)"><path d="M199.981199 1804.988441h3400.023574" class="a"/></g><g clip-path="url(#R)"><path d="M199.981199 2229.991387h3400.023574" class="a"/></g><g clip-path="url(#S)"><use href="#o" class="a"/></g><g class="e"><path d="M199.981199 105.01572h3400.023574" class="c"/><g class="d"><path d="M199.981199 105.01572v49.965876"/><path d="M284.989601 105.01572v25.002471"/><path d="M369.998004 105.01572v25.002471"/><path d="M455.006407 105.01572v25.002471"/><path d="M540.014809 105.01572v25.002471"/><path d="M624.984146 105.01572v25.002471"/><path d="M709.992548 105.01572v25.002471"/><path d="M795.000951 105.01572v25.002471"/><path d="M880.009353 105.01572v25.002471"/><path d="M964.97869 105.01572v25.002471"/><path d="M1049.987092 105.01572v49.965876"/><path d="M1134.995495 105.01572v25.002471"/><path d="M1220.003898 105.01572v25.002471"/><path d="M1305.0123 105.01572v25.002471"/><path d="M1389.981637 105.01572v25.002471"/><path d="M1474.990039 105.01572v25.002471"/><path d="M1559.998442 105.01572v25.002471"/><path d="M1645.006844 105.01572v25.002471"/><path d="M1730.015247 105.01572v25.002471"/><path d="M1814.984583 105.01572v25.002471"/><path d="M1899.992986 105.01572v49.965876"/><path d="M1985.001389 105.01572v25.002471"/><path d="M2070.009791 105.01572v25.002471"/><path d="M2155.018194 105.01572v25.002471"/><path d="M2239.98753 105.01572v25.002471"/><path d="M2324.995933 105.01572v25.002471"/><path d="M2410.004335 105.01572v25.002471"/><path d="M2495.012738 105.01572v25.002471"/><path d="M2579.982074 105.01572v25.002471"/><path d="M2664.990477 105.01572v25.002471"/><path d="M2749.998879 105.01572v49.965876"/><path d="M2835.007282 105.01572v25.002471"/><path d="M2920.015685 105.01572v25.002471"/><path d="M3004.985021 105.01572v25.002471"/><path d="M3089.993424 105.01572v25.002471"/><path d="M3175.001826 105.01572v25.002471"/><path d="M3260.010229 105.01572v25.002471"/><path d="M3345.018631 105.01572v25.002471"/><path d="M3429.987968 105.01572v25.002471"/><path d="M3514.99637 105.01572v25.002471"/><path d="M3600.004773 105.01572v49.965876"/></g></g><use x="16.5402" y="274.985" href="#y"/><use x="19.0374" y="274.985" href="#A"/><use x="101.5315" y="274.985" href="#y"/><use x="104.0288" y="274.985" href="#C"/><use x="188.3962" y="274.985" href="#u" clip-path="url(#T)"/><use x="273.3875" y="274.985" href="#C"/><use x="358.3789" y="274.985" href="#A"/><g class="e"><use href="#o" class="c"/><g class="d"><path d="M199.981199 2654.994334v-50.004943"/><path d="M284.989601 2654.994334v-25.002471"/><path d="M369.998004 2654.994334v-25.002471"/><path d="M455.006407 2654.994334v-25.002471"/><path d="M540.014809 2654.994334v-25.002471"/><path d="M624.984146 2654.994334v-25.002471"/><path d="M709.992548 2654.994334v-25.002471"/><path d="M795.000951 2654.994334v-25.002471"/><path d="M880.009353 2654.994334v-25.002471"/><path d="M964.97869 2654.994334v-25.002471"/><path d="M1049.987092 2654.994334v-50.004943"/><path d="M1134.995495 2654.994334v-25.002471"/><path d="M1220.003898 2654.994334v-25.002471"/><path d="M1305.0123 2654.994334v-25.002471"/><path d="M1389.981637 2654.994334v-25.002471"/><path d="M1474.990039 2654.994334v-25.002471"/><path d="M1559.998442 2654.994334v-25.002471"/><path d="M1645.006844 2654.994334v-25.002471"/><path d="M1730.015247 2654.994334v-25.002471"/><path d="M1814.984583 2654.994334v-25.002471"/><path d="M1899.992986 2654.994334v-50.004943"/><path d="M1985.001389 2654.994334v-25.002471"/><path d="M2070.009791 2654.994334v-25.002471"/><path d="M2155.018194 2654.994334v-25.002471"/><path d="M2239.98753 2654.994334v-25.002471"/><path d="M2324.995933 2654.994334v-25.002471"/><path d="M2410.004335 2654.994334v-25.002471"/><path d="M2495.012738 2654.994334v-25.002471"/><path d="M2579.982074 2654.994334v-25.002471"/><path d="M2664.990477 2654.994334v-25.002471"/><path d="M2749.998879 2654.994334v-50.004943"/><path d="M2835.007282 2654.994334v-25.002471"/><path d="M2920.015685 2654.994334v-25.002471"/><path d="M3004.985021 2654.994334v-25.002471"/><path d="M3089.993424 2654.994334v-25.002471"/><path d="M3175.001826 2654.994334v-25.002471"/><path d="M3260.010229 2654.994334v-25.002471"/><path d="M3345.018631 2654.994334v-25.002471"/><path d="M3429.987968 2654.994334v-25.002471"/><path d="M3514.99637 2654.994334v-25.002471"/><path d="M3600.004773 2654.994334v-50.004943"/></g></g><use x="16.5402" y="6.8865" href="#y"/><use x="19.0374" y="6.8865" href="#A"/><use x="101.5315" y="6.8865" href="#y"/><use x="104.0288" y="6.8865" href="#C"/><use x="188.3962" y="6.8865" href="#u"/><use x="273.3875" y="6.8865" href="#C"/><use x="358.3789" y="6.8865" href="#A"/><g class="e"><use href="#m" class="c"/><g class="d"><path d="M199.981199 147.480855h25.002471"/><path d="M199.981199 189.985056h25.002471"/><path d="M199.981199 232.489257h25.002471"/><path d="M199.981199 274.993459h25.002471"/><path d="M199.981199 317.49766h25.002471"/><path d="M199.981199 360.001861h25.002471"/><path d="M199.981199 402.506063h25.002471"/><path d="M199.981199 445.010264h25.002471"/><path d="M199.981199 487.514465h25.002471"/><path d="M199.981199 530.018667h50.004943"/><path d="M199.981199 572.483802h25.002471"/><path d="M199.981199 614.988003h25.002471"/><path d="M199.981199 657.492204h25.002471"/><path d="M199.981199 699.996405h25.002471"/><path d="M199.981199 742.500607h25.002471"/><path d="M199.981199 785.004808h25.002471"/><path d="M199.981199 827.509009h25.002471"/><path d="M199.981199 870.013211h25.002471"/><path d="M199.981199 912.517412h25.002471"/><path d="M199.981199 954.982547h50.004943"/><path d="M199.981199 997.486748h25.002471"/><path d="M199.981199 1039.99095h25.002471"/><path d="M199.981199 1082.495151h25.002471"/><path d="M199.981199 1124.999352h25.002471"/><path d="M199.981199 1167.503554h25.002471"/><path d="M199.981199 1210.007755h25.002471"/><path d="M199.981199 1252.511956h25.002471"/><path d="M199.981199 1295.016158h25.002471"/><path d="M199.981199 1337.481292h25.002471"/><path d="M199.981199 1379.985494h50.004943"/><path d="M199.981199 1422.489695h25.002471"/><path d="M199.981199 1464.993896h25.002471"/><path d="M199.981199 1507.498098h25.002471"/><path d="M199.981199 1550.002299h25.002471"/><path d="M199.981199 1592.5065h25.002471"/><path d="M199.981199 1635.010702h25.002471"/><path d="M199.981199 1677.514903h25.002471"/><path d="M199.981199 1720.019104h25.002471"/><path d="M199.981199 1762.484239h25.002471"/><path d="M199.981199 1804.988441h50.004943"/><path d="M199.981199 1847.492642h25.002471"/><path d="M199.981199 1889.996843h25.002471"/><path d="M199.981199 1932.501044h25.002471"/><path d="M199.981199 1975.005246h25.002471"/><path d="M199.981199 2017.509447h25.002471"/><path d="M199.981199 2060.013648h25.002471"/><path d="M199.981199 2102.51785h25.002471"/><path d="M199.981199 2144.982985h25.002471"/><path d="M199.981199 2187.487186h25.002471"/><path d="M199.981199 2229.991387h50.004943"/><path d="M199.981199 2272.495589h25.002471"/><path d="M199.981199 2314.99979h25.002471"/><path d="M199.981199 2357.503991h25.002471"/><path d="M199.981199 2400.008193h25.002471"/><path d="M199.981199 2442.512394h25.002471"/><path d="M199.981199 2485.016595h25.002471"/><path d="M199.981199 2527.48173h25.002471"/><path d="M199.981199 2569.985931h25.002471"/><path d="M199.981199 2612.490133h25.002471"/><path d="M199.981199 2654.994334h50.004943"/></g></g><use x=".7034" y="268.7356" href="#y"/><use x="3.2007" y="268.7356" href="#u"/><use x="7.3703" y="268.7356" href="#w"/><use x="9.4551" y="268.7356" href="#E"/><use x=".7034" y="225.6148" href="#y"/><use x="3.2007" y="225.6148" href="#u"/><use x="7.3703" y="225.6148" href="#w"/><use x="9.4551" y="225.6148" href="#A"/><use x=".7034" y="183.744" href="#y"/><use x="3.2007" y="183.744" href="#u"/><use x="7.3703" y="183.744" href="#w"/><use x="9.4551" y="183.744" href="#C"/><use x="3.2005" y="141.2482" href="#u"/><use x="7.3701" y="141.2482" href="#w"/><use x="9.4549" y="141.2482" href="#u"/><use x="3.2005" y="98.7524" href="#u"/><use x="7.3701" y="98.7524" href="#w"/><use x="9.4549" y="98.7524" href="#u"/><use x="3.2005" y="55.6316" href="#u"/><use x="7.3701" y="55.6316" href="#w"/><use x="9.4549" y="55.6316" href="#A"/><use x="3.2005" y="13.1358" href="#u"/><use x="7.3701" y="13.1358" href="#w"/><use x="9.4549" y="13.1358" href="#E"/><g class="e"><use href="#n" class="c"/><g class="d"><path d="M3600.004773 147.480855h-25.002471"/><path d="M3600.004773 189.985056h-25.002471"/><path d="M3600.004773 232.489257h-25.002471"/><path d="M3600.004773 274.993459h-25.002471"/><path d="M3600.004773 317.49766h-25.002471"/><path d="M3600.004773 360.001861h-25.002471"/><path d="M3600.004773 402.506063h-25.002471"/><path d="M3600.004773 445.010264h-25.002471"/><path d="M3600.004773 487.514465h-25.002471"/><path d="M3600.004773 530.018667h-50.004943"/><path d="M3600.004773 572.483802h-25.002471"/><path d="M3600.004773 614.988003h-25.002471"/><path d="M3600.004773 657.492204h-25.002471"/><path d="M3600.004773 699.996405h-25.002471"/><path d="M3600.004773 742.500607h-25.002471"/><path d="M3600.004773 785.004808h-25.002471"/><path d="M3600.004773 827.509009h-25.002471"/><path d="M3600.004773 870.013211h-25.002471"/><path d="M3600.004773 912.517412h-25.002471"/><path d="M3600.004773 954.982547h-50.004943"/><path d="M3600.004773 997.486748h-25.002471"/><path d="M3600.004773 1039.99095h-25.002471"/><path d="M3600.004773 1082.495151h-25.002471"/><path d="M3600.004773 1124.999352h-25.002471"/><path d="M3600.004773 1167.503554h-25.002471"/><path d="M3600.004773 1210.007755h-25.002471"/><path d="M3600.004773 1252.511956h-25.002471"/><path d="M3600.004773 1295.016158h-25.002471"/><path d="M3600.004773 1337.481292h-25.002471"/><path d="M3600.004773 1379.985494h-50.004943"/><path d="M3600.004773 1422.489695h-25.002471"/><path d="M3600.004773 1464.993896h-25.002471"/><path d="M3600.004773 1507.498098h-25.002471"/><path d="M3600.004773 1550.002299h-25.002471"/><path d="M3600.004773 1592.5065h-25.002471"/><path d="M3600.004773 1635.010702h-25.002471"/><path d="M3600.004773 1677.514903h-25.002471"/><path d="M3600.004773 1720.019104h-25.002471"/><path d="M3600.004773 1762.484239h-25.002471"/><path d="M3600.004773 1804.988441h-50.004943"/><path d="M3600.004773 1847.492642h-25.002471"/><path d="M3600.004773 1889.996843h-25.002471"/><path d="M3600.004773 1932.501044h-25.002471"/><path d="M3600.004773 1975.005246h-25.002471"/><path d="M3600.004773 2017.509447h-25.002471"/><path d="M3600.004773 2060.013648h-25.002471"/><path d="M3600.004773 2102.51785h-25.002471"/><path d="M3600.004773 2144.982985h-25.002471"/><path d="M3600.004773 2187.487186h-25.002471"/><path d="M3600.004773 2229.991387h-50.004943"/><path d="M3600.004773 2272.495589h-25.002471"/><path d="M3600.004773 2314.99979h-25.002471"/><path d="M3600.004773 2357.503991h-25.002471"/><path d="M3600.004773 2400.008193h-25.002471"/><path d="M3600.004773 2442.512394h-25.002471"/><path d="M3600.004773 2485.016595h-25.002471"/><path d="M3600.004773 2527.48173h-25.002471"/><path d="M3600.004773 2569.985931h-25.002471"/><path d="M3600.004773 2612.490133h-25.002471"/><path d="M3600.004773 2654.994334h-50.004943"/></g></g><g clip-path="url(#U)"><use x="366.7137" y="268.7356" href="#y"/><use x="369.211" y="268.7356" href="#u"/><use x="373.3806" y="268.7356" href="#w"/><use x="375.4654" y="268.7356" href="#E"/></g><g clip-path="url(#V)"><use x="366.7137" y="225.6148" href="#y"/><use x="369.211" y="225.6148" href="#u"/><use x="373.3806" y="225.6148" href="#w"/><use x="375.4654" y="225.6148" href="#A"/></g><use x="366.7137" y="183.744" href="#y"/><use x="369.211" y="183.744" href="#u"/><use x="373.3806" y="183.744" href="#w"/><use x="375.4654" y="183.744" href="#C"/><use x="366.7137" y="141.2482" href="#u"/><use x="370.8833" y="141.2482" href="#w"/><use x="372.9681" y="141.2482" href="#u"/><use x="366.7137" y="98.7524" href="#u"/><use x="370.8833" y="98.7524" href="#w"/><use x="372.9681" y="98.7524" href="#u"/><use x="366.7137" y="55.6316" href="#u"/><use x="370.8833" y="55.6316" href="#w"/><use x="372.9681" y="55.6316" href="#A"/><use x="366.7137" y="13.1358" href="#u"/><use x="370.8833" y="13.1358" href="#w"/><use x="372.9681" y="13.1358" href="#E"/><g clip-path="url(#W)"><path d="M199.981199 1379.985494l6.250618 31.018691 6.250617 30.588961 6.250618 30.081098 6.250618 29.651369 6.250618 29.182572 6.250618 28.713775 6.250618 28.284046 6.250618 27.776183 6.250617 27.346453 6.250618 26.916723 6.250618 26.408861 6.250618 25.940064 6.250618 25.510334 6.250618 25.041537 6.250617 24.611808 6.250618 24.103945 6.250618 23.674215 6.250618 23.205419 6.250618 22.775689 6.250618 22.267826 6.250617 21.838096 6.250618 21.3693 6.250618 20.900503 6.250618 20.470773 6.250618 19.962911 6.250618 19.533181 6.250617 19.103451 6.250618 18.595588 6.250618 18.165858 6.250618 17.657995 6.250618 17.228266 6.250618 16.798535 6.250618 16.329739 6.250617 15.821877 6.250618 15.392146 6.250618 14.962417 6.250618 14.454553 6.250618 14.024824 6.250618 13.556028 6.250617 13.126297 6.250618 12.618435 6.250618 12.188705 6.250618 11.719908 6.250618 11.251112 6.250618 10.782316 6.250617 10.352586 6.250618 9.883789 6.250618 9.414993 6.250618 8.946197 6.250618 8.516467 6.250618 8.04767 6.250617 7.578874 6.250618 7.110078 6.250618 6.680348 6.250618 6.211552 6.250618 5.742755 6.250618 5.273959 6.250618 4.805162 6.250617 4.375432 6.250618 3.906637 6.250618 3.437839 6.250618 3.00811 6.211551 2.539314 6.250618 2.031451 6.250618 1.640787 6.250618 1.132924 6.250618.703195 6.250618.234398 6.250617-.234398 6.250618-.703195 6.250618-1.132924 6.250618-1.640787 6.250618-2.031451 6.250618-2.539314 6.250617-3.00811 6.250618-3.437839 6.250618-3.906637 6.250618-4.375432 6.250618-4.805162 6.250618-5.273959 6.250618-5.742755 6.250617-6.211552 6.250618-6.680348 6.250618-7.110078 6.250618-7.578874 6.250618-8.04767 6.250618-8.516467 6.250617-8.946197 6.250618-9.414993 6.250618-9.883789 6.250618-10.352586 6.250618-10.782316 6.250618-11.251112 6.250617-11.719908 6.250618-12.188705 6.250618-12.618435 6.250618-13.126297 6.250618-13.556028 6.250618-14.024824 6.250617-14.454553 6.250618-14.962417 6.250618-15.392146 6.250618-15.821877 6.250618-16.329739 6.250618-16.798535 6.250618-17.228266 6.250617-17.657995 6.250618-18.165858 6.250618-18.595588 6.250618-19.103451 6.250618-19.533181 6.250618-19.962911 6.250617-20.470773 6.250618-20.900503 6.250618-21.3693 6.250618-21.838096 6.250618-22.267826 6.250618-22.775689 6.250617-23.205419 6.250618-23.674215 6.250618-24.103945 6.250618-24.611808 6.250618-25.041537 6.250618-25.510334 6.250617-25.940064 6.211552-26.408861 6.250618-26.916723 6.250618-27.346453 6.250617-27.776183 6.250618-28.284046 6.250618-28.713775 6.250618-29.182572 6.250618-29.651369 6.250618-30.081098 6.250618-30.588961 12.501235-62.037382 6.250618-30.549895 6.250618-30.081098 6.250618-29.651369 6.250618-29.182572 6.250617-28.713775 6.250618-28.284046 6.250618-27.776183 6.250618-27.38552 6.250618-26.877656 6.250618-26.408861 6.250617-25.97913 6.250618-25.510334 6.250618-25.041538 6.250618-24.572741 6.250618-24.143012 6.250618-23.635148 6.250617-23.205419 6.250618-22.775689 6.250618-22.267826 6.250618-21.838096 6.250618-21.3693 6.250618-20.900503 6.250618-20.470774 6.250617-20.001977 6.250618-19.494114 6.250618-19.103451 6.250618-18.595588 6.250618-18.165858 6.250618-17.697062 6.250617-17.228265 6.250618-16.759469 6.250618-16.329739 6.250618-15.860943 6.250618-15.392147 6.250618-14.92335 6.250617-14.49362 6.250618-13.985757 6.250618-13.556028 6.250618-13.126297 6.250618-12.618435 6.250618-12.188705 6.250617-11.719908 6.250618-11.251112 6.250618-10.782316 6.250618-10.352586 6.250618-9.883789 6.250618-9.414993 6.250618-8.985264 6.250617-8.4774 6.250618-8.04767 6.250618-7.578875 6.211552-7.110077 6.250617-6.680348 6.250618-6.211552 6.250618-5.742755 6.250618-5.273959 6.250618-4.844228 6.250618-4.336367 6.250617-3.906636 6.250618-3.476906 6.250618-2.969043 6.250618-2.539314 6.250618-2.070517 6.250618-1.601721 6.250617-1.132924 6.250618-.703195 6.250618-.234398 6.250618.234398 6.250618.703195 6.250618 1.132924 6.250617 1.601721 6.250618 2.070517 6.250618 2.539314 6.250618 2.969043 6.250618 3.476906 6.250618 3.906636 6.250618 4.336367 6.250617 4.844228 6.250618 5.273959 6.250618 5.742755 6.250618 6.211552 6.250618 6.680348 6.250618 7.110077 6.250617 7.578875 6.250618 8.04767 6.250618 8.4774 6.250618 8.985264 6.250618 9.414993 6.250618 9.883789 6.250617 10.352586 6.250618 10.782316 6.250618 11.251112 6.250618 11.719908 6.250618 12.188705 6.250618 12.618435 6.250617 13.126297 6.250618 13.556028 6.250618 13.985757 6.250618 14.49362 6.250618 14.92335 6.250618 15.392147 6.250618 15.860943 6.250617 16.329739 6.250618 16.759469 6.250618 17.228265 6.250618 17.697062 6.250618 18.165858 6.250618 18.595588 6.250617 19.103451 6.250618 19.494114 6.250618 20.001977 6.250618 20.470774 6.250618 20.900503 6.250618 21.3693 6.211551 21.838096 6.250618 22.267826 6.250618 22.775689 6.250618 23.205419 6.250617 23.635148 6.250618 24.143012 6.250618 24.572741 6.250618 25.041538 6.250618 25.510334 6.250618 25.97913 6.250618 26.408861 6.250617 26.877656 6.250618 27.38552 6.250618 27.776183 6.250618 28.284046 6.250618 28.713775 6.250618 29.182572 6.250617 29.651369 6.250618 30.081098 6.250618 30.549895 12.501236 62.037382 6.250618 30.588961 6.250617 30.081098 6.250618 29.651369 6.250618 29.182572 6.250618 28.713775 6.250618 28.284046 6.250618 27.776183 6.250617 27.346453 6.250618 26.916723 6.250618 26.408861 6.250618 25.940064 6.250618 25.510334 6.250618 25.041537 6.250618 24.611808 6.250617 24.103945 6.250618 23.674215 6.250618 23.205419 6.250618 22.775689 6.250618 22.267826 6.250618 21.838096 6.250617 21.3693 6.250618 20.900503 6.250618 20.470773 6.250618 19.962911 6.250618 19.533181 6.250618 19.103451 6.250617 18.595588 6.250618 18.165858 6.250618 17.657995 6.250618 17.228266 6.250618 16.798535 6.250618 16.329739 6.250617 15.821877 6.250618 15.392146 6.250618 14.962417 6.250618 14.454553 6.250618 14.024824 6.250618 13.556028 6.250618 13.126297 6.250617 12.618435 6.250618 12.188705 6.211552 11.719908 6.250618 11.251112 6.250617 10.782316 6.250618 10.352586 6.250618 9.883789 6.250618 9.414993 6.250618 8.946197 6.250618 8.516467 6.250617 8.04767 6.250618 7.578874 6.250618 7.110078 6.250618 6.680348 6.250618 6.211552 6.250618 5.742755 6.250617 5.273959 6.250618 4.805162 6.250618 4.375432 6.250618 3.906637 6.250618 3.437839 6.250618 3.00811 6.250617 2.539314 6.250618 2.031451 6.250618 1.640787 6.250618 1.132924 6.250618.703195 6.250618.234398 6.250618-.234398 6.250617-.703195 6.250618-1.132924 6.250618-1.640787 6.250618-2.031451 6.250618-2.539314 6.250618-3.00811 6.250617-3.437839 6.250618-3.906637 6.250618-4.375432 6.250618-4.805162 6.250618-5.273959 6.250618-5.742755 6.250617-6.211552 6.250618-6.680348 6.250618-7.110078 6.250618-7.578874 6.250618-8.04767 6.250618-8.516467 6.250617-8.946197 6.250618-9.414993 6.250618-9.883789 6.250618-10.352586 6.250618-10.782316 6.250618-11.251112 6.250618-11.719908 6.250617-12.188705 6.250618-12.618435 6.250618-13.126297 6.250618-13.556028 6.250618-14.024824 6.250618-14.454553 6.250617-14.962417 6.250618-15.392146 6.250618-15.821877 6.250618-16.329739 6.250618-16.798535 6.250618-17.228266 6.211551-17.657995 6.250618-18.165858 6.250618-18.595588 6.250618-19.103451 6.250617-19.533181 6.250618-19.962911 6.250618-20.470773 6.250618-20.900503 6.250618-21.3693 6.250618-21.838096 6.250617-22.267826 6.250618-22.775689 6.250618-23.205419 6.250618-23.674215 6.250618-24.103945 6.250618-24.611808 6.250618-25.041537 6.250617-25.510334 6.250618-25.940064 6.250618-26.408861 6.250618-26.916723 6.250618-27.346453 6.250618-27.776183 6.250617-28.284046 6.250618-28.713775 6.250618-29.182572 6.250618-29.651369 6.250618-30.081098 6.250618-30.588961 12.501235-62.037382 6.250618-30.549895 6.250618-30.081098 6.250618-29.651369 6.250618-29.182572 6.250618-28.713775 6.250617-28.284046 6.250618-27.776183 6.250618-27.38552 6.250618-26.877656 6.250618-26.408861 6.250618-25.97913 6.250617-25.510334 6.250618-25.041538 6.250618-24.572741 6.250618-24.143012 6.250618-23.635148 6.250618-23.205419 6.250617-22.775689 6.250618-22.267826 6.250618-21.838096 6.250618-21.3693 6.250618-20.900503 6.250618-20.470774 6.250617-20.001977 6.250618-19.494114 6.250618-19.103451 6.250618-18.595588 6.250618-18.165858 6.250618-17.697062 6.250618-17.228265 6.250617-16.759469 6.250618-16.329739 6.211552-15.860943 6.250618-15.392147 6.250617-14.92335 6.250618-14.49362 6.250618-13.985757 6.250618-13.556028 6.250618-13.126297 6.250618-12.618435 6.250617-12.188705 6.250618-11.719908 6.250618-11.251112 6.250618-10.782316 6.250618-10.352586 6.250618-9.883789 6.250617-9.414993 6.250618-8.985264 6.250618-8.4774 6.250618-8.04767 6.250618-7.578875 6.250618-7.110077 6.250617-6.680348 6.250618-6.211552 6.250618-5.742755 6.250618-5.273959 6.250618-4.844228 6.250618-4.336367 6.250618-3.906636 6.250617-3.476906 6.250618-2.969043 6.250618-2.539314 6.250618-2.070517 6.250618-1.601721 6.250618-1.132924 6.250617-.703195 6.250618-.234398 6.250618.234398 6.250618.703195 6.250618 1.132924 6.250618 1.601721 6.250617 2.070517 6.250618 2.539314 6.250618 2.969043 6.250618 3.476906 6.250618 3.906636 6.250618 4.336367 6.250617 4.844228 6.250618 5.273959 6.250618 5.742755 6.250618 6.211552 6.250618 6.680348 6.250618 7.110077 6.250618 7.578875 6.250617 8.04767 6.250618 8.4774 6.250618 8.985264 6.250618 9.414993 6.250618 9.883789 6.250618 10.352586 6.250617 10.782316 6.250618 11.251112 6.250618 11.719908 6.250618 12.188705 6.250618 12.618435 6.211551 13.126297 6.250618 13.556028 6.250618 13.985757 6.250618 14.49362 6.250618 14.92335 6.250617 15.392147 6.250618 15.860943 6.250618 16.329739 6.250618 16.759469 6.250618 17.228265 6.250618 17.697062 6.250617 18.165858 6.250618 18.595588 6.250618 19.103451 6.250618 19.494114 6.250618 20.001977 6.250618 20.470774 6.250618 20.900503 6.250617 21.3693 6.250618 21.838096 6.250618 22.267826 6.250618 22.775689 6.250618 23.205419 6.250618 23.635148 6.250617 24.143012 6.250618 24.572741 6.250618 25.041538 6.250618 25.510334 6.250618 25.97913 6.250618 26.408861 6.250617 26.877656 6.250618 27.38552 6.250618 27.776183 6.250618 28.284046 6.250618 28.713775 6.250618 29.182572 6.250617 29.651369 6.250618 30.081098 6.250618 30.549895 6.250618 31.018691" style="fill:none;stroke-width:12.5;stroke-linecap:round;stroke-linejoin:round;stroke:#00008b;stroke-miterlimit:10;transform:matrix(.0999901,0,0,-.0999901,.499951,275.484909)"/></g><g clip-path="url(#X)"><use href="#p" class="h"/></g><g clip-path="url(#Y)"><use href="#q" class="h"/></g><g clip-path="url(#Z)"><use href="#r" class="b"/></g><g clip-path="url(#a0)"><path d="M1050.008597 105.01572v2549.978614" class="b"/></g><g clip-path="url(#a1)"><use href="#p" class="b"/></g><g clip-path="url(#a2)"><path d="M2749.981318 105.01572v2549.978614" class="b"/></g><g clip-path="url(#a3)"><use href="#s" class="b"/></g><g clip-path="url(#a4)"><path d="M200.002704 530.018667h3399.984507" class="b"/></g><g clip-path="url(#a5)"><path d="M200.002704 954.982547h3399.984507" class="b"/></g><g clip-path="url(#a6)"><use href="#q" class="b"/></g><g clip-path="url(#a7)"><path d="M200.002704 1804.988441h3399.984507" class="b"/></g><g clip-path="url(#a8)"><path d="M200.002704 2229.991387h3399.984507" class="b"/></g><g clip-path="url(#a9)"><use href="#t" class="b"/></g><g class="f"><path d="M200.002704 105.01572h3399.984507" class="c"/><g class="d"><path d="M200.002704 105.01572v49.965876"/><path d="M285.011106 105.01572v25.002471"/><path d="M369.980442 105.01572v25.002471"/><path d="M454.988845 105.01572v25.002471"/><path d="M539.997248 105.01572v25.002471"/><path d="M625.00565 105.01572v25.002471"/><path d="M710.014053 105.01572v25.002471"/><path d="M794.983389 105.01572v25.002471"/><path d="M879.991792 105.01572v25.002471"/><path d="M965.000194 105.01572v25.002471"/><path d="M1050.008597 105.01572v49.965876"/><path d="M1135.017 105.01572v25.002471"/><path d="M1219.986336 105.01572v25.002471"/><path d="M1304.994739 105.01572v25.002471"/><path d="M1390.003141 105.01572v25.002471"/><path d="M1475.011544 105.01572v25.002471"/><path d="M1559.98088 105.01572v25.002471"/><path d="M1644.989283 105.01572v25.002471"/><path d="M1729.997685 105.01572v25.002471"/><path d="M1815.006088 105.01572v25.002471"/><path d="M1900.014491 105.01572v49.965876"/><path d="M1984.983827 105.01572v25.002471"/><path d="M2069.99223 105.01572v25.002471"/><path d="M2155.000632 105.01572v25.002471"/><path d="M2240.009035 105.01572v25.002471"/><path d="M2325.017437 105.01572v25.002471"/><path d="M2409.986774 105.01572v25.002471"/><path d="M2494.995176 105.01572v25.002471"/><path d="M2580.003579 105.01572v25.002471"/><path d="M2665.011982 105.01572v25.002471"/><path d="M2749.981318 105.01572v49.965876"/><path d="M2834.98972 105.01572v25.002471"/><path d="M2919.998123 105.01572v25.002471"/><path d="M3005.006526 105.01572v25.002471"/><path d="M3090.014928 105.01572v25.002471"/><path d="M3174.984265 105.01572v25.002471"/><path d="M3259.992667 105.01572v25.002471"/><path d="M3345.00107 105.01572v25.002471"/><path d="M3430.009473 105.01572v25.002471"/><path d="M3515.017875 105.01572v25.002471"/><path d="M3599.987211 105.01572v49.965876"/></g></g><use x="415.4247" y="274.985" href="#z"/><use x="417.922" y="274.985" href="#B"/><use x="500.4161" y="274.985" href="#z"/><use x="502.9133" y="274.985" href="#D"/><use x="587.2807" y="274.985" href="#v" clip-path="url(#aa)"/><use x="672.2721" y="274.985" href="#D"/><use x="757.2634" y="274.985" href="#B"/><g class="f"><use href="#t" class="c"/><g class="d"><path d="M200.002704 2654.994334v-50.004943"/><path d="M285.011106 2654.994334v-25.002471"/><path d="M369.980442 2654.994334v-25.002471"/><path d="M454.988845 2654.994334v-25.002471"/><path d="M539.997248 2654.994334v-25.002471"/><path d="M625.00565 2654.994334v-25.002471"/><path d="M710.014053 2654.994334v-25.002471"/><path d="M794.983389 2654.994334v-25.002471"/><path d="M879.991792 2654.994334v-25.002471"/><path d="M965.000194 2654.994334v-25.002471"/><path d="M1050.008597 2654.994334v-50.004943"/><path d="M1135.017 2654.994334v-25.002471"/><path d="M1219.986336 2654.994334v-25.002471"/><path d="M1304.994739 2654.994334v-25.002471"/><path d="M1390.003141 2654.994334v-25.002471"/><path d="M1475.011544 2654.994334v-25.002471"/><path d="M1559.98088 2654.994334v-25.002471"/><path d="M1644.989283 2654.994334v-25.002471"/><path d="M1729.997685 2654.994334v-25.002471"/><path d="M1815.006088 2654.994334v-25.002471"/><path d="M1900.014491 2654.994334v-50.004943"/><path d="M1984.983827 2654.994334v-25.002471"/><path d="M2069.99223 2654.994334v-25.002471"/><path d="M2155.000632 2654.994334v-25.002471"/><path d="M2240.009035 2654.994334v-25.002471"/><path d="M2325.017437 2654.994334v-25.002471"/><path d="M2409.986774 2654.994334v-25.002471"/><path d="M2494.995176 2654.994334v-25.002471"/><path d="M2580.003579 2654.994334v-25.002471"/><path d="M2665.011982 2654.994334v-25.002471"/><path d="M2749.981318 2654.994334v-50.004943"/><path d="M2834.98972 2654.994334v-25.002471"/><path d="M2919.998123 2654.994334v-25.002471"/><path d="M3005.006526 2654.994334v-25.002471"/><path d="M3090.014928 2654.994334v-25.002471"/><path d="M3174.984265 2654.994334v-25.002471"/><path d="M3259.992667 2654.994334v-25.002471"/><path d="M3345.00107 2654.994334v-25.002471"/><path d="M3430.009473 2654.994334v-25.002471"/><path d="M3515.017875 2654.994334v-25.002471"/><path d="M3599.987211 2654.994334v-50.004943"/></g></g><use x="415.4247" y="6.8865" href="#z"/><use x="417.922" y="6.8865" href="#B"/><use x="500.4161" y="6.8865" href="#z"/><use x="502.9133" y="6.8865" href="#D"/><use x="587.2807" y="6.8865" href="#v"/><use x="672.2721" y="6.8865" href="#D"/><use x="757.2634" y="6.8865" href="#B"/><g class="f"><use href="#r" class="c"/><g class="d"><path d="M200.002704 147.480855h25.002471"/><path d="M200.002704 189.985056h25.002471"/><path d="M200.002704 232.489257h25.002471"/><path d="M200.002704 274.993459h25.002471"/><path d="M200.002704 317.49766h25.002471"/><path d="M200.002704 360.001861h25.002471"/><path d="M200.002704 402.506063h25.002471"/><path d="M200.002704 445.010264h25.002471"/><path d="M200.002704 487.514465h25.002471"/><path d="M200.002704 530.018667h50.004942"/><path d="M200.002704 572.483802h25.002471"/><path d="M200.002704 614.988003h25.002471"/><path d="M200.002704 657.492204h25.002471"/><path d="M200.002704 699.996405h25.002471"/><path d="M200.002704 742.500607h25.002471"/><path d="M200.002704 785.004808h25.002471"/><path d="M200.002704 827.509009h25.002471"/><path d="M200.002704 870.013211h25.002471"/><path d="M200.002704 912.517412h25.002471"/><path d="M200.002704 954.982547h50.004942"/><path d="M200.002704 997.486748h25.002471"/><path d="M200.002704 1039.99095h25.002471"/><path d="M200.002704 1082.495151h25.002471"/><path d="M200.002704 1124.999352h25.002471"/><path d="M200.002704 1167.503554h25.002471"/><path d="M200.002704 1210.007755h25.002471"/><path d="M200.002704 1252.511956h25.002471"/><path d="M200.002704 1295.016158h25.002471"/><path d="M200.002704 1337.481292h25.002471"/><path d="M200.002704 1379.985494h50.004942"/><path d="M200.002704 1422.489695h25.002471"/><path d="M200.002704 1464.993896h25.002471"/><path d="M200.002704 1507.498098h25.002471"/><path d="M200.002704 1550.002299h25.002471"/><path d="M200.002704 1592.5065h25.002471"/><path d="M200.002704 1635.010702h25.002471"/><path d="M200.002704 1677.514903h25.002471"/><path d="M200.002704 1720.019104h25.002471"/><path d="M200.002704 1762.484239h25.002471"/><path d="M200.002704 1804.988441h50.004942"/><path d="M200.002704 1847.492642h25.002471"/><path d="M200.002704 1889.996843h25.002471"/><path d="M200.002704 1932.501044h25.002471"/><path d="M200.002704 1975.005246h25.002471"/><path d="M200.002704 2017.509447h25.002471"/><path d="M200.002704 2060.013648h25.002471"/><path d="M200.002704 2102.51785h25.002471"/><path d="M200.002704 2144.982985h25.002471"/><path d="M200.002704 2187.487186h25.002471"/><path d="M200.002704 2229.991387h50.004942"/><path d="M200.002704 2272.495589h25.002471"/><path d="M200.002704 2314.99979h25.002471"/><path d="M200.002704 2357.503991h25.002471"/><path d="M200.002704 2400.008193h25.002471"/><path d="M200.002704 2442.512394h25.002471"/><path d="M200.002704 2485.016595h25.002471"/><path d="M200.002704 2527.48173h25.002471"/><path d="M200.002704 2569.985931h25.002471"/><path d="M200.002704 2612.490133h25.002471"/><path d="M200.002704 2654.994334h50.004942"/></g></g><g clip-path="url(#ab)"><use x="399.588" y="268.7356" href="#z"/><use x="402.0853" y="268.7356" href="#v"/><use x="406.2549" y="268.7356" href="#x"/><use x="408.3397" y="268.7356" href="#F"/></g><g clip-path="url(#ac)"><use x="399.588" y="225.6148" href="#z"/><use x="402.0853" y="225.6148" href="#v"/><use x="406.2549" y="225.6148" href="#x"/><use x="408.3397" y="225.6148" href="#B"/></g><g clip-path="url(#ad)"><use x="399.588" y="183.744" href="#z"/><use x="402.0853" y="183.744" href="#v"/><use x="406.2549" y="183.744" href="#x"/><use x="408.3397" y="183.744" href="#D"/></g><use x="402.085" y="141.2482" href="#v"/><use x="406.2546" y="141.2482" href="#x"/><use x="408.3394" y="141.2482" href="#v"/><use x="402.085" y="98.7524" href="#v"/><use x="406.2546" y="98.7524" href="#x"/><use x="408.3394" y="98.7524" href="#v"/><use x="402.085" y="55.6316" href="#v"/><use x="406.2546" y="55.6316" href="#x"/><use x="408.3394" y="55.6316" href="#B"/><use x="402.085" y="13.1358" href="#v"/><use x="406.2546" y="13.1358" href="#x"/><use x="408.3394" y="13.1358" href="#F"/><g class="f"><use href="#s" class="c"/><g class="d"><path d="M3599.987211 147.480855h-25.002471"/><path d="M3599.987211 189.985056h-25.002471"/><path d="M3599.987211 232.489257h-25.002471"/><path d="M3599.987211 274.993459h-25.002471"/><path d="M3599.987211 317.49766h-25.002471"/><path d="M3599.987211 360.001861h-25.002471"/><path d="M3599.987211 402.506063h-25.002471"/><path d="M3599.987211 445.010264h-25.002471"/><path d="M3599.987211 487.514465h-25.002471"/><path d="M3599.987211 530.018667h-50.004942"/><path d="M3599.987211 572.483802h-25.002471"/><path d="M3599.987211 614.988003h-25.002471"/><path d="M3599.987211 657.492204h-25.002471"/><path d="M3599.987211 699.996405h-25.002471"/><path d="M3599.987211 742.500607h-25.002471"/><path d="M3599.987211 785.004808h-25.002471"/><path d="M3599.987211 827.509009h-25.002471"/><path d="M3599.987211 870.013211h-25.002471"/><path d="M3599.987211 912.517412h-25.002471"/><path d="M3599.987211 954.982547h-50.004942"/><path d="M3599.987211 997.486748h-25.002471"/><path d="M3599.987211 1039.99095h-25.002471"/><path d="M3599.987211 1082.495151h-25.002471"/><path d="M3599.987211 1124.999352h-25.002471"/><path d="M3599.987211 1167.503554h-25.002471"/><path d="M3599.987211 1210.007755h-25.002471"/><path d="M3599.987211 1252.511956h-25.002471"/><path d="M3599.987211 1295.016158h-25.002471"/><path d="M3599.987211 1337.481292h-25.002471"/><path d="M3599.987211 1379.985494h-50.004942"/><path d="M3599.987211 1422.489695h-25.002471"/><path d="M3599.987211 1464.993896h-25.002471"/><path d="M3599.987211 1507.498098h-25.002471"/><path d="M3599.987211 1550.002299h-25.002471"/><path d="M3599.987211 1592.5065h-25.002471"/><path d="M3599.987211 1635.010702h-25.002471"/><path d="M3599.987211 1677.514903h-25.002471"/><path d="M3599.987211 1720.019104h-25.002471"/><path d="M3599.987211 1762.484239h-25.002471"/><path d="M3599.987211 1804.988441h-50.004942"/><path d="M3599.987211 1847.492642h-25.002471"/><path d="M3599.987211 1889.996843h-25.002471"/><path d="M3599.987211 1932.501044h-25.002471"/><path d="M3599.987211 1975.005246h-25.002471"/><path d="M3599.987211 2017.509447h-25.002471"/><path d="M3599.987211 2060.013648h-25.002471"/><path d="M3599.987211 2102.51785h-25.002471"/><path d="M3599.987211 2144.982985h-25.002471"/><path d="M3599.987211 2187.487186h-25.002471"/><path d="M3599.987211 2229.991387h-50.004942"/><path d="M3599.987211 2272.495589h-25.002471"/><path d="M3599.987211 2314.99979h-25.002471"/><path d="M3599.987211 2357.503991h-25.002471"/><path d="M3599.987211 2400.008193h-25.002471"/><path d="M3599.987211 2442.512394h-25.002471"/><path d="M3599.987211 2485.016595h-25.002471"/><path d="M3599.987211 2527.48173h-25.002471"/><path d="M3599.987211 2569.985931h-25.002471"/><path d="M3599.987211 2612.490133h-25.002471"/><path d="M3599.987211 2654.994334h-50.004942"/></g></g><g clip-path="url(#ae)"><use x="765.5983" y="268.7356" href="#z"/><use x="768.0956" y="268.7356" href="#v"/><use x="772.2652" y="268.7356" href="#x"/><use x="774.35" y="268.7356" href="#F"/></g><g clip-path="url(#af)"><use x="765.5983" y="225.6148" href="#z"/><use x="768.0956" y="225.6148" href="#v"/><use x="772.2652" y="225.6148" href="#x"/><use x="774.35" y="225.6148" href="#B"/></g><use x="765.5983" y="183.744" href="#z"/><use x="768.0956" y="183.744" href="#v"/><use x="772.2652" y="183.744" href="#x"/><use x="774.35" y="183.744" href="#D"/><use x="765.5983" y="141.2482" href="#v"/><use x="769.7679" y="141.2482" href="#x"/><use x="771.8527" y="141.2482" href="#v"/><use x="765.5983" y="98.7524" href="#v"/><use x="769.7679" y="98.7524" href="#x"/><use x="771.8527" y="98.7524" href="#v"/><use x="765.5983" y="55.6316" href="#v"/><use x="769.7679" y="55.6316" href="#x"/><use x="771.8527" y="55.6316" href="#B"/><use x="765.5983" y="13.1358" href="#v"/><use x="769.7679" y="13.1358" href="#x"/><use x="771.8527" y="13.1358" href="#F"/><g clip-path="url(#ag)"><path d="M200.002704 1379.985494l6.250617 31.018691 6.250618 30.588961 6.250618 30.081098 6.250618 29.651369 6.250618 29.182572 6.250618 28.713775 6.250617 28.284046 6.250618 27.776183 6.250618 27.346453 6.250618 26.916723 6.250618 26.408861 6.250618 25.940064 6.250617 25.510334 6.250618 25.041537 6.250618 24.611808 6.250618 24.103945 6.250618 23.674215 6.250618 23.205419 6.250618 22.775689 6.250617 22.267826 6.250618 21.838096 6.250618 21.3693 6.250618 20.900503 6.250618 20.470773 6.250618 19.962911 6.250617 19.533181 6.250618 19.103451 6.211552 18.595588 6.250618 18.165858 6.250617 17.657995 6.250618 17.228266 6.250618 16.798535 6.250618 16.329739 6.250618 15.821877 6.250618 15.392146 6.250617 14.962417 6.250618 14.454553 6.250618 14.024824 6.250618 13.556028 6.250618 13.126297 6.250618 12.618435 6.250617 12.188705 6.250618 11.719908 6.250618 11.251112 6.250618 10.782316 6.250618 10.352586 6.250618 9.883789 6.250618 9.414993 6.250617 8.946197 6.250618 8.516467 6.250618 8.04767 6.250618 7.578874 6.250618 7.110078 6.250618 6.680348 6.250617 6.211552 6.250618 5.742755 6.250618 5.273959 6.250618 4.805162 6.250618 4.375432 6.250618 3.906637 6.250617 3.437839 6.250618 3.00811 6.250618 2.539314 6.250618 2.031451 6.250618 1.640787 6.250618 1.132924 6.250617.703195 6.250618.234398 6.250618-.234398 6.250618-.703195 6.250618-1.132924 6.250618-1.640787 6.250618-2.031451 6.250617-2.539314 6.250618-3.00811 6.250618-3.437839 6.250618-3.906637 6.250618-4.375432 6.250618-4.805162 6.250617-5.273959 6.250618-5.742755 6.250618-6.211552 6.250618-6.680348 6.250618-7.110078 6.250618-7.578874 6.250617-8.04767 6.250618-8.516467 6.250618-8.946197 6.250618-9.414993 6.250618-9.883789 6.211551-10.352586 6.250618-10.782316 6.250618-11.251112 6.250618-11.719908 6.250618-12.188705 6.250617-12.618435 6.250618-13.126297 6.250618-13.556028 6.250618-14.024824 6.250618-14.454553 6.250618-14.962417 6.250618-15.392146 6.250617-15.821877 6.250618-16.329739 6.250618-16.798535 6.250618-17.228266 6.250618-17.657995 6.250618-18.165858 6.250617-18.595588 6.250618-19.103451 6.250618-19.533181 6.250618-19.962911 6.250618-20.470773 6.250618-20.900503 6.250617-21.3693 6.250618-21.838096 6.250618-22.267826 6.250618-22.775689 6.250618-23.205419 6.250618-23.674215 6.250617-24.103945 6.250618-24.611808 6.250618-25.041537 6.250618-25.510334 6.250618-25.940064 6.250618-26.408861 6.250618-26.916723 6.250617-27.346453 6.250618-27.776183 6.250618-28.284046 6.250618-28.713775 6.250618-29.182572 6.250618-29.651369 6.250617-30.081098 6.250618-30.588961 6.250618-31.018691 6.250618 31.018691 6.250618 30.588961 6.250618 30.081098 6.250617 29.651369 6.250618 29.182572 6.250618 28.713775 6.250618 28.284046 6.250618 27.776183 6.250618 27.346453 6.250618 26.916723 6.250617 26.408861 6.250618 25.940064 6.250618 25.510334 6.250618 25.041537 6.250618 24.611808 6.250618 24.103945 6.250617 23.674215 6.211552 23.205419 6.250618 22.775689 6.250618 22.267826 6.250617 21.838096 6.250618 21.3693 6.250618 20.900503 6.250618 20.470773 6.250618 19.962911 6.250618 19.533181 6.250617 19.103451 6.250618 18.595588 6.250618 18.165858 6.250618 17.657995 6.250618 17.228266 6.250618 16.798535 6.250617 16.329739 6.250618 15.821877 6.250618 15.392146 6.250618 14.962417 6.250618 14.454553 6.250618 14.024824 6.250618 13.556028 6.250617 13.126297 6.250618 12.618435 6.250618 12.188705 6.250618 11.719908 6.250618 11.251112 6.250618 10.782316 6.250617 10.352586 6.250618 9.883789 6.250618 9.414993 6.250618 8.946197 6.250618 8.516467 6.250618 8.04767 6.250617 7.578874 6.250618 7.110078 6.250618 6.680348 6.250618 6.211552 6.250618 5.742755 6.250618 5.273959 6.250617 4.805162 6.250618 4.375432 6.250618 3.906637 6.250618 3.437839 6.250618 3.00811 6.250618 2.539314 6.250618 2.031451 6.250617 1.640787 6.250618 1.132924 6.250618.703195 6.250618.234398 6.250618-.234398 6.250618-.703195 6.250617-1.132924 6.250618-1.640787 6.250618-2.031451 6.250618-2.539314 6.250618-3.00811 6.250618-3.437839 6.250617-3.906637 6.250618-4.375432 6.250618-4.805162 6.250618-5.273959 6.211551-5.742755 6.250618-6.211552 6.250618-6.680348 6.250618-7.110078 6.250618-7.578874 6.250618-8.04767 6.250617-8.516467 6.250618-8.946197 6.250618-9.414993 6.250618-9.883789 6.250618-10.352586 6.250618-10.782316 6.250618-11.251112 6.250617-11.719908 6.250618-12.188705 6.250618-12.618435 6.250618-13.126297 6.250618-13.556028 6.250618-14.024824 6.250617-14.454553 6.250618-14.962417 6.250618-15.392146 6.250618-15.821877 6.250618-16.329739 6.250618-16.798535 6.250617-17.228266 6.250618-17.657995 6.250618-18.165858 6.250618-18.595588 6.250618-19.103451 6.250618-19.533181 6.250617-19.962911 6.250618-20.470773 6.250618-20.900503 6.250618-21.3693 6.250618-21.838096 6.250618-22.267826 6.250618-22.775689 6.250617-23.205419 6.250618-23.674215 6.250618-24.103945 6.250618-24.611808 6.250618-25.041537 6.250618-25.510334 6.250617-25.940064 6.250618-26.408861 6.250618-26.916723 6.250618-27.346453 6.250618-27.776183 6.250618-28.284046 6.250617-28.713775 6.250618-29.182572 6.250618-29.651369 6.250618-30.081098 6.250618-30.588961 6.250618-31.018691 6.250617 31.018691 6.250618 30.588961 6.250618 30.081098 6.250618 29.651369 6.250618 29.182572 6.250618 28.713775 6.250618 28.284046 6.250617 27.776183 6.211552 27.346453 6.250618 26.916723 6.250618 26.408861 6.250617 25.940064 6.250618 25.510334 6.250618 25.041537 6.250618 24.611808 6.250618 24.103945 6.250618 23.674215 6.250617 23.205419 6.250618 22.775689 6.250618 22.267826 6.250618 21.838096 6.250618 21.3693 6.250618 20.900503 6.250617 20.470773 6.250618 19.962911 6.250618 19.533181 6.250618 19.103451 6.250618 18.595588 6.250618 18.165858 6.250618 17.657995 6.250617 17.228266 6.250618 16.798535 6.250618 16.329739 6.250618 15.821877 6.250618 15.392146 6.250618 14.962417 6.250617 14.454553 6.250618 14.024824 6.250618 13.556028 6.250618 13.126297 6.250618 12.618435 6.250618 12.188705 6.250617 11.719908 6.250618 11.251112 6.250618 10.782316 6.250618 10.352586 6.250618 9.883789 6.250618 9.414993 6.250617 8.946197 6.250618 8.516467 6.250618 8.04767 6.250618 7.578874 6.250618 7.110078 6.250618 6.680348 6.250618 6.211552 6.250617 5.742755 6.250618 5.273959 6.250618 4.805162 6.250618 4.375432 6.250618 3.906637 6.250618 3.437839 6.250617 3.00811 6.250618 2.539314 6.250618 2.031451 6.250618 1.640787 6.250618 1.132924 6.250618.703195 6.250617.234398 6.250618-.234398 6.250618-.703195 6.250618-1.132924 6.211551-1.640787 6.250618-2.031451 6.250618-2.539314 6.250618-3.00811 6.250618-3.437839 6.250618-3.906637 6.250617-4.375432 6.250618-4.805162 6.250618-5.273959 6.250618-5.742755 6.250618-6.211552 6.250618-6.680348 6.250618-7.110078 6.250617-7.578874 6.250618-8.04767 6.250618-8.516467 6.250618-8.946197 6.250618-9.414993 6.250618-9.883789 6.250617-10.352586 6.250618-10.782316 6.250618-11.251112 6.250618-11.719908 6.250618-12.188705 6.250618-12.618435 6.250617-13.126297 6.250618-13.556028 6.250618-14.024824 6.250618-14.454553 6.250618-14.962417 6.250618-15.392146 6.250617-15.821877 6.250618-16.329739 6.250618-16.798535 6.250618-17.228266 6.250618-17.657995 6.250618-18.165858 6.250618-18.595588 6.250617-19.103451 6.250618-19.533181 6.250618-19.962911 6.250618-20.470773 6.250618-20.900503 6.250618-21.3693 6.250617-21.838096 6.250618-22.267826 6.250618-22.775689 6.250618-23.205419 6.250618-23.674215 6.250618-24.103945 6.250617-24.611808 6.250618-25.041537 6.250618-25.510334 6.250618-25.940064 6.250618-26.408861 6.250618-26.916723 6.250617-27.346453 6.250618-27.776183 6.250618-28.284046 6.250618-28.713775 6.250618-29.182572 6.250618-29.651369 6.250618-30.081098 6.211551-30.588961 6.250618-31.018691 6.250618 31.018691 6.250618 30.588961 6.250617 30.081098 6.250618 29.651369 6.250618 29.182572 6.250618 28.713775 6.250618 28.284046 6.250618 27.776183 6.250617 27.346453 6.250618 26.916723 6.250618 26.408861 6.250618 25.940064 6.250618 25.510334 6.250618 25.041537 6.250617 24.611808 6.250618 24.103945 6.250618 23.674215 6.250618 23.205419 6.250618 22.775689 6.250618 22.267826 6.250617 21.838096 6.250618 21.3693 6.250618 20.900503 6.250618 20.470773 6.250618 19.962911 6.250618 19.533181 6.250618 19.103451 6.250617 18.595588 6.250618 18.165858 6.250618 17.657995 6.250618 17.228266 6.250618 16.798535 6.250618 16.329739 6.250617 15.821877 6.250618 15.392146 6.250618 14.962417 6.250618 14.454553 6.250618 14.024824 6.250618 13.556028 6.250617 13.126297 6.250618 12.618435 6.250618 12.188705 6.250618 11.719908 6.250618 11.251112 6.250618 10.782316 6.250618 10.352586 6.250617 9.883789 6.250618 9.414993 6.250618 8.946197 6.250618 8.516467 6.250618 8.04767 6.250618 7.578874 6.250617 7.110078 6.250618 6.680348 6.250618 6.211552 6.250618 5.742755 6.250618 5.273959 6.250618 4.805162 6.250617 4.375432 6.250618 3.906637 6.250618 3.437839 6.211552 3.00811 6.250617 2.539314 6.250618 2.031451 6.250618 1.640787 6.250618 1.132924 6.250618.703195 6.250618.234398 6.250617-.234398 6.250618-.703195 6.250618-1.132924 6.250618-1.640787 6.250618-2.031451 6.250618-2.539314 6.250618-3.00811 6.250617-3.437839 6.250618-3.906637 6.250618-4.375432 6.250618-4.805162 6.250618-5.273959 6.250618-5.742755 6.250617-6.211552 6.250618-6.680348 6.250618-7.110078 6.250618-7.578874 6.250618-8.04767 6.250618-8.516467 6.250617-8.946197 6.250618-9.414993 6.250618-9.883789 6.250618-10.352586 6.250618-10.782316 6.250618-11.251112 6.250617-11.719908 6.250618-12.188705 6.250618-12.618435 6.250618-13.126297 6.250618-13.556028 6.250618-14.024824 6.250618-14.454553 6.250617-14.962417 6.250618-15.392146 6.250618-15.821877 6.250618-16.329739 6.250618-16.798535 6.250618-17.228266 6.250617-17.657995 6.250618-18.165858 6.250618-18.595588 6.250618-19.103451 6.250618-19.533181 6.250618-19.962911 6.250617-20.470773 6.250618-20.900503 6.250618-21.3693 6.250618-21.838096 6.250618-22.267826 6.250618-22.775689 6.250617-23.205419 6.250618-23.674215 6.250618-24.103945 6.250618-24.611808 6.250618-25.041537 6.250618-25.510334 6.250618-25.940064 6.211551-26.408861 6.250618-26.916723 6.250618-27.346453 6.250618-27.776183 6.250617-28.284046 6.250618-28.713775 6.250618-29.182572 6.250618-29.651369 6.250618-30.081098 6.250618-30.588961 6.250617-31.018691" style="fill:none;stroke-width:12.5;stroke-linecap:round;stroke-linejoin:round;stroke:#00008b;stroke-miterlimit:10;transform:matrix(.0999901,0,0,-.0999901,399.384519,275.484909)"/></g><style>.a{fill:none;stroke:#bfbfbf;stroke-dasharray:12.5,18.75;stroke-linecap:round;stroke-miterlimit:10;stroke-width:6.25;transform:matrix(.0999901,0,0,-.0999901,.499951,275.484909)}.b{fill:none;stroke:#bfbfbf;stroke-dasharray:12.5,18.75;stroke-linecap:round;stroke-miterlimit:10;stroke-width:6.25;transform:matrix(.0999901,0,0,-.0999901,399.384519,275.484909)}.c{stroke-linecap:square;stroke-width:12.5}.d{stroke-width:6.25}.e{fill:none;stroke:#000;stroke-miterlimit:10;transform:matrix(.0999901,0,0,-.0999901,.499951,275.484909)}.f{fill:none;stroke:#000;stroke-miterlimit:10;transform:matrix(.0999901,0,0,-.0999901,399.384519,275.484909)}.g{fill:none;stroke:#bfbfbf;stroke-linecap:round;stroke-miterlimit:10;stroke-width:6.25;transform:matrix(.0999901,0,0,-.0999901,.499951,275.484909)}.h{fill:none;stroke:#bfbfbf;stroke-linecap:round;stroke-miterlimit:10;stroke-width:6.25;transform:matrix(.0999901,0,0,-.0999901,399.384519,275.484909)}</style></svg>