<svg xmlns="http://www.w3.org/2000/svg" width="365pt" height="275pt" viewBox="0 0 365 275"><defs><path d="M2.125-2.3437H.3438v.5469H2.125zm0 0" id="b"/><path d="M1.9375-3.7812V0h.6719v-5.3125h-.4375c-.2344.8125-.39065.921875-1.406275 1.046875v.4844zm0 0" id="a"/><path d="M2.0625-5.3125c-.5 0-.9375.21875-1.21875.578125C.5-4.265625.328125-3.5625.328125-2.578125c0 1.796875.59375 2.75 1.734375 2.75 1.125 0 1.734375-.953125 1.734375-2.703125 0-1.03125-.15625-1.71875-.515625-2.203125C3-5.109375 2.5625-5.3125 2.0625-5.3125zm0 .5781c.71875 0 1.0625.71875 1.0625 2.140625C3.125-1.078125 2.78125-.375 2.046875-.375 1.34375-.375 1-1.109375 1-2.5625c0-1.453125.34375-2.171875 1.0625-2.171875zm0 0" id="c"/><path d="M3.7969-.6562H1c.0625-.4375.3125-.703125.953125-1.09375l.75-.4062c.75-.40625 1.125-.953125 1.125-1.59375 0-.453125-.171875-.859375-.484375-1.140625C3.015625-5.1875 2.625-5.3125 2.125-5.3125c-.671875 0-1.171875.234375-1.46875.6875-.1875.28125-.265625.609375-.28125 1.15625h.6563c.03125-.359375.078125-.578125.15625-.75.171875-.328125.515625-.515625.921875-.515625.59375 0 1.046875.421875 1.046875.984375 0 .421875-.25.78125-.71875 1.0625l-.6875.3906C.640625-1.671875.3125-1.171875.25 0h3.5469zm0 0" id="d"/><path d="M1.6563-2.4375h.3594c.734375 0 1.109375.328125 1.109375.953125C3.125-.8125 2.703125-.40625 2.015625-.40625 1.296875-.40625.9375-.765625.90625-1.546875H.2344C.265625-1.125.34375-.84375.46875-.59375.75-.09375 1.265625.171875 2 .171875c1.09375 0 1.796875-.65625 1.796875-1.65625 0-.671875-.265625-1.046875-.90625-1.265625.5-.203125.75-.578125.75-1.109375 0-.90625-.609375-1.453125-1.625-1.453125C.9375-5.3125.375-4.734375.359375-3.59375h.6563c0-.328125.03125-.515625.109375-.671875.15625-.296875.484375-.46875.90625-.46875.578125 0 .9375.34375.9375.90625 0 .375-.140625.59375-.4375.71875C2.359375-3.03125 2.125-3 1.65625-3zm0 0" id="e"/><clipPath id="f"><path d="M97 9.5h2v255h-2zm0 0"/></clipPath><clipPath id="g"><path d="M13 200h340v2H13zm0 0"/></clipPath><clipPath id="h"><path d="M13 9.5h1v255h-1zm0 0"/></clipPath><clipPath id="i"><path d="M97 9.5h2v255h-2zm0 0"/></clipPath><clipPath id="j"><path d="M182 9.5h2v255h-2zm0 0"/></clipPath><clipPath id="k"><path d="M267 9.5h2v255h-2zm0 0"/></clipPath><clipPath id="l"><path d="M352 9.5h1v255h-1zm0 0"/></clipPath><clipPath id="m"><path d="M13 264h340v.5H13zm0 0"/></clipPath><clipPath id="n"><path d="M13 200h340v2H13zm0 0"/></clipPath><clipPath id="o"><path d="M13 136h340v2H13zm0 0"/></clipPath><clipPath id="p"><path d="M13 72h340v2H13zm0 0"/></clipPath><clipPath id="q"><path d="M13 9.5h340v.5H13zm0 0"/></clipPath></defs><g clip-path="url(#f)"><path d="M980 105v2550" class="e"/></g><g clip-path="url(#g)"><path d="M130 742.5h3400" class="e"/></g><g clip-path="url(#h)"><path d="M130 105v2550" class="a"/></g><g clip-path="url(#i)"><path d="M980 105v2550" class="a"/></g><g clip-path="url(#j)"><path d="M1830 105v2550" class="a"/></g><g clip-path="url(#k)"><path d="M2680 105v2550" class="a"/></g><g clip-path="url(#l)"><path d="M3530 105v2550" class="a"/></g><g clip-path="url(#m)"><path d="M130 105h3400" class="a"/></g><g clip-path="url(#n)"><path d="M130 742.5h3400" class="a"/></g><g clip-path="url(#o)"><path d="M130 1380h3400" class="a"/></g><g clip-path="url(#p)"><path d="M130 2017.5h3400" class="a"/></g><g clip-path="url(#q)"><path d="M130 2655h3400" class="a"/></g><g class="b"><path d="M130 105h3400" class="c"/><g class="d"><path d="M130 105v50"/><path d="M215 105v25"/><path d="M300 105v25"/><path d="M385 105v25"/><path d="M470 105v25"/><path d="M555 105v25"/><path d="M640 105v25"/><path d="M725 105v25"/><path d="M810 105v25"/><path d="M895 105v25"/><path d="M980 105v50"/><path d="M1065 105v25"/><path d="M1150 105v25"/><path d="M1235 105v25"/><path d="M1320 105v25"/><path d="M1405 105v25"/><path d="M1490 105v25"/><path d="M1575 105v25"/><path d="M1660 105v25"/><path d="M1745 105v25"/><path d="M1830 105v50"/><path d="M1915 105v25"/><path d="M2000 105v25"/><path d="M2085 105v25"/><path d="M2170 105v25"/><path d="M2255 105v25"/><path d="M2340 105v25"/><path d="M2425 105v25"/><path d="M2510 105v25"/><path d="M2595 105v25"/><path d="M2680 105v50"/><path d="M2765 105v25"/><path d="M2850 105v25"/><path d="M2935 105v25"/><path d="M3020 105v25"/><path d="M3105 105v25"/><path d="M3190 105v25"/><path d="M3275 105v25"/><path d="M3360 105v25"/><path d="M3445 105v25"/><path d="M3530 105v50"/></g></g><use x="9.0418" y="274.5" href="#b"/><use x="11.5393" y="274.5" href="#a"/><use x="95.2903" y="274.5" href="#c"/><use x="180.9156" y="274.5" href="#a"/><use x="265.9153" y="274.5" href="#d"/><use x="350.9151" y="274.5" href="#e"/><g class="b"><path d="M130 2655h3400" class="c"/><g class="d"><path d="M130 2655v-50"/><path d="M215 2655v-25"/><path d="M300 2655v-25"/><path d="M385 2655v-25"/><path d="M470 2655v-25"/><path d="M555 2655v-25"/><path d="M640 2655v-25"/><path d="M725 2655v-25"/><path d="M810 2655v-25"/><path d="M895 2655v-25"/><path d="M980 2655v-50"/><path d="M1065 2655v-25"/><path d="M1150 2655v-25"/><path d="M1235 2655v-25"/><path d="M1320 2655v-25"/><path d="M1405 2655v-25"/><path d="M1490 2655v-25"/><path d="M1575 2655v-25"/><path d="M1660 2655v-25"/><path d="M1745 2655v-25"/><path d="M1830 2655v-50"/><path d="M1915 2655v-25"/><path d="M2000 2655v-25"/><path d="M2085 2655v-25"/><path d="M2170 2655v-25"/><path d="M2255 2655v-25"/><path d="M2340 2655v-25"/><path d="M2425 2655v-25"/><path d="M2510 2655v-25"/><path d="M2595 2655v-25"/><path d="M2680 2655v-50"/><path d="M2765 2655v-25"/><path d="M2850 2655v-25"/><path d="M2935 2655v-25"/><path d="M3020 2655v-25"/><path d="M3105 2655v-25"/><path d="M3190 2655v-25"/><path d="M3275 2655v-25"/><path d="M3360 2655v-25"/><path d="M3445 2655v-25"/><path d="M3530 2655v-50"/></g></g><use x="9.0418" y="6.375" href="#b"/><use x="11.5393" y="6.375" href="#a"/><use x="95.2903" y="6.375" href="#c"/><use x="180.9156" y="6.375" href="#a"/><use x="265.9153" y="6.375" href="#d"/><use x="350.9151" y="6.375" href="#e"/><g class="b"><path d="M130 105v2550" class="c"/><g class="d"><path d="M130 105h50"/><path d="M130 168.75h25"/><path d="M130 232.5h25"/><path d="M130 296.25h25"/><path d="M130 360h25"/><path d="M130 423.75h25"/><path d="M130 487.5h25"/><path d="M130 551.25h25"/><path d="M130 615h25"/><path d="M130 678.75h25"/><path d="M130 742.5h50"/><path d="M130 806.25h25"/><path d="M130 870h25"/><path d="M130 933.75h25"/><path d="M130 997.5h25"/><path d="M130 1061.25h25"/><path d="M130 1125h25"/><path d="M130 1188.75h25"/><path d="M130 1252.5h25"/><path d="M130 1316.25h25"/><path d="M130 1380h50"/><path d="M130 1443.75h25"/><path d="M130 1507.5h25"/><path d="M130 1571.25h25"/><path d="M130 1635h25"/><path d="M130 1698.75h25"/><path d="M130 1762.5h25"/><path d="M130 1826.25h25"/><path d="M130 1890h25"/><path d="M130 1953.75h25"/><path d="M130 2017.5h50"/><path d="M130 2081.25h25"/><path d="M130 2145h25"/><path d="M130 2208.75h25"/><path d="M130 2272.5h25"/><path d="M130 2336.25h25"/><path d="M130 2400h25"/><path d="M130 2463.75h25"/><path d="M130 2527.5h25"/><path d="M130 2591.25h25"/><path d="M130 2655h50"/></g></g><use x="-.5418" y="268.25" href="#b"/><use x="1.9557" y="268.25" href="#a"/><use x="1.9551" y="203.875" href="#c"/><use x="1.9551" y="140.125" href="#a"/><use x="1.9551" y="76.375" href="#d"/><use x="1.9551" y="12.625" href="#e"/><g class="b"><path d="M3530 105v2550" class="c"/><g class="d"><path d="M3530 105h-50"/><path d="M3530 168.75h-25"/><path d="M3530 232.5h-25"/><path d="M3530 296.25h-25"/><path d="M3530 360h-25"/><path d="M3530 423.75h-25"/><path d="M3530 487.5h-25"/><path d="M3530 551.25h-25"/><path d="M3530 615h-25"/><path d="M3530 678.75h-25"/><path d="M3530 742.5h-50"/><path d="M3530 806.25h-25"/><path d="M3530 870h-25"/><path d="M3530 933.75h-25"/><path d="M3530 997.5h-25"/><path d="M3530 1061.25h-25"/><path d="M3530 1125h-25"/><path d="M3530 1188.75h-25"/><path d="M3530 1252.5h-25"/><path d="M3530 1316.25h-25"/><path d="M3530 1380h-50"/><path d="M3530 1443.75h-25"/><path d="M3530 1507.5h-25"/><path d="M3530 1571.25h-25"/><path d="M3530 1635h-25"/><path d="M3530 1698.75h-25"/><path d="M3530 1762.5h-25"/><path d="M3530 1826.25h-25"/><path d="M3530 1890h-25"/><path d="M3530 1953.75h-25"/><path d="M3530 2017.5h-50"/><path d="M3530 2081.25h-25"/><path d="M3530 2145h-25"/><path d="M3530 2208.75h-25"/><path d="M3530 2272.5h-25"/><path d="M3530 2336.25h-25"/><path d="M3530 2400h-25"/><path d="M3530 2463.75h-25"/><path d="M3530 2527.5h-25"/><path d="M3530 2591.25h-25"/><path d="M3530 2655h-50"/></g></g><use x="359.25" y="268.25" href="#b"/><use x="361.7475" y="268.25" href="#a"/><use x="359.25" y="203.875" href="#c"/><use x="359.25" y="140.125" href="#a"/><use x="359.25" y="76.375" href="#d"/><use x="359.25" y="12.625" href="#e"/><g style="fill:none;stroke-linecap:round;stroke-miterlimit:10;transform:matrix(.1,0,0,-.1,0,275)"><g stroke-width="6.25" stroke="#00f"><path d="M223.085938 174.804688l-16.171876-12.109376"/><path d="M225.664062 200.195312l-18.75-37.5 41.25 7.5"/><path d="M219.492188 302.304688l-8.984376-12.109376"/><path d="M217.773438 331.484375l-7.265626-41.289063 37.382813 18.945313"/><path d="M215.898438 429.804688l-1.796876-12.109376"/><path d="M201.054688 457.539062l13.046874-39.84375L238.125 452.03125"/><path d="M212.304688 557.304688l5.390624-12.109376"/><path d="M185.3125 571.835938l32.382812-26.640626 1.914063 41.875"/><path d="M208.710938 684.804688l12.578124-12.109376"/><path d="M181.289062 685.234375l40-12.539063-13.984374 39.492188"/><path d="M205.117188 812.304688l19.765624-12.109376"/><path d="M183.125 803.828125l41.757812-3.632813-22.148437 35.585938"/><path d="M201.523438 939.804688l26.953124-12.109376"/><path d="M186.601562 925.976562l41.875 1.71875-26.484374 32.460938"/><path d="M197.890625 1067.304688l34.179687-12.109376"/><path d="M190.46875 1050.078125l41.601562 5.117187-29.0625 30.195313"/><path d="M194.296875 1194.804688l41.40625-12.109376"/><path d="M194.414062 1175.234375l41.289063 7.460937-30.742187 28.515626"/><path d="M190.703125 1322.304688l48.59375-12.109376"/><path d="M198.359375 1301.09375l40.9375 9.101562-31.835937 27.265626"/><path d="M187.109375 1449.804688l55.78125-12.109376"/><path d="M202.265625 1427.34375l40.625 10.351562-32.65625 26.289063"/><path d="M183.515625 1577.304688l62.96875-12.109376"/><path d="M206.09375 1553.867188l40.390625 11.328124-33.28125 25.507813"/><path d="M179.921875 1704.804688l70.15625-12.109376"/><path d="M209.921875 1680.585938l40.15625 12.109374-33.75 24.84375"/><path d="M176.328125 1832.304688l77.34375-12.109376"/><path d="M213.710938 1807.460938l39.960937 12.734374-34.140625 24.335938"/><path d="M172.734375 1959.804688l84.53125-12.109376"/><path d="M217.5 1934.453125l39.765625 13.242187L222.8125 1971.5625"/><path d="M169.140625 2087.304688l91.71875-12.109376"/><path d="M221.210938 2061.523438l39.648437 13.671874-34.726563 23.476563"/><path d="M165.546875 2214.804688l98.90625-12.109376"/><path d="M224.960938 2188.632812l39.492187 14.0625-34.921875 23.164063"/><path d="M161.953125 2342.304688l106.09375-12.109376"/><path d="M228.671875 2315.820312l39.375 14.375-35.117187 22.890626"/><path d="M158.359375 2469.804688l113.28125-12.109376"/><path d="M232.382812 2443.046875l39.257813 14.648437-35.273437 22.617188"/><path d="M154.726562 2597.304688l120.546876-12.109376"/><path d="M236.054688 2570.273438l39.21875 14.921874-35.46875 22.421876"/><path d="M394.882812 173.476562l-19.765624-9.453124"/><path d="M400.859375 197.109375l-25.742187-33.085937 41.914062-.78125"/><path d="M391.289062 300.976562l-12.578124-9.453124"/><path d="M397.460938 329.023438l-18.75-37.5 41.25 7.5"/><path d="M387.695312 428.476562l-5.390624-9.453124"/><path d="M384.609375 460.898438l-2.304687-41.875 34.882812 23.28125"/><path d="M384.101562 555.976562l1.796876-9.453124"/><path d="M360.46875 579.84375l25.429688-33.320312 11.40625 40.351562"/><path d="M380.507812 683.476562l8.984376-9.453124"/><path d="M350.039062 688.242188l39.453126-14.21875-12.265626 40.078124"/><path d="M376.914062 810.976562l16.171876-9.453124"/><path d="M351.25 804.21875l41.835938-2.695312-22.929688 35.078124"/><path d="M373.320312 938.476562l23.359376-9.453124"/><path d="M354.882812 925.703125l41.796876 3.320313-27.734376 31.445312"/><path d="M369.6875 1065.976562l30.585938-9.453124"/><path d="M358.945312 1049.6875l41.328126 6.835938L370 1085.507812"/><path d="M366.09375 1193.476562l37.8125-9.453124"/><path d="M362.96875 1174.921875l40.9375 9.101563-31.835938 27.304687"/><path d="M362.5 1320.976562l44.960938-9.453124"/><path d="M366.914062 1300.898438l40.546876 10.625-32.8125 26.054687"/><path d="M358.90625 1448.476562l52.1875-9.453124"/><path d="M370.859375 1427.265625l40.234375 11.757813-33.554688 25.117187"/><path d="M355.3125 1575.976562l59.375-9.453124"/><path d="M374.6875 1553.90625l40 12.617188-34.101562 24.414062"/><path d="M351.71875 1703.476562l66.5625-9.453124"/><path d="M378.515625 1680.742188l39.765625 13.28125-34.492188 23.828124"/><path d="M348.125 1830.976562l73.75-9.453124"/><path d="M382.304688 1807.695312l39.570312 13.828126-34.804688 23.359374"/><path d="M344.53125 1958.476562l80.9375-9.453124"/><path d="M386.054688 1934.765625l39.414062 14.257813-35.078125 22.96875"/><path d="M340.9375 2085.976562l88.125-9.453124"/><path d="M389.765625 2061.875l39.296875 14.648438-35.273438 22.65625"/><path d="M337.34375 2213.476562l95.3125-9.453124"/><path d="M393.515625 2189.0625l39.140625 14.960938-35.46875 22.34375"/><path d="M333.75 2340.976562l102.5-9.453124"/><path d="M397.1875 2316.289062l39.0625 15.234376-35.625 22.109374"/><path d="M330.15625 2468.476562l109.6875-9.453124"/><path d="M400.898438 2443.554688l38.945312 15.46875-35.742188 21.914062"/><path d="M326.523438 2595.976562l116.914062-9.453124"/><path d="M404.570312 2570.859375l38.867188 15.664063-35.859375 21.71875"/><path d="M566.679688 172.109375l-23.359376-6.71875"/><path d="M574.140625 193.789062l-30.820313-28.398437 41.210938-7.617187"/><path d="M563.085938 299.648438l-16.171876-6.757813"/><path d="M574.296875 324.609375l-27.382813-31.71875L588.710938 290"/><path d="M559.492188 427.148438l-8.984376-6.757813"/><path d="M569.257812 457.890625l-18.75-37.5 41.25 7.5"/><path d="M555.898438 554.648438l-1.796876-6.757813"/><path d="M545.625 588.945312l8.476562-41.054687 27.773438 31.40625"/><path d="M552.304688 682.109375l5.390624-6.71875"/><path d="M519.648438 692.96875l38.046874-17.578125-8.789062 40.976563"/><path d="M548.710938 809.609375l12.578124-6.71875"/><path d="M519.375 804.0625l41.914062-1.171875-24.179687 34.21875"/><path d="M545.117188 937.148438l19.765624-6.757813"/><path d="M523.359375 924.726562l41.523437 5.664063-29.453124 29.84375"/><path d="M541.523438 1064.648438l26.953124-6.757813"/><path d="M527.578125 1048.789062l40.898437 9.101563-31.835937 27.265625"/><path d="M537.890625 1192.148438l34.179687-6.757813"/><path d="M531.679688 1174.257812l40.390624 11.132813-33.125 25.625"/><path d="M534.296875 1319.609375l41.40625-6.71875"/><path d="M535.664062 1300.390625l40.039063 12.5-34.023437 24.53125"/><path d="M530.703125 1447.148438l48.59375-6.757813"/><path d="M539.570312 1426.953125l39.726563 13.4375-34.570313 23.710937"/><path d="M527.109375 1574.609375l55.78125-6.71875"/><path d="M543.398438 1553.789062l39.492187 14.101563-35 23.125"/><path d="M523.515625 1702.109375l62.96875-6.71875"/><path d="M547.1875 1680.742188l39.296875 14.648437-35.3125 22.617187"/><path d="M519.921875 1829.648438l70.15625-6.757813"/><path d="M550.9375 1807.8125l39.140625 15.078125-35.546875 22.226563"/><path d="M516.328125 1957.109375l77.34375-6.71875"/><path d="M554.6875 1934.960938l38.984375 15.429687-35.742187 21.914063"/><path d="M512.734375 2084.609375l84.53125-6.71875"/><path d="M558.398438 2062.1875l38.867187 15.703125-35.898437 21.640625"/><path d="M509.140625 2212.109375l91.71875-6.71875"/><path d="M562.109375 2189.414062l38.75 15.976563-36.015625 21.445313"/><path d="M505.546875 2339.609375l98.90625-6.71875"/><path d="M565.78125 2316.71875l38.671875 16.171875-36.132813 21.25"/><path d="M501.953125 2467.109375l106.09375-6.71875"/><path d="M569.453125 2444.0625l38.59375 16.328125-36.210937 21.09375"/><path d="M498.320312 2594.609375l113.320313-6.71875"/><path d="M573.125 2571.40625l38.515625 16.484375-36.289063 20.9375"/><path d="M738.476562 170.78125l-26.953124-4.0625"/><path d="M745.820312 190.820312l-34.296874-24.101562 39.84375-12.96875"/><path d="M734.882812 298.28125l-19.765624-4.0625"/><path d="M748.085938 320.117188l-32.96875-25.898438 40.46875-10.859375"/><path d="M731.289062 425.78125l-12.578124-4.0625"/><path d="M748.671875 451.054688l-29.960937-29.335938 41.445312-6.367188"/><path d="M727.695312 553.28125l-5.390624-4.0625"/><path d="M741.054688 586.71875l-18.75-37.5 41.25 7.5"/><path d="M724.101562 680.78125l1.796876-4.0625"/><path d="M693.515625 703.398438l32.382813-26.679688 1.914062 41.875"/><path d="M720.507812 808.28125l8.984376-4.0625"/><path d="M687.617188 802.539062l41.875 1.679688-26.484376 32.5"/><path d="M716.914062 935.78125l16.171876-4.0625"/><path d="M692.1875 922.617188l40.898438 9.101562L701.25 959.023438"/><path d="M713.320312 1063.28125l23.359376-4.0625"/><path d="M696.5625 1047.148438l40.117188 12.070312-33.75 24.882812"/><path d="M709.726562 1190.78125l30.546876-4.0625"/><path d="M700.664062 1173.046875l39.609376 13.671875-34.6875 23.515625"/><path d="M706.09375 1318.28125l37.8125-4.0625"/><path d="M704.609375 1299.570312l39.296875 14.648438-35.3125 22.65625"/><path d="M702.5 1445.78125l44.960938-4.0625"/><path d="M708.4375 1426.40625l39.023438 15.3125-35.664063 22.070312"/><path d="M698.90625 1573.28125l52.1875-4.0625"/><path d="M712.226562 1553.4375l38.867188 15.78125-35.9375 21.601562"/><path d="M695.3125 1700.78125l59.375-4.0625"/><path d="M715.976562 1680.585938l38.710938 16.132812-36.132812 21.25"/><path d="M691.71875 1828.28125l66.5625-4.0625"/><path d="M719.6875 1807.773438l38.59375 16.445312-36.289062 21.015625"/><path d="M688.125 1955.78125l73.75-4.0625"/><path d="M723.398438 1935.078125 761.875 1951.71875 725.46875 1972.5"/><path d="M684.53125 2083.28125l80.9375-4.0625"/><path d="M727.070312 2062.382812l38.398438 16.835938-36.523438 20.625"/><path d="M680.9375 2210.78125l88.125-4.0625"/><path d="M730.742188 2189.726562l38.320312 16.992188-36.601562 20.46875"/><path d="M677.34375 2338.28125l95.3125-4.0625"/><path d="M734.414062 2317.109375l38.242188 17.109375-36.679688 20.3125"/><path d="M673.75 2465.78125l102.5-4.0625"/><path d="M738.046875 2444.453125 776.25 2461.71875l-36.71875 20.234375"/><path d="M670.15625 2593.28125l109.6875-4.0625"/><path d="M741.679688 2571.875l38.164062 17.34375-36.757812 20.117188"/><path d="M910.273438 169.414062l-30.546876-1.328124"/><path d="M916.367188 188.476562l-36.640626-20.390624 38.28125-17.109376"/><path d="M906.679688 296.914062l-23.359376-1.328124"/><path d="M919.6875 316.445312l-36.367188-20.859374 38.515626-16.5625"/><path d="M903.085938 424.414062l-16.171876-1.328124"/><path d="M922.734375 444.882812l-35.820313-21.796874L925.820312 407.5"/><path d="M899.492188 551.914062l-8.984376-1.328124"/><path d="M924.804688 574.6875l-34.296876-24.101562 39.84375-13.007813"/><path d="M895.898438 679.414062l-1.796876-1.328124"/><path d="M912.851562 715.585938l-18.75-37.5 41.25 7.5"/><path d="M892.304688 806.914062l5.390624-1.328124"/><path d="M856.757812 796.484375l40.9375 9.101563-31.835937 27.265624"/><path d="M888.710938 934.414062l12.578124-1.328124"/><path d="M862.03125 918.4375l39.257812 14.648438-35.273437 22.617187"/><path d="M885.117188 1061.914062l19.765624-1.328124"/><path d="M866.210938 1044.414062l38.671874 16.171876-36.132812 21.25"/><path d="M881.523438 1189.414062l26.953124-1.328124"/><path d="M870.117188 1171.210938l38.359374 16.875-36.484374 20.585937"/><path d="M877.890625 1316.914062l34.179687-1.328124"/><path d="M873.867188 1298.320312l38.203124 17.265626-36.71875 20.195312"/><path d="M874.296875 1444.414062l41.40625-1.328124"/><path d="M877.578125 1425.546875l38.125 17.539063-36.875 19.960937"/><path d="M870.703125 1571.914062l48.59375-1.328124"/><path d="M881.289062 1552.890625l38.007813 17.695313-36.992187 19.765624"/><path d="M867.109375 1699.414062l55.78125-1.328124"/><path d="M884.921875 1680.234375l37.96875 17.851563-37.03125 19.648437"/><path d="M863.515625 1826.914062l62.96875-1.328124"/><path d="M888.59375 1807.617188l37.890625 17.96875-37.109375 19.53125"/><path d="M859.921875 1954.414062l70.15625-1.328124"/><path d="M892.226562 1935.039062l37.851563 18.046876-37.148437 19.453124"/><path d="M856.328125 2081.914062l77.34375-1.328124"/><path d="M895.859375 2062.460938l37.8125 18.125-37.148437 19.375"/><path d="M852.734375 2209.414062l84.53125-1.328124"/><path d="M899.492188 2189.921875l37.773437 18.164063-37.1875 19.335937"/><path d="M849.140625 2336.914062l91.71875-1.328124"/><path d="M903.085938 2317.382812l37.773437 18.203126-37.226563 19.296874"/><path d="M845.546875 2464.414062l98.90625-1.328124"/><path d="M906.71875 2444.84375l37.734375 18.242188-37.226563 19.257812"/><path d="M841.953125 2591.914062l106.09375-1.328124"/><path d="M910.3125 2572.304688l37.734375 18.28125-37.226563 19.21875"/><path d="M1082.109375 168.085938l-34.21875 1.328124"/><path d="M1086.132812 186.679688l-38.242187-17.265626 36.757813-20.195312"/><path d="M1078.476562 295.585938l-26.953124 1.328124"/><path d="M1089.882812 313.789062l-38.359374-16.875 36.484374-20.585937"/><path d="M1074.882812 423.085938l-19.765624 1.328124"/><path d="M1093.789062 440.585938l-38.671874-16.171876 36.132812-21.25"/><path d="M1071.289062 550.585938l-12.578124 1.328124"/><path d="M1097.96875 566.5625l-39.257812-14.648438 35.273437-22.617187"/><path d="M1067.695312 678.085938l-5.390624 1.328124"/><path d="M1103.242188 688.515625l-40.9375-9.101563 31.835937-27.265624"/><path d="M1064.101562 805.585938l1.796876 1.328124"/><path d="M1047.148438 769.414062l18.75 37.5-41.25-7.5"/><path d="M1060.507812 933.085938l8.984376 1.328124"/><path d="M1035.195312 910.3125l34.296876 24.101562-39.84375 13.007813"/><path d="M1056.914062 1060.585938l16.171876 1.328124"/><path d="M1037.265625 1040.117188l35.820313 21.796874-38.90625 15.585938"/><path d="M1053.28125 1188.085938l23.398438 1.328124"/><path d="M1040.3125 1168.554688l36.367188 20.859374-38.515626 16.5625"/><path d="M1049.726562 1315.585938l30.546876 1.328124"/><path d="M1043.632812 1296.523438l36.640626 20.390624-38.28125 17.109376"/><path d="M1046.09375 1443.085938l37.8125 1.328124"/><path d="M1047.070312 1424.335938l36.835938 20.078124-38.164062 17.421876"/><path d="M1042.539062 1570.585938l44.921876 1.328124"/><path d="M1050.546875 1552.070312l36.914063 19.84375-38.007813 17.617188"/><path d="M1038.90625 1698.085938l52.1875 1.328124"/><path d="M1054.0625 1679.726562l37.03125 19.6875-37.96875 17.773438"/><path d="M1035.3125 1825.585938l59.375 1.328124"/><path d="M1057.617188 1807.34375l37.070312 19.570312-37.929688 17.890626"/><path d="M1031.71875 1953.085938l66.5625 1.328124"/><path d="M1061.171875 1934.921875l37.109375 19.492187-37.890625 18.007813"/><path d="M1028.125 2080.585938l73.75 1.328124"/><path d="M1064.726562 2062.5l37.148438 19.414062L1064.023438 2100"/><path d="M1024.53125 2208.085938l80.9375 1.328124"/><path d="M1068.28125 2190.039062l37.1875 19.375-37.8125 18.125"/><path d="M1020.9375 2335.585938l88.125 1.328124"/><path d="M1071.875 2317.617188l37.1875 19.296874-37.773438 18.203126"/><path d="M1017.34375 2463.085938l95.3125 1.328124"/><path d="M1075.429688 2445.15625l37.226562 19.257812-37.773438 18.242188"/><path d="M1013.710938 2590.585938l102.539062 1.328124"/><path d="M1079.023438 2572.695312l37.226562 19.21875-37.734375 18.28125"/><path d="M1253.90625 166.71875l-37.8125 4.0625"/><path d="M1255.390625 185.429688l-39.296875-14.648438 35.3125-22.65625"/><path d="M1250.273438 294.21875l-30.546876 4.0625"/><path d="M1259.335938 311.953125l-39.609376-13.671875 34.6875-23.515625"/><path d="M1246.679688 421.71875l-23.398438 4.0625"/><path d="M1263.4375 437.851562l-40.15625-12.070312 33.789062-24.882812"/><path d="M1243.085938 549.21875l-16.171876 4.0625"/><path d="M1267.8125 562.382812l-40.898438-9.101562 31.796876-27.304688"/><path d="M1239.492188 676.71875l-8.984376 4.0625"/><path d="M1272.382812 682.5l-41.875-1.71875 26.484376-32.5"/><path d="M1235.898438 804.21875l-1.796876 4.0625"/><path d="M1266.445312 781.601562l-32.34375 26.679688-1.914062-41.875"/><path d="M1232.304688 931.71875l5.390624 4.0625"/><path d="M1218.945312 898.28125l18.75 37.5-41.25-7.5"/><path d="M1228.710938 1059.21875l12.578124 4.0625"/><path d="M1211.328125 1033.945312l29.960937 29.335938-41.445312 6.367188"/><path d="M1225.117188 1186.71875l19.765624 4.0625"/><path d="M1211.914062 1164.882812l32.96875 25.898438-40.507812 10.859375"/><path d="M1221.523438 1314.21875l26.953124 4.0625"/><path d="M1214.179688 1294.179688l34.296874 24.101562-39.84375 12.96875"/><path d="M1217.890625 1441.71875l34.21875 4.0625"/><path d="M1217.03125 1422.734375l35.078125 23.046875-39.453125 14.179688"/><path d="M1214.296875 1569.21875l41.40625 4.0625"/><path d="M1220.195312 1550.976562l35.507813 22.304688-39.179687 15"/><path d="M1210.703125 1696.71875l48.59375 4.0625"/><path d="M1223.476562 1678.984375l35.820313 21.796875-38.945313 15.585938"/><path d="M1207.109375 1824.21875l55.78125 4.0625"/><path d="M1226.835938 1806.875l36.054687 21.40625-38.789063 15.976562"/><path d="M1203.515625 1951.71875l62.96875 4.0625"/><path d="M1230.234375 1934.648438l36.25 21.132812-38.632813 16.289062"/><path d="M1199.921875 2079.21875l70.15625 4.0625"/><path d="M1233.710938 2062.382812l36.367187 20.898438-38.515625 16.5625"/><path d="M1196.328125 2206.71875l77.34375 4.0625"/><path d="M1237.1875 2190.078125l36.484375 20.703125-38.4375 16.757812"/><path d="M1192.734375 2334.21875l84.53125 4.0625"/><path d="M1240.703125 2317.734375l36.5625 20.546875-38.359375 16.914062"/><path d="M1189.140625 2461.71875l91.71875 4.0625"/><path d="M1244.21875 2445.390625l36.640625 20.390625-38.28125 17.070312"/><path d="M1185.546875 2589.21875l98.90625 4.0625"/><path d="M1247.773438 2573.007812l36.679687 20.273438-38.242187 17.1875"/><path d="M1425.664062 165.390625l-41.367187 6.71875"/><path d="M1424.335938 184.609375l-40.039063-12.5 33.984375-24.53125"/><path d="M1422.109375 292.890625l-34.21875 6.757813"/><path d="M1428.320312 310.742188l-40.429687-11.09375 33.164063-25.664063"/><path d="M1418.476562 420.390625l-26.953124 6.757813"/><path d="M1432.421875 436.210938l-40.898437-9.0625 31.835937-27.304688"/><path d="M1414.882812 547.890625l-19.765624 6.757813"/><path d="M1436.640625 560.273438l-41.523437-5.625 29.414062-29.882813"/><path d="M1411.289062 675.390625l-12.578124 6.71875"/><path d="M1440.625 680.9375l-41.914062 1.171875 24.179687-34.21875"/><path d="M1407.695312 802.890625l-5.390624 6.71875"/><path d="M1440.351562 792.070312l-38.046874 17.539063 8.789062-40.976563"/><path d="M1404.101562 930.390625l1.796876 6.757813"/><path d="M1414.375 896.054688l-8.476562 41.09375-27.773438-31.445313"/><path d="M1400.507812 1057.890625l8.984376 6.757813"/><path d="M1390.742188 1027.148438l18.75 37.5-41.25-7.539063"/><path d="M1396.914062 1185.390625l16.171876 6.757813"/><path d="M1385.703125 1160.390625l27.382813 31.757813L1371.289062 1195"/><path d="M1393.28125 1312.890625l23.398438 6.71875"/><path d="M1385.859375 1291.210938l30.820313 28.398437-41.210938 7.65625"/><path d="M1389.726562 1440.390625l30.546876 6.757813"/><path d="M1387.695312 1420.742188l32.578126 26.40625-40.625 10.195312"/><path d="M1386.09375 1567.890625l37.8125 6.71875"/><path d="M1390.273438 1549.570312l33.632812 25.039063-40.234375 11.875"/><path d="M1382.539062 1695.390625l44.921876 6.71875"/><path d="M1393.164062 1678.007812l34.296876 24.101563-39.84375 13.007813"/><path d="M1378.90625 1822.890625l52.1875 6.757813"/><path d="M1396.289062 1806.210938l34.804688 23.4375-39.609375 13.75"/><path d="M1375.3125 1950.390625l59.375 6.71875"/><path d="M1399.53125 1934.257812l35.15625 22.851563-39.375 14.414063"/><path d="M1371.71875 2077.890625l66.5625 6.71875"/><path d="M1402.851562 2062.1875l35.429688 22.421875-39.21875 14.882813"/><path d="M1368.125 2205.390625l73.75 6.71875"/><path d="M1406.210938 2190.039062l35.664062 22.070313-39.0625 15.273437"/><path d="M1364.53125 2332.890625l80.9375 6.71875"/><path d="M1409.648438 2317.8125l35.820312 21.796875-38.945312 15.585937"/><path d="M1360.9375 2460.390625l88.125 6.71875"/><path d="M1413.125 2445.585938l35.9375 21.523437-38.828125 15.859375"/><path d="M1357.34375 2587.890625l95.3125 6.71875"/><path d="M1416.5625 2573.28125l36.09375 21.328125-38.710938 16.054687"/><path d="M1597.460938 164.023438l-44.921876 9.453124"/><path d="M1593.085938 184.101562l-40.546876-10.625 32.8125-26.054687"/><path d="M1593.90625 291.523438l-37.8125 9.453124"/><path d="M1597.03125 310.078125l-40.9375-9.101563 31.835938-27.304687"/><path d="M1590.273438 419.023438l-30.546876 9.453124"/><path d="M1601.054688 435.3125l-41.328126-6.835938L1590 399.492188"/><path d="M1586.679688 546.523438l-23.398438 9.453124"/><path d="M1605.117188 559.296875l-41.835938-3.320313 27.773438-31.445312"/><path d="M1583.085938 674.023438l-16.171876 9.453124"/><path d="M1608.75 680.78125l-41.835938 2.695312 22.929688-35.078124"/><path d="M1579.492188 801.523438l-8.984376 9.453124"/><path d="M1609.921875 796.757812l-39.414063 14.21875 12.265626-40.078124"/><path d="M1575.898438 929.023438l-1.796876 9.453124"/><path d="M1599.53125 905.15625l-25.429688 33.320312-11.40625-40.351562"/><path d="M1572.304688 1056.523438l5.390624 9.453124"/><path d="M1575.390625 1024.101562l2.304687 41.875-34.882812-23.28125"/><path d="M1568.710938 1184.023438l12.578124 9.453124"/><path d="M1562.539062 1155.976562l18.75 37.5-41.25-7.5"/><path d="M1565.117188 1311.523438l19.765624 9.453124"/><path d="M1559.101562 1287.890625l25.78125 33.085937-41.914062.78125"/><path d="M1561.523438 1439.023438l26.953124 9.453124"/><path d="M1559.296875 1418.398438l29.179687 30.078124-41.5625 5.3125"/><path d="M1557.890625 1566.523438l34.21875 9.453124"/><path d="M1560.9375 1547.890625l31.171875 28.085937-41.171875 8.085938"/><path d="M1554.296875 1694.023438l41.40625 9.453124"/><path d="M1563.28125 1676.835938l32.421875 26.640624-40.742187 9.921876"/><path d="M1550.703125 1821.523438l48.59375 9.453124"/><path d="M1566.054688 1805.390625l33.242187 25.585937-40.390625 11.25"/><path d="M1547.109375 1949.023438l55.78125 9.453124"/><path d="M1569.023438 1933.710938l33.867187 24.765624-40.117187 12.226563"/><path d="M1543.515625 2076.523438l62.96875 9.453124"/><path d="M1572.1875 2061.875l34.296875 24.101562-39.882813 12.96875"/><path d="M1539.921875 2204.023438l70.15625 9.453124"/><path d="M1575.390625 2189.882812l34.6875 23.59375-39.6875 13.554688"/><path d="M1536.328125 2331.523438l77.34375 9.453124"/><path d="M1578.710938 2317.8125l34.960937 23.164062-39.492187 14.0625"/><path d="M1532.734375 2459.023438l84.53125 9.453124"/><path d="M1582.070312 2445.664062l35.195313 22.8125-39.335937 14.492188"/><path d="M1529.140625 2586.523438l91.71875 9.453124"/><path d="M1585.46875 2573.476562l35.390625 22.5-39.21875 14.804688"/><path d="M1769.296875 162.695312l-48.59375 12.109376"/><path d="M1761.640625 183.90625l-40.9375-9.101562 31.835937-27.265626"/><path d="M1765.664062 290.195312l-41.367187 12.109376"/><path d="M1765.585938 309.765625l-41.289063-7.460937 30.742187-28.515626"/><path d="M1762.109375 417.695312l-34.21875 12.109376"/><path d="M1769.53125 434.921875l-41.640625-5.117187 29.0625-30.195313"/><path d="M1758.476562 545.195312l-26.953124 12.109376"/><path d="M1773.398438 559.023438l-41.875-1.71875 26.484374-32.460938"/><path d="M1754.882812 672.695312l-19.765624 12.109376"/><path d="M1776.875 681.171875l-41.757812 3.632813 22.148437-35.585938"/><path d="M1751.289062 800.195312l-12.578124 12.109376"/><path d="M1778.710938 799.804688l-40 12.5 13.984374-39.492188"/><path d="M1747.695312 927.695312l-5.390624 12.109376"/><path d="M1774.6875 913.164062l-32.382812 26.640626-1.914063-41.875"/><path d="M1744.101562 1055.195312l1.796876 12.109376"/><path d="M1758.945312 1027.460938l-13.046874 39.84375-24.023438-34.335938"/><path d="M1740.507812 1182.695312l8.984376 12.109376"/><path d="M1742.226562 1153.515625l7.265626 41.289063-37.382813-18.945313"/><path d="M1736.914062 1310.195312l16.171876 12.109376"/><path d="M1734.335938 1284.804688l18.75 37.5-41.25-7.5"/><path d="M1733.28125 1437.695312l23.398438 12.109376"/><path d="M1732.03125 1415.898438l24.648438 33.90625-41.914063-.625"/><path d="M1729.726562 1565.195312l30.546876 12.109376"/><path d="M1732.34375 1546.054688l27.929688 31.25-41.757813 3.59375"/><path d="M1726.09375 1692.695312l37.8125 12.109376"/><path d="M1733.90625 1675.507812l30 29.296876-41.445312 6.40625"/><path d="M1722.539062 1820.195312l44.921876 12.109376"/><path d="M1736.171875 1804.453125l31.289063 27.851563-41.054688 8.359374"/><path d="M1718.90625 1947.695312l52.1875 12.109376"/><path d="M1738.789062 1933.046875l32.304688 26.757813-40.78125 9.765624"/><path d="M1715.3125 2075.195312l59.375 12.109376"/><path d="M1741.71875 2061.445312l32.96875 25.859376-40.507812 10.859374"/><path d="M1711.71875 2202.695312l66.5625 12.109376"/><path d="M1744.765625 2189.648438l33.515625 25.15625-40.273438 11.71875"/><path d="M1708.125 2330.195312l73.75 12.109376"/><path d="M1747.929688 2317.734375l33.945312 24.570313-40.039062 12.421874"/><path d="M1704.53125 2457.695312l80.9375 12.109376"/><path d="M1751.171875 2445.703125l34.296875 24.101563-39.84375 13.007812"/><path d="M1700.9375 2585.195312l88.125 12.109376"/><path d="M1754.492188 2573.632812l34.570312 23.671876-39.6875 13.476562"/><path d="M1941.09375 161.328125l-52.1875 14.84375"/><path d="M1930.117188 183.945312l-41.210938-7.773437 30.9375-28.28125"/><path d="M1937.460938 288.828125l-44.921876 14.84375"/><path d="M1933.984375 309.726562l-41.445313-6.054687 29.726563-29.570313"/><path d="M1933.90625 416.328125l-37.8125 14.84375"/><path d="M1937.890625 434.921875l-41.796875-3.75L1924.140625 400"/><path d="M1930.273438 543.828125l-30.546876 14.84375"/><path d="M1941.640625 559.179688l-41.914063-.507813 25.546876-33.242187"/><path d="M1926.679688 671.328125l-23.398438 14.84375"/><path d="M1945.039062 681.914062l-41.757812 4.257813 21.640625-35.9375"/><path d="M1923.085938 798.828125l-16.171876 14.84375"/><path d="M1947.226562 802.148438l-40.3125 11.523437 14.960938-39.179687"/><path d="M1919.492188 926.328125l-8.984376 14.84375"/><path d="M1945.976562 918.828125l-35.46875 22.34375 3.398438-41.796875"/><path d="M1915.898438 1053.828125l-1.796876 14.84375"/><path d="M1937.226562 1033.710938l-23.125 34.960937L1900 1029.179688"/><path d="M1912.304688 1181.328125l5.390624 14.84375"/><path d="M1922.5 1154.53125l-4.804688 41.640625-30.429687-28.828125"/><path d="M1908.710938 1308.828125l12.578124 14.84375"/><path d="M1911.328125 1282.96875l9.960937 40.703125-38.554687-16.445313"/><path d="M1905.117188 1436.328125l19.765624 14.84375"/><path d="M1906.132812 1413.671875l18.75 37.5-41.25-7.5"/><path d="M1901.523438 1563.828125l26.953124 14.84375"/><path d="M1904.6875 1544.179688l23.789062 34.492187-41.875-1.640625"/><path d="M1897.890625 1691.328125l34.21875 14.84375"/><path d="M1905.15625 1674.023438l26.953125 32.148437-41.875 2.265625"/><path d="M1894.296875 1818.828125l41.40625 14.84375"/><path d="M1906.71875 1803.359375l28.984375 30.3125-41.640625 5"/><path d="M1890.703125 1946.328125l48.59375 14.84375"/><path d="M1908.90625 1932.304688l30.390625 28.867187-41.367187 6.953125"/><path d="M1887.109375 2073.828125l55.78125 14.84375"/><path d="M1911.445312 2060.898438l31.445313 27.773437-41.054687 8.476563"/><path d="M1883.515625 2201.328125l62.96875 14.84375"/><path d="M1914.296875 2189.335938l32.1875 26.835937-40.820313 9.648437"/><path d="M1879.921875 2328.828125l70.15625 14.84375"/><path d="M1917.265625 2317.578125l32.8125 26.09375-40.585937 10.585937"/><path d="M1876.328125 2456.328125l77.34375 14.84375"/><path d="M1920.351562 2445.703125l33.320313 25.46875-40.351563 11.367187"/><path d="M1872.734375 2583.828125l84.53125 14.84375"/><path d="M1923.554688 2573.710938l33.710937 24.960937-40.15625 11.992187"/><path d="M2112.890625 160l-55.78125 17.539062"/><path d="M2098.515625 184.140625l-41.40625-6.601563 30.15625-29.140624"/><path d="M2109.296875 287.5l-48.59375 17.539062"/><path d="M2102.34375 309.921875l-41.640625-4.882813 28.90625-30.390624"/><path d="M2105.664062 415l-41.367187 17.539062"/><path d="M2106.132812 435.15625l-41.835937-2.617188 27.226563-31.914062"/><path d="M2102.109375 542.5l-34.21875 17.539062"/><path d="M2109.84375 559.570312l-41.953125.46875 24.804687-33.828124"/><path d="M2098.476562 670l-26.953124 17.539062"/><path d="M2113.164062 682.8125l-41.640624 4.726562 21.210937-36.171874"/><path d="M2094.882812 797.5l-19.765624 17.539062"/><path d="M2115.625 804.179688l-40.507812 10.859374 15.625-38.945312"/><path d="M2091.289062 925l-12.578124 17.539062"/><path d="M2115.78125 923.007812l-37.070312 19.53125 6.640624-41.40625"/><path d="M2087.695312 1052.460938l-5.390624 17.578124"/><path d="M2111.25 1039.6875l-28.945312 30.351562-6.914063-41.367187"/><path d="M2084.101562 1179.960938l1.796876 17.578124"/><path d="M2100.703125 1158.28125l-14.804687 39.257812-22.460938-35.390624"/><path d="M2080.507812 1307.460938l8.984376 17.578124"/><path d="M2089.0625 1283.085938l.429688 41.953124-33.789063-24.84375"/><path d="M2076.914062 1434.960938l16.171876 17.578124"/><path d="M2081.445312 1412.265625l11.640626 40.273437-39.21875-14.84375"/><path d="M2073.28125 1562.460938l23.398438 17.578124"/><path d="M2077.929688 1542.539062l18.75 37.5-41.25-7.5"/><path d="M2069.726562 1689.960938l30.546876 17.578124"/><path d="M2077.109375 1672.617188l23.164063 34.921874-41.835938-2.421874"/><path d="M2066.09375 1817.460938l37.8125 17.578124"/><path d="M2077.773438 1802.226562l26.132812 32.8125-41.953125 1.171876"/><path d="M2062.539062 1944.960938l44.921876 17.578124"/><path d="M2079.375 1931.445312l28.085938 31.09375-41.71875 3.828126"/><path d="M2058.90625 2072.460938l52.1875 17.578124"/><path d="M2081.523438 2060.3125l29.570312 29.726562-41.523438 5.820313"/><path d="M2055.3125 2199.960938l59.375 17.578124"/><path d="M2084.023438 2188.90625l30.664062 28.632812-41.289062 7.34375"/><path d="M2051.71875 2327.460938l66.5625 17.578124"/><path d="M2086.796875 2317.34375l31.484375 27.695312-41.054688 8.554688"/><path d="M2048.125 2454.960938l73.75 17.578124"/><path d="M2089.726562 2445.625l32.148438 26.914062-40.820312 9.570313"/><path d="M2044.53125 2582.460938l80.9375 17.578124"/><path d="M2092.773438 2573.75l32.695312 26.289062-40.625 10.351563"/><path d="M2284.6875 158.632812l-59.375 20.234376"/><path d="M2266.875 184.53125l-41.5625-5.664062 29.453125-29.84375"/><path d="M2281.09375 286.132812l-52.1875 20.234376"/><path d="M2270.664062 310.273438l-41.757812-3.90625 28.203125-31.054688"/><path d="M2277.460938 413.632812l-44.921876 20.234376"/><path d="M2274.414062 435.585938l-41.875-1.71875 26.484376-32.5"/><path d="M2273.90625 541.132812l-37.8125 20.234376"/><path d="M2278.007812 560.195312l-41.914062 1.171876 24.21875-34.21875"/><path d="M2270.273438 668.632812l-30.546876 20.234376"/><path d="M2281.328125 683.828125l-41.601563 5.039063 20.898438-36.328126"/><path d="M2266.679688 796.132812l-23.398438 20.234376"/><path d="M2283.945312 806.015625l-40.664062 10.351563 16.09375-38.710938"/><path d="M2263.085938 923.632812l-16.171876 20.234376"/><path d="M2284.960938 926.289062l-38.046876 17.578126 8.75-40.976563"/><path d="M2259.492188 1051.132812l-8.984376 20.234376"/><path d="M2282.851562 1044.726562l-32.34375 26.640626-1.914062-41.875"/><path d="M2255.898438 1178.632812l-1.796876 20.234376"/><path d="M2276.09375 1163.164062l-21.992188 35.703126L2238.75 1159.84375"/><path d="M2252.304688 1306.132812l5.390624 20.234376"/><path d="M2266.132812 1285.3125l-8.4375 41.054688-27.773437-31.40625"/><path d="M2248.710938 1433.632812l12.578124 20.234376"/><path d="M2257.421875 1412.109375l3.867187 41.757813-35.742187-21.953126"/><path d="M2245.117188 1561.132812l19.765624 20.234376"/><path d="M2252.070312 1541.445312l12.8125 39.921876-39.609374-13.710938"/><path d="M2241.523438 1688.632812l26.953124 20.234376"/><path d="M2249.726562 1671.367188l18.75 37.5-41.25-7.5"/><path d="M2237.890625 1816.132812l34.21875 20.234376"/><path d="M2249.375 1801.132812l22.734375 35.234376-41.835937-2.96875"/><path d="M2234.296875 1943.632812l41.367187 20.234376"/><path d="M2250.234375 1930.546875l25.429687 33.320313-41.914062.351562"/><path d="M2230.703125 2071.132812l48.59375 20.234376"/><path d="M2251.875 2059.648438l27.421875 31.71875-41.835937 2.890624"/><path d="M2227.109375 2198.632812l55.78125 20.234376"/><path d="M2254.023438 2188.4375l28.867187 30.429688-41.679687 4.84375"/><path d="M2223.515625 2326.132812l62.96875 20.234376"/><path d="M2256.523438 2317.03125l29.960937 29.335938-41.445313 6.367187"/><path d="M2219.921875 2453.632812l70.15625 20.234376"/><path d="M2259.257812 2445.46875l30.820313 28.398438-41.210937 7.617187"/><path d="M2216.328125 2581.132812l77.34375 20.234376"/><path d="M2262.148438 2573.75l31.523437 27.617188-41.015625 8.671874"/><path d="M2456.484375 157.265625l-62.96875 22.96875"/><path d="M2435.15625 185l-41.640625-4.765625 28.828125-30.46875"/><path d="M2452.890625 284.765625l-55.78125 22.96875"/><path d="M2438.945312 310.78125l-41.835937-3.046875 27.578125-31.640625"/><path d="M2449.296875 412.265625l-48.59375 22.96875"/><path d="M2442.617188 436.171875l-41.914063-.9375 25.898437-32.96875"/><path d="M2445.703125 539.765625l-41.40625 22.96875"/><path d="M2446.210938 560.9375l-41.914063 1.796875 23.710937-34.609375"/><path d="M2442.109375 667.265625l-34.21875 22.96875"/><path d="M2449.492188 684.882812l-41.601563 5.351563L2428.59375 653.75"/><path d="M2438.476562 794.765625l-26.953124 22.96875"/><path d="M2452.226562 807.734375l-40.703124 10 16.40625-38.59375"/><path d="M2434.882812 922.265625l-19.765624 22.96875"/><path d="M2453.789062 929.0625l-38.671874 16.171875 10.273437-40.664063"/><path d="M2431.289062 1049.804688l-12.578124 22.929687"/><path d="M2453.164062 1048.867188l-34.453124 23.867187 1.601562-41.914063"/><path d="M2427.695312 1177.304688l-5.390624 22.929687"/><path d="M2449.140625 1168.007812l-26.835937 32.226563-9.648438-40.820313"/><path d="M2424.101562 1304.765625l1.796876 22.96875"/><path d="M2441.640625 1288.867188l-15.742187 38.867187-21.640626-35.9375"/><path d="M2420.507812 1432.304688l8.984376 22.929687"/><path d="M2433.242188 1413.476562l-3.75 41.757813-31.132813-28.085937"/><path d="M2416.914062 1559.765625l16.171876 22.96875"/><path d="M2426.796875 1541.289062l6.289063 41.445313-36.953126-19.84375"/><path d="M2413.28125 1687.265625l23.398438 22.96875"/><path d="M2423.046875 1670.585938l13.632813 39.648437-39.882813-12.890625"/><path d="M2409.726562 1814.804688l30.546876 22.929687"/><path d="M2421.523438 1800.234375l18.75 37.5-41.25-7.5"/><path d="M2406.09375 1942.265625l37.8125 22.96875"/><path d="M2421.5625 1929.726562l22.34375 35.507813-41.796875-3.4375"/><path d="M2402.539062 2069.804688l44.921876 22.929687"/><path d="M2422.578125 2058.984375l24.882813 33.75-41.914063-.351563"/><path d="M2398.90625 2197.265625l52.1875 22.96875"/><path d="M2424.296875 2187.96875l26.796875 32.265625-41.875 2.070313"/><path d="M2395.3125 2324.804688l59.375 22.929687"/><path d="M2426.445312 2316.71875l28.242188 31.015625-41.757812 3.984375"/><path d="M2391.71875 2452.304688l66.5625 22.929687"/><path d="M2428.945312 2445.273438l29.335938 29.960937-41.5625 5.507813"/><path d="M2388.125 2579.804688l73.75 22.929687"/><path d="M2431.640625 2573.671875l30.234375 29.0625-41.367188 6.757813"/><path d="M2628.28125 155.9375l-66.5625 25.625"/><path d="M2603.4375 185.585938l-41.71875-4.023438 28.242188-30.976562"/><path d="M2624.6875 283.4375l-59.375 25.625"/><path d="M2607.1875 311.40625l-41.875-2.34375 26.992188-32.070312"/><path d="M2621.09375 410.9375l-52.1875 25.625"/><path d="M2610.859375 436.875l-41.953125-.3125 25.390625-33.359375"/><path d="M2617.460938 538.4375l-44.921876 25.625"/><path d="M2614.375 561.796875l-41.835938 2.265625 23.28125-34.84375"/><path d="M2613.90625 665.9375l-37.8125 25.625"/><path d="M2617.65625 686.015625l-41.5625 5.546875L2596.601562 655"/><path d="M2610.273438 793.4375l-30.546876 25.625"/><path d="M2620.507812 809.335938l-40.78125 9.726562 16.679688-38.4375"/><path d="M2606.679688 920.9375l-23.398438 25.625"/><path d="M2622.421875 931.484375 2583.28125 946.5625l11.445312-40.351562"/><path d="M2603.085938 1048.4375l-16.171876 25.625"/><path d="M2622.773438 1052.382812l-35.859376 21.679688 4.140626-41.71875"/><path d="M2599.492188 1175.9375l-8.984376 25.625"/><path d="M2620.625 1172.382812l-30.117188 29.179688-5.273437-41.601562"/><path d="M2595.898438 1303.4375l-1.796876 25.625"/><path d="M2615.429688 1292.96875l-21.328126 36.09375-16.09375-38.710938"/><path d="M2592.304688 1430.9375l5.390624 25.625"/><path d="M2608.320312 1416.015625l-10.625 40.546875-26.09375-32.851562"/><path d="M2588.710938 1558.4375l12.578124 25.625"/><path d="M2601.601562 1542.148438l-.3125 41.914062-33.359374-25.390625"/><path d="M2585.117188 1685.9375l19.765624 25.625"/><path d="M2596.835938 1670.429688l8.046874 41.132812-37.734374-18.203125"/><path d="M2581.523438 1813.4375l26.953124 25.625"/><path d="M2594.21875 1799.648438l14.257812 39.414062-40.078124-12.226562"/><path d="M2577.890625 1940.9375l34.21875 25.625"/><path d="M2593.359375 1929.0625l18.75 37.5-41.25-7.5"/><path d="M2574.296875 2068.4375l41.367187 25.625"/><path d="M2593.671875 2058.398438l21.992187 35.664062-41.71875-3.789062"/><path d="M2570.703125 2195.9375l48.59375 25.625"/><path d="M2594.882812 2187.460938l24.414063 34.101562-41.914063-.9375"/><path d="M2567.109375 2323.4375l55.78125 25.625"/><path d="M2596.640625 2316.367188l26.25 32.695312-41.914063 1.367188"/><path d="M2563.515625 2450.9375l62.96875 25.625"/><path d="M2598.828125 2445.078125l27.65625 31.484375-41.796875 3.242188"/><path d="M2559.921875 2578.4375l70.15625 25.625"/><path d="M2601.289062 2573.59375l28.789063 30.46875-41.640625 4.765625"/><path d="M2800.078125 154.609375l-70.15625 28.320313"/><path d="M2771.71875 186.25l-41.796875-3.320312 27.734375-31.445313"/><path d="M2796.484375 282.109375l-62.96875 28.320313"/><path d="M2775.390625 312.148438l-41.875-1.71875 26.523437-32.5"/><path d="M2792.890625 409.609375l-55.78125 28.320313"/><path d="M2779.023438 437.65625l-41.914063.273438 24.921875-33.710938"/><path d="M2789.296875 537.109375l-48.59375 28.320313"/><path d="M2782.539062 562.734375l-41.835937 2.695313 22.96875-35.117188"/><path d="M2785.703125 664.609375l-41.40625 28.320313"/><path d="M2785.859375 687.1875l-41.5625 5.742188L2764.648438 656.25"/><path d="M2782.109375 792.109375l-34.21875 28.320313"/><path d="M2788.75 810.9375l-40.859375 9.492188 16.914063-38.359376"/><path d="M2778.476562 919.609375l-26.953124 28.320313"/><path d="M2790.9375 933.710938l-39.414062 14.21875 12.265624-40.117188"/><path d="M2774.882812 1047.109375l-19.765624 28.28125"/><path d="M2791.953125 1055.390625l-36.835937 20 6.09375-41.445313"/><path d="M2771.289062 1174.609375l-12.578124 28.28125"/><path d="M2791.054688 1176.289062l-32.34375 26.601563-1.914063-41.875"/><path d="M2767.695312 1302.109375l-5.390624 28.28125"/><path d="M2787.734375 1297.109375l-25.429687 33.28125-11.40625-40.3125"/><path d="M2764.101562 1429.609375l1.796876 28.28125"/><path d="M2782.226562 1419.296875l-16.328124 38.59375-21.09375-36.210937"/><path d="M2760.507812 1557.109375l8.984376 28.28125"/><path d="M2776.015625 1543.984375l-6.523437 41.40625-29.21875-30.039063"/><path d="M2756.914062 1684.609375l16.171876 28.28125"/><path d="M2770.78125 1671.054688l2.304688 41.835937-34.882813-23.242187"/><path d="M2753.28125 1812.109375l23.398438 28.28125"/><path d="M2767.265625 1799.570312l9.414063 40.820313-38.320313-16.953125"/><path d="M2749.726562 1939.609375l30.546876 28.28125"/><path d="M2765.507812 1928.671875l14.765626 39.21875-40.234376-11.71875"/><path d="M2746.09375 2067.109375l37.8125 28.28125"/><path d="M2765.15625 2057.890625l18.75 37.5-41.25-7.5"/><path d="M2742.539062 2194.609375l44.921876 28.28125"/><path d="M2765.742188 2187.070312l21.71875 35.820313-41.71875-4.101563"/><path d="M2738.90625 2322.109375l52.1875 28.320313"/><path d="M2767.070312 2316.054688l24.023438 34.375-41.914062-1.445313"/><path d="M2735.3125 2449.609375l59.375 28.320313"/><path d="M2768.90625 2444.84375l25.78125 33.085938-41.914062.742187"/><path d="M2731.71875 2577.109375l66.5625 28.320313"/><path d="M2771.132812 2573.476562l27.148438 31.953126-41.835938 2.539062"/><path d="M2971.875 153.242188l-73.75 31.015624"/><path d="M2939.960938 186.992188l-41.835938-2.734376 27.304688-31.835937"/><path d="M2968.28125 280.742188l-66.5625 31.015624"/><path d="M2943.632812 312.929688l-41.914062-1.171876 26.054688-32.8125"/><path d="M2964.6875 408.242188l-59.375 31.015624"/><path d="M2947.226562 438.515625l-41.914062.742187 24.570312-33.984374"/><path d="M2961.09375 535.742188l-52.1875 31.015624"/><path d="M2950.742188 563.710938l-41.835938 3.046874 22.65625-35.273437"/><path d="M2957.460938 663.242188l-44.921876 31.015624"/><path d="M2954.023438 688.398438l-41.484376 5.859374 20.195313-36.71875"/><path d="M2953.90625 790.742188l-37.8125 31.015624"/><path d="M2956.992188 812.460938l-40.898438 9.296874 17.109375-38.28125"/><path d="M2950.273438 918.242188l-30.546876 31.015624"/><path d="M2959.375 935.742188l-39.648438 13.515624 12.96875-39.84375"/><path d="M2946.679688 1045.742188l-23.398438 31.015624"/><path d="M2960.859375 1058.085938l-37.578125 18.671874 7.617188-41.210937"/><path d="M2943.085938 1173.242188l-16.171876 31.015624"/><path d="M2960.898438 1179.6875l-33.984376 24.570312.703126-41.914062"/><path d="M2939.492188 1300.742188l-8.984376 31.015624"/><path d="M2958.945312 1300.976562l-28.4375 30.78125-7.578124-41.210937"/><path d="M2935.898438 1428.242188l-1.796876 31.015624"/><path d="M2954.960938 1422.890625l-20.859376 36.367187-16.5625-38.515624"/><path d="M2932.304688 1555.742188l5.390624 31.015624"/><path d="M2949.726562 1546.601562l-12.03125 40.15625-24.882812-33.710937"/><path d="M2928.710938 1683.242188l12.578124 31.015624"/><path d="M2944.570312 1672.460938l-3.28125 41.796874-31.484374-27.695312"/><path d="M2925.117188 1810.742188l19.765624 31.015624"/><path d="M2940.546875 1800.078125l4.335937 41.679687-35.976562-21.523437"/><path d="M2921.523438 1938.242188l26.953124 31.015624"/><path d="M2938.046875 1928.671875l10.429687 40.585937-38.75-15.976562"/><path d="M2917.890625 2065.742188l34.21875 31.015624"/><path d="M2936.914062 2057.695312l15.195313 39.0625-40.390625-11.328124"/><path d="M2914.296875 2193.242188l41.367187 31.015624"/><path d="M2936.914062 2186.757812l18.75 37.5-41.210937-7.5"/><path d="M2910.703125 2320.742188l48.59375 31.015624"/><path d="M2937.773438 2315.78125l21.523437 35.976562-41.71875-4.375"/><path d="M2907.109375 2448.242188l55.78125 31.015624"/><path d="M2939.21875 2444.648438l23.671875 34.609374-41.914063-1.835937"/><path d="M2903.515625 2575.742188l62.96875 31.015624"/><path d="M2941.132812 2573.359375l25.351563 33.398437-41.953125.234376"/><path d="M3143.671875 151.875l-77.34375 33.75"/><path d="M3108.203125 187.8125l-41.875-2.1875 26.875-32.1875"/><path d="M3140.078125 279.375l-70.15625 33.75"/><path d="M3111.835938 313.75l-41.914063-.625 25.664063-33.164062"/><path d="M3136.484375 406.875l-62.96875 33.75"/><path d="M3115.429688 439.453125l-41.914063 1.171875 24.21875-34.257812"/><path d="M3132.890625 534.375l-55.78125 33.75"/><path d="M3118.90625 564.765625l-41.796875 3.359375 22.382813-35.46875"/><path d="M3129.296875 661.875l-48.59375 33.75"/><path d="M3122.226562 689.648438l-41.523437 5.976562 20.117187-36.796875"/><path d="M3125.664062 789.375l-41.367187 33.75"/><path d="M3125.234375 813.945312l-40.9375 9.179688 17.226563-38.242188"/><path d="M3122.109375 916.875l-34.21875 33.75"/><path d="M3127.773438 937.617188 3087.890625 950.625l13.554687-39.6875"/><path d="M3118.476562 1044.375l-26.953124 33.75"/><path d="M3129.570312 1060.546875l-38.046874 17.578125 8.75-41.015625"/><path d="M3114.882812 1171.875l-19.765624 33.75"/><path d="M3130.234375 1182.773438l-35.117187 22.851562 2.773437-41.835938"/><path d="M3111.289062 1299.375l-12.578124 33.75"/><path d="M3129.375 1304.53125l-30.664062 28.59375-4.453126-41.679688"/><path d="M3107.695312 1426.875l-5.390624 33.75"/><path d="M3126.757812 1426.5625l-24.453124 34.0625-12.578126-40"/><path d="M3104.101562 1554.375l1.796876 33.75"/><path d="M3122.617188 1549.6875l-16.71875 38.4375-20.703126-36.484375"/><path d="M3100.507812 1681.875l8.984376 33.75"/><path d="M3117.96875 1674.53125l-8.476562 41.09375-27.773438-31.40625"/><path d="M3096.914062 1809.375l16.171876 33.75"/><path d="M3113.789062 1801.210938l-.703124 41.914062-33.125-25.703125"/><path d="M3093.28125 1936.875l23.398438 33.75"/><path d="M3110.742188 1929.101562l5.9375 41.523438-36.757813-20.15625"/><path d="M3089.726562 2064.375l30.546876 33.75"/><path d="M3108.984375 2057.734375l11.289063 40.390625-39.0625-15.195312"/><path d="M3086.09375 2191.875l37.8125 33.75"/><path d="M3108.398438 2186.640625l15.507812 38.984375-40.46875-10.976562"/><path d="M3082.539062 2319.375l44.921876 33.75"/><path d="M3108.710938 2315.625l18.75 37.5-41.25-7.5"/><path d="M3078.90625 2446.875l52.1875 33.75"/><path d="M3109.765625 2444.492188l21.328125 36.132812-41.679688-4.609375"/><path d="M3075.3125 2574.375l59.375 33.75"/><path d="M3111.328125 2573.28125l23.359375 34.84375-41.875-2.226562"/><path d="M3315.46875 150.546875l-80.9375 36.40625"/><path d="M3276.40625 188.671875l-41.875-1.71875 26.484375-32.460937"/><path d="M3311.875 278.046875l-73.75 36.40625"/><path d="M3280.039062 314.6875l-41.914062-.234375 25.3125-33.398437"/><path d="M3308.28125 405.546875l-66.5625 36.40625"/><path d="M3283.632812 440.390625l-41.914062 1.5625L3265.625 407.5"/><path d="M3304.6875 533.046875l-59.375 36.40625"/><path d="M3287.109375 565.820312l-41.796875 3.632813 22.148438-35.585937"/><path d="M3301.09375 660.546875l-52.1875 36.40625"/><path d="M3290.390625 690.859375l-41.484375 6.09375 20.039062-36.835937"/><path d="M3297.460938 788.046875l-44.921876 36.40625"/><path d="M3293.4375 815.429688l-40.898438 9.023437 17.304688-38.164063"/><path d="M3293.90625 915.546875l-37.8125 36.40625"/><path d="M3296.132812 939.453125l-40.039062 12.5 13.984375-39.53125"/><path d="M3290.273438 1043.046875l-30.546876 36.40625"/><path d="M3298.164062 1062.8125l-38.4375 16.640625 9.726563-40.78125"/><path d="M3286.679688 1170.546875l-23.398438 36.40625"/><path d="M3299.335938 1185.546875l-36.054688 21.40625 4.492188-41.679687"/><path d="M3283.085938 1298.046875l-16.171876 36.40625"/><path d="M3299.257812 1307.8125l-32.34375 26.640625-1.914062-41.875"/><path d="M3279.492188 1425.546875l-8.984376 36.40625"/><path d="M3297.695312 1430.039062l-27.1875 31.914063-9.21875-40.898437"/><path d="M3275.898438 1553.046875l-1.796876 36.40625"/><path d="M3294.6875 1552.929688l-20.585938 36.523437-16.875-38.359375"/><path d="M3272.304688 1680.546875l5.390624 36.40625"/><path d="M3290.742188 1677.109375l-13.046876 39.84375-24.0625-34.335937"/><path d="M3268.710938 1808.046875l12.578124 36.40625"/><path d="M3286.757812 1802.890625l-5.46875 41.5625-29.960937-29.296875"/><path d="M3265.117188 1935.546875l19.765624 36.40625"/><path d="M3283.476562 1930.078125l1.40625 41.875-34.375-23.984375"/><path d="M3261.523438 2063.046875l26.953124 36.40625"/><path d="M3281.210938 2058.164062l7.265624 41.289063-37.382812-18.945313"/><path d="M3257.890625 2190.546875l34.21875 36.40625"/><path d="M3280.117188 2186.796875l11.992187 40.15625-39.375-14.492187"/><path d="M3254.296875 2318.046875l41.40625 36.40625"/><path d="M3279.921875 2315.625l15.78125 38.828125L3255.15625 2343.75"/><path d="M3250.703125 2445.546875l48.59375 36.40625"/><path d="M3280.546875 2444.453125l18.75 37.5-41.25-7.5"/><path d="M3247.109375 2573.046875l55.78125 36.40625"/><path d="M3281.71875 2573.242188l21.171875 36.210937-41.679687-4.804687"/><path d="M3487.265625 149.179688l-84.53125 39.140624"/><path d="M3444.648438 189.570312l-41.914063-1.25 26.171875-32.773437"/><path d="M3483.671875 276.679688l-77.34375 39.140624"/><path d="M3448.242188 315.625l-41.914063.195312 25-33.671874"/><path d="M3480.078125 404.179688l-70.15625 39.140624"/><path d="M3451.796875 441.40625l-41.875 1.914062 23.632813-34.648437"/><path d="M3476.484375 531.679688l-62.96875 39.140624"/><path d="M3455.273438 566.953125l-41.757813 3.867187 21.953125-35.703124"/><path d="M3472.890625 659.179688l-55.78125 39.140624"/><path d="M3458.59375 692.148438l-41.484375 6.171874 19.921875-36.875"/><path d="M3469.296875 786.679688l-48.59375 39.140624"/><path d="M3461.679688 816.875l-40.976563 8.945312 17.460937-38.125"/><path d="M3465.703125 914.179688l-41.40625 39.140624"/><path d="M3464.453125 941.171875l-40.15625 12.148437 14.375-39.375"/><path d="M3462.109375 1041.679688l-34.21875 39.140624"/><path d="M3466.71875 1064.921875l-38.828125 15.898437 10.585937-40.585937"/><path d="M3458.476562 1169.179688l-26.953124 39.140624"/><path d="M3468.242188 1188.085938l-36.71875 20.234374 5.820312-41.523437"/><path d="M3454.882812 1296.679688l-19.765624 39.140624"/><path d="M3468.75 1310.820312l-33.632812 25 .195312-41.914062"/><path d="M3451.289062 1424.179688l-12.578124 39.140624"/><path d="M3468.046875 1433.359375l-29.335937 29.960937-6.367188-41.445312"/><path d="M3447.695312 1551.679688l-5.390624 39.140624"/><path d="M3466.015625 1556.210938l-23.710937 34.609374-13.4375-39.726562"/><path d="M3444.101562 1679.179688l1.796876 39.140624"/><path d="M3462.890625 1680l-16.992187 38.320312-20.46875-36.601562"/><path d="M3440.507812 1806.679688l8.984376 39.140624"/><path d="M3459.375 1805.078125l-9.882812 40.742187-26.679688-32.34375"/><path d="M3436.914062 1934.179688l16.171876 39.140624"/><path d="M3456.09375 1931.484375l-3.007812 41.835937-31.640626-27.5"/><path d="M3433.28125 2061.679688l23.398438 39.140624"/><path d="M3453.554688 2058.984375l3.125 41.835937-35.3125-22.578124"/><path d="M3429.726562 2189.179688l30.546876 39.140624"/><path d="M3451.953125 2187.226562l8.320313 41.09375-37.851563-18.007812"/><path d="M3426.09375 2316.679688l37.8125 39.140624"/><path d="M3451.328125 2315.820312l12.578125 40-39.570312-13.945312"/><path d="M3422.539062 2444.179688l44.921876 39.140624"/><path d="M3451.484375 2444.53125l15.976563 38.789062-40.585938-10.46875"/><path d="M3418.90625 2571.679688l52.1875 39.140624"/><path d="M3452.34375 2573.320312l18.75 37.5-41.25-7.5"/></g><path stroke-width="12.5" stroke="red" d="M1830 742.5l-16.484375 12.617188L1798.007812 767.5l-14.570312 12.1875-13.632812 11.914062-12.734376 11.757813-11.875 11.5625-11.015624 11.40625-10.195313 11.25-9.414063 11.054687-8.671874 10.976563-7.890626 10.820313-7.1875 10.703124-6.445312 10.625-5.820312 10.507813-5.117188 10.46875-4.453125 10.351563-3.828125 10.3125-3.242188 10.234374-2.578124 10.234376-2.03125 10.15625-1.445313 10.15625-.898437 10.117187-.3125 10.15625.195312 10.078125.742188 10.15625 1.289062 10.117188L1658.632812 1035l2.304688 10.195312 2.734375 10.234376 3.28125 10.273437 3.710937 10.3125 4.21875 10.390625 4.6875 10.46875 5.117188 10.546875 5.625 10.585937 6.054688 10.703126 6.484374 10.820312 6.914063 10.859375 7.382813 11.015625 7.8125 11.132812 8.28125 11.25 8.671874 11.328126 9.101563 11.484374 9.570313 11.640626 9.960937 11.796874 10.429687 11.953126 10.820313 12.070312 11.25 12.265625 11.71875 12.460937 12.109375 12.578126 12.539062 12.8125 12.96875 12.96875 13.4375 13.203124L1879.6875 1343.75l14.257812 13.59375 14.765626 13.828125 15.15625 14.023437 15.625 14.296876 16.09375 14.492187 16.523437 14.765625 16.992187 15 17.421876 15.273438 17.929687 15.546874 18.398437 15.78125 18.867188 16.09375 19.335938 16.367188 19.84375 16.679688 20.351562 16.953124 20.859375 17.265626 21.328125 17.617187 21.835938 17.890625 22.382812 18.242188 22.929688 18.59375L2254.023438 1665l23.984374 19.296875 24.570313 19.648437 25.078125 20 25.703125 20.429688 26.25 20.78125 26.835937 21.210938 27.460938 21.601562 28.046875 21.992188 28.671875 22.460937 29.296875 22.890625 29.921875 23.320312 30.625 23.75 31.25 24.257813 31.914062 24.726563L2676.25 1996.5625l33.28125 25.703125 34.023438 26.171875 34.765624 26.71875 35.46875 27.226562 36.25 27.8125 36.953126 28.320313 37.8125 28.867187 38.554687 29.453126 39.375 30.039062 40.15625 30.664062 41.054687 31.25"/></g><style>.a{fill:none;stroke:#bfbfbf;stroke-dasharray:12.5,18.75;stroke-linecap:round;stroke-miterlimit:10;stroke-width:6.25;transform:matrix(.1,0,0,-.1,0,275)}.b{fill:none;stroke:#000;stroke-miterlimit:10;transform:matrix(.1,0,0,-.1,0,275)}.c{stroke-linecap:square;stroke-width:12.5}.d{stroke-width:6.25}.e{fill:none;stroke:#bfbfbf;stroke-linecap:round;stroke-miterlimit:10;stroke-width:6.25;transform:matrix(.1,0,0,-.1,0,275)}</style></svg>