<svg xmlns="http://www.w3.org/2000/svg" width="765.923pt" height="275.999pt" viewBox="0 0 765.923 275.999"><defs><use href="#a" id="t"/><use href="#b" id="u"/><use href="#c" id="w"/><use href="#d" id="x"/><use href="#e" id="C"/><use href="#f" id="y"/><use href="#g" id="A"/><use href="#a" id="r"/><use href="#b" id="s"/><use href="#c" id="D"/><use href="#d" id="v"/><use href="#e" id="E"/><use href="#f" id="z"/><use href="#g" id="B"/><clipPath id="F"><use href="#h"/></clipPath><clipPath id="G"><use href="#i"/></clipPath><clipPath id="H"><use href="#h"/></clipPath><clipPath id="I"><path d="M98 10.0117h1v254.9727h-1zm0 0"/></clipPath><clipPath id="J"><path d="M183 10.0117h1v254.9727h-1zm0 0"/></clipPath><clipPath id="K"><path d="M268 10.0117h1v254.9727h-1zm0 0"/></clipPath><clipPath id="L"><path d="M353 10.0117h.4648v254.9727H353zm0 0"/></clipPath><clipPath id="M"><path d="M13.5 253h339.9648v1H13.5zm0 0"/></clipPath><clipPath id="N"><path d="M13.5 195h339.9648v1H13.5zm0 0"/></clipPath><clipPath id="O"><use href="#i"/></clipPath><clipPath id="P"><path d="M13.5 79h339.9648v1H13.5zm0 0"/></clipPath><clipPath id="Q"><path d="M13.5 21h339.9648v1H13.5zm0 0"/></clipPath><clipPath id="R"><path d="M7 269h11v6.4844H7zm0 0"/></clipPath><clipPath id="S"><path d="M92 269h11v6.4844H92zm0 0"/></clipPath><clipPath id="T"><path d="M178 269h11v6.4844h-11zm0 0"/></clipPath><clipPath id="U"><path d="M263 269h11v6.4844h-11zm0 0"/></clipPath><clipPath id="V"><path d="M346 269h15v6.4844h-15zm0 0"/></clipPath><clipPath id="W"><path d="M.5 251H7v6H.5zm0 0"/></clipPath><clipPath id="X"><path d="M.5 193H6v6H.5zm0 0"/></clipPath><clipPath id="Y"><path d="M360 251h6.4648v6H360zm0 0"/></clipPath><clipPath id="Z"><path d="M13.5 61h339.9648v153H13.5zm0 0"/></clipPath><clipPath id="a0"><path d="M13.5 10.0117h339.9648v254.9727H13.5zm0 0"/></clipPath><clipPath id="a1"><use href="#j"/></clipPath><clipPath id="a2"><use href="#k"/></clipPath><clipPath id="a3"><use href="#j"/></clipPath><clipPath id="a4"><path d="M491 10.0117h1v254.9727h-1zm0 0"/></clipPath><clipPath id="a5"><path d="M576 10.0117h1v254.9727h-1zm0 0"/></clipPath><clipPath id="a6"><path d="M661 10.0117h1v254.9727h-1zm0 0"/></clipPath><clipPath id="a7"><path d="M746 10.0117h.3477v254.9727H746zm0 0"/></clipPath><clipPath id="a8"><path d="M406.3828 253h339.9648v1H406.3828zm0 0"/></clipPath><clipPath id="a9"><path d="M406.3828 195h339.9648v1H406.3828zm0 0"/></clipPath><clipPath id="aa"><use href="#k"/></clipPath><clipPath id="ab"><path d="M406.3828 79h339.9648v1H406.3828zm0 0"/></clipPath><clipPath id="ac"><path d="M406.3828 21h339.9648v1H406.3828zm0 0"/></clipPath><clipPath id="ad"><path d="M400 269h11v6.4844h-11zm0 0"/></clipPath><clipPath id="ae"><path d="M485 269h11v6.4844h-11zm0 0"/></clipPath><clipPath id="af"><path d="M571 269h11v6.4844h-11zm0 0"/></clipPath><clipPath id="ag"><path d="M656 269h11v6.4844h-11zm0 0"/></clipPath><clipPath id="ah"><path d="M739 269h15v6.4844h-15zm0 0"/></clipPath><clipPath id="ai"><path d="M386.3867 251H400v7h-13.6133zm0 0"/></clipPath><clipPath id="aj"><path d="M386.3867 193H400v6h-13.6133zm0 0"/></clipPath><clipPath id="ak"><path d="M752 251h13.3477v7H752zm0 0"/></clipPath><clipPath id="al"><path d="M752 193h13.3477v6H752zm0 0"/></clipPath><clipPath id="am"><path d="M406.3828 10.0117h339.9648v254.9727H406.3828zm0 0"/></clipPath><path id="a" d="M2.0625-5.3125c-.5 0-.9375.21875-1.21875.578125C.5-4.265625.328125-3.5625.328125-2.578125c0 1.796875.59375 2.75 1.734375 2.75 1.125 0 1.734375-.953125 1.734375-2.703125 0-1.03125-.15625-1.71875-.515625-2.203125C3-5.109375 2.5625-5.3125 2.0625-5.3125zm0 .5781c.71875 0 1.0625.71875 1.0625 2.140625C3.125-1.078125 2.78125-.375 2.046875-.375 1.34375-.375 1-1.109375 1-2.5625c0-1.453125.34375-2.171875 1.0625-2.171875zm0 0"/><path id="b" d="M1.4375-.7812H.6563V0h.7813zm0 0"/><path id="c" d="M3.7969-.6562H1c.0625-.4375.3125-.703125.953125-1.09375l.75-.4062c.75-.40625 1.125-.953125 1.125-1.59375 0-.453125-.171875-.859375-.484375-1.140625C3.015625-5.1875 2.625-5.3125 2.125-5.3125c-.671875 0-1.171875.234375-1.46875.6875-.1875.28125-.265625.609375-.28125 1.15625h.6563c.03125-.359375.078125-.578125.15625-.75.171875-.328125.515625-.515625.921875-.515625.59375 0 1.046875.421875 1.046875.984375 0 .421875-.25.78125-.71875 1.0625l-.6875.3906C.640625-1.671875.3125-1.171875.25 0h3.5469zm0 0"/><path id="d" d="M3.5625-5.3125H.8281L.4219-2.4219h.6094c.3125-.375.5625-.5.984375-.5.703125 0 1.15625.484375 1.15625 1.28125 0 .765625-.4375 1.234375-1.15625 1.234375-.578125 0-.9375-.296875-1.09375-.90625h-.6562c.09375.4375.15625.65625.3125.84375.3125.40625.84375.640625 1.453125.640625 1.0625 0 1.8125-.78125 1.8125-1.90625C3.84375-2.78125 3.15625-3.5 2.125-3.5c-.375 0-.671875.09375-.984375.3125l.2188-1.4844H3.5625zm0 0"/><path id="e" d="M3.9063-5.3125H.3438v.6406h2.875C1.953125-2.859375 1.4375-1.75 1.03125 0h.7031c.296875-1.703125.96875-3.171875 2.171875-4.765625zm0 0"/><path id="f" d="M1.9375-3.7812V0h.6719v-5.3125h-.4375c-.2344.8125-.39065.921875-1.406275 1.046875v.4844zm0 0"/><path id="g" d="M2.125-2.3437H.3438v.5469H2.125zm0 0"/><path id="h" d="M13.5 10.0117h.5v254.9727h-.5zm0 0"/><path id="i" d="M13.5 137h339.9648v1H13.5zm0 0"/><path id="j" d="M406.3828 10.0117H407v254.9727h-.6172zm0 0"/><path id="k" d="M406.3828 137h339.9648v1H406.3828zm0 0"/><path id="l" d="M130.0136 105.0136v2549.9829"/><path id="m" d="M130.0136 1379.9855h3399.9902"/><path id="n" d="M3530.0038 105.0136v2549.9829"/><path id="o" d="M199.9967 105.0136v2549.9829"/><path id="p" d="M199.9967 1379.9855h3399.9902"/><path id="q" d="M3599.9869 105.0136v2549.9829"/></defs><g clip-path="url(#F)"><use href="#l" class="g"/></g><g clip-path="url(#G)"><use href="#m" class="g"/></g><g clip-path="url(#H)"><use href="#l" class="a"/></g><g clip-path="url(#I)"><path d="M979.981825 105.013589v2549.982893" class="a"/></g><g clip-path="url(#J)"><path d="M1829.989145 105.013589v2549.982893" class="a"/></g><g clip-path="url(#K)"><path d="M2679.996464 105.013589v2549.982893" class="a"/></g><g clip-path="url(#L)"><use href="#n" class="a"/></g><g clip-path="url(#M)"><path d="M130.013572 220.923678h3399.990212" class="a"/></g><g clip-path="url(#N)"><path d="M130.013572 800.474123h3399.990212" class="a"/></g><g clip-path="url(#O)"><use href="#m" class="a"/></g><g clip-path="url(#P)"><path d="M130.013572 1959.535947h3399.990212" class="a"/></g><g clip-path="url(#Q)"><path d="M130.013572 2539.086393h3399.990212" class="a"/></g><g class="e"><path d="M130.013572 105.013589h3399.990212" class="c"/><g class="d"><path d="M130.013572 105.013589v50.005027"/><path d="M214.983051 105.013589v25.002513"/><path d="M299.991596 105.013589v25.002513"/><path d="M385.000141 105.013589v25.002513"/><path d="M470.008686 105.013589v25.002513"/><path d="M555.017232 105.013589v25.002513"/><path d="M639.98671 105.013589v25.002513"/><path d="M724.995256 105.013589v25.002513"/><path d="M810.003801 105.013589v25.002513"/><path d="M895.012346 105.013589v25.002513"/><path d="M979.981825 105.013589v50.005027"/><path d="M1064.99037 105.013589v25.002513"/><path d="M1149.998916 105.013589v25.002513"/><path d="M1235.007461 105.013589v25.002513"/><path d="M1320.016006 105.013589v25.002513"/><path d="M1404.985485 105.013589v25.002513"/><path d="M1489.99403 105.013589v25.002513"/><path d="M1575.002575 105.013589v25.002513"/><path d="M1660.011121 105.013589v25.002513"/><path d="M1744.980599 105.013589v25.002513"/><path d="M1829.989145 105.013589v50.005027"/><path d="M1914.99769 105.013589v25.002513"/><path d="M2000.006235 105.013589v25.002513"/><path d="M2085.01478 105.013589v25.002513"/><path d="M2169.984259 105.013589v25.002513"/><path d="M2254.992804 105.013589v25.002513"/><path d="M2340.00135 105.013589v25.002513"/><path d="M2425.009895 105.013589v25.002513"/><path d="M2510.01844 105.013589v25.002513"/><path d="M2594.987919 105.013589v25.002513"/><path d="M2679.996464 105.013589v50.005027"/><path d="M2765.005009 105.013589v25.002513"/><path d="M2850.013555 105.013589v25.002513"/><path d="M2934.983034 105.013589v25.002513"/><path d="M3019.991579 105.013589v25.002513"/><path d="M3105.000124 105.013589v25.002513"/><path d="M3190.008669 105.013589v25.002513"/><path d="M3275.017215 105.013589v25.002513"/><path d="M3359.986693 105.013589v25.002513"/><path d="M3444.995239 105.013589v25.002513"/><path d="M3530.003784 105.013589v50.005027"/></g></g><g clip-path="url(#R)"><use x="7.6621" y="274.9847" href="#t"/><use x="11.8317" y="274.9847" href="#u"/><use x="13.9165" y="274.9847" href="#t"/></g><g clip-path="url(#S)"><use x="92.6536" y="274.9847" href="#w"/><use x="96.8231" y="274.9847" href="#u"/><use x="98.9079" y="274.9847" href="#x"/></g><g clip-path="url(#T)"><use x="178.2702" y="274.9847" href="#x"/><use x="182.4398" y="274.9847" href="#u"/><use x="184.5246" y="274.9847" href="#t"/></g><g clip-path="url(#U)"><use x="263.2616" y="274.9847" href="#C"/><use x="267.4312" y="274.9847" href="#u"/><use x="269.516" y="274.9847" href="#x"/></g><g clip-path="url(#V)"><use x="346.1686" y="274.9847" href="#y"/><use x="350.3381" y="274.9847" href="#t"/><use x="354.5077" y="274.9847" href="#u"/><use x="356.5925" y="274.9847" href="#t"/></g><g class="e"><path d="M130.013572 2654.996482h3399.990212" class="c"/><g class="d"><path d="M130.013572 2654.996482v-50.005027"/><path d="M214.983051 2654.996482v-25.002514"/><path d="M299.991596 2654.996482v-25.002514"/><path d="M385.000141 2654.996482v-25.002514"/><path d="M470.008686 2654.996482v-25.002514"/><path d="M555.017232 2654.996482v-25.002514"/><path d="M639.98671 2654.996482v-25.002514"/><path d="M724.995256 2654.996482v-25.002514"/><path d="M810.003801 2654.996482v-25.002514"/><path d="M895.012346 2654.996482v-25.002514"/><path d="M979.981825 2654.996482v-50.005027"/><path d="M1064.99037 2654.996482v-25.002514"/><path d="M1149.998916 2654.996482v-25.002514"/><path d="M1235.007461 2654.996482v-25.002514"/><path d="M1320.016006 2654.996482v-25.002514"/><path d="M1404.985485 2654.996482v-25.002514"/><path d="M1489.99403 2654.996482v-25.002514"/><path d="M1575.002575 2654.996482v-25.002514"/><path d="M1660.011121 2654.996482v-25.002514"/><path d="M1744.980599 2654.996482v-25.002514"/><path d="M1829.989145 2654.996482v-50.005027"/><path d="M1914.99769 2654.996482v-25.002514"/><path d="M2000.006235 2654.996482v-25.002514"/><path d="M2085.01478 2654.996482v-25.002514"/><path d="M2169.984259 2654.996482v-25.002514"/><path d="M2254.992804 2654.996482v-25.002514"/><path d="M2340.00135 2654.996482v-25.002514"/><path d="M2425.009895 2654.996482v-25.002514"/><path d="M2510.01844 2654.996482v-25.002514"/><path d="M2594.987919 2654.996482v-25.002514"/><path d="M2679.996464 2654.996482v-50.005027"/><path d="M2765.005009 2654.996482v-25.002514"/><path d="M2850.013555 2654.996482v-25.002514"/><path d="M2934.983034 2654.996482v-25.002514"/><path d="M3019.991579 2654.996482v-25.002514"/><path d="M3105.000124 2654.996482v-25.002514"/><path d="M3190.008669 2654.996482v-25.002514"/><path d="M3275.017215 2654.996482v-25.002514"/><path d="M3359.986693 2654.996482v-25.002514"/><path d="M3444.995239 2654.996482v-25.002514"/><path d="M3530.003784 2654.996482v-50.005027"/></g></g><use x="7.6621" y="6.8867" href="#t"/><use x="11.8317" y="6.8867" href="#u"/><use x="13.9165" y="6.8867" href="#t"/><use x="92.6536" y="6.8867" href="#w"/><use x="96.8231" y="6.8867" href="#u"/><use x="98.9079" y="6.8867" href="#x"/><use x="178.2702" y="6.8867" href="#x"/><use x="182.4398" y="6.8867" href="#u"/><use x="184.5246" y="6.8867" href="#t"/><use x="263.2616" y="6.8867" href="#C"/><use x="267.4312" y="6.8867" href="#u"/><use x="269.516" y="6.8867" href="#x"/><use x="346.1686" y="6.8867" href="#y"/><use x="350.3381" y="6.8867" href="#t"/><use x="354.5077" y="6.8867" href="#u"/><use x="356.5925" y="6.8867" href="#t"/><g class="e"><use href="#l" class="c"/><g class="d"><path d="M130.013572 162.9491h25.002513"/><path d="M130.013572 220.923678h50.005026"/><path d="M130.013572 278.85919h25.002513"/><path d="M130.013572 336.833767h25.002513"/><path d="M130.013572 394.769279h25.002513"/><path d="M130.013572 452.743856h25.002513"/><path d="M130.013572 510.679368h25.002513"/><path d="M130.013572 568.653945h25.002513"/><path d="M130.013572 626.589457h25.002513"/><path d="M130.013572 684.564034h25.002513"/><path d="M130.013572 742.499546h25.002513"/><path d="M130.013572 800.474123h50.005026"/><path d="M130.013572 858.409635h25.002513"/><path d="M130.013572 916.345146h25.002513"/><path d="M130.013572 974.319724h25.002513"/><path d="M130.013572 1032.255235h25.002513"/><path d="M130.013572 1090.229813h25.002513"/><path d="M130.013572 1148.165324h25.002513"/><path d="M130.013572 1206.139902h25.002513"/><path d="M130.013572 1264.075413h25.002513"/><path d="M130.013572 1322.049991h25.002513"/><path d="M130.013572 1379.985502h50.005026"/><path d="M130.013572 1437.96008h25.002513"/><path d="M130.013572 1495.895591h25.002513"/><path d="M130.013572 1553.870169h25.002513"/><path d="M130.013572 1611.80568h25.002513"/><path d="M130.013572 1669.780258h25.002513"/><path d="M130.013572 1727.715769h25.002513"/><path d="M130.013572 1785.690347h25.002513"/><path d="M130.013572 1843.625858h25.002513"/><path d="M130.013572 1901.600436h25.002513"/><path d="M130.013572 1959.535947h50.005026"/><path d="M130.013572 2017.510525h25.002513"/><path d="M130.013572 2075.446036h25.002513"/><path d="M130.013572 2133.420614h25.002513"/><path d="M130.013572 2191.356125h25.002513"/><path d="M130.013572 2249.330703h25.002513"/><path d="M130.013572 2307.266214h25.002513"/><path d="M130.013572 2365.240792h25.002513"/><path d="M130.013572 2423.176303h25.002513"/><path d="M130.013572 2481.150881h25.002513"/><path d="M130.013572 2539.086393h50.005026"/><path d="M130.013572 2597.06097h25.002513"/><path d="M130.013572 2654.996482h25.002513"/></g></g><g clip-path="url(#W)"><use x="-.0418" y="256.8616" href="#A"/><use x="2.4555" y="256.8616" href="#w"/></g><g clip-path="url(#X)"><use x="-.0418" y="198.7424" href="#A"/><use x="2.4555" y="198.7424" href="#y"/></g><use x="2.4548" y="141.2482" href="#t"/><use x="2.4548" y="83.129" href="#y"/><use x="2.4548" y="25.0099" href="#w"/><g class="e"><use href="#n" class="c"/><g class="d"><path d="M3530.003784 162.9491h-25.002513"/><path d="M3530.003784 220.923678h-50.005027"/><path d="M3530.003784 278.85919h-25.002513"/><path d="M3530.003784 336.833767h-25.002513"/><path d="M3530.003784 394.769279h-25.002513"/><path d="M3530.003784 452.743856h-25.002513"/><path d="M3530.003784 510.679368h-25.002513"/><path d="M3530.003784 568.653945h-25.002513"/><path d="M3530.003784 626.589457h-25.002513"/><path d="M3530.003784 684.564034h-25.002513"/><path d="M3530.003784 742.499546h-25.002513"/><path d="M3530.003784 800.474123h-50.005027"/><path d="M3530.003784 858.409635h-25.002513"/><path d="M3530.003784 916.345146h-25.002513"/><path d="M3530.003784 974.319724h-25.002513"/><path d="M3530.003784 1032.255235h-25.002513"/><path d="M3530.003784 1090.229813h-25.002513"/><path d="M3530.003784 1148.165324h-25.002513"/><path d="M3530.003784 1206.139902h-25.002513"/><path d="M3530.003784 1264.075413h-25.002513"/><path d="M3530.003784 1322.049991h-25.002513"/><path d="M3530.003784 1379.985502h-50.005027"/><path d="M3530.003784 1437.96008h-25.002513"/><path d="M3530.003784 1495.895591h-25.002513"/><path d="M3530.003784 1553.870169h-25.002513"/><path d="M3530.003784 1611.80568h-25.002513"/><path d="M3530.003784 1669.780258h-25.002513"/><path d="M3530.003784 1727.715769h-25.002513"/><path d="M3530.003784 1785.690347h-25.002513"/><path d="M3530.003784 1843.625858h-25.002513"/><path d="M3530.003784 1901.600436h-25.002513"/><path d="M3530.003784 1959.535947h-50.005027"/><path d="M3530.003784 2017.510525h-25.002513"/><path d="M3530.003784 2075.446036h-25.002513"/><path d="M3530.003784 2133.420614h-25.002513"/><path d="M3530.003784 2191.356125h-25.002513"/><path d="M3530.003784 2249.330703h-25.002513"/><path d="M3530.003784 2307.266214h-25.002513"/><path d="M3530.003784 2365.240792h-25.002513"/><path d="M3530.003784 2423.176303h-25.002513"/><path d="M3530.003784 2481.150881h-25.002513"/><path d="M3530.003784 2539.086393h-50.005027"/><path d="M3530.003784 2597.06097h-25.002513"/><path d="M3530.003784 2654.996482h-25.002513"/></g></g><g clip-path="url(#Y)"><use x="359.7138" y="256.8616" href="#A"/><use x="362.2111" y="256.8616" href="#w"/></g><use x="359.7138" y="198.7424" href="#A"/><use x="362.2111" y="198.7424" href="#y"/><use x="359.7138" y="141.2482" href="#t"/><use x="359.7138" y="83.129" href="#y"/><use x="359.7138" y="25.0099" href="#w"/><g clip-path="url(#Z)"><path d="M130.013572 1959.535947l6.250628-.078133 6.250629-.312531 6.250628-.468797 6.250628-.703196 6.250628-.859461 6.250629-1.09386 6.250628-1.250126 6.250628-1.484524 6.250629-1.64079 6.211562-1.875188 6.250628-2.031455 6.250628-2.226786 6.250629-2.422118 6.250628-2.617451 6.250628-2.812783 6.250629-3.008115 6.250628-3.16438 6.250628-3.359713 6.250629-3.555045 6.250628-3.750377 6.250628-3.906643 6.250629-4.101974 6.250628-4.297307 6.250628-4.453573 6.250629-4.648905 6.250628-4.80517 6.250628-5.000503 6.250629-5.156768 6.250628-5.313035 6.250628-5.508366 6.250629-5.664632 6.250628-5.820897 6.250628-6.01623 6.250629-6.133429 6.250628-6.328761 6.250628-6.445961 6.250629-6.641292 6.250628-6.758492 6.250628-6.953824 6.250629-7.031957 6.250628-7.227289 6.250628-7.383555 6.250628-7.500754 6.250629-7.617953 6.250628-7.774219 6.250628-7.930485 6.250629-8.047684 6.250628-8.125817 6.250628-8.321148 6.250629-8.399282 6.250628-8.516481 6.250628-8.672747 6.250629-8.75088 6.250628-8.868079 6.250628-8.985278 6.250629-9.063411 6.250628-9.18061 6.250628-9.258744 6.250629-9.375942 6.250628-9.454075 6.250628-9.571275 6.250629-9.649408 6.250628-9.72754 6.250628-9.766607 6.250629-9.883806 6.250628-9.922872 6.250628-10.040072 6.250629-10.079138 12.501256-20.314542 6.250629-10.274471 6.211562-10.313536 6.250628-10.352603 6.250628-10.39167 6.250629-10.430736 6.250628-10.469802 6.250628-10.508869 12.501257-21.095871 6.250628-10.587002 18.751885-31.878204 12.501257-21.330269 6.250628-10.626068 6.250628-10.665135 6.250629-10.626068 6.250628-10.665135 6.250628-10.626068 18.751885-31.761005 12.501257-21.017738 6.250628-10.469802 6.250629-10.430736 6.250628-10.39167 6.250628-10.352603 6.250629-10.313537 6.250628-10.235404 6.250628-10.196337 6.250629-10.157271 6.250628-10.040072 6.250628-10.001005 6.250629-9.961939 6.250628-9.84474 6.250628-9.805673 6.250629-9.72754 6.250628-9.610341 6.250628-9.571275 6.250629-9.415009 6.250628-9.375942 6.250628-9.258744 6.250629-9.18061 6.250628-9.063411 6.250628-8.985278 6.250629-8.829013 6.250628-8.750879 6.250628-8.633681 6.250629-8.516481 6.250628-8.399282 6.250628-8.282082 6.250629-8.164884 6.250628-8.008617 6.250628-7.891418 6.250629-7.774219 6.250628-7.617954 6.250628-7.500754 6.250628-7.344488 6.250629-7.188222 6.250628-7.071024 6.250628-6.914757 6.211562-6.758492 6.250629-6.602226 6.250628-6.445961 6.250628-6.328761 6.250629-6.133429 6.250628-5.977163 6.250628-5.820898 6.250629-5.625566 6.250628-5.508366 6.250628-5.313034 6.250629-5.117702 6.250628-4.961436 6.250628-4.805171 6.250629-4.609838 6.250628-4.453573 6.250628-4.25824 6.250629-4.101975 6.250628-3.906643 6.250628-3.71131 6.250629-3.515979 6.250628-3.359712 6.250628-3.164381 6.250629-2.969048 6.250628-2.812783 6.250628-2.578384 6.250629-2.422119 6.250628-2.18772 6.250628-2.031454 6.250629-1.836122 6.250628-1.64079 6.250628-1.445458 6.250629-1.250125 6.250628-1.054794 6.250628-.859461 6.250628-.66413 6.250629-.468797 6.250628-.273465 6.250628-.078133 6.250629.078133 6.250628.312532 6.250628.54693 6.250629.703195 6.250628.898528 6.250628 1.09386 6.250629 1.289192 6.250628 1.484524 6.250628 1.64079 6.250629 1.875189 6.250628 2.070521 6.250628 2.265852 6.250629 2.422119 6.250628 2.656517 6.250628 2.812783 6.250629 3.008114 6.250628 3.203447 6.250628 3.39878 6.250629 3.555044 6.250628 3.750377 6.250628 3.94571 6.250629 4.141041 6.250628 4.297307 6.250628 4.453573 6.250629 4.687971 6.211562 4.80517 6.250628 5.000503 6.250628 5.195835 6.250629 5.3521 6.250628 5.508366 6.250628 5.664632 6.250629 5.859964 6.250628 6.01623 6.250628 6.133429 6.250628 6.328761 6.250629 6.485027 6.250628 6.641293 6.250628 6.797558 6.250629 6.953824 6.250628 7.071024 6.250628 7.227289 6.250629 7.383554 6.250628 7.500754 6.250628 7.65702 6.250629 7.813285 6.250628 7.891419 6.250628 8.047684 6.250629 8.203949 6.250628 8.282083 6.250628 8.438348 6.250629 8.516481 6.250628 8.672747 6.250628 8.789946 6.250629 8.868079 6.250628 8.985278 6.250628 9.063411 6.250629 9.219677 6.250628 9.258743 6.250628 9.415009 6.250629 9.454075 6.250628 9.532209 6.250628 9.688474 6.250629 9.72754 6.250628 9.805673 6.250628 9.84474 6.250629 9.961939 6.250628 10.040071 6.250628 10.079139 6.250629 10.157271 6.250628 10.196337 6.250628 10.235404 6.250629 10.313537 6.250628 10.352603 12.501257 20.861472 6.250628 10.469802 6.250628 10.508869 6.250629 10.547936 18.751885 31.761005 6.250628 10.626068 6.250628 10.665134 6.250629 10.626069 6.250628 10.665134 6.250628 10.626068 6.250628 10.665135 6.211562 10.665134 12.501257 21.252137 18.751885 31.761005 12.501257 21.017738 6.250628 10.469802 6.250628 10.430736 6.250629 10.39167 6.250628 10.352603 6.250628 10.27447 6.250629 10.235404 6.250628 10.196338 6.250628 10.118204 6.250629 10.079138 6.250628 10.001006 6.250628 9.922872 6.250629 9.883806 6.250628 9.766607 6.250628 9.688474 6.250629 9.649407 6.250628 9.532209 6.250628 9.454075 6.250629 9.336876 6.250628 9.258743 6.250628 9.180611 6.250629 9.063411 6.250628 8.946211 6.250628 8.829013 6.250629 8.75088 6.250628 8.63368 6.250628 8.477415 6.250628 8.399281 6.250629 8.282083 6.250628 8.125817 6.250628 8.008617 6.250629 7.891419 6.250628 7.735152 6.250628 7.617953 6.250629 7.461688 6.250628 7.344488 6.250628 7.188223 6.250629 7.031957 6.250628 6.914757 6.250628 6.758492 6.250629 6.56316 6.250628 6.44596 6.250628 6.289695 6.250629 6.133429 6.250628 5.938097 6.250628 5.820898 6.250629 5.625565 6.250628 5.4693 6.250628 5.273968 6.250629 5.117702 6.250628 4.961436 6.250628 4.766104 6.250629 4.609838 6.250628 4.453573 6.250628 4.219174 6.211562 4.101975 6.250629 3.867576 6.250628 3.711311 6.250628 3.515978 6.250629 3.320647 6.250628 3.16438 6.250628 2.929982 6.250629 2.773716 6.250628 2.578385 6.250628 2.383052 6.250628 2.226786 6.250629 1.992388 6.250628 1.797055 6.250628 1.64079 6.250629 1.406392 6.250628 1.250125 6.250628 1.054794 6.250629.820395 6.250628.664129 6.250628.429731 6.250629.273465 6.250628.039066 6.250628-.117199 6.250629-.351598 6.250628-.507863 6.250628-.742262 6.250629-.898528 6.250628-1.132927 6.250628-1.289192 6.250629-1.52359 6.250628-1.679857 6.250628-1.875188 6.250629-2.109587 6.250628-2.265853 6.250628-2.461185 6.250629-2.656517 6.250628-2.851849 6.250628-3.008115 6.250629-3.242514 6.250628-3.398779 6.250628-3.594111 6.250629-3.750377 6.250628-3.984776 6.250628-4.101974 6.250629-4.336374 6.250628-4.492639 6.250628-4.648905 6.250629-4.883303 6.250628-5.000503 6.250628-5.195835 6.250629-5.3521 6.250628-5.547433 6.250628-5.703698 6.250629-5.859964 6.250628-6.01623 6.250628-6.172495 6.250629-6.367828 6.250628-6.485027 6.250628-6.641292 6.250629-6.797559 6.250628-6.953824 6.250628-7.110089 6.211562-7.266356 6.250628-7.383555 6.250629-7.53982 6.250628-7.65702 6.250628-7.774219 6.250629-7.969551 6.250628-8.047684 6.250628-8.203949 6.250629-8.282083 6.250628-8.438348 6.250628-8.555548 6.250629-8.672747 6.250628-8.789946 6.250628-8.868079 6.250629-9.024344 6.250628-9.063411 6.250628-9.219677 6.250629-9.29781 6.250628-9.375942 6.250628-9.493142 6.250629-9.571275 6.250628-9.649407 6.250628-9.72754 6.250629-9.805674 6.250628-9.883806 6.250628-9.961939 6.250629-10.040071 6.250628-10.079138 6.250628-10.157272 12.501257-20.470807 6.250628-10.313537 12.501257-20.783339 6.250628-10.430736 6.250629-10.469803 18.751884-31.643806 6.250629-10.587001 18.751885-31.878205 12.501256-21.330269 6.250629-10.626068 6.250628-10.665135 6.250628-10.626068 6.250629-10.665134 6.250628-10.587002 6.250628-10.626068 6.250629-10.587002 12.501256-21.095871 6.250629-10.508869 12.501256-20.861472 6.250629-10.391669 6.250628-10.352603 6.250628-10.274471 6.250629-10.235404 6.250628-10.196337 6.211562-10.118205 6.250628-10.040071 6.250629-10.001006 6.250628-9.922872 6.250628-9.84474 6.250629-9.805673 6.250628-9.688474 6.250628-9.610341 6.250629-9.532208 6.250628-9.415009 6.250628-9.375942 6.250628-9.219677 6.250629-9.180611 6.250628-9.024344 6.250628-8.946212 6.250629-8.829013 6.250628-8.750879 6.250628-8.594614 6.250629-8.477415 6.250628-8.399282 6.250628-8.243016 6.250629-8.125817 6.250628-8.008617 6.250628-7.852352 6.250629-7.735153 6.250628-7.617953 6.250628-7.461687 6.250629-7.305422 6.250628-7.188223 6.250628-7.031957 6.250629-6.875691 6.250628-6.719425 6.250628-6.602226 6.250629-6.406894 6.250628-6.289695 6.250628-6.094363 6.250629-5.938097 6.250628-5.781831 6.250628-5.625565 6.250629-5.430234 6.250628-5.273967 6.250628-5.117702 6.250629-4.961437 6.250628-4.766104 6.250628-4.570772 6.250629-4.414506 6.250628-4.219174 6.250628-4.062909 6.250629-3.867576 6.250628-3.672244 6.250628-3.476912 6.250629-3.320646 6.250628-3.125314 6.250628-2.969049 6.250629-2.73465 6.250628-2.578384 6.250628-2.343986 6.250629-2.187719 6.250628-1.992388 6.250628-1.797056 6.250629-1.601723 6.250628-1.406392 6.211562-1.211059 6.250628-1.015727 6.250628-.820395 6.250629-.625063 6.250628-.429731 6.250628-.234398 6.250629-.039067 6.250628.156266 6.250628.351598 6.250629.54693 6.250628.742262 6.250628.937594 6.250629 1.132927 6.250628 1.328258 6.250628 1.523591 6.250629 1.679856 6.250628 1.914255 6.250628 2.109587 6.250629 2.304919 6.250628 2.461185 6.250628 2.695584 6.250629 2.851849 6.250628 3.047181 6.250628 3.242514 6.250629 3.398779 6.250628 3.633178 6.250628 3.789443 6.250629 3.945709 6.250628 4.180108 6.250628 4.336373 6.250629 4.492639 6.250628 4.687972 6.250628 4.883303 6.250629 5.039569 6.250628 5.195835 6.250628 5.391167 6.250629 5.547432 6.250628 5.703699" style="fill:none;stroke-width:12.5;stroke-linecap:round;stroke:#00008b;stroke-miterlimit:10;transform:matrix(.0999899,0,0,-.0999899,.49995,275.484678)"/></g><g clip-path="url(#a0)"><path d="M130.013572 2539.086393l6.250628-.195333 6.250629-.585996 6.250628-.976661 6.250628-1.367325 6.250628-1.757989 6.250629-2.148653 6.250628-2.539318 6.250628-2.929982 6.250629-3.320646 6.211562-3.711311 6.250628-4.062908 6.250628-4.49264 6.250629-4.844236 6.250628-5.234902 6.250628-5.625565 6.250629-5.977164 6.250628-6.367827 6.250628-6.719426 6.250629-7.110089 6.250628-7.461688 6.250628-7.852352 6.250629-8.203949 6.250628-8.555548 6.250628-8.946212 6.250629-9.258743 6.250628-9.649407 6.250628-9.961939 6.250629-10.313537 6.250628-10.665135 6.250628-10.977666 6.250629-11.329263 6.250628-11.680862 6.250628-11.954327 6.250629-12.344991 6.250628-12.618456 6.250628-12.930987 6.250629-13.243519 6.250628-13.55605 6.250628-13.829515 6.250629-14.181113 6.250628-14.415512 6.250628-14.728043 6.250628-15.001508 6.250629-15.274973 6.250628-15.548438 6.250628-15.821903 6.250629-16.056301 6.250628-16.329767 6.250628-16.603231 6.250629-16.798564 6.250628-17.072028 6.250628-17.306428 6.250629-17.501759 6.250628-17.736158 6.250628-17.93149 6.250629-18.165888 6.250628-18.361221 6.250628-18.556553 6.250629-18.751885 6.250628-18.908151 6.250628-19.142549 6.250629-19.259748 6.250628-19.416015 6.250628-19.611346 6.250629-19.728546 6.250628-19.923877 6.250628-20.002011 6.250629-20.158276 6.250628-20.275476 6.250628-20.392675 6.250629-20.509874 6.211562-20.627074 6.250628-20.705206 6.250628-20.783339 6.250629-20.861472 6.250628-20.978672 6.250628-21.017737 6.250629-21.056804 6.250628-21.134937 6.250628-21.174004 6.250628-21.252136 6.250629-21.21307 12.501256-42.582406 6.250629-21.330269 25.002513-85.164811 6.250628-21.21307 6.250629-21.252136 6.250628-21.174003 12.501257-42.191742 6.250628-21.017737 6.250628-20.939605 6.250629-20.861472 6.250628-20.783339 6.250628-20.705207 6.250629-20.588007 6.250628-20.509874 6.250628-20.392675 6.250629-20.236409 6.250628-20.158277 6.250628-20.00201 6.250629-19.884812 6.250628-19.728545 6.250628-19.57228 6.250629-19.455081 6.250628-19.259748 6.250628-19.064417 6.250629-18.90815 6.250628-18.751885 6.250628-18.517487 6.250629-18.361221 6.250628-18.126822 6.250628-17.93149 6.250629-17.697091 6.250628-17.501759 6.250628-17.267361 6.250629-17.032962 6.250628-16.798564 6.250628-16.564165 6.250629-16.2907 6.250628-16.056302 6.250628-15.782836 6.250629-15.548438 6.250628-15.235907 6.250628-14.962441 6.250628-14.728043 6.250629-14.376445 6.250628-14.142047 6.250628-13.790449 6.211562-13.55605 6.250629-13.204452 6.250628-12.891921 6.250628-12.618456 6.250629-12.266858 6.250628-11.954327 6.250628-11.641795 6.250629-11.290198 6.250628-10.938599 6.250628-10.626068 6.250629-10.313537 6.250628-9.922873 6.250628-9.610341 6.250629-9.219676 6.250628-8.907146 6.250628-8.516481 6.250629-8.164883 6.250628-7.813285 6.250628-7.422622 6.250629-7.071023 6.250628-6.719425 6.250628-6.328762 6.250629-5.938096 6.250628-5.5865 6.250628-5.195834 6.250629-4.805171 6.250628-4.453573 6.250628-4.023842 6.250629-3.672244 6.250628-3.28158 6.250628-2.890915 6.250629-2.500251 6.250628-2.109588 6.250628-1.718922 6.250628-1.328259 6.250629-.937594 6.250628-.54693 6.250628-.156266 6.250629.234399 6.250628.625063 6.250628 1.015727 6.250629 1.406391 6.250628 1.797056 6.250628 2.18772 6.250629 2.578384 6.250628 2.969048 6.250628 3.359713 6.250629 3.711311 6.250628 4.141041 6.250628 4.492639 6.250629 4.883303 6.250628 5.273968 6.250628 5.664632 6.250629 6.01623 6.250628 6.406894 6.250628 6.758492 6.250629 7.149156 6.250628 7.500754 6.250628 7.891418 6.250629 8.243016 6.250628 8.594614 6.250628 8.946212 6.250629 9.336876 6.211562 9.649407 6.250628 10.001006 6.250628 10.352603 6.250629 10.704201 6.250628 11.016732 6.250628 11.368331 6.250629 11.680861 6.250628 12.03246 6.250628 12.305924 6.250628 12.657523 6.250629 12.970053 6.250628 13.282586 6.250628 13.595116 6.250629 13.868582 6.250628 14.181113 6.250628 14.454578 6.250629 14.767109 6.250628 15.040575 6.250628 15.274973 6.250629 15.587504 6.250628 15.821903 6.250628 16.134434 6.250629 16.329767 6.250628 16.603231 6.250628 16.83763 6.250629 17.111096 6.250628 17.306427 6.250628 17.540825 6.250629 17.736158 6.250628 17.970557 6.250628 18.165888 6.250629 18.400287 6.250628 18.556553 6.250628 18.790952 6.250629 18.947217 6.250628 19.103483 6.250628 19.298815 6.250629 19.45508 6.250628 19.611347 6.250628 19.767612 6.250629 19.884811 6.250628 20.041077 6.250628 20.158277 6.250629 20.314542 6.250628 20.392675 6.250628 20.509874 6.250629 20.627073 6.250628 20.705207 6.250628 20.822405 6.250629 20.861472 6.250628 20.978671 6.250628 21.017738 6.250629 21.095871 6.250628 21.134937 6.250628 21.174003 6.250629 21.21307 6.250628 21.252137 18.751885 63.873608 6.250628 21.330269 6.250628 21.291203 6.211562 21.291202 12.501257 42.504273 6.250628 21.21307 6.250629 21.174003 6.250628 21.134937 6.250628 21.056805 6.250629 21.017737 6.250628 20.939605 6.250628 20.861472 6.250629 20.783339 6.250628 20.66614 6.250628 20.588007 6.250629 20.509875 6.250628 20.353608 6.250628 20.275476 6.250629 20.11921 6.250628 20.00201 6.250628 19.845745 6.250629 19.728546 6.250628 19.57228 6.250628 19.416014 6.250629 19.220682 6.250628 19.064417 6.250628 18.90815 6.250629 18.712819 6.250628 18.517486 6.250628 18.322155 6.250629 18.126822 6.250628 17.892423 6.250628 17.697092 6.250629 17.462693 6.250628 17.26736 6.250628 16.993896 6.250628 16.759497 6.250629 16.525099 6.250628 16.2907 6.250628 16.017235 6.250629 15.782837 6.250628 15.509371 6.250628 15.19684 6.250629 14.962442 6.250628 14.688976 6.250628 14.376446 6.250629 14.063913 6.250628 13.790449 6.250628 13.516984 6.250629 13.165386 6.250628 12.891921 6.250628 12.540323 6.250629 12.266858 6.250628 11.91526 6.250628 11.602729 6.250629 11.251131 6.250628 10.938599 6.250628 10.587002 6.250629 10.27447 6.250628 9.883807 6.250628 9.571274 6.250629 9.219677 6.250628 8.829012 6.250628 8.477415 6.211562 8.164883 6.250629 7.735153 6.250628 7.422621 6.250628 7.031957 6.250629 6.680359 6.250628 6.289695 6.250628 5.89903 6.250629 5.547433 6.250628 5.156768 6.250628 4.766104 6.250628 4.414507 6.250629 4.023842 6.250628 3.594111 6.250628 3.242513 6.250629 2.851849 6.250628 2.461185 6.250628 2.070521 6.250629 1.718923 6.250628 1.289192 6.250628.898528 6.250629.507863 6.250628.1172 6.250628-.273465 6.250629-.66413 6.250628-1.054793 6.250628-1.445458 6.250629-1.836122 6.250628-2.226786 6.250628-2.617451 6.250629-3.008115 6.250628-3.398779 6.250628-3.750377 6.250629-4.180108 6.250628-4.531705 6.250628-4.92237 6.250629-5.313034 6.250628-5.703699 6.250628-6.055296 6.250629-6.44596 6.250628-6.797559 6.250628-7.188222 6.250629-7.539821 6.250628-7.891418 6.250628-8.282082 6.250629-8.633681 6.250628-8.985278 6.250628-9.336876 6.250629-9.72754 6.250628-10.040072 6.250628-10.352603 6.250629-10.743268 6.250628-11.055799 6.250628-11.407396 6.250629-11.719928 6.250628-12.03246 6.250628-12.384057 6.250629-12.696589 6.250628-12.970054 6.250628-13.321651 6.250629-13.595117 6.250628-13.907648 6.250628-14.22018 6.211562-14.493644 6.250628-14.767109 6.250629-15.040575 6.250628-15.353106 6.250628-15.587504 6.250629-15.860969 6.250628-16.134435 6.250628-16.407899 6.250629-16.603232 6.250628-16.876696 6.250628-17.111095 6.250629-17.306427 6.250628-17.579892 6.250628-17.775225 6.250629-17.970556 6.250628-18.204955 6.250628-18.400287 6.250629-18.59562 6.250628-18.790951 6.250628-18.947217 6.250629-19.142549 6.250628-19.298815 6.250628-19.494147 6.250629-19.611347 6.250628-19.767612 6.250628-19.923878 6.250629-20.041077 6.250628-20.197343 6.250628-20.314542 6.250629-20.392675 6.250628-20.54894 6.250628-20.627074 6.250629-20.705206 6.250628-20.822406 6.250628-20.900538 6.250629-20.939605 6.250628-21.056804 6.250628-21.095871 6.250628-21.134937 6.250629-21.174003 6.250628-21.252137 6.250628-21.213069 12.501257-42.582406 6.250628-21.330269 25.002514-85.164811 12.501256-42.42614 6.250629-21.174003 6.250628-21.134937 6.250628-21.056804 6.250629-20.978672 6.250628-20.939605 6.250628-20.861472 6.250629-20.744272 6.250628-20.705207 6.250628-20.588007 6.250629-20.470808 6.250628-20.353608 6.211562-20.236409 6.250628-20.11921 6.250629-20.002011 6.250628-19.845745 6.250628-19.689479 6.250629-19.57228 6.250628-19.376948 6.250628-19.220682 6.250629-19.064416 6.250628-18.869085 6.250628-18.673752 6.250628-18.517486 6.250629-18.283088 6.250628-18.126822 6.250628-17.892424 6.250629-17.658025 6.250628-17.462693 6.250628-17.189228 6.250629-16.993895 6.250628-16.759497 6.250628-16.525099 6.250629-16.251634 6.250628-15.978168 6.250628-15.743771 6.250629-15.470305 6.250628-15.19684 6.250628-14.923375 6.250629-14.64991 6.250628-14.337379 6.250628-14.063913 6.250629-13.790449 6.250628-13.438851 6.250628-13.165386 6.250629-12.852855 6.250628-12.501256 6.250628-12.227792 6.250629-11.91526 6.250628-11.524596 6.250628-11.251131 6.250629-10.899533 6.250628-10.547936 6.250628-10.235403 6.250629-9.883806 6.250628-9.493142 6.250628-9.180611 6.250629-8.829012 6.250628-8.438348 6.250628-8.125817 6.250629-7.735153 6.250628-7.344488 6.250628-6.99289 6.250629-6.641293 6.250628-6.250628 6.250628-5.899031 6.250629-5.4693 6.250628-5.156768 6.250628-4.727038 6.250629-4.37544 6.250628-3.945709 6.250628-3.594111 6.250629-3.203447 6.250628-2.812783 6.211562-2.422118 6.250628-2.031454 6.250628-1.64079 6.250629-1.289192 6.250628-.859462 6.250628-.468797 6.250629-.078133 6.250628.312532 6.250628.703195 6.250629 1.09386 6.250628 1.484525 6.250628 1.875188 6.250629 2.265853 6.250628 2.656517 6.250628 3.047181 6.250629 3.398779 6.250628 3.82851 6.250628 4.180108 6.250629 4.609838 6.250628 4.961436 6.250628 5.352101 6.250629 5.703698 6.250628 6.094363 6.250628 6.485027 6.250629 6.836625 6.250628 7.227289 6.250628 7.578886 6.250629 7.930485 6.250628 8.321149 6.250628 8.672747 6.250629 9.024344 6.250628 9.375943 6.250628 9.72754 6.250629 10.079138 6.250628 10.430737 6.250628 10.743267 6.250629 11.094865 6.250628 11.407397" style="fill:none;stroke-width:12.5;stroke-linecap:round;stroke:#006400;stroke-miterlimit:10;transform:matrix(.0999899,0,0,-.0999899,.49995,275.484678)"/></g><g clip-path="url(#a1)"><use href="#o" class="h"/></g><g clip-path="url(#a2)"><use href="#p" class="h"/></g><g clip-path="url(#a3)"><use href="#o" class="b"/></g><g clip-path="url(#a4)"><path d="M1050.003991 105.013589v2549.982893" class="b"/></g><g clip-path="url(#a5)"><path d="M1900.01131 105.013589v2549.982893" class="b"/></g><g clip-path="url(#a6)"><path d="M2750.01863 105.013589v2549.982893" class="b"/></g><g clip-path="url(#a7)"><use href="#q" class="b"/></g><g clip-path="url(#a8)"><path d="M199.996671 220.923678h3399.990212" class="b"/></g><g clip-path="url(#a9)"><path d="M199.996671 800.474123h3399.990212" class="b"/></g><g clip-path="url(#aa)"><use href="#p" class="b"/></g><g clip-path="url(#ab)"><path d="M199.996671 1959.535947h3399.990212" class="b"/></g><g clip-path="url(#ac)"><path d="M199.996671 2539.086393h3399.990212" class="b"/></g><g class="f"><path d="M199.996671 105.013589h3399.990212" class="c"/><g class="d"><path d="M199.996671 105.013589v50.005027"/><path d="M285.005216 105.013589v25.002513"/><path d="M370.013761 105.013589v25.002513"/><path d="M454.98324 105.013589v25.002513"/><path d="M539.991786 105.013589v25.002513"/><path d="M625.000331 105.013589v25.002513"/><path d="M710.008876 105.013589v25.002513"/><path d="M794.978355 105.013589v25.002513"/><path d="M879.9869 105.013589v25.002513"/><path d="M964.995445 105.013589v25.002513"/><path d="M1050.003991 105.013589v50.005027"/><path d="M1135.012536 105.013589v25.002513"/><path d="M1219.982015 105.013589v25.002513"/><path d="M1304.99056 105.013589v25.002513"/><path d="M1389.999105 105.013589v25.002513"/><path d="M1475.00765 105.013589v25.002513"/><path d="M1560.016196 105.013589v25.002513"/><path d="M1644.985674 105.013589v25.002513"/><path d="M1729.99422 105.013589v25.002513"/><path d="M1815.002765 105.013589v25.002513"/><path d="M1900.01131 105.013589v50.005027"/><path d="M1984.980789 105.013589v25.002513"/><path d="M2069.989334 105.013589v25.002513"/><path d="M2154.997879 105.013589v25.002513"/><path d="M2240.006425 105.013589v25.002513"/><path d="M2325.01497 105.013589v25.002513"/><path d="M2409.984449 105.013589v25.002513"/><path d="M2494.992994 105.013589v25.002513"/><path d="M2580.001539 105.013589v25.002513"/><path d="M2665.010085 105.013589v25.002513"/><path d="M2750.01863 105.013589v50.005027"/><path d="M2834.988109 105.013589v25.002513"/><path d="M2919.996654 105.013589v25.002513"/><path d="M3005.005199 105.013589v25.002513"/><path d="M3090.013744 105.013589v25.002513"/><path d="M3174.983223 105.013589v25.002513"/><path d="M3259.991768 105.013589v25.002513"/><path d="M3345.000314 105.013589v25.002513"/><path d="M3430.008859 105.013589v25.002513"/><path d="M3515.017404 105.013589v25.002513"/><path d="M3599.986883 105.013589v50.005027"/></g></g><g clip-path="url(#ad)"><use x="400.5466" y="274.9847" href="#r"/><use x="404.7162" y="274.9847" href="#s"/><use x="406.801" y="274.9847" href="#r"/></g><g clip-path="url(#ae)"><use x="485.5381" y="274.9847" href="#D"/><use x="489.7076" y="274.9847" href="#s"/><use x="491.7924" y="274.9847" href="#v"/></g><g clip-path="url(#af)"><use x="571.1547" y="274.9847" href="#v"/><use x="575.3243" y="274.9847" href="#s"/><use x="577.4091" y="274.9847" href="#r"/></g><g clip-path="url(#ag)"><use x="656.1461" y="274.9847" href="#E"/><use x="660.3157" y="274.9847" href="#s"/><use x="662.4005" y="274.9847" href="#v"/></g><g clip-path="url(#ah)"><use x="739.0531" y="274.9847" href="#z"/><use x="743.2227" y="274.9847" href="#r"/><use x="747.3922" y="274.9847" href="#s"/><use x="749.477" y="274.9847" href="#r"/></g><g class="f"><path d="M199.996671 2654.996482h3399.990212" class="c"/><g class="d"><path d="M199.996671 2654.996482v-50.005027"/><path d="M285.005216 2654.996482v-25.002514"/><path d="M370.013761 2654.996482v-25.002514"/><path d="M454.98324 2654.996482v-25.002514"/><path d="M539.991786 2654.996482v-25.002514"/><path d="M625.000331 2654.996482v-25.002514"/><path d="M710.008876 2654.996482v-25.002514"/><path d="M794.978355 2654.996482v-25.002514"/><path d="M879.9869 2654.996482v-25.002514"/><path d="M964.995445 2654.996482v-25.002514"/><path d="M1050.003991 2654.996482v-50.005027"/><path d="M1135.012536 2654.996482v-25.002514"/><path d="M1219.982015 2654.996482v-25.002514"/><path d="M1304.99056 2654.996482v-25.002514"/><path d="M1389.999105 2654.996482v-25.002514"/><path d="M1475.00765 2654.996482v-25.002514"/><path d="M1560.016196 2654.996482v-25.002514"/><path d="M1644.985674 2654.996482v-25.002514"/><path d="M1729.99422 2654.996482v-25.002514"/><path d="M1815.002765 2654.996482v-25.002514"/><path d="M1900.01131 2654.996482v-50.005027"/><path d="M1984.980789 2654.996482v-25.002514"/><path d="M2069.989334 2654.996482v-25.002514"/><path d="M2154.997879 2654.996482v-25.002514"/><path d="M2240.006425 2654.996482v-25.002514"/><path d="M2325.01497 2654.996482v-25.002514"/><path d="M2409.984449 2654.996482v-25.002514"/><path d="M2494.992994 2654.996482v-25.002514"/><path d="M2580.001539 2654.996482v-25.002514"/><path d="M2665.010085 2654.996482v-25.002514"/><path d="M2750.01863 2654.996482v-50.005027"/><path d="M2834.988109 2654.996482v-25.002514"/><path d="M2919.996654 2654.996482v-25.002514"/><path d="M3005.005199 2654.996482v-25.002514"/><path d="M3090.013744 2654.996482v-25.002514"/><path d="M3174.983223 2654.996482v-25.002514"/><path d="M3259.991768 2654.996482v-25.002514"/><path d="M3345.000314 2654.996482v-25.002514"/><path d="M3430.008859 2654.996482v-25.002514"/><path d="M3515.017404 2654.996482v-25.002514"/><path d="M3599.986883 2654.996482v-50.005027"/></g></g><use x="400.5466" y="6.8867" href="#r"/><use x="404.7162" y="6.8867" href="#s"/><use x="406.801" y="6.8867" href="#r"/><use x="485.5381" y="6.8867" href="#D"/><use x="489.7076" y="6.8867" href="#s"/><use x="491.7924" y="6.8867" href="#v"/><use x="571.1547" y="6.8867" href="#v"/><use x="575.3243" y="6.8867" href="#s"/><use x="577.4091" y="6.8867" href="#r"/><use x="656.1461" y="6.8867" href="#E"/><use x="660.3157" y="6.8867" href="#s"/><use x="662.4005" y="6.8867" href="#v"/><use x="739.0531" y="6.8867" href="#z"/><use x="743.2227" y="6.8867" href="#r"/><use x="747.3922" y="6.8867" href="#s"/><use x="749.477" y="6.8867" href="#r"/><g class="f"><use href="#o" class="c"/><g class="d"><path d="M199.996671 105.013589h25.002513"/><path d="M199.996671 162.9491h25.002513"/><path d="M199.996671 220.923678h50.005027"/><path d="M199.996671 278.85919h25.002513"/><path d="M199.996671 336.833767h25.002513"/><path d="M199.996671 394.769279h25.002513"/><path d="M199.996671 452.743856h25.002513"/><path d="M199.996671 510.679368h25.002513"/><path d="M199.996671 568.653945h25.002513"/><path d="M199.996671 626.589457h25.002513"/><path d="M199.996671 684.564034h25.002513"/><path d="M199.996671 742.499546h25.002513"/><path d="M199.996671 800.474123h50.005027"/><path d="M199.996671 858.409635h25.002513"/><path d="M199.996671 916.345146h25.002513"/><path d="M199.996671 974.319724h25.002513"/><path d="M199.996671 1032.294301h25.002513"/><path d="M199.996671 1090.229813h25.002513"/><path d="M199.996671 1148.165324h25.002513"/><path d="M199.996671 1206.139902h25.002513"/><path d="M199.996671 1264.075413h25.002513"/><path d="M199.996671 1322.049991h25.002513"/><path d="M199.996671 1379.985502h50.005027"/><path d="M199.996671 1437.96008h25.002513"/><path d="M199.996671 1495.895591h25.002513"/><path d="M199.996671 1553.870169h25.002513"/><path d="M199.996671 1611.80568h25.002513"/><path d="M199.996671 1669.780258h25.002513"/><path d="M199.996671 1727.715769h25.002513"/><path d="M199.996671 1785.690347h25.002513"/><path d="M199.996671 1843.625858h25.002513"/><path d="M199.996671 1901.600436h25.002513"/><path d="M199.996671 1959.535947h50.005027"/><path d="M199.996671 2017.510525h25.002513"/><path d="M199.996671 2075.446036h25.002513"/><path d="M199.996671 2133.420614h25.002513"/><path d="M199.996671 2191.356125h25.002513"/><path d="M199.996671 2249.330703h25.002513"/><path d="M199.996671 2307.266214h25.002513"/><path d="M199.996671 2365.240792h25.002513"/><path d="M199.996671 2423.176303h25.002513"/><path d="M199.996671 2481.150881h25.002513"/><path d="M199.996671 2539.086393h50.005027"/><path d="M199.996671 2597.06097h25.002513"/><path d="M199.996671 2654.996482h25.002513"/></g></g><g clip-path="url(#ai)"><use x="386.5887" y="256.8616" href="#B"/><use x="389.0859" y="256.8616" href="#z"/><use x="393.2555" y="256.8616" href="#s"/><use x="395.3403" y="256.8616" href="#r"/></g><g clip-path="url(#aj)"><use x="386.5887" y="198.7424" href="#B"/><use x="389.0859" y="198.7424" href="#r"/><use x="393.2555" y="198.7424" href="#s"/><use x="395.3403" y="198.7424" href="#v"/></g><use x="389.0857" y="140.6232" href="#r"/><use x="393.2553" y="140.6232" href="#s"/><use x="395.34" y="140.6232" href="#r"/><use x="389.0857" y="83.129" href="#r"/><use x="393.2553" y="83.129" href="#s"/><use x="395.34" y="83.129" href="#v"/><use x="389.0857" y="25.0099" href="#z"/><use x="393.2553" y="25.0099" href="#s"/><use x="395.34" y="25.0099" href="#r"/><g class="f"><use href="#q" class="c"/><g class="d"><path d="M3599.986883 105.013589h-25.002513"/><path d="M3599.986883 162.9491h-25.002513"/><path d="M3599.986883 220.923678h-50.005027"/><path d="M3599.986883 278.85919h-25.002513"/><path d="M3599.986883 336.833767h-25.002513"/><path d="M3599.986883 394.769279h-25.002513"/><path d="M3599.986883 452.743856h-25.002513"/><path d="M3599.986883 510.679368h-25.002513"/><path d="M3599.986883 568.653945h-25.002513"/><path d="M3599.986883 626.589457h-25.002513"/><path d="M3599.986883 684.564034h-25.002513"/><path d="M3599.986883 742.499546h-25.002513"/><path d="M3599.986883 800.474123h-50.005027"/><path d="M3599.986883 858.409635h-25.002513"/><path d="M3599.986883 916.345146h-25.002513"/><path d="M3599.986883 974.319724h-25.002513"/><path d="M3599.986883 1032.294301h-25.002513"/><path d="M3599.986883 1090.229813h-25.002513"/><path d="M3599.986883 1148.165324h-25.002513"/><path d="M3599.986883 1206.139902h-25.002513"/><path d="M3599.986883 1264.075413h-25.002513"/><path d="M3599.986883 1322.049991h-25.002513"/><path d="M3599.986883 1379.985502h-50.005027"/><path d="M3599.986883 1437.96008h-25.002513"/><path d="M3599.986883 1495.895591h-25.002513"/><path d="M3599.986883 1553.870169h-25.002513"/><path d="M3599.986883 1611.80568h-25.002513"/><path d="M3599.986883 1669.780258h-25.002513"/><path d="M3599.986883 1727.715769h-25.002513"/><path d="M3599.986883 1785.690347h-25.002513"/><path d="M3599.986883 1843.625858h-25.002513"/><path d="M3599.986883 1901.600436h-25.002513"/><path d="M3599.986883 1959.535947h-50.005027"/><path d="M3599.986883 2017.510525h-25.002513"/><path d="M3599.986883 2075.446036h-25.002513"/><path d="M3599.986883 2133.420614h-25.002513"/><path d="M3599.986883 2191.356125h-25.002513"/><path d="M3599.986883 2249.330703h-25.002513"/><path d="M3599.986883 2307.266214h-25.002513"/><path d="M3599.986883 2365.240792h-25.002513"/><path d="M3599.986883 2423.176303h-25.002513"/><path d="M3599.986883 2481.150881h-25.002513"/><path d="M3599.986883 2539.086393h-50.005027"/><path d="M3599.986883 2597.06097h-25.002513"/><path d="M3599.986883 2654.996482h-25.002513"/></g></g><g clip-path="url(#ak)"><use x="752.5983" y="256.8616" href="#B"/><use x="755.0956" y="256.8616" href="#z"/><use x="759.2652" y="256.8616" href="#s"/><use x="761.35" y="256.8616" href="#r"/></g><g clip-path="url(#al)"><use x="752.5983" y="198.7424" href="#B"/><use x="755.0956" y="198.7424" href="#r"/><use x="759.2652" y="198.7424" href="#s"/><use x="761.35" y="198.7424" href="#v"/></g><use x="752.5983" y="140.6232" href="#r"/><use x="756.7679" y="140.6232" href="#s"/><use x="758.8527" y="140.6232" href="#r"/><use x="752.5983" y="83.129" href="#r"/><use x="756.7679" y="83.129" href="#s"/><use x="758.8527" y="83.129" href="#v"/><use x="752.5983" y="25.0099" href="#z"/><use x="756.7679" y="25.0099" href="#s"/><use x="758.8527" y="25.0099" href="#r"/><g style="clip-path:url(#am);fill:none;stroke-width:12.5;stroke-linecap:round;stroke-miterlimit:10"><g transform="matrix(.0999899 0 0 -.0999899 386.385156 275.484678)"><path stroke="#00008b" d="M199.996671 2539.086393l6.250628-.781329 6.250629-2.343986 6.250628-3.906642 6.250628-5.4693 6.250629-7.031957 6.250628-8.555548 6.250628-10.079138 6.250629-11.602729 6.250628-13.087253 6.250628-14.571777 6.250629-16.056301 6.250628-17.50176 6.250628-18.90815 6.250629-20.275476 6.250628-21.642801 6.250628-23.010125 6.250629-24.299318 6.250628-25.549443 6.250628-26.799569 6.250629-28.010628 6.250628-29.143555 6.250628-30.276481 6.250629-31.370341 6.250628-32.386068 6.250628-33.401795 6.250628-34.339389 6.250629-35.276984 6.250628-36.097378 6.250628-36.917774 6.250629-37.660036 6.250628-38.402297 6.250628-39.027361 6.250629-39.652423 6.250628-40.160287 6.250628-40.668151 6.250629-41.136948 6.211562-41.488545 6.250628-41.840144 6.250628-42.074541 6.250629-42.308941 6.250628-42.465206 6.250628-42.582406 6.250629-42.621472 6.250628-42.582405 6.250628-42.504273 6.250629-42.426139 6.250628-42.191742 6.250628-41.957342 6.250629-41.644811 6.250628-41.293214 6.250628-40.902549 6.250629-40.394686 6.250628-39.886822 6.250628-39.300825 6.250629-38.714829 6.250628-37.972567 6.250628-37.269372 6.250629-36.488043 6.250628-35.628581 6.250628-34.76912 6.250628-33.831526 6.250629-32.854865 6.250628-31.839138 6.250628-30.784345 6.250629-29.651418 6.250628-28.557558 6.250628-27.346499 6.250629-26.096373 6.250628-24.885314 6.250628-23.596122 6.250629-22.228797 6.250628-20.939605 6.250628-19.494147 6.250629-18.165889 6.250628-16.681364 6.250628-15.235907 6.250629-13.790448 6.250628-12.266858 6.250628-10.782334 6.250629-9.219677 6.250628-7.735153 6.250628-6.172495 6.250629-4.609839 6.250628-3.047181 6.250628-1.484524 6.250629.078133 6.250628 1.64079 6.250628 3.203447 6.250629 4.766104 6.250628 6.328761 6.250628 7.852352 6.250629 9.375942 6.250628 10.9386 6.250628 12.423124 6.250629 13.907648 6.250628 15.392172 6.250628 16.83763 6.250629 18.283088 6.211561 19.650413 6.250629 21.056804 6.250628 22.385063 6.250628 23.713321 6.250629 24.963447 6.250628 26.252639 6.250628 27.463698 6.250629 28.635691 6.250628 29.807684 6.250628 30.862477 6.250629 31.956337 6.250628 32.932998 6.250628 33.948726 6.250629 34.847252 6.250628 35.706715 6.250628 36.566175 6.250629 37.347505 6.250628 38.0507 6.250628 38.753895 6.250629 39.378959 6.250628 39.925888 6.250628 40.472819 6.250629 40.902549 6.250628 41.33228 6.250628 41.683877 6.250629 41.996409 6.250628 42.230808 6.250628 42.387073 6.250629 42.543339 6.250628 42.582406 6.250628 42.621472 6.250629 42.543339 6.250628 42.465206 6.250628 42.30894 6.250629 42.074542 6.250628 41.801077 6.250628 41.449479 6.250629 41.097882 6.250628 40.629084 6.250628 40.12122 6.250629 39.574291 6.250628 38.988294 6.250628 38.285099 6.250629 37.620969 6.250628 36.839641 6.250628 36.019245 6.250629 35.159785 6.250628 34.261256 6.250628 33.284596 6.250629 32.307935 6.250628 31.292208 6.250628 30.159282 6.250628 29.065422 6.250629 27.854362 6.250628 26.68237 6.250628 25.432244 6.250629 24.182118 6.250628 22.85386 6.250628 21.525601 6.250629 20.158277 6.250628 18.790951 6.250628 17.306427 6.211562 15.900036 6.250629 14.454578 6.250628 12.970054 6.250628 11.446463 6.250629 9.922872 6.250628 8.438349 6.250628 6.836624 6.250629 5.313034 6.250628 3.789444 6.250628 2.18772 6.250629.625063 6.250628-.937595 6.250628-2.500251 6.250629-4.062908 6.250628-5.625566 6.250628-7.149156 6.250629-8.711813 6.250628-10.235404 6.250628-11.758995 6.250629-13.243519 6.250628-14.728043 6.250628-16.1735 6.250629-17.618959 6.250628-19.064416 6.250628-20.392675 6.250629-21.799067 6.250628-23.127324 6.250628-24.416517 6.250628-25.666643 6.250629-26.916768 6.250628-28.127828 6.250628-29.260753 6.250629-30.393681 6.250628-31.448473 6.250628-32.503268 6.250629-33.518994 6.250628-34.417522 6.250628-35.355117 6.250629-36.175511 6.250628-36.995907 6.250628-37.738168 6.250629-38.441364 6.250628-39.105494 6.250628-39.69149 6.250629-40.23842 6.250628-40.707217 6.250628-41.176014 6.250629-41.527612 6.250628-41.840143 6.250628-42.152675 6.250629-42.30894 6.250628-42.465206 6.250628-42.582406 6.250629-42.621472 6.250628-42.582405 6.250628-42.504273 6.250629-42.387073 6.250628-42.191741 6.250628-41.918277 6.250629-41.605744 6.250628-41.293214 6.250628-40.824416 6.211562-40.355619 6.250628-39.847756 6.250629-39.261759 6.250628-38.59763 6.250628-37.933501 6.250629-37.191238 6.250628-36.40991 6.250628-35.550449 6.250629-34.651921 6.250628-33.753392 6.250628-32.776733 6.250629-31.721939 6.250628-30.667145 6.250628-29.573285 6.250629-28.401292 6.250628-27.2293 6.250628-26.018241 6.250629-24.729048 6.250628-23.439856 6.250628-22.150664 6.250629-20.783339 6.250628-19.376948 6.250628-18.009623 6.250629-16.564165 6.250628-15.079641 6.250628-13.634183 6.250629-12.149659 6.250628-10.587002 6.250628-9.102477 6.250629-7.578887 6.250628-6.01623 6.250628-4.453572 6.250629-2.929982 6.250628-1.328259 6.250628.234399 6.250629 1.797055 6.250628 3.359713 6.250628 4.92237 6.250629 6.44596 6.250628 8.047684 6.250628 9.532208 6.250629 11.055799 6.250628 12.57939 6.250628 14.063914 6.250629 15.509371 6.250628 16.993896 6.250628 18.400287 6.250629 19.806678 6.250628 21.174004 6.250628 22.502262 6.250629 23.869587 6.250628 25.080646 6.250628 26.369838 6.250628 27.580898 6.250629 28.75289 6.250628 29.885817 6.250628 30.979676 6.250629 32.073537 6.250628 33.050197 6.250628 33.987792 6.250629 34.964452 6.250628 35.784847 6.250628 36.644309 6.211562 37.425637 6.250629 38.128833 6.250628 38.792962 6.250628 39.418025 6.250629 40.004021 6.250628 40.511885 6.250628 40.980682 6.250629 41.371346 6.250628 41.722944 6.250628 41.996409 6.250629 42.230808 6.250628 42.426139 6.250628 42.54334 6.250629 42.621471 6.250628 42.582406 6.250628 42.543339 6.250629 42.465206 6.250628 42.269874 6.250628 42.035476 6.250629 41.76201 6.250628 41.449479 6.250628 41.019749 6.250629 40.590017 6.250628 40.082155 6.250628 39.535224 6.250629 38.910161 6.250628 38.246032 6.250628 37.50377 6.250628 36.761508 6.250629 35.980179 6.250628 35.081652 6.250628 34.144057 6.250629 33.206463 6.250628 32.229802 6.250628 31.135943 6.250629 30.081148 6.250628 28.909156 6.250628 27.77623 6.250629 26.56517 6.250628 25.315045 6.250628 24.064919 6.250629 22.736661 6.250628 21.369335 6.250628 20.041077 6.250629 18.59562 6.250628 17.228294 6.250628 15.74377 6.250629 14.298312 6.250628 12.813789 6.250628 11.290197 6.250629 9.805673 6.250628 8.243016 6.250628 6.719426 6.250629 5.156768 6.250628 3.633178 6.250628 2.031454 6.250629.468797 6.250628-1.054793 6.250628-2.656517 6.250629-4.219175 6.250628-5.781831 6.250628-7.305422 6.211562-8.868079 6.250628-10.391669 6.250629-11.876194 6.250628-13.399784 6.250628-14.845243 6.250629-16.329766 6.250628-17.775225 6.250628-19.181615 6.250629-20.548941 6.250628-21.916265 6.250628-23.244525 6.250629-24.533716 6.250628-25.822908 6.250628-27.033968 6.250629-28.245026 6.250628-29.377953 6.250628-30.471813 6.250629-31.565674 6.250628-32.620466 6.250628-33.597127 6.250629-34.495655 6.250628-35.43325 6.250628-36.292711 6.250629-37.034972 6.250628-37.816302 6.250628-38.519497 6.250629-39.14456 6.250628-39.769622 6.250628-40.277487 6.250629-40.746283 6.250628-41.215081 6.250628-41.566678 6.250629-41.87921 6.250628-42.152675 6.250628-42.348006 6.250629-42.465207 6.250628-42.621472 12.501257-85.164811 6.250628-42.504272 6.250628-42.348007 6.250629-42.191741 6.250628-41.87921 6.250628-41.605745 6.250629-41.21508 6.250628-40.78535 6.250628-40.316553 6.250629-39.769623 6.250628-39.222692 6.250628-38.558564 6.250629-37.855368 6.250628-37.113105 6.250628-36.292711 6.250628-35.472316 6.250629-34.612854 6.250628-33.636194 6.250628-32.659533 6.250629-31.643806 6.250628-30.549946 6.250628-29.456086 6.250629-28.284093 6.250628-27.1121 6.211562-25.901041 6.250628-24.611849 6.250629-23.322657 6.250628-21.994399 6.250628-20.66614 6.250629-19.259748 6.250628-17.853357 6.250628-16.4079 6.250629-14.962441 6.250628-13.477918 6.250628-11.993393 6.250629-10.469802 6.250628-8.946212 6.250628-7.422621 6.250629-5.859964 6.250628-4.297307 6.250628-2.773717 6.250629-1.171992 6.250628.390664 6.250628 1.953321 6.250629 3.476912 6.250628 5.078636 6.250628 6.641292 6.250629 8.164884 6.250628 9.688474 6.250628 11.212064 6.250629 12.696589 6.250628 14.220179 6.250628 15.665638 6.250628 17.111095 6.250629 18.556552 6.250628 19.923878 6.250628 21.330269 6.250629 22.619462 6.250628 23.986786 6.250628 25.236912 6.250629 26.487037 6.250628 27.698097 6.250628 28.87009 6.250629 29.963949 6.250628 31.096876 6.250628 32.15167 6.250629 33.12833 6.250628 34.104991 6.250628 35.042585 6.250629 35.902046 6.250628 36.683375 6.250628 37.50377 6.250629 38.206966 6.250628 38.871095 6.250628 39.496157 6.250629 40.043088 6.250628 40.550951 6.250628 41.019749 6.250629 41.410412 6.250628 41.722944 6.250628 42.035476 6.250629 42.269874 6.250628 42.42614 6.250628 42.543339 6.250629 42.621472 6.250628 42.582405 6.211562 42.543339 6.250628 42.42614 6.250629 42.269874 6.250628 42.035476 6.250628 41.722944 6.250628 41.410412 6.250629 40.980682 6.250628 40.550952 6.250628 40.004021 6.250629 39.496158 6.250628 38.832028 6.250628 38.167899 6.250629 37.464704 6.250628 36.683375 6.250628 35.86298 6.250629 35.003518 6.250628 34.065925 6.250628 33.12833 6.250629 32.073537 6.250628 31.057809 6.250628 29.96395 6.250629 28.831023 6.250628 27.65903 6.250628 26.447971 6.250629 25.197846 6.250628 23.908653 6.250628 22.580395 6.250629 21.291203 6.250628 19.884811 6.250628 18.47842 6.250629 17.072029 6.250628 15.587504 6.250628 14.181113 6.250629 12.657522 6.250628 11.133932 6.250628 9.649408 6.250629 8.125816 6.250628 6.56316 6.250628 5.000503 6.250629 3.476912 6.250628 1.875188 6.250628.351598 6.250629-1.250126 6.250628-2.812782 6.250628-4.37544 6.250629-5.938097 6.250628-7.461688 6.250628-8.985278 6.250629-10.547935 6.250628-12.03246 6.250628-13.516983 6.250629-15.040575 6.250628-16.446966 6.250628-17.892423 6.250629-19.298815 6.250628-20.705207 6.250628-22.072531 6.250628-23.361723 6.250629-24.650916 6.250628-25.940107 6.250628-27.151167 6.250629-28.32316 6.211562-29.495152 6.250628-30.628079 6.250628-31.643806 6.250629-32.698599 6.250628-33.714327 6.250628-34.612854 6.250629-35.472316 6.250628-36.370843 6.250628-37.152172 6.250629-37.855368 6.250628-38.59763"/><path stroke="#006400" d="M199.996671 220.923678l6.250628.781329 6.250629 2.343985 6.250628 3.906643 6.250628 5.4693 6.250629 7.031957 6.250628 8.555547 6.250628 10.079138 6.250629 11.602729 6.250628 13.087253 6.250628 14.571778 6.250629 16.056301 6.250628 17.501759 6.250628 18.869085 6.250629 20.314542 6.250628 21.6428 6.250628 22.971059 6.250629 24.299318 6.250628 25.58851 6.250628 26.799569 6.250629 27.971562 6.250628 29.182621 6.250628 30.27648 6.250629 31.370341 6.250628 32.386068 6.250628 33.401796 6.250628 34.339389 6.250629 35.276984 6.250628 36.097378 6.250628 36.917774 6.250629 37.660035 6.250628 38.402298 6.250628 39.027361 6.250629 39.613357 6.250628 40.199353 6.250628 40.668151 6.250629 41.136947 6.211562 41.488546 6.250628 41.801077 6.250628 42.113608 6.250629 42.308941 6.250628 42.465206 6.250628 42.582405 6.250629 42.621472 6.250628 42.582406 6.250628 42.504272 6.250629 42.42614 6.250628 42.152675 6.250628 41.996409 6.250629 41.644811 6.250628 41.293214 6.250628 40.902549 6.250629 40.394685 6.250628 39.886822 6.250628 39.300826 6.250629 38.675763 6.250628 38.011633 6.250628 37.269372 6.250629 36.488042 6.250628 35.628582 6.250628 34.76912 6.250628 33.831526 6.250629 32.854865 6.250628 31.839138 6.250628 30.784344 6.250629 29.651419 6.250628 28.518491 6.250628 27.385566 6.250629 26.096373 6.250628 24.885314 6.250628 23.557056 6.250629 22.267863 6.250628 20.900538 6.250628 19.533214 6.250629 18.126822 6.250628 16.720431 6.250628 15.235906 6.250629 13.751383 6.250628 12.305924 6.250628 10.743268 6.250629 9.258743 6.250628 7.735152 6.250628 6.172496 6.250629 4.609838 6.250628 3.047182 6.250628 1.484524 6.250629-.078133 6.250628-1.64079 6.250628-3.203447 6.250629-4.766104 6.250628-6.328761 6.250628-7.852352 6.250629-9.415009 6.250628-10.899533 6.250628-12.423124 6.250629-13.907648 6.250628-15.392172 6.250628-16.83763 6.250629-18.283088 6.211561-19.650413 6.250629-21.056804 6.250628-22.385063 6.250628-23.713321 6.250629-25.002513 6.250628-26.213573 6.250628-27.463698 6.250629-28.635691 6.250628-29.807684 6.250628-30.862477 6.250629-31.956338 6.250628-32.932998 6.250628-33.948725 6.250629-34.847253 6.250628-35.706714 6.250628-36.566176 6.250629-37.347504 6.250628-38.0507 6.250628-38.753896 6.250629-39.378958 6.250628-39.925888 6.250628-40.472819 6.250629-40.941615 6.250628-41.293214 6.250628-41.683877 6.250629-41.996409 6.250628-42.230808 6.250628-42.42614 6.250629-42.504273 6.250628-42.582405 6.250628-42.621472 6.250629-42.582405 6.250628-42.42614 6.250628-42.308941 6.250629-42.074542 6.250628-41.801076 6.250628-41.44948 6.250629-41.097881 6.250628-40.629084 6.250628-40.121221 6.250629-39.57429 6.250628-38.988294 6.250628-38.324165 6.250629-37.581903 6.250628-36.839641 6.250628-36.019245 6.250629-35.159785 6.250628-34.261256 6.250628-33.323663 6.250629-32.307935 6.250628-31.253141 6.250628-30.159282 6.250628-29.065422 6.250629-27.893429 6.250628-26.643303 6.250628-25.47131 6.250629-24.143052 6.250628-22.85386 6.250628-21.525601 6.250629-20.158277 6.250628-18.790951 6.250628-17.345494 6.211562-15.900036 6.250629-14.415511 6.250628-12.970054 6.250628-11.446463 6.250629-9.961939 6.250628-8.399282 6.250628-6.836625 6.250629-5.3521 6.250628-3.750377 6.250628-2.18772 6.250629-.625063 6.250628.937594 6.250628 2.500252 6.250629 4.062908 6.250628 5.625566 6.250628 7.149156 6.250629 8.711813 6.250628 10.235404 6.250628 11.758995 6.250629 13.243518 6.250628 14.728043 6.250628 16.173501 6.250629 17.618959 6.250628 19.02535 6.250628 20.431741 6.250629 21.799066 6.250628 23.127325 6.250628 24.416517 6.250628 25.666643 6.250629 26.916768 6.250628 28.127827 6.250628 29.260754 6.250629 30.39368 6.250628 31.448474 6.250628 32.503267 6.250629 33.518995 6.250628 34.417522 6.250628 35.355117 6.250629 36.175511 6.250628 36.995906 6.250628 37.738169 6.250629 38.441364 6.250628 39.105494 6.250628 39.691489 6.250629 40.23842 6.250628 40.707217 6.250628 41.176014 6.250629 41.527612 6.250628 41.840144 6.250628 42.113608 6.250629 42.348007 6.250628 42.465206 6.250628 42.582406 6.250629 42.621472 6.250628 42.582405 6.250628 42.504273 6.250629 42.387073 6.250628 42.191741 6.250628 41.918276 6.250629 41.605745 6.250628 41.293214 6.250628 40.824416 6.211562 40.355619 6.250628 39.847756 6.250629 39.222692 6.250628 38.636697 6.250628 37.9335 6.250629 37.191239 6.250628 36.370843 6.250628 35.589515 6.250629 34.651921 6.250628 33.753393 6.250628 32.737666 6.250629 31.761005 6.250628 30.667146 6.250628 29.573285 6.250629 28.401292 6.250628 27.2293 6.250628 26.01824 6.250629 24.729049 6.250628 23.439856 6.250628 22.150664 6.250629 20.783339 6.250628 19.376948 6.250628 18.009623 6.250629 16.525098 6.250628 15.118708 6.250628 13.634183 6.250629 12.110592 6.250628 10.626068 6.250628 9.102478 6.250629 7.578887 6.250628 6.016229 6.250628 4.453573 6.250629 2.890916 6.250628 1.367325 6.250628-.234399 6.250629-1.797056 6.250628-3.359712 6.250628-4.92237 6.250629-6.445961 6.250628-8.047684 6.250628-9.532208 6.250629-11.055799 6.250628-12.579389 6.250628-14.063914 6.250629-15.548438 6.250628-16.954829 6.250628-18.400287 6.250629-19.806679 6.250628-21.174003 6.250628-22.541329 6.250629-23.83052 6.250628-25.119713 6.250628-26.330772 6.250628-27.580897 6.250629-28.75289 6.250628-29.885817 6.250628-31.018743 6.250629-32.03447 6.250628-33.050198 6.250628-34.026857 6.250629-34.925386 6.250628-35.823914 6.250628-36.605242 6.211562-37.425637 6.250629-38.128833 6.250628-38.792962 6.250628-39.457091 6.250629-39.964955 6.250628-40.511885 6.250628-40.980682 6.250629-41.371346 6.250628-41.722944 6.250628-41.996409 6.250629-42.230808 6.250628-42.42614 6.250628-42.543339 6.250629-42.621472 12.501256-85.164811 6.250629-42.426139 6.250628-42.269874 6.250628-42.035476 6.250629-41.801077 6.250628-41.410413 6.250628-41.058814 6.250629-40.550952 6.250628-40.082154 6.250628-39.535224 6.250629-38.910161 6.250628-38.246032 6.250628-37.542837 6.250628-36.761508 6.250629-35.941113 6.250628-35.081651 6.250628-34.144057 6.250629-33.206463 6.250628-32.229803 6.250628-31.135942 6.250629-30.081149 6.250628-28.909156 6.250628-27.776229 6.250629-26.565171 6.250628-25.315044 6.250628-24.06492 6.250629-22.697594 6.250628-21.408402 6.250628-20.041077 6.250629-18.634685 6.250628-17.189228 6.250628-15.74377 6.250629-14.298313 6.250628-12.813788 6.250628-11.290197 6.250629-9.805673 6.250628-8.243016 6.250628-6.719426 6.250629-5.195835 6.250628-3.594111 6.250628-2.031454 6.250629-.507864 6.250628 1.09386 6.250628 2.656517 6.250629 4.219174 6.250628 5.781832 6.250628 7.305421 6.211562 8.868079 6.250628 10.39167 6.250629 11.876194 6.250628 13.399784 6.250628 14.845243 6.250629 16.329766 6.250628 17.775224 6.250628 19.181616 6.250629 20.548941 6.250628 21.916265 6.250628 23.244524 6.250629 24.533716 6.250628 25.822909 6.250628 27.033967 6.250629 28.205961 6.250628 29.417019 6.250628 30.471813 6.250629 31.565673 6.250628 32.620467 6.250628 33.558061 6.250629 34.534721 6.250628 35.43325 6.250628 36.253644 6.250629 37.074039 6.250628 37.816301 6.250628 38.519498 6.250629 39.144559 6.250628 39.730557 6.250628 40.277486 6.250629 40.78535 6.250628 41.21508 6.250628 41.566679 6.250629 41.87921 6.250628 42.152674 6.250628 42.348007 6.250629 42.465206 6.250628 42.582406 6.250628 42.621472 6.250629 42.582405 6.250628 42.504273 6.250628 42.348007 6.250629 42.152675 6.250628 41.918276 6.250628 41.605745 6.250629 41.21508 6.250628 40.78535 6.250628 40.316553 6.250629 39.769622 6.250628 39.183627 6.250628 38.558563 6.250629 37.855368 6.250628 37.113106 6.250628 36.331777 6.250628 35.472316 6.250629 34.573788 6.250628 33.67526 6.250628 32.659533 6.250629 31.604739 6.250628 30.589013 6.250628 29.456086 6.250629 28.284093 6.250628 27.1121 6.211562 25.901041 6.250628 24.611849 6.250629 23.322657 6.250628 21.994399 6.250628 20.627073 6.250629 19.259749 6.250628 17.853357 6.250628 16.446966 6.250629 14.962441 6.250628 13.477917 6.250628 11.993394 6.250629 10.469802 6.250628 8.946212 6.250628 7.422621 6.250629 5.859964 6.250628 4.297307 6.250628 2.773716 6.250629 1.171993 6.250628-.390664 6.250628-1.953322 6.250629-3.515978 6.250628-5.039569 6.250628-6.641293 6.250629-8.164883 6.250628-9.688474 6.250628-11.212064 6.250629-12.735656 6.250628-14.181113 6.250628-15.665637 6.250628-17.111095 6.250629-18.556553 6.250628-19.923878 6.250628-21.330269 6.250629-22.619461 6.250628-23.986786 6.250628-25.236912 6.250629-26.487038 6.250628-27.698096 6.250628-28.87009 6.250629-29.963949 6.250628-31.096876 6.250628-32.15167 6.250629-33.12833 6.250628-34.144057 6.250628-35.003519 6.250629-35.902046 6.250628-36.722442 6.250628-37.464703 6.250629-38.206966 6.250628-38.871095 6.250628-39.496158 6.250629-40.043087 6.250628-40.550952 6.250628-41.019748 6.250629-41.410413 6.250628-41.76201 6.250628-41.996409 6.250629-42.269874 6.250628-42.42614 6.250628-42.543339 12.501257-85.242944 6.211562-42.504272 6.250628-42.465207 6.250629-42.230807 6.250628-42.035476 6.250628-41.722944 6.250628-41.410413 6.250629-40.980682 6.250628-40.550951 6.250628-40.043088 6.250629-39.457091 6.250628-38.832028 6.250628-38.1679 6.250629-37.464703 6.250628-36.683375 6.250628-35.86298 6.250629-35.003519 6.250628-34.065924 6.250628-33.12833 6.250629-32.112603 6.250628-31.018743 6.250628-29.96395 6.250629-28.831023 6.250628-27.65903 6.250628-26.447971 6.250629-25.197846 6.250628-23.908653 6.250628-22.580395 6.250629-21.291203 6.250628-19.884811 6.250628-18.47842 6.250629-17.072029 6.250628-15.626571 6.250628-14.142046 6.250629-12.657523 6.250628-11.172998 6.250628-9.610341 6.250629-8.125817 6.250628-6.563159 6.250628-5.000503 6.250629-3.476912 6.250628-1.875189 6.250628-.351597 6.250629 1.250125 6.250628 2.812783 6.250628 4.37544 6.250629 5.89903 6.250628 7.500754 6.250628 8.985279 6.250629 10.547935 6.250628 12.032459 6.250628 13.516984 6.250629 15.001508 6.250628 16.486032 6.250628 17.892424 6.250629 19.298815 6.250628 20.705206 6.250628 22.033465 6.250628 23.40079 6.250629 24.650915 6.250628 25.940108 6.250628 27.151167 6.250629 28.323159 6.211562 29.495153 6.250628 30.628079 6.250628 31.643805 6.250629 32.6986 6.250628 33.67526 6.250628 34.612854 6.250629 35.511383 6.250628 36.370843 6.250628 37.152172 6.250629 37.855368 6.250628 38.59763"/></g></g><style>.a{fill:none;stroke:#bfbfbf;stroke-dasharray:12.5,18.75;stroke-linecap:round;stroke-miterlimit:10;stroke-width:6.25;transform:matrix(.0999899,0,0,-.0999899,.49995,275.484678)}.b{fill:none;stroke:#bfbfbf;stroke-dasharray:12.5,18.75;stroke-linecap:round;stroke-miterlimit:10;stroke-width:6.25;transform:matrix(.0999899,0,0,-.0999899,386.385156,275.484678)}.c{stroke-linecap:square;stroke-width:12.5}.d{stroke-width:6.25}.e{fill:none;stroke:#000;stroke-miterlimit:10;transform:matrix(.0999899,0,0,-.0999899,.49995,275.484678)}.f{fill:none;stroke:#000;stroke-miterlimit:10;transform:matrix(.0999899,0,0,-.0999899,386.385156,275.484678)}.g{fill:none;stroke:#bfbfbf;stroke-linecap:round;stroke-miterlimit:10;stroke-width:6.25;transform:matrix(.0999899,0,0,-.0999899,.49995,275.484678)}.h{fill:none;stroke:#bfbfbf;stroke-linecap:round;stroke-miterlimit:10;stroke-width:6.25;transform:matrix(.0999899,0,0,-.0999899,386.385156,275.484678)}</style></svg>