<svg xmlns="http://www.w3.org/2000/svg" width="342pt" height="258pt" viewBox="0 0 342 258"><defs><clipPath id="a"><path d="M170 1.5h2v255h-2zm0 0"/></clipPath><clipPath id="b"><path d="M1 128h340v2H1zm0 0"/></clipPath><clipPath id="c"><path d="M1 1.5h1v255H1zm0 0"/></clipPath><clipPath id="d"><path d="M85 1.5h2v255h-2zm0 0"/></clipPath><clipPath id="e"><path d="M170 1.5h2v255h-2zm0 0"/></clipPath><clipPath id="f"><path d="M255 1.5h2v255h-2zm0 0"/></clipPath><clipPath id="g"><path d="M340 1.5h1v255h-1zm0 0"/></clipPath><clipPath id="h"><path d="M1 256h340v.5H1zm0 0"/></clipPath><clipPath id="i"><path d="M1 192h340v2H1zm0 0"/></clipPath><clipPath id="j"><path d="M1 128h340v2H1zm0 0"/></clipPath><clipPath id="k"><path d="M1 64h340v2H1zm0 0"/></clipPath><clipPath id="l"><path d="M1 1.5h340V2H1zm0 0"/></clipPath></defs><path fill="#fff" d="M1 256.5h340V1.5H1zm0 0"/><g clip-path="url(#a)"><path d="M2000 225v2550" class="d"/></g><g clip-path="url(#b)"><path d="M300 1500h3400" class="d"/></g><g clip-path="url(#c)"><path d="M300 225v2550" class="a"/></g><g clip-path="url(#d)"><path d="M1150 225v2550" class="a"/></g><g clip-path="url(#e)"><path d="M2000 225v2550" class="a"/></g><g clip-path="url(#f)"><path d="M2850 225v2550" class="a"/></g><g clip-path="url(#g)"><path d="M3700 225v2550" class="a"/></g><g clip-path="url(#h)"><path d="M300 225h3400" class="a"/></g><g clip-path="url(#i)"><path d="M300 862.5h3400" class="a"/></g><g clip-path="url(#j)"><path d="M300 1500h3400" class="a"/></g><g clip-path="url(#k)"><path d="M300 2137.5h3400" class="a"/></g><g clip-path="url(#l)"><path d="M300 2775h3400" class="a"/></g><g fill="none" stroke-miterlimit="10" transform="matrix(.1 0 0 -.1 -29 279)"><g stroke="#000"><path d="M300 225h3400" class="b"/><g class="c"><path d="M300 225v50"/><path d="M385 225v25"/><path d="M470 225v25"/><path d="M555 225v25"/><path d="M640 225v25"/><path d="M725 225v25"/><path d="M810 225v25"/><path d="M895 225v25"/><path d="M980 225v25"/><path d="M1065 225v25"/><path d="M1150 225v50"/><path d="M1235 225v25"/><path d="M1320 225v25"/><path d="M1405 225v25"/><path d="M1490 225v25"/><path d="M1575 225v25"/><path d="M1660 225v25"/><path d="M1745 225v25"/><path d="M1830 225v25"/><path d="M1915 225v25"/><path d="M2000 225v50"/><path d="M2085 225v25"/><path d="M2170 225v25"/><path d="M2255 225v25"/><path d="M2340 225v25"/><path d="M2425 225v25"/><path d="M2510 225v25"/><path d="M2595 225v25"/><path d="M2680 225v25"/><path d="M2765 225v25"/><path d="M2850 225v50"/><path d="M2935 225v25"/><path d="M3020 225v25"/><path d="M3105 225v25"/><path d="M3190 225v25"/><path d="M3275 225v25"/><path d="M3360 225v25"/><path d="M3445 225v25"/><path d="M3530 225v25"/><path d="M3615 225v25"/><path d="M3700 225v50"/></g><path d="M300 2775h3400" class="b"/><g class="c"><path d="M300 2775v-50"/><path d="M385 2775v-25"/><path d="M470 2775v-25"/><path d="M555 2775v-25"/><path d="M640 2775v-25"/><path d="M725 2775v-25"/><path d="M810 2775v-25"/><path d="M895 2775v-25"/><path d="M980 2775v-25"/><path d="M1065 2775v-25"/><path d="M1150 2775v-50"/><path d="M1235 2775v-25"/><path d="M1320 2775v-25"/><path d="M1405 2775v-25"/><path d="M1490 2775v-25"/><path d="M1575 2775v-25"/><path d="M1660 2775v-25"/><path d="M1745 2775v-25"/><path d="M1830 2775v-25"/><path d="M1915 2775v-25"/><path d="M2000 2775v-50"/><path d="M2085 2775v-25"/><path d="M2170 2775v-25"/><path d="M2255 2775v-25"/><path d="M2340 2775v-25"/><path d="M2425 2775v-25"/><path d="M2510 2775v-25"/><path d="M2595 2775v-25"/><path d="M2680 2775v-25"/><path d="M2765 2775v-25"/><path d="M2850 2775v-50"/><path d="M2935 2775v-25"/><path d="M3020 2775v-25"/><path d="M3105 2775v-25"/><path d="M3190 2775v-25"/><path d="M3275 2775v-25"/><path d="M3360 2775v-25"/><path d="M3445 2775v-25"/><path d="M3530 2775v-25"/><path d="M3615 2775v-25"/><path d="M3700 2775v-50"/></g><path d="M300 225v2550" class="b"/><g class="c"><path d="M300 225h50"/><path d="M300 288.75h25"/><path d="M300 352.5h25"/><path d="M300 416.25h25"/><path d="M300 480h25"/><path d="M300 543.75h25"/><path d="M300 607.5h25"/><path d="M300 671.25h25"/><path d="M300 735h25"/><path d="M300 798.75h25"/><path d="M300 862.5h50"/><path d="M300 926.25h25"/><path d="M300 990h25"/><path d="M300 1053.75h25"/><path d="M300 1117.5h25"/><path d="M300 1181.25h25"/><path d="M300 1245h25"/><path d="M300 1308.75h25"/><path d="M300 1372.5h25"/><path d="M300 1436.25h25"/><path d="M300 1500h50"/><path d="M300 1563.75h25"/><path d="M300 1627.5h25"/><path d="M300 1691.25h25"/><path d="M300 1755h25"/><path d="M300 1818.75h25"/><path d="M300 1882.5h25"/><path d="M300 1946.25h25"/><path d="M300 2010h25"/><path d="M300 2073.75h25"/><path d="M300 2137.5h50"/><path d="M300 2201.25h25"/><path d="M300 2265h25"/><path d="M300 2328.75h25"/><path d="M300 2392.5h25"/><path d="M300 2456.25h25"/><path d="M300 2520h25"/><path d="M300 2583.75h25"/><path d="M300 2647.5h25"/><path d="M300 2711.25h25"/><path d="M300 2775h50"/></g><path d="M3700 225v2550" class="b"/><g class="c"><path d="M3700 225h-50"/><path d="M3700 288.75h-25"/><path d="M3700 352.5h-25"/><path d="M3700 416.25h-25"/><path d="M3700 480h-25"/><path d="M3700 543.75h-25"/><path d="M3700 607.5h-25"/><path d="M3700 671.25h-25"/><path d="M3700 735h-25"/><path d="M3700 798.75h-25"/><path d="M3700 862.5h-50"/><path d="M3700 926.25h-25"/><path d="M3700 990h-25"/><path d="M3700 1053.75h-25"/><path d="M3700 1117.5h-25"/><path d="M3700 1181.25h-25"/><path d="M3700 1245h-25"/><path d="M3700 1308.75h-25"/><path d="M3700 1372.5h-25"/><path d="M3700 1436.25h-25"/><path d="M3700 1500h-50"/><path d="M3700 1563.75h-25"/><path d="M3700 1627.5h-25"/><path d="M3700 1691.25h-25"/><path d="M3700 1755h-25"/><path d="M3700 1818.75h-25"/><path d="M3700 1882.5h-25"/><path d="M3700 1946.25h-25"/><path d="M3700 2010h-25"/><path d="M3700 2073.75h-25"/><path d="M3700 2137.5h-50"/><path d="M3700 2201.25h-25"/><path d="M3700 2265h-25"/><path d="M3700 2328.75h-25"/><path d="M3700 2392.5h-25"/><path d="M3700 2456.25h-25"/><path d="M3700 2520h-25"/><path d="M3700 2583.75h-25"/><path d="M3700 2647.5h-25"/><path d="M3700 2711.25h-25"/><path d="M3700 2775h-50"/></g></g><g stroke-width="12.5" stroke-linecap="round" stroke="#00f"><path d="M449.648438 433.515625l9.804687-185.195313"/><path d="M459.453125 248.320312h0"/><path d="M448.671875 665.273438l11.71875-185.078126"/><path d="M460.390625 480.195312h0"/><path d="M447.265625 896.992188l14.570313-184.882813"/><path d="M461.835938 712.109375h0"/><path d="M444.960938 1128.59375l19.179687-184.453125"/><path d="M464.140625 944.140625h0"/><path d="M440.46875 1359.84375l28.164062-183.320312"/><path d="M468.632812 1176.523438h0"/><path d="M428.4375 1588.984375l52.226562-177.96875"/><path d="M480.664062 1411.015625h0"/><path d="M365.976562 1759.257812 543.125 1704.375"/><path d="M543.125 1704.375h0"/><path d="M423.242188 1876.367188l62.617187 174.570312"/><path d="M485.859375 2050.9375h0"/><path d="M439.023438 2104.023438 470.078125 2286.875"/><path d="M470.078125 2286.875h0"/><path d="M444.296875 2335.117188l20.507813 184.296874"/><path d="M464.804688 2519.414062h0"/><path d="M446.914062 2566.679688l15.273438 184.804687"/><path d="M462.1875 2751.484375h0"/><path d="M757.539062 433.4375l12.226563-185.039062"/><path d="M769.765625 248.398438h0"/><path d="M756.328125 665.15625 770.9375 480.273438"/><path d="M770.9375 480.273438h0"/><path d="M754.570312 896.835938l18.125-184.570313"/><path d="M772.695312 712.265625h0"/><path d="M751.679688 1128.320312l23.90625-183.90625"/><path d="M775.585938 944.414062h0"/><path d="M746.132812 1359.257812l35-182.148437"/><path d="M781.132812 1177.109375h0"/><path d="M731.71875 1587.070312l63.828125-174.140624"/><path d="M795.546875 1412.929688h0"/><path d="M673.632812 1754.140625l180-44.648437"/><path d="M853.632812 1709.492188h0"/><path d="M725.703125 1879.023438l75.859375 169.21875"/><path d="M801.5625 2048.242188h0"/><path d="M744.375 2104.765625l38.515625 181.40625"/><path d="M782.890625 2286.171875h0"/><path d="M750.859375 2335.429688l25.546875 183.671874"/><path d="M776.40625 2519.101562h0"/><path d="M754.101562 2566.875l19.0625 184.453125"/><path d="M773.164062 2751.328125h0"/><path d="M1064.570312 433.28125l16.289063-184.726562"/><path d="M1080.859375 248.554688h0"/><path d="M1063.007812 664.960938l19.453126-184.453126"/><path d="M1082.460938 480.507812h0"/><path d="M1060.664062 896.484375l24.140626-183.867187"/><path d="M1084.804688 712.617188h0"/><path d="M1056.875 1127.734375 1088.554688 945"/><path d="M1088.554688 945h0"/><path d="M1049.726562 1358.007812l46.015626-179.648437"/><path d="M1095.742188 1178.359375h0"/><path d="M1031.992188 1583.28125l81.484374-166.5625"/><path d="M1113.476562 1416.71875h0"/><path d="M981.5625 1748.789062l182.34375-33.90625"/><path d="M1163.90625 1714.882812h0"/><path d="M1025.15625 1884.023438l95.117188 159.21875"/><path d="M1120.273438 2043.242188h0"/><path d="M1047.460938 2106.210938l50.507812 178.476562"/><path d="M1097.96875 2284.6875h0"/><path d="M1055.820312 2336.09375l33.828126 182.34375"/><path d="M1089.648438 2518.4375h0"/><path d="M1060.078125 2567.226562l25.3125 183.710938"/><path d="M1085.390625 2750.9375h0"/><path d="M1369.648438 432.851562l24.335937-183.867187"/><path d="M1393.984375 248.984375h0"/><path d="M1367.34375 664.335938l28.945312-183.203126"/><path d="M1396.289062 481.132812h0"/><path d="M1363.90625 895.546875l35.820312-181.992187"/><path d="M1399.726562 713.554688h0"/><path d="M1358.476562 1126.09375l46.679688-179.453125"/><path d="M1405.15625 946.640625h0"/><path d="M1348.554688 1354.726562l66.523437-173.125"/><path d="M1415.078125 1181.601562h0"/><path d="M1326.992188 1574.765625l109.648437-149.53125"/><path d="M1436.640625 1425.234375h0"/><path d="M1289.804688 1743.242188l184.023437-22.851563"/><path d="M1473.828125 1720.390625h0"/><path d="M1319.921875 1894.609375l123.789063 138.085937"/><path d="M1443.710938 2032.695312h0"/><path d="M1345.585938 2110.117188l72.460937 170.664062"/><path d="M1418.046875 2280.78125h0"/><path d="M1356.953125 2337.929688l49.726563 178.671874"/><path d="M1406.679688 2516.601562h0"/><path d="M1363.046875 2568.28125l37.539063 181.601562"/><path d="M1400.585938 2749.882812h0"/><path d="M1667.1875 430.546875 1714.609375 251.25"/><path d="M1714.609375 251.25h0"/><path d="M1662.96875 661.132812l55.898438-176.796874"/><path d="M1718.867188 484.335938h0"/><path d="M1656.953125 890.820312l67.890625-172.578124"/><path d="M1724.84375 718.242188h0"/><path d="M1648.085938 1118.632812l85.625-164.53125"/><path d="M1733.710938 954.101562h0"/><path d="M1634.414062 1341.71875l112.96875-147.070312"/><path d="M1747.382812 1194.648438h0"/><path d="M1614.296875 1552.226562l153.242187-104.453124"/><path d="M1767.539062 1447.773438h0"/><path d="M1598.359375 1737.539062l185.117187-11.445312"/><path d="M1783.476562 1726.09375h0"/><path d="M1609.921875 1918.476562l161.953125 90.351563"/><path d="M1771.875 2008.828125h0"/><path d="M1630.898438 2124.765625l120.039062 141.367187"/><path d="M1750.9375 2266.132812h0"/><path d="M1645.820312 2346.25l90.15625 162.03125"/><path d="M1735.976562 2508.28125h0"/><path d="M1655.46875 2573.398438l70.898438 171.367187"/><path d="M1726.367188 2744.765625h0"/><path d="M1907.265625 340.898438h185.46875"/><path d="M2092.734375 340.898438h0"/><path d="M1907.265625 572.734375h185.46875"/><path d="M2092.734375 572.734375h0"/><path d="M1907.265625 804.53125h185.46875"/><path d="M2092.734375 804.53125h0"/><path d="M1907.265625 1036.367188h185.46875"/><path d="M2092.734375 1036.367188h0"/><path d="M1907.265625 1268.164062h185.46875"/><path d="M2092.734375 1268.164062h0"/><path d="M1907.265625 1500h185.46875"/><path d="M2092.734375 1500h0"/><path d="M1907.265625 1731.835938h185.46875"/><path d="M2092.734375 1731.835938h0"/><path d="M1907.265625 1963.632812h185.46875"/><path d="M2092.734375 1963.632812h0"/><path d="M1907.265625 2195.46875h185.46875"/><path d="M2092.734375 2195.46875h0"/><path d="M1907.265625 2427.265625h185.46875"/><path d="M2092.734375 2427.265625h0"/><path d="M1907.265625 2659.101562h185.46875"/><path d="M2092.734375 2659.101562h0"/><path d="M2285.390625 251.25l47.421875 179.296875"/><path d="M2332.8125 430.546875h0"/><path d="M2281.132812 484.335938l55.898438 176.796874"/><path d="M2337.03125 661.132812h0"/><path d="M2275.15625 718.242188l67.890625 172.578124"/><path d="M2343.046875 890.820312h0"/><path d="M2266.289062 954.101562l85.625 164.53125"/><path d="M2351.914062 1118.632812h0"/><path d="M2252.617188 1194.648438l112.96875 147.070312"/><path d="M2365.585938 1341.71875h0"/><path d="M2232.460938 1447.773438l153.242187 104.453124"/><path d="M2385.703125 1552.226562h0"/><path d="M2216.523438 1726.09375l185.117187 11.445312"/><path d="M2401.640625 1737.539062h0"/><path d="M2228.125 2008.828125l161.953125-90.351563"/><path d="M2390.078125 1918.476562h0"/><path d="M2249.0625 2266.132812l120.039062-141.367187"/><path d="M2369.101562 2124.765625h0"/><path d="M2264.023438 2508.28125l90.15625-162.03125"/><path d="M2354.179688 2346.25h0"/><path d="M2273.632812 2744.765625l70.898438-171.367187"/><path d="M2344.53125 2573.398438h0"/><path d="M2606.015625 248.984375l24.335937 183.867187"/><path d="M2630.351562 432.851562h0"/><path d="M2603.710938 481.132812l28.945312 183.203126"/><path d="M2632.65625 664.335938h0"/><path d="M2600.273438 713.554688l35.820312 181.992187"/><path d="M2636.09375 895.546875h0"/><path d="M2594.84375 946.640625l46.679688 179.453125"/><path d="M2641.523438 1126.09375h0"/><path d="M2584.921875 1181.601562l66.523437 173.125"/><path d="M2651.445312 1354.726562h0"/><path d="M2563.359375 1425.234375l109.648437 149.53125"/><path d="M2673.007812 1574.765625h0"/><path d="M2526.171875 1720.390625l184.023437 22.851563"/><path d="M2710.195312 1743.242188h0"/><path d="M2556.289062 2032.695312l123.789063-138.085937"/><path d="M2680.078125 1894.609375h0"/><path d="M2581.953125 2280.78125l72.460937-170.664062"/><path d="M2654.414062 2110.117188h0"/><path d="M2593.320312 2516.601562l49.726563-178.671874"/><path d="M2643.046875 2337.929688h0"/><path d="M2599.414062 2749.882812l37.539063-181.601562"/><path d="M2636.953125 2568.28125h0"/><path d="M2919.140625 248.554688l16.289063 184.726562"/><path d="M2935.429688 433.28125h0"/><path d="M2917.539062 480.507812l19.453126 184.453126"/><path d="M2936.992188 664.960938h0"/><path d="M2915.195312 712.617188l24.140626 183.867187"/><path d="M2939.335938 896.484375h0"/><path d="M2911.445312 945l31.679688 182.734375"/><path d="M2943.125 1127.734375h0"/><path d="M2904.257812 1178.359375l46.015626 179.648437"/><path d="M2950.273438 1358.007812h0"/><path d="M2886.523438 1416.71875l81.484374 166.5625"/><path d="M2968.007812 1583.28125h0"/><path d="M2836.09375 1714.882812l182.34375 33.90625"/><path d="M3018.4375 1748.789062h0"/><path d="M2879.726562 2043.242188l95.117188-159.21875"/><path d="M2974.84375 1884.023438h0"/><path d="M2902.03125 2284.6875l50.507812-178.476562"/><path d="M2952.539062 2106.210938h0"/><path d="M2910.351562 2518.4375l33.828126-182.34375"/><path d="M2944.179688 2336.09375h0"/><path d="M2914.609375 2750.9375l25.3125-183.710938"/><path d="M2939.921875 2567.226562h0"/><path d="M3230.234375 248.398438l12.226563 185.039062"/><path d="M3242.460938 433.4375h0"/><path d="M3229.0625 480.273438l14.609375 184.882812"/><path d="M3243.671875 665.15625h0"/><path d="M3227.304688 712.265625l18.164062 184.570313"/><path d="M3245.46875 896.835938h0"/><path d="M3224.414062 944.414062l23.90625 183.90625"/><path d="M3248.320312 1128.320312h0"/><path d="M3218.867188 1177.109375l35 182.148437"/><path d="M3253.867188 1359.257812h0"/><path d="M3204.453125 1412.929688l63.828125 174.140624"/><path d="M3268.28125 1587.070312h0"/><path d="M3146.367188 1709.492188l180 44.648437"/><path d="M3326.367188 1754.140625h0"/><path d="M3198.4375 2048.242188l75.859375-169.21875"/><path d="M3274.296875 1879.023438h0"/><path d="M3217.109375 2286.171875l38.515625-181.40625"/><path d="M3255.625 2104.765625h0"/><path d="M3223.59375 2519.101562l25.546875-183.671874"/><path d="M3249.140625 2335.429688h0"/><path d="M3226.835938 2751.328125l19.0625-184.453125"/><path d="M3245.898438 2566.875h0"/><path d="M3540.546875 248.320312l9.804687 185.195313"/><path d="M3550.351562 433.515625h0"/><path d="M3539.609375 480.195312l11.71875 185.078126"/><path d="M3551.328125 665.273438h0"/><path d="M3538.164062 712.109375l14.570313 184.882813"/><path d="M3552.734375 896.992188h0"/><path d="M3535.859375 944.140625l19.179687 184.453125"/><path d="M3555.039062 1128.59375h0"/><path d="M3531.367188 1176.523438l28.164062 183.320312"/><path d="M3559.53125 1359.84375h0"/><path d="M3519.375 1411.015625l52.1875 177.96875"/><path d="M3571.5625 1588.984375h0"/><path d="M3456.875 1704.375l177.148438 54.882812"/><path d="M3634.023438 1759.257812h0"/><path d="M3514.140625 2050.9375l62.617187-174.570312"/><path d="M3576.757812 1876.367188h0"/><path d="M3529.921875 2286.875l31.054687-182.851562"/><path d="M3560.976562 2104.023438h0"/><path d="M3535.195312 2519.414062l20.507813-184.296874"/><path d="M3555.703125 2335.117188h0"/><path d="M3537.8125 2751.484375l15.273438-184.804687"/><path d="M3553.085938 2566.679688h0"/></g></g><style>.a{fill:none;stroke:#bfbfbf;stroke-dasharray:12.5,18.75;stroke-linecap:round;stroke-miterlimit:10;stroke-width:6.25;transform:matrix(.1,0,0,-.1,-29,279)}.b{stroke-linecap:square;stroke-width:12.5}.c{stroke-width:6.25}.d{fill:none;stroke:#bfbfbf;stroke-linecap:round;stroke-miterlimit:10;stroke-width:6.25;transform:matrix(.1,0,0,-.1,-29,279)}</style></svg>