<svg xmlns="http://www.w3.org/2000/svg" width="284pt" height="137pt" viewBox="0 0 284 137"><defs><path d="M4.6406-3.6562c0-2.171875-.65625-3.21875-2.015625-3.21875C1.0781-6.87495.29685-5.640575.29685-3.234325.296875-2.0625.5-1.0625.84375-.5625 1.203125-.078125 1.75.203125 2.375.203125c1.5 0 2.265625-1.296875 2.265625-3.859375zm-.8437.5c0 2.125-.375 3-1.296875 3-.96875 0-1.375-1-1.375-3.4375 0-2.09375.375-2.921875 1.3125-2.921875.96875 0 1.359375.96875 1.359375 3.359375zm0 0" id="c"/><path d="M4.5781-2.5156c0-1.140625-.8125-1.9375-1.953125-1.9375-.46875 0-.828125.140625-1.453125.5l.0938-2.0781 3.0469.0469.0469-.0469c-.015625-.171875-.015625-.234375-.015625-.390625s0-.21875.015625-.390625L4.3125-6.875s-1.0625.0625-1.734375.0625c-.6875 0-1.734375-.0625-1.734375-.0625l-.0625.0625.0313 1.3594c0 .875-.03125 1.796875-.0625 2.25l.2031.0469c.46875-.46875.734375-.609375 1.21875-.609375.953125 0 1.5625.6875 1.5625 1.765625C3.734375-.890625 3.09375-.25 2-.25 1.46875-.25.96875-.421875.828125-.6875L.375-1.5l-.25.1406c.234375.5625.359375.875.5 1.3125.265625.15625.671875.25 1.09375.25.671875 0 1.375-.296875 1.9375-.765625.59375-.546875.921875-1.21875.921875-1.953125zm0 0" id="d"/><path d="M4.1719.0313v-.2969l-.5156-.0312C3.09375-.328125 3-.4375 3-.953125V-6.875l-.1406-.0469c-.64065.343775-1.3594.64065-2.26565.95315l.0781.4375h.0938c.4375-.203125.875-.40625 1.3125-.59375.0625 0 .078125.09375.078125.328125v4.8438c0 .515625-.109375.625-.640625.65625l-.5625.0313V.0313C1.5.015625 2.046875 0 2.609375 0 3.125 0 3.65625.015625 4.171875.03125zm0 0" id="b"/><path d="M4.6719.0313c-.03125-.203125-.03125-.3125-.03125-.453125 0-.125 0-.21875.03125-.453125L1.2188-.7656l1.8125-1.9219C4-3.71875 4.296875-4.265625 4.296875-5.015625 4.296875-6.15625 3.515625-6.875 2.25-6.875c-.71875 0-1.203125.203125-1.6875.703125L.3906-4.8125h.2813l.1406-.4687c.15625-.578125.515625-.8125 1.1875-.8125.84375 0 1.40625.53125 1.40625 1.375 0 .75-.421875 1.484375-1.546875 2.6875L.1563-.2344v.2657C.890625.015625 1.640625 0 2.375 0c.765625 0 1.53125.015625 2.296875.03125zm0 0" id="e"/><path d="M4.6094-2.2344c0-.484375-.203125-.890625-.5625-1.140625-.25-.1875-.484375-.265625-.96875-.359375.796875-.609375 1.09375-1.078125 1.09375-1.65625 0-.890625-.75-1.484375-1.84375-1.484375-.6875 0-1.125.203125-1.609375.671875L.4219-4.9687h.3125l.1875-.5469c.109375-.34375.734375-.6875 1.25-.6875.65625 0 1.171875.53125 1.171875 1.15625 0 .75-.578125 1.375-1.296875 1.375-.078125 0-.46875-.03125-.46875-.03125l-.1094.5313.0625.0625c.375-.171875.578125-.21875.84375-.21875.828125 0 1.296875.53125 1.296875 1.4375 0 1.015625-.59375 1.6875-1.53125 1.6875-.453125 0-.859375-.15625-1.15625-.4375-.25-.21875-.375-.453125-.5625-.984375l-.2656.0938C.359375-.921875.4375-.5625.5-.0625c.53125.1875.96875.265625 1.328125.265625 1.21875 0 2.78125-1.046875 2.78125-2.4375zm0 0" id="f"/><path d="M4.7031.0313v-.2969l-.4687-.0312c-.5-.03125-.609375-.15625-.609375-.765625v-.7344c.59375 0 .796875 0 1.078125.03125v-.7031s-.484375.03125-.8125.03125H3.625v-1.3906c0-1.78125.03125-2.625.078125-3.046875l-.125-.0469-.7344.2656-2.8281 4.625.1094.2344h2.6719v.7344c0 .609375-.109375.75-.609375.765625l-.6094.0313V.0313C2.109375.015625 2.640625 0 3.1875 0c.5 0 1.015625.015625 1.515625.03125zM2.7969-2.4375H.6406l2.1563-3.5156zm0 0" id="g"/><path d="M4.6719-2.1875c0-1.140625-.6875-1.890625-1.75-1.890625-.59375 0-.953125.234375-1.609375.78125C1.51565-5.109375 2.3594-6.078125 4.14065-6.625v-.0781L3.7813-6.875c-.953125.328125-1.375.53125-1.875.96875C.875-5.046875.3125-3.828125.3125-2.46875.3125-.8125 1.109375.203125 2.40625.203125S4.671875-.828125 4.671875-2.1875zm-.8594.3594c0 1.031225-.515625 1.7031-1.28125 1.7031-.84375 0-1.3125-.734375-1.3125-2.0625 0-.359375.046875-.546875.15625-.71875.21875-.328125.6875-.578125 1.171875-.578125.75 0 1.265625.65625 1.265625 1.65625zm0 0" id="h"/><path d="M1.8281-.5312c0-.296875-.28125-.578125-.59375-.578125-.296875 0-.5625.28125-.5625.578125s.26565.578075.5469.578075c.328125 0 .609375-.265625.609375-.578125zm0 0" id="i"/><path d="M4.4688-.7812l-.0781-.2031c-.359375.3125-.609375.453125-.765625.453125s-.281325-.093825-.3907-.29695c-.078125-.1875-.1875-.5625-.25-.84375L2.8125-2.6875l.3438-.4844c.46875-.640625.734375-.875 1.046875-.875.15625 0 .28125.078125.328125.234375l.1406-.0469.1563-.8437c-.125-.078125-.21875-.109375-.296875-.109375-.40625 0-.796875.359375-1.421875 1.28125l-.375.5469-.0469-.4687c-.125-1-.390625-1.359375-.984375-1.359375-.25 0-.484375.09375-.5625.21875L.5625-3.7656l.1719.0938c.296875-.328125.484375-.46875.6875-.46875.328125 0 .546875.40625.71875 1.375l.1094.625-.4062.6094c-.421875.671875-.765625 1-1.046875 1-.15625 0-.265625-.046875-.28125-.09375L.4063-.9062.2031-.875c0 .203125-.015625.328125-.078125.640625-.015625.125-.03125.15625-.03125.21875.140625.078125.3125.125.421875.125.328125 0 .71875-.28125 1.03125-.75l.75-1.1719.1094.6875C2.546875-.281275 2.765625.10935 3.125.10935c.21875 0 .546875-.171875.859375-.453125zm0 0" id="j"/><path d="M6.0156-2.4062v-.5781H.6406v.5781zm0 0" id="k"/><path id="a" d="M1785.0391 304.1797h945"/></defs><g fill="none" stroke-miterlimit="10" transform="matrix(.1 0 0 -.1 0 137)"><g stroke-width="3.985"><g stroke="#8c8c8c"><path d="M210 304.257812h6.289062l6.328126.039063h6.289062l6.289062.039063h6.289063l6.328125.039062 18.867188.117188 6.328124.039062 6.289063.078125 6.289063.039063 6.328124.078124 6.289063.078126 6.289063.117187 6.328124.117187 6.289063.117188 6.289063.15625 6.289062.117188 6.328125.195312 12.578125.46875 6.289062.273438 6.328126.273437 12.578124.703125 6.328126.429688 6.289062.46875 6.289062.507812 6.289063.585938L405.3125 310l6.289062.703125 6.289063.78125 6.289063.898437 6.328124.976563 6.289063 1.054687 6.289063 1.171876 6.328124 1.328124 6.289063 1.40625 6.328125 1.5625 6.289062 1.71875 6.289063 1.875 6.289063 2.03125 6.289062 2.226563 6.328125 2.460937 6.289063 2.617188 6.289062 2.851562 6.289062 3.085938 6.328126 3.359375L525 345.742188l6.289062 3.867187 6.328126 4.21875 6.289062 4.492187 6.289062 4.804688 6.289063 5.195312 6.328125 5.546876 6.289062 5.898437 6.289063 6.289063 6.289063 6.71875 6.328124 7.148437 6.289063 7.539063 6.289063 8.046874 6.328124 8.476563 6.289063 8.945313 6.328125 9.414062 6.289062 9.960938 6.289063 10.429687 6.289063 10.9375 6.289062 11.484375 6.328125 11.992188 6.289063 12.5 6.289062 13.046874L669.921875 536.25l6.289063 14.101562L682.5 564.921875l6.289062 15.117187 6.328126 15.625 6.289062 16.09375 6.289062 16.5625 6.289063 16.992188 6.328125 17.421875 6.289062 17.851563 6.289063 18.242187 6.328125 18.59375 6.289062 18.90625 6.289063 19.179687 6.328125 19.414063 6.289062 19.6875 6.289063 19.804687L777.03125 834.375l6.289062 20 6.289063 20.078125 6.289063 20.039063 6.289062 19.960937 6.328125 19.84375 6.289063 19.6875 6.289062 19.453125 6.328125 19.140625 6.289063 18.789063L840 1029.765625l6.289062 17.96875 6.328126 17.421875 6.289062 16.875 6.289062 16.210938 6.328126 15.585937 6.289062 14.804687 6.289062 14.0625 6.289063 13.203126 6.328125 12.34375 6.289062 11.445312 6.289063 10.46875 6.328125 9.453125 6.289062 8.4375 6.289063 7.382813 6.328125 6.289062 6.289062 5.15625 6.289063 4.0625 6.289063 2.890625 6.328124 1.757813 6.289063.585937 6.289063-.585937 6.289062-1.757813 6.328125-2.890625 6.289063-4.0625 6.289062-5.15625 6.289062-6.289062 6.328126-7.382813 6.289062-8.4375 6.289062-9.453125 6.328126-10.46875 6.289062-11.445312 6.289062-12.34375 6.289063-13.203126 6.328125-14.0625 6.289062-14.804687 6.289063-15.585937 6.328125-16.210938 6.289062-16.875 6.289063-17.421875 6.328125-17.96875 6.289062-18.398437 6.289063-18.789063 6.289063-19.140625 6.328124-19.453125 6.289063-19.6875 6.289063-19.84375 6.289062-19.960937 6.328125-20.039063 6.289063-20.078125 6.289062-20 6.328125-19.960938 6.289063-19.804687 6.289062-19.6875 6.289062-19.414063 6.328126-19.179687 6.289062-18.90625 6.289062-18.59375 6.328126-18.242187 6.289062-17.851563 6.289062-17.421875 6.328126-16.992188 6.289062-16.5625 6.289062-16.09375 6.289063-15.625 6.328125-15.117187 6.289062-14.570313 6.289063-14.101562 6.289063-13.554688 6.328124-13.046874 6.289063-12.5 6.289063-11.992188 6.328124-11.484375 6.289063-10.9375 6.289063-10.429687 6.328124-9.960938 6.289063-9.414062 6.289063-8.945313 6.289062-8.476563 6.328125-8.046874 6.289063-7.539063 6.289062-7.148437 6.289062-6.71875 6.328126-6.289063 6.289062-5.898437 6.289062-5.546876 6.328126-5.195312 6.289062-4.804688 6.289062-4.492187 6.289063-4.21875 6.328125-3.867187 6.289062-3.632813 6.289063-3.359375 6.328125-3.085938 6.289062-2.851562 6.289063-2.617188 6.289063-2.460937 6.328124-2.226563 6.289063-2.03125 6.289063-1.875 6.328124-1.71875 6.289063-1.5625 6.289063-1.40625 6.289062-1.328124 6.328125-1.171876 6.289063-1.054687 6.289062-.976563 6.289062-.898437 6.328126-.78125L1526.71875 310l6.289062-.664062 6.328126-.585938 6.289062-.507812 6.289062-.46875 6.289063-.429688 6.328125-.351562 6.289062-.351563 6.289063-.273437 6.328125-.273438 12.578125-.46875 6.289063-.195312 6.328124-.117188 6.289063-.15625 6.289063-.117188 6.328124-.117187 6.289063-.117187 12.578125-.15625 6.328125-.039063 6.289063-.078125 12.578124-.078125 6.328126-.039063 12.578124-.078124h6.328126l6.289062-.039063h6.289062l6.289063-.039063h6.328125l6.289062-.039062h25.195313l6.289063-.039062h25.234374"/><use href="#a"/></g><g stroke="#4c4c4c"><path d="M210 304.179688l6.289062-7.695313 6.328126-7.734375 6.289062-7.695312 12.578125-15.46875 6.328125-7.773438 18.867188-23.320312 6.328124-7.8125 12.578126-15.625 6.328124-7.8125 12.578126-15.703126 6.328124-7.851562 6.289063-1.289062 6.289063 11.835937 6.289062 11.875 6.328125 11.835937 12.578125 23.671876 6.289062 11.796874 6.328126 11.796876L367.5 273.007812l6.289062 11.757813 6.328126 11.757813 6.289062 11.796874 6.289062 11.71875 6.289063 11.757813 6.328125 11.71875 6.289062 11.679687 6.289063 11.71875 6.289063-1.484374 6.328124-8.085938 6.289063-8.046875 6.289063-8.125 6.328124-8.085937 6.289063-8.125 6.328125-8.125 6.289062-8.125 6.289063-8.164063 6.289063-8.125 6.289062-8.164063 6.328125-8.203124 6.289063-8.203126 6.289062-8.164062 6.289062-8.242188 6.328126-8.203124L525 235l6.289062 11.523438 6.328126 11.484374 6.289062 11.484376 6.289062 11.445312 6.289063 11.484375 6.328125 11.445313 6.289062 11.445312 6.289063 11.40625 6.289063 11.445312 6.328124 11.40625 6.289063 11.40625 6.289063 11.367188 6.328124 11.367188 6.289063 11.367187 6.328125 11.328125 6.289062 11.367188L632.109375 422.5l6.289063-8.398438L644.6875 405.625l6.328125-8.4375 12.578125-16.953125 6.328125-8.476563 6.289063-8.476562L688.789062 346.25l6.328126-8.515625 18.867187-25.664063 6.328125-8.554687 12.578125-17.1875 6.328125 4.570313 6.289062 11.132812 6.289063 11.09375 6.328125 11.132812 12.578125 22.1875 6.328125 11.09375 25.15625 44.21875 6.328125 11.015626 6.289063 11.015624 6.289062 10.976563 6.328125 11.015625L840 467.734375l6.289062-8.789063 6.328126-8.828124 6.289062-8.789063L865.195312 432.5l6.328126-8.828125 6.289062-8.867187 6.289062-8.828126 6.289063-8.867187 6.328125-8.90625 6.289062-8.867187 6.289063-8.90625 6.328125-8.90625 6.289062-8.90625 6.289063-8.945313 6.328125-8.945313 6.289062-8.945312 6.289063-2.382812 6.289063 10.78125 6.328124 10.742187 6.289063 10.742187 6.289063 10.78125 6.289062 10.703126 6.328125 10.703124 6.289063 10.742188L997.5 409.296875l6.289062 10.664063 6.328126 10.664062 6.289062 10.703125 6.289062 10.625 6.328126 10.664063 12.578124 21.25 6.289063 10.585937 6.328125-2.539063 6.289062-9.179687 6.289063-9.140625 6.328125-9.21875 6.289062-9.179688 6.289063-9.21875 6.328125-9.179687 6.289062-9.257813 6.289063-9.21875 6.289063-9.257812 6.328124-9.257812 6.289063-9.257813 6.289063-9.296875 6.289062-9.257812 6.328125-9.335938 6.289063-9.296875L1155 344.023438l6.328125 10.429687 18.867187 31.171875 6.328126 10.351562 6.289062 10.390626 6.289062 10.3125 6.328126 10.351562 6.289062 10.351562 6.289062 10.3125 6.328126 10.3125 18.867187 30.820313 6.328125 10.273437 6.289062 10.234376 6.289063 3.671874 6.289063-9.53125 6.328124-9.53125 6.289063-9.53125 6.289063-9.570312 6.328124-9.570312 6.289063-9.53125 6.289063-9.609376 6.328124-9.609374 18.867188-28.828126 6.328125-9.648437 6.289063-9.648437 6.289062-9.6875 6.289062-9.648438 6.328126-9.6875 6.289062 3.476562 6.289062 10.039063 6.328126 10.039063 6.289062 10 6.289062 10.039062 6.289063 9.960938 6.328125 10 6.289062 10 6.289063 9.960937 6.328125 9.960937 6.289062 9.921876 6.289063 9.960937 6.289063 9.921875 6.328124 9.921875 12.578126 19.765625 6.328124 9.882812 18.867188-29.648437 6.328125-9.921875 6.289063-9.921875 6.289062-9.960937 6.289062-9.921876 6.328126-9.960937 6.289062-9.960937 6.289062-10 6.328126-10 6.289062-9.960938 6.289062-10.039062 6.289063-10 6.328125-10.039063 6.289062-10.039063 6.289063-3.476562 6.328125 9.6875 6.289062 9.648438 6.289063 9.6875 6.289063 9.648437 6.328124 9.648437 12.578126 19.21875 6.328124 9.609376 12.578126 19.21875 6.289062 9.53125 6.328125 9.570312 6.289063 9.570312 12.578124 19.0625 6.328126 9.53125 6.289062-3.671874 6.289062-10.234376 6.328126-10.273437 18.867187-30.820313 6.328125-10.3125 6.289062-10.3125 6.289063-10.351562 6.328125-10.351562 6.289062-10.3125 6.289063-10.390626 6.289063-10.351562 6.328124-10.390625 12.578126-20.78125 6.328124-10.429687"/><path d="M1785.039062 344.023438l6.289063 9.335937 6.289063 9.296875 6.289062 9.335938 6.328125 9.257812 6.289063 9.296875 12.578124 18.515625 6.328126 9.257812 6.289062 9.21875 6.289062 9.257813 6.328126 9.179687 6.289062 9.21875 6.289062 9.179688 6.289063 9.21875 6.328125 9.140625 6.289062 9.179687 6.289063 2.539063 6.328125-10.585937 12.578125-21.25 6.289063-10.664063 6.328124-10.625 6.289063-10.703125 6.289063-10.664062 6.328124-10.664063 6.289063-10.703125 6.289063-10.742188 6.289062-10.703124 6.328125-10.703126 6.289063-10.78125 12.578124-21.484374 6.328126-10.78125 6.289062 2.382812 6.289062 8.945312 6.328126 8.945313 6.289062 8.945313 12.578125 17.8125 6.328125 8.90625 6.289062 8.867187 6.289063 8.90625 6.328125 8.867187 6.289062 8.828126 6.289063 8.867187 6.289063 8.828125 6.328124 8.828125 6.289063 8.789063 6.289063 8.828124 6.328124 8.789063 12.578126-21.953125 6.289062-11.015625 6.328125-10.976563 12.578125-22.03125 6.328125-11.054687 18.867187-33.164063 6.328126-11.09375 12.578124-22.1875 6.289063-11.132812 6.328125-11.09375 6.289062-11.132812 6.289063-4.570313 6.328125 8.59375 6.289062 8.59375 12.578126 17.109375 6.328124 8.554688 6.289063 8.554687 6.289063 8.515625 6.328124 8.515625 6.289063 8.515625 12.578125 16.953125 6.328125 8.476563 6.289063 8.476562 6.289062 8.4375 6.328125 8.476562 6.289063 8.398438 6.289062-4.726562 6.289062-11.367188 6.328126-11.328125 12.578124-22.734375 6.328126-11.367188 12.578124-22.8125 6.289063-11.445312 6.328125-11.40625 12.578125-22.890625 6.289063-11.484375 6.328124-11.445312 12.578126-22.96875L2415.039062 235l6.289063 8.242188 6.289063 8.203124 6.328124 8.242188 6.289063 8.164062 12.578125 16.40625 6.328125 8.164063 6.289063 8.125 6.289062 8.164063 6.289062 8.125 6.328126 8.125 6.289062 8.125 6.289062 8.085937 6.328126 8.125 6.289062 8.046875 6.289062 8.085938 6.328126 1.484374 6.289062-11.71875 6.289062-11.679687 6.289063-11.71875 6.328125-11.757813 6.289062-11.71875 6.289063-11.796874 6.289063-11.757813 6.328124-11.757813 12.578126-23.59375 6.328124-11.796874 12.578126-23.671876 6.328124-11.835937 6.289063-11.875 6.289063-11.835937 6.289062 1.289062 6.328125 7.851562 12.578125 15.703126 6.289062 7.8125 6.328126 7.8125 12.578124 15.625 6.328126 7.773437 12.578124 15.546875 6.328126 7.773438 12.578124 15.46875 6.289063 7.695312 6.328125 7.734375 6.289062 7.695313"/></g></g><g stroke="#000"><g stroke-width="7.9701"><path d="M210 304.179688h12.617188l6.289062-.039063h12.578125l6.328125-.039063h6.289062l6.289063-.039062h6.289063l6.328124-.078125 12.578126-.078125 6.328124-.078125 6.289063-.078125 6.289063-.117188 6.328124-.117187 6.289063-.078125 6.289063-.039062h6.289062l6.328125-.039063 6.289063.039063h6.289062l6.289062.039062 6.328126.078125 6.289062.117187 6.289062.15625 6.328126.195313 12.578124.625 6.289063.429687 6.328125.507813 6.289062.664063 6.289063.742187 6.289063.273437 6.328124-.078124 6.289063-.15625 6.289063-.234376 6.328124-.351562 6.289063-.429688 6.328125-.585937 6.289062-.742187 6.289063-.898438 6.289063-1.09375 6.289062-1.328125 6.328125-1.601563 6.289063-1.875 6.289062-2.1875 6.289062-2.578124 6.328126-2.96875L525 286.71875l6.289062 1.523438 6.328126 1.992187 6.289062 2.539063 6.289062 3.085937 6.289063 3.75 6.328125 4.453125 6.289062 5.234375 6.289063 6.09375 6.289063 7.070313 6.328124 8.125 6.289063 9.21875 6.289063 10.46875 6.328124 11.796874 6.289063 13.203126 6.328125 14.765624 6.289062 16.367188 6.289063 11.757812 6.289063-.78125 6.289062-1.640624 6.328125-2.5 6.289063-3.515626 6.289062-4.53125 6.328125-5.703124 6.289063-6.914063L682.5 384.335938l6.289062-9.609376 6.328126-11.132812 6.289062-12.695312 6.289062-14.296876 6.289063-16.054687 6.328125-17.851563 6.289062-19.6875 6.289063-21.640624 6.328125 9.453124 6.289062 27.695313 6.289063 30.273437 6.328125 32.8125 6.289062 35.507813 6.289063 38.125 6.328125 40.820313 6.289062 43.515624 6.289063 46.132813 6.289063 48.828125 6.289062 51.40625 6.328125 53.984375 6.289063 56.484375 6.289062 58.867188 6.328125 61.171874 6.289063 63.359376L840 1025.234375l6.289062-21.875 6.328126-24.296875 6.289062-26.679688 6.289062-29.023437 6.328126-31.328125 6.289062-33.554688 6.289062-35.703124 6.289063-37.695313 6.328125-39.648437 6.289062-41.40625 6.289063-43.125 6.328125-44.6875 6.289062-46.054688 6.289063-47.265625 6.328125-48.359375 6.289062-49.257812 6.289063-12.851563 6.289063 61.210937 6.328124 61.210938 6.289063 61.054688 6.289063 60.585937 6.289062 59.960937 6.328125 59.0625 6.289063 58.007813L997.5 890.15625l6.289062 55.195312 6.328126 53.4375 6.289062 51.523438 6.289062 49.492188 6.328126 47.1875 6.289062 44.84375 6.289062 42.304687 6.289063 39.609375 6.328125-29.101562 6.289062-61.992188 6.289063-61.132812 6.328125-60.078126 6.289062-58.945312 6.289063-57.578125 6.328125-56.09375 6.289062-54.492187 6.289063-52.734376 6.289063-50.859374 6.328124-48.945313 6.289063-46.953125 6.289063-44.804688 6.289062-42.695312 6.328125-40.46875 6.289063-38.28125L1155 432.578125l6.328125 27.460937 6.289063 24.921876 6.289062 22.5 6.289062 20.078124 6.328126 17.734376 6.289062 15.46875 6.289062 13.28125 6.328126 11.171874 6.289062 9.179688 6.289062 7.265625 6.328126 5.46875 6.289062 3.75 6.289062 2.1875 6.289063.664063 6.328125-.664063 6.289062-1.992187 6.289063-12.382813 6.289063-29.84375 6.328124-27.695313 6.289063-25.625 6.289063-23.632812 6.328124-21.757812 6.289063-19.921876 6.289063-18.242187 6.328124-16.640625 6.289063-15.117188 6.289063-13.671874 6.289062-12.34375 6.328125-11.09375 6.289063-9.921876 6.289062-8.828124 6.289062-7.851563 6.328126-6.953125 6.289062-.507812 6.289062 1.953124 6.328126 1.40625 6.289062 1.015626 6.289062.585937 6.289063.234375 6.328125-.078125 6.289062-.273437 6.289063-.507813 6.328125-.742187 6.289062-.820313 6.289063-.976563 6.289063-1.054687 6.328124-1.132813 12.578126-2.421874L1470.039062 325l6.289063-2.890625 6.289063-2.578125 6.289062-2.265625 6.328125-1.992187 6.289063-1.71875 6.289062-1.484376 6.289062-1.289062 6.328126-1.09375 6.289062-.976562 6.289062-.820313 6.328126-.664063 6.289062-.625 6.289062-.507812 6.289063-.390625 6.328125-.351563 6.289062-.3125 6.289063-.15625 6.328125.039063h12.578125l6.289063-.039063h6.328124l12.578126-.078124 6.328124-.039063 18.867188-.117187 6.328125-.039063 18.867187-.117187 6.328126-.039063 12.578124-.078125 6.328126-.039062 6.289062-.039063h6.289062l6.289063-.039063h6.328125l6.289062-.039062h6.289063l6.328125-.039062h44.101562"/><use href="#a"/></g><g stroke-width="3.985"><path d="M210 304.179688h1260.039062"/><path d="M1470.039062 304.179688h1260"/></g></g></g><path d="M146.75 106.5938h.6016v6h-.6016zm0 0"/><path d="M272.75 106.5938h.6016v6h-.6016zm0 0"/><use x="140.642" y="121.393" href="#c"/><use x="145.8022" y="121.393" href="#i"/><use x="148.442" y="121.393" href="#d"/><use x="270.483" y="121.5129" href="#b"/><path d="M210 139.609375v1151.992187" class="a"/><path d="M14.9883 122.6914h6v.6016h-6zm0 0"/><path d="M14.9883 106.2344h6v.6016h-6zm0 0"/><path d="M14.9883 89.7773h6v.6016h-6zm0 0"/><path d="M14.9883 73.3203h6v.6016h-6zm0 0"/><path d="M14.9883 56.8633h6v.6016h-6zm0 0"/><path d="M14.9883 40.4063h6v.6016h-6zm0 0"/><path d="M14.9883 23.9492h6v.6016h-6zm0 0"/><path d="M14.9883 7.4883h6v.6016h-6zm0 0"/><use x="1.3891" y="126.5199" href="#k"/><use x="8.109" y="126.5199" href="#b"/><use x="7.9891" y="109.9422" href="#c"/><use x="7.9891" y="93.6055" href="#b"/><use x="7.9891" y="77.1481" href="#e"/><use x="7.9891" y="60.5704" href="#f"/><use x="7.9891" y="44.2341" href="#g"/><use x="7.9891" y="27.6564" href="#d"/><use x="7.9891" y="11.1986" href="#h"/><g class="a"><path d="M966.015625 188.984375v27.539063"/><path d="M966.015625 271.679688v27.539062"/><path d="M966.015625 299.21875v27.578125"/><path d="M966.015625 381.953125v27.539063"/><path d="M966.015625 409.492188v27.578124"/><path d="M966.015625 492.1875v27.578125"/><path d="M966.015625 519.765625v27.578125"/><path d="M966.015625 602.460938v27.578124"/><path d="M966.015625 630.039062v27.539063"/><path d="M966.015625 712.734375V740.3125"/><path d="M966.015625 740.3125v27.539062"/><path d="M966.015625 823.007812v27.539063"/><path d="M966.015625 850.546875V878.125"/><path d="M966.015625 933.28125v27.539062"/><path d="M966.015625 960.820312v27.578126"/><path d="M966.015625 1043.515625v27.578125"/><path d="M966.015625 1071.09375v27.539062"/><path d="M966.015625 1153.789062v27.578126"/><path d="M966.015625 1181.367188v27.539062"/><path d="M966.015625 1264.023438v27.578124"/></g><use x="93.9609" y="125.4398" href="#j"/><style>.a{fill:none;stroke:#000;stroke-miterlimit:10;stroke-width:3.985;transform:matrix(.1,0,0,-.1,0,137)}</style></svg>