<svg xmlns="http://www.w3.org/2000/svg" width="279pt" height="178pt" viewBox="0 0 279 178"><defs><path d="M6.0156-2.4062v-.5781H.6406v.5781zm0 0" id="b"/><path d="M6.0625-4.6562c-.6875.015625-1.390625.046875-2.09375.046875-.859375 0-1.71875-.03125-2.5625-.03125C.75-4.65625.625-3.875.453125-3.390625v.0781l.0781.0469.0781-.0469C1.015625-3.9375 1.25-4.03125 2-4.03125h.2344c-.375 1.375-.703125 2.75-1.296875 4.046875L1.0156.125c.20315-.0625.5469-.140625.7344-.25.375-1.28125.625-2.609375.875-3.90625h2.2813c-.546875.859375-.953125 1.90625-.953125 2.953125 0 .484375.171875 1.234375.78125 1.234375.40625 0 .921875-.40625 1.234375-.671875L5.9844-.5625l-.0469-.0937-.0781-.0156c-.171875.109375-.359375.25-.609375.25-.546875 0-.609375-.828125-.609375-1.234375 0-.84375.265625-1.65625.6875-2.375l.6094-.1406c.03125-.171875.078125-.328125.125-.484375zm0 0" id="c"/><path d="M4.4219-3.3906c-.5.015625-1.015625.03125-1.53125.03125-.625 0-1.25-.015625-1.859375-.03125-.484375 0-.578125.5625-.703125.921875v.0469l.0625.0313L.4375-2.4062c.296875-.4688.484375-.5313 1.015625-.5313H1.625c-.265625 1-.5 2-.9375 2.953125L.7344.0938c.15625-.046875.40625-.09375.53125-.1875.28125-.9375.46875-1.890625.65625-2.84375h1.6563c-.40625.625-.6875 1.390625-.6875 2.15625 0 .359375.125.890625.5625.890625.2968-5e-5.6718-.296925.906175-.484425v-.0469l-.0312-.0625h-.0625C4.15625-.40625 4-.3125 3.828125-.3125c-.40625 0-.4375-.59375-.4375-.890625 0-.625.1875-1.21875.484375-1.734375l.4531-.0937c.015625-.125.0625-.25.09375-.359375zm0 0" id="d"/><path d="M3.4063.0156c-.015675-.1406-.015675-.218725-.015675-.3281 0-.09375 0-.15625.015625-.3125L.8906-.5625l1.3125-1.4062c.703125-.734375.921875-1.140625.921875-1.6875C3.125-4.484375 2.5625-5 1.640625-5c-.515625 0-.875.140625-1.234375.5l-.125.9844H.5l.0938-.3281c.109375-.421875.375-.609375.859375-.609375.625 0 1.03125.40625 1.03125 1.015625 0 .546875-.3125 1.078125-1.140625 1.953125L.1094-.1719v.1875C.65625 0 1.203125 0 1.734375 0 2.28125 0 2.84375 0 3.40625.015625zm0 0" id="e"/><path d="M4.6406-3.6562c0-2.171875-.65625-3.21875-2.015625-3.21875C1.0781-6.87495.29685-5.640575.29685-3.234325.296875-2.0625.5-1.0625.84375-.5625 1.203125-.078125 1.75.203125 2.375.203125c1.5 0 2.265625-1.296875 2.265625-3.859375zm-.8437.5c0 2.125-.375 3-1.296875 3-.96875 0-1.375-1-1.375-3.4375 0-2.09375.375-2.921875 1.3125-2.921875.96875 0 1.359375.96875 1.359375 3.359375zm0 0" id="a"/><path d="M4.1719.0313v-.2969l-.5156-.0312C3.09375-.328125 3-.4375 3-.953125V-6.875l-.1406-.0469c-.64065.343775-1.3594.64065-2.26565.95315l.0781.4375h.0938c.4375-.203125.875-.40625 1.3125-.59375.0625 0 .078125.09375.078125.328125v4.8438c0 .515625-.109375.625-.640625.65625l-.5625.0313V.0313C1.5.015625 2.046875 0 2.609375 0 3.125 0 3.65625.015625 4.171875.03125zm0 0" id="f"/><path d="M4.6719.0313c-.03125-.203125-.03125-.3125-.03125-.453125 0-.125 0-.21875.03125-.453125L1.2188-.7656l1.8125-1.9219C4-3.71875 4.296875-4.265625 4.296875-5.015625 4.296875-6.15625 3.515625-6.875 2.25-6.875c-.71875 0-1.203125.203125-1.6875.703125L.3906-4.8125h.2813l.1406-.4687c.15625-.578125.515625-.8125 1.1875-.8125.84375 0 1.40625.53125 1.40625 1.375 0 .75-.421875 1.484375-1.546875 2.6875L.1563-.2344v.2657C.890625.015625 1.640625 0 2.375 0c.765625 0 1.53125.015625 2.296875.03125zm0 0" id="g"/><path d="M4.6094-2.2344c0-.484375-.203125-.890625-.5625-1.140625-.25-.1875-.484375-.265625-.96875-.359375.796875-.609375 1.09375-1.078125 1.09375-1.65625 0-.890625-.75-1.484375-1.84375-1.484375-.6875 0-1.125.203125-1.609375.671875L.4219-4.9687h.3125l.1875-.5469c.109375-.34375.734375-.6875 1.25-.6875.65625 0 1.171875.53125 1.171875 1.15625 0 .75-.578125 1.375-1.296875 1.375-.078125 0-.46875-.03125-.46875-.03125l-.1094.5313.0625.0625c.375-.171875.578125-.21875.84375-.21875.828125 0 1.296875.53125 1.296875 1.4375 0 1.015625-.59375 1.6875-1.53125 1.6875-.453125 0-.859375-.15625-1.15625-.4375-.25-.21875-.375-.453125-.5625-.984375l-.2656.0938C.359375-.921875.4375-.5625.5-.0625c.53125.1875.96875.265625 1.328125.265625 1.21875 0 2.78125-1.046875 2.78125-2.4375zm0 0" id="h"/><path d="M4.7031.0313v-.2969l-.4687-.0312c-.5-.03125-.609375-.15625-.609375-.765625v-.7344c.59375 0 .796875 0 1.078125.03125v-.7031s-.484375.03125-.8125.03125H3.625v-1.3906c0-1.78125.03125-2.625.078125-3.046875l-.125-.0469-.7344.2656-2.8281 4.625.1094.2344h2.6719v.7344c0 .609375-.109375.75-.609375.765625l-.6094.0313V.0313C2.109375.015625 2.640625 0 3.1875 0c.5 0 1.015625.015625 1.515625.03125zM2.7969-2.4375H.6406l2.1563-3.5156zm0 0" id="i"/></defs><g fill="none" stroke-miterlimit="10" transform="matrix(.1 0 0 -.1 0 178)"><g stroke-width="7.9701"><path stroke="#7f7f7f" d="M260 549.335938l12.617188 6.835937 12.578124 6.445313 12.617188 5.703124 12.578125 4.726563 12.617187 3.554687 12.578126 2.226563 12.617187.820313 12.617187-.664063 12.578126-2.03125 12.617187-3.28125 12.578125-4.414063 12.617188-5.3125 12.578124-5.976562 12.617188-6.328125 12.578125-6.367187 12.617187-6.132813 12.578126-5.625 12.617187-4.804687 12.617187-3.828126 12.617188-2.617187 12.578125-1.328125 12.578125.078125 12.617188 1.40625 12.578124 2.734375L575 529.0625l12.617188 4.882812 12.578124 5.664063 12.617188 6.171875 12.578125 6.367188 12.617187 6.328124 12.578126 5.898438 12.617187 5.273438 12.617187 4.335937 12.578126 3.203125 12.617187 1.914062 12.578125.507813 12.617188-.898437 12.578124-2.34375 12.617188-3.671876 12.578125-4.804687 12.617187-5.742187 12.617188-6.484376 12.578125-6.875 12.617187-6.992187 12.617188-6.71875 12.578125-6.171875 12.578125-5.273438 12.617188-4.179687 12.617187-2.8125 12.578125-1.25 12.617188.351563 12.578124 1.992187 12.617188 3.59375 12.578125 5.078125 12.617187 6.367188L965.625 540.15625l12.578125 8.125 12.617187 8.4375 12.578126 8.398438 12.617187 7.96875 12.578125 7.148437 12.617188 5.9375 12.578124 4.414063 12.617188 2.578124 12.617188.625 12.578124-1.5625 12.617188-3.671874 12.578125-5.859376 12.617187-7.734374 12.617188-9.453126 12.578125-10.820312 12.617187-11.757812 12.578126-12.148438 12.617187-12.109375L1205 507.226562l12.617188-10.195312 12.578124-8.4375 12.617188-6.054688 12.617188-3.28125 12.578124-.039062 12.617188 3.476562 12.578125 7.226563 12.617187 11.015625 12.578126 14.84375 12.617187 18.4375 12.617187 21.796875 12.578126 24.726563 12.617187 27.109374 12.578125 28.945313 12.617188 30 12.578124 30.390625 12.617188 29.960938 12.617188 28.75 12.578124 26.757812 12.617188 24.023438 12.578125 20.703124 12.617187 16.679688 12.578126 12.304688 12.617187 7.5 12.617187 2.539062 12.578126-2.539062 12.617187-7.5L1557.8125 844.0625l12.617188-16.679688 12.578124-20.703124L1595.625 782.65625l12.578125-26.757812 12.617187-28.75L1633.4375 697.1875l12.578125-30.390625 12.617187-30 12.578126-28.945313 12.617187-27.109374 12.578125-24.726563 12.617188-21.796875 12.578124-18.4375 12.617188-14.84375 12.617188-11.015625 12.578124-7.226563 12.617188-3.476562 12.578125.039062 12.617187 3.28125 12.578126 6.054688 12.617187 8.4375 12.617187 10.195312 12.578126 11.445313 12.617187 12.109375 12.578125 12.148438 12.617188 11.757812 12.578124 10.820312 12.617188 9.453126 12.578125 7.734374 12.617187 5.859376 12.617188 3.671874 12.578125 1.5625 12.617187-.625 12.578126-2.578124 12.617187-4.414063 12.578125-5.9375 12.617188-7.148437 12.578124-7.96875 12.617188-8.398438 12.617188-8.4375 12.578124-8.125 12.617188-7.382812 12.578125-6.367188 12.617187-5.078125 12.578126-3.59375 12.617187-1.992187 12.617187-.351563 12.578126 1.25 12.617187 2.8125 12.578125 4.179687 12.617188 5.273438 12.578124 6.171875 12.617188 6.71875 12.578125 6.992187 12.617187 6.875 12.617188 6.484376 12.578125 5.742187 12.617187 4.804687 12.578126 3.671876 12.617187 2.34375 12.578125.898437 12.617188-.507813 12.617187-1.914062 12.578125-3.203125 12.617188-4.335937 12.578124-5.273438 12.617188-5.898438 12.578125-6.328124 12.617187-6.367188 12.578126-6.171875 12.617187-5.664063 12.617187-4.882812 12.578126-3.90625 12.617187-2.734375 12.578125-1.40625 12.617188-.078125 12.578124 1.328125 12.617188 2.617187 12.617188 3.828126 12.578124 4.804687 12.617188 5.625 12.578125 6.132813 12.617187 6.367187 12.578126 6.328125 12.617187 5.976562 12.617187 5.3125 12.578126 4.414063 12.617187 3.28125 12.578125 2.03125 12.617188.664063 12.578124-.820313 12.617188-2.226563 12.617188-3.554687 12.578124-4.726563 12.617188-5.703124 12.578125-6.445313 12.617187-6.835937"/><g stroke="#000"><path d="M260 559.53125l2.8125-5.625 2.773438-5.742188 2.8125-5.703124 2.8125-5.390626 2.773437-4.960937 2.8125-4.414063 2.8125-3.632812 2.773437-2.773438 2.8125-1.835937 2.8125-.859375 2.773438.195312L293.59375 520l2.8125 2.1875 2.773438 3.085938 2.8125 3.867187 2.8125 4.53125 2.8125 5.039063 2.773437 5.390624 5.625 11.09375 2.773437 5.351563 2.8125 4.921875 2.8125 4.414062 2.773438 3.75L330 576.5625l2.8125 2.03125 2.773438 1.054688 2.8125.078124 2.8125-.9375 2.773437-1.875 2.8125-2.8125 2.8125-3.59375 2.773437-4.257812 2.8125-4.804688 2.8125-5.195312 2.8125-5.390625 2.773438-5.429687 2.8125-5.273438 2.8125-4.960938 2.8125-4.453124 2.773438-3.828126 2.8125-3.046874 2.773437-2.226563 2.8125-1.289063 2.8125-.3125 2.773437.664063 2.8125 1.640625 2.8125 2.5 2.773438 3.320312 2.8125 4.0625 2.8125 4.570313 2.773438 5.039063 2.8125 5.273437 2.8125 5.3125 2.773437 5.234375 2.8125 4.960938 2.8125 4.53125 2.773437 3.945312 2.8125 3.203125 2.8125 2.382813 2.8125 1.523437 2.773438.546875 2.8125-.429688 2.773438-1.367187 2.8125-2.265625 2.8125-3.085938 2.8125-3.828124 2.773437-4.414063 2.8125-4.84375 2.8125-5.15625 2.773437-5.273437 2.8125-5.234376 2.8125-5 2.773438-4.570312 2.8125-4.0625 2.8125-3.359375 2.773438-2.578125 2.8125-1.71875 2.8125-.78125 2.773437.15625 2.8125 1.132812 2.8125 2.03125 2.8125 2.851563 2.773437 3.632813 2.8125 4.257812 2.8125 4.726562 2.773438 5.078126 2.8125 5.195312 2.8125 5.234375 2.8125 5.039063 2.773438 4.6875 2.8125 4.179687 2.773437 3.554687 2.8125 2.773438 2.8125 1.914062 2.773437 1.015626 2.8125.078124 2.8125-.898437L537.1875 575.625 540 572.96875l2.8125-3.4375 2.8125-4.101562 2.773438-4.609376 2.8125-5 2.8125-5.195312 2.773437-5.273438 2.8125-5.078124 2.773437-4.804688 2.8125-4.335938 2.8125-3.710937 2.8125-2.96875 2.773438-2.148437 2.8125-1.25 2.773438-.3125 2.8125.664062 2.8125 1.5625 2.8125 2.460938 2.773437 3.28125 2.8125 3.945312 2.8125 4.53125 2.773437 4.960938 2.8125 5.15625 2.8125 5.3125 2.8125 5.15625L610 562.695312l2.8125 4.492188 2.8125 3.90625 2.773438 3.203125 2.8125 2.382813 2.773437 1.523437 2.8125.546875 2.8125-.429688 2.8125-1.367187 2.773437-2.265625 2.8125-3.125 2.8125-3.828125 2.773438-4.414063 2.8125-4.921874 2.8125-5.234376 2.8125-5.3125 2.773438-5.273437 2.8125-5.078125 2.773437-4.648438 2.8125-4.140624 2.8125-3.4375 2.773437-2.65625 2.8125-1.71875 2.8125-.820313 2.773438.15625L680 521.40625l2.8125 2.070312 2.8125 2.96875 2.773438 3.710938 2.8125 4.375 2.8125 4.882812 2.773437 5.273438 2.8125 5.390625 2.773437 5.429687 2.8125 5.195313 2.8125 4.882813 2.8125 4.375 2.773438 3.671874 2.8125 2.929688 2.773438 2.03125 2.8125 1.054688 2.8125.078124 2.8125-.9375 2.773437-1.875 2.8125-2.8125 2.8125-3.632812 2.773437-4.296875 2.8125-4.882813 2.8125-5.3125 2.8125-5.507812L750 544.882812l2.8125-5.429687 2.8125-5.078125 2.773438-4.648438 2.8125-3.945312 2.773437-3.203125 2.8125-2.34375 2.8125-1.328125 2.8125-.351562 2.773437.703124 2.8125 1.71875 2.8125 2.65625 2.773438 3.515626 2.8125 4.296874 2.8125 4.882813 2.8125 5.351563 2.773438 5.664062 2.8125 5.742188 2.773437 5.664062 2.8125 5.351562 2.8125 4.921876 2.8125 4.296874 2.773437 3.515626 2.8125 2.617187 2.8125 1.679687L820 581.71875l2.8125-.429688 2.8125-1.484374 2.773438-2.5 2.8125-3.4375 2.8125-4.296876 2.773437-4.921874 2.8125-5.46875 2.773437-5.78125 2.8125-5.976563 2.8125-5.9375 2.8125-5.664063 2.773438-5.234374 2.8125-4.648438 2.8125-3.867188 2.773438-3.007812 2.8125-1.992188 2.8125-.898437 2.773437.15625 2.8125 1.289063L876.015625 520l2.8125 3.359375 2.773437 4.21875 2.8125 5 2.8125 5.585937L890 544.179688l5.625 12.421874 2.773438 6.054688 2.8125 5.625 2.773437 5.039062 2.8125 4.296876 2.8125 3.398437 2.8125 2.34375 2.773437 1.25 2.8125.117187 2.8125-1.054687 2.773438-2.226563 2.8125-3.242187 2.8125-4.257813 2.8125-5.078124 2.773438-5.742188 2.8125-6.25 2.773437-6.523438 2.8125-6.5625 2.8125-6.445312 2.8125-6.09375 2.773437-5.507812 2.8125-4.765626 2.8125-3.828124 2.8125-2.8125"/><path d="M960.039062 514.335938l2.773438-1.640626 2.8125-.429687 2.773438.820313 2.8125 2.03125 2.8125 3.203124 2.773437 4.257813 2.8125 5.15625 2.773437 5.976563 2.8125 6.523437 2.8125 6.875 2.8125 7.03125 2.773438 6.914063 2.8125 6.601562 2.8125 6.09375 2.8125 5.273438 2.773438 4.375 2.8125 3.28125 2.773437 2.109374 2.8125.78125 2.8125-.507812 2.8125-1.835938 2.773437-3.125 2.8125-4.296874 2.8125-5.3125L1030 568.320312l2.8125-6.914062 2.8125-7.304688 2.773438-7.578124 2.8125-7.5 2.773437-7.226563 2.8125-6.71875 2.8125-5.976563 2.8125-5 2.773437-3.867187 2.8125-2.617187 2.773438-1.210938 2.8125.195312 2.8125 1.601563 2.8125 3.007813 2.773438 4.335937 2.8125 5.507813 2.8125 6.523437 2.773437 7.304687 2.8125 7.890626 5.625 16.40625 2.773437 8.007812 2.8125 7.539062 2.8125 6.757813 2.8125 5.742187 2.773438 4.609376 2.8125 3.242187 2.773438 1.757813 2.8125.195312 2.8125-1.367188 2.773437-2.929687 2.8125-4.375 2.8125-5.742187 2.8125-6.914063 2.773437-7.851563 2.8125-8.554687 2.773438-8.984375 2.8125-9.140625 2.8125-8.984375 2.8125-8.476562 2.773438-7.773438 2.8125-6.71875 2.773437-5.507812 2.8125-3.984376 2.8125-2.421874 2.8125-.703126 2.773437 1.054688 2.8125 2.773438 2.8125 4.492187L1170 510.9375l2.8125 7.421875 2.8125 8.554687 2.773438 9.414063 2.8125 10.039063 2.773437 10.273437 2.8125 10.195313 2.8125 9.765624 2.8125 9.023438 2.773437 8.007812 2.8125 6.601563 2.8125 5.039063 2.8125 3.28125 2.773438 1.367187 2.8125-.625 2.773438-2.65625 2.8125-4.570313 2.8125-6.445312 2.773437-8.046875 2.8125-9.453125 2.8125-10.585938 2.8125-11.40625 2.773437-11.796874 2.8125-11.796876 2.8125-11.484374 2.8125-10.78125 2.773438-9.609376 2.8125-8.203124 2.8125-6.40625 2.773438-4.453126 2.8125-2.226562 2.773437.039062 2.8125 2.421876 2.8125 4.6875 2.773437 6.953124 2.8125 8.945313 2.8125 10.703125 2.773438 12.1875 2.8125 13.242188 2.8125 13.90625 2.773438 14.101562 2.8125 13.867188 2.8125 13.164062 2.773437 12.03125 2.8125 10.390625 2.8125 8.4375 2.8125 6.09375 2.773437 3.554687 2.8125.820313 2.8125-1.992187L1310 628.085938l2.8125-7.65625 2.8125-10.195313 2.773438-12.5 2.8125-14.453125 2.8125-15.976562 2.8125-17.03125 2.773437-17.539063 2.8125-17.5 2.773437-16.835937 2.8125-15.585938 2.8125-13.867188 2.8125-11.5625 2.773438-8.828124 2.8125-5.742188 2.773438-2.265625 2.8125 1.25 2.8125 4.960937 2.773437 8.59375 2.8125 12.070313 2.8125 15.234375 2.8125 18.085938 2.773437 20.351562 2.8125 22.148438 2.8125 23.164062 2.8125 23.515625 2.773438 23.085937 2.8125 21.914063 2.773438 19.960937 2.8125 17.226563 2.8125 13.867187 2.773437 9.882813 2.8125 5.351563 2.8125.46875 2.8125-4.648438 2.773437-9.882812 2.8125-15.039063 2.773438-20 2.8125-24.53125 2.8125-28.59375 2.8125-31.835937 2.773438-34.296876 2.8125-35.78125 2.8125-36.210937 2.773437-35.546875 2.8125-33.59375 2.8125-30.507812 2.773437-26.25 2.8125-20.78125 2.8125-14.296876 2.8125-6.835937 2.773438 1.445313 2.8125 10.351562 2.773438 19.804688 2.8125 29.414062 2.8125 39.179688 2.8125 48.75 2.773437 57.890624 2.8125 66.445313 2.773437 74.101563 2.8125 80.820312 2.8125 86.210938 2.773438 90.3125 2.8125 92.851562 2.8125 93.75 2.773438 93.046875 2.8125 90.664063 2.8125 86.523437 2.8125 80.820313 2.773437 73.515624 2.8125 64.84375 2.8125 54.882813 2.773437 43.828125 2.8125 31.992188 2.8125 19.414062 2.8125 6.484375 2.773438-6.484375 2.8125-19.414062 2.8125-31.992188 2.773438-43.828125 2.8125-54.882813 2.773437-64.84375 2.8125-73.515624 2.8125-80.820313 2.8125-86.523437 2.773437-90.664063 2.8125-93.046875 2.8125-93.75 2.8125-92.851562 2.773438-90.3125 2.8125-86.210938 2.773438-80.820312 2.8125-74.101563 2.8125-66.445313 2.773437-57.890624 2.8125-48.75 2.8125-39.179688 2.773437-29.414062 2.8125-19.804688 2.8125-10.351562L1590 293.046875l2.8125 6.835937 2.8125 14.296876 2.773438 20.78125 2.8125 26.25 2.8125 30.507812 2.8125 33.59375 2.773437 35.546875 2.8125 36.210937 2.773437 35.78125 2.8125 34.335938 2.8125 31.796875 2.8125 28.59375 2.773438 24.53125 2.8125 20 2.8125 15.039063 2.773438 9.882812 2.8125 4.648438 2.8125-.46875 2.773437-5.351563 2.8125-9.882813 2.8125-13.867187 2.773437-17.226563 2.8125-19.960937 2.8125-21.914063 2.8125-23.085937"/><path d="M1660.039062 589.921875l2.773438-23.515625 2.8125-23.203125 2.8125-22.109375 2.773438-20.351562 2.8125-18.085938 2.8125-15.234375 2.773437-12.070313 2.8125-8.59375 2.8125-4.960937 2.773437-1.25 2.8125 2.265625 2.773438 5.742188 2.8125 8.828124 2.8125 11.5625 2.8125 13.867188 2.773438 15.585938 2.8125 16.835937 2.773437 17.5 2.8125 17.539063 2.8125 17.03125 2.8125 15.976562 2.773437 14.453125 2.8125 12.5 2.8125 10.195313 2.8125 7.65625 2.773438 4.84375 2.8125 1.992187 2.8125-.820313 2.773438-3.554687 2.8125-6.09375 2.8125-8.4375 2.773437-10.390625 2.8125-12.03125 2.8125-13.164062 2.8125-13.867188 2.773437-14.101562 2.8125-13.90625 2.773438-13.242188 2.8125-12.1875 2.8125-10.703125 2.773438-8.945313 2.8125-6.953124 2.8125-4.6875 2.773437-2.421876 2.8125-.039062 2.8125 2.226562 2.773437 4.453126 2.8125 6.40625 2.8125 8.203124 2.8125 9.609376 2.773438 10.78125 2.8125 11.484374 2.8125 11.796876 2.773438 11.796874 2.8125 11.40625 2.8125 10.585938 2.773437 9.453125 2.8125 8.046875 2.8125 6.445312 2.773437 4.570313 2.8125 2.65625 2.8125.625 2.773438-1.367187 2.8125-3.28125 2.8125-5.039063 2.773438-6.601563 2.8125-8.007812 2.8125-9.023438 2.8125-9.765624 2.773437-10.195313 2.8125-10.273437 2.773437-10.039063 2.8125-9.414063 2.8125-8.554687 2.8125-7.421875 2.773438-6.015625 2.8125-4.492187 2.8125-2.773438 2.773438-1.054688 2.8125.703126 2.8125 2.421874 2.773437 3.984376 2.8125 5.507812 2.773437 6.71875 2.8125 7.773438 2.8125 8.476562 2.8125 8.984375 2.773438 9.140625 2.8125 8.984375 2.773438 8.554687 2.8125 7.851563 2.8125 6.914063 2.8125 5.742187 2.773437 4.375 2.8125 2.929687 2.8125 1.367188 2.8125-.195312 2.773437-1.757813 2.8125-3.242187 2.8125-4.609376 2.773438-5.742187 2.8125-6.757813 2.8125-7.539062 2.773438-8.007812 5.625-16.40625 2.8125-7.890626 2.773437-7.304687 2.8125-6.523437 2.773437-5.507813 2.8125-4.335937 2.8125-3.007813 2.8125-1.601563 2.773438-.195312 2.8125 1.210938 2.773438 2.617187 2.8125 3.867187 2.8125 5 2.8125 5.976563 2.773437 6.71875 2.8125 7.226563 2.773437 7.5 2.8125 7.578124 2.8125 7.304688 2.8125 6.914062 2.773438 6.171876 2.8125 5.3125 2.8125 4.296874 2.773438 3.125 2.8125 1.835938 2.8125.507812 2.8125-.78125 2.773437-2.109374 2.8125-3.28125 2.773437-4.375 2.8125-5.273438 2.8125-6.09375 2.773438-6.601562 2.8125-6.914063 2.8125-7.03125 2.8125-6.875 2.773438-6.523437 2.8125-5.976563 2.773437-5.15625 2.8125-4.257813 2.8125-3.203124 2.8125-2.03125 2.773437-.820313 2.8125.429687 2.8125 1.640626 2.773438 2.8125 2.8125 3.828124 2.8125 4.765626 2.773438 5.507812 2.8125 6.09375 2.8125 6.445312 2.773437 6.5625 2.8125 6.523438 2.8125 6.25 2.773437 5.742188 2.8125 5.078124 2.773438 4.257813 2.8125 3.242187 2.8125 2.226563 2.8125 1.054687 2.773438-.117187 2.8125-1.25 2.8125-2.34375 2.8125-3.398437 2.773437-4.296876 2.8125-5.039062 2.773437-5.625 2.8125-6.054688 5.625-12.421874 2.773438-6.015626 2.8125-5.585937 2.8125-5 2.773438-4.21875 2.8125-3.359375 2.8125-2.382812 2.8125-1.289063 2.773437-.15625 2.8125.898437 2.8125 1.992188 2.773437 3.007812 2.8125 3.867188 2.8125 4.648438 2.773438 5.234374 2.8125 5.664063 2.8125 5.9375 2.773438 5.976563 2.8125 5.78125 2.773437 5.46875 2.8125 4.921874 2.8125 4.296876 2.8125 3.4375 2.773437 2.5 2.8125 1.484374 2.8125.429688 2.773438-.585938 2.8125-1.679687 2.8125-2.617187 2.773438-3.515626 2.8125-4.296874 2.8125-4.921876 2.773437-5.351562 2.8125-5.664062 2.8125-5.742188 2.773437-5.664062 2.8125-5.351563 2.8125-4.882813 2.8125-4.296874 2.773438-3.515626 2.8125-2.65625 2.773438-1.71875 2.8125-.703124 2.8125.351562 2.8125 1.328125 2.773437 2.34375 2.8125 3.203125 2.8125 3.945312 2.773437 4.648438 2.8125 5.078125 2.8125 5.429687 2.773438 5.585938 2.8125 5.507812 2.8125 5.3125 2.773438 4.882813 2.8125 4.296875 2.8125 3.632812 2.8125 2.8125 2.773437 1.875 2.8125.9375 2.8125-.078124 2.773437-1.054688 2.8125-2.03125 2.773438-2.929688 2.8125-3.671874 2.8125-4.375 2.8125-4.882813 2.773438-5.195313 2.8125-5.429687 2.773437-5.390625 2.8125-5.273438 2.8125-4.882812 2.8125-4.375 2.773437-3.710938 2.8125-2.96875 2.8125-2.070312"/><path d="M2360.039062 521.40625l2.773438-1.171875 2.8125-.15625 2.8125.820313 2.773438 1.71875 2.8125 2.65625 2.8125 3.4375 2.8125 4.140624 2.773437 4.648438 2.8125 5.078125 2.8125 5.273437 2.773437 5.3125 2.8125 5.234376 2.8125 4.921874 2.773438 4.414063 2.8125 3.828125 2.8125 3.125 2.773438 2.265625 2.8125 1.367187 2.8125.429688 2.773437-.546875 2.8125-1.523437 2.773437-2.382813 2.8125-3.203125 2.8125-3.90625 2.8125-4.492188 2.773438-4.921874 2.8125-5.15625 2.8125-5.3125 2.773438-5.15625 2.8125-4.960938 2.8125-4.53125 2.8125-3.945312 2.773437-3.28125 2.8125-2.460938 2.8125-1.5625 2.773437-.664062 2.8125.3125 2.773438 1.25 2.8125 2.148437 2.8125 2.96875 2.8125 3.710937 2.773438 4.335938 2.8125 4.804688 2.8125 5.078124 2.8125 5.273438 2.773437 5.195312 2.8125 5 2.773437 4.609376 2.8125 4.101562 2.8125 3.4375 2.773438 2.65625 2.8125 1.796875 2.8125.898437 2.773438-.078124 2.8125-1.015626 2.8125-1.914062 2.8125-2.773438 2.773437-3.554687 2.8125-4.179687 2.773437-4.6875 2.8125-5.039063 2.8125-5.234375 2.8125-5.195312 2.773438-5.078126 2.8125-4.726562 2.773438-4.257812 2.8125-3.632813 2.8125-2.851563 2.8125-2.03125 2.773437-1.132812 2.8125-.15625 2.8125.78125 2.773437 1.71875 2.8125 2.578125 2.8125 3.359375 2.773438 4.0625 2.8125 4.570312 2.8125 5 2.773438 5.234376 2.8125 5.273437 2.8125 5.15625 2.8125 4.84375 2.773437 4.414063 2.8125 3.828124 2.8125 3.085938 2.773437 2.265625 2.8125 1.367187 2.8125.429688 2.8125-.546875 2.773438-1.523437 2.8125-2.382813 2.773438-3.203125 2.8125-3.945312 2.8125-4.53125 2.8125-4.960938 2.773437-5.234375 2.8125-5.3125 2.773437-5.273437 2.8125-5.039063 2.8125-4.570313 2.773438-4.0625 2.8125-3.320312 2.8125-2.5 2.773438-1.640625 2.8125-.664063 2.8125.3125 2.8125 1.289063 2.773437 2.226563 2.8125 3.046874 2.773437 3.828126 2.8125 4.453124 2.8125 4.960938 2.8125 5.273438 2.773438 5.429687 2.8125 5.390625 2.8125 5.195312 2.8125 4.804688 2.773438 4.257812 2.8125 3.59375 2.773437 2.8125 2.8125 1.875 2.8125.9375 2.773437-.078124 2.8125-1.054688 2.8125-2.03125 2.8125-2.929688 2.773438-3.75 2.8125-4.414062 2.773438-4.921875 2.8125-5.351563 5.625-11.09375 2.773437-5.390624 2.8125-5.039063 2.8125-4.53125 2.773437-3.867187 2.8125-3.085938 2.8125-2.1875 2.773438-1.210938 2.8125-.195312 2.8125.859375 2.773438 1.835937 2.8125 2.773438 2.8125 3.632812 2.8125 4.414063 2.773437 4.960937 2.8125 5.390626 2.773437 5.703124 2.8125 5.742188 2.8125 5.625"/></g></g><path stroke-width="3.985" stroke="#000" d="M530.390625 261.601562h1979.257813"/></g><path d="M52.7891 151.8516h.6016v6h-.6016zm0 0"/><path d="M102.2695 151.8516h.6016v6h-.6016zm0 0"/><path d="M151.75 151.8516h.6016v6h-.6016zm0 0"/><path d="M201.2305 151.8516h.6016v6h-.6016zm0 0"/><path d="M250.7109 151.8516h.6016v6h-.6016zm0 0"/><use x="46.4398" y="164.6109" href="#b"/><use x="53.1597" y="164.6109" href="#c"/><use x="95.5609" y="167.2511" href="#b"/><use x="103.4808" y="163.291" href="#d"/><path d="M103.4688 164.3828h4.9219v.6016h-4.9219zm0 0"/><use x="104.081" y="170.6109" href="#e"/><use x="149.4818" y="166.6512" href="#a"/><use x="199.0826" y="163.291" href="#d"/><path d="M199.0703 164.3828h4.9219v.6016h-4.9219zm0 0"/><use x="199.682" y="170.6109" href="#e"/><use x="247.6031" y="164.6109" href="#c"/><g style="fill:none;stroke-width:3.985;stroke:#000;stroke-miterlimit:10;transform:matrix(.1,0,0,-.1,0,178)"><path d="M260 261.601562h2520.039062"/><path d="M260 261.601562v1440"/></g><path d="M19.9883 151.4922h6v.6016h-6zm0 0"/><path d="M19.9883 122.6914h6v.6016h-6zm0 0"/><path d="M19.9883 93.8906h6v.6016h-6zm0 0"/><path d="M19.9883 65.0898h6v.6016h-6zm0 0"/><path d="M19.9883 36.2891h6v.6016h-6zm0 0"/><path d="M19.9883 7.4883h6v.6016h-6zm0 0"/><use x="1.3488" y="155.2" href="#b"/><use x="8.0688" y="155.2" href="#f"/><use x="13.1086" y="155.2" href="#a"/><use x="12.9891" y="126.4" href="#a"/><use x="8.0691" y="97.5992" href="#f"/><use x="13.109" y="97.5992" href="#a"/><use x="8.0691" y="68.7992" href="#g"/><use x="13.109" y="68.7992" href="#a"/><use x="8.0691" y="39.998" href="#h"/><use x="13.109" y="39.998" href="#a"/><use x="8.0691" y="11.198" href="#i"/><use x="13.109" y="11.198" href="#a"/></svg>