<svg xmlns="http://www.w3.org/2000/svg" width="95pt" height="95pt" viewBox="0 0 95 95"><defs><clipPath id="c"><path d="M.25391 0H95v94.55078H.25391zm0 0"/></clipPath><clipPath id="d"><path d="M29 0h54v49H29zm0 0"/></clipPath><clipPath id="e"><path d="M49 0h21v29H49zm0 0"/></clipPath><clipPath id="f"><path clip-rule="evenodd" d="M.25391 94.55078h95v-95h-95zM62.125 2.52734l.82031.3125-1.51172 9.00781.62891-7.74609-4.21875 6.55078zm0 0"/></clipPath><clipPath id="g"><path d="M51 0h18v19H51zm0 0"/></clipPath><clipPath id="h"><path d="M.25391 40H55v26H.25391zm0 0"/></clipPath><clipPath id="i"><path clip-rule="evenodd" d="M.25391 94.55078h95v-95h-95zm1.58984-35.33594-.1875-.81641 8.37891-3.58984-6.86719 3.65234h7.8125zm0 0"/></clipPath><clipPath id="j"><path d="M.25391 48H18v18H.25391zm0 0"/></clipPath><clipPath id="k"><path d="M0 0h95v95H0z"/></clipPath><g id="l" clip-path="url(#k)"><g clip-path="url(#c)"><path fill-rule="evenodd" fill="#e9e9e9" fill-opacity="1" d="M94.25 47.375c0 25.8125-20.925781 46.738281-46.738281 46.738281S.773438 73.1875.773438 47.375 21.699219.636719 47.511719.636719 94.25 21.5625 94.25 47.375"/><path d="M939.97 471.74c0-258.125-209.257812-467.382812-467.382812-467.382812S5.204375 213.615 5.204375 471.74s209.257813 467.382813 467.382813 467.382813S939.97 729.865 939.97 471.74zm0 0" class="c"/></g><path d="M557.62625 726.857188l106.445313-40.3125L473.87625 472.365zm0 0" style="fill:none;stroke-width:4.72425;stroke-linecap:butt;stroke-linejoin:miter;stroke:#888;stroke-opacity:1;stroke-dasharray:28.3455;stroke-miterlimit:10;transform:matrix(.1,0,0,-.1,.253,94.549)"/><path d="M57.15234 21.86328c0 .625-.507813 1.132813-1.136719 1.132813-.625 0-1.132813-.507813-1.132813-1.132813s.507813-1.132812 1.132813-1.132812c.628906 0 1.136719.507812 1.136719 1.132812" class="b"/><path d="M568.993438 726.857188c0-6.25-5.078125-11.328125-11.367188-11.328125-6.25 0-11.328125 5.078125-11.328125 11.328125s5.078125 11.328125 11.328125 11.328125c6.289063 0 11.367188-5.078125 11.367188-11.328125zm0 0" class="a"/><path d="M67.60547 25.83203c0 .625-.507813 1.132813-1.132813 1.132813s-1.132812-.507813-1.132812-1.132813.507812-1.132812 1.132812-1.132812 1.132813.507812 1.132813 1.132812" class="b"/><path d="M673.524688 687.169688c0-6.25-5.078125-11.328125-11.328125-11.328125s-11.328125 5.078125-11.328125 11.328125 5.078125 11.328125 11.328125 11.328125 11.328125-5.078125 11.328125-11.328125zm0 0" class="a"/><path d="M48.64844 47.375c0 .625-.507813 1.132812-1.136719 1.132812-.625 0-1.132813-.507812-1.132813-1.132812s.507813-1.132812 1.132813-1.132812c.628906 0 1.136719.507812 1.136719 1.132812" class="b"/><path d="M483.954375 471.74c0-6.25-5.078125-11.328125-11.367187-11.328125-6.25 0-11.328125 5.078125-11.328125 11.328125s5.078125 11.328125 11.328125 11.328125c6.289062 0 11.367187-5.078125 11.367187-11.328125zm0 0" class="a"/><g clip-path="url(#d)"><path d="M754.81375 726.857188c0-108.90625-88.28125-197.148438-197.1875-197.148438-108.867187 0-197.148437 88.242188-197.148437 197.148438 0 108.867187 88.28125 197.148437 197.148437 197.148437 108.90625 0 197.1875-88.28125 197.1875-197.148437zm0 0" class="c"/></g><g clip-path="url(#e)"><g clip-path="url(#f)"><path d="M557.62625 726.857188 621.259063 914.5525" class="a"/></g></g><g clip-path="url(#g)"><path d="M575.9075 838.966563l42.1875 65.507812-6.289062-77.460937" class="a"/></g><g clip-path="url(#h)"><g clip-path="url(#i)"><path d="M472.587188 471.74 19.071563 358.380625" class="a"/></g></g><g clip-path="url(#j)"><path d="M107.274688 360.880625h-78.125l68.671875 36.523438" class="a"/></g></g><path d="M4.96875-1.23437l-.15625-.09375c-.109375.125-.15625.1875-.265625.328125-.28125.359375-.40625.46875-.5625.46875-.171875 0-.28125-.15625-.359375-.484375-.03125-.109375-.046875-.171875-.046875-.1875-.296875-1.125-.4375-1.765625-.4375-1.953125.53125-.921875.953125-1.453125 1.171875-1.453125.078125 0 .1875.046875.296875.109375.140625.078125.21875.09375.328125.09375.234375 0 .40625-.171875.40625-.421875 0-.265625-.203125-.4375-.484375-.4375-.53125 0-.96875.421875-1.8125 1.703125l-.125-.65625C2.75-5.031245 2.625-5.26562 2.296875-5.26562c-.28125 0-.65625.09375-1.40625.34375l-.125.04688.04688.17188L1.01563-4.75c.234375-.0625.375-.078125.46875-.078125.296875 0 .375.109375.53125.828125l.34375 1.46875-.96875 1.39063C1.140625-.78125.90625-.5625.78125-.5625c-.078125 0-.203125-.03125-.3125-.109375C.3125-.75.1875-.78125.078125-.78125c-.234375 0-.40625.171875-.40625.40625 0 .3125.234375.5.609375.5.359375 0 .5-.09375 1.109375-.8125L2.46875-2.10937l.35938 1.4375c.140625.625.296875.796875.6875.796875.453125 0 .765625-.28125 1.453125-1.359375zm0 0" id="a"/><path d="M5.51563-7.17187c0-.375-.546875-.6875-1.515625-.6875s-1.73438.54687-1.73438 1.26562c0 .796875.8125 1.65625.8125 1.671875 0 0-2.859375.46875-2.859375 3.171875 0 .8125.421875 1.921875 1.625 1.921875 1.6875 0 3.046875-1.546875 3.046875-3.5 0-1.984375-2.171875-2.234375-2.171875-3.390625 0-.53125.625-.765625 1.015625-.765625 1.125 0 .875.6875 1.375.6875.25 0 .40625-.171875.40625-.375zm-1.57812 4.25c0 1.53125-1 2.796875-1.8125 2.796875-.671875 0-.90625-.921875-.90625-1.578125 0-2.765625 2.078125-2.96875 2.09375-2.96875 0 .015625.625.78125.625 1.75zm0 0" id="b"/><path d="M4.34375.0625c0-.265625-.171875-.4375-.421875-.4375-.234375 0-.40625.15625-.40625.390625 0 .09375.03125.203125.109375.34375.03125.078125.0625.125.0625.171875 0 .109375-.140625.1875-.328125.1875-.296875 0-.4375-.109375-.84375-.59375-.515625-.6875-.75-.84375-1.4375-1l3.46875-4.10937v-.125h-3.40625l-.35937 1.375.1875.04688c.25-.609375.40625-.71875.96875-.71875h1.75L-.03125.04688.07813.15625C.28125 0 .4375-.0625.625-.0625c.3125 0 .6875.15625 1.25.5.59375.375 1 .53125 1.34375.53125.59375 0 1.125-.4375 1.125-.90625zm0 0" id="m"/><path d="M6.4375-2.39062c0-.875-.359375-1.3125-1.5-1.8125.84375-.203125 1.1875-.34375 1.578125-.671875.328125-.28125.515625-.6875.515625-1.171875 0-1.140625-.84375-1.765625-2.390625-1.765625h-3.09375v.20313c.765625.0625.921875.140625.921875.484375 0 .1875-.046875.46875-.125.765625L.875-1.07812C.65625-.375.578125-.3125-.09375-.1875V0h3.375c1.875 0 3.15625-.96875 3.15625-2.390625zM5.15625-2.4375c0 1.296875-.890625 2.078125-2.34375 2.078125-.5 0-.765625-.171875-.765625-.5 0-.15625.140625-.71875.421875-1.671875l.375-1.42187c.75 0 1.265625.046875 1.5.140625.515625.1875.8125.71875.8125 1.375zm.67188-3.71875c0 1.234375-.8125 1.8125-2.453125 1.8125h-.40625l.76563-2.76562c.078125-.265625.21875-.34375.6875-.34375.96875 0 1.40625.40625 1.40625 1.296875zm0 0" id="n"/><path d="M2.32813-.07812c0-.984375-.6875-1.140625-.96875-1.140625-.296875 0-.6875.171875-.6875.6875 0 .484375.421875.609375.734375.609375.09375 0 .140625-.015625.1875-.03125s.07812-.01563.10937-.01563c.078125 0 .15625.046875.15625.15625 0 .234375-.1875.765625-.96875 1.265625l.09375.23438c.359375-.125 1.34375-.90625 1.34375-1.765625zm0 0" id="o"/><path d="M6.98438-4.90625l-.82812.10938c-.328135.92187-1.265635 2.32812-1.265635 2.343745H4.875c0-.015625.203125-.515625.203125-1.15625 0-.796875-.265625-1.65625-1.546875-1.65625-2.015625 0-3.25 2.109375-3.25 3.5625C.28125-.6875.828125.125 2.0625.125c.953125 0 1.671875-.71875 1.671875-.734375 0 .09375.03125.71875.90625.71875C5.59375.109375 6.15625-.96875 6.15625-1.25c0-.03125-.015625-.046875-.03125-.046875-.15625 0-.453125.96875-1.140625.96875-.265625 0-.328125-.296875-.328125-.609375 0-.25.046875-.53125.09375-.65625.15625-.21875 2.234375-3.3125 2.234375-3.3125zm-2.78125 1.375c0 1.140625-.4375 2.4375-.4375 2.453125s-.60938.90625-1.51563.90625c-.265625 0-.90625-.078125-.90625-1.609375 0-.609375.3125-3.1875 1.984375-3.1875.8125 0 .875 1.015625.875 1.4375zm0 0" id="p"/><path d="M5.09375-4.60937c0-.359375-.296875-.65625-.65625-.65625-.28125 0-.46875.171875-.46875.4375 0 .1875.09375.3125.328125.46875.234375.125.3125.234375.3125.40625 0 .46875-.421875 1.390625-1.453125 3.09375L2.92188-2.25c-.1875-1.0625-.859375-3.015625-1.03125-3.015625h-.15625L.5625-5.0625l-.39062.07813v.20313c.15625-.03125.25-.046875.375-.046875.484375 0 .703125.171875.921875.765625.328125.8125.984375 3.484375.984375 3.96875 0 .125-.046875.265625-.125.421875-.09375.15625-.625.859375-.84375 1.078125-.28125.296875-.421875.40625-.578125.40625-.078125 0-.15625-.046875-.28125-.140625C.4375 1.53125.328125 1.46875.171875 1.46875c-.25 0-.453125.203125-.453125.46875 0 .3125.25.53125.609375.53125.671875 0 1.96875-1.375 3.203125-3.4375 1-1.65625 1.5625-2.96875 1.5625-3.640625zm0 0" id="q"/><path d="M3.53125-8.57812c-1.734375 1.125-2.953125 3.0625-2.953125 5.5 0 2.234375 1.265625 4.484375 2.90625 5.5l.15625-.20312C2.0625.984375 1.609375-.46875 1.609375-3.109375c0-2.65625.484375-4.03125 2.03125-5.265625zm0 0" id="r"/><path d="M.45313-8.57812.34375-8.375C1.890625-7.140625 2.375-5.765625 2.375-3.109375 2.375-.46875 1.921875.984375.34375 2.21875l.14063.20313c1.65625-1.015625 2.921875-3.265625 2.921875-5.5 0-2.4375-1.21875-4.375-2.953125-5.5zm0 0" id="s"/></defs><use href="#l"/><use x="41.83" y="58.704" href="#a"/><use x="13.838" y="50.514" href="#b"/><use x="66.308" y="22.607" href="#m"/><use x="29.004" y="79.429" href="#n"/><use x="37.14549" y="79.429" href="#r"/><use x="41.60478" y="79.429" href="#a"/><use x="47.49869" y="79.429" href="#o"/><use x="52.77094" y="79.429" href="#b"/><use x="58.66485" y="79.429" href="#s"/><use x="47.71" y="15.299" href="#p"/><use x="46.592" y="28.403" href="#q"/><style>.a{fill:none;stroke:#000;stroke-linecap:butt;stroke-linejoin:miter;stroke-miterlimit:10;stroke-opacity:1;stroke-width:4.72425;transform:matrix(.1,0,0,-.1,.253,94.549)}.b{fill:#000;fill-opacity:1;fill-rule:evenodd}.c{fill:none;stroke:#000;stroke-dasharray:9.4485,9.4485;stroke-dashoffset:9.4485;stroke-linecap:round;stroke-linejoin:miter;stroke-miterlimit:10;stroke-opacity:1;stroke-width:4.72425;transform:matrix(.1,0,0,-.1,.253,94.549)}</style></svg>