<svg xmlns="http://www.w3.org/2000/svg" width="222pt" height="198pt" viewBox="0 0 222 198"><defs><path d="M4.8594-1.0156l-.0937-.25c-.078125.078125-.09375.078125-.15625.125-.375.328125-.5625.4375-.734375.4375-.125 0-.1875-.09375-.1875-.28125 0-.0625 0-.09375.015625-.125L4.8125-5.6406l-.125-.1094-.3906.2188c-.46875-.1875-.703125-.234375-1.015625-.234375-.34375 0-.578125.0625-.90625.21875-.75.375-1.125.734375-1.4375 1.3125C.421875-3.171875.046875-1.75.046875-.78125c0 .5.1875.90625.40625.90625.25 0 .6875-.25 1.140625-.625.515625-.4375.984375-1 1.640625-1.9375l-.3437 1.5156c-.046875.21875-.0625.421875-.0625.609375 0 .28125.09375.4375.28125.4375.265625 0 .765625-.328125 1.75-1.140625zM3.8125-4.9531c-.265625 1.28125-.484375 1.90625-.890625 2.515625-.65625 1-1.40625 1.734375-1.796875 1.734375-.140625 0-.21875-.15625-.21875-.484375 0-.765625.3125-2.09375.734375-3.078125.28125-.6875.578125-.90625 1.15625-.90625.28125 0 .5.046875 1.015625.21875zm0 0" id="a"/><path d="M5.1719-4.5c0-.453125-.109375-.921875-.25-1.09375-.07815-.109375-.2344-.171875-.4219-.171875-.28125 0-.640625.09375-.96875.265625-.609375.328125-1.015625.6875-1.75 1.625l1.0313-4.75-.1406-.1406c-.625.3125-1.0625.421875-1.921875.5l-.0469.25h.5781c.28125 0 .40625.09375.40625.296875 0 .078125-.015625.21875-.03125.28125L.4531-.8437c-.0156.0312-.0156.078075-.0156.109325 0 .46875.578125.859375 1.234375.859375.4375 0 1.046875-.21875 1.5625-.59375 1.15625-.8125 1.9375-2.453125 1.9375-4.03125zm-.8594.2969c0 .765625-.25 1.78125-.609375 2.5625-.390625.8281-.875 1.2031-1.515625 1.2031-.546875 0-.84375-.265625-.84375-.765625 0-.296875.046875-.640625.15625-1.078125.21875-.953125.515625-1.53125.984375-2.03125.390625-.40625 1.015625-.75 1.359375-.75.3125 0 .46875.265625.46875.859375zm0 0" id="b"/><path d="M4.2344-1.1406l-.0938-.2344-.1875.125c-.859375.5625-1.3125.765625-1.734375.765625-.671875 0-1.015625-.46875-1.015625-1.421875 0-1.265625.40625-2.5.984375-2.953125.25-.21875.546875-.3125.9375-.3125.53125 0 .96875.21875.96875.515625v.7188h.2656c.09375-.78125.1875-1.21875.296875-1.53125-.3125-.203125-.703125-.296875-1.15625-.296875-.53125 0-1.390625.421875-2.0625 1.015625C.75-4.140625.296875-2.90625.296875-1.625c0 1.140625.5 1.75 1.453125 1.75.65625 0 1.21875-.234375 1.890625-.765625zm0 0" id="h"/><path d="M3.6563.0313v-.2656l-.4531-.0312c-.484375-.03125-.5625-.125-.5625-.578125v-5.2031l-.125-.0312c-.5625.296875-1.1875.5625-1.984375.84375l.0625.375h.0781c.390625-.1875.78125-.359375 1.15625-.515625.0625 0 .078125.078125.078125.28125v4.25c0 .453125-.09375.546875-.578125.578125l-.4844.0313V.0313C1.328125.015625 1.8125 0 2.28125 0s.921875.015625 1.375.03125zm0 0" id="c"/><path d="M4.1094.0313c-.03125-.1875-.03125-.28125-.03125-.40625 0-.109375 0-.1875.03125-.390625L1.0625-.6719l1.6094-1.6875c.843725-.906225 1.10935-1.3906 1.10935-2.04685 0-1.015625-.6875-1.640625-1.796875-1.640625-.640625 0-1.0625.1875-1.5.625l-.1406 1.1875h.25l.1094-.4062c.140625-.5.46875-.71875 1.046875-.71875.75 0 1.234375.46875 1.234375 1.21875 0 .65625-.359375 1.296875-1.359375 2.359375L.1406-.2031v.2344C.78125.015625 1.453125 0 2.09375 0c.671875 0 1.34375.015625 2.015625.03125zm0 0" id="d"/><path d="M4.0469-1.9687c0-.421875-.171875-.78125-.484375-1-.21875-.15625-.421875-.234375-.859375-.3125.703125-.546875.953125-.9375.953125-1.46875 0-.765625-.640625-1.296875-1.609375-1.296875-.59375 0-1 .171875-1.421875.59375l-.25 1.0938h.2813l.1563-.5c.09375-.296875.640625-.59375 1.09375-.59375.578125 0 1.03125.46875 1.03125 1.015625 0 .65625-.515625 1.21875-1.125 1.21875-.078125 0-.421875-.03125-.421875-.03125l-.1094.4688.0625.0469c.34375-.15625.5-.1875.75-.1875.71875 0 1.140625.453125 1.140625 1.25 0 .90625-.53125 1.484375-1.34375 1.484375-.40625 0-.765625-.125-1.03125-.375C.65625-.75.53125-.953125.375-1.421875l-.25.0781C.3125-.812525.390625-.4844.4375-.0469c.46875.15625.84375.21875 1.171875.21875 1.0625 0 2.4375-.921875 2.4375-2.140625zm0 0" id="e"/><path d="M4.1406.0313v-.2656l-.4219-.0312c-.4375-.03125-.53125-.140625-.53125-.65625v-.6719c.515625 0 .703125.015625.953125.046875v-.625s-.4375.03125-.71875.03125H3.1875v-1.2187c0-1.5625.015625-2.328125.0625-2.6875l-.1094-.0312L2.5-5.8437.0156-1.7812l.0938.1875h2.3438v.6719c0 .515625-.09375.640625-.53125.65625l-.5312.0313V.0313C1.859375.015625 2.328125 0 2.796875 0 3.25 0 3.6875.015625 4.140625.03125zM2.4531-2.1406H.5625l1.8906-3.0937zm0 0" id="f"/><path d="M4.0313-2.2187c0-.984375-.71875-1.6875-1.71875-1.6875-.421875 0-.734375.109375-1.28125.4375l.0781-1.8281 2.6719.0313.0469-.0312c-.015625-.171875-.015625-.21875-.015625-.34375 0-.140625 0-.203125.015625-.359375l-.0469-.0469S2.859375-6 2.265625-6s-1.53125-.046875-1.53125-.046875L.6875-6l.0156 1.2031c0 .765625-.015625 1.59375-.046875 1.96875l.1719.0625c.421875-.421875.65625-.53125 1.078125-.53125.84375 0 1.375.59375 1.375 1.53125 0 .984375-.5625 1.546875-1.515625 1.546875-.484375 0-.921875-.15625-1.03125-.390625l-.4062-.7187-.2187.125c.203125.5.3125.78125.4375 1.171875.234375.125.59375.203125.96875.203125.59375 0 1.203125-.25 1.6875-.671875.546875-.46875.828125-1.0625.828125-1.71875zm0 0" id="g"/></defs><path d="M10 1501.09375h2160.039062" class="b"/><path d="M.7461 44.9023h.6016v6H.7461zm0 0"/><path d="M72.75 44.9023h.6016v6H72.75zm0 0"/><path d="M144.75 44.9023h.6016v6h-.6016zm0 0"/><path d="M216.75 44.9023h.6016v6h-.6016zm0 0"/><g class="b"><path d="M81.992188 1033.945312v-25.039062"/><path d="M81.992188 958.867188v-25.039063"/><path d="M81.992188 933.828125v-25"/><path d="M81.992188 858.75v-25.039062"/><path d="M2098.007812 1818.789062v-27.34375"/><path d="M2098.007812 1736.71875v-27.382812"/><path d="M2098.007812 1709.335938v-27.34375"/><path d="M2098.007812 1627.265625v-27.382813"/><path d="M2098.007812 1599.882812v-27.34375"/><path d="M2098.007812 1517.8125v-27.382812"/><path d="M2098.007812 1490.429688v-27.34375"/><path d="M2098.007812 1408.359375v-27.382813"/><path d="M2098.007812 1380.976562v-27.34375"/><path d="M2098.007812 1298.90625v-27.382812"/><path d="M2098.007812 1271.523438v-27.34375"/><path d="M2098.007812 1189.453125v-27.382813"/><path d="M2098.007812 1162.070312v-27.34375"/><path d="M2098.007812 1080v-27.382812"/><path d="M2098.007812 1052.617188v-27.34375"/><path d="M2098.007812 970.546875v-27.382813"/><path d="M2098.007812 943.164062v-27.34375"/><path d="M2098.007812 861.09375v-27.382812"/><path d="M81.992188 833.710938h2016.015624"/><path d="M81.992188 863.789062v-60.117187"/><path d="M2098.007812 863.789062v-60.117187"/></g><use x="3.1609" y="124.8891" href="#a"/><use x="8.8008" y="126.6891" href="#c"/><use x="204.5228" y="126.4489" href="#b"/><use x="210.4029" y="128.2489" href="#c"/><g class="b"><path d="M1090.039062 1884.21875v-27.695312"/><path d="M1090.039062 1801.210938v-27.695313"/><path d="M1090.039062 1773.515625v-27.65625"/><path d="M1090.039062 1690.546875v-27.695313"/><path d="M1090.039062 1662.851562v-27.65625"/><path d="M1090.039062 1579.84375v-27.617188"/><path d="M1090.039062 1552.226562v-27.695312"/><path d="M1090.039062 1469.21875v-27.695312"/><path d="M1090.039062 1441.523438v-27.65625"/><path d="M1090.039062 1358.554688v-27.65625"/><path d="M1090.039062 1330.898438v-27.695313"/><path d="M1090.039062 1247.851562v-27.65625"/><path d="M1090.039062 1220.195312v-27.65625"/><path d="M1090.039062 1137.226562v-27.695312"/><path d="M1090.039062 1109.53125V1081.875"/><path d="M1090.039062 1026.523438v-27.65625"/><path d="M1090.039062 998.867188v-27.65625"/><path d="M1090.039062 915.859375v-27.65625"/><path d="M1090.039062 888.203125v-27.65625"/><path d="M1090.039062 805.195312v-27.65625"/><path d="M1090.039062 777.539062v-27.65625"/><path d="M1090.039062 694.570312V666.875"/><path d="M81.992188 666.875h1008.046874"/></g><use x="3.1609" y="141.575" href="#a"/><use x="8.8008" y="143.375" href="#d"/><use x="103.7219" y="143.1348" href="#b"/><use x="109.602" y="144.9348" href="#d"/><g class="b"><path d="M81.992188 696.914062v-60.078124"/><path d="M1090.039062 696.914062v-60.078124"/><path d="M586.015625 1573.515625v-29.804687"/><path d="M586.015625 1484.0625v-29.804688"/><path d="M586.015625 1454.257812v-29.804687"/><path d="M586.015625 1364.804688v-29.84375"/><path d="M586.015625 1334.960938v-29.804688"/><path d="M586.015625 1245.507812v-29.804687"/><path d="M586.015625 1215.703125v-29.804687"/><path d="M586.015625 1126.25v-29.84375"/><path d="M586.015625 1096.40625v-29.804688"/><path d="M586.015625 1006.953125v-29.804687"/><path d="M586.015625 977.148438V947.34375"/><path d="M586.015625 887.695312v-29.84375"/><path d="M586.015625 857.851562v-29.804687"/><path d="M586.015625 768.398438V738.59375"/><path d="M586.015625 738.59375v-29.804688"/><path d="M586.015625 649.140625v-29.804687"/><path d="M586.015625 619.335938v-29.84375"/><path d="M586.015625 529.84375v-29.804688"/><path d="M81.992188 500.039062h504.023437"/></g><use x="3.1609" y="158.259" href="#a"/><use x="8.8008" y="160.059" href="#e"/><use x="53.3215" y="159.6988" href="#b"/><use x="59.2012" y="161.4988" href="#e"/><g class="b"><path d="M81.992188 530.078125V470"/><path d="M586.015625 530.078125V470"/><path d="M333.984375 1332.34375v-27.734375"/><path d="M333.984375 1249.101562v-27.773437"/><path d="M333.984375 1221.328125v-27.734375"/><path d="M333.984375 1138.085938V1110.3125"/><path d="M333.984375 1110.3125v-27.734375"/><path d="M333.984375 1027.03125v-27.734375"/><path d="M333.984375 999.296875v-27.773437"/><path d="M333.984375 916.054688V888.28125"/><path d="M333.984375 888.28125v-27.773438"/><path d="M333.984375 805v-27.734375"/><path d="M333.984375 777.265625v-27.773437"/><path d="M333.984375 693.984375V666.25"/><path d="M333.984375 666.25v-27.773438"/><path d="M333.984375 582.96875v-27.734375"/><path d="M333.984375 555.234375v-27.773437"/><path d="M333.984375 471.953125v-27.773437"/><path d="M333.984375 444.179688v-27.734376"/><path d="M333.984375 360.9375v-27.773438"/><path d="M333.984375 333.164062h252.03125"/></g><use x="28.3602" y="174.9441" href="#a"/><use x="34" y="176.7441" href="#f"/><use x="53.3211" y="176.5039" href="#b"/><use x="59.2008" y="178.3039" href="#f"/><g class="b"><path d="M333.984375 363.203125v-60.039063"/><path d="M586.015625 363.203125v-60.039063"/><path d="M460 1460.117188v-29.414063"/><path d="M460 1371.875v-29.414062"/><path d="M460 1342.460938v-29.375"/><path d="M460 1254.257812v-29.375"/><path d="M460 1224.882812v-29.414062"/><path d="M460 1136.640625v-29.375"/><path d="M460 1107.265625v-29.414063"/><path d="M460 1019.023438v-29.375"/><path d="M460 989.648438v-29.414063"/><path d="M460 901.445312V872.03125"/><path d="M460 872.03125v-29.414062"/><path d="M460 783.828125v-29.414063"/><path d="M460 754.414062V725"/><path d="M460 666.210938v-29.414063"/><path d="M460 636.796875v-29.414063"/><path d="M460 548.59375v-29.414062"/><path d="M460 519.179688v-29.414063"/><path d="M460 430.976562V401.5625"/><path d="M460 401.5625v-29.414062"/><path d="M460 313.359375v-29.414063"/><path d="M460 283.945312v-29.375"/><path d="M460 195.742188v-29.414063"/><path d="M460 166.328125h126.015625"/></g><use x="40.9609" y="191.6289" href="#a"/><use x="46.6007" y="193.4289" href="#g"/><use x="53.3214" y="193.0688" href="#b"/><use x="59.2011" y="194.8688" href="#g"/><g style="stroke-width:3.985;stroke:#000;stroke-miterlimit:10;transform:matrix(.1,0,0,-.1,0,198)"><g class="a"><path d="M460 196.367188v-60.078126"/><path d="M586.015625 196.367188v-60.078126"/><path d="M503.789062 1667.96875v-57.773438"/></g><path d="M505.78125 1581.328125c0 1.09375-.898438 1.992187-1.992188 1.992187s-1.992187-.898437-1.992187-1.992187.898437-1.992187 1.992187-1.992187 1.992188.898437 1.992188 1.992187zm0 0"/><path d="M503.789062 1552.460938V1494.6875" class="a"/><path d="M505.78125 1465.820312c0 1.09375-.898438 1.992188-1.992188 1.992188s-1.992187-.898438-1.992187-1.992188.898437-1.992187 1.992187-1.992187 1.992188.898437 1.992188 1.992187zm0 0"/><path d="M503.789062 1436.953125v-57.773437" class="a"/><path d="M505.78125 1350.3125c0 1.09375-.898438 1.992188-1.992188 1.992188s-1.992187-.898438-1.992187-1.992188.898437-1.992188 1.992187-1.992188 1.992188.898438 1.992188 1.992188zm0 0"/><path d="M503.789062 1321.445312v-57.773437" class="a"/><path d="M505.78125 1234.804688c0 1.09375-.898438 1.992187-1.992188 1.992187s-1.992187-.898437-1.992187-1.992187.898437-1.992188 1.992187-1.992188 1.992188.898438 1.992188 1.992188zm0 0"/><path d="M503.789062 1205.9375v-57.773438" class="a"/><path d="M505.78125 1119.296875c0 1.09375-.898438 1.992187-1.992188 1.992187s-1.992187-.898437-1.992187-1.992187.898437-1.992187 1.992187-1.992187 1.992188.898437 1.992188 1.992187zm0 0"/><path d="M503.789062 1090.390625v-57.734375" class="a"/><path d="M505.78125 1003.789062c0 1.09375-.898438 1.992188-1.992188 1.992188s-1.992187-.898438-1.992187-1.992188.898437-1.992187 1.992187-1.992187 1.992188.898437 1.992188 1.992187zm0 0"/><path d="M503.789062 974.882812v-57.734374" class="a"/><path d="M505.78125 888.28125c0 1.09375-.898438 1.992188-1.992188 1.992188s-1.992187-.898438-1.992187-1.992188.898437-1.992188 1.992187-1.992188 1.992188.898438 1.992188 1.992188zm0 0"/><path d="M503.789062 859.414062v-57.773437" class="a"/><path d="M505.78125 772.773438c0 1.09375-.898438 1.992187-1.992188 1.992187s-1.992187-.898437-1.992187-1.992187c0-1.132813.898437-1.992188 1.992187-1.992188s1.992188.859375 1.992188 1.992188zm0 0"/><path d="M503.789062 743.90625v-57.773438" class="a"/><path d="M505.78125 657.265625c0 1.09375-.898438 1.992187-1.992188 1.992187s-1.992187-.898437-1.992187-1.992187c0-1.132813.898437-1.992187 1.992187-1.992187s1.992188.859374 1.992188 1.992187zm0 0"/><path d="M503.789062 628.398438V570.625" class="a"/><path d="M505.78125 541.757812c0 1.09375-.898438 1.953126-1.992188 1.953126s-1.992187-.859376-1.992187-1.953126c0-1.132812.898437-1.992187 1.992187-1.992187s1.992188.859375 1.992188 1.992187zm0 0"/><path d="M503.789062 512.851562v-57.734374" class="a"/><path d="M505.78125 426.25c0 1.09375-.898438 1.992188-1.992188 1.992188s-1.992187-.898438-1.992187-1.992188.898437-1.992188 1.992187-1.992188 1.992188.898438 1.992188 1.992188zm0 0"/><path d="M503.789062 397.34375v-57.734375" class="a"/><path d="M505.78125 310.742188c0 1.09375-.898438 1.953124-1.992188 1.953124s-1.992187-.859374-1.992187-1.953124.898437-1.992188 1.992187-1.992188 1.992188.898438 1.992188 1.992188zm0 0"/><path d="M503.789062 281.835938v-57.734376" class="a"/><path d="M505.78125 195.195312c0 1.132813-.898438 1.992188-1.992188 1.992188s-1.992187-.859375-1.992187-1.992188c0-1.09375.898437-1.953124 1.992187-1.953124s1.992188.859374 1.992188 1.953124zm0 0"/></g><use x="47.857" y="27.291" href="#h"/><path d="M10 938.164062l53.984375 72.304688 54.023437 69.609375 54.023438 66.992187 53.984375 64.375L280 1273.203125l53.984375 59.140625 54.023437 56.523438 54.023438 53.867187 53.984375 51.210937L550 1542.578125l53.984375 45.976563 54.023437 43.359374 54.023438 40.742188 53.984375 38.085938L820 1746.210938l54.023438 32.851562 53.984374 30.234375 54.023438 27.617187 53.984375 24.960938 54.023437 22.34375 53.984376 19.6875 53.984374 17.070312 54.023438 14.453126 53.984375 11.835937 54.023437 9.179687 53.984376 6.601563 53.984374 3.90625 54.023438 1.328125 53.984375-1.328125 54.023437-3.90625 53.984376-6.601563 53.984374-9.179687 54.023438-11.835937 53.984375-14.453126 54.023437-17.070312 53.984376-19.6875 53.984374-22.34375 54.023438-24.960938 53.984375-27.617187 54.023437-30.234375" style="fill:none;stroke-width:7.9701;stroke:#000;stroke-miterlimit:10;transform:matrix(.1,0,0,-.1,0,198)"/><style>.a{fill:none}.b{fill:none;stroke:#000;stroke-miterlimit:10;stroke-width:3.985;transform:matrix(.1,0,0,-.1,0,198)}</style></svg>