<svg xmlns="http://www.w3.org/2000/svg" width="196pt" height="107pt" viewBox="0 0 196 107"><defs><path d="M3.2344.0313v-.3594l-.5469-.0313C2.28125-.375 2.25-.46875 2.25-1.21875V-5.5625l-.1094-.0469c-.609375.25-1.234375.421875-1.859375.5v.3281h.4375c.46875 0 .53125.078125.53125.875v2.6875c0 .75-.046875.84375-.453125.859375L.25-.3281v.3594C.75.015625 1.25 0 1.75 0s.984375.015625 1.484375.03125zm-.8906-7.6407c0-.34375-.234375-.609375-.59375-.609375s-.609375.25-.609375.609375.25.59375.609375.59375.59375-.234375.59375-.59375zm0 0" id="f"/><path d="M6.8438.0313v-.3594l-.5-.0312c-.40625-.015625-.4375-.09375-.4375-.859375v-2.3125c0-1.390625-.65625-2.078125-2-2.078125-.4375 0-.6875.09375-.9375.296875l-.9062.7969V-5.5625l-.1094-.0469c-.609375.25-1.234375.421875-1.875.5v.3281h.4531c.46875 0 .515625.078125.515625.875v2.6875c0 .75-.03125.84375-.4375.859375l-.5312.0313V.0313C.5625.015625 1.0625 0 1.546875 0c.5 0 1 .015625 1.484375.03125v-.3594L2.5-.3594c-.40625-.0156-.4375-.10935-.4375-.85935V-3.75c0-.546875.78125-1.125 1.515625-1.125.796875 0 1.328125.59375 1.328125 1.515625V.0313c.3125-.015675.625-.0313.9375-.0313.34375 0 .65625.015625 1 .03125zm0 0" id="g"/><path d="M4.0781-7.6562v-.9219c-.25-.09375-.390625-.125-.546875-.125-.390625 0-.8125.203125-1.0625.5l-.7031.7969c-.34375.390625-.5.921875-.5 1.71875v.5l-.8281.375v.2656l.8281-.0625v3.3906c0 .75-.03125.84375-.4375.859375l-.5469.0313V.0313C.78125.015625 1.265625 0 1.765625 0s1 .015625 1.5.03125v-.3594l-.5469-.0312c-.406225-.01565-.4531-.1094-.4531-.8594v-3.3906H3.75l.0938-.625c-.53125.03125-1.046875.046875-1.578125.046875v-1.0156c0-1.375.15625-1.703125.84375-1.703125.328125 0 .53125.078125.828125.328125zm0 0" id="h"/><path d="M4.6719-1.7656c0-.375-.09375-.65625-.328125-.890625-.3125-.3125-.703125-.4375-1.765625-.640625-.96875-.1875-1.296875-.4375-1.296875-.984375 0-.59375.421875-.9375 1.140625-.9375.8125 0 1.421875.421875 1.421875.984375v.2813h.3281c.015625-.703125.03125-.984375.0625-1.359375-.640625-.203125-1.0625-.296875-1.5625-.296875-1.375 0-2.234375.65625-2.234375 1.734375 0 .578125.265625.984375.8125 1.234375.328125.140625.96875.328125 1.78125.515625.53125.109375.765625.375.765625.828125 0 .640625-.609375 1.09375-1.453125 1.09375-.875 0-1.5-.421875-1.5-1.015625v-.4844H.4844c0 .8125-.03125 1.171875-.125 1.65625.625.203125 1.09375.28125 1.640625.28125 1.5625 0 2.671875-.828125 2.671875-2zm0 0" id="i"/><path d="M6.9375.0313v-.3594l-.4844-.0312c-.40625-.015625-.4375-.09375-.4375-.859375V-5.5625l-.1094-.0469c-.609375.25-1.234375.421875-1.859375.5v.3281h.4375c.46875 0 .53125.078125.53125.875v1.9531c0 .25-.171875.59375-.453125.859375-.328125.34375-.71875.515625-1.1875.515625-.40625 0-.75-.140625-.9375-.359375-.171875-.203125-.25-.5625-.25-1.09375V-5.5625l-.1094-.0469c-.609375.25-1.234375.421875-1.859375.5v.3281h.4375c.484375 0 .53125.078125.53125.875v2c0 .84375.0625 1.21875.28125 1.515625.265625.359375.71875.53125 1.40625.53125.53125 0 1.015625-.171875 1.328125-.46875l.8125-.7344c0 .34375-.015625.53125-.0625 1.09375C5.296875.015625 5.625 0 5.953125 0s.65625.015625.984375.03125zm0 0" id="j"/><path d="M6.625-3.2344c0-1.328125-1.109375-2.375-2.484375-2.375-.453125 0-.875.125-1.0625.296875l-.9844.9063V-5.5625l-.1094-.0469C1.375-5.359375.75-5.1875.125-5.109375v.3281h.4375c.484375 0 .53125.078125.53125.875v6.0156c0 .75-.046875.828125-.453125.859375L.0938 3v.3594c.5-.03125 1-.03125 1.5-.03125s.984375 0 1.484375.03125V3l-.5469-.0312c-.40625-.03125-.4375-.109375-.4375-.859375V-.1562c.359375.21875.734375.296875 1.28125.296875.34375 0 .65625-.0625.84375-.1875L5.5781-.9375C6.0625-1.25 6.625-2.46875 6.625-3.234375zm-1.0469.4375c0 1.34375-.796875 2.328125-1.875 2.328125-.65625 0-1.140625-.21875-1.609375-.703125v-2.4843c0-.171875.0625-.296875.21875-.5.34375-.453125.828125-.671875 1.421875-.671875 1.125 0 1.84375.78125 1.84375 2.03125zm0 0" id="k"/><path d="M4.9375-8.6094c-.203125-.09375-.546875-.15625-.84375-.15625-.125 0-.3125.046875-.40625.09375-.296875.125-1.265625.859375-1.546875 1.140625-.265625.265625-.40625.625-.53125 1.296875l-.1875.9531C.9375-5.046925.6875-4.953175.390625-4.8438l-.0625.2656h.9688l-.1094.672C.828125-1.578125.390625.640625.125 1.46875c-.21875.703125-.5625 1.078125-1 1.078125-.265625 0-.421875-.078125-.625-.34375L-1.6562 2.25c-.046875.265625-.21875.84375-.28125.953125.109375.0625.28125.09375.421875.09375.484375 0 1.140625-.375 1.59375-.9375C.8125 1.5 1.0625.6875 1.953125-3.53125c.0625-.296875.15625-.65625.21875-1.046875h1.25c.046875-.234375.125-.5.203125-.671875l-.0469-.0781-.0937.0156c-.28125.09375-.40625.09375-1 .09375h-.1875l.25-1.3437c.1875-1.03125.53125-1.484375 1.078125-1.484375.359375 0 .671875.1875.859375.46875l.125-.0469zm0 0" id="b"/><path d="M8.8594-5.1562c0-1.171875-.359375-2-1.09375-2.515625-.546875-.390625-1.6875-.59375-2.703125-.59375-.8125 0-1.625.03125-2.4375.03125-.484375 0-.96875-.015625-1.46875-.03125L1.125-7.9375l.625.0313c.296875 0 .421875.09375.421875.3125 0 .171875-.046875.546875-.109375.90625L1.0313-.6562C.984375-.375.625-.328125.390625-.28125l-.0625.3125c.375-.015625.75-.03125 1.125-.03125C2.21875 0 3 .03125 3.78125.03125c.859375 0 1.4375-.125 2.0625-.4375 1.859375-.953125 3.015625-2.765625 3.015625-4.75zM7.75-4.9531c0 1.390625-.453125 2.640625-1.265625 3.46875-.640625.65625-1.515625 1-2.546875 1-.53125 0-1.109375-.0625-1.921875-.1875 0-.140625 0-.21875.046875-.4375l1.1406-6.6562c.46875 0 .921875-.0625 1.390625-.0625 2.171875 0 3.15625.90625 3.15625 2.875zm0 0" id="a"/><path d="M10.75.0313l.0313-.3281-.4375-.0312C9.90625-.375 9.6875-.5 9.6875-.75l.0156-.4375.5-6.3594c0-.21875.203125-.34375.546875-.359375l.4531-.0312.0313-.3281c-.328125.015625-.671875.03125-1 .03125-.34375 0-.671875-.015625-1-.03125-.21875.4375 0 .109375-1.015625 1.859375l-2.9375 5.0469-1.7969-6.9062c-.328125.015625-.65625.03125-1 .03125-.328125 0-.671875-.015625-.984375-.03125l-.0469.3281.3125.0313c.625.046875.84375.15625.84375.46875 0 .078125-.015625.15625-.046875.234375L.8438-1.1094c-.1875.625-.375.78125-1.03125.828125l-.0469.3125C.21875.015625.671875 0 1.109375 0S2 .015625 2.421875.03125l.0469-.3281-.4531-.0312c-.390675-.04695-.5938-.156325-.5938-.3282 0-.125.03125-.28125.078125-.484375L2.9844-6.6875 4.7656.2188h.2813l.6719-1.25 2.8594-4.9375.625-1.0469-.4375 6.2188c-.03125.328125-.1875.40625-.8125.46875l-.3594.0313-.0469.3281C8.09375.015625 8.625 0 9.15625 0s1.0625.015625 1.59375.03125zm0 0" id="e"/><path d="M3.6406-9.0312C1.8125-7.84375.71875-5.796875.71875-3.234375c0 2.34375 1.140625 4.578125 2.875 5.78125L3.75 2.3438C2.09375.90625 1.8125-.484375 1.8125-3.28125 1.8125-6.0625 2.125-7.5 3.75-8.828125zm0 0" id="c"/><path d="M.5-9.0312l-.125.2031C2.015625-7.5 2.328125-6.0625 2.328125-3.28125c0 2.796875-.28125 4.1875-1.953125 5.625l.1563.2031c1.75-1.203125 2.890625-3.4375 2.890625-5.78125C3.421875-5.796875 2.3125-7.84375.5-9.03125zm0 0" id="d"/><path d="M7.2188-2.875v-.7031H.7813v.7031zm0 0" id="l"/></defs><g stroke-miterlimit="10" transform="matrix(.1 0 0 -.1 0 107)"><g class="a"><g stroke-width="3.985" stroke="#b2b2b2"><path d="M8.007812 583.59375H1952.03125"/><path d="M891.640625 115.585938v936.015624"/></g><g stroke="#000"><g stroke-width="11.9553"><path d="M891.640625 358.476562V859.375"/><path d="M1009.453125 583.59375h765.820313"/></g><path stroke-width="3.985" d="M302.539062 999.609375H340.3125"/></g></g><g stroke-width="3.985" stroke="#000"><path d="M361.171875 999.609375c0 1.09375-.898437 1.992187-1.992187 1.992187s-1.992188-.898437-1.992188-1.992187.898438-1.992187 1.992188-1.992187 1.992187.898437 1.992187 1.992187zm0 0"/><g class="a"><path d="M378.085938 999.609375h37.773437"/><path d="M415.859375 999.609375h37.734375"/></g><path d="M474.453125 999.609375c0 1.09375-.859375 1.992187-1.992187 1.992187-1.054688 0-1.953126-.898437-1.953126-1.992187s.898438-1.992187 1.953126-1.992187c1.132812 0 1.992187.898437 1.992187 1.992187zm0 0"/><g class="a"><path d="M491.367188 999.609375h37.734374"/><path d="M529.101562 999.609375H566.875"/></g><path d="M587.773438 999.609375c0 1.09375-.898438 1.992187-1.992188 1.992187s-1.992188-.898437-1.992188-1.992187.898438-1.992187 1.992188-1.992187 1.992188.898437 1.992188 1.992187zm0 0"/><g class="a"><path d="M604.648438 999.609375h37.773437"/><path d="M642.421875 999.609375h37.773437"/></g><path d="M701.054688 999.609375c0 1.09375-.898438 1.992187-1.992188 1.992187s-1.992188-.898437-1.992188-1.992187.898438-1.992187 1.992188-1.992187 1.992188.898437 1.992188 1.992187zm0 0"/><g class="a"><path d="M717.929688 999.609375h37.773437"/><path d="M755.703125 999.609375h37.773437"/></g><path d="M814.335938 999.609375c0 1.09375-.898438 1.992187-1.992188 1.992187s-1.992188-.898437-1.992188-1.992187.898438-1.992187 1.992188-1.992187 1.992188.898437 1.992188 1.992187zm0 0"/><g class="a"><path d="M831.210938 999.609375h37.773437"/><path d="M868.984375 999.609375h37.773437"/></g><path d="M927.617188 999.609375c0 1.09375-.898438 1.992187-1.992188 1.992187s-1.992188-.898437-1.992188-1.992187.898438-1.992187 1.992188-1.992187 1.992188.898437 1.992188 1.992187zm0 0"/><g class="a"><path d="M944.53125 999.609375h37.734375"/><path d="M982.265625 999.609375h37.773437"/></g><path d="M1040.898438 999.609375c0 1.09375-.859376 1.992187-1.953126 1.992187-1.132812 0-1.992187-.898437-1.992187-1.992187s.859375-1.992187 1.992187-1.992187c1.09375 0 1.953126.898437 1.953126 1.992187zm0 0"/><g class="a"><path d="M1057.8125 999.609375h37.734375"/><path d="M1095.546875 999.609375h37.773437"/></g><path d="M1154.21875 999.609375c0 1.09375-.9375 1.992187-1.992188 1.992187-1.132812 0-1.992187-.898437-1.992187-1.992187s.859375-1.992187 1.992187-1.992187c1.054688 0 1.992188.898437 1.992188 1.992187zm0 0"/><g class="a"><path d="M1171.09375 999.609375h37.773438"/><path d="M1208.867188 999.609375h37.734374"/></g><path d="M1267.5 999.609375c0 1.09375-.898438 1.992187-1.992188 1.992187s-1.992187-.898437-1.992187-1.992187.898437-1.992187 1.992187-1.992187 1.992188.898437 1.992188 1.992187zm0 0"/><g class="a"><path d="M1284.375 999.609375h37.773438"/><path d="M1322.148438 999.609375h37.773437"/></g><path d="M1380.78125 999.609375c0 1.09375-.898438 1.992187-1.992188 1.992187s-1.992187-.898437-1.992187-1.992187.898437-1.992187 1.992187-1.992187 1.992188.898437 1.992188 1.992187zm0 0"/><g class="a"><path d="M1397.65625 999.609375h37.773438"/><path d="M1435.429688 999.609375h37.773437"/></g><path d="M1494.0625 999.609375c0 1.09375-.898438 1.992187-1.992188 1.992187s-1.992187-.898437-1.992187-1.992187.898437-1.992187 1.992187-1.992187 1.992188.898437 1.992188 1.992187zm0 0"/><g class="a"><path d="M1510.976562 999.609375h37.734376"/><path d="M1548.710938 999.609375h37.773437"/></g><path d="M1607.34375 999.609375c0 1.09375-.898438 1.992187-1.992188 1.992187s-1.953124-.898437-1.953124-1.992187.859374-1.992187 1.953124-1.992187 1.992188.898437 1.992188 1.992187zm0 0"/><g class="a"><path d="M1624.257812 999.609375h37.734376"/><path d="M1661.992188 999.609375h37.773437"/></g><path d="M1720.625 999.609375c0 1.09375-.859375 1.992187-1.992188 1.992187-1.09375 0-1.992187-.898437-1.992187-1.992187s.898437-1.992187 1.992187-1.992187c1.132813 0 1.992188.898437 1.992188 1.992187zm0 0"/><g class="a"><path d="M1737.539062 999.609375h37.734376"/><path d="M302.539062 167.617188H340.3125"/></g><path d="M361.171875 167.617188c0 1.09375-.898437 1.992187-1.992187 1.992187s-1.992188-.898437-1.992188-1.992187c0-1.132813.898438-1.992188 1.992188-1.992188s1.992187.859375 1.992187 1.992188zm0 0"/><g class="a"><path d="M378.085938 167.617188h37.773437"/><path d="M415.859375 167.617188h37.734375"/></g><path d="M474.453125 167.617188c0 1.09375-.859375 1.992187-1.992187 1.992187-1.054688 0-1.953126-.898437-1.953126-1.992187 0-1.132813.898438-1.992188 1.953126-1.992188 1.132812 0 1.992187.859375 1.992187 1.992188zm0 0"/><g class="a"><path d="M491.367188 167.617188h37.734374"/><path d="M529.101562 167.617188H566.875"/></g><path d="M587.773438 167.617188c0 1.09375-.898438 1.992187-1.992188 1.992187s-1.992188-.898437-1.992188-1.992187c0-1.132813.898438-1.992188 1.992188-1.992188s1.992188.859375 1.992188 1.992188zm0 0"/><g class="a"><path d="M604.648438 167.617188h37.773437"/><path d="M642.421875 167.617188h37.773437"/></g><path d="M701.054688 167.617188c0 1.09375-.898438 1.992187-1.992188 1.992187s-1.992188-.898437-1.992188-1.992187c0-1.132813.898438-1.992188 1.992188-1.992188s1.992188.859375 1.992188 1.992188zm0 0"/><g class="a"><path d="M717.929688 167.617188h37.773437"/><path d="M755.703125 167.617188h37.773437"/></g><path d="M814.335938 167.617188c0 1.09375-.898438 1.992187-1.992188 1.992187s-1.992188-.898437-1.992188-1.992187c0-1.132813.898438-1.992188 1.992188-1.992188s1.992188.859375 1.992188 1.992188zm0 0"/><g class="a"><path d="M831.210938 167.617188h37.773437"/><path d="M868.984375 167.617188h37.773437"/></g><path d="M927.617188 167.617188c0 1.09375-.898438 1.992187-1.992188 1.992187s-1.992188-.898437-1.992188-1.992187c0-1.132813.898438-1.992188 1.992188-1.992188s1.992188.859375 1.992188 1.992188zm0 0"/><g class="a"><path d="M944.53125 167.617188h37.734375"/><path d="M982.265625 167.617188h37.773437"/></g><path d="M1040.898438 167.617188c0 1.09375-.859376 1.992187-1.953126 1.992187-1.132812 0-1.992187-.898437-1.992187-1.992187 0-1.132813.859375-1.992188 1.992187-1.992188 1.09375 0 1.953126.859375 1.953126 1.992188zm0 0"/><g class="a"><path d="M1057.8125 167.617188h37.734375"/><path d="M1095.546875 167.617188h37.773437"/></g><path d="M1154.21875 167.617188c0 1.09375-.9375 1.992187-1.992188 1.992187-1.132812 0-1.992187-.898437-1.992187-1.992187 0-1.132813.859375-1.992188 1.992187-1.992188 1.054688 0 1.992188.859375 1.992188 1.992188zm0 0"/><g class="a"><path d="M1171.09375 167.617188h37.773438"/><path d="M1208.867188 167.617188h37.734374"/></g><path d="M1267.5 167.617188c0 1.09375-.898438 1.992187-1.992188 1.992187s-1.992187-.898437-1.992187-1.992187c0-1.132813.898437-1.992188 1.992187-1.992188s1.992188.859375 1.992188 1.992188zm0 0"/><g class="a"><path d="M1284.375 167.617188h37.773438"/><path d="M1322.148438 167.617188h37.773437"/></g><path d="M1380.78125 167.617188c0 1.09375-.898438 1.992187-1.992188 1.992187s-1.992187-.898437-1.992187-1.992187c0-1.132813.898437-1.992188 1.992187-1.992188s1.992188.859375 1.992188 1.992188zm0 0"/><g class="a"><path d="M1397.65625 167.617188h37.773438"/><path d="M1435.429688 167.617188h37.773437"/></g><path d="M1494.0625 167.617188c0 1.09375-.898438 1.992187-1.992188 1.992187s-1.992187-.898437-1.992187-1.992187c0-1.132813.898437-1.992188 1.992187-1.992188s1.992188.859375 1.992188 1.992188zm0 0"/><g class="a"><path d="M1510.976562 167.617188h37.734376"/><path d="M1548.710938 167.617188h37.773437"/></g><path d="M1607.34375 167.617188c0 1.09375-.898438 1.992187-1.992188 1.992187s-1.953124-.898437-1.953124-1.992187c0-1.132813.859374-1.992188 1.953124-1.992188s1.992188.859375 1.992188 1.992188zm0 0"/><g class="a"><path d="M1624.257812 167.617188h37.734376"/><path d="M1661.992188 167.617188h37.773437"/></g><path d="M1720.625 167.617188c0 1.09375-.859375 1.992187-1.992188 1.992187-1.09375 0-1.992187-.898437-1.992187-1.992187 0-1.132813.898437-1.992188 1.992187-1.992188 1.132813 0 1.992188.859375 1.992188 1.992188zm0 0"/><g class="a"><path d="M1737.539062 167.617188h37.734376"/><path d="M832.734375 358.476562H862.1875"/><path d="M921.09375 358.476562h29.453125"/><path d="M950.546875 358.476562h29.492187"/><path d="M1038.945312 358.476562h29.453126"/><path d="M1068.398438 358.476562h29.453124"/><path d="M1156.71875 358.476562h29.453125"/><path d="M1186.171875 358.476562h29.492187"/><path d="M1274.570312 358.476562h29.453126"/><path d="M1304.023438 358.476562h29.453124"/><path d="M1392.382812 358.476562h29.453126"/><path d="M1421.835938 358.476562h29.453124"/><path d="M1510.195312 358.476562h29.453126"/><path d="M1539.648438 358.476562h29.453124"/><path d="M1628.007812 358.476562h29.453126"/><path d="M1657.460938 358.476562h29.453124"/><path d="M1745.859375 358.476562h29.414063"/><path d="M832.734375 859.375H862.1875"/><path d="M921.09375 859.375h29.453125"/><path d="M950.546875 859.375h29.492187"/><path d="M1038.945312 859.375h29.453126"/><path d="M1068.398438 859.375h29.453124"/><path d="M1156.71875 859.375h29.453125"/><path d="M1186.171875 859.375h29.492187"/><path d="M1274.570312 859.375h29.453126"/><path d="M1304.023438 859.375h29.453124"/><path d="M1392.382812 859.375h29.453126"/><path d="M1421.835938 859.375h29.453124"/><path d="M1510.195312 859.375h29.453126"/><path d="M1539.648438 859.375h29.453124"/><path d="M1628.007812 859.375h29.453126"/><path d="M1657.460938 859.375h29.453124"/><path d="M1745.859375 859.375h29.414063"/></g></g></g><use x="37.048" y="74.032" href="#f"/><use x="40.5281" y="74.032" href="#g"/><use x="47.4882" y="74.032" href="#h"/><use x="55.4082" y="74.032" href="#b"/><use x="60.9281" y="74.032" href="#c"/><use x="65.248" y="74.032" href="#a"/><use x="75.2082" y="74.032" href="#d"/><use x="32.1281" y="23.9414" href="#i"/><use x="37.1679" y="23.9414" href="#j"/><use x="44.3679" y="23.9414" href="#k"/><use x="55.4082" y="23.9414" href="#b"/><use x="60.9281" y="23.9414" href="#c"/><use x="65.248" y="23.9414" href="#a"/><use x="75.2082" y="23.9414" href="#d"/><use x="16.2625" y="11.1184" href="#e"/><use x="7.7426" y="94.32" href="#l"/><use x="16.2625" y="94.32" href="#e"/><g class="b"><path d="M891.640625 859.375l-1.445313-.039062-1.40625-.117188-1.40625-.195312-1.367187-.3125-1.289063-.3125-1.328124-.46875-1.25-.507813-1.210938-.585937-1.210938-.664063-1.171874-.742187-1.171876-.78125-1.09375-.859376-1.09375-.9375-1.054687-1.015624-1.054687-1.054688-.976563-1.132812-1.015625-1.171876-.9375-1.25-.9375-1.328124-.898438-1.367188-.898437-1.40625-.859375-1.484375-.859375-1.523437-.820313-1.5625-.820312-1.640626-.742188-1.679687-.78125-1.71875-.742187-1.757813-.742187-1.835937-.703126-1.835937-.703124-1.914063-.664063-1.914063-.664063-1.992187-1.25-4.0625-.625-2.109375-.585937-2.109375-.625-2.148437-.546875-2.1875-.585938-2.226563-.546874-2.226563-.507813-2.265624L852.5 800.625l-.507812-2.304688-.546876-2.34375-.46875-2.34375-1.015624-4.765624-.429688-2.421876-.507812-2.421874-.46875-2.460938-.46875-2.421875-.429688-2.5-.46875-2.460937-.46875-2.5-.429688-2.460938-.429687-2.5-.46875-2.5-.859375-5-.46875-2.539062-.859375-5-.46875-2.5-.429687-2.460938-.46875-2.5-.429688-2.460938L840 734.375l-.46875-2.421875-.46875-2.382813-.507812-2.421874-.46875-2.382813-1.015626-4.6875-.546874-2.304687-.507813-2.304688-.546875-2.265625L834.375 708.75l-.585938-2.1875-.585937-2.148438-.585937-2.109374-.625-2.109376-.625-2.03125-.664063-2.03125-1.328125-3.90625-.703125-1.914062-1.40625-3.671875-.78125-1.757813-.742187-1.71875-.78125-1.679687-.820313-1.601563-.78125-1.601562-.859375-1.523438-.859375-1.484374-.898437-1.40625-.9375-1.367188-.898438-1.289062-.976562-1.25-.976563-1.210938-2.03125-2.1875-1.054687-.976562-1.09375-.9375-1.132813-.859376-1.132813-.820312-1.171874-.742188-1.210938-.664062-1.25-.585938-1.25-.507812-1.289062-.429688-1.328126-.351562-1.367187-.3125-1.367187-.195312-1.40625-.117188-1.484376-.039062"/><path d="M891.640625 358.476562l-1.445313.039063-1.40625.195313-1.40625.3125-1.367187.429687L884.726562 360l-1.328124.664062-1.25.742188-1.210938.898438-1.210938.976562-1.171874 1.09375-1.171876 1.210938-1.09375 1.289062-1.09375 1.40625-1.054687 1.523438-1.054687 1.601562-.976563 1.679688-1.015625 1.757812-1.875 3.828125-.898438 2.070313-.898437 2.109374-.859375 2.226563-.859375 2.265625-.820313 2.382812-.820312 2.460938-.742188 2.5-.78125 2.578125-.742187 2.65625-.742187 2.734375-.703126 2.773438-.703124 2.851562-.664063 2.890625-.664063 2.96875-.625 3.046875-.625 3.085938-.625 3.125-.585937 3.164062-.625 3.242188-.546875 3.28125-.585938 3.320312-.546874 3.359375-.507813 3.398437-.546875 3.4375-.507812 3.476563-.546876 3.476563-.46875 3.554687-.507812 3.554687-.507812 3.59375-.429688 3.632813-.507812 3.632813-.9375 7.34375-.429688 3.710937L846.71875 490l-.859375 7.5-.46875 3.710938L844.960938 505l-.429688 3.75-.46875 3.75-.859375 7.5-.46875 3.75-.429687 3.75-.46875 3.710938-.429688 3.710937-.46875 3.710937-.9375 7.34375-.9375 7.265626-.507812 3.59375-.46875 3.554687-.507813 3.554687-.507813 3.476563-.546874 3.476563-.507813 3.4375-.546875 3.398437-.546875 3.359375-.546875 3.320312-.585938 3.28125-.585937 3.242188-.585937 3.164062-.625 3.125-.625 3.085938-.664063 3.007812-.664063 2.96875-.664062 2.929688-.703125 2.851562-.703125 2.773438-.703125 2.734375-.78125 2.65625-.742187 2.578125-.78125 2.5-1.601563 4.804688-.859375 2.304687-.859375 2.226563-.898437 2.109374-.9375 2.070313-.898438 1.953125-.976562 1.835938-.976563 1.796874-1.015625 1.679688-1.015625 1.601562-1.054687 1.484376-1.09375 1.445312-1.132813 1.289062-1.132813 1.210938-1.171874 1.054688-1.210938 1.015624-1.25.859376-1.25.78125-1.289062.664062-1.328126.546875-1.367187.429687-1.367187.3125-1.40625.15625-1.484376.078126"/></g><use x="53.8672" y="43.9781" href="#b"/><use x="59.3871" y="43.9781" href="#c"/><use x="63.707" y="43.9781" href="#a"/><use x="73.6672" y="43.9781" href="#d"/><g class="b"><path d="M1775.273438 583.59375l-.117188-1.25-.351562-1.289062-.585938-1.171876-.78125-1.210937-1.054688-1.09375-1.25-1.132813-1.484374-1.09375-1.679688-1.015624-1.875-1.015626-2.109375-.976562-2.304687-.9375-2.460938-.9375-2.695312-.859375-2.851563-.859375-3.046875-.859375-3.242188-.78125-3.398437-.78125-3.59375-.742187-3.75-.703126-3.90625-.703124-4.0625-.664063-4.21875-.664063-4.375-.625-4.53125-.585937-4.648437-.585937-4.804688-.546876-4.960938-.546874-5.078124-.507813-5.15625-.46875-5.351563-.46875-5.429687-.46875-5.585938-.429687-5.664062-.429688-5.78125-.390625-5.859376-.390625-6.015624-.351562-6.054688-.390626-6.171875-.3125-6.25-.3125-6.367187-.3125-6.40625-.3125-6.484376-.273437-13.203124-.546875-6.71875-.234375-6.757813-.234375-13.671875-.46875-6.914062-.195312-6.992188-.234376-6.992188-.195312-7.03125-.195312-14.140624-.390626-7.109376-.15625-7.148437-.15625-7.148437-.195312-14.375-.3125-7.148438-.15625-7.1875-.195312-7.1875-.117188-7.148438-.195312-7.1875-.15625-7.109374-.15625-7.148438-.15625-7.070312-.195313-7.070313-.15625-7.03125-.195313-6.992187-.15625-6.953126-.195312-6.914062-.195312-6.875-.195313-6.835938-.195313-6.757812-.195312-6.679688-.234375-6.640624-.234375-6.601563-.195312L1356.25 546.875l-6.40625-.234375-6.367188-.273437-6.25-.273438-6.171874-.273438-6.054688-.3125-6.015625-.3125-5.859375-.351562-5.78125-.3125-5.664062-.390625-5.585938-.351563-5.429688-.390624-5.3125-.429688-5.195312-.429688-5.078125-.429687-4.921875-.46875-4.84375-.46875-4.648438-.507813-4.53125-.507812-4.375-.546875-4.21875-.546875-4.0625-.585938-3.90625-.625-3.75-.625-3.554687-.664062-3.4375-.664062-3.203125-.703126-3.085938-.742187-2.851562-.742187-2.695312-.78125-2.460938-.820313-2.304688-.820313-2.070312-.898437-1.914062-.898437-1.679688-.898438-1.484375-.976562-1.25-.976563-1.015625-1.015625-.820312-1.054688-.585938-1.09375-.351562-1.132812-.117188-1.132812"/><path d="M1009.453125 583.59375l.039063-1.25.15625-1.289062.15625-1.171876.3125-1.210937.3125-1.09375.429687-1.132813.507813-1.09375.546874-1.015624.625-1.015626.703126-.976562.742187-.9375.820313-.9375.898437-.859375.976563-.859375 1.015624-.859375 1.09375-.78125 1.132813-.78125 1.171875-.742187 1.25-.703126 1.328125-.703124L1025 563.515625l1.40625-.664063 1.484375-.625 1.484375-.585937 1.5625-.585937 1.601562-.546876 1.640626-.546874 1.679687-.507813 3.515625-.9375 1.835938-.46875 1.835937-.429687 1.914063-.429688 1.914062-.390625 1.953125-.390625 1.992187-.351562 2.03125-.390626 4.140626-.625 2.109374-.3125 2.148438-.3125 2.148438-.273437 2.1875-.273437 2.226562-.273438 2.226562-.234375 4.53125-.46875 2.304688-.234375 2.304688-.195312 2.304687-.234376 7.03125-.585937 2.382813-.195313 2.34375-.15625 2.382812-.15625 2.382812-.195312 2.421876-.15625 4.765624-.3125 2.382813-.195312L1110 550.15625l2.382812-.195312 4.765626-.3125 2.34375-.15625 2.382812-.195313 2.34375-.15625 2.34375-.195313 2.34375-.15625 6.914062-.585937 4.53125-.390625 4.453126-.46875 2.1875-.195312 2.148437-.273438 2.148437-.234375 2.109376-.273437 4.140624-.546876 2.03125-.3125 1.992188-.3125 1.953125-.351562 1.953125-.3125 1.875-.390625 1.835938-.351563 1.835937-.390624 1.757813-.429688 3.4375-.859375 1.640624-.46875 1.601563-.46875 1.5625-.507813 1.523437-.507812 1.445313-.546875 1.40625-.546875 1.367187-.585938 1.289063-.625 1.25-.625 2.34375-1.328124 1.054687-.703126 1.015626-.742187.976562-.742187.859375-.78125.820313-.820313.78125-.820313.703124-.898437.625-.898437.546876-.898438.507812-.976562.429688-.976563.351562-1.015625.273438-1.054688.195312-1.09375.117188-1.132812.039062-1.132812"/></g><use x="115.292" y="65.2719" href="#a"/><path d="M1009.453125 755.195312l19.140625 34.101563 19.179688 26.796875 19.140624 20 19.140626 13.59375 19.140624 7.617188 19.140626 2.03125 19.179687-3.007813 19.101563-7.773437 19.179687-12.03125 19.140625-15.820313 19.140625-19.257813 19.140625-22.226562 19.140625-24.765625L1277.5 727.539062l19.140625-28.59375 19.140625-29.84375 19.179688-30.664062 38.28125-62.1875 19.140624-30.625 19.140626-29.726562 19.140624-28.4375 19.140626-26.679688 19.140624-24.53125 19.179688-21.953125 19.140625-18.90625 19.140625-15.46875 19.140625-11.601563 19.140625-7.304687 19.140625-2.539063 19.140625 2.617188 19.179688 8.203125 19.140624 14.21875 19.140626 20.664063 19.140624 27.539062 19.140626 34.882812 19.140624 42.578126 19.140626 50.742187 19.140624 59.335937 19.140626 68.359376" style="fill:none;stroke-width:7.9701;stroke:#000;stroke-miterlimit:10;transform:matrix(.1,0,0,-.1,0,107)"/><style>.a{fill:none}.b{fill:none;stroke:#000;stroke-miterlimit:10;stroke-width:3.985;transform:matrix(.1,0,0,-.1,0,107)}</style></svg>