<svg xmlns="http://www.w3.org/2000/svg" width="196pt" height="134pt" viewBox="0 0 196 134"><defs><path d="M4.6406-3.6562c0-2.171875-.65625-3.21875-2.015625-3.21875C1.0781-6.87495.29685-5.640575.29685-3.234325.296875-2.0625.5-1.0625.84375-.5625 1.203125-.078125 1.75.203125 2.375.203125c1.5 0 2.265625-1.296875 2.265625-3.859375zm-.8437.5c0 2.125-.375 3-1.296875 3-.96875 0-1.375-1-1.375-3.4375 0-2.09375.375-2.921875 1.3125-2.921875.96875 0 1.359375.96875 1.359375 3.359375zm0 0" id="a"/><path d="M4.5781-2.5156c0-1.140625-.8125-1.9375-1.953125-1.9375-.46875 0-.828125.140625-1.453125.5l.0938-2.0781 3.0469.0469.0469-.0469c-.015625-.171875-.015625-.234375-.015625-.390625s0-.21875.015625-.390625L4.3125-6.875s-1.0625.0625-1.734375.0625c-.6875 0-1.734375-.0625-1.734375-.0625l-.0625.0625.0313 1.3594c0 .875-.03125 1.796875-.0625 2.25l.2031.0469c.46875-.46875.734375-.609375 1.21875-.609375.953125 0 1.5625.6875 1.5625 1.765625C3.734375-.890625 3.09375-.25 2-.25 1.46875-.25.96875-.421875.828125-.6875L.375-1.5l-.25.1406c.234375.5625.359375.875.5 1.3125.265625.15625.671875.25 1.09375.25.671875 0 1.375-.296875 1.9375-.765625.59375-.546875.921875-1.21875.921875-1.953125zm0 0" id="b"/><path d="M4.1719.0313v-.2969l-.5156-.0312C3.09375-.328125 3-.4375 3-.953125V-6.875l-.1406-.0469c-.64065.343775-1.3594.64065-2.26565.95315l.0781.4375h.0938c.4375-.203125.875-.40625 1.3125-.59375.0625 0 .078125.09375.078125.328125v4.8438c0 .515625-.109375.625-.640625.65625l-.5625.0313V.0313C1.5.015625 2.046875 0 2.609375 0 3.125 0 3.65625.015625 4.171875.03125zm0 0" id="c"/><path d="M1.8281-.5312c0-.296875-.28125-.578125-.59375-.578125-.296875 0-.5625.28125-.5625.578125s.26565.578075.5469.578075c.328125 0 .609375-.265625.609375-.578125zm0 0" id="d"/></defs><g class="a"><path d="M268.007812 181.601562l1.757813 12.65625 1.757813 4.21875 3.515624 16.875h5.273438l1.796875 8.4375 1.71875 8.4375 1.757813 3.359376 1.757812 10.351562 1.757812 3.164062h17.617188l3.515625 16.875 1.757813 5.625 1.757812 11.25h5.273438l1.796874 6.757813 1.757813 10.117187h1.757813l1.757812 10.546876 1.757812 6.328124h56.289063l1.796875 6.328126 1.757812 10.546874h1.757813l1.757813 10.117188 1.757812 6.757812h5.273438l1.757812 11.25 1.757812 5.625 3.515626 16.875h17.617187l1.757813 3.164063 1.757812 10.351563 1.757812 3.359374 3.515626 16.875h5.273437l3.515625 16.875 1.796875 4.21875 1.71875 12.65625"/><path d="M443.984375 451.601562H620"/><path d="M620 451.601562l1.757812 12.65625 1.757813 4.21875 1.757813 8.4375 1.796874 8.4375h5.234376l1.757812 8.4375 1.796875 8.4375 1.757813 3.359376L639.375 515.9375l1.757812 3.164062h17.578126l1.757812 8.4375 1.796875 8.4375 1.757813 5.625 1.757812 11.25h5.273438l1.757812 6.757813 1.757812 10.117187h1.757813l1.757813 10.546876 1.757812 6.328124h56.328125l1.757813 6.328126 1.757812 10.546874h1.757812l1.757813 10.117188 1.757813 6.757812h5.273437l1.796875 11.25 1.757812 5.625 1.71875 8.4375 1.757813 8.4375h17.617187l1.757813 3.164063 1.757813 10.351563 1.757812 3.359374 3.515625 16.875h5.3125l1.757813 8.4375 1.71875 8.4375 1.796874 4.21875 1.757813 12.65625"/><path d="M796.015625 721.601562h528.007813"/><path d="M1324.023438 721.601562l1.757812 12.65625 1.757812 4.21875 3.515626 16.875h5.273437l3.515625 16.875 1.757812 3.398438 1.796876 10.3125 1.757812 3.164062h17.578125l3.515625 16.875 1.757812 5.625 1.757813 11.25h5.3125l1.71875 6.757813 1.757813 10.117187h1.796874l1.757813 10.546876 1.757813 6.328124h56.328124l1.757813 6.328126 1.757813 10.546874h1.757812l1.757812 10.117188 1.757813 6.757812h5.273437l1.757813 11.25 1.757813 5.625 3.515624 16.875h17.617188l1.757812 3.164063 1.757813 10.351563 1.757813 3.359374 3.515624 16.875h5.273438l3.515625 16.875 1.757813 4.21875L1500 991.601562"/><path d="M1500 991.601562h176.015625"/><path d="M1676.015625 991.601562l1.757813 12.65625 1.757812 4.21875 3.515625 16.875h5.3125l3.515625 16.875 1.71875 3.398438 1.757812 10.3125 1.796876 3.164062h17.578124l3.515626 16.875 1.796874 5.625 1.71875 11.25h5.3125l1.757813 6.757813 1.757813 10.117187h1.757812l1.757812 10.546876 1.757813 6.328124h56.328125l1.757812 6.328126 1.757813 10.546874h1.757813l1.757812 10.15625 1.757812 6.71875H1806.25l1.757812 11.25 1.757813 5.625 3.515625 16.875h17.617188l1.757812 3.164063 1.757812 10.351563 1.757813 3.359374 3.515625 16.875h5.273438l1.796874 8.4375 1.757813 8.4375 1.757813 4.21875 1.757812 12.65625"/><path d="M268.007812 181.601562H1852.03125"/></g><path d="M26.5469 115.8516h.6016v6h-.6016zm0 0"/><path d="M105.75 115.8516h.6016v6h-.6016zm0 0"/><path d="M184.9492 115.8516h.6016v6h-.6016zm0 0"/><use x="24.2801" y="130.6512" href="#a"/><use x="99.6414" y="130.6512" href="#a"/><use x="104.8016" y="130.6512" href="#d"/><use x="107.4414" y="130.6512" href="#b"/><use x="182.6816" y="130.7711" href="#c"/><path d="M268.007812 181.601562v1080" class="a"/><path d="M20.7891 115.4922h6v.6016h-6zm0 0"/><path d="M20.7891 61.4922h6v.6016h-6zm0 0"/><path d="M20.7891 7.4922h6v.6016h-6zm0 0"/><use x="13.7891" y="119.2" href="#a"/><use x="5.9891" y="65.1992" href="#a"/><use x="11.1493" y="65.1992" href="#d"/><use x="13.7891" y="65.1992" href="#b"/><use x="13.7891" y="11.3187" href="#c"/><style>.a{fill:none;stroke:#000;stroke-miterlimit:10;stroke-width:3.985;transform:matrix(.1,0,0,-.1,0,134)}</style></svg>