<svg xmlns="http://www.w3.org/2000/svg" width="396pt" height="83pt" viewBox="0 0 396 83"><defs><clipPath id="b"><path d="M381 57h15v2h-15zm0 0"/></clipPath><clipPath id="c"><path d="M390 75h6v2h-6zm0 0"/></clipPath><clipPath id="d"><path d="M30 3h366v2H30zm0 0"/></clipPath><clipPath id="e"><path d="M273 21h123v2H273zm0 0"/></clipPath><clipPath id="f"><path d="M354 39h42v2h-42zm0 0"/></clipPath><clipPath id="g"><path d="M0 0h396v83H0z"/></clipPath><g id="h" clip-path="url(#g)"><g class="a"><path d="M323.98125 265.997813h135"/><path d="M593.98125 265.997813h135"/><path d="M593.98125 85.997813h45"/><path d="M683.98125 85.997813h45"/><path d="M1133.98125 85.997813h45"/><path d="M1223.98125 85.997813h45"/><path d="M323.98125 85.997813h45"/><path d="M413.98125 85.997813h45"/><path d="M1133.98125 265.997813h135"/><path d="M1403.98125 265.997813h135"/><path d="M1403.98125 85.997813h45"/><path d="M1493.98125 85.997813h45"/><path d="M2753.98125 85.997813h45"/><path d="M2843.98125 85.997813h45"/><path d="M3023.98125 85.997813h45"/><path d="M3113.98125 85.997813h45"/><path d="M2753.98125 265.997813h135"/><path d="M3023.98125 265.997813h135"/><path d="M3563.98125 265.997813h135"/></g><g clip-path="url(#b)"><path d="M3833.98125 265.997813h135" class="a"/></g><path d="M3833.98125 85.997813h45" class="a"/><g clip-path="url(#c)"><path d="M3923.98125 85.997813h45" class="a"/></g><g class="a"><path d="M3563.98125 85.997813h45"/><path d="M3653.98125 85.997813h45"/><path d="M2753.98125 445.997813h405"/><path d="M1133.98125 445.997813h405"/><path d="M323.98125 445.997813h405"/><path d="M323.98125 625.997813h1215"/></g><g clip-path="url(#d)"><path d="M323.98125 805.997813h3645" class="a"/></g><g clip-path="url(#e)"><path d="M2753.98125 625.997813h1215" class="a"/></g><g clip-path="url(#f)"><path d="M3563.98125 445.997813h405" class="a"/></g></g><path d="M7.1719-1.5625l-.2031-.17187C5.890675-.67187 5.203175-.32812 4.2188-.32812c-1.328125 0-2.09375-.890625-2.09375-2.4375 0-1.4375.578125-2.875 1.515625-3.84375.5625-.59375 1.3125-.921875 2.109375-.921875 1.09375 0 1.703125.640625 1.828125 1.9375l.2188.03125.4375-2.375h-.25c-.09375.1875-.21875.265625-.453125.265625-.109375 0-.234375-.03125-.484375-.078125-.53125-.140625-1.015625-.203125-1.40625-.203125-2.5625 0-4.859375 2.390625-4.859375 5.046875 0 1.828125 1.296875 3.125 3.125 3.125 1.234375 0 2.1875-.515625 3.265625-1.78125zm0 0" id="a"/><path d="M4.1719-2.89062c0-1.796875-.796875-3.03125-1.953125-3.03125-.46875 0-.84375.140625-1.171875.453125-.5.484375-.84375 1.5-.84375 2.53125C.203125-1.984375.5-.96875.90625-.46875c.328125.375.78125.59375 1.28125.59375.453125 0 .828125-.15625 1.140625-.453125.515625-.484375.84375-1.5.84375-2.5625zm-.8437.01563c0 1.828125-.390625 2.765625-1.140625 2.765625s-1.140625-.9375-1.140625-2.75c0-1.859375.40625-2.84375 1.15625-2.84375.734375 0 1.125 1 1.125 2.828125zm0 0" id="i"/><path d="M3.4531 0v-.125c-.687475-.015625-.8281-.109375-.8281-.53125v-5.25l-.0781-.01562L.9688-5.125V-5c.109375-.046875.203125-.078125.234375-.109375.171875-.046875.3125-.09375.40625-.09375.171875 0 .25.140625.25.421875V-.8125c0 .28125-.0625.484375-.203125.5625-.125.078125-.25.109375-.625.125V0zm0 0" id="j"/><path d="M4.1563-1.20312 4.0469-1.25c-.328125.5-.4375.578125-.828125.578125H1.125l1.4688-1.53125C3.375-3.03125 3.71875-3.6875 3.71875-4.375c0-.875-.71875-1.546875-1.625-1.546875-.484375 0-.9375.1875-1.265625.546875-.28125.296875-.40625.578125-.5625 1.1875l.1875.04688C.8125-5 1.125-5.28125 1.734375-5.28125c.734375 0 1.234375.5 1.234375 1.234375 0 .6875-.40625 1.5-1.140625 2.28125l-1.5625 1.65625V0H3.6875zm0 0" id="k"/><path d="M3.7813-1.92187c0-.4375-.140625-.859375-.390625-1.125-.171875-.203125-.34375-.296875-.71875-.46875.59375-.40625.8125-.734375.8125-1.203125 0-.71875-.5625-1.203125-1.359375-1.203125-.4375 0-.828125.140625-1.140625.421875-.265625.234375-.390625.46875-.59375 1l.1406.03125c.359375-.640625.75-.9375 1.296875-.9375.578125 0 .96875.390625.96875.9375 0 .328125-.125.640625-.34375.859375-.26565.26562-.51565.39062-1.1094.60937v.10938c.515625 0 .71875.015625.921875.09375.546875.1875.890625.6875.890625 1.296875 0 .734375-.5 1.3125-1.15625 1.3125-.234375 0-.40625-.0625-.734375-.28125-.25-.15625-.40625-.21875-.5625-.21875-.1875 0-.328125.125-.328125.3125 0 .3125.375.5 1 .5.671875 0 1.359375-.234375 1.765625-.59375.421875-.359375.640625-.859375.640625-1.453125zm0 0" id="l"/><path d="M4.1406-1.46875v-.5625H3.25v-3.89062h-.3906l-2.75 3.89063v.5625h2.4531V0H3.25v-1.46875zm-1.5781-.5625H.4531l2.1094-3zm0 0" id="m"/></defs><use href="#h"/><use x="-.236" y="8.407" href="#a"/><use x="7.738" y="10.2" href="#i"/><use x="-.236" y="26.407" href="#a"/><use x="7.738" y="28.2" href="#j"/><use x="-.236" y="44.408" href="#a"/><use x="7.738" y="46.201" href="#k"/><use x="-.236" y="62.408" href="#a"/><use x="7.738" y="64.201" href="#l"/><use x="-.236" y="80.408" href="#a"/><use x="7.738" y="82.202" href="#m"/><style>.a{fill:none;stroke:#000;stroke-linecap:butt;stroke-linejoin:miter;stroke-miterlimit:10;stroke-opacity:1;stroke-width:18;transform:matrix(.1,0,0,-.1,-.945,84.549)}</style></svg>