<svg xmlns="http://www.w3.org/2000/svg" width="303pt" height="165pt" viewBox="0 0 303 165"><defs><clipPath id="l"><path d="M62 0h60v54H62zm0 0"/></clipPath><clipPath id="m"><path d="M20 148h25v2H20zm0 0"/></clipPath><clipPath id="n"><path d="M.4063 167.5508h255v-168h-255zm43.9336-19.1953v.8789l-9.0703 1.4492 7.5586-1.8906-7.5586-1.8867zm-23.5586.8789v-.8789l9.0703-1.4492-7.5586 1.8867 7.5586 1.8906zm0 0" class="b"/></clipPath><clipPath id="o"><path d="M43 148h95v2H43zm0 0"/></clipPath><clipPath id="p"><path d="M.4063 167.5508h255v-168h-255zm137.4766-19.1953v.8789l-9.0742 1.4492 7.5586-1.8906-7.5586-1.8867zm-94.4258.8789v-.8789l9.0703-1.4492-7.5586 1.8867 7.5586 1.8906zm0 0" class="b"/></clipPath><clipPath id="q"><path d="M137 148h24v2h-24zm0 0"/></clipPath><clipPath id="r"><path d="M.4063 167.5508h255v-168h-255zm160.1523-19.1953v.8789l-9.0703 1.4492 7.5586-1.8906-7.5586-1.8867zM137 149.2344v-.8789l9.0703-1.4492-7.5586 1.8867 7.5586 1.8906zm0 0" class="b"/></clipPath><clipPath id="s"><path d="M171 1h1v24h-1zm0 0"/></clipPath><clipPath id="t"><path d="M.4063 167.5508h255v-168h-255zM171.8945 24.5156h-.8789l-1.4492-9.0703 1.8867 7.5586 1.8906-7.5586zM171.0156.957h.8789l1.4492 9.0703-1.8906-7.5586-1.8867 7.5586zm0 0" class="b"/></clipPath><clipPath id="u"><path d="M162 0h19v17h-19zm0 0"/></clipPath><clipPath id="v"><path d="M171 23h1v95h-1zm0 0"/></clipPath><clipPath id="w"><path d="M.4063 167.5508h255v-168h-255zm171.4883-49.4961h-.8789l-1.4492-9.0703 1.8867 7.5586 1.8906-7.5586zm-.8789-94.4219h.8789l1.4492 9.0703-1.8906-7.5586-1.8867 7.5586zm0 0" class="b"/></clipPath><clipPath id="x"><path d="M171 117h1v24h-1zm0 0"/></clipPath><clipPath id="y"><path d="M.4063 167.5508h255v-168h-255zm171.4883-26.8203h-.8789l-1.4492-9.0703 1.8867 7.5586 1.8906-7.5586zm-.8789-23.5586h.8789l1.4492 9.0742-1.8906-7.5586-1.8867 7.5586zm0 0" class="b"/></clipPath><clipPath id="z"><path d="M159 28h90v17h-90zm0 0"/></clipPath><clipPath id="A"><path d="M.4063 167.5508h255v-168h-255zm159.582-123.0664-.4375-.6953 6.8633-6.0469-5.418 5.6055 7.4336-2.3906zm0 0" class="b"/></clipPath><clipPath id="B"><path d="M123 54h126v10H123zm0 0"/></clipPath><clipPath id="C"><path d="M.4063 167.5508h255v-168h-255zM122.9531 64.2617l-.1914-.8203 8.5039-3.3359-6.9922 3.4648 7.8125.25zm0 0" class="b"/></clipPath><clipPath id="D"><path d="M137 89h112v10H137zm0 0"/></clipPath><clipPath id="E"><path d="M.4063 167.5508h255v-168h-255zm136.5312-77.9649.1875-.8203 9.1328.3164-7.8086.375 7.0547 3.3398zm0 0" class="b"/></clipPath><clipPath id="F"><path d="M6 6h95v16H6zm0 0"/></clipPath><clipPath id="G"><path d="M.4063 167.5508h255v-168h-255zm100.75-149.332-.375.7539-8.5703-3.2109 7.4961 2.1406-5.668-5.418zm0 0" class="b"/></clipPath><clipPath id="H"><path d="M0 0h256v165H0z"/></clipPath><g id="I" clip-path="url(#H)"><path d="M67.457 77.9297c0 .488281-.394531.882812-.882812.882812-.484375 0-.878907-.394531-.878907-.882812 0-.484376.394532-.878907.878907-.878907.488281 0 .882812.394531.882812.878907" class="d"/><path d="M670.520313 896.193125c0-4.882812-3.945313-8.828125-8.828125-8.828125-4.84375 0-8.789063 3.945313-8.789063 8.828125 0 4.84375 3.945313 8.789063 8.789063 8.789063 4.882812 0 8.828125-3.945313 8.828125-8.789063zm0 0" class="a"/><path d="M92.9688 24.0742c0 .488281-.394531.882812-.882812.882812-.484376 0-.882813-.394531-.882813-.882812 0-.484375.398437-.882813.882813-.882813.488281 0 .882812.398438.882812.882813" class="d"/><path d="M925.6375 1434.747813c0-4.882813-3.945312-8.828125-8.828125-8.828125-4.84375 0-8.828125 3.945312-8.828125 8.828125 0 4.84375 3.984375 8.828125 8.828125 8.828125 4.882813 0 8.828125-3.984375 8.828125-8.828125zm0 0" class="a"/><g clip-path="url(#l)"><path d="M1143.60625 1434.747813c0-125.234375-101.5625-226.757813-226.796875-226.757813s-226.757812 101.523438-226.757812 226.757813S791.575 1661.505625 916.809375 1661.505625s226.796875-101.523437 226.796875-226.757812zm0 0" style="fill:none;stroke-width:4.72425;stroke-linecap:round;stroke-linejoin:miter;stroke:#000;stroke-opacity:1;stroke-dasharray:9.4485,28.3455;stroke-dashoffset:28.3455;stroke-miterlimit:10;transform:matrix(.1,0,0,-.1,.405,167.549)"/></g><path d="M101.4727 18.4063c0 .484375-.394531.878906-.882812.878906-.484375 0-.882813-.394531-.882813-.878906 0-.488281.398438-.882812.882813-.882812.488281 0 .882812.394531.882812.882812" class="d"/><g style="fill:none;stroke-linejoin:miter;stroke-opacity:1;stroke-miterlimit:10;transform:matrix(.1,0,0,-.1,.405,167.549)"><path stroke-width="4.72425" stroke-linecap="round" stroke="#000" d="M1010.676563 1491.4275c0-4.84375-3.945313-8.789062-8.828125-8.789062-4.84375 0-8.828125 3.945312-8.828125 8.789062 0 4.882813 3.984375 8.828125 8.828125 8.828125 4.882812 0 8.828125-3.945312 8.828125-8.828125zm0 0"/><g stroke-linecap="butt"><path stroke-width="9.4485" stroke="#555" d="M434.934375 499.357188h935.429688v935.390625H434.934375zm0 0"/><g style="stroke-width:4.72425;stroke:#000;stroke-dasharray:9.4485,28.3455;stroke-dashoffset:28.3455"><path d="M1370.364063 1434.747813h368.476562"/><path d="M1370.364063 499.357188h368.476562"/><path d="M1597.121875 272.560313h141.71875"/><path d="M1370.364063 499.357188V130.841563"/><path d="M1597.121875 272.560313v-141.71875"/><path d="M208.176562 272.560313v-141.71875"/><path d="M434.934375 499.357188V130.841563"/><path d="M1597.121875 1661.505625h141.71875"/></g></g></g><g clip-path="url(#m)"><g clip-path="url(#n)"><path d="M208.176562 187.560313h226.757813" class="a"/></g></g><g class="a"><path d="M294.465625 168.654063l-75.585938 18.90625 75.585938 18.867187"/><path d="M348.645312 206.4275l75.585938-18.867187-75.585938-18.90625"/></g><g clip-path="url(#o)"><g clip-path="url(#p)"><path d="M434.934375 187.560313h935.429688" class="a"/></g></g><g class="a"><path d="M521.223438 168.654063l-75.585938 18.90625 75.585938 18.867187"/><path d="M1284.035938 206.4275l75.585937-18.867187-75.585937-18.90625"/></g><g clip-path="url(#q)"><g clip-path="url(#r)"><path d="M1370.364063 187.560313h226.757812" class="a"/></g></g><g class="a"><path d="M1456.653125 168.654063l-75.585937 18.90625 75.585937 18.867187"/><path d="M1510.832813 206.4275l75.585937-18.867187-75.585937-18.90625"/></g><g clip-path="url(#s)"><g clip-path="url(#t)"><path d="M1710.48125 1661.505625v-226.757812" class="a"/></g></g><g clip-path="url(#u)"><path d="M1691.614063 1575.216563l18.867187 75.585937 18.90625-75.585937" class="a"/></g><path d="M1729.3875 1521.036875l-18.90625-75.585937-18.867187 75.585937" class="a"/><g clip-path="url(#v)"><g clip-path="url(#w)"><path d="M1710.48125 1434.747813V499.357188" class="a"/></g></g><g class="a"><path d="M1691.614063 1348.45875l18.867187 75.585938 18.90625-75.585938"/><path d="M1729.3875 585.64625l-18.90625-75.585937-18.867187 75.585937"/></g><g clip-path="url(#x)"><g clip-path="url(#y)"><path d="M1710.48125 499.357188V272.560313" class="a"/></g></g><g style="fill:none;stroke-linecap:butt;stroke:#000;stroke-opacity:1;stroke-miterlimit:10;transform:matrix(.1,0,0,-.1,.405,167.549)"><g stroke-linejoin="miter"><g stroke-width="4.72425"><path d="M1691.614063 413.029063 1710.48125 488.615l18.90625-75.585937"/><path d="M1729.3875 358.888438l-18.90625-75.585938-18.867187 75.585938"/></g><path stroke-width="9.4485" stroke-dasharray="37.794" d="M208.176562 272.560313h1388.945313v1388.945312H208.176562zm0 0"/></g><g stroke-width="9.4485" stroke-linejoin="bevel"><path d="M1398.684375 1548.14625l-.625-.664062-1.875-3.75-1.875-4.414063-3.164062-5.664062-3.789063-8.203125-4.414062-9.453125-5.664063-11.328125-6.289062-13.867188-6.953125-15.117187-7.539063-16.992188-8.203125-18.28125-8.828125-19.53125-8.789062-20.15625-8.828125-22.03125-9.453125-22.070312-8.828125-23.28125-8.164063-23.320313-8.828125-24.570312-8.203125-25.195313-7.539062-25.820312-7.578125-26.445313-6.914063-27.109375-6.289062-28.320312-5.664063-29.609375-5.039062-30.859375-4.414063-31.523438-3.164062-32.734375-2.539063-34.023437-.625-34.648438v-34.648437l1.914063-39.023438 3.789062-37.1875 5.039063-35.273437 5.664062-32.734375 7.539063-30.898438 7.578125-28.320312 8.789062-26.445313 9.453125-24.570312L1287.825 646.74l10.703125-21.40625 10.703125-20.78125 11.367188-18.90625 10.703125-18.28125 11.328125-17.617187 11.328125-16.40625 11.367187-15.117188 10.703125-13.828125 9.414063-12.617187 9.453125-11.328125 8.203125-10.078125 6.914062-8.203125 5.703125-6.914063 4.375-5.039062 3.164063-3.164063 1.914062-2.5 1.25-1.289062.625-.625"/><path d="M321.575 1519.786875v-1.914062l-.625-2.5-.664063-4.414063-.625-5.664062-1.25-7.578125-1.25-9.414063-1.25-10.703125-1.914062-12.617187-1.875-14.492188-1.914063-15.742187-1.875-16.367188-1.875-18.28125-1.914062-18.90625-1.875-20.15625-1.875-20.78125-1.914063-22.03125-1.25-23.320312-1.25-24.570313-1.289062-25.820312-1.25-27.695313-.625-28.984375-.625-32.148437-.625-33.359375V1086.4275l.625-37.8125.625-39.0625 1.25-37.148437 1.289062-35.898438 1.875-35.898437 1.875-34.023438 1.914063-32.773437 2.5-30.859375 1.914062-29.609375 2.5-28.984375 2.539063-27.070313 3.125-26.445312 2.539062-25.820313 2.5-24.570312L322.2 616.505625l2.5-23.320312 3.164062-22.03125 2.5-21.40625 3.164063-20.15625 2.539062-19.53125 2.5-17.65625 1.875-16.367188 2.539063-14.492187 1.875-11.953125 1.289062-10.703125 1.25-8.203125 1.25-6.914063.625-4.414062v-2.539063l.625-1.875v-.625"/><path d="M321.575 1519.786875h2.5l3.164062-.625h5.664063l6.914062-.625 10.078125-.664062 11.992188-1.25 14.492187-1.25 16.367188-1.25 18.90625-1.289063 21.40625-1.25 22.03125-1.875 23.945312-1.25 25.195313-1.914062 26.445313-1.875 27.109375-1.914063 27.695312-1.25 27.734375-1.875L642.2 1498.341563l28.945313-1.875 29.609375-1.25 30.234375-1.25 30.859375-.664063 31.523437-1.25 32.109375-.625 33.398438-.625 33.359375-.625h69.296875l34.648437.625 34.023438.625 43.4375 1.289063 40.351562 1.875 35.898438 2.5 32.109375 2.539062 28.359375 3.125 25.195312 2.539063 22.03125 3.164062 20.15625 3.75 17.65625 3.164063 15.742188 3.789062 14.492187 3.125 12.578125 3.789063 11.992188 3.164062 10.078125 3.789063 8.789062 3.125 8.203125 2.539062 6.289063 3.125 5.039062 1.914063 4.414063 1.875 2.539062 1.25 1.875.625.625.664062h.625"/><path d="M349.895312 414.318125l.625.625 1.289063.625 3.125 1.25 3.789062 2.539063 6.289063 3.125 17.65625 8.828125 11.953125 6.289062 13.242187 6.328125 15.117188 7.539063 16.367187 8.203125 18.28125 8.789062 18.90625 8.828125 20.15625 8.828125 21.406251 8.828125 22.03125 9.453125L562.2 513.185313l23.90625 8.203125 23.945313 8.828125 25.195312 7.539062 25.820313 8.203125 27.734375 6.914063 28.320312 6.953125L746.73125 565.49l31.523438 5.664063 33.359375 5.039062 34.023437 3.789063 35.273438 2.5 35.898437 1.914062h38.4375l36.523438-1.289062 35.273437-1.875 33.398438-3.789063 30.859375-4.414062 29.609375-5.039063 27.734375-6.289062 25.820312-6.289063 24.570313-7.578125 22.65625-7.539062 22.695312-7.578125 20.78125-8.164063 20.15625-8.828125 19.53125-8.203125 18.242188-8.789062 16.992187-8.203125 15.78125-8.203125 15.117188-7.539063 12.578125-7.578125 11.328125-5.664062 9.453125-5.664063 7.578125-4.414062 6.289062-3.164063 3.789063-2.5 3.164062-1.875 1.25-.664062.625-.625"/></g></g><g clip-path="url(#z)"><g clip-path="url(#A)"><path d="M2475.832812 1349.70875h-.625l-1.914062.625-3.789063.625-5.664062 1.289063-7.539063 1.25-10.078125 1.875-11.992187 2.539062-13.828125 2.5-16.367188 3.164063-17.65625 3.125-18.90625 3.164062-20.15625 3.164063-20.78125 2.5-22.03125 3.164062-22.695312 2.5-23.945313 1.914063-24.570312 1.875-25.15625 1.875-26.484375.625-28.359375.664062-28.945313-.664062-30.859375-.625-32.148437-1.875-33.398437-3.164063-33.984375-3.75-35.898438-5.039062-34.648437-6.328125-32.148438-6.914063-29.609375-6.914062-27.695312-7.578125-25.195313-8.203125-23.320312-7.539063-22.03125-8.203125-20.78125-8.164062-18.90625-8.828125-18.28125-8.203125L1688.45 1287.99l-16.367187-8.203125-14.492188-8.203125-13.242187-7.539062-11.953125-6.289063-10.078125-6.289062-8.828125-5.039063-6.289063-3.789062-10.078125-6.328125" class="c"/></g></g><path d="M1680.246875 1265.919688l-74.335937-23.90625 54.179687 56.054687" class="a"/><g clip-path="url(#B)"><g clip-path="url(#C)"><path d="M2475.832812 1066.232188h-.625l-1.289062.664062-1.875.625-3.789063 1.25-5.039062 1.25-6.289063 1.914063-8.203125 2.5-9.414062 2.539062-11.367188 3.125-12.578125 3.164063-13.867187 3.164062-15.742188 3.75-16.367187 3.789063-17.65625 3.164062-18.28125 3.75-20.15625 3.164063-21.40625 3.789062-22.695313 2.5-23.90625 3.164063-26.484375 2.539062-28.320312 2.5-30.859375 1.875-33.398438 1.25-35.898437 1.289063-39.0625.625H2009.7l-44.101562-.625-37.148438-1.289063-36.523437-1.25-37.1875-1.875-35.273438-2.5-35.273437-1.914062-33.398438-3.125-32.734375-2.539063-32.148437-3.164062-30.859375-3.125-29.609375-3.789063-29.609375-3.164062-28.320313-3.75-27.734375-3.789063-27.695312-3.789062-26.445313-3.789063-26.484375-3.75-25.195312-3.789062-24.570313-3.789063-23.28125-3.789062-22.695312-3.789063-20.78125-3.75-20.15625-3.164062-17.617188-3.125L1288.45 1048.615l-14.492187-2.5-11.953125-2.539062-10.078125-1.25-8.203125-1.914063-6.289063-.625-8.828125-1.875" class="c"/></g></g><path d="M1316.809375 1037.286875l-78.125 2.5 69.921875 34.648438" class="a"/><g clip-path="url(#D)"><g clip-path="url(#E)"><path d="M2475.832812 782.794688h-.625l-1.289062-.625-2.5-1.25-3.789063-1.914063-5.664062-2.5-6.914063-3.164062-8.203125-3.125-10.703125-4.414063-11.328125-4.414062-13.242187-5.039063-14.492188-5.664062-15.742187-5.039063-16.992188-5.664062-18.28125-5.039063-19.53125-5.039062-20.78125-5.039063-22.070312-5.039062-23.90625-4.414063-25.820313-3.789062-28.984375-3.789063-30.859375-3.125-34.023437-3.164062-36.523438-1.875-39.6875-1.289063-41.601562-.625-34.609375.625-35.273437.625-34.023438 1.289063-33.398437 1.875-32.734375 2.539062-31.523438 2.5-30.234375 3.164063-29.609375 3.125-28.320312 3.164062-27.734375 3.789063-27.070313 3.75-26.445312 4.414062-25.859375 3.789063-25.195313 4.414062-24.53125 4.414063-23.945312 4.414062-22.695313 4.414063-22.03125 4.375-20.78125 3.789062-20.15625 4.414063L1448.45 765.8025l-16.367187 3.75-14.492188 3.164063-12.617187 2.539062-10.664063 2.5-8.203125 1.25-6.289062 1.914063-9.453125 1.875" class="c"/></g></g><path d="M1450.989063 747.52125l-70.546875 33.398438 78.085937 3.75" class="a"/><g clip-path="url(#F)"><g clip-path="url(#G)"><path d="M66.457812 1463.107188l.625.625 1.875.625 3.164063 1.25 4.414062 2.539062 6.914063 3.125 8.828125 3.789063 10.703125 5.039062 12.617187 5.664063 14.492188 6.289062 15.742187 6.953125 17.617188 7.539063 18.90625 8.203125 19.53125 7.539062 20.78125 8.203125 21.40625 8.203125 22.070312 7.539063 23.28125 7.578125 23.320313 7.539062 24.570312 6.953125 25.820313 6.914063 27.070312 6.289062 27.734375 5.664063 29.609375 5.039062 30.859375 4.414063 31.484375 3.789062 33.398438 2.5 33.398438 1.914063 35.273437.625 34.609375-1.25 32.148438-1.914063 29.609375-3.125 27.695312-4.414062 26.484375-4.414063 23.90625-5.664062 22.070313-5.664063 21.40625-6.953125 20.15625-6.289062 18.90625-7.578125 17.617187-6.914063 17.03125-7.539062 15.742188-7.578125 15.117187-6.914063 13.203125-7.578125 12.617188-6.289062 10.703125-5.664063 8.828125-5.039062 7.539062-4.414063 5.664063-3.789062 8.828125-5.039063" class="c"/></g></g><path d="M936.340625 1550.64625l56.679688-54.179687-74.960938 21.40625" class="a"/></g><path d="M5.5156-7.1719c0-.375-.546875-.6875-1.515625-.6875s-1.73435.5469-1.73435 1.26565c0 .796875.8125 1.65625.8125 1.671875 0 0-2.859375.46875-2.859375 3.171875 0 .8125.421875 1.921875 1.625 1.921875 1.6875 0 3.046875-1.546875 3.046875-3.5 0-1.984375-2.171875-2.234375-2.171875-3.390625 0-.53125.625-.765625 1.015625-.765625 1.125 0 .875.6875 1.375.6875.25 0 .40625-.171875.40625-.375zm-1.5781 4.25c0 1.53125-1 2.796875-1.8125 2.796875-.671875 0-.90625-.921875-.90625-1.578125 0-2.765625 2.078125-2.96875 2.09375-2.96875 0 .015625.625.78125.625 1.75zm0 0" id="b"/><path d="M5.375-5.2031c-.25-.03125-.515625-.0625-.796875-.0625-2.0625 0-3.640625.984375-3.9375 3.046875C.40625-.703125 1.21875.125 2.765625.125c.515625 0 1.09375-.03125 1.625-.15625L4.5-.4531c-.453125.078125-.890625.125-1.328125.125-1.046875 0-1.640625-.625-1.5-1.65625.03125-.125.046875-.28125.109375-.421875L4.5-2.4844l.1563-.5-2.7031-.1094c.3125-1.140625 1.5625-1.734375 2.640625-1.734375.21875 0 .421875 0 .625.03125zm0 0" id="c"/><path d="M3.6406-1.4219c0-.46875-.265625-.984375-.8125-1.671875-.46875-.5625-.65625-.9375-.65625-1.25 0-.40625.25-.65625.671875-.65625.625 0 .984375.453125 1.09375 1.375h.2031L4.375-5.2812h-.1719c-.09375.171875-.171875.21875-.359375.21875-.09375 0-.203125-.03125-.421875-.09375C3.125-5.25 2.953125-5.265625 2.75-5.265625c-.890625 0-1.453125.515625-1.453125 1.3125 0 .375.25.890625.765625 1.53125.453125.609375.65625 1.03125.65625 1.375 0 .5625-.359375.921875-.875.921875C1.171875-.125.8125-.609375.625-1.75H.4375L.1875.1563H.375c.109375-.203125.15625-.25.296875-.25.125 0 .34375.046875.578125.109375C1.53125.09375 1.703125.125 1.90625.125c1.015625 0 1.734375-.640625 1.734375-1.546875zm0 0" id="h"/><path d="M6.7813 0v-.1875c-.53125-.046875-.765625-.25-1-.859375l-1.1094-2.9375c.921875-.203125 1.3125-.359375 1.75-.75.390625-.34375.609375-.8125.609375-1.34375 0-1.125-.875-1.734375-2.484375-1.734375H1.5782v.2031c.5.0625.5625.078125.6875.15625.09375.0625.15625.203125.15625.34375s-.046875.421875-.140625.75L.8125-1.0781c-.21875.7031-.28125.781225-.96875.8906V0h2.9219v-.1875c-.75-.09375-.8125-.140625-.8125-.5625 0-.125.015625-.234375.140625-.6875l.6719-2.5.7656.0625L5.0156 0zM5.7656-6.1094c0 1.1875-.75 1.796875-2.25 1.796875-.21875 0-.3125-.015625-.609375-.0625l.7813-2.7344c.0625-.25.21875-.34375.609375-.34375.984375 0 1.46875.453125 1.46875 1.34375zm0 0" id="d"/><path d="M4.6094.7188c0-.75-.578125-1.28125-1.734375-1.578125-.515625-.125-.828125-.328125-.828125-.5 0-.1875.265625-.5.421875-.5 0 0 .046875 0 .09375.015625.09375.03125.265625.03125.359375.03125 1.09375 0 2.1875-.953125 2.1875-1.875 0-.203125-.03125-.4375-.09375-.6875h.5938l-.0156-.4687h-.7344c-.03125 0-.09375-.015625-.1875-.09375-.328125-.21875-.71875-.328125-1.171875-.328125-1.328125 0-2.390625.921875-2.390625 2.03125.015625.625.28125.984375.953125 1.296875-.6875.484375-.90625.71875-.90625 1 0 .15625.109375.296875.34375.46875-1.15625.75-1.390625 1-1.390625 1.53125 0 .859375.78125 1.40625 2 1.40625 1.515625 0 2.5-.71875 2.5-1.75zm-.7187.3594c0 .640625-.671875 1.125-1.59375 1.125C1.343825 2.2032.7657 1.750075.7657.98445c0-.296875.0625-.5.25-.71875.15625-.203125.65625-.59375.75-.59375 0 0 .046875 0 .0625.015625l.3438.1094C3.4375.1875 3.890625.53125 3.890625 1.078125zm-.0782-3.8907c-.265625.5-.640625.75-1.046875.75-.453125 0-.703125-.34375-.703125-.90625 0-1.09375.65625-2.046875 1.421875-2.046875.453125 0 .671875.296875.6875.859375 0 .421875-.140625.9375-.359375 1.34375zm0 0" id="e"/><path d="M4.9688-1.2344l-.1562-.0937c-.109375.125-.15625.1875-.265625.328125-.28125.359375-.40625.46875-.5625.46875-.171875 0-.28125-.15625-.359375-.484375-.03125-.109375-.046875-.171875-.046875-.1875-.296875-1.125-.4375-1.765625-.4375-1.953125C3.671975-4.0781 4.09385-4.60935 4.3126-4.60935c.078125 0 .1875.046875.296875.109375.140625.078125.21875.09375.328125.09375.234375 0 .40625-.171875.40625-.421875 0-.265625-.203125-.4375-.484375-.4375-.53125 0-.96875.421875-1.8125 1.703125l-.125-.6562c-.171875-.8125-.296875-1.046875-.625-1.046875-.28125 0-.65625.09375-1.40625.34375l-.125.0469.0469.1719.203-.047c.234375-.0625.375-.078125.46875-.078125.296875 0 .375.109375.53125.828125l.3438 1.4688-.9687 1.3906c-.250075.35935-.48445.5781-.60945.5781-.078125 0-.203125-.03125-.3125-.109375C.3125-.75.1875-.78125.078125-.78125c-.234375 0-.40625.171875-.40625.40625 0 .3125.234375.5.609375.5.359375 0 .5-.09375 1.109375-.8125L2.4688-2.1094l.3594 1.4375c.140625.625.296875.796875.6875.796875.453125 0 .765625-.28125 1.453125-1.359375zm0 0" id="i"/><path d="M5.0938-4.6094c0-.359375-.296875-.65625-.65625-.65625-.28125 0-.46875.171875-.46875.4375 0 .1875.09375.3125.328125.46875.234375.125.3125.234375.3125.40625 0 .46875-.421875 1.390625-1.453125 3.09375L2.9219-2.25c-.1875-1.0625-.859375-3.015625-1.03125-3.015625h-.1562L.5625-5.0625l-.3906.0781v.2031c.15625-.03125.25-.046875.375-.046875.484375 0 .703125.171875.921875.765625.328125.8125.984375 3.484375.984375 3.96875 0 .125-.046875.265625-.125.421875-.09375.15625-.625.859375-.84375 1.078125-.28125.296875-.421875.40625-.578125.40625-.078125 0-.15625-.046875-.28125-.140625C.4375 1.53125.328125 1.46875.171875 1.46875c-.25 0-.453125.203125-.453125.46875 0 .3125.25.53125.609375.53125.671875 0 1.96875-1.375 3.203125-3.4375 1-1.65625 1.5625-2.96875 1.5625-3.640625zm0 0" id="j"/><path d="M4.1563-1.2031 4.0469-1.25c-.328125.5-.4375.578125-.828125.578125H1.125l1.4688-1.5312C3.375-3.03125 3.71875-3.6875 3.71875-4.375c0-.875-.71875-1.546875-1.625-1.546875-.484375 0-.9375.1875-1.265625.546875-.28125.296875-.40625.578125-.5625 1.1875l.1875.0469C.8125-5 1.125-5.28125 1.734375-5.28125c.734375 0 1.234375.5 1.234375 1.234375 0 .6875-.40625 1.5-1.140625 2.28125l-1.5625 1.6563V0H3.6875zm0 0" id="J"/><path d="M3.4531 0v-.125c-.687475-.015625-.8281-.109375-.8281-.53125v-5.25l-.0781-.0156L.9688-5.125V-5c.109375-.046875.203125-.078125.234375-.109375.171875-.046875.3125-.09375.40625-.09375.171875 0 .25.140625.25.421875V-.8125c0 .28125-.0625.484375-.203125.5625-.125.078125-.25.109375-.625.125V0zm0 0" id="K"/><path d="M7.6094-8.6719H7.25c-.109375.3125-.453125.5625-1.625.5625C4.484375-8.109375 4.09375-8.625 3-8.625c-1.8125 0-2.328125.53125-2.640625 1.203125H.7188c.0937-.296875.5312-.546875 1.703075-.546875 1.125 0 1.515625.515625 2.625.515625 1.8125 0 2.25-.546875 2.5625-1.21875zm0 0" id="L"/><path d="M1.25-.25l.9063-3.5937-.0312-.0156c-.734375.125-1.203125.203125-1.484375.21875V-3.5L.875-3.5156h.0625c.25 0 .34375.09375.34375.28125 0 .09375-.03125.265625-.140625.703125l-.625 2.5625C.21875 1.2344.015625 1.6094-.328125 1.6094c-.109375 0-.15625-.03125-.15625-.09375 0-.03125 0-.046875.03125-.09375.0625-.078125.078125-.109375.078125-.1875 0-.1875-.15625-.328125-.359375-.328125s-.359375.15625-.359375.375c0 .3125.296875.53125.703125.53125C.375 1.8125.890625 1.15625 1.25-.25zm1.3906-4.9062c0-.25-.203125-.484375-.4375-.484375s-.4531.203075-.4531.4687c0 .28125.203125.46875.453125.46875.234375 0 .4375-.203125.4375-.453125zm0 0" id="a"/><path d="M3.5313-8.5781C1.796925-7.4531.578175-5.5156.578175-3.0781c0 2.234375 1.265625 4.484375 2.90625 5.5l.1563-.2031C2.0625.984375 1.609375-.46875 1.609375-3.109375c0-2.65625.484375-4.03125 2.03125-5.265625zm0 0" id="f"/><path d="M.4531-8.5781.3438-8.375C1.890625-7.140625 2.375-5.765625 2.375-3.109375 2.375-.46875 1.921875.984375.34375 2.21875l.1406.2031c1.65625-1.015625 2.921875-3.265625 2.921875-5.5 0-2.4375-1.21875-4.375-2.953125-5.5zm0 0" id="g"/><path d="M6.8594-3.9375v-.6719H.7344v.6719zm0 2.4219v-.6719H.7344v.6719zm0 0" id="k"/><path d="M5.6875-3.9375c0-2.453125-1.078125-4.140625-2.65625-4.140625-.65625 0-1.15625.203125-1.59375.625-.703125.65625-1.15625 2.03125-1.15625 3.4375 0 1.296875.40625 2.703125.96875 3.375.4375.515625 1.046875.8125 1.734375.8125.609375 0 1.125-.203125 1.5625-.625C5.234375-1.109375 5.6875-2.5 5.6875-3.9375zm-1.1406.0156c0 2.5-.53125 3.78125-1.5625 3.78125s-1.5469-1.281225-1.5469-3.7656c0-2.53125.53125-3.859375 1.5625-3.859375 1 0 1.546875 1.34375 1.546875 3.84375zm0 0" id="M"/></defs><use transform="translate(21)" href="#I"/><use x="198.277" y="131.767" href="#b"/><use x="204.2068" y="131.767" href="#c"/><use x="198.277" y="15.539" href="#b"/><use x="204.2068" y="15.539" href="#c"/><use x="164.005" y="162.95" href="#b"/><use x="169.9348" y="162.95" href="#c"/><use x="47.7765" y="162.95" href="#b"/><use x="53.7063" y="162.95" href="#c"/><use x="198.42" y="75.07" href="#h"/><use x="203.31" y="76.863" href="#J"/><use x="108.334" y="162.95" href="#h"/><use x="113.224" y="164.743" href="#K"/><use x="276.303" y="35.785" href="#L"/><use x="275.164" y="38.217" href="#d"/><use x="283.737" y="40.011" href="#a"/><use x="275.164" y="94.914" href="#d"/><use x="283.737" y="96.707" href="#a"/><use x="274.722" y="63.731" href="#e"/><use x="281.656" y="63.731" href="#f"/><use x="286.6294" y="63.731" href="#d"/><use x="295.208" y="65.524" href="#a"/><use x="298.967" y="63.731" href="#g"/><use x="70.542" y="92.079" href="#i"/><use x="77.357" y="93.872" href="#a"/><use x="84.438" y="92.079" href="#k"/><use x="95.3651" y="92.079" href="#M"/><use x="104.6662" y="92.079" href="#k"/><use x="115.653" y="92.079" href="#e"/><use x="122.599" y="92.079" href="#f"/><use x="127.0583" y="92.079" href="#i"/><use x="133.871" y="93.872" href="#a"/><use x="137.63" y="92.079" href="#g"/><use x="110.423" y="38.217" href="#j"/><use x=".132" y="26.878" href="#e"/><use x="7.066" y="26.878" href="#f"/><use x="12.0035" y="26.878" href="#j"/><use x="17.7659" y="26.878" href="#g"/><style>.a{fill:none;stroke:#000;stroke-linecap:butt;stroke-linejoin:miter;stroke-miterlimit:10;stroke-opacity:1;stroke-width:4.72425;transform:matrix(.1,0,0,-.1,.405,167.549)}.b{clip-rule:evenodd}.c{fill:none;stroke:#000;stroke-linecap:butt;stroke-linejoin:bevel;stroke-miterlimit:10;stroke-opacity:1;stroke-width:4.72425;transform:matrix(.1,0,0,-.1,.405,167.549)}.d{fill:#000;fill-opacity:1;fill-rule:evenodd}</style></svg>