<svg xmlns="http://www.w3.org/2000/svg" width="142pt" height="94pt" viewBox="0 0 142 94"><defs><path d="M8.5156 0 5.9375-3.40625C6.953125-3.71875 7.5-4.515625 7.5-5.5625c0-1.71875-1.3125-2.34375-2.84375-2.34375H.8438V0h1.9844v-3.23437h.875L6.0313 0zM5.875-7.21875c.71875.328125 1.109375.859375 1.109375 1.671875C6.984375-4.8125 6.5625-4.125 5.875-3.84375zm-.5312 3.39063c-.21875.03125-.4375.0625-.65625.0625H2.8281v-3.625H4.75c.171875 0 .40625.078125.59375.09375zM7.4844-.53125H6.3125L4.3438-3.23437c.34375 0 .703125 0 1.046875-.046875zm-5.1875 0h-.9375v-6.85937h.9375zm0 0" id="a"/><path d="M4.1563-.90625l-.125-.125c-.0625.078125-.125.15625-.1875.234375-.25.328125-.40625.46875-.53125.46875-.078125 0-.140625-.0625-.140625-.140625s.03125-.234375.125-.5625l.5-1.79687c.046875-.1875.078125-.375.078125-.5 0-.3125-.234375-.53125-.578125-.53125-.5625 0-1.109375.53125-2.015625 1.921875l.5781-1.90625-.0156-.01562-1.4219.26563v.14063c.453125.015625.5625.0625.5625.234375 0 .046875-.015625.109375-.015625.15625L.125 0h.6563c.40625-1.390625.484375-1.578125.875-2.171875.53125-.8125.96875-1.25 1.296875-1.25.125 0 .21875.09375.21875.25 0 .109375-.0625.40625-.125.671875L2.6563-1.04687c-.109375.453125-.140625.5625-.140625.65625 0 .328125.125.46875.40625.46875.40625 0 .625-.171875 1.234375-.984375zm0 0" id="b"/><path d="M4.7188-1.75c0-.640625-.265625-.96875-1.09375-1.328125.625-.140625.875-.25 1.15625-.5.234375-.203125.375-.5.375-.859375 0-.828125-.625-1.28125-1.75-1.28125H1.1406v.14063c.546875.03125.671875.09375.671875.359375 0 .125-.03125.34375-.09375.5625L.6406-.78125c-.15625.5-.21875.546875-.703125.640625V0h2.4688c1.375 0 2.3125-.703125 2.3125-1.75zm-.9375-.03125c0 .9375-.65625 1.515625-1.71875 1.515625-.375 0-.5625-.125-.5625-.359375 0-.125.109375-.53125.3125-1.234375l.2813-1.04687c.546875 0 .921875.046875 1.09375.109375.375.140625.59375.53125.59375 1.015625zm.4844-2.73437c0 .90625-.578125 1.328125-1.796875 1.328125h-.2969L2.75-5.21875c.046875-.1875.15625-.25.5-.25.703125 0 1.015625.3125 1.015625.953125zm0 0" id="c"/><path d="M4.9375 0v-.14062c-.5-.046875-.546875-.109375-.65625-.75l-.8281-4.96875H3.2188L.6875-1.46875C-.015625-.3125-.09375-.203125-.453125-.140625V0H1.1875v-.14062C.75-.1875.671875-.234375.671875-.453125c0-.15625.03125-.234375.171875-.53125l.5-1h1.9375l.1719 1.15625c.015625.078125.015625.15625.015625.21875 0 .34375-.125.421875-.6875.46875V0zM3.2344-2.29687H1.5313l1.3125-2.28125zm0 0" id="f"/><path d="M5.5469-5.71875H.8906L.5156-4.375l.1563.03125c.4375-.890625.71875-1.078125 1.90625-1.078125.0625 0 .125 0 .1875 0L1.5-.78125c-.140625.453125-.359375.59375-.9375.640625V0h2.5469v-.14062l-.3281-.03125c-.359375-.015625-.453125-.09375-.453125-.375 0-.109375.015625-.1875.09375-.5l1.2188-4.375H4.125c.640625 0 .921875.21875.921875.71875 0 .109375-.015625.234375-.03125.390625l.1406.01563zm0 0" id="j"/><path d="M6.7813 0v-.1875c-.84375-.09375-.953125-.171875-1.25-.890625L4.3125-4.15625l2.0156-2.32812c.625-.6875.984375-.96875 1.5-1.125v-.20313H5.3438v.20313c.578125.0625.734375.15625.734375.421875 0 .15625-.078125.296875-.25.5L4.0938-4.70312l-.7031-1.75c-.125-.328125-.171875-.515625-.171875-.671875 0-.296875.1875-.40625.84375-.484375v-.20313H.9063v.20313c.703125.0625.875.171875 1.109375.71875l1.2656 3.15625-1 1.15625C.625-.625.28125-.328125-.34375-.1875V0h2.5625v-.1875c-.578125 0-.78125-.109375-.78125-.40625 0-.1875.078125-.375.25-.5625l1.7969-2.0625L4.2969-1.25c.078125.21875.125.40625.125.59375 0 .34375-.125.40625-.90625.46875V0zm0 0" id="g"/><path d="M3.7813-1.5v-.375H.4063v.375zm0 0" id="d"/><path d="M2.5938 0v-.09375c-.515625-.015625-.625-.078125-.625-.390625V-4.4375l-.0469-.01562-1.1875.60938V-3.75c.0781-.03125.1406-.0625.17185-.078125.125-.046875.234375-.078125.296875-.078125.140625 0 .203125.109375.203125.3125v2.98438c0 .21875-.0625.359375-.15625.421875-.109375.0625-.203125.078125-.46875.09375V0zm0 0" id="e"/><path d="M6.3438-6.04687c-1.015625 0-1.359375.65625-1.359375 1.578125 0 .84375-.109375 1.78125-1.171875 1.78125h-.0937v-2.23437c0-.640625.34375-.71875.90625-.71875v-.15625H1.9375v.15625c.53125 0 .890625.09375.890625.71875V-2.6875H2.7188c-1.046875 0-1.171875-.9375-1.171875-1.78125 0-.921875-.328125-1.578125-1.359375-1.578125V-5.875c.34375.0625.421875.625.421875.90625 0 .265625-.046875.53125-.046875.78125 0 1.3125 1.109375 1.828125 2.265625 1.828125v1.26563c0 .765625-.140625.890625-.890625.921875V0H4.625v-.17187C3.96875-.1875 3.71875-.25 3.71875-.96875v-1.39062c1.15625 0 2.25-.515625 2.25-1.828125 0-.25-.03125-.515625-.03125-.78125 0-.28125.0625-.84375.40625-.90625zm0 0" id="h"/><path d="M3.7813-5.07812c0-.359375.140625-.5625.90625-.5625v-.15625H2v.15625c.765625 0 .890625.15625.890625.5625v.17188c-1.25 0-2.578125.5625-2.578125 2.015625C.3125-1.75 1.09375-.90625 2.75-.90625h.1406V-.75c0 .453125-.3125.578125-.890625.578125V0h2.6875v-.17187C4.0625-.203125 3.78125-.28125 3.78125-.75v-.15625H4c.96875 0 2.375-.59375 2.375-1.984375C6.375-4.34375 5-4.90625 3.78125-4.90625zm-.0156.5c1.140625 0 1.65625.9375 1.65625 1.796875 0 .984375-.84375 1.546875-1.65625 1.546875zm-.8594 3.34375c-1.0625 0-1.640625-.734375-1.640625-1.546875 0-.859375.671875-1.796875 1.640625-1.796875zm0 0" id="i"/></defs><use x="26.384" y="14.697" href="#a"/><use x="35.358" y="10.357" href="#b"/><use x="94.152" y="14.697" href="#a"/><use x="103.127" y="10.357" href="#b"/><use x="29.576" y="53.175" href="#g"/><use x="97.345" y="53.175" href="#g"/><use x="26.384" y="91.976" href="#a"/><use x="35.358" y="87.636" href="#b"/><use x="94.152" y="91.976" href="#a"/><use x="103.127" y="87.636" href="#b"/><g class="a"><path d="M-21.319406 37.643h41.96875" class="b"/><path stroke-linecap="round" stroke-linejoin="round" d="M-3.480797 4.018131C-2.844079 1.607975-1.42611.46735-3.2875e-4-.0014-1.42611-.47015-2.844079-1.606869-3.480797-4.017025" transform="matrix(1 0 0 -1 88.23861 11.6236)"/></g><use x="54.41" y="8.6" href="#c"/><use x="60.205" y="5.417" href="#d"/><use x="64.6499" y="5.417" href="#e"/><use x="69.093" y="8.6" href="#f"/><use x="74.9056" y="8.6" href="#c"/><g class="a"><path d="M-43.229562 29.79925c-18.457032-14.273438-19.636719-43.902344-2.867188-59.148438" class="b"/><path stroke-linecap="round" stroke-linejoin="round" d="M-3.480989 4.019214C-2.846129 1.607996-1.429097.467668 4.81205e-4-.00125205-1.426637-.469935-2.843965-1.605556-3.481229-4.017165" transform="matrix(.73982 .6727 .6727 -.73982 21.40283 78.8425)"/></g><use x=".887" y="51.6" href="#c"/><g class="a"><path d="M33.883719 29.79925V9.346125" class="b"/><path stroke-linecap="round" stroke-linejoin="round" d="M-3.481242 4.01867C-2.844524 1.608514-1.426555.467889-7.7375e-4-8.6125e-4-1.426555-.469611-2.844524-1.60633-3.481242-4.016486" transform="matrix(0 1 1 0 101.13758 40.25468)"/></g><use x="82.947" y="33.84" href="#h"/><use x="89.882" y="30.657" href="#d"/><use x="94.3269" y="30.657" href="#e"/><g class="a"><path d="M-23.854562-.833563H23.1845" class="b"/><path stroke-linecap="round" stroke-linejoin="round" d="M-3.480351 4.015922C-2.843632 1.605766-1.42957.469047 1.175e-4 2.975e-4-1.42957-.468453-2.843632-1.605171-3.480351-4.015328" transform="matrix(1 0 0 -1 90.77332 50.10186)"/></g><use x="64.242" y="47.078" href="#j"/><g class="a"><path d="M-33.885812 8.678156v20.453125" class="b"/><path stroke-linecap="round" stroke-linejoin="round" d="M-3.482096 4.016857C-2.845378 1.606701-1.427409.469982-.0016275.0012325-1.427409-.467518-2.845378-1.608143-3.482096-4.018299" transform="matrix(0 -1 -1 0 33.36842 19.80306)"/></g><use x="36.525" y="33.05" href="#h"/><g class="a"><path d="M-33.885812-8.677313v-20.453125" class="b"/><path stroke-linecap="round" stroke-linejoin="round" d="M-3.48294 4.018299C-2.846221 1.608143-1.428252.467518.001435-.0012325-1.428252-.469982-2.846221-1.606701-3.48294-4.016857" transform="matrix(0 1 1 0 33.36842 78.73294)"/></g><use x="36.394" y="71.383" href="#i"/><g class="a"><path d="M-21.319406-39.634344h41.96875" class="b"/><path stroke-linecap="round" stroke-linejoin="round" d="M-3.480797 4.016611C-2.844079 1.606455-1.42611.469736-3.2875e-4 9.8625e-4-1.42611-.467764-2.844079-1.608389-3.480797-4.018545" transform="matrix(1 0 0 -1 88.23861 88.90333)"/></g><use x="64.847" y="85.879" href="#f"/><g class="a"><path d="M33.883719-29.798406v20.449218" class="b"/><path stroke-linecap="round" stroke-linejoin="round" d="M-3.480399 4.016486C-2.84368 1.60633-1.429618.469611 7e-5 8.6125e-4-1.429618-.467889-2.84368-1.608514-3.480399-4.01867" transform="matrix(0 -1 -1 0 101.13758 58.28132)"/></g><use x="82.93" y="72.318" href="#i"/><use x="89.882" y="69.135" href="#d"/><use x="94.3269" y="69.135" href="#e"/><g class="a"><path d="M45.602469-29.798406c17.261719 15.695312 16.082031 45.324218-1.84375 59.1875" class="b"/><path stroke-linecap="round" stroke-linejoin="round" d="M-3.480294 4.018028C-2.84438 1.606016-1.427296.469858-5.43465e-4-.00199437-1.427423-.468566-2.84514-1.604633-3.482048-4.01836" transform="matrix(-.79097 -.61179 -.61179 .79097 110.74835 19.67312)"/></g><use x="128.43" y="52.546" href="#c"/><use x="134.225" y="49.363" href="#d"/><use x="138.6699" y="49.363" href="#e"/><style>.a{fill:none;stroke:#000;stroke-miterlimit:10;stroke-width:.6695}.b{transform:matrix(1,0,0,-1,67.253,49.268)}</style></svg>