<svg xmlns="http://www.w3.org/2000/svg" width="343pt" height="159pt" viewBox="0 0 343 159"><defs><path d="M6.4844-5.2344c0-.125 0-.34375-.203125-.34375s-.59375.15625-.796875.25l-.0625.125c.046875.1875.09375.40625.09375.59375 0 1.28125-2.0625 3.3125-2.796875 4.375L2.6406-.2812c.25-1.046875.453125-2.078125.453125-3.15625 0-.921875-.125-2.21875-1.34375-2.21875-.765625 0-1.21875.5625-1.578125 1.15625v.0625l.0625.0781.0625-.0156c.28125-.328125.515625-.546875.953125-.546875 1.140625 0 1.28125 1.46875 1.28125 2.296875 0 1-.109375 1.984375-.265625 2.96875-.5625.6875-1.09375 1.8125-1.40625 2.625.03125.109375.09375.203125.140625.296875.25-.0625.5-.15625.734375-.265625.28125-.8125.578125-1.734375.734375-2.5625.703125-.953125 1.5-1.875 2.28125-2.75.65625-.71875 1.734375-1.90625 1.734375-2.921875zm0 0" id="e"/><path d="M6.6406-4.9375c-.109375-.171875-.1875-.375-.28125-.546875h-.125c-.171875.8125-.71875 1.71875-1.15625 2.40625l-.0625-.0312c0-.921875.25-2.546875-1.09375-2.546875-2.015625 0-3.59375 2.75-3.59375 4.546875C.328125-.390625.5625.1875 1.375.1875c1.09375 0 2.1875-.953125 2.875-1.75l.0469.0313c0 .390625-.078125 1.71875.53125 1.71875C5.390625.1875 6.1875-.640625 6.53125-1v-.0937l-.0625-.0625h-.0781c-.21875.21875-.5.5-.828125.5-.53125 0-.5-1.546875-.5-1.921875.59375-.75 1.125-1.515625 1.578125-2.359375zM4.2813-1.9531c-.5.609375-1.453125 1.625-2.3125 1.625-.625 0-.765625-.515625-.765625-1.046875 0-1.046875.84375-3.84375 2.140625-3.84375 1.03125 0 .9375 2.203125.9375 2.921875zm0 0" id="f"/><path d="M5.625-6.9375c0-.765625-.40625-1.1875-1.171875-1.1875-.375 0-.75.078125-1.078125.21875C1.453125-7.109375 1.3125-5.25 1.046875-3.453125c-.34375 2.234375-.640625 4.5-1.125 6.71875l.0938.1094C.3125 3.28125.625 3.171875.9375 3.09375c.046875-1.15625.203125-2.3125.34375-3.4375.390625.375.90625.515625 1.4375.515625 1.4375 0 2.765625-1.125 2.765625-2.625 0-1.140625-.875-1.828125-1.953125-1.84375v-.1094C4.609375-4.78125 5.625-5.71875 5.625-6.9375zm-.8437.2656c0 1.34375-1.109375 2.234375-2.375 2.234375-.046875.140625-.078125.296875-.125.40625l.0781.0938c.203125-.078125.375-.109375.578125-.109375.984375 0 1.578125.5625 1.578125 1.5625 0 1.109375-.625 2.34375-1.890625 2.34375-.6875 0-1.125-.390625-1.125-1.09375 0-1.21875.65625-5.59375 1.734375-6.28125.203125-.125.40625-.203125.640625-.203125.625 0 .90625.46875.90625 1.046875zm0 0" id="g"/><path d="M7.2656-5.5781c-.8281.0156-1.67185.04685-2.5156.04685-1.015625 0-2.046875-.03125-3.0625-.03125-.78125-.015625-.9375.90625-1.15625 1.5l.0156.0781.0938.0625.0938-.0469c.484375-.75.765625-.875 1.671875-.875h.2656C2.234375-3.171875 1.84375-1.546875 1.125.03125l.0938.1094c.234375-.0625.65625-.15625.875-.296875.453125-1.53125.765625-3.125 1.0625-4.6875H5.875c-.65625 1.04685-1.125 2.29685-1.125 3.54685 0 .59375.203125 1.46875.921875 1.46875.5 0 1.125-.46875 1.484375-.78125L7.1875-.6875 7.125-.7812l-.0937-.0156C6.828125-.671875 6.59375-.5 6.296875-.5c-.65625 0-.734375-1-.734375-1.484375 0-1.015625.3125-2 .828125-2.859375L7.125-5c.015625-.203125.09375-.40625.140625-.578125zm0 0" id="j"/><path d="M3.6406-9.0312C1.8125-7.84375.71875-5.796875.71875-3.234375c0 2.34375 1.140625 4.578125 2.875 5.78125L3.75 2.3438C2.09375.90625 1.8125-.484375 1.8125-3.28125 1.8125-6.0625 2.125-7.5 3.75-8.828125zm0 0" id="a"/><path d="M.5-9.0312l-.125.2031C2.015625-7.5 2.328125-6.0625 2.328125-3.28125c0 2.796875-.28125 4.1875-1.953125 5.625l.1563.2031c1.75-1.203125 2.890625-3.4375 2.890625-5.78125C3.421875-5.796875 2.3125-7.84375.5-9.03125zm0 0" id="b"/><path d="M.7813 2.4219h.6563L5.0157-8.8906h-.6719zm0 0" id="d"/><path d="M5.5625-4.375c0-2.625-.78125-3.859375-2.421875-3.859375-1.84375 0-2.796875 1.46875-2.796875 4.359375 0 1.40625.25 2.609375.671875 3.1875.421875.59375 1.09375.921875 1.828125.921875C4.65625.234375 5.5625-1.3125 5.5625-4.375zm-1.0156.5938C4.546875-1.234375 4.09375-.171875 3-.171875c-1.15625 0-1.65625-1.21875-1.65625-4.125 0-2.53125.453125-3.515625 1.578125-3.515625 1.171875 0 1.625 1.171875 1.625 4.03125zm0 0" id="l"/><path d="M5.5938.0313C5.5625-.21875 5.5625-.328125 5.5625-.5c0-.15625 0-.28125.03125-.546875l-4.1406.125 2.1875-2.3125c1.15625-1.21875 1.515625-1.875 1.515625-2.78125 0-1.375-.9375-2.21875-2.453125-2.21875-.8594 0-1.45315.234375-2.031275.828125L.4688-5.7656h.3437l.1563-.5625c.1875-.6875.625-.984375 1.421875-.984375 1.03125 0 1.6875.640625 1.6875 1.65625 0 .90625-.5 1.78125-1.859375 3.21875L.1875-.2812v.3125C1.078125.015625 1.96875 0 2.859375 0 3.765625 0 4.6875.015625 5.59375.03125zm0 0" id="o"/><path d="M5 .0313v-.3594l-.625-.0312c-.65625-.03125-.78125-.171875-.78125-.78125v-7.0937l-.1562-.0625c-.78125.40625-1.625.765625-2.71875 1.15625l.0781.5h.125c.531225-.2345 1.04685-.468875 1.5781-.70325.0625 0 .09375.109375.09375.40625v5.7969c0 .609375-.125.75-.78125.78125l-.6719.0313V.0313C1.8125.015625 2.46875 0 3.125 0 3.734375 0 4.375.015625 5 .03125zm0 0" id="p"/><path d="M.7813-4.1406h6.4375v-.7187H.7813zm0 2.5313h6.4375v-.7032H.7813zm0 0" id="c"/><path d="M5.3281-4.0937c-.609375.015625-1.21875.03125-1.84375.03125-.75 0-1.5-.015625-2.25-.015625C.67185-4.0937.54685-3.4062.3906-2.984325l.0156.0625.0625.0469.0625-.0312c.359375-.5625.578125-.640625 1.234375-.640625h.2031C1.640625-2.328125 1.34375-1.125.828125.015625l.0625.0938c.171875-.0625.484375-.125.640625-.21875.328125-1.125.5625-2.296875.78125-3.4375h2c-.484375.765625-.828125 1.6875-.828125 2.59375C3.484375-.515625 3.625.125 4.15625.125c.359375 0 .828125-.34375 1.09375-.578125L5.2656-.5l-.0468-.0781-.0625-.0156C5-.484375 4.828125-.375 4.625-.375c-.484375 0-.546875-.71875-.546875-1.078125 0-.75.234375-1.46875.609375-2.09375l.5313-.1094c.015625-.15625.078125-.3125.109375-.4375zm0 0" id="h"/><path d="M4.1406.0313v-.2656l-.4219-.0312c-.4375-.03125-.53125-.140625-.53125-.65625v-.6719c.515625 0 .703125.015625.953125.046875v-.625s-.4375.03125-.71875.03125H3.1875v-1.2187c0-1.5625.015625-2.328125.0625-2.6875l-.1094-.0312L2.5-5.8437.0156-1.7812l.0938.1875h2.3438v.6719c0 .515625-.09375.640625-.53125.65625l-.5312.0313V.0313C1.859375.015625 2.328125 0 2.796875 0 3.25 0 3.6875.015625 4.140625.03125zM2.4531-2.1406H.5625l1.8906-3.0937zm0 0" id="k"/><path d="M3.6563.0313v-.2656l-.4531-.0312c-.484375-.03125-.5625-.125-.5625-.578125v-5.2031l-.125-.0312c-.5625.296875-1.1875.5625-1.984375.84375l.0625.375h.0781c.390625-.1875.78125-.359375 1.15625-.515625.0625 0 .078125.078125.078125.28125v4.25c0 .453125-.09375.546875-.578125.578125l-.4844.0313V.0313C1.328125.015625 1.8125 0 2.28125 0s.921875.015625 1.375.03125zm0 0" id="m"/><path d="M4.0625-1.8125c0-.6875-.3125-1.078125-1.3125-1.53125.796875-.546875 1.078125-.90625 1.078125-1.4375 0-.75-.625-1.265625-1.5625-1.265625-1.03125 0-1.796875.671875-1.796875 1.59375 0 .59375.234375.921875 1 1.421875-.359375.171875-.5.265625-.703125.453125-.328125.328125-.5.734375-.5 1.1875 0 .90625.71875 1.5625 1.71875 1.5625C3.125.171875 4.0625-.71875 4.0625-1.8125zm-.6875.375c0 .734375-.546875 1.3125-1.265625 1.3125C1.375-.125.890625-.65625.890625-1.46875c0-.640625.25-1.03125.890625-1.4375l.7031.3281c.5625.234375.890625.671875.890625 1.140625zm-.1562-3.25c0 .5-.21875.84375-.78125 1.21875l-.4844-.2344c-.546875-.28125-.828125-.625-.828125-1.0625 0-.578125.421875-.96875 1.046875-.96875.640625 0 1.046875.40625 1.046875 1.046875zm0 0" id="q"/><path d="M4.3594-5.7812v-.2656C3.40625-6 3.328125-6 2.390625-6c-.921875 0-1.0625 0-1.921875-.046875L.3906-6s.015625.5625.015625.921875-.0156.890625-.0156.890625H.6563l.0469-.4844c.07805-.54685.14055-.60935.5468-.60935h2.3281c-.34375.71875-.609375 1.21875-.953125 1.75L.4844-.0937l.0781.125S.8125 0 .96875 0 1.375.03125 1.375.03125C1.75-.921875 1.96875-1.5 2.75-2.890625zm0 0" id="r"/><path d="M4.1094.0313c-.03125-.1875-.03125-.28125-.03125-.40625 0-.109375 0-.1875.03125-.390625L1.0625-.6719l1.6094-1.6875c.843725-.906225 1.10935-1.3906 1.10935-2.04685 0-1.015625-.6875-1.640625-1.796875-1.640625-.640625 0-1.0625.1875-1.5.625l-.1406 1.1875h.25l.1094-.4062c.140625-.5.46875-.71875 1.046875-.71875.75 0 1.234375.46875 1.234375 1.21875 0 .65625-.359375 1.296875-1.359375 2.359375L.1406-.2031v.2344C.78125.015625 1.453125 0 2.09375 0c.671875 0 1.34375.015625 2.015625.03125zm0 0" id="i"/><path d="M4.0469-1.9687c0-.421875-.171875-.78125-.484375-1-.21875-.15625-.421875-.234375-.859375-.3125.703125-.546875.953125-.9375.953125-1.46875 0-.765625-.640625-1.296875-1.609375-1.296875-.59375 0-1 .171875-1.421875.59375l-.25 1.0938h.2813l.1563-.5c.09375-.296875.640625-.59375 1.09375-.59375.578125 0 1.03125.46875 1.03125 1.015625 0 .65625-.515625 1.21875-1.125 1.21875-.078125 0-.421875-.03125-.421875-.03125l-.1094.4688.0625.0469c.34375-.15625.5-.1875.75-.1875.71875 0 1.140625.453125 1.140625 1.25 0 .90625-.53125 1.484375-1.34375 1.484375-.40625 0-.765625-.125-1.03125-.375C.65625-.75.53125-.953125.375-1.421875l-.25.0781C.3125-.812525.390625-.4844.4375-.0469c.46875.15625.84375.21875 1.171875.21875 1.0625 0 2.4375-.921875 2.4375-2.140625zm0 0" id="n"/></defs><path d="M1650 831.601562h221.5625" class="b"/><path d="M186.332 75.8398l-7.3945 1.4922 8.2188-1.4922-8.2187-1.4961 7.3945 1.4961"/><g class="b"><path d="M1863.320312 831.601562 1789.375 816.679688l82.1875 14.921874-82.1875 14.960938zm0 0"/><path d="M1650 831.601562v221.5625"/></g><path d="M165 54.5078l1.4961 7.3945L165 53.6836l-1.4922 8.2188L165 54.5078"/><g style="fill:none;stroke:#000;stroke-miterlimit:10;transform:matrix(.1,0,0,-.1,0,159)"><path stroke-width="3.985" d="M1650 1044.921875l14.960938-73.945313L1650 1053.164062l-14.921875-82.1875zm0 0"/><path stroke-width="7.9701" d="M2203.867188 831.601562l-.78125 28.984376-2.265626 28.945312-3.789062 28.710938-5.273438 28.515624L2185 974.960938l-8.242188 27.8125-9.6875 27.304687-11.09375 26.796875-12.460937 26.171875-13.867187 25.507813-15.15625 24.6875-16.40625 23.90625-17.65625 23.007812-18.828126 22.070312-19.960937 21.015626-21.015625 19.960937-22.070312 18.828125-23.007813 17.65625-23.90625 16.40625-24.726563 15.15625-25.46875 13.867188-26.171874 12.460937-26.796876 11.09375-27.304687 9.6875-27.8125 8.242187-28.203125 6.757813-28.515625 5.273437-28.75 3.789063-28.90625 2.265625-28.984375.78125-28.984375-.78125-28.90625-2.265625-28.75-3.789063-28.515625-5.273437-28.203125-6.757813-27.773437-8.242187-27.34375-9.6875-26.796876-11.09375-26.171874-12.460937-25.46875-13.867188-24.726563-15.15625-23.90625-16.40625-23.007813-17.65625-22.03125-18.828125-21.015624-19.960937-20-21.015626-18.828126-22.070312-17.617187-23.007812-16.445313-23.90625-15.15625-24.6875-13.828124-25.507813-12.5-26.171875-11.09375-26.796875-9.6875-27.304687-8.203126-27.8125-6.796874-28.203126-5.273438-28.515624-3.789062-28.710938-2.265626-28.945312-.742187-28.984376.742187-28.984374 2.265626-28.90625 3.789062-28.75 5.273438-28.515626 6.796874-28.164062 8.203126-27.8125 9.6875-27.34375 11.09375-26.796875 12.5-26.171875 13.828124-25.46875 15.15625-24.726562 16.445313-23.90625 17.617187-23.007813 18.828126-22.03125 20-21.054687L1279.414062 420l22.03125-18.828125 23.007813-17.617187 23.90625-16.445313 24.726563-15.15625 25.46875-13.828125 26.171874-12.5 26.796876-11.09375 27.34375-9.6875 27.773437-8.203125 28.203125-6.796875 28.515625-5.273438 28.75-3.789062 28.90625-2.265625L1650 277.773438l28.984375.742187 28.90625 2.265625 28.75 3.789062 28.515625 5.273438 28.203125 6.796875 27.8125 8.203125 27.304687 9.6875 26.796876 11.09375 26.171874 12.5 25.46875 13.828125 24.726563 15.15625 23.90625 16.445313 23.007813 17.617187L2020.625 420l21.015625 19.960938 19.960937 21.054687 18.828126 22.03125 17.65625 23.007813 16.40625 23.90625 15.15625 24.726562 13.867187 25.46875 12.460937 26.171875 11.09375 26.796875 9.6875 27.34375L2185 688.28125l6.757812 28.164062 5.273438 28.515626 3.789062 28.75 2.265626 28.90625zm0 0"/></g><path d="M220.1719 84.0547l1.4922.0391-1.2773-8.2539-1.7109 8.1758 1.4961.0391"/><g class="a"><path fill="none" d="M2201.71875 749.453125l14.921875-.390625-12.773437 82.539062-17.109376-81.757812zm0 0"/><path d="M2218.789062 831.601562c0 8.242188-6.679687 14.960938-14.921874 14.960938-8.242188 0-14.960938-6.71875-14.960938-14.960938 0-8.242187 6.71875-14.921874 14.960938-14.921874 8.242187 0 14.921874 6.679687 14.921874 14.921874zm0 0"/></g><use x="223.516" y="65.7672" href="#e"/><use x="230.8359" y="65.7672" href="#a"/><use x="234.916" y="65.7672" href="#l"/><use x="240.916" y="65.7672" href="#b"/><use x="248.3558" y="65.7672" href="#c"/><use x="260.116" y="65.7672" href="#f"/><use x="267.5559" y="65.7672" href="#a"/><use x="271.636" y="65.7672" href="#l"/><use x="277.636" y="65.7672" href="#b"/><use x="285.0758" y="65.7672" href="#c"/><use x="296.5957" y="65.7672" href="#g"/><use x="303.0758" y="65.7672" href="#a"/><use x="307.1559" y="65.7672" href="#o"/><use x="313.1559" y="65.7672" href="#j"/><use x="321.0758" y="65.7672" href="#b"/><use x="223.516" y="91.6711" href="#e"/><use x="230.8359" y="91.6711" href="#a"/><use x="234.916" y="91.6711" href="#o"/><use x="240.916" y="91.6711" href="#j"/><use x="248.8359" y="91.6711" href="#b"/><use x="256.3961" y="91.6711" href="#c"/><use x="268.0359" y="91.6711" href="#f"/><use x="275.4757" y="91.6711" href="#a"/><use x="279.5558" y="91.6711" href="#p"/><use x="285.5558" y="91.6711" href="#b"/><use x="293.1159" y="91.6711" href="#c"/><use x="304.5159" y="91.6711" href="#g"/><use x="310.996" y="91.6711" href="#a"/><use x="315.0761" y="91.6711" href="#l"/><use x="321.0761" y="91.6711" href="#b"/><path d="M2056.601562 1223.242188c0 8.242187-6.71875 14.960937-14.960937 14.960937s-14.921875-6.71875-14.921875-14.960937c0-8.242188 6.679688-14.960938 14.921875-14.960938s14.960937 6.71875 14.960937 14.960938zm0 0" class="a"/><use x="210.063" y="34.017" href="#e"/><use x="217.3829" y="34.017" href="#a"/><use x="221.463" y="31.7369" href="#h"/><use x="226.0232" y="34.017" href="#d"/><use x="231.063" y="34.017" href="#k"/><use x="235.5028" y="34.017" href="#b"/><use x="242.9427" y="34.017" href="#c"/><use x="254.7029" y="34.017" href="#f"/><use x="262.1427" y="34.017" href="#a"/><use x="266.2232" y="31.7369" href="#m"/><use x="269.3431" y="34.017" href="#d"/><use x="274.383" y="34.017" href="#q"/><use x="278.8228" y="34.017" href="#b"/><use x="286.2626" y="34.017" href="#c"/><use x="297.6626" y="34.017" href="#g"/><use x="304.1427" y="34.017" href="#a"/><use x="308.2232" y="31.7369" href="#r"/><use x="312.663" y="31.7369" href="#h"/><use x="317.2232" y="34.017" href="#d"/><use x="322.263" y="34.017" href="#k"/><use x="326.7029" y="34.017" href="#b"/><path d="M1664.960938 1385.46875c0 8.242188-6.71875 14.921875-14.960938 14.921875s-14.921875-6.679687-14.921875-14.921875 6.679687-14.960938 14.921875-14.960938 14.960938 6.71875 14.960938 14.960938zm0 0" class="a"/><use x="104.761" y="12.112" href="#e"/><use x="112.0809" y="12.112" href="#a"/><use x="116.161" y="9.9518" href="#h"/><use x="120.7212" y="12.112" href="#d"/><use x="125.761" y="12.112" href="#i"/><use x="130.2008" y="12.112" href="#b"/><use x="137.6407" y="12.112" href="#c"/><use x="149.4009" y="12.112" href="#f"/><use x="156.8407" y="12.112" href="#a"/><use x="160.9212" y="9.9518" href="#m"/><use x="164.0411" y="12.112" href="#d"/><use x="169.081" y="12.112" href="#k"/><use x="173.5208" y="12.112" href="#b"/><use x="180.9606" y="12.112" href="#c"/><use x="192.4805" y="12.112" href="#g"/><use x="198.9606" y="12.112" href="#a"/><use x="203.0411" y="9.9518" href="#n"/><use x="207.4809" y="9.9518" href="#h"/><use x="211.9212" y="12.112" href="#d"/><use x="216.961" y="12.112" href="#i"/><use x="221.4008" y="12.112" href="#b"/><path d="M1111.09375 831.601562c0 8.242188-6.679688 14.960938-14.921875 14.960938-8.28125 0-14.960937-6.71875-14.960937-14.960938 0-8.242187 6.679687-14.921874 14.960937-14.921874 8.242187 0 14.921875 6.679687 14.921875 14.921874zm0 0" class="a"/><use x=".3551" y="78.7191" href="#e"/><use x="7.675" y="78.7191" href="#a"/><use x="11.7551" y="78.7191" href="#j"/><use x="19.675" y="78.7191" href="#b"/><use x="27.2352" y="78.7191" href="#c"/><use x="38.875" y="78.7191" href="#f"/><use x="46.3148" y="78.7191" href="#a"/><use x="50.3949" y="76.439" href="#m"/><use x="53.5152" y="78.7191" href="#d"/><use x="58.555" y="78.7191" href="#i"/><use x="62.9949" y="78.7191" href="#b"/><use x="70.4347" y="78.7191" href="#c"/><use x="81.9546" y="78.7191" href="#g"/><use x="88.4347" y="78.7191" href="#a"/><use x="92.5148" y="78.7191" href="#j"/><use x="100.4347" y="78.7191" href="#b"/><path d="M1664.960938 277.773438c0 8.242187-6.71875 14.921874-14.960938 14.921874s-14.921875-6.679687-14.921875-14.921874c0-8.242188 6.679687-14.960938 14.921875-14.960938s14.960938 6.71875 14.960938 14.960938zm0 0" class="a"/><use x="104.761" y="146.3219" href="#e"/><use x="112.0809" y="146.3219" href="#a"/><use x="116.161" y="144.0418" href="#n"/><use x="120.6008" y="144.0418" href="#h"/><use x="125.161" y="146.3219" href="#d"/><use x="130.2008" y="146.3219" href="#i"/><use x="134.6407" y="146.3219" href="#b"/><use x="142.0805" y="146.3219" href="#c"/><use x="153.7203" y="146.3219" href="#f"/><use x="161.1602" y="146.3219" href="#a"/><use x="165.241" y="144.0418" href="#n"/><use x="168.3609" y="146.3219" href="#d"/><use x="173.4008" y="146.3219" href="#k"/><use x="177.9609" y="146.3219" href="#b"/><use x="185.4008" y="146.3219" href="#c"/><use x="196.8008" y="146.3219" href="#g"/><use x="203.2809" y="146.3219" href="#a"/><use x="207.3609" y="144.0418" href="#h"/><use x="211.9211" y="146.3219" href="#d"/><use x="216.9609" y="146.3219" href="#i"/><use x="221.4008" y="146.3219" href="#b"/><style>.a{stroke:#000;stroke-miterlimit:10;stroke-width:7.9701;transform:matrix(.1,0,0,-.1,0,159)}.b{fill:none;stroke:#000;stroke-miterlimit:10;stroke-width:3.985;transform:matrix(.1,0,0,-.1,0,159)}</style></svg>