<svg xmlns="http://www.w3.org/2000/svg" width="193pt" height="120pt" viewBox="0 0 193 120"><defs><clipPath id="h"><path d="M.0547 0H193v119.5508H.0547zm0 0"/></clipPath><clipPath id="i"><path d="M82 72h41v17H82zm0 0"/></clipPath><clipPath id="j"><path d="M.0547 119.5508h193v-120h-193zm82.6094-46.4727.6289-.5039 6.6758 6.2344-6.1094-4.8516 3.1523 7.1211zm0 0" class="b"/></clipPath><clipPath id="k"><path d="M81 50h42v11H81zm0 0"/></clipPath><clipPath id="l"><path d="M.0547 119.5508h193v-120h-193zm82.043-58.3164-.6289-.6289 5.543-7.3086-4.1602 6.6133 6.8047-3.8398zm0 0" class="b"/></clipPath><clipPath id="m"><path d="M72 22h51v37H72zm0 0"/></clipPath><clipPath id="n"><path d="M.0547 119.5508h193v-120h-193zm73.3476-60.961-.7539-.2539 1.1953-9.0078-.375 7.75 3.9688-6.6797zm0 0" class="b"/></clipPath><clipPath id="o"><path d="M0 0h193v120H0z"/></clipPath><g id="p" clip-path="url(#o)"><g fill-rule="evenodd" fill-opacity="1"><path d="M.082 119.5h192.75V.4492H.082zm0 0" fill="#aaa" clip-path="url(#h)"/><path fill="#bbb" d="M119.1367 59.9727c0 28.179688-22.84375 51.023438-51.023438 51.023438-28.179687 0-51.023437-22.84375-51.023437-51.023438 0-28.175781 22.84375-51.019531 51.023437-51.019531 28.179688 0 51.023438 22.84375 51.023438 51.019531"/><path fill="#ccc" d="M93.625 59.9727c0 14.089844-11.421875 25.511719-25.511719 25.511719-14.089843 0-25.511719-11.421875-25.511719-25.511719 0-14.085937 11.421876-25.507812 25.511719-25.507812 14.089844 0 25.511719 11.421875 25.511719 25.507812"/><path fill="#ddd" d="M85.1211 59.9727c0 9.394532-7.617188 17.007813-17.007813 17.007813-9.394531 0-17.007812-7.613281-17.007812-17.007813 0-9.390625 7.613281-17.003906 17.007812-17.003906 9.390625 0 17.007813 7.613281 17.007813 17.003906"/><path fill="#eee" d="M79.8281 59.9727c0 6.472656-5.246094 11.71875-11.714844 11.71875S56.398413 66.445356 56.398413 59.9727c0-6.46875 5.246093-11.714844 11.714843-11.714844S79.8281 53.50395 79.8281 59.9727"/></g><g clip-path="url(#i)"><g clip-path="url(#j)"><path d="M1219.1575 312.286875h-3.75l-5.039062-.625h-6.953125l-9.453125-.625-10.703125-.625h-27.070313l-14.492187.625-15.742188.625-16.40625 1.25-16.992187 1.914063-18.28125 2.5L1055.4075 321.115l-20.195312 5.039063-21.40625 6.914062-21.40625 7.578125-23.320313 10.078125-21.40625 10.703125-18.28125 10.703125-15.742187 10.703125-14.492188 10.703125L886.579375 403.615l-20.78125 20.78125-8.828125 9.453125-8.203125 8.828125-6.289062 7.578125-10.703125 13.828125" class="a"/></g></g><path d="M869.587188 384.70875l-31.523438 71.210938 61.09375-48.515625" class="c"/><g clip-path="url(#k)"><g clip-path="url(#l)"><path d="M1219.1575 652.443125l-1.25.625-2.5.625-5.039062 1.875-6.953125 1.914063-8.828125 2.5-10.703125 3.789062-12.578125 3.164063-13.867188 3.75-14.492187 3.789062-15.742188 3.164063-16.367187 2.5-17.03125 2.539062-17.617188 1.875-19.53125.625h-20.15625l-22.070312-1.875-22.03125-2.539062-23.945313-5.039063-22.03125-5.664062-19.53125-6.914063-16.992187-7.578125-15.117188-7.539062-13.242187-8.203125-11.953125-8.164063L858.22 623.45875l-10.078125-8.203125-8.164062-7.539062-6.953125-6.289063-12.578125-11.992187" class="a"/></g></g><path d="M896.0325 634.786875l-68.046875-38.398437 41.601563 66.132812" class="c"/><g clip-path="url(#m)"><g clip-path="url(#n)"><path d="M1219.1575 964.24h-1.25l-1.875.625-4.414062.625-5.664063.625-8.828125 1.289063-10.078125 1.25-12.617187.625-13.828125 1.25-15.78125 1.25-16.367188.664062h-16.992187l-17.65625-.664062-18.242188-1.25-18.90625-2.5-19.53125-3.164063-20.15625-5.039062-20.78125-6.289063-21.40625-8.203125-22.070312-10.078125-22.65625-12.578125-22.695313-15.117187-21.40625-17.03125-19.53125-17.617188-18.28125-18.28125-15.117187-18.28125-13.828125-18.242187-12.617188-18.28125-10.703125-18.242188-10.078125-18.28125-8.203125-18.28125-8.164062-17.617187-6.953125-17.65625-6.289063-16.367188-5.664062-16.367187-5.039063-14.492188-4.414062-13.242187-3.164063-11.328125-2.5-8.828125-4.414062-14.492188" class="a"/></g></g><path d="M773.845 691.505625l-39.6875-66.796875 3.75 77.5" class="c"/><path fill-rule="evenodd" fill="#888" fill-opacity="1" d="M19.9258 16.5117l1.1328-.5664 1.1992-.4414 1.2578-.3164 1.3867-.25 1.4492-.1914 1.5117-.0625h1.5743l1.6367.1289L32.7773 15l1.7617.2539 1.8281.375 1.8242.4414 1.8281.5039 1.8906.5664 1.8242.6289 1.8906.6953 1.8281.7539 1.7617.7578 1.7656.8164 1.6367.8203 1.6367.8828 1.5742.8828 1.5117.8789 1.4492.8828 1.3867.8828 1.3246.883 1.1328.7539 1.0703.8203 1.0078.8164 1.0078.8203.9453.8203.9453.8789.8828.8828.8164.9453.8203.9453.6914.9453.6953 1.0078.6289 1.0078.5039 1.0703.5039 1.0078.3789 1.0703.3125 1.1328.2539 1.0703.1875 1.1367.0625 1.1328v1.0703l-.125 1.1328-.1875 1.1367-.2539 1.1328-.3789 1.1328-.4375 1.1328-.5039 1.1367-.6328 1.1328-.6289 1.1328-.8203 1.1328-.8164 1.1992-1.0078 1.1328-1.0078 1.1953-1.1328 1.2617-1.2617 1.2617-1.3242 1.2578-1.4453 1.2617-1.5117 1.3203-1.5781 1.3242-1.6992 1.3203-1.6992 1.3242-1.8281 1.3242-1.8281 1.3203-1.9531 1.3242-1.9492 1.2578-1.9531 1.2617-1.9531 1.1328-2.0158 1.1998-1.9531 1.0703-1.9531 1.0078-1.8906 1.0078-1.8906.8828-1.7617.8164-1.7656.6953-1.6994.6915-1.6367.5664-3.0234.8828-1.3867.25-1.3242.2539-1.2578.125-1.2617.0625-1.1953-.0625-1.0703-.1875-1.0703-.2539-1.0078-.3789-.8828-.4375-.883-.5703-.8164-.6914-.7578-.8203-.6914-.8164-.6328-1.0078-.5664-1.0078-.5039-1.1992-.4414-1.1953-.4375-1.2617-.3164-1.3828-.3164-1.3867-.25-1.4492-.1914-1.5117-.1875-1.5117-.125-1.5742-.0625-1.5117-.0625-1.6367-.0664-1.5742v-3.1523l.0664-1.6367.0625-1.5742v-1.7656l.125-1.8242.0625-1.8281.125-1.8281.1289-1.8867.125-1.8906.1875-1.9531.2539-1.8906.25-1.9531.3164-1.9531.3789-1.9492.375-1.8906.4414-1.8906.5039-1.8281.5039-1.7617.5664-1.6992.6328-1.5781.6914-1.5117.6914-1.3828.7578-1.3242.8164-1.1953.8828-1.0742.8828-1.0078.9453-.8789 1.0078-.7578"/><path d="M198.727813 1030.372813l11.328125 5.664062 11.992187 4.414063 12.578125 3.164062 13.867188 2.5 14.492187 1.914063 15.117188.625H293.845l16.367188-1.289063 17.03125-1.875 17.617187-2.539062 18.28125-3.75 18.242188-4.414063 18.28125-5.039062 18.90625-5.664063 18.242187-6.289062 18.90625-6.953125 18.28125-7.539063 17.617188-7.578125 17.65625-8.164062 16.367187-8.203125 16.367188-8.828125 15.742187-8.828125 15.117188-8.789063 14.492187-8.828125 13.867188-8.828125L614.47 926.4275l11.328125-7.539062 10.703125-8.203125 10.078125-8.164063 10.078125-8.203125 9.453125-8.203125 9.453125-8.789062 8.828125-8.828125 8.164063-9.453125 8.203125-9.453125 6.914062-9.453125 6.953125-10.078125 6.289063-10.078125 5.039062-10.703125 5.039063-10.078125 3.789062-10.703125 3.125-11.328125 2.539063-10.703125 1.875-11.367188.625-11.328125v-10.703125l-1.25-11.328125-1.875-11.367187-2.539063-11.328125-3.789062-11.328125-4.375-11.328125-5.039063-11.367188-6.328125-11.328125-6.289062-11.328125-8.203125-11.328125-8.164063-11.992187-10.078125-11.328125-10.078125-11.953125-11.328125-12.617188-12.617187-12.617187-13.242188-12.578125-14.453125-12.617188-15.117187-13.203125-15.78125-13.242187-16.992188-13.203125-16.992187-13.242188-18.28125-13.242187-18.28125-13.203125-19.53125-13.242188-19.492188-12.578125-19.53125-12.617187-19.53125-11.328125L423.610625 404.24l-19.53125-10.703125-19.53125-10.078125-18.90625-10.078125-18.90625-8.828125-17.617187-8.164062-17.65625-6.953125L294.47 342.52125l-16.367187-5.664062-30.234375-8.828125-13.867188-2.5L220.759063 322.99l-12.578125-1.25-12.617188-.625-11.953125.625-10.703125 1.875-10.703125 2.539063-10.078125 3.789062-8.828125 4.375L134.47 340.02125l-8.164062 6.914063-7.578125 8.203125-6.914063 8.164062-6.328125 10.078125-5.664062 10.078125-5.039063 11.992188-4.414062 11.953125-4.375 12.617187-3.164063 13.828125-3.164062 13.867188-2.5 14.492187-1.914063 15.117188-1.875 15.117187-1.25 15.742188-.625 15.117187-.625 16.367188-.664062 15.742187v31.523438l.664062 16.367187.625 15.742188v17.65625l1.25 18.242187.625 18.28125 1.25 18.28125 1.289063 18.867188 1.25 18.90625 1.875 19.53125 2.539062 18.90625 2.5 19.53125 3.164063 19.53125L91.0325 826.27125l3.75 18.90625 4.414063 18.90625 5.039062 18.28125 5.039063 17.617188 5.664062 16.992187 6.328125 15.78125 6.914063 15.117188 6.914062 13.828125 7.578125 13.242187 8.164063 11.953125 8.828125 10.742188 8.828125 10.078125 9.453125 8.789062 10.078125 7.578125zm0 0" class="a"/><path fill-rule="evenodd" fill="#000" fill-opacity="1" d="M69.2461 59.9727c0 .628906-.507813 1.136719-1.132813 1.136719s-1.132812-.507813-1.132812-1.136719c0-.625.507812-1.132812 1.132812-1.132812S69.2461 59.3477 69.2461 59.9727"/><g class="a"><path d="M691.930938 595.763438c0-6.289063-5.078125-11.367188-11.328125-11.367188s-11.328125 5.078125-11.328125 11.367188c0 6.25 5.078125 11.328125 11.328125 11.328125s11.328125-5.078125 11.328125-11.328125zm0 0"/><path d="M850.680938 595.763438c0-93.945313-76.171875-170.078125-170.078125-170.078125-93.945313 0-170.078125 76.132812-170.078125 170.078125 0 93.90625 76.132812 170.039062 170.078125 170.039062 93.90625 0 170.078125-76.132812 170.078125-170.039062zm0 0"/><path d="M935.72 595.763438c0-140.898438-114.21875-255.117188-255.117187-255.117188-140.898438 0-255.117188 114.21875-255.117188 255.117188 0 140.859375 114.21875 255.078125 255.117188 255.078125 140.898437 0 255.117187-114.21875 255.117187-255.078125zm0 0"/><path d="M1191.462188 595.763438c0-282.148438-228.710938-510.859375-510.859375-510.859375-282.148438 0-510.859375 228.710937-510.859375 510.859375 0 282.109375 228.710937 510.820312 510.859375 510.820312 282.148437 0 510.859375-228.710937 510.859375-510.820312zm0 0"/><path d="M797.75125 595.763438c0-64.726563-52.460937-117.1875-117.148437-117.1875s-117.148438 52.460937-117.148438 117.1875c0 64.6875 52.460938 117.148437 117.148438 117.148437S797.75125 660.450938 797.75125 595.763438zm0 0"/></g></g><path d="M7.1719-1.5625l-.2031-.1719C5.890675-.6719 5.203175-.32815 4.2188-.32815c-1.328125 0-2.09375-.890625-2.09375-2.4375 0-1.4375.578125-2.875 1.515625-3.84375.5625-.59375 1.3125-.921875 2.109375-.921875 1.09375 0 1.703125.640625 1.828125 1.9375l.2188.0313.4375-2.375h-.25c-.09375.1875-.21875.265625-.453125.265625-.109375 0-.234375-.03125-.484375-.078125C6.515725-7.8906 6.03135-7.9531 5.640725-7.9531c-2.5625 0-4.859375 2.390625-4.859375 5.046875 0 1.828125 1.296875 3.125 3.125 3.125 1.234375 0 2.1875-.515625 3.265625-1.78125zm0 0" id="b"/><path d="M4.9688-1.2344l-.1562-.0937c-.109375.125-.15625.1875-.265625.328125-.28125.359375-.40625.46875-.5625.46875-.171875 0-.28125-.15625-.359375-.484375-.03125-.109375-.046875-.171875-.046875-.1875-.296875-1.125-.4375-1.765625-.4375-1.953125C3.671975-4.0781 4.09385-4.60935 4.3126-4.60935c.078125 0 .1875.046875.296875.109375.140625.078125.21875.09375.328125.09375.234375 0 .40625-.171875.40625-.421875 0-.265625-.203125-.4375-.484375-.4375-.53125 0-.96875.421875-1.8125 1.703125l-.125-.6562c-.171875-.8125-.296875-1.046875-.625-1.046875-.28125 0-.65625.09375-1.40625.34375l-.125.0469.0469.1719.203-.047c.234375-.0625.375-.078125.46875-.078125.296875 0 .375.109375.53125.828125l.3438 1.4688-.9687 1.3906c-.250075.35935-.48445.5781-.60945.5781-.078125 0-.203125-.03125-.3125-.109375C.3125-.75.1875-.78125.078125-.78125c-.234375 0-.40625.171875-.40625.40625 0 .3125.234375.5.609375.5.359375 0 .5-.09375 1.109375-.8125L2.4688-2.1094l.3594 1.4375c.140625.625.296875.796875.6875.796875.453125 0 .765625-.28125 1.453125-1.359375zm0 0" id="a"/><path d="M2.3281-.0781c0-.984375-.6875-1.140625-.96875-1.140625-.296875 0-.6875.171875-.6875.6875 0 .484375.421875.609375.734375.609375.09375 0 .140625-.015625.1875-.03125s.07815-.01565.1094-.01565c.078125 0 .15625.046875.15625.15625 0 .234375-.1875.765625-.96875 1.265625l.0938.2344c.359375-.125 1.34375-.90625 1.34375-1.765625zm0 0" id="c"/><path d="M7.3906 0v-.1875c-.75-.078125-.828125-.109375-1.15625-.671875l-2.0937-3.625L7.7344-7.1875c.34375-.25.609375-.375.890625-.421875V-7.8125H5.9688v.2031l.3281.0313c.296875.03125.40625.09375.40625.234375 0 .28125-.65625.90625-1.71875 1.671875l-1.8125 1.2656.625-2.3281c.1875-.59375.5-.828125 1.21875-.875v-.2031H1.75v.2031c.75.0625.921875.15625.921875.515625 0 .171875-.046875.40625-.140625.734375L1.0625-1.0781c-.21875.71875-.28125.78125-.984375.890625V0h2.9688v-.1875c-.75-.09375-.859375-.15625-.859375-.53125 0-.125.015625-.21875.09375-.46875l.0781-.25.7344-2.7187 1.4531 2.4844C4.828125-1.1875 5-.765625 5-.53125c0 .171875-.171875.265625-.546875.296875L4.0938-.1875V0zm0 0" id="q"/><path d="M3.5313-8.5781C1.796925-7.4531.578175-5.5156.578175-3.0781c0 2.234375 1.265625 4.484375 2.90625 5.5l.1563-.2031C2.0625.984375 1.609375-.46875 1.609375-3.109375c0-2.65625.484375-4.03125 2.03125-5.265625zm0 0" id="d"/><path d="M.4531-8.5781.3438-8.375C1.890625-7.140625 2.375-5.765625 2.375-3.109375 2.375-.46875 1.921875.984375.34375 2.21875l.1406.2031c1.65625-1.015625 2.921875-3.265625 2.921875-5.5 0-2.4375-1.21875-4.375-2.953125-5.5zm0 0" id="e"/><path d="M.7344 2.3125h.625L4.75-8.4531h-.6094zm0 0" id="f"/><path d="M4.7031 0v-.1719c-.9375-.015625-1.125-.140625-1.125-.71875V-8.0625l-.0937-.0156L1.3281-7v.1719c.140625-.0625.28125-.109375.328125-.125.203125-.09375.40625-.140625.53125-.140625.25 0 .359375.1875.359375.5625v5.4219c0 .390625-.09375.671875-.28125.78125-.1875.09375-.359375.140625-.859375.15625V0zm0 0" id="r"/><path d="M3.4531 0v-.125c-.687475-.015625-.8281-.109375-.8281-.53125v-5.25l-.0781-.0156L.9688-5.125V-5c.109375-.046875.203125-.078125.234375-.109375.171875-.046875.3125-.09375.40625-.09375.171875 0 .25.140625.25.421875V-.8125c0 .28125-.0625.484375-.203125.5625-.125.078125-.25.109375-.625.125V0zm0 0" id="g"/><path d="M4.1406-1.4687v-.5625H3.25v-3.8906h-.3906l-2.75 3.8906v.5625h2.4531V0H3.25v-1.4687zm-1.5781-.5625H.4531l2.1094-3zm0 0" id="s"/><path d="M4.1563-1.2031 4.0469-1.25c-.328125.5-.4375.578125-.828125.578125H1.125l1.4688-1.5312C3.375-3.03125 3.71875-3.6875 3.71875-4.375c0-.875-.71875-1.546875-1.625-1.546875-.484375 0-.9375.1875-1.265625.546875-.28125.296875-.40625.578125-.5625 1.1875l.1875.0469C.8125-5 1.125-5.28125 1.734375-5.28125c.734375 0 1.234375.5 1.234375 1.234375 0 .6875-.40625 1.5-1.140625 2.28125l-1.5625 1.6563V0H3.6875zm0 0" id="t"/><path d="M3.7813-1.9219c0-.4375-.140625-.859375-.390625-1.125-.171875-.203125-.34375-.296875-.71875-.46875.59375-.40625.8125-.734375.8125-1.203125 0-.71875-.5625-1.203125-1.359375-1.203125-.4375 0-.828125.140625-1.140625.421875-.265625.234375-.390625.46875-.59375 1l.1406.0313c.359375-.640625.75-.9375 1.296875-.9375.578125 0 .96875.390625.96875.9375 0 .328125-.125.640625-.34375.859375-.26565.2656-.51565.3906-1.1094.60935v.1094c.515625 0 .71875.015625.921875.09375.546875.1875.890625.6875.890625 1.296875 0 .734375-.5 1.3125-1.15625 1.3125-.234375 0-.40625-.0625-.734375-.28125-.25-.15625-.40625-.21875-.5625-.21875-.1875 0-.328125.125-.328125.3125 0 .3125.375.5 1 .5.671875 0 1.359375-.234375 1.765625-.59375C3.5625-.8281 3.78125-1.3281 3.78125-1.92185zm0 0" id="u"/></defs><use href="#p"/><use x="45.282" y="99.642" href="#b"/><use x="54.5831" y="99.642" href="#d"/><use x="59.0424" y="99.642" href="#a"/><use x="64.9244" y="99.642" href="#c"/><use x="70.0412" y="99.642" href="#r"/><use x="76.0188" y="99.642" href="#e"/><use x="124.657" y="28.771" href="#b"/><use x="133.9581" y="28.771" href="#d"/><use x="138.4174" y="28.771" href="#a"/><use x="144.2994" y="28.771" href="#c"/><use x="149.418" y="26.688" href="#g"/><use x="152.473" y="28.771" href="#f"/><use x="157.3061" y="28.771" href="#s"/><use x="161.6896" y="28.771" href="#e"/><use x="124.657" y="93.972" href="#b"/><use x="133.9581" y="93.972" href="#d"/><use x="138.4174" y="93.972" href="#a"/><use x="144.2994" y="93.972" href="#c"/><use x="149.418" y="91.889" href="#g"/><use x="152.473" y="93.972" href="#f"/><use x="157.3061" y="93.972" href="#t"/><use x="161.6896" y="93.972" href="#e"/><use x="124.657" y="59.954" href="#b"/><use x="133.9581" y="59.954" href="#d"/><use x="138.4174" y="59.954" href="#a"/><use x="144.2994" y="59.954" href="#c"/><use x="149.418" y="57.871" href="#g"/><use x="152.473" y="59.954" href="#f"/><use x="157.3061" y="59.954" href="#u"/><use x="161.6896" y="59.954" href="#e"/><use x="65.254" y="70.16" href="#a"/><use x="37.211" y="36.079" href="#q"/><style>.a{fill:none;stroke:#000;stroke-linecap:butt;stroke-linejoin:bevel;stroke-miterlimit:10;stroke-opacity:1;stroke-width:4.72425;transform:matrix(.1,0,0,-.1,.053,119.549)}.b{clip-rule:evenodd}.c{fill:none;stroke:#000;stroke-linecap:butt;stroke-linejoin:miter;stroke-miterlimit:10;stroke-opacity:1;stroke-width:4.72425;transform:matrix(.1,0,0,-.1,.053,119.549)}</style></svg>