<svg xmlns="http://www.w3.org/2000/svg" width="182pt" height="110pt" viewBox="0 0 182 110"><defs><path d="M5.3594-.9375l-.0937-.2344c-.4375.359375-.734375.53125-.921875.53125S4-.75 3.890625-.984375s-.25-.671875-.3125-1.03125L3.375-3.2187l.4219-.5781c.546875-.78125.875-1.0625 1.25-1.0625.1875 0 .328125.109375.390625.28125L5.6094-4.625l.1719-1.0156c-.140625-.078125-.25-.125-.359375-.125-.46875 0-.953125.4375-1.6875 1.53125l-.4531.6563-.0625-.5625c-.140625-1.1875-.46875-1.625-1.171875-1.625-.3125 0-.578125.09375-.6875.25l-.6875 1L.875-4.4062c.359375-.40625.59375-.5625.828125-.5625.390625 0 .65625.484375.859375 1.65625l.125.75-.4687.7344c-.515625.796875-.921875 1.1875-1.265625 1.1875C.78125-.640625.640625-.6875.625-.75l-.1406-.3437-.2344.0468c0 .2344-.015625.39065-.09375.76565C.125-.125.125-.09375.109375-.015625.28125.078125.484375.125.625.125c.390625 0 .859375-.34375 1.234375-.90625l.9063-1.3906.125.8281C3.0625-.328125 3.328125.125 3.75.125c.265625 0 .65625-.203125 1.03125-.546875zm0 0" id="a"/><path d="M2.875-1.0156l-.1094-.2187-.3125.2031c-.359375.25-.609375.359375-.734375.359375-.078125 0-.15625-.109375-.15625-.234375s.015625-.21875.09375-.484375l.9063-3.625c.0625-.203125.078125-.328125.078125-.4375 0-.203125-.09375-.3125-.296875-.3125-.265625 0-.6875.25-1.609375.890625l-.3281.2344.0781.2344.3906-.25c.34375-.21875.46875-.265625.578125-.265625s.203125.109375.203125.25c0 .09375-.046875.34375-.109375.53125L.7656-1.2812c-.109375.390625-.15625.6875-.15625.921875 0 .28125.125.46875.359375.46875.3125 0 .75-.265625 1.90625-1.125zM3.1563-8c0-.28125-.1875-.484375-.4375-.484375-.359375 0-.6875.390625-.6875.796875 0 .296875.1875.484375.484375.484375.359375 0 .640625-.34375.640625-.796875zm0 0" id="b"/><path d="M5.8594-5.6562l-.1406-.1094c-.34375.140625-.609375.203125-.875.234375l-.4219 1.5781c-.140625.5625-.5625 1.4375-.953125 2.015625-.421875.609375-1 1.140625-1.265625 1.140625s-.25-.578125-.234375-.734375l.1875-2.3125c.015625-.375.046875-.828125.046875-1.171875 0-.53125-.09375-.75-.296875-.75-.15625 0-.3125.09375-.890625.484375l-.9844.6719.1406.2031.5938-.3437c.0625-.0625.21875-.15625.296875-.15625.3125 0 .265625.609375.25.8125L1.1094-1.1875l-.0156.4688c0 .5.21875.84375.515625.84375.453125 0 1.453125-1.015625 2.34375-2.359375L3.375-.1875c-.609375 2.109375-1.21875 2.984375-2.046875 2.984375-.421875 0-.75-.328125-.75-.734375 0-.0625.015625-.15625.03125-.265625L.4844 1.75l-.5625.4063c-.015625.078125-.015625.15625-.015625.203125 0 .515625.4375.9375.984375.9375 1.265625 0 2.578125-1.484375 3.28125-3.6875zm0 0" id="c"/><path d="M2.6094-1.2969l-.1719-.1718c-.328125.109375-.53125.171875-1.171875.359375C1.1875-.203125.890625.578125.1875 1.71875l.1719.1406.4844-.2344c.96875-1.25 1.421875-2 1.765625-2.921875zm0 0" id="d"/><path d="M7.2813-2.9062v-.6719H4.3438V-6.5h-.6563v2.9219H.75v.6719h2.9375V.0313h.6563v-2.9375zm0 0" id="e"/><path d="M3.6406-9.0312C1.8125-7.84375.71875-5.796875.71875-3.234375c0 2.34375 1.140625 4.578125 2.875 5.78125L3.75 2.3438C2.09375.90625 1.8125-.484375 1.8125-3.28125 1.8125-6.0625 2.125-7.5 3.75-8.828125zm0 0" id="f"/><path d="M.5-9.0312l-.125.2031C2.015625-7.5 2.328125-6.0625 2.328125-3.28125c0 2.796875-.28125 4.1875-1.953125 5.625l.1563.2031c1.75-1.203125 2.890625-3.4375 2.890625-5.78125C3.421875-5.796875 2.3125-7.84375.5-9.03125zm0 0" id="g"/><path d="M6.1406-2.8281c0-1.625-1.171875-2.78125-2.8125-2.78125C1.59375-5.609375.375-4.375.375-2.59375.375-.90625 1.453125.234375 2.984375.234375c1.84375 0 3.15625-1.28125 3.15625-3.0625zm-1.1094.4375c0 1.375-.609375 2.234375-1.578125 2.234375C2.28125-.15625 1.5-1.296875 1.5-3c0-1.4375.5625-2.21875 1.625-2.21875 1.09375 0 1.90625 1.203125 1.90625 2.828125zm0 0" id="h"/><path d="M4.4688-5.4687c-.125-.09375-.34375-.140625-.5625-.140625-.359375 0-.734375.1875-.984375.5L2.25-4.3281v-1.2344l-.1094-.0469c-.609375.25-1.234375.421875-1.859375.5v.3281h.4375c.46875 0 .53125.078125.53125.875v2.6875c0 .75-.046875.84375-.453125.859375L.25-.3281v.3594C.734375.015625 1.234375 0 1.71875 0c.578125 0 1.140625.015625 1.71875.03125v-.3594l-.625-.0312C2.265625-.390625 2.25-.4375 2.25-1.21875v-2.0625c0-.71875.46875-1.3125 1.0625-1.3125.359375 0 .609375.171875.796875.546875h.25zm0 0" id="i"/><path d="M5 .0313v-.3594l-.625-.0312c-.65625-.03125-.78125-.171875-.78125-.78125v-7.0937l-.1562-.0625c-.78125.40625-1.625.765625-2.71875 1.15625l.0781.5h.125c.531225-.2345 1.04685-.468875 1.5781-.70325.0625 0 .09375.109375.09375.40625v5.7969c0 .609375-.125.75-.78125.78125l-.6719.0313V.0313C1.8125.015625 2.46875 0 3.125 0 3.734375 0 4.375.015625 5 .03125zm0 0" id="j"/></defs><path d="M10 371.601562h1800.039062" class="a"/><path d="M.7461 69.8516h.6016v6H.7461zm0 0"/><path d="M45.75 69.8516h.6016v6H45.75zm0 0"/><path d="M90.75 69.8516h.6016v6H90.75zm0 0"/><path d="M135.75 69.8516h.6016v6h-.6016zm0 0"/><path d="M180.75 69.8516h.6016v6h-.6016zm0 0"/><path d="M460 11.601562v1080" class="a"/><path d="M42.9883 108.4922h6v.6016h-6zm0 0"/><path d="M42.9883 72.4922h6v.6016h-6zm0 0"/><path d="M42.9883 36.4922h6v.6016h-6zm0 0"/><path d="M42.9883.4922h6v.6016h-6zm0 0"/><path d="M1194.960938 875.625c0 8.242188-6.679688 14.921875-14.921876 14.921875-8.28125 0-14.960937-6.679687-14.960937-14.921875 0-8.28125 6.679687-14.960938 14.960937-14.960938 8.242188 0 14.921876 6.679688 14.921876 14.960938zm0 0" class="b"/><use x="79.9609" y="13.1012" href="#a"/><use x="89.2007" y="13.1012" href="#e"/><use x="100.1206" y="13.1012" href="#b"/><use x="104.6808" y="13.1012" href="#c"/><use x="114.2808" y="13.1012" href="#h"/><use x="120.7609" y="13.1012" href="#i"/><use x="128.441" y="13.1012" href="#f"/><use x="132.8809" y="13.1012" href="#a"/><use x="139.841" y="13.1012" href="#d"/><use x="145.7211" y="13.1012" href="#c"/><use x="152.3211" y="13.1012" href="#g"/><g class="b"><path d="M474.960938 875.625c0 8.242188-6.679688 14.921875-14.960938 14.921875-8.242188 0-14.921875-6.679687-14.921875-14.921875 0-8.28125 6.679687-14.960938 14.921875-14.960938 8.28125 0 14.960938 6.679688 14.960938 14.960938zm0 0"/><path d="M1194.960938 371.601562c0 8.242188-6.679688 14.960938-14.921876 14.960938-8.28125 0-14.960937-6.71875-14.960937-14.960938 0-8.242187 6.679687-14.960937 14.960937-14.960937 8.242188 0 14.921876 6.71875 14.921876 14.960937zm0 0"/></g><use x="114.882" y="84.577" href="#a"/><use x="28.9832" y="24.9586" href="#b"/><use x="33.5434" y="24.9586" href="#c"/><g class="b"><path d="M474.960938 731.601562c0 8.242188-6.679688 14.960938-14.960938 14.960938-8.242188 0-14.921875-6.71875-14.921875-14.960938 0-8.242187 6.679687-14.921874 14.921875-14.921874 8.28125 0 14.960938 6.679687 14.960938 14.921874zm0 0"/><path d="M924.960938 371.601562c0 8.242188-6.679688 14.960938-14.960938 14.960938-8.242188 0-14.921875-6.71875-14.921875-14.960938 0-8.242187 6.679687-14.960937 14.921875-14.960937 8.28125 0 14.960938 6.71875 14.960938 14.960937zm0 0"/></g><use x="88.0012" y="87.2168" href="#j"/><use x="36.0629" y="41.0391" href="#b"/><g class="a"><path d="M1180.039062 371.601562v25.195313"/><path d="M1180.039062 447.1875v25.234375"/><path d="M1180.039062 472.421875v25.195313"/><path d="M1180.039062 548.007812v25.195313"/><path d="M1180.039062 573.203125v25.195313"/><path d="M1180.039062 648.789062v25.234376"/><path d="M1180.039062 674.023438v25.195312"/><path d="M1180.039062 749.609375v25.195313"/><path d="M1180.039062 774.804688V800"/><path d="M1180.039062 850.390625V875.625"/><path d="M460 875.625h25.742188"/><path d="M537.148438 875.625h25.703124"/><path d="M562.851562 875.625h25.742188"/><path d="M640 875.625h25.742188"/><path d="M665.742188 875.625h25.703124"/><path d="M742.851562 875.625h25.742188"/><path d="M768.59375 875.625h25.703125"/><path d="M845.703125 875.625h25.742187"/><path d="M871.445312 875.625h25.703126"/><path d="M948.59375 875.625h25.703125"/><path d="M974.296875 875.625H1000"/><path d="M1051.445312 875.625h25.703126"/><path d="M1077.148438 875.625h25.703124"/><path d="M1154.296875 875.625h25.742187"/></g><style>.a{fill:none;stroke:#000;stroke-miterlimit:10;stroke-width:3.985;transform:matrix(.1,0,0,-.1,0,110)}.b{stroke:#000;stroke-miterlimit:10;stroke-width:3.985;transform:matrix(.1,0,0,-.1,0,110)}</style></svg>