<svg xmlns="http://www.w3.org/2000/svg" width="151pt" height="121pt" viewBox="0 0 151 121"><defs><clipPath id="i"><path d="M1 0h120v120.5508H1zm0 0"/></clipPath><clipPath id="j"><path d="M.6367 0H127v120.5508H.6367zm0 0"/></clipPath><clipPath id="k"><path d="M54 45h73v23H54zm0 0"/></clipPath><clipPath id="l"><path d="M.6367 120.5508h132v-121h-132zm119.9649-69.082.125.8789-8.7539 2.7109 7.2422-2.9609-7.7461-.7578zm0 0" class="b"/></clipPath><clipPath id="m"><path d="M72 67h60v34H72zm0 0"/></clipPath><clipPath id="n"><path d="M.6367 120.5508h132v-121h-132zM72.414 68.4102v-.8789l9.0703-1.4492-7.5586 1.8867 7.5586 1.8906zm0 0" class="b"/></clipPath><clipPath id="o"><path d="M54 22h39v46H54zm0 0"/></clipPath><clipPath id="p"><path d="M.6367 120.5508h132v-121h-132zm85.5078-91.8242.6289.5039-4.5352 7.9375 3.3398-7.0547-6.3008 4.6602zm0 0" class="b"/></clipPath><clipPath id="q"><path d="M51 33h17v35H51zm0 0"/></clipPath><clipPath id="r"><path d="M.6367 120.5508h132v-121h-132zm56.7227-80.2969.8828-.125 2.707 8.7539-2.9609-7.2422-.7539 7.7461zm0 0" class="b"/></clipPath><clipPath id="s"><path d="M0 0h133v121H0z"/></clipPath><g id="t" clip-path="url(#s)"><path d="M120.2852 60.4727c0 32.910156-26.679687 59.589844-59.589844 59.589844-32.90625 0-59.585937-26.679688-59.585937-59.589844 0-32.90625 26.679687-59.585937 59.585937-59.585937 32.910157 0 59.589844 26.679687 59.589844 59.585937" style="fill-rule:evenodd;fill:#e9e9e9;fill-opacity:1;clip-path:url(#i)"/><g clip-path="url(#j)"><path d="M1196.481563 600.763438c0-329.101563-266.796876-595.898438-595.898438-595.898438-329.0625 0-595.859375 266.796875-595.859375 595.898438 0 329.0625 266.796875 595.859375 595.859375 595.859375 329.101562 0 595.898438-266.796875 595.898438-595.859375zm0 0" style="fill:none;stroke-width:4.72425;stroke-linecap:round;stroke-linejoin:miter;stroke:#000;stroke-opacity:1;stroke-dasharray:9.4485,9.4485;stroke-dashoffset:9.4485;stroke-miterlimit:10;transform:matrix(.1,0,0,-.1,.637,120.549)"/></g><path fill-rule="evenodd" fill="#888" fill-opacity="1" d="M21.0117 19.8477l1.1367-.5703 1.1953-.4375 1.2617-.3164 1.3828-.2539 1.4492-.1875 1.5117-.0625h1.5742l1.6406.125 1.6992.1914 1.7656.25 1.8242.3789 1.8281.4414 1.8242.5039 1.8906.5664 1.8281.6289 1.8906.6914 1.8242.7578 1.7656.7539 1.7617.8203 1.6406.8203 1.6367.8789 1.5742.8828 1.5117.8828 1.4492.8828 1.3867.8828 1.3203.8789 1.1328.7578 1.0742.8164 2.0156 1.6406.9414.8164.9453.8828.8828.8828.8203.9453.8164.9453.6953.9414.6914 1.0078.6289 1.0078.5039 1.0742.5039 1.0078.3789 1.0703.3164 1.1328.25 1.0703.1914 1.1328.0625 1.1367v1.0703l-.125 1.1328-.1914 1.1328-.25 1.1367-.3789 1.1328-.4414 1.1328-.5039 1.1328-.6289 1.1367-.6289 1.1328-.8203 1.1328-.8203 1.1953-1.0078 1.1367-1.0078 1.1953L67.5 64.5703l-1.2617 1.2578-1.3203 1.2617-1.4492 1.2578-1.5117 1.3242-1.5742 1.3203-1.7031 1.3242-1.6992 1.3242-1.8281 1.3203-1.8242 1.3242-1.9533 1.3244-1.9531 1.2578-1.9531 1.2617-1.9531 1.1328L43.5 82.457l-1.9531 1.0703-1.9531 1.0078-1.8867 1.0078-1.8906.8828-1.7656.8203-1.7617.6914-1.7031.6953-1.6367.5664-1.5117.4414-1.5117.4375-1.3867.2539-1.3203.25-1.2617.1289-1.2578.0625-1.1992-.0625-1.0703-.1914-1.0703-.25-1.0078-.3789-.8828-.4414-.8789-.5664-.8203-.6914-.7578-.8203-.6914-.8203-.6289-1.0078-.5664-1.0078-.5039-1.1953-.4414-1.1953-.4414-1.2617-.3164-1.3867-.3125-1.3828-.2539-1.4492-.1875-1.5117-.1914-1.5117-.125-1.5742-.0625-1.5117-.0625-1.6406-.0625-1.5742v-3.1484l.0625-1.6367.0625-1.5781v-1.7617l.125-1.8281.0625-1.8242.1289-1.8281.125-1.8906.125-1.8867.1914-1.9531.25-1.8906.2539-1.9531.3125-1.9531.3789-1.9531.3789-1.8906.4414-1.8867.5039-1.8281.5039-1.7617.5664-1.7031.6289-1.5742.6914-1.5117.6953-1.3867.7539-1.3203.8203-1.1992.8828-1.0703.8789-1.0078.9453-.8828 1.0078-.7539"/><path d="M203.747187 1007.013438l11.367188 5.703125 11.953125 4.375 12.617187 3.164062 13.828125 2.539063 14.492188 1.875 15.117187.625h15.742188l16.40625-1.25 16.992187-1.914063 17.65625-2.5 18.242188-3.789062 18.28125-4.414063 18.242187-5.039062 18.90625-5.664063 18.28125-6.289062 18.90625-6.914063 18.242188-7.578125 17.65625-7.539062 17.617187-8.203125 16.40625-8.203125 16.367188-8.789063 15.742187-8.828125 15.117188-8.828125 14.492187-8.828125 13.867188-8.828125 13.203125-8.789062 11.328125-7.578125 10.742187-8.164063 20.15625-16.40625 9.414063-8.164062 9.453125-8.828125 8.828125-8.828125 8.203125-9.453125 8.164062-9.453125 6.953125-9.414063L719.645625 806.74l6.289062-10.078125 5.039063-10.742187 5.039062-10.078125 3.789063-10.703125 3.164062-11.328125 2.5-10.703125L747.38 731.779063l.625-11.367188V709.70875l-1.25-11.328125-1.914063-11.328125-2.5-11.367187-3.789062-11.328125-4.414063-11.328125-5.039062-11.328125-6.289063-11.367188-6.289062-11.328125L708.3175 607.6775l-8.203125-11.953125-10.078125-11.367187-10.078125-11.953125L668.63 559.786875l-12.617188-12.578125-13.203125-12.617187-14.492187-12.578125-15.117188-13.242188-15.742187-13.203125-17.03125-13.242187-16.992188-13.242188-18.28125-13.203125-18.242187-13.242187L507.38 429.39625l-19.53125-12.578125-19.53125-12.617187-19.53125-11.328125L428.63 380.919688l-19.53125-10.703125-19.53125-10.078125-18.867188-10.078125-18.90625-8.828125-17.65625-8.203125-17.617187-6.914063-17.03125-6.953125-16.367188-5.664062L268.005 309.08375l-15.117188-4.375-13.867187-2.539062-13.203125-2.5-12.617188-1.289063-12.578125-.625-11.992187.625-10.703125 1.914063-10.703125 2.5-10.078125 3.789062-8.828125 4.414063-8.789063 5.664062-8.203125 6.914063-7.578125 8.203125-6.914062 8.203125-6.289063 10.078125L104.88 360.138438l-5.039063 11.953125-4.414062 11.953125-4.414063 12.617187-3.164062 13.867188-3.125 13.828125-2.539063 14.492187-1.875 15.117188-1.914062 15.117187-1.25 15.742188-.625 15.117187-.625 16.40625-.625 15.742188v31.484375l.625 16.367187.625 15.78125v17.617188l1.25 18.28125.625 18.242187 1.289062 18.28125 1.25 18.90625 1.25 18.867188 1.914063 19.53125 2.5 18.90625 2.539062 19.53125 3.125 19.53125 3.789063 19.53125 3.789062 18.90625 4.414063 18.867187 5.039062 18.28125 5.039063 17.617188 5.664062 17.03125 6.289063 15.742187 6.914062 15.117188 6.953125 13.867187 7.539063 13.203125 8.203125 11.992188 8.828125 10.703125 8.789062 10.078125 9.453125 8.828125 10.078125 7.539062zm0 0" class="c"/><path fill-rule="evenodd" fill="#000" fill-opacity="1" d="M61.832 60.4727c0 .628906-.507812 1.136719-1.136719 1.136719-.625 0-1.132812-.507813-1.132812-1.136719 0-.625.507812-1.132812 1.132812-1.132812.628907 0 1.136719.507812 1.136719 1.132812"/><path d="M611.950312 600.763438c0-6.289063-5.078125-11.367188-11.367187-11.367188-6.25 0-11.328125 5.078125-11.328125 11.367188 0 6.25 5.078125 11.328125 11.328125 11.328125 6.289062 0 11.367187-5.078125 11.367187-11.328125zm0 0" class="c"/><g clip-path="url(#k)"><g clip-path="url(#l)"><path d="M600.583125 600.763438l595.273438 85" class="a"/></g></g><path d="M1108.3175 692.091563l77.460938-7.578125-72.421875-29.609375" class="a"/><g clip-path="url(#m)"><g clip-path="url(#n)"><path d="M1309.255 203.888438l-.664062.664062-.625 2.5-1.25 3.164063-1.875 5.664062-2.539063 7.539063-3.789062 8.828125-5.039063 10.703125-5.039062 12.617187-6.289063 13.203125-6.914062 13.867188-8.203125 15.117187-8.828125 14.492188-10.078125 15.117187-10.703125 15.742188-12.578125 15.117187-14.492188 15.742188-16.367187 15.742187-18.28125 16.40625-21.40625 16.367188-23.320313 15.742187-25.820312 15.117188-25.195313 12.617187-25.195312 11.328125L1030.1925 486.74l-24.570313 8.828125-23.320312 6.289063-22.65625 5.664062-22.03125 5.039063-21.445313 3.789062-21.40625 2.5-20.78125 2.539063-19.53125 1.875-19.53125 1.25-18.90625.625-17.617187.664062h-16.367188l-14.492187.625h-23.945313l-8.203125-.625h-13.203125" class="c"/></g></g><g class="d"><path d="M808.47375 506.89625l-75.585938 18.90625 75.585938 18.867188" class="e"/><path d="M799.020625 600.763438c0-109.609375-88.828125-198.4375-198.4375-198.4375-109.570313 0-198.398438 88.828125-198.398438 198.4375 0 109.570312 88.828125 198.398437 198.398438 198.398437 109.609375 0 198.4375-88.828125 198.4375-198.398437zm0 0" class="f"/></g><g clip-path="url(#o)"><g clip-path="url(#p)"><path d="M600.583125 600.763438l255.117187 311.796875" class="a"/></g></g><path d="M786.403437 857.755625l63.007813 46.601563-33.398438-70.546875" class="a"/><g clip-path="url(#q)"><g clip-path="url(#r)"><path d="M600.583125 600.763438l-28.320313 198.398437" class="a"/></g></g><g class="d"><path d="M565.97375 711.622813l7.539062 77.460937 29.609375-72.421875" class="e"/><path d="M997.419062 600.763438c0-219.179688-177.65625-396.875-396.835937-396.875-219.140625 0-396.835938 177.695312-396.835938 396.875 0 219.140625 177.695313 396.835937 396.835938 396.835937 219.179687 0 396.835937-177.695312 396.835937-396.835937zm0 0" class="f"/></g></g><path d="M7.3906 0v-.1875c-.75-.078125-.828125-.109375-1.15625-.671875l-2.0937-3.625L7.7344-7.1875c.34375-.25.609375-.375.890625-.421875V-7.8125H5.9688v.2031l.3281.0313c.296875.03125.40625.09375.40625.234375 0 .28125-.65625.90625-1.71875 1.671875l-1.8125 1.2656.625-2.3281c.1875-.59375.5-.828125 1.21875-.875v-.2031H1.75v.2031c.75.0625.921875.15625.921875.515625 0 .171875-.046875.40625-.140625.734375L1.0625-1.0781c-.21875.71875-.28125.78125-.984375.890625V0h2.9688v-.1875c-.75-.09375-.859375-.15625-.859375-.53125 0-.125.015625-.21875.09375-.46875l.0781-.25.7344-2.7187 1.4531 2.4844C4.828125-1.1875 5-.765625 5-.53125c0 .171875-.171875.265625-.546875.296875L4.0938-.1875V0zm0 0" id="u"/><path d="M6.4375-2.3906c0-.875-.359375-1.3125-1.5-1.8125.84375-.203125 1.1875-.34375 1.578125-.671875.328125-.28125.515625-.6875.515625-1.171875 0-1.140625-.84375-1.765625-2.390625-1.765625h-3.0937v.2031c.765625.0625.921875.140625.921875.484375 0 .1875-.046875.46875-.125.765625L.875-1.0781c-.21875.7031-.296875.7656-.96875.8906V0h3.375c1.875 0 3.15625-.96875 3.15625-2.390625zm-1.2812-.0469c0 1.296875-.890625 2.078125-2.34375 2.078125-.5 0-.765625-.171875-.765625-.5 0-.15625.140625-.71875.421875-1.671875l.375-1.4219c.75 0 1.265625.046875 1.5.140625.515625.1875.8125.71875.8125 1.375zm.6719-3.7187c0 1.234375-.8125 1.8125-2.453125 1.8125h-.4062l.7656-2.7656c.078125-.265625.21875-.34375.6875-.34375.96875 0 1.40625.40625 1.40625 1.296875zm0 0" id="b"/><path d="M5.6094-3.7812c0-.921875-.515625-1.484375-1.375-1.484375-.78125 0-1.359375.375-2.046875 1.34375l.375-1.2969s-.03125-.046875-.0625-.046875h-.0156l-1.8437.25.0313.1875c.359375 0 .78125 0 .78125.328125 0 .140625-.421875 1.78125-.859375 3.375l-.6875 2.6719c-.125.5625-.28125.703125-.796875.71875v.1875h2.4375v-.1875c-.5625 0-.765625-.09375-.765625-.359375 0-.15625.203125-1.0625.453125-1.984375C1.53125.078125 1.75.125 2.015625.125c1.75 0 3.59375-1.984375 3.59375-3.90625zm-1.0781.0469c0 .78125-.328125 1.78125-.828125 2.5-.515625.75-1.09375 1.140625-1.734375 1.140625-.328125 0-.5625-.1875-.5625-.4375 0-.40625.40625-1.96875.765625-2.859375C2.484375-4.1875 3.15625-4.75 3.734375-4.75c.015625 0 .046875 0 .0625 0 .5.015625.734375.328125.734375 1.015625zm0 0" id="a"/><path d="M2.3281-.0781c0-.984375-.6875-1.140625-.96875-1.140625-.296875 0-.6875.171875-.6875.6875 0 .484375.421875.609375.734375.609375.09375 0 .140625-.015625.1875-.03125s.07815-.01565.1094-.01565c.078125 0 .15625.046875.15625.15625 0 .234375-.1875.765625-.96875 1.265625l.0938.2344c.359375-.125 1.34375-.90625 1.34375-1.765625zm0 0" id="c"/><path d="M4.7031 0v-.1719c-.9375-.015625-1.125-.140625-1.125-.71875V-8.0625l-.0937-.0156L1.3281-7v.1719c.140625-.0625.28125-.109375.328125-.125.203125-.09375.40625-.140625.53125-.140625.25 0 .359375.1875.359375.5625v5.4219c0 .390625-.09375.671875-.28125.78125-.1875.09375-.359375.140625-.859375.15625V0zm0 0" id="f"/><path d="M5.6719-1.6406l-.1562-.0625c-.4375.6875-.59375.796875-1.125.796875H1.5313l2-2.1094C4.609375-4.125 5.0625-5.03125 5.0625-5.96875c0-1.1875-.96875-2.109375-2.203125-2.109375-.65625 0-1.28125.265625-1.71875.734375C.75-6.9375.578125-6.546875.375-5.703125l.25.0625c.46875-1.171875.90625-1.5625 1.734375-1.5625 1 0 1.6875.6875 1.6875 1.6875 0 .9375-.5625 2.046875-1.5625 3.109375l-2.125 2.2656V0h4.6563zm0 0" id="g"/><path d="M5.1563-2.625c0-.609375-.1875-1.171875-.53125-1.53125-.234375-.265625-.46875-.40625-.984375-.640625.8125-.5625 1.109375-1 1.109375-1.640625 0-.96875-.75-1.640625-1.859375-1.640625-.59375 0-1.125.203125-1.546875.578125-.359375.328125-.546875.640625-.8125 1.359375l.1875.0469C1.203125-6.96875 1.75-7.359375 2.5-7.359375c.78125 0 1.3125.515625 1.3125 1.28125 0 .421875-.171875.859375-.484375 1.15625-.359375.359375-.6875.53125-1.5.828125v.1563c.703125 0 .984375.015625 1.265625.125.75.265625 1.203125.9375 1.203125 1.765625 0 1-.671875 1.78125-1.5625 1.78125-.3125 0-.5625-.078125-1-.375C1.375-.84375 1.171875-.9375.96875-.9375c-.28125 0-.453125.171875-.453125.421875 0 .421875.515625.6875 1.34375.6875.921875 0 1.875-.3125 2.4375-.8125C4.859375-1.125 5.15625-1.8125 5.15625-2.625zm0 0" id="h"/><path d="M3.5313-8.5781C1.796925-7.4531.578175-5.5156.578175-3.0781c0 2.234375 1.265625 4.484375 2.90625 5.5l.1563-.2031C2.0625.984375 1.609375-.46875 1.609375-3.109375c0-2.65625.484375-4.03125 2.03125-5.265625zm0 0" id="d"/><path d="M.4531-8.5781.3438-8.375C1.890625-7.140625 2.375-5.765625 2.375-3.109375 2.375-.46875 1.921875.984375.34375 2.21875l.1406.2031c1.65625-1.015625 2.921875-3.265625 2.921875-5.5 0-2.4375-1.21875-4.375-2.953125-5.5zm0 0" id="e"/></defs><use href="#t"/><use x="18.393" y="32.165" href="#u"/><use x="49.397" y="57.678" href="#f"/><use x="80.58" y="49.174" href="#g"/><use x="41.358" y="111.54" href="#b"/><use x="49.4995" y="111.54" href="#d"/><use x="54.8315" y="111.54" href="#a"/><use x="61.2873" y="111.54" href="#c"/><use x="66.4041" y="111.54" href="#h"/><use x="72.3817" y="111.54" href="#e"/><use x="47.028" y="91.696" href="#b"/><use x="55.1695" y="91.696" href="#d"/><use x="60.5015" y="91.696" href="#a"/><use x="66.9573" y="91.696" href="#c"/><use x="72.0741" y="91.696" href="#g"/><use x="78.0517" y="91.696" href="#e"/><use x="106.093" y="66.183" href="#h"/><use x="116.45" y="110.973" href="#b"/><use x="124.5915" y="110.973" href="#d"/><use x="129.9235" y="110.973" href="#a"/><use x="136.3793" y="110.973" href="#c"/><use x="141.4961" y="110.973" href="#f"/><use x="147.4737" y="110.973" href="#e"/><use x="53.986" y="70.215" href="#a"/><style>.a{fill:none;stroke:#000;stroke-linecap:butt;stroke-linejoin:miter;stroke-miterlimit:10;stroke-opacity:1;stroke-width:4.72425;transform:matrix(.1,0,0,-.1,.637,120.549)}.b{clip-rule:evenodd}.c{fill:none;stroke:#000;stroke-linecap:butt;stroke-linejoin:bevel;stroke-miterlimit:10;stroke-opacity:1;stroke-width:4.72425;transform:matrix(.1,0,0,-.1,.637,120.549)}.d{fill:none;stroke:#000;stroke-linejoin:miter;stroke-miterlimit:10;stroke-opacity:1;stroke-width:4.72425;transform:matrix(.1,0,0,-.1,.637,120.549)}.e{stroke-linecap:butt}.f{stroke-dasharray:9.4485,9.4485;stroke-dashoffset:9.4485;stroke-linecap:round}</style></svg>