<svg xmlns="http://www.w3.org/2000/svg" width="224pt" height="167pt" viewBox="0 0 224 167"><defs><path d="M5 .0313v-.3594l-.625-.0312c-.65625-.03125-.78125-.171875-.78125-.78125v-7.0937l-.1562-.0625c-.78125.40625-1.625.765625-2.71875 1.15625l.0781.5h.125c.531225-.2345 1.04685-.468875 1.5781-.70325.0625 0 .09375.109375.09375.40625v5.7969c0 .609375-.125.75-.78125.78125l-.6719.0313V.0313C1.8125.015625 2.46875 0 3.125 0 3.734375 0 4.375.015625 5 .03125zm0 0" id="a"/><path d="M3.6563.0313v-.2656l-.4531-.0312c-.484375-.03125-.5625-.125-.5625-.578125v-5.2031l-.125-.0312c-.5625.296875-1.1875.5625-1.984375.84375l.0625.375h.0781c.390625-.1875.78125-.359375 1.15625-.515625.0625 0 .078125.078125.078125.28125v4.25c0 .453125-.09375.546875-.578125.578125l-.4844.0313V.0313C1.328125.015625 1.8125 0 2.28125 0s.921875.015625 1.375.03125zm0 0" id="b"/><path d="M.7813 2.4219h.6563L5.0157-8.8906h-.6719zm0 0" id="c"/><path d="M4.5-.75l-.0781-.1562-.2344.1562c-.25.15625-.4375.265625-.53125.265625-.0625 0-.109375-.078125-.109375-.1875 0-.03125 0-.140625.015625-.171875l.5781-2.4219c.0625-.25.09375-.5.09375-.640625 0-.203125-.09375-.3125-.265625-.3125-.375 0-.984375.328125-1.5.8125-.328125.296875-.578125.59375-1.03125 1.234375l.3281-1.4062c.046875-.15625.0625-.265625.0625-.359375 0-.1875-.078125-.28125-.203125-.28125-.1875 0-.53125.1875-1.171875.640625l-.25.1719.0625.1875.2813-.1875C.875-3.625.90625-3.625.96875-3.625c.09375 0 .15625.078125.15625.21875 0 .4375-.359375 2.140625-.71875 3.390625l.0625.0938C.6875.015625.890625-.03125 1.078125-.0625c.171875-1.109375.359375-1.6875.75-2.28125C2.3125-3.078125 2.96875-3.625 3.359375-3.625c.09375 0 .140625.078125.140625.203125 0 .15625-.015625.34375-.09375.625L2.9531-.9375c-.078125.328125-.109375.53125-.109375.671875 0 .21875.09375.34375.265625.34375.21875 0 .53125-.1875 1.390625-.828125zm0 0" id="d"/></defs><g class="a"><path d="M172.851562 238.28125h28.59375"/><path d="M258.554688 238.28125h28.59375"/><path d="M287.148438 238.28125h28.554687"/><path d="M372.851562 238.28125h28.59375"/><path d="M401.445312 238.28125H430"/><path d="M487.148438 238.28125h28.554687"/><path d="M515.703125 238.28125h28.59375"/><path d="M601.445312 238.28125H630"/><path d="M630 238.28125h28.59375"/><path d="M715.703125 238.28125h28.59375"/><path d="M744.296875 238.28125h28.554687"/><path d="M830 238.28125h28.59375"/><path d="M858.59375 238.28125h28.554688"/><path d="M944.296875 238.28125h28.554687"/><path d="M972.851562 238.28125h28.59375"/><path d="M1058.59375 238.28125h28.554688"/><path d="M1087.148438 238.28125h28.59375"/><path d="M1172.890625 238.28125h28.554687"/><path d="M1201.445312 238.28125h28.59375"/><path d="M1287.148438 238.28125h28.59375"/><path d="M1315.742188 238.28125h28.554687"/><path d="M1401.445312 238.28125h28.59375"/><path d="M1430.039062 238.28125h28.554688"/><path d="M1515.742188 238.28125h28.554687"/><path d="M1544.296875 238.28125h28.554687"/><path d="M1630.039062 238.28125h28.554688"/><path d="M1658.59375 238.28125h28.554688"/><path d="M1744.296875 238.28125h28.59375"/><path d="M1772.890625 238.28125h28.554687"/><path d="M1858.59375 238.28125h28.554688"/><path d="M1887.148438 238.28125h28.59375"/><path d="M1972.890625 238.28125h28.554687"/><path d="M2001.445312 238.28125h28.59375"/><path d="M2087.1875 238.28125h28.554688"/><path d="M2115.742188 238.28125h28.554687"/><path d="M2201.445312 238.28125h28.59375"/></g><path d="M17.0313 140.1836h.6016v6h-.6016zm0 0"/><path d="M222.75 140.1836h.6016v6h-.6016zm0 0"/><g class="a"><path d="M172.851562 238.28125v27.773438"/><path d="M172.851562 321.601562V349.375"/><path d="M172.851562 349.375v27.773438"/><path d="M172.851562 432.734375v27.773437"/><path d="M172.851562 460.507812v27.773438"/><path d="M172.851562 543.828125v27.773437"/><path d="M172.851562 571.601562V599.375"/><path d="M172.851562 654.921875v27.773437"/><path d="M172.851562 682.695312v27.8125"/><path d="M172.851562 766.054688v27.773437"/><path d="M172.851562 793.828125v27.773437"/><path d="M172.851562 877.148438v27.773437"/><path d="M172.851562 904.921875v27.8125"/><path d="M172.851562 988.28125v27.773438"/><path d="M172.851562 1016.054688v27.773437"/><path d="M172.851562 1099.414062v27.773438"/><path d="M172.851562 1127.1875v27.773438"/><path d="M172.851562 1210.507812v27.773438"/><path d="M172.851562 1238.28125v27.773438"/><path d="M172.851562 1321.601562V1349.375"/><path d="M172.851562 1349.375v27.8125"/><path d="M172.851562 1432.734375v27.773437"/><path d="M172.851562 1460.507812v27.773438"/><path d="M172.851562 1543.828125v27.773437"/></g><path d="M14.2734 142.8242h6v.6016h-6zm0 0"/><path d="M14.2734 9.4883h6v.6016h-6zm0 0"/><g style="fill:none;stroke-width:7.9701;stroke:#000;stroke-miterlimit:10;transform:matrix(.1,0,0,-.1,0,167)"><path d="M172.851562 1571.601562 858.59375 238.28125"/><path d="M858.59375 238.28125h1371.445312"/></g><use x="7.0859" y="14.038" href="#a"/><use x="79.0187" y="152.254" href="#b"/><use x="82.1387" y="154.5341" href="#c"/><use x="87.2988" y="154.5341" href="#d"/><style>.a{fill:none;stroke:#000;stroke-miterlimit:10;stroke-width:3.985;transform:matrix(.1,0,0,-.1,0,167)}</style></svg>