<svg xmlns="http://www.w3.org/2000/svg" width="194pt" height="84pt" viewBox="0 0 194 84"><defs><clipPath id="g"><path d="M11 6h1v24h-1zm0 0"/></clipPath><clipPath id="h"><path d="M-.7344 87.55078h195v-88h-195zm12.7617-57.46484h-.8828l-1.4492-9.07031 1.8906 7.55859 1.8906-7.55859zm-.8828-23.55859h.8828l1.4492 9.07031-1.8906-7.55859-1.8906 7.55859zm0 0" class="b"/></clipPath><clipPath id="i"><path d="M11 29h1v24h-1zm0 0"/></clipPath><clipPath id="j"><path d="M-.7344 87.55078h195v-88h-195zm12.7617-34.78906h-.8828l-1.4492-9.07031L11.5859 51.25l1.8906-7.55859zm-.8828-23.55859h.8828l1.4492 9.07031-1.8906-7.55859-1.8906 7.55859zm0 0" class="b"/></clipPath><clipPath id="k"><path d="M68 69h35v1H68zm0 0"/></clipPath><clipPath id="l"><path d="M-.7344 87.55078h195v-88h-195zm103.4688-18.66406v.88281l-9.0703 1.44922 7.5586-1.89062-7.5586-1.89062zm-34.8984.88281v-.88281l9.0703-1.44922-7.5586 1.89063 7.5586 1.89063zm0 0" class="b"/></clipPath><clipPath id="m"><path d="M102 69h35v1h-35zm0 0"/></clipPath><clipPath id="n"><path d="M-.7344 87.55078h195v-88h-195zm137.4805-18.66406v.88281l-9.0664 1.44922 7.5547-1.89062-7.5547-1.89062zm-34.8945.88281v-.88281l9.0703-1.44922-7.5586 1.89063 7.5586 1.89063zm0 0" class="b"/></clipPath><clipPath id="o"><path d="M0 0h194v84H0z"/></clipPath><g id="p" clip-path="url(#o)"><path fill-rule="evenodd" fill="#d6d6d6" fill-opacity="1" d="M68.2773 52.32031h68.0313V6.96875H68.2774zm0 0"/><g style="fill:none;stroke-linecap:butt;stroke-linejoin:miter;stroke:#000;stroke-opacity:1;stroke-miterlimit:10;transform:matrix(.1,0,0,-.1,-.735,87.549)"><g stroke-width="4.72425"><g stroke-dasharray="28.3455"><path d="M236.607813 579.044688h1672.382812"/><path d="M1030.279688 125.529063V862.52125"/></g><path d="M179.928125 862.52125V125.529063h1757.382813"/><g stroke-dasharray="9.4485,28.3455" stroke-dashoffset="28.3455"><path d="M1370.435938 125.529063V862.52125"/><path d="M236.607813 805.8025h1672.382812"/><path d="M690.123438 125.529063V862.52125"/><path d="M236.607813 352.286875H1880.63125"/></g></g><g stroke-width="9.4485"><path d="M123.209375 352.286875h113.398438"/><path d="M123.209375 805.8025h113.398438"/><path d="M690.123438 182.20875V68.849375"/><path d="M1030.279688 182.20875V68.849375"/><path d="M1370.435938 182.20875V68.849375"/><path d="M179.928125 182.20875V68.849375"/><path d="M236.607813 125.529063H123.209375"/><path d="M123.209375 579.044688h113.398438"/></g></g><g clip-path="url(#g)"><g clip-path="url(#h)"><path d="M123.209375 805.8025V579.044688" class="a"/></g></g><g class="a"><path d="M104.303125 719.513438l18.90625 75.585937 18.90625-75.585937"/><path d="M142.115625 665.33375l-18.90625-75.585937-18.90625 75.585937"/></g><g clip-path="url(#i)"><g clip-path="url(#j)"><path d="M123.209375 579.044688V352.286875" class="a"/></g></g><g class="a"><path d="M104.303125 492.755625l18.90625 75.585938 18.90625-75.585938"/><path d="M142.115625 438.575938 123.209375 362.99l-18.90625 75.585938"/></g><g clip-path="url(#k)"><g clip-path="url(#l)"><path d="M690.123438 182.20875h340.15625" class="a"/></g></g><g class="a"><path d="M776.4125 163.3025l-75.585937 18.90625L776.4125 201.115"/><path d="M943.990625 201.115l75.585938-18.90625-75.585938-18.90625"/></g><g clip-path="url(#m)"><g clip-path="url(#n)"><path d="M1030.279688 182.20875h340.15625" class="a"/></g></g><g style="fill:none;stroke-linecap:butt;stroke:#000;stroke-opacity:1;stroke-miterlimit:10;transform:matrix(.1,0,0,-.1,-.735,87.549)"><g stroke-width="4.72425" stroke-linejoin="miter"><path d="M1116.56875 163.3025l-75.585937 18.90625 75.585937 18.90625"/><path d="M1284.146875 201.115l75.546875-18.90625-75.546875-18.90625"/></g><path stroke-width="9.4485" stroke-linejoin="bevel" d="M236.607813 238.888438h.625l1.875-1.25 5.039062-1.875L253.6 231.974375l11.992188-5.039062 15.117187-5.664063 33.984375-11.328125 17.03125-5.039062 15.742188-3.789063 15.117187-2.539062 13.867188-1.875 13.828125-.625 13.242187.625 13.242188 1.875 13.828125 2.539062 10.742187 3.164063 11.953125 3.125 11.953125 4.414062 12.617188 5.039063L491.1 222.52125l13.203125 5.664063 13.867188 6.953125L532.0375 242.6775l14.492188 8.203125 13.828125 8.164063L574.85 267.872813l13.867188 8.828125 13.242187 8.828125 13.203125 9.453125 12.617188 8.789062 11.953125 8.828125 11.328125 8.828125 10.078125 8.828125 10.078125 8.789063 9.453125 8.203125 10.078125 9.453125 8.828125 9.453125 9.453125 9.453125 8.828125 9.453125 8.164062 10.078125L734.85 404.5525l8.203125 10.078125 8.164063 9.453125 8.203125 9.453125 8.203125 8.828125 8.164062 8.828125 8.203125 8.164063 7.539063 8.203125 8.203125 6.914062 7.539062 6.953125 8.203125 6.289063 8.203125 5.664062 8.164063 5.039063 8.828125 5.039062 9.453125 5.039063 10.078125 4.414062 10.703125 3.789063 11.328125 4.414062L894.85 525.529063l12.578125 4.375 12.617188 4.414062 13.867187 5.039063 13.203125 4.414062 13.867188 5.039063 13.242187 5.664062 13.203125 5.664063 13.242188 5.703125 12.617187 6.289062 12.578125 6.289063 11.953125 6.914062 11.367188 7.578125 10.078125 7.539063 10.703125 8.203125 10.078125 8.828125 10.703125 8.828125 10.703125 9.453125 10.703125 10.078125 11.328125 10.078125 10.742187 10.703125 11.328125 10.078125 10.703125 10.703125 11.328125 10.078125 10.703125 9.453125 10.703125 8.789062 10.742188 8.203125 10.078125 7.578125 10.078125 6.289063 9.414062 5.664062 9.453125 4.414063 9.453125 3.789062 8.828125 1.875 10.078125 1.875h10.078125l10.703125-.625 10.703125-1.875 11.367188-2.539062 11.953125-3.125 11.953125-4.414063 12.617187-4.414062 12.578125-5.039063 12.617188-4.414062 13.242187-5.039063 12.578125-4.414062 13.242188-4.414063 12.578125-3.125 12.617187-2.539062 12.578125-1.875 13.242188-1.25h12.578125l10.703125 1.25 11.367187 1.875 11.328125 3.164062 11.953125 3.789063 13.242188 5.039062 13.867187 5.664063 15.117188 7.539062 16.367187 8.203125 17.65625 10.078125 18.867188 10.703125 19.53125 11.953125 41.5625 26.484375 20.15625 12.578125 18.28125 12.617188 16.367187 10.703125 13.867188 8.828125 10.078125 6.914062 6.953125 5.039063 3.75 2.5 1.914062 1.289062"/></g></g><path d="M5.0938-4.60937c0-.359375-.296875-.65625-.65625-.65625-.28125 0-.46875.171875-.46875.4375 0 .1875.09375.3125.328125.46875.234375.125.3125.234375.3125.40625 0 .46875-.421875 1.390625-1.453125 3.09375L2.9219-2.25c-.1875-1.0625-.859375-3.015625-1.03125-3.015625h-.1562L.5625-5.0625l-.3906.07813v.20313c.15625-.03125.25-.046875.375-.046875.484375 0 .703125.171875.921875.765625.328125.8125.984375 3.484375.984375 3.96875 0 .125-.046875.265625-.125.421875-.09375.15625-.625.859375-.84375 1.078125-.28125.296875-.421875.40625-.578125.40625-.078125 0-.15625-.046875-.28125-.140625C.4375 1.53125.328125 1.46875.171875 1.46875c-.25 0-.453125.203125-.453125.46875 0 .3125.25.53125.609375.53125.671875 0 1.96875-1.375 3.203125-3.4375 1-1.65625 1.5625-2.96875 1.5625-3.640625zm0 0" id="q"/><path d="M5.0625-7.32812c0-.4375-.4375-.78125-1.015625-.78125s-1.03125.25-1.46875.78125c-.359375.484375-.625 1.046875-.96875 2.21875H.5l-.0781.375H1.5L.4375.28125c-.265625 1.296875-.65625 1.9375-1.15625 1.9375-.140625 0-.234375-.078125-.234375-.1875 0-.046875.015625-.078125.046875-.125.046875-.078125.0625-.125.0625-.203125 0-.25-.21875-.453125-.46875-.453125s-.4375.21875-.4375.5c0 .40625.40625.71875.9375.71875 1.0625 0 1.890625-1.171875 2.390625-3.375L2.4375-4.73437h1.2969l.0781-.375H2.5156C2.875-7 3.3125-7.84375 3.984375-7.84375c.15625 0 .265625.0625.265625.15625 0 0-.015625.0625-.046875.109375-.0625.09375-.078125.15625-.078125.25 0 .28125.171875.484375.4375.484375.28125 0 .5-.21875.5-.484375zm0 0" id="a"/><path d="M4.9688-1.23437l-.1562-.09375c-.109375.125-.15625.1875-.265625.328125-.28125.359375-.40625.46875-.5625.46875-.171875 0-.28125-.15625-.359375-.484375-.03125-.109375-.046875-.171875-.046875-.1875-.296875-1.125-.4375-1.765625-.4375-1.953125.53125-.921875.953125-1.453125 1.171875-1.453125.078125 0 .1875.046875.296875.109375.140625.078125.21875.09375.328125.09375.234375 0 .40625-.171875.40625-.421875 0-.265625-.203125-.4375-.484375-.4375-.53125 0-.96875.421875-1.8125 1.703125l-.125-.65625c-.171875-.8125-.296875-1.046875-.625-1.046875-.28125 0-.65625.09375-1.40625.34375l-.125.04688.0469.17188L1.0156-4.75c.234375-.0625.375-.078125.46875-.078125.296875 0 .375.109375.53125.828125l.3438 1.46875-.9687 1.39063C1.140625-.78125.90625-.5625.78125-.5625c-.078125 0-.203125-.03125-.3125-.109375C.3125-.75.1875-.78125.078125-.78125c-.234375 0-.40625.171875-.40625.40625 0 .3125.234375.5.609375.5.359375 0 .5-.09375 1.109375-.8125L2.4688-2.10937l.3594 1.4375c.140625.625.296875.796875.6875.796875.453125 0 .765625-.28125 1.453125-1.359375zm0 0" id="r"/><path d="M4.375-1.14062l-.1875-.125c-.65625.703125-1.125.96875-1.71875.96875-.671875 0-1.078125-.5-1.078125-1.359375 0-1.015625.421875-2.078125 1.078125-2.796875.359375-.359375.828125-.5625 1.3125-.5625.265625 0 .4375.09375.4375.234375 0 .0625-.015625.125-.078125.234375-.078125.140625-.09375.21875-.09375.34375 0 .28125.171875.453125.453125.453125.34375 0 .578125-.234375.578125-.546875 0-.5625-.53125-.96875-1.25-.96875-1.796875 0-3.46875 1.734375-3.46875 3.609375C.359375-.53125 1 .125 2.109375.125c.90625 0 1.53125-.359375 2.265625-1.265625zm0 0" id="b"/><path d="M5.375-5.20312c-.25-.03125-.515625-.0625-.796875-.0625-2.0625 0-3.640625.984375-3.9375 3.046875C.40625-.703125 1.21875.125 2.765625.125c.515625 0 1.09375-.03125 1.625-.15625L4.5-.45312c-.453125.078125-.890625.125-1.328125.125-1.046875 0-1.640625-.625-1.5-1.65625.03125-.125.046875-.28125.109375-.421875L4.5-2.48437l.1563-.5-2.7031-.10937c.3125-1.140625 1.5625-1.734375 2.640625-1.734375.21875 0 .421875 0 .625.03125zm0 0" id="c"/><path d="M5.5156-7.17187c0-.375-.546875-.6875-1.515625-.6875s-1.73435.54687-1.73435 1.26562c0 .796875.8125 1.65625.8125 1.671875 0 0-2.859375.46875-2.859375 3.171875 0 .8125.421875 1.921875 1.625 1.921875 1.6875 0 3.046875-1.546875 3.046875-3.5 0-1.984375-2.171875-2.234375-2.171875-3.390625 0-.53125.625-.765625 1.015625-.765625 1.125 0 .875.6875 1.375.6875.25 0 .40625-.171875.40625-.375zm-1.5781 4.25c0 1.53125-1 2.796875-1.8125 2.796875-.671875 0-.90625-.921875-.90625-1.578125 0-2.765625 2.078125-2.96875 2.09375-2.96875 0 .015625.625.78125.625 1.75zm0 0" id="d"/><path d="M6.8594-3.9375v-.67187H.7344v.67188zm0 2.42188v-.67188H.7344v.67188zm0 0" id="s"/><path d="M3.5313-8.57812c-1.734375 1.125-2.953125 3.0625-2.953125 5.5 0 2.234375 1.265625 4.484375 2.90625 5.5l.1563-.20312C2.0625.984375 1.609375-.46875 1.609375-3.109375c0-2.65625.484375-4.03125 2.03125-5.265625zm0 0" id="e"/><path d="M.4531-8.57812.3438-8.375C1.890625-7.140625 2.375-5.765625 2.375-3.109375 2.375-.46875 1.921875.984375.34375 2.21875l.1406.20313c1.65625-1.015625 2.921875-3.265625 2.921875-5.5 0-2.4375-1.21875-4.375-2.953125-5.5zm0 0" id="f"/></defs><use href="#p"/><use x="150.934" y="23.985" href="#q"/><use x="160.02" y="23.985" href="#s"/><use x="173.0272" y="23.985" href="#a"/><use x="179.0526" y="23.985" href="#e"/><use x="183.5119" y="23.985" href="#r"/><use x="189.3939" y="23.985" href="#f"/><use x="105.23" y="83.517" href="#b"/><use x="22.134" y="40.994" href="#a"/><use x="28.1594" y="40.994" href="#e"/><use x="32.7502" y="40.994" href="#b"/><use x="38.417" y="40.994" href="#f"/><use x=".246" y="21.151" href="#c"/><use x=".246" y="43.829" href="#c"/><use x="82.588" y="66.508" href="#d"/><use x="116.6005" y="66.508" href="#d"/><style>.a{fill:none;stroke:#000;stroke-linecap:butt;stroke-linejoin:miter;stroke-miterlimit:10;stroke-opacity:1;stroke-width:4.72425;transform:matrix(.1,0,0,-.1,-.735,87.549)}.b{clip-rule:evenodd}</style></svg>