<svg xmlns="http://www.w3.org/2000/svg" width="293pt" height="122pt" viewBox="0 0 293 122"><defs><path d="M4.2344-1.1406l-.0938-.2344-.1875.125c-.859375.5625-1.3125.765625-1.734375.765625-.671875 0-1.015625-.46875-1.015625-1.421875 0-1.265625.40625-2.5.984375-2.953125.25-.21875.546875-.3125.9375-.3125.53125 0 .96875.21875.96875.515625v.7188h.2656c.09375-.78125.1875-1.21875.296875-1.53125-.3125-.203125-.703125-.296875-1.15625-.296875-.53125 0-1.390625.421875-2.0625 1.015625C.75-4.140625.296875-2.90625.296875-1.625c0 1.140625.5 1.75 1.453125 1.75.65625 0 1.21875-.234375 1.890625-.765625zm0 0" id="o"/><path d="M5.8594-5.6562l-.1406-.1094c-.34375.140625-.609375.203125-.875.234375l-.4219 1.5781c-.140625.5625-.5625 1.4375-.953125 2.015625-.421875.609375-1 1.140625-1.265625 1.140625s-.25-.578125-.234375-.734375l.1875-2.3125c.015625-.375.046875-.828125.046875-1.171875 0-.53125-.09375-.75-.296875-.75-.15625 0-.3125.09375-.890625.484375l-.9844.6719.1406.2031.5938-.3437c.0625-.0625.21875-.15625.296875-.15625.3125 0 .265625.609375.25.8125L1.1094-1.1875l-.0156.4688c0 .5.21875.84375.515625.84375.453125 0 1.453125-1.015625 2.34375-2.359375L3.375-.1875c-.609375 2.109375-1.21875 2.984375-2.046875 2.984375-.421875 0-.75-.328125-.75-.734375 0-.0625.015625-.15625.03125-.265625L.4844 1.75l-.5625.4063c-.015625.078125-.015625.15625-.015625.203125 0 .515625.4375.9375.984375.9375 1.265625 0 2.578125-1.484375 3.28125-3.6875zm0 0" id="p"/><path d="M5.3594-.9375l-.0937-.2344c-.4375.359375-.734375.53125-.921875.53125S4-.75 3.890625-.984375s-.25-.671875-.3125-1.03125L3.375-3.2187l.4219-.5781c.546875-.78125.875-1.0625 1.25-1.0625.1875 0 .328125.109375.390625.28125L5.6094-4.625l.1719-1.0156c-.140625-.078125-.25-.125-.359375-.125-.46875 0-.953125.4375-1.6875 1.53125l-.4531.6563-.0625-.5625c-.140625-1.1875-.46875-1.625-1.171875-1.625-.3125 0-.578125.09375-.6875.25l-.6875 1L.875-4.4062c.359375-.40625.59375-.5625.828125-.5625.390625 0 .65625.484375.859375 1.65625l.125.75-.4687.7344c-.515625.796875-.921875 1.1875-1.265625 1.1875C.78125-.640625.640625-.6875.625-.75l-.1406-.3437-.2344.0468c0 .2344-.015625.39065-.09375.76565C.125-.125.125-.09375.109375-.015625.28125.078125.484375.125.625.125c.390625 0 .859375-.34375 1.234375-.90625l.9063-1.3906.125.8281C3.0625-.328125 3.328125.125 3.75.125c.265625 0 .65625-.203125 1.03125-.546875zm0 0" id="q"/><path d="M4.6719-1.7656c0-.375-.09375-.65625-.328125-.890625-.3125-.3125-.703125-.4375-1.765625-.640625-.96875-.1875-1.296875-.4375-1.296875-.984375 0-.59375.421875-.9375 1.140625-.9375.8125 0 1.421875.421875 1.421875.984375v.2813h.3281c.015625-.703125.03125-.984375.0625-1.359375-.640625-.203125-1.0625-.296875-1.5625-.296875-1.375 0-2.234375.65625-2.234375 1.734375 0 .578125.265625.984375.8125 1.234375.328125.140625.96875.328125 1.78125.515625.53125.109375.765625.375.765625.828125 0 .640625-.609375 1.09375-1.453125 1.09375-.875 0-1.5-.421875-1.5-1.015625v-.4844H.4844c0 .8125-.03125 1.171875-.125 1.65625.625.203125 1.09375.28125 1.640625.28125 1.5625 0 2.671875-.828125 2.671875-2zm0 0" id="f"/><path d="M3.2344.0313v-.3594l-.5469-.0313C2.28125-.375 2.25-.46875 2.25-1.21875v-7.3594l-.1094-.0937c-.53125.203125-.921875.296875-1.859375.4375v.3281H.9375c.21875 0 .3125.140625.3125.5v6.1875c0 .75-.046875.84375-.453125.859375L.25-.3281v.3594C.75.015625 1.25 0 1.75 0s.984375.015625 1.484375.03125zm0 0" id="g"/><path d="M6.1406-2.8281c0-1.625-1.171875-2.78125-2.8125-2.78125C1.59375-5.609375.375-4.375.375-2.59375.375-.90625 1.453125.234375 2.984375.234375c1.84375 0 3.15625-1.28125 3.15625-3.0625zm-1.1094.4375c0 1.375-.609375 2.234375-1.578125 2.234375C2.28125-.15625 1.5-1.296875 1.5-3c0-1.4375.5625-2.21875 1.625-2.21875 1.09375 0 1.90625 1.203125 1.90625 2.828125zm0 0" id="h"/><path d="M6.625-3.2344c0-1.328125-1.109375-2.375-2.484375-2.375-.453125 0-.875.125-1.0625.296875l-.9844.9063V-5.5625l-.1094-.0469C1.375-5.359375.75-5.1875.125-5.109375v.3281h.4375c.484375 0 .53125.078125.53125.875v6.0156c0 .75-.046875.828125-.453125.859375L.0938 3v.3594c.5-.03125 1-.03125 1.5-.03125s.984375 0 1.484375.03125V3l-.5469-.0312c-.40625-.03125-.4375-.109375-.4375-.859375V-.1562c.359375.21875.734375.296875 1.28125.296875.34375 0 .65625-.0625.84375-.1875L5.5781-.9375C6.0625-1.25 6.625-2.46875 6.625-3.234375zm-1.0469.4375c0 1.34375-.796875 2.328125-1.875 2.328125-.65625 0-1.140625-.21875-1.609375-.703125v-2.4843c0-.171875.0625-.296875.21875-.5.34375-.453125.828125-.671875 1.421875-.671875 1.125 0 1.84375.78125 1.84375 2.03125zm0 0" id="i"/><path d="M5.3594-3.3281c0-1.375-.890625-2.28125-2.234375-2.28125-.4375 0-.953125.15625-1.4375.453125C.703125-4.609375.3125-3.859375.3125-2.625c0 .765625.171875 1.40625.5 1.859375.46875.640625 1.28125 1 2.171875 1 .453125 0 .890625-.09375 1.375-.3125.328125-.125.578125-.28125.625-.359375l.2344-.4062-.1562-.1094c-.765625.453125-1.03125.5625-1.546875.5625-.78125 0-1.421875-.34375-1.765625-.9375-.218825-.39065-.29695-.7344-.3282-1.4219h1.75C4-2.75 4.5-2.78125 5.328125-2.921875c.015625-.15625.03125-.265625.03125-.40625zm-1.0625.1406-1.3437.0313c-.546875 0-.859375-.015625-1.5-.078125 0-.5625.046875-.8125.203125-1.125.25-.53125.765625-.859375 1.328125-.859375.390625 0 .703125.15625.921875.484375.265625.390625.390625.734375.390625 1.546875zm0 0" id="j"/><path d="M5.5625-4.375c0-2.625-.78125-3.859375-2.421875-3.859375-1.84375 0-2.796875 1.46875-2.796875 4.359375 0 1.40625.25 2.609375.671875 3.1875.421875.59375 1.09375.921875 1.828125.921875C4.65625.234375 5.5625-1.3125 5.5625-4.375zm-1.0156.5938C4.546875-1.234375 4.09375-.171875 3-.171875c-1.15625 0-1.65625-1.21875-1.65625-4.125 0-2.53125.453125-3.515625 1.578125-3.515625 1.171875 0 1.625 1.171875 1.625 4.03125zm0 0" id="k"/><path d="M.7813-4.1406h6.4375v-.7187H.7813zm0 2.5313h6.4375v-.7032H.7813zm0 0" id="l"/><path d="M3.625-6.3125c-.15625-.0625-.40625-.109375-.625-.109375-.09375 0-.234375.015625-.296875.0625-.21875.09375-.9375.625-1.140625.84375-.1875.1875-.296875.453125-.390625.953125l-.125.6875c-.359375.171875-.53125.25-.75.328125L.25-3.3594h.7031l-.0781.5C.609375-1.15625.296875.46875.09375 1.078125c-.15625.515625-.421875.78125-.734375.78125-.203125 0-.3125-.046875-.453125-.25l-.125.0313c-.03125.203125-.15625.625-.203125.703125.078125.046875.21875.078125.3125.078125.359375 0 .828125-.28125 1.171875-.6875.53125-.625.71875-1.234375 1.359375-4.3125.046875-.234375.125-.484375.171875-.78125H2.5c.046875-.171875.109375-.359375.15625-.484375l-.0312-.0625-.0625.0156c-.21875.0625-.3125.0625-.734375.0625H1.6875l.1719-.9844c.1406-.75.3906-1.09375.79685-1.09375.265625 0 .5.140625.625.34375l.0938-.0312.2031-.5937zm0 0" id="a"/><path d="M4.2969-4.1406l-.0937-.0781c-.265625.09375-.453125.140625-.65625.15625L3.25-2.9062c-.109375.421875-.421875 1.0625-.703125 1.484375-.3125.453125-.734375.828125-.9375.828125-.1875 0-.171875-.421875-.15625-.53125l.125-1.7031c.015625-.265625.03125-.59375.03125-.84375 0-.390625-.0625-.546875-.203125-.546875-.125 0-.234375.0625-.65625.34375l-.7187.4844.0938.1719.4375-.2656C.609475-3.5311.71885-3.5936.78135-3.5936c.234375 0 .1875.453125.1875.59375L.8125-.875v.3438c-.015625.375.15625.625.375.625.3125 0 1.0625-.75 1.71875-1.734375l-.4375 1.5c-.4375 1.546875-.875 2.1875-1.5 2.1875-.296875 0-.546875-.234375-.546875-.546875 0-.03125.015625-.109375.03125-.1875l-.0937-.0312-.4219.2969c0 .0625 0 .109375 0 .15625 0 .375.3125.6875.71875.6875.921875 0 1.890625-1.09375 2.40625-2.71875zm0 0" id="m"/><path d="M3.1094-.8281l-.0781-.1875-.125.0938c-.640675.4218-.9688.57805-1.2813.57805-.484375 0-.734375-.359375-.734375-1.046875 0-.9375.296875-1.828125.71875-2.171875.171875-.15625.390625-.234375.671875-.234375.40625 0 .71875.171875.71875.375v.5313h.2031c.0625-.578125.125-.890625.203125-1.125-.21875-.140625-.5-.203125-.84375-.203125-.390625 0-1.015625.296875-1.515625.734375S.21875-2.125.21875-1.1875c0 .84375.375 1.28125 1.0625 1.28125.484375 0 .90625-.171875 1.390625-.5625zm0 0" id="b"/><path d="M3.9375-.6875l-.0781-.1719c-.3125.265625-.53125.390625-.671875.390625s-.25-.078125-.34375-.265625c-.078125-.15625-.171875-.484375-.21875-.734375l-.1562-.8906.3125-.4219c.40625-.578125.640625-.78125.921875-.78125.140625 0 .234375.078125.28125.203125l.125-.0312.1406-.75c-.109375-.0625-.1875-.078125-.265625-.078125-.359375 0-.703125.3125-1.25 1.109375L2.4063-2.625l-.0469-.4219C2.25-3.90625 2.015625-4.21875 1.5-4.21875c-.234375 0-.421875.0625-.5.171875L.4844-3.3125l.1563.0938c.265625-.3125.4375-.421875.609375-.421875.28125 0 .484375.359375.625 1.21875l.0938.5313-.3437.5469c-.375.59375-.671875.875-.921875.875-.140625 0-.234375-.046875-.25-.078125l-.0937-.25-.1719.0313c0 .171875-.015625.28125-.078125.5625-.015825.1092-.015825.14045-.03145.187325.125.078125.265625.109375.375.109375.296875 0 .640625-.25.90625-.65625l.6719-1.0312.0938.6094C2.25-.25 2.4375.09375 2.75.09375c.1875 0 .46875-.140625.75-.40625zm0 0" id="n"/><path d="M2.6719-6.625C1.328125-5.75.53125-4.25.53125-2.359375c0 1.703125.828125 3.34375 2.109375 4.21875L2.75 1.7188C1.53125.671875 1.328125-.359375 1.328125-2.40625 1.328125-4.4375 1.5625-5.5 2.75-6.46875zm0 0" id="c"/><path d="M.375-6.625l-.0937.1563C1.46875-5.5 1.703125-4.4375 1.703125-2.40625 1.703125-.359375 1.5.671875.28125 1.71875l.1094.1406C1.671875.984375 2.5-.65625 2.5-2.359375 2.5-4.25 1.703125-5.75.375-6.625zm0 0" id="d"/><path d="M5.2969-2.1094v-.5156H.5625v.5156zm0 0" id="e"/><path d="M7.2188-3.9375v-.2656L.7813-7.2187V-6.5l5.2344 2.4531L.7813-1.6094v.7188zm0 4.6719V.0625H.7813v.6719zm0 0" id="r"/><path d="M7.2188-.9062v-.7031L1.9844-4.0625l5.2344-2.4531v-.7031L.7813-4.1719v.25zm0 1.6406V.0625H.7813v.6719zm0 0" id="s"/></defs><path d="M40 131.601562h2880.039062" class="a"/><path d="M3.7461 105.8516h.6016v6h-.6016zm0 0"/><path d="M147.75 105.8516h.6016v6h-.6016zm0 0"/><path d="M291.7539 105.8516h.6016v6h-.6016zm0 0"/><path d="M40 131.601562v1080" class="a"/><path d="M.9883 108.4922h6v.6016h-6zm0 0"/><path d="M.9883 54.4922h6v.6016h-6zm0 0"/><path d="M.9883.4922h6v.6016h-6zm0 0"/><g class="b"><path fill="none" d="M231.992188 520.390625 1672.03125 1006.40625"/><path d="M1499.960938 941.601562c0 11.015626-8.945313 19.921876-19.921876 19.921876-11.015624 0-19.960937-8.90625-19.960937-19.921876 0-10.976562 8.945313-19.921874 19.960937-19.921874 10.976563 0 19.921876 8.945312 19.921876 19.921874zm0 0"/><path d="M635.9375 650c0 11.015625-8.90625 19.921875-19.921875 19.921875S596.09375 661.015625 596.09375 650 605 630.078125 616.015625 630.078125 635.9375 638.984375 635.9375 650zm0 0"/><g fill="none"><path d="M1480.039062 941.601562v-28.90625"/><path d="M1480.039062 854.804688v-28.90625"/><path d="M1480.039062 825.898438v-28.945313"/><path d="M1480.039062 739.101562v-28.90625"/><path d="M1480.039062 710.195312V681.25"/><path d="M1480.039062 623.398438v-28.945313"/><path d="M1480.039062 594.453125v-28.90625"/><path d="M1480.039062 507.695312V478.75"/><path d="M1480.039062 478.75v-28.945312"/><path d="M1480.039062 391.953125v-28.90625"/><path d="M1480.039062 363.046875v-28.945313"/><path d="M1480.039062 276.25v-28.945312"/><path d="M1480.039062 247.304688v-28.90625"/><path d="M1480.039062 160.546875v-28.945313"/><path d="M616.015625 650v-25.898438"/><path d="M616.015625 572.265625v-25.9375"/><path d="M616.015625 546.328125v-25.9375"/><path d="M616.015625 468.554688V442.65625"/><path d="M616.015625 442.65625v-25.9375"/><path d="M616.015625 364.882812v-25.9375"/><path d="M616.015625 338.945312v-25.898437"/><path d="M616.015625 261.210938v-25.9375"/><path d="M616.015625 235.273438V209.375"/><path d="M616.015625 157.539062v-25.9375"/></g></g><use x="145.482" y="118.5852" href="#o"/><use x="58.6007" y="118.5852" href="#p"/><use x="13.6" y="28.559" href="#f"/><use x="18.6398" y="28.559" href="#g"/><use x="22.1199" y="28.559" href="#h"/><use x="28.6" y="28.559" href="#i"/><use x="35.8" y="28.559" href="#j"/><use x="44.5602" y="28.559" href="#l"/><use x="58.3598" y="21.959" href="#a"/><use x="62.4399" y="21.959" href="#c"/><use x="65.92" y="21.959" href="#m"/><use x="70.8399" y="21.959" href="#d"/><use x="73.8399" y="21.959" href="#e"/><use x="81.0399" y="21.959" href="#a"/><use x="85" y="21.959" href="#c"/><use x="88.2399" y="21.959" href="#b"/><use x="92.2" y="21.959" href="#d"/><path d="M57.0273 25.0898h38.2813v.7188H57.0274zm0 0"/><use x="69.0398" y="32.6391" href="#m"/><use x="73.9597" y="32.6391" href="#e"/><use x="80.0796" y="32.6391" href="#b"/><use x="100.2398" y="28.559" href="#r"/><use x="111.8796" y="28.559" href="#k"/><g class="b"><path fill="none" d="M1288.007812 984.804688 2440.039062 725.625"/><path d="M2075.976562 812.03125c0 10.976562-8.945312 19.921875-19.960937 19.921875-10.976563 0-19.921875-8.945313-19.921875-19.921875 0-11.015625 8.945312-19.921875 19.921875-19.921875 11.015625 0 19.960937 8.90625 19.960937 19.921875zm0 0"/><g fill="none"><path d="M2056.015625 812.03125v-28.359375"/><path d="M2056.015625 726.953125V698.59375"/><path d="M2056.015625 698.59375v-28.359375"/><path d="M2056.015625 613.554688v-28.359376"/><path d="M2056.015625 585.195312v-28.359374"/><path d="M2056.015625 500.15625v-28.359375"/><path d="M2056.015625 471.796875V443.4375"/><path d="M2056.015625 386.757812v-28.359374"/><path d="M2056.015625 358.398438v-28.359376"/><path d="M2056.015625 273.359375V245"/><path d="M2056.015625 245v-28.359375"/><path d="M2056.015625 159.960938v-28.359376"/></g></g><use x="202.483" y="118.5852" href="#q"/><use x="178.2435" y="28.559" href="#f"/><use x="183.2833" y="28.559" href="#g"/><use x="186.7634" y="28.559" href="#h"/><use x="193.2435" y="28.559" href="#i"/><use x="200.4435" y="28.559" href="#j"/><use x="209.204" y="28.559" href="#l"/><use x="223.1235" y="21.959" href="#a"/><use x="227.2036" y="21.959" href="#c"/><use x="230.4434" y="21.959" href="#n"/><use x="235.2434" y="21.959" href="#d"/><use x="238.2434" y="21.959" href="#e"/><use x="245.4434" y="21.959" href="#a"/><use x="249.5235" y="21.959" href="#c"/><use x="252.7633" y="21.959" href="#b"/><use x="256.7235" y="21.959" href="#d"/><path d="M221.793 25.0898h38.1602v.7188H221.793zm0 0"/><use x="233.444" y="32.6391" href="#n"/><use x="238.244" y="32.6391" href="#e"/><use x="244.3639" y="32.6391" href="#b"/><use x="264.7639" y="28.559" href="#s"/><use x="276.4037" y="28.559" href="#k"/><path d="M40 131.601562l71.992188 78.984376 71.992187 74.921874 72.03125 70.859376 71.992187 66.835937L400 485.976562l72.03125 58.710938 71.953125 54.6875L616.015625 650l71.992187 46.5625L760 739.101562l72.03125 38.476563 71.992188 34.453125 71.992187 30.351562 71.992187 26.328126 72.03125 22.265624 71.992188 18.242188 71.992188 14.179688 71.992187 10.117187 71.992187 6.09375 72.03125 1.992187 71.992188-1.992187 71.992188-6.09375 71.992187-10.117187 71.992187-14.179688 72.03125-18.242188 71.992188-22.265624 71.992188-26.328126 71.992187-30.351562 71.992187-34.453125 72.03125-38.476563 71.992188-42.539062L2344.023438 650l71.992187-50.625 72.03125-54.6875 71.992187-58.710938 71.992188-62.773437 71.992188-66.835937 72.03125-70.859376 71.992187-74.921874 71.992187-78.984376" style="fill:none;stroke-width:7.9701;stroke:#000;stroke-miterlimit:10;transform:matrix(.1,0,0,-.1,0,122)"/><style>.a{fill:none;stroke:#000;stroke-miterlimit:10;stroke-width:3.985;transform:matrix(.1,0,0,-.1,0,122)}.b{stroke:#000;stroke-miterlimit:10;stroke-width:3.985;transform:matrix(.1,0,0,-.1,0,122)}</style></svg>