<svg xmlns="http://www.w3.org/2000/svg" width="197pt" height="150pt" viewBox="0 0 197 150"><defs><path d="M5.8594-5.6562l-.1406-.1094c-.34375.140625-.609375.203125-.875.234375l-.4219 1.5781c-.140625.5625-.5625 1.4375-.953125 2.015625-.421875.609375-1 1.140625-1.265625 1.140625s-.25-.578125-.234375-.734375l.1875-2.3125c.015625-.375.046875-.828125.046875-1.171875 0-.53125-.09375-.75-.296875-.75-.15625 0-.3125.09375-.890625.484375l-.9844.6719.1406.2031.5938-.3437c.0625-.0625.21875-.15625.296875-.15625.3125 0 .265625.609375.25.8125L1.1094-1.1875l-.0156.4688c0 .5.21875.84375.515625.84375.453125 0 1.453125-1.015625 2.34375-2.359375L3.375-.1875c-.609375 2.109375-1.21875 2.984375-2.046875 2.984375-.421875 0-.75-.328125-.75-.734375 0-.0625.015625-.15625.03125-.265625L.4844 1.75l-.5625.4063c-.015625.078125-.015625.15625-.015625.203125 0 .515625.4375.9375.984375.9375 1.265625 0 2.578125-1.484375 3.28125-3.6875zm0 0" id="a"/><path d="M5.3594-.9375l-.0937-.2344c-.4375.359375-.734375.53125-.921875.53125S4-.75 3.890625-.984375s-.25-.671875-.3125-1.03125L3.375-3.2187l.4219-.5781c.546875-.78125.875-1.0625 1.25-1.0625.1875 0 .328125.109375.390625.28125L5.6094-4.625l.1719-1.0156c-.140625-.078125-.25-.125-.359375-.125-.46875 0-.953125.4375-1.6875 1.53125l-.4531.6563-.0625-.5625c-.140625-1.1875-.46875-1.625-1.171875-1.625-.3125 0-.578125.09375-.6875.25l-.6875 1L.875-4.4062c.359375-.40625.59375-.5625.828125-.5625.390625 0 .65625.484375.859375 1.65625l.125.75-.4687.7344c-.515625.796875-.921875 1.1875-1.265625 1.1875C.78125-.640625.640625-.6875.625-.75l-.1406-.3437-.2344.0468c0 .2344-.015625.39065-.09375.76565C.125-.125.125-.09375.109375-.015625.28125.078125.484375.125.625.125c.390625 0 .859375-.34375 1.234375-.90625l.9063-1.3906.125.8281C3.0625-.328125 3.328125.125 3.75.125c.265625 0 .65625-.203125 1.03125-.546875zm0 0" id="b"/><path d="M.7813-4.1406h6.4375v-.7187H.7813zm0 2.5313h6.4375v-.7032H.7813zm0 0" id="c"/><path d="M3.6563.0313v-.2656l-.4531-.0312c-.484375-.03125-.5625-.125-.5625-.578125v-5.2031l-.125-.0312c-.5625.296875-1.1875.5625-1.984375.84375l.0625.375h.0781c.390625-.1875.78125-.359375 1.15625-.515625.0625 0 .078125.078125.078125.28125v4.25c0 .453125-.09375.546875-.578125.578125l-.4844.0313V.0313C1.328125.015625 1.8125 0 2.28125 0s.921875.015625 1.375.03125zm0 0" id="e"/><path d="M4.0469-1.9687c0-.421875-.171875-.78125-.484375-1-.21875-.15625-.421875-.234375-.859375-.3125.703125-.546875.953125-.9375.953125-1.46875 0-.765625-.640625-1.296875-1.609375-1.296875-.59375 0-1 .171875-1.421875.59375l-.25 1.0938h.2813l.1563-.5c.09375-.296875.640625-.59375 1.09375-.59375.578125 0 1.03125.46875 1.03125 1.015625 0 .65625-.515625 1.21875-1.125 1.21875-.078125 0-.421875-.03125-.421875-.03125l-.1094.4688.0625.0469c.34375-.15625.5-.1875.75-.1875.71875 0 1.140625.453125 1.140625 1.25 0 .90625-.53125 1.484375-1.34375 1.484375-.40625 0-.765625-.125-1.03125-.375C.65625-.75.53125-.953125.375-1.421875l-.25.0781C.3125-.812525.390625-.4844.4375-.0469c.46875.15625.84375.21875 1.171875.21875 1.0625 0 2.4375-.921875 2.4375-2.140625zm0 0" id="d"/><path d="M.5625 1.7813h.4844l2.625-8.2969h-.4844zm0 0" id="f"/></defs><path d="M3.203125 731.601562h1440" class="a"/><path d="M.0664 73.8516H.668v6H.0664zm0 0"/><path d="M72.0703 73.8516h.6016v6h-.6016zm0 0"/><path d="M144.0703 73.8516h.6016v6h-.6016zm0 0"/><path d="M723.203125 11.601562v1440" class="a"/><path d="M69.3086 148.4922h6v.6016h-6zm0 0"/><path d="M69.3086 76.4922h6v.6016h-6zm0 0"/><path d="M69.3086 4.4883h6v.6016h-6zm0 0"/><g style="fill:none;stroke-width:7.9701;stroke:#000;stroke-miterlimit:10;transform:matrix(.1,0,0,-.1,0,150)"><path d="M269.648438 11.601562l3.75 16.835938"/><path d="M280.976562 62.070312l3.789063 16.835938"/><path d="M284.765625 78.90625l3.75 16.835938"/><path d="M296.09375 129.375l3.789062 16.835938"/><path d="M299.882812 146.210938l3.75 14.609374"/><path d="M311.210938 189.960938l3.75 14.609374"/><path d="M314.960938 204.570312l3.828124 14.570313"/><path d="M326.328125 248.320312l3.789063 14.570313"/><path d="M330.117188 262.890625l7.539062 25.039063"/><path d="M352.773438 337.929688l7.578124 25.039062"/><path d="M360.351562 362.96875l7.539063 21.171875"/><path d="M383.007812 426.484375l7.578126 21.171875"/><path d="M390.585938 447.65625 398.125 465.3125"/><path d="M413.28125 500.625l7.539062 17.65625"/><path d="M420.820312 518.28125l7.578126 14.453125"/><path d="M443.515625 561.640625l7.539063 14.453125"/><path d="M451.054688 576.09375l7.578124 11.5625"/><path d="M473.75 610.820312l7.539062 11.5625"/><path d="M481.289062 622.382812l7.578126 9.023438"/><path d="M503.984375 649.414062l7.539063 9.023438"/><path d="M511.523438 658.4375l7.578124 6.757812"/><path d="M534.21875 678.75l7.578125 6.796875"/><path d="M541.796875 685.546875l7.539063 4.84375"/><path d="M564.453125 700.078125l7.578125 4.882813"/><path d="M572.03125 704.960938l7.539062 3.242187"/><path d="M594.6875 714.6875l7.578125 3.242188"/><path d="M602.265625 717.929688l7.539063 1.992187"/><path d="M624.921875 723.867188 632.5 725.859375"/><path d="M632.5 725.859375l7.539062 1.015625"/><path d="M655.15625 728.867188l7.578125 1.054687"/><path d="M662.734375 729.921875l7.539063.351563"/><path d="M685.390625 731.015625l7.578125.390625"/><path d="M692.96875 731.40625l7.578125.039062"/><path d="M715.664062 731.5625l7.539063.039062"/><path d="M723.203125 731.601562l7.578125.039063"/><path d="M745.898438 731.757812l7.539062.078126"/><path d="M753.4375 731.835938l7.578125.351562"/><path d="M776.132812 732.929688l7.539063.390624"/><path d="M783.671875 733.320312l7.578125 1.015626"/><path d="M806.367188 736.367188l7.578124 1.015624"/><path d="M813.945312 737.382812l7.539063 1.953126"/><path d="M836.601562 743.28125l7.539063 1.992188"/><path d="M844.140625 745.273438l7.578125 3.242187"/><path d="M866.835938 755.039062l7.578124 3.242188"/><path d="M874.414062 758.28125l7.539063 4.84375"/><path d="M897.070312 772.851562l7.578126 4.84375"/><path d="M904.648438 777.695312l7.539062 6.757813"/><path d="M927.304688 798.007812l7.578124 6.757813"/><path d="M934.882812 804.765625l7.539063 9.023437"/><path d="M957.578125 831.835938l7.539063 9.023437"/><path d="M965.117188 840.859375l7.578124 11.5625"/><path d="M987.8125 875.585938l7.539062 11.5625"/><path d="M995.351562 887.148438l7.539063 14.414062"/><path d="M1018.046875 930.507812l7.539063 14.453126"/><path d="M1025.585938 944.960938l7.578124 17.65625"/><path d="M1048.28125 997.890625l7.578125 17.65625"/><path d="M1055.859375 1015.546875l7.539063 21.210937"/><path d="M1078.515625 1079.0625l7.539063 21.171875"/><path d="M1086.054688 1100.234375l7.578124 25.039063"/><path d="M1108.75 1175.3125l7.578125 25"/><path d="M1116.328125 1200.3125l3.75 14.570312"/><path d="M1127.65625 1244.0625l3.75 14.570312"/><path d="M1131.40625 1258.632812l3.789062 14.609376"/><path d="M1142.773438 1302.421875l3.789062 14.570313"/><path d="M1146.5625 1316.992188l3.75 16.835937"/><path d="M1157.890625 1367.460938l3.789063 16.875"/><path d="M1161.679688 1384.335938l3.789062 16.796874"/><path d="M1173.007812 1434.804688l3.789063 16.796874"/><path d="M3.203125 278.046875 57.1875 289.6875l54.023438 12.265625 53.984374 13.007813 53.984376 13.90625 54.023437 14.960937 53.984375 16.132813 54.023438 17.734374 53.984374 19.726563 54.023438 22.34375 53.984375 26.132813"/><path d="M543.203125 445.898438l10.820313 5.820312 10.78125 6.054688 10.820312 6.367187 10.78125 6.71875 10.820312 7.03125 10.78125 7.460937 10.78125 7.96875 10.820313 8.515626 10.78125 9.21875 10.820313 10"/><path d="M651.210938 521.054688l3.59375 3.59375 3.59375 3.710937 3.59375 3.828125 3.632812 3.984375 3.59375 4.140625 3.59375 4.375 3.59375 4.53125L680 554.023438l3.59375 5.078124 3.632812 5.390626"/><path d="M687.226562 564.492188l3.59375 5.78125 3.59375 6.210937 3.59375 6.757813 3.59375 7.421874 3.59375 8.320313 3.59375 9.492187 3.632813 11.289063 3.59375 14.140625 3.59375 20.117188 7.1875 155.15625 3.59375 20.15625 3.632813 14.140624 3.59375 11.25 3.59375 9.53125 3.59375 8.28125 3.59375 7.421876 3.59375 6.757812 3.632812 6.210938 3.59375 5.78125"/><path d="M759.21875 898.710938l3.59375 5.390624 3.59375 5.078126L770 913.984375l3.59375 4.570313 3.632812 4.335937 3.59375 4.179687 3.59375 3.984376 3.59375 3.828124 3.59375 3.671876 3.59375 3.59375"/><path d="M795.195312 942.148438l10.820313 10.039062 10.78125 9.21875 10.820313 8.515625 10.78125 7.929687 10.820312 7.460938L860 992.382812l10.820312 6.679688 10.78125 6.367188 10.820313 6.09375 10.78125 5.820312"/><path d="M903.203125 1017.34375l54.023437 26.132812 53.984376 22.34375 54.023437 19.6875 53.984375 17.734376 53.984375 16.171874 54.023437 14.921876 53.984376 13.90625 54.023437 13.046874 53.984375 12.265626 53.984375 11.640624"/></g><use x="148.907" y="35.321" href="#a"/><use x="158.7468" y="35.321" href="#c"/><use x="170.507" y="35.321" href="#b"/><use x="177.107" y="31.0011" href="#e"/><use x="181.5469" y="31.0011" href="#f"/><use x="185.7469" y="31.0011" href="#d"/><use x="121.2672" y="14.2956" href="#a"/><use x="131.107" y="14.2956" href="#c"/><use x="142.8672" y="14.2956" href="#b"/><use x="149.4672" y="9.9753" href="#d"/><style>.a{fill:none;stroke:#000;stroke-miterlimit:10;stroke-width:3.985;transform:matrix(.1,0,0,-.1,0,150)}</style></svg>