<svg xmlns="http://www.w3.org/2000/svg" width="247pt" height="109pt" viewBox="0 0 247 109"><defs><path d="M4.8594-1.0156l-.0937-.25c-.078125.078125-.09375.078125-.15625.125-.375.328125-.5625.4375-.734375.4375-.125 0-.1875-.09375-.1875-.28125 0-.0625 0-.09375.015625-.125L4.8125-5.6406l-.125-.1094-.3906.2188c-.46875-.1875-.703125-.234375-1.015625-.234375-.34375 0-.578125.0625-.90625.21875-.75.375-1.125.734375-1.4375 1.3125C.421875-3.171875.046875-1.75.046875-.78125c0 .5.1875.90625.40625.90625.25 0 .6875-.25 1.140625-.625.515625-.4375.984375-1 1.640625-1.9375l-.3437 1.5156c-.046875.21875-.0625.421875-.0625.609375 0 .28125.09375.4375.28125.4375.265625 0 .765625-.328125 1.75-1.140625zM3.8125-4.9531c-.265625 1.28125-.484375 1.90625-.890625 2.515625-.65625 1-1.40625 1.734375-1.796875 1.734375-.140625 0-.21875-.15625-.21875-.484375 0-.765625.3125-2.09375.734375-3.078125.28125-.6875.578125-.90625 1.15625-.90625.28125 0 .5.046875 1.015625.21875zm0 0" id="f"/><path d="M5.9531-5.1094l-.0312-.0625c-.34375.078125-.578125.109375-1.21875.109375-.203125-.3125-.3125-.421875-.609375-.546875-.25-.09375-.5625-.15625-.8125-.15625-.484375 0-1.078125.234375-1.609375.625C1-4.640625.65625-3.9375.65625-3.09375c0 .921875.53125 1.46875 1.453125 1.46875.109375 0 .234375 0 .359375-.015625l-.4844.4531c-.1875.1875-.328125.40625-.328125.5625 0 .125.09375.25.25.390625C1 .078125.640625.25.1875.625c-.40625.328125-.625.796875-.625 1.28125 0 .84375.828125 1.390625 2.140625 1.390625 1.53125 0 2.890625-.859375 2.890625-1.84375 0-.4375-.25-.875-.765625-1.28125l-.7187-.5937c-.40625-.3125-.5625-.546875-.5625-.765625 0-.109375.078125-.234375.25-.46875.03125-.046875.046875-.046875.078125-.09375C4.046925-2.0312 4.890675-3.0312 4.890675-4.0937c0-.109375 0-.203125-.03125-.390625l-.0156-.0312H5.25c.203125 0 .3125-.015625.59375-.046875zM3.7969 1.8438c0 .625-.828125 1.125-1.8125 1.125s-1.65625-.5-1.65625-1.234375c0-.453125.203125-.875.59375-1.203125.3125-.25.578125-.359375 1.1875-.546875L3.0313.6875c.546875.4375.765625.765625.765625 1.15625zm.2344-5.9219c0 1.234375-.578125 2.0625-1.40625 2.0625C1.890625-2.015625 1.5-2.5 1.5-3.4375c0-1.140625.609375-1.921875 1.484375-1.921875.703125 0 1.046875.4375 1.046875 1.28125zm0 0" id="a"/><path d="M4.2344-1.1406l-.0938-.2344-.1875.125c-.859375.5625-1.3125.765625-1.734375.765625-.671875 0-1.015625-.46875-1.015625-1.421875 0-1.265625.40625-2.5.984375-2.953125.25-.21875.546875-.3125.9375-.3125.53125 0 .96875.21875.96875.515625v.7188h.2656c.09375-.78125.1875-1.21875.296875-1.53125-.3125-.203125-.703125-.296875-1.15625-.296875-.53125 0-1.390625.421875-2.0625 1.015625C.75-4.140625.296875-2.90625.296875-1.625c0 1.140625.5 1.75 1.453125 1.75.65625 0 1.21875-.234375 1.890625-.765625zm0 0" id="g"/><path d="M5.1719-4.5c0-.453125-.109375-.921875-.25-1.09375-.07815-.109375-.2344-.171875-.4219-.171875-.28125 0-.640625.09375-.96875.265625-.609375.328125-1.015625.6875-1.75 1.625l1.0313-4.75-.1406-.1406c-.625.3125-1.0625.421875-1.921875.5l-.0469.25h.5781c.28125 0 .40625.09375.40625.296875 0 .078125-.015625.21875-.03125.28125L.4531-.8437c-.0156.0312-.0156.078075-.0156.109325 0 .46875.578125.859375 1.234375.859375.4375 0 1.046875-.21875 1.5625-.59375 1.15625-.8125 1.9375-2.453125 1.9375-4.03125zm-.8594.2969c0 .765625-.25 1.78125-.609375 2.5625-.390625.8281-.875 1.2031-1.515625 1.2031-.546875 0-.84375-.265625-.84375-.765625 0-.296875.046875-.640625.15625-1.078125.21875-.953125.515625-1.53125.984375-2.03125.390625-.40625 1.015625-.75 1.359375-.75.3125 0 .46875.265625.46875.859375zm0 0" id="h"/><path d="M2.75-3.7969c0-.3125-.34375-.546875-.640625-.546875-.34375 0-.5.34375-.59375.625L.5469-.9219c-.01565.062525-.07815.2344-.07815.312525s.046875.203125.140625.203125C.75-.40625.90625-.609375.96875-.703125l1.5156-2.4062c.125-.1875.265625-.4375.265625-.6875zm0 0" id="b"/><path d="M3.6406-9.0312C1.8125-7.84375.71875-5.796875.71875-3.234375c0 2.34375 1.140625 4.578125 2.875 5.78125L3.75 2.3438C2.09375.90625 1.8125-.484375 1.8125-3.28125 1.8125-6.0625 2.125-7.5 3.75-8.828125zm0 0" id="c"/><path d="M.5-9.0312l-.125.2031C2.015625-7.5 2.328125-6.0625 2.328125-3.28125c0 2.796875-.28125 4.1875-1.953125 5.625l.1563.2031c1.75-1.203125 2.890625-3.4375 2.890625-5.78125C3.421875-5.796875 2.3125-7.84375.5-9.03125zm0 0" id="d"/><path d="M7.2188-3.1094v-.25L.7813-6.3906v.7031l5.2344 2.4531L.7813-.7812v.7031zm0 0" id="i"/><path d="M7.2188-.0781v-.7031L1.9844-3.2344l5.2344-2.4531v-.7031L.7813-3.3593v.25zm0 0" id="j"/><path d="M5.5625-4.375c0-2.625-.78125-3.859375-2.421875-3.859375-1.84375 0-2.796875 1.46875-2.796875 4.359375 0 1.40625.25 2.609375.671875 3.1875.421875.59375 1.09375.921875 1.828125.921875C4.65625.234375 5.5625-1.3125 5.5625-4.375zm-1.0156.5938C4.546875-1.234375 4.09375-.171875 3-.171875c-1.15625 0-1.65625-1.21875-1.65625-4.125 0-2.53125.453125-3.515625 1.578125-3.515625 1.171875 0 1.625 1.171875 1.625 4.03125zm0 0" id="e"/><path d="M.7813-4.1406h6.4375v-.7187H.7813zm0 2.5313h6.4375v-.7032H.7813zm0 0" id="k"/></defs><path d="M11.992188 142.578125h2376.054687" style="fill:none;stroke-width:3.985;stroke:#000;stroke-miterlimit:10;transform:matrix(.1,0,0,-.1,0,109)"/><path d="M.9492 91.7539h.6016v6H.9492zm0 0"/><path d="M238.5508 91.7539h.6016v6h-.6016zm0 0"/><g class="a"><path fill="none" d="M344.648438 60.859375 772.34375 714.6875"/><path d="M507.148438 278.789062c0 11.015626-8.945313 19.921876-19.921876 19.921876-11.015624 0-19.960937-8.90625-19.960937-19.921876 0-11.015624 8.945313-19.921874 19.960937-19.921874 10.976563 0 19.921876 8.90625 19.921876 19.921874zm0 0"/><g fill="none"><path d="M487.226562 278.789062v-17.03125"/><path d="M487.226562 227.695312v-17.03125"/><path d="M487.226562 210.664062v-17.03125"/><path d="M487.226562 159.609375v-17.03125"/></g></g><use x="45.9609" y="104.4871" href="#f"/><use x="3.1207" y="73.7754" href="#a"/><use x="9.6008" y="69.4555" href="#b"/><use x="12.9609" y="73.7754" href="#c"/><use x="17.5211" y="73.7754" href="#f"/><use x="23.4012" y="73.7754" href="#d"/><use x="31.2012" y="73.7754" href="#i"/><use x="42.7211" y="73.7754" href="#e"/><g class="a"><path fill="none" d="M1057.460938 1005.273438h760.3125"/><path d="M1457.539062 1005.273438c0 11.015624-8.90625 19.921874-19.921874 19.921874-11.015626 0-19.921876-8.90625-19.921876-19.921874 0-10.976563 8.90625-19.921876 19.921876-19.921876 11.015624 0 19.921874 8.945313 19.921874 19.921876zm0 0"/><g fill="none"><path d="M1437.617188 1005.273438v-26.953126"/><path d="M1437.617188 924.414062v-26.953124"/><path d="M1437.617188 897.460938V870.46875"/><path d="M1437.617188 816.5625v-26.953125"/><path d="M1437.617188 789.609375V762.65625"/><path d="M1437.617188 708.710938v-26.953126"/><path d="M1437.617188 681.757812v-26.953124"/><path d="M1437.617188 600.898438v-26.953126"/><path d="M1437.617188 573.945312v-26.953124"/><path d="M1437.617188 493.046875V466.09375"/><path d="M1437.617188 466.09375v-26.953125"/><path d="M1437.617188 385.195312v-26.953124"/><path d="M1437.617188 358.242188v-26.953126"/><path d="M1437.617188 277.382812v-26.953124"/><path d="M1437.617188 250.429688v-26.953126"/><path d="M1437.617188 169.53125v-26.953125"/></g></g><use x="141.241" y="104.4871" href="#g"/><use x="51.7215" y="13.1672" href="#a"/><use x="58.2012" y="8.8473" href="#b"/><use x="61.5614" y="13.1672" href="#c"/><use x="66.0012" y="13.1672" href="#g"/><use x="71.5211" y="13.1672" href="#d"/><use x="78.961" y="13.1672" href="#k"/><use x="90.2411" y="13.1672" href="#e"/><g class="a"><path fill="none" d="M1627.695312 1041.601562l522.734376-399.570312"/><path d="M1932.734375 823.671875c0 11.015625-8.90625 19.921875-19.921875 19.921875-10.976562 0-19.921875-8.90625-19.921875-19.921875S1901.835938 803.75 1912.8125 803.75c11.015625 0 19.921875 8.90625 19.921875 19.921875zm0 0"/><g fill="none"><path d="M1912.8125 823.671875v-28.398437"/><path d="M1912.8125 738.515625V710.15625"/><path d="M1912.8125 710.15625v-28.398438"/><path d="M1912.8125 625v-28.359375"/><path d="M1912.8125 596.640625V568.28125"/><path d="M1912.8125 511.484375V483.125"/><path d="M1912.8125 483.125v-28.359375"/><path d="M1912.8125 398.007812v-28.398437"/><path d="M1912.8125 369.609375v-28.398437"/><path d="M1912.8125 284.453125V256.09375"/><path d="M1912.8125 256.09375v-28.398438"/><path d="M1912.8125 170.9375v-28.359375"/></g></g><use x="188.282" y="105.375" href="#h"/><use x="192.1218" y="19.2879" href="#a"/><use x="198.6019" y="14.9676" href="#b"/><use x="201.9621" y="19.2879" href="#c"/><use x="206.1621" y="19.2879" href="#h"/><use x="212.282" y="19.2879" href="#d"/><use x="220.082" y="19.2879" href="#j"/><use x="231.6019" y="19.2879" href="#e"/><path d="M487.226562 278.789062l47.5 70.859376 47.539063 67.1875 47.5 63.554687 47.539063 59.921875 47.5 56.328125 47.539062 52.65625 47.5 49.0625L867.382812 743.75l47.5 41.757812 47.539063 38.164063 47.5 34.492187 47.539063 30.898438 47.5 27.226562L1152.5 939.921875l47.5 19.960937 47.539062 16.328126 47.5 12.734374 47.539063 9.101563 47.539063 5.429687 47.5 1.796876 47.539062-1.796876 47.5-5.429687 47.539062-9.101563 47.5-12.734374 47.539063-16.328126 47.5-19.960937 47.539063-23.632813 47.5-27.226562 47.539062-30.898438 47.5-34.492187" style="fill:none;stroke-width:7.9701;stroke:#000;stroke-miterlimit:10;transform:matrix(.1,0,0,-.1,0,109)"/><style>.a{stroke:#000;stroke-miterlimit:10;stroke-width:3.985;transform:matrix(.1,0,0,-.1,0,109)}</style></svg>