<svg xmlns="http://www.w3.org/2000/svg" width="268pt" height="133pt" viewBox="0 0 268 133"><defs><path d="M5.3594-.9375l-.0937-.2344c-.4375.359375-.734375.53125-.921875.53125S4-.75 3.890625-.984375s-.25-.671875-.3125-1.03125L3.375-3.2187l.4219-.5781c.546875-.78125.875-1.0625 1.25-1.0625.1875 0 .328125.109375.390625.28125L5.6094-4.625l.1719-1.0156c-.140625-.078125-.25-.125-.359375-.125-.46875 0-.953125.4375-1.6875 1.53125l-.4531.6563-.0625-.5625c-.140625-1.1875-.46875-1.625-1.171875-1.625-.3125 0-.578125.09375-.6875.25l-.6875 1L.875-4.4062c.359375-.40625.59375-.5625.828125-.5625.390625 0 .65625.484375.859375 1.65625l.125.75-.4687.7344c-.515625.796875-.921875 1.1875-1.265625 1.1875C.78125-.640625.640625-.6875.625-.75l-.1406-.3437-.2344.0468c0 .2344-.015625.39065-.09375.76565C.125-.125.125-.09375.109375-.015625.28125.078125.484375.125.625.125c.390625 0 .859375-.34375 1.234375-.90625l.9063-1.3906.125.8281C3.0625-.328125 3.328125.125 3.75.125c.265625 0 .65625-.203125 1.03125-.546875zm0 0" id="a"/><path d="M8.8438-1.0156l-.125-.2187-.2969.2031c-.3594.234325-.6094.359325-.7344.359325-.078125 0-.15625-.109375-.15625-.234375s.015625-.234375.078125-.484375l.9063-3.5469C8.56255-5.14065 8.5938-5.32815 8.5938-5.4219c0-.203125-.125-.34375-.3125-.34375-.34375 0-.796875.21875-1.53125.734375C6-4.5 5.578125-4.078125 5-3.25l.3594-1.6406c.046875-.234375.078125-.421875.078125-.5 0-.234375-.125-.375-.3125-.375-.359375 0-.90625.265625-1.5625.765625-.53125.40625-.765625.65625-1.546875 1.71875l.4063-1.5937c.046875-.1875.0625-.375.0625-.515625 0-.234375-.109375-.375-.265625-.375-.265625 0-.71875.25-1.59375.890625l-.3437.2344.0938.2344.375-.25c.4375-.28125.484375-.296875.5625-.296875.140625 0 .21875.125.21875.296875 0 .609375-.484375 2.921875-.984375 4.625l.0313.1406.8281-.1875.25-1.2187c.296875-1.328125.609375-2.03125 1.265625-2.75.515625-.546875 1.046875-.90625 1.375-.90625.09375 0 .140625.09375.140625.25 0 .421875-.25 1.78125-.75 3.875l-.2031.7969.0625.1406.8281-.1875.25-1.2656c.1875-.96875.59375-1.875 1.125-2.453125.65625-.734375 1.25-1.15625 1.640625-1.15625.09375 0 .15625.109375.15625.296875 0 .296875-.015625.453125-.296875 1.5l-.5156 1.875c-.09375.34375-.15625.640625-.15625.90625 0 .296875.125.484375.359375.484375.3125 0 .734375-.25 1.90625-1.125zm0 0" id="c"/><path d="M10.75.0313l.0313-.3281-.4375-.0312C9.90625-.375 9.6875-.5 9.6875-.75l.0156-.4375.5-6.3594c0-.21875.203125-.34375.546875-.359375l.4531-.0312.0313-.3281c-.328125.015625-.671875.03125-1 .03125-.34375 0-.671875-.015625-1-.03125-.21875.4375 0 .109375-1.015625 1.859375l-2.9375 5.0469-1.7969-6.9062c-.328125.015625-.65625.03125-1 .03125-.328125 0-.671875-.015625-.984375-.03125l-.0469.3281.3125.0313c.625.046875.84375.15625.84375.46875 0 .078125-.015625.15625-.046875.234375L.8438-1.1094c-.1875.625-.375.78125-1.03125.828125l-.0469.3125C.21875.015625.671875 0 1.109375 0S2 .015625 2.421875.03125l.0469-.3281-.4531-.0312c-.390675-.04695-.5938-.156325-.5938-.3282 0-.125.03125-.28125.078125-.484375L2.9844-6.6875 4.7656.2188h.2813l.6719-1.25 2.8594-4.9375.625-1.0469-.4375 6.2188c-.03125.328125-.1875.40625-.8125.46875l-.3594.0313-.0469.3281C8.09375.015625 8.625 0 9.15625 0s1.0625.015625 1.59375.03125zm0 0" id="d"/><path d="M4.0781-3.2031c0-1.921875-.578125-2.84375-1.765625-2.84375C.953125-6.046875.25-4.96875.25-2.84375.25-1.8125.4375-.921875.75-.5c.296875.4375.796875.671875 1.34375.671875 1.3125 0 1.984375-1.140625 1.984375-3.375zm-.7344.4375C3.34375-.90625 3-.125 2.203125-.125c-.859375 0-1.21875-.890625-1.21875-3.03125 0-1.84375.328125-2.578125 1.15625-2.578125.859375 0 1.203125.859375 1.203125 2.96875zm0 0" id="e"/><path d="M3.6563.0313v-.2656l-.4531-.0312c-.484375-.03125-.5625-.125-.5625-.578125v-5.2031l-.125-.0312c-.5625.296875-1.1875.5625-1.984375.84375l.0625.375h.0781c.390625-.1875.78125-.359375 1.15625-.515625.0625 0 .078125.078125.078125.28125v4.25c0 .453125-.09375.546875-.578125.578125l-.4844.0313V.0313C1.328125.015625 1.8125 0 2.28125 0s.921875.015625 1.375.03125zm0 0" id="f"/><path d="M4.1094.0313c-.03125-.1875-.03125-.28125-.03125-.40625 0-.109375 0-.1875.03125-.390625L1.0625-.6719l1.6094-1.6875c.843725-.906225 1.10935-1.3906 1.10935-2.04685 0-1.015625-.6875-1.640625-1.796875-1.640625-.640625 0-1.0625.1875-1.5.625l-.1406 1.1875h.25l.1094-.4062c.140625-.5.46875-.71875 1.046875-.71875.75 0 1.234375.46875 1.234375 1.21875 0 .65625-.359375 1.296875-1.359375 2.359375L.1406-.2031v.2344C.78125.015625 1.453125 0 2.09375 0c.671875 0 1.34375.015625 2.015625.03125zm0 0" id="g"/><path d="M4.0469-1.9687c0-.421875-.171875-.78125-.484375-1-.21875-.15625-.421875-.234375-.859375-.3125.703125-.546875.953125-.9375.953125-1.46875 0-.765625-.640625-1.296875-1.609375-1.296875-.59375 0-1 .171875-1.421875.59375l-.25 1.0938h.2813l.1563-.5c.09375-.296875.640625-.59375 1.09375-.59375.578125 0 1.03125.46875 1.03125 1.015625 0 .65625-.515625 1.21875-1.125 1.21875-.078125 0-.421875-.03125-.421875-.03125l-.1094.4688.0625.0469c.34375-.15625.5-.1875.75-.1875.71875 0 1.140625.453125 1.140625 1.25 0 .90625-.53125 1.484375-1.34375 1.484375-.40625 0-.765625-.125-1.03125-.375C.65625-.75.53125-.953125.375-1.421875l-.25.0781C.3125-.812525.390625-.4844.4375-.0469c.46875.15625.84375.21875 1.171875.21875 1.0625 0 2.4375-.921875 2.4375-2.140625zm0 0" id="h"/><path d="M4.1406.0313v-.2656l-.4219-.0312c-.4375-.03125-.53125-.140625-.53125-.65625v-.6719c.515625 0 .703125.015625.953125.046875v-.625s-.4375.03125-.71875.03125H3.1875v-1.2187c0-1.5625.015625-2.328125.0625-2.6875l-.1094-.0312L2.5-5.8437.0156-1.7812l.0938.1875h2.3438v.6719c0 .515625-.09375.640625-.53125.65625l-.5312.0313V.0313C1.859375.015625 2.328125 0 2.796875 0 3.25 0 3.6875.015625 4.140625.03125zM2.4531-2.1406H.5625l1.8906-3.0937zm0 0" id="i"/><path d="M4.0313-2.2187c0-.984375-.71875-1.6875-1.71875-1.6875-.421875 0-.734375.109375-1.28125.4375l.0781-1.8281 2.6719.0313.0469-.0312c-.015625-.171875-.015625-.21875-.015625-.34375 0-.140625 0-.203125.015625-.359375l-.0469-.0469S2.859375-6 2.265625-6s-1.53125-.046875-1.53125-.046875L.6875-6l.0156 1.2031c0 .765625-.015625 1.59375-.046875 1.96875l.1719.0625c.421875-.421875.65625-.53125 1.078125-.53125.84375 0 1.375.59375 1.375 1.53125 0 .984375-.5625 1.546875-1.515625 1.546875-.484375 0-.921875-.15625-1.03125-.390625l-.4062-.7187-.2187.125c.203125.5.3125.78125.4375 1.171875.234375.125.59375.203125.96875.203125.59375 0 1.203125-.25 1.6875-.671875.546875-.46875.828125-1.0625.828125-1.71875zm0 0" id="b"/><path d="M4.1094-1.9219c0-1-.609375-1.65625-1.546875-1.65625-.515625 0-.828125.203125-1.421875.671875.1875-1.578125.921875-2.4375 2.5-2.921875v-.0625l-.3125-.1562c-.84375.28125-1.203125.46875-1.65625.84375C.765625-4.4375.28125-3.359375.28125-2.171875c0 1.453125.703125 2.34375 1.828125 2.34375 1.140625 0 2-.90625 2-2.09375zm-.7656.3125c0 .90625-.4375 1.5-1.125 1.5-.734375 0-1.140625-.640625-1.140625-1.8125 0-.3125.03125-.484375.125-.625.203125-.296875.609375-.515625 1.03125-.515625.671875 0 1.109375.578125 1.109375 1.453125zm0 0" id="j"/><path d="M4.3594-5.7812v-.2656C3.40625-6 3.328125-6 2.390625-6c-.921875 0-1.0625 0-1.921875-.046875L.3906-6s.015625.5625.015625.921875-.0156.890625-.0156.890625H.6563l.0469-.4844c.07805-.54685.14055-.60935.5468-.60935h2.3281c-.34375.71875-.609375 1.21875-.953125 1.75L.4844-.0937l.0781.125S.8125 0 .96875 0 1.375.03125 1.375.03125C1.75-.921875 1.96875-1.5 2.75-2.890625zm0 0" id="k"/><path d="M4.0625-1.8125c0-.6875-.3125-1.078125-1.3125-1.53125.796875-.546875 1.078125-.90625 1.078125-1.4375 0-.75-.625-1.265625-1.5625-1.265625-1.03125 0-1.796875.671875-1.796875 1.59375 0 .59375.234375.921875 1 1.421875-.359375.171875-.5.265625-.703125.453125-.328125.328125-.5.734375-.5 1.1875 0 .90625.71875 1.5625 1.71875 1.5625C3.125.171875 4.0625-.71875 4.0625-1.8125zm-.6875.375c0 .734375-.546875 1.3125-1.265625 1.3125C1.375-.125.890625-.65625.890625-1.46875c0-.640625.25-1.03125.890625-1.4375l.7031.3281c.5625.234375.890625.671875.890625 1.140625zm-.1562-3.25c0 .5-.21875.84375-.78125 1.21875l-.4844-.2344c-.546875-.28125-.828125-.625-.828125-1.0625 0-.578125.421875-.96875 1.046875-.96875.640625 0 1.046875.40625 1.046875 1.046875zm0 0" id="l"/><path d="M7.9063-.0781c-.71875-1.3125-1.296875-2.765625-1.890625-4.15625-.59375-1.328125-1.21875-2.703125-1.6875-4.09375H4.0313C3.4375-6.84375 2.765625-5.375 2.109375-3.890625 1.53125-2.625.984375-1.296875.328125-.078125l.0781.125C1.671875 0 2.9375 0 4.21875 0c1.203125 0 2.421875.015625 3.625.046875zM6.4219-.4375H1.25c.796875-2.125 1.640625-4.21875 2.546875-6.296875h.0938c.890625 2.0625 1.75 4.171875 2.53125 6.296875zm0 0" id="m"/></defs><g style="stroke-width:3.985;stroke:#000;stroke-miterlimit:10;transform:matrix(.1,0,0,-.1,0,133)"><g fill="none"><path d="M262.695312 143.4375H548.59375v1148.710938H262.695312zm0 0"/><path d="M548.59375 143.4375h285.859375v469.648438H548.59375zm0 0"/><path d="M834.453125 143.4375h285.898437V327.5H834.453125zm0 0"/><path d="M1120.351562 143.4375H1406.25v381.328125h-285.898438zm0 0"/><path d="M1406.25 143.4375h285.898438v674.570312H1406.25zm0 0"/><path d="M1692.148438 143.4375h285.859374v965.585938h-285.859374zm0 0"/><path d="M1978.007812 143.4375h285.898438v1156.367188h-285.898438zm0 0"/><path d="M2263.90625 143.4375h285.898438v1183.476562H2263.90625zm0 0"/></g><g fill="#e5e5e5"><path d="M262.695312 143.4375H548.59375v469.648438H262.695312zm0 0"/><path d="M548.59375 143.4375h285.859375v180.78125H548.59375zm0 0"/><path d="M834.453125 143.4375h285.898437v151.914062H834.453125zm0 0"/><path d="M1120.351562 143.4375H1406.25V327.5h-285.898438zm0 0"/><path d="M1406.25 143.4375h285.898438v381.328125H1406.25zm0 0"/><path d="M1692.148438 143.4375h285.859374v674.570312h-285.859374zm0 0"/><path d="M1978.007812 143.4375h285.898438v965.585938h-285.898438zm0 0"/><path d="M2263.90625 143.4375h285.898438v1148.710938H2263.90625zm0 0"/></g><path fill="none" d="M262.695312 143.4375h2287.109376"/></g><path d="M26.0195 115.6719h.6016v6h-.6016zm0 0"/><path d="M254.7266 115.6719h.6016v6h-.6016zm0 0"/><path d="M262.695312 143.4375v1178.164062" class="a"/><path d="M23.2578 118.3086h6v.6016h-6zm0 0"/><path d="M23.2578.4883h6v.6016h-6zm0 0"/><path d="M262.695312 1292.148438l57.1875-171.757813 57.1875-152.96875 57.148438-135.039063 57.1875-117.851562 57.1875-101.445312 57.1875-85.859376 57.148438-71.015624 57.1875-56.992188 57.1875-43.75 57.148437-31.25 57.1875-19.570312 57.1875-8.671876 57.1875 1.445313 57.1875 10.742187L1120.351562 327.5l57.1875 27.070312 57.1875 34.023438 57.148438 40.273438 57.1875 45.664062 57.1875 50.234375 57.1875 54.140625 57.1875 57.148438 57.148438 59.414062 57.1875 60.9375 57.1875 61.601562 57.1875 61.523438 57.148437 60.625 57.1875 59.023438 57.1875 56.523437 57.148437 53.320313 57.1875 49.335937 57.1875 44.492187 57.148438 38.945313 57.226562 32.578125 57.148438 25.429688 57.1875 17.460937 57.148438 8.789063 57.226562-.742188 57.148438-11.054688 57.1875-22.109374" style="fill:none;stroke-width:7.9701;stroke:#000;stroke-miterlimit:10;transform:matrix(.1,0,0,-.1,0,133)"/><use x="20.8711" y="128.4031" href="#a"/><use x="27.2309" y="130.2031" href="#e"/><use x="49.4598" y="128.4031" href="#a"/><use x="55.8199" y="130.2031" href="#f"/><use x="78.0476" y="128.4031" href="#a"/><use x="84.4078" y="130.2031" href="#g"/><use x="106.6367" y="128.4031" href="#a"/><use x="112.9969" y="130.2031" href="#h"/><use x="135.2258" y="128.4031" href="#a"/><use x="141.5859" y="130.2031" href="#i"/><use x="163.8136" y="128.4031" href="#a"/><use x="170.1738" y="130.2031" href="#b"/><use x="192.4027" y="128.4031" href="#a"/><use x="198.7624" y="130.2031" href="#j"/><use x="220.9917" y="128.4031" href="#a"/><use x="227.3515" y="130.2031" href="#k"/><use x="249.5804" y="128.4031" href="#a"/><use x="255.9406" y="130.2031" href="#l"/><g class="a"><path d="M1406.25 818.007812v24.101563"/><path d="M1406.25 890.351562v24.101563"/><path d="M1406.25 914.453125v24.101563"/><path d="M1406.25 986.796875v24.101563"/><path d="M1406.25 1010.898438v24.140624"/><path d="M1406.25 1083.242188v24.101562"/><path d="M1406.25 1107.34375v24.101562"/><path d="M1406.25 1179.6875v24.101562"/><path d="M1692.148438 1109.023438v23.710937"/><path d="M1692.148438 1180.117188v23.671874"/><path d="M1549.21875 1144.882812H1406.25"/></g><path d="M141.4453 18.5117l7.3984-1.4961-8.2187 1.4961 8.2188 1.4961-7.3984-1.4961"/><g class="a"><path d="M1414.453125 1144.882812l73.984375 14.960938-82.1875-14.960938 82.1875-14.960937zm0 0"/><path d="M1549.21875 1144.882812h142.929688"/></g><path d="M168.3945 18.5117l-7.3984 1.4961 8.2188-1.4961-8.2187-1.4961 7.3984 1.4961"/><path d="M1683.945312 1144.882812l-73.984374-14.960937 82.1875 14.960937-82.1875 14.960938zm0 0" class="a"/><use x="144.96" y="12.606" href="#m"/><use x="153.5998" y="12.606" href="#a"/><use x="159.96" y="14.406" href="#b"/><g class="a"><path d="M209.335938 524.765625H236.5625"/><path d="M290.9375 524.765625h27.226562"/><path d="M318.164062 524.765625h27.1875"/><path d="M399.765625 524.765625h27.1875"/><path d="M426.953125 524.765625h27.226563"/><path d="M508.554688 524.765625h27.226562"/><path d="M535.78125 524.765625h27.1875"/><path d="M617.382812 524.765625h27.1875"/><path d="M644.570312 524.765625h27.226563"/><path d="M726.171875 524.765625h27.226563"/><path d="M753.398438 524.765625h27.1875"/><path d="M835 524.765625h27.1875"/><path d="M862.1875 524.765625h27.226562"/><path d="M943.828125 524.765625h27.1875"/><path d="M971.015625 524.765625h27.1875"/><path d="M1052.617188 524.765625h27.1875"/><path d="M1079.804688 524.765625h27.226562"/><path d="M1161.445312 524.765625h27.1875"/><path d="M1188.632812 524.765625h27.226563"/><path d="M1270.234375 524.765625h27.226563"/><path d="M1297.460938 524.765625h27.1875"/><path d="M1379.0625 524.765625h27.1875"/><path d="M209.335938 818.007812H236.5625"/><path d="M290.9375 818.007812h27.226562"/><path d="M318.164062 818.007812h27.1875"/><path d="M399.765625 818.007812h27.1875"/><path d="M426.953125 818.007812h27.226563"/><path d="M508.554688 818.007812h27.226562"/><path d="M535.78125 818.007812h27.1875"/><path d="M617.382812 818.007812h27.1875"/><path d="M644.570312 818.007812h27.226563"/><path d="M726.171875 818.007812h27.226563"/><path d="M753.398438 818.007812h27.1875"/><path d="M835 818.007812h27.1875"/><path d="M862.1875 818.007812h27.226562"/><path d="M943.828125 818.007812h27.1875"/><path d="M971.015625 818.007812h27.1875"/><path d="M1052.617188 818.007812h27.1875"/><path d="M1079.804688 818.007812h27.226562"/><path d="M1161.445312 818.007812h27.1875"/><path d="M1188.632812 818.007812h27.226563"/><path d="M1270.234375 818.007812h27.226563"/><path d="M1297.460938 818.007812h27.1875"/><path d="M1379.0625 818.007812h27.1875"/></g><use x="4.3672" y="82.4422" href="#c"/><use x="13.8469" y="84.2422" href="#b"/><use x="2.327" y="54.4402" href="#d"/><use x="13.727" y="56.2402" href="#b"/><style>.a{fill:none;stroke:#000;stroke-miterlimit:10;stroke-width:3.985;transform:matrix(.1,0,0,-.1,0,133)}</style></svg>