<svg xmlns="http://www.w3.org/2000/svg" width="180pt" height="102pt" viewBox="0 0 180 102"><defs><clipPath id="i"><path d="M36 8h23v41H36zm0 0"/></clipPath><clipPath id="j"><path d="M.3633 103.5508h99v-105h-99zm41.0898-54.9727-.8789.1289-2.8984-8.6953 3.0859 7.1836.6289-7.8125zm0 0" class="c"/></clipPath><clipPath id="k"><path d="M.3633 77H15v16H.3633zm0 0"/></clipPath><clipPath id="l"><path d="M.3633 20H15v17H.3633zm0 0"/></clipPath><clipPath id="m"><path d="M.3633 40H15v17H.3633zm0 0"/></clipPath><clipPath id="n"><path d="M6 0h2v86H6zm0 0"/></clipPath><clipPath id="o"><path d="M.3633 103.5508h99v-105h-99zM6.4961-.4258h.8789L8.8242 8.582H5.0469zm0 0" class="c"/></clipPath><clipPath id="p"><path d="M.3633 0H16v16H.3633zm0 0"/></clipPath><clipPath id="q"><path d="M6 84h90v2H6zm0 0"/></clipPath><clipPath id="r"><path d="M.3633 103.5508h99v-105h-99zm94.8828-18.9414v.8828l-9.0039 1.4492v-3.7812zm0 0" class="c"/></clipPath><clipPath id="s"><path d="M79 76h20.3633v18H79zm0 0"/></clipPath><clipPath id="t"><path d="M0 0h100v102H0z"/></clipPath><g id="u" clip-path="url(#t)"><g clip-path="url(#i)"><g clip-path="url(#j)"><path d="M575.940313 950.294688h-3.789063l-6.914062.625h-11.953125l-17.03125.664062h-19.53125l-21.40625-.664062-20.78125-1.25-19.53125-1.875-17.617188-3.164063-15.117187-3.789062-13.242188-4.375-10.078125-6.328125-8.828125-7.539063-6.914062-8.828125-5.664063-10.703125-3.164062-8.828125-2.5-9.453125-1.914063-11.328125-1.25-11.953125-.625-13.867187V831.89625l1.25-17.03125 1.25-19.492187 1.914063-21.445313 3.125-23.28125 3.164062-25.195312 3.164063-25.859375 4.375-26.445313L390.12 647.325938l3.789063-24.570313 3.789062-21.40625 3.125-17.65625 5.039063-30.234375" style="fill:none;stroke-width:4.72425;stroke-linecap:butt;stroke-linejoin:bevel;stroke:#000;stroke-opacity:1;stroke-miterlimit:10;transform:matrix(.1,0,0,-.1,.363,103.549)"/></g></g><path d="M410.27625 641.661875l-6.289062-78.125-30.859375 71.835938" class="a"/><path d="M8.0703 85.0508c0 .625-.507812 1.132813-1.132812 1.132813-.628906 0-1.136719-.507813-1.136719-1.132813s.507813-1.132812 1.136719-1.132812c.625 0 1.132812.507812 1.132812 1.132812" class="b"/><g clip-path="url(#k)"><path d="M77.073125 184.982188c0-6.25-5.078125-11.328125-11.328125-11.328125-6.289062 0-11.367187 5.078125-11.367187 11.328125s5.078125 11.328125 11.367187 11.328125c6.25 0 11.328125-5.078125 11.328125-11.328125zm0 0" class="a"/></g><path d="M8.0703 28.3594c0 .625-.507812 1.132813-1.132812 1.132813-.628906 0-1.136719-.507813-1.136719-1.132813s.507813-1.132813 1.136719-1.132813c.625 0 1.132812.507813 1.132812 1.132813" class="b"/><g clip-path="url(#l)"><path d="M77.073125 751.89625c0-6.25-5.078125-11.328125-11.328125-11.328125-6.289062 0-11.367187 5.078125-11.367187 11.328125s5.078125 11.328125 11.367187 11.328125c6.25 0 11.328125-5.078125 11.328125-11.328125zm0 0" class="a"/></g><path d="M67.5938 28.3594c0 .625-.507812 1.132813-1.132812 1.132813s-1.132813-.507813-1.132813-1.132813.507813-1.132813 1.132813-1.132813S67.5938 27.7344 67.5938 28.3594" class="b"/><path d="M672.3075 751.89625c0-6.25-5.078125-11.328125-11.328125-11.328125s-11.328125 5.078125-11.328125 11.328125 5.078125 11.328125 11.328125 11.328125S672.3075 758.14625 672.3075 751.89625zm0 0" class="a"/><path d="M67.5938 85.0508c0 .625-.507812 1.132813-1.132812 1.132813s-1.132813-.507813-1.132813-1.132813.507813-1.132812 1.132813-1.132812S67.5938 84.4258 67.5938 85.0508" class="b"/><path d="M672.3075 184.982188c0-6.25-5.078125-11.328125-11.328125-11.328125s-11.328125 5.078125-11.328125 11.328125 5.078125 11.328125 11.328125 11.328125 11.328125-5.078125 11.328125-11.328125zm0 0" class="a"/><path d="M42.0859 48.2031c0 .625-.507813 1.132813-1.136719 1.132813-.625 0-1.132813-.507813-1.132813-1.132813 0-.628906.507813-1.136719 1.132813-1.136719.628906 0 1.136719.507813 1.136719 1.136719" class="b"/><path d="M417.229375 553.45875c0-6.25-5.078125-11.328125-11.367187-11.328125-6.25 0-11.328125 5.078125-11.328125 11.328125 0 6.289063 5.078125 11.367188 11.328125 11.367188 6.289062 0 11.367187-5.078125 11.367187-11.367188zm0 0" class="a"/><path d="M67.5938 48.2031c0 .625-.507812 1.132813-1.132812 1.132813s-1.132813-.507813-1.132813-1.132813c0-.628906.507813-1.136719 1.132813-1.136719s1.132812.507813 1.132812 1.136719" class="b"/><path d="M672.3075 553.45875c0-6.25-5.078125-11.328125-11.328125-11.328125s-11.328125 5.078125-11.328125 11.328125c0 6.289063 5.078125 11.367188 11.328125 11.367188s11.328125-5.078125 11.328125-11.367188zm0 0" class="a"/><path d="M8.0703 48.2031c0 .625-.507812 1.132813-1.132812 1.132813-.628906 0-1.136719-.507813-1.136719-1.132813 0-.628906.507813-1.136719 1.136719-1.136719.625 0 1.132812.507813 1.132812 1.136719" class="b"/><g clip-path="url(#m)"><path d="M77.073125 553.45875c0-6.25-5.078125-11.328125-11.328125-11.328125-6.289062 0-11.367187 5.078125-11.367187 11.328125 0 6.289063 5.078125 11.367188 11.367187 11.367188 6.25 0 11.328125-5.078125 11.328125-11.367188zm0 0" class="a"/></g><g clip-path="url(#n)"><g clip-path="url(#o)"><path d="M65.745 184.982188v850.351562" class="a"/></g></g><path d="M8.8242 8.582 6.9375 1.0234 5.0469 8.582zm0 0" class="b"/><g clip-path="url(#p)"><path d="M84.612188 949.669688 65.745 1025.255625l-18.90625-75.585937zm0 0" class="a"/></g><g clip-path="url(#q)"><g clip-path="url(#r)"><path d="M65.745 184.982188h878.710938" class="a"/></g></g><path d="M86.2422 86.9414l7.5586-1.8906-7.5586-1.8906zm0 0" class="b"/><g clip-path="url(#s)"><path d="M858.791875 166.075938l75.585938 18.90625-75.585938 18.90625zm0 0" class="a"/></g><g style="fill:none;stroke-width:4.72425;stroke-linecap:butt;stroke-linejoin:miter;stroke:#000;stroke-opacity:1;stroke-dasharray:9.4485,28.3455;stroke-dashoffset:28.3455;stroke-miterlimit:10;transform:matrix(.1,0,0,-.1,.363,103.549)"><path d="M660.979375 184.982188V751.89625"/><path d="M65.745 751.89625h595.234375"/><path d="M65.745 553.45875h595.234375"/></g></g><path d="M5.6094-3.7812c0-.921875-.515625-1.484375-1.375-1.484375-.78125 0-1.359375.375-2.046875 1.34375l.375-1.2969s-.03125-.046875-.0625-.046875h-.0156l-1.8437.25.0313.1875c.359375 0 .78125 0 .78125.328125 0 .140625-.421875 1.78125-.859375 3.375l-.6875 2.6719c-.125.5625-.28125.703125-.796875.71875v.1875h2.4375v-.1875c-.5625 0-.765625-.09375-.765625-.359375 0-.15625.203125-1.0625.453125-1.984375C1.53125.078125 1.75.125 2.015625.125c1.75 0 3.59375-1.984375 3.59375-3.90625zm-1.0781.0469c0 .78125-.328125 1.78125-.828125 2.5-.515625.75-1.09375 1.140625-1.734375 1.140625-.328125 0-.5625-.1875-.5625-.4375 0-.40625.40625-1.96875.765625-2.859375C2.484375-4.1875 3.15625-4.75 3.734375-4.75c.015625 0 .046875 0 .0625 0 .5.015625.734375.328125.734375 1.015625zm0 0" id="c"/><path d="M3.6406-1.4219c0-.46875-.265625-.984375-.8125-1.671875-.46875-.5625-.65625-.9375-.65625-1.25 0-.40625.25-.65625.671875-.65625.625 0 .984375.453125 1.09375 1.375h.2031L4.375-5.2812h-.1719c-.09375.171875-.171875.21875-.359375.21875-.09375 0-.203125-.03125-.421875-.09375C3.125-5.25 2.953125-5.265625 2.75-5.265625c-.890625 0-1.453125.515625-1.453125 1.3125 0 .375.25.890625.765625 1.53125.453125.609375.65625 1.03125.65625 1.375 0 .5625-.359375.921875-.875.921875C1.171875-.125.8125-.609375.625-1.75H.4375L.1875.1563H.375c.109375-.203125.15625-.25.296875-.25.125 0 .34375.046875.578125.109375C1.53125.09375 1.703125.125 1.90625.125c1.015625 0 1.734375-.640625 1.734375-1.546875zm0 0" id="g"/><path d="M4.4219-1.1562l-.1406-.1406c-.859375.703125-1.234375.890625-1.765625.890625-.65625 0-1.109375-.4375-1.109375-1.09375 0-.171875.03125-.34375.125-.71875l.3281-.0469c1.796875-.25 3.0625-1.171875 3.0625-2.1875 0-.5-.359375-.8125-.953125-.8125C2.25-5.265625.375-3.3125.375-1.5c0 .96875.640625 1.625 1.578125 1.625.84375 0 1.765625-.46875 2.46875-1.28125zm-.2812-3.375c0 .375-.234375.796875-.609375 1.15625-.4375.421875-.890625.640625-1.921875.890625l.2031-.5312C2.21875-4.078125 3.109375-5 3.71875-5c.25 0 .421875.1875.421875.46875zm0 0" id="a"/><path d="M3.5313-5.1094h-.9531l.3438-1.2344c0-.03125 0-.046875 0-.0625 0-.078125-.03125-.125-.09375-.125s-.109375.015625-.171875.109375C1.515625-4.9375.6875-5.1875.6875-4.8125c0 .015625 0 .046875 0 .078125h.8906L.7188-1.4531c-.03125.15625-.28125.90625-.28125 1.125 0 .265625.25.453125.578125.453125.546875 0 .9375-.328125 1.703125-1.4375l-.1562-.0937c-.59375.765625-.78125.953125-.96875.953125-.109375 0-.1875-.09375-.1875-.234375 0-.015625 0-.03125.015625-.0625L2.4688-4.7344h1.0156zm0 0" id="e"/><path d="M3.4063-3.4687H.7344v.7969h2.6719V0h.7969v-2.6719h2.6563v-.7969H4.2033v-2.6719h-.797zm0 0" id="b"/><path d="M3.7813-5.2656c0-.421875-.3125-.671875-.71875-.671875-1.359375 0-1.703125 2.34375-1.953125 3.234375L.125-2.0469l.0938.1563.8125-.5312C.890625-1.953125.625-1.359375.625-.84375c0 .53125.3125.9375.875.9375.71875 0 1.265625-.703125 1.5625-1.296875l-.1562-.0625c-.21875.421875-.640625 1.03125-1.171875 1.03125-.34375 0-.515625-.25-.515625-.578125 0-.5.453125-1.734375.59375-2.21875.671875-.4375 1.96875-1.328125 1.96875-2.234375zm-.2344.0625c0 .71875-1.125 1.53125-1.640625 1.921875l.375-1.2969c.109375-.390625.34375-1.03125.84375-1.03125.234375 0 .421875.140625.421875.40625zm0 0" id="f"/><path d="M6.1719-.9219l-.125-.1094-.1875.2344c-.265625.328125-.421875.46875-.578125.46875-.0625 0-.09375-.046875-.09375-.140625 0-.046875.03125-.203125.078125-.40625l.5938-2.1875c.015625-.046875.03125-.1875.03125-.25 0-.3125-.21875-.546875-.515625-.546875-.171875 0-.328125.046875-.53125.171875-.4375.28125-.796875.703125-1.421875 1.6875.21875-.6875.359375-1.171875.359375-1.34375 0-.3125-.203125-.515625-.5-.515625-.53125 0-1.15625.578125-1.953125 1.84375l.5-1.8281-.0156-.0156-1.4062.2656v.1406H.625c.234375 0 .34375.0625.34375.1875 0 .109375-.203125.90625-.515625 2.015625L.1094 0h.6563c.421875-1.390625.546875-1.71875.84375-2.171875.5-.75 1.015625-1.234375 1.3125-1.234375.125 0 .1875.078125.1875.21875 0 .109375-.25 1.046875-.625 2.375L2.2656 0h.6563c.34375-1.34375.515625-1.78125.953125-2.390625s.8906-1.015625 1.1406-1.015625c.109375 0 .1875.078125.1875.1875 0 .03125-.015625.125-.0625.296875L4.625-.9062c-.078125.34375-.109375.5-.109375.578125 0 .265625.125.40625.34375.40625.421875 0 .796875-.28125 1.265625-.9375zm0 0" id="d"/><path d="M4.1719-2.8906c0-1.796875-.796875-3.03125-1.953125-3.03125-.46875 0-.84375.140625-1.171875.453125-.5.484375-.84375 1.5-.84375 2.53125C.203125-1.984375.5-.96875.90625-.46875c.328125.375.78125.59375 1.28125.59375.453125 0 .828125-.15625 1.140625-.453125.515625-.484375.84375-1.5.84375-2.5625zm-.8437.0156c0 1.828125-.390625 2.765625-1.140625 2.765625s-1.140625-.9375-1.140625-2.75c0-1.859375.40625-2.84375 1.15625-2.84375.734375 0 1.125 1 1.125 2.828125zm0 0" id="h"/></defs><use transform="translate(38)" href="#u"/><use x="35.687" y="96.367" href="#c"/><use x="111.051" y="31.166" href="#c"/><use x="120.1609" y="31.166" href="#b"/><use x="130.7293" y="31.166" href="#g"/><use x="135.858" y="31.166" href="#a"/><use x="141.543" y="32.959" href="#f"/><use x="148.643" y="31.166" href="#b"/><use x="158.8527" y="31.166" href="#e"/><use x="163.049" y="31.166" href="#a"/><use x="168.828" y="32.959" href="#d"/><use x="5.65" y="34.001" href="#c"/><use x="14.7599" y="34.001" href="#b"/><use x="24.9696" y="34.001" href="#e"/><use x="29.1659" y="34.001" href="#a"/><use x="34.947" y="35.794" href="#d"/><use x="1.103" y="53.845" href="#c"/><use x="10.2129" y="53.845" href="#b"/><use x="20.4226" y="53.845" href="#e"/><use x="24.11" y="55.638" href="#h"/><use x="29.171" y="53.845" href="#a"/><use x="34.947" y="55.638" href="#d"/><use x="99.712" y="11.322" href="#c"/><use x="108.8219" y="11.322" href="#b"/><use x="119.3903" y="11.322" href="#g"/><use x="124.285" y="13.115" href="#h"/><use x="129.346" y="11.322" href="#a"/><use x="135.026" y="13.115" href="#f"/><use x="142.126" y="11.322" href="#b"/><use x="152.3357" y="11.322" href="#e"/><use x="156.02" y="13.115" href="#h"/><use x="161.081" y="11.322" href="#a"/><use x="166.857" y="13.115" href="#d"/><use x="26.336" y="8.487" href="#a"/><use x="32.112" y="10.281" href="#d"/><use x="111.051" y="53.845" href="#c"/><use x="120.1609" y="53.845" href="#b"/><use x="130.7293" y="53.845" href="#g"/><use x="135.858" y="53.845" href="#a"/><use x="141.543" y="55.638" href="#f"/><use x="148.643" y="53.845" href="#b"/><use x="158.8527" y="53.845" href="#e"/><use x="162.538" y="55.638" href="#h"/><use x="167.599" y="53.845" href="#a"/><use x="173.374" y="55.638" href="#d"/><use x="135.871" y="87.863" href="#a"/><use x="141.551" y="89.656" href="#f"/><use x="87.478" y="99.202" href="#c"/><use x="96.5879" y="99.202" href="#b"/><use x="107.1563" y="99.202" href="#g"/><use x="112.285" y="99.202" href="#a"/><use x="117.97" y="100.995" href="#f"/><style>.a{fill:none;stroke:#000;stroke-linecap:butt;stroke-linejoin:miter;stroke-miterlimit:10;stroke-opacity:1;stroke-width:4.72425;transform:matrix(.1,0,0,-.1,.363,103.549)}.b{fill:#000;fill-opacity:1;fill-rule:evenodd}.c{clip-rule:evenodd}</style></svg>