<svg xmlns="http://www.w3.org/2000/svg" width="324pt" height="155pt" viewBox="0 0 324 155"><defs><clipPath id="o"><path d="M0 10h148.0508v145H0zm0 0"/></clipPath><clipPath id="p"><path d="M0 0h149v155H0z"/></clipPath><g id="u" clip-path="url(#p)"><path d="M39.997812 131.58375h1440.039063" class="b"/><g class="a"><path d="M2.8008 141.4023h.6016v6h-.6016zm0 0"/><path d="M146.8008 141.4023h.6016v6h-.6016zm0 0"/></g><path d="M39.997812 131.58375v1440.039063" class="b"/><g class="a"><path d="M.0391 144.0391h6v.6016h-6zm0 0"/><path d="M.0391.0391h6v.6015h-6zm0 0"/></g><g style="stroke-width:3.985;stroke-linecap:butt;stroke-linejoin:miter;stroke:#000;stroke-opacity:1;stroke-miterlimit:10;transform:matrix(.1,0,0,-.1,-.949,157.549)"><path fill="none" d="M183.982187 488.107188 1408.005625 1361.74"/><g class="a"><path d="M491.950937 693.693125c0 11.015625-8.945312 19.921875-19.921875 19.921875-11.015625 0-19.960937-8.90625-19.960937-19.921875s8.945312-19.960937 19.960937-19.960937c10.976563 0 19.921875 8.945312 19.921875 19.960937zm0 0"/><path d="M1139.95875 1156.193125c0 11.015625-8.945313 19.921875-19.921875 19.921875-11.015625 0-19.960938-8.90625-19.960938-19.921875s8.945313-19.921875 19.960938-19.921875c10.976562 0 19.921875 8.90625 19.921875 19.921875zm0 0"/></g><g fill="none"><path d="M472.029062 693.693125v-28.125"/><path d="M472.029062 609.357188v-28.125"/><path d="M472.029062 581.232188V553.14625"/><path d="M472.029062 496.935313v-28.085938"/><path d="M472.029062 468.849375v-28.125"/><path d="M472.029062 384.513438V356.4275"/><path d="M472.029062 356.4275v-28.125"/><path d="M472.029062 272.130625v-28.125"/><path d="M472.029062 244.005625v-28.085937"/><path d="M472.029062 159.70875v-28.125"/><path d="M1120.036875 1156.193125v-28.476562"/><path d="M1120.036875 1070.8025v-28.476562"/><path d="M1120.036875 1042.325938v-28.4375"/><path d="M1120.036875 956.974375v-28.476562"/><path d="M1120.036875 928.497813v-28.4375"/><path d="M1120.036875 843.107188v-28.4375"/><path d="M1120.036875 814.669688v-28.476563"/><path d="M1120.036875 729.279063V700.8025"/><path d="M1120.036875 700.8025V672.365"/><path d="M1120.036875 615.411875v-28.4375"/><path d="M1120.036875 586.974375v-28.476562"/><path d="M1120.036875 501.58375v-28.4375"/><path d="M1120.036875 473.14625v-28.476562"/><path d="M1120.036875 387.755625v-28.476562"/><path d="M1120.036875 359.279063v-28.4375"/><path d="M1120.036875 273.9275v-28.476562"/><path d="M1120.036875 245.450938v-28.476563"/><path d="M1120.036875 160.060313V131.58375"/></g></g><g class="c"><use x="43.7319" y="154.1342" href="#w"/><use x="107.9326" y="154.1342" href="#x"/><use x="7.6483" y="49.1622" href="#y"/><use x="12.6881" y="49.1622" href="#z"/><use x="16.1682" y="49.1622" href="#A"/><use x="22.6483" y="49.1622" href="#B"/><use x="29.8483" y="49.1622" href="#C"/><use x="38.6085" y="49.1622" href="#D"/><use x="52.5284" y="42.5626" href="#h"/><use x="56.4886" y="42.5626" href="#k"/><use x="59.7284" y="42.5626" href="#i"/><use x="64.5284" y="42.5626" href="#l"/><use x="67.5284" y="42.5626" href="#m"/><use x="74.7284" y="42.5626" href="#h"/><use x="78.9284" y="42.5626" href="#k"/><use x="82.1682" y="42.5626" href="#j"/><use x="86.1284" y="42.5626" href="#l"/><path fill-rule="nonzero" d="M51.1953 45.6953h38.1602v.7188H51.1953zm0 0"/><use x="62.8479" y="53.242" href="#i"/><use x="67.6479" y="53.242" href="#m"/><use x="73.7678" y="53.242" href="#j"/></g><g clip-path="url(#o)"><path d="M39.997812 131.58375l36.015625 76.757813L111.99 273.068125l36.015625 57.03125 35.976562 51.523438 36.015625 47.382812 36.015625 44.140625 36.015625 41.40625 35.976563 39.179688 35.976562 37.304687 36.015625 35.585938 36.015625 34.179687 36.015625 32.890625 35.976563 31.679688 35.976562 30.703125 36.015625 29.726562 36.015625 28.867188 36.015625 28.046875 35.976563 27.382812L724.02125 896.74l35.976562 26.054688 36.015625 25.46875 36.015625 24.882812 35.976563 24.414063 36.015625 23.90625 35.976562 23.476562 36.015625 23.007813 36.015625 22.617187 35.976563 22.226563 36.015625 21.875 36.015625 21.523437 35.976562 21.171875 36.015625 20.859375 35.976563 20.546875 36.015625 20.273438 36.015625 20 35.976562 19.726562 36.015625 19.453125 35.976563 19.21875 36.015625 18.984375 36.015625 18.710938" style="fill:none;stroke-width:7.9701;stroke-linecap:butt;stroke-linejoin:miter;stroke:#000;stroke-opacity:1;stroke-miterlimit:10;transform:matrix(.1,0,0,-.1,-.949,157.549)"/></g></g><clipPath id="q"><path d="M4 144h145.9492v1H4zm0 0"/></clipPath><clipPath id="r"><path d="M148 141h1.9492v7H148zm0 0"/></clipPath><clipPath id="s"><path d="M.9492 10h149v145h-149zm0 0"/></clipPath><clipPath id="t"><path d="M0 0h150v155H0z"/></clipPath><g id="v" clip-path="url(#t)"><g clip-path="url(#q)"><path d="M39.992188 131.58375H1480.03125" class="d"/></g><g class="a"><path d="M4.6992 141.4023h.6016v6h-.6016zm0 0"/><path d="M148.6992 141.4023h.6016v6h-.6016zm0 0" clip-path="url(#r)"/></g><path d="M39.992188 131.58375v1440.039063" class="d"/><g class="a"><path d="M1.9375 144.0391h6v.6016h-6zm0 0"/><path d="M1.9375.0391h6v.6015h-6zm0 0"/></g><g style="stroke-width:3.985;stroke-linecap:butt;stroke-linejoin:miter;stroke:#000;stroke-opacity:1;stroke-miterlimit:10;transform:matrix(.1,0,0,-.1,.95,157.549)"><path fill="none" d="M76.007812 338.693125 868 1048.654063"/><path d="M491.945312 693.693125c0 11.015625-8.90625 19.921875-19.921874 19.921875-11.015626 0-19.960938-8.90625-19.960938-19.921875s8.945312-19.960937 19.960938-19.960937c11.015624 0 19.921874 8.945312 19.921874 19.960937zm0 0" class="a"/><g fill="none"><path d="M472.023438 693.693125v-28.125"/><path d="M472.023438 609.357188v-28.125"/><path d="M472.023438 581.232188V553.14625"/><path d="M472.023438 496.935313v-28.085938"/><path d="M472.023438 468.849375v-28.125"/><path d="M472.023438 384.513438V356.4275"/><path d="M472.023438 356.4275v-28.125"/><path d="M472.023438 272.130625v-28.125"/><path d="M472.023438 244.005625v-28.085937"/><path d="M472.023438 159.70875v-28.125"/></g></g><g class="c"><use x="45.6309" y="154.1342" href="#n"/><use x="17.1914" y="52.5502" href="#F"/><use x="22.2312" y="52.5502" href="#G"/><use x="25.7113" y="52.5502" href="#H"/><use x="32.1914" y="52.5502" href="#I"/><use x="39.3914" y="52.5502" href="#J"/><use x="48.1516" y="52.5502" href="#K"/><use x="61.2317" y="52.5502" href="#E"/><use x="66.6317" y="48.2302" href="#L"/><use x="70.1114" y="52.5502" href="#M"/><use x="74.5512" y="52.5502" href="#n"/><use x="80.0712" y="52.5502" href="#N"/></g><g clip-path="url(#s)"><path d="M39.992188 131.58375l36.015624 76.757813 35.976563 64.726562L148 330.099375l36.015625 51.523438 35.976563 47.382812 36.015624 44.140625 36.015626 41.40625L328 553.732188l36.015625 37.304687 35.976563 35.585938 36.015624 34.179687 36.015626 32.890625L508 725.372813l36.015625 30.703125L580.03125 785.8025l35.976562 28.867188 36.015626 28.046875L688 870.099375 724.015625 896.74l36.015625 26.054688 35.976562 25.46875 36.015626 24.882812L868 997.560313l36.015625 23.90625 36.015625 23.476562 35.976562 23.007813 36.015626 22.617187L1048 1112.794688l36.015625 21.875 36.015625 21.523437 35.976562 21.171875 36.015626 20.859375L1228 1218.77125l36.015625 20.273438 36.015625 20 35.976562 19.726562 36.015626 19.453125L1408 1317.443125l36.015625 18.984375 36.015625 18.710938" style="fill:none;stroke-width:7.9701;stroke-linecap:butt;stroke-linejoin:miter;stroke:#000;stroke-opacity:1;stroke-miterlimit:10;transform:matrix(.1,0,0,-.1,.95,157.549)"/></g></g><use href="#a" id="w"/><path d="M5.3594-.9375l-.0937-.2344c-.4375.359375-.734375.53125-.921875.53125S4-.75 3.890625-.984375s-.25-.671875-.3125-1.03125L3.375-3.2187l.4219-.5781c.546875-.78125.875-1.0625 1.25-1.0625.1875 0 .328125.109375.390625.28125L5.6094-4.625l.1719-1.0156c-.140625-.078125-.25-.125-.359375-.125-.46875 0-.953125.4375-1.6875 1.53125l-.4531.6563-.0625-.5625c-.140625-1.1875-.46875-1.625-1.171875-1.625-.3125 0-.578125.09375-.6875.25l-.6875 1L.875-4.4062c.359375-.40625.59375-.5625.828125-.5625.390625 0 .65625.484375.859375 1.65625l.125.75-.4687.7344c-.515625.796875-.921875 1.1875-1.265625 1.1875C.78125-.640625.640625-.6875.625-.75l-.1406-.3437-.2344.0468c0 .2344-.015625.39065-.09375.76565C.125-.125.125-.09375.109375-.015625.28125.078125.484375.125.625.125c.390625 0 .859375-.34375 1.234375-.90625l.9063-1.3906.125.8281C3.0625-.328125 3.328125.125 3.75.125c.265625 0 .65625-.203125 1.03125-.546875zm0 0" id="x"/><use href="#b" id="y"/><use href="#c" id="z"/><use href="#d" id="A"/><use href="#e" id="B"/><use href="#f" id="C"/><use href="#g" id="D"/><path d="M3.625-6.3125c-.15625-.0625-.40625-.109375-.625-.109375-.09375 0-.234375.015625-.296875.0625-.21875.09375-.9375.625-1.140625.84375-.1875.1875-.296875.453125-.390625.953125l-.125.6875c-.359375.171875-.53125.25-.75.328125L.25-3.3594h.7031l-.0781.5C.609375-1.15625.296875.46875.09375 1.078125c-.15625.515625-.421875.78125-.734375.78125-.203125 0-.3125-.046875-.453125-.25l-.125.0313c-.03125.203125-.15625.625-.203125.703125.078125.046875.21875.078125.3125.078125.359375 0 .828125-.28125 1.171875-.6875.53125-.625.71875-1.234375 1.359375-4.3125.046875-.234375.125-.484375.171875-.78125H2.5c.046875-.171875.109375-.359375.15625-.484375l-.0312-.0625-.0625.0156c-.21875.0625-.3125.0625-.734375.0625H1.6875l.1719-.9844c.1406-.75.3906-1.09375.79685-1.09375.265625 0 .5.140625.625.34375l.0938-.0312.2031-.5937zm0 0" id="h"/><path d="M3.9375-.6875l-.0781-.1719c-.3125.265625-.53125.390625-.671875.390625s-.25-.078125-.34375-.265625c-.078125-.15625-.171875-.484375-.21875-.734375l-.1562-.8906.3125-.4219c.40625-.578125.640625-.78125.921875-.78125.140625 0 .234375.078125.28125.203125l.125-.0312.1406-.75c-.109375-.0625-.1875-.078125-.265625-.078125-.359375 0-.703125.3125-1.25 1.109375L2.4063-2.625l-.0469-.4219C2.25-3.90625 2.015625-4.21875 1.5-4.21875c-.234375 0-.421875.0625-.5.171875L.4844-3.3125l.1563.0938c.265625-.3125.4375-.421875.609375-.421875.28125 0 .484375.359375.625 1.21875l.0938.5313-.3437.5469c-.375.59375-.671875.875-.921875.875-.140625 0-.234375-.046875-.25-.078125l-.0937-.25-.1719.0313c0 .171875-.015625.28125-.078125.5625-.015825.1092-.015825.14045-.03145.187325.125.078125.265625.109375.375.109375.296875 0 .640625-.25.90625-.65625l.6719-1.0312.0938.6094C2.25-.25 2.4375.09375 2.75.09375c.1875 0 .46875-.140625.75-.40625zm0 0" id="i"/><path d="M3.1094-.8281l-.0781-.1875-.125.0938c-.640675.4218-.9688.57805-1.2813.57805-.484375 0-.734375-.359375-.734375-1.046875 0-.9375.296875-1.828125.71875-2.171875.171875-.15625.390625-.234375.671875-.234375.40625 0 .71875.171875.71875.375v.5313h.2031c.0625-.578125.125-.890625.203125-1.125-.21875-.140625-.5-.203125-.84375-.203125-.390625 0-1.015625.296875-1.515625.734375S.21875-2.125.21875-1.1875c0 .84375.375 1.28125 1.0625 1.28125.484375 0 .90625-.171875 1.390625-.5625zm0 0" id="j"/><path d="M2.6719-6.625C1.328125-5.75.53125-4.25.53125-2.359375c0 1.703125.828125 3.34375 2.109375 4.21875L2.75 1.7188C1.53125.671875 1.328125-.359375 1.328125-2.40625 1.328125-4.4375 1.5625-5.5 2.75-6.46875zm0 0" id="k"/><path d="M.375-6.625l-.0937.1563C1.46875-5.5 1.703125-4.4375 1.703125-2.40625 1.703125-.359375 1.5.671875.28125 1.71875l.1094.1406C1.671875.984375 2.5-.65625 2.5-2.359375 2.5-4.25 1.703125-5.75.375-6.625zm0 0" id="l"/><path d="M5.2969-2.1094v-.5156H.5625v.5156zm0 0" id="m"/><use href="#a" id="n"/><path d="M4.9375-8.6094c-.203125-.09375-.546875-.15625-.84375-.15625-.125 0-.3125.046875-.40625.09375-.296875.125-1.265625.859375-1.546875 1.140625-.265625.265625-.40625.625-.53125 1.296875l-.1875.9531C.9375-5.046925.6875-4.953175.390625-4.8438l-.0625.2656h.9688l-.1094.672C.828125-1.578125.390625.640625.125 1.46875c-.21875.703125-.5625 1.078125-1 1.078125-.265625 0-.421875-.078125-.625-.34375L-1.6562 2.25c-.046875.265625-.21875.84375-.28125.953125.109375.0625.28125.09375.421875.09375.484375 0 1.140625-.375 1.59375-.9375C.8125 1.5 1.0625.6875 1.953125-3.53125c.0625-.296875.15625-.65625.21875-1.046875h1.25c.046875-.234375.125-.5.203125-.671875l-.0469-.0781-.0937.0156c-.28125.09375-.40625.09375-1 .09375h-.1875l.25-1.3437c.1875-1.03125.53125-1.484375 1.078125-1.484375.359375 0 .671875.1875.859375.46875l.125-.0469zm0 0" id="E"/><use href="#b" id="F"/><use href="#c" id="G"/><use href="#d" id="H"/><use href="#e" id="I"/><use href="#f" id="J"/><use href="#g" id="K"/><path d="M2.75-3.7969c0-.3125-.34375-.546875-.640625-.546875-.34375 0-.5.34375-.59375.625L.5469-.9219c-.01565.062525-.07815.2344-.07815.312525s.046875.203125.140625.203125C.75-.40625.90625-.609375.96875-.703125l1.5156-2.4062c.125-.1875.265625-.4375.265625-.6875zm0 0" id="L"/><path d="M3.6406-9.0312C1.8125-7.84375.71875-5.796875.71875-3.234375c0 2.34375 1.140625 4.578125 2.875 5.78125L3.75 2.3438C2.09375.90625 1.8125-.484375 1.8125-3.28125 1.8125-6.0625 2.125-7.5 3.75-8.828125zm0 0" id="M"/><path d="M.5-9.0312l-.125.2031C2.015625-7.5 2.328125-6.0625 2.328125-3.28125c0 2.796875-.28125 4.1875-1.953125 5.625l.1563.2031c1.75-1.203125 2.890625-3.4375 2.890625-5.78125C3.421875-5.796875 2.3125-7.84375.5-9.03125zm0 0" id="N"/><path id="a" d="M4.2344-1.1406l-.0938-.2344-.1875.125c-.859375.5625-1.3125.765625-1.734375.765625-.671875 0-1.015625-.46875-1.015625-1.421875 0-1.265625.40625-2.5.984375-2.953125.25-.21875.546875-.3125.9375-.3125.53125 0 .96875.21875.96875.515625v.7188h.2656c.09375-.78125.1875-1.21875.296875-1.53125-.3125-.203125-.703125-.296875-1.15625-.296875-.53125 0-1.390625.421875-2.0625 1.015625C.75-4.140625.296875-2.90625.296875-1.625c0 1.140625.5 1.75 1.453125 1.75.65625 0 1.21875-.234375 1.890625-.765625zm0 0"/><path id="b" d="M4.6719-1.7656c0-.375-.09375-.65625-.328125-.890625-.3125-.3125-.703125-.4375-1.765625-.640625-.96875-.1875-1.296875-.4375-1.296875-.984375 0-.59375.421875-.9375 1.140625-.9375.8125 0 1.421875.421875 1.421875.984375v.2813h.3281c.015625-.703125.03125-.984375.0625-1.359375-.640625-.203125-1.0625-.296875-1.5625-.296875-1.375 0-2.234375.65625-2.234375 1.734375 0 .578125.265625.984375.8125 1.234375.328125.140625.96875.328125 1.78125.515625.53125.109375.765625.375.765625.828125 0 .640625-.609375 1.09375-1.453125 1.09375-.875 0-1.5-.421875-1.5-1.015625v-.4844H.4844c0 .8125-.03125 1.171875-.125 1.65625.625.203125 1.09375.28125 1.640625.28125 1.5625 0 2.671875-.828125 2.671875-2zm0 0"/><path id="c" d="M3.2344.0313v-.3594l-.5469-.0313C2.28125-.375 2.25-.46875 2.25-1.21875v-7.3594l-.1094-.0937c-.53125.203125-.921875.296875-1.859375.4375v.3281H.9375c.21875 0 .3125.140625.3125.5v6.1875c0 .75-.046875.84375-.453125.859375L.25-.3281v.3594C.75.015625 1.25 0 1.75 0s.984375.015625 1.484375.03125zm0 0"/><path id="d" d="M6.1406-2.8281c0-1.625-1.171875-2.78125-2.8125-2.78125C1.59375-5.609375.375-4.375.375-2.59375.375-.90625 1.453125.234375 2.984375.234375c1.84375 0 3.15625-1.28125 3.15625-3.0625zm-1.1094.4375c0 1.375-.609375 2.234375-1.578125 2.234375C2.28125-.15625 1.5-1.296875 1.5-3c0-1.4375.5625-2.21875 1.625-2.21875 1.09375 0 1.90625 1.203125 1.90625 2.828125zm0 0"/><path id="e" d="M6.625-3.2344c0-1.328125-1.109375-2.375-2.484375-2.375-.453125 0-.875.125-1.0625.296875l-.9844.9063V-5.5625l-.1094-.0469C1.375-5.359375.75-5.1875.125-5.109375v.3281h.4375c.484375 0 .53125.078125.53125.875v6.0156c0 .75-.046875.828125-.453125.859375L.0938 3v.3594c.5-.03125 1-.03125 1.5-.03125s.984375 0 1.484375.03125V3l-.5469-.0312c-.40625-.03125-.4375-.109375-.4375-.859375V-.1562c.359375.21875.734375.296875 1.28125.296875.34375 0 .65625-.0625.84375-.1875L5.5781-.9375C6.0625-1.25 6.625-2.46875 6.625-3.234375zm-1.0469.4375c0 1.34375-.796875 2.328125-1.875 2.328125-.65625 0-1.140625-.21875-1.609375-.703125v-2.4843c0-.171875.0625-.296875.21875-.5.34375-.453125.828125-.671875 1.421875-.671875 1.125 0 1.84375.78125 1.84375 2.03125zm0 0"/><path id="f" d="M5.3594-3.3281c0-1.375-.890625-2.28125-2.234375-2.28125-.4375 0-.953125.15625-1.4375.453125C.703125-4.609375.3125-3.859375.3125-2.625c0 .765625.171875 1.40625.5 1.859375.46875.640625 1.28125 1 2.171875 1 .453125 0 .890625-.09375 1.375-.3125.328125-.125.578125-.28125.625-.359375l.2344-.4062-.1562-.1094c-.765625.453125-1.03125.5625-1.546875.5625-.78125 0-1.421875-.34375-1.765625-.9375-.218825-.39065-.29695-.7344-.3282-1.4219h1.75C4-2.75 4.5-2.78125 5.328125-2.921875c.015625-.15625.03125-.265625.03125-.40625zm-1.0625.1406-1.3437.0313c-.546875 0-.859375-.015625-1.5-.078125 0-.5625.046875-.8125.203125-1.125.25-.53125.765625-.859375 1.328125-.859375.390625 0 .703125.15625.921875.484375.265625.390625.390625.734375.390625 1.546875zm0 0"/><path id="g" d="M.7813-4.1406h6.4375v-.7187H.7813zm0 2.5313h6.4375v-.7032H.7813zm0 0"/></defs><use href="#u"/><use transform="translate(174)" href="#v"/><style>.a{fill:#000;fill-opacity:1;fill-rule:nonzero}.b{fill:none;stroke:#000;stroke-linecap:butt;stroke-linejoin:miter;stroke-miterlimit:10;stroke-opacity:1;stroke-width:3.985;transform:matrix(.1,0,0,-.1,-.949,157.549)}.c{fill:#000;fill-opacity:1}.d{fill:none;stroke:#000;stroke-linecap:butt;stroke-linejoin:miter;stroke-miterlimit:10;stroke-opacity:1;stroke-width:3.985;transform:matrix(.1,0,0,-.1,.95,157.549)}</style></svg>