<svg xmlns="http://www.w3.org/2000/svg" width="271pt" height="72pt" viewBox="0 0 271 72"><defs><clipPath id="c"><path d="M0 8h169v63.55078H0zm0 0"/></clipPath><clipPath id="d"><path d="M0 0h271v72H0z"/></clipPath><g id="e" clip-path="url(#d)"><g clip-path="url(#c)"><path d="M207.98625 532.013438l15.625 5.390625 16.171875 5.390625 16.835938 4.804687 17.382812 4.804688 37.1875 9.609375 19.804688 4.804687 20.390625 4.179688 21.601562 4.21875 21.601563 4.179687 22.8125 4.21875 23.398437 3.59375 23.984375 4.179688 25.234375 3.59375 25.195313 3.632812 25.195312 2.96875 26.40625 3.007813 26.367188 3.007812 27.03125 3.007813L647.205 612.99l26.992188 2.421875 27.617187 2.382813 26.992188 2.421875 27.578125 1.796875 27.03125 1.171875 26.992187 1.796875 26.40625 1.210937 26.367188 1.210938 26.40625 1.210937 25.820312.585938 25.195313.585937 25.195312.625h96.015625l23.398438-.625 22.773437-.585937 27.03125-.585938 26.367188-.625 27.03125-1.171875 25.78125-1.835937 26.40625-1.171875 26.40625-2.421875 25.78125-1.796875 25.820312-3.007813 25.195313-2.382812 25.195312-3.59375 24.609375-3.007813 23.984375-4.21875 24.023438-4.179687 22.773437-4.21875 22.226563-4.765625 20.976562-5.429688 20.390625-5.390625 19.804688-6.015625 18.007812-5.976562 16.796875-6.015625 16.210938-6.601563 14.375-7.1875 13.203125-7.1875 12.03125-7.226562 10.78125-7.773438 8.984375-8.398437 7.8125-7.8125 6.601562-8.398438 5.390625-8.984375 3.632813-8.4375 2.382812-9.570312 1.796875-9.609375-.585937-10.195313-1.210938-10.820312-3.007812-11.367188-4.179688-12.03125-6.015625-12.578125-7.1875-12.617187-8.398437-13.203125-9.609375-13.789063-11.40625-13.789062-12.578125-14.414063-13.203125-14.414062-15-15-16.210938-15-16.796875-15-17.421875-15-18.59375-15-19.179687-14.375-19.804688-15-19.804687-13.789063-20.390625-14.414062-21.015625-13.203125-20.390625-13.203125-21.015625-12.617188-20.390625-11.992187-20.390625-11.40625-20.390625-10.78125-19.804688-10.195313-19.804687-9.609375-19.804688-8.984375-19.21875-8.398437-19.179687-7.8125-19.21875-7.8125-19.179688-7.1875-19.21875-6.015625-19.179687-6.601563-39.609375-10.78125-19.804688-4.804687-20.390625-4.179688-20.390625-4.21875-20.429687-3.59375-20.976563-3.007812L984.3925 13.615l-20.976562-2.421875-21.601563-1.796875-21.015625-1.210937-21.601562-.585938-21.015625-.585937-20.976563.585937h-21.015625L815.79875 8.810313l-21.015625 1.171875-20.390625 1.210937L754.587813 12.99l-20.390625 2.421875-19.804688 2.382813-19.804687 2.421875-19.804688 2.96875-19.179687 3.007812-19.804688 3.007813-19.179687 3.59375-38.4375 7.1875-19.765625 4.21875-19.804688 4.179687-20.429687 4.804688L497.790938 57.99l-20.976563 4.804688-21.015625 5.390625L434.197188 73.615l-21.015625 5.976563-21.5625 6.015625-43.203125 13.203125-21.015625 7.1875-21.601563 6.601562-20.390625 7.1875-20.390625 7.8125-19.804687 7.1875-18.59375 7.8125-18.632813 7.8125-17.96875 7.773438-16.835937 8.398437-16.171875 7.8125-15.625 7.8125-14.375 8.398438-13.828125 7.773437-12.578125 8.4375-11.992188 7.773438L77.790938 222.99l-10.195313 8.398438-9.609375 7.8125-8.398437 8.398437-7.1875 7.8125-13.203125 16.796875-5.390625 8.398438-4.804688 8.984375-3.59375 8.398437-3.59375 9.609375L9.3925 316.58375l-1.796875 9.609375-.585937 9.023438v9.570312l.585937 10.195313 1.796875 9.609375 2.421875 9.609375 2.96875 10.195312 4.21875 9.609375L24.3925 403.615l6.015625 9.570313 6.601563 9.609375 7.1875 9.023437 8.398437 9.570313 9.609375 9.023437 9.609375 8.398438 10.78125 8.398437 11.40625 8.398438 11.992188 7.773437 12.617187 7.8125 13.203125 7.8125 13.789063 6.601563 14.414062 7.1875 31.171875 13.203125zm0 0" class="a"/></g><path d="M1602.98625 629.200938l-13.203125-2.382813-13.164062-2.421875-12.03125-2.382812-11.992188-3.007813-11.40625-3.007812-10.78125-3.007813-10.195312-3.007812-10.195313-3.59375-9.023437-4.179688-8.984375-4.21875-8.398438-4.804687-7.8125-5.390625-6.601562-5.390625-6.601563-6.015625-5.976562-6.601563-9.609375-14.375-3.59375-8.398437-3.632813-8.398438-2.382812-9.023437-2.382813-9.609375-1.835937-10.195313-1.796875-11.40625-.585938-11.367187-1.210937-10.820313v-22.8125l.625-12.578125.585937-13.203125 1.210938-13.789062 1.796875-14.414063 2.382812-15 3.007813-15 3.59375-16.210937 4.804687-15.585938 4.804688-16.210937 6.015625-16.171875 6.601562-16.835938 7.1875-16.171875 8.398438-15.625 8.984375-15.585937 9.609375-15 10.820312-15 11.367188-13.789063 12.03125-13.828125 13.203125-12.578125 13.164062-11.40625 14.414063-11.40625 15.585937-10.195312 15.625-9.609375 17.382813-8.398438 18.007812-7.773437 15-6.015625 33.59375-9.609375 18.007813-4.179688 18.59375-3.59375 19.804687-3.632812 20.390625-2.382813 21.015625-2.382812 22.1875-1.210938 22.8125-1.210937 23.398438-.585938 23.984375.585938 24.609375.585937 25.195312 1.210938 25.195313 1.796875 25.820312 2.421875 26.40625 3.007812 26.367188 2.96875 25.820312 4.21875 26.40625 4.179688 25.78125 5.429687 25.820312 5.390625 25.195313 5.390625 25.195312 6.601563 24.609375 6.601562 23.984375 6.601563 23.398438 7.8125 22.8125 7.1875 22.1875 8.398437 21.015625 8.398438 20.976562 8.398437 20.429688 8.984375 19.804687 9.023438 19.179688 9.609375 19.21875 10.78125 19.179687 10.820312 18.59375 11.367188 18.59375 11.40625 17.421875 12.617187 17.382813 12.578125 16.796875 13.203125L2549.197187 297.99l16.210938 14.414063 15 13.789062 14.375 15 13.828125 14.414063 13.203125 15 12.578125 15.585937 11.40625 15 10.820312 15 9.570313 15.625 8.398437 15 7.8125 14.375 6.601563 14.414063 6.015625 14.375 4.765625 13.828125 3.632812 13.203125 2.382813 13.203125 1.796875 12.578125.585937 11.992187-.585937 11.40625-1.796875 10.820313-2.382813 10.195312-3.007812 9.609375-4.804688 8.984375-4.804687 8.398438-7.1875 8.984375-7.8125 7.8125-8.984375 7.8125-10.195313 7.1875-11.40625 6.601562-12.617187 6.601563-13.203125 5.390625-15 6.015625-15.585938 4.804687-16.796875 4.179688-18.007812 4.21875-19.21875 4.179687-19.765625 3.007813-20.429688 3.007812-20.976562 2.382813-21.601563 1.796875-22.226562 1.796875-22.1875 1.835937-22.8125.585938-22.773438.585937-22.8125.625h-45.585937l-22.226563-.625-22.1875-.585937-21.601562-.585938-43.203125-2.421875-20.390625-1.210937-21.015625-1.171875-20.390625-1.210938-40.78125-3.59375-21.015625-1.210937-20.390625-1.796875-20.390625-2.382813-21.015625-1.835937-20.390625-1.796875-21.015625-2.382813-20.390625-2.421875-21.015625-2.382812-20.390625-2.382813-20.390625-2.421875-20.390625-2.382812-19.804687-3.007813-19.804688-2.421875-19.21875-2.382812-18.59375-3.007813-18.007812-2.382812-17.382813-3.007813-16.796875-2.382812-16.210937-2.421875-15.585938-2.382813-15-2.421875-13.828125-2.382812-13.789062-2.421875-12.578125-2.382813-12.617188-1.796875-11.40625-2.421875zm0 0" class="a"/><path d="M78.2969 20.62891l1.9219-.53906 1.9766-.48047 1.9805-.42187 1.9805-.41797 1.9805-.30078 2.0391-.30078 1.9805-.23828 2.0388-.1797 2.043-.12109 2.0391-.05859 1.9805-.0625 1.9805.0625 1.9805.05859 1.918.17969 1.9219.17969 1.8594.24219 1.7383.29688 1.7422.30078 1.6797.42188 1.5586.41797 1.5.42188 1.4414.48047 1.3789.53906 1.3203.53906 1.2578.60156 1.2617.59766 1.082.60156 2.0391 1.32031 1.0195.71875.9609.72266.8984.77734 1.6797 1.67969.7813.90234.7188.89844.6602.96094.6016.96094.5391 1.01953.418 1.01953.3633 1.01953.2969 1.01953.1797 1.01953.1211.96094v1.01953l-.1211.96094-.1797 1.01953-.2383.89844-.3594.96094-.4805.90234-.5391.89844-.6602.83984-.7227.83984-.8398.83984-.8398.71875-1.0195.72266-1.0195.71875-1.1406.78125-1.2578.66016-1.3828.71875-1.4375.71875-1.5.66016-1.6797.72266-1.7422.66016-1.8008.59766-1.8594.66016-1.9805.60156-2.0391.59766-2.0391.54297-2.1602.53906-4.3203.96094-2.2187.41797-2.2227.35938-2.1602.35938-2.2187.36328-4.3203.47656-2.1602.17969-2.0977.18359-2.043.11719-2.0391.12109-2.0391.05859h-4.1406l-2.1016-.05859-2.1562-.12109-4.2031-.35937-2.0977-.23828-2.1016-.24219-2.0977-.35937-2.043-.35937-1.9805-.42187-1.9766-.47656-1.9219-.48047-1.8008-.54297-1.8008-.59766-1.6172-.60156-1.5625-.66016-1.5-.66016-1.3203-.71875-1.1992-.78125-1.0781-.71875-.9609-.78125-.8398-.77734-.6602-.83984-.5391-.78125-.4219-.83984-.2383-.83984-.1797-.83984.0586-.90234.1211-.89844.3008-.89844.3594-.96094.5977-.96094.6602-1.01953.8398-1.01953.9023-1.01953 1.0781-1.08203 1.1992-1.07812 1.3203-1.08203 1.4414-1.14062 1.5586-1.13672 1.6211-1.08203 1.7383-1.07812 1.7422-1.08203 1.8594-1.07812 1.9219-1.01953 1.918-1.02344 1.9805-.95703 1.9219-.96094 1.9766-.83984 1.9805-.83984 1.9805-.78125 1.9219-.78125 1.918-.66016 1.8594-.65625 1.9219-.60156" class="b"/><path d="M785.79875 509.200938l19.21875 5.390625 19.765625 4.804687 19.804688 4.21875 19.804687 4.179688 19.804688 3.007812 20.390625 3.007813 19.804687 2.382812L944.783125 537.99l20.429688 1.210938 20.390625.585937 19.804687.625 19.804688-.625 19.804687-.585937 19.179688-1.796875 19.21875-1.796875 18.59375-2.421875 17.382812-2.96875 17.421875-3.007813 16.796875-4.21875 15.585938-4.179687 15-4.21875 14.414062-4.804688 13.789063-5.390625 13.203125-5.390625 12.578125-6.015625 12.617187-5.976562 10.820313-6.015625 20.390625-13.203125 10.195312-7.1875 9.609375-7.226563 8.984375-7.773437 16.796875-16.796875 7.8125-9.023438 7.1875-8.984375 6.601563-9.609375 6.015625-9.609375 5.390625-10.195312 4.179687-10.195313 3.632813-10.195312 2.96875-10.195313 1.796875-10.195312 1.210937-9.609375V320.8025l-1.210937-9.609375-1.796875-10.195312-2.382813-8.984375-3.59375-9.609375-4.804687-9.023438-5.390625-8.984375-6.601563-8.398437-7.226562-8.398438-8.398438-8.398437-8.398437-7.1875-10.195313-7.226563-10.195312-7.1875-11.40625-7.8125-12.578125-6.601562-13.828125-7.1875-14.375-7.1875-15-6.601563-16.796875-7.226562-17.421875-6.601563-18.007813-5.976562-18.59375-6.601563-19.804687-6.015625-20.390625-5.976562-20.390625-5.429688-21.601563-5.390625-43.203125-9.609375-22.1875-4.179687-22.226562-3.59375-21.601563-3.59375-22.1875-3.632813L909.3925 103.615l-21.601562-1.796875-20.976563-1.835937-20.429687-1.171875-20.390625-1.210938-20.390625-.585937h-41.40625l-21.015625.585937-21.5625 1.210938-42.03125 3.59375-20.976563 2.382812-21.015625 2.421875-20.976562 3.59375-20.429688 3.59375-19.804687 4.21875-19.765625 4.765625-19.21875 4.804688L519.3925 133.615l-18.007812 5.976563-16.171875 6.015625-15.625 6.601562-15 6.601563-13.203125 7.1875-11.992188 7.8125-10.78125 7.1875-9.609375 7.8125-8.398437 7.773437-6.601563 8.398438-5.390625 7.8125-4.21875 8.398437-2.382812 8.398438-1.796875 8.398437.585937 9.023438 1.210938 8.984375 3.007812 8.984375 3.59375 9.609375 5.976563 9.609375 6.601562 10.195312 8.398438 10.195313 9.023437 10.195312 10.78125 10.820313 11.992188 10.78125 13.203125 10.820312 14.414062 11.40625 15.585938 11.367188L500.79875 380.8025l17.382813 10.78125 17.421875 10.820313 18.59375 10.78125 19.21875 10.195312L592.595625 433.615l19.804688 9.570313 19.21875 9.609375 19.765625 8.398437 19.804687 8.398438 19.804688 7.8125 19.21875 7.8125 19.179687 6.601562 18.59375 6.5625 19.21875 6.015625zm0 0" class="c"/><path d="M219.2969 15.34766l1.3789.17969 1.3203.24219 2.6406.71875 1.2617.48047 1.1992.53906 1.1992.54297 1.1406.66016 1.0781.71875 1.082.78125.9609.77734.957.90234.8398.83984.7227.95703.7188.96094.6016.96094.4805.96094.418.95703.3008 1.02344.1797.95703.1211.96094v.89844l-.1211.90234-.1797.89844-.3008.83984-.418.78125-.4805.78125-.6016.77734-.7812.78125-.8984.71875-1.082.72266-1.1367.71875-1.2617.66016-1.3789.60156-1.5.59766-1.6211.60156-1.7383.53906-1.8008.53906-1.9219.42188-1.918.48047-2.0391.35938-2.043.35938-2.0391.30078-2.1016.30078-4.0781.35938-1.9805.11719-1.918.12109-1.8633.0625h-1.8594l-1.7383-.0625-1.6797-.05859-1.6211-.12109-1.5-.12109-1.2617-.11719-1.1367-.17969-1.1406-.18359-1.082-.23828-1.0781-.23828-.9609-.24219-1.0195-.30078-.9609-.35937-.8398-.30078-.8984-.41797-.7812-.35937-.7812-.42187-1.3203-.96094-.5977-.47656-.4805-.54297-.4805-.53906-.418-.53906-.3008-.53906-.2422-.60156-.1797-.60156-.1172-.59766-.0625-.60156.0625-.59766.0586-.66016.1797-.60156.2383-.60156.2422-.66016.3594-.59766.4219-.66016.4766-.60156.6016-.66016.7188-.77734.9023-.83984.9609-.83984 1.0781-.83984 1.1406-.83984 1.3203-.84375 1.3789-.83984 1.5-.89844 1.5586-.83984 1.6211-.83984 1.7422-.83984 1.7383-.78125 3.7188-1.4375 1.8594-.66016 1.9219-.60156 1.8594-.53906 1.8594-.48047 1.8594-.42187 1.8008-.35937 1.8008-.30078 1.7422-.17969 1.6797-.11719 1.6172-.0625 1.5625.0625" class="b"/><path d="M2195.79875 562.013438l13.789062-1.796875 13.203125-2.421875 26.40625-7.1875 12.617188-4.804688 11.992187-5.390625 11.992188-5.429687 11.40625-6.601563 10.78125-7.1875 10.820312-7.8125 9.609375-7.773437 9.570313-9.023438 8.398437-8.398437 7.226563-9.570313 7.1875-9.609375 6.015625-9.609375 4.804687-9.609375 4.179688-9.570312 3.007812-10.234375 1.796875-9.570313 1.210938-9.609375v-8.984375l-1.210938-9.023437-1.796875-8.984375-3.007812-8.398438-4.179688-7.8125-4.804687-7.8125-6.015625-7.773437-7.8125-7.8125-8.984375-7.1875-10.820313-7.226563-11.367187-7.1875-12.617188-6.601562-13.789062-6.015625-15-5.976563-16.210938-6.015625-17.382812-5.390625-18.007813-5.390625-19.21875-4.21875-19.179687-4.804687-20.390625-3.59375-20.429688-3.59375-20.390625-3.007813-21.015625-3.007812-40.78125-3.59375-19.804687-1.171875-19.179687-1.210938-18.632813-.625h-18.59375l-17.382812.625-16.796875.585938-16.210938 1.210937-15 1.210938-12.617187 1.171875-11.367188 1.796875-11.40625 1.835937-10.820312 2.382813-10.78125 2.382812-9.609375 2.421875-10.195313 3.007813-9.609375 3.59375-8.398437 3.007812-8.984375 4.179688-7.8125 3.59375-7.8125 4.21875-13.203125 9.609375-5.976563 4.765625-4.804687 5.429687-4.804688 5.390625-4.179687 5.390625-3.007813 5.390625-2.421875 6.015625-1.796875 6.015625-1.171875 5.976563-.625 6.015625.625 5.976562.585938 6.601563 1.796875 6.015625 2.382812 6.015625 2.421875 6.601562 3.59375 5.976563 4.21875 6.601562 4.765625 6.015625 6.015625 6.601563 7.1875 7.773437 9.023438 8.398438 9.609375 8.398437 10.78125 8.398438 11.40625 8.398437 13.203125 8.4375 13.789062 8.398438 15 8.984375 15.585938 8.398437 16.210937 8.398438 17.421875 8.398437 17.382813 7.8125 37.1875 14.375 18.59375 6.601563 19.21875 6.015625 18.59375 5.390625 18.593749 4.804687 18.59375 4.21875 18.007813 3.59375 18.007812 3.007813 17.421875 1.796875 16.796875 1.171875 16.171875.625 15.625-.625zm0 0" class="c"/></g><path d="M5.1563-2.17187c0-.78125-.265625-1.234375-1.359375-2.328125C2.71875-5.59375 2.625-5.765625 2.625-6.34375c0-.75.5-1.21875 1.3125-1.21875.4375 0 .796875.140625 1.046875.421875.28125.296875.375.703125.390625 1.515625l.2188.03125.4844-2.375H5.797c-.171875.25-.28125.3125-.53125.3125-.15625 0-.3125-.046875-.5625-.140625-.25-.109375-.640625-.15625-1.015625-.15625-1.234375 0-2.125.8125-2.125 1.984375 0 .65625.1875 1 .90625 1.765625.15625.15625.296875.3125.453125.5l.4688.5c.5625.578125.71875.890625.71875 1.40625 0 .90625-.65625 1.59375-1.546875 1.59375-1 0-1.734375-.84375-1.734375-2.015625 0-.09375 0-.140625.015625-.25l-.2344-.01562-.4062 2.65625h.2188C.5-.09375.640625-.21875.875-.21875c.125 0 .296875.046875.625.15625.546875.203125.859375.28125 1.234375.28125 1.375 0 2.421875-1.03125 2.421875-2.390625zm0 0" id="a"/><path d="M9.1406-7.60937v-.20313h-2.375v.20313c.640625.0625.84375.1875.84375.546875 0 .1875-.296875 1.375-.875 3.421875l-.1562.59375c-.531275 1.95312-1.2969 2.76562-2.6094 2.76562-1 0-1.671875-.5625-1.671875-1.40625 0-.40625.359375-1.8125 1.171875-4.609375l.0625-.23437c.25-.828125.4375-1 1.25-1.078125v-.20313H1.5156v.20313c.8125.0625.9375.140625.9375.484375 0 .140625-.03125.328125-.09375.53125l-.625 2.29688C1.359375-2.984375 1.21875-2.25 1.21875-1.75c0 1.140625 1.09375 1.96875 2.609375 1.96875 1.5625 0 2.5625-.859375 3.078125-2.640625l1-3.40625c.453125-1.5625.5-1.625 1.234375-1.78125zm0 0" id="b"/><path d="M4.1563-1.20312 4.0469-1.25c-.328125.5-.4375.578125-.828125.578125H1.125l1.4688-1.53125C3.375-3.03125 3.71875-3.6875 3.71875-4.375c0-.875-.71875-1.546875-1.625-1.546875-.484375 0-.9375.1875-1.265625.546875-.28125.296875-.40625.578125-.5625 1.1875l.1875.04688C.8125-5 1.125-5.28125 1.734375-5.28125c.734375 0 1.234375.5 1.234375 1.234375 0 .6875-.40625 1.5-1.140625 2.28125l-1.5625 1.65625V0H3.6875zm0 0" id="f"/><path d="M3.4531 0v-.125c-.687475-.015625-.8281-.109375-.8281-.53125v-5.25l-.0781-.01562L.9688-5.125V-5c.109375-.046875.203125-.078125.234375-.109375.171875-.046875.3125-.09375.40625-.09375.171875 0 .25.140625.25.421875V-.8125c0 .28125-.0625.484375-.203125.5625-.125.078125-.25.109375-.625.125V0zm0 0" id="g"/></defs><use href="#e"/><use x="90.967" y="45.328" href="#a"/><use x="207.969" y="31.828" href="#a"/><use x="244.577" y="22.827" href="#b"/><use x="253.209" y="24.621" href="#f"/><use x="19.572" y="36.328" href="#b"/><use x="28.203" y="38.121" href="#g"/><style>.a{fill:none;stroke:#000;stroke-dasharray:9,9;stroke-dashoffset:9;stroke-linecap:butt;stroke-linejoin:bevel;stroke-miterlimit:10;stroke-opacity:1;stroke-width:4.5;transform:matrix(.1,0,0,-.1,-.283,71.549)}.b{fill:#aaa;fill-opacity:1;fill-rule:evenodd}.c{fill:none;stroke:#000;stroke-linecap:butt;stroke-linejoin:bevel;stroke-miterlimit:10;stroke-opacity:1;stroke-width:4.5;transform:matrix(.1,0,0,-.1,-.283,71.549)}</style></svg>