<svg xmlns="http://www.w3.org/2000/svg" width="218pt" height="164pt" viewBox="0 0 218 164"><defs><path d="M6.0156-2.4062v-.5781H.6406v.5781zm0 0" id="b"/><path d="M4.1719.0313v-.2969l-.5156-.0312C3.09375-.328125 3-.4375 3-.953125V-6.875l-.1406-.0469c-.64065.343775-1.3594.64065-2.26565.95315l.0781.4375h.0938c.4375-.203125.875-.40625 1.3125-.59375.0625 0 .078125.09375.078125.328125v4.8438c0 .515625-.109375.625-.640625.65625l-.5625.0313V.0313C1.5.015625 2.046875 0 2.609375 0 3.125 0 3.65625.015625 4.171875.03125zm0 0" id="a"/><path d="M4.6406-3.6562c0-2.171875-.65625-3.21875-2.015625-3.21875C1.0781-6.87495.29685-5.640575.29685-3.234325.296875-2.0625.5-1.0625.84375-.5625 1.203125-.078125 1.75.203125 2.375.203125c1.5 0 2.265625-1.296875 2.265625-3.859375zm-.8437.5c0 2.125-.375 3-1.296875 3-.96875 0-1.375-1-1.375-3.4375 0-2.09375.375-2.921875 1.3125-2.921875.96875 0 1.359375.96875 1.359375 3.359375zm0 0" id="c"/><path d="M4.6719.0313c-.03125-.203125-.03125-.3125-.03125-.453125 0-.125 0-.21875.03125-.453125L1.2188-.7656l1.8125-1.9219C4-3.71875 4.296875-4.265625 4.296875-5.015625 4.296875-6.15625 3.515625-6.875 2.25-6.875c-.71875 0-1.203125.203125-1.6875.703125L.3906-4.8125h.2813l.1406-.4687c.15625-.578125.515625-.8125 1.1875-.8125.84375 0 1.40625.53125 1.40625 1.375 0 .75-.421875 1.484375-1.546875 2.6875L.1563-.2344v.2657C.890625.015625 1.640625 0 2.375 0c.765625 0 1.53125.015625 2.296875.03125zm0 0" id="d"/><path d="M4.6094-2.2344c0-.484375-.203125-.890625-.5625-1.140625-.25-.1875-.484375-.265625-.96875-.359375.796875-.609375 1.09375-1.078125 1.09375-1.65625 0-.890625-.75-1.484375-1.84375-1.484375-.6875 0-1.125.203125-1.609375.671875L.4219-4.9687h.3125l.1875-.5469c.109375-.34375.734375-.6875 1.25-.6875.65625 0 1.171875.53125 1.171875 1.15625 0 .75-.578125 1.375-1.296875 1.375-.078125 0-.46875-.03125-.46875-.03125l-.1094.5313.0625.0625c.375-.171875.578125-.21875.84375-.21875.828125 0 1.296875.53125 1.296875 1.4375 0 1.015625-.59375 1.6875-1.53125 1.6875-.453125 0-.859375-.15625-1.15625-.4375-.25-.21875-.375-.453125-.5625-.984375l-.2656.0938C.359375-.921875.4375-.5625.5-.0625c.53125.1875.96875.265625 1.328125.265625 1.21875 0 2.78125-1.046875 2.78125-2.4375zm0 0" id="e"/><path d="M4.7031.0313v-.2969l-.4687-.0312c-.5-.03125-.609375-.15625-.609375-.765625v-.7344c.59375 0 .796875 0 1.078125.03125v-.7031s-.484375.03125-.8125.03125H3.625v-1.3906c0-1.78125.03125-2.625.078125-3.046875l-.125-.0469-.7344.2656-2.8281 4.625.1094.2344h2.6719v.7344c0 .609375-.109375.75-.609375.765625l-.6094.0313V.0313C2.109375.015625 2.640625 0 3.1875 0c.5 0 1.015625.015625 1.515625.03125zM2.7969-2.4375H.6406l2.1563-3.5156zm0 0" id="f"/></defs><g style="fill:none;stroke-width:3.985;stroke-miterlimit:10;transform:matrix(.1,0,0,-.1,0,164)"><g stroke="#7f7f7f"><path d="M125.585938 392.382812l128.828124 27.382813"/><path d="M139.101562 537.617188 240.898438 580.9375"/><path d="M150.078125 686.953125l79.84375 50.976563"/><path d="M157.8125 838.242188l64.375 54.804687"/><path d="M163.28125 990.390625l53.4375 56.914063"/><path d="M167.226562 1142.96875l45.546876 58.125"/><path d="M170.234375 1295.78125l39.53125 58.90625"/><path d="M172.539062 1448.710938l34.921876 59.453124"/><path d="M305.585938 392.382812l128.828124 27.382813"/><path d="M319.101562 537.617188 420.898438 580.9375"/><path d="M330.078125 686.953125l79.84375 50.976563"/><path d="M337.8125 838.242188l64.414062 54.804687"/><path d="M343.28125 990.390625l53.476562 56.914063"/><path d="M347.226562 1142.96875l45.546876 58.125"/><path d="M350.234375 1295.78125l39.53125 58.90625"/><path d="M352.539062 1448.710938l34.921876 59.453124"/><path d="M485.625 392.382812l128.789062 27.382813"/><path d="M499.101562 537.617188 600.9375 580.9375"/><path d="M510.078125 686.953125l79.84375 50.976563"/><path d="M517.8125 838.242188l64.414062 54.804687"/><path d="M523.28125 990.390625l53.476562 56.914063"/><path d="M527.226562 1142.96875l45.546876 58.125"/><path d="M530.234375 1295.78125l39.53125 58.90625"/><path d="M532.539062 1448.710938l34.921876 59.453124"/><path d="M665.625 392.382812l128.789062 27.382813"/><path d="M679.101562 537.617188 780.9375 580.9375"/><path d="M690.078125 686.953125l79.882813 50.976563"/><path d="M697.8125 838.242188l64.414062 54.804687"/><path d="M703.28125 990.390625l53.476562 56.914063"/><path d="M707.265625 1142.96875l45.507813 58.125"/><path d="M710.234375 1295.78125l39.570313 58.90625"/><path d="M712.539062 1448.710938l34.921876 59.453124"/><path d="M845.625 392.382812l128.789062 27.382813"/><path d="M859.101562 537.617188 960.9375 580.9375"/><path d="M870.078125 686.953125l79.882813 50.976563"/><path d="M877.8125 838.242188l64.414062 54.804687"/><path d="M883.28125 990.390625l53.476562 56.914063"/><path d="M887.265625 1142.96875l45.507813 58.125"/><path d="M890.234375 1295.78125l39.570313 58.90625"/><path d="M892.539062 1448.710938l34.921876 59.453124"/><path d="M1025.625 392.382812l128.789062 27.382813"/><path d="M1039.101562 537.617188 1140.9375 580.9375"/><path d="M1050.078125 686.953125l79.882813 50.976563"/><path d="M1057.8125 838.242188l64.414062 54.804687"/><path d="M1063.28125 990.390625l53.476562 56.914063"/><path d="M1067.265625 1142.96875l45.507813 58.125"/><path d="M1070.234375 1295.78125l39.570313 58.90625"/><path d="M1072.539062 1448.710938l34.921876 59.453124"/><path d="M1205.625 392.382812l128.789062 27.382813"/><path d="M1219.101562 537.617188 1320.9375 580.9375"/><path d="M1230.078125 686.953125l79.882813 50.976563"/><path d="M1237.8125 838.242188l64.414062 54.804687"/><path d="M1243.28125 990.390625l53.476562 56.914063"/><path d="M1247.265625 1142.96875l45.507813 58.125"/><path d="M1250.234375 1295.78125l39.570313 58.90625"/><path d="M1252.578125 1448.710938l34.882813 59.453124"/><path d="M1385.625 392.382812l128.789062 27.382813"/><path d="M1399.101562 537.617188 1500.9375 580.9375"/><path d="M1410.078125 686.953125l79.882813 50.976563"/><path d="M1417.8125 838.242188l64.414062 54.804687"/><path d="M1423.28125 990.390625l53.476562 56.914063"/><path d="M1427.265625 1142.96875l45.507813 58.125"/><path d="M1430.234375 1295.78125l39.570313 58.90625"/><path d="M1432.578125 1448.710938l34.882813 59.453124"/><path d="M1565.625 392.382812l128.789062 27.382813"/><path d="M1579.101562 537.617188 1680.9375 580.9375"/><path d="M1590.078125 686.953125l79.882813 50.976563"/><path d="M1597.8125 838.242188l64.414062 54.804687"/><path d="M1603.28125 990.390625l53.476562 56.914063"/><path d="M1607.265625 1142.96875l45.507813 58.125"/><path d="M1610.234375 1295.78125l39.570313 58.90625"/><path d="M1612.578125 1448.710938l34.882813 59.453124"/><path d="M1745.625 392.382812l128.789062 27.382813"/><path d="M1759.101562 537.617188 1860.9375 580.9375"/><path d="M1770.078125 686.953125l79.882813 50.976563"/><path d="M1777.8125 838.242188l64.414062 54.804687"/><path d="M1783.28125 990.390625l53.476562 56.914063"/><path d="M1787.265625 1142.96875l45.507813 58.125"/><path d="M1790.234375 1295.78125l39.570313 58.90625"/><path d="M1792.578125 1448.710938l34.882813 59.453124"/><path d="M1925.625 392.382812l128.789062 27.382813"/><path d="M1939.101562 537.617188 2040.9375 580.9375"/><path d="M1950.078125 686.953125l79.882813 50.976563"/><path d="M1957.8125 838.242188l64.414062 54.804687"/><path d="M1963.28125 990.390625l53.476562 56.914063"/><path d="M1967.265625 1142.96875l45.507813 58.125"/><path d="M1970.234375 1295.78125l39.570313 58.90625"/><path d="M1972.578125 1448.710938l34.882813 59.453124"/></g><path stroke="#000" d="M370 252.890625h1440.039062"/></g><path d="M36.7461 138.7227h.6016v6h-.6016zm0 0"/><path d="M108.75 138.7227h.6016v6h-.6016zm0 0"/><path d="M180.75 138.7227h.6016v6h-.6016zm0 0"/><use x="31.1199" y="153.6422" href="#b"/><use x="37.8398" y="153.6422" href="#a"/><use x="106.4808" y="153.5223" href="#c"/><use x="178.482" y="153.6422" href="#a"/><g style="fill:none;stroke-width:3.985;stroke:#000;stroke-miterlimit:10;transform:matrix(.1,0,0,-.1,0,164)"><path d="M10 252.890625h1800.039062"/><path d="M1810.039062 252.890625h360"/><path d="M1090.039062 559.257812V1478.4375"/></g><path d="M102.9883 107.7266h6v.6016h-6zm0 0"/><path d="M102.9883 77.0859h6v.6016h-6zm0 0"/><path d="M102.9883 46.4492h6v.6016h-6zm0 0"/><path d="M102.9883 15.8086h6v.6016h-6zm0 0"/><use x="95.5551" y="110.2121" href="#a"/><use x="95.5551" y="79.573" href="#d"/><use x="95.5551" y="48.8148" href="#e"/><use x="95.5551" y="18.2957" href="#f"/><g style="fill:none;stroke:#000;stroke-miterlimit:10;transform:matrix(.1,0,0,-.1,0,164)"><g stroke-width="3.985"><path d="M1090.039062 252.890625v306.367187"/><path d="M1090.039062 252.890625v1378.710937"/></g><path stroke-width="7.9701" d="M10 321.25l43.203125 4.21875 43.203125 4.492188 43.203125 4.765624 43.203125 5.078126 43.203125 5.351562 43.164063 5.703125 43.203124 6.054687 43.203126 6.445313 43.203124 6.835937 43.242188 7.265626 43.164062 7.695312 43.203126 8.164062 43.203124 8.710938 43.203126 9.179688 43.203124 9.804687 43.203126 10.390625 43.203124 11.054688 43.203126 11.71875 43.203124 12.460937 43.203126 13.203125 43.203124 14.0625 43.203126 14.882812 43.203124 15.820313 43.203126 16.796875 43.203124 17.851562 43.164063 18.945313 43.203125 20.117187 43.203125 21.367188 43.203125 22.695312 43.203125 24.0625 43.203125 25.585938 43.203125 27.148438 43.203125 28.828124 43.203125 30.625 43.203125 32.5 43.203125 34.53125 43.203125 36.679688 43.164062 38.90625 43.203126 41.328125 43.203124 43.867187 43.203126 46.640626 43.203124 49.453124 43.203126 52.539063 43.203124 55.820313 43.203126 59.21875 43.203124 62.929687 43.203126 66.757813 43.203124 70.9375 43.203126 75.3125 43.203124 79.960937"/></g></svg>