<svg xmlns="http://www.w3.org/2000/svg" width="218pt" height="164pt" viewBox="0 0 218 164"><defs><path d="M6.0156-2.4062v-.5781H.6406v.5781zm0 0" id="d"/><path d="M4.1719.0313v-.2969l-.5156-.0312C3.09375-.328125 3-.4375 3-.953125V-6.875l-.1406-.0469c-.64065.343775-1.3594.64065-2.26565.95315l.0781.4375h.0938c.4375-.203125.875-.40625 1.3125-.59375.0625 0 .078125.09375.078125.328125v4.8438c0 .515625-.109375.625-.640625.65625l-.5625.0313V.0313C1.5.015625 2.046875 0 2.609375 0 3.125 0 3.65625.015625 4.171875.03125zm0 0" id="c"/><path d="M4.6406-3.6562c0-2.171875-.65625-3.21875-2.015625-3.21875C1.0781-6.87495.29685-5.640575.29685-3.234325.296875-2.0625.5-1.0625.84375-.5625 1.203125-.078125 1.75.203125 2.375.203125c1.5 0 2.265625-1.296875 2.265625-3.859375zm-.8437.5c0 2.125-.375 3-1.296875 3-.96875 0-1.375-1-1.375-3.4375 0-2.09375.375-2.921875 1.3125-2.921875.96875 0 1.359375.96875 1.359375 3.359375zm0 0" id="e"/><path d="M4.6719.0313c-.03125-.203125-.03125-.3125-.03125-.453125 0-.125 0-.21875.03125-.453125L1.2188-.7656l1.8125-1.9219C4-3.71875 4.296875-4.265625 4.296875-5.015625 4.296875-6.15625 3.515625-6.875 2.25-6.875c-.71875 0-1.203125.203125-1.6875.703125L.3906-4.8125h.2813l.1406-.4687c.15625-.578125.515625-.8125 1.1875-.8125.84375 0 1.40625.53125 1.40625 1.375 0 .75-.421875 1.484375-1.546875 2.6875L.1563-.2344v.2657C.890625.015625 1.640625 0 2.375 0c.765625 0 1.53125.015625 2.296875.03125zm0 0" id="f"/><path d="M4.6094-2.2344c0-.484375-.203125-.890625-.5625-1.140625-.25-.1875-.484375-.265625-.96875-.359375.796875-.609375 1.09375-1.078125 1.09375-1.65625 0-.890625-.75-1.484375-1.84375-1.484375-.6875 0-1.125.203125-1.609375.671875L.4219-4.9687h.3125l.1875-.5469c.109375-.34375.734375-.6875 1.25-.6875.65625 0 1.171875.53125 1.171875 1.15625 0 .75-.578125 1.375-1.296875 1.375-.078125 0-.46875-.03125-.46875-.03125l-.1094.5313.0625.0625c.375-.171875.578125-.21875.84375-.21875.828125 0 1.296875.53125 1.296875 1.4375 0 1.015625-.59375 1.6875-1.53125 1.6875-.453125 0-.859375-.15625-1.15625-.4375-.25-.21875-.375-.453125-.5625-.984375l-.2656.0938C.359375-.921875.4375-.5625.5-.0625c.53125.1875.96875.265625 1.328125.265625 1.21875 0 2.78125-1.046875 2.78125-2.4375zm0 0" id="g"/><path d="M4.7031.0313v-.2969l-.4687-.0312c-.5-.03125-.609375-.15625-.609375-.765625v-.7344c.59375 0 .796875 0 1.078125.03125v-.7031s-.484375.03125-.8125.03125H3.625v-1.3906c0-1.78125.03125-2.625.078125-3.046875l-.125-.0469-.7344.2656-2.8281 4.625.1094.2344h2.6719v.7344c0 .609375-.109375.75-.609375.765625l-.6094.0313V.0313C2.109375.015625 2.640625 0 3.1875 0c.5 0 1.015625.015625 1.515625.03125zM2.7969-2.4375H.6406l2.1563-3.5156zm0 0" id="h"/><path id="a" d="M1072.0313 551.9922l18.0078 7.2656"/><path id="b" d="M1090.0391 559.2578l17.9688 8.0469"/></defs><path d="M370 252.890625h1440.039062" class="a"/><path d="M36.7461 138.7227h.6016v6h-.6016zm0 0"/><path d="M108.75 138.7227h.6016v6h-.6016zm0 0"/><path d="M180.75 138.7227h.6016v6h-.6016zm0 0"/><use x="31.1199" y="153.6422" href="#d"/><use x="37.8398" y="153.6422" href="#c"/><use x="106.4808" y="153.5223" href="#e"/><use x="178.482" y="153.6422" href="#c"/><g class="a"><path d="M10 252.890625h1800.039062"/><path d="M1810.039062 252.890625h360"/><path d="M1090.039062 559.257812V1478.4375"/></g><path d="M102.9883 107.7266h6v.6016h-6zm0 0"/><path d="M102.9883 77.0859h6v.6016h-6zm0 0"/><path d="M102.9883 46.4492h6v.6016h-6zm0 0"/><path d="M102.9883 15.8086h6v.6016h-6zm0 0"/><use x="97.175" y="105.7781" href="#c"/><use x="97.175" y="75.1402" href="#f"/><use x="97.175" y="44.3812" href="#g"/><use x="97.175" y="13.8621" href="#h"/><g style="fill:none;stroke:#000;stroke-miterlimit:10;transform:matrix(.1,0,0,-.1,0,164)"><g stroke-width="3.985"><path d="M1090.039062 252.890625v306.367187"/><path d="M1090.039062 252.890625v1378.710937"/><path d="M10 559.257812h18.007812"/><path d="M63.984375 559.257812h18.007813"/><path d="M81.992188 559.257812H100"/><path d="M136.015625 559.257812h17.96875"/><path d="M153.984375 559.257812h18.046875"/><path d="M208.007812 559.257812h18.007813"/><path d="M226.015625 559.257812h17.96875"/><path d="M280 559.257812h18.007812"/><path d="M298.007812 559.257812h18.007813"/><path d="M352.03125 559.257812H370"/><path d="M370 559.257812h18.007812"/><path d="M423.984375 559.257812h18.046875"/><path d="M442.03125 559.257812H460"/><path d="M496.015625 559.257812h17.96875"/><path d="M513.984375 559.257812h18.046875"/><path d="M568.007812 559.257812h18.007813"/><path d="M586.015625 559.257812h17.96875"/><path d="M640 559.257812h18.007812"/><path d="M658.007812 559.257812h18.007813"/><path d="M712.03125 559.257812H730"/><path d="M730 559.257812h18.007812"/><path d="M784.023438 559.257812h18.007812"/><path d="M802.03125 559.257812H820"/><path d="M856.015625 559.257812h18.007813"/><path d="M874.023438 559.257812h18.007812"/><path d="M928.007812 559.257812h18.007813"/><path d="M946.015625 559.257812h18.007813"/><path d="M1000 559.257812h18.007812"/><path d="M1018.007812 559.257812h18.007813"/><path d="M1072.03125 559.257812h18.007812"/><path d="M1090.039062 559.257812h17.96875"/><path d="M1144.023438 559.257812h18.007812"/><path d="M1162.03125 559.257812h18.007812"/><path d="M1216.015625 559.257812h18.007813"/><path d="M1234.023438 559.257812h18.007812"/><path d="M1288.007812 559.257812h18.007813"/><path d="M1306.015625 559.257812h18.007813"/><path d="M1360.039062 559.257812h17.96875"/><path d="M1378.007812 559.257812h18.007813"/><path d="M1432.03125 559.257812h18.007812"/><path d="M1450.039062 559.257812h17.96875"/><path d="M1504.023438 559.257812h18.007812"/><path d="M1522.03125 559.257812h18.007812"/><path d="M1576.015625 559.257812h18.007813"/><path d="M1594.023438 559.257812h18.007812"/><path d="M1648.007812 559.257812h18.007813"/><path d="M1666.015625 559.257812h18.007813"/><path d="M1720.039062 559.257812h17.96875"/><path d="M1738.007812 559.257812h18.007813"/><path d="M1792.03125 559.257812h18.007812"/><path d="M1810.039062 559.257812h17.96875"/><path d="M1864.023438 559.257812h18.007812"/><path d="M1882.03125 559.257812h18.007812"/><path d="M1936.015625 559.257812h18.007813"/><path d="M1954.023438 559.257812h18.007812"/><path d="M2008.007812 559.257812h18.007813"/><path d="M2026.015625 559.257812h18.007813"/><path d="M2080.039062 559.257812h17.96875"/><path d="M2098.007812 559.257812h18.007813"/><path d="M2152.03125 559.257812h18.007812"/><path d="M10 99.6875l18.007812 7.65625"/><path d="M63.984375 122.65625l18.007813 7.65625"/><path d="M81.992188 130.3125 100 138.007812"/><path d="M136.015625 153.320312l17.96875 7.65625"/><path d="M153.984375 160.976562l18.046875 7.65625"/><path d="M208.007812 183.945312l18.007813 7.65625"/><path d="M226.015625 191.601562l17.96875 7.65625"/><path d="M280 214.570312l18.007812 7.65625"/><path d="M298.007812 222.226562l18.007813 7.65625"/><path d="M352.03125 245.195312 370 252.890625"/><path d="M370 252.890625l18.007812 7.65625"/><path d="M423.984375 275.859375l18.046875 7.65625"/><path d="M442.03125 283.515625 460 291.171875"/><path d="M496.015625 306.484375l17.96875 7.65625"/><path d="M513.984375 314.140625l18.046875 7.65625"/><path d="M568.007812 337.148438l18.007813 7.65625"/><path d="M586.015625 344.804688l17.96875 7.65625"/><path d="M640 367.773438l18.007812 7.65625"/><path d="M658.007812 375.429688l18.007813 7.65625"/><path d="M712.03125 398.398438 730 406.054688"/><path d="M730 406.054688l18.007812 7.65625"/><path d="M784.023438 429.0625l18.007812 7.65625"/><path d="M802.03125 436.71875 820 444.375"/><path d="M856.015625 459.6875l18.007813 7.65625"/><path d="M874.023438 467.34375 892.03125 475"/><path d="M928.007812 490.3125l18.007813 7.695312"/><path d="M946.015625 498.007812l18.007813 7.65625"/><path d="M1000 520.976562l18.007812 7.65625"/><path d="M1018.007812 528.632812l18.007813 7.65625"/><path d="M1072.03125 551.601562l18.007812 7.65625"/><path d="M1090.039062 559.257812l17.96875 7.65625"/><path d="M1144.023438 582.265625l18.007812 7.617187"/><path d="M1162.03125 589.882812l18.007812 7.695313"/><path d="M1216.015625 612.890625l18.007813 7.65625"/><path d="M1234.023438 620.546875l18.007812 7.65625"/><path d="M1288.007812 643.515625l18.007813 7.65625"/><path d="M1306.015625 651.171875l18.007813 7.65625"/><path d="M1360.039062 674.140625l17.96875 7.695313"/><path d="M1378.007812 681.835938l18.007813 7.617187"/><path d="M1432.03125 704.804688l18.007812 7.65625"/><path d="M1450.039062 712.460938l17.96875 7.65625"/><path d="M1504.023438 735.429688l18.007812 7.65625"/><path d="M1522.03125 743.085938l18.007812 7.695312"/><path d="M1576.015625 766.054688l18.007813 7.695312"/><path d="M1594.023438 773.75l18.007812 7.65625"/><path d="M1648.007812 796.71875l18.007813 7.65625"/><path d="M1666.015625 804.375l18.007813 7.65625"/><path d="M1720.039062 827.34375 1738.007812 835"/><path d="M1738.007812 835l18.007813 7.65625"/><path d="M1792.03125 858.007812l18.007812 7.65625"/><path d="M1810.039062 865.664062l17.96875 7.65625"/><path d="M1864.023438 888.632812l18.007812 7.65625"/><path d="M1882.03125 896.289062l18.007812 7.65625"/><path d="M1936.015625 919.257812l18.007813 7.65625"/><path d="M1954.023438 926.914062l18.007812 7.65625"/><path d="M2008.007812 949.921875l18.007813 7.65625"/><path d="M2026.015625 957.578125l18.007813 7.65625"/><path d="M2080.039062 980.546875l17.96875 7.65625"/><path d="M2098.007812 988.203125l18.007813 7.65625"/><path d="M2152.03125 1011.171875l18.007812 7.695313"/><path d="M10 444.375l18.007812-3.4375"/><path d="M63.984375 434.023438l18.007813-3.4375"/><path d="M81.992188 430.585938 100 427.890625"/><path d="M136.015625 422.539062l17.96875-2.695312"/><path d="M153.984375 419.84375l18.046875-1.914062"/><path d="M208.007812 414.101562l18.007813-1.914062"/><path d="M226.015625 412.1875l17.96875-1.132812"/><path d="M280 408.75l18.007812-1.132812"/><path d="M298.007812 407.617188l18.007813-.390626"/><path d="M352.03125 406.445312 370 406.054688"/><path d="M370 406.054688l18.007812.390624"/><path d="M423.984375 407.226562l18.046875.390626"/><path d="M442.03125 407.617188 460 408.75"/><path d="M496.015625 411.054688l17.96875 1.132812"/><path d="M513.984375 412.1875l18.046875 1.914062"/><path d="M568.007812 417.929688l18.007813 1.914062"/><path d="M586.015625 419.84375l17.96875 2.695312"/><path d="M640 427.890625l18.007812 2.695313"/><path d="M658.007812 430.585938l18.007813 3.4375"/><path d="M712.03125 440.9375 730 444.375"/><path d="M730 444.375l18.007812 4.21875"/><path d="M784.023438 457.03125l18.007812 4.179688"/><path d="M802.03125 461.210938l17.96875 5"/><path d="M856.015625 476.171875l18.007813 4.960937"/><path d="M874.023438 481.132812 892.03125 486.875"/><path d="M928.007812 498.398438l18.007813 5.703124"/><path d="M946.015625 504.101562l18.007813 6.523438"/><path d="M1000 523.632812l18.007812 6.523438"/><path d="M1018.007812 530.15625l18.007813 7.265625"/><use href="#a"/><use href="#b"/><path d="M1144.023438 583.398438l18.007812 8.046874"/><path d="M1162.03125 591.445312l18.007812 8.789063"/><path d="M1216.015625 617.851562l18.007813 8.789063"/><path d="M1234.023438 626.640625 1252.03125 636.25"/><path d="M1288.007812 655.390625l18.007813 9.570313"/><path d="M1306.015625 664.960938l18.007813 10.351562"/><path d="M1360.039062 695.976562l17.96875 10.351563"/><path d="M1378.007812 706.328125l18.007813 11.09375"/><path d="M1432.03125 739.648438l18.007812 11.132812"/><path d="M1450.039062 750.78125l17.96875 11.835938"/><path d="M1504.023438 786.367188l18.007812 11.875"/><path d="M1522.03125 798.242188l18.007812 12.65625"/><path d="M1576.015625 836.171875l18.007813 12.617187"/><path d="M1594.023438 848.789062l18.007812 13.398438"/><path d="M1648.007812 889.023438l18.007813 13.398437"/><path d="M1666.015625 902.421875l18.007813 14.179687"/><path d="M1720.039062 944.921875l17.96875 14.179687"/><path d="M1738.007812 959.101562l18.007813 14.921876"/><path d="M1792.03125 1003.90625l18.007812 14.960938"/><path d="M1810.039062 1018.867188l17.96875 15.664062"/><path d="M1864.023438 1065.9375l18.007812 15.703125"/><path d="M1882.03125 1081.640625l18.007812 16.484375"/><path d="M1936.015625 1131.054688l18.007813 16.484374"/><path d="M1954.023438 1147.539062l18.007812 17.226563"/><path d="M2008.007812 1199.21875l18.007813 17.226562"/><path d="M2026.015625 1216.445312l18.007813 18.007813"/><path d="M2080.039062 1270.46875l17.96875 18.007812"/><path d="M2098.007812 1288.476562l18.007813 18.75"/><path d="M2152.03125 1344.765625l18.007812 18.75"/><path d="M10 272.03125l18.007812 4.609375"/><path d="M63.984375 285.859375l18.007813 4.609375"/><path d="M81.992188 290.46875 100 294.765625"/><path d="M136.015625 303.359375l17.96875 4.296875"/><path d="M153.984375 307.65625l18.046875 4.101562"/><path d="M208.007812 319.882812l18.007813 4.0625"/><path d="M226.015625 323.945312l17.96875 3.945313"/><path d="M280 335.703125l18.007812 3.945313"/><path d="M298.007812 339.648438l18.007813 3.828124"/><path d="M352.03125 351.171875 370 355"/><path d="M370 355l18.007812 3.867188"/><path d="M423.984375 366.523438l18.046875 3.828124"/><path d="M442.03125 370.351562 460 374.296875"/><path d="M496.015625 382.148438l17.96875 3.90625"/><path d="M513.984375 386.054688l18.046875 4.0625"/><path d="M568.007812 398.28125l18.007813 4.0625"/><path d="M586.015625 402.34375l17.96875 4.296875"/><path d="M640 415.234375l18.007812 4.335937"/><path d="M658.007812 419.570312l18.007813 4.570313"/><path d="M712.03125 433.398438 730 437.96875"/><path d="M730 437.96875l18.007812 5"/><path d="M784.023438 452.96875l18.007812 5"/><path d="M802.03125 457.96875 820 463.398438"/><path d="M856.015625 474.296875l18.007813 5.46875"/><path d="M874.023438 479.765625l18.007812 5.976563"/><path d="M928.007812 497.695312l18.007813 6.015626"/><path d="M946.015625 503.710938l18.007813 6.601562"/><path d="M1000 523.515625l18.007812 6.601563"/><path d="M1018.007812 530.117188l18.007813 7.265624"/><use href="#a"/><use href="#b"/><path d="M1144.023438 583.4375l18.007812 8.046875"/><path d="M1162.03125 591.484375l18.007812 8.90625"/><path d="M1216.015625 618.164062l18.007813 8.90625"/><path d="M1234.023438 627.070312l18.007812 9.804688"/><path d="M1288.007812 656.523438l18.007813 9.84375"/><path d="M1306.015625 666.367188l18.007813 10.78125"/><path d="M1360.039062 698.789062l17.96875 10.820313"/><path d="M1378.007812 709.609375l18.007813 11.875"/><path d="M1432.03125 745.234375l18.007812 11.914063"/><path d="M1450.039062 757.148438l17.96875 13.007812"/><path d="M1504.023438 796.25l18.007812 13.007812"/><path d="M1522.03125 809.257812l18.007812 14.257813"/><path d="M1576.015625 852.070312l18.007813 14.257813"/><path d="M1594.023438 866.328125 1612.03125 881.875"/><path d="M1648.007812 913.007812l18.007813 15.546876"/><path d="M1666.015625 928.554688l18.007813 16.953124"/><path d="M1720.039062 979.375l17.96875 16.953125"/><path d="M1738.007812 996.328125l18.007813 18.398437"/><path d="M1792.03125 1051.523438l18.007812 18.398437"/><path d="M1810.039062 1069.921875l17.96875 19.921875"/><path d="M1864.023438 1129.6875l18.007812 19.921875"/><path d="M1882.03125 1149.609375l18.007812 21.523437"/><path d="M1936.015625 1214.21875l18.007813 21.5625"/><path d="M1954.023438 1235.78125l18.007812 23.203125"/><path d="M2008.007812 1305.429688l18.007813 23.242187"/><path d="M2026.015625 1328.671875l9.023437 12.460937"/><path d="M2053.007812 1366.132812l9.023438 12.5"/><path d="M2062.03125 1378.632812l8.984375 12.460938"/><path d="M2089.023438 1416.09375l8.984374 12.5"/><path d="M2098.007812 1428.59375l9.023438 13.398438"/><path d="M2125.039062 1468.828125l8.984376 13.398437"/><path d="M2134.023438 1482.226562l8.984374 13.398438"/><path d="M2161.015625 1522.460938l9.023437 13.398437"/></g><path stroke-width="7.9701" d="M10 321.25l71.992188 7.1875 71.992187 7.929688 72.03125 8.789062 71.992187 9.726562L370 365.585938l72.03125 11.875 71.953125 13.085937 72.03125 14.492187 71.992187 15.976563L730 438.710938l72.03125 19.53125 71.992188 21.601562 71.992187 23.867188 71.992187 26.40625 72.03125 29.140624 71.992188 32.226563 71.992188 35.625 71.992187 39.335937 71.992187 43.515626 72.03125 48.085937 71.992188 53.085937 71.992188 58.710938 71.992187 64.921875 71.992187 71.679687 72.03125 79.257813 71.992188 87.617187 71.992188 96.796876 71.992187 106.992187 71.992187 118.203125 72.03125 130.703125"/></g><style>.a{fill:none;stroke:#000;stroke-miterlimit:10;stroke-width:3.985;transform:matrix(.1,0,0,-.1,0,164)}</style></svg>