<svg xmlns="http://www.w3.org/2000/svg" width="296pt" height="47pt" viewBox="0 0 296 47"><defs><clipPath id="g"><path d="M220 30h37v2h-37zm0 0"/></clipPath><clipPath id="h"><path d="M-.9023 48.55078h299v-49h-299zm257.8164-18.02344v.83984L248.2773 32.75l7.1992-1.80078-7.1992-1.80078zm-36.8398.83984v-.83984l8.6406-1.37891-7.1992 1.80078 7.1991 1.80079zm0 0" class="b"/></clipPath><clipPath id="i"><path d="M148 30h73v2h-73zm0 0"/></clipPath><clipPath id="j"><path d="M-.9023 48.55078h299v-49h-299zm221.8164-18.02344v.83984L212.2773 32.75l7.1992-1.80078-7.1992-1.80078zm-72.8398.83984v-.83984l8.6406-1.37891-7.1992 1.80078 7.1991 1.80079zm0 0" class="b"/></clipPath><clipPath id="k"><path d="M4 30h145v2H4zm0 0"/></clipPath><clipPath id="l"><path d="M-.9023 48.55078h299v-49h-299zm149.8164-18.02344v.83984L140.2773 32.75l7.1992-1.80078-7.1992-1.80078zm-144.8398.83984v-.83984l8.6406-1.37891-7.1992 1.80078L12.7148 32.75zm0 0" class="b"/></clipPath><clipPath id="m"><path d="M0 22h20v18H0zm0 0"/></clipPath><clipPath id="n"><path d="M256 30h37v2h-37zm0 0"/></clipPath><clipPath id="o"><path d="M-.9023 48.55078h299v-49h-299zm293.8164-18.02344v.83984L284.2773 32.75l7.1992-1.80078-7.1992-1.80078zm-36.8398.83984v-.83984l8.6406-1.37891-7.1992 1.80078 7.1991 1.80079zm0 0" class="b"/></clipPath><clipPath id="p"><path d="M277 22h19v18h-19zm0 0"/></clipPath><clipPath id="q"><path d="M4 17h253v1H4zm0 0"/></clipPath><clipPath id="r"><path d="M-.9023 48.55078h299v-49h-299zm257.8164-31.52344v.83984L248.2773 19.25l7.1992-1.80078-7.1992-1.80078zm-252.8398.83984v-.83984l8.6406-1.37891-7.1992 1.80078L12.7148 19.25zm0 0" class="b"/></clipPath><clipPath id="s"><path d="M0 9h20v17H0zm0 0"/></clipPath><clipPath id="t"><path d="M0 0h296v47H0z"/></clipPath><g id="u" clip-path="url(#t)"><g class="a"><path d="M54.000937 355.997813v-225"/><path d="M2934.000937 355.997813v-225"/></g><g clip-path="url(#g)"><g clip-path="url(#h)"><path d="M2214.000937 175.997813h360" class="a"/></g></g><g class="a"><path d="M2296.188437 157.99l-71.992187 18.007813 71.992187 18.007812"/><path d="M2491.813437 194.005625l71.992188-18.007812L2491.813437 157.99"/><path d="M1494.000937 265.997813v-135"/><path d="M2214.000937 265.997813v-135"/><path d="M2574.000937 355.997813v-225"/></g><g clip-path="url(#i)"><g clip-path="url(#j)"><path d="M1494.000937 175.997813h720" class="a"/></g></g><g class="a"><path d="M1576.188437 157.99l-71.992187 18.007813 71.992187 18.007812"/><path d="M2131.813437 194.005625l71.992188-18.007812L2131.813437 157.99"/></g><g clip-path="url(#k)"><g clip-path="url(#l)"><path d="M54.000937 175.997813h1440" class="a"/></g></g><g clip-path="url(#m)"><path d="M136.188437 157.99 64.19625 175.997813l71.992187 18.007812" class="a"/></g><path d="M1411.813437 194.005625l71.992188-18.007812L1411.813437 157.99" class="a"/><g clip-path="url(#n)"><g clip-path="url(#o)"><path d="M2574.000937 175.997813h360" class="a"/></g></g><path d="M2656.188437 157.99l-71.992187 18.007813 71.992187 18.007812" class="a"/><g clip-path="url(#p)"><path d="M2851.813437 194.005625l71.992188-18.007812L2851.813437 157.99" class="a"/></g><g clip-path="url(#q)"><g clip-path="url(#r)"><path d="M54.000937 310.997813h2520" class="a"/></g></g><g clip-path="url(#s)"><path d="M136.188437 292.99 64.19625 310.997813l71.992187 18.007812" class="a"/></g><g class="a"><path d="M2491.813437 329.005625l71.992188-18.007812L2491.813437 292.99"/><path d="M54.000937 220.997813h2880"/></g></g><path d="M3.4531 0v-.125c-.687475-.015625-.8281-.109375-.8281-.53125v-5.25l-.0781-.01562L.9688-5.125V-5c.109375-.046875.203125-.078125.234375-.109375.171875-.046875.3125-.09375.40625-.09375.171875 0 .25.140625.25.421875V-.8125c0 .28125-.0625.484375-.203125.5625-.125.078125-.25.109375-.625.125V0zm0 0" id="a"/><path d="M4.1563-1.20312 4.0469-1.25c-.328125.5-.4375.578125-.828125.578125H1.125l1.4688-1.53125C3.375-3.03125 3.71875-3.6875 3.71875-4.375c0-.875-.71875-1.546875-1.625-1.546875-.484375 0-.9375.1875-1.265625.546875-.28125.296875-.40625.578125-.5625 1.1875l.1875.04688C.8125-5 1.125-5.28125 1.734375-5.28125c.734375 0 1.234375.5 1.234375 1.234375 0 .6875-.40625 1.5-1.140625 2.28125l-1.5625 1.65625V0H3.6875zm0 0" id="d"/><path d="M3.9063-1.35937c0-.671875-.296875-1.109375-1.359375-1.890625.859375-.46875 1.171875-.828125 1.171875-1.4375 0-.71875-.640625-1.234375-1.515625-1.234375-.953125 0-1.65625.578125-1.65625 1.375 0 .578125.15625.828125 1.078125 1.640625C.6875-2.1875.484375-1.921875.484375-1.328125.484375-.46875 1.1875.125 2.171875.125 3.21875.125 3.90625-.453125 3.90625-1.359375zm-.6719.26563c0 .578125-.390625.96875-.96875.96875-.65625 0-1.109375-.5-1.109375-1.265625 0-.5625.1875-.9375.703125-1.34375l.5313.39063c.640625.453125.84375.765625.84375 1.25zm-.125-3.59375c0 .5-.25.890625-.75 1.21875-.03125.03125-.03125.03125-.078125.0625C1.5-3.921875 1.1875-4.328125 1.1875-4.8125c0-.515625.40625-.875.953125-.875.59375 0 .96875.390625.96875 1zm0 0" id="c"/><path d="M4.1406-1.46875v-.5625H3.25v-3.89062h-.3906l-2.75 3.89063v.5625h2.4531V0H3.25v-1.46875zm-1.5781-.5625H.4531l2.1094-3zm0 0" id="e"/><path d="M.7344 2.3125h.625L4.75-8.45312h-.6094zm0 0" id="b"/><path d="M3.4063-3.46875H.7344v.79688h2.6719V0h.7969v-2.67187h2.6563v-.79687H4.2033v-2.67187h-.797zm0 0" id="f"/><path d="M5.6875-3.9375c0-2.453125-1.078125-4.140625-2.65625-4.140625-.65625 0-1.15625.203125-1.59375.625-.703125.65625-1.15625 2.03125-1.15625 3.4375 0 1.296875.40625 2.703125.96875 3.375.4375.515625 1.046875.8125 1.734375.8125.609375 0 1.125-.203125 1.5625-.625C5.234375-1.109375 5.6875-2.5 5.6875-3.9375zm-1.1406.01563c0 2.5-.53125 3.78125-1.5625 3.78125S1.4375-1.421875 1.4375-3.90625c0-2.53125.53125-3.859375 1.5625-3.859375 1 0 1.546875 1.34375 1.546875 3.84375zm0 0" id="v"/><path d="M4.7031 0v-.17187c-.9375-.015625-1.125-.140625-1.125-.71875V-8.0625l-.0937-.01562L1.3281-7v.17188c.140625-.0625.28125-.109375.328125-.125.203125-.09375.40625-.140625.53125-.140625.25 0 .359375.1875.359375.5625v5.42188c0 .390625-.09375.671875-.28125.78125-.1875.09375-.359375.140625-.859375.15625V0zm0 0" id="w"/></defs><use href="#u"/><use x="67.498" y="42.325" href="#a"/><use x="70.553" y="44.408" href="#b"/><use x="75.3861" y="44.408" href="#d"/><use x="230.728" y="42.325" href="#a"/><use x="233.783" y="44.408" href="#b"/><use x="238.6161" y="44.408" href="#c"/><use x="180.001" y="42.325" href="#a"/><use x="183.056" y="44.408" href="#b"/><use x="187.8891" y="44.408" href="#e"/><use x="271.229" y="42.325" href="#a"/><use x="274.284" y="44.408" href="#b"/><use x="279.1171" y="44.408" href="#c"/><use x="99.172" y="10.824" href="#a"/><use x="102.227" y="12.908" href="#b"/><use x="107.0601" y="12.908" href="#d"/><use x="114.0977" y="12.908" href="#f"/><use x="124.363" y="10.824" href="#a"/><use x="127.418" y="12.908" href="#b"/><use x="132.2511" y="12.908" href="#e"/><use x="139.2887" y="12.908" href="#f"/><use x="149.553" y="10.824" href="#a"/><use x="152.609" y="12.908" href="#b"/><use x="157.4421" y="12.908" href="#c"/><use x="-.004" y="8.408" href="#v"/><use x="291.0214" y="8.408" href="#w"/><style>.a{fill:none;stroke:#000;stroke-linecap:butt;stroke-linejoin:miter;stroke-miterlimit:10;stroke-opacity:1;stroke-width:4.5;transform:matrix(.1,0,0,-.1,-.904,48.549)}.b{clip-rule:evenodd}</style></svg>