<svg xmlns="http://www.w3.org/2000/svg" width="256pt" height="135pt" viewBox="0 0 256 135"><defs><clipPath id="i"><path d="M0 0h250v135H0z"/></clipPath><g id="j" style="clip-path:url(#i);stroke-linecap:butt;stroke-linejoin:miter;stroke:#000;stroke-opacity:1;stroke-miterlimit:10"><g transform="matrix(.1 0 0 -.1 -.063 135.549)"><path d="M818.989375 532.99h1125v810h-1125zm0 0" style="fill-rule:evenodd;fill:#aaa;fill-opacity:1;stroke-width:18"/><g fill="none" stroke-width="4.5"><path d="M818.989375 172.99v1170"/><path d="M1943.989375 172.99v1170"/><path d="M278.989375 532.99h2205"/><path d="M278.989375 937.99h2205"/><path d="M278.989375 172.99h2205v1170h-2205zm0 0"/><path d="M1538.989375 1342.99v-1170"/></g></g></g><path d="M4.9688-1.2344l-.1562-.0937c-.109375.125-.15625.1875-.265625.328125-.28125.359375-.40625.46875-.5625.46875-.171875 0-.28125-.15625-.359375-.484375-.03125-.109375-.046875-.171875-.046875-.1875-.296875-1.125-.4375-1.765625-.4375-1.953125C3.671975-4.0781 4.09385-4.60935 4.3126-4.60935c.078125 0 .1875.046875.296875.109375.140625.078125.21875.09375.328125.09375.234375 0 .40625-.171875.40625-.421875 0-.265625-.203125-.4375-.484375-.4375-.53125 0-.96875.421875-1.8125 1.703125l-.125-.6562c-.171875-.8125-.296875-1.046875-.625-1.046875-.28125 0-.65625.09375-1.40625.34375l-.125.0469.0469.1719.203-.047c.234375-.0625.375-.078125.46875-.078125.296875 0 .375.109375.53125.828125l.3438 1.4688-.9687 1.3906c-.250075.35935-.48445.5781-.60945.5781-.078125 0-.203125-.03125-.3125-.109375C.3125-.75.1875-.78125.078125-.78125c-.234375 0-.40625.171875-.40625.40625 0 .3125.234375.5.609375.5.359375 0 .5-.09375 1.109375-.8125L2.4688-2.1094l.3594 1.4375c.140625.625.296875.796875.6875.796875.453125 0 .765625-.28125 1.453125-1.359375zm0 0" id="c"/><path d="M6.7813 0v-.1875c-.53125-.046875-.765625-.25-1-.859375l-1.1094-2.9375c.921875-.203125 1.3125-.359375 1.75-.75.390625-.34375.609375-.8125.609375-1.34375 0-1.125-.875-1.734375-2.484375-1.734375H1.5782v.2031c.5.0625.5625.078125.6875.15625.09375.0625.15625.203125.15625.34375s-.046875.421875-.140625.75L.8125-1.0781c-.21875.7031-.28125.781225-.96875.8906V0h2.9219v-.1875c-.75-.09375-.8125-.140625-.8125-.5625 0-.125.015625-.234375.140625-.6875l.6719-2.5.7656.0625L5.0156 0zM5.7656-6.1094c0 1.1875-.75 1.796875-2.25 1.796875-.21875 0-.3125-.015625-.609375-.0625l.7813-2.7344c.0625-.25.21875-.34375.609375-.34375.984375 0 1.46875.453125 1.46875 1.34375zm0 0" id="a"/><path d="M3.4531 0v-.125c-.687475-.015625-.8281-.109375-.8281-.53125v-5.25l-.0781-.0156L.9688-5.125V-5c.109375-.046875.203125-.078125.234375-.109375.171875-.046875.3125-.09375.40625-.09375.171875 0 .25.140625.25.421875V-.8125c0 .28125-.0625.484375-.203125.5625-.125.078125-.25.109375-.625.125V0zm0 0" id="b"/><path d="M4.1719-2.8906c0-1.796875-.796875-3.03125-1.953125-3.03125-.46875 0-.84375.140625-1.171875.453125-.5.484375-.84375 1.5-.84375 2.53125C.203125-1.984375.5-.96875.90625-.46875c.328125.375.78125.59375 1.28125.59375.453125 0 .828125-.15625 1.140625-.453125.515625-.484375.84375-1.5.84375-2.5625zm-.8437.0156c0 1.828125-.390625 2.765625-1.140625 2.765625s-1.140625-.9375-1.140625-2.75c0-1.859375.40625-2.84375 1.15625-2.84375.734375 0 1.125 1 1.125 2.828125zm0 0" id="f"/><path d="M3.7813-1.9219c0-.4375-.140625-.859375-.390625-1.125-.171875-.203125-.34375-.296875-.71875-.46875.59375-.40625.8125-.734375.8125-1.203125 0-.71875-.5625-1.203125-1.359375-1.203125-.4375 0-.828125.140625-1.140625.421875-.265625.234375-.390625.46875-.59375 1l.1406.0313c.359375-.640625.75-.9375 1.296875-.9375.578125 0 .96875.390625.96875.9375 0 .328125-.125.640625-.34375.859375-.26565.2656-.51565.3906-1.1094.60935v.1094c.515625 0 .71875.015625.921875.09375.546875.1875.890625.6875.890625 1.296875 0 .734375-.5 1.3125-1.15625 1.3125-.234375 0-.40625-.0625-.734375-.28125-.25-.15625-.40625-.21875-.5625-.21875-.1875 0-.328125.125-.328125.3125 0 .3125.375.5 1 .5.671875 0 1.359375-.234375 1.765625-.59375C3.5625-.8281 3.78125-1.3281 3.78125-1.92185zm0 0" id="g"/><path d="M4.1406-1.4687v-.5625H3.25v-3.8906h-.3906l-2.75 3.8906v.5625h2.4531V0H3.25v-1.4687zm-1.5781-.5625H.4531l2.1094-3zm0 0" id="h"/><path d="M4.1563-1.2031 4.0469-1.25c-.328125.5-.4375.578125-.828125.578125H1.125l1.4688-1.5312C3.375-3.03125 3.71875-3.6875 3.71875-4.375c0-.875-.71875-1.546875-1.625-1.546875-.484375 0-.9375.1875-1.265625.546875-.28125.296875-.40625.578125-.5625 1.1875l.1875.0469C.8125-5 1.125-5.28125 1.734375-5.28125c.734375 0 1.234375.5 1.234375 1.234375 0 .6875-.40625 1.5-1.140625 2.28125l-1.5625 1.6563V0H3.6875zm0 0" id="e"/><path d="M3.8438-5.9687l-.0781-.0625c-.140625.1875-.21875.234375-.40625.234375H1.5313L.5625-3.7187c0 .015625 0 .03125 0 .03125 0 .046875.03125.078125.109375.078125.28125 0 .625.0625.984375.171875 1.015625.328125 1.46875.875 1.46875 1.734375 0 .84375-.53125 1.5-1.21875 1.5-.171875 0-.3125-.0625-.578125-.25C1.046875-.65625.84375-.75.65625-.75c-.25 0-.375.109375-.375.328125C.28125-.09375.6875.125 1.34375.125c.75 0 1.375-.234375 1.8125-.6875C3.5625-.953125 3.75-1.453125 3.75-2.125c0-.625-.171875-1.03125-.609375-1.46875C2.75-3.984375 2.25-4.1875 1.21875-4.359375l.375-.75h1.7031c.140625 0 .1875-.015625.203125-.078125zm0 0" id="k"/><path d="M4.1094-1.9219c0-1.125-.640625-1.828125-1.65625-1.828125-.390625 0-.5625.0625-1.125.390625.234375-1.328125 1.21875-2.265625 2.59375-2.5L3.9063-6c-1 .09375-1.5.265625-2.140625.703125C.8125-4.625.296875-3.625.296875-2.453125.296875-1.6875.53125-.90625.90625-.46875c.34375.375.8125.59375 1.359375.59375 1.078125 0 1.84375-.828125 1.84375-2.046875zm-.7969.2969c0 .96875-.34375 1.5-.953125 1.5-.765625 0-1.25-.828125-1.25-2.1875 0-.4375.078125-.6875.25-.8125.1875-.140625.453125-.21875.765625-.21875.75 0 1.1875.625 1.1875 1.71875zm0 0" id="l"/><path d="M4.0313-3.4531c0-1.453125-.8125-2.46875-1.9375-2.46875-1.046875 0-1.828125.875-1.828125 2.0625 0 1.078125.625 1.78125 1.578125 1.78125.484375 0 .84375-.140625 1.3125-.5C2.796925-1.1406 1.828175-.2031.484425.01565L.5156.1875C1.5.078125 1.984375-.09375 2.578125-.515625c.90625-.671875 1.453125-1.75 1.453125-2.9375zm-.8594.3438c0 .171875-.03125.25-.125.328125-.25.21875-.578125.328125-.890625.328125-.671875 0-1.09375-.65625-1.09375-1.703125 0-.5.140625-1.03125.328125-1.25.15625-.171875.375-.28125.625-.28125.765625 0 1.15625.765625 1.15625 2.234375zm0 0" id="m"/><path d="M3.9375-5.6562v-.1406h-3.25L.1719-4.5155l.1563.0781c.375-.609375.53125-.71875 1.015625-.71875H3.25L1.5.0625h.5781zm0 0" id="n"/><path d="M3.9063-1.3594c0-.671875-.296875-1.109375-1.359375-1.890625.859375-.46875 1.171875-.828125 1.171875-1.4375 0-.71875-.640625-1.234375-1.515625-1.234375-.953125 0-1.65625.578125-1.65625 1.375 0 .578125.15625.828125 1.078125 1.640625-.93755.718775-1.140675.9844-1.140675 1.57815C.484375-.46875 1.1875.125 2.171875.125 3.21875.125 3.90625-.453125 3.90625-1.359375zm-.6719.2656c0 .578125-.390625.96875-.96875.96875-.65625 0-1.109375-.5-1.109375-1.265625 0-.5625.1875-.9375.703125-1.34375l.5313.3906c.640625.453125.84375.765625.84375 1.25zm-.125-3.5937c0 .5-.25.890625-.75 1.21875-.03125.03125-.03125.03125-.078125.0625C1.5-3.921875 1.1875-4.328125 1.1875-4.8125c0-.515625.40625-.875.953125-.875.59375 0 .96875.390625.96875 1zm0 0" id="o"/><path d="M1.7031-.0469c0-.734375-.5-.84375-.703125-.84375-.21875 0-.515625.125-.515625.5 0 .359375.328125.4375.546875.4375.0625 0 .109375 0 .140625-.015625.03125 0 .0625-.015625.078125-.015625.0625 0 .125.046875.125.125 0 .171875-.140625.5625-.71875.921875l.0781.1719c.25-.09375.96875-.671875.96875-1.28125zm0 0" id="d"/></defs><use href="#j"/><use x="18.837" y="131.708" href="#c"/><use x="24.504" y="133.502" href="#b"/><use x="28.8876" y="133.502" href="#d"/><use x="31.1758" y="133.502" href="#f"/><use x="72.839" y="131.708" href="#c"/><use x="78.505" y="133.502" href="#b"/><use x="82.8886" y="133.502" href="#d"/><use x="85.1768" y="133.502" href="#b"/><use x="185.341" y="131.708" href="#c"/><use x="191.008" y="133.502" href="#b"/><use x="195.3916" y="133.502" href="#d"/><use x="197.6798" y="133.502" href="#g"/><use x="239.343" y="131.708" href="#c"/><use x="245.009" y="133.502" href="#b"/><use x="249.3926" y="133.502" href="#d"/><use x="251.6808" y="133.502" href="#h"/><use x=".837" y="86.707" href="#c"/><use x="6.504" y="88.501" href="#e"/><use x="10.8875" y="88.501" href="#d"/><use x="13.1758" y="88.501" href="#b"/><use x=".837" y="46.206" href="#c"/><use x="6.504" y="48" href="#e"/><use x="10.8875" y="48" href="#d"/><use x="13.1758" y="48" href="#e"/><use x=".837" y="118.208" href="#c"/><use x="6.504" y="120.001" href="#e"/><use x="10.8875" y="120.001" href="#d"/><use x="13.1758" y="120.001" href="#f"/><use x=".837" y="5.705" href="#c"/><use x="6.504" y="7.499" href="#e"/><use x="10.8875" y="7.499" href="#d"/><use x="13.1758" y="7.499" href="#g"/><use x="217.356" y="23.706" href="#a"/><use x="224.78" y="25.524" href="#k"/><use x="46.352" y="64.207" href="#a"/><use x="53.776" y="66" href="#b"/><use x="58.1596" y="66" href="#b"/><use x="46.352" y="23.706" href="#a"/><use x="53.776" y="25.499" href="#b"/><use x="58.1596" y="25.499" href="#e"/><use x="217.356" y="64.207" href="#a"/><use x="224.78" y="66.025" href="#l"/><use x="46.352" y="104.708" href="#a"/><use x="53.776" y="106.501" href="#b"/><use x="58.1596" y="106.501" href="#f"/><use x="109.354" y="104.708" href="#a"/><use x="116.778" y="106.501" href="#m"/><use x="109.354" y="64.207" href="#a"/><use x="116.778" y="66" href="#g"/><use x="109.354" y="23.706" href="#a"/><use x="116.778" y="25.499" href="#b"/><use x="167.855" y="64.207" href="#a"/><use x="175.279" y="66" href="#h"/><use x="144.84" y="131.708" href="#c"/><use x="150.507" y="133.502" href="#b"/><use x="154.8906" y="133.502" href="#d"/><use x="157.1788" y="133.502" href="#e"/><use x="167.855" y="23.706" href="#a"/><use x="175.279" y="25.499" href="#e"/><use x="217.356" y="104.708" href="#a"/><use x="224.78" y="106.501" href="#n"/><use x="167.855" y="104.708" href="#a"/><use x="175.279" y="106.501" href="#o"/></svg>