<svg xmlns="http://www.w3.org/2000/svg" width="278pt" height="151pt" viewBox="0 0 278 151"><defs><clipPath id="p"><path d="M0 0h272v151H0z"/></clipPath><g id="q" style="clip-path:url(#p);fill:none;stroke-width:4.5;stroke-linecap:butt;stroke-linejoin:miter;stroke:#000;stroke-opacity:1;stroke-miterlimit:10"><g transform="matrix(.1 0 0 -.1 -.313 151.549)"><path d="M1043.989375 310.997813v1170"/><path d="M2168.989375 310.997813v1170"/><path d="M503.989375 670.997813h2205"/><path d="M503.989375 310.997813h2205v1170h-2205zm0 0"/><g stroke-dasharray="36"><path d="M1358.989375 310.997813v1170"/><path d="M2393.989375 310.997813v1170"/></g><path stroke-dasharray="27" d="M503.989375 895.997813h2205"/><path d="M503.989375 1075.997813h2205"/></g></g><path d="M4.9688-1.2344l-.1562-.0937c-.109375.125-.15625.1875-.265625.328125-.28125.359375-.40625.46875-.5625.46875-.171875 0-.28125-.15625-.359375-.484375-.03125-.109375-.046875-.171875-.046875-.1875-.296875-1.125-.4375-1.765625-.4375-1.953125C3.671975-4.0781 4.09385-4.60935 4.3126-4.60935c.078125 0 .1875.046875.296875.109375.140625.078125.21875.09375.328125.09375.234375 0 .40625-.171875.40625-.421875 0-.265625-.203125-.4375-.484375-.4375-.53125 0-.96875.421875-1.8125 1.703125l-.125-.6562c-.171875-.8125-.296875-1.046875-.625-1.046875-.28125 0-.65625.09375-1.40625.34375l-.125.0469.0469.1719.203-.047c.234375-.0625.375-.078125.46875-.078125.296875 0 .375.109375.53125.828125l.3438 1.4688-.9687 1.3906c-.250075.35935-.48445.5781-.60945.5781-.078125 0-.203125-.03125-.3125-.109375C.3125-.75.1875-.78125.078125-.78125c-.234375 0-.40625.171875-.40625.40625 0 .3125.234375.5.609375.5.359375 0 .5-.09375 1.109375-.8125L2.4688-2.1094l.3594 1.4375c.140625.625.296875.796875.6875.796875.453125 0 .765625-.28125 1.453125-1.359375zm0 0" id="d"/><path d="M6.7813 0v-.1875c-.53125-.046875-.765625-.25-1-.859375l-1.1094-2.9375c.921875-.203125 1.3125-.359375 1.75-.75.390625-.34375.609375-.8125.609375-1.34375 0-1.125-.875-1.734375-2.484375-1.734375H1.5782v.2031c.5.0625.5625.078125.6875.15625.09375.0625.15625.203125.15625.34375s-.046875.421875-.140625.75L.8125-1.0781c-.21875.7031-.28125.781225-.96875.8906V0h2.9219v-.1875c-.75-.09375-.8125-.140625-.8125-.5625 0-.125.015625-.234375.140625-.6875l.6719-2.5.7656.0625L5.0156 0zM5.7656-6.1094c0 1.1875-.75 1.796875-2.25 1.796875-.21875 0-.3125-.015625-.609375-.0625l.7813-2.7344c.0625-.25.21875-.34375.609375-.34375.984375 0 1.46875.453125 1.46875 1.34375zm0 0" id="b"/><path d="M3.4531 0v-.125c-.687475-.015625-.8281-.109375-.8281-.53125v-5.25l-.0781-.0156L.9688-5.125V-5c.109375-.046875.203125-.078125.234375-.109375.171875-.046875.3125-.09375.40625-.09375.171875 0 .25.140625.25.421875V-.8125c0 .28125-.0625.484375-.203125.5625-.125.078125-.25.109375-.625.125V0zm0 0" id="a"/><path d="M4.1719-2.8906c0-1.796875-.796875-3.03125-1.953125-3.03125-.46875 0-.84375.140625-1.171875.453125-.5.484375-.84375 1.5-.84375 2.53125C.203125-1.984375.5-.96875.90625-.46875c.328125.375.78125.59375 1.28125.59375.453125 0 .828125-.15625 1.140625-.453125.515625-.484375.84375-1.5.84375-2.5625zm-.8437.0156c0 1.828125-.390625 2.765625-1.140625 2.765625s-1.140625-.9375-1.140625-2.75c0-1.859375.40625-2.84375 1.15625-2.84375.734375 0 1.125 1 1.125 2.828125zm0 0" id="h"/><path d="M4.1563-1.2031 4.0469-1.25c-.328125.5-.4375.578125-.828125.578125H1.125l1.4688-1.5312C3.375-3.03125 3.71875-3.6875 3.71875-4.375c0-.875-.71875-1.546875-1.625-1.546875-.484375 0-.9375.1875-1.265625.546875-.28125.296875-.40625.578125-.5625 1.1875l.1875.0469C.8125-5 1.125-5.28125 1.734375-5.28125c.734375 0 1.234375.5 1.234375 1.234375 0 .6875-.40625 1.5-1.140625 2.28125l-1.5625 1.6563V0H3.6875zm0 0" id="f"/><path d="M3.7813-1.9219c0-.4375-.140625-.859375-.390625-1.125-.171875-.203125-.34375-.296875-.71875-.46875.59375-.40625.8125-.734375.8125-1.203125 0-.71875-.5625-1.203125-1.359375-1.203125-.4375 0-.828125.140625-1.140625.421875-.265625.234375-.390625.46875-.59375 1l.1406.0313c.359375-.640625.75-.9375 1.296875-.9375.578125 0 .96875.390625.96875.9375 0 .328125-.125.640625-.34375.859375-.26565.2656-.51565.3906-1.1094.60935v.1094c.515625 0 .71875.015625.921875.09375.546875.1875.890625.6875.890625 1.296875 0 .734375-.5 1.3125-1.15625 1.3125-.234375 0-.40625-.0625-.734375-.28125-.25-.15625-.40625-.21875-.5625-.21875-.1875 0-.328125.125-.328125.3125 0 .3125.375.5 1 .5.671875 0 1.359375-.234375 1.765625-.59375C3.5625-.8281 3.78125-1.3281 3.78125-1.92185zm0 0" id="i"/><path d="M4.1406-1.4687v-.5625H3.25v-3.8906h-.3906l-2.75 3.8906v.5625h2.4531V0H3.25v-1.4687zm-1.5781-.5625H.4531l2.1094-3zm0 0" id="j"/><path d="M3.8438-5.9687l-.0781-.0625c-.140625.1875-.21875.234375-.40625.234375H1.5313L.5625-3.7187c0 .015625 0 .03125 0 .03125 0 .046875.03125.078125.109375.078125.28125 0 .625.0625.984375.171875 1.015625.328125 1.46875.875 1.46875 1.734375 0 .84375-.53125 1.5-1.21875 1.5-.171875 0-.3125-.0625-.578125-.25C1.046875-.65625.84375-.75.65625-.75c-.25 0-.375.109375-.375.328125C.28125-.09375.6875.125 1.34375.125c.75 0 1.375-.234375 1.8125-.6875C3.5625-.953125 3.75-1.453125 3.75-2.125c0-.625-.171875-1.03125-.609375-1.46875C2.75-3.984375 2.25-4.1875 1.21875-4.359375l.375-.75h1.7031c.140625 0 .1875-.015625.203125-.078125zm0 0" id="k"/><path d="M4.1094-1.9219c0-1.125-.640625-1.828125-1.65625-1.828125-.390625 0-.5625.0625-1.125.390625.234375-1.328125 1.21875-2.265625 2.59375-2.5L3.9063-6c-1 .09375-1.5.265625-2.140625.703125C.8125-4.625.296875-3.625.296875-2.453125.296875-1.6875.53125-.90625.90625-.46875c.34375.375.8125.59375 1.359375.59375 1.078125 0 1.84375-.828125 1.84375-2.046875zm-.7969.2969c0 .96875-.34375 1.5-.953125 1.5-.765625 0-1.25-.828125-1.25-2.1875 0-.4375.078125-.6875.25-.8125.1875-.140625.453125-.21875.765625-.21875.75 0 1.1875.625 1.1875 1.71875zm0 0" id="l"/><path d="M3.9375-5.6562v-.1406h-3.25L.1719-4.5155l.1563.0781c.375-.609375.53125-.71875 1.015625-.71875H3.25L1.5.0625h.5781zm0 0" id="m"/><path d="M3.9063-1.3594c0-.671875-.296875-1.109375-1.359375-1.890625.859375-.46875 1.171875-.828125 1.171875-1.4375 0-.71875-.640625-1.234375-1.515625-1.234375-.953125 0-1.65625.578125-1.65625 1.375 0 .578125.15625.828125 1.078125 1.640625-.93755.718775-1.140675.9844-1.140675 1.57815C.484375-.46875 1.1875.125 2.171875.125 3.21875.125 3.90625-.453125 3.90625-1.359375zm-.6719.2656c0 .578125-.390625.96875-.96875.96875-.65625 0-1.109375-.5-1.109375-1.265625 0-.5625.1875-.9375.703125-1.34375l.5313.3906c.640625.453125.84375.765625.84375 1.25zm-.125-3.5937c0 .5-.25.890625-.75 1.21875-.03125.03125-.03125.03125-.078125.0625C1.5-3.921875 1.1875-4.328125 1.1875-4.8125c0-.515625.40625-.875.953125-.875.59375 0 .96875.390625.96875 1zm0 0" id="n"/><path d="M4.0313-3.4531c0-1.453125-.8125-2.46875-1.9375-2.46875-1.046875 0-1.828125.875-1.828125 2.0625 0 1.078125.625 1.78125 1.578125 1.78125.484375 0 .84375-.140625 1.3125-.5C2.796925-1.1406 1.828175-.2031.484425.01565L.5156.1875C1.5.078125 1.984375-.09375 2.578125-.515625c.90625-.671875 1.453125-1.75 1.453125-2.9375zm-.8594.3438c0 .171875-.03125.25-.125.328125-.25.21875-.578125.328125-.890625.328125-.671875 0-1.09375-.65625-1.09375-1.703125 0-.5.140625-1.03125.328125-1.25.15625-.171875.375-.28125.625-.28125.765625 0 1.15625.765625 1.15625 2.234375zm0 0" id="o"/><path d="M1.7031-.0469c0-.734375-.5-.84375-.703125-.84375-.21875 0-.515625.125-.515625.5 0 .359375.328125.4375.546875.4375.0625 0 .109375 0 .140625-.015625.03125 0 .0625-.015625.078125-.015625.0625 0 .125.046875.125.125 0 .171875-.140625.5625-.71875.921875l.0781.1719c.25-.09375.96875-.671875.96875-1.28125zm0 0" id="e"/><path d="M7.6094-8.6719H7.25c-.109375.3125-.453125.5625-1.625.5625C4.484375-8.109375 4.09375-8.625 3-8.625c-1.8125 0-2.328125.53125-2.640625 1.203125H.7188c.0937-.296875.5312-.546875 1.703075-.546875 1.125 0 1.515625.515625 2.625.515625 1.8125 0 2.25-.546875 2.5625-1.21875zm0 0" id="c"/><path d="M3.9531-7.6875h-.3437c-.203125.453125-.359375.59375-.640625.59375-.171875 0-.40625-.0625-.625-.171875L2.0625-7.4062c-.28125-.140625-.578125-.21875-.84375-.21875C.625-7.625.1875-7.203125.015625-6.421875h.3438c.125-.375.328125-.546875.609375-.546875.140625 0 .3125.046875.484375.125l.2813.1406c.484375.234375.671875.28125.96875.28125.65625 0 1-.359375 1.25-1.265625zm0 0" id="g"/></defs><use href="#q"/><use x="41.088" y="133.908" href="#d"/><use x="46.754" y="135.701" href="#a"/><use x="51.1376" y="135.701" href="#e"/><use x="53.4258" y="135.701" href="#h"/><use x="95.089" y="133.908" href="#d"/><use x="100.756" y="135.701" href="#a"/><use x="105.1396" y="135.701" href="#e"/><use x="107.4278" y="135.701" href="#a"/><use x="207.592" y="133.908" href="#d"/><use x="213.258" y="135.701" href="#a"/><use x="217.6416" y="135.701" href="#e"/><use x="219.9298" y="135.701" href="#f"/><use x="261.593" y="133.908" href="#d"/><use x="267.26" y="135.701" href="#a"/><use x="271.6436" y="135.701" href="#e"/><use x="273.9318" y="135.701" href="#i"/><use x="23.087" y="88.907" href="#d"/><use x="28.754" y="90.7" href="#f"/><use x="33.1376" y="90.7" href="#e"/><use x="35.4258" y="90.7" href="#a"/><use x="23.087" y="48.406" href="#d"/><use x="28.754" y="50.199" href="#f"/><use x="33.1376" y="50.199" href="#e"/><use x="35.4258" y="50.199" href="#f"/><use x="23.087" y="120.408" href="#d"/><use x="28.754" y="122.201" href="#f"/><use x="33.1376" y="122.201" href="#e"/><use x="35.4258" y="122.201" href="#h"/><use x="23.087" y="7.905" href="#d"/><use x="28.754" y="9.698" href="#f"/><use x="33.1376" y="9.698" href="#e"/><use x="35.4258" y="9.698" href="#i"/><use x="69.741" y="23.473" href="#c"/><use x="68.602" y="25.905" href="#b"/><use x="76.027" y="27.699" href="#a"/><use x="96.533" y="147.408" href="#g"/><use x="95.0864" y="147.408" href="#d"/><use x="100.756" y="149.202" href="#a"/><use x="105.1396" y="149.202" href="#e"/><use x="107.4278" y="149.202" href="#a"/><use x="2.03" y="48.406" href="#g"/><use x=".5834" y="48.406" href="#d"/><use x="6.253" y="50.199" href="#f"/><use x="10.6366" y="50.199" href="#e"/><use x="12.9248" y="50.199" href="#i"/><use x="2.03" y="7.905" href="#g"/><use x=".5834" y="7.905" href="#d"/><use x="6.253" y="9.698" href="#f"/><use x="10.6366" y="9.698" href="#e"/><use x="12.9248" y="9.698" href="#j"/><use x="2.03" y="66.406" href="#g"/><use x=".5834" y="66.406" href="#d"/><use x="6.253" y="68.2" href="#f"/><use x="10.6366" y="68.2" href="#e"/><use x="12.9248" y="68.2" href="#f"/><use x="2.03" y="88.907" href="#g"/><use x=".5834" y="88.907" href="#d"/><use x="6.253" y="90.7" href="#f"/><use x="10.6366" y="90.7" href="#e"/><use x="12.9248" y="90.7" href="#a"/><use x="209.035" y="147.408" href="#g"/><use x="207.5884" y="147.408" href="#d"/><use x="213.258" y="149.202" href="#a"/><use x="217.6416" y="149.202" href="#e"/><use x="219.9298" y="149.202" href="#i"/><use x="236.036" y="147.408" href="#g"/><use x="234.5894" y="147.408" href="#d"/><use x="240.259" y="149.202" href="#a"/><use x="244.6426" y="149.202" href="#e"/><use x="246.9308" y="149.202" href="#j"/><use x="263.036" y="147.408" href="#g"/><use x="261.5894" y="147.408" href="#d"/><use x="267.26" y="149.227" href="#a"/><use x="271.6436" y="149.227" href="#e"/><use x="273.9318" y="149.227" href="#k"/><use x="42.531" y="147.408" href="#g"/><use x="41.0844" y="147.408" href="#d"/><use x="46.754" y="149.202" href="#a"/><use x="51.1376" y="149.202" href="#e"/><use x="53.4258" y="149.202" href="#h"/><use x="2.03" y="120.408" href="#g"/><use x=".5834" y="120.408" href="#d"/><use x="6.253" y="122.201" href="#f"/><use x="10.6366" y="122.201" href="#e"/><use x="12.9248" y="122.201" href="#h"/><use x="222.745" y="54.973" href="#c"/><use x="221.606" y="57.406" href="#b"/><use x="229.03" y="59.225" href="#l"/><use x="245.245" y="54.973" href="#c"/><use x="244.107" y="57.406" href="#b"/><use x="251.531" y="59.199" href="#m"/><use x="222.745" y="72.974" href="#c"/><use x="221.606" y="75.407" href="#b"/><use x="229.03" y="77.2" href="#n"/><use x="164.243" y="54.973" href="#c"/><use x="163.105" y="57.406" href="#b"/><use x="170.529" y="59.199" href="#a"/><use x="174.9126" y="59.199" href="#i"/><use x="110.242" y="54.973" href="#c"/><use x="109.103" y="57.406" href="#b"/><use x="116.527" y="59.199" href="#a"/><use x="120.9106" y="59.199" href="#f"/><use x="110.242" y="72.974" href="#c"/><use x="109.103" y="75.407" href="#b"/><use x="116.527" y="77.2" href="#a"/><use x="120.9106" y="77.2" href="#j"/><use x="245.245" y="72.974" href="#c"/><use x="244.106" y="75.407" href="#b"/><use x="251.531" y="77.2" href="#o"/><use x="222.745" y="99.974" href="#c"/><use x="221.606" y="102.407" href="#b"/><use x="229.03" y="104.201" href="#a"/><use x="233.4136" y="104.201" href="#h"/><use x="110.242" y="99.974" href="#c"/><use x="109.103" y="102.407" href="#b"/><use x="116.527" y="104.226" href="#a"/><use x="120.9106" y="104.226" href="#l"/><use x="164.243" y="99.974" href="#c"/><use x="163.105" y="102.407" href="#b"/><use x="170.529" y="104.2" href="#a"/><use x="174.9126" y="104.2" href="#m"/><use x="164.243" y="72.974" href="#c"/><use x="163.105" y="75.407" href="#b"/><use x="170.529" y="77.225" href="#a"/><use x="174.9126" y="77.225" href="#k"/><use x="222.745" y="23.473" href="#c"/><use x="221.606" y="25.905" href="#b"/><use x="229.03" y="27.699" href="#j"/><use x="245.245" y="23.473" href="#c"/><use x="244.107" y="25.905" href="#b"/><use x="251.531" y="27.724" href="#k"/><use x="110.242" y="23.473" href="#c"/><use x="109.103" y="25.905" href="#b"/><use x="116.527" y="27.699" href="#f"/><use x="164.243" y="23.473" href="#c"/><use x="163.105" y="25.905" href="#b"/><use x="170.529" y="27.699" href="#i"/><use x="245.245" y="99.974" href="#c"/><use x="244.107" y="102.407" href="#b"/><use x="251.531" y="104.2" href="#a"/><use x="255.9146" y="104.2" href="#a"/><use x="69.741" y="54.973" href="#c"/><use x="68.602" y="57.406" href="#b"/><use x="76.027" y="59.199" href="#a"/><use x="80.4106" y="59.199" href="#n"/><use x="69.741" y="72.974" href="#c"/><use x="68.602" y="75.407" href="#b"/><use x="76.027" y="77.2" href="#a"/><use x="80.4106" y="77.2" href="#o"/><use x="69.741" y="99.974" href="#c"/><use x="68.602" y="102.407" href="#b"/><use x="76.027" y="104.2" href="#f"/><use x="80.4106" y="104.2" href="#h"/><use x="128.033" y="147.408" href="#g"/><use x="126.5864" y="147.408" href="#d"/><use x="132.256" y="149.202" href="#a"/><use x="136.6396" y="149.202" href="#e"/><use x="138.9278" y="149.202" href="#f"/></svg>