<svg xmlns="http://www.w3.org/2000/svg" width="217pt" height="28pt" viewBox="0 0 217 28"><defs><clipPath id="a"><path d="M0 0h217v28H0z"/></clipPath><g id="b" style="clip-path:url(#a);fill:none;stroke-width:4.5;stroke-linecap:butt;stroke-linejoin:miter;stroke:#000;stroke-opacity:1;stroke-miterlimit:10"><g transform="matrix(.1 0 0 -.1 -.223 31.549)"><path d="M6.995625 217.99h2160"/><path d="M1896.995625 307.99v-180"/><path d="M1176.995625 307.99v-180"/><path d="M276.995625 262.99v-90"/><path d="M681.995625 262.99v-90"/><path d="M906.995625 262.99v-90"/><path d="M141.995625 262.99v-90"/><path d="M501.995625 262.99v-90"/><path d="M771.995625 262.99v-90"/><path d="M521.214375 262.99v-90"/><path d="M205.589375 262.99v-90"/><path d="M327.38625 262.99v-90"/><path d="M456.995625 307.99v-180"/><path d="M445.589375 262.99v-90"/><path d="M419.183125 262.99v-90"/></g></g><path d="M4.7031 0v-.17187c-.9375-.015625-1.125-.140625-1.125-.71875V-8.0625l-.0937-.01562L1.3281-7v.17188c.140625-.0625.28125-.109375.328125-.125.203125-.09375.40625-.140625.53125-.140625.25 0 .359375.1875.359375.5625v5.42188c0 .390625-.09375.671875-.28125.78125-.1875.09375-.359375.140625-.859375.15625V0zm0 0" id="c"/><path d="M6.6875-2.14062l-.25-.07812c-.40625.875-.71875 1.234375-1.25 1.5C4.765625-.5 4.28125-.4375 3.21875-.4375c-.90625 0-1.203125-.09375-1.203125-.40625 0-.09375.046875-.34375.125-.59375l1.4688-5.29687c.1875-.609375.484375-.828125 1.203125-.875v-.20313H1.5469v.20313c.765625.0625.921875.15625.921875.515625 0 .171875-.03125.40625-.125.734375L.875-1.07812C.65625-.375.578125-.3125-.09375-.1875V0h6.0781zm0 0" id="d"/><path d="M4.9219-4.65625c0-.359375-.21875-.609375-.5625-.609375-.265625 0-.59375.171875-.90625.5C2.968775-4.25 2.4844-3.5625 2.2969-3.078125l-.1719.42188L2.7656-5.25l-.0469-.01562-1.8437.3125V-4.75c.09375 0 .203125 0 .296875 0 .28125 0 .53125.03125.53125.28125 0 .171875 0 .171875-.203125.984375L.5313 0h.9219c.6093-2.015625.7968-2.484375 1.312425-3.375C3.1875-4.09375 3.53125-4.5 3.75-4.5c.09375 0 .140625.046875.1875.171875.109375.203125.203125.265625.4375.265625.359375 0 .546875-.21875.546875-.59375zm0 0" id="e"/></defs><use href="#b"/><use x="185.002" y="27.708" href="#c"/><use x="41.5516" y="27.708" href="#d"/><use x="112.8045" y="27.708" href="#e"/></svg>