<svg xmlns="http://www.w3.org/2000/svg" width="335pt" height="262pt" viewBox="0 0 335 262"><defs><clipPath id="c"><path d="M.125 0H159v108H.125zm0 0"/></clipPath><clipPath id="d"><path d="M.125 135H159v109H.125zm0 0"/></clipPath><clipPath id="e"><path d="M0 0h335v262H0z"/></clipPath><g id="f" clip-path="url(#e)"><g class="b"><path fill="none" d="M2459.794687 1642.013437h786.015625v880.78125h-786.015625zm0 0"/><g fill-rule="evenodd" fill="silver" fill-opacity="1"><path d="M132.997812 1830.997812H1139.20875v503.398438H132.997812zm0 0"/><path d="M1767.411875 195.997812H3339.99v1069.21875H1767.411875zm0 0"/><path d="M698.818125 1642.013437h785.976563v880.78125H698.818125zm0 0"/></g><g fill="none"><path d="M1894.013438 1830.997812h1005.585937v503.398438H1894.013438zm0 0"/><path d="M698.818125 289.591562h785.976563v881.40625H698.818125zm0 0"/><path d="M132.997812 478.615H1139.20875v503.398437H132.997812zm0 0"/></g></g><g clip-path="url(#c)"><path d="M6.982187 1547.794687h1572.617188v1069.21875H6.982187zm0 0" class="a"/></g><path d="M698.818125 1830.997812h440.390625v503.398438H698.818125zm0 0" class="a"/><g clip-path="url(#d)"><path d="M6.982187 195.997812h1572.617188v1069.21875H6.982187zm0 0" class="a"/></g><g class="b"><path fill="none" d="M1767.411875 1547.794687H3339.99v1069.21875H1767.411875zm0 0"/><g fill-rule="evenodd" fill-opacity="1"><path fill="#fff" d="M2459.794687 289.591562h786.015625v881.40625h-786.015625zm0 0"/><g fill="silver"><path d="M2459.794687 1830.997812h439.804688v503.398438h-439.804688zm0 0"/><path d="M132.997812 478.615h565.820313v503.398437H132.997812zm0 0"/></g></g></g><g fill-rule="evenodd" fill="#fff" fill-opacity="1"><path d="M42.4648 51.1289c0 3.910156-3.167969 7.082032-7.078125 7.082032-3.910157 0-7.082031-3.171876-7.082031-7.082032s3.171874-7.078125 7.082031-7.078125c3.910156 0 7.078125 3.167969 7.078125 7.078125"/><path d="M140.0273 54.3086c0 3.910156-3.171875 7.082031-7.082032 7.082031-3.910156 0-7.078124-3.171875-7.078124-7.082031s3.167968-7.078125 7.078124-7.078125c3.910157 0 7.082032 3.167969 7.082032 7.078125"/><path d="M42.4648 186.3672c0 3.910156-3.167969 7.082031-7.078125 7.082031-3.910157 0-7.082031-3.171875-7.082031-7.082031 0-3.910157 3.171874-7.078126 7.082031-7.078126 3.910156 0 7.078125 3.167969 7.078125 7.078126"/></g></g><path d="M6.7344 0v-.1875c-.6719-.0625-.76565-.15625-.906275-1.03125l-1.125-6.7656H4.4063L.9375-2.0156C-.015625-.421875-.125-.28125-.609375-.1875V0H1.625v-.1875C1.015625-.25.921875-.3125.921875-.609375c0-.234375.03125-.328125.234375-.734375l.6875-1.3594h2.625l.2344 1.5625c.015625.109375.03125.21875.03125.3125 0 .453125-.171875.5625-.9375.640625V0zM4.4063-3.125H2.0938l1.7969-3.1094zm0 0" id="b"/><path d="M6.4375-2.3906c0-.875-.359375-1.3125-1.5-1.8125.84375-.203125 1.1875-.34375 1.578125-.671875.328125-.28125.515625-.6875.515625-1.171875 0-1.140625-.84375-1.765625-2.390625-1.765625h-3.0937v.2031c.765625.0625.921875.140625.921875.484375 0 .1875-.046875.46875-.125.765625L.875-1.0781c-.21875.7031-.296875.7656-.96875.8906V0h3.375c1.875 0 3.15625-.96875 3.15625-2.390625zm-1.2812-.0469c0 1.296875-.890625 2.078125-2.34375 2.078125-.5 0-.765625-.171875-.765625-.5 0-.15625.140625-.71875.421875-1.671875l.375-1.4219c.75 0 1.265625.046875 1.5.140625.515625.1875.8125.71875.8125 1.375zm.6719-3.7187c0 1.234375-.8125 1.8125-2.453125 1.8125h-.4062l.7656-2.7656c.078125-.265625.21875-.34375.6875-.34375.96875 0 1.40625.40625 1.40625 1.296875zm0 0" id="a"/><path d="M7.0781-3.1562v-3.6875h-.6093v3.7344c0 1.265625-1.109375 2.5-2.5625 2.5-1.375 0-2.5625-1.078125-2.5625-2.5v-3.7344H.7344v3.6875C.734375-1.375 2.21875 0 3.921875 0s3.15625-1.375 3.15625-3.15625zm0 0" id="g"/><path d="M4.75 2.3125 1.3594-8.4531h-.625L4.1406 2.3125zm0 0" id="h"/><path d="M7.0781 0v-3.6875c0-1.78125-1.453125-3.15625-3.15625-3.15625S.73435-5.46875.73435-3.6875V0h.6094v-3.7344c0-1.421875 1.1875-2.5 2.5625-2.5 1.453125 0 2.5625 1.21875 2.5625 2.5V0zm0 0" id="i"/><path d="M3.2031-.8437l-.1406-.0782c-.484375.515625-.8125.703125-1.25.703125-.5 0-.796875-.375-.796875-1 0-.75.3125-1.53125.796875-2.046875.25-.265625.609375-.421875.953125-.421875.203125 0 .328125.078125.328125.1875 0 .03125-.015625.078125-.046875.15625-.0625.125-.078125.171875-.078125.265625 0 .203125.125.328125.328125.328125.25 0 .421875-.171875.421875-.40625 0-.40625-.375-.703125-.90625-.703125-1.328125 0-2.546875 1.28125-2.546875 2.640625 0 .828125.46875 1.3125 1.28125 1.3125.65625 0 1.125-.265625 1.65625-.9375zm0 0" id="j"/></defs><use href="#f"/><use x="67.744" y="123.525" href="#b"/><use x="77.8581" y="123.525" href="#g"/><use x="88.7971" y="123.525" href="#a"/><use x="67.744" y="258.708" href="#b"/><use x="77.8581" y="258.708" href="#h"/><use x="86.4778" y="258.708" href="#a"/><use x="243.4735" y="258.708" href="#a"/><use x="251.118" y="254.369" href="#j"/><use x="243.908" y="123.525" href="#b"/><use x="254.0221" y="123.525" href="#i"/><use x="264.9611" y="123.525" href="#a"/><use x="306.3" y="189.527" href="#a"/><use x="33.123" y="54.344" href="#b"/><use x="130.255" y="57.464" href="#a"/><use x="306.2953" y="57.464" href="#a"/><use x="209.288" y="54.344" href="#b"/><use x="130.255" y="192.707" href="#a"/><use x="33.123" y="189.527" href="#b"/><style>.a{fill:none;stroke:#000;stroke-linecap:butt;stroke-linejoin:miter;stroke-miterlimit:10;stroke-opacity:1;stroke-width:4.5;transform:matrix(.1,0,0,-.1,.126,262.549)}.b{stroke:#000;stroke-linecap:butt;stroke-linejoin:miter;stroke-miterlimit:10;stroke-opacity:1;stroke-width:4.5;transform:matrix(.1,0,0,-.1,.126,262.549)}</style></svg>