<svg xmlns="http://www.w3.org/2000/svg" width="209pt" height="142pt" viewBox="0 0 209 142"><defs><path d="M6.0156-2.4062v-.5781H.6406v.5781zm0 0" id="b"/><path d="M6.0625-4.6562c-.6875.015625-1.390625.046875-2.09375.046875-.859375 0-1.71875-.03125-2.5625-.03125C.75-4.65625.625-3.875.453125-3.390625v.0781l.0781.0469.0781-.0469C1.015625-3.9375 1.25-4.03125 2-4.03125h.2344c-.375 1.375-.703125 2.75-1.296875 4.046875L1.0156.125c.20315-.0625.5469-.140625.7344-.25.375-1.28125.625-2.609375.875-3.90625h2.2813c-.546875.859375-.953125 1.90625-.953125 2.953125 0 .484375.171875 1.234375.78125 1.234375.40625 0 .921875-.40625 1.234375-.671875L5.9844-.5625l-.0469-.0937-.0781-.0156c-.171875.109375-.359375.25-.609375.25-.546875 0-.609375-.828125-.609375-1.234375 0-.84375.265625-1.65625.6875-2.375l.6094-.1406c.03125-.171875.078125-.328125.125-.484375zm0 0" id="d"/><path d="M4.4219-3.3906c-.5.015625-1.015625.03125-1.53125.03125-.625 0-1.25-.015625-1.859375-.03125-.484375 0-.578125.5625-.703125.921875v.0469l.0625.0313L.4375-2.4062c.296875-.4688.484375-.5313 1.015625-.5313H1.625c-.265625 1-.5 2-.9375 2.953125L.7344.0938c.15625-.046875.40625-.09375.53125-.1875.28125-.9375.46875-1.890625.65625-2.84375h1.6563c-.40625.625-.6875 1.390625-.6875 2.15625 0 .359375.125.890625.5625.890625.2968-5e-5.6718-.296925.906175-.484425v-.0469l-.0312-.0625h-.0625C4.15625-.40625 4-.3125 3.828125-.3125c-.40625 0-.4375-.59375-.4375-.890625 0-.625.1875-1.21875.484375-1.734375l.4531-.0937c.015625-.125.0625-.25.09375-.359375zm0 0" id="e"/><path d="M3.4063.0156c-.015675-.1406-.015675-.218725-.015675-.3281 0-.09375 0-.15625.015625-.3125L.8906-.5625l1.3125-1.4062c.703125-.734375.921875-1.140625.921875-1.6875C3.125-4.484375 2.5625-5 1.640625-5c-.515625 0-.875.140625-1.234375.5l-.125.9844H.5l.0938-.3281c.109375-.421875.375-.609375.859375-.609375.625 0 1.03125.40625 1.03125 1.015625 0 .546875-.3125 1.078125-1.140625 1.953125L.1094-.1719v.1875C.65625 0 1.203125 0 1.734375 0 2.28125 0 2.84375 0 3.40625.015625zm0 0" id="f"/><path d="M4.6406-3.6562c0-2.171875-.65625-3.21875-2.015625-3.21875C1.0781-6.87495.29685-5.640575.29685-3.234325.296875-2.0625.5-1.0625.84375-.5625 1.203125-.078125 1.75.203125 2.375.203125c1.5 0 2.265625-1.296875 2.265625-3.859375zm-.8437.5c0 2.125-.375 3-1.296875 3-.96875 0-1.375-1-1.375-3.4375 0-2.09375.375-2.921875 1.3125-2.921875.96875 0 1.359375.96875 1.359375 3.359375zm0 0" id="a"/><path d="M4.625-2.0469c0-.796875-.375-1.234375-1.5-1.75.90625-.625 1.21875-1.03125 1.21875-1.640625 0-.859375-.703125-1.4375-1.765625-1.4375-1.1875 0-2.046875.765625-2.046875 1.8125 0 .671875.265625 1.0625 1.140625 1.625-.40625.1875-.578125.296875-.796875.5C.5-2.5469.296875-2.1094.296875-1.57815.296875-.5625 1.125.203125 2.25.203125c1.296875 0 2.375-1.015625 2.375-2.25zm-.7812.4063c0 .84375-.640625 1.5-1.4375 1.5C1.5625-.140625 1-.734375 1-1.671875c0-.71875.296875-1.171875 1.03125-1.625l.7969.3594c.625.28125 1.015625.765625 1.015625 1.296875zm-.1719-3.6875c0 .578125-.25.96875-.90625 1.375l-.5469-.2656c-.625-.3125-.9375-.703125-.9375-1.203125 0-.65625.46875-1.109375 1.1875-1.109375s1.203125.484375 1.203125 1.203125zm0 0" id="g"/><path d="M4.7031.0313v-.2969l-.4687-.0312c-.5-.03125-.609375-.15625-.609375-.765625v-.7344c.59375 0 .796875 0 1.078125.03125v-.7031s-.484375.03125-.8125.03125H3.625v-1.3906c0-1.78125.03125-2.625.078125-3.046875l-.125-.0469-.7344.2656-2.8281 4.625.1094.2344h2.6719v.7344c0 .609375-.109375.75-.609375.765625l-.6094.0313V.0313C2.109375.015625 2.640625 0 3.1875 0c.5 0 1.015625.015625 1.515625.03125zM2.7969-2.4375H.6406l2.1563-3.5156zm0 0" id="h"/><path d="M1.8281-.5312c0-.296875-.28125-.578125-.59375-.578125-.296875 0-.5625.28125-.5625.578125s.26565.578075.5469.578075c.328125 0 .609375-.265625.609375-.578125zm0 0" id="c"/></defs><g style="fill:none;stroke:#000;stroke-miterlimit:10;transform:matrix(.1,0,0,-.1,0,142)"><g stroke-width="7.9701"><path d="M280 427.382812l1.796875-8.632812 1.796875-6.601562 1.796875 3.671874 1.796875 4.726563 1.796875-.664063 1.835937 1.601563 1.796876 9.0625 1.796874 10.546875 1.796876 18.164062 1.796874 25.820313 1.796876 11.992187 1.796874 5.507813 1.796876 8.515625 1.796874-.390625 1.796876 1.445313 1.796874 8.320312 1.796876-2.695312 1.796874-9.21875 1.796876-1.484376 1.835937-3.90625 1.796875-.820312 1.796875 11.054688 1.796875-1.484376L323.203125 501.25 325 495.820312l1.796875-14.0625 1.796875-10.351562 1.796875 1.25 1.796875-9.726562 1.796875-10.3125 1.835937-1.796876 1.796876-6.875 1.796874 2.890626 1.796876 13.75 1.796874 2.851562 3.59375-4.921875 1.796876-12.5L350.195312 435l1.796876-.742188 1.796874-10.234374 1.796876-15.546876 1.796874-9.257812 1.796876-12.96875 1.835937-7.070312 1.796875 4.84375 1.796875 1.445312 1.796875-6.054688 1.796875-7.109374L370 365.039062l1.796875-8.671874 1.796875-1.445313 1.796875 5.429687 1.796875-2.304687 1.796875-1.953125 1.835937 8.28125 1.796876 7.421875 1.796874 15.3125 1.796876 25.234375 1.796874 12.03125 1.796876 4.140625 1.796874 7.148437 1.796876.195313 1.796874.429687 1.835938 8.828126 1.757812-1.71875 1.796876-8.867188 1.796874.898438 1.796876-3.085938 1.835937 1.210938 1.796875 14.140624 1.796875 1.210938 1.796875-4.414062 1.796875-.625L415 433.515625l1.796875-3.828125 1.796875 7.148438 1.796875-2.148438 1.796875-2.03125 1.796875 5.429688 1.835937 2.265624 1.796876 11.757813 1.796874 24.296875 1.796876 15 1.796874 8.398438 1.796876 10.585937 1.796874 1.445313 1.796876 1.914062 1.796874 12.265625 1.835938 5.390625 1.757812.46875 1.796876 4.453125 1.796874 4.53125 1.796876 8.710937 1.835937 18.359376 1.796875 22.03125 1.796875 11.992187 1.796875 8.28125 1.796875 12.578125L460 631.445312l1.796875 15.507813 1.796875 24.960937 1.796875 15.898438 1.796875 15.351562 1.796875 26.445313 1.835937 25.820313 1.796876 31.953124 1.796874 42.5 1.796876 31.015626 1.796874 21.40625 1.796876 24.726562 1.796874 16.40625 1.796876 15.234375 1.796874 25.3125 1.835938 12.96875 1.757812 6.25 1.796876 14.492187 1.796874 7.578126 1.796876 14.804687 1.835937 25.390625 1.796875 11.40625 1.796875 6.71875 1.796875 7.695312 1.796875-1.796874L505 1072.539062l1.796875 12.65625 1.796875 3.671876 1.796875 1.679687 1.796875 9.0625 1.796875 4.765625 1.835937 11.171875 1.796876 24.21875 1.796874 15.859375 1.796876 7.382812 1.796874 7.109376 1.796876-1.40625 1.796874-2.460938 1.796876 4.609375 1.796874 1.484375 1.835938-6.5625 1.757812-7.109375 1.796876-2.148437 1.796874-2.03125 1.796876 5 1.835937 12.304687 1.796875-.46875 1.796875-5.078125 1.796875-.195312 1.796875-6.210938L550 1158.75l1.796875 9.375 1.796875 1.328125 1.796875-1.914063 1.796875 8.789063 1.796875 8.398437 1.835937 13.28125 1.796876 25.546876 1.796874 13.4375 1.796876 3.359374 1.796874 7.34375 1.796876-2.734374 1.796874-1.992188 1.796876 7.1875 1.796874-6.5625 1.835938-9.804688 1.757812-3.59375 1.796876-10.898437 1.796874-2.382813 1.796876 7.382813 1.835937-3.984375 1.796875-8.984375 1.796875-8.085937 1.796875-16.796876 1.796875-13.359374L595 1171.875l1.796875-9.023438 1.796875-12.34375 1.796875-4.492187 1.796875-6.914063 1.796875-.390624 1.835937 11.679687 1.796876 7.34375 1.796874-1.171875 1.796876-3.554688 1.796874-6.835937 1.796876-10.195313 1.796874-5.429687 1.796876-1.914063 1.796874-11.71875 1.835938-13.632812 1.757812-5.195312 1.796876-7.1875 1.796874.585937 1.796876 10.78125 1.835937-1.679687 1.796875-7.265626 1.796875-1.875 1.796875-5.820312 1.796875-2.539062L640 1092.34375l1.796875 2.109375 1.796875-1.914063 1.796875 10.429688 1.796875 8.554688 1.796875 14.179687 1.835937 27.421875 1.796876 14.53125 1.796874 7.421875 1.796876 9.570313 1.796874-2.460938 1.796876.898438 1.796874 8.945312 1.796876-4.453125 1.796874-7.460937 1.835938-3.28125 1.757812-9.335938 1.796876-2.148438 1.796874 8.164063 1.835938-2.304687 1.796875-9.726563 1.796875-7.539063 1.796875-16.484374 1.796875-15.15625 1.796875-3.632813L685 1108.789062l1.796875-13.554687 1.796875-8.828125 1.796875-8.90625 1.796875-4.570312 1.796875 4.84375 1.835937 6.367187 1.796876-5.3125 1.796874-10.976563 1.796876-10.117187 1.796874-16.757813 1.796876-13.28125 1.796874-7.109374 1.796876-19.140626 1.796874-22.070312 1.835938-12.851562 1.757812-15.15625 1.796876-9.375 1.835937 1.328124 1.796875-9.0625 1.796875-16.601562 1.796875-11.015625 1.796875-15.703125 1.796875-13.398438 1.796875.390626L730 869.921875"/><path d="M730 869.921875 731.796875 858.75l1.796875.585938 1.796875-3.242188 1.796875 6.054688 1.796875 18.164062 1.835937 4.882812 1.796876.117188 1.796874.898438 1.796876-10 1.796874-6.796876 1.796876.9375 1.796874-10.273437 1.796876-14.023437 1.796874-8.867188 1.835938-14.414062 1.757812-8.75 1.796876 3.828124 1.835937-4.296874 1.796875-12.070313 1.796875-10.46875L767.8125 773.4375l1.796875-15.820312 1.796875-5.820313 1.796875-7.109375L775 732.695312l1.796875-9.921874 1.796875-3.359376 1.796875-1.757812 1.796875 6.367188 1.796875 13.671874 1.835937.585938 1.796876-4.765625 1.796874-1.523437 1.796876-9.101563 1.796874-6.09375 1.796876 2.5 1.796874-7.695313 1.796876-12.304687 1.796874-2.773437 1.835938-3.554688 1.757812 1.757812L805.625 709.0625l1.796875 4.179688 1.796875-3.632813 1.796875 3.476563 1.796875-2.890626 1.796875 1.25L816.40625 726.25l1.796875 4.765625L820 736.25l1.796875 14.804688 1.796875 10.234374 1.796875 20.742188 1.796875 31.835938 1.796875 20.820312 1.835937 15.15625 1.796876 14.882812 1.796874 4.21875 1.796876 5.664063 1.796874 14.6875 1.796876 3.710937 1.796874-2.421874 1.796876 2.5 1.796874-2.65625 1.835938 1.601562 1.757812 12.382812 1.835938 6.367188 1.796875-2.421875 1.796875-4.179687 1.796875-7.773438 1.796875-9.84375 1.796875-3.671875 1.796875.742187 1.796875-7.773437 1.796875-8.75 1.796875.273437 1.796875-1.601562 1.796875 5.820312 1.796875 14.53125 1.796875.390626 1.835937-7.265626 1.796876-4.570312 1.796874-11.523438 1.796876-11.445312 1.796874-3.046875 1.796876-13.242187 1.796874-19.765626 1.796876-9.726562 1.796874-13.007812 1.835938-8.164063 1.757812 5 1.835938-6.796875 1.796875-12.929688 1.796875-7.96875 1.796875-16.992187 1.796875-10.429687 1.796875 1.523437 1.796875-8.59375 1.796875-7.929687L910 718.984375l1.796875-3.867187 1.796875 5.664062 1.796875 16.914062 1.796875 7.226563 1.835938-.15625 1.796874 1.289063 1.796876-9.570313 1.796874-9.804687 1.796876-.429688 1.796874-9.414062 1.796876-15.3125 1.796874-12.65625 1.796876-14.882813 1.796874-11.992187 1.835938-2.890626 1.757812-2.460937 1.835938-13.398437 1.796875-17.890626 1.796875-15.859374 1.796875-20.117188 1.796875-14.84375 1.796875-6.40625 1.796875-16.25 1.796875-16.914062L955 528.867188l1.796875-7.5 1.796875-.703126 1.796875 9.453126 1.796875-1.445313 1.835938-10.3125 1.796874-6.484375 1.796876-13.164062 1.796874-13.203126 1.796876-1.796874 1.796874-12.734376 1.796876-18.085937 1.796874-7.8125 1.796876-12.1875 1.796874-3.710937 1.835938 8.984374 1.757812-3.046874 1.835938-6.210938 1.796875-2.578125 1.796875-10.742187 1.796875-3.789063 1.796875 7.5 1.796875-.195313 1.796875-.078124 1.796875 7.734374L1000 431.5625l1.796875 12.421875 1.796875 26.25 1.796875 18.046875 1.835937 9.6875 1.796876 10.429688 1.796874.976562 1.796876.3125 1.796874 7.460938 1.796876 2.539062 1.796874-5.3125 1.796876-6.015625 1.796874-2.65625 1.796876-3.320313 1.796874 3.125 1.835938 8.515626 1.757812-4.726563L1030.625 499.0625l1.796875-6.796875 1.796875-13.320313 1.796875-9.101562 1.796875.703125 1.796875-8.789063 1.796875-11.953124 1.796875-1.679688L1045 445.742188l1.796875 2.851562 1.796875 14.179688 1.796875 2.734374 1.835937-7.460937 1.796876-2.617187 1.796874-11.601563 1.796876-10.9375 1.796874-.15625 1.796876-13.007813 1.796874-15.3125 1.796876-7.851562 1.796874-13.710938 1.796876-3.90625 1.796874 7.382813 1.835938-2.8125 1.757812-6.679687L1075.625 372.5l1.796875-12.148438 1.796875-6.640624 1.796875 6.054687 1.796875-1.171875 1.796875-3.125 1.796875 5.46875 1.796875 3.554688 1.796875 10 1.796875 23.125 1.796875 17.695312 1.796875 9.609375 1.835937 7.890625 1.796876 2.617188 1.796874-.234376 1.796876 4.0625 1.796874 6.09375 1.796876-4.296874 1.796874-6.875 1.796876.3125 1.796874-2.421876 1.796876 4.726563 1.796874 12.929687 1.835938-.46875 1.757812-6.679687L1120.625 440.625l1.796875-6.875 1.796875-4.101562 1.796875 7.03125 1.796875-.664063 1.796875-4.53125 1.796875 7.304687 1.796875 6.09375L1135 456.601562l1.796875 25.429688 1.796875 13.75 1.835938 6.25 1.796874 10.15625 1.796876-.46875 1.796874 4.101562 1.796876 13.984376 1.796874 1.601562 1.796876.820312 1.796874 6.71875 1.796876 2.617188 1.796874 11.992188 1.796876 23.867187 1.796874 15.3125 1.835938 10.15625 1.757812 14.375 1.835938 6.5625 1.796875 10.039063 1.796875 23.28125 1.796875 18.125 1.796875 15.859374 1.796875 22.070313 1.796875 22.382813 1.796875 27.617187L1180 801.601562"/><path d="M1180 801.601562l1.796875 38.4375 1.796875 27.617188 1.835938 22.382812 1.796874 22.070313 1.796876 15.820313 1.796874 18.125 1.796876 23.28125 1.796874 10.039062 1.796876 6.5625 1.796874 14.375 1.796876 10.195312 1.796874 15.3125 1.796876 23.828126 1.796874 11.992187 1.835938 2.65625 1.796875 6.71875 1.796875.78125 1.796875 1.601563 1.796875 14.023437 1.796875 4.0625 1.796875-.46875 1.796875 10.15625 1.796875 6.25 1.796875 13.75L1225 1146.601562l1.796875 11.71875 1.835937 6.09375 1.796876 7.34375 1.796874-4.570312 1.796876-.664062 1.796874 7.03125 1.796876-4.0625 1.796874-6.914063 1.796876-1.914063 1.796874-6.679687 1.796876-.507813 1.796874 12.96875 1.796876 4.6875 1.796874-2.421874 1.835938.3125 1.796875-6.875 1.796875-4.257813 1.796875 6.09375 1.796875 4.023437 1.796875-.234374 1.796875 2.617187 1.796875 7.890625 1.796875 9.609375 1.796875 17.734375L1270 1228.75l1.835938 10 1.796874 3.515625 1.796876 5.46875 1.796874-3.125 1.796876-1.171875 1.796874 6.054688 1.796876-6.640626 1.796874-12.148437 1.796876-4.296875 1.796874-6.679688 1.796876-2.851562 1.796874 7.382812 1.796876-3.867187 1.796874-13.75 1.835938-7.851563 1.796875-15.3125 1.796875-13.007812 1.796875-.117188 1.796875-10.976562 1.796875-11.601562 1.796875-2.578126 1.796875-7.460937 1.796875 2.695313 1.796875 14.179687L1315 1157.460938l1.835938-2.34375 1.796874-1.71875 1.796876-11.953126 1.796874-8.789062 1.796876.703125 1.796874-9.0625 1.796876-13.320313 1.796874-6.835937 1.796876-10.234375 1.796874-4.726562 1.796876 8.554687 1.796874 3.125 1.796876-3.320313 1.796874-2.695312 1.835938-6.015625 1.796875-5.3125 1.796875 2.539063 1.796875 7.5 1.796875.3125 1.796875.9375 1.796875 10.429687 1.796875 9.6875 1.796875 18.046875 1.796875 26.289062 1.835937 12.382813 1.796876 4.804687 1.796874 7.734376 1.796876-.078126 1.796874-.15625 1.796876 7.460938 1.796874-3.789062 1.796876-10.703126 1.796874-2.617187 1.796876-6.210937 1.796874-3.046876 1.796876 8.984376 1.796874-3.710938 1.796876-12.1875 1.796874-7.773438 1.835938-18.085937 1.796875-12.773437 1.796875-1.796876 1.796875-13.203124 1.796875-13.164063 1.796875-6.484375 1.796875-10.3125 1.796875-1.445312 1.796875 9.492187 1.796875-.742187 1.835937-7.5 1.796876-6.09375 1.796874-16.914063 1.796876-16.25 1.796874-6.367187 1.796876-14.882813 1.796874-20.117187 1.796876-15.859376L1419.414062 960l1.796876-13.4375 1.796874-2.460938 1.796876-2.890624 1.796874-11.953126 1.796876-14.882812 1.835937-12.695312 1.796875-15.3125 1.796875-9.414063 1.796875-.390625 1.796875-9.84375 1.796875-9.570312 1.796875 1.328124 1.796875-.15625 1.796875 7.1875 1.796875 16.953126 1.796875 5.625 1.835937-3.867188 1.796876-.664062 1.796874-7.929688 1.796876-8.554688 1.796874 1.484376 1.796876-10.429688 1.796874-16.992188 1.796876-7.96875 1.796874-12.929687 1.796876-6.796875 1.796874 5.039062 1.796876-8.203124 1.796874-13.007813 1.835938-9.726563 1.796875-19.765624 1.796875-13.242188 1.796875-3.046875 1.796875-11.445313 1.796875-11.523437 1.796875-4.570313 1.796875-7.265624 1.796875.429687 1.796875 14.492187 1.796875 5.820313 1.796875-1.601563 1.835937.273438 1.796876-8.75 1.796874-7.773438 1.796876.742188 1.796874-3.671875 1.796876-9.84375 1.796874-7.773437 1.796876-4.179688 1.796874-2.421875 1.796876 6.367187 1.796874 12.382813 1.796876 1.601563 1.796874-2.65625 1.835938 2.5 1.796875-2.421876 1.796875 3.710938 1.796875 14.726562 1.796875 5.625 1.796875 4.257813 1.796875 14.882813 1.796875 15.15625L1532.8125 789.375l1.796875 31.796875 1.796875 20.742187 1.796875 10.234376 1.835937 14.84375 1.796876 5.195312 1.796874 4.765625 1.796876 14.804687 1.796874 1.289063 1.796876-2.890625 1.796874 3.476562 1.796876-3.671874 1.796874 4.21875 1.796876 14.335937 1.796874 1.71875 1.796876-3.554687 1.796874-2.734376 1.835938-12.34375 1.796875-7.695312 1.796875 2.5 1.796875-6.09375 1.796875-9.101562 1.796875-1.523438 1.796875-4.765625 1.796875.625 1.796875 13.632813 1.796875 6.40625 1.796875-1.796876 1.796875-3.359374 1.835937-9.882813 1.796876-11.992187 1.796874-7.109376 1.796876-5.859374 1.796874-15.820313 1.796876-17.539063 1.796874-10.507812 1.796876-12.03125 1.796874-4.335938 1.796876 3.828126 1.796874-8.75 1.796876-14.414063 1.796874-8.828125 1.835938-14.023438 1.796875-10.3125 1.796875.976563 1.796875-6.796875 1.796875-10.039062 1.796875.898437 1.796875.117187 1.796875 4.882813 1.796875 18.164063 1.796875 6.09375 1.796875-3.242188 1.796875.585938 1.835937-11.210938"/><path d="M1630.039062 733.28125l1.796876-8.007812 1.796874.390624 1.796876-13.398437 1.796874-15.664063 1.796876-11.015624 1.796874-16.640626 1.796876-9.023437 1.796874 1.289063 1.796876-9.375 1.796874-15.15625 1.796876-12.8125 1.796874-22.070313 1.835938-19.179687 1.796875-7.070313 1.796875-13.28125 1.796875-16.796875 1.796875-10.078125 1.796875-11.015625 1.796875-5.273438 1.796875 6.328126 1.796875 4.84375 1.796875-4.570313 3.59375-17.734375 1.835937-13.515625 1.796876-9.882813 1.796874-3.671874 1.796876-15.15625 1.796874-16.484376 1.796876-7.539062 1.796874-9.6875 1.796876-2.34375 1.796874 8.164062 1.796876-2.109374 1.796874-9.335938 1.796876-3.320312 1.796874-7.460938 1.835938-4.453125 1.796875 8.945313 1.796875.9375 1.796875-2.5L1705.625 428.125l1.796875 7.421875 1.796875 14.53125L1711.015625 477.5l1.796875 14.179688 1.796875 8.59375 1.796875 10.429687 1.796875-1.953125 1.835937 2.109375 1.796876 9.257813 1.796874-2.539063 1.796876-5.820313 1.796874-1.835937 1.796876-7.304687 1.796874-1.640626 1.796876 10.742188 1.796874.625 1.796876-7.226562 1.796874-5.195313 1.796876-13.632813 1.796874-11.71875 1.835938-1.914062 1.796875-5.390625 1.796875-10.234375 1.796875-6.835938 1.796875-3.515624 1.796875-1.210938 1.796875 7.34375 1.796875 11.679688 1.796875-.390626 1.796875-6.914062 1.796875-4.453125 1.796875-12.382813 1.835937-9.023437 1.796876-1.171875 1.796874-13.398438 1.796876-16.796874 1.796874-8.085938 1.796876-8.984375 1.796874-3.945313 1.796876 7.382813 1.796874-2.421875 1.796876-10.898438 1.796874-3.59375 1.796876-9.804687 1.796874-6.5625 1.835938 7.1875 1.796875-1.992187 1.796875-2.734376 1.796875 7.382813 1.796875 3.320313 1.796875 13.4375 1.796875 25.546874 1.796875 13.28125 1.796875 8.4375 1.796875 8.75 1.796875-1.875 1.796875 1.328126 1.835937 9.335937 1.796876-1.054687 1.796874-6.210938 1.796876-.234375 1.796874-5.078125 1.796876-.46875 1.796874 12.304688 1.796876 5 1.796874-2.03125 1.796876-2.109376 1.796874-7.148437 1.796876-6.523437 1.796874 1.445312 1.835938 4.609375 1.796875-2.460937 1.796875-1.40625 1.796875 7.109374 1.796875 7.382813 1.796875 15.898437 1.796875 24.21875 1.796875 11.132813 1.796875 4.765625 1.796875 9.101562 1.796875 1.679688 1.796875 3.632812 1.835937 12.65625 1.796876 3.046876 1.796874-1.796876 1.796876 7.734376 1.796874 6.71875 1.796876 11.367187 1.796874 25.390625 1.796876 14.804688 1.796874 7.617187L1871.210938 620l1.796874 6.25 1.796876 13.007812 1.796874 25.273438 1.835938 15.234375 1.796875 16.40625 1.796875 24.726563 1.796875 21.445312 1.796875 30.976562 1.796875 42.539063 1.796875 31.914063 1.796875 25.859374 1.796875 26.445313 1.796875 15.3125 1.796875 15.9375 1.796875 24.960937 1.835937 15.46875 1.796876 8.632813 1.796874 12.578125 1.796876 8.320312 1.796874 11.953126 1.796876 22.03125 1.796874 18.359374 1.796876 8.75 1.796874 4.492188 1.796876 4.453125 1.796874.507813 1.796876 5.351562 1.796874 12.265625 1.835938 1.914063 1.796875 1.445312 1.796875 10.585938 1.796875 8.4375 1.796875 14.960937 1.796875 24.296875 1.796875 11.796875 1.796875 2.265625 1.796875 5.390625 1.796875-1.992187 1.796875-2.148438 1.796875 7.109375 1.835937-3.828125 1.796876-10.351562 1.796874-.625 1.796876-4.375 1.796874 1.171874 1.796876 14.140626 1.796874 1.25 1.796876-3.125 1.796874.898437 1.796876-8.867187 1.796874-1.679688 1.796876 8.828125 1.796874.429687 1.835938.195313 1.796875 7.148437 1.796875 4.101563 1.796875 12.03125 1.796875 25.234375 1.796875 15.351562 1.796875 7.421876 1.796875 8.242187 1.796875-1.914063 1.796875-2.34375 1.796875 5.429688 1.796875-1.40625 1.835937-8.710938 1.796876-7.265624 1.796874-7.070313 1.796876-6.09375 1.796874 1.445313 1.796876 4.84375 1.796874-7.070313 1.796876-12.929687 1.796874-9.296876 1.796876-15.546874 1.796874-10.234376 1.796876-.742187 1.796874-11.015625 1.835938-12.5 1.796875-2.460938 1.796875-2.421874 1.796875 2.851562 1.796875 13.710938 1.796875 2.929687 1.796875-6.875 1.796875-1.835937 1.796875-10.3125 1.796875-9.726563 1.796875 1.25 1.796875-10.351563 1.835937-14.023437 1.796876-5.46875 1.796874-10.664063 1.796876-1.484374 1.796874 11.054687 1.796876-.820313 1.796874-3.90625 1.796876-1.484374 1.796874-9.257813 1.796876-2.65625 1.796874 8.359375 1.796876 1.40625 1.796874-.390625 1.835938 8.515625 1.796875 5.507812 1.796875 11.992188 1.796875 25.820312 1.796875 18.164063 1.796875 10.546875 1.796875 9.101562 1.796875 1.5625 1.796875-.664062 1.796875 4.726562 1.796875 3.671876 1.796875-6.601563 1.835937-8.632813"/></g><path stroke-width="3.985" d="M473.125 261.601562h1413.75"/></g><path d="M47.0625 115.8516h.6016v6h-.6016zm0 0"/><path d="M82.4063 115.8516h.6016v6h-.6016zm0 0"/><path d="M117.75 115.8516h.6016v6h-.6016zm0 0"/><path d="M153.0938 115.8516h.6016v6h-.6016zm0 0"/><path d="M188.4375 115.8516h.6016v6h-.6016zm0 0"/><use x="40.7141" y="128.6109" href="#b"/><use x="47.434" y="128.6109" href="#d"/><use x="75.6977" y="131.2511" href="#b"/><use x="83.6176" y="127.291" href="#e"/><path d="M83.6055 128.3828h4.9219v.6016h-4.9219zm0 0"/><use x="84.218" y="134.6109" href="#f"/><use x="115.4817" y="130.6512" href="#a"/><use x="150.945" y="127.291" href="#e"/><path d="M150.9336 128.3828h4.9219v.6016h-4.9219zm0 0"/><use x="151.545" y="134.6109" href="#f"/><use x="185.3286" y="128.6109" href="#d"/><g style="fill:none;stroke-width:3.985;stroke:#000;stroke-miterlimit:10;transform:matrix(.1,0,0,-.1,0,142)"><path d="M280 261.601562h1800.039062"/><path d="M280 261.601562v1080"/></g><path d="M21.9883 115.4922h6v.6016h-6zm0 0"/><path d="M21.9883 88.4922h6v.6016h-6zm0 0"/><path d="M21.9883 61.4922h6v.6016h-6zm0 0"/><path d="M21.9883 34.4922h6v.6016h-6zm0 0"/><path d="M21.9883 7.4922h6v.6016h-6zm0 0"/><use x=".5891" y="119.2" href="#b"/><use x="7.309" y="119.2" href="#a"/><use x="12.4691" y="119.2" href="#c"/><use x="15.109" y="119.2" href="#g"/><use x=".5891" y="92.2" href="#b"/><use x="7.309" y="92.2" href="#a"/><use x="12.4692" y="92.2" href="#c"/><use x="15.109" y="92.2" href="#h"/><use x="14.9891" y="65.2" href="#a"/><use x="7.1891" y="38.2" href="#a"/><use x="12.3492" y="38.2" href="#c"/><use x="14.9891" y="38.2" href="#h"/><use x="7.1891" y="11.2" href="#a"/><use x="12.3492" y="11.2" href="#c"/><use x="14.9891" y="11.2" href="#g"/></svg>