<svg xmlns="http://www.w3.org/2000/svg" width="209pt" height="137pt" viewBox="0 0 209 137"><defs><path d="M6.0156-2.4062v-.5781H.6406v.5781zm0 0" id="a"/><path d="M6.0625-4.6562c-.6875.015625-1.390625.046875-2.09375.046875-.859375 0-1.71875-.03125-2.5625-.03125C.75-4.65625.625-3.875.453125-3.390625v.0781l.0781.0469.0781-.0469C1.015625-3.9375 1.25-4.03125 2-4.03125h.2344c-.375 1.375-.703125 2.75-1.296875 4.046875L1.0156.125c.20315-.0625.5469-.140625.7344-.25.375-1.28125.625-2.609375.875-3.90625h2.2813c-.546875.859375-.953125 1.90625-.953125 2.953125 0 .484375.171875 1.234375.78125 1.234375.40625 0 .921875-.40625 1.234375-.671875L5.9844-.5625l-.0469-.0937-.0781-.0156c-.171875.109375-.359375.25-.609375.25-.546875 0-.609375-.828125-.609375-1.234375 0-.84375.265625-1.65625.6875-2.375l.6094-.1406c.03125-.171875.078125-.328125.125-.484375zm0 0" id="c"/><path d="M4.4219-3.3906c-.5.015625-1.015625.03125-1.53125.03125-.625 0-1.25-.015625-1.859375-.03125-.484375 0-.578125.5625-.703125.921875v.0469l.0625.0313L.4375-2.4062c.296875-.4688.484375-.5313 1.015625-.5313H1.625c-.265625 1-.5 2-.9375 2.953125L.7344.0938c.15625-.046875.40625-.09375.53125-.1875.28125-.9375.46875-1.890625.65625-2.84375h1.6563c-.40625.625-.6875 1.390625-.6875 2.15625 0 .359375.125.890625.5625.890625.2968-5e-5.6718-.296925.906175-.484425v-.0469l-.0312-.0625h-.0625C4.15625-.40625 4-.3125 3.828125-.3125c-.40625 0-.4375-.59375-.4375-.890625 0-.625.1875-1.21875.484375-1.734375l.4531-.0937c.015625-.125.0625-.25.09375-.359375zm0 0" id="d"/><path d="M3.4063.0156c-.015675-.1406-.015675-.218725-.015675-.3281 0-.09375 0-.15625.015625-.3125L.8906-.5625l1.3125-1.4062c.703125-.734375.921875-1.140625.921875-1.6875C3.125-4.484375 2.5625-5 1.640625-5c-.515625 0-.875.140625-1.234375.5l-.125.9844H.5l.0938-.3281c.109375-.421875.375-.609375.859375-.609375.625 0 1.03125.40625 1.03125 1.015625 0 .546875-.3125 1.078125-1.140625 1.953125L.1094-.1719v.1875C.65625 0 1.203125 0 1.734375 0 2.28125 0 2.84375 0 3.40625.015625zm0 0" id="e"/><path d="M4.6406-3.6562c0-2.171875-.65625-3.21875-2.015625-3.21875C1.0781-6.87495.29685-5.640575.29685-3.234325.296875-2.0625.5-1.0625.84375-.5625 1.203125-.078125 1.75.203125 2.375.203125c1.5 0 2.265625-1.296875 2.265625-3.859375zm-.8437.5c0 2.125-.375 3-1.296875 3-.96875 0-1.375-1-1.375-3.4375 0-2.09375.375-2.921875 1.3125-2.921875.96875 0 1.359375.96875 1.359375 3.359375zm0 0" id="b"/><path d="M4.1719.0313v-.2969l-.5156-.0312C3.09375-.328125 3-.4375 3-.953125V-6.875l-.1406-.0469c-.64065.343775-1.3594.64065-2.26565.95315l.0781.4375h.0938c.4375-.203125.875-.40625 1.3125-.59375.0625 0 .078125.09375.078125.328125v4.8438c0 .515625-.109375.625-.640625.65625l-.5625.0313V.0313C1.5.015625 2.046875 0 2.609375 0 3.125 0 3.65625.015625 4.171875.03125zm0 0" id="f"/><path d="M4.5781-2.5156c0-1.140625-.8125-1.9375-1.953125-1.9375-.46875 0-.828125.140625-1.453125.5l.0938-2.0781 3.0469.0469.0469-.0469c-.015625-.171875-.015625-.234375-.015625-.390625s0-.21875.015625-.390625L4.3125-6.875s-1.0625.0625-1.734375.0625c-.6875 0-1.734375-.0625-1.734375-.0625l-.0625.0625.0313 1.3594c0 .875-.03125 1.796875-.0625 2.25l.2031.0469c.46875-.46875.734375-.609375 1.21875-.609375.953125 0 1.5625.6875 1.5625 1.765625C3.734375-.890625 3.09375-.25 2-.25 1.46875-.25.96875-.421875.828125-.6875L.375-1.5l-.25.1406c.234375.5625.359375.875.5 1.3125.265625.15625.671875.25 1.09375.25.671875 0 1.375-.296875 1.9375-.765625.59375-.546875.921875-1.21875.921875-1.953125zm0 0" id="g"/><path d="M1.8281-.5312c0-.296875-.28125-.578125-.59375-.578125-.296875 0-.5625.28125-.5625.578125s.26565.578075.5469.578075c.328125 0 .609375-.265625.609375-.578125zm0 0" id="h"/></defs><g fill="none" stroke-miterlimit="10" transform="matrix(.1 0 0 -.1 0 137)"><g stroke-width="3.985"><path stroke="#e5e5e5" d="M280 1077.304688l8.984375-11.015626 9.023437-10.9375 8.984376-10.976562 9.023437-11.09375L325 1021.875l8.984375-11.757812 9.023437-12.265626 8.984376-12.773437 9.023437-13.28125 8.984375-13.75 8.984375-14.101563 9.023437-14.335937 9.023438-14.492187 8.984375-14.414063L415 886.445312l8.984375-13.984374 9.023437-13.632813 9.023438-13.28125 8.984375-13.007813L460 819.882812l8.984375-12.539062 9.023437-12.460938 9.023438-12.539062 8.984375-12.695312L505 756.640625l8.984375-13.320313 9.023437-13.671874L532.03125 715.625l8.984375-14.257812 17.96875-28.90625 9.023437-14.335938 9.023438-14.0625 8.984375-13.710938L595 617.109375l8.984375-12.734375 9.023437-12.226562 9.023438-11.757813 8.984375-11.328125L640 557.929688l8.984375-10.898438 9.023437-10.976562 9.023438-11.015626 8.984375-11.210937L685 502.34375l8.984375-11.679688 9.023437-11.875 9.023438-11.953124 8.984375-11.875L730 443.28125l8.984375-11.328125 9.023437-10.742187 9.023438-10.117188 8.984375-9.335938L775 393.164062l8.984375-7.773437 9.023437-7.109375 9.023438-6.523438 8.984375-6.09375L820 359.804688l8.984375-5.742188 9.023437-5.742188 9.023438-5.898437 8.984375-6.015625L865 330.234375l8.984375-6.132813 9.023437-5.976562 9.023438-5.625 8.984375-5.039062L910 303.28125l9.023438-3.085938 8.984374-1.875 9.023438-.507812 8.984375.859375L955 300.898438l9.023438 3.4375 8.984374 4.453124 9.023438 5.15625 8.984375 5.703126 8.984375 5.9375 9.023438 6.015624 8.984374 5.9375 9.023438 5.9375 8.984375 5.976563L1045 355.820312l9.023438 7.148438 8.984374 8.4375 9.023438 10.390625 8.984375 12.929687L1090 410.9375l9.023438 20 8.984374 24.335938 9.023438 29.0625 8.984375 33.828124L1135 556.679688l9.023438 42.96875 8.984374 46.796874 9.023438 49.921876 8.984375 52.070312L1180 801.601562l9.023438 53.203126 8.984374 52.070312 9.023438 49.882812 8.984375 46.796876L1225 1046.523438l9.023438 38.554687 8.984374 33.828125 9.023438 29.023438 8.984375 24.335937L1270 1192.304688l9.023438 16.171874 8.984374 12.96875 9.023438 10.351563 8.984375 8.4375L1315 1247.382812l9.023438 6.367188 8.984374 6.015625 9.023438 5.898437 8.984375 5.9375 9.023437 6.015626 8.984376 5.9375 8.984374 5.703124 9.023438 5.195313 8.984375 4.414063 9.023437 3.4375 8.984376 2.226562 8.984374.859375 9.023438-.507813 8.984375-1.835937 9.023437-3.125 8.984376-4.179687 8.984374-5.039063 9.023438-5.625 8.984375-5.976563 9.023437-6.132812 8.984376-6.171875 8.984374-6.015625 9.023438-5.898438 8.984375-5.742187 9.023437-5.742187 8.984376-5.820313 8.984374-6.132813 9.023438-6.523437 8.984375-7.109375 9.023437-7.773438 8.984376-8.554687 8.984374-9.375 9.023438-10.117187 8.984375-10.742188 9.023437-11.328125 8.984376-11.679687 8.984374-11.875 9.023438-11.953126 8.984375-11.875 9.023437-11.679687 8.984376-11.445313 8.984374-11.25 9.023438-11.015624 8.984375-10.9375 9.023437-10.976563 8.984376-11.054687 8.984374-11.367188 9.023438-11.757812 8.984375-12.226563 9.023437-12.734375 8.984376-13.242188 8.984374-13.710937 9.023438-14.0625 8.984375-14.335937 9.023437-14.453126 8.984376-14.414062 8.984374-14.296875 9.023438-13.984375 8.984375-13.710938 9.023437-13.320312 8.984376-12.96875 8.984374-12.734375 9.023438-12.539063 8.984375-12.460937 9.023437-12.5 8.984376-12.695313 8.984374-12.96875 9.023438-13.320312 8.984375-13.632812 9.023437-13.984376L1954.023438 702.5l8.984374-14.414062 9.023438-14.453126 8.984375-14.335937 9.023437-14.140625 8.984376-13.710938 8.984374-13.320312 9.023438-12.734375 8.984375-12.265625 9.023437-11.796875 8.984376-11.40625 8.984374-11.09375 9.023438-10.9375 8.984375-10.9375 9.023437-11.015625"/><path stroke="#d8d8d8" d="M280 1081.523438l8.984375-13.242188 9.023437-13.359375 8.984376-13.359375 9.023437-13.203125L325 1015.351562l8.984375-12.695312 9.023437-12.460938 8.984376-12.1875 9.023437-11.953124L370 954.179688l8.984375-11.796876 9.023437-11.914062 9.023438-12.109375 8.984375-12.382813L415 893.203125l8.984375-13.164063 9.023437-13.632812 9.023438-14.023438 8.984375-14.375L460 823.320312l8.984375-14.84375 9.023437-14.921874 9.023438-14.84375 8.984375-14.648438L505 749.6875l8.984375-13.984375 9.023437-13.59375 9.023438-13.125L541.015625 696.25 550 683.867188l8.984375-12.070313 9.023437-11.914063 9.023438-11.796874 8.984375-11.875L595 624.257812l8.984375-12.226562 9.023437-12.460938 9.023438-12.734374 8.984375-13.007813L640 560.585938l8.984375-13.359376 9.023437-13.320312 9.023438-13.242188 8.984375-13.007812L685 495.078125l8.984375-12.070313 9.023437-11.484374 9.023438-10.820313 8.984375-10.15625L730 441.054688l8.984375-8.867188 9.023437-8.359375 9.023438-7.96875 8.984375-7.695313L775 400.585938l8.984375-7.539063 9.023437-7.65625 9.023438-7.773437 8.984375-7.929688L820 361.601562l8.984375-8.203124 9.023437-8.125 9.023438-7.929688 8.984375-7.578125L865 322.734375l8.984375-6.25 9.023437-5.3125 9.023438-4.257813 8.984375-3.085937 8.984375-1.875 9.023438-.664063 8.984374.46875 9.023438 1.484376 8.984375 2.304687L955 308.515625l9.023438 3.359375 8.984374 3.632812 9.023438 3.710938 8.984375 3.671875L1000 326.484375l9.023438 3.554687 8.984374 3.671876 9.023438 4.023437 8.984375 4.6875L1045 348.164062l9.023438 7.34375 8.984374 9.375 9.023438 11.953126 8.984375 15.039062L1090 410.46875l9.023438 22.460938 8.984374 26.601562 9.023438 30.820312 8.984375 35L1135 564.375l9.023438 42.617188 8.984374 45.742187 9.023438 48.203125 8.984375 49.921875L1180 801.601562l9.023438 50.78125 8.984374 49.882813 9.023438 48.203125 8.984375 45.742188L1225 1038.828125l9.023438 39.023437 8.984374 35.039063 9.023438 30.820313 8.984375 26.5625L1270 1192.734375l9.023438 18.59375 8.984374 15.039063 9.023438 11.992187 8.984375 9.335937 8.984375 7.34375 9.023438 5.742188 8.984374 4.726562 9.023438 3.984376 8.984375 3.671874 9.023437 3.554688 8.984376 3.59375 8.984374 3.671875 9.023438 3.710937 8.984375 3.632813 9.023437 3.398437 8.984376 2.929688 8.984374 2.34375 9.023438 1.445312 8.984375.46875 9.023437-.664062 8.984376-1.875 8.984374-3.085938 9.023438-4.257812 8.984375-5.3125 9.023437-6.25 8.984376-7.03125 8.984374-7.539062 9.023438-7.96875 8.984375-8.125 9.023437-8.164063 8.984376-8.125 8.984374-7.929687 9.023438-7.773438 8.984375-7.65625 9.023437-7.539062 8.984376-7.539063 8.984374-7.734375 9.023438-7.929688 8.984375-8.398437 9.023437-8.867187 8.984376-9.492188 8.984374-10.117188 9.023438-10.820312 8.984375-11.523438 9.023437-12.070312 8.984376-12.578125 8.984374-12.96875 9.023438-13.242187 8.984375-13.359376 9.023437-13.359374 8.984376-13.203126 8.984374-13.007812 9.023438-12.773438 8.984375-12.460937 9.023437-12.1875 8.984376-11.992187 8.984374-11.875 9.023438-11.796876 8.984375-11.914062 9.023437-12.070312 8.984376-12.382813 8.984374-12.695313 9.023438-13.164062 8.984375-13.554688 9.023437-14.023437 8.984376-14.375 8.984374-14.648437 9.023438-14.84375 8.984375-14.921876 9.023437-14.84375 8.984376-14.648437 8.984374-14.414063 9.023438-14.023437 8.984375-13.59375L1945.039062 710l8.984376-12.734375 8.984374-12.421875 9.023438-12.109375 8.984375-11.875 9.023437-11.835937 8.984376-11.835938 8.984374-11.992188 9.023438-12.1875 8.984375-12.421874 9.023437-12.734376 8.984376-13.007812 8.984374-13.203125 9.023438-13.320313 8.984375-13.359374 9.023437-13.28125"/><path stroke="#ccc" d="M280 1084.21875l8.984375-10.664062 9.023437-11.210938 8.984376-11.796875 9.023437-12.34375L325 1025.3125l8.984375-13.398438 9.023437-13.828124 8.984376-14.179688 9.023437-14.453125L370 954.882812l8.984375-14.609374 9.023437-14.570313 9.023438-14.335937 8.984375-14.101563L415 883.476562l8.984375-13.4375 9.023437-13.125 9.023438-12.773437 8.984375-12.539063L460 819.335938l8.984375-12.148438 9.023437-12.109375 9.023438-12.1875 8.984375-12.304687 8.984375-12.5 8.984375-12.8125 9.023437-13.125 9.023438-13.476563 8.984375-13.828125L550 690.703125l8.984375-14.375 9.023437-14.53125 9.023438-14.609375 8.984375-14.570312L595 618.164062l8.984375-14.179687 9.023437-13.789063 9.023438-13.359374 8.984375-12.851563L640 551.679688l8.984375-11.71875 9.023437-11.171876L667.03125 518.125l8.984375-10.195312L685 498.125l8.984375-9.570312 9.023437-9.414063 9.023438-9.296875 8.984375-9.375L730 450.976562l8.984375-9.648437 9.023437-9.84375 9.023438-10.039063 8.984375-10.234374L775 400.9375l8.984375-10.351562 9.023437-10.195313 9.023438-10 8.984375-9.570313L820 351.796875l8.984375-8.359375 9.023437-7.539062 9.023438-6.640626 8.984375-5.625L865 319.0625l8.984375-3.515625 9.023437-2.539063 9.023438-1.601562 8.984375-.78125L910 310.507812l9.023438.46875 8.984374.820313 9.023438 1.015625L955 315.078125l9.023438 1.054687 8.984374.9375 9.023438.9375 8.984375.9375L1000 320.15625l9.023438 1.679688 8.984374 2.382812 9.023438 3.476562 8.984375 4.960938L1045 339.453125l9.023438 9.023437 8.984374 11.601563 9.023438 14.609375 8.984375 17.8125L1090 413.828125l9.023438 24.921875 8.984374 28.632812 9.023438 32.226563 8.984375 35.703125L1135 574.257812l9.023438 41.757813 8.984374 44.179687 9.023438 46.09375 8.984375 47.304688L1180 801.601562l9.023438 48.007813 8.984374 47.34375 9.023438 46.054687 8.984375 44.179688L1225 1028.984375l9.023438 38.90625 8.984374 35.703125 9.023438 32.265625 8.984375 28.59375L1270 1189.414062l9.023438 21.289063 8.984374 17.851563 9.023438 14.570312 8.984375 11.640625L1315 1263.789062l9.023438 6.757813 8.984374 4.960937 9.023438 3.476563 8.984375 2.421875 9.023437 1.640625 8.984376 1.210937 8.984374.976563 9.023438.898437 8.984375.976563 9.023437 1.015625 17.96875 2.265625 9.023438 1.054687 8.984375.820313 9.023437.429687 8.984376-.117187 8.984374-.78125 9.023438-1.601563 8.984375-2.539062 9.023437-3.515625 8.984376-4.570313 8.984374-5.625 9.023438-6.601562 8.984375-7.539062 9.023437-8.359376 8.984376-9.0625 8.984374-9.570312 9.023438-9.960938 8.984375-10.234374 9.023437-10.3125 8.984376-10.3125 8.984374-10.234376 9.023438-10.039062 8.984375-9.84375 9.023437-9.648438 8.984376-9.453124 8.984374-9.375 9.023438-9.335938 8.984375-9.414062 9.023437-9.53125 8.984376-9.84375 8.984374-10.195313 9.023438-10.664063 8.984375-11.171874 9.023437-11.71875 8.984376-12.304688 8.984374-12.851562 9.023438-13.359376 8.984375-13.789062 9.023437-14.179688 8.984376-14.414062 8.984374-14.609375 9.023438-14.609375 8.984375-14.53125 9.023437-14.375 8.984376-14.101562 8.984374-13.828126 9.023438-13.515624 8.984375-13.125 9.023437-12.773438 8.984376-12.539062 8.984374-12.304688 9.023438-12.1875 8.984375-12.070312 9.023437-12.1875 8.984376-12.265626 8.984374-12.539062 9.023438-12.773438 8.984375-13.085937 9.023437-13.476563 8.984376-13.789062 8.984374-14.101562L1972.03125 677.5l8.984375-14.53125 9.023437-14.609375 8.984376-14.570313 8.984374-14.453124 9.023438-14.21875 8.984375-13.828126 9.023437-13.398437L2044.023438 565l8.984374-12.34375 9.023438-11.757812 8.984375-11.210938 9.023437-10.703125"/><path stroke="#bfbfbf" d="M280 1071.875l8.984375-11.71875 9.023437-11.445312 8.984376-11.25 9.023437-11.054688L325 1015.46875l8.984375-10.898438 9.023437-10.898437 8.984376-10.976563 9.023437-11.210937L370 960.078125l8.984375-11.757813 9.023437-12.148437 9.023438-12.578125 8.984375-13.007812L415 897.109375l8.984375-13.90625 9.023437-14.335937 9.023438-14.6875 8.984375-14.960938L460 824.023438l8.984375-15.351563 18.046875-30.703125 8.984375-15.195312L505 747.851562l8.984375-14.6875 9.023437-14.257812 9.023438-13.867188 8.984375-13.4375L550 678.59375l8.984375-12.5 9.023437-12.148438 9.023438-11.71875 8.984375-11.40625L595 619.648438l8.984375-10.976563L622.03125 586.875l8.984375-10.9375L640 564.84375l8.984375-11.25 9.023437-11.484375 9.023438-11.71875 8.984375-11.992187L685 506.171875l8.984375-12.382813L703.007812 481.25l9.023438-12.617188 8.984375-12.539062L730 443.671875l8.984375-12.1875 9.023437-11.796875 9.023438-11.328125 8.984375-10.742187L775 387.539062l8.984375-9.296874 9.023437-8.515626 9.023438-7.617187 8.984375-6.796875L820 349.414062l8.984375-5.117187 9.023437-4.335937 9.023438-3.632813 8.984375-3.046875L865 330.742188l8.984375-2.1875 9.023437-1.953126 9.023438-1.757812L910 321.328125l9.023438-1.835937 8.984374-1.953126 9.023438-2.03125 8.984375-2.148437L955 311.289062l9.023438-1.992187 8.984374-1.640625 9.023438-1.171875 8.984375-.429687L1000 306.5625l9.023438 1.796875 8.984374 3.28125 9.023438 5.078125 8.984375 7.1875L1045 333.398438l9.023438 12.109374 8.984374 14.882813 9.023438 17.8125 8.984375 20.859375L1090 423.046875l9.023438 27.03125 8.984374 30.117187 9.023438 32.96875 8.984375 35.664063 8.984375 38.125 9.023438 40.234375 8.984374 41.992188 9.023438 43.398437 8.984375 44.257813L1180 801.601562l9.023438 44.765626 8.984374 44.296874 9.023438 43.359376 8.984375 41.992187L1225 1016.25l9.023438 38.125 8.984374 35.664062 9.023438 33.007813 8.984375 30.078125L1270 1180.195312l9.023438 23.945313 8.984374 20.898437 9.023438 17.773438 8.984375 14.882812L1315 1269.804688l9.023438 9.53125 8.984374 7.148437 9.023438 5.078125 8.984375 3.320312 9.023437 1.757813 8.984376.507813 8.984374-.429688 9.023438-1.171875 8.984375-1.640625 9.023437-1.953125 17.96875-4.21875 9.023438-2.070313 8.984375-1.953124 9.023437-1.835938 8.984376-1.757812 8.984374-1.71875 9.023438-1.796876 8.984375-1.953124 9.023437-2.148438 8.984376-2.578125 8.984374-3.046875 9.023438-3.632812 8.984375-4.335938 9.023437-5.078125 8.984376-5.9375 8.984374-6.757813 9.023438-7.65625 8.984375-8.515624 9.023437-9.296876 8.984376-10.078124 8.984374-10.742188 9.023438-11.328125 8.984375-11.796875 9.023437-12.1875 8.984376-12.421875 8.984374-12.539063 9.023438-12.617187 8.984375-12.5 9.023437-12.421875 8.984376-12.226562 8.984374-11.992188 9.023438-11.71875 8.984375-11.484375 9.023437-11.25 8.984376-11.09375 8.984374-10.9375 9.023438-10.859375 8.984375-10.898438 9.023437-11.015624 8.984376-11.171876 8.984374-11.40625 9.023438-11.71875 8.984375-12.109374 9.023437-12.539063 8.984376-12.96875 8.984374-13.4375 9.023438-13.867187 8.984375-14.296876 9.023437-14.648437 8.984376-14.960937 8.984374-15.195313 9.023438-15.3125 8.984375-15.390625 9.023437-15.351562 8.984376-15.195313 8.984374-14.960937 9.023438-14.6875 8.984375-14.296876 9.023437-13.945312 8.984376-13.4375 8.984374-13.007812 9.023438-12.578126 8.984375-12.148437 9.023437-11.757813 8.984376-11.445312 8.984374-11.171875 9.023438-11.015625 8.984375-10.898438 9.023437-10.898437 8.984376-10.9375 8.984374-11.054687 9.023438-11.210938 8.984375-11.484375 9.023437-11.71875"/><path stroke="#b2b2b2" d="M280 1089.804688l8.984375-13.671876 9.023437-14.023437 8.984376-14.375 9.023437-14.609375L325 1018.398438l8.984375-14.765626 9.023437-14.804687 8.984376-14.6875 9.023437-14.492187L370 945.3125l8.984375-14.023438 9.023437-13.75 9.023438-13.4375 8.984375-13.085937L415 878.242188l8.984375-12.460938 9.023437-12.1875 9.023438-11.953125 8.984375-11.71875L460 818.359375l8.984375-11.484375 9.023437-11.445312 9.023438-11.484376 8.984375-11.601562L505 760.625l8.984375-11.953125 9.023437-12.1875 9.023438-12.5 8.984375-12.8125L550 698.046875l8.984375-13.4375 9.023437-13.75 9.023438-14.101563 8.984375-14.335937L595 627.890625l8.984375-14.6875 9.023437-14.765625 9.023438-14.804688 8.984375-14.726562L640 554.335938 648.984375 540l9.023437-14.023438 9.023438-13.632812 8.984375-13.164062L685 486.5625l8.984375-12.03125 9.023437-11.40625 9.023438-10.742188 8.984375-10.039062L730 433.007812l8.984375-8.710937 9.023437-8.007813 9.023438-7.421874 8.984375-6.875L775 395.625l8.984375-5.898438 9.023437-5.585937 9.023438-5.273437 8.984375-5.078126L820 368.828125l8.984375-4.921875 9.023437-4.921875 9.023438-5 8.984375-5.117187L865 343.632812l8.984375-5.390624 9.023437-5.507813 9.023438-5.585937 8.984375-5.664063 8.984375-5.625 9.023438-5.46875 8.984374-5.234375 9.023438-4.84375 8.984375-4.296875L955 292.421875l9.023438-2.65625 8.984374-1.640625 9.023438-.3125 8.984375 1.132812L1000 291.71875l9.023438 4.609375 8.984374 6.601563 9.023438 8.75 8.984375 11.054687L1045 336.171875l9.023438 15.9375 8.984374 18.398437 9.023438 20.9375 8.984375 23.476563L1090 440.898438l9.023438 28.320312 8.984374 30.585938 9.023438 32.734374 8.984375 34.609376L1135 603.476562l9.023438 37.8125 8.984374 38.984376 9.023438 39.921874 8.984375 40.546876L1180 801.601562l9.023438 40.859376 8.984374 40.546874 9.023438 39.921876 8.984375 38.984374L1225 999.726562l9.023438 36.328126 8.984374 34.648437 9.023438 32.695313 8.984375 30.585937L1270 1162.304688l9.023438 25.976562 8.984374 23.476562 9.023438 20.9375 8.984375 18.4375L1315 1267.03125l9.023438 13.4375 8.984374 11.015625 9.023438 8.789063 8.984375 6.601562 9.023437 4.609375 8.984376 2.8125 8.984374 1.09375 9.023438-.3125 8.984375-1.601563 9.023437-2.695312 8.984376-3.59375 8.984374-4.296875 9.023438-4.84375 8.984375-5.195313 9.023437-5.507812 8.984376-5.585938 8.984374-5.664062 9.023438-5.585938 8.984375-5.546874 9.023437-5.390626 8.984376-5.234374 8.984374-5.117188 9.023438-5 8.984375-4.921875 9.023437-4.921875 8.984376-4.960938 8.984374-5.078124 9.023438-5.273438 8.984375-5.546875 9.023437-5.9375 8.984376-6.367187 8.984374-6.835938 9.023438-7.421875 8.984375-8.046875 9.023437-8.671875 8.984376-9.375 8.984374-10.039063 9.023438-10.742187 8.984375-11.367187 9.023437-12.03125 8.984376-12.65625 8.984374-13.125 9.023438-13.632813 8.984375-14.023437 9.023437-14.335938 8.984376-14.609375 8.984374-14.726563 9.023438-14.765624 8.984375-14.765626 9.023437-14.726562 8.984376-14.53125 8.984374-14.335938 9.023438-14.0625 8.984375-13.789062 9.023437-13.4375 8.984376-13.125 8.984374-12.773438 9.023438-12.5 8.984375-12.1875 9.023437-11.953124 8.984376-11.71875 8.984374-11.601563 9.023438-11.523437 8.984375-11.445313 9.023437-11.484375 8.984376-11.5625 8.984374-11.71875 9.023438-11.953125 8.984375-12.148437L1945.039062 725l8.984376-12.773438 8.984374-13.125 9.023438-13.398437 8.984375-13.75 9.023437-14.0625 8.984376-14.296875 8.984374-14.53125 9.023438-14.6875 8.984375-14.765625 9.023437-14.804687 8.984376-14.726563 8.984374-14.609375 9.023438-14.335938 8.984375-14.0625 9.023437-13.671874"/><path stroke="#a5a5a5" d="M280 1080.976562l8.984375-8.867187 9.023437-9.140625 8.984376-9.492188 9.023437-9.882812L325 1033.320312l8.984375-10.703124 9.023437-11.171876 8.984376-11.679687 9.023437-12.148437L370 974.960938l8.984375-13.164063 9.023437-13.632813 9.023438-14.101562 8.984375-14.53125L415 904.609375l8.984375-15.3125 9.023437-15.625 9.023438-15.859375 8.984375-16.09375L460 825.46875l8.984375-16.328125 9.023437-16.367187 9.023438-16.328126 8.984375-16.210937L505 744.140625l8.984375-15.859375 9.023437-15.585938 9.023438-15.273437 8.984375-14.882813L550 668.007812l8.984375-14.0625 9.023437-13.59375 9.023438-13.125 8.984375-12.617187L595 602.5l8.984375-11.601562 9.023437-11.171876 9.023438-10.664062 8.984375-10.273438L640 548.984375l8.984375-9.453125 9.023437-9.140625 9.023438-8.867187 8.984375-8.59375L685 504.492188l8.984375-8.28125 18.046875-16.40625 8.984375-8.203126L730 463.359375l8.984375-8.398437 9.023437-8.476563 9.023438-8.632813 8.984375-8.828124L775 420l8.984375-9.21875 9.023437-9.375 9.023438-9.53125 8.984375-9.6875 17.96875-19.609375 9.023437-9.804687 9.023438-9.6875 8.984375-9.53125L865 324.257812l8.984375-8.90625 9.023437-8.476562 9.023438-7.929688 8.984375-7.226562L910 285.3125l9.023438-5.546875 8.984374-4.492187 9.023438-3.320313 8.984375-2.03125L955 269.21875l9.023438.820312 8.984374 2.382813 9.023438 4.0625 8.984375 5.820313L1000 289.921875l9.023438 9.53125 8.984374 11.445313 9.023438 13.359374 8.984375 15.351563L1045 356.914062l9.023438 19.21875 8.984374 21.171876 9.023438 22.96875 8.984375 24.804687L1090 471.5625l9.023438 28.085938 8.984374 29.570312 9.023438 30.9375 8.984375 32.109375L1135 625.46875l9.023438 34.140625 8.984374 34.84375 9.023438 35.390625 8.984375 35.78125L1180 801.601562l9.023438 35.976563 8.984374 35.78125 9.023438 35.429687 8.984375 34.84375L1225 977.734375l9.023438 33.203125 8.984374 32.148438 9.023438 30.898437 8.984375 29.609375L1270 1131.640625l9.023438 26.484375 8.984374 24.765625 9.023438 23.046875 8.984375 21.132812L1315 1246.289062l9.023438 17.304688 8.984374 15.351562 9.023438 13.398438 8.984375 11.445312 9.023437 9.492188 8.984376 7.65625 8.984374 5.820312 9.023438 4.023438 8.984375 2.421875 9.023437.78125 8.984376-.664063 8.984374-2.070312 9.023438-3.320312 8.984375-4.492188 9.023437-5.507812 8.984376-6.445313 8.984374-7.226563 9.023438-7.890624 8.984375-8.476563 9.023437-8.945313 8.984376-9.257812 8.984374-9.570312 9.023438-9.6875 8.984375-9.804688 9.023437-9.804688 8.984376-9.765624 8.984374-9.6875 9.023438-9.53125 8.984375-9.414063 9.023437-9.21875 8.984376-8.984375 8.984374-8.828125 9.023438-8.671875 8.984375-8.476562 9.023437-8.359376 8.984376-8.28125 8.984374-8.203124 9.023438-8.164063 8.984375-8.242187 9.023437-8.28125 8.984376-8.4375 8.984374-8.59375 9.023438-8.867188 8.984375-9.101562 9.023437-9.453126 8.984376-9.84375 8.984374-10.273437 9.023438-10.664063 8.984375-11.132812 9.023437-11.640625 8.984376-12.109375 8.984374-12.617188 9.023438-13.125 8.984375-13.59375 9.023437-14.0625 8.984376-14.492187 8.984374-14.921875 9.023438-15.273438 8.984375-15.585937 9.023437-15.859375 8.984376-16.054688 8.984374-16.25 9.023438-16.328124 8.984375-16.367188 9.023437-16.328125 8.984376-16.210937 8.984374-16.132813 9.023438-15.859375 8.984375-15.585938 9.023437-15.3125 8.984376-14.960937 8.984374-14.53125 9.023438-14.0625 8.984375-13.632813 9.023437-13.164062 8.984376-12.65625 8.984374-12.1875 9.023438-11.640625 8.984375-11.210937 9.023437-10.703126 8.984376-10.273437 8.984374-9.882813 9.023438-9.453124 8.984375-9.179688 9.023437-8.867188"/><path stroke="#999" d="M280 1051.71875l8.984375-14.179688 9.023437-13.945312 8.984376-13.710938 9.023437-13.476562L325 983.203125l8.984375-12.929687 9.023437-12.65625 8.984376-12.34375 9.023437-12.070313L370 921.445312l8.984375-11.484374 9.023437-11.25 9.023438-10.976563 8.984375-10.78125L415 866.40625l8.984375-10.351562 9.023437-10.195313 9.023438-10.039063 8.984375-9.960937L460 815.976562l8.984375-9.84375 9.023437-9.804687 9.023438-9.84375L505 766.640625l8.984375-10.078125 9.023437-10.234375 9.023438-10.351563 8.984375-10.585937L550 714.648438l8.984375-11.015626 9.023437-11.25 9.023438-11.523437 8.984375-11.835937L595 656.953125l8.984375-12.34375 9.023437-12.695313 9.023438-12.929687 8.984375-13.203125L640 592.265625l8.984375-13.75 9.023437-13.945313 9.023438-14.21875 8.984375-14.335937L685 521.484375l8.984375-14.609375 9.023437-14.6875 9.023438-14.726562 8.984375-14.726563L730 448.085938l8.984375-14.492188 9.023437-14.375 9.023438-14.101562 8.984375-13.828126L775 377.851562l8.984375-13.046874 9.023437-12.578126 9.023438-12.03125 8.984375-11.40625L820 318.085938l8.984375-10 9.023437-9.21875 9.023438-8.320313 8.984375-7.421875L865 276.71875l8.984375-5.390625 9.023437-4.296875 9.023438-3.125 8.984375-1.992188L910 261.171875l9.023438.429687 8.984374 1.875 9.023438 3.125 8.984375 4.492188L955 276.914062l9.023438 7.226563 8.984374 8.59375 9.023438 9.960937 8.984375 11.367188L1000 326.757812l9.023438 14.101563 8.984374 15.351563 9.023438 16.679687 8.984375 17.96875L1045 410.039062l9.023438 20.351563 8.984374 21.445313 9.023438 22.539062 8.984375 23.554688L1090 522.382812l9.023438 25.351563 8.984374 26.171875 9.023438 26.835938 8.984375 27.5L1135 656.289062l9.023438 28.515626 8.984374 28.867187 9.023438 29.140625 8.984375 29.335938L1180 801.601562l9.023438 29.453126 8.984374 29.335937 9.023438 29.179687 8.984375 28.867188L1225 946.914062l9.023438 28.046876 8.984374 27.5 9.023438 26.875 8.984375 26.132812L1270 1080.820312l9.023438 24.492188 8.984374 23.515625 9.023438 22.539063 8.984375 21.484374L1315 1193.203125l9.023438 19.140625 8.984374 17.96875 9.023438 16.679688 8.984375 15.390624 9.023437 14.0625 8.984376 12.695313 8.984374 11.367187 9.023438 10 8.984375 8.554688 9.023437 7.226562 8.984376 5.859376 8.984374 4.453124 9.023438 3.164063 8.984375 1.796875 9.023437.507812 8.984376-.78125 8.984374-1.953124 9.023438-3.164063 8.984375-4.296875 9.023437-5.390625 8.984376-6.40625 8.984374-7.421875 9.023438-8.320312 8.984375-9.179688 9.023437-10 8.984376-10.742188 8.984374-11.40625 9.023438-12.03125 8.984375-12.539062 9.023437-13.046875 8.984376-13.476563 8.984374-13.828124 9.023438-14.101563 8.984375-14.335937 9.023437-14.53125 8.984376-14.648438 8.984374-14.726562 9.023438-14.6875 8.984375-14.726563 9.023437-14.609375 8.984376-14.492188 8.984374-14.375 9.023438-14.179687 8.984375-13.984375 9.023437-13.75 8.984376-13.476562 8.984374-13.242188 9.023438-12.929688 8.984375-12.65625 9.023437-12.382812 8.984376-12.070312 8.984374-11.796876 9.023438-11.523437 8.984375-11.25 9.023437-11.015625 8.984376-10.78125 8.984374-10.546875 9.023438-10.390625 8.984375-10.234375 9.023437-10.039063 8.984376-9.960937 8.984374-9.882813 9.023438-9.84375 8.984375-9.804687 9.023437-9.84375 8.984376-9.882813 8.984374-9.960937 9.023438-10.078125 8.984375-10.195312 9.023437-10.351563 8.984376-10.546875 8.984374-10.742188 9.023438-10.976562 8.984375-11.25 9.023437-11.484375L1999.023438 670l8.984374-12.070312 9.023438-12.34375 8.984375-12.65625 9.023437-12.890626 8.984376-13.203124 8.984374-13.476563 9.023438-13.710937 8.984375-13.984376 9.023437-14.179687"/><path stroke="#8c8c8c" d="M280 1173.125l8.984375-13.125 9.023437-13.671875 8.984376-14.296875 9.023437-14.765625L325 1101.992188l8.984375-15.78125 9.023437-16.25 8.984376-16.601563 9.023437-17.070313L370 1018.867188l8.984375-17.8125 9.023437-18.085938 9.023438-18.398438 8.984375-18.632812L415 927.070312l8.984375-19.101562 9.023437-19.257812 9.023438-19.375 8.984375-19.492188L460 830.273438l8.984375-19.648438 18.046875-39.21875 8.984375-19.570312L505 732.34375l8.984375-19.414062 9.023437-19.21875 9.023438-19.0625 8.984375-18.867188L550 637.148438l8.984375-18.359376 9.023437-18.085937 9.023438-17.734375 8.984375-17.421875L595 548.554688l8.984375-16.640626 9.023437-16.171874L622.03125 500l8.984375-15.234375L640 470l8.984375-14.179688 9.023437-13.671874 9.023438-13.085938 8.984375-12.5L685 404.6875l8.984375-11.210938 9.023437-10.585937 9.023438-9.921875 8.984375-9.21875L730 355.195312l8.984375-7.773437 9.023437-7.109375 9.023438-6.328125 8.984375-5.585937L775 323.515625l8.984375-4.0625 9.023437-3.320313 9.023438-2.5 8.984375-1.757812L820 310.898438l8.984375-.195313 9.023437.625 9.023438 1.367187 8.984375 2.1875L865 317.851562l8.984375 3.710938 9.023437 4.492188 9.023438 5.234374 8.984375 6.015626L910 344.0625l9.023438 7.460938 8.984374 8.203124 9.023438 8.90625 8.984375 9.609376L955 388.515625l9.023438 10.9375 8.984374 11.601563 9.023438 12.1875 8.984375 12.8125L1000 449.453125l9.023438 13.945313 8.984374 14.492187 9.023438 15.039063 8.984375 15.507812L1045 524.414062l9.023438 16.445313 8.984374 16.835937 9.023438 17.226563L1081.015625 592.5 1090 610.429688l9.023438 18.242187 8.984374 18.515625 9.023438 18.75 8.984375 18.984375L1135 704.0625l9.023438 19.335938 8.984374 19.453124 9.023438 19.53125 8.984375 19.570313L1180 801.601562l9.023438 19.648438 8.984374 19.609375 9.023438 19.53125 8.984375 19.414063L1225 899.140625l9.023438 19.140625 8.984374 18.984375 9.023438 18.75 8.984375 18.554687L1270 992.773438l9.023438 17.929687 8.984374 17.578125 9.023438 17.265625 8.984375 16.835937L1315 1078.789062l9.023438 15.976563 8.984374 15.507813 9.023438 15.039062 8.984375 14.492188 9.023437 13.984374 8.984376 13.359376 8.984374 12.8125 9.023438 12.226562 8.984375 11.5625 9.023437 10.9375 8.984376 10.273438 8.984374 9.609374 9.023438 8.90625 8.984375 8.203126 9.023437 7.460937 8.984376 6.757813 8.984374 6.015624 9.023438 5.273438 8.984375 4.453125 9.023437 3.75 8.984376 2.929687 8.984374 2.1875 9.023438 1.367188 8.984375.625 9.023437-.195312 8.984376-.9375 8.984374-1.757813 9.023438-2.539063 8.984375-3.320312 9.023437-4.0625 8.984376-4.84375 8.984374-5.625 9.023438-6.328125 8.984375-7.070313 9.023437-7.8125 8.984376-8.554687 8.984374-9.21875 9.023438-9.921875 8.984375-10.585938 9.023437-11.210937 8.984376-11.875 8.984374-12.5 9.023438-13.085937 8.984375-13.632813 9.023437-14.21875 8.984376-14.726563 8.984374-15.273437 9.023438-15.742187 8.984375-16.171876 9.023437-16.601562 8.984376-17.03125 8.984374-17.421875L1792.03125 1002.5l8.984375-18.085938 9.023437-18.359374 8.984376-18.632813 8.984374-18.867187 9.023438-19.0625 8.984375-19.21875 9.023437-19.375 8.984376-19.492188 8.984374-19.570312 9.023438-19.609376 8.984375-19.648437 9.023437-19.648437 17.96875-39.0625 9.023438-19.375 8.984375-19.257813 9.023437-19.101563 8.984376-18.867187 8.984374-18.632813 9.023438-18.398437 8.984375-18.085937 9.023437-17.773438 8.984376-17.421875 8.984374-17.070313 9.023438-16.640624 8.984375-16.25 9.023437-15.742188 8.984376-15.3125 8.984374-14.765625 9.023438-14.257813 8.984375-13.710937 9.023437-13.125"/></g><path stroke-width="7.9701" stroke="#000" d="M280 1080.46875l8.984375-11.71875 9.023437-12.070312 8.984376-12.226563 9.023437-12.1875L325 1019.6875l8.984375-12.5 9.023437-12.734375 8.984376-12.929687 9.023437-12.8125 17.96875-26.25 9.023437-13.164063 9.023438-13.398437 8.984375-13.242188L415 889.179688l8.984375-13.515626 9.023437-13.398437 9.023438-13.671875 8.984375-13.515625L460 821.484375l8.984375-13.671875 9.023437-13.476562L487.03125 780.625 505 753.515625l8.984375-13.632813 9.023437-13.398437 9.023438-13.554687 8.984375-13.398438L550 686.25l8.984375-13.398438 18.046875-26.25 8.984375-13.125L595 620.664062l8.984375-12.929687 9.023437-12.695313 9.023438-12.5 8.984375-12.578124L640 557.773438l8.984375-12.226563 9.023437-11.992187 9.023438-11.71875 8.984375-11.757813L685 498.710938l8.984375-11.25 9.023437-11.132813 9.023438-10.664063 8.984375-10.742187L730 444.648438l8.984375-10.039063 9.023437-9.960937 9.023438-9.414063 8.984375-9.335937L775 396.875l8.984375-8.515625 9.023437-8.515625 9.023438-7.851562 8.984375-7.695313L820 356.953125l8.984375-6.71875 9.023437-6.679687 9.023438-6.015626 8.984375-5.585937L865 326.5625l8.984375-4.53125 9.023437-4.375 9.023438-3.789062 8.984375-3.046876L910 307.929688l9.023438-1.914063 8.984374-1.523437 9.023438-1.015626 8.984375.039063L955 303.75l9.023438 1.289062 8.984374 2.03125 9.023438 2.5 8.984375 3.867188L1000 317.695312l9.023438 5.351563 8.984374 6.601563 9.023438 7.03125 8.984375 8.867187L1045 355.15625l9.023438 10.78125 8.984374 12.773438 9.023438 13.320312 8.984375 15.703125L1090 425.078125l9.023438 18.554687 8.984374 22.03125 9.023438 23.164063 8.984375 26.5625L1135 545.898438l9.023438 32.382812 8.984374 40.273438 9.023438 44.257812 8.984375 55.195312L1180 801.601562l9.023438 83.59375 8.984374 55.195313 9.023438 44.257813 8.984375 40.273437L1225 1057.34375l9.023438 30.429688 8.984374 26.640624 9.023438 23.125 8.984375 22.03125L1270 1178.164062l9.023438 17.304688 8.984374 15.703125 9.023438 13.320313 8.984375 12.8125L1315 1248.085938l9.023438 9.609374 8.984374 8.828126 9.023438 7.03125 8.984375 6.601562 9.023437 5.390625 8.984376 4.257813 8.984374 3.867187 9.023438 2.460937 8.984375 2.03125 9.023437 1.289063 8.984376.273437h8.984374l9.023438-1.015624 8.984375-1.484376 9.023437-1.953124 8.984376-2.890626 8.984374-3.046874 9.023438-3.789063 8.984375-4.375 9.023437-4.53125 8.984376-5.390625 8.984374-5.585938 9.023438-6.015624 8.984375-6.640626 9.023437-6.71875 8.984376-7.382812 8.984374-7.695312 9.023438-7.851563 8.984375-8.476563 9.023437-8.554687 8.984376-8.984375 8.984374-9.335938 9.023438-9.414062 8.984375-10 9.023437-10 8.984376-10.3125 8.984374-10.703125 9.023438-10.703125 8.984375-11.09375 9.023437-11.289062 8.984376-11.328126 8.984374-11.796874 9.023438-11.679688 8.984375-12.03125 9.023437-12.226562 8.984376-12.148438 8.984374-12.578125 9.023438-12.539063 8.984375-12.65625 9.023437-12.929687 8.984376-12.8125 8.984374-13.125 9.023438-13.125 8.984375-13.125 9.023437-13.4375 8.984376-13.242187 8.984374-13.4375 9.023438-13.554688 8.984375-13.359375 9.023437-13.671875 8.984376-13.515625 8.984374-13.554687 9.023438-13.710938 8.984375-13.515625 9.023437-13.671875 8.984376-13.59375 8.984374-13.515625 9.023438-13.671875 8.984375-13.398438 9.023437-13.515624 8.984376-13.4375 8.984374-13.28125 9.023438-13.398438 8.984375-13.164062 9.023437-13.085938 8.984376-13.164062 8.984374-12.8125L2017.03125 608.75l8.984375-12.695312 9.023437-12.539063 8.984376-12.578125 8.984374-12.1875 9.023438-12.226562 8.984375-12.03125 9.023437-11.71875"/><path stroke-width="3.985" stroke="#000" d="M473.125 261.601562h1413.75"/></g><path d="M47.0625 110.8516h.6016v6h-.6016zm0 0"/><path d="M82.4063 110.8516h.6016v6h-.6016zm0 0"/><path d="M117.75 110.8516h.6016v6h-.6016zm0 0"/><path d="M153.0938 110.8516h.6016v6h-.6016zm0 0"/><path d="M188.4375 110.8516h.6016v6h-.6016zm0 0"/><use x="40.7141" y="123.6109" href="#a"/><use x="47.434" y="123.6109" href="#c"/><use x="75.6977" y="126.2511" href="#a"/><use x="83.6176" y="122.291" href="#d"/><path d="M83.6055 123.3828h4.9219v.6016h-4.9219zm0 0"/><use x="84.218" y="129.6109" href="#e"/><use x="115.4817" y="125.6512" href="#b"/><use x="150.945" y="122.291" href="#d"/><path d="M150.9336 123.3828h4.9219v.6016h-4.9219zm0 0"/><use x="151.545" y="129.6109" href="#e"/><use x="185.3286" y="123.6109" href="#c"/><g class="a"><path d="M280 261.601562h1800.039062"/><path d="M280 310.703125v981.835937"/></g><path d="M21.9883 105.582h6v.6016h-6zm0 0"/><path d="M21.9883 81.0352h6v.6016h-6zm0 0"/><path d="M21.9883 56.4922h6v.6016h-6zm0 0"/><path d="M21.9883 31.9453h6v.6016h-6zm0 0"/><path d="M21.9883 7.3984h6V8h-6zm0 0"/><use x="8.3891" y="109.4109" href="#a"/><use x="15.109" y="109.4109" href="#f"/><use x=".5891" y="84.7449" href="#a"/><use x="7.309" y="84.7449" href="#b"/><use x="12.4692" y="84.7449" href="#h"/><use x="15.109" y="84.7449" href="#g"/><use x="14.9891" y="60.1988" href="#b"/><use x="7.1891" y="35.6527" href="#b"/><use x="12.3492" y="35.6527" href="#h"/><use x="14.9891" y="35.6527" href="#g"/><use x="14.9891" y="11.2269" href="#f"/><path d="M280 261.601562v49.101563" class="a"/><style>.a{fill:none;stroke:#000;stroke-miterlimit:10;stroke-width:3.985;transform:matrix(.1,0,0,-.1,0,137)}</style></svg>