<svg xmlns="http://www.w3.org/2000/svg" width="290pt" height="73pt" viewBox="0 0 290 73"><defs><clipPath id="a"><path d="M126 0h2v73h-2zm0 0"/></clipPath><clipPath id="b"><path d="M36 0h2v73h-2zm0 0"/></clipPath><clipPath id="c"><path d="M144 0h2v73h-2zm0 0"/></clipPath><clipPath id="d"><path d="M252 0h2v73h-2zm0 0"/></clipPath><clipPath id="e"><path d="M0 0h290v73H0z"/></clipPath><g id="f" clip-path="url(#e)"><path d="M13.003437 507.99h720.000001" class="c"/><g clip-path="url(#a)"><path d="M1273.003438 732.99v-720" class="c"/></g><g fill-rule="evenodd" fill-opacity="1"><path fill="#ddd" d="M248.2773 72.25h9v-72h-9zm0 0"/><path fill="#777" d="M216.7773 72.25h31.5v-72h-31.5zm0 0"/><path fill="#aaa" d="M257.2773 72.25h31.5v-72h-31.5zm0 0"/></g><path d="M13.003437 12.99h720.000001v720H13.003437zm0 0" class="a"/><g clip-path="url(#b)"><path d="M373.003437 732.99v-720" class="b"/></g><path d="M1093.003438 12.99h720v720h-720zm0 0" class="a"/><g clip-path="url(#c)"><path d="M1453.003438 732.99v-720" class="b"/></g><g class="a"><path d="M2173.003438 12.99h720v720h-720zm0 0"/><g stroke-dasharray="36"><path d="M2488.003438 732.99v-720"/><path d="M2578.003438 732.99v-720"/></g></g><g clip-path="url(#d)"><path d="M2533.003438 732.99v-720" class="b"/></g></g></defs><use href="#f"/><style>.a{fill:none;stroke:#000;stroke-linecap:butt;stroke-linejoin:miter;stroke-miterlimit:10;stroke-opacity:1;stroke-width:4.5;transform:matrix(.1,0,0,-.1,-.523,73.549)}.b{fill:none;stroke:#000;stroke-dasharray:9,9;stroke-dashoffset:9;stroke-linecap:butt;stroke-linejoin:miter;stroke-miterlimit:10;stroke-opacity:1;stroke-width:9;transform:matrix(.1,0,0,-.1,-.523,73.549)}.c{fill:none;stroke:#777;stroke-linecap:butt;stroke-linejoin:miter;stroke-miterlimit:10;stroke-opacity:1;stroke-width:9;transform:matrix(.1,0,0,-.1,-.523,73.549)}</style></svg>