<svg xmlns="http://www.w3.org/2000/svg" width="160pt" height="99pt" viewBox="0 0 160 99"><defs><clipPath id="d"><path d="M133 2h21.0977v23H133zm0 0"/></clipPath><clipPath id="e"><path d="M7 83h22v16H7zm0 0"/></clipPath><clipPath id="f"><path d="M133 29h21.0977v23H133zm0 0"/></clipPath><clipPath id="g"><path d="M133 56h21.0977v23H133zm0 0"/></clipPath><clipPath id="h"><path d="M133 83h21.0977v16H133zm0 0"/></clipPath><clipPath id="i"><path d="M26 13h109v28H26zm0 0"/></clipPath><clipPath id="j"><use href="#a" class="c"/></clipPath><clipPath id="k"><path d="M20 6h122v41H20zm0 0"/></clipPath><clipPath id="l"><use href="#a" class="c"/></clipPath><clipPath id="m"><path d="M26 40h109v55H26zm0 0"/></clipPath><clipPath id="n"><use href="#b" class="c"/></clipPath><clipPath id="o"><path d="M20 33h122v66H20zm0 0"/></clipPath><clipPath id="p"><use href="#b" class="c"/></clipPath><clipPath id="q"><path d="M120 82h21v17h-21zm0 0"/></clipPath><clipPath id="r"><path d="M26 40h109v55H26zm0 0"/></clipPath><clipPath id="s"><use href="#c" class="c"/></clipPath><clipPath id="t"><path d="M20 33h122v66H20zm0 0"/></clipPath><clipPath id="u"><use href="#c" class="c"/></clipPath><clipPath id="v"><path d="M31 67h105v1H31zm0 0"/></clipPath><clipPath id="w"><path d="M-.9023-.44922v103h155v-103zm127.6797 69.5h9.1211v-3.60156h-9.1211l7.1992 1.80078zm0 0" class="c"/></clipPath><clipPath id="x"><path d="M0 0h155v99H0z"/></clipPath><g id="y" clip-path="url(#x)"><path d="M22.4961 13.25c0 2.484375-2.011719 4.5-4.5 4.5-2.484375 0-4.5-2.015625-4.5-4.5s2.015625-4.5 4.5-4.5c2.488281 0 4.5 2.015625 4.5 4.5" class="b"/><path d="M233.980937 892.99c0-24.84375-20.117187-45-45-45-24.84375 0-45 20.15625-45 45s20.15625 45 45 45c24.882813 0 45-20.15625 45-45zm0 0" class="a"/><path d="M148.4961 13.25c0 2.484375-2.011719 4.5-4.5 4.5-2.484375 0-4.5-2.015625-4.5-4.5s2.015625-4.5 4.5-4.5c2.488281 0 4.5 2.015625 4.5 4.5" class="b"/><g clip-path="url(#d)"><path d="M1493.980937 892.99c0-24.84375-20.117187-45-45-45-24.84375 0-45 20.15625-45 45s20.15625 45 45 45c24.882813 0 45-20.15625 45-45zm0 0" class="a"/></g><path d="M22.4961 40.25c0 2.484375-2.011719 4.5-4.5 4.5-2.484375 0-4.5-2.015625-4.5-4.5s2.015625-4.5 4.5-4.5c2.488281 0 4.5 2.015625 4.5 4.5" class="b"/><path d="M233.980937 622.99c0-24.84375-20.117187-45-45-45-24.84375 0-45 20.15625-45 45s20.15625 45 45 45c24.882813 0 45-20.15625 45-45zm0 0" class="a"/><path d="M22.4961 94.25c0 2.484375-2.011719 4.5-4.5 4.5-2.484375 0-4.5-2.015625-4.5-4.5s2.015625-4.5 4.5-4.5c2.488281 0 4.5 2.015625 4.5 4.5" class="b"/><g clip-path="url(#e)"><path d="M233.980937 82.99c0-24.84375-20.117187-45-45-45-24.84375 0-45 20.15625-45 45s20.15625 45 45 45c24.882813 0 45-20.15625 45-45zm0 0" class="a"/></g><path d="M22.4961 67.25c0 2.484375-2.011719 4.5-4.5 4.5-2.484375 0-4.5-2.015625-4.5-4.5s2.015625-4.5 4.5-4.5c2.488281 0 4.5 2.015625 4.5 4.5" class="b"/><path d="M233.980937 352.99c0-24.84375-20.117187-45-45-45-24.84375 0-45 20.15625-45 45s20.15625 45 45 45c24.882813 0 45-20.15625 45-45zm0 0" class="a"/><path d="M148.4961 40.25c0 2.484375-2.011719 4.5-4.5 4.5-2.484375 0-4.5-2.015625-4.5-4.5s2.015625-4.5 4.5-4.5c2.488281 0 4.5 2.015625 4.5 4.5" class="b"/><g clip-path="url(#f)"><path d="M1493.980937 622.99c0-24.84375-20.117187-45-45-45-24.84375 0-45 20.15625-45 45s20.15625 45 45 45c24.882813 0 45-20.15625 45-45zm0 0" class="a"/></g><path d="M148.4961 67.25c0 2.484375-2.011719 4.5-4.5 4.5-2.484375 0-4.5-2.015625-4.5-4.5s2.015625-4.5 4.5-4.5c2.488281 0 4.5 2.015625 4.5 4.5" class="b"/><g clip-path="url(#g)"><path d="M1493.980937 352.99c0-24.84375-20.117187-45-45-45-24.84375 0-45 20.15625-45 45s20.15625 45 45 45c24.882813 0 45-20.15625 45-45zm0 0" class="a"/></g><path d="M148.4961 94.25c0 2.484375-2.011719 4.5-4.5 4.5-2.484375 0-4.5-2.015625-4.5-4.5s2.015625-4.5 4.5-4.5c2.488281 0 4.5 2.015625 4.5 4.5" class="b"/><g clip-path="url(#h)"><path d="M1493.980937 82.99c0-24.84375-20.117187-45-45-45-24.84375 0-45 20.15625-45 45s20.15625 45 45 45c24.882813 0 45-20.15625 45-45zm0 0" class="a"/></g><g clip-path="url(#i)"><path d="M26.9961 13.25l108 27" style="fill-rule:evenodd;fill:#000;fill-opacity:1;clip-path:url(#j)"/></g><g clip-path="url(#k)"><g clip-path="url(#l)"><path d="M278.980937 892.99l1080-270" class="a"/></g></g><path d="M1274.996562 625.411875h74.414063L1283.395 660.8025" class="a"/><g clip-path="url(#m)"><path d="M26.9961 40.25l108 54" style="fill-rule:evenodd;fill:#000;fill-opacity:1;clip-path:url(#n)"/></g><g clip-path="url(#o)"><g clip-path="url(#p)"><path d="M278.980937 622.99l1080-540" class="a"/></g></g><g clip-path="url(#q)"><path d="M1277.418437 103.380625l72.578125-16.171875-56.40625 48.59375" class="a"/></g><g clip-path="url(#r)"><path d="M26.9961 94.25l108-54" style="fill-rule:evenodd;fill:#000;fill-opacity:1;clip-path:url(#s)"/></g><g clip-path="url(#t)"><g clip-path="url(#u)"><path d="M278.980937 82.99l1080 540" class="a"/></g></g><path d="M1293.590312 570.8025l56.40625 48.007813-72.578125-15.625" class="a"/><g clip-path="url(#v)"><g clip-path="url(#w)"><path d="M323.980937 352.99h1035" class="a"/></g></g><path d="M1276.793437 334.982188 1348.785625 352.99l-71.992188 18.007813" class="a"/></g><path d="M5.6875-1.1875l-.1406-.125-.3281.32813c-.375.390625-.515625.5-.625.5-.09375 0-.171875-.078125-.171875-.15625 0-.25.5-2.296875 1.0625-4.34375.03125-.125.046875-.140625.078125-.25l-.0937-.03125L4.75-5.1875l-.0469.03125-.125.57813c-.09375-.4375-.4375-.6875-.953125-.6875C2.031225-5.26562.2031-3.093745.2031-1.187495c0 .828125.453125 1.3125 1.21875 1.3125.84375 0 1.34375-.390625 2.40625-1.875-.25.984375-.28125 1.078125-.28125 1.375 0 .34375.140625.5.484375.5.46875 0 .765625-.234375 1.65625-1.3125zM4.3594-4.28125c0 1-.609375 2.421875-1.421875 3.296875-.28125.328125-.6875.53125-1.03125.53125-.4375 0-.703125-.328125-.703125-.890625 0-.640625.421875-1.8125.921875-2.5625C2.6094-4.609375 3.14065-5.015625 3.64065-5.015625c.015625 0 .03125 0 .046875 0 .40625.03125.671875.3125.671875.734375zm0 0" id="z"/><path d="M5.6563-3.84375c0-.828125-.59375-1.421875-1.390625-1.421875-.828125 0-1.453125.484375-2.3125 1.796875l1.25-4.64062-.0625-.04687c-.59375.09375-1.03125.171875-1.828125.265625v.20313c.703125.03125.78125.0625.78125.328125 0 .109375-.03125.234375-.109375.515625l-.0625.21875-.0156.09375-1.625 5.98438V-.5c0 .265625.90625.625 1.578125.625 1.8125 0 3.796875-2.078125 3.796875-3.96875zm-1.0156.1875c0 .78125-.59375 2.0625-1.3125 2.8125-.453125.453125-.96875.703125-1.46875.703125-.375 0-.5625-.140625-.5625-.40625 0-.71875.359375-1.875.859375-2.765625.53125-.921875 1.078125-1.375 1.640625-1.375.53125 0 .84375.390625.84375 1.03125zm0 0" id="A"/><path d="M4.375-1.14062l-.1875-.125c-.65625.703125-1.125.96875-1.71875.96875-.671875 0-1.078125-.5-1.078125-1.359375 0-1.015625.421875-2.078125 1.078125-2.796875.359375-.359375.828125-.5625 1.3125-.5625.265625 0 .4375.09375.4375.234375 0 .0625-.015625.125-.078125.234375-.078125.140625-.09375.21875-.09375.34375 0 .28125.171875.453125.453125.453125.34375 0 .578125-.234375.578125-.546875 0-.5625-.53125-.96875-1.25-.96875-1.796875 0-3.46875 1.734375-3.46875 3.609375C.359375-.53125 1 .125 2.109375.125c.90625 0 1.53125-.359375 2.265625-1.265625zm0 0" id="B"/><path d="M5.6719-1.20312l-.1406-.125c-.65625.75-.78125.84375-.984375.84375-.109375 0-.203125-.09375-.203125-.234375 0-.1875.359375-1.59375.765625-2.9375l1.1875-4.45312-.0625-.04687c-.625.125-1.0625.203125-1.828125.265625v.20313c.65625.03125.75.0625.75.3125 0 .171875-.015625.203125-.1875.84375L4.4532-4.5781c-.109375-.5-.3125-.6875-.78125-.6875-1.5625 0-3.5 2.234375-3.5 4.03125C.171875-.375.65625.125 1.4375.125c.8125 0 1.328125-.375 2.140625-1.578125C3.453125-.84375 3.4375-.65625 3.4375-.375c0 .3125.1875.53125.5.53125.5 0 1.125-.484375 1.734375-1.359375zM4.25-4.3125c0 1.8125-1.234375 3.875-2.34375 3.875-.40625 0-.6875-.3125-.6875-.796875 0-.984375.59375-2.375 1.390625-3.21875C2.921875-4.78125 3.328125-5 3.671875-5c.015625 0 .03125 0 .046875 0 .359375.03125.53125.25.53125.6875zm0 0" id="C"/><path d="M5.0625-7.32812c0-.4375-.4375-.78125-1.015625-.78125s-1.03125.25-1.46875.78125c-.359375.484375-.625 1.046875-.96875 2.21875H.5l-.0781.375H1.5L.4375.28125c-.265625 1.296875-.65625 1.9375-1.15625 1.9375-.140625 0-.234375-.078125-.234375-.1875 0-.046875.015625-.078125.046875-.125.046875-.078125.0625-.125.0625-.203125 0-.25-.21875-.453125-.46875-.453125s-.4375.21875-.4375.5c0 .40625.40625.71875.9375.71875 1.0625 0 1.890625-1.171875 2.390625-3.375L2.4375-4.73437h1.2969l.0781-.375H2.5156C2.875-7 3.3125-7.84375 3.984375-7.84375c.15625 0 .265625.0625.265625.15625 0 0-.015625.0625-.046875.109375-.0625.09375-.078125.15625-.078125.25 0 .28125.171875.484375.4375.484375.28125 0 .5-.21875.5-.484375zm0 0" id="D"/><path d="M4.7031 0v-.17187c-.9375-.015625-1.125-.140625-1.125-.71875V-8.0625l-.0937-.01562L1.3281-7v.17188c.140625-.0625.28125-.109375.328125-.125.203125-.09375.40625-.140625.53125-.140625.25 0 .359375.1875.359375.5625v5.42188c0 .390625-.09375.671875-.28125.78125-.1875.09375-.359375.140625-.859375.15625V0zm0 0" id="E"/><path d="M5.6719-1.64062l-.1562-.0625c-.4375.6875-.59375.796875-1.125.796875H1.5313l2-2.10937C4.609375-4.125 5.0625-5.03125 5.0625-5.96875c0-1.1875-.96875-2.109375-2.203125-2.109375-.65625 0-1.28125.265625-1.71875.734375C.75-6.9375.578125-6.546875.375-5.703125l.25.0625c.46875-1.171875.90625-1.5625 1.734375-1.5625 1 0 1.6875.6875 1.6875 1.6875 0 .9375-.5625 2.046875-1.5625 3.109375l-2.125 2.26563V0h4.6563zm0 0" id="F"/><path d="M5.1563-2.625c0-.609375-.1875-1.171875-.53125-1.53125-.234375-.265625-.46875-.40625-.984375-.640625.8125-.5625 1.109375-1 1.109375-1.640625 0-.96875-.75-1.640625-1.859375-1.640625-.59375 0-1.125.203125-1.546875.578125-.359375.328125-.546875.640625-.8125 1.359375l.1875.04688C1.203125-6.96875 1.75-7.359375 2.5-7.359375c.78125 0 1.3125.515625 1.3125 1.28125 0 .421875-.171875.859375-.484375 1.15625-.359375.359375-.6875.53125-1.5.828125v.15625c.703125 0 .984375.015625 1.265625.125.75.265625 1.203125.9375 1.203125 1.765625 0 1-.671875 1.78125-1.5625 1.78125-.3125 0-.5625-.078125-1-.375C1.375-.84375 1.171875-.9375.96875-.9375c-.28125 0-.453125.171875-.453125.421875 0 .421875.515625.6875 1.34375.6875.921875 0 1.875-.3125 2.4375-.8125C4.859375-1.125 5.15625-1.8125 5.15625-2.625zm0 0" id="G"/><path d="M5.6406-2v-.76562H4.4219v-5.3125h-.5312l-3.75 5.3125V-2H3.5v2h.9219v-2zm-2.1562-.76562H.625l2.8594-4.09375zm0 0" id="H"/><path id="a" d="M-.9023-.44922v103h155v-103zm127.5 40.45703 8.8203 2.16016.8398-3.48047-8.8203-2.21875 6.6016 3.53906zm0 0"/><path id="b" d="M-.9023-.44922v103h155v-103zm127.7422 92.66016 8.1563 4.01953 1.5625-3.24219-8.1016-4.01953 5.6406 4.85938zm0 0"/><path id="c" d="M-.9023-.44922v103h155v-103zM128.457 45.46875l8.1016-4.01953-1.5625-3.23828-8.1562 4.01953 7.2578-1.5625zm0 0"/></defs><use href="#y"/><use x="153.157" y="17.707" href="#z"/><use x="-.0011" y="17.707" href="#E"/><use x="-.002" y="44.707" href="#F"/><use x="-.002" y="71.708" href="#G"/><use x="-.002" y="98.708" href="#H"/><use x="153.289" y="44.707" href="#A"/><use x="153.133" y="71.708" href="#B"/><use x="153.301" y="98.708" href="#C"/><use x="78.58" y="8.706" href="#D"/><style>.a{fill:none;stroke:#000;stroke-linecap:butt;stroke-linejoin:miter;stroke-miterlimit:10;stroke-opacity:1;stroke-width:4.5;transform:matrix(.1,0,0,-.1,-.902,102.549)}.b{fill:#000;fill-opacity:1;fill-rule:evenodd}.c{clip-rule:evenodd}</style></svg>