<svg xmlns="http://www.w3.org/2000/svg" width="440pt" height="161pt" viewBox="0 0 440 161"><defs><path d="M5.625.0313v-.3594l-.4687-.0156c-.28125-.015625-.328125-.109375-.328125-.703125v-2.1875c0-1.734375-.5-2.375-1.890625-2.375-.515625 0-.984375.140625-1.4375.40625L.8594-4.8125v.7656l.3125.0938.1563-.375c.234375-.5625.375-.640625.921875-.640625 1.125 0 1.59375.4375 1.625 1.53125l-1.1875.2031c-1.625.3125-2.3125.875-2.3125 1.90625 0 .9375.5625 1.46875 1.515625 1.46875.21875 0 .421875-.03125.5-.09375L3.875-.9844 3.8125.0313C4.125.015625 4.4375 0 4.75 0c.296875 0 .578125.015625.875.03125zm-1.75-1.5156c-.34375.5-1.109375.953125-1.5625.953125-.484375 0-.90625-.453125-.90625-.96875 0-.4375.25-.859375.609375-1.078125.296875-.1875.953125-.34375 1.859375-.484375zm0 0" id="l"/><path d="M4.4688-5.4687c-.125-.09375-.34375-.140625-.5625-.140625-.359375 0-.734375.1875-.984375.5L2.25-4.3281v-1.2344l-.1094-.0469c-.609375.25-1.234375.421875-1.859375.5v.3281h.4375c.46875 0 .53125.078125.53125.875v2.6875c0 .75-.046875.84375-.453125.859375L.25-.3281v.3594C.734375.015625 1.234375 0 1.71875 0c.578125 0 1.140625.015625 1.71875.03125v-.3594l-.625-.0312C2.265625-.390625 2.25-.4375 2.25-1.21875v-2.0625c0-.71875.46875-1.3125 1.0625-1.3125.359375 0 .609375.171875.796875.546875h.25zm0 0" id="n"/><path d="M5.3594-3.3281c0-1.375-.890625-2.28125-2.234375-2.28125-.4375 0-.953125.15625-1.4375.453125C.703125-4.609375.3125-3.859375.3125-2.625c0 .765625.171875 1.40625.5 1.859375.46875.640625 1.28125 1 2.171875 1 .453125 0 .890625-.09375 1.375-.3125.328125-.125.578125-.28125.625-.359375l.2344-.4062-.1562-.1094c-.765625.453125-1.03125.5625-1.546875.5625-.78125 0-1.421875-.34375-1.765625-.9375-.218825-.39065-.29695-.7344-.3282-1.4219h1.75C4-2.75 4.5-2.78125 5.328125-2.921875c.015625-.15625.03125-.265625.03125-.40625zm-1.0625.1406-1.3437.0313c-.546875 0-.859375-.015625-1.5-.078125 0-.5625.046875-.8125.203125-1.125.25-.53125.765625-.859375 1.328125-.859375.390625 0 .703125.15625.921875.484375.265625.390625.390625.734375.390625 1.546875zm0 0" id="o"/><path d="M.7813-4.1406h6.4375v-.7187H.7813zm0 2.5313h6.4375v-.7032H.7813zm0 0" id="h"/><path d="M7.9063-.0781c-.71875-1.3125-1.296875-2.765625-1.890625-4.15625-.59375-1.328125-1.21875-2.703125-1.6875-4.09375H4.0313C3.4375-6.84375 2.765625-5.375 2.109375-3.890625 1.53125-2.625.984375-1.296875.328125-.078125l.0781.125C1.671875 0 2.9375 0 4.21875 0c1.203125 0 2.421875.015625 3.625.046875zM6.4219-.4375H1.25c.796875-2.125 1.640625-4.21875 2.546875-6.296875h.0938c.890625 2.0625 1.75 4.171875 2.53125 6.296875zm0 0" id="m"/><path d="M4.9375-8.6094c-.203125-.09375-.546875-.15625-.84375-.15625-.125 0-.3125.046875-.40625.09375-.296875.125-1.265625.859375-1.546875 1.140625-.265625.265625-.40625.625-.53125 1.296875l-.1875.9531C.9375-5.046925.6875-4.953175.390625-4.8438l-.0625.2656h.9688l-.1094.672C.828125-1.578125.390625.640625.125 1.46875c-.21875.703125-.5625 1.078125-1 1.078125-.265625 0-.421875-.078125-.625-.34375L-1.6562 2.25c-.046875.265625-.21875.84375-.28125.953125.109375.0625.28125.09375.421875.09375.484375 0 1.140625-.375 1.59375-.9375C.8125 1.5 1.0625.6875 1.953125-3.53125c.0625-.296875.15625-.65625.21875-1.046875h1.25c.046875-.234375.125-.5.203125-.671875l-.0469-.0781-.0937.0156c-.28125.09375-.40625.09375-1 .09375h-.1875l.25-1.3437c.1875-1.03125.53125-1.484375 1.078125-1.484375.359375 0 .671875.1875.859375.46875l.125-.0469zm0 0" id="i"/><path d="M4.2344-1.1406l-.0938-.2344-.1875.125c-.859375.5625-1.3125.765625-1.734375.765625-.671875 0-1.015625-.46875-1.015625-1.421875 0-1.265625.40625-2.5.984375-2.953125.25-.21875.546875-.3125.9375-.3125.53125 0 .96875.21875.96875.515625v.7188h.2656c.09375-.78125.1875-1.21875.296875-1.53125-.3125-.203125-.703125-.296875-1.15625-.296875-.53125 0-1.390625.421875-2.0625 1.015625C.75-4.140625.296875-2.90625.296875-1.625c0 1.140625.5 1.75 1.453125 1.75.65625 0 1.21875-.234375 1.890625-.765625zm0 0" id="g"/><path d="M5.3594-.9375l-.0937-.2344c-.4375.359375-.734375.53125-.921875.53125S4-.75 3.890625-.984375s-.25-.671875-.3125-1.03125L3.375-3.2187l.4219-.5781c.546875-.78125.875-1.0625 1.25-1.0625.1875 0 .328125.109375.390625.28125L5.6094-4.625l.1719-1.0156c-.140625-.078125-.25-.125-.359375-.125-.46875 0-.953125.4375-1.6875 1.53125l-.4531.6563-.0625-.5625c-.140625-1.1875-.46875-1.625-1.171875-1.625-.3125 0-.578125.09375-.6875.25l-.6875 1L.875-4.4062c.359375-.40625.59375-.5625.828125-.5625.390625 0 .65625.484375.859375 1.65625l.125.75-.4687.7344c-.515625.796875-.921875 1.1875-1.265625 1.1875C.78125-.640625.640625-.6875.625-.75l-.1406-.3437-.2344.0468c0 .2344-.015625.39065-.09375.76565C.125-.125.125-.09375.109375-.015625.28125.078125.484375.125.625.125c.390625 0 .859375-.34375 1.234375-.90625l.9063-1.3906.125.8281C3.0625-.328125 3.328125.125 3.75.125c.265625 0 .65625-.203125 1.03125-.546875zm0 0" id="b"/><path d="M6.2969-6.4219c.03125-.75.125-1.359375.25-1.8125-.265625-.03125-.59375-.03125-.796875-.03125-.9375 0-1.875.03125-2.8125.03125-.609375 0-1.21875-.015625-1.8125-.03125l-.0312.3281.6563.0313c.296875 0 .421875.109375.421875.3125 0 .171875-.046875.546875-.109375.90625L1.1719-1.5C.984375-.390625.96875-.375.484375-.328125l-.4375.0313L0 .0313C.5.015625 1.015625 0 1.515625 0 2.0625 0 2.625.015625 3.171875.03125l.0313-.3281-.7656-.0312c-.3282-.0157-.42195-.10945-.42195-.35945 0-.0625 0-.203125.015625-.25l.4375-2.6562h1.3906c1.5 0 1.203125.03125 1.578125.046875l.2344-.5469L5.625-4.1719 3-4.0937h-.4375l.5469-3.25c.03125-.1875.046875-.25.109375-.375.234375 0-.046875.015625 1.46875-.046875.734375 0 1.21875.109375 1.234375.28125l.0938 1.0625zm0 0" id="j"/><path d="M5.8594-5.6562l-.1406-.1094c-.34375.140625-.609375.203125-.875.234375l-.4219 1.5781c-.140625.5625-.5625 1.4375-.953125 2.015625-.421875.609375-1 1.140625-1.265625 1.140625s-.25-.578125-.234375-.734375l.1875-2.3125c.015625-.375.046875-.828125.046875-1.171875 0-.53125-.09375-.75-.296875-.75-.15625 0-.3125.09375-.890625.484375l-.9844.6719.1406.2031.5938-.3437c.0625-.0625.21875-.15625.296875-.15625.3125 0 .265625.609375.25.8125L1.1094-1.1875l-.0156.4688c0 .5.21875.84375.515625.84375.453125 0 1.453125-1.015625 2.34375-2.359375L3.375-.1875c-.609375 2.109375-1.21875 2.984375-2.046875 2.984375-.421875 0-.75-.328125-.75-.734375 0-.0625.015625-.15625.03125-.265625L.4844 1.75l-.5625.4063c-.015625.078125-.015625.15625-.015625.203125 0 .515625.4375.9375.984375.9375 1.265625 0 2.578125-1.484375 3.28125-3.6875zm0 0" id="r"/><path d="M3.6406-9.0312C1.8125-7.84375.71875-5.796875.71875-3.234375c0 2.34375 1.140625 4.578125 2.875 5.78125L3.75 2.3438C2.09375.90625 1.8125-.484375 1.8125-3.28125 1.8125-6.0625 2.125-7.5 3.75-8.828125zm0 0" id="d"/><path d="M.5-9.0312l-.125.2031C2.015625-7.5 2.328125-6.0625 2.328125-3.28125c0 2.796875-.28125 4.1875-1.953125 5.625l.1563.2031c1.75-1.203125 2.890625-3.4375 2.890625-5.78125C3.421875-5.796875 2.3125-7.84375.5-9.03125zm0 0" id="e"/><path d="M7.2188-2.875v-.7031H.7813v.7031zm0 0" id="p"/><path d="M2.1094-.75l-.0781-.1562-.2344.1562c-.265625.171875-.453125.265625-.53125.265625-.0625 0-.125-.078125-.125-.1875 0-.078125.015625-.15625.0625-.34375l.6875-2.6719c.03125-.140625.046875-.234375.046875-.3125 0-.140625-.078125-.21875-.21875-.21875-.1875 0-.515625.171875-1.171875.640625l-.25.1719.0625.1875.2813-.1875c.25-.171875.34375-.203125.421875-.203125s.140625.078125.140625.1875c0 .0625-.03125.25-.0625.375L.5625-.9375c-.078125.28125-.109375.5-.109375.671875 0 .21875.09375.34375.25.34375.234375 0 .5625-.1875 1.40625-.828125zm.2031-5.1094c0-.21875-.125-.359375-.3125-.359375-.265625 0-.515625.28125-.515625.578125 0 .21875.140625.359375.359375.359375.265625 0 .46875-.25.46875-.578125zm0 0" id="a"/><path d="M5.2969-2.1094v-.5156H.5625v.5156zm0 0" id="f"/><path d="M5.3438-2.125v-.5H3.1875v-2.1406h-.4844v2.1406H.5469v.5h2.1563V.0156h.4843V-2.125zm0 0" id="k"/><path d="M2.75-3.7969c0-.3125-.34375-.546875-.640625-.546875-.34375 0-.5.34375-.59375.625L.5469-.9219c-.01565.062525-.07815.2344-.07815.312525s.046875.203125.140625.203125C.75-.40625.90625-.609375.96875-.703125l1.5156-2.4062c.125-.1875.265625-.4375.265625-.6875zm0 0" id="s"/><path d="M3.6563.0313v-.2656l-.4531-.0312c-.484375-.03125-.5625-.125-.5625-.578125v-5.2031l-.125-.0312c-.5625.296875-1.1875.5625-1.984375.84375l.0625.375h.0781c.390625-.1875.78125-.359375 1.15625-.515625.0625 0 .078125.078125.078125.28125v4.25c0 .453125-.09375.546875-.578125.578125l-.4844.0313V.0313C1.328125.015625 1.8125 0 2.28125 0s.921875.015625 1.375.03125zm0 0" id="c"/><path d="M4.1094.0313c-.03125-.1875-.03125-.28125-.03125-.40625 0-.109375 0-.1875.03125-.390625L1.0625-.6719l1.6094-1.6875c.843725-.906225 1.10935-1.3906 1.10935-2.04685 0-1.015625-.6875-1.640625-1.796875-1.640625-.640625 0-1.0625.1875-1.5.625l-.1406 1.1875h.25l.1094-.4062c.140625-.5.46875-.71875 1.046875-.71875.75 0 1.234375.46875 1.234375 1.21875 0 .65625-.359375 1.296875-1.359375 2.359375L.1406-.2031v.2344C.78125.015625 1.453125 0 2.09375 0c.671875 0 1.34375.015625 2.015625.03125zm0 0" id="q"/></defs><g style="stroke-width:3.985;stroke:#000;stroke-miterlimit:10;transform:matrix(.1,0,0,-.1,0,161)"><g fill="#e5e5e5"><path d="M435.820312 464.765625h1263.164063v1045.820313H435.820312zm0 0"/><path d="M1698.984375 464.765625h1263.164063v790.117187H1698.984375zm0 0"/><path d="M2962.148438 464.765625H4225.3125v211.09375H2962.148438zm0 0"/></g><path fill="none" d="M435.820312 464.765625H4225.3125"/></g><path d="M43.3281 111.5352h.6016v6h-.6016zm0 0"/><path d="M169.6445 111.5352h.6016v6h-.6016zm0 0"/><path d="M295.9648 111.5352h.6016v6h-.6016zm0 0"/><path d="M422.2813 111.5352h.6016v6h-.6016zm0 0"/><path d="M435.820312 464.765625v1136.875" class="a"/><path d="M40.5664 114.1758h6v.6016h-6zm0 0"/><path d="M40.5664.4883h6v.6016h-6zm0 0"/><path d="M435.820312 1437.890625l189.453126 47.5 189.492187 32.851563 189.453125 17.8125 189.453125 2.617187 189.492187-12.382813 189.492188-26.992187 189.492188-40.9375 189.453124-53.90625L2141.054688 1338.75l189.492187-75.898438 189.492187-84.414062 189.453126-90.859375 189.492187-94.960937 189.492187-96.484376 189.453126-95.15625 189.492187-90.664062L3656.875 627.539062l189.492188-71.171874 189.492187-55.703126 189.453125-35.898437" class="b"/><use x="173.882" y="78.7508" href="#l"/><use x="179.882" y="78.7508" href="#n"/><use x="184.5621" y="78.7508" href="#o"/><use x="190.3222" y="78.7508" href="#l"/><use x="199.5621" y="78.7508" href="#h"/><use x="212.7621" y="78.7508" href="#i"/><use x="218.282" y="78.7508" href="#d"/><use x="222.7219" y="78.7508" href="#g"/><use x="228.2422" y="80.5508" href="#a"/><use x="231.6019" y="78.7508" href="#e"/><use x="235.682" y="78.7508" href="#m"/><use x="244.3219" y="78.7508" href="#b"/><use x="250.9223" y="80.5508" href="#a"/><use x="199.5621" y="99.6946" href="#h"/><use x="211.2019" y="99.6946" href="#j"/><use x="218.2819" y="99.6946" href="#d"/><use x="222.7218" y="99.6946" href="#b"/><use x="229.3222" y="101.4946" href="#a"/><use x="232.8019" y="99.6946" href="#e"/><use x="239.5218" y="99.6946" href="#p"/><use x="250.4417" y="99.6946" href="#j"/><use x="257.5217" y="99.6946" href="#d"/><use x="261.9616" y="99.6946" href="#b"/><use x="268.562" y="101.4946" href="#a"/><use x="271.3221" y="101.4946" href="#f"/><use x="277.2022" y="101.4946" href="#c"/><use x="282.242" y="99.6946" href="#e"/><use x="46.569" y="78.7508" href="#l"/><use x="52.569" y="78.7508" href="#n"/><use x="57.2491" y="78.7508" href="#o"/><use x="63.0093" y="78.7508" href="#l"/><use x="72.2491" y="78.7508" href="#h"/><use x="85.4491" y="78.7508" href="#i"/><use x="90.9691" y="78.7508" href="#d"/><use x="95.4089" y="78.7508" href="#g"/><use x="100.9292" y="80.5508" href="#a"/><use x="103.6894" y="80.5508" href="#f"/><use x="109.5695" y="80.5508" href="#c"/><use x="114.489" y="78.7508" href="#e"/><use x="118.5691" y="78.7508" href="#m"/><use x="127.2089" y="78.7508" href="#b"/><use x="133.8089" y="80.5508" href="#a"/><use x="136.5691" y="80.5508" href="#f"/><use x="142.4491" y="80.5508" href="#c"/><use x="72.2491" y="99.6946" href="#h"/><use x="83.8889" y="99.6946" href="#j"/><use x="90.969" y="99.6946" href="#d"/><use x="95.4089" y="99.6946" href="#b"/><use x="102.0089" y="101.4946" href="#a"/><use x="104.769" y="101.4946" href="#f"/><use x="110.6491" y="101.4946" href="#c"/><use x="115.6889" y="99.6946" href="#e"/><use x="122.5288" y="99.6946" href="#p"/><use x="133.3287" y="99.6946" href="#j"/><use x="140.4088" y="99.6946" href="#d"/><use x="144.8487" y="99.6946" href="#b"/><use x="151.4491" y="101.4946" href="#a"/><use x="154.2092" y="101.4946" href="#f"/><use x="160.0893" y="101.4946" href="#q"/><use x="165.2491" y="99.6946" href="#e"/><use x="300.1991" y="21.9083" href="#l"/><use x="306.1991" y="21.9083" href="#n"/><use x="310.8791" y="21.9083" href="#o"/><use x="316.6393" y="21.9083" href="#l"/><use x="325.8792" y="21.9083" href="#h"/><use x="339.0792" y="21.9083" href="#i"/><use x="344.5991" y="21.9083" href="#d"/><use x="349.0389" y="21.9083" href="#g"/><use x="354.5588" y="23.7083" href="#a"/><use x="357.319" y="23.7083" href="#k"/><use x="363.1991" y="23.7083" href="#c"/><use x="368.119" y="21.9083" href="#e"/><use x="372.1991" y="21.9083" href="#m"/><use x="380.8389" y="21.9083" href="#b"/><use x="387.4389" y="23.7083" href="#a"/><use x="390.1991" y="23.7083" href="#k"/><use x="396.0792" y="23.7083" href="#c"/><use x="325.8788" y="42.8517" href="#h"/><use x="337.5183" y="42.8517" href="#j"/><use x="344.5983" y="42.8517" href="#d"/><use x="349.0382" y="42.8517" href="#b"/><use x="355.6386" y="44.6517" href="#a"/><use x="358.3987" y="44.6517" href="#k"/><use x="364.2788" y="44.6517" href="#c"/><use x="369.3187" y="42.8517" href="#e"/><use x="376.1585" y="42.8517" href="#p"/><use x="386.9585" y="42.8517" href="#j"/><use x="394.0385" y="42.8517" href="#d"/><use x="398.4784" y="42.8517" href="#b"/><use x="405.0784" y="44.6517" href="#a"/><use x="408.5585" y="42.8517" href="#e"/><path d="M3341.09375 1033.203125 3246.367188 578.4375" class="b"/><path d="M324.8047 102.3516l.043-7.5469-.2109 8.3516 3.1367-7.7422-2.9687 6.9375"/><path d="M3248.046875 586.484375l.429687 75.46875-2.109374-83.515625 31.367187 77.421875zm0 0" class="b"/><use x="33.6199" y="125.2648" href="#b"/><use x="40.2199" y="127.0648" href="#a"/><use x="42.9801" y="127.0648" href="#f"/><use x="48.8601" y="127.0648" href="#q"/><use x="159.9371" y="125.2648" href="#b"/><use x="166.5371" y="127.0648" href="#a"/><use x="169.2973" y="127.0648" href="#f"/><use x="175.1774" y="127.0648" href="#c"/><use x="291.4144" y="125.2648" href="#b"/><use x="298.0144" y="127.0648" href="#a"/><use x="412.5714" y="125.2648" href="#b"/><use x="419.1714" y="127.0648" href="#a"/><use x="421.9315" y="127.0648" href="#k"/><use x="427.8116" y="127.0648" href="#c"/><g class="a"><path d="M435.820312 1510.585938h-9.492187"/><path d="M407.382812 1510.585938h-9.492187"/><path d="M1698.984375 1254.882812H1669.375"/><path d="M1610.234375 1254.882812h-29.53125"/><path d="M1580.703125 1254.882812h-29.570313"/><path d="M1491.992188 1254.882812h-29.570313"/><path d="M1462.421875 1254.882812h-29.570313"/><path d="M1373.671875 1254.882812h-29.53125"/><path d="M1344.140625 1254.882812h-29.570313"/><path d="M1255.429688 1254.882812h-29.570313"/><path d="M1225.859375 1254.882812h-29.570313"/><path d="M1137.148438 1254.882812h-29.570313"/><path d="M1107.578125 1254.882812h-29.570313"/><path d="M1018.867188 1254.882812h-29.570313"/><path d="M989.296875 1254.882812h-29.570313"/><path d="M900.585938 1254.882812h-29.570313"/><path d="M871.015625 1254.882812h-29.570313"/><path d="M782.304688 1254.882812h-29.570313"/><path d="M752.734375 1254.882812h-29.570313"/><path d="M664.023438 1254.882812h-29.570313"/><path d="M634.453125 1254.882812h-29.570313"/><path d="M545.742188 1254.882812h-29.570313"/><path d="M516.171875 1254.882812h-29.570313"/><path d="M427.460938 1254.882812h-29.570313"/><path d="M2962.148438 675.859375h-18.945313"/><path d="M2905.3125 675.859375h-18.945312"/><path d="M549.492188 675.859375h-18.945313"/><path d="M492.617188 675.859375h-18.945313"/><path d="M473.671875 675.859375h-18.945313"/><path d="M416.835938 675.859375h-18.945313"/></g><use x="2.5648" y="12.82" href="#i"/><use x="8.0848" y="12.82" href="#d"/><use x="12.5246" y="12.82" href="#g"/><use x="18.0449" y="14.62" href="#a"/><use x="20.8051" y="14.62" href="#f"/><use x="26.6852" y="14.62" href="#c"/><use x="31.725" y="12.82" href="#e"/><use x="12.7648" y="38.3911" href="#i"/><use x="18.2847" y="38.3911" href="#d"/><use x="22.7246" y="38.3911" href="#g"/><use x="28.2449" y="40.1911" href="#a"/><use x="31.7249" y="38.3911" href="#e"/><use x="2.5647" y="96.2942" href="#i"/><use x="8.0847" y="96.2942" href="#d"/><use x="12.5245" y="96.2942" href="#g"/><use x="18.0448" y="98.0942" href="#a"/><use x="20.805" y="98.0942" href="#k"/><use x="26.6851" y="98.0942" href="#c"/><use x="31.7249" y="96.2942" href="#e"/><g class="a"><path d="M757.890625 1510.585938v-25.546876"/><path d="M757.890625 1433.867188v-25.585938"/><path d="M757.890625 1408.28125v-25.546875"/><path d="M757.890625 1331.5625v-25.585938"/><path d="M757.890625 1305.976562v-25.585937"/><path d="M757.890625 1229.257812v-25.546874"/><path d="M757.890625 1203.710938V1178.125"/><path d="M757.890625 1126.953125v-25.546875"/><path d="M757.890625 1101.40625v-25.585938"/><path d="M757.890625 1024.648438V999.0625"/><path d="M757.890625 532.96875v-22.734375"/><path d="M757.890625 464.765625V442.03125"/></g><use x="66.4301" y="125.2648" href="#g"/><use x="71.95" y="127.0648" href="#a"/><use x="74.7102" y="127.0648" href="#f"/><use x="80.5903" y="127.0648" href="#c"/><g class="a"><path d="M2343.203125 1254.882812v-21.289062"/><path d="M2343.203125 1190.9375v-21.289062"/><path d="M2343.203125 1169.648438v-21.367188"/><path d="M2343.203125 1105.664062v-21.328124"/><path d="M2343.203125 1084.335938v-21.289063"/><path d="M2343.203125 1020.390625V999.0625"/><path d="M2343.203125 532.96875v-22.734375"/><path d="M2343.203125 464.765625V442.03125"/></g><use x="230.12" y="125.2648" href="#g"/><use x="235.6399" y="127.0648" href="#a"/><g class="a"><path d="M3530.585938 675.859375v-29.21875"/><path d="M3530.585938 588.164062v-29.21875"/><path d="M3530.585938 558.945312v-29.21875"/><path d="M3530.585938 471.25v-29.21875"/></g><use x="343.697" y="125.2648" href="#g"/><use x="349.2169" y="127.0648" href="#a"/><use x="351.9771" y="127.0648" href="#k"/><use x="357.8572" y="127.0648" href="#c"/><path d="M1067.382812 237.382812h-631.5625" class="a"/><path d="M44.4023 137.2617l7.3945-1.4961-8.2148 1.4961 8.2148 1.4922-7.3945-1.4922"/><g class="a"><path d="M444.023438 237.382812l73.945312 14.960938-82.148438-14.960938 82.148438-14.921874zm0 0"/><path d="M1067.382812 237.382812h631.601563"/></g><path d="M169.0742 137.2617l-7.3984 1.4922 8.2227-1.4922-8.2227-1.4961 7.3984 1.4961"/><path d="M1690.742188 237.382812l-73.984376-14.921874 82.226563 14.921874-82.226563 14.960938zm0 0" class="a"/><use x="92.3379" y="149.6461" href="#m"/><use x="100.9777" y="149.6461" href="#b"/><use x="107.5777" y="151.4461" href="#a"/><use x="110.3379" y="151.4461" href="#f"/><use x="116.218" y="151.4461" href="#c"/><path d="M2330.546875 237.382812h-631.5625" class="a"/><path d="M170.7188 137.2617l7.3984-1.4961-8.2187 1.4961 8.2188 1.4922-7.3984-1.4922"/><g class="a"><path d="M1707.1875 237.382812l73.984375 14.960938-82.1875-14.960938 82.1875-14.921874zm0 0"/><path d="M2330.546875 237.382812h631.601563"/></g><path d="M295.3906 137.2617l-7.3945 1.4922 8.2188-1.4922-8.2187-1.4961 7.3945 1.4961"/><path d="M2953.90625 237.382812l-73.945312-14.921874 82.1875 14.921874-82.1875 14.960938zm0 0" class="a"/><use x="223.816" y="149.6461" href="#m"/><use x="232.4558" y="149.6461" href="#b"/><use x="239.0558" y="151.4461" href="#a"/><path d="M3593.710938 237.382812h-631.5625" class="a"/><path d="M297.0352 137.2617l7.3984-1.4961-8.2187 1.4961 8.2188 1.4922-7.3984-1.4922"/><g class="a"><path d="M2970.351562 237.382812l73.984376 14.960938-82.1875-14.960938 82.1875-14.921874zm0 0"/><path d="M3593.710938 237.382812H4225.3125"/></g><path d="M421.7109 137.2617l-7.3984 1.4922 8.2188-1.4922-8.2187-1.4961 7.3984 1.4961"/><path d="M4217.109375 237.382812 4143.125 222.460938l82.1875 14.921874-82.1875 14.960938zm0 0" class="a"/><use x="344.973" y="149.6461" href="#m"/><use x="353.6128" y="149.6461" href="#b"/><use x="360.2128" y="151.4461" href="#a"/><use x="362.973" y="151.4461" href="#k"/><use x="368.8531" y="151.4461" href="#c"/><use x="193.1901" y="15.0871" href="#r"/><use x="203.0299" y="15.0871" href="#h"/><use x="216.11" y="15.0871" href="#i"/><use x="221.6299" y="15.0871" href="#d"/><use x="226.0698" y="15.0871" href="#b"/><use x="232.6698" y="15.0871" href="#e"/><use x="240.2299" y="15.0871" href="#h"/><use x="251.7498" y="15.0871" href="#j"/><use x="258.7104" y="10.7672" href="#s"/><use x="262.1901" y="15.0871" href="#d"/><use x="266.6299" y="15.0871" href="#b"/><use x="273.2299" y="15.0871" href="#e"/><style>.a{fill:none;stroke:#000;stroke-miterlimit:10;stroke-width:3.985;transform:matrix(.1,0,0,-.1,0,161)}.b{fill:none;stroke:#000;stroke-miterlimit:10;stroke-width:7.9701;transform:matrix(.1,0,0,-.1,0,161)}</style></svg>