<svg xmlns="http://www.w3.org/2000/svg" width="290pt" height="110pt" viewBox="0 0 290 110"><defs><path d="M3.8125-5.2187l-1.6406.0781v-.4531c0-.5.046875-.9375.140625-1.703125l-.1562-.125c-.281325.171825-.6407.328075-1.0157.453075.046875.359375.046875.578125.046875.9375v.8438l-.9219.4219v.25l.9063-.0469v3.4375c0 .890625.390625 1.265625 1.3125 1.265625.28125 0 .5625-.0625.640625-.140625l.5625-.6406-.1562-.2031c-.296875.171875-.46875.234375-.703125.234375-.46875 0-.65625-.234375-.65625-.828125v-3.125h1.5313zm0 0" id="b"/><path d="M6.5-5.1562v-.3281c-.375.015625-.75.03125-1.140625.03125-.375 0-.75-.015625-1.125-.03125v.3281l.3125.0313c.359375.015625.515625.109375.515625.296875 0 .078125-.046875.171875-.09375.3125L3.5469-1.0312c-.265625-.453125-.375-.71875-.609375-1.3125l-.7656-2c-.0625-.203125-.109375-.359375-.109375-.484375 0-.1875.109375-.28125.40625-.296875l.4531-.0312v-.3281c-.46875.015625-.921875.03125-1.390625.03125s-.9219-.01575-1.39065-.031375v.3281l.2188.0313c.296875.03125.453125.171875.625.578125L2.9531.2813l-.2812.7344c-.375 1-.84375 1.5625-1.296875 1.5625-.1875 0-.40625-.09375-.609375-.265625h-.1562l-.2812.8906c.21875.125.40625.171875.640625.171875.796875 0 1.3125-.421875 1.765625-1.46875l2.4218-5.5938c.484375-1.078125.71875-1.421875 1.015625-1.4375zm0 0" id="c"/><path d="M6.625-3.2344c0-1.328125-1.109375-2.375-2.484375-2.375-.453125 0-.875.125-1.0625.296875l-.9844.9063V-5.5625l-.1094-.0469C1.375-5.359375.75-5.1875.125-5.109375v.3281h.4375c.484375 0 .53125.078125.53125.875v6.0156c0 .75-.046875.828125-.453125.859375L.0938 3v.3594c.5-.03125 1-.03125 1.5-.03125s.984375 0 1.484375.03125V3l-.5469-.0312c-.40625-.03125-.4375-.109375-.4375-.859375V-.1562c.359375.21875.734375.296875 1.28125.296875.34375 0 .65625-.0625.84375-.1875L5.5781-.9375C6.0625-1.25 6.625-2.46875 6.625-3.234375zm-1.0469.4375c0 1.34375-.796875 2.328125-1.875 2.328125-.65625 0-1.140625-.21875-1.609375-.703125v-2.4843c0-.171875.0625-.296875.21875-.5.34375-.453125.828125-.671875 1.421875-.671875 1.125 0 1.84375.78125 1.84375 2.03125zm0 0" id="d"/><path d="M5.3594-3.3281c0-1.375-.890625-2.28125-2.234375-2.28125-.4375 0-.953125.15625-1.4375.453125C.703125-4.609375.3125-3.859375.3125-2.625c0 .765625.171875 1.40625.5 1.859375.46875.640625 1.28125 1 2.171875 1 .453125 0 .890625-.09375 1.375-.3125.328125-.125.578125-.28125.625-.359375l.2344-.4062-.1562-.1094c-.765625.453125-1.03125.5625-1.546875.5625-.78125 0-1.421875-.34375-1.765625-.9375-.218825-.39065-.29695-.7344-.3282-1.4219h1.75C4-2.75 4.5-2.78125 5.328125-2.921875c.015625-.15625.03125-.265625.03125-.40625zm-1.0625.1406-1.3437.0313c-.546875 0-.859375-.015625-1.5-.078125 0-.5625.046875-.8125.203125-1.125.25-.53125.765625-.859375 1.328125-.859375.390625 0 .703125.15625.921875.484375.265625.390625.390625.734375.390625 1.546875zm0 0" id="e"/><path d="M3.7656.0313v-.3594l-.5781-.0313c-.546875-.03125-.609375-.125-.609375-1.078125v-5.3594c0-.953125.0625-1.046875.609375-1.078125l.5781-.0312v-.3594c-.59375.015625-1.171875.03125-1.75.03125-.59375 0-1.171875-.015625-1.75-.03125v.3594l.5782.0313c.546875.03125.609375.125.609375 1.078125V-1.4375c0 .953125-.0625 1.046875-.609375 1.078125l-.5781.0313V.0313C.84375.015625 1.421875 0 2.015625 0c.578125 0 1.15625.015625 1.75.03125zm0 0" id="a"/></defs><g style="fill:none;stroke:#000;stroke-miterlimit:10;transform:matrix(.1,0,0,-.1,0,110)"><g class="a"><path d="M10 276.796875l36.015625 5.429687 35.976563 1.40625 36.015624-1.992187 35.976563-4.84375L190 269.648438l36.015625-8.867188 36.015625-10 71.953125-21.171875 36.015625-10 36.015625-8.867187 36.015625-7.148438 35.976562-4.84375 35.976563-2.03125L550 198.164062l36.015625 5.429688 36.015625 10L658.007812 228.75l36.015626 20.859375L730 276.796875"/><path d="M10 1092.5l36.015625-29.804688 35.976563-23.554687 36.015624-17.8125 35.976563-12.695313L190 1000.546875l36.015625-4.101563 36.015625-.664062 35.976562 2.1875 35.976563 4.492188L370 1008.632812l36.015625 7.34375 36.015625 7.929688 35.976562 7.890625 35.976563 7.34375L550 1045.351562l36.015625 4.453126 36.015625 2.1875 35.976562-.664063 36.015626-4.0625 35.976562-8.125"/><path d="M10 276.796875V1092.5"/><path d="M730 276.796875v762.34375"/></g><g class="b"><path d="M81.992188 283.632812v755.507813"/><path d="M153.984375 276.796875v731.835937"/><path d="M226.015625 260.78125v735.664062"/><path d="M298.007812 240.195312V997.96875"/><path d="M370 219.609375v789.023437"/><path d="M442.03125 203.59375v820.3125"/><path d="M513.984375 196.71875v842.421875"/><path d="M586.015625 203.59375v846.210938"/><path d="M658.007812 228.75v822.578125"/></g><g class="a"><path d="M1090.039062 276.796875l5.117188 38.085937 1.328125 38.125-1.875 38.125-4.570313 38.125-6.757812 38.125-8.398438 38.125-9.414062 38.085938-20 76.25-9.453125 38.125-8.359375 38.085938-6.757812 38.125-4.609376 38.125-1.875 38.125 1.367188 38.125 5.117188 38.125 9.453124 38.125 14.296876 38.085937 19.726562 38.125 25.664062 38.125"/><path d="M1910.820312 276.796875l-56.328124 38.085937-44.453126 38.125-33.671874 38.125-23.945313 38.125-15.3125 38.125-7.734375 38.125-1.25 38.085938 4.140625 38.125 8.4375 38.125 11.71875 38.125 13.867187 38.085938 14.921876 38.125 14.960937 38.125 13.867187 38.125 11.679688 38.125 8.476562 38.125 4.140626 38.125-1.289063 38.085937-7.734375 38.125-15.273438 38.125"/><path d="M1090.039062 276.796875h820.78125"/><path d="M1090.039062 1039.140625h720"/></g><g class="b"><path d="M1096.484375 353.007812h713.554687"/><path d="M1090.039062 429.257812h662.382813"/><path d="M1074.882812 505.507812H1729.375"/><path d="M1055.46875 581.71875h676.796875"/><path d="M1036.015625 657.96875h716.40625"/><path d="M1020.898438 734.179688h760.3125"/><path d="M1014.414062 810.429688h795.625"/><path d="M1020.898438 886.679688h809.296874"/><path d="M1044.648438 962.890625h788.398437"/></g><g class="a"><path d="M2170.039062 657.96875l35.976563-68.828125 36.015625-61.523437 35.976562-54.335938 36.015626-47.070312 36.015624-39.84375 35.976563-32.578126 36.015625-25.351562 36.015625-18.125 35.976563-10.859375 36.015624-3.59375 36.015626 3.59375 35.976562 10.859375 36.015625 18.125 35.976563 25.351562 36.015624 32.578126 36.015626 39.84375 35.976562 47.070312 36.015625 54.335938 35.976563 61.523437 36.015624 68.828125"/><path d="M2170.039062 657.96875l35.976563 41.875 36.015625 41.523438 35.976562 40.820312 36.015626 39.648438 36.015624 38.007812 35.976563 35.820312 36.015625 33.007813 36.015625 29.53125 35.976563 25.273437 36.015624 20.15625 36.015626 14.0625 35.976562 6.992188 36.015625-1.25 35.976563-10.859375 36.015624-21.757813 36.015626-34.257812 35.976562-48.4375 36.015625-64.53125 35.976563-82.617188 36.015624-103.007812"/></g><g class="b"><path d="M2242.03125 527.617188v213.75"/><path d="M2314.023438 426.210938v395.625"/><path d="M2386.015625 353.789062v541.875"/><path d="M2458.046875 310.3125v647.890625"/><path d="M2530.039062 295.859375v707.773437"/><path d="M2602.03125 310.3125v714.375"/><path d="M2674.023438 353.789062v658.789063"/><path d="M2746.054688 426.210938V956.5625"/><path d="M2818.046875 527.617188V843.59375"/><path d="M2387.460938 353.007812h285.859374"/><path d="M2311.875 429.257812h437.03125"/><path d="M2256.445312 505.507812H2804.375"/><path d="M2210.351562 581.71875h640.078126"/><path d="M2170.039062 657.96875h720"/><path d="M2236.289062 734.179688h628.554688"/><path d="M2303.945312 810.429688h529.921876"/><path d="M2377.382812 886.679688h418.320313"/><path d="M2464.492188 962.890625h276.523437"/></g></g><use x="21.7609" y="105.9699" href="#b"/><use x="25.6007" y="105.9699" href="#c"/><use x="32.2007" y="105.9699" href="#d"/><use x="39.4007" y="105.9699" href="#e"/><use x="48.1609" y="105.9699" href="#a"/><use x="127.7226" y="105.9699" href="#b"/><use x="131.5625" y="105.9699" href="#c"/><use x="138.1625" y="105.9699" href="#d"/><use x="145.3625" y="105.9699" href="#e"/><use x="154.2426" y="105.9699" href="#a"/><use x="158.3226" y="105.9699" href="#a"/><use x="233.6844" y="105.9699" href="#b"/><use x="237.5242" y="105.9699" href="#c"/><use x="244.1242" y="105.9699" href="#d"/><use x="251.3242" y="105.9699" href="#e"/><use x="260.2043" y="105.9699" href="#a"/><use x="264.2844" y="105.9699" href="#a"/><use x="268.3645" y="105.9699" href="#a"/><style>.a{stroke-width:7.9701}.b{stroke-width:3.985}</style></svg>