<svg xmlns="http://www.w3.org/2000/svg" width="179pt" height="108pt" viewBox="0 0 179 108"><defs><clipPath id="h"><path d="M84 26h55v18H84zm0 0"/></clipPath><clipPath id="i"><path d="M.6289 107.5508h142v-109h-142zm83.668-80.75v-.8828l9.1328-1.1328-7.6211 1.6367 7.4336 2.1445zm0 0" class="b"/></clipPath><clipPath id="j"><path d="M76 9h26v15H76zm0 0"/></clipPath><clipPath id="k"><path d="M.6289 107.5508h142v-109h-142zm75.793-83.457-.7539-.3789L78 14.8945l-1.3242 7.6875 4.7852-6.1133zm0 0" class="b"/></clipPath><clipPath id="l"><path d="M.6289 6H102v101.5508H.6289zm0 0"/></clipPath><clipPath id="m"><path d="M47 0h2v101h-2zm0 0"/></clipPath><clipPath id="n"><path d="M.6289 107.5508h142v-109h-142zM47.4492.4063h.8828l1.4453 9.0078H46zm0 0" class="b"/></clipPath><clipPath id="o"><path d="M39 0h18v17H39zm0 0"/></clipPath><clipPath id="p"><path d="M10 60h98v1H10zm0 0"/></clipPath><clipPath id="q"><path d="M.6289 107.5508h142v-109h-142zm107.2266-47.6172v.8828l-9.0078 1.4492v-3.7812zm0 0" class="b"/></clipPath><clipPath id="r"><path d="M0 0h143v108H0z"/></clipPath><g id="s" clip-path="url(#r)"><g style="fill:none;stroke-width:18.897;stroke-linecap:butt;stroke-linejoin:miter;stroke:#000;stroke-opacity:1;stroke-miterlimit:10;transform:matrix(.1,0,0,-.1,.629,107.549)"><path d="M642.694375 471.74h226.757813"/><path d="M472.61625 925.255625V698.497813"/></g><path fill-rule="evenodd" fill="#e9e9e9" fill-opacity="1" d="M64.8984 37.6992h22.6758V15.0234H64.8984zm0 0"/><g clip-path="url(#h)"><g clip-path="url(#i)"><path d="M1379.6475 641.818125h-.625l-1.875.625-5.664062.625-9.453125 1.25-13.242188 1.914063-16.367187 1.875-18.90625 3.164062-20.15625 3.125-20.15625 3.164063-18.90625 3.164062-17.617188 3.125-15.742187 3.164063-14.492188 3.789062-13.242187 3.125-11.328125 3.164063-10.703125 3.789062-9.453125 3.789063-8.828125 4.375-9.453125 5.039062-8.789063 5.703125-8.828125 5.664063-8.828125 6.289062-8.828125 6.914063-8.164062 6.953125-8.203125 7.539062-8.203125 6.953125-8.164063 7.539063-8.203125 6.914062-7.539062 6.953125-8.203125 6.289063-7.578125 5.664062-7.539063 5.664063-7.578125 5.039062-8.164062 3.789063-8.203125 4.414062-8.828125 3.164063-10.078125 2.5-10.703125 2.539062-12.578125 2.5-13.867188 1.875-15.117187 1.289063-16.992188 1.875-17.65625.625-17.617187 1.25-15.78125.664062-13.828125.625-18.28125.625" class="d"/></g></g><path d="M926.131875 789.825938l-74.335937 21.445312 76.210937 16.367188" class="a"/><g clip-path="url(#j)"><g clip-path="url(#k)"><path d="M1011.170938 981.974375h-8.828125l-9.453125-.625-13.203125-.664062-16.40625-.625-16.992188-1.25-17.65625-.625-16.367187-1.875-15.117188-1.289063-13.203125-1.875-11.992187-2.539062-10.703125-2.5-8.828125-2.539063-8.164063-3.125-7.578125-4.414062-8.164062-4.414063-7.578125-6.289062-7.539063-6.953125-6.953125-8.164063-6.914062-10.078125-6.953125-11.328125-7.539063-12.617187L777.46 884.318125 770.545938 870.49l-6.289063-11.992187-8.203125-18.28125" class="d"/></g></g><path d="M808.319375 910.8025l-47.851562-61.132812 13.242187 76.875" class="a"/><g clip-path="url(#l)"><path d="M939.999063 471.74c0-258.125-209.257813-467.382812-467.382813-467.382812S5.233438 213.615 5.233438 471.74 214.49125 939.122813 472.61625 939.122813 939.999063 729.865 939.999063 471.74zm0 0" class="a"/></g><path d="M77.3672 23.5273c0 .625-.507813 1.132812-1.132813 1.132812s-1.132813-.507812-1.132813-1.132812c0-.628906.507813-1.136719 1.132813-1.136719s1.132813.507813 1.132813 1.136719" class="c"/><path d="M767.381875 840.216563c0-6.25-5.078125-11.328125-11.328125-11.328125s-11.328125 5.078125-11.328125 11.328125c0 6.289062 5.078125 11.367187 11.328125 11.367187s11.328125-5.078125 11.328125-11.367187zm0 0" class="a"/><g clip-path="url(#m)"><g clip-path="url(#n)"><path d="M472.61625 74.904063v992.109375" class="a"/></g></g><path d="M49.7773 9.4141l-1.8867-7.5586L46 9.4141zm0 0" class="c"/><g clip-path="url(#o)"><path d="M491.483438 981.349375l-18.867188 75.585938L453.71 981.349375zm0 0" class="a"/></g><g clip-path="url(#p)"><g clip-path="url(#q)"><path d="M104.100625 471.74h963.75" class="a"/></g></g><g style="stroke-width:4.72425;stroke-linecap:butt;stroke-linejoin:miter;stroke:#000;stroke-opacity:1;stroke-miterlimit:10;transform:matrix(.1,0,0,-.1,.629,107.549)"><path d="M982.186563 452.83375 1057.7725 471.74l-75.585937 18.90625zm0 0" class="c"/><g fill="none" stroke-dasharray="9.4485,28.3455" stroke-dashoffset="28.3455"><path d="M642.694375 471.74v453.515625"/><path d="M869.452188 471.74v453.515625"/><path d="M472.61625 925.255625h396.835938"/><path d="M472.61625 698.497813h396.835938"/></g></g></g><path d="M5.0625-7.3281c0-.4375-.4375-.78125-1.015625-.78125s-1.03125.25-1.46875.78125c-.359375.484375-.625 1.046875-.96875 2.21875H.5l-.0781.375H1.5L.4375.2813C.171875 1.578175-.21875 2.2188-.71875 2.2188c-.140625 0-.234375-.078125-.234375-.1875 0-.046875.015625-.078125.046875-.125.046875-.078125.0625-.125.0625-.203125 0-.25-.21875-.453125-.46875-.453125s-.4375.21875-.4375.5c0 .40625.40625.71875.9375.71875 1.0625 0 1.890625-1.171875 2.390625-3.375L2.4375-4.7344h1.2969l.0781-.375H2.5156C2.875-7 3.3125-7.84375 3.984375-7.84375c.15625 0 .265625.0625.265625.15625 0 0-.015625.0625-.046875.109375-.0625.09375-.078125.15625-.078125.25 0 .28125.171875.484375.4375.484375.28125 0 .5-.21875.5-.484375zm0 0" id="t"/><path d="M4.9688-1.2344l-.1562-.0937c-.109375.125-.15625.1875-.265625.328125-.28125.359375-.40625.46875-.5625.46875-.171875 0-.28125-.15625-.359375-.484375-.03125-.109375-.046875-.171875-.046875-.1875-.296875-1.125-.4375-1.765625-.4375-1.953125C3.671975-4.0781 4.09385-4.60935 4.3126-4.60935c.078125 0 .1875.046875.296875.109375.140625.078125.21875.09375.328125.09375.234375 0 .40625-.171875.40625-.421875 0-.265625-.203125-.4375-.484375-.4375-.53125 0-.96875.421875-1.8125 1.703125l-.125-.6562c-.171875-.8125-.296875-1.046875-.625-1.046875-.28125 0-.65625.09375-1.40625.34375l-.125.0469.0469.1719.203-.047c.234375-.0625.375-.078125.46875-.078125.296875 0 .375.109375.53125.828125l.3438 1.4688-.9687 1.3906c-.250075.35935-.48445.5781-.60945.5781-.078125 0-.203125-.03125-.3125-.109375C.3125-.75.1875-.78125.078125-.78125c-.234375 0-.40625.171875-.40625.40625 0 .3125.234375.5.609375.5.359375 0 .5-.09375 1.109375-.8125L2.4688-2.1094l.3594 1.4375c.140625.625.296875.796875.6875.796875.453125 0 .765625-.28125 1.453125-1.359375zm0 0" id="b"/><path d="M2.3281-.0781c0-.984375-.6875-1.140625-.96875-1.140625-.296875 0-.6875.171875-.6875.6875 0 .484375.421875.609375.734375.609375.09375 0 .140625-.015625.1875-.03125s.07815-.01565.1094-.01565c.078125 0 .15625.046875.15625.15625 0 .234375-.1875.765625-.96875 1.265625l.0938.2344c.359375-.125 1.34375-.90625 1.34375-1.765625zm0 0" id="c"/><path d="M5.0938-4.6094c0-.359375-.296875-.65625-.65625-.65625-.28125 0-.46875.171875-.46875.4375 0 .1875.09375.3125.328125.46875.234375.125.3125.234375.3125.40625 0 .46875-.421875 1.390625-1.453125 3.09375L2.9219-2.25c-.1875-1.0625-.859375-3.015625-1.03125-3.015625h-.1562L.5625-5.0625l-.3906.0781v.2031c.15625-.03125.25-.046875.375-.046875.484375 0 .703125.171875.921875.765625.328125.8125.984375 3.484375.984375 3.96875 0 .125-.046875.265625-.125.421875-.09375.15625-.625.859375-.84375 1.078125-.28125.296875-.421875.40625-.578125.40625-.078125 0-.15625-.046875-.28125-.140625C.4375 1.53125.328125 1.46875.171875 1.46875c-.25 0-.453125.203125-.453125.46875 0 .3125.25.53125.609375.53125.671875 0 1.96875-1.375 3.203125-3.4375 1-1.65625 1.5625-2.96875 1.5625-3.640625zm0 0" id="d"/><path d="M10.8281-7.6094v-.2031H8.625v.2031c.65625.0625.765625.140625.765625.46875 0 .203125-.078125.484375-.25.8125L6.9063-1.9375l-.4688-4.7969-.0156-.1719c0-.5.171875-.640625.8125-.703125V-7.8125H4.3907v.2031c.6875.015625.8125.109375.890625.6875l.1094.8281-2.0625 4.1563L2.8125-6.7969l-.0156-.1562c0-.46875.140625-.578125.875-.65625v-.2031H.8438v.2031c.390625.046875.5.078125.609375.171875.15625.140625.203125.34375.34375 1.46875L2.5313.2188h.2344L5.422-5.2187h.0469L6.0783.2188h.2342L9.9375-6.75c.3125-.609375.4375-.71875.890625-.859375zm0 0" id="a"/><path d="M5.6094-3.7812c0-.921875-.515625-1.484375-1.375-1.484375-.78125 0-1.359375.375-2.046875 1.34375l.375-1.2969s-.03125-.046875-.0625-.046875h-.0156l-1.8437.25.0313.1875c.359375 0 .78125 0 .78125.328125 0 .140625-.421875 1.78125-.859375 3.375l-.6875 2.6719c-.125.5625-.28125.703125-.796875.71875v.1875h2.4375v-.1875c-.5625 0-.765625-.09375-.765625-.359375 0-.15625.203125-1.0625.453125-1.984375C1.53125.078125 1.75.125 2.015625.125c1.75 0 3.59375-1.984375 3.59375-3.90625zm-1.0781.0469c0 .78125-.328125 1.78125-.828125 2.5-.515625.75-1.09375 1.140625-1.734375 1.140625-.328125 0-.5625-.1875-.5625-.4375 0-.40625.40625-1.96875.765625-2.859375C2.484375-4.1875 3.15625-4.75 3.734375-4.75c.015625 0 .046875 0 .0625 0 .5.015625.734375.328125.734375 1.015625zm0 0" id="u"/><path d="M4.7031 2.4531v-.2187H4.5c-.453125 0-.6875-.125-.703125-.296875 0-.03125 0-.078125.046875-.1875l1.9219-6.8437H4.9063l-.1875.5625c-.1875-.546875-.421875-.734375-.921875-.734375-1.578125 0-3.5 2.1875-3.5 4.015625 0 .84375.46875 1.375 1.21875 1.375.84375 0 1.40625-.421875 2.46875-1.953125L2.9375 1.625c-.15625.484375-.34375.59375-1.125.640625v.1875zm-.1562-6.75c0 1-.796875 2.65625-1.609375 3.359375C2.625-.65625 2.296875-.5 2-.5c-.421875 0-.671875-.359375-.671875-.921875 0-.890625.625-2.203125 1.390625-3 .375-.375.765625-.59375 1.125-.59375.390625 0 .703125.328125.703125.71875zm0 0" id="v"/><path d="M3.5313-8.5781C1.796925-7.4531.578175-5.5156.578175-3.0781c0 2.234375 1.265625 4.484375 2.90625 5.5l.1563-.2031C2.0625.984375 1.609375-.46875 1.609375-3.109375c0-2.65625.484375-4.03125 2.03125-5.265625zm0 0" id="e"/><path d="M.4531-8.5781.3438-8.375C1.890625-7.140625 2.375-5.765625 2.375-3.109375 2.375-.46875 1.921875.984375.34375 2.21875l.1406.2031c1.65625-1.015625 2.921875-3.265625 2.921875-5.5 0-2.4375-1.21875-4.375-2.953125-5.5zm0 0" id="f"/><path d="M6.9375-.4219 4.2656-3.0781l2.6719-2.6563-.4844-.4844-2.6562 2.6719-2.6562-2.6719-.4687.4844 2.6563 2.6563L.6721-.4218l.4688.4844 2.6563-2.6719L6.4531.0625zm0 0" id="w"/><path d="M6.8594-3.9375v-.6719H.7344v.6719zm0 2.4219v-.6719H.7344v.6719zm0 0" id="x"/><path d="M5.6875-3.9375c0-2.453125-1.078125-4.140625-2.65625-4.140625-.65625 0-1.15625.203125-1.59375.625-.703125.65625-1.15625 2.03125-1.15625 3.4375 0 1.296875.40625 2.703125.96875 3.375.4375.515625 1.046875.8125 1.734375.8125.609375 0 1.125-.203125 1.5625-.625C5.234375-1.109375 5.6875-2.5 5.6875-3.9375zm-1.1406.0156c0 2.5-.53125 3.78125-1.5625 3.78125s-1.5469-1.281225-1.5469-3.7656c0-2.53125.53125-3.859375 1.5625-3.859375 1 0 1.546875 1.34375 1.546875 3.84375zm0 0" id="y"/><path d="M2.6094-3.6094C2.609375-3.90625 2.28125-4.125 2-4.125c-.3125 0-.46875.328125-.5625.578125L.5313-.8906C.5-.8125.4375-.65625.4375-.578125s.046875.1875.140625.1875c.125 0 .28125-.1875.34375-.28125l1.4375-2.2656c.125-.1875.25-.4375.25-.671875zm0 0" id="g"/></defs><use href="#s"/><use x="92.479" y="94.382" href="#t"/><use x="98.5044" y="94.382" href="#e"/><use x="102.9637" y="94.382" href="#b"/><use x="108.8457" y="94.382" href="#c"/><use x="114.4407" y="94.382" href="#d"/><use x="120.2031" y="94.382" href="#f"/><use x="128.1055" y="94.382" href="#x"/><use x="139.0325" y="94.382" href="#y"/><use x="98.903" y="71.704" href="#b"/><use x="39.279" y="9.338" href="#d"/><use x="70.558" y="71.704" href="#a"/><use x="141.115" y="46.19" href="#a"/><use x="154.7917" y="46.19" href="#w"/><use x="164.7385" y="46.19" href="#a"/><use x="175.591" y="41.851" href="#g"/><use x="105.171" y="15.007" href="#e"/><use x="110.503" y="15.007" href="#u"/><use x="116.9588" y="15.007" href="#c"/><use x="122.255" y="15.007" href="#v"/><use x="128.7108" y="15.007" href="#f"/><use x="30.917" y="29.181" href="#a"/><use x="41.764" y="24.842" href="#g"/><style>.a{fill:none;stroke:#000;stroke-linecap:butt;stroke-linejoin:miter;stroke-miterlimit:10;stroke-opacity:1;stroke-width:4.72425;transform:matrix(.1,0,0,-.1,.629,107.549)}.b{clip-rule:evenodd}.c{fill:#000;fill-opacity:1;fill-rule:evenodd}.d{fill:none;stroke:#000;stroke-linecap:butt;stroke-linejoin:bevel;stroke-miterlimit:10;stroke-opacity:1;stroke-width:4.72425;transform:matrix(.1,0,0,-.1,.629,107.549)}</style></svg>