<svg xmlns="http://www.w3.org/2000/svg" width="182pt" height="95pt" viewBox="0 0 182 95"><defs><path d="M4.5625.03125v-.32812l-.5781-.03125c-.59375-.03125-.703125-.15625-.703125-.71875v-6.46875L3.125-7.5625c-.703125.359375-1.484375.6875-2.46875 1.046875l.0781.46875H.8438c.46875-.21875.953125-.4375 1.4375-.65625.0625 0 .078125.109375.078125.359375v5.29688c0 .5625-.109375.6875-.703125.71875l-.6094.03125v.32812C1.640625.015625 2.25 0 2.84375 0c.5625 0 1.140625.015625 1.71875.03125zm0 0" id="a"/><path d="M2-.57812c0-.328125-.3125-.625-.640625-.625s-.625.296875-.625.625.296875.625.609375.625C1.6875.04688 2-.23437 2-.57812zm0 0" id="b"/><path d="M5-2.76562c0-1.21875-.875-2.09375-2.125-2.09375-.515625 0-.90625.140625-1.59375.546875l.1094-2.28125 3.3281.04688.0469-.04687C4.75-6.796875 4.75-6.859375 4.75-7.03125s0-.234375.015625-.421875l-.0469-.0625s-1.15625.0625-1.90625.0625c-.734375 0-1.890625-.0625-1.890625-.0625l-.0625.0625.0313 1.48438C.890625-5 .84375-3.984375.8125-3.515625l.2188.0625c.515625-.5.8125-.65625 1.34375-.65625 1.046875 0 1.703125.734375 1.703125 1.921875 0 1.203125-.703125 1.921875-1.890625 1.921875-.578125 0-1.125-.203125-1.28125-.484375l-.5-.89062L.1406-1.5c.25.625.390625.96875.53125 1.453125.3125.171875.75.265625 1.21875.265625.734375 0 1.5-.3125 2.09375-.84375C4.65625-1.203125 5-1.953125 5-2.765625zm0 0" id="c"/><path d="M5.1094.03125c-.03125-.234375-.03125-.34375-.03125-.484375s0-.25.03125-.5l-3.7812.10938L3.3125-2.9375c1.0625-1.125 1.390625-1.734375 1.390625-2.546875 0-1.25-.859375-2.03125-2.234375-2.03125-.796875 0-1.328125.21875-1.859375.765625l-.1875 1.48438h.3125l.1563-.5c.171875-.640625.5625-.90625 1.296875-.90625.9375 0 1.53125.59375 1.53125 1.515625 0 .8125-.453125 1.625-1.6875 2.9375L.1719-.25v.28125C.984375.015625 1.796875 0 2.609375 0c.828125 0 1.671875.015625 2.5.03125zm0 0" id="d"/><path d="M5.0313-2.4375c0-.53125-.203125-.984375-.609375-1.265625-.265625-.1875-.515625-.28125-1.0625-.375C4.234375-4.75 4.5625-5.25 4.5625-5.90625c0-.96875-.8125-1.609375-2.015625-1.609375-.75 0-1.234375.203125-1.765625.734375L.4688-5.4375h.3437L1-6.04687c.125-.359375.8125-.734375 1.375-.734375.71875 0 1.296875.578125 1.296875 1.265625 0 .8125-.65625 1.5-1.421875 1.5-.09375 0-.515625-.03125-.515625-.03125l-.125.57813.0625.0625c.421875-.1875.625-.234375.921875-.234375.90625 0 1.4375.578125 1.4375 1.5625 0 1.125-.671875 1.84375-1.6875 1.84375-.5 0-.953125-.15625-1.28125-.46875C.8125-.9375.671875-1.1875.453125-1.78125l-.2969.10938C.390625-1 .484375-.609375.546875-.0625 1.125.125 1.609375.21875 2 .21875c1.328125 0 3.03125-1.140625 3.03125-2.65625zm0 0" id="e"/><path d="M5.0781-3.98437c0-2.390625-.71875-3.53125-2.203125-3.53125-1.703125 0-2.5625 1.34375-2.5625 3.984375 0 1.28125.234375 2.375.609375 2.90625.390625.53125 1 .84375 1.671875.84375 1.65625 0 2.484375-1.421875 2.484375-4.203125zm-.9219.53125c0 2.328125-.421875 3.296875-1.421875 3.296875-1.0625 0-1.5-1.109375-1.5-3.765625 0-2.3125.40625-3.203125 1.4375-3.203125 1.0625 0 1.484375 1.0625 1.484375 3.671875zm0 0" id="f"/></defs><g style="stroke-width:3.985;stroke:#000;stroke-miterlimit:10;transform:matrix(.1,0,0,-.1,0,95)"><path d="M296.210938 155.625c0 1.132812-.898438 1.992188-1.992188 1.992188s-1.992188-.859376-1.992188-1.992188c0-1.09375.898438-1.992188 1.992188-1.992188s1.992188.898438 1.992188 1.992188zm0 0"/><path d="M408.945312 155.625c0 1.132812-.898437 1.992188-1.992187 1.992188s-1.992187-.859376-1.992187-1.992188c0-1.09375.898437-1.992188 1.992187-1.992188s1.992187.898438 1.992187 1.992188zm0 0"/><path d="M521.679688 155.625c0 1.132812-.898438 1.992188-1.992188 1.992188s-1.992188-.859376-1.992188-1.992188c0-1.09375.898438-1.992188 1.992188-1.992188s1.992188.898438 1.992188 1.992188zm0 0"/><path d="M634.414062 155.625c0 1.132812-.898437 1.992188-1.992187 1.992188s-1.992187-.859376-1.992187-1.992188c0-1.09375.898437-1.992188 1.992187-1.992188s1.992187.898438 1.992187 1.992188zm0 0"/><path d="M747.148438 155.625c0 1.132812-.898438 1.992188-1.992188 1.992188s-1.992188-.859376-1.992188-1.992188c0-1.09375.898438-1.992188 1.992188-1.992188s1.992188.898438 1.992188 1.992188zm0 0"/><path d="M859.882812 155.625c0 1.132812-.898437 1.992188-1.992187 1.992188s-1.992187-.859376-1.992187-1.992188c0-1.09375.898437-1.992188 1.992187-1.992188s1.992187.898438 1.992187 1.992188zm0 0"/><path d="M972.617188 155.625c0 1.132812-.898438 1.992188-1.992188 1.992188s-1.992188-.859376-1.992188-1.992188c0-1.09375.898438-1.992188 1.992188-1.992188s1.992188.898438 1.992188 1.992188zm0 0"/><path d="M1085.351562 155.625c0 1.132812-.898437 1.992188-1.992187 1.992188s-1.992187-.859376-1.992187-1.992188c0-1.09375.898437-1.992188 1.992187-1.992188s1.992187.898438 1.992187 1.992188zm0 0"/><path d="M1198.085938 155.625c0 1.132812-.898438 1.992188-1.992188 1.992188-1.132812 0-1.992188-.859376-1.992188-1.992188 0-1.09375.859376-1.992188 1.992188-1.992188 1.09375 0 1.992188.898438 1.992188 1.992188zm0 0"/><path d="M1310.78125 155.625c0 1.132812-.898438 1.992188-1.992188 1.992188s-1.992187-.859376-1.992187-1.992188c0-1.09375.898437-1.992188 1.992187-1.992188s1.992188.898438 1.992188 1.992188zm0 0"/><path d="M1423.515625 155.625c0 1.132812-.898437 1.992188-1.992187 1.992188s-1.992188-.859376-1.992188-1.992188c0-1.09375.898438-1.992188 1.992188-1.992188s1.992187.898438 1.992187 1.992188zm0 0"/><path d="M1536.25 155.625c0 1.132812-.898438 1.992188-1.992188 1.992188s-1.992187-.859376-1.992187-1.992188c0-1.09375.898437-1.992188 1.992187-1.992188s1.992188.898438 1.992188 1.992188zm0 0"/><path d="M1648.984375 155.625c0 1.132812-.898437 1.992188-1.992187 1.992188S1645 156.757812 1645 155.625c0-1.09375.898438-1.992188 1.992188-1.992188s1.992187.898438 1.992187 1.992188zm0 0"/></g><path d="M23.5352 76.44922h.6016v6h-.6016zm0 0"/><path d="M96.8086 76.44922h.6016v6h-.6016zm0 0"/><path d="M170.0859 76.44922h.6016v6h-.6016zm0 0"/><path d="M237.851562 155.625v708.203125" style="fill:none;stroke-width:3.985;stroke:#000;stroke-miterlimit:10;transform:matrix(.1,0,0,-.1,0,95)"/><path d="M20.7734 79.08984h6v.60156h-6zm0 0"/><path d="M20.7734 55.48047h6v.60156h-6zm0 0"/><path d="M20.7734 31.875h6v.60156h-6zm0 0"/><path d="M20.7734 8.26953h6v.60156h-6zm0 0"/><use x="6.1211" y="83.1559" href="#a"/><use x="11.5211" y="83.1559" href="#b"/><use x="14.2813" y="83.1559" href="#c"/><use x="14.4012" y="59.5493" href="#d"/><use x="6.1211" y="35.8227" href="#d"/><use x="11.5211" y="35.8227" href="#b"/><use x="14.2813" y="35.8227" href="#c"/><use x="14.4012" y="12.2161" href="#e"/><use x="21.0262" y="90.8618" href="#f"/><use x="167.5762" y="91.10164" href="#a"/><g style="fill:none;stroke-width:7.9701;stroke:#000;stroke-miterlimit:10;transform:matrix(.1,0,0,-.1,0,95)"><path d="M237.851562 155.625 970.625 391.71875"/><path d="M970.625 509.726562l244.21875 78.710938"/><path d="M1214.84375 647.460938l122.148438 39.335937"/><path d="M1336.992188 716.289062l73.28125 23.59375"/><path d="M1410.273438 754.648438l48.828124 15.742187"/><path d="M1459.101562 777.773438l34.921876 11.25"/><path d="M1494.023438 792.695312l26.171874 8.4375"/><path d="M1520.195312 802.96875l20.351563 6.5625"/><path d="M1540.546875 810.429688l16.289063 5.273437"/><path d="M1556.835938 816.171875l13.28125 4.296875"/><path d="M1570.117188 820.703125l11.132812 3.554687"/><path d="M1581.25 824.375l9.375 3.046875"/><path d="M1590.625 827.460938l8.046875 2.578124"/><path d="M1598.671875 830.078125l6.992187 2.265625"/><path d="M1605.664062 832.34375l6.09375 1.992188"/><path d="M1611.757812 834.335938l5.429688 1.71875"/><path d="M1617.1875 836.054688l4.765625 1.5625"/><path d="M1621.953125 837.617188l4.257813 1.367187"/><path d="M1626.210938 838.984375l3.90625 1.25"/><path d="M1630.117188 840.234375l73.242187 23.59375"/></g></svg>