<svg xmlns="http://www.w3.org/2000/svg" width="220pt" height="166pt" viewBox="0 0 220 166"><defs><path d="M6.1406-1.0156l-.1094-.2187-.3125.2031c-.359375.234375-.609375.359375-.734375.359375-.078125 0-.15625-.109375-.15625-.234375 0-.0625.015625-.1875.03125-.234375l.7813-3.3125c.078125-.34375.125-.671875.125-.875 0-.28125-.125-.4375-.359375-.4375-.5 0-1.328125.453125-2.03125 1.109375-.453125.421875-.796875.828125-1.421875 1.703125L2.4219-4.875c.046875-.21875.0625-.359375.0625-.484375 0-.265625-.09375-.40625-.265625-.40625C1.953125-5.765625 1.5-5.5.625-4.875l-.3437.2344.0938.2344.375-.25c.4375-.28125.484375-.296875.5625-.296875.140625 0 .21875.125.21875.296875 0 .609375-.484375 2.921875-.984375 4.625l.0938.1406c.296875-.078125.5625-.15625.828125-.203125.234225-1.51565.484225-2.281275 1.0311-3.1094.65625-1 1.546875-1.75 2.078125-1.75.125 0 .203125.109375.203125.296875 0 .203125-.03125.453125-.125.84375l-.625 2.5313c-.109375.43745-.15625.7187-.15625.9062 0 .296875.125.484375.359375.484375.3125 0 .734375-.25 1.90625-1.125zm0 0" id="b"/><path d="M3.6563.0313v-.2656l-.4531-.0312c-.484375-.03125-.5625-.125-.5625-.578125v-5.2031l-.125-.0312c-.5625.296875-1.1875.5625-1.984375.84375l.0625.375h.0781c.390625-.1875.78125-.359375 1.15625-.515625.0625 0 .078125.078125.078125.28125v4.25c0 .453125-.09375.546875-.578125.578125l-.4844.0313V.0313C1.328125.015625 1.8125 0 2.28125 0s.921875.015625 1.375.03125zm0 0" id="c"/><path d="M.7813 2.4219h.6563L5.0157-8.8906h-.6719zm0 0" id="d"/><path d="M4.5-.75l-.0781-.1562-.2344.1562c-.25.15625-.4375.265625-.53125.265625-.0625 0-.109375-.078125-.109375-.1875 0-.03125 0-.140625.015625-.171875l.5781-2.4219c.0625-.25.09375-.5.09375-.640625 0-.203125-.09375-.3125-.265625-.3125-.375 0-.984375.328125-1.5.8125-.328125.296875-.578125.59375-1.03125 1.234375l.3281-1.4062c.046875-.15625.0625-.265625.0625-.359375 0-.1875-.078125-.28125-.203125-.28125-.1875 0-.53125.1875-1.171875.640625l-.25.1719.0625.1875.2813-.1875C.875-3.625.90625-3.625.96875-3.625c.09375 0 .15625.078125.15625.21875 0 .4375-.359375 2.140625-.71875 3.390625l.0625.0938C.6875.015625.890625-.03125 1.078125-.0625c.171875-1.109375.359375-1.6875.75-2.28125C2.3125-3.078125 2.96875-3.625 3.359375-3.625c.09375 0 .140625.078125.140625.203125 0 .15625-.015625.34375-.09375.625L2.9531-.9375c-.078125.328125-.109375.53125-.109375.671875 0 .21875.09375.34375.265625.34375.21875 0 .53125-.1875 1.390625-.828125zm0 0" id="e"/><path id="a" d="M147.8125 1571.6016c0 8.28125-6.71875 14.960938-14.960938 14.960938-8.242187 0-14.960937-6.679688-14.960937-14.960938 0-8.242187 6.71875-14.921874 14.960937-14.921874 8.242188 0 14.960938 6.679687 14.960938 14.921874zm0 0"/></defs><g class="a"><path d="M132.851562 238.28125h28.59375"/><path d="M218.554688 238.28125h28.59375"/><path d="M247.148438 238.28125h28.554687"/><path d="M332.851562 238.28125h28.59375"/><path d="M361.445312 238.28125H390"/><path d="M447.148438 238.28125h28.554687"/><path d="M475.703125 238.28125h28.59375"/><path d="M561.445312 238.28125H590"/><path d="M590 238.28125h28.59375"/><path d="M675.703125 238.28125h28.59375"/><path d="M704.296875 238.28125h28.554687"/><path d="M790 238.28125h28.59375"/><path d="M818.59375 238.28125h28.554688"/><path d="M904.296875 238.28125h28.554687"/><path d="M932.851562 238.28125h28.59375"/><path d="M1018.59375 238.28125h28.554688"/><path d="M1047.148438 238.28125h28.59375"/><path d="M1132.890625 238.28125h28.554687"/><path d="M1161.445312 238.28125h28.59375"/><path d="M1247.148438 238.28125h28.59375"/><path d="M1275.742188 238.28125h28.554687"/><path d="M1361.445312 238.28125h28.59375"/><path d="M1390.039062 238.28125h28.554688"/><path d="M1475.742188 238.28125h28.554687"/><path d="M1504.296875 238.28125h28.554687"/><path d="M1590.039062 238.28125h28.554688"/><path d="M1618.59375 238.28125h28.554688"/><path d="M1704.296875 238.28125h28.59375"/><path d="M1732.890625 238.28125h28.554687"/><path d="M1818.59375 238.28125h28.554688"/><path d="M1847.148438 238.28125h28.59375"/><path d="M1932.890625 238.28125h28.554687"/><path d="M1961.445312 238.28125h28.59375"/><path d="M2047.1875 238.28125h28.554688"/><path d="M2075.742188 238.28125h28.554687"/><path d="M2161.445312 238.28125h28.59375"/></g><path d="M13.0313 139.1836h.6016v6h-.6016zm0 0"/><path d="M218.75 139.1836h.6016v6h-.6016zm0 0"/><g class="a"><path d="M132.851562 238.28125v27.773438"/><path d="M132.851562 321.601562V349.375"/><path d="M132.851562 349.375v27.773438"/><path d="M132.851562 432.734375v27.773437"/><path d="M132.851562 460.507812v27.773438"/><path d="M132.851562 543.828125v27.773437"/><path d="M132.851562 571.601562V599.375"/><path d="M132.851562 654.921875v27.773437"/><path d="M132.851562 682.695312v27.8125"/><path d="M132.851562 766.054688v27.773437"/><path d="M132.851562 793.828125v27.773437"/><path d="M132.851562 877.148438v27.773437"/><path d="M132.851562 904.921875v27.8125"/><path d="M132.851562 988.28125v27.773438"/><path d="M132.851562 1016.054688v27.773437"/><path d="M132.851562 1099.414062v27.773438"/><path d="M132.851562 1127.1875v27.773438"/><path d="M132.851562 1210.507812v27.773438"/><path d="M132.851562 1238.28125v27.773438"/><path d="M132.851562 1321.601562V1349.375"/><path d="M132.851562 1349.375v27.8125"/><path d="M132.851562 1432.734375v27.773437"/><path d="M132.851562 1460.507812v27.773438"/><path d="M132.851562 1543.828125v27.773437"/></g><path d="M10.2734 141.8242h6v.6016h-6zm0 0"/><path d="M10.2734 8.4883h6v.6016h-6zm0 0"/><g stroke-width="7.9701" stroke-miterlimit="10" transform="matrix(.1 0 0 -.1 0 166)"><g stroke="#000"><g fill="none"><path d="M132.851562 1571.601562 818.59375 238.28125"/><path d="M818.59375 238.28125h1371.445312"/></g><path d="M147.8125 238.28125c0 8.242188-6.71875 14.921875-14.960938 14.921875-8.242187 0-14.960937-6.679687-14.960937-14.921875s6.71875-14.960938 14.960937-14.960938c8.242188 0 14.960938 6.71875 14.960938 14.960938zm0 0"/></g><use fill="#fff" stroke="#fff" href="#a"/><use fill="none" stroke="#000" href="#a"/></g><use x="2.6059" y="11.598" href="#b"/><use x="75.0184" y="151.253" href="#c"/><use x="78.1383" y="153.5331" href="#d"/><use x="83.2984" y="153.5331" href="#e"/><style>.a{fill:none;stroke:#000;stroke-miterlimit:10;stroke-width:3.985;transform:matrix(.1,0,0,-.1,0,166)}</style></svg>