<svg xmlns="http://www.w3.org/2000/svg" width="274pt" height="134pt" viewBox="0 0 274 134"><defs><path d="M5.5625-4.375c0-2.625-.78125-3.859375-2.421875-3.859375-1.84375 0-2.796875 1.46875-2.796875 4.359375 0 1.40625.25 2.609375.671875 3.1875.421875.59375 1.09375.921875 1.828125.921875C4.65625.234375 5.5625-1.3125 5.5625-4.375zm-1.0156.5938C4.546875-1.234375 4.09375-.171875 3-.171875c-1.15625 0-1.65625-1.21875-1.65625-4.125 0-2.53125.453125-3.515625 1.578125-3.515625 1.171875 0 1.625 1.171875 1.625 4.03125zm0 0" id="b"/><path d="M5 .0313v-.3594l-.625-.0312c-.65625-.03125-.78125-.171875-.78125-.78125v-7.0937l-.1562-.0625c-.78125.40625-1.625.765625-2.71875 1.15625l.0781.5h.125c.531225-.2345 1.04685-.468875 1.5781-.70325.0625 0 .09375.109375.09375.40625v5.7969c0 .609375-.125.75-.78125.78125l-.6719.0313V.0313C1.8125.015625 2.46875 0 3.125 0 3.734375 0 4.375.015625 5 .03125zm0 0" id="c"/><path d="M5.5938.0313C5.5625-.21875 5.5625-.328125 5.5625-.5c0-.15625 0-.28125.03125-.546875l-4.1406.125 2.1875-2.3125c1.15625-1.21875 1.515625-1.875 1.515625-2.78125 0-1.375-.9375-2.21875-2.453125-2.21875-.8594 0-1.45315.234375-2.031275.828125L.4688-5.7656h.3437l.1563-.5625c.1875-.6875.625-.984375 1.421875-.984375 1.03125 0 1.6875.640625 1.6875 1.65625 0 .90625-.5 1.78125-1.859375 3.21875L.1875-.2812v.3125C1.078125.015625 1.96875 0 2.859375 0 3.765625 0 4.6875.015625 5.59375.03125zm0 0" id="d"/><path d="M5.5156-2.6719c0-.578125-.234375-1.078125-.65625-1.375-.3125-.21875-.578125-.3125-1.171875-.421875.953125-.75 1.3125-1.296875 1.3125-2 0-1.0625-.890625-1.765625-2.21875-1.765625-.8125 0-1.34375.21875-1.921875.796875l-.3437 1.4844h.375L1.0938-6.625c.140625-.40625.890625-.8125 1.515625-.8125.765625 0 1.40625.640625 1.40625 1.390625 0 .890625-.703125 1.640625-1.546875 1.640625-.109375 0-.5625-.03125-.5625-.03125l-.1563.6406.0938.0625C2.296875-3.9375 2.515625-4 2.84375-4c1 0 1.5625.640625 1.5625 1.734375C4.40625-1.046875 3.6875-.25 2.5625-.25c-.546875 0-1.03125-.1875-1.390625-.515625-.28125-.265625-.4375-.53125-.671875-1.1875l-.3281.125c.265625.734375.359375 1.15625.421875 1.75.640625.21875 1.15625.3125 1.609375.3125 1.4375 0 3.3125-1.25 3.3125-2.90625zm0 0" id="e"/><path d="M5.6406.0313v-.3594l-.5781-.0313c-.578125-.03125-.71875-.1875-.71875-.90625v-.8906c.71875 0 .96875 0 1.296875.046875v-.8594s-.578125.046875-.96875.046875H4.3438v-1.6718c0-2.125.03125-3.15625.09375-3.640625l-.1406-.0625-.8906.3281-3.375 5.5313.125.2813h3.1875v.8906c0 .71875-.125.890625-.71875.90625l-.7344.0313V.0313C2.53125.015625 3.171875 0 3.8125 0c.609375 0 1.21875.015625 1.828125.03125zM3.3438-2.9219H.7813l2.5625-4.2187zm0 0" id="f"/><path d="M5.4844-3.0312c0-1.34375-.96875-2.296875-2.328125-2.296875-.578125 0-1 .15625-1.75.59375l.1094-2.5 3.6406.0625.0625-.0625c-.015625-.21875-.015625-.28125-.015625-.46875s0-.25.015625-.46875l-.0625-.0625s-1.265625.0625-2.078125.0625S1-8.234375 1-8.234375l-.0625.0625.0313 1.6406c0 1.046875-.03125 2.15625-.078125 2.6875l.25.0625c.5625-.5625.875-.71875 1.46875-.71875C3.75-4.5 4.46875-3.6875 4.46875-2.40625c0 1.328125-.765625 2.109375-2.0625 2.109375-.65625 0-1.25-.21875-1.421875-.53125L.4375-1.8125l-.2812.1719C.43755-.9531.578175-.5781.734425-.04685c.34375.171875.8125.28125 1.328125.28125.8125 0 1.65625-.34375 2.3125-.921875.734375-.640625 1.109375-1.453125 1.109375-2.34375zm0 0" id="g"/><path d="M5.5938-2.625C5.59375-4 4.765625-4.890625 3.5-4.890625c-.703125 0-1.140625.28125-1.9375.9375.25-2.171875 1.265625-3.34375 3.40625-3.984375v-.0937l-.4375-.2031c-1.15625.375-1.640625.625-2.25 1.140625C1.046875-6.046875.375-4.59375.375-2.953125c0 1.96875.96875 3.1875 2.5 3.1875 1.5625 0 2.71875-1.21875 2.71875-2.859375zm-1.0312.4219c0 1.25-.609375 2.046875-1.53125 2.046875-1.015625 0-1.5625-.875-1.5625-2.46875 0-.421875.046875-.65625.1875-.859375.25-.40625.8125-.6875 1.390625-.6875.90625 0 1.515625.796875 1.515625 1.96875zm0 0" id="h"/><path d="M5.9375-7.875v-.3594c-1.28125.046875-1.390625.0625-2.671875.0625-1.25 0-1.453125-.015625-2.625-.0625l-.1094.0625s.03125.765625.03125 1.25-.03125 1.21875-.03125 1.21875h.3594L.9688-6.375c.09375-.734375.171875-.828125.734375-.828125h3.1875c-.484375.96875-.84375 1.671875-1.3125 2.390625L.6719-.125.7813.0313S1.109375 0 1.328125 0 1.875.03125 1.875.03125c.5-1.296875.8125-2.078125 1.875-3.96875zm0 0" id="i"/><path d="M5.5469-2.4687c0-.953125-.4375-1.46875-1.8125-2.078125 1.09375-.75 1.484375-1.25 1.484375-1.96875 0-1.03125-.859375-1.71875-2.125-1.71875-1.421875 0-2.453125.90625-2.453125 2.15625 0 .8125.3125 1.265625 1.375 1.953125-.5.234375-.703125.359375-.96875.609375-.453125.453125-.6875 1-.6875 1.609375 0 1.234375.984375 2.140625 2.34375 2.140625 1.546875 0 2.84375-1.21875 2.84375-2.703125zm-.9375.5156c0 1-.765625 1.78125-1.734375 1.78125-1.015625 0-1.671875-.71875-1.671875-1.828125 0-.875.34375-1.421875 1.234375-1.953125l.9531.4219c.75.34375 1.21875.921875 1.21875 1.578125zm-.2031-4.4375c0 .6875-.3125 1.15625-1.078125 1.65625l-.6562-.3281C1.90625-5.421875 1.53125-5.90625 1.53125-6.5c0-.796875.578125-1.328125 1.421875-1.328125.875 0 1.453125.578125 1.453125 1.4375zm0 0" id="j"/><path d="M5.4688-4.9844c0-2.015625-.96875-3.25-2.546875-3.25-1.53125 0-2.6875 1.1875-2.6875 2.796875 0 1.375.90625 2.375 2.140625 2.375.40625 0 .875-.125 1.09375-.3125l.8281-.6875c-.09375 2-1.390625 3.484375-3.5625 4v.0938l.4063.2031c1.32805-.421875 1.906175-.703125 2.5468-1.25 1.171875-1 1.78125-2.359375 1.78125-3.96875zM4.4219-5.625c0 1.09375-.625 1.828125-1.546875 1.828125-.96875 0-1.609375-.84375-1.609375-2.078125 0-1.21875.625-1.96875 1.609375-1.96875.53125 0 .921875.234375 1.1875.703125.21875.390625.359375.96875.359375 1.515625zm0 0" id="k"/><path d="M2.1875-3.2344c0-.359375-.328125-.703125-.703125-.703125-.359375 0-.6875.34375-.6875.703125s.3125.6875.6875.6875.703125-.328125.703125-.6875zm0 0" id="a"/></defs><g class="a"><g fill="none"><path d="M327.578125 164.023438H561.09375v1167.578124H327.578125zm0 0"/><path d="M561.09375 164.023438h233.515625V747.8125H561.09375zm0 0"/><path d="M794.609375 164.023438H1028.125v389.21875H794.609375zm0 0"/><path d="M1028.125 164.023438h233.515625V455.9375H1028.125zm0 0"/><path d="M1261.640625 164.023438h233.515625v233.515624h-233.515625zm0 0"/><path d="M1495.15625 164.023438h233.515625v194.609374H1495.15625zm0 0"/><path d="M1728.671875 164.023438H1962.1875v166.796874h-233.515625zm0 0"/><path d="M1962.1875 164.023438h233.515625V310H1962.1875zm0 0"/><path d="M2195.703125 164.023438h233.515625v129.765624h-233.515625zm0 0"/></g><g fill="#e5e5e5"><path d="M327.578125 164.023438H561.09375V747.8125H327.578125zm0 0"/><path d="M561.09375 164.023438h233.515625v389.21875H561.09375zm0 0"/><path d="M794.609375 164.023438H1028.125V455.9375H794.609375zm0 0"/><path d="M1028.125 164.023438h233.515625v233.515624H1028.125zm0 0"/><path d="M1261.640625 164.023438h233.515625v194.609374h-233.515625zm0 0"/><path d="M1495.15625 164.023438h233.515625v166.796874H1495.15625zm0 0"/><path d="M1728.671875 164.023438H1962.1875V310h-233.515625zm0 0"/></g></g><path fill="#e5e5e5" d="M196.2188 117.5977h23.3516V104.625h-23.3516zm0 0"/><g class="a"><path fill="none" d="M1962.1875 164.023438h233.515625v129.765624H1962.1875zm0 0"/><path fill="#e5e5e5" d="M2195.703125 164.023438h233.515625v116.796874h-233.515625zm0 0"/><path fill="none" d="M94.0625 164.023438h2335.15625"/></g><path d="M9.1523 114.6094h.6016v6h-.6016zm0 0"/><path d="M242.6719 114.6094h.6016v6h-.6016zm0 0"/><path d="M94.0625 164.023438v1167.578124" style="fill:none;stroke-width:3.985;stroke:#000;stroke-miterlimit:10;transform:matrix(.1,0,0,-.1,0,134)"/><path d="M6.3945 117.25h6v.6016h-6zm0 0"/><path d="M6.3945.4883h6v.6016h-6zm0 0"/><path d="M327.578125 1331.601562l52.539063-214.453124 52.539062-147.890626 52.539062-108.164062 52.539063-82.539062 52.539063-65.078126 52.539062-52.578124 52.539062-43.4375 52.539063-36.445313L800.429688 550l52.539062-26.71875 52.539062-23.242188 52.578126-20.429687 52.539062-18.085937 52.5-16.132813 52.578125-14.492187 52.539063-13.046876 52.539062-11.835937 52.539062-10.78125 52.539063-9.84375 52.539063-9.0625 52.539062-8.359375 52.539062-7.695312 52.539063-7.148438 52.539063-6.640625 52.539062-6.210937 52.539062-5.78125 52.539063-5.429688 52.539063-5.078125 52.578124-4.804687 52.539063-4.492188 52.5-4.257812 52.578125-3.984376 52.539062-3.828124 52.539063-3.59375 52.539063-3.4375 52.539062-3.242188 52.539062-3.085938 52.539063-2.96875 52.539063-2.8125 52.539062-2.65625" style="fill:none;stroke-width:7.9701;stroke:#000;stroke-miterlimit:10;transform:matrix(.1,0,0,-.1,0,134)"/><use x="6.4051" y="129.8621" href="#b"/><use x="29.7567" y="129.982" href="#c"/><use x="53.1087" y="129.8621" href="#d"/><use x="76.4603" y="129.8621" href="#e"/><use x="99.8118" y="129.982" href="#f"/><use x="123.1638" y="129.8621" href="#g"/><use x="146.5154" y="129.8621" href="#h"/><use x="169.8674" y="129.8621" href="#i"/><use x="193.219" y="129.8621" href="#j"/><use x="216.571" y="129.8621" href="#k"/><use x="236.9228" y="129.982" href="#c"/><use x="242.9228" y="129.982" href="#b"/><use x="247.0279" y="113.6789" href="#a"/><use x="252.308" y="113.6789" href="#a"/><use x="257.4681" y="113.6789" href="#a"/><style>.a{stroke:#000;stroke-miterlimit:10;stroke-width:3.985;transform:matrix(.1,0,0,-.1,0,134)}</style></svg>