<svg xmlns="http://www.w3.org/2000/svg" width="311pt" height="131pt" viewBox="0 0 311 131"><defs><clipPath id="c"><path d="M65 0h1v130.5508h-1zm0 0"/></clipPath><clipPath id="d"><path d="M62 129h7v1.5508h-7zm0 0"/></clipPath><clipPath id="e"><path d="M0 53h77v77.5508H0zm0 0"/></clipPath><clipPath id="f"><path d="M53 0h56v45H53zm0 0"/></clipPath><clipPath id="g"><path d="M0 0h132v131H0z"/></clipPath><g id="m" clip-path="url(#g)"><path d="M12.01125 653.615h1296.015625" class="b"/><g class="a"><path d="M.1992 62.1992h.6016v6H.1992zm0 0"/><path d="M65 62.1992h.6016v6H65zm0 0"/><path d="M129.8008 62.1992h.6016v6h-.6016zm0 0"/></g><g clip-path="url(#c)"><path d="M660.019062 5.607188v1296.015625" class="b"/></g><g class="a"><path d="M62.2383 129.6406h6v.6016h-6zm0 0" clip-path="url(#d)"/><path d="M62.2383 64.8398h6v.6016h-6zm0 0"/><path d="M62.2383.0391h6v.6015h-6zm0 0"/></g><g clip-path="url(#e)"><path d="M12.01125 5.607188 660.019062 653.615" class="c"/></g><g clip-path="url(#f)"><path d="M660.019062 977.638438l323.984375 323.984375" class="c"/></g><g style="stroke-width:7.9701;stroke-linecap:butt;stroke-linejoin:miter;stroke-opacity:1;stroke-miterlimit:10;transform:matrix(.1,0,0,-.1,-.748,130.549)"><use href="#a" class="d"/><use href="#a" class="e"/><path d="M674.940937 977.638438c0 8.242187-6.679687 14.921875-14.921875 14.921875-8.28125 0-14.960937-6.679688-14.960937-14.921875 0-8.28125 6.679687-14.960938 14.960937-14.960938 8.242188 0 14.921875 6.679688 14.921875 14.960938zm0 0" class="f"/></g></g><clipPath id="h"><path d="M66 0h1v130.5508h-1zm0 0"/></clipPath><clipPath id="i"><path d="M63 129h7v1.5508h-7zm0 0"/></clipPath><clipPath id="j"><path d="M.75 53H79v77.5508H.75zm0 0"/></clipPath><clipPath id="k"><path d="M87 21h45v56H87zm0 0"/></clipPath><clipPath id="l"><path d="M0 0h132v131H0z"/></clipPath><g id="n" clip-path="url(#l)"><path d="M12.002187 653.615h1296.015625" class="g"/><g class="a"><path d="M1.6953 62.1992h.6016v6h-.6016zm0 0"/><path d="M66.4961 62.1992h.6016v6h-.6016zm0 0"/><path d="M131.3008 62.1992h.6016v6h-.6016zm0 0"/></g><g clip-path="url(#h)"><path d="M660.01 5.607188v1296.015625" class="g"/></g><g class="a"><path d="M63.7383 129.6406h6v.6016h-6zm0 0" clip-path="url(#i)"/><path d="M63.7383 64.8398h6v.6016h-6zm0 0"/><path d="M63.7383.0391h6v.6015h-6zm0 0"/></g><g clip-path="url(#j)"><path d="M12.002187 5.607188 660.01 653.615" class="h"/></g><g clip-path="url(#k)"><path d="M984.033437 653.615l323.984375 324.023438" class="h"/></g><g style="stroke-width:7.9701;stroke-linecap:butt;stroke-linejoin:miter;stroke-opacity:1;stroke-miterlimit:10;transform:matrix(.1,0,0,-.1,.749,130.549)"><use href="#b" class="d"/><use href="#b" class="e"/><path d="M998.955312 653.615c0 8.242188-6.679687 14.921875-14.921875 14.921875-8.28125 0-14.960937-6.679687-14.960937-14.921875 0-8.28125 6.679687-14.960937 14.960937-14.960937 8.242188 0 14.921875 6.679687 14.921875 14.960937zm0 0" class="f"/></g></g><path id="a" d="M674.9409 653.615c0 8.242188-6.679687 14.921875-14.921875 14.921875-8.28125 0-14.960937-6.679687-14.960937-14.921875 0-8.28125 6.679687-14.960937 14.960937-14.960937 8.242188 0 14.921875 6.679687 14.921875 14.960937zm0 0"/><path id="b" d="M674.9319 653.615c0 8.242188-6.679688 14.921875-14.921875 14.921875-8.242188 0-14.960938-6.679687-14.960938-14.921875 0-8.28125 6.71875-14.960937 14.960938-14.960937 8.242187 0 14.921875 6.679687 14.921875 14.960937zm0 0"/></defs><use href="#m"/><use transform="translate(179)" href="#n"/><style>.a{fill:#000;fill-opacity:1;fill-rule:nonzero}.b{fill:none;stroke:#000;stroke-linecap:butt;stroke-linejoin:miter;stroke-miterlimit:10;stroke-opacity:1;stroke-width:3.985;transform:matrix(.1,0,0,-.1,-.748,130.549)}.c{fill:none;stroke:#000;stroke-linecap:butt;stroke-linejoin:miter;stroke-miterlimit:10;stroke-opacity:1;stroke-width:7.9701;transform:matrix(.1,0,0,-.1,-.748,130.549)}.d{fill:#fff;fill-opacity:1;fill-rule:nonzero;stroke:#fff}.e{fill:none;stroke:#000}.f{fill:#000;fill-opacity:1;fill-rule:nonzero;stroke:#000}.g{fill:none;stroke:#000;stroke-linecap:butt;stroke-linejoin:miter;stroke-miterlimit:10;stroke-opacity:1;stroke-width:3.985;transform:matrix(.1,0,0,-.1,.749,130.549)}.h{fill:none;stroke:#000;stroke-linecap:butt;stroke-linejoin:miter;stroke-miterlimit:10;stroke-opacity:1;stroke-width:7.9701;transform:matrix(.1,0,0,-.1,.749,130.549)}</style></svg>