<svg xmlns="http://www.w3.org/2000/svg" width="422pt" height="163pt" viewBox="0 0 422 163"><defs><clipPath id="a4"><path d="M.0273 24H8v13H.0273zm0 0"/></clipPath><clipPath id="a5"><path d="M17 .5508h142V26H17zm0 0"/></clipPath><clipPath id="a6"><path d="M68 .5508h135.0273V102H68zm0 0"/></clipPath><clipPath id="a7"><path d="M0 0h204v163H0z"/></clipPath><g id="aa" clip-path="url(#a7)"><path d="M582.014688 251.622813h1440" class="d"/><g class="a"><path d="M57.9766 143.3984h.6016v6h-.6016zm0 0"/><path d="M129.9766 143.3984h.6016v6h-.6016zm0 0"/><path d="M201.9805 143.3984h.6016v6h-.6016zm0 0"/></g><path d="M582.014688 251.622813v1440" class="d"/><g class="a"><path d="M55.2188 146.0391h6v.6016h-6zm0 0"/><path d="M55.2188 74.0391h6v.6016h-6zm0 0"/><path d="M55.2188 2.0391h6v.6016h-6zm0 0"/></g><g style="stroke-width:3.985;stroke-linecap:butt;stroke-linejoin:miter;stroke:#000;stroke-opacity:1;stroke-miterlimit:10;transform:matrix(.1,0,0,-.1,.029,171.549)"><path fill="none" d="M596.42875 677.325938l1137.578125 907.578125"/><g class="a"><path d="M889.944375 895.607188c0 11.015625-8.90625 19.921875-19.921875 19.921875s-19.921875-8.90625-19.921875-19.921875 8.90625-19.921875 19.921875-19.921875 19.921875 8.90625 19.921875 19.921875zm0 0"/><path d="M1537.952188 1412.599375c0 10.976563-8.945313 19.921875-19.921875 19.921875-11.015625 0-19.921875-8.945312-19.921875-19.921875 0-11.015625 8.90625-19.960937 19.921875-19.960937 10.976562 0 19.921875 8.945312 19.921875 19.960937zm0 0"/></g><g fill="none"><path d="M870.0225 895.607188V868.77125"/><path d="M870.0225 815.099375v-26.835937"/><path d="M870.0225 788.263438V761.4275"/><path d="M870.0225 707.755625v-26.835937"/><path d="M870.0225 680.919688v-26.796875"/><path d="M870.0225 600.450938V573.615"/><path d="M870.0225 573.615v-26.835937"/><path d="M870.0225 493.107188V466.27125"/><path d="M870.0225 466.27125v-26.835937"/><path d="M870.0225 385.763438V358.9275"/><path d="M870.0225 358.9275v-26.835937"/><path d="M870.0225 278.419688v-26.796875"/><path d="M1518.030313 1412.599375v-29.023437"/><path d="M1518.030313 1325.529063v-29.0625"/><path d="M1518.030313 1296.466563v-28.984375"/><path d="M1518.030313 1209.39625v-29.023437"/><path d="M1518.030313 1180.372813v-29.023438"/><path d="M1518.030313 1093.3025v-28.984375"/><path d="M1518.030313 1064.318125v-29.0625"/><path d="M1518.030313 977.20875v-29.023437"/><path d="M1518.030313 948.185313v-29.023438"/><path d="M1518.030313 861.115v-29.023437"/><path d="M1518.030313 832.091563v-29.023438"/><path d="M1518.030313 745.02125v-29.023437"/><path d="M1518.030313 715.997813v-29.023438"/><path d="M1518.030313 628.9275v-29.023437"/><path d="M1518.030313 599.904063v-29.023438"/><path d="M1518.030313 512.83375v-29.023437"/><path d="M1518.030313 483.810313v-29.023438"/><path d="M1518.030313 396.74v-29.023437"/><path d="M1518.030313 367.716563v-29.0625"/><path d="M1518.030313 280.64625v-29.023437"/></g></g><g class="b"><use x="65.1899" y="159.4931" href="#w"/><use x="75.0297" y="159.4931" href="#y"/><use x="87.2695" y="159.4931" href="#U"/><use x="93.8695" y="159.4931" href="#z"/><use x="98.5496" y="159.4931" href="#x"/><use x="105.1496" y="159.4931" href="#A"/><use x="125.4305" y="159.4931" href="#w"/><use x="131.7903" y="161.2931" href="#B"/><use x="139.9505" y="159.4931" href="#y"/><use x="152.1903" y="159.4931" href="#U"/><use x="158.7902" y="159.4931" href="#z"/><use x="163.4703" y="159.4931" href="#x"/><use x="169.5903" y="161.2931" href="#B"/><use x="174.3903" y="159.4931" href="#A"/></g><g class="d"><path d="M870.0225 895.607188h-24.023437"/><path d="M798.030313 895.607188h-24.023438"/><path d="M774.006875 895.607188H750.0225"/><path d="M702.014688 895.607188H677.99125"/><path d="M677.99125 895.607188h-23.984375"/><path d="M605.999063 895.607188h-23.984375"/><path d="M1518.030313 1412.599375H1488.7725"/><path d="M1430.256875 1412.599375h-29.257812"/><path d="M1400.999063 1412.599375h-29.21875"/><path d="M1313.264688 1412.599375h-29.257813"/><path d="M1284.006875 1412.599375h-29.257812"/><path d="M1196.2725 1412.599375h-29.257812"/><path d="M1167.014688 1412.599375h-29.257813"/><path d="M1079.24125 1412.599375h-29.21875"/><path d="M1050.0225 1412.599375h-29.257812"/><path d="M962.249063 1412.599375h-29.21875"/><path d="M933.030313 1412.599375H903.7725"/><path d="M845.256875 1412.599375h-29.257812"/><path d="M815.999063 1412.599375h-29.21875"/><path d="M728.264688 1412.599375h-29.257813"/><path d="M699.006875 1412.599375h-29.257812"/><path d="M611.2725 1412.599375h-29.257812"/></g><g class="b"><use x="11.645" y="84.8689" href="#V"/><use x="17.2848" y="84.8689" href="#z"/><use x="21.7247" y="84.8689" href="#w"/><use x="28.3247" y="84.8689" href="#A"/><use x="35.7645" y="84.8689" href="#y"/><use x="47.6446" y="84.8689" href="#x"/></g><g clip-path="url(#a4)"><use x="2.6446" y="33.1709" href="#V" class="b"/></g><g fill-opacity="1"><g fill="#000"><use x="8.1645" y="33.1709" href="#z"/><use x="12.6044" y="33.1709" href="#w"/><use x="18.9645" y="34.9709" href="#B"/><use x="23.8845" y="33.1709" href="#A"/><use x="31.3243" y="33.1709" href="#y"/><use x="43.3243" y="33.1709" href="#x"/><use x="49.4446" y="34.9709" href="#B"/></g><path d="M17.9531.8281h140.5195v24.4805H17.9531zm0 0" fill-rule="nonzero" fill="#fff" clip-path="url(#a5)"/><g fill="#000"><use x="20.9669" y="15.938" href="#ac"/><use x="25.647" y="15.938" href="#ad"/><use x="28.7669" y="15.938" href="#ae"/><use x="34.7669" y="15.938" href="#af"/><use x="41.3669" y="15.938" href="#ag"/><use x="49.2868" y="15.938" href="#W"/><use x="62.0067" y="9.938" href="#X"/><use x="65.6067" y="9.938" href="#E"/><use x="68.6067" y="9.938" href="#C"/><use x="72.9266" y="9.938" href="#F"/><use x="75.6868" y="9.938" href="#G"/><use x="82.1665" y="9.938" href="#X"/><use x="86.0063" y="9.938" href="#E"/><use x="89.0063" y="9.938" href="#C"/><use x="93.2067" y="11.138" href="#H"/><use x="96.8067" y="9.938" href="#F"/><path d="M60.793 12.7109h38.7617v.7188H60.793zm0 0" class="c"/><use x="71.3669" y="19.658" href="#C"/><use x="75.6868" y="19.658" href="#G"/><use x="81.2067" y="19.658" href="#C"/><use x="85.4067" y="20.858" href="#H"/><use x="103.7669" y="15.9381" href="#W"/><use x="126.0868" y="9.9381" href="#D"/><use x="130.5267" y="9.9381" href="#G"/><use x="136.1665" y="9.9381" href="#D"/><use x="140.247" y="11.1381" href="#H"/><path d="M115.2734 12.7109h39.1211v.7188h-39.1211zm0 0" class="c"/><use x="115.886" y="20.138" href="#Y"/><use x="120.2059" y="20.138" href="#E"/><use x="123.3258" y="20.138" href="#D"/><use x="127.7657" y="20.138" href="#F"/><use x="130.5258" y="20.138" href="#G"/><use x="136.4055" y="20.138" href="#Y"/><use x="140.7254" y="20.138" href="#E"/><use x="143.8454" y="20.138" href="#D"/><use x="147.9262" y="21.338" href="#H"/><use x="151.5262" y="20.138" href="#F"/></g></g><path d="M582.014688 251.622813l10.78125 124.6875 10.820312 51.640625 10.78125 39.648437 10.820313 33.4375 10.78125 29.414063 10.820312 26.601562 10.78125 24.492188 10.820313 22.8125 10.78125 21.367187L690.0225 645.95875l10.78125 19.257813L711.624063 683.615l10.78125 17.617188 10.820312 16.992187 10.78125 16.367188 10.820313 15.820312 10.78125 15.390625 10.820312 14.882813 10.78125 14.53125 10.820313 14.101562" class="f"/><g clip-path="url(#a6)"><path d="M798.030313 809.318125l61.171875 74.101563 61.210937 66.25 61.210938 60.507812 61.171875 56.015625 61.210937 52.421875 61.210938 49.414063 61.210937 46.875 61.171875 44.6875 61.210938 42.8125 61.210937 41.132812 61.171875 39.648438 61.210938 38.28125 61.210937 37.109375 61.210938 35.976562 61.210937 34.921875 61.171875 34.0625 61.210938 33.164063 61.210937 32.34375 61.210938 31.640625 61.171875 30.9375" class="f"/></g></g><clipPath id="a8"><path d="M48 .5508h157V157H48zm0 0"/></clipPath><clipPath id="a9"><path d="M0 0h205v162H0z"/></clipPath><g id="ab" clip-path="url(#a9)"><path d="M591.99875 251.622813h1440.039063" class="e"/><g class="a"><path d="M59.9219 142.3984h.6016v6h-.6016zm0 0"/><path d="M131.9219 142.3984h.6016v6h-.6016zm0 0"/><path d="M203.9219 142.3984h.6016v6h-.6016zm0 0"/></g><path d="M591.99875 251.622813v1440" class="e"/><g class="a"><path d="M57.1602 145.0391h6v.6016h-6zm0 0"/><path d="M57.1602 73.0391h6v.6016h-6zm0 0"/><path d="M57.1602 1.0391h6v.6016h-6zm0 0"/></g><g style="stroke-width:3.985;stroke-linecap:butt;stroke-linejoin:miter;stroke:#000;stroke-opacity:1;stroke-miterlimit:10;transform:matrix(.1,0,0,-.1,.972,170.549)"><path fill="none" d="M1020.006563 268.849375l948.984375 1189.492188"/><g class="a"><path d="M1255.944063 539.591563c0 11.015625-8.90625 19.960937-19.921875 19.960937s-19.960938-8.945312-19.960938-19.960937c0-10.976563 8.945313-19.921875 19.960938-19.921875s19.921875 8.945312 19.921875 19.921875zm0 0"/><path d="M1772.93625 1187.638438c0 10.976562-8.945312 19.921875-19.960937 19.921875-10.976563 0-19.921875-8.945313-19.921875-19.921875 0-11.015625 8.945312-19.960938 19.921875-19.960938 11.015625 0 19.960937 8.945313 19.960937 19.960938zm0 0"/></g><g fill="none"><path d="M1236.022188 539.591563v-23.984375"/><path d="M1236.022188 467.599375V443.615"/><path d="M1236.022188 443.615v-24.023437"/><path d="M1236.022188 371.58375v-23.984375"/><path d="M1236.022188 347.599375V323.615"/><path d="M1236.022188 275.607188v-23.984375"/><path d="M1752.975313 1187.638438v-29.257813"/><path d="M1752.975313 1099.865v-29.257812"/><path d="M1752.975313 1070.607188v-29.21875"/><path d="M1752.975313 982.872813V953.615"/><path d="M1752.975313 953.615v-29.257812"/><path d="M1752.975313 865.880625v-29.257812"/><path d="M1752.975313 836.622813V807.365"/><path d="M1752.975313 748.849375v-29.257812"/><path d="M1752.975313 719.591563v-29.21875"/><path d="M1752.975313 631.857188v-29.257813"/><path d="M1752.975313 602.599375v-29.257812"/><path d="M1752.975313 514.865v-29.257812"/><path d="M1752.975313 485.607188v-29.257813"/><path d="M1752.975313 397.872813V368.615"/><path d="M1752.975313 368.615v-29.257812"/><path d="M1752.975313 280.841563v-29.21875"/></g></g><g class="b"><use x="100.4271" y="158.4931" href="#Z"/><use x="106.1873" y="158.4931" href="#K"/><use x="110.6271" y="158.4931" href="#I"/><use x="117.2271" y="158.4931" href="#L"/><use x="124.6669" y="158.4931" href="#M"/><use x="136.547" y="158.4931" href="#J"/><use x="153.5439" y="158.4931" href="#Z"/><use x="159.304" y="158.4931" href="#K"/><use x="163.7439" y="158.4931" href="#I"/><use x="170.1036" y="160.2931" href="#N"/><use x="175.024" y="158.4931" href="#L"/><use x="182.4638" y="158.4931" href="#M"/><use x="194.3439" y="158.4931" href="#J"/><use x="200.4638" y="160.2931" href="#N"/></g><g class="e"><path d="M1236.022188 539.591563h-26.835938"/><path d="M1155.514375 539.591563h-26.835937"/><path d="M1128.678438 539.591563H1101.8425"/><path d="M1048.170625 539.591563h-26.835937"/><path d="M1021.334688 539.591563H994.49875"/><path d="M940.826875 539.591563H914.03"/><path d="M914.03 539.591563h-26.835937"/><path d="M833.522188 539.591563H806.68625"/><path d="M806.68625 539.591563h-26.835937"/><path d="M726.178438 539.591563H699.3425"/><path d="M699.3425 539.591563h-26.835937"/><path d="M618.834688 539.591563H591.99875"/><path d="M1752.975313 1187.638438h-29.023438"/><path d="M1665.905 1187.638438h-29.023437"/><path d="M1636.881563 1187.638438h-29.023438"/><path d="M1549.81125 1187.638438h-29.023437"/><path d="M1520.787813 1187.638438h-29.023438"/><path d="M1433.7175 1187.638438h-29.023437"/><path d="M1404.694063 1187.638438h-29.023438"/><path d="M1317.62375 1187.638438h-29.023437"/><path d="M1288.600313 1187.638438h-29.023438"/><path d="M1201.53 1187.638438h-29.023437"/><path d="M1172.506563 1187.638438h-29.023438"/><path d="M1085.43625 1187.638438h-29.023437"/><path d="M1056.412813 1187.638438h-29.023438"/><path d="M969.303438 1187.638438h-28.984375"/><path d="M940.319063 1187.638438h-29.0625"/><path d="M853.24875 1187.638438h-29.0625"/><path d="M824.18625 1187.638438h-29.023437"/><path d="M737.115938 1187.638438H708.0925"/><path d="M708.0925 1187.638438h-29.023437"/><path d="M621.022188 1187.638438H591.99875"/></g><g fill-opacity="1"><g fill="#000"><use x="12.1482" y="119.4689" href="#I"/><use x="21.988" y="119.4689" href="#M"/><use x="34.2275" y="119.4689" href="#a0"/><use x="40.8275" y="119.4689" href="#K"/><use x="45.5076" y="119.4689" href="#J"/><use x="52.1076" y="119.4689" href="#L"/><use x="3.0275" y="54.6673" href="#I"/><use x="9.3877" y="56.4673" href="#N"/><use x="17.5478" y="54.6673" href="#M"/><use x="29.7876" y="54.6673" href="#a0"/><use x="36.3876" y="54.6673" href="#K"/><use x="41.0677" y="54.6673" href="#J"/><use x="47.1876" y="56.4673" href="#N"/><use x="52.1076" y="54.6673" href="#L"/></g><path fill-rule="nonzero" fill="#fff" d="M41.3164 12.4844h141.7188v24.4805H41.3164zm0 0"/><g fill="#000"><use x="44.3271" y="27.713" href="#ah"/><use x="49.0072" y="27.713" href="#ai"/><use x="52.1271" y="27.713" href="#aj"/><use x="58.1271" y="27.713" href="#ak"/><use x="64.7271" y="27.713" href="#al"/><use x="72.5271" y="27.713" href="#a1"/><use x="95.3271" y="22.4329" href="#O"/><use x="99.647" y="22.4329" href="#Q"/><use x="105.1669" y="22.4329" href="#O"/><use x="109.3673" y="23.6329" href="#T"/><path d="M84.0352 24.3633h39.9609v.7188H84.0352zm0 0" class="c"/><use x="85.7271" y="31.793" href="#a2"/><use x="89.5669" y="31.793" href="#R"/><use x="92.5669" y="31.793" href="#O"/><use x="96.8869" y="31.793" href="#S"/><use x="99.647" y="31.793" href="#Q"/><use x="106.6068" y="31.793" href="#a2"/><use x="110.4466" y="31.793" href="#R"/><use x="113.4466" y="31.793" href="#O"/><use x="117.647" y="32.993" href="#T"/><use x="121.247" y="31.793" href="#S"/><use x="128.2072" y="27.7129" href="#a1"/><use x="140.3271" y="21.593" href="#a3"/><use x="144.647" y="21.593" href="#R"/><use x="147.7669" y="21.593" href="#P"/><use x="152.2068" y="21.593" href="#S"/><use x="154.9669" y="21.593" href="#Q"/><use x="160.8466" y="21.593" href="#a3"/><use x="165.1665" y="21.593" href="#R"/><use x="168.2864" y="21.593" href="#P"/><use x="172.3673" y="22.793" href="#T"/><use x="175.9673" y="21.593" href="#S"/><path d="M139.7148 24.3633h39.1211v.7188h-39.1211zm0 0" class="c"/><use x="150.527" y="31.433" href="#P"/><use x="154.9668" y="31.433" href="#Q"/><use x="160.6067" y="31.433" href="#P"/><use x="164.6872" y="32.633" href="#T"/></g></g><g clip-path="url(#a8)"><path d="M591.99875 251.622813l36.015625.898437L664.03 255.216563l35.976563 4.492187 35.976562 6.289063 36.015625 8.125 36.015625 9.882812L844.03 295.685313l35.976563 13.515625 36.015625 15.3125 35.976562 17.109375L988.014375 360.49 1024.03 381.193125l35.976563 22.5L1096.022188 427.99l35.976562 26.132813 36.015625 27.890625 36.015625 29.6875 35.976563 31.523437 36.015625 33.28125 35.976562 35.117188 36.015625 36.875L1384.03 687.20875l35.976563 40.507813 36.015625 42.304687 36.015625 44.101563 35.976562 45.898437L1564.03 907.716563l35.976563 49.492187 36.015625 51.328125 36.015625 53.085938 35.976562 54.882812 36.015625 56.71875 36.015625 58.476563 35.976563 60.3125 36.015625 62.109375 35.976562 63.90625 36.015625 65.664062 36.015625 67.5 35.976563 69.335938 36.015625 71.09375" style="fill:none;stroke-width:7.9701;stroke-linecap:butt;stroke-linejoin:miter;stroke:#000;stroke-opacity:1;stroke-miterlimit:10;transform:matrix(.1,0,0,-.1,.972,170.549)"/></g></g><use href="#a" id="w"/><use href="#b" id="U"/><use href="#c" id="x"/><use href="#d" id="V"/><use href="#e" id="y"/><use href="#f" id="z"/><use href="#g" id="A"/><use href="#h" id="B"/><use href="#i" id="ac"/><use href="#j" id="ad"/><use href="#k" id="ae"/><use href="#l" id="af"/><use href="#m" id="ag"/><use href="#n" id="W"/><use href="#o" id="X"/><use href="#p" id="C"/><use href="#q" id="D"/><use href="#r" id="Y"/><use href="#s" id="E"/><use href="#t" id="F"/><use href="#u" id="G"/><use href="#v" id="H"/><use href="#d" id="Z"/><use href="#a" id="I"/><use href="#c" id="J"/><use href="#b" id="a0"/><use href="#f" id="K"/><use href="#g" id="L"/><use href="#e" id="M"/><use href="#h" id="N"/><use href="#i" id="ah"/><use href="#j" id="ai"/><use href="#k" id="aj"/><use href="#l" id="ak"/><use href="#m" id="al"/><use href="#n" id="a1"/><use href="#p" id="O"/><use href="#o" id="a2"/><use href="#r" id="a3"/><use href="#q" id="P"/><use href="#u" id="Q"/><use href="#s" id="R"/><use href="#t" id="S"/><use href="#v" id="T"/><path id="a" d="M5.3594-.9375l-.0937-.2344c-.4375.359375-.734375.53125-.921875.53125S4-.75 3.890625-.984375s-.25-.671875-.3125-1.03125L3.375-3.2187l.4219-.5781c.546875-.78125.875-1.0625 1.25-1.0625.1875 0 .328125.109375.390625.28125L5.6094-4.625l.1719-1.0156c-.140625-.078125-.25-.125-.359375-.125-.46875 0-.953125.4375-1.6875 1.53125l-.4531.6563-.0625-.5625c-.140625-1.1875-.46875-1.625-1.171875-1.625-.3125 0-.578125.09375-.6875.25l-.6875 1L.875-4.4062c.359375-.40625.59375-.5625.828125-.5625.390625 0 .65625.484375.859375 1.65625l.125.75-.4687.7344c-.515625.796875-.921875 1.1875-1.265625 1.1875C.78125-.640625.640625-.6875.625-.75l-.1406-.3437-.2344.0468c0 .2344-.015625.39065-.09375.76565C.125-.125.125-.09375.109375-.015625.28125.078125.484375.125.625.125c.390625 0 .859375-.34375 1.234375-.90625l.9063-1.3906.125.8281C3.0625-.328125 3.328125.125 3.75.125c.265625 0 .65625-.203125 1.03125-.546875zm0 0"/><path id="b" d="M5.9531-5.1094l-.0312-.0625c-.34375.078125-.578125.109375-1.21875.109375-.203125-.3125-.3125-.421875-.609375-.546875-.25-.09375-.5625-.15625-.8125-.15625-.484375 0-1.078125.234375-1.609375.625C1-4.640625.65625-3.9375.65625-3.09375c0 .921875.53125 1.46875 1.453125 1.46875.109375 0 .234375 0 .359375-.015625l-.4844.4531c-.1875.1875-.328125.40625-.328125.5625 0 .125.09375.25.25.390625C1 .078125.640625.25.1875.625c-.40625.328125-.625.796875-.625 1.28125 0 .84375.828125 1.390625 2.140625 1.390625 1.53125 0 2.890625-.859375 2.890625-1.84375 0-.4375-.25-.875-.765625-1.28125l-.7187-.5937c-.40625-.3125-.5625-.546875-.5625-.765625 0-.109375.078125-.234375.25-.46875.03125-.046875.046875-.046875.078125-.09375C4.046925-2.0312 4.890675-3.0312 4.890675-4.0937c0-.109375 0-.203125-.03125-.390625l-.0156-.0312H5.25c.203125 0 .3125-.015625.59375-.046875zM3.7969 1.8438c0 .625-.828125 1.125-1.8125 1.125s-1.65625-.5-1.65625-1.234375c0-.453125.203125-.875.59375-1.203125.3125-.25.578125-.359375 1.1875-.546875L3.0313.6875c.546875.4375.765625.765625.765625 1.15625zm.2344-5.9219c0 1.234375-.578125 2.0625-1.40625 2.0625C1.890625-2.015625 1.5-2.5 1.5-3.4375c0-1.140625.609375-1.921875 1.484375-1.921875.703125 0 1.046875.4375 1.046875 1.28125zm0 0"/><path id="c" d="M5.8594-5.6562l-.1406-.1094c-.34375.140625-.609375.203125-.875.234375l-.4219 1.5781c-.140625.5625-.5625 1.4375-.953125 2.015625-.421875.609375-1 1.140625-1.265625 1.140625s-.25-.578125-.234375-.734375l.1875-2.3125c.015625-.375.046875-.828125.046875-1.171875 0-.53125-.09375-.75-.296875-.75-.15625 0-.3125.09375-.890625.484375l-.9844.6719.1406.2031.5938-.3437c.0625-.0625.21875-.15625.296875-.15625.3125 0 .265625.609375.25.8125L1.1094-1.1875l-.0156.4688c0 .5.21875.84375.515625.84375.453125 0 1.453125-1.015625 2.34375-2.359375L3.375-.1875c-.609375 2.109375-1.21875 2.984375-2.046875 2.984375-.421875 0-.75-.328125-.75-.734375 0-.0625.015625-.15625.03125-.265625L.4844 1.75l-.5625.4063c-.015625.078125-.015625.15625-.015625.203125 0 .515625.4375.9375.984375.9375 1.265625 0 2.578125-1.484375 3.28125-3.6875zm0 0"/><path id="d" d="M4.9375-8.6094c-.203125-.09375-.546875-.15625-.84375-.15625-.125 0-.3125.046875-.40625.09375-.296875.125-1.265625.859375-1.546875 1.140625-.265625.265625-.40625.625-.53125 1.296875l-.1875.9531C.9375-5.046925.6875-4.953175.390625-4.8438l-.0625.2656h.9688l-.1094.672C.828125-1.578125.390625.640625.125 1.46875c-.21875.703125-.5625 1.078125-1 1.078125-.265625 0-.421875-.078125-.625-.34375L-1.6562 2.25c-.046875.265625-.21875.84375-.28125.953125.109375.0625.28125.09375.421875.09375.484375 0 1.140625-.375 1.59375-.9375C.8125 1.5 1.0625.6875 1.953125-3.53125c.0625-.296875.15625-.65625.21875-1.046875h1.25c.046875-.234375.125-.5.203125-.671875l-.0469-.0781-.0937.0156c-.28125.09375-.40625.09375-1 .09375h-.1875l.25-1.3437c.1875-1.03125.53125-1.484375 1.078125-1.484375.359375 0 .671875.1875.859375.46875l.125-.0469zm0 0"/><path id="e" d="M.7813-4.1406h6.4375v-.7187H.7813zm0 2.5313h6.4375v-.7032H.7813zm0 0"/><path id="f" d="M3.6406-9.0312C1.8125-7.84375.71875-5.796875.71875-3.234375c0 2.34375 1.140625 4.578125 2.875 5.78125L3.75 2.3438C2.09375.90625 1.8125-.484375 1.8125-3.28125 1.8125-6.0625 2.125-7.5 3.75-8.828125zm0 0"/><path id="g" d="M.5-9.0312l-.125.2031C2.015625-7.5 2.328125-6.0625 2.328125-3.28125c0 2.796875-.28125 4.1875-1.953125 5.625l.1563.2031c1.75-1.203125 2.890625-3.4375 2.890625-5.78125C3.421875-5.796875 2.3125-7.84375.5-9.03125zm0 0"/><path id="h" d="M4.0781-3.2031c0-1.921875-.578125-2.84375-1.765625-2.84375C.953125-6.046875.25-4.96875.25-2.84375.25-1.8125.4375-.921875.75-.5c.296875.4375.796875.671875 1.34375.671875 1.3125 0 1.984375-1.140625 1.984375-3.375zm-.7344.4375C3.34375-.90625 3-.125 2.203125-.125c-.859375 0-1.21875-.890625-1.21875-3.03125 0-1.84375.328125-2.578125 1.15625-2.578125.859375 0 1.203125.859375 1.203125 2.96875zm0 0"/><path id="i" d="M4.2656-1.6094c0-.34375-.09375-.59375-.3125-.8125-.28125-.28125-.640625-.40625-1.59375-.59375-.890625-.171875-1.1875-.390625-1.1875-.890625 0-.546875.375-.84375 1.046875-.84375.71875 0 1.28125.375 1.28125.890625v.25h.3125c0-.640625.015625-.890625.046875-1.234375-.578125-.1875-.96875-.265625-1.421875-.265625-1.265625 0-2.03125.59375-2.03125 1.578125 0 .515625.234375.890625.734375 1.125.296875.125.875.296875 1.625.46875.484375.109375.6875.328125.6875.75 0 .59375-.546875 1-1.3125 1-.796875 0-1.359375-.375-1.359375-.921875v-.4531H.4531c0 .75-.03125 1.078125-.125 1.515625.5625.1875.984375.265625 1.5.265625 1.421875 0 2.4375-.765625 2.4375-1.828125zm0 0"/><path id="j" d="M2.9531.0313v-.3281l-.5-.0312c-.375-.015625-.40625-.09375-.40625-.78125v-6.7187l-.0937-.0937c-.484375.1875-.84375.28125-1.703125.40625v.3125h.6094c.203125 0 .28125.109375.28125.4375v5.6563c0 .6875-.046875.765625-.40625.78125l-.5.0313V.0313C.6875.015625 1.140625 0 1.59375 0S2.5.015625 2.953125.03125zm0 0"/><path id="k" d="M5.6094-2.5781c0-1.484375-1.078125-2.53125-2.5625-2.53125-1.59375 0-2.703125 1.125-2.703125 2.75 0 1.53125.96875 2.578125 2.375 2.578125C4.406275.218775 5.6094-.9531 5.6094-2.5781zm-1.0156.3906c0 1.265625-.5625 2.046875-1.4375 2.046875-1.078125 0-1.796875-1.046875-1.796875-2.59375 0-1.3125.53125-2.015625 1.484375-2.015625 1 0 1.75 1.078125 1.75 2.5625zm0 0"/><path id="l" d="M6.0469-2.9531c0-1.21875-1.015625-2.15625-2.265625-2.15625-.40625 0-.796875.109375-.984375.265625l-.8906.8125v-1.0469l-.0937-.0312c-.5625.21875-1.125.375-1.703125.4375v.3125h.4063C.953125-4.359375 1-4.28125 1-3.5625v5.4844c0 .6875-.046875.765625-.40625.78125l-.5.0313v.3281c.453125-.015675.90625-.0313 1.359375-.0313s.90625.015625 1.359375.03125v-.3281l-.5-.0312c-.375-.015625-.40625-.09375-.40625-.78125v-2.0625C2.234375.046875 2.578125.125 3.078125.125c.3125 0 .59375-.0625.765625-.171875l1.25-.7969c.4375-.296875.953125-1.40625.953125-2.109375zm-.9531.4063c0 1.21875-.734375 2.125-1.71875 2.125-.59375 0-1.046875-.203125-1.46875-.640625v-2.2812c0-.140625.0625-.265625.203125-.453125.3125-.40625.765625-.609375 1.296875-.609375 1.03125 0 1.6875.71875 1.6875 1.859375zm0 0"/><path id="m" d="M4.8906-3.0469c0-1.25-.8125-2.0625-2.03125-2.0625-.40625 0-.875.140625-1.328125.390625-.890625.515625-1.25 1.203125-1.25 2.328125 0 .6875.15625 1.28125.453125 1.6875.437525.57815 1.1719.9219 1.9844.9219.40625 0 .8125-.09375 1.265625-.28125.296875-.125.515625-.265625.5625-.328125l.2188-.375L4.625-.875c-.703125.421875-.953125.515625-1.421875.515625-.703125 0-1.296875-.3125-1.59375-.84375-.21875-.375-.296875-.671875-.3125-1.3125h1.5938c.75 0 1.21875-.03125 1.96875-.140625.015625-.15625.03125-.25.03125-.390625zm-.9687.1406-1.2344.0313c-.5 0-.78125-.015625-1.375-.0625 0-.515625.046875-.765625.1875-1.046875.234375-.46875.703125-.765625 1.21875-.765625.375 0 .65625.140625.84375.4375.25.359375.359375.671875.359375 1.40625zm0 0"/><path id="n" d="M.7031-3.7812h5.8907v-.6406H.7031zm0 2.3125h5.8907v-.6406H.7031zm0 0"/><path id="o" d="M3.2969-5.7344c-.140625-.0625-.375-.109375-.5625-.109375-.09375 0-.21875.03125-.28125.0625-.1875.078125-.84375.5625-1.03125.765625-.171875.171875-.265625.40625-.359375.859375l-.1094.6406c-.328125.15625-.484375.21875-.6875.28125l-.0469.1875H.875l-.0781.4375C.546875-1.046875.265625.4375.09375.984375c-.15625.46875-.390625.71875-.671875.71875-.1875 0-.28125-.0625-.421875-.234375L-1.1094 1.5c-.03125.1875-.140625.5625-.1875.640625.078125.03125.203125.0625.28125.0625.328125 0 .765625-.25 1.078125-.625.4844-.578125.64065-1.125 1.2344-3.921875.046875-.203125.109375-.4375.15625-.703125h.8281c.03125-.15625.078125-.34375.140625-.453125L2.375-3.5469l-.0469.0156c-.1875.046875-.28125.046875-.671875.046875h-.125L1.7031-4.375c.125-.6875.34375-.984375.71875-.984375.234375 0 .453125.109375.5625.3125l.0781-.0312L3.25-5.625zm0 0"/><path id="p" d="M3.5781-.625 3.5-.7812c-.28125.234375-.484375.359375-.609375.359375S2.671875-.5 2.59375-.65625s-.15625-.453125-.203125-.6875L2.25-2.1406l.2813-.3906c.375-.515625.578125-.703125.828125-.703125.125 0 .21875.0625.265625.1875l.1094-.0312.125-.6875C3.765625-3.8125 3.6875-3.84375 3.625-3.84375c-.328125 0-.640625.296875-1.140625 1.015625L2.1875-2.375l-.0469-.3906c-.09375-.78125-.3125-1.078125-.78125-1.078125-.203125 0-.375.0625-.453125.171875l-.4531.6563.125.0781c.25-.265625.40625-.375.546875-.375.265625 0 .4375.328125.578125 1.109375l.0938.4844-.3281.5C1.125-.6875.859375-.4375.640625-.4375.515625-.4375.4375-.46875.421875-.5l-.0937-.2187-.1562.0156c0 .15625-.015625.265625-.0625.515625-.015625.09375-.03125.125-.03125.171875C.1875.0625.3125.09375.421875.09375c.25 0 .5625-.234375.8125-.609375l.6094-.9375.0781.5469c.125.6875.296875 1 .578125 1 .171875 0 .4375-.140625.6875-.375zm0 0"/><path id="q" d="M3.9063-3.7656l-.0938-.0781c-.234375.09375-.40625.140625-.578125.15625l-.2812 1.0469c-.09375.375-.375.953125-.640625 1.34375-.28125.40625-.671875.765625-.84375.765625S1.31255-.9218 1.31255-1.01555l.125-1.5469c.015625-.25.03125-.546875.03125-.78125 0-.359375-.0625-.5-.1875-.5-.109375 0-.21875.0625-.609375.328125l-.6406.4375.0781.1406.4063-.2344c.03125-.03125.140625-.09375.1875-.09375.21875 0 .1875.40625.171875.53125l-.1406 1.9375v.3125c-.01575.34375.1405.578125.343625.578125.296875 0 .96875-.6875 1.5625-1.578125L2.25-.125C1.84375 1.28125 1.4375 1.859375.890625 1.859375c-.28125 0-.5-.203125-.5-.484375 0-.046875 0-.109375.015625-.1875l-.0781-.0312-.3906.2813c0 .046875 0 .09375 0 .140625 0 .34375.296875.625.65625.625.84375 0 1.71875-.984375 2.1875-2.46875zm0 0"/><path id="r" d="M3.9688-3.4062l-.0312-.0469c-.21875.0625-.375.078125-.8125.078125-.125-.203125-.203125-.28125-.40625-.359375-.15625-.0625-.359375-.109375-.53125-.109375-.328125 0-.71875.15625-1.078125.421875C.671875-3.09375.4375-2.625.4375-2.0625c0 .609375.359375.984375.96875.984375.0625 0 .15625 0 .25-.015625l-.3281.3125c-.140625.109375-.21875.25-.21875.359375 0 .09375.046875.171875.171875.265625C.671875.046875.421875.171875.125.421875c-.265625.21875-.421875.53125-.421875.84375 0 .5625.5625.9375 1.421875.9375 1.03125 0 1.9375-.578125 1.9375-1.234375 0-.296875-.171875-.578125-.515625-.859375l-.4687-.3906c-.28125-.21875-.375-.359375-.375-.515625 0-.078125.046875-.15625.15625-.296875.03125-.03125.03125-.046875.046875-.0625.78125-.203125 1.359375-.859375 1.359375-1.5625 0-.078125 0-.15625-.03125-.265625v-.0312H3.5c.140625 0 .21875 0 .390625-.03125zM2.5313 1.2344c0 .40625-.546875.734375-1.203125.734375S.21875 1.640625.21875 1.15625c0-.296875.140625-.578125.390625-.796875.21875-.171875.390625-.25.796875-.375l.6094.4844c.359375.28125.515625.5.515625.765625zm.1562-3.9531c0 .828125-.390625 1.375-.9375 1.375-.484375 0-.75-.328125-.75-.953125 0-.75.40625-1.265625.984375-1.265625.46875 0 .703125.28125.703125.84375zm0 0"/><path id="s" d="M2.4219-6.0156C1.218775-5.23435.4844-3.85935.4844-2.156225c0 1.5625.75 3.0625 1.921875 3.859375L2.5 1.5625C1.390625.609375 1.203125-.328125 1.203125-2.1875S1.421875-5 2.5-5.875zm0 0"/><path id="t" d="M.3281-6.0156.25-5.875C1.34375-5 1.546875-4.046875 1.546875-2.1875S1.359375.609375.25 1.5625l.1094.1406C1.515625.90625 2.28125-.59375 2.28125-2.15625c0-1.703125-.734375-3.078125-1.953125-3.859375zm0 0"/><path id="u" d="M4.8125-1.9219v-.4687H.5156v.4688zm0 0"/><path id="v" d="M2.8281-2.2187c0-1.34375-.390625-1.96875-1.234375-1.96875-.9375 0-1.421875.75-1.421875 2.21875 0 .703125.125 1.328125.34375 1.625s.5469.4687.937525.4687c.90625 0 1.375-.796875 1.375-2.34375zm-.5156.2969c0 1.2968-.234375 1.82805-.78125 1.82805C.9375-.09375.6875-.703125.6875-2.1875c0-1.28125.21875-1.78125.796875-1.78125.59375 0 .828125.59375.828125 2.046875zm0 0"/></defs><use href="#aa"/><use transform="translate(217 1)" href="#ab"/><style>.a{fill:#000;fill-opacity:1;fill-rule:nonzero}.b{fill:#000;fill-opacity:1}.c{fill-rule:nonzero}.d{fill:none;stroke:#000;stroke-linecap:butt;stroke-linejoin:miter;stroke-miterlimit:10;stroke-opacity:1;stroke-width:3.985;transform:matrix(.1,0,0,-.1,.029,171.549)}.e{fill:none;stroke:#000;stroke-linecap:butt;stroke-linejoin:miter;stroke-miterlimit:10;stroke-opacity:1;stroke-width:3.985;transform:matrix(.1,0,0,-.1,.972,170.549)}.f{fill:none;stroke:#000;stroke-linecap:butt;stroke-linejoin:miter;stroke-miterlimit:10;stroke-opacity:1;stroke-width:7.9701;transform:matrix(.1,0,0,-.1,.029,171.549)}</style></svg>