<svg xmlns="http://www.w3.org/2000/svg" width="287pt" height="112pt" viewBox="0 0 287 112"><defs><clipPath id="g"><path d="M.0586 0H103v111H.0586zm0 0"/></clipPath><clipPath id="h"><path d="M.0586 0H103v111.5508H.0586zm0 0"/></clipPath><clipPath id="i"><path d="M31 31h183v18H31zm0 0"/></clipPath><clipPath id="j"><path d="M.0586 111.5508h287v-113h-287zm213.9258-63.375-.3125.8203-12.7891-2.707 11.5898 1.7617-9.3828-6.9922zm0 0" class="b"/></clipPath><clipPath id="k"><path d="M37 62h183v16H37zm0 0"/></clipPath><clipPath id="l"><path d="M.0586 111.5508h287v-113h-287zm219.5937-35.0274-.3125.8164-12.9141-1.7617 11.6523.8828-9.8242-6.3008zm0 0" class="b"/></clipPath><clipPath id="m"><path d="M31 48h183v10H31zm0 0"/></clipPath><clipPath id="n"><path d="M.0586 111.5508h287v-113h-287zm31.4453-62.7422.125-.8828 13.0391-.4414-11.6523 1.1328 10.7695 4.4727zm0 0" class="b"/></clipPath><clipPath id="o"><path d="M37 73h183v22H37zm0 0"/></clipPath><clipPath id="p"><path d="M.0586 111.5508h287v-113h-287zm37.0508-37.3594.3164-.8164 12.7852 2.707-11.5898-1.7656 9.3867 6.9922zm0 0" class="b"/></clipPath><clipPath id="q"><path d="M0 0h287v112H0z"/></clipPath><g id="r" clip-path="url(#q)"><path d="M.8281.2422h.5664l.5039.0625h.6914l1.0078.0625h1.1992L6.246.4297l1.6992.1289 1.8906.0625 2.2031.125 2.332.1875 2.5195.1914 2.707.1875 2.7734.2539 2.9609.3125 2.957.3164 3.0234.375 3.0898.4414 3.1484.4414 3.0859.5664 3.1484.5703 3.0859.6914 3.1523.8203 3.1484.8164 3.0859 1.0078 3.1484 1.0703 3.0898 1.1992 3.0859 1.3203 3.0859 1.5117 3.0234 1.6406 3.0234 1.8242 2.8984 1.9531 2.7695 2.207 2.6445 2.2656 2.3945 2.3945 2.207 2.457 1.9492 2.457 1.7031 2.3906 1.5117 2.332 1.3867 2.2031 1.1328 2.0156 1.0703 1.9531.8828 1.7656.7539 1.5742.6328 1.5117.6289 1.3867.5039 1.2578.4414 1.1328.375 1.0742.3164 1.0703.3164 1.0078.25.9453.1914 1.0078.125 1.0078.1875 1.0078.0625 1.1328v2.3945l-.0625 1.3828-.1875 1.5117-.2539 1.6406-.375 1.7617-.5078 1.9531-.6914 2.0781-.8164 2.207-1.0078 2.3906-1.2617 2.457-1.5105 2.458-1.7617 2.582-2.082 2.457-2.2031 2.2695-2.457 2.1406-2.582 1.9531-2.707 1.8906-2.8359 1.6367-2.9609 1.5742-2.9609 1.4492-3.0234 1.2578-3.0859 1.1992-3.0859 1.0703-3.1484.9453-3.2148.8828-3.1484.8164-3.2773.7578-3.2109.6289-3.2773.6289-3.2109.5039-3.2773.5039-3.2109.5039-3.1484.3789-3.0859.3789-3.0234.3125-2.8984.3164-2.7109.2539-2.582.25-2.3906.1875-2.207.1914-1.9531.1875-1.6367.125-1.4492.0664-1.1953.0625-.9453.0625-.6914.0625h-.5039l-.3164.0625h-.2539" style="fill-rule:evenodd;fill:#d5d5d5;fill-opacity:1;clip-path:url(#g)"/><g clip-path="url(#h)"><path d="M7.70125 1113.068125h5.664062l5.039063-.625h6.914062l10.078125-.625H47.38875l14.492187-.625 16.992188-1.289062 18.90625-.625 22.03125-1.25 23.320312-1.875L168.32625 1104.24l27.070312-1.875 27.734375-2.539062 29.609375-3.125 29.570313-3.164063 30.234375-3.75 30.898437-4.414062 31.484375-4.414063 30.859375-5.664062 31.484375-5.703125 30.859375-6.914063 31.523438-8.203125 31.484375-8.164062 30.859375-10.078125 31.484375-10.703125 30.898437-11.992188 30.859375-13.203125 30.859375-15.117187 30.234375-16.40625 30.234375-18.242188 28.984375-19.53125 27.695313-22.070312 26.445312-22.65625L853.63875 862.365l22.070312-24.570312 19.492188-24.570313 17.03125-23.90625 15.117187-23.320312 13.867188-22.03125 11.328125-20.15625 10.703125-19.53125 8.828125-17.65625 7.539062-15.742188 6.328125-15.117187 6.289063-13.867188 5.039062-12.578125 4.414063-11.328125 3.75-10.742187 3.164062-10.703125 3.164063-10.078125 2.5-9.453125 1.914062-10.078125 1.25-10.078125 1.875-10.078125.625-11.328125v-23.945313l-.625-13.828125-1.875-15.117187-2.539062-16.40625-3.75-17.617188-5.078125-19.53125-6.914063-20.78125-8.164062-22.070312-10.078125-23.90625-12.617188-24.570313L953.17 313.107188l-17.617188-25.820313-20.820312-24.570312-22.03125-22.695313-24.570313-21.40625-25.820312-19.53125-27.070313-18.90625-28.359375-16.367187-29.609375-15.742188-29.609375-14.492187-30.234375-12.578125-30.859375-11.992188L635.709062 98.3025l-31.484375-9.453125-32.148437-8.828125-31.484375-8.164062-32.773438-7.578125L475.709062 57.99l-32.773437-6.289062-32.109375-5.039063-32.773438-5.039062-32.109375-5.039063-31.484375-3.789062-30.859375-3.789063-30.234375-3.125-28.984375-3.164062-27.109375-2.539063-25.820312-2.5-23.90625-1.875-22.070313-1.914062-19.53125-1.875-16.367187-1.25-14.492188-.664063-11.953125-.625-9.453125-.625-6.914062-.625h-5.039063l-3.164062-.625h-2.539063" class="e"/></g><path d="M230.4258 20.082l3.0859-.125h3.0859l2.9609.1914 2.8984.3125 2.7695.4414 2.6484.4414 2.457.5039 2.3281.5039 2.1445.5039 2.0781.5039 1.8867.5664 1.8281.5039 1.7656.5039 1.6371.504 1.5742.5664 1.5742.5039 1.5117.5664 1.5117.6328 1.5117.6289 1.5117.6914 1.4492.7578 1.5117.8164 1.4492.9453 1.4492 1.0703 1.4492 1.1367 1.3203 1.3203 1.2617 1.3867 1.1328 1.5742.9453 1.7656.6289 1.8242.3789 2.0156-.0625 2.0781-.4414 2.0156-.8203 2.0156-1.0078 2.0156-1.3203 1.9531-1.3867 1.8906-1.5742 1.8281-1.6367 1.6992-1.6406 1.6367-1.6367 1.5117-1.6992 1.3867-1.6406 1.3867-1.6367 1.2578-1.6992 1.1992-1.5742 1.1328-1.6406 1.1328-1.6367 1.0703-1.6367 1.0117-1.6367 1.0703-1.7031 1.0078-1.7617 1.0078-1.7656 1.0703-1.8906 1.0078-2.0156 1.0703-2.0781 1.0703-2.1406 1.0703-2.332 1.1328-2.457 1.0742-2.5195 1.0703-2.707 1.0078-2.8359 1.0078-2.8945.8789-2.8984.7578-3.0234.5664-2.8984.3789-3.0234.125-2.8359-.125-2.582-.3164-2.457-.5039-2.2031-.6289-1.9531-.6914-1.7617-.8203-1.5117-.7578-1.3867-.8789-1.1992-.8203-1.0703-.8828-.9453-.8164-.8164-.8828-.8203-.8828-.6914-.8828-.6328-.8789-.6289-.8828-.6289-.9453-.5664-1.0078-.6328-1.0078-1.2578-2.2656-.6289-1.2617-.6289-1.3867-.6328-1.4492-.6289-1.5742-.6289-1.6992-.5039-1.7656-.4414-1.9531-.3164-1.9492-.125-2.082.125-2.1406.4414-2.2656.6914-2.207.8828-2.0781 1.0078-2.0156 1.0742-1.8281 1.0664-1.6367 1.0742-1.5742 1.0703-1.3867 1.0078-1.2578.9453-1.1328.9453-1.0742 2.707-2.707.8828-.8203.8828-.8164 1.0078-.7578 1.0078-.8164 1.1953-.8203 1.2578-.8203 1.3867-.8164 1.5742-.9453 1.7656-.8828 2.0156-.9453L216 23.6094l2.457-.9414 2.707-.8203 2.9648-.7578 3.0859-.6289" class="f"/><path d="M2303.677812 914.669688l30.859375 1.25h30.859375l29.609375-1.914063 28.984375-3.125 27.695313-4.414062L2478.17 902.0525l24.570312-5.039062 23.28125-5.039063 21.445313-5.039062 20.78125-5.039063 18.867187-5.664062 18.28125-5.039063 17.65625-5.039062L2639.42 861.115l15.742187-5.664062 15.742188-5.039063 15.117187-5.664062 15.117188-6.328125 15.117187-6.289063 15.117188-6.914062 14.492187-7.578125 15.117188-8.164063 14.492187-9.453125 14.492188-10.703125 14.492187-11.367187 13.203125-13.203125 12.617188-13.867188 11.328125-15.742187 9.453125-17.65625 6.289062-18.242188 3.789063-20.15625-.625-20.78125-4.414063-20.15625-8.203125-20.15625-10.078125-20.15625-13.203125-19.53125-13.867187-18.90625-15.742188-18.28125-16.367187-16.992187-16.40625-16.367188-16.367188-15.117187-16.992187-13.867188-16.40625-13.867187-16.367188-12.578125-16.992187-11.992188-15.742188-11.328125-16.40625-11.328125-16.367187-10.703125-16.367188-10.117187-16.367187-10.703125-17.03125-10.078125-17.617188-10.078125-17.65625-10.703125-18.90625-10.078125-20.15625-10.703125-20.78125-10.703125-21.40625-10.703125-23.320312-11.328125-24.570313-10.742188-25.195312-10.703125-27.070313-10.078125-28.359375-10.078125-28.945312-8.789062-28.984375-7.578125-30.234375-5.664063-28.984375-3.789062-30.234375-1.25-28.359375 1.25-25.820313 3.164062-24.570312 5.039063-22.03125 6.289062-19.53125 6.914063-17.617188 8.203125-15.117187 7.578125-13.867188 8.789062-11.992187 8.203125L1998.795 297.365l-9.453125 8.164063-8.164063 8.828125-8.203125 8.828125-6.914062 8.828125-6.328125 8.789062-6.289063 8.828125-6.289062 9.453125-5.664063 10.078125-6.328125 10.078125-12.578125 22.65625-6.289062 12.617188-6.289063 13.867187-6.328125 14.492188-6.289062 15.742187-6.289063 16.992188-5.039062 17.65625-4.414063 19.53125-3.164062 19.492187-1.25 20.820313 1.25 21.40625 4.414062 22.65625 6.914063 22.070312 8.828125 20.78125 10.078125 20.15625 10.742187 18.28125 10.664063 16.367188 10.742187 15.742187 10.703125 13.867188 10.078125 12.578125 9.453125 11.328125 9.453125 10.742187 27.070313 27.070313 8.828125 8.203125 8.828125 8.164062 10.078125 7.578125 10.078125 8.164063 11.953125 8.203125 12.578125 8.203125 13.867187 8.164062 15.742188 9.453125 17.65625 8.828125 20.15625 9.453125 22.03125 8.828125 24.570312 9.414063 27.070313 8.203125 29.648437 7.578125 30.859375 6.289062zm0 0" class="e"/><path d="M34.8398 22.918l2.207.3789 2.2656.6914 2.207.8203 2.1406 1.0078 2.0781 1.0703 1.9531 1.1328 1.8906 1.1328 1.7617 1.1992 1.6406 1.1953 1.5742 1.1992 1.5117 1.1953 1.4492 1.1328 1.3828 1.1992 1.3242 1.1328 1.2617 1.1328 1.2578 1.1328 1.1953 1.1992 1.1992 1.1953 1.1953 1.1992 1.1992 1.2578 1.1328 1.3867 1.1953 1.3867 1.1328 1.4453 1.1367 1.5781 1.1328 1.6367 1.0078 1.7617.9453 1.8281.8828 1.8906.6289 1.9531.5039 2.0156.1875 2.0781-.0625 1.9531-.5039 2.0156-.8164 1.8867-1.0742 1.7656-1.2578 1.5117-1.3867 1.3867-1.4492 1.2578-1.5742 1.0703-1.5117.9453-1.5742.8203-1.5742.6914-1.5117.6328-1.5117.5664-1.5117.4414-1.5117.4375-1.5742.3789-1.5117.3789-1.5781.3789-1.6367.3125-1.6992.3789-1.7656.3789-1.824.3796-1.9531.3125-2.0781.3789-2.1445.3789-2.2656.3125-2.3945.3164-2.457.1875-2.4572.129h-2.5195l-2.3906-.1914-2.457-.4414-2.207-.5664-2.0156-.6914-1.7617-.8203-1.5742-.8164L15 81.1211l-1.0703-.7578-.9453-.7539-.8203-.7578-.6289-.6914-.5664-.6289-.4414-.6953-.3789-.6289-.375-.6289-.2539-.6289-.3164-.6953-.3125-.7539-.3164-.8203-.25-.9453-.3789-1.0703-.3164-1.1328-.3125-1.3242L7 66.6953l-.3164-1.6367-.25-1.8281-.125-1.9531v-2.1406l.1875-2.2031.3789-2.0781.5664-2.082.6289-2.0156.6953-1.8867.6914-1.8281.7539-1.6992.6953-1.5742.6914-1.5117.6289-1.3867.5703-1.2617.5664-1.2578.5664-1.1328.5039-1.1367.5039-1.0078.5664-1.0703.5039-1.0078.5664-.9453.6289-1.0078.6953-.9453.8164-1.0078.8828-.9453 1.0078-.9414 1.1992-.8828 1.3205-.8833 1.5742-.8203 1.7031-.6914 1.8242-.5664 2.0781-.3789 2.207-.1875" class="f"/><path d="M347.818437 886.310313l22.070313-3.789063 22.65625-6.914062 22.070312-8.203125 21.40625-10.078125 20.78125-10.703125 19.53125-11.328125 18.90625-11.328125 17.617188-11.992188 16.40625-11.953125 15.742187-11.992187 15.117188-11.953125 14.492187-11.328125 13.828125-11.992188 13.242188-11.328125 12.617187-11.328125 12.578125-11.328125 11.953125-11.992187 11.992188-11.953125 11.953125-11.992188 11.992187-12.578125 11.328125-13.867187 11.953125-13.867188 11.328125-14.453125 11.367188-15.78125 11.328125-16.367187 10.078125-17.617188 9.453125-18.28125 8.828125-18.90625 6.289062-19.53125 5.039063-20.15625 1.875-20.78125-.625-19.53125-5.039063-20.15625-8.164062-18.867187-10.742188-17.65625-12.578125-15.117188-13.867187-13.867187-14.492188-12.578125-15.742187-10.703125-15.117188-9.453125-15.742187-8.203125-15.742188-6.914063L630.67 321.27125l-15.117188-5.664062-15.117187-4.414063-15.117188-4.375-15.742187-3.789062L554.459062 299.24l-15.78125-3.789062-16.367187-3.125-16.992188-3.789063-17.65625-3.789062L469.42 280.95875l-19.53125-3.125-20.78125-3.789062-21.445313-3.789063-22.65625-3.125-23.945312-3.164062-24.570313-1.875L311.92 260.8025h-25.195313l-23.90625 1.914063-24.570312 4.414062-22.070313 5.664063-20.15625 6.914062-17.617187 8.203125-15.742188 8.164063L149.42 304.279063l-10.703125 7.578125-9.453125 7.539062-8.203125 7.578125-6.289063 6.914063-5.664062 6.289062-4.414063 6.953125-3.789062 6.289063-3.75 6.289062-2.539063 6.289063-3.164062 6.953125-3.125 7.539062-3.164063 8.203125-2.5 9.453125-3.789062 10.703125-3.164063 11.328125-3.125 13.242188L69.42 448.536875l-3.164063 16.367188-2.5 18.28125-1.25 19.53125v21.40625l1.875 22.03125L68.17 566.935313l5.664062 20.820312 6.289063 20.15625 6.953125 18.867188 6.914062 18.28125 7.539063 16.992187 6.953125 15.742188 6.914062 15.117187 6.289063 13.867188 5.703125 12.617187 5.664062 12.578125 5.664063 11.328125 5.039062 11.367188 5.039063 10.078125 5.664062 10.703125 5.039063 10.078125 5.664062 9.453125 6.289063 10.078125 6.953125 9.453125 8.164062 10.078125 8.828125 9.453125 10.078125 9.414062 11.992188 8.828125L230.67 861.115l15.742187 8.203125 17.03125 6.914063 18.242188 5.664062 20.78125 3.789063 22.070312 1.875zm0 0" class="e"/><path d="M33.1406 48.4297c0 .625-.507813 1.132812-1.132813 1.132812S30.875 49.054688 30.875 48.429688s.507812-1.132813 1.132812-1.132813 1.132813.507813 1.132813 1.132813" class="c"/><path d="M330.82625 631.193125c0-6.25-5.078125-11.328125-11.328125-11.328125S308.17 624.943125 308.17 631.193125s5.078125 11.328125 11.328125 11.328125 11.328125-5.078125 11.328125-11.328125zm0 0" class="a"/><path d="M38.8086 73.9414c0 .625-.507813 1.132813-1.132813 1.132813s-1.132812-.507813-1.132812-1.132813c0-.628906.507812-1.136718 1.132812-1.136718s1.132813.507812 1.132813 1.136718" class="c"/><path d="M387.505937 376.075938c0-6.25-5.078125-11.328125-11.328125-11.328125s-11.328125 5.078125-11.328125 11.328125c0 6.289062 5.078125 11.367187 11.328125 11.367187s11.328125-5.078125 11.328125-11.367187zm0 0" class="a"/><path d="M214.5508 48.4297c0 .625-.503906 1.132812-1.132812 1.132812-.625 0-1.132813-.507812-1.132813-1.132812s.507813-1.132813 1.132813-1.132813c.628906 0 1.132812.507813 1.132812 1.132813" class="c"/><path d="M2144.927812 631.193125c0-6.25-5.039062-11.328125-11.328125-11.328125-6.25 0-11.328125 5.078125-11.328125 11.328125s5.078125 11.328125 11.328125 11.328125c6.289063 0 11.328125-5.078125 11.328125-11.328125zm0 0" class="a"/><path d="M220.2227 76.7734c0 .628906-.507812 1.136718-1.136718 1.136718-.625 0-1.132813-.507812-1.132813-1.136718 0-.625.507813-1.132813 1.132813-1.132813.628906 0 1.136718.507813 1.136718 1.132813" class="c"/><path d="M2201.646562 347.755625c0-6.289062-5.078125-11.367187-11.367187-11.367187-6.25 0-11.328125 5.078125-11.328125 11.367187 0 6.25 5.078125 11.328125 11.328125 11.328125 6.289062 0 11.367187-5.078125 11.367187-11.328125zm0 0" class="a"/><g clip-path="url(#i)"><g clip-path="url(#j)"><path d="M319.498125 631.193125h.625l1.25.625 2.539062.625 3.75 1.289063 5.039063 1.875 7.578125 2.539062 8.828125 2.5 11.328125 3.789063 13.242187 3.789062 15.117188 5.039063 17.617187 5.039062 18.90625 6.289063 20.78125 5.664062 22.03125 6.914063 23.945313 6.953125 25.195312 6.914062 26.445313 7.578125 27.109375 6.914063 28.359375 7.539062 28.945312 6.953125 30.234375 7.539063 30.859375 6.953125 31.523438 6.914062 32.109375 6.914063 33.398437 6.328125 34.023438 6.289062 35.898437 6.289063 36.523438 5.039062 37.8125 5.664063L969.537187 782.99l40.9375 4.414063 42.226563 3.789062 43.476562 3.164063 45.351563 3.125 46.601562 1.914062 47.226563 1.25 47.890625.625 50.390625-.625 48.476562-1.25 47.265625-2.539062 45.976563-3.125 42.851562-3.789063 41.5625-4.414062 39.0625-4.414063 37.148438-5.664062 35.273437-5.664063 34.023438-6.289062 32.109375-6.328125 31.484375-6.914063 29.609375-6.953125 28.359375-6.914062 27.734375-7.539063 26.445312-7.578125 25.820313-8.203125 24.570312-7.539062 23.945313-7.578125 22.65625-7.539063 21.40625-7.578125 20.15625-7.539062 18.28125-6.289063 17.65625-6.953125 15.078125-5.664062 13.867187-5.039063 11.992188-5.039062 10.078125-3.789063 8.164062-3.75 6.953125-2.539062 4.414063-1.875 7.539062-3.164063" class="a"/></g></g><path d="M2030.318437 704.904063l93.828125-69.921875-115.898437 17.617187" class="d"/><g clip-path="url(#k)"><g clip-path="url(#l)"><path d="M376.177812 376.075938h.625l1.25.625 1.914063.664062 3.789062.625 5.039063 1.25 6.914062 1.875 8.828125 1.914063 10.078125 2.5 12.578125 2.539062 14.492188 3.75 16.367187 3.789063 18.28125 3.789062 19.53125 4.414063 21.40625 4.414062 22.695313 5.039063 23.945312 5.039062 25.195313 5.039063 26.445312 5.039062 27.070313 5.039063 27.734375 5.039062 28.945312 5.039063 28.984375 5.039062 30.859375 4.414063L790.045 457.99l32.109375 4.414063 33.398437 3.75 34.609375 3.789062 35.3125 3.789063 37.148438 3.789062 38.398437 3.125 39.726563 2.539063 41.5625 2.5 43.4375 1.914062 44.726562 1.25 45.976563.625 47.265625.625 47.890625-.625 50.390625-1.25 49.101562-1.914062 47.890625-2.5 45.976563-3.164063 43.476562-3.125 42.1875-3.789062 39.6875-4.414063 38.4375-5.039062 36.523438-4.414063 34.648437-5.664062 33.359375-5.039063 32.148438-5.664062 30.859375-5.664063 30.234375-6.328125 28.359375-5.664062 28.320312-6.289063 26.445313-6.289062 26.484375-6.289063 24.570312-6.328125 23.90625-5.664062 22.695313-6.289063 21.40625-5.664062 19.53125-5.664063 18.28125-5.039062 16.367187-4.414063 15.117188-4.414062 12.578125-3.789063 10.742187-3.164062 8.789063-2.5 6.953125-2.539063 5.664062-1.25 7.539063-2.5" class="a"/></g></g><path d="M2081.959062 413.888438l98.242188-63.007813-116.523438 8.828125" class="d"/><g clip-path="url(#m)"><g clip-path="url(#n)"><path d="M2133.599687 631.193125h-.625l-1.25-.625h-1.914062l-3.75-.625-4.414063-1.25-6.953125-1.289062-8.164062-1.875-10.078125-1.875-11.992188-2.539063-13.867187-2.5-15.078125-3.164062-17.65625-3.164063-18.28125-3.125-20.15625-3.789062-21.40625-3.789063-22.65625-3.75-23.945313-3.789062-24.570312-3.789063-25.820313-3.789062-26.445312-3.789063-27.734375-3.75-28.359375-3.789062-29.609375-3.789063-31.484375-3.125-32.109375-3.164062-34.023438-3.164063-35.273437-3.125-37.148438-2.539062-39.0625-2.5-41.5625-1.914063-42.851562-1.875-45.976563-1.875-47.265625-.664062-48.476562-1.25h-98.28125l-47.226563.625-46.601562 1.289062-45.351563 1.25-43.476562 1.875-42.226563 1.914063-40.9375 2.5-39.023437 2.539062-37.8125 2.5-36.523438 2.539063-35.898437 3.125-34.023438 3.164062-33.398437 3.125-32.109375 3.164063-31.523438 3.789062-30.859375 3.789063-30.234375 3.125-28.945312 3.789062-28.359375 3.789063-27.109375 3.789062-26.445313 3.125-25.195312 3.789063-23.945313 3.789062-22.03125 3.125-20.78125 3.164063-18.90625 2.5L388.795 620.49l-15.117188 1.875-13.242187 2.539063-11.328125 1.25-8.828125 1.914062-7.578125 1.25-5.039063.625-8.164062 1.25" class="a"/></g></g><path d="M437.271562 584.591563 329.57625 629.318125l116.523437 11.328125" class="d"/><g clip-path="url(#o)"><g clip-path="url(#p)"><path d="M2190.279375 347.755625h-.625l-1.25-.625-2.5-1.289062-3.164063-1.25-5.664062-1.875-6.953125-3.164063-8.789063-3.164062-10.742187-4.375-12.578125-5.039063-15.117188-5.703125-16.367187-5.664062-18.28125-6.914063-19.53125-6.914062-21.40625-7.578125-22.695313-7.539063-23.90625-8.203125-24.570312-7.578125-26.484375-8.164062-26.445313-8.203125-28.320312-7.539063-28.359375-7.578125-30.234375-7.539062-30.859375-6.953125-32.148438-6.914063-33.359375-6.289062-34.648437-6.328125-36.523438-5.664063-38.4375-5.039062-39.6875-4.414063-42.1875-4.414062-43.476562-3.125-45.976563-2.539063-47.890625-1.875-49.101562-.625H1311.6075l-47.890625 1.25-47.265625 1.875-45.976563 3.164063-44.726562 3.789062-43.4375 4.414063-41.5625 5.039062-39.726563 5.039063-38.398437 6.289062-37.148438 6.289063-35.3125 6.289062-34.609375 6.953125-33.398437 7.539063-32.109375 7.578125-30.898438 7.539062-30.859375 8.203125-28.984375 8.203125-28.945312 8.164063-27.734375 8.203125-27.070313 8.203125L589.1075 300.49l-25.195313 8.203125-23.945312 7.539063-22.695313 8.203125-21.40625 7.578125-19.53125 6.914062-18.28125 6.289063-16.367187 6.289062-14.492188 5.039063-12.578125 4.414062-10.078125 4.414063-8.828125 3.164062-6.914062 2.5-5.039063 1.914063-7.578125 3.125" class="a"/></g></g><path d="M479.498125 302.404063l-93.867188 69.921875 115.898438-17.65625" class="d"/></g><path d="M9.1406-7.6094v-.2031h-2.375v.2031c.640625.0625.84375.1875.84375.546875 0 .1875-.296875 1.375-.875 3.421875l-.1562.5938c-.531275 1.9531-1.2969 2.7656-2.6094 2.7656-1 0-1.671875-.5625-1.671875-1.40625 0-.40625.359375-1.8125 1.171875-4.609375l.0625-.2344c.25-.828125.4375-1 1.25-1.078125v-.2031H1.5156v.2031c.8125.0625.9375.140625.9375.484375 0 .140625-.03125.328125-.09375.53125l-.625 2.2969C1.359375-2.984375 1.21875-2.25 1.21875-1.75c0 1.140625 1.09375 1.96875 2.609375 1.96875 1.5625 0 2.5625-.859375 3.078125-2.640625l1-3.4062c.453125-1.5625.5-1.625 1.234375-1.78125zm0 0" id="s"/><path d="M5.0625-7.3281c0-.4375-.4375-.78125-1.015625-.78125s-1.03125.25-1.46875.78125c-.359375.484375-.625 1.046875-.96875 2.21875H.5l-.0781.375H1.5L.4375.2813C.171875 1.578175-.21875 2.2188-.71875 2.2188c-.140625 0-.234375-.078125-.234375-.1875 0-.046875.015625-.078125.046875-.125.046875-.078125.0625-.125.0625-.203125 0-.25-.21875-.453125-.46875-.453125s-.4375.21875-.4375.5c0 .40625.40625.71875.9375.71875 1.0625 0 1.890625-1.171875 2.390625-3.375L2.4375-4.7344h1.2969l.0781-.375H2.5156C2.875-7 3.3125-7.84375 3.984375-7.84375c.15625 0 .265625.0625.265625.15625 0 0-.015625.0625-.046875.109375-.0625.09375-.078125.15625-.078125.25 0 .28125.171875.484375.4375.484375.28125 0 .5-.21875.5-.484375zm0 0" id="a"/><path d="M4.6094.7188c0-.75-.578125-1.28125-1.734375-1.578125-.515625-.125-.828125-.328125-.828125-.5 0-.1875.265625-.5.421875-.5 0 0 .046875 0 .09375.015625.09375.03125.265625.03125.359375.03125 1.09375 0 2.1875-.953125 2.1875-1.875 0-.203125-.03125-.4375-.09375-.6875h.5938l-.0156-.4687h-.7344c-.03125 0-.09375-.015625-.1875-.09375-.328125-.21875-.71875-.328125-1.171875-.328125-1.328125 0-2.390625.921875-2.390625 2.03125.015625.625.28125.984375.953125 1.296875-.6875.484375-.90625.71875-.90625 1 0 .15625.109375.296875.34375.46875-1.15625.75-1.390625 1-1.390625 1.53125 0 .859375.78125 1.40625 2 1.40625 1.515625 0 2.5-.71875 2.5-1.75zm-.7187.3594c0 .640625-.671875 1.125-1.59375 1.125C1.343825 2.2032.7657 1.750075.7657.98445c0-.296875.0625-.5.25-.71875.15625-.203125.65625-.59375.75-.59375 0 0 .046875 0 .0625.015625l.3438.1094C3.4375.1875 3.890625.53125 3.890625 1.078125zm-.0782-3.8907c-.265625.5-.640625.75-1.046875.75-.453125 0-.703125-.34375-.703125-.90625 0-1.09375.65625-2.046875 1.421875-2.046875.453125 0 .671875.296875.6875.859375 0 .421875-.140625.9375-.359375 1.34375zm0 0" id="b"/><path d="M5.6094-3.7812c0-.921875-.515625-1.484375-1.375-1.484375-.78125 0-1.359375.375-2.046875 1.34375l.375-1.2969s-.03125-.046875-.0625-.046875h-.0156l-1.8437.25.0313.1875c.359375 0 .78125 0 .78125.328125 0 .140625-.421875 1.78125-.859375 3.375l-.6875 2.6719c-.125.5625-.28125.703125-.796875.71875v.1875h2.4375v-.1875c-.5625 0-.765625-.09375-.765625-.359375 0-.15625.203125-1.0625.453125-1.984375C1.53125.078125 1.75.125 2.015625.125c1.75 0 3.59375-1.984375 3.59375-3.90625zm-1.0781.0469c0 .78125-.328125 1.78125-.828125 2.5-.515625.75-1.09375 1.140625-1.734375 1.140625-.328125 0-.5625-.1875-.5625-.4375 0-.40625.40625-1.96875.765625-2.859375C2.484375-4.1875 3.15625-4.75 3.734375-4.75c.015625 0 .046875 0 .0625 0 .5.015625.734375.328125.734375 1.015625zm0 0" id="c"/><path d="M10.8281-7.6094v-.2031H8.625v.2031c.65625.0625.765625.140625.765625.46875 0 .203125-.078125.484375-.25.8125L6.9063-1.9375l-.4688-4.7969-.0156-.1719c0-.5.171875-.640625.8125-.703125V-7.8125H4.3907v.2031c.6875.015625.8125.109375.890625.6875l.1094.8281-2.0625 4.1563L2.8125-6.7969l-.0156-.1562c0-.46875.140625-.578125.875-.65625v-.2031H.8438v.2031c.390625.046875.5.078125.609375.171875.15625.140625.203125.34375.34375 1.46875L2.5313.2188h.2344L5.422-5.2187h.0469L6.0783.2188h.2342L9.9375-6.75c.3125-.609375.4375-.71875.890625-.859375zm0 0" id="t"/><path d="M8.2188-7.6094v-.2031H6v.2031c.53125.0625.75.171875.75.40625 0 .21875-.21875.71875-.625 1.421875l-2.4531 4.25L2.875-6.8281c0-.0625 0-.109375 0-.171875 0-.40625.15625-.53125.921875-.609375v-.2031H.9063v.2031c.671825.07815.703075.1094.953075 1.6094L2.875.2188h.2188l4.4531-7.3594c.203125-.3125.40625-.46875.671875-.46875zm0 0" id="d"/><path d="M5.0938-4.6094c0-.359375-.296875-.65625-.65625-.65625-.28125 0-.46875.171875-.46875.4375 0 .1875.09375.3125.328125.46875.234375.125.3125.234375.3125.40625 0 .46875-.421875 1.390625-1.453125 3.09375L2.9219-2.25c-.1875-1.0625-.859375-3.015625-1.03125-3.015625h-.1562L.5625-5.0625l-.3906.0781v.2031c.15625-.03125.25-.046875.375-.046875.484375 0 .703125.171875.921875.765625.328125.8125.984375 3.484375.984375 3.96875 0 .125-.046875.265625-.125.421875-.09375.15625-.625.859375-.84375 1.078125-.28125.296875-.421875.40625-.578125.40625-.078125 0-.15625-.046875-.28125-.140625C.4375 1.53125.328125 1.46875.171875 1.46875c-.25 0-.453125.203125-.453125.46875 0 .3125.25.53125.609375.53125.671875 0 1.96875-1.375 3.203125-3.4375 1-1.65625 1.5625-2.96875 1.5625-3.640625zm0 0" id="u"/><path d="M4.9688-1.2344l-.1562-.0937c-.109375.125-.15625.1875-.265625.328125-.28125.359375-.40625.46875-.5625.46875-.171875 0-.28125-.15625-.359375-.484375-.03125-.109375-.046875-.171875-.046875-.1875-.296875-1.125-.4375-1.765625-.4375-1.953125C3.671975-4.0781 4.09385-4.60935 4.3126-4.60935c.078125 0 .1875.046875.296875.109375.140625.078125.21875.09375.328125.09375.234375 0 .40625-.171875.40625-.421875 0-.265625-.203125-.4375-.484375-.4375-.53125 0-.96875.421875-1.8125 1.703125l-.125-.6562c-.171875-.8125-.296875-1.046875-.625-1.046875-.28125 0-.65625.09375-1.40625.34375l-.125.0469.0469.1719.203-.047c.234375-.0625.375-.078125.46875-.078125.296875 0 .375.109375.53125.828125l.3438 1.4688-.9687 1.3906c-.250075.35935-.48445.5781-.60945.5781-.078125 0-.203125-.03125-.3125-.109375C.3125-.75.1875-.78125.078125-.78125c-.234375 0-.40625.171875-.40625.40625 0 .3125.234375.5.609375.5.359375 0 .5-.09375 1.109375-.8125L2.4688-2.1094l.3594 1.4375c.140625.625.296875.796875.6875.796875.453125 0 .765625-.28125 1.453125-1.359375zm0 0" id="v"/><path d="M6.8594-3.9375v-.6719H.7344v.6719zm0 2.4219v-.6719H.7344v.6719zm0 0" id="w"/><path d="M3.5313-8.5781C1.796925-7.4531.578175-5.5156.578175-3.0781c0 2.234375 1.265625 4.484375 2.90625 5.5l.1563-.2031C2.0625.984375 1.609375-.46875 1.609375-3.109375c0-2.65625.484375-4.03125 2.03125-5.265625zm0 0" id="e"/><path d="M.4531-8.5781.3438-8.375C1.890625-7.140625 2.375-5.765625 2.375-3.109375 2.375-.46875 1.921875.984375.34375 2.21875l.1406.2031c1.65625-1.015625 2.921875-3.265625 2.921875-5.5 0-2.4375-1.21875-4.375-2.953125-5.5zm0 0" id="f"/></defs><use href="#r"/><use x="8.9" y="17.243" href="#s"/><use x="129.542" y="72.806" href="#a"/><use x="128.081" y="52.143" href="#b"/><use x="22.706" y="54.096" href="#c"/><use x="213.609" y="37.087" href="#t"/><use x="227.9552" y="37.087" href="#w"/><use x="240.9625" y="37.087" href="#a"/><use x="246.9879" y="37.087" href="#e"/><use x="250.969" y="37.087" href="#d"/><use x="259.3855" y="37.087" href="#f"/><use x="222.408" y="80.806" href="#u"/><use x="28.629" y="79.609" href="#v"/><use x="216.64" y="57.498" href="#a"/><use x="222.6654" y="57.498" href="#e"/><use x="227.9974" y="57.498" href="#c"/><use x="234.4532" y="57.498" href="#f"/><use x="28.116" y="39.355" href="#d"/><use x="129.29" y="26.945" href="#a"/><use x="127.829" y="102.666" href="#b"/><style>.a{fill:none;stroke:#000;stroke-linecap:butt;stroke-linejoin:bevel;stroke-miterlimit:10;stroke-opacity:1;stroke-width:4.72425;transform:matrix(.1,0,0,-.1,.058,111.549)}.b{clip-rule:evenodd}.c{fill:#000;fill-opacity:1;fill-rule:evenodd}.d{fill:none;stroke:#000;stroke-linecap:butt;stroke-linejoin:miter;stroke-miterlimit:10;stroke-opacity:1;stroke-width:4.72425;transform:matrix(.1,0,0,-.1,.058,111.549)}.e{fill:none;stroke:#000;stroke-dasharray:9.4485,9.4485;stroke-dashoffset:9.4485;stroke-linecap:butt;stroke-linejoin:bevel;stroke-miterlimit:10;stroke-opacity:1;stroke-width:4.72425;transform:matrix(.1,0,0,-.1,.058,111.549)}.f{fill:#e9e9e9;fill-opacity:1;fill-rule:evenodd}</style></svg>