<svg xmlns="http://www.w3.org/2000/svg" width="252pt" height="73pt" viewBox="0 0 252 73"><defs><path d="M3.3125-1.32812v-.3125H.3594v.3125zm0 0" id="b"/><path d="M2.2969.01563v-.15625L2-.17187c-.296875-.015625-.34375-.0625-.34375-.359375v-3.25l-.0781-.03125c-.359375.1875-.75.359375-1.25.53125L.375-3.04687h.0469c.234375-.109375.484375-.21875.71875-.328125.03125 0 .046875.0625.046875.1875v2.65625c0 .296875-.0625.34375-.359375.359375l-.2969.03125v.15625C.828125 0 1.125 0 1.4375 0 1.71875 0 2 0 2.296875.015625zm0 0" id="c"/><path d="M2.5938.01563v-.15625l-.2656-.03125C2.0625-.1875 2-.25 2-.578125V-1c.3125 0 .4375.015625.59375.03125v-.39062s-.28125.015625-.453125.015625H2v-.76562c0-.96875 0-1.4375.03125-1.671875l-.0625-.03125-.4062.15625L.0156-1.125.0781-1h1.4532v.42188c0 .328125-.0625.40625-.328125.40625l-.3437.03125v.15625C1.15625 0 1.453125 0 1.75 0c.28125 0 .5625 0 .84375.015625zM1.5313-1.34375H.3594l1.1719-1.9375zm0 0" id="e"/><path d="M2.5313-1.23437c0-.25-.109375-.484375-.296875-.625C2.09375-1.953125 1.96875-2 1.6875-2.046875c.4375-.34375.609375-.59375.609375-.921875 0-.484375-.40625-.8125-1.015625-.8125-.375 0-.625.109375-.890625.375l-.1562.67188H.4063L.5-3.03125c.0625-.1875.40625-.375.703125-.375.34375 0 .640625.28125.640625.625 0 .421875-.328125.765625-.71875.765625-.046875 0-.25-.015625-.25-.015625L.8125-1.75l.0313.03125c.203125-.078125.3125-.109375.46875-.109375.453125 0 .71875.28125.71875.78125 0 .5625-.34375.9375-.859375.9375-.25 0-.46875-.09375-.640625-.234375-.125-.125-.203125-.25-.296875-.546875l-.1562.04688c.125.34375.15625.53125.203125.8125.28125.09375.53125.140625.734375.140625.65625 0 1.515625-.578125 1.515625-1.34375zm0 0" id="f"/><path d="M2.5625.01563c0-.109375 0-.171875 0-.25 0-.0625 0-.125 0-.25l-1.8906.0625 1-1.0625c.53125-.5625.6875-.859375.6875-1.28125 0-.625-.421875-1.015625-1.125-1.015625-.390625 0-.65625.109375-.921875.390625l-.0937.73438H.375l.0625-.25c.09375-.3125.296875-.453125.65625-.453125.46875 0 .78125.296875.78125.765625 0 .40625-.234375.8125-.859375 1.46875l-.9219 1v.14063C.5 0 .90625 0 1.3125 0c.421875 0 .84375 0 1.25.015625zm0 0" id="g"/><path d="M3.9063-1.5625v-.375H.4219v.375zm0 0" id="h"/><path d="M2.7031.01563v-.1875L2.375-.1875c-.359375-.03125-.421875-.09375-.421875-.4375v-3.82812l-.0937-.03125c-.421875.21875-.875.40625-1.46875.609375l.0469.28125H.5c.28125-.125.5625-.25.859375-.375.03125 0 .046875.0625.046875.203125V-.625c0 .34375-.078125.40625-.421875.4375L.625-.17187v.1875C.984375 0 1.328125 0 1.6875 0c.34375 0 .6875 0 1.015625.015625zm0 0" id="i"/><path d="M2-2.95312c0-.328125-.3125-.640625-.640625-.640625s-.625.3125-.625.640625.28125.625.625.625S2-2.625 2-2.953125zm0 0" id="d"/><path id="a" d="M1269.375 34.33594c0 5.15625-4.21875 9.335937-9.335938 9.335937-5.195312 0-9.375-4.179687-9.375-9.335937S1254.84375 25 1260.039062 25c5.117188 0 9.335938 4.179688 9.335938 9.335938zm0 0"/></defs><g class="b"><path d="M1269.375 688.867188c0 5.15625-4.21875 9.335937-9.335938 9.335937-5.195312 0-9.375-4.179687-9.375-9.335937s4.179688-9.335938 9.375-9.335938c5.117188 0 9.335938 4.179688 9.335938 9.335938zm0 0"/><path d="M1202.734375 328.867188v65.46875" class="a"/><path d="M1212.070312 34.335938c0 5.15625-4.179687 9.335937-9.335937 9.335937s-9.335937-4.179687-9.335937-9.335937S1197.578125 25 1202.734375 25s9.335937 4.179688 9.335937 9.335938zm0 0"/><path d="M1199.726562 328.867188v65.46875" class="a"/><path d="M1209.0625 34.335938c0 5.15625-4.179688 9.335937-9.335938 9.335937s-9.335937-4.179687-9.335937-9.335937S1194.570312 25 1199.726562 25s9.335938 4.179688 9.335938 9.335938zm0 0"/><path d="M1196.367188 328.867188v65.46875" class="a"/><path d="M1205.703125 34.335938c0 5.15625-4.179687 9.335937-9.335937 9.335937s-9.335938-4.179687-9.335938-9.335937S1191.210938 25 1196.367188 25s9.335937 4.179688 9.335937 9.335938zm0 0"/><path d="M1192.65625 328.867188v65.46875" class="a"/><path d="M1201.953125 34.335938c0 5.15625-4.179687 9.335937-9.296875 9.335937-5.195312 0-9.375-4.179687-9.375-9.335937S1187.460938 25 1192.65625 25c5.117188 0 9.296875 4.179688 9.296875 9.335938zm0 0"/><path d="M1188.4375 328.867188v65.46875" class="a"/><path d="M1197.773438 34.335938c0 5.15625-4.179688 9.335937-9.335938 9.335937s-9.335938-4.179687-9.335938-9.335937S1183.28125 25 1188.4375 25s9.335938 4.179688 9.335938 9.335938zm0 0"/><path d="M1183.632812 328.867188v65.46875" class="a"/><path d="M1193.007812 34.335938c0 5.15625-4.21875 9.335937-9.375 9.335937s-9.335937-4.179687-9.335937-9.335937S1178.476562 25 1183.632812 25s9.375 4.179688 9.375 9.335938zm0 0"/><path d="M1178.203125 328.867188v65.46875" class="a"/><path d="M1187.539062 34.335938c0 5.15625-4.179687 9.335937-9.335937 9.335937s-9.335937-4.179687-9.335937-9.335937S1173.046875 25 1178.203125 25s9.335937 4.179688 9.335937 9.335938zm0 0"/><path d="M1171.914062 328.867188v65.46875" class="a"/><path d="M1181.25 34.335938c0 5.15625-4.179688 9.335937-9.335938 9.335937s-9.335937-4.179687-9.335937-9.335937S1166.757812 25 1171.914062 25s9.335938 4.179688 9.335938 9.335938zm0 0"/><path d="M1164.53125 328.867188v65.46875" class="a"/><path d="M1173.90625 34.335938c0 5.15625-4.179688 9.335937-9.375 9.335937-5.117188 0-9.335938-4.179687-9.335938-9.335937S1159.414062 25 1164.53125 25c5.195312 0 9.375 4.179688 9.375 9.335938zm0 0"/><path d="M1155.898438 328.867188v65.46875" class="a"/><path d="M1165.234375 34.335938c0 5.15625-4.179687 9.335937-9.335937 9.335937s-9.335938-4.179687-9.335938-9.335937S1150.742188 25 1155.898438 25s9.335937 4.179688 9.335937 9.335938zm0 0"/><path d="M1145.46875 328.867188v65.46875" class="a"/><path d="M1154.804688 34.335938c0 5.15625-4.179688 9.335937-9.335938 9.335937s-9.335938-4.179687-9.335938-9.335937S1140.3125 25 1145.46875 25s9.335938 4.179688 9.335938 9.335938zm0 0"/><path d="M1132.734375 328.867188v65.46875" class="a"/><path d="M1142.070312 34.335938c0 5.15625-4.179687 9.335937-9.335937 9.335937s-9.335937-4.179687-9.335937-9.335937S1127.578125 25 1132.734375 25s9.335937 4.179688 9.335937 9.335938zm0 0"/><path d="M1116.835938 328.867188v65.46875" class="a"/><path d="M1126.171875 34.335938c0 5.15625-4.179687 9.335937-9.335937 9.335937S1107.5 39.492188 1107.5 34.335938 1111.679688 25 1116.835938 25s9.335937 4.179688 9.335937 9.335938zm0 0"/><path d="M1096.367188 328.867188v65.46875" class="a"/><path d="M1105.703125 34.335938c0 5.15625-4.179687 9.335937-9.335937 9.335937s-9.335938-4.179687-9.335938-9.335937S1091.210938 25 1096.367188 25s9.335937 4.179688 9.335937 9.335938zm0 0"/><path d="M1069.101562 328.867188v65.46875" class="a"/><path d="M1078.4375 34.335938c0 5.15625-4.179688 9.335937-9.335938 9.335937s-9.335937-4.179687-9.335937-9.335937S1063.945312 25 1069.101562 25s9.335938 4.179688 9.335938 9.335938zm0 0"/><path d="M1030.9375 328.867188v65.46875" class="a"/><path d="M1040.273438 34.335938c0 5.15625-4.179688 9.335937-9.335938 9.335937s-9.335938-4.179687-9.335938-9.335937S1025.78125 25 1030.9375 25s9.335938 4.179688 9.335938 9.335938zm0 0"/></g><use x="94.1238" y="46.366" href="#b"/><use x="97.8437" y="46.366" href="#c"/><path d="M94.1133 46.85938h6.4805v.48047h-6.4805zm0 0"/><use x="96.0441" y="51.6461" href="#e"/><g class="b"><path d="M973.632812 328.867188v65.46875" class="a"/><path d="M982.96875 34.335938c0 5.15625-4.179688 9.335937-9.335938 9.335937s-9.335937-4.179687-9.335937-9.335937S968.476562 25 973.632812 25s9.335938 4.179688 9.335938 9.335938zm0 0"/></g><use x="84.5789" y="46.366" href="#b"/><use x="88.2988" y="46.366" href="#c"/><path d="M84.5664 46.85938h6.4805v.48047h-6.4805zm0 0"/><use x="86.4988" y="51.527" href="#f"/><g class="b"><path d="M878.203125 328.867188v65.46875" class="a"/><path d="M887.539062 34.335938c0 5.15625-4.179687 9.335937-9.335937 9.335937s-9.335937-4.179687-9.335937-9.335937S873.046875 25 878.203125 25s9.335937 4.179688 9.335937 9.335938zm0 0"/></g><use x="65.4879" y="46.4871" href="#b"/><use x="69.2078" y="46.4871" href="#c"/><path d="M65.4766 46.98047h6.4805v.48047h-6.4805zm0 0"/><use x="67.4082" y="51.527" href="#g"/><g class="b"><path d="M687.265625 328.867188v65.46875" class="a"/><path d="M696.601562 34.335938c0 5.15625-4.179687 9.335937-9.335937 9.335937s-9.335937-4.179687-9.335937-9.335937S682.109375 25 687.265625 25s9.335937 4.179688 9.335937 9.335938zm0 0"/></g><use x="7.6141" y="49.366" href="#h"/><use x="11.934" y="49.366" href="#i"/><g class="b"><path d="M114.53125 328.867188v65.46875" class="a"/><path d="M123.867188 34.335938c0 5.15625-4.179688 9.335937-9.335938 9.335937s-9.335938-4.179687-9.335938-9.335937S109.375 25 114.53125 25s9.335938 4.179688 9.335938 9.335938zm0 0"/></g><use x="103.125" y="48.766" href="#d"/><use x="107.6852" y="48.766" href="#d"/><use x="112.2453" y="48.766" href="#d"/><g stroke-miterlimit="10" transform="matrix(.1 0 0 -.1 0 73)"><g stroke="#000"><g fill="none" stroke-width="7.9701"><path d="M114.53125 34.335938h1145.507812"/><path d="M1260.039062 688.867188h1145.46875"/></g><g stroke-width="1.2"><path d="M1202.734375 328.867188h57.304687v65.46875h-57.304687zm0 0"/><path d="M1202.734375 23.203125h57.304687V45.46875h-57.304687zm0 0"/></g><g fill="none" stroke-width="3.985"><path d="M0 361.601562h2520.039062"/><path d="M1260.039062 1.601562v720"/></g></g><g stroke-width="3.985"><use fill="#fff" stroke="#fff" href="#a"/><use fill="none" stroke="#000" href="#a"/></g></g><style>.a{fill:none}.b{stroke:#000;stroke-miterlimit:10;stroke-width:3.985;transform:matrix(.1,0,0,-.1,0,73)}</style></svg>