<svg xmlns="http://www.w3.org/2000/svg" width="149pt" height="108pt" viewBox="0 0 149 108"><defs><path d="M5.3594-.9375l-.0937-.2344c-.4375.359375-.734375.53125-.921875.53125S4-.75 3.890625-.984375s-.25-.671875-.3125-1.03125L3.375-3.2187l.4219-.5781c.546875-.78125.875-1.0625 1.25-1.0625.1875 0 .328125.109375.390625.28125L5.6094-4.625l.1719-1.0156c-.140625-.078125-.25-.125-.359375-.125-.46875 0-.953125.4375-1.6875 1.53125l-.4531.6563-.0625-.5625c-.140625-1.1875-.46875-1.625-1.171875-1.625-.3125 0-.578125.09375-.6875.25l-.6875 1L.875-4.4062c.359375-.40625.59375-.5625.828125-.5625.390625 0 .65625.484375.859375 1.65625l.125.75-.4687.7344c-.515625.796875-.921875 1.1875-1.265625 1.1875C.78125-.640625.640625-.6875.625-.75l-.1406-.3437-.2344.0468c0 .2344-.015625.39065-.09375.76565C.125-.125.125-.09375.109375-.015625.28125.078125.484375.125.625.125c.390625 0 .859375-.34375 1.234375-.90625l.9063-1.3906.125.8281C3.0625-.328125 3.328125.125 3.75.125c.265625 0 .65625-.203125 1.03125-.546875zm0 0" id="g"/><path d="M5.8594-5.6562l-.1406-.1094c-.34375.140625-.609375.203125-.875.234375l-.4219 1.5781c-.140625.5625-.5625 1.4375-.953125 2.015625-.421875.609375-1 1.140625-1.265625 1.140625s-.25-.578125-.234375-.734375l.1875-2.3125c.015625-.375.046875-.828125.046875-1.171875 0-.53125-.09375-.75-.296875-.75-.15625 0-.3125.09375-.890625.484375l-.9844.6719.1406.2031.5938-.3437c.0625-.0625.21875-.15625.296875-.15625.3125 0 .265625.609375.25.8125L1.1094-1.1875l-.0156.4688c0 .5.21875.84375.515625.84375.453125 0 1.453125-1.015625 2.34375-2.359375L3.375-.1875c-.609375 2.109375-1.21875 2.984375-2.046875 2.984375-.421875 0-.75-.328125-.75-.734375 0-.0625.015625-.15625.03125-.265625L.4844 1.75l-.5625.4063c-.015625.078125-.015625.15625-.015625.203125 0 .515625.4375.9375.984375.9375 1.265625 0 2.578125-1.484375 3.28125-3.6875zm0 0" id="h"/><path d="M4.6719-1.7656c0-.375-.09375-.65625-.328125-.890625-.3125-.3125-.703125-.4375-1.765625-.640625-.96875-.1875-1.296875-.4375-1.296875-.984375 0-.59375.421875-.9375 1.140625-.9375.8125 0 1.421875.421875 1.421875.984375v.2813h.3281c.015625-.703125.03125-.984375.0625-1.359375-.640625-.203125-1.0625-.296875-1.5625-.296875-1.375 0-2.234375.65625-2.234375 1.734375 0 .578125.265625.984375.8125 1.234375.328125.140625.96875.328125 1.78125.515625.53125.109375.765625.375.765625.828125 0 .640625-.609375 1.09375-1.453125 1.09375-.875 0-1.5-.421875-1.5-1.015625v-.4844H.4844c0 .8125-.03125 1.171875-.125 1.65625.625.203125 1.09375.28125 1.640625.28125 1.5625 0 2.671875-.828125 2.671875-2zm0 0" id="i"/><path d="M3.2344.0313v-.3594l-.5469-.0313C2.28125-.375 2.25-.46875 2.25-1.21875v-7.3594l-.1094-.0937c-.53125.203125-.921875.296875-1.859375.4375v.3281H.9375c.21875 0 .3125.140625.3125.5v6.1875c0 .75-.046875.84375-.453125.859375L.25-.3281v.3594C.75.015625 1.25 0 1.75 0s.984375.015625 1.484375.03125zm0 0" id="j"/><path d="M6.1406-2.8281c0-1.625-1.171875-2.78125-2.8125-2.78125C1.59375-5.609375.375-4.375.375-2.59375.375-.90625 1.453125.234375 2.984375.234375c1.84375 0 3.15625-1.28125 3.15625-3.0625zm-1.1094.4375c0 1.375-.609375 2.234375-1.578125 2.234375C2.28125-.15625 1.5-1.296875 1.5-3c0-1.4375.5625-2.21875 1.625-2.21875 1.09375 0 1.90625 1.203125 1.90625 2.828125zm0 0" id="k"/><path d="M6.625-3.2344c0-1.328125-1.109375-2.375-2.484375-2.375-.453125 0-.875.125-1.0625.296875l-.9844.9063V-5.5625l-.1094-.0469C1.375-5.359375.75-5.1875.125-5.109375v.3281h.4375c.484375 0 .53125.078125.53125.875v6.0156c0 .75-.046875.828125-.453125.859375L.0938 3v.3594c.5-.03125 1-.03125 1.5-.03125s.984375 0 1.484375.03125V3l-.5469-.0312c-.40625-.03125-.4375-.109375-.4375-.859375V-.1562c.359375.21875.734375.296875 1.28125.296875.34375 0 .65625-.0625.84375-.1875L5.5781-.9375C6.0625-1.25 6.625-2.46875 6.625-3.234375zm-1.0469.4375c0 1.34375-.796875 2.328125-1.875 2.328125-.65625 0-1.140625-.21875-1.609375-.703125v-2.4843c0-.171875.0625-.296875.21875-.5.34375-.453125.828125-.671875 1.421875-.671875 1.125 0 1.84375.78125 1.84375 2.03125zm0 0" id="l"/><path d="M5.3594-3.3281c0-1.375-.890625-2.28125-2.234375-2.28125-.4375 0-.953125.15625-1.4375.453125C.703125-4.609375.3125-3.859375.3125-2.625c0 .765625.171875 1.40625.5 1.859375.46875.640625 1.28125 1 2.171875 1 .453125 0 .890625-.09375 1.375-.3125.328125-.125.578125-.28125.625-.359375l.2344-.4062-.1562-.1094c-.765625.453125-1.03125.5625-1.546875.5625-.78125 0-1.421875-.34375-1.765625-.9375-.218825-.39065-.29695-.7344-.3282-1.4219h1.75C4-2.75 4.5-2.78125 5.328125-2.921875c.015625-.15625.03125-.265625.03125-.40625zm-1.0625.1406-1.3437.0313c-.546875 0-.859375-.015625-1.5-.078125 0-.5625.046875-.8125.203125-1.125.25-.53125.765625-.859375 1.328125-.859375.390625 0 .703125.15625.921875.484375.265625.390625.390625.734375.390625 1.546875zm0 0" id="m"/><path d="M.7813-4.1406h6.4375v-.7187H.7813zm0 2.5313h6.4375v-.7032H.7813zm0 0" id="n"/><path d="M3.625-6.3125c-.15625-.0625-.40625-.109375-.625-.109375-.09375 0-.234375.015625-.296875.0625-.21875.09375-.9375.625-1.140625.84375-.1875.1875-.296875.453125-.390625.953125l-.125.6875c-.359375.171875-.53125.25-.75.328125L.25-3.3594h.7031l-.0781.5C.609375-1.15625.296875.46875.09375 1.078125c-.15625.515625-.421875.78125-.734375.78125-.203125 0-.3125-.046875-.453125-.25l-.125.0313c-.03125.203125-.15625.625-.203125.703125.078125.046875.21875.078125.3125.078125.359375 0 .828125-.28125 1.171875-.6875.53125-.625.71875-1.234375 1.359375-4.3125.046875-.234375.125-.484375.171875-.78125H2.5c.046875-.171875.109375-.359375.15625-.484375l-.0312-.0625-.0625.0156c-.21875.0625-.3125.0625-.734375.0625H1.6875l.1719-.9844c.1406-.75.3906-1.09375.79685-1.09375.265625 0 .5.140625.625.34375l.0938-.0312.2031-.5937zm0 0" id="a"/><path d="M3.9375-.6875l-.0781-.1719c-.3125.265625-.53125.390625-.671875.390625s-.25-.078125-.34375-.265625c-.078125-.15625-.171875-.484375-.21875-.734375l-.1562-.8906.3125-.4219c.40625-.578125.640625-.78125.921875-.78125.140625 0 .234375.078125.28125.203125l.125-.0312.1406-.75c-.109375-.0625-.1875-.078125-.265625-.078125-.359375 0-.703125.3125-1.25 1.109375L2.4063-2.625l-.0469-.4219C2.25-3.90625 2.015625-4.21875 1.5-4.21875c-.234375 0-.421875.0625-.5.171875L.4844-3.3125l.1563.0938c.265625-.3125.4375-.421875.609375-.421875.28125 0 .484375.359375.625 1.21875l.0938.5313-.3437.5469c-.375.59375-.671875.875-.921875.875-.140625 0-.234375-.046875-.25-.078125l-.0937-.25-.1719.0313c0 .171875-.015625.28125-.078125.5625-.015825.1092-.015825.14045-.03145.187325.125.078125.265625.109375.375.109375.296875 0 .640625-.25.90625-.65625l.6719-1.0312.0938.6094C2.25-.25 2.4375.09375 2.75.09375c.1875 0 .46875-.140625.75-.40625zm0 0" id="b"/><path d="M4.2969-4.1406l-.0937-.0781c-.265625.09375-.453125.140625-.65625.15625L3.25-2.9062c-.109375.421875-.421875 1.0625-.703125 1.484375-.3125.453125-.734375.828125-.9375.828125-.1875 0-.171875-.421875-.15625-.53125l.125-1.7031c.015625-.265625.03125-.59375.03125-.84375 0-.390625-.0625-.546875-.203125-.546875-.125 0-.234375.0625-.65625.34375l-.7187.4844.0938.1719.4375-.2656C.609475-3.5311.71885-3.5936.78135-3.5936c.234375 0 .1875.453125.1875.59375L.8125-.875v.3438c-.015625.375.15625.625.375.625.3125 0 1.0625-.75 1.71875-1.734375l-.4375 1.5c-.4375 1.546875-.875 2.1875-1.5 2.1875-.296875 0-.546875-.234375-.546875-.546875 0-.03125.015625-.109375.03125-.1875l-.0937-.0312-.4219.2969c0 .0625 0 .109375 0 .15625 0 .375.3125.6875.71875.6875.921875 0 1.890625-1.09375 2.40625-2.71875zm0 0" id="c"/><path d="M2.6719-6.625C1.328125-5.75.53125-4.25.53125-2.359375c0 1.703125.828125 3.34375 2.109375 4.21875L2.75 1.7188C1.53125.671875 1.328125-.359375 1.328125-2.40625 1.328125-4.4375 1.5625-5.5 2.75-6.46875zm0 0" id="d"/><path d="M.375-6.625l-.0937.1563C1.46875-5.5 1.703125-4.4375 1.703125-2.40625 1.703125-.359375 1.5.671875.28125 1.71875l.1094.1406C1.671875.984375 2.5-.65625 2.5-2.359375 2.5-4.25 1.703125-5.75.375-6.625zm0 0" id="e"/><path d="M5.2969-2.1094v-.5156H.5625v.5156zm0 0" id="f"/></defs><path d="M40 135.585938h1440.039062" class="a"/><path d="M3.7461 91.4531h.6016v6h-.6016zm0 0"/><path d="M147.75 91.4531h.6016v6h-.6016zm0 0"/><path d="M40 135.585938v936.015624" class="a"/><path d="M.9883 94.0938h6v.6016h-6zm0 0"/><path d="M.9883.4922h6v.6016h-6zm0 0"/><g style="stroke-width:3.985;stroke:#000;stroke-miterlimit:10;transform:matrix(.1,0,0,-.1,0,108)"><path fill="none" d="M328.007812 174.296875l936.015626 754.414063"/><path d="M491.953125 290.351562c0 11.015626-8.945313 19.921876-19.921875 19.921876-11.015625 0-19.960938-8.90625-19.960938-19.921876 0-11.015624 8.945313-19.921874 19.960938-19.921874 10.976562 0 19.921875 8.90625 19.921875 19.921874zm0 0"/><path d="M1139.921875 812.65625c0 11.015625-8.90625 19.921875-19.882813 19.921875-11.015624 0-19.960937-8.90625-19.960937-19.921875s8.945313-19.921875 19.960937-19.921875c10.976563 0 19.882813 8.90625 19.882813 19.921875zm0 0"/><g fill="none"><path d="M472.03125 290.351562v-19.335937"/><path d="M472.03125 232.304688V212.96875"/><path d="M472.03125 212.96875v-19.335938"/><path d="M472.03125 154.960938v-19.375"/><path d="M1120.039062 812.65625v-28.203125"/><path d="M1120.039062 728.007812v-28.203124"/><path d="M1120.039062 699.804688v-28.203126"/><path d="M1120.039062 615.15625v-28.203125"/><path d="M1120.039062 586.953125V558.75"/><path d="M1120.039062 502.34375v-28.203125"/><path d="M1120.039062 474.140625v-28.242187"/><path d="M1120.039062 389.492188v-28.203126"/><path d="M1120.039062 361.289062v-28.203124"/><path d="M1120.039062 276.640625V248.4375"/><path d="M1120.039062 248.4375v-28.203125"/><path d="M1120.039062 163.828125v-28.242187"/></g></g><use x="44.0809" y="104.1852" href="#g"/><use x="109.0019" y="104.1852" href="#h"/><use x="18.4" y="32.8797" href="#i"/><use x="23.4398" y="32.8797" href="#j"/><use x="26.9199" y="32.8797" href="#k"/><use x="33.4" y="32.8797" href="#l"/><use x="40.6" y="32.8797" href="#m"/><use x="49.3602" y="32.8797" href="#n"/><use x="63.1598" y="26.2797" href="#a"/><use x="67.2399" y="26.2797" href="#d"/><use x="70.4797" y="26.2797" href="#b"/><use x="75.2797" y="26.2797" href="#e"/><use x="78.2797" y="26.2797" href="#f"/><use x="85.4797" y="26.2797" href="#a"/><use x="89.6797" y="26.2797" href="#d"/><use x="93.1598" y="26.2797" href="#c"/><use x="98.0797" y="26.2797" href="#e"/><path d="M61.8281 29.4102h39.1211v.7188H61.8281zm0 0"/><use x="73.6" y="36.959" href="#b"/><use x="78.4" y="36.959" href="#f"/><use x="84.7602" y="36.959" href="#c"/><path d="M40 584.882812l36.015625 10.9375 35.976563 7.773438 36.015624 4.6875 35.976563 1.5625L220 537.695312l36.015625-61.992187 36.015625-52.34375 35.976562-43.164063 35.976563-34.375L400 319.6875l36.015625-18.320312 36.015625-11.015626 35.976562-4.140624 35.976563 2.265624L580 296.679688l36.015625 13.632812 36.015625 18.632812 35.976562 23.203126L724.023438 379.375 760 410.15625l36.015625 33.945312 36.015625 36.5625 35.976562 38.789063 36.015626 40.46875L940 601.640625l36.015625 42.5 36.015625 42.851563 35.976562 42.65625 36.015626 42.03125 36.015624 40.976562 35.976563 39.375 36.015625 37.382812 35.976562 34.84375 36.015626 31.914063 36.015624 28.476563 35.976563 6.25 36.015625 6.210937 35.976562 6.25 72.03125 12.5" style="fill:none;stroke-width:7.9701;stroke:#000;stroke-miterlimit:10;transform:matrix(.1,0,0,-.1,0,108)"/><style>.a{fill:none;stroke:#000;stroke-miterlimit:10;stroke-width:3.985;transform:matrix(.1,0,0,-.1,0,108)}</style></svg>