<svg xmlns="http://www.w3.org/2000/svg" width="315pt" height="52pt" viewBox="0 0 315 52"><defs><clipPath id="g"><path d="M0 36h14v1H0zm0 0"/></clipPath><clipPath id="h"><path d="M301 36h14v1h-14zm0 0"/></clipPath><clipPath id="i"><path d="M0 0h315v52H0z"/></clipPath><g id="j" clip-path="url(#i)"><g style="fill:none;stroke-width:4.5;stroke-linecap:butt;stroke-linejoin:miter;stroke:#000;stroke-opacity:1;stroke-miterlimit:10;transform:matrix(.1,0,0,-.1,-.724,53.549)"><path d="M142.005625 172.99h2880"/><path d="M1174.58375 172.99h4.804688"/></g><g clip-path="url(#g)"><path d="M142.005625 172.99h-135" class="b"/></g><g style="fill:none;stroke-linecap:butt;stroke-linejoin:miter;stroke:#000;stroke-opacity:1;stroke-miterlimit:10;transform:matrix(.1,0,0,-.1,-.724,53.549)"><path d="M187.005625 217.99v-90" class="a"/><path stroke-width="9" d="M412.005625 217.99v-90"/><g class="a"><path d="M2257.005625 217.99v-90"/><path d="M187.005625 307.99h765"/><path d="M592.005625 397.99h1305"/><path d="M952.005625 217.99v-90"/><path d="M637.005625 217.99v-90"/><path d="M1582.005625 487.99h1395"/><path d="M2977.005625 217.99v-90"/><path d="M1267.005625 307.99h990"/><path d="M1267.005625 217.99v-90"/></g><path stroke-width="9" d="M2752.005625 217.99v-90"/></g><g clip-path="url(#h)"><path d="M3157.005625 172.99h-135" class="b"/></g><g style="fill:none;stroke-linecap:butt;stroke:#000;stroke-opacity:1;stroke-miterlimit:10;transform:matrix(.1,0,0,-.1,-.724,53.549)"><g stroke-linejoin="miter"><g class="a"><path d="M1897.005625 217.99v-90"/><path d="M1582.005625 217.99v-90"/></g><path stroke-width="18" d="M412.005625 172.99h2340"/></g><g stroke-width="4.5" stroke-linejoin="bevel"><path d="M232.005625 352.99h-.625l-1.796875-1.171875-4.179687-2.421875-6.015625-3.007812-7.1875-4.804688-7.1875-4.765625-6.601563-6.015625-6.015625-6.601562-3.59375-7.1875-1.796875-9.023438 1.796875-8.984375 3.59375-7.1875 6.015625-6.601562 6.601563-6.015625 14.375-9.609375 6.015625-3.007813 4.179687-2.382812 1.796875-1.210938h.625"/><path d="M907.005625 352.99h.585938l1.796875-1.171875 4.21875-2.421875 5.976562-3.007812 7.226563-4.804688 7.1875-4.765625 6.601562-6.015625 6.015625-6.601562 3.59375-7.1875 1.796875-9.023438-1.796875-8.984375-3.59375-7.1875-6.015625-6.601562-6.601562-6.015625-7.1875-4.804688-7.226563-4.804687-5.976562-3.007813-4.21875-2.382812-1.796875-1.210938h-.585938"/><path d="M637.005625 442.99h-.625l-1.796875-1.171875-4.179687-2.421875-6.015625-3.007812-7.1875-4.804688-7.1875-4.765625-6.601563-6.015625-6.015625-6.601562-3.59375-7.1875-1.796875-9.023438 1.796875-8.984375 3.59375-7.1875 6.015625-6.601562 6.601563-6.015625 14.375-9.609375 6.015625-3.007813 4.179687-2.382812 1.796875-1.210938h.625"/><path d="M2212.005625 352.99h.585938l1.796875-1.171875 4.21875-2.421875 5.976562-3.007812 7.226563-4.804688 7.1875-4.765625 6.601562-6.015625 6.015625-6.601562 3.59375-7.1875 1.796875-9.023438-1.796875-8.984375-3.59375-7.1875-6.015625-6.601562-6.601562-6.015625-7.1875-4.804688-7.226563-4.804687-5.976562-3.007813-4.21875-2.382812-1.796875-1.210938h-.585938"/><path d="M1312.005625 352.99h-.625l-1.796875-1.171875-4.179687-2.421875-6.015625-3.007812-7.1875-4.804688-7.1875-4.765625-6.601563-6.015625-6.015625-6.601562-3.59375-7.1875-1.796875-9.023438 1.796875-8.984375 3.59375-7.1875 6.015625-6.601562 6.601563-6.015625 14.375-9.609375 6.015625-3.007813 4.179687-2.382812 1.796875-1.210938h.625"/><path d="M2932.005625 532.99h.585938l1.796875-1.171875 4.21875-2.421875 5.976562-3.007812 7.226563-4.804688 7.1875-4.765625 6.601562-6.015625 6.015625-6.601562 3.59375-7.1875 1.796875-9.023438-1.796875-8.984375-3.59375-7.1875-6.015625-6.601562-6.601562-6.015625-7.1875-4.804688-7.226563-4.804687-5.976562-3.007813-4.21875-2.382812-1.796875-1.210938h-.585938"/><path d="M1852.005625 442.99h.585938l1.796875-1.171875 4.21875-2.421875 5.976562-3.007812 7.226563-4.804688 7.1875-4.765625 6.601562-6.015625 6.015625-6.601562 3.59375-7.1875 1.796875-9.023438-1.796875-8.984375-3.59375-7.1875-6.015625-6.601562-6.601562-6.015625-7.1875-4.804688-7.226563-4.804687-5.976562-3.007813-4.21875-2.382812-1.796875-1.210938h-.585938"/><path d="M1627.005625 532.99h-.625l-1.796875-1.171875-4.179687-2.421875-6.015625-3.007812-7.1875-4.804688-7.1875-4.765625-6.601563-6.015625-6.015625-6.601562-3.59375-7.1875-1.796875-9.023438 1.796875-8.984375 3.59375-7.1875 6.015625-6.601562 6.601563-6.015625 14.375-9.609375 6.015625-3.007813 4.179687-2.382812 1.796875-1.210938h.625"/></g></g></g><path d="M5.6875-1.1875l-.1406-.125-.3281.32813c-.375.390625-.515625.5-.625.5-.09375 0-.171875-.078125-.171875-.15625 0-.25.5-2.296875 1.0625-4.34375.03125-.125.046875-.140625.078125-.25l-.0937-.03125L4.75-5.1875l-.0469.03125-.125.57813c-.09375-.4375-.4375-.6875-.953125-.6875C2.031225-5.26562.2031-3.093745.2031-1.187495c0 .828125.453125 1.3125 1.21875 1.3125.84375 0 1.34375-.390625 2.40625-1.875-.25.984375-.28125 1.078125-.28125 1.375 0 .34375.140625.5.484375.5.46875 0 .765625-.234375 1.65625-1.3125zM4.3594-4.28125c0 1-.609375 2.421875-1.421875 3.296875-.28125.328125-.6875.53125-1.03125.53125-.4375 0-.703125-.328125-.703125-.890625 0-.640625.421875-1.8125.921875-2.5625C2.6094-4.609375 3.14065-5.015625 3.64065-5.015625c.015625 0 .03125 0 .046875 0 .40625.03125.671875.3125.671875.734375zm0 0" id="a"/><path d="M5.6563-3.84375c0-.828125-.59375-1.421875-1.390625-1.421875-.828125 0-1.453125.484375-2.3125 1.796875l1.25-4.64062-.0625-.04687c-.59375.09375-1.03125.171875-1.828125.265625v.20313c.703125.03125.78125.0625.78125.328125 0 .109375-.03125.234375-.109375.515625l-.0625.21875-.0156.09375-1.625 5.98438V-.5c0 .265625.90625.625 1.578125.625 1.8125 0 3.796875-2.078125 3.796875-3.96875zm-1.0156.1875c0 .78125-.59375 2.0625-1.3125 2.8125-.453125.453125-.96875.703125-1.46875.703125-.375 0-.5625-.140625-.5625-.40625 0-.71875.359375-1.875.859375-2.765625.53125-.921875 1.078125-1.375 1.640625-1.375.53125 0 .84375.390625.84375 1.03125zm0 0" id="b"/><path d="M3.4531 0v-.125c-.687475-.015625-.8281-.109375-.8281-.53125v-5.25l-.0781-.01562L.9688-5.125V-5c.109375-.046875.203125-.078125.234375-.109375.171875-.046875.3125-.09375.40625-.09375.171875 0 .25.140625.25.421875V-.8125c0 .28125-.0625.484375-.203125.5625-.125.078125-.25.109375-.625.125V0zm0 0" id="c"/><path d="M4.1563-1.20312 4.0469-1.25c-.328125.5-.4375.578125-.828125.578125H1.125l1.4688-1.53125C3.375-3.03125 3.71875-3.6875 3.71875-4.375c0-.875-.71875-1.546875-1.625-1.546875-.484375 0-.9375.1875-1.265625.546875-.28125.296875-.40625.578125-.5625 1.1875l.1875.04688C.8125-5 1.125-5.28125 1.734375-5.28125c.734375 0 1.234375.5 1.234375 1.234375 0 .6875-.40625 1.5-1.140625 2.28125l-1.5625 1.65625V0H3.6875zm0 0" id="d"/><path d="M3.7813-1.92187c0-.4375-.140625-.859375-.390625-1.125-.171875-.203125-.34375-.296875-.71875-.46875.59375-.40625.8125-.734375.8125-1.203125 0-.71875-.5625-1.203125-1.359375-1.203125-.4375 0-.828125.140625-1.140625.421875-.265625.234375-.390625.46875-.59375 1l.1406.03125c.359375-.640625.75-.9375 1.296875-.9375.578125 0 .96875.390625.96875.9375 0 .328125-.125.640625-.34375.859375-.26565.26562-.51565.39062-1.1094.60937v.10938c.515625 0 .71875.015625.921875.09375.546875.1875.890625.6875.890625 1.296875 0 .734375-.5 1.3125-1.15625 1.3125-.234375 0-.40625-.0625-.734375-.28125-.25-.15625-.40625-.21875-.5625-.21875-.1875 0-.328125.125-.328125.3125 0 .3125.375.5 1 .5.671875 0 1.359375-.234375 1.765625-.59375.421875-.359375.640625-.859375.640625-1.453125zm0 0" id="e"/><path d="M4.1406-1.46875v-.5625H3.25v-3.89062h-.3906l-2.75 3.89063v.5625h2.4531V0H3.25v-1.46875zm-1.5781-.5625H.4531l2.1094-3zm0 0" id="f"/></defs><use href="#j"/><use x="12.424" y="49.708" href="#a"/><use x="18.843" y="51.502" href="#c"/><use x="37.365" y="49.708" href="#a"/><use x="57.4258" y="49.708" href="#a"/><use x="63.845" y="51.502" href="#d"/><use x="88.991" y="49.708" href="#b"/><use x="95.411" y="51.502" href="#c"/><use x="124.926" y="49.708" href="#a"/><use x="131.346" y="51.502" href="#e"/><use x="219.494" y="49.708" href="#b"/><use x="225.914" y="51.502" href="#e"/><use x="291.496" y="49.708" href="#b"/><use x="297.916" y="51.502" href="#f"/><use x="271.436" y="49.708" href="#b"/><use x="183.4935" y="49.708" href="#b"/><use x="189.913" y="51.502" href="#d"/><use x="151.927" y="49.708" href="#a"/><use x="158.347" y="51.502" href="#f"/><style>.a{stroke-width:4.5}.b{fill:none;stroke:#000;stroke-dasharray:9,18;stroke-dashoffset:18;stroke-linecap:butt;stroke-linejoin:miter;stroke-miterlimit:10;stroke-opacity:1;stroke-width:4.5;transform:matrix(.1,0,0,-.1,-.724,53.549)}</style></svg>