<svg xmlns="http://www.w3.org/2000/svg" width="297pt" height="79pt" viewBox="0 0 297 79"><defs><path d="M5.625.03125v-.35937l-.4687-.01563c-.28125-.015625-.328125-.109375-.328125-.703125v-2.1875c0-1.734375-.5-2.375-1.890625-2.375-.515625 0-.984375.140625-1.4375.40625L.8594-4.8125v.76563l.3125.09375.1563-.375c.234375-.5625.375-.640625.921875-.640625 1.125 0 1.59375.4375 1.625 1.53125l-1.1875.20313c-1.625.3125-2.3125.875-2.3125 1.90625 0 .9375.5625 1.46875 1.515625 1.46875.21875 0 .421875-.03125.5-.09375L3.875-.98437 3.8125.03125C4.125.015625 4.4375 0 4.75 0c.296875 0 .578125.015625.875.03125zm-1.75-1.51562c-.34375.5-1.109375.953125-1.5625.953125-.484375 0-.90625-.453125-.90625-.96875 0-.4375.25-.859375.609375-1.078125.296875-.1875.953125-.34375 1.859375-.484375zm0 0" id="e"/><path d="M6.0781-3.23437c0-1.375-.90625-2.375-2.171875-2.375-.5625 0-1.140625.21875-1.453125.53125l-.6562.67188v-4.17187l-.1094-.09375c-.53125.203125-.921875.296875-1.859375.4375v.32813h.6563c.21875 0 .296875.140625.296875.5v5.57813c0 .734375 0 1.0625-.09375 1.90625l.2031.0625.4688-.42187c.484375.3125.90625.421875 1.546875.421875C3.375.140625 3.6875.0625 3.9375-.125L5.125-.98437c.53125-.375.953125-1.375.953125-2.25zm-1.0469.5c0 1.328125-.71875 2.265625-1.734375 2.265625-.625 0-1.5-.375-1.5-.640625V-3.6875c0-.15625.109375-.375.3125-.59375.328125-.34375.796875-.546875 1.28125-.546875 1.015625 0 1.640625.8125 1.640625 2.09375zm0 0" id="g"/><path d="M4.6719-1.76562c0-.375-.09375-.65625-.328125-.890625-.3125-.3125-.703125-.4375-1.765625-.640625-.96875-.1875-1.296875-.4375-1.296875-.984375 0-.59375.421875-.9375 1.140625-.9375.8125 0 1.421875.421875 1.421875.984375v.28125h.3281c.015625-.703125.03125-.984375.0625-1.359375-.640625-.203125-1.0625-.296875-1.5625-.296875-1.375 0-2.234375.65625-2.234375 1.734375 0 .578125.265625.984375.8125 1.234375.328125.140625.96875.328125 1.78125.515625.53125.109375.765625.375.765625.828125 0 .640625-.609375 1.09375-1.453125 1.09375-.875 0-1.5-.421875-1.5-1.015625v-.48437H.4844c0 .8125-.03125 1.171875-.125 1.65625.625.203125 1.09375.28125 1.640625.28125 1.5625 0 2.671875-.828125 2.671875-2zm0 0" id="h"/><path d="M6.1406-2.82812c0-1.625-1.171875-2.78125-2.8125-2.78125C1.59375-5.609375.375-4.375.375-2.59375.375-.90625 1.453125.234375 2.984375.234375c1.84375 0 3.15625-1.28125 3.15625-3.0625zm-1.1094.4375c0 1.375-.609375 2.234375-1.578125 2.234375C2.28125-.15625 1.5-1.296875 1.5-3c0-1.4375.5625-2.21875 1.625-2.21875 1.09375 0 1.90625 1.203125 1.90625 2.828125zm0 0" id="b"/><path d="M3.2344.03125v-.35937l-.5469-.03125C2.28125-.375 2.25-.46875 2.25-1.21875v-7.35937l-.1094-.09375c-.53125.203125-.921875.296875-1.859375.4375v.32813H.9375c.21875 0 .3125.140625.3125.5v6.1875c0 .75-.046875.84375-.453125.859375L.25-.32812v.35937C.75.015625 1.25 0 1.75 0s.984375.015625 1.484375.03125zm0 0" id="i"/><path d="M6.9375.03125v-.35937l-.4844-.03125c-.40625-.015625-.4375-.09375-.4375-.859375V-5.5625l-.1094-.04687c-.609375.25-1.234375.421875-1.859375.5v.32813h.4375c.46875 0 .53125.078125.53125.875v1.95313c0 .25-.171875.59375-.453125.859375-.328125.34375-.71875.515625-1.1875.515625-.40625 0-.75-.140625-.9375-.359375-.171875-.203125-.25-.5625-.25-1.09375V-5.5625l-.1094-.04687c-.609375.25-1.234375.421875-1.859375.5v.32813h.4375c.484375 0 .53125.078125.53125.875v2c0 .84375.0625 1.21875.28125 1.515625.265625.359375.71875.53125 1.40625.53125.53125 0 1.015625-.171875 1.328125-.46875l.8125-.73437c0 .34375-.015625.53125-.0625 1.09375C5.296875.015625 5.625 0 5.953125 0s.65625.015625.984375.03125zm0 0" id="c"/><path d="M3.8125-5.21875l-1.6406.07813v-.45312c0-.5.046875-.9375.140625-1.703125l-.1562-.125c-.281325.171865-.6407.328115-1.0157.453115.046875.359375.046875.578125.046875.9375v.84375l-.9219.42188v.25l.9063-.04687v3.4375c0 .890625.390625 1.265625 1.3125 1.265625.28125 0 .5625-.0625.640625-.140625l.5625-.64062-.1562-.20312c-.296875.171875-.46875.234375-.703125.234375-.46875 0-.65625-.234375-.65625-.828125v-3.125h1.5313zm0 0" id="j"/><path d="M5.3594-3.32812c0-1.375-.890625-2.28125-2.234375-2.28125-.4375 0-.953125.15625-1.4375.453125C.703125-4.609375.3125-3.859375.3125-2.625c0 .765625.171875 1.40625.5 1.859375.46875.640625 1.28125 1 2.171875 1 .453125 0 .890625-.09375 1.375-.3125.328125-.125.578125-.28125.625-.359375l.2344-.40625-.1562-.10937c-.765625.453125-1.03125.5625-1.546875.5625-.78125 0-1.421875-.34375-1.765625-.9375-.218825-.39063-.29695-.73438-.3282-1.42188h1.75C4-2.75 4.5-2.78125 5.328125-2.921875c.015625-.15625.03125-.265625.03125-.40625zm-1.0625.14063-1.3437.03125c-.546875 0-.859375-.015625-1.5-.078125 0-.5625.046875-.8125.203125-1.125.25-.53125.765625-.859375 1.328125-.859375.390625 0 .703125.15625.921875.484375.265625.390625.390625.734375.390625 1.546875zm0 0" id="k"/><path d="M10.3906.03125v-.35937l-.5625-.03125c-.40625-.015625-.4375-.109375-.4375-.859375V-3.6875c0-1.171875-.703125-1.921875-1.796875-1.921875-.421875 0-.765625.109375-.984375.296875l-.9062.8125C5.3125-5.28125 4.828125-5.609375 4-5.609375c-.4375 0-.765625.109375-.984375.296875l-.8281.76563V-5.5625l-.1094-.04687c-.609375.25-1.234375.421875-1.859375.5v.32813h.4375c.484375 0 .53125.078125.53125.875v2.6875c0 .75-.046875.84375-.453125.859375L.1875-.32812v.35937C.6875.015625 1.203125 0 1.703125 0 2.1875 0 2.65625.015625 3.125.03125v-.35937l-.5-.03125c-.40625-.01563-.4375-.10938-.4375-.85938V-3.75c0-.546875.78125-1.125 1.5-1.125.65625 0 1.09375.609375 1.09375 1.515625v2.14063c0 .75-.03125.84375-.4375.859375l-.5469.03125v.35937C4.296875.015625 4.78125 0 5.28125 0s1 .015625 1.5.03125v-.35937l-.5469-.03125c-.406225-.01563-.4531-.10938-.4531-.85938V-3.75c0-.546875.796875-1.125 1.515625-1.125.640625 0 1.078125.609375 1.078125 1.515625V.03125C8.6875.015625 9.015625 0 9.328125 0c.359375 0 .703125.015625 1.0625.03125zm0 0" id="a"/><path d="M5.9219.03125v-.35937L5.625-.35937c-.140625-.01563-.28125-.10938-.40625-.281255L3.4375-3.03125l1.7031-1.98437c.078125-.09375.203125-.140625.40625-.140625h.1719v-.32812h-.9844L3.25-3.39062l-.9062-1.39063c-.1875-.265625-.3125-.421875-.71875-.828125l-1.3906.25.0625.29688.25.03125c.21875.015625.484375.171875.59375.34375l1.4375 2.07813L.7969-.5c-.07815.109375-.2344.171875-.3594.171875H.2344V0h1.0313s.078125-.28125.71875-1.125L2.875-2.29687 4.4531.03125C4.7031.015625 4.9531 0 5.187475 0c.25 0 .484375.015625.734375.03125zm0 0" id="r"/><path d="M3.2344.03125v-.35937l-.5469-.03125C2.28125-.375 2.25-.46875 2.25-1.21875V-5.5625l-.1094-.04687c-.609375.25-1.234375.421875-1.859375.5v.32813h.4375c.46875 0 .53125.078125.53125.875v2.6875c0 .75-.046875.84375-.453125.859375L.25-.32812v.35937C.75.015625 1.25 0 1.75 0s.984375.015625 1.484375.03125zm-.8906-7.64062c0-.34375-.234375-.609375-.59375-.609375s-.609375.25-.609375.609375.25.59375.609375.59375.59375-.234375.59375-.59375zm0 0" id="f"/><path d="M4.0781-7.65625v-.92187c-.25-.09375-.390625-.125-.546875-.125-.390625 0-.8125.203125-1.0625.5l-.7031.79688c-.34375.390625-.5.921875-.5 1.71875v.5l-.8281.375v.26563l.8281-.0625v3.39063c0 .75-.03125.84375-.4375.859375l-.5469.03125V.03125C.78125.015625 1.265625 0 1.765625 0s1 .015625 1.5.03125v-.35937l-.5469-.03125c-.406225-.01563-.4531-.10938-.4531-.85938v-3.39062H3.75l.0938-.625c-.53125.03125-1.046875.046875-1.578125.046875v-1.01562c0-1.375.15625-1.703125.84375-1.703125.328125 0 .53125.078125.828125.328125zm0 0" id="q"/><path d="M6.8438.03125v-.35937l-.5-.03125c-.40625-.015625-.4375-.09375-.4375-.859375v-2.3125c0-1.390625-.65625-2.078125-2-2.078125-.4375 0-.6875.09375-.9375.296875l-.9062.79688V-5.5625l-.1094-.04687c-.609375.25-1.234375.421875-1.875.5v.32813h.4531c.46875 0 .515625.078125.515625.875v2.6875c0 .75-.03125.84375-.4375.859375l-.5312.03125V.03125C.5625.015625 1.0625 0 1.546875 0c.5 0 1 .015625 1.484375.03125v-.35937L2.5-.35937c-.40625-.01563-.4375-.10938-.4375-.85938V-3.75c0-.546875.78125-1.125 1.515625-1.125.796875 0 1.328125.59375 1.328125 1.515625V.03125C5.21875.015625 5.53125 0 5.84375 0c.34375 0 .65625.015625 1 .03125zm0 0" id="u"/><path d="M4.9375-8.60937c-.203125-.09375-.546875-.15625-.84375-.15625-.125 0-.3125.046875-.40625.09375-.296875.125-1.265625.859375-1.546875 1.140625-.265625.265625-.40625.625-.53125 1.296875l-.1875.95313c-.484375.234375-.734375.328125-1.03125.4375l-.0625.26563h.9688l-.1094.67186C.828125-1.578125.390625.640625.125 1.46875c-.21875.703125-.5625 1.078125-1 1.078125-.265625 0-.421875-.078125-.625-.34375L-1.6562 2.25c-.046875.265625-.21875.84375-.28125.953125.109375.0625.28125.09375.421875.09375.484375 0 1.140625-.375 1.59375-.9375C.8125 1.5 1.0625.6875 1.953125-3.53125c.0625-.296875.15625-.65625.21875-1.046875h1.25c.046875-.234375.125-.5.203125-.671875l-.0469-.07812-.0937.01563c-.28125.09375-.40625.09375-1 .09375h-.1875l.25-1.34375c.1875-1.03125.53125-1.484375 1.078125-1.484375.359375 0 .671875.1875.859375.46875l.125-.04687zm0 0" id="d"/><path d="M4.2344-1.14062 4.1406-1.375l-.1875.125c-.859375.5625-1.3125.765625-1.734375.765625-.671875 0-1.015625-.46875-1.015625-1.421875 0-1.265625.40625-2.5.984375-2.953125.25-.21875.546875-.3125.9375-.3125.53125 0 .96875.21875.96875.515625v.71875h.2656c.09375-.78125.1875-1.21875.296875-1.53125-.3125-.203125-.703125-.296875-1.15625-.296875-.53125 0-1.390625.421875-2.0625 1.015625C.75-4.140625.296875-2.90625.296875-1.625c0 1.140625.5 1.75 1.453125 1.75.65625 0 1.21875-.234375 1.890625-.765625zm0 0" id="l"/><path d="M5.4531-1.04687l-.125-.23437-.5156.375c-.171875.125-.359375.203125-.46875.203125-.09375 0-.171875-.109375-.171875-.28125 0-.09375.03125-.203125.09375-.546875l1.5-7.09375L5.625-8.76562c-.609375.3125-1.046875.421875-1.90625.5l-.0469.25H4.25c.28125 0 .40625.09375.40625.296875 0 .09375-.015625.203125-.03125.28125l-.3281 1.84375c-.359375-.109375-.6875-.171875-.984375-.171875-.828125 0-1.953125.859375-2.5 1.90625-.375.6875-.609375 1.828125-.609375 2.828125C.203125-.25.375.125.734375.125c.3125 0 .765625-.203125 1.171875-.515625.640625-.53125 1.03125-1 1.828125-2.203125L3.4688-1.5c-.140625.515625-.1875.90625-.1875 1.21875 0 .25.09375.40625.296875.40625.21875 0 .5-.15625.90625-.453125zM4.1719-4.90625l-.1406.70313c-.21875 1.0625-.796875 2.109375-1.546875 2.8125-.421875.40625-.890625.6875-1.125.6875-.1875 0-.296875-.171875-.296875-.46875 0-1.5.546875-3.375 1.140625-3.828125.15625-.109375.375-.171875.703125-.171875.53125 0 .875.0625 1.265625.265625zm0 0" id="m"/><path d="M4.8594-1.01562l-.0937-.25c-.078125.078125-.09375.078125-.15625.125-.375.328125-.5625.4375-.734375.4375-.125 0-.1875-.09375-.1875-.28125 0-.0625 0-.09375.015625-.125l1.1093-4.53125-.125-.10938-.3906.21875c-.46875-.1875-.703125-.234375-1.015625-.234375-.34375 0-.578125.0625-.90625.21875-.75.375-1.125.734375-1.4375 1.3125C.421875-3.171875.046875-1.75.046875-.78125c0 .5.1875.90625.40625.90625.25 0 .6875-.25 1.140625-.625.515625-.4375.984375-1 1.640625-1.9375l-.3437 1.51563c-.046875.21875-.0625.421875-.0625.609375 0 .28125.09375.4375.28125.4375.265625 0 .765625-.328125 1.75-1.140625zm-1.0469-3.9375c-.265625 1.28125-.484375 1.90625-.890625 2.515625-.65625 1-1.40625 1.734375-1.796875 1.734375-.140625 0-.21875-.15625-.21875-.484375 0-.765625.3125-2.09375.734375-3.078125.28125-.6875.578125-.90625 1.15625-.90625.28125 0 .5.046875 1.015625.21875zm0 0" id="s"/><path d="M5.1719-4.5c0-.453125-.109375-.921875-.25-1.09375-.07815-.109375-.2344-.171875-.4219-.171875-.28125 0-.640625.09375-.96875.265625-.609375.328125-1.015625.6875-1.75 1.625l1.0313-4.75-.1406-.14062c-.625.3125-1.0625.421875-1.921875.5l-.0469.25h.5781c.28125 0 .40625.09375.40625.296875 0 .078125-.015625.21875-.03125.28125L.4531-.84375C.4375-.8125.4375-.765625.4375-.734375c0 .46875.578125.859375 1.234375.859375.4375 0 1.046875-.21875 1.5625-.59375 1.15625-.8125 1.9375-2.453125 1.9375-4.03125zm-.8594.29688c0 .765625-.25 1.78125-.609375 2.5625C3.3125-.8125 2.828125-.4375 2.1875-.4375c-.546875 0-.84375-.265625-.84375-.765625 0-.296875.046875-.640625.15625-1.078125.21875-.953125.515625-1.53125.984375-2.03125.390625-.40625 1.015625-.75 1.359375-.75.3125 0 .46875.265625.46875.859375zm0 0" id="t"/><path d="M.7813-4.14062h6.4375v-.71875H.7813zm0 2.53125h6.4375v-.70313H.7813zm0 0" id="n"/><path d="M3.6406-9.03125C1.8125-7.84375.71875-5.796875.71875-3.234375c0 2.34375 1.140625 4.578125 2.875 5.78125L3.75 2.34375C2.09375.90625 1.8125-.484375 1.8125-3.28125 1.8125-6.0625 2.125-7.5 3.75-8.828125zm0 0" id="o"/><path d="M.5-9.03125l-.125.20313C2.015625-7.5 2.328125-6.0625 2.328125-3.28125c0 2.796875-.28125 4.1875-1.953125 5.625l.1563.20313c1.75-1.203125 2.890625-3.4375 2.890625-5.78125C3.421875-5.796875 2.3125-7.84375.5-9.03125zm0 0" id="p"/></defs><g style="fill:none;stroke-width:3.985;stroke-miterlimit:10;transform:matrix(.1,0,0,-.1,0,79)"><g stroke="#b2b2b2"><path d="M1460.039062 393.90625h1505.46875"/><path d="M1787.304688 61.601562v720"/></g><g stroke="#000"><path d="M1721.835938 154.140625h29.101562"/><path d="M1809.101562 154.140625h29.101563"/><path d="M1838.203125 154.140625h29.101563"/><path d="M1925.46875 154.140625h29.101562"/><path d="M1954.570312 154.140625h29.101563"/><path d="M2041.835938 154.140625h29.101562"/><path d="M2070.9375 154.140625h29.101562"/><path d="M2158.203125 154.140625h29.101563"/><path d="M2187.304688 154.140625h29.101562"/><path d="M2274.570312 154.140625h29.101563"/><path d="M2303.671875 154.140625h29.0625"/><path d="M2390.9375 154.140625h29.101562"/><path d="M2420.039062 154.140625h29.0625"/><path d="M2507.304688 154.140625h29.101562"/><path d="M2536.40625 154.140625h29.101562"/><path d="M2623.671875 154.140625h29.101563"/><path d="M2652.773438 154.140625H2681.875"/><path d="M2740.039062 154.140625h29.0625"/><path d="M1721.835938 687.65625h29.101562"/><path d="M1809.101562 687.65625h29.101563"/><path d="M1838.203125 687.65625h29.101563"/><path d="M1925.46875 687.65625h29.101562"/><path d="M1954.570312 687.65625h29.101563"/><path d="M2041.835938 687.65625h29.101562"/><path d="M2070.9375 687.65625h29.101562"/><path d="M2158.203125 687.65625h29.101563"/><path d="M2187.304688 687.65625h29.101562"/><path d="M2274.570312 687.65625h29.101563"/><path d="M2303.671875 687.65625h29.0625"/><path d="M2390.9375 687.65625h29.101562"/><path d="M2420.039062 687.65625h29.0625"/><path d="M2507.304688 687.65625h29.101562"/><path d="M2536.40625 687.65625h29.101562"/><path d="M2623.671875 687.65625h29.101563"/><path d="M2652.773438 687.65625H2681.875"/><path d="M2740.039062 687.65625h29.0625"/></g></g><use x="6.3191" y="13.116" href="#e"/><use x="12.3191" y="13.116" href="#g"/><use x="18.9191" y="13.116" href="#h"/><use x="23.959" y="13.116" href="#b"/><use x="30.4391" y="13.116" href="#i"/><use x="33.9191" y="13.116" href="#c"/><use x="41.1191" y="13.116" href="#j"/><use x="44.959" y="13.116" href="#k"/><use x="53.8391" y="13.116" href="#a"/><use x="64.3992" y="13.116" href="#e"/><use x="70.3992" y="13.116" href="#r"/><use x="76.5191" y="13.116" href="#f"/><use x="79.9992" y="13.116" href="#a"/><use x="90.5594" y="13.116" href="#c"/><use x="97.7594" y="13.116" href="#a"/><use x="111.3195" y="13.116" href="#b"/><use x="117.7996" y="13.116" href="#q"/><use x="126.5591" y="13.116" href="#d"/><use x="135.4392" y="13.116" href="#n"/><use x="148.5193" y="13.116" href="#d"/><use x="154.1592" y="13.116" href="#o"/><use x="158.599" y="13.116" href="#l"/><use x="164.1189" y="13.116" href="#p"/><use x="7.1599" y="66.4676" href="#e"/><use x="13.1599" y="66.4676" href="#g"/><use x="19.7599" y="66.4676" href="#h"/><use x="24.7998" y="66.4676" href="#b"/><use x="31.2798" y="66.4676" href="#i"/><use x="34.7599" y="66.4676" href="#c"/><use x="41.9599" y="66.4676" href="#j"/><use x="45.7998" y="66.4676" href="#k"/><use x="54.6798" y="66.4676" href="#a"/><use x="65.24" y="66.4676" href="#f"/><use x="68.7201" y="66.4676" href="#u"/><use x="75.6802" y="66.4676" href="#f"/><use x="79.1603" y="66.4676" href="#a"/><use x="89.7205" y="66.4676" href="#c"/><use x="96.9205" y="66.4676" href="#a"/><use x="110.4806" y="66.4676" href="#b"/><use x="116.9607" y="66.4676" href="#q"/><use x="125.7199" y="66.4676" href="#d"/><use x="134.6" y="66.4676" href="#n"/><use x="147.6801" y="66.4676" href="#d"/><use x="153.2" y="66.4676" href="#o"/><use x="157.6399" y="66.4676" href="#m"/><use x="164" y="66.4676" href="#p"/><g class="a"><path d="M1918.203125 366.210938v55.390624"/><path d="M2769.101562 366.210938v55.390624"/></g><use x="189.06" y="50.1219" href="#s"/><use x="273.9123" y="51.68206" href="#t"/><g class="a"><path d="M2556.40625 393.90625v-19.960938"/><path d="M2556.40625 333.945312v-19.960937"/><path d="M2556.40625 313.984375v-20"/><path d="M2556.40625 254.023438V234.0625"/><path d="M2556.40625 234.0625v-20"/><path d="M2556.40625 174.101562v-19.960937"/><path d="M2044.140625 393.90625v24.492188"/><path d="M2044.140625 467.34375v24.492188"/><path d="M2044.140625 491.835938v24.453124"/><path d="M2044.140625 565.234375v24.492187"/><path d="M2044.140625 589.726562v24.492188"/><path d="M2044.140625 663.164062v24.492188"/></g><use x="252.64" y="36.175" href="#m"/><use x="201.8935" y="50.1223" href="#l"/><path d="M1918.203125 576.679688l21.289063 36.328124 21.25 28.554688 21.289062 21.289062 21.25 14.453126 21.289062 8.085937 21.289063 2.226563 21.25-3.242188 21.289063-8.28125 21.25-12.773438 21.289062-16.875 21.289062-20.507812 21.25-23.671875 21.289063-26.40625 21.25-28.632813 21.289063-30.429687 21.25-31.835937 21.289062-32.65625 21.289062-33.125 21.25-33.085938 21.289063-32.617188 21.25-31.679687 21.289063-30.273437 21.25-28.4375L2428.75 236.953125l21.289062-23.359375 21.289063-20.15625 21.25-16.484375 21.289063-12.34375 21.25-7.773437 21.289062-2.695313 21.25 2.773437 21.289062 8.710938 21.25 15.15625 21.289063 22.03125 21.289063 29.335938 21.25 37.109374 21.289062 45.390626 21.25 54.023437 21.289062 63.203125 21.25 72.8125" style="fill:none;stroke-width:7.9701;stroke:#000;stroke-miterlimit:10;transform:matrix(.1,0,0,-.1,0,79)"/><style>.a{fill:none;stroke:#000;stroke-miterlimit:10;stroke-width:3.985;transform:matrix(.1,0,0,-.1,0,79)}</style></svg>