<svg xmlns="http://www.w3.org/2000/svg" width="182pt" height="127pt" viewBox="0 0 182 127"><defs><clipPath id="k"><path d="M.2266 104H15v18H.2266zm0 0"/></clipPath><clipPath id="l"><path d="M145 91h12.2266v18H145zm0 0"/></clipPath><clipPath id="m"><path d="M.2266 7h157v113h-157zm0 0"/></clipPath><clipPath id="n"><path d="M17 21h135v95H17zm0 0"/></clipPath><clipPath id="o"><path clip-rule="evenodd" d="M.2266-4.4492v135h157v-135zm126.6602 39.3984-2.8789-8.6406-3.418 1.1406 2.8789 8.6406-.5391-7.3789zm0 0"/></clipPath><clipPath id="p"><path d="M17 21h108v90H17zm0 0"/></clipPath><clipPath id="q"><path clip-rule="evenodd" d="M.2266-4.4492v135h157v-135zm112.6211 38.6797 7.082-5.7031-2.2812-2.7578-7.082 5.6992 6.7813-3.1211zm0 0"/></clipPath><clipPath id="r"><path d="M0 0h158v127H0z"/></clipPath><g id="s" clip-path="url(#r)"><path d="M7.7891 113.25c0 1.191406-.96875 2.160156-2.160156 2.160156-1.195312 0-2.160156-.96875-2.160156-2.160156 0-1.195312.964844-2.160156 2.160156-2.160156 1.191406 0 2.160156.964844 2.160156 2.160156" class="c"/><g clip-path="url(#k)"><path d="M75.610625 172.99c0-11.914062-9.6875-21.601562-21.601563-21.601562-11.953125 0-21.601562 9.6875-21.601562 21.601562 0 11.953125 9.648437 21.601563 21.601562 21.601563 11.914063 0 21.601563-9.648438 21.601563-21.601563zm0 0" class="a"/></g><path d="M124.7891 14.25c0 1.191406-.96875 2.160156-2.160156 2.160156-1.195312 0-2.160156-.96875-2.160156-2.160156 0-1.195312.964844-2.160156 2.160156-2.160156 1.191406 0 2.160156.964844 2.160156 2.160156" class="c"/><path d="M1245.610625 1162.99c0-11.914062-9.6875-21.601562-21.601563-21.601562-11.953125 0-21.601562 9.6875-21.601562 21.601562 0 11.953125 9.648437 21.601563 21.601562 21.601563 11.914063 0 21.601563-9.648438 21.601563-21.601563zm0 0" class="a"/><path d="M156.2891 99.75c0 1.191406-.96875 2.160156-2.160156 2.160156-1.195312 0-2.160156-.96875-2.160156-2.160156 0-1.195312.964844-2.160156 2.160156-2.160156 1.191406 0 2.160156.964844 2.160156 2.160156" class="c"/><g clip-path="url(#l)"><path d="M1560.610625 307.99c0-11.914062-9.6875-21.601562-21.601563-21.601562-11.953125 0-21.601562 9.6875-21.601562 21.601562 0 11.953125 9.648437 21.601563 21.601562 21.601563 11.914063 0 21.601563-9.648438 21.601563-21.601563zm0 0" class="a"/></g><g clip-path="url(#m)"><path d="M54.009062 172.99l1170 990 315-855zm0 0" class="a"/></g><g clip-path="url(#n)"><g clip-path="url(#o)"><path d="M234.009062 217.99l1215 135-225 675" class="b"/></g></g><path d="M1266.587187 955.997813l-39.570312 62.382812 5.390625-73.789062" class="b"/><g clip-path="url(#p)"><g clip-path="url(#q)"><path d="M234.009062 262.99l945 765" class="b"/></g></g><path d="M1126.196562 963.185313l45 58.828125-67.8125-31.210938" class="b"/></g><path d="M4.9688-1.2344l-.1562-.0937c-.109375.125-.15625.1875-.265625.328125-.28125.359375-.40625.46875-.5625.46875-.171875 0-.28125-.15625-.359375-.484375-.03125-.109375-.046875-.171875-.046875-.1875-.296875-1.125-.4375-1.765625-.4375-1.953125C3.671975-4.0781 4.09385-4.60935 4.3126-4.60935c.078125 0 .1875.046875.296875.109375.140625.078125.21875.09375.328125.09375.234375 0 .40625-.171875.40625-.421875 0-.265625-.203125-.4375-.484375-.4375-.53125 0-.96875.421875-1.8125 1.703125l-.125-.6562c-.171875-.8125-.296875-1.046875-.625-1.046875-.28125 0-.65625.09375-1.40625.34375l-.125.0469.0469.1719.203-.047c.234375-.0625.375-.078125.46875-.078125.296875 0 .375.109375.53125.828125l.3438 1.4688-.9687 1.3906c-.250075.35935-.48445.5781-.60945.5781-.078125 0-.203125-.03125-.3125-.109375C.3125-.75.1875-.78125.078125-.78125c-.234375 0-.40625.171875-.40625.40625 0 .3125.234375.5.609375.5.359375 0 .5-.09375 1.109375-.8125L2.4688-2.1094l.3594 1.4375c.140625.625.296875.796875.6875.796875.453125 0 .765625-.28125 1.453125-1.359375zm0 0" id="a"/><path d="M5.0938-4.6094c0-.359375-.296875-.65625-.65625-.65625-.28125 0-.46875.171875-.46875.4375 0 .1875.09375.3125.328125.46875.234375.125.3125.234375.3125.40625 0 .46875-.421875 1.390625-1.453125 3.09375L2.9219-2.25c-.1875-1.0625-.859375-3.015625-1.03125-3.015625h-.1562L.5625-5.0625l-.3906.0781v.2031c.15625-.03125.25-.046875.375-.046875.484375 0 .703125.171875.921875.765625.328125.8125.984375 3.484375.984375 3.96875 0 .125-.046875.265625-.125.421875-.09375.15625-.625.859375-.84375 1.078125-.28125.296875-.421875.40625-.578125.40625-.078125 0-.15625-.046875-.28125-.140625C.4375 1.53125.328125 1.46875.171875 1.46875c-.25 0-.453125.203125-.453125.46875 0 .3125.25.53125.609375.53125.671875 0 1.96875-1.375 3.203125-3.4375 1-1.65625 1.5625-2.96875 1.5625-3.640625zm0 0" id="b"/><path d="M4.3438.0625c0-.265625-.171875-.4375-.421875-.4375-.234375 0-.40625.15625-.40625.390625 0 .09375.03125.203125.109375.34375.03125.078125.0625.125.0625.171875 0 .109375-.140625.1875-.328125.1875-.296875 0-.4375-.109375-.84375-.59375-.515625-.6875-.75-.84375-1.4375-1l3.4688-4.1094v-.125h-3.4062l-.3594 1.375.1875.0469c.25-.609375.40625-.71875.96875-.71875h1.75L-.0312.0469.0781.1563C.28125 0 .4375-.0625.625-.0625c.3125 0 .6875.15625 1.25.5.59375.375 1 .53125 1.34375.53125.59375 0 1.125-.4375 1.125-.90625zm0 0" id="c"/><path d="M5.6719-1.2031l-.1406-.125c-.65625.75-.78125.84375-.984375.84375-.109375 0-.203125-.09375-.203125-.234375 0-.1875.359375-1.59375.765625-2.9375l1.1875-4.4531-.0625-.0469c-.625.125-1.0625.203125-1.828125.265625v.2031c.65625.03125.75.0625.75.3125 0 .171875-.015625.203125-.1875.84375l-.5156 1.9531c-.109375-.5-.3125-.6875-.78125-.6875-1.5625 0-3.5 2.234375-3.5 4.03125C.171875-.375.65625.125 1.4375.125c.8125 0 1.328125-.375 2.140625-1.578125C3.453125-.84375 3.4375-.65625 3.4375-.375c0 .3125.1875.53125.5.53125.5 0 1.125-.484375 1.734375-1.359375zM4.25-4.3125c0 1.8125-1.234375 3.875-2.34375 3.875-.40625 0-.6875-.3125-.6875-.796875 0-.984375.59375-2.375 1.390625-3.21875C2.921875-4.78125 3.328125-5 3.671875-5c.015625 0 .03125 0 .046875 0 .359375.03125.53125.25.53125.6875zm0 0" id="d"/><path d="M2.3281-.0781c0-.984375-.6875-1.140625-.96875-1.140625-.296875 0-.6875.171875-.6875.6875 0 .484375.421875.609375.734375.609375.09375 0 .140625-.015625.1875-.03125s.07815-.01565.1094-.01565c.078125 0 .15625.046875.15625.15625 0 .234375-.1875.765625-.96875 1.265625l.0938.2344c.359375-.125 1.34375-.90625 1.34375-1.765625zm0 0" id="e"/><path d="M3.5313-8.5781C1.796925-7.4531.578175-5.5156.578175-3.0781c0 2.234375 1.265625 4.484375 2.90625 5.5l.1563-.2031C2.0625.984375 1.609375-.46875 1.609375-3.109375c0-2.65625.484375-4.03125 2.03125-5.265625zm0 0" id="f"/><path d="M.4531-8.5781.3438-8.375C1.890625-7.140625 2.375-5.765625 2.375-3.109375 2.375-.46875 1.921875.984375.34375 2.21875l.1406.2031c1.65625-1.015625 2.921875-3.265625 2.921875-5.5 0-2.4375-1.21875-4.375-2.953125-5.5zm0 0" id="g"/><path d="M3.0781 0v-.1719C2.3125-.234375 2.171875-.34375 2.171875-1v-7.1406L2.125-8.1562c-.625.203125-1.078125.3125-1.890625.515625v.1875h.0625c.140625 0 .28125-.015625.375-.015625.375 0 .5.171875.5.734375v5.6875c0 .65625-.171875.8125-.921875.875V0zm0 0" id="t"/><path d="M5.625-2.7969C5.625-4.359375 4.515625-5.5 2.984375-5.5 1.4375-5.5.34375-4.34375.34375-2.703125.34375-1.09375 1.453125.125 2.96875.125c1.5 0 2.65625-1.265625 2.65625-2.921875zm-1.0781.4219c0 1.34375-.546875 2.15625-1.4375 2.15625-.46875 0-.90625-.28125-1.15625-.765625-.34375-.625-.53125-1.453125-.53125-2.296875 0-1.140625.5625-1.875 1.40625-1.875 1.015625 0 1.71875 1.140625 1.71875 2.78125zm0 0" id="i"/><path d="M5.7969 0v-.1719c-.57815-.062475-.7344-.2031-.7344-.79685v-2.7344C5.0625-4.828125 4.546875-5.5 3.65625-5.5c-.546875 0-.921875.203125-1.734375.96875v-.9375L1.8438-5.5c-.59375.21875-1 .34375-1.65625.546875V-4.75c.078125-.046875.1875-.0625.328125-.0625.328125 0 .4375.1875.4375.765625v2.9688c0 .6875-.125.84375-.734375.90625V0H2.75v-.1719c-.609375-.0625-.796875-.203125-.796875-.625v-3.3593c.578125-.546875.84375-.6875 1.234375-.6875.59375 0 .875.375.875 1.15625v2.5c0 .75-.15625.953125-.75 1.015625V0zm0 0" id="u"/><path d="M5.625-4.6406v-.4687h-.9219c-.25 0-.421875-.03125-.65625-.109375L3.7813-5.3125C3.453125-5.4375 3.125-5.5 2.828125-5.5c-1.125 0-2 .859375-2 1.953125 0 .75.3125 1.203125 1.109375 1.59375l-.5156.4844c-.39065.343725-.5469.5781-.5469.8281s.140625.390625.625.625C.65625.609375.328125 1 .328125 1.453125c0 .625.9375 1.15625 2.078125 1.15625.890625 0 1.828125-.3125 2.453125-.8125.453125-.375.65625-.75.65625-1.21875 0-.734375-.5625-1.234375-1.453125-1.265625L2.5156-.7656c-.625-.015625-.921875-.125-.921875-.328125 0-.234375.390625-.65625.71875-.75.109375.015625.1875.03125.21875.03125.234375.015625.390625.03125.453125.03125.453125 0 .921875-.171875 1.296875-.5.390625-.34375.578125-.75.578125-1.359375 0-.34375-.0625-.609375-.234375-1zM5.1719.7656c0 .6875-.90625 1.15625-2.25 1.15625-1.0625 0-1.75-.34375-1.75-.875C1.171875.78125 1.25.625 1.75.03125c.40625.078125 1.359375.140625 1.9375.140625 1.09375 0 1.484375.15625 1.484375.59375zM3.9375-3.1719c0 .671875-.359375 1.09375-.90625 1.09375-.71875 0-1.21875-.78125-1.21875-1.921875v-.0469c0-.703125.34375-1.109375.890625-1.109375.375 0 .671875.203125.875.546875.21875.421875.359375.96875.359375 1.4375zm0 0" id="v"/><path d="M5.0625-1.875l-.1875-.0781c-.578125.90625-1.078125 1.25-1.84375 1.25-.671875 0-1.171875-.3125-1.515625-.953125C1.28125-2.125 1.1875-2.546875 1.15625-3.3125h3.6875c-.09375-.78125-.21875-1.125-.515625-1.5C3.96875-5.25 3.421875-5.5 2.796875-5.5c-1.484375 0-2.5 1.203125-2.5 2.9375C.296875-.90625 1.15625.125 2.53125.125c1.15625 0 2.03125-.703125 2.53125-2zM3.625-3.6875H1.1875c.125-.953125.53125-1.375 1.265625-1.375.71875 0 1.015625.328125 1.171875 1.375zm0 0" id="j"/><path d="M4-4.8594C4-5.265625 3.75-5.5 3.34375-5.5c-.5 0-.84375.28125-1.4375 1.125v-1.0937L1.8594-5.5c-.640625.265625-1.078125.421875-1.78125.640625v.2031C.25-4.703125.359375-4.703125.5-4.703125c.296875 0 .40625.1875.40625.703125v3c0 .59375-.078125.671875-.84375.828125V0h2.8594v-.1719c-.8125-.046875-1.015625-.21875-1.015625-.90625v-2.6875c0-.375.515625-.984375.84375-.984375.078125 0 .171875.0625.3125.1875.1875.15625.3125.234375.46875.234375.296875 0 .46875-.203125.46875-.53125zm0 0" id="h"/><path d="M4.1563-1.4062c0-.609375-.265625-1-1-1.421875L1.8594-3.5937c-.328125-.203125-.515625-.5-.515625-.8125 0-.5.375-.8125.921875-.8125.6875 0 1.046875.390625 1.3125 1.46875h.1875L3.7188-5.375h-.1406l-.0156.0156c-.109375.09375-.125.09375-.171875.09375-.0625 0-.1875-.015625-.3125-.078125-.25-.09375-.53125-.140625-.8125-.140625-.984375 0-1.65625.59375-1.65625 1.46875 0 .671875.375 1.140625 1.40625 1.71875l.6875.3906c.421875.25.625.53125.625.90625 0 .515625-.390625.859375-1 .859375C1.5-.140625 1.09375-.59375.8125-1.8125H.625V.0469h.1563c.078125-.125.125-.140625.265625-.140625s.265625.015625.5625.09375c.328125.078125.625.125.875.125.90625 0 1.671875-.703125 1.671875-1.53125zm0 0" id="w"/><path d="M5.8281 0v-.1719c-.65625-.125-.71875-.21875-.71875-1.046875v-2.375c0-1.265625-.5-1.90625-1.46875-1.90625-.71875 0-1.21875.28125-1.765625 1v-3.625l-.0625-.0312c-.40625.140625-.703125.234375-1.375.421875l-.3125.0938v.1875c.046875 0 .078125 0 .140625 0 .515625 0 .609375.09375.609375.609375v5.625c0 .84375-.078125.9375-.765625 1.046875V0H2.6875v-.1719C2-.25 1.875-.390625 1.875-1.21875v-2.875c.5-.5625.859375-.765625 1.328125-.765625.59375 0 .890625.4375.890625 1.28125v2.3594c0 .8125-.109375.96875-.8125 1.046875V0zm0 0" id="x"/><path d="M3.3281-.7812l-.1562-.1406C2.921875-.609375 2.71875-.5 2.46875-.5c-.453125 0-.625-.3125-.625-1.078125V-5h1.2031v-.375H1.8438v-1.3906c0-.125-.03125-.15625-.09375-.15625-.0625.125-.140625.234375-.234375.328125-.4375.671875-.84375 1.109375-1.15625 1.28125-.125.09375-.203125.15625-.203125.234375 0 .03125.015625.0625.046875.078125H.8438v3.5938C.84375-.390625 1.1875.125 1.890625.125c.59375 0 1.046875-.296875 1.4375-.90625zm0 0" id="y"/></defs><use href="#s"/><use x="1.128" y="126.708" href="#a"/><use x="154.61" y="113.208" href="#b"/><use x="118.418" y="5.206" href="#c"/><use x="59.928" y="122.208" href="#d"/><use x="67.125" y="122.208" href="#f"/><use x="71.5843" y="122.208" href="#a"/><use x="77.4782" y="122.208" href="#e"/><use x="83.0613" y="122.208" href="#b"/><use x="88.8237" y="122.208" href="#g"/><use x="149.931" y="54.707" href="#d"/><use x="157.128" y="54.707" href="#f"/><use x="162.0655" y="54.707" href="#b"/><use x="167.8279" y="54.707" href="#e"/><use x="173.2317" y="54.707" href="#c"/><use x="178.2409" y="54.707" href="#g"/><use x="32.928" y="59.207" href="#d"/><use x="40.125" y="59.207" href="#f"/><use x="44.5843" y="59.207" href="#a"/><use x="50.4663" y="59.207" href="#e"/><use x="55.87" y="59.207" href="#c"/><use x="60.8793" y="59.207" href="#g"/><use x="95.63" y="95.208" href="#t"/><use x="98.9535" y="95.208" href="#i"/><use x="104.9311" y="95.208" href="#u"/><use x="110.9087" y="95.208" href="#v"/><use x="116.5875" y="95.208" href="#j"/><use x="121.8956" y="95.208" href="#h"/><use x="77.63" y="68.207" href="#w"/><use x="82.2806" y="68.207" href="#x"/><use x="88.2582" y="68.207" href="#i"/><use x="94.2358" y="68.207" href="#h"/><use x="98.5157" y="68.207" href="#y"/><use x="101.8393" y="68.207" href="#j"/><use x="107.1474" y="68.207" href="#h"/><style>.a{fill:none;stroke:#000;stroke-linecap:butt;stroke-linejoin:miter;stroke-miterlimit:10;stroke-opacity:1;stroke-width:4.5;transform:matrix(.1,0,0,-.1,.228,130.549)}.b{fill:none;stroke:#898989;stroke-linecap:butt;stroke-linejoin:miter;stroke-miterlimit:10;stroke-opacity:1;stroke-width:4.5;transform:matrix(.1,0,0,-.1,.228,130.549)}.c{fill:#000;fill-opacity:1;fill-rule:evenodd}</style></svg>