<svg xmlns="http://www.w3.org/2000/svg" width="253pt" height="116pt" viewBox="0 0 253 116"><defs><clipPath id="d"><path d="M0 43h253v72.5508H0zm0 0"/></clipPath><clipPath id="e"><path d="M75 .5508h118V112H75zm0 0"/></clipPath><clipPath id="f"><path d="M96 4h46v55H96zm0 0"/></clipPath><clipPath id="g"><path clip-rule="evenodd" d="M-.8242 115.5508h255v-115h-255zM102.6563 11.2305l.6016-.4805 6.418 5.8789-5.8789-4.5586 3.0586 6.7773zm0 0"/></clipPath><clipPath id="h"><path d="M0 30h253v45H0zm0 0"/></clipPath><clipPath id="i"><path d="M0 0h253v116H0z"/></clipPath><g id="j" clip-path="url(#i)"><path d="M.4766 43.4492l135 9 117 9v54h-252v-72" style="fill-rule:evenodd;fill:#d2d2d2;fill-opacity:1;clip-path:url(#d)"/><g clip-path="url(#e)"><path d="M1868.815938 622.599375c0-287.617187-233.203125-520.78125-520.820313-520.78125-287.617187 0-520.78125 233.164063-520.78125 520.78125 0 287.617188 233.164063 520.78125 520.78125 520.78125 287.617188 0 520.820313-233.164062 520.820313-520.78125zm0 0" style="fill:none;stroke-width:4.5;stroke-linecap:round;stroke-linejoin:miter;stroke:#000;stroke-opacity:1;stroke-dasharray:9,9;stroke-dashoffset:9;stroke-miterlimit:10;transform:matrix(.1,0,0,-.1,-.823,115.549)"/></g><g clip-path="url(#f)"><g clip-path="url(#g)"><path d="M1362.995625 630.997813l-322.8125 411.601562" class="a"/></g></g><path d="M1076.784688 967.013438l-30.585938 67.773437 58.789063-45.585937" class="a"/><g clip-path="url(#h)"><path d="M12.995625 720.997813l1350-90 1170-90" style="fill:none;stroke-width:9;stroke-linecap:butt;stroke-linejoin:miter;stroke:#000;stroke-opacity:1;stroke-miterlimit:10;transform:matrix(.1,0,0,-.1,-.823,115.549)"/></g><path fill-rule="evenodd" fill="#000" fill-opacity="1" d="M136.918 52.4492c0 .792969-.644531 1.441406-1.441407 1.441406-.792968 0-1.441406-.648437-1.441406-1.441406 0-.796875.648438-1.441407 1.441406-1.441407.796876 0 1.441407.644532 1.441407 1.441407"/><path d="M1377.409688 630.997813c0-7.929688-6.445313-14.414063-14.414063-14.414063-7.929687 0-14.414062 6.484375-14.414062 14.414063 0 7.96875 6.484375 14.414062 14.414062 14.414062 7.96875 0 14.414063-6.445312 14.414063-14.414062zm0 0" class="a"/></g><path d="M4.9688-1.2344l-.1562-.0937c-.109375.125-.15625.1875-.265625.328125-.28125.359375-.40625.46875-.5625.46875-.171875 0-.28125-.15625-.359375-.484375-.03125-.109375-.046875-.171875-.046875-.1875-.296875-1.125-.4375-1.765625-.4375-1.953125C3.671975-4.0781 4.09385-4.60935 4.3126-4.60935c.078125 0 .1875.046875.296875.109375.140625.078125.21875.09375.328125.09375.234375 0 .40625-.171875.40625-.421875 0-.265625-.203125-.4375-.484375-.4375-.53125 0-.96875.421875-1.8125 1.703125l-.125-.6562c-.171875-.8125-.296875-1.046875-.625-1.046875-.28125 0-.65625.09375-1.40625.34375l-.125.0469.0469.1719.203-.047c.234375-.0625.375-.078125.46875-.078125.296875 0 .375.109375.53125.828125l.3438 1.4688-.9687 1.3906c-.250075.35935-.48445.5781-.60945.5781-.078125 0-.203125-.03125-.3125-.109375C.3125-.75.1875-.78125.078125-.78125c-.234375 0-.40625.171875-.40625.40625 0 .3125.234375.5.609375.5.359375 0 .5-.09375 1.109375-.8125L2.4688-2.1094l.3594 1.4375c.140625.625.296875.796875.6875.796875.453125 0 .765625-.28125 1.453125-1.359375zm0 0" id="b"/><path d="M5.5156-7.1719c0-.375-.546875-.6875-1.515625-.6875s-1.73435.5469-1.73435 1.26565c0 .796875.8125 1.65625.8125 1.671875 0 0-2.859375.46875-2.859375 3.171875 0 .8125.421875 1.921875 1.625 1.921875 1.6875 0 3.046875-1.546875 3.046875-3.5 0-1.984375-2.171875-2.234375-2.171875-3.390625 0-.53125.625-.765625 1.015625-.765625 1.125 0 .875.6875 1.375.6875.25 0 .40625-.171875.40625-.375zm-1.5781 4.25c0 1.53125-1 2.796875-1.8125 2.796875-.671875 0-.90625-.921875-.90625-1.578125 0-2.765625 2.078125-2.96875 2.09375-2.96875 0 .015625.625.78125.625 1.75zm0 0" id="c"/><path d="M6.4375-2.3906c0-.875-.359375-1.3125-1.5-1.8125.84375-.203125 1.1875-.34375 1.578125-.671875.328125-.28125.515625-.6875.515625-1.171875 0-1.140625-.84375-1.765625-2.390625-1.765625h-3.0937v.2031c.765625.0625.921875.140625.921875.484375 0 .1875-.046875.46875-.125.765625L.875-1.0781c-.21875.7031-.296875.7656-.96875.8906V0h3.375c1.875 0 3.15625-.96875 3.15625-2.390625zm-1.2812-.0469c0 1.296875-.890625 2.078125-2.34375 2.078125-.5 0-.765625-.171875-.765625-.5 0-.15625.140625-.71875.421875-1.671875l.375-1.4219c.75 0 1.265625.046875 1.5.140625.515625.1875.8125.71875.8125 1.375zm.6719-3.7187c0 1.234375-.8125 1.8125-2.453125 1.8125h-.4062l.7656-2.7656c.078125-.265625.21875-.34375.6875-.34375.96875 0 1.40625.40625 1.40625 1.296875zm0 0" id="k"/><path d="M2.3281-.0781c0-.984375-.6875-1.140625-.96875-1.140625-.296875 0-.6875.171875-.6875.6875 0 .484375.421875.609375.734375.609375.09375 0 .140625-.015625.1875-.03125s.07815-.01565.1094-.01565c.078125 0 .15625.046875.15625.15625 0 .234375-.1875.765625-.96875 1.265625l.0938.2344c.359375-.125 1.34375-.90625 1.34375-1.765625zm0 0" id="l"/><path d="M6.7344 0v-.1875c-.6719-.0625-.76565-.15625-.906275-1.03125l-1.125-6.7656H4.4063L.9375-2.0156C-.015625-.421875-.125-.28125-.609375-.1875V0H1.625v-.1875C1.015625-.25.921875-.3125.921875-.609375c0-.234375.03125-.328125.234375-.734375l.6875-1.3594h2.625l.2344 1.5625c.015625.109375.03125.21875.03125.3125 0 .453125-.171875.5625-.9375.640625V0zM4.4063-3.125H2.0938l1.7969-3.1094zm0 0" id="a"/><path d="M5.875-5.1562c0-1.71875-.515625-3.109375-1.8125-3.109375-1 0-2.09375.953125-2.09375 1.484375 0 .390625.3125.546875.546875.546875.25 0 .40625-.1875.4375-.21875-.03125-.03125-.109375-.140625-.109375-.3125 0-.109375.21875-1.140625 1.25-1.140625.859375 0 1.046875 1.109375 1.046875 2.078125 0 .71875-.109375 1.375-.109375 1.375h-.0156S4.5469-5.18745 3.6094-5.18745c-2.390625 0-3.375 2.3125-3.375 3.546875C.234375-.53125.890625.1875 2.21875.1875 4.265625.1875 5.875-1.90625 5.875-5.15625zM4.5156-3.7969c0 .3125-.3125 3.703125-2.21875 3.703125-.6875 0-1-.390625-1-1.15625 0-.75.515625-3.65625 2.234375-3.65625.671875 0 .984375.40625.984375 1.109375zm0 0" id="m"/><path d="M3.5313-8.5781C1.796925-7.4531.578175-5.5156.578175-3.0781c0 2.234375 1.265625 4.484375 2.90625 5.5l.1563-.2031C2.0625.984375 1.609375-.46875 1.609375-3.109375c0-2.65625.484375-4.03125 2.03125-5.265625zm0 0" id="n"/><path d="M.4531-8.5781.3438-8.375C1.890625-7.140625 2.375-5.765625 2.375-3.109375 2.375-.46875 1.921875.984375.34375 2.21875l.1406.2031c1.65625-1.015625 2.921875-3.265625 2.921875-5.5 0-2.4375-1.21875-4.375-2.953125-5.5zm0 0" id="o"/><path d="M3.2031-.8437l-.1406-.0782c-.484375.515625-.8125.703125-1.25.703125-.5 0-.796875-.375-.796875-1 0-.75.3125-1.53125.796875-2.046875.25-.265625.609375-.421875.953125-.421875.203125 0 .328125.078125.328125.1875 0 .03125-.015625.078125-.046875.15625-.0625.125-.078125.171875-.078125.265625 0 .203125.125.328125.328125.328125.25 0 .421875-.171875.421875-.40625 0-.40625-.375-.703125-.90625-.703125-1.328125 0-2.546875 1.28125-2.546875 2.640625 0 .828125.46875 1.3125 1.28125 1.3125.65625 0 1.125-.265625 1.65625-.9375zm0 0" id="p"/></defs><use href="#j"/><use x="140" y="65.987" href="#b"/><use x="122.167" y="29.987" href="#c"/><use x="99.966" y="83.988" href="#k"/><use x="108.1075" y="83.988" href="#n"/><use x="112.5668" y="83.988" href="#b"/><use x="118.4487" y="83.988" href="#l"/><use x="123.7329" y="83.988" href="#c"/><use x="129.6269" y="83.988" href="#o"/><use x="28.394" y="11.986" href="#a"/><use x="35.951" y="7.646" href="#p"/><use x="23.894" y="92.988" href="#a"/><use x="218.084" y="56.987" href="#m"/><use x="225.7114" y="56.987" href="#a"/><style>.a{fill:none;stroke:#000;stroke-linecap:butt;stroke-linejoin:miter;stroke-miterlimit:10;stroke-opacity:1;stroke-width:4.5;transform:matrix(.1,0,0,-.1,-.823,115.549)}</style></svg>