<svg xmlns="http://www.w3.org/2000/svg" width="204pt" height="94pt" viewBox="0 0 204 94"><defs><clipPath id="f"><path d="M.4961 0H89v93.55078H.4961zm0 0"/></clipPath><clipPath id="g"><path d="M40 35h132v29H40zm0 0"/></clipPath><clipPath id="h"><path clip-rule="evenodd" d="M.4961 93.55078h204v-94h-204zm171.043-35.12109-.4219.66016-7.918-3.60156 6.957 2.51953-4.9766-5.51953zm0 0"/></clipPath><clipPath id="i"><path d="M0 0h204v94H0z"/></clipPath><g id="j" clip-path="url(#i)"><path d="M11.2773 15.82813l1.2617-1.37891 1.3203-1.26172 1.4375-1.19922 1.5-1.14062 1.6211-1.13672 1.7383-1.08203 1.7422-.96094 1.8594-.95703 1.9219-.90234 2.0391-.83984 2.039-.71876 2.1602-.72266 2.1602-.59766 2.2188-.53906 2.2813-.48047 2.2188-.35937 2.281-.30078 2.2813-.24219 2.2188-.11719h2.2188l2.2227.05859 2.1602.12109 2.0389.1797 2.0391.30078 1.9805.41797 1.918.42188 1.8008.53906 1.8008.66016 1.6795.66015 1.5586.77734 1.5625.83984 1.4375.96094 1.3828.96094 1.3203 1.14063 1.2578 1.14062 1.1992 1.25781 1.1406 1.38281 1.082 1.4375 1.0195 1.5 1.0195 1.62109.8984 1.67969.9023 1.73828.7773 1.86328.7227 1.85938.7188 1.98047.6016 1.97656.5391 2.04297.4805 2.09766.4805 2.04297.3594 2.09766.3008 2.10156.1797 2.09766.1797 2.10156.1211 2.03906.0586 2.03906v1.98047l-.0586 1.92188-.1211 1.91797-.1211 1.80078-.2383 1.80078-.2422 1.73828-.2383 1.67969-.3594 1.62109-.3633 1.5625-.4766 1.73828-.543 1.67969-.5391 1.62109-.6602 1.62109-.6602 1.55859-.7812 1.5-.8398 1.5-.8984 1.44141-.9609 1.4375-1.0195 1.32031-1.0781 1.32031-1.1406 1.26172L76.1992 82.25l-1.2617 1.14063-2.6406 2.03906-1.3789.96094-1.3789.83984-1.4414.83984-1.4414.71875-1.4375.66016-1.4414.60156-1.5.47656-1.5.48047-1.5.42188-1.5.35937-1.5.23828-1.5.30078-1.5.17969-1.4414.12109-1.5586.12109-1.5586.05859h-1.5625L45.5391 92.75l-1.6211-.0625-1.6797-.17969-1.7422-.17969-1.7383-.30078-1.7383-.29687-1.7422-.36328-1.8008-.47656-1.7383-.48047-1.7422-.60156-3.4766-1.32031-1.6836-.77734-1.6172-.84375-1.5625-.89844-1.5586-.89844-1.5-1.01953-1.3789-1.02344-1.3828-1.07812-1.3164-1.14062-1.2031-1.19922-1.1992-1.26172-1.0781-1.25781-1.082-1.37891-.9609-1.38281-.8984-1.4375-.8398-1.44141-.7812-1.5-.7187-1.55859-.7187-1.62109-.6602-1.74219-.543-1.79687-.5977-1.80078-.4805-1.92188-.4219-1.98047-.3594-1.97656-.2969-2.04297-.2422-2.09766-.1797-2.10156-.0586-2.09766v-2.16016l.0586-2.16016.1211-2.10156.2383-2.10156.3008-2.09766.3594-2.03906.4219-1.98047.5391-1.98047.5977-1.92187.6602-1.80078.7813-1.79688.7813-1.74219.8984-1.61719.9609-1.5625 1.0195-1.5 1.1406-1.4375" class="b"/><g clip-path="url(#f)"><path d="M107.793437 777.20875l12.617188 13.789063L133.61375 803.615l14.375 11.992188 15 11.40625 16.210937 11.367187 17.382813 10.820313 17.421875 9.609375 18.59375 9.570312 19.21875 9.023438L272.2075 885.8025l20.390625 7.1875 21.601562 7.226563 21.601563 5.976562 22.1875 5.390625 22.8125 4.804688 22.1875 3.59375 22.8125 3.007812 22.8125 2.421875 22.1875 1.171875h22.1875l22.226562-.585937 21.601563-1.210938L557.2075 922.99l20.390625-3.007812 19.804687-4.179688 19.179688-4.21875 18.007812-5.390625 18.007813-6.601562L669.395 892.99l15.585937-7.773437 15.625-8.398438 14.375-9.609375 13.828125-9.609375 13.203125-11.40625 12.578125-11.40625L766.5825 822.20875l11.40625-13.828125 10.820312-14.375 10.195313-15 10.195312-16.210937 8.984375-16.796875L827.2075 728.615l7.773437-18.632812 7.226563-18.59375 7.1875-19.804688 6.015625-19.765625 5.390625-20.429687 4.804687-20.976563 4.804688-20.429687 3.59375-20.976563L877.012187 547.99l1.796875-20.976562 1.796875-21.015625 1.210938-20.390625.585937-20.390625v-19.804688l-.585937-19.21875-1.210938-19.179687-1.210937-18.007813-2.382813-18.007812-2.421875-17.382813-2.382812-16.796875-3.59375-16.210937-3.632813-15.625-4.765625-17.382813-5.429687-16.796875-5.390625-16.210937-6.601563-16.210938-6.601562-15.585937-7.8125-15-8.398438-15-8.984375-14.414063-9.609375-14.375-10.195312-13.203125-10.78125-13.203125-11.40625-12.617187L757.012187 112.99 744.395 101.58375l-26.40625-20.390625-13.789063-9.609375-13.789062-8.398437-14.414063-8.398438-14.414062-7.1875-14.375-6.601562-14.414063-6.015625-15-4.765625-15-4.804688-15-4.21875-15-3.59375-15-2.382812-15-3.007813-15-1.796875-14.414062-1.210937L497.793437 7.99 482.2075 7.404063h-15.625L450.410625 7.99l-16.210938.625-16.796875 1.796875-17.421875 1.796875-17.382812 3.007813-17.382813 2.96875-17.421875 3.632812-18.007812 4.765625-17.382813 4.804688-17.421875 6.015625-34.765625 13.203125-16.835937 7.773437-16.171875 8.4375-15.625 8.984375-15.585938 8.984375-15 10.195313-13.789062 10.234375-13.828125 10.78125-13.164063 11.40625-12.03125 11.992187-11.992187 12.617188-10.78125 12.578125-10.820313 13.789062-9.609375 13.828125-8.984375 14.375-8.398437 14.414063-7.8125 15-7.1875 15.585937-7.1875 16.210938-6.601563 17.421875-5.429687 17.96875-5.976563 18.007812-4.804687 19.21875-4.21875 19.804688-3.59375 19.765625-2.96875 20.429687L9.395 421.388438l-1.796875 21.015625-.585938 20.976562v21.601563l.585938 21.601562 1.210937 21.015625L11.191875 548.615l3.007812 20.976563 3.59375 20.390625 4.21875 19.804687 5.390625 19.804688 5.976563 19.21875 6.601562 18.007812 7.8125 17.96875 7.8125 17.421875 8.984375 16.171875 9.609375 15.625 10.195313 15 11.40625 14.375zm0 0" style="fill:none;stroke-width:4.5;stroke-linecap:butt;stroke-linejoin:bevel;stroke:#000;stroke-opacity:1;stroke-dasharray:27,13.8,9,13.8;stroke-miterlimit:10;transform:matrix(.1,0,0,-.1,.498,93.549)"/></g><path d="M143.9961 72.05078l.7227 1.07813.8398 1.01953.8398.96094 1.0195.96094 1.0195.83984 1.1406.83984 1.2617.77734 1.2578.72266 1.3789.66016 1.4414.59766 1.5.54297 1.5586.47656 1.6211.42188 3.3594.60156 1.6797.17969 1.7422.05859 1.7383.05859 1.6797-.05859 1.7422-.12109 1.6797-.23828 1.6797-.24219 1.6211-.35937 1.6172-.48047 1.5-.48047 1.5625-.59766 1.4375-.60156 1.4414-.71875 1.3203-.78125 1.3789-.83984 1.3203-1.01953 1.3789-1.07812 1.2617-1.20312 1.2578-1.25781 1.2617-1.37891 1.1406-1.44141 1.1406-1.5 1.0781-1.62109 1.0195-1.67969.9609-1.73828.8984-1.80078.8438-1.85937.7188-1.85937.6602-1.92187.5977-1.85937.4805-1.92187.3594-1.91797.3008-1.85937.1797-1.80078.1211-1.80078v-1.67969l-.1211-1.67969-.1797-1.55859-.3008-1.5625-.418-1.4375-.4805-1.32031-.6014-1.32037-.6602-1.19922-.7187-1.08203-.8398-1.01953-.8984-.96094-1.0195-.89844-1.0822-.83984-1.1992-.78125-1.2617-.71875-1.3203-.66016-1.4375-.60156-1.5-.53906-1.6211-.48047-1.6211-.41797-1.6797-.30078-1.7383-.24219-1.7422-.17969-1.7969-.11719h-3.6016l-3.6016.35937-1.7383.23828-1.7383.35938-1.6836.42188-1.6172.48047-1.6211.53906-1.5.60156-1.5.71875-1.4414.71875-1.3789.78125-1.3203.89844-1.3203.90234-1.2577 1.01954-1.1406 1.01953-1.1992 1.14063-1.082 1.19922-1.0781 1.32031-1.0196 1.32031-.9609 1.4375-.9609 1.44141-.8398 1.5-.8398 1.62109-.7187 1.61719-.7227 1.62109-.5977 1.67969-.543 1.67969-.418 1.74219-.4219 1.67969-.2969 1.67969-.2422 1.67969-.1211 1.62109-.0586 1.61719.0586 1.5625.0625 1.5.1797 1.5.3008 1.4375.7188 2.64062.5391 1.20313.543 1.19922" class="b"/><path d="M1434.980937 214.982188l7.226563-10.78125 8.398437-10.195313 8.398438-9.609375 10.195312-9.609375 10.195313-8.398437 11.40625-8.398438 12.617187-7.773437 12.578125-7.226563 13.789063-6.601562 14.414062-5.976563 15-5.429687 15.585938-4.765625 16.210937-4.21875 33.59375-6.015625 16.796875-1.796875 17.421875-.585938 17.382813-.585937 16.796875.585937 17.421875 1.210938 16.796875 2.382812 16.796875 2.421875 16.210937 3.59375 16.171875 4.804688 15 4.804687 15.625 5.976563 14.375 6.015625 14.414063 7.1875 13.203125 7.8125 13.789062 8.398437 13.203125 10.195313 13.789063 10.78125 12.617187 12.03125 12.578125 12.578125 12.617188 13.789062 11.40625 14.414063 11.40625 15 10.78125 16.210937 10.195312 16.796875 9.609375 17.382813 8.984375 18.007812 8.4375 18.59375 7.1875 18.59375 6.601563 19.21875 5.976562 18.59375 4.804688 19.21875 3.59375 19.179688 3.007812 18.59375 1.796875 18.007812 1.210938 18.007813v16.796875l-1.210938 16.796875-1.796875 15.585937-3.007812 15.625-4.179688 14.375-4.804687 13.203125L2011.5825 592.99l-6.601563 11.992188-7.1875 10.820312-8.398437 10.195313-8.984375 9.609375-10.195313 8.984375L1959.395 652.99l-11.992188 7.8125-12.617187 7.1875-13.203125 6.601563-14.375 6.015625-15 5.390625-16.210938 4.804687-16.210937 4.179688L1842.98875 697.99l-17.382813 2.421875-17.421875 1.796875-17.96875 1.171875h-36.015625l-36.015625-3.59375-17.382812-2.382812-17.382813-3.59375-16.835937-4.21875-16.171875-4.804688-16.210938-5.390625-15-6.015625-15-7.1875-14.414062-7.1875-13.789063-7.8125-13.203125-8.984375-13.203125-9.023437L1537.012187 622.99l-11.40625-10.195312-11.992187-11.40625-10.820313-11.992188-10.78125-13.203125L1481.816875 562.99l-9.609375-14.375-9.609375-14.414062-8.398438-15L1445.80125 502.99l-7.1875-16.171875-7.226563-16.210937-5.976562-16.796875-5.429688-16.796875-4.179687-17.421875-4.21875-16.796875-2.96875-16.796875-2.421875-16.796875-1.210938-16.210938-.585937-16.171875.585937-15.625.625-15 1.796875-15 3.007813-14.375 7.1875-26.40625 5.390625-12.03125 5.429687-11.992187zm0 0" class="c"/><path fill-rule="evenodd" fill="#cacaca" fill-opacity="1" d="M27.7773 35.32813l.7813-.77734.8398-.66016.8984-.60156.9609-.53906 1.0195-.42187 1.082-.41797 1.0781-.30078 1.1992-.30078 1.1992-.17969 1.2617-.12109 1.2617-.05859h1.2578l1.2617.12109 1.2578.11719 1.2617.17969 1.2578.30078 1.2031.30078 1.1367.35938 1.1406.35938 1.082.48047 1.0195.48047.9609.53906.8984.54297.8984.59766.9023.66016.8984.72266.8398.77734.7813.83984.7188.90234.7227.89844.7188 1.01953.6016 1.08203.5977 1.07813.4805 1.19922.4805 1.14063.418 1.26172.3633 1.19922.2969 1.25781.1797 1.26172.1836 1.26172.1172 1.25781.0625 1.26172v1.25781l-.0625 1.19922-.1172 1.20312-.1836 1.25781-.2383 1.19922-.2383 1.26172-.3008 1.19922-.4219 1.32031-.418 1.26172-.4805 1.32031-.5391 1.32031-.6016 1.25781-.7187 1.32031-.7227 1.26172-.7768 1.19919-.7812 1.19922-.8398 1.07813-.8984 1.08203-.9023.96094-.9609.89844-.957.78125-1.9219 1.32031-1.0195.48047-.9609.41797-1.0195.35938-.9609.17969-1.0195.17969-1.0195.0625h-1.0195l-1.0781-.12109-1.082-.17969-1.1406-.23828-1.1406-.30078-1.1367-.42187-1.1406-.48047-1.1406-.59766-1.1406-.60156-1.0781-.71875-1.1406-.78125-1.0195-.83984-1.0234-.89844-.957-.96094-.9023-.96094-.8398-1.01953-.7773-1.01953-.7227-1.14062-.6602-1.07812-.5985-1.14066-.543-1.19922-.4766-1.20312-.4219-1.32031-.418-1.31641-.3008-1.38281-.3008-1.37891-.3594-3-.1211-1.55859-.0586-1.5625.0586-1.55859.0586-1.62109.1211-1.55859.2422-1.5625.2383-1.55859.3594-1.5.3594-1.44141.4219-1.31641.4805-1.32031.5391-1.20312.6016-1.13672.5977-1.08203.6602-.96094.7188-.89844"/><path d="M272.793437 582.20875l7.8125 7.773438 8.398438 6.601562 8.984375 6.015625 9.609375 5.390625 10.195312 4.21875 10.820313 4.179688 10.78125 3.007812 11.992187 3.007813 11.992188 1.796875 12.617187 1.210937 12.617188.585938h12.578125l12.617187-1.210938 12.578125-1.171875 12.617188-1.796875 12.578125-3.007812 12.03125-3.007813 11.367187-3.59375 11.40625-3.59375 10.820313-4.804687 10.195312-4.804688 9.609375-5.390625 8.984375-5.429687 8.984375-5.976563 9.023438-6.601562 8.984375-7.226563 8.398437-7.773437 7.8125-8.398438 7.1875-9.023437 7.226563-8.984375 7.1875-10.195313 6.015625-10.820312 5.976562-10.78125 4.804688-11.992188 4.804687-11.40625 4.179688-12.617187 3.632812-11.992188 2.96875-12.578125 1.796875-12.617187 1.835938-12.617188 1.171875-12.578125.625-12.617187v-12.578125l-.625-11.992188-1.171875-12.03125-1.835938-12.578125-2.382812-11.992187-2.382813-12.617188-3.007812-11.992187-4.21875-13.203125-4.179688-12.617188-4.804687-13.203125-5.390625-13.203125-6.015625-12.578125-7.1875-13.203125-7.226563-12.617187L570.410625 202.99l-7.8125-11.992187-8.398438-10.78125-8.984375-10.820313-9.023437-9.609375-9.609375-8.984375-9.570313-7.8125-19.21875-13.203125-10.195312-4.804687-9.609375-4.179688-10.195313-3.59375-9.609375-1.796875L447.98875 113.615l-10.195313-.625h-10.195312l-10.78125 1.210938-10.820313 1.796875-11.40625 2.382812-11.40625 3.007813-11.367187 4.21875-11.40625 4.804687-11.40625 5.976563-11.40625 6.015625-10.78125 7.1875-11.40625 7.8125-10.195313 8.398437-10.234375 8.984375-9.570312 9.609375-9.023438 9.609375-8.398437 10.195313-7.773438 10.195312-7.226562 11.40625-6.601563 10.78125-5.976562 11.40625-5.429688 11.992188-4.765625 12.03125-4.21875 13.203125-4.179687 13.164062-3.007813 13.828125-3.007812 13.789063-3.59375 30-1.210938 15.585937-.585937 15.625.585937 15.585938.585938 16.210937 1.210937 15.585938 2.421875 15.625 2.382813 15.585937 3.59375 15 3.59375 14.414063 4.21875 13.164062 4.804687 13.203125 5.390625 12.03125 6.015625 11.367188 5.976563 10.820312 6.601562 9.609375 7.1875 8.984375zm0 0" class="c"/><g clip-path="url(#g)"><g clip-path="url(#h)"><path d="M399.980937 304.982188l1.835938 1.835937 2.382812 1.796875 3.59375 2.96875 5.390625 4.21875 6.601563 5.390625 8.398437 6.601563 10.820313 8.398437 11.992187 9.609375 13.203125 10.195313 15.585938 11.40625L496.5825 379.39625l17.421875 13.203125 19.179687 13.203125 19.804688 13.203125 21.015625 13.203125 22.1875 13.789063 22.8125 13.203125 23.398437 12.617187 24.609375 12.578125 25.78125 11.992188 26.40625 11.992187 28.203125 10.820313 29.414063 10.78125 31.171875 9.609375 32.421875 9.023437 34.804687 7.773438L911.816875 562.99l37.773437 5.390625 39.609375 4.21875 40.78125 2.382813 38.4375.625 37.773438-1.210938 36.601562-2.382812 36.015625-3.632813 33.59375-5.390625 33.007813-5.390625 31.171875-7.1875 30-7.226562 28.828125-8.398438 27.578125-8.398437 26.40625-9.570313 25.820312-10.234375 24.570313-10.195312 24.609375-10.195313 22.8125-11.40625 22.773437-10.78125 22.226563-11.40625 20.976562-11.40625 19.804688-10.78125 19.21875-10.820312 18.007812-10.195313 16.796875-10.195312 15-8.984375 13.203125-8.398438 11.992188-7.226562 10.195312-6.601563 8.398438-5.390625 6.601562-4.21875 5.390625-3.59375 7.1875-4.804687" style="fill:none;stroke-width:4.5;stroke-linecap:butt;stroke-linejoin:bevel;stroke:#000;stroke-opacity:1;stroke-miterlimit:10;transform:matrix(.1,0,0,-.1,.498,93.549)"/></g></g><path d="M1646.816875 410.607188l49.765625-55.195313-69.570313 25.195313" class="a"/><path d="M41.9375 63.05078c0 .792969-.644531 1.4375-1.441406 1.4375-.792969 0-1.4375-.644531-1.4375-1.4375 0-.796875.644531-1.441406 1.4375-1.441406.796875 0 1.441406.644531 1.441406 1.441406" class="d"/><path d="M414.395 304.982188c0-7.929688-6.445313-14.375-14.414063-14.375-7.929687 0-14.375 6.445312-14.375 14.375 0 7.96875 6.445313 14.414062 14.375 14.414062 7.96875 0 14.414063-6.445312 14.414063-14.414062zm0 0" class="a"/><path d="M172.4375 58.55078c0 .792969-.644531 1.4375-1.441406 1.4375-.792969 0-1.4375-.644531-1.4375-1.4375 0-.796875.644531-1.441406 1.4375-1.441406.796875 0 1.441406.644531 1.441406 1.441406" class="d"/><path d="M1719.395 349.982188c0-7.929688-6.445313-14.375-14.414063-14.375-7.929687 0-14.375 6.445312-14.375 14.375 0 7.96875 6.445313 14.414062 14.375 14.414062 7.96875 0 14.414063-6.445312 14.414063-14.414062zm0 0" class="a"/></g><path d="M5.0625-7.32812c0-.4375-.4375-.78125-1.015625-.78125s-1.03125.25-1.46875.78125c-.359375.484375-.625 1.046875-.96875 2.21875H.5l-.0781.375H1.5L.4375.28125c-.265625 1.296875-.65625 1.9375-1.15625 1.9375-.140625 0-.234375-.078125-.234375-.1875 0-.046875.015625-.078125.046875-.125.046875-.078125.0625-.125.0625-.203125 0-.25-.21875-.453125-.46875-.453125s-.4375.21875-.4375.5c0 .40625.40625.71875.9375.71875 1.0625 0 1.890625-1.171875 2.390625-3.375L2.4375-4.73437h1.2969l.0781-.375H2.5156C2.875-7 3.3125-7.84375 3.984375-7.84375c.15625 0 .265625.0625.265625.15625 0 0-.015625.0625-.046875.109375-.0625.09375-.078125.15625-.078125.25 0 .28125.171875.484375.4375.484375.28125 0 .5-.21875.5-.484375zm0 0" id="a"/><path d="M9.1406-7.60937v-.20313h-2.375v.20313c.640625.0625.84375.1875.84375.546875 0 .1875-.296875 1.375-.875 3.421875l-.1562.59375c-.531275 1.95312-1.2969 2.76562-2.6094 2.76562-1 0-1.671875-.5625-1.671875-1.40625 0-.40625.359375-1.8125 1.171875-4.609375l.0625-.23437c.25-.828125.4375-1 1.25-1.078125v-.20313H1.5156v.20313c.8125.0625.9375.140625.9375.484375 0 .140625-.03125.328125-.09375.53125l-.625 2.29688C1.359375-2.984375 1.21875-2.25 1.21875-1.75c0 1.140625 1.09375 1.96875 2.609375 1.96875 1.5625 0 2.5625-.859375 3.078125-2.640625l1-3.40625c.453125-1.5625.5-1.625 1.234375-1.78125zm0 0" id="b"/><path d="M10.8281-7.60937v-.20313H8.625v.20313c.65625.0625.765625.140625.765625.46875 0 .203125-.078125.484375-.25.8125L6.9063-1.9375l-.4688-4.79687-.0156-.17187c0-.5.171875-.640625.8125-.703125V-7.8125H4.3907v.20313c.6875.015625.8125.109375.890625.6875l.1094.82813-2.0625 4.15625L2.8125-6.79687l-.0156-.15625c0-.46875.140625-.578125.875-.65625v-.20313H.8438v.20313c.390625.046875.5.078125.609375.171875.15625.140625.203125.34375.34375 1.46875L2.5313.21875h.2344l2.6563-5.4375h.0469l.6094 5.4375h.2342L9.9375-6.75c.3125-.609375.4375-.71875.890625-.859375zm0 0" id="k"/><path d="M4.375-1.14062l-.1875-.125c-.65625.703125-1.125.96875-1.71875.96875-.671875 0-1.078125-.5-1.078125-1.359375 0-1.015625.421875-2.078125 1.078125-2.796875.359375-.359375.828125-.5625 1.3125-.5625.265625 0 .4375.09375.4375.234375 0 .0625-.015625.125-.078125.234375-.078125.140625-.09375.21875-.09375.34375 0 .28125.171875.453125.453125.453125.34375 0 .578125-.234375.578125-.546875 0-.5625-.53125-.96875-1.25-.96875-1.796875 0-3.46875 1.734375-3.46875 3.609375C.359375-.53125 1 .125 2.109375.125c.90625 0 1.53125-.359375 2.265625-1.265625zm0 0" id="c"/><path d="M3.5313-8.57812c-1.734375 1.125-2.953125 3.0625-2.953125 5.5 0 2.234375 1.265625 4.484375 2.90625 5.5l.1563-.20312C2.0625.984375 1.609375-.46875 1.609375-3.109375c0-2.65625.484375-4.03125 2.03125-5.265625zm0 0" id="d"/><path d="M.4531-8.57812.3438-8.375C1.890625-7.140625 2.375-5.765625 2.375-3.109375 2.375-.46875 1.921875.984375.34375 2.21875l.1406.20313c1.65625-1.015625 2.921875-3.265625 2.921875-5.5 0-2.4375-1.21875-4.375-2.953125-5.5zm0 0" id="e"/><path d="M5.0313-2v-.5H.5469v.5zm0 0" id="l"/><path d="M3.4531 0v-.125c-.687475-.015625-.8281-.109375-.8281-.53125v-5.25l-.0781-.01562L.9688-5.125V-5c.109375-.046875.203125-.078125.234375-.109375.171875-.046875.3125-.09375.40625-.09375.171875 0 .25.140625.25.421875V-.8125c0 .28125-.0625.484375-.203125.5625-.125.078125-.25.109375-.625.125V0zm0 0" id="m"/></defs><use href="#j"/><use x="105.6" y="49.568" href="#a"/><use x="166.103" y="40.567" href="#b"/><use x="31.207" y="49.568" href="#k"/><use x="168.602" y="71.348" href="#a"/><use x="174.6274" y="71.348" href="#d"/><use x="179.2182" y="71.348" href="#c"/><use x="184.873" y="71.348" href="#e"/><use x="29.098" y="18.067" href="#a"/><use x="34.526" y="13.727" href="#l"/><use x="40.1019" y="13.727" href="#m"/><use x="45.581" y="18.067" href="#d"/><use x="49.6219" y="18.067" href="#b"/><use x="58.9469" y="18.067" href="#e"/><use x="36.15" y="72.068" href="#c"/><style>.a{fill:none;stroke:#000;stroke-linecap:butt;stroke-linejoin:miter;stroke-miterlimit:10;stroke-opacity:1;stroke-width:4.5;transform:matrix(.1,0,0,-.1,.498,93.549)}.b{fill:#e4e4e4;fill-opacity:1;fill-rule:evenodd}.c{fill:none;stroke:#000;stroke-dasharray:9,9;stroke-dashoffset:9;stroke-linecap:butt;stroke-linejoin:bevel;stroke-miterlimit:10;stroke-opacity:1;stroke-width:4.5;transform:matrix(.1,0,0,-.1,.498,93.549)}.d{fill:#000;fill-opacity:1;fill-rule:evenodd}</style></svg>