<svg xmlns="http://www.w3.org/2000/svg" width="263pt" height="87pt" viewBox="0 0 263 87"><defs><clipPath id="c"><path d="M0 0h263v86.55078H0zm0 0"/></clipPath><clipPath id="d"><path d="M144 15h40v36h-40zm0 0"/></clipPath><clipPath id="e"><path clip-rule="evenodd" d="M-.2344 86.55078h264v-87h-264zm150.8203-65.08203.543-.66016 7.3789 4.67969-6.6016-3.41797 4.1992 6.11719zm0 0"/></clipPath><clipPath id="f"><path d="M0 0h263v87H0z"/></clipPath><g id="g" clip-path="url(#f)"><path fill-rule="evenodd" fill="#e6e6e6" fill-opacity="1" d="M45.168 50.14844l-.4805-2.28125-.7812-2.27734-1.0195-2.16016-1.3203-2.10156-1.5-1.98047-1.6797-1.79687-1.8008-1.68359-1.8594-1.5-2.0391-1.37891-2.0391-1.25781-2.1016-1.14062-2.1016-1.01953-2.1602-.96094-2.1562-.96094-2.16-.89845-2.1016-.83984-2.1602-.90234-2.0391-.89844-2.0391-.96094-1.9219-1.01953-1.8594-1.14062-1.7422-1.14062-1.5586-1.32031-1.3789-1.31641-1.1406-1.44141-.8398-1.5-.5391-1.5-.1211-1.55859.3008-1.44141.8398-1.32031L2.8084 7.4297l1.4375-.83984L5.867 5.9297l1.8008-.53906 1.8008-.36328 1.7969-.23828 1.7422-.12109 1.6797.0625 1.5586.11719 1.5.17969 1.3828.30078 1.2578.35938 1.2617.36328 1.1367.47656 1.082.48047 1.1406.48047 1.0781.48047 1.1406.53906 1.2617.54297 1.3203.53906 1.4375.48047 1.6797.48047 1.8594.47656 2.1016.42188 2.3984.35938 2.7617.35938 3.0586.30078 3.4805.24219 3.9023.17969 4.2578.11719 4.6797.0625h4.9805l5.4023-.0625 5.5781-.11719 4.4414-.12109 4.4375-.17969 4.3203-.17969 4.2617-.24219 4.0781-.23828 3.9023-.30078 3.6602-.30078 3.418-.30078 3.1797-.35937 2.9414-.41797 2.6992-.35937 2.4609-.42187 2.2188-.41797 2.0391-.48047 1.8633-.48047 1.6797-.42187 1.5586-.48047 1.4414-.47656 1.3203-.48047 1.2581-.48053 1.1992-.53906 1.2031-.48047 1.1367-.42187 1.2031-.48047 1.2578-.48047 1.3203-.41797 1.4414-.42188 1.5-.41797 1.6797-.35937 1.8594-.36328 1.9805-.29688 2.2188-.24219 2.4023-.23828 2.6367-.12109 2.8828-.12109h6.418l3.6016.12109 3.7773.24219 3.9609.29687 4.1406.42188 4.1992.48047 4.2617.66016 4.2578.71875 4.801.96093 4.5625 1.14063 4.3789 1.13672 4.0781 1.20313 3.7813 1.19922 3.4805 1.19922 3.1797 1.14063 2.9414 1.14063 2.6367 1.01953 2.3398 1.01953 2.1602.96094 1.9219.89844 1.8008.83984 1.5586.83984 1.4414.72266 1.3789.77734 1.1992.72266 1.1992.65625 1.082.72266 1.0781.71875 1.0234.71875 2.0391 1.5625 1.0781.89844 1.0195.90234 1.082 1.01953 1.1406 1.14063 1.1407 1.19919 1.1367 1.25781 1.1406 1.44141 1.082 1.55859 1.0781 1.67969 1.0195 1.80078.9023 1.85938.7773 2.04297.543 2.03906.2383 2.16016-.0586 2.16016-.4219 2.16016-.7812 2.09766-1.0195 1.98047-1.2578 1.92188-1.3789 1.80078-1.4414 1.67969-1.5586 1.55859-1.5625 1.37891-1.5586 1.32031-1.5 1.19922-1.5625 1.08203-1.5 1.01953-1.4375.89844-1.4414.78125-1.3789.78125-1.3789.71875-1.3828.66016-1.3789.66016-1.3789.60156-1.4414.59766-1.4414.60156-1.5586.53906-1.6211.66016-1.7383.60156-1.8594.66016-1.9805.65625-2.1602.72266-2.3398.71875-2.582.78125-2.7578.77734-3 .84375-3.2422.83984-3.4766.83984-3.7227.77734-3.9609.78125-4.1367.71875-4.2617.66016-4.3789.48047-4.4414.35938-4.3203.17969h-4.2578l-4.0195-.05859-3.7812-.23828-3.4805-.30078-3.2383-.42187-2.9414-.48047-2.6406-.59766-2.3984-.60156-2.1016-.66016-1.8594-.71875-1.6797-.78125-1.5-.77734-1.3203-.78125-1.1992-.83984-1.082-.83984-2.0391-1.67969-.9609-.83984-1.0195-.83984-1.0781-.83984-1.1406-.90234-1.2617-.83984-1.3789-.78125-1.5586-.83984-1.7422-.77734-1.918-.78125-2.1602-.78125-2.3398-.66016-2.6406-.71875-2.8203-.60156-3.1211-.53906-3.2383-.48047-3.4219-.41797-3.5391-.35938-3.6016-.24219-3.5391-.11719h-4.918l-4.5.17969-3.9023.41797-3.3008.48047-2.6992.60156-2.0977.71875-1.5625.71875-1.0781.78125-.7227.78125-.3594.83984-.1172.83984v.83984l.1797.83984.1172.89844.1211.83984v.90234l-.1797.83984-.4805.89844-.7187.89844-1.1406.90234-1.5.83984-1.9219.83984-2.3398.83984-2.6992.71875-3.0586.66016-3.1797.53906-3 .36328-2.8828.29688-2.7578.18359-2.582.05859-2.3984.05859-2.1602.0625-1.918-.0625h-1.8008l-1.6211-.05859-1.4414-.05859-1.3203-.0625-1.2578-.12109-1.1406-.05859-1.0781-.12109-1.082-.11719-1.0781-.12109-1.082-.17969-1.0782-.17973-1.1406-.24219-1.1406-.35937-1.1992-.35938-1.1992-.42187-1.2031-.53906-1.1992-.66016-1.0781-.77734-.9609-.83984-.7812-1.02344-.418-1.07812-.0625-1.26172.3633-1.32031.6602-1.25781 1.0195-1.14062 1.1992-1.01953 1.4375-.89844 1.6211-.72266 1.6797-.59766 1.8008-.54297 1.8594-.35937 1.9219-.30078 1.918-.29687 1.9805-.24219 1.9219-.30078 1.918-.29687 1.9219-.36328 1.8594-.53906 1.8008-.66016 1.6797-.83984 1.5586-1.07812 1.4414-1.32031 1.1992-1.5625.9609-1.85937.6602-2.16016.2969-2.33984"/><g clip-path="url(#c)"><path d="M454.009688 364.005625l-4.804688 22.8125-7.8125 22.773438-10.195312 21.601562-13.203125 21.015625-15 19.804688-16.796875 17.96875-18.007813 16.835937-18.59375 15L329.205 535.607188l-20.390625 12.578125-21.015625 11.40625-21.015625 10.195312-21.601562 9.609375-21.5625 9.609375L202.0175 597.99l-21.015625 8.398438-21.601562 9.023437-20.390625 8.984375-20.390625 9.609375-19.21875 10.195313-18.59375 11.40625-17.421875 11.40625-15.585938 13.203125-13.789062 13.164062-11.40625 14.414063-8.398438 15-5.390625 15-1.210937 15.585937 3.007812 14.414063 8.398438 13.203125 11.40625 10.195312 14.375 8.398438 16.210937 6.601562 18.007813 5.390625 18.007812 3.632813 17.96875 2.382812 17.421875 1.210938 16.796875-.625 15.585938-1.171875 15-1.796875 13.828125-3.007813 12.578125-3.59375 12.617187-3.632812 11.367188-4.765625 10.820312-4.804688 11.40625-4.804687 10.78125-4.804688 11.40625-5.390625 12.617188-5.429687 13.203125-5.390625 14.375-4.804688 16.796875-4.804687 18.59375-4.765625 21.015625-4.21875 23.984375-3.59375 27.617187-3.59375 30.585938-3.007813 34.804687-2.421875 39.023438-1.796875 42.578125-1.171875 46.796875-.625H666.3925l54.023438.625 55.78125 1.171875 44.414062 1.210938 44.375 1.796875 43.203125 1.796875 42.617188 2.421875 40.78125 2.382812 39.023437 3.007813 36.601562 3.007812 34.179688 3.007813 31.796875 3.59375 29.414062 4.179687 26.992188 3.59375 24.609375 4.21875 22.1875 4.179688 20.390625 4.804687 18.632812 4.804688 16.796875 4.21875 15.585938 4.804687 14.414062 4.765625 13.203125 4.804688 12.578125 4.804687 11.992188 5.390625 12.03125 4.804688 11.367187 4.21875 12.03125 4.804687 12.578125 4.804688 13.203125 4.179687 14.414063 4.21875 15 4.179688 16.796875 3.59375 18.59375 3.632812 19.804687 2.96875 22.1875 2.421875 24.023438 2.382813 26.367187 1.210937 28.828125 1.210938h64.179688l36.015625-1.210938 37.773437-2.421875 39.609375-2.96875 41.40625-4.21875 41.992188-4.804687 42.617187-6.601563 42.578125-7.1875L2001.3925 822.99l45.625-11.40625 43.789062-11.367187 40.78125-12.03125 37.8125-11.992188 34.804688-11.992187 31.796875-11.40625 29.414062-11.40625 26.367188-10.195313 23.398437-10.195312 21.601563-9.609375 19.21875-8.984375 18.007812-8.398438 15.585938-8.398437 14.414062-7.226563 13.789063-7.773437 11.992187-7.226563 11.992188-6.5625 10.820312-7.226562 10.78125-7.1875 10.234375-7.1875 20.390625-15.625 10.78125-8.984375 10.195313-9.023438 10.820312-10.195312 11.40625-11.40625 11.40625-11.992188 11.367188-12.578125 11.40625-14.414062 10.820312-15.585938 10.78125-16.796875 10.195313-18.007812 9.023437-18.59375 7.773438-20.429688 5.429687-20.390625 2.382813-21.601562-.585938-21.601563-4.21875-21.601562-7.8125-20.976563-10.195312-19.804687-12.578125-19.21875-13.789063-18.007813L2564.205 271.58375l-15.585938-15.585937-15.625-13.789063-15.585937-13.203125-15-11.992187-15.625-10.820313-15-10.195312-14.375-8.984375-14.414063-7.8125-13.789062-7.8125-13.789063-7.1875-13.828125-6.601563-13.789062-6.601562-13.789063-6.015625-14.414062-5.976563-14.414063-6.015625-15.585937-5.390625-16.210938-6.601562-17.382812-6.015625-18.59375-6.601563-19.804688-6.5625-21.601562-7.226562-23.398438-7.1875-25.820312-7.8125-27.578125-7.773438-30-8.4375-32.421875-8.398437-34.765625-8.398438-37.226563-7.773437-39.609375-7.8125-41.367187-7.1875-42.617188-6.601563-43.789062-4.804687-44.414063-3.59375-43.203125-1.796875h-42.578125l-40.195312.585937-37.8125 2.382813L1614.400312 12.99l-32.382812 4.21875-29.414063 4.804688-26.40625 5.976562-23.984375 6.015625-21.015625 6.601563-18.59375 7.1875-16.796875 7.8125-15 7.773437-13.203125 7.8125-11.992187 8.398438L1394.790937 87.99l-20.390625 16.796875-9.609375 8.398438-10.195312 8.398437-10.78125 8.398438-11.40625 9.023437-12.617188 8.398438-13.789062 7.8125-15.585938 8.398437-17.421875 7.773438-19.179687 7.8125-21.601563 7.8125-23.398437 6.601562-26.40625 7.1875-28.203125 6.015625-31.210938 5.390625-32.382812 4.804688-34.21875 4.179687-35.390625 3.59375-36.015625 2.421875-35.390625 1.171875h-49.179687l-45-1.796875-39.023438-4.179687-33.007812-4.804688-26.992188-6.015625-20.976562-7.1875-15.625-7.1875-10.78125-7.8125-7.226563-7.8125-3.59375-8.398437-1.171875-8.398438v-8.398437l1.796875-8.398438 1.171875-8.984375 1.210938-8.398437v-9.023438l-1.796875-8.398437-4.804688-8.984375-7.1875-8.984375-11.40625-9.023438-15-8.398437-19.21875-8.398438-23.398437-8.398437-26.992188-7.1875-30.585937-6.601563-31.796875-5.390625-30-3.632812-28.828125-2.96875-27.578125-1.835938-25.820313-.585937-23.984375-.585938-21.601562-.625-19.179688.625h-18.007812l-16.210938.585938-14.414062.585937-13.203125.625-12.578125 1.210938-11.40625.585937-10.78125 1.210938-10.820313 1.171875-10.78125 1.210937-10.820312 1.796875L212.212813 42.99l-11.40625 2.421875-11.40625 3.59375-11.992188 3.59375-11.992187 4.21875-12.03125 5.390625-11.992188 6.601563-10.78125 7.773437-9.609375 8.398438-7.8125 10.234375-4.179687 10.78125-.625 12.617187 3.632812 13.203125 6.601563 12.578125 10.195312 11.40625 11.992188 10.195313 14.375 8.984375 16.210937 7.226562 16.796875 5.976563 18.007813 5.429687 18.59375 3.59375 19.21875 3.007813 19.179687 2.96875 19.804688 2.421875 19.21875 3.007812 19.179687 2.96875 19.21875 3.632813 18.59375 5.390625 18.007813 6.601562 16.796875 8.398438 15.585937 10.78125 14.414063 13.203125 11.992187 15.625 9.609375 18.59375 6.601563 21.601562 2.96875 23.398438zm0 0" style="fill:none;stroke-width:4.5;stroke-linecap:butt;stroke-linejoin:bevel;stroke:#000;stroke-opacity:1;stroke-dasharray:9,9;stroke-dashoffset:9;stroke-miterlimit:10;transform:matrix(.1,0,0,-.1,-.233,86.549)"/></g><path fill-rule="evenodd" fill="#d5d5d5" fill-opacity="1" d="M210.8281 45.28906c0 19.417969-15.742187 35.160157-35.160156 35.160157s-35.160157-15.742188-35.160157-35.160157c0-19.417968 15.742188-35.160156 35.160157-35.160156S210.8281 25.871092 210.8281 45.28906"/><path d="M2110.61125 412.599375c0-194.179687-157.421875-351.601562-351.601563-351.601562-194.179687 0-351.601562 157.421875-351.601562 351.601562 0 194.179688 157.421875 351.601563 351.601562 351.601563 194.179688 0 351.601563-157.421875 351.601563-351.601563zm0 0" style="fill:none;stroke-width:4.5;stroke-linecap:round;stroke-linejoin:bevel;stroke:#000;stroke-opacity:1;stroke-dasharray:9,9;stroke-dashoffset:9;stroke-miterlimit:10;transform:matrix(.1,0,0,-.1,-.233,86.549)"/><path fill-rule="evenodd" fill="#000" fill-opacity="1" d="M178.7266 44.44922c0 .859375-.699218 1.558593-1.558593 1.558593-.863281 0-1.5625-.699218-1.5625-1.558593 0-.863281.699219-1.558594 1.5625-1.558594.859375 0 1.558593.695313 1.558593 1.558594"/><path d="M1789.595625 420.997813c0-8.59375-6.992188-15.585938-15.585938-15.585938-8.632812 0-15.625 6.992188-15.625 15.585938 0 8.632812 6.992188 15.585937 15.625 15.585937 8.59375 0 15.585938-6.953125 15.585938-15.585937zm0 0" style="fill:none;stroke-width:4.5;stroke-linecap:round;stroke-linejoin:bevel;stroke:#000;stroke-opacity:1;stroke-miterlimit:10;transform:matrix(.1,0,0,-.1,-.233,86.549)"/><g clip-path="url(#d)"><g clip-path="url(#e)"><path d="M1774.009687 420.997813 1514.205 651.388438" class="a"/></g></g><path d="M1563.384687 583.615l-41.992187 61.171875 66.015625-34.179687" class="a"/></g><path d="M4.9688-1.23437l-.1562-.09375c-.109375.125-.15625.1875-.265625.328125-.28125.359375-.40625.46875-.5625.46875-.171875 0-.28125-.15625-.359375-.484375-.03125-.109375-.046875-.171875-.046875-.1875-.296875-1.125-.4375-1.765625-.4375-1.953125.53125-.921875.953125-1.453125 1.171875-1.453125.078125 0 .1875.046875.296875.109375.140625.078125.21875.09375.328125.09375.234375 0 .40625-.171875.40625-.421875 0-.265625-.203125-.4375-.484375-.4375-.53125 0-.96875.421875-1.8125 1.703125l-.125-.65625c-.171875-.8125-.296875-1.046875-.625-1.046875-.28125 0-.65625.09375-1.40625.34375l-.125.04688.0469.17188L1.0156-4.75c.234375-.0625.375-.078125.46875-.078125.296875 0 .375.109375.53125.828125l.3438 1.46875-.9687 1.39063C1.140625-.78125.90625-.5625.78125-.5625c-.078125 0-.203125-.03125-.3125-.109375C.3125-.75.1875-.78125.078125-.78125c-.234375 0-.40625.171875-.40625.40625 0 .3125.234375.5.609375.5.359375 0 .5-.09375 1.109375-.8125L2.4688-2.10937l.3594 1.4375c.140625.625.296875.796875.6875.796875.453125 0 .765625-.28125 1.453125-1.359375zm0 0" id="a"/><path d="M8.2188-7.60937v-.20313H6v.20313c.53125.0625.75.171875.75.40625 0 .21875-.21875.71875-.625 1.421875l-2.4531 4.25L2.875-6.82812c0-.0625 0-.109375 0-.171875 0-.40625.15625-.53125.921875-.609375v-.20313H.9063v.20313C1.578125-7.53125 1.609375-7.5 1.859375-6L2.875.21875h.2188l4.4531-7.35937c.203125-.3125.40625-.46875.671875-.46875zm0 0" id="h"/><path d="M6.4375-2.39062c0-.875-.359375-1.3125-1.5-1.8125.84375-.203125 1.1875-.34375 1.578125-.671875.328125-.28125.515625-.6875.515625-1.171875 0-1.140625-.84375-1.765625-2.390625-1.765625h-3.0937v.20313c.765625.0625.921875.140625.921875.484375 0 .1875-.046875.46875-.125.765625L.875-1.07812C.65625-.375.578125-.3125-.09375-.1875V0h3.375c1.875 0 3.15625-.96875 3.15625-2.390625zM5.1563-2.4375c0 1.296875-.890625 2.078125-2.34375 2.078125-.5 0-.765625-.171875-.765625-.5 0-.15625.140625-.71875.421875-1.671875l.375-1.42187c.75 0 1.265625.046875 1.5.140625.515625.1875.8125.71875.8125 1.375zm.6719-3.71875c0 1.234375-.8125 1.8125-2.453125 1.8125h-.4062l.7656-2.76562c.078125-.265625.21875-.34375.6875-.34375.96875 0 1.40625.40625 1.40625 1.296875zm0 0" id="i"/><path d="M2.3281-.07812c0-.984375-.6875-1.140625-.96875-1.140625-.296875 0-.6875.171875-.6875.6875 0 .484375.421875.609375.734375.609375.09375 0 .140625-.015625.1875-.03125s.07815-.01563.1094-.01563c.078125 0 .15625.046875.15625.15625 0 .234375-.1875.765625-.96875 1.265625l.0938.23438c.359375-.125 1.34375-.90625 1.34375-1.765625zm0 0" id="j"/><path d="M5.5156-7.17187c0-.375-.546875-.6875-1.515625-.6875s-1.73435.54687-1.73435 1.26562c0 .796875.8125 1.65625.8125 1.671875 0 0-2.859375.46875-2.859375 3.171875 0 .8125.421875 1.921875 1.625 1.921875 1.6875 0 3.046875-1.546875 3.046875-3.5 0-1.984375-2.171875-2.234375-2.171875-3.390625 0-.53125.625-.765625 1.015625-.765625 1.125 0 .875.6875 1.375.6875.25 0 .40625-.171875.40625-.375zm-1.5781 4.25c0 1.53125-1 2.796875-1.8125 2.796875-.671875 0-.90625-.921875-.90625-1.578125 0-2.765625 2.078125-2.96875 2.09375-2.96875 0 .015625.625.78125.625 1.75zm0 0" id="b"/><path d="M3.5313-8.57812c-1.734375 1.125-2.953125 3.0625-2.953125 5.5 0 2.234375 1.265625 4.484375 2.90625 5.5l.1563-.20312C2.0625.984375 1.609375-.46875 1.609375-3.109375c0-2.65625.484375-4.03125 2.03125-5.265625zm0 0" id="k"/><path d="M.4531-8.57812.3438-8.375C1.890625-7.140625 2.375-5.765625 2.375-3.109375 2.375-.46875 1.921875.984375.34375 2.21875l.1406.20313c1.65625-1.015625 2.921875-3.265625 2.921875-5.5 0-2.4375-1.21875-4.375-2.953125-5.5zm0 0" id="l"/></defs><use href="#g"/><use x="178.211" y="53.188" href="#a"/><use x="46.57" y="26.847" href="#h"/><use x="162.357" y="69.508" href="#i"/><use x="170.4985" y="69.508" href="#k"/><use x="174.9578" y="69.508" href="#a"/><use x="180.8397" y="69.508" href="#j"/><use x="186.1239" y="69.508" href="#b"/><use x="192.0179" y="69.508" href="#l"/><use x="165.178" y="30.987" href="#b"/><style>.a{fill:none;stroke:#000;stroke-linecap:butt;stroke-linejoin:miter;stroke-miterlimit:10;stroke-opacity:1;stroke-width:4.5;transform:matrix(.1,0,0,-.1,-.233,86.549)}</style></svg>