<svg xmlns="http://www.w3.org/2000/svg" width="230pt" height="150pt" viewBox="0 0 230 150"><defs><path d="M4.2344-1.1406l-.0938-.2344-.1875.125c-.859375.5625-1.3125.765625-1.734375.765625-.671875 0-1.015625-.46875-1.015625-1.421875 0-1.265625.40625-2.5.984375-2.953125.25-.21875.546875-.3125.9375-.3125.53125 0 .96875.21875.96875.515625v.7188h.2656c.09375-.78125.1875-1.21875.296875-1.53125-.3125-.203125-.703125-.296875-1.15625-.296875-.53125 0-1.390625.421875-2.0625 1.015625C.75-4.140625.296875-2.90625.296875-1.625c0 1.140625.5 1.75 1.453125 1.75.65625 0 1.21875-.234375 1.890625-.765625zm0 0" id="g"/><path d="M4.8594-1.0156l-.0937-.25c-.078125.078125-.09375.078125-.15625.125-.375.328125-.5625.4375-.734375.4375-.125 0-.1875-.09375-.1875-.28125 0-.0625 0-.09375.015625-.125L4.8125-5.6406l-.125-.1094-.3906.2188c-.46875-.1875-.703125-.234375-1.015625-.234375-.34375 0-.578125.0625-.90625.21875-.75.375-1.125.734375-1.4375 1.3125C.421875-3.171875.046875-1.75.046875-.78125c0 .5.1875.90625.40625.90625.25 0 .6875-.25 1.140625-.625.515625-.4375.984375-1 1.640625-1.9375l-.3437 1.5156c-.046875.21875-.0625.421875-.0625.609375 0 .28125.09375.4375.28125.4375.265625 0 .765625-.328125 1.75-1.140625zM3.8125-4.9531c-.265625 1.28125-.484375 1.90625-.890625 2.515625-.65625 1-1.40625 1.734375-1.796875 1.734375-.140625 0-.21875-.15625-.21875-.484375 0-.765625.3125-2.09375.734375-3.078125.28125-.6875.578125-.90625 1.15625-.90625.28125 0 .5.046875 1.015625.21875zm0 0" id="c"/><path d="M2.6094-1.2969l-.1719-.1718c-.328125.109375-.53125.171875-1.171875.359375C1.1875-.203125.890625.578125.1875 1.71875l.1719.1406.4844-.2344c.96875-1.25 1.421875-2 1.765625-2.921875zm0 0" id="d"/><path d="M4.9375-8.6094c-.203125-.09375-.546875-.15625-.84375-.15625-.125 0-.3125.046875-.40625.09375-.296875.125-1.265625.859375-1.546875 1.140625-.265625.265625-.40625.625-.53125 1.296875l-.1875.9531C.9375-5.046925.6875-4.953175.390625-4.8438l-.0625.2656h.9688l-.1094.672C.828125-1.578125.390625.640625.125 1.46875c-.21875.703125-.5625 1.078125-1 1.078125-.265625 0-.421875-.078125-.625-.34375L-1.6562 2.25c-.046875.265625-.21875.84375-.28125.953125.109375.0625.28125.09375.421875.09375.484375 0 1.140625-.375 1.59375-.9375C.8125 1.5 1.0625.6875 1.953125-3.53125c.0625-.296875.15625-.65625.21875-1.046875h1.25c.046875-.234375.125-.5.203125-.671875l-.0469-.0781-.0937.0156c-.28125.09375-.40625.09375-1 .09375h-.1875l.25-1.3437c.1875-1.03125.53125-1.484375 1.078125-1.484375.359375 0 .671875.1875.859375.46875l.125-.0469zm0 0" id="e"/><path d="M5.1719-4.5c0-.453125-.109375-.921875-.25-1.09375-.07815-.109375-.2344-.171875-.4219-.171875-.28125 0-.640625.09375-.96875.265625-.609375.328125-1.015625.6875-1.75 1.625l1.0313-4.75-.1406-.1406c-.625.3125-1.0625.421875-1.921875.5l-.0469.25h.5781c.28125 0 .40625.09375.40625.296875 0 .078125-.015625.21875-.03125.28125L.4531-.8437c-.0156.0312-.0156.078075-.0156.109325 0 .46875.578125.859375 1.234375.859375.4375 0 1.046875-.21875 1.5625-.59375 1.15625-.8125 1.9375-2.453125 1.9375-4.03125zm-.8594.2969c0 .765625-.25 1.78125-.609375 2.5625-.390625.8281-.875 1.2031-1.515625 1.2031-.546875 0-.84375-.265625-.84375-.765625 0-.296875.046875-.640625.15625-1.078125.21875-.953125.515625-1.53125.984375-2.03125.390625-.40625 1.015625-.75 1.359375-.75.3125 0 .46875.265625.46875.859375zm0 0" id="f"/><path d="M3.6406-9.0312C1.8125-7.84375.71875-5.796875.71875-3.234375c0 2.34375 1.140625 4.578125 2.875 5.78125L3.75 2.3438C2.09375.90625 1.8125-.484375 1.8125-3.28125 1.8125-6.0625 2.125-7.5 3.75-8.828125zm0 0" id="a"/><path d="M.5-9.0312l-.125.2031C2.015625-7.5 2.328125-6.0625 2.328125-3.28125c0 2.796875-.28125 4.1875-1.953125 5.625l.1563.2031c1.75-1.203125 2.890625-3.4375 2.890625-5.78125C3.421875-5.796875 2.3125-7.84375.5-9.03125zm0 0" id="b"/></defs><path d="M40 411.601562h2160.039062" class="a"/><path d="M3.7461 105.8516h.6016v6h-.6016zm0 0"/><path d="M75.75 105.8516h.6016v6H75.75zm0 0"/><path d="M147.75 105.8516h.6016v6h-.6016zm0 0"/><path d="M219.75 105.8516h.6016v6h-.6016zm0 0"/><path d="M40 51.601562v1440" class="a"/><path d="M.9883 144.4922h6v.6016h-6zm0 0"/><path d="M.9883 108.4922h6v.6016h-6zm0 0"/><path d="M.9883 72.4922h6v.6016h-6zm0 0"/><path d="M.9883 36.4922h6v.6016h-6zm0 0"/><path d="M.9883.4883h6v.6016h-6zm0 0"/><g style="stroke-width:3.985;stroke:#000;stroke-miterlimit:10;transform:matrix(.1,0,0,-.1,0,150)"><g fill="none"><path d="M244.960938 1058.632812 965 1418.671875"/><path d="M40 195.585938 2200.039062 1275.625"/></g><path d="M624.921875 1238.671875c0 10.976563-8.90625 19.921875-19.921875 19.921875s-19.921875-8.945312-19.921875-19.921875c0-11.015625 8.90625-19.960937 19.921875-19.960937s19.921875 8.945312 19.921875 19.960937zm0 0"/><g fill="none"><path d="M605 1238.671875v-29.570313"/><path d="M605 1150.039062v-29.53125"/><path d="M605 1120.507812v-29.53125"/><path d="M605 1031.875v-29.53125"/><path d="M605 1002.34375V972.8125"/><path d="M605 913.75v-29.570312"/><path d="M605 884.179688V854.6875"/><path d="M605 795.585938v-29.53125"/><path d="M605 766.054688v-29.53125"/><path d="M605 677.460938v-29.570313"/><path d="M605 647.890625v-29.53125"/><path d="M605 559.296875v-29.53125"/><path d="M605 529.765625v-29.53125"/><path d="M605 441.132812v-29.53125"/></g></g><use x="57.9789" y="118.584" href="#g"/><use x="5.993" y="137.3043" href="#a"/><use x="10.5532" y="137.3043" href="#c"/><use x="16.793" y="137.3043" href="#d"/><use x="23.8731" y="137.3043" href="#e"/><use x="29.393" y="137.3043" href="#a"/><use x="33.9531" y="137.3043" href="#c"/><use x="39.8332" y="137.3043" href="#b"/><use x="43.9133" y="137.3043" href="#b"/><use x="176.0112" y="21.3323" href="#a"/><use x="180.2112" y="21.3323" href="#f"/><use x="186.6913" y="21.3323" href="#d"/><use x="193.7714" y="21.3323" href="#e"/><use x="199.2913" y="21.3323" href="#a"/><use x="203.4913" y="21.3323" href="#f"/><use x="209.6112" y="21.3323" href="#b"/><use x="213.6913" y="21.3323" href="#b"/><path d="M40 195.585938l53.984375 179.0625 54.023437 159.6875 54.023438 141.25 53.984375 123.75L310 906.484375l53.984375 91.445313 54.023437 76.640624 54.023438 62.8125 53.984375 49.84375L580 1225l53.984375 26.640625 54.023437 16.40625 54.023438 7.109375 53.984375-1.289062L850 1265.078125l54.023438-15.390625 53.984374-21.054688 54.023438-25.78125 53.984375-29.648437 54.023437-32.578125 53.984376-34.609375 53.984374-35.742187 54.023438-35.9375 53.984375-35.195313 54.023437-33.59375 53.984376-31.09375 53.984374-27.617187 54.023438-23.28125 53.984375-17.96875 54.023437-11.875 53.984376-4.726563 53.984374 3.28125 54.023438 12.148437 53.984375 21.992188 54.023437 32.734375 53.984376 44.335937 53.984374 56.914063 54.023438 70.390625 53.984375 84.765625 54.023437 100.078125" style="fill:none;stroke-width:7.9701;stroke:#000;stroke-miterlimit:10;transform:matrix(.1,0,0,-.1,0,150)"/><style>.a{fill:none;stroke:#000;stroke-miterlimit:10;stroke-width:3.985;transform:matrix(.1,0,0,-.1,0,150)}</style></svg>