<svg xmlns="http://www.w3.org/2000/svg" width="167pt" height="122pt" viewBox="0 0 167 122"><defs><path d="M3.5313-8.5781C1.796925-7.4531.578175-5.5156.578175-3.0781c0 2.234375 1.265625 4.484375 2.90625 5.5l.1563-.2031C2.0625.984375 1.609375-.46875 1.609375-3.109375c0-2.65625.484375-4.03125 2.03125-5.265625zm0 0" id="a"/><path d="M.4531-8.5781.3438-8.375C1.890625-7.140625 2.375-5.765625 2.375-3.109375 2.375-.46875 1.921875.984375.34375 2.21875l.1406.2031c1.65625-1.015625 2.921875-3.265625 2.921875-5.5 0-2.4375-1.21875-4.375-2.953125-5.5zm0 0" id="b"/><path d="M4.7031 0v-.1719c-.9375-.015625-1.125-.140625-1.125-.71875V-8.0625l-.0937-.0156L1.3281-7v.1719c.140625-.0625.28125-.109375.328125-.125.203125-.09375.40625-.140625.53125-.140625.25 0 .359375.1875.359375.5625v5.4219c0 .390625-.09375.671875-.28125.78125-.1875.09375-.359375.140625-.859375.15625V0zm0 0" id="e"/><path d="M5.6719-1.6406l-.1562-.0625c-.4375.6875-.59375.796875-1.125.796875H1.5313l2-2.1094C4.609375-4.125 5.0625-5.03125 5.0625-5.96875c0-1.1875-.96875-2.109375-2.203125-2.109375-.65625 0-1.28125.265625-1.71875.734375C.75-6.9375.578125-6.546875.375-5.703125l.25.0625c.46875-1.171875.90625-1.5625 1.734375-1.5625 1 0 1.6875.6875 1.6875 1.6875 0 .9375-.5625 2.046875-1.5625 3.109375l-2.125 2.2656V0h4.6563zm0 0" id="f"/><path d="M5.1563-2.625c0-.609375-.1875-1.171875-.53125-1.53125-.234375-.265625-.46875-.40625-.984375-.640625.8125-.5625 1.109375-1 1.109375-1.640625 0-.96875-.75-1.640625-1.859375-1.640625-.59375 0-1.125.203125-1.546875.578125-.359375.328125-.546875.640625-.8125 1.359375l.1875.0469C1.203125-6.96875 1.75-7.359375 2.5-7.359375c.78125 0 1.3125.515625 1.3125 1.28125 0 .421875-.171875.859375-.484375 1.15625-.359375.359375-.6875.53125-1.5.828125v.1563c.703125 0 .984375.015625 1.265625.125.75.265625 1.203125.9375 1.203125 1.765625 0 1-.671875 1.78125-1.5625 1.78125-.3125 0-.5625-.078125-1-.375C1.375-.84375 1.171875-.9375.96875-.9375c-.28125 0-.453125.171875-.453125.421875 0 .421875.515625.6875 1.34375.6875.921875 0 1.875-.3125 2.4375-.8125C4.859375-1.125 5.15625-1.8125 5.15625-2.625zm0 0" id="g"/><path d="M5.6406-2v-.7656H4.4219v-5.3125h-.5312l-3.75 5.3125V-2H3.5v2h.9219v-2zm-2.1562-.7656H.625l2.8594-4.0937zm0 0" id="h"/><path d="M2.3281-.0781c0-.984375-.6875-1.140625-.96875-1.140625-.296875 0-.6875.171875-.6875.6875 0 .484375.421875.609375.734375.609375.09375 0 .140625-.015625.1875-.03125s.07815-.01565.1094-.01565c.078125 0 .15625.046875.15625.15625 0 .234375-.1875.765625-.96875 1.265625l.0938.2344c.359375-.125 1.34375-.90625 1.34375-1.765625zm0 0" id="c"/><path d="M2.1563-.5156c0-.375-.296875-.671875-.65625-.671875S.8438-.8906.8438-.5156C.84375-.0625 1.25.125 1.5.125s.65625-.203125.65625-.640625zm0 0" id="d"/></defs><use x="-.393" y="8.788" href="#a"/><use x="4.0663" y="8.788" href="#e"/><use x="10.0439" y="8.788" href="#c"/><use x="15.1607" y="8.788" href="#e"/><use x="21.1383" y="8.788" href="#b"/><use x="47.033" y="8.788" href="#a"/><use x="51.4923" y="8.788" href="#e"/><use x="57.4699" y="8.788" href="#c"/><use x="62.5867" y="8.788" href="#f"/><use x="68.5643" y="8.788" href="#b"/><use x="94.459" y="8.788" href="#a"/><use x="98.9183" y="8.788" href="#e"/><use x="104.8959" y="8.788" href="#c"/><use x="110.0127" y="8.788" href="#g"/><use x="115.9903" y="8.788" href="#b"/><use x="141.885" y="8.788" href="#a"/><use x="146.3443" y="8.788" href="#e"/><use x="152.3219" y="8.788" href="#c"/><use x="157.4387" y="8.788" href="#h"/><use x="163.4163" y="8.788" href="#b"/><use x="-.393" y="45.401" href="#a"/><use x="4.0663" y="45.401" href="#f"/><use x="10.0439" y="45.401" href="#c"/><use x="15.1607" y="45.401" href="#e"/><use x="21.1383" y="45.401" href="#b"/><use x="47.033" y="45.401" href="#a"/><use x="51.4923" y="45.401" href="#f"/><use x="57.4699" y="45.401" href="#c"/><use x="62.5867" y="45.401" href="#f"/><use x="68.5643" y="45.401" href="#b"/><use x="94.459" y="45.401" href="#a"/><use x="98.9183" y="45.401" href="#f"/><use x="104.8959" y="45.401" href="#c"/><use x="110.0127" y="45.401" href="#g"/><use x="115.9903" y="45.401" href="#b"/><use x="148.427" y="38.427" href="#d"/><use x="153.139" y="41.416" href="#d"/><use x="157.85" y="44.405" href="#d"/><use x="-.393" y="82.014" href="#a"/><use x="4.0663" y="82.014" href="#g"/><use x="10.0439" y="82.014" href="#c"/><use x="15.1607" y="82.014" href="#e"/><use x="21.1383" y="82.014" href="#b"/><use x="47.033" y="82.014" href="#a"/><use x="51.4923" y="82.014" href="#g"/><use x="57.4699" y="82.014" href="#c"/><use x="62.5867" y="82.014" href="#f"/><use x="68.5643" y="82.014" href="#b"/><use x="101.001" y="75.04" href="#d"/><use x="105.713" y="78.029" href="#d"/><use x="110.424" y="81.018" href="#d"/><use x="-.393" y="118.627" href="#a"/><use x="4.0663" y="118.627" href="#h"/><use x="10.0439" y="118.627" href="#c"/><use x="15.1607" y="118.627" href="#e"/><use x="21.1383" y="118.627" href="#b"/><use x="53.575" y="111.653" href="#d"/><use x="58.287" y="114.641" href="#d"/><use x="62.998" y="117.63" href="#d"/><g style="fill:none;stroke-width:.6695;stroke:#000;stroke-miterlimit:10"><path d="M-52.207031 54.938156h8.894531" class="a"/><path stroke-linecap="round" stroke-linejoin="round" d="M-3.481658 4.016101C-2.844939 1.605945-1.42697.469226-.00118875 4.7625e-4-1.42697-.468274-2.844939-1.604993-3.481658-4.015149" transform="matrix(1 0 0 -1 40.52072 5.71532)"/><path d="M-36.917969 44.742844-57.453125 28.891281" class="a"/><path stroke-linecap="round" stroke-linejoin="round" d="M-3.481594 4.018628C-2.845444 1.607875-1.429003.470069-9.52387e-4-6.11866e-4-1.427971-.468366-2.843977-1.605902-3.480665-4.016168" transform="matrix(-.79155 .61102 .61102 .79155 25.78087 31.96591)"/><path d="M10.507812 44.742844-10.027344 28.891281" class="a"/><path stroke-linecap="round" stroke-linejoin="round" d="M-3.480898 4.018091C-2.844749 1.607338-1.428307.469532-2.56741e-4-.00114885-1.427276-.468902-2.843281-1.606439-3.479969-4.016705" transform="matrix(-.79155 .61102 .61102 .79155 73.20753 31.96591)"/><path d="M57.933594 44.742844 37.398438 28.891281" class="a"/><path stroke-linecap="round" stroke-linejoin="round" d="M-3.480195 4.017548C-2.844045 1.606795-1.427604.468989 4.46822e-4-.00169195-1.426572-.469446-2.84567-1.604596-3.479266-4.017248" transform="matrix(-.79155 .61102 .61102 .79155 120.6342 31.96591)"/><path d="M-52.207031 25.625656 4.15625 47.391281" class="a"/><path stroke-linecap="round" stroke-linejoin="round" d="M-3.483751 4.015961C-2.843377 1.607872-1.428877.46698-.00139757-5.37657e-4-1.429311-.466681-2.845524-1.607353-3.48266-4.016221" transform="matrix(.93282 -.36024 -.36024 -.93282 87.96986 13.13962)"/><path d="M-36.917969 8.129562-57.453125-7.722" class="a"/><path stroke-linecap="round" stroke-linejoin="round" d="M-3.48152 4.018724C-2.84537 1.607971-1.428929.470165-8.78294e-4-5.1588e-4-1.427897-.46827-2.843903-1.605806-3.480591-4.016072" transform="matrix(-.79155 .61102 .61102 .79155 25.78087 68.57907)"/><path d="M10.507812 8.129562-10.027344-7.722" class="a"/><path stroke-linecap="round" stroke-linejoin="round" d="M-3.480824 4.018187C-2.844674 1.607434-1.428233.469628-1.82647e-4-.00105287-1.427202-.468807-2.843207-1.606343-3.479895-4.016609" transform="matrix(-.79155 .61102 .61102 .79155 73.20753 68.57907)"/><path d="M-52.207031-8.550125 51.613281 44.906906" class="a"/><path stroke-linecap="round" stroke-linejoin="round" d="M-3.481407 4.018957C-2.845984 1.609096-1.428523.470656-.00142244-4.82447e-4-1.429156-.469309-2.845585-1.607432-3.480357-4.017996" transform="matrix(.88902 -.45773 -.45773 -.88902 135.4112 15.59267)"/><path d="M-36.917969-28.483719-57.453125-44.335281" class="a"/><path stroke-linecap="round" stroke-linejoin="round" d="M-3.481458 4.018804C-2.845308 1.608051-1.428867.470245-8.16421e-4-4.35728e-4-1.427835-.468189-2.843841-1.605726-3.480529-4.015992" transform="matrix(-.79155 .61102 .61102 .79155 25.78087 105.19225)"/></g><style>.a{transform:matrix(1,0,0,-1,83.5,60.653)}</style></svg>