<svg xmlns="http://www.w3.org/2000/svg" width="463pt" height="148pt" viewBox="0 0 463 148"><defs><clipPath id="l"><path d="M.0508 144H218v1H.0508zm0 0"/></clipPath><clipPath id="m"><path d="M.0508 141H2v6.5508H.0508zm0 0"/></clipPath><clipPath id="n"><path d="M108 141h2v6.5508h-2zm0 0"/></clipPath><clipPath id="o"><path d="M216 141h2v6.5508h-2zm0 0"/></clipPath><clipPath id="p"><path d="M.0508 36H98v111.5508H.0508zm0 0"/></clipPath><clipPath id="q"><path d="M120 36h98.0508v111.5508H120zm0 0"/></clipPath><clipPath id="r"><path d="M86 136h18v11.5508H86zm0 0"/></clipPath><clipPath id="s"><path d="M114 136h18v11.5508h-18zm0 0"/></clipPath><clipPath id="t"><path d="M91 137h16v10.5508H91zm0 0"/></clipPath><clipPath id="u"><path d="M112 137h15v10.5508h-15zm0 0"/></clipPath><clipPath id="v"><path d="M94 138h14v9.5508H94zm0 0"/></clipPath><clipPath id="w"><path d="M110 138h14v9.5508h-14zm0 0"/></clipPath><clipPath id="x"><path d="M96 138h13v9.5508H96zm0 0"/></clipPath><clipPath id="y"><path d="M109 138h13v9.5508h-13zm0 0"/></clipPath><clipPath id="z"><path d="M97 138h13v9.5508H97zm0 0"/></clipPath><clipPath id="A"><path d="M108 138h13v9.5508h-13zm0 0"/></clipPath><clipPath id="B"><path d="M98 138h13v9.5508H98zm0 0"/></clipPath><clipPath id="C"><path d="M107 138h13v9.5508h-13zm0 0"/></clipPath><clipPath id="D"><path d="M99 138h12v9.5508H99zm0 0"/></clipPath><clipPath id="E"><path d="M107 138h12v9.5508h-12zm0 0"/></clipPath><clipPath id="F"><use href="#a"/></clipPath><clipPath id="G"><use href="#b"/></clipPath><clipPath id="H"><use href="#a"/></clipPath><clipPath id="I"><use href="#b"/></clipPath><clipPath id="J"><path d="M100 138h12v9.5508h-12zm0 0"/></clipPath><clipPath id="K"><use href="#c"/></clipPath><clipPath id="L"><use href="#d"/></clipPath><clipPath id="M"><use href="#c"/></clipPath><clipPath id="N"><use href="#d"/></clipPath><clipPath id="O"><use href="#e"/></clipPath><clipPath id="P"><use href="#d"/></clipPath><clipPath id="Q"><use href="#e"/></clipPath><clipPath id="R"><use href="#f"/></clipPath><clipPath id="S"><use href="#g"/></clipPath><clipPath id="T"><use href="#f"/></clipPath><clipPath id="U"><use href="#g"/></clipPath><clipPath id="V"><use href="#f"/></clipPath><clipPath id="W"><use href="#g"/></clipPath><clipPath id="X"><use href="#f"/></clipPath><clipPath id="Y"><use href="#g"/></clipPath><clipPath id="Z"><use href="#f"/></clipPath><clipPath id="a0"><use href="#g"/></clipPath><clipPath id="a1"><use href="#h"/></clipPath><clipPath id="a2"><use href="#g"/></clipPath><clipPath id="a3"><use href="#h"/></clipPath><clipPath id="a4"><use href="#i"/></clipPath><clipPath id="a5"><use href="#h"/></clipPath><clipPath id="a6"><use href="#i"/></clipPath><clipPath id="a7"><use href="#h"/></clipPath><clipPath id="a8"><use href="#i"/></clipPath><clipPath id="a9"><use href="#h"/></clipPath><clipPath id="aa"><use href="#i"/></clipPath><clipPath id="ab"><use href="#j"/></clipPath><clipPath id="ac"><use href="#i"/></clipPath><clipPath id="ad"><use href="#j"/></clipPath><clipPath id="ae"><use href="#i"/></clipPath><clipPath id="af"><use href="#j"/></clipPath><clipPath id="ag"><use href="#k"/></clipPath><clipPath id="ah"><use href="#j"/></clipPath><clipPath id="ai"><use href="#k"/></clipPath><clipPath id="aj"><use href="#j"/></clipPath><clipPath id="ak"><use href="#k"/></clipPath><clipPath id="al"><use href="#j"/></clipPath><clipPath id="am"><use href="#k"/></clipPath><clipPath id="an"><path d="M.0508 0H8v9H.0508zm0 0"/></clipPath><clipPath id="ao"><path d="M.0508 1H11v15H.0508zm0 0"/></clipPath><clipPath id="ap"><path d="M.0508 3H12v15H.0508zm0 0"/></clipPath><clipPath id="aq"><path d="M89 136h15v11.5508H89zm0 0"/></clipPath><clipPath id="ar"><path d="M92 137h15v10.5508H92zm0 0"/></clipPath><clipPath id="as"><path d="M100 138h15v9.5508h-15zm0 0"/></clipPath><clipPath id="at"><path d="M103 138h15v9.5508h-15zm0 0"/></clipPath><clipPath id="au"><path d="M111 137h15v10.5508h-15zm0 0"/></clipPath><clipPath id="av"><path d="M114 136h15v11.5508h-15zm0 0"/></clipPath><clipPath id="aw"><path d="M206 3h12.0508v15H206zm0 0"/></clipPath><clipPath id="ax"><path d="M207 1h11.0508v15H207zm0 0"/></clipPath><clipPath id="ay"><path d="M210 0h8.0508v9H210zm0 0"/></clipPath><clipPath id="az"><path d="M0 0h219v148H0z"/></clipPath><g id="aF" clip-path="url(#az)"><g clip-path="url(#l)"><path d="M9.997812 31.58375h2160.039063" class="a"/></g><g class="c"><path d="M.8008 141.4023h.6016v6H.8008zm0 0" clip-path="url(#m)"/><path d="M108.8008 141.4023h.6016v6h-.6016zm0 0" clip-path="url(#n)"/><path d="M216.8008 141.4023h.6016v6h-.6016zm0 0" clip-path="url(#o)"/></g><path d="M1090.036875 31.58375v1440.039063" class="a"/><g class="c"><path d="M106.0391 144.0391h6v.6016h-6zm0 0"/><path d="M106.0391.0391h6v.6015h-6zm0 0"/></g><g clip-path="url(#p)"><path d="M9.997812 1051.232188l6.054688-4.101563 6.054687-4.179687 6.054688-4.257813 6.054687-4.296875 6.054688-4.335937 6.054687-4.414063 6.054688-4.492187 6.054687-4.53125 6.054688-4.609375 6.054687-4.648438 6.054688-4.726562 6.054687-4.804688 6.054688-4.882812 6.054687-4.921875 6.054688-5 6.054687-5.078125 6.054688-5.15625 6.054687-5.195313 6.054688-5.3125 6.054687-5.390625 6.054688-5.46875 6.054687-5.507812 6.054688-5.625 6.054687-5.703125 6.054688-5.78125 6.015625-5.859375 6.09375-5.9375 6.054687-6.054688 6.054688-6.09375 6.054687-6.25 6.054688-6.289062 6.054687-6.40625 6.054688-6.484375 6.054687-6.5625 6.015625-6.71875 6.09375-6.757813 6.015625-6.875 6.054688-6.992187 6.054687-7.109375 6.054688-7.1875 6.054688-7.265625 6.054687-7.421875 6.054688-7.539063 6.054687-7.617187 6.09375-7.734375 6.054688-7.851563 6.054687-7.96875 6.015625-8.046875 6.09375-8.203125 6.015625-8.320312 6.09375-8.4375 6.015625-8.554688 6.054688-8.710937 6.054687-8.789063 6.054688-8.945312 6.054687-9.0625 6.054688-9.179688 6.054687-9.296875 6.054688-9.453125 6.054687-9.570312 6.054688-9.726563 6.054687-9.84375 6.054688-9.960937 6.054687-10.078125 6.054688-10.234375 6.054687-10.390625 6.054688-10.507813 6.054687-10.625 6.054688-10.742187 6.054687-10.898438 6.054688-11.054687 6.054687-11.132813 6.054688-11.289062 6.054687-11.40625 6.054688-11.523438L470.115 492.20875l6.054688-11.796875 6.054687-11.875 6.054688-11.992187 6.054687-12.109375 6.054688-12.1875 6.054687-12.304688 6.054688-12.382812 6.054687-12.460938 12.109375-25.15625 6.054688-12.695312 12.109375-25.46875 6.054687-12.8125 6.054688-12.773438L566.99 293.341563l12.109375-25.546875 6.054688-12.695313 6.054687-12.65625 6.054688-12.578125 6.054687-12.421875 6.054688-12.34375 6.054687-12.148437 6.054688-11.992188 6.054687-11.796875 6.054688-11.523437 6.054687-11.289063 6.054688-10.976562 6.054687-10.625 6.054688-10.273438 6.054687-9.84375 6.015625-9.414062 6.09375-8.945313 6.054688-8.398437 6.015625-7.8125 6.09375-7.226563 6.015625-6.5625 6.054687-5.859375 6.09375-5.117187 6.054688-4.375 6.015625-3.554688 6.09375-2.734375 6.015625-1.875 6.054687-.976562 6.054688-.195313 6.054687.898438 6.054688 1.640625 6.054687 2.539062 6.054688 3.359375 6.054687 4.101563 6.054688 4.765625L790.974375 54.24l6.054688 5.820313 6.054687 6.09375L809.1775 72.365l6.015625 6.132813 6.054688 5.820312L827.3025 89.5525l6.054688 4.375 6.054687 3.28125 6.054688 1.914063 6.054687.351562L857.575938 97.99l6.054687-3.359375 6.054688-5.234375L875.74 82.404063l6.054688-8.476563 6.054687-9.375 6.054688-9.648437 6.054687-9.0625 6.054688-7.5 6.054687-5 6.054688-1.757813" class="a"/></g><g clip-path="url(#q)"><path d="M1261.911875 31.58375l6.054688 1.757813 6.054687 5 6.054688 7.5 6.054687 9.0625 6.054688 9.648437 6.054687 9.375 6.054688 8.476563 6.054687 6.992187 6.054688 5.234375L1322.45875 97.99l6.054688 1.484375 6.054687-.351562 6.054688-1.914063 6.054687-3.28125 6.015625-4.375 6.09375-5.234375 6.054688-5.820312 6.015625-6.132813 6.054687-6.210937 6.09375-6.09375L1389.02125 54.24l6.09375-5.351562 6.015625-4.765625 6.054688-4.101563 6.09375-3.359375 6.015625-2.539062 6.054687-1.640625 6.054688-.898438 6.054687.195313 6.09375.976562 6.015625 1.875 6.054688 2.734375 6.054687 3.554688 6.054688 4.375 6.054687 5.117187 6.054688 5.859375 6.054687 6.5625 6.054688 7.226563 6.054687 7.8125 6.054688 8.398437 6.054687 8.945313 6.054688 9.414062 6.054687 9.84375 6.054688 10.273438 6.054687 10.625 6.054688 10.976562 6.054687 11.289063 6.054688 11.523437 6.054687 11.796875 6.054688 11.992188 6.054687 12.148437 6.054688 12.34375 6.054687 12.421875 6.054688 12.578125 6.054687 12.65625 6.054688 12.695313 12.109375 25.546875 6.054687 12.851562 6.054688 12.773438 6.054687 12.8125 12.109375 25.46875 6.054688 12.695312 12.109375 25.15625 6.054687 12.460938 6.054688 12.382812 6.054687 12.304688 6.054688 12.1875 6.054687 12.109375 6.054688 11.992187 6.054687 11.875 6.054688 11.796875 6.054687 11.640625 6.054688 11.523438 6.054687 11.40625 6.054688 11.289062 6.054687 11.132813 6.054688 11.054687 6.054687 10.898438 6.054688 10.742187 6.015625 10.625 6.09375 10.507813 6.015625 10.390625 6.09375 10.234375 6.054687 10.078125 6.054688 9.960937 6.015625 9.84375 6.054687 9.726563 6.09375 9.570312 6.054688 9.453125 6.054687 9.296875 6.054688 9.179688 6.054687 9.0625 6.015625 8.945312 6.09375 8.789063 6.015625 8.710937 6.09375 8.554688 6.015625 8.4375 6.09375 8.320312 6.015625 8.203125 6.054688 8.046875 6.054687 7.96875 6.054688 7.851563 6.054687 7.734375 6.054688 7.617187 6.09375 7.539063 6.015625 7.421875 6.054687 7.265625 6.054688 7.1875 6.054687 7.109375 6.054688 6.992187 6.054687 6.875 6.054688 6.757813 6.054687 6.71875 6.054688 6.5625 6.054687 6.484375 6.054688 6.40625 6.054687 6.289062 6.054688 6.25 6.054687 6.09375 6.054688 6.054688 6.054687 5.9375 6.054688 5.859375 6.054687 5.78125 6.054688 5.703125 6.054687 5.625 6.054688 5.507812 6.054687 5.46875 6.054687 5.390625 6.054688 5.3125 6.054687 5.195313 6.054688 5.15625 6.054687 5.078125 6.054688 5 6.054687 4.921875 6.054688 4.882812 6.054687 4.804688L2109.49 1007.365l6.054687 4.648438 6.054688 4.609375 6.054687 4.53125 6.054688 4.492187 6.054687 4.414063 6.054688 4.335937 6.054687 4.296875 6.054688 4.257813 6.054687 4.179687 6.054688 4.101563" class="a"/></g><g clip-path="url(#r)"><path d="M918.122813 31.58375l2.070312.234375 2.03125.585938 2.03125.976562 2.070313 1.40625 2.03125 1.640625 2.03125 1.953125 2.070312 2.1875 2.03125 2.304688 2.03125 2.34375 2.070313 2.34375 2.03125 2.1875 2.070312 1.953125 2.03125 1.601562 2.03125 1.210938 2.070313.664062 2.03125.117188 2.070312-.507813 2.03125-1.132812 2.070313-1.71875 2.03125-2.265625 2.03125-2.695313 2.03125-2.929687 2.070312-3.085938 2.03125-2.929687 2.070313-2.617188 2.03125-2.03125 2.03125-1.328125 2.070312-.46875" class="a"/></g><g clip-path="url(#s)"><path d="M1204.607188 31.58375l2.070312.46875 2.03125 1.328125 2.03125 2.03125 2.03125 2.617188 2.070313 2.929687 2.03125 3.085938 2.070312 2.929687 2.03125 2.695313 2.03125 2.265625 2.070313 1.71875 2.03125 1.132812 2.070312.507813 2.03125-.117188 2.03125-.664062 2.070313-1.210938 2.03125-1.601562 2.070312-1.953125 2.03125-2.1875 2.03125-2.34375 2.070313-2.34375 2.03125-2.304688 2.070312-2.1875 2.03125-1.953125 2.03125-1.640625 2.070313-1.40625 2.03125-.976562 2.03125-.585938 2.070312-.234375" class="a"/></g><g clip-path="url(#t)"><path d="M975.4275 31.58375l1.015625.117188 1.015625.351562 1.015625.546875 1.054688.78125 1.015625.898438 1.015625 1.09375 1.015625 1.132812 1.015625 1.25 1.015625 1.210938 1.054687 1.210937 1.015625 1.054688 1.015625.9375 1.015625.742187 1.015625.46875 1.054688.234375 1.015625-.117187 1.015625-.390625 1.015625-.703125 1.015625-.976563 1.054687-1.210937 1.015625-1.367188L997.9275 37.365l1.015625-1.445312 1.054688-1.40625 1.015625-1.210938 1.015625-.898437 1.015625-.585938 1.015625-.234375" class="a"/></g><g clip-path="url(#u)"><path d="M1175.974375 31.58375l1.015625.234375 1.015625.585938 1.015625.898437 1.015625 1.210938 1.015625 1.40625 1.054688 1.445312 1.015625 1.484375 1.015625 1.367188 1.015625 1.210937 1.054687.976563 1.015625.703125 1.015625.390625 1.015625.117187 1.015625-.234375 1.054688-.46875 1.015625-.742187 1.015625-.9375 1.015625-1.054688 1.054687-1.210937 1.015625-1.210938 1.015625-1.25 1.015625-1.132812 1.015625-1.09375 1.015625-.898438 1.015625-.78125 1.054688-.546875 1.015625-.351562 1.015625-.117188" class="a"/></g><g clip-path="url(#v)"><path d="M1004.060313 31.58375l.625.078125.625.234375.585937.351563.625.46875.625.585937.625.664063.585938.742187 1.25 1.484375.585937.742188.625.625.625.546875.625.390625.585938.273437.625.078125.625-.117187.585937-.273438.625-.46875.625-.625.625-.742187.585938-.820313.625-.859375.585937-.898437.625-.78125.625-.664063.625-.546875.585938-.351562.625-.117188" class="a"/></g><g clip-path="url(#w)"><path d="M1158.786875 31.58375l.585938.117188.625.351562.625.546875.625.664063.585937.78125.625.898437.585938.859375.625.820313.625.742187.625.625.585937.46875.625.273438.625.117187.625-.078125.585938-.273437.625-.390625.625-.546875.585937-.625 1.875-2.226563.585938-.742187.625-.664063.625-.585937.585937-.46875.625-.351563.625-.234375.625-.078125" class="a"/></g><g clip-path="url(#x)"><path d="M1021.247813 31.58375h.429687l.390625.234375.429688.234375.390625.3125.429687.429688.390625.429687.429688.507813.390625.507812.429687.507813.390625.46875.429688.429687.390625.351563.429687.273437.390625.117188.390625.039062.429688-.078125.390625-.195312.429687-.351563.390625-.429687.429688-.46875.390625-.546875.429687-.625.390625-.546875.429688-.507813.390625-.429687.429687-.351563.390625-.234375.429688-.078125" class="a"/></g><g clip-path="url(#y)"><path d="M1147.3025 31.58375l.429688.078125.390625.234375.429687.351563.390625.429687.390625.507813.429688.546875.429687.625.390625.546875.390625.46875.429688.429687.390625.351563.429687.195312.429688.078125.390625-.039062.390625-.117188.429687-.273437.390625-.351563.429688-.429687.390625-.46875.429687-.507813.390625-.507812.429688-.507813.390625-.429687.429687-.429688.390625-.3125.429688-.234375.390625-.234375h.429687" class="a"/></g><g clip-path="url(#z)"><path d="M1032.732188 31.58375h.273437l.3125.15625.273438.195313.273437.234375.625.625.273438.351562.3125.390625.546875.703125.3125.273438.273437.273437.3125.15625.3125.078125.273438.039063.273437-.078125.3125-.15625.273438-.234375.3125-.3125.273437-.351563.3125-.390625.273438-.429687.3125-.390625.273437-.351563.3125-.3125.273438-.234375.3125-.234375h.273437" class="a"/></g><g clip-path="url(#A)"><path d="M1139.138438 31.58375h.273437l.3125.234375.273438.234375.273437.3125.3125.351563.3125.390625.273438.429687.273437.390625.3125.351563.3125.3125.273438.234375.273437.15625.3125.078125.273438-.039063.3125-.078125.273437-.15625.3125-.273437.273438-.273438.3125-.351562.273437-.351563.3125-.390625.273438-.351562.3125-.3125.273437-.3125.3125-.234375.273438-.195313.3125-.15625h.273437" class="a"/></g><g clip-path="url(#B)"><path d="M1040.89625 31.58375h.234375l.195313.117188.234375.15625.234375.195312.195312.195313.234375.273437.195313.273438.46875.546875.195312.234375.429688.429687.234375.117188.234375.078125h.195312l.234375-.078125.234375-.117188.429688-.429687.195312-.273438.234375-.273437.234375-.3125.195313-.273438.234375-.3125.234375-.195312.195312-.195313.234375-.15625h.234375" class="a"/></g><g clip-path="url(#C)"><path d="M1132.966563 31.58375h.234375l.234375.15625.195312.195313.234375.195312.234375.3125.195313.273438.234375.3125.195312.273437.234375.273438.429688.429687.234375.117188.234375.078125h.195312l.234375-.078125.195313-.117188.234375-.195312.195312-.234375.234375-.234375.46875-.546875.195313-.273438.234375-.273437.195312-.195313.234375-.195312.195313-.15625.234375-.117188h.234375" class="a"/></g><g clip-path="url(#D)"><path d="M1047.068125 31.58375h.15625l.46875.351563.390625.390625.15625.195312.15625.234375.15625.195313.195313.195312.15625.195313.195312.117187.15625.117188.15625.039062h.195313l.15625-.039062.15625-.117188.195312-.15625.15625-.15625.195313-.234375.15625-.195312.15625-.273438.195312-.195312.15625-.234375.195313-.15625.15625-.15625.15625-.117188h.15625" class="a"/></g><g clip-path="url(#E)"><path d="M1128.200938 31.58375h.195312l.15625.117188.15625.15625.195313.15625.15625.234375.15625.195312.195312.273438.15625.195312.15625.234375.195313.15625.15625.15625.195312.117188.15625.039062h.15625l.195313-.039062.3125-.234375.195312-.195313.15625-.195312.195313-.195313.15625-.234375.15625-.195312.195312-.195313.15625-.195312.195313-.117188.3125-.234375h.15625" class="a"/></g><g clip-path="url(#F)"><path d="M1051.794688 31.58375h.15625l.15625.078125.234375.234375.15625.117188.15625.15625.117187.195312.117188.15625.15625.195313.390625.390625.15625.078125.15625.039062h.117187l.117188-.039062.15625-.117188.117187-.117187.15625-.117188.15625-.15625.234375-.390625.15625-.195312.390625-.390625.15625-.117188h.117188" class="a"/></g><g clip-path="url(#G)"><path d="M1124.372813 31.58375h.15625l.117187.117188.15625.117187.273438.273438.117187.195312.15625.195313.117188.195312.273437.273438.15625.117187.117188.117188.15625.039062h.117187l.15625-.039062.15625-.078125.117188-.117188.117187-.15625.15625-.117187.15625-.195313.117188-.15625.117187-.195312.273438-.273438.15625-.117187.117187-.117188.15625-.078125h.117188" class="a"/></g><g clip-path="url(#H)"><path d="M1055.622813 31.58375l.390625.195313.390625.429687.390625.46875.390625.234375.390625-.15625.78125-.9375.390625-.234375" class="a"/></g><g clip-path="url(#I)"><path d="M1121.286875 31.58375l.390625.234375.390625.46875.351563.46875.429687.15625.390625-.234375.351563-.46875.390625-.429687.390625-.195313" class="a"/></g><g clip-path="url(#J)"><path d="M1058.747813 31.58375l.351562.15625.625.78125.351563.195313.3125-.15625.3125-.390625.351562-.390625.3125-.195313" class="a"/></g><g clip-path="url(#K)"><path d="M1118.669688 31.58375l.3125.195313.351562.390625.3125.390625.3125.15625.3125-.195313.351563-.390625.3125-.390625.351562-.15625" class="a"/></g><g clip-path="url(#L)"><path d="M1061.365 31.58375l.273438.15625.546875.625.273437.15625.273438-.078125.546875-.703125.273437-.15625" class="a"/></g><g clip-path="url(#M)"><path d="M1116.443125 31.58375l.273438.15625.3125.351563.273437.351562.273438.078125.273437-.15625.546875-.625.273438-.15625" class="a"/></g><g clip-path="url(#N)"><path d="M1063.5525 31.58375l.234375.117188.234375.273437.273438.3125.234375.117188.234375-.117188.234375-.273437.234375-.3125.234375-.117188" class="a"/></g><g clip-path="url(#O)"><path d="M1114.568125 31.58375l.234375.117188.234375.3125.234375.273437.234375.117188.234375-.117188.234375-.3125.273438-.273437.195312-.117188" class="a"/></g><g clip-path="url(#P)"><path d="M1065.466563 31.58375l.195312.117188.390625.46875.234375.117187.195313-.078125.195312-.234375.195313-.273437.234375-.117188" class="a"/></g><g clip-path="url(#Q)"><path d="M1112.9275 31.58375l.195313.117188.234375.273437.195312.234375.195313.078125.195312-.117187.234375-.234375.195313-.234375.195312-.117188" class="a"/></g><g clip-path="url(#R)"><path d="M1067.107188 31.58375l.15625.117188.195312.195312.15625.195313.195313.117187.15625-.078125.195312-.195312.195313-.234375.15625-.117188" class="a"/></g><g clip-path="url(#S)"><path d="M1111.482188 31.58375l.195312.117188.195313.234375.15625.195312.195312.078125.15625-.117187.195313-.195313.15625-.195312.195312-.117188" class="a"/></g><g clip-path="url(#T)"><path d="M1068.513438 31.58375l.195312.078125.117188.195313.195312.195312.15625.078125.15625-.078125.117188-.15625.195312-.195312.15625-.117188" class="a"/></g><g clip-path="url(#U)"><path d="M1110.232188 31.58375l.15625.117188.15625.195312.15625.15625.15625.078125.15625-.078125.3125-.390625.15625-.078125" class="a"/></g><g clip-path="url(#V)"><path d="M1069.8025 31.58375h.117188l.15625.234375.117187.195313.15625.039062.15625-.039062.117188-.15625.15625-.195313.117187-.078125" class="a"/></g><g clip-path="url(#W)"><path d="M1109.138438 31.58375l.117187.078125.117188.195313.15625.15625.15625.039062.117187-.039062.15625-.195313.15625-.234375h.117188" class="a"/></g><g clip-path="url(#X)"><path d="M1070.89625 31.58375h.15625l.117188.234375.117187.117188.117188.078125.15625-.039063.117187-.15625.117188-.234375h.117187" class="a"/></g><g clip-path="url(#Y)"><path d="M1108.122813 31.58375h.117187l.117188.234375.117187.15625.117188.039063.15625-.078125.117187-.117188.117188-.234375h.15625" class="a"/></g><g clip-path="url(#Z)"><path d="M1071.911875 31.58375h.117188l.117187.195313.117188.15625.117187.039062.117188-.039062.117187-.117188.078125-.234375h.15625" class="a"/></g><g clip-path="url(#a0)"><path d="M1107.185313 31.58375h.117187l.117188.234375.117187.117188.117188.039062.117187-.039062.117188-.15625.117187-.195313h.117188" class="a"/></g><g clip-path="url(#a1)"><path d="M1072.849375 31.58375h.078125l.117188.195313.078125.117187.117187.039063.117188-.039063.078125-.117187.117187-.195313h.078125" class="a"/></g><g clip-path="url(#a2)"><path d="M1106.365 31.58375h.117188l.117187.195313.078125.117187.117188.039063.117187-.039063.078125-.117187.117188-.195313h.078125" class="a"/></g><g clip-path="url(#a3)"><path d="M1073.630625 31.58375h.117188l.078125.15625.078125.117188.117187.078125.078125-.039063.117188-.117187.078125-.195313h.078125" class="a"/></g><g clip-path="url(#a4)"><path d="M1105.622813 31.58375h.117187l.078125.195313.117188.117187.078125.039063.195312-.195313.078125-.15625h.078125" class="a"/></g><g clip-path="url(#a5)"><path d="M1074.372813 31.58375h.117187l.078125.15625.078125.117188.078125.039062.078125-.039062.078125-.117188.117188-.15625h.078125" class="a"/></g><g clip-path="url(#a6)"><path d="M1104.95875 31.58375h.078125l.078125.15625.078125.117188.117188.039062.078125-.039062.078125-.117188.078125-.15625h.078125" class="a"/></g><g clip-path="url(#a7)"><path d="M1075.075938 31.58375h.078125l.078125.15625.078125.078125.078125.039063.078125-.039063.078125-.078125.078125-.15625h.078125" class="a"/></g><g clip-path="url(#a8)"><path d="M1104.33375 31.58375h.078125l.078125.15625.078125.078125.078125.039063.078125-.039063.078125-.078125.078125-.15625h.078125" class="a"/></g><g clip-path="url(#a9)"><path d="M1075.700938 31.58375h.078125l.039062.117188.078125.117187.078125.039063.078125-.039063.15625-.234375h.039063" class="a"/></g><g clip-path="url(#aa)"><path d="M1103.786875 31.58375h.039063l.15625.234375.078125.039063.078125-.039063.078125-.117187.039062-.117188h.078125" class="a"/></g><g clip-path="url(#ab)"><path d="M1076.247813 31.58375h.078125l.078125.117188.117187.117187h.078125l.039063-.117187.078125-.117188h.078125" class="a"/></g><g clip-path="url(#ac)"><path d="M1103.24 31.58375h.078125l.078125.117188.039063.117187h.078125l.117187-.117187.078125-.117188h.078125" class="a"/></g><g clip-path="url(#ad)"><path d="M1076.794688 31.58375h.039062l.078125.117188.039063.078125.078125.039062.078125-.039062.039062-.078125.078125-.117188h.039063" class="a"/></g><g clip-path="url(#ae)"><path d="M1102.732188 31.58375h.078125l.078125.117188.039062.078125.078125.039062.117188-.117187.039062-.117188h.078125" class="a"/></g><g clip-path="url(#af)"><path d="M1077.263438 31.58375h.078125l.039062.117188.117188.117187.078125-.039062.039062-.078125.078125-.117188h.039063" class="a"/></g><g clip-path="url(#ag)"><path d="M1102.3025 31.58375h.039063l.078125.117188.039062.078125.078125.039062.117188-.117187.039062-.117188h.039063" class="a"/></g><g clip-path="url(#ah)"><path d="M1077.732188 31.58375h.039062l.078125.117188.039063.039062.078125.039063.078125-.078125.078125-.117188h.039062" class="a"/></g><g clip-path="url(#ai)"><path d="M1101.872813 31.58375h.039062l.078125.117188.078125.078125.078125-.039063.039063-.039062.039062-.117188h.078125" class="a"/></g><g clip-path="url(#aj)"><path d="M1078.161875 31.58375h.039063l.078125.078125.039062.078125.039063.039063.039062-.039063.078125-.039062.039063-.117188h.039062" class="a"/></g><g clip-path="url(#ak)"><path d="M1101.482188 31.58375h.039062l.039063.117188.078125.039062.039062.039063.039063-.039063.039062-.078125.078125-.078125h.039063" class="a"/></g><g clip-path="url(#al)"><path d="M1078.5525 31.58375h.039063l.039062.078125.078125.078125h.078125l.078125-.15625h.078125" class="a"/></g><g clip-path="url(#am)"><path d="M1101.091563 31.58375h.039062l.078125.078125.039063.078125h.078125l.039062-.078125.078125-.078125h.039063" class="a"/></g><g clip-path="url(#an)"><path d="M9.997812 1471.622813l8.984375-22.8125" class="a"/></g><g clip-path="url(#ao)"><path d="M36.99 1403.224375l9.023437-22.8125" class="a"/></g><g clip-path="url(#ap)"><path d="M46.013437 1380.411875l8.984375-22.773437" class="a"/></g><g class="a"><path d="M73.005625 1312.013438l8.984375-22.8125"/><path d="M81.99 1289.200938l9.023437-22.773438"/><path d="M108.982187 1220.8025l9.023438-22.773437"/><path d="M118.005625 1198.029063l8.984375-20.390625"/><path d="M144.997812 1136.818125l8.984375-20.390625"/><path d="M153.982187 1116.4275l9.023438-20.429687"/><path d="M181.013437 1055.216563l8.984375-20.390625"/><path d="M189.997812 1034.825938l8.984375-20.390625"/><path d="M217.029062 973.615l8.984375-20.390625"/><path d="M226.013437 953.224375l8.984375-18.007812"/><path d="M253.005625 899.200938l9.023438-18.007813"/><path d="M262.029063 881.193125l8.984375-17.96875"/><path d="M288.982188 827.20875l9.023437-18.007812"/><path d="M298.005625 809.200938l9.023438-18.007813"/><path d="M324.997813 755.216563l8.984375-18.007813"/><path d="M333.982188 737.20875l13.515625-23.398437"/><path d="M374.529063 667.013438 388.005625 643.615"/><path d="M388.005625 643.615l13.476563-23.398437"/><path d="M428.513438 573.419688l13.515625-23.398438"/><path d="M442.029063 550.02125l13.476562-19.804687"/><path d="M482.497813 490.607188l13.515625-19.804688"/><path d="M496.013438 470.8025l13.515625-19.804687"/><path d="M536.482188 411.388438l13.515625-19.765625"/><path d="M549.997813 391.622813l13.515625-16.210938"/><path d="M590.505625 342.99l13.476563-16.171875"/><path d="M603.982188 326.818125l13.515625-16.210937"/><path d="M644.529063 278.185313l13.476562-16.171875"/><path d="M658.005625 262.013438l13.515625-12.617188"/><path d="M698.513438 224.200938l13.515625-12.617188"/><path d="M712.029063 211.58375l13.476562-12.578125"/><path d="M752.497813 173.810313l13.515625-12.617188"/><path d="M766.013438 161.193125l13.515625-8.984375"/><path d="M806.52125 134.200938l13.476563-8.984375"/><path d="M819.997813 125.216563l13.515625-9.023438"/><path d="M860.505625 98.185313l13.515625-8.984375"/><path d="M874.02125 89.200938l26.992188-10.820313"/></g><g clip-path="url(#aq)"><path d="M954.997813 56.818125l27.03125-10.820312" class="a"/></g><g clip-path="url(#ar)"><path d="M982.029063 45.997813l26.992187-3.59375" class="a"/></g><g clip-path="url(#as)"><path d="M1063.005625 35.216563l27.03125-3.632813" class="a"/></g><g clip-path="url(#at)"><path d="M1090.036875 31.58375l26.992188 3.632813" class="a"/></g><g clip-path="url(#au)"><path d="M1171.013438 42.404063l26.992187 3.59375" class="a"/></g><g clip-path="url(#av)"><path d="M1198.005625 45.997813l27.03125 10.820312" class="a"/></g><g class="a"><path d="M1279.02125 78.380625l26.992188 10.820313"/><path d="M1306.013438 89.200938l13.515625 8.984375"/><path d="M1346.52125 116.193125l13.515625 9.023438"/><path d="M1360.036875 125.216563l13.476563 8.984375"/><path d="M1400.505625 152.20875l13.515625 8.984375"/><path d="M1414.02125 161.193125l13.515625 12.617188"/><path d="M1454.529063 199.005625l13.476562 12.578125"/><path d="M1468.005625 211.58375l13.515625 12.617188"/><path d="M1508.513438 249.39625l13.515625 12.617188"/><path d="M1522.029063 262.013438l13.476562 16.171875"/><path d="M1562.536875 310.607188l13.476563 16.210937"/><path d="M1576.013438 326.818125 1589.529063 342.99"/><path d="M1616.52125 375.411875l13.515625 16.210938"/><path d="M1630.036875 391.622813l13.476563 19.765625"/><path d="M1670.505625 450.997813l13.515625 19.804687"/><path d="M1684.02125 470.8025l13.515625 19.804688"/><path d="M1724.529063 530.216563l13.476562 19.804687"/><path d="M1738.005625 550.02125l13.515625 23.398438"/><path d="M1778.513438 620.216563l13.515625 23.398437"/><path d="M1792.029063 643.615l13.476562 23.398438"/><path d="M1832.536875 713.810313l13.476563 23.398437"/><path d="M1846.013438 737.20875l9.023437 18.007813"/><path d="M1873.005625 791.193125l9.023438 18.007813"/><path d="M1882.029063 809.200938l8.984375 18.007812"/><path d="M1909.02125 863.224375l8.984375 17.96875"/><path d="M1918.005625 881.193125l9.023438 18.007813"/><path d="M1945.036875 935.216563l8.984375 18.007812"/><path d="M1954.02125 953.224375l8.984375 20.390625"/><path d="M1981.013438 1014.435313l9.023437 20.390625"/><path d="M1990.036875 1034.825938l8.984375 20.390625"/><path d="M2017.029063 1095.997813l8.984375 20.429687"/><path d="M2026.013438 1116.4275l9.023437 20.390625"/><path d="M2053.005625 1177.638438l9.023437 20.390625"/><path d="M2062.029062 1198.029063l8.984375 22.773437"/><path d="M2089.02125 1266.4275l8.984375 22.773438"/><path d="M2098.005625 1289.200938l9.023437 22.8125"/></g><g clip-path="url(#aw)"><path d="M2125.036875 1357.638438l8.984375 22.773437" class="a"/></g><g clip-path="url(#ax)"><path d="M2134.02125 1380.411875l8.984375 22.8125" class="a"/></g><g clip-path="url(#ay)"><path d="M2161.013437 1448.810313l9.023438 22.8125" class="a"/></g></g><clipPath id="aA"><path d="M1 73h217.9492v1H1zm0 0"/></clipPath><clipPath id="aB"><path d="M217 70h1.9492v7H217zm0 0"/></clipPath><clipPath id="aC"><path d="M.9492 40H99v97H.9492zm0 0"/></clipPath><clipPath id="aD"><path d="M121 10h97.9492v97H121zm0 0"/></clipPath><clipPath id="aE"><path d="M0 0h219v147H0z"/></clipPath><g id="aG" clip-path="url(#aE)"><g clip-path="url(#aA)"><path d="M9.992188 731.622813H2170.03125" class="b"/></g><g class="c"><path d="M1.6992 70.3984h.6016v6h-.6016zm0 0"/><path d="M109.6992 70.3984h.6016v6h-.6016zm0 0"/><path d="M217.6992 70.3984h.6016v6h-.6016zm0 0" clip-path="url(#aB)"/></g><path d="M1090.03125 11.58375v1440.039063" class="b"/><g class="c"><path d="M106.9375 145.0391h6v.6016h-6zm0 0"/><path d="M106.9375 109.0391h6v.6016h-6zm0 0"/><path d="M106.9375 73.0391h6v.6016h-6zm0 0"/><path d="M106.9375 37.0391h6v.6016h-6zm0 0"/><path d="M106.9375 1.0391h6v.6016h-6zm0 0"/></g><g clip-path="url(#aC)"><path d="M9.992188 549.122813l6.054687-2.5 6.054687-2.539063 12.109376-5.234375 6.054687-2.695312 6.054687-2.734375L52.375 530.64625l6.054688-2.8125 12.109374-5.78125 6.054688-2.96875 6.054688-3.007812 12.109374-6.171875 12.109376-6.40625 6.054687-3.28125 6.054687-3.320313 6.054688-3.359375 6.054688-3.4375 6.054687-3.515625 6.054687-3.554687 6.054688-3.59375 6.054688-3.671875 6.054687-3.75 6.054687-3.789063 6.054688-3.828125 12.109375-7.890625 12.109375-8.125 6.054688-4.179687 6.054687-4.21875 6.054687-4.296875 6.054688-4.375 6.054688-4.414063 6.054687-4.492187 6.054687-4.570313 6.054688-4.609375 6.015625-4.6875 6.09375-4.765625 6.054687-4.804687 6.015626-4.921875 6.09375-4.921875 6.054687-5.039063 6.054687-5.078125 6.054688-5.15625 6.054688-5.234375 6.054687-5.273437 6.054687-5.351563 6.054688-5.390625 6.054688-5.46875 6.015624-5.507812 6.09375-5.546875 6.015626-5.625 6.054687-5.664063 6.09375-5.703125 6.015625-5.78125 6.054688-5.78125 18.164062-17.578125 6.09375-5.898437 6.015625-5.9375 6.054687-5.898438 6.054688-5.9375 12.109375-11.796875 6.054687-5.859375 6.054688-5.820312 6.054688-5.78125 6.054687-5.742188 6.054687-5.625L458 220.099375l6.054688-5.46875 6.054687-5.273437 6.054687-5.195313 6.054688-5.039062 6.054688-4.84375 6.054687-4.648438 6.054687-4.375 6.054688-4.179687 6.054688-3.867188 6.054687-3.554687 6.054687-3.242188 6.054688-2.8125 6.054688-2.421875 6.054687-1.992187 6.054687-1.445313 6.054688-.9375 6.054688-.390625 6.054687.3125 6.054687.976563 6.054688 1.71875 6.054688 2.5 6.054687 3.398437 6.054687 4.296875 6.054688 5.273438 6.054688 6.328125 6.054687 7.460937 6.054687 8.671875 6.054688 9.921875 6.054688 11.289063 6.054687 12.695312 6.054687 14.21875L651.75 265.216563l6.054688 17.382812 6.054687 19.0625 6.054687 20.820313 6.054688 22.617187 6.054688 24.453125 6.054687 26.289063 6.054687 28.203125 6.054688 30 6.015625 31.796875 6.09375 33.554687 6.054687 35.117188 6.054688 36.640625 6.054688 37.851562 6.015624 38.867188 6.09375 39.53125L748.625 747.20875l6.015625 39.609375 6.054687 38.828125 6.09375 37.421875 6.015626 35.195313 6.09375 32.109375 6.015624 28.125 6.054688 22.96875 6.054688 16.796875 6.09375 9.414062 6.054687.742188 6.015625-8.984375 6.054688-19.765625 6.09375-31.328125 6.015624-43.320313 6.054688-55.273437 6.054688-66.484375 6.054687-75.976563 6.054687-82.734375 6.054688-85.351562 6.054688-82.5 6.054687-72.734375 6.054687-54.84375 6.054688-28.28125 6.054688 6.679687 6.054687 47.96875 6.054687 91.40625 6.054688 130.117188 6.054688 154.609375" class="b"/></g><g clip-path="url(#aD)"><path d="M1261.90625 731.622813l6.054688 154.609375 6.054687 130.117187 6.054687 91.367188 6.054688 47.96875 6.054688 6.679687 6.054687-28.242187 6.054687-54.882813 6.054688-72.734375 6.054688-82.5 6.054687-85.351562 6.054687-82.695313 6.054688-76.015625 6.054688-66.445312 6.054687-55.3125 6.054687-43.320313 6.054688-31.328125 6.054688-19.765625 6.015624-8.984375 6.09375.78125 6.054688 9.375 6.054688 16.796875 6.054687 23.007813 6.054687 28.085937 6.054688 32.109375 6.054688 35.234375 6.054687 37.382813 6.015625 38.828125 6.09375 39.609375 6.015625 39.804687 6.09375 39.53125 6.015625 38.867188 6.054688 37.890625 6.054687 36.601562 6.054687 35.15625 6.054688 33.515625 6.09375 31.796875 6.015625 30.039063 6.054687 28.125 6.09375 26.328125 6.015626 24.453125 6.09375 22.617187 6.015624 20.820313 6.054688 19.101562 6.054688 17.382813 6.054687 15.742187 6.054687 14.179688 6.054688 12.695312 6.054688 11.289063 6.09375 9.921875 6.015624 8.671875 6.054688 7.460937 6.054688 6.367188 6.054687 5.273437 6.054687 4.296875 6.054688 3.359375 6.054688 2.539063 6.054687 1.679687 6.054687.976563 6.054688.273437 6.054688-.3125 6.054687-.9375 6.054687-1.484375 6.054688-1.953125 6.054688-2.460937 6.054687-2.8125 6.054687-3.242188 6.054688-3.554687 6.054688-3.867188 6.054687-4.140625 6.054687-4.414062 6.054688-4.648438 6.054688-4.84375 6.054687-5 6.054687-5.195312 6.054688-5.3125 6.054688-5.46875 6.054687-5.546875 6.054687-5.625 12.109376-11.484375 6.054687-5.820313 24.21875-23.59375 6.054687-5.9375 18.164063-17.695312 6.054687-5.859375 12.109376-11.640625 6.054687-5.742188 6.054687-5.703125 6.054688-5.664062 6.054688-5.625 6.054687-5.585938 6.054687-5.507812 6.054688-5.46875 6.054688-5.390625 6.054687-5.351563 6.054687-5.273437 6.015626-5.195313 6.054687-5.15625 6.09375-5.117187 6.054687-5 6.054688-4.960938 6.054688-4.882812 6.015624-4.84375 6.054688-4.726563 6.09375-4.726562 6.015625-4.609375 6.054687-4.570313 6.054688-4.492187 6.054688-4.414063 6.054687-4.375 12.109375-8.515625 6.054688-4.140625 6.054687-4.101562 6.054687-4.0625 6.054688-3.945313 6.054688-3.90625 6.09375-3.867187 6.015624-3.789063 6.054688-3.75 12.109375-7.265625 6.054687-3.554687 6.054688-3.476563 6.054688-3.4375 6.054687-3.398437 6.054687-3.320313 6.054688-3.28125 6.054688-3.203125 6.054687-3.164062 6.054687-3.125 6.054688-3.085938 6.054688-3.007812 12.109374-5.859375 12.109376-5.703125 6.054687-2.773438 6.054687-2.734375 12.109376-5.3125 12.109374-5.15625 6.054688-2.5" class="b"/></g><g class="b"><path d="M918.117188 731.622813l2.070312 53.632812 2.03125 52.382813 2.03125 49.6875 2.070312 45.46875 2.03125 39.726562 2.03125 32.382813 2.070313 23.476562 2.03125 13.085938 2.070313 1.484375 2.03125-11.132813 2.03125-24.375 2.070312-37.734375 2.03125-50.585937 2.070312-62.265625 2.03125-72.070313 2.03125-79.023437 2.070313-82.382813 2.03125-81.40625 2.070313-75.429687 2.03125-64.023438 2.03125-47.148437 2.070312-25.15625 2.03125.976562 2.03125 29.765625 2.070312 58.945313 2.03125 85.78125 2.03125 106.914062 2.070313 119.023438"/><path d="M1204.601562 731.622813l2.070313 118.984375 2.03125 106.953125 2.03125 85.742187 2.070313 58.984375 2.03125 29.765625 2.070312.976563 2.03125-25.195313 2.03125-47.148437 2.070312-64.023438 2.03125-75.429687 2.03125-81.40625 2.070313-82.382813 2.03125-79.023437 2.03125-72.03125 2.070313-62.304688 2.03125-50.585937 2.070312-37.695313 2.03125-24.414062 2.03125-11.132813 2.070312 1.484375 2.03125 13.085938 2.070313 23.476562 2.03125 32.382813 2.03125 39.726562 2.070313 45.507813 2.03125 49.6875 2.070312 52.34375 2.03125 53.671875"/><path d="M975.421875 731.622813l1.015625 60.273437 1.015625 58.515625 1.015625 54.804688 1.054688 49.179687 1.015624 41.601563 1.015626 32.1875 1.015624 21.054687 1.015626 8.554688 1.015624-5.039063 1.054688-19.179687 1.015625-33.398438 1.015625-47.03125 1.015625-59.296875 1.015625-69.570312 1.054688-77.070313 1.015624-81.09375 1.015626-81.015625 1.054687-76.523437 1.015625-67.265625 1.015625-53.28125 1.015625-35.078125 1.015625-13.28125 1.054687 10.9375 1.015626 35.976562 1.015624 60.195313 1.015626 81.328125 1.015624 97.34375 1.015626 106.171875"/><path d="M1175.96875 731.622813l1.015625 106.132812L1178 935.138438l1.015625 81.328125 1.015625 60.15625 1.054688 36.015625 1.015624 10.898437 1.015626-13.28125 1.015624-35.078125 1.054688-53.28125 1.015625-67.265625 1.015625-76.484375 1.015625-81.054687 1.015625-81.09375 1.054688-77.03125 1.015624-69.609375 1.015626-59.296875 1.015624-46.992188 1.015626-33.398437 1.054687-19.21875 1.015625-5.039063 1.015625 8.554688 1.015625 21.054687 1.015625 32.1875 1.054687 41.601563 1.015626 49.179687 1.015624 54.804688 1.015626 58.515625 1.015624 60.3125"/><path d="M1004.054688 731.622813l.625 64.257812.625 62.148438.585937 57.695312.625 51.171875.625 42.34375.625 31.640625.585937 19.179688.625 5.429687.625-9.21875.625-24.0625.585938-38.632812.625-52.109375.625-63.789063.585938-72.96875.625-78.945312.625-81.210938.585937-79.257812.625-72.929688.625-62.148437.625-47.226563.585937-28.632812.625-7.421875.625 15.46875.585938 38.515625.625 60.117187.625 78.59375.625 92.304688.585938 99.6875"/><path d="M1158.78125 731.622813l.585938 99.6875.625 92.265625.625 78.59375.625 60.117187.585937 38.515625.625 15.46875.625-7.382812.585937-28.671875.625-47.226563.625-62.148437.625-72.929688.585938-79.257812.625-81.210938.625-78.945312.585938-72.96875.625-63.75.625-52.109375.625-38.632813.585937-24.101562.625-9.179688.625 5.390625.585937 19.179688.625 31.640625.625 42.382812.585938 51.132813.625 57.734375.625 62.109375.625 64.296875"/><path d="M1021.242188 731.622813l.429687 66.914062.390625 64.492188.429688 59.648437.390624 52.304688.429688 42.734375.390625 31.09375.429687 17.773437.390626 3.203125.429687-12.03125.390625-27.382812.429688-41.992188.390624-55.234375.429688-66.445312.390625-74.84375.390625-79.804688.429688-80.898437.390624-77.8125L1028.625 482.99l.429688-58.789062.390624-43.320313.390626-24.765625.429687-3.90625.429687 18.046875.390626 39.765625.390624 59.84375.429688 76.757813.390625 89.179687.429687 95.820313"/><path d="M1147.296875 731.622813l.429687 95.78125.390626 89.179687.429687 76.757813.390625 59.882812.429688 39.765625.390624 18.046875.429688-3.945312.390625-24.726563.429687-43.359375.390626-58.789062.429687-70.351563.390625-77.8125.429688-80.898437.390624-79.804688.429688-74.804687.390625-66.445313.390625-55.273437.429688-41.992188.429687-27.34375.390625-12.070312.390625 3.203125.429687 17.773437.390626 31.09375.429687 42.734375.390625 52.304688.429688 59.648437.390624 64.53125.429688 66.914063"/><path d="M1032.726562 731.622813l.3125 68.789062.273438 66.210938.273438 60.9375.3125 53.125.273437 42.929687.3125 30.625.273437 16.679688.3125 1.5625.273438-14.101563.3125-29.6875.273438-44.296875.273437-57.421875.3125-68.203125.3125-75.976562.273437-80.195313.3125-80.546875.273438-76.640625.273438-68.476562.3125-56.367188.273437-40.703125.3125-22.148437.273437-1.640625.3125 19.6875.3125 40.507812.273438 59.570313.273438 75.546875.3125 87.03125.273437 93.203125"/><path d="M1139.132812 731.622813l.273438 93.164062.3125 87.070313.273438 75.507812.3125 59.570313.273437 40.507812.3125 19.6875.273437-1.640625.3125-22.148437.273438-40.664063.3125-56.40625.273438-68.476562.3125-76.640625.273437-80.507813.273437-80.234375.3125-75.976562.273438-68.203125.3125-57.382813.3125-44.335937.273438-29.648438.273437-14.140625.3125 1.5625.273437 16.679688.3125 30.625.273438 42.929687.3125 53.125.273438 60.9375.3125 66.210938.273437 68.828125"/><path d="M1040.890625 731.622813l.234375 70.234375.234375 67.421875.195313 61.914062.234374 53.710938.195313 43.046875.234375 30.234375.195312 15.820312.234376.3125.234374-15.703125.234376-31.328125.195312-46.09375.234375-58.945312.195313-69.414063.234374-76.757812.195313-80.429688.234375-80.15625.234375-75.703125.195313-67.070312.234374-54.609375.234376-38.75.195312-20.234375.234375-.039063.234375 20.78125.195312 41.015625.234376 59.335938.195312 74.53125.234375 85.546875.234375 91.328125"/><path d="M1132.960938 731.622813l.234374 91.328125.234376 85.507812.195312 74.570313.234375 59.335937.234375 40.976563.195312 20.78125h.234376l.234374-20.273438.195313-38.75.234375-54.609375.195312-67.070312.234376-75.703125.234374-80.15625.195313-80.46875.234375-76.71875.234375-69.414063.195313-58.945312.234374-46.054688.195313-31.367187.234375-15.664063.234375.273438.195313 15.820312.234374 30.273438.195313 43.007812.234375 53.710938.195312 61.914062.234376 67.460938.234374 70.234375"/><path d="M1047.0625 731.622813l.15625 71.328125.15625 68.4375.15625 62.65625.195312 54.101562.15625 43.085938.195313 29.921875.15625 15.15625.15625-.703125.195313-16.875.15625-32.695313.15625-47.382812.195312-60.117188.195312-70.3125.15625-77.265625.15625-80.585937.15625-79.84375.15625-74.921875.195313-65.976563.195313-53.242187.15625-37.265625.15625-18.867188.15625 1.171875.195312 21.601563.15625 41.328125.195312 59.140625.15625 73.789062.15625 84.375.195313 89.960938"/><path d="M1128.195312 731.622813l.195313 89.921875.15625 84.375.15625 73.828125.195313 59.140625.15625 41.328125.15625 21.601562.195312 1.132813.15625-18.828125.195312-37.304688.15625-53.242187.195313-65.9375.15625-74.960938.15625-79.84375.195313-80.546875.15625-77.304687.15625-70.273438.195312-60.15625.15625-47.34375.15625-32.695312.195312-16.875.15625-.703125.15625 15.117187.195313 29.921875.15625 43.085938.195313 54.140625.15625 62.65625.15625 68.4375.15625 71.328125"/><path d="M1051.828125 731.622813l.117187 72.1875.15625 69.21875.117188 63.242187.15625 54.453125.117188 43.125.15625 29.648438.117187 14.570312.117187-1.523437.15625-17.851563.15625-33.75.117188-48.359375.15625-61.054687.117188-71.015625.15625-77.65625.117187-80.664063.15625-79.53125.117187-74.296875.15625-65.078125.117188-52.1875.15625-36.09375.117188-17.773437.15625 2.070312.117187 22.226563.15625 41.5625.117187 58.945312.117188 73.28125.15625 83.4375.15625 88.867188"/><path d="M1124.40625 731.622813l.117188 88.828125.117187 83.476562.15625 73.242188.117187 58.945312.15625 41.5625.117188 22.226563.15625 2.070312.117188-17.734375.15625-36.132812.117187-52.148438.15625-65.078125.15625-74.335937.117187-79.53125.117188-80.625.15625-77.695313.15625-71.015625.117188-61.054687.15625-48.359375.117187-33.75.15625-17.851563.117187-1.523437.117188 14.570312.15625 29.648438.117188 43.125.15625 54.453125.117187 63.242187.15625 69.21875.117187 72.226563"/><path d="M1055.65625 731.622813l.390625 235.117187.390625 112.734375.351562-78.320312.429688-237.617188.390625-267.382812.351563-134.0625.390624 94.6875.390626 274.84375"/><path d="M1121.28125 731.622813l.390625 274.84375.390625 94.6875.351562-134.101563.429688-267.34375.390625-237.65625.390625-78.320312.390625 112.734375.390625 235.15625"/><path d="M1058.742188 731.622813l.351562 236.796875.3125 112.226562.3125-80.625.351562-239.257812.3125-266.40625.3125-131.5625.351563 95.742187.3125 273.085938"/><path d="M1118.664062 731.622813l.3125 273.046875.351563 95.742187.3125-131.523437.3125-266.445313.351563-239.257812.3125-80.585938.3125 112.226563.351562 236.796875"/><path d="M1061.359375 731.622813l.273437 238.203125.273438 111.757812.3125-82.539062.234375-240.585938.273437-265.625.3125-129.414062.234376 96.640625.3125 271.5625"/><path d="M1116.476562 731.622813l.234376 271.523437.3125 96.679688.273437-129.453125.273437-265.585938.273438-240.625.273438-82.5.273437 111.757813.273437 238.203125"/><path d="M1063.585938 731.622813l.195312 239.375.273438 111.367187.234374-84.179687.234376-241.71875.234374-264.882813.234376-127.617187.234374 97.382812.234376 270.273438"/><path d="M1114.5625 731.622813l.234375 270.273437.234375 97.382813.234375-127.617188.234375-264.882812.234375-241.757813.234375-84.179687.273438 111.40625.234374 239.375"/><path d="M1065.460938 731.622813l.195312 240.390625.195312 111.054687.234376-85.625.195312-242.695312.195312-264.257813.195313-126.054687.234375 98.007812.195312 269.179688"/><path d="M1112.921875 731.622813l.234375 269.140625.195312 98.046875.195313-126.09375.195313-264.257813.195312-242.695312.234375-85.585938.195313 111.015625.195312 240.429688"/><path d="M1067.101562 731.622813l.15625 241.289062.195313 110.742188.195313-86.875.15625-243.515625.15625-263.710938.195312-124.726562.195312 98.554687.15625 268.242188"/><path d="M1111.515625 731.622813l.15625 268.203125.195313 98.554687.15625-124.726562.195312-263.710938.15625-243.515625.195312-86.875.195313 110.742188.15625 241.328125"/><path d="M1068.507812 731.622813l.195313 242.070312.15625 110.46875.15625-87.96875.15625-244.21875.15625-263.242187.15625-123.515625.15625 99.023437.15625 267.382813"/><path d="M1110.226562 731.622813l.15625 267.382812.195313 99.023438.117187-123.554688.15625-263.203125.15625-244.257812.15625-87.96875.195313 110.46875.15625 242.109375"/><path d="M1069.796875 731.622813l.117187 242.8125.15625 110.195312.15625-88.945312.117188-244.882813.15625-262.773437.117188-122.5.15625 99.453125.117187 266.640625"/><path d="M1109.132812 731.622813l.117188 266.601562.15625 99.453125.117188-122.5.15625-262.773437.117187-244.84375.15625-88.945313.15625 110.195313.117187 242.8125"/><path d="M1070.890625 731.622813l.15625 243.4375.117187 109.960937.117188-89.84375.117188-245.390625.15625-262.382812.117187-121.5625.117187 99.804687.117188 265.976563"/><path d="M1108.117188 731.622813l.117187 265.976562.117187 99.765625.117188-121.523437.15625-262.382813.117188-245.429687.117187-89.804688.117187 109.960938.15625 243.4375"/><path d="M1071.90625 731.622813l.117188 243.984375.117187 109.765625.117187-90.625.117188-245.898438.117188-261.992187.117187-120.742188.117187 100.117188.117188 265.390625"/><path d="M1107.21875 731.622813l.117188 265.351562.078124 100.117188.117188-120.703125.117188-261.992188.117187-245.9375.117187-90.625L1108 487.599375l.117188 244.023438"/><path d="M1072.84375 731.622813l.078125 244.492187.117187 109.570313.078126-91.328125.117187-246.367188.117187-261.640625.078126-120 .117187 100.429688.078125 264.84375"/><path d="M1106.398438 731.622813l.078124 264.84375.117188 100.390625.078125-119.960938.117187-261.679687.117188-246.367188.078125-91.328125.117187 109.570313.117188 244.53125"/><path d="M1073.625 731.622813l.117188 244.960937.078124 109.414063.117188-91.992188.078125-246.757812.078125-261.367188.117188-119.296875.078124 100.664063.117188 264.375"/><path d="M1105.65625 731.622813l.078125 264.375.078125 100.625.117188-119.296875.078124-261.328125.117188-246.796875.078125-91.953125.078125 109.375.117188 245"/><path d="M1074.40625 731.622813l.078125 245.390625.078125 109.21875.078125-92.539063.078125-247.148437.117188-261.09375.039062-118.632813.117188 100.859375.078124 263.945313"/><path d="M1104.953125 731.622813l.078125 263.90625.117188 100.898437.078124-118.671875.078126-261.09375.078124-247.109375.078126-92.578125.078124 109.21875.117188 245.429688"/><path d="M1075.070312 731.622813l.078126 245.78125.078124 109.0625.078126-93.085938.078124-247.460937.078126-260.820313.078124-118.085937.078126 101.09375.078124 263.515625"/><path d="M1104.328125 731.622813l.078125 263.515625.078125 101.09375.078125-118.085938.078125-260.859375.078125-247.460937.078125-93.085938.078125 109.101563.078125 245.78125"/><path d="M1075.695312 731.622813l.078126 246.132812.039062 108.945313.078125-93.59375.078125-247.773438.078125-260.585937.078125-117.578125.078125 101.289062.039063 263.164063"/><path d="M1103.78125 731.622813l.078125 263.125.039063 101.289062.078124-117.539062.078126-260.625.078124-247.773438.078126-93.59375L1104.25 485.49l.078125 246.132813"/><path d="M1076.242188 731.622813l.078124 246.445312.078126 108.828125.078124-94.0625.078126-248.046875.039062-260.351562.039062-117.109375.078126 101.484375.078124 262.8125"/><path d="M1103.234375 731.622813l.078125 262.8125.078125 101.445312.039063-117.109375.078124-260.351562.039063-248.046875.078125-94.0625.078125 108.828125.078125 246.484375"/><path d="M1076.789062 731.622813l.078126 246.757812.039062 108.710938.078125-94.492188.039063-248.320312.078124-260.15625.039063-116.640625.078125 101.640625.078125 262.5"/><path d="M1102.765625 731.622813l.039063 262.5.078124 101.601562.039063-116.640625L1103 718.9275l.039062-248.320312.078126-94.492188.078124 108.710938.039063 246.796875"/><path d="M1077.296875 731.622813l.039063 247.03125.039062 108.59375.078125-94.882813.039063-248.515625.078124-260 .039063-116.210937.078125 101.757812.039062 262.226563"/><path d="M1102.296875 731.622813l.039063 262.1875.078124 101.796875.039063-116.25.078125-259.960938.039062-248.554687.078126-94.882813.039062 108.59375.078125 247.070313"/><path d="M1077.726562 731.622813l.078126 247.304687.039062 108.515625.039062-95.273437.078126-248.789063L1078 483.615l.039062-115.859375.078126 101.914063.039062 261.953125"/><path d="M1101.867188 731.622813l.039062 261.914062.078125 101.914063.039063-115.859375.039062-259.765625.078125-248.789063.039063-95.234375.078124 108.515625.039063 247.304688"/><path d="M1078.15625 731.622813l.039062 247.539062.078126 108.398438.039062-95.585938.039062-248.984375.039063-259.609375.078125-115.507812.039062 102.03125.039063 261.71875"/><path d="M1101.476562 731.622813l.039063 261.679687.039063 102.03125.078124-115.507812.039063-259.609375.039063-248.984375.078124-95.585938.039063 108.398438.039063 247.578125"/><path d="M1078.546875 731.622813l.039063 247.773437.039062 108.320313.078125-95.898438.039063-249.179687.039062-259.453125.039062-115.195313.078126 102.1875.039062 261.445313"/><path d="M1101.085938 731.622813l.078124 261.445312.039063 102.148438.039063-115.15625.039062-259.453125.039062-249.179688.078126-95.898437.039062 108.320312.039062 247.773438"/></g><path d="M108.8438 109.3867h2.2148v-72h-2.2148zm0 0" class="c"/><path d="M1078.9375 371.622813v720h22.148438v-720zm0 0" class="b"/></g><path id="a" d="M99 138h13v9.5508H99zm0 0"/><path id="b" d="M106 138h13v9.5508h-13zm0 0"/><path id="c" d="M106 138h12v9.5508h-12zm0 0"/><path id="d" d="M100 138h13v9.5508h-13zm0 0"/><path id="e" d="M105 138h13v9.5508h-13zm0 0"/><path id="f" d="M101 138h12v9.5508h-12zm0 0"/><path id="g" d="M105 138h12v9.5508h-12zm0 0"/><path id="h" d="M101 138h13v9.5508h-13zm0 0"/><path id="i" d="M104 138h13v9.5508h-13zm0 0"/><path id="j" d="M102 138h12v9.5508h-12zm0 0"/><path id="k" d="M104 138h12v9.5508h-12zm0 0"/></defs><use href="#aF"/><use transform="translate(244 1)" href="#aG"/><style>.a{fill:none;stroke:#000;stroke-linecap:butt;stroke-linejoin:miter;stroke-miterlimit:10;stroke-opacity:1;stroke-width:3.985;transform:matrix(.1,0,0,-.1,.051,147.549)}.b{fill:none;stroke:#000;stroke-linecap:butt;stroke-linejoin:miter;stroke-miterlimit:10;stroke-opacity:1;stroke-width:3.985;transform:matrix(.1,0,0,-.1,.95,146.549)}.c{fill:#000;fill-opacity:1;fill-rule:nonzero}</style></svg>