<svg xmlns="http://www.w3.org/2000/svg" width="362pt" height="117pt" viewBox="0 0 362 117"><path d="M60.703125 585.625h3549.335937" class="a"/><path d="M5.8164 55.4492h.6016v6h-.6016zm0 0"/><path d="M56.5234 55.4492h.6016v6h-.6016zm0 0"/><path d="M107.2266 55.4492h.6016v6h-.6016zm0 0"/><path d="M157.9336 55.4492h.6016v6h-.6016zm0 0"/><path d="M208.6367 55.4492h.6016v6h-.6016zm0 0"/><path d="M259.3438 55.4492h.6016v6h-.6016zm0 0"/><path d="M310.0469 55.4492h.6016v6h-.6016zm0 0"/><path d="M360.7539 55.4492h.6016v6h-.6016zm0 0"/><path d="M60.703125 9.609375v1151.992187" class="a"/><path d="M3.0586 115.6914h6v.6016h-6zm0 0"/><path d="M3.0586 58.0898h6v.6016h-6zm0 0"/><path d="M3.0586.4883h6v.6016h-6zm0 0"/><g style="fill:none;stroke-width:3.985;stroke-miterlimit:10;transform:matrix(.1,0,0,-.1,0,117)"><g stroke="#e5e5e5"><path d="M10 100.898438l8.984375 62.578124 9.023437 75.859376 8.984376 86.679687 9.023437 94.882813L55 520.9375l8.984375 102.070312 9.023437 100.9375 8.984376 96.523438 9.023437 89.179688L100 988.632812l8.984375 66.328126 9.023437 51.601562 8.984376 35.195312 9.023437 17.734376 8.984375-.3125 8.984375-18.28125 9.023437-35.820313 9.023438-52.070313 8.984375-66.796874L190 906.835938l8.984375-89.453126 9.023437-96.757812 9.023438-100.976562 8.984375-102.070313L235 417.65625l8.984375-94.648438 9.023437-86.40625 9.023438-75.429687 8.984375-62.070313L280 52.265625l8.984375-30 9.023437-12.382813 9.023438 5.78125 8.984375 23.671876L325 80.15625l8.984375 56.71875 9.023437 70.78125 9.023438 82.695312 8.984375 91.992188L370 480.664062l8.984375 101.679688 9.023437 101.757812 9.023438 98.632813 8.984375 92.460937L415 958.59375l8.984375 71.640625 9.023437 57.65625 9.023438 41.914063 8.984375 24.765624L460 1161.484375l8.984375-11.171875 9.023437-28.945312 9.023438-45.742188 8.984375-61.171875L505 939.804688l8.984375-85.78125 9.023437-94.179688 9.023438-99.6875 8.984375-102.03125L550 456.953125l8.984375-97.109375 9.023437-90 9.023438-80.117188 8.984375-67.65625L595 68.984375l8.984375-36.875 9.023437-19.453125 9.023438-1.484375 8.984375 16.601563L640 61.875l9.023438 50.585938 8.984374 65.429687 9.023438 78.28125 8.984375 88.59375L685 440.9375l9.023438 100.703125L703.007812 643.75l9.023438 100.273438 8.984375 95.3125L730 926.640625l9.023438 76.601563 8.984374 63.476562 9.023438 48.359375 8.984375 31.757813L775 1160.898438l9.023438-3.984376 8.984374-21.953124 9.023438-39.179688 8.984375-55.234375L820 971.015625l9.023438-81.679687 8.984374-91.171876 9.023438-97.851562 8.984375-101.484375L865 496.953125l9.023438-99.101563 8.984374-93.203124 9.023438-84.375 8.984375-72.890626L910 88.242188l9.023438-43.476563 8.984374-26.484375 9.023438-8.671875 8.984375 9.414063L955 46.25l9.023438 44.179688 8.984374 59.765624 9.023438 73.4375 8.984375 84.804688L1000 401.914062l9.023438 99.296876 8.984374 101.914062 9.023438 101.40625 8.984375 97.65625L1045 893.007812l9.023438 81.171876 8.984374 68.984374 9.023438 54.570313 8.984375 38.515625 9.023437 21.210938 8.984376 3.203124 8.984374-14.84375 9.023438-32.421874 8.984375-49.0625 9.023437-64.0625 8.984376-77.109376 8.984374-87.734374 9.023438-95.546876 8.984375-100.429687 9.023437-102.070313 8.984376-100.585937 8.984374-95.9375 9.023438-88.203125 8.984375-77.773438 9.023437-64.84375 8.984376-49.921874 8.984374-33.398438 9.023438-15.820312 8.984375 2.226562 9.023437 20.195312 8.984376 37.578126 8.984374 53.75 9.023438 68.242187 8.984375 80.546875 9.023437 90.390625 8.984376 97.34375 8.984374 101.25 9.023438 101.992187 8.984375 99.53125 9.023437 93.867188 8.984376 85.390625 8.984374 74.101563 9.023438 60.546874 8.984375 45.078126 9.023437 28.203124 8.984376 10.429688 8.984374-7.65625 9.023438-25.546875 8.984375-42.578125 9.023437-58.320312 8.984376-72.1875 8.984374-83.789063 9.023438-92.773437 8.984375-98.867188 9.023437-101.796875 8.984376-101.601563 8.984374-98.125 9.023438-91.640624 8.984375-82.265626 9.023437-70.273437 8.984376-56.054687 8.984374-40.117188 9.023438-22.929688 8.984375-4.960937 9.023437 13.085937 8.984376 30.78125 8.984374 47.460938 9.023438 62.695312 8.984375 75.9375 9.023437 86.796876 8.984376 94.921874 8.984374 100.078126 9.023438 102.109374 8.984375 100.859376 9.023437 96.523437 8.984376 89.0625 8.984374 78.90625 9.023438 66.210937 8.984375 51.445313 9.023437 35.039063 8.984376 17.578124 8.984374-.46875 9.023438-18.476562 8.984375-35.898438 9.023437-52.265624 8.984376-66.914063 8.984374-79.453125 9.023438-89.570312 8.984375-96.796876 9.023437-101.015624 8.984376-102.070313 8.984374-99.882813 9.023438-94.570312 8.984375-86.289062 9.023437-75.3125 8.984376-61.992188 8.984374-46.640625 9.023438-29.882813 8.984375-12.1875 9.023437 5.898438 8.984376 23.828125 8.984374 40.976563 9.023438 56.835937 8.984375 70.9375 9.023437 82.773437 8.984376 92.03125 8.984374 98.398438 9.023438 101.679688 8.984375 101.71875 9.023437 98.632812 8.984376 92.382812 8.984374 83.28125 9.023438 71.523438 8.984375 57.578125 9.023437 41.71875 8.984376 24.648437 8.984374 6.71875 9.023438-11.328124 8.984375-29.0625 9.023437-45.9375 8.984376-61.289063 8.984374-74.726563 9.023438-85.859374 8.984375-94.296876 9.023437-99.6875 8.984376-102.03125 8.984374-101.132812 9.023438-97.070312 8.984375-89.960938 9.023437-80 8.984376-67.539062 8.984374-52.929688 9.023438-36.71875 8.984375-19.296875 9.023437-1.328125 8.984376 16.757812 8.984374 34.257813 9.023438 50.742187 8.984375 65.546876 9.023437 78.359374"/><path d="M2260.039062 256.914062l8.984376 88.671876 8.984374 96.25 9.023438 100.742187 8.984375 102.070313 9.023437 100.234374 8.984376 95.234376 8.984374 87.265624 9.023438 76.484376 8.984375 63.359374 9.023437 48.203126 8.984376 31.601562 9.023437 13.90625 8.984375-4.140625 8.984375-22.109375 9.023437-39.335938 8.984376-55.390624 9.023437-69.648438 8.984375-81.71875 9.023438-91.25 8.984374-97.929688 8.984376-101.484374 9.023437-101.875 8.984375-99.0625 9.023438-93.125 8.984374-84.296876 8.984376-72.773437 9.023437-58.984375 8.984375-43.359375 9.023438-26.328125 8.984374-8.515625 8.984376 9.570313 9.023437 27.421874 8.984375 44.296876 9.023438 59.882812 8.984374 73.554688 8.984376 84.882812 9.023437 93.554688 8.984375 99.335937 9.023438 101.953125 8.984374 101.328125 8.984376 97.617187 9.023437 90.78125 8.984375 81.054688 9.023438 68.867188 8.984374 54.453124 8.984376 38.359376 9.023437 21.015624 8.984375 3.085938 9.023438-15 8.984374-32.617188 8.984376-49.179687 9.023437-64.179687 8.984375-77.226563 9.023438-87.773437 8.984374-95.625 8.984376-100.46875 9.023437-102.070313 8.984375-100.585937 9.023438-95.859376 8.984374-88.164062 8.984376-77.617188 9.023437-64.726562 8.984375-49.765625 9.023438-33.242187 8.984374-15.703126 8.984376 2.382813 9.023437 20.390625 8.984375 37.734375 9.023438 53.867187 8.984374 68.359376 8.984376 80.664062 9.023437 90.429688 8.984375 97.421874 9.023438 101.289063 8.984374 101.953125 8.984376 99.492188 9.023437 93.828124 8.984375 85.273438 9.023438 73.984375 8.984374 60.429687 8.984376 44.960938 9.023437 28.007812 8.984375 10.273438 9.023438-7.8125 8.984374-25.703125 8.984376-42.734375 9.023437-58.4375 8.984375-72.265625 9.023438-83.90625 8.984374-92.851563 8.984376-98.90625 9.023437-101.835937 8.984375-101.5625 9.023438-98.085937 8.984374-91.5625 8.984376-82.148438 9.023437-70.15625 8.984375-55.9375 9.023438-39.960938 8.984374-22.773437 8.984376-4.84375 9.023437 13.28125 8.984375 30.898437 9.023438 47.65625 8.984374 62.8125 8.984376 76.054688 9.023437 86.875 8.984375 95 9.023438 100.078125 8.984374 102.109375 8.984376 100.859375 9.023437 96.445313 8.984375 88.984374 9.023438 78.828126 8.984374 66.054687 8.984376 51.289063 9.023437 34.921874 8.984375 17.421876 9.023438-.625 8.984374-18.632813 8.984376-36.09375 9.023437-52.34375 8.984375-67.03125 9.023438-79.570313 8.984374-89.648437 8.984376-96.835937 9.023437-101.054688 8.984375-102.03125 9.023438-99.882812 8.984374-94.492188 8.984376-86.25 9.023437-75.195312L3457.03125 98.125l9.023438-46.523438 8.984374-29.726562 8.984376-12.03125 9.023437 6.09375 8.984375 23.945312 9.023438 41.132813 8.984374 56.992187 8.984376 71.015626 9.023437 82.890624 8.984375 92.109376 9.023438 98.4375 8.984374 101.679687 8.984376 101.71875 9.023437 98.59375 8.984375 92.34375 9.023438 83.164063 8.984374 71.40625"/></g><g stroke="#ccc"><path d="M10 134.414062l10 70.3125 10 82.265626 10 91.679687 10 98.164063 10 101.5625 10 101.796874L80 779.0625l10 92.734375 10 83.789063 10 72.109374 10 58.28125 10 42.5 10 25.46875 10 7.617188 10-10.507812 10-28.242188 10-45.15625 10-60.625 10-74.140625L210 857.5l10-93.945312 10-99.53125 10-101.953126 10-101.25 10-97.34375L270 273.125l10-80.546875 10-68.164063 10-53.671874 10-37.539063 10-20.117187 10-2.148438 10 15.898438 10 33.4375 10 49.960937 10 64.921875 10 77.773438 10 88.28125 10 95.9375 10 100.585937 10 102.109375 10 100.390625 10 95.546875 10 87.695312 10 77.070313 10 64.023437 10 48.945313 10 32.421875 10 14.765625 10-3.320313 10-21.25 10-38.554687 10-54.648437 10-69.023438 10-81.210938 10-90.898437 10-97.65625 10-101.367187 10-101.953126 10-99.257812 10-93.476562 10-84.765626 10-73.398437 10-59.6875 10-44.101563 10-27.1875 10-9.335937 10 8.710937 10 26.5625 10.039062 43.59375L720 147.617188l10 72.96875 10 84.375 10.039062 93.242187L760 497.304688l10 101.914062 10 101.445312 10 97.851563 10 91.171875 10 81.601562 10 69.492188 10 55.15625 10.039062 39.140625 10 21.875L860 1160.898438l10-14.179688 10-31.757812 10-48.4375 10.039062-63.554688L910 926.328125l10-87.34375 10.039062-95.3125 10-100.273437L950 541.289062l10-100.703124 10-96.171876 10-88.554687 10.039062-78.203125L1000 112.265625l10-50.507813 10.039062-34.0625 10-16.523437 10 1.523437L1050 32.226562l10 36.953126 10 53.125L1080.039062 190l10 80.15625L1100 360.195312l10.039062 97.148438 10 101.171875 10 102.03125L1140 760.195312l10 94.179688 10 85.742188 10.039062 74.570312 10 61.09375L1190 1121.523438l10.039062 28.867187 10 11.09375 10-6.992187 10-24.84375L1240 1087.695312l10-57.734374 10.039062-71.679688 10-83.398438 10-92.5 10-98.671874 10-101.757813 10-101.640625 10-98.359375L1330 290.039062l10-82.65625 10.039062-70.78125 10-56.640624 10-40.78125 10-23.59375 10-5.664063 10 12.382813 10 30.117187 10 46.875L1430 161.445312l10.039062 75.46875 10 86.40625 10 94.6875 10 99.921876 10 102.070312 10 101.015625 10 96.71875 10 89.414063L1520 986.484375l10.039062 66.71875 10 52.070313 10 35.703124 10 18.242188 10 .234375 10-17.773437 10-35.273438 10-51.640625 10-66.367187 10-79.0625 10-89.21875 10-96.5625 10-100.9375 10-102.070313 10-100 10-94.882813 10-86.640624 10-75.820313 10-62.5 10-47.265625 10-30.546875 10-12.890625 10 5.234375 10 23.125 10 40.351563 10 56.25 10 70.429687 10 82.382813 10 91.71875 10 98.203124 10 101.640626 10 101.757812 10 98.828125 10 92.695313 10 83.671874 10 71.992188 10 58.125 10 42.382812 10 25.3125 10 7.421876 10-10.625 10-28.4375 10-45.273438 10-60.742188 10-74.257812 10-85.507812 10-93.984376 10-99.570312 10-101.992188 10-101.210937 10-97.265625 10-90.3125 10-80.429688 10-68.046874 10-53.554688 10-37.34375 10-20 10-1.992188 10 16.054688 10 33.632812 10 50.078126 10 65.039062 10 77.929688 10 88.320312 10 95.976562 10 100.625 10 102.109376 10 100.390624 10 95.46875 10 87.578126 10 76.992187 10 63.90625 10 48.828125 10 32.226562 10 14.609376 10-3.4375 10-21.40625 10-38.75 10-54.765626 10-69.140624 10-81.328126 10-90.9375 10-97.695312 10-101.445312 10-101.914063 10-99.21875 10-93.398437 10-84.6875 10-73.28125 10-59.53125 10-43.984376 10-26.992187 10-9.21875 10 8.90625 10 26.71875 10 43.671875 10 59.335938 10 73.046874 10 84.492188"/><path d="M2510.039062 305.78125l10 93.28125 10 99.140625 10 101.914063 10 101.445312 10 97.8125 10 91.054688 10 81.523437 10 69.375 10 55.039063 10 38.984374 10 21.71875 10 3.789063 10-14.335937 10-31.914063 10-48.59375 10-63.671875 10-76.71875 10-87.460938 10-95.390624 10-100.3125 10-102.070313 10-100.703125 10-96.09375 10-88.476562 10-78.125 10-65.234376 10-50.390624 10-33.90625 10-16.367188 10 1.679688 10 19.726562 10 37.070312 10 53.28125 10 67.8125 10 80.234376 10 90.15625 10 97.1875 10 101.171874 10 102.03125 10 99.609376 10 94.101562 10 85.664062 10 74.492188 10 60.976562 10 45.546876 10 28.710937 10 10.976563 10-7.148438 10-25 10-42.109375 10-57.851563 10-71.835937 10-83.476563 10-92.578124 10-98.710938 10-101.757812 10-101.640626 10-98.28125 10-91.875 10-82.578124 10-70.625 10-56.523438 10-40.625 10-23.4375 10-5.507812 10 12.539062 10 30.273438 10 46.992187 10 62.304687 10 75.546876 10 86.523437 10 94.726563 10 99.960937 10 102.070313 10 100.976562 10 96.679688 10 89.335937 10 79.257813 10 66.601562 10 51.875 10 35.585938 10 18.085937 10 .078125 10-17.929688 10-35.429687 10-51.796875 10-66.484375 10-79.140625 10-89.296875 10-96.640625 10-100.9375 10-102.070312 10-100 10-94.765626 10-86.601562 10-75.664062 10-62.421876 10-47.109374 10-30.390626 10-12.734374 10 5.390624 10 23.28125 10 40.507813 10 56.40625 10 70.546875 10 82.460938 10 91.796874 10 98.242188 10 101.601562 10 101.796876"/></g><g stroke="#b2b2b2"><path d="M10 172.421875l11.25 77.34375L32.5 337.65625l11.25 95.703125L55 533.828125 66.25 635.9375 77.5 736.484375l11.25 95.78125L100 920.273438l11.25 77.539062 11.25 64.570312 11.25 49.570313L145 1145l11.25 15.46875 11.25-2.617188 11.25-20.585937L190 1099.375l11.25-54.0625 11.25-68.515625 11.25-80.78125L235 805.429688l11.25-97.421876 11.25-101.328124 11.25-101.953126L280 405.273438l11.25-93.75 11.25-85.15625 11.25-73.828126L325 92.265625l11.25-44.726563L347.5 19.6875l11.25-10.078125L370 17.695312l11.25 25.859376 11.25 42.929687 11.25 58.632813L415 217.539062l11.25 84.023438 11.25 92.929688 11.25 98.945312L460 595.273438l11.25 101.5625 11.25 98.046874 11.25 91.445313 11.25 82.03125 11.25 70 11.25 55.742187 11.25 39.804688 11.25 22.539062 11.25 4.609376 11.25-13.4375 11.25-31.132813 11.25-47.8125 11.25-63.007813 11.25-76.171874L628.75 842.5 640 747.421875l11.25-100.15625 11.25-102.070313L673.75 444.375 685 348.007812l11.25-88.945312 11.25-78.632812 11.25-65.9375L730 63.359375l11.25-34.6875 11.25-17.1875 11.25.820313L775 31.171875l11.25 36.25 11.25 52.539063 11.25 67.226562L820 266.875l11.25 89.726562 11.25 96.914063 11.25 101.09375L865 656.640625l11.25 99.804687 11.25 94.453126 11.25 86.09375 11.25 75.078124L921.25 1073.75l11.25 46.328125 11.25 29.53125L955 1161.40625l11.25-6.289062 11.25-24.179688 11.25-41.289062 11.25-57.1875 11.25-71.171876 11.25-83.007812 11.25-92.226562 11.25-98.476563 11.25-101.679687 11.25-101.757813 11.25-98.515625 11.289062-92.226562 11.25-83.046876 11.25-71.25 11.25-57.265624 11.25-41.40625 11.25-24.257813 11.25-6.367187 11.25 11.71875 11.25 29.414062 11.25 46.25 11.25 61.601562 11.25 75 11.25 86.054688 11.25 94.414062 11.25 99.765626 11.25 102.070312 11.25 101.09375 11.25 96.953125 11.25 89.765625 11.25 79.765625 11.25 67.265625 11.25 52.617188 11.25 36.367187 11.25 18.945313 11.25.9375 11.25-17.109376 11.25-34.648437 11.25-51.015625 11.25-65.859375 11.25-78.59375 11.25-88.867187 11.25-96.367188 11.25-100.78125 11.25-102.109375 11.25-100.15625 11.25-95.117187 11.25-87.03125 11.25-76.25 11.25-63.046876 11.25-47.929687 11.25-31.171875 11.25-13.59375 11.25 4.53125 11.25 22.460938 11.25 39.6875 11.25 55.703124 11.25 69.921876 11.25 81.953124 11.25 91.445313 11.25 98.007813 11.25 101.523437 11.25 101.835937 11.25 98.984376 11.25 92.96875 11.25 84.101562 11.25 72.5 11.25 58.671875 11.25 43.007813 11.25 25.976562 11.25 8.164062 11.25-9.960937 11.25-27.773437 11.25-44.648438 11.25-60.15625 11.25-73.828125 11.25-85.078125 11.25-93.710938 11.25-99.414062 11.25-101.953125 11.25-101.328125 11.25-97.460938 11.25-90.625 11.25-80.859374 11.25-68.59375 11.25-54.140626 11.25-37.96875 11.25-20.703124 11.25-2.695313 11.25 15.390625 11.25 32.96875 11.25 49.492188 11.25 64.492187 11.25 77.460937 11.25 87.96875 11.25 95.742188 11.25 100.507812 11.25 102.109376 11.25 100.507812 11.25 95.742188 11.25 87.929687 11.25 77.421875 11.25 64.453125 11.25 49.414063 11.25 32.890624 11.25 15.3125 11.25-2.773437 11.25-20.703125 11.25-38.085938 11.25-54.179687 11.25-68.632813 11.25-80.898437 11.25-90.625 11.25-97.5 11.25-101.328125 11.25-101.953125 11.25-99.414063 11.25-93.671874 11.25-85.078126 11.25-73.75 11.25-60.117187 11.25-44.609375 11.25-27.65625 11.25-9.921875 11.25 8.203125 11.25 26.054688 11.25 43.046874 11.25 58.75 11.25 72.578126 11.25 84.101562 11.25 93.007812 11.25 98.984376 11.25 101.875 11.25 101.484374 11.25 98.046876 11.25 91.367187 11.25 81.914063 11.25 69.882812 11.25 55.625 11.25 39.648438 11.25 22.382812 11.25 4.492188 11.25-13.671876 11.25-31.25 11.25-47.96875 11.25-63.085937 11.25-76.328125 11.25-87.070312 11.25-95.117188 11.25-100.195312 11.25-102.070313 11.25-100.78125 11.25-96.328125 11.25-88.867188 11.25-78.554687 11.25-65.78125 11.25-50.976563 11.25-34.570312 11.25-17.03125 11.25.976562 11.25 19.023438 11.25 36.40625 11.25 52.695312 11.25 67.304688 11.25 79.84375 11.25 89.765625"/><path d="M2822.539062 357.421875l11.25 96.992187 11.25 101.09375 11.25 102.03125 11.25 99.765626 11.25 94.375 11.25 86.054687 11.25 74.960937 11.25 61.523438 11.25 46.171875 11.25 29.375 11.25 11.679687 11.25-6.484374 11.25-24.296876 11.25-41.484374 11.25-57.265626 11.25-71.328124 11.25-83.085938 11.25-92.265625 11.25-98.554687 11.25-101.71875 11.25-101.679688 11.25-98.476562 11.25-92.1875 11.25-82.96875 11.25-71.132813 11.25-57.109375 11.25-41.25 11.25-24.101562 11.25-6.25 11.25 11.875 11.25 29.609374 11.25 46.40625 11.25 61.71875 11.25 75.078126 11.25 86.171874 11.25 94.453126 11.25 99.84375 11.25 102.03125 11.25 101.054687 11.25 96.914063 11.25 89.6875 11.25 79.648437 11.25 67.148437 11.25 52.5 11.25 36.210938 11.25 18.789062 11.25.78125 11.25-17.304687 11.25-34.726563 11.25-51.210937 11.25-65.9375 11.25-78.710937 11.25-88.945313 11.25-96.40625 11.25-100.820313 11.25-102.109374 11.25-100.117188 11.25-95.039062 11.25-86.953126 11.25-76.171874 11.25-62.929688 11.25-47.773438 11.25-31.054687 11.25-13.398437 11.25 4.6875 11.25 22.617187 11.25 39.84375 11.25 55.820313 11.25 70.039062 11.25 82.070312"/></g><g stroke="#999"><path d="M10 214.53125l12.851562 83.632812 12.851563 92.65625 12.851563 98.75 12.890624 101.796876L74.296875 692.96875l12.851563 98.242188L100 882.96875l12.851562 82.460938 12.851563 70.46875 12.851563 56.367187 12.890624 40.429687 12.851563 23.242188 12.851563 5.273438L190 1148.476562l12.851562-30.46875 12.851563-47.226562 12.851563-62.421875 12.890624-75.703125 12.851563-86.640625 12.851563-94.804687L280 651.171875l12.851562-102.070313 12.851563-100.9375L318.59375 351.5625l12.851562-89.257812 12.851563-79.101563 12.851563-66.445313L370 65.039062 382.851562 29.6875l12.851563-17.890625 12.890625.15625 12.851562 18.164063 12.851563 35.625 12.851563 51.953124L460 184.335938l12.851562 79.296874 12.890626 89.375 12.851562 96.71875 12.851562 100.9375 12.851563 102.070313 12.851563 99.960937L550 847.421875l12.851562 86.445313 12.890626 75.546874 12.851562 62.226563 12.851562 46.953125 12.851563 30.195312 12.851563 12.5L640 1155.703125l12.851562-23.515625 12.890626-40.703125 12.851562-56.5625 12.851562-70.664063 12.851563-82.617187 12.851563-91.875L730 691.445312l12.851562-101.640624 12.851563-101.757813 12.890625-98.710937 12.851562-92.539063 12.851563-83.476563 12.851563-71.757812L820 83.75l12.851562-42.03125 12.851563-24.921875 12.890625-7.070313 12.851562 11.015626 12.851563 28.75 12.851563 45.625L910 156.171875l12.851562 74.53125 12.851563 85.664063 12.890625 94.140624 12.851562 99.648438 12.851563 101.992188 12.851563 101.210937L1000 810.507812l12.851562 90.117188 12.851563 80.195312 12.890625 67.773438 12.851562 53.242188 12.851563 36.992187 12.851563 19.648437 12.890624 1.601563 12.8125-16.40625 12.851563-33.984375 12.890625-50.429688 12.851562-65.3125 12.851563-78.125 12.851563-88.554687 12.890624-96.09375 12.8125-100.703125 12.851563-102.109375 12.890625-100.3125 12.851562-95.351563 12.851563-87.382812 12.851563-76.71875 12.890624-63.632812 12.8125-48.476563 12.851563-31.875 12.890625-14.257813 12.851562 3.828126 12.851563 21.796874L1347.148438 75l12.890624 55.117188 12.8125 69.414062 12.890626 81.523438 12.851562 91.132812L1411.445312 470l12.851563 101.445312 12.851563 101.914063L1450.039062 772.5l12.8125 93.28125 12.890626 84.453125 12.851562 73.007813 12.851562 59.21875 12.851563 43.671874 12.851563 26.640626 12.890624 8.828124 12.851563-9.257812 12.851563-27.070312 12.851562-44.0625 12.851562-59.609376 12.851563-73.28125 12.890625-84.726562 12.851562-93.4375 12.851563-99.21875 12.851563-101.953125 12.851562-101.40625 12.851562-97.695313 12.851563-90.898437 12.890625-81.289063 12.851562-69.0625 12.851563-54.765624 12.851563-38.632813 12.851562-21.367187 12.851562-3.359376 12.890626 14.648438 12.851562 32.304688 12.851562 48.90625 12.851563 63.945312 12.851563 76.992188 12.851562 87.617187 12.851562 95.507813 12.890626 100.390624 12.851562 102.109376 12.851562 100.625 12.851563 95.976562 12.851563 88.28125 12.851562 77.890625 12.851562 64.960937 12.890626 50.039063 12.851562 33.554687 12.851562 16.015626 12.851563-2.070313 12.851563-20.078125 12.851562-37.421875 12.851562-53.59375 12.890626-68.125 12.851562-80.429687 12.851562-90.3125 12.851563-97.304688 12.851563-101.25 12.851562-101.992188 12.851562-99.53125 12.890626-93.984374L2157.1875 228.75l12.851562-74.21875 12.851563-60.703125 12.851563-45.234375 12.851562-28.320312 12.851562-10.664063 12.890626 7.578125 12.851562 25.351562L2260.039062 85l12.851563 58.164062 12.851563 72.070313 12.851562 83.710937 12.851562 92.695313 12.890626 98.828125 12.851562 101.796875 12.851562 101.601563 12.851563 98.203124L2375.742188 883.75l12.851562 82.34375 12.851562 70.390625 12.890626 56.210937 12.851562 40.273438 12.851562 23.085938 12.851563 5.117187 12.851563-12.929687 12.851562-30.585938 12.851562-47.34375 12.890626-62.578125 12.851562-75.820313 12.851562-86.71875 12.851563-94.882812 12.851563-100.039062 12.851562-102.070313 12.851562-100.898437 12.890626-96.5625L2607.1875 261.5625l12.851562-78.984375L2632.890625 116.25l12.851563-51.601562 12.851562-35.195313 12.851562-17.734375 12.890626.3125 12.851562 18.320312 12.851562 35.742188 12.851563 52.109375L2735.742188 185l12.851562 79.375 12.851562 89.453125 12.890626 96.757813L2787.1875 551.5625l12.851562 102.070312 12.851563 99.921876 12.851563 94.648437 12.851562 86.40625 12.851562 75.429687 12.890626 62.109376 12.851562 46.796874 12.851562 30.039063 12.851563 12.34375 12.851563-5.78125 12.851562-23.632813 12.851562-40.859374 12.890626-56.679688 12.851562-70.820312 12.851562-82.695313 12.851563-91.953125 12.851563-98.359375 12.851562-101.640625 12.851562-101.757812 12.890626-98.671876 12.851562-92.460937 12.851562-83.359375 12.851563-71.640625 12.851563-57.695313 12.851562-41.875 12.890625-24.804687 12.851563-6.914063L3147.1875 20.9375l12.851562 28.90625 12.851563 45.742188 12.851563 61.171874 12.851562 74.648438 12.890625 85.78125 12.851563 94.179688"/><path d="M3224.335938 411.367188l12.851562 99.6875 12.851562 102.03125 12.851563 101.132812 12.851563 97.148438 12.851562 90 12.890625 80.078124 12.851563 67.695313 12.851562 53.085937 12.851562 36.875 12.851563 19.453126 12.851563 1.484374 12.890624-16.601562 12.851563-34.101562 12.851563-50.585938 12.851562-65.429688 12.851562-78.242187 12.851563-88.632813 12.851563-96.171874 12.890624-100.703126 12.851563-102.109374 12.851563-100.273438 12.851562-95.273438 12.851562-87.34375 12.851563-76.601562 12.851563-63.476562 12.890624-48.359376 12.851563-31.71875 12.851563-14.101562 12.851562 3.984375L3610.039062 36.25"/></g><path stroke="#7f7f7f" d="M10 260.351562l15 89.0625 15 96.484376 15 100.859374 15 102.070313 15 100.117187 15 94.960938 15 86.835938 15 76.015624 15 62.773438 15 47.539062 15 30.859376 15 13.203124 15-4.882812 15-22.8125 15-40.078125 15-55.976563 15-70.195312L280 885l15-91.5625 15-98.164062 15-101.5625 15-101.796876 15-98.867187 15-92.851563 15-83.867187 15-72.226563 15-58.398437 15-42.65625 15-25.625 15-7.8125L475 20l15 28.085938 15 45 15 60.46875 15 74.0625 15 85.273437 15 93.867187 15 99.53125 15 101.953126 15 101.289062 15 97.382812 15 90.390626 15 80.625L670 1046.25l15 53.828125 15 37.65625 15 20.3125 15 2.304687 15-15.703124 15-33.320313 15-49.84375 15-64.765625 15.039062-77.734375L820 830.859375l15-95.898437L850.039062 634.375 865 532.265625l15-100.429687L895.039062 336.25 910 248.476562l15-77.148437 15.039062-64.179687L955 58.046875l15-32.539063 15.039062-14.921874L1000 13.710938l15 21.09375 15.039062 38.398437L1045 127.734375l15 68.90625 15.039062 81.132813 15 90.78125L1105 466.171875l15.039062 101.367187 15 101.953126L1150 768.789062l15.039062 93.515626 15 84.882812L1195 1020.664062l15.039062 59.84375 15 44.257813L1240 1152.070312l15.039062 9.53125 15-8.554687L1285 1126.640625l15.039062-43.4375 15-59.023437L1330 951.367188l15.039062-84.335938 15-93.164062 15-99.0625 15-101.875 15-101.484376 15-97.890624 15-91.25 15-81.679688 15-69.609375 15-55.3125 15-39.296875 15-22.03125 15-4.101562 15 14.023437 15 31.601563 15 48.28125 15 63.4375 15 76.523437 15 87.265625 15 95.273438 15 100.234374 15 102.109376 15 100.742187 15 96.210937 15 88.632813 15 78.320313 15 65.507812 15 50.664062 15 34.179688 15 16.679688 15-1.367188 15-19.335938 15-36.796874 15-53.007813 15-67.578125 15-80.039062 15-89.960938 15-97.109375 15-101.171875 15-101.992188 15-99.726562 15-94.21875 15-85.820312 15-74.6875 15-61.25 15-45.859376 15-29.023437 15-11.289063 15 6.835938 15 24.6875 15 41.796875 15 57.617187 15 71.5625 15 83.320313 15 92.421875 15 98.632812 15 101.757813 15 101.679687 15 98.359376 15 91.992187 15 82.773437 15 70.859376 15 56.796874 15 40.898438 15 23.75 15 5.859375 15-12.265625 15-29.921875 15-46.71875 15-62.03125 15-75.351563 15-86.328124 15-94.609376 15-99.921874 15-102.070313 15-101.015625 15-96.757812 15-89.53125 15-79.414063 15-66.875 15-52.148437 15-35.898438 15-18.398438 15-.390624 15 17.617187 15 35.117187 15 51.523438 15 66.25 15 78.90625 15 89.140625 15 96.523437 15 100.898438 15 102.070312 15 100.078126 15 94.921874 15 86.757813 15 75.898437 15 62.65625 15 47.382813 15 30.703125 15 13.046875 15-5.078125 15-22.96875 15-40.195312 15-56.132813 15-70.273437 15-82.304688 15-91.640625 15-98.164063 15-101.601562 15-101.796875 15-98.828125 15-92.773438 15-83.789062 15-72.109375 15-58.28125 15-42.5 15-25.46875 15-7.65625 15 10.546875 15 28.242188 15 45.15625 15 60.585937 15 74.179687 15 85.390626 15 93.945312 15 99.53125 15 101.953125 15 101.25 15 97.34375 15 90.351563 15 80.507812 15 68.203125 15 53.671875 15 37.539062 15 20.117188 15 2.1875 15-15.898438 15-33.476562 15-49.960938 15-64.921874 15-77.773438 15-88.242188 15-95.976562 15-100.585938 15-102.109374 15-100.390626 15-95.546874 15-87.695313 15-77.070313 15-64.023437 15-48.945313"/><path stroke="#666" d="M10 309.453125l18.007812 93.59375 18.007813 99.335937 17.96875 101.953126 18.007813 101.328124L100 803.28125l18.007812 90.742188 18.007813 81.054687 17.96875 68.789063 18.046875 54.414062L190 1136.601562l18.007812 20.976563 18.007813 3.046875 17.96875-15.078125 18.046875-32.65625L280 1063.671875l18.007812-64.21875 18.007813-77.265625 17.96875-87.8125 18.046875-95.625L370 638.28125l18.007812-102.109375L406.015625 435.625l17.96875-95.820312 18.046875-88.125L460 174.0625l18.007812-64.6875 18.007813-49.765625 17.96875-33.164063 18.046875-15.625L550 13.242188l18.007812 20.429687 18.007813 37.773437 17.96875 53.90625L622.03125 193.75 640 274.453125l18.007812 90.46875 18.007813 97.421875 18.007813 101.25 18.007812 101.992188L730 765.039062l18.007812 93.828126 18.007813 85.234374 18.007813 73.984376 18.007812 60.390624L820 1123.359375l18.007812 28.007813 18.007813 10.195312 18.007813-7.851562 18.007812-25.742188L910 1085.195312l18.007812-58.476562 18.007813-72.34375 18.007813-83.945312 18.007812-92.851563L1000 678.671875l18.007812-101.835937 18.007813-101.5625 18.007813-98.085938 18.007812-91.523438 18.007812-82.109374 17.96875-70.117188 18.007813-55.898438 18.007813-39.960937 18.007812-22.695313 18.007812-4.765624 17.96875 13.28125L1216.015625 54.375l18.007813 47.695312 18.007812 62.851563 18.007812 76.054687 17.96875 86.914063 18.007813 95 18.007813 100.117187 18.007812 102.109376 18.007812 100.820312 17.96875 96.445312 18.007813 88.984376 18.007813 78.789062 18.007812 66.015625 18.007812 51.289063 17.96875 34.84375 18.007813 17.382812 18.007813-.703125 18.007812-18.671875 18.007812-36.132812 17.96875-52.421876 18.007813-67.070312 18.007813-79.570312 18.007812-89.648438 18.007812-96.875 17.96875-101.054688 18.007813-102.070312 18.007813-99.84375 18.007812-94.492188 18.007812-86.171874 17.96875-75.195313 18.007813-61.796875 18.007813-46.484375 18.007812-29.6875 18.007812-11.953125 17.96875 6.132812L1846.015625 40l18.007813 41.171875 18.007812 56.992187 18.007812 71.09375 17.96875 82.890626 18.007813 92.148437 18.007813 98.4375 18.007812 101.679687 18.007812 101.71875 17.96875 98.59375 18.007813 92.304688 18.007813 83.125 18.007812 71.40625 18.007812 57.34375 17.96875 41.5625 18.007813 24.414062 18.007813 6.5625 18.007812-11.5625 18.007812-29.257812 17.96875-46.132812 18.007813-61.445313 18.007813-74.882813 18.007812-85.976562 18.007812-94.375 17.96875-99.726562 18.007813-102.03125 18.007813-101.132813 18.007812-96.992187 18.007812-89.84375 18.007813-79.882813 17.96875-67.34375 18.007813-52.8125L2422.03125 31.5625l18.007812-19.101562 18.007813-1.09375 18.007813 16.953124 17.96875 34.453126 18.007812 50.898437 18.007812 65.703125 18.007813 78.515625 18.007813 88.75 17.96875 96.328125L2602.03125 543.75l18.007812 102.109375 18.007813 100.195313 18.007813 95.15625 17.96875 87.109374 18.007812 76.367188 18.007812 63.164062 18.007813 48.046876 18.007813 31.367187 17.96875 13.75 18.007812-4.375 18.007812-22.304687 18.007813-39.53125 18.007813-55.546876 17.96875-69.804687 18.007812-81.875 18.007812-91.367187 18.007813-97.96875 18.007813-101.484376 17.96875-101.875 18.007812-98.984374 18.007812-93.085938 18.007813-84.140625 18.007813-72.65625 17.96875-58.789063L3052.03125 44.0625l18.007812-26.132812 18.007813-8.320313 18.007813 9.804687 17.96875 27.578126 18.007812 44.53125 18.007812 60.039062 18.007813 73.671875 18.007813 85 17.96875 93.671875 18.007812 99.375 18.007812 101.953125 18.007813 101.328125 18.007813 97.539062 17.96875 90.664063 18.007812 80.976563 18.007812 68.671874 18.007813 54.296876 18.007813 38.164062 17.96875 20.820312 18.007812 2.851563 18.007812-15.195313 18.007813-32.8125 18.007813-49.375 17.96875-64.335937 18.007812-77.382813 18.007812-87.890624 18.007813-95.703126 18.007813-100.46875 17.96875-102.109374 18.007812-100.507813 18.007812-95.78125"/><path stroke="#4c4c4c" d="M10 361.289062l22.5 97.226563L55 559.6875l22.5 101.992188 22.5 99.648437 22.5 94.0625 22.5 85.664063 22.5 74.453124 22.5 60.9375 22.5 45.507813L235 1150.625l22.5 10.898438 22.5-7.1875 22.5-25.078126 22.5-42.109374 22.5-57.929688 22.5-71.835938 22.5-83.515624 22.5-92.578126 22.5-98.75L460 580.78125l22.5-101.640625 22.5-98.28125 22.5-91.835937 22.5-82.539063 22.5-70.585937L595 79.414062l22.5-40.585937L640 15.429688l22.5-5.46875L685 22.578125l22.5 30.3125 22.5 47.03125 22.5 62.304687 22.5 75.625L797.5 324.375l22.5 94.765625 22.5 99.960937L865 621.210938l22.5 100.9375 22.5 96.679687L932.5 908.125l22.5 79.21875 22.5 66.5625 22.5 51.875 22.5 35.507812 22.5 18.046876 22.5.039062 22.539062-18.007812 22.5-35.46875 22.5-51.835938 22.5-66.523438 22.5-79.179687 22.5-89.296875 22.5-96.679688 22.5-100.9375 22.5-102.070312 22.5-100 22.5-94.726562 22.5-86.601563 22.5-75.625 22.5-62.34375 22.5-47.109375 22.5-30.351562 22.5-12.65625 22.5 5.429687 22.5 23.359375 22.5 40.507812 22.5 56.445313 22.5 70.585937 22.5 82.5 22.5 91.835938 22.5 98.242188 22.5 101.640624 22.5 101.757813 22.5 98.75 22.5 92.617187 22.5 83.554688 22.5 71.875 22.5 57.929688 22.5 42.1875 22.5 25.117187 22.5 7.226563 22.5-10.859376 22.5-28.632812 22.5-45.46875 22.5-60.898438 22.5-74.414062 22.5-85.585938 22.5-94.101562 22.5-99.609375 22.5-101.992187 22.5-101.210938 22.5-97.226562 22.5-90.15625 22.5-80.3125 22.5-67.890626 22.5-53.359374 22.5-37.148438 22.5-19.804688 22.5-1.796874 22.5 16.289062 22.5 33.789062 22.5 50.273438 22.5 65.195312 22.5 78.046876 22.5 88.476562 22.5 96.054688 22.5 100.664062 22.5 102.109375 22.5 100.3125 22.5 95.390625 22.5 87.5 22.5 76.835938 22.5 63.710937 22.5 48.671875 22.5 32.03125 22.5 14.375 22.5-3.632812 22.5-21.601563 22.5-38.90625 22.5-55 22.5-69.296875 22.5-81.445312 22.5-91.015626 22.5-97.773437 22.5-101.445313 22.5-101.914062 22.5-99.140625 22.5-93.359375 22.5-84.570312 22.5-73.085938 22.5-59.414062 22.5-43.75 22.5-26.835938 22.5-8.984375 22.5 9.101563 22.5 26.914062 22.5 43.90625 22.5 59.453125 22.5 73.203125 22.5 84.609375 22.5 93.398437 22.5 99.179688 22.5 101.953125 22.5 101.40625 22.5 97.734375 22.5 90.976562 22.5 81.40625 22.5 69.179688 22.5 54.882812 22.5 38.789063 22.5 21.523437 22.5 3.554688 22.5-14.53125 22.5-32.148438 22.5-48.75 22.5-63.789062 22.5-76.914062 22.5-87.539063 22.5-95.46875"/><path stroke="#323232" d="M10 415.390625l30 99.84375 30 102.03125 30 101.054687 30 96.875 30 89.6875 30 79.648438 30 67.070312 30 52.460938 30 36.171875 30 18.75 30 .703125 30-17.304688 30-34.84375 30-51.171874 30-66.054688 30-78.710938 30-88.984374 30-96.40625 30-100.859376 30-102.070312 30-100.117188L670 328.125l30-86.914062 30-76.132813 30-62.890625 30-47.695312 30-31.015626 30.039062-13.359374L880 14.84375 910 37.5l30.039062 39.921875L970 133.28125l30 70.078125 30.039062 82.070313L1060 376.953125l30.039062 98.085937 30 101.523438L1150 678.398438l30.039062 98.90625 30 92.929687L1240 954.179688l30.039062 72.34375 30 58.515624L1330 1127.890625l30.039062 25.742187 30 7.929688 30-10.15625 30-27.929688 30-44.84375 30-60.351562 30-73.945312 30-85.234376 30-93.789062 30-99.453125 30-101.953125 30-101.328125 30-97.421875 30-90.46875 30-80.742188 30-68.4375 30-53.945312 30-37.8125 30-20.46875 30-2.460938 30 15.546876 30 33.164062 30 49.6875 30 64.648438 30 77.578124 30 88.125 30 95.78125 30 100.585938 30 102.109375 30 100.429687 30 95.664063 30 87.851563 30 77.265624 30 64.296876 30 49.257812 30 32.695312 30 15.078126 30-2.96875 30-20.9375 30-38.242188 30-54.414062 30-68.75 30-81.015626 30-90.742187 30-97.578125 30-101.328125 30-101.953125 30-99.335938 30-93.632812 30-84.921875 30-73.632813 30-59.921874 30-44.414063 30-27.5 30-9.6875 30 8.4375 30 26.210937 30 43.28125 30 58.90625 30 72.695313 30 84.257813 30 93.085937 30 99.023437 30 101.875 30 101.484376 30 97.96875 30 91.289062 30 81.796875 30 69.726563 30 55.46875 30 39.414062 30 22.1875 30 4.257812 30-13.828124 30-31.484376 30-48.125"/><path stroke="#191919" d="M10 471.171875 55 572.65625l45 101.875 45 99.101562 45 93.164063 45 84.335937 45 72.851563 45 59.101563 45 43.4375 45 26.445312 45 8.632812 45-9.453124 45-27.304688 45-44.21875 45-59.765625 45-73.476563 45-84.804687 45-93.554687 45-99.257813L865 567.8125l45-101.367188 45-97.65625 45-90.820312 45-81.132812 45.039062-68.945313 45-54.570313 45-38.4375 45-21.132812 45-3.203125 45 14.882813 45 32.5 45 49.101562 45 64.101562 45 77.148438 45 87.734375 45 95.585937 45 100.429688 45 102.070312 45 100.585938 45 95.898438 45 88.203124 45 77.734376 45 64.804687 45 49.882813 45 33.359374 45 15.78125 45-2.265624 45-20.273438 45-37.617188 45-53.789062 45-68.28125 45-80.585938 45-90.390624 45-97.382813 45-101.25 45-101.992187 45-99.492188 45-93.90625 45-85.3125 45-74.101562 45-60.507813 45-45.039063 45-28.125 45-10.429687 45 7.773437 45 25.546876 45 42.65625 45 58.320312 45 72.226562 45 83.828126 45 92.8125 45 98.867187 45 101.796875 45 101.601562 45 98.125 45 91.601563 45 82.226563 45 70.234374 45 56.015626 45 40.078124 45 22.890626"/><path stroke="#000" d="M10 528.125l90 102.070312 90 100.703126 90 96.132812 90 88.554688L460 993.75l90 65.351562 90 50.507813 90 33.984375 90 16.484375 90-1.601563 90-19.570312 90.039062-36.953125 90-53.203125 90-67.734375 90-80.195313 90-90.039062 90-97.1875 90-101.171875 90-101.992187 90-99.648438 90-94.179688 90-85.703124 90-74.570313 90-61.054687 90-45.664063 90-28.828125 90-11.054688 90 7.03125 90 24.882813 90 41.992187 90 57.773438 90 71.71875 90 83.4375 90 92.5 90 98.710938 90 101.757812 90 101.640625 90 98.320313 90 91.914062 90 82.617188"/></g><style>.a{fill:none;stroke:#000;stroke-miterlimit:10;stroke-width:3.985;transform:matrix(.1,0,0,-.1,0,117)}</style></svg>