<svg xmlns="http://www.w3.org/2000/svg" width="404pt" height="172pt" viewBox="0 0 404 172"><defs><clipPath id="f"><path d="M0 1h171v170.5508H0zm0 0"/></clipPath><clipPath id="g"><path d="M0 .5508h171.875v171H0zm0 0"/></clipPath><clipPath id="h"><path d="M85 20h67v67H85zm0 0"/></clipPath><clipPath id="i"><path clip-rule="evenodd" d="M-.125.5508h172v171h-172zm151.457 85.0781v.8828l-9.0078 1.4453v-3.7773zM85.2539 20.4336h.8828l1.4492 9.0078h-3.7812zm0 0"/></clipPath><clipPath id="j"><path d="M79 19h59v74H79zm0 0"/></clipPath><clipPath id="k"><path clip-rule="evenodd" d="M-.125.5508h172v171h-172zm130.9219 25.6133.6914.5078-.4375 1.0664-.1914.1914-.125.0625h-.0625l-.125.0625h-.1289l-.125-.0625h-.0625l-.125-.0625-.1289-.0625-.0625-.0625-.0625-.125-.0625-.0664v-.125l-.0625-.125v-.1289l.0625-.0586v-.1289l.0625-.125zm0 0"/></clipPath><clipPath id="l"><path d="M0 0h172v172H0z"/></clipPath><g id="E" clip-path="url(#l)"><path d="M170.7344 86.0703c0 46.964844-38.074219 85.035157-85.039063 85.035157-46.964843 0-85.035156-38.070313-85.035156-85.035157 0-46.964843 38.070313-85.039062 85.035156-85.039062 46.964844 0 85.039063 38.074219 85.039063 85.039062" style="fill-rule:evenodd;fill:#dcdcdc;fill-opacity:1;clip-path:url(#f)"/><g clip-path="url(#g)"><path d="M1708.58375 854.786875c0-469.648437-380.742187-850.351562-850.390625-850.351562-469.648437 0-850.351562 380.703125-850.351562 850.351562 0 469.648438 380.703125 850.390625 850.351562 850.390625 469.648438 0 850.390625-380.742187 850.390625-850.390625zm0 0" class="d"/></g><path fill-rule="evenodd" fill="#fff" fill-opacity="1" d="M128.2148 86.0703c0 23.480469-19.035156 42.515626-42.519532 42.515626-23.480468 0-42.515624-19.035157-42.515624-42.515626 0-23.484374 19.035156-42.519531 42.515624-42.519531 23.484376 0 42.519532 19.035157 42.519532 42.519531"/><g style="fill:none;stroke-width:4.72425;stroke-linecap:butt;stroke-linejoin:miter;stroke-opacity:1;stroke-miterlimit:10;transform:matrix(.1,0,0,-.1,-.124,171.549)"><path stroke="#000" d="M1283.388438 854.786875c0-234.804687-190.351563-425.15625-425.195313-425.15625-234.804687 0-425.15625 190.351563-425.15625 425.15625 0 234.84375 190.351563 425.195313 425.15625 425.195313 234.84375 0 425.195313-190.351563 425.195313-425.195313zm0 0"/><path stroke="#888" d="M999.911875 1039.318125c63.789063-39.140625 102.695313-108.59375 102.695313-183.4375 0-.78125 0-1.5625 0-2.34375"/></g><g clip-path="url(#h)"><g clip-path="url(#i)"><path d="M858.193125 1506.74V854.786875h651.953125" class="d"/></g></g><g style="fill-rule:evenodd;fill:#000;fill-opacity:1;stroke-width:4.72425;stroke-linecap:butt;stroke-linejoin:miter;stroke:#000;stroke-opacity:1;stroke-miterlimit:10;transform:matrix(.1,0,0,-.1,-.124,171.549)"><path d="M877.099375 1421.075938l-18.90625 75.585937-18.90625-75.585937zm0 0"/><path d="M1424.482188 835.919688l75.585937 18.867187-75.585937 18.90625zm0 0"/></g><g clip-path="url(#j)"><g clip-path="url(#k)"><path d="M1311.747813 1450.060313 858.193125 854.786875" class="d"/></g></g><path fill-rule="evenodd" fill="#000" fill-opacity="1" d="M131.0508 27.7383l.0625-.0586v-.1289l.0625-.125v-.1914l-.0625-.125v-.125l-.0625-.0625-.1289-.125-.0625-.0625-.125-.0625h-.0625l-.125-.0664h-.2539l-.0625.0664-.125.0625-.0664.0625-.125.0625-.0625.0625-.0625.125v.1289l-.0625.0586v.1289l.0625.125v.125l.0625.0664.0625.125.0625.0625.1289.0625.125.0625h.0625l.125.0625h.1289l.125-.0625h.0625l.125-.0625.1914-.1914"/><g class="d"><path d="M1311.747813 1438.107188l.625.585937v1.289063l.625 1.25v1.914062l-.625 1.25v1.25l-.625.625-1.289063 1.25-.625.625-1.25.625h-.625l-1.25.664063h-2.539062l-.625-.664063-1.25-.625-.664063-.625-1.25-.625-.625-.625-.625-1.25v-1.289062l-.625-.585938v-1.289062l.625-1.25v-1.25l.625-.664063.625-1.25.625-.625 1.289063-.625 1.25-.625h.625l1.25-.625h1.289062l1.25.625h.625l1.25.625zm0 0"/><path d="M7.841563 854.786875h425.195312"/></g></g><clipPath id="m"><path d="M25 153h27v17.5508H25zm0 0"/></clipPath><clipPath id="n"><path d="M34 155h27v15.5508H34zm0 0"/></clipPath><clipPath id="o"><path d="M45 157h27v13.5508H45zm0 0"/></clipPath><clipPath id="p"><path d="M62 163h15v7.5508H62zm0 0"/></clipPath><clipPath id="q"><path d="M56 157h27v13.5508H56zm0 0"/></clipPath><clipPath id="r"><path d="M69 155h25v15.5508H69zm0 0"/></clipPath><clipPath id="s"><path d="M82 153h25v17.5508H82zm0 0"/></clipPath><clipPath id="t"><path d="M93 149h27v21.5508H93zm0 0"/></clipPath><clipPath id="u"><path d="M80 .5508h27V23H80zm0 0"/></clipPath><clipPath id="v"><path d="M66 .5508h27V19H66zm0 0"/></clipPath><clipPath id="w"><path d="M52 .5508h28V16H52zm0 0"/></clipPath><clipPath id="x"><path d="M38 .5508h30V14H38zm0 0"/></clipPath><clipPath id="y"><path d="M26 .5508h30V14H26zm0 0"/></clipPath><clipPath id="z"><path d="M14 .5508h31V16H14zm0 0"/></clipPath><clipPath id="A"><path d="M4 .5508h30V18H4zm0 0"/></clipPath><clipPath id="B"><path d="M.125 7H20v9H.125zm0 0"/></clipPath><clipPath id="C"><path d="M.125 2H25v19H.125zm0 0"/></clipPath><clipPath id="D"><path d="M0 0h206v171H0z"/></clipPath><g id="F" clip-path="url(#D)"><path d="M870 721.622813l1091.523438-339.84375" class="a"/><path d="M188.5625 129.9688l-.4453 1.4258 8.1602.9766-7.2695-3.832-.4453 1.4297" class="l"/><path d="M1884.375 405.8025l-4.453125-14.257812 81.601563-9.765625-72.695313 38.320312zm0 0" class="a"/><use x="199.272" y="131.5361" href="#J" class="m"/><path d="M870 721.622813l643.984375 801.953125" class="a"/><path d="M146.7344 24.1563l1.1641.9375 3.625-6.9023-5.9531 5.0273 1.1641.9375" class="l"/><path d="M1466.09375 1463.9275l11.640625-9.375 36.25 69.023438-59.53125-50.273438zm0 0" class="a"/><use x="154.454" y="25.537" href="#K" class="m"/><path d="M28.9336 126.2656l-4.1133-1.3125-4.1133-1.3086-2.7148 2.2852-2.3125 2.4141 4.4375.8945 4.4414.8945 2.0117-1.9883 2.3633-1.8789" class="n"/><path d="M288.085938 442.83375l-41.132813 13.125-41.132813 13.085938-27.148437-22.851563-23.125-24.140625 44.375-8.945312 44.414063-8.945313 20.117187 19.882813zm0 0" class="a"/><path d="M37.1836 128.8945l-4.1289-1.3164-4.1211-1.3125-2.3633 1.8789-2.0117 1.9883 4.4414.8945 4.4492.8984 1.7148-1.5625 2.0195-1.4687" class="o"/><path d="M370.585938 416.544688l-41.289063 13.164062-41.210937 13.125-23.632813-18.789062-20.117187-19.882813L288.75 395.216563l44.492188-8.984375 17.148437 15.625zm0 0" class="a"/><path d="M45.4531 131.5273l-4.1367-1.3164-4.1328-1.3164-2.0195 1.4688-1.7148 1.5625 4.4492.8945 4.457.8984 1.4219-1.1328 1.6758-1.0586" class="e"/><path d="M453.28125 390.216563l-41.367188 13.164062-41.328124 13.164063-20.195313-14.6875-17.148437-15.625 44.492187-8.945313 44.570313-8.984375 14.21875 11.328125zm0 0" class="a"/><path d="M53.7461 134.168l-4.1484-1.3203-4.1445-1.3203-1.6758 1.0586-1.4219 1.1328 4.457.8984 4.4648.8984 1.1328-.7031 1.3359-.6445" class="w"/><path d="M536.210938 363.810313l-41.484376 13.203125-41.445312 13.203125-16.757812-10.585938-14.21875-11.328125 44.570312-8.984375 44.648438-8.984375 11.328124 7.03125zm0 0" class="a"/><path d="M24.5586 130.1328l-4.4414-.8945-4.4375-.8945-1.8945 2.5273-1.4609 2.6172 9.3203.8906 1.2656-2.1602 1.6484-2.0859" class="b"/><path d="M244.335938 404.161875l-44.414063 8.945313-44.375 8.945312-18.945313-25.273437-14.609374-26.171875 93.203124-8.90625 12.65625 21.601562zm0 0" class="a"/><path fill-rule="nonzero" fill="#9c9c9c" fill-opacity="1" d="M33.4492 131.9258 29 131.0273l-4.4414-.8945-1.6484 2.0859-1.2656 2.1602 4.6641.4492 4.668.4453 1.0703-1.707 1.4023-1.6406"/><path d="M333.242188 386.232188 288.75 395.216563l-44.414062 8.945312-16.484376-20.859375-12.65625-21.601562 46.640626-4.492188 46.679687-4.453125 10.703125 17.070313zm0 0" class="a"/><path d="M42.3555 133.7188l-4.457-.8984-4.4492-.8945-1.4023 1.6406-1.0703 1.707 4.668.4453 4.668.4492.8828-1.25 1.1602-1.1992" class="x"/><path d="M422.304688 368.3025l-44.570313 8.984375-44.492187 8.945313-14.023438-16.40625-10.703125-17.070313 46.679687-4.453125 46.679688-4.492187 8.828125 12.5zm0 0" class="a"/><path d="M51.2773 135.5156l-4.4648-.8984-4.457-.8984-1.1602 1.1992-.8828 1.25 4.6719.4453 4.6758.4492.6992-.793.918-.7539" class="y"/><path d="M511.523438 350.33375 466.875 359.318125l-44.570312 8.984375-11.601563-11.992187-8.828125-12.5 46.71875-4.453125 46.757812-4.492188 6.992188 7.929688zm0 0" class="a"/><path d="M21.6445 134.3789l-9.3203-.8906-1.0117 2.6836-.5547 2.7344 9.5469-.0469.4688-2.2578.8711-2.2227" class="f"/><path d="M215.195312 361.700938l-93.203124 8.90625L111.875 343.77125l-5.546875-27.34375 95.46875.46875 4.6875 22.578125zm0 0" class="a"/><path d="M30.9766 135.2734l-4.668-.4453-4.6641-.4492-.8711 2.2227-.4687 2.2578 9.5469-.0469.3867-1.7852.7383-1.7539" class="c"/><path d="M308.515625 352.755625l-46.679687 4.453125-46.640626 4.492188-8.710937-22.226563-4.6875-22.578125 95.46875.46875 3.867187 17.851563zm0 0" class="a"/><path d="M40.3125 136.168l-4.668-.4492-4.668-.4453-.7383 1.7539-.3867 1.7852 9.5469-.0469.3125-1.3086.6016-1.2891" class="g"/><path d="M401.875 343.810313l-46.679688 4.492187-46.679687 4.453125-7.382813-17.539062-3.867187-17.851563 95.46875.46875 3.125 13.085938zm0 0" class="a"/><path d="M49.6602 137.0625l-4.6758-.4492-4.6719-.4453-.6016 1.2891-.3125 1.3086 4.7734-.0234 4.7734-.0195.2422-.8398.4727-.8203" class="h"/><path d="M495.351562 334.865l-46.757812 4.492188-46.71875 4.453125-6.015625-12.890625-3.125-13.085938 47.734375.234375 47.734375.195313 2.421875 8.398437zm0 0" class="a"/><path d="M20.3047 138.8594l-9.5469.0469-.0898 2.7539.3906 2.7617 9.5391-1.0078-.3555-2.2773.0625-2.2773" class="f"/><path d="M201.796875 316.89625l-95.46875-.46875-.898437-27.539062 3.90625-27.617188 95.390624 10.078125-3.554687 22.773438zm0 0" class="a"/><path d="M29.8516 138.8125l-9.5469.0469-.0625 2.2773.3555 2.2773 4.7695-.5039 4.7617-.5039-.3164-1.793.0391-1.8008" class="c"/><path d="M297.265625 317.365l-95.46875-.46875-.625-22.773437 3.554687-22.773438 47.695313 5.039063 47.617187 5.039062-3.164062 17.929688zm0 0" class="a"/><path d="M39.3984 138.7656l-9.5469.0469-.0391 1.8008.3164 1.793 4.7656-.5 4.7578-.5039-.2734-1.3125.0195-1.3242" class="g"/><path d="M392.734375 317.83375l-95.46875-.46875-.390625-18.007812 3.164062-17.929688 47.65625 5 47.578126 5.039063-2.734376 13.125zm0 0" class="a"/><path d="M48.9453 138.7227l-4.7734.0195-4.7734.0234-.0195 1.3242.2734 1.3125 9.5156-1-.2305-.8398.0078-.8398" class="h"/><path d="M488.203125 318.263438l-47.734375-.195313-47.734375-.234375-.195313-13.242187 2.734376-13.125 95.15625 10L488.125 309.865zm0 0" class="a"/><path d="M49.168 140.4023l-9.5156 1 .5742 1.2969.8672 1.2617 4.625-.9766 4.6172-.9766-.7031-.7891-.4648-.8164" class="h"/><path d="M490.429688 301.466563l-95.15625-10 5.742187-12.96875 8.671875-12.617188 46.25 9.765625 46.171875 9.765625-7.03125 7.890625zm0 0" class="a"/><path d="M39.6523 141.4023l-4.7578.5039-4.7656.5.6758 1.7773 1.0313 1.7344 4.6289-.9805 4.6289-.9766-.8672-1.2617-.5742-1.2969" class="g"/><path d="M395.273438 291.466563l-47.578126-5.039063-47.65625-5 6.757813-17.773437 10.3125-17.34375 46.289063 9.804687 46.289062 9.765625-8.671875 12.617188zm0 0" class="a"/><path d="M30.1289 142.4063l-4.7617.5039-4.7695.5039.7734 2.2539 1.1875 2.2109 4.6406-.9844 4.6367-.9766-1.0312-1.7344-.6758-1.7773" class="c"/><path d="M300.039062 281.4275l-47.617187-5.039062-47.695313-5.039063 7.734376-22.539062 11.875-22.109375 46.40625 9.84375 46.367187 9.765625-10.3125 17.34375zm0 0" class="a"/><path d="M20.5977 143.4141l-9.5391 1.0078.8633 2.7305 1.3398 2.6875 4.6523-.9805 4.6445-.9805-1.1875-2.2109-.7734-2.2539" class="f"/><path d="M204.726562 271.349375l-95.390624-10.078125 8.632812-27.304687 13.398438-26.875 46.523437 9.804687 46.445313 9.804688-11.875 22.109375zm0 0" class="a"/><path d="M50.3359 142.0078l-4.6172.9766-4.625.9766 1.1602 1.2109 1.4531 1.1445 4.3711-1.4336 4.3594-1.4375-1.1641-.6914-.9375-.7461" class="y"/><path d="M502.109375 285.411875 455.9375 275.64625l-46.25-9.765625 11.601562-12.109375 14.53125-11.445312 43.710938 14.335937 43.59375 14.375-11.640625 6.914063zm0 0" class="a"/><path d="M41.0938 143.9609l-4.6289.9766-4.6289.9805 1.3828 1.6758 1.7305 1.6016 4.3828-1.4375 4.375-1.4414-1.4531-1.1445-1.1602-1.2109" class="x"/><path d="M409.6875 265.880625 363.398438 256.115l-46.289063-9.804687L330.9375 229.5525l17.304688-16.015625 43.828124 14.375 43.75 14.414063-14.53125 11.445312zm0 0" class="a"/><path fill-rule="nonzero" fill="#9b9b9b" fill-opacity="1" d="M31.8359 145.918l-4.6367.9766-4.6406.9844 1.5977 2.1445 2.0117 2.0586 4.3945-1.4453 4.3867-1.4414-1.7305-1.6016-1.3828-1.6758"/><path d="M317.109375 246.310313l-46.367187-9.765625-46.40625-9.84375 15.976562-21.445313 20.117188-20.585937L304.375 199.122813l43.867188 14.414062L330.9375 229.5525zm0 0" class="a"/><path d="M22.5586 147.8789l-4.6445.9805-4.6523.9805 1.8164 2.6172 2.2813 2.5195 4.4102-1.4492 4.3984-1.4453-2.0117-2.0586-1.5977-2.1445" class="b"/><path d="M224.335938 226.700938l-46.445313-9.804688-46.523437-9.804687 18.164062-26.171875 22.8125-25.195313 44.101562 14.492188 43.984376 14.453125-20.117188 20.585937zm0 0" class="a"/><path fill-rule="nonzero" fill="#8c8c8c" fill-opacity="1" d="M52.4375 143.4453l-4.3594 1.4375-4.3711 1.4336 1.7305 1.0664 2.0078.9727 4.0039-1.8672 3.9922-1.8672-1.6094-.5469-1.3945-.6289"/><path d="M523.125 271.036875l-43.59375-14.375-43.710938-14.335937L453.125 231.661875l20.078125-9.726562 40.039063 18.671875 39.921874 18.671875-16.09375 5.46875zm0 0" class="a"/><path d="M43.707 146.3164l-4.375 1.4414-4.3828 1.4375 2.0703 1.5078 2.4023 1.3984 4.0156-1.875 4.0078-1.8711-2.0078-.9727-1.7305-1.0664" class="e"/><path d="M435.820312 242.325938l-43.75-14.414063-43.828124-14.375 20.703124-15.078125 24.023438-13.984375 40.15625 18.75 40.078125 18.710938-20.078125 9.726562zm0 0" class="a"/><path d="M34.9492 149.1953l-4.3867 1.4414-4.3945 1.4453 2.4102 1.9531 2.793 1.8242 4.0313-1.8789 4.0195-1.8789-2.4023-1.3984-2.0703-1.5078" class="o"/><path d="M348.242188 213.536875 304.375 199.122813l-43.945312-14.453125 24.101562-19.53125 27.929688-18.242188 40.3125 18.789063 40.195312 18.789062-24.023438 13.984375zm0 0" class="a"/><path d="M26.168 152.082l-4.3984 1.4453-4.4102 1.4492 2.7422 2.3984 3.1875 2.2578 4.0469-1.8867 4.0352-1.8867-2.793-1.8242-2.4102-1.9531" class="n"/><path d="M260.429688 184.669688l-43.984376-14.453125-44.101562-14.492188L199.765625 131.74l31.875-22.578125 40.46875 18.867188 40.351563 18.867187-27.929688 18.242188zm0 0" class="a"/><path d="M55.4414 144.6211l-3.9922 1.8672-4.0039 1.8672 2.2734.8633 2.5234.7461 3.5234-2.2617 3.5156-2.2539-2.0195-.3633-1.8203-.4648" class="z"/><path d="M553.164062 259.279063l-39.921874-18.671875-40.039063-18.671875L495.9375 213.3025l25.234375-7.460937 35.234375 22.617187 35.15625 22.539063-20.195312 3.632812zm0 0" class="a"/><path d="M47.4453 148.3555l-4.0078 1.8711-4.0156 1.875 2.7227 1.2695 3.0273 1.125 3.5391-2.2695 3.5313-2.2617-2.5234-.7461-2.2734-.8633" class="A"/><path d="M473.203125 221.935313 433.125 203.224375l-40.15625-18.75 27.226562-12.695312 30.273438-11.25 35.390625 22.695312 35.3125 22.617188L495.9375 213.3025zm0 0" class="a"/><path d="M39.4219 152.1016l-4.0195 1.8789-4.0312 1.8789 3.1719 1.6797 3.5313 1.5117 3.5547-2.2773 3.543-2.2773-3.0273-1.125-2.7227-1.2695" class="B"/><path d="M392.96875 184.474375l-40.195312-18.789062-40.3125-18.789063 31.71875-16.796875 35.3125-15.117187 35.546874 22.773437 35.429688 22.773438-30.273438 11.25zm0 0" class="a"/><path d="M31.3711 155.8594l-4.0352 1.8867-4.0469 1.8867 3.6211 2.0898 4.0313 1.9023 3.5703-2.2891 3.5625-2.2852-3.5312-1.5117-3.1719-1.6797" class="i"/><path d="M312.460938 146.89625l-40.351563-18.867187-40.46875-18.867188 36.210937-20.898437L308.164062 69.24l35.703126 22.890625 35.625 22.851563-35.3125 15.117187zm0 0" class="a"/><path d="M59.2813 145.4492l-3.5156 2.2539-3.5234 2.2617 2.7617.6055 2.9844.4648 2.9453-2.6016 2.9414-2.5937-2.3867-.1367-2.207-.2539" class="C"/><path d="M591.5625 250.997813l-35.15625-22.539063-35.234375-22.617187 27.617187-6.054688 29.84375-4.648437 29.453126 26.015625L637.5 247.091563l-23.867188 1.367187zm0 0" class="a"/><path d="M52.2422 149.9648l-3.5312 2.2617-3.5391 2.2695 3.3164.9688 3.582.793 2.9648-2.6172 2.9531-2.6055-2.9844-.4648-2.7617-.6055" class="c"/><path d="M521.171875 205.841563l-35.3125-22.617188-35.390625-22.695312 33.164062-9.6875 35.820313-7.929688 29.648437 26.171875 29.53125 26.054688-29.84375 4.648437zm0 0" class="a"/><path d="M45.1719 154.4961l-3.543 2.2773-3.5547 2.2773 3.8672 1.3281 4.1836 1.125 2.9766-2.6289 2.9688-2.6172-3.582-.793-3.3164-.9687" class="b"/><path d="M450.46875 160.529063l-35.429688-22.773438-35.546874-22.773437 38.671874-13.28125L460 90.450938 489.765625 116.74l29.6875 26.171875-35.820313 7.929688zm0 0" class="a"/><path fill-rule="nonzero" fill="#ababab" fill-opacity="1" d="M38.0742 159.0508l-3.5625 2.2852-3.5703 2.2891 4.4219 1.6914 4.7852 1.4609 2.9922-2.6406 2.9844-2.6328-4.1836-1.125-3.8672-1.3281"/><g clip-path="url(#m)"><path d="M379.492188 114.982188l-35.625-22.851563L308.164062 69.24l44.21875-16.914062 47.851563-14.609375 29.921875 26.40625L460 90.450938l-41.835938 11.25zm0 0" class="a"/></g><path fill-rule="nonzero" fill="#949494" fill-opacity="1" d="M63.875 145.8398l-2.9414 2.5938-2.9453 2.6016 3.1875.3047 3.3789.1367 2.2852-2.8828 2.2773-2.8711-2.6953.125-2.5469-.0078"/><path d="M637.5 247.091563l-29.414062-25.9375-29.453126-26.015625 31.875-3.046875 33.789063-1.367188 22.851563 28.828125 22.773437 28.710938-26.953125-1.25zm0 0" class="a"/><path d="M57.9883 151.0352l-2.9531 2.6055-2.9648 2.6172 3.8359.6016 4.0586.4023 2.2969-2.8984 2.293-2.8867-3.3789-.1367-3.1875-.3047" class="p"/><path d="M578.632812 195.138438l-29.53125-26.054688-29.648437-26.171875 38.359375-6.015625 40.585938-4.023437 22.96875 28.984375 22.929687 28.867187-33.789063 1.367188zm0 0" class="a"/><path d="M52.0703 156.2578l-2.9687 2.6172-2.9766 2.6289 4.4766.9063 4.7461.6719 2.3086-2.9141 2.3086-2.9062-4.0586-.4023-3.8359-.6016" class="D"/><path d="M519.453125 142.911875 489.765625 116.74 460 90.450938l44.765625-9.0625 47.460937-6.71875 23.085938 29.140625 23.085938 29.0625-40.585938 4.023437zm0 0" class="a"/><path d="M46.125 161.5039l-2.9844 2.6328-2.9922 2.6406 5.125 1.2109 5.4297.9453 2.3242-2.9297 2.3203-2.9219-4.7461-.6719-4.4766-.9062" class="q"/><g clip-path="url(#n)"><path d="M460 90.450938l-29.84375-26.328125-29.921875-26.40625 51.25-12.109375 54.296875-9.453125 23.242188 29.296875 23.203124 29.21875-47.460937 6.71875zm0 0" class="a"/></g><path d="M69.1172 145.7227l-2.2773 2.8711-2.2852 2.8828 3.543-.043 3.6875-.2266 1.5547-3.0898 1.5508-3.0859-2.9453.4219-2.8281.2695" class="E"/><path d="M689.921875 248.263438 667.148438 219.5525l-22.851563-28.828125 35.429687.429688 36.875 2.265625 15.546876 30.898437L747.65625 255.1775l-29.453125-4.21875zm0 0" class="a"/><path d="M64.5547 151.4766l-2.293 2.8867-2.2969 2.8984 4.2578.1914 4.4375-.0312 1.5664-3.1094 1.5586-3.1055-3.6875.2266-3.543.043" class="b"/><path d="M644.296875 190.724375l-22.929687-28.867187-22.96875-28.984375 42.578124-1.914063 44.375.3125 15.664063 31.09375 15.585937 31.054688-36.875-2.265625zm0 0" class="a"/><path fill-rule="nonzero" fill="#acacac" fill-opacity="1" d="M59.9648 157.2617l-2.3086 2.9063-2.3086 2.9141 4.9805.4258 5.1875.1641 1.5742-3.1289 1.5703-3.1211-4.4375.0313-4.2578-.1914"/><path d="M598.398438 132.872813l-23.085938-29.0625-23.085938-29.140625 49.804688-4.257813 51.875-1.640625 15.742188 31.289063 15.703124 31.210937-44.375-.3125zm0 0" class="a"/><path d="M74.8906 145.0313l-1.5508 3.0859-1.5547 3.0898 3.8086-.418 3.9102-.6211.7734-3.2266.7695-3.2187-3.1172.7344-3.0391.5742" class="p"/><path d="M747.65625 255.1775l-15.507812-30.859375-15.546876-30.898437 38.085938 4.179687 39.101562 6.210938 7.734376 32.265625 7.695312 32.1875-31.171875-7.34375zm0 0" class="a"/><path fill-rule="nonzero" fill="#b4b4b4" fill-opacity="1" d="M55.3477 163.082l-2.3203 2.9219-2.3242 2.9297 5.707.6641 5.9453.3633 1.582-3.1485 1.5781-3.1406-5.1875-.1641-4.9805-.4258"/><g clip-path="url(#o)"><path d="M552.226562 74.669688l-23.203124-29.21875-23.242188-29.296875 57.070312-6.640625 59.453126-3.632813L638.125 37.365l15.78125 31.40625-51.875 1.640625zm0 0" class="a"/></g><path d="M71.7852 151.207l-1.5586 3.1055-1.5664 3.1094 4.5859-.2617 4.7031-.5039.7773-3.25.7773-3.2383-3.9102.6211-3.8086.418" class="i"/><path d="M716.601562 193.419688 701.015625 162.365l-15.664063-31.09375 45.859376 2.617188 47.03125 5.039062 7.773437 32.5 7.773437 32.382813-39.101562-6.210938zm0 0" class="a"/><path d="M68.6602 157.4219l-1.5703 3.1211-1.5742 3.1289 5.3672-.1016 5.5039-.3867.7813-3.2695.7813-3.2578-4.7031.5039-4.5859.2617" class="F"/><path d="M685.351562 131.27125l-15.703124-31.210937L653.90625 68.77125l53.671875 1.015625 55.039063 3.867188 7.8125 32.695312 7.8125 32.578125-47.03125-5.039062zm0 0" class="a"/><path fill-rule="nonzero" fill="#a4a4a4" fill-opacity="1" d="M81.0469 143.7227l-.7695 3.2188-.7734 3.2266 3.9805-.8203 4.0313-1.0312-.0391-3.2852-.0391-3.2695-3.2148 1.0625-3.1758.8984"/><path d="M809.21875 268.263438l-7.695312-32.1875-7.734376-32.265625 39.804688 8.203125 40.3125 10.3125-.390625 32.851562-.390625 32.695313-32.148438-10.625zm0 0" class="a"/><path d="M65.5156 163.6719l-1.5781 3.1406-1.582 3.1484 6.1484.0547 6.3086-.2617.7891-3.2891.7852-3.2812-5.5039.3867-5.3672.1016" style="fill-rule:nonzero;fill:#bababa;fill-opacity:1;clip-path:url(#p)"/><g clip-path="url(#q)"><path d="M653.90625 68.77125 638.125 37.365 622.304688 5.880625l61.484374-.546875L746.875 7.950938l7.890625 32.890625 7.851563 32.8125-55.039063-3.867188zm0 0" class="a"/></g><path d="M79.5039 150.168l-.7773 3.2383-.7773 3.25 4.793-.75 4.8555-.9961-.0391-3.3008-.043-3.293-4.0312 1.0313-3.9805.8203" class="q"/><path d="M793.789062 203.810313l-7.773437-32.382813-7.773437-32.5 47.929687 7.5 48.554687 9.960938-.390624 33.007812-.429688 32.929688-40.3125-10.3125zm0 0" class="a"/><path fill-rule="nonzero" fill="#b8b8b8" fill-opacity="1" d="M77.9492 156.6563l-.7812 3.2578-.7812 3.2695 5.6094-.6719 5.6836-.9609-.043-3.3242-.0391-3.3164-4.8555.9961-4.793.75"/><path d="M778.242188 138.9275l-7.8125-32.578125-7.8125-32.695312 56.09375 6.71875 56.835937 9.609375-.429687 33.242187-.390626 33.164063-48.554687-9.960938zm0 0" class="a"/><path fill-rule="nonzero" fill="#aaa" fill-opacity="1" d="M87.4375 141.7617l.0391 3.2695.0391 3.2852 4.0547-1.2422 4.0547-1.4531-.8633-3.2539-.8594-3.2422-3.2305 1.4023-3.2344 1.2344"/><path d="M873.125 287.872813l.390625-32.695313.390625-32.851562 40.546875 12.421875L955 249.279063l-8.632812 32.539062-8.59375 32.421875-32.304688-14.023437zm0 0" class="a"/><path fill-rule="nonzero" fill="#c1c1c1" fill-opacity="1" d="M76.3867 163.1836l-.7852 3.2813-.7891 3.2891 6.4336-.5937 6.5117-.9258-.0391-3.3477-.0391-3.3359-5.6836.9609-5.6094.6719"/><g clip-path="url(#r)"><path d="M762.617188 73.654063l-7.851563-32.8125L746.875 7.950938l64.335938 5.9375 65.117187 9.257812-.390625 33.476563-.390625 33.359375-56.835937-9.609375zm0 0" class="a"/></g><path d="M87.5156 148.3164l.043 3.293.0391 3.3008 4.8828-1.2461 4.875-1.5039-.8672-3.2734-.8633-3.2656-4.0547 1.4531-4.0547 1.2422" class="r"/><path d="M873.90625 222.325938l.429688-32.929688.390624-33.007812 48.828126 12.460937 48.75 15.039063-8.671876 32.734375L955 249.279063l-40.546875-14.53125zm0 0" class="a"/><path d="M87.5977 154.9102l.0391 3.3164.043 3.3242 5.7109-1.2539 5.7109-1.5547-.875-3.2969-.8711-3.2852-4.875 1.5039-4.8828 1.2461" class="G"/><path d="M874.726562 156.388438l.390626-33.164063.429687-33.242187 57.109375 12.539062 57.109375 15.546875-8.75 32.96875-8.710937 32.851563-48.75-15.039063zm0 0" class="a"/><path d="M93.9023 139.125l.8594 3.2422.8633 3.2539 4.0234-1.6602 3.9648-1.8711-1.668-3.1406-1.668-3.1328-3.1641 1.7383-3.2109 1.5703" class="F"/><path d="M937.773438 314.24l8.59375-32.421875L955 249.279063l40.234375 16.601562 39.648437 18.710938-16.679687 31.40625-16.679687 31.328125-31.640626-17.382813zm0 0" class="a"/><path d="M87.6797 161.5508l.0391 3.3359.0391 3.3477 6.5508-1.2656 6.5469-1.6016-.8789-3.3164-.875-3.3086-5.7109 1.5547-5.7109 1.2539" class="s"/><g clip-path="url(#s)"><path d="M875.546875 89.982188l.390625-33.359375.390625-33.476563 65.507813 12.65625 65.46875 16.015625-8.789063 33.164063-8.75 33.085937-57.109375-15.546875zm0 0" class="a"/></g><path fill-rule="nonzero" fill="#bdbdbd" fill-opacity="1" d="M95.625 145.6211l.8633 3.2656.8672 3.2734 4.8438-1.7539 4.7734-2.0039-1.6797-3.1602-1.6797-3.1523-3.9648 1.8711-4.0234 1.6602"/><path d="M955 249.279063l8.632812-32.65625 8.671876-32.734375 48.4375 17.539062 47.734374 20.039063-16.796874 31.601562-16.796876 31.523438-39.648437-18.710938zm0 0" class="a"/><path d="M97.3555 152.1602l.8711 3.2852.875 3.2969 5.6641-1.8477 5.5898-2.1367-1.6953-3.1836-1.6875-3.1719-4.7734 2.0039-4.8437 1.7539" class="s"/><path d="M972.304688 183.888438l8.710937-32.851563 8.75-32.96875 56.640625 18.476563 55.898438 21.367187-16.953126 31.835938-16.875 31.71875-47.734374-20.039063zm0 0" class="a"/><path fill-rule="nonzero" fill="#bababa" fill-opacity="1" d="M100.2773 135.8164l1.668 3.1328 1.668 3.1406 3.8906-2.0742 3.7773-2.2773-2.4453-2.9492-2.4414-2.9414-3.0156 2.0664-3.1016 1.9023"/><path d="M1001.523438 347.325938l16.679687-31.328125 16.679687-31.40625 38.90625 20.742187 37.773438 22.773438-24.453125 29.492187-24.414063 29.414063-30.15625-20.664063zm0 0" class="a"/><path d="M99.1016 158.7422l.875 3.3086.8789 3.3164 6.4961-1.9414 6.4023-2.2773-1.7031-3.1992-1.6953-3.1914-5.5898 2.1367-5.6641 1.8477" class="t"/><g clip-path="url(#t)"><path d="M989.765625 118.068125l8.75-33.085937 8.789063-33.164063 64.960937 19.414063 64.023437 22.773437-17.03125 31.992188-16.953124 31.914062-55.898438-21.367187zm0 0" class="a"/></g><path fill-rule="nonzero" fill="#c5c5c5" fill-opacity="1" d="M103.6133 142.0898l1.6797 3.1523 1.6797 3.1602 4.6758-2.2461 4.5469-2.4922-2.4609-2.9648-2.4531-2.9609-3.7773 2.2773-3.8906 2.0742"/><path d="M1034.882812 284.591563l16.796876-31.523438 16.796874-31.601562 46.757813 22.460937 45.46875 24.921875-24.609375 29.648438-24.53125 29.609375-37.773438-22.773438zm0 0" class="a"/><path d="M106.9727 148.4023l1.6875 3.1719 1.6953 3.1836 5.4688-2.4258 5.3164-2.707-2.4766-2.9844-2.4687-2.9766-4.5469 2.4922-4.6758 2.2461" class="t"/><path d="M1068.476562 221.466563l16.875-31.71875 16.953126-31.835938 54.6875 24.257813L1210.15625 209.24l-24.765625 29.84375-24.6875 29.765625-45.46875-24.921875zm0 0" class="a"/><path fill-rule="nonzero" fill="#c2c2c2" fill-opacity="1" d="M106.3945 131.8477l2.4414 2.9414 2.4453 2.9492 3.6484-2.4687 3.4922-2.6602-3.1641-2.6797-3.1602-2.6758-2.7891 2.375-2.9141 2.2188"/><path d="M1062.695312 387.013438l24.414063-29.414063 24.453125-29.492187 36.484375 24.6875 34.921875 26.601562-31.640625 26.796875-31.601563 26.757813-27.890624-23.75zm0 0" class="a"/><path d="M110.3555 154.7578l1.6953 3.1914 1.7031 3.1992 6.2695-2.6055 6.0898-2.9219-2.4922-3.0039-2.4805-2.9922-5.3164 2.707-5.4687 2.4258" class="u"/><path d="M1102.304688 157.911875l16.953124-31.914062 17.03125-31.992188 62.695313 26.054688 60.898437 29.21875-24.921874 30.039062L1210.15625 209.24l-53.164062-27.070312zm0 0" class="a"/><path fill-rule="nonzero" fill="#cdcdcd" fill-opacity="1" d="M111.2813 137.7383l2.4531 2.9609 2.4609 2.9648 4.3906-2.7227 4.1953-2.9492-3.1836-2.6914-3.1758-2.6914-3.4922 2.6602-3.6484 2.4688"/><path d="M1111.5625 328.107188l24.53125-29.609375 24.609375-29.648438 43.90625 27.226563 41.953125 29.492187-31.835938 26.914063-31.757812 26.914062-34.921875-26.601562zm0 0" class="a"/><path d="M116.1953 143.6641l2.4688 2.9766 2.4766 2.9844 5.1289-2.9805 4.9063-3.2383-3.1992-2.7109-3.1953-2.7031-4.1953 2.9492-4.3906 2.7227" class="u"/><path d="M1160.703125 268.849375l24.6875-29.765625L1210.15625 209.24l51.289062 29.804688 49.0625 32.382812-31.992187 27.109375-31.953125 27.03125-41.953125-29.492187zm0 0" class="a"/><path fill-rule="nonzero" fill="#cacaca" fill-opacity="1" d="M112.0977 127.2539l3.1602 2.6758 3.1641 2.6797 3.3164-2.8359 3.1133-3.0078-3.8125-2.3437-3.8008-2.3398-2.4922 2.6563-2.6484 2.5156"/><path d="M1119.726562 432.950938l31.601563-26.757813 31.640625-26.796875 33.164062 28.359375 31.132813 30.078125-38.125 23.4375-38.007813 23.398438-24.921874-26.5625zm0 0" class="a"/><path d="M121.1406 149.625l2.4805 2.9922 2.4922 3.0039 5.8711-3.2383 5.6172-3.5352-3.2187-2.7227-3.207-2.7187-4.9062 3.2383-5.1289 2.9805" class="H"/><path d="M1210.15625 209.24l24.804688-29.921875 24.921874-30.039062 58.710938 32.382812 56.171875 35.351563-32.1875 27.226562-32.070313 27.1875-49.0625-32.382812zm0 0" class="a"/><path fill-rule="nonzero" fill="#d5d5d5" fill-opacity="1" d="M118.4219 132.6094l3.1758 2.6914 3.1836 2.6914 3.9844-3.1602 3.7383-3.3633-3.832-2.3555-3.8203-2.3477-3.1133 3.0078-3.3164 2.8359"/><path d="M1182.96875 379.39625l31.757812-26.914062 31.835938-26.914063 39.84375 31.601563 37.382812 33.632812-38.320312 23.554688-38.203125 23.476562-31.132813-30.078125zm0 0" class="a"/><path d="M124.7813 137.9922l3.1953 2.7031 3.1992 2.7109 4.6484-3.4883 4.3633-3.7227-3.8477-2.3672-3.8359-2.3594-3.7383 3.3633-3.9844 3.1602" class="I"/><path d="M1246.5625 325.568125l31.953125-27.03125 31.992187-27.109375 46.484376 34.882813 43.632812 37.226562-38.476562 23.671875-38.359376 23.59375-37.382812-33.632812zm0 0" class="a"/><path fill-rule="nonzero" fill="#d1d1d1" fill-opacity="1" d="M117.2383 122.082l3.8008 2.3398 3.8125 2.3438 2.8945-3.168 2.6523-3.3125-4.3633-1.9453-4.3594-1.9414-2.1211 2.9023-2.3164 2.7813"/><path d="M1171.132812 484.669688l38.007813-23.398438 38.125-23.4375 28.945313 31.679688 26.523437 33.125-43.632813 19.453125-43.59375 19.414062-21.210937-29.023437zm0 0" class="a"/><path d="M131.1758 143.4063l3.207 2.7188 3.2188 2.7227 5.3203-3.8203 4.9883-4.0859-3.8633-2.375-3.8594-2.3711-4.3633 3.7227-4.6484 3.4883" class="j"/><path d="M1310.507812 271.4275l32.070313-27.1875 32.1875-27.226562 53.203125 38.203125 49.882812 40.859375-38.632812 23.75-38.59375 23.710937-43.632812-37.226562zm0 0" class="a"/><path d="M124.8516 126.7656l3.8203 2.3477 3.832 2.3555 3.4688-3.5547 3.1797-3.7266-4.3828-1.9531-4.3711-1.9492-2.6523 3.3125-2.8945 3.168" class="J"/><path d="M1247.265625 437.83375l38.203125-23.476562 38.320312-23.554688 34.6875 35.546875 31.796876 37.265625-43.828126 19.53125-43.710937 19.492188-26.523437-33.125zm0 0" class="a"/><path d="M132.5039 131.4688l3.8359 2.3594 3.8477 2.3672 4.0469-3.9453 3.707-4.1445-4.3984-1.9609-4.3906-1.957-3.1797 3.7266-3.4687 3.5547" class="j"/><path d="M1323.789062 390.8025l38.359376-23.59375 38.476562-23.671875L1441.09375 382.99l37.070312 41.445313-43.984374 19.609375-43.90625 19.570312-31.796876-37.265625zm0 0" class="a"/><path d="M121.6758 116.3984l4.3594 1.9414 4.3633 1.9453 2.3945-3.4492 2.1211-3.5703-4.8125-1.4961-4.8008-1.4961-1.7031 3.1133-1.9219 3.0117" class="K"/><path d="M1215.507812 541.505625l43.59375-19.414062 43.632813-19.453125 23.945313 34.492187 21.210937 35.703125-48.125 14.960938-48.007813 14.960937-17.03125-31.132812zm0 0" class="a"/><path d="M140.1875 136.1953l3.8594 2.3711 3.8633 2.375 4.6211-4.3359 4.2305-4.5664-4.4141-1.9687-4.4062-1.9648-3.707 4.1445-4.0469 3.9453" class="v"/><path d="M1400.625 343.536875l38.59375-23.710937 38.632812-23.75 46.210938 43.359375 42.304688 45.664062-44.140626 19.6875-44.0625 19.648438L1441.09375 382.99zm0 0" class="a"/><path fill-rule="nonzero" fill="#e2e2e2" fill-opacity="1" d="M130.3984 120.2852l4.3711 1.9492 4.3828 1.9531 2.8672-3.8867 2.5352-4.0352-4.8242-1.5-4.8164-1.5-2.1211 3.5703-2.3945 3.4492"/><path d="M1302.734375 502.638438l43.710937-19.492188 43.828126-19.53125 28.671874 38.867188 25.351563 40.351562-48.242187 15-48.164063 15-21.210937-35.703125zm0 0" class="a"/><path fill-rule="nonzero" fill="#eaeaea" fill-opacity="1" d="M139.1523 124.1875l4.3906 1.957 4.3984 1.9609 3.3359-4.332 2.9492-4.4961-4.8398-1.5078-4.832-1.5039-2.5352 4.0352-2.8672 3.8867"/><path d="M1390.273438 463.615l43.90625-19.570312 43.984374-19.609375 33.359376 43.320312 29.492187 44.960938-48.398437 15.078125-48.320313 15.039062-25.351563-40.351562zm0 0" class="a"/><path d="M147.9414 128.1055l4.4063 1.9648 4.4141 1.9688 3.8047-4.7773 3.3594-4.9609-4.8516-1.5156-4.8477-1.5078-2.9492 4.4961-3.3359 4.332" class="L"/><path d="M1478.164062 424.435313l44.0625-19.648438 44.140626-19.6875 38.046874 47.773438 33.59375 49.609375-48.515624 15.15625-48.476563 15.078125-29.492187-44.960938zm0 0" class="a"/><path d="M125.3008 110.2734l4.8008 1.4961 4.8125 1.4961 1.832-3.6797 1.5313-3.7695-5.1367-1.0117-5.1328-1.0117-1.2383 3.2773-1.4687 3.2031" class="H"/><path d="M1251.757812 602.755625l48.007813-14.960937 48.125-14.960938 18.320313 36.796875 15.3125 37.695313-51.367188 10.117187-51.328125 10.117188-12.382813-32.773438zm0 0" class="a"/><path fill-rule="nonzero" fill="#e8e8e8" fill-opacity="1" d="M134.9141 113.2656l4.8164 1.5 4.8242 1.5 2.1875-4.1562 1.8242-4.2695-5.1445-1.0156-5.1445-1.0078-1.5312 3.7695-1.832 3.6797"/><path d="M1347.890625 572.83375l48.164063-15 48.242187-15 21.875 41.5625 18.242187 42.695313-51.445312 10.15625-51.445312 10.078125-15.3125-37.695313zm0 0" class="a"/><path d="M144.5547 116.2656l4.832 1.5039 4.8398 1.5078 2.5391-4.6406 2.1172-4.7656-5.1602-1.0156-5.1562-1.0156-1.8242 4.2695-2.1875 4.1563" class="M"/><path d="M1444.296875 542.83375l48.320313-15.039062 48.398437-15.078125 25.390625 46.40625 21.171875 47.65625-51.601563 10.15625-51.5625 10.15625-18.242187-42.695313zm0 0" class="a"/><path d="M154.2266 119.2773l4.8477 1.5078 4.8516 1.5156 2.8867-5.1289 2.4023-5.2695-5.168-1.0156-5.1641-1.0156-2.1172 4.7656-2.5391 4.6406" class="k"/><path d="M1541.015625 512.716563l48.476563-15.078125 48.515624-15.15625L1666.875 533.77125l24.023438 52.695313-51.679688 10.15625-51.640625 10.15625-21.171875-47.65625zm0 0" class="a"/><path fill-rule="nonzero" fill="#e1e1e1" fill-opacity="1" d="M128.0078 103.793l5.1328 1.0117 5.1367 1.0117 1.2188-3.8516.8984-3.9141-5.3359-.4961-5.3359-.5-.7344 3.3945-.9805 3.3438"/><path d="M1278.828125 667.560313l51.328125-10.117188 51.367188-10.117187 12.1875 38.515625 8.984374 39.140625-53.359374 4.960937-53.359376 5-7.34375-33.945312zm0 0" class="a"/><path d="M138.2773 105.8164l5.1445 1.0078 5.1445 1.0156 1.4492-4.3594 1.0664-4.4297-10.6875-1-.8984 3.9141-1.2187 3.8516" class="v"/><path d="M1381.523438 647.325938l51.445312-10.078125 51.445312-10.15625 14.492188 43.59375 10.664062 44.296875-106.875 10-8.984374-39.140625zm0 0" class="a"/><path fill-rule="nonzero" fill="#f2f2f2" fill-opacity="1" d="M148.5664 107.8398l5.1563 1.0156 5.1602 1.0156 1.6718-4.871 1.2227-4.9492-10.6953-1-1.0664 4.4297-1.4492 4.3594"/><path d="M1484.414062 627.091563l51.5625-10.15625 51.601563-10.15625 16.71875 48.710937 12.226563 49.492188-106.953126 10-10.664062-44.296875zm0 0" class="a"/><path d="M158.8828 109.8711l5.1641 1.0156 5.168 1.0156 1.8945-5.3789 1.3789-5.4687-5.3555-.5039-5.3555-.5L160.5547 105l-1.6719 4.8711" class="N"/><path d="M1587.578125 606.779063l51.640625-10.15625 51.679688-10.15625 18.945312 53.789062 13.789062 54.6875-53.554687 5.039063-53.554687 5L1604.296875 655.49zm0 0" class="a"/><path d="M161.7773 100.0508l5.3555.5 5.3555.5039.8516-5.5352.3203-5.5703-5.4102.0234-5.4062.0274-.3008 5.0469-.7656 5.0039" class="O"/><path d="M1616.523438 704.982188l53.554687-5 53.554687-5.039063 8.515626 55.351563 3.203124 55.703125-54.101562-.234375-54.0625-.273438-3.007812-50.46875zm0 0" class="a"/><path d="M151.082 99.0508l10.6953 1 .7656-5.0039.3009-5.0469-5.4062.0273-5.4102.0234-.2734 4.5156-.6719 4.4844" class="k"/><path d="M1509.570312 714.982188l106.953126-10 7.65625 50.039062L1627.1875 805.49l-54.0625-.273437-54.101562-.234375-2.734376-45.15625zm0 0" class="a"/><path fill-rule="nonzero" fill="#ededed" fill-opacity="1" d="M140.3945 98.0508l10.6875 1 .6719-4.4844.2734-4.5156-5.4062.0273-5.4062.0234-.2422 3.9922-.5781 3.957"/><path d="M1402.695312 724.982188l106.875-10 6.71875 44.84375 2.734376 45.15625-54.0625-.273438-54.0625-.234375-2.421876-39.921875zm0 0" class="a"/><path d="M129.7227 97.0547l5.3359.5 5.3359.4961.5781-3.957.2422-3.9922-5.4102.0273-5.4062.0234-.207 3.4648-.4687 3.4375" class="j"/><path d="M1295.976562 734.943125l53.359376-5 53.359374-4.960937 5.78125 39.570312 2.421876 39.921875-54.101563-.273437-54.0625-.234375-2.070313-34.648438zm0 0" class="a"/><path d="M162.8438 90l5.4063-.0273 5.4102-.0234-.2148-5.582-.7422-5.5664-5.3281.5469-5.3281.5508.6328 5.0469.1639 5.0545" class="O"/><path d="M1627.1875 805.49l54.0625.273438 54.101562.234375-2.148437 55.820312-7.421875 55.664063-53.28125-5.46875-53.28125-5.507813 6.328125-50.46875zm0 0" class="a"/><path d="M152.0273 90.0508l5.4102-.0234L162.8438 90l-.1641-5.0547-.6328-5.0469-5.332.5469-5.3359.5508.5273 4.5234.1211 4.5313" class="k"/><path d="M1519.023438 804.982188l54.101562.234375 54.0625.273437-1.640625 50.546875-6.328125 50.46875-53.320312-5.46875-53.359376-5.507812 5.273438-45.234375zm0 0" class="a"/><path fill-rule="nonzero" fill="#eee" fill-opacity="1" d="M141.2148 90.1016l5.4063-.0234 5.4063-.0273-.1211-4.5312-.5273-4.5234-5.3398.5469-5.3398.5508.4219 4.0039.0938 4.0039"/><path d="M1410.898438 804.474375l54.0625.234375 54.0625.273438-1.210938 45.3125-5.273438 45.234375-53.398437-5.46875-53.398437-5.507813 4.21875-40.039062zm0 0" class="a"/><path d="M130.3984 90.1523l5.4063-.0234 5.4102-.0273-.0937-4.0039-.4219-4.0039-10.6875 1.1016.3242 3.4805.0625 3.4766" class="j"/><path d="M1302.734375 803.966563l54.0625.234375 54.101563.273437-.9375 40.039063-4.21875 40.039062-106.875-11.015625 3.242187-34.804687zm0 0" class="a"/><path d="M162.0469 79.8984l5.3281-.5508 5.3281-.5469-1.2734-5.5273-1.7891-5.4609-5.1172 1.0547-5.1211 1.0547 1.5508 4.9609 1.0938 5.0156" class="N"/><path d="M1619.21875 906.505625l53.28125 5.507813 53.28125 5.46875-12.734375 55.273437-17.890625 54.609375-51.171875-10.546875-51.210937-10.546875 15.507812-49.609375zm0 0" class="a"/><path fill-rule="nonzero" fill="#f3f3f3" fill-opacity="1" d="M151.3789 80.9961l5.3359-.5508 5.332-.5469-1.0937-5.0156-1.5508-4.9609-5.1289 1.0586-5.1289 1.0547 1.3125 4.457.9219 4.5039"/><path d="M1512.539062 895.529063l53.359376 5.507812 53.320312 5.46875-10.9375 50.15625-15.507812 49.609375-51.289063-10.585937-51.289063-10.546875 13.125-44.570313zm0 0" class="a"/><path fill-rule="nonzero" fill="#ececec" fill-opacity="1" d="M140.6992 82.0938l5.3398-.5508 5.3398-.5469-.9219-4.5039-1.3125-4.457-5.1406 1.0625-5.1445 1.0586 1.0859 3.9531.7539 3.9844"/><path d="M1405.742188 884.5525l53.398437 5.507813 53.398437 5.46875-9.21875 45.039062-13.125 44.570313-51.40625-10.625-51.445312-10.585938 10.859375-39.53125zm0 0" class="a"/><path d="M159.4023 69.9219l5.1211-1.0547 5.1172-1.0547-2.3047-5.375-2.8008-5.2578-4.7812 1.5313-4.7891 1.5352 2.4375 4.7891 2 4.8867" class="k"/><path d="M1592.773438 1006.27125l51.210937 10.546875 51.171875 10.546875-23.046875 53.75-28.007813 52.578125-47.8125-15.3125-47.890624-15.351562 24.375-47.890625zm0 0" class="a"/><path d="M130.0117 83.1953l10.6875-1.1016-.7539-3.9844-1.0859-3.9531-5.1445 1.0625-5.1562 1.0625.8555 3.4453.5977 3.4688" class="P"/><path d="M1298.867188 873.536875l106.875 11.015625-7.539063 39.84375-10.859375 39.53125-51.445312-10.625-51.5625-10.625 8.554687-34.453125zm0 0" class="a"/><path d="M149.1445 72.0352l5.1289-1.0547 5.1289-1.0586-2-4.8867-2.4375-4.7891-4.793 1.5391-4.8047 1.543 2.0742 4.3125 1.7031 4.3945" class="L"/><path d="M1490.195312 985.138438l51.289063 10.546875 51.289063 10.585937-20 48.867188-24.375 47.890625-47.929688-15.390625-48.046875-15.429688 20.742187-43.125zm0 0" class="a"/><path d="M154.9648 60.2461l4.7891-1.5352 4.7813-1.5312-3.2773-5.125-3.7383-4.9648-4.3359 1.9727-4.3398 1.9766 3.2656 4.5352 2.8555 4.6719" class="M"/><path d="M1548.398438 1103.029063l47.890624 15.351562 47.8125 15.3125-32.773437 51.25-37.382813 49.648438-43.359374-19.726563-43.398438-19.765625 32.65625-45.351562zm0 0" class="a"/><path d="M138.8594 74.1563l5.1445-1.0586 5.1406-1.0625-1.7031-4.3945-2.0742-4.3125-4.8125 1.5391-4.8203 1.5469 1.7227 3.8398 1.4023 3.9023" class="Q"/><path d="M1387.34375 963.9275l51.445312 10.585938 51.40625 10.625-17.03125 43.945312-20.742187 43.125-48.125-15.390625-48.203125-15.46875 17.226562-38.398437zm0 0" class="a"/><path d="M145.3672 63.3281l4.8047-1.543 4.793-1.5391-2.8555-4.6719-3.2656-4.5352-4.3516 1.9805-4.3594 1.9844 2.793 4.1055 2.4414 4.2188" class="v"/><path d="M1452.421875 1072.20875l48.046875 15.429688 47.929688 15.390625-28.554688 46.71875-32.65625 45.351562-43.515625-19.804687-43.59375-19.84375 27.929687-41.054688zm0 0" class="a"/><path fill-rule="nonzero" fill="#e0e0e0" fill-opacity="1" d="M128.5586 76.2813l5.1563-1.0625 5.1445-1.0625-1.4023-3.9023-1.7227-3.8398-4.8242 1.5469-4.8359 1.5508 1.3711 3.3594 1.1133 3.4102"/><path d="M1284.335938 942.6775l51.5625 10.625 51.445312 10.625-14.023438 39.023438-17.226562 38.398437-48.242188-15.46875-48.359374-15.507812 13.710937-33.59375zm0 0" class="a"/><path d="M148.8438 51.0391l4.3398-1.9766 4.3359-1.9727-4.1836-4.7891-4.5977-4.5898-3.7773 2.3633-3.793 2.3711 4.0195 4.2109 3.6563 4.3828" class="Q"/><path d="M1487.1875 1195.099375l43.398438 19.765625 43.359374 19.726563-41.835937 47.890625-45.976563 45.898437-37.773437-23.632812-37.929687-23.710938L1450.625 1238.9275zm0 0" class="a"/><path d="M135.7344 66.4141l4.8203-1.5469 4.8125-1.5391-2.4414-4.2187-2.793-4.1055-4.3672 1.9883-4.3789 1.9922 2.3242 3.668 2.0234 3.7617" class="R"/><path d="M1356.09375 1041.349375l48.203125 15.46875 48.125 15.390625-24.414063 42.1875-27.929687 41.054688-43.671875-19.882813-43.789062-19.921875 23.242187-36.679687zm0 0" class="a"/><path d="M140.1328 55.0039l4.3594-1.9844 4.3516-1.9805-3.6562-4.3828-4.0195-4.2109-3.7969 2.375-3.8086 2.3789 3.4453 3.8281 3.125 3.9766" class="R"/><path d="M1400.078125 1155.450938l43.59375 19.84375 43.515625 19.804687-36.5625 43.828125-40.195312 42.109375-37.96875-23.75-38.085938-23.789062 34.453125-38.28125zm0 0" class="a"/><path d="M126.0742 69.5117l4.8359-1.5508 4.8242-1.5469-2.0234-3.7617-2.3242-3.668-4.3828 1.9961-4.3945 2 1.8516 3.2305 1.6133 3.3008" class="J"/><path d="M1259.492188 1010.372813l48.359374 15.507812 48.242188 15.46875-20.234375 37.617188-23.242187 36.679687-43.828126-19.960937-43.945312-20 18.515625-32.304688zm0 0" class="a"/><path d="M141.168 42.4453l3.793-2.3711 3.7773-2.3633-4.9844-4.375-5.3516-4.1406-3.1406 2.6992-3.1445 2.707 4.6875 3.8203 4.3633 4.0234" class="P"/><path d="M1410.429688 1281.036875l37.929687 23.710938 37.773437 23.632812-49.84375 43.75-53.515624 41.40625-31.40625-26.992187-31.445313-27.070313 46.875-38.203125zm0 0" class="a"/><path fill-rule="nonzero" fill="#dfdfdf" fill-opacity="1" d="M131.3867 58.9844l4.3789-1.9922 4.3672-1.9883-3.125-3.9766-3.4453-3.8281-3.8203 2.3906-3.8242 2.3906 2.8672 3.4414 2.6016 3.5625"/><path d="M1312.617188 1115.64625l43.789062 19.921875 43.671875 19.882813-31.25 39.765625-34.453125 38.28125-38.203125-23.90625-38.242187-23.90625 28.671874-34.414063zm0 0" class="a"/><path d="M133.5625 47.1992l3.8086-2.3789 3.7969-2.375-4.3633-4.0234-4.6875-3.8203-3.1562 2.7109-3.1641 2.7227 4.0195 3.4961 3.7461 3.668" class="I"/><path d="M1334.375 1233.497813l38.085938 23.789062 37.96875 23.75-43.632813 40.234375-46.875 38.203125-31.5625-27.109375-31.640625-27.226562 40.195312-34.960938zm0 0" class="a"/><path fill-rule="nonzero" fill="#dbdbdb" fill-opacity="1" d="M132.1172 34.6016l3.1445-2.707 3.1406-2.6992-5.6836-3.8906-5.9844-3.6328-2.4219 2.9688-2.4258 2.9805 5.25 3.375 4.9805 3.6055"/><path d="M1319.921875 1359.474375l31.445313 27.070313 31.40625 26.992187-56.835938 38.90625-59.84375 36.328125-24.21875-29.6875-24.257812-29.804687 52.5-33.75zm0 0" class="a"/><path d="M122.6094 62.9805l4.3945-2 4.3828-1.9961-2.6016-3.5625-2.8672-3.4414-3.8359 2.3984-3.8477 2.4023 2.293 3.0547 2.082 3.1445" class="u"/><path d="M1224.84375 1075.685313l43.945312 20 43.828126 19.960937-26.015626 35.625-28.671874 34.414063-38.359376-23.984375-38.476562-24.023438 22.929688-30.546875zm0 0" class="a"/><path d="M125.918 51.9805l3.8242-2.3906 3.8203-2.3906-3.7461-3.668-4.0195-3.4961-3.1719 2.7266-3.1836 2.7382 3.3555 3.168 3.1211 3.3125" class="K"/><path d="M1257.929688 1185.685313l38.242187 23.90625 38.203125 23.90625-37.460938 36.679687-40.195312 34.960938L1225 1277.872813 1193.164062 1250.49l33.554688-31.679687zm0 0" class="a"/><path fill-rule="nonzero" fill="#d7d7d7" fill-opacity="1" d="M125.7969 40.0352l3.1641-2.7227 3.1563-2.7109-4.9805-3.6055-5.25-3.375-2.4297 2.9883-2.4414 2.9961 4.5039 3.1172 4.2773 3.3125"/><path d="M1256.71875 1305.138438l31.640625 27.226562 31.5625 27.109375-49.804687 36.054688-52.5 33.75-24.296876-29.882813-24.414062-29.960937 45.039062-31.171875zm0 0" class="a"/><path fill-rule="nonzero" fill="#d4d4d4" fill-opacity="1" d="M121.8867 27.6211l2.4258-2.9805 2.4219-2.9687-6.2539-3.3516-6.4883-3.0703-1.6367 3.1719-1.6406 3.1797 5.6914 2.8867 5.4805 3.1328"/><path d="M1217.617188 1429.279063l24.257812 29.804687 24.21875 29.6875-62.539062 33.515625-64.882813 30.703125-16.367187-31.71875-16.40625-31.796875 56.914062-28.867187zm0 0" class="a"/><path fill-rule="nonzero" fill="#cecece" fill-opacity="1" d="M118.2344 56.7813l3.8477-2.4023 3.8359-2.3984-3.1211-3.3125-3.3555-3.1681-3.1875 2.7422-3.2031 2.75 2.6875 2.8398 2.4961 2.9492"/><path d="M1181.09375 1137.6775l38.476562 24.023438 38.359376 23.984375-31.210938 33.125-33.554688 31.679687-31.875-27.421875-32.03125-27.5 26.875-28.398437zm0 0" class="a"/><path fill-rule="nonzero" fill="#d0d0d0" fill-opacity="1" d="M119.4414 45.5l3.1836-2.7383 3.1719-2.7266-4.2773-3.3125-4.5039-3.1172-2.4492 3.0078-2.4531 3.0156 3.7617 2.8516 3.5663 3.0196"/><path d="M1193.164062 1250.49 1225 1277.872813l31.71875 27.265625-42.773438 33.125-45.039062 31.171875-24.492188-30.078125-24.53125-30.15625L1157.5 1280.685313zm0 0" class="a"/><path d="M117.0156 33.6055l2.4414-2.9961 2.4297-2.9883-5.4805-3.1328-5.6914-2.8867-1.6484 3.1953L107.4102 28l4.8945 2.6953 4.7109 2.9102" class="t"/><path d="M1168.90625 1369.435313l24.414062 29.960937 24.296876 29.882813-54.804688 31.328125-56.914062 28.867187-16.484376-31.953125-16.5625-32.03125 48.945313-26.953125zm0 0" class="a"/><path fill-rule="nonzero" fill="#ccc" fill-opacity="1" d="M110.7148 21.6016l1.6406-3.1797 1.6368-3.1719-6.6836-2.7734-6.8437-2.4648-.8125 3.2969-.8164 3.3125 6.0117 2.3594 5.8672 2.6211"/><path d="M1105.898438 1489.474375l16.40625 31.796875 16.367187 31.71875-66.835937 27.734375-68.4375 24.648438-8.125-32.96875-8.164063-33.125 60.117187-23.59375zm0 0" class="a"/><path d="M113.0508 50.9922l3.2031-2.75 3.1875-2.7422-3.5664-3.0195-3.7617-2.8516-2.4648 3.0234-2.4727 3.0352 3.0156 2.5898 2.8594 2.7148" class="S"/><path d="M1129.257812 1195.568125l32.03125 27.5 31.875 27.421875L1157.5 1280.685313l-37.617188 28.515625-24.648437-30.234375-24.726563-30.351563 30.15625-25.898437zm0 0" class="a"/><path d="M112.1133 39.6289l2.4531-3.0156 2.4492-3.0078-4.7109-2.9102L107.4102 28l-1.6562 3.2109-1.668 3.2266 4.0898 2.5039 3.9375 2.6875" class="s"/><path d="M1119.882812 1309.200938l24.53125 30.15625 24.492188 30.078125-47.109375 29.101562-48.945313 26.953125-16.5625-32.109375-16.679687-32.265625 40.898437-25.039062zm0 0" class="a"/><path d="M107.4102 28l1.6563-3.2031 1.6484-3.1953-5.8672-2.6211-6.0117-2.3594-.8164 3.3242-.8203 3.332 5.168 2.2461L107.4102 28" class="S"/><path d="M1072.851562 1425.49l16.5625 32.03125 16.484376 31.953125-58.671876 26.210938-60.117187 23.59375-8.164063-33.242188-8.203124-33.320312 51.679687-22.460938zm0 0" class="a"/><path fill-rule="nonzero" fill="#c4c4c4" fill-opacity="1" d="M98.8359 16.6211l.8164-3.3125.8125-3.2969-6.9687-2.1602-7.0547-1.8398.043 3.3516.0391 3.3633 6.1953 1.8086 6.1172 2.0859"/><g clip-path="url(#u)"><path d="M987.109375 1539.279063l8.164063 33.125 8.125 32.96875-69.6875 21.601562-70.546876 18.398438.429688-33.515625.390625-33.632813 61.953125-18.085937zm0 0" class="a"/></g><path d="M107.1758 45.6875l2.4727-3.0352 2.4648-3.0234-3.9375-2.6875-4.0898-2.5039-1.6719 3.2344-1.6758 3.2461 3.2813 2.3125 3.1563 2.457" class="T"/><path d="M1070.507812 1248.615l24.726563 30.351563 24.648437 30.234375-39.375 26.875-40.898437 25.039062-16.71875-32.34375-16.757813-32.460937 32.8125-23.125zm0 0" class="a"/><path d="M104.0859 34.4375l1.668-3.2266L107.4102 28l-5.043-2.4766-5.168-2.2461-.8242 3.3477-.8242 3.3555 4.3203 2.1328 4.2148 2.3242" class="G"/><path d="M1039.609375 1361.115l16.679687 32.265625 16.5625 32.109375-50.429687 24.765625-51.679687 22.460938L962.5 1439.24l-8.242188-33.554687 43.203126-21.328125zm0 0" class="a"/><path d="M97.1992 23.2773l.8203-3.332.8164-3.3242-6.1172-2.0859-6.1953-1.8086.043 3.375.043 3.3906 5.3281 1.7734 5.2617 2.0117" class="T"/><path d="M970.742188 1472.716563l8.203124 33.320312 8.164063 33.242188-61.171875 20.859375-61.953125 18.085937.429687-33.75.429688-33.90625 53.28125-17.734375zm0 0" class="a"/><path d="M100.7383 40.918l1.6758-3.2461 1.6719-3.2344-4.2148-2.3242-4.3203-2.1328-.832 3.3711-.832 3.3789 3.4686 2.0195 3.3828 2.168" class="U"/><path d="M1006.132812 1296.310313l16.757813 32.460937 16.71875 32.34375-42.148437 23.242188-43.203126 21.328125-8.320312-33.710938-8.320312-33.789062 34.6875-20.195313zm0 0" class="a"/><path fill-rule="nonzero" fill="#bcbcbc" fill-opacity="1" d="M86.5234 12.7266l-.0391-3.3633-.043-3.3516-7.0977-1.5273-7.1055-1.2031.9063 3.3281.9102 3.3398 6.2383 1.2461 6.2305 1.5313"/><g clip-path="url(#v)"><path d="M863.984375 1578.224375l-.390625 33.632813-.429688 33.515625-70.976562 15.273437-71.054688 12.03125 9.0625-33.28125 9.101563-33.398437 62.382813-12.460938zm0 0" class="a"/></g><path d="M95.5508 29.9805l.8242-3.3555.8242-3.3477-5.2617-2.0117-5.3281-1.7734.043 3.3984.043 3.4102 4.4531 1.7422 4.4023 1.9375" class="r"/><path d="M954.257812 1405.685313 962.5 1439.24l8.242188 33.476563L918.125 1492.83375l-53.28125 17.734375.429688-33.984375.429687-34.101562 44.53125-17.421875zm0 0" class="a"/><path d="M86.6094 19.4922l-.043-3.3906-.043-3.375-6.2305-1.5312-6.2383-1.2461.9141 3.3477.9141 3.3633 5.3633 1.293 5.3633 1.5391" class="r"/><path d="M864.84375 1510.568125l-.429688 33.90625-.429687 33.75-62.304687 15.3125-62.382813 12.460938 9.140625-33.476563 9.140625-33.632812 53.632813-12.929688zm0 0" class="a"/><path fill-rule="nonzero" fill="#adadad" fill-opacity="1" d="M93.8867 36.7305l.832-3.3789.832-3.3711-4.4023-1.9375-4.4531-1.7422.0391 3.4258.043 3.4336 3.5781 1.707 3.5313 1.8633"/><path d="M937.617188 1338.185313l8.320312 33.789062 8.320312 33.710938-44.023437 19.375-44.53125 17.421875.390625-34.257813.429688-34.335937 35.78125-17.070313zm0 0" class="a"/><path d="M74.0547 9.9492l-.9102-3.3398-.9062-3.3281-7.0703-.8828-6.9922-.5664 1.7617 3.2226 1.7695 3.2344 6.1406.6914 6.207.9688" class="U"/><g clip-path="url(#w)"><path d="M739.296875 1605.997813l-9.101563 33.398437-9.0625 33.28125-70.703124 8.828125-69.921876 5.664063 17.617188-32.226563 17.695312-32.34375 61.40625-6.914062zm0 0" class="a"/></g><path d="M86.6953 26.3008l-.043-3.4102-.043-3.3984-5.3633-1.5391-5.3633-1.293.918 3.3711.9219 3.3867 4.4883 1.3438 4.4844 1.5391" class="V"/><path d="M865.703125 1442.482188l-.429687 34.101562-.429688 33.984375-53.632812 15.390625-53.632813 12.929688 9.179687-33.710938 9.21875-33.867187 44.882813-13.4375zm0 0" class="a"/><path d="M75.8828 16.6602l-.9141-3.3633-.9141-3.3477-6.207-.9687-6.1406-.6914 1.7773 3.2422 1.7813 3.2539 5.2773.8203 5.3398 1.0547" class="q"/><path d="M757.578125 1538.888438l-9.140625 33.632812-9.140625 33.476563-62.070313 9.6875-61.40625 6.914062 17.773438-32.421875 17.8125-32.539062 52.773438-8.203125zm0 0" class="a"/><path d="M86.7773 33.1602l-.043-3.4336-.0391-3.4258-4.4844-1.5391-4.4883-1.3437.9258 3.3984.9297 3.4102 3.6016 1.3867 3.5977 1.5469" class="n"/><path d="M866.523438 1373.888438l-.429688 34.335937-.390625 34.257813-44.84375 15.390625-44.882813 13.4375 9.257813-33.984375 9.296875-34.101563 36.015625-13.867187zm0 0" class="a"/><path d="M61.707 8.2891l-1.7695-3.2344-1.7617-3.2227-6.8828-.2539-6.7227.0547 2.5938 3.043 2.6055 3.0508 5.9023.1445 6.0352.418" class="V"/><g clip-path="url(#x)"><path d="M615.820312 1622.599375l-17.695312 32.34375-17.617188 32.226563-68.828124 2.539062-67.226563-.546875 25.9375-30.429687 26.054687-30.507813 59.023438-1.445312zm0 0" class="a"/></g><path d="M77.7227 23.418l-.9219-3.3867-.918-3.3711-5.3398-1.0547-5.2773-.8203 1.7891 3.2695 1.793 3.2773 4.4141.9453 4.4609 1.1406" class="D"/><path d="M775.976562 1471.310313l-9.21875 33.867187-9.179687 33.710938-53.398437 10.546875-52.773438 8.203125 17.890625-32.695313 17.929687-32.773437 44.140626-9.453125zm0 0" class="a"/><path d="M65.2656 14.7852l-1.7812-3.2539-1.7773-3.2422-6.0352-.418-5.9023-.1445 2.6133 3.0586 2.6211 3.0703 5.0703.3516 5.1914.5781" class="i"/><path d="M651.40625 1557.638438l-17.8125 32.539062-17.773438 32.421875-60.351562 4.179688-59.023438 1.445312 26.132813-30.585937 26.210937-30.703125 50.703126-3.515625zm0 0" class="a"/><path d="M79.5781 30.2266l-.9297-3.4102-.9258-3.3984-4.4609-1.1406-4.4141-.9453 1.7969 3.2891 1.8086 3.3008 3.543 1.0742 3.582 1.2305" class="p"/><path d="M794.53125 1403.224375l-9.296875 34.101563-9.257813 33.984375-44.609374 11.40625-44.140626 9.453125 17.96875-32.890625 18.085938-33.007813 35.429688-10.742187zm0 0" class="a"/><path d="M68.8477 21.332l-1.793-3.2773-1.7891-3.2695-5.1914-.5781-5.0703-.3516 2.6289 3.082 2.6406 3.0898 4.2344.5586 4.3398.7461" class="B"/><path d="M687.226562 1492.169688l-17.929687 32.773437-17.890625 32.695313-51.914062 5.78125-50.703126 3.515625 26.289063-30.820313 26.40625-30.898437 42.34375-5.585938zm0 0" class="a"/><path d="M49.7695 7.7266 47.164 4.6758l-2.5937-3.043-6.5312.3555-6.2969.6523 3.3867 2.7852 3.3945 2.793 5.5195-.375 5.7266-.1172" class="i"/><g clip-path="url(#y)"><path d="M496.445312 1628.224375l-26.054687 30.507813-25.9375 30.429687-65.3125-3.554687-62.96875-6.523438 33.867187-27.851562 33.945313-27.929688 55.195313 3.75zm0 0" class="a"/></g><path d="M72.4531 27.9219l-1.8086-3.3008-1.7969-3.2891-4.3398-.7461-4.2344-.5586 2.6445 3.1016 2.6563 3.1094 3.3984.7656 3.4805.918" class="A"/><path d="M723.28125 1426.27125l-18.085938 33.007813-17.96875 32.890625-43.398437 7.460937-42.34375 5.585938 26.445313-31.015625 26.5625-31.09375 33.984374-7.65625zm0 0" class="a"/><path d="M55.0039 13.8555l-2.6211-3.0703-2.6133-3.0586-5.7266.1172-5.5195.375 3.4063 2.8008 3.418 2.8047 4.7383-.0898 4.918.1211" class="f"/><path d="M548.789062 1566.935313l-26.210937 30.703125-26.132813 30.585937-57.265624-1.171875-55.195313-3.75 34.0625-28.007812 34.179687-28.046875 47.382813.898437zm0 0" class="a"/><path d="M60.2734 20.0273l-2.6406-3.0898-2.6289-3.082-4.918-.1211-4.7383.0898 3.4219 2.8203 3.4375 2.8242 3.957.1875 4.1094.3711" class="c"/><path d="M601.484375 1505.216563l-26.40625 30.898437-26.289063 30.820313-49.179687 1.210937-47.382813-.898437 34.21875-28.203125 34.375-28.242188 39.570313-1.875zm0 0" class="a"/><path d="M38.5234 8.2188l-3.3945-2.793-3.3867-2.7852-6.0234.9297-5.7148 1.2031 4.1172 2.457 4.125 2.4609 5-.8555 5.2773-.6172" class="b"/><g clip-path="url(#z)"><path d="M383.984375 1623.3025l-33.945313 27.929688-33.867187 27.851562-60.234375-9.296875-57.148438-12.03125 41.171876-24.570312 41.25-24.609375 50 8.554687zm0 0" class="a"/></g><path d="M65.5742 26.2383l-2.6562-3.1094-2.6445-3.1016-4.1094-.3711-3.957-.1875 3.4453 2.8359 3.457 2.8398 3.168.4766 3.2969.6172" class="g"/><path d="M654.492188 1443.107188l-26.5625 31.09375-26.445313 31.015625-41.09375 3.710937-39.570313 1.875 34.453126-28.359375 34.570312-28.398437 31.679688-4.765625zm0 0" class="a"/><path d="M45.3477 13.8242l-3.418-2.8047-3.4062-2.8008-5.2773.6172-5 .8555 4.1328 2.4688 4.1484 2.4766 4.2891-.5078 4.5313-.3047" class="o"/><path d="M452.226562 1567.247813l-34.179687 28.046875-34.0625 28.007812-52.773437-6.171875-50-8.554687 41.328124-24.6875 41.484376-24.765625 42.890624 5.078125zm0 0" class="a"/><path d="M52.207 19.4688l-3.4375-2.8242-3.4219-2.8203-4.5312.3047-4.2891.5078 4.1563 2.4805 4.168 2.4883 3.5742-.1523 3.7813.0156" class="e"/><path d="M520.820312 1510.8025l-34.375 28.242188-34.21875 28.203125-45.3125-3.046875-42.890624-5.078125 41.5625-24.804688 41.679687-24.882812 35.742187 1.523437zm0 0" class="a"/><path fill-rule="nonzero" fill="#9f9f9f" fill-opacity="1" d="M28.2461 9.6914l-4.125-2.4609-4.1172-2.457-5.3633 1.457-4.9843 1.6992 4.7617 2.0586 4.7734 2.0664 4.3594-1.2852 4.6953-1.0781"/><g clip-path="url(#A)"><path d="M281.210938 1608.575938l-41.25 24.609375-41.171876 24.570312-53.632812-14.570312-49.84375-16.992188 47.617188-20.585937 47.734374-20.664063 43.59375 12.851563zm0 0" class="a"/></g><path d="M59.1094 25.1445l-3.457-2.8398-3.4453-2.8359-3.7812-.0156-3.5742.1523 4.1758 2.4922 4.1914 2.5 2.8633.207 3.0273.3398" class="w"/><path d="M589.84375 1454.044688l-34.570312 28.398437-34.453126 28.359375-37.8125.15625-35.742187-1.523437 41.757813-24.921875 41.914062-25 28.632812-2.070313zm0 0" class="a"/><path d="M36.5273 14.6367l-4.1484-2.4766-4.1328-2.4687-4.6953 1.0781-4.3594 1.2852 4.7852 2.0703 4.793 2.0742 3.7344-.8711 4.0234-.6914" class="E"/><path d="M364.023438 1559.122813l-41.484376 24.765625-41.328124 24.6875-46.953126-10.78125-43.59375-12.851563L238.515625 1564.24l47.929687-20.742187 37.34375 8.710937zm0 0" class="a"/><path d="M44.8516 19.6055l-4.168-2.4883-4.1562-2.4805-4.0234.6914-3.7344.8711 4.8086 2.0781 4.8125 2.082 3.1055-.4492 3.3555-.3047" class="C"/><path d="M447.265625 1509.435313l-41.679687 24.882812-41.5625 24.804688-40.234376-6.914063-37.34375-8.710937 48.085938-20.78125 48.125-20.820313 31.054688 4.492188zm0 0" class="a"/><path d="M53.2188 24.5977l-4.1914-2.5-4.1758-2.4922-3.3555.3047-3.1055.4492 4.8281 2.0898 4.8359 2.0898 2.4805-.0273 2.6836.0859" class="h"/><path d="M530.9375 1459.513438l-41.914062 25-41.757813 24.921875-33.554687-3.046875-31.054688-4.492188 48.28125-20.898437 48.359375-20.898438 24.804687.273438zm0 0" class="a"/><path d="M19.1914 12.0547 14.418 9.9883 9.6563 7.9297 5.0859 9.8516.9687 11.9766l5.3164 1.6055 5.3281 1.6094 3.5898-1.6562 3.9883-1.4805" style="fill-rule:nonzero;fill:#9b9b9b;fill-opacity:1;clip-path:url(#B)"/><g clip-path="url(#C)"><path d="M190.664062 1584.943125l-47.734374 20.664063-47.617188 20.585937-45.703125-19.21875-41.171875-21.25 53.164062-16.054687 53.28125-16.09375 35.898438 16.5625zm0 0" class="a"/></g><path d="M28.7695 16.1992l-4.7929-2.0742-4.7852-2.0703-3.9883 1.4805-3.5898 1.6563 5.332 1.6094 5.3438 1.6133 3.0703-1.1797 3.4102-1.0352" class="e"/><path d="M286.445312 1543.497813 238.515625 1564.24l-47.851563 20.703125-39.882812-14.804687-35.898438-16.5625 53.320313-16.09375 53.4375-16.132813 30.703125 11.796875zm0 0" class="a"/><path d="M38.3906 20.3594l-4.8125-2.082-4.8086-2.0781-3.4102 1.0352-3.0703 1.1797 5.3555 1.6172 5.3633 1.6211 2.5469-.707 2.8359-.5859" class="z"/><path d="M382.65625 1501.89625l-48.125 20.820313-48.085938 20.78125-34.101562-10.351563-30.703125-11.796875 53.554687-16.171875 53.632813-16.210937 25.46875 7.070312zm0 0" class="a"/><path fill-rule="nonzero" fill="#878787" fill-opacity="1" d="M48.0547 24.5391l-4.8359-2.0898-4.8281-2.0898-2.8359.5859-2.5469.707 5.3711 1.6211 5.3789 1.6211 2.0313-.2227 2.2656-.1328"/><g class="a"><path d="M479.296875 1460.099375l-48.359375 20.898438-48.28125 20.898437-28.359375-5.859375-25.46875-7.070312 53.710937-16.210938 53.789063-16.210937 20.3125 2.226562zm0 0"/><path d="M870 721.622813v280.820312"/></g><path d="M87.125 73.6602h1.4961l-1.4961-3.3555-1.4922 3.3555h1.4922" class="l"/><path d="M870 968.888438h14.960938L870 1002.443125l-14.921875-33.554687zm0 0" class="a"/><use x="84.366" y="66.201" href="#L" class="m"/></g><path d="M5.4219-5.7656c0-.25-.03125-2.046875-1.453125-2.046875-2.109375 0-3.625 3.3125-3.625 5.609375C.34375-1.765625.421875.125 1.9375.125c2.375 0 3.484375-4.0625 3.484375-5.890625zm-.7969-.7031c0 .640625-.171875 1.53125-.40625 2.5H1.625c.4375-1.734425 1.1875-3.5938 2.328125-3.5938.484375 0 .671875.421875.671875 1.09375zm-.5312 2.9375C3.734375-2.140625 3.3125-.125 2.109375-.125c-.65625 0-.90625-.578125-.90625-1.375 0-.59375.140625-1.3125.296875-2.03125zm0 0" id="G"/><path d="M5.0625-7.3281c0-.4375-.4375-.78125-1.015625-.78125s-1.03125.25-1.46875.78125c-.359375.484375-.625 1.046875-.96875 2.21875H.5l-.0781.375H1.5L.4375.2813C.171875 1.578175-.21875 2.2188-.71875 2.2188c-.140625 0-.234375-.078125-.234375-.1875 0-.046875.015625-.078125.046875-.125.046875-.078125.0625-.125.0625-.203125 0-.25-.21875-.453125-.46875-.453125s-.4375.21875-.4375.5c0 .40625.40625.71875.9375.71875 1.0625 0 1.890625-1.171875 2.390625-3.375L2.4375-4.7344h1.2969l.0781-.375H2.5156C2.875-7 3.3125-7.84375 3.984375-7.84375c.15625 0 .265625.0625.265625.15625 0 0-.015625.0625-.046875.109375-.0625.09375-.078125.15625-.078125.25 0 .28125.171875.484375.4375.484375.28125 0 .5-.21875.5-.484375zm0 0" id="H"/><path d="M4.9688-1.2344l-.1562-.0937c-.109375.125-.15625.1875-.265625.328125-.28125.359375-.40625.46875-.5625.46875-.171875 0-.28125-.15625-.359375-.484375-.03125-.109375-.046875-.171875-.046875-.1875-.296875-1.125-.4375-1.765625-.4375-1.953125C3.671975-4.0781 4.09385-4.60935 4.3126-4.60935c.078125 0 .1875.046875.296875.109375.140625.078125.21875.09375.328125.09375.234375 0 .40625-.171875.40625-.421875 0-.265625-.203125-.4375-.484375-.4375-.53125 0-.96875.421875-1.8125 1.703125l-.125-.6562c-.171875-.8125-.296875-1.046875-.625-1.046875-.28125 0-.65625.09375-1.40625.34375l-.125.0469.0469.1719.203-.047c.234375-.0625.375-.078125.46875-.078125.296875 0 .375.109375.53125.828125l.3438 1.4688-.9687 1.3906c-.250075.35935-.48445.5781-.60945.5781-.078125 0-.203125-.03125-.3125-.109375C.3125-.75.1875-.78125.078125-.78125c-.234375 0-.40625.171875-.40625.40625 0 .3125.234375.5.609375.5.359375 0 .5-.09375 1.109375-.8125L2.4688-2.1094l.3594 1.4375c.140625.625.296875.796875.6875.796875.453125 0 .765625-.28125 1.453125-1.359375zm0 0" id="a"/><path d="M2.3281-.0781c0-.984375-.6875-1.140625-.96875-1.140625-.296875 0-.6875.171875-.6875.6875 0 .484375.421875.609375.734375.609375.09375 0 .140625-.015625.1875-.03125s.07815-.01565.1094-.01565c.078125 0 .15625.046875.15625.15625 0 .234375-.1875.765625-.96875 1.265625l.0938.2344c.359375-.125 1.34375-.90625 1.34375-1.765625zm0 0" id="b"/><path d="M5.0938-4.6094c0-.359375-.296875-.65625-.65625-.65625-.28125 0-.46875.171875-.46875.4375 0 .1875.09375.3125.328125.46875.234375.125.3125.234375.3125.40625 0 .46875-.421875 1.390625-1.453125 3.09375L2.9219-2.25c-.1875-1.0625-.859375-3.015625-1.03125-3.015625h-.1562L.5625-5.0625l-.3906.0781v.2031c.15625-.03125.25-.046875.375-.046875.484375 0 .703125.171875.921875.765625.328125.8125.984375 3.484375.984375 3.96875 0 .125-.046875.265625-.125.421875-.09375.15625-.625.859375-.84375 1.078125-.28125.296875-.421875.40625-.578125.40625-.078125 0-.15625-.046875-.28125-.140625C.4375 1.53125.328125 1.46875.171875 1.46875c-.25 0-.453125.203125-.453125.46875 0 .3125.25.53125.609375.53125.671875 0 1.96875-1.375 3.203125-3.4375 1-1.65625 1.5625-2.96875 1.5625-3.640625zm0 0" id="c"/><path d="M6.8594-3.9375v-.6719H.7344v.6719zm0 2.4219v-.6719H.7344v.6719zm0 0" id="I"/><path d="M3.5313-8.5781C1.796925-7.4531.578175-5.5156.578175-3.0781c0 2.234375 1.265625 4.484375 2.90625 5.5l.1563-.2031C2.0625.984375 1.609375-.46875 1.609375-3.109375c0-2.65625.484375-4.03125 2.03125-5.265625zm0 0" id="d"/><path d="M.4531-8.5781.3438-8.375C1.890625-7.140625 2.375-5.765625 2.375-3.109375 2.375-.46875 1.921875.984375.34375 2.21875l.1406.2031c1.65625-1.015625 2.921875-3.265625 2.921875-5.5 0-2.4375-1.21875-4.375-2.953125-5.5zm0 0" id="e"/><path d="M5.3594-.9375l-.0937-.2344c-.4375.359375-.734375.53125-.921875.53125S4-.75 3.890625-.984375s-.25-.671875-.3125-1.03125L3.375-3.2187l.4219-.5781c.546875-.78125.875-1.0625 1.25-1.0625.1875 0 .328125.109375.390625.28125L5.6094-4.625l.1719-1.0156c-.140625-.078125-.25-.125-.359375-.125-.46875 0-.953125.4375-1.6875 1.53125l-.4531.6563-.0625-.5625c-.140625-1.1875-.46875-1.625-1.171875-1.625-.3125 0-.578125.09375-.6875.25l-.6875 1L.875-4.4062c.359375-.40625.59375-.5625.828125-.5625.390625 0 .65625.484375.859375 1.65625l.125.75-.4687.7344c-.515625.796875-.921875 1.1875-1.265625 1.1875C.78125-.640625.640625-.6875.625-.75l-.1406-.3437-.2344.0468c0 .2344-.015625.39065-.09375.76565C.125-.125.125-.09375.109375-.015625.28125.078125.484375.125.625.125c.390625 0 .859375-.34375 1.234375-.90625l.9063-1.3906.125.8281C3.0625-.328125 3.328125.125 3.75.125c.265625 0 .65625-.203125 1.03125-.546875zm0 0" id="J"/><path d="M5.8594-5.6562l-.1406-.1094c-.34375.140625-.609375.203125-.875.234375l-.4219 1.5781c-.140625.5625-.5625 1.4375-.953125 2.015625-.421875.609375-1 1.140625-1.265625 1.140625s-.25-.578125-.234375-.734375l.1875-2.3125c.015625-.375.046875-.828125.046875-1.171875 0-.53125-.09375-.75-.296875-.75-.15625 0-.3125.09375-.890625.484375l-.9844.6719.1406.2031.5938-.3437c.0625-.0625.21875-.15625.296875-.15625.3125 0 .265625.609375.25.8125L1.1094-1.1875l-.0156.4688c0 .5.21875.84375.515625.84375.453125 0 1.453125-1.015625 2.34375-2.359375L3.375-.1875c-.609375 2.109375-1.21875 2.984375-2.046875 2.984375-.421875 0-.75-.328125-.75-.734375 0-.0625.015625-.15625.03125-.265625L.4844 1.75l-.5625.4063c-.015625.078125-.015625.15625-.015625.203125 0 .515625.4375.9375.984375.9375 1.265625 0 2.578125-1.484375 3.28125-3.6875zm0 0" id="K"/><path d="M4.8125-1.7031h-.2656l-.2656.7188c-.078125.21875-.21875.296875-.46875.296875-.265625 0-.53125-.0625-.796875-.125-.390675-.0782-.796925-.1407-1.0313-.1407-.375 0-.703125.0625-1.140625.25l4.0625-4.5625.0625-.3906-.1094-.1094-.2656.2813c-.125.125-.25.171875-.40625.171875-.40625 0-1.03125-.109375-1.609375-.25-.3125-.09375-.625-.203125-.953125-.203125-.203125 0-.4375.046875-.734375.125l-.375 1.4531h.25L1.125-4.875c.203125-.046875.3125-.0625.46875-.0625s.296875.015625.53125.0625c.40625.078125.71875.125.96875.125.4375 0 .71875-.078125 1.109375-.28125L-.0156-.25.0938.0781c.3437-.281225.671825-.3906 1.0937-.3906.296875 0 .625.046875 1.25.203125C3.15625.0625 3.53125.125 3.84375.125c.15625 0 .25-.015625.609375-.109375.125-.75.21875-1.15625.359375-1.71875zm0 0" id="L"/></defs><use href="#E"/><use x="108.511" y="72.456" href="#G"/><use x="117.7524" y="72.456" href="#I"/><use x="130.7596" y="72.456" href="#H"/><use x="136.785" y="72.456" href="#d"/><use x="141.2443" y="72.456" href="#a"/><use x="147.1263" y="72.456" href="#b"/><use x="152.7213" y="72.456" href="#c"/><use x="158.4837" y="72.456" href="#e"/><use x="100.449" y="26.531" href="#d"/><use x="104.9083" y="26.531" href="#a"/><use x="110.7902" y="26.531" href="#b"/><use x="116.3853" y="26.531" href="#c"/><use x="122.1477" y="26.531" href="#e"/><use transform="translate(198 1)" href="#F"/><style>.a{fill:none;stroke:#000;stroke-linecap:butt;stroke-linejoin:miter;stroke-miterlimit:10;stroke-opacity:1;stroke-width:3.985;transform:matrix(.1,0,0,-.1,.125,170.549)}.b{fill:#a3a3a3;fill-opacity:1;fill-rule:nonzero}.c{fill:#9a9a9a;fill-opacity:1;fill-rule:nonzero}.d{fill:none;stroke:#000;stroke-linecap:butt;stroke-linejoin:miter;stroke-miterlimit:10;stroke-opacity:1;stroke-width:4.72425;transform:matrix(.1,0,0,-.1,-.124,171.549)}.e{fill:#959595;fill-opacity:1;fill-rule:nonzero}.f{fill:#a2a2a2;fill-opacity:1;fill-rule:nonzero}.g{fill:#929292;fill-opacity:1;fill-rule:nonzero}.h{fill:#8a8a8a;fill-opacity:1;fill-rule:nonzero}.i{fill:#a8a8a8;fill-opacity:1;fill-rule:nonzero}.j{fill:#e4e4e4;fill-opacity:1;fill-rule:nonzero}.k{fill:#f4f4f4;fill-opacity:1;fill-rule:nonzero}.l{fill:#000;fill-opacity:1;fill-rule:nonzero}.m{fill:#000;fill-opacity:1}.n{fill:#a5a5a5;fill-opacity:1;fill-rule:nonzero}.o{fill:#9d9d9d;fill-opacity:1;fill-rule:nonzero}.p{fill:#9e9e9e;fill-opacity:1;fill-rule:nonzero}.q{fill:#afafaf;fill-opacity:1;fill-rule:nonzero}.r{fill:#b6b6b6;fill-opacity:1;fill-rule:nonzero}.s{fill:#c7c7c7;fill-opacity:1;fill-rule:nonzero}.t{fill:#cfcfcf;fill-opacity:1;fill-rule:nonzero}.u{fill:#d6d6d6;fill-opacity:1;fill-rule:nonzero}.v{fill:#ebebeb;fill-opacity:1;fill-rule:nonzero}.w{fill:#8d8d8d;fill-opacity:1;fill-rule:nonzero}.x{fill:#939393;fill-opacity:1;fill-rule:nonzero}.y{fill:#8b8b8b;fill-opacity:1;fill-rule:nonzero}.z{fill:#8e8e8e;fill-opacity:1;fill-rule:nonzero}.A{fill:#979797;fill-opacity:1;fill-rule:nonzero}.B{fill:#a0a0a0;fill-opacity:1;fill-rule:nonzero}.C{fill:#919191;fill-opacity:1;fill-rule:nonzero}.D{fill:#a7a7a7;fill-opacity:1;fill-rule:nonzero}.E{fill:#989898;fill-opacity:1;fill-rule:nonzero}.F{fill:#b2b2b2;fill-opacity:1;fill-rule:nonzero}.G{fill:#bfbfbf;fill-opacity:1;fill-rule:nonzero}.H{fill:#ddd;fill-opacity:1;fill-rule:nonzero}.I{fill:#dedede;fill-opacity:1;fill-rule:nonzero}.J{fill:#dcdcdc;fill-opacity:1;fill-rule:nonzero}.K{fill:#d8d8d8;fill-opacity:1;fill-rule:nonzero}.L{fill:#f0f0f0;fill-opacity:1;fill-rule:nonzero}.M{fill:#efefef;fill-opacity:1;fill-rule:nonzero}.N{fill:#f7f7f7;fill-opacity:1;fill-rule:nonzero}.O{fill:#f8f8f8;fill-opacity:1;fill-rule:nonzero}.P{fill:#e3e3e3;fill-opacity:1;fill-rule:nonzero}.Q{fill:#e9e9e9;fill-opacity:1;fill-rule:nonzero}.R{fill:#e5e5e5;fill-opacity:1;fill-rule:nonzero}.S{fill:#c6c6c6;fill-opacity:1;fill-rule:nonzero}.T{fill:#bebebe;fill-opacity:1;fill-rule:nonzero}.U{fill:#b5b5b5;fill-opacity:1;fill-rule:nonzero}.V{fill:#aeaeae;fill-opacity:1;fill-rule:nonzero}</style></svg>