<svg xmlns="http://www.w3.org/2000/svg" width="282pt" height="167pt" viewBox="0 0 282 167"><defs><path d="M4.6406-3.6562c0-2.171875-.65625-3.21875-2.015625-3.21875C1.0781-6.87495.29685-5.640575.29685-3.234325.296875-2.0625.5-1.0625.84375-.5625 1.203125-.078125 1.75.203125 2.375.203125c1.5 0 2.265625-1.296875 2.265625-3.859375zm-.8437.5c0 2.125-.375 3-1.296875 3-.96875 0-1.375-1-1.375-3.4375 0-2.09375.375-2.921875 1.3125-2.921875.96875 0 1.359375.96875 1.359375 3.359375zm0 0" id="a"/><path d="M4.1719.0313v-.2969l-.5156-.0312C3.09375-.328125 3-.4375 3-.953125V-6.875l-.1406-.0469c-.64065.343775-1.3594.64065-2.26565.95315l.0781.4375h.0938c.4375-.203125.875-.40625 1.3125-.59375.0625 0 .078125.09375.078125.328125v4.8438c0 .515625-.109375.625-.640625.65625l-.5625.0313V.0313C1.5.015625 2.046875 0 2.609375 0 3.125 0 3.65625.015625 4.171875.03125zm0 0" id="b"/><path d="M4.6719.0313c-.03125-.203125-.03125-.3125-.03125-.453125 0-.125 0-.21875.03125-.453125L1.2188-.7656l1.8125-1.9219C4-3.71875 4.296875-4.265625 4.296875-5.015625 4.296875-6.15625 3.515625-6.875 2.25-6.875c-.71875 0-1.203125.203125-1.6875.703125L.3906-4.8125h.2813l.1406-.4687c.15625-.578125.515625-.8125 1.1875-.8125.84375 0 1.40625.53125 1.40625 1.375 0 .75-.421875 1.484375-1.546875 2.6875L.1563-.2344v.2657C.890625.015625 1.640625 0 2.375 0c.765625 0 1.53125.015625 2.296875.03125zm0 0" id="c"/><path d="M4.6094-2.2344c0-.484375-.203125-.890625-.5625-1.140625-.25-.1875-.484375-.265625-.96875-.359375.796875-.609375 1.09375-1.078125 1.09375-1.65625 0-.890625-.75-1.484375-1.84375-1.484375-.6875 0-1.125.203125-1.609375.671875L.4219-4.9687h.3125l.1875-.5469c.109375-.34375.734375-.6875 1.25-.6875.65625 0 1.171875.53125 1.171875 1.15625 0 .75-.578125 1.375-1.296875 1.375-.078125 0-.46875-.03125-.46875-.03125l-.1094.5313.0625.0625c.375-.171875.578125-.21875.84375-.21875.828125 0 1.296875.53125 1.296875 1.4375 0 1.015625-.59375 1.6875-1.53125 1.6875-.453125 0-.859375-.15625-1.15625-.4375-.25-.21875-.375-.453125-.5625-.984375l-.2656.0938C.359375-.921875.4375-.5625.5-.0625c.53125.1875.96875.265625 1.328125.265625 1.21875 0 2.78125-1.046875 2.78125-2.4375zm0 0" id="d"/></defs><g class="a"><path d="M190 181.601562l1.25 282.578126 1.289062 13.828124 1.25 145.195313 1.25-65.429687 1.25 60.859374 1.289063-50.664062 1.25 63.203125 1.25-55.585937 1.25 112.5 1.289063-21.796876 1.25 114.257813 1.25-11.992187 1.25 5.117187 1.289062-80.117187 1.25 28.984374 1.25-41.875 1.25 40.3125 1.289062 33.203126 1.25 65.898437 1.25-58.867187 1.25-88.789063 1.289063 8.554687 1.25-11.367187 1.25 23.4375 1.25-46.757813 1.289063 31.132813 1.25 48.125 1.25 51.09375 1.25-52.460937 1.289062-40.625 1.25-104.101563 1.25 122.5 1.25 6.445313 1.289062 112.382812 1.25-43.007812 1.25 73.59375 1.25-112.226563 1.289063 42.382813 1.25-109.023438 1.25 149.140625 1.25-78.59375 1.289063 139.648437 1.25-24.609374 1.25 115.273437 1.25-96.328125 1.289062 40.820312 1.25-93.125 1.25 132.03125 1.25 14.21875 1.289062 139.765626 1.25-133.046876 1.25-14.6875 1.289063-64.335937 1.25 41.132813 1.25-91.210938 1.289063 6.953125 1.25 14.296875 1.25 66.484375 1.25-33.90625 1.25-8.867187L266.875 831.5625l1.25-55.820312 1.25 1.835937 1.25 59.53125 1.289062 65.742187 1.25 12.539063 1.25 37.617187 1.25-62.773437 1.289063-10.585937 1.25-3.242188 1.25 94.921875 1.289063-37.421875 1.25 68.125 1.25 18.398438 1.25 136.796874 1.289062-136.09375 1.25-10.507812 1.25-128.28125 1.25 96.835938 1.289062-37.109376 1.25 100.039063 1.25-111.484375 1.25 28.320312 1.289063-135.898437 1.25 82.304687 1.25-145.429687 1.25 112.734375 1.289063-38.828125 1.25 115.976563 1.25-69.804688 1.25 46.679688 1.289062-108.671876 1.25-2.695312 1.25-118.671875 1.25 107.8125 1.289062 44.21875 1.25 56.171875 1.25-47.382812 1.25-44.375 1.289063-27.382813 1.25 50.46875 1.25-19.726563 1.25 15.078126 1.289063-4.960938 1.25 92.617188 1.25 62.578124 1.25-62.070312 1.289062-29.53125 1.25-36.5625 1.25 45.585938 1.25-25.3125 1.289062 83.789062 1.25-1.40625 1.25 15.703125 1.25-110.46875 1.289063 25.625 1.25-108.789063 1.25 59.257813 1.25-59.375 1.289063 54.101563 1.25-57.109376 1.25 69.101563 1.25-141.328125L346.25 692.851562l1.25-278.398437 1.289062 282.265625 1.25 13.828125 1.25 145.039063 1.25-65.390626 1.25 60.820313 1.289063-50.585937 1.25 63.125 1.25-55.546876 1.25 112.5 1.289063-21.875 1.25 114.140626 1.25-11.992188 1.25 5.195312 1.289062-80.117187 1.25 28.984375 1.25-41.875 1.289062 40.351562 1.25 33.203126 1.25 65.78125 1.25-58.75 1.25-88.789063 1.289063 8.671875 1.25-11.367188 1.25 23.4375 1.25-46.757812 1.289063 31.132812 1.25 48.046876 1.25 51.132812 1.25-52.460938 1.289062-40.507812 1.25-104.140625 1.25 122.421875 1.289062 6.445312 1.25 112.382813 1.25-43.007813 1.25 73.554688 1.25-112.304688 1.289063 42.382813 1.25-109.023437 1.25 149.140624 1.25-78.59375L400.429688 1115l1.25-24.648438 1.25 115.195313 1.25-96.289063 1.289062 40.859376 1.25-93.203126 1.25 132.03125 1.289062 14.257813 1.25 139.765625 1.25-132.929688 1.25-14.726562 1.289063-64.296875 1.25 41.132813 1.25-91.210938 1.289063 6.953125 1.25 14.296875 1.25 66.484375 1.25-33.867187 1.25-8.828126 1.289062-62.03125 1.25-55.820312 1.25 1.875 1.25 59.53125 1.289062 65.742188 1.25 12.539062 1.25 37.578125 1.25-62.734375 1.289063-10.585938 1.25-3.242187 1.25 94.921875 1.289063-37.421875 1.25 68.007813 1.25 18.4375 1.289062 136.71875 1.25-136.054688 1.25-10.46875 1.25-128.320312 1.25 96.796874 1.289062-37.109374 1.25 100.078124 1.25-111.445312 1.25 28.28125 1.289063-136.015625 1.25 82.304687 1.25-145.390624 1.289063 112.734374 1.25-38.671874 1.25 116.015624 1.25-69.84375 1.289062 46.71875 1.25-108.671874 1.25-2.734376 1.25-118.671874 1.25 107.8125 1.289062 44.21875 1.25 56.210937 1.25-47.382813 1.25-44.375 1.289063-27.382812 1.25 50.46875 1.25-19.726562 1.289063 15.078124 1.25-4.960937 1.25 92.539063 1.25 62.578124 1.289062-62.109374 1.25-29.53125 1.25-36.523438 1.25 45.546875 1.25-25.3125 1.289062 83.789063 1.25-1.367188 1.25 15.703125 1.25-110.585937 1.289063 25.625 1.25-108.789063 1.25 59.257813 1.289063-59.414063 1.25 54.296875 1.25-57.070312 1.25 69.101562L502.5 935.351562l1.25-10.078124L505 646.71875"/><path d="M505 646.71875l1.289062 279.492188 1.25 11.015624 1.25 142.265626 1.25-68.164063 1.25 58.007813 1.289063-53.359376 1.25 60.3125 1.25-58.320312 1.25 109.726562 1.289063-24.6875 1.25 111.367188 1.25-14.765625 1.25 2.382813 1.289062-82.890626 1.25 26.210938 1.25-44.6875 1.289062 37.578125 1.25 30.429687 1.25 62.96875 1.25-61.640624 1.25-91.5625 1.289063 5.898437 1.25-14.179687 1.25 20.664062 1.25-49.53125 1.289063 28.359375 1.25 45.234375 1.25 48.28125 1.289062-55.15625 1.25-43.320312 1.25-106.953126 1.25 119.609376 1.289062 3.710937 1.25 109.609375 1.25-45.859375 1.25 70.78125 1.25-115.039063 1.289063 39.609376 1.25-111.640626 1.25 146.328126 1.25-81.367188 1.289063 136.835938 1.25-27.382813 1.25 112.421875 1.25-99.179688 1.289062 38.085938 1.25-95.898438 1.25 129.257813 1.289062 11.367187 1.25 137.03125 1.25-135.820312 1.289063-17.5 1.25-67.070312 1.25 38.320312 1.25-93.984375 1.289063 4.179687 1.25 11.484376 1.25 63.710937 1.25-36.679687 1.25-11.601563 1.289062-64.804687 1.25-58.632813 1.25-.9375 1.25 56.757813 1.289062 62.96875 1.25 9.726562 1.25 34.84375 1.289063-65.585938 1.25-13.359374 1.25-6.015626 1.25 92.148438 1.289063-40.195312 1.25 65.195312 1.25 15.664062 1.289062 133.945313 1.25-138.867187 1.25-13.242188 1.25-131.09375 1.25 94.023438 1.289062-39.921876 1.25 97.304688 1.25-114.257812 1.25 25.507812 1.289063-138.710938 1.25 79.53125 1.25-148.203124 1.289063 109.921874 1.25-41.445312 1.25 113.28125 1.25-72.617188 1.289062 43.867188 1.25-111.484375 1.25-5.429687 1.25-121.484376 1.25 104.960938 1.289062 41.445312 1.25 53.476563 1.25-50.195313 1.289063-47.1875 1.25-30.195312 1.25 47.773438 1.25-22.773438 1.289063 12.34375 1.25-7.773438 1.25 89.726563 1.25 59.765625 1.289062-64.84375 1.25-32.304688 1.25-39.375 1.25 42.773438 1.25-28.046875L646.132812 1110l1.25-4.257812 1.25 12.929687 1.289063-113.203125 1.25 22.8125 1.25-111.601562 1.25 56.484374 1.289063-62.148437 1.25 51.484375 1.25-59.882812 1.25 66.328124L660 824.804688l1.25-12.890626 1.25-281.328124 1.289062 279.492187 1.25 11.015625 1.25 142.265625 1.25-68.164063 1.25 58.007813 1.289063-53.359375 1.25 60.351562 1.25-58.359374 1.25 109.726562 1.289063-24.6875 1.25 111.367188 1.25-14.765626 1.289062 2.382813 1.25-82.890625 1.25 26.171875 1.25-44.609375 1.289062 37.539062 1.25 30.429688 1.25 62.96875 1.25-61.640625 1.25-91.5625 1.289063 5.898437 1.25-14.179687 1.25 20.664063 1.25-49.53125 1.289063 28.359374 1.25 45.234376 1.25 48.28125 1.289062-55.15625 1.25-43.320313 1.25-106.953125 1.25 119.609375 1.289062 3.710937 1.25 109.609376 1.25-45.859376 1.25 70.78125 1.25-115.039062 1.289063 39.609375 1.25-111.875 1.25 146.367187 1.25-81.328124 1.289063 136.992187 1.25-27.34375 1.25 112.382813 1.289062-99.140626 1.25 38.046876 1.25-95.898438 1.25 129.257812 1.289062 11.367188 1.25 137.03125 1.25-135.820312 1.289063-17.539063 1.25-67.03125 1.25 38.320313 1.25-93.984376 1.289063 4.179688 1.25 11.484375 1.25 63.710937 1.25-36.679687 1.289062-11.601563 1.25-64.804687 1.25-58.632813 1.25-.898437 1.289062 56.757813 1.25 62.929687 1.25 9.726563 1.25 34.84375 1.289063-65.546876 1.25-13.359374 1.25-6.054688 1.25 92.148438 1.289063-40.195313 1.25 65.195313 1.25 15.664062 1.289062 133.945312 1.25-138.867187 1.25-13.242187 1.25-131.09375 1.25 94.023437L763.320312 1067.5l1.25 97.304688 1.25-114.257813 1.289063 25.507813 1.25-138.710938 1.25 79.53125 1.25-148.203125 1.289063 109.921875 1.25-41.445312 1.25 113.28125 1.25-72.617188 1.289062 43.867188 1.25-111.484376 1.25-5.429687 1.25-121.445313 1.25 104.960938 1.289062 41.40625 1.25 53.476562 1.25-50.15625 1.289063-47.226562 1.25-30.195312 1.25 47.773437 1.25-22.5 1.289063 12.226563 1.25-7.773438 1.25 89.570312 1.25 59.765626 1.289062-64.84375 1.25-32.304688 1.25-39.375 1.25 42.773438 1.25-28.046876 1.289062 81.015626 1.25-4.21875 1.25 12.929687 1.289063-113.242187 1.25 22.8125 1.25-111.5625 1.25 56.484374 1.289063-62.1875 1.25 51.484376 1.25-59.882813 1.25 66.328125L817.5 708.671875l1.25-12.851563L820 414.648438"/><path d="M820 414.648438l1.289062 282.265624 1.25 13.828126 1.25 145.039062 1.25-65.390625 1.25 60.820313 1.289063-50.585938 1.25 63.125 1.25-55.546875 1.289063 112.5 1.25-21.875 1.25 114.140625 1.25-11.992188 1.289062 5.195313 1.25-80.117187 1.25 28.984374 1.25-41.875 1.289062 40.351563 1.25 33.203125 1.25 65.78125 1.25-58.867188 1.25-88.75 1.289063 8.671876 1.25-11.40625 1.25 23.4375 1.289063-46.71875 1.25 31.132812 1.25 48.007812 1.25 51.09375 1.289062-52.382812 1.25-40.507812 1.25-104.179688 1.25 122.382812 1.289062 6.523438 1.25 112.382812 1.25-43.085937 1.25 73.59375 1.289063-112.265625 1.25 42.382812 1.25-109.0625 1.25 149.140626 1.289063-78.554688 1.25 139.6875 1.25-24.6875 1.25 115.15625 1.289062-96.25 1.25 40.859375 1.25-93.242187 1.25 131.992187 1.289062 14.375 1.25 139.726563 1.25-133.164063 1.289063-14.648437 1.25-64.179688 1.25 41.09375 1.25-91.289062 1.289063 6.992187 1.25 14.335937 1.25 66.5625 1.25-34.023437 1.289062-8.867187 1.25-61.875 1.25-55.78125 1.25 1.640624 1.289062 59.570313 1.25 65.898437 1.25 12.460938 1.25 37.5 1.289063-62.734375 1.25-10.46875 1.25-3.242187 1.25 94.84375 1.289063-37.421876 1.25 68.085938 1.25 18.476562 1.289062 136.601563 1.25-136.132813 1.25-10.46875 1.25-128.28125 1.289062 96.992188 1.25-37.148438 1.25 99.960938 1.25-111.484375 1.289063 28.4375 1.25-135.9375 1.25 82.226563 1.25-145.429688L929.648438 1105l1.25-38.632812 1.25 115.9375 1.25-69.84375 1.289062 46.757812 1.25-108.671875 1.25-2.773437 1.25-118.671876 1.289062 107.890626 1.25 44.21875 1.25 56.09375 1.25-47.34375 1.289063-44.335938 1.25-27.382812 1.25 50.429687 1.25-19.726563 1.289063 15.117188 1.25-4.960938 1.25 92.5 1.25 62.539063 1.289062-62.03125 1.25-29.53125 1.25-36.601563 1.25 45.585938 1.289062-25.273438 1.25 83.828126 1.25-1.484376 1.25 15.742188 1.289063-110.46875 1.25 25.625 1.25-108.789062 1.25 59.257812 1.289063-59.375 1.25 54.257812 1.25-57.109374 1.25 69.140624L975 935.585938l1.25-10.117188 1.25-278.554688 1.289062 282.265626 1.25 13.828124 1.25 145.039063 1.25-65.390625 1.25 60.820312 1.289063-50.585937 1.25 63.125 1.25-55.546875 1.289063 112.5 1.25-21.875 1.25 114.140625 1.25-11.992187 1.289062 5.15625 1.25-80.078126 1.25 28.984376 1.25-41.875 1.289062 40.3125 1.25 33.242187 1.25 65.78125 1.25-58.867187 1.25-88.75 1.289063 8.671874 1.25-11.40625 1.25 23.4375 1.289063-46.71875 1.25 31.132813 1.25 48.007813 1.25 51.09375 1.289062-52.382813 1.25-40.507813 1.25-104.179687 1.25 122.382813 1.289062 6.523437 1.25 112.382813 1.25-43.046876 1.25 73.554688 1.289063-112.265625 1.25 42.382813 1.25-109.0625 1.25 149.140624 1.289063-78.554687 1.25 139.6875 1.289062-24.726563 1.25 115.15625 1.25-96.210937 1.25 40.859375 1.25-93.242188 1.289062 131.992188 1.25 14.375 1.25 139.726562 1.25-133.164062 1.289063-14.648438 1.25-64.179687 1.25 41.09375 1.25-91.289063 1.289063 6.953126 1.25 14.375 1.25 66.523437 1.289062-33.984375 1.25-8.90625 1.25-61.796875 1.25-55.820313 1.25 1.679688 1.289062 59.492188 1.25 65.9375 1.25 12.460937 1.25 37.5 1.289063-62.734375 1.25-10.46875 1.25-3.28125 1.25 94.882812 1.289063-37.421874 1.25 68.085937 1.25 18.476563 1.289062 136.601562 1.25-136.132812 1.25-10.273438 1.25-128.320312 1.25 96.835937 1.289062-37.148437 1.25 99.960937 1.25-111.445313 1.289063 28.398438 1.25-135.9375 1.25 82.226562 1.25-145.429687 1.289063 112.8125 1.25-38.671875 1.25 115.976562 1.25-69.84375 1.289062 46.757813 1.25-108.671875 1.25-2.773438 1.289062-118.710937 1.25 107.929687 1.25 44.21875 1.25 56.09375 1.25-47.34375 1.289063-44.335937 1.25-27.421875 1.25 50.46875 1.25-19.726562 1.289063 15.117187 1.25-4.960937 1.25 92.460937 1.25 62.578125 1.289062-62.03125 1.25-29.53125 1.25-36.601562 1.25 45.585937 1.289062-25.273437 1.25 83.828124 1.25-1.484374 1.25 15.703124 1.289063-110.429687 1.25 25.625 1.25-108.789063 1.25 59.257813 1.289063-59.414063 1.25 54.335938 1.25-57.109375 1.25 69.0625L1132.5 1167.8125l1.25-10.078125 1.25-278.554687"/><path d="M1135 879.179688l1.289062 279.492187 1.25 11.015625 1.25 142.265625 1.25-68.164063 1.289063 58.007813 1.25-53.359375 1.25 60.3125 1.289063-58.320312 1.25 109.726562 1.25-24.6875 1.25 111.367188 1.25-14.765626 1.289062 2.382813 1.25-82.890625 1.25 26.171875 1.25-44.648437 1.289062 37.539062 1.25 30.46875 1.25 62.96875 1.25-61.640625 1.289063-91.5625 1.25 5.9375 1.25-14.21875 1.289063 20.664063 1.25-49.53125 1.25 28.320312 1.25 45.273438 1.25 48.28125 1.289062-55.15625 1.25-43.320313 1.25-106.953125 1.25 119.609375 1.289062 3.710937 1.25 109.609376 1.25-45.859376 1.289063 70.78125 1.25-115.039062 1.25 39.570312 1.25-111.835937 1.289063 146.328125 1.25-81.289062 1.25 136.875 1.289062-27.5 1.25 112.382812 1.25-99.023438 1.25 38.085938 1.25-96.054688 1.289062 129.21875 1.25 11.601563 1.25 136.953125 1.25-135.976562 1.289063-17.421876 1.25-66.992187 1.25 38.320313 1.289063-94.0625 1.25 4.179687 1.25 11.5625 1.25 63.75 1.289062-36.796875 1.25-11.679688 1.25-64.609374 1.25-58.59375 1.25-1.132813 1.289062 56.757813 1.25 63.125 1.25 9.6875 1.25 34.6875 1.289063-65.507813 1.25-13.28125 1.25-6.015625 1.289063 92.070312 1.25-40.234374 1.25 65.3125 1.25 15.703124 1.289062 133.789063 1.25-138.867187 1.25-13.085938 1.25-131.09375 1.25 93.828125 1.289062-39.882813 1.25 97.460938 1.25-114.296875 1.289063 25.546875 1.25-138.75 1.25 79.453125 1.25-148.203125 1.289063 110 1.25-41.445312 1.25 113.203124 1.25-72.65625 1.289062 43.984376 1.25-111.445313 1.25-5.585937 1.289062-121.484376 1.25 105.117188 1.25 41.445312 1.25 53.320313 1.25-50.15625 1.289063-47.109375 1.25-30.15625 1.25 47.65625 1.25-22.539062 1.289063 12.34375 1.25-7.773438 1.25 89.726562 1.25 59.765626 1.289062-64.84375 1.25-32.304688 1.25-39.375 1.289062 42.773438 1.25-28.046876 1.25 81.015626 1.25-4.257813 1.25 12.929687 1.289063-113.203124 1.25 22.8125 1.25-111.601563 1.25 56.484375 1.289063-62.148438 1.25 51.484376 1.25-59.882813 1.25 66.328125L1290 1057.265625l1.25-12.890625 1.289062-281.328125 1.25 279.492187 1.25 11.015626 1.25 142.265624 1.289063-68.164062 1.25 58.007812 1.25-53.359374 1.25 60.3125 1.289063-58.320313 1.25 109.726563 1.25-24.6875 1.25 111.367187 1.25-14.765625 1.289062 2.382812 1.25-82.890624 1.25 26.210937 1.289062-44.6875 1.25 37.578125 1.25 30.429688 1.25 62.96875 1.289063-61.640626 1.25-91.5625 1.25 5.898438 1.25-14.179688 1.289063 20.664063 1.25-49.53125 1.25 28.359375 1.25 45.234375 1.25 48.28125 1.289062-55.15625 1.25-43.320313 1.25-106.953124 1.289062 119.609374 1.25 3.710938 1.25 109.570312 1.25-45.820312 1.289063 70.78125 1.25-115 1.25 39.570312 1.25-111.875 1.289063 146.367188 1.25-81.328125 1.25 136.875 1.289062-27.5 1.25 112.382813 1.25-98.984376 1.25 38.046876 1.25-96.054688 1.289062 129.21875 1.25 11.601562 1.25 136.953126 1.25-135.976563 1.289063-17.460937 1.25-66.953126 1.25 38.320313 1.289063-94.0625 1.25 4.179687 1.25 11.5625 1.25 63.75 1.289062-36.796874 1.25-11.679688 1.25-64.609375 1.25-58.59375 1.25-1.132813 1.289062 56.757813 1.25 63.125 1.25 9.6875 1.25 34.6875 1.289063-65.507813 1.25-13.28125 1.25-6.015624 1.289063 92.070312 1.25-40.234375 1.25 65.3125 1.25 15.703125 1.289062 133.789062 1.25-138.90625 1.25-13.046874 1.25-131.09375 1.25 93.828124 1.289062-39.882812 1.25 97.460938 1.25-114.296876 1.289063 25.390626 1.25-138.710938 1.25 79.570312 1.289063-148.203124 1.25 110 1.25-41.445313 1.25 113.203125L1405.9375 1210l1.25 43.984375 1.25-111.445313 1.25-5.585937 1.289062-121.484375 1.25 105.117188 1.25 41.445312 1.25 53.320312 1.25-50.15625 1.289063-47.070312 1.25-30.234375 1.25 47.695313 1.289063-22.539063 1.25 12.34375 1.25-7.773437 1.25 89.726562 1.289062 59.765625 1.25-64.84375 1.25-32.304687 1.25-39.375 1.289062 42.773437 1.25-28.046875 1.25 81.015625 1.25-4.21875 1.25 12.929687 1.289063-113.242187 1.25 22.8125 1.25-111.5625 1.289063 56.445313 1.25-62.148438 1.25 51.484375 1.25-59.882813 1.289062 66.328126 1.25-144.140626 1.25-12.890624 1.289062-281.328126"/><path d="M1450.039062 646.914062l1.25 281.523438 1.25 12.695312 1.25 143.945313 1.289063-66.132813 1.25 59.960938 1.25-51.5625 1.25 62.070312 1.289063-56.367187 1.25 111.640625 1.25-22.890625 1.25 113.125 1.25-12.8125 1.289062 4.414063 1.25-81.210938 1.25 27.851562 1.289062-42.578124 1.25 39.570312 1.25 32.109375 1.25 64.648437 1.289063-59.570312 1.25-89.648438 1.25 7.695313 1.25-12.460937 1.289063 22.65625 1.25-47.773438 1.25 30.3125 1.25 47.1875 1.25 50.039062 1.289062-53.476562 1.25-41.289062 1.25-104.921876 1.289062 121.289063 1.25 5.429687 1.25 111.601563 1.25-43.828125 1.289063 72.5 1.25-113.28125 1.25 41.523438 1.25-109.921876 1.289063 148.125 1.25-79.570312 1.25 138.867188 1.289062-25.546876 1.25 114.140626 1.25-97.304688 1.25 40.078125 1.25-94.023437 1.289062 130.898437 1.25 13.242187 1.25 139.023438L1514.296875 1395l1.25-15.78125 1.25-65.234375 1.25 40.3125 1.289063-92.148437 1.25 5.9375 1.25 13.359374 1.25 65.703126 1.289062-34.882813 1.25-9.882813 1.25-62.929687 1.25-56.5625 1.25.9375 1.289062 58.398437 1.25 64.804688 1.25 11.757812 1.289063 36.71875 1.25-63.828124 1.25-11.484376 1.25-4.101562 1.289063 93.984375 1.25-38.4375 1.25 67.070313 1.25 17.65625 1.289062 135.78125 1.25-137.1875 1.25-11.367188 1.25-129.0625 1.25 95.898438 1.289062-38.242188 1.25 99.179688 1.25-112.304688 1.289063 27.421875 1.25-136.992187 1.25 81.445312 1.289063-146.289062 1.25 111.796874 1.25-39.6875 1.25 115.117188 1.289062-70.625 1.25 45.664062 1.25-109.726562 1.25-3.554688 1.289062-119.453124 1.25 106.796874 1.25 43.125 1.25 55.351563 1.25-48.164063 1.289063-45.351562 1.25-28.476562 1.25 49.648437 1.289063-20.585937 1.25 14.101562 1.25-5.976562 1.25 91.640624 1.289062 61.796876 1.25-63.125 1.25-30.625 1.25-37.382813 1.289062 44.84375 1.25-26.367187 1.25 82.695312 1.25-2.1875 1.25 14.882812 1.289063-111.484374 1.25 24.609374 1.25-109.648437 1.289063 58.398437 1.25-60.390624 1.25 53.28125 1.25-57.929688 1.289062 68.359375 1.25-142.460937 1.25-11.210938 1.289062-279.296875 1.25 281.523437 1.25 12.695313 1.25 143.945313 1.289063-66.132813 1.25 59.960937 1.25-51.5625 1.25 62.070313 1.289063-56.40625 1.25 111.679687 1.25-22.890624 1.25 113.125 1.289062-12.851563 1.25 4.453125 1.25-81.210938 1.25 27.851563 1.289062-42.578125 1.25 39.570312 1.25 32.109376 1.25 64.6875 1.289063-59.609376 1.25-89.648437 1.25 7.695313 1.25-12.460938 1.289063 22.65625 1.25-47.578125 1.25 30.078125 1.25 46.992188 1.289062 50.273437 1.25-53.476563 1.25-41.289062 1.25-104.921875 1.289062 121.289063 1.25 5.429687 1.25 111.601563 1.25-43.828126 1.289063 72.5 1.25-113.28125 1.25 41.523438 1.25-109.882812 1.289063 148.085937 1.25-79.570313 1.25 138.867188 1.289062-25.546875 1.25 114.140625 1.25-97.304688 1.25 40.078126 1.25-94.023438 1.289062 130.898438 1.25 13.28125 1.25 138.984374 1.289063-133.90625 1.25-15.78125 1.25-65.234374 1.25 40.273437 1.289063-92.109375 1.25 5.9375 1.25 13.359375 1.25 65.703125 1.289062-34.882812 1.25-9.882813 1.25-62.929687 1.25-56.5625 1.25.9375 1.289062 58.398437 1.25 64.804687 1.25 11.71875 1.289063 36.757813 1.25-63.828125 1.25-11.484375 1.25-4.101563 1.289063 93.984376 1.25-38.4375 1.25 67.109374 1.25 17.617188 1.289062 135.78125 1.25-137.148438 1.25-11.40625 1.25-129.0625 1.25 95.898438 1.289062-38.242188 1.25 99.179688 1.289063-112.304688 1.25 27.421876 1.25-136.992188 1.25 81.40625 1.289063-146.25 1.25 111.757812 1.25-39.648437 1.25 115.117187 1.289062-70.625 1.25 45.703126 1.25-109.765626 1.25-3.554687 1.289062-119.453125 1.25 106.796875 1.25 43.125 1.25 55.351563 1.289063-48.203126 1.25-45.351562 1.25-28.398438 1.25 49.609376 1.289063-20.585938 1.25 14.140625 1.25-6.015625 1.25 91.640625 1.289062 61.796875 1.25-63.125 1.25-30.625 1.25-37.382812 1.289062 44.84375 1.25-26.367188 1.25 82.695312 1.25-2.1875 1.289063 14.84375 1.25-111.445312 1.25 24.609375 1.25-109.648437 1.289063 58.398437 1.25-60.390625 1.25 53.28125 1.25-57.929688 1.289062 68.359376 1.25-142.460938 1.25-11.210938 1.289062-279.296874"/><path d="M1765.039062 879.179688l1.25 278.75 1.25 9.882812 1.25 141.171875 1.289063-68.90625 1.25 57.148437 1.25-54.375 1.25 59.335938 1.289063-59.179688 1.25 108.867188 1.25-25.703125 1.289062 110.351563 1.25-15.625 1.25 1.640624 1.25-83.984374 1.25 25.078124 1.289062-45.390624 1.25 36.757812 1.25 29.375 1.25 61.875 1.289063-62.421875 1.25-92.382813 1.25 4.882813 1.25-15.234375 1.289063 19.84375 1.25-50.351562 1.25 27.304687 1.289062 44.21875 1.25 47.460937 1.25-55.9375 1.25-44.375 1.25-107.734374 1.289062 118.515624 1.25 2.617188 1.25 108.828125 1.25-46.601563 1.289063 69.6875 1.25-116.054687 1.25 38.75 1.25-112.695313 1.289063 145.3125 1.25-82.34375 1.25 136.054688 1.289062-28.359375 1.25 111.40625 1.25-100.117187 1.25 37.304687 1.289062-96.835937 1.25 128.164062 1.25 10.429688 1.25 136.25 1.289063-136.71875 1.25-18.554688 1.25-68.007812 1.25 37.5 1.289063-94.960938 1.25 3.203125 1.25 10.546875 1.25 62.929688 1.289062-37.695313 1.25-12.65625 1.25-65.742187 1.25-59.335938 1.289062-1.835938 1.25 55.625 1.25 61.992188 1.25 8.984375 1.289063 33.90625 1.25-66.601563 1.25-14.296874 1.25-6.875 1.289063 91.210937 1.25-41.210937 1.25 64.296874 1.25 14.84375 1.289062 132.96875 1.25-139.921874 1.25-14.179688 1.25-131.835938 1.289062 93.085938 1.25-41.015625 1.289063 96.367187 1.25-115.078124 1.25 24.648437 1.25-139.765625 1.25 78.632812 1.289063-149.0625 1.25 108.984376 1.25-42.460938 1.25 112.34375 1.289062-73.4375 1.25 42.929688 1.25-112.539063 1.25-6.367187 1.289062-122.226563 1.25 104.023437 1.25 40.351563 1.289063 52.539063 1.25-50.976563 1.25-48.125 1.25-31.210937 1.25 46.796874 1.289063-23.359374 1.25 11.328124 1.25-8.75 1.25 88.828126 1.289062 59.023437 1.25-65.9375 1.25-33.398437 1.25-40.15625 1.289062 42.03125 1.25-29.140626 1.25 79.921876 1.289063-5 1.25 12.070312 1.25-114.21875 1.25 21.796875 1.25-112.421875 1.289063 55.625 1.25-63.203125 1.25 50.507813 1.25-60.742188 1.289062 65.585938 1.25-145.234376 1.25-14.023437 1.289062-282.070313 1.25 278.75 1.25 9.921876 1.25 141.132812 1.289063-68.945312 1.25 57.1875 1.25-54.335938 1.25 59.296875 1.289063-59.179687 1.25 108.867187 1.25-25.703125 1.289062 110.351562 1.25-15.625 1.25 1.640626 1.25-83.984376 1.25 25.078126 1.289062-45.390626 1.25 36.796876 1.25 29.335937 1.25 61.875 1.289063-62.382813 1.25-92.421874 1.25 4.882812 1.25-15.234375 1.289063 19.84375 1.25-50.351563 1.25 27.304688 1.289062 44.21875 1.25 47.460938 1.25-55.9375 1.25-44.375 1.25-108.085938 1.289062 118.867188 1.25 2.617187 1.25 108.828125 1.25-46.601562 1.289063 69.6875 1.25-116.054688 1.25 38.75 1.25-112.695312 1.289063 145.3125 1.25-82.34375 1.289062 136.054687 1.25-28.320313 1.25 111.367188 1.25-100.117188 1.289062 37.304688 1.25-96.835938 1.25 128.125 1.25 10.46875 1.25 136.210938 1.289063-136.679688 1.25-18.554687 1.25-68.007813 1.25 37.5 1.289063-94.921874 1.25 3.164062 1.25 10.546875 1.289062 62.929687 1.25-37.695312 1.25-12.65625 1.25-65.703125 1.289062-59.375 1.25-1.835937 1.25 55.625 1.25 62.03125 1.25 8.945312 1.289063 33.945312 1.25-66.640624 1.25-14.257813 1.25-6.914063 1.289063 91.210938 1.25-41.210938 1.25 64.296876 1.289062 14.84375 1.25 132.96875 1.25-139.921876 1.25-14.179687 1.289062-131.835937 1.25 93.085937 1.25-41.015625 1.289063 96.40625 1.25-115.117188 1.25 24.648438 1.25-139.765625 1.25 78.632813 1.289063-149.0625 1.25 108.984374 1.25-42.460937 1.25 112.34375 1.289062-73.4375 1.25 42.929687 1.25-112.539062 1.25-6.367188 1.289062-122.226562 1.25 104.023438 1.25 40.351562 1.289063 52.539062 1.25-50.976562 1.25-48.125 1.25-31.210938 1.25 46.796876 1.289063-23.320313 1.25 11.289063 1.25-8.75 1.25 88.828124 1.289062 59.023438 1.25-65.9375 1.25-33.359375 1.25-40.195313 1.289062 42.070313 1.25-29.179687 1.25 79.921874 1.289063-5 1.25 12.109376 1.25-114.257813 1.25 21.796875 1.25-112.421875 1.289063 55.625 1.25-63.203125 1.25 50.507812 1.25-60.742187 1.289062 65.585937 1.25-145.234374 1.25-13.984376 1.289062-282.109374"/><path d="M2080.039062 414.648438l1.25 281.523437 1.25 12.734375 1.25 143.90625 1.289063-66.132812 1.25 59.960937 1.25-51.5625 1.289063 62.109375 1.25-56.40625 1.25 111.640625 1.25-22.890625 1.289062 113.125 1.25-12.851562 1.25 4.453124 1.25-81.210937 1.25 27.890625 1.289062-42.617188 1.25 39.570313 1.25 32.109375 1.25 64.6875 1.289063-59.609375 1.25-89.648437 1.25 7.695312 1.289063-12.460938 1.25 22.617188 1.25-47.539062 1.25 30.117187 1.289062 46.992187 1.25 50.234376 1.25-53.125 1.25-41.601563 1.25-105.273437 1.289062 121.601562 1.25 5.742188 1.25 111.289062 1.289063-44.140625 1.25 72.8125 1.25-113.28125 1.25 41.523437L2129.179688 868.75l1.25 148.125 1.25-79.609375 1.289062 138.867187 1.25-25.546874 1.25 114.140624 1.25-97.304687 1.289062 40.078125 1.25-94.023438 1.25 130.898438 1.25 13.28125 1.25 138.984375 1.289063-133.90625 1.25-15.78125 1.25-65.234375 1.25 40.3125 1.289063-92.148438 1.25 5.976563 1.25 13.359375 1.289062 65.664062 1.25-34.84375 1.25-9.921874 1.25-62.929688 1.289062-56.5625 1.25.9375 1.25 58.398438 1.25 64.804687 1.25 11.757813 1.289063 36.71875 1.25-63.828126 1.25-11.484374 1.25-4.101563 1.289063 93.984375 1.25-38.4375 1.25 67.109375 1.289062 17.617187 1.25 135.78125 1.25-137.148437 1.25-11.40625 1.289062-129.0625 1.25 95.898437 1.25-38.242187 1.289063 99.179687 1.25-112.304687 1.25 27.421875 1.25-136.992188 1.25 81.445313 1.289063-146.289063 1.25 111.796876 1.25-39.6875 1.25 115.117187 1.289062-70.625 1.25 45.703125 1.25-109.765625 1.289062-3.554687 1.25-119.453126 1.25 106.796876 1.25 43.125 1.289063 55.351562 1.25-48.203125 1.25-45.3125 1.25-28.4375 1.25 49.609375 1.289063-20.585938 1.25 14.140626 1.25-6.015626 1.25 91.640626 1.289062 61.835937 1.25-63.164063 1.25-30.585937 1.289062-37.382813 1.25 44.804688 1.25-26.367188 1.25 82.734376 1.289063-2.226563 1.25 14.882813 1.25-111.445313 1.25 24.570313 1.25-109.648438 1.289063 58.398438 1.25-60.390626 1.25 53.28125 1.25-57.929687L2233.75 963.75l1.25-142.460938 1.25-11.210937 1.289062-279.296875 1.25 281.523438 1.25 12.695312 1.25 143.945312 1.289063-66.132812 1.25 59.960938 1.25-51.5625 1.289063 62.109374 1.25-56.445312 1.25 111.679688 1.25-22.890626 1.289062 113.125 1.25-12.8125 1.25 4.414063 1.25-81.210937 1.25 27.890624 1.289062-42.65625 1.25 39.570313 1.25 32.148437 1.25 64.648438 1.289063-59.609375 1.25-89.609375 1.25 7.695312 1.289063-12.460937 1.25 22.617187 1.25-47.539062 1.25 30.117188 1.289062 46.992187 1.25 50.234375 1.25-53.125 1.25-41.640625 1.25-105.273437 1.289062 121.640624 1.25 5.742188 1.25 111.289062 1.289063-44.140624 1.25 72.773437 1.25-113.046875 1.25 41.367188 1.289063-110.117188 1.25 148.28125 1.25-79.53125 1.289062 138.828125 1.25-25.546875 1.25 114.140625 1.25-97.304687 1.289062 40.078124 1.25-94.023437 1.25 130.898437 1.25 13.28125 1.25 138.984376 1.289063-133.90625 1.25-15.78125 1.25-65.234376 1.289063 40.3125 1.25-92.148437 1.25 5.9375 1.25 13.359375 1.289062 65.703125 1.25-34.882813 1.25-9.84375 1.25-62.96875 1.289062-56.5625 1.25.9375 1.25 58.398438 1.25 64.804688 1.25 11.757812 1.289063 36.71875 1.25-63.828125 1.25-11.523437 1.289063-4.0625 1.25 93.984374 1.25-38.4375 1.25 67.109376 1.289062 17.617187 1.25 135.78125 1.25-137.148437 1.25-11.40625 1.289062-129.0625 1.25 95.898437 1.25-38.242187 1.289063 99.179687 1.25-112.304687 1.25 27.421874 1.25-136.992187 1.25 81.445313 1.289063-146.25 1.25 111.757812 1.25-39.6875 1.25 115.117188 1.289062-70.625 1.25 45.664062 1.25-109.726562 1.289062-3.554688 1.25-119.453125 1.25 106.796875 1.25 43.164062 1.289063 55.3125 1.25-48.203124 1.25-45.3125 1.25-28.4375 1.25 49.609374 1.289063-20.585937 1.25 14.101563 1.25-5.9375 1.25 91.601562 1.289062 61.796875 1.25-63.125 1.25-30.625 1.289062-37.34375 1.25 44.804687 1.25-26.367187 1.25 82.695313 1.289063-2.1875 1.25 14.882812 1.25-111.484375 1.25 24.609375 1.25-109.648438 1.289063 58.398438 1.25-60.390625 1.25 53.28125 1.25-57.929687 1.289062 68.359374 1.25-142.460937 1.289062-11.210937 1.25-279.296876"/><path d="M2395.039062 646.914062l1.25 278.75 1.25 9.921876 1.289063 141.132812 1.25-68.945312 1.25 57.1875 1.25-54.335938 1.289063 59.296875 1.25-59.179687 1.25 108.867187 1.25-25.703125 1.289062 110.351562 1.25-15.625 1.25 1.640626 1.25-83.984376 1.289062 25.078126 1.25-45.390626 1.25 36.796876 1.25 29.335937 1.289063 61.875 1.25-62.382813 1.25-92.421874 1.25 4.882812 1.289063-15.234375 1.25 19.84375 1.25-50.351563 1.25 27.304688 1.289062 44.21875 1.25 47.460938 1.25-55.9375 1.25-44.375 1.289062-108.085938 1.25 118.867188 1.25 2.96875 1.25 108.476562 1.289063-46.914062 1.25 70 1.25-115.859376 1.25 38.554688 1.289063-112.890625 1.25 145.507813 1.25-82.148438 1.289062 135.859375 1.25-28.320313 1.25 111.367188 1.25-100.117188 1.289062 37.304688 1.25-96.835938 1.25 128.125 1.25 10.46875 1.25 136.210938 1.289063-136.679688 1.25-18.554687 1.25-68.007813 1.289063 37.5 1.25-94.921874 1.25 3.164062 1.25 10.546875 1.289062 62.929687 1.25-37.695312 1.25-12.65625 1.25-65.703125 1.289062-59.375 1.25-1.835937 1.25 55.625 1.25 62.03125 1.25 8.945312 1.289063 33.945312 1.25-66.640624 1.25-14.257813 1.289063-6.914063 1.25 91.210938 1.25-41.210938 1.25 64.296876 1.289062 14.84375 1.25 132.96875 1.25-139.921876 1.25-14.179687 1.289062-131.835937 1.25 93.085937 1.25-41.015625 1.289063 96.40625 1.25-115.117188 1.25 24.648438 1.25-139.765625 1.289063 78.632813 1.25-149.0625 1.25 108.984374 1.25-42.460937 1.289062 112.34375 1.25-73.4375 1.25 42.929687 1.25-112.539062 1.289062-6.367188 1.25-122.226562 1.25 104.023438 1.25 40.351562 1.289063 52.539062 1.25-50.976562 1.25-48.125 1.25-31.210938 1.289063 46.796876 1.25-23.320313 1.25 11.289063 1.25-8.75 1.289062 88.828124 1.25 59.023438 1.25-65.9375 1.25-33.359375 1.289062-40.195313 1.25 42.070313 1.25-29.179687 1.25 79.921874 1.289063-5 1.25 12.109376 1.25-114.257813 1.25 21.796875 1.289063-112.421875 1.25 55.625 1.25-63.203125 1.25 50.507812L2547.5 790.390625l1.25 65.585937 1.289062-145.234374 1.25-13.984376 1.25-282.109374 1.25 278.75 1.25 9.921874 1.289063 141.132813 1.25-68.90625 1.25 57.148437 1.25-54.335937 1.289063 59.296875 1.25-59.179688 1.25 108.867188 1.25-25.703125 1.289062 110.351563 1.25-15.625 1.25 1.640624 1.289062-83.984374 1.25 25.078124 1.25-45.390624 1.25 36.796874 1.25 29.335938 1.289063 61.875 1.25-62.382812 1.25-92.421876 1.25 4.882813 1.289063-15.234375 1.25 19.84375 1.25-50.351562 1.25 27.34375 1.289062 44.179687 1.25 47.5 1.25-55.976563 1.289062-44.375 1.25-108.085937 1.25 118.867187 1.25 2.96875 1.25 108.476563 1.289063-46.914063 1.25 70 1.25-115.859374 1.25 38.554687 1.289063-112.890625 1.25 145.507812 1.25-82.148437 1.289062 135.859375 1.25-28.476562 1.25 111.523437 1.25-100.117187 1.289062 37.304687 1.25-96.835937 1.25 128.164062 1.25 10.46875 1.289063 136.210938 1.25-136.71875 1.25-18.554688 1.25-68.007812 1.289063 37.5 1.25-94.921876 1.25 3.164063 1.25 10.585937 1.289062 62.890626 1.25-37.65625 1.25-12.695313 1.25-65.703125 1.289062-59.375 1.25-1.835938 1.25 55.625 1.25 61.992188 1.289063 8.984375 1.25 33.945313 1.25-66.640626 1.25-14.257812 1.289063-6.914062 1.25 91.210937 1.25-41.210937 1.25 64.296874 1.289062 14.84375 1.25 133.007813 1.25-139.960937 1.25-14.179688 1.289062-131.835938 1.25 93.085938 1.25-41.015625 1.289063 96.40625 1.25-115.078125 1.25 24.609375 1.289063-139.765625 1.25 78.632812 1.25-149.0625 1.25 108.984376 1.289062-42.460938 1.25 112.34375 1.25-73.4375 1.25 42.929688 1.25-112.539063 1.289062-6.367187 1.25-122.226563 1.25 104.023437 1.25 40.351563 1.289063 52.539063 1.25-50.976563 1.25-48.125 1.289063-31.210937 1.25 46.835937 1.25-23.398437 1.25 11.367187 1.289062-8.789063 1.25 88.828126 1.25 59.023437 1.25-65.9375 1.25-33.359375 1.289062-40.195312 1.25 42.070312 1.25-29.179688 1.25 79.921876 1.289063-5 1.25 12.109374 1.25-114.257812 1.289063 21.835938 1.25-112.460938 1.25 55.625 1.25-63.164062 1.289062 50.46875L2705 558.125l1.25 65.585938 1.289062-145.234376 1.25-13.984374 1.25-281.835938"/><path d="M190 181.601562h2520.039062"/></g><path d="M18.7461 148.8516h.6016v6h-.6016zm0 0"/><path d="M144.75 148.8516h.6016v6h-.6016zm0 0"/><path d="M270.75 148.8516h.6016v6h-.6016zm0 0"/><use x="16.4801" y="163.6512" href="#a"/><use x="142.4821" y="163.7711" href="#b"/><use x="268.4841" y="163.6512" href="#c"/><path d="M190 181.601562V1575.15625" class="a"/><path d="M12.9883 148.4922h6v.6016h-6zm0 0"/><path d="M12.9883 102.0391h6v.6016h-6zm0 0"/><path d="M12.9883 55.5898h6v.6016h-6zm0 0"/><path d="M12.9883 9.1367h6v.6016h-6zm0 0"/><use x="5.9891" y="152.2" href="#a"/><use x="5.9891" y="105.868" href="#b"/><use x="5.9891" y="59.4164" href="#c"/><use x="5.9891" y="12.8434" href="#d"/><style>.a{fill:none;stroke:#000;stroke-miterlimit:10;stroke-width:3.985;transform:matrix(.1,0,0,-.1,0,167)}</style></svg>