<svg xmlns="http://www.w3.org/2000/svg" width="146pt" height="109pt" viewBox="0 0 146 109"><defs><clipPath id="e"><path d="M108 80h38v2h-38zm0 0"/></clipPath><clipPath id="f"><path d="M-.8516 111.5508h147v-111h-147zm146.418-31.0234v.8398l-8.6367 1.3828 7.1992-1.8008-7.1992-1.8008zm-36.8398.8398v-.8398l8.6406-1.3789-7.1992 1.8008 7.1992 1.8007zm0 0" class="b"/></clipPath><clipPath id="g"><path d="M130 72h16v18h-16zm0 0"/></clipPath><clipPath id="h"><path d="M0 13h74v1H0zm0 0"/></clipPath><clipPath id="i"><path d="M-.8516 111.5508h147v-111h-147zm74.418-98.5234v.8398L64.9297 15.25l7.1992-1.8008-7.1992-1.8008zm-72.8398.8398v-.8398l8.6406-1.3789-7.1992 1.8008L9.3672 15.25zm0 0" class="b"/></clipPath><clipPath id="j"><path d="M0 5h16v17H0zm0 0"/></clipPath><clipPath id="k"><path d="M0 94h146v1H0zm0 0"/></clipPath><clipPath id="l"><path d="M-.8516 111.5508h147v-111h-147zm146.418-17.5234v.8398l-8.6367 1.3828 7.1992-1.8008-7.1992-1.8008zM.7266 94.8672v-.8398l8.6406-1.3789-7.1992 1.8008L9.3672 96.25zm0 0" class="b"/></clipPath><clipPath id="m"><path d="M0 86h16v17H0zm0 0"/></clipPath><clipPath id="n"><path d="M130 86h16v17h-16zm0 0"/></clipPath><clipPath id="o"><path d="M0 0h146v109H0z"/></clipPath><g id="p" clip-path="url(#o)"><g style="fill:none;stroke-linecap:butt;stroke-linejoin:miter;stroke:#000;stroke-opacity:1;stroke-miterlimit:10;transform:matrix(.1,0,0,-.1,-.852,111.549)"><g stroke-width="4.5"><path d="M20.004375 575.997813h1440"/><path d="M380.004375 935.997813v-720"/><path d="M1100.004375 935.997813v-720"/><path d="M740.004375 935.997813v-720"/></g><path stroke-width="18" d="M20.004375 440.997813h810v495h-810zm0 0"/><path stroke-width="4.5" d="M20.004375 215.997813h1440v720h-1440zm0 0"/></g><g clip-path="url(#e)"><g clip-path="url(#f)"><path d="M1100.004375 305.997813h360" class="a"/></g></g><path d="M1182.191875 287.99l-71.992188 18.007813 71.992188 18.007812" class="a"/><g clip-path="url(#g)"><path d="M1377.816875 324.005625l71.992187-18.007812L1377.816875 287.99" class="a"/></g><g clip-path="url(#h)"><g clip-path="url(#i)"><path d="M20.004375 980.997813h720" class="a"/></g></g><g clip-path="url(#j)"><path d="M102.191875 962.99l-71.992187 18.007813 71.992187 18.007812" class="a"/></g><path d="M657.816875 999.005625l71.992187-18.007812L657.816875 962.99" class="a"/><g clip-path="url(#k)"><g clip-path="url(#l)"><path d="M20.004375 170.997813h1440" class="a"/></g></g><g clip-path="url(#m)"><path d="M102.191875 152.99l-71.992187 18.007813 71.992187 18.007812" class="a"/></g><g clip-path="url(#n)"><path d="M1377.816875 189.005625l71.992187-18.007812L1377.816875 152.99" class="a"/></g></g><path d="M3.6406-1.4219c0-.46875-.265625-.984375-.8125-1.671875-.46875-.5625-.65625-.9375-.65625-1.25 0-.40625.25-.65625.671875-.65625.625 0 .984375.453125 1.09375 1.375h.2031L4.375-5.2812h-.1719c-.09375.171875-.171875.21875-.359375.21875-.09375 0-.203125-.03125-.421875-.09375C3.125-5.25 2.953125-5.265625 2.75-5.265625c-.890625 0-1.453125.515625-1.453125 1.3125 0 .375.25.890625.765625 1.53125.453125.609375.65625 1.03125.65625 1.375 0 .5625-.359375.921875-.875.921875C1.171875-.125.8125-.609375.625-1.75H.4375L.1875.1563H.375c.109375-.203125.15625-.25.296875-.25.125 0 .34375.046875.578125.109375C1.53125.09375 1.703125.125 1.90625.125c1.015625 0 1.734375-.640625 1.734375-1.546875zm0 0" id="a"/><path d="M5.1563-7.1719c0-.578125-.4375-.921875-.984375-.921875-1.84375 0-2.3125 3.1875-2.671875 4.40625l-1.3281.9063.125.2031L1.4063-3.3125c-.203125.65625-.5625 1.453125-.5625 2.171875S1.28125.125 2.046875.125c.984375 0 1.71875-.96875 2.125-1.765625l-.2187-.0781c-.296875.5625-.875 1.40625-1.59375 1.40625-.453125 0-.703125-.359375-.703125-.78125 0-.6875.625-2.390625.8125-3.03125.90625-.609375 2.6875-1.8125 2.6875-3.046875zm-.3281.0781c0 .984375-1.515625 2.078125-2.234375 2.609375l.5156-1.75c.15625-.53125.46875-1.421875 1.140625-1.421875.34375 0 .578125.203125.578125.5625zm0 0" id="b"/><path d="M6.8594-3.9375v-.6719H.7344v.6719zm0 2.4219v-.6719H.7344v.6719zm0 0" id="c"/><path d="M5.6719-1.6406l-.1562-.0625c-.4375.6875-.59375.796875-1.125.796875H1.5313l2-2.1094C4.609375-4.125 5.0625-5.03125 5.0625-5.96875c0-1.1875-.96875-2.109375-2.203125-2.109375-.65625 0-1.28125.265625-1.71875.734375C.75-6.9375.578125-6.546875.375-5.703125l.25.0625c.46875-1.171875.90625-1.5625 1.734375-1.5625 1 0 1.6875.6875 1.6875 1.6875 0 .9375-.5625 2.046875-1.5625 3.109375l-2.125 2.2656V0h4.6563zm0 0" id="d"/><path d="M5.6406-2v-.7656H4.4219v-5.3125h-.5312l-3.75 5.3125V-2H3.5v2h.9219v-2zm-2.1562-.7656H.625l2.8594-4.0937zm0 0" id="q"/></defs><use href="#p"/><use x="124.812" y="76.448" href="#a"/><use x="19.044" y="8.946" href="#b"/><use x="24.7347" y="8.946" href="#a"/><use x="33.0077" y="8.946" href="#c"/><use x="43.9347" y="8.946" href="#d"/><use x="50.2232" y="8.946" href="#a"/><use x="52.104" y="107.948" href="#d"/><use x="58.0338" y="107.948" href="#b"/><use x="63.7245" y="107.948" href="#a"/><use x="71.9975" y="107.948" href="#c"/><use x="82.9245" y="107.948" href="#q"/><use x="89.2129" y="107.948" href="#a"/><style>.a{fill:none;stroke:#000;stroke-linecap:butt;stroke-linejoin:miter;stroke-miterlimit:10;stroke-opacity:1;stroke-width:4.5;transform:matrix(.1,0,0,-.1,-.852,111.549)}.b{clip-rule:evenodd}</style></svg>