<svg xmlns="http://www.w3.org/2000/svg" width="181pt" height="87pt" viewBox="0 0 181 87"><defs><clipPath id="a"><path d="M13 0h2v86.55078h-2zm0 0"/></clipPath><clipPath id="b"><path d="M126 0h1v86.55078h-1zm0 0"/></clipPath><clipPath id="c"><path d="M144 0h1v86.55078h-1zm0 0"/></clipPath><clipPath id="d"><path d="M166 0h2v86.55078h-2zm0 0"/></clipPath><clipPath id="e"><path d="M99 0h1v86.55078h-1zm0 0"/></clipPath><clipPath id="f"><path d="M81 0h1v86.55078h-1zm0 0"/></clipPath><clipPath id="g"><path d="M31 0h2v86.55078h-2zm0 0"/></clipPath><clipPath id="h"><path d="M49 0h2v86.55078h-2zm0 0"/></clipPath><clipPath id="i"><path d="M63 0h1v86.55078h-1zm0 0"/></clipPath><clipPath id="j"><path d="M72 0h1v86.55078h-1zm0 0"/></clipPath><clipPath id="k"><path d="M67 0h2v86.55078h-2zm0 0"/></clipPath><clipPath id="l"><path d="M90 0h1v86.55078h-1zm0 0"/></clipPath><clipPath id="m"><path d="M108 0h1v86.55078h-1zm0 0"/></clipPath><clipPath id="n"><path d="M153 0h1v86.55078h-1zm0 0"/></clipPath><clipPath id="o"><path d="M40 0h2v86.55078h-2zm0 0"/></clipPath><clipPath id="p"><path d="M22 0h2v86.55078h-2zm0 0"/></clipPath><clipPath id="q"><path d="M60 28h70v58.55078H60zm0 0"/></clipPath><clipPath id="r"><path d="M29 10h83v76.55078H29zm0 0"/></clipPath><clipPath id="s"><path d="M0 0h181v86.55078H0zm0 0"/></clipPath><clipPath id="t"><path d="M0 0h181v87H0z"/></clipPath><g id="u" clip-path="url(#t)"><g fill-rule="evenodd" fill="#ccc" fill-opacity="1"><path d="M49.9766 45.34766h40.5v-18h-40.5zm0 0"/><path d="M67.9766 67.84766h40.5v-18h-40.5zm0 0"/><path d="M31.9766 36.34766h31.5v-13.5h-31.5zm0 0"/><path d="M63.4766 54.34766h9v-13.5h-9zm0 0"/><path d="M49.9766 76.84766h31.5v-18h-31.5zm0 0"/></g><g class="b"><path d="M321.985625 502.013438h315v135h-315zm0 0"/><path d="M501.985625 412.013438h405v180h-405zm0 0"/></g><g clip-path="url(#a)"><path d="M141.985625 862.013438v-855" class="a"/></g><g clip-path="url(#b)"><path d="M1266.985625 7.013438v855" class="a"/></g><g clip-path="url(#c)"><path d="M1446.985625 862.013438v-855" class="a"/></g><g clip-path="url(#d)"><path d="M1671.985625 862.013438v-855" class="a"/></g><path d="M6.985625 772.013438h1800" class="a"/><g clip-path="url(#e)"><path d="M996.985625 862.013438v-855" class="a"/></g><path d="M681.985625 187.013438h405v180h-405zm0 0" class="b"/><g clip-path="url(#f)"><path d="M816.985625 7.013438v855" class="a"/></g><path d="M6.985625 637.013438h1800" class="a"/><g clip-path="url(#g)"><path d="M321.985625 862.013438v-855" class="a"/></g><g clip-path="url(#h)"><path d="M501.985625 7.013438v855" class="a"/></g><path d="M6.985625 457.013438h1800" class="a"/><g clip-path="url(#i)"><path d="M636.985625 862.013438v-855" class="a"/></g><g class="a"><path d="M6.985625 502.013438h1800"/><path d="M6.985625 592.013438h1800"/><path d="M1806.985625 412.013438h-1800"/><path d="M6.985625 367.013438h1800"/><path d="M6.985625 277.013438h1800"/><path d="M6.985625 187.013438h1800"/><path d="M6.985625 97.013438h1800"/></g><g clip-path="url(#j)"><path d="M726.985625 862.013438v-855" class="a"/></g><g clip-path="url(#k)"><path d="M681.985625 7.013438v855" class="a"/></g><g clip-path="url(#l)"><path d="M906.985625 862.013438v-855" class="a"/></g><g clip-path="url(#m)"><path d="M1086.985625 7.013438v855" class="a"/></g><g clip-path="url(#n)"><path d="M1536.985625 862.013438v-855" class="a"/></g><g clip-path="url(#o)"><path d="M411.985625 862.013438v-855" class="a"/></g><g clip-path="url(#p)"><path d="M231.985625 862.013438v-855" class="a"/></g><g class="b"><path d="M636.985625 322.013438h90v135h-90zm0 0"/><path stroke-dasharray="9,9" stroke-dashoffset="9" d="M1806.985625 322.013438h-1800"/><path d="M501.985625 97.013438h315v180h-315zm0 0"/></g><g clip-path="url(#q)"><path d="M861.985625 277.013438l45 45 135-90" class="c"/></g><g clip-path="url(#r)"><path d="M546.985625 187.013438l315 90-180 90 45 135h135" class="c"/></g><path d="M726.985625 502.013438l-135 90-225-45" class="c"/><g clip-path="url(#s)"><path d="M6.985625 7.013438h1800v855h-1800zm0 0" class="b"/></g></g></defs><use href="#u"/><style>.a{fill:none;stroke:#000;stroke-dasharray:9,9;stroke-dashoffset:9;stroke-linecap:butt;stroke-linejoin:miter;stroke-miterlimit:10;stroke-opacity:1;stroke-width:4.5;transform:matrix(.1,0,0,-.1,-.222,86.549)}.b{fill:none;stroke:#000;stroke-linecap:butt;stroke-linejoin:miter;stroke-miterlimit:10;stroke-opacity:1;stroke-width:4.5;transform:matrix(.1,0,0,-.1,-.222,86.549)}.c{fill:none;stroke:#000;stroke-linecap:butt;stroke-linejoin:miter;stroke-miterlimit:10;stroke-opacity:1;stroke-width:18;transform:matrix(.1,0,0,-.1,-.222,86.549)}</style></svg>