<svg xmlns="http://www.w3.org/2000/svg" width="264pt" height="26pt" viewBox="0 0 264 26"><defs><path d="M2.7031.01563v-.1875L2.375-.1875c-.359375-.03125-.421875-.09375-.421875-.4375v-3.82812l-.0937-.03125c-.421875.21875-.875.40625-1.46875.609375l.0469.28125H.5c.28125-.125.5625-.25.859375-.375.03125 0 .046875.0625.046875.203125V-.625c0 .34375-.078125.40625-.421875.4375L.625-.17187v.1875C.984375 0 1.328125 0 1.6875 0c.34375 0 .6875 0 1.015625.015625zm0 0" id="c"/><path d="M3.0156-2.375c0-1.40625-.421875-2.078125-1.3125-2.078125-1 0-1.515625.796875-1.515625 2.359375 0 .75.140625 1.40625.359375 1.71875.234375.328125.59375.5 1 .5.96875 0 1.46875-.84375 1.46875-2.5zm-.5469.32813c0 1.375-.25 1.953125-.84375 1.953125C1-.09375.734375-.75.734375-2.328125c0-1.359375.234375-1.90625.84375-1.90625.640625 0 .890625.640625.890625 2.1875zm0 0" id="d"/><path d="M2.2969.01563v-.15625L2-.17187c-.296875-.015625-.34375-.0625-.34375-.359375v-3.25l-.0781-.03125c-.359375.1875-.75.359375-1.25.53125L.375-3.04687h.0469c.234375-.109375.484375-.21875.71875-.328125.03125 0 .046875.0625.046875.1875v2.65625c0 .296875-.0625.34375-.359375.359375l-.2969.03125v.15625C.828125 0 1.125 0 1.4375 0 1.71875 0 2 0 2.296875.015625zm0 0" id="a"/><path d="M2.5625.01563c0-.109375 0-.171875 0-.25 0-.0625 0-.125 0-.25l-1.8906.0625 1-1.0625c.53125-.5625.6875-.859375.6875-1.28125 0-.625-.421875-1.015625-1.125-1.015625-.390625 0-.65625.109375-.921875.390625l-.0937.73438H.375l.0625-.25c.09375-.3125.296875-.453125.65625-.453125.46875 0 .78125.296875.78125.765625 0 .40625-.234375.8125-.859375 1.46875l-.9219 1v.14063C.5 0 .90625 0 1.3125 0c.421875 0 .84375 0 1.25.015625zm0 0" id="e"/><path d="M2.5313-1.23437c0-.25-.109375-.484375-.296875-.625C2.09375-1.953125 1.96875-2 1.6875-2.046875c.4375-.34375.609375-.59375.609375-.921875 0-.484375-.40625-.8125-1.015625-.8125-.375 0-.625.109375-.890625.375l-.1562.67188H.4063L.5-3.03125c.0625-.1875.40625-.375.703125-.375.34375 0 .640625.28125.640625.625 0 .421875-.328125.765625-.71875.765625-.046875 0-.25-.015625-.25-.015625L.8125-1.75l.0313.03125c.203125-.078125.3125-.109375.46875-.109375.453125 0 .71875.28125.71875.78125 0 .5625-.34375.9375-.859375.9375-.25 0-.46875-.09375-.640625-.234375-.125-.125-.203125-.25-.296875-.546875l-.1562.04688c.125.34375.15625.53125.203125.8125.28125.09375.53125.140625.734375.140625.65625 0 1.515625-.578125 1.515625-1.34375zm0 0" id="f"/><path d="M2.5938.01563v-.15625l-.2656-.03125C2.0625-.1875 2-.25 2-.578125V-1c.3125 0 .4375.015625.59375.03125v-.39062s-.28125.015625-.453125.015625H2v-.76562c0-.96875 0-1.4375.03125-1.671875l-.0625-.03125-.4062.15625L.0156-1.125.0781-1h1.4532v.42188c0 .328125-.0625.40625-.328125.40625l-.3437.03125v.15625C1.15625 0 1.453125 0 1.75 0c.28125 0 .5625 0 .84375.015625zM1.5313-1.34375H.3594l1.1719-1.9375zm0 0" id="g"/><path d="M2.5156-1.39062c0-.609375-.4375-1.0625-1.0625-1.0625-.265625 0-.46875.078125-.8125.28125l.0625-1.14062 1.6719.01562.0156-.01562c0-.109375 0-.140625 0-.21875 0-.09375 0-.125 0-.21875l-.0156-.03126S1.78125-3.75 1.421875-3.75c-.375 0-.96875-.03125-.96875-.03125L.4375-3.75V-3c0 .484375-.015625 1-.03125 1.234375l.1094.03125c.265625-.25.40625-.328125.6875-.328125.515625 0 .84375.375.84375.953125 0 .609375-.34375.96875-.9375.96875-.296875 0-.578125-.09375-.65625-.234375l-.25-.45312-.125.07813c.125.3125.1875.484375.265625.734375.15625.078125.375.125.609375.125.359375 0 .75-.15625 1.046875-.421875.34375-.296875.515625-.671875.515625-1.078125zm0 0" id="h"/><path d="M2.5625-1.20312c0-.625-.375-1.046875-.953125-1.046875-.328125 0-.53125.140625-.890625.4375.109375-1 .578125-1.53125 1.5625-1.828125v-.04688l-.2031-.09375c-.53125.171875-.75.28125-1.03125.53125-.5625.46875-.875 1.140625-.875 1.890625 0 .90625.4375 1.46875 1.15625 1.46875.703125 0 1.234375-.5625 1.234375-1.3125zm-.4687.1875c0 .578125-.28125.9375-.703125.9375-.46875 0-.71875-.390625-.71875-1.125-5e-5-.20313.0312-.29688.078075-.39063.125-.1875.390625-.3125.65625-.3125.40625 0 .6875.359375.6875.890625zm0 0" id="i"/><path d="M2.7188-3.60937v-.17187C2.140625-3.75 2.078125-3.75 1.5-3.75s-.671875 0-1.203125-.03125l-.0625.03125S.25-3.40625.25-3.171875c0 .21875-.015625.5625-.015625.5625H.4063l.0313-.3125c.046875-.34375.09375-.390625.34375-.390625H2.25c-.21875.453125-.390625.765625-.609375 1.109375L.3125-.0625.3594.01563S.515625 0 .609375 0s.25.015625.25.015625c.234375-.59375.375-.953125.859375-1.828125zm0 0" id="j"/><path d="M2.5469-1.125c0-.4375-.203125-.671875-.828125-.96875.5-.328125.671875-.5625.671875-.890625 0-.46875-.390625-.796875-.96875-.796875-.65625 0-1.125.421875-1.125 1 0 .375.140625.578125.625.890625-.21875.109375-.3125.15625-.4375.28125C.281275-1.40625.1719-1.15625.1719-.875c0 .5625.453125.984375 1.0625.984375.71875 0 1.3125-.5625 1.3125-1.234375zm-.4375.21875c0 .46875-.34375.828125-.78125.828125-.46875 0-.78125-.328125-.78125-.84375 0-.390625.171875-.640625.578125-.890625l.4375.1875c.34375.15625.546875.421875.546875.71875zm-.0937-2.01562c0 .3125-.140625.515625-.484375.75l-.3125-.14062c-.343825-.171885-.5157-.390635-.5157-.671885 0-.359375.265625-.609375.65625-.609375s.65625.265625.65625.671875zm0 0" id="k"/><path d="M1.1875-1.75c0-.203125-.1875-.375-.390625-.375-.1875 0-.359375.171875-.359375.375 0 .1875.171875.375.359375.375.21875 0 .390625-.1875.390625-.375zm0 0" id="b"/></defs><g class="a"><path d="M0 189.882812h2640.039062"/><path d="M120 128.164062v123.4375"/><path d="M2520.039062 128.164062v123.4375"/><path d="M2520.039062 152.851562v74.0625"/></g><use x="250.443" y="20.44297" href="#c"/><path d="M1320 152.851562v74.0625" class="a"/><use x="130.681" y="17.44297" href="#a"/><path d="M130.668 18.05469h2.7617v.48047h-2.7617zm0 0"/><use x="130.681" y="22.72305" href="#e"/><path d="M920.039062 152.851562v74.0625" class="a"/><use x="90.682" y="17.44297" href="#a"/><path d="M90.6719 18.05469h2.7617v.48047h-2.7617zm0 0"/><use x="90.682" y="22.60391" href="#f"/><path d="M720 152.851562v74.0625" class="a"/><use x="70.6809" y="17.44297" href="#a"/><path d="M70.668 18.05469h2.7617v.48047H70.668zm0 0"/><use x="70.6809" y="22.72305" href="#g"/><path d="M600 152.851562v74.0625" class="a"/><use x="58.6801" y="17.44297" href="#a"/><path d="M58.668 18.05469h2.7617v.48047H58.668zm0 0"/><use x="58.6801" y="22.60391" href="#h"/><path d="M520 152.851562v74.0625" class="a"/><use x="50.6809" y="17.44297" href="#a"/><path d="M50.668 18.05469h2.7617v.48047H50.668zm0 0"/><use x="50.6809" y="22.60391" href="#i"/><path d="M462.851562 152.851562v74.0625" class="a"/><use x="44.966" y="17.44297" href="#a"/><path d="M44.9531 18.05469h2.7617v.48047h-2.7617zm0 0"/><use x="44.966" y="22.72305" href="#j"/><path d="M420 152.851562v74.0625" class="a"/><use x="40.6801" y="17.44297" href="#a"/><path d="M40.668 18.05469h2.7617v.48047H40.668zm0 0"/><use x="40.6801" y="22.60391" href="#k"/><g class="a"><path d="M386.679688 152.851562v74.0625"/><path d="M360 152.851562v74.0625"/><path d="M338.164062 152.851562v74.0625"/><path d="M320 152.851562v74.0625"/><path d="M304.609375 152.851562v74.0625"/><path d="M291.445312 152.851562v74.0625"/><path d="M280 152.851562v74.0625"/><path d="M270 152.851562v74.0625"/><path d="M261.171875 152.851562v74.0625"/><path d="M253.359375 152.851562v74.0625"/><path d="M246.328125 152.851562v74.0625"/><path d="M240 152.851562v74.0625"/><path d="M234.296875 152.851562v74.0625"/><path d="M229.101562 152.851562v74.0625"/><path d="M224.375 152.851562v74.0625"/><path d="M220 152.851562v74.0625"/><path d="M216.015625 152.851562v74.0625"/><path d="M212.304688 152.851562v74.0625"/><path d="M208.90625 152.851562v74.0625"/><path d="M205.703125 152.851562v74.0625"/><path d="M202.773438 152.851562v74.0625"/><path d="M200 152.851562v74.0625"/><path d="M197.421875 152.851562v74.0625"/><path d="M195 152.851562v74.0625"/><path d="M192.734375 152.851562v74.0625"/><path d="M190.585938 152.851562v74.0625"/><path d="M188.554688 152.851562v74.0625"/><path d="M186.679688 152.851562v74.0625"/><path d="M184.882812 152.851562v74.0625"/><path d="M183.164062 152.851562v74.0625"/><path d="M181.523438 152.851562v74.0625"/></g><use x="22.9199" y="19.24297" href="#b"/><use x="25.6801" y="19.24297" href="#b"/><use x="28.5601" y="19.24297" href="#b"/><use x="10.4402" y="20.32305" href="#d"/><path d="M120 152.851562h60v74.0625h-60zm0 0" style="stroke-width:1.2;stroke:#000;stroke-miterlimit:10;transform:matrix(.1,0,0,-.1,0,26)"/><style>.a{fill:none;stroke:#000;stroke-miterlimit:10;stroke-width:3.985;transform:matrix(.1,0,0,-.1,0,26)}</style></svg>