<svg xmlns="http://www.w3.org/2000/svg" width="161pt" height="60pt" viewBox="0 0 161 60"><defs><clipPath id="b"><path d="M.1797 24H44v30H.1797zm0 0"/></clipPath><clipPath id="c"><path d="M0 0h161v60H0z"/></clipPath><g id="d" clip-path="url(#c)"><path fill-rule="evenodd" fill="#dcdcdc" fill-opacity="1" d="M44.4453 17.38281l1.7031-.44141 1.5118-.1914 1.3203.19141 1.2617.44141 1.0703.69141 1.0703.88281.8828 1.07031.8828 1.13281.7539 1.13281.7578 1.19922.6914 1.07031.6914.94531.6953.81641.6914.57031.7578.3125.8789.125.5703-.125.6914-.25.7539-.37891.8203-.50391.9453-.56641.9453-.69531 1.1328-.75391 1.1953-.88281 1.3242-.88281 1.4492-.94531 1.5117-1.00781 1.6367-1.00781 1.7031-.94141 1.8867-1.00781 1.8906-.94531 2.0156-.88281 2.1406-.82031 2.1445-.69141 2.2656-.69141 2.332-.50391 2.3945-.44141 2.5195-.31641 2.582-.1875 2.6445-.0625 2.0781.0625 2.207.125 2.2031.1875 2.332.31641 2.3281.31641 2.457.4375 2.457.44141 2.5195.56641 2.5195.63281 2.5195.62891 2.5195.75391 2.582.75781 2.457.82031 2.457.81641 2.3945.88281 2.332.94531 2.2031.88281 2.0781.94531 1.9531.94141 1.8281.94531 1.6992.94531 1.5117.88281 1.3242.94531 1.1328.88281.9453.81641.7539.82031.5664.75391.3164.75781.125.69141-.0625.62891-.3164.57031-.5039.56641-.6289.44141-.8164.375-.9453.37891-1.1367.31641-1.2578.3125-1.4492.31641-1.6367.25-1.7656.25391-1.8906.25-2.0117.19141-2.207.1875-2.332.125-2.5156.19141-2.5859.125-2.707.125-2.7734.12891-2.8945.125-2.9609.0625-3.0859.125-3.0898.0625-3.1484.0625-3.2109.06641-3.2148.125-6.4219.125-3.2148.0625-3.2109.125-3.1484.06641-3.0898.125-3.0859.125-2.9609.125-2.9609.12891-2.8945.1875-2.7734.125-2.707.19141-2.7109.25-2.582.19141-2.5195.25-3.5273.44141-3.4648.44141-3.3359.50391-3.2148.56641-3.0859.56641-3.0234.62891-2.8984.63281-2.832.62891-2.6484.69141-2.5195.62891-2.3906.63281-2.2695.62891-2.0781.56641-1.8906.56641-1.6992.44141-1.5742.44141-1.3242.37891-1.1953.25-.9453.19141-.8203.125h-.6289l-.4414-.125-.3164-.19141-.125-.3125.0625-.37891.1914-.56641.3125-.69531.4414-.75391.6289-.88281.6953-1.07031.8828-1.07031 1.0078-1.26172 1.1328-1.32031 1.1953-1.38672 2.7734-3.02344 1.5742-1.57422 1.5742-1.64063 1.6367-1.57422 1.6367-1.63672 1.7031-1.57422 1.6992-1.51172 1.7031-1.51172 1.6992-1.38672 1.5742-1.32031 1.6367-1.19922 1.5117-1.13281 1.4492-.94531 1.3867-.88281 1.2617-.75391 1.2578-.63281"/><path d="M442.653125 431.661875l17.03125 4.414063L474.801562 437.99l13.203125-1.914062 12.617188-4.414063 10.703125-6.914062 10.703125-8.828125 8.828125-10.703125 8.828125-11.328125 7.539062-11.328125 7.578125-11.992188 6.914063-10.703125 6.914062-9.453125 6.953125-8.164062 6.914063-5.703125 7.578125-3.125 8.789062-1.25 5.703125 1.25 6.914063 2.5 7.539062 3.789062 8.203125 5.039063 9.453125 5.664062 9.453125 6.953125 11.328125 7.539063 11.953125 8.828125 13.242188 8.828125 14.492187 9.453125 15.117188 10.078125 16.367187 10.078125 17.03125 9.414062 18.867188 10.078125 18.90625 9.453125 20.15625 8.828125 21.40625 8.203125 21.445312 6.914063 22.65625 6.914062 23.320313 5.039063 23.945312 4.414062 25.195313 3.164063 25.820312 1.875 26.445313.625 20.78125-.625 22.070312-1.25 22.03125-1.875 23.320313-3.164063 23.28125-3.164062 24.570312-4.375 24.570313-4.414063 25.195312-5.664062 25.195313-6.328125 25.195312-6.289063 25.195313-7.539062 25.820312-7.578125 24.570313-8.203125 24.570312-8.164063 23.945313-8.828125 23.320312-9.453125 22.03125-8.828125 20.78125-9.453125 19.53125-9.414062 18.28125-9.453125 16.992188-9.453125 15.117187-8.828125 13.242188-9.453125 11.328125-8.828125 9.453125-8.164063 7.539062-8.203125 5.664063-7.539062 3.164062-7.578125 1.25-6.914063-.625-6.289062-3.164062-5.703125-5.039063-5.664063-6.289062-4.414062-8.164063-3.75-9.453125-3.789063-11.367187-3.164062-12.578125-3.125-14.492188-3.164063-16.367187-2.5-17.65625-2.539062-18.90625-2.5-20.117188-1.914063-22.070312-1.875-23.320313-1.25-25.15625-1.914062-25.859375-1.25-27.070312-1.25-27.734375-1.289063-28.945313-1.25-29.609375-.625-30.859375-1.25-30.898437-.625-31.484375-.625-32.109375-.664062-32.148438-1.25-64.21875-1.25-32.148437-.625-32.109375-1.25-31.484375-.664063-30.898438-1.25-30.859375-1.25-29.609375-1.25-29.609375-1.289062-28.945312-1.875-27.734375-1.25-27.070313-1.914063-27.109375-2.5-25.820312-1.914062-25.195313-2.5L552.2625 199.24l-34.648438-4.414062-33.359375-5.039063-32.148437-5.664062-30.859375-5.664063-30.234375-6.289062-28.984375-6.328125-28.320313-6.289063-26.484375-6.914062-25.195312-6.289063-23.90625-6.328125-22.695313-6.289062-20.78125-5.664063-18.90625-5.664062L178.746875 117.99l-15.742188-4.414062-13.242187-3.789063-11.953125-2.5-9.453125-1.914062-8.203125-1.25h-6.289063l-4.414062 1.25-3.164063 1.914062-1.25 3.125.625 3.789063L107.575 119.865l3.125 6.953125 4.414062 7.539063 6.289063 8.828125 6.953125 10.703125 8.828125 10.703125L147.2625 177.20875l11.328125 13.203125 11.953125 13.867188 27.734375 30.234375 15.742187 15.742187 15.742188 16.40625 16.367187 15.742188 16.367188 16.367187 17.03125 15.742188 16.992187 15.117187 17.03125 15.117188L330.54375 358.615l15.742187 13.203125 16.367188 11.992188 15.117187 11.328125 14.492188 9.453125 13.867187 8.828125 12.617188 7.539062 12.578125 6.328125zm0 0" style="fill:none;stroke-width:4.72425;stroke-linecap:butt;stroke-linejoin:bevel;stroke:#000;stroke-opacity:1;stroke-miterlimit:10;transform:matrix(.1,0,0,-.1,.18,60.549)"/><g clip-path="url(#b)"><path d="M8.04375 72.638438H433.2v283.4375H8.04375zm0 0" class="a"/></g><g class="a"><path d="M263.160937 129.318125h311.796875v396.835938H263.160937zm0 0"/><path d="M871.0125 202.404063h132.265625v229.257812H871.0125zm0 0"/><path d="M1083.278125 327.130625H1271.6375v96.992188h-188.359375zm0 0"/><path d="M1128.004687 136.89625h178.867188v214.765625h-178.867188zm0 0"/><path d="M1190.973437 299.39625h251.992188V478.3025h-251.992188zm0 0"/><path d="M1381.207812 247.130625h217.96875v176.992188h-217.96875zm0 0"/><path d="M1271.6375 181.622813h229.257812V321.4275H1271.6375zm0 0"/><path d="M554.176562 8.380625h346.445313v386.132813H554.176562zm0 0"/><path d="M952.8875 174.044688h216.054687v348.984375H952.8875zm0 0"/><path d="M1141.246875 403.341563h85.664062v199.6875h-85.664062zm0 0"/><path d="M684.567187 355.450938h283.4375V582.20875h-283.4375zm0 0"/></g></g><path d="M6.7813 0v-.1875c-.53125-.046875-.765625-.25-1-.859375l-1.1094-2.9375c.921875-.203125 1.3125-.359375 1.75-.75.390625-.34375.609375-.8125.609375-1.34375 0-1.125-.875-1.734375-2.484375-1.734375H1.5782v.20313c.5.0625.5625.078125.6875.15625.09375.0625.15625.203125.15625.34375s-.046875.421875-.140625.75L.8125-1.07812C.59375-.375.53125-.296875-.15625-.1875V0h2.9219v-.1875c-.75-.09375-.8125-.140625-.8125-.5625 0-.125.015625-.234375.140625-.6875l.6719-2.5.7656.0625L5.0156 0zM5.7656-6.10937c0 1.1875-.75 1.796875-2.25 1.796875-.21875 0-.3125-.015625-.609375-.0625l.7813-2.73437c.0625-.25.21875-.34375.609375-.34375.984375 0 1.46875.453125 1.46875 1.34375zm0 0" id="a"/><path d="M5.1563-2.17187c0-.78125-.265625-1.234375-1.359375-2.328125C2.71875-5.59375 2.625-5.765625 2.625-6.34375c0-.75.5-1.21875 1.3125-1.21875.4375 0 .796875.140625 1.046875.421875.28125.296875.375.703125.390625 1.515625l.2188.03125.4844-2.375H5.797c-.171875.25-.28125.3125-.53125.3125-.15625 0-.3125-.046875-.5625-.140625-.25-.109375-.640625-.15625-1.015625-.15625-1.234375 0-2.125.8125-2.125 1.984375 0 .65625.1875 1 .90625 1.765625.15625.15625.296875.3125.453125.5l.4688.5c.5625.578125.71875.890625.71875 1.40625 0 .90625-.65625 1.59375-1.546875 1.59375-1 0-1.734375-.84375-1.734375-2.015625 0-.09375 0-.140625.015625-.25l-.2344-.01562-.4062 2.65625h.2188C.5-.09375.640625-.21875.875-.21875c.125 0 .296875.046875.625.15625.546875.203125.859375.28125 1.234375.28125 1.375 0 2.421875-1.03125 2.421875-2.390625zm0 0" id="e"/><path d="M3.4531 0v-.125c-.687475-.015625-.8281-.109375-.8281-.53125v-5.25l-.0781-.01562L.9688-5.125V-5c.109375-.046875.203125-.078125.234375-.109375.171875-.046875.3125-.09375.40625-.09375.171875 0 .25.140625.25.421875V-.8125c0 .28125-.0625.484375-.203125.5625-.125.078125-.25.109375-.625.125V0zm0 0" id="f"/><path d="M4.1563-1.20312 4.0469-1.25c-.328125.5-.4375.578125-.828125.578125H1.125l1.4688-1.53125C3.375-3.03125 3.71875-3.6875 3.71875-4.375c0-.875-.71875-1.546875-1.625-1.546875-.484375 0-.9375.1875-1.265625.546875-.28125.296875-.40625.578125-.5625 1.1875l.1875.04688C.8125-5 1.125-5.28125 1.734375-5.28125c.734375 0 1.234375.5 1.234375 1.234375 0 .6875-.40625 1.5-1.140625 2.28125l-1.5625 1.65625V0H3.6875zm0 0" id="g"/><path d="M3.7813-1.92187c0-.4375-.140625-.859375-.390625-1.125-.171875-.203125-.34375-.296875-.71875-.46875.59375-.40625.8125-.734375.8125-1.203125 0-.71875-.5625-1.203125-1.359375-1.203125-.4375 0-.828125.140625-1.140625.421875-.265625.234375-.390625.46875-.59375 1l.1406.03125c.359375-.640625.75-.9375 1.296875-.9375.578125 0 .96875.390625.96875.9375 0 .328125-.125.640625-.34375.859375-.26565.26562-.51565.39062-1.1094.60937v.10938c.515625 0 .71875.015625.921875.09375.546875.1875.890625.6875.890625 1.296875 0 .734375-.5 1.3125-1.15625 1.3125-.234375 0-.40625-.0625-.734375-.28125-.25-.15625-.40625-.21875-.5625-.21875-.1875 0-.328125.125-.328125.3125 0 .3125.375.5 1 .5.671875 0 1.359375-.234375 1.765625-.59375.421875-.359375.640625-.859375.640625-1.453125zm0 0" id="h"/></defs><use href="#d"/><g fill="#676767"><use x="2.899" y="35.665" href="#a"/><use x="10.323" y="37.458" href="#f"/><use x="28.097" y="18.152" href="#a"/><use x="35.521" y="19.945" href="#g"/></g><use x="66.817" y="36.358" href="#e"/><g fill="#676767"><use x="59.595" y="56.202" href="#a"/><use x="67.02" y="57.995" href="#h"/></g><style>.a{fill:none;stroke:#676767;stroke-dasharray:9.4485,28.3455;stroke-dashoffset:28.3455;stroke-linecap:butt;stroke-linejoin:miter;stroke-miterlimit:10;stroke-opacity:1;stroke-width:4.72425;transform:matrix(.1,0,0,-.1,.18,60.549)}</style></svg>