<svg xmlns="http://www.w3.org/2000/svg" width="107pt" height="65pt" viewBox="0 0 107 65"><defs><clipPath id="d"><path d="M0 50h92v2H0zm0 0"/></clipPath><clipPath id="e"><path d="M-.6133 65.55078h93v-68h-93zM91.25 50.53125v.87891l-9.0078 1.44922v-3.77734zm0 0" class="c"/></clipPath><clipPath id="f"><path d="M75 42h17.3867v18H75zm0 0"/></clipPath><clipPath id="g"><path d="M59 13h7v2h-7zm0 0"/></clipPath><clipPath id="h"><path d="M-.6133 65.55078h93v-68h-93zm66.3516-51.87109v.88281l-9.0703 1.44922 7.5586-1.89062-7.5586-1.89062zm0 0" class="c"/></clipPath><clipPath id="i"><path d="M31 24h16v15H31zm0 0"/></clipPath><clipPath id="j"><path d="M-.6133 65.55078h93v-68h-93zM39.4688 30.5625l.6328.62891-5.3555 7.43359 3.9688-6.67578-6.6758 3.96875zm0 0" class="c"/></clipPath><clipPath id="k"><path d="M0 0h93v65H0z"/></clipPath><g id="l" clip-path="url(#k)"><path d="M21.0781 39.63281c0 .625-.507813 1.132813-1.132813 1.132813-.628906 0-1.136718-.507813-1.136718-1.132813S19.316406 38.5 19.945312 38.5c.625 0 1.132813.507812 1.132813 1.132812" class="b"/><path d="M216.91125 259.161875c0-6.25-5.078125-11.328125-11.328125-11.328125-6.289063 0-11.367188 5.078125-11.367188 11.328125S199.294062 270.49 205.583125 270.49c6.25 0 11.328125-5.078125 11.328125-11.328125zm0 0" class="a"/><path d="M77.7695 14.12109c0 .625-.507812 1.132812-1.136719 1.132812-.625 0-1.132812-.507812-1.132812-1.132812s.507812-1.132813 1.132812-1.132813c.628907 0 1.136719.507813 1.136719 1.132813" class="b"/><path d="M783.825312 514.279063c0-6.25-5.078125-11.328125-11.367187-11.328125-6.25 0-11.328125 5.078125-11.328125 11.328125s5.078125 11.328125 11.328125 11.328125c6.289062 0 11.367187-5.078125 11.367187-11.328125zm0 0" class="a"/><path d="M46.5898 14.12109c0 .625-.507813 1.132812-1.136719 1.132812-.625 0-1.132813-.507812-1.132813-1.132812s.507813-1.132813 1.132813-1.132813c.628906 0 1.136719.507813 1.136719 1.132813" class="b"/><g class="a"><path d="M472.028437 514.279063c0-6.25-5.078125-11.328125-11.367187-11.328125-6.25 0-11.328125 5.078125-11.328125 11.328125s5.078125 11.328125 11.328125 11.328125c6.289062 0 11.367187-5.078125 11.367187-11.328125zm0 0"/><path d="M92.184687 599.318125V60.763438"/></g><g clip-path="url(#d)"><g clip-path="url(#e)"><path d="M7.145625 145.763438h907.070312" class="a"/></g></g><path d="M82.2422 52.85938l7.5586-1.88672-7.5586-1.89062zm0 0" class="b"/><g clip-path="url(#f)"><path d="M828.551875 126.89625l75.585937 18.867188-75.585937 18.90625zm0 0" class="a"/></g><g clip-path="url(#g)"><g clip-path="url(#h)"><path d="M602.419062 514.279063h56.679688" class="a"/></g></g><g class="a"><path d="M572.809687 533.185313l75.585938-18.90625-75.585938-18.90625"/><path d="M460.66125 514.279063h311.796875"/></g><g clip-path="url(#i)"><g clip-path="url(#j)"><path d="M392.028437 334.747813l8.789063 8.828125" class="a"/></g></g><g style="fill:none;stroke-width:4.72425;stroke-linecap:butt;stroke:#000;stroke-opacity:1;stroke-miterlimit:10;transform:matrix(.1,0,0,-.1,-.613,65.549)"><path stroke-linejoin="miter" d="M326.520625 296.310313l66.757812 39.6875-39.6875-66.757813"/><path stroke-linejoin="bevel" d="M205.583125 259.161875h4.375l5.039062-.625h17.65625l10.703125.625 12.617188.625 13.203125 1.914063 13.867187 2.5L296.91125 267.99l14.492187 5.039063 15.742188 6.914062 15.742187 9.453125L359.255 301.349375l16.367187 14.492188 13.242188 15.117187 11.953125 15.117188 10.742187 15.742187 8.164063 15.78125 7.578125 15.117188 6.289062 15.117187L438.63 422.325938l5.039062 15.117187 3.789063 13.828125 3.125 13.867188 3.164062 12.617187 2.5 11.328125 1.289063 8.828125 1.875 7.539063.625 5.039062.625 2.539063v1.25"/></g></g><path d="M4.4219-1.15625l-.1406-.14062c-.859375.703125-1.234375.890625-1.765625.890625-.65625 0-1.109375-.4375-1.109375-1.09375 0-.171875.03125-.34375.125-.71875l.3281-.04687c1.796875-.25 3.0625-1.171875 3.0625-2.1875 0-.5-.359375-.8125-.953125-.8125C2.25-5.265625.375-3.3125.375-1.5c0 .96875.640625 1.625 1.578125 1.625.84375 0 1.765625-.46875 2.46875-1.28125zm-.2812-3.375c0 .375-.234375.796875-.609375 1.15625-.4375.421875-.890625.640625-1.921875.890625l.2031-.53125C2.21875-4.078125 3.109375-5 3.71875-5c.25 0 .421875.1875.421875.46875zm0 0" id="a"/><path d="M5.6094-3.78125c0-.921875-.515625-1.484375-1.375-1.484375-.78125 0-1.359375.375-2.046875 1.34375l.375-1.29687s-.03125-.046875-.0625-.046875h-.0156l-1.8437.25.0313.1875c.359375 0 .78125 0 .78125.328125 0 .140625-.421875 1.78125-.859375 3.375l-.6875 2.67188c-.125.5625-.28125.703125-.796875.71875v.1875h2.4375v-.1875c-.5625 0-.765625-.09375-.765625-.359375 0-.15625.203125-1.0625.453125-1.984375C1.53125.078125 1.75.125 2.015625.125c1.75 0 3.59375-1.984375 3.59375-3.90625zm-1.0781.04688c0 .78125-.328125 1.78125-.828125 2.5-.515625.75-1.09375 1.140625-1.734375 1.140625-.328125 0-.5625-.1875-.5625-.4375 0-.40625.40625-1.96875.765625-2.859375C2.484375-4.1875 3.15625-4.75 3.734375-4.75c.015625 0 .046875 0 .0625 0 .5.015625.734375.328125.734375 1.015625zm0 0" id="m"/><path d="M4.9688-1.23437l-.1562-.09375c-.109375.125-.15625.1875-.265625.328125-.28125.359375-.40625.46875-.5625.46875-.171875 0-.28125-.15625-.359375-.484375-.03125-.109375-.046875-.171875-.046875-.1875-.296875-1.125-.4375-1.765625-.4375-1.953125.53125-.921875.953125-1.453125 1.171875-1.453125.078125 0 .1875.046875.296875.109375.140625.078125.21875.09375.328125.09375.234375 0 .40625-.171875.40625-.421875 0-.265625-.203125-.4375-.484375-.4375-.53125 0-.96875.421875-1.8125 1.703125l-.125-.65625c-.171875-.8125-.296875-1.046875-.625-1.046875-.28125 0-.65625.09375-1.40625.34375l-.125.04688.0469.17188L1.0156-4.75c.234375-.0625.375-.078125.46875-.078125.296875 0 .375.109375.53125.828125l.3438 1.46875-.9687 1.39063C1.140625-.78125.90625-.5625.78125-.5625c-.078125 0-.203125-.03125-.3125-.109375C.3125-.75.1875-.78125.078125-.78125c-.234375 0-.40625.171875-.40625.40625 0 .3125.234375.5.609375.5.359375 0 .5-.09375 1.109375-.8125L2.4688-2.10937l.3594 1.4375c.140625.625.296875.796875.6875.796875.453125 0 .765625-.28125 1.453125-1.359375zm0 0" id="b"/><path d="M5.7188-1.25l-.1562-.15625c-.65625.828125-.796875.953125-.984375.953125-.109375 0-.1875-.09375-.1875-.21875s.1875-.875.390625-1.484375c.359375-1.125.578125-2.015625.578125-2.3125 0-.484375-.328125-.796875-.796875-.796875-.765625 0-1.625.765625-2.734375 2.515625l1.4375-5.35937-.0625-.04687c-.6875.140625-1.15625.234375-1.875.3125v.1875c.0625 0 .125 0 .203125 0 .296875 0 .59375.015625.59375.28125 0 .28125-.1875.890625-.28125 1.25L.2344 0h.8906c.484375-1.84375.625-2.25 1.109375-2.96875.625-.953125 1.4375-1.6875 1.859375-1.6875.171875 0 .328125.140625.328125.296875 0 .046875-.03125.203125-.078125.390625L3.6875-1.5c-.15625.59375-.25.96875-.25 1.109375 0 .3125.203125.5.53125.5.609375 0 1.015625-.328125 1.75-1.359375zm0 0" id="n"/><path d="M1.25-.25l.9063-3.59375-.0312-.01562c-.734375.125-1.203125.203125-1.484375.21875V-3.5L.875-3.51562h.0625c.25 0 .34375.09375.34375.28125 0 .09375-.03125.265625-.140625.703125l-.625 2.5625c-.296875 1.203125-.5 1.578125-.84375 1.578125-.109375 0-.15625-.03125-.15625-.09375 0-.03125 0-.046875.03125-.09375.0625-.078125.078125-.109375.078125-.1875 0-.1875-.15625-.328125-.359375-.328125s-.359375.15625-.359375.375c0 .3125.296875.53125.703125.53125C.375 1.8125.890625 1.15625 1.25-.25zm1.3906-4.90625c0-.25-.203125-.484375-.4375-.484375s-.4531.203125-.4531.46875c0 .28125.203125.46875.453125.46875.234375 0 .4375-.203125.4375-.453125zm0 0" id="c"/><path d="M3.4063-3.46875H.7344v.79688h2.6719V0h.7969v-2.67187h2.6563v-.79687H4.2033v-2.67187h-.797zm0 0" id="o"/></defs><use href="#l"/><use x="82.532" y="60.95" href="#a"/><use x="89.395" y="62.743" href="#c"/><use x="15.19" y="33.987" href="#m"/><use x="39.83" y="8.474" href="#b"/><use x="71.0092" y="8.474" href="#b"/><use x="79.5571" y="8.474" href="#o"/><use x="90.2451" y="8.474" href="#n"/><use x="96.6411" y="8.474" href="#a"/><use x="103.508" y="10.267" href="#c"/><style>.a{fill:none;stroke:#000;stroke-linecap:butt;stroke-linejoin:miter;stroke-miterlimit:10;stroke-opacity:1;stroke-width:4.72425;transform:matrix(.1,0,0,-.1,-.613,65.549)}.b{fill:#000;fill-opacity:1;fill-rule:evenodd}.c{clip-rule:evenodd}</style></svg>