<svg xmlns="http://www.w3.org/2000/svg" width="353pt" height="104pt" viewBox="0 0 353 104"><defs><clipPath id="l"><path d="M207 0h146v103.5508H207zm0 0"/></clipPath><clipPath id="m"><path d="M307 76h20v17h-20zm0 0"/></clipPath><clipPath id="n"><path d="M-.2344 103.5508h354v-104h-354zm320.5157-21.043.3789.7539-7.4336 5.293-1.6367-3.3398zm0 0" class="b"/></clipPath><clipPath id="o"><path d="M28 95h7v2h-7zm0 0"/></clipPath><clipPath id="p"><path d="M-.2344 103.5508h354v-104h-354zm34.793-8.0664v.8789l-9.0078 1.4492v-3.7773zm0 0" class="b"/></clipPath><clipPath id="q"><path d="M18 87h22v16.5508H18zm0 0"/></clipPath><clipPath id="r"><path d="M24 9h23v18H24zm0 0"/></clipPath><clipPath id="s"><path d="M-.2344 103.5508h354v-104h-354zm31.2656-83.5937-.3164-.8164 8.125-4.2852 1.1992 3.5898zm0 0" class="b"/></clipPath><clipPath id="t"><path d="M123 38h18v21h-18zm0 0"/></clipPath><clipPath id="u"><path d="M-.2344 103.5508h354v-104h-354zm133.4336-59.2773.8203.3125-1.8906 8.9453-3.5273-1.3867zm0 0" class="b"/></clipPath><clipPath id="v"><path d="M282 47h22v17h-22zm0 0"/></clipPath><clipPath id="w"><path d="M-.2344 103.5508h354v-104h-354zM288.6602 57.5l-.1875-.8203 8.1875-3.9023 1.0703 3.6523zm0 0" class="b"/></clipPath><clipPath id="x"><path d="M64 63h59v32H64zm0 0"/></clipPath><clipPath id="y"><path d="M-.2344 103.5508h354v-104h-354zm116.8047-33.7031.3164.8164-7.9375 4.5352-1.3242-3.5273zm0 0" class="b"/></clipPath><clipPath id="z"><path d="M47 35h31v60H47zm0 0"/></clipPath><clipPath id="A"><path d="M-.2344 103.5508h354v-104h-354zm53.625-61.7344.8203-.3164 4.5352 7.9375-3.5273 1.3242zm0 0" class="b"/></clipPath><clipPath id="B"><path d="M0 0h353v104H0z"/></clipPath><g id="C" clip-path="url(#B)"><path d="M36.9531 95.9219l1.9492-.25 2.0156-.3164 2.1445-.3125 2.2031-.4414 2.332-.5039 2.3906-.5664 2.457-.5664 2.5859-.6953 2.582-.7539 2.707-.8203 2.7738-.8204 2.832-.9414 2.8359-.9453 2.8984-1.0703 2.9609-1.0742 2.957-1.1328 2.9609-1.1953L83.5 82.3164l2.9609-1.2578 2.9609-1.2617 2.8984-1.3203 2.832-1.3242 2.7734-1.3867 2.707-1.3828 2.6484-1.3867 2.582-1.3867 2.5195-1.3867 2.332-1.3828 2.2656-1.4492 2.2031-1.3867 2.0156-1.3867 1.9531-1.3242 1.7656-1.3828 1.6992-1.3242 1.5742-1.3242 1.4492-1.3203 1.3242-1.3242 1.1953-1.3203 1.0703-1.3867 1.0078-1.3242.8828-1.3867.6914-1.3828.6328-1.3242.4414-1.3867.375-1.3867.2539-1.3828.0625-1.3242V41.625l-.125-1.3828-.2539-1.3867-.3789-1.3242-.5039-1.3867-.6289-1.3203-.6908-1.3243-.8203-1.2578-.9453-1.3242-1.0078-1.1953-1.1328-1.1992-1.1953-1.1953-1.2617-1.1328-1.3867-1.0742-1.3828-1.0703-1.5117-1.0078-1.5117-.9453-1.5742-.9414-1.6406-.8203-1.6367-.8203-1.7031-.7539-1.6992-.7578-1.7617-.6289-1.7031-.6289-1.8242-.5664-1.7656-.5664-1.8281-.4414-2.0156-.5039-1.9492-.4414-2.082-.3789-2.0781-.3164-2.0786-.3127-2.2031-.2539-2.207-.25-2.2656-.1914-2.2695-.125-2.3281-.125h-2.3945l-2.3945-.0625-2.3945.0625-2.457.0625-2.4531.125-2.457.1289-2.457.1875-2.3945.25-2.3945.2539-2.3906.3164-2.332.3125-2.2695.3789-2.2031.3789-2.2031.375-2.082.4414-2.0781.5039-1.9531.4414-1.9492.5039-1.8288.5664-1.7656.5039-1.6992.5664-1.6367.5703-1.5742.5664-1.5117.6289L27 21.1563l-1.8281.8164-1.6992.8828-1.7031.9453-1.6367 1.0078-1.5742 1.0078-1.5117 1.0078-1.4492 1.0703-1.3242 1.1328-1.3203 1.1367-1.2617 1.1953-1.1953 1.1953-1.0703 1.1992-1.0078 1.1953-.9453 1.2617-.8828 1.1953-.8203 1.1953-.6914 1.1367-.6914 1.1953-.5664 1.1328-.5039 1.0703-.4417 1.0705-.4414 1.0742-.3164 1.0078-.3125.9453-.2539 1.0078-.3164 1.1953-.25 1.1953-.1875 1.1992-.1289 1.1953-.125 1.2617-.0625 1.2578.0625 1.2617v1.2578l.125 1.3242.1289 1.3203.1875 1.3242.25 1.3242.2539 1.3203.3164 1.3242.3125 1.3867.3164 1.3203.3125 1.3242.3789 1.3867.3789 1.3828.3789 1.3867.25.9453.3164 1.0078.25 1.0078.3164 1.0078.3789 1.0703.375 1.0703.4414 1.0703.4414 1.1367 1.1328 2.1406.6953 1.0703.7539 1.0703.8203 1.0703.8828 1.0078.9453.9453 1.0703.9453 1.1328.8828 1.1953.8203 1.3242.7539 1.3867.6289 1.4492.6328 1.5742.5039 1.6992.4375 1.7031.3164 1.8242.2539 1.9531.1875 2.0156.0625h2.1406l2.2695-.125" class="e"/><path d="M371.89125 76.27125l19.492188 2.5 20.15625 3.164063 21.445312 3.125 22.03125 4.414062 23.320313 5.039063 23.90625 5.664062 24.570312 5.664063 25.859375 6.953125 25.820313 7.539062 27.070312 8.203125L633.2975 136.74l28.320313 9.414063 28.359375 9.453125 28.984375 10.703125 29.609375 10.742187 29.570312 11.328125 29.609375 11.953125L837.36 212.325938l29.609375 12.578125 29.609375 12.617187 28.984375 13.203125 28.320313 13.242188 27.734375 13.867187 27.070312 13.828125 26.484375 13.867188 25.820313 13.867187 25.195312 13.867188 23.320313 13.828125 22.65625 14.492187 22.03125 13.867188 20.15625 13.867187 19.53125 13.242188 17.65625 13.828125 16.992187 13.242187 15.742188 13.242188 14.492187 13.203125 13.242188 13.242187 11.953125 13.203125 10.703125 13.867188 10.078125 13.242187 8.828125 13.867188 6.914062 13.828125 6.328125 13.242187 4.414063 13.867188 3.75 13.867187 2.539062 13.828125.625 13.242188V619.24l-1.25 13.828125-2.539062 13.867188-3.789063 13.242187-5.039062 13.867188-6.289063 13.203125-6.914062 13.242187-8.203125 12.578125-9.453125 13.242188-10.078125 11.953125-11.328125 11.992187-11.953125 11.953125-12.617188 11.328125-13.867187 10.742188-13.828125 10.703125-15.117188 10.078125-15.117187 9.453125-15.742188 9.414062-16.40625 8.203125-16.367187 8.203125-17.03125 7.539063-16.992188 7.578125-17.617187 6.289062-17.03125 6.289063-18.242188 5.664062-17.65625 5.664063-18.28125 4.414062-20.15625 5.039063-19.492187 4.414062-20.820313 3.789063-20.78125 3.164062-20.78125 3.125-22.03125 2.539063-22.070312 2.5-22.65625 1.914062-22.695313 1.25-23.28125 1.25h-23.945312l-23.945313.625-23.945312-.625-24.570313-.625-24.53125-1.25-24.570312-1.289062-24.570313-1.875-23.945312-2.5-23.945313-2.539063-23.90625-3.164062-23.320312-3.125-22.695313-3.789063-22.03125-3.789062-22.03125-3.75-20.820312-4.414063-20.78125-5.039062-19.53125-4.414063-19.492188-5.039062L373.76625 860.49 356.11 855.450938l-16.992187-5.664063-16.367188-5.703125-15.742187-5.664062-15.117188-6.289063L272.36 823.9275l-18.28125-8.164062-16.992187-8.828125-17.03125-9.453125-16.367188-10.078125-15.742187-10.078125-15.117188-10.078125-14.492187-10.703125-13.242188-11.328125-13.203125-11.367188-12.617187-11.953125-11.953125-11.953125-10.703125-11.992187-10.078125-11.953125-9.453125-12.617188-8.828125-11.953125-8.203125-11.953125-6.914063-11.367187-6.914062-11.953125-5.664063-11.328125-5.039062-10.703125L31.11 593.419688 26.695938 582.6775l-3.164063-10.078125-3.125-9.453125-2.539062-10.078125L14.70375 541.115l-2.5-11.953125-1.875-11.992187-1.289062-11.953125-1.25-12.617188-.625-12.578125.625-12.617187v-12.578125l1.25-13.242188 1.289062-13.203125 1.875-13.242187 2.5-13.242188 2.539063-13.203125 3.164062-13.242187 3.125-13.867188 3.164063-13.203125 3.125-13.242187L33.61 321.27125l3.789063-13.828125 3.789062-13.867187 2.5-9.453125 3.164063-10.078125 2.5-10.078125 3.164062-10.078125 3.789063-10.703125 3.75-10.703125 4.414062-10.703125 4.414063-11.367188 11.328125-21.40625 6.953125-10.703125 7.539062-10.703125 8.203125-10.703125 8.828125-10.078125 9.453125-9.453125 10.703125-9.453125 11.328125-8.828125 11.953125-8.203125 13.242188-7.539062 13.867187-6.289063 14.492188-6.328125 15.742187-5.039062 16.992188-4.375 17.03125-3.164063 18.242187-2.539062 19.53125-1.875 20.15625-.625h21.40625l22.695313 1.25zm0 0" class="d"/><path d="M261.5117 3.3906l2.1406-.5664 2.1406-.5039 2.2695-.4414 2.3281-.375 2.332-.3164 2.457-.2539 2.5195-.25 2.5195-.125 2.6445-.1289 2.6484-.0625h2.707l2.707.125 2.7734.1289 2.7695.1875 2.8359.2539 2.7695.3125 2.7734.3789 2.7109.4414 2.7695.5039 2.6445.5664 2.582.6289 2.5859.6953 2.4531.6914 2.3945.8203 2.332.8164 2.2031.8828 2.1406.8828 2.0195.9453 1.8867 1.0078 1.8281 1.0078 1.7617 1.0703 1.5781 1.1328 1.5078 1.1328 1.4492 1.1992 1.2617 1.1953 1.1953 1.1953 1.1328 1.3242 1.0117 1.2617.9414 1.3828.8828 1.4492.8203 1.4492.6914 1.5117.6953 1.5742.5 1.6406.5078 1.6367.375 1.6992.3164 1.7031.1875 1.7617.1289 1.8281.0625 1.8242-.0625 1.8281-.1289 1.8281-.25 1.8242-.3164 1.8281-.4375 1.8281-.5078 1.8242-.5664 1.8281-.6914 1.7617-.6914 1.7656-.8828 1.6992-.8828 1.6367-.9453 1.6406-1.0078 1.6367-2.2656 3.0234-2.5234 2.8984-1.3828 1.3867-1.3867 1.3203-1.5117 1.2617-1.5742 1.2578-1.6367 1.2617-1.7031 1.1328-1.7617 1.1953-1.8281 1.1367-1.9531 1.1328-2.0156 1.0703-2.0781 1.1328-2.2031 1.0078-2.2695 1.0703-2.2656 1.0078-2.3945 1.0078-4.9141 1.8906-2.5195.8828-2.582.8828-2.582.8789-2.6484.8203-2.582.7578-2.6445.7539-2.6445.6914-2.582.6953-2.5859.6914-2.582.5664-2.4531.5664-2.5231.5715-2.3906.5039-2.332.5039-2.332.4375-2.2656.3789-4.2812.7578-2.082.3125-1.9531.3164-1.9492.3164-1.8906.25-2.332.3164-2.2656.25-2.207.2539-2.2031.1875-2.082.1914-2.0742.125-2.0195.125-1.9492.0625h-1.8911l-1.8281-.0625-1.8242-.0625-1.7031-.125-1.6992-.1914-1.5742-.1875-1.5117-.3164-1.4492-.3125-1.3867-.3789-1.3242-.4414-1.1953-.5039-1.1328-.5664-1.0078-.5664-1.0078-.6328-1.7656-1.3828-.7539-.7578-.6953-.8164-.6914-.8828-.6289-.8828-.6289-1.0703-.5703-1.1328-.5664-1.1992-.5039-1.2578-.4414-1.3867-.4414-1.4492-.375-1.5117-.3164-1.6367-.2539-1.7031-.1875-1.7617-.1875-1.8281-.0625-1.8867-.0664-1.9531.0664-2.0156.0625-2.0156.1875-2.0781.1875-2.0156.3164-2.082.3164-2.0781.8828-4.0312.5039-2.0156.5664-2.0156.6289-1.9531.6914-1.9531.6953-1.9492.6289-1.4492.6289-1.5117.6953-1.5117.6914-1.5117.8203-1.5117.8164-1.5781.8828-1.5742.9453-1.5742 1.0078-1.5742 1.0703-1.5742 1.1328-1.5742 1.1992-1.5742 1.1953-1.5781 1.3242-1.5742 1.3828-1.5742 1.3867-1.5117 1.5117-1.5117 1.5117-1.4492 1.5742-1.4492 1.6406-1.4453 1.6367-1.3242 1.6992-1.3242 1.7656-1.2578 1.7617-1.1992L244 10.8867l1.8242-1.0703 1.8281-1.0078 1.8906-.9453 1.8906-.8828 1.9531-.8789 1.9531-.7578 2.0117-.6914 2.082-.6953" class="e"/><g clip-path="url(#l)"><path d="M2617.477188 1001.58375l21.40625 5.664063 21.40625 5.039062 22.695312 4.414063 23.28125 3.75 23.320313 3.164062 24.570312 2.539063 25.195313 2.5 25.195312 1.25 26.445313 1.289062 26.484375.625h27.070312l27.070313-1.25 27.734375-1.289062 27.695312-1.875 28.359375-2.539063 27.695313-3.125 27.734375-3.789062 27.109375-4.414063 27.695312-5.039062 26.445313-5.664063 25.820312-6.289062 25.859375-6.953125 24.53125-6.914063 23.945313-8.203125 23.320312-8.164062 22.03125-8.828125 21.40625-8.828125 20.195313-9.453125 18.867187-10.078125 18.28125-10.078125 17.617188-10.703125 15.78125-11.328125 15.078125-11.328125 14.492187-11.992188L3431.930313 861.74l11.953125-11.953125 11.328125-13.242187 10.117187-12.617188 9.414063-13.828125 8.828125-14.492187 8.203125-14.492188 6.914062-15.117187 6.953125-15.742188 5-16.40625 5.078125-16.367187 3.75-16.992188 3.164063-17.03125 1.875-17.617187 1.289062-18.28125.625-18.242188-.625-18.28125-1.289062-18.28125-2.5-18.242187-3.164063-18.28125-4.375-18.28125-5.078125-18.242188-5.664062-18.28125-6.914063-17.617187-6.914062-17.65625-8.828125-16.992188-8.828125-16.367187-9.453125-16.40625-10.078125-16.367188-22.65625-30.234375-25.234375-28.984375-13.828125-13.867187-13.867188-13.203125-15.117187-12.617188-15.742188-12.578125-16.367187-12.617187-17.03125-11.328125-17.617188-11.953125-18.28125-11.367188-19.53125-11.328125-20.15625-10.703125-20.78125-11.328125-22.03125-10.078125-22.695312-10.703125-22.65625-10.078125-23.945313-10.078125-49.140625-18.90625-25.195312-8.828125-25.820313-8.828125-25.820312-8.789062-26.484375-8.203125-25.820313-7.578125-26.445312-7.539063-26.445313-6.914062-25.820312-6.953125-25.859375-6.914063-25.820313-5.664062-24.53125-5.664063L2766.735 60.49l-23.90625-5.039062-23.320312-5.039063-23.320313-4.375-22.65625-3.789062-42.8125-7.578125-20.820312-3.125-19.53125-3.164063-19.492188-3.164062-18.90625-2.5-23.320312-3.164063-22.65625-2.5-22.070313-2.539062-22.03125-1.875-20.820312-1.914063-20.742188-1.25-20.195312-1.25-19.492188-.625H2361.735l-18.28125.625-18.242187.625-17.03125 1.25-16.992188 1.914063-15.742187 1.875-15.117188 3.164062-14.492187 3.125-13.867188 3.789063-13.242187 4.414062-11.953125 5.039063-11.328125 5.664062-10.078125 5.664063-10.078125 6.328125-17.65625 13.828125-7.539063 7.578125-6.953125 8.164062-6.914062 8.828125-6.289063 8.828125-6.289062 10.703125-5.703125 11.328125-5.664063 11.992188-5.039062 12.578125-4.414063 13.867187-4.414062 14.492188-3.75 15.117187-3.164063 16.367188-2.539062 17.03125-1.875 17.617187-1.875 18.28125-.625 18.867188-.664063 19.53125.664063 20.15625.625 20.15625 1.875 20.78125 1.875 20.15625 3.164062 20.820312 3.164063 20.78125 8.828125 40.3125 5.039062 20.15625 5.664063 20.15625 6.289062 19.53125 6.914063 19.53125 6.953125 19.492188 6.289062 14.492187 6.289063 15.117188 6.953125 15.117187 6.914062 15.117188 8.203125 15.117187 8.164063 15.78125 8.828125 15.742188 9.453125 15.742187 10.078125 15.742188 10.703125 15.742187 11.328125 15.742188L2240.1725 743.3025l11.953125 15.78125 13.242188 15.742188 13.828125 15.742187 13.867187 15.117188 15.117188 15.117187 15.117187 14.492188 15.742188 14.492187 16.40625 14.453125 16.367187 13.242188 16.992188 13.242187 17.65625 12.578125 17.617187 11.992188 18.28125 11.328125 18.242188 10.703125 18.28125 10.078125 18.90625 9.453125 18.90625 8.828125 19.53125 8.789062 19.53125 7.578125 20.117187 6.914063 20.820313 6.953125zm0 0" class="d"/></g><g clip-path="url(#m)"><g clip-path="url(#n)"><path d="M3139.664688 173.263438l63.59375 31.484375" class="a"/></g></g><g fill-rule="evenodd" fill-opacity="1"><path d="M3134.625625 149.943125l59.179688 50.390625-75.546875-16.992187zm0 0" style="fill:#000;stroke-width:4.72425;stroke-linecap:butt;stroke-linejoin:miter;stroke:#000;stroke-opacity:1;stroke-miterlimit:10;transform:matrix(.1,0,0,-.1,-.236,103.549)"/><path fill="#fff" d="M291.9961 35.0742l1.1367.1914 1.0703.3125 1.0703.3164 1.0703.3789 1.0078.5039 1.0078.5664.9453.5664.8828.6914.8164.6953.8203.7539.6914.8203.6328.8164.5039.8203.4414.8828.375.8164.2539.8828.125.8203.0625.7539v.8203l-.1875.7578-.1914.6914-.375.6914-.4414.6953-.5039.6289-.6328.6289-.7539.6289-.8828.5703-.9453.5664-1.0078.5664-1.1328.5039-1.1953.4414-1.2617.4414-1.3203.4375-1.3242.3164-1.3867.3164-1.3867.25-1.3828.2539-2.7734.25-1.2578.0625h-1.3242l-1.1953-.0625-1.1992-.0625-1.1953-.125-1.0078-.1914-1.0078-.1875-1.0078-.25-.9453-.2539-.9453-.3789-.8828-.375-.8789-.3789-.8203-.4414-.8203-.5039-.6914-.5664-.6914-.5039-.6328-.6289-.5664-.5703-.5039-.6289-.3789-.6914-.375-.6289-.2539-.6328-.125-.6914-.125-.6289v-.6328l.0625-.6914.1875-.6289.1914-.6328.3125-.6289.4414-.6289.5664-.6914.6289-.6953.6953-.6914.8828-.6953.8789-.6914 1.0703-.6289 1.0742-.6289 1.1953-.6328 1.2578-.6289 1.2617-.5664 1.3242-.5039 1.3828-.4414 1.3867-.4414 1.3867-.3125 1.3242-.3164 1.3203-.1875 1.3242-.1914 1.2578-.0625h2.457"/></g><path d="M2922.320938 684.747813l11.367187-1.914063 10.703125-3.125 10.703125-3.164062 10.703125-3.789063 10.078125-5.039062 10.078125-5.664063 9.453125-5.664062 8.828125-6.914063 8.164063-6.953125 8.203125-7.539062 6.914062-8.203125 6.328125-8.164063 5.039063-8.203125 4.414062-8.828125 3.75-8.164062 2.539063-8.828125 1.25-8.203125.625-7.539063v-8.203125l-1.875-7.578125-1.914063-6.914062-3.75-6.914063-4.414062-6.953125-5.039063-6.289062-6.328125-6.289063-7.539062-6.289062-8.828125-5.703125-9.453125-5.664063-10.078125-5.664062-11.328125-5.039063-11.953125-4.414062-12.617188-4.414063-13.203125-4.375-13.242187-3.164062-13.867188-3.164063-13.867187-2.5-13.828125-2.539062-27.734375-2.5-12.578125-.625h-13.242188l-11.953125.625-11.992187.625-11.953125 1.25-10.078125 1.914062-10.078125 1.875-10.078125 2.5-9.453125 2.539063-9.453125 3.789062-8.828125 3.75-8.789063 3.789063-8.203125 4.414062-8.203125 5.039063-6.914062 5.664062-6.914063 5.039063-6.328125 6.289062-5.664062 5.703125-5.039063 6.289063-3.789062 6.914062-3.75 6.289063-2.539063 6.328125-1.25 6.914062-1.25 6.289063v6.328125l.625 6.914062 1.875 6.289063 1.914063 6.328125 3.125 6.289062 4.414062 6.289063 5.664063 6.914062 6.289062 6.953125 6.953125 6.914063 8.828125 6.953125 8.789063 6.914062 10.703125 6.289063 10.742187 6.289062 11.953125 6.328125 12.578125 6.289063 12.617188 5.664062 13.242187 5.039063 13.828125 4.414062 13.867188 4.414063 13.867187 3.125 13.242188 3.164062 13.203125 1.875 13.242187 1.914063 12.578125.625h24.570313zm0 0" class="d"/><path d="M72.1016 87.4219c0 .625-.507812 1.132813-1.136718 1.132813-.625 0-1.132813-.507813-1.132813-1.132813 0-.628906.507813-1.136719 1.132813-1.136719.628906 0 1.136718.507813 1.136718 1.136719" class="f"/><path d="M723.375625 161.27125c0-6.25-5.078125-11.328125-11.367187-11.328125-6.25 0-11.328125 5.078125-11.328125 11.328125 0 6.289063 5.078125 11.367188 11.328125 11.367188 6.289062 0 11.367187-5.078125 11.367187-11.367188zm0 0" class="d"/><g clip-path="url(#o)"><g clip-path="url(#p)"><path d="M286.852188 76.27125h56.679687" class="a"/></g></g><path d="M25.5508 97.8125l7.5586-1.8906-7.5586-1.8867zm0 0" class="f"/><g clip-path="url(#q)"><path d="M257.867813 57.365l75.585937 18.90625-75.585937 18.867188zm0 0" class="a"/></g><g clip-path="url(#r)"><g clip-path="url(#s)"><path d="M400.211563 869.943125 315.1725 841.58375" class="a"/></g></g><path d="M390.758438 886.935313l-66.132813-42.1875 78.125 6.289062zm0 0" class="c"/><g clip-path="url(#t)"><g clip-path="url(#u)"><path d="M1308.531875 514.044688l28.359375 73.046875" class="a"/></g></g><path d="M1323.649063 500.1775l9.453125 77.460938-44.726563-63.59375zm0 0" class="c"/><g clip-path="url(#v)"><g clip-path="url(#w)"><path d="M2974.000625 489.474375l-81.875-23.945312" class="a"/></g></g><path d="M2968.961563 507.716563l-66.796875-39.023438 77.5 2.5zm0 0" class="c"/><g clip-path="url(#x)"><g clip-path="url(#y)"><path d="M712.008438 161.27125l453.554687 170.078125" class="a"/></g></g><path d="M1091.852188 283.497813 1156.11 327.599375l-77.5-8.828125zm0 0" class="c"/><g clip-path="url(#z)"><g clip-path="url(#A)"><path d="M712.008438 161.27125 541.930313 614.825938" class="a"/></g></g><path d="M589.820938 541.115l-44.101563 64.257813 8.828125-77.5zm0 0" class="c"/></g><path d="M5.875-5.1562c0-1.71875-.515625-3.109375-1.8125-3.109375-1 0-2.09375.953125-2.09375 1.484375 0 .390625.3125.546875.546875.546875.25 0 .40625-.1875.4375-.21875-.03125-.03125-.109375-.140625-.109375-.3125 0-.109375.21875-1.140625 1.25-1.140625.859375 0 1.046875 1.109375 1.046875 2.078125 0 .71875-.109375 1.375-.109375 1.375h-.0156S4.5469-5.18745 3.6094-5.18745c-2.390625 0-3.375 2.3125-3.375 3.546875C.234375-.53125.890625.1875 2.21875.1875 4.265625.1875 5.875-1.90625 5.875-5.15625zM4.5156-3.7969c0 .3125-.3125 3.703125-2.21875 3.703125-.6875 0-1-.390625-1-1.15625 0-.75.515625-3.65625 2.234375-3.65625.671875 0 .984375.40625.984375 1.109375zm0 0" id="D"/><path d="M9.1406-7.6094v-.2031h-2.375v.2031c.640625.0625.84375.1875.84375.546875 0 .1875-.296875 1.375-.875 3.421875l-.1562.5938c-.531275 1.9531-1.2969 2.7656-2.6094 2.7656-1 0-1.671875-.5625-1.671875-1.40625 0-.40625.359375-1.8125 1.171875-4.609375l.0625-.2344c.25-.828125.4375-1 1.25-1.078125v-.2031H1.5156v.2031c.8125.0625.9375.140625.9375.484375 0 .140625-.03125.328125-.09375.53125l-.625 2.2969C1.359375-2.984375 1.21875-2.25 1.21875-1.75c0 1.140625 1.09375 1.96875 2.609375 1.96875 1.5625 0 2.5625-.859375 3.078125-2.640625l1-3.4062c.453125-1.5625.5-1.625 1.234375-1.78125zm0 0" id="e"/><path d="M6.3438-5.25l-.875.1719c-.546875 1.28125-1.1875 2.5625-2.03125 3.6875.046875-1.171875.140625-3.875-1.578125-3.875C1.06255-5.2656.0313-4.2031.0313-3.48435c0 .03125.015625.078125.0625.078125.265625 0 .234375-1.015625 1.40625-1.015625 1.25 0 1.3125 2.4375 1.3125 3.3125 0 .3125-.015625.578125-.015625.875-.40625.53125-1.375 1.734375-1.375 2.390625 0 .21875.09375.3125.328125.3125.984375 0 1.171875-2.03125 1.484375-2.703125.203075-.4219.703075-1.01565.984325-1.4219C5.015625-2.765625 5.875-3.953125 6.34375-5.25zm0 0" id="E"/><path d="M3.5313-5.1094h-.9531l.3438-1.2344c0-.03125 0-.046875 0-.0625 0-.078125-.03125-.125-.09375-.125s-.109375.015625-.171875.109375C1.515625-4.9375.6875-5.1875.6875-4.8125c0 .015625 0 .046875 0 .078125h.8906L.7188-1.4531c-.03125.15625-.28125.90625-.28125 1.125 0 .265625.25.453125.578125.453125.546875 0 .9375-.328125 1.703125-1.4375l-.1562-.0937c-.59375.765625-.78125.953125-.96875.953125-.109375 0-.1875-.09375-.1875-.234375 0-.015625 0-.03125.015625-.0625L2.4688-4.7344h1.0156zm0 0" id="a"/><path d="M4.9688-1.2344l-.1562-.0937c-.109375.125-.15625.1875-.265625.328125-.28125.359375-.40625.46875-.5625.46875-.171875 0-.28125-.15625-.359375-.484375-.03125-.109375-.046875-.171875-.046875-.1875-.296875-1.125-.4375-1.765625-.4375-1.953125C3.671975-4.0781 4.09385-4.60935 4.3126-4.60935c.078125 0 .1875.046875.296875.109375.140625.078125.21875.09375.328125.09375.234375 0 .40625-.171875.40625-.421875 0-.265625-.203125-.4375-.484375-.4375-.53125 0-.96875.421875-1.8125 1.703125l-.125-.6562c-.171875-.8125-.296875-1.046875-.625-1.046875-.28125 0-.65625.09375-1.40625.34375l-.125.0469.0469.1719.203-.047c.234375-.0625.375-.078125.46875-.078125.296875 0 .375.109375.53125.828125l.3438 1.4688-.9687 1.3906c-.250075.35935-.48445.5781-.60945.5781-.078125 0-.203125-.03125-.3125-.109375C.3125-.75.1875-.78125.078125-.78125c-.234375 0-.40625.171875-.40625.40625 0 .3125.234375.5.609375.5.359375 0 .5-.09375 1.109375-.8125L2.4688-2.1094l.3594 1.4375c.140625.625.296875.796875.6875.796875.453125 0 .765625-.28125 1.453125-1.359375zm0 0" id="f"/><path d="M2.3281-.0781c0-.984375-.6875-1.140625-.96875-1.140625-.296875 0-.6875.171875-.6875.6875 0 .484375.421875.609375.734375.609375.09375 0 .140625-.015625.1875-.03125s.07815-.01565.1094-.01565c.078125 0 .15625.046875.15625.15625 0 .234375-.1875.765625-.96875 1.265625l.0938.2344c.359375-.125 1.34375-.90625 1.34375-1.765625zm0 0" id="g"/><path d="M5.0938-4.6094c0-.359375-.296875-.65625-.65625-.65625-.28125 0-.46875.171875-.46875.4375 0 .1875.09375.3125.328125.46875.234375.125.3125.234375.3125.40625 0 .46875-.421875 1.390625-1.453125 3.09375L2.9219-2.25c-.1875-1.0625-.859375-3.015625-1.03125-3.015625h-.1562L.5625-5.0625l-.3906.0781v.2031c.15625-.03125.25-.046875.375-.046875.484375 0 .703125.171875.921875.765625.328125.8125.984375 3.484375.984375 3.96875 0 .125-.046875.265625-.125.421875-.09375.15625-.625.859375-.84375 1.078125-.28125.296875-.421875.40625-.578125.40625-.078125 0-.15625-.046875-.28125-.140625C.4375 1.53125.328125 1.46875.171875 1.46875c-.25 0-.453125.203125-.453125.46875 0 .3125.25.53125.609375.53125.671875 0 1.96875-1.375 3.203125-3.4375 1-1.65625 1.5625-2.96875 1.5625-3.640625zm0 0" id="h"/><path d="M5.6719-1.25 5.5-1.4062c-.078125.109375-.171875.21875-.25.3125-.34375.453125-.5625.640625-.734375.640625-.109375 0-.1875-.078125-.1875-.1875 0-.09375.046875-.328125.171875-.765625l.6719-2.4531c.078125-.25.109375-.515625.109375-.6875 0-.421875-.328125-.71875-.78125-.71875-.765625 0-1.53125.71875-2.75 2.625L2.5469-5.25l-.0312-.0156-1.9375.3594v.2031c.609375 0 .765625.078125.765625.3125 0 .078125-.015625.140625-.03125.203125L.1719 0h.8906c.5625-1.890625.671875-2.15625 1.203125-2.96875.703125-1.109375 1.3125-1.6875 1.765625-1.6875.171875 0 .28125.125.28125.34375 0 .140625-.0625.53125-.171875.90625L3.625-1.4375c-.15625.625-.1875.78125-.1875.90625 0 .453125.15625.640625.5625.640625.53125 0 .828125-.234375 1.671875-1.359375zm0 0" id="F"/><path d="M2.6094-3.6094C2.609375-3.90625 2.28125-4.125 2-4.125c-.3125 0-.46875.328125-.5625.578125L.5313-.8906C.5-.8125.4375-.65625.4375-.578125s.046875.1875.140625.1875c.125 0 .28125-.1875.34375-.28125l1.4375-2.2656c.125-.1875.25-.4375.25-.671875zm0 0" id="d"/><path d="M3.5313-8.5781C1.796925-7.4531.578175-5.5156.578175-3.0781c0 2.234375 1.265625 4.484375 2.90625 5.5l.1563-.2031C2.0625.984375 1.609375-.46875 1.609375-3.109375c0-2.65625.484375-4.03125 2.03125-5.265625zm0 0" id="b"/><path d="M.4531-8.5781.3438-8.375C1.890625-7.140625 2.375-5.765625 2.375-3.109375 2.375-.46875 1.921875.984375.34375 2.21875l.1406.2031c1.65625-1.015625 2.921875-3.265625 2.921875-5.5 0-2.4375-1.21875-4.375-2.953125-5.5zm0 0" id="c"/><path d="M6.8594-2.7344v-.6719H.7344v.6719zm0 0" id="G"/><path d="M6.8594-3.9375v-.6719H.7344v.6719zm0 2.4219v-.6719H.7344v.6719zm0 0" id="i"/><path d="M3.1406 12.5313c-1.29685-1.4688-1.48435-4.234425-1.48435-6.453175 0-2.203125.046875-4.859375 1.484375-6.515625L3-.6719C2.421875-.1875.59375 2.125.59375 6.078125c0 3.96875 1.828125 6.21875 2.40625 6.703125zm0 0" id="j"/><path d="M.3594 12.5313l.1406.25c.578125-.484375 2.40625-2.734375 2.40625-6.703125C2.90625 2.125 1.078125-.1875.5-.671875L.3594-.4375c1.453125 1.65625 1.5 4.3125 1.5 6.515625 0 2.21875-.203125 4.984375-1.5 6.453125zm0 0" id="k"/></defs><use href="#C"/><use x="113.786" y="16.551" href="#D"/><use x="120.0983" y="16.551" href="#e"/><use x="93.859" y="90.256" href="#E"/><use x="102.362" y="85.917" href="#d"/><use x="106.238" y="90.256" href="#b"/><use x="110.6495" y="90.256" href="#a"/><use x="114.6664" y="90.256" href="#c"/><use x="122.5688" y="90.256" href="#i"/><use x="134.446" y="81.144" href="#j"/><use x="138.188" y="90.256" href="#f"/><use x="143.901" y="85.917" href="#d"/><use x="147.776" y="90.256" href="#b"/><use x="152.1875" y="90.256" href="#a"/><use x="156.2044" y="90.256" href="#c"/><use x="160.7833" y="90.256" href="#g"/><use x="166.3783" y="90.256" href="#h"/><use x="171.961" y="85.917" href="#d"/><use x="175.836" y="90.256" href="#b"/><use x="180.2475" y="90.256" href="#a"/><use x="184.2644" y="90.256" href="#c"/><use x="189.082" y="81.144" href="#k"/><use x="16.733" y="84.587" href="#e"/><use x="25.715" y="42.064" href="#F"/><use x="32.4458" y="42.064" href="#b"/><use x="36.8572" y="42.064" href="#a"/><use x="40.8742" y="42.064" href="#c"/><use x="48.7766" y="42.064" href="#i"/><use x="60.655" y="32.951" href="#j"/><use x="64.397" y="42.064" href="#G"/><use x="72.4787" y="42.064" href="#h"/><use x="78.066" y="37.725" href="#d"/><use x="81.941" y="42.064" href="#b"/><use x="86.3525" y="42.064" href="#a"/><use x="90.3694" y="42.064" href="#c"/><use x="94.9483" y="42.064" href="#g"/><use x="100.0651" y="42.064" href="#f"/><use x="105.773" y="37.725" href="#d"/><use x="109.648" y="42.064" href="#b"/><use x="114.0595" y="42.064" href="#a"/><use x="118.0764" y="42.064" href="#c"/><use x="122.894" y="32.951" href="#k"/><style>.a{fill:none;stroke:#000;stroke-linecap:butt;stroke-linejoin:miter;stroke-miterlimit:10;stroke-opacity:1;stroke-width:4.72425;transform:matrix(.1,0,0,-.1,-.236,103.549)}.b{clip-rule:evenodd}.c{fill:#000;fill-opacity:1;fill-rule:evenodd;stroke:#000;stroke-linecap:butt;stroke-linejoin:miter;stroke-miterlimit:10;stroke-opacity:1;stroke-width:4.72425;transform:matrix(.1,0,0,-.1,-.236,103.549)}.d{fill:none;stroke:#000;stroke-linecap:butt;stroke-linejoin:bevel;stroke-miterlimit:10;stroke-opacity:1;stroke-width:4.72425;transform:matrix(.1,0,0,-.1,-.236,103.549)}.e{fill:#dcdcdc;fill-opacity:1;fill-rule:evenodd}.f{fill:#000;fill-opacity:1;fill-rule:evenodd}</style></svg>