<svg xmlns="http://www.w3.org/2000/svg" width="221pt" height="94pt" viewBox="0 0 221 94"><defs><clipPath id="j"><path d="M.5664 0H101v94H.5664zm0 0"/></clipPath><clipPath id="k"><path d="M47 46h1v48h-1zm0 0"/></clipPath><clipPath id="l"><path clip-rule="evenodd" d="M.5664 94.55078h224v-95h-224zm47.2188-.32031h-.8398l-1.3789-8.64062 1.8008 7.19922 1.8008-7.19922zm0 0"/></clipPath><clipPath id="m"><path d="M39 79h17v15H39zm0 0"/></clipPath><clipPath id="n"><path d="M0 0h221v94H0z"/></clipPath><g id="o" clip-path="url(#n)"><path fill-rule="evenodd" fill="#ccc" fill-opacity="1" d="M93.6875 46.64844c0 25.582031-20.738281 46.320312-46.320312 46.320312-25.582032 0-46.320313-20.738281-46.320313-46.320312 0-25.582032 20.738281-46.320313 46.320313-46.320313 25.582031 0 46.320312 20.738281 46.320312 46.320313"/><g clip-path="url(#j)"><path d="M931.205 479.005625c0-255.820312-207.382813-463.203125-463.203125-463.203125-255.820313 0-463.203125 207.382813-463.203125 463.203125 0 255.820313 207.382812 463.203125 463.203125 463.203125 255.820312 0 463.203125-207.382812 463.203125-463.203125zm0 0" class="a"/></g><path fill-rule="evenodd" fill="#000" fill-opacity="1" d="M48.8086 46.64844c0 .796874-.648438 1.441406-1.441406 1.441406-.796876 0-1.441407-.644532-1.441407-1.441406 0-.792969.644531-1.4375 1.441407-1.4375.792968 0 1.441406.644531 1.441406 1.4375"/><path d="M482.415937 479.005625c0-7.96875-6.484375-14.414062-14.414062-14.414062-7.96875 0-14.414063 6.445312-14.414063 14.414062 0 7.929688 6.445313 14.375 14.414063 14.375 7.929687 0 14.414062-6.445312 14.414062-14.375zm0 0" class="a"/><g clip-path="url(#k)"><g clip-path="url(#l)"><path d="M468.001875 479.005625V7.404063" class="b"/></g></g><g clip-path="url(#m)"><path d="M486.009687 89.591563l-18.007812-71.992188-18.007813 71.992188" class="b"/></g></g><path d="M5.7656-3.46875c0-.53125-.296875-1.796875-1.828125-1.796875-1.671875 0-2.84375 1.171875-3.3125 3.140625L.125.01563c-.09375.375-.390625 1.5-.875 2.453125H.4531L1.2188-.3125h.0156c0 .015625.28125.4375 1.21875.4375 1.84375 0 3.3125-1.828125 3.3125-3.59375zm-.9062.03125c0 .875-.5 3.25-2.140625 3.25-1.046875 0-1.125-1.21875-1.125-1.46875 0-.90625.46875-3.328125 2.140625-3.328125 1.015625 0 1.125 1.0625 1.125 1.546875zm0 0" id="p"/><path d="M5.6875-1.1875l-.1406-.125-.3281.32813c-.375.390625-.515625.5-.625.5-.09375 0-.171875-.078125-.171875-.15625 0-.25.5-2.296875 1.0625-4.34375.03125-.125.046875-.140625.078125-.25l-.0937-.03125L4.75-5.1875l-.0469.03125-.125.57813c-.09375-.4375-.4375-.6875-.953125-.6875C2.031225-5.26562.2031-3.093745.2031-1.187495c0 .828125.453125 1.3125 1.21875 1.3125.84375 0 1.34375-.390625 2.40625-1.875-.25.984375-.28125 1.078125-.28125 1.375 0 .34375.140625.5.484375.5.46875 0 .765625-.234375 1.65625-1.3125zM4.3594-4.28125c0 1-.609375 2.421875-1.421875 3.296875-.28125.328125-.6875.53125-1.03125.53125-.4375 0-.703125-.328125-.703125-.890625 0-.640625.421875-1.8125.921875-2.5625C2.6094-4.609375 3.14065-5.015625 3.64065-5.015625c.015625 0 .03125 0 .046875 0 .40625.03125.671875.3125.671875.734375zm0 0" id="q"/><path d="M4.9219-1.75 4.75-1.85937c-.5625.828125-1 1.125-1.671875 1.125-1.109375 0-1.859375-.96875-1.859375-2.34375 0-1.234375.65625-2.078125 1.625-2.078125.4375 0 .59375.140625.703125.578125L3.625-4.3125c.09375.34375.3125.546875.578125.546875C4.5-3.765625 4.75-4 4.75-4.265625 4.75-4.9375 3.921875-5.5 2.921875-5.5c-.5625 0-1.140625.21875-1.625.609375-.640625.546875-1 1.359375-1 2.359375C.296875-.984375 1.25.125 2.5625.125c.515625 0 .96875-.171875 1.375-.5.359375-.296875.609375-.640625.984375-1.375zm0 0" id="f"/><path d="M5.625-2.79687C5.625-4.359375 4.515625-5.5 2.984375-5.5 1.4375-5.5.34375-4.34375.34375-2.703125.34375-1.09375 1.453125.125 2.96875.125c1.5 0 2.65625-1.265625 2.65625-2.921875zM4.5469-2.375c0 1.34375-.546875 2.15625-1.4375 2.15625-.46875 0-.90625-.28125-1.15625-.765625-.34375-.625-.53125-1.453125-.53125-2.296875 0-1.140625.5625-1.875 1.40625-1.875 1.015625 0 1.71875 1.140625 1.71875 2.78125zm0 0" id="c"/><path d="M5.7969 0v-.17187c-.57815-.062505-.7344-.20313-.7344-.79688v-2.73437C5.0625-4.828125 4.546875-5.5 3.65625-5.5c-.546875 0-.921875.203125-1.734375.96875v-.9375L1.8438-5.5c-.59375.21875-1 .34375-1.65625.546875V-4.75c.078125-.046875.1875-.0625.328125-.0625.328125 0 .4375.1875.4375.765625v2.96875c0 .6875-.125.84375-.734375.90625V0H2.75v-.17187c-.609375-.0625-.796875-.203125-.796875-.625v-3.35938c.578125-.546875.84375-.6875 1.234375-.6875.59375 0 .875.375.875 1.15625v2.5c0 .75-.15625.953125-.75 1.015625V0zm0 0" id="e"/><path d="M5.7031-5.20312V-5.375H4.0469v.17188c.375.046875.5625.15625.5625.390625 0 .109375-.03125.234375-.078125.359375l-1.1875 3.09375-1.2187-3.0625c-.0625-.171875-.109375-.328125-.109375-.4375 0-.21875.140625-.296875.546875-.34375V-5.375H.2344v.17188c.453125.03125.53125.140625 1.078125 1.375L2.75-.39062c.015625.0625.0625.15625.09375.25.078125.21875.140625.3125.21875.3125.0625 0 .15625-.15625.328125-.609375l1.5313-3.82812c.34375-.8125.421875-.890625.78125-.9375zm0 0" id="g"/><path d="M5.0625-1.875l-.1875-.07812c-.578125.90625-1.078125 1.25-1.84375 1.25-.671875 0-1.171875-.3125-1.515625-.953125C1.28125-2.125 1.1875-2.546875 1.15625-3.3125h3.6875c-.09375-.78125-.21875-1.125-.515625-1.5C3.96875-5.25 3.421875-5.5 2.796875-5.5c-1.484375 0-2.5 1.203125-2.5 2.9375C.296875-.90625 1.15625.125 2.53125.125c1.15625 0 2.03125-.703125 2.53125-2zM3.625-3.6875H1.1875c.125-.953125.53125-1.375 1.265625-1.375.71875 0 1.015625.328125 1.171875 1.375zm0 0" id="a"/><path d="M4-4.85937C4-5.265625 3.75-5.5 3.34375-5.5c-.5 0-.84375.28125-1.4375 1.125v-1.09375L1.8594-5.5c-.640625.265625-1.078125.421875-1.78125.640625v.20313C.25-4.703125.359375-4.703125.5-4.703125c.296875 0 .40625.1875.40625.703125v3c0 .59375-.078125.671875-.84375.828125V0h2.8594v-.17187c-.8125-.046875-1.015625-.21875-1.015625-.90625v-2.6875c0-.375.515625-.984375.84375-.984375.078125 0 .171875.0625.3125.1875.1875.15625.3125.234375.46875.234375.296875 0 .46875-.203125.46875-.53125zm0 0" id="d"/><path d="M5.625-4.64062v-.46875h-.9219c-.25 0-.421875-.03125-.65625-.109375L3.7813-5.3125C3.453125-5.4375 3.125-5.5 2.828125-5.5c-1.125 0-2 .859375-2 1.953125 0 .75.3125 1.203125 1.109375 1.59375l-.5156.48438C1.03125-1.125.875-.890625.875-.640625s.140625.390625.625.625C.65625.609375.328125 1 .328125 1.453125c0 .625.9375 1.15625 2.078125 1.15625.890625 0 1.828125-.3125 2.453125-.8125.453125-.375.65625-.75.65625-1.21875 0-.734375-.5625-1.234375-1.453125-1.265625L2.5156-.76562c-.625-.015625-.921875-.125-.921875-.328125 0-.234375.390625-.65625.71875-.75.109375.015625.1875.03125.21875.03125.234375.015625.390625.03125.453125.03125.453125 0 .921875-.171875 1.296875-.5.390625-.34375.578125-.75.578125-1.359375 0-.34375-.0625-.609375-.234375-1zM5.1719.76563c0 .6875-.90625 1.15625-2.25 1.15625-1.0625 0-1.75-.34375-1.75-.875C1.171875.78125 1.25.625 1.75.03125c.40625.078125 1.359375.140625 1.9375.140625 1.09375 0 1.484375.15625 1.484375.59375zm-1.2344-3.9375c0 .671875-.359375 1.09375-.90625 1.09375-.71875 0-1.21875-.78125-1.21875-1.921875v-.04687c0-.703125.34375-1.109375.890625-1.109375.375 0 .671875.203125.875.546875.21875.421875.359375.96875.359375 1.4375zm0 0" id="h"/><path d="M4.1563-1.40625c0-.609375-.265625-1-1-1.421875L1.8594-3.59375c-.328125-.203125-.515625-.5-.515625-.8125 0-.5.375-.8125.921875-.8125.6875 0 1.046875.390625 1.3125 1.46875h.1875L3.7188-5.375h-.1406l-.0156.01563c-.109375.09375-.125.09375-.171875.09375-.0625 0-.1875-.015625-.3125-.078125-.25-.09375-.53125-.140625-.8125-.140625-.984375 0-1.65625.59375-1.65625 1.46875 0 .671875.375 1.140625 1.40625 1.71875l.6875.39063c.421875.25.625.53125.625.90625 0 .515625-.390625.859375-1 .859375C1.5-.140625 1.09375-.59375.8125-1.8125H.625V.04688h.1563c.078125-.125.125-.140625.265625-.140625s.265625.015625.5625.09375c.328125.078125.625.125.875.125.90625 0 1.671875-.703125 1.671875-1.53125zm0 0" id="b"/><path d="M3.0313 0v-.17187c-.796875-.0625-.890625-.1875-.890625-1.046875v-4.25L2.0938-5.5.2344-4.84375v.1875l.0938-.01562c.15625-.03125.3125-.03125.40625-.03125.296875 0 .40625.1875.40625.703125v2.78125c0 .859375-.125.984375-.953125 1.046875V0zM2.25-7.54687c0-.34375-.265625-.609375-.609375-.609375s-.609375.265625-.609375.609375.265625.609375.609375.609375.609375-.26563.609375-.60938zm0 0" id="i"/><path d="M5.875-.5v-.1875c-.21875 0-.25 0-.28125 0-.4375 0-.53125-.125-.53125-.671875v-6.78125l-.0469-.01562c-.578125.203125-1 .3125-1.765625.515625v.1875c.09375 0 .171875 0 .265625 0 .4375 0 .546875.109375.546875.609375v1.85938C3.609375-5.359375 3.28125-5.5 2.8125-5.5 1.4375-5.5.328125-4.140625.328125-2.453125.328125-.921875 1.21875.125 2.53125.125c.671875 0 1.125-.25 1.53125-.8125v.76563L4.1094.125zm-1.8125-.71875c0 .078125-.078125.234375-.203125.359375C3.640625-.625 3.34375-.5 3-.5c-.984375 0-1.65625-.953125-1.65625-2.421875 0-1.359375.59375-2.234375 1.5-2.234375.640625 0 1.21875.546875 1.21875 1.1875zm0 0" id="r"/><path d="M3.3281-.78125l-.1562-.14062C2.921875-.609375 2.71875-.5 2.46875-.5c-.453125 0-.625-.3125-.625-1.078125V-5h1.2031v-.375H1.8438v-1.39062c0-.125-.03125-.15625-.09375-.15625-.0625.125-.140625.234375-.234375.328125-.4375.671875-.84375 1.109375-1.15625 1.28125-.125.09375-.203125.15625-.203125.234375 0 .03125.015625.0625.046875.078125H.8438v3.59375C.84375-.390625 1.1875.125 1.890625.125c.59375 0 1.046875-.296875 1.4375-.90625zm0 0" id="s"/></defs><use href="#o"/><use x="38.705" y="69.168" href="#p"/><use x="52.024" y="51.168" href="#q"/><use x="23.763" y="28.667" href="#f"/><use x="29.0711" y="28.667" href="#c"/><use x="35.0487" y="28.667" href="#e"/><use x="40.6677" y="28.667" href="#g"/><use x="46.2268" y="28.667" href="#a"/><use x="51.5349" y="28.667" href="#d"/><use x="55.3367" y="28.667" href="#h"/><use x="61.0154" y="28.667" href="#a"/><use x="66.3235" y="28.667" href="#b"/><use x="33.638" y="18.227" href="#b"/><use x="38.2886" y="18.227" href="#a"/><use x="43.5967" y="18.227" href="#d"/><use x="47.8169" y="18.227" href="#i"/><use x="51.1404" y="18.227" href="#a"/><use x="56.4485" y="18.227" href="#b"/><use x="135.006" y="42.167" href="#r"/><use x="140.9836" y="42.167" href="#c"/><use x="146.9612" y="42.167" href="#a"/><use x="152.2693" y="42.167" href="#b"/><use x="159.9087" y="42.167" href="#e"/><use x="165.8863" y="42.167" href="#c"/><use x="171.8639" y="42.167" href="#s"/><use x="178.1762" y="42.167" href="#f"/><use x="183.4843" y="42.167" href="#c"/><use x="189.4619" y="42.167" href="#e"/><use x="195.0809" y="42.167" href="#g"/><use x="200.64" y="42.167" href="#a"/><use x="205.9482" y="42.167" href="#d"/><use x="209.7499" y="42.167" href="#h"/><use x="215.4286" y="42.167" href="#a"/><use x="164.141" y="31.727" href="#b"/><use x="168.7916" y="31.727" href="#a"/><use x="174.0997" y="31.727" href="#d"/><use x="178.3199" y="31.727" href="#i"/><use x="181.6434" y="31.727" href="#a"/><use x="186.9515" y="31.727" href="#b"/><style>.a{fill:none;stroke:#000;stroke-dasharray:9,27;stroke-dashoffset:27;stroke-linecap:round;stroke-linejoin:miter;stroke-miterlimit:10;stroke-opacity:1;stroke-width:4.5;transform:matrix(.1,0,0,-.1,.567,94.549)}.b{fill:none;stroke:#000;stroke-linecap:butt;stroke-linejoin:miter;stroke-miterlimit:10;stroke-opacity:1;stroke-width:4.5;transform:matrix(.1,0,0,-.1,.567,94.549)}</style></svg>