<svg xmlns="http://www.w3.org/2000/svg" width="222pt" height="146pt" viewBox="0 0 222 146"><defs><path d="M4.2344-1.1406l-.0938-.2344-.1875.125c-.859375.5625-1.3125.765625-1.734375.765625-.671875 0-1.015625-.46875-1.015625-1.421875 0-1.265625.40625-2.5.984375-2.953125.25-.21875.546875-.3125.9375-.3125.53125 0 .96875.21875.96875.515625v.7188h.2656c.09375-.78125.1875-1.21875.296875-1.53125-.3125-.203125-.703125-.296875-1.15625-.296875-.53125 0-1.390625.421875-2.0625 1.015625C.75-4.140625.296875-2.90625.296875-1.625c0 1.140625.5 1.75 1.453125 1.75.65625 0 1.21875-.234375 1.890625-.765625zm0 0" id="a"/><path d="M4.8594-1.0156l-.0937-.25c-.078125.078125-.09375.078125-.15625.125-.375.328125-.5625.4375-.734375.4375-.125 0-.1875-.09375-.1875-.28125 0-.0625 0-.09375.015625-.125L4.8125-5.6406l-.125-.1094-.3906.2188c-.46875-.1875-.703125-.234375-1.015625-.234375-.34375 0-.578125.0625-.90625.21875-.75.375-1.125.734375-1.4375 1.3125C.421875-3.171875.046875-1.75.046875-.78125c0 .5.1875.90625.40625.90625.25 0 .6875-.25 1.140625-.625.515625-.4375.984375-1 1.640625-1.9375l-.3437 1.5156c-.046875.21875-.0625.421875-.0625.609375 0 .28125.09375.4375.28125.4375.265625 0 .765625-.328125 1.75-1.140625zM3.8125-4.9531c-.265625 1.28125-.484375 1.90625-.890625 2.515625-.65625 1-1.40625 1.734375-1.796875 1.734375-.140625 0-.21875-.15625-.21875-.484375 0-.765625.3125-2.09375.734375-3.078125.28125-.6875.578125-.90625 1.15625-.90625.28125 0 .5.046875 1.015625.21875zm0 0" id="b"/><path d="M5.1719-4.5c0-.453125-.109375-.921875-.25-1.09375-.07815-.109375-.2344-.171875-.4219-.171875-.28125 0-.640625.09375-.96875.265625-.609375.328125-1.015625.6875-1.75 1.625l1.0313-4.75-.1406-.1406c-.625.3125-1.0625.421875-1.921875.5l-.0469.25h.5781c.28125 0 .40625.09375.40625.296875 0 .078125-.015625.21875-.03125.28125L.4531-.8437c-.0156.0312-.0156.078075-.0156.109325 0 .46875.578125.859375 1.234375.859375.4375 0 1.046875-.21875 1.5625-.59375 1.15625-.8125 1.9375-2.453125 1.9375-4.03125zm-.8594.2969c0 .765625-.25 1.78125-.609375 2.5625-.390625.8281-.875 1.2031-1.515625 1.2031-.546875 0-.84375-.265625-.84375-.765625 0-.296875.046875-.640625.15625-1.078125.21875-.953125.515625-1.53125.984375-2.03125.390625-.40625 1.015625-.75 1.359375-.75.3125 0 .46875.265625.46875.859375zm0 0" id="c"/></defs><path d="M40 371.601562h2160.039062" class="a"/><path d="M3.7461 105.8516h.6016v6h-.6016zm0 0"/><path d="M75.75 105.8516h.6016v6H75.75zm0 0"/><path d="M147.75 105.8516h.6016v6h-.6016zm0 0"/><path d="M219.75 105.8516h.6016v6h-.6016zm0 0"/><path d="M40 11.601562v1440" class="a"/><path d="M.9883 144.4922h6v.6016h-6zm0 0"/><path d="M.9883 108.4922h6v.6016h-6zm0 0"/><path d="M.9883 72.4922h6v.6016h-6zm0 0"/><path d="M.9883 36.4922h6v.6016h-6zm0 0"/><path d="M.9883.4883h6v.6016h-6zm0 0"/><g style="stroke-width:3.985;stroke:#000;stroke-miterlimit:10;transform:matrix(.1,0,0,-.1,0,146)"><path fill="none" d="M244.960938 1132.148438H965"/><path d="M624.921875 1132.148438c0 11.015624-8.90625 19.921874-19.921875 19.921874s-19.921875-8.90625-19.921875-19.921874c0-11.015626 8.90625-19.921876 19.921875-19.921876s19.921875 8.90625 19.921875 19.921876zm0 0"/><g fill="none"><path d="M605 1132.148438V1105"/><path d="M605 1050.664062v-27.148437"/><path d="M605 1023.515625v-27.1875"/><path d="M605 942.03125v-27.1875"/><path d="M605 914.84375v-27.148438"/><path d="M605 833.359375v-27.148437"/><path d="M605 806.210938V779.0625"/><path d="M605 724.726562v-27.1875"/><path d="M605 697.539062v-27.148437"/><path d="M605 616.054688V588.90625"/><path d="M605 588.90625v-27.148438"/><path d="M605 507.421875v-27.1875"/><path d="M605 480.234375v-27.148437"/><path d="M605 398.75v-27.148438"/></g></g><use x="57.9789" y="118.8" href="#a"/><use x="8.4406" y="118.8" href="#b"/><use x="209.8019" y="105.959" href="#c"/><path d="M40 371.601562l53.984375 152.03125 54.023437 132.695313 54.023438 114.257813 53.984375 96.757812L310 947.460938l53.984375 64.453124 54.023437 49.648438 54.023438 35.820312 53.984375 22.8125L580 1130.976562l53.984375-.351562 54.023437-10.546875 54.023438-19.921875 53.984375-28.28125L850 1036.054688l54.023438-42.382813 53.984374-48.007813 54.023438-52.8125 53.984375-56.640624 54.023437-59.609376L1174.023438 715l53.984374-62.734375 54.023438-62.929687 53.984375-62.1875 54.023437-60.625 53.984376-58.046876 53.984374-54.648437 54.023438-50.273437 53.984375-45 54.023437-38.828126 53.984376-31.71875 53.984374-23.75 54.023438-14.84375 53.984375-5.039062 54.023437 5.742188L1984.023438 167.5l53.984374 29.882812 54.023438 43.398438 53.984375 57.773438 54.023437 73.046874" style="fill:none;stroke-width:7.9701;stroke:#000;stroke-miterlimit:10;transform:matrix(.1,0,0,-.1,0,146)"/><style>.a{fill:none;stroke:#000;stroke-miterlimit:10;stroke-width:3.985;transform:matrix(.1,0,0,-.1,0,146)}</style></svg>