<svg xmlns="http://www.w3.org/2000/svg" width="281pt" height="117pt" viewBox="0 0 281 117"><defs><clipPath id="d"><path d="M96 21h87v95.5508H96zm0 0"/></clipPath><clipPath id="e"><path d="M63 24h29v45H63zm0 0"/></clipPath><clipPath id="f"><path clip-rule="evenodd" d="M-.0117 116.5508h282v-117h-282zm69.8711-85.918.7539-.3789 5.1015 7.6211-4.8477-6.1094 1.3828 7.6875zm0 0"/></clipPath><clipPath id="g"><path d="M0 0h281v117H0z"/></clipPath><g id="h" clip-path="url(#g)"><path fill-rule="evenodd" fill="#ddd" fill-opacity="1" d="M118.6133 39.3242l3.7148-.6914 3.6523-.5664 3.5938-.4414 3.3984-.2539 3.2148-.1875 2.8984-.125h2.6445l2.3906.125 2.1445.1875 1.8281.1914 1.6992.3125 1.4492.3164 1.2578.3789 1.1992.3789 1.0078.4375 1.0078.4414.9414.4414 1.8906.8828 1.0703.5039 1.1367.4414 1.3203.4414 1.4492.375 1.7031.3789 1.8867.3789 2.1445.3164 2.3906.3125 2.7109.2539 2.9609.1875 3.2109.1875 3.4648.0664 3.5898.0625h3.7813l3.7773-.0625 4.4727-.1289 4.1563-.1875 3.8438-.3164 3.3398-.3125 2.957-.3789 2.3945-.4414 2.0156-.4414 1.6406-.5039 1.2578-.5039.9453-.5039.7578-.5664.5039-.5039.4375-.5664.3164-.5664.3164-.5039.3789-.5664.4375-.5039.6328-.4414.7539-.4414 1.0078-.4414 1.3242-.3164 1.5742-.25 1.8867-.1875 2.2695-.0664 2.5195.0664 2.8359.1875 3.0234.3789 3.0234.5039 3.2109.7539 3.0234.8828 2.7734.9453 2.5195.9453 2.2031.9453 2.0156.9414 1.7031.8828 1.5117.8203 1.3203.7539 1.1367.6953 1.0703.6914.9453.6914.8789.6953.8828.6914.8203.6953.8164.7539.8828.8203.8828.8828.8828 1.0078.8789 1.1328.8828 1.1953.8828 1.3867.7539 1.4492.6328 1.5742.4375 1.6367.0679 1.637-.2539 1.5117-.5664 1.3867-.6914 1.3242-.7578 1.1953-.8828 1.0703-.8164.8828-.8203.8828-.7539.6914-.6953.6328-.6289.5664-.6289.4414-.5703.4375-.5664.4414-.5664.3789-.6289.3164-.6914.375-.8203.3164-.9453.3789-1.1328.3789-1.3242.375-1.6367.4414-1.8906.4414-2.2031.4414-2.582.4414-2.8984.4414-3.3398.375-3.6523.2539-3.9062.1875h-3.4023l-3.3984-.0625-3.3398-.125-3.1484-.2539-2.9609-.3125-2.7109-.3164-2.5195-.4414-2.2031-.4414-1.8906-.4375-1.6992-.5039-1.5117-.5703-1.2617-.5039-1.1328-.5664-1.0078-.5664-.8828-.5664-.8164-.5664-.8203-.5664-.8164-.5664-.8203-.6328-.9453-.5664-1.0703-.5664-1.2617-.5664-1.4492-.5039-1.6367-.5664-1.9531-.5039-2.2656-.5039-2.582-.5039-2.9609-.4414-3.2773-.3789-3.5898-.3789-3.9687-.25-4.2187-.2539-4.4102-.125-4.5977-.0625-4.6016.0625-4.4687.0625-4.2852.2539-4.0312.25-3.7148.3164-3.4648.3164-3.0859.4375-2.7734.3789-2.457.4414-2.1406.4414-1.8906.5039-1.6992.4414-1.5117.5039-1.3242.5039-1.1953.5039-1.1328.5039-1.0742.5039-1.0703.4414-1.0703.5039-1.1328.5039-1.2617.5039-1.3203.5039-1.4492.5039-1.6367.5039-1.8281.5039-2.0156.4414-2.2695.5039-2.4531.4414-2.6484.4375-2.832.4414-2.8984.3164-3.0859.3789-3.0234.25-2.8984.1914-2.332.125-2.1406.0625h-2.0156l-1.7617.0625-1.6406-.0625h-1.3867l-1.2578-.0625-1.1328-.0625h-.9453l-.8203-.0625-.6914-.0664h-.6289l-.5039-.0625h-.4414l-.3164-.0625h-.3164l-.1875-.0625h-.3164l-.25-.125-.125-.125-.0625-.0664v-.125l-.0664-.125v-.1875l-.0625-.1914v-.5039l.0625-.3789v-.375l.0664-.5039.125-.5039.1875-.5664.2539-.6953.375-.7539.4414-.8203.5664-.8828.6953-.9453 1.1953-1.3203 1.3242-1.4492 1.4492-1.3867 1.5117-1.3867 1.4492-1.3203 1.3203-1.3242 1.2617-1.1953 1.1328-1.0703 1.0703-1.0742.9453-1.0078.8203-.8789.7539-.8828.7578-.8203.6289-.8164.6914-.8203.7578-.7539.7539-.8203.8828-.8203 1.0078-.8164 1.1953-.8828 1.3867-.8828 1.5742-1.0078 1.9512-1.008 2.207-1.0078 2.5195-1.1328 2.8945-1.1328 3.2148-1.1367 3.5898-1.0703 3.8438-1.0078"/><g style="fill:none;stroke-width:4.72425;stroke-linecap:butt;stroke-linejoin:bevel;stroke-opacity:1;stroke-miterlimit:10;transform:matrix(.1,0,0,-.1,-.013,116.549)"><path stroke="#000" d="M1186.262812 772.247813l37.148438 6.914062 36.523437 5.664063 35.9375 4.414062 33.984375 2.539063 32.148438 1.875 28.984375 1.25h26.445312l23.90625-1.25 21.445313-1.875 18.28125-1.914063 16.992187-3.125 14.492188-3.164062 12.578125-3.789063 11.992187-3.789062 10.078125-4.375 10.078125-4.414063 9.414063-4.414062 18.90625-8.828125 10.703125-5.039063 11.367187-4.414062 13.203125-4.414063 14.492188-3.75 17.03125-3.789062 18.867187-3.789063 21.445313-3.164062 23.90625-3.125 27.109375-2.539063 29.609375-1.875 32.109375-1.875 34.648437-.664062 35.898438-.625h37.8125l37.773437.625 44.726563 1.289062 41.5625 1.875 38.4375 3.164063 33.398437 3.125 29.570313 3.789062 23.945312 4.414063 20.15625 4.414062 16.40625 5.039063 12.578125 5.039062 9.453125 5.039063 7.578125 5.664062 5.039063 5.039063 4.375 5.664062 3.164062 5.664063 3.164063 5.039062 3.789062 5.664063 4.375 5.039062 6.328125 4.414063 7.539063 4.414062 10.078125 4.414063 13.242187 3.164062 15.742188 2.5 18.867187 1.875 22.695313.664063 25.195312-.664063 28.359375-1.875 30.234375-3.789062 30.234375-5.039063 32.109375-7.539062 30.234375-8.828125 27.734375-9.453125 25.195313-9.453125 22.03125-9.453125 20.15625-9.414063 17.03125-8.828125 15.117187-8.203125 13.203125-7.539062 11.367188-6.953125L2686.6925 707.99l9.453125-6.914062 8.789062-6.953125 8.828125-6.914063 8.203125-6.953125 8.164063-7.539062 8.828125-8.203125 8.828125-8.828125 8.828125-10.078125 8.789062-11.328125 8.828125-11.953125 8.828125-13.867188 7.539063-14.492187 6.328125-15.742188 4.375-16.367187.664062-16.367188-2.539062-15.117187-5.664063-13.867188-6.914062-13.242187-7.578125-11.953125-8.828125-10.703125-8.164063-8.828125-8.203125-8.828125-7.539062-6.914063-6.953125-6.328125-6.289063-5.664062-6.289062-4.414063-5.703125-4.375-5.664063-4.414062-5.664062-3.789063-6.289063-3.164062-6.914062-3.75-8.203125-3.164063-9.453125-3.789062-11.328125-3.789063-13.242188-3.75-16.367187-4.414062-18.90625-4.414063-22.03125-4.414062-25.820313-4.414063-28.984375-4.414062-33.398437-3.75-36.523438-2.539063-39.0625-1.875h-34.023437l-33.984375.625-33.398438 1.25-31.484375 2.539063-29.609375 3.125-27.109375 3.164062-25.195312 4.414063-22.03125 4.414062-18.90625 4.375-16.992188 5.039063-15.117187 5.703125-12.617188 5.039062-11.328125 5.664063-10.078125 5.664062-8.828125 5.664063-8.164062 5.664062-8.203125 5.664063-8.164063 5.664062-8.203125 6.328125-9.453125 5.664063-10.703125 5.664062-12.617187 5.664063-14.492188 5.039062-16.367187 5.664063-19.53125 5.039062-22.65625 5.039063-25.820313 5.039062-29.609375 4.414063-32.773437 3.789062-35.898438 3.789063-39.6875 2.5-42.1875 2.539062-44.101562 1.25-45.976563.625-46.015625-.625-44.6875-.625-42.851562-2.539062-40.3125-2.5-37.148438-3.164063-34.648437-3.164062-30.859375-4.375-27.734375-3.789063-24.570313-4.414062-21.40625-4.414063-18.90625-5.039062-16.992187-4.414063-15.117188-5.039062-13.242187-5.039063-11.953125-5.039062-11.328125-5.039063-10.742188-5.039062-10.703125-4.414063-10.703125-5.039062-11.328125-5.039063-12.617187-5.039062-13.203125-5.039063-14.492188-5.039062-16.367187-5.039063-18.28125-5.039062-20.15625-4.414063-22.695313-5.039062-24.53125-4.414063-26.484375-4.375-28.320312-4.414062L960.755 387.365l-30.859375-3.789062-30.234375-2.5-28.984375-1.914063-23.320313-1.25-21.40625-.625h-20.15625l-17.617187-.625-16.40625.625h-13.867188l-12.578125.625-11.328125.625h-9.453125l-8.203125.625-6.914062.664063h-6.289063l-5.039062.625h-4.414063l-3.164062.625h-3.164063l-1.875.625H682.3175l-2.5 1.25-1.25 1.25-.625.664062v1.25l-.664063 1.25v1.875l-.625 1.914063v5.039062l.625 3.789063v3.75l.664063 5.039062 1.25 5.039063 1.875 5.664062 2.539062 6.953125 3.75 7.539063 4.414063 8.203125 5.664062 8.828125 6.953125 9.453125 11.953125 13.203125 13.242188 14.492187 14.492187 13.867188 15.117188 13.867187 14.492187 13.203125 13.203125 13.242188L799.505 554.279063l11.328125 10.703125 10.703125 10.742187 9.453125 10.078125 8.203125 8.789063 7.539062 8.828125 7.578125 8.203125 6.289063 8.164062 6.914062 8.203125 7.578125 7.539063 7.539063 8.203125 8.828125 8.203125 10.078125 8.164062 11.953125 8.828125 13.867187 8.828125 15.742188 10.078125L962.63 697.911875 984.700312 707.99l25.195313 11.328125 28.945312 11.328125 32.148438 11.367188 35.898437 10.703125 38.4375 10.078125zm0 0"/><path stroke="#707070" stroke-dasharray="9.4485,9.4485" stroke-dashoffset="9.4485" d="M1217.122187 658.224375l4.414063-23.320312 1.875-23.90625V587.0525l-1.875-23.320312-3.164063-22.65625-4.414062-22.070313-5.039063-21.40625-5.039062-19.53125-6.289063-18.90625-5.664062-17.617187-5.664063-17.03125-6.289062-15.742188-5.703125-15.117187-6.289063-14.492188-5.664062-13.203125-6.289063-13.867187-6.289062-12.578125-6.328125-12.617188-6.914063-12.617187-6.914062-12.578125L1121.38 289.08375l-8.203125-12.578125-9.453125-13.242187-10.078125-13.203125-11.953125-13.867188-12.617188-13.867187-15.078125-14.492188-15.78125-14.492187-18.242187-15.117188-20.15625-14.453125-22.695313-15.117187-24.570312-14.492188-27.070313-13.867187-28.984375-12.617188-30.859375-10.703125-32.773437-8.828125L800.755 81.857188l-32.773438-3.789063-33.359375-1.875-32.148437-.625-32.109375 1.25L639.505 78.732188l-29.609375 2.5-28.359375 3.789062-27.070313 4.414063-25.820312 4.414062-24.570313 5.039063L480.755 103.9275l-22.65625 5.039063-21.40625 5.664062-20.820313 5.664063-20.15625 5.664062-18.867187 5.664063-18.90625 6.289062L339.03625 144.24l-18.28125 6.289063-18.242188 6.914062-18.28125 6.953125-18.242187 7.539063-18.90625 7.578125-18.28125 8.789062-19.53125 8.828125-18.90625 10.078125-19.492188 10.703125-19.53125 11.992188-19.53125 12.578125-19.53125 13.242187-18.90625 15.117188L75.13 286.58375l-17.03125 17.617188-15.742188 18.28125-13.242187 19.53125-10.703125 20.78125-7.539063 21.40625-3.789062 23.320312v23.945313l3.164062 23.28125 5.664063 22.695312 8.164062 22.03125 10.078125 20.820313 11.367188 20.15625 11.953125 18.867187 12.617187 17.65625 13.203125 16.367188L97.16125 609.08375l13.867187 14.492188 13.828125 13.867187 13.867188 13.203125 14.492187 12.617188 13.867188 11.953125 14.492187 11.367187 15.117188 11.328125L211.184687 709.24l15.742188 11.328125 15.742187 11.367188 16.992188 11.328125 17.65625 11.953125 18.242187 11.992187 19.53125 12.578125 20.15625 12.617188 22.070313 13.203125 23.28125 13.242187 25.195312 13.867188 25.859375 14.492187 28.320313 13.828125 29.609375 13.242188L520.4425 887.52125l32.148437 11.953125 32.734375 10.703125 33.398438 8.828125 33.359375 6.289063 32.773437 4.414062 31.484375 2.539063 30.234375.625 28.359375-.625L802.005 930.95875l24.570312-2.5 22.695313-3.164062 20.78125-3.125 19.53125-3.789063 17.617187-4.414062L923.5675 909.5525l14.492187-4.414062 13.867188-4.414063 13.242187-5.039062 12.578125-5.039063 11.367188-5.039062 11.328125-5.039063 11.328125-5.664062L1022.47375 869.24l11.328125-6.289062 11.367187-6.289063 11.328125-7.578125 11.953125-7.578125 12.617188-8.789062 12.578125-9.453125 13.242187-10.703125 13.867188-11.992188L1134.622187 787.99l13.828125-14.492187 13.867188-15.742188 13.242187-17.03125 13.203125-18.242187 11.328125-20.15625 9.453125-21.40625zm0 0"/></g><g clip-path="url(#d)"><path d="M1014.270625 334.474375l-13.203125 26.445313L990.364375 387.365l-7.578125 26.445313-5.664063 25.820312-3.789062 24.570313-1.875 23.320312v22.03125l.625 20.820313L973.997187 549.24l2.5 17.65625 3.164063 16.992188 3.75 15.117187 4.414062 15.117188L992.239375 627.99l5.039062 13.242188 5.664063 12.578125 5.039062 12.617187 6.289063 11.953125 6.328125 12.617188 6.289062 12.578125 6.914063 12.617187 8.203125 13.203125 7.578125 13.867188 9.453125 14.492187 9.414062 15.117188L1079.153437 787.99l11.367188 16.367188 12.578125 16.992187 13.867187 16.40625 15.117188 16.992188 16.367187 16.367187 18.28125 15.78125 18.90625 14.453125 20.78125 12.617188 23.320313 10.703125 23.28125 7.578125 23.945312 5.039062 22.65625 3.75 22.070313 1.914063 20.78125.625h19.53125l18.28125-1.25 16.992187-1.914063 15.742188-1.875 14.492187-2.539062 13.828125-2.5 12.617188-3.164063 12.617187-3.125 22.65625-7.578125 11.992188-3.789062 11.328125-4.414063 11.953125-5.664062 11.992187-5.664063 13.203125-6.289062 13.867188-8.203125 14.492187-8.789063L1593.176875 866.74l16.367187-11.992187 17.65625-13.242188 17.617188-15.742187 18.90625-17.617188L1682.63 787.99l18.90625-22.070312 18.242187-24.53125 16.367188-26.484375 13.867187-26.445313 11.953125-27.734375 10.742188-28.320312 8.789062-27.734375 7.578125-27.070313 6.289063-26.445312 5.039062-25.195313 5.039063-23.945312 3.789062-22.695313 3.164063-22.03125 3.125-20.15625 1.875-19.53125 2.539062-18.90625 1.25-17.617187 1.914063-17.65625 1.25-16.992188.625-16.367187.625-16.40625v-33.359375l-.625-17.03125-1.25-17.617188-1.914063-17.65625-2.5-18.242187-3.789062-18.90625-5.039063-18.90625-6.289062-19.53125-7.578125-20.15625-9.453125-19.53125-11.328125-19.53125-13.242188-18.867188-15.078125-17.03125-17.65625-15.742187-20.15625-12.578125-20.78125-8.828125-22.695312-6.289063-23.28125-4.414062-23.320313-1.914063h-23.945312l-23.28125 1.914063-22.695313 2.5-22.03125 3.164062-21.40625 4.414063L1485.4425 24.5525l-19.53125 5.664063-19.492188 5.664062-18.28125 6.289063-17.65625 6.328125-16.992187 6.914062-16.992188 6.289063-16.40625 7.578125-16.367187 6.914062-16.367188 7.578125-16.367187 8.164063-16.40625 8.203125-16.992188 8.828125-16.992187 9.414062-17.65625 10.078125-18.28125 10.742188-18.867188 11.953125-18.90625 12.617187-19.53125 13.203125-20.78125 15.117188-20.15625 16.367187-20.78125 17.65625-20.15625 18.90625-19.53125 20.78125-18.90625 21.40625-17.617187 23.320313zm0 0" class="c"/></g><path d="M1585.59875 416.349375l20.820312-18.90625 21.40625-16.367187 22.03125-14.492188 21.40625-13.242187 21.445313-10.703125 20.15625-10.078125 19.53125-8.164063 18.867187-6.953125 17.03125-5.664062L1784.66125 306.74l15.117187-4.414062 14.492188-3.164063 13.867187-3.125 12.578125-2.539062 12.617188-1.875 11.953125-1.875 11.992187-1.289063 11.953125-1.25 11.953125-.625H1926.38l13.242187.625 14.492188.625 14.492187 1.914063 15.742188 2.5 16.992187 3.164062 17.65625 4.414063 18.242188 5.664062 19.53125 7.539063 19.53125 8.828125 20.15625 10.703125 20.15625 12.617187 19.53125 15.117188 18.28125 16.992187 16.367187 19.53125 14.492188 21.40625 13.203125 22.070313 11.367187 23.28125 9.414063 22.695312 8.828125 22.03125 7.578125 22.070313 6.289062 20.78125 5.664063 20.78125 4.414062 18.90625 4.414063 18.867187 3.789062 17.65625 3.125 16.992188 2.539063 16.367187 2.5 16.40625 2.539062 15.742188 1.25 15.742187 1.875 15.117188 1.289063 15.742187.625 16.367188V789.865l-1.25 17.65625-1.289063 18.867188-2.5 19.53125L2267.16125 866.74l-4.414063 21.40625-6.289062 22.03125-8.203125 22.695313-9.453125 23.28125-11.328125 23.945312-13.867188 23.320313-16.367187 22.03125-18.90625 20.78125-21.40625 18.28125-22.695313 16.367187-23.90625 14.492188-24.570312 11.953125-23.945313 10.078125-24.570312 8.828125-23.28125 6.953125-22.695313 5.664062-22.03125 4.414063-21.445312 3.75-20.117188 3.164062-19.53125 1.875-18.90625 1.914063-17.65625.625-18.242187.625-17.03125.625h-17.617188l-17.03125-.625-16.992187-.625-17.65625-1.289063-18.242188-1.25-18.28125-2.5-19.53125-2.539062-19.53125-2.5-20.78125-3.789063-21.40625-5.039062-22.03125-5.664063-22.695312-6.914062-22.65625-8.203125-23.320313-9.453125-22.695312-11.328125-22.03125-13.242188-20.78125-15.117187-18.90625-17.617188-16.992188-20.820312-13.867187-22.03125-11.328125-23.320313-8.203125-23.28125-6.914063-23.320312-4.414062-22.65625-2.539063-21.445313-1.875-20.78125-.625-19.53125.625-18.867187 1.25-17.65625 1.914063-16.992188 2.5-15.742187 3.164062-15.78125 3.125-15.117188 3.789063-15.117187 8.828125-30.234375 4.414062-15.742188 5.664063-16.367187 5.664062-16.992188 6.914063-17.65625 6.953125-18.90625 8.164062-20.15625 9.453125-20.78125 10.078125-22.03125 11.992188-23.320312 13.203125-23.28125 15.117187-24.570313 16.40625-23.945312 18.867188-23.320313zm0 0" class="c"/><path d="M86.0469 62c0 .800781-.648437 1.449219-1.449219 1.449219-.800781 0-1.449218-.648438-1.449218-1.449219 0-.796875.648437-1.445312 1.449218-1.445312.800782 0 1.449219.648437 1.449219 1.445312" class="a"/><g style="fill:none;stroke-width:4.72425;stroke-linejoin:bevel;stroke:#000;stroke-opacity:1;stroke-miterlimit:10;transform:matrix(.1,0,0,-.1,-.013,116.549)"><path stroke-linecap="butt" d="M860.59875 545.49c0-8.007812-6.484375-14.492187-14.492188-14.492187-8.007812 0-14.492187 6.484375-14.492187 14.492187 0 7.96875 6.484375 14.453125 14.492187 14.453125 8.007813 0 14.492188-6.484375 14.492188-14.453125zm0 0"/><g stroke-linecap="round" stroke-dasharray="9.4485,9.4485" stroke-dashoffset="9.4485"><path d="M1191.926875 545.49c0-191.015625-154.84375-345.820312-345.820313-345.820312C655.13 199.669688 500.28625 354.474375 500.28625 545.49c0 190.976563 154.84375 345.78125 345.820312 345.78125 190.976563 0 345.820313-154.804687 345.820313-345.78125zm0 0"/><path d="M2240.715937 658.849375c0-190.976562-154.84375-345.820312-345.820312-345.820312-190.976563 0-345.820313 154.84375-345.820313 345.820312 0 190.976563 154.84375 345.820313 345.820313 345.820313 190.976562 0 345.820312-154.84375 345.820312-345.820313zm0 0"/></g></g><path d="M190.9258 50.6641c0 .800782-.648437 1.449219-1.449219 1.449219-.800781 0-1.449218-.648437-1.449218-1.449219 0-.800781.648437-1.449218 1.449218-1.449218.800782 0 1.449219.648437 1.449219 1.449218" class="a"/><path d="M1909.387812 658.849375c0-8.007812-6.484375-14.492187-14.492187-14.492187-8.007813 0-14.492188 6.484375-14.492188 14.492187 0 8.007813 6.484375 14.492188 14.492188 14.492188 8.007812 0 14.492187-6.484375 14.492187-14.492188zm0 0" class="b"/><path d="M139.9023 59.168c0 .800781-.648438 1.449219-1.449219 1.449219-.796875 0-1.445313-.648438-1.445313-1.449219s.648438-1.449219 1.445313-1.449219c.800781 0 1.449219.648438 1.449219 1.449219" class="a"/><g class="b"><path d="M1399.153437 573.810313c0-8.007813-6.484375-14.492188-14.492187-14.492188-7.96875 0-14.453125 6.484375-14.453125 14.492188 0 8.007812 6.484375 14.492187 14.453125 14.492187 8.007812 0 14.492187-6.484375 14.492187-14.492187zm0 0"/><path stroke-dasharray="9.4485,9.4485" stroke-dashoffset="9.4485" d="M1718.528437 556.193125c0-191.015625-154.84375-345.820312-345.820312-345.820312-190.976563 0-345.820313 154.804687-345.820313 345.820312 0 190.976563 154.84375 345.820313 345.820313 345.820313 190.976562 0 345.820312-154.84375 345.820312-345.820313zm0 0"/></g><path d="M241.8828 55.1992c0 .800781-.648437 1.449219-1.449218 1.449219-.796875 0-1.445313-.648438-1.445313-1.449219s.64845-1.4492 1.445325-1.4492c.800781 0 1.449218.648438 1.449218 1.449219" class="a"/><path d="M2418.958125 613.497813c0-8.007813-6.484375-14.492188-14.492188-14.492188-7.96875 0-14.453125 6.484375-14.453125 14.492188 0 8.007812 6.484375 14.492187 14.453125 14.492187 8.007813 0 14.492188-6.484375 14.492188-14.492187zm0 0" class="b"/><g clip-path="url(#e)"><g clip-path="url(#f)"><path d="M846.106562 545.49l-141.71875 311.796875" class="d"/></g></g><path d="M722.63 770.95875l-13.828125 76.875L757.278437 786.74" class="d"/></g><path d="M5.5156-7.1719c0-.375-.546875-.6875-1.515625-.6875s-1.73435.5469-1.73435 1.26565c0 .796875.8125 1.65625.8125 1.671875 0 0-2.859375.46875-2.859375 3.171875 0 .8125.421875 1.921875 1.625 1.921875 1.6875 0 3.046875-1.546875 3.046875-3.5 0-1.984375-2.171875-2.234375-2.171875-3.390625 0-.53125.625-.765625 1.015625-.765625 1.125 0 .875.6875 1.375.6875.25 0 .40625-.171875.40625-.375zm-1.5781 4.25c0 1.53125-1 2.796875-1.8125 2.796875-.671875 0-.90625-.921875-.90625-1.578125 0-2.765625 2.078125-2.96875 2.09375-2.96875 0 .015625.625.78125.625 1.75zm0 0" id="i"/><path d="M4.9688-1.2344l-.1562-.0937c-.109375.125-.15625.1875-.265625.328125-.28125.359375-.40625.46875-.5625.46875-.171875 0-.28125-.15625-.359375-.484375-.03125-.109375-.046875-.171875-.046875-.1875-.296875-1.125-.4375-1.765625-.4375-1.953125C3.671975-4.0781 4.09385-4.60935 4.3126-4.60935c.078125 0 .1875.046875.296875.109375.140625.078125.21875.09375.328125.09375.234375 0 .40625-.171875.40625-.421875 0-.265625-.203125-.4375-.484375-.4375-.53125 0-.96875.421875-1.8125 1.703125l-.125-.6562c-.171875-.8125-.296875-1.046875-.625-1.046875-.28125 0-.65625.09375-1.40625.34375l-.125.0469.0469.1719.203-.047c.234375-.0625.375-.078125.46875-.078125.296875 0 .375.109375.53125.828125l.3438 1.4688-.9687 1.3906c-.250075.35935-.48445.5781-.60945.5781-.078125 0-.203125-.03125-.3125-.109375C.3125-.75.1875-.78125.078125-.78125c-.234375 0-.40625.171875-.40625.40625 0 .3125.234375.5.609375.5.359375 0 .5-.09375 1.109375-.8125L2.4688-2.1094l.3594 1.4375c.140625.625.296875.796875.6875.796875.453125 0 .765625-.28125 1.453125-1.359375zm0 0" id="a"/><path d="M9.1406-7.6094v-.2031h-2.375v.2031c.640625.0625.84375.1875.84375.546875 0 .1875-.296875 1.375-.875 3.421875l-.1562.5938c-.531275 1.9531-1.2969 2.7656-2.6094 2.7656-1 0-1.671875-.5625-1.671875-1.40625 0-.40625.359375-1.8125 1.171875-4.609375l.0625-.2344c.25-.828125.4375-1 1.25-1.078125v-.2031H1.5156v.2031c.8125.0625.9375.140625.9375.484375 0 .140625-.03125.328125-.09375.53125l-.625 2.2969C1.359375-2.984375 1.21875-2.25 1.21875-1.75c0 1.140625 1.09375 1.96875 2.609375 1.96875 1.5625 0 2.5625-.859375 3.078125-2.640625l1-3.4062c.453125-1.5625.5-1.625 1.234375-1.78125zm0 0" id="b"/><path d="M7.3906 0v-.1875c-.75-.078125-.828125-.109375-1.15625-.671875l-2.0937-3.625L7.7344-7.1875c.34375-.25.609375-.375.890625-.421875V-7.8125H5.9688v.2031l.3281.0313c.296875.03125.40625.09375.40625.234375 0 .28125-.65625.90625-1.71875 1.671875l-1.8125 1.2656.625-2.3281c.1875-.59375.5-.828125 1.21875-.875v-.2031H1.75v.2031c.75.0625.921875.15625.921875.515625 0 .171875-.046875.40625-.140625.734375L1.0625-1.0781c-.21875.71875-.28125.78125-.984375.890625V0h2.9688v-.1875c-.75-.09375-.859375-.15625-.859375-.53125 0-.125.015625-.21875.09375-.46875l.0781-.25.7344-2.7187 1.4531 2.4844C4.828125-1.1875 5-.765625 5-.53125c0 .171875-.171875.265625-.546875.296875L4.0938-.1875V0zm0 0" id="j"/><path d="M3.4531 0v-.125c-.687475-.015625-.8281-.109375-.8281-.53125v-5.25l-.0781-.0156L.9688-5.125V-5c.109375-.046875.203125-.078125.234375-.109375.171875-.046875.3125-.09375.40625-.09375.171875 0 .25.140625.25.421875V-.8125c0 .28125-.0625.484375-.203125.5625-.125.078125-.25.109375-.625.125V0zm0 0" id="k"/><path d="M4.1563-1.2031 4.0469-1.25c-.328125.5-.4375.578125-.828125.578125H1.125l1.4688-1.5312C3.375-3.03125 3.71875-3.6875 3.71875-4.375c0-.875-.71875-1.546875-1.625-1.546875-.484375 0-.9375.1875-1.265625.546875-.28125.296875-.40625.578125-.5625 1.1875l.1875.0469C.8125-5 1.125-5.28125 1.734375-5.28125c.734375 0 1.234375.5 1.234375 1.234375 0 .6875-.40625 1.5-1.140625 2.28125l-1.5625 1.6563V0H3.6875zm0 0" id="l"/><path d="M3.7813-1.9219c0-.4375-.140625-.859375-.390625-1.125-.171875-.203125-.34375-.296875-.71875-.46875.59375-.40625.8125-.734375.8125-1.203125 0-.71875-.5625-1.203125-1.359375-1.203125-.4375 0-.828125.140625-1.140625.421875-.265625.234375-.390625.46875-.59375 1l.1406.0313c.359375-.640625.75-.9375 1.296875-.9375.578125 0 .96875.390625.96875.9375 0 .328125-.125.640625-.34375.859375-.26565.2656-.51565.3906-1.1094.60935v.1094c.515625 0 .71875.015625.921875.09375.546875.1875.890625.6875.890625 1.296875 0 .734375-.5 1.3125-1.15625 1.3125-.234375 0-.40625-.0625-.734375-.28125-.25-.15625-.40625-.21875-.5625-.21875-.1875 0-.328125.125-.328125.3125 0 .3125.375.5 1 .5.671875 0 1.359375-.234375 1.765625-.59375C3.5625-.8281 3.78125-1.3281 3.78125-1.92185zm0 0" id="m"/><path d="M4.1406-1.4687v-.5625H3.25v-3.8906h-.3906l-2.75 3.8906v.5625h2.4531V0H3.25v-1.4687zm-1.5781-.5625H.4531l2.1094-3zm0 0" id="n"/><path d="M4.625-.6406l-.0156-.0156c-.125 0-.265625.296875-.640625.296875-1.65625 0 1.359375-5.375-1.21875-5.375h-.0937c-.15625 0-.53125.125-.640625.234375-.015625 0 .0625.078125.078125.078125.03125-.03125.234375-.109375.40625-.109375.84375 0 .625 1.40625.625 1.625 0 .03125 0 .046875-.015625.078125C2.9375-3 .34375-.703125.140625 0h.875c0-.09375.015625-.171875.03125-.265625.25-1.125 1.96875-2.828125 1.96875-2.84375h.0156c-.0625.46875-.84375 3.203125.578125 3.203125.390625 0 1-.625 1.015625-.734375zm0 0" id="c"/><path d="M2.5938 0v-.0937c-.515625-.015625-.625-.078125-.625-.390625V-4.4375l-.0469-.0156-1.1875.6094v.0937c.0781-.03125.1406-.0625.17185-.078125.125-.046875.234375-.078125.296875-.078125.140625 0 .203125.109375.203125.3125v2.9844c0 .21875-.0625.359375-.15625.421875-.109375.0625-.203125.078125-.46875.09375V0zm0 0" id="o"/><path d="M3.125-.9062l-.0781-.0313c-.25.375-.34375.4375-.625.4375H.8438l1.1094-1.1562c.578125-.609375.84375-1.109375.84375-1.625 0-.65625-.546875-1.171875-1.21875-1.171875-.375 0-.703125.15625-.953125.421875-.203125.21875-.3125.421875-.421875.890625l.1406.0313c.265625-.640625.5-.84375.953125-.84375.546875 0 .921875.375.921875.921875 0 .515625-.296875 1.125-.84375 1.703125l-1.1719 1.25V0h2.5625zm0 0" id="p"/><path d="M2.8438-1.4375c0-.34375-.109375-.640625-.296875-.859375-.125-.140625-.25-.21875-.546875-.34375.453125-.3125.625-.546875.625-.90625 0-.53125-.421875-.90625-1.03125-.90625-.328125 0-.625.125-.859375.328125-.1875.171875-.296875.34375-.4375.75l.0938.0156c.28125-.46875.5625-.6875.984375-.6875s.71875.28125.71875.703125c0 .234375-.09375.46875-.265625.640625-.1875.1875-.375.28125-.828125.453125v.0781c.390625 0 .546875.015625.703125.078125.40625.140625.671875.515625.671875.96875 0 .546875-.375.984375-.875.984375-.171875 0-.296875-.046875-.546875-.203125C.75-.46875.640625-.515625.53125-.515625c-.15625 0-.25.09375-.25.234375 0 .234375.28125.375.75.375.5 0 1.015625-.171875 1.328125-.4375C2.671875-.625 2.84375-1 2.84375-1.4375zm0 0" id="q"/></defs><use href="#h"/><use x="64.977" y="53.489" href="#i"/><use x="79.614" y="73.333" href="#a"/><use x="85.281" y="75.126" href="#k"/><g fill="#707070"><use x="9.9" y="76.231" href="#b"/><use x="18.418" y="78.024" href="#c"/><use x="23.327" y="79.37" href="#o"/></g><use x="255.427" y="67.097" href="#j"/><use x="129.318" y="53.489" href="#a"/><use x="134.985" y="55.283" href="#l"/><use x="182.865" y="61.238" href="#a"/><use x="188.532" y="63.031" href="#m"/><use x="234.018" y="50.592" href="#a"/><use x="239.685" y="52.385" href="#n"/><g fill="#707070"><use x="148.051" y="105.398" href="#b"/><use x="156.568" y="107.192" href="#c"/><use x="161.478" y="108.537" href="#p"/><use x="152.964" y="17.519" href="#b"/><use x="161.482" y="19.312" href="#c"/><use x="166.392" y="20.657" href="#q"/></g><style>.a{fill:#000;fill-opacity:1;fill-rule:evenodd}.b{fill:none;stroke:#000;stroke-linecap:round;stroke-linejoin:bevel;stroke-miterlimit:10;stroke-opacity:1;stroke-width:4.72425;transform:matrix(.1,0,0,-.1,-.013,116.549)}.c{fill:none;stroke:#707070;stroke-dasharray:9.4485,9.4485;stroke-dashoffset:9.4485;stroke-linecap:butt;stroke-linejoin:bevel;stroke-miterlimit:10;stroke-opacity:1;stroke-width:4.72425;transform:matrix(.1,0,0,-.1,-.013,116.549)}.d{fill:none;stroke:#000;stroke-linecap:butt;stroke-linejoin:miter;stroke-miterlimit:10;stroke-opacity:1;stroke-width:4.72425;transform:matrix(.1,0,0,-.1,-.013,116.549)}</style></svg>