<svg xmlns="http://www.w3.org/2000/svg" width="402pt" height="177pt" viewBox="0 0 402 177"><defs><path d="M3.2344.0313v-.3594l-.5469-.0313C2.28125-.375 2.25-.46875 2.25-1.21875v-7.3594l-.1094-.0937c-.53125.203125-.921875.296875-1.859375.4375v.3281H.9375c.21875 0 .3125.140625.3125.5v6.1875c0 .75-.046875.84375-.453125.859375L.25-.3281v.3594C.75.015625 1.25 0 1.75 0s.984375.015625 1.484375.03125zm0 0" id="d"/><path d="M3.2344.0313v-.3594l-.5469-.0313C2.28125-.375 2.25-.46875 2.25-1.21875V-5.5625l-.1094-.0469c-.609375.25-1.234375.421875-1.859375.5v.3281h.4375c.46875 0 .53125.078125.53125.875v2.6875c0 .75-.046875.84375-.453125.859375L.25-.3281v.3594C.75.015625 1.25 0 1.75 0s.984375.015625 1.484375.03125zm-.8906-7.6407c0-.34375-.234375-.609375-.59375-.609375s-.609375.25-.609375.609375.25.59375.609375.59375.59375-.234375.59375-.59375zm0 0" id="c"/><path d="M10.3906.0313v-.3594l-.5625-.0312c-.40625-.015625-.4375-.109375-.4375-.859375V-3.6875c0-1.171875-.703125-1.921875-1.796875-1.921875-.421875 0-.765625.109375-.984375.296875l-.9062.8125C5.3125-5.28125 4.828125-5.609375 4-5.609375c-.4375 0-.765625.109375-.984375.296875l-.8281.7656v-1.0156l-.1094-.0469c-.609375.25-1.234375.421875-1.859375.5v.3281h.4375c.484375 0 .53125.078125.53125.875v2.6875c0 .75-.046875.84375-.453125.859375L.1875-.3281v.3594C.6875.015625 1.203125 0 1.703125 0 2.1875 0 2.65625.015625 3.125.03125v-.3594l-.5-.0312c-.40625-.01565-.4375-.1094-.4375-.8594V-3.75c0-.546875.78125-1.125 1.5-1.125.65625 0 1.09375.609375 1.09375 1.515625v2.1406c0 .75-.03125.84375-.4375.859375l-.5469.0313v.3594C4.296875.015625 4.78125 0 5.28125 0s1 .015625 1.5.03125v-.3594l-.5469-.0312c-.406225-.01565-.4531-.1094-.4531-.8594V-3.75c0-.546875.796875-1.125 1.515625-1.125.640625 0 1.078125.609375 1.078125 1.515625V.0313C8.6875.015625 9.015625 0 9.328125 0c.359375 0 .703125.015625 1.0625.03125zm0 0" id="e"/><path d="M4.6719-1.7656c0-.375-.09375-.65625-.328125-.890625-.3125-.3125-.703125-.4375-1.765625-.640625-.96875-.1875-1.296875-.4375-1.296875-.984375 0-.59375.421875-.9375 1.140625-.9375.8125 0 1.421875.421875 1.421875.984375v.2813h.3281c.015625-.703125.03125-.984375.0625-1.359375-.640625-.203125-1.0625-.296875-1.5625-.296875-1.375 0-2.234375.65625-2.234375 1.734375 0 .578125.265625.984375.8125 1.234375.328125.140625.96875.328125 1.78125.515625.53125.109375.765625.375.765625.828125 0 .640625-.609375 1.09375-1.453125 1.09375-.875 0-1.5-.421875-1.5-1.015625v-.4844H.4844c0 .8125-.03125 1.171875-.125 1.65625.625.203125 1.09375.28125 1.640625.28125 1.5625 0 2.671875-.828125 2.671875-2zm0 0" id="i"/><path d="M6.9375.0313v-.3594l-.4844-.0312c-.40625-.015625-.4375-.09375-.4375-.859375V-5.5625l-.1094-.0469c-.609375.25-1.234375.421875-1.859375.5v.3281h.4375c.46875 0 .53125.078125.53125.875v1.9531c0 .25-.171875.59375-.453125.859375-.328125.34375-.71875.515625-1.1875.515625-.40625 0-.75-.140625-.9375-.359375-.171875-.203125-.25-.5625-.25-1.09375V-5.5625l-.1094-.0469c-.609375.25-1.234375.421875-1.859375.5v.3281h.4375c.484375 0 .53125.078125.53125.875v2c0 .84375.0625 1.21875.28125 1.515625.265625.359375.71875.53125 1.40625.53125.53125 0 1.015625-.171875 1.328125-.46875l.8125-.7344c0 .34375-.015625.53125-.0625 1.09375C5.296875.015625 5.625 0 5.953125 0s.65625.015625.984375.03125zm0 0" id="j"/><path d="M6.625-3.2344c0-1.328125-1.109375-2.375-2.484375-2.375-.453125 0-.875.125-1.0625.296875l-.9844.9063V-5.5625l-.1094-.0469C1.375-5.359375.75-5.1875.125-5.109375v.3281h.4375c.484375 0 .53125.078125.53125.875v6.0156c0 .75-.046875.828125-.453125.859375L.0938 3v.3594c.5-.03125 1-.03125 1.5-.03125s.984375 0 1.484375.03125V3l-.5469-.0312c-.40625-.03125-.4375-.109375-.4375-.859375V-.1562c.359375.21875.734375.296875 1.28125.296875.34375 0 .65625-.0625.84375-.1875L5.5781-.9375C6.0625-1.25 6.625-2.46875 6.625-3.234375zm-1.0469.4375c0 1.34375-.796875 2.328125-1.875 2.328125-.65625 0-1.140625-.21875-1.609375-.703125v-2.4843c0-.171875.0625-.296875.21875-.5.34375-.453125.828125-.671875 1.421875-.671875 1.125 0 1.84375.78125 1.84375 2.03125zm0 0" id="k"/><path d="M6.8438.0313v-.3594l-.5-.0312c-.40625-.015625-.4375-.09375-.4375-.859375v-2.3125c0-1.390625-.65625-2.078125-2-2.078125-.4375 0-.6875.09375-.9375.296875l-.9062.7969V-5.5625l-.1094-.0469c-.609375.25-1.234375.421875-1.875.5v.3281h.4531c.46875 0 .515625.078125.515625.875v2.6875c0 .75-.03125.84375-.4375.859375l-.5312.0313V.0313C.5625.015625 1.0625 0 1.546875 0c.5 0 1 .015625 1.484375.03125v-.3594L2.5-.3594c-.40625-.0156-.4375-.10935-.4375-.85935V-3.75c0-.546875.78125-1.125 1.515625-1.125.796875 0 1.328125.59375 1.328125 1.515625V.0313c.3125-.015675.625-.0313.9375-.0313.34375 0 .65625.015625 1 .03125zm0 0" id="l"/><path d="M4.0781-7.6562v-.9219c-.25-.09375-.390625-.125-.546875-.125-.390625 0-.8125.203125-1.0625.5l-.7031.7969c-.34375.390625-.5.921875-.5 1.71875v.5l-.8281.375v.2656l.8281-.0625v3.3906c0 .75-.03125.84375-.4375.859375l-.5469.0313V.0313C.78125.015625 1.265625 0 1.765625 0s1 .015625 1.5.03125v-.3594l-.5469-.0312c-.406225-.01565-.4531-.1094-.4531-.8594v-3.3906H3.75l.0938-.625c-.53125.03125-1.046875.046875-1.578125.046875v-1.0156c0-1.375.15625-1.703125.84375-1.703125.328125 0 .53125.078125.828125.328125zm0 0" id="m"/><path d="M4.5-.75l-.0781-.1562-.2344.1562c-.25.15625-.4375.265625-.53125.265625-.0625 0-.109375-.078125-.109375-.1875 0-.03125 0-.140625.015625-.171875l.5781-2.4219c.0625-.25.09375-.5.09375-.640625 0-.203125-.09375-.3125-.265625-.3125-.375 0-.984375.328125-1.5.8125-.328125.296875-.578125.59375-1.03125 1.234375l.3281-1.4062c.046875-.15625.0625-.265625.0625-.359375 0-.1875-.078125-.28125-.203125-.28125-.1875 0-.53125.1875-1.171875.640625l-.25.1719.0625.1875.2813-.1875C.875-3.625.90625-3.625.96875-3.625c.09375 0 .15625.078125.15625.21875 0 .4375-.359375 2.140625-.71875 3.390625l.0625.0938C.6875.015625.890625-.03125 1.078125-.0625c.171875-1.109375.359375-1.6875.75-2.28125C2.3125-3.078125 2.96875-3.625 3.359375-3.625c.09375 0 .140625.078125.140625.203125 0 .15625-.015625.34375-.09375.625L2.9531-.9375c-.078125.328125-.109375.53125-.109375.671875 0 .21875.09375.34375.265625.34375.21875 0 .53125-.1875 1.390625-.828125zm0 0" id="b"/><path d="M8.875-2.3906l-1.8125-1.875-.2812.2969L7.875-2.625H.5625v.5156H7.875L6.7813-.7812l.2813.2969zm0 0" id="f"/><path d="M7.3906-2.4844c0-.84375-.453125-1.5625-1.375-1.5625-.75 0-1.5.734375-1.953125 1.28125-.390625-.625-1.140625-1.296875-1.921875-1.296875-1.015625 0-1.65625.984375-1.65625 1.921875 0 .84375.46875 1.5625 1.375 1.5625.734375 0 1.546875-.75 1.96875-1.3125C4.25-1.25 4.921875-.5625 5.734375-.5625c1.03125 0 1.65625-1 1.65625-1.921875zm-.5312.4219c0 .609375-.296875 1.109375-.953125 1.109375-.703125 0-1.328125-1.03125-1.6875-1.53125C4.5-2.90625 5.234375-3.578125 5.75-3.578125c.734375 0 1.109375.890625 1.109375 1.515625zm-3.2031-.0781c-.265675.406225-1.015675 1.0781-1.5313 1.0781-.734375 0-1.09375-.90625-1.09375-1.53125 0-.609375.3125-1.125.96875-1.125.625 0 1.390625 1.046875 1.65625 1.578125zm0 0" id="g"/><path d="M5.3594-.9375l-.0937-.2344c-.4375.359375-.734375.53125-.921875.53125S4-.75 3.890625-.984375s-.25-.671875-.3125-1.03125L3.375-3.2187l.4219-.5781c.546875-.78125.875-1.0625 1.25-1.0625.1875 0 .328125.109375.390625.28125L5.6094-4.625l.1719-1.0156c-.140625-.078125-.25-.125-.359375-.125-.46875 0-.953125.4375-1.6875 1.53125l-.4531.6563-.0625-.5625c-.140625-1.1875-.46875-1.625-1.171875-1.625-.3125 0-.578125.09375-.6875.25l-.6875 1L.875-4.4062c.359375-.40625.59375-.5625.828125-.5625.390625 0 .65625.484375.859375 1.65625l.125.75-.4687.7344c-.515625.796875-.921875 1.1875-1.265625 1.1875C.78125-.640625.640625-.6875.625-.75l-.1406-.3437-.2344.0468c0 .2344-.015625.39065-.09375.76565C.125-.125.125-.09375.109375-.015625.28125.078125.484375.125.625.125c.390625 0 .859375-.34375 1.234375-.90625l.9063-1.3906.125.8281C3.0625-.328125 3.328125.125 3.75.125c.265625 0 .65625-.203125 1.03125-.546875zm0 0" id="h"/><path d="M5.9219-3.2344 3.2188-6.0312.5313-3.2344 3.2188-.4375zm-.7656 0-1.9375 2.0469-1.9219-2.0469 1.9219-2.0312zm0 0" id="a"/></defs><g class="c"><path d="M671.445312 1129.84375h29.84375"/><path d="M760.898438 1129.84375h29.84375"/><path d="M790.742188 1129.84375h29.804687"/><path d="M880.195312 1129.84375h29.84375"/><path d="M910.039062 1129.84375h29.804688"/><path d="M999.453125 1129.84375h29.84375"/><path d="M1029.296875 1129.84375h29.804687"/><path d="M1118.75 1129.84375h29.84375"/><path d="M1148.59375 1129.84375h29.804688"/><path d="M1238.046875 1129.84375h29.804687"/><path d="M1267.851562 1129.84375h29.84375"/><path d="M1357.34375 1129.84375h29.804688"/><path d="M1387.148438 1129.84375h29.84375"/><path d="M1476.601562 1129.84375h29.84375"/><path d="M1506.445312 1129.84375h29.84375"/><path d="M1595.898438 1129.84375h29.84375"/><path d="M1625.742188 1129.84375h29.804687"/><path d="M1715.195312 1129.84375h29.84375"/><path d="M1745.039062 1129.84375h29.804688"/><path d="M1834.492188 1129.84375h29.804687"/><path d="M1864.296875 1129.84375h29.84375"/><path d="M1953.789062 1129.84375h29.804688"/><path d="M1983.59375 1129.84375h29.84375"/><path d="M2073.085938 1129.84375h29.804687"/><path d="M2102.890625 1129.84375h29.804687"/><path d="M2192.34375 1129.84375h29.84375"/><path d="M2222.1875 1129.84375h29.804688"/><path d="M2311.640625 1129.84375h29.804687"/><path d="M2341.445312 1129.84375h29.84375"/><path d="M2430.9375 1129.84375h29.804688"/><path d="M2460.742188 1129.84375h29.84375"/><path d="M2550.195312 1129.84375h29.84375"/><path d="M2580.039062 1129.84375h29.804688"/><path d="M2669.492188 1129.84375h29.84375"/><path d="M2699.335938 1129.84375h29.804687"/><path d="M2788.789062 1129.84375h29.804688"/><path d="M2818.59375 1129.84375h29.84375"/><path d="M2908.085938 1129.84375h29.804687"/><path d="M2937.890625 1129.84375h29.84375"/><path d="M3027.34375 1129.84375h29.84375"/><path d="M3057.1875 1129.84375h29.804688"/><path d="M3146.640625 1129.84375h29.84375"/><path d="M3176.484375 1129.84375h29.804687"/><path d="M3265.9375 1129.84375h29.804688"/><path d="M3295.742188 1129.84375h29.84375"/><path d="M3385.234375 1129.84375h29.804687"/><path d="M3415.039062 1129.84375h29.804688"/><path d="M3504.492188 1129.84375h29.84375"/><path d="M3534.335938 1129.84375h29.804687"/><path d="M3623.789062 1129.84375h29.804688"/><path d="M3653.59375 1129.84375h29.84375"/><path d="M3743.085938 1129.84375h29.804687"/><path d="M3772.890625 1129.84375h29.84375"/><path d="M3862.382812 1129.84375h29.804688"/><path d="M671.445312 721.25h29.84375"/><path d="M760.898438 721.25h29.84375"/><path d="M790.742188 721.25h29.804687"/><path d="M880.195312 721.25h29.84375"/><path d="M910.039062 721.25h29.804688"/><path d="M999.453125 721.25h29.84375"/><path d="M1029.296875 721.25h29.804687"/><path d="M1118.75 721.25h29.84375"/><path d="M1148.59375 721.25h29.804688"/><path d="M1238.046875 721.25h29.804687"/><path d="M1267.851562 721.25h29.84375"/><path d="M1357.34375 721.25h29.804688"/><path d="M1387.148438 721.25h29.84375"/><path d="M1476.601562 721.25h29.84375"/><path d="M1506.445312 721.25h29.84375"/><path d="M1595.898438 721.25h29.84375"/><path d="M1625.742188 721.25h29.804687"/><path d="M1715.195312 721.25h29.84375"/><path d="M1745.039062 721.25h29.804688"/><path d="M1834.492188 721.25h29.804687"/><path d="M1864.296875 721.25h29.84375"/><path d="M1953.789062 721.25h29.804688"/><path d="M1983.59375 721.25h29.84375"/><path d="M2073.085938 721.25h29.804687"/><path d="M2102.890625 721.25h29.804687"/><path d="M2192.34375 721.25h29.84375"/><path d="M2222.1875 721.25h29.804688"/><path d="M2311.640625 721.25h29.804687"/><path d="M2341.445312 721.25h29.84375"/><path d="M2430.9375 721.25h29.804688"/><path d="M2460.742188 721.25h29.84375"/><path d="M2550.195312 721.25h29.84375"/><path d="M2580.039062 721.25h29.804688"/><path d="M2669.492188 721.25h29.84375"/><path d="M2699.335938 721.25h29.804687"/><path d="M2788.789062 721.25h29.804688"/><path d="M2818.59375 721.25h29.84375"/><path d="M2908.085938 721.25h29.804687"/><path d="M2937.890625 721.25h29.84375"/><path d="M3027.34375 721.25h29.84375"/><path d="M3057.1875 721.25h29.804688"/><path d="M3146.640625 721.25h29.84375"/><path d="M3176.484375 721.25h29.804687"/><path d="M3265.9375 721.25h29.804688"/><path d="M3295.742188 721.25h29.84375"/><path d="M3385.234375 721.25h29.804687"/><path d="M3415.039062 721.25h29.804688"/><path d="M3504.492188 721.25h29.84375"/><path d="M3534.335938 721.25h29.804687"/><path d="M3623.789062 721.25h29.804688"/><path d="M3653.59375 721.25h29.84375"/><path d="M3743.085938 721.25h29.804687"/><path d="M3772.890625 721.25h29.84375"/><path d="M3862.382812 721.25h29.804688"/></g><use x="6.482" y="62.214" href="#d"/><use x="9.9621" y="62.214" href="#c"/><use x="13.4422" y="62.214" href="#e"/><use x="26.0426" y="62.214" href="#i"/><use x="31.0824" y="62.214" href="#j"/><use x="38.2824" y="62.214" href="#k"/><use x="14.7617" y="73.1339" href="#b"/><use x="20.0418" y="73.1339" href="#f"/><use x="29.5219" y="73.1339" href="#g"/><use x="49.802" y="62.214" href="#h"/><use x="56.2821" y="64.014" href="#b"/><use x="11.5219" y="104.755" href="#d"/><use x="15.002" y="104.755" href="#c"/><use x="18.482" y="104.755" href="#e"/><use x="31.0824" y="104.755" href="#c"/><use x="34.5625" y="104.755" href="#l"/><use x="41.5227" y="104.755" href="#m"/><use x="17.1617" y="112.4351" href="#b"/><use x="22.4418" y="112.4351" href="#f"/><use x="31.9219" y="112.4351" href="#g"/><use x="49.802" y="104.755" href="#h"/><use x="56.2821" y="106.555" href="#b"/><path d="M677.851562 115.898438H3892.1875" class="c"/><path d="M67.5352 162.4219h.6016v6h-.6016zm0 0"/><path d="M73.9648 162.4219h.6016v6h-.6016zm0 0"/><path d="M80.3906 162.4219h.6016v6h-.6016zm0 0"/><path d="M86.8203 162.4219h.6016v6h-.6016zm0 0"/><path d="M93.25 162.4219h.6016v6H93.25zm0 0"/><path d="M99.6797 162.4219h.6016v6h-.6016zm0 0"/><path d="M106.1055 162.4219h.6016v6h-.6016zm0 0"/><path d="M112.5352 162.4219h.6016v6h-.6016zm0 0"/><path d="M118.9648 162.4219h.6016v6h-.6016zm0 0"/><path d="M125.3906 162.4219h.6016v6h-.6016zm0 0"/><path d="M131.8203 162.4219h.6016v6h-.6016zm0 0"/><path d="M138.25 162.4219h.6016v6h-.6016zm0 0"/><path d="M144.6797 162.4219h.6016v6h-.6016zm0 0"/><path d="M151.1055 162.4219h.6016v6h-.6016zm0 0"/><path d="M157.5352 162.4219h.6016v6h-.6016zm0 0"/><path d="M163.9648 162.4219h.6016v6h-.6016zm0 0"/><path d="M170.3945 162.4219h.6016v6h-.6016zm0 0"/><path d="M176.8203 162.4219h.6016v6h-.6016zm0 0"/><path d="M183.25 162.4219h.6016v6h-.6016zm0 0"/><path d="M189.6797 162.4219h.6016v6h-.6016zm0 0"/><path d="M196.1094 162.4219h.6016v6h-.6016zm0 0"/><path d="M202.5352 162.4219h.6016v6h-.6016zm0 0"/><path d="M208.9648 162.4219h.6016v6h-.6016zm0 0"/><path d="M215.3945 162.4219h.6016v6h-.6016zm0 0"/><path d="M221.8203 162.4219h.6016v6h-.6016zm0 0"/><path d="M228.25 162.4219h.6016v6h-.6016zm0 0"/><path d="M234.6797 162.4219h.6016v6h-.6016zm0 0"/><path d="M241.1094 162.4219h.6016v6h-.6016zm0 0"/><path d="M247.5352 162.4219h.6016v6h-.6016zm0 0"/><path d="M253.9648 162.4219h.6016v6h-.6016zm0 0"/><path d="M260.3945 162.4219h.6016v6h-.6016zm0 0"/><path d="M266.8203 162.4219h.6016v6h-.6016zm0 0"/><path d="M273.25 162.4219h.6016v6h-.6016zm0 0"/><path d="M279.6797 162.4219h.6016v6h-.6016zm0 0"/><path d="M286.1094 162.4219h.6016v6h-.6016zm0 0"/><path d="M292.5352 162.4219h.6016v6h-.6016zm0 0"/><path d="M298.9648 162.4219h.6016v6h-.6016zm0 0"/><path d="M305.3945 162.4219h.6016v6h-.6016zm0 0"/><path d="M311.8242 162.4219h.6016v6h-.6016zm0 0"/><path d="M318.2539 162.4219h.6016v6h-.6016zm0 0"/><path d="M324.6797 162.4219h.6016v6h-.6016zm0 0"/><path d="M331.1094 162.4219h.6016v6h-.6016zm0 0"/><path d="M337.5391 162.4219h.6016v6h-.6016zm0 0"/><path d="M343.9688 162.4219h.6016v6h-.6016zm0 0"/><path d="M350.3945 162.4219h.6016v6h-.6016zm0 0"/><path d="M356.8242 162.4219h.6016v6h-.6016zm0 0"/><path d="M363.2539 162.4219h.6016v6h-.6016zm0 0"/><path d="M369.6836 162.4219h.6016v6h-.6016zm0 0"/><path d="M376.1094 162.4219h.6016v6h-.6016zm0 0"/><path d="M382.5391 162.4219h.6016v6h-.6016zm0 0"/><path d="M388.9688 162.4219h.6016v6h-.6016zm0 0"/><path d="M677.851562 115.898438v1645.703124" class="c"/><path d="M64.7734 165.0625h6v.6016h-6zm0 0"/><path d="M64.7734 82.7773h6v.6016h-6zm0 0"/><path d="M64.7734.4883h6v.6016h-6zm0 0"/><g class="a"><path d="M749.648438 1481.992188c0 4.140624-3.359376 7.5-7.5 7.5-4.101563 0-7.460938-3.359376-7.460938-7.5 0-4.101563 3.359375-7.460938 7.460938-7.460938 4.140624 0 7.5 3.359375 7.5 7.460938zm0 0"/><path d="M757.109375 1633.59375c0 8.28125-6.71875 14.960938-14.960937 14.960938-8.242188 0-14.921876-6.679688-14.921876-14.960938 0-8.242188 6.679688-14.921875 14.921876-14.921875 8.242187 0 14.960937 6.679687 14.960937 14.921875zm0 0" class="b"/></g><use x="70.975" y="164.5191" href="#a"/><g class="a"><path d="M813.90625 789.0625c0 4.101562-3.359375 7.460938-7.460938 7.460938-4.140624 0-7.5-3.359376-7.5-7.460938 0-4.140625 3.359376-7.5 7.5-7.5 4.101563 0 7.460938 3.359375 7.460938 7.5zm0 0"/><path d="M821.367188 1633.59375c0 8.28125-6.679688 14.960938-14.921876 14.960938-8.28125 0-14.960937-6.679688-14.960937-14.960938 0-8.242188 6.679687-14.921875 14.960937-14.921875 8.242188 0 14.921876 6.679687 14.921876 14.921875zm0 0" class="b"/></g><use x="77.4039" y="164.5191" href="#a"/><g class="a"><path d="M878.203125 497.304688c0 4.140624-3.359375 7.460937-7.5 7.460937-4.101563 0-7.460937-3.320313-7.460937-7.460937 0-4.140626 3.359374-7.460938 7.460937-7.460938 4.140625 0 7.5 3.320312 7.5 7.460938zm0 0"/><path d="M885.664062 1633.59375c0 8.28125-6.679687 14.960938-14.960937 14.960938-8.242187 0-14.921875-6.679688-14.921875-14.960938 0-8.242188 6.679688-14.921875 14.921875-14.921875 8.28125 0 14.960937 6.679687 14.960937 14.921875zm0 0" class="b"/></g><use x="83.832" y="164.5191" href="#a"/><g class="a"><path d="M942.460938 1633.59375c0 4.140625-3.320313 7.5-7.460938 7.5-4.101562 0-7.460938-3.359375-7.460938-7.5 0-4.101562 3.359376-7.460938 7.460938-7.460938 4.140625 0 7.460938 3.359376 7.460938 7.460938zm0 0"/><path d="M949.960938 1633.59375c0 8.28125-6.679688 14.960938-14.960938 14.960938-8.242188 0-14.921875-6.679688-14.921875-14.960938 0-8.242188 6.679687-14.921875 14.921875-14.921875 8.28125 0 14.960938 6.679687 14.960938 14.921875zm0 0" class="b"/></g><use x="90.2609" y="164.5191" href="#a"/><g class="a"><path d="M1006.796875 996.601562c0 4.101563-3.359375 7.460938-7.5 7.460938-4.101563 0-7.460937-3.359375-7.460937-7.460938 0-4.140624 3.359374-7.5 7.460937-7.5 4.140625 0 7.5 3.359376 7.5 7.5zm0 0"/><path d="M1014.257812 1546.875c0 8.242188-6.679687 14.921875-14.960937 14.921875-8.242187 0-14.921875-6.679687-14.921875-14.921875 0-8.28125 6.679688-14.960938 14.921875-14.960938 8.28125 0 14.960937 6.679688 14.960937 14.960938zm0 0" class="b"/></g><use x="96.691" y="164.5191" href="#a"/><g class="a"><path d="M1071.054688 233.632812c0 4.140626-3.359376 7.460938-7.460938 7.460938-4.140625 0-7.460938-3.320312-7.460938-7.460938 0-4.101562 3.320313-7.460937 7.460938-7.460937 4.101562 0 7.460938 3.359375 7.460938 7.460937zm0 0"/><path d="M1078.515625 1546.875c0 8.242188-6.679687 14.921875-14.921875 14.921875s-14.960938-6.679687-14.960938-14.921875c0-8.28125 6.71875-14.960938 14.960938-14.960938s14.921875 6.679688 14.921875 14.960938zm0 0" class="b"/></g><use x="103.119" y="164.5191" href="#a"/><g class="a"><path d="M1135.351562 159.296875c0 4.140625-3.359374 7.460937-7.5 7.460937-4.101562 0-7.460937-3.320312-7.460937-7.460937s3.359375-7.460937 7.460937-7.460937c4.140626 0 7.5 3.320312 7.5 7.460937zm0 0"/><path d="M1142.8125 1546.875c0 8.242188-6.679688 14.921875-14.960938 14.921875-8.242187 0-14.921874-6.679687-14.921874-14.921875 0-8.28125 6.679687-14.960938 14.921874-14.960938 8.28125 0 14.960938 6.679688 14.960938 14.960938zm0 0" class="b"/></g><use x="109.547" y="164.5191" href="#a"/><g class="a"><path d="M1199.648438 529.0625c0 4.140625-3.359376 7.5-7.5 7.5-4.101563 0-7.460938-3.359375-7.460938-7.5 0-4.101562 3.359375-7.460938 7.460938-7.460938 4.140624 0 7.5 3.359376 7.5 7.460938zm0 0"/><path d="M1207.109375 1546.875c0 8.242188-6.71875 14.921875-14.960937 14.921875-8.242188 0-14.921876-6.679687-14.921876-14.921875 0-8.28125 6.679688-14.960938 14.921876-14.960938 8.242187 0 14.960937 6.679688 14.960937 14.960938zm0 0" class="b"/></g><use x="115.976" y="154.041" href="#a"/><g class="a"><path d="M1263.90625 1251.132812c0 4.140626-3.320312 7.5-7.460938 7.5-4.140624 0-7.460937-3.359374-7.460937-7.5 0-4.101562 3.320313-7.460937 7.460937-7.460937 4.140626 0 7.460938 3.359375 7.460938 7.460937zm0 0"/><path d="M1271.40625 1546.875c0 8.242188-6.71875 14.921875-14.960938 14.921875-8.242187 0-14.960937-6.679687-14.960937-14.921875 0-8.28125 6.71875-14.960938 14.960937-14.960938 8.242188 0 14.960938 6.679688 14.960938 14.960938zm0 0" class="b"/></g><use x="122.404" y="154.041" href="#a"/><g class="a"><path d="M1328.203125 386.640625c0 4.140625-3.359375 7.5-7.460937 7.5-4.140626 0-7.5-3.359375-7.5-7.5 0-4.101563 3.359374-7.460937 7.5-7.460937 4.101562 0 7.460937 3.359374 7.460937 7.460937zm0 0"/><path d="M1335.664062 1546.875c0 8.242188-6.679687 14.921875-14.921874 14.921875-8.28125 0-14.960938-6.679687-14.960938-14.921875 0-8.28125 6.679688-14.960938 14.960938-14.960938 8.242187 0 14.921874 6.679688 14.921874 14.960938zm0 0" class="b"/></g><use x="128.832" y="154.041" href="#a"/><g class="a"><path d="M1392.5 264.101562c0 4.101563-3.359375 7.460938-7.460938 7.460938-4.140624 0-7.5-3.359375-7.5-7.460938 0-4.140624 3.359376-7.5 7.5-7.5 4.101563 0 7.460938 3.359376 7.460938 7.5zm0 0"/><path d="M1399.960938 1546.875c0 8.242188-6.679688 14.921875-14.921876 14.921875-8.28125 0-14.960937-6.679687-14.960937-14.921875 0-8.28125 6.679687-14.960938 14.960937-14.960938 8.242188 0 14.921876 6.679688 14.921876 14.960938zm0 0" class="b"/></g><use x="135.262" y="154.041" href="#a"/><g class="a"><path d="M1456.796875 781.757812c0 4.140626-3.359375 7.460938-7.5 7.460938-4.101563 0-7.460937-3.320312-7.460937-7.460938 0-4.140624 3.359374-7.460937 7.460937-7.460937 4.140625 0 7.5 3.320313 7.5 7.460937zm0 0"/><path d="M1464.257812 1546.875c0 8.242188-6.679687 14.921875-14.960937 14.921875-8.242187 0-14.921875-6.679687-14.921875-14.921875 0-8.28125 6.679688-14.960938 14.921875-14.960938 8.28125 0 14.960937 6.679688 14.960937 14.960938zm0 0" class="b"/></g><use x="141.691" y="147.548" href="#a"/><g class="a"><path d="M1521.054688 1491.328125c0 4.101563-3.320313 7.460937-7.460938 7.460937s-7.460938-3.359374-7.460938-7.460937c0-4.140625 3.320313-7.5 7.460938-7.5s7.460938 3.359375 7.460938 7.5zm0 0"/><path d="M1528.554688 1546.875c0 8.242188-6.71875 14.921875-14.960938 14.921875s-14.960938-6.679687-14.960938-14.921875c0-8.28125 6.71875-14.960938 14.960938-14.960938s14.960938 6.679688 14.960938 14.960938zm0 0" class="b"/></g><use x="148.119" y="147.548" href="#a"/><g class="a"><path d="M1585.351562 1375.820312c0 4.101563-3.359374 7.460938-7.460937 7.460938-4.140625 0-7.5-3.359375-7.5-7.460938 0-4.140624 3.359375-7.460937 7.5-7.460937 4.101563 0 7.460937 3.320313 7.460937 7.460937zm0 0"/><path d="M1592.8125 1546.875c0 8.242188-6.679688 14.921875-14.921875 14.921875-8.28125 0-14.960937-6.679687-14.960937-14.921875 0-8.28125 6.679687-14.960938 14.960937-14.960938 8.242187 0 14.921875 6.679688 14.921875 14.960938zm0 0" class="b"/></g><use x="154.547" y="147.548" href="#a"/><g class="a"><path d="M1649.648438 413.085938c0 4.140624-3.359376 7.460937-7.460938 7.460937-4.140625 0-7.5-3.320313-7.5-7.460937 0-4.140626 3.359375-7.460938 7.5-7.460938 4.101562 0 7.460938 3.320312 7.460938 7.460938zm0 0"/><path d="M1657.109375 1546.875c0 8.242188-6.679687 14.921875-14.921875 14.921875-8.28125 0-14.960938-6.679687-14.960938-14.921875 0-8.28125 6.679688-14.960938 14.960938-14.960938 8.242188 0 14.921875 6.679688 14.921875 14.960938zm0 0" class="b"/></g><use x="160.977" y="147.548" href="#a"/><g class="a"><path d="M1713.90625 1433.164062c0 4.140626-3.320312 7.5-7.460938 7.5-4.140624 0-7.460937-3.359374-7.460937-7.5 0-4.101562 3.320313-7.460937 7.460937-7.460937 4.140626 0 7.460938 3.359375 7.460938 7.460937zm0 0"/><path d="M1721.40625 1546.875c0 8.242188-6.71875 14.921875-14.960938 14.921875-8.242187 0-14.921874-6.679687-14.921874-14.921875 0-8.28125 6.679687-14.960938 14.921874-14.960938 8.242188 0 14.960938 6.679688 14.960938 14.960938zm0 0" class="b"/></g><use x="167.405" y="147.548" href="#a"/><g class="a"><path d="M1778.203125 637.65625c0 4.140625-3.359375 7.5-7.460937 7.5-4.140626 0-7.5-3.359375-7.5-7.5 0-4.101562 3.359374-7.460938 7.5-7.460938 4.101562 0 7.460937 3.359376 7.460937 7.460938zm0 0"/><path d="M1785.664062 1546.875c0 8.242188-6.679687 14.921875-14.921874 14.921875-8.28125 0-14.960938-6.679687-14.960938-14.921875 0-8.28125 6.679688-14.960938 14.960938-14.960938 8.242187 0 14.921874 6.679688 14.921874 14.960938zm0 0" class="b"/></g><use x="173.833" y="147.548" href="#a"/><g class="a"><path d="M1842.5 930.351562c0 4.140626-3.359375 7.460938-7.460938 7.460938-4.140624 0-7.5-3.320312-7.5-7.460938 0-4.140624 3.359376-7.460937 7.5-7.460937 4.101563 0 7.460938 3.320313 7.460938 7.460937zm0 0"/><path d="M1849.960938 1546.875c0 8.242188-6.679688 14.921875-14.921876 14.921875-8.28125 0-14.960937-6.679687-14.960937-14.921875 0-8.28125 6.679687-14.960938 14.960937-14.960938 8.242188 0 14.921876 6.679688 14.921876 14.960938zm0 0" class="b"/></g><use x="180.262" y="147.548" href="#a"/><g class="a"><path d="M1906.796875 995.234375c0 4.140625-3.359375 7.460937-7.460937 7.460937-4.140626 0-7.5-3.320312-7.5-7.460937 0-4.101563 3.359374-7.460937 7.5-7.460937 4.101562 0 7.460937 3.359374 7.460937 7.460937zm0 0"/><path d="M1914.257812 1546.875c0 8.242188-6.679687 14.921875-14.921874 14.921875-8.28125 0-14.960938-6.679687-14.960938-14.921875 0-8.28125 6.679688-14.960938 14.960938-14.960938 8.242187 0 14.921874 6.679688 14.921874 14.960938zm0 0" class="b"/></g><use x="186.692" y="147.548" href="#a"/><g class="a"><path d="M1971.054688 820c0 4.101562-3.320313 7.460938-7.460938 7.460938s-7.460938-3.359376-7.460938-7.460938c0-4.140625 3.320313-7.460938 7.460938-7.460938s7.460938 3.320313 7.460938 7.460938zm0 0"/><path d="M1978.554688 1546.875c0 8.242188-6.71875 14.921875-14.960938 14.921875s-14.921875-6.679687-14.921875-14.921875c0-8.28125 6.679687-14.960938 14.921875-14.960938s14.960938 6.679688 14.960938 14.960938zm0 0" class="b"/></g><use x="193.12" y="147.548" href="#a"/><g class="a"><path d="M2035.351562 484.882812c0 4.140626-3.359374 7.5-7.460937 7.5-4.140625 0-7.5-3.359374-7.5-7.5 0-4.101562 3.359375-7.460937 7.5-7.460937 4.101563 0 7.460937 3.359375 7.460937 7.460937zm0 0"/><path d="M2042.8125 1546.875c0 8.242188-6.679688 14.921875-14.921875 14.921875s-14.960937-6.679687-14.960937-14.921875c0-8.28125 6.71875-14.960938 14.960937-14.960938s14.921875 6.679688 14.921875 14.960938zm0 0" class="b"/></g><use x="199.548" y="147.548" href="#a"/><g class="a"><path d="M2099.648438 610.703125c0 4.101563-3.359376 7.460937-7.460938 7.460937-4.140625 0-7.5-3.359374-7.5-7.460937 0-4.140625 3.359375-7.5 7.5-7.5 4.101562 0 7.460938 3.359375 7.460938 7.5zm0 0"/><path d="M2107.109375 1546.875c0 8.242188-6.679687 14.921875-14.921875 14.921875-8.28125 0-14.960938-6.679687-14.960938-14.921875 0-8.28125 6.679688-14.960938 14.960938-14.960938 8.242188 0 14.921875 6.679688 14.921875 14.960938zm0 0" class="b"/></g><use x="205.977" y="147.548" href="#a"/><g class="a"><path d="M2163.945312 798.828125c0 4.101563-3.359374 7.460937-7.5 7.460937-4.101562 0-7.460937-3.359374-7.460937-7.460937 0-4.140625 3.359375-7.5 7.460937-7.5 4.140626 0 7.5 3.359375 7.5 7.5zm0 0"/><path d="M2171.40625 1546.875c0 8.242188-6.679688 14.921875-14.960938 14.921875-8.242187 0-14.921874-6.679687-14.921874-14.921875 0-8.28125 6.679687-14.960938 14.921874-14.960938 8.28125 0 14.960938 6.679688 14.960938 14.960938zm0 0" class="b"/></g><use x="212.405" y="147.548" href="#a"/><g class="a"><path d="M2228.203125 841.914062c0 4.140626-3.359375 7.5-7.460937 7.5-4.140626 0-7.460938-3.359374-7.460938-7.5 0-4.101562 3.320312-7.460937 7.460938-7.460937 4.101562 0 7.460937 3.359375 7.460937 7.460937zm0 0"/><path d="M2235.664062 1546.875c0 8.242188-6.679687 14.921875-14.921874 14.921875-8.28125 0-14.960938-6.679687-14.960938-14.921875 0-8.28125 6.679688-14.960938 14.960938-14.960938 8.242187 0 14.921874 6.679688 14.921874 14.960938zm0 0" class="b"/></g><use x="218.834" y="147.548" href="#a"/><g class="a"><path d="M2292.5 1546.875c0 4.101562-3.359375 7.460938-7.460938 7.460938-4.140624 0-7.460937-3.359376-7.460937-7.460938 0-4.140625 3.320313-7.5 7.460937-7.5 4.101563 0 7.460938 3.359375 7.460938 7.5zm0 0"/><path d="M2299.960938 1546.875c0 8.242188-6.679688 14.921875-14.921876 14.921875-8.242187 0-14.960937-6.679687-14.960937-14.921875 0-8.28125 6.71875-14.960938 14.960937-14.960938 8.242188 0 14.921876 6.679688 14.921876 14.960938zm0 0" class="b"/></g><use x="225.263" y="147.548" href="#a"/><g class="a"><path d="M2356.796875 1428.28125c0 4.101562-3.359375 7.460938-7.460937 7.460938-4.140626 0-7.5-3.359376-7.5-7.460938 0-4.140625 3.359374-7.5 7.5-7.5 4.101562 0 7.460937 3.359375 7.460937 7.5zm0 0"/><path d="M2364.257812 1517.851562c0 8.242188-6.679687 14.960938-14.921874 14.960938-8.28125 0-14.960938-6.71875-14.960938-14.960938 0-8.242187 6.679688-14.921874 14.960938-14.921874 8.242187 0 14.921874 6.679687 14.921874 14.921874zm0 0" class="b"/></g><use x="231.692" y="147.548" href="#a"/><g class="a"><path d="M2421.054688 329.023438c0 4.101562-3.320313 7.460937-7.460938 7.460937-4.101562 0-7.460938-3.359375-7.460938-7.460937 0-4.140626 3.359376-7.5 7.460938-7.5 4.140625 0 7.460938 3.359374 7.460938 7.5zm0 0"/><path d="M2428.554688 1517.851562c0 8.242188-6.679688 14.960938-14.960938 14.960938-8.242188 0-14.921875-6.71875-14.921875-14.960938 0-8.242187 6.679687-14.921874 14.921875-14.921874 8.28125 0 14.960938 6.679687 14.960938 14.921874zm0 0" class="b"/></g><use x="238.12" y="147.548" href="#a"/><g class="a"><path d="M2485.351562 794.492188c0 4.140624-3.359374 7.460937-7.460937 7.460937-4.140625 0-7.5-3.320313-7.5-7.460937 0-4.101563 3.359375-7.460938 7.5-7.460938 4.101563 0 7.460937 3.359375 7.460937 7.460938zm0 0"/><path d="M2492.8125 1517.851562c0 8.242188-6.679688 14.960938-14.921875 14.960938s-14.921875-6.71875-14.921875-14.960938c0-8.242187 6.679688-14.921874 14.921875-14.921874s14.921875 6.679687 14.921875 14.921874zm0 0" class="b"/></g><use x="244.548" y="139.4059" href="#a"/><g class="a"><path d="M2549.648438 647.578125c0 4.101563-3.359376 7.460937-7.460938 7.460937-4.140625 0-7.460938-3.359374-7.460938-7.460937 0-4.140625 3.320313-7.460937 7.460938-7.460937 4.101562 0 7.460938 3.320312 7.460938 7.460937zm0 0"/><path d="M2557.109375 1517.851562c0 8.242188-6.679687 14.960938-14.921875 14.960938s-14.960938-6.71875-14.960938-14.960938c0-8.242187 6.71875-14.921874 14.960938-14.921874s14.921875 6.679687 14.921875 14.921874zm0 0" class="b"/></g><use x="250.978" y="139.4059" href="#a"/><g class="a"><path d="M2613.945312 410.429688c0 4.140624-3.359374 7.460937-7.5 7.460937-4.101562 0-7.460937-3.320313-7.460937-7.460937 0-4.101563 3.359375-7.460938 7.460937-7.460938 4.140626 0 7.5 3.359375 7.5 7.460938zm0 0"/><path d="M2621.40625 1517.851562c0 8.242188-6.679688 14.960938-14.960938 14.960938-8.242187 0-14.921874-6.71875-14.921874-14.960938 0-8.242187 6.679687-14.921874 14.921874-14.921874 8.28125 0 14.960938 6.679687 14.960938 14.921874zm0 0" class="b"/></g><use x="257.406" y="139.4059" href="#a"/><g class="a"><path d="M2678.203125 1517.851562c0 4.140626-3.320313 7.460938-7.460937 7.460938-4.140626 0-7.460938-3.320312-7.460938-7.460938 0-4.140624 3.320312-7.460937 7.460938-7.460937 4.140624 0 7.460937 3.320313 7.460937 7.460937zm0 0"/><path d="M2685.664062 1517.851562c0 8.242188-6.679687 14.960938-14.921874 14.960938-8.242188 0-14.960938-6.71875-14.960938-14.960938 0-8.242187 6.71875-14.921874 14.960938-14.921874 8.242187 0 14.921874 6.679687 14.921874 14.921874zm0 0" class="b"/></g><use x="263.834" y="123.9289" href="#a"/><g class="a"><path d="M2742.5 1232.421875c0 4.140625-3.359375 7.460937-7.460938 7.460937-4.140624 0-7.460937-3.320312-7.460937-7.460937 0-4.101563 3.320313-7.460937 7.460937-7.460937 4.101563 0 7.460938 3.359374 7.460938 7.460937zm0 0"/><path d="M2749.960938 1460.664062c0 8.242188-6.679688 14.921876-14.921876 14.921876-8.242187 0-14.960937-6.679688-14.960937-14.921876 0-8.28125 6.71875-14.960937 14.960937-14.960937 8.242188 0 14.921876 6.679687 14.921876 14.960937zm0 0" class="b"/></g><use x="270.264" y="123.9289" href="#a"/><g class="a"><path d="M2806.796875 926.992188c0 4.140624-3.359375 7.460937-7.460937 7.460937-4.140626 0-7.460938-3.320313-7.460938-7.460937 0-4.140626 3.320312-7.460938 7.460938-7.460938 4.101562 0 7.460937 3.320312 7.460937 7.460938zm0 0"/><path d="M2814.257812 1460.664062c0 8.242188-6.679687 14.921876-14.921874 14.921876-8.28125 0-14.960938-6.679688-14.960938-14.921876 0-8.28125 6.679688-14.960937 14.960938-14.960937 8.242187 0 14.921874 6.679687 14.921874 14.960937zm0 0" class="b"/></g><use x="276.693" y="123.9289" href="#a"/><g class="a"><path d="M2871.09375 1333.125c0 4.140625-3.359375 7.5-7.5 7.5-4.101562 0-7.460938-3.359375-7.460938-7.5 0-4.101562 3.359376-7.460938 7.460938-7.460938 4.140625 0 7.5 3.359376 7.5 7.460938zm0 0"/><path d="M2878.554688 1460.664062c0 8.242188-6.679688 14.921876-14.960938 14.921876-8.242188 0-14.921875-6.679688-14.921875-14.921876 0-8.28125 6.679687-14.960937 14.921875-14.960937 8.28125 0 14.960938 6.679687 14.960938 14.960937zm0 0" class="b"/></g><use x="283.121" y="123.9289" href="#a"/><g class="a"><path d="M2935.351562 1142.304688c0 4.140624-3.320312 7.460937-7.460937 7.460937-4.101563 0-7.460937-3.320313-7.460937-7.460937 0-4.140626 3.359374-7.460938 7.460937-7.460938 4.140625 0 7.460937 3.320312 7.460937 7.460938zm0 0"/><path d="M2942.8125 1460.664062c0 8.242188-6.679688 14.921876-14.921875 14.921876s-14.921875-6.679688-14.921875-14.921876c0-8.28125 6.679688-14.960937 14.921875-14.960937s14.921875 6.679687 14.921875 14.960937zm0 0" class="b"/></g><use x="289.549" y="123.9289" href="#a"/><g class="a"><path d="M2999.648438 1130.585938c0 4.140624-3.320313 7.460937-7.460938 7.460937s-7.460938-3.320313-7.460938-7.460937c0-4.140626 3.320313-7.460938 7.460938-7.460938s7.460938 3.320312 7.460938 7.460938zm0 0"/><path d="M3007.148438 1460.664062c0 8.242188-6.71875 14.921876-14.960938 14.921876s-14.960938-6.679688-14.960938-14.921876c0-8.28125 6.71875-14.960937 14.960938-14.960937s14.960938 6.679687 14.960938 14.960937zm0 0" class="b"/></g><use x="295.979" y="123.9289" href="#a"/><g class="a"><path d="M3063.945312 1383.320312c0 4.140626-3.359374 7.460938-7.5 7.460938-4.101562 0-7.460937-3.320312-7.460937-7.460938 0-4.101562 3.359375-7.460937 7.460937-7.460937 4.140626 0 7.5 3.359375 7.5 7.460937zm0 0"/><path d="M3071.40625 1460.664062c0 8.242188-6.679688 14.921876-14.960938 14.921876-8.242187 0-14.921874-6.679688-14.921874-14.921876 0-8.28125 6.679687-14.960937 14.921874-14.960937 8.28125 0 14.960938 6.679687 14.960938 14.960937zm0 0" class="b"/></g><use x="302.407" y="123.9289" href="#a"/><g class="a"><path d="M3128.203125 1138.515625c0 4.101563-3.320313 7.460937-7.460937 7.460937-4.140626 0-7.460938-3.359374-7.460938-7.460937 0-4.140625 3.320312-7.5 7.460938-7.5 4.140624 0 7.460937 3.359375 7.460937 7.5zm0 0"/><path d="M3135.703125 1460.664062c0 8.242188-6.71875 14.921876-14.960937 14.921876-8.242188 0-14.921876-6.679688-14.921876-14.921876 0-8.28125 6.679688-14.960937 14.921876-14.960937 8.242187 0 14.960937 6.679687 14.960937 14.960937zm0 0" class="b"/></g><use x="308.835" y="123.9289" href="#a"/><g class="a"><path d="M3192.5 1394.960938c0 4.140624-3.320312 7.5-7.460938 7.5-4.140624 0-7.460937-3.359376-7.460937-7.5 0-4.101563 3.320313-7.460938 7.460937-7.460938 4.140626 0 7.460938 3.359375 7.460938 7.460938zm0 0"/><path d="M3199.960938 1460.664062c0 8.242188-6.679688 14.921876-14.921876 14.921876-8.242187 0-14.921874-6.679688-14.921874-14.921876 0-8.28125 6.679687-14.960937 14.921874-14.960937 8.242188 0 14.921876 6.679687 14.921876 14.960937zm0 0" class="b"/></g><use x="315.264" y="123.9289" href="#a"/><g class="a"><path d="M3256.796875 1031.835938c0 4.140624-3.320313 7.460937-7.460937 7.460937-4.140626 0-7.460938-3.320313-7.460938-7.460937 0-4.140626 3.320312-7.460938 7.460938-7.460938 4.140624 0 7.460937 3.320312 7.460937 7.460938zm0 0"/><path d="M3264.296875 1460.664062c0 8.242188-6.71875 14.921876-14.960937 14.921876-8.242188 0-14.960938-6.679688-14.960938-14.921876 0-8.28125 6.71875-14.960937 14.960938-14.960937 8.242187 0 14.960937 6.679687 14.960937 14.960937zm0 0" class="b"/></g><use x="321.693" y="123.9289" href="#a"/><g class="a"><path d="M3321.09375 878.4375c0 4.140625-3.359375 7.460938-7.460938 7.460938-4.140624 0-7.5-3.320313-7.5-7.460938s3.359376-7.460938 7.5-7.460938c4.101563 0 7.460938 3.320313 7.460938 7.460938zm0 0"/><path d="M3328.554688 1460.664062c0 8.242188-6.679688 14.921876-14.921876 14.921876-8.28125 0-14.960937-6.679688-14.960937-14.921876 0-8.28125 6.679687-14.960937 14.960937-14.960937 8.242188 0 14.921876 6.679687 14.921876 14.960937zm0 0" class="b"/></g><use x="328.121" y="123.9289" href="#a"/><g class="a"><path d="M3385.351562 1035.976562c0 4.140626-3.320312 7.460938-7.460937 7.460938-4.101563 0-7.460937-3.320312-7.460937-7.460938 0-4.140624 3.359374-7.460937 7.460937-7.460937 4.140625 0 7.460937 3.320313 7.460937 7.460937zm0 0"/><path d="M3392.851562 1460.664062c0 8.242188-6.71875 14.921876-14.960937 14.921876s-14.921875-6.679688-14.921875-14.921876c0-8.28125 6.679688-14.960937 14.921875-14.960937s14.960937 6.679687 14.960937 14.960937zm0 0" class="b"/></g><use x="334.55" y="123.9289" href="#a"/><g class="a"><path d="M3449.648438 1460.664062c0 4.101563-3.320313 7.460938-7.460938 7.460938s-7.460938-3.359375-7.460938-7.460938c0-4.140624 3.320313-7.5 7.460938-7.5s7.460938 3.359376 7.460938 7.5zm0 0"/><path d="M3457.148438 1460.664062c0 8.242188-6.71875 14.921876-14.960938 14.921876s-14.921875-6.679688-14.921875-14.921876c0-8.28125 6.679687-14.960937 14.921875-14.960937s14.960938 6.679687 14.960938 14.960937zm0 0" class="b"/></g><use x="340.979" y="123.9289" href="#a"/><g class="a"><path d="M3513.945312 741.71875c0 4.140625-3.359374 7.460938-7.460937 7.460938-4.140625 0-7.5-3.320313-7.5-7.460938 0-4.101562 3.359375-7.460938 7.5-7.460938 4.101563 0 7.460937 3.359376 7.460937 7.460938zm0 0"/><path d="M3521.40625 1339.765625c0 8.242187-6.679688 14.921875-14.921875 14.921875-8.28125 0-14.960937-6.679688-14.960937-14.921875s6.679687-14.960937 14.960937-14.960937c8.242187 0 14.921875 6.71875 14.921875 14.960937zm0 0" class="b"/></g><use x="347.407" y="123.9289" href="#a"/><g class="a"><path d="M3578.242188 815.46875c0 4.140625-3.359376 7.460938-7.5 7.460938-4.101563 0-7.460938-3.320313-7.460938-7.460938 0-4.101562 3.359375-7.460938 7.460938-7.460938 4.140624 0 7.5 3.359376 7.5 7.460938zm0 0"/><path d="M3585.703125 1339.765625c0 8.242187-6.679687 14.921875-14.960937 14.921875-8.242188 0-14.921876-6.679688-14.921876-14.921875s6.679688-14.960937 14.921876-14.960937c8.28125 0 14.960937 6.71875 14.960937 14.960937zm0 0" class="b"/></g><use x="353.836" y="123.9289" href="#a"/><g class="a"><path d="M3642.539062 1205.351562c0 4.101563-3.359374 7.460938-7.5 7.460938-4.101562 0-7.460937-3.359375-7.460937-7.460938 0-4.140624 3.359375-7.5 7.460937-7.5 4.140626 0 7.5 3.359376 7.5 7.5zm0 0"/><path d="M3650 1339.765625c0 8.242187-6.71875 14.921875-14.960938 14.921875-8.242187 0-14.921874-6.679688-14.921874-14.921875s6.679687-14.960937 14.921874-14.960937c8.242188 0 14.960938 6.71875 14.960938 14.960937zm0 0" class="b"/></g><use x="360.265" y="123.9289" href="#a"/><g class="a"><path d="M3706.796875 1244.765625c0 4.140625-3.320313 7.460937-7.460937 7.460937-4.140626 0-7.460938-3.320312-7.460938-7.460937s3.320312-7.460937 7.460938-7.460937c4.140624 0 7.460937 3.320312 7.460937 7.460937zm0 0"/><path d="M3714.296875 1339.765625c0 8.242187-6.71875 14.921875-14.960937 14.921875-8.242188 0-14.921876-6.679688-14.921876-14.921875s6.679688-14.960937 14.921876-14.960937c8.242187 0 14.960937 6.71875 14.960937 14.960937zm0 0" class="b"/></g><use x="366.694" y="123.9289" href="#a"/><g class="a"><path d="M3771.09375 743.4375c0 4.140625-3.359375 7.460938-7.460938 7.460938-4.140624 0-7.5-3.320313-7.5-7.460938s3.359376-7.460938 7.5-7.460938c4.101563 0 7.460938 3.320313 7.460938 7.460938zm0 0"/><path d="M3778.554688 1339.765625c0 8.242187-6.679688 14.921875-14.921876 14.921875-8.28125 0-14.960937-6.679688-14.960937-14.921875s6.679687-14.960937 14.960937-14.960937c8.242188 0 14.921876 6.71875 14.921876 14.960937zm0 0" class="b"/></g><use x="373.122" y="123.9289" href="#a"/><g class="a"><path d="M3835.390625 682.460938c0 4.140624-3.359375 7.460937-7.5 7.460937-4.101563 0-7.460937-3.320313-7.460937-7.460937 0-4.101563 3.359374-7.460938 7.460937-7.460938 4.140625 0 7.5 3.359375 7.5 7.460938zm0 0"/><path d="M3842.851562 1339.765625c0 8.242187-6.679687 14.921875-14.960937 14.921875-8.242187 0-14.921875-6.679688-14.921875-14.921875s6.679688-14.960937 14.921875-14.960937c8.28125 0 14.960937 6.71875 14.960937 14.960937zm0 0" class="b"/></g><use x="379.55" y="123.9289" href="#a"/><g class="a"><path d="M3899.6875 772.96875c0 4.101562-3.359375 7.460938-7.5 7.460938-4.101562 0-7.460938-3.359376-7.460938-7.460938 0-4.140625 3.359376-7.5 7.460938-7.5 4.140625 0 7.5 3.359375 7.5 7.5zm0 0"/><path d="M3907.148438 1339.765625c0 8.242187-6.679688 14.921875-14.960938 14.921875-8.242188 0-14.921875-6.679688-14.921875-14.921875s6.679687-14.960937 14.921875-14.960937c8.28125 0 14.960938 6.71875 14.960938 14.960937zm0 0" class="b"/></g><use x="385.98" y="123.9289" href="#a"/><style>.a{stroke:#000;stroke-miterlimit:10;stroke-width:3.985;transform:matrix(.1,0,0,-.1,0,177)}.b{fill:none}.c{fill:none;stroke:#000;stroke-miterlimit:10;stroke-width:3.985;transform:matrix(.1,0,0,-.1,0,177)}</style></svg>