<svg xmlns="http://www.w3.org/2000/svg" width="332pt" height="183pt" viewBox="0 0 332 183"><defs><path d="M3.2344.0313v-.3594l-.5469-.0313C2.28125-.375 2.25-.46875 2.25-1.21875v-7.3594l-.1094-.0937c-.53125.203125-.921875.296875-1.859375.4375v.3281H.9375c.21875 0 .3125.140625.3125.5v6.1875c0 .75-.046875.84375-.453125.859375L.25-.3281v.3594C.75.015625 1.25 0 1.75 0s.984375.015625 1.484375.03125zm0 0" id="d"/><path d="M3.2344.0313v-.3594l-.5469-.0313C2.28125-.375 2.25-.46875 2.25-1.21875V-5.5625l-.1094-.0469c-.609375.25-1.234375.421875-1.859375.5v.3281h.4375c.46875 0 .53125.078125.53125.875v2.6875c0 .75-.046875.84375-.453125.859375L.25-.3281v.3594C.75.015625 1.25 0 1.75 0s.984375.015625 1.484375.03125zm-.8906-7.6407c0-.34375-.234375-.609375-.59375-.609375s-.609375.25-.609375.609375.25.59375.609375.59375.59375-.234375.59375-.59375zm0 0" id="c"/><path d="M10.3906.0313v-.3594l-.5625-.0312c-.40625-.015625-.4375-.109375-.4375-.859375V-3.6875c0-1.171875-.703125-1.921875-1.796875-1.921875-.421875 0-.765625.109375-.984375.296875l-.9062.8125C5.3125-5.28125 4.828125-5.609375 4-5.609375c-.4375 0-.765625.109375-.984375.296875l-.8281.7656v-1.0156l-.1094-.0469c-.609375.25-1.234375.421875-1.859375.5v.3281h.4375c.484375 0 .53125.078125.53125.875v2.6875c0 .75-.046875.84375-.453125.859375L.1875-.3281v.3594C.6875.015625 1.203125 0 1.703125 0 2.1875 0 2.65625.015625 3.125.03125v-.3594l-.5-.0312c-.40625-.01565-.4375-.1094-.4375-.8594V-3.75c0-.546875.78125-1.125 1.5-1.125.65625 0 1.09375.609375 1.09375 1.515625v2.1406c0 .75-.03125.84375-.4375.859375l-.5469.0313v.3594C4.296875.015625 4.78125 0 5.28125 0s1 .015625 1.5.03125v-.3594l-.5469-.0312c-.406225-.01565-.4531-.1094-.4531-.8594V-3.75c0-.546875.796875-1.125 1.515625-1.125.640625 0 1.078125.609375 1.078125 1.515625V.0313C8.6875.015625 9.015625 0 9.328125 0c.359375 0 .703125.015625 1.0625.03125zm0 0" id="e"/><path d="M4.6719-1.7656c0-.375-.09375-.65625-.328125-.890625-.3125-.3125-.703125-.4375-1.765625-.640625-.96875-.1875-1.296875-.4375-1.296875-.984375 0-.59375.421875-.9375 1.140625-.9375.8125 0 1.421875.421875 1.421875.984375v.2813h.3281c.015625-.703125.03125-.984375.0625-1.359375-.640625-.203125-1.0625-.296875-1.5625-.296875-1.375 0-2.234375.65625-2.234375 1.734375 0 .578125.265625.984375.8125 1.234375.328125.140625.96875.328125 1.78125.515625.53125.109375.765625.375.765625.828125 0 .640625-.609375 1.09375-1.453125 1.09375-.875 0-1.5-.421875-1.5-1.015625v-.4844H.4844c0 .8125-.03125 1.171875-.125 1.65625.625.203125 1.09375.28125 1.640625.28125 1.5625 0 2.671875-.828125 2.671875-2zm0 0" id="i"/><path d="M6.9375.0313v-.3594l-.4844-.0312c-.40625-.015625-.4375-.09375-.4375-.859375V-5.5625l-.1094-.0469c-.609375.25-1.234375.421875-1.859375.5v.3281h.4375c.46875 0 .53125.078125.53125.875v1.9531c0 .25-.171875.59375-.453125.859375-.328125.34375-.71875.515625-1.1875.515625-.40625 0-.75-.140625-.9375-.359375-.171875-.203125-.25-.5625-.25-1.09375V-5.5625l-.1094-.0469c-.609375.25-1.234375.421875-1.859375.5v.3281h.4375c.484375 0 .53125.078125.53125.875v2c0 .84375.0625 1.21875.28125 1.515625.265625.359375.71875.53125 1.40625.53125.53125 0 1.015625-.171875 1.328125-.46875l.8125-.7344c0 .34375-.015625.53125-.0625 1.09375C5.296875.015625 5.625 0 5.953125 0s.65625.015625.984375.03125zm0 0" id="j"/><path d="M6.625-3.2344c0-1.328125-1.109375-2.375-2.484375-2.375-.453125 0-.875.125-1.0625.296875l-.9844.9063V-5.5625l-.1094-.0469C1.375-5.359375.75-5.1875.125-5.109375v.3281h.4375c.484375 0 .53125.078125.53125.875v6.0156c0 .75-.046875.828125-.453125.859375L.0938 3v.3594c.5-.03125 1-.03125 1.5-.03125s.984375 0 1.484375.03125V3l-.5469-.0312c-.40625-.03125-.4375-.109375-.4375-.859375V-.1562c.359375.21875.734375.296875 1.28125.296875.34375 0 .65625-.0625.84375-.1875L5.5781-.9375C6.0625-1.25 6.625-2.46875 6.625-3.234375zm-1.0469.4375c0 1.34375-.796875 2.328125-1.875 2.328125-.65625 0-1.140625-.21875-1.609375-.703125v-2.4843c0-.171875.0625-.296875.21875-.5.34375-.453125.828125-.671875 1.421875-.671875 1.125 0 1.84375.78125 1.84375 2.03125zm0 0" id="k"/><path d="M6.8438.0313v-.3594l-.5-.0312c-.40625-.015625-.4375-.09375-.4375-.859375v-2.3125c0-1.390625-.65625-2.078125-2-2.078125-.4375 0-.6875.09375-.9375.296875l-.9062.7969V-5.5625l-.1094-.0469c-.609375.25-1.234375.421875-1.875.5v.3281h.4531c.46875 0 .515625.078125.515625.875v2.6875c0 .75-.03125.84375-.4375.859375l-.5312.0313V.0313C.5625.015625 1.0625 0 1.546875 0c.5 0 1 .015625 1.484375.03125v-.3594L2.5-.3594c-.40625-.0156-.4375-.10935-.4375-.85935V-3.75c0-.546875.78125-1.125 1.515625-1.125.796875 0 1.328125.59375 1.328125 1.515625V.0313c.3125-.015675.625-.0313.9375-.0313.34375 0 .65625.015625 1 .03125zm0 0" id="l"/><path d="M4.0781-7.6562v-.9219c-.25-.09375-.390625-.125-.546875-.125-.390625 0-.8125.203125-1.0625.5l-.7031.7969c-.34375.390625-.5.921875-.5 1.71875v.5l-.8281.375v.2656l.8281-.0625v3.3906c0 .75-.03125.84375-.4375.859375l-.5469.0313V.0313C.78125.015625 1.265625 0 1.765625 0s1 .015625 1.5.03125v-.3594l-.5469-.0312c-.406225-.01565-.4531-.1094-.4531-.8594v-3.3906H3.75l.0938-.625c-.53125.03125-1.046875.046875-1.578125.046875v-1.0156c0-1.375.15625-1.703125.84375-1.703125.328125 0 .53125.078125.828125.328125zm0 0" id="m"/><path d="M4.5-.75l-.0781-.1562-.2344.1562c-.25.15625-.4375.265625-.53125.265625-.0625 0-.109375-.078125-.109375-.1875 0-.03125 0-.140625.015625-.171875l.5781-2.4219c.0625-.25.09375-.5.09375-.640625 0-.203125-.09375-.3125-.265625-.3125-.375 0-.984375.328125-1.5.8125-.328125.296875-.578125.59375-1.03125 1.234375l.3281-1.4062c.046875-.15625.0625-.265625.0625-.359375 0-.1875-.078125-.28125-.203125-.28125-.1875 0-.53125.1875-1.171875.640625l-.25.1719.0625.1875.2813-.1875C.875-3.625.90625-3.625.96875-3.625c.09375 0 .15625.078125.15625.21875 0 .4375-.359375 2.140625-.71875 3.390625l.0625.0938C.6875.015625.890625-.03125 1.078125-.0625c.171875-1.109375.359375-1.6875.75-2.28125C2.3125-3.078125 2.96875-3.625 3.359375-3.625c.09375 0 .140625.078125.140625.203125 0 .15625-.015625.34375-.09375.625L2.9531-.9375c-.078125.328125-.109375.53125-.109375.671875 0 .21875.09375.34375.265625.34375.21875 0 .53125-.1875 1.390625-.828125zm0 0" id="b"/><path d="M8.875-2.3906l-1.8125-1.875-.2812.2969L7.875-2.625H.5625v.5156H7.875L6.7813-.7812l.2813.2969zm0 0" id="f"/><path d="M7.3906-2.4844c0-.84375-.453125-1.5625-1.375-1.5625-.75 0-1.5.734375-1.953125 1.28125-.390625-.625-1.140625-1.296875-1.921875-1.296875-1.015625 0-1.65625.984375-1.65625 1.921875 0 .84375.46875 1.5625 1.375 1.5625.734375 0 1.546875-.75 1.96875-1.3125C4.25-1.25 4.921875-.5625 5.734375-.5625c1.03125 0 1.65625-1 1.65625-1.921875zm-.5312.4219c0 .609375-.296875 1.109375-.953125 1.109375-.703125 0-1.328125-1.03125-1.6875-1.53125C4.5-2.90625 5.234375-3.578125 5.75-3.578125c.734375 0 1.109375.890625 1.109375 1.515625zm-3.2031-.0781c-.265675.406225-1.015675 1.0781-1.5313 1.0781-.734375 0-1.09375-.90625-1.09375-1.53125 0-.609375.3125-1.125.96875-1.125.625 0 1.390625 1.046875 1.65625 1.578125zm0 0" id="g"/><path d="M5.3594-.9375l-.0937-.2344c-.4375.359375-.734375.53125-.921875.53125S4-.75 3.890625-.984375s-.25-.671875-.3125-1.03125L3.375-3.2187l.4219-.5781c.546875-.78125.875-1.0625 1.25-1.0625.1875 0 .328125.109375.390625.28125L5.6094-4.625l.1719-1.0156c-.140625-.078125-.25-.125-.359375-.125-.46875 0-.953125.4375-1.6875 1.53125l-.4531.6563-.0625-.5625c-.140625-1.1875-.46875-1.625-1.171875-1.625-.3125 0-.578125.09375-.6875.25l-.6875 1L.875-4.4062c.359375-.40625.59375-.5625.828125-.5625.390625 0 .65625.484375.859375 1.65625l.125.75-.4687.7344c-.515625.796875-.921875 1.1875-1.265625 1.1875C.78125-.640625.640625-.6875.625-.75l-.1406-.3437-.2344.0468c0 .2344-.015625.39065-.09375.76565C.125-.125.125-.09375.109375-.015625.28125.078125.484375.125.625.125c.390625 0 .859375-.34375 1.234375-.90625l.9063-1.3906.125.8281C3.0625-.328125 3.328125.125 3.75.125c.265625 0 .65625-.203125 1.03125-.546875zm0 0" id="h"/><path d="M5.9219-3.2344 3.2188-6.0312.5313-3.2344 3.2188-.4375zm-.7656 0-1.9375 2.0469-1.9219-2.0469 1.9219-2.0312zm0 0" id="a"/></defs><g class="c"><path d="M668.398438 988.75h28.59375"/><path d="M754.257812 988.75h28.632813"/><path d="M782.890625 988.75h28.59375"/><path d="M868.710938 988.75h28.632812"/><path d="M897.34375 988.75h28.632812"/><path d="M983.242188 988.75H1011.875"/><path d="M1011.875 988.75h28.59375"/><path d="M1097.734375 988.75h28.59375"/><path d="M1126.328125 988.75h28.632813"/><path d="M1212.226562 988.75h28.632813"/><path d="M1240.859375 988.75h28.632813"/><path d="M1326.71875 988.75h28.632812"/><path d="M1355.351562 988.75h28.59375"/><path d="M1441.210938 988.75h28.632812"/><path d="M1469.84375 988.75h28.632812"/><path d="M1555.703125 988.75h28.632813"/><path d="M1584.335938 988.75h28.632812"/><path d="M1670.195312 988.75h28.632813"/><path d="M1698.828125 988.75h28.632813"/><path d="M1784.6875 988.75h28.632812"/><path d="M1813.320312 988.75h28.632813"/><path d="M1899.21875 988.75h28.59375"/><path d="M1927.8125 988.75h28.632812"/><path d="M2013.671875 988.75h28.632813"/><path d="M2042.304688 988.75h28.632812"/><path d="M2128.203125 988.75h28.59375"/><path d="M2156.796875 988.75h28.632813"/><path d="M2242.695312 988.75h28.59375"/><path d="M2271.289062 988.75h28.632813"/><path d="M2357.1875 988.75h28.59375"/><path d="M2385.78125 988.75h28.632812"/><path d="M2471.679688 988.75h28.59375"/><path d="M2500.273438 988.75h28.632812"/><path d="M2586.171875 988.75h28.632813"/><path d="M2614.804688 988.75h28.59375"/><path d="M2700.664062 988.75h28.632813"/><path d="M2729.296875 988.75h28.59375"/><path d="M2815.15625 988.75h28.632812"/><path d="M2843.789062 988.75h28.59375"/><path d="M2929.648438 988.75h28.632812"/><path d="M2958.28125 988.75h28.59375"/><path d="M3044.140625 988.75h28.632813"/><path d="M3072.773438 988.75h28.632812"/><path d="M3158.632812 988.75h28.632813"/><path d="M668.398438 165.898438h2518.867187"/></g><use x="6.1762" y="82.325" href="#d"/><use x="9.6562" y="82.325" href="#c"/><use x="13.1363" y="82.325" href="#e"/><use x="25.7367" y="82.325" href="#i"/><use x="30.7766" y="82.325" href="#j"/><use x="37.9766" y="82.325" href="#k"/><use x="14.4563" y="93.2449" href="#b"/><use x="19.7363" y="93.2449" href="#f"/><use x="29.2164" y="93.2449" href="#g"/><use x="49.4961" y="82.325" href="#h"/><use x="55.9762" y="84.125" href="#b"/><use x="11.216" y="166.2914" href="#d"/><use x="14.6961" y="166.2914" href="#c"/><use x="18.1762" y="166.2914" href="#e"/><use x="30.7766" y="166.2914" href="#c"/><use x="34.2566" y="166.2914" href="#l"/><use x="41.2168" y="166.2914" href="#m"/><use x="16.8562" y="173.9715" href="#b"/><use x="22.1363" y="173.9715" href="#f"/><use x="31.6164" y="173.9715" href="#g"/><use x="49.4961" y="166.2914" href="#h"/><use x="55.9762" y="168.0914" href="#b"/><path d="M680.898438 165.898438h2506.367187" class="c"/><path d="M67.8398 163.4219h.6016v6h-.6016zm0 0"/><path d="M318.4727 163.4219h.6016v6h-.6016zm0 0"/><path d="M680.898438 165.898438v1645.703124" class="c"/><path d="M65.0781 166.0625h6v.6016h-6zm0 0"/><path d="M65.0781 83.7773h6v.6016h-6zm0 0"/><path d="M65.0781 1.4883h6v.6016h-6zm0 0"/><g class="a"><path d="M813.671875 1811.601562c0 4.140626-3.320313 7.5-7.460937 7.5-4.101563 0-7.460938-3.359374-7.460938-7.5 0-4.101562 3.359375-7.460937 7.460938-7.460937 4.140624 0 7.460937 3.359375 7.460937 7.460937zm0 0"/><path d="M821.171875 1811.601562c0 8.28125-6.71875 14.960938-14.960937 14.960938-8.242188 0-14.921876-6.679688-14.921876-14.960938 0-8.242187 6.679688-14.921874 14.921876-14.921874 8.242187 0 14.960937 6.679687 14.960937 14.921874zm0 0" class="b"/></g><use x="77.382" y="169.8609" href="#a"/><g class="a"><path d="M938.984375 165.898438c0 4.140624-3.320313 7.460937-7.460937 7.460937-4.101563 0-7.460938-3.320313-7.460938-7.460937 0-4.140626 3.359375-7.460938 7.460938-7.460938 4.140624 0 7.460937 3.320312 7.460937 7.460938zm0 0"/><path d="M946.484375 1263.046875c0 8.242187-6.679687 14.960937-14.960937 14.960937-8.242188 0-14.921876-6.71875-14.921876-14.960937s6.679688-14.921875 14.921876-14.921875c8.28125 0 14.960937 6.679688 14.960937 14.921875zm0 0" class="b"/></g><use x="89.9129" y="169.8609" href="#a"/><g class="a"><path d="M1064.335938 1263.046875c0 4.140625-3.359376 7.460937-7.460938 7.460937-4.140625 0-7.5-3.320312-7.5-7.460937 0-4.101563 3.359375-7.460937 7.5-7.460937 4.101562 0 7.460938 3.359374 7.460938 7.460937zm0 0"/><path d="M1071.796875 1263.046875c0 8.242187-6.679687 14.960937-14.921875 14.960937-8.28125 0-14.960938-6.71875-14.960938-14.960937S1048.59375 1248.125 1056.875 1248.125c8.242188 0 14.921875 6.679688 14.921875 14.921875zm0 0" class="b"/></g><use x="102.446" y="169.8609" href="#a"/><g class="a"><path d="M1189.648438 165.898438c0 4.140624-3.359376 7.460937-7.460938 7.460937-4.140625 0-7.5-3.320313-7.5-7.460937 0-4.140626 3.359375-7.460938 7.5-7.460938 4.101562 0 7.460938 3.320312 7.460938 7.460938zm0 0"/><path d="M1197.109375 1153.320312c0 8.242188-6.679687 14.921876-14.921875 14.921876-8.28125 0-14.960938-6.679688-14.960938-14.921876 0-8.242187 6.679688-14.921874 14.960938-14.921874 8.242188 0 14.921875 6.679687 14.921875 14.921874zm0 0" class="b"/></g><use x="114.977" y="169.8609" href="#a"/><g class="a"><path d="M1314.960938 1153.320312c0 4.140626-3.359376 7.460938-7.460938 7.460938-4.140625 0-7.460938-3.320312-7.460938-7.460938 0-4.101562 3.320313-7.460937 7.460938-7.460937 4.101562 0 7.460938 3.359375 7.460938 7.460937zm0 0"/><path d="M1322.421875 1153.320312c0 8.242188-6.679687 14.921876-14.921875 14.921876s-14.960938-6.679688-14.960938-14.921876c0-8.242187 6.71875-14.921874 14.960938-14.921874s14.921875 6.679687 14.921875 14.921874zm0 0" class="b"/></g><use x="127.509" y="169.8609" href="#a"/><g class="a"><path d="M1440.273438 165.898438c0 4.140624-3.320313 7.460937-7.460938 7.460937s-7.460938-3.320313-7.460938-7.460937c0-4.140626 3.320313-7.460938 7.460938-7.460938s7.460938 3.320312 7.460938 7.460938zm0 0"/><path d="M1447.734375 1106.328125c0 8.242187-6.679687 14.921875-14.921875 14.921875s-14.960938-6.679688-14.960938-14.921875c0-8.28125 6.71875-14.960937 14.960938-14.960937s14.921875 6.679687 14.921875 14.960937zm0 0" class="b"/></g><use x="140.041" y="169.8609" href="#a"/><g class="a"><path d="M1565.625 1106.328125c0 4.101563-3.359375 7.460937-7.5 7.460937-4.101562 0-7.460938-3.359374-7.460938-7.460937 0-4.140625 3.359376-7.5 7.460938-7.5 4.140625 0 7.5 3.359375 7.5 7.5zm0 0"/><path d="M1573.085938 1106.328125c0 8.242187-6.679688 14.921875-14.960938 14.921875-8.242188 0-14.921875-6.679688-14.921875-14.921875 0-8.28125 6.679687-14.960937 14.921875-14.960937 8.28125 0 14.960938 6.679687 14.960938 14.960937zm0 0" class="b"/></g><use x="152.573" y="169.8609" href="#a"/><g class="a"><path d="M1690.9375 165.898438c0 4.140624-3.359375 7.460937-7.5 7.460937-4.101562 0-7.460938-3.320313-7.460938-7.460937 0-4.140626 3.359376-7.460938 7.460938-7.460938 4.140625 0 7.5 3.320312 7.5 7.460938zm0 0"/><path d="M1698.398438 1080.195312c0 8.242188-6.679688 14.921876-14.960938 14.921876-8.242188 0-14.921875-6.679688-14.921875-14.921876 0-8.28125 6.679687-14.960937 14.921875-14.960937 8.28125 0 14.960938 6.679687 14.960938 14.960937zm0 0" class="b"/></g><use x="165.105" y="169.8609" href="#a"/><g class="a"><path d="M1816.25 1080.195312c0 4.101563-3.359375 7.460938-7.460938 7.460938-4.140624 0-7.5-3.359375-7.5-7.460938 0-4.140624 3.359376-7.5 7.5-7.5 4.101563 0 7.460938 3.359376 7.460938 7.5zm0 0"/><path d="M1823.710938 1080.195312c0 8.242188-6.679688 14.921876-14.921876 14.921876-8.28125 0-14.960937-6.679688-14.960937-14.921876 0-8.28125 6.679687-14.960937 14.960937-14.960937 8.242188 0 14.921876 6.679687 14.921876 14.960937zm0 0" class="b"/></g><use x="177.637" y="169.8609" href="#a"/><g class="a"><path d="M1941.5625 165.898438c0 4.140624-3.359375 7.460937-7.5 7.460937-4.101562 0-7.460938-3.320313-7.460938-7.460937 0-4.140626 3.359376-7.460938 7.460938-7.460938 4.140625 0 7.5 3.320312 7.5 7.460938zm0 0"/><path d="M1949.023438 1063.554688c0 8.242187-6.679688 14.960937-14.960938 14.960937-8.242188 0-14.921875-6.71875-14.921875-14.960937 0-8.242188 6.679687-14.921876 14.921875-14.921876 8.28125 0 14.960938 6.679688 14.960938 14.921876zm0 0" class="b"/></g><use x="190.168" y="169.8609" href="#a"/><g class="a"><path d="M2066.875 1063.554688c0 4.140624-3.359375 7.460937-7.460938 7.460937-4.140624 0-7.5-3.320313-7.5-7.460937 0-4.140626 3.359376-7.460938 7.5-7.460938 4.101563 0 7.460938 3.320312 7.460938 7.460938zm0 0"/><path d="M2074.335938 1063.554688c0 8.242187-6.679688 14.960937-14.921876 14.960937-8.28125 0-14.960937-6.71875-14.960937-14.960937 0-8.242188 6.679687-14.921876 14.960937-14.921876 8.242188 0 14.921876 6.679688 14.921876 14.921876zm0 0" class="b"/></g><use x="202.7" y="169.8609" href="#a"/><g class="a"><path d="M2192.1875 165.898438c0 4.140624-3.359375 7.460937-7.460938 7.460937-4.140624 0-7.460937-3.320313-7.460937-7.460937 0-4.140626 3.320313-7.460938 7.460937-7.460938 4.101563 0 7.460938 3.320312 7.460938 7.460938zm0 0"/><path d="M2199.648438 1052.03125c0 8.28125-6.679688 14.960938-14.921876 14.960938-8.28125 0-14.960937-6.679688-14.960937-14.960938 0-8.242188 6.679687-14.921875 14.960937-14.921875 8.242188 0 14.921876 6.679687 14.921876 14.921875zm0 0" class="b"/></g><use x="215.232" y="169.8609" href="#a"/><g class="a"><path d="M2317.5 1052.03125c0 4.140625-3.359375 7.5-7.460938 7.5-4.140624 0-7.460937-3.359375-7.460937-7.5 0-4.101562 3.320313-7.460938 7.460937-7.460938 4.101563 0 7.460938 3.359376 7.460938 7.460938zm0 0"/><path d="M2324.960938 1052.03125c0 8.28125-6.679688 14.960938-14.921876 14.960938-8.242187 0-14.921874-6.679688-14.921874-14.960938 0-8.242188 6.679687-14.921875 14.921874-14.921875 8.242188 0 14.921876 6.679687 14.921876 14.921875zm0 0" class="b"/></g><use x="227.764" y="169.8609" href="#a"/><g class="a"><path d="M2442.8125 165.898438c0 4.140624-3.320312 7.460937-7.460938 7.460937-4.140624 0-7.460937-3.320313-7.460937-7.460937 0-4.140626 3.320313-7.460938 7.460937-7.460938 4.140626 0 7.460938 3.320312 7.460938 7.460938zm0 0"/><path d="M2450.3125 1043.59375c0 8.28125-6.71875 14.960938-14.960938 14.960938-8.242187 0-14.921874-6.679688-14.921874-14.960938 0-8.242188 6.679687-14.921875 14.921874-14.921875 8.242188 0 14.960938 6.679687 14.960938 14.921875zm0 0" class="b"/></g><use x="240.296" y="169.8609" href="#a"/><g class="a"><path d="M2568.125 1043.59375c0 4.140625-3.320312 7.5-7.460938 7.5-4.101562 0-7.460937-3.359375-7.460937-7.5 0-4.101562 3.359375-7.460938 7.460937-7.460938 4.140626 0 7.460938 3.359376 7.460938 7.460938zm0 0"/><path d="M2575.625 1043.59375c0 8.28125-6.679688 14.960938-14.960938 14.960938-8.242187 0-14.921874-6.679688-14.921874-14.960938 0-8.242188 6.679687-14.921875 14.921874-14.921875 8.28125 0 14.960938 6.679687 14.960938 14.921875zm0 0" class="b"/></g><use x="252.827" y="169.8609" href="#a"/><g class="a"><path d="M2693.476562 165.898438c0 4.140624-3.359374 7.460937-7.460937 7.460937-4.140625 0-7.5-3.320313-7.5-7.460937 0-4.140626 3.359375-7.460938 7.5-7.460938 4.101563 0 7.460937 3.320312 7.460937 7.460938zm0 0"/><path d="M2700.9375 1037.148438c0 8.242187-6.679688 14.960937-14.921875 14.960937-8.28125 0-14.960937-6.71875-14.960937-14.960937 0-8.242188 6.679687-14.921876 14.960937-14.921876 8.242187 0 14.921875 6.679688 14.921875 14.921876zm0 0" class="b"/></g><use x="265.359" y="169.8609" href="#a"/><g class="a"><path d="M2818.789062 1037.148438c0 4.140624-3.359374 7.5-7.460937 7.5-4.140625 0-7.5-3.359376-7.5-7.5 0-4.101563 3.359375-7.460938 7.5-7.460938 4.101563 0 7.460937 3.359375 7.460937 7.460938zm0 0"/><path d="M2826.25 1037.148438c0 8.242187-6.679688 14.960937-14.921875 14.960937-8.28125 0-14.960937-6.71875-14.960937-14.960937 0-8.242188 6.679687-14.921876 14.960937-14.921876 8.242187 0 14.921875 6.679688 14.921875 14.921876zm0 0" class="b"/></g><use x="277.891" y="169.8609" href="#a"/><g class="a"><path d="M2944.101562 165.898438c0 4.140624-3.359374 7.460937-7.460937 7.460937-4.140625 0-7.5-3.320313-7.5-7.460937 0-4.140626 3.359375-7.460938 7.5-7.460938 4.101563 0 7.460937 3.320312 7.460937 7.460938zm0 0"/><path d="M2951.5625 1032.070312c0 8.242188-6.679688 14.921876-14.921875 14.921876s-14.960937-6.679688-14.960937-14.921876c0-8.242187 6.71875-14.960937 14.960937-14.960937s14.921875 6.71875 14.921875 14.960937zm0 0" class="b"/></g><use x="290.423" y="169.8609" href="#a"/><g class="a"><path d="M3069.414062 1032.070312c0 4.101563-3.359374 7.460938-7.460937 7.460938-4.140625 0-7.5-3.359375-7.5-7.460938 0-4.140624 3.359375-7.460937 7.5-7.460937 4.101563 0 7.460937 3.320313 7.460937 7.460937zm0 0"/><path d="M3076.875 1032.070312c0 8.242188-6.679688 14.921876-14.921875 14.921876-8.28125 0-14.960937-6.679688-14.960937-14.921876 0-8.242187 6.679687-14.960937 14.960937-14.960937 8.242187 0 14.921875 6.71875 14.921875 14.960937zm0 0" class="b"/></g><use x="302.954" y="169.8609" href="#a"/><g class="a"><path d="M3194.726562 165.898438c0 4.140624-3.320312 7.460937-7.460937 7.460937s-7.460937-3.320313-7.460937-7.460937c0-4.140626 3.320312-7.460938 7.460937-7.460938s7.460937 3.320312 7.460937 7.460938zm0 0"/><path d="M3202.226562 1027.929688c0 8.242187-6.71875 14.921874-14.960937 14.921874s-14.960937-6.679687-14.960937-14.921874c0-8.242188 6.71875-14.921876 14.960937-14.921876s14.960937 6.679688 14.960937 14.921876zm0 0" class="b"/></g><use x="315.486" y="169.8609" href="#a"/><style>.a{stroke:#000;stroke-miterlimit:10;stroke-width:3.985;transform:matrix(.1,0,0,-.1,0,183)}.b{fill:none}.c{fill:none;stroke:#000;stroke-miterlimit:10;stroke-width:3.985;transform:matrix(.1,0,0,-.1,0,183)}</style></svg>