<svg xmlns="http://www.w3.org/2000/svg" width="265pt" height="242pt" viewBox="0 0 265 242"><defs><clipPath id="l"><path d="M0 0h265v179H0z"/></clipPath><g id="n" clip-path="url(#l)"><g fill-opacity="1"><g style="fill-rule:nonzero;fill:#e5e5e5;stroke-width:3.985;stroke-linecap:butt;stroke-linejoin:miter;stroke:#e5e5e5;stroke-opacity:1;stroke-miterlimit:10;transform:matrix(.1,0,0,-.1,-2.5,178.597)"><path d="M336.40625 874.4075h2181.640625v374.414062H336.40625zm0 0"/><path d="M2518.046875 874.4075v71.992187l64.804687-35.976562zm0 0"/><path d="M2518.046875 946.399687v71.992188l64.804687-35.976563zm0 0"/><path d="M2518.046875 1018.391875v72.03125l64.804687-36.015625zm0 0"/><path d="M2518.046875 1090.423125v79.179687l64.804687-43.203125zm0 0"/><path d="M2518.046875 1169.602812v79.21875l64.804687-43.203125zm0 0"/></g><g fill="#000"><use x="19.559" y="75.196" href="#f"/><use x="-.0012" y="56.8355" href="#f"/><use x="9.2386" y="56.8355" href="#p"/><use x="20.2784" y="56.8355" href="#h"/></g></g><path d="M314.804688 1248.821562h43.203124" class="d"/><g class="a"><use x="-.0012" y="93.9161" href="#f"/><use x="9.2387" y="93.9161" href="#q"/><use x="20.2785" y="93.9161" href="#h"/></g><g class="d"><path d="M314.804688 874.4075h43.203124"/><path d="M314.804688 1061.595h2203.242187"/><path d="M2496.445312 341.595h86.40625"/><path d="M2593.632812 341.595h21.601563"/><path d="M2626.054688 341.595h21.601562"/><path d="M2658.4375 341.595h10.78125"/><path d="M336.40625 341.595h2160.039062"/></g><g class="g"><path d="M30.8867 141.4492h.6016v6h-.6016zm0 0"/><path d="M52.4883 141.4492h.6016v6h-.6016zm0 0"/><path d="M74.0898 141.4492h.6016v6h-.6016zm0 0"/><path d="M95.6914 141.4492h.6016v6h-.6016zm0 0"/><path d="M117.2891 141.4492h.6016v6h-.6016zm0 0"/><path d="M138.8906 141.4492h.6016v6h-.6016zm0 0"/><path d="M160.4883 141.4492h.6016v6h-.6016zm0 0"/><path d="M182.0898 141.4492h.6016v6h-.6016zm0 0"/><path d="M203.6914 141.4492h.6016v6h-.6016zm0 0"/><path d="M225.2891 141.4492h.6016v6h-.6016zm0 0"/><path d="M246.8906 141.4492h.6016v6h-.6016zm0 0"/></g><path d="M336.40625 341.595v1440.039062" class="d"/><g class="a"><g fill-rule="nonzero"><path d="M28.1289 144.0898h6v.6016h-6zm0 0"/><path d="M28.1289 108.0898h6v.6016h-6zm0 0"/><path d="M28.1289 72.0898h6v.6016h-6zm0 0"/><path d="M28.1289 36.0859h6v.6016h-6zm0 0"/><path d="M28.1289.0859h6v.6016h-6zm0 0"/><path d="M559.882812 1709.641875c0 4.101562-3.359374 7.460937-7.460937 7.460937-4.140625 0-7.5-3.359375-7.5-7.460937 0-4.140625 3.359375-7.5 7.5-7.5 4.101563 0 7.460937 3.359375 7.460937 7.5zm0 0" style="stroke-width:3.985;stroke-linecap:butt;stroke-linejoin:miter;stroke:#000;stroke-opacity:1;stroke-miterlimit:10;transform:matrix(.1,0,0,-.1,-2.5,178.597)"/></g><use x="49.741" y="162.799" href="#i"/><path d="M775.898438 485.618437c0 4.101563-3.359376 7.460938-7.5 7.460938-4.101563 0-7.460938-3.359375-7.460938-7.460938 0-4.140625 3.359375-7.5 7.460938-7.5 4.140624 0 7.5 3.359375 7.5 7.5zm0 0" class="c"/><use x="71.341" y="162.5591" href="#r"/><path d="M991.875 1565.618437c0 4.140625-3.320312 7.460938-7.460938 7.460938-4.140624 0-7.460937-3.320313-7.460937-7.460938s3.320313-7.460937 7.460937-7.460937c4.140626 0 7.460938 3.320312 7.460938 7.460937zm0 0" class="c"/><use x="92.941" y="162.5591" href="#s"/><path d="M1207.890625 917.610625c0 4.140625-3.359375 7.460937-7.460937 7.460937-4.140626 0-7.460938-3.320312-7.460938-7.460937s3.320312-7.460938 7.460938-7.460938c4.101562 0 7.460937 3.320313 7.460937 7.460938zm0 0" class="c"/><use x="114.542" y="162.799" href="#t"/><path d="M1423.90625 773.62625c0 4.101562-3.359375 7.460937-7.5 7.460937-4.101562 0-7.460938-3.359375-7.460938-7.460937 0-4.140625 3.359376-7.5 7.460938-7.5 4.140625 0 7.5 3.359375 7.5 7.5zm0 0" class="c"/><use x="136.141" y="162.5591" href="#u"/><path d="M1639.882812 701.595c0 4.140625-3.320312 7.5-7.460937 7.5s-7.460937-3.359375-7.460937-7.5c0-4.101563 3.320312-7.460938 7.460937-7.460938s7.460937 3.359375 7.460937 7.460938zm0 0" class="c"/><use x="157.742" y="162.5591" href="#v"/><path d="M1855.898438 1241.595c0 4.140625-3.359376 7.5-7.460938 7.5-4.140625 0-7.5-3.359375-7.5-7.5 0-4.101563 3.359375-7.460938 7.5-7.460938 4.101562 0 7.460938 3.359375 7.460938 7.460938zm0 0" class="c"/><use x="179.343" y="162.5591" href="#w"/><path d="M2071.914062 1133.62625c0 4.101562-3.359374 7.460937-7.5 7.460937-4.101562 0-7.460937-3.359375-7.460937-7.460937 0-4.140625 3.359375-7.5 7.460937-7.5 4.140626 0 7.5 3.359375 7.5 7.5zm0 0" class="c"/><use x="200.943" y="162.5591" href="#x"/><path d="M2287.890625 1191.204375c0 4.140625-3.320313 7.5-7.460937 7.5-4.101563 0-7.460938-3.359375-7.460938-7.5 0-4.101563 3.359375-7.460938 7.460938-7.460938 4.140624 0 7.460937 3.359375 7.460937 7.460938zm0 0" class="c"/><use x="222.543" y="162.5591" href="#y"/><path d="M2503.90625 1025.618437c0 4.101563-3.359375 7.460938-7.460938 7.460938-4.140624 0-7.5-3.359375-7.5-7.460938 0-4.140625 3.359376-7.460937 7.5-7.460937 4.101563 0 7.460938 3.320312 7.460938 7.460937zm0 0" class="c"/><use x="241.143" y="162.799" href="#i"/><use x="247.143" y="162.799" href="#z"/><use x="251.4629" y="74.3556" href="#g"/><use x="256.6231" y="74.3556" href="#g"/><use x="261.9031" y="74.3556" href="#g"/><use x="176.7024" y="174.7546" href="#L"/></g></g><clipPath id="m"><path d="M0 0h220v51H0z"/></clipPath><g id="o" clip-path="url(#m)"><path d="M809.20625 319.982188h561.601562v80.664062H809.20625zm0 0" style="fill-rule:nonzero;fill:#e5e5e5;fill-opacity:1;stroke-width:3.985;stroke-linecap:butt;stroke-linejoin:miter;stroke:#e5e5e5;stroke-opacity:1;stroke-miterlimit:10;transform:matrix(.1,0,0,-.1,.97,53.549)"/><use x="106.851" y="11.4658" href="#e" class="a"/><path d="M1090.026562 279.669688V400.64625" class="b"/><g class="a"><use x="125.092" y="11.4658" href="#e"/><use x="134.3318" y="11.4658" href="#A"/><use x="145.3716" y="11.4658" href="#j"/></g><path d="M1370.807812 279.669688V400.64625" class="b"/><g class="a"><use x="68.9309" y="11.4658" href="#e"/><use x="78.1707" y="11.4658" href="#B"/><use x="89.2105" y="11.4658" href="#j"/></g><g class="b"><path d="M809.20625 279.669688V400.64625"/><path d="M9.9875 319.982188h2160.039063"/></g><g class="g"><path d="M1.7188 18.5625h.6016v6h-.6016zm0 0"/><path d="M217.7227 18.5625h.6016v6h-.6016zm0 0"/></g><path d="M2062.01875 259.513438V360.33375" class="b"/><g class="a"><use x="201.773" y="36.322" href="#e"/><use x="208.1328" y="38.122" href="#k"/></g><path d="M226.003125 259.513438V360.33375" class="b"/><g class="a"><use x="18.17" y="36.322" href="#e"/><use x="24.5302" y="38.122" href="#C"/></g><path d="M1846.042187 259.513438V360.33375" class="b"/><g class="a"><use x="180.173" y="36.322" href="#e"/><use x="186.5328" y="38.122" href="#D"/></g><path d="M874.010937 259.513438V360.33375" class="b"/><g class="a"><use x="82.9712" y="36.322" href="#e"/><use x="89.3314" y="38.122" href="#E"/></g><path d="M657.995312 259.513438V360.33375" class="b"/><g class="a"><use x="61.37" y="36.322" href="#e"/><use x="67.7302" y="38.122" href="#F"/></g><g class="e"><path stroke="#000" d="M550.026562 259.513438V360.33375"/><path d="M550.026562 279.669688v-141.09375" class="f"/></g><g class="a"><use x="50.5712" y="48.4181" href="#e"/><use x="56.931" y="50.2181" href="#G"/></g><path d="M1360.026562 259.513438V360.33375" class="b"/><g class="a"><use x="131.572" y="36.322" href="#e"/><use x="137.9322" y="38.122" href="#H"/></g><path d="M1197.995312 259.513438V360.33375" class="b"/><g class="a"><use x="115.371" y="36.322" href="#e"/><use x="121.7308" y="38.122" href="#I"/></g><g class="e"><path stroke="#000" d="M1284.401562 259.513438V360.33375"/><path d="M1284.401562 279.669688v-141.09375" class="f"/></g><g class="a"><use x="124.012" y="48.4181" href="#e"/><use x="130.3722" y="50.2181" href="#J"/></g><g class="e"><path stroke="#000" d="M1036.003125 259.513438V360.33375"/><path d="M1036.003125 279.669688v-141.09375" class="f"/></g><g class="a"><use x="96.8911" y="48.4181" href="#e"/><use x="103.2513" y="50.2181" href="#k"/><use x="107.6911" y="50.2181" href="#K"/></g></g><use href="#a" id="f"/><use href="#b" id="p"/><use href="#c" id="q"/><path d="M2.1875-3.2344c0-.359375-.328125-.703125-.703125-.703125-.359375 0-.6875.34375-.6875.703125s.3125.6875.6875.6875.703125-.328125.703125-.6875zm0 0" id="g"/><use href="#d" id="h"/><path d="M5 .0313v-.3594l-.625-.0312c-.65625-.03125-.78125-.171875-.78125-.78125v-7.0937l-.1562-.0625c-.78125.40625-1.625.765625-2.71875 1.15625l.0781.5h.125c.531225-.2345 1.04685-.468875 1.5781-.70325.0625 0 .09375.109375.09375.40625v5.7969c0 .609375-.125.75-.78125.78125l-.6719.0313V.0313C1.8125.015625 2.46875 0 3.125 0 3.734375 0 4.375.015625 5 .03125zm0 0" id="i"/><path d="M5.5938.0313C5.5625-.21875 5.5625-.328125 5.5625-.5c0-.15625 0-.28125.03125-.546875l-4.1406.125 2.1875-2.3125c1.15625-1.21875 1.515625-1.875 1.515625-2.78125 0-1.375-.9375-2.21875-2.453125-2.21875-.8594 0-1.45315.234375-2.031275.828125L.4688-5.7656h.3437l.1563-.5625c.1875-.6875.625-.984375 1.421875-.984375 1.03125 0 1.6875.640625 1.6875 1.65625 0 .90625-.5 1.78125-1.859375 3.21875L.1875-.2812v.3125C1.078125.015625 1.96875 0 2.859375 0 3.765625 0 4.6875.015625 5.59375.03125zm0 0" id="r"/><path d="M5.5156-2.6719c0-.578125-.234375-1.078125-.65625-1.375-.3125-.21875-.578125-.3125-1.171875-.421875.953125-.75 1.3125-1.296875 1.3125-2 0-1.0625-.890625-1.765625-2.21875-1.765625-.8125 0-1.34375.21875-1.921875.796875l-.3437 1.4844h.375L1.0938-6.625c.140625-.40625.890625-.8125 1.515625-.8125.765625 0 1.40625.640625 1.40625 1.390625 0 .890625-.703125 1.640625-1.546875 1.640625-.109375 0-.5625-.03125-.5625-.03125l-.1563.6406.0938.0625C2.296875-3.9375 2.515625-4 2.84375-4c1 0 1.5625.640625 1.5625 1.734375C4.40625-1.046875 3.6875-.25 2.5625-.25c-.546875 0-1.03125-.1875-1.390625-.515625-.28125-.265625-.4375-.53125-.671875-1.1875l-.3281.125c.265625.734375.359375 1.15625.421875 1.75.640625.21875 1.15625.3125 1.609375.3125 1.4375 0 3.3125-1.25 3.3125-2.90625zm0 0" id="s"/><path d="M5.6406.0313v-.3594l-.5781-.0313c-.578125-.03125-.71875-.1875-.71875-.90625v-.8906c.71875 0 .96875 0 1.296875.046875v-.8594s-.578125.046875-.96875.046875H4.3438v-1.6718c0-2.125.03125-3.15625.09375-3.640625l-.1406-.0625-.8906.3281-3.375 5.5313.125.2813h3.1875v.8906c0 .71875-.125.890625-.71875.90625l-.7344.0313V.0313C2.53125.015625 3.171875 0 3.8125 0c.609375 0 1.21875.015625 1.828125.03125zM3.3438-2.9219H.7813l2.5625-4.2187zm0 0" id="t"/><path d="M5.4844-3.0312c0-1.34375-.96875-2.296875-2.328125-2.296875-.578125 0-1 .15625-1.75.59375l.1094-2.5 3.6406.0625.0625-.0625c-.015625-.21875-.015625-.28125-.015625-.46875s0-.25.015625-.46875l-.0625-.0625s-1.265625.0625-2.078125.0625S1-8.234375 1-8.234375l-.0625.0625.0313 1.6406c0 1.046875-.03125 2.15625-.078125 2.6875l.25.0625c.5625-.5625.875-.71875 1.46875-.71875C3.75-4.5 4.46875-3.6875 4.46875-2.40625c0 1.328125-.765625 2.109375-2.0625 2.109375-.65625 0-1.25-.21875-1.421875-.53125L.4375-1.8125l-.2812.1719C.43755-.9531.578175-.5781.734425-.04685c.34375.171875.8125.28125 1.328125.28125.8125 0 1.65625-.34375 2.3125-.921875.734375-.640625 1.109375-1.453125 1.109375-2.34375zm0 0" id="u"/><path d="M5.5938-2.625C5.59375-4 4.765625-4.890625 3.5-4.890625c-.703125 0-1.140625.28125-1.9375.9375.25-2.171875 1.265625-3.34375 3.40625-3.984375v-.0937l-.4375-.2031c-1.15625.375-1.640625.625-2.25 1.140625C1.046875-6.046875.375-4.59375.375-2.953125c0 1.96875.96875 3.1875 2.5 3.1875 1.5625 0 2.71875-1.21875 2.71875-2.859375zm-1.0312.4219c0 1.25-.609375 2.046875-1.53125 2.046875-1.015625 0-1.5625-.875-1.5625-2.46875 0-.421875.046875-.65625.1875-.859375.25-.40625.8125-.6875 1.390625-.6875.90625 0 1.515625.796875 1.515625 1.96875zm0 0" id="v"/><path d="M5.9375-7.875v-.3594c-1.28125.046875-1.390625.0625-2.671875.0625-1.25 0-1.453125-.015625-2.625-.0625l-.1094.0625s.03125.765625.03125 1.25-.03125 1.21875-.03125 1.21875h.3594L.9688-6.375c.09375-.734375.171875-.828125.734375-.828125h3.1875c-.484375.96875-.84375 1.671875-1.3125 2.390625L.6719-.125.7813.0313S1.109375 0 1.328125 0 1.875.03125 1.875.03125c.5-1.296875.8125-2.078125 1.875-3.96875zm0 0" id="w"/><path d="M5.5469-2.4687c0-.953125-.4375-1.46875-1.8125-2.078125 1.09375-.75 1.484375-1.25 1.484375-1.96875 0-1.03125-.859375-1.71875-2.125-1.71875-1.421875 0-2.453125.90625-2.453125 2.15625 0 .8125.3125 1.265625 1.375 1.953125-.5.234375-.703125.359375-.96875.609375-.453125.453125-.6875 1-.6875 1.609375 0 1.234375.984375 2.140625 2.34375 2.140625 1.546875 0 2.84375-1.21875 2.84375-2.703125zm-.9375.5156c0 1-.765625 1.78125-1.734375 1.78125-1.015625 0-1.671875-.71875-1.671875-1.828125 0-.875.34375-1.421875 1.234375-1.953125l.9531.4219c.75.34375 1.21875.921875 1.21875 1.578125zm-.2031-4.4375c0 .6875-.3125 1.15625-1.078125 1.65625l-.6562-.3281C1.90625-5.421875 1.53125-5.90625 1.53125-6.5c0-.796875.578125-1.328125 1.421875-1.328125.875 0 1.453125.578125 1.453125 1.4375zm0 0" id="x"/><path d="M5.4688-4.9844c0-2.015625-.96875-3.25-2.546875-3.25-1.53125 0-2.6875 1.1875-2.6875 2.796875 0 1.375.90625 2.375 2.140625 2.375.40625 0 .875-.125 1.09375-.3125l.8281-.6875c-.09375 2-1.390625 3.484375-3.5625 4v.0938l.4063.2031c1.32805-.421875 1.906175-.703125 2.5468-1.25 1.171875-1 1.78125-2.359375 1.78125-3.96875zM4.4219-5.625c0 1.09375-.625 1.828125-1.546875 1.828125-.96875 0-1.609375-.84375-1.609375-2.078125 0-1.21875.625-1.96875 1.609375-1.96875.53125 0 .921875.234375 1.1875.703125.21875.390625.359375.96875.359375 1.515625zm0 0" id="y"/><path d="M5.5625-4.375c0-2.625-.78125-3.859375-2.421875-3.859375-1.84375 0-2.796875 1.46875-2.796875 4.359375 0 1.40625.25 2.609375.671875 3.1875.421875.59375 1.09375.921875 1.828125.921875C4.65625.234375 5.5625-1.3125 5.5625-4.375zm-1.0156.5938C4.546875-1.234375 4.09375-.171875 3-.171875c-1.15625 0-1.65625-1.21875-1.65625-4.125 0-2.53125.453125-3.515625 1.578125-3.515625 1.171875 0 1.625 1.171875 1.625 4.03125zm0 0" id="z"/><path d="M11.0625.0313v-.3594L10.5-.3594c-.5625-.03125-.609375-.125-.609375-1.078125v-5.3594c0-.9375.046875-1.046875.609375-1.078125l.5-.0312v-.3594c-.375.015625-.75.03125-1.109375.03125C9.5-8.234375 9.125-8.25 8.75-8.265625L5.625-1.625 2.4688-8.2656c-.390625.015625-.765625.03125-1.140625.03125-.390625 0-.75-.015625-1.140625-.03125v.3594l.5313.0313c.546875.03125.609375.140625.609375 1.078125V-1.4375c0 .9375-.0625 1.046875-.609375 1.078125l-.5312.0313V.0313C.65625.015625 1.109375 0 1.578125 0c.484375 0 .953125.015625 1.4375.03125v-.3594l-.5312-.0312C1.9375-.390625 1.875-.5 1.875-1.4375v-5.4687L5.2188.1563h.2344c.2968-.640675.39055-.984425.64055-1.515675.890625-1.84375 1.71875-3.75 2.65625-5.546875v5.4688c0 .953125-.046875 1.03125-.609375 1.078125l-.4062.0313V.0313C8.25.015625 8.75 0 9.265625 0c.59375 0 1.203125.015625 1.796875.03125zm0 0" id="L"/><use href="#a" id="e"/><use href="#b" id="A"/><use href="#c" id="B"/><use href="#d" id="j"/><path d="M3.6563.0313v-.2656l-.4531-.0312c-.484375-.03125-.5625-.125-.5625-.578125v-5.2031l-.125-.0312c-.5625.296875-1.1875.5625-1.984375.84375l.0625.375h.0781c.390625-.1875.78125-.359375 1.15625-.515625.0625 0 .078125.078125.078125.28125v4.25c0 .453125-.09375.546875-.578125.578125l-.4844.0313V.0313C1.328125.015625 1.8125 0 2.28125 0s.921875.015625 1.375.03125zm0 0" id="k"/><path d="M4.1094.0313c-.03125-.1875-.03125-.28125-.03125-.40625 0-.109375 0-.1875.03125-.390625L1.0625-.6719l1.6094-1.6875c.843725-.906225 1.10935-1.3906 1.10935-2.04685 0-1.015625-.6875-1.640625-1.796875-1.640625-.640625 0-1.0625.1875-1.5.625l-.1406 1.1875h.25l.1094-.4062c.140625-.5.46875-.71875 1.046875-.71875.75 0 1.234375.46875 1.234375 1.21875 0 .65625-.359375 1.296875-1.359375 2.359375L.1406-.2031v.2344C.78125.015625 1.453125 0 2.09375 0c.671875 0 1.34375.015625 2.015625.03125zm0 0" id="C"/><path d="M4.0469-1.9687c0-.421875-.171875-.78125-.484375-1-.21875-.15625-.421875-.234375-.859375-.3125.703125-.546875.953125-.9375.953125-1.46875 0-.765625-.640625-1.296875-1.609375-1.296875-.59375 0-1 .171875-1.421875.59375l-.25 1.0938h.2813l.1563-.5c.09375-.296875.640625-.59375 1.09375-.59375.578125 0 1.03125.46875 1.03125 1.015625 0 .65625-.515625 1.21875-1.125 1.21875-.078125 0-.421875-.03125-.421875-.03125l-.1094.4688.0625.0469c.34375-.15625.5-.1875.75-.1875.71875 0 1.140625.453125 1.140625 1.25 0 .90625-.53125 1.484375-1.34375 1.484375-.40625 0-.765625-.125-1.03125-.375C.65625-.75.53125-.953125.375-1.421875l-.25.0781C.3125-.812525.390625-.4844.4375-.0469c.46875.15625.84375.21875 1.171875.21875 1.0625 0 2.4375-.921875 2.4375-2.140625zm0 0" id="D"/><path d="M4.1406.0313v-.2656l-.4219-.0312c-.4375-.03125-.53125-.140625-.53125-.65625v-.6719c.515625 0 .703125.015625.953125.046875v-.625s-.4375.03125-.71875.03125H3.1875v-1.2187c0-1.5625.015625-2.328125.0625-2.6875l-.1094-.0312L2.5-5.8437.0156-1.7812l.0938.1875h2.3438v.6719c0 .515625-.09375.640625-.53125.65625l-.5312.0313V.0313C1.859375.015625 2.328125 0 2.796875 0 3.25 0 3.6875.015625 4.140625.03125zM2.4531-2.1406H.5625l1.8906-3.0937zm0 0" id="E"/><path d="M4.0313-2.2187c0-.984375-.71875-1.6875-1.71875-1.6875-.421875 0-.734375.109375-1.28125.4375l.0781-1.8281 2.6719.0313.0469-.0312c-.015625-.171875-.015625-.21875-.015625-.34375 0-.140625 0-.203125.015625-.359375l-.0469-.0469S2.859375-6 2.265625-6s-1.53125-.046875-1.53125-.046875L.6875-6l.0156 1.2031c0 .765625-.015625 1.59375-.046875 1.96875l.1719.0625c.421875-.421875.65625-.53125 1.078125-.53125.84375 0 1.375.59375 1.375 1.53125 0 .984375-.5625 1.546875-1.515625 1.546875-.484375 0-.921875-.15625-1.03125-.390625l-.4062-.7187-.2187.125c.203125.5.3125.78125.4375 1.171875.234375.125.59375.203125.96875.203125.59375 0 1.203125-.25 1.6875-.671875.546875-.46875.828125-1.0625.828125-1.71875zm0 0" id="F"/><path d="M4.1094-1.9219c0-1-.609375-1.65625-1.546875-1.65625-.515625 0-.828125.203125-1.421875.671875.1875-1.578125.921875-2.4375 2.5-2.921875v-.0625l-.3125-.1562c-.84375.28125-1.203125.46875-1.65625.84375C.765625-4.4375.28125-3.359375.28125-2.171875c0 1.453125.703125 2.34375 1.828125 2.34375 1.140625 0 2-.90625 2-2.09375zm-.7656.3125c0 .90625-.4375 1.5-1.125 1.5-.734375 0-1.140625-.640625-1.140625-1.8125 0-.3125.03125-.484375.125-.625.203125-.296875.609375-.515625 1.03125-.515625.671875 0 1.109375.578125 1.109375 1.453125zm0 0" id="G"/><path d="M4.3594-5.7812v-.2656C3.40625-6 3.328125-6 2.390625-6c-.921875 0-1.0625 0-1.921875-.046875L.3906-6s.015625.5625.015625.921875-.0156.890625-.0156.890625H.6563l.0469-.4844c.07805-.54685.14055-.60935.5468-.60935h2.3281c-.34375.71875-.609375 1.21875-.953125 1.75L.4844-.0937l.0781.125S.8125 0 .96875 0 1.375.03125 1.375.03125C1.75-.921875 1.96875-1.5 2.75-2.890625zm0 0" id="H"/><path d="M4.0625-1.8125c0-.6875-.3125-1.078125-1.3125-1.53125.796875-.546875 1.078125-.90625 1.078125-1.4375 0-.75-.625-1.265625-1.5625-1.265625-1.03125 0-1.796875.671875-1.796875 1.59375 0 .59375.234375.921875 1 1.421875-.359375.171875-.5.265625-.703125.453125-.328125.328125-.5.734375-.5 1.1875 0 .90625.71875 1.5625 1.71875 1.5625C3.125.171875 4.0625-.71875 4.0625-1.8125zm-.6875.375c0 .734375-.546875 1.3125-1.265625 1.3125C1.375-.125.890625-.65625.890625-1.46875c0-.640625.25-1.03125.890625-1.4375l.7031.3281c.5625.234375.890625.671875.890625 1.140625zm-.1562-3.25c0 .5-.21875.84375-.78125 1.21875l-.4844-.2344c-.546875-.28125-.828125-.625-.828125-1.0625 0-.578125.421875-.96875 1.046875-.96875.640625 0 1.046875.40625 1.046875 1.046875zm0 0" id="I"/><path d="M4-3.6562c0-1.484375-.703125-2.390625-1.859375-2.390625-1.125 0-1.96875.890625-1.96875 2.0625 0 1 .65625 1.734375 1.578125 1.734375.296875 0 .640625-.09375.796875-.21875l.6094-.5156C3.078125-1.5 2.125-.421875.546875-.046875V.0313L.8438.1719C1.8125-.140625 2.234375-.34375 2.703125-.75 3.5625-1.46875 4-2.484375 4-3.65625zm-.75-.4688c0 .796875-.46875 1.34375-1.140625 1.34375-.703125 0-1.1875-.625-1.1875-1.53125 0-.890625.46875-1.4375 1.1875-1.4375.390625 0 .671875.171875.875.515625.15625.28125.265625.71875.265625 1.109375zm0 0" id="J"/><path d="M4.0781-3.2031c0-1.921875-.578125-2.84375-1.765625-2.84375C.953125-6.046875.25-4.96875.25-2.84375.25-1.8125.4375-.921875.75-.5c.296875.4375.796875.671875 1.34375.671875 1.3125 0 1.984375-1.140625 1.984375-3.375zm-.7344.4375C3.34375-.90625 3-.125 2.203125-.125c-.859375 0-1.21875-.890625-1.21875-3.03125 0-1.84375.328125-2.578125 1.15625-2.578125.859375 0 1.203125.859375 1.203125 2.96875zm0 0" id="K"/><path id="a" d="M5.3594-.9375l-.0937-.2344c-.4375.359375-.734375.53125-.921875.53125S4-.75 3.890625-.984375s-.25-.671875-.3125-1.03125L3.375-3.2187l.4219-.5781c.546875-.78125.875-1.0625 1.25-1.0625.1875 0 .328125.109375.390625.28125L5.6094-4.625l.1719-1.0156c-.140625-.078125-.25-.125-.359375-.125-.46875 0-.953125.4375-1.6875 1.53125l-.4531.6563-.0625-.5625c-.140625-1.1875-.46875-1.625-1.171875-1.625-.3125 0-.578125.09375-.6875.25l-.6875 1L.875-4.4062c.359375-.40625.59375-.5625.828125-.5625.390625 0 .65625.484375.859375 1.65625l.125.75-.4687.7344c-.515625.796875-.921875 1.1875-1.265625 1.1875C.78125-.640625.640625-.6875.625-.75l-.1406-.3437-.2344.0468c0 .2344-.015625.39065-.09375.76565C.125-.125.125-.09375.109375-.015625.28125.078125.484375.125.625.125c.390625 0 .859375-.34375 1.234375-.90625l.9063-1.3906.125.8281C3.0625-.328125 3.328125.125 3.75.125c.265625 0 .65625-.203125 1.03125-.546875zm0 0"/><path id="b" d="M7.2813-2.9062v-.6719H4.3438V-6.5h-.6563v2.9219H.75v.6719h2.9375V.0313h.6563v-2.9375zm0 0"/><path id="c" d="M7.2188-2.875v-.7031H.7813v.7031zm0 0"/><path id="d" d="M5.4219-5.0469c-.375-.453125-.96875-.71875-1.5625-.71875-2 0-3.6875 1.96875-3.6875 3.90625C.171875-.5.984375.125 2.28125.125c.90625 0 1.765625-.6875 2.453125-1.21875l-.0937-.2344c-.546925.39065-1.2188.8594-1.921925.8594-.859375 0-1.484375-.953125-1.484375-1.71875 0-.15625.015625-.28125.03125-.4375.28125-.046875.5625-.046875.84375-.046875h.6875c.359375 0 .734375 0 1.09375.015625l.0781-.0625.1719-.4219c-.9375.01565-1.859375.01565-2.796875.01565.203125-1.046875.828125-2.109375 2.03125-2.109375.71875 0 1 .21875 1.328125.828125H4.9375zm0 0"/></defs><use href="#n"/><use transform="translate(35 191)" href="#o"/><style>.a{fill:#000;fill-opacity:1}.b{fill:none;stroke:#000;stroke-linecap:butt;stroke-linejoin:miter;stroke-miterlimit:10;stroke-opacity:1;stroke-width:3.985;transform:matrix(.1,0,0,-.1,.97,53.549)}.c{fill-rule:nonzero;stroke:#000;stroke-linecap:butt;stroke-linejoin:miter;stroke-miterlimit:10;stroke-opacity:1;stroke-width:3.985;transform:matrix(.1,0,0,-.1,-2.5,178.597)}.d{fill:none;stroke:#000;stroke-linecap:butt;stroke-linejoin:miter;stroke-miterlimit:10;stroke-opacity:1;stroke-width:3.985;transform:matrix(.1,0,0,-.1,-2.5,178.597)}.e{fill:none;stroke-linecap:butt;stroke-linejoin:miter;stroke-miterlimit:10;stroke-opacity:1;stroke-width:3.985;transform:matrix(.1,0,0,-.1,.97,53.549)}.f{stroke:#b2b2b2}.g{fill:#000;fill-opacity:1;fill-rule:nonzero}</style></svg>