<svg xmlns="http://www.w3.org/2000/svg" width="217pt" height="145pt" viewBox="0 0 217 145"><g class="a"><path d="M40 879.648438h29.375"/><path d="M128.125 879.648438H157.5"/><path d="M157.5 879.648438h29.375"/><path d="M245.585938 879.648438h29.375"/><path d="M274.960938 879.648438h29.375"/><path d="M363.085938 879.648438h29.375"/><path d="M392.460938 879.648438h29.375"/><path d="M480.585938 879.648438h29.335937"/><path d="M509.921875 879.648438h29.375"/><path d="M598.046875 879.648438h29.375"/><path d="M627.421875 879.648438h29.375"/><path d="M715.546875 879.648438h29.335937"/><path d="M744.882812 879.648438h29.375"/><path d="M833.007812 879.648438h29.375"/><path d="M862.382812 879.648438h29.375"/><path d="M950.507812 879.648438h29.375"/><path d="M979.882812 879.648438h29.375"/><path d="M1067.96875 879.648438h29.375"/><path d="M1097.34375 879.648438h29.375"/><path d="M1185.46875 879.648438h29.375"/><path d="M1214.84375 879.648438h29.375"/><path d="M1302.96875 879.648438h29.375"/><path d="M1332.34375 879.648438h29.375"/><path d="M1420.429688 879.648438h29.375"/><path d="M1449.804688 879.648438h29.375"/><path d="M1537.929688 879.648438h29.375"/><path d="M1567.304688 879.648438h29.335937"/><path d="M1655.390625 879.648438h29.375"/><path d="M1684.765625 879.648438h29.375"/><path d="M1772.890625 879.648438h29.375"/><path d="M1802.265625 879.648438h29.375"/><path d="M1890.390625 879.648438h29.335937"/><path d="M1919.726562 879.648438h29.375"/><path d="M2007.851562 879.648438h29.375"/><path d="M2037.226562 879.648438h29.375"/><path d="M2125.351562 879.648438h29.375"/><path d="M40 36.71875h2114.726562"/></g><path d="M3.7461 138.3398h.6016v6h-.6016zm0 0"/><path d="M18.8516 138.3398h.6016v6h-.6016zm0 0"/><path d="M33.9609 138.3398h.6016v6h-.6016zm0 0"/><path d="M49.0625 138.3398h.6016v6h-.6016zm0 0"/><path d="M64.168 138.3398h.6016v6h-.6016zm0 0"/><path d="M79.2734 138.3398h.6016v6h-.6016zm0 0"/><path d="M94.3789 138.3398h.6016v6h-.6016zm0 0"/><path d="M109.4844 138.3398h.6016v6h-.6016zm0 0"/><path d="M124.5898 138.3398h.6016v6h-.6016zm0 0"/><path d="M139.6914 138.3398h.6016v6h-.6016zm0 0"/><path d="M154.8008 138.3398h.6016v6h-.6016zm0 0"/><path d="M169.9023 138.3398h.6016v6h-.6016zm0 0"/><path d="M185.0078 138.3398h.6016v6h-.6016zm0 0"/><path d="M200.1133 138.3398h.6016v6h-.6016zm0 0"/><path d="M215.2188 138.3398h.6016v6h-.6016zm0 0"/><path d="M40 36.71875v1404.882812" class="a"/><path d="M.9883 140.9805h6v.6016h-6zm0 0"/><path d="M.9883 70.7344h6v.6016h-6zm0 0"/><path d="M.9883.4883h6v.6016h-6zm0 0"/><g style="stroke-width:3.985;stroke:#000;stroke-miterlimit:10;transform:matrix(.1,0,0,-.1,0,145)"><path d="M203.515625 739.140625c0 6.914063-5.585937 12.5-12.460937 12.5s-12.460938-5.585937-12.460938-12.5c0-6.835937 5.585938-12.421875 12.460938-12.421875s12.460937 5.585938 12.460937 12.421875zm0 0"/><path d="M354.570312 973.320312c0 6.875-5.585937 12.460938-12.460937 12.460938s-12.460937-5.585938-12.460937-12.460938 5.585937-12.460937 12.460937-12.460937 12.460937 5.585937 12.460937 12.460937zm0 0"/><path d="M505.625 622.109375c0 6.875-5.585938 12.460937-12.460938 12.460937s-12.460937-5.585937-12.460937-12.460937c0-6.914063 5.585937-12.460937 12.460937-12.460937S505.625 615.195312 505.625 622.109375zm0 0"/><path d="M656.640625 762.578125c0 6.875-5.546875 12.460937-12.460937 12.460937-6.875 0-12.460938-5.585937-12.460938-12.460937s5.585938-12.460937 12.460938-12.460937c6.914062 0 12.460937 5.585937 12.460937 12.460937zm0 0"/><path d="M807.695312 862.929688c0 6.875-5.546874 12.460937-12.460937 12.460937-6.875 0-12.421875-5.585937-12.421875-12.460937s5.546875-12.460938 12.421875-12.460938c6.914063 0 12.460937 5.585938 12.460937 12.460938zm0 0"/><path d="M958.789062 940.976562c0 6.875-5.585937 12.460938-12.460937 12.460938-6.914063 0-12.460937-5.585938-12.460937-12.460938s5.546874-12.460937 12.460937-12.460937c6.875 0 12.460937 5.585937 12.460937 12.460937zm0 0"/><path d="M1109.804688 765.351562c0 6.914063-5.546876 12.460938-12.460938 12.460938-6.875 0-12.460938-5.546875-12.460938-12.460938 0-6.875 5.585938-12.460937 12.460938-12.460937 6.914062 0 12.460938 5.585937 12.460938 12.460937zm0 0"/><path d="M1260.859375 829.21875c0 6.875-5.585937 12.460938-12.460937 12.460938s-12.460938-5.585938-12.460938-12.460938 5.585938-12.460938 12.460938-12.460938 12.460937 5.585938 12.460937 12.460938zm0 0"/><path d="M1411.914062 883.28125c0 6.875-5.585937 12.421875-12.460937 12.421875s-12.460937-5.546875-12.460937-12.421875c0-6.914062 5.585937-12.460938 12.460937-12.460938s12.460937 5.546876 12.460937 12.460938zm0 0"/><path d="M1562.96875 766.171875c0 6.914063-5.585938 12.460937-12.460938 12.460937s-12.460937-5.546874-12.460937-12.460937c0-6.875 5.585937-12.460937 12.460937-12.460937s12.460938 5.585937 12.460938 12.460937zm0 0"/><path d="M1714.023438 813.007812c0 6.875-5.585938 12.460938-12.460938 12.460938s-12.460938-5.585938-12.460938-12.460938 5.585938-12.460937 12.460938-12.460937 12.460938 5.585937 12.460938 12.460937zm0 0"/><path d="M1865.078125 854.335938c0 6.875-5.585937 12.460937-12.460937 12.460937s-12.460938-5.585937-12.460938-12.460937 5.585938-12.460938 12.460938-12.460938 12.460937 5.585938 12.460937 12.460938zm0 0"/><path d="M2016.09375 891.328125c0 6.875-5.546875 12.460937-12.421875 12.460937-6.914063 0-12.460937-5.585937-12.460937-12.460937s5.546874-12.460937 12.460937-12.460937c6.875 0 12.421875 5.585937 12.421875 12.460937zm0 0"/><path d="M2167.1875 803.515625c0 6.875-5.585938 12.460937-12.460938 12.460937-6.914062 0-12.460937-5.585937-12.460937-12.460937s5.546875-12.460937 12.460937-12.460937c6.875 0 12.460938 5.585937 12.460938 12.460937zm0 0"/></g><style>.a{fill:none;stroke:#000;stroke-miterlimit:10;stroke-width:3.985;transform:matrix(.1,0,0,-.1,0,145)}</style></svg>