<svg xmlns="http://www.w3.org/2000/svg" width="294pt" height="159pt" viewBox="0 0 294 159"><defs><path d="M7.2188-2.875v-.7031H.7813v.7031zm0 0" id="b"/><path d="M7.2813-2.9062v-.6719H4.3438V-6.5h-.6563v2.9219H.75v.6719h2.9375V.0313h.6563v-2.9375zm0 0" id="c"/><path d="M5.3594-.9375l-.0937-.2344c-.4375.359375-.734375.53125-.921875.53125S4-.75 3.890625-.984375s-.25-.671875-.3125-1.03125L3.375-3.2187l.4219-.5781c.546875-.78125.875-1.0625 1.25-1.0625.1875 0 .328125.109375.390625.28125L5.6094-4.625l.1719-1.0156c-.140625-.078125-.25-.125-.359375-.125-.46875 0-.953125.4375-1.6875 1.53125l-.4531.6563-.0625-.5625c-.140625-1.1875-.46875-1.625-1.171875-1.625-.3125 0-.578125.09375-.6875.25l-.6875 1L.875-4.4062c.359375-.40625.59375-.5625.828125-.5625.390625 0 .65625.484375.859375 1.65625l.125.75-.4687.7344c-.515625.796875-.921875 1.1875-1.265625 1.1875C.78125-.640625.640625-.6875.625-.75l-.1406-.3437-.2344.0468c0 .2344-.015625.39065-.09375.76565C.125-.125.125-.09375.109375-.015625.28125.078125.484375.125.625.125c.390625 0 .859375-.34375 1.234375-.90625l.9063-1.3906.125.8281C3.0625-.328125 3.328125.125 3.75.125c.265625 0 .65625-.203125 1.03125-.546875zm0 0" id="a"/><path d="M3.6563.0313v-.2656l-.4531-.0312c-.484375-.03125-.5625-.125-.5625-.578125v-5.2031l-.125-.0312c-.5625.296875-1.1875.5625-1.984375.84375l.0625.375h.0781c.390625-.1875.78125-.359375 1.15625-.515625.0625 0 .078125.078125.078125.28125v4.25c0 .453125-.09375.546875-.578125.578125l-.4844.0313V.0313C1.328125.015625 1.8125 0 2.28125 0s.921875.015625 1.375.03125zm0 0" id="h"/><path d="M4.0469-1.9687c0-.421875-.171875-.78125-.484375-1-.21875-.15625-.421875-.234375-.859375-.3125.703125-.546875.953125-.9375.953125-1.46875 0-.765625-.640625-1.296875-1.609375-1.296875-.59375 0-1 .171875-1.421875.59375l-.25 1.0938h.2813l.1563-.5c.09375-.296875.640625-.59375 1.09375-.59375.578125 0 1.03125.46875 1.03125 1.015625 0 .65625-.515625 1.21875-1.125 1.21875-.078125 0-.421875-.03125-.421875-.03125l-.1094.4688.0625.0469c.34375-.15625.5-.1875.75-.1875.71875 0 1.140625.453125 1.140625 1.25 0 .90625-.53125 1.484375-1.34375 1.484375-.40625 0-.765625-.125-1.03125-.375C.65625-.75.53125-.953125.375-1.421875l-.25.0781C.3125-.812525.390625-.4844.4375-.0469c.46875.15625.84375.21875 1.171875.21875 1.0625 0 2.4375-.921875 2.4375-2.140625zm0 0" id="i"/><path d="M4.0313-2.2187c0-.984375-.71875-1.6875-1.71875-1.6875-.421875 0-.734375.109375-1.28125.4375l.0781-1.8281 2.6719.0313.0469-.0312c-.015625-.171875-.015625-.21875-.015625-.34375 0-.140625 0-.203125.015625-.359375l-.0469-.0469S2.859375-6 2.265625-6s-1.53125-.046875-1.53125-.046875L.6875-6l.0156 1.2031c0 .765625-.015625 1.59375-.046875 1.96875l.1719.0625c.421875-.421875.65625-.53125 1.078125-.53125.84375 0 1.375.59375 1.375 1.53125 0 .984375-.5625 1.546875-1.515625 1.546875-.484375 0-.921875-.15625-1.03125-.390625l-.4062-.7187-.2187.125c.203125.5.3125.78125.4375 1.171875.234375.125.59375.203125.96875.203125.59375 0 1.203125-.25 1.6875-.671875.546875-.46875.828125-1.0625.828125-1.71875zm0 0" id="j"/><path d="M4.3594-5.7812v-.2656C3.40625-6 3.328125-6 2.390625-6c-.921875 0-1.0625 0-1.921875-.046875L.3906-6s.015625.5625.015625.921875-.0156.890625-.0156.890625H.6563l.0469-.4844c.07805-.54685.14055-.60935.5468-.60935h2.3281c-.34375.71875-.609375 1.21875-.953125 1.75L.4844-.0937l.0781.125S.8125 0 .96875 0 1.375.03125 1.375.03125C1.75-.921875 1.96875-1.5 2.75-2.890625zm0 0" id="k"/><path d="M4.1094.0313c-.03125-.1875-.03125-.28125-.03125-.40625 0-.109375 0-.1875.03125-.390625L1.0625-.6719l1.6094-1.6875c.843725-.906225 1.10935-1.3906 1.10935-2.04685 0-1.015625-.6875-1.640625-1.796875-1.640625-.640625 0-1.0625.1875-1.5.625l-.1406 1.1875h.25l.1094-.4062c.140625-.5.46875-.71875 1.046875-.71875.75 0 1.234375.46875 1.234375 1.21875 0 .65625-.359375 1.296875-1.359375 2.359375L.1406-.2031v.2344C.78125.015625 1.453125 0 2.09375 0c.671875 0 1.34375.015625 2.015625.03125zm0 0" id="d"/><path d="M4.1406.0313v-.2656l-.4219-.0312c-.4375-.03125-.53125-.140625-.53125-.65625v-.6719c.515625 0 .703125.015625.953125.046875v-.625s-.4375.03125-.71875.03125H3.1875v-1.2187c0-1.5625.015625-2.328125.0625-2.6875l-.1094-.0312L2.5-5.8437.0156-1.7812l.0938.1875h2.3438v.6719c0 .515625-.09375.640625-.53125.65625l-.5312.0313V.0313C1.859375.015625 2.328125 0 2.796875 0 3.25 0 3.6875.015625 4.140625.03125zM2.4531-2.1406H.5625l1.8906-3.0937zm0 0" id="e"/><path d="M4.1094-1.9219c0-1-.609375-1.65625-1.546875-1.65625-.515625 0-.828125.203125-1.421875.671875.1875-1.578125.921875-2.4375 2.5-2.921875v-.0625l-.3125-.1562c-.84375.28125-1.203125.46875-1.65625.84375C.765625-4.4375.28125-3.359375.28125-2.171875c0 1.453125.703125 2.34375 1.828125 2.34375 1.140625 0 2-.90625 2-2.09375zm-.7656.3125c0 .90625-.4375 1.5-1.125 1.5-.734375 0-1.140625-.640625-1.140625-1.8125 0-.3125.03125-.484375.125-.625.203125-.296875.609375-.515625 1.03125-.515625.671875 0 1.109375.578125 1.109375 1.453125zm0 0" id="f"/><path d="M4.0625-1.8125c0-.6875-.3125-1.078125-1.3125-1.53125.796875-.546875 1.078125-.90625 1.078125-1.4375 0-.75-.625-1.265625-1.5625-1.265625-1.03125 0-1.796875.671875-1.796875 1.59375 0 .59375.234375.921875 1 1.421875-.359375.171875-.5.265625-.703125.453125-.328125.328125-.5.734375-.5 1.1875 0 .90625.71875 1.5625 1.71875 1.5625C3.125.171875 4.0625-.71875 4.0625-1.8125zm-.6875.375c0 .734375-.546875 1.3125-1.265625 1.3125C1.375-.125.890625-.65625.890625-1.46875c0-.640625.25-1.03125.890625-1.4375l.7031.3281c.5625.234375.890625.671875.890625 1.140625zm-.1562-3.25c0 .5-.21875.84375-.78125 1.21875l-.4844-.2344c-.546875-.28125-.828125-.625-.828125-1.0625 0-.578125.421875-.96875 1.046875-.96875.640625 0 1.046875.40625 1.046875 1.046875zm0 0" id="g"/></defs><path d="M606.328125 861.601562h2021.054687" class="f"/><path d="M60.3789 69.8516h.6016v6h-.6016zm0 0"/><path d="M85.6445 69.8516h.6016v6h-.6016zm0 0"/><path d="M110.9063 69.8516h.6016v6h-.6016zm0 0"/><path d="M136.1719 69.8516h.6016v6h-.6016zm0 0"/><path d="M161.4336 69.8516h.6016v6h-.6016zm0 0"/><path d="M186.6992 69.8516h.6016v6h-.6016zm0 0"/><path d="M211.9609 69.8516h.6016v6h-.6016zm0 0"/><path d="M237.2266 69.8516h.6016v6h-.6016zm0 0"/><path d="M262.4883 69.8516h.6016v6h-.6016zm0 0"/><path d="M606.328125 141.601562v1440" class="f"/><path d="M57.6211 144.4922h6v.6016h-6zm0 0"/><path d="M57.6211 72.4922h6v.6016h-6zm0 0"/><path d="M57.6211.4883h6v.6016h-6zm0 0"/><g class="b"><path d="M2642.03125 861.601562c0 1.09375-.898438 1.992188-1.992188 1.992188s-1.992187-.898438-1.992187-1.992188.898437-1.992187 1.992187-1.992187 1.992188.898437 1.992188 1.992187zm0 0"/><path d="M2667.304688 861.601562c0 1.09375-.898438 1.992188-1.992188 1.992188s-1.992188-.898438-1.992188-1.992188.898438-1.992187 1.992188-1.992187 1.992188.898437 1.992188 1.992187zm0 0"/><path d="M2692.539062 861.601562c0 1.09375-.898437 1.992188-1.992187 1.992188s-1.992187-.898438-1.992187-1.992188.898437-1.992187 1.992187-1.992187 1.992187.898437 1.992187 1.992187zm0 0"/><path d="M2717.8125 861.601562c0 1.09375-.898438 1.992188-1.992188 1.992188s-1.992187-.898438-1.992187-1.992188.898437-1.992187 1.992187-1.992187 1.992188.898437 1.992188 1.992187zm0 0"/><path d="M2743.085938 861.601562c0 1.09375-.898438 1.992188-1.992188 1.992188s-1.992188-.898438-1.992188-1.992188.898438-1.992187 1.992188-1.992187 1.992188.898437 1.992188 1.992187zm0 0"/><path d="M2768.359375 861.601562c0 1.09375-.898437 1.992188-1.992187 1.992188s-1.992188-.898438-1.992188-1.992188.898438-1.992187 1.992188-1.992187 1.992187.898437 1.992187 1.992187zm0 0"/><path d="M858.945312 861.601562v-720" class="a"/><path d="M871.40625 141.601562c0 6.875-5.546875 12.460938-12.460938 12.460938-6.875 0-12.460937-5.585938-12.460937-12.460938s5.585937-12.460937 12.460937-12.460937c6.914063 0 12.460938 5.585937 12.460938 12.460937zm0 0"/><g class="a"><path d="M480 141.601562h23.671875"/><path d="M527.382812 141.601562h23.671876"/><path d="M574.765625 141.601562H598.4375"/><path d="M622.109375 141.601562h23.710937"/><path d="M669.492188 141.601562h23.671874"/><path d="M716.875 141.601562h23.671875"/><path d="M764.21875 141.601562h23.671875"/><path d="M811.601562 141.601562h23.671876"/></g></g><use x="90.8781" y="146.7602" href="#b"/><use x="99.2781" y="146.7602" href="#a"/><use x="105.6383" y="148.5602" href="#h"/><g class="b"><path d="M1364.21875 861.601562V357.617188" class="a"/><path d="M1376.679688 357.617188c0 6.875-5.585938 12.460937-12.460938 12.460937s-12.460938-5.585937-12.460938-12.460937c0-6.914063 5.585938-12.460938 12.460938-12.460938s12.460938 5.546875 12.460938 12.460938zm0 0"/><g class="a"><path d="M480 357.617188h27.65625"/><path d="M535.273438 357.617188h27.617187"/><path d="M590.546875 357.617188h27.617187"/><path d="M645.820312 357.617188H673.4375"/><path d="M701.054688 357.617188h27.617187"/><path d="M756.328125 357.617188h27.617187"/><path d="M811.601562 357.617188h27.617188"/><path d="M866.875 357.617188h27.617188"/><path d="M922.109375 357.617188h27.65625"/><path d="M977.382812 357.617188H1005"/><path d="M1032.65625 357.617188h27.617188"/><path d="M1087.890625 357.617188h27.65625"/><path d="M1143.164062 357.617188h27.617188"/><path d="M1198.4375 357.617188h27.617188"/><path d="M1253.710938 357.617188h27.617187"/><path d="M1308.945312 357.617188h27.65625"/></g></g><use x="141.404" y="125.159" href="#b"/><use x="149.804" y="125.159" href="#a"/><use x="156.1642" y="126.959" href="#i"/><g class="b"><path d="M1869.492188 861.601562V537.617188" class="a"/><path d="M1881.953125 537.617188c0 6.875-5.585937 12.460937-12.460937 12.460937s-12.460938-5.585937-12.460938-12.460937 5.585938-12.460938 12.460938-12.460938 12.460937 5.585938 12.460937 12.460938zm0 0"/><g class="a"><path d="M480 537.617188h28.945312"/><path d="M537.890625 537.617188h28.945313"/><path d="M595.820312 537.617188h28.945313"/><path d="M653.710938 537.617188h28.945312"/><path d="M711.5625 537.617188h28.984375"/><path d="M769.492188 537.617188H798.4375"/><path d="M827.382812 537.617188h28.945313"/><path d="M885.273438 537.617188h28.945312"/><path d="M943.164062 537.617188h28.945313"/><path d="M1001.054688 537.617188h28.984374"/><path d="M1058.945312 537.617188h28.945313"/><path d="M1116.835938 537.617188h28.945312"/><path d="M1174.765625 537.617188h28.945313"/><path d="M1232.65625 537.617188h28.945312"/><path d="M1290.546875 537.617188h28.945313"/><path d="M1348.4375 537.617188h28.945312"/><path d="M1406.328125 537.617188h28.945313"/><path d="M1464.21875 537.617188h28.945312"/><path d="M1522.148438 537.617188h28.90625"/><path d="M1580.039062 537.617188h28.945313"/><path d="M1637.929688 537.617188H1666.875"/><path d="M1695.78125 537.617188h28.984375"/><path d="M1753.710938 537.617188h28.945312"/><path d="M1811.601562 537.617188h28.945313"/></g></g><use x="191.931" y="107.159" href="#b"/><use x="200.331" y="107.159" href="#a"/><use x="206.6912" y="108.959" href="#j"/><g class="b"><path d="M2374.765625 861.601562V717.617188" class="a"/><path d="M2387.226562 717.617188c0 6.875-5.585937 12.460937-12.460937 12.460937s-12.460937-5.585937-12.460937-12.460937 5.585937-12.460938 12.460937-12.460938 12.460937 5.585938 12.460937 12.460938zm0 0"/><g class="a"><path d="M480 717.617188h29.609375"/><path d="M539.21875 717.617188h29.609375"/><path d="M598.4375 717.617188h29.609375"/><path d="M657.65625 717.617188h29.609375"/><path d="M716.875 717.617188h29.570312"/><path d="M776.054688 717.617188h29.609374"/><path d="M835.273438 717.617188h29.609374"/><path d="M894.492188 717.617188h29.609374"/><path d="M953.671875 717.617188h29.648437"/><path d="M1012.890625 717.617188h29.648437"/><path d="M1072.148438 717.617188h29.570312"/><path d="M1131.328125 717.617188h29.609375"/><path d="M1190.546875 717.617188h29.609375"/><path d="M1249.765625 717.617188h29.570313"/><path d="M1308.945312 717.617188h29.609376"/><path d="M1368.164062 717.617188h29.609376"/><path d="M1427.382812 717.617188h29.609376"/><path d="M1486.601562 717.617188h29.609376"/><path d="M1545.820312 717.617188h29.570313"/><path d="M1605.039062 717.617188h29.609376"/><path d="M1664.21875 717.617188h29.609375"/><path d="M1723.4375 717.617188h29.609375"/><path d="M1782.65625 717.617188h29.609375"/><path d="M1841.875 717.617188h29.609375"/><path d="M1901.09375 717.617188h29.570312"/><path d="M1960.273438 717.617188h29.609374"/><path d="M2019.492188 717.617188h29.609374"/><path d="M2078.710938 717.617188h29.609374"/><path d="M2137.929688 717.617188h29.609374"/><path d="M2197.148438 717.617188h29.609374"/><path d="M2256.367188 717.617188h29.570312"/><path d="M2315.546875 717.617188h29.609375"/></g></g><use x="242.458" y="89.159" href="#b"/><use x="250.858" y="89.159" href="#a"/><use x="257.2182" y="90.959" href="#k"/><g class="c"><g class="d"><path d="M1111.601562 861.601562v576.015626" class="a"/><path d="M1124.0625 1437.617188c0 6.875-5.585938 12.460937-12.460938 12.460937s-12.460937-5.585937-12.460937-12.460937 5.585937-12.460938 12.460937-12.460938 12.460938 5.585938 12.460938 12.460938zm0 0"/><path d="M1113.59375 842.421875c0 1.09375-.898438 1.953125-1.992188 1.953125s-1.992187-.859375-1.992187-1.953125.898437-1.992187 1.992187-1.992187 1.992188.898437 1.992188 1.992187zm0 0"/><path d="M1113.59375 804.023438c0 1.09375-.898438 1.992187-1.992188 1.992187s-1.992187-.898437-1.992187-1.992187c0-1.132813.898437-1.992188 1.992187-1.992188s1.992188.859375 1.992188 1.992188zm0 0"/><path d="M1113.59375 765.625c0 1.09375-.898438 1.992188-1.992188 1.992188s-1.992187-.898438-1.992187-1.992188.898437-1.992188 1.992187-1.992188 1.992188.898438 1.992188 1.992188zm0 0"/><path d="M1113.59375 727.226562c0 1.09375-.898438 1.953126-1.992188 1.953126s-1.992187-.859376-1.992187-1.953126c0-1.132812.898437-1.992187 1.992187-1.992187s1.992188.859375 1.992188 1.992187zm0 0"/><path d="M1113.59375 688.789062c0 1.09375-.898438 1.992188-1.992188 1.992188s-1.992187-.898438-1.992187-1.992188.898437-1.953124 1.992187-1.953124 1.992188.859374 1.992188 1.953124zm0 0"/><path d="M1113.59375 650.390625c0 1.09375-.898438 1.992187-1.992188 1.992187s-1.992187-.898437-1.992187-1.992187.898437-1.953125 1.992187-1.953125 1.992188.859375 1.992188 1.953125zm0 0"/><path d="M1113.59375 612.03125c0 1.09375-.898438 1.953125-1.992188 1.953125s-1.992187-.859375-1.992187-1.953125c0-1.132812.898437-1.992188 1.992187-1.992188s1.992188.859376 1.992188 1.992188zm0 0"/><path d="M1113.59375 573.59375c0 1.132812-.898438 1.992188-1.992188 1.992188s-1.992187-.859376-1.992187-1.992188c0-1.09375.898437-1.992188 1.992187-1.992188s1.992188.898438 1.992188 1.992188zm0 0"/><path d="M1113.59375 535.195312c0 1.09375-.898438 1.992188-1.992188 1.992188s-1.992187-.898438-1.992187-1.992188.898437-1.992187 1.992187-1.992187 1.992188.898437 1.992188 1.992187zm0 0"/><path d="M1113.59375 496.796875c0 1.09375-.898438 1.992187-1.992188 1.992187s-1.992187-.898437-1.992187-1.992187.898437-1.992187 1.992187-1.992187 1.992188.898437 1.992188 1.992187zm0 0"/><path d="M1113.59375 458.398438c0 1.09375-.898438 1.992187-1.992188 1.992187s-1.992187-.898437-1.992187-1.992187.898437-1.992188 1.992187-1.992188 1.992188.898438 1.992188 1.992188zm0 0"/><path d="M1113.59375 420c0 1.09375-.898438 1.992188-1.992188 1.992188s-1.992187-.898438-1.992187-1.992188.898437-1.992188 1.992187-1.992188 1.992188.898438 1.992188 1.992188zm0 0"/><path d="M1113.59375 381.601562c0 1.09375-.898438 1.992188-1.992188 1.992188s-1.992187-.898438-1.992187-1.992188.898437-1.992187 1.992187-1.992187 1.992188.898437 1.992188 1.992187zm0 0"/><path d="M1113.59375 343.203125c0 1.09375-.898438 1.992187-1.992188 1.992187s-1.992187-.898437-1.992187-1.992187.898437-1.992187 1.992187-1.992187 1.992188.898437 1.992188 1.992187zm0 0"/><path d="M1113.59375 304.804688c0 1.09375-.898438 1.992187-1.992188 1.992187s-1.992187-.898437-1.992187-1.992187.898437-1.992188 1.992187-1.992188 1.992188.898438 1.992188 1.992188zm0 0"/><path d="M1124.0625 285.585938c0 6.875-5.585938 12.460937-12.460938 12.460937s-12.460937-5.585937-12.460937-12.460937 5.585937-12.460938 12.460937-12.460938 12.460938 5.585938 12.460938 12.460938zm0 0"/><g class="a"><path d="M480 285.585938h26.328125"/><path d="M532.65625 285.585938h26.289062"/><path d="M585.273438 285.585938H611.5625"/><path d="M637.890625 285.585938h26.328125"/><path d="M690.546875 285.585938H716.875"/><path d="M743.164062 285.585938h26.328126"/><path d="M795.78125 285.585938h26.328125"/><path d="M848.4375 285.585938h26.289062"/><path d="M901.054688 285.585938h26.328124"/><path d="M953.671875 285.585938h26.367187"/><path d="M1006.328125 285.585938h26.328125"/><path d="M1058.945312 285.585938h26.328126"/></g></g><path d="M492.617188 285.585938V141.601562" class="e"/></g><use x=".9539" y="139.9199" href="#b"/><use x="9.3539" y="139.9199" href="#a"/><use x="15.7141" y="141.7199" href="#h"/><use x="23.2742" y="139.9199" href="#c"/><use x="34.314" y="139.9199" href="#a"/><use x="40.6742" y="141.7199" href="#d"/><use x="116.1402" y="132.3605" href="#b"/><use x="124.5402" y="132.3605" href="#a"/><use x="130.9" y="134.1605" href="#d"/><use x="116.5" y="17.1585" href="#a"/><use x="122.8601" y="18.9585" href="#d"/><g class="c"><g class="d"><path d="M1616.875 861.601562v396.015626" class="a"/><path d="M1629.335938 1257.617188c0 6.875-5.585938 12.460937-12.460938 12.460937-6.914062 0-12.460938-5.585937-12.460938-12.460937s5.546876-12.460938 12.460938-12.460938c6.875 0 12.460938 5.585938 12.460938 12.460938zm0 0"/><path d="M1618.828125 845.117188c0 1.09375-.859375 1.992187-1.953125 1.992187-1.132812 0-1.992188-.898437-1.992188-1.992187s.859376-1.992188 1.992188-1.992188c1.09375 0 1.953125.898438 1.953125 1.992188zm0 0"/><path d="M1618.828125 812.109375c0 1.09375-.859375 1.992187-1.953125 1.992187-1.132812 0-1.992188-.898437-1.992188-1.992187s.859376-1.992187 1.992188-1.992187c1.09375 0 1.953125.898437 1.953125 1.992187zm0 0"/><path d="M1618.828125 779.101562c0 1.09375-.859375 1.992188-1.953125 1.992188-1.132812 0-1.992188-.898438-1.992188-1.992188s.859376-1.953124 1.992188-1.953124c1.09375 0 1.953125.859374 1.953125 1.953124zm0 0"/><path d="M1618.828125 746.09375c0 1.132812-.859375 1.992188-1.953125 1.992188-1.132812 0-1.992188-.859376-1.992188-1.992188 0-1.09375.859376-1.992188 1.992188-1.992188 1.09375 0 1.953125.898438 1.953125 1.992188zm0 0"/><path d="M1618.828125 713.125c0 1.054688-.859375 1.953125-1.953125 1.953125-1.132812 0-1.992188-.898437-1.992188-1.953125 0-1.09375.859376-1.992188 1.992188-1.992188 1.09375 0 1.953125.898438 1.953125 1.992188zm0 0"/><path d="M1618.828125 680.117188c0 1.09375-.859375 1.992187-1.953125 1.992187-1.132812 0-1.992188-.898437-1.992188-1.992187 0-1.132813.859376-1.992188 1.992188-1.992188 1.09375 0 1.953125.859375 1.953125 1.992188zm0 0"/><path d="M1618.828125 647.109375c0 1.09375-.859375 1.992187-1.953125 1.992187-1.132812 0-1.992188-.898437-1.992188-1.992187s.859376-1.992187 1.992188-1.992187c1.09375 0 1.953125.898437 1.953125 1.992187zm0 0"/><path d="M1618.828125 614.101562c0 1.09375-.859375 1.992188-1.953125 1.992188-1.132812 0-1.992188-.898438-1.992188-1.992188s.859376-1.992187 1.992188-1.992187c1.09375 0 1.953125.898437 1.953125 1.992187zm0 0"/><path d="M1618.828125 581.09375c0 1.09375-.859375 1.992188-1.953125 1.992188-1.132812 0-1.992188-.898438-1.992188-1.992188s.859376-1.992188 1.992188-1.992188c1.09375 0 1.953125.898438 1.953125 1.992188zm0 0"/><path d="M1618.828125 548.125c0 1.09375-.859375 1.992188-1.953125 1.992188-1.132812 0-1.992188-.898438-1.992188-1.992188s.859376-1.992188 1.992188-1.992188c1.09375 0 1.953125.898438 1.953125 1.992188zm0 0"/><path d="M1618.828125 515.117188c0 1.09375-.859375 1.992187-1.953125 1.992187-1.132812 0-1.992188-.898437-1.992188-1.992187s.859376-1.992188 1.992188-1.992188c1.09375 0 1.953125.898438 1.953125 1.992188zm0 0"/><path d="M1618.828125 482.109375c0 1.09375-.859375 1.992187-1.953125 1.992187-1.132812 0-1.992188-.898437-1.992188-1.992187s.859376-1.992187 1.992188-1.992187c1.09375 0 1.953125.898437 1.953125 1.992187zm0 0"/><path d="M1629.335938 465.585938c0 6.875-5.585938 12.460937-12.460938 12.460937-6.914062 0-12.460938-5.585937-12.460938-12.460937S1609.960938 453.125 1616.875 453.125c6.875 0 12.460938 5.585938 12.460938 12.460938zm0 0"/><g class="a"><path d="M480 465.585938h28.4375"/><path d="M536.875 465.585938h28.398438"/><path d="M593.671875 465.585938h28.4375"/><path d="M650.546875 465.585938h28.398437"/><path d="M707.382812 465.585938h28.4375"/><path d="M764.21875 465.585938h28.4375"/><path d="M821.054688 465.585938h28.4375"/><path d="M877.890625 465.585938h28.4375"/><path d="M934.765625 465.585938h28.398437"/><path d="M991.601562 465.585938h28.4375"/><path d="M1048.4375 465.585938h28.398438"/><path d="M1105.273438 465.585938h28.4375"/><path d="M1162.148438 465.585938h28.398437"/><path d="M1218.945312 465.585938h28.4375"/><path d="M1275.78125 465.585938h28.4375"/><path d="M1332.65625 465.585938h28.398438"/><path d="M1389.492188 465.585938h28.398437"/><path d="M1446.328125 465.585938h28.4375"/><path d="M1503.164062 465.585938h28.4375"/><path d="M1560.039062 465.585938h28.398438"/></g></g><path d="M492.617188 465.585938v-107.96875" class="e"/></g><use x=".9539" y="120" href="#b"/><use x="9.3539" y="120" href="#a"/><use x="15.7141" y="121.8" href="#i"/><use x="23.2742" y="120" href="#c"/><use x="34.314" y="120" href="#a"/><use x="40.6742" y="121.8" href="#e"/><use x="166.6682" y="114.3602" href="#b"/><use x="175.0682" y="114.3602" href="#a"/><use x="181.4283" y="116.1602" href="#e"/><use x="167.0283" y="35.1586" href="#a"/><use x="173.3881" y="36.9586" href="#e"/><g class="c"><g class="d"><path d="M2122.148438 861.601562v216.015626" class="a"/><path d="M2134.609375 1077.617188c0 6.875-5.585937 12.460937-12.460937 12.460937-6.914063 0-12.460938-5.585937-12.460938-12.460937s5.546875-12.460938 12.460938-12.460938c6.875 0 12.460937 5.585938 12.460937 12.460938zm0 0"/><path d="M2124.140625 843.59375c0 1.132812-.898437 1.992188-1.992187 1.992188s-1.992188-.859376-1.992188-1.992188c0-1.054688.898438-1.953125 1.992188-1.953125s1.992187.898437 1.992187 1.953125zm0 0"/><path d="M2124.140625 807.617188c0 1.09375-.898437 1.992187-1.992187 1.992187s-1.992188-.898437-1.992188-1.992187.898438-1.992188 1.992188-1.992188 1.992187.898438 1.992187 1.992188zm0 0"/><path d="M2124.140625 771.601562c0 1.09375-.898437 1.992188-1.992187 1.992188s-1.992188-.898438-1.992188-1.992188.898438-1.992187 1.992188-1.992187 1.992187.898437 1.992187 1.992187zm0 0"/><path d="M2124.140625 735.625c0 1.054688-.898437 1.953125-1.992187 1.953125s-1.992188-.898437-1.992188-1.953125c0-1.09375.898438-1.992188 1.992188-1.992188s1.992187.898438 1.992187 1.992188zm0 0"/><path d="M2124.140625 699.609375c0 1.09375-.898437 1.992187-1.992187 1.992187s-1.992188-.898437-1.992188-1.992187.898438-1.992187 1.992188-1.992187 1.992187.898437 1.992187 1.992187zm0 0"/><path d="M2124.140625 663.59375c0 1.132812-.898437 1.992188-1.992187 1.992188s-1.992188-.859376-1.992188-1.992188c0-1.09375.898438-1.992188 1.992188-1.992188s1.992187.898438 1.992187 1.992188zm0 0"/><path d="M2134.609375 645.625c0 6.835938-5.585937 12.421875-12.460937 12.421875-6.914063 0-12.460938-5.585937-12.460938-12.421875 0-6.914062 5.546875-12.5 12.460938-12.5 6.875 0 12.460937 5.585938 12.460937 12.5zm0 0"/><g class="a"><path d="M480 645.625h29.335938"/><path d="M538.671875 645.625h29.296875"/><path d="M597.304688 645.625h29.335937"/><path d="M655.9375 645.625h29.335938"/><path d="M714.609375 645.625h29.296875"/><path d="M773.242188 645.625h29.335937"/><path d="M831.875 645.625h29.335938"/><path d="M890.546875 645.625h29.296875"/><path d="M949.179688 645.625h29.335937"/><path d="M1007.8125 645.625h29.335938"/><path d="M1066.484375 645.625h29.296875"/><path d="M1125.117188 645.625h29.335937"/><path d="M1183.789062 645.625H1213.125"/><path d="M1242.421875 645.625h29.335937"/><path d="M1301.054688 645.625h29.335937"/><path d="M1359.726562 645.625h29.296876"/><path d="M1418.359375 645.625h29.335937"/><path d="M1476.992188 645.625h29.335937"/><path d="M1535.664062 645.625h29.296876"/><path d="M1594.296875 645.625h29.335937"/><path d="M1652.96875 645.625h29.296875"/><path d="M1711.601562 645.625h29.335938"/><path d="M1770.234375 645.625h29.335937"/><path d="M1828.90625 645.625h29.296875"/><path d="M1887.539062 645.625H1916.875"/><path d="M1946.171875 645.625h29.335937"/><path d="M2004.84375 645.625h29.335938"/><path d="M2063.476562 645.625h29.335938"/></g></g><path d="M492.617188 645.625V537.617188" class="e"/></g><use x=".9539" y="102" href="#b"/><use x="9.3539" y="102" href="#a"/><use x="15.7141" y="103.8" href="#j"/><use x="23.2742" y="102" href="#c"/><use x="34.314" y="102" href="#a"/><use x="40.6742" y="103.8" href="#f"/><use x="217.1952" y="96.3598" href="#b"/><use x="225.5952" y="96.3598" href="#a"/><use x="231.955" y="98.1598" href="#f"/><use x="217.555" y="53.159" href="#a"/><use x="223.9151" y="54.959" href="#f"/><g class="c"><g class="d"><path d="M2627.382812 861.601562v93.59375" class="a"/><path d="M2639.84375 955.195312c0 6.914063-5.546875 12.460938-12.460938 12.460938-6.875 0-12.421874-5.546875-12.421874-12.460938 0-6.875 5.546874-12.460937 12.421874-12.460937 6.914063 0 12.460938 5.585937 12.460938 12.460937zm0 0"/><path d="M2629.375 846.015625c0 1.09375-.859375 1.992187-1.992188 1.992187-1.09375 0-1.992187-.898437-1.992187-1.992187s.898437-1.992187 1.992187-1.992187c1.132813 0 1.992188.898437 1.992188 1.992187zm0 0"/><path d="M2629.375 814.804688c0 1.09375-.859375 1.992187-1.992188 1.992187-1.09375 0-1.992187-.898437-1.992187-1.992187s.898437-1.992188 1.992187-1.992188c1.132813 0 1.992188.898438 1.992188 1.992188zm0 0"/><path d="M2629.375 783.59375c0 1.09375-.859375 1.992188-1.992188 1.992188-1.09375 0-1.992187-.898438-1.992187-1.992188s.898437-1.992188 1.992187-1.992188c1.132813 0 1.992188.898438 1.992188 1.992188zm0 0"/><path d="M2639.84375 768.007812c0 6.875-5.546875 12.460938-12.460938 12.460938-6.875 0-12.421874-5.585938-12.421874-12.460938s5.546874-12.460937 12.421874-12.460937c6.914063 0 12.460938 5.585937 12.460938 12.460937zm0 0"/><g class="a"><path d="M480 768.007812h29.84375"/><path d="M539.648438 768.007812h29.84375"/><path d="M599.296875 768.007812h29.84375"/><path d="M658.945312 768.007812h29.84375"/><path d="M718.59375 768.007812h29.84375"/><path d="M778.28125 768.007812h29.804688"/><path d="M837.890625 768.007812h29.84375"/><path d="M897.578125 768.007812h29.804687"/><path d="M957.226562 768.007812h29.804688"/><path d="M1016.835938 768.007812h29.84375"/><path d="M1076.523438 768.007812h29.804687"/><path d="M1136.171875 768.007812h29.804687"/><path d="M1195.78125 768.007812h29.84375"/><path d="M1255.46875 768.007812h29.804688"/><path d="M1315.117188 768.007812h29.804687"/><path d="M1374.765625 768.007812h29.804687"/><path d="M1434.414062 768.007812h29.804688"/><path d="M1494.0625 768.007812h29.804688"/><path d="M1553.710938 768.007812h29.84375"/><path d="M1613.359375 768.007812h29.804687"/><path d="M1673.007812 768.007812h29.804688"/><path d="M1732.65625 768.007812h29.804688"/><path d="M1792.304688 768.007812h29.84375"/><path d="M1851.953125 768.007812h29.84375"/><path d="M1911.601562 768.007812h29.84375"/><path d="M1971.25 768.007812h29.804688"/><path d="M2030.898438 768.007812h29.84375"/><path d="M2090.546875 768.007812h29.84375"/><path d="M2150.195312 768.007812h29.84375"/><path d="M2209.84375 768.007812h29.84375"/><path d="M2269.492188 768.007812h29.84375"/><path d="M2329.140625 768.007812h29.84375"/><path d="M2388.789062 768.007812h29.84375"/><path d="M2448.4375 768.007812h29.84375"/><path d="M2508.085938 768.007812h29.84375"/><path d="M2567.773438 768.007812h29.804687"/></g></g><path d="M492.617188 768.007812v-50.390624" class="e"/></g><use x=".9539" y="86.8789" href="#b"/><use x="9.3539" y="86.8789" href="#a"/><use x="15.7141" y="88.6789" href="#k"/><use x="23.2742" y="86.8789" href="#c"/><use x="34.314" y="86.8789" href="#a"/><use x="40.6742" y="88.6789" href="#g"/><use x="267.7212" y="84.1195" href="#b"/><use x="276.1212" y="84.1195" href="#a"/><use x="282.4813" y="85.9195" href="#g"/><use x="268.0813" y="65.3984" href="#a"/><use x="274.4411" y="67.1984" href="#g"/><style>.a{fill:none}.b{stroke:#000;stroke-miterlimit:10;stroke-width:3.985;transform:matrix(.1,0,0,-.1,0,159)}.c{stroke:#000;stroke-miterlimit:10;transform:matrix(.1,0,0,-.1,0,159)}.d{stroke-width:3.985}.e{fill:none;stroke-width:7.9701}.f{fill:none;stroke:#000;stroke-miterlimit:10;stroke-width:3.985;transform:matrix(.1,0,0,-.1,0,159)}</style></svg>