<svg xmlns="http://www.w3.org/2000/svg" width="184pt" height="57pt" viewBox="0 0 184 57"><defs><clipPath id="a"><path d="M3 37h87v18H3zm0 0"/></clipPath><clipPath id="b"><path clip-rule="evenodd" d="M.0938 57.55078h175v-58h-175zm89.0977-14.72656.3164.81641-8.125 4.28516 6.5508-4.22266-7.75.63281zm0 0"/></clipPath><clipPath id="c"><path d="M3 3h64v7H3zm0 0"/></clipPath><clipPath id="d"><path clip-rule="evenodd" d="M.0938 57.55078h175v-58h-175zM66.7695 9.05859l-.1914.82031-9.1328-1.00781 7.8125.25-6.7422-3.90234zm0 0"/></clipPath><clipPath id="e"><path d="M50 0h22v16H50zm0 0"/></clipPath><clipPath id="f"><path d="M0 0h176v57H0z"/></clipPath><g id="g" clip-path="url(#f)"><path d="M906.72625 224.747813l-10.078125-21.40625-4.375-9.453125-3.789062-10.078125-4.414063-9.453125-3.164062-9.453125-3.125-8.828125-2.539063-8.828125-2.5-8.789063-1.289062-8.203125-.625-7.539062v-6.953125l.625-6.914063 1.914062-6.289062 1.875-5.703125 3.164063-5.664063 3.789062-4.414062L886.57 81.74l5.039063-3.75 6.328125-3.789062 6.289062-3.164063 6.914063-3.125 7.578125-3.164062 8.789062-2.5 9.453125-1.914063 10.078125-1.875 11.367188-1.25 11.328125-1.289062h25.195312l12.617188 1.289062 13.828125 1.25 13.242187 2.5 13.867188 3.164063 13.203125 3.789062 13.242187 5.039063L1088.1325 77.99l12.617188 6.289063 12.617187 6.914062L1125.32 98.77125l11.328125 8.164063 11.328125 9.453125 11.367188 10.703125 10.703125 11.367187 10.703125 11.953125 10.703125 13.867188 10.078125 14.492187 10.078125 15.117188 10.078125 15.742187 9.453125 16.992188 8.828125 17.65625 8.164062 17.617187 7.578125 18.28125 6.914063 17.617188 6.289062 18.28125 5.703125 17.03125 4.375 16.992187 3.164063 16.367188L1285.32 382.20875l1.875 15.117188.625 13.867187v12.617188l-1.25 11.953125-1.875 10.703125-2.539062 8.828125-2.5 7.539062-3.789063 7.578125-4.414062 6.914063-5.039063 5.664062-5.664062 5.664063-6.289063 5.039062-6.953125 4.414063-7.539062 3.789062-8.203125 3.164063-8.203125 2.5-8.789063 1.914062-9.453125 1.25-9.453125.625h-10.078125l-9.453125-.625-10.078125-1.875-10.078125-1.914062-10.078125-2.5-10.078125-2.539063-9.453125-3.789062-9.453125-3.75-9.453125-5.039063-8.789062-4.414062-8.828125-5.664063-8.203125-5.703125-11.328125-8.164062-10.703125-8.828125-10.703125-10.078125-10.078125-10.703125-10.703125-11.328125-10.117188-12.617188L1008.171563 399.24l-20.15625-27.734375-9.453125-14.492187-8.828125-14.492188-8.828125-14.453125-8.164063-14.492187-8.203125-14.492188-7.578125-13.867187-6.914062-13.242188-6.289063-12.578125-5.664062-11.992187-5.664063-11.953125zm0 0" class="a"/><g clip-path="url(#a)"><g clip-path="url(#b)"><path d="M38.093438 198.3025l1.914062-1.289062 3.125-1.875 6.953125-3.789063 10.078125-5.664062 13.203125-7.539063 17.03125-8.828125 19.53125-10.703125 22.03125-11.992187 22.695313-11.953125 23.90625-11.953125 23.320312-11.992188 23.320313-11.328125 22.03125-10.078125 21.40625-9.453125 20.15625-8.203125 19.53125-7.539062 18.28125-6.289063 16.992187-5.664062 17.03125-4.414063 16.367188-3.789062 16.367187-2.539063 15.742188-2.5 16.40625-1.25 15.117187-.625h30.859375l16.367188 1.25 16.992187 1.875 17.65625 2.539063 18.90625 2.5L561.57 49.630625l21.40625 4.414063 22.65625 5.039062 24.570313 6.289063 25.195312 6.289062L681.8825 78.615l27.070313 8.164063 27.070312 7.578125 27.109375 8.203125 25.820313 7.539062 23.945312 7.578125 20.78125 6.289063 18.242188 5.664062 13.867187 4.414063 22.695313 7.539062" class="a"/></g></g><path d="M800.905938 132.130625l77.5 6.328125-65.507813-42.226562" class="b"/><g clip-path="url(#c)"><g clip-path="url(#d)"><path d="M38.093438 481.74l1.914062.625 4.414063.625 7.539062 1.914063 11.328125 2.5 15.117188 3.789062 17.65625 3.789063 20.78125 4.414062 22.070312 5.039063 23.28125 5.039062 22.695313 4.414063 22.03125 4.375 20.78125 3.789062 20.15625 3.789063 18.28125 3.164062 16.992187 2.5 16.40625 2.539063 15.117188 1.25 13.828125 1.875 13.867187.625 13.242188.625h27.695312l13.867188-.625 14.492187-1.25 15.117188-1.875 15.742187-1.914063 16.367188-2.5 17.65625-3.164062 18.90625-3.789063 20.15625-4.375 20.78125-5.039062 22.03125-5.039063 21.40625-5.703125 20.15625-5.039062 18.90625-5.039063 15.742187-3.75L661.72625 481.74" class="c"/></g></g><g clip-path="url(#e)"><path d="M584.22625 523.3025l67.421875-39.023437-78.125 2.5" class="b"/></g><path d="M534.460625 287.716563l.625-10.703125 1.914063-11.328125 2.5-11.328125 3.164062-11.328125 4.414063-11.992188 5.039062-11.328125 6.289063-11.953125L565.32 195.763438l7.578125-11.328125 8.203125-11.953125 9.414063-11.367188 9.453125-11.328125 10.703125-10.703125 10.742187-10.703125 22.65625-20.15625 11.992188-8.828125 11.953125-8.828125 12.578125-8.164062 12.617187-7.578125 12.578125-6.914063 12.617188-6.953125 13.242187-6.289062 13.203125-5.664063L773.835625 37.6775l15.117188-4.414062L804.695 28.224375l16.367188-4.414062 17.03125-3.789063 17.617187-3.125 17.65625-3.164062 17.617188-1.875 18.28125-1.914063 17.617187-1.25 18.28125-.625H962.82l17.617188.625 17.03125 1.25 16.367187 1.25 16.367188 2.539063 16.367187 2.5 15.742188 3.164062 15.15625 3.789063 13.828125 4.414062 14.492187 4.414063 13.867188 5.039062 14.492187 5.664063 13.828125 6.289062 14.492188 6.914063 14.492187 7.578125 14.492188 8.164062L1205.945 79.865l14.492188 9.453125 13.867187 9.453125 13.828125 10.078125 13.867188 10.703125 13.242187 10.703125L1287.82 140.95875l11.992188 11.367188 11.953125 11.328125 10.703125 11.953125 10.703125 11.328125 9.453125 11.992187 8.828125 11.328125 8.828125 11.953125 7.539062 11.367188 7.578125 11.953125 5.664063 11.328125 6.289062 10.703125 5.039063 11.992187 5.039062 11.328125 5.039063 11.953125 3.789062 12.617188 3.125 12.617187 3.164063 12.578125 1.875 12.617188 1.289062 12.578125.625 13.242187v12.578125l-1.25 12.617188-1.914062 12.578125-3.125 11.992187-3.789063 11.953125-4.414062 11.328125-5.664063 10.703125-6.914062 10.078125-7.578125 10.078125-8.203125 8.828125-8.789063 8.828125-10.078125 8.203125-11.367187 6.914063-11.953125 6.914062-12.578125 6.328125-13.242188 5.039063-13.867187 5.039062-15.117188 4.375-15.742187 4.414063-16.992188 3.789062-18.28125 3.164063-18.90625 3.125-19.53125 2.539062-20.78125 1.875-21.40625 1.25-22.695312 1.289063-22.65625.625-22.695313.625h-23.28125l-23.945312-.625-23.320313-1.25L982.97625 562.99l-23.320312-1.875-22.695313-2.539062-22.65625-2.5-21.40625-3.164063-21.445312-3.125-20.15625-3.164062-19.492188-4.414063-18.90625-3.789062-18.28125-4.375-16.992187-5.039063-16.40625-5.039062-17.617188-5.703125-16.367187-5.664063-15.742188-6.289062-15.15625-6.914063-14.453125-7.578125-14.492187-7.539062-13.242188-8.203125-13.203125-8.203125-12.617187-9.453125-11.328125-8.789063L605.6325 439.5525l-10.078125-9.453125-9.414062-10.078125-8.828125-10.703125L569.734063 399.24 562.195 388.536875l-6.289062-10.742187-5.039063-10.078125-4.414062-10.703125-4.414063-10.078125-2.539062-10.078125-2.5-10.078125-1.914063-10.078125-1.25-18.90625zm0 0" class="c"/></g><path d="M7.5625-7.8125H1.2031l-.5 1.84375.2188.04688c.59375-1.21875.984375-1.46875 2.59375-1.46875.078125 0 .171875 0 .25 0l-1.7187 6.3125C1.859375-.4375 1.5625-.25.78125-.1875V0H4.25v-.1875l-.4531-.04687c-.5-.03125-.625-.140625-.625-.5 0-.15625.015625-.265625.140625-.703125l1.6563-5.95312H5.625c.859375 0 1.25.296875 1.25.96875 0 .15625-.015625.34375-.03125.546875l.2031.01563zm0 0" id="h"/><path d="M5.1563-2.17187c0-.78125-.265625-1.234375-1.359375-2.328125C2.71875-5.59375 2.625-5.765625 2.625-6.34375c0-.75.5-1.21875 1.3125-1.21875.4375 0 .796875.140625 1.046875.421875.28125.296875.375.703125.390625 1.515625l.2188.03125.4844-2.375H5.797c-.171875.25-.28125.3125-.53125.3125-.15625 0-.3125-.046875-.5625-.140625-.25-.109375-.640625-.15625-1.015625-.15625-1.234375 0-2.125.8125-2.125 1.984375 0 .65625.1875 1 .90625 1.765625.15625.15625.296875.3125.453125.5l.4688.5c.5625.578125.71875.890625.71875 1.40625 0 .90625-.65625 1.59375-1.546875 1.59375-1 0-1.734375-.84375-1.734375-2.015625 0-.09375 0-.140625.015625-.25l-.2344-.01562-.4062 2.65625h.2188C.5-.09375.640625-.21875.875-.21875c.125 0 .296875.046875.625.15625.546875.203125.859375.28125 1.234375.28125 1.375 0 2.421875-1.03125 2.421875-2.390625zm0 0" id="i"/><path d="M5.6875-3.9375c0-2.453125-1.078125-4.140625-2.65625-4.140625-.65625 0-1.15625.203125-1.59375.625-.703125.65625-1.15625 2.03125-1.15625 3.4375 0 1.296875.40625 2.703125.96875 3.375.4375.515625 1.046875.8125 1.734375.8125.609375 0 1.125-.203125 1.5625-.625C5.234375-1.109375 5.6875-2.5 5.6875-3.9375zm-1.1406.01563c0 2.5-.53125 3.78125-1.5625 3.78125S1.4375-1.421875 1.4375-3.90625c0-2.53125.53125-3.859375 1.5625-3.859375 1 0 1.546875 1.34375 1.546875 3.84375zm0 0" id="j"/><path d="M5.6719-1.64062l-.1562-.0625c-.4375.6875-.59375.796875-1.125.796875H1.5313l2-2.10937C4.609375-4.125 5.0625-5.03125 5.0625-5.96875c0-1.1875-.96875-2.109375-2.203125-2.109375-.65625 0-1.28125.265625-1.71875.734375C.75-6.9375.578125-6.546875.375-5.703125l.25.0625c.46875-1.171875.90625-1.5625 1.734375-1.5625 1 0 1.6875.6875 1.6875 1.6875 0 .9375-.5625 2.046875-1.5625 3.109375l-2.125 2.26563V0h4.6563zm0 0" id="k"/><path d="M4.7031 0v-.17187c-.9375-.015625-1.125-.140625-1.125-.71875V-8.0625l-.0937-.01562L1.3281-7v.17188c.140625-.0625.28125-.109375.328125-.125.203125-.09375.40625-.140625.53125-.140625.25 0 .359375.1875.359375.5625v5.42188c0 .390625-.09375.671875-.28125.78125-.1875.09375-.359375.140625-.859375.15625V0zm0 0" id="l"/><path d="M5.3594-7.71875v-.1875H.9375l-.7031 1.75.2031.09375c.515625-.8125.734375-.96875 1.390625-.96875h2.5938L2.0625.09375h.7656zm0 0" id="m"/></defs><use transform="translate(7)" href="#g"/><g fill="#707070"><use x=".243" y="40.603" href="#h"/><use x="1.654" y="15.089" href="#i"/></g><use x="118.442" y="23.594" href="#j"/><use x="107.103" y="46.272" href="#k"/><use x="78.754" y="29.263" href="#l"/><use x="177.973" y="34.933" href="#m"/><style>.a{fill:none;stroke:#707070;stroke-dasharray:9.4485,9.4485;stroke-dashoffset:9.4485;stroke-linecap:butt;stroke-linejoin:bevel;stroke-miterlimit:10;stroke-opacity:1;stroke-width:4.72425;transform:matrix(.1,0,0,-.1,.093,57.549)}.b{fill:none;stroke:#707070;stroke-linecap:butt;stroke-linejoin:miter;stroke-miterlimit:10;stroke-opacity:1;stroke-width:4.72425;transform:matrix(.1,0,0,-.1,.093,57.549)}.c{fill:none;stroke:#707070;stroke-dasharray:28.3455;stroke-linecap:butt;stroke-linejoin:bevel;stroke-miterlimit:10;stroke-opacity:1;stroke-width:4.72425;transform:matrix(.1,0,0,-.1,.093,57.549)}</style></svg>