<svg xmlns="http://www.w3.org/2000/svg" width="463pt" height="148pt" viewBox="0 0 463 148"><defs><clipPath id="k"><path d="M.0508 74H218v1H.0508zm0 0"/></clipPath><clipPath id="l"><path d="M.0508 71H2v7H.0508zm0 0"/></clipPath><clipPath id="m"><path d="M.0508.5508H98V148H.0508zm0 0"/></clipPath><clipPath id="n"><path d="M120 .5508h98.0508V148H120zm0 0"/></clipPath><clipPath id="o"><path d="M86 68h18v80H86zm0 0"/></clipPath><clipPath id="p"><path d="M114 .5508h18V81h-18zm0 0"/></clipPath><clipPath id="q"><path d="M91 .5508h16V81H91zm0 0"/></clipPath><clipPath id="r"><path d="M112 68h15v80h-15zm0 0"/></clipPath><clipPath id="s"><path d="M94 68h14v80H94zm0 0"/></clipPath><clipPath id="t"><path d="M110 .5508h14V81h-14zm0 0"/></clipPath><clipPath id="u"><path d="M96 .5508h13V81H96zm0 0"/></clipPath><clipPath id="v"><path d="M109 68h13v80h-13zm0 0"/></clipPath><clipPath id="w"><path d="M97 68h13v80H97zm0 0"/></clipPath><clipPath id="x"><path d="M108 .5508h13V81h-13zm0 0"/></clipPath><clipPath id="y"><path d="M98 .5508h13V81H98zm0 0"/></clipPath><clipPath id="z"><path d="M107 68h13v80h-13zm0 0"/></clipPath><clipPath id="A"><path d="M99 68h12v80H99zm0 0"/></clipPath><clipPath id="B"><path d="M107 .5508h12V81h-12zm0 0"/></clipPath><clipPath id="C"><path d="M99 .5508h13V81H99zm0 0"/></clipPath><clipPath id="D"><path d="M106 68h13v80h-13zm0 0"/></clipPath><clipPath id="E"><path d="M99 68h13v80H99zm0 0"/></clipPath><clipPath id="F"><path d="M106 .5508h13V81h-13zm0 0"/></clipPath><clipPath id="G"><path d="M100 .5508h12V81h-12zm0 0"/></clipPath><clipPath id="H"><path d="M106 68h12v80h-12zm0 0"/></clipPath><clipPath id="I"><path d="M100 68h13v80h-13zm0 0"/></clipPath><clipPath id="J"><path d="M106 .5508h12V81h-12zm0 0"/></clipPath><clipPath id="K"><path d="M100 .5508h13V81h-13zm0 0"/></clipPath><clipPath id="L"><path d="M105 68h13v80h-13zm0 0"/></clipPath><clipPath id="M"><path d="M100 68h13v80h-13zm0 0"/></clipPath><clipPath id="N"><path d="M105 .5508h13V81h-13zm0 0"/></clipPath><clipPath id="O"><use href="#a"/></clipPath><clipPath id="P"><use href="#b"/></clipPath><clipPath id="Q"><path d="M101 68h12v80h-12zm0 0"/></clipPath><clipPath id="R"><use href="#c"/></clipPath><clipPath id="S"><use href="#a"/></clipPath><clipPath id="T"><use href="#b"/></clipPath><clipPath id="U"><path d="M101 68h12v80h-12zm0 0"/></clipPath><clipPath id="V"><use href="#c"/></clipPath><clipPath id="W"><use href="#a"/></clipPath><clipPath id="X"><use href="#b"/></clipPath><clipPath id="Y"><use href="#d"/></clipPath><clipPath id="Z"><use href="#c"/></clipPath><clipPath id="a0"><use href="#e"/></clipPath><clipPath id="a1"><use href="#f"/></clipPath><clipPath id="a2"><use href="#d"/></clipPath><clipPath id="a3"><use href="#g"/></clipPath><clipPath id="a4"><use href="#e"/></clipPath><clipPath id="a5"><use href="#f"/></clipPath><clipPath id="a6"><use href="#d"/></clipPath><clipPath id="a7"><use href="#g"/></clipPath><clipPath id="a8"><use href="#h"/></clipPath><clipPath id="a9"><use href="#f"/></clipPath><clipPath id="aa"><use href="#i"/></clipPath><clipPath id="ab"><use href="#g"/></clipPath><clipPath id="ac"><use href="#h"/></clipPath><clipPath id="ad"><path d="M104 68h12v80h-12zm0 0"/></clipPath><clipPath id="ae"><use href="#i"/></clipPath><clipPath id="af"><use href="#j"/></clipPath><clipPath id="ag"><use href="#h"/></clipPath><clipPath id="ah"><path d="M104 68h12v80h-12zm0 0"/></clipPath><clipPath id="ai"><use href="#i"/></clipPath><clipPath id="aj"><use href="#j"/></clipPath><clipPath id="ak"><path d="M0 0h219v148H0z"/></clipPath><g id="aq" clip-path="url(#ak)"><g clip-path="url(#k)"><path d="M9.997812 741.622813h2160.039063" class="a"/></g><g class="b"><path d="M.8008 71.3984h.6016v6H.8008zm0 0" clip-path="url(#l)"/><path d="M108.8008 71.3984h.6016v6h-.6016zm0 0"/><path d="M216.8008 71.3984h.6016v6h-.6016zm0 0"/></g><path d="M1090.036875 21.58375v1440.039063" class="a"/><g class="b"><path d="M106.0391 146.0391h6v.6016h-6zm0 0"/><path d="M106.0391 74.0391h6v.6016h-6zm0 0"/><path d="M106.0391 2.0391h6v.6016h-6zm0 0"/></g><g clip-path="url(#m)"><path d="M9.997812 135.724375l6.054688-2.148437 6.054687-2.1875 6.054688-2.226563 18.164062-6.5625 12.109375-4.453125 6.054688-2.1875 30.273437-11.132812 6.054688-2.1875 12.109375-4.453125 6.054687-2.1875 6.054688-2.226563 12.109375-4.375 6.054687-2.226562 6.054688-2.1875 6.054687-2.148438 6.054688-2.1875 6.015625-2.148437 6.09375-2.148438 6.054687-2.148437 18.164063-6.328125 12.109375-4.140625 6.054687-2.03125 6.015625-1.992188 6.09375-2.03125 6.015625-1.953125 6.054688-1.953125 6.054687-1.914062 6.054688-1.875 6.054688-1.835938 12.109375-3.59375 6.054687-1.71875 6.09375-1.71875 6.054688-1.640625 6.054687-1.601562 6.015625-1.523438L306.6775 34.865l6.015625-1.445312 6.09375-1.367188 6.015625-1.328125 6.054688-1.25 6.054687-1.171875 12.109375-2.109375 6.054688-.898437 6.054687-.820313 6.054688-.78125 6.054687-.625 6.054688-.507812 6.054687-.429688 6.054688-.3125 6.054687-.234375h6.054688l6.054687.117188 6.054688.234375 6.054687.390625 6.054688.585937 6.054687.703125 6.054688.9375 6.054687 1.09375 6.054688 1.289063 6.054687 1.523437 6.054688 1.71875 6.054687 1.992188 6.054688 2.226562 6.054687 2.460938 6.054688 2.734375 6.054687 3.046875 6.054688 3.320312 6.054687 3.671875 6.054688 3.984375 6.054687 4.335938 6.054688 4.726562 6.054687 5.078125 6.054688 5.507813 6.054687 5.9375 6.054688 6.40625 6.054687 6.835937 6.054688 7.382813 6.054687 7.890625 6.054688 8.4375 6.054687 9.023437 6.054688 9.648438 6.054687 10.273437 6.054688 10.9375 6.054687 11.640625 6.054688 12.34375 6.054687 13.125 6.054688 13.984375 6.054687 14.804688 6.054688 15.664062 6.054687 16.601563 6.054688 17.578125 6.054687 18.59375 6.054688 19.609375 6.054687 20.742187 6.015625 21.875 6.09375 23.046875 6.054688 24.257813 6.015625 25.507812 6.09375 26.835938 6.015625 28.203125 6.054687 29.570312 6.09375 30.976563 6.054688 32.382812 6.015625 33.90625 6.09375 35.3125 6.015625 36.796875 6.054687 38.242188 6.054688 39.6875 6.054687 41.054687 6.054688 42.382813 6.054687 43.59375 6.054688 44.6875 6.054687 45.585937 6.054688 46.367188 6.054687 46.796875 6.054688 46.953125 6.054687 46.71875 6.09375 46.015625 6.015625 44.804687 6.054688 42.890625 6.054687 40.195313 6.054688 36.640625 6.054687 32.03125 6.054688 26.289062 6.054687 19.179688 6.054688 10.546875 6.054687.3125 6.054688-11.640625 6.054687-25.507813 6.054688-41.210937 6.054687-58.59375 6.054688-77.539063 6.054687-97.460937 6.054688-117.5 6.054687-136.5625 6.054688-152.734375" class="a"/></g><g clip-path="url(#n)"><path d="M1261.911875 741.622813l6.054688-152.773438 6.054687-136.523437 6.054688-117.539063 6.054687-97.421875 6.054688-77.539062 6.054687-58.632813 6.054688-41.210937 6.054687-25.46875 6.054688-11.679688 6.054687.3125 6.054688 10.585938 6.054687 19.140625 6.054688 26.289062 6.054687 32.03125 6.015625 36.679688 6.09375 40.195312 6.054688 42.890625 6.015625 44.765625 6.054687 46.015625 6.09375 46.71875 6.015625 46.953125 6.09375 46.796875 6.015625 46.367188 6.054688 45.585937 6.09375 44.6875 6.015625 43.59375 6.054687 42.382813 6.054688 41.054687 6.054687 39.6875 6.09375 38.242188 6.015625 36.835937 6.054688 35.3125 6.054687 33.867188 6.054688 32.421875 6.054687 30.9375 6.054688 29.570312 6.054687 28.203125 6.054688 26.835938 6.054687 25.507812 6.054688 24.296875 6.054687 23.046875 6.054688 21.835938 6.054687 20.742187 6.054688 19.648438 6.054687 18.554687 6.054688 17.578125 6.054687 16.601563 6.054688 15.703125 6.054687 14.765625 6.054688 13.945312 6.054687 13.164063 6.054688 12.382812 6.054687 11.640625 6.054688 10.9375 6.054687 10.234375 6.054688 9.648438 6.054687 9.023437 6.054688 8.4375 6.054687 7.890625 6.054688 7.382813 6.054687 6.875 6.054688 6.367187 6.054687 5.9375 6.054688 5.507813 6.054687 5.117187 6.054688 4.726563 6.054687 4.296875 6.054688 3.984375 6.054687 3.671875 6.054688 3.359375 6.054687 3.007812 6.054688 2.773438 6.054687 2.460937 6.054688 2.226563 6.054687 1.953125 6.054688 1.71875 6.054687 1.523437 6.054688 1.289063 6.054687 1.132812 6.054688.898438 6.054687.742187 6.054688.546875 6.015625.390625 6.09375.234375 6.015625.117188 6.09375-.039063 6.054687-.195312 6.054688-.3125 6.015625-.390625 6.054687-.546875 6.09375-.625 6.054688-.742188 6.054687-.859375 6.054688-.898437 6.054687-1.015625 6.015625-1.09375 6.09375-1.171875 6.015625-1.25 6.09375-1.289063 6.015625-1.367187 6.09375-1.445313 6.015625-1.484375 6.054688-1.5625 6.054687-1.601562 6.054688-1.640625 6.054687-1.679688 6.054688-1.757812 6.09375-1.757813 6.015625-1.835937 6.054687-1.835938 6.054688-1.875 6.054687-1.914062 12.109375-3.90625 6.054688-1.992188 12.109375-4.0625 18.164062-6.210937 6.054688-2.109375 6.054687-2.148438 6.054688-2.109375 6.054687-2.148437 6.054688-2.1875 6.054687-2.148438 18.164063-6.5625 6.054687-2.226562 12.109375-4.375 12.109375-4.453125 6.054687-2.1875 24.21875-8.90625 6.054688-2.1875 18.164062-6.679688 12.109375-4.375 6.054688-2.226562 24.21875-8.75" class="a"/></g><g clip-path="url(#o)"><path d="M918.122813 741.622813l2.070312-54.453125 2.03125-55.46875 2.03125-56.132813 2.070313-56.445312 2.03125-56.367188 2.03125-55.742187L932.45875 352.365l2.03125-53.007812 2.03125-50.625 2.070313-47.617188 2.03125-43.828125 2.070312-39.21875 2.03125-33.789062 2.03125-27.421875 2.070313-20.195313 2.03125-11.992187 2.070312-2.851563 2.03125 7.109375 2.070313 17.96875 2.03125 29.53125 2.03125 41.640625 2.03125 54.179688 2.070312 66.835937 2.03125 79.296875 2.070313 91.25 2.03125 102.070313 2.03125 111.40625 2.070312 118.515625" class="a"/></g><g clip-path="url(#p)"><path d="M1204.607188 741.622813l2.070312 118.515625 2.03125 111.367187L1210.74 1073.615l2.03125 91.210938 2.070313 79.296875 2.03125 66.875 2.070312 54.179687 2.03125 41.640625 2.03125 29.53125 2.070313 17.929688 2.03125 7.148437 2.070312-2.890625 2.03125-11.992187 2.03125-20.15625 2.070313-27.460938 2.03125-33.75 2.070312-39.257812 2.03125-43.828125 2.03125-47.578125 2.070313-50.664063 2.03125-52.96875 2.070312-54.6875 2.03125-55.742187 2.03125-56.328125 2.070313-56.445313 2.03125-56.171875 2.03125-55.429687 2.070312-54.453125" class="a"/></g><g clip-path="url(#q)"><path d="M975.4275 741.622813l1.015625 61.054687 1.015625 61.71875 1.015625 61.875 1.054688 61.601563 1.015625 60.703125 1.015625 59.179687 1.015625 57.070313 1.015625 54.21875 1.015625 50.742187 1.054687 46.40625 1.015625 41.367188 1.015625 35.546875 1.015625 28.90625 1.015625 21.5625 1.054688 13.398437 1.015625 4.648438 1.015625-4.804688 1.015625-14.804687 1.015625-25.234375 1.054687-35.898438 1.015625-46.71875 1.015625-57.5 1.015625-67.929687 1.054688-77.851563 1.015625-86.953125 1.015625-94.882812 1.015625-101.367188 1.015625-106.054687" class="a"/></g><g clip-path="url(#r)"><path d="M1175.974375 741.622813 1176.99 635.568125l1.015625-101.40625 1.015625-94.882812 1.015625-86.914063 1.015625-77.890625 1.054688-67.929687 1.015625-57.5 1.015625-46.71875 1.015625-35.898438 1.054687-25.234375 1.015625-14.765625 1.015625-4.84375 1.015625 4.648438 1.015625 13.398437 1.054688 21.5625 1.015625 28.945313 1.015625 35.507812 1.015625 41.367188 1.054687 46.445312 1.015625 50.703125 1.015625 54.21875 1.015625 57.070313 1.015625 59.21875 1.015625 60.664062 1.015625 61.601563 1.054688 61.914062 1.015625 61.71875 1.015625 61.054688" class="a"/></g><g clip-path="url(#s)"><path d="M1004.060313 741.622813l.625-65.039063.625-65.390625.585937-65.234375.625-64.453125.625-63.007812.625-60.976563.585938-58.164062.625-54.609375.625-50.351563.585937-45.351562.625-39.570313.625-33.046875.625-25.898437.585938-18.007813.625-9.492187.625-.507813.585937 8.984375.625 18.789063.625 28.828125.625 38.945312.585938 48.945313.625 58.75.585937 68.007812.625 76.640625.625 84.335938.625 90.9375.585938 96.171875.625 99.765625" class="a"/></g><g clip-path="url(#t)"><path d="M1158.786875 741.622813l.585938 99.765625.625 96.132812.625 90.9375.625 84.335938.585937 76.640625.625 68.046875.585938 58.710937.625 48.984375.625 38.90625.625 28.828125.585937 18.789063.625 8.984375.625-.46875.625-9.53125.585938-18.007813.625-25.859375.625-33.085937.585937-39.570313.625-45.3125.625-50.390625.625-54.609375.585938-58.164062.625-60.9375.625-63.046875.585937-64.453125.625-65.234375.625-65.390625.625-65" class="a"/></g><g clip-path="url(#u)"><path d="M1021.247813 741.622813 1021.6775 809.24l.390625 67.8125.429688 67.382813.390625 66.328125.429687 64.492187.390625 62.03125.429688 58.710938.390625 54.726562.429687 50 .390625 44.492188.429688 38.242187.390625 31.367188.429687 23.828125.390625 15.625.390625 6.992187.429688-2.109375.390625-11.5625.429687-21.210937.390625-30.976563.429688-40.703125.390625-50.15625.429687-59.335937.390625-67.890625.429688-75.703125.390625-82.65625.429687-88.4375.390625-92.929688.429688-95.976562" class="a"/></g><g clip-path="url(#v)"><path d="M1147.3025 741.622813l.429688-95.976563.390625-92.929687.429687-88.476563.390625-82.617187.390625-75.742188.429688-67.890625.429687-59.296875.390625-50.195312.390625-40.664063.429688-30.976562.390625-21.25.429687-11.5625.429688-2.109375.390625 6.992187.390625 15.664063.429687 23.789062.390625 31.367188.429688 38.28125.390625 44.492187.429687 49.960938.390625 54.726562.429688 58.75.390625 61.992188.429687 64.492187.390625 66.289063.429688 67.421875.390625 67.851562.429687 67.617188" class="a"/></g><g clip-path="url(#w)"><path d="M1032.732188 741.622813l.273437-69.492188.3125-69.570312.273438-68.90625.273437-67.578125.3125-65.507813.3125-62.695312.273438-59.101563.3125-54.726562.273437-49.648438.273438-43.828125.3125-37.265625.273437-30.117187.3125-22.34375.3125-13.984375.273438-5.273438.273437 3.945313.3125 13.320312.273438 22.851563.3125 32.382812.273437 41.796875.3125 50.976563.273438 59.609375.3125 67.695312.273437 75.078125.3125 81.40625.273438 86.757813.3125 90.78125.273437 93.4375" class="a"/></g><g clip-path="url(#x)"><path d="M1139.138438 741.622813l.273437 93.398437.3125 90.78125.273438 86.757813.273437 81.445312.3125 75.039063.3125 67.734375.273438 59.609375.273437 50.9375.3125 41.796875.3125 32.382812.273438 22.851563.273437 13.320312.3125 3.90625.273438-5.195312.3125-14.023438.273437-22.304687.3125-30.117188.273438-37.304687.3125-43.828125.273437-49.648438.3125-54.726562.273438-59.101563.3125-62.695312.273437-65.507813.3125-67.578125.273438-68.90625.3125-69.53125.273437-69.492187" class="a"/></g><g clip-path="url(#y)"><path d="M1040.89625 741.622813l.234375 70.859375.195313 70.820312.234375 70.078125.234375 68.515625.195312 66.210938.234375 63.164062.195313 59.335938.234375 54.726562.234375 49.375.195312 43.28125.234375 36.5625.195313 29.140625.234375 21.210938.234375 12.773437.195312 3.90625.234375-5.195312.234375-14.609375.195313-23.984375.234375-33.398438.195312-42.578125.234375-51.445312.234375-59.804688.195313-67.578125.234375-74.53125.234375-80.546875.195312-85.46875.234375-89.21875.234375-91.601562" class="a"/></g><g clip-path="url(#z)"><path d="M1132.966563 741.622813l.234375-91.640625.234375-89.21875.195312-85.46875.234375-80.546875.234375-74.53125.195313-67.539063.234375-59.84375.195312-51.40625.234375-42.617187.234375-33.359375.195313-24.023438.234375-14.570312.234375-5.273438.195312 3.945313.234375 12.773437.195313 21.210938.234375 29.179687.195312 36.523438.234375 43.320312.234375 49.335938.234375 54.765625.195313 59.296875.234375 63.164062.195312 66.25.234375 68.476563.195313 70.078125.234375 70.820312.234375 70.898438" class="a"/></g><g clip-path="url(#A)"><path d="M1047.068125 741.622813l.15625-71.992188.15625-71.796875.15625-70.9375.15625-69.21875.195313-66.796875.195312-63.515625.15625-59.492187.15625-54.6875.15625-49.101563.195313-42.890625.15625-35.9375.195312-28.398437.15625-20.351563.15625-11.835937.195313-2.929688.15625 6.210938.15625 15.546875.195312 24.882812.15625 34.140625.195313 43.164063.15625 51.757812.15625 59.960938.195312 67.421875.15625 74.101562.195313 79.84375.15625 84.53125.15625 88.085938.15625 90.234375" class="a"/></g><g clip-path="url(#B)"><path d="M1128.200938 741.622813l.195312 90.234375.15625 88.046875.15625 84.53125.195313 79.882812.15625 74.0625.15625 67.460938.195312 59.921875.15625 51.796875.15625 43.125.195313 34.140625.15625 24.882812.195312 15.546875.15625 6.210938.15625-2.929688.195313-11.796875.15625-20.351562.15625-28.4375.195312-35.9375.15625-42.890625.195313-49.101563.15625-54.6875.15625-59.492187.195312-63.515625.15625-66.757813.195313-69.257812.15625-70.898438.15625-71.835937.15625-71.953125" class="a"/></g><g clip-path="url(#C)"><path d="M1051.794688 741.622813l.15625 72.8125.15625 72.617187.117187 71.601563.117188 69.804687.15625 67.1875.15625 63.828125.117187 59.570313.117188 54.648437.15625 48.945313.117187 42.539062.15625 35.429688.117188 27.8125.15625 19.6875.15625 11.054687.117187 2.148438.117188-7.03125.15625-16.289063.117187-25.546875.15625-34.6875.15625-43.59375.117188-52.070312.117187-60 .15625-67.304688.15625-73.75.117188-79.335937.117187-83.789063.15625-87.109375.117188-89.179687" class="a"/></g><g clip-path="url(#D)"><path d="M1124.372813 741.622813l.15625-89.179688.117187-87.148437.15625-83.789063.117188-79.296875.15625-73.789062.117187-67.265625.15625-60.039063.117188-52.070312.15625-43.59375.117187-34.6875.15625-25.546875.117188-16.289063.15625-6.992187.117187 2.109375.15625 11.09375.15625 19.648437.117188 27.8125.117187 35.46875.15625 42.539063.15625 48.90625.117188 54.648437.117187 59.609375.15625 63.789063.117188 67.1875.15625 69.804687.117187 71.601563.15625 72.617187.117188 72.851563" class="a"/></g><g clip-path="url(#E)"><path d="M1055.622813 741.622813l.390625-254.375.390625-226.09375.390625-164.0625.390625-73.476563.390625 34.921875.390625 145.546875.390625 239.570313.390625 297.96875" class="a"/></g><g clip-path="url(#F)"><path d="M1121.286875 741.622813l.390625 297.929687.390625 239.570313.351563 145.546875.429687 34.921875.390625-73.476563.351563-164.023437.390625-226.09375.390625-254.375" class="a"/></g><g clip-path="url(#G)"><path d="M1058.747813 741.622813l.351562 256.171875.3125 226.757812.3125 163.476563.351563 71.914062.3125-36.71875.3125-146.5625.351562-239.101562.3125-295.9375" class="a"/></g><g clip-path="url(#H)"><path d="M1118.669688 741.622813l.3125-295.9375.351562-239.140625.3125-146.5625.3125-36.71875.3125 71.914062.351563 163.4375.3125 226.835938.351562 256.171875" class="a"/></g><g clip-path="url(#I)"><path d="M1061.365 741.622813l.273438-257.695313.273437-227.382812.273438-162.96875.273437-70.546875.273438 38.164062.273437 147.421875.273438 238.710938.273437 294.296875" class="a"/></g><g clip-path="url(#J)"><path d="M1116.443125 741.622813l.273438 294.257812.3125 238.75.273437 147.382813.273438 38.203125.273437-70.625.273438-162.929688.273437-227.34375.273438-257.695312" class="a"/></g><g clip-path="url(#K)"><path d="M1063.5525 741.622813l.234375 258.984375.234375 227.851562.273438 162.5.234375 69.453125.234375-39.453125.234375-148.125.234375-238.359375.234375-292.851562" class="a"/></g><g clip-path="url(#L)"><path d="M1114.568125 741.622813l.234375-292.890625.234375-238.359375.234375-148.125.234375-39.414063.234375 69.453125.234375 162.460938.273438 227.890625.195312 258.984375" class="a"/></g><g clip-path="url(#M)"><path d="M1065.466563 741.622813l.195312-260.117188.195313-228.28125L1066.0525 91.115l.234375-68.4375.195313 40.507813.195312 148.710937.195313 238.085938.234375 291.640625" class="a"/></g><g clip-path="url(#N)"><path d="M1112.9275 741.622813l.195313 291.640625.234375 238.085937.195312 148.710938.195313 40.507812.195312-68.476562.234375-162.109375.195313-228.28125.195312-260.078125" class="a"/></g><g clip-path="url(#O)"><path d="M1067.107188 741.622813l.15625 261.054687.195312 228.671875.15625 161.757813.195313 67.578125.15625-41.445313.195312-149.21875.195313-237.851562.15625-290.546875" class="a"/></g><g clip-path="url(#P)"><path d="M1111.482188 741.622813l.195312-290.585938.195313-237.851562.15625-149.21875.195312-41.445313.15625 67.617188.195313 161.757812.15625 228.632813.195312 261.09375" class="a"/></g><g clip-path="url(#Q)"><path d="M1068.513438 741.622813l.195312-261.953125.117188-228.984375L1069.02125 89.24l.15625-66.835937.15625 42.304687.117188 149.648438.195312 237.617187.15625 289.648438" class="a"/></g><g clip-path="url(#R)"><path d="M1110.232188 741.622813l.15625 289.648437.15625 237.578125.15625 149.6875.15625 42.265625.15625-66.835937.15625-161.445313.15625-228.984375.15625-261.914062" class="a"/></g><g clip-path="url(#S)"><path d="M1069.8025 741.622813l.117188 262.695312.15625 229.257813.117187 161.132812.15625 66.171875.15625-43.007812.117188-150.039063.15625-237.421875.117187-288.789062" class="a"/></g><g clip-path="url(#T)"><path d="M1109.138438 741.622813l.117187-288.828125.117188-237.382813.15625-150.078125.15625-43.007812.117187 66.171875.15625 161.171875.15625 229.257812.117188 262.695313" class="a"/></g><g clip-path="url(#U)"><path d="M1070.89625 741.622813l.15625-263.398438.117188-229.492187.117187-160.898438.117188-65.585937.15625 43.671875.117187 150.390625.117188 237.1875.117187 288.125" class="a"/></g><g clip-path="url(#V)"><path d="M1108.122813 741.622813l.117187 288.085937.117188 237.1875.117187 150.429688.117188 43.632812.15625-65.546875.117187-160.898437.117188-229.53125.15625-263.359375" class="a"/></g><g clip-path="url(#W)"><path d="M1071.911875 741.622813l.117188 263.984375.117187 229.726562.117188 160.664063.117187 65.039062.117188-44.257812.117187-150.703125.078125-237.03125.15625-287.421875" class="a"/></g><g clip-path="url(#X)"><path d="M1107.185313 741.622813l.117187-287.460938.117188-237.03125.117187-150.703125.117188-44.257812.117187 65.039062.117188 160.703125.117187 229.726563.117188 263.984375" class="a"/></g><g clip-path="url(#Y)"><path d="M1072.849375 741.622813l.078125-264.570313.117188-229.921875.078125-160.46875.117187-64.53125.117188 44.765625.078125 150.976563.117187 236.875.078125 286.875" class="a"/></g><g clip-path="url(#Z)"><path d="M1106.365 741.622813l.117188 286.835937.117187 236.875.078125 151.015625.117188 44.726563.117187-64.53125.078125-160.46875.117188-229.921875.078125-264.53125" class="a"/></g><g clip-path="url(#a0)"><path d="M1073.630625 741.622813l.117188 265.039062.078125 230.117188.078125 160.273437.117187 64.101563.078125-45.273438.117188-151.25.078125-236.71875.078125-286.289062" class="a"/></g><g clip-path="url(#a1)"><path d="M1105.622813 741.622813l.117187-286.328125.078125-236.71875.117188-151.25.078125-45.234375.078125 64.0625.117187 160.3125.078125 230.078125.078125 265.078125" class="a"/></g><g clip-path="url(#a2)"><path d="M1074.372813 741.622813 1074.49 476.115l.078125-230.273437.078125-160.117188.078125-63.671875.078125 45.664063.078125 151.484375.117188 236.5625.078125 285.859375" class="a"/></g><g clip-path="url(#a3)"><path d="M1104.95875 741.622813l.078125 285.820312.078125 236.601563.078125 151.484375.117188 45.664062.078125-63.710937.078125-160.117188.078125-230.234375.078125-265.507812" class="a"/></g><g clip-path="url(#a4)"><path d="M1075.075938 741.622813l.078125 265.9375.078125 230.390625.078125 159.960937.078125 63.28125.078125-46.015625.078125-151.71875.078125-236.445312.078125-285.390625" class="a"/></g><g clip-path="url(#a5)"><path d="M1104.33375 741.622813l.078125-285.390625.078125-236.484375.078125-151.679688.078125-46.054687.078125 63.320312.078125 159.921875.078125 230.429688.078125 265.9375" class="a"/></g><g clip-path="url(#a6)"><path d="M1075.700938 741.622813l.078125-266.328125.039062-230.546875.078125-159.804688.078125-62.96875.078125 46.40625.078125 151.875.078125 236.367188.039063 285" class="a"/></g><g clip-path="url(#a7)"><path d="M1103.786875 741.622813l.039063 284.960937.078125 236.367188.078125 151.875.078125 46.445312.078125-63.007812.078125-159.804688.039062-230.546875.078125-266.289062" class="a"/></g><g clip-path="url(#a8)"><path d="M1076.247813 741.622813l.078125 266.679687.078125 230.664063.078125 159.648437.039062 62.65625.078125-46.757812.039063-152.03125.078125-236.289063.078125-284.570312" class="a"/></g><g clip-path="url(#a9)"><path d="M1103.24 741.622813l.078125-284.609375.078125-236.25.039063-152.070313.078125-46.757812.039062 62.65625.078125 159.6875.078125 230.664062.078125 266.679688" class="a"/></g><g clip-path="url(#aa)"><path d="M1076.794688 741.622813l.039062-267.03125.078125-230.78125.039063-159.53125.078125-62.34375.078125 47.03125.039062 152.226562.078125 236.132813.039063 284.296875" class="a"/></g><g clip-path="url(#ab)"><path d="M1102.732188 741.622813l.078125 284.257812.078125 236.132813.039062 152.226562.078125 47.070313.039063-62.382813.078125-159.53125.039062-230.78125.078125-266.992187" class="a"/></g><g clip-path="url(#ac)"><path d="M1077.263438 741.622813l.078125 267.304687.039062 230.898438.078125 159.414062.039063 62.070313.078125-47.34375.039062-152.34375.078125-236.054688.039063-283.945312" class="a"/></g><g clip-path="url(#ad)"><path d="M1102.3025 741.622813l.039063-283.945313.078125-236.09375.039062-152.34375.078125-47.34375.039063 62.109375.078125 159.414063.039062 230.898437.039063 267.304688" class="a"/></g><g clip-path="url(#ae)"><path d="M1077.732188 741.622813l.039062-267.617188.078125-230.976562.039063-159.296875.078125-61.835938.039062 47.578125.039063 152.5.078125 235.976563.039062 283.671875" class="a"/></g><g clip-path="url(#af)"><path d="M1101.872813 741.622813l.039062 283.632812.078125 235.976563.039063 152.5.039062 47.617187.078125-61.835937.039063-159.296875.039062-231.015625.078125-267.578125" class="a"/></g><g clip-path="url(#ag)"><path d="M1078.161875 741.622813l.039063 267.851562.078125 231.09375.039062 159.179688.039063 61.640625.039062-47.890625.078125-152.617188.039063-235.898437.039062-283.359375" class="a"/></g><g clip-path="url(#ah)"><path d="M1101.482188 741.622813l.039062-283.359375.039063-235.9375.078125-152.617188.039062-47.851562.039063 61.601562.039062 159.21875.078125 231.054688.039063 267.890625" class="a"/></g><g clip-path="url(#ai)"><path d="M1078.5525 741.622813l.039063-268.125.039062-231.171875.078125-159.101563.039063-61.367187.039062 48.085937.039063 152.734375.039062 235.820313.078125 283.125" class="a"/></g><g clip-path="url(#aj)"><path d="M1101.091563 741.622813l.039062 283.085937.078125 235.820313.039063 152.773437.039062 48.085938.039063-61.40625.039062-159.101563.078125-231.171875.039063-268.085937" class="a"/></g><path d="M107.9453 146.3906h2.2148V2.3867h-2.2148zm0 0" class="b"/><path d="M1078.943125 21.58375v1440.039063h22.148438V21.58375zm0 0" class="a"/></g><clipPath id="al"><path d="M1 73h217.9492v1H1zm0 0"/></clipPath><clipPath id="am"><path d="M217 70h1.9492v7H217zm0 0"/></clipPath><clipPath id="an"><path d="M.9492 7H99v88H.9492zm0 0"/></clipPath><clipPath id="ao"><path d="M121 7h97.9492v88H121zm0 0"/></clipPath><clipPath id="ap"><path d="M0 0h219v146H0z"/></clipPath><g id="ar" clip-path="url(#ap)"><g clip-path="url(#al)"><path d="M9.992188 731.622813H2170.03125" class="c"/></g><g class="b"><path d="M1.6992 70.3984h.6016v6h-.6016zm0 0"/><path d="M109.6992 70.3984h.6016v6h-.6016zm0 0"/><path d="M217.6992 70.3984h.6016v6h-.6016zm0 0" clip-path="url(#am)"/></g><path d="M1090.03125 11.58375v1440.039063" class="c"/><g class="b"><path d="M106.9375 145.0391h6v.6016h-6zm0 0"/><path d="M106.9375 73.0391h6v.6016h-6zm0 0"/><path d="M106.9375 1.0391h6v.6016h-6zm0 0"/></g><g clip-path="url(#an)"><path d="M9.992188 1337.482188l6.054687-1.25 6.054687-1.210938 18.164063-3.867187 6.054687-1.328125 18.164063-4.101563 6.054687-1.40625 6.054688-1.445312 12.109375-2.96875 12.109375-3.046875 6.054688-1.5625 12.109374-3.203125 6.054688-1.640625 6.054688-1.679688 12.109374-3.4375 6.054688-1.757812 6.054688-1.796875 6.054687-1.835938 12.109375-3.75 6.054688-1.914062 12.109374-3.984375 6.054688-2.03125 6.054688-2.070313 6.054687-2.109375 6.054687-2.148437 6.054688-2.1875 6.054688-2.265625 6.054687-2.226563 12.109375-4.6875 6.015625-2.421875 6.09375-2.460937 6.054687-2.5 6.015626-2.539063 6.09375-2.578125 12.109374-5.390625 6.054688-2.734375 6.054688-2.8125 6.054687-2.890625 6.054687-2.929687 6.054688-2.96875 6.054688-3.085938 6.015624-3.085937 6.09375-3.164063 6.015626-3.242187 6.054687-3.320313 6.09375-3.398437 6.015625-3.4375 6.054688-3.554688 6.054687-3.59375 6.054687-3.671875 6.054688-3.75 6.09375-3.828125 6.015625-3.945312 6.054687-3.984375 6.054688-4.101563 6.054688-4.179687 6.054687-4.296875 6.054687-4.375 6.054688-4.453125 6.054688-4.570313 6.054687-4.6875 6.054687-4.765625L458 1148.9275l6.054688-5 6.054687-5.117187 6.054687-5.234375 6.054688-5.351563 6.054688-5.46875 6.054687-5.625 6.054687-5.742187 6.054688-5.859375 6.054688-6.015625 6.054687-6.171875 6.054687-6.289063 6.054688-6.445312 6.054688-6.601563 6.054687-6.757812 6.054687-6.914063 6.054688-7.070312 6.054688-7.265625 6.054687-7.421875 6.054687-7.578125 6.054688-7.773438 6.054688-7.96875 6.054687-8.125 6.054687-8.359375 6.054688-8.515625 6.054688-8.710937 6.054687-8.945313 6.054687-9.101562 6.054688-9.335938 6.054688-9.570312 6.054687-9.726563 6.054687-9.960937 6.054688-10.15625 6.054688-10.390625 6.054687-10.625 6.054687-10.78125 6.054688-11.015625 6.054688-11.25 6.054687-11.40625 6.054687-11.601563 6.054688-11.796875 6.015625-11.953125 6.09375-12.148437 6.054687-12.265625 6.054688-12.421875 6.054688-12.539063 6.015624-12.578125 6.09375-12.65625 6.054688-12.695312 6.015625-12.65625 6.054687-12.578125 6.09375-12.5 6.015626-12.304688 6.09375-12.109375 6.015624-11.757812 6.054688-11.40625 6.054688-10.9375 6.09375-10.3125 6.054687-9.609375 6.015625-8.789063 6.054688-7.8125 6.09375-6.679687 6.015624-5.351563 6.054688-3.90625 6.054688-2.226562 6.054687-.390625 6.054687 1.679687 6.054688 3.984375 6.054688 6.40625 6.054687 9.023438 6.054687 11.757812 6.054688 14.570313 6.054688 17.34375 6.054687 19.960937 6.054687 22.304688L912.0625 706.4275l6.054688 25.195313" class="c"/></g><g clip-path="url(#ao)"><path d="M1261.90625 731.622813l6.054688-25.195313 6.054687-24.101562 6.054687-22.304688 6.054688-19.960937 6.054688-17.34375 6.054687-14.570313 6.054687-11.757812 6.054688-9.023438 6.054688-6.40625 6.054687-3.984375 6.054687-1.679687 6.054688.390625 6.054688 2.226562 6.054687 3.90625 6.054687 5.351563 6.054688 6.679687 6.054688 7.8125 6.015624 8.789063 6.09375 9.609375L1383 630.372813l6.054688 10.9375 6.054687 11.40625 6.054687 11.757812 6.054688 12.109375 6.054688 12.304688 6.054687 12.5 6.015625 12.578125 6.09375 12.65625 6.015625 12.695312 6.09375 12.65625 6.015625 12.578125 6.054688 12.539063 6.054687 12.421875 6.054687 12.265625 6.054688 12.148437 6.09375 11.953125 6.015625 11.796875 6.054687 11.601563 6.09375 11.40625 6.015626 11.25 6.09375 11.015625 6.015624 10.78125 6.054688 10.625 6.054688 10.390625 6.054687 10.15625 6.054687 9.960937 6.054688 9.726563 6.054688 9.570312 6.09375 9.335938 6.015624 9.101562 6.054688 8.945313 6.054688 8.710937 6.054687 8.515625 6.054687 8.359375 6.054688 8.125 6.054688 7.96875 6.054687 7.773438 6.054687 7.578125 6.054688 7.421875 6.054688 7.265625 6.054687 7.070312 6.054687 6.914063 6.054688 6.757812 6.054688 6.601563 6.054687 6.445312 6.054687 6.289063 6.054688 6.171875 6.054688 6.015625 6.054687 5.859375 6.054687 5.742187 6.054688 5.625 6.054688 5.46875 6.054687 5.351563 6.054687 5.234375 6.054688 5.117187 6.054688 5 6.054687 4.921875 6.054687 4.765625 6.054688 4.6875 6.054688 4.570313 6.054687 4.453125 6.054687 4.375 6.054688 4.296875 6.054688 4.179687 6.054687 4.101563 6.054687 3.984375 6.054688 3.945312 6.054688 3.828125 6.054687 3.75 6.054687 3.671875 6.054688 3.59375 6.054688 3.554688 6.054687 3.4375 6.054687 3.398437 6.054688 3.320313 6.054688 3.242187 6.054687 3.164063 12.109375 6.171875 6.054688 2.96875 6.054687 2.929687 6.054687 2.890625 6.015626 2.8125 6.054687 2.734375 6.09375 2.695313 6.054687 2.695312 6.054688 2.578125 6.054688 2.539063 6.015624 2.5 6.054688 2.460937 6.09375 2.421875 6.015625 2.34375 6.054687 2.34375 6.054688 2.226563 6.054688 2.265625 6.054687 2.1875 6.054687 2.148437 6.054688 2.109375 6.054688 2.070313 6.054687 2.03125 12.109375 3.984375 6.054688 1.914062 6.09375 1.875 6.015624 1.875 6.054688 1.835938 6.054688 1.796875 6.054687 1.757812 12.109375 3.4375 6.054688 1.679688 6.054687 1.640625 12.109375 3.203125 6.054688 1.5625 12.109374 3.046875 12.109376 2.96875 6.054687 1.445312 6.054687 1.40625 18.164063 4.101563 6.054687 1.328125 18.164063 3.867187 6.054687 1.210938 6.054688 1.25" class="c"/></g><g style="stroke-width:3.985;stroke-linecap:butt;stroke-linejoin:miter;stroke:#000;stroke-opacity:1;stroke-miterlimit:10;transform:matrix(.1,0,0,-.1,.95,146.549)"><g fill="none"><path d="M918.117188 731.622813l2.070312 8.554687 2.03125 8.515625 2.03125 8.398438 2.070312 8.242187 2.03125 8.007813 2.03125 7.734375 2.070313 7.304687 2.03125 6.914063 2.070313 6.367187 2.03125 5.742188 2.03125 5.039062 2.070312 4.21875 2.03125 3.359375 2.070312 2.421875 2.03125 1.328125 2.03125.195313 2.070313-.976563 2.03125-2.265625 2.070313-3.554687 2.03125-4.882813 2.03125-6.25 2.070312-7.539062 2.03125-8.789063 2.03125-10 2.070312-10.976562 2.03125-11.835938 2.03125-12.5 2.070313-12.773437"/><path d="M1204.601562 731.622813l2.070313 12.773437 2.03125 12.5 2.03125 11.835938 2.070313 10.976562 2.03125 10 2.070312 8.789063 2.03125 7.539062 2.03125 6.25 2.070312 4.882813 2.03125 3.554687 2.03125 2.265625 2.070313.976563 2.03125-.195313 2.03125-1.328125 2.070313-2.421875 2.03125-3.359375 2.070312-4.21875 2.03125-5.039062 2.03125-5.742188 2.070312-6.367187 2.03125-6.914063 2.070313-7.304687 2.03125-7.734375 2.03125-8.007813 2.070313-8.242187 2.03125-8.398438 2.070312-8.515625 2.03125-8.554687"/><path d="M975.421875 731.622813l2.03125-12.8125 1.015625-6.289063 1.054688-6.09375 1.015624-5.9375 1.015626-5.664062 1.015624-5.3125 1.015626-4.960938 1.015624-4.492187 1.054688-3.984375 1.015625-3.398438 1.015625-2.773437 1.015625-2.109375 1.015625-1.367188 1.054688-.546875 1.015624.234375 1.015626 1.132813 1.054687 1.992187 1.015625 2.890625 1.015625 3.75 1.015625 4.648438 1.015625 5.46875 1.054687 6.210937 1.015626 6.953125 1.015624 7.539063 1.015626 8.007812 1.015624 8.359375 1.015626 8.554688"/><path d="M1175.96875 731.622813l1.015625-8.554688L1178 714.70875l1.015625-8.007812 1.015625-7.539063 1.054688-6.953125 1.015624-6.210937 1.015626-5.46875 1.015624-4.648438 1.054688-3.75 1.015625-2.890625 1.015625-1.992187 1.015625-1.132813 1.015625-.234375 1.054688.546875 1.015624 1.367188 1.015626 2.109375 1.015624 2.773437 1.015626 3.398438 1.054687 3.984375 1.015625 4.492187 1.015625 4.960938 1.015625 5.3125 1.015625 5.664062 1.054687 5.9375 1.015626 6.09375 1.015624 6.289063 2.03125 12.8125"/><path d="M1004.054688 731.622813l1.25 10.234375.585937 5 .625 4.84375.625 4.726562.625 4.453125.585937 4.140625.625 3.867188.625 3.476562.625 3.007813.585938 2.578125.625 2.03125.625 1.523437.585938.898438.625.273437.625-.390625.585937-1.015625.625-1.71875.625-2.382812.625-3.046875.585937-3.632813.625-4.296875.625-4.804687.585938-5.3125.625-5.703125.625-6.054688.625-6.289062.585938-6.40625"/><path d="M1158.78125 731.622813l.585938 6.40625.625 6.289062.625 6.054688.625 5.703125.585937 5.3125.625 4.804687.625 4.296875.585937 3.632813.625 3.046875.625 2.382812.625 1.71875.585938 1.015625.625.390625.625-.273437.585938-.898438.625-1.523437.625-2.03125.625-2.578125.585937-3.007813.625-3.476562.625-3.867188.585937-4.140625.625-4.453125.625-4.726562.585938-4.84375.625-5 1.25-10.234375"/><path d="M1021.242188 731.622813l.429687-4.296875.390625-4.257813.429688-4.140625.390624-4.023437.429688-3.90625.390625-3.671875.429687-3.4375.390626-3.164063.429687-2.8125.390625-2.421875.429688-2.070312.390624-1.601563.429688-1.132812.390625-.664063.390625-.15625.429688.429688.390624.898437.429688 1.484375.429688 2.03125.390624 2.5.390626 3.046875.429687 3.476563.429687 3.945312.390626 4.296875.390624 4.609375.429688 4.882813.390625 5 .429687 5.15625"/><path d="M1147.296875 731.622813l.429687-5.15625.390626-5 .429687-4.882813.390625-4.609375.429688-4.296875.390624-3.945312.429688-3.476563.390625-3.046875.429687-2.5.390626-2.03125.429687-1.484375.390625-.898437.429688-.429688.390624.15625.429688.664063.390625 1.132812.390625 1.601563.429688 2.070312.429687 2.421875.390625 2.8125.390625 3.164063.429687 3.4375.390626 3.671875.429687 3.90625.390625 4.023437.429688 4.140625.390624 4.257813.429688 4.296875"/><path d="M1032.726562 731.622813l.3125 3.671875.273438 3.632812.273438 3.554688.3125 3.476562.273437 3.28125.3125 3.125.273437 2.929688.3125 2.65625.273438 2.382812.3125 2.03125.273438 1.71875.273437 1.328125.3125.898438.3125.507812.273437.078125.3125-.390625.273438-.859375.273438-1.289062.3125-1.71875.273437-2.1875.3125-2.578125.273437-2.929688.3125-3.320312.3125-3.59375.273438-3.867188.273438-4.0625.3125-4.21875.273437-4.257812"/><path d="M1139.132812 731.622813l.273438 4.257812.3125 4.21875.273438 4.0625.3125 3.867188.273437 3.59375.3125 3.320312.273437 2.929688.3125 2.578125.273438 2.1875.3125 1.71875.273438 1.289062.3125.859375.273437.390625.273437-.078125.3125-.507812.273438-.898438.3125-1.328125.3125-1.71875.273438-2.03125.273437-2.382812.3125-2.65625.273437-2.929688.3125-3.125.273438-3.28125.3125-3.476562.273438-3.554688.3125-3.632812.273437-3.671875"/><path d="M1040.890625 731.622813l.234375-3.242188.234375-3.164062.195313-3.125.234374-3.007813.195313-2.890625.234375-2.695312.195312-2.539063.234376-2.304687.234374-2.070313.234376-1.757812.195312-1.445313.234375-1.132812.195313-.78125.234374-.390625h.195313l.234375.351562.234375.78125.195313 1.132813.234374 1.523437.234376 1.914063.195312 2.226562.234375 2.539063.234375 2.851562.195312 3.125.234376 3.320313.195312 3.515625.234375 3.59375.234375 3.671875"/><path d="M1132.960938 731.622813l.234374-3.671875.234376-3.59375.195312-3.515625.234375-3.320313.234375-3.125.195312-2.851562.234376-2.539063.234374-2.226562.195313-1.914063.234375-1.523437.195312-1.132813.234376-.78125.234374-.351562h.195313l.234375.390625.234375.78125.195313 1.132812.234374 1.445313.195313 1.757812.234375 2.070313.234375 2.304687.195313 2.539063.234374 2.695312.195313 2.890625.234375 3.007813.195312 3.125.234376 3.164062.234374 3.242188"/><path d="M1047.0625 731.622813l.15625 2.851562.15625 2.8125.15625 2.773438.195312 2.65625.15625 2.578125.195313 2.421875.15625 2.226562.15625 2.03125.195313 1.796875.15625 1.523438.15625 1.289062.195312.976563.195312.664062.15625.3125h.15625l.15625-.351562.15625-.664063.195313-1.054687.195313-1.328125.15625-1.679688.15625-1.992187.15625-2.265625.195312-2.539063.15625-2.695312.195312-2.929688.15625-3.085937.15625-3.125.195313-3.203125"/><path d="M1128.195312 731.622813l.195313 3.203125.15625 3.125.15625 3.085937.195313 2.929688.15625 2.695312.15625 2.539063.195312 2.265625.15625 1.992187.195312 1.679688.15625 1.328125.195313 1.054687.15625.664063.15625.351562h.195313l.15625-.3125.15625-.664062.195312-.976563.15625-1.289062.15625-1.523438.195312-1.796875.15625-2.03125.15625-2.226562.195313-2.421875.15625-2.578125.195313-2.65625.15625-2.773438.15625-2.8125.15625-2.851562"/><path d="M1051.828125 731.622813l.117187-2.578125.15625-2.539063.117188-2.5.15625-2.382812.117188-2.304688.15625-2.1875.117187-1.992187.117187-1.796875.15625-1.640625.15625-1.367188.117188-1.132812.15625-.859375.117188-.546875.15625-.3125.117187.039062.15625.3125.117187.625.15625.9375.117188 1.25.15625 1.484375.117188 1.796875.15625 2.03125.117187 2.226563.15625 2.460937.117187 2.578125.117188 2.734375.15625 2.8125.15625 2.851563"/><path d="M1124.40625 731.622813l.117188-2.851563.117187-2.8125.15625-2.734375.117187-2.578125.15625-2.460937.117188-2.226563.15625-2.03125.117188-1.796875.15625-1.484375.117187-1.25.15625-.9375.15625-.625.117187-.3125.117188-.039062.15625.3125.15625.546875.117188.859375.15625 1.132812.117187 1.367188.15625 1.640625.117187 1.796875.117188 1.992187.15625 2.1875.117188 2.304688.15625 2.382812.117187 2.5.15625 2.539063.117187 2.578125"/><path d="M1055.65625 731.622813l.078125 2.304687.117187 2.34375.117188 2.226563.117188 2.1875.117187 2.109375.117187 1.953125.117188 1.796875.078125 1.640625.117187 1.445312.117188 1.25.117188 1.015625.117187.78125.117187.507813.117188.234375.078125-.039063.117187-.273437.117188-.585938.117188-.859375.117187-1.132812.117187-1.367188.078126-1.601562.117187-1.835938.117187-2.03125.117188-2.1875.117188-2.34375.117187-2.460937.117187-2.539063.078126-2.539062"/><path d="M1121.28125 731.622813l.117188 2.539062.078124 2.539063.117188 2.460937.117188 2.34375.117187 2.1875.117187 2.03125.117188 1.835938.078125 1.601562.117187 1.367188.117188 1.132812.117188.859375.117187.585938.117187.273437.117188.039063.078125-.234375.117187-.507813.117188-.78125.117188-1.015625.117187-1.25.117187-1.445312.117188-1.640625.078125-1.796875.117187-1.953125.117188-2.109375.117188-2.1875.117187-2.226563.117187-2.34375.117188-2.304687"/><path d="M1058.742188 731.622813l.117187-2.148438.078125-2.109375.117188-2.070312.078124-2.03125.078126-1.875.117187-1.796875.078125-1.679688.078125-1.484375.117187-1.328125.078126-1.132812.117187-.898438.078125-.703125.078125-.46875.117187-.195312h.078126l.117187.3125.078125.546875.078125.78125.117187 1.015625.078126 1.289062.078124 1.445313.117188 1.679687.078125 1.835938.117187 2.03125.078126 2.109375.078124 2.226562.117188 2.304688.078125 2.34375"/><path d="M1118.664062 731.622813l.078126-2.34375.117187-2.304688.078125-2.226562.117188-2.109375.078124-2.03125.078126-1.835938.117187-1.679687.078125-1.445313.078125-1.289062.117187-1.015625.078126-.78125.117187-.546875.078125-.3125h.078125l.117187.195312.078126.46875.078124.703125.117188.898438.078125 1.132812.117187 1.328125.078126 1.484375.078124 1.679688.117188 1.796875.078125 1.875.078125 2.03125.117188 2.070312.078124 2.109375.117188 2.148438"/><path d="M1061.359375 731.622813l.15625 3.90625.078125 1.914062.078125 1.835938.078125 1.757812.078125 1.679688.078125 1.523437.078125 1.367188.078125 1.210937.078125 1.054688.078125.820312.078125.625.078125.429688.078125.195312.078125-.039062.117188-.273438.039062-.507812.078125-.742188.117187-.9375.039063-1.171875.117187-1.328125.078126-1.5625.039062-1.679687.078125-1.835938.078125-1.953125.078125-2.070312.117187-2.109375.078126-2.109375"/><path d="M1116.476562 731.622813l.15625 4.21875.078126 2.070312.078124 1.953125.078126 1.835938.078124 1.679687.078126 1.5625.078124 1.328125.039063 1.171875.117187.9375.078126.742188.078124.507812.078126.273438.078124.039062.078126-.195312.078124-.429688.078126-.625.078124-.820312.078126-1.054688.078124-1.210937.078126-1.367188.078124-1.523437.078126-1.679688.078124-1.757812.078126-1.835938.078124-1.914062.15625-3.90625"/><path d="M1063.585938 731.622813l.039062-1.835938.078125-1.835937.078125-1.757813.078125-1.71875.039063-1.640625.078124-1.523437.078126-1.40625.039062-1.289063.078125-1.132812.078125-.9375.039062-.78125.078126-.546875.078124-.390625.078126-.195313.039062.039063.078125.273437.078125.46875.078125.664063.078125.898437.039062 1.054688.078126 1.25.039062 1.445312.078125 1.5625.078125 1.71875.078125 1.796875.078125 1.875.039062 1.953125.078126 1.992188"/><path d="M1114.5625 731.622813l.078125-1.992188.078125-1.953125.078125-1.875.039063-1.796875.078124-1.71875.078126-1.5625.039062-1.445312.078125-1.25.078125-1.054688.039062-.898437.078126-.664063.078124-.46875.078126-.273437.039062-.039063.078125.195313.078125.390625.078125.546875.039063.78125.078124.9375.078126 1.132812.039062 1.289063.078125 1.40625.078125 1.523437.039062 1.640625.078126 1.71875.078124 1.757813.15625 3.671875"/><path d="M1065.460938 731.622813l.078124 1.679687.039063 1.71875.039063 1.640625.078124 1.601563.039063 1.523437.078125 1.40625.039062 1.328125.078126 1.171875.039062 1.054688.078125.898437.078125.703125.039062.546875.039063.351563.078125.15625.078125-.039063.117187-.703125.039063-.625.039063-.820312.078124-1.015625.039063-1.132813L1066.75 741.74l.039062-1.484375.078126-1.5625.039062-1.679687.078125-1.757813.039063-1.835937.078124-1.796875"/><path d="M1112.921875 731.622813 1113 733.419688l.039062 1.835937.078126 1.757813.039062 1.679687.078125 1.5625.039063 1.484375.078124 1.328125.039063 1.132813.078125 1.015625.039062.820312.078126.625.039062.46875.078125.234375.039063.039063.078124-.15625.039063-.351563.078125-.546875.039062-.703125.078126-.898437.039062-1.054688.078125-1.171875.039063-1.328125.078124-1.40625.039063-1.523437.078125-1.601563.039062-1.640625.078126-1.71875.039062-1.679687"/><path d="M1067.101562 731.622813l.039063-1.640625.078125-1.5625.078125-3.046875.039063-1.40625.078124-1.367188.039063-1.210937.039063-1.132813.078124-.976562.039063-.820313.039063-.664062.078124-.507813.039063-.3125.039063-.15625.039062.039063.078125.234375.039063.429687.078124.585938.039063.78125.039063.9375.039062 1.09375.039062 1.25.078126 1.367187.039062 1.484375.078125 1.5625.039063 1.640625.039062 1.679688.039062 1.71875"/><path d="M1111.515625 731.622813l.039063-1.71875.039062-1.679688.039062-1.640625.078126-1.5625.039062-1.484375.078125-1.367187.039063-1.25.039062-1.09375.039062-.9375.078126-.78125.039062-.585938.039062-.429687.078126-.234375.039062-.039063.117188.46875.039062.507813.039062.664062.039063.820313.078125.976562.039062 1.132813.078126 1.210937.039062 1.367188.039062 1.40625.039063 1.523437.078125 1.523438.039062 1.5625.039063 1.640625"/></g><g class="b"><path d="M1068.507812 717.286875v28.671875l21.523438-14.335937zm0 0"/><path d="M1111.515625 717.286875v28.671875l-21.484375-14.335937zm0 0"/></g></g></g><path id="a" d="M101 .5508h12V81h-12zm0 0"/><path id="b" d="M105 68h12v80h-12zm0 0"/><path id="c" d="M105 .5508h12V81h-12zm0 0"/><path id="d" d="M101 68h13v80h-13zm0 0"/><path id="e" d="M101 .5508h13V81h-13zm0 0"/><path id="f" d="M104 68h13v80h-13zm0 0"/><path id="g" d="M104 .5508h13V81h-13zm0 0"/><path id="h" d="M102 .5508h12V81h-12zm0 0"/><path id="i" d="M102 68h12v80h-12zm0 0"/><path id="j" d="M104 .5508h12V81h-12zm0 0"/></defs><use href="#aq"/><use transform="translate(244 2)" href="#ar"/><style>.a{fill:none;stroke:#000;stroke-linecap:butt;stroke-linejoin:miter;stroke-miterlimit:10;stroke-opacity:1;stroke-width:3.985;transform:matrix(.1,0,0,-.1,.051,148.549)}.b{fill:#000;fill-opacity:1;fill-rule:nonzero}.c{fill:none;stroke:#000;stroke-linecap:butt;stroke-linejoin:miter;stroke-miterlimit:10;stroke-opacity:1;stroke-width:3.985;transform:matrix(.1,0,0,-.1,.95,146.549)}</style></svg>