<svg xmlns="http://www.w3.org/2000/svg" width="221pt" height="112pt" viewBox="0 0 221 112"><g style="fill:none;stroke-width:3.985;stroke-miterlimit:10;transform:matrix(.1,0,0,-.1,0,112)"><g stroke="#727272"><path d="M40 31.601562l10.820312 1080"/><path d="M40 31.601562l16.210938 1080"/><path d="M40 31.601562l24.296875 1080"/><path d="M40 31.601562l36.445312 1080"/><path d="M40 31.601562l54.6875 1080"/><path d="M40 31.601562l82.03125 1080"/><path d="M40 31.601562l123.007812 1080"/><path d="M40 31.601562l184.53125 1080"/><path d="M40 31.601562l276.796875 1080"/><path d="M40 31.601562l415.195312 1080"/><path d="M40 31.601562l622.773438 1080"/><path d="M40 31.601562l934.179688 1080"/><path d="M40 31.601562l1401.289062 1080"/><path d="M40 31.601562l2101.914062 1080"/></g><path stroke="#000" d="M40 31.601562h2160.039062"/></g><path d="M3.7461 105.8516h.6016v6h-.6016zm0 0"/><path d="M57.75 105.8516h.6016v6H57.75zm0 0"/><path d="M111.75 105.8516h.6016v6h-.6016zm0 0"/><path d="M165.75 105.8516h.6016v6h-.6016zm0 0"/><path d="M219.75 105.8516h.6016v6h-.6016zm0 0"/><path d="M40 31.601562v1080" style="fill:none;stroke-width:3.985;stroke:#000;stroke-miterlimit:10;transform:matrix(.1,0,0,-.1,0,112)"/><path d="M.9883 108.4922h6v.6016h-6zm0 0"/><path d="M.9883 54.4922h6v.6016h-6zm0 0"/><path d="M.9883.4922h6v.6016h-6zm0 0"/><path d="M40 31.601562l.859375 21.601563 2.617187 21.601563 4.296876 21.601562 6.054687 21.601562 7.773437 21.601563 9.492188 21.601563 11.25 21.601562 12.929688 21.601562 14.6875 21.601563 16.445312 21.601563 18.164062 21.5625 19.84375 21.640624 21.601563 21.5625 23.320313 21.601563 25.078124 21.601563 26.757813 21.601562 28.515625 21.601562 30.234375 21.601563 31.992187 21.640625 33.671876 21.5625 35.429687 21.601562 37.148437 21.601563 38.90625 21.601563L537.65625 550 580 571.601562l44.0625 21.601563 45.78125 21.601563 47.539062 21.601562 49.257813 21.601562 50.976563 21.601563 52.695312 21.601563 54.453125 21.601562 56.132813 21.601562 57.890624 21.601563 59.609376 21.601563 61.367187 21.601562 63.085937 21.601562 64.765626 21.601563 66.523437 21.601563 68.28125 21.601562 69.960937 21.601562 71.71875 21.601563 73.4375 21.5625 75.195313 21.640625 76.875 21.601562 78.632813 21.5625 80.351562 21.640626 82.070312 21.5625 83.828126 21.640624 85.546874 21.5625" style="fill:none;stroke-width:7.9701;stroke:#000;stroke-miterlimit:10;transform:matrix(.1,0,0,-.1,0,112)"/></svg>