<svg xmlns="http://www.w3.org/2000/svg" width="143pt" height="97pt" viewBox="0 0 143 97"><defs><path d="M3.1719-1.1875l-.125-.21875-.5312.375c-.359375.25-.59375.359375-.734375.359375-.09375 0-.15625-.09375-.15625-.234375 0-.3125.140625-1.25.515625-3.015625l.1563-.73437h1.2813l.125-.60937c-.4533.046865-.85955.078115-1.312675.078115.1875-1.125.328125-1.703125.53125-2.359375l-.125-.17187c-.234375.140625-.5625.28125-.9375.421875L1.5625-5.26562c-.515625.25-.828125.390625-1.046875.453125l-.0312.15625H1.5l-.6719 3.375c-.0625.296875-.15625.59375-.15625.90625 0 .296875.125.484375.359375.484375.421875 0 .828125-.234375 1.765625-1 .21875-.15625.140625-.109375.375-.296875zm0 0" id="a"/><path d="M.7813-4.14062h6.4375v-.71875H.7813zm0 2.53125h6.4375v-.70313H.7813zm0 0" id="b"/><path d="M5.5625-4.375c0-2.625-.78125-3.859375-2.421875-3.859375-1.84375 0-2.796875 1.46875-2.796875 4.359375 0 1.40625.25 2.609375.671875 3.1875.421875.59375 1.09375.921875 1.828125.921875C4.65625.234375 5.5625-1.3125 5.5625-4.375zm-1.0156.59375C4.546875-1.234375 4.09375-.171875 3-.171875c-1.15625 0-1.65625-1.21875-1.65625-4.125 0-2.53125.453125-3.515625 1.578125-3.515625 1.171875 0 1.625 1.171875 1.625 4.03125zm0 0" id="c"/><path d="M5 .03125v-.35937l-.625-.03125c-.65625-.03125-.78125-.171875-.78125-.78125v-7.09375l-.1562-.0625c-.78125.40625-1.625.765625-2.71875 1.15625l.0781.5h.125C1.453125-6.875 1.96875-7.109375 2.5-7.34375c.0625 0 .09375.109375.09375.40625v5.79688c0 .609375-.125.75-.78125.78125l-.6719.03125v.35937C1.8125.015625 2.46875 0 3.125 0 3.734375 0 4.375.015625 5 .03125zm0 0" id="d"/><path d="M5.5938.03125c-.0313-.25-.0313-.359375-.0313-.53125 0-.15625 0-.28125.03125-.546875l-4.1406.125 2.1875-2.3125c1.15625-1.21875 1.515625-1.875 1.515625-2.78125 0-1.375-.9375-2.21875-2.453125-2.21875-.8594 0-1.45315.234375-2.031275.828125L.4688-5.76562h.3437l.1563-.5625c.1875-.6875.625-.984375 1.421875-.984375 1.03125 0 1.6875.640625 1.6875 1.65625 0 .90625-.5 1.78125-1.859375 3.21875L.1875-.28125v.3125C1.078125.015625 1.96875 0 2.859375 0 3.765625 0 4.6875.015625 5.59375.03125zm0 0" id="e"/><path d="M5.5156-2.67187c0-.578125-.234375-1.078125-.65625-1.375-.3125-.21875-.578125-.3125-1.171875-.421875.953125-.75 1.3125-1.296875 1.3125-2 0-1.0625-.890625-1.765625-2.21875-1.765625-.8125 0-1.34375.21875-1.921875.796875l-.3437 1.48438h.375L1.0938-6.625c.140625-.40625.890625-.8125 1.515625-.8125.765625 0 1.40625.640625 1.40625 1.390625 0 .890625-.703125 1.640625-1.546875 1.640625-.109375 0-.5625-.03125-.5625-.03125l-.1563.64063.0938.0625C2.296875-3.9375 2.515625-4 2.84375-4c1 0 1.5625.640625 1.5625 1.734375C4.40625-1.046875 3.6875-.25 2.5625-.25c-.546875 0-1.03125-.1875-1.390625-.515625-.28125-.265625-.4375-.53125-.671875-1.1875l-.3281.125c.265625.734375.359375 1.15625.421875 1.75.640625.21875 1.15625.3125 1.609375.3125 1.4375 0 3.3125-1.25 3.3125-2.90625zm0 0" id="f"/><path d="M5.6406.03125v-.35937l-.5781-.03125c-.578125-.03125-.71875-.1875-.71875-.90625v-.89062c.71875 0 .96875 0 1.296875.046875v-.85937s-.578125.046875-.96875.046875H4.3438v-1.67189c0-2.125.03125-3.15625.09375-3.640625l-.1406-.0625-.8906.32813-3.375 5.53125.125.28125h3.1875v.89063c0 .71875-.125.890625-.71875.90625l-.7344.03125V.03125C2.53125.015625 3.171875 0 3.8125 0c.609375 0 1.21875.015625 1.828125.03125zM3.3438-2.92187H.7813l2.5625-4.21875zm0 0" id="g"/></defs><g style="fill:none;stroke:#000;stroke-miterlimit:10;transform:matrix(.1,0,0,-.1,0,97)"><g stroke-width="3.985"><path d="M103.984375 143.203125h1152.03125"/><path d="M320 41.601562v900"/></g><path stroke-width="7.9701" d="M320 143.203125h720.039062"/></g><path d="M95.7813 82.67969v1.49219l8.2227-1.49219-8.2227-1.49609v1.49609"/><g class="a"><path d="M957.8125 143.203125V128.28125l82.226562 14.921875-82.226562 14.960937zm0 0"/><path d="M1040.039062 143.203125v725.820313"/></g><path d="M104.0039 18.31641h1.4922l-1.4922-8.21875-1.4961 8.21875h1.4961"/><g class="a"><path d="M1040.039062 786.835938h14.921876l-14.921876 82.1875-14.960937-82.1875zm0 0"/><path d="M1040.039062 869.023438H320"/></g><path d="M40.2188 10.09766v-1.4961L32 10.09766l8.2188 1.49609v-1.49609"/><g class="a"><path d="M402.1875 869.023438v14.960937L320 869.023438l82.1875-14.960938zm0 0"/><path d="M320 869.023438V143.203125"/></g><path d="M32 74.46094h-1.4922L32 82.67969l1.4961-8.21875H32"/><path d="M320 225.390625h-14.921875L320 143.203125l14.960938 82.1875zm0 0" class="a"/><use x="35.7211" y="92.61602" href="#a"/><use x="43.7609" y="92.61602" href="#b"/><use x="55.041" y="92.61602" href="#c"/><use x="100.5215" y="92.73594" href="#a"/><use x="108.5614" y="92.73594" href="#b"/><use x="119.8415" y="92.73594" href="#d"/><use x="108.1067" y="14.17734" href="#a"/><use x="116.1465" y="14.17734" href="#b"/><use x="127.4266" y="14.17734" href="#e"/><use x="2.6966" y="14.05703" href="#a"/><use x="10.7365" y="14.05703" href="#b"/><use x="22.0166" y="14.05703" href="#f"/><use x="2.6967" y="79.50043" href="#a"/><use x="10.7365" y="79.50043" href="#b"/><use x="22.0166" y="79.50043" href="#g"/><style>.a{fill:none;stroke:#000;stroke-miterlimit:10;stroke-width:7.9701;transform:matrix(.1,0,0,-.1,0,97)}</style></svg>