<svg xmlns="http://www.w3.org/2000/svg" width="140pt" height="89pt" viewBox="0 0 140 89"><defs><clipPath id="a"><path d="M.2891 0H140v89H.2891zm0 0"/></clipPath><clipPath id="b"><path d="M0 0h140v89H0z"/></clipPath><g id="c" clip-path="url(#b)"><path fill-rule="evenodd" fill="#dcdcdc" fill-opacity="1" d="M35.0391 37.76563 54.8828.91797l22.6758 28.34375 48.1875-17.00391-11.3398 42.51563 25.5117 34.01562-90.7031-11.33984-5.6719-19.83984L1.0234 40.60156"/><g clip-path="url(#a)"><path d="M347.480625 517.83375l198.4375 368.476563 226.757813-283.4375 481.875 170.039062-113.398438-425.15625 255.117188-340.15625-907.03125 113.398438-56.71875 198.398437L7.324375 489.474375zm0 0" style="fill:none;stroke-width:4.72425;stroke-linecap:butt;stroke-linejoin:miter;stroke:#000;stroke-opacity:1;stroke-dasharray:9.4485,9.4485;stroke-dashoffset:9.4485;stroke-miterlimit:10;transform:matrix(.1,0,0,-.1,.291,89.549)"/></g><path d="M75.8594 49.10547c0 .625-.507813 1.132812-1.136719 1.132812-.625 0-1.132812-.507812-1.132812-1.132812s.507812-1.132813 1.132812-1.132813c.628906 0 1.136719.507813 1.136719 1.132813" class="a"/><path d="M755.68375 404.435313c0-6.25-5.078125-11.328125-11.367187-11.328125-6.25 0-11.328125 5.078125-11.328125 11.328125s5.078125 11.328125 11.328125 11.328125c6.289062 0 11.367187-5.078125 11.367187-11.328125zm0 0" class="b"/><path d="M112.707 66.11328c0 .625-.507812 1.132813-1.132812 1.132813-.628907 0-1.136719-.507813-1.136719-1.132813s.507812-1.132812 1.136719-1.132812c.625 0 1.132812.507812 1.132812 1.132812" class="a"/><path d="M1124.160313 234.357188c0-6.25-5.078125-11.328125-11.328125-11.328125-6.289063 0-11.367188 5.078125-11.367188 11.328125s5.078125 11.328125 11.367188 11.328125c6.25 0 11.328125-5.078125 11.328125-11.328125zm0 0" class="b"/><path d="M56.0156 74.61719c0 .625-.507813 1.132812-1.132813 1.132812-.628906 0-1.136718-.507812-1.136718-1.132812s.507812-1.132813 1.136718-1.132813c.625 0 1.132813.507813 1.132813 1.132813" class="a"/><path d="M557.24625 149.318125c0-6.25-5.078125-11.328125-11.328125-11.328125-6.289062 0-11.367187 5.078125-11.367187 11.328125s5.078125 11.328125 11.367187 11.328125c6.25 0 11.328125-5.078125 11.328125-11.328125zm0 0" class="b"/><path d="M112.707 46.26953c0 .628907-.507812 1.136719-1.132812 1.136719-.628907 0-1.136719-.507812-1.136719-1.136719 0-.625.507812-1.132812 1.136719-1.132812.625 0 1.132812.507812 1.132812 1.132812" class="a"/><path d="M1124.160313 432.794688c0-6.289063-5.078125-11.367188-11.328125-11.367188-6.289063 0-11.367188 5.078125-11.367188 11.367188 0 6.25 5.078125 11.328125 11.367188 11.328125 6.25 0 11.328125-5.078125 11.328125-11.328125zm0 0" class="b"/><path d="M121.2109 20.76172c0 .625-.507813 1.132812-1.132813 1.132812-.628906 0-1.136719-.507812-1.136719-1.132812 0-.628907.507813-1.136719 1.136719-1.136719.625 0 1.132813.507812 1.132813 1.136719" class="a"/><path d="M1209.199375 687.872813c0-6.25-5.078125-11.328125-11.328125-11.328125-6.289062 0-11.367187 5.078125-11.367187 11.328125 0 6.289062 5.078125 11.367187 11.367187 11.367187 6.25 0 11.328125-5.078125 11.328125-11.367187zm0 0" class="b"/><path d="M73.0234 34.93359c0 .625-.507813 1.132812-1.132813 1.132812-.628906 0-1.136719-.507812-1.136719-1.132812 0-.628906.507813-1.132813 1.136719-1.132813.625 0 1.132813.503907 1.132813 1.132813" class="a"/><path d="M727.324375 546.154063c0-6.25-5.078125-11.328125-11.328125-11.328125-6.289062 0-11.367187 5.078125-11.367187 11.328125 0 6.289062 5.078125 11.328125 11.367187 11.328125 6.25 0 11.328125-5.039063 11.328125-11.328125zm0 0" class="b"/><path d="M53.1797 20.76172c0 .625-.507813 1.132812-1.132813 1.132812s-1.132813-.507812-1.132813-1.132812c0-.628907.507813-1.136719 1.132813-1.136719s1.132813.507812 1.132813 1.136719" class="a"/><path d="M528.886875 687.872813c0-6.25-5.078125-11.328125-11.328125-11.328125s-11.328125 5.078125-11.328125 11.328125c0 6.289062 5.078125 11.367187 11.328125 11.367187s11.328125-5.078125 11.328125-11.367187zm0 0" class="b"/><path d="M47.5117 34.93359c0 .625-.507813 1.132812-1.132813 1.132812s-1.132812-.507812-1.132812-1.132812c0-.628906.507812-1.132813 1.132812-1.132813s1.132813.503907 1.132813 1.132813" class="a"/><path d="M472.207188 546.154063c0-6.25-5.078125-11.328125-11.328125-11.328125s-11.328125 5.078125-11.328125 11.328125c0 6.289062 5.078125 11.328125 11.328125 11.328125s11.328125-5.039063 11.328125-11.328125zm0 0" class="b"/><path d="M16.332 43.4375c0 .625-.507812 1.132812-1.132812 1.132812S14.0625 44.0625 14.0625 43.4375c0-.628906.511719-1.136719 1.136719-1.136719s1.132812.507813 1.132812 1.136719" class="a"/><g class="b"><path d="M160.410313 461.115c0-6.25-5.078125-11.328125-11.328125-11.328125S137.715 454.865 137.715 461.115c0 6.289063 5.117188 11.367188 11.367188 11.367188s11.328125-5.078125 11.328125-11.367188zm0 0"/><path d="M744.316563 404.435313l453.554687 283.4375"/><path d="M744.316563 404.435313l-28.320313 141.71875"/><path d="M744.316563 404.435313l-226.757813 283.4375"/><path d="M744.316563 404.435313 149.082188 461.115"/><path d="M744.316563 404.435313l-283.4375 141.71875"/><path d="M744.316563 404.435313 545.918125 149.318125"/><path d="M744.316563 404.435313l368.515625 28.359375"/><path d="M744.316563 404.435313l368.515625-170.078125"/></g></g><path d="M5.6094-3.78125c0-.921875-.515625-1.484375-1.375-1.484375-.78125 0-1.359375.375-2.046875 1.34375l.375-1.29687s-.03125-.046875-.0625-.046875h-.0156l-1.8437.25.0313.1875c.359375 0 .78125 0 .78125.328125 0 .140625-.421875 1.78125-.859375 3.375l-.6875 2.67188c-.125.5625-.28125.703125-.796875.71875v.1875h2.4375v-.1875c-.5625 0-.765625-.09375-.765625-.359375 0-.15625.203125-1.0625.453125-1.984375C1.53125.078125 1.75.125 2.015625.125c1.75 0 3.59375-1.984375 3.59375-3.90625zm-1.0781.04688c0 .78125-.328125 1.78125-.828125 2.5-.515625.75-1.09375 1.140625-1.734375 1.140625-.328125 0-.5625-.1875-.5625-.4375 0-.40625.40625-1.96875.765625-2.859375C2.484375-4.1875 3.15625-4.75 3.734375-4.75c.015625 0 .046875 0 .0625 0 .5.015625.734375.328125.734375 1.015625zm0 0" id="d"/><path d="M4.9688-1.23437l-.1562-.09375c-.109375.125-.15625.1875-.265625.328125-.28125.359375-.40625.46875-.5625.46875-.171875 0-.28125-.15625-.359375-.484375-.03125-.109375-.046875-.171875-.046875-.1875-.296875-1.125-.4375-1.765625-.4375-1.953125.53125-.921875.953125-1.453125 1.171875-1.453125.078125 0 .1875.046875.296875.109375.140625.078125.21875.09375.328125.09375.234375 0 .40625-.171875.40625-.421875 0-.265625-.203125-.4375-.484375-.4375-.53125 0-.96875.421875-1.8125 1.703125l-.125-.65625c-.171875-.8125-.296875-1.046875-.625-1.046875-.28125 0-.65625.09375-1.40625.34375l-.125.04688.0469.17188L1.0156-4.75c.234375-.0625.375-.078125.46875-.078125.296875 0 .375.109375.53125.828125l.3438 1.46875-.9687 1.39063C1.140625-.78125.90625-.5625.78125-.5625c-.078125 0-.203125-.03125-.3125-.109375C.3125-.75.1875-.78125.078125-.78125c-.234375 0-.40625.171875-.40625.40625 0 .3125.234375.5.609375.5.359375 0 .5-.09375 1.109375-.8125L2.4688-2.10937l.3594 1.4375c.140625.625.296875.796875.6875.796875.453125 0 .765625-.28125 1.453125-1.359375zm0 0" id="e"/></defs><use href="#c"/><use x="75.625" y="63.279" href="#d"/><use x="105.935" y="77.453" href="#e"/><style>.a{fill:#000;fill-opacity:1;fill-rule:evenodd}.b{fill:none;stroke:#000;stroke-linecap:butt;stroke-linejoin:miter;stroke-miterlimit:10;stroke-opacity:1;stroke-width:4.72425;transform:matrix(.1,0,0,-.1,.291,89.549)}</style></svg>