<svg xmlns="http://www.w3.org/2000/svg" width="144pt" height="109pt" viewBox="0 0 144 109"><defs><path d="M3.1719-1.1875l-.125-.2187-.5312.375c-.359375.25-.59375.359375-.734375.359375-.09375 0-.15625-.09375-.15625-.234375 0-.3125.140625-1.25.515625-3.015625l.1563-.7344h1.2813l.125-.6094c-.4533.046875-.85955.078125-1.312675.078125.1875-1.125.328125-1.703125.53125-2.359375l-.125-.1719c-.234375.140625-.5625.28125-.9375.421875L1.5625-5.2656c-.515625.25-.828125.390625-1.046875.453125l-.0312.1563H1.5l-.6719 3.375c-.0625.296875-.15625.59375-.15625.90625 0 .296875.125.484375.359375.484375.421875 0 .828125-.234375 1.765625-1 .21875-.15625.140625-.109375.375-.296875zm0 0" id="a"/><path d="M5.3594-.9375l-.0937-.2344c-.4375.359375-.734375.53125-.921875.53125S4-.75 3.890625-.984375s-.25-.671875-.3125-1.03125L3.375-3.2187l.4219-.5781c.546875-.78125.875-1.0625 1.25-1.0625.1875 0 .328125.109375.390625.28125L5.6094-4.625l.1719-1.0156c-.140625-.078125-.25-.125-.359375-.125-.46875 0-.953125.4375-1.6875 1.53125l-.4531.6563-.0625-.5625c-.140625-1.1875-.46875-1.625-1.171875-1.625-.3125 0-.578125.09375-.6875.25l-.6875 1L.875-4.4062c.359375-.40625.59375-.5625.828125-.5625.390625 0 .65625.484375.859375 1.65625l.125.75-.4687.7344c-.515625.796875-.921875 1.1875-1.265625 1.1875C.78125-.640625.640625-.6875.625-.75l-.1406-.3437-.2344.0468c0 .2344-.015625.39065-.09375.76565C.125-.125.125-.09375.109375-.015625.28125.078125.484375.125.625.125c.390625 0 .859375-.34375 1.234375-.90625l.9063-1.3906.125.8281C3.0625-.328125 3.328125.125 3.75.125c.265625 0 .65625-.203125 1.03125-.546875zm0 0" id="b"/><path d="M5.8594-5.6562l-.1406-.1094c-.34375.140625-.609375.203125-.875.234375l-.4219 1.5781c-.140625.5625-.5625 1.4375-.953125 2.015625-.421875.609375-1 1.140625-1.265625 1.140625s-.25-.578125-.234375-.734375l.1875-2.3125c.015625-.375.046875-.828125.046875-1.171875 0-.53125-.09375-.75-.296875-.75-.15625 0-.3125.09375-.890625.484375l-.9844.6719.1406.2031.5938-.3437c.0625-.0625.21875-.15625.296875-.15625.3125 0 .265625.609375.25.8125L1.1094-1.1875l-.0156.4688c0 .5.21875.84375.515625.84375.453125 0 1.453125-1.015625 2.34375-2.359375L3.375-.1875c-.609375 2.109375-1.21875 2.984375-2.046875 2.984375-.421875 0-.75-.328125-.75-.734375 0-.0625.015625-.15625.03125-.265625L.4844 1.75l-.5625.4063c-.015625.078125-.015625.15625-.015625.203125 0 .515625.4375.9375.984375.9375 1.265625 0 2.578125-1.484375 3.28125-3.6875zm0 0" id="c"/><path d="M2.6094-1.2969l-.1719-.1718c-.328125.109375-.53125.171875-1.171875.359375C1.1875-.203125.890625.578125.1875 1.71875l.1719.1406.4844-.2344c.96875-1.25 1.421875-2 1.765625-2.921875zm0 0" id="e"/><path d="M.7813-4.1406h6.4375v-.7187H.7813zm0 2.5313h6.4375v-.7032H.7813zm0 0" id="d"/><path d="M5.5625-4.375c0-2.625-.78125-3.859375-2.421875-3.859375-1.84375 0-2.796875 1.46875-2.796875 4.359375 0 1.40625.25 2.609375.671875 3.1875.421875.59375 1.09375.921875 1.828125.921875C4.65625.234375 5.5625-1.3125 5.5625-4.375zm-1.0156.5938C4.546875-1.234375 4.09375-.171875 3-.171875c-1.15625 0-1.65625-1.21875-1.65625-4.125 0-2.53125.453125-3.515625 1.578125-3.515625 1.171875 0 1.625 1.171875 1.625 4.03125zm0 0" id="f"/><path d="M5 .0313v-.3594l-.625-.0312c-.65625-.03125-.78125-.171875-.78125-.78125v-7.0937l-.1562-.0625c-.78125.40625-1.625.765625-2.71875 1.15625l.0781.5h.125c.531225-.2345 1.04685-.468875 1.5781-.70325.0625 0 .09375.109375.09375.40625v5.7969c0 .609375-.125.75-.78125.78125l-.6719.0313V.0313C1.8125.015625 2.46875 0 3.125 0 3.734375 0 4.375.015625 5 .03125zm0 0" id="g"/><path d="M3.7656 2.1094H2.6719c-.40625 0-.609375-.203125-.609375-.65625v-9.4687c0-.40625.15625-.5625.5625-.5625h1.1406v-.3125h-2.6562v11.3125h2.6563zm0 0" id="h"/><path d="M.4375 2.1094v.3125h2.6406V-8.8906H.4375v.3125H1.5c.421875 0 .625.21875.625.65625V1.5625c0 .390625-.171875.546875-.5625.546875zm0 0" id="i"/></defs><g style="fill:none;stroke:#000;stroke-miterlimit:10;transform:matrix(.1,0,0,-.1,0,109)"><g stroke-width="3.985"><path d="M0 109.609375h1440.039062"/><path d="M270 1.601562v1080"/></g><path stroke-width="7.9701" d="M360 433.59375 1170.039062 865.625"/></g><path d="M109.75 26.3047l.7031 1.3203 6.5508-5.1875-7.957 2.5508.7031 1.3164"/><g style="stroke-width:7.9701;stroke:#000;stroke-miterlimit:10;transform:matrix(.1,0,0,-.1,0,109)"><path fill="none" d="M1097.5 826.953125l7.03125-13.203125 65.507812 51.875-79.570312-25.507812zm0 0"/><path d="M374.960938 433.59375c0 8.28125-6.679688 14.960938-14.960938 14.960938-8.242188 0-14.921875-6.679688-14.921875-14.960938 0-8.242188 6.679687-14.921875 14.921875-14.921875 8.28125 0 14.960938 6.679687 14.960938 14.921875zm0 0"/><path d="M1184.960938 865.625c0 8.242188-6.679688 14.921875-14.921876 14.921875-8.28125 0-14.960937-6.679687-14.960937-14.921875 0-8.28125 6.679687-14.960938 14.960937-14.960938 8.242188 0 14.921876 6.679688 14.921876 14.960938zm0 0"/></g><use x="36.1199" y="75.577" href="#a"/><use x="44.1597" y="75.577" href="#d"/><use x="55.4398" y="75.577" href="#f"/><use x="32.88" y="58.5461" href="#b"/><use x="104.4011" y="16.3418" href="#a"/><use x="112.441" y="16.3418" href="#d"/><use x="123.7211" y="16.3418" href="#g"/><use x="118.5012" y="32.5191" href="#c"/><use x="57.9606" y="33.1191" href="#h"/><use x="62.5207" y="33.1191" href="#b"/><use x="69.4809" y="33.1191" href="#e"/><use x="75.361" y="33.1191" href="#c"/><use x="81.9609" y="33.1191" href="#i"/></svg>