<svg xmlns="http://www.w3.org/2000/svg" width="164pt" height="148pt" viewBox="0 0 164 148"><defs><path d="M5.3594-.9375l-.0937-.2344c-.4375.359375-.734375.53125-.921875.53125S4-.75 3.890625-.984375s-.25-.671875-.3125-1.03125L3.375-3.2187l.4219-.5781c.546875-.78125.875-1.0625 1.25-1.0625.1875 0 .328125.109375.390625.28125L5.6094-4.625l.1719-1.0156c-.140625-.078125-.25-.125-.359375-.125-.46875 0-.953125.4375-1.6875 1.53125l-.4531.6563-.0625-.5625c-.140625-1.1875-.46875-1.625-1.171875-1.625-.3125 0-.578125.09375-.6875.25l-.6875 1L.875-4.4062c.359375-.40625.59375-.5625.828125-.5625.390625 0 .65625.484375.859375 1.65625l.125.75-.4687.7344c-.515625.796875-.921875 1.1875-1.265625 1.1875C.78125-.640625.640625-.6875.625-.75l-.1406-.3437-.2344.0468c0 .2344-.015625.39065-.09375.76565C.125-.125.125-.09375.109375-.015625.28125.078125.484375.125.625.125c.390625 0 .859375-.34375 1.234375-.90625l.9063-1.3906.125.8281C3.0625-.328125 3.328125.125 3.75.125c.265625 0 .65625-.203125 1.03125-.546875zm0 0" id="a"/><path d="M5.8594-5.6562l-.1406-.1094c-.34375.140625-.609375.203125-.875.234375l-.4219 1.5781c-.140625.5625-.5625 1.4375-.953125 2.015625-.421875.609375-1 1.140625-1.265625 1.140625s-.25-.578125-.234375-.734375l.1875-2.3125c.015625-.375.046875-.828125.046875-1.171875 0-.53125-.09375-.75-.296875-.75-.15625 0-.3125.09375-.890625.484375l-.9844.6719.1406.2031.5938-.3437c.0625-.0625.21875-.15625.296875-.15625.3125 0 .265625.609375.25.8125L1.1094-1.1875l-.0156.4688c0 .5.21875.84375.515625.84375.453125 0 1.453125-1.015625 2.34375-2.359375L3.375-.1875c-.609375 2.109375-1.21875 2.984375-2.046875 2.984375-.421875 0-.75-.328125-.75-.734375 0-.0625.015625-.15625.03125-.265625L.4844 1.75l-.5625.4063c-.015625.078125-.015625.15625-.015625.203125 0 .515625.4375.9375.984375.9375 1.265625 0 2.578125-1.484375 3.28125-3.6875zm0 0" id="b"/><path d="M4.9375-8.6094c-.203125-.09375-.546875-.15625-.84375-.15625-.125 0-.3125.046875-.40625.09375-.296875.125-1.265625.859375-1.546875 1.140625-.265625.265625-.40625.625-.53125 1.296875l-.1875.9531C.9375-5.046925.6875-4.953175.390625-4.8438l-.0625.2656h.9688l-.1094.672C.828125-1.578125.390625.640625.125 1.46875c-.21875.703125-.5625 1.078125-1 1.078125-.265625 0-.421875-.078125-.625-.34375L-1.6562 2.25c-.046875.265625-.21875.84375-.28125.953125.109375.0625.28125.09375.421875.09375.484375 0 1.140625-.375 1.59375-.9375C.8125 1.5 1.0625.6875 1.953125-3.53125c.0625-.296875.15625-.65625.21875-1.046875h1.25c.046875-.234375.125-.5.203125-.671875l-.0469-.0781-.0937.0156c-.28125.09375-.40625.09375-1 .09375h-.1875l.25-1.3437c.1875-1.03125.53125-1.484375 1.078125-1.484375.359375 0 .671875.1875.859375.46875l.125-.0469zm0 0" id="f"/><path d="M2.6094-1.2969l-.1719-.1718c-.328125.109375-.53125.171875-1.171875.359375C1.1875-.203125.890625.578125.1875 1.71875l.1719.1406.4844-.2344c.96875-1.25 1.421875-2 1.765625-2.921875zm0 0" id="g"/><path d="M5.625-1.0156l-.1094-.2187-.3125.2031c-.34375.234375-.609375.359375-.734375.359375-.078125 0-.15625-.109375-.15625-.234375s.015625-.21875.09375-.484375l.75-3.0625c.078125-.296875.140625-.671875.140625-.875 0-.265625-.140625-.4375-.34375-.4375-.40625 0-1.140625.40625-1.890625 1.03125C2.6406-4.390575 2.4531-4.1562 1.8906-3.4687l-.2344.2969L2.8281-8.625l-.1562-.1406c-.609375.3125-1.046875.421875-1.90625.5l-.0469.25h.5781c.28125 0 .40625.09375.40625.296875 0 .09375-.015625.203125-.03125.28125l-.5 2.7969C.84375-2.828125.375-.78125.125-.03125l.0781.1406.8281-.1875c.1875-1.375.390625-2.109375.734375-2.75.53125-.96875 1.765625-2.125 2.28125-2.125.15625 0 .25.109375.25.265625 0 .21875-.0625.671875-.171875 1.0625l-.6094 2.3438c-.109375.4375-.15625.703125-.15625.921875 0 .28125.125.46875.359375.46875.3125 0 .734375-.25 1.90625-1.125zm0 0" id="c"/><path d="M8.0938.0313v-.3281L7.7813-.328c-.5625-.0625-.59375-.09375-.671875-.625l-1.0312-7.4687h-.5625L1.0625-1.3437C.640625-.671875.421875-.484375.015625-.375l-.25.0469v.3594C.21875.015625.671875 0 1.109375 0s.859375.015625 1.28125.03125v-.3281l-.625-.0312C1.5625-.34375 1.40625-.453125 1.40625-.5625c0-.09375.0625-.25.296875-.65625l1.2188-2.0937H5.875l.3125 2.3906c.015625.109375.03125.203125.03125.265625 0 .1875-.1875.296875-.515625.328125l-.5312.0313v.3281C5.671875.015625 6.140625 0 6.640625 0 7.125 0 7.609375.015625 8.09375.03125zM5.8125-3.7344H3.2344l2.125-3.4531zm0 0" id="h"/><path d="M3.6563.0313v-.2656l-.4531-.0312c-.484375-.03125-.5625-.125-.5625-.578125v-5.2031l-.125-.0312c-.5625.296875-1.1875.5625-1.984375.84375l.0625.375h.0781c.390625-.1875.78125-.359375 1.15625-.515625.0625 0 .078125.078125.078125.28125v4.25c0 .453125-.09375.546875-.578125.578125l-.4844.0313V.0313C1.328125.015625 1.8125 0 2.28125 0s.921875.015625 1.375.03125zm0 0" id="d"/><path d="M4.1094.0313c-.03125-.1875-.03125-.28125-.03125-.40625 0-.109375 0-.1875.03125-.390625L1.0625-.6719l1.6094-1.6875c.843725-.906225 1.10935-1.3906 1.10935-2.04685 0-1.015625-.6875-1.640625-1.796875-1.640625-.640625 0-1.0625.1875-1.5.625l-.1406 1.1875h.25l.1094-.4062c.140625-.5.46875-.71875 1.046875-.71875.75 0 1.234375.46875 1.234375 1.21875 0 .65625-.359375 1.296875-1.359375 2.359375L.1406-.2031v.2344C.78125.015625 1.453125 0 2.09375 0c.671875 0 1.34375.015625 2.015625.03125zm0 0" id="e"/><path d="M.7813-4.1406h6.4375v-.7187H.7813zm0 2.5313h6.4375v-.7032H.7813zm0 0" id="i"/><path d="M3.6406-9.0312C1.8125-7.84375.71875-5.796875.71875-3.234375c0 2.34375 1.140625 4.578125 2.875 5.78125L3.75 2.3438C2.09375.90625 1.8125-.484375 1.8125-3.28125 1.8125-6.0625 2.125-7.5 3.75-8.828125zm0 0" id="j"/><path d="M.5-9.0312l-.125.2031C2.015625-7.5 2.328125-6.0625 2.328125-3.28125c0 2.796875-.28125 4.1875-1.953125 5.625l.1563.2031c1.75-1.203125 2.890625-3.4375 2.890625-5.78125C3.421875-5.796875 2.3125-7.84375.5-9.03125zm0 0" id="k"/></defs><path d="M520 541.601562 181.445312 81.5625" class="a"/><path d="M20.625 136.4727l-1.2031-.8867-1.2773 4.2578 3.6836-2.4844-1.2031-.8867"/><path d="M206.25 115.273438l-12.03125 8.867187L181.445312 81.5625l36.835938 24.84375zm0 0" class="a"/><use x="2.9988" y="143.757" href="#a"/><use x="9.359" y="145.557" href="#d"/><path d="M520 541.601562l915.273438-124.6875" class="a"/><path d="M135.6914 105.2422l-.2031 1.4805 8.0391-.4141-7.6328-2.5469-.2031 1.4805"/><path d="M1356.914062 427.578125l-2.03125-14.804687 80.390626 4.140624-76.328126 25.46875zm0 0" class="a"/><use x="145.879" y="114.0621" href="#a"/><use x="152.2392" y="115.8621" href="#e"/><g style="stroke-width:3.985;stroke:#000;stroke-miterlimit:10;transform:matrix(.1,0,0,-.1,0,148)"><g fill="none"><path d="M520 541.601562v610.9375"/><path d="M401.992188 381.289062l26.796874-4.023437"/><path d="M482.382812 369.257812l26.796876-3.984374"/><path d="M509.179688 365.273438l26.796874-3.984376"/><path d="M589.570312 353.28125l26.796876-3.984375"/><path d="M616.367188 349.296875l26.796874-4.023437"/><path d="M696.757812 337.304688l26.796876-4.023438"/><path d="M723.554688 333.28125l26.796874-3.984375"/><path d="M803.945312 321.289062l26.757813-3.984374"/><path d="M917.304688 487.460938l-10.820313-21.25"/><path d="M884.84375 423.671875l-10.820312-21.289063"/><path d="M874.023438 402.382812l-10.859376-21.289062"/><path d="M841.523438 338.554688l-10.820313-21.25"/><path d="M830.703125 317.304688l1.09375 27.96875"/><path d="M833.984375 401.289062l1.09375 27.96875"/><path d="M835.078125 429.257812l1.09375 28.007813"/><path d="M838.320312 513.28125l1.09375 28.007812"/><path d="M839.414062 541.289062l1.09375 27.96875"/><path d="M842.695312 625.234375l1.09375 28.007813"/><path d="M843.789062 653.242188 844.84375 681.25"/><path d="M847.03125 737.265625l1.09375 27.96875"/><path d="M848.125 765.234375l1.09375 28.007813"/><path d="M851.40625 849.21875l1.054688 28.007812"/></g><path d="M845.664062 317.304688c0 8.242187-6.679687 14.921874-14.960937 14.921874-8.242187 0-14.921875-6.679687-14.921875-14.921874 0-8.28125 6.679688-14.960938 14.921875-14.960938 8.28125 0 14.960937 6.679688 14.960937 14.960938zm0 0"/></g><path fill="#818181" d="M37.3398 27.8359l-1.0195.3906-1.0312.4531 2.8672-.1602 2.8828-.0977.9922-.4531.9844-.3906-2.8477.0977-2.8281.1602"/><path d="M373.398438 1201.640625l-10.195313-3.90625-10.3125-4.53125 28.671875 1.601563 28.828125.976562 9.921875 4.53125 9.84375 3.90625-28.476562-.976562zm0 0" class="a"/><path fill="#818181" d="M43.0156 27.5781l-.9844.3906-.9922.4531 2.8984-.0391 2.9102.0195.957-.457.9453-.3906-2.875-.0195-2.8594.043"/><path d="M430.15625 1204.21875l-9.84375-3.90625-9.921875-4.53125 28.984375.390625 29.101562-.195313 9.570313 4.570313 9.453125 3.90625-28.75.195313zm0 0" class="a"/><path d="M48.75 27.5547l-.9453.3906-.957.457 2.9258.0781 2.9375.1406.9219-.4609.9063-.3945-2.8984-.1367-2.8908-.0742" class="y"/><path d="M487.5 1204.453125l-9.453125-3.90625-9.570313-4.570313 29.257813-.78125 29.375-1.40625 9.21875 4.609376 9.0625 3.945312-28.984375 1.367188zm0 0" class="a"/><path d="M35.2891 28.6797l-1.043.5195-1.0547.5898 2.9023-.1602 2.918-.0977 1.0195-.5859 1.0078-.5234-2.8828.0977-2.8672.1602" class="y"/><path d="M352.890625 1193.203125l-10.429687-5.195313-10.546876-5.898437 29.023438 1.601563 29.179688.976562 10.195312 5.859375 10.078125 5.234375-28.828125-.976562zm0 0" class="a"/><path d="M54.5391 27.7656l-.9062.3945-.9219.4609 2.9531.2031 2.9688.2617.8789-.4648.8711-.3984-2.9258-.2578-2.918-.1992" class="y"/><path d="M545.390625 1202.34375l-9.0625-3.945312-9.21875-4.609376 29.53125-2.03125 29.6875-2.617187 8.789063 4.648437 8.710937 3.984376-29.257813 2.578124zm0 0" class="a"/><path d="M60.3828 28.2227l-.8711.3984-.8789.4648 2.9766.3242 2.9883.3867.8438-.4727.8281-.4062-2.9492-.3789-2.9375-.3164" class="y"/><path d="M603.828125 1197.773438l-8.710937-3.984376-8.789063-4.648437 29.765625-3.242187 29.882812-3.867188 8.4375 4.726562 8.28125 4.0625-29.492187 3.789063zm0 0" class="a"/><path d="M41.0391 28.4219l-1.0078.5234-1.0195.5859 2.9297-.0352 2.9492.0234.9844-.5937.9727-.5234-2.9102-.0195-2.8984.0391" class="z"/><path d="M410.390625 1195.78125l-10.078125-5.234375-10.195312-5.859375 29.296874.351562 29.492188-.234374 9.84375 5.9375 9.726562 5.234374-29.101562.195313zm0 0" class="a"/><path d="M66.2695 28.918l-.8281.4063-.8437.4727 3 .4492 3.0117.5117.8008-.4805.793-.418-2.9727-.5-2.9609-.4414" class="z"/><path d="M662.695312 1190.820312l-8.28125-4.0625-8.4375-4.726562 30-4.492188 30.117188-5.117187 8.007812 4.804687 7.929688 4.179688-29.726562 5zm0 0" class="a"/><path d="M46.8477 28.4023l-.9727.5234-.9844.5938 2.9648.082 2.9766.1445.9453-.5977.9336-.5273-2.9375-.1406-2.9258-.0781" class="z"/><path d="M468.476562 1195.976562l-9.726562-5.234374-9.84375-5.9375 29.648438-.820313 29.765624-1.445313 9.453126 5.976563 9.335937 5.273437-29.375 1.40625zm0 0" class="a"/><path d="M72.2031 29.8594l-.793.418-.8008.4805 3.0195.5742 3.0313.6367.7617-.4922.75-.4258-2.9883-.625-2.9805-.5664" class="z"/><path d="M722.03125 1181.40625l-7.929688-4.179688-8.007812-4.804687 30.195312-5.742187 30.3125-6.367188 7.617188 4.921875 7.5 4.257813-29.882812 6.25zm0 0" class="a"/><path d="M33.1914 29.7891l-1.0703.6563-1.0859.7266 2.9375-.1562 2.9531-.0937 1.0469-.7305 1.0391-.6602-2.918.0977-2.9023.1602" class="n"/><path d="M331.914062 1182.109375l-10.703124-6.5625-10.859376-7.265625 29.375 1.5625 29.53125.9375 10.46875 7.304688 10.390626 6.601562-29.179688-.976562zm0 0" class="a"/><path d="M78.1719 31.0508l-.75.4258-.7617.4922 3.0391.7031 3.0469.7617.7188-.5039.707-.4375-3.0039-.75-2.9961-.6914" class="n"/><path d="M781.71875 1169.492188l-7.5-4.257813-7.617188-4.921875 30.390626-7.03125 30.46875-7.617188 7.1875 5.039063 7.070312 4.375-30.039062 7.5zm0 0" class="a"/><path d="M52.7109 28.6211l-.9336.5273-.9453.5977 2.9883.207 3.0078.2695.9063-.6016.8984-.5352-2.9687-.2617-2.9531-.2031" class="n"/><path d="M527.109375 1193.789062l-9.335937-5.273437-9.453126-5.976563 29.882813-2.070312 30.078125-2.695312 9.0625 6.015624 8.984375 5.351563-29.6875 2.617187zm0 0" class="a"/><path d="M84.1719 32.4922l-.707.4375-.7187.5039 3.0547.8281 3.0625.8906.6758-.5195.668-.4492-3.0195-.875-3.0156-.8164" class="n"/><path d="M841.71875 1155.078125l-7.070312-4.375-7.1875-5.039063 30.546874-8.28125 30.625-8.90625 6.757813 5.195313 6.679687 4.492187-30.195312 8.75zm0 0" class="a"/><path d="M58.6328 29.0859l-.8984.5352-.9062.6016 3.0156.332 3.0273.3945.8711-.6094.8555-.543-2.9883-.3867-2.9766-.3242" class="n"/><path d="M586.328125 1189.140625l-8.984375-5.351563-9.0625-6.015624 30.15625-3.320313 30.273438-3.945313 8.710937 6.09375 8.554687 5.429688-29.882812 3.867188zm0 0" class="a"/><path d="M90.207 34.1836l-.668.4492-.6758.5195 3.0703.9531 3.0704 1.0196.6367-.5352.6211-.4648-3.0312-1.0039-3.0234-.9375" class="n"/><path d="M902.070312 1138.164062l-6.679687-4.492187-6.757813-5.195313 30.703126-9.53125L950.039062 1108.75l6.367188 5.351562 6.210938 4.648438-30.3125 10.039062zm0 0" class="a"/><path d="M39.0117 29.5313l-1.0391.6602-1.0469.7305 2.9688-.0352 2.9844.0273 1.0117-.7344 1-.6602-2.9492-.0234-2.9297.0352" class="n"/><path d="M390.117188 1184.6875l-10.390626-6.601562-10.46875-7.304688 29.6875.351562 29.84375-.273437 10.117188 7.34375 10 6.601563-29.492188.234374zm0 0" class="a"/><path d="M96.2617 36.125l-.6211.4648-.6367.5352 3.082 1.082 3.082 1.1484.5938-.5508.5781-.4844-3.043-1.1289-3.0351-1.0663" class="h"/><path d="M962.617188 1118.75l-6.210938-4.648438-6.367188-5.351562 30.820313-10.820312 30.820313-11.484376 5.9375 5.507813 5.78125 4.84375-30.429688 11.289063zm0 0" class="a"/><path d="M102.3398 38.3203l-.5781.4844-.5937.5508 3.0898 1.2109 3.0898 1.2734.5469-.5703.5352-.5039-3.0469-1.2539-3.043-1.1914" class="h"/><path d="M1023.398438 1096.796875l-5.78125-4.84375-5.9375-5.507813 30.898437-12.109374 30.898437-12.734376 5.46875 5.703126 5.351563 5.039062-30.46875 12.539062zm0 0" class="a"/><path d="M108.4297 40.7656l-.5352.5039-.5469.5703 3.0938 1.3398 3.0977 1.3984.5-.5898.4922-.5234-3.0508-1.3828-3.0508-1.3164" class="h"/><path d="M1084.296875 1072.34375l-5.351563-5.039062-5.46875-5.703126 30.9375-13.398437 30.976563-13.984375 5 5.898438 4.921875 5.234374-30.507812 13.828126zm0 0" class="a"/><path d="M64.5977 29.7969l-.8555.543-.8711.6094 3.0391.457 3.0547.5234.8281-.6211.8164-.5508-3.0117-.5117-3-.4492" class="h"/><path d="M645.976562 1182.03125l-8.554687-5.429688-8.710937-6.09375 30.390624-4.570312 30.546876-5.234375 8.28125 6.210937 8.164062 5.507813-30.117188 5.117187zm0 0" class="a"/><path d="M120.6367 46.4102l-.4453.5508-.457.6133 3.0977 1.5938 3.0977 1.6563.4141-.6406.3984-.5742-3.0508-1.6289-3.0547-1.5703" class="h"/><path d="M1206.367188 1015.898438l-4.453126-5.507813-4.570312-6.132813 30.976562-15.9375 30.976563-16.5625 4.140625 6.40625 3.984375 5.742188-30.507813 16.289062zm0 0" class="a"/><path d="M114.5313 43.4648l-.4922.5234-.5.5898 3.0938 1.4688 3.1016 1.5273.457-.6133.4453-.5508-3.0508-1.5039-3.0547-1.4414" class="h"/><path d="M1145.3125 1045.351562l-4.921875-5.234374-5-5.898438 30.9375-14.6875 31.015625-15.273438 4.570312 6.132813 4.453126 5.507813-30.507813 15.039062zm0 0" class="a"/><path d="M44.8906 29.5195l-1 .6602-1.0117.7344 3 .0859 3.0156.1523.9766-.7383.9609-.668-2.9766-.1445-2.9648-.082" class="h"/><path d="M448.90625 1184.804688l-10-6.601563-10.117188-7.34375 30-.859375 30.15625-1.523438 9.765626 7.382813 9.609374 6.679687-29.765624 1.445313zm0 0" class="a"/><path d="M70.6094 30.7578l-.8164.5508-.8281.6211 3.0625.582 3.0703.6484.7891-.6289.7734-.5625-3.0312-.6367-3.0195-.5742" class="h"/><path d="M706.09375 1172.421875l-8.164062-5.507813-8.28125-6.210937 30.625-5.820313 30.703124-6.484374 7.890626 6.289062 7.734374 5.625-30.3125 6.367188zm0 0" class="a"/><path d="M31.0352 31.1719l-1.0977.7969-1.1133.8711 2.9727-.1523 2.9883-.0898 1.0781-.875 1.0625-.8008-2.9531.0938-2.9375.1563" class="A"/><path d="M310.351562 1168.28125 299.375 1160.3125l-11.132812-8.710938 29.726562 1.523438 29.882812.898438 10.78125 8.75 10.625 8.007812-29.53125-.9375zm0 0" class="a"/><path d="M50.832 29.7461l-.9609.668-.9766.7383 3.0313.2109 3.043.2773.9375-.7461.9219-.6719-3.0078-.2695-2.9883-.207" class="A"/><path d="M508.320312 1182.539062l-9.609374-6.679687-9.765626-7.382813 30.3125-2.109374 30.429688-2.773438 9.375 7.460938 9.21875 6.71875-30.078125 2.695312zm0 0" class="a"/><path d="M76.6602 31.9688l-.7734.5625-.7891.6289 3.0781.7109 3.0898.7773.7461-.6406.7344-.5742-3.0469-.7617-3.0391-.7031" class="A"/><path d="M766.601562 1160.3125l-7.734374-5.625-7.890626-6.289062 30.78125-7.109376 30.898438-7.773437 7.460938 6.40625 7.34375 5.742187-30.46875 7.617188zm0 0" class="a"/><path d="M82.7461 33.4336l-.7344.5742-.7461.6406 3.0977.8438 3.1055.9063.7031-.6602.6914-.5859-3.0625-.8906-3.0547-.8281" class="A"/><path d="M827.460938 1145.664062l-7.34375-5.742187-7.460938-6.40625 30.976562-8.4375 31.054688-9.0625 7.03125 6.601563 6.914062 5.859374-30.625 8.90625zm0 0" class="a"/><path d="M56.8281 30.2227l-.9219.6719-.9375.7461 3.0547.3398 3.0703.4023.8945-.7539.8828-.6797-3.0273-.3945-3.0156-.332" class="p"/><path d="M568.28125 1177.773438l-9.21875-6.71875-9.375-7.460938 30.546875-3.398438 30.703125-4.023437 8.945312 7.539063 8.828126 6.796874-30.273438 3.945313zm0 0" class="a"/><path d="M36.9258 30.9219l-1.0625.8008-1.0781.875 3.0039-.0312 3.0273.0313 1.0391-.8789 1.0234-.8047-2.9844-.0273-2.9687.0352" class="p"/><path d="M369.257812 1170.78125l-10.625-8.007812-10.78125-8.75 30.039063.3125 30.273437-.3125 10.390626 8.789062 10.234374 8.046875-29.84375.273437zm0 0" class="a"/><path d="M88.8633 35.1523l-.6914.5859-.7031.6602 3.1133.9688 3.1172 1.0352.6602-.6719.6445-.6055-3.0703-1.0195-3.0703-.9531" class="p"/><path d="M888.632812 1128.476562l-6.914062-5.859374-7.03125-6.601563 31.132812-9.6875 31.171876-10.351563 6.601562 6.71875 6.445312 6.054688-30.703124 10.195312zm0 0" class="a"/><path d="M95.0039 37.125l-.6445.6055-.6602.6719 3.1211 1.1016 3.1289 1.168.6133-.6953.6055-.6211-3.082-1.1484-3.0821-1.0822" class="p"/><path d="M950.039062 1108.75l-6.445312-6.054688-6.601562-6.71875 31.210937-11.015624 31.289063-11.679688 6.132812 6.953125 6.054688 6.210937-30.820313 11.484376zm0 0" class="a"/><path d="M101.168 39.3555l-.6055.6211-.6133.6953 3.1328 1.2266 3.1367 1.2969.5703-.7148.5586-.6406-3.0898-1.2734-3.0898-1.2109" class="p"/><path d="M1011.679688 1086.445312l-6.054688-6.210937-6.132812-6.953125 31.328124-12.265625 31.367188-12.96875 5.703125 7.148437 5.585937 6.40625-30.898437 12.734376zm0 0" class="a"/><path d="M62.8711 30.9492l-.8828.6797-.8945.7539 3.0781.4688 3.0938.5313.8555-.7656.8438-.6875-3.0547-.5234-3.0391-.457" class="p"/><path d="M628.710938 1170.507812l-8.828126-6.796874-8.945312-7.539063 30.78125-4.6875 30.9375-5.3125 8.554688 7.65625 8.4375 6.875-30.546876 5.234375zm0 0" class="a"/><path d="M107.3477 41.8398l-.5586.6406-.5703.7148 3.1367 1.3594 3.1406 1.4258.5273-.7383.5156-.6641-3.0977-1.3984-3.0937-1.3398" class="o"/><path d="M1073.476562 1061.601562l-5.585937-6.40625-5.703125-7.148437 31.367188-13.59375 31.40625-14.257813 5.273437 7.382813 5.15625 6.640625-30.976563 13.984375zm0 0" class="a"/><path d="M119.7344 47.5742l-.4687.6875-.4844.7578 3.1445 1.6172 3.1445 1.6836.4336-.7852.4258-.7109-3.0977-1.6562-3.0977-1.5937" class="o"/><path d="M1197.34375 1004.257812l-4.6875-6.875-4.84375-7.578124 31.445312-16.171876 31.445313-16.835937 4.335937 7.851563 4.257813 7.109374-30.976563 16.5625zm0 0" class="a"/><path d="M113.5391 44.5781l-.5156.6641-.5273.7383 3.1445 1.4883 3.1406 1.5508.4844-.7578.4688-.6875-3.1016-1.5273-3.0937-1.4687" class="o"/><path d="M1135.390625 1034.21875l-5.15625-6.640625-5.273437-7.382813 31.445312-14.882812 31.40625-15.507812 4.84375 7.578124 4.6875 6.875-31.015625 15.273438zm0 0" class="a"/><path d="M42.8789 30.9141l-1.0234.8047-1.0391.8789 3.0352.0898 3.0547.1602 1-.8867.9883-.8086L45.8789 31l-3-.0859" class="o"/><path d="M428.789062 1170.859375l-10.234374-8.046875-10.390626-8.789062 30.351563-.898438 30.546875-1.601562 10 8.867187 9.882812 8.085937L458.789062 1170zm0 0" class="a"/><path d="M68.9648 31.9297l-.8437.6875-.8555.7656 3.1055.5938 3.1133.6602.8125-.7734.8008-.7031-3.0703-.6484-3.0625-.582" class="o"/><path d="M689.648438 1160.703125l-8.4375-6.875-8.554688-7.65625 31.054688-5.9375 31.132812-6.601563 8.125 7.734376 8.007812 7.03125-30.703124 6.484374zm0 0" class="a"/><path d="M28.8242 32.8398l-1.125.9453-1.1406 1.0234 3.0078-.1523 3.0234-.0898 1.1055-1.0234 1.0898-.9453-2.9883.0898-2.9727.1523" class="o"/><path d="M288.242188 1151.601562l-11.25-9.453124-11.40625-10.234376 30.078124 1.523438 30.234376.898438 11.054687 10.234374 10.898437 9.453126-29.882812-.898438zm0 0" class="a"/><path d="M48.8945 31.1523l-.9883.8086-1 .8867 3.0664.2188 3.082.2852.9648-.8906.9492-.8203-3.043-.2773-3.0312-.2109" class="o"/><path d="M488.945312 1168.476562l-9.882812-8.085937-10-8.867187 30.664062-2.1875 30.820313-2.851563 9.648437 8.90625 9.492188 8.203125-30.429688 2.773438zm0 0" class="a"/><path d="M75.0977 33.1602l-.8008.7031-.8125.7734 3.1211.7266 3.1289.7891.7734-.7852.7578-.7187-3.0898-.7773-3.0781-.7109" class="B"/><path d="M750.976562 1148.398438l-8.007812-7.03125-8.125-7.734376 31.210938-7.265624 31.289062-7.890626 7.734375 7.851563 7.578125 7.1875-30.898438 7.773437zm0 0" class="a"/><path d="M81.2656 34.6484l-.7578.7188-.7734.7852 3.1445.8594 3.1445.9219.7305-.8047.7148-.7305-3.1055-.9062-3.0977-.8437" class="B"/><path d="M812.65625 1133.515625l-7.578125-7.1875-7.734375-7.851563 31.445312-8.59375 31.445313-9.21875 7.304687 8.046876 7.148438 7.304687-31.054688 9.0625zm0 0" class="a"/><path d="M34.7852 32.5977l-1.0898.9453-1.1055 1.0234 3.043-.0234 3.0586.0352 1.0703-1.0312 1.0547-.9492-3.0273-.0312-3.0039.0313" class="B"/><path d="M347.851562 1154.023438l-10.898437-9.453126-11.054687-10.234374 30.429687.234374 30.585937-.351562 10.703126 10.3125 10.546874 9.492188-30.273437.3125zm0 0" class="a"/><path d="M54.9688 31.6406l-.9492.8203-.9648.8906 3.0977.3477 3.1094.4102.9219-.8984.9102-.8281-3.0703-.4023-3.0547-.3398" class="B"/><path d="M549.6875 1163.59375l-9.492188-8.203125-9.648437-8.90625 30.976563-3.476563 31.09375-4.101562 9.21875 8.984375 9.101562 8.28125-30.703125 4.023437zm0 0" class="a"/><path d="M87.4688 36.3984l-.7148.7305-.7305.8047 3.1563.9883 3.1602 1.0508.6875-.8203.6719-.75-3.1172-1.0352-3.1133-.9687" class="q"/><path d="M874.6875 1116.015625l-7.148438-7.304687-7.304687-8.046876 31.5625-9.882812 31.601563-10.507812 6.875 8.203124 6.71875 7.5-31.171876 10.351563zm0 0" class="a"/><path d="M93.6992 38.4023l-.6719.75-.6875.8203 3.168 1.1172 3.1719 1.1836.6406-.8359.6289-.7656-3.1289-1.168-3.1211-1.1016" class="q"/><path d="M936.992188 1095.976562l-6.71875-7.5-6.875-8.203124 31.679687-11.171876 31.71875-11.835937 6.40625 8.359375 6.289063 7.65625-31.289063 11.679688zm0 0" class="a"/><path d="M99.9492 40.6719l-.6289.7656-.6406.8359 3.1797 1.25 3.1758 1.3164.5977-.8594.5859-.7852-3.1367-1.2969-3.1328-1.2266" class="q"/><path d="M999.492188 1073.28125l-6.289063-7.65625-6.40625-8.359375 31.796875-12.5 31.757812-13.164063 5.976563 8.59375 5.859375 7.851563-31.367188 12.96875zm0 0" class="a"/><path d="M61.0938 32.3828l-.9102.8281-.9219.8984 3.1211.4805 3.1328.5391.8828-.9102.8672-.8359-3.0937-.5312-3.0781-.4687" class="q"/><path d="M610.9375 1156.171875l-9.101562-8.28125-9.21875-8.984375 31.210937-4.804688 31.328125-5.390624 8.828125 9.101562 8.671875 8.359375-30.9375 5.3125zm0 0" class="a"/><path d="M106.2188 43.1953l-.5859.7852-.5977.8594 3.1875 1.3828 3.1836 1.4453.5547-.8828.5352-.8047-3.1406-1.4258-3.1367-1.3594" class="q"/><path d="M1062.1875 1048.046875l-5.859375-7.851563-5.976563-8.59375 31.875-13.828124 31.835938-14.453126 5.546875 8.828126 5.351563 8.046874-31.40625 14.257813zm0 0" class="a"/><path d="M40.8164 32.5977l-1.0547.9492-1.0703 1.0313 3.0781.1016 3.0898.1641 1.0313-1.0391 1.0156-.957-3.0547-.1602-3.0352-.0898" class="q"/><path d="M408.164062 1154.023438l-10.546874-9.492188-10.703126-10.3125 30.78125-1.015625 30.898438-1.640625 10.3125 10.390625 10.15625 9.570313-30.546875 1.601562zm0 0" class="a"/><path d="M118.7813 49.0195l-.4922.832-.5039.9102 3.1875 1.6406 3.1914 1.707.457-.9336.4492-.8555-3.1445-1.6836-3.1445-1.6172" class="C"/><path d="M1187.8125 989.804688l-4.921875-8.320313-5.039063-9.101563 31.875-16.40625 31.914063-17.070312 4.570313 9.335938 4.492187 8.554687-31.445313 16.835937zm0 0" class="a"/><path d="M112.4961 45.9805l-.5352.8047-.5547.8828 3.1875 1.5156 3.1914 1.5781.5039-.9102.4922-.832-3.1406-1.5508-3.1445-1.4883" class="C"/><path d="M1124.960938 1020.195312l-5.351563-8.046874-5.546875-8.828126 31.875-15.15625 31.914062-15.78125 5.039063 9.101563 4.921875 8.320313-31.40625 15.507812zm0 0" class="a"/><path d="M67.2656 33.3828l-.8672.8359-.8828.9102 3.1445.6094 3.1523.6719.8438-.9219.8281-.8516-3.1133-.6602-3.1055-.5937" class="C"/><path d="M672.65625 1146.171875l-8.671875-8.359375-8.828125-9.101562 31.445312-6.09375 31.523438-6.71875 8.4375 9.21875 8.28125 8.515624-31.132812 6.601563zm0 0" class="a"/><path d="M26.5586 34.8086l-1.1523 1.0977-1.168 1.1758 3.0391-.1445 3.0625-.0859 1.1328-1.1797 1.1172-1.1055-3.0234.0898-3.0078.1523" class="C"/><path d="M265.585938 1131.914062 254.0625 1120.9375l-11.679688-11.757812 30.390626 1.445312 30.625.859375 11.328124 11.796875 11.171876 11.054688-30.234376-.898438zm0 0" class="a"/><path d="M46.9063 32.8477l-1.0156.957-1.0312 1.0391 3.1094.2266 3.1211.293.9883-1.0469.9766-.9648-3.082-.2852-3.0664-.2187" class="D"/><path d="M469.0625 1151.523438l-10.15625-9.570313-10.3125-10.390625 31.09375-2.265625 31.210938-2.929687 9.882812 10.46875 9.765625 9.648437-30.820313 2.851563zm0 0" class="a"/><path d="M73.4844 34.6367l-.8281.8516-.8437.9219 3.168.7422 3.1719.8047.8008-.9414.7813-.8633-3.1289-.7891-3.1211-.7266" class="D"/><path d="M734.84375 1133.632812l-8.28125-8.515624-8.4375-9.21875 31.679688-7.421876 31.71875-8.046874 8.007812 9.414062 7.8125 8.632812-31.289062 7.890626zm0 0" class="a"/><path d="M79.7344 36.1523l-.7812.8633-.8008.9414 3.1836.8711 3.1914.9375.7539-.9531.7422-.8789-3.1445-.9219-3.1445-.8594" class="D"/><path d="M797.34375 1118.476562l-7.8125-8.632812-8.007812-9.414062 31.835937-8.710938 31.914063-9.375 7.539062 9.53125 7.421875 8.789062-31.445313 9.21875zm0 0" class="a"/><path d="M32.5898 34.5664l-1.1172 1.1055-1.1328 1.1797 3.0781-.0195 3.0977.043 1.0977-1.1875 1.0781-1.1094-3.0586-.0352-3.043.0234" class="D"/><path d="M325.898438 1134.335938l-11.171876-11.054688-11.328124-11.796875 30.78125.195313 30.976562-.429688 10.976562 11.875 10.78125 11.09375-30.585937.351562zm0 0" class="a"/><path fill="#8d8d8d" d="M53.0547 33.3516l-.9766.9648-.9883 1.0469 3.1328.3555 3.1484.4258.9531-1.0547.9375-.9805-3.1094-.4102-3.0977-.3477"/><path d="M530.546875 1146.484375l-9.765625-9.648437-9.882812-10.46875 31.328124-3.554688 31.484376-4.257812 9.53125 10.546874 9.375 9.804688-31.09375 4.101562zm0 0" class="a"/><path fill="#8d8d8d" d="M86.0234 37.9336l-.7422.8789-.7539.9531 3.1992 1.0039 3.207 1.0703.7109-.9727.6953-.8945-3.1602-1.0508-3.1562-.9883"/><path d="M860.234375 1100.664062 852.8125 1091.875l-7.539062-9.53125 31.992187-10.039062 32.070313-10.703126 7.109374 9.726563 6.953126 8.945313-31.601563 10.507812zm0 0" class="a"/><path fill="#8d8d8d" d="M92.3398 39.9727l-.6953.8945-.7109.9727 3.2109 1.1367 3.2148 1.207.668-.9922.6523-.918-3.1719-1.1836-3.168-1.1172"/><path d="M923.398438 1080.273438l-6.953126-8.945313-7.109374-9.726563 32.109374-11.367187 32.148438-12.070313 6.679688 9.921876 6.523437 9.179687-31.71875 11.835937zm0 0" class="a"/><path d="M59.2617 34.1094l-.9375.9805-.9531 1.0547 3.1641.4883 3.1719.5547.9102-1.0703.8984-.9883-3.1328-.5391-3.1211-.4805" class="i"/><path d="M592.617188 1138.90625l-9.375-9.804688-9.53125-10.546874 31.640624-4.882813 31.71875-5.546875 9.101563 10.703125 8.984375 9.882813-31.328125 5.390624zm0 0" class="a"/><path d="M98.6797 42.2734l-.6523.918-.668.9922 3.2227 1.2695 3.2266 1.3359.6211-1.0117.6055-.9375-3.1758-1.3164-3.1797-1.25" class="i"/><path d="M986.796875 1057.265625l-6.523437-9.179687-6.679688-9.921876 32.226562-12.695312 32.265626-13.359375 6.210937 10.117187 6.054687 9.375-31.757812 13.164063zm0 0" class="a"/><path d="M38.6914 34.5781l-1.0781 1.1094-1.0977 1.1875 3.1133.1055 3.1289.1719 1.0586-1.1953 1.043-1.1133-3.0898-.1641-3.0781-.1016" class="i"/><path d="M386.914062 1134.21875l-10.78125-11.09375-10.976562-11.875 31.132812-1.054688 31.289063-1.71875 10.585937 11.953126 10.429688 11.132812-30.898438 1.640625zm0 0" class="a"/><path d="M105.0352 44.8398l-.6055.9375-.6211 1.0117 3.2266 1.4023 3.2344 1.4727.5742-1.0352.5625-.9609-3.1836-1.4453-3.1875-1.3828" class="i"/><path d="M1050.351562 1031.601562l-6.054687-9.375-6.210937-10.117187 32.265624-14.023437 32.34375-14.726563 5.742188 10.351563 5.625 9.609374-31.835938 14.453126zm0 0" class="a"/><path d="M117.7852 50.7617l-.5156.9805-.5312 1.0625 3.2344 1.668 3.2383 1.7344.4805-1.0898.4727-1.0078-3.1914-1.707-3.1875-1.6406" class="i"/><path d="M1177.851562 972.382812l-5.15625-9.804687-5.3125-10.625 32.34375-16.679687 32.382813-17.34375 4.804687 10.898437 4.726563 10.078125-31.914063 17.070312zm0 0" class="a"/><path d="M111.4063 47.668l-.5625.9609-.5742 1.0352 3.2344 1.5352 3.2344 1.6055.5313-1.0625.5156-.9805-3.1914-1.5781-3.1875-1.5156" class="i"/><path d="M1114.0625 1003.320312l-5.625-9.609374-5.742188-10.351563 32.34375-15.351563 32.34375-16.054687 5.3125 10.625 5.15625 9.804687-31.914062 15.78125zm0 0" class="a"/><path d="M24.2383 37.082l-1.1836 1.2539-1.1953 1.3359 3.0781-.1406 3.0977-.0781 1.1602-1.3398 1.1445-1.2617-3.0625.0859-3.0391.1445" class="i"/><path d="M242.382812 1109.179688l-11.835937-12.539063-11.953125-13.359375 30.78125 1.40625 30.976562.78125 11.601563 13.398438 11.445313 12.617187-30.625-.859375zm0 0" class="a"/><path d="M65.5156 35.1289l-.8984.9883-.9102 1.0703 3.1875.6211 3.1992.6836.8672-1.0781.8516-1.0039-3.1523-.6719-3.1445-.6094" class="i"/><path d="M655.15625 1128.710938l-8.984375-9.882813-9.101563-10.703125 31.875-6.210938 31.992188-6.835937 8.671875 10.78125 8.515625 10.039063-31.523438 6.71875zm0 0" class="a"/><path fill="#8f8f8f" d="M44.8594 34.8438l-1.043 1.1133-1.0586 1.1953 3.1445.2383 3.1602.3008 1.0195-1.2031 1.0078-1.125-3.1211-.293-3.1094-.2266"/><path d="M448.59375 1131.5625l-10.429688-11.132812-10.585937-11.953126 31.445313-2.382812 31.601562-3.007812 10.195312 12.03125 10.078126 11.25-31.210938 2.929687zm0 0" class="a"/><path fill="#8f8f8f" d="M71.8125 36.4102l-.8516 1.0039-.8672 1.0781 3.207.7539 3.2148.8203.8242-1.0937.8125-1.0156-3.1719-.8047-3.168-.7422"/><path d="M718.125 1115.898438l-8.515625-10.039063-8.671875-10.78125 32.070312-7.539063 32.148438-8.203124 8.242188 10.9375 8.125 10.15625-31.71875 8.046874zm0 0" class="a"/><path fill="#909090" d="M30.3398 36.8516l-1.1445 1.2617-1.1602 1.3398 3.1133-.0117 3.1328.0508 1.125-1.3516 1.1094-1.2656-3.0977-.043-3.0781.0195"/><path d="M303.398438 1111.484375l-11.445313-12.617187-11.601563-13.398438 31.132813.117188 31.328125-.507813 11.25 13.515625 11.09375 12.65625-30.976562.429688zm0 0" class="a"/><path fill="#909090" d="M78.1523 37.957l-.8125 1.0156-.8242 1.0938 3.2266.8867 3.2383.957.7813-1.1133.7656-1.0312-3.1914-.9375-3.1836-.8711"/><path d="M781.523438 1100.429688l-8.125-10.15625-8.242188-10.9375 32.265625-8.867188 32.382813-9.570312 7.8125 11.132812 7.65625 10.3125-31.914063 9.375zm0 0" class="a"/><path fill="#909090" d="M51.0898 35.3633l-1.0078 1.125-1.0195 1.2031 3.1758.3672 3.1914.4336.9766-1.2148.9648-1.1328-3.1484-.4258-3.1328-.3555"/><path d="M510.898438 1126.367188l-10.078126-11.25-10.195312-12.03125 31.757812-3.671876 31.914063-4.335937 9.765625 12.148437 9.648438 11.328126-31.484376 4.257812zm0 0" class="a"/><path d="M84.5273 39.7656l-.7656 1.0313-.7812 1.1133 3.2422 1.0234 3.2461 1.0898.7383-1.1328.7266-1.0508-3.207-1.0703-3.1992-1.0039" class="w"/><path d="M845.273438 1082.34375l-7.65625-10.3125-7.8125-11.132812 32.421874-10.234376 32.460938-10.898437 7.382812 11.328125 7.265626 10.507812-32.070313 10.703126zm0 0" class="a"/><path d="M90.9336 41.8398l-.7266 1.0508-.7383 1.1328 3.2578 1.1563 3.2617 1.2227.6914-1.1484.6797-1.0703-3.2148-1.207-3.2109-1.1367" class="w"/><path d="M909.335938 1061.601562l-7.265626-10.507812-7.382812-11.328125 32.578125-11.5625 32.617187-12.226563 6.914063 11.484376 6.796875 10.703124-32.148438 12.070313zm0 0" class="a"/><path d="M57.3711 36.1445l-.9648 1.1328-.9766 1.2148 3.2031.5 3.2148.5664.9375-1.2266.9219-1.1445-3.1719-.5547-3.1641-.4883" class="w"/><path d="M573.710938 1118.554688l-9.648438-11.328126-9.765625-12.148437 32.03125-5 32.148437-5.664063 9.375 12.265626 9.21875 11.445312-31.71875 5.546875zm0 0" class="a"/><path d="M36.5156 36.875l-1.1094 1.2656-1.125 1.3516 3.1523.1133 3.168.1797 1.0859-1.3555 1.0703-1.2773-3.1289-.1719-3.1133-.1055" class="w"/><path d="M365.15625 1111.25l-11.09375-12.65625-11.25-13.515625 31.523438-1.132813 31.679687-1.796874 10.859375 13.554687 10.703125 12.773437-31.289063 1.71875zm0 0" class="a"/><path d="M97.3594 44.1836l-.6797 1.0703-.6914 1.1484 3.2656 1.293 3.2734 1.3594.6484-1.1719.6328-1.0937-3.2266-1.3359-3.2227-1.2695" class="w"/><path d="M973.59375 1038.164062l-6.796875-10.703124-6.914063-11.484376 32.65625-12.929687 32.734376-13.59375 6.484374 11.71875 6.328126 10.9375-32.265626 13.359375zm0 0" class="a"/><path d="M103.8086 46.7891l-.6328 1.0938-.6484 1.1719 3.2734 1.4258 3.2773 1.4961.6016-1.1953.5898-1.1172-3.2344-1.4727-3.2266-1.4023" class="x"/><path d="M1038.085938 1012.109375l-6.328126-10.9375-6.484374-11.71875 32.734374-14.257813 32.773438-14.960937 6.015625 11.953125 5.898437 11.171875-32.34375 14.726563zm0 0" class="a"/><path d="M21.8594 39.6719l-1.2109 1.4219-1.2227 1.5 3.1133-.1328 3.1289-.0703 1.1914-1.5117 1.1758-1.4258-3.0977.0781-3.0781.1406" class="x"/><path d="M218.59375 1083.28125l-12.109375-14.21875-12.226563-15 31.132813 1.328125 31.289063.703125 11.914062 15.117188 11.757812 14.257812-30.976562-.78125zm0 0" class="a"/><path d="M116.7383 52.8047l-.543 1.1406-.5547 1.2188 3.2813 1.6953 3.2813 1.7617.5117-1.25.4961-1.1641-3.2383-1.7344-3.2344-1.668" class="x"/><path d="M1167.382812 951.953125l-5.429687-11.40625-5.546875-12.1875 32.8125-16.953125 32.8125-17.617188 5.117188 12.5 4.960937 11.640626-32.382813 17.34375zm0 0" class="a"/><path d="M110.2695 49.6641l-.5898 1.1172-.6016 1.1953 3.2813 1.5586 3.2813 1.6289.5547-1.2187.543-1.1406-3.2344-1.6055-3.2344-1.5352" class="x"/><path d="M1102.695312 983.359375l-5.898437-11.171875-6.015625-11.953125 32.8125-15.585937 32.8125-16.289063 5.546875 12.1875 5.429687 11.40625-32.34375 16.054687zm0 0" class="a"/><path d="M63.707 37.1875l-.9219 1.1445-.9375 1.2266 3.2266.6367 3.2383.6992.8984-1.2422.8828-1.1602-3.1992-.6836-3.1875-.6211" class="x"/><path d="M637.070312 1108.125l-9.21875-11.445312-9.375-12.265626 32.265626-6.367187 32.382812-6.992187 8.984375 12.421874 8.828125 11.601563-31.992188 6.835937zm0 0" class="a"/><path fill="#939393" d="M42.7578 37.1523l-1.0703 1.2774-1.0859 1.3555 3.1836.25 3.1992.3125 1.0469-1.3711 1.0313-1.2852-3.1602-.3008-3.1445-.2383"/><path d="M427.578125 1108.476562 416.875 1095.703125l-10.859375-13.554687 31.835937-2.5 31.992188-3.125 10.46875 13.710937 10.3125 12.851563-31.601562 3.007812zm0 0" class="a"/><path fill="#939393" d="M70.0938 38.4922l-.8828 1.1602-.8984 1.2422 3.2539.7695 3.2577.8359.8516-1.2578.8398-1.1758-3.2148-.8203-3.207-.7539"/><path d="M700.9375 1095.078125l-8.828125-11.601563-8.984375-12.421874 32.539062-7.695313L748.242188 1055l8.515624 12.578125 8.398438 11.757813-32.148438 8.203124zm0 0" class="a"/><path fill="#949494" d="M28.0352 39.4531l-1.1758 1.4258-1.1914 1.5117 3.1523-.0078 3.1719.0586 1.1523-1.5156 1.1367-1.4336-3.1328-.0508-3.1133.0117"/><path d="M280.351562 1085.46875l-11.757812-14.257812-11.914062-15.117188 31.523437.078125 31.71875-.585937 11.523437 15.15625 11.367188 14.335937-31.328125.507813zm0 0" class="a"/><path fill="#949494" d="M76.5156 40.0664l-.8398 1.1758-.8516 1.2578 3.2695.9063 3.2773.9727.8125-1.2773.7969-1.1914-3.2383-.957-3.2266-.8867"/><path d="M765.15625 1079.335938l-8.398438-11.757813L748.242188 1055l32.695312-9.0625 32.773438-9.726562 8.125 12.773437 7.96875 11.914063-32.382813 9.570312zm0 0" class="a"/><path fill="#949494" d="M49.0625 37.6914l-1.0312 1.2852-1.0469 1.3711 3.2148.3789 3.2305.4453 1.0078-1.3828.9922-1.2969-3.1914-.4336-3.1758-.3672"/><path d="M490.625 1103.085938l-10.3125-12.851563-10.46875-13.710937 32.148438-3.789063 32.304687-4.453125 10.078125 13.828125 9.921875 12.96875-31.914063 4.335937zm0 0" class="a"/><path fill="#959595" d="M82.9805 41.9102l-.7969 1.1914-.8125 1.2773 3.2891 1.0391 3.293 1.1094.7656-1.293.75-1.2109-3.2461-1.0898-3.2422-1.0234"/><path d="M829.804688 1060.898438l-7.96875-11.914063-8.125-12.773437 32.890624-10.390626 32.929688-11.09375 7.65625 12.929688 7.5 12.109375-32.460938 10.898437zm0 0" class="a"/><path fill="#959595" d="M34.2813 39.4922l-1.1367 1.4336-1.1523 1.5156 3.1875.125 3.207.1914L39.5 41.2305l1.1016-1.4453-3.168-.1797-3.1523-.1133"/><path d="M342.8125 1085.078125l-11.367188-14.335937-11.523437-15.15625 31.875-1.25 32.070313-1.914063L395 1067.695312l11.015625 14.453126-31.679687 1.796874zm0 0" class="a"/><path fill="#959595" d="M89.4688 44.0234l-.75 1.2109-.7656 1.293 3.3047 1.1758 3.3047 1.2461.7188-1.3125.707-1.2344-3.2617-1.2227-3.2578-1.1562"/><path d="M894.6875 1039.765625l-7.5-12.109375-7.65625-12.929688 33.046875-11.757812L945.625 990.507812l7.1875 13.125 7.070312 12.34375-32.617187 12.226563zm0 0" class="a"/><path d="M55.4297 38.4922l-.9922 1.2969-1.0078 1.3828 3.2422.5117 3.2578.582.9648-1.3945.9531-1.3125-3.2148-.5664-3.2031-.5" class="r"/><path d="M554.296875 1095.078125l-9.921875-12.96875-10.078125-13.828125 32.421875-5.117188 32.578125-5.820312 9.648437 13.945312 9.53125 13.125-32.148437 5.664063zm0 0" class="a"/><path d="M19.4258 42.5938l-1.2383 1.5898-1.2539 1.6719 3.1484-.125 3.1641-.0625 1.2227-1.6836 1.1992-1.5937-3.1289.0703-3.1133.1328" class="r"/><path d="M194.257812 1054.0625 181.875 1038.164062l-12.539062-16.71875 31.484374 1.25 31.640626.625 12.226562 16.835938 11.992188 15.9375-31.289063-.703125zm0 0" class="a"/><path d="M95.9883 46.4023l-.707 1.2344-.7187 1.3125 3.3125 1.3164 3.3164 1.3789.6758-1.3359.6602-1.2539-3.2734-1.3594-3.2656-1.293" class="r"/><path d="M959.882812 1015.976562l-7.070312-12.34375-7.1875-13.125 33.125-13.164062 33.164062-13.789062 6.757813 13.359374 6.601563 12.539063-32.734376 13.59375zm0 0" class="a"/><path d="M102.5273 49.0547l-.6602 1.2539-.6758 1.3359 3.3203 1.4531 3.3281 1.5156.625-1.3594.6133-1.2773-3.2773-1.4961-3.2734-1.4258" class="r"/><path d="M1025.273438 989.453125l-6.601563-12.539063-6.757813-13.359374 33.203126-14.53125 33.28125-15.15625 6.25 13.59375 6.132812 12.773437-32.773438 14.960937zm0 0" class="a"/><path d="M115.6406 55.1641l-.5703 1.3047-.5781 1.3867 3.3281 1.7227 3.3281 1.7891.5352-1.418.5195-1.3281-3.2812-1.7617-3.2812-1.6953" class="r"/><path d="M1156.40625 928.359375l-5.703125-13.046875-5.78125-13.867188 33.28125-17.226562 33.28125-17.890625 5.351563 14.179687 5.195312 13.28125-32.8125 17.617188zm0 0" class="a"/><path d="M109.0781 51.9766l-.6133 1.2773-.625 1.3594 3.3242 1.5898 3.3281 1.6523.5781-1.3867.5703-1.3047-3.2812-1.6289-3.2812-1.5586" class="r"/><path d="M1090.78125 960.234375l-6.132812-12.773437-6.25-13.59375 33.242187-15.898438 33.28125-16.523438 5.78125 13.867188 5.703125 13.046875-32.8125 16.289063zm0 0" class="a"/><path fill="#979797" d="M61.8477 39.5586l-.9531 1.3125-.9648 1.3945 3.2695.6484 3.2813.7148.9258-1.4062.9063-1.3281-3.2383-.6992-3.2266-.6367"/><path d="M618.476562 1084.414062l-9.53125-13.125-9.648437-13.945312 32.695313-6.484375 32.8125-7.148437 9.257812 14.0625 9.0625 13.28125-32.382812 6.992187zm0 0" class="a"/><path fill="#979797" d="M40.6016 39.7852 39.5 41.2305l-1.1133 1.5273 3.2227.2578 3.2383.3242 1.0742-1.5391 1.0625-1.4531-3.1992-.3125-3.1836-.25"/><path d="M406.015625 1082.148438 395 1067.695312l-11.132812-15.273437 32.226562-2.578125 32.382812-3.242188 10.742188 15.390626 10.625 14.53125-31.992188 3.125zm0 0" class="a"/><path fill="#989898" d="M68.3125 40.8945l-.9062 1.3281-.9258 1.4063 3.293.7852 3.3047.8555.8789-1.4258.8672-1.3437-3.2578-.8359-3.2539-.7695"/><path d="M683.125 1071.054688l-9.0625-13.28125-9.257812-14.0625 32.929687-7.851563 33.046875-8.554687 8.789062 14.257812L748.242188 1055l-32.578126 8.359375zm0 0" class="a"/><path fill="#989898" d="M25.668 42.3906l-1.1992 1.5938-1.2227 1.6836 3.1914.0039 3.207.0664 1.1797-1.6914 1.168-1.6055-3.1719-.0586-3.1523.0078"/><path d="M256.679688 1056.09375l-11.992188-15.9375-12.226562-16.835938 31.914062-.039062 32.070312-.664062 11.796876 16.914062 11.679687 16.054688-31.71875.585937zm0 0" class="a"/><path fill="#999" d="M46.9844 40.3477l-1.0625 1.4531-1.0742 1.5391 3.2539.3906 3.2695.457 1.0352-1.5508 1.0234-1.4648-3.2305-.4453-3.2148-.3789"/><path d="M469.84375 1076.523438l-10.625-14.53125-10.742188-15.390626 32.539063-3.90625 32.695313-4.570312 10.351562 15.507812 10.234375 14.648438-32.304687 4.453125zm0 0" class="a"/><path fill="#999" d="M74.8242 42.5l-.8672 1.3438-.8789 1.4258 3.3125.9219 3.3242.9883.8359-1.4414.8203-1.3594-3.2773-.9727-3.2695-.9063"/><path d="M748.242188 1055l-8.671876-13.4375-8.789062-14.257812 33.125-9.21875 33.242188-9.882813 8.359374 14.414063 8.203126 13.59375-32.773438 9.726562zm0 0" class="a"/><path fill="#999" d="M81.3711 44.3789l-.8203 1.3594-.8359 1.4414 3.332 1.0625 3.3359 1.1289.793-1.4648.7773-1.3789-3.293-1.1094-3.2891-1.0391"/><path d="M813.710938 1036.210938l-8.203126-13.59375-8.359374-14.414063 33.320312-10.625 33.359375-11.289063 7.929687 14.648438 7.773438 13.789062-32.929688 11.09375zm0 0" class="a"/><path d="M31.9922 42.4414l-1.168 1.6055-1.1797 1.6914 3.2227.1367 3.2461.1992 1.1445-1.7031 1.1289-1.6133-3.207-.1914-3.1875-.125" class="j"/><path d="M319.921875 1055.585938l-11.679687-16.054688-11.796876-16.914062 32.226563-1.367188 32.460937-1.992188 11.445313 17.03125 11.289063 16.132813-32.070313 1.914063zm0 0" class="a"/><path d="M53.4297 41.1719l-1.0234 1.4648-1.0352 1.5508 3.2852.5273 3.3008.5977.9922-1.5703.9805-1.4766-3.2578-.582-3.2422-.5117" class="j"/><path d="M534.296875 1068.28125l-10.234375-14.648438-10.351562-15.507812 32.851562-5.273438 33.007812-5.976562 9.921876 15.703125 9.804687 14.765625-32.578125 5.820312zm0 0" class="a"/><path d="M16.9336 45.8555l-1.2656 1.7617-1.2812 1.8516 3.1797-.1172 3.2031-.0547 1.2461-1.8594 1.2305-1.7695-3.1641.0625-3.1484.125" class="j"/><path d="M169.335938 1021.445312l-12.65625-17.617187-12.8125-18.515625 31.796874 1.171875 32.03125.546875 12.460938 18.59375 12.304688 17.695312-31.640626-.625zm0 0" class="a"/><path d="M87.9531 46.5273l-.7773 1.3789-.793 1.4648 3.3477 1.1953 3.3516 1.2695.75-1.4844.7305-1.4023-3.3047-1.2461-3.3047-1.1758" class="j"/><path d="M879.53125 1014.726562l-7.773438-13.789062-7.929687-14.648438 33.476563-11.953124 33.515624-12.695313 7.5 14.84375 7.304688 14.023437-33.046875 12.460938zm0 0" class="a"/><path d="M94.5625 48.9492l-.7305 1.4023-.75 1.4844 3.3594 1.3359 3.3633 1.4063.6992-1.5117.6875-1.4219-3.3164-1.3789-3.3125-1.3164" class="j"/><path d="M945.625 990.507812l-7.304688-14.023437-7.5-14.84375 33.59375-13.359375 33.632813-14.0625 6.992187 15.117188 6.875 14.21875L978.75 977.34375zm0 0" class="a"/><path d="M101.1914 51.6445l-.6875 1.4219-.6992 1.5117 3.3672 1.4727 3.3711 1.543.6523-1.5312.6445-1.4492-3.3281-1.5156-3.3203-1.4531" class="j"/><path d="M1011.914062 963.554688l-6.875-14.21875-6.992187-15.117188 33.671875-14.726562 33.710938-15.429688 6.523437 15.3125 6.445313 14.492188-33.28125 15.15625zm0 0" class="a"/><path d="M114.4922 57.8555l-.5937 1.4727-.6094 1.5586 3.375 1.75 3.3789 1.8164.5625-1.5859.543-1.5-3.3281-1.7891-3.3281-1.7227" class="j"/><path d="M1144.921875 901.445312l-5.9375-14.726562-6.09375-15.585938 33.75-17.5 33.789063-18.164062 5.625 15.859375 5.429687 15-33.28125 17.890625zm0 0" class="a"/><path d="M107.8398 54.6133l-.6445 1.4492-.6523 1.5313 3.3711 1.6133 3.375 1.6797.6094-1.5586.5938-1.4727-3.3281-1.6523-3.3242-1.5898" class="j"/><path d="M1078.398438 933.867188l-6.445313-14.492188-6.523437-15.3125 33.710937-16.132812 33.75-16.796876 6.09375 15.585938 5.9375 14.726562-33.28125 16.523438zm0 0" class="a"/><path fill="#9b9b9b" d="M59.9297 42.2656l-.9805 1.4766-.9922 1.5703 3.3086.6602 3.3281.7344.9492-1.582.9375-1.4961-3.2812-.7148-3.2695-.6484"/><path d="M599.296875 1057.34375l-9.804687-14.765625-9.921876-15.703125 33.085938-6.601562 33.28125-7.34375 9.492188 15.820312 9.375 14.960938-32.8125 7.148437zm0 0" class="a"/><path fill="#9c9c9c" d="M38.3867 42.7578l-1.1289 1.6133-1.1445 1.7031 3.2617.2695 3.2773.3359 1.1055-1.7148 1.0898-1.625-3.2383-.3242-3.2227-.2578"/><path d="M383.867188 1052.421875l-11.289063-16.132813-11.445313-17.03125L393.75 1016.5625l32.773438-3.359375 11.054687 17.148437 10.898437 16.25-32.382812 3.242188zm0 0" class="a"/><path fill="#9c9c9c" d="M23.2461 45.668l-1.2305 1.7695-1.2461 1.8594 3.2266.0156 3.2422.0781 1.2109-1.8711 1.1953-1.7812-3.207-.0664-3.1914-.0039"/><path d="M232.460938 1023.320312 220.15625 1005.625l-12.460938-18.59375 32.265626-.15625 32.421874-.78125 12.109376 18.710938 11.953124 17.8125-32.070312.664062zm0 0" class="a"/><path fill="#9c9c9c" d="M66.4805 43.6289l-.9375 1.4961-.9492 1.582 3.332.8008 3.3477.8711.9102-1.6016.8945-1.5078-3.3047-.8555-3.293-.7852"/><path d="M664.804688 1043.710938l-9.375-14.960938-9.492188-15.820312 33.320312-8.007813 33.476563-8.710937 9.101563 16.015624 8.945312 15.078126-33.046875 8.554687zm0 0" class="a"/><path fill="#9d9d9d" d="M44.8477 43.3398l-1.0898 1.625-1.1055 1.7148 3.2969.4063 3.3086.4727 1.0625-1.7305 1.0508-1.6406-3.2695-.457-3.2539-.3906"/><path d="M448.476562 1046.601562l-10.898437-16.25-11.054687-17.148437 32.96875-4.0625 33.085937-4.726563 10.625 17.304688 10.507813 16.40625-32.695313 4.570312zm0 0" class="a"/><path fill="#9d9d9d" d="M73.0781 45.2695l-.8945 1.5078-.9102 1.6016 3.3594.9414 3.3633 1.0117.8672-1.6211.8516-1.5312-3.3242-.9883-3.3125-.9219"/><path d="M730.78125 1027.304688l-8.945312-15.078126-9.101563-16.015624 33.59375-9.414063 33.632813-10.117187 8.671874 16.210937 8.515626 15.3125-33.242188 9.882813zm0 0" class="a"/><path fill="#9e9e9e" d="M29.6445 45.7383l-1.1953 1.7813-1.2109 1.8711 3.2656.1484 3.2773.2148 1.1758-1.8867 1.1563-1.793-3.2461-.1992-3.2227-.1367"/><path d="M296.445312 1022.617188l-11.953124-17.8125-12.109376-18.710938 32.65625-1.484375 32.773438-2.148437 11.757812 18.867187 11.5625 17.929687-32.460937 1.992188zm0 0" class="a"/><path fill="#9e9e9e" d="M79.7148 47.1797l-.8516 1.5313-.8672 1.6211 3.375 1.0781 3.3867 1.1523.8203-1.6445.8047-1.5469-3.3359-1.1289-3.332-1.0625"/><path d="M797.148438 1008.203125l-8.515626-15.3125-8.671874-16.210937 33.75-10.78125L847.578125 954.375l8.203125 16.445312 8.046875 15.46875-33.359375 11.289063zm0 0" class="a"/><path fill="#9e9e9e" d="M14.3867 49.4688l-1.2969 1.9414-1.3086 2.0352 3.2148-.1094 3.2383-.043 1.2774-2.043 1.2578-1.9531-3.2031.0547-3.1797.1172"/><path d="M143.867188 985.3125l-12.96875-19.414062-13.085938-20.351563 32.148438 1.09375 32.382812.429687L195.117188 967.5l12.578124 19.53125-32.03125-.546875zm0 0" class="a"/><path d="M51.3711 44.1875l-1.0508 1.6406-1.0625 1.7305 3.3281.543 3.3359.6094 1.0234-1.7461 1.0117-1.6523-3.3008-.5977-3.2852-.5273" class="s"/><path d="M513.710938 1038.125l-10.507813-16.40625-10.625-17.304688 33.28125-5.429687 33.359375-6.09375 10.234375 17.460937 10.117187 16.523438-33.007812 5.976562zm0 0" class="a"/><path d="M86.3828 49.3711l-.8047 1.5469-.8203 1.6445 3.3906 1.2188 3.3984 1.2891.7773-1.6602.7578-1.5742-3.3516-1.2695-3.3477-1.1953" class="s"/><path d="M863.828125 986.289062l-8.046875-15.46875-8.203125-16.445312 33.90625-12.1875 33.984375-12.890625 7.773438 16.601563 7.578124 15.742187-33.515624 12.695313zm0 0" class="a"/><path d="M93.082 51.8359l-.7578 1.5742-.7773 1.6602 3.4063 1.3594 3.4063 1.4297.7305-1.6875.7148-1.5937-3.3633-1.4062-3.3594-1.3359" class="s"/><path d="M930.820312 961.640625l-7.578124-15.742187-7.773438-16.601563 34.0625-13.59375 34.0625-14.296875 7.304688 16.875 7.148437 15.9375-33.632813 14.0625zm0 0" class="a"/><path d="M99.8047 54.5781l-.7148 1.5938-.7305 1.6875 3.4141 1.5 3.418 1.5664.6836-1.7109.668-1.6211-3.3711-1.543-3.3672-1.4727" class="s"/><path d="M998.046875 934.21875l-7.148437-15.9375-7.304688-16.875 34.140625-15 34.179687-15.664062 6.835938 17.109374 6.679688 16.210938-33.710938 15.429688zm0 0" class="a"/><path d="M113.2891 60.8867l-.6172 1.6484-.6367 1.7383 3.4258 1.7773 3.4219 1.8438.5859-1.7656.5742-1.6758-3.3789-1.8164-3.375-1.75" class="s"/><path d="M1132.890625 871.132812l-6.171875-16.484374-6.367188-17.382813 34.257813-17.773437 34.21875-18.4375 5.859375 17.65625 5.742188 16.757812-33.789063 18.164062zm0 0" class="a"/><path d="M106.543 57.5938l-.668 1.6211-.6836 1.7109 3.4219 1.6406 3.4219 1.707.6367-1.7383.6172-1.6484-3.375-1.6797-3.3711-1.6133" class="s"/><path d="M1065.429688 904.0625 1058.75 887.851562l-6.835938-17.109374 34.21875-16.40625 34.21875-17.070313 6.367188 17.382813 6.171875 16.484374-33.75 16.796876zm0 0" class="a"/><path fill="#a0a0a0" d="M57.957 45.3125l-1.0117 1.6523-1.0234 1.7461 3.3555.6797 3.3672.75.9805-1.7617.9688-1.6719-3.3281-.7344-3.3086-.6602"/><path d="M579.570312 1026.875l-10.117187-16.523438-10.234375-17.460937 33.554688-6.796875 33.671874-7.5L636.25 996.210938l9.6875 16.71875-33.28125 7.34375zm0 0" class="a"/><path fill="#a0a0a0" d="M36.1133 46.0742l-1.1562 1.793-1.1758 1.8867 3.3047.2813 3.3164.3477 1.1328-1.8945 1.1172-1.8086-3.2774-.336-3.2617-.2695"/><path d="M361.132812 1019.257812l-11.5625-17.929687-11.757812-18.867187 33.046875-2.8125 33.164063-3.476563 11.328124 18.945313 11.171876 18.085937L393.75 1016.5625zm0 0" class="a"/><path fill="#a1a1a1" d="M20.7695 49.2969 19.5117 51.25l-1.2773 2.043 3.2617.0273 3.2773.0938 1.2422-2.0586 1.2227-1.9648-3.2422-.0781-3.2266-.0156"/><path d="M207.695312 987.03125 195.117188 967.5l-12.773438-20.429688 32.617188-.273437 32.773437-.9375 12.421875 20.585937 12.226562 19.648438-32.421874.78125zm0 0" class="a"/><path fill="#a2a2a2" d="M64.5938 46.707l-.9687 1.6719-.9805 1.7617 3.3789.8203 3.3906.8867.9375-1.7773.9219-1.6914-3.3477-.8711-3.332-.8008"/><path d="M645.9375 1012.929688l-9.6875-16.71875-9.804688-17.617188 33.789063-8.203125 33.90625-8.867187 9.375 17.773437 9.21875 16.914063-33.476563 8.710937zm0 0" class="a"/><path fill="#a2a2a2" d="M42.6523 46.6797l-1.1172 1.8086-1.1328 1.8945 3.332.4219 3.3516.4844 1.0938-1.9102 1.0781-1.8203-3.3086-.4727-3.2969-.4062"/><path d="M426.523438 1013.203125l-11.171876-18.085937-11.328124-18.945313 33.320312-4.21875 33.515625-4.84375 10.9375 19.101563 10.78125 18.203124-33.085937 4.726563zm0 0" class="a"/><path d="M71.2734 48.3789l-.9219 1.6914-.9375 1.7773 3.3984.9609 3.4141 1.0313.8906-1.8008.8789-1.707-3.3633-1.0117-3.3594-.9414" class="E"/><path d="M712.734375 996.210938l-9.21875-16.914063-9.375-17.773437 33.984375-9.609376 34.140625-10.3125 8.90625 18.007813 8.789063 17.070313-33.632813 10.117187zm0 0" class="a"/><path d="M27.2383 49.3906l-1.2227 1.9648-1.2422 2.0586 3.3047.1563 3.3164.2266 1.2031-2.0664 1.1836-1.9766-3.2773-.2148-3.2656-.1484" class="E"/><path d="M272.382812 986.09375l-12.226562-19.648438-12.421875-20.585937 33.046875-1.5625 33.164062-2.265625 12.03125 20.664062 11.835938 19.765626-32.773438 2.148437zm0 0" class="a"/><path d="M11.7813 53.4453l-1.3242 2.1289-1.3398 2.2188 3.2539-.0937 3.2734-.0312 1.3008-2.2344 1.2891-2.1406-3.2383.043-3.2148.1094" class="E"/><path d="M117.8125 945.546875l-13.242188-21.289063-13.398437-22.1875 32.539063.9375 32.734374.3125 13.007813 22.34375 12.890625 21.40625-32.382812-.429687zm0 0" class="a"/><path d="M77.9961 50.332l-.8789 1.707-.8906 1.8008 3.418 1.1016 3.4297 1.168.8477-1.8203.8359-1.7266-3.3867-1.1523-3.375-1.0781" class="E"/><path d="M779.960938 976.679688l-8.789063-17.070313-8.90625-18.007813 34.179687-11.015624 34.296876-11.679688 8.476562 18.203125 8.359375 17.265625-33.867187 11.523438zm0 0" class="a"/><path d="M49.2578 47.5586l-1.0781 1.8203-1.0937 1.9102 3.3672.5586 3.3828.6289 1.0508-1.9297 1.0352-1.8359-3.3359-.6094-3.3281-.543" class="t"/><path d="M492.578125 1004.414062l-10.78125-18.203124-10.9375-19.101563 33.671875-5.585937 33.828125-6.289063 10.507813 19.296875 10.351562 18.359375-33.359375 6.09375zm0 0" class="a"/><path d="M84.7578 52.5625l-.8359 1.7266-.8477 1.8203 3.4375 1.2422 3.4453 1.3125.8008-1.8437.7891-1.75-3.3984-1.2891-3.3906-1.2187" class="t"/><path d="M847.578125 954.375l-8.359375-17.265625-8.476562-18.203125 34.375-12.421875 34.453124-13.125 8.007813 18.4375 7.890625 17.5-33.984375 12.890625zm0 0" class="a"/><path d="M91.5469 55.0703l-.7891 1.75-.8008 1.8438 3.4492 1.3867 3.457 1.4531.7539-1.8672.7422-1.7773-3.4062-1.4297-3.4062-1.3594" class="t"/><path d="M915.46875 929.296875l-7.890625-17.5-8.007813-18.4375 34.492188-13.867187 34.570312-14.53125 7.539063 18.671874 7.421875 17.773438-34.0625 14.296875zm0 0" class="a"/><path fill="#a5a5a5" d="M33.7813 49.7539l-1.1836 1.9766-1.2031 2.0664 3.3398.2969 3.3555.3672 1.164-2.086 1.1484-1.9922-3.3164-.3477-3.3047-.2812"/><path d="M337.8125 982.460938l-11.835938-19.765626-12.03125-20.664062 33.398438-2.96875 33.554688-3.671875L392.539062 956.25l11.484376 19.921875-33.164063 3.476563zm0 0" class="a"/><path d="M98.3594 57.8594l-.7422 1.7773-.7539 1.8672 3.4609 1.5234 3.4648 1.5938.707-1.8906.6953-1.8047-3.418-1.5664-3.4141-1.5" class="t"/><path d="M983.59375 901.40625l-7.421875-17.773438-7.539063-18.671874 34.609376-15.234376 34.648437-15.9375 7.070313 18.90625 6.953124 18.046876-34.179687 15.664062zm0 0" class="a"/><path d="M112.0352 64.2734l-.6484 1.8281-.6602 1.9219 3.4688 1.8086 3.4727 1.875.6133-1.9531.6016-1.8594-3.4219-1.8437-3.4258-1.7773" class="t"/><path d="M1120.351562 837.265625l-6.484374-18.28125-6.601563-19.21875 34.6875-18.085937 34.726563-18.75 6.132812 19.53125 6.015625 18.59375-34.21875 18.4375zm0 0" class="a"/><path fill="#a6a6a6" d="M55.9219 48.7109l-1.0352 1.8359-1.0508 1.9297 3.3945.6953 3.4102.7656 1.0078-1.9453.9961-1.8516-3.3672-.75-3.3555-.6797"/><path d="M559.21875 992.890625l-10.351562-18.359375-10.507813-19.296875 33.945313-6.953125 34.101562-7.65625 10.078125 19.453125 9.960937 18.515625-33.671874 7.5zm0 0" class="a"/><path d="M105.1914 60.9258l-.6953 1.8047-.707 1.8906 3.4648 1.668 3.4727 1.7344.6602-1.9219.6484-1.8281-3.4219-1.707-3.4219-1.6406" class="t"/><path d="M1051.914062 870.742188l-6.953124-18.046876-7.070313-18.90625 34.648437-16.679687 34.726563-17.34375 6.601563 19.21875 6.484374 18.28125-34.21875 17.070313zm0 0" class="a"/><path fill="#a5a5a5" d="M18.2344 53.293l-1.2891 2.1406-1.3008 2.2344 3.293.0391 3.3164.1055 1.2695-2.25 1.25-2.1484-3.2773-.0937-3.2617-.0273"/><path d="M182.34375 947.070312l-12.890625-21.40625-13.007813-22.34375 32.929688-.390624 33.164062-1.054688 12.695313 22.5 12.5 21.484375-32.773437.9375zm0 0" class="a"/><path d="M62.6445 50.1406l-.9961 1.8516-1.0078 1.9453 3.4219.8398 3.4297.9102.9688-1.9648.9531-1.875-3.3906-.8867-3.3789-.8203" class="d"/><path d="M626.445312 978.59375l-9.960937-18.515625L606.40625 940.625l34.21875-8.398438 34.296875-9.101562 9.6875 19.648438 9.53125 18.75-33.90625 8.867187zm0 0" class="a"/><path d="M40.4023 50.3828l-1.1484 1.9922-1.1641 2.0859 3.375.4336 3.3906.5039 1.125-2.1055 1.1055-2.0039-3.3516-.4844-3.332-.4219" class="d"/><path d="M404.023438 976.171875 392.539062 956.25l-11.640624-20.859375 33.75-4.335937 33.90625-5.039063 11.25 21.054687 11.054687 20.039063-33.515625 4.84375zm0 0" class="a"/><path d="M9.1172 57.793l-1.3477 2.3203-1.3672 2.4141 3.2852-.082 3.3086-.0156L14.3281 60l1.3164-2.332-3.2734.0313-3.2539.0938" class="d"/><path d="M91.171875 902.070312l-13.476563-23.203124-13.671874-24.140626 32.851562.820313 33.085938.15625L143.28125 880l13.164062 23.320312-32.734374-.3125zm0 0" class="a"/><path d="M69.4141 51.8477l-.9531 1.875-.9687 1.9648 3.4453.9766 3.457 1.0547.9219-1.9883.9102-1.8906-3.4141-1.0312-3.3984-.9609" class="e"/><path d="M694.140625 961.523438l-9.53125-18.75-9.6875-19.648438 34.453125-9.765625 34.570312-10.546875 9.21875 19.882812 9.101563 18.90625-34.140625 10.3125zm0 0" class="a"/><path d="M24.7734 53.4141l-1.25 2.1484-1.2695 2.25 3.3398.1719 3.3555.2422 1.2305-2.2617 1.2148-2.168-3.3164-.2266-3.3047-.1562" class="e"/><path d="M247.734375 945.859375l-12.5-21.484375-12.695313-22.5 33.398438-1.71875 33.554688-2.421875 12.304687 22.617187 12.148437 21.679688-33.164062 2.265625zm0 0" class="a"/><path d="M76.2266 53.8398l-.9102 1.8906-.9219 1.9883 3.4648 1.1211 3.4766 1.1953.875-2.0117.8633-1.9141-3.4297-1.168-3.418-1.1016" class="g"/><path d="M762.265625 941.601562l-9.101563-18.90625-9.21875-19.882812 34.648438-11.210938 34.765625-11.953124 8.75 20.117187 8.632813 19.140625-34.296876 11.679688zm0 0" class="a"/><path d="M47.0859 51.2891l-1.1055 2.0039-1.125 2.1055 3.4102.5742 3.4219.6445 1.082-2.1211 1.0664-2.0195-3.3828-.6289-3.3672-.5586" class="g"/><path d="M470.859375 967.109375l-11.054687-20.039063-11.25-21.054687 34.101562-5.742187 34.21875-6.445313 10.820312 21.210937 10.664063 20.195313-33.828125 6.289063zm0 0" class="a"/><path d="M83.0742 56.1094l-.8633 1.9141-.875 2.0117 3.4805 1.2617 3.4922 1.3398.832-2.0312.8164-1.9414-3.4453-1.3125-3.4375-1.2422" class="b"/><path d="M830.742188 918.90625l-8.632813-19.140625-8.75-20.117187 34.804687-12.617188 34.921876-13.398438 8.320312 20.3125 8.164062 19.414063-34.453124 13.125zm0 0" class="a"/><path d="M31.3945 53.7969l-1.2148 2.168-1.2305 2.2617 3.3789.3125 3.3945.3789 1.1914-2.2773 1.1758-2.1797-3.3555-.3672-3.3398-.2969" class="k"/><path d="M313.945312 942.03125l-12.148437-21.679688-12.304687-22.617187 33.789062-3.125 33.945312-3.789063 11.914063 22.773438 11.757813 21.796875-33.554688 3.671875zm0 0" class="a"/><path d="M89.957 58.6641l-.8164 1.9414-.832 2.0313 3.4961 1.4063 3.5039 1.4805.7852-2.0547.7695-1.9648-3.457-1.4531-3.4492-1.3867" class="b"/><path d="M899.570312 893.359375l-8.164062-19.414063-8.320312-20.3125 34.960937-14.0625 35.039063-14.804687L960.9375 845.3125l7.695312 19.648438-34.570312 14.53125zm0 0" class="a"/><path d="M15.6445 57.668 14.3281 60l-1.332 2.4297 3.3281.0508 3.3555.1211 1.293-2.4453 1.2813-2.3437-3.3164-.1055-3.293-.0391" class="b"/><path d="M156.445312 903.320312 143.28125 880l-13.320312-24.296875 33.28125-.507813 33.554687-1.210937 12.929687 24.453125 12.8125 23.4375-33.164062 1.054688zm0 0" class="a"/><path d="M53.8359 52.4766l-1.0664 2.0195-1.082 2.1211 3.4336.7148 3.4531.7852 1.0391-2.1367 1.0273-2.043-3.4102-.7656-3.3945-.6953" class="k"/><path d="M538.359375 955.234375l-10.664063-20.195313L516.875 913.828125l34.335938-7.148437 34.53125-7.851563 10.390624 21.367187L606.40625 940.625l-34.101562 7.65625zm0 0" class="a"/><path d="M96.8633 61.5039l-.7695 1.9648-.7852 2.0547 3.5039 1.5508 3.5117 1.6211.7383-2.082.7266-1.9922-3.4648-1.5937-3.4609-1.5234" class="b"/><path d="M968.632812 864.960938 960.9375 845.3125l-7.851562-20.546875L988.125 809.257812l35.117188-16.210937 7.382812 20.820313 7.265625 19.921874-34.648437 15.9375zm0 0" class="a"/><path d="M110.7266 68.0234l-.6758 2.0195-.6914 2.1133 3.5195 1.832 3.5195 1.9063.6406-2.1445.6289-2.043-3.4727-1.875-3.4687-1.8086" class="g"/><path d="M1107.265625 799.765625l-6.757813-20.195313-6.914062-21.132812 35.195312-18.320312 35.195313-19.0625 6.40625 21.445312 6.289063 20.429688-34.726563 18.75zm0 0" class="a"/><path d="M103.7891 64.6211l-.7266 1.9922-.7383 2.082 3.5156 1.6953 3.5195 1.7656.6914-2.1133.6758-2.0195-3.4727-1.7344-3.4648-1.668" class="b"/><path d="M1037.890625 833.789062l-7.265625-19.921874-7.382812-20.820313 35.15625-16.953125 35.195312-17.65625 6.914062 21.132812 6.757813 20.195313-34.726563 17.34375zm0 0" class="a"/><path d="M60.6406 53.9375l-1.0273 2.043-1.0391 2.1367 3.4648.8594 3.4766.9297.9961-2.1602.9805-2.0586-3.4297-.9102-3.4219-.8398" class="f"/><path d="M606.40625 940.625l-10.273438-20.429688-10.390624-21.367187 34.648437-8.59375 34.765625-9.296875 9.960938 21.601562 9.804687 20.585938-34.296875 9.101562zm0 0" class="a"/><path d="M38.0898 54.4609l-1.1758 2.1797-1.1914 2.2773 3.4141.4531 3.4297.5195 1.1523-2.2969 1.1367-2.1953-3.3906-.5039-3.375-.4336" class="f"/><path d="M380.898438 935.390625l-11.757813-21.796875-11.914063-22.773438 34.140626-4.53125 34.296874-5.195312L437.1875 904.0625l11.367188 21.953125-33.90625 5.039063zm0 0" class="a"/><path d="M6.4023 62.5273 5.0195 65.039l-1.3906 2.6172 3.3164-.0703h3.3437l1.3594-2.6289 1.3477-2.5273-3.3086.0156-3.2852.082" class="l"/><path d="M64.023438 854.726562l-13.828126-25.117187-13.90625-26.171875 33.164063.703125h33.4375l13.59375 26.289063 13.476563 25.273437-33.085938-.15625zm0 0" class="a"/><path d="M22.2539 57.8125l-1.2812 2.3438-1.293 2.4453 3.3711.1875 3.3945.2578 1.2617-2.4609 1.2422-2.3594-3.3555-.2422-3.3398-.1719" class="f"/><path d="M222.539062 901.875l-12.8125-23.4375-12.929687-24.453125 33.710937-1.875 33.945313-2.578125 12.617187 24.609375 12.421876 23.59375-33.554688 2.421875zm0 0" class="a"/><path d="M67.4922 55.6875l-.9805 2.0586-.9961 2.1602 3.4922 1 3.5 1.0742.9492-2.1797.9375-2.082-3.457-1.0547-3.4453-.9766" class="u"/><path d="M674.921875 923.125l-9.804687-20.585938-9.960938-21.601562 34.921875-10 35-10.742188 9.492187 21.796876 9.375 20.820312L709.375 913.359375zm0 0" class="a"/><path d="M44.8555 55.3984l-1.1367 2.1954-1.1523 2.2969 3.4492.5938 3.4648.6602 1.1094-2.3125 1.0977-2.2148-3.4219-.6445-3.4102-.5742" class="c"/><path d="M448.554688 926.015625 437.1875 904.0625l-11.523438-22.96875 34.492188-5.9375 34.648438-6.601562 11.09375 23.125L516.875 913.828125l-34.21875 6.445313zm0 0" class="a"/><path d="M74.3945 57.7188l-.9375 2.082-.9492 2.1797 3.5117 1.1445 3.5156 1.2188.9063-2.2031.8945-2.1055-3.4766-1.1953-3.4648-1.1211" class="c"/><path d="M743.945312 902.8125l-9.375-20.820312-9.492187-21.796876L760.195312 848.75l35.15625-12.1875 9.0625 22.03125 8.945313 21.054688-34.765625 11.953124zm0 0" class="a"/><path d="M81.3359 60.0352l-.8945 2.1055-.9062 2.2031 3.5273 1.2891 3.5391 1.3594.8594-2.2266.8477-2.1289-3.4922-1.3398-3.4805-1.2617" class="c"/><path d="M813.359375 879.648438l-8.945313-21.054688-9.0625-22.03125L830.625 823.671875l35.390625-13.59375 8.59375 22.265625 8.476563 21.289062-34.921876 13.398438zm0 0" class="a"/><path d="M12.9961 62.4297l-1.3477 2.5273-1.3594 2.6289 3.3633.0703 3.3906.1328 1.3242-2.6445 1.3125-2.543-3.3555-.1211-3.3281-.0508" class="c"/><path d="M129.960938 855.703125l-13.476563-25.273437-13.59375-26.289063 33.632813-.703125 33.90625-1.328125 13.242187 26.445313 13.125 25.429687-33.554687 1.210937zm0 0" class="a"/><path d="M28.9492 58.2266 27.707 60.586l-1.2617 2.4609 3.418.3281 3.4336.3984 1.2188-2.4766 1.207-2.3789-3.3945-.3789-3.3789-.3125" class="m"/><path d="M289.492188 897.734375l-12.421876-23.59375-12.617187-24.609375 34.179687-3.28125 34.335938-3.984375 12.1875 24.765625 12.070312 23.789062-33.945312 3.789063zm0 0" class="a"/><path d="M88.3086 62.6367l-.8477 2.1289-.8594 2.2266 3.543 1.4336 3.5508 1.5078.8125-2.2539.8008-2.1562-3.5039-1.4805-3.4961-1.4062" class="m"/><path d="M883.085938 853.632812l-8.476563-21.289062-8.59375-22.265625 35.429687-14.335937 35.507813-15.078126 8.125 22.539063 8.007813 21.5625-35.039063 14.804687zm0 0" class="a"/><path fill="#b1b1b1" d="M51.6875 56.6172l-1.0977 2.2148-1.1094 2.3125 3.4805.7383 3.4922.8047 1.0703-2.3359 1.0508-2.2344-3.4531-.7852-3.4336-.7148"/><path d="M516.875 913.828125l-10.976562-22.148437-11.09375-23.125 34.804687-7.382813L564.53125 853.125l10.703125 23.359375 10.507813 22.34375-34.53125 7.851563zm0 0" class="a"/><path d="M95.3086 65.5234l-.8008 2.1563-.8125 2.2539 3.5508 1.5781 3.5625 1.6484.7656-2.2812.75-2.1836-3.5117-1.6211-3.5039-1.5508" class="m"/><path d="M953.085938 824.765625l-8.007813-21.5625-8.125-22.539063 35.507813-15.78125 35.625-16.484374 7.65625 22.8125 7.5 21.835937L988.125 809.257812zm0 0" class="a"/><path d="M109.3594 72.1563l-.707 2.207-.7148 2.3125 3.5664 1.8633 3.5664 1.9336.6719-2.3398.6563-2.2383-3.5195-1.9062-3.5195-1.832" class="c"/><path d="M1093.59375 758.4375l-7.070312-22.070312-7.148438-23.125 35.664062-18.632813 35.664063-19.335937 6.71875 23.398437 6.5625 22.382813-35.195313 19.0625zm0 0" class="a"/><path d="M102.3242 68.6953l-.75 2.1836-.7656 2.2813 3.5586 1.7227 3.5703 1.793.7148-2.3125.707-2.207-3.5195-1.7656-3.5156-1.6953" class="c"/><path d="M1023.242188 793.046875l-7.5-21.835937-7.65625-22.8125 35.585937-17.226563 35.703125-17.929687 7.148438 23.125 7.070312 22.070312-35.195312 17.65625zm0 0" class="a"/><path fill="#b1b1b1" d="M3.6289 67.6563l-1.4101 2.7148-1.4219 2.8164 3.3516-.0508 3.3789.0156 1.3867-2.8359 1.375-2.7305H6.9454l-3.3164.0703"/><path d="M36.289062 803.4375 22.1875 776.289062 7.96875 748.125l33.515625.507812 33.789063-.15625 13.867187 28.359376 13.75 27.304687h-33.4375zm0 0" class="a"/><path fill="#b2b2b2" d="M58.5742 58.1172l-1.0508 2.2344-1.0703 2.3359 3.5078.8789 3.5195.9492 1.0273-2.3555 1.0078-2.2539-3.4766-.9297-3.4648-.8594"/><path d="M585.742188 898.828125l-10.507813-22.34375L564.53125 853.125l35.078125-8.789062 35.195313-9.492188 10.273437 23.554688L655.15625 880.9375l-34.765625 9.296875zm0 0" class="a"/><path fill="#b2b2b2" d="M35.7227 58.918l-1.207 2.3789-1.2187 2.4766 3.4531.4688 3.4727.5391 1.1797-2.4961 1.1641-2.3945-3.4297-.5195-3.4141-.4531"/><path d="M357.226562 890.820312 345.15625 867.03125l-12.1875-24.765625 34.53125-4.6875 34.726562-5.390625 11.796876 24.960938 11.640624 23.945312-34.296874 5.195312zm0 0" class="a"/><path fill="#b2b2b2" d="M19.6797 62.6016l-1.3125 2.543-1.3242 2.6445 3.4102.207 3.4336.2773 1.2852-2.6641 1.2734-2.5625-3.3945-.2578-3.3711-.1875"/><path d="M196.796875 853.984375l-13.125-25.429687-13.242187-26.445313 34.101562-2.070313 34.335938-2.773437 12.851562 26.640625 12.734375 25.625-33.945313 2.578125zm0 0" class="a"/><path fill="#b4b4b4" d="M65.5156 59.9063l-1.0078 2.2539-1.0273 2.3555 3.5352 1.0234 3.543 1.0977.9805-2.3789.9688-2.2773-3.5-1.0742-3.4922-1"/><path d="M655.15625 880.9375l-10.078125-22.539062-10.273437-23.554688 35.351562-10.234375 35.429688-10.976563 9.804687 23.789063 9.6875 22.773437-35 10.742188zm0 0" class="a"/><path d="M42.5664 59.8906l-1.1641 2.3945-1.1797 2.4961 3.4883.6133 3.5039.6836 1.1406-2.5156 1.125-2.418-3.4648-.6602-3.4492-.5937" class="v"/><path d="M425.664062 881.09375l-11.640624-23.945312-11.796876-24.960938 34.882813-6.132812 35.039063-6.835938 11.40625 25.15625 11.25 24.179688-34.648438 6.601562zm0 0" class="a"/><path d="M72.5078 61.9805l-.9687 2.2773-.9805 2.3789 3.5547 1.168 3.5664 1.2422.9336-2.4023.9219-2.3008-3.5156-1.2187-3.5117-1.1445" class="v"/><path d="M725.078125 860.195312l-9.6875-22.773437-9.804687-23.789063 35.546874-11.679687 35.664063-12.421875 9.335937 24.023438 9.21875 23.007812-35.15625 12.1875zm0 0" class="a"/><path fill="#b4b4b4" d="M10.2891 67.5859l-1.375 2.7305-1.3867 2.8359 3.3984.0859 3.4258.1523 1.3516-2.8516 1.3398-2.75-3.3906-.1328-3.3633-.0703"/><path d="M102.890625 804.140625l-13.75-27.304687-13.867187-28.359376 33.984374-.859374 34.257813-1.523438 13.515625 28.515625 13.398438 27.5-33.90625 1.328125zm0 0" class="a"/><path d="M26.4453 63.0469l-1.2734 2.5625-1.2852 2.6641 3.4531.3438 3.4727.418 1.25-2.6836 1.2344-2.5781-3.4336-.3984-3.418-.3281" class="v"/><path d="M264.453125 849.53125l-12.734375-25.625-12.851562-26.640625 34.53125-3.4375 34.726562-4.179687 12.5 26.835937 12.34375 25.78125L298.632812 846.25zm0 0" class="a"/><path d="M79.5352 64.3438l-.9219 2.3008-.9336 2.4023 3.5742 1.3164 3.582 1.3828.8906-2.4258.875-2.3281-3.5391-1.3594-3.5273-1.2891" class="v"/><path d="M795.351562 836.5625l-9.21875-23.007812-9.335937-24.023438 35.742187-13.164062 35.820313-13.828126 8.90625 24.257813 8.75 23.28125-35.390625 13.59375zm0 0" class="a"/><path fill="#b7b7b7" d="M49.4805 61.1445l-1.125 2.418-1.1406 2.5156 3.5195.7539 3.5391.8281 1.0977-2.5391 1.082-2.4336-3.4922-.8047-3.4805-.7383"/><path d="M494.804688 868.554688l-11.25-24.179688-11.40625-25.15625 35.195312-7.539062 35.390625-8.28125 10.976563 25.390624L564.53125 853.125l-34.921875 8.046875zm0 0" class="a"/><path fill="#b6b6b6" d="M86.6016 66.9922l-.875 2.3281-.8906 2.4258 3.5898 1.4648 3.5938 1.5313.8438-2.457.832-2.3516-3.5508-1.5078-3.543-1.4336"/><path d="M866.015625 810.078125l-8.75-23.28125-8.90625-24.257813 35.898437-14.648437 35.9375-15.3125 8.4375 24.570313 8.320313 23.515624-35.507813 15.078126zm0 0" class="a"/><path d="M107.9375 76.6758l-.7344 2.4102-.75 2.5117 3.6133 1.8945 3.6172 1.9648.6992-2.543.6875-2.4414-3.5664-1.9336-3.5664-1.8633" class="v"/><path d="M1079.375 713.242188l-7.34375-24.101563-7.5-25.117187 36.132812-18.945313 36.171876-19.648437 6.992187 25.429687 6.875 24.414063-35.664063 19.335937zm0 0" class="a"/><path fill="#b6b6b6" d="M93.6953 69.9336l-.832 2.3516-.8437 2.457 3.6016 1.6055 3.6094 1.6758.793-2.4844.7852-2.3789-3.5625-1.6484-3.5508-1.5781"/><path d="M936.953125 780.664062l-8.320313-23.515624-8.4375-24.570313 36.015626-16.054687 36.09375-16.757813 7.929687 24.84375 7.851563 23.789063-35.625 16.484374zm0 0" class="a"/><path d="M100.8086 73.1602l-.7852 2.3789-.793 2.4844 3.6094 1.75 3.6133 1.8242.75-2.5117.7344-2.4102-3.5703-1.793-3.5586-1.7227" class="v"/><path d="M1008.085938 748.398438l-7.851563-23.789063-7.929687-24.84375 36.09375-17.5 36.132812-18.242187 7.5 25.117187 7.34375 24.101563-35.703125 17.929687zm0 0" class="a"/><path fill="#b8b8b8" d="M33.2969 63.7734l-1.2344 2.5782-1.25 2.6836 3.4922.4883 3.5078.5586 1.2109-2.7031 1.1992-2.5977-3.4726-.5391-3.4531-.4687"/><path d="M332.96875 842.265625l-12.34375-25.78125-12.5-26.835937 34.921875-4.882813 35.078125-5.585937 12.109375 27.03125 11.992187 25.976562L367.5 837.578125zm0 0" class="a"/><path fill="#b7b7b7" d="M17.043 67.7891l-1.3398 2.75-1.3516 2.8516 3.4453.2266 3.4688.293 1.3203-2.8711 1.3008-2.7656-3.4336-.2773-3.4102-.207"/><path d="M170.429688 802.109375l-13.398438-27.5-13.515625-28.515625 34.453125-2.265625 34.6875-2.929687 13.203125 28.710937 13.007813 27.65625-34.335938 2.773437zm0 0" class="a"/><path fill="#b8b8b8" d="M56.4531 62.6875l-1.082 2.4336-1.0977 2.5391 3.5508.9023 3.5625.9727 1.0547-2.5586 1.0391-2.4609-3.5195-.9492-3.5078-.8789"/><path d="M564.53125 853.125l-10.820312-24.335938-10.976563-25.390624 35.507813-9.023438 35.625-9.726562 10.546874 25.585937 10.390626 24.609375-35.195313 9.492188zm0 0" class="a"/><path fill="#bababa" d="M63.4805 64.5156l-1.0391 2.4609-1.0547 2.5586 3.5781 1.0469 3.5859 1.1172 1.0117-2.582.9961-2.4805-3.543-1.0977-3.5352-1.0234"/><path d="M634.804688 834.84375l-10.390626-24.609375-10.546874-25.585937 35.78125-10.46875 35.859374-11.171876L695.625 788.828125l9.960938 24.804687-35.429688 10.976563zm0 0" class="a"/><path fill="#bababa" d="M40.2227 64.7813l-1.1992 2.5977-1.2109 2.7031 3.5313.6328 3.5469.7031 1.168-2.7227 1.1563-2.6172-3.5039-.6836-3.4883-.6133"/><path d="M402.226562 832.1875l-11.992187-25.976562-12.109375-27.03125 35.3125-6.328126 35.46875-7.03125 11.679688 27.226563 11.5625 26.171875-35.039063 6.835938zm0 0" class="a"/><path fill="#bbb" d="M70.5586 66.6367l-.9961 2.4805-1.0117 2.582 3.6016 1.1953 3.6094 1.2656.9688-2.6094.9492-2.5039-3.5664-1.2422-3.5547-1.168"/><path d="M705.585938 813.632812 695.625 788.828125l-10.117188-25.820313 36.015626-11.953124 36.09375-12.65625 9.6875 26.09375 9.492187 25.039062-35.664063 12.421875zm0 0" class="a"/><path fill="#bbb" d="M23.8867 68.2734l-1.3008 2.7656-1.3203 2.8711 3.4922.3672 3.5117.4375 1.2773-2.8945 1.2656-2.7852-3.4727-.418-3.4531-.3437"/><path d="M238.867188 797.265625l-13.007813-27.65625-13.203125-28.710937 34.921875-3.671876 35.117187-4.375 12.773438 28.945313 12.65625 27.851563-34.726562 4.179687zm0 0" class="a"/><path fill="#bbb" d="M77.6797 69.0469l-.9492 2.5039-.9687 2.6094 3.621 1.3398 3.625 1.4141.9219-2.6367.9063-2.5312-3.582-1.3828-3.5742-1.3164"/><path d="M776.796875 789.53125l-9.492187-25.039062-9.6875-26.09375L793.828125 725l36.25-14.140625 9.21875 26.367187 9.0625 25.3125-35.820313 13.828126zm0 0" class="a"/><path fill="#bcbcbc" d="M47.2148 66.0781l-1.1562 2.6172-1.168 2.7227 3.5625.7773 3.5781.8516 1.1289-2.7461 1.1133-2.6406-3.5391-.8281-3.5195-.7539"/><path d="M472.148438 819.21875l-11.5625-26.171875-11.679688-27.226563 35.625-7.773437 35.78125-8.515625 11.289062 27.460938 11.132813 26.40625-35.390625 8.28125zm0 0" class="a"/><path fill="#bcbcbc" d="M84.8359 71.7461l-.9062 2.5313-.9219 2.6367 3.6367 1.4883 3.6445 1.5586.875-2.6641.8555-2.5547-3.5937-1.5312-3.5898-1.4648"/><path d="M848.359375 762.539062l-9.0625-25.3125-9.21875-26.367187 36.367187-14.882813 36.445313-15.585937 8.75 26.640625 8.554687 25.546875-35.9375 15.3125zm0 0" class="a"/><path fill="#bbb" d="M106.4531 81.5977l-.7617 2.6133-.7812 2.7227 3.6641 1.9258 3.668 1.9961.7305-2.75.7109-2.6484-3.6172-1.9648-3.6133-1.8945"/><path d="M1064.53125 664.023438l-7.617188-26.132813-7.8125-27.226563 36.640626-19.257812 36.679687-19.960938 7.304687 27.5 7.109376 26.484376-36.171876 19.648437zm0 0" class="a"/><path fill="#bcbcbc" d="M92.0195 74.7422l-.8555 2.5547-.875 2.6641 3.6485 1.6328 3.6563 1.707.8242-2.6914.8125-2.5859-3.6094-1.6758-3.6016-1.6055"/><path d="M920.195312 732.578125l-8.554687-25.546875-8.75-26.640625L939.375 664.0625l36.5625-17.070312 8.242188 26.914062 8.125 25.859375-36.09375 16.757813zm0 0" class="a"/><path fill="#bbb" d="M99.2305 78.0234l-.8125 2.5859-.8242 2.6914 3.6563 1.7813 3.6602 1.8516.7813-2.7227.7617-2.6133-3.6133-1.8242-3.6094-1.75"/><path d="M992.304688 699.765625l-8.125-25.859375-8.242188-26.914062 36.5625-17.8125 36.601562-18.515626 7.8125 27.226563 7.617188 26.132813-36.132812 18.242187zm0 0" class="a"/><path fill="#bdbdbd" d="M30.8125 69.0352l-1.2656 2.7852-1.2773 2.8945 3.5273.5078 3.5547.582 1.2383-2.9141 1.2227-2.8086-3.5078-.5586-3.4922-.4883"/><path d="M308.125 789.648438l-12.65625-27.851563-12.773438-28.945313 35.273438-5.078124 35.546875-5.820313 12.382813 29.140625L378.125 779.179688l-35.078125 5.585937zm0 0" class="a"/><path fill="#bebebe" d="M54.2734 67.6602l-1.1133 2.6406-1.1289 2.7461 3.5938.9219 3.6055 1 1.0859-2.7695 1.0703-2.6641-3.5625-.9727-3.5508-.9023"/><path d="M542.734375 803.398438l-11.132813-26.40625L520.3125 749.53125l35.9375-9.21875 36.054688-10 10.859374 27.695312 10.703126 26.640626-35.625 9.726562zm0 0" class="a"/><path fill="silver" d="M61.3867 69.5352l-1.0703 2.6641-1.0859 2.7695 3.6211 1.0703 3.6328 1.1445 1.043-2.7969 1.0234-2.6875-3.5859-1.1172-3.5781-1.0469"/><path d="M613.867188 784.648438l-10.703126-26.640626-10.859374-27.695312 36.210937-10.703125 36.328125-11.445313 10.429688 27.96875 10.234374 26.875-35.859374 11.171876zm0 0" class="a"/><path fill="silver" d="M37.8125 70.082l-1.2227 2.8086-1.2383 2.9141 3.5664.6523 3.5898.7266 1.1992-2.9375 1.1836-2.8281-3.5469-.7031-3.5312-.6328"/><path d="M378.125 779.179688l-12.226562-28.085938-12.382813-29.140625 35.664063-6.523437 35.898437-7.265626 11.992187 29.375 11.835938 28.28125-35.46875 7.03125zm0 0" class="a"/><path fill="#c1c1c1" d="M68.5508 71.6992l-1.0234 2.6875-1.043 2.7969 3.6445 1.2188 3.6563 1.293.9961-2.8242.9805-2.7109-3.6094-1.2656-3.6016-1.1953"/><path d="M685.507812 763.007812l-10.234374-26.875-10.429688-27.96875 36.445312-12.1875 36.5625-12.929687 9.960938 28.242187 9.804688 27.109376-36.09375 12.65625zm0 0" class="a"/><path d="M75.7617 74.1602l-.9805 2.7109-.9961 2.8242 3.6641 1.3672L81.125 82.5l.9492-2.8477.9336-2.7383-3.625-1.4141-3.6211-1.3398" class="F"/><path d="M757.617188 738.398438l-9.804688-27.109376-9.960938-28.242187L774.492188 669.375 811.25 655l9.492188 28.476562 9.335937 27.382813L793.828125 725zm0 0" class="a"/><path d="M44.8906 71.418l-1.1836 2.8281-1.1992 2.9375 3.6016.8008 3.6211.875 1.1563-2.9609 1.1445-2.8516-3.5781-.8516-3.5625-.7773" class="F"/><path d="M448.90625 765.820312l-11.835938-28.28125-11.992187-29.375 36.015625-8.007812 36.210938-8.75 11.5625 29.609375L520.3125 749.53125l-35.78125 8.515625zm0 0" class="a"/><path d="M83.0078 76.9141l-.9336 2.7383L81.125 82.5l3.6836 1.5156 3.6875 1.5898.9023-2.875.8906-2.7695-3.6445-1.5586-3.6367-1.4883" class="F"/><path d="M830.078125 710.859375l-9.335937-27.382813L811.25 655l36.835938-15.15625 36.875-15.898438 9.023437 28.75 8.90625 27.695313-36.445313 15.585937zm0 0" class="a"/><path fill="#c1c1c1" d="M104.9102 86.9336l-.793 2.8281-.8086 2.9336 3.7148 1.957 3.7109 2.0313.7617-2.9687.7461-2.8594-3.668-1.9961-3.6641-1.9258"/><path d="M1049.101562 610.664062l-7.929687-28.28125-8.085937-29.335937 37.148437-19.570313 37.109375-20.3125 7.617188 29.6875 7.460937 28.59375-36.679687 19.960938zm0 0" class="a"/><path d="M90.2891 79.9609l-.8906 2.7695-.9023 2.875 3.6953 1.6641 3.7031 1.7344.8555-2.9062.8438-2.7969-3.6562-1.707-3.6484-1.6328" class="F"/><path d="M902.890625 680.390625l-8.90625-27.695313-9.023437-28.75 36.953124-16.640624 37.03125-17.34375 8.554688 29.0625 8.4375 27.96875L939.375 664.0625zm0 0" class="a"/><path fill="#c1c1c1" d="M97.5938 83.3008l-.8438 2.7969-.8555 2.9063 3.707 1.8086 3.707 1.8828.8086-2.9336.793-2.8281-3.6601-1.8517-3.6562-1.7812"/><path d="M975.9375 646.992188l-8.4375-27.96875-8.554688-29.0625L996.015625 571.875l37.070313-18.828125 8.085937 29.335937 7.929687 28.28125L1012.5 629.179688zm0 0" class="a"/><path fill="#c4c4c4" d="M52.0313 73.0469l-1.1445 2.8516-1.1562 2.9609 3.6367.9453 3.6484 1.0234 1.1172-2.9844 1.0977-2.875-3.6055-1-3.5937-.9219"/><path d="M520.3125 749.53125l-11.445312-28.515625-11.5625-29.609375 36.367187-9.453125 36.484375-10.234375 11.171875 29.84375 10.976563 28.75-36.054688 10zm0 0" class="a"/><path fill="#c6c6c6" d="M59.2305 74.9688l-1.0977 2.875-1.1172 2.9844 3.6641 1.0938 3.6797 1.1719 1.0703-3.0078 1.0547-2.9023-3.6328-1.1445-3.6211-1.0703"/><path d="M592.304688 730.3125l-10.976563-28.75-11.171875-29.84375 36.640625-10.9375 36.796875-11.71875 10.703125 30.078125 10.546875 29.023437-36.328125 11.445313zm0 0" class="a"/><path fill="#c7c7c7" d="M66.4844 77.1836l-1.0547 2.9023-1.0703 3.0078 3.6875 1.2461 3.6992 1.3164 1.0273-3.0352 1.0117-2.9258-3.6562-1.293-3.6445-1.2187"/><path d="M664.84375 708.164062l-10.546875-29.023437L643.59375 649.0625l36.875-12.460938 36.992188-13.164062 10.273437 30.351562 10.117187 29.257813-36.5625 12.929687zm0 0" class="a"/><path fill="#c8c8c8" d="M73.7852 79.6953l-1.0117 2.9258-1.0273 3.0352 3.7109 1.3984 3.7227 1.4688.9805-3.0664.9647-2.9571-3.6758-1.4375-3.6641-1.3672"/><path d="M737.851562 683.046875l-10.117187-29.257813-10.273437-30.351562 37.109374-13.984375 37.226563-14.6875 9.804687 30.664063L811.25 655l-36.757812 14.375zm0 0" class="a"/><path fill="#c8c8c8" d="M81.125 82.5l-.9648 2.957-.9805 3.0664 3.7266 1.543 3.7383 1.6172.9336-3.0937.918-2.9844-3.6875-1.5898L81.125 82.5"/><path d="M811.25 655l-9.648438-29.570312-9.804687-30.664063 37.265625-15.429687 37.382812-16.171876 9.335938 30.9375 9.179688 29.84375-36.875 15.898438zm0 0" class="a"/><path fill="#c7c7c7" d="M103.3086 92.6953l-.8242 3.0469-.8359 3.1563 3.7578 1.9883 3.7656 2.0625.7891-3.1875.7734-3.0781-3.7109-2.0312-3.7148-1.957"/><path d="M1033.085938 553.046875l-8.242188-30.46875-8.359375-31.5625 37.578125-19.882813 37.65625-20.625 7.890625 31.875 7.734375 30.78125-37.109375 20.3125zm0 0" class="a"/><path fill="#c8c8c8" d="M88.4961 85.6055l-.918 2.9844-.9336 3.0938 3.7422 1.6913 3.75 1.7695.8867-3.125.8711-3.0156-3.7031-1.7344-3.6953-1.6641"/><path d="M884.960938 623.945312l-9.179688-29.84375-9.335938-30.9375L903.867188 546.25l37.5-17.695312 8.867187 31.25 8.710937 30.15625-37.03125 17.34375zm0 0" class="a"/><path fill="#c7c7c7" d="M95.8945 89.0039l-.8711 3.0156-.8867 3.125 3.7539 1.8398 3.7578 1.9141.8359-3.1562.8242-3.0469-3.707-1.8828-3.707-1.8086"/><g class="a"><path d="M958.945312 589.960938l-8.710937-30.15625-8.867187-31.25 37.539062-18.398438 37.578125-19.140625 8.359375 31.5625 8.242188 30.46875L996.015625 571.875zm0 0"/><path d="M520 1152.539062v142.929688"/></g><path d="M52 26.3281h1.4961L52 18.4531l-1.4922 7.875H52"/><path d="M520 1216.71875h14.960938L520 1295.46875l-14.921875-78.75zm0 0" class="a"/><use x="49.0012" y="11.109" href="#b"/><use x="82.4782" y="26.2492" href="#b"/><use x="92.4384" y="26.2492" href="#i"/><use x="105.5189" y="26.2492" href="#f"/><use x="111.0388" y="26.2492" href="#j"/><use x="115.4786" y="26.2492" href="#a"/><use x="121.8388" y="28.0492" href="#d"/><use x="127.1189" y="26.2492" href="#g"/><use x="132.7587" y="26.2492" href="#a"/><use x="139.1189" y="28.0492" href="#e"/><use x="143.9189" y="26.2492" href="#k"/><path fill="#a6a6a6" d="M66.7539 36.8789 65 40.1953l6.168 2.2695 1.6875-3.3555-6.1016-2.2305"/><path d="M667.539062 1111.210938 650 1078.046875l61.679688-22.695313 16.875 33.554688zm0 0" class="a"/><path fill="#a6a6a6" d="M72.8555 39.1094l-1.6875 3.3555 6.2031 2.2813 1.6133-3.3945-6.1289-2.2422"/><path d="M728.554688 1088.90625l-16.875-33.554688 62.03125-22.8125 16.132812 33.945313zm0 0" class="a"/><path d="M78.9844 41.3516l-1.6133 3.3945 6.2344 2.2891 1.5391-3.4297-6.1602-2.2539" class="d"/><path d="M789.84375 1066.484375l-16.132812-33.945313 62.34375-22.890624 15.390624 34.296874zm0 0" class="a"/><path d="M85.1445 43.6055l-1.5391 3.4297 6.2656 2.3047 1.4688-3.4687-6.1953-2.2656" class="d"/><path d="M851.445312 1043.945312l-15.390624-34.296874 62.65625-23.046876 14.6875 34.6875zm0 0" class="a"/><path d="M91.3398 45.8711l-1.4687 3.4688 6.3008 2.3125 1.3906-3.5039-6.2227-2.2773" class="d"/><path d="M913.398438 1021.289062l-14.6875-34.6875 63.007812-23.125 13.90625 35.039063zm0 0" class="a"/><path d="M97.5625 48.1484l-1.3906 3.5039 6.332 2.3281 1.3164-3.543-6.2578-2.2891" class="d"/><path d="M975.625 998.515625l-13.90625-35.039063 63.320312-23.28125 13.164063 35.429688zm0 0" class="a"/><path d="M103.8203 50.4375l-1.3164 3.543 6.3633 2.3398 1.2422-3.582-6.2891-2.3008" class="d"/><path d="M1038.203125 975.625l-13.164063-35.429688 63.632813-23.398437 12.421875 35.820313zm0 0" class="a"/><path d="M110.1094 52.7383l-1.2422 3.582 6.3984 2.3477 1.1641-3.6172-6.3203-2.3125" class="d"/><path d="M1101.09375 952.617188l-12.421875-35.820313 63.984375-23.476563 11.640625 36.171876zm0 0" class="a"/><path d="M65 40.1953l-1.8008 3.4063 6.2422 2.3047 1.7266-3.4414L65 40.1953" class="d"/><path d="M650 1078.046875l-18.007812-34.0625 62.421874-23.046875 17.265626 34.414062zm0 0" class="a"/><path d="M71.168 42.4648l-1.7266 3.4414 6.2773 2.3164 1.6523-3.4766-6.2031-2.2812" class="e"/><path d="M711.679688 1055.351562l-17.265626-34.414062 62.773438-23.164062 16.523438 34.765624zm0 0" class="a"/><path d="M77.3711 44.7461l-1.6523 3.4766 6.3086 2.3281 1.5781-3.5156-6.2344-2.2891" class="e"/><path d="M773.710938 1032.539062 757.1875 997.773438l63.085938-23.28125 15.78125 35.15625zm0 0" class="a"/><path d="M83.6055 47.0352l-1.5781 3.5156 6.3438 2.3398 1.5-3.5508-6.2656-2.3047" class="e"/><path d="M836.054688 1009.648438l-15.78125-35.15625 63.4375-23.398438 15 35.507812zm0 0" class="a"/><path d="M89.8711 49.3398l-1.5 3.5508 6.375 2.3555 1.4258-3.5937-6.3008-2.3125" class="e"/><path d="M898.710938 986.601562l-15-35.507812 63.75-23.554688 14.257812 35.9375zm0 0" class="a"/><path d="M96.1719 51.6523l-1.4258 3.5938 6.4063 2.3672 1.3516-3.6328-6.332-2.3281" class="e"/><path d="M961.71875 963.476562l-14.257812-35.9375 64.0625-23.671874 13.515624 36.328124zm0 0" class="a"/><path d="M102.5039 53.9805l-1.3516 3.6328 6.4453 2.3789 1.2695-3.6719-6.3633-2.3398" class="e"/><path d="M1025.039062 940.195312l-13.515624-36.328124 64.453124-23.789063 12.695313 36.71875zm0 0" class="a"/><path d="M108.8672 56.3203l-1.2695 3.6719 6.4766 2.3906 1.1914-3.7148-6.3984-2.3477" class="e"/><path d="M1088.671875 916.796875l-12.695313-36.71875 64.765626-23.90625 11.914062 37.148437zm0 0" class="a"/><path d="M63.1992 43.6016l-1.8437 3.4883 6.3164 2.3438 1.7695-3.5273-6.2422-2.3047" class="e"/><path d="M631.992188 1043.984375l-18.4375-34.882813 63.164062-23.4375 17.695312 35.273438zm0 0" class="a"/><path d="M69.4414 45.9063l-1.7695 3.5273 6.3516 2.3555 1.6953-3.5664-6.2773-2.3164" class="g"/><path d="M694.414062 1020.9375l-17.695312-35.273438 63.515625-23.554687 16.953125 35.664063zm0 0" class="a"/><path d="M75.7188 48.2227l-1.6953 3.5664 6.3867 2.3672 1.6172-3.6055-6.3086-2.3281" class="g"/><path d="M757.1875 997.773438l-16.953125-35.664063 63.867187-23.671875 16.171876 36.054688zm0 0" class="a"/><path d="M82.0273 50.5508l-1.6172 3.6055 6.418 2.3789 1.543-3.6445-6.3437-2.3398" class="g"/><path d="M820.273438 974.492188 804.101562 938.4375l64.179688-23.789062 15.429688 36.445312zm0 0" class="a"/><path d="M88.3711 52.8906l-1.543 3.6445 6.4531 2.3945 1.4648-3.6836-6.375-2.3555" class="g"/><path d="M883.710938 951.09375l-15.429688-36.445312 64.53125-23.945313 14.648438 36.835937zm0 0" class="a"/><path d="M94.7461 55.2461l-1.4648 3.6836 6.4883 2.4063 1.3828-3.7227-6.4062-2.3672" class="g"/><path d="M947.460938 927.539062 932.8125 890.703125l64.882812-24.0625 13.828126 37.226563zm0 0" class="a"/><path d="M101.1523 57.6133l-1.3828 3.7227 6.5195 2.4219 1.3086-3.7656-6.4453-2.3789" class="g"/><path d="M1011.523438 903.867188l-13.828126-37.226563 65.195313-24.21875 13.085937 37.65625zm0 0" class="a"/><path d="M107.5977 59.9922l-1.3086 3.7656 6.5586 2.4297 1.2266-3.8047-6.4766-2.3906" class="b"/><path d="M1075.976562 880.078125l-13.085937-37.65625 65.585937-24.296875 12.265626 38.046875zm0 0" class="a"/><path d="M61.3555 47.0898l-1.8945 3.5781 6.3945 2.3828 1.8164-3.6172-6.3164-2.3437" class="b"/><path d="M613.554688 1009.101562l-18.945313-35.78125 63.945313-23.828124 18.164062 36.171874zm0 0" class="a"/><path d="M67.6719 49.4336l-1.8164 3.6172 6.4297 2.3945 1.7383-3.6562-6.3516-2.3555" class="b"/><path d="M676.71875 985.664062l-18.164062-36.171874 64.296874-23.945313 17.382813 36.5625zm0 0" class="a"/><path d="M74.0234 51.7891l-1.7383 3.6563 6.4649 2.4101 1.6602-3.6992-6.3867-2.3672" class="b"/><path d="M740.234375 962.109375l-17.382813-36.5625L787.5 901.445312l16.601562 36.992188zm0 0" class="a"/><path d="M80.4102 54.1563 78.75 57.8555l6.4961 2.4219 1.582-3.7422-6.418-2.3789" class="b"/><path d="M804.101562 938.4375 787.5 901.445312l64.960938-24.21875 15.820312 37.421876zm0 0" class="a"/><path d="M86.8281 56.5352l-1.582 3.7422 6.5352 2.4336 1.5-3.7812-6.4531-2.3945" class="b"/><path d="M868.28125 914.648438l-15.820312-37.421876 65.351562-24.335937 15 37.8125zm0 0" class="a"/><path d="M93.2813 58.9297l-1.5 3.7813 6.5664 2.4492 1.4219-3.8242-6.4883-2.4062" class="k"/><path d="M932.8125 890.703125l-15-37.8125 65.664062-24.492187 14.21875 38.242187zm0 0" class="a"/><path d="M99.7695 61.3359l-1.4219 3.8242 6.6055 2.4609 1.3359-3.8633-6.5195-2.4219" class="k"/><path d="M997.695312 866.640625l-14.21875-38.242187 66.054688-24.609376 13.359375 38.632813zm0 0" class="a"/><path d="M106.2891 63.7578l-1.3359 3.8633 6.6406 2.4766 1.2539-3.9102-6.5586-2.4297" class="k"/><path d="M1062.890625 842.421875l-13.359375-38.632813 66.40625-24.765624 12.539062 39.101562zm0 0" class="a"/><path d="M59.4609 50.668l-1.9414 3.6719 6.4727 2.4258 1.8633-3.7148-6.3945-2.3828" class="k"/><path d="M594.609375 973.320312l-19.414063-36.71875 64.726563-24.257812 18.632813 37.148438zm0 0" class="a"/><path d="M65.8555 53.0508l-1.8633 3.7148L70.5 59.2031l1.7852-3.7578-6.4297-2.3945" class="k"/><path d="M658.554688 949.492188l-18.632813-37.148438L705 887.96875l17.851562 37.578125zm0 0" class="a"/><path d="M72.2852 55.4453 70.5 59.2031l6.543 2.4492 1.707-3.7968-6.4648-2.4102" class="k"/><path d="M722.851562 925.546875 705 887.96875l65.429688-24.492188L787.5 901.445312zm0 0" class="a"/><path d="M78.75 57.8555l-1.707 3.7969 6.5781 2.4648 1.625-3.8398-6.4961-2.4219" class="l"/><path d="M787.5 901.445312l-17.070312-37.96875 65.78125-24.648437 16.25 38.398437zm0 0" class="a"/><path d="M85.2461 60.2773l-1.625 3.8398 6.6172 2.4766 1.543-3.8828-6.5352-2.4336" class="l"/><path d="M852.460938 877.226562l-16.25-38.398437 66.171874-24.765625 15.429688 38.828125zm0 0" class="a"/><path d="M91.7813 62.7109l-1.543 3.8828 6.6523 2.4922 1.457-3.9258-6.5664-2.4492" class="l"/><path d="M917.8125 852.890625 902.382812 814.0625l66.523438-24.921875 14.570312 39.257813zm0 0" class="a"/><path d="M98.3477 65.1602l-1.457 3.9258 6.6875 2.5039 1.375-3.9687-6.6055-2.4609" class="l"/><path d="M983.476562 828.398438l-14.570312-39.257813 66.875-25.039063 13.75 39.6875zm0 0" class="a"/><path d="M104.9531 67.6211l-1.375 3.9688 6.7227 2.5195 1.293-4.0117-6.6406-2.4766" class="l"/><path d="M1049.53125 803.789062l-13.75-39.6875 67.226562-25.195312 12.929688 40.117188zm0 0" class="a"/><path d="M57.5195 54.3398l-1.9961 3.7695 6.5547 2.4648 1.9141-3.8086-6.4727-2.4258" class="l"/><path d="M575.195312 936.601562l-19.960937-37.695312 65.546875-24.648438 19.140625 38.085938zm0 0" class="a"/><path d="M63.9922 56.7656l-1.9141 3.8086 6.5898 2.4805L70.5 59.2031l-6.5078-2.4375" class="l"/><path d="M639.921875 912.34375l-19.140625-38.085938 65.898438-24.804687L705 887.96875zm0 0" class="a"/><path d="M70.5 59.2031l-1.832 3.8516 6.625 2.4961 1.75-3.8984-6.543-2.4493" class="f"/><path d="M705 887.96875l-18.320312-38.515625 66.25-24.960937 17.5 38.984374zm0 0" class="a"/><path d="M77.043 61.6523l-1.75 3.8984 6.6641 2.5078 1.6641-3.9414-6.5781-2.4648" class="f"/><path d="M770.429688 863.476562l-17.5-38.984374 66.640624-25.078126 16.640626 39.414063zm0 0" class="a"/><path d="M83.6211 64.1172l-1.6641 3.9414 6.6992 2.5195 1.582-3.9844-6.6172-2.4766" class="f"/><path d="M836.210938 838.828125l-16.640626-39.414063L886.5625 774.21875l15.820312 39.84375zm0 0" class="a"/><path d="M90.2383 66.5938l-1.582 3.9844 6.7344 2.5352 1.5-4.0273-6.6523-2.4922" class="f"/><path d="M902.382812 814.0625 886.5625 774.21875l67.34375-25.351562 15 40.273437zm0 0" class="a"/><path d="M96.8906 69.0859l-1.5 4.0273 6.7734 2.5508 1.4141-4.0742-6.6875-2.5039" class="f"/><path d="M968.90625 789.140625l-15-40.273437 67.734375-25.507813 14.140625 40.742187zm0 0" class="a"/><path d="M103.5781 71.5898l-1.4141 4.0742 6.8125 2.5625 1.3242-4.1172-6.7227-2.5195" class="f"/><path d="M1035.78125 764.101562l-14.140625-40.742187 68.125-25.625 13.242187 41.171875zm0 0" class="a"/><path d="M55.5234 58.1094l-2.0469 3.8672 6.6367 2.5117 1.9648-3.9141-6.5547-2.4648" class="f"/><path d="M555.234375 898.90625l-20.46875-38.671875 66.367187-25.117187 19.648438 39.140624zm0 0" class="a"/><path d="M62.0781 60.5742l-1.9648 3.9141 6.6719 2.5234 1.8828-3.957-6.5898-2.4805" class="u"/><path d="M620.78125 874.257812l-19.648438-39.140624 66.71875-25.234376 18.828126 39.570313zm0 0" class="a"/><path d="M68.668 63.0547l-1.8828 3.957 6.7109 2.5391 1.7969-4-6.625-2.4961" class="u"/><path d="M686.679688 849.453125l-18.828126-39.570313 67.109376-25.390624 17.96875 40zm0 0" class="a"/><path d="M75.293 65.5508l-1.7969 4 6.7461 2.5547 1.7148-4.0469-6.6641-2.5078" class="u"/><path d="M752.929688 824.492188l-17.96875-40 67.460937-25.546876 17.148437 40.46875zm0 0" class="a"/><path d="M81.957 68.0586l-1.7148 4.0469 6.7852 2.5664 1.6289-4.0937-6.6992-2.5195" class="u"/><path d="M819.570312 799.414062l-17.148437-40.46875 67.851563-25.664062 16.289062 40.9375zm0 0" class="a"/><path d="M88.6563 70.5781l-1.6289 4.0938 6.8242 2.582 1.5391-4.1406-6.7344-2.5352" class="u"/><path d="M886.5625 774.21875l-16.289062-40.9375 68.242187-25.820312 15.390625 41.40625zm0 0" class="a"/><path d="M95.3906 73.1133l-1.5391 4.1406 6.8633 2.5977 1.4492-4.1875-6.7734-2.5508" class="c"/><path d="M953.90625 748.867188l-15.390625-41.40625 68.632813-25.976563 14.492187 41.875zm0 0" class="a"/><path d="M102.1641 75.6641l-1.4492 4.1875 6.9023 2.6094 1.3594-4.2344-6.8125-2.5625" class="c"/><path d="M1021.640625 723.359375l-14.492187-41.875 69.023437-26.09375 13.59375 42.34375zm0 0" class="a"/><path d="M53.4766 61.9766l-2.1016 3.9765 6.7227 2.5547 2.0156-4.0195-6.6367-2.5117" class="c"/><path d="M534.765625 860.234375 513.75 820.46875l67.226562-25.546875 20.15625 40.195313zm0 0" class="a"/><path d="M60.1133 64.4883l-2.0156 4.0195 6.7578 2.5742 1.9297-4.0703-6.6719-2.5234" class="c"/><path d="M601.132812 835.117188l-20.15625-40.195313 67.578126-25.742187 19.296874 40.703124zm0 0" class="a"/><path d="M66.7852 67.0117l-1.9297 4.0703 6.793 2.582 1.8477-4.1133-6.7109-2.5391" class="c"/><path d="M667.851562 809.882812l-19.296874-40.703124 67.929687-25.820313 18.476563 41.132813zm0 0" class="a"/><path d="M73.4961 69.5508l-1.8477 4.1133 6.8359 2.6016 1.7578-4.1602-6.7461-2.5547" class="m"/><path d="M734.960938 784.492188l-18.476563-41.132813 68.359375-26.015625 17.578125 41.601562zm0 0" class="a"/><path d="M80.2422 72.1055l-1.7578 4.1602 6.875 2.6133 1.668-4.207-6.7852-2.5664" class="m"/><path d="M802.421875 758.945312 784.84375 717.34375l68.75-26.132812 16.679688 42.070312zm0 0" class="a"/><path d="M87.0273 74.6719l-1.668 4.207 6.9141 2.6289 1.5781-4.2539-6.8242-2.582" class="m"/><path d="M870.273438 733.28125l-16.679688-42.070312 69.140625-26.289063 15.78125 42.539063zm0 0" class="a"/><path d="M93.8516 77.2539l-1.5781 4.2539 6.9531 2.6445 1.4883-4.3008-6.8633-2.5977" class="m"/><path d="M938.515625 707.460938l-15.78125-42.539063 69.53125-26.445313 14.882813 43.007813zm0 0" class="a"/><path d="M100.7148 79.8516l-1.4883 4.3008 6.9922 2.6602 1.3984-4.3516-6.9023-2.6094" class="m"/><g stroke="#000" stroke-miterlimit="10" transform="matrix(.1 0 0 -.1 0 148)"><g stroke-width="3.985"><path fill="none" d="M1007.148438 681.484375l-14.882813-43.007813L1062.1875 611.875l13.984375 43.515625zm0 0"/><path d="M867.421875 877.226562c0 8.242188-6.679687 14.960938-14.960937 14.960938-8.242188 0-14.921876-6.71875-14.921876-14.960938 0-8.242187 6.679688-14.921874 14.921876-14.921874 8.28125 0 14.960937 6.679687 14.960937 14.921874zm0 0"/></g><path fill="none" stroke-width="7.9701" d="M830.703125 317.304688l438.75-131.679688"/></g><path d="M119.7695 127.2852l-.4258 1.4297 7.6016.7227-6.7461-3.582-.4297 1.4297"/><path d="M1197.695312 207.148438l-4.257812-14.296876 76.015625-7.226562-67.460937 35.820312zm0 0" style="fill:none;stroke-width:7.9701;stroke:#000;stroke-miterlimit:10;transform:matrix(.1,0,0,-.1,0,148)"/><use x="101.462" y="135.2789" href="#c"/><g style="fill:none;stroke:#000;stroke-miterlimit:10;transform:matrix(.1,0,0,-.1,0,148)"><g stroke-width="3.985"><path d="M852.460938 877.226562l473.007812-103.671874"/><path d="M852.460938 877.226562 1310.3125 614.6875"/></g><path stroke-width="7.9701" d="M1325.46875 773.554688 1310.3125 614.6875"/></g><path d="M131.7578 78.9219l-1.4883-.1406.7617 7.75 2.2109-7.4648-1.4844-.1445"/><g style="stroke-width:7.9701;stroke:#000;stroke-miterlimit:10;transform:matrix(.1,0,0,-.1,0,148)"><path fill="none" d="M1317.578125 690.78125l-14.882813 1.40625 7.617188-77.5 22.109375 74.648438zm0 0"/><path d="M1340.390625 773.554688c0 8.242187-6.679687 14.960937-14.921875 14.960937-8.28125 0-14.960938-6.71875-14.960938-14.960937 0-8.242188 6.679688-14.921876 14.960938-14.921876 8.242188 0 14.921875 6.679688 14.921875 14.921876zm0 0"/></g><use x="136.007" y="82.982" href="#h"/><use x="145.4871" y="82.982" href="#c"/><style>.a{fill:none;stroke:#000;stroke-miterlimit:10;stroke-width:3.985;transform:matrix(.1,0,0,-.1,0,148)}.b{fill:#aaa}.c{fill:#afafaf}.d{fill:#a7a7a7}.e{fill:#a8a8a8}.f{fill:#adadad}.g{fill:#a9a9a9}.h{fill:#858585}.i{fill:#8e8e8e}.j{fill:#9a9a9a}.k{fill:#ababab}.l{fill:#acacac}.m{fill:#b0b0b0}.n{fill:#848484}.o{fill:#888}.p{fill:#878787}.q{fill:#8a8a8a}.r{fill:#969696}.s{fill:#9f9f9f}.t{fill:#a4a4a4}.u{fill:#aeaeae}.v{fill:#b5b5b5}.w{fill:#919191}.x{fill:#929292}.y{fill:#828282}.z{fill:#838383}.A{fill:#868686}.B{fill:#898989}.C{fill:#8b8b8b}.D{fill:#8c8c8c}.E{fill:#a3a3a3}.F{fill:#c2c2c2}</style></svg>