<svg xmlns="http://www.w3.org/2000/svg" width="290pt" height="146pt" viewBox="0 0 290 146"><path d="M10 731.601562h2880.039062" class="a"/><path d="M.7461 69.8516h.6016v6H.7461zm0 0"/><path d="M96.75 69.8516h.6016v6H96.75zm0 0"/><path d="M192.75 69.8516h.6016v6h-.6016zm0 0"/><path d="M288.7539 69.8516h.6016v6h-.6016zm0 0"/><path d="M1930.039062 11.601562v1440" class="a"/><path d="M189.9922 144.4922h6v.6016h-6zm0 0"/><path d="M189.9922 108.4922h6v.6016h-6zm0 0"/><path d="M189.9922 72.4922h6v.6016h-6zm0 0"/><path d="M189.9922 36.4922h6v.6016h-6zm0 0"/><path d="M189.9922.4883h6v.6016h-6zm0 0"/><g stroke="#000" stroke-miterlimit="10" transform="matrix(.1 0 0 -.1 0 146)"><g fill="none" stroke-width="7.9701"><path d="M10 491.601562l384.023438 18.476563 383.984374 25.15625 384.023438 36.367187L1546.015625 628.75l384.023437 102.851562"/><path d="M1930.039062 731.601562l38.007813 14.84375 38.007813 16.132813 38.007812 17.578125 38.046875 19.21875 38.007813 21.132812 38.007812 23.28125 38.007812 25.898438 38.007813 28.867188 38.046875 32.421874 38.007812 36.640626 38.007813 41.835937 38.007813 48.125 38.046874 55.976563 38.007813 65.976562 38.007813 78.789062 38.007812 95.820313 31.132812 97.460937"/></g><g stroke-width="3.985"><path d="M30.429688 18.515625c0 1.09375-.859376 1.992187-1.953126 1.992187-1.132812 0-1.992187-.898437-1.992187-1.992187s.859375-1.992187 1.992187-1.992187c1.09375 0 1.953126.898437 1.953126 1.992187zm0 0"/><path d="M67.382812 32.34375c0 1.132812-.898437 1.992188-1.992187 1.992188s-1.992187-.859376-1.992187-1.992188c0-1.09375.898437-1.953125 1.992187-1.953125s1.992187.859375 1.992187 1.953125zm0 0"/><path d="M104.296875 46.210938c0 1.09375-.898437 1.992187-1.992187 1.992187s-1.992188-.898437-1.992188-1.992187.898438-1.992188 1.992188-1.992188 1.992187.898438 1.992187 1.992188zm0 0"/><path d="M141.210938 60.078125c0 1.09375-.898438 1.992187-1.992188 1.992187s-1.953125-.898437-1.953125-1.992187c0-1.132813.859375-1.992187 1.953125-1.992187s1.992188.859374 1.992188 1.992187zm0 0"/><path d="M178.164062 73.90625c0 1.09375-.898437 1.992188-1.992187 1.992188S174.179688 75 174.179688 73.90625s.898437-1.992188 1.992187-1.992188 1.992187.898438 1.992187 1.992188zm0 0"/><path d="M215.078125 87.773438c0 1.09375-.898437 1.992187-1.992187 1.992187s-1.992188-.898437-1.992188-1.992187.898438-1.992188 1.992188-1.992188 1.992187.898438 1.992187 1.992188zm0 0"/><path d="M251.992188 101.601562c0 1.09375-.898438 1.992188-1.992188 1.992188s-1.992188-.898438-1.992188-1.992188.898438-1.992187 1.992188-1.992187 1.992188.898437 1.992188 1.992187zm0 0"/><path d="M288.90625 115.429688c0 1.09375-.898438 1.992187-1.992188 1.992187s-1.992187-.898437-1.992187-1.992187.898437-1.953126 1.992187-1.953126 1.992188.859376 1.992188 1.953126zm0 0"/><path d="M325.859375 129.296875c0 1.09375-.898437 1.992187-1.992187 1.992187-1.132813 0-1.992188-.898437-1.992188-1.992187s.859375-1.992187 1.992188-1.992187c1.09375 0 1.992187.898437 1.992187 1.992187zm0 0"/><path d="M362.773438 143.125c0 1.132812-.898438 1.992188-1.992188 1.992188s-1.992188-.859376-1.992188-1.992188c0-1.09375.898438-1.992188 1.992188-1.992188s1.992188.898438 1.992188 1.992188zm0 0"/><path d="M399.6875 156.992188c0 1.09375-.898438 1.992187-1.992188 1.992187s-1.992187-.898437-1.992187-1.992187S396.601562 155 397.695312 155s1.992188.898438 1.992188 1.992188zm0 0"/><path d="M436.601562 170.859375c0 1.09375-.898437 1.953125-1.992187 1.953125s-1.992187-.859375-1.992187-1.953125c0-1.132813.898437-1.992187 1.992187-1.992187s1.992187.859374 1.992187 1.992187zm0 0"/><path d="M473.515625 184.6875c0 1.09375-.859375 1.992188-1.992187 1.992188-1.09375 0-1.953126-.898438-1.953126-1.992188s.859376-1.992188 1.953126-1.992188c1.132812 0 1.992187.898438 1.992187 1.992188zm0 0"/><path d="M510.46875 198.515625c0 1.09375-.898438 1.992187-1.992188 1.992187s-1.992187-.898437-1.992187-1.992187.898437-1.992187 1.992187-1.992187 1.992188.898437 1.992188 1.992187zm0 0"/><path d="M547.382812 212.382812c0 1.09375-.898437 1.992188-1.992187 1.992188s-1.992187-.898438-1.992187-1.992188.898437-1.992187 1.992187-1.992187 1.992187.898437 1.992187 1.992187zm0 0"/><path d="M584.296875 226.210938c0 1.09375-.859375 1.992187-1.992187 1.992187-1.09375 0-1.992188-.898437-1.992188-1.992187s.898438-1.992188 1.992188-1.992188c1.132812 0 1.992187.898438 1.992187 1.992188zm0 0"/><path d="M621.210938 240.078125c0 1.09375-.859376 1.992187-1.992188 1.992187-1.09375 0-1.953125-.898437-1.953125-1.992187 0-1.132813.859375-1.992187 1.953125-1.992187 1.132812 0 1.992188.859374 1.992188 1.992187zm0 0"/><path d="M658.164062 253.90625c0 1.09375-.898437 1.992188-1.992187 1.992188s-1.992187-.898438-1.992187-1.992188.898437-1.992188 1.992187-1.992188 1.992187.898438 1.992187 1.992188zm0 0"/><path d="M695.078125 267.773438c0 1.09375-.898437 1.992187-1.992187 1.992187s-1.992188-.898437-1.992188-1.992187c0-1.132813.898438-1.992188 1.992188-1.992188s1.992187.859375 1.992187 1.992188zm0 0"/><path d="M731.992188 281.601562c0 1.09375-.898438 1.992188-1.992188 1.992188s-1.992188-.898438-1.992188-1.992188.898438-1.992187 1.992188-1.992187 1.992188.898437 1.992188 1.992187zm0 0"/><path d="M768.90625 295.429688c0 1.09375-.859375 1.992187-1.992188 1.992187-1.054687 0-1.953124-.898437-1.953124-1.992187s.898437-1.953126 1.953124-1.953126c1.132813 0 1.992188.859376 1.992188 1.953126zm0 0"/><path d="M805.859375 309.296875c0 1.09375-.898437 1.992187-1.992187 1.992187-1.132813 0-1.992188-.898437-1.992188-1.992187s.859375-1.992187 1.992188-1.992187c1.09375 0 1.992187.898437 1.992187 1.992187zm0 0"/><path d="M842.773438 323.125c0 1.132812-.898438 1.992188-1.992188 1.992188s-1.992188-.859376-1.992188-1.992188c0-1.054688.898438-1.953125 1.992188-1.953125s1.992188.898437 1.992188 1.953125zm0 0"/><path d="M879.6875 336.992188c0 1.09375-.898438 1.992187-1.992188 1.992187s-1.992187-.898437-1.992187-1.992187S876.601562 335 877.695312 335s1.992188.898438 1.992188 1.992188zm0 0"/><path d="M916.601562 350.859375c0 1.09375-.898437 1.953125-1.953124 1.953125-1.132813 0-1.992188-.859375-1.992188-1.953125 0-1.132813.859375-1.992187 1.992188-1.992187 1.054687 0 1.953124.859374 1.953124 1.992187zm0 0"/><path d="M953.554688 364.6875c0 1.09375-.898438 1.992188-1.992188 1.992188-1.132812 0-1.992188-.898438-1.992188-1.992188s.859376-1.992188 1.992188-1.992188c1.09375 0 1.992188.898438 1.992188 1.992188zm0 0"/><path d="M990.429688 378.515625c0 1.132813-.859376 1.992187-1.953126 1.992187s-1.992187-.859374-1.992187-1.992187c0-1.09375.898437-1.992187 1.992187-1.992187s1.953126.898437 1.953126 1.992187zm0 0"/><path d="M1027.382812 392.382812c0 1.09375-.898437 1.992188-1.992187 1.992188s-1.992187-.898438-1.992187-1.992188.898437-1.992187 1.992187-1.992187 1.992187.898437 1.992187 1.992187zm0 0"/><path d="M1064.296875 406.210938c0 1.09375-.898437 1.992187-1.992187 1.992187s-1.992188-.898437-1.992188-1.992187.898438-1.992188 1.992188-1.992188 1.992187.898438 1.992187 1.992188zm0 0"/><path d="M1101.210938 420.078125c0 1.09375-.859376 1.992187-1.953126 1.992187-1.132812 0-1.992187-.898437-1.992187-1.992187s.859375-1.992187 1.992187-1.992187c1.09375 0 1.953126.898437 1.953126 1.992187zm0 0"/><path d="M1138.164062 433.90625c0 1.09375-.898437 1.992188-1.992187 1.992188s-1.992187-.898438-1.992187-1.992188.898437-1.992188 1.992187-1.992188 1.992187.898438 1.992187 1.992188zm0 0"/><path d="M1175.078125 447.773438c0 1.09375-.898437 1.992187-1.992187 1.992187s-1.992188-.898437-1.992188-1.992187c0-1.132813.898438-1.992188 1.992188-1.992188s1.992187.859375 1.992187 1.992188zm0 0"/><path d="M1211.992188 461.601562c0 1.09375-.859376 1.992188-1.953126 1.992188-1.132812 0-1.992187-.898438-1.992187-1.992188s.859375-1.992187 1.992187-1.992187c1.09375 0 1.953126.898437 1.953126 1.992187zm0 0"/><path d="M1248.945312 475.429688c0 1.132812-.898437 1.992187-1.992187 1.992187s-1.992187-.859375-1.992187-1.992187c0-1.09375.898437-1.953126 1.992187-1.953126s1.992187.859376 1.992187 1.953126zm0 0"/><path d="M1285.859375 489.296875c0 1.09375-.898437 1.992187-1.992187 1.992187s-1.992188-.898437-1.992188-1.992187.898438-1.992187 1.992188-1.992187 1.992187.898437 1.992187 1.992187zm0 0"/><path d="M1322.773438 503.125c0 1.132812-.898438 1.992188-1.992188 1.992188s-1.992188-.859376-1.992188-1.992188c0-1.054688.898438-1.953125 1.992188-1.953125s1.992188.898437 1.992188 1.953125zm0 0"/><path d="M1359.6875 516.992188c0 1.09375-.859375 1.992187-1.992188 1.992187-1.09375 0-1.992187-.898437-1.992187-1.992187S1356.601562 515 1357.695312 515c1.132813 0 1.992188.898438 1.992188 1.992188zm0 0"/><path d="M1396.640625 530.859375c0 1.09375-.898437 1.953125-1.992187 1.953125s-1.992188-.859375-1.992188-1.953125.898438-1.992187 1.992188-1.992187 1.992187.898437 1.992187 1.992187zm0 0"/><path d="M1433.554688 544.6875c0 1.09375-.898438 1.992188-1.992188 1.992188s-1.992188-.898438-1.992188-1.992188.898438-1.992188 1.992188-1.992188 1.992188.898438 1.992188 1.992188zm0 0"/><path d="M1470.46875 558.515625c0 1.132813-.898438 1.992187-1.992188 1.992187s-1.992187-.859374-1.992187-1.992187c0-1.09375.898437-1.992187 1.992187-1.992187s1.992188.898437 1.992188 1.992187zm0 0"/><path d="M1507.382812 572.382812c0 1.09375-.898437 1.992188-1.992187 1.992188s-1.992187-.898438-1.992187-1.992188.898437-1.992187 1.992187-1.992187 1.992187.898437 1.992187 1.992187zm0 0"/><path d="M1544.335938 586.210938c0 1.09375-.898438 1.992187-1.992188 1.992187-1.132812 0-1.992188-.898437-1.992188-1.992187s.859376-1.953126 1.992188-1.953126c1.09375 0 1.992188.859376 1.992188 1.953126zm0 0"/><path d="M1581.25 600.078125c0 1.09375-.898438 1.992187-1.992188 1.992187s-1.992187-.898437-1.992187-1.992187.898437-1.992187 1.992187-1.992187 1.992188.898437 1.992188 1.992187zm0 0"/><path d="M1618.164062 613.90625c0 1.09375-.898437 1.992188-1.992187 1.992188s-1.992187-.898438-1.992187-1.992188.898437-1.992188 1.992187-1.992188 1.992187.898438 1.992187 1.992188zm0 0"/><path d="M1655.078125 627.773438c0 1.09375-.898437 1.992187-1.992187 1.992187s-1.992188-.898437-1.992188-1.992187.898438-1.992188 1.992188-1.992188 1.992187.898438 1.992187 1.992188zm0 0"/><path d="M1691.992188 641.601562c0 1.09375-.859376 1.992188-1.953126 1.992188-1.132812 0-1.992187-.898438-1.992187-1.992188s.859375-1.992187 1.992187-1.992187c1.09375 0 1.953126.898437 1.953126 1.992187zm0 0"/><path d="M1728.945312 655.429688c0 1.132812-.898437 1.992187-1.992187 1.992187s-1.992187-.859375-1.992187-1.992187c0-1.09375.898437-1.953126 1.992187-1.953126s1.992187.859376 1.992187 1.953126zm0 0"/><path d="M1765.859375 669.296875c0 1.09375-.898437 1.992187-1.992187 1.992187s-1.992188-.898437-1.992188-1.992187.898438-1.992187 1.992188-1.992187 1.992187.898437 1.992187 1.992187zm0 0"/><path d="M1802.773438 683.164062c0 1.09375-.898438 1.992188-1.992188 1.992188s-1.992188-.898438-1.992188-1.992188.898438-1.992187 1.992188-1.992187 1.992188.898437 1.992188 1.992187zm0 0"/><path d="M1839.726562 696.992188c0 1.09375-.898437 1.992187-1.992187 1.992187-1.132813 0-1.992187-.898437-1.992187-1.992187S1836.601562 695 1837.734375 695c1.09375 0 1.992187.898438 1.992187 1.992188zm0 0"/><path d="M1876.601562 710.859375c0 1.09375-.859374 1.953125-1.953124 1.953125s-1.992188-.859375-1.992188-1.953125.898438-1.992187 1.992188-1.992187 1.953124.898437 1.953124 1.992187zm0 0"/><path d="M1913.554688 724.6875c0 1.09375-.898438 1.992188-1.992188 1.992188s-1.992188-.898438-1.992188-1.992188.898438-1.992188 1.992188-1.992188 1.992188.898438 1.992188 1.992188zm0 0"/><path d="M1950.46875 738.515625c0 1.132813-.898438 1.992187-1.992188 1.992187s-1.992187-.859374-1.992187-1.992187c0-1.09375.898437-1.992187 1.992187-1.992187s1.992188.898437 1.992188 1.992187zm0 0"/><path d="M1987.382812 752.382812c0 1.09375-.859374 1.992188-1.992187 1.992188-1.09375 0-1.953125-.898438-1.953125-1.992188s.859375-1.992187 1.953125-1.992187c1.132813 0 1.992187.898437 1.992187 1.992187zm0 0"/><path d="M2024.335938 766.210938c0 1.09375-.898438 1.992187-1.992188 1.992187s-1.992188-.898437-1.992188-1.992187.898438-1.953126 1.992188-1.953126 1.992188.859376 1.992188 1.953126zm0 0"/><path d="M2061.25 780.078125c0 1.09375-.898438 1.992187-1.992188 1.992187s-1.992187-.898437-1.992187-1.992187.898437-1.992187 1.992187-1.992187 1.992188.898437 1.992188 1.992187zm0 0"/><path d="M2098.164062 793.90625c0 1.09375-.859374 1.992188-1.992187 1.992188-1.09375 0-1.953125-.898438-1.953125-1.992188s.859375-1.992188 1.953125-1.992188c1.132813 0 1.992187.898438 1.992187 1.992188zm0 0"/><path d="M2135.078125 807.773438c0 1.09375-.859375 1.992187-1.992187 1.992187-1.09375 0-1.992188-.898437-1.992188-1.992187s.898438-1.992188 1.992188-1.992188c1.132812 0 1.992187.898438 1.992187 1.992188zm0 0"/><path d="M2172.03125 821.601562c0 1.09375-.898438 1.992188-1.992188 1.992188s-1.992187-.898438-1.992187-1.992188.898437-1.992187 1.992187-1.992187 1.992188.898437 1.992188 1.992187zm0 0"/><path d="M2208.945312 835.429688c0 1.132812-.898437 1.992187-1.992187 1.992187s-1.992187-.859375-1.992187-1.992187c0-1.054688.898437-1.953126 1.992187-1.953126s1.992187.898438 1.992187 1.953126zm0 0"/><path d="M2245.859375 849.296875c0 1.09375-.898437 1.992187-1.992187 1.992187s-1.992188-.898437-1.992188-1.992187.898438-1.992187 1.992188-1.992187 1.992187.898437 1.992187 1.992187zm0 0"/><path d="M2282.773438 863.164062c0 1.09375-.859376 1.992188-1.992188 1.992188-1.054688 0-1.953125-.898438-1.953125-1.992188s.898437-1.992187 1.953125-1.992187c1.132812 0 1.992188.898437 1.992188 1.992187zm0 0"/><path d="M2319.726562 876.992188c0 1.09375-.898437 1.992187-1.992187 1.992187-1.132813 0-1.992187-.898437-1.992187-1.992187S2316.601562 875 2317.734375 875c1.09375 0 1.992187.898438 1.992187 1.992188zm0 0"/><path d="M2356.640625 890.859375c0 1.054687-.898437 1.953125-1.992187 1.953125s-1.992188-.898438-1.992188-1.953125c0-1.132813.898438-1.992187 1.992188-1.992187s1.992187.859374 1.992187 1.992187zm0 0"/><path d="M2393.554688 904.6875c0 1.09375-.898438 1.992188-1.992188 1.992188s-1.992188-.898438-1.992188-1.992188.898438-1.992188 1.992188-1.992188 1.992188.898438 1.992188 1.992188zm0 0"/><path d="M2430.46875 918.554688c0 1.09375-.898438 1.953124-1.992188 1.953124s-1.992187-.859374-1.992187-1.953124c0-1.132813.898437-2.03125 1.992187-2.03125s1.992188.898437 1.992188 2.03125zm0 0"/><path d="M2467.421875 932.382812c0 1.09375-.898437 1.992188-1.992187 1.992188s-1.992188-.898438-1.992188-1.992188.898438-1.992187 1.992188-1.992187 1.992187.898437 1.992187 1.992187zm0 0"/><path d="M2504.335938 946.210938c0 1.132812-.898438 1.992187-1.992188 1.992187s-1.992188-.859375-1.992188-1.992187c0-1.09375.898438-1.953126 1.992188-1.953126s1.992188.859376 1.992188 1.953126zm0 0"/><path d="M2541.25 960.078125c0 1.09375-.898438 1.992187-1.992188 1.992187s-1.992187-.898437-1.992187-1.992187.898437-1.992187 1.992187-1.992187 1.992188.898437 1.992188 1.992187zm0 0"/><path d="M2578.164062 973.90625c0 1.132812-.859374 1.992188-1.992187 1.992188-1.09375 0-1.953125-.859376-1.953125-1.992188 0-1.09375.859375-1.992188 1.953125-1.992188 1.132813 0 1.992187.898438 1.992187 1.992188zm0 0"/><path d="M2615.117188 987.773438c0 1.09375-.898438 1.992187-1.992188 1.992187s-1.992188-.898437-1.992188-1.992187.898438-1.992188 1.992188-1.992188 1.992188.898438 1.992188 1.992188zm0 0"/><path d="M2652.03125 1001.601562c0 1.09375-.898438 1.992188-1.992188 1.992188s-1.992187-.898438-1.992187-1.992188.898437-1.953124 1.992187-1.953124 1.992188.859374 1.992188 1.953124zm0 0"/><path d="M2688.945312 1015.46875c0 1.09375-.898437 1.992188-1.992187 1.992188s-1.992187-.898438-1.992187-1.992188.898437-1.992188 1.992187-1.992188 1.992187.898438 1.992187 1.992188zm0 0"/><path d="M2725.859375 1029.296875c0 1.09375-.898437 1.992187-1.992187 1.992187s-1.992188-.898437-1.992188-1.992187.898438-1.992187 1.992188-1.992187 1.992187.898437 1.992187 1.992187zm0 0"/><path d="M2762.773438 1043.164062c0 1.09375-.859376 1.992188-1.992188 1.992188-1.09375 0-1.953125-.898438-1.953125-1.992188 0-1.132812.859375-1.992187 1.953125-1.992187 1.132812 0 1.992188.859375 1.992188 1.992187zm0 0"/><path d="M2799.726562 1056.992188c0 1.09375-.898437 1.992187-1.992187 1.992187s-1.992187-.898437-1.992187-1.992187.898437-1.992188 1.992187-1.992188 1.992187.898438 1.992187 1.992188zm0 0"/><path d="M2836.640625 1070.859375c0 1.09375-.898437 1.953125-1.992187 1.953125s-1.992188-.859375-1.992188-1.953125c0-1.132813.898438-1.992187 1.992188-1.992187s1.992187.859374 1.992187 1.992187zm0 0"/><path d="M2873.554688 1084.6875c0 1.09375-.859376 1.992188-1.992188 1.992188-1.09375 0-1.953125-.898438-1.953125-1.992188s.859375-1.992188 1.953125-1.992188c1.132812 0 1.992188.898438 1.992188 1.992188zm0 0"/><path d="M23.515625 1439.179688c0 1.09375-.898437 1.992187-1.992187 1.992187s-1.992188-.898437-1.992188-1.992187.898438-1.992188 1.992188-1.992188 1.992187.898438 1.992187 1.992188zm0 0"/><path d="M46.5625 1414.296875c0 1.09375-.898438 1.992187-1.992188 1.992187s-1.992187-.898437-1.992187-1.992187.898437-1.992187 1.992187-1.992187 1.992188.898437 1.992188 1.992187zm0 0"/><path d="M69.570312 1389.414062c0 1.09375-.859374 1.992188-1.953124 1.992188-1.132813 0-1.992188-.898438-1.992188-1.992188s.859375-1.992187 1.992188-1.992187c1.09375 0 1.953124.898437 1.953124 1.992187zm0 0"/><path d="M92.617188 1364.53125c0 1.09375-.859376 1.992188-1.992188 1.992188-1.09375 0-1.992188-.898438-1.992188-1.992188s.898438-1.992188 1.992188-1.992188c1.132812 0 1.992188.898438 1.992188 1.992188zm0 0"/><path d="M115.664062 1339.648438c0 1.09375-.898437 1.992187-1.992187 1.992187s-1.992187-.898437-1.992187-1.992187.898437-1.992188 1.992187-1.992188 1.992187.898438 1.992187 1.992188zm0 0"/><path d="M138.710938 1315.78125c0 1.09375-.898438 1.992188-1.992188 1.992188s-1.992188-.898438-1.992188-1.992188.898438-1.992188 1.992188-1.992188 1.992188.898438 1.992188 1.992188zm0 0"/><path d="M161.757812 1292.96875c0 1.09375-.898437 1.992188-1.992187 1.992188s-1.992187-.898438-1.992187-1.992188.898437-1.953125 1.992187-1.953125 1.992187.859375 1.992187 1.953125zm0 0"/><path d="M184.804688 1270.195312c0 1.09375-.898438 1.953126-1.992188 1.953126s-1.992188-.859376-1.992188-1.953126c0-1.132812.898438-1.992187 1.992188-1.992187s1.992188.859375 1.992188 1.992187zm0 0"/><path d="M207.8125 1247.382812c0 1.09375-.859375 1.992188-1.953125 1.992188s-1.992187-.898438-1.992187-1.992188.898437-1.992187 1.992187-1.992187 1.953125.898437 1.953125 1.992187zm0 0"/><path d="M230.859375 1224.570312c0 1.09375-.898437 1.992188-1.992187 1.992188s-1.992188-.898438-1.992188-1.992188.898438-1.992187 1.992188-1.992187 1.992187.898437 1.992187 1.992187zm0 0"/><path d="M256.796875 1200.195312c0 1.09375-.898437 1.992188-1.992187 1.992188s-1.992188-.898438-1.992188-1.992188.898438-1.992187 1.992188-1.992187 1.992187.898437 1.992187 1.992187zm0 0"/><path d="M285.585938 1174.296875c0 1.09375-.898438 1.992187-1.992188 1.992187s-1.992188-.898437-1.992188-1.992187c0-1.132813.898438-1.992187 1.992188-1.992187s1.992188.859374 1.992188 1.992187zm0 0"/><path d="M314.375 1148.359375c0 1.09375-.859375 1.992187-1.992188 1.992187-1.09375 0-1.992187-.898437-1.992187-1.992187s.898437-1.992187 1.992187-1.992187c1.132813 0 1.992188.898437 1.992188 1.992187zm0 0"/><path d="M343.203125 1122.421875c0 1.09375-.898437 1.992187-1.992187 1.992187s-1.992188-.898437-1.992188-1.992187.898438-1.992187 1.992188-1.992187 1.992187.898437 1.992187 1.992187zm0 0"/><path d="M371.992188 1097.8125c0 1.09375-.898438 1.992188-1.992188 1.992188s-1.992188-.898438-1.992188-1.992188.898438-1.992188 1.992188-1.992188 1.992188.898438 1.992188 1.992188zm0 0"/><path d="M400.78125 1074.492188c0 1.09375-.898438 1.953124-1.992188 1.953124s-1.992187-.859374-1.992187-1.953124.898437-1.992188 1.992187-1.992188 1.992188.898438 1.992188 1.992188zm0 0"/><path d="M429.609375 1051.132812c0 1.132813-.898437 1.992188-1.992187 1.992188s-1.992188-.859375-1.992188-1.992188c0-1.09375.898438-1.992187 1.992188-1.992187s1.992187.898437 1.992187 1.992187zm0 0"/><path d="M458.398438 1027.8125c0 1.132812-.898438 1.992188-1.992188 1.992188s-1.992188-.859376-1.992188-1.992188c0-1.09375.898438-1.953125 1.992188-1.953125s1.992188.859375 1.992188 1.953125zm0 0"/><path d="M487.1875 1005.78125c0 1.09375-.859375 1.992188-1.992188 1.992188-1.09375 0-1.992187-.898438-1.992187-1.992188s.898437-1.992188 1.992187-1.992188c1.132813 0 1.992188.898438 1.992188 1.992188zm0 0"/><path d="M515.976562 985.039062c0 1.132813-.859374 1.992188-1.992187 1.992188-1.09375 0-1.953125-.859375-1.953125-1.992188 0-1.09375.859375-1.953124 1.953125-1.953124 1.132813 0 1.992187.859374 1.992187 1.953124zm0 0"/><path d="M544.804688 964.296875c0 1.09375-.898438 1.992187-1.992188 1.992187s-1.992188-.898437-1.992188-1.992187.898438-1.992187 1.992188-1.992187 1.992188.898437 1.992188 1.992187zm0 0"/><path d="M573.59375 943.59375c0 1.09375-.898438 1.992188-1.992188 1.992188s-1.992187-.898438-1.992187-1.992188c0-1.132812.898437-1.992188 1.992187-1.992188s1.992188.859376 1.992188 1.992188zm0 0"/><path d="M602.382812 924.140625c0 1.09375-.859374 1.992187-1.992187 1.992187-1.054687 0-1.953125-.898437-1.953125-1.992187s.898438-1.992187 1.953125-1.992187c1.132813 0 1.992187.898437 1.992187 1.992187zm0 0"/><path d="M631.210938 906.015625c0 1.09375-.898438 1.953125-1.992188 1.953125s-1.992188-.859375-1.992188-1.953125c0-1.132813.898438-1.992187 1.992188-1.992187s1.992188.859374 1.992188 1.992187zm0 0"/><path d="M660 887.851562c0 1.09375-.898438 1.992188-1.992188 1.992188s-1.992187-.898438-1.992187-1.992188.898437-1.992187 1.992187-1.992187S660 886.757812 660 887.851562zm0 0"/><path d="M688.789062 869.726562c0 1.09375-.898437 1.953126-1.992187 1.953126s-1.992187-.859376-1.992187-1.953126c0-1.132812.898437-1.992187 1.992187-1.992187s1.992187.859375 1.992187 1.992187zm0 0"/><path d="M717.578125 852.851562c0 1.09375-.898437 1.992188-1.953125 1.992188-1.09375 0-1.992188-.898438-1.992188-1.992188s.898438-1.992187 1.992188-1.992187c1.054688 0 1.953125.898437 1.953125 1.992187zm0 0"/><path d="M746.40625 837.304688c0 1.09375-.898438 1.992187-1.992188 1.992187s-1.992187-.898437-1.992187-1.992187.898437-1.992188 1.992187-1.992188 1.992188.898438 1.992188 1.992188zm0 0"/><path d="M775.195312 821.757812c0 1.09375-.898437 1.992188-1.992187 1.992188s-1.992187-.898438-1.992187-1.992188.898437-1.992187 1.992187-1.992187 1.992187.898437 1.992187 1.992187zm0 0"/><path d="M803.984375 806.210938c0 1.09375-.859375 1.992187-1.953125 1.992187s-1.992188-.898437-1.992188-1.992187.898438-1.992188 1.992188-1.992188 1.953125.898438 1.953125 1.992188zm0 0"/><path d="M832.8125 791.953125c0 1.09375-.898438 1.992187-1.992188 1.992187s-1.992187-.898437-1.992187-1.992187.898437-1.992187 1.992187-1.992187 1.992188.898437 1.992188 1.992187zm0 0"/><path d="M861.601562 778.984375c0 1.09375-.898437 1.992187-1.992187 1.992187s-1.992187-.898437-1.992187-1.992187.898437-1.992187 1.992187-1.992187 1.992187.898437 1.992187 1.992187zm0 0"/><path d="M890.390625 766.015625c0 1.132813-.859375 1.992187-1.992187 1.992187-1.09375 0-1.992188-.859374-1.992188-1.992187 0-1.09375.898438-1.992187 1.992188-1.992187 1.132812 0 1.992187.898437 1.992187 1.992187zm0 0"/><path d="M919.179688 753.085938c0 1.054687-.859376 1.953124-1.953126 1.953124-1.132812 0-1.992187-.898437-1.992187-1.953124 0-1.132813.859375-1.992188 1.992187-1.992188 1.09375 0 1.953126.859375 1.953126 1.992188zm0 0"/><path d="M948.007812 741.40625c0 1.09375-.898437 1.992188-1.992187 1.992188s-1.992187-.898438-1.992187-1.992188.898437-1.992188 1.992187-1.992188 1.992187.898438 1.992187 1.992188zm0 0"/><path d="M976.796875 731.054688c0 1.09375-.898437 1.992187-1.992187 1.992187s-1.992188-.898437-1.992188-1.992187c0-1.132813.898438-1.992188 1.992188-1.992188s1.992187.859375 1.992187 1.992188zm0 0"/><path d="M1005.625 720.664062c0 1.09375-.898438 1.992188-1.992188 1.992188s-1.992187-.898438-1.992187-1.992188.898437-1.992187 1.992187-1.992187 1.992188.898437 1.992188 1.992187zm0 0"/><path d="M1034.414062 710.3125c0 1.09375-.898437 1.992188-1.992187 1.992188s-1.992187-.898438-1.992187-1.992188c0-1.132812.898437-1.992188 1.992187-1.992188s1.992187.859376 1.992187 1.992188zm0 0"/><path d="M1068.007812 699.921875c0 1.09375-.898437 1.992187-1.992187 1.992187s-1.992187-.898437-1.992187-1.992187.898437-1.992187 1.992187-1.992187 1.992187.898437 1.992187 1.992187zm0 0"/><path d="M1106.40625 689.570312c0 1.09375-.898438 1.992188-1.992188 1.992188s-1.992187-.898438-1.992187-1.992188.898437-1.992187 1.992187-1.992187 1.992188.898437 1.992188 1.992187zm0 0"/><path d="M1144.804688 679.179688c0 1.09375-.898438 1.992187-1.992188 1.992187s-1.992188-.898437-1.992188-1.992187.898438-1.992188 1.992188-1.992188 1.992188.898438 1.992188 1.992188zm0 0"/><path d="M1183.203125 670.546875c0 1.09375-.898437 1.992187-1.992187 1.992187s-1.992188-.898437-1.992188-1.992187.898438-1.992187 1.992188-1.992187 1.992187.898437 1.992187 1.992187zm0 0"/><path d="M1221.601562 663.632812c0 1.09375-.898437 1.992188-1.992187 1.992188s-1.992187-.898438-1.992187-1.992188.898437-1.992187 1.992187-1.992187 1.992187.898437 1.992187 1.992187zm0 0"/><path d="M1260 656.71875c0 1.09375-.898438 1.992188-1.992188 1.992188s-1.992187-.898438-1.992187-1.992188.898437-1.992188 1.992187-1.992188S1260 655.625 1260 656.71875zm0 0"/><path d="M1298.398438 651.523438c0 1.132812-.859376 1.992187-1.992188 1.992187-1.09375 0-1.992188-.859375-1.992188-1.992187 0-1.09375.898438-1.953126 1.992188-1.953126 1.132812 0 1.992188.859376 1.992188 1.953126zm0 0"/><path d="M1336.796875 648.085938c0 1.09375-.898437 1.992187-1.992187 1.992187s-1.992188-.898437-1.992188-1.992187.898438-1.992188 1.992188-1.992188 1.992187.898438 1.992187 1.992188zm0 0"/><path d="M1375.195312 644.648438c0 1.09375-.898437 1.953124-1.992187 1.953124s-1.992187-.859374-1.992187-1.953124c0-1.132813.898437-1.992188 1.992187-1.992188s1.992187.859375 1.992187 1.992188zm0 0"/><path d="M1413.59375 642.890625c0 1.09375-.859375 1.992187-1.992188 1.992187-1.09375 0-1.953124-.898437-1.953124-1.992187s.859374-1.953125 1.953124-1.953125c1.132813 0 1.992188.859375 1.992188 1.953125zm0 0"/><path d="M1451.992188 642.890625c0 1.09375-.859376 1.992187-1.953126 1.992187-1.132812 0-1.992187-.898437-1.992187-1.992187s.859375-1.953125 1.992187-1.953125c1.09375 0 1.953126.859375 1.953126 1.953125zm0 0"/><path d="M1490.390625 642.890625c0 1.09375-.859375 1.992187-1.953125 1.992187-1.132812 0-1.992188-.898437-1.992188-1.992187s.859376-1.953125 1.992188-1.953125c1.09375 0 1.953125.859375 1.953125 1.953125zm0 0"/><path d="M1528.828125 644.648438c0 1.09375-.898437 1.953124-1.992187 1.953124s-1.992188-.859374-1.992188-1.953124c0-1.132813.898438-1.992188 1.992188-1.992188s1.992187.859375 1.992187 1.992188zm0 0"/><path d="M1567.226562 648.085938c0 1.09375-.898437 1.992187-1.992187 1.992187s-1.992187-.898437-1.992187-1.992187.898437-1.992188 1.992187-1.992188 1.992187.898438 1.992187 1.992188zm0 0"/><path d="M1605.625 651.523438c0 1.132812-.898438 1.992187-1.992188 1.992187s-1.992187-.859375-1.992187-1.992187c0-1.09375.898437-1.953126 1.992187-1.953126s1.992188.859376 1.992188 1.953126zm0 0"/><path d="M1644.023438 656.71875c0 1.09375-.898438 1.992188-1.992188 1.992188s-1.992188-.898438-1.992188-1.992188.898438-1.992188 1.992188-1.992188 1.992188.898438 1.992188 1.992188zm0 0"/><path d="M1682.421875 663.632812c0 1.09375-.898437 1.992188-1.992187 1.992188s-1.992188-.898438-1.992188-1.992188.898438-1.992187 1.992188-1.992187 1.992187.898437 1.992187 1.992187zm0 0"/><path d="M1720.820312 670.546875c0 1.09375-.898437 1.992187-1.992187 1.992187s-1.992187-.898437-1.992187-1.992187.898437-1.992187 1.992187-1.992187 1.992187.898437 1.992187 1.992187zm0 0"/><path d="M1759.21875 679.179688c0 1.09375-.898438 1.992187-1.992188 1.992187s-1.992187-.898437-1.992187-1.992187.898437-1.992188 1.992187-1.992188 1.992188.898438 1.992188 1.992188zm0 0"/><path d="M1797.617188 689.570312c0 1.09375-.898438 1.992188-1.992188 1.992188s-1.992188-.898438-1.992188-1.992188.898438-1.992187 1.992188-1.992187 1.992188.898437 1.992188 1.992187zm0 0"/><path d="M1836.015625 699.921875c0 1.09375-.898437 1.992187-1.992187 1.992187s-1.992188-.898437-1.992188-1.992187.898438-1.992187 1.992188-1.992187 1.992187.898437 1.992187 1.992187zm0 0"/><path d="M1869.609375 710.3125c0 1.09375-.898437 1.992188-1.992187 1.992188s-1.992188-.898438-1.992188-1.992188c0-1.132812.898438-1.992188 1.992188-1.992188s1.992187.859376 1.992187 1.992188zm0 0"/><path d="M1898.398438 720.664062c0 1.09375-.859376 1.992188-1.992188 1.992188-1.09375 0-1.992188-.898438-1.992188-1.992188s.898438-1.992187 1.992188-1.992187c1.132812 0 1.992188.898437 1.992188 1.992187zm0 0"/><path d="M1927.226562 731.054688c0 1.09375-.898437 1.992187-1.992187 1.992187s-1.992187-.898437-1.992187-1.992187c0-1.132813.898437-1.992188 1.992187-1.992188s1.992187.859375 1.992187 1.992188zm0 0"/><path d="M1956.015625 741.40625c0 1.09375-.898437 1.992188-1.992187 1.992188s-1.992188-.898438-1.992188-1.992188.898438-1.992188 1.992188-1.992188 1.992187.898438 1.992187 1.992188zm0 0"/><path d="M1984.804688 753.085938c0 1.054687-.859376 1.953124-1.992188 1.953124-1.09375 0-1.953125-.898437-1.953125-1.953124 0-1.132813.859375-1.992188 1.953125-1.992188 1.132812 0 1.992188.859375 1.992188 1.992188zm0 0"/><path d="M2013.59375 766.015625c0 1.132813-.859375 1.992187-1.953125 1.992187s-1.992187-.859374-1.992187-1.992187c0-1.09375.898437-1.992187 1.992187-1.992187s1.953125.898437 1.953125 1.992187zm0 0"/><path d="M2042.421875 778.984375c0 1.09375-.898437 1.992187-1.992187 1.992187s-1.992188-.898437-1.992188-1.992187.898438-1.992187 1.992188-1.992187 1.992187.898437 1.992187 1.992187zm0 0"/><path d="M2071.210938 791.953125c0 1.09375-.898438 1.992187-1.992188 1.992187s-1.992188-.898437-1.992188-1.992187.898438-1.992187 1.992188-1.992187 1.992188.898437 1.992188 1.992187zm0 0"/><path d="M2100 806.210938c0 1.09375-.898438 1.992187-1.992188 1.992187s-1.953124-.898437-1.953124-1.992187.859374-1.992188 1.953124-1.992188S2100 805.117188 2100 806.210938zm0 0"/><path d="M2128.828125 821.757812c0 1.09375-.898437 1.992188-1.992187 1.992188s-1.992188-.898438-1.992188-1.992188.898438-1.992187 1.992188-1.992187 1.992187.898437 1.992187 1.992187zm0 0"/><path d="M2157.617188 837.304688c0 1.09375-.898438 1.992187-1.992188 1.992187s-1.992188-.898437-1.992188-1.992187.898438-1.992188 1.992188-1.992188 1.992188.898438 1.992188 1.992188zm0 0"/><path d="M2186.40625 852.851562c0 1.09375-.859375 1.992188-1.992188 1.992188-1.09375 0-1.992187-.898438-1.992187-1.992188s.898437-1.992187 1.992187-1.992187c1.132813 0 1.992188.898437 1.992188 1.992187zm0 0"/><path d="M2215.195312 869.726562c0 1.09375-.859374 1.953126-1.953124 1.953126s-1.992188-.859376-1.992188-1.953126c0-1.132812.898438-1.992187 1.992188-1.992187s1.953124.859375 1.953124 1.992187zm0 0"/><path d="M2244.023438 887.851562c0 1.09375-.898438 1.992188-1.992188 1.992188s-1.992188-.898438-1.992188-1.992188.898438-1.992187 1.992188-1.992187 1.992188.898437 1.992188 1.992187zm0 0"/><path d="M2272.8125 906.015625c0 1.09375-.898438 1.953125-1.992188 1.953125s-1.992187-.859375-1.992187-1.953125c0-1.132813.898437-1.992187 1.992187-1.992187s1.992188.859374 1.992188 1.992187zm0 0"/><path d="M2301.601562 924.140625c0 1.09375-.898437 1.992187-1.953124 1.992187-1.132813 0-1.992188-.898437-1.992188-1.992187s.859375-1.992187 1.992188-1.992187c1.054687 0 1.953124.898437 1.953124 1.992187zm0 0"/><path d="M2330.429688 943.59375c0 1.09375-.898438 1.992188-1.992188 1.992188s-1.992188-.898438-1.992188-1.992188c0-1.132812.898438-1.992188 1.992188-1.992188s1.992188.859376 1.992188 1.992188zm0 0"/><path d="M2359.21875 964.296875c0 1.09375-.898438 1.992187-1.992188 1.992187s-1.992187-.898437-1.992187-1.992187.898437-1.992187 1.992187-1.992187 1.992188.898437 1.992188 1.992187zm0 0"/><path d="M2388.007812 985.039062c0 1.132813-.859374 1.992188-1.992187 1.992188-1.09375 0-1.992187-.859375-1.992187-1.992188 0-1.09375.898437-1.953124 1.992187-1.953124 1.132813 0 1.992187.859374 1.992187 1.953124zm0 0"/><path d="M2416.835938 1005.78125c0 1.09375-.898438 1.992188-1.992188 1.992188-1.132812 0-1.992188-.898438-1.992188-1.992188s.859376-1.992188 1.992188-1.992188c1.09375 0 1.992188.898438 1.992188 1.992188zm0 0"/><path d="M2445.625 1027.8125c0 1.132812-.898438 1.992188-1.992188 1.992188s-1.992187-.859376-1.992187-1.992188c0-1.09375.898437-1.953125 1.992187-1.953125s1.992188.859375 1.992188 1.953125zm0 0"/><path d="M2474.414062 1051.132812c0 1.132813-.898437 1.992188-1.992187 1.992188s-1.992187-.859375-1.992187-1.992188c0-1.09375.898437-1.992187 1.992187-1.992187s1.992187.898437 1.992187 1.992187zm0 0"/><path d="M2503.242188 1074.492188c0 1.09375-.898438 1.953124-1.992188 1.953124s-1.992188-.859374-1.992188-1.953124S2500.15625 1072.5 2501.25 1072.5s1.992188.898438 1.992188 1.992188zm0 0"/><path d="M2532.03125 1097.8125c0 1.09375-.898438 1.992188-1.992188 1.992188s-1.992187-.898438-1.992187-1.992188.898437-1.992188 1.992187-1.992188 1.992188.898438 1.992188 1.992188zm0 0"/><path d="M2560.820312 1122.421875c0 1.09375-.898437 1.992187-1.992187 1.992187s-1.992187-.898437-1.992187-1.992187.898437-1.992187 1.992187-1.992187 1.992187.898437 1.992187 1.992187zm0 0"/><path d="M2589.609375 1148.359375c0 1.09375-.898437 1.992187-1.992187 1.992187s-1.992188-.898437-1.992188-1.992187.898438-1.992187 1.992188-1.992187 1.992187.898437 1.992187 1.992187zm0 0"/><path d="M2618.4375 1174.296875c0 1.09375-.898438 1.992187-1.992188 1.992187-1.132812 0-1.992187-.898437-1.992187-1.992187 0-1.132813.859375-1.992187 1.992187-1.992187 1.09375 0 1.992188.859374 1.992188 1.992187zm0 0"/><path d="M2647.226562 1200.195312c0 1.09375-.898437 1.992188-1.992187 1.992188s-1.992187-.898438-1.992187-1.992188.898437-1.992187 1.992187-1.992187 1.992187.898437 1.992187 1.992187zm0 0"/><path d="M2673.125 1224.570312c0 1.09375-.859375 1.992188-1.992188 1.992188-1.09375 0-1.992187-.898438-1.992187-1.992188s.898437-1.992187 1.992187-1.992187c1.132813 0 1.992188.898437 1.992188 1.992187zm0 0"/><path d="M2696.171875 1247.382812c0 1.09375-.898437 1.992188-1.992187 1.992188s-1.992188-.898438-1.992188-1.992188.898438-1.992187 1.992188-1.992187 1.992187.898437 1.992187 1.992187zm0 0"/><path d="M2719.21875 1270.195312c0 1.09375-.898438 1.953126-1.992188 1.953126s-1.992187-.859376-1.992187-1.953126c0-1.132812.898437-1.992187 1.992187-1.992187s1.992188.859375 1.992188 1.992187zm0 0"/><path d="M2742.265625 1292.96875c0 1.09375-.898437 1.992188-1.992187 1.992188s-1.992188-.898438-1.992188-1.992188.898438-1.953125 1.992188-1.953125 1.992187.859375 1.992187 1.953125zm0 0"/><path d="M2765.3125 1315.78125c0 1.09375-.898438 1.992188-1.992188 1.992188s-1.992187-.898438-1.992187-1.992188.898437-1.992188 1.992187-1.992188 1.992188.898438 1.992188 1.992188zm0 0"/><path d="M2788.359375 1339.648438c0 1.09375-.898437 1.992187-1.992187 1.992187s-1.992188-.898437-1.992188-1.992187.898438-1.992188 1.992188-1.992188 1.992187.898438 1.992187 1.992188zm0 0"/><path d="M2811.367188 1364.53125c0 1.09375-.859376 1.992188-1.992188 1.992188-1.09375 0-1.953125-.898438-1.953125-1.992188s.859375-1.992188 1.953125-1.992188c1.132812 0 1.992188.898438 1.992188 1.992188zm0 0"/><path d="M2834.414062 1389.414062c0 1.09375-.898437 1.992188-1.992187 1.992188s-1.953125-.898438-1.953125-1.992188.859375-1.992187 1.953125-1.992187 1.992187.898437 1.992187 1.992187zm0 0"/><path d="M2857.460938 1414.296875c0 1.09375-.898438 1.992187-1.992188 1.992187s-1.992188-.898437-1.992188-1.992187.898438-1.992187 1.992188-1.992187 1.992188.898437 1.992188 1.992187zm0 0"/><path d="M2880.507812 1439.179688c0 1.09375-.898437 1.992187-1.992187 1.992187s-1.992187-.898437-1.992187-1.992187.898437-1.992188 1.992187-1.992188 1.992187.898438 1.992187 1.992188zm0 0"/><path d="M640.429688 20.976562c0 1.09375-.859376 1.992188-1.953126 1.992188-1.132812 0-1.992187-.898438-1.992187-1.992188s.859375-1.992187 1.992187-1.992187c1.09375 0 1.953126.898437 1.953126 1.992187zm0 0"/><path d="M653.476562 39.804688c0 1.09375-.898437 1.992187-1.992187 1.992187s-1.992187-.898437-1.992187-1.992187c0-1.132813.898437-1.992188 1.992187-1.992188s1.992187.859375 1.992187 1.992188zm0 0"/><path d="M671.992188 64.492188c0 1.09375-.898438 1.992187-1.992188 1.992187s-1.992188-.898437-1.992188-1.992187S668.90625 62.5 670 62.5s1.992188.898438 1.992188 1.992188zm0 0"/><path d="M696.015625 95.078125c0 1.09375-.898437 1.992187-1.992187 1.992187-1.132813 0-1.992188-.898437-1.992188-1.992187s.859375-1.992187 1.992188-1.992187c1.09375 0 1.992187.898437 1.992187 1.992187zm0 0"/><path d="M720 125.664062c0 1.132813-.898438 1.992188-1.992188 1.992188s-1.992187-.859375-1.992187-1.992188c0-1.054687.898437-1.953124 1.992187-1.953124S720 124.609375 720 125.664062zm0 0"/><path d="M743.984375 154.414062c0 1.09375-.859375 1.992188-1.953125 1.992188-1.132812 0-1.992188-.898438-1.992188-1.992188s.859376-1.992187 1.992188-1.992187c1.09375 0 1.953125.898437 1.953125 1.992187zm0 0"/><path d="M768.007812 181.289062c0 1.09375-.898437 1.992188-1.992187 1.992188s-1.992187-.898438-1.992187-1.992188.898437-1.992187 1.992187-1.992187 1.992187.898437 1.992187 1.992187zm0 0"/><path d="M791.992188 208.164062c0 1.132813-.898438 1.992188-1.992188 1.992188s-1.992188-.859375-1.992188-1.992188c0-1.09375.898438-1.992187 1.992188-1.992187s1.992188.898437 1.992188 1.992187zm0 0"/><path d="M816.015625 233.359375c0 1.09375-.898437 1.992187-1.992187 1.992187-1.132813 0-1.992188-.898437-1.992188-1.992187s.859375-1.992187 1.992188-1.992187c1.09375 0 1.992187.898437 1.992187 1.992187zm0 0"/><path d="M840 256.835938c0 1.09375-.898438 1.992187-1.992188 1.992187s-1.992187-.898437-1.992187-1.992187.898437-1.992188 1.992187-1.992188S840 255.742188 840 256.835938zm0 0"/><path d="M863.984375 280.3125c0 1.09375-.859375 1.992188-1.953125 1.992188-1.132812 0-1.992188-.898438-1.992188-1.992188s.859376-1.992188 1.992188-1.992188c1.09375 0 1.953125.898438 1.953125 1.992188zm0 0"/><path d="M888.007812 302.226562c0 1.09375-.898437 1.992188-1.992187 1.992188s-1.992187-.898438-1.992187-1.992188.898437-1.992187 1.992187-1.992187 1.992187.898437 1.992187 1.992187zm0 0"/><path d="M911.992188 322.578125c0 1.09375-.898438 1.992187-1.992188 1.992187s-1.992188-.898437-1.992188-1.992187S908.90625 320.625 910 320.625s1.992188.859375 1.992188 1.953125zm0 0"/><path d="M936.015625 342.96875c0 1.09375-.898437 1.992188-1.992187 1.992188-1.132813 0-1.992188-.898438-1.992188-1.992188s.859375-1.992188 1.992188-1.992188c1.09375 0 1.992187.898438 1.992187 1.992188zm0 0"/><path d="M960 361.953125c0 1.09375-.898438 1.992187-1.992188 1.992187s-1.992187-.898437-1.992187-1.992187.898437-1.992187 1.992187-1.992187S960 360.859375 960 361.953125zm0 0"/><path d="M983.984375 379.492188c0 1.09375-.859375 1.992187-1.953125 1.992187s-1.992188-.898437-1.992188-1.992187.898438-1.953126 1.992188-1.953126 1.953125.859376 1.953125 1.953126zm0 0"/><path d="M1008.007812 397.070312c0 1.09375-.898437 1.992188-1.992187 1.992188s-1.992187-.898438-1.992187-1.992188.898437-1.992187 1.992187-1.992187 1.992187.898437 1.992187 1.992187zm0 0"/><path d="M1031.992188 413.398438c0 1.09375-.898438 1.992187-1.953126 1.992187-1.132812 0-1.992187-.898437-1.992187-1.992187s.859375-1.992188 1.992187-1.992188c1.054688 0 1.953126.898438 1.953126 1.992188zm0 0"/><path d="M1056.015625 428.476562c0 1.09375-.898437 1.953126-1.992187 1.953126-1.132813 0-1.992188-.859376-1.992188-1.953126 0-1.132812.859375-1.992187 1.992188-1.992187 1.09375 0 1.992187.859375 1.992187 1.992187zm0 0"/><path d="M1080 443.515625c0 1.09375-.898438 1.992187-1.992188 1.992187s-1.992187-.898437-1.992187-1.992187.898437-1.992187 1.992187-1.992187S1080 442.421875 1080 443.515625zm0 0"/><path d="M1103.984375 457.5c0 1.09375-.859375 1.992188-1.992187 1.992188-1.09375 0-1.953126-.898438-1.953126-1.992188s.859376-1.992188 1.953126-1.992188c1.132812 0 1.992187.898438 1.992187 1.992188zm0 0"/><path d="M1128.007812 470.390625c0 1.09375-.898437 1.953125-1.992187 1.953125s-1.992187-.859375-1.992187-1.953125c0-1.132813.898437-1.992187 1.992187-1.992187s1.992187.859374 1.992187 1.992187zm0 0"/><path d="M1151.992188 483.242188c0 1.09375-.898438 1.992187-1.992188 1.992187s-1.992188-.898437-1.992188-1.992187S1148.90625 481.25 1150 481.25s1.992188.898438 1.992188 1.992188zm0 0"/><path d="M1181.992188 497.929688c0 1.09375-.898438 1.992187-1.953126 1.992187-1.132812 0-1.992187-.898437-1.992187-1.992187s.859375-1.992188 1.992187-1.992188c1.054688 0 1.953126.898438 1.953126 1.992188zm0 0"/><path d="M1218.007812 514.414062c0 1.09375-.898437 1.992188-1.992187 1.992188s-1.992187-.898438-1.992187-1.992188.898437-1.992187 1.992187-1.992187 1.992187.898437 1.992187 1.992187zm0 0"/><path d="M1254.023438 529.6875c0 1.09375-.898438 1.992188-1.992188 1.992188s-1.992188-.898438-1.992188-1.992188.898438-1.992188 1.992188-1.992188 1.992188.898438 1.992188 1.992188zm0 0"/><path d="M1290 543.789062c0 1.09375-.898438 1.992188-1.992188 1.992188s-1.992187-.898438-1.992187-1.992188.898437-1.992187 1.992187-1.992187S1290 542.695312 1290 543.789062zm0 0"/><path d="M1326.015625 556.914062c0 1.132813-.898437 2.03125-1.992187 2.03125s-1.992188-.898437-1.992188-2.03125c0-1.054687.898438-1.953124 1.992188-1.953124s1.992187.898437 1.992187 1.953124zm0 0"/><path d="M1361.992188 569.101562c0 1.09375-.859376 1.992188-1.953126 1.992188-1.132812 0-1.992187-.898438-1.992187-1.992188s.859375-1.992187 1.992187-1.992187c1.09375 0 1.953126.898437 1.953126 1.992187zm0 0"/><path d="M1398.007812 580.546875c0 1.09375-.898437 1.992187-1.992187 1.992187s-1.992187-.898437-1.992187-1.992187.898437-1.992187 1.992187-1.992187 1.992187.898437 1.992187 1.992187zm0 0"/><path d="M1434.023438 591.25c0 1.09375-.898438 1.992188-1.992188 1.992188s-1.992188-.898438-1.992188-1.992188.898438-1.992188 1.992188-1.992188 1.992188.898438 1.992188 1.992188zm0 0"/><path d="M1470 601.445312c0 1.09375-.898438 1.992188-1.992188 1.992188s-1.992187-.898438-1.992187-1.992188.898437-1.992187 1.992187-1.992187S1470 600.351562 1470 601.445312zm0 0"/><path d="M1506.015625 611.132812c0 1.132813-.898437 1.992188-1.992187 1.992188s-1.992188-.859375-1.992188-1.992188c0-1.09375.898438-1.992187 1.992188-1.992187s1.992187.898437 1.992187 1.992187zm0 0"/><path d="M1541.992188 620.585938c0 1.09375-.859376 1.992187-1.953126 1.992187-1.132812 0-1.992187-.898437-1.992187-1.992187 0-1.132813.859375-1.992188 1.992187-1.992188 1.09375 0 1.953126.859375 1.953126 1.992188zm0 0"/><path d="M1578.007812 629.6875c0 1.132812-.898437 1.992188-1.992187 1.992188s-1.992187-.859376-1.992187-1.992188c0-1.09375.898437-1.992188 1.992187-1.992188s1.992187.898438 1.992187 1.992188zm0 0"/><path d="M1614.023438 638.789062c0 1.09375-.898438 1.992188-1.992188 1.992188s-1.992188-.898438-1.992188-1.992188.898438-1.992187 1.992188-1.992187 1.992188.898437 1.992188 1.992187zm0 0"/><path d="M1650 647.8125c0 1.132812-.898438 1.992188-1.992188 1.992188s-1.992187-.859376-1.992187-1.992188c0-1.09375.898437-1.953125 1.992187-1.953125S1650 646.71875 1650 647.8125zm0 0"/><path d="M1686.015625 657.03125c0 1.09375-.898437 1.992188-1.992187 1.992188s-1.992188-.898438-1.992188-1.992188.898438-1.992188 1.992188-1.992188 1.992187.898438 1.992187 1.992188zm0 0"/><path d="M1721.992188 666.445312c0 1.09375-.859376 1.992188-1.953126 1.992188-1.132812 0-1.992187-.898438-1.992187-1.992188s.859375-1.992187 1.992187-1.992187c1.09375 0 1.953126.898437 1.953126 1.992187zm0 0"/><path d="M1758.007812 676.210938c0 1.09375-.898437 1.992187-1.992187 1.992187s-1.992187-.898437-1.992187-1.992187.898437-1.953126 1.992187-1.953126 1.992187.859376 1.992187 1.953126zm0 0"/><path d="M1794.023438 686.445312c0 1.09375-.898438 1.992188-1.992188 1.992188s-1.992188-.898438-1.992188-1.992188.898438-1.992187 1.992188-1.992187 1.992188.898437 1.992188 1.992187zm0 0"/><path d="M1830 697.265625c0 1.09375-.898438 1.992187-1.992188 1.992187s-1.992187-.898437-1.992187-1.992187.898437-1.992187 1.992187-1.992187S1830 696.171875 1830 697.265625zm0 0"/><path d="M1866.015625 708.710938c0 1.132812-.898437 1.992187-1.992187 1.992187s-1.992188-.859375-1.992188-1.992187c0-1.054688.898438-1.953126 1.992188-1.953126s1.992187.898438 1.992187 1.953126zm0 0"/><path d="M1901.992188 721.054688c0 1.09375-.859376 1.992187-1.953126 1.992187s-1.992187-.898437-1.992187-1.992187.898437-1.992188 1.992187-1.992188 1.953126.898438 1.953126 1.992188zm0 0"/><path d="M1938.007812 734.257812c0 1.09375-.859374 1.953126-1.992187 1.953126-1.09375 0-1.992187-.859376-1.992187-1.953126s.898437-1.992187 1.992187-1.992187c1.132813 0 1.992187.898437 1.992187 1.992187zm0 0"/><path d="M1974.023438 748.515625c0 1.09375-.898438 1.992187-1.992188 1.992187s-1.992188-.898437-1.992188-1.992187.898438-1.992187 1.992188-1.992187 1.992188.898437 1.992188 1.992187zm0 0"/><path d="M2010 763.90625c0 1.054688-.898438 1.992188-1.992188 1.992188s-1.992187-.9375-1.992187-1.992188c0-1.132812.898437-1.992188 1.992187-1.992188S2010 762.773438 2010 763.90625zm0 0"/><path d="M2040.039062 777.578125c0 1.09375-.898437 1.992187-2.03125 1.992187-1.09375 0-1.953124-.898437-1.953124-1.992187s.859374-1.992187 1.953124-1.992187c1.132813 0 2.03125.898437 2.03125 1.992187zm0 0"/><path d="M2064.023438 789.570312c0 1.09375-.898438 1.992188-1.992188 1.992188s-1.992188-.898438-1.992188-1.992188.898438-1.992187 1.992188-1.992187 1.992188.898437 1.992188 1.992187zm0 0"/><path d="M2088.007812 801.5625c0 1.09375-.898437 1.992188-1.992187 1.992188s-1.992187-.898438-1.992187-1.992188.898437-1.992188 1.992187-1.992188 1.992187.898438 1.992187 1.992188zm0 0"/><path d="M2112.03125 814.609375c0 1.09375-.898438 1.953125-1.992188 1.953125s-1.992187-.859375-1.992187-1.953125c0-1.132813.898437-1.992187 1.992187-1.992187s1.992188.859374 1.992188 1.992187zm0 0"/><path d="M2136.015625 828.632812c0 1.132813-.898437 1.992188-1.992187 1.992188s-1.992188-.859375-1.992188-1.992188c0-1.09375.898438-1.992187 1.992188-1.992187s1.992187.898437 1.992187 1.992187zm0 0"/><path d="M2160.039062 842.695312c0 1.09375-.898437 1.992188-1.992187 1.992188-1.132813 0-1.992187-.898438-1.992187-1.992188s.859374-1.992187 1.992187-1.992187c1.09375 0 1.992187.898437 1.992187 1.992187zm0 0"/><path d="M2184.023438 857.929688c0 1.09375-.898438 1.992187-1.992188 1.992187s-1.992188-.898437-1.992188-1.992187.898438-1.992188 1.992188-1.992188 1.992188.898438 1.992188 1.992188zm0 0"/><path d="M2208.007812 874.375c0 1.09375-.859374 1.992188-1.992187 1.992188-1.09375 0-1.992187-.898438-1.992187-1.992188s.898437-1.992188 1.992187-1.992188c1.132813 0 1.992187.898438 1.992187 1.992188zm0 0"/><path d="M2231.992188 890.78125c0 1.09375-.859376 1.992188-1.953126 1.992188s-1.992187-.898438-1.992187-1.992188.898437-1.992188 1.992187-1.992188 1.953126.898438 1.953126 1.992188zm0 0"/><path d="M2256.015625 908.554688c0 1.09375-.898437 1.953124-1.992187 1.953124s-1.992188-.859374-1.992188-1.953124c0-1.132813.898438-1.992188 1.992188-1.992188s1.992187.859375 1.992187 1.992188zm0 0"/><path d="M2280 927.617188c0 1.09375-.898438 1.992187-1.992188 1.992187s-1.953124-.898437-1.953124-1.992187.859374-1.992188 1.953124-1.992188S2280 926.523438 2280 927.617188zm0 0"/><path d="M2304.023438 946.71875c0 1.09375-.898438 1.992188-1.992188 1.992188s-1.992188-.898438-1.992188-1.992188.898438-1.992188 1.992188-1.992188 1.992188.898438 1.992188 1.992188zm0 0"/><path d="M2328.007812 967.265625c0 1.132813-.859374 1.992187-1.953124 1.992187-1.132813 0-1.992188-.859374-1.992188-1.992187 0-1.09375.859375-1.992187 1.992188-1.992187 1.09375 0 1.953124.898437 1.953124 1.992187zm0 0"/><path d="M2352.03125 989.335938c0 1.09375-.898438 1.992187-1.992188 1.992187s-1.992187-.898437-1.992187-1.992187.898437-1.992188 1.992187-1.992188 1.992188.898438 1.992188 1.992188zm0 0"/><path d="M2376.015625 1011.40625c0 1.09375-.898437 1.992188-1.992187 1.992188s-1.992188-.898438-1.992188-1.992188c0-1.132812.898438-1.992188 1.992188-1.992188s1.992187.859376 1.992187 1.992188zm0 0"/><path d="M2400.039062 1035.078125c0 1.09375-.898437 1.992187-1.992187 1.992187-1.132813 0-1.992187-.898437-1.992187-1.992187s.859374-1.992187 1.992187-1.992187c1.09375 0 1.992187.898437 1.992187 1.992187zm0 0"/><path d="M2424.023438 1060.390625c0 1.132813-.898438 1.992187-1.992188 1.992187s-1.992188-.859374-1.992188-1.992187c0-1.054687.898438-1.953125 1.992188-1.953125s1.992188.898438 1.992188 1.953125zm0 0"/><path d="M2448.007812 1085.742188c0 1.09375-.859374 1.992187-1.992187 1.992187-1.09375 0-1.992187-.898437-1.992187-1.992187s.898437-1.992188 1.992187-1.992188c1.132813 0 1.992187.898438 1.992187 1.992188zm0 0"/><path d="M2472.03125 1112.851562c0 1.09375-.898438 1.992188-1.992188 1.992188s-1.992187-.898438-1.992187-1.992188.898437-1.953124 1.992187-1.953124 1.992188.859374 1.992188 1.953124zm0 0"/><path d="M2496.015625 1141.757812c0 1.09375-.898437 1.992188-1.992187 1.992188s-1.992188-.898438-1.992188-1.992188.898438-1.992187 1.992188-1.992187 1.992187.898437 1.992187 1.992187zm0 0"/><path d="M2520.039062 1170.664062c0 1.132813-.898437 1.992188-1.992187 1.992188s-1.992187-.859375-1.992187-1.992188c0-1.054687.898437-1.953124 1.992187-1.953124s1.992187.898437 1.992187 1.953124zm0 0"/><path d="M2541.015625 1197.421875c0 1.09375-.898437 1.992187-1.992187 1.992187s-1.992188-.898437-1.992188-1.992187.898438-1.992187 1.992188-1.992187 1.992187.898437 1.992187 1.992187zm0 0"/><path d="M2559.023438 1221.992188c0 1.132812-.898438 1.992187-1.992188 1.992187s-1.992188-.859375-1.992188-1.992187c0-1.09375.898438-1.953126 1.992188-1.953126s1.992188.859376 1.992188 1.953126zm0 0"/><path d="M2577.03125 1246.601562c0 1.09375-.898438 1.992188-1.992188 1.992188s-1.992187-.898438-1.992187-1.992188.898437-1.992187 1.992187-1.992187 1.992188.898437 1.992188 1.992187zm0 0"/><path d="M2595.039062 1271.210938c0 1.09375-.898437 1.992187-1.992187 1.992187-1.132813 0-1.992187-.898437-1.992187-1.992187s.859374-1.992188 1.992187-1.992188c1.09375 0 1.992187.898438 1.992187 1.992188zm0 0"/><path d="M2613.007812 1297.382812c0 1.09375-.859374 1.992188-1.953124 1.992188-1.132813 0-1.992188-.898438-1.992188-1.992188s.859375-1.992187 1.992188-1.992187c1.09375 0 1.953124.898437 1.953124 1.992187zm0 0"/><path d="M2631.015625 1325.078125c0 1.09375-.898437 1.992187-1.992187 1.992187s-1.992188-.898437-1.992188-1.992187.898438-1.992187 1.992188-1.992187 1.992187.898437 1.992187 1.992187zm0 0"/><path d="M2649.023438 1352.8125c0 1.09375-.898438 1.992188-1.992188 1.992188s-1.992188-.898438-1.992188-1.992188.898438-1.992188 1.992188-1.992188 1.992188.898438 1.992188 1.992188zm0 0"/><path d="M2667.03125 1380.546875c0 1.09375-.898438 1.992187-1.992188 1.992187s-1.992187-.898437-1.992187-1.992187.898437-1.992187 1.992187-1.992187 1.992188.898437 1.992188 1.992187zm0 0"/><path d="M2684.296875 1408.710938c0 1.09375-.898437 1.992187-1.992187 1.992187s-1.992188-.898437-1.992188-1.992187.898438-1.992188 1.992188-1.992188 1.992187.898438 1.992187 1.992188zm0 0"/><path d="M2700.859375 1437.304688c0 1.09375-.898437 1.992187-1.992187 1.992187s-1.992188-.898437-1.992188-1.992187.898438-1.992188 1.992188-1.992188 1.992187.898438 1.992187 1.992188zm0 0"/><g fill="none"><path d="M892.421875 1451.601562l.859375-16.5625"/><path d="M894.960938 1401.835938l.859374-16.640626"/><path d="M895.820312 1385.195312l.820313-16.5625"/><path d="M898.359375 1335.390625l.859375-16.601563"/><path d="M899.21875 1318.789062l2.109375-25.429687"/><path d="M905.507812 1242.460938l2.109376-25.46875"/><path d="M907.617188 1216.992188l2.070312-25.46875"/><path d="M913.90625 1140.625l2.109375-25.46875"/><path d="M916.015625 1115.15625l2.109375-25.429688"/><path d="M922.304688 1038.828125l2.109374-25.46875"/><path d="M924.414062 1013.359375l3.164063-23.320313"/><path d="M933.867188 943.359375l3.164062-23.320313"/><path d="M937.03125 920.039062l3.125-23.359374"/><path d="M946.445312 850.039062l3.164063-23.359374"/><path d="M949.609375 826.679688l6.289063-28.046876"/><path d="M968.515625 742.539062l6.289063-28.046874"/><path d="M974.804688 714.492188l6.328124-16.5625"/><path d="M993.710938 664.882812 1000 648.359375"/><path d="M1000 648.359375l6.328125-9.492187"/><path d="M1018.90625 619.882812l6.289062-9.492187"/><path d="M1025.195312 610.390625l6.328126-5.273437"/><path d="M1044.101562 594.648438l6.328126-5.234376"/><path d="M1050.429688 589.414062l6.289062-2.734374"/><path d="M1069.335938 581.289062l6.289062-2.734374"/><path d="M1075.625 578.554688l6.289062-1.210938"/><path d="M1094.53125 574.882812l6.289062-1.210937"/><path d="M1100.820312 573.671875l6.289063-.351563"/><path d="M1119.726562 572.617188l6.289063-.351563"/><path d="M1126.015625 572.265625l6.289063.117187"/><path d="M1144.921875 572.695312l6.289063.117188"/><path d="M1151.210938 572.8125l6.328124.429688"/><path d="M1170.117188 574.101562l6.289062.429688"/><path d="M1176.40625 574.53125l6.328125.585938"/><path d="M1195.3125 576.328125l6.289062.585937"/><path d="M1201.601562 576.914062l6.328126.703126"/><path d="M1220.507812 579.023438l6.328126.664062"/><path d="M1226.835938 579.6875l6.289062.78125"/><path d="M1245.703125 581.992188l6.328125.742187"/><path d="M1252.03125 582.734375l6.289062.820313"/><path d="M1270.9375 585.15625l6.289062.820312"/><path d="M1277.226562 585.976562l6.289063.820313"/><path d="M1296.132812 588.476562l6.289063.859376"/><path d="M1302.421875 589.335938l6.289063.859374"/><path d="M1321.328125 591.953125l6.289063.859375"/><path d="M1327.617188 592.8125l6.289062.898438"/><path d="M1346.523438 595.546875l6.289062.898437"/><path d="M1352.8125 596.445312l6.289062.9375"/><path d="M1371.71875 599.257812l6.289062.9375"/><path d="M1378.007812 600.195312l6.328126.9375"/><path d="M1396.914062 603.085938l6.289063.976562"/><path d="M1403.203125 604.0625l6.328125.976562"/><path d="M1422.109375 607.070312l6.328125 1.015626"/><path d="M1428.4375 608.085938l6.289062 1.015624"/><path d="M1447.304688 611.171875l6.328124 1.054687"/><path d="M1453.632812 612.226562l6.289063 1.054688"/><path d="M1472.539062 615.429688l6.289063 1.054687"/><path d="M1478.828125 616.484375l6.289063 1.132813"/><path d="M1497.734375 619.84375l6.289063 1.09375"/><path d="M1504.023438 620.9375l6.289062 1.171875"/><path d="M1522.929688 624.414062l6.289062 1.171876"/><path d="M1529.21875 625.585938l6.289062 1.210937"/><path d="M1548.125 629.179688l6.289062 1.171874"/><path d="M1554.414062 630.351562l6.289063 1.25"/><path d="M1573.320312 634.101562l6.289063 1.25"/><path d="M1579.609375 635.351562l6.328125 1.289063"/><path d="M1598.515625 639.21875l6.289063 1.289062"/><path d="M1604.804688 640.507812l6.328124 1.367188"/><path d="M1623.710938 644.570312l6.328124 1.328126"/><path d="M1630.039062 645.898438l6.289063 1.40625"/><path d="M1648.90625 650.078125l6.328125 1.40625"/><path d="M1655.234375 651.484375l6.289063 1.445313"/><path d="M1674.101562 655.859375l6.328126 1.445313"/><path d="M1680.429688 657.304688l6.289062 1.5625"/><path d="M1699.335938 661.875l6.289062 1.523438"/><path d="M1705.625 663.398438 1711.914062 665"/><path d="M1724.53125 668.164062l6.289062 1.601563"/><path d="M1730.820312 669.765625l6.289063 1.640625"/><path d="M1749.726562 674.726562l6.289063 1.640626"/><path d="M1756.015625 676.367188l6.289063 1.757812"/><path d="M1774.921875 681.5625l6.289063 1.757812"/><path d="M1781.210938 683.320312l6.328124 1.796876"/><path d="M1800.117188 688.710938l6.289062 1.835937"/><path d="M1806.40625 690.546875l6.328125 1.875"/><path d="M1825.3125 696.25l6.289062 1.875"/><path d="M1831.601562 698.125l6.328126 1.992188"/><path d="M1850.507812 704.101562l6.328126 1.992188"/><path d="M1856.835938 706.09375l6.289062 2.109375"/><path d="M1875.703125 712.382812l6.328125 2.070313"/><path d="M1882.03125 714.453125l6.289062 2.226563"/><path d="M1900.9375 721.054688l6.289062 2.226562"/><path d="M1907.226562 723.28125l6.289063 2.304688"/><path d="M1926.132812 730.195312l6.289063 2.304688"/><path d="M1932.421875 732.5l6.289063 2.460938"/><path d="M1951.328125 739.84375l6.289063 2.421875"/><path d="M1957.617188 742.265625l6.289062 2.578125"/><path d="M1976.523438 750l6.289062 2.578125"/><path d="M1982.8125 752.578125l6.328125 2.695313"/><path d="M2001.71875 760.703125l6.289062 2.734375"/><path d="M2008.007812 763.4375l6.328126 2.890625"/><path d="M2026.914062 772.070312l6.289063 2.890626"/><path d="M2033.203125 774.960938l6.328125 3.085937"/><path d="M2052.109375 784.140625l6.328125 3.046875"/><path d="M2058.4375 787.1875l6.289062 3.242188"/><path d="M2077.304688 796.914062l6.328124 3.28125"/><path d="M2083.632812 800.195312l6.289063 3.4375"/><path d="M2102.539062 810.546875l6.289063 3.476563"/><path d="M2108.828125 814.023438l6.289063 3.671874"/><path d="M2127.734375 825.078125l6.289063 3.671875"/><path d="M2134.023438 828.75l6.289062 3.945312"/><path d="M2152.929688 840.585938l6.289062 3.945312"/><path d="M2159.21875 844.53125l6.289062 4.179688"/><path d="M2178.125 857.1875l6.289062 4.21875"/><path d="M2184.414062 861.40625l6.328126 4.53125"/><path d="M2203.320312 875.039062l6.289063 4.53125"/><path d="M2209.609375 879.570312l6.328125 4.84375"/><path d="M2228.515625 894.179688l6.289063 4.921874"/><path d="M2234.804688 899.101562l6.328124 5.273438"/><path d="M2253.710938 914.921875l6.328124 5.273437"/><path d="M2260.039062 920.195312l6.289063 5.703126"/><path d="M2278.945312 937.304688l6.289063 5.742187"/><path d="M2285.234375 943.046875l6.289063 6.210937"/><path d="M2304.140625 961.679688l6.289063 6.210937"/><path d="M2310.429688 967.890625l6.289062 6.757813"/><path d="M2329.335938 988.203125 2335.625 995"/><path d="M2335.625 995l6.289062 7.421875"/><path d="M2354.53125 1017.265625l6.289062 7.421875"/><path d="M2360.820312 1024.6875l6.328126 8.164062"/><path d="M2379.726562 1049.140625l6.289063 8.164063"/><path d="M2386.015625 1057.304688l6.328125 9.023437"/><path d="M2404.921875 1084.375l6.289063 9.023438"/><path d="M2411.210938 1093.398438l6.328124 10.039062"/><path d="M2430.117188 1123.515625l6.328124 10"/><path d="M2436.445312 1133.515625l6.289063 11.210937"/><path d="M2455.351562 1167.148438l6.289063 11.171874"/><path d="M2461.640625 1178.320312l6.289063 12.617188"/><path d="M2480.546875 1216.132812l6.289063 12.617188"/><path d="M2486.835938 1228.75l6.289062 14.296875"/><path d="M2505.742188 1271.601562l6.289062 14.296876"/><path d="M2512.03125 1285.898438l6.289062 16.289062"/><path d="M2530.9375 1334.804688l6.289062 16.328124"/><path d="M2537.226562 1351.132812l6.328126 18.828126"/><path d="M2556.132812 1407.578125l6.289063 18.828125"/><path d="M2562.421875 1426.40625l1.835937 6.289062"/><path d="M2567.851562 1445.3125l1.835938 6.289062"/></g></g></g><style>.a{fill:none;stroke:#000;stroke-miterlimit:10;stroke-width:3.985;transform:matrix(.1,0,0,-.1,0,146)}</style></svg>