<svg xmlns="http://www.w3.org/2000/svg" width="437pt" height="76pt" viewBox="0 0 437 76"><g class="a"><path d="M40 751.601562h29.179688"/><path d="M127.578125 751.601562h29.179687"/><path d="M156.757812 751.601562H185.9375"/><path d="M244.335938 751.601562h29.179687"/><path d="M273.515625 751.601562h29.179687"/><path d="M361.09375 751.601562h29.179688"/><path d="M390.273438 751.601562h29.179687"/><path d="M477.851562 751.601562h29.179688"/><path d="M507.03125 751.601562h29.179688"/><path d="M594.609375 751.601562h29.179687"/><path d="M623.789062 751.601562h29.179688"/><path d="M711.367188 751.601562h29.179687"/><path d="M740.546875 751.601562h29.179687"/><path d="M828.125 751.601562h29.179688"/><path d="M857.304688 751.601562h29.179687"/><path d="M944.882812 751.601562H974.0625"/><path d="M974.0625 751.601562h29.179688"/><path d="M1061.640625 751.601562h29.179687"/><path d="M1090.820312 751.601562h29.21875"/><path d="M1178.398438 751.601562h29.179687"/><path d="M1207.578125 751.601562h29.179687"/><path d="M1295.15625 751.601562h29.179688"/><path d="M1324.335938 751.601562h29.179687"/><path d="M1411.914062 751.601562h29.179688"/><path d="M1441.09375 751.601562h29.21875"/><path d="M1528.671875 751.601562h29.179687"/><path d="M1557.851562 751.601562h29.179688"/><path d="M1645.429688 751.601562h29.179687"/><path d="M1674.609375 751.601562h29.179687"/><path d="M1762.1875 751.601562h29.179688"/><path d="M1791.367188 751.601562h29.21875"/><path d="M1878.945312 751.601562H1908.125"/><path d="M1908.125 751.601562h29.21875"/><path d="M1995.703125 751.601562h29.179687"/><path d="M2024.882812 751.601562h29.179688"/><path d="M2112.460938 751.601562h29.179687"/><path d="M2141.640625 751.601562h29.21875"/><path d="M2229.21875 751.601562h29.179688"/><path d="M2258.398438 751.601562h29.179687"/><path d="M2345.976562 751.601562h29.179688"/><path d="M2375.15625 751.601562h29.21875"/><path d="M2462.734375 751.601562h29.179687"/><path d="M2491.914062 751.601562h29.21875"/><path d="M2579.492188 751.601562h29.179687"/><path d="M2608.671875 751.601562h29.179687"/><path d="M2696.25 751.601562h29.21875"/><path d="M2725.46875 751.601562h29.179688"/><path d="M2813.007812 751.601562h29.179688"/><path d="M2842.1875 751.601562h29.21875"/><path d="M2929.765625 751.601562h29.179687"/><path d="M2958.945312 751.601562H2988.125"/><path d="M3046.523438 751.601562h29.179687"/><path d="M3075.703125 751.601562h29.21875"/><path d="M3163.28125 751.601562h29.179688"/><path d="M3192.460938 751.601562h29.179687"/><path d="M3280.039062 751.601562h29.179688"/><path d="M3309.21875 751.601562h29.21875"/><path d="M3396.796875 751.601562h29.179687"/><path d="M3425.976562 751.601562h29.21875"/><path d="M3513.554688 751.601562h29.179687"/><path d="M3542.734375 751.601562h29.21875"/><path d="M3630.3125 751.601562h29.179688"/><path d="M3659.492188 751.601562h29.21875"/><path d="M3747.070312 751.601562h29.21875"/><path d="M3776.289062 751.601562h29.179688"/><path d="M3863.828125 751.601562h29.179687"/><path d="M3893.007812 751.601562h29.21875"/><path d="M3980.585938 751.601562h29.179687"/><path d="M4009.765625 751.601562h29.179687"/><path d="M4097.34375 751.601562h29.179688"/><path d="M4126.523438 751.601562h29.21875"/><path d="M4214.101562 751.601562h29.179688"/><path d="M4243.28125 751.601562H4272.5"/><path d="M4330.859375 751.601562h29.179687"/><path d="M40 31.601562h4320.039062"/></g><path d="M3.7461 69.85156h.6016v6h-.6016zm0 0"/><path d="M75.75 69.85156h.6016v6H75.75zm0 0"/><path d="M147.75 69.85156h.6016v6h-.6016zm0 0"/><path d="M219.75 69.85156h.6016v6h-.6016zm0 0"/><path d="M291.7539 69.85156h.6016v6h-.6016zm0 0"/><path d="M363.7539 69.85156h.6016v6h-.6016zm0 0"/><path d="M435.7539 69.85156h.6016v6h-.6016zm0 0"/><path d="M40 31.601562v720" class="a"/><path d="M.9883 72.49219h6v.60156h-6zm0 0"/><path d="M.9883.49219h6v.60156h-6zm0 0"/><path d="M40 31.601562l71.992188 65.46875 71.992187 54.53125 72.03125 46.171876 71.992187 39.53125L400 271.601562l72.03125 30 71.953125 26.484376 72.03125 23.515624 71.992187 21.054688L760 391.601562 832.03125 408.75l71.992188 15.585938 71.992187 14.21875 71.992187 13.046874 72.03125 11.992188 71.992188 11.09375 71.992188 10.234375 71.992187 9.53125 71.992187 8.867187 72.03125 8.28125 71.992188 7.734376 71.992188 7.265624 71.992187 6.835938 71.992187 6.40625 72.03125 6.054688 71.992188 5.703124 71.992188 5.429688 71.992187 5.117188 71.992187 4.84375 72.03125 4.609374 71.992188 4.414063 71.992188 4.179687 71.992187 3.945313 72.03125 3.828125 71.992187 3.632812 71.992188 3.476563 71.992188 3.320313 72.03125 3.203124 71.992187 3.046876 71.992187 2.96875 71.992188 2.8125 71.992188 2.734374 72.03125 2.617188 71.992187 2.5 71.992187 2.421875 71.992188 2.34375 71.992188 2.226563 72.03125 2.1875 71.992187 2.109374 71.992187 2.03125 71.992188 1.953126 72.03125 1.914062 71.992188 1.835938 71.992187 1.796874 71.992187 1.757813 71.992188 1.679687 72.03125 1.601563 143.984375 3.125 71.992187 1.484375" style="fill:none;stroke-width:7.9701;stroke:#000;stroke-miterlimit:10;transform:matrix(.1,0,0,-.1,0,76)"/><style>.a{fill:none;stroke:#000;stroke-miterlimit:10;stroke-width:3.985;transform:matrix(.1,0,0,-.1,0,76)}</style></svg>