<svg xmlns="http://www.w3.org/2000/svg" width="86pt" height="46pt" viewBox="0 0 86 46"><defs><clipPath id="a"><path d="M64 0h12.70313v10H64zm0 0"/></clipPath><clipPath id="b"><path d="M.70313 36H13v10H.70313zm0 0"/></clipPath><clipPath id="c"><path d="M16 0h20v12H16zm0 0"/></clipPath><clipPath id="d"><path clip-rule="evenodd" d="M.70313 48.55078h76v-52h-76zm28.8164-44.67187.0625.82031-8.82031 2.33203 7.37109-2.58203-7.75-1.19922zm0 0"/></clipPath><clipPath id="e"><path d="M13 0h22v14H13zm0 0"/></clipPath><clipPath id="f"><path d="M48 6h16v16H48zm0 0"/></clipPath><clipPath id="g"><path clip-rule="evenodd" d="M.70313 48.55078h76v-52h-76zm56.40234-36.23047.57031.69531-5.98437 6.92578 4.53516-6.29687-6.99219 3.40234zm0 0"/></clipPath><clipPath id="h"><path d="M0 0h77v46H0z"/></clipPath><g id="i" clip-path="url(#h)"><path d="M73.60938 1.99219c0 .625-.507813 1.132812-1.132813 1.132812s-1.132812-.507812-1.132812-1.132812c0-.628907.507812-1.136719 1.132812-1.136719s1.132813.507812 1.132813 1.136719" class="b"/><g clip-path="url(#a)"><path d="M729.07375 465.568125c0-6.25-5.078125-11.328125-11.328125-11.328125s-11.328125 5.078125-11.328125 11.328125c0 6.289063 5.078125 11.367188 11.328125 11.367188s11.328125-5.078125 11.328125-11.367188zm0 0" class="a"/></g><path d="M5.58203 44.50781c0 .628907-.507812 1.136719-1.132812 1.136719-.628907 0-1.136719-.507812-1.136719-1.136719 0-.625.507812-1.132812 1.136719-1.132812.625 0 1.132812.507812 1.132812 1.132812" class="b"/><g clip-path="url(#b)"><path d="M48.800313 40.411875c0-6.289062-5.078125-11.367187-11.328125-11.367187-6.289063 0-11.367188 5.078125-11.367188 11.367187 0 6.25 5.078125 11.328125 11.367188 11.328125 6.25 0 11.328125-5.078125 11.328125-11.328125zm0 0" class="a"/></g><g clip-path="url(#c)"><g clip-path="url(#d)"><path d="M225.7925 436.622813l58.59375 5.664062" class="a"/></g></g><g clip-path="url(#e)"><path d="M196.808125 452.99l77.5-11.992187-73.710937-25.820313" class="a"/></g><g clip-path="url(#f)"><g clip-path="url(#g)"><path d="M542.628438 338.341563l20.78125 17.65625" class="a"/></g></g><g style="fill:none;stroke-width:4.72425;stroke-linecap:butt;stroke:#000;stroke-opacity:1;stroke-miterlimit:10;transform:matrix(.1,0,0,-.1,.702,48.549)"><path stroke-linejoin="miter" d="M485.32375 315.02125l69.921875 34.023438-45.351562-62.96875"/><g stroke-linejoin="bevel"><path d="M37.472188 40.411875h6.914062l8.828125-.625H66.4175l18.28125-.664062 22.695313-.625 26.445312-.625 29.609375-.625 31.484375-.625 33.398438-.625 32.734375-.625h91.328125l27.109375.625 23.90625.625 22.070312.625 19.53125 1.25 16.992188 1.289062 15.117187 1.875 12.617188 1.875 11.328125 1.914063 9.453125 2.5 7.539062 3.164062 6.328125 3.125 6.914063 6.328125 4.414062 7.539063 1.25 7.578125-1.25 9.453125-3.164062 10.078125-5.039063 11.328125-6.914062 11.953125-7.578125 12.617187L504.23 144.318125 487.82375 172.0525l-6.914062 13.867188-6.289063 13.203125-4.414062 13.242187-2.539063 13.242188v13.203125l1.289063 9.453125 2.5 9.453125 4.414062 10.078125 5.664063 10.078125 8.203125 10.078125 9.453125 11.328125 11.953125 11.992187 13.867187 12.578125 15.742188 13.867188 17.617187 13.867187 18.90625 15.117188 20.78125 15.742187 21.445313 15.117188 20.78125 15.117187 20.15625 13.867188 17.617187 11.953125 14.492188 10.078125 11.328125 7.539062 7.578125 5.039063 4.414062 3.164062 1.875 1.25"/><path d="M37.472188 40.411875l-.664063 2.5-.625 5.039063-.625 8.828125-1.875 13.867187-1.914062 17.617188-1.875 22.070312-1.875 23.90625L26.105 160.724375 24.855 213.615l.625 25.195313 1.25 23.320312 1.914063 21.40625 3.789062 20.15625 4.375 17.65625 6.328125 15.742188 6.914063 13.867187 8.828125 13.203125L68.956563 375.49l11.953125 10.078125 13.242187 8.828125 10.703125 6.289063 11.953125 6.328125 12.617188 5.039062 14.492187 5.039063 15.117188 5.039062 16.992187 4.414063 18.28125 3.75 20.15625 3.789062 22.03125 3.164063 23.945313 3.125 26.445312 3.164062 27.734375 2.5L344.23 448.575938l31.484375 2.5L408.44875 453.615l34.023438 1.875 35.273437 1.914063 34.648438 1.25 34.023437 1.875 32.109375 1.289062 30.234375.625 27.734375 1.25 23.320313.625 19.492187.625h15.117188l10.742187.625h12.578125"/></g></g></g><path d="M4.96875-1.23437l-.15625-.09375c-.109375.125-.15625.1875-.265625.328125-.28125.359375-.40625.46875-.5625.46875-.171875 0-.28125-.15625-.359375-.484375-.03125-.109375-.046875-.171875-.046875-.1875-.296875-1.125-.4375-1.765625-.4375-1.953125.53125-.921875.953125-1.453125 1.171875-1.453125.078125 0 .1875.046875.296875.109375.140625.078125.21875.09375.328125.09375.234375 0 .40625-.171875.40625-.421875 0-.265625-.203125-.4375-.484375-.4375-.53125 0-.96875.421875-1.8125 1.703125l-.125-.65625C2.75-5.031245 2.625-5.26562 2.296875-5.26562c-.28125 0-.65625.09375-1.40625.34375l-.125.04688.04688.17188L1.01563-4.75c.234375-.0625.375-.078125.46875-.078125.296875 0 .375.109375.53125.828125l.34375 1.46875-.96875 1.39063C1.140625-.78125.90625-.5625.78125-.5625c-.078125 0-.203125-.03125-.3125-.109375C.3125-.75.1875-.78125.078125-.78125c-.234375 0-.40625.171875-.40625.40625 0 .3125.234375.5.609375.5.359375 0 .5-.09375 1.109375-.8125L2.46875-2.10937l.35938 1.4375c.140625.625.296875.796875.6875.796875.453125 0 .765625-.28125 1.453125-1.359375zm0 0" id="j"/><path d="M6.98438-4.90625l-.82812.10938c-.328135.92187-1.265635 2.32812-1.265635 2.343745H4.875c0-.015625.203125-.515625.203125-1.15625 0-.796875-.265625-1.65625-1.546875-1.65625-2.015625 0-3.25 2.109375-3.25 3.5625C.28125-.6875.828125.125 2.0625.125c.953125 0 1.671875-.71875 1.671875-.734375 0 .09375.03125.71875.90625.71875C5.59375.109375 6.15625-.96875 6.15625-1.25c0-.03125-.015625-.046875-.03125-.046875-.15625 0-.453125.96875-1.140625.96875-.265625 0-.328125-.296875-.328125-.609375 0-.25.046875-.53125.09375-.65625.15625-.21875 2.234375-3.3125 2.234375-3.3125zm-2.78125 1.375c0 1.140625-.4375 2.4375-.4375 2.453125s-.60938.90625-1.51563.90625c-.265625 0-.90625-.078125-.90625-1.609375 0-.609375.3125-3.1875 1.984375-3.1875.8125 0 .875 1.015625.875 1.4375zm0 0" id="k"/><path d="M5.09375-4.60937c0-.359375-.296875-.65625-.65625-.65625-.28125 0-.46875.171875-.46875.4375 0 .1875.09375.3125.328125.46875.234375.125.3125.234375.3125.40625 0 .46875-.421875 1.390625-1.453125 3.09375L2.92188-2.25c-.1875-1.0625-.859375-3.015625-1.03125-3.015625h-.15625L.5625-5.0625l-.39062.07813v.20313c.15625-.03125.25-.046875.375-.046875.484375 0 .703125.171875.921875.765625.328125.8125.984375 3.484375.984375 3.96875 0 .125-.046875.265625-.125.421875-.09375.15625-.625.859375-.84375 1.078125-.28125.296875-.421875.40625-.578125.40625-.078125 0-.15625-.046875-.28125-.140625C.4375 1.53125.328125 1.46875.171875 1.46875c-.25 0-.453125.203125-.453125.46875 0 .3125.25.53125.609375.53125.671875 0 1.96875-1.375 3.203125-3.4375 1-1.65625 1.5625-2.96875 1.5625-3.640625zm0 0" id="l"/><path d="M6.03125-6.45312c0-.953125-.765625-1.375-1.75-1.375-1.265625 0-2.5.84375-2.828125 2.0625L-.375.89063c-.203125.765625-.671875 1.421875-.78125 1.578125h1.0625C-.078125 2.46875.109375 2.375.5.890625L.90625-.65625h.01563c0 .015625.390625.859375 1.59375.859375 1.796875 0 3-1.34375 3-2.71875 0-1.484375-1.34375-1.71875-1.359375-1.71875v-.04687c.015625 0 1.875-.421875 1.875-2.171875zm-.9375-.03125c0 .5625-.3125 1.90625-1.265625 1.90625-.25 0-.453125-.046875-.640625-.046875-.3125 0-.546875.28125-.546875.484375 0 .140625.09375.25.3125.25.328125 0 .421875-.0625.6875-.0625.609375 0 .859375.640625.859375 1.3125 0 1.1875-.703125 2.296875-1.984375 2.296875-.8125 0-1.34375-.421875-1.34375-1.109375 0-.15625.015625-.296875.078125-.46875l1.0625-3.84375C2.53125-6.53125 3.078125-7.5 4.15625-7.5c.6875 0 .9375.46875.9375 1.015625zm0 0" id="m"/></defs><use transform="translate(5)" href="#i"/><use x=".759" y="44.517" href="#j"/><use x="2.106" y="13.334" href="#k"/><use x="80.831" y="7.664" href="#l"/><use x="61.167" y="38.847" href="#m"/><style>.a{fill:none;stroke:#000;stroke-linecap:butt;stroke-linejoin:miter;stroke-miterlimit:10;stroke-opacity:1;stroke-width:4.72425;transform:matrix(.1,0,0,-.1,.702,48.549)}.b{fill:#000;fill-opacity:1;fill-rule:evenodd}</style></svg>