<svg xmlns="http://www.w3.org/2000/svg" width="253pt" height="60pt" viewBox="0 0 253 60"><defs><clipPath id="f"><path d="M8 8h51v45H8zm0 0"/></clipPath><clipPath id="g"><path d="M-.2461 61.55078h246v-62h-246zm52.0274-47.1914.5664.69531-5.9805 6.92969 4.5352-6.30078-6.9922 3.40234zm0 0" class="b"/></clipPath><clipPath id="h"><path d="M135 8h34v42h-34zm0 0"/></clipPath><clipPath id="i"><path d="M-.2461 61.55078h246v-62h-246zm162.3867-47.125.6953.4375-3.9727 8.25391 2.7734-7.24609-5.8594 5.03906zm0 0" class="b"/></clipPath><clipPath id="j"><path d="M155 8h40v23h-40zm0 0"/></clipPath><clipPath id="k"><path d="M-.2461 61.55078h246v-62h-246zm188.5899-38.30859-.3125.82031-9.0078-1.51172 7.7461.62891-6.5508-4.21875zm0 0" class="b"/></clipPath><clipPath id="l"><path d="M135 16h60v35h-60zm0 0"/></clipPath><clipPath id="m"><path d="M-.2461 61.55078h246v-62h-246zm188.2148-38.625.375.75781-7.6836 4.97656 6.1719-4.72656-7.6836 1.26172zm0 0" class="b"/></clipPath><clipPath id="n"><path d="M220 19h20v40h-20zm0 0"/></clipPath><clipPath id="o"><path d="M-.2461 61.55078h246v-62h-246zm233.0625-35.72656.8164.19141-.5 9.13281-.2539-7.8125-3.4648 6.99219zm0 0" class="b"/></clipPath><clipPath id="p"><path d="M226 0h19.7539v59H226zm0 0"/></clipPath><clipPath id="q"><path d="M-.2461 61.55078h246v-62h-246zM244.1523.3125l.8203.19141-.5039 9.13281-.25-7.8125-3.4648 6.99219zm0 0" class="b"/></clipPath><clipPath id="r"><path d="M234 0h11.7539v17H234zm0 0"/></clipPath><clipPath id="s"><path d="M0 0h246v60H0z"/></clipPath><g id="t" clip-path="url(#s)"><path d="M16.0039 46.17188c0 .625-.507812 1.132813-1.132812 1.132813s-1.132813-.507813-1.132813-1.132813c0-.628906.507813-1.136719 1.132813-1.136719s1.132812.507813 1.132812 1.136719" class="c"/><path d="M162.519062 153.77125c0-6.25-5.078125-11.328125-11.328125-11.328125s-11.328125 5.078125-11.328125 11.328125c0 6.289063 5.078125 11.367188 11.328125 11.367188s11.328125-5.078125 11.328125-11.367188zm0 0" class="a"/><path d="M52.8516 14.99219c0 .625-.503906 1.132812-1.132812 1.132812-.625 0-1.132812-.507812-1.132812-1.132812 0-.628907.507812-1.136719 1.132812-1.136719.628906 0 1.132812.507812 1.132812 1.136719" class="c"/><path d="M530.995625 465.568125c0-6.25-5.039063-11.328125-11.328125-11.328125-6.25 0-11.328125 5.078125-11.328125 11.328125 0 6.289063 5.078125 11.367188 11.328125 11.367188 6.289062 0 11.328125-5.078125 11.328125-11.367188zm0 0" class="a"/><g clip-path="url(#f)"><g clip-path="url(#g)"><path d="M151.190937 153.77125 519.6675 465.568125" class="a"/></g></g><g class="a"><path d="M441.581562 424.630625l69.921875 34.023438-45.351562-63.007813"/><path d="M151.190937 607.325938V68.732188"/><path d="M66.151875 153.77125h623.59375"/></g><g clip-path="url(#h)"><g clip-path="url(#i)"><path d="M1425.487813 183.380625l199.648437 282.1875" class="a"/></g></g><path d="M1560.253438 406.388438l58.59375 50.390625-27.734375-72.460938" class="a"/><g clip-path="url(#j)"><g clip-path="url(#k)"><path d="M1625.13625 465.568125l255.117188-85.039062" class="a"/></g></g><path d="M1804.6675 425.880625l65.507813-42.1875-77.460938 6.289063" class="a"/><g clip-path="url(#l)"><g clip-path="url(#m)"><path d="M1426.737813 182.130625l453.515625 198.398438" class="a"/></g></g><path d="M1793.964375 363.536875l76.835938 12.617188-61.71875-47.265625" class="a"/><g clip-path="url(#n)"><g clip-path="url(#o)"><path d="M2277.089375 97.091563l56.71875 255.117187" class="a"/></g></g><path d="M2296.620625 272.20875l34.648438 69.921875 2.539062-78.125" class="a"/><g clip-path="url(#p)"><g clip-path="url(#q)"><path d="M2333.808125 97.091563 2447.1675 607.325938" class="a"/></g></g><g clip-path="url(#r)"><path d="M2410.019063 527.325938l34.648437 69.921875 2.5-78.125" class="a"/></g></g><path d="M4.9688-1.23437l-.1562-.09375c-.109375.125-.15625.1875-.265625.328125-.28125.359375-.40625.46875-.5625.46875-.171875 0-.28125-.15625-.359375-.484375-.03125-.109375-.046875-.171875-.046875-.1875-.296875-1.125-.4375-1.765625-.4375-1.953125.53125-.921875.953125-1.453125 1.171875-1.453125.078125 0 .1875.046875.296875.109375.140625.078125.21875.09375.328125.09375.234375 0 .40625-.171875.40625-.421875 0-.265625-.203125-.4375-.484375-.4375-.53125 0-.96875.421875-1.8125 1.703125l-.125-.65625c-.171875-.8125-.296875-1.046875-.625-1.046875-.28125 0-.65625.09375-1.40625.34375l-.125.04688.0469.17188L1.0156-4.75c.234375-.0625.375-.078125.46875-.078125.296875 0 .375.109375.53125.828125l.3438 1.46875-.9687 1.39063C1.140625-.78125.90625-.5625.78125-.5625c-.078125 0-.203125-.03125-.3125-.109375C.3125-.75.1875-.78125.078125-.78125c-.234375 0-.40625.171875-.40625.40625 0 .3125.234375.5.609375.5.359375 0 .5-.09375 1.109375-.8125L2.4688-2.10937l.3594 1.4375c.140625.625.296875.796875.6875.796875.453125 0 .765625-.28125 1.453125-1.359375zm0 0" id="b"/><path d="M5.0938-4.5625c0-.390625-.3125-.703125-.671875-.703125-.28125 0-.4375.15625-.4375.40625 0 .1875.0625.328125.28125.515625.15625.140625.21875.25.21875.359375 0 .5625-.78125 1.875-1.640625 2.765625l-.375.375c-.078125-1.609375-.140625-2.28125-.296875-3.0625-.21875-1.296875-.25-1.359375-.359375-1.359375-.0625 0-.140625 0-.234375.046875C1.1875-5.140625.78125-5.0625.25-4.96875v.15625c.125-.015625.234375-.015625.359375-.015625.4375 0 .578125.21875.734375 1.109375.140625.90625.28125 2.65625.28125 3.390625 0 .21875 0 .546875.109375.546875.296875 0 1.375-1.21875 2.625-2.96875.421875-.59375.734375-1.359375.734375-1.8125zm0 0" id="a"/><path d="M2.3281-.07812c0-.984375-.6875-1.140625-.96875-1.140625-.296875 0-.6875.171875-.6875.6875 0 .484375.421875.609375.734375.609375.09375 0 .140625-.015625.1875-.03125s.07815-.01563.1094-.01563c.078125 0 .15625.046875.15625.15625 0 .234375-.1875.765625-.96875 1.265625l.0938.23438c.359375-.125 1.34375-.90625 1.34375-1.765625zm0 0" id="u"/><path d="M7.75-4.65625c0-.359375-.265625-.609375-.625-.609375-.28125 0-.46875.15625-.46875.390625 0 .171875.0625.265625.25.4375.1875.1875.265625.296875.265625.4375 0 .515625-.40625 1.15625-1.96875 3.109375L4.8125-5.09375c0-.125-.015625-.171875-.09375-.171875-.0625 0-.09375.03125-.15625.125L2.2656-1.5c-.046875-1.0625-.203125-2.5-.375-3.359375-.078125-.390625-.09375-.40625-.234375-.40625-.609375.140625-1.46875.28125-1.46875.28125v.15625h.3438c.359375 0 .4375.078125.53125.5.125.578125.28125 1.96875.34375 2.921875l.0469 1.0625c.015625.46875.046875.5625.15625.5625.125 0 1.375-2.3125 1.375-2.3125l1.0625-1.6875L4.4375-.14062c.015625.3125.046875.359375.125.359375.109375 0 .234375-.125.546875-.515625L5.2188-.4375C6.875-2.421875 7.75-3.890625 7.75-4.65625zm0 0" id="c"/><path d="M4.1563-1.20312 4.0469-1.25c-.328125.5-.4375.578125-.828125.578125H1.125l1.4688-1.53125C3.375-3.03125 3.71875-3.6875 3.71875-4.375c0-.875-.71875-1.546875-1.625-1.546875-.484375 0-.9375.1875-1.265625.546875-.28125.296875-.40625.578125-.5625 1.1875l.1875.04688C.8125-5 1.125-5.28125 1.734375-5.28125c.734375 0 1.234375.5 1.234375 1.234375 0 .6875-.40625 1.5-1.140625 2.28125l-1.5625 1.65625V0H3.6875zm0 0" id="d"/><path d="M3.4531 0v-.125c-.687475-.015625-.8281-.109375-.8281-.53125v-5.25l-.0781-.01562L.9688-5.125V-5c.109375-.046875.203125-.078125.234375-.109375.171875-.046875.3125-.09375.40625-.09375.171875 0 .25.140625.25.421875V-.8125c0 .28125-.0625.484375-.203125.5625-.125.078125-.25.109375-.625.125V0zm0 0" id="e"/><path d="M3.5313-8.57812c-1.734375 1.125-2.953125 3.0625-2.953125 5.5 0 2.234375 1.265625 4.484375 2.90625 5.5l.1563-.20312C2.0625.984375 1.609375-.46875 1.609375-3.109375c0-2.65625.484375-4.03125 2.03125-5.265625zm0 0" id="v"/><path d="M.4531-8.57812.3438-8.375C1.890625-7.140625 2.375-5.765625 2.375-3.109375 2.375-.46875 1.921875.984375.34375 2.21875l.1406.20313c1.65625-1.015625 2.921875-3.265625 2.921875-5.5 0-2.4375-1.21875-4.375-2.953125-5.5zm0 0" id="w"/><path d="M3.4063-3.46875H.7344v.79688h2.6719V0h.7969v-2.67187h2.6563v-.79687H4.2033v-2.67187h-.797zm0 0" id="x"/><path d="M5.6719-1.64062l-.1562-.0625c-.4375.6875-.59375.796875-1.125.796875H1.5313l2-2.10937C4.609375-4.125 5.0625-5.03125 5.0625-5.96875c0-1.1875-.96875-2.109375-2.203125-2.109375-.65625 0-1.28125.265625-1.71875.734375C.75-6.9375.578125-6.546875.375-5.703125l.25.0625c.46875-1.171875.90625-1.5625 1.734375-1.5625 1 0 1.6875.6875 1.6875 1.6875 0 .9375-.5625 2.046875-1.5625 3.109375l-2.125 2.26563V0h4.6563zm0 0" id="y"/></defs><use href="#t"/><use x=".697" y="9.325" href="#b"/><use x="6.364" y="11.118" href="#d"/><use x="57.991" y="20.664" href="#v"/><use x="62.5459" y="20.664" href="#a"/><use x="68.392" y="22.457" href="#e"/><use x="73.274" y="20.664" href="#u"/><use x="78.4865" y="20.664" href="#a"/><use x="84.328" y="22.457" href="#d"/><use x="89.21" y="20.664" href="#w"/><use x="60.228" y="57.517" href="#b"/><use x="65.895" y="59.31" href="#e"/><use x="171.194" y="16.002" href="#c"/><use x="167.165" y="42.839" href="#a"/><use x="175.6651" y="42.839" href="#x"/><use x="186.0781" y="42.839" href="#c"/><use x="219.074" y="40.508" href="#a"/><use x="241.657" y="32.003" href="#y"/><use x="247.7302" y="32.003" href="#a"/><use x="139.699" y="29.168" href="#a"/><style>.a{fill:none;stroke:#000;stroke-linecap:butt;stroke-linejoin:miter;stroke-miterlimit:10;stroke-opacity:1;stroke-width:4.72425;transform:matrix(.1,0,0,-.1,-.248,61.549)}.b{clip-rule:evenodd}.c{fill:#000;fill-opacity:1;fill-rule:evenodd}</style></svg>