<svg xmlns="http://www.w3.org/2000/svg" width="194pt" height="113pt" viewBox="0 0 194 113"><defs><clipPath id="b"><path d="M53 .5508h8V5h-8zm0 0"/></clipPath><clipPath id="c"><path d="M144 108h8v4.5508h-8zm0 0"/></clipPath><clipPath id="d"><path d="M1 60h50v24H1zm0 0"/></clipPath><clipPath id="e"><path clip-rule="evenodd" d="M.3672 112.5508h185v-112h-185zM51.25 69.8086l-.2422.7188-8.5781-1.1992 7.3789.4219-6.3594-3.8398zm0 0"/></clipPath><clipPath id="f"><path d="M0 0h186v113H0z"/></clipPath><g id="g" clip-path="url(#f)"><g fill-rule="evenodd" fill-opacity="1"><path d="M234.015312 19.982188h1575v1080h-1575zm0 0" style="fill:#ccc;stroke-width:4.5;stroke-linecap:butt;stroke-linejoin:miter;stroke:#000;stroke-opacity:1;stroke-miterlimit:10;transform:matrix(.1,0,0,-.1,.368,112.549)"/><g fill="#000"><path d="M181.2695 26.7891l1.9766 7.4414h-4.0195l2.043-7.3828zm0 0"/><path d="M23.7695 88.2305l-1.9805-7.4414h4.0195l-2.0391 7.3789zm0 0"/><path d="M53.1094 2.668 60.5469.6875v4.0234l-7.3789-2.043zm0 0" clip-path="url(#b)"/><path d="M151.5078 110.5508l-7.4414 1.9766v-4.0195l7.3828 2.043zm0 0" clip-path="url(#c)"/></g></g><g style="fill:none;stroke-width:4.5;stroke-linecap:butt;stroke-linejoin:miter;stroke:#000;stroke-opacity:1;stroke-dasharray:18;stroke-miterlimit:10;transform:matrix(.1,0,0,-.1,.368,112.549)"><path d="M1044.015312 334.982188v-315"/><path d="M819.015312 559.982188h-585"/><path d="M1044.015312 784.982188v315"/><path d="M1269.015312 559.982188h540"/></g><g class="b"><path d="M107.5273 98.5508l-1.9805-7.4414h4.0195l-2.0391 7.3789zm0 0"/><path d="M107.5273 22.7109l-1.9805-7.4414h4.0195l-2.0391 7.3789zm0 0"/><path d="M101.9492 14.9688l1.9805 7.4414h-4.0234l2.043-7.3828zm0 0"/><path d="M101.707 90.8672l1.9805 7.4414H99.668l2.0391-7.3789zm0 0"/><path d="M156.7266 53.7305l-7.4375 1.9805v-4.0235l7.3789 2.043zm0 0"/><path d="M54.8477 53.7305l-7.4414 1.9805v-4.0235l7.3828 2.043zm0 0"/><path d="M47.1094 59.3086l7.4375-1.9805v4.0195l-7.3789-2.0391zm0 0"/><path d="M149.0469 59.3086l7.4414-1.9805v4.0195l-7.3789-2.0391zm0 0"/></g><g clip-path="url(#d)"><g clip-path="url(#e)"><path d="M9.015312 289.982188l1.796875.625L13.82 292.404063l5.976562 3.59375 8.398438 4.21875 10.820312 5.976562 12.578125 6.601563 13.789063 7.8125 13.828125 8.398437 13.203125 7.8125 12.578125 7.773438 10.820312 7.8125 9.570313 7.1875 7.8125 6.601562 6.015625 7.1875 4.804687 6.601563 4.179688 8.398437 1.796875 9.023438v10.195312l-2.382813 11.40625-3.59375 11.992188L139.210625 442.99 133.195 456.193125l-4.804688 11.992188-4.179687 12.03125-2.421875 10.78125.625 8.984375 3.59375 7.226562 7.1875 4.804688 10.820312 2.96875 8.398438.625 9.570312-.625 11.40625-1.171875 13.203125-1.796875 15-3.007813 17.421875-3.59375 19.179688-4.804687 20.390625-5.390625 22.8125-5.429688 23.398437-6.601562 24.609375-7.1875 24.609375-6.601563 24.570313-7.1875 23.398437-6.601562 21.601563-6.601563L444.015312 442.99l16.796875-4.804687 14.375-4.804688 11.40625-2.96875 17.421875-5.429687" style="fill:none;stroke-width:4.5;stroke-linecap:butt;stroke-linejoin:bevel;stroke:#000;stroke-opacity:1;stroke-miterlimit:10;transform:matrix(.1,0,0,-.1,.368,112.549)"/></g></g><path d="M430.812187 466.388438 494.405937 427.99l-73.789062 4.21875" class="a"/><path fill-rule="evenodd" fill="#fff" fill-opacity="1" d="M127.2695 56.5508c0 12.425781-10.074219 22.5-22.5 22.5s-22.5-10.074219-22.5-22.5c0-12.429687 10.074219-22.5 22.5-22.5s22.5 10.070313 22.5 22.5"/><path d="M1269.015312 559.982188c0-124.257813-100.742187-225-225-225-124.257812 0-225 100.742187-225 225 0 124.296875 100.742188 225 225 225 124.257813 0 225-100.703125 225-225zm0 0" class="a"/><g class="b"><path d="M123.0664 43.3477l-6.6602-3.8398 2.7618-2.7579 3.8984 6.5391zm0 0"/><path d="M105.4883 56.5508c0 .394531-.324219.71875-.71875.71875-.398437 0-.722656-.324219-.722656-.71875 0-.398437.324219-.722656.722656-.722656.394531 0 .71875.324219.71875.722656"/></g><path d="M1051.202812 559.982188c0-3.945313-3.242187-7.1875-7.1875-7.1875-3.984375 0-7.226562 3.242187-7.226562 7.1875 0 3.984375 3.242187 7.226562 7.226562 7.226562 3.945313 0 7.1875-3.242187 7.1875-7.226562zm0 0" class="a"/></g><path d="M5.6875-3.9375c0-2.453125-1.078125-4.140625-2.65625-4.140625-.65625 0-1.15625.203125-1.59375.625-.703125.65625-1.15625 2.03125-1.15625 3.4375 0 1.296875.40625 2.703125.96875 3.375.4375.515625 1.046875.8125 1.734375.8125.609375 0 1.125-.203125 1.5625-.625C5.234375-1.109375 5.6875-2.5 5.6875-3.9375zm-1.1406.0156c0 2.5-.53125 3.78125-1.5625 3.78125s-1.5469-1.281225-1.5469-3.7656c0-2.53125.53125-3.859375 1.5625-3.859375 1 0 1.546875 1.34375 1.546875 3.84375zm0 0" id="h"/><path d="M7.1719-1.5625l-.2031-.1719C5.890675-.6719 5.203175-.32815 4.2188-.32815c-1.328125 0-2.09375-.890625-2.09375-2.4375 0-1.4375.578125-2.875 1.515625-3.84375.5625-.59375 1.3125-.921875 2.109375-.921875 1.09375 0 1.703125.640625 1.828125 1.9375l.2188.0313.4375-2.375h-.25c-.09375.1875-.21875.265625-.453125.265625-.109375 0-.234375-.03125-.484375-.078125C6.515725-7.8906 6.03135-7.9531 5.640725-7.9531c-2.5625 0-4.859375 2.390625-4.859375 5.046875 0 1.828125 1.296875 3.125 3.125 3.125 1.234375 0 2.1875-.515625 3.265625-1.78125zm0 0" id="i"/><path d="M6.3438-5.25l-.875.1719c-.546875 1.28125-1.1875 2.5625-2.03125 3.6875.046875-1.171875.140625-3.875-1.578125-3.875C1.06255-5.2656.0313-4.2031.0313-3.48435c0 .03125.015625.078125.0625.078125.265625 0 .234375-1.015625 1.40625-1.015625 1.25 0 1.3125 2.4375 1.3125 3.3125 0 .3125-.015625.578125-.015625.875-.40625.53125-1.375 1.734375-1.375 2.390625 0 .21875.09375.3125.328125.3125.984375 0 1.171875-2.03125 1.484375-2.703125.203075-.4219.703075-1.01565.984325-1.4219C5.015625-2.765625 5.875-3.953125 6.34375-5.25zm0 0" id="j"/><path d="M9.1406-7.6094v-.2031h-2.375v.2031c.640625.0625.84375.1875.84375.546875 0 .1875-.296875 1.375-.875 3.421875l-.1562.5938c-.531275 1.9531-1.2969 2.7656-2.6094 2.7656-1 0-1.671875-.5625-1.671875-1.40625 0-.40625.359375-1.8125 1.171875-4.609375l.0625-.2344c.25-.828125.4375-1 1.25-1.078125v-.2031H1.5156v.2031c.8125.0625.9375.140625.9375.484375 0 .140625-.03125.328125-.09375.53125l-.625 2.2969C1.359375-2.984375 1.21875-2.25 1.21875-1.75c0 1.140625 1.09375 1.96875 2.609375 1.96875 1.5625 0 2.5625-.859375 3.078125-2.640625l1-3.4062c.453125-1.5625.5-1.625 1.234375-1.78125zm0 0" id="a"/><path d="M3.4531 0v-.125c-.687475-.015625-.8281-.109375-.8281-.53125v-5.25l-.0781-.0156L.9688-5.125V-5c.109375-.046875.203125-.078125.234375-.109375.171875-.046875.3125-.09375.40625-.09375.171875 0 .25.140625.25.421875V-.8125c0 .28125-.0625.484375-.203125.5625-.125.078125-.25.109375-.625.125V0zm0 0" id="k"/><path d="M4.1563-1.2031 4.0469-1.25c-.328125.5-.4375.578125-.828125.578125H1.125l1.4688-1.5312C3.375-3.03125 3.71875-3.6875 3.71875-4.375c0-.875-.71875-1.546875-1.625-1.546875-.484375 0-.9375.1875-1.265625.546875-.28125.296875-.40625.578125-.5625 1.1875l.1875.0469C.8125-5 1.125-5.28125 1.734375-5.28125c.734375 0 1.234375.5 1.234375 1.234375 0 .6875-.40625 1.5-1.140625 2.28125l-1.5625 1.6563V0H3.6875zm0 0" id="l"/><path d="M3.7813-1.9219c0-.4375-.140625-.859375-.390625-1.125-.171875-.203125-.34375-.296875-.71875-.46875.59375-.40625.8125-.734375.8125-1.203125 0-.71875-.5625-1.203125-1.359375-1.203125-.4375 0-.828125.140625-1.140625.421875-.265625.234375-.390625.46875-.59375 1l.1406.0313c.359375-.640625.75-.9375 1.296875-.9375.578125 0 .96875.390625.96875.9375 0 .328125-.125.640625-.34375.859375-.26565.2656-.51565.3906-1.1094.60935v.1094c.515625 0 .71875.015625.921875.09375.546875.1875.890625.6875.890625 1.296875 0 .734375-.5 1.3125-1.15625 1.3125-.234375 0-.40625-.0625-.734375-.28125-.25-.15625-.40625-.21875-.5625-.21875-.1875 0-.328125.125-.328125.3125 0 .3125.375.5 1 .5.671875 0 1.359375-.234375 1.765625-.59375C3.5625-.8281 3.78125-1.3281 3.78125-1.92185zm0 0" id="m"/><path d="M4.1406-1.4687v-.5625H3.25v-3.8906h-.3906l-2.75 3.8906v.5625h2.4531V0H3.25v-1.4687zm-1.5781-.5625H.4531l2.1094-3zm0 0" id="n"/></defs><use transform="translate(3)" href="#g"/><use x="107.77" y="65.507" href="#h"/><use x="128.279" y="76.308" href="#i"/><use x="186.9" y="88.488" href="#j"/><use x="-.604" y="97.008" href="#a"/><use x="55.803" y="92.508" href="#a"/><use x="64.435" y="94.301" href="#k"/><use x="55.803" y="29.507" href="#a"/><use x="64.435" y="31.3" href="#l"/><use x="145.805" y="29.507" href="#a"/><use x="154.437" y="31.3" href="#m"/><use x="145.805" y="92.508" href="#a"/><use x="154.437" y="94.301" href="#n"/><style>.a{fill:none;stroke:#000;stroke-linecap:butt;stroke-linejoin:miter;stroke-miterlimit:10;stroke-opacity:1;stroke-width:4.5;transform:matrix(.1,0,0,-.1,.368,112.549)}.b{fill:#000;fill-opacity:1;fill-rule:evenodd}</style></svg>